<svg width="240" height="177" viewBox="0 0 240 177" fill="none" xmlns="http://www.w3.org/2000/svg">
<path d="M0 0V146H190.716C196.02 146 201.107 148.107 204.858 151.858L224.142 171.142C227.893 174.893 232.98 177 238.284 177H240V146H210.284C204.98 146 199.893 143.893 196.142 140.142L179.858 123.858C176.107 120.107 171.02 118 165.716 118H28V87H137.716C143.02 87 148.107 89.1071 151.858 92.8579L171.142 112.142C174.893 115.893 179.98 118 185.284 118H240V87H157.284C151.98 87 146.893 84.8929 143.142 81.1421L126.858 64.8579C123.107 61.1071 118.02 59 112.716 59H28V28H84.7157C90.0201 28 95.1071 30.1071 98.8579 33.8579L118.142 53.1421C121.893 56.8929 126.98 59 132.284 59H240V28H104.284C98.9799 28 93.8929 25.8929 90.1421 22.1421L73.8579 5.85786C70.1071 2.10713 65.0201 0 59.7157 0H0Z" fill="#1E2D4C"/>
<path fill-rule="evenodd" clip-rule="evenodd" d="M3.982 167.778C3.234 167.147 2.794 166.311 2.662 165.27H12.188C12.2613 164.903 12.298 164.588 12.298 164.324C12.298 162.667 11.7407 161.295 10.626 160.21C9.51133 159.11 8.14733 158.56 6.534 158.56C4.93533 158.56 3.586 159.125 2.486 160.254C1.386 161.369 0.836 162.777 0.836 164.478C0.836 166.179 1.39333 167.595 2.508 168.724C3.63733 169.839 5.02333 170.396 6.666 170.396C7.79533 170.396 8.822 170.117 9.746 169.56C10.6847 168.988 11.396 168.218 11.88 167.25L10.252 166.612C9.92933 167.272 9.44533 167.793 8.8 168.174C8.15467 168.541 7.436 168.724 6.644 168.724C5.61733 168.724 4.73 168.409 3.982 167.778ZM9.262 161.178C10.01 161.809 10.428 162.637 10.516 163.664H2.662C2.794 162.623 3.21933 161.794 3.938 161.178C4.67133 160.547 5.544 160.232 6.556 160.232C7.612 160.232 8.514 160.547 9.262 161.178Z" fill="#1E2D4C"/>
<path fill-rule="evenodd" clip-rule="evenodd" d="M21.0695 168.339V170H22.8295V162.74C22.8295 161.655 22.3748 160.723 21.4655 159.946C20.5561 159.154 19.4781 158.758 18.2315 158.758C17.2048 158.758 16.2881 159.044 15.4815 159.616C14.6748 160.188 14.1321 160.936 13.8535 161.86L15.4815 162.388C15.6428 161.801 15.9875 161.325 16.5155 160.958C17.0435 160.591 17.6521 160.408 18.3415 160.408C19.1041 160.408 19.7495 160.657 20.2775 161.156C20.8055 161.655 21.0695 162.241 21.0695 162.916V163.356L17.5495 163.752C16.4201 163.884 15.5328 164.243 14.8875 164.83C14.2568 165.402 13.9341 166.143 13.9195 167.052C13.9195 167.991 14.2568 168.761 14.9315 169.362C15.6208 169.949 16.4861 170.242 17.5275 170.242C18.7595 170.242 19.7861 169.802 20.6075 168.922C20.7795 168.738 20.9335 168.543 21.0695 168.339ZM17.9235 165.292L21.0695 164.918V165.6C21.0695 166.509 20.7835 167.243 20.2115 167.8C19.6541 168.357 18.9061 168.636 17.9675 168.636C17.2781 168.636 16.7281 168.489 16.3175 168.196C15.9068 167.888 15.7015 167.485 15.7015 166.986C15.7015 166.033 16.4421 165.468 17.9235 165.292Z" fill="#1E2D4C"/>
<path d="M25.184 162.014C25.184 163.701 26.548 164.779 29.276 165.248C31.124 165.571 32.048 166.157 32.048 167.008C32.048 167.492 31.8207 167.895 31.366 168.218C30.9113 168.526 30.3393 168.68 29.65 168.68C28.946 168.68 28.3153 168.497 27.758 168.13C27.2153 167.763 26.8047 167.265 26.526 166.634L24.92 167.316C25.2867 168.211 25.9027 168.922 26.768 169.45C27.648 169.978 28.6233 170.242 29.694 170.242C30.838 170.242 31.806 169.934 32.598 169.318C33.4047 168.687 33.808 167.91 33.808 166.986C33.808 165.226 32.3707 164.097 29.496 163.598C28.6013 163.437 27.9487 163.224 27.538 162.96C27.142 162.696 26.944 162.351 26.944 161.926C26.944 161.471 27.142 161.09 27.538 160.782C27.9487 160.474 28.462 160.32 29.078 160.32C29.694 160.32 30.244 160.503 30.728 160.87C31.2267 161.237 31.6007 161.743 31.85 162.388L33.522 161.794C33.17 160.855 32.5833 160.107 31.762 159.55C30.9553 158.993 30.046 158.714 29.034 158.714C27.934 158.714 27.0173 159.029 26.284 159.66C25.5507 160.276 25.184 161.061 25.184 162.014Z" fill="#1E2D4C"/>
<path d="M46.1833 159H44.2253L40.7273 167.624L37.2513 159H35.2933L39.6713 169.604L37.8233 174.4H39.7813L46.1833 159Z" fill="#1E2D4C"/>
<path d="M52.2919 155.744C52.6586 155.363 53.1426 155.172 53.7439 155.172H57.0439V170H58.8039V153.5H53.5019C52.5486 153.5 51.7273 153.837 51.0379 154.512C50.3486 155.187 50.0039 155.986 50.0039 156.91V159H47.4739V160.628H50.0039V170H51.7639V160.628H55.3279V159H51.7639V157.284C51.7639 156.639 51.9399 156.125 52.2919 155.744Z" fill="#1E2D4C"/>
<path fill-rule="evenodd" clip-rule="evenodd" d="M68.0343 168.339V170H69.7943V162.74C69.7943 161.655 69.3396 160.723 68.4303 159.946C67.521 159.154 66.443 158.758 65.1963 158.758C64.1696 158.758 63.253 159.044 62.4463 159.616C61.6396 160.188 61.097 160.936 60.8183 161.86L62.4463 162.388C62.6076 161.801 62.9523 161.325 63.4803 160.958C64.0083 160.591 64.617 160.408 65.3063 160.408C66.069 160.408 66.7143 160.657 67.2423 161.156C67.7703 161.655 68.0343 162.241 68.0343 162.916V163.356L64.5143 163.752C63.385 163.884 62.4976 164.243 61.8523 164.83C61.2216 165.402 60.899 166.143 60.8843 167.052C60.8843 167.991 61.2216 168.761 61.8963 169.362C62.5856 169.949 63.451 170.242 64.4923 170.242C65.7243 170.242 66.751 169.802 67.5723 168.922C67.7443 168.738 67.8983 168.543 68.0343 168.339ZM64.8883 165.292L68.0343 164.918V165.6C68.0343 166.509 67.7483 167.243 67.1763 167.8C66.619 168.357 65.871 168.636 64.9323 168.636C64.243 168.636 63.693 168.489 63.2823 168.196C62.8716 167.888 62.6663 167.485 62.6663 166.986C62.6663 166.033 63.407 165.468 64.8883 165.292Z" fill="#1E2D4C"/>
<path fill-rule="evenodd" clip-rule="evenodd" d="M81.1688 160.855C81.0072 160.613 80.8239 160.383 80.6188 160.166C79.6655 159.125 78.4848 158.604 77.0768 158.604C75.6248 158.604 74.3928 159.125 73.3808 160.166C72.3835 161.207 71.8848 162.513 71.8848 164.082C71.8848 165.637 72.3835 166.935 73.3808 167.976C74.3928 169.003 75.6248 169.516 77.0768 169.516C78.4848 169.516 79.6655 169.003 80.6188 167.976C80.8239 167.755 81.0072 167.523 81.1688 167.279V170.22C81.1688 171.1 80.8095 171.826 80.0908 172.398C79.3868 172.97 78.5068 173.256 77.4508 173.256C76.6148 173.256 75.8595 173.029 75.1848 172.574C74.5102 172.119 74.0042 171.503 73.6668 170.726L72.1268 171.584C72.5962 172.655 73.3075 173.498 74.2608 174.114C75.2288 174.73 76.3068 175.038 77.4948 175.038C79.0495 175.038 80.3402 174.591 81.3668 173.696C82.4082 172.801 82.9288 171.643 82.9288 170.22V159H81.1688V160.855ZM81.1688 164.082C81.1688 165.167 80.8022 166.062 80.0688 166.766C79.3502 167.455 78.4628 167.8 77.4068 167.8C76.3508 167.8 75.4562 167.455 74.7228 166.766C74.0042 166.062 73.6448 165.167 73.6448 164.082C73.6448 162.997 74.0042 162.109 74.7228 161.42C75.4562 160.716 76.3508 160.364 77.4068 160.364C78.4628 160.364 79.3502 160.716 80.0688 161.42C80.8022 162.109 81.1688 162.997 81.1688 164.082Z" fill="#1E2D4C"/>
<path d="M85.2973 162.014C85.2973 163.701 86.6613 164.779 89.3893 165.248C91.2373 165.571 92.1613 166.157 92.1613 167.008C92.1613 167.492 91.9339 167.895 91.4793 168.218C91.0246 168.526 90.4526 168.68 89.7633 168.68C89.0593 168.68 88.4286 168.497 87.8713 168.13C87.3286 167.763 86.9179 167.265 86.6393 166.634L85.0333 167.316C85.3999 168.211 86.0159 168.922 86.8813 169.45C87.7613 169.978 88.7366 170.242 89.8073 170.242C90.9513 170.242 91.9193 169.934 92.7113 169.318C93.5179 168.687 93.9213 167.91 93.9213 166.986C93.9213 165.226 92.4839 164.097 89.6093 163.598C88.7146 163.437 88.0619 163.224 87.6513 162.96C87.2553 162.696 87.0573 162.351 87.0573 161.926C87.0573 161.471 87.2553 161.09 87.6513 160.782C88.0619 160.474 88.5753 160.32 89.1913 160.32C89.8073 160.32 90.3573 160.503 90.8413 160.87C91.3399 161.237 91.7139 161.743 91.9633 162.388L93.6353 161.794C93.2833 160.855 92.6966 160.107 91.8753 159.55C91.0686 158.993 90.1593 158.714 89.1473 158.714C88.0473 158.714 87.1306 159.029 86.3973 159.66C85.6639 160.276 85.2973 161.061 85.2973 162.014Z" fill="#1E2D4C"/>
</svg>
