<svg width="180" height="120" viewBox="0 0 180 120" fill="none" xmlns="http://www.w3.org/2000/svg">
<g clip-path="url(#clip0_909_280723)">
<path d="M0 0H180V120H0V0Z" fill="#D91C16"/>
<path fill-rule="evenodd" clip-rule="evenodd" d="M75.2498 24.575C75.2248 23.7 77.1498 23.325 78.2998 23.325H78.3248C79.3653 23.4384 80.3794 23.7257 81.3248 24.1749C82.9078 24.6782 84.5436 24.997 86.1998 25.125C85.502 25.7064 85.1796 25.9235 84.7338 26.2238C84.5086 26.3755 84.252 26.5483 83.8997 26.7999C85.2448 27.311 86.4157 28.1957 87.2747 29.35C86.8081 29.3666 86.447 29.3666 86.1553 29.3666C85.572 29.3666 85.2664 29.3666 84.9498 29.5C86.8748 30.0499 87.7747 30.375 88.7747 31.4C88.3997 31.45 87.8748 31.5499 87.6497 31.65C87.4248 31.75 87.4998 31.85 87.6748 32C87.9145 32.1692 88.5598 32.8792 89.1667 33.5469C89.6357 34.063 90.0818 34.5538 90.2998 34.75C90.5178 34.5538 90.9639 34.063 91.4329 33.5469C92.0398 32.8792 92.6851 32.1692 92.9249 32C93.0999 31.85 93.1749 31.75 92.9499 31.65C92.7249 31.5499 92.1999 31.45 91.8249 31.4C92.8249 30.375 93.7249 30.0499 95.6499 29.5C95.3332 29.3666 95.0276 29.3666 94.4443 29.3666C94.1526 29.3666 93.7915 29.3666 93.3249 29.35C94.1839 28.1957 95.3549 27.311 96.6999 26.7999C96.3476 26.5483 96.091 26.3755 95.8658 26.2238C95.42 25.9235 95.0976 25.7064 94.3999 25.125C96.056 24.997 97.6918 24.6782 99.2749 24.1749C100.22 23.7257 101.234 23.4384 102.275 23.325H102.3C103.45 23.325 105.375 23.7 105.35 24.575C108.6 24.05 108.925 25.375 108.725 26.575C108.425 26.1 108.05 25.8249 107.75 25.7999C107.325 25.7249 106.875 25.875 106.4 26.15C105.952 26.431 105.548 26.7764 105.2 27.1749C106.294 27.4367 107.162 27.2908 108.019 27.1468C108.063 27.1395 108.106 27.1322 108.15 27.125C108.658 27.0166 109.142 26.813 109.575 26.525C109.803 26.3727 109.939 26.2204 110.14 25.9947C110.269 25.8498 110.425 25.6747 110.65 25.45C111.325 24.75 112.05 24.9499 111.825 26.025C111.3 27.025 110.425 27.4749 109.325 27.6749C109.209 27.6915 109.079 27.713 108.938 27.7364C108.441 27.8188 107.801 27.9249 107.1 27.9249C106.79 27.9249 106.468 27.9101 106.157 27.8958C105.565 27.8685 105.01 27.843 104.65 27.9249C104.719 27.9676 104.791 28.0182 104.868 28.0727C105.152 28.2735 105.51 28.5266 106.1 28.625C106.605 28.7259 107.28 28.487 107.881 28.2742C108.172 28.171 108.446 28.074 108.675 28.025C108.6 28.5999 107.85 29.15 106.4 29.45L106.225 29.4864C103.904 29.9697 101.993 30.3676 100.7 31.075C99.652 31.6592 98.7268 32.4401 97.9749 33.375C96.9086 34.6227 96.7482 35.6234 96.6902 35.9848C96.6843 36.0216 96.6795 36.0518 96.6749 36.075C96.4249 38.275 97.1999 39.5249 98.6499 39.9249C99.3499 40.0999 100.65 39.75 101.1 39.2C101.6 38.65 102.025 37.7 101.9 36.2C101.873 36.0831 101.823 35.9223 101.766 35.7386C101.553 35.0574 101.242 34.0612 101.675 33.825C104.282 32.3924 106.979 31.1314 109.75 30.0499C110.375 29.7999 110.875 30.65 111.075 31C112.921 30.7426 114.686 30.0774 116.243 29.0525C117.8 28.0276 119.109 26.6689 120.075 25.075C121.125 23.175 122.9 25.0749 122.6 26.9C122.125 28.9 120.6 30.3499 118.75 31.4C116.875 32.4249 114.5 33.45 112.125 33.4C110.825 33.65 110.85 35.2999 112.375 35.625C115.4 35.625 117.825 35.575 120.1 33.375C121.825 31.7999 122.775 33.6749 122.3 34.7249C121.45 37.9999 116.775 38.9249 112.05 37.875C110.2 37.575 111.3 39.5249 111.8 39.5499C113.8 40.9749 117.325 42.3499 120.45 39.5499C121.875 38.45 122.85 39.3499 122.3 40.9249C120.925 45.0499 115.625 44.1749 112 42.1749C111.075 41.6499 110.225 42.85 111.35 43.775C115.875 46.9249 118.125 46.975 120.175 45.775C122.725 44.75 122.925 47.575 121.425 48.525C119.75 49.525 115.475 48.775 112.325 46.775C110.975 45.775 110.925 47.3499 111.775 47.9749C115.5 51.2 116.975 52.0499 120.85 51.525C122.775 51.375 122.75 53.75 121.25 54.6749C119.175 55.95 115.125 53.8499 112 51.2249C110.675 50.5249 110.45 51.6749 111.1 53.0499C112.484 55.0081 114.365 56.5616 116.55 57.5499C118.3 58.2249 119.95 58.125 121.125 57.7249C122.575 57.2249 122.75 58.725 121.95 60.075C121.475 60.9 119.5 61.15 117.35 60.4C115.2 59.65 112.9 57.85 111.325 55.775C109.95 54.5499 110.1 56.1749 110.75 57.325C113.9 62.325 116.8 64.1749 120.625 63.875C122.3 63.575 122.7 64.875 121.625 66.125C119.725 67.6749 117.375 67.6249 115.275 66.075C113.45 64.325 109.925 60.4749 108.075 58.4249C106.775 57.3999 106.35 58.425 106.75 60.525C107.1 61.725 107.95 63.0249 110.325 63.9249C111.95 64.8499 110.725 66.125 109.525 66.175C108.85 66.175 107.5 65.375 106.45 64.2249C105.348 62.9593 105.079 62.0437 104.609 60.4436C104.503 60.0842 104.387 59.6902 104.25 59.25C103.55 58.0999 102.275 58.6499 102.275 59.8499C102.9 62.25 103.4 62.675 104.65 63.65C105.825 64.7749 103.825 65.1499 103.15 64.675C101.217 63.3867 100.513 61.7056 99.8674 60.1669L99.8499 60.125C99.3499 59.025 97.9999 59.5499 98.6499 61.375C100.15 65.7249 102.65 67.4249 106.975 68.325C107.4 68.3999 107.675 68.6499 107.525 69.1499L105.775 70.8999C107.304 71.3573 108.67 71.7002 110.064 72.0503C111.108 72.3125 112.168 72.5787 113.325 72.8999L117.025 70.45C117.06 70.3623 117.094 70.2692 117.129 70.1741C117.41 69.4015 117.739 68.4958 119.475 69.2749C120.775 68.675 121.4 68.8999 122.125 69.5249C121.075 69.5249 120.625 69.825 120.2 70.3C119.65 71.725 118.4 71.875 117.125 71.4749C116.712 71.8128 116.399 72.1193 116.083 72.4289C115.768 72.738 115.449 73.0503 115.025 73.3999L119.2 73.2749C120.7 71.7 121.85 71.7749 122.9 73.0249C122.942 73.0313 122.983 73.0374 123.023 73.0433C123.759 73.1525 124.078 73.1999 124.6 74.125C123.75 73.7749 123.2 73.675 122.825 74.05C121.25 74.975 120.225 74.7749 119.45 74.05L115.075 74.325C115.377 74.5992 115.738 74.7983 116.099 74.9964C116.395 75.1594 116.69 75.3218 116.95 75.5249C119.2 74.875 120.4 75.7749 120.8 77.5999C121.116 78.3315 121.22 79.1372 121.1 79.925C120.9 79.175 120.525 78.55 119.875 78.175C117.875 78.675 117.125 77.85 117 76.6499C116.503 76.2524 115.895 76.0092 115.289 75.767C114.676 75.5217 114.065 75.2774 113.575 74.875C112.898 75.0809 112.429 75.2436 111.923 75.4191C111.57 75.5417 111.198 75.6706 110.725 75.825C110.325 77.075 109.4 77.5499 107.9 77.2249C106.466 77.2659 106.408 77.7767 106.352 78.2761C106.339 78.3864 106.327 78.496 106.3 78.5999C105.8 77.7749 105.825 76.95 106.925 76.2C107.325 75.1249 108.225 74.625 109.375 75.25C109.936 75.0968 110.283 74.9046 110.634 74.7098C110.971 74.5231 111.311 74.334 111.85 74.175C110.475 73.7375 109.3 73.4687 108.125 73.2C106.95 72.9312 105.775 72.6624 104.4 72.2249L102.475 73.925C102.1 74.1499 101.75 74.2 101.525 73.925C100.815 72.8958 100.266 71.9218 99.7555 71.0168C99.0262 69.7233 98.3765 68.5707 97.4499 67.5999C97.4248 67.5719 97.3995 67.5435 97.374 67.5149C96.7626 66.8289 96.0158 65.9909 95.1999 65.7749C94.7749 65.6499 94.2499 65.7249 93.8999 66.0999C93.5749 66.45 93.2999 67.125 93.3999 68.1499C93.5443 69.3265 93.8081 69.8554 94.1208 70.4825C94.1869 70.6149 94.2551 70.7517 94.3249 70.8999C94.6758 71.6224 95.0608 72.1063 95.4799 72.633C95.5683 72.7442 95.6583 72.8573 95.7498 72.9749C96.6328 74.1449 97.7886 74.886 98.5978 75.4048C98.705 75.4736 98.8062 75.5385 98.8999 75.5999C100.144 76.3971 100.814 76.3021 101.638 76.1852C101.874 76.1518 102.122 76.1166 102.4 76.0999C104 76.2749 104.4 77.0499 103.1 78.125C101.9 78.7749 100.8 78.85 99.8999 78.675C99.335 78.562 98.6852 77.9811 98.1211 77.477C97.9361 77.3117 97.7604 77.1546 97.5999 77.0249C96.8999 76.2 95.6999 77.175 96.5249 78.1499C97.9999 79.8999 99.4499 81.05 101.275 81.0249C103.2 81.2749 102.825 82.3499 101.575 82.875C99.2749 83.7999 97.2249 82.0499 96.1749 80.875C95.3749 80 94.7999 79.9749 94.9249 81.3499C95.7499 83.825 96.8249 84.7749 98.6248 84.8999C100.075 84.75 100.1 85.8999 99.0249 86.6499C96.6249 88.2999 94.8749 85.45 94.0499 83.75C93.4749 82.2 92.5749 82.9249 92.4749 84.2C92.4749 85.9249 93.2249 87.3 95.2999 89.05C94.5123 90.3125 93.6561 91.5875 92.7998 92.8625C91.9436 94.1375 91.0873 95.4125 90.2998 96.675C89.5123 95.4125 88.656 94.1375 87.7998 92.8625C86.9435 91.5875 86.0873 90.3125 85.2998 89.05C87.3748 87.3 88.1248 85.9249 88.1248 84.2C88.0247 82.9249 87.1248 82.2 86.5498 83.75C85.7248 85.45 83.9748 88.2999 81.5748 86.6499C80.4998 85.8999 80.5248 84.75 81.9748 84.8999C83.7748 84.7749 84.8498 83.825 85.6748 81.3499C85.7998 79.9749 85.2248 80 84.4248 80.875C83.3748 82.0499 81.3248 83.7999 79.0247 82.875C77.7747 82.3499 77.3998 81.2749 79.3248 81.0249C81.1498 81.05 82.5998 79.8999 84.0748 78.1499C84.8998 77.175 83.6998 76.2 82.9998 77.0249C82.8393 77.1546 82.6635 77.3117 82.4786 77.477C81.9144 77.9811 81.2646 78.562 80.6998 78.675C79.7998 78.85 78.6998 78.7749 77.4998 78.125C76.1998 77.0499 76.5998 76.2749 78.1998 76.0999C78.4776 76.1166 78.7258 76.1518 78.9614 76.1852C79.7857 76.3021 80.4554 76.3971 81.6998 75.5999C81.7934 75.5385 81.8946 75.4736 82.0018 75.4048C82.811 74.886 83.9668 74.1449 84.8498 72.9749C84.9413 72.8573 85.0313 72.7442 85.1198 72.633C85.5388 72.1063 85.9238 71.6224 86.2747 70.8999C86.3445 70.7517 86.4127 70.6149 86.4788 70.4825C86.7915 69.8554 87.0553 69.3265 87.1998 68.1499C87.2998 67.125 87.0248 66.45 86.6998 66.0999C86.3498 65.7249 85.8248 65.6499 85.3997 65.7749C84.5838 65.9909 83.837 66.8289 83.2256 67.5149C83.2001 67.5435 83.1748 67.5719 83.1497 67.5999C82.2231 68.5707 81.5734 69.7233 80.8442 71.0168C80.334 71.9218 79.7848 72.8958 79.0748 73.925C78.8498 74.2 78.4998 74.1499 78.1248 73.925L76.1998 72.2249C74.8248 72.6624 73.6498 72.9312 72.4748 73.2C71.2998 73.4687 70.1248 73.7375 68.7498 74.175C69.2882 74.334 69.629 74.5231 69.9656 74.7098C70.3167 74.9046 70.6632 75.0968 71.2248 75.25C72.3748 74.625 73.2748 75.1249 73.6748 76.2C74.7748 76.95 74.7998 77.7749 74.2998 78.5999C74.2726 78.496 74.2602 78.3864 74.2478 78.2761C74.1912 77.7767 74.1334 77.2659 72.6998 77.2249C71.1998 77.5499 70.2748 77.075 69.8748 75.825C69.4015 75.6706 69.0299 75.5417 68.6763 75.4191C68.1705 75.2436 67.7015 75.0809 67.0248 74.875C66.5342 75.2774 65.9235 75.5217 65.3103 75.767C64.7047 76.0092 64.0967 76.2524 63.5998 76.6499C63.4748 77.85 62.7248 78.675 60.7248 78.175C60.0748 78.55 59.6998 79.175 59.4998 79.925C59.3798 79.1372 59.4838 78.3315 59.7998 77.5999C60.1998 75.7749 61.3998 74.875 63.6498 75.5249C63.9093 75.3218 64.2046 75.1594 64.501 74.9964C64.8611 74.7983 65.223 74.5992 65.5248 74.325L61.1498 74.05C60.3748 74.7749 59.3498 74.975 57.7748 74.05C57.3998 73.675 56.8498 73.7749 55.9998 74.125C56.5216 73.1999 56.8409 73.1525 57.5769 73.0433C57.6166 73.0374 57.6575 73.0313 57.6998 73.0249C58.7498 71.7749 59.8998 71.7 61.3998 73.2749L65.5748 73.3999C65.1501 73.0503 64.8316 72.738 64.5162 72.4289C64.2003 72.1193 63.8876 71.8128 63.4748 71.4749C62.1998 71.875 60.9498 71.725 60.3998 70.3C59.9748 69.825 59.5248 69.5249 58.4748 69.5249C59.1998 68.8999 59.8248 68.675 61.1248 69.2749C62.8611 68.4958 63.1901 69.4015 63.4708 70.1741C63.5053 70.2692 63.5391 70.3623 63.5748 70.45L67.2748 72.8999C68.4312 72.5787 69.4914 72.3125 70.5358 72.0503C71.9297 71.7002 73.2955 71.3573 74.8248 70.8999L73.0748 69.1499C72.9248 68.6499 73.1998 68.3999 73.6248 68.325C77.9498 67.4249 80.4498 65.7249 81.9498 61.375C82.5998 59.5499 81.2498 59.025 80.7498 60.125L80.7322 60.1669C80.087 61.7056 79.3822 63.3867 77.4498 64.675C76.7748 65.1499 74.7748 64.7749 75.9498 63.65C77.1998 62.675 77.6998 62.25 78.3248 59.8499C78.3248 58.6499 77.0498 58.0999 76.3498 59.25C76.2122 59.6902 76.0965 60.0842 75.9909 60.4437C75.521 62.0437 75.2521 62.9593 74.1498 64.2249C73.0998 65.375 71.7498 66.175 71.0748 66.175C69.8748 66.125 68.6498 64.8499 70.2748 63.9249C72.6498 63.0249 73.4998 61.725 73.8498 60.525C74.2498 58.425 73.8248 57.3999 72.5248 58.4249C70.6748 60.4749 67.1498 64.325 65.3248 66.075C63.2248 67.6249 60.8748 67.6749 58.9748 66.125C57.8998 64.875 58.2998 63.575 59.9748 63.875C63.7998 64.1749 66.6998 62.325 69.8498 57.325C70.4998 56.1749 70.6498 54.5499 69.2748 55.775C67.6998 57.85 65.3998 59.65 63.2498 60.4C61.0998 61.15 59.1248 60.9 58.6498 60.075C57.8498 58.725 58.0248 57.2249 59.4748 57.7249C60.6498 58.125 62.2998 58.2249 64.0498 57.5499C66.2345 56.5616 68.1158 55.0081 69.4998 53.0499C70.1498 51.6749 69.9248 50.5249 68.5998 51.2249C65.4748 53.8499 61.4248 55.95 59.3498 54.6749C57.8498 53.75 57.8248 51.375 59.7498 51.525C63.6248 52.0499 65.0998 51.2 68.8248 47.9749C69.6748 47.3499 69.6248 45.775 68.2748 46.775C65.1248 48.775 60.8498 49.525 59.1748 48.525C57.6748 47.575 57.8748 44.75 60.4248 45.775C62.4748 46.975 64.7248 46.9249 69.2498 43.775C70.3748 42.85 69.5248 41.6499 68.5998 42.1749C64.9748 44.1749 59.6748 45.0499 58.2998 40.9249C57.7498 39.3499 58.7248 38.45 60.1498 39.5499C63.2748 42.3499 66.7998 40.9749 68.7998 39.5499C69.2998 39.5249 70.3998 37.575 68.5498 37.875C63.8248 38.9249 59.1498 37.9999 58.2998 34.7249C57.8248 33.6749 58.7748 31.7999 60.4998 33.375C62.7748 35.575 65.1998 35.625 68.2248 35.625C69.7498 35.2999 69.7748 33.65 68.4748 33.4C66.0998 33.45 63.7248 32.4249 61.8498 31.4C59.9998 30.3499 58.4748 28.9 57.9998 26.9C57.6998 25.0749 59.4748 23.175 60.5248 25.075C61.4908 26.6689 62.7997 28.0276 64.3565 29.0525C65.9133 30.0774 67.6788 30.7426 69.5248 31C69.7248 30.65 70.2248 29.7999 70.8498 30.0499C73.6206 31.1314 76.318 32.3924 78.9248 33.825C79.3579 34.0612 79.0467 35.0574 78.8339 35.7386C78.7765 35.9223 78.7263 36.0831 78.6998 36.2C78.5748 37.7 78.9998 38.65 79.4998 39.2C79.9498 39.75 81.2498 40.0999 81.9498 39.9249C83.3998 39.5249 84.1748 38.275 83.9248 36.075C83.9201 36.0518 83.9153 36.0216 83.9094 35.9848C83.8515 35.6234 83.691 34.6227 82.6248 33.375C81.8728 32.4401 80.9476 31.6592 79.8997 31.075C78.6071 30.3676 76.6957 29.9697 74.3746 29.4864L74.1998 29.45C72.7498 29.15 71.9998 28.5999 71.9248 28.025C72.1535 28.074 72.4275 28.171 72.7191 28.2742C73.3198 28.487 73.9948 28.7259 74.4998 28.625C75.0898 28.5266 75.4477 28.2735 75.7318 28.0727C75.8089 28.0182 75.8804 27.9676 75.9498 27.9249C75.5891 27.843 75.035 27.8685 74.4425 27.8958C74.1314 27.9101 73.8096 27.9249 73.4998 27.9249C72.7988 27.9249 72.1585 27.8188 71.6616 27.7364C71.5204 27.713 71.3909 27.6915 71.2748 27.6749C70.1748 27.4749 69.2998 27.025 68.7748 26.025C68.5498 24.9499 69.2748 24.75 69.9498 25.45C70.1745 25.6747 70.3305 25.8498 70.4596 25.9947C70.6607 26.2204 70.7963 26.3727 71.0248 26.525C71.4577 26.813 71.9412 27.0166 72.4498 27.125C72.4933 27.1322 72.5368 27.1395 72.5803 27.1468C73.4374 27.2908 74.3054 27.4367 75.3997 27.1749C75.0521 26.7764 74.6478 26.431 74.1998 26.15C73.7248 25.875 73.2748 25.7249 72.8498 25.7999C72.5498 25.8249 72.1748 26.1 71.8748 26.575C71.6748 25.375 71.9998 24.05 75.2498 24.575ZM80.0247 26.15C80.0247 25.75 79.4498 25.4249 78.4998 25.4249C77.5498 25.4249 76.9498 25.725 76.9498 26.125C76.9498 26.5 77.5498 26.875 78.4998 26.875C79.4498 26.875 80.0247 26.5499 80.0247 26.15ZM100.575 26.15C100.575 25.75 101.15 25.4249 102.1 25.4249C103.05 25.4249 103.65 25.725 103.65 26.125C103.65 26.5 103.05 26.875 102.1 26.875C101.15 26.875 100.575 26.5499 100.575 26.15Z" fill="black"/>
</g>
<defs>
<clipPath id="clip0_909_280723">
<rect width="180" height="120" fill="white"/>
</clipPath>
</defs>
</svg>
