<svg width="180" height="120" viewBox="0 0 180 120" fill="none" xmlns="http://www.w3.org/2000/svg">
<g clip-path="url(#clip0_909_222718)">
<path d="M0 -0.00012207H180V120H0V-0.00012207Z" fill="#021455"/>
<path fill-rule="evenodd" clip-rule="evenodd" d="M89.5508 -0.00012207V0.0986824C78.9804 0.176453 69.0612 2.99201 60.4673 7.87141L55.9226 -0.00012207H54.8834L59.688 8.32166C50.9039 13.4852 43.5526 20.8244 38.3744 29.5989L0 7.44338V8.48262L37.9228 30.3774C33.0238 38.9715 30.1908 48.8961 30.0999 59.475H0V60.375H30.0988C30.1637 70.9637 32.9759 80.9009 37.8585 89.5097L0 111.367V112.407L38.3084 90.2892C43.4773 99.0917 50.8304 106.457 59.6232 111.64L54.7968 120H55.836L60.4019 112.092C69.0109 116.994 78.9536 119.824 89.5508 119.902V120H90.4508V119.902C101.048 119.824 110.991 116.994 119.6 112.092L124.166 120H125.205L120.378 111.64C129.171 106.457 136.524 99.0917 141.693 90.2892L180 112.406V111.366L142.143 89.5097C147.026 80.9009 149.838 70.9637 149.903 60.375H180V59.475H149.902C149.811 48.8961 146.978 38.9715 142.079 30.3774L180 8.48352V7.44428L141.627 29.5989C136.449 20.8244 129.098 13.4852 120.314 8.32165L125.118 -0.00012207H124.079L119.534 7.87141C110.94 2.99201 101.021 0.176453 90.4508 0.0986824V-0.00012207H89.5508ZM60.9174 8.65099C69.3789 3.84816 79.1444 1.07644 89.5508 0.998707V18.1255C82.2642 18.2022 75.4238 20.1399 69.4822 23.4858L60.9174 8.65099ZM69.9324 24.2654C75.7415 20.9961 82.4282 19.1022 89.5508 19.0256V37.2043C85.7396 37.2784 82.1582 38.2907 79.0281 40.0198L69.9324 24.2654ZM90.4508 19.0256V37.2043C94.262 37.2784 97.8434 38.2907 100.973 40.0198L110.069 24.2654C104.26 20.996 97.5734 19.1022 90.4508 19.0256ZM79.4783 40.7995C82.4758 39.1468 85.9035 38.1783 89.5508 38.1045V58.2455L79.4783 40.7995ZM78.6993 41.2502L88.7714 58.6955L71.326 48.6235C73.1527 45.6116 75.6874 43.0768 78.6993 41.2502ZM78.2491 40.4705C75.1008 42.3764 72.4522 45.0249 70.5463 48.1733L54.7685 39.064C58.2838 33.161 63.2404 28.2164 69.1529 24.7154L78.2491 40.4705ZM70.0956 48.9523L54.3166 39.8423C51.0278 45.6517 49.1166 52.3439 49.0271 59.475H67.2802C67.3542 55.6637 68.3665 52.0824 70.0956 48.9523ZM68.7028 23.9359C62.6538 27.5159 57.5833 32.5744 53.9889 38.6139L39.154 30.049C44.2531 21.4111 51.4906 14.1857 60.1381 9.10123L68.7028 23.9359ZM53.537 39.3922L38.7024 30.8275C33.8799 39.2892 31.0908 49.0601 31 59.475H48.127C48.2167 52.18 50.1716 45.3341 53.537 39.3922ZM38.6381 89.0596C33.832 80.5832 31.0637 70.7997 30.9988 60.375H48.1254C48.1895 67.6798 50.1238 74.5383 53.473 80.4947L38.6381 89.0596ZM54.2526 80.0446C50.98 74.2206 49.0894 67.5159 49.0255 60.375H67.2802C67.3542 64.1862 68.3665 67.7676 70.0956 70.8976L54.2526 80.0446ZM70.8753 70.4475C69.2226 67.4499 68.2541 64.0223 68.1803 60.375H88.3214L70.8753 70.4475ZM71.326 71.2265L88.7713 61.1544L78.6993 78.5997C75.6874 76.7731 73.1526 74.2384 71.326 71.2265ZM70.5463 71.6766C72.4522 74.825 75.1007 77.4736 78.2491 79.3794L69.0883 95.2465C63.167 91.7256 58.2085 86.7551 54.7021 80.8243L70.5463 71.6766ZM79.0281 79.8302L69.8669 95.6979C75.6912 98.9899 82.4014 100.898 89.5508 100.975V82.6456C85.7396 82.5716 82.1582 81.5593 79.0281 79.8302ZM53.9225 81.2744C57.508 87.3418 62.5804 92.4262 68.6382 96.0261L60.0733 110.861C51.417 105.756 44.1778 98.505 39.0879 89.8391L53.9225 81.2744ZM69.4168 96.4775L60.852 111.312C69.3286 116.138 79.1176 118.924 89.5508 119.002V101.875C82.2374 101.798 75.3735 99.8461 69.4168 96.4775ZM119.15 111.312C110.673 116.138 100.884 118.924 90.4508 119.002V101.875C97.7641 101.798 104.628 99.8461 110.585 96.4775L119.15 111.312ZM110.135 95.6979C104.31 98.9899 97.6002 100.898 90.4508 100.975V82.6456C94.262 82.5716 97.8434 81.5593 100.973 79.8302L110.135 95.6979ZM100.523 79.0505C97.5257 80.7032 94.0981 81.6717 90.4508 81.7454V61.6044L100.523 79.0505ZM101.302 78.5997L91.2302 61.1544L108.676 71.2265C106.849 74.2384 104.314 76.7731 101.302 78.5997ZM101.752 79.3794C104.901 77.4736 107.549 74.825 109.455 71.6766L125.299 80.8243C121.793 86.7551 116.835 91.7256 110.913 95.2465L101.752 79.3794ZM109.906 70.8976L125.749 80.0446C129.022 74.2206 130.912 67.5159 130.976 60.375H112.721C112.647 64.1862 111.635 67.7676 109.906 70.8976ZM111.363 96.0261C117.421 92.4262 122.494 87.3418 126.079 81.2744L140.914 89.8391C135.824 98.505 128.585 105.756 119.928 110.861L111.363 96.0261ZM126.529 80.4947L141.363 89.0596C146.17 80.5832 148.938 70.7997 149.003 60.375H131.876C131.812 67.6798 129.878 74.5383 126.529 80.4947ZM141.299 30.8275C146.122 39.2892 148.911 49.0601 149.002 59.475H131.875C131.785 52.18 129.83 45.3341 126.465 39.3922L141.299 30.8275ZM125.685 39.8423C128.974 45.6517 130.885 52.3439 130.974 59.475H112.721C112.647 55.6637 111.635 52.0824 109.906 48.9523L125.685 39.8423ZM109.126 49.4025C110.779 52.4 111.747 55.8277 111.821 59.475H91.6802L109.126 49.4025ZM108.676 48.6235L91.2302 58.6955L101.302 41.2502C104.314 43.0768 106.849 45.6116 108.676 48.6235ZM90.4508 38.1045C94.0981 38.1783 97.5257 39.1468 100.523 40.7995L90.4508 58.2455V38.1045ZM109.126 70.4475L91.6802 60.375H111.821C111.747 64.0223 110.779 67.4499 109.126 70.4475ZM79.4783 79.0505L89.5508 61.6044V81.7454C85.9035 81.6717 82.4758 80.7032 79.4783 79.0505ZM70.8753 49.4025L88.3214 59.475H68.1803C68.2541 55.8277 69.2226 52.4 70.8753 49.4025ZM109.455 48.1733C107.549 45.0249 104.901 42.3764 101.752 40.4705L110.849 24.7154C116.761 28.2164 121.718 33.161 125.233 39.064L109.455 48.1733ZM126.013 38.6139C122.418 32.5744 117.348 27.5159 111.299 23.9359L119.863 9.10122C128.511 14.1857 135.748 21.4111 140.848 30.0489L126.013 38.6139ZM90.4508 0.998707C100.857 1.07644 110.623 3.84816 119.084 8.65099L110.519 23.4858C104.578 20.1399 97.7373 18.2022 90.4508 18.1255V0.998707Z" fill="white"/>
<path d="M95.8031 19.5152L95.5223 19.395L95.8031 19.5152ZM103.828 98.8053L102.744 98.1646L99.5346 98.9655L96.726 97.2035V97.8843L96.0439 96.9632L96.8463 96.1623L96.726 93.7596H97.6488L98.2105 92.1578L98.8525 91.8775L98.3309 91.0765L99.1334 90.7962L99.013 89.5949L98.2105 89.1944L99.2537 89.0743L98.6118 86.1509L97.0068 84.5491L96.0439 84.9496L96.4451 86.2711H93.1149L90.3062 85.0697L89.2229 84.5491L83.8865 83.3477L83.4853 83.9885L81.5995 84.1487H81.0779L80.2754 85.4702L77.9884 83.8683L76.7847 84.2688L76.9452 85.35L73.9761 83.7482L73.8557 84.7894L70.9267 83.4679L70.7662 83.588L69.3218 84.1486L69.0409 83.0674L65.5502 81.3455L61.8188 80.1441L61.1367 77.0606V76.3798L59.6922 73.7368L60.3342 70.5332L59.1305 70.1327L58.7293 68.7712L60.7354 68.5309H59.8126L59.933 66.5286L57.004 67.4497L56.8836 66.6488L56.4824 68.1304L54.8774 68.7712L53.7941 67.73L53.3929 66.6488L52.9916 64.5263L53.9145 63.8456L54.3157 64.3662L54.5966 63.7254L53.9145 58.92L54.9978 59.1602L55.5194 54.1145L55.6799 53.9543L56.7231 53.3136L55.399 53.4337L54.8774 52.2324L57.2848 49.5493L55.1182 49.1488L53.5132 50.7507L52.8712 48.9086L51.9083 50.2301L51.6676 49.309L50.4639 49.7095L49.6614 50.11L50.3034 47.7072L49.7818 47.4269L50.0626 46.7461L49.3805 46.9063L49.2602 45.5448H51.7879L51.6676 44.904H50.8651L49.3805 42.3411L48.5781 42.6214L48.0565 41.7004L47.7756 42.5013L46.9731 41.9407L47.7756 41.4201L46.5719 41.0196L46.8528 40.3389L45.8898 39.8183L45.6491 37.6958L44.6861 37.4155L45.2478 37.0151L44.1645 34.2119L44.2849 33.2908L44.6861 30.4877H45.4886L45.2478 32.2096L47.254 35.0128L48.6984 36.8949L51.6676 37.6959V37.816L52.0688 37.1352L53.6737 39.0174L54.4762 39.9384L54.8774 40.3389L59.4113 42.5013L60.2138 42.9018L60.4947 43.142L62.6212 45.7049L63.8249 45.1443L72.652 43.142L72.9329 41.5402L73.5748 41.8205L73.4545 41.2999L73.8557 41.0196L75.7415 40.3388V38.4968L76.3835 37.816L77.1859 34.7325L76.7847 33.5311L78.6705 29.006V28.3252V26.2028H79.5933L80.6766 24.601L82.0007 24.2005L82.1612 22.7188L84.0069 20.4763L84.8093 20.8767L88.5809 19.5152L88.9821 19.1147L89.7846 18.3138L89.5037 16.9923H90.3062L90.7074 19.1147L94.8401 20.0758L95.5222 19.395L95.8031 19.5152L99.4142 20.3161L99.5345 20.196L101.42 19.1147L101.541 20.3161L103.146 20.4763L104.47 21.5175L104.751 21.7978L106.757 23.5197L109.164 23.6799L110.649 23.9202L112.494 23.2795L112.655 24.4808L113.457 25.0014L114.099 23.8H114.902L115.463 26.8836L116.105 27.0037L115.985 28.0849L115.865 28.2051H116.105L117.71 27.4042L119.195 26.8836L123.328 28.3252L124.13 28.0849L124.411 29.5266L125.494 29.6868L125.213 29.006H126.136L126.417 30.4877L127.5 29.2863L130.028 30.8881L130.71 33.8115L129.627 34.0918L129.908 36.3343L130.309 37.0151L133.118 44.1031L131.633 45.4246L131.513 47.0265L130.309 48.5082L131.633 49.4292L131.112 49.8297L132.315 51.031L134.161 51.3113L134.723 52.1122L135.244 53.1534L136.568 53.7141L138.173 52.6328L139.257 52.753L137.932 54.6351L139.257 58.1191L137.652 59.4406L138.334 61.563L137.932 63.4451L138.735 64.5264L140.861 64.9268L138.735 67.8501L139.136 68.3707L139.658 68.9314L138.735 70.373L139.658 70.9336L134.963 74.778L136.047 77.4611L135.766 79.0629L134.161 79.5835L133.76 80.945L131.914 81.7459L131.352 83.4679L130.951 84.3889L132.837 85.3501L130.028 85.5903L130.71 87.072L129.346 88.3935L127.22 88.794L126.537 89.9953L128.142 90.7962L125.093 93.5994L126.016 95.0811L123.608 94.5605L120.92 96.1623L117.309 97.8843L116.507 99.0857L115.985 98.6852L116.507 97.4838L114.099 98.4049L113.578 97.4838L109.967 99.6063L108.362 99.0857L105.433 99.6063L104.63 99.2058M104.751 21.7978L104.47 21.5175H104.349V21.6777H104.63L104.751 21.7978ZM103.828 98.8054L104.63 99.2059L103.828 98.8054ZM103.828 98.8054L104.63 99.2059L103.828 98.8054ZM47.4947 43.7028L47.6552 42.7417L46.1707 41.8207L47.4947 43.7028H47.4947V43.7028ZM44.2849 36.3344H43.4824L43.8837 37.5358L44.2849 36.4946V36.3344ZM43.8837 35.1331L43.4824 35.5335L44.2849 36.0941L43.8837 35.1331ZM47.4947 43.7028L47.6552 42.7417L46.1707 41.8206L47.4947 43.7028H47.4947ZM44.2849 36.3344H43.4824L43.8837 37.5358L44.2849 36.4946V36.3344ZM43.8837 35.133L43.4824 35.5335L44.2849 36.0941L43.8837 35.133ZM47.4947 43.7028L47.6552 42.7417L46.1707 41.8206L47.4947 43.7028H47.4947ZM44.2849 36.3344H43.4824L43.8837 37.5358L44.2849 36.4946V36.3344V36.3344ZM43.8837 35.133L43.4824 35.5335L44.2849 36.0941L43.8837 35.133ZM46.291 32.3299V31.2887L45.3682 31.5289L45.4886 32.2097L46.291 32.3299ZM45.2478 29.4065L45.4886 29.9271L46.0503 28.7258L45.2478 29.2864V29.4065ZM46.291 32.3299V31.2887L45.3682 31.5289L45.4886 32.2097L46.291 32.3299ZM45.2478 29.4065L45.4886 29.9271L46.0503 28.7258L45.2478 29.2864V29.4065ZM46.291 32.3299V31.2887L45.3682 31.5289L45.4886 32.2097L46.291 32.3299ZM45.2478 29.4065L45.4886 29.9271L46.0503 28.7258L45.2478 29.2864V29.4065ZM59.5317 70.253L58.6089 70.3731L57.8064 71.4543L59.1305 71.174L59.5317 70.253V70.253ZM59.5317 70.253L58.6089 70.3731L57.8064 71.4543L59.1305 71.174L59.5317 70.253V70.253ZM59.5317 70.253L58.6089 70.3731L57.8064 71.4543L59.1305 71.174L59.5317 70.253V70.253ZM60.4947 43.1422L60.2138 42.9019L59.4114 42.5015L60.2138 42.9019L60.4947 43.1422Z" fill="white"/>
<path d="M89.5504 16.9922V17.209L89.7852 18.3137L89.0531 19.0445C89.219 19.0408 89.384 19.0338 89.5504 19.032V37.2227C85.7417 37.2975 82.1612 38.2985 79.032 40.0281L76.8102 36.1797L76.4871 37.4191L78.2633 40.4953C75.1169 42.4011 72.4765 45.0415 70.5707 48.1879L64.8832 44.9043L63.8254 45.1441L63.6453 45.2281L70.1035 48.9566C68.3739 52.0858 67.3729 55.6663 67.298 59.475H53.9941L54.1219 60.375H67.298C67.3729 64.1837 68.3739 67.7642 70.1035 70.8934L61.009 76.1441L61.1375 76.3797V77.0606L61.1469 77.1031L70.5707 71.6621C72.4765 74.8085 75.1169 77.4489 78.2633 79.3547L75.3109 84.468L76.1031 84.8953L79.032 79.8219C82.1612 81.5515 85.7417 82.5525 89.5504 82.6273V84.7063L90.307 85.0695L90.4504 85.1309V82.6273C94.2591 82.5525 97.8396 81.5515 100.969 79.8219L110.131 95.6922C108.056 96.8649 105.87 97.8626 103.59 98.6637L103.829 98.8051L104.631 99.2059L104.67 99.2254C106.721 98.4577 108.693 97.5299 110.577 96.4641L111.777 98.5426L112.552 98.0867L111.357 96.0156C117.413 92.4157 122.481 87.3335 126.067 81.2676L131.056 84.1485L131.353 83.468L131.404 83.3102L126.515 80.4875C129.865 74.5315 131.801 67.678 131.866 60.375H137.953L137.663 59.475H131.862C131.772 52.1823 129.816 45.3413 126.45 39.4L130.36 37.1426L130.31 37.0149L129.922 36.357L126.002 38.6203C123.566 34.5282 120.455 30.8861 116.819 27.8492L116.106 28.2051H115.865L115.986 28.0848L116.079 27.2524C115.938 27.1403 115.796 27.0295 115.654 26.9191L115.464 26.8836L115.44 26.7508C114.117 25.7367 112.732 24.8003 111.291 23.9473L111.472 23.6348L110.649 23.9203L109.165 23.6797L108.949 23.6652C109.325 23.8616 109.698 24.0631 110.066 24.2707L100.969 40.0281C97.8396 38.2985 94.2591 37.2975 90.4504 37.2227V19.032C90.5318 19.0329 90.6125 19.0369 90.6937 19.0383L90.5234 18.1383C90.499 18.138 90.4748 18.1366 90.4504 18.1363V17.7508L90.307 16.9922L89.5504 16.9922ZM95.523 19.3949L95.5176 19.4004C95.5264 19.4016 95.5353 19.4027 95.5441 19.4039L95.523 19.3949ZM100.72 19.5164L99.5957 20.1609C101.22 20.5506 102.808 21.0317 104.35 21.6082V21.5176H104.47L103.146 20.4762L101.541 20.316L101.483 19.7332C101.229 19.6608 100.976 19.5841 100.72 19.5164ZM104.527 21.6777C104.584 21.6997 104.641 21.7235 104.699 21.7457L104.631 21.6777H104.527ZM110.846 24.7191C116.76 28.22 121.715 33.1616 125.23 39.0656L109.43 48.1879C107.524 45.0415 104.884 42.4011 101.737 40.4953L110.846 24.7191ZM44.3223 33.0336L44.2855 33.2906L44.1934 33.9977L48.2914 36.3637L47.2547 35.0129L46.9055 34.5246L44.3223 33.0336ZM49.6613 37.1543L53.5508 39.4C52.5538 41.1597 51.6814 42.9976 50.9437 44.9039H51.6684L51.7441 45.3074C52.4713 43.4148 53.3345 41.591 54.3223 39.8457L54.4711 39.9316L53.6742 39.0172L52.6926 37.866L51.9062 37.4121L51.6684 37.816V37.6957L49.6613 37.1543ZM89.5504 38.1227V58.2461L79.4797 40.8031C82.4758 39.1519 85.9036 38.1971 89.5504 38.1227ZM90.4504 38.1227C94.0972 38.1971 97.5249 39.1519 100.521 40.8031L90.4504 58.2461V38.1227ZM125.679 39.8457C128.966 45.6547 130.876 52.3433 130.966 59.475H112.703C112.628 55.6663 111.627 52.0858 109.897 48.9566L125.679 39.8457ZM56.5922 41.1563L60.9211 43.6555L60.4953 43.1418L60.2145 42.9016L59.4121 42.5012L56.5922 41.1563ZM78.7105 41.2703L88.7711 58.6957L71.3457 48.6352C73.1717 45.6235 75.6988 43.0963 78.7105 41.2703ZM101.29 41.2703C104.302 43.0963 106.829 45.6235 108.655 48.6352L91.2297 58.6957L101.29 41.2703ZM50.691 45.5445C50.4479 46.2052 50.2197 46.873 50.0094 47.5488L50.3039 47.707L49.6621 50.1098L50.3039 49.7895C50.6752 48.341 51.1298 46.9265 51.6508 45.5445H50.691ZM70.8785 49.4043L88.3215 59.475H68.198C68.2725 55.8282 69.2273 52.4005 70.8785 49.4043ZM109.122 49.4043C110.773 52.4005 111.728 55.8282 111.803 59.475H91.6793L109.122 49.4043ZM68.198 60.375H88.3215L70.8785 70.4457C69.2273 67.4496 68.2725 64.0218 68.198 60.375ZM91.6793 60.375H111.803C111.728 64.0218 110.773 67.4496 109.122 70.4457L91.6793 60.375ZM112.703 60.375H130.97C130.906 67.5172 129.015 74.2184 125.743 80.0422L109.897 70.8934C111.627 67.7642 112.628 64.1837 112.703 60.375ZM88.7711 61.1543L78.7105 78.5797C75.6988 76.7537 73.1717 74.2266 71.3457 71.2149L88.7711 61.1543ZM91.2297 61.1543L108.655 71.2149C106.829 74.2266 104.302 76.7537 101.29 78.5797L91.2297 61.1543ZM89.5504 61.6039V81.7273C85.9036 81.6529 82.4758 80.6981 79.4797 79.0469L89.5504 61.6039ZM90.4504 61.6039L100.521 79.0469C97.5249 80.6981 94.0972 81.6529 90.4504 81.7273V61.6039ZM109.43 71.6621L125.295 80.8219C121.789 86.7539 116.834 91.7235 110.911 95.2441L101.737 79.3547C104.884 77.4489 107.524 74.8085 109.43 71.6621Z" fill="#021455"/>
</g>
<defs>
<clipPath id="clip0_909_222718">
<rect width="180" height="120" fill="white"/>
</clipPath>
</defs>
</svg>
