<svg width="181" height="120" viewBox="0 0 181 120" fill="none" xmlns="http://www.w3.org/2000/svg">
<path d="M0.455078 0H180.455V120H0.455078V0Z" fill="#54AEF2"/>
<path fill-rule="evenodd" clip-rule="evenodd" d="M87.2953 10.2524C87.3742 10.1832 87.4916 10.1354 87.6043 10.1543C87.7735 10.1827 87.868 10.3041 87.9484 10.436C88.0288 10.5678 88.0981 10.7328 88.1668 10.9305C88.2912 11.2887 88.4112 11.7755 88.5355 12.2969C90.6714 12.3853 95.1586 12.8242 97.1359 13.3649L97.1336 13.3641C97.8272 13.5447 98.3935 13.4565 98.9851 13.2973C99.1439 13.2546 99.304 13.2063 99.4676 13.157C99.9138 13.0226 100.386 12.8804 100.924 12.8219C100.954 12.8187 100.984 12.8222 101.012 12.8321C101.04 12.8421 101.066 12.8582 101.087 12.8793C101.429 13.2214 101.756 13.3444 102.09 13.47C102.226 13.5211 102.363 13.5726 102.503 13.6395C102.744 13.7551 102.987 13.9232 103.193 14.207C103.392 14.4814 103.559 14.8655 103.698 15.4063C103.868 15.6628 104.046 15.7834 104.232 15.8406C104.422 15.899 104.63 15.8905 104.838 15.8539C104.955 15.8335 105.07 15.8043 105.182 15.7759C105.27 15.7536 105.356 15.7318 105.439 15.7153C105.533 15.6965 105.624 15.6829 105.721 15.6926C105.819 15.7022 105.934 15.7467 106.007 15.8399C106.02 15.8565 106.03 15.8751 106.037 15.8949C106.432 16.9838 107.049 17.5901 107.768 17.9199C108.488 18.2497 109.323 18.2964 110.135 18.2051C110.946 18.1138 111.731 17.8857 112.339 17.6832C112.522 17.6224 112.689 17.5639 112.837 17.512C112.935 17.4776 113.025 17.4461 113.106 17.4188C113.207 17.3845 113.293 17.3569 113.368 17.3375L113.373 17.3362C113.438 17.319 113.49 17.3056 113.574 17.3164C113.839 17.3239 114.057 17.4848 114.26 17.6836C114.467 17.8871 114.665 18.1437 114.857 18.3942L114.896 18.4456C115.073 18.6778 115.243 18.9009 115.392 19.0578C115.551 19.2246 115.681 19.2814 115.703 19.2809C116.06 19.2176 116.177 19.1022 116.312 18.9679C116.328 18.9522 116.344 18.9362 116.361 18.9199C116.443 18.8416 116.549 18.7502 116.702 18.7121C116.854 18.674 117.028 18.6916 117.249 18.761C117.294 18.775 117.332 18.8042 117.357 18.8436C117.383 18.883 117.393 18.9301 117.387 18.9766C117.29 19.7489 117.659 20.6358 118.077 21.4918C118.131 21.6006 118.184 21.7085 118.238 21.8156C118.575 22.4926 118.894 23.1347 118.945 23.7297C119.04 23.7645 119.225 23.8071 119.472 23.577C119.604 23.454 119.76 23.2126 119.917 22.9685C119.953 22.9126 119.99 22.8564 120.026 22.8016C120.122 22.6546 120.219 22.5155 120.329 22.4035C120.439 22.2916 120.576 22.1885 120.757 22.2C120.762 22.2003 120.768 22.2008 120.773 22.2015C121.272 22.2728 121.6 22.3398 121.975 22.4166C122.252 22.4732 122.556 22.5352 122.973 22.6082C122.979 22.6092 122.986 22.6105 122.992 22.6121C122.996 22.6132 123 22.6143 123.004 22.6156C124.295 23.0569 125.277 23.3301 126.067 23.5502C126.898 23.7813 127.518 23.954 128.067 24.2015C128.107 24.2194 128.14 24.2497 128.161 24.2879C128.395 24.7162 128.618 25.0198 128.872 25.1922C129.126 25.3645 129.419 25.4282 129.872 25.3519C129.922 25.3434 129.974 25.3546 130.017 25.3832C130.471 25.6885 130.56 26.1007 130.575 26.3711C130.576 26.389 130.577 26.4061 130.577 26.4224C130.582 26.5188 130.586 26.5858 130.592 26.6179C130.764 26.5272 130.918 26.434 131.063 26.3461C131.272 26.2199 131.463 26.1045 131.663 26.0222C132.028 25.8718 132.446 25.8659 132.97 26.1281C133.999 26.6423 134.998 27.641 135.512 28.6695C135.526 28.6973 135.533 28.7279 135.533 28.759C135.533 28.8842 135.512 29.0432 135.484 29.2552C135.477 29.307 135.47 29.3619 135.462 29.4203C135.424 29.7177 135.379 30.0957 135.349 30.5496C135.288 31.4562 135.288 32.6642 135.53 34.1152C135.554 34.2124 135.577 34.3071 135.599 34.4004C135.805 35.2527 135.984 35.9929 136.92 37.4871C136.946 37.5283 136.956 37.5774 136.948 37.6254C136.82 38.4123 137.133 39.558 137.497 40.5843C137.603 40.8848 137.713 41.1756 137.815 41.4469C137.887 41.6388 137.956 41.821 138.017 41.9898C138.165 42.3971 138.276 42.7078 138.276 42.9644C138.276 43.5079 138.054 43.9278 137.788 44.3117C137.727 44.4009 137.663 44.4898 137.599 44.5795C137.413 44.8409 137.222 45.1091 137.056 45.4117C137.477 45.7791 137.738 46.2022 137.813 46.6554C137.898 47.1635 137.796 47.6879 137.604 48.1988C137.289 49.0388 136.741 49.8367 136.285 50.5013C136.237 50.5705 136.191 50.6384 136.145 50.7047C137.811 51.0636 138.954 51.4957 139.731 51.9394C140.455 52.3533 140.901 52.7724 141.264 53.1132C141.316 53.1615 141.366 53.2082 141.414 53.2531C141.806 53.6148 142.105 53.8528 142.679 53.9379C143.254 54.0229 144.122 53.9393 145.582 53.5742C145.618 53.5652 145.656 53.5664 145.692 53.5778C145.727 53.5891 145.759 53.6101 145.783 53.6385C145.807 53.6668 145.823 53.7013 145.828 53.7381C145.834 53.775 145.829 53.8126 145.815 53.8468C145.082 55.5571 144.865 56.3005 144.985 57.03C145.063 57.502 145.295 58.0006 145.65 58.7611C145.844 59.1762 146.074 59.6694 146.335 60.2789C146.354 60.3218 146.356 60.3698 146.343 60.4145C146.33 60.4593 146.301 60.4979 146.262 60.5238C145.543 61.0032 145.202 61.3866 145.051 61.7086C144.899 62.0305 144.918 62.3087 144.97 62.6488C144.976 62.6845 144.981 62.7207 144.987 62.7576C145.091 63.4101 145.225 64.2583 144.33 65.4211C144.331 65.4232 144.331 65.4242 144.331 65.4251C144.332 65.4263 144.332 65.4274 144.333 65.4308C144.353 65.4808 144.395 65.5628 144.456 65.6586C144.578 65.8502 144.775 66.1015 145.03 66.3468C145.539 66.8375 146.27 67.2984 147.102 67.2984C147.13 67.2984 147.158 67.3044 147.184 67.3161C147.21 67.3277 147.233 67.3448 147.252 67.366C147.27 67.3872 147.284 67.4122 147.293 67.4393C147.301 67.4663 147.304 67.4949 147.3 67.523C147.103 69.1005 146.739 69.8465 146.42 70.5021C146.336 70.673 146.256 70.8379 146.182 71.0097C145.826 71.8404 145.586 72.8912 145.83 75.8183C145.832 75.8462 145.829 75.8743 145.82 75.9007C145.81 75.9272 145.796 75.9514 145.777 75.9718C145.757 75.9922 145.734 76.0083 145.708 76.0192C145.682 76.03 145.655 76.0353 145.627 76.0347C144.7 76.0164 144.136 76.263 143.737 76.6297C143.337 76.9963 143.099 77.5016 142.893 78.0195C142.857 78.1106 142.822 78.202 142.787 78.2929C142.624 78.7187 142.464 79.1336 142.205 79.4589C141.933 79.801 141.513 80.0029 140.952 79.9715C141.041 81.039 141.3 81.7098 141.549 82.3524C141.584 82.4412 141.618 82.5293 141.651 82.6179C141.945 83.3961 142.163 84.229 141.905 85.6773C141.898 85.7153 141.88 85.7505 141.854 85.7787C141.828 85.807 141.794 85.8269 141.756 85.8363C140.776 86.0815 140.305 86.205 139.98 86.4218C139.655 86.6387 139.422 86.9792 138.932 87.7148C138.907 87.7513 138.872 87.7789 138.83 87.7931C138.789 87.8074 138.744 87.8076 138.702 87.7937L137.432 87.3703C137.308 87.9231 137.165 88.3829 137.039 88.7853C136.916 89.1822 136.809 89.5234 136.756 89.8433C136.64 90.5362 136.743 91.2005 137.466 92.4047C137.484 92.4345 137.493 92.4685 137.494 92.5033C137.495 92.5382 137.486 92.5726 137.47 92.6031C137.453 92.6337 137.429 92.6594 137.399 92.6777C137.37 92.696 137.336 92.7062 137.301 92.7074C137.301 92.7074 136.824 92.7228 136.278 92.7304C135.83 92.7367 135.413 92.7286 135.083 92.7105C135.125 92.9423 135.235 93.1301 135.416 93.3414C135.429 93.3563 135.441 93.3715 135.455 93.3868C135.678 93.6476 135.947 93.9602 136.021 94.4383C136.025 94.4626 136.024 94.4875 136.019 94.5117C135.99 94.6447 135.924 94.7025 135.841 94.7749C135.831 94.7835 135.821 94.7923 135.81 94.8015C135.713 94.8878 135.586 94.9814 135.432 95.0828C135.123 95.2856 134.703 95.5176 134.219 95.7406C133.295 96.1662 132.143 96.5509 131.08 96.614C131.012 96.8281 131.018 97.0408 131.102 97.2722C131.2 97.5398 131.386 97.8204 131.591 98.0886C131.681 98.2058 131.774 98.3204 131.865 98.4321C131.983 98.5763 132.096 98.7156 132.193 98.8496C132.366 99.0874 132.518 99.3107 132.464 99.5808C132.456 99.6197 132.437 99.6555 132.409 99.6834C132.381 99.7114 132.345 99.7303 132.306 99.7379C130.346 100.117 129.382 102.307 129.215 102.717C129.232 102.725 129.249 102.732 129.265 102.739C129.36 102.78 129.462 102.824 129.635 102.94C129.781 103.039 129.927 103.155 130.032 103.303C130.138 103.452 130.203 103.661 130.125 103.86C130.114 103.888 130.096 103.914 130.074 103.934C130.051 103.955 130.024 103.97 129.995 103.978C129.965 103.987 129.934 103.989 129.904 103.983C129.874 103.978 129.845 103.966 129.821 103.948C129.519 103.727 129.307 103.622 129.047 103.564C128.788 103.506 128.468 103.497 127.987 103.496C127.898 103.516 127.804 103.53 127.703 103.544C127.469 103.578 127.2 103.616 126.887 103.752C126.423 103.954 125.874 104.363 125.318 105.302C125.293 105.343 125.254 105.374 125.208 105.389C124.905 105.49 124.641 105.558 124.405 105.619C124.141 105.687 123.913 105.746 123.704 105.831C123.309 105.991 122.962 106.235 122.5 106.847C122.478 106.876 122.449 106.899 122.415 106.912C122.381 106.926 122.345 106.93 122.309 106.924C122.273 106.919 122.24 106.903 122.212 106.88C122.184 106.857 122.163 106.827 122.151 106.793C122.054 106.516 121.957 106.43 121.919 106.416C121.882 106.401 121.816 106.413 121.69 106.503C121.587 106.576 121.469 106.689 121.338 106.816C121.145 107.002 120.922 107.217 120.674 107.373C120.331 107.589 119.897 107.99 119.539 108.332C119.505 108.363 119.473 108.395 119.441 108.425C119.301 108.559 119.175 108.679 119.068 108.773C119.003 108.83 118.946 108.877 118.891 108.914C118.863 108.933 118.836 108.949 118.8 108.964L118.796 108.965C118.759 108.98 118.706 109.001 118.622 108.97C118.581 108.955 118.545 108.927 118.522 108.89C118.498 108.852 118.487 108.808 118.491 108.764C118.512 108.534 118.629 108.165 118.741 107.813C118.783 107.683 118.801 107.63 118.824 107.563C118.832 107.539 118.841 107.514 118.852 107.482L116.738 107.905C116.734 107.906 116.73 107.907 116.726 107.907C116.724 107.908 116.721 107.908 116.718 107.908C116.718 107.908 116.691 107.911 116.639 107.916C116.588 107.921 116.513 107.929 116.417 107.939H116.416C116.343 107.946 116.267 107.91 116.227 107.873C116.188 107.837 116.169 107.802 116.154 107.77C116.123 107.704 116.107 107.641 116.091 107.568C116.072 107.484 116.055 107.39 116.038 107.292C116.026 107.221 116.013 107.148 115.999 107.076C115.966 106.906 115.922 106.741 115.875 106.645C115.851 106.598 115.827 106.57 115.817 106.562C115.807 106.554 115.82 106.559 115.813 106.559C115.811 106.56 115.628 106.652 115.44 106.819C115.251 106.986 115.029 107.211 114.806 107.439L114.78 107.465C114.565 107.685 114.35 107.905 114.154 108.08C114.141 108.091 114.129 108.102 114.116 108.113C113.931 108.28 113.783 108.413 113.568 108.439C113.409 108.459 113.262 108.414 113.151 108.348C113.041 108.283 112.959 108.201 112.888 108.13L112.886 108.127C112.814 108.055 112.752 107.995 112.703 107.962C112.655 107.931 112.631 107.923 112.588 107.928C112.595 107.927 112.594 107.928 112.586 107.932C112.577 107.938 112.556 107.95 112.532 107.973C112.489 108.014 112.432 108.081 112.371 108.164C112.249 108.331 112.111 108.56 111.975 108.792C111.949 108.837 111.923 108.881 111.897 108.925C111.788 109.112 111.682 109.294 111.584 109.445C111.523 109.538 111.466 109.618 111.406 109.686C111.401 109.691 111.396 109.697 111.392 109.702C111.338 109.764 111.287 109.823 111.166 109.844C111.057 109.863 110.985 109.831 110.913 109.798L110.909 109.796C110.835 109.762 110.761 109.718 110.679 109.667C110.611 109.624 110.539 109.576 110.462 109.525C110.355 109.454 110.241 109.378 110.121 109.304C109.708 109.051 109.235 108.838 108.857 108.902C106.402 109.755 104.902 108.886 103.998 108.179C103.886 108.091 103.782 108.006 103.686 107.927C103.589 107.848 103.501 107.776 103.421 107.714C103.262 107.593 103.134 107.524 103.071 107.512L103.062 107.51C103.007 107.5 102.998 107.498 102.929 107.592C102.856 107.691 102.762 107.906 102.671 108.251C102.663 108.28 102.649 108.307 102.63 108.33C102.61 108.353 102.586 108.371 102.558 108.383C102.53 108.395 102.5 108.401 102.47 108.4C102.44 108.399 102.411 108.391 102.384 108.377C102.136 108.245 101.966 108.169 101.848 108.134C101.729 108.099 101.669 108.099 101.593 108.115C101.536 108.127 101.465 108.157 101.369 108.196C101.215 108.26 100.996 108.35 100.665 108.437L100.664 108.437C100.452 108.492 100.248 108.444 100.104 108.345C99.9591 108.246 99.8628 108.114 99.7754 107.993C99.7674 107.981 99.7594 107.97 99.7515 107.959C99.6736 107.851 99.6027 107.752 99.5352 107.688C99.4609 107.618 99.4076 107.59 99.3211 107.593C98.8009 107.607 98.6003 107.831 98.3957 108.064C98.3797 108.082 98.3639 108.101 98.3481 108.119C98.263 108.219 98.1771 108.319 98.0489 108.391C97.8968 108.477 97.68 108.48 97.4817 108.377C97.4559 108.364 97.4334 108.345 97.4156 108.322C97.3979 108.299 97.3854 108.272 97.3789 108.244C97.2586 107.713 96.9956 107.353 96.6516 107.076C96.3076 106.799 95.8783 106.612 95.4438 106.462C95.2593 106.398 95.0745 106.341 94.8949 106.286C94.6515 106.212 94.4178 106.14 94.2082 106.058C93.8441 105.916 93.5209 105.735 93.4141 105.393C93.4128 105.389 93.4116 105.385 93.4106 105.381C93.3366 105.077 93.4079 104.802 93.5649 104.607C93.7219 104.412 93.9415 104.286 94.1696 104.175C94.2625 104.13 94.3569 104.086 94.4501 104.043C94.8049 103.878 95.1417 103.722 95.3071 103.518C95.4081 103.246 95.4094 103.03 95.4108 102.809C95.4115 102.681 95.4123 102.552 95.4324 102.409C95.4606 102.21 95.5421 101.995 95.7207 101.782C95.898 101.572 96.165 101.358 96.5749 101.113C97.0891 100.765 97.3896 100.477 97.5574 100.239C97.7253 100.001 97.7678 99.8173 97.7707 99.6265C97.7726 99.5041 97.7508 99.374 97.7274 99.2337C97.6777 98.937 97.6204 98.5945 97.7629 98.1812C97.7645 98.1768 97.7661 98.1723 97.768 98.168C98.096 97.4004 98.2494 96.9427 98.2625 96.5285C98.2756 96.1143 98.1523 95.7102 97.8789 95.0344C97.8782 95.0327 97.8776 95.031 97.8769 95.0293C97.8769 95.0293 97.4677 93.928 97.0191 92.8285C96.7948 92.2787 96.5604 91.7289 96.3648 91.3223C96.267 91.1189 96.1784 90.9506 96.1101 90.8418C96.0782 90.7908 96.0516 90.7563 96.0355 90.7379C95.8593 90.6919 95.7716 90.7261 95.6488 90.839C95.5222 90.9554 95.3875 91.17 95.2363 91.4226L95.2266 91.4388C94.9255 91.942 94.5346 92.5952 93.7496 92.8793C93.748 92.88 93.7465 92.8806 93.7449 92.8813C92.1733 93.4051 90.1125 92.7512 88.3195 92.0024C87.596 91.7002 86.9164 91.3788 86.3353 91.104C86.1963 91.0382 86.0629 90.9752 85.9359 90.9156C85.607 90.7615 85.3206 90.6311 85.0941 90.5414C84.868 90.4519 84.6906 90.4092 84.641 90.409C84.5158 90.4115 84.2735 90.4416 83.971 90.4792C83.8519 90.494 83.7234 90.5099 83.589 90.5258C83.1124 90.5822 82.5528 90.6365 82.0156 90.6293C81.4785 90.6222 80.9626 90.5589 80.5605 90.3477C80.3307 90.227 80.1525 90.0372 80.0414 89.8008C79.8993 89.9976 79.7355 90.1529 79.5461 90.2395C79.2121 90.3921 78.8474 90.3829 78.5152 90.3164C78.183 90.2499 77.8766 90.124 77.6445 90.0164C77.5474 89.9714 77.4632 89.9296 77.3975 89.8969C77.3847 89.8905 77.3727 89.8845 77.3613 89.8789C77.3303 89.8636 77.3075 89.8526 77.2906 89.8449C76.8441 89.8487 76.5678 89.9328 76.384 90.0477C76.196 90.1652 76.0876 90.3182 75.9816 90.4953C75.9616 90.5288 75.9419 90.5633 75.9219 90.5983C75.8363 90.7482 75.7451 90.9077 75.5973 91.0434C75.4149 91.2107 75.1446 91.3144 74.7777 91.2973C74.7594 91.2964 74.7412 91.293 74.7238 91.2871C74.6886 91.2754 74.5231 91.2431 74.3047 91.2149C74.0863 91.1867 73.803 91.157 73.4793 91.1266C72.8319 91.0658 72.0221 91.0029 71.2308 90.9465C69.8043 90.8448 68.6164 90.775 68.3724 90.7606L68.3512 90.7594V91.527C68.3512 91.5611 68.3424 91.5946 68.3258 91.6244C68.3092 91.6542 68.2853 91.6792 68.2563 91.6971C68.2273 91.715 68.1942 91.7253 68.1601 91.7268C68.1261 91.7283 68.0922 91.7211 68.0617 91.7059L64.1555 89.7524L60.741 88.777C60.7381 88.7761 60.7352 88.7752 60.7324 88.7742C59.5919 88.394 59.064 87.7835 58.6343 87.2866C58.4883 87.1177 58.3536 86.962 58.2101 86.8328C57.9272 86.5782 57.6181 86.4065 57.0594 86.3707C56.5006 86.3349 55.6924 86.4507 54.4785 86.8149C54.4486 86.8238 54.4171 86.8257 54.3863 86.8202C54.3556 86.8148 54.3266 86.8023 54.3016 86.7837C54.2766 86.765 54.2563 86.7408 54.2423 86.7129C54.2283 86.685 54.221 86.6543 54.2211 86.6231V83.8813H51.9695C51.9405 83.8813 51.9118 83.8749 51.8854 83.8627C51.8591 83.8505 51.8357 83.8327 51.817 83.8106C51.7982 83.7884 51.7845 83.7624 51.7767 83.7344C51.769 83.7064 51.7675 83.6771 51.7722 83.6485C52.0169 82.18 52.1383 81.2645 52.1758 80.6426C52.2132 80.0207 52.1699 79.701 52.0828 79.3817C52.05 79.2615 52.01 79.1388 51.9649 79.0007C51.7786 78.4297 51.5065 77.5956 51.3078 75.5934L49.566 76.0289C49.5276 76.0386 49.4872 76.0366 49.4499 76.0232C49.4127 76.0099 49.3802 75.9857 49.3566 75.9539C48.8454 75.263 48.7405 74.7217 48.8578 74.2996C48.9587 73.9367 49.2014 73.6892 49.3889 73.4979C49.4195 73.4667 49.4486 73.4371 49.4754 73.4086C49.5709 73.3071 49.6333 73.2209 49.6504 73.1707L49.6509 73.1691C49.6676 73.1202 49.673 73.1041 49.6113 73.0211C49.4865 72.8533 49.0088 72.5366 47.9683 72.0961C47.9313 72.0804 47.8999 72.054 47.8782 72.0202C47.8565 71.9864 47.8454 71.9468 47.8465 71.9067C47.8465 71.9067 47.863 71.1845 47.7558 70.6055C47.7023 70.316 47.6021 70.0677 47.525 69.9922C47.4864 69.9545 47.4751 69.951 47.4359 69.9559C47.4016 69.9602 47.3223 70.0039 47.2293 70.0805C47.231 70.1041 47.2333 70.1342 47.2457 70.1836C47.2767 70.3078 47.3418 70.4826 47.4144 70.6539C47.5597 70.9965 47.7332 71.3285 47.7332 71.3285C47.7502 71.3609 47.7579 71.3973 47.7557 71.4337C47.7535 71.4702 47.7413 71.5054 47.7205 71.5354C47.6996 71.5654 47.671 71.5892 47.6376 71.6041C47.6043 71.619 47.5675 71.6245 47.5312 71.6199C45.5555 71.373 44.2758 71.0029 43.4859 70.1473C42.696 69.2916 42.4519 68.0055 42.4519 66.0274C42.4519 65.9987 42.4581 65.9704 42.47 65.9443C42.4818 65.9183 42.4992 65.8951 42.5208 65.8763C42.5425 65.8575 42.5679 65.8436 42.5953 65.8355C42.6228 65.8274 42.6517 65.8253 42.6801 65.8293C42.6801 65.8293 43.4846 65.9436 44.2472 66.0004C44.6286 66.0288 45.002 66.042 45.2414 66.0223C45.2957 66.0178 45.3193 66.0116 45.3452 66.0047C45.3529 66.0027 45.3609 66.0006 45.3699 65.9985C45.2452 65.7413 45.1457 65.3797 45.0414 64.8918C44.9209 64.3284 44.8062 63.6485 44.709 62.9817C44.6118 62.3148 44.5321 61.6618 44.4836 61.1524C44.4593 60.8977 44.4428 60.6793 44.4355 60.5106C44.432 60.4262 44.4308 60.3545 44.4324 60.2942C44.4326 60.2869 44.4327 60.2799 44.4329 60.2732C44.4336 60.2351 44.4342 60.2039 44.4437 60.1639C44.4454 60.0204 44.5135 59.9032 44.5961 59.7876C44.686 59.6616 44.8056 59.5337 44.9445 59.3966C45.0728 59.2698 45.2179 59.1355 45.37 58.9947C45.5471 58.8308 45.7337 58.6581 45.914 58.4786C46.2492 58.1449 46.5611 57.7869 46.7469 57.438C46.9326 57.089 46.994 56.7672 46.8711 56.4446C46.8616 56.4199 46.8572 56.3935 46.8581 56.367C46.8589 56.3406 46.865 56.3146 46.876 56.2905C46.8869 56.2664 46.9026 56.2447 46.922 56.2267C46.9414 56.2087 46.9642 56.1947 46.989 56.1856C47.234 56.0956 47.5965 56.0668 47.925 56.0454C48.0431 56.0377 48.0892 56.0365 48.1488 56.035C48.1706 56.0345 48.1942 56.0339 48.2238 56.0329C47.4432 54.4606 47.3628 54.1232 47.3594 52.5114C47.3234 52.5141 47.2851 52.5165 47.2473 52.5189C47.1809 52.523 47.116 52.5271 47.0676 52.5325C46.9703 52.5434 46.8561 52.53 46.7386 52.5114C46.7244 52.5355 46.7049 52.5704 46.6804 52.6313C46.6571 52.6895 46.6321 52.7589 46.6046 52.8351C46.5622 52.9529 46.5139 53.0869 46.457 53.2204C46.3634 53.4401 46.2492 53.6635 46.0629 53.8239C45.8765 53.9843 45.5909 54.0531 45.3051 53.9387C45.2742 53.9264 45.247 53.9065 45.2258 53.8809C45.1446 53.7835 45.154 53.6974 45.1619 53.6244C45.1624 53.6202 45.1628 53.616 45.1633 53.6118C45.1711 53.5362 45.189 53.4605 45.2101 53.3762C45.2197 53.3381 45.2301 53.2983 45.2408 53.2574C45.2772 53.1174 45.3175 52.9628 45.3441 52.8059C45.3785 52.6031 45.3882 52.3989 45.3476 52.2286C45.307 52.0583 45.227 51.9211 45.0492 51.8067L45.0484 51.8059C44.8842 51.699 44.8574 51.5237 44.8472 51.3618C44.837 51.1998 44.8524 51.0209 44.8714 50.836C44.9013 50.5449 44.9098 50.2957 44.9019 50.0942C44.7604 50.1164 44.5881 50.1308 44.3839 50.0719C43.9367 49.9429 43.4112 49.5184 42.9793 48.4938C42.9147 48.4122 42.8953 48.4129 42.8511 48.4211C42.8052 48.4297 42.7186 48.4807 42.6367 48.561C42.5004 48.6945 42.4104 48.8487 42.3778 48.9045C42.3759 48.9078 42.3741 48.9107 42.3726 48.9133C42.3759 48.9233 42.3793 48.933 42.3827 48.9429C42.4027 49 42.4242 49.0615 42.4285 49.1911C42.4321 49.3004 42.4203 49.425 42.3605 49.5469C42.3007 49.6689 42.1839 49.7809 42.0277 49.8348C41.9972 49.8453 41.9646 49.8483 41.9327 49.8434C41.9008 49.8386 41.8705 49.8261 41.8445 49.8071C41.5896 49.6205 41.3774 49.5664 41.1175 49.5002C41.0899 49.4932 41.0619 49.486 41.0332 49.4786C40.7334 49.4007 40.3762 49.2873 39.9535 48.952C39.7243 48.7702 39.6052 48.5581 39.5511 48.361C39.5142 48.2263 39.5025 48.1013 39.492 47.9892C39.4871 47.9372 39.4825 47.8879 39.4757 47.8418C39.4545 47.6964 39.4224 47.5866 39.3179 47.4684C39.2135 47.3502 39.0221 47.2186 38.6625 47.0915C38.637 47.0825 38.6137 47.0685 38.5938 47.0502C38.574 47.032 38.558 47.01 38.5469 46.9854C38.5357 46.9609 38.5297 46.9343 38.5291 46.9073C38.5285 46.8804 38.5333 46.8536 38.5433 46.8286C39.0354 45.5984 39.2955 45.0614 39.7773 44.7172C40.0899 44.494 40.4951 44.3499 41.0664 44.1468C41.2706 44.0742 41.496 43.9941 41.7461 43.9001C40.6982 43.1903 40.4125 42.9153 39.5839 41.6735C38.4496 41.2869 37.8753 40.8892 36.9809 40.2698C36.7387 40.1021 36.473 39.9181 36.1664 39.7137C36.1492 39.7023 36.1339 39.6884 36.1211 39.6723C34.0988 37.1441 33.1351 32.2297 33.1351 28.759C33.1351 28.7315 33.1408 28.7042 33.1518 28.6789C33.1628 28.6536 33.179 28.6309 33.1992 28.6122C33.3896 28.4358 33.6322 28.3618 33.8593 28.404C34.0865 28.4461 34.2898 28.5798 34.491 28.7618C34.8933 29.1258 35.2989 29.7048 35.7437 30.361C35.8007 30.4451 35.8584 30.5305 35.9167 30.6168C36.7661 31.8745 37.7468 33.3266 38.8273 33.9774L42.2402 35.4407C42.2439 35.4421 42.2475 35.4437 42.2511 35.4454C43.2497 35.9447 43.8826 36.4506 44.4398 36.9457C44.5494 37.0432 44.6561 37.14 44.7623 37.2363C45.1909 37.6252 45.6109 38.0063 46.1781 38.3868L50.5613 39.8481C50.5816 39.8549 50.6008 39.8649 50.6179 39.8778C51.4955 40.5359 52.176 41.2855 52.7822 41.9531C52.8681 42.0478 52.9526 42.1408 53.0359 42.2317C53.6959 42.9516 54.2836 43.524 54.9425 43.7559C55.6767 43.7489 56.0965 43.548 56.4089 43.3305C56.5054 43.2634 56.5917 43.1943 56.6749 43.1276C56.7289 43.0844 56.7815 43.0423 56.8347 43.0024C56.9701 42.9009 57.1164 42.8077 57.3007 42.7872C57.3048 42.7868 57.3088 42.7865 57.3128 42.7864C58.7475 42.7128 59.8253 42.5823 60.6 42.3696C61.3746 42.1568 61.834 41.8683 62.0851 41.4899C62.0893 41.4835 62.0939 41.4774 62.0988 41.4715C62.2864 41.2492 62.557 41.1687 62.8543 41.1492C63.0363 41.1373 63.2377 41.1427 63.4696 41.1489C63.6163 41.1528 63.7753 41.1571 63.9492 41.1574C64.8182 41.1594 66.0733 41.0615 67.9121 40.3957L67.4672 38.6149C67.4579 38.5782 67.4593 38.5396 67.4711 38.5036C67.4829 38.4677 67.5047 38.4358 67.5339 38.4117C67.5339 38.4117 68.535 37.6077 69.9093 37.8406C69.8923 37.3673 69.8797 36.6832 70.0101 35.9278C70.1506 35.1142 70.4672 34.2689 71.1199 33.6832C70.7938 33.2712 70.6795 32.8805 70.7179 32.593C70.7616 32.2659 70.9445 32.0586 70.9445 32.0586C70.9479 32.0548 70.9514 32.0512 70.955 32.0477C70.955 32.0477 71.145 31.8651 71.3453 31.6352C71.5421 31.4092 71.7351 31.1179 71.7648 31.0082C71.4772 29.4157 71.8513 28.8828 72.1121 28.5111C72.1991 28.3872 72.2735 28.2812 72.3066 28.1598C72.3398 28.0377 72.3248 28.0079 72.3015 27.9699C72.2794 27.9339 72.2231 27.8863 72.1436 27.819L72.1308 27.8082C72.0445 27.7352 71.9342 27.632 71.8734 27.4719C71.8126 27.3117 71.8093 27.1122 71.8757 26.8664C72.0191 26.3348 72.493 26.0406 72.9046 25.7867C73.3163 25.5329 73.6576 25.3075 73.7226 25.0606C73.8028 24.7573 73.7236 24.557 73.6179 24.3801C73.5808 24.318 73.5401 24.2612 73.5007 24.2061C73.4839 24.1828 73.4674 24.1597 73.4515 24.1367C73.4444 24.1265 73.4369 24.1163 73.4291 24.1058C73.3785 24.0373 73.321 23.9595 73.3496 23.8164C73.3524 23.8019 73.3569 23.7878 73.3628 23.7742C73.4839 23.502 73.51 22.9332 73.4781 22.3727C73.4584 22.0273 73.422 21.6839 73.3914 21.3942C73.3722 21.2137 73.3553 21.054 73.346 20.9278C73.3427 20.8813 73.3556 20.8351 73.3826 20.7972C73.4097 20.7592 73.4491 20.7319 73.4941 20.7199C74.7153 20.3934 75.5399 19.7494 76.1893 19.2423C76.2175 19.2202 76.2454 19.1985 76.273 19.177L76.2734 19.1767C76.6043 18.9189 76.8861 18.6993 77.1867 18.5949C77.3929 18.5233 77.6109 18.5613 77.8191 18.6551C78.0493 17.3396 78.2915 16.3762 78.8523 15.7531C79.432 15.1091 80.3304 14.8554 81.725 14.8363C81.7583 14.7057 81.7563 14.5812 81.7093 14.4485C81.6492 14.2788 81.5327 14.1025 81.4117 13.9356C81.3889 13.9041 81.3659 13.8732 81.3432 13.8427C81.2454 13.7113 81.152 13.5859 81.0949 13.4438C81.0597 13.3562 81.0363 13.2496 81.0714 13.1379C81.1066 13.0262 81.1982 12.9401 81.3019 12.8883C81.3223 12.8781 81.3442 12.8715 81.3668 12.8688C81.8675 12.8062 82.3456 12.7873 82.8445 12.9914C83.3392 13.1939 83.8368 13.6081 84.4175 14.3551C84.4207 14.3501 84.4238 14.3454 84.4269 14.3406C84.4423 14.3172 84.4579 14.2935 84.4863 14.2285C84.5003 14.1966 84.5145 14.1624 84.5294 14.1269C84.5687 14.0327 84.6121 13.9289 84.6648 13.8305C84.7374 13.6949 84.8261 13.5503 85.0062 13.4903C85.122 13.4516 85.2555 13.4259 85.3921 13.3996C85.5255 13.3739 85.6619 13.3477 85.7878 13.3082C85.9153 13.2683 86.0271 13.217 86.1054 13.1555C86.1838 13.094 86.2309 13.0291 86.2531 12.9309V12.9301C86.3923 12.3286 86.5979 11.5251 87.0976 10.5258L87.0988 10.5231C87.1573 10.4104 87.2164 10.3216 87.2953 10.2524ZM46.6389 52.5051C46.6385 52.5051 46.6381 52.5052 46.6375 52.5051L46.6378 52.5055C46.6384 52.5057 46.6392 52.5049 46.6398 52.5051L46.6389 52.5051Z" fill="white"/>
<path d="M33.1287 32.6209C33.1767 32.6213 33.2228 32.6216 33.2664 32.6199C33.301 32.6187 33.3353 32.6265 33.366 32.6425C33.3967 32.6585 33.4228 32.6823 33.4415 32.7114C33.4603 32.7405 33.4712 32.7739 33.4732 32.8085C33.4751 32.8431 33.4681 32.8776 33.4527 32.9086C33.4149 32.9848 33.385 32.9945 33.3658 33.0008C33.3619 33.0021 33.3584 33.0032 33.3555 33.0047C33.339 33.013 33.3282 33.0169 33.318 33.0206L33.3156 33.0215C33.3015 33.0266 33.2883 33.0311 33.2743 33.0359C33.2665 33.0385 33.2585 33.0412 33.25 33.0442C33.2024 33.0606 33.143 33.0829 33.0785 33.1172C32.9495 33.1857 32.8039 33.2965 32.7027 33.5051C32.6848 33.5419 32.656 33.5722 32.6202 33.5921C32.5845 33.612 32.5435 33.6205 32.5028 33.6163C32.4621 33.6122 32.4236 33.5957 32.3926 33.569C32.3616 33.5424 32.3395 33.5068 32.3293 33.4672C32.2814 33.2801 32.2729 33.1223 32.3222 32.982C32.3716 32.8418 32.488 32.7405 32.6035 32.6926C32.782 32.6186 32.9659 32.6198 33.1287 32.6209Z" fill="white"/>
<path d="M32.5129 34.2903C32.6788 34.166 32.8632 34.1515 32.9851 34.1485C33.0659 34.1465 33.1281 34.1535 33.1281 34.1535C33.16 34.1572 33.1905 34.1685 33.2171 34.1865C33.2437 34.2044 33.2656 34.2285 33.2809 34.2567C33.2962 34.2849 33.3045 34.3164 33.3051 34.3484C33.3057 34.3805 33.2986 34.4123 33.2844 34.441C33.2568 34.4966 33.2285 34.5135 33.2103 34.5244C33.2083 34.5255 33.2064 34.5267 33.2047 34.5277C33.1875 34.5385 33.1768 34.5432 33.1675 34.5474L33.1668 34.5477C33.155 34.5529 33.1453 34.5567 33.136 34.5604C33.1304 34.5626 33.1249 34.5648 33.1191 34.5672C33.0886 34.58 33.0532 34.5964 33.0105 34.6246C32.9252 34.681 32.8111 34.7832 32.7027 35.0067C32.6848 35.0434 32.656 35.0738 32.6202 35.0937C32.5845 35.1136 32.5435 35.122 32.5028 35.1179C32.4621 35.1138 32.4236 35.0972 32.3926 35.0706C32.3616 35.0439 32.3395 35.0084 32.3293 34.9688C32.2532 34.6715 32.347 34.4145 32.5129 34.2903Z" fill="white"/>
<path d="M35.9927 41.4319C36.0205 41.4143 36.0523 41.4039 36.0851 41.4016C36.0851 41.4016 36.2878 41.3789 36.4906 41.4817C36.592 41.533 36.6992 41.6257 36.7562 41.7633C36.8133 41.9009 36.8175 42.0695 36.768 42.2633C36.7578 42.3029 36.7356 42.3385 36.7046 42.3651C36.6736 42.3918 36.6351 42.4083 36.5944 42.4124C36.5537 42.4166 36.5128 42.4081 36.477 42.3882C36.4413 42.3683 36.4125 42.338 36.3945 42.3012C36.2801 42.0653 36.1787 41.9401 36.1094 41.8707C36.0747 41.836 36.0485 41.8155 36.0265 41.7992C36.0226 41.7963 36.0187 41.7935 36.0148 41.7906C36.0079 41.7856 36.0008 41.7805 35.9922 41.7738C35.9896 41.7719 35.9868 41.7703 35.9837 41.7685C35.97 41.7607 35.9501 41.7493 35.9207 41.691C35.9059 41.6616 35.8986 41.629 35.8994 41.5961C35.9002 41.5631 35.9092 41.5309 35.9254 41.5023C35.9417 41.4737 35.9648 41.4495 35.9927 41.4319Z" fill="white"/>
<path d="M148.165 70.3296C148.201 70.3085 148.242 70.2991 148.284 70.3028C148.325 70.3064 148.365 70.323 148.396 70.3501C148.428 70.3772 148.451 70.4135 148.461 70.4539C148.472 70.5012 148.493 70.5498 148.516 70.6042C148.545 70.6742 148.579 70.7538 148.602 70.852C148.644 71.0263 148.618 71.2543 148.463 71.4871C148.444 71.5147 148.419 71.5373 148.39 71.5528C148.361 71.5683 148.328 71.5763 148.295 71.576C148.262 71.5757 148.229 71.5672 148.2 71.5512C148.171 71.5352 148.146 71.5123 148.128 71.4844C147.94 71.1918 147.917 70.7962 148.084 70.4207C148.101 70.3826 148.129 70.3508 148.165 70.3296Z" fill="white"/>
</svg>
