<svg width="180" height="120" viewBox="0 0 180 120" fill="none" xmlns="http://www.w3.org/2000/svg">
<g clip-path="url(#clip0_354_13)">
<rect width="180" height="120" fill="#021455"/>
<path d="M0 60L180 0V120L0 60Z" fill="#A30904"/>
<path d="M19 60L180 6V114" fill="white"/>
<path d="M123.947 66.7021C125.547 66.825 125.492 68.4109 125.492 68.4109L131.156 68.5372C131.881 66.5622 132.633 66.7909 134.009 67.7663C135.317 68.6929 136.743 69.1067 136.743 69.1067C137.29 66.2723 141.31 66.8454 141.31 66.8454C143.023 62.7525 143.169 62.8069 142.148 62.2886C141.127 61.7702 140.711 60.8932 140.711 60.8932C139.742 59.7237 139.232 58.0319 139.122 56.9941C139.013 55.9564 137.81 57.5135 137.591 57.1859C137.372 56.8585 135.586 57.0496 135.586 57.0496C136.023 57.5135 134.529 57.2406 134.529 57.2406C134.675 57.3498 134.529 57.7864 134.529 57.7864C134.383 57.5953 133.253 57.4043 133.253 57.4043C133.143 57.6498 132.888 57.9227 132.888 57.9227C132.268 57.6498 131.029 57.7043 131.029 57.7043C129.206 57.6769 128.112 58.2501 127.602 58.5503C127.091 58.8505 125.269 59.7781 123.774 61.2244C122.279 62.6706 121.44 62.507 121.44 62.507C121.003 64.1169 117.43 66.0815 117.43 66.0815C116.847 66.5999 115.061 66.8454 114.149 66.0815C113.238 65.3176 114.149 63.9532 114.149 63.9532C114.486 63.3153 114.821 63.3417 114.858 61.1284C114.883 59.6317 116.428 58.4447 118.014 56.7052C119.953 54.5785 122.662 51.0774 122.662 51.0774C122.676 52.1519 123.264 52.3259 123.264 52.3259C123.797 51.231 124.562 50.3509 124.562 50.3509C124.603 50.4431 124.713 50.5046 124.713 50.5046C125.314 49.6859 125.683 49.3585 125.683 49.3585C125.478 49.2767 123.797 49.3585 122.225 50.7297C120.652 52.1008 119.572 51.6405 119.572 51.6405C118.479 51.2925 118.383 50.4534 118.383 50.4534C117.584 47.0173 120.721 44.5595 120.721 44.5595C116.51 43.5568 119.545 38.2153 124.767 35.9437C129.99 33.6721 129.935 32.6488 129.935 32.6488C130.236 32.9968 130.482 33.6107 130.482 33.6107C130.537 33.5697 130.92 32.9968 133.927 31.6665C136.935 30.3361 138.384 29.1901 138.384 29.1901C138.767 29.9269 138.685 30.459 138.685 30.459C146.915 27.5735 155.022 20.9531 155.022 20.9531C155.254 21.5056 155.131 22.3446 155.131 22.3446C156.471 21.1065 161.311 18.2209 161.311 18.2209C161.393 20.0627 159.876 20.7688 159.876 20.7688C160.04 21.0349 160.135 21.5157 160.135 21.5157C160.928 21.0858 164.619 18.5073 164.619 18.5073C165.973 19.6737 164.743 21.5872 164.743 21.5872C165.221 21.5157 165.576 21.0961 165.576 21.0961C165.918 23.0812 163.717 24.831 163.717 24.831C164.1 24.8413 164.743 24.4626 164.743 24.4626C164.332 26.632 160.217 29.0365 160.217 29.0365C160.819 29.5686 160.245 30.2747 159.752 30.592C159.26 30.9093 158.385 31.605 158.659 31.8916C158.932 32.1781 160.751 30.8989 160.751 30.8989C161.065 31.8097 158.727 33.6004 158.727 33.6004C160.354 33.8152 164.879 31.7586 164.879 31.7586C164.51 33.5085 162.801 34.8693 160.696 35.6572C158.59 36.4451 158.7 36.568 158.7 36.568C159.069 36.8646 161.981 36.0155 161.981 36.0155C161.106 37.9698 158.071 39.3105 158.071 39.3105C158.905 40.0165 160.039 39.1979 161.174 38.4203C162.309 37.6427 163.854 36.9774 165.563 36.4045C167.272 35.8314 168.475 36.2613 168.475 36.2613C169.896 35.811 171.099 36.4453 171.099 36.4453C173.834 36.6705 174.107 37.6631 174.107 37.6631C174.408 37.7346 174.64 37.8575 175.338 38.3692C176.035 38.8809 175.994 40.4668 175.966 41.2446C175.939 42.0222 175.72 42.0222 175.584 42.2373C175.447 42.4523 175.433 42.6978 175.433 42.9945C175.433 43.2911 174.75 45.1331 170.525 45.1535C166.301 45.1739 164.122 45.1535 164.122 45.1535C163.774 45.1535 163.357 45.3582 163.357 45.3582C161.58 46.2383 162.518 44.758 160.404 46.4975C158.289 48.237 157.214 47.9368 157.214 47.9368C156.867 48.3529 154.653 50.4131 153.386 51.2318C152.119 52.0504 152.347 51.9753 153.45 52.4529C154.552 52.9305 156.22 52.4529 156.22 52.4529C155.154 53.1623 155.892 53.4897 155.892 53.4897C157.296 52.6369 158.143 52.9509 158.143 52.9509C158.59 54.172 156.986 56.1025 156.986 56.1025C157.606 56.1844 158.772 56.1025 158.772 56.1025C158.49 56.9279 157.323 57.8353 156.466 58.1149C155.61 58.3945 155.765 58.5037 156.02 59.0221C156.275 59.5405 156.056 60.0659 156.056 60.0659C154.561 59.0291 154.507 59.9567 154.507 59.9567C154.334 61.1855 154.361 62.9447 154.361 62.9447C153.304 62.4126 153.249 63.1221 153.249 63.1221C152.976 64.2407 151.681 65.537 151.681 65.537C151.627 64.8412 150.989 64.6638 150.989 64.6638C150.314 65.9598 149.075 66.7377 149.075 66.7377C148.91 67.8563 149.22 69.4254 149.22 69.4254C148.418 69.2617 148.127 69.2754 147.999 69.4665C147.871 69.6575 148.182 69.753 148.182 69.753L158.627 70.0122C158.772 70.0259 159.392 70.0941 159.41 71.2264C159.429 72.3587 158.499 72.4134 158.499 72.4134L147.07 72.1405C147.07 72.1405 147.124 72.4542 146.523 72.7681C145.921 73.0821 146.122 72.4134 145.957 73.8186C145.793 75.2238 143.515 73.7094 143.515 73.7094C143.15 74.2552 142.257 74.9646 142.257 74.9646C141.746 73.4229 141.218 72.9455 140.398 74.2825C139.577 75.6196 141.874 75.3877 141.874 75.3877C141.874 75.3877 155.29 73.4094 156.019 73.3413C156.749 73.2731 157.551 73.3139 157.879 74.3373C158.207 75.3606 156.256 75.5243 156.256 75.5243L142.494 77.025C142.202 77.8437 141.054 77.7755 141.054 77.7755C141.145 78.5531 140.325 79.0444 139.905 79.3309C139.486 79.6175 138.174 79.4809 138.174 79.4809C136.57 80.5725 135.786 79.7128 135.786 79.7128C134.747 80.163 134.09 79.972 133.234 79.6036C132.377 79.2352 132.45 78.1984 132.45 78.1984L123.764 79.0989C123.354 79.2421 123.072 79.515 123.072 79.515C123.381 79.9108 122.449 80.83 122.449 80.83C122.709 81.009 123.208 81.5104 123.276 82.5952C123.349 83.7426 121.875 83.9356 122.613 84.7338C123.352 85.5321 124.698 84.8721 126.202 84.1506C127.706 83.4292 129.182 83.5213 129.825 83.5264C130.467 83.5314 132.259 83.9817 133.373 84.3757C134.487 84.7696 134.87 84.5344 134.945 83.9613C135.02 83.3881 135.519 83.2245 135.519 83.2245C135.382 83.7873 135.683 84.0381 135.683 84.0381C136.114 84.0688 136.866 83.6493 136.866 83.6493C136.797 84.0638 136.251 84.3246 136.251 84.3246C135.157 85.0561 136.661 84.7852 136.661 84.7852C139.655 84.1713 140.721 84.2327 141.5 84.3146C142.28 84.3964 145.957 85.9619 145.957 85.9619C146.094 85.5935 145.998 84.683 145.998 84.683C146.942 84.9388 147.325 85.4812 147.325 85.4812C147.68 85.0924 147.448 84.4374 147.448 84.4374C150.483 86.1359 146.819 86.9034 145.848 87.2308C144.877 87.5582 144.891 87.9573 144.891 87.9573C145.698 87.7014 146.258 87.6093 146.928 87.5581C147.598 87.507 147.366 87.5478 148.965 87.2308C150.565 86.9135 151.385 87.5889 151.385 87.5889C150.046 87.6604 149.649 88.0595 149.649 88.0595C150.497 88.6427 149.69 89.134 149.69 89.134C148.473 87.5992 147.434 89.1954 147.434 89.1954C147.851 89.134 149.075 89.3898 149.424 89.6099C149.693 89.7801 150.326 90.0909 151.112 90.454C152.222 90.9669 152.014 90.6381 152.875 90.9657C153.737 91.2933 153.409 92.122 153.409 92.122C153.04 91.4466 152.247 91.2112 152.247 91.2112C152.178 92.122 151.262 92.2753 151.262 92.2753C152.383 91.0269 149.964 90.4847 148.829 90.5051C147.694 90.5255 146.846 91.252 146.846 91.252C149.13 93.3906 150.715 92.6949 150.715 92.6949C150.428 93.4725 148.542 93.1655 148.542 93.1655C149.417 93.8306 149.321 94.3014 149.321 94.3014C148.856 93.8512 148.091 94.0763 146.45 93.0121C144.81 91.948 143.347 92.296 143.347 92.296C144.946 94.0048 142.759 95.0178 142.759 95.0178C141.952 95.4784 143.101 96.1024 143.101 96.1024C142.089 96.2865 141.952 95.2737 141.952 95.2737C141.419 95.1714 140.653 95.8161 140.653 95.8161C140.708 94.7723 142.075 95.2943 142.116 94.2095C142.157 93.1247 140.845 92.2859 136.976 92.818C133.107 93.3501 131.972 92.1119 131.972 92.1119C131.644 92.1222 131.575 92.4496 131.575 92.4496C132.218 93.0635 132.505 93.3194 132.396 93.7492C132.286 94.179 132.601 94.3223 132.601 94.3223C131.89 94.2813 131.835 93.4321 131.835 93.4321C131.821 93.7801 131.671 93.8109 131.439 94.179C131.206 94.5474 131.425 95.0181 131.425 95.0181C131.124 94.7519 130.577 94.4349 131.097 93.6777C131.497 93.0945 130.263 92.3474 130.263 92.3474C129.784 91.8563 128.513 92.3166 128.513 92.3166C125.874 92.8384 124.33 91.1706 124.33 91.1706C124.029 91.1706 123.455 91.007 123.455 91.007C120.666 92.2554 118.218 89.554 118.218 89.554C116.113 89.9531 115.156 88.9401 114.514 87.9474C113.871 86.9548 113.748 86.8729 112.9 86.3615C112.053 85.8498 111.26 84.4024 112.039 83.6397C112.718 82.9746 112.518 82.821 112.518 82.821C111.424 80.9826 114.468 80.3898 114.523 79.9499C114.602 79.3079 115.238 78.9021 115.922 78.861C116.605 78.82 116.605 78.8814 117.056 78.4211C117.508 77.9605 118.369 78.5337 118.369 78.5337C118.547 78.4007 120.051 77.2341 121.39 77.8379C122.73 78.4417 123.838 78.0119 123.838 78.0119C124.781 77.8072 132.615 76.743 132.615 76.743C133.121 75.9858 133.476 75.075 135.636 74.584C137.796 74.0929 139.437 72.7523 139.437 72.7523C139.054 72.3431 138.411 72.3635 138.083 72.3225C137.755 72.2814 137.072 71.6982 137.072 71.6982C136.675 71.8722 136.472 71.787 133.64 73.5093C131.111 75.0477 131.038 71.9951 131.038 71.9951L125.52 72.0052C125.424 73.1716 124.535 73.6321 124.535 73.6321L122.526 73.7344C121.404 73.1409 121.391 71.1661 121.391 71.1661C115.321 71.2583 111.944 73.4274 111.944 73.4274C105.067 69.9073 99.6807 69.1093 99.6807 69.1093C108.034 68.1985 112.45 65.8758 112.45 65.8758C117.057 68.6387 121.391 68.7102 121.391 68.7102C121.555 67.0422 122.676 66.633 122.676 66.633L123.947 66.7021Z" fill="black"/>
<path d="M114.015 80.5631C112.27 81.5867 112.585 82.1456 112.737 82.46C112.892 82.7807 112.91 83.0876 112.436 83.5652C111.962 84.0428 112.008 84.2087 112.008 84.2087C112.081 85.9052 113.283 86.2655 113.784 86.6816C114.204 87.0301 114.915 88.1221 114.915 88.1221C115.809 89.4047 116.756 89.4181 117.458 89.4181C118.16 89.4181 118.098 89.3586 117.741 89.043C117.405 88.7461 116.702 88.1699 116.702 88.1699C117.64 88.4972 118.534 89.4795 118.534 89.4795C120.307 91.4202 121.942 91.1646 122.662 91.0691C123.382 90.9735 123.255 90.5574 123.255 90.5574C123.217 90.4883 122.516 90.4345 122.516 90.4345C119.855 90.182 119.053 88.4358 119.053 88.4358C120.657 90.0116 123.173 90.3323 123.947 90.3032C124.722 90.2742 124.676 90.4959 124.512 90.537C124.348 90.578 124.111 90.537 123.756 90.5096C123.4 90.4823 123.4 90.5711 123.482 90.7211C123.565 90.8711 123.899 90.8864 124.323 90.8711C124.747 90.8557 124.405 90.9018 125.506 91.7562C126.606 92.6106 129.347 91.9199 129.347 91.9199C127.577 91.4799 127.331 90.6817 127.331 90.6817C124.925 90.963 123.947 89.5203 123.947 89.5203C123.517 89.0905 122.231 88.4259 122.231 88.4259C120.871 87.8423 120.659 86.6115 120.659 86.6115C121.042 87.1563 121.787 87.7808 122.73 88.0417C123.673 88.3026 123.94 88.4408 123.94 88.4408C123.489 88.5073 123.222 88.359 123.222 88.359C122.279 88.0827 122.812 88.4665 122.812 88.4665C123.851 89.2952 124.138 89.234 124.138 89.234C126.866 89.5153 125.512 88.4257 125.512 88.4257C127.454 88.8863 127.775 88.1595 127.775 88.1595C128.178 89.0139 129.648 88.707 129.648 88.707C127.693 89.6483 129.176 89.3795 129.176 89.3795C131.152 89.0089 131.539 89.5119 131.539 89.5119C132.074 90.0092 132.615 89.9401 132.615 89.9401C132.615 89.9401 132.97 89.9504 133.722 90.1009C134.474 90.2514 135.622 90.8917 136.716 90.7563C137.81 90.621 137.988 90.9642 137.988 90.9642C137.783 90.8934 137.304 90.8202 136.456 91.1989C135.609 91.5776 134.146 91.7003 132.013 91.1989C129.881 90.6975 129.716 90.759 129.716 90.759C130.222 91.1375 130.673 91.6698 130.769 92.0379C130.865 92.4061 131.234 92.4267 131.234 92.4267C131.384 91.9561 132.027 91.7514 132.027 91.7514C132.448 92.1402 133.572 92.6519 133.572 92.6519C133.695 92.396 133.572 92.217 133.572 92.217C134.392 92.9999 135.349 92.7644 135.349 92.7644C135.608 92.5808 135.527 92.1402 135.527 92.1402C135.855 92.1299 135.91 92.3346 136.142 92.4882C136.374 92.6418 137.112 92.5393 137.112 92.5393C136.839 92.4267 136.648 92.0072 136.648 92.0072C137.728 91.2603 140.065 91.5877 140.065 91.5877C141.754 91.8843 141.542 92.9895 141.542 92.9895C141.884 93.1532 142.335 93.6649 142.335 93.6649C142.478 93.2761 142.349 92.882 142.349 92.882C143.121 93.2504 143.285 94.1509 143.285 94.1509C144.18 93.1275 142.431 91.9765 142.431 91.9765C143.278 91.869 144.215 91.9458 144.782 92.0276C145.35 92.1095 146.163 92.4063 146.826 92.9588C147.489 93.5113 148.679 93.7671 148.679 93.7671C148.642 93.5389 148.009 93.1532 147.865 93.0714C147.722 92.9895 147.66 92.7901 147.66 92.7901C148.241 92.8923 148.645 92.8412 148.645 92.8412C146.601 91.5927 146.088 90.9995 146.088 90.9995C146.854 91.0967 147.277 90.6207 147.277 90.6207C145.664 90.6565 145.609 90.237 145.609 90.237C145.808 90.2931 146.539 90.4724 147.503 90.2831C148.467 90.0937 149.807 90.2881 149.807 90.2881C149.109 89.1675 146.409 89.3569 145.548 89.403C144.687 89.4491 144.352 89.3365 144.352 89.3365C144.489 89.27 144.632 89.1267 145.309 89.1217C145.986 89.1167 146.648 89.1728 147.414 88.6458C148.18 88.1187 149.23 88.2927 149.23 88.2927C148.975 87.788 147.763 87.6107 146.696 88.2927C145.63 88.9748 144.664 88.7567 144.664 88.7567C146.35 88.5179 146.842 87.9243 146.842 87.9243C146.332 87.8015 146.049 87.9654 145.038 88.1631C144.026 88.3609 143.752 88.0131 143.752 88.0131C144.864 87.3515 145.639 87.0853 145.639 87.0853C144.691 86.8875 143.816 86.4829 143.816 86.4829C142.832 87.4086 142.066 87.9311 140.18 86.942C138.293 85.953 137.309 86.0689 137.309 86.0689C138.968 85.0866 140.672 85.5095 141.912 86.253C143.151 86.9965 143.507 86.3893 143.507 86.3893C143.115 86.1438 143.169 85.9323 143.169 85.9323C146.177 87.4671 147.481 86.5122 148.146 86.0619C148.811 85.6117 147.845 85.0115 147.845 85.0115C147.781 85.9871 146.551 86.4303 145.585 86.103C144.619 85.7756 143.725 85.3595 142.336 84.7796C140.946 84.1998 139.205 84.5 137.582 84.8411C135.96 85.1821 135.751 85.0184 135.605 84.8888C135.459 84.7592 135.377 84.3635 134.547 84.7047C133.718 85.0458 131.786 84.1386 130.583 83.852C129.379 83.5655 127.41 83.7222 125.707 84.657C124.003 85.5918 123.164 85.3597 122.653 85.1276C122.143 84.8955 121.824 84.2545 122.371 83.6814C122.918 83.1083 122.963 82.9515 122.918 82.1259C122.872 81.3006 122.061 80.8093 122.061 80.8093C122.808 80.0384 122.991 79.868 122.735 79.5337C122.48 79.1994 122.881 79.2063 123.31 79.0153C123.738 78.8243 123.547 78.7969 123.446 78.5447C123.346 78.2922 123.1 78.3332 123.1 78.3332C122.107 78.3743 121.56 78.1014 121.56 78.1014C119.915 77.3442 118.388 78.8175 118.388 78.8175C117.453 78.1016 117.24 78.5651 117.075 78.7424C116.911 78.9198 116.583 79.0427 116.146 79.0835C115.748 79.1207 115.146 79.2764 114.938 79.6482C114.938 79.6482 114.753 79.947 114.983 80.2741C114.983 80.2741 115.239 80.6593 114.774 81.1247C114.309 81.5903 114.145 81.7028 114.289 82.1427C114.432 82.5827 114.391 82.9203 114.214 83.2069C114.214 83.2069 114.002 82.9614 114.056 82.6595C114.111 82.3575 114.111 82.1835 114.043 82.0199C114.043 82.0199 113.585 82.4701 113.503 82.7924C113.503 82.7924 113.311 82.2961 113.974 81.6311C114.637 80.966 114.939 80.6348 114.754 80.3775C114.617 80.1882 114.132 80.4947 114.015 80.5631Z" fill="#FDD406"/>
<path d="M115.9 87.8976C115.9 87.8976 115.07 87.2632 115.171 86.3832C115.271 85.5031 115.254 85.3941 115.162 85.2098C115.162 85.2098 115.011 85.2974 115.016 85.6397C115.02 85.9608 114.974 86.2946 114.943 86.3558C114.943 86.3558 114.514 85.626 114.341 85.4894C114.341 85.4894 114.487 84.7255 114.25 84.3979C114.013 84.0705 113.784 84.0499 113.512 84.1524C113.135 84.294 112.851 84.6437 114.116 85.6805C114.116 85.6805 114.587 86.0556 114.915 86.8879C115.244 87.7202 115.791 87.8498 115.9 87.8976ZM120.01 85.4623C120.01 85.4623 119.947 84.9643 120.393 84.0842C120.84 83.2041 120.572 82.5504 120.472 82.332C120.371 82.1136 120.311 82.1947 120.762 81.8165C121.316 81.3511 120.548 80.7636 121.46 79.9476C121.46 79.9476 122.061 79.4318 122.198 79.2204C122.198 79.2204 121.232 79.7388 120.603 79.998C119.974 80.2572 117.568 81.4372 118.096 82.2285C118.625 83.0198 118.57 83.0608 118.488 83.3882C118.488 83.3882 117.057 82.631 117.559 81.4032C117.559 81.4032 117.786 80.9085 118.388 80.3527C118.935 79.848 118.607 80.4619 119.719 79.8273C119.719 79.8273 120.603 79.302 121.067 78.5925C121.067 78.5925 120.484 78.9609 120.274 79.0224C120.274 79.0224 118.989 79.2542 118.47 79.8C117.95 80.3457 116.847 81.294 117.221 82.3512C117.221 82.3512 115.936 82.1942 115.644 80.8572C115.644 80.8572 113.265 83.7905 118.26 85.1549C118.26 85.1553 119.172 85.3975 120.01 85.4623Z" fill="black"/>
<path d="M141.979 75.6552C143.844 75.3732 154.655 73.7395 155.637 73.6399C156.713 73.5307 157.124 73.3872 157.478 74.2538C157.879 75.2362 156.002 75.2498 156.002 75.2498L143.114 76.711C142.482 76.7839 142.34 76.5427 142.34 76.5427C142.229 76.3368 142.013 76.0627 141.865 75.8832C141.865 75.883 141.695 75.6982 141.979 75.6552Z" fill="#FDD406"/>
<path d="M115.58 81.5184C115.58 81.5184 114.186 84.455 119.668 85.1815C119.668 85.1815 119.682 84.8542 119.9 84.3936C120.119 83.933 120.598 83.0021 120.146 82.3982C119.695 81.7944 120.516 82.1117 120.639 81.3238C120.762 80.5358 120.557 80.6484 120.939 80.1367C120.939 80.1367 119.217 80.761 118.56 81.5182C117.904 82.2754 119.449 82.8485 118.533 83.6772C118.533 83.6772 117.768 83.401 117.316 82.572C117.317 82.5722 116.25 82.5929 115.58 81.5184Z" fill="#784B26"/>
<path d="M120.94 85.1255C120.94 85.1255 122.293 86.2972 123.906 86.246C125.52 86.1949 126.203 85.7651 126.613 85.1255C126.613 85.1255 126.927 85.6211 126.928 85.9492C126.928 85.9492 128.322 84.7928 130.728 85.7956C133.135 86.7983 132.396 86.5228 132.929 86.594C132.929 86.594 131.907 86.4121 129.566 87.484C127.16 88.586 120.885 88.2104 120.94 85.1255Z" fill="black"/>
<path d="M118.697 79.9429C118.697 79.9429 119.306 80.035 119.914 79.3494C119.914 79.3494 119.094 79.503 118.697 79.9429ZM114.1 85.3969C114.1 85.3969 112.969 84.5067 113.694 84.3327C113.694 84.3327 114.21 84.2509 114.1 85.3969Z" fill="#784B26"/>
<path d="M138.726 90.9639C138.726 90.9639 139.327 89.8887 141.063 89.8887C142.8 89.8887 143.005 90.6869 145.192 90.8403C145.192 90.8403 142.566 91.5804 140.735 90.9017C139.778 90.547 138.917 90.842 138.726 90.9639Z" fill="black"/>
<path d="M121.541 85.9085C121.541 85.9085 124.139 87.4843 126.449 85.7755C126.449 85.7755 126.641 85.9596 126.804 86.3791C126.804 86.3791 128.554 84.6905 131.685 86.5121C131.685 86.5121 131.3 86.4694 129.826 87.1056C127.905 87.9346 123.1 88.477 121.541 85.9085Z" fill="#784B26"/>
<path d="M131.562 87.5049C131.562 87.5049 134.051 87.7934 136.156 87.6686C137.45 87.592 138.849 87.3551 138.152 87.7934C137.455 88.2314 137.797 88.2724 140.777 87.9962C143.757 87.7199 140.75 88.559 142.801 88.8249C142.801 88.8249 137.83 91.3624 131.562 87.5049Z" fill="black"/>
<path d="M138.097 85.9188C138.097 85.9188 139.559 85.3867 140.913 86.0211C142.266 86.6554 142.061 86.7068 142.964 86.7987C142.964 86.7987 142.335 87.6991 140.845 86.9727C139.354 86.2462 138.96 86.106 138.097 85.9188ZM139.724 90.4109C139.724 90.4109 141.159 89.695 142.745 90.4392C142.944 90.5323 143.377 90.7121 143.784 90.7997C143.784 90.7997 142.568 91.1765 141.323 90.7894C140.805 90.6286 140.393 90.5031 139.724 90.4109ZM132.628 87.8424C132.628 87.8424 135.827 88.1391 137.563 87.7932C137.563 87.7932 135.554 88.7633 140.598 88.3131C140.598 88.3131 141.719 88.1902 141.583 88.3642C141.446 88.5382 141.364 88.6711 141.911 88.8348C141.911 88.8351 138.165 90.5132 132.628 87.8424Z" fill="#784B26"/>
<path d="M116.646 85.1255C116.646 85.1255 116.673 85.371 117.384 85.6883C118.095 86.0056 118.478 86.5734 118.628 86.8804C118.779 87.1873 119.141 87.6467 119.729 87.7931C119.729 87.7931 117.221 88.3165 116.097 87.0119C116.097 87.0119 115.245 86.072 116.619 85.1255" fill="black"/>
<path d="M136.388 90.912C136.388 90.912 135.39 90.8506 134.037 90.3799C132.684 89.9093 132.328 90.3084 131.562 89.7353C130.797 89.1622 129.252 89.5205 128.965 89.5613C128.678 89.6023 127.858 89.5613 128.883 88.8962C128.883 88.8962 128.063 88.8758 127.748 88.4664C127.748 88.4664 127.379 88.8245 125.998 88.6915C125.998 88.6915 126.613 89.6578 124.139 89.3794C124.139 89.3794 124.877 90.2366 125.766 90.4106C126.655 90.5846 127.025 90.527 127.598 90.3595C127.598 90.3595 127.434 91.1064 128.582 91.393C129.731 91.6795 129.963 91.9046 130.551 92.1398C130.551 92.1398 130.633 91.6589 129.102 90.5436C129.102 90.5436 129.922 90.5026 131.098 90.7891C132.273 91.0757 134.939 91.7614 136.388 90.912ZM137.008 92.058C137.008 92.058 137.254 92.6311 138.011 92.5015C138.767 92.3719 140.011 92.1502 141.214 92.7641C141.214 92.7641 141.419 91.7407 139.004 91.6692C139.004 91.6692 137.491 91.751 137.008 92.058ZM116.556 85.4887C116.556 85.4887 115.626 86.2526 116.469 87.0475C117.239 87.7735 118.429 87.7092 118.998 87.6888C118.998 87.6888 118.656 87.4944 118.356 87.0442C118.055 86.5939 118.045 86.2896 117.412 86.0004C116.756 85.7004 116.679 85.6219 116.556 85.4887ZM115.58 81.5186C115.58 81.5186 114.186 84.4553 119.668 85.1818C119.668 85.1818 119.682 84.8544 119.9 84.3938C120.119 83.9333 120.598 83.0023 120.146 82.3985C119.695 81.7946 120.516 82.1119 120.639 81.324C120.762 80.5361 120.557 80.6486 120.939 80.137C120.939 80.137 119.217 80.7612 118.56 81.5184C117.904 82.2756 119.449 82.8487 118.533 83.6774C118.533 83.6774 117.768 83.4012 117.316 82.5722C117.317 82.5725 116.25 82.5931 115.58 81.5186Z" fill="#784B26"/>
<path d="M129.99 88.2934C129.99 88.2934 131.139 88.1093 134.064 89.2042C136.99 90.2991 138.207 90.0228 138.644 89.9921C138.644 89.9921 136.994 90.8542 134.438 89.7288C132.178 88.7336 132.027 89.112 129.99 88.2934Z" fill="black"/>
<path d="M148.305 87.6379C148.305 87.6379 148.972 87.6151 149.362 87.7982C149.362 87.7982 149.617 87.5798 150.228 87.515C150.228 87.515 149.827 87.1125 148.305 87.6379ZM146.304 86.0179C146.304 86.0179 146.974 85.9872 147.175 85.6665C147.175 85.6665 146.837 85.2367 146.322 85.0322C146.322 85.032 146.427 85.4892 146.304 86.0179ZM123.824 78.5412C123.824 78.5412 123.701 78.2138 124.398 78.1113C125.095 78.0091 134.209 76.7095 134.209 76.7095C134.209 76.7095 134.692 76.7088 134.761 77.0268C134.835 77.3704 134.706 77.6275 132.505 77.8848C130.304 78.142 124.494 78.8685 124.494 78.8685C124.494 78.8685 123.878 78.971 123.824 78.5412Z" fill="#FDD406"/>
<path d="M132.715 78.1491C132.715 78.1491 132.715 79.4383 134.027 79.6294C135.301 79.8147 135.739 79.5499 136.078 78.8794C136.167 78.7032 136.558 77.3571 135.993 77.2544C135.77 77.214 135.376 77.2371 135.094 77.3575C134.655 77.5452 134.247 77.7651 134.392 77.9851C134.702 78.4558 134.763 78.565 134.647 78.5991C134.332 78.6924 134.101 78.4157 134.037 78.224C133.957 77.9849 134.21 77.8311 133.353 77.9578C133.003 78.0096 132.715 77.9988 132.715 78.1491Z" fill="#FDD406"/>
<path d="M138.174 77.1579C138.845 77.2351 138.794 78.6538 137.992 79.2951C137.128 79.9855 136.304 79.7386 136.304 79.7386C135.868 79.5545 135.923 79.6157 136.26 79.1043C136.579 78.6199 136.73 77.9681 136.552 77.5147C136.495 77.3698 136.652 77.2522 136.875 77.2044C136.875 77.2042 137.482 77.0779 138.174 77.1579Z" fill="#FDD406"/>
<path d="M138.758 77.2825C138.758 77.2825 139.236 77.8847 138.639 78.9947C138.639 78.9947 138.375 79.322 138.967 79.2743C139.559 79.2265 140.881 78.5922 140.744 77.7803C140.744 77.7803 140.699 77.5825 140.352 77.6029C140.006 77.6233 140.288 77.4119 140.434 77.3711C140.58 77.3303 141.031 77.163 139.86 76.4091C139.86 76.4091 139.667 76.2351 139.441 76.3069C139.262 76.3635 138.639 76.6194 138.639 76.9823C138.639 77.1311 138.758 77.2825 138.758 77.2825Z" fill="#FDD406"/>
<path d="M140.038 76.2627C140.038 76.2627 140.973 76.9323 140.968 77.1312C140.963 77.3302 140.881 77.5997 141.128 77.576C141.374 77.5522 142.385 77.3372 142.107 76.6688C141.829 76.0001 141.551 75.7649 141.082 75.6012C140.613 75.4376 140.494 75.6593 140.093 75.9627C140.093 75.9627 139.801 76.14 140.038 76.2627ZM134.984 77.2076C134.984 77.2076 135.139 76.7096 134.301 76.5255C134.301 76.5255 134.656 76.2322 135.367 76.3892C136.073 76.5449 135.998 77.01 135.992 77.0712C135.992 77.0712 135.44 77.0506 134.984 77.2076ZM136.807 77.0916C136.807 77.0916 137.779 76.9215 138.211 76.9757C138.211 76.9757 137.732 75.9048 136.438 76.2696C136.438 76.2696 136.903 76.795 136.807 77.0916ZM138.471 76.8255C138.471 76.8255 138.471 76.4981 139.295 76.1705C139.295 76.1705 138.895 75.7937 138.339 75.8295C137.701 75.8705 137.573 76.1023 137.573 76.1023C137.573 76.1023 138.266 76.3428 138.471 76.8255ZM138.794 75.7068C138.794 75.7068 139.305 75.8364 139.623 76.1093C139.623 76.1093 140.107 75.5813 140.517 75.468C140.517 75.468 139.715 75.0382 138.794 75.7068Z" fill="#FDD406"/>
<path d="M111.958 73.1282C111.958 73.1282 114.21 71.2202 115.471 71.4501C116.733 71.6798 116.1 71.5216 117.481 71.3068C118.862 71.092 120.284 70.9487 120.858 71.0202C120.858 71.0202 119.19 69.8231 116.21 69.8435C116.21 69.8435 114.104 70.57 112.655 71.5319C112.655 71.5319 109.866 69.9765 106.981 70.9077C106.981 70.9077 110.112 72.0434 111.958 73.1282Z" fill="#784B26"/>
<path d="M135.903 76.4331L136.279 76.37C136.279 76.37 136.913 77.1558 136.452 77.1646C136.092 77.1718 136.238 77.0538 136.17 76.8253C136.101 76.5968 135.978 76.4946 135.903 76.4331ZM133.073 76.4946C133.073 76.4946 132.847 76.7751 133.271 76.7094C133.788 76.6294 133.688 76.7266 134.256 76.3426C134.256 76.3426 134.604 75.9726 135.253 76.203C135.253 76.203 135.8 76.382 136.245 76.1672C136.689 75.9524 136.792 75.9678 137.031 75.9882C137.27 76.0086 137.254 76.0602 137.573 75.8271C137.892 75.5941 138.446 75.7731 138.794 75.4815C139.143 75.1899 139.58 75.4354 138.794 74.8726C138.794 74.8726 138.63 74.709 138.644 74.5707C138.644 74.5707 138.945 74.6576 139.184 74.8726C139.423 75.0874 139.82 75.021 139.888 74.9852C139.888 74.9852 139.929 74.2842 140.626 73.6395C141.324 72.9949 141.33 72.9438 140.92 72.9385C140.51 72.9334 139.82 72.7748 139.587 72.9385C139.355 73.1022 137.311 74.4426 136.122 74.6677C134.932 74.893 133.839 75.2307 133.073 76.4946ZM101.335 69.1614C101.335 69.1614 104.985 70.1026 105.805 70.4984C105.805 70.4984 106.001 69.8878 104.343 69.4102C104.343 69.4102 108.371 69.2874 112.637 71.2249C112.637 71.2249 114.693 69.4618 121.309 70.0076C121.309 70.0076 121.322 69.4232 121.368 68.9737C121.368 68.9737 116.72 68.8374 112.454 66.2451C112.454 66.2449 108.636 68.1243 101.335 69.1614ZM121.623 70.9246C121.368 67.1931 122.799 66.859 122.799 66.859C122.799 66.859 123.473 66.8629 124.202 66.975C124.202 66.975 123.072 68.3187 123.373 70.9861C123.373 70.9861 123.492 71.4159 122.534 71.4159C121.593 71.4159 121.623 70.9246 121.623 70.9246Z" fill="#FDD406"/>
<path d="M122.598 73.3943C122.598 73.3943 121.905 72.6849 121.832 71.8663C121.832 71.8663 121.814 71.6548 122.516 71.6752C123.217 71.6956 123.309 71.6078 123.482 72.0163C123.65 72.4135 124.092 73.2511 124.202 73.3466L122.598 73.3943Z" fill="#784B26"/>
<path d="M124.097 71.5315C124.034 71.0434 124.009 70.6267 124.02 70.1131C124.066 68.0326 124.411 68.2174 124.548 68.4768L125.26 68.4898C125.26 68.4898 124.74 66.1431 124.13 67.5142C123.53 68.8611 123.574 69.738 123.647 70.8022C123.689 71.4151 123.77 71.7967 123.838 72.0262L124.097 71.5315Z" fill="#FDD406"/>
<path d="M132.136 71.537C132.136 71.537 133.51 71.7468 131.405 72.2481C131.405 72.2481 131.507 74.7921 133.996 73.0104C133.996 73.0104 135.465 72.0708 136.484 71.6887C136.484 71.6887 136.996 71.5113 136.935 71.1276C136.935 71.1276 136.976 70.6757 136.443 70.7642C136.443 70.7642 136.023 70.7741 135.752 70.6754C135.752 70.6754 135.458 70.3293 135.26 70.4623C135.062 70.5953 134.597 70.5185 134.959 70.9586C135.322 71.3985 135.431 71.286 135.609 71.1581C135.787 71.0301 136.573 70.7181 135.848 71.3678C135.123 72.0175 134.556 71.0097 134.323 70.8254L132.136 71.537ZM125.26 71.8253L124.649 71.8116C124.649 71.8116 124.321 72.3029 124.097 71.5315L123.838 72.0259C123.838 72.0259 124.594 74.7576 125.26 71.8253Z" fill="#784B26"/>
<path d="M124.394 68.6735C124.394 68.6735 124.084 70.4608 124.476 71.566L131.084 71.6889C131.084 71.6889 131.002 70.4063 131.102 68.6737H130.163C130.163 68.6737 130.036 70.113 130.154 70.9998L129.999 71.0029C129.999 71.0029 129.881 69.7583 130.008 68.6737H129.233C129.233 68.6737 129.106 70.0041 129.206 71.0135H129.06C129.06 71.0135 128.951 69.8471 129.078 68.6737H128.313C128.313 68.6737 128.172 69.8785 128.323 70.9969L128.14 70.9931C128.14 70.9931 127.985 69.772 128.149 68.6737H127.301C127.301 68.6737 127.092 69.7993 127.292 71.0068H127.119C127.119 71.0068 126.928 69.8538 127.137 68.6737H126.289C126.289 68.6737 126.089 69.9493 126.262 71.0068H126.098C126.098 71.0068 125.961 69.772 126.143 68.6737H125.35C125.35 68.6737 125.141 69.7516 125.314 71.0068H125.141C125.141 71.0068 125.013 70.0722 125.177 68.6737L124.394 68.6735ZM131.375 71.9344C131.375 71.9344 131.192 68.7006 131.813 67.8688C132.433 67.0369 132.56 67.2001 133.617 67.8688C134.674 68.5372 136.042 69.2603 136.26 69.3421C136.479 69.424 136.789 69.5058 136.789 70.0926C136.789 70.6794 136.899 70.8565 135.987 70.12C135.85 70.0096 135.424 69.6196 135.117 69.5214C134.3 69.2608 135.313 69.7043 135.604 70.12C135.851 70.4723 136.042 70.4337 135.404 70.5976C134.766 70.7615 132.56 71.4978 131.375 71.9344Z" fill="#FDD406"/>
<path d="M133.689 69.619C133.689 69.619 133.21 69.0144 133.819 68.8762C134.427 68.738 134.475 69.8328 134.577 70.4928C134.68 71.1528 133.812 69.8259 133.689 69.619ZM132.8 72.4371C132.8 72.4371 132.089 72.698 132.554 72.9281C133.019 73.1583 134.331 72.0687 133.88 72.1402C133.429 72.212 132.8 72.4371 132.8 72.4371ZM133.764 71.4394C133.764 71.4394 134.393 71.378 134.27 71.6492C134.147 71.9204 133.921 71.748 133.826 71.6883C133.73 71.6288 133.285 71.4752 133.764 71.4394Z" fill="black"/>
<path d="M137.113 70.5938C137.113 70.5938 137.282 71.825 138.339 72.1372C138.339 72.1372 138.949 72.2889 138.822 71.7501C138.822 71.7501 138.717 71.2999 138.631 71.1122C138.544 70.9245 138.12 70.8052 138.075 70.7848C138.029 70.7644 137.974 70.6348 138.266 70.7303C138.558 70.8259 138.603 70.8362 138.581 70.6315C138.558 70.4267 138.386 70.5091 138.118 70.3783C138.015 70.3279 138.129 70.2597 138.239 70.2837C138.348 70.3075 138.608 70.3859 138.612 69.9631C138.612 69.9631 138.67 69.7279 138.348 69.7106C137.997 69.6919 138.025 69.5349 138.134 69.5111C138.244 69.4874 138.611 69.7418 138.713 69.3235C138.818 68.8936 138.207 69.1411 138.289 68.9193C138.371 68.6975 138.804 69.046 138.84 68.783C138.875 68.5271 139.224 68.4158 138.629 68.3332C138.346 68.2941 138.607 68.1688 138.925 68.2135C139.264 68.2612 139.469 67.8417 139.665 67.7051C139.861 67.5688 140.969 66.9071 139.492 67.1253C138.016 67.3435 137.583 68.0599 137.487 68.2031C137.391 68.3462 136.981 69.1919 137.113 70.5938Z" fill="#FDD406"/>
<path d="M140.553 71.548C140.743 71.5115 140.922 71.5631 140.986 71.6954C141.23 72.1941 140.672 72.016 140.362 72.3844C140.052 72.7528 140.043 72.6777 139.606 72.5488C139.168 72.4199 139.004 71.7568 139.004 71.7568C138.955 71.5533 139.144 71.536 139.371 71.5619C139.371 71.5622 140.096 71.6361 140.553 71.548ZM138.954 71.2828C138.954 71.2828 138.985 71.4321 139.235 71.4525C139.486 71.4729 140.214 71.536 140.647 71.3963C140.647 71.3963 140.806 71.3649 140.735 71.0829C140.735 71.0829 140.729 70.9 140.339 70.9742C139.949 71.0483 139.386 70.9742 139.198 70.9331C139.01 70.8923 138.857 70.9367 138.954 71.2828ZM138.895 70.3893C138.895 70.3893 138.881 70.7781 139.273 70.8292C139.665 70.8803 140.153 70.8784 140.356 70.8383C140.511 70.8076 140.79 70.751 140.813 70.5223C140.836 70.2938 140.9 70.1231 140.417 70.2427C139.934 70.3619 139.35 70.2837 139.291 70.27C139.232 70.2563 138.904 70.1572 138.895 70.3893ZM139.072 69.6047C139.072 69.6047 138.977 69.7821 138.99 69.9527C139.004 70.1234 139.287 70.1812 139.797 70.1882C140.307 70.1951 140.763 70.12 140.795 69.9494C140.827 69.7787 140.95 69.581 140.549 69.6424C140.148 69.7039 139.642 69.7209 139.442 69.6391C139.241 69.557 139.106 69.5287 139.072 69.6047Z" fill="#FDD406"/>
<path d="M157.811 71.583C157.811 71.583 157.804 71.9387 158.084 72.2891L143.917 71.8823C143.917 71.8823 144.124 71.7544 144.177 71.2026L157.811 71.583Z" fill="#784B26"/>
<path d="M139.186 69.0183C139.186 69.0183 139.063 69.3763 139.318 69.4481C139.573 69.5196 140.011 69.5981 140.59 69.5062C140.59 69.5062 140.881 69.5266 140.982 69.2163C141.082 68.9059 141.072 69.0799 140.247 68.916C140.247 68.916 139.988 68.8404 140.74 68.8375C140.74 68.8375 141.159 68.8512 141.223 68.7795C141.287 68.7079 141.843 68.2678 141.123 68.2951C140.403 68.3225 140.758 68.1689 141.123 68.1689C141.488 68.1689 141.602 68.244 141.72 68.1279C141.838 68.0119 141.729 68.0904 141.533 67.8924C141.337 67.6947 141.474 67.7525 141.615 67.8617C141.756 67.9709 141.843 68.005 142.002 67.8651C142.162 67.7251 141.879 67.5207 142.002 67.5444C142.125 67.5682 142.185 67.8019 142.649 67.5768C143.114 67.3517 143.743 67.4693 143.914 67.5972C144.085 67.7251 144.57 67.8888 144.864 67.5869C145.158 67.285 144.515 67.0395 144.789 66.9984C145.063 66.9574 145.254 67.0546 145.363 66.8347C145.473 66.6147 144.939 66.4049 145.452 66.2669C145.965 66.1287 145.534 64.6911 145.356 64.5581C145.356 64.5581 144.782 64.8958 144.153 65.9139C143.524 66.9319 143.155 67.5255 142.301 67.2135C141.068 66.7632 140.438 67.4105 140.247 67.5271C139.952 67.7079 140.865 67.7967 140.332 67.8067C139.799 67.8171 139.799 67.8629 139.744 67.945C139.69 68.0268 139.737 68.0986 139.833 68.1036C139.929 68.1087 140.134 68.3134 139.806 68.3031C139.478 68.2927 139.245 68.2416 139.342 68.5903C139.342 68.5903 139.348 68.6664 139.539 68.6868C139.73 68.7072 139.799 68.9069 139.443 68.9069C139.215 68.9074 139.193 68.9957 139.186 69.0183ZM140.496 72.5705C140.496 72.5705 140.243 72.7495 140.592 72.7699C140.941 72.7903 141.125 72.8568 141.234 72.6701C141.344 72.4834 141.815 72.5602 141.501 72.2991C141.187 72.0384 140.975 72.1867 140.496 72.5705Z" fill="#FDD406"/>
<path d="M141.958 68.3087C141.958 68.3087 143.138 67.1984 144.124 67.9506C145.11 68.7028 145.205 68.8153 145.219 68.8307C145.233 68.8461 145.335 68.9279 145.069 69.1633C144.802 69.3988 145.062 69.3935 145.356 69.2502C145.65 69.1069 145.67 69.2399 145.813 69.3985C145.957 69.5572 146.149 69.6493 145.694 69.6544C145.239 69.6594 144.262 69.6544 144.262 69.6544C144.262 69.6544 143.599 69.7105 143.934 69.4396C144.269 69.1684 144.221 68.846 144.05 68.8256C143.879 68.8052 144.036 68.9893 143.934 69.1173C143.831 69.2452 143.599 69.3628 143.366 69.3577C143.134 69.3527 142.929 69.526 143.298 69.6594C143.667 69.7926 143.257 69.88 143.066 69.8747C142.874 69.8694 141.951 69.9462 142.888 70.0588C143.825 70.1713 142.804 70.1442 143.49 70.5361C144.248 70.9696 143.701 71.8905 143.414 71.9723C143.414 71.9723 143.1 72.1434 143.497 72.0961C143.893 72.0491 144.112 71.9927 143.832 72.2075C143.551 72.4223 142.991 73.1387 142.212 72.5912C142.212 72.5912 141.856 72.4225 142.492 72.3918C143.128 72.3611 141.972 72.2252 141.781 72.0961C141.59 71.967 140.858 71.2201 141.316 71.3123C141.774 71.4045 141.61 71.1383 141.337 71.0411C141.063 70.9439 141.008 70.5244 141.316 70.6165C141.624 70.7087 141.986 70.8801 142.232 70.8685C142.478 70.857 142.41 70.7545 141.883 70.5908C141.357 70.4272 141.138 70.4015 141.261 69.9565C141.385 69.5116 141.959 70.1305 141.822 69.7979C141.685 69.4653 141.186 69.6292 141.453 69.189C141.72 68.7491 141.781 68.9382 141.904 68.9946C142.027 69.051 142.224 69.009 141.877 68.7491C141.658 68.5849 141.896 68.3629 141.958 68.3087Z" fill="#FDD406"/>
<path d="M142.807 68.6155C142.807 68.6155 142.8 68.4672 143.012 68.4927C143.224 68.5183 143.169 68.4159 143.23 68.3851C143.292 68.3544 143.822 68.5431 143.326 68.7228C143.143 68.7893 142.855 68.7418 142.807 68.6155Z" fill="black"/>
<path d="M143.935 69.8743C143.935 69.8743 143.536 70.0773 143.897 70.4956C144.205 70.8523 144.203 70.9653 144.178 71.2024C144.152 71.4395 157.811 71.5828 157.811 71.5828C157.811 71.5828 157.787 70.7054 158.372 70.2117C158.372 70.2119 150.907 70.0379 143.935 69.8743Z" fill="#FDD406"/>
<path d="M158.043 71.3424C158.043 71.3424 158.099 70.6023 158.508 70.357C158.734 70.2219 159.031 70.3006 159.161 70.8972C159.346 71.7459 158.627 72.4678 158.293 72.1455C157.975 71.8388 158.043 71.3424 158.043 71.3424Z" fill="#784B26"/>
<path d="M142.391 74.5343C142.391 74.5343 143.3 73.7617 143.437 73.4137C143.437 73.4137 145.898 75.1571 145.747 73.5563C145.747 73.5563 145.754 73.1272 145.822 72.718C145.822 72.718 146.712 72.8053 146.847 72.0949L144.551 72.0273C144.551 72.0273 144.311 71.9761 143.956 72.3599C143.601 72.7436 142.869 73.1636 142.185 72.7974C142.185 72.7974 141.899 72.549 141.608 72.7588C141.317 72.9685 141.303 73.03 141.543 73.2551C141.782 73.4804 142.295 74.1712 142.391 74.5343ZM147.675 69.7199L146.328 69.6688C146.328 69.6688 145.836 68.978 144.879 68.2105C144.879 68.2105 144.599 68.0876 145.139 67.658C145.679 67.2282 145.836 66.7679 145.857 66.5581C145.877 66.3484 145.822 66.021 146.027 66.2716C146.232 66.5224 147.627 67.7809 147.825 67.4075C148.023 67.034 148.058 66.86 148.092 66.7475C148.126 66.6349 148.174 66.2869 148.372 66.6503C148.57 67.0136 148.707 66.9208 148.714 67.8628C148.714 67.8628 148.748 68.794 148.892 69.1316C148.891 69.1316 147.128 68.5667 147.675 69.7199ZM141.83 66.8548C141.83 66.8548 142.855 67.4279 143.361 66.6501C143.867 65.8725 144.209 65.7496 143.826 65.0027C143.443 64.2558 143.837 63.9078 144.125 63.6008C144.414 63.2939 144.66 63.345 144.701 62.158C144.742 60.9709 145.563 60.572 145.932 60.2036C146.301 59.8352 147.231 59.2724 145.822 59.0372C144.414 58.8018 141.625 58.0753 140.901 56.9908C140.176 55.9062 139.848 56.5508 139.834 56.5916C139.821 56.6327 139.588 57.4307 140.313 58.8736C141.037 60.3164 141.652 61.2441 142.35 61.7113C143.047 62.1786 143.676 62.4344 143.32 63.3964C142.965 64.358 142.35 66.0772 141.83 66.8548Z" fill="#AD7D5A"/>
<path d="M145.616 63.7871C145.616 63.7871 145.794 66.2531 147.599 67.1332C147.599 67.1332 148.009 66.1712 147.845 65.2196C147.845 65.2196 148.432 65.2708 148.597 65.5369C148.597 65.5369 148.624 64.8208 147.776 64.5596C146.929 64.2988 147.339 62.6922 147.639 62.5081C147.94 62.324 147.844 62.0034 147.639 61.7135C147.434 61.4236 147.38 60.9836 148.091 61.1677C148.802 61.3518 148.692 60.9733 148.268 60.6253C147.845 60.2773 147.858 59.8477 148.46 59.8477C149.061 59.8477 150.059 59.2645 149.458 59.0802C148.856 58.8961 148.665 58.7017 149.485 58.4663C150.305 58.2308 150.702 57.9342 150.086 57.8627C149.471 57.7912 149.061 57.5761 149.663 57.4739C150.264 57.3716 149.553 56.7577 148.856 56.727C148.159 56.6963 146.655 56.9828 147.844 56.0312C149.034 55.0796 146.135 55.7754 147.325 55.1512C148.514 54.5269 146.928 54.8032 146.71 54.7931C146.491 54.783 146.493 54.7931 146.574 54.4758C146.655 54.1585 146.409 54.0152 146.067 54.2096C145.725 54.404 145.725 54.404 145.739 53.9641C145.753 53.5242 145.329 53.8516 145.069 53.9641C144.809 54.0767 144.153 54.5677 143.893 54.3018C143.634 54.0359 143.483 53.7594 142.676 54.2507C141.87 54.7417 142.061 54.3018 142.075 54.087C142.089 53.8722 142.389 53.0228 141.282 53.9334C140.175 54.8442 141.077 52.9511 140.202 53.5957C139.327 54.2404 139.232 54.3529 139.095 54.0664C138.958 53.7798 138.792 53.5446 137.829 54.1585C136.866 54.7724 137.577 53.7901 137.714 53.5753C137.85 53.3605 138.261 51.9688 137.413 53.0536C137.413 53.0536 137.003 53.8108 136.087 52.46C136.087 52.46 135.116 53.8019 134.87 53.2076C134.624 52.6136 134.378 52.5522 134.063 52.941C133.749 53.3298 133.981 52.9206 133.845 52.593C133.708 52.2654 133.626 51.6618 132.013 52.8385C130.4 54.0152 132.573 53.1558 131.343 53.6879C130.113 54.22 127.146 55.898 129.866 55.5092C132.587 55.1204 128.54 56.5734 129.484 56.8396C130.427 57.1057 130.126 57.9241 133.667 56.9521C137.208 55.9801 136.634 56.7985 138.438 56.0209C140.243 55.2433 138.028 56.2871 140.448 56.2357C142.868 56.1846 140.858 56.246 141.323 56.7474C141.788 57.2488 143.839 58.4358 145.753 58.6302C147.667 58.8246 148.131 58.1084 147.584 58.9372C147.038 59.7659 146.846 60.0832 146.518 60.3697C146.19 60.6563 145.288 61.311 145.274 62.4572C145.26 63.6032 143.77 63.7876 144.317 65.0562C144.318 65.056 145.165 64.2373 145.616 63.7871Z" fill="#784B26"/>
<path d="M148.765 66.5448C148.765 66.5448 148.328 66.2378 148.337 65.6921C148.337 65.6921 148.647 65.7466 148.765 65.9445C148.765 65.9445 149.868 64.6961 148.551 64.2461C147.234 63.7958 147.89 62.6021 148.336 62.5951C148.783 62.5881 148.861 62.4655 148.485 61.9675C148.109 61.4695 148.136 61.4491 148.883 61.3195C149.631 61.1899 149.529 61.0329 149.197 60.8489C148.865 60.6648 148.611 60.3645 148.611 60.3645C148.611 60.3645 150.724 59.4437 150.041 59.0208C149.357 58.5979 150.041 58.7071 150.651 58.2703C151.262 57.8337 151.344 57.7519 151.435 57.5813C151.435 57.5813 150.832 57.6427 150.386 57.5539C150.386 57.5539 150.914 57.2947 150.386 56.8649C149.858 56.435 149.64 56.0462 148.801 56.244C147.963 56.4417 148.236 56.1621 148.564 55.8141C148.892 55.4661 148.737 55.2684 148.145 55.1798C148.145 55.1798 148.218 54.8251 148.665 54.3816C148.665 54.3816 147.525 54.4634 147.142 54.2657C147.142 54.2657 147.598 53.952 147.635 53.5766C147.635 53.5766 147.006 53.7813 146.213 53.7062C146.213 53.7062 146.678 53.3037 146.678 52.949C146.678 52.949 145.302 53.256 144.664 53.7403C144.664 53.7403 144.527 53.7129 144.418 53.5629C144.308 53.4129 144.226 53.2627 142.704 53.747C142.704 53.747 142.877 53.0717 143.242 52.7988C143.606 52.5259 143.552 51.9801 141.182 53.4605C141.182 53.4605 140.863 53.2694 140.599 52.56C140.599 52.56 140.088 53.2831 139.696 53.5286C139.696 53.5286 139.368 53.6664 139.409 53.2053C139.45 52.7443 139.177 53.0729 138.931 53.2053C138.685 53.3378 138.52 53.6652 138.644 52.734C138.767 51.8028 138.316 51.6084 138.316 51.6084C138.316 51.6084 137.577 52.6521 137.153 52.7647C137.153 52.7647 136.374 52.0075 136.101 51.5061C135.827 51.0048 135.827 50.8205 135.554 51.6902C135.28 52.56 134.939 52.6315 134.939 52.6315C134.939 52.6315 134.474 52.2324 134.419 52.0176C134.419 52.0176 134.337 52.253 134.187 52.3553C134.187 52.3553 133.777 51.8743 133.79 51.1785C133.79 51.1785 131.248 52.5804 130.933 53.4297C130.933 53.4297 128.527 53.2865 127.529 53.4708C127.529 53.4708 127.775 52.6932 128.404 52.3044C128.404 52.3044 127.775 52.2329 127.748 51.5882C127.748 51.5882 128.254 51.6597 128.568 51.5779C128.883 51.4961 128.131 50.5853 128.924 50.5649C129.717 50.5445 130.222 50.9433 129.867 49.8895C129.511 48.8357 129.676 48.8357 129.676 48.8357C129.676 48.8357 131.056 49.6543 131.275 49.4496C131.494 49.2449 131.097 48.8049 132.328 49.0097C133.558 49.2144 133.216 48.5083 133.695 48.4776C134.173 48.4469 134.433 48.7845 134.132 46.554C133.832 44.3234 135.622 47.6592 134.406 44.2927C134.406 44.2927 134.098 43.2746 133.367 42.8397C133.367 42.8397 133.203 43.5765 132.376 42.9266C131.548 42.2767 129.922 42.0465 130.605 41.5351C131.289 41.0234 131.61 40.338 131.412 39.9081C131.412 39.9081 130.606 40.7508 129.204 40.1486C128.096 39.6727 127.864 40.5477 126.729 40.2919C126.729 40.2919 126.75 40.0003 127.707 39.2481C128.664 38.496 127.153 39.4989 126.558 39.6319C125.964 39.7649 125.793 39.6576 127.051 38.6853C128.308 37.7133 130.797 35.9942 130.455 34.5821C130.455 34.5821 131.043 35.329 132.587 34.7868C134.132 34.2446 135.281 34.05 135.746 33.252C136.21 32.4537 137.427 31.6454 137.742 31.4714C138.056 31.2974 138.48 31.1748 138.001 31.932C137.523 32.6892 136.744 33.9888 134.611 34.8686C132.478 35.7487 131.658 36.3934 131.275 36.8537C130.892 37.3142 128.951 38.3477 130.209 38.1737C131.467 37.9997 133.654 38.2044 132.629 37.9075C131.603 37.6109 130.441 38.0916 131.385 37.2321C132.328 36.3727 132.492 36.0861 133.859 35.513C135.226 34.9399 136.744 33.6302 136.593 35.0217C136.443 36.4133 133.9 37.8972 133.271 38.3472C132.642 38.7974 132.875 38.7259 132.888 38.91C132.902 39.0941 132.793 39.4728 132.533 39.6468C132.273 39.8208 132.355 40.0152 132.424 40.404C132.492 40.7928 132.355 40.9464 132.547 41.0076C132.738 41.0688 132.929 41.0997 132.984 41.376C133.039 41.6522 133.182 41.688 133.552 41.6573C133.921 41.6265 134.153 41.6623 134.18 41.8773C134.208 42.0921 134.556 42.3837 134.597 41.729C134.638 41.0741 134.878 40.9461 134.208 41.2481C133.538 41.55 133.394 41.4425 133.408 41.1305C133.422 40.8185 133.347 40.89 133.066 40.8643C132.786 40.8386 132.69 40.4448 133.189 40.1839C133.688 39.923 133.682 40.1889 134.304 39.6722C134.926 39.1555 134.926 39.0122 135.022 38.7717C135.117 38.5313 134.133 39.4728 133.661 39.6876C133.19 39.9024 133.312 39.5393 133.395 39.0019C133.477 38.4645 134.652 37.7637 135.192 37.7534C135.732 37.7431 136.949 38.0604 136.423 38.7972C135.897 39.534 134.406 40.4088 135.049 40.4753C135.691 40.5417 135.794 40.2912 136.163 40.6185C136.532 40.9459 136.191 41.6112 136.02 41.9642C135.849 42.3173 135.493 42.7625 135.336 42.8443C135.336 42.8443 134.659 41.6369 134.68 42.5935C134.701 43.5501 134.536 43.8931 134.68 43.9289C134.824 43.9646 135.575 44.466 135.815 44.4763C136.054 44.4866 134.516 45.1977 135.159 45.2438C135.801 45.2899 136.82 44.9626 137.175 44.2973C137.175 44.2973 135.869 43.98 135.343 43.4889C135.343 43.4889 136.868 43.1309 136.444 41.6625C136.444 41.6625 137.961 42.077 137.305 42.7625C136.649 43.4481 136.252 43.3457 136.82 43.5401C137.387 43.7345 137.668 43.8981 137.668 43.8981C137.668 43.8981 138.056 44.0925 137.831 44.4098C137.606 44.7271 137.599 45.2081 137.79 45.1977C137.982 45.1874 138.624 44.8908 138.084 44.5634C137.544 44.2361 138.7 44.2922 138.208 44.016C137.715 43.7397 137.585 43.6733 137.456 43.5401C137.326 43.4071 143.635 39.708 140.45 41.0945C140.45 41.0945 141.113 39.6569 142.042 39.6516C142.972 39.6463 143.04 40.3831 142.514 40.9409C141.988 41.4986 141.646 42.3684 140.409 42.5729C140.409 42.5729 142.177 43.4393 140.087 44.8548C140.087 44.8548 139.634 45.0696 139.798 45.2265C139.962 45.3835 141.201 44.6808 141.375 44.2853C141.548 43.8895 141.812 43.5826 142.286 43.3507C142.76 43.1189 145.093 41.5293 145.795 40.3286C146.497 39.1279 146.688 39.0871 148.055 37.9889C149.422 36.8906 149.186 37.1088 149.359 36.8429C149.532 36.5769 149.605 36.1401 150.234 35.7854C150.863 35.4307 153.305 34.0733 154.071 33.5206C154.837 32.9681 156.404 31.9517 157.079 31.092C157.753 30.2325 159.569 29.1345 160.023 29.3388C160.476 29.543 159.977 30.1848 158.911 30.9965C157.844 31.8081 155.201 33.9434 154.773 34.2708C154.344 34.5981 152.102 36.2354 151.264 36.3446C150.425 36.4538 150.516 36.7471 150.015 37.2929C149.514 37.8386 148.356 38.9846 147.964 39.2985C147.572 39.6122 146.643 40.2535 146.588 40.7037C146.533 41.154 146.752 41.2085 146.005 41.9112C145.258 42.6139 143.07 44.2032 142.277 44.4557C142.277 44.4557 143.681 44.9196 142.842 45.8678C142.004 46.8161 142.058 46.6795 141.994 46.7409C141.994 46.7409 144.126 46.4273 142.614 48.0847C142.614 48.0847 142.323 48.5623 142.997 48.0643C143.718 47.532 143.407 46.8024 143.325 46.6999C143.325 46.6999 144.455 45.9972 145.759 45.9768C147.062 45.9564 147.016 45.8676 145.85 45.5333C145.85 45.5333 146.679 44.5236 147.381 45.0216C148.083 45.5196 147.855 45.8061 147.117 46.2017C146.379 46.5974 145.285 46.7611 144.474 47.2113C144.474 47.2113 146.014 47.5116 146.843 46.884C147.673 46.2564 147.709 46.5703 147.819 46.6793C147.928 46.7885 148.019 46.9929 147.654 47.5183C147.29 48.0437 147.253 48.0708 147.272 48.1869C147.29 48.3029 147.244 48.6645 146.497 48.7872C145.75 48.9101 145.412 49.2237 145.667 49.5785C145.923 49.9332 145.932 50.8133 145.294 50.7314C144.656 50.6496 144.829 50.1449 144.583 49.9469C144.337 49.7491 143.991 49.4421 142.878 50.022C141.766 50.6018 141.675 49.9128 141.73 49.5513C141.73 49.5513 141.01 50.1789 140.408 49.5991C139.807 49.0193 140.354 48.7941 140.7 48.5009C141.046 48.2076 142.459 47.5937 141.611 47.7026C140.764 47.8116 139.497 47.8663 139.205 47.2116C138.914 46.5566 139.834 46.6317 139.98 46.6932C140.126 46.7546 140.727 47.2389 140.746 46.6044C140.764 45.9701 141.702 45.9017 141.383 45.7721C141.064 45.6425 140.618 46.0449 140.49 46.2019C140.49 46.2019 139.834 45.2877 138.777 45.588C137.72 45.8882 139.114 45.7653 139.396 45.8131C139.679 45.8609 139.515 46.3862 138.567 47.2389C137.619 48.0917 138.047 47.8325 138.749 47.8325C139.451 47.8325 141.174 47.8392 140.171 48.6578C139.168 49.4765 138.768 49.8857 138.248 49.7424C137.728 49.5991 138.312 49.2581 138.54 49.1148C138.767 48.9715 138.904 48.719 138.412 48.9033C137.92 49.0877 137.747 49.1217 137.355 48.4257C136.963 47.73 137.127 47.9347 137.291 47.4775C137.455 47.0205 137.838 46.5362 137.382 46.7066C136.926 46.877 136.972 46.8907 137.008 46.3656C137.045 45.8402 136.489 45.7243 136.489 45.7243C136.489 45.7243 136.708 46.2497 136.507 46.5837C136.307 46.9178 136.298 47.034 136.626 47.1225C136.954 47.2113 137.264 47.4909 136.817 47.7979C136.37 48.1049 136.425 48.0641 136.708 48.2481C136.99 48.4322 137.4 48.6439 136.963 49.0735C136.525 49.5031 136.89 49.3737 137.109 49.3737C137.327 49.3737 137.822 49.5578 137.83 49.9809C137.838 50.4038 137.801 50.5063 138.512 50.1105C139.223 49.7148 140.645 49.7625 140.626 50.3153C140.608 50.8677 140.444 51.0043 141.201 50.5337C141.958 50.063 142.294 50.9772 142.814 50.5337C143.334 50.0901 143.662 49.6605 144.263 50.4177C144.865 51.1749 144.677 51.4039 143.944 51.9389C143.211 52.4738 144.3 52.0617 144.856 51.7752C145.412 51.4886 146.97 51.2976 147.863 51.6933C148.757 52.0891 149.012 52.0003 149.668 51.7274C150.324 51.4545 150.661 51.3931 151.655 52.0548C152.648 52.7165 153.423 52.8393 153.943 52.8257C153.943 52.8257 152.84 53.2555 151.6 53.3373C150.361 53.4192 149.741 53.651 149.495 53.8421C149.495 53.8421 150.24 54.2923 150.387 54.8448C150.387 54.8448 151.199 54.7356 151.6 54.8993C151.6 54.8993 151.391 55.4858 151.892 55.7997C152.393 56.1134 152.74 56.2296 152.366 56.6592C151.992 57.089 152.94 56.9047 152.403 57.5119C151.865 58.1191 151.719 58.4261 151.701 58.9171C151.683 59.4084 151.819 59.4833 151.336 59.531C150.853 59.5788 151.418 60.1176 151.199 60.7589C150.981 61.4001 149.632 61.332 149.686 63.0509C149.686 63.0509 150.06 62.2118 150.862 61.475C151.664 60.7382 151.692 60.6701 151.673 60.2265C151.655 59.783 151.619 59.8855 152.047 59.5512C152.476 59.2169 151.856 58.9032 152.284 58.4256C152.712 57.948 152.339 58.0435 152.84 57.5592C153.341 57.0749 152.403 57.0134 152.913 56.5154C153.424 56.0174 151.683 55.4513 152.184 55.1306C152.685 54.81 153.551 54.3667 150.634 54.4145C150.634 54.4145 151.336 53.2548 153.797 53.5073C153.797 53.5073 153.15 53.9642 153.095 54.4145C153.095 54.4145 153.378 54.5577 153.551 54.5985C153.551 54.5985 153.456 54.9285 152.986 55.3284C152.986 55.3284 154.29 56.0582 154.499 56.4881C154.499 56.4881 153.706 56.7336 153.506 57.0816C153.506 57.0816 153.852 57.4773 153.971 57.9888C153.971 57.9888 153.087 57.8796 152.968 58.5413C152.85 59.2029 152.585 58.7527 152.585 59.1415C152.585 59.5303 152.613 59.6873 152.303 59.7487C151.993 59.8101 152.248 60.1375 152.303 60.3559C152.358 60.5743 152.458 61.0721 152.412 61.229C152.412 61.229 151.966 61.2357 151.756 61.2972C151.756 61.2972 151.893 62.2454 151.364 62.3817C150.836 62.5181 151.647 62.7091 151.082 62.8116C150.517 62.9138 150.59 62.9479 149.897 64.1897C149.897 64.1897 150.489 63.8553 151.1 63.4529C151.711 63.0504 151.054 63.1733 152.066 62.1773C153.078 61.1813 152.896 61.1061 152.813 60.6014C152.731 60.0967 152.713 59.6873 153.078 59.2099C153.442 58.7323 153.561 58.1865 154.855 58.2549C154.855 58.2549 154.472 57.3938 153.998 57.1697C153.998 57.1697 154.618 56.7405 155.274 56.6793C155.274 56.6793 154.7 55.9903 153.524 55.3219C153.524 55.3219 154.49 54.4896 154.718 54.0941C154.718 54.0941 154.272 54.1622 153.916 54.0804C153.916 54.0804 154.084 53.6822 154.955 53.1117C154.955 53.1117 155.42 53.562 155.402 54.0326C155.402 54.0326 156.897 53.1732 157.744 53.2687C157.744 53.2687 158.173 54.3465 156.094 56.3657C156.094 56.3657 157.38 56.4885 157.926 56.4134C157.926 56.4134 157.617 57.4094 156.058 57.996C154.499 58.5825 156.395 59.2682 154.8 59.1489C153.205 59.0297 153.697 59.5788 153.743 60.3905C153.789 61.2021 153.843 62.0345 153.807 62.2596C153.807 62.2596 152.531 61.8434 152.558 63.0782C152.585 64.313 151.902 64.5722 151.765 64.6881C151.765 64.6881 151.395 64.3572 150.835 64.1628C150.834 64.164 150.043 65.6669 148.765 66.5448Z" fill="#784B26"/>
<path d="M146.941 51.0671C146.941 51.0671 147.379 50.9955 148.117 51.4559C148.855 51.9162 149.58 50.9648 148.76 50.7191C147.939 50.4733 148.773 50.187 149.511 50.7805C150.25 51.374 150.537 51.0772 150.81 50.8727C151.084 50.6682 151.412 50.5554 150.906 50.2076C150.4 49.8596 151.248 50.0236 151.631 50.2691C152.013 50.5146 151.863 50.7704 151.808 50.8422C151.754 50.914 151.713 51.7119 152.465 50.9651C153.217 50.2182 153.586 49.4711 153.572 49.1027C153.572 49.1027 153.982 49.3585 154.037 49.8291C154.092 50.2998 154.666 49.5733 154.857 49.3175C155.048 49.0616 155.377 48.416 155.336 47.9305C155.336 47.9305 155.842 48.7129 156.594 47.9305C157.345 47.1481 157.017 47.6394 157.92 47.404C158.822 47.1685 159.957 46.5035 160.572 45.7566C161.187 45.0097 161.228 45.5111 162.021 45.3268C162.814 45.1427 164.414 44.0375 164.564 43.4336C164.714 42.83 164.687 42.4616 164.455 42.6661C164.222 42.8706 164.318 42.7071 163.976 42.4921C163.634 42.2773 163.128 42.7683 163.128 42.7683C163.128 42.7683 163.634 43.1571 163.251 43.3208C162.869 43.4845 162.499 44.0269 161.775 43.8222C161.05 43.6175 160.298 44.4872 160.298 44.4872C160.298 44.4872 160.927 45.009 160.08 45.3366C159.232 45.664 159.369 45.7765 158.849 45.4184C158.849 45.4184 157.947 46.5644 157.428 46.7999C157.428 46.7999 157.182 46.7795 157.017 46.5644C157.017 46.5644 156.43 47.2295 156.129 47.3627C156.129 47.3627 155.76 47.0046 155.418 46.892C155.418 46.892 154.707 47.7721 154.105 48.0483C154.105 48.0483 153.927 47.721 153.545 47.4959C153.545 47.4959 153.355 48.6469 152.095 49.3275C152.095 49.3275 152.178 49.0206 151.549 48.6011C151.549 48.6011 149.99 49.9518 149.375 50.0847C148.76 50.2177 149.334 49.7982 149.416 49.6242C149.498 49.4502 149.881 48.8773 149.129 48.6419C148.377 48.4064 148.5 48.8056 148.336 48.8773C148.172 48.9488 148.158 48.7443 147.652 48.8159C147.146 48.8874 147.229 49.1125 147.01 49.1946C146.791 49.2764 145.916 49.0513 145.957 49.6345C145.998 50.2177 146.408 50.6168 145.643 50.9545C144.877 51.2922 145.93 51.2207 146.941 51.0671Z" fill="#AD7D5A"/>
<path d="M150.1 49.4208C150.1 49.4208 150.277 48.684 149.635 48.3259C149.635 48.3259 153.763 47.6916 150.646 46.1157C150.646 46.1157 154.351 45.3482 153.476 44.1614C152.601 42.9744 151.751 43.2405 151.622 43.2609C151.494 43.2813 152.41 42.5753 152.656 42.6674C152.902 42.7596 155.883 43.9056 155.117 42.9233C154.351 41.9409 154.42 42.0024 154.297 41.7158C154.297 41.7158 155.281 41.7158 156.771 43.1688C156.771 43.1688 157.086 42.8414 157.045 42.2479C157.045 42.2479 158.111 42.5445 158.439 42.8618C158.439 42.8618 158.617 42.4934 158.549 42.2887C158.549 42.2887 159.465 42.7797 159.779 43.3017C159.779 43.3017 160.203 42.9333 160.271 42.5138C160.271 42.5138 161.187 42.8925 161.42 43.1789C161.42 43.1789 161.72 42.7797 161.611 42.2069C161.611 42.2069 163.129 42.6571 163.333 41.7158C163.333 41.7158 164.86 42.0468 163.868 42.641C162.593 43.4049 163.739 42.4526 162.431 43.3632C161.417 44.0693 160.85 44.898 160.362 44.7276C160.004 44.6023 159.574 45.6451 159.081 45.1334C158.589 44.6217 158.589 44.8572 158.247 45.3893C157.906 45.9213 157.372 46.4637 157.372 46.4637C157.372 46.4637 157.106 46.3101 156.904 46.1057C156.904 46.1057 156.607 46.5967 156.224 46.9651C156.224 46.9651 155.923 46.566 155.445 46.3205C155.445 46.3205 154.693 47.1902 154.228 47.4869C154.228 47.4869 153.79 47.057 153.325 46.9137C153.325 46.9137 153.257 48.0905 152.341 48.6943C152.341 48.6943 152.15 48.3055 151.562 48.0701C151.562 48.0701 151.098 48.8141 150.1 49.4208Z" fill="#784B26"/>
<path d="M147.928 47.6184C147.928 47.6184 147.426 48.0038 147.75 48.4166C148.073 48.8292 148.091 48.3451 148.502 48.3041C148.912 48.263 153.97 47.3933 149.39 46.0222C149.39 46.0222 149.582 45.8481 150.375 45.7766C151.168 45.7051 154.038 44.9273 152.699 43.9042C151.359 42.8808 150.245 44.2519 151.373 43.0241C152.275 42.0418 151.55 41.5608 151.55 41.5608C151.55 41.5608 148.884 43.3414 148.297 43.6687C147.709 43.9961 146.861 44.6203 147.859 44.9477C148.857 45.275 149.541 43.8631 149.636 44.1802C149.732 44.4974 147.627 45.6638 147.928 46.2062C148.228 46.7486 148.16 47.1989 148.679 47.0964C149.199 46.9942 150.607 47.3626 149.459 47.3215C148.31 47.2805 147.928 47.6184 147.928 47.6184Z" fill="#784B26"/>
<path d="M149.759 45.0714C149.759 45.0714 149.294 45.398 149.91 45.2344C150.525 45.0707 151.755 44.8045 151.523 44.4875C151.29 44.1702 150.47 44.5504 149.759 45.0714Z" fill="black"/>
<path d="M157.88 39.7919C157.88 39.7919 160.232 39.7305 161.202 40.3855C162.173 41.0404 162.638 41.47 162.925 41.5622C162.925 41.5622 162.884 42.4523 161.38 41.818C161.38 41.818 161.462 42.2479 161.298 42.6674C161.298 42.6674 160.737 42.299 160.095 42.1353C160.095 42.1353 159.985 42.473 159.78 42.6674C159.78 42.6674 159.111 41.992 158.359 41.7873C158.359 41.7873 158.208 42.125 158.072 42.2479C158.072 42.2479 157.265 41.7873 156.65 41.7976C156.65 41.7976 156.773 42.2889 156.65 42.4833C156.65 42.4833 154.941 41.1429 153.423 41.3169C153.423 41.3169 154.161 42.3914 154.64 42.9235C154.64 42.9235 151.564 42.6779 152.07 41.0203C152.576 39.3626 152.029 39.779 154.039 39.7907C156.048 39.8025 157.88 39.7919 157.88 39.7919Z" fill="#AD7D5A"/>
<path d="M143.457 44.3712C143.457 44.3712 143.101 44.6608 143.457 44.9066C143.812 45.1521 145.029 44.2723 145.193 44.1494C145.357 44.0265 145.794 44.0472 145.193 44.4974C144.592 44.9476 143.976 45.4387 143.593 45.93C143.593 45.93 145.63 45.3775 146.956 44.2315C148.282 43.0855 146.895 43.8278 149.158 42.7375C151.42 41.6472 152.603 39.8928 151.386 40.0771C150.169 40.2612 149.075 41.6529 148.132 42.185C147.189 42.7171 146.656 42.7886 146.806 42.4816C146.956 42.1747 147.654 42.2976 148.952 41.2538C150.251 40.21 149.964 40.2818 149.978 39.9134C149.991 39.545 149.485 38.6344 151.44 37.6111C153.395 36.5877 159.479 33.0268 159.999 31.8093C159.999 31.8093 158.221 32.0037 155.884 33.7329C153.546 35.4621 152.294 36.2707 151.648 36.4855C151.003 36.7003 151.085 36.557 150.661 37.0586C150.237 37.56 147.927 39.7908 147.503 40.1181C147.079 40.4455 146.956 40.6605 146.92 41.328C146.904 41.632 144.263 43.6209 143.457 44.3712Z" fill="#784B26"/>
<path d="M151.494 39.7344C151.494 39.7344 151.042 39.9439 150.605 39.7344C150.167 39.5249 150.304 38.5834 151.357 38.0206C152.409 37.4578 154.323 36.6187 155.294 36.4958C155.294 36.4958 155.157 37.7136 152.136 38.7367C152.136 38.7367 152.328 39.3708 151.494 39.7344Z" fill="#784B26"/>
<path d="M152.562 38.9424C152.562 38.9424 152.65 39.2419 152.562 39.5155C152.562 39.5155 158.181 40.0579 161.08 36.6401C161.08 36.6401 157.101 37.0085 155.516 37.9601C155.516 37.9601 156.514 36.7116 159.494 35.6781C162.474 34.6447 163.691 33.3655 163.951 32.6597C163.951 32.6597 160.182 33.9797 158.387 33.9797C158.387 33.9797 158.031 33.9693 157.69 34.1637C157.348 34.3581 154.942 36.108 154.299 36.4046C154.299 36.4046 155.652 36.2921 156.131 35.8521C156.131 35.8521 155.19 38.3815 152.562 38.9424Z" fill="#AD7D5A"/>
<path d="M141.803 42.1534C141.803 42.1534 141.078 42.6651 141.379 42.921C141.679 43.1768 142.197 43.2279 143.299 42.307C144.4 41.3862 147.066 39.0939 145.381 39.002C145.381 39.002 143.224 38.869 143.299 40.189C143.374 41.522 141.911 42.0697 141.803 42.1534ZM136.826 41.3756C136.826 41.3756 138.248 42.2043 137.715 42.89C137.715 42.89 142.076 39.1858 140.846 38.3876C139.615 37.5894 138.645 39.0937 138.945 39.247C139.246 39.4006 139.889 39.1141 139.656 39.4006C139.424 39.6872 137.1 41.253 136.826 41.3756ZM135.691 40.1785C135.691 40.1785 136.648 40.465 136.689 40.8742C136.73 41.2834 139.574 38.8686 138.822 37.8558C138.477 37.3914 136.894 37.2008 136.826 38.1116C136.757 39.0224 138.248 38.0194 137.728 38.6744C137.047 39.5331 135.897 40.0352 135.691 40.1785ZM145.925 38.1606C145.925 38.1606 145.316 38.6026 145.863 38.8688C146.41 39.135 146.765 38.7152 147.039 38.4697C147.312 38.2242 148.666 37.2315 148.98 36.5972C149.295 35.9629 149.759 35.7685 150.252 35.4409C150.744 35.1135 154.217 33.3841 156.349 31.4706C158.482 29.557 157.593 30.0483 159.808 28.8202C162.023 27.5924 163.472 26.4668 163.937 25.1365C163.937 25.1365 162.911 25.4742 162.009 26.0574C161.107 26.6406 159.07 27.9198 158.66 28.0935C158.249 28.2673 157.675 28.2982 157.374 28.6153C157.074 28.9326 157.101 29.311 156.035 30.1911C154.968 31.0712 149.459 34.9594 148.789 35.5119C148.119 36.0651 145.925 38.1606 145.925 38.1606Z" fill="#784B26"/>
<path d="M141.493 39.4488C141.493 39.4488 142.095 39.1171 143.225 39.1944C144.355 39.2714 148.821 34.9466 150.115 34.0735C151.409 33.2004 155.456 30.2806 156.003 29.7485C156.55 29.2164 156.641 28.6433 157.115 28.3296C157.589 28.0159 158.027 28.0567 159.12 27.4291C160.214 26.8015 165.464 23.6635 165.154 21.8354C165.154 21.8354 157.334 26.5286 155.529 28.0567C153.725 29.5848 148.712 33.0502 147.818 33.6096C146.925 34.169 146.214 35.1377 144.719 36.3518C143.225 37.566 141.749 38.5891 141.493 39.4488Z" fill="#AD7D5A"/>
<path d="M139.852 37.7856C139.852 37.7856 141.299 37.6375 141.492 38.3451C141.492 38.3451 144.591 36.2167 145.302 35.3436C146.013 34.4705 145.065 34.9752 146.833 33.8155C148.601 32.6559 154.471 28.5492 155.309 27.8124C156.148 27.0756 157.734 26.107 159.01 25.2475C160.286 24.3881 165.281 21.9459 164.715 19.9402C164.715 19.9402 161.051 22.3959 160.231 22.9282C159.411 23.4603 159.065 23.16 158.226 23.815C157.387 24.4699 155.546 25.7796 155.218 26.1888C154.89 26.598 152.083 28.7537 150.716 29.6679C149.349 30.582 146.286 32.3556 144.81 33.6382C143.333 34.9205 140.471 37.2946 139.852 37.7856Z" fill="#AD7D5A"/>
<path d="M135.342 37.3654C135.342 37.3654 136.074 37.376 136.293 37.6626C136.293 37.6626 137.646 36.4753 139.086 37.6486C139.086 37.6486 144.373 34.0741 144.901 33.1736C145.43 32.2731 146.287 32.2594 148.346 30.7587C150.406 29.258 151.7 28.6304 153.068 27.5662C154.435 26.5021 155.583 25.3014 156.568 24.6603C157.552 24.019 160.031 22.3954 159.612 20.9902C159.612 20.9902 157.607 22.1362 156.294 23.5688C154.982 25.0014 155.091 23.7735 153.761 24.974C152.43 26.1747 150.37 27.8118 148.657 28.6578C146.943 29.5038 147.982 29.4082 146.743 30.1995C145.503 30.9908 145.594 30.8682 145.138 30.9771C144.683 31.0863 143.99 31.4137 143.534 31.9458C143.078 32.4778 141.857 33.201 140.527 33.9514C139.196 34.7017 135.924 36.6493 135.342 37.3654Z" fill="#AD7D5A"/>
<path d="M136.936 34.6224C136.936 34.6224 136.649 34.0289 137.154 33.6093C137.66 33.1898 138.576 32.0846 138.727 31.3889C138.877 30.6931 138.768 30.8057 140.23 30.2018C141.693 29.5982 145.015 28.0428 146.888 26.8865C148.761 25.7301 151.605 23.868 152.193 23.4177C152.781 22.9675 154.207 21.9648 154.786 21.4941C154.786 21.4941 155.064 22.2821 154.435 22.8245C153.806 23.3669 151.386 25.0653 150.99 25.3315C150.593 25.5977 148.365 27.0914 147.681 27.4701C146.998 27.8489 145.303 28.7083 144.701 29.2097C144.1 29.711 144.177 29.8646 141.493 31.1743C138.809 32.484 138.685 32.6172 138.768 32.7194C138.85 32.8217 140.053 32.2999 140.627 31.9622C141.201 31.6245 143.402 30.6218 144.058 30.0998C144.715 29.5781 145.822 28.7594 146.3 28.4933C146.779 28.2271 150.744 25.8533 151.878 25.0142C153.013 24.1752 153.327 23.8989 153.574 24.0422C153.82 24.1855 154.216 24.1958 153.71 24.6765C153.205 25.1575 151.591 26.5697 150.976 26.9789C150.361 27.3881 148.433 28.5343 147.9 28.8105C147.367 29.0868 147.162 29.5985 146.861 29.8133C146.56 30.0281 145.685 30.6523 144.619 30.8978C143.553 31.1433 143.361 31.9416 142.664 32.3918C141.967 32.8421 137.005 35.5128 136.855 35.6457C136.855 35.6457 137.155 35.3385 136.936 34.6224Z" fill="#AD7D5A"/>
<path d="M154.105 23.48C154.105 23.48 153.831 23.7222 153.982 23.8587C154.18 24.0387 154.87 24.5238 155.731 23.6694C156.593 22.815 158.907 20.9526 159.657 20.5127C160.407 20.0727 160.763 19.6532 160.735 19.0494C160.735 19.0494 157.181 20.9425 154.105 23.48ZM158.999 23.1526C158.999 23.1526 159.546 22.2419 160.886 21.3824C162.225 20.523 164.237 19.2716 164.508 18.9675C164.508 18.9675 164.987 19.5099 163.934 20.175C162.882 20.84 160.831 22.2011 160.585 22.3955C160.339 22.5899 159.929 22.8865 158.999 23.1526Z" fill="#AD7D5A"/>
<path d="M131.754 33.0671C131.754 33.0671 130.263 33.8654 130.797 34.3667C131.33 34.8681 132.123 34.7147 132.451 34.5714C132.779 34.4282 133.408 34.2748 133.504 34.2441C133.599 34.2134 134.898 33.8449 135.226 33.2413C135.554 32.6377 136.429 31.9417 137.126 31.4404C137.824 30.939 138.07 30.4377 137.974 30.0796C137.974 30.0793 132.105 32.8516 131.754 33.0671ZM122.894 39.9537C122.894 39.9537 123.924 39.3414 125.369 39.7285C125.369 39.7285 125.301 39.3765 125.082 39.1943C125.082 39.1943 126.832 38.7359 127.215 37.9583C127.597 37.1807 127.68 37.3444 128.021 37.1193C128.363 36.8941 130.728 34.9909 130.455 34.5815C130.182 34.1721 130.127 33.6402 129.922 33.4252C129.922 33.4252 129.429 34.1006 127.133 35.2158C124.836 36.3311 122.279 37.1702 120.42 39.6772C118.561 42.1842 118.752 43.6372 121.021 44.2715C121.021 44.2715 122.621 43.2688 126.517 43.6165C130.414 43.9645 131.74 45.4276 131.986 45.6938C132.232 45.9599 133.025 46.9216 132.259 48.5485C132.259 48.5485 133.039 48.8862 133.107 48.1393C133.176 47.3925 133.217 47.5662 133.394 47.6788C133.572 47.7913 133.791 47.8117 133.709 47.2389C133.627 46.6657 133.353 45.3868 132.998 44.9469C132.642 44.507 133.039 44.7014 133.271 44.7933C133.503 44.8854 134.324 45.5505 133.832 44.3226C133.339 43.0948 133.217 43.6984 133.203 43.7598C133.189 43.8213 133.093 44.1282 132.027 43.33C130.961 42.5318 129.99 42.143 129.265 41.9385C128.541 41.734 129.047 41.7337 129.47 41.5804C129.894 41.4268 130.468 41.3349 130.66 40.8642C130.66 40.8642 130.236 40.9665 129.457 40.6902C128.677 40.414 127.119 40.3833 125.861 41.3246C125.861 41.3246 126.258 39.8716 125.109 39.9534C123.961 40.0353 123.154 40.0045 121.937 40.9665C121.937 40.9665 121.869 39.5032 123.017 38.746C124.166 37.9888 124.015 38.4493 124.658 38.2549C125.301 38.0605 125.355 37.4159 125.082 37.2112C125.082 37.2112 126.586 37.467 129.115 35.3694C129.115 35.3694 127.756 37.15 126.104 37.5081C126.104 37.5081 125.843 38.4558 124.343 38.6644C122.844 38.873 122.881 39.7389 122.894 39.9537Z" fill="#AD7D5A"/>
<path d="M118.578 48.6262C118.578 48.6262 119.316 44.217 123.445 43.8978C127.063 43.6182 128.212 44.0684 128.932 44.3003C129.652 44.5321 131.411 45.0507 130.727 45.6169C130.044 46.183 129.652 46.0808 129.652 46.0808C129.652 46.0808 130.445 45.2007 129.725 45.0507C129.005 44.9007 128.941 45.3373 128.841 45.7057C128.74 46.0741 128.695 46.5174 128.339 46.8039C128.339 46.8039 127.975 46.381 127.455 46.7494C126.935 47.1178 127.382 47.1315 127.592 47.0701C127.801 47.0087 128.075 46.8995 128.02 47.2201C127.966 47.5407 127.674 48.0932 126.817 48.5434C125.96 48.9937 126.006 48.9663 124.985 49.13C123.964 49.2937 123.016 49.6962 121.713 50.815C120.41 51.9337 118.984 51.5605 118.696 50.3103C118.45 49.2382 118.578 48.6262 118.578 48.6262Z" fill="#784B26"/>
<path d="M123.305 48.4883C123.305 48.4883 123.701 47.6185 122.99 47.2194C122.99 47.2194 120.816 47.5921 120.174 46.9328C120.174 46.9328 122.539 46.81 124.002 46.2371C125.465 45.664 125.027 45.2651 124.521 45.1729C124.016 45.0808 123.086 45.3059 122.99 45.7664C122.99 45.7664 122.703 45.2754 123.072 44.9478C123.441 44.6202 124.016 44.559 124.535 44.7124C125.055 44.866 125.519 45.0911 127.228 44.2007C127.228 44.2007 128.213 44.4258 128.24 45.0908C128.267 45.7559 128.172 46.0321 128.09 46.1346C128.007 46.2368 127.885 46.4312 127.679 46.4108C127.474 46.3904 127.214 46.3393 126.955 46.7996C126.695 47.2602 126.539 47.6591 126.104 47.966C126.104 47.966 126.613 46.5335 125.355 46.1958C125.355 46.1958 124.316 46.8097 123.523 46.8404C123.523 46.8409 124.535 47.7822 123.305 48.4883Z" fill="black"/>
<path d="M125.574 45.8586C125.574 45.8586 125.095 45.3316 125.724 45.2754C126.353 45.2193 127.187 45.6796 127.023 46.0684C126.859 46.4572 126.121 46.4418 125.574 45.8586Z" fill="#784B26"/>
<path d="M161.106 38.8702C161.106 38.8702 159.958 39.1975 161.024 39.9036C162.09 40.6097 162.61 41.2236 163.389 41.4283C164.168 41.6331 164.975 41.9194 164.961 42.6972C164.948 43.4748 164.797 43.7818 164.374 44.3139C163.95 44.8459 164.606 45.0814 165.166 44.7744C165.727 44.4675 166.205 44.3038 166.575 44.0887C166.944 43.8737 167.559 43.9047 166.998 44.191C166.438 44.4775 165.85 44.6515 166.575 44.6719C167.299 44.6923 171.66 44.7742 172.576 44.4775C173.492 44.1809 174.682 44.0887 174.791 42.9017C174.791 42.9017 174.832 42.3747 175.174 42.1548C175.516 41.9347 175.748 41.4283 175.249 41.7711C174.75 42.1138 174.367 42.2878 174.271 42.1855C174.176 42.0833 174.148 42.0115 174.511 41.8428C174.873 41.6741 175.078 41.8325 175.413 41.3364C175.748 40.8401 175.715 40.9219 175.537 40.7328C175.358 40.5435 174.982 40.4055 175.167 40.165C175.352 39.9245 175.536 39.2083 174.736 39.6279C173.937 40.0474 172.362 41.1286 171.633 41.2992C170.904 41.4699 170.348 41.6916 169.364 41.8911C168.379 42.0905 167.769 42.3019 166.72 42.8818C165.672 43.4616 165.745 42.5616 165.928 42.4385C165.928 42.4385 166.329 43.141 167.395 42.2268C168.461 41.3127 168.114 42.1697 170.722 41.3127C173.329 40.4556 172.69 40.3167 173.711 39.7846C174.732 39.2525 175.698 39.2321 174.987 38.5227C174.276 37.8132 174.194 37.7518 173.274 38.5227C172.353 39.2935 169.81 40.5351 168.288 40.5691C168.288 40.5691 174.167 38.0314 173.565 37.6632C172.964 37.2948 172.317 36.9675 171.906 36.8787C171.496 36.7899 171.387 36.6876 170.439 37.1105C169.491 37.5334 169.336 37.6359 169.063 37.663C168.79 37.6901 167.997 37.8471 166.876 38.4269C165.754 39.0067 165.153 39.2386 164.405 39.6958C164.405 39.6958 164.925 38.6453 167.24 37.9495C169.555 37.2538 170.74 36.6125 170.485 36.4966C170.23 36.3807 169.655 36.2851 169.218 36.3533C168.78 36.4215 168.908 36.3192 167.495 36.8787C166.083 37.4381 166.684 37.3152 165.545 37.5607C164.405 37.8063 163.941 38.0587 163.376 38.2975C163.376 38.2975 163.606 37.9903 164.374 37.7091C164.768 37.5648 163.942 37.416 165.037 37.3716C165.126 37.368 165.235 37.3939 165.344 37.363C166.759 36.9571 168.306 36.4011 168.069 36.3603C167.832 36.3192 166.456 36.1762 165.062 36.8172C163.667 37.4585 164.305 37.2401 163.813 37.3426C163.321 37.4448 162.282 38.0998 161.935 38.3794C161.589 38.6587 161.106 38.8702 161.106 38.8702Z" fill="white"/>
<path d="M126.676 45.223C126.676 45.223 127.222 45.3867 127.359 45.7705C127.496 46.1542 127.838 45.6018 127.824 45.4278C127.81 45.2538 127.475 44.4865 126.88 44.8446C126.286 45.2026 126.584 45.1899 126.676 45.223Z" fill="#784B26"/>
<path d="M125.15 52.8063C125.15 52.8063 126.317 52.2574 127.297 52.3253C127.297 52.3253 126.914 50.9439 127.597 51.1793C128.281 51.4148 128.089 51.3226 128.226 51.3123C128.226 51.3123 128.267 50.4015 128.089 50.0434C128.089 50.0434 128.786 50.2071 129.497 50.2174C129.497 50.2174 128.827 48.9077 129.566 48.0073C129.566 48.0073 129.971 48.8667 130.883 49.0817C130.883 49.0817 130.887 48.7133 130.883 48.3245C130.883 48.3245 131.425 48.2631 131.849 48.4882C132.273 48.7133 132.628 46.1144 131.37 45.5413C131.37 45.5413 131.07 46.0323 129.894 46.2781C128.718 46.5236 128.728 46.7597 128.244 47.6446C127.761 48.5295 127.337 48.5396 126.353 49.1739C125.369 49.8082 124.77 51.0975 124.714 51.2101C124.714 51.2101 125.232 51.8444 125.15 52.8063Z" fill="#AD7D5A"/>
<path d="M164.373 37.7088C164.8 37.6339 163.941 37.4158 165.036 37.3714C165.125 37.3678 165.234 37.3937 165.343 37.3627C166.758 36.9569 168.305 36.4008 168.068 36.36C167.831 36.319 166.455 36.1759 165.061 36.817C163.666 37.4583 164.304 37.2399 163.812 37.3423C163.32 37.4446 162.281 38.0995 161.934 38.3791C161.588 38.6587 161.105 38.8702 161.105 38.8702C161.105 38.8702 159.957 39.1975 161.023 39.9036C162.089 40.6097 162.609 41.2236 163.388 41.4283C164.167 41.6331 164.974 41.9194 164.96 42.6972C164.947 43.4748 164.796 43.7818 164.373 44.3139C163.949 44.8459 164.605 45.0814 165.166 44.7744C165.726 44.4675 166.204 44.3038 166.574 44.0887C166.943 43.8737 167.558 43.9047 166.997 44.191C166.437 44.4775 165.849 44.6515 166.574 44.6719C167.298 44.6923 171.659 44.7742 172.575 44.4775C173.491 44.1809 174.681 44.0887 174.79 42.9017C174.79 42.9017 174.831 42.3747 175.173 42.1548C175.515 41.9347 175.747 41.4283 175.248 41.7711C174.749 42.1138 174.366 42.2878 174.27 42.1855C174.175 42.0833 174.147 42.0115 174.51 41.8428C174.872 41.6741 175.077 41.8325 175.412 41.3364C175.747 40.8401 175.714 40.9219 175.536 40.7328C175.444 40.6356 175.301 40.5521 175.208 40.4611C175.208 40.4611 174.945 40.2315 174.64 40.4259C174.334 40.6203 172.995 41.1864 172.457 41.2512C171.919 41.316 171.363 41.5445 170.397 42.0151C169.431 42.4858 167.827 43.4443 167.572 42.5539C167.572 42.5539 166.872 42.8035 166.719 42.8813C165.642 43.4304 165.736 42.6511 165.926 42.438C165.926 42.438 165.361 43.0723 165.384 42.4959C165.407 41.9194 165.771 42.0183 166.4 41.8342C167.029 41.6501 168.022 41.2407 167.612 40.8996C167.202 40.5586 166.769 41.2383 166.313 41.4459C165.858 41.6535 164.946 41.8375 164.805 41.1759C164.664 40.5142 164.668 40.0536 163.433 39.9821C162.199 39.9106 162.244 39.1397 162.581 38.8087C162.918 38.4778 163.215 37.9116 164.373 37.7088Z" fill="#CCCCCC"/>
<path d="M168.297 43.6926C168.297 43.6926 170.22 42.8058 171.988 42.3896C173.756 41.9735 172.371 42.4441 172.07 42.5396C171.769 42.6352 169.017 43.5424 168.37 43.8426C167.722 44.1428 167.856 43.886 168.297 43.6926ZM168.743 44.0814C168.743 44.0814 170.903 43.3652 171.304 43.6652C171.705 43.9655 171.377 43.8152 170.903 43.8836C170.429 43.9518 169.126 44.1702 168.78 44.1633C168.433 44.1565 168.743 44.0814 168.743 44.0814ZM172.207 43.3312C172.207 43.3312 172.617 43.256 172.663 43.4063C172.708 43.5563 172.48 43.5769 172.252 43.5496C172.024 43.5222 171.824 43.3924 172.207 43.3312Z" fill="black"/>
<path d="M115.155 62.1521C115.155 62.1521 115.074 60.2556 116.031 59.2937C116.988 58.3317 121.636 53.4945 122.347 52.1424C122.347 52.1424 122.949 52.5605 122.976 53.328C122.976 53.328 123.755 51.9859 124.371 51.4802C124.371 51.4802 124.917 52.0387 124.822 53.154C124.822 53.154 125.943 52.5605 127.679 52.5504C127.679 52.5504 127.037 53.3076 127.009 53.7475C127.009 53.7475 129.416 53.4813 130.673 53.6861C130.673 53.6861 127.365 55.5381 128.294 55.7018C129.224 55.8655 130.195 55.6915 130.195 55.6915C130.195 55.6915 129.142 56.766 127.46 56.9808C127.46 56.9808 129.593 56.9501 130.017 57.431C130.017 57.431 127.939 57.7483 126.271 59.0169C126.271 59.0169 126.115 58.9454 126.104 58.4745C126.104 58.4745 126.052 58.8941 125.574 59.2932C125.095 59.6923 123.947 60.5417 123.523 60.9713C123.099 61.4011 122.306 62.2502 121.458 62.2094C121.458 62.2094 121.65 61.5545 121.021 61.35C120.392 61.1453 119.667 61.2885 119.162 61.8309C119.162 61.8309 116.919 61.8617 116.209 61.9639C116.209 61.9639 116.715 61.1556 117.179 61.176C117.644 61.1964 119.517 61.4522 119.681 60.1733C119.845 58.8943 118.478 59.232 118.997 58.4748C119.517 57.7176 119.394 57.7483 119.408 57.6765C119.408 57.6765 118.984 57.912 118.738 58.5873C118.492 59.2627 118.314 59.7845 117.425 60.4598C116.536 61.1352 116.169 61.5441 115.923 62.0148C115.923 62.0153 115.518 62.0717 115.155 62.1521Z" fill="white"/>
<path d="M117.311 61.0055C117.311 61.0055 117.383 60.7463 118.04 60.6371C118.696 60.5279 118.723 60.2143 118.641 60.0777C118.559 59.9411 118.167 59.9414 118.805 59.2183C118.805 59.2183 119.033 59.2797 119.188 59.4571C119.343 59.6344 120.063 61.1762 117.311 61.0055Z" fill="white"/>
<path d="M115.736 59.6664C115.77 60.93 117.426 60.4606 117.426 60.4606C116.836 60.9089 116.475 61.2398 116.228 61.5494C116.337 60.9355 115.294 60.7819 115.294 60.7819C115.38 60.4065 115.517 60.0093 115.736 59.6664ZM121.825 52.9133C122.065 52.5996 122.247 52.3358 122.348 52.1426C122.348 52.1426 122.949 52.5607 122.977 53.3282C122.977 53.3282 123.756 51.9861 124.371 51.4805C124.371 51.4805 124.918 52.0389 124.822 53.1542C124.822 53.1542 125.943 52.5607 127.68 52.5506C127.68 52.5506 127.037 53.3078 127.01 53.7478C127.01 53.7478 129.416 53.4816 130.674 53.6863C130.674 53.6863 127.365 55.5384 128.295 55.7021C129.225 55.8657 130.195 55.6917 130.195 55.6917C130.195 55.6917 129.142 56.7662 127.461 56.981C127.461 56.981 129.593 56.9503 130.017 57.4313C130.017 57.4313 129.41 57.5239 128.589 57.8095C128.589 57.8095 127.976 57.2335 126.198 57.3153C126.198 57.3153 127.581 56.5418 128.677 56.292C128.677 56.292 128.194 55.6577 127.438 56.2375C127.438 56.2375 125.934 55.2007 127.173 54.3206C127.173 54.3206 126.298 54.1365 125.724 54.5457C125.724 54.5457 125.752 53.8363 126.39 53.5157C126.39 53.5157 124.703 53.2428 124.284 54.4843C124.284 54.4843 123.965 53.9726 124.111 53.3928C124.111 53.3928 123.09 53.9798 122.625 54.6449C122.626 54.6451 122.472 53.3839 121.825 52.9133ZM118.557 60.9331C118.255 61.0075 117.849 61.0394 117.312 61.0061C117.312 61.0061 117.358 60.8426 117.706 60.7207C117.706 60.7207 117.805 60.9281 118.557 60.9331Z" fill="#CCCCCC"/>
<path d="M121.623 56.1525C121.623 56.1525 122.389 56.7561 122.662 57.1245C122.662 57.1245 123.359 56.6332 123.619 56.2343C123.619 56.2343 124.166 56.5924 124.357 57.1245C124.357 57.1245 124.74 56.8583 124.822 56.4902C124.822 56.4902 125.787 56.6949 126.104 57.0119C126.104 57.0119 126.252 56.0807 126.104 55.4975C126.104 55.4975 126.777 55.5486 127.187 55.7226C127.187 55.7226 126.806 55.1087 128.753 54.3208C128.753 54.3208 127.281 54.6369 126.722 55.2827C126.722 55.2827 126.094 55.3134 125.82 55.119C125.82 55.119 125.861 56.0603 125.834 56.5106C125.834 56.5106 125.454 56.357 124.714 56.1832C124.714 56.1832 124.535 56.4902 124.412 56.5617C124.412 56.5617 123.947 56.1933 123.742 55.7226C123.742 55.7226 123.031 56.3685 122.758 56.6435C122.758 56.6435 122.088 56.1729 121.623 56.1525Z" fill="black"/>
<path d="M117.22 65.7312C117.22 65.7312 117.52 65.8745 118.231 65.3014C118.942 64.7282 120.952 63.4493 121.143 62.4259C121.335 61.4026 120.501 61.3414 119.844 61.638C119.188 61.9346 119.462 62.5078 119.489 62.6918C119.516 62.8759 119.53 63.5923 118.464 64.585C117.397 65.5778 117.22 65.7312 117.22 65.7312Z" fill="#FDD406"/>
<path d="M116.989 66.0574C116.989 66.0574 115.375 65.3821 116.824 64.6556C118.274 63.9291 118.916 63.7347 119.08 63.1309C119.244 62.527 119.149 62.6295 118.615 62.8853C118.082 63.1412 116.031 64.0621 115.717 63.2026C115.717 63.2026 116.565 63.53 117.617 63.0185C118.67 62.5071 119.531 62.3535 118.862 62.1385C118.192 61.9237 115.772 62.1896 115.375 62.3021C114.979 62.4147 115.075 62.3943 115.006 62.7932C114.938 63.1923 114.487 64.0314 114.323 64.2769C114.158 64.5224 113.762 65.5457 114.5 65.996C115.238 66.4462 116.409 66.4153 116.989 66.0574Z" fill="#FDD406"/>
<path d="M116.36 62.5375C116.36 62.5375 115.991 62.5886 116.059 62.7319C116.128 62.8752 116.224 62.8548 116.36 62.8648C116.497 62.8749 116.702 62.7933 116.729 62.7012C116.756 62.6092 116.497 62.507 116.36 62.5375Z" fill="black"/>
<path d="M116.893 65.6994C116.893 65.6994 116.127 65.331 116.988 64.8604C117.85 64.3898 118.779 63.9395 118.902 63.7451C118.902 63.7449 118.492 64.3281 116.893 65.6994Z" fill="white"/>
</g>
<defs>
<clipPath id="clip0_354_13">
<rect width="180" height="120" fill="white"/>
</clipPath>
</defs>
</svg>
