<svg width="180" height="120" viewBox="0 0 180 120" fill="none" xmlns="http://www.w3.org/2000/svg">
<g clip-path="url(#clip0_909_280811)">
<path d="M180 0H0V120H180V0Z" fill="#0F3296"/>
<path d="M33.6001 0H153.6V120L33.6001 0Z" fill="#FDD406"/>
<path d="M16.1428 0H7.85734L5.29932 7.87279L12.0001 3.00441L18.7008 7.87279L16.1428 0Z" fill="white"/>
<path d="M136.143 120H127.857L127.859 119.996L121.158 115.127H129.441L132 107.25L134.56 115.127H142.842L136.141 119.996L136.143 120Z" fill="white"/>
<path d="M20.2993 22.8728L22.8588 14.9956L16.158 10.1272H24.4406L27.0001 2.25L29.5595 10.1272H37.8421L31.1414 14.9956L33.7008 22.8728L27.0001 18.0044L20.2993 22.8728Z" fill="white"/>
<path d="M35.2993 37.8728L37.8588 29.9956L31.158 25.1272H39.4406L42.0001 17.25L44.5595 25.1272H52.8421L46.1414 29.9956L48.7008 37.8728L42.0001 33.0044L35.2993 37.8728Z" fill="white"/>
<path d="M50.2993 52.8728L52.8588 44.9956L46.158 40.1272H54.4406L57.0001 32.25L59.5595 40.1272H67.8421L61.1414 44.9956L63.7008 52.8728L57.0001 48.0044L50.2993 52.8728Z" fill="white"/>
<path d="M65.2993 67.8728L67.8588 59.9956L61.158 55.1272H69.4406L72.0001 47.25L74.5595 55.1272H82.8421L76.1414 59.9956L78.7008 67.8728L72.0001 63.0044L65.2993 67.8728Z" fill="white"/>
<path d="M80.2993 82.8728L82.8588 74.9956L76.158 70.1272H84.4406L87.0001 62.25L89.5595 70.1272H97.8421L91.1414 74.9956L93.7008 82.8728L87.0001 78.0044L80.2993 82.8728Z" fill="white"/>
<path d="M95.2993 97.8728L97.8588 89.9956L91.158 85.1272H99.4406L102 77.25L104.56 85.1272H112.842L106.141 89.9956L108.701 97.8728L102 93.0044L95.2993 97.8728Z" fill="white"/>
<path d="M110.299 112.873L112.859 104.996L106.158 100.127H114.441L117 92.25L119.56 100.127H127.842L121.141 104.996L123.701 112.873L117 108.004L110.299 112.873Z" fill="white"/>
</g>
<defs>
<clipPath id="clip0_909_280811">
<rect width="180" height="120" fill="white"/>
</clipPath>
</defs>
</svg>
