<svg width="180" height="120" viewBox="0 0 180 120" fill="none" xmlns="http://www.w3.org/2000/svg">
<g clip-path="url(#clip0_307_56291)">
<path d="M180 0H0V120H180V0Z" fill="#0F3296"/>
<path d="M33.5996 0H153.6V120L33.5996 0Z" fill="#FDD406"/>
<path d="M16.1423 0H7.85685L5.29883 7.87279L11.9996 3.00441L18.7003 7.87279L16.1423 0Z" fill="white"/>
<path d="M136.142 120H127.857L127.858 119.996L121.158 115.127H129.44L132 107.25L134.559 115.127H142.842L136.141 119.996L136.142 120Z" fill="white"/>
<path d="M20.2988 22.8728L22.8583 14.9956L16.1575 10.1272H24.4401L26.9996 2.25L29.559 10.1272H37.8416L31.1409 14.9956L33.7003 22.8728L26.9996 18.0044L20.2988 22.8728Z" fill="white"/>
<path d="M35.2988 37.8728L37.8583 29.9956L31.1575 25.1272H39.4401L41.9996 17.25L44.559 25.1272H52.8416L46.1409 29.9956L48.7003 37.8728L41.9996 33.0044L35.2988 37.8728Z" fill="white"/>
<path d="M50.2988 52.8728L52.8583 44.9956L46.1575 40.1272H54.4401L56.9996 32.25L59.559 40.1272H67.8416L61.1409 44.9956L63.7003 52.8728L56.9996 48.0044L50.2988 52.8728Z" fill="white"/>
<path d="M65.2988 67.8728L67.8583 59.9956L61.1575 55.1272H69.4401L71.9996 47.25L74.559 55.1272H82.8416L76.1409 59.9956L78.7003 67.8728L71.9996 63.0044L65.2988 67.8728Z" fill="white"/>
<path d="M80.2988 82.8728L82.8583 74.9956L76.1575 70.1272H84.4401L86.9996 62.25L89.559 70.1272H97.8416L91.1409 74.9956L93.7003 82.8728L86.9996 78.0044L80.2988 82.8728Z" fill="white"/>
<path d="M95.2988 97.8728L97.8583 89.9956L91.1575 85.1272H99.4401L102 77.25L104.559 85.1272H112.842L106.141 89.9956L108.7 97.8728L102 93.0044L95.2988 97.8728Z" fill="white"/>
<path d="M110.299 112.873L112.858 104.996L106.158 100.127H114.44L117 92.25L119.559 100.127H127.842L121.141 104.996L123.7 112.873L117 108.004L110.299 112.873Z" fill="white"/>
</g>
<defs>
<clipPath id="clip0_307_56291">
<rect width="180" height="120" fill="white"/>
</clipPath>
</defs>
</svg>
