<svg width="180" height="120" viewBox="0 0 180 120" fill="none" xmlns="http://www.w3.org/2000/svg">
<g clip-path="url(#clip0_909_216887)">
<path d="M0 0H180V120H0V0Z" fill="#0F3296"/>
<path d="M60 0H120V120H60V0Z" fill="#FDD406"/>
<path d="M89.6405 29.7423C89.6701 29.6615 89.6997 29.5807 89.7293 29.5C89.7589 29.5807 89.7889 29.6615 89.8185 29.7423C91.7405 34.9852 93.7317 40.4168 97.9197 44.59C96.5997 44.155 94.2897 43.765 92.8047 43.8025V66.1675L99.1197 67.105C99.3447 67.0825 99.4197 66.73 99.4197 66.25C100.027 59.305 101.67 53.47 103.56 47.4325C103.601 47.1772 103.859 46.6994 104.141 46.1775C104.77 45.0129 105.516 43.6292 104.242 44.0125C104.18 44.0208 103.947 44.1034 103.65 44.2086C102.872 44.4843 101.657 44.9149 101.94 44.5675C105.3 41.0875 110.212 38.5825 114.982 37.84C115.402 37.735 115.65 37.945 115.275 38.4325C108.945 48.175 103.65 59.6725 103.695 73.315C102.466 73.315 100.362 72.9518 98.2573 72.5883C96.1491 72.2243 94.0393 71.86 92.8047 71.86V87.64H86.6543V71.86C85.4196 71.86 83.3099 72.2243 81.2017 72.5883C79.0967 72.9518 76.9934 73.315 75.7643 73.315C75.8093 59.6725 70.5143 48.175 64.1843 38.4325C63.8093 37.945 64.0568 37.735 64.4768 37.84C69.2468 38.5825 74.1593 41.0875 77.5193 44.5675C77.8016 44.9149 76.5868 44.4843 75.8089 44.2086C75.5121 44.1034 75.279 44.0208 75.2168 44.0125C73.9427 43.6292 74.6895 45.0129 75.318 46.1775C75.5997 46.6994 75.8576 47.1772 75.8993 47.4325C77.7893 53.47 79.4318 59.305 80.0393 66.25C80.0393 66.73 80.1143 67.0825 80.3393 67.105L86.6543 66.1675V43.8025C85.1693 43.765 82.8593 44.155 81.5393 44.59C85.7273 40.4168 87.7185 34.9852 89.6405 29.7423Z" fill="black"/>
</g>
<defs>
<clipPath id="clip0_909_216887">
<rect width="180" height="120" fill="white"/>
</clipPath>
</defs>
</svg>
