<svg width="180" height="120" viewBox="0 0 180 120" fill="none" xmlns="http://www.w3.org/2000/svg">
<g clip-path="url(#clip0_909_308008)">
<path d="M0 0H180V120H0V0Z" fill="#D91C16"/>
<path d="M0 0V120L180 0V120L0 0Z" fill="#1E9A1C"/>
<path d="M166.006 120L90 69.3295L13.9943 120H0V110.67L76.0057 60L0 9.32953V0H13.9943L90 50.6705L166.006 0H180V9.32953L103.994 60L180 110.67V120H166.006Z" fill="white"/>
<path d="M90 94C108.778 94 124 78.7777 124 60C124 41.2223 108.778 26 90 26C71.2223 26 56 41.2223 56 60C56 78.7777 71.2223 94 90 94Z" fill="white"/>
<path d="M89.9998 35.1201L92.1018 38.7601H96.3038L94.2038 42.4001L96.3038 46.0401H92.1018L89.9998 49.6801L87.8978 46.0401H83.6958L85.7958 42.4001L83.6958 38.7601H87.8978L89.9998 35.1201Z" fill="#D91C16"/>
<path d="M111.547 72.4401L107.343 72.4405L105.242 76.0795L103.14 72.4409L98.9375 72.4395L101.039 68.8005L98.9372 65.1601L103.141 65.1597L105.242 61.5207L107.344 65.1593L111.546 65.1607L109.445 68.7997L111.547 72.4401Z" fill="#D91C16"/>
<path d="M68.4531 72.4401L70.5545 68.7997L68.4535 65.1607L72.6558 65.1593L74.7581 61.5207L76.8591 65.1597L81.0625 65.1601L78.9611 68.8005L81.0621 72.4395L76.8598 72.4409L74.7575 76.0795L72.6565 72.4405L68.4531 72.4401Z" fill="#D91C16"/>
<path fill-rule="evenodd" clip-rule="evenodd" d="M90.0002 34.4001L92.31 38.4H96.9275L94.6198 42.4L96.9275 46.4H92.31L90.0002 50.3999L87.6904 46.4H83.0729L85.3806 42.4L83.0729 38.4H87.6904L90.0002 34.4001ZM90.0002 35.8399L88.106 39.12H84.3195L86.2118 42.4L84.3195 45.68H88.106L90.0002 48.9601L91.8944 45.68H95.6809L93.7886 42.4L95.6809 39.12H91.8944L90.0002 35.8399Z" fill="#1E9A1C"/>
<path fill-rule="evenodd" clip-rule="evenodd" d="M112.17 72.8L107.551 72.8004L105.243 76.7993L102.932 72.8007L98.3145 72.7993L100.623 68.8004L98.3142 64.8001L102.933 64.7997L105.242 60.8008L107.552 64.7993L112.17 64.8008L109.861 68.7997L112.17 72.8ZM110.923 72.0801L109.03 68.7996L110.923 65.5204L107.136 65.5192L105.242 62.2404L103.349 65.5196L99.561 65.52L101.455 68.8004L99.5614 72.0797L103.348 72.0809L105.242 75.3597L107.136 72.0804L110.923 72.0801Z" fill="#1E9A1C"/>
<path fill-rule="evenodd" clip-rule="evenodd" d="M67.8301 72.8L70.1392 68.7997L67.8304 64.8008L72.4484 64.7993L74.7586 60.8008L77.0674 64.7997L81.6863 64.8001L79.3772 68.8004L81.6859 72.7993L77.068 72.8007L74.7577 76.7993L72.449 72.8004L67.8301 72.8ZM69.077 72.0801L72.8647 72.0804L74.758 75.3597L76.6524 72.0809L80.4391 72.0797L78.5458 68.8004L80.4394 65.52L76.6517 65.5196L74.7584 62.2404L72.864 65.5192L69.0773 65.5204L70.9705 68.7996L69.077 72.0801Z" fill="#1E9A1C"/>
</g>
<defs>
<clipPath id="clip0_909_308008">
<rect width="180" height="120" fill="white"/>
</clipPath>
</defs>
</svg>
