<svg width="180" height="120" viewBox="0 0 180 120" fill="none" xmlns="http://www.w3.org/2000/svg">
<g clip-path="url(#clip0_909_222992)">
<path d="M180 0H0V120H180V0Z" fill="#FDD406"/>
<path d="M0 8.5V61.6064L180 86.5V58.2872L0 8.5Z" fill="white"/>
<path d="M0 36.5V61.5L180 111.5V86.5L0 36.5Z" fill="black"/>
<path d="M85.9833 94.9533C82.7566 94.525 79.7983 93.4983 77.7433 92.0917C77.3449 91.8183 76.9699 91.595 76.9116 91.595C76.8516 91.595 76.8033 91.8984 76.8033 92.2734C76.8033 93.335 76.3766 93.87 75.3033 94.1484C74.2766 94.415 72.7099 93.8767 71.4399 92.8233C70.1249 91.7317 68.6066 90.8984 67.3216 90.565C66.2633 90.2884 64.8583 90.3333 63.8433 90.6733C63.3716 90.8317 62.8349 91.055 62.6483 91.17C62.4633 91.285 62.2549 91.3784 62.1883 91.3784C62.0083 91.3784 62.0333 90.2367 62.2216 89.8717C62.4699 89.3933 63.0816 88.9217 63.7949 88.6617C64.1549 88.53 64.4499 88.3617 64.4499 88.2867C64.4499 88.2117 64.3283 87.9367 64.1799 87.6784C63.6966 86.8317 63.8949 86.0117 64.7383 85.3667C65.6016 84.7067 67.0633 84.5934 68.3549 85.085C68.6799 85.2084 68.9833 85.31 69.0283 85.31C69.1983 85.31 69.0949 85.0717 68.6266 84.39C68.0866 83.6 67.9799 83.21 68.0466 82.27C68.1333 81.08 69.1033 80.1067 70.2916 80.02C71.2616 79.95 71.8649 80.2767 73.2966 81.64C77.5716 85.7167 82.2199 87.9633 87.6416 88.5717C89.0099 88.725 91.7633 88.6434 93.3783 88.4C98.2566 87.665 103.172 85.2117 107.01 81.5967C108.073 80.595 108.585 80.33 109.457 80.3267C110.215 80.3233 110.747 80.5684 111.29 81.1684C111.785 81.7184 111.953 82.24 111.9 83.075C111.865 83.61 111.778 83.8734 111.46 84.3917C110.99 85.1567 111.07 85.2267 112 84.8667C113.257 84.3767 114.805 84.6033 115.64 85.3967C116.375 86.095 116.445 86.7934 115.873 87.74C115.665 88.0867 115.495 88.4117 115.495 88.4634C115.495 88.5584 115.653 88.6033 116.417 88.7267C117.415 88.8867 117.987 89.6284 117.987 90.7617C117.987 91.1017 117.945 91.3784 117.893 91.3784C117.843 91.3784 117.465 91.24 117.053 91.07C115.89 90.59 115.228 90.4667 113.868 90.475C112.833 90.4817 112.477 90.53 111.755 90.765C110.65 91.1267 109.468 91.8234 108.505 92.6817C107.443 93.6284 106.775 93.9267 105.742 93.9184C104.782 93.9084 104.125 93.63 103.778 93.0817C103.593 92.7883 103.567 92.61 103.612 91.9467C103.642 91.515 103.635 91.1617 103.6 91.1617C103.563 91.1617 103.19 91.3984 102.768 91.69C101.662 92.45 100.957 92.8267 99.6899 93.3283C95.8266 94.8567 90.2516 95.5183 85.9833 94.9533Z" fill="#D91C16"/>
<path d="M87.7499 87.5283C81.3199 86.9111 75.1676 83.562 71.4268 78.2522C67.3651 72.713 66.0851 65.3993 67.3249 58.7122C67.9838 55.6677 69.3131 52.6212 71.5823 50.4532C69.7739 54.287 69.1629 58.6813 70.1273 62.8348C71.6254 71.127 78.6333 78.1465 87.0173 79.3609C90.3339 80.321 93.7651 79.3069 96.9333 78.2786C103.922 75.8155 109.246 69.1814 109.896 61.7654C110.452 57.7524 109.836 53.5798 108.028 49.9461C109.059 50.491 110.359 52.6273 111.126 54.0639C113.794 59.2311 113.915 65.4231 112.345 70.9373C110.215 77.9534 104.851 84.1003 97.76 86.3343C94.542 87.3856 91.1197 87.7062 87.7504 87.5289L87.7499 87.5283Z" fill="#D91C16"/>
<path d="M55.3633 78.3167C54.9419 78.2507 54.4773 78.6653 54.6361 79.0995C54.94 79.5384 55.4635 79.7529 55.9358 79.9628C57.0677 80.4165 58.299 80.5932 59.5143 80.5637C59.0954 80.5627 59.6581 80.568 59.8146 80.5636C60.7769 80.5664 61.7339 80.393 62.6386 80.0669C63.1416 79.89 63.7826 79.7295 63.9887 79.1731C64.1898 78.8107 63.8254 78.4487 63.4577 78.5213C62.9458 78.6331 62.4672 78.8653 61.9595 78.9976C60.864 79.3065 59.7105 79.426 58.5756 79.3328C57.7458 79.2315 56.9416 78.9661 56.174 78.6423C55.9078 78.5249 55.658 78.3536 55.3633 78.3167Z" fill="#D91C16"/>
<path d="M55.8316 76.5867C55.4056 76.5232 55.0387 77.0135 55.2163 77.4046C55.5438 77.8793 56.0942 78.1321 56.609 78.3545C57.5041 78.7126 58.4763 78.8623 59.4382 78.8337C59.0729 78.8327 59.5636 78.838 59.699 78.8336C60.5168 78.8346 61.3304 78.6728 62.0865 78.3617C62.5487 78.1819 63.1147 78.0076 63.3072 77.4989C63.4565 77.2194 63.3427 76.8128 62.9906 76.7909C62.6691 76.7751 62.3918 76.9796 62.0942 77.0715C61.0134 77.5184 59.8239 77.7078 58.6585 77.6072C57.9324 77.5138 57.2387 77.2459 56.5802 76.9354C56.3328 76.8159 56.11 76.6294 55.8316 76.5867Z" fill="#D91C16"/>
<path d="M56.4066 74.9283C56.0415 74.8845 55.7903 75.2965 55.8518 75.6253C55.9063 75.9142 56.1655 76.1083 56.38 76.2854C57.2682 76.9349 58.3938 77.2116 59.4843 77.1754C59.0607 77.1739 60.0525 77.1823 59.7501 77.1742C60.4408 77.1714 61.123 77.0024 61.7444 76.7034C62.1592 76.523 62.6463 76.3141 62.7861 75.8405C62.853 75.6199 62.8948 75.3027 62.6459 75.1788C62.3853 75.0332 62.1265 75.2572 61.8895 75.3481C61.0913 75.7543 60.202 75.9803 59.305 75.9761C58.5298 76.0023 57.7994 75.6763 57.127 75.3249C56.883 75.2006 56.6817 74.9846 56.4066 74.9283Z" fill="#D91C16"/>
<path d="M50.2816 50.45C49.7387 50.9934 50.1533 51.9952 50.1239 52.7072C50.4052 54.9002 50.7547 57.1212 51.5734 59.1855C52.5759 61.2025 54.7052 62.281 55.9956 64.0635C56.4568 64.9227 56.293 65.956 56.3902 66.8958C56.4666 69.4568 56.4429 72.0197 56.3981 74.581C57.5545 75.1613 58.8104 75.7454 60.1407 75.5222C60.9292 75.3339 62.3927 75.2168 62.5567 74.4316C62.493 70.0149 62.4517 65.5966 62.3929 61.1806C61.9445 59.8275 60.5678 59.1273 59.5381 58.2616C58.6882 57.4239 57.8974 56.5224 57.1734 55.5784C56.7365 54.8422 55.0288 54.5769 55.6466 55.8578C56.0088 56.9668 56.9333 57.7928 57.1647 58.9582C57.2153 59.5968 57.9777 60.7713 57.3269 61.1438C56.913 60.4402 56.3132 59.8413 55.5466 59.4843C54.8079 58.9335 53.5868 58.7043 53.3201 57.7314C53.1243 56.3514 52.4176 55.1011 51.5056 54.0671C51.7406 52.8276 51.5064 51.2776 50.435 50.4854L50.2816 50.45Z" fill="#D91C16"/>
<path d="M51.9333 50.6983C51.4395 50.7781 51.4563 51.4073 51.6848 51.7382C51.9278 52.4529 51.994 53.229 51.8624 53.973C52.7403 55.0008 53.4202 56.2302 53.6251 57.5797C53.6301 58.087 54.1639 58.2549 54.5099 58.5055C55.3218 59.0225 56.2346 59.3974 56.9576 60.0443C57.1097 60.207 57.2245 60.3821 57.117 60.0501C57.0042 59.6257 56.9462 59.1572 56.6136 58.836C56.1578 58.3461 55.5886 57.9088 54.9247 57.7594C54.8694 57.0738 54.5429 56.4439 54.2411 55.8374C53.9067 55.2576 53.5574 54.6363 52.9843 54.2603C53.0074 53.244 52.9908 52.1778 52.5534 51.24C52.4251 50.9991 52.2362 50.7128 51.9334 50.6983H51.9333Z" fill="#D91C16"/>
<path d="M53.3149 51.1033C52.9709 51.2055 53.0367 51.6298 53.1456 51.8894C53.3104 52.6087 53.3362 53.3516 53.3228 54.0868C53.9546 54.5868 54.3499 55.3118 54.7097 56.0178C54.9353 56.4895 55.1492 56.9764 55.2357 57.4953C55.7483 57.6651 56.1969 57.9863 56.5975 58.3415C56.4387 57.8611 56.0847 57.4893 55.8468 57.0508C55.5882 56.5946 55.3412 56.1189 55.2317 55.6021C54.7387 55.0758 54.4672 54.3303 54.5749 53.6101C54.597 52.8141 54.3401 51.9915 53.8073 51.3916C53.6731 51.2595 53.513 51.1134 53.3149 51.1033Z" fill="#D91C16"/>
<path d="M54.8866 51.3284C54.6995 51.3614 54.5857 51.5394 54.4855 51.6846C54.4468 51.8301 54.6252 51.9865 54.6535 52.1445C54.8723 52.6932 54.9549 53.295 54.8896 53.8822C54.8752 54.2991 55.0244 54.7065 55.2369 55.0596C55.2982 54.7992 55.5396 54.6119 55.8013 54.5862C55.8965 54.5695 56.0364 54.6176 55.981 54.4725C55.9145 53.6749 55.793 52.8728 55.5142 52.1193C55.4061 51.8501 55.2835 51.5668 55.0503 51.3826C55.003 51.3489 54.9464 51.3201 54.8866 51.3284Z" fill="#D91C16"/>
<path d="M124.69 78.3167C125.111 78.2507 125.576 78.6653 125.417 79.0995C125.113 79.5384 124.59 79.7529 124.117 79.9628C122.985 80.4165 121.754 80.5932 120.539 80.5637C120.958 80.5627 120.395 80.568 120.239 80.5636C119.276 80.5664 118.319 80.393 117.415 80.0669C116.912 79.89 116.271 79.7295 116.064 79.1731C115.863 78.8107 116.228 78.4487 116.595 78.5213C117.107 78.6331 117.586 78.8653 118.094 78.9976C119.189 79.3065 120.343 79.426 121.478 79.3328C122.307 79.2315 123.112 78.9661 123.879 78.6423C124.145 78.5249 124.395 78.3536 124.69 78.3167Z" fill="#D91C16"/>
<path d="M124.222 76.5867C124.648 76.5232 125.015 77.0135 124.837 77.4046C124.509 77.8793 123.959 78.1321 123.444 78.3545C122.549 78.7126 121.577 78.8623 120.615 78.8337C120.98 78.8327 120.49 78.838 120.354 78.8336C119.536 78.8346 118.723 78.6728 117.967 78.3617C117.504 78.1819 116.938 78.0076 116.746 77.4989C116.597 77.2194 116.711 76.8128 117.063 76.7909C117.384 76.7751 117.661 76.9796 117.959 77.0715C119.04 77.5184 120.229 77.7078 121.395 77.6072C122.121 77.5138 122.814 77.2459 123.473 76.9354C123.72 76.8159 123.943 76.6294 124.222 76.5867Z" fill="#D91C16"/>
<path d="M123.647 74.9283C124.012 74.8845 124.263 75.2965 124.201 75.6253C124.147 75.9142 123.888 76.1083 123.673 76.2854C122.785 76.9349 121.659 77.2116 120.569 77.1754C120.992 77.1739 120.001 77.1823 120.303 77.1742C119.612 77.1714 118.93 77.0024 118.309 76.7034C117.894 76.523 117.407 76.3141 117.267 75.8405C117.2 75.6199 117.158 75.3027 117.407 75.1788C117.668 75.0332 117.927 75.2572 118.164 75.3481C118.962 75.7543 119.851 75.9803 120.748 75.9761C121.523 76.0023 122.254 75.6763 122.926 75.3249C123.17 75.2006 123.371 74.9846 123.647 74.9283Z" fill="#D91C16"/>
<path d="M129.772 50.45C130.315 50.9934 129.9 51.9952 129.929 52.7072C129.648 54.9002 129.298 57.1212 128.48 59.1855C127.477 61.2025 125.348 62.281 124.058 64.0635C123.596 64.9227 123.76 65.956 123.663 66.8958C123.587 69.4568 123.61 72.0197 123.655 74.581C122.499 75.1613 121.243 75.7454 119.912 75.5222C119.124 75.3339 117.66 75.2168 117.496 74.4316C117.56 70.0149 117.602 65.5966 117.66 61.1806C118.109 59.8275 119.485 59.1273 120.515 58.2616C121.365 57.4239 122.156 56.5224 122.88 55.5784C123.317 54.8422 125.024 54.5769 124.407 55.8578C124.044 56.9668 123.12 57.7928 122.888 58.9582C122.838 59.5968 122.076 60.7713 122.726 61.1438C123.14 60.4402 123.74 59.8413 124.507 59.4843C125.245 58.9335 126.466 58.7043 126.733 57.7314C126.929 56.3514 127.636 55.1011 128.548 54.0671C128.313 52.8276 128.547 51.2776 129.618 50.4854L129.772 50.45Z" fill="#D91C16"/>
<path d="M128.12 50.6983C128.614 50.7781 128.597 51.4073 128.368 51.7382C128.125 52.4529 128.059 53.229 128.191 53.973C127.313 55.0008 126.633 56.2302 126.428 57.5797C126.423 58.087 125.889 58.2549 125.543 58.5055C124.731 59.0225 123.819 59.3974 123.096 60.0443C122.943 60.207 122.829 60.3821 122.936 60.0501C123.049 59.6257 123.107 59.1572 123.44 58.836C123.895 58.3461 124.465 57.9088 125.128 57.7594C125.184 57.0738 125.51 56.4439 125.812 55.8374C126.147 55.2576 126.496 54.6363 127.069 54.2603C127.046 53.244 127.062 52.1778 127.5 51.24C127.628 50.9991 127.817 50.7128 128.12 50.6983H128.12Z" fill="#D91C16"/>
<path d="M126.738 51.1033C127.082 51.2055 127.017 51.6298 126.908 51.8894C126.743 52.6087 126.717 53.3516 126.73 54.0868C126.099 54.5868 125.703 55.3118 125.343 56.0178C125.118 56.4895 124.904 56.9764 124.818 57.4953C124.305 57.6651 123.856 57.9863 123.456 58.3415C123.614 57.8611 123.968 57.4893 124.206 57.0508C124.465 56.5946 124.712 56.1189 124.821 55.6021C125.314 55.0758 125.586 54.3303 125.478 53.6101C125.456 52.8141 125.713 51.9915 126.246 51.3916C126.38 51.2595 126.54 51.1134 126.738 51.1033Z" fill="#D91C16"/>
<path d="M125.167 51.3284C125.354 51.3614 125.467 51.5394 125.568 51.6846C125.606 51.8301 125.428 51.9865 125.4 52.1445C125.181 52.6932 125.098 53.295 125.164 53.8822C125.178 54.2991 125.029 54.7065 124.816 55.0596C124.755 54.7992 124.514 54.6119 124.252 54.5862C124.157 54.5695 124.017 54.6176 124.072 54.4725C124.139 53.6749 124.26 52.8728 124.539 52.1193C124.647 51.8501 124.77 51.5668 125.003 51.3826C125.05 51.3489 125.107 51.3201 125.167 51.3284Z" fill="#D91C16"/>
<path d="M89.3049 79.33C87.0561 79.1159 85.0271 77.4767 84.3334 75.33C84.3708 74.9602 84.8312 75.5369 85.0487 75.5757C85.4571 75.8025 85.8987 75.9891 86.3689 76.018C86.9617 76.2729 87.3283 76.8571 87.8942 77.1618C88.1569 77.3665 89.0866 77.7687 88.9139 77.1178C88.696 76.7778 88.5462 76.3471 88.7338 75.9576C89.0491 75.2659 89.5341 74.6636 90.0222 74.0866C90.381 73.9666 90.6212 74.6743 90.8778 74.9127C91.233 75.4591 91.6612 76.1259 91.4523 76.8047C91.249 77.0562 91.1154 77.8126 91.6591 77.5584C92.3294 77.2635 92.8784 76.7681 93.4343 76.3054C93.9207 75.9657 94.5433 75.9417 95.0531 75.6438C95.2893 75.5839 95.7815 75.1114 95.8841 75.3734C95.6048 76.1213 95.1371 76.7912 94.6371 77.4086C93.8273 78.3336 92.7317 79.0293 91.5061 79.2255C90.7817 79.3582 90.0384 79.386 89.3049 79.33Z" fill="#D91C16"/>
<path d="M91.9483 76.7034C91.9978 76.252 91.895 75.7911 91.6644 75.3809C91.3106 74.6599 90.8109 74.0198 90.3235 73.3874C89.8639 73.1182 89.609 73.9971 89.3034 74.2493C88.8273 74.9621 88.2295 75.692 88.2006 76.5886C87.9327 77.0055 87.4332 76.2484 87.2179 75.9993C86.8067 75.4175 86.4953 74.7292 86.5463 74.0015C86.4976 72.8289 86.7225 71.6613 87.1497 70.5713C87.4721 69.6409 87.9956 68.737 87.9424 67.7205C87.9798 66.9554 87.8245 66.1108 87.2047 65.5963C86.615 65.1337 87.5866 65.0351 87.8952 65.275C88.4233 65.3104 88.709 66.183 89.1914 65.967C89.3836 65.5112 89.4218 64.9675 89.818 64.6121C90.207 64.0794 90.6135 64.8381 90.7466 65.1934C91.021 65.5055 90.7311 66.2778 91.1769 66.2981C91.7112 65.9236 92.0923 65.2943 92.7755 65.1573C93.0526 64.9993 93.5261 65.1362 93.1607 65.4548C92.6551 65.9288 92.223 66.5215 92.131 67.2266C91.9763 68.1112 92.1975 69.0083 92.583 69.8049C93.3242 71.37 93.8973 73.1376 93.5224 74.8789C93.3485 75.6529 92.8227 76.3198 92.1838 76.7691C92.1031 76.8179 91.9755 76.8145 91.9483 76.7034Z" fill="#D91C16"/>
<path d="M91.1483 64.9383C90.9056 64.501 90.611 64.07 90.2028 63.7726C89.8059 63.7718 89.561 64.2723 89.2914 64.5346C89.1024 64.8863 88.8728 65.4744 88.4072 65.0145C87.6665 64.5824 87.5355 63.6354 87.5402 62.8549C87.4936 61.5897 88.003 60.4092 88.4556 59.257C88.7435 58.5358 88.6726 57.7239 88.4969 56.9847C88.2758 56.1361 87.5947 55.5475 87.0703 54.8855C87.1059 54.6295 87.7761 54.7694 88.0283 54.8181C88.5881 54.96 88.9227 55.4556 89.34 55.8057C89.637 55.7158 89.5158 55.1158 89.654 54.8336C89.6642 54.4365 90.1928 53.9131 90.4108 54.4815C90.7373 54.8428 90.4004 55.5589 90.8222 55.7839C91.2241 55.6351 91.4224 55.1959 91.8 54.9973C92.1716 54.7439 92.6963 54.7156 93.0963 54.9145C93.2371 55.2833 92.6563 55.5903 92.4881 55.9107C91.8127 56.745 91.5755 57.8957 91.8647 58.9294C92.094 59.7402 92.5003 60.497 92.6405 61.3351C92.8093 62.2771 92.8037 63.2666 92.5598 64.1949C92.4141 64.7585 91.9261 65.1349 91.4222 65.369C91.2979 65.2533 91.2323 65.0833 91.1483 64.9385L91.1483 64.9383Z" fill="#D91C16"/>
<path d="M88.6283 54.4817C88.0683 54.0717 87.8833 53.68 87.8833 52.905C87.8833 52.5083 87.9566 52.2933 88.2183 51.9333C88.6033 51.4 88.5333 51.2317 87.9883 51.3883C87.1116 51.64 86.6933 51.41 86.6633 50.6633C86.6499 50.2983 86.7266 50.1433 87.2183 49.5533C87.6116 49.08 87.7549 48.8317 87.6766 48.7533C87.5999 48.6767 87.1349 49.08 86.1799 50.0517C85.4183 50.8267 84.5616 51.6183 84.2766 51.8117C82.6366 52.9183 81.0699 53.09 80.3549 52.2383C79.9883 51.8033 80.0083 51.5583 80.4316 51.295C80.6266 51.175 80.9549 50.8983 81.1633 50.68C81.6549 50.1683 83.1199 49.1117 83.8466 48.745C84.4366 48.4467 84.5766 48.245 84.1933 48.245C83.6966 48.245 82.1033 49.2817 80.8949 50.3917C80.5399 50.72 80.0283 51.085 79.7599 51.2033C79.1566 51.47 77.9716 51.5683 77.4449 51.395C77.0733 51.2717 76.3949 50.6317 76.3949 50.4033C76.3949 50.3433 76.5499 50.21 76.7383 50.1083C76.9266 50.0083 77.2649 49.7633 77.4883 49.5683C78.4549 48.72 80.2866 47.8467 81.7399 47.5417C82.2016 47.445 82.0316 47.2117 81.5166 47.235C80.5183 47.2783 78.5366 48.2067 77.3533 49.1833C75.9666 50.3267 73.8749 50.2183 73.2016 48.9683C73.0849 48.7533 73.0166 48.5517 73.0499 48.52C73.0816 48.4883 73.4933 48.365 73.9649 48.245C74.4749 48.1167 75.4849 47.6983 76.4499 47.2167C77.9683 46.46 78.4183 46.2983 79.4633 46.13C79.9333 46.055 79.9583 45.825 79.5016 45.7717C78.9133 45.7017 78.0116 45.9967 76.4183 46.78C74.3716 47.7867 73.7983 47.96 72.7199 47.8967C71.7366 47.8367 71.1816 47.585 70.3833 46.83C69.8616 46.335 69.1216 45.0783 69.2666 44.9333C69.3016 44.8983 69.5416 44.9333 69.7999 45.0083C70.0866 45.0933 70.9083 45.15 71.8983 45.1517C73.2833 45.155 73.6516 45.1183 74.3899 44.905C75.6249 44.5483 77.2666 43.7133 78.3899 42.875C80.5383 41.2683 82.2899 40.6233 84.5233 40.6133C86.5849 40.605 87.8966 41.0817 89.0583 42.26C89.4516 42.6583 89.7866 42.9167 89.8416 42.8617C89.8933 42.81 89.9499 42.1133 89.9666 41.3133C89.9666 41.3133 90.5733 41.255 90.7016 41.425C90.7016 42.7233 90.7166 42.825 90.9049 42.825C91.0283 42.825 91.1599 42.6983 91.2416 42.5017C91.4183 42.0767 92.0716 41.495 92.7699 41.1417C94.2783 40.3767 96.8883 40.3533 98.9849 41.085C99.8683 41.395 100.848 41.9483 101.782 42.6683C102.718 43.3883 104.633 44.3517 105.765 44.6733C106.91 44.9983 108.928 45.08 109.963 44.845C110.39 44.7483 110.79 44.6683 110.853 44.6683C111.235 44.6683 110.585 45.94 109.822 46.685C108.427 48.0483 106.612 48.0417 104.058 46.665C102.467 45.8083 100.563 45.34 100.563 45.8067C100.563 45.9033 100.663 45.9683 100.812 45.9683C101.365 45.9683 102.433 46.34 103.923 47.0467C105.535 47.8133 106.44 48.1367 106.977 48.1367C107.367 48.1367 107.378 48.3783 107.015 48.9117C106.63 49.48 105.977 49.7617 105.053 49.76C104.172 49.7567 103.682 49.5633 102.893 48.9083C101.575 47.8117 98.2899 46.5883 98.4166 47.2417C98.4416 47.3717 98.5999 47.4517 98.9383 47.5033C100.082 47.6783 101.423 48.3183 102.797 49.3467C103.22 49.665 103.66 49.9783 103.772 50.045C103.96 50.155 103.963 50.1883 103.815 50.4667C103.568 50.9267 102.947 51.2833 102.273 51.3533C101.402 51.4433 100.643 51.1833 99.8583 50.5267C98.2016 49.14 96.6399 48.1367 96.1399 48.1367C95.7316 48.1367 95.9149 48.3617 96.6349 48.7433C97.5816 49.245 98.5549 49.9233 99.2716 50.5817C99.6099 50.895 99.9916 51.205 100.118 51.2733C100.418 51.4333 100.407 51.6683 100.077 52.1C99.7399 52.54 99.1833 52.7333 98.4616 52.6567C97.0216 52.505 95.8983 51.81 94.1333 49.9783C93.4433 49.2633 92.8283 48.6783 92.7649 48.6783C92.5299 48.6783 92.6683 48.9967 93.1233 49.5067C93.6866 50.1367 93.7949 50.4917 93.5816 51.0033C93.3933 51.4567 93.0799 51.5617 92.4366 51.3883C91.7783 51.21 91.6749 51.3717 92.1066 51.9083C92.7499 52.71 92.6549 53.6917 91.8666 54.3667C91.6216 54.575 91.3649 54.7467 91.2949 54.7467C91.2266 54.7467 91.0533 54.5683 90.9083 54.35C90.4016 53.58 89.9566 53.585 89.4633 54.3633C89.2916 54.635 89.1466 54.855 89.1416 54.8533C89.1349 54.8517 88.9033 54.685 88.6283 54.4817Z" fill="#D91C16"/>
<path d="M91.1383 38.8383L90.2833 39.515L89.5166 38.9367V43.56L91.1383 43.58V38.8383Z" fill="#D91C16"/>
<path d="M85.8416 34.0417C85.6716 36.2267 85.1166 37.7517 84.3449 39.4333L86.1949 37.7183L87.4816 39.2467L88.8749 37.6917L90.2966 39.005L91.6633 37.6383L93.0833 39.3L94.3166 37.9333L96.4066 39.4333C95.6483 37.7517 94.6216 36.3267 94.7499 33.96C92.7249 35.465 87.9133 35.7367 85.8416 34.0417Z" fill="#D91C16"/>
<path d="M89.5183 32.9267C88.7749 32.94 87.9916 32.95 87.2866 33.0883C86.7983 33.185 86.3549 33.3433 85.9849 33.605C86.0449 35.0267 92.8183 35.62 94.6349 33.6317C94.2533 33.3533 93.7866 33.1883 93.2733 33.0883C92.5949 32.9567 91.8449 32.9433 91.1333 32.9317C91.1333 33.3217 91.1366 33.7133 91.1366 34.105L89.5183 34.1V32.9267Z" fill="#D91C16"/>
<path d="M90.8433 25.6617L89.7916 25.67V33.9L90.8649 33.905L90.8433 25.6617Z" fill="#D91C16"/>
<path d="M90.8416 25.8733L90.4399 29.8133L94.4933 31.7933L92.4416 29.05L95.2433 28.1417L90.8416 25.8733Z" fill="#D91C16"/>
<path d="M90.3899 24.8467C89.7749 24.8467 89.3199 25.0767 89.3199 25.35C89.3199 25.6233 89.7749 25.855 90.3899 25.855C91.0049 25.855 91.4566 25.6233 91.4566 25.35C91.4566 25.0767 91.0049 24.8467 90.3899 24.8467Z" fill="#D91C16"/>
<path d="M99.5526 79.6947L99.6849 80.2419L99.766 80.5955L99.8764 81.0521L99.9354 81.391L99.9427 81.7813L100.12 81.5014L100.068 81.0374L99.7881 80.0062L99.5526 79.6947Z" fill="#D91C16"/>
<path d="M100.902 81.375L100.709 81.3125L100.573 81.2396L100.485 81.125L100.381 80.9375L100.292 80.724L100.225 80.5156L100.165 80.2839L100.136 80.0521L100.114 79.8257L100.103 79.6361L99.7439 80.1535L100.068 81.4867L100.902 81.375Z" fill="#D91C16"/>
<path d="M100.204 79.4943L100.252 79.4897L100.322 79.5284L100.401 79.6131L100.394 79.4639L100.204 79.4704V79.4943Z" fill="#D91C16"/>
<path d="M102.635 78.5331L102.71 78.7043L102.755 78.7964L103.115 78.8854L102.98 78.7292L102.902 78.5781L102.85 78.3386L102.86 78.0938L102.943 77.5938L102.553 78.2344L102.635 78.5331Z" fill="#D91C16"/>
<path d="M79.6963 80.9085L79.606 81.0116L79.525 81.1368L79.4808 81.2363L79.4035 81.4241L79.3703 81.6303L79.3151 81.1958L79.3794 81.1133L79.4048 81.0749L79.4698 81.0042L79.5048 80.9564L79.5342 80.8974L79.5508 80.8238L79.5582 80.7906L79.6963 80.9085Z" fill="#D91C16"/>
<path d="M79.1678 81.2473L79.3114 81.1037L79.3888 80.9895L79.4993 80.8385L79.5619 80.647L79.5803 80.4518L79.6245 80.8164L79.3077 81.262L79.1678 81.2473Z" fill="#D91C16"/>
<path d="M79.4035 81.7187L79.4183 81.5272L79.4625 81.3689L79.5398 81.2326L79.6466 81.0669L79.7866 80.9085L80.1291 80.5365L79.8565 80.6176L79.3336 81.1332L79.4035 81.7187Z" fill="#D91C16"/>
<path d="M82.6628 81.6561L82.5891 82.0244L82.5302 82.1791L82.3387 82.3853L82.0883 82.5842L81.7274 82.8494L82.2577 82.7904L82.486 82.4737L82.6628 82.1717V81.6561Z" fill="#D91C16"/>
<path d="M74.5587 79.6416L74.4556 79.6011L74.3617 79.5514L74.2678 79.4851L74.2015 79.4041L74.126 79.2825L74.0892 79.1426L74.0487 78.9897L74.0431 78.9824L73.5699 80.3377L73.754 80.4997L73.9897 80.5255L74.4906 79.8957L74.5587 79.6416Z" fill="#D91C16"/>
<path d="M73.6564 78.6215L73.5515 78.6343C73.5515 78.6343 73.5183 78.6306 73.511 78.6288C73.5036 78.627 73.4447 78.603 73.4447 78.603L73.4115 78.5773L73.3673 78.5294L73.336 78.476L73.3084 78.4115L73.2973 78.3637L73.2789 78.29L73.2587 78.2403L73.2329 78.15L73.2108 78.1022L73.1961 78.0727L73.1777 78.0617L73.0837 78.1464L73.1077 78.3655L73.1813 78.6086L73.3378 78.7006L73.5294 78.7098L73.5754 78.6693L73.6564 78.6215Z" fill="#D91C16"/>
<path d="M73.8105 78.6484L73.6516 78.5729L73.5735 78.513L73.4875 78.4531L73.4433 78.3958L73.3808 78.3073L73.3339 78.2344L73.2688 78.1537L73.2349 78.0938L73.1933 78.0313L73.1542 77.9766L73.1151 77.9453L73.024 77.8698L72.9355 78.2214L73.1099 78.7109L73.2844 78.8047L73.7922 78.6511L73.8105 78.6484Z" fill="#D91C16"/>
<path d="M95.2089 84.75L94.9797 84.6719L94.8964 84.6094L94.8287 84.5313L94.7766 84.474L94.7245 84.3906L94.7037 84.349L94.6412 84.2083L94.5995 84.0052L94.386 84.1198L94.3183 84.7604L94.7401 84.8386L95.2089 84.75Z" fill="#D91C16"/>
<path d="M89.977 83.4939L90.4042 83.4681L90.3415 83.2287L89.977 83.4939Z" fill="#D91C16"/>
<path d="M89.9033 83.5196L90.4005 83.4718L90.0064 83.2361L89.9033 83.5196Z" fill="#D91C16"/>
<path d="M69.8651 84.5052L69.7507 84.2599L69.7397 84.1641V83.991L69.7544 83.8806L69.7655 83.8106L69.7876 83.7296L69.5187 83.6522L68.9847 83.7701L69.0804 84.0721L69.5261 84.2378L69.8651 84.5052Z" fill="#D91C16"/>
<path d="M69.4165 83.6237L69.0289 83.6458L69.0915 83.7673L69.3226 83.8143L69.4773 83.6633L69.4165 83.6237Z" fill="#D91C16"/>
<path d="M72.6295 85.9063L72.697 86.0534L72.7707 86.1713L72.837 86.2081L72.9401 86.267L73.0138 86.2891L73.1242 86.3186L73.2274 86.3333L73.5073 86.3407H73.824L74.0008 86.3628L72.6381 87.1362L72.6295 85.9063Z" fill="#D91C16"/>
<path d="M69.8808 84.513L69.8417 84.3958L69.8365 84.3151V84.2552L69.8417 84.2005L69.8443 84.1693L69.8573 84.1328L69.8938 84.0365L69.9094 83.9922L69.9381 83.9427L69.9771 83.8802L69.9953 83.8542L69.8052 83.6927L69.7011 83.75L69.649 84.0078L69.6802 84.3646L69.8808 84.513Z" fill="#D91C16"/>
<path d="M92.4076 93.6843L92.2677 93.734L92.1848 93.7451L92.1148 93.7487L92.067 93.7414L91.9896 93.7138L91.9509 93.6806L91.9399 93.6475L91.9289 93.5665L91.9233 93.5002V93.4026L91.9583 93.2645L91.6416 93.9568L91.8515 94.1115L92.4076 93.6843Z" fill="#D91C16"/>
<path d="M109.438 73.6042L109.383 73.6432L109.318 73.6875L109.223 73.7526L109.105 73.8333L108.948 73.6524L109.206 73.2761L109.438 73.6042Z" fill="#D91C16"/>
<path d="M109.502 73.5769L109.456 73.6082L109.388 73.6551L109.335 73.6864L109.265 73.7196L109.28 73.6082L109.468 73.5419L109.502 73.5769Z" fill="#D91C16"/>
<path d="M109.723 73.4297L109.119 73.8438L109.09 73.8021L109.721 73.4037L109.723 73.4297Z" fill="#D91C16"/>
<path d="M108.571 82.5567L108.537 82.4922L108.509 82.5104L108.557 82.5501L108.571 82.5567Z" fill="#D91C16"/>
<path d="M108.551 82.5241L108.594 82.5169L108.611 82.5176L108.628 82.5196L108.651 82.5234L108.685 82.5293L108.724 82.5391L109.006 82.6153L108.997 82.5606L108.524 82.4535L108.551 82.5241Z" fill="#D91C16"/>
<path d="M108.667 82.6965L108.558 82.5004L108.526 82.5161L108.667 82.6965Z" fill="#D91C16"/>
<path d="M109.082 82.7363L109.169 82.877L109.184 82.9063L109.239 83.0221L109.254 83.0716L109.267 83.1263L109.28 83.1979L109.293 83.2891L109.303 83.3503L109.304 83.4076L109.3 83.4857L109.286 83.5794L109.273 83.6641L109.253 83.7344L109.214 83.8112L109.32 83.8086L109.409 83.3646L109.344 83.1172L109.284 82.9818L109.245 82.8985L109.178 82.7865L109.082 82.7363Z" fill="#D91C16"/>
<path d="M101.928 89.1618L102.031 89.2538L102.064 89.287L102.094 89.3422L102.105 89.3827L102.116 89.4932L102.105 89.7326L102.097 89.8541L102.053 90.1193L102.035 90.2592L101.979 90.4581L102.576 89.6884L102.572 89.3459L102.377 89.0955L102.112 89.1433L101.928 89.1618Z" fill="#D91C16"/>
<path d="M91.9381 93.6335L91.944 93.6641L91.9531 93.683L91.9667 93.6934L91.9824 93.7051L91.9941 93.711L92.0103 93.7162L92.0351 93.7227L92.0572 93.7292L92.0859 93.7337L92.11 93.7363L92.1451 93.735L92.1848 93.7337L92.2174 93.7298L92.2642 93.7207L92.3085 93.7115L92.343 93.7037L92.4049 93.6848L92.4257 93.6757L92.4361 93.6718L92.4413 93.6914L92.3997 93.7727L92.2382 93.8079L92.0038 93.8014L91.8892 93.7187L91.8808 93.6347L91.9381 93.6335Z" fill="#D91C16"/>
<path d="M90.6657 91.0879L90.6399 89.1618L90.1022 89.3385L90.3821 90.5465L90.6657 91.0879Z" fill="#D91C16"/>
<path d="M77.0354 87.5929L77.8599 85.9167L77.0474 86.2708L76.9433 86.8542L77.0354 87.5929Z" fill="#D91C16"/>
<path d="M77.7499 86.9778L78.1771 86.1271L78.3686 86.2339L78.2029 86.79L77.8088 87.0625L77.7499 86.9778Z" fill="#D91C16"/>
<path d="M72.7661 86.163L72.7937 86.21L72.8057 86.2265L72.8222 86.2431L72.8452 86.2643L72.8839 86.2946L72.9226 86.3195L72.964 86.3407L73.011 86.3591L73.0367 86.3665L73.0865 86.3757L73.1906 86.3919L73.233 86.3965L73.2759 86.3997L73.3365 86.4004H73.4947L73.5285 86.3997L73.5865 86.3906L73.6242 86.3809L73.6822 86.3652L73.746 86.3425L73.7857 86.3281L73.813 86.3132L73.8319 86.3015L73.8241 86.3457L73.7863 86.392C73.7863 86.392 73.6054 86.4432 73.5995 86.442C73.5936 86.4408 73.3977 86.442 73.3977 86.442L73.0266 86.4438L72.859 86.4033L72.7504 86.2947L72.7661 86.163Z" fill="#D91C16"/>
<path d="M69.9042 84.5358L69.8847 84.4857L69.8729 84.4492L69.8677 84.4063L69.8664 84.3633L69.8651 84.3138L69.8729 84.2539L69.882 84.1992L69.8888 84.166L69.8971 84.1209L69.9127 84.0748L69.9293 84.0168L69.9532 83.9542L69.9643 83.9192L69.9864 83.8649L69.9496 83.8548L69.7488 84.2415L69.758 84.479L69.9042 84.5358Z" fill="#D91C16"/>
<path d="M109.554 68.3451L109.006 67.9375L108.933 68.1953L109.286 68.3684L109.518 68.3721L109.554 68.3451Z" fill="#D91C16"/>
<path d="M108.947 73.61L108.967 73.6218L108.986 73.6283L109.034 73.64L109.052 73.6432L109.091 73.6471L109.15 73.6432L109.198 73.6361L109.273 73.6231L109.308 73.6146L109.328 73.6094L109.179 73.2344L109.304 73.4401L109.365 73.6289L109.249 73.7149L109.028 73.7422L108.947 73.61Z" fill="#D91C16"/>
<path d="M107.42 72.0651L106.748 71.4922L106.659 71.7943L107.175 72.2787L107.438 72.2109L107.42 72.0651Z" fill="#D91C16"/>
<path d="M86.4094 83.2318L86.0578 82.5L86.4172 82.3386L86.7297 82.5417L86.7089 83.1511L86.4094 83.2318Z" fill="#D91C16"/>
<path d="M85.3568 82.6836L86.1413 82.5952L85.9939 82.354L85.355 82.5474L85.3568 82.6836Z" fill="#D91C16"/>
<path d="M85.3404 82.6862L86.2063 82.6172L86.0917 82.5117L85.494 82.6198L85.3404 82.6862Z" fill="#D91C16"/>
<path d="M86.4101 83.2305L86.0162 82.4219L86.3808 82.6927L86.4068 83.2083L86.4101 83.2305Z" fill="#D91C16"/>
<path d="M89.4146 83.7656L90.0448 83.5182L90.1021 83.4968L90.1256 83.4916L90.1555 83.4864H90.2063L90.2447 83.4909L90.2623 83.5L90.3 83.5287L90.5616 83.7563L90.592 83.783L90.6214 83.8088L90.6435 83.8244L90.6693 83.8355L90.7172 83.8483H90.7632L90.813 83.8226L90.2384 83.4073L89.9199 83.4423L89.4146 83.7656Z" fill="#D91C16"/>
<path d="M78.9875 78.2682L79.5995 77.5339L79.3052 77.612L79.1047 77.8828L78.9875 78.2682Z" fill="#D91C16"/>
<path d="M102.724 78.7318L102.756 78.9271L102.761 79.1094L102.778 79.5716L102.756 79.741L102.742 79.9694L102.69 80.2419L102.639 80.3892L102.499 80.6323L102.123 81.0816L102.801 80.8606L103.051 80.2566L103.022 79.6085L102.724 78.7318Z" fill="#D91C16"/>
<path d="M100.917 81.3802L100.709 81.2656L100.558 81.1563L100.428 80.9636L100.36 80.8177L100.251 80.5417L100.152 80.2188L100.126 79.5677L100.021 79.8333L100.094 80.7188L100.443 81.4063L100.917 81.3802Z" fill="#D91C16"/>
<path d="M100.18 80.3281L100.167 80.2448V80.1458L100.185 80.0052L100.225 79.7761L100.271 79.6354L100.348 79.4943L100.016 79.439L99.9759 79.7263L100.116 80.1756L100.18 80.3281Z" fill="#D91C16"/>
<path d="M100.887 80.6276L100.717 80.5182L100.648 80.4479L100.618 80.4024C100.618 80.4024 100.754 80.3672 100.76 80.3672C100.765 80.3672 100.877 80.5287 100.877 80.5287L100.898 80.6237L100.887 80.6276Z" fill="#D91C16"/>
<path d="M101.005 81.3817L100.891 81.3652L100.777 81.3062L100.657 81.2326L100.543 81.1442L100.412 80.9269L100.335 80.7575L100.208 80.4334L100.18 80.2761L100.175 80.1641L100.191 79.9297L99.9901 80.2031L100.443 81.3438L101.005 81.3817Z" fill="#D91C16"/>
<path d="M102.035 79.0413L101.607 78.2458L101.386 78.5036L101.839 78.9308L102.016 79.0081L102.035 79.0413Z" fill="#D91C16"/>
<path d="M101.965 77.7376L102.082 77.7523L102.167 77.8112L102.226 77.8517L102.381 78.0617L102.502 78.3268L102.583 78.4852L102.653 78.6435L102.709 78.7503L102.731 78.8792L102.734 78.9271V79.2696C102.734 79.2696 102.734 79.4096 102.734 79.4575C102.734 79.5053 102.731 79.6416 102.731 79.6416V80.0062L102.697 80.2272L102.418 80.7428L102.049 81.0816L102.917 80.6406L103.089 79.8333L102.839 78.8333L102.412 77.8333L101.965 77.7376Z" fill="#D91C16"/>
<path d="M102.667 78.6615L102.719 78.9636L102.73 79.0938L102.74 79.7136L102.709 80.0938L102.662 80.2813L102.631 80.3854L102.239 80.9361L102.604 80.938L103.303 80.1979L102.815 78.6141L102.667 78.6615Z" fill="#D91C16"/>
<path d="M102.259 77.8952L102.227 77.8581L102.197 77.8334L102.135 77.7891C102.135 77.7891 102.105 77.7761 102.101 77.7741C102.097 77.7722 102.044 77.7526 102.044 77.7526L101.977 77.7377L101.933 77.7487L101.904 77.752C101.904 77.752 101.933 77.6589 101.937 77.6582C101.941 77.6576 102.13 77.6543 102.13 77.6543C102.13 77.6543 102.171 77.7455 102.173 77.7494C102.175 77.7533 102.261 77.8991 102.261 77.8991L102.259 77.8952Z" fill="#D91C16"/>
<path d="M101.96 77.7396L101.997 77.7442L101.987 77.7162L101.952 77.7266L101.96 77.7396Z" fill="#D91C16"/>
<path d="M102.631 78.599L102.691 78.7656L102.709 78.8646L102.784 78.6328L102.743 78.5078L102.631 78.599Z" fill="#D91C16"/>
<path d="M100.323 79.5313L100.439 79.6615L100.458 79.7891L100.541 79.7096L100.432 79.5234L100.323 79.5313Z" fill="#D91C16"/>
<path d="M100.389 79.6022C100.389 79.6022 100.42 79.6621 100.422 79.6699C100.424 79.6777 100.438 79.7122 100.438 79.7122L100.431 79.5905L100.389 79.6022Z" fill="#D91C16"/>
<path d="M102.734 79.5274L102.672 79.125V79.0417L102.641 78.9375L102.6 78.8125L102.568 78.6823L102.469 78.4167L102.35 78.1927L102.287 78.0365L102.152 77.7917L102.1 77.6615L102.667 77.8906L102.876 79.2448L102.734 79.5274Z" fill="#D91C16"/>
<path d="M102.672 79.1328L102.573 78.7656L102.464 78.4583L102.35 78.2083L102.261 78.0417L102.193 77.9011L102.089 77.6719L102.74 78.4896L102.855 79.2136L102.672 79.1328Z" fill="#D91C16"/>
<path d="M102.145 77.7891L102.594 78.7577L102.69 79.2144L102.745 78.8498L102.495 78.1095L102.16 77.7928L102.145 77.7891Z" fill="#D91C16"/>
<path d="M103.107 78.8359L103.058 78.7813L103.021 78.7448L102.985 78.6875L102.959 78.6458L102.917 78.4948L102.896 78.375L102.876 78.2396L102.896 78.0208L102.943 77.7292L103.001 77.5886L103.287 77.3125H102.766L102.62 78L102.808 78.9219L103.107 78.8359Z" fill="#D91C16"/>
<path d="M103.119 78.8387L103.049 78.778L102.987 78.6896L102.953 78.6288L102.915 78.4612L102.885 78.2661L102.883 78.2163L102.923 77.9917L102.993 77.7474L103.202 77.3815L102.863 77.6511L102.797 78.7813L103.119 78.8387Z" fill="#D91C16"/>
<path d="M108.829 73.4818L108.92 73.5261L109.006 73.5417L109.097 73.5469H109.162L109.232 73.5443H109.253L109.232 73.4792L109.209 73.388L109.188 73.3333L109.11 73.0938L109.376 73.4714L109.381 73.6615L109.149 73.7578L108.774 73.7344L108.829 73.4818Z" fill="#D91C16"/>
<path d="M74.5572 79.6406L74.7005 79.6711L74.5072 79.73L74.5572 79.6406Z" fill="#D91C16"/>
<path d="M75.5697 76.4044L76.0079 75.8519L76.146 76.3086L75.6986 76.6474L75.5697 76.4044Z" fill="#D91C16"/>
<path d="M75.244 75.8984L76.0045 75.8958L75.2506 75.8294L75.244 75.8984Z" fill="#D91C16"/>
<path d="M79.9743 84.5987L79.6516 84.4167L79.3703 84.2813L79.2662 84.1771L79.1203 84.0104L78.9745 83.8333L78.8391 83.6563L78.6412 83.3438L78.3703 84.0729L79.037 84.5625L79.9224 84.625L79.9743 84.5987Z" fill="#D91C16"/>
<path d="M80.0093 84.6098L79.3225 84.2433L79.3501 84.4164L79.9651 84.711L80.0093 84.6098Z" fill="#D91C16"/>
<path d="M78.9849 83.849L78.7128 83.418L78.6998 83.5156L78.9276 83.9245L78.9849 83.849Z" fill="#D91C16"/>
<path d="M79.282 84.2194L80.339 84.7239L79.9744 84.8234L79.1752 84.595L79.282 84.2194Z" fill="#D91C16"/>
<path d="M79.3469 84.2526L78.9927 83.8529L78.9537 83.7878L78.8087 83.5528L78.7414 83.4232L78.6731 83.4434L78.8039 83.7331L78.8821 83.8112L78.9947 84.2562L79.3469 84.2526Z" fill="#D91C16"/>
<path d="M79.052 83.9199L78.953 83.7917L78.9101 83.8633L78.9576 83.9746L79.052 83.9199Z" fill="#D91C16"/>
<path d="M108.835 73.4811L108.882 73.502L108.92 73.513L108.954 73.5189L109.085 73.5339H109.229L109.238 73.5319L109.131 73.1712L109.115 73.1276L109.1 73.0794L109.317 73.4507L109.273 73.6422L109.015 73.7435L108.835 73.4811Z" fill="#D91C16"/>
<path d="M75.7733 89.3542L75.7603 89.3587L75.7466 89.3601H75.7239L75.7076 89.3587L75.7167 89.3809L75.7629 89.3789L75.7733 89.3542Z" fill="#D91C16"/>
<path d="M88.6186 93.97C89.2836 93.75 89.6619 93.3467 89.9336 92.57C90.0686 92.1834 90.1602 91.7817 90.1369 91.6767C90.0802 91.4284 89.7936 91.4417 89.4769 91.705C89.2602 91.8867 89.2336 91.9784 89.2952 92.3484C89.4536 93.2817 89.1219 93.5134 87.3552 93.7034C87.1802 93.7217 86.6736 93.6917 86.2269 93.6367C85.3869 93.5317 85.0869 93.615 85.3919 93.8684C85.4836 93.945 85.7169 94.0484 85.9102 94.0967C86.3819 94.2184 88.1136 94.1367 88.6186 93.97Z" fill="#FDD406"/>
<path d="M92.2802 93.815C92.3802 93.7234 92.7236 93.565 93.0436 93.4617C93.4702 93.325 93.6902 93.1784 93.8702 92.91C94.3886 92.1384 94.2919 91.4734 93.5302 90.5767C93.1169 90.09 92.9336 90.1034 92.6036 90.6434C92.3186 91.11 92.3252 91.14 92.7352 91.2467C92.9502 91.3017 93.1569 91.46 93.2702 91.655C93.7169 92.4284 93.5852 92.9067 92.9236 92.9117C92.3236 92.9167 92.1586 93.0017 91.9969 93.39C91.9119 93.5917 91.8436 93.8067 91.8436 93.8684C91.8436 94.0317 92.0702 94.0034 92.2802 93.815Z" fill="#FDD406"/>
<path d="M91.0786 92.9417C91.1919 92.635 91.2319 92.0834 91.2186 90.9584C91.2102 90.1017 91.1769 89.375 91.1436 89.3417C91.0436 89.2417 90.5502 89.56 90.4852 89.765C90.4519 89.8717 90.5069 90.1184 90.6069 90.3117C90.7602 90.61 90.7802 90.8884 90.7336 92.0567C90.6736 93.5334 90.7702 93.7817 91.0786 92.9417Z" fill="#FDD406"/>
<path d="M88.2586 92.2384C88.3186 91.9634 88.3952 91.4 88.4302 90.9884C88.4652 90.5767 88.5502 90.0567 88.6169 89.8317C88.7869 89.255 88.6152 89.1034 88.1602 89.4267L87.8219 89.6684L87.8919 90.4967C87.9569 91.2434 87.8386 92.635 87.6669 93.175C87.6202 93.3184 87.6869 93.2817 87.8752 93.0617C88.0269 92.885 88.2002 92.5134 88.2586 92.2384Z" fill="#FDD406"/>
<path d="M85.7569 92.64C86.3655 92.1309 86.2955 91.2616 86.4302 90.5534C86.4163 90.0826 86.7309 89.5181 86.5279 89.1062C85.9592 89.2102 85.6088 89.7488 85.8998 90.2853C85.9241 90.9084 85.902 91.5866 85.5817 92.1375C85.32 92.4978 84.4913 92.4081 84.5295 91.8974C84.7374 91.1296 83.8175 91.5033 83.4584 91.7045C83.1808 91.8978 82.5947 91.9121 82.7984 91.4284C82.664 90.784 81.8351 91.1871 81.3848 91.1842C80.9595 91.1764 81.3496 90.3224 80.7392 90.4724C79.6049 90.3829 78.3527 90.4824 77.3709 89.7971C76.7961 89.5208 76.8814 88.8296 77.1806 88.3823C77.538 87.7715 77.6399 87.0075 78.2071 86.5335C78.7686 85.995 77.6775 86.2224 77.4318 86.4038C76.8848 86.7032 77.393 87.4743 76.9453 87.9019C76.6837 88.3455 76.3392 88.958 75.7336 88.8736C74.8603 88.7084 74.3569 87.896 73.7308 87.3516C73.1945 87.2446 73.496 88.2219 73.7729 88.4273C74.3209 88.8376 74.9611 89.1366 75.6216 89.3138C76.2789 89.2086 76.3002 90.0694 76.8623 90.2044C77.8936 90.6849 79.0428 90.8288 80.1678 90.8875C80.6097 90.9243 80.3612 91.7112 80.9421 91.5557C81.2668 91.6399 82.0001 91.4349 82.0368 91.8121C81.5447 92.3964 82.5092 92.3834 82.8661 92.2787C83.3231 92.2089 83.9071 92.0343 84.0279 92.6608C84.4094 93.063 85.1099 93.0037 85.5745 92.7735C85.6398 92.7357 85.7012 92.691 85.7569 92.64Z" fill="#FDD406"/>
<path d="M75.7969 87.595C75.9819 87.36 76.2586 86.885 76.4119 86.5384C76.5636 86.19 76.7919 85.795 76.9169 85.66C77.2102 85.3434 77.0469 85.1484 76.5736 85.2534C76.3236 85.3084 76.2219 85.4 76.1802 85.6167C76.0386 86.3234 75.7819 87.0467 75.5536 87.3834C75.1402 87.9934 75.1302 88.0184 75.3002 88.0184C75.3886 88.0184 75.6119 87.8284 75.7969 87.595Z" fill="#FDD406"/>
<path d="M69.5536 83.6817C69.0869 83.6817 69.0669 83.9767 69.5219 84.135C69.7419 84.2117 69.9286 84.3967 70.0786 84.6984C70.5219 85.58 70.7819 85.7367 71.9586 85.8384L72.7136 85.9067L72.7502 86.365C72.7686 86.6184 72.8286 86.8284 72.8869 86.8284C72.9452 86.8284 73.2369 86.7017 73.5319 86.5517C74.0852 86.2717 74.6102 85.6184 74.6102 85.2134C74.6102 84.9484 74.1686 84.6617 73.7669 84.6617C73.5886 84.6617 73.2486 84.805 72.9802 85C72.1402 85.6084 71.2419 85.485 70.7502 84.6934C70.3469 84.04 69.9252 83.6817 69.5536 83.6817ZM73.6302 85.3067C73.8536 85.3067 73.9086 85.4717 73.7869 85.7867C73.7036 86.0034 73.4319 86.01 73.3502 85.7967C73.2536 85.545 73.3886 85.3067 73.6302 85.3067Z" fill="#FDD406"/>
<path d="M105.25 84.2817C104.945 84.2934 104.855 84.36 104.662 84.6467C104.345 85.1167 104.314 86.135 104.605 86.495C104.787 86.7184 104.814 86.7234 105.199 86.5634C105.735 86.3384 105.825 86.3467 105.824 86.635C105.82 87.3717 104.764 88.7917 103.657 89.5467C103.359 89.75 103.092 89.9767 103.064 90.0517C102.984 90.2617 103.394 90.215 103.897 89.9584C104.584 89.6084 105.485 88.6884 105.855 87.9634C106.149 87.385 106.19 87.1884 106.225 86.1767C106.257 85.245 106.232 84.9717 106.074 84.6617C105.897 84.3134 105.84 84.2817 105.397 84.2817C105.344 84.2817 105.295 84.28 105.25 84.2817ZM105.287 84.9317C105.517 84.9317 105.557 84.9834 105.584 85.3134C105.607 85.5867 105.559 85.7534 105.407 85.89C105.2 86.0767 105.184 86.075 105 85.7967C104.744 85.4034 104.902 84.9317 105.287 84.9317Z" fill="#FDD406"/>
<path d="M100.227 92.045C101.202 91.565 101.777 91.025 102.147 90.2434C102.322 89.8717 102.465 89.5217 102.465 89.4617C102.465 89.3267 101.985 89.1034 101.697 89.1034C101.41 89.1034 101.352 88.905 101.475 88.3567C101.595 87.8217 101.45 87.1517 101.215 87.1517C101.13 87.1517 100.98 87.2767 100.88 87.4284C100.727 87.6634 100.719 87.7634 100.832 88.105C100.999 88.6117 100.867 88.99 100.414 89.3134C100.199 89.4667 100.08 89.6434 100.08 89.815C100.08 89.96 100.099 90.0784 100.12 90.0784C100.144 90.0784 100.38 89.955 100.647 89.8067L101.134 89.535L101.42 89.76C101.577 89.8834 101.707 90.085 101.707 90.2084C101.707 90.8017 100.015 91.7984 98.8536 91.8917C98.2352 91.9417 98.1302 91.92 97.9152 91.7067C97.7402 91.5317 97.6902 91.385 97.7336 91.1784C97.7669 91.02 97.8269 90.7317 97.8669 90.5384C97.9736 90.0217 97.7519 90.0917 97.3686 90.695C97.0536 91.1934 96.9602 91.725 97.1369 92.005C97.2819 92.2334 98.2452 92.4517 98.9269 92.41C99.3552 92.385 99.7786 92.265 100.227 92.045Z" fill="#FDD406"/>
<path d="M106.734 88.415C107.347 87.8034 107.607 87.0584 107.61 85.9067L107.612 85.0417L108.119 84.8017C108.777 84.4884 109.4 83.865 109.4 83.5184C109.4 83.1617 109.242 83.18 108.955 83.5684C108.747 83.85 108.469 84.02 107.45 84.4884C107.194 84.6067 107.177 84.67 107.119 85.7467C107.05 86.9884 106.882 87.4534 106.189 88.3017C105.764 88.8184 105.749 88.8867 106.044 88.8867C106.165 88.8867 106.475 88.675 106.734 88.415Z" fill="#FDD406"/>
<path d="M100.054 87.7217C100.112 87.5434 99.7736 87.4167 99.6269 87.5617C99.5652 87.6234 99.5486 87.73 99.5902 87.7984C99.6869 87.9534 99.9936 87.9017 100.054 87.7217Z" fill="#FDD406"/>
<path d="M109.265 85.3367C109.325 85.1584 108.985 85.0317 108.84 85.1767C108.777 85.24 108.76 85.3467 108.802 85.415C108.899 85.57 109.205 85.5184 109.265 85.3367Z" fill="#FDD406"/>
<path d="M98.1786 78.88C97.9403 78.9935 97.8167 79.2508 97.6511 79.4472C97.5319 79.5282 97.6274 79.6039 97.696 79.6803C98.1164 80.1331 98.2943 80.7447 98.4941 81.3151C98.6902 81.9885 98.9372 82.7115 98.7321 83.4131C98.6514 83.6818 98.44 83.96 98.1244 83.8708C97.6193 83.8392 97.1223 83.7052 96.6158 83.7105C96.165 83.734 95.8166 84.1442 95.3556 84.0995C95.0611 84.1189 95.0735 83.4965 94.7999 83.663C94.6644 83.9875 94.7311 84.3496 94.715 84.6927C94.7661 84.7419 94.9092 84.699 94.995 84.7134H95.9025C95.9667 85.0268 95.9586 85.3861 96.1838 85.6353C96.4987 85.7473 96.8531 85.6506 97.1524 85.5281C97.4733 85.3788 97.5163 84.9929 97.6069 84.6922C97.7034 84.3692 98.1264 84.4539 98.3761 84.327C98.9869 84.1487 99.3872 83.5139 99.3514 82.8892C99.3119 81.9356 98.9481 81.0384 98.6721 80.1357C98.5332 79.7381 98.437 79.3232 98.2759 78.935C98.2571 78.9016 98.2183 78.8734 98.1786 78.88ZM96.6669 84.3334C97.0063 84.3112 97.1538 84.7283 97.0819 85.0049C96.9549 85.3808 96.4927 85.1398 96.3992 84.8689C96.2276 84.627 96.3337 84.3015 96.6669 84.3334Z" fill="#FDD406"/>
<path d="M84.1002 81.2034C83.9486 81.2 83.7786 81.2567 83.6102 81.375C82.7252 81.995 82.4986 82.7284 83.1002 83.015C83.5419 83.2267 83.4302 83.475 82.7352 83.8234C81.7402 84.32 80.8619 84.2584 79.1936 83.5684C78.7836 83.3984 78.6769 83.4634 78.7719 83.8384C78.8636 84.2067 79.2002 84.4084 80.0369 84.5984C80.9369 84.805 82.0252 84.7384 82.7252 84.4367C83.0669 84.29 83.4719 83.9817 83.8136 83.61L84.3552 83.015L84.9852 83.0934C85.7619 83.1884 85.7769 83.1967 85.7769 83.5684C85.7769 83.8634 85.7936 83.87 86.5069 83.9367C86.9086 83.975 87.4369 84.01 87.6836 84.01C87.9986 84.0117 88.1769 84.0667 88.2819 84.2134C88.4219 84.4084 88.5052 84.4184 89.6786 84.3134C90.7752 84.2134 90.9902 84.2217 91.4852 84.39C91.8369 84.51 92.2236 84.5584 92.5169 84.5267C93.3569 84.4317 94.5152 83.745 94.6836 83.24C94.7036 83.1784 95.0086 83.07 95.3602 83C96.2086 82.83 96.2452 82.645 95.4536 82.5467C95.1102 82.5034 94.5952 82.3784 94.3086 82.265C94.0202 82.1517 93.6269 82.0567 93.4336 82.0567C93.0069 82.0567 92.6052 82.3234 92.6052 82.5984C92.6052 82.7784 92.6686 82.7967 93.1736 82.745C93.6486 82.6967 93.7869 82.7234 94.0369 82.9217C94.2019 83.0517 94.3119 83.205 94.2769 83.26C94.1652 83.4417 93.1736 83.8934 92.7352 83.9634C92.4419 84.01 92.2052 83.9784 91.9752 83.86C91.5902 83.66 91.0236 83.63 90.9169 83.8017C90.8719 83.8767 90.7502 83.8284 90.5836 83.6717L90.3236 83.4267L89.7352 83.6717C89.1369 83.92 88.9169 83.91 88.9169 83.625C88.9169 83.495 88.7419 83.48 87.8602 83.5367C86.8886 83.6 86.7869 83.5834 86.6052 83.38C86.4369 83.1934 86.4336 83.1284 86.5536 82.9367C86.6636 82.76 86.6636 82.6834 86.5586 82.5784C86.4536 82.4734 86.3169 82.475 85.9336 82.5784C84.9669 82.8367 84.6936 82.6917 84.6936 81.9367C84.6936 81.4834 84.4336 81.2084 84.1002 81.2034ZM83.8602 81.8967C83.9119 81.8967 83.9552 81.9284 84.0219 81.995C84.1069 82.08 84.1519 82.2284 84.1152 82.3234C84.0286 82.5484 83.6186 82.54 83.5319 82.3134C83.4902 82.2034 83.5436 82.08 83.6669 81.99C83.7536 81.9267 83.8086 81.895 83.8602 81.8967Z" fill="#FDD406"/>
<path d="M82.1269 82.6C82.7152 82.2267 82.7019 82.255 82.7869 81.2184C82.8452 80.4867 82.8352 80.4317 82.6369 80.4317C82.3486 80.4317 82.1986 80.7484 82.1986 81.3517C82.1986 81.7384 82.1386 81.9117 81.9319 82.1167C81.4419 82.6067 80.2252 82.3834 80.0719 81.775C80.0202 81.5667 80.0869 81.3784 80.3419 81.0167C80.8736 80.2617 80.7536 80.0767 80.1019 80.65C79.6536 81.0417 79.5736 81.0534 79.6586 80.715C79.7369 80.4034 79.5736 80.28 79.2086 80.3717C79.0219 80.4184 78.9202 80.535 78.8752 80.7617C78.8319 80.9834 78.7302 81.1067 78.5536 81.15C78.2586 81.225 77.7552 80.945 77.7552 80.7067C77.7552 80.53 78.5086 79.61 79.4752 78.6067C79.8402 78.2267 80.1386 77.8734 80.1386 77.82C80.1386 77.7667 79.9436 77.7234 79.7052 77.7234C79.3569 77.7234 79.2719 77.7617 79.2719 77.9234C79.2719 78.0334 78.7852 78.6717 78.1886 79.3434C76.9452 80.7434 76.8419 81.035 77.4569 81.4084C77.9519 81.7117 78.5869 81.6884 79.0852 81.35L79.4886 81.075V81.5734C79.4886 82.21 79.6152 82.4384 80.1152 82.7034C80.7436 83.035 81.5036 82.995 82.1269 82.6Z" fill="#FDD406"/>
<path d="M108.22 73.9484C107.759 74.2237 108.12 74.8023 108.19 75.1865C108.001 75.7108 107.328 75.8521 106.837 75.9494C106.141 76.0646 105.648 76.6465 105.384 77.2647C105.24 77.6662 104.894 78.2888 104.517 77.6775C104.189 77.3453 103.587 77.082 103.199 77.4698C102.905 77.7502 102.83 78.1626 102.72 78.5369C102.546 78.2492 102.468 77.8208 102.1 77.7298C101.512 77.8126 101.725 78.5538 102.001 78.8595C102.252 79.2158 102.494 79.6858 102.248 80.109C102.03 80.6176 101.279 80.9606 100.838 80.5256C100.426 80.3081 100.702 79.5314 100.296 79.4887C100.095 79.6337 100.079 80.4464 99.7574 80.0058C99.5256 79.6294 99.6485 79.1137 99.3649 78.7751C99.0298 78.8167 98.7604 79.3937 98.8719 79.7036C99.319 80.3065 99.5027 81.0629 99.6771 81.7814C99.7858 82.0691 99.6613 82.6525 99.9304 82.7665C100.117 82.3034 99.9436 81.7781 100.091 81.3105C100.527 81.2557 101.012 81.4548 101.47 81.349C102.125 81.264 102.631 80.7115 102.86 80.1231C102.93 79.6807 102.847 79.2318 102.835 78.7869C103.352 78.8671 103.889 78.8654 104.387 79.0334C104.634 79.4119 104.309 79.9415 104.241 80.355C103.981 81.1971 103.321 81.8082 102.68 82.3712C102.411 82.53 102.375 82.9509 102.771 82.7242C103.634 82.3555 104.276 81.5746 104.646 80.7293C104.916 80.079 104.699 79.3548 104.875 78.6897C105.135 78.1903 105.762 78.2956 106.226 78.2971C106.706 78.2788 107.115 77.7198 106.955 77.2535C106.802 76.7123 107.375 76.4516 107.766 76.2582C108.285 75.9965 108.682 75.465 108.642 74.8652C108.621 74.5585 108.636 73.9764 108.22 73.9484ZM106.382 77.0734C106.937 77.221 106.281 78.2821 105.986 77.6098C105.895 77.3533 106.111 77.0641 106.382 77.0734ZM103.803 77.8334C104.526 77.7911 104.267 78.8469 103.656 78.3675C103.339 78.2084 103.444 77.8137 103.803 77.8334Z" fill="#FDD406"/>
<path d="M77.6269 81.9134C77.6469 81.8084 77.5936 81.7334 77.4986 81.7334C77.2969 81.7334 77.1752 81.91 77.2702 82.0634C77.3686 82.2217 77.5852 82.1317 77.6269 81.9134Z" fill="#FDD406"/>
<path d="M86.1002 80.9667C86.1002 80.8117 86.0419 80.7534 85.9119 80.7784C85.6286 80.8317 85.5969 81.1917 85.8752 81.1917C86.0302 81.1917 86.1002 81.1217 86.1002 80.9667Z" fill="#FDD406"/>
<path d="M75.6152 75.88C75.2771 75.8106 75.0644 76.0968 74.9486 76.3696C74.6957 76.7947 74.3868 77.2294 73.933 77.4545C73.6067 77.5452 73.2508 77.421 72.9694 77.2528C72.6336 77.0856 72.7099 76.6818 72.566 76.4027C72.3232 76.212 71.8926 76.4847 71.9021 76.7812C71.8753 77.1789 72.2473 77.4086 72.5562 77.5624C72.8186 77.7231 73.1991 77.8125 73.304 78.1379C73.2967 78.4143 73.4079 78.7307 73.7446 78.624C74.1212 78.6178 74.2187 79.0766 74.0667 79.3518C73.9118 79.662 73.8073 80.0254 73.8814 80.3711C74.0614 80.5226 74.2452 80.116 74.3756 79.9999C74.4641 79.8818 74.5527 79.7638 74.6413 79.6457C75.3077 79.6818 75.9734 79.7668 76.6414 79.7431C77.1165 79.7345 77.5211 79.4412 77.8232 79.0973C78.2504 78.6506 78.6014 78.1257 79.0894 77.7403C79.4367 77.6555 79.2501 77.0013 78.8873 77.1903C78.5605 77.3128 78.4576 77.6821 78.2312 77.9175C77.8454 78.3846 77.4518 78.8586 76.9655 79.2247C76.6114 79.3716 76.2037 79.3075 75.8399 79.2247C75.6882 79.092 76.1414 78.9838 76.2046 78.8363C76.4133 78.6279 76.661 78.43 76.7819 78.1561C76.6663 77.9036 76.3125 77.8832 76.0632 77.8781C75.4489 77.9519 74.9797 78.4675 74.3593 78.5161C73.8885 78.5326 74.1335 78.0226 74.3458 77.8486C74.7611 77.3555 75.2098 76.891 75.6434 76.4141C75.7664 76.266 76.2115 76.1254 75.9269 75.9174C75.8273 75.8816 75.7196 75.8816 75.6152 75.88ZM75.9173 78.3749C76.2271 78.5491 75.7197 78.8343 75.506 78.7953C75.2256 78.8794 75.2206 78.5934 75.4696 78.5365C75.6096 78.4636 75.7575 78.3876 75.9173 78.3749ZM74.9642 79.0259C75.1405 79.0225 75.51 79.1919 75.163 79.3004C74.9215 79.4876 74.6486 79.1098 74.9642 79.0259Z" fill="#FDD406"/>
<path d="M82.4686 79.4567C82.4686 79.2217 82.0469 79.255 82.0002 79.4934C81.9702 79.6467 82.0186 79.6834 82.2152 79.655C82.3552 79.635 82.4686 79.5467 82.4686 79.4567Z" fill="#FDD406"/>
<path d="M101.144 77.8034C101.187 77.5784 100.874 77.4284 100.709 77.5934C100.544 77.7584 100.695 78.0717 100.919 78.0284C101.022 78.0084 101.124 77.9067 101.144 77.8034Z" fill="#FDD406"/>
<path d="M72.0802 75.515C72.3736 75.2634 72.3769 75.2467 72.2502 74.6934C72.0702 73.9184 72.0819 73.835 72.3769 73.7617C72.7502 73.6667 73.6986 74.175 73.9086 74.5817C74.0719 74.8967 74.0669 74.9184 73.7902 75.175C73.4919 75.45 73.4936 75.7717 73.7919 75.7717C74.0386 75.7717 74.7202 75.1267 74.7202 74.895C74.7202 74.5734 73.9636 73.8134 73.3652 73.535C72.9952 73.3617 72.6252 73.2817 72.1969 73.28C71.4302 73.28 71.3269 73.445 71.5336 74.3367C71.7769 75.3817 71.4469 75.5234 70.6052 74.735C69.9802 74.15 69.7336 73.5417 69.7369 72.5834C69.7386 71.555 70.1319 71.0467 71.0186 70.9267C71.6069 70.8484 71.5919 70.71 70.9869 70.62C70.1036 70.4867 69.3569 71.0767 69.0736 72.13C68.7586 73.2984 69.4802 74.7217 70.7569 75.455C71.4252 75.8384 71.6919 75.85 72.0802 75.515Z" fill="#FDD406"/>
<path d="M106.887 74.2334C106.959 74.1617 107.017 74 107.017 73.875C107.017 73.75 107.139 73.4817 107.287 73.28C107.437 73.0784 107.559 72.8717 107.559 72.8217C107.559 72.6167 107.22 72.6234 106.954 72.835C106.68 73.0484 106.475 73.0534 106.475 72.845C106.475 72.7934 106.605 72.6867 106.765 72.6084C107.162 72.415 107.195 72.2234 106.86 72.07C106.43 71.875 105.999 72.2317 105.954 72.82C105.925 73.2134 105.957 73.2817 106.26 73.46C106.537 73.6234 106.589 73.71 106.542 73.9434C106.462 74.3484 106.63 74.49 106.887 74.2334Z" fill="#FDD406"/>
<path d="M110.159 73.8634C110.399 73.6484 110.594 73.4034 110.594 73.3217C110.594 73.24 110.8 73.0234 111.054 72.8417C111.772 72.325 111.93 71.8034 111.609 71.0017C111.484 70.6867 111.09 70.2517 110.235 69.4817C109.579 68.8884 108.974 68.4034 108.895 68.4034C108.662 68.4034 108.704 69.2617 108.94 69.3367C109.367 69.4734 109.625 69.6484 110.297 70.2534C111.077 70.9584 111.437 71.6167 111.24 71.9834C111.052 72.3384 110.802 72.2284 110.114 71.49C109.752 71.1017 109.394 70.785 109.32 70.785C109.24 70.7867 109.184 70.9267 109.184 71.1234C109.184 71.37 109.315 71.605 109.672 72.0017C110.254 72.6484 110.31 73.0367 109.874 73.38C109.717 73.5034 109.555 73.605 109.515 73.605C109.477 73.605 109.349 73.4117 109.232 73.1767C108.989 72.6834 107.5 71.1117 107.277 71.1117C107.175 71.1117 107.125 71.2384 107.125 71.4884C107.125 71.79 107.185 71.8967 107.425 72.02C107.72 72.1734 108.45 72.9084 109.184 73.795C109.394 74.0484 109.6 74.2534 109.645 74.255C109.689 74.255 109.92 74.0784 110.159 73.8634Z" fill="#FDD406"/>
<path d="M111.619 69.685C111.522 69.3734 109.525 67.3184 109.32 67.3184C109.214 67.3184 109.18 67.445 109.205 67.7717C109.234 68.1684 109.277 68.2367 109.55 68.3084C109.72 68.3534 110.247 68.7667 110.719 69.225C111.189 69.6834 111.602 70.0317 111.635 69.9967C111.669 69.9634 111.662 69.8234 111.619 69.685Z" fill="#FDD406"/>
<path d="M99.6936 92.815C99.6936 92.8872 99.6623 92.9564 99.6066 93.0074C99.551 93.0584 99.4755 93.0871 99.3968 93.0871C99.3181 93.0871 99.2426 93.0584 99.1869 93.0074C99.1313 92.9564 99.1 92.8872 99.1 92.815C99.1 92.7429 99.1313 92.6737 99.1869 92.6227C99.2426 92.5717 99.3181 92.543 99.3968 92.543C99.4755 92.543 99.551 92.5717 99.6066 92.6227C99.6623 92.6737 99.6936 92.7429 99.6936 92.815Z" fill="#FDD406"/>
<path d="M100.742 92.465C100.742 92.5372 100.711 92.6064 100.655 92.6574C100.599 92.7084 100.524 92.7371 100.445 92.7371C100.366 92.7371 100.291 92.7084 100.235 92.6574C100.18 92.6064 100.148 92.5372 100.148 92.465C100.148 92.3929 100.18 92.3237 100.235 92.2727C100.291 92.2217 100.366 92.193 100.445 92.193C100.524 92.193 100.599 92.2217 100.655 92.2727C100.711 92.3237 100.742 92.3929 100.742 92.465Z" fill="#FDD406"/>
<path d="M94.7672 83.8585L94.5168 83.4423L94.5941 83.3466L94.9698 83.7001L94.7672 83.8585Z" fill="#FDD406"/>
<path d="M94.6328 83.2839L94.9625 83.6706L94.7352 83.9844L94.5113 83.4063L94.6328 83.2839Z" fill="#FDD406"/>
<path d="M94.6779 83.1979L94.9904 83.7084L94.7561 84L94.5165 83.4896L94.6779 83.1979Z" fill="#FDD406"/>
<path d="M108.884 82.8641L108.935 82.982L108.957 83.0814L108.976 83.2103L108.957 83.3245L108.935 83.4423L108.88 83.5749L108.784 83.7554L108.681 83.9137L109.048 84.127L109.343 83.7292L109.384 83.6265L109.408 83.5123L109.427 83.4239L109.423 83.3447L109.41 83.2766L109.394 83.1882L109.351 83.0372L109.3 82.9451L109.259 82.8715L109.225 82.8275L109.19 82.8073L109.162 82.793L109.126 82.7832L109.105 82.7767L109.072 82.7709L109.039 82.7683L109.018 82.7715L108.993 82.7767L108.962 82.7871L108.923 82.806L108.903 82.8242L108.891 82.8425L108.884 82.8641Z" fill="#FDD406"/>
<path d="M108.745 83.794L108.808 83.7075L108.874 83.5786L108.9 83.5104L108.919 83.4644L108.931 83.4184L108.939 83.3687L108.944 83.3263L108.948 83.2711V83.2177L108.941 83.1624L108.929 83.1172L108.901 83.03L108.877 82.9597L108.856 82.9089L108.802 82.7982L108.748 82.6914L108.713 82.638L108.68 82.5943L108.659 82.563L108.651 82.5511L108.631 82.5299L108.644 82.5198L108.678 82.5133L108.722 82.5096L108.761 82.513L108.807 82.5202L108.884 82.5371L108.936 82.5488L108.998 82.5658L109.041 82.584L109.067 82.5951L109.235 82.8425L109.145 83.829L108.863 84.0389L108.745 83.794Z" fill="#FDD406"/>
<path d="M75.6239 89.3132L75.8264 89.3516L75.8433 89.3522L75.8609 89.3509L75.8778 89.3464L75.9117 89.3366L75.9468 89.3158L75.6584 89.2761L75.6239 89.3132Z" fill="#FDD406"/>
<path d="M75.6183 89.3128L75.8075 89.3601L75.8179 89.3607H75.8394L75.8459 89.3594L75.8596 89.3535L75.9195 89.3333L75.7307 89.2852L75.6183 89.3128Z" fill="#FDD406"/>
<path d="M77.12 87.5918L76.9017 87.9777L77.038 88.0293L77.1098 87.7752L77.12 87.5918Z" fill="#FDD406"/>
<path d="M75.8081 89.3594L76.1571 89.4388L75.8746 89.2904L75.8081 89.3594Z" fill="#FDD406"/>
<path d="M90.135 83.5072L90.1753 83.4714L90.2014 83.4538L90.2203 83.444L90.2404 83.4382L90.2639 83.4369L90.2899 83.4401L90.3179 83.4479L90.3531 83.4609L90.3706 83.4733L90.3863 83.4857L90.3889 83.515L90.3016 83.5443L90.1382 83.5475L90.135 83.5072Z" fill="#FDD406"/>
<path d="M90.1746 83.472L89.3166 83.8585L90.0863 83.8437L90.1746 83.472Z" fill="#FDD406"/>
<path d="M80.778 91.575L81.1812 91.5786L80.9299 91.4626L80.778 91.575Z" fill="#FDD406"/>
<path d="M95.1858 84.7123L95.1102 84.6953L95.0666 84.6817L95.0347 84.6602L94.9944 84.6296L94.9618 84.6009L94.9045 84.5345L94.857 84.4727L94.8212 84.4174L94.7606 84.308L94.7177 84.2103L94.7105 84.1895L94.7053 84.1687L94.7046 84.1517L94.7249 83.9423L94.8188 84.0481L95.1857 84.5834L95.1858 84.7123Z" fill="#FDD406"/>
<path d="M94.7053 84.168L94.329 83.4165L94.6089 83.1992L95.1981 84.0721L94.9403 84.2525L94.7053 84.168Z" fill="#FDD406"/>
<path d="M72.8543 86.1695L72.893 86.2413L72.9261 86.2689L73.0016 86.3057L73.0992 86.337L73.2023 86.361L73.4583 86.3886L73.5835 86.3849L73.7732 86.361L73.8634 86.3407L72.8543 86.1695Z" fill="#FDD406"/>
<path d="M109.046 73.6303L109.073 73.6469L109.092 73.6542L109.114 73.6607L109.135 73.6653L109.182 73.6668L109.238 73.6616L109.282 73.655L109.329 73.6459L109.406 73.629L109.424 73.6251L109.285 73.2801L109.046 73.6303Z" fill="#FDD406"/>
<path d="M72.8921 86.2396L72.9353 86.2818L72.9501 86.2965L72.9943 86.3241L73.0495 86.3499L73.0992 86.3628L73.1563 86.3757L73.2539 86.3922L73.3865 86.4051H73.5706L73.6609 86.3922L73.7898 86.3646L73.8616 86.3389L73.6351 86.2155L73.2742 86.291L72.9482 86.2449L72.8921 86.2396Z" fill="#FDD406"/>
<path d="M73.8628 86.3399L73.7886 86.3685L73.6877 86.3959L73.6682 86.3998L73.6291 86.4056H73.5497L73.5972 86.3607L73.7072 86.3522L73.8628 86.3399Z" fill="#FDD406"/>
<path d="M102.012 89.1636L102.052 89.1894L102.101 89.2225L102.121 89.2428L102.137 89.264L102.16 89.2999L102.177 89.3441L102.19 89.3848L102.198 89.4401V89.4636L102.199 89.5157L102.192 89.7952L102.16 90.007L102.131 90.1782L102.112 90.309L102.106 90.3292L102.101 90.3541L102.08 90.4047L101.997 90.5244L102.021 90.3265L102.012 89.1636Z" fill="#FDD406"/>
</g>
<defs>
<clipPath id="clip0_909_222992">
<rect width="180" height="120" fill="white"/>
</clipPath>
</defs>
</svg>
