<svg width="180" height="120" viewBox="0 0 180 120" fill="none" xmlns="http://www.w3.org/2000/svg">
<g clip-path="url(#clip0_909_237110)">
<path d="M0 0H180V120H0V0Z" fill="#1E9A1C"/>
<path d="M18.8555 59.9999L89.9984 105.428L161.141 59.9999L89.9984 14.5713L18.8555 59.9999Z" fill="#FDD406"/>
<path d="M89.8555 90C106.424 90 119.856 76.5685 119.856 60C119.856 43.4315 106.424 30 89.8555 30C73.287 30 59.8555 43.4315 59.8555 60C59.8555 76.5685 73.287 90 89.8555 90Z" fill="#0F3296"/>
<path d="M60.8086 52.4692C64.7127 51.781 68.6946 51.4283 72.7128 51.4283C89.6546 51.4283 105.95 57.6979 118.497 68.9522C118.976 67.4186 119.335 65.832 119.563 64.2036C106.492 53.2268 89.9159 47.1426 72.7128 47.1426C69.2441 47.1426 65.8009 47.3899 62.4068 47.8749C61.7552 49.3478 61.2187 50.8831 60.8086 52.4692Z" fill="white"/>
<path d="M73.0564 50.7114L75.6263 50.8011L75.6448 50.2708L73.5644 50.1982L73.5901 49.4639L75.2217 49.5209L75.2388 49.0314L73.6072 48.9744L73.6271 48.4033L75.5851 48.4717L75.6036 47.9414L73.1561 47.856L73.0564 50.7114Z" fill="#1E9A1C"/>
<path fill-rule="evenodd" clip-rule="evenodd" d="M70.7754 50.7235L69.4286 50.747L69.3788 47.8903L70.7255 47.8668C70.8863 47.864 71.046 47.8929 71.1957 47.9518C71.3453 48.0107 71.4818 48.0986 71.5975 48.2103C71.7132 48.322 71.8057 48.4554 71.8698 48.6028C71.9339 48.7503 71.9684 48.9089 71.9712 49.0697L71.9783 49.4778C71.9811 49.6386 71.9522 49.7984 71.8933 49.948C71.8344 50.0976 71.7465 50.2341 71.6348 50.3498C71.5231 50.4655 71.3897 50.558 71.2423 50.6221C71.0948 50.6862 70.9361 50.7207 70.7754 50.7235ZM70.7253 50.1937L69.9499 50.2072L69.9186 48.4116L70.694 48.398C70.8996 48.3944 71.0983 48.4727 71.2462 48.6156C71.3942 48.7584 71.4793 48.9542 71.4829 49.1599L71.4872 49.4047C71.4907 49.6104 71.4125 49.809 71.2696 49.957C71.1267 50.1049 70.9309 50.1901 70.7253 50.1937Z" fill="#1E9A1C"/>
<path fill-rule="evenodd" clip-rule="evenodd" d="M66.3369 50.9355L65.8076 50.9725L65.649 48.1195L67.2777 48.0056C67.5152 47.989 67.7497 48.0674 67.9294 48.2237C68.1091 48.3799 68.2195 48.6011 68.2361 48.8387C68.2527 49.0763 68.1742 49.3107 68.018 49.4905C67.97 49.5456 67.916 49.5942 67.8572 49.6356C68.165 49.8704 68.208 50.4854 68.2302 50.8031L67.7416 50.8373C67.7226 50.5649 67.6882 50.0739 67.3995 49.7974L66.2629 49.8768L66.3369 50.9355ZM67.3252 49.2707L66.2258 49.3475L66.1746 48.6146L67.274 48.5377C67.3711 48.5309 67.4671 48.563 67.5406 48.627C67.6141 48.6909 67.6592 48.7814 67.666 48.8786C67.6728 48.9758 67.6407 49.0717 67.5768 49.1452C67.5129 49.2187 67.4224 49.2639 67.3252 49.2707Z" fill="#1E9A1C"/>
<path fill-rule="evenodd" clip-rule="evenodd" d="M64.331 50.7044C64.1244 50.9997 63.8181 51.1889 63.4797 51.2305C63.1412 51.272 62.7983 51.1625 62.5263 50.926C62.2543 50.6894 62.0756 50.3453 62.0294 49.9692C61.9833 49.5932 62.0734 49.216 62.2801 48.9207C62.4868 48.6254 62.793 48.4362 63.1315 48.3946C63.4699 48.3531 63.8128 48.4626 64.0848 48.6991C64.3568 48.9356 64.5355 49.2798 64.5817 49.6558C64.6279 50.0319 64.5377 50.4091 64.331 50.7044ZM63.9129 50.3777C63.7929 50.5621 63.6138 50.6794 63.415 50.7038C63.2162 50.7282 63.0141 50.6577 62.853 50.5078C62.6919 50.3579 62.5851 50.1409 62.5561 49.9046C62.5271 49.6682 62.5782 49.4318 62.6982 49.2474C62.8183 49.063 62.9974 48.9457 63.1961 48.9213C63.3949 48.8969 63.5971 48.9674 63.7581 49.1172C63.9192 49.2671 64.026 49.4841 64.055 49.7205C64.0841 49.9569 64.0329 50.1933 63.9129 50.3777Z" fill="#1E9A1C"/>
<path d="M77.1694 50.9083L76.6815 50.8656L76.9305 48.0193L77.6421 48.0816L78.0406 50.0831L78.7806 48.1812L79.4922 48.2435L79.2432 51.0897L78.7552 51.047L78.926 49.0953L78.186 50.9972L77.7387 50.9581L77.3402 48.9566L77.1694 50.9083Z" fill="#1E9A1C"/>
<path d="M82.6015 51.5333L84.7134 51.8962L84.7964 51.4135L83.1672 51.1336L83.2778 50.4899L84.6053 50.718L84.6882 50.2353L83.3607 50.0072L83.4368 49.5647L85.0157 49.836L85.0986 49.3533L83.037 48.9991L82.6015 51.5333Z" fill="#1E9A1C"/>
<path fill-rule="evenodd" clip-rule="evenodd" d="M88.5404 52.7319L88.0267 52.599L88.7816 49.8431L90.3622 50.2519C90.5928 50.3115 90.7902 50.4603 90.9111 50.6655C91.032 50.8707 91.0664 51.1155 91.0067 51.3461C90.9471 51.5766 90.7983 51.7741 90.5931 51.895C90.3879 52.0158 90.1431 52.0502 89.9126 51.9906L88.8061 51.7045L88.5404 52.7319ZM90.0059 51.4667L88.939 51.1907L89.1229 50.4795L90.1898 50.7554C90.2842 50.7798 90.3649 50.8406 90.4144 50.9246C90.4638 51.0085 90.4779 51.1087 90.4535 51.203C90.4291 51.2973 90.3683 51.3781 90.2843 51.4275C90.2004 51.477 90.1002 51.4911 90.0059 51.4667Z" fill="#1E9A1C"/>
<path fill-rule="evenodd" clip-rule="evenodd" d="M91.5323 53.5341L92.0384 53.6937L92.3575 52.6816L93.4441 53.0242C93.6115 53.3873 93.4635 53.8567 93.3814 54.1171L93.8485 54.2644C93.9442 53.9607 94.1296 53.3728 93.9293 53.0415C93.9991 53.0245 94.0673 52.9991 94.1321 52.9654C94.3433 52.8554 94.5022 52.666 94.5739 52.4389C94.6455 52.2117 94.6239 51.9655 94.514 51.7542C94.404 51.543 94.2146 51.3841 93.9875 51.3125L92.4304 50.8215L91.5323 53.5341ZM92.517 52.1755L93.5681 52.5069C93.661 52.5362 93.7617 52.5274 93.8482 52.4824C93.9346 52.4374 93.9996 52.36 94.0289 52.267C94.0582 52.1741 94.0494 52.0734 94.0044 51.987C93.9594 51.9005 93.8819 51.8355 93.789 51.8062L92.738 51.4748L92.517 52.1755Z" fill="#1E9A1C"/>
<path fill-rule="evenodd" clip-rule="evenodd" d="M96.1879 55.1017C96.5073 55.2211 96.8664 55.1947 97.186 55.0282C97.5057 54.8617 97.7598 54.5688 97.8925 54.2139C98.0252 53.859 98.0256 53.4712 97.8936 53.1358C97.7615 52.8004 97.5079 52.5449 97.1885 52.4255C96.8691 52.3061 96.5101 52.3326 96.1904 52.4991C95.8708 52.6656 95.6166 52.9585 95.4839 53.3134C95.3513 53.6682 95.3509 54.056 95.4829 54.3914C95.6149 54.7268 95.8685 54.9823 96.1879 55.1017ZM96.3738 54.6047C96.5613 54.6748 96.7744 54.6535 96.966 54.5454C97.1576 54.4372 97.3121 54.2511 97.3955 54.0281C97.4789 53.805 97.4844 53.5632 97.4107 53.3559C97.3371 53.1485 97.1903 52.9927 97.0027 52.9225C96.8151 52.8524 96.6021 52.8737 96.4105 52.9819C96.2189 53.09 96.0644 53.2761 95.981 53.4992C95.8976 53.7222 95.8921 53.964 95.9657 54.1714C96.0394 54.3787 96.1862 54.5346 96.3738 54.6047Z" fill="#1E9A1C"/>
<path d="M101.358 54.5866C101.244 54.2448 101.004 53.9763 100.691 53.8404C100.378 53.7044 100.018 53.712 99.6905 53.8616C99.3626 54.0111 99.0934 54.2903 98.9424 54.6378C98.7913 54.9852 98.7706 55.3725 98.8849 55.7143C98.9992 56.0562 99.2391 56.3246 99.5518 56.4606C99.8509 56.5906 100.193 56.5893 100.509 56.4581L100.356 56.8105L100.73 56.9732L101.287 55.694C101.291 55.6838 101.296 55.6734 101.301 55.6631L100.308 55.2319L100.145 55.6062L100.575 55.7931C100.51 55.855 100.436 55.9066 100.358 55.9457C100.161 56.0436 99.947 56.0538 99.7634 55.9739C99.5797 55.8941 99.4413 55.7307 99.3786 55.5198C99.3159 55.3089 99.334 55.0678 99.429 54.8494C99.5239 54.631 99.688 54.4532 99.885 54.3553C100.082 54.2573 100.296 54.2471 100.479 54.327C100.663 54.4068 100.802 54.5702 100.864 54.7811C100.881 54.8368 100.892 54.8947 100.897 54.9537L101.424 55.1829C101.443 54.9799 101.421 54.7762 101.358 54.5866Z" fill="#1E9A1C"/>
<path fill-rule="evenodd" clip-rule="evenodd" d="M101.688 57.4199L102.163 57.6566L102.636 56.7069L103.656 57.2153C103.764 57.6001 103.545 58.0406 103.423 58.2849L103.861 58.5035C104.003 58.2185 104.278 57.6668 104.132 57.3082C104.204 57.3024 104.275 57.288 104.345 57.2648C104.571 57.1892 104.757 57.027 104.863 56.8139C104.97 56.6008 104.987 56.3541 104.911 56.1283C104.836 55.9025 104.674 55.7159 104.46 55.6096L102.999 54.8811L101.688 57.4199ZM102.873 56.232L103.859 56.7238C103.946 56.7672 104.047 56.7743 104.14 56.7434C104.232 56.7125 104.308 56.6461 104.352 56.5589C104.395 56.4717 104.402 56.3708 104.372 56.2785C104.341 56.1861 104.274 56.1097 104.187 56.0663L103.201 55.5745L102.873 56.232Z" fill="#1E9A1C"/>
<path d="M104.922 59.0634L107.16 60.3297L107.421 59.8678L105.61 58.8428L105.971 58.2033L107.392 59.0073L107.634 58.581L106.213 57.777L106.494 57.2797L108.199 58.2444L108.46 57.7826L106.329 56.5767L104.922 59.0634Z" fill="#1E9A1C"/>
<path d="M109.437 61.1908C109.093 60.9715 108.937 60.703 109.091 60.462L108.549 60.1166C108.163 60.7179 108.755 61.3125 109.15 61.5647C109.615 61.8608 110.312 62.1351 110.712 61.5068C111.033 61.0028 110.544 60.5335 110.147 60.1516C109.873 59.8879 109.641 59.6658 109.75 59.5028C109.909 59.2533 110.126 59.3309 110.393 59.5008C110.668 59.6763 110.849 59.9244 110.684 60.1826L111.209 60.5171C111.596 59.9287 111.099 59.4182 110.789 59.2208L110.749 59.1954C110.414 58.9797 109.638 58.4812 109.178 59.1864C108.86 59.6739 109.311 60.1159 109.699 60.4968C109.992 60.7841 110.249 61.0366 110.115 61.2475C110.016 61.4022 109.781 61.4101 109.437 61.1908Z" fill="#1E9A1C"/>
<path d="M112.156 62.4888C111.99 62.7214 112.131 62.9977 112.464 63.2347C112.796 63.4718 113.03 63.4761 113.137 63.3268C113.283 63.1232 113.039 62.8576 112.761 62.5554C112.394 62.1547 111.967 61.6897 112.309 61.2195C112.806 60.5394 113.555 61.0778 113.878 61.3108L113.917 61.3382C114.216 61.5516 114.686 62.0874 114.269 62.6547L113.762 62.2932C113.94 62.044 113.772 61.7867 113.506 61.5971C113.249 61.4134 113.036 61.3246 112.865 61.5655C112.747 61.7225 112.967 61.9564 113.227 62.2341C113.604 62.6363 114.067 63.1306 113.72 63.6171C113.287 64.2235 112.606 63.9131 112.158 63.5932C111.776 63.3206 111.216 62.6958 111.633 62.1155L112.156 62.4888Z" fill="#1E9A1C"/>
<path fill-rule="evenodd" clip-rule="evenodd" d="M116.027 66.0147C115.671 66.0742 115.321 65.9884 115.055 65.7762C114.788 65.5639 114.626 65.2425 114.604 64.8828C114.582 64.523 114.702 64.1543 114.938 63.8578C115.174 63.5613 115.506 63.3612 115.861 63.3017C116.217 63.2421 116.566 63.3279 116.833 63.5402C117.1 63.7524 117.262 64.0738 117.284 64.4336C117.306 64.7933 117.186 65.162 116.95 65.4585C116.714 65.7551 116.382 65.9551 116.027 66.0147ZM115.967 65.4875C115.751 65.5311 115.542 65.4856 115.385 65.3609C115.228 65.2362 115.137 65.0426 115.131 64.8227C115.125 64.6028 115.205 64.3745 115.353 64.1881C115.501 64.0017 115.706 63.8725 115.921 63.8289C116.137 63.7852 116.346 63.8307 116.503 63.9554C116.66 64.0801 116.751 64.2737 116.757 64.4936C116.763 64.7136 116.683 64.9418 116.535 65.1282C116.387 65.3146 116.182 65.4438 115.967 65.4875Z" fill="#1E9A1C"/>
<path d="M65.8949 53.3266L65.4976 54.5494L66.109 54.748" fill="white"/>
<path d="M65.8949 53.3266L66.2922 54.5494L65.6808 54.748" fill="white"/>
<path d="M67.1177 54.215H65.832V54.8578" fill="white"/>
<path d="M67.1177 54.215L66.0775 54.9707L65.6997 54.4506" fill="white"/>
<path d="M64.6721 54.215L65.7123 54.9707L66.0901 54.4506" fill="white"/>
<path d="M64.6721 54.215H65.9578V54.8578" fill="white"/>
<path d="M66.6506 55.6524L66.2533 54.4297L65.6419 54.6283" fill="white"/>
<path d="M66.6506 55.6524L65.6105 54.8967L65.9883 54.3766" fill="white"/>
<path d="M65.1392 55.6524L66.1793 54.8967L65.8015 54.3766" fill="white"/>
<path d="M65.1392 55.6524L65.5365 54.4297L66.1479 54.6283" fill="white"/>
<path d="M68.548 65.9388L68.1507 67.1616L68.762 67.3603" fill="white"/>
<path d="M68.548 65.9388L68.9453 67.1616L68.3339 67.3603" fill="white"/>
<path d="M69.7707 66.8272H68.485V67.4701" fill="white"/>
<path d="M69.7707 66.8272L68.7306 67.5829L68.3527 67.0629" fill="white"/>
<path d="M67.3252 66.8272L68.3653 67.5829L68.7432 67.0629" fill="white"/>
<path d="M67.3252 66.8272H68.6109V67.4701" fill="white"/>
<path d="M69.3037 68.2647L68.9064 67.0419L68.295 67.2406" fill="white"/>
<path d="M69.3037 68.2647L68.2635 67.509L68.6414 66.9889" fill="white"/>
<path d="M67.7922 68.2647L68.8324 67.509L68.4545 66.9889" fill="white"/>
<path d="M67.7922 68.2647L68.1895 67.0419L68.8009 67.2406" fill="white"/>
<path d="M64.8745 68.847L64.5434 69.866L65.0529 70.0315" fill="white"/>
<path d="M64.8745 68.847L65.2056 69.866L64.6961 70.0315" fill="white"/>
<path d="M65.8935 69.5873H64.822V70.123" fill="white"/>
<path d="M65.8935 69.5873L65.0267 70.2171L64.7118 69.7837" fill="white"/>
<path d="M63.8555 69.5873L64.7223 70.2171L65.0372 69.7837" fill="white"/>
<path d="M63.8555 69.5873H64.9269V70.123" fill="white"/>
<path d="M65.5043 70.7852L65.1732 69.7662L64.6637 69.9318" fill="white"/>
<path d="M65.5043 70.7852L64.6375 70.1554L64.9523 69.722" fill="white"/>
<path d="M64.2447 70.7852L65.1115 70.1554L64.7966 69.722" fill="white"/>
<path d="M64.2447 70.7852L64.5758 69.7662L65.0853 69.9318" fill="white"/>
<path d="M71.4867 64.7756L71.2975 65.3578L71.5887 65.4524" fill="white"/>
<path d="M71.4867 64.7756L71.6759 65.3578L71.3848 65.4524" fill="white"/>
<path d="M72.069 65.1986H71.4568V65.5047" fill="white"/>
<path d="M72.069 65.1986L71.5737 65.5585L71.3938 65.3108" fill="white"/>
<path d="M70.9045 65.1986L71.3998 65.5585L71.5797 65.3108" fill="white"/>
<path d="M70.9045 65.1986H71.5167V65.5047" fill="white"/>
<path d="M71.8466 65.8831L71.6574 65.3008L71.3663 65.3954" fill="white"/>
<path d="M71.8466 65.8831L71.3513 65.5232L71.5312 65.2756" fill="white"/>
<path d="M71.1269 65.8831L71.6222 65.5232L71.4422 65.2756" fill="white"/>
<path d="M71.1269 65.8831L71.3161 65.3008L71.6072 65.3954" fill="white"/>
<path d="M74.7929 69.1327L74.4618 70.1517L74.9713 70.3172" fill="white"/>
<path d="M74.7929 69.1327L75.1239 70.1517L74.6144 70.3172" fill="white"/>
<path d="M75.8118 69.873H74.7404V70.4087" fill="white"/>
<path d="M75.8118 69.873L74.945 70.5028L74.6302 70.0694" fill="white"/>
<path d="M73.7739 69.873L74.6407 70.5028L74.9556 70.0694" fill="white"/>
<path d="M73.7739 69.873H74.8453V70.4087" fill="white"/>
<path d="M75.4226 71.0709L75.0915 70.0519L74.582 70.2175" fill="white"/>
<path d="M75.4226 71.0709L74.5558 70.4412L74.8707 70.0078" fill="white"/>
<path d="M74.1631 71.0709L75.0299 70.4412L74.715 70.0078" fill="white"/>
<path d="M74.1631 71.0709L74.4942 70.0519L75.0037 70.2175" fill="white"/>
<path d="M73.8949 72.3266L73.63 73.1418L74.0376 73.2742" fill="white"/>
<path d="M73.8949 72.3266L74.1598 73.1418L73.7522 73.2742" fill="white"/>
<path d="M74.7101 72.9188H73.8529V73.3474" fill="white"/>
<path d="M74.7101 72.9188L74.0166 73.4227L73.7647 73.0759" fill="white"/>
<path d="M73.0797 72.9188L73.7731 73.4227L74.0251 73.0759" fill="white"/>
<path d="M73.0797 72.9188H73.9368V73.3474" fill="white"/>
<path d="M74.3987 73.8772L74.1338 73.062L73.7262 73.1944" fill="white"/>
<path d="M74.3987 73.8772L73.7053 73.3733L73.9572 73.0266" fill="white"/>
<path d="M73.3911 73.8772L74.0845 73.3733L73.8326 73.0266" fill="white"/>
<path d="M73.3911 73.8772L73.656 73.062L74.0635 73.1944" fill="white"/>
<path d="M99.6908 49.4082L99.2935 50.631L99.9049 50.8296" fill="white"/>
<path d="M99.6908 49.4082L100.088 50.631L99.4767 50.8296" fill="white"/>
<path d="M100.914 50.2966H99.6279V50.9395" fill="white"/>
<path d="M100.914 50.2966L99.8734 51.0523L99.4956 50.5323" fill="white"/>
<path d="M98.468 50.2966L99.5082 51.0523L99.8861 50.5323" fill="white"/>
<path d="M98.468 50.2966H99.7537V50.9395" fill="white"/>
<path d="M100.447 51.7341L100.049 50.5113L99.4378 50.7099" fill="white"/>
<path d="M100.447 51.7341L99.4064 50.9784L99.7842 50.4583" fill="white"/>
<path d="M98.9351 51.7341L99.9753 50.9784L99.5974 50.4583" fill="white"/>
<path d="M98.9351 51.7341L99.3324 50.5113L99.9438 50.7099" fill="white"/>
<path d="M111.405 69.2449L111.008 70.4677L111.619 70.6664" fill="white"/>
<path d="M111.405 69.2449L111.802 70.4677L111.191 70.6664" fill="white"/>
<path d="M112.628 70.1333H111.342V70.7762" fill="white"/>
<path d="M112.628 70.1333L111.588 70.8891L111.21 70.369" fill="white"/>
<path d="M110.182 70.1333L111.222 70.8891L111.6 70.369" fill="white"/>
<path d="M110.182 70.1333H111.468V70.7762" fill="white"/>
<path d="M112.161 71.5708L111.764 70.348L111.152 70.5467" fill="white"/>
<path d="M112.161 71.5708L111.121 70.8151L111.499 70.295" fill="white"/>
<path d="M110.649 71.5708L111.69 70.8151L111.312 70.295" fill="white"/>
<path d="M110.649 71.5708L111.047 70.348L111.658 70.5467" fill="white"/>
<path d="M115.568 69.9592L115.303 70.7744L115.711 70.9069" fill="white"/>
<path d="M115.568 69.9592L115.833 70.7744L115.426 70.9069" fill="white"/>
<path d="M116.384 70.5515H115.526V70.9801" fill="white"/>
<path d="M116.384 70.5515L115.69 71.0553L115.438 70.7086" fill="white"/>
<path d="M114.753 70.5515L115.447 71.0553L115.699 70.7086" fill="white"/>
<path d="M114.753 70.5515H115.61V70.9801" fill="white"/>
<path d="M116.072 71.5098L115.807 70.6946L115.4 70.8271" fill="white"/>
<path d="M116.072 71.5098L115.379 71.006L115.631 70.6593" fill="white"/>
<path d="M115.065 71.5098L115.758 71.006L115.506 70.6593" fill="white"/>
<path d="M115.065 71.5098L115.329 70.6946L115.737 70.8271" fill="white"/>
<path d="M112.63 72.1123L112.299 73.1313L112.808 73.2968" fill="white"/>
<path d="M112.63 72.1123L112.961 73.1313L112.451 73.2968" fill="white"/>
<path d="M113.649 72.8526H112.577V73.3883" fill="white"/>
<path d="M113.649 72.8526L112.782 73.4824L112.467 73.049" fill="white"/>
<path d="M111.611 72.8526L112.477 73.4824L112.792 73.049" fill="white"/>
<path d="M111.611 72.8526H112.682V73.3883" fill="white"/>
<path d="M113.259 74.0505L112.928 73.0315L112.419 73.1971" fill="white"/>
<path d="M113.259 74.0505L112.393 73.4207L112.707 72.9873" fill="white"/>
<path d="M112 74.0505L112.867 73.4207L112.552 72.9873" fill="white"/>
<path d="M112 74.0505L112.331 73.0315L112.84 73.1971" fill="white"/>
<path d="M105.405 78.398L105.074 79.417L105.584 79.5825" fill="white"/>
<path d="M105.405 78.398L105.736 79.417L105.227 79.5825" fill="white"/>
<path d="M106.424 79.1383H105.353V79.6741" fill="white"/>
<path d="M106.424 79.1383L105.557 79.7681L105.242 79.3347" fill="white"/>
<path d="M104.386 79.1383L105.253 79.7681L105.568 79.3347" fill="white"/>
<path d="M104.386 79.1383H105.458V79.6741" fill="white"/>
<path d="M106.035 80.3362L105.704 79.3172L105.194 79.4828" fill="white"/>
<path d="M106.035 80.3362L105.168 79.7065L105.483 79.2731" fill="white"/>
<path d="M104.775 80.3362L105.642 79.7065L105.327 79.2731" fill="white"/>
<path d="M104.775 80.3362L105.106 79.3172L105.616 79.4828" fill="white"/>
<path d="M105.364 81.6327L105.099 82.4479L105.507 82.5803" fill="white"/>
<path d="M105.364 81.6327L105.629 82.4479L105.222 82.5803" fill="white"/>
<path d="M106.179 82.225H105.322V82.6535" fill="white"/>
<path d="M106.179 82.225L105.486 82.7288L105.234 82.3821" fill="white"/>
<path d="M104.549 82.225L105.243 82.7288L105.494 82.3821" fill="white"/>
<path d="M104.549 82.225H105.406V82.6535" fill="white"/>
<path d="M105.868 83.1833L105.603 82.3681L105.196 82.5005" fill="white"/>
<path d="M105.868 83.1833L105.175 82.6795L105.427 82.3327" fill="white"/>
<path d="M104.86 83.1833L105.554 82.6795L105.302 82.3327" fill="white"/>
<path d="M104.86 83.1833L105.125 82.3681L105.533 82.5005" fill="white"/>
<path d="M108.385 76.2449L108.12 77.0601L108.527 77.1926" fill="white"/>
<path d="M108.385 76.2449L108.65 77.0601L108.242 77.1926" fill="white"/>
<path d="M109.2 76.8372H108.343V77.2658" fill="white"/>
<path d="M109.2 76.8372L108.506 77.341L108.255 76.9943" fill="white"/>
<path d="M107.57 76.8372L108.263 77.341L108.515 76.9943" fill="white"/>
<path d="M107.57 76.8372H108.427V77.2658" fill="white"/>
<path d="M108.889 77.7955L108.624 76.9803L108.216 77.1128" fill="white"/>
<path d="M108.889 77.7955L108.195 77.2917L108.447 76.945" fill="white"/>
<path d="M107.881 77.7955L108.574 77.2917L108.322 76.945" fill="white"/>
<path d="M107.881 77.7955L108.146 76.9803L108.553 77.1128" fill="white"/>
<path d="M110.793 74.5204L110.462 75.5394L110.971 75.705" fill="white"/>
<path d="M110.793 74.5204L111.124 75.5394L110.614 75.705" fill="white"/>
<path d="M111.812 75.2608H110.74V75.7965" fill="white"/>
<path d="M111.812 75.2608L110.945 75.8906L110.63 75.4572" fill="white"/>
<path d="M109.774 75.2608L110.641 75.8906L110.956 75.4572" fill="white"/>
<path d="M109.774 75.2608H110.845V75.7965" fill="white"/>
<path d="M111.423 76.4587L111.092 75.4397L110.582 75.6052" fill="white"/>
<path d="M111.423 76.4587L110.556 75.8289L110.871 75.3955" fill="white"/>
<path d="M110.163 76.4587L111.03 75.8289L110.715 75.3955" fill="white"/>
<path d="M110.163 76.4587L110.494 75.4397L111.004 75.6052" fill="white"/>
<path d="M105.283 75.6735L105.018 76.4887L105.425 76.6211" fill="white"/>
<path d="M105.283 75.6735L105.548 76.4887L105.14 76.6211" fill="white"/>
<path d="M106.098 76.2658H105.241V76.6944" fill="white"/>
<path d="M106.098 76.2658L105.404 76.7696L105.152 76.4229" fill="white"/>
<path d="M104.467 76.2658L105.161 76.7696L105.413 76.4229" fill="white"/>
<path d="M104.467 76.2658H105.325V76.6944" fill="white"/>
<path d="M105.786 77.2241L105.522 76.4089L105.114 76.5413" fill="white"/>
<path d="M105.786 77.2241L105.093 76.7203L105.345 76.3736" fill="white"/>
<path d="M104.779 77.2241L105.472 76.7203L105.22 76.3736" fill="white"/>
<path d="M104.779 77.2241L105.044 76.4089L105.451 76.5413" fill="white"/>
<path d="M78.9561 60.1531L78.625 61.1721L79.1345 61.3376" fill="white"/>
<path d="M78.9561 60.1531L79.2872 61.1721L78.7777 61.3376" fill="white"/>
<path d="M79.9751 60.8934H78.9037V61.4292" fill="white"/>
<path d="M79.9751 60.8934L79.1083 61.5232L78.7934 61.0898" fill="white"/>
<path d="M77.9371 60.8934L78.8039 61.5232L79.1188 61.0898" fill="white"/>
<path d="M77.9371 60.8934H79.0086V61.4292" fill="white"/>
<path d="M79.5859 62.0913L79.2548 61.0723L78.7453 61.2379" fill="white"/>
<path d="M79.5859 62.0913L78.7191 61.4616L79.034 61.0282" fill="white"/>
<path d="M78.3264 62.0913L79.1932 61.4616L78.8783 61.0282" fill="white"/>
<path d="M78.3264 62.0913L78.6574 61.0723L79.1669 61.2379" fill="white"/>
<path d="M98.548 57.6327L98.2831 58.4479L98.6907 58.5803" fill="white"/>
<path d="M98.548 57.6327L98.8128 58.4479L98.4052 58.5803" fill="white"/>
<path d="M99.3632 58.225H98.506V58.6535" fill="white"/>
<path d="M99.3632 58.225L98.6697 58.7288L98.4178 58.3821" fill="white"/>
<path d="M97.7328 58.225L98.4262 58.7288L98.6781 58.3821" fill="white"/>
<path d="M97.7328 58.225H98.5899V58.6535" fill="white"/>
<path d="M99.0518 59.1833L98.7869 58.3681L98.3793 58.5005" fill="white"/>
<path d="M99.0518 59.1833L98.3583 58.6795L98.6102 58.3327" fill="white"/>
<path d="M98.0441 59.1833L98.7376 58.6795L98.4857 58.3327" fill="white"/>
<path d="M98.0441 59.1833L98.309 58.3681L98.7166 58.5005" fill="white"/>
<path d="M90.3847 72.1837L89.9874 73.4065L90.5988 73.6052" fill="white"/>
<path d="M90.3847 72.1837L90.782 73.4065L90.1706 73.6052" fill="white"/>
<path d="M91.6075 73.0721H90.3218V73.715" fill="white"/>
<path d="M91.6075 73.0721L90.5673 73.8278L90.1895 73.3078" fill="white"/>
<path d="M89.1619 73.0721L90.2021 73.8278L90.5799 73.3078" fill="white"/>
<path d="M89.1619 73.0721H90.4476V73.715" fill="white"/>
<path d="M91.1404 74.5096L90.7431 73.2868L90.1317 73.4855" fill="white"/>
<path d="M91.1404 74.5096L90.1003 73.7539L90.4781 73.2338" fill="white"/>
<path d="M89.629 74.5096L90.6691 73.7539L90.2913 73.2338" fill="white"/>
<path d="M89.629 74.5096L90.0263 73.2868L90.6377 73.4855" fill="white"/>
<path d="M93.8541 66.4388L93.523 67.4578L94.0325 67.6234" fill="white"/>
<path d="M93.8541 66.4388L94.1852 67.4578L93.6757 67.6234" fill="white"/>
<path d="M94.8731 67.1792H93.8016V67.7149" fill="white"/>
<path d="M94.8731 67.1792L94.0063 67.8089L93.6914 67.3755" fill="white"/>
<path d="M92.8351 67.1792L93.7019 67.8089L94.0168 67.3755" fill="white"/>
<path d="M92.8351 67.1792H93.9065V67.7149" fill="white"/>
<path d="M94.4838 68.3771L94.1528 67.3581L93.6433 67.5236" fill="white"/>
<path d="M94.4838 68.3771L93.617 67.7473L93.9319 67.3139" fill="white"/>
<path d="M93.2243 68.3771L94.0911 67.7473L93.7762 67.3139" fill="white"/>
<path d="M93.2243 68.3771L93.5554 67.3581L94.0649 67.5236" fill="white"/>
<path d="M90.3847 63.7449L90.0536 64.7639L90.5631 64.9295" fill="white"/>
<path d="M90.3847 63.7449L90.7158 64.7639L90.2063 64.9295" fill="white"/>
<path d="M91.4037 64.4853H90.3323V65.021" fill="white"/>
<path d="M91.4037 64.4853L90.5369 65.115L90.222 64.6816" fill="white"/>
<path d="M89.3657 64.4853L90.2325 65.115L90.5474 64.6816" fill="white"/>
<path d="M89.3657 64.4853H90.4371V65.021" fill="white"/>
<path d="M91.0145 65.6832L90.6834 64.6642L90.1739 64.8297" fill="white"/>
<path d="M91.0145 65.6832L90.1477 65.0534L90.4625 64.62" fill="white"/>
<path d="M89.7549 65.6832L90.6217 65.0534L90.3068 64.62" fill="white"/>
<path d="M89.7549 65.6832L90.086 64.6642L90.5955 64.8297" fill="white"/>
<path d="M87.3643 66.6531L87.0994 67.4683L87.507 67.6007" fill="white"/>
<path d="M87.3643 66.6531L87.6292 67.4683L87.2216 67.6007" fill="white"/>
<path d="M88.1795 67.2454H87.3223V67.6739" fill="white"/>
<path d="M88.1795 67.2454L87.486 67.7492L87.2341 67.4025" fill="white"/>
<path d="M86.5491 67.2454L87.2425 67.7492L87.4944 67.4025" fill="white"/>
<path d="M86.5491 67.2454H87.4062V67.6739" fill="white"/>
<path d="M87.8681 68.2037L87.6032 67.3885L87.1956 67.5209" fill="white"/>
<path d="M87.8681 68.2037L87.1747 67.6999L87.4266 67.3531" fill="white"/>
<path d="M86.8605 68.2037L87.5539 67.6999L87.302 67.3531" fill="white"/>
<path d="M86.8605 68.2037L87.1253 67.3885L87.5329 67.5209" fill="white"/>
<path d="M88.8745 68.9796L88.6853 69.5619L88.9764 69.6565" fill="white"/>
<path d="M88.8745 68.9796L89.0637 69.5619L88.7725 69.6565" fill="white"/>
<path d="M89.4568 69.4027H88.8445V69.7088" fill="white"/>
<path d="M89.4568 69.4027L88.9615 69.7626L88.7815 69.5149" fill="white"/>
<path d="M88.2922 69.4027L88.7875 69.7626L88.9675 69.5149" fill="white"/>
<path d="M88.2922 69.4027H88.9045V69.7088" fill="white"/>
<path d="M89.2344 70.0872L89.0452 69.5049L88.754 69.5995" fill="white"/>
<path d="M89.2344 70.0872L88.739 69.7273L88.919 69.4797" fill="white"/>
<path d="M88.5146 70.0872L89.0099 69.7273L88.83 69.4797" fill="white"/>
<path d="M88.5146 70.0872L88.7038 69.5049L88.995 69.5995" fill="white"/>
<path d="M99.3643 79.1327L99.0332 80.1517L99.5427 80.3172" fill="white"/>
<path d="M99.3643 79.1327L99.6954 80.1517L99.1859 80.3172" fill="white"/>
<path d="M100.383 79.873H99.3118V80.4087" fill="white"/>
<path d="M100.383 79.873L99.5165 80.5028L99.2016 80.0694" fill="white"/>
<path d="M98.3453 79.873L99.2121 80.5028L99.527 80.0694" fill="white"/>
<path d="M98.3453 79.873H99.4167V80.4087" fill="white"/>
<path d="M99.994 81.0709L99.663 80.0519L99.1535 80.2175" fill="white"/>
<path d="M99.994 81.0709L99.1272 80.4412L99.4421 80.0078" fill="white"/>
<path d="M98.7345 81.0709L99.6013 80.4412L99.2864 80.0078" fill="white"/>
<path d="M98.7345 81.0709L99.0656 80.0519L99.5751 80.2175" fill="white"/>
<path d="M101.936 76.6939L101.671 77.5091L102.078 77.6415" fill="white"/>
<path d="M101.936 76.6939L102.201 77.5091L101.793 77.6415" fill="white"/>
<path d="M102.751 77.2862H101.894V77.7148" fill="white"/>
<path d="M102.751 77.2862L102.057 77.79L101.806 77.4433" fill="white"/>
<path d="M101.121 77.2862L101.814 77.79L102.066 77.4433" fill="white"/>
<path d="M101.121 77.2862H101.978V77.7148" fill="white"/>
<path d="M102.44 78.2445L102.175 77.4293L101.767 77.5617" fill="white"/>
<path d="M102.44 78.2445L101.746 77.7407L101.998 77.394" fill="white"/>
<path d="M101.432 78.2445L102.125 77.7407L101.873 77.394" fill="white"/>
<path d="M101.432 78.2445L101.697 77.4293L102.104 77.5617" fill="white"/>
<path d="M96.9969 75.9592L96.7321 76.7744L97.1397 76.9069" fill="white"/>
<path d="M96.9969 75.9592L97.2618 76.7744L96.8542 76.9069" fill="white"/>
<path d="M97.8121 76.5515H96.955V76.9801" fill="white"/>
<path d="M97.8121 76.5515L97.1187 77.0553L96.8668 76.7086" fill="white"/>
<path d="M96.1817 76.5515L96.8752 77.0553L97.1271 76.7086" fill="white"/>
<path d="M96.1817 76.5515H97.0389V76.9801" fill="white"/>
<path d="M97.5008 77.5098L97.2359 76.6946L96.8283 76.8271" fill="white"/>
<path d="M97.5008 77.5098L96.8073 77.006L97.0592 76.6593" fill="white"/>
<path d="M96.4931 77.5098L97.1866 77.006L96.9347 76.6593" fill="white"/>
<path d="M96.4931 77.5098L96.758 76.6946L97.1656 76.8271" fill="white"/>
<path d="M78.3439 74.6327L77.9466 75.8555L78.558 76.0541" fill="white"/>
<path d="M78.3439 74.6327L78.7412 75.8555L78.1298 76.0541" fill="white"/>
<path d="M79.5667 75.5211H78.2809V76.164" fill="white"/>
<path d="M79.5667 75.5211L78.5265 76.2768L78.1486 75.7567" fill="white"/>
<path d="M77.1211 75.5211L78.1613 76.2768L78.5391 75.7567" fill="white"/>
<path d="M77.1211 75.5211H78.4068V76.164" fill="white"/>
<path d="M79.0996 76.9586L78.7023 75.7358L78.0909 75.9344" fill="white"/>
<path d="M79.0996 76.9586L78.0594 76.2028L78.4373 75.6828" fill="white"/>
<path d="M77.5882 76.9586L78.6283 76.2028L78.2505 75.6828" fill="white"/>
<path d="M77.5882 76.9586L77.9855 75.7358L78.5969 75.9344" fill="white"/>
<path d="M90.3847 83.0409L90.2523 83.4485L90.4561 83.5147" fill="white"/>
<path d="M90.3847 83.0409L90.5171 83.4485L90.3133 83.5147" fill="white"/>
<path d="M90.7923 83.337H90.3637V83.5513" fill="white"/>
<path d="M90.7923 83.337L90.4456 83.5889L90.3196 83.4155" fill="white"/>
<path d="M89.9771 83.337L90.3238 83.5889L90.4498 83.4155" fill="white"/>
<path d="M89.9771 83.337H90.4057V83.5513" fill="white"/>
<path d="M90.6366 83.8162L90.5042 83.4086L90.3004 83.4748" fill="white"/>
<path d="M90.6366 83.8162L90.2899 83.5642L90.4158 83.3909" fill="white"/>
<path d="M90.1328 83.8162L90.4795 83.5642L90.3535 83.3909" fill="white"/>
<path d="M90.1328 83.8162L90.2652 83.4086L90.469 83.4748" fill="white"/>
</g>
<defs>
<clipPath id="clip0_909_237110">
<rect width="180" height="120" fill="white"/>
</clipPath>
</defs>
</svg>
