<svg width="180" height="120" viewBox="0 0 180 120" fill="none" xmlns="http://www.w3.org/2000/svg">
<g clip-path="url(#clip0_307_57849)">
<path d="M0 0H180V120H0V0Z" fill="#1E9A1C"/>
<path d="M18.8555 60L89.9983 105.429L161.141 60L89.9983 14.5714L18.8555 60Z" fill="#FDD406"/>
<path d="M89.8555 90C106.424 90 119.855 76.5685 119.855 60C119.855 43.4315 106.424 30 89.8555 30C73.2869 30 59.8555 43.4315 59.8555 60C59.8555 76.5685 73.2869 90 89.8555 90Z" fill="#0F3296"/>
<path d="M60.8086 52.4694C64.7127 51.7812 68.6945 51.4285 72.7127 51.4285C89.6546 51.4285 105.95 57.6981 118.497 68.9524C118.976 67.4188 119.335 65.8323 119.563 64.2038C106.492 53.227 89.9159 47.1428 72.7127 47.1428C69.244 47.1428 65.8008 47.3902 62.4067 47.8751C61.7551 49.3481 61.2186 50.8833 60.8086 52.4694Z" fill="white"/>
<path d="M73.0564 50.7116L75.6262 50.8013L75.6448 50.2711L73.5644 50.1984L73.59 49.4642L75.2217 49.5211L75.2388 49.0316L73.6071 48.9747L73.6271 48.4036L75.5851 48.472L75.6036 47.9417L73.1561 47.8562L73.0564 50.7116Z" fill="#1E9A1C"/>
<path fill-rule="evenodd" clip-rule="evenodd" d="M70.7753 50.7237L69.4286 50.7472L69.3787 47.8905L70.7255 47.867C70.8863 47.8642 71.046 47.8931 71.1956 47.952C71.3452 48.011 71.4818 48.0988 71.5974 48.2105C71.7131 48.3222 71.8057 48.4556 71.8698 48.6031C71.9339 48.7505 71.9683 48.9092 71.9712 49.07L71.9783 49.4781C71.9811 49.6388 71.9522 49.7986 71.8933 49.9482C71.8343 50.0978 71.7465 50.2344 71.6348 50.35C71.5231 50.4657 71.3897 50.5582 71.2422 50.6224C71.0948 50.6865 70.9361 50.7209 70.7753 50.7237ZM70.7253 50.1939L69.9499 50.2074L69.9185 48.4118L70.6939 48.3983C70.8996 48.3947 71.0982 48.4729 71.2462 48.6158C71.3941 48.7587 71.4793 48.9545 71.4829 49.1601L71.4871 49.405C71.4907 49.6106 71.4125 49.8093 71.2696 49.9572C71.1267 50.1052 70.9309 50.1903 70.7253 50.1939Z" fill="#1E9A1C"/>
<path fill-rule="evenodd" clip-rule="evenodd" d="M66.3369 50.9357L65.8075 50.9727L65.649 48.1197L67.2776 48.0058C67.5152 47.9892 67.7496 48.0677 67.9294 48.2239C68.1091 48.3801 68.2194 48.6014 68.236 48.839C68.2527 49.0765 68.1742 49.311 68.018 49.4907C67.97 49.5459 67.9159 49.5945 67.8572 49.6359C68.165 49.8707 68.208 50.4857 68.2302 50.8033L67.7416 50.8375C67.7225 50.5651 67.6882 50.0741 67.3994 49.7976L66.2628 49.8771L66.3369 50.9357ZM67.3252 49.2709L66.2258 49.3478L66.1746 48.6149L67.2739 48.538C67.3711 48.5312 67.467 48.5633 67.5406 48.6272C67.6141 48.6911 67.6592 48.7816 67.666 48.8788C67.6728 48.976 67.6407 49.0719 67.5768 49.1454C67.5129 49.219 67.4224 49.2641 67.3252 49.2709Z" fill="#1E9A1C"/>
<path fill-rule="evenodd" clip-rule="evenodd" d="M64.331 50.7046C64.1243 50.9999 63.8181 51.1891 63.4796 51.2307C63.1412 51.2723 62.7983 51.1627 62.5263 50.9262C62.2543 50.6897 62.0756 50.3455 62.0294 49.9695C61.9832 49.5934 62.0734 49.2162 62.2801 48.921C62.4867 48.6257 62.793 48.4364 63.1314 48.3949C63.4699 48.3533 63.8128 48.4628 64.0848 48.6994C64.3568 48.9359 64.5355 49.28 64.5817 49.6561C64.6278 50.0321 64.5377 50.4093 64.331 50.7046ZM63.9129 50.3779C63.7928 50.5623 63.6137 50.6796 63.415 50.704C63.2162 50.7285 63.014 50.658 62.853 50.5081C62.6919 50.3582 62.5851 50.1412 62.5561 49.9048C62.527 49.6684 62.5782 49.432 62.6982 49.2476C62.8182 49.0632 62.9973 48.9459 63.1961 48.9215C63.3949 48.8971 63.597 48.9676 63.7581 49.1175C63.9192 49.2674 64.026 49.4844 64.055 49.7208C64.084 49.9571 64.0329 50.1935 63.9129 50.3779Z" fill="#1E9A1C"/>
<path d="M77.1694 50.9086L76.6815 50.8659L76.9305 48.0196L77.6421 48.0818L78.0406 50.0834L78.7806 48.1815L79.4921 48.2437L79.2431 51.09L78.7552 51.0473L78.926 49.0956L78.1859 50.9975L77.7387 50.9584L77.3402 48.9568L77.1694 50.9086Z" fill="#1E9A1C"/>
<path d="M82.6015 51.5336L84.7134 51.8965L84.7963 51.4138L83.1671 51.1338L83.2777 50.4902L84.6052 50.7183L84.6882 50.2356L83.3607 50.0075L83.4367 49.565L85.0156 49.8363L85.0986 49.3535L83.0369 48.9993L82.6015 51.5336Z" fill="#1E9A1C"/>
<path fill-rule="evenodd" clip-rule="evenodd" d="M88.5404 52.7321L88.0267 52.5993L88.7815 49.8433L90.3622 50.2521C90.5928 50.3118 90.7902 50.4605 90.9111 50.6657C91.0319 50.8709 91.0663 51.1158 91.0067 51.3463C90.9471 51.5769 90.7983 51.7743 90.5931 51.8952C90.3879 52.0161 90.1431 52.0505 89.9125 51.9908L88.8061 51.7047L88.5404 52.7321ZM90.0059 51.4669L88.9389 51.191L89.1229 50.4797L90.1898 50.7556C90.2841 50.78 90.3649 50.8409 90.4144 50.9248C90.4638 51.0088 90.4779 51.1089 90.4535 51.2032C90.4291 51.2976 90.3682 51.3783 90.2843 51.4278C90.2003 51.4772 90.1002 51.4913 90.0059 51.4669Z" fill="#1E9A1C"/>
<path fill-rule="evenodd" clip-rule="evenodd" d="M91.5323 53.5344L92.0383 53.6939L92.3575 52.6818L93.4441 53.0245C93.6114 53.3876 93.4634 53.857 93.3813 54.1174L93.8484 54.2647C93.9442 53.961 94.1296 53.373 93.9292 53.0417C93.9991 53.0248 94.0672 52.9993 94.1321 52.9656C94.3433 52.8556 94.5022 52.6663 94.5738 52.4391C94.6454 52.212 94.6239 51.9657 94.5139 51.7545C94.404 51.5432 94.2146 51.3843 93.9875 51.3127L92.4304 50.8218L91.5323 53.5344ZM92.517 52.1758L93.568 52.5072C93.661 52.5365 93.7617 52.5277 93.8481 52.4827C93.9345 52.4377 93.9996 52.3602 94.0289 52.2673C94.0581 52.1744 94.0493 52.0736 94.0043 51.9872C93.9594 51.9008 93.8819 51.8358 93.789 51.8065L92.7379 51.4751L92.517 52.1758Z" fill="#1E9A1C"/>
<path fill-rule="evenodd" clip-rule="evenodd" d="M96.1879 55.102C96.5073 55.2214 96.8663 55.1949 97.186 55.0284C97.5057 54.8619 97.7598 54.569 97.8925 54.2141C98.0252 53.8592 98.0256 53.4715 97.8935 53.1361C97.7615 52.8007 97.5079 52.5452 97.1885 52.4258C96.8691 52.3063 96.5101 52.3328 96.1904 52.4993C95.8707 52.6658 95.6166 52.9587 95.4839 53.3136C95.3512 53.6685 95.3509 54.0563 95.4829 54.3917C95.6149 54.727 95.8685 54.9825 96.1879 55.102ZM96.3737 54.605C96.5613 54.6751 96.7743 54.6537 96.966 54.5456C97.1576 54.4375 97.3121 54.2514 97.3955 54.0283C97.4789 53.8052 97.4844 53.5634 97.4107 53.3561C97.337 53.1488 97.1903 52.9929 97.0027 52.9228C96.8151 52.8526 96.6021 52.874 96.4104 52.9821C96.2188 53.0903 96.0643 53.2764 95.9809 53.4994C95.8975 53.7225 95.8921 53.9643 95.9657 54.1716C96.0394 54.3789 96.1862 54.5348 96.3737 54.605Z" fill="#1E9A1C"/>
<path d="M101.358 54.5869C101.244 54.245 101.004 53.9766 100.691 53.8406C100.378 53.7047 100.018 53.7123 99.6905 53.8618C99.3625 54.0114 99.0934 54.2906 98.9423 54.638C98.7913 54.9855 98.7706 55.3727 98.8849 55.7146C98.9992 56.0564 99.2391 56.3248 99.5518 56.4608C99.8509 56.5909 100.193 56.5895 100.509 56.4583L100.356 56.8107L100.73 56.9735L101.287 55.6942C101.291 55.684 101.296 55.6737 101.3 55.6634L100.308 55.2321L100.145 55.6064L100.575 55.7933C100.51 55.8552 100.436 55.9069 100.358 55.9459C100.161 56.0439 99.947 56.054 99.7633 55.9742C99.5797 55.8943 99.4413 55.731 99.3786 55.5201C99.3159 55.3092 99.334 55.068 99.4289 54.8496C99.5239 54.6312 99.6879 54.4535 99.8849 54.3555C100.082 54.2575 100.296 54.2474 100.479 54.3272C100.663 54.4071 100.802 54.5704 100.864 54.7813C100.881 54.8371 100.892 54.8949 100.897 54.9539L101.424 55.1831C101.443 54.9801 101.421 54.7765 101.358 54.5869Z" fill="#1E9A1C"/>
<path fill-rule="evenodd" clip-rule="evenodd" d="M101.688 57.4201L102.163 57.6569L102.636 56.7071L103.656 57.2155C103.764 57.6003 103.545 58.0408 103.423 58.2852L103.861 58.5037C104.003 58.2188 104.278 57.667 104.132 57.3085C104.204 57.3027 104.275 57.2882 104.345 57.265C104.57 57.1895 104.757 57.0273 104.863 56.8141C104.97 56.601 104.987 56.3544 104.911 56.1285C104.836 55.9027 104.674 55.7161 104.46 55.6099L102.999 54.8814L101.688 57.4201ZM102.873 56.2323L103.859 56.724C103.946 56.7675 104.047 56.7745 104.14 56.7436C104.232 56.7127 104.308 56.6464 104.352 56.5592C104.395 56.472 104.402 56.3711 104.372 56.2787C104.341 56.1863 104.274 56.11 104.187 56.0665L103.201 55.5748L102.873 56.2323Z" fill="#1E9A1C"/>
<path d="M104.922 59.0637L107.16 60.3299L107.421 59.8681L105.61 58.843L105.971 58.2036L107.392 59.0075L107.634 58.5812L106.213 57.7773L106.494 57.2799L108.199 58.2447L108.46 57.7829L106.329 56.5769L104.922 59.0637Z" fill="#1E9A1C"/>
<path d="M109.437 61.191C109.093 60.9717 108.937 60.7032 109.091 60.4623L108.549 60.1168C108.163 60.7182 108.755 61.3128 109.15 61.565C109.615 61.8611 110.312 62.1353 110.712 61.5071C111.033 61.0031 110.544 60.5337 110.147 60.1518C109.873 59.8881 109.641 59.6661 109.75 59.5031C109.909 59.2535 110.126 59.3311 110.393 59.5011C110.668 59.6765 110.849 59.9247 110.684 60.1829L111.209 60.5173C111.596 59.929 111.099 59.4185 110.789 59.2211L110.749 59.1957C110.414 58.98 109.638 58.4814 109.177 59.1866C108.86 59.6741 109.311 60.1162 109.699 60.4971C109.992 60.7844 110.249 61.0368 110.115 61.2477C110.016 61.4024 109.781 61.4103 109.437 61.191Z" fill="#1E9A1C"/>
<path d="M112.156 62.4891C111.99 62.7217 112.131 62.998 112.464 63.235C112.796 63.472 113.03 63.4764 113.137 63.3271C113.283 63.1235 113.039 62.8579 112.761 62.5557C112.394 62.155 111.967 61.6899 112.309 61.2197C112.806 60.5396 113.555 61.0781 113.878 61.311L113.917 61.3385C114.216 61.5518 114.686 62.0876 114.269 62.6549L113.762 62.2935C113.94 62.0442 113.772 61.787 113.506 61.5973C113.249 61.4136 113.036 61.3248 112.865 61.5657C112.747 61.7228 112.967 61.9566 113.227 62.2343C113.604 62.6365 114.067 63.1308 113.72 63.6173C113.287 64.2237 112.606 63.9134 112.158 63.5934C111.776 63.3208 111.216 62.6961 111.632 62.1158L112.156 62.4891Z" fill="#1E9A1C"/>
<path fill-rule="evenodd" clip-rule="evenodd" d="M116.027 66.0149C115.671 66.0745 115.321 65.9887 115.055 65.7764C114.788 65.5641 114.625 65.2428 114.604 64.883C114.582 64.5232 114.702 64.1545 114.938 63.858C115.174 63.5615 115.506 63.3615 115.861 63.3019C116.217 63.2423 116.566 63.3281 116.833 63.5404C117.1 63.7527 117.262 64.074 117.284 64.4338C117.306 64.7936 117.186 65.1623 116.95 65.4588C116.714 65.7553 116.382 65.9553 116.027 66.0149ZM115.966 65.4877C115.751 65.5313 115.542 65.4858 115.385 65.3612C115.228 65.2365 115.137 65.0429 115.131 64.8229C115.125 64.603 115.205 64.3747 115.353 64.1883C115.501 64.002 115.706 63.8727 115.921 63.8291C116.137 63.7855 116.346 63.831 116.503 63.9557C116.66 64.0803 116.751 64.2739 116.757 64.4939C116.763 64.7138 116.683 64.9421 116.535 65.1285C116.387 65.3149 116.182 65.4441 115.966 65.4877Z" fill="#1E9A1C"/>
<path d="M65.8949 53.3266L65.4976 54.5494L66.109 54.748" fill="white"/>
<path d="M65.8949 53.3266L66.2922 54.5494L65.6808 54.748" fill="white"/>
<path d="M67.1177 54.215H65.8319V54.8578" fill="white"/>
<path d="M67.1177 54.215L66.0775 54.9707L65.6996 54.4506" fill="white"/>
<path d="M64.6721 54.215L65.7122 54.9707L66.0901 54.4506" fill="white"/>
<path d="M64.6721 54.215H65.9578V54.8578" fill="white"/>
<path d="M66.6506 55.6524L66.2533 54.4297L65.6419 54.6283" fill="white"/>
<path d="M66.6506 55.6524L65.6104 54.8967L65.9883 54.3766" fill="white"/>
<path d="M65.1391 55.6524L66.1793 54.8967L65.8014 54.3766" fill="white"/>
<path d="M65.1391 55.6524L65.5364 54.4297L66.1478 54.6283" fill="white"/>
<path d="M68.5479 65.9388L68.1506 67.1616L68.762 67.3603" fill="white"/>
<path d="M68.5479 65.9388L68.9452 67.1616L68.3338 67.3603" fill="white"/>
<path d="M69.7707 66.8272H68.485V67.4701" fill="white"/>
<path d="M69.7707 66.8272L68.7305 67.5829L68.3527 67.0629" fill="white"/>
<path d="M67.3251 66.8272L68.3653 67.5829L68.7432 67.0629" fill="white"/>
<path d="M67.3251 66.8272H68.6109V67.4701" fill="white"/>
<path d="M69.3037 68.2647L68.9063 67.0419L68.295 67.2406" fill="white"/>
<path d="M69.3037 68.2647L68.2635 67.509L68.6414 66.9889" fill="white"/>
<path d="M67.7922 68.2647L68.8324 67.509L68.4545 66.9889" fill="white"/>
<path d="M67.7922 68.2647L68.1895 67.0419L68.8009 67.2406" fill="white"/>
<path d="M64.8745 68.847L64.5434 69.866L65.0529 70.0315" fill="white"/>
<path d="M64.8745 68.847L65.2055 69.866L64.6961 70.0315" fill="white"/>
<path d="M65.8934 69.5873H64.822V70.123" fill="white"/>
<path d="M65.8934 69.5873L65.0266 70.2171L64.7118 69.7837" fill="white"/>
<path d="M63.8555 69.5873L64.7223 70.2171L65.0372 69.7837" fill="white"/>
<path d="M63.8555 69.5873H64.9269V70.123" fill="white"/>
<path d="M65.5042 70.7852L65.1731 69.7662L64.6636 69.9318" fill="white"/>
<path d="M65.5042 70.7852L64.6374 70.1554L64.9523 69.722" fill="white"/>
<path d="M64.2447 70.7852L65.1115 70.1554L64.7966 69.722" fill="white"/>
<path d="M64.2447 70.7852L64.5758 69.7662L65.0853 69.9318" fill="white"/>
<path d="M71.4867 64.7756L71.2975 65.3578L71.5886 65.4524" fill="white"/>
<path d="M71.4867 64.7756L71.6759 65.3578L71.3848 65.4524" fill="white"/>
<path d="M72.069 65.1986H71.4567V65.5047" fill="white"/>
<path d="M72.069 65.1986L71.5737 65.5585L71.3937 65.3108" fill="white"/>
<path d="M70.9044 65.1986L71.3997 65.5585L71.5797 65.3108" fill="white"/>
<path d="M70.9044 65.1986H71.5167V65.5047" fill="white"/>
<path d="M71.8466 65.8831L71.6574 65.3008L71.3662 65.3954" fill="white"/>
<path d="M71.8466 65.8831L71.3513 65.5232L71.5312 65.2756" fill="white"/>
<path d="M71.1268 65.8831L71.6222 65.5232L71.4422 65.2756" fill="white"/>
<path d="M71.1268 65.8831L71.316 65.3008L71.6072 65.3954" fill="white"/>
<path d="M74.7928 69.1327L74.4617 70.1517L74.9712 70.3172" fill="white"/>
<path d="M74.7928 69.1327L75.1239 70.1517L74.6144 70.3172" fill="white"/>
<path d="M75.8118 69.873H74.7404V70.4087" fill="white"/>
<path d="M75.8118 69.873L74.945 70.5028L74.6301 70.0694" fill="white"/>
<path d="M73.7738 69.873L74.6406 70.5028L74.9555 70.0694" fill="white"/>
<path d="M73.7738 69.873H74.8453V70.4087" fill="white"/>
<path d="M75.4226 71.0709L75.0915 70.0519L74.582 70.2175" fill="white"/>
<path d="M75.4226 71.0709L74.5558 70.4412L74.8707 70.0078" fill="white"/>
<path d="M74.1631 71.0709L75.0299 70.4412L74.715 70.0078" fill="white"/>
<path d="M74.1631 71.0709L74.4941 70.0519L75.0036 70.2175" fill="white"/>
<path d="M73.8949 72.3266L73.63 73.1418L74.0376 73.2742" fill="white"/>
<path d="M73.8949 72.3266L74.1597 73.1418L73.7521 73.2742" fill="white"/>
<path d="M74.7101 72.9188H73.8529V73.3474" fill="white"/>
<path d="M74.7101 72.9188L74.0166 73.4227L73.7647 73.0759" fill="white"/>
<path d="M73.0797 72.9188L73.7731 73.4227L74.025 73.0759" fill="white"/>
<path d="M73.0797 72.9188H73.9368V73.3474" fill="white"/>
<path d="M74.3987 73.8772L74.1338 73.062L73.7262 73.1944" fill="white"/>
<path d="M74.3987 73.8772L73.7052 73.3733L73.9571 73.0266" fill="white"/>
<path d="M73.391 73.8772L74.0845 73.3733L73.8326 73.0266" fill="white"/>
<path d="M73.391 73.8772L73.6559 73.062L74.0635 73.1944" fill="white"/>
<path d="M99.6908 49.4082L99.2935 50.631L99.9049 50.8296" fill="white"/>
<path d="M99.6908 49.4082L100.088 50.631L99.4767 50.8296" fill="white"/>
<path d="M100.914 50.2966H99.6279V50.9395" fill="white"/>
<path d="M100.914 50.2966L99.8734 51.0523L99.4955 50.5323" fill="white"/>
<path d="M98.468 50.2966L99.5082 51.0523L99.886 50.5323" fill="white"/>
<path d="M98.468 50.2966H99.7537V50.9395" fill="white"/>
<path d="M100.447 51.7341L100.049 50.5113L99.4378 50.7099" fill="white"/>
<path d="M100.447 51.7341L99.4063 50.9784L99.7842 50.4583" fill="white"/>
<path d="M98.9351 51.7341L99.9752 50.9784L99.5974 50.4583" fill="white"/>
<path d="M98.9351 51.7341L99.3324 50.5113L99.9438 50.7099" fill="white"/>
<path d="M111.405 69.2449L111.008 70.4677L111.619 70.6664" fill="white"/>
<path d="M111.405 69.2449L111.802 70.4677L111.191 70.6664" fill="white"/>
<path d="M112.628 70.1333H111.342V70.7762" fill="white"/>
<path d="M112.628 70.1333L111.588 70.8891L111.21 70.369" fill="white"/>
<path d="M110.182 70.1333L111.222 70.8891L111.6 70.369" fill="white"/>
<path d="M110.182 70.1333H111.468V70.7762" fill="white"/>
<path d="M112.161 71.5708L111.763 70.348L111.152 70.5467" fill="white"/>
<path d="M112.161 71.5708L111.121 70.8151L111.498 70.295" fill="white"/>
<path d="M110.649 71.5708L111.69 70.8151L111.312 70.295" fill="white"/>
<path d="M110.649 71.5708L111.047 70.348L111.658 70.5467" fill="white"/>
<path d="M115.568 69.9592L115.303 70.7744L115.711 70.9069" fill="white"/>
<path d="M115.568 69.9592L115.833 70.7744L115.426 70.9069" fill="white"/>
<path d="M116.384 70.5515H115.526V70.9801" fill="white"/>
<path d="M116.384 70.5515L115.69 71.0553L115.438 70.7086" fill="white"/>
<path d="M114.753 70.5515L115.447 71.0553L115.699 70.7086" fill="white"/>
<path d="M114.753 70.5515H115.61V70.9801" fill="white"/>
<path d="M116.072 71.5098L115.807 70.6946L115.4 70.8271" fill="white"/>
<path d="M116.072 71.5098L115.379 71.006L115.631 70.6593" fill="white"/>
<path d="M115.065 71.5098L115.758 71.006L115.506 70.6593" fill="white"/>
<path d="M115.065 71.5098L115.329 70.6946L115.737 70.8271" fill="white"/>
<path d="M112.63 72.1123L112.298 73.1313L112.808 73.2968" fill="white"/>
<path d="M112.63 72.1123L112.961 73.1313L112.451 73.2968" fill="white"/>
<path d="M113.649 72.8526H112.577V73.3883" fill="white"/>
<path d="M113.649 72.8526L112.782 73.4824L112.467 73.049" fill="white"/>
<path d="M111.611 72.8526L112.477 73.4824L112.792 73.049" fill="white"/>
<path d="M111.611 72.8526H112.682V73.3883" fill="white"/>
<path d="M113.259 74.0505L112.928 73.0315L112.419 73.1971" fill="white"/>
<path d="M113.259 74.0505L112.393 73.4207L112.707 72.9873" fill="white"/>
<path d="M112 74.0505L112.867 73.4207L112.552 72.9873" fill="white"/>
<path d="M112 74.0505L112.331 73.0315L112.84 73.1971" fill="white"/>
<path d="M105.405 78.398L105.074 79.417L105.583 79.5825" fill="white"/>
<path d="M105.405 78.398L105.736 79.417L105.227 79.5825" fill="white"/>
<path d="M106.424 79.1383H105.353V79.6741" fill="white"/>
<path d="M106.424 79.1383L105.557 79.7681L105.242 79.3347" fill="white"/>
<path d="M104.386 79.1383L105.253 79.7681L105.568 79.3347" fill="white"/>
<path d="M104.386 79.1383H105.458V79.6741" fill="white"/>
<path d="M106.035 80.3362L105.704 79.3172L105.194 79.4828" fill="white"/>
<path d="M106.035 80.3362L105.168 79.7065L105.483 79.2731" fill="white"/>
<path d="M104.775 80.3362L105.642 79.7065L105.327 79.2731" fill="white"/>
<path d="M104.775 80.3362L105.106 79.3172L105.616 79.4828" fill="white"/>
<path d="M105.364 81.6327L105.099 82.4479L105.507 82.5803" fill="white"/>
<path d="M105.364 81.6327L105.629 82.4479L105.222 82.5803" fill="white"/>
<path d="M106.179 82.225H105.322V82.6535" fill="white"/>
<path d="M106.179 82.225L105.486 82.7288L105.234 82.3821" fill="white"/>
<path d="M104.549 82.225L105.243 82.7288L105.494 82.3821" fill="white"/>
<path d="M104.549 82.225H105.406V82.6535" fill="white"/>
<path d="M105.868 83.1833L105.603 82.3681L105.196 82.5005" fill="white"/>
<path d="M105.868 83.1833L105.175 82.6795L105.427 82.3327" fill="white"/>
<path d="M104.86 83.1833L105.554 82.6795L105.302 82.3327" fill="white"/>
<path d="M104.86 83.1833L105.125 82.3681L105.533 82.5005" fill="white"/>
<path d="M108.385 76.2449L108.12 77.0601L108.527 77.1926" fill="white"/>
<path d="M108.385 76.2449L108.65 77.0601L108.242 77.1926" fill="white"/>
<path d="M109.2 76.8372H108.343V77.2658" fill="white"/>
<path d="M109.2 76.8372L108.506 77.341L108.255 76.9943" fill="white"/>
<path d="M107.569 76.8372L108.263 77.341L108.515 76.9943" fill="white"/>
<path d="M107.569 76.8372H108.427V77.2658" fill="white"/>
<path d="M108.888 77.7955L108.624 76.9803L108.216 77.1128" fill="white"/>
<path d="M108.888 77.7955L108.195 77.2917L108.447 76.945" fill="white"/>
<path d="M107.881 77.7955L108.574 77.2917L108.322 76.945" fill="white"/>
<path d="M107.881 77.7955L108.146 76.9803L108.553 77.1128" fill="white"/>
<path d="M110.793 74.5204L110.462 75.5394L110.971 75.705" fill="white"/>
<path d="M110.793 74.5204L111.124 75.5394L110.614 75.705" fill="white"/>
<path d="M111.812 75.2608H110.74V75.7965" fill="white"/>
<path d="M111.812 75.2608L110.945 75.8906L110.63 75.4572" fill="white"/>
<path d="M109.774 75.2608L110.641 75.8906L110.956 75.4572" fill="white"/>
<path d="M109.774 75.2608H110.845V75.7965" fill="white"/>
<path d="M111.423 76.4587L111.092 75.4397L110.582 75.6052" fill="white"/>
<path d="M111.423 76.4587L110.556 75.8289L110.871 75.3955" fill="white"/>
<path d="M110.163 76.4587L111.03 75.8289L110.715 75.3955" fill="white"/>
<path d="M110.163 76.4587L110.494 75.4397L111.004 75.6052" fill="white"/>
<path d="M105.283 75.6735L105.018 76.4887L105.425 76.6211" fill="white"/>
<path d="M105.283 75.6735L105.547 76.4887L105.14 76.6211" fill="white"/>
<path d="M106.098 76.2658H105.241V76.6944" fill="white"/>
<path d="M106.098 76.2658L105.404 76.7696L105.152 76.4229" fill="white"/>
<path d="M104.467 76.2658L105.161 76.7696L105.413 76.4229" fill="white"/>
<path d="M104.467 76.2658H105.325V76.6944" fill="white"/>
<path d="M105.786 77.2241L105.522 76.4089L105.114 76.5413" fill="white"/>
<path d="M105.786 77.2241L105.093 76.7203L105.345 76.3736" fill="white"/>
<path d="M104.779 77.2241L105.472 76.7203L105.22 76.3736" fill="white"/>
<path d="M104.779 77.2241L105.044 76.4089L105.451 76.5413" fill="white"/>
<path d="M78.9561 60.1531L78.625 61.1721L79.1345 61.3376" fill="white"/>
<path d="M78.9561 60.1531L79.2872 61.1721L78.7777 61.3376" fill="white"/>
<path d="M79.9751 60.8934H78.9037V61.4292" fill="white"/>
<path d="M79.9751 60.8934L79.1083 61.5232L78.7934 61.0898" fill="white"/>
<path d="M77.9371 60.8934L78.8039 61.5232L79.1188 61.0898" fill="white"/>
<path d="M77.9371 60.8934H79.0085V61.4292" fill="white"/>
<path d="M79.5859 62.0913L79.2548 61.0723L78.7453 61.2379" fill="white"/>
<path d="M79.5859 62.0913L78.7191 61.4616L79.0339 61.0282" fill="white"/>
<path d="M78.3263 62.0913L79.1931 61.4616L78.8782 61.0282" fill="white"/>
<path d="M78.3263 62.0913L78.6574 61.0723L79.1669 61.2379" fill="white"/>
<path d="M98.5479 57.6327L98.2831 58.4479L98.6907 58.5803" fill="white"/>
<path d="M98.5479 57.6327L98.8128 58.4479L98.4052 58.5803" fill="white"/>
<path d="M99.3631 58.225H98.506V58.6535" fill="white"/>
<path d="M99.3631 58.225L98.6697 58.7288L98.4178 58.3821" fill="white"/>
<path d="M97.7327 58.225L98.4262 58.7288L98.6781 58.3821" fill="white"/>
<path d="M97.7327 58.225H98.5899V58.6535" fill="white"/>
<path d="M99.0517 59.1833L98.7869 58.3681L98.3793 58.5005" fill="white"/>
<path d="M99.0517 59.1833L98.3583 58.6795L98.6102 58.3327" fill="white"/>
<path d="M98.0441 59.1833L98.7376 58.6795L98.4856 58.3327" fill="white"/>
<path d="M98.0441 59.1833L98.309 58.3681L98.7166 58.5005" fill="white"/>
<path d="M90.3847 72.1837L89.9874 73.4065L90.5987 73.6052" fill="white"/>
<path d="M90.3847 72.1837L90.782 73.4065L90.1706 73.6052" fill="white"/>
<path d="M91.6074 73.0721H90.3217V73.715" fill="white"/>
<path d="M91.6074 73.0721L90.5673 73.8278L90.1894 73.3078" fill="white"/>
<path d="M89.1619 73.0721L90.202 73.8278L90.5799 73.3078" fill="white"/>
<path d="M89.1619 73.0721H90.4476V73.715" fill="white"/>
<path d="M91.1404 74.5096L90.7431 73.2868L90.1317 73.4855" fill="white"/>
<path d="M91.1404 74.5096L90.1002 73.7539L90.4781 73.2338" fill="white"/>
<path d="M89.6289 74.5096L90.6691 73.7539L90.2912 73.2338" fill="white"/>
<path d="M89.6289 74.5096L90.0262 73.2868L90.6376 73.4855" fill="white"/>
<path d="M93.854 66.4388L93.523 67.4578L94.0325 67.6234" fill="white"/>
<path d="M93.854 66.4388L94.1851 67.4578L93.6756 67.6234" fill="white"/>
<path d="M94.873 67.1792H93.8016V67.7149" fill="white"/>
<path d="M94.873 67.1792L94.0062 67.8089L93.6913 67.3755" fill="white"/>
<path d="M92.8351 67.1792L93.7019 67.8089L94.0167 67.3755" fill="white"/>
<path d="M92.8351 67.1792H93.9065V67.7149" fill="white"/>
<path d="M94.4838 68.3771L94.1527 67.3581L93.6432 67.5236" fill="white"/>
<path d="M94.4838 68.3771L93.617 67.7473L93.9319 67.3139" fill="white"/>
<path d="M93.2243 68.3771L94.0911 67.7473L93.7762 67.3139" fill="white"/>
<path d="M93.2243 68.3771L93.5554 67.3581L94.0649 67.5236" fill="white"/>
<path d="M90.3847 63.7449L90.0536 64.7639L90.5631 64.9295" fill="white"/>
<path d="M90.3847 63.7449L90.7157 64.7639L90.2063 64.9295" fill="white"/>
<path d="M91.4036 64.4853H90.3322V65.021" fill="white"/>
<path d="M91.4036 64.4853L90.5368 65.115L90.222 64.6816" fill="white"/>
<path d="M89.3657 64.4853L90.2325 65.115L90.5474 64.6816" fill="white"/>
<path d="M89.3657 64.4853H90.4371V65.021" fill="white"/>
<path d="M91.0144 65.6832L90.6833 64.6642L90.1738 64.8297" fill="white"/>
<path d="M91.0144 65.6832L90.1476 65.0534L90.4625 64.62" fill="white"/>
<path d="M89.7549 65.6832L90.6217 65.0534L90.3068 64.62" fill="white"/>
<path d="M89.7549 65.6832L90.086 64.6642L90.5955 64.8297" fill="white"/>
<path d="M87.3643 66.6531L87.0994 67.4683L87.507 67.6007" fill="white"/>
<path d="M87.3643 66.6531L87.6291 67.4683L87.2215 67.6007" fill="white"/>
<path d="M88.1794 67.2454H87.3223V67.6739" fill="white"/>
<path d="M88.1794 67.2454L87.486 67.7492L87.2341 67.4025" fill="white"/>
<path d="M86.5491 67.2454L87.2425 67.7492L87.4944 67.4025" fill="white"/>
<path d="M86.5491 67.2454H87.4062V67.6739" fill="white"/>
<path d="M87.8681 68.2037L87.6032 67.3885L87.1956 67.5209" fill="white"/>
<path d="M87.8681 68.2037L87.1746 67.6999L87.4265 67.3531" fill="white"/>
<path d="M86.8604 68.2037L87.5539 67.6999L87.302 67.3531" fill="white"/>
<path d="M86.8604 68.2037L87.1253 67.3885L87.5329 67.5209" fill="white"/>
<path d="M88.8745 68.9796L88.6853 69.5619L88.9764 69.6565" fill="white"/>
<path d="M88.8745 68.9796L89.0637 69.5619L88.7725 69.6565" fill="white"/>
<path d="M89.4567 69.4027H88.8445V69.7088" fill="white"/>
<path d="M89.4567 69.4027L88.9614 69.7626L88.7815 69.5149" fill="white"/>
<path d="M88.2922 69.4027L88.7875 69.7626L88.9674 69.5149" fill="white"/>
<path d="M88.2922 69.4027H88.9044V69.7088" fill="white"/>
<path d="M89.2343 70.0872L89.0451 69.5049L88.754 69.5995" fill="white"/>
<path d="M89.2343 70.0872L88.739 69.7273L88.9189 69.4797" fill="white"/>
<path d="M88.5146 70.0872L89.0099 69.7273L88.83 69.4797" fill="white"/>
<path d="M88.5146 70.0872L88.7038 69.5049L88.9949 69.5995" fill="white"/>
<path d="M99.3643 79.1327L99.0332 80.1517L99.5427 80.3172" fill="white"/>
<path d="M99.3643 79.1327L99.6953 80.1517L99.1858 80.3172" fill="white"/>
<path d="M100.383 79.873H99.3118V80.4087" fill="white"/>
<path d="M100.383 79.873L99.5164 80.5028L99.2015 80.0694" fill="white"/>
<path d="M98.3453 79.873L99.2121 80.5028L99.527 80.0694" fill="white"/>
<path d="M98.3453 79.873H99.4167V80.4087" fill="white"/>
<path d="M99.994 81.0709L99.6629 80.0519L99.1534 80.2175" fill="white"/>
<path d="M99.994 81.0709L99.1272 80.4412L99.4421 80.0078" fill="white"/>
<path d="M98.7345 81.0709L99.6013 80.4412L99.2864 80.0078" fill="white"/>
<path d="M98.7345 81.0709L99.0656 80.0519L99.5751 80.2175" fill="white"/>
<path d="M101.936 76.6939L101.671 77.5091L102.078 77.6415" fill="white"/>
<path d="M101.936 76.6939L102.201 77.5091L101.793 77.6415" fill="white"/>
<path d="M102.751 77.2862H101.894V77.7148" fill="white"/>
<path d="M102.751 77.2862L102.057 77.79L101.806 77.4433" fill="white"/>
<path d="M101.12 77.2862L101.814 77.79L102.066 77.4433" fill="white"/>
<path d="M101.12 77.2862H101.978V77.7148" fill="white"/>
<path d="M102.439 78.2445L102.175 77.4293L101.767 77.5617" fill="white"/>
<path d="M102.439 78.2445L101.746 77.7407L101.998 77.394" fill="white"/>
<path d="M101.432 78.2445L102.125 77.7407L101.873 77.394" fill="white"/>
<path d="M101.432 78.2445L101.697 77.4293L102.104 77.5617" fill="white"/>
<path d="M96.9969 75.9592L96.732 76.7744L97.1396 76.9069" fill="white"/>
<path d="M96.9969 75.9592L97.2618 76.7744L96.8542 76.9069" fill="white"/>
<path d="M97.8121 76.5515H96.955V76.9801" fill="white"/>
<path d="M97.8121 76.5515L97.1187 77.0553L96.8667 76.7086" fill="white"/>
<path d="M96.1817 76.5515L96.8752 77.0553L97.1271 76.7086" fill="white"/>
<path d="M96.1817 76.5515H97.0389V76.9801" fill="white"/>
<path d="M97.5007 77.5098L97.2359 76.6946L96.8283 76.8271" fill="white"/>
<path d="M97.5007 77.5098L96.8073 77.006L97.0592 76.6593" fill="white"/>
<path d="M96.4931 77.5098L97.1865 77.006L96.9346 76.6593" fill="white"/>
<path d="M96.4931 77.5098L96.758 76.6946L97.1656 76.8271" fill="white"/>
<path d="M78.3438 74.6327L77.9465 75.8555L78.5579 76.0541" fill="white"/>
<path d="M78.3438 74.6327L78.7412 75.8555L78.1298 76.0541" fill="white"/>
<path d="M79.5666 75.5211H78.2809V76.164" fill="white"/>
<path d="M79.5666 75.5211L78.5265 76.2768L78.1486 75.7567" fill="white"/>
<path d="M77.1211 75.5211L78.1612 76.2768L78.5391 75.7567" fill="white"/>
<path d="M77.1211 75.5211H78.4068V76.164" fill="white"/>
<path d="M79.0996 76.9586L78.7023 75.7358L78.0909 75.9344" fill="white"/>
<path d="M79.0996 76.9586L78.0594 76.2028L78.4373 75.6828" fill="white"/>
<path d="M77.5881 76.9586L78.6283 76.2028L78.2504 75.6828" fill="white"/>
<path d="M77.5881 76.9586L77.9854 75.7358L78.5968 75.9344" fill="white"/>
<path d="M90.3847 83.0409L90.2522 83.4485L90.456 83.5147" fill="white"/>
<path d="M90.3847 83.0409L90.5171 83.4485L90.3133 83.5147" fill="white"/>
<path d="M90.7923 83.337H90.3637V83.5513" fill="white"/>
<path d="M90.7923 83.337L90.4455 83.5889L90.3196 83.4155" fill="white"/>
<path d="M89.9771 83.337L90.3238 83.5889L90.4497 83.4155" fill="white"/>
<path d="M89.9771 83.337H90.4056V83.5513" fill="white"/>
<path d="M90.6366 83.8162L90.5041 83.4086L90.3003 83.4748" fill="white"/>
<path d="M90.6366 83.8162L90.2898 83.5642L90.4158 83.3909" fill="white"/>
<path d="M90.1328 83.8162L90.4795 83.5642L90.3535 83.3909" fill="white"/>
<path d="M90.1328 83.8162L90.2652 83.4086L90.469 83.4748" fill="white"/>
</g>
<defs>
<clipPath id="clip0_307_57849">
<rect width="180" height="120" fill="white"/>
</clipPath>
</defs>
</svg>
