<svg width="180" height="120" viewBox="0 0 180 120" fill="none" xmlns="http://www.w3.org/2000/svg">
<g clip-path="url(#clip0_909_238512)">
<path d="M45 120H0V0H45V120Z" fill="#D91C16"/>
<path d="M135 0H180V120H135V0Z" fill="#D91C16"/>
<path d="M45 0H135V120H45V0Z" fill="white"/>
<path d="M91.8871 102.5L90.9435 84.4048C90.9298 84.1072 90.983 83.8104 91.0992 83.5361C91.2154 83.2618 91.3917 83.017 91.615 82.8199C91.8383 82.6227 92.103 82.4781 92.3896 82.3968C92.6762 82.3155 92.9774 82.2995 93.271 82.35L111.282 85.5161L108.85 78.8064C108.751 78.5395 108.739 78.2483 108.814 77.9738C108.889 77.6993 109.048 77.4552 109.269 77.2758L129 61.2984L124.555 59.2226C124.255 59.0807 124.017 58.8341 123.885 58.5291C123.754 58.2241 123.739 57.8817 123.842 57.5661L127.742 45.5726L116.377 47.9839C116.07 48.0481 115.749 48.0038 115.47 47.8586C115.191 47.7134 114.971 47.4761 114.847 47.1871L112.645 42.0081L103.776 51.5274C103.573 51.7413 103.306 51.8837 103.016 51.9332C102.725 51.9828 102.426 51.9368 102.164 51.8021C101.902 51.6675 101.69 51.4514 101.561 51.1864C101.432 50.9214 101.393 50.6217 101.448 50.3323L105.726 28.2742L98.8694 32.2371C98.7084 32.3314 98.5297 32.3917 98.3445 32.4142C98.1593 32.4367 97.9714 32.4209 97.7925 32.3679C97.6137 32.3148 97.4476 32.2256 97.3046 32.1057C97.1616 31.9858 97.0448 31.8378 96.9613 31.671L90 18L83.0387 31.671C82.9552 31.8378 82.8384 31.9858 82.6954 32.1057C82.5524 32.2256 82.3863 32.3148 82.2075 32.3679C82.0286 32.4209 81.8407 32.4367 81.6555 32.4142C81.4703 32.3917 81.2916 32.3314 81.1306 32.2371L74.2742 28.2742L78.5516 50.3323C78.6073 50.6217 78.5676 50.9214 78.4386 51.1864C78.3095 51.4514 78.098 51.6675 77.8358 51.8021C77.5736 51.9368 77.2748 51.9828 76.9843 51.9332C76.6937 51.8837 76.427 51.7413 76.2242 51.5274L67.3548 42.0081L65.1532 47.1871C65.0292 47.4761 64.809 47.7134 64.5301 47.8586C64.2511 48.0038 63.9305 48.0481 63.6226 47.9839L52.2581 45.5726L56.1581 57.5661C56.2614 57.8817 56.246 58.2241 56.1147 58.5291C55.9835 58.8341 55.7454 59.0807 55.4452 59.2226L51 61.2984L70.7306 77.2758C70.9516 77.4552 71.1109 77.6993 71.1861 77.9738C71.2613 78.2483 71.2487 78.5395 71.15 78.8064L68.7177 85.5161L86.729 82.35C87.0226 82.2995 87.3238 82.3155 87.6104 82.3968C87.897 82.4781 88.1617 82.6227 88.385 82.8199C88.6083 83.017 88.7846 83.2618 88.9008 83.5361C89.017 83.8104 89.0702 84.1072 89.0564 84.4048L88.1129 102.5H91.8871Z" fill="#D91C16"/>
</g>
<defs>
<clipPath id="clip0_909_238512">
<rect width="180" height="120" fill="white"/>
</clipPath>
</defs>
</svg>
