<svg width="180" height="120" viewBox="0 0 180 120" fill="none" xmlns="http://www.w3.org/2000/svg">
<g clip-path="url(#clip0_909_223944)">
<path d="M0 0H180V120H0" fill="#D91C16"/>
<path d="M57.3469 6.47845L56.9643 10.8209L60.9759 12.5267L56.7277 13.5046L56.3451 17.8471L54.1022 14.109L49.8541 15.087L52.7161 11.7988L50.4733 8.06078L54.4849 9.76662L57.3469 6.47845Z" fill="#FDD406"/>
<path d="M24.999 12L29.0403 24.4377H42.1181L31.5379 32.1246L35.5792 44.5623L24.999 36.8754L14.4189 44.5623L18.4601 32.1246L7.88 24.4377H20.9578L24.999 12Z" fill="#FDD406"/>
<path d="M69.2678 23.6759L71.3056 19.8223L67.3919 21.7421L64.3566 18.6132L64.9731 22.9287L61.0594 24.8485L65.3541 25.5958L65.9706 29.9112L68.0084 26.0576L72.3031 26.8048L69.2678 23.6759Z" fill="#FDD406"/>
<path d="M72.6352 39.9425L69.2027 42.6296L70.6975 46.7245L67.0812 44.2903L63.6486 46.9774L64.8462 42.7859L61.2299 40.3517L65.5863 40.1954L66.7839 36.0039L68.2788 40.0988L72.6352 39.9425Z" fill="#FDD406"/>
<path d="M56.9137 52.7404L57.116 48.3858L54.3928 51.7899L50.3138 50.2518L52.7097 53.8937L49.9865 57.2977L54.1905 56.1444L56.5863 59.7862L56.7886 55.4317L60.9926 54.2784L56.9137 52.7404Z" fill="#FDD406"/>
</g>
<defs>
<clipPath id="clip0_909_223944">
<rect width="180" height="120" fill="white"/>
</clipPath>
</defs>
</svg>
