<svg width="180" height="120" viewBox="0 0 180 120" fill="none" xmlns="http://www.w3.org/2000/svg">
<path d="M0 120H180V0H0V120Z" fill="#0F3296"/>
<path d="M180 60L180 91H0V60H180Z" fill="white"/>
<path d="M0 81H180V71H0V81Z" fill="#D91C16"/>
<path d="M40.4868 80.4585L41.757 84.361H45.8701L42.5433 86.774L43.8144 90.6772L40.4868 88.265L37.1587 90.6772L38.4302 86.774L35.1027 84.361H39.2149M40.146 60.0333L41.4171 63.935H45.5302L42.2026 66.3467L43.4736 70.2491L40.146 67.8374L36.8184 70.2491L38.0895 66.3467L34.7627 63.935H38.875M98.3004 60.0461L99.5714 63.94H103.685L100.357 66.3475L101.628 70.2414L98.3004 67.8348L94.9728 70.2414L96.2438 66.3475L92.9163 63.94H97.0285" fill="#FDD406"/>
<path d="M97.9212 80.4696L99.1922 84.3644H103.306L99.9785 86.7718L101.25 90.6665L97.9214 88.2599L94.5946 90.6665L95.8649 86.7718L92.5381 84.3644H96.6504" fill="#FDD406"/>
<path d="M69.218 39.0301L70.4891 42.9419H74.603L71.2748 45.3592L72.5464 49.271L69.2183 46.8537L65.8907 49.271L67.1617 45.3592L63.835 42.9419H67.9467" fill="#FDD406"/>
<path d="M69.2308 100.318L70.501 104.23H74.6141L71.2874 106.647L72.5584 110.559L69.2308 108.142L65.9027 110.559L67.1743 106.647L63.8467 104.23H67.959" fill="#FDD406"/>
<path d="M51.2395 44.8631L52.5105 48.7749H56.6244L53.2963 51.1922L54.5679 55.104L51.2398 52.6867L47.9122 55.104L49.1832 51.1922L45.8564 48.7749H49.9682" fill="#FDD406"/>
<path d="M87.1725 94.4988L88.4427 98.4106H92.5566L89.229 100.828L90.5006 104.74L87.1725 102.323L83.8449 104.74L85.1159 100.828L81.7883 98.4106H85.9006M51.8675 94.9622L53.1386 98.874H57.2517L53.9241 101.291L55.1951 105.204L51.8675 102.786L48.5399 105.204L49.811 101.291L46.4834 98.874H50.5965M86.6517 44.4149L87.9228 48.3267H92.0359L88.7091 50.744L89.9801 54.6558L86.652 52.2385L83.3244 54.6558L84.5955 50.744L81.2687 48.3267H85.381" fill="#FDD406"/>
</svg>
