<svg width="180" height="120" viewBox="0 0 180 120" fill="none" xmlns="http://www.w3.org/2000/svg">
<g clip-path="url(#clip0_354_119)">
<path d="M0 0H180V120H0V0Z" fill="#021455"/>
<path d="M0 0H180V120L0 0Z" fill="#1E9A1C"/>
<path d="M90.0021 81.6719C101.971 81.6719 111.674 71.969 111.674 59.9999C111.674 48.0308 101.971 38.3279 90.0021 38.3279C78.033 38.3279 68.3301 48.0308 68.3301 59.9999C68.3301 71.969 78.033 81.6719 90.0021 81.6719Z" fill="#FDD406"/>
<path d="M76.754 50.2559C78.242 52.2959 80.474 55.7039 82.298 54.8159C83.714 54.8159 84.434 54.9119 84.626 55.8479C87.962 56.4239 93.554 55.0079 97.01 50.4719C97.01 50.4719 97.298 50.5199 97.202 48.7919C97.226 48.0479 98.234 48.1919 98.258 48.4319C98.402 48.8159 98.378 49.0799 98.57 49.1039C99.002 48.9599 99.578 47.9999 100.082 47.3999C100.226 47.1359 100.154 46.8479 100.178 46.5119C100.442 45.8639 101.09 46.0079 101.21 46.3439C101.33 46.5599 101.33 46.7279 101.45 46.9439C102.098 47.3759 103.298 46.9679 103.37 46.9679C103.49 46.4399 103.826 46.4879 103.826 46.4879C104.258 46.3919 104.09 46.4399 104.378 46.5839C104.114 49.4639 104.954 49.5839 104.882 51.0719C104.906 52.7279 104.378 53.1839 104.378 53.8079C104.546 54.5759 106.97 54.5999 106.13 55.2479C105.386 55.6559 106.13 56.3999 105.002 56.6879C101.714 58.3679 101.066 59.7839 101.066 59.7839C101.066 59.7839 100.25 61.3439 100.154 61.3439C99.602 62.3759 98.906 61.8239 98.522 62.3279C98.33 62.9759 98.114 64.3919 98.498 65.1119C98.69 66.1199 98.474 66.6719 98.234 67.6799C98.018 69.7919 97.178 70.1039 97.082 70.8479C96.698 71.6399 97.154 75.3599 96.794 75.3599C94.346 75.4079 92.45 74.8799 91.49 74.6879C92.426 70.6079 92.066 67.0319 92.066 66.6719C91.826 63.7679 87.698 64.4639 87.074 64.0799C86.546 63.9599 86.234 63.5519 86.042 63.3599C85.466 63.2879 85.25 63.1679 84.65 63.0959C84.362 63.2399 84.53 63.3839 83.882 63.5999C82.226 63.7919 81.506 62.1599 81.506 62.1599C81.578 61.6079 77.81 62.2799 75.746 61.7999C74.906 62.2799 74.546 63.6479 73.85 63.8159C73.826 64.2479 72.722 63.4559 72.482 63.0479C72.434 61.8239 73.562 61.2719 73.562 61.2719C74.45 60.6479 74.978 60.5519 75.41 60.1199C75.626 59.0399 75.506 58.2479 75.962 57.4559C76.346 56.8319 76.922 57.1199 77.306 56.8559C77.714 56.5919 77.906 54.7679 77.522 54.2879L75.77 52.7039C75.242 51.1439 76.418 50.1599 76.754 50.2559Z" fill="#1E9A1C"/>
<path d="M176.083 37.1061C175.408 36.7202 174.945 37.0289 174.038 36.7202C173.286 36.4694 173.421 36.1993 172.765 35.9871C171.993 35.7362 171.626 36.0642 170.295 36.1993C169.832 36.2379 169.099 36.2958 168.674 36.2379C166.957 36.0063 165.607 33.3437 165.047 31.3178C164.295 28.6938 164.816 26.8995 164.468 23.1178C164.391 22.2689 164.198 21.034 163.735 19.6641C163.407 18.6801 162.751 17.1366 159.568 13.4321C156.037 9.34172 153.22 7.065 152.467 6.46688C151.271 5.50217 150.21 4.76899 149.438 4.24805C149.554 5.44429 149.824 7.21936 150.48 9.24525C151.232 11.5991 152.159 13.2777 153.046 14.8792C154.532 17.5418 158.275 24.1597 157.754 26.0891C157.715 26.2049 157.6 26.6101 157.484 27.2082C157.329 27.9992 157.291 28.6552 157.272 29.099C156.789 28.9447 156.056 28.6745 155.188 28.2501C153.586 27.459 152.544 26.6294 152.024 26.2242C150.596 25.1437 149.207 24.6613 146.447 23.658C142.782 22.3267 139.347 21.8058 136.588 21.6321C138.325 24.1597 140.023 25.8576 141.277 26.9188C143.611 28.9254 146.081 30.2953 147.296 30.9706C148.782 31.8002 149.4 32.0317 150.943 33.0157C153.316 34.54 154.223 35.524 154.802 36.2958C155.516 37.2412 156.172 38.1094 156.326 39.3828C156.48 40.6177 156.133 41.949 155.091 43.6083C152.081 48.3739 146.312 50.998 144.557 51.7504C142.357 52.6959 138.903 54.1622 133.752 54.8954C129.854 55.4549 123.661 55.7636 116.098 53.7184C116.889 54.0657 117.776 54.413 118.741 54.7217C119.783 55.0497 120.748 55.2813 121.635 55.4549C121.693 55.4742 120.4 55.5128 119.088 55.2234C117.506 54.8761 116.252 54.2587 115.384 53.7377C116.04 54.2587 117.062 54.9726 118.374 55.5514C120.072 56.3039 121.809 56.6512 126.941 56.6705C130.028 56.6898 131.572 56.6898 133.096 56.5354C137.456 56.0916 140.717 55.0304 143.804 53.9693C146.409 53.0817 148.628 52.3293 151.503 50.8436C155.651 48.6827 157.619 46.8304 162.23 44.9589C163.677 44.38 164.41 44.0713 165.337 43.8012C168.076 42.9909 169.118 43.2031 171.009 42.1419C172.707 41.1965 173.247 40.2318 173.402 39.9424C173.652 39.4793 173.691 39.1899 173.961 38.8426C174.675 37.9358 175.929 37.8972 176.894 38.0129C176.778 37.7621 176.508 37.3762 176.083 37.1061ZM172.379 37.9937C172.263 38.148 172.051 38.2059 171.877 38.1673C171.626 38.0901 171.453 37.82 171.472 37.492L170.893 37.1833H172.379C172.553 37.4341 172.533 37.7814 172.379 37.9937Z" fill="#FDD406"/>
<path d="M38.0891 58.2214L35.607 55.9138L33.1055 58.202L33.3769 54.8279L30.0416 54.2849L32.8534 52.3845L31.1857 49.437L34.4241 50.4454L35.6845 47.304L36.9062 50.4648L40.1446 49.4952L38.4381 52.4233L41.2111 54.3625L37.8564 54.8473L38.0891 58.2214ZM46.854 86.2615L44.178 84.4775L41.5796 86.3585L42.491 83.3334L39.8537 81.5106L43.0921 81.433L44.0617 78.4273L45.1476 81.3942L48.386 81.3555L45.8263 83.2752L46.854 86.2615ZM38.5739 110.404L36.0918 108.096L33.5902 110.365L33.8617 106.991L30.5264 106.448L33.3382 104.548L31.6705 101.6L34.9089 102.609L36.1693 99.4671L37.391 102.628L40.6294 101.658L38.9229 104.586L41.6959 106.526L38.3412 107.01L38.5739 110.404ZM16.3512 82.1311L13.8691 79.8235L11.3676 82.0923L11.6391 78.7182L8.30371 78.1752L11.1155 76.2749L9.44781 73.3274L12.6862 74.3357L13.9466 71.1943L15.1683 74.3551L18.4067 73.3855L16.7002 76.3137L19.4732 78.2528L16.1185 78.7376L16.3512 82.1311ZM59.1095 74.7236L56.6274 72.3966L54.1259 74.6848L54.3973 71.3107L51.062 70.7677L53.8738 68.8673L52.2061 65.9198L55.4445 66.9282L56.7049 63.7867L57.9266 66.9476L61.165 65.978L59.4585 68.9061L62.2315 70.8453L58.8768 71.33L59.1095 74.7236Z" fill="white"/>
</g>
<defs>
<clipPath id="clip0_354_119">
<rect width="180" height="120" fill="white"/>
</clipPath>
</defs>
</svg>
