<svg width="180" height="120" viewBox="0 0 180 120" fill="none" xmlns="http://www.w3.org/2000/svg">
<g clip-path="url(#clip0_909_217097)">
<path d="M0 0H180V120H0V0Z" fill="#005801"/>
<path d="M0 45H180V60H0V45ZM80 0H90V120H80V0Z" fill="#FDD406"/>
<path d="M0 60H180V75H0V60ZM90 0H100V120H90V0Z" fill="white"/>
<path d="M0 55H180V65H0V55ZM86.6667 0H93.3333V120H86.6667V0Z" fill="black"/>
<path d="M90 90C106.569 90 120 76.5685 120 60C120 43.4315 106.569 30 90 30C73.4315 30 60 43.4315 60 60C60 76.5685 73.4315 90 90 90Z" fill="#D91C16"/>
<path d="M90 33.3234L90.9383 36.21H93.9717L91.5167 37.9934L92.455 40.8784L90 39.095L87.545 40.8784L88.4833 37.9934L86.0283 36.21H89.0617L90 33.3234Z" fill="#005801"/>
<path d="M105.68 38.4182L104.743 41.3051L107.197 43.088L104.162 43.0877L103.226 45.9733L102.288 43.0875L99.2533 43.0873L101.708 41.3048L100.77 38.419L103.224 40.202L105.68 38.4182Z" fill="#005801"/>
<path d="M115.371 51.7565L112.916 53.5409L113.853 56.4258L111.398 54.642L108.944 56.426L109.882 53.54L107.427 51.7563L110.461 51.7572L111.398 48.8712L112.336 51.7561L115.371 51.7565Z" fill="#005801"/>
<path d="M115.371 68.2436L112.336 68.244L111.398 71.1288L110.461 68.2429L107.427 68.2438L109.882 66.46L108.944 63.5741L111.398 65.358L113.853 63.5743L112.916 66.4591L115.371 68.2436Z" fill="#005801"/>
<path d="M105.68 81.5819L103.224 79.7981L100.77 81.581L101.708 78.6953L99.2533 76.9128L102.288 76.9125L103.226 74.0268L104.162 76.9123L107.197 76.9121L104.743 78.695L105.68 81.5819Z" fill="#005801"/>
<path d="M90 86.6767L89.0617 83.79H86.0283L88.4834 82.0067L87.545 79.1217L90 80.905L92.455 79.1217L91.5167 82.0067L93.9717 83.79H90.9384L90 86.6767Z" fill="#005801"/>
<path d="M74.3199 81.5819L75.2575 78.695L72.8035 76.9121L75.8378 76.9123L76.7744 74.0268L77.7124 76.9125L80.7467 76.9128L78.2918 78.6953L79.2298 81.581L76.7757 79.7981L74.3199 81.5819Z" fill="#005801"/>
<path d="M64.629 68.2436L67.0844 66.4591L66.1471 63.5743L68.6018 65.358L71.0556 63.5741L70.1182 66.46L72.5729 68.2438L69.5391 68.2429L68.6017 71.1288L67.6643 68.244L64.629 68.2436Z" fill="#005801"/>
<path d="M64.629 51.7565L67.6643 51.7561L68.6017 48.8712L69.5391 51.7572L72.5729 51.7563L70.1182 53.54L71.0556 56.426L68.6018 54.642L66.1471 56.4258L67.0844 53.5409L64.629 51.7565Z" fill="#005801"/>
<path d="M74.3199 38.4182L76.7757 40.202L79.2298 38.419L78.2918 41.3048L80.7467 43.0873L77.7124 43.0875L76.7744 45.9733L75.8378 43.0877L72.8035 43.088L75.2575 41.3051L74.3199 38.4182Z" fill="#005801"/>
<path fill-rule="evenodd" clip-rule="evenodd" d="M90 32.9999L91.011 36.11H94.2795L91.6343 38.0315L92.6453 41.1402L90 39.2186L87.3547 41.1402L88.3658 38.0315L85.7205 36.11H88.989L90 32.9999ZM90 33.6468L89.1343 36.31H86.3362L88.6009 37.9552L87.7353 40.6165L90 38.9714L92.2647 40.6165L91.3991 37.9552L93.6639 36.31H90.8657L90 33.6468ZM105.87 38.1564L104.86 41.2668L107.504 43.188L104.235 43.1877L103.226 46.297L102.215 43.1875L98.9454 43.1872L101.591 41.2666L100.58 38.1572L103.224 40.0784L105.87 38.1564ZM74.1297 38.1564L76.7757 40.0784L79.42 38.1572L78.4094 41.2666L81.0546 43.1872L77.785 43.1875L76.7744 46.297L75.7651 43.1877L72.4957 43.188L75.1399 41.2668L74.1297 38.1564ZM105.49 38.6799L103.224 40.3256L100.961 38.6809L101.826 41.343L99.5612 42.9873L102.36 42.9875L103.226 45.6496L104.09 42.9877L106.889 42.988L104.625 41.3433L105.49 38.6799ZM74.51 38.6799L75.375 41.3433L73.1113 42.988L75.9105 42.9877L76.7745 45.6496L77.6397 42.9875L80.4388 42.9873L78.1743 41.343L79.0395 38.6809L76.7757 40.3256L74.51 38.6799ZM68.6017 48.5476L69.6118 51.6571L72.8807 51.6562L70.2357 53.5782L71.2458 56.6879L68.6017 54.7657L65.9568 56.6876L66.9669 53.5791L64.3214 51.6565L67.5917 51.6561L68.6017 48.5476ZM111.398 48.5476L112.408 51.6561L115.679 51.6565L113.033 53.5791L114.043 56.6876L111.398 54.7657L108.754 56.6879L109.764 53.5782L107.119 51.6562L110.388 51.6571L111.398 48.5476ZM111.398 49.1949L110.534 51.8572L107.735 51.8564L109.999 53.5018L109.135 56.164L111.398 54.5184L113.663 56.1639L112.798 53.5027L115.063 51.8564L112.263 51.8561L111.398 49.1949ZM68.6017 49.1949L67.737 51.8561L64.9366 51.8564L67.202 53.5027L66.3373 56.1639L68.6018 54.5184L70.8654 56.164L70.0006 53.5018L72.265 51.8564L69.4665 51.8572L68.6017 49.1949ZM108.754 63.3122L111.398 65.2344L114.043 63.3124L113.033 66.4209L115.679 68.3435L112.408 68.3439L111.398 71.4525L110.388 68.3429L107.119 68.3439L109.764 66.4218L108.754 63.3122ZM71.2458 63.3122L70.2357 66.4218L72.8807 68.3439L69.6118 68.3429L68.6017 71.4525L67.5917 68.3439L64.3214 68.3435L66.9669 66.4209L65.9568 63.3124L68.6017 65.2344L71.2458 63.3122ZM109.135 63.836L109.999 66.4982L107.735 68.1437L110.534 68.1429L111.398 70.8052L112.263 68.144L115.063 68.1436L112.798 66.4973L113.663 63.8361L111.398 65.4817L109.135 63.836ZM70.8654 63.836L68.6018 65.4817L66.3373 63.8361L67.202 66.4973L64.9366 68.1436L67.737 68.144L68.6017 70.8052L69.4665 68.1429L72.265 68.1437L70.0006 66.4982L70.8654 63.836ZM76.7744 73.7031L77.785 76.8125L81.0546 76.8128L78.4094 78.7335L79.42 81.8429L76.7757 79.9217L74.1297 81.8436L75.1399 78.7332L72.4957 76.812L75.7651 76.8123L76.7744 73.7031ZM103.226 73.7031L104.235 76.8123L107.504 76.812L104.86 78.7332L105.87 81.8436L103.224 79.9217L100.58 81.8429L101.591 78.7335L98.9454 76.8128L102.215 76.8125L103.226 73.7031ZM76.7745 74.3505L75.9105 77.0123L73.1113 77.0121L75.375 78.6568L74.51 81.3202L76.7757 79.6745L79.0395 81.3192L78.1743 78.6571L80.4388 77.0128L77.6397 77.0125L76.7745 74.3505ZM103.226 74.3505L102.36 77.0125L99.5612 77.0128L101.826 78.6571L100.961 81.3192L103.224 79.6745L105.49 81.3202L104.625 78.6568L106.889 77.0121L104.09 77.0123L103.226 74.3505ZM87.3547 78.8598L90 80.7814L92.6453 78.8598L91.6343 81.9685L94.2795 83.89H91.011L90 87.0002L88.989 83.89H85.7205L88.3658 81.9685L87.3547 78.8598ZM87.7353 79.3835L88.6009 82.0449L86.3362 83.69H89.1343L90 86.3532L90.8657 83.69H93.6639L91.3991 82.0449L92.2647 79.3835L90 81.0286L87.7353 79.3835Z" fill="black"/>
<path d="M92.3177 68.0579C92.658 72.9246 93.7378 76.8135 94.7295 76.7442C95.7212 76.6748 96.2493 72.6734 95.909 67.8068C95.5687 62.9402 94.4889 59.0512 93.4972 59.1206C92.5055 59.1899 91.9774 63.1913 92.3177 68.0579Z" fill="#005801"/>
<path fill-rule="evenodd" clip-rule="evenodd" d="M93.8332 59.3182C93.7151 59.2151 93.6044 59.1715 93.5012 59.1788C93.398 59.186 93.2945 59.2445 93.1919 59.3631C93.0891 59.4818 92.9914 59.6562 92.9008 59.8835C92.7198 60.3379 92.5722 60.9912 92.4658 61.7979C92.253 63.4103 92.2059 65.6232 92.3759 68.0539C92.5459 70.4845 92.9004 72.6693 93.3356 74.2365C93.5533 75.0205 93.7903 75.6469 94.0328 76.0717C94.1542 76.2842 94.2752 76.4433 94.3935 76.5465C94.5116 76.6496 94.6222 76.6932 94.7255 76.686C94.8287 76.6788 94.9322 76.6202 95.0348 76.5017C95.1375 76.383 95.2353 76.2086 95.3258 75.9813C95.5069 75.5268 95.6544 74.8736 95.7609 74.0669C95.9737 72.4544 96.0207 70.2415 95.8508 67.8109C95.6808 65.3803 95.3262 63.1954 94.8911 61.6283C94.6734 60.8443 94.4364 60.2179 94.1939 59.7931C94.0725 59.5806 93.9515 59.4215 93.8332 59.3182ZM95.0035 61.5971C95.4413 63.1738 95.7968 65.3667 95.9671 67.8027C96.1375 70.2388 96.0907 72.4598 95.8766 74.0821C95.7696 74.8928 95.6205 75.557 95.4342 76.0244C95.3412 76.258 95.2376 76.4456 95.123 76.578C95.0082 76.7106 94.8783 76.7923 94.7336 76.8024C94.5889 76.8125 94.4488 76.7497 94.3168 76.6344C94.1848 76.5193 94.0562 76.3479 93.9315 76.1295C93.682 75.6925 93.4419 75.0555 93.2231 74.2677C92.7854 72.691 92.4299 70.498 92.2595 68.062C92.0892 65.626 92.136 63.4049 92.3501 61.7826C92.4571 60.972 92.6062 60.3078 92.7925 59.8403C92.8855 59.6067 92.9891 59.4191 93.1037 59.2867C93.2184 59.1542 93.3484 59.0725 93.4931 59.0624C93.6378 59.0523 93.7778 59.115 93.9099 59.2303C94.0418 59.3455 94.1705 59.5169 94.2952 59.7352C94.5447 60.1722 94.7848 60.8092 95.0035 61.5971Z" fill="black"/>
<path d="M93.9707 68.0426C94.311 72.9092 95.4355 76.7951 96.4823 76.7219C97.529 76.6487 98.1018 72.6441 97.7614 67.7775C97.4211 62.9109 96.2967 59.025 95.2499 59.0982C94.2031 59.1714 93.6304 63.176 93.9707 68.0426Z" fill="#005801"/>
<path fill-rule="evenodd" clip-rule="evenodd" d="M95.6072 59.2955C95.4829 59.1928 95.3652 59.1487 95.2539 59.1564C95.1427 59.1642 95.0322 59.2243 94.9235 59.3433C94.8145 59.4626 94.7107 59.6374 94.6142 59.8651C94.4215 60.3201 94.2633 60.9739 94.1479 61.7811C93.9171 63.3946 93.8589 65.6081 94.0289 68.0385C94.1988 70.469 94.5645 72.6528 95.0176 74.2185C95.2442 75.0017 95.4919 75.6272 95.7461 76.051C95.8732 76.263 96.0003 76.4217 96.1249 76.5246C96.2492 76.6273 96.367 76.6715 96.4782 76.6637C96.5894 76.6559 96.6999 76.5958 96.8086 76.4768C96.9177 76.3575 97.0215 76.1827 97.1179 75.9551C97.3106 75.5 97.4688 74.8462 97.5843 74.039C97.815 72.4255 97.8732 70.2121 97.7032 67.7816C97.5333 65.3511 97.1676 63.1673 96.7145 61.6017C96.4879 60.8184 96.2402 60.1929 95.986 59.7691C95.8589 59.5572 95.7318 59.3985 95.6072 59.2955ZM96.8266 61.5692C97.2826 63.1449 97.6493 65.3373 97.8196 67.7735C97.99 70.2096 97.932 72.4317 97.6997 74.0555C97.5837 74.8669 97.4237 75.5321 97.2253 76.0006C97.1261 76.2347 97.0161 76.4227 96.8948 76.5555C96.7732 76.6885 96.6368 76.7695 96.4863 76.7801C96.3358 76.7906 96.1895 76.7293 96.0506 76.6145C95.912 76.5 95.7768 76.3291 95.646 76.111C95.3843 75.6747 95.1333 75.0382 94.9055 74.2509C94.4495 72.6752 94.0828 70.4828 93.9125 68.0467C93.7421 65.6105 93.8001 63.3884 94.0324 61.7646C94.1484 60.9532 94.3084 60.288 94.5068 59.8196C94.606 59.5854 94.716 59.3974 94.8374 59.2646C94.9589 59.1316 95.0953 59.0506 95.2458 59.04C95.3963 59.0295 95.5426 59.0908 95.6815 59.2056C95.8202 59.3202 95.9553 59.4911 96.0861 59.7091C96.3478 60.1454 96.5988 60.7819 96.8266 61.5692Z" fill="black"/>
<path d="M93.5342 68.4908C93.9105 73.8717 94.8929 78.1864 95.7285 78.1279C96.5641 78.0695 96.9364 73.6601 96.5602 68.2793C96.1839 62.8984 95.2015 58.5837 94.3659 58.6422C93.5303 58.7006 93.158 63.11 93.5342 68.4908Z" fill="#005801"/>
<path fill-rule="evenodd" clip-rule="evenodd" d="M94.6408 58.8572C94.5377 58.7394 94.4472 58.695 94.37 58.7004C94.2927 58.7058 94.2094 58.7624 94.1237 58.8934C94.0388 59.023 93.9591 59.2148 93.8866 59.4652C93.7416 59.9655 93.6289 60.6858 93.5538 61.5755C93.4036 63.354 93.4044 65.7984 93.5924 68.4868C93.7804 71.1752 94.1198 73.5959 94.516 75.3362C94.7142 76.2067 94.9261 76.9044 95.1393 77.3796C95.246 77.6175 95.3516 77.7963 95.4536 77.9129C95.5567 78.0307 95.6472 78.0751 95.7244 78.0697C95.8017 78.0643 95.885 78.0077 95.9708 77.8767C96.0556 77.7471 96.1353 77.5553 96.2078 77.3049C96.3528 76.8046 96.4655 76.0843 96.5407 75.1946C96.6908 73.4161 96.69 70.9717 96.502 68.2833C96.314 65.5949 95.9747 63.1742 95.5784 61.4339C95.3802 60.5634 95.1683 59.8657 94.9552 59.3905C94.8484 59.1526 94.7428 58.9738 94.6408 58.8572ZM95.6922 61.408C96.0901 63.1557 96.4301 65.5827 96.6184 68.2752C96.8066 70.9676 96.8077 73.4183 96.6569 75.2044C96.5815 76.097 96.468 76.8262 96.3199 77.3373C96.2459 77.5926 96.1624 77.7969 96.0684 77.9406C95.9753 78.0829 95.8642 78.1769 95.7326 78.1861C95.6009 78.1953 95.4779 78.1177 95.3658 77.9897C95.2528 77.8605 95.1416 77.6698 95.0328 77.4273C94.815 76.9418 94.6011 76.2355 94.4022 75.3621C94.0043 73.6144 93.6643 71.1874 93.476 68.4949C93.2878 65.8025 93.2867 63.3518 93.4375 61.5657C93.5129 60.6731 93.6264 59.9439 93.7745 59.4328C93.8485 59.1775 93.932 58.9732 94.026 58.8295C94.1192 58.6872 94.2302 58.5932 94.3619 58.584C94.4935 58.5748 94.6165 58.6524 94.7286 58.7804C94.8416 58.9096 94.9528 59.1003 95.0616 59.3428C95.2794 59.8283 95.4933 60.5346 95.6922 61.408Z" fill="black"/>
<path d="M97.3167 74.4667C94.6333 74.75 82.9 74.8834 82.4 74.5167C81.9 74.15 81.15 72.6 81.15 72.5167C82.6833 72.45 82.0167 71.6334 82.8 71.2C83.5667 70.75 84.6667 71.05 85 71.5834C85.3333 72.1334 85.0667 72.6667 85.4833 72.6834C85.9167 72.6834 94.25 72.2834 97.3167 72.5C97.8167 72.5334 98.2 72.9834 98.2 73.4834C98.2 73.9834 97.8167 74.4167 97.3167 74.4667Z" fill="#784B26"/>
<path fill-rule="evenodd" clip-rule="evenodd" d="M84.0506 71.0801C83.6489 70.9969 83.1977 71.0342 82.8295 71.2503L82.8282 71.2511L82.8282 71.2511C82.5423 71.4092 82.4664 71.6132 82.3862 71.8288C82.3627 71.8919 82.3388 71.956 82.3092 72.0203C82.2442 72.1612 82.1521 72.2943 81.973 72.3946C81.8083 72.487 81.5745 72.5492 81.2295 72.5709C81.2318 72.5766 81.2343 72.5826 81.237 72.5889C81.2579 72.6388 81.2887 72.7067 81.3276 72.7875C81.4052 72.9492 81.5139 73.1611 81.6383 73.3818C81.7627 73.6026 81.9022 73.8315 82.0413 74.0275C82.1813 74.2247 82.3174 74.3838 82.4345 74.4696C82.4413 74.4746 82.4594 74.4833 82.4951 74.4935C82.5292 74.5032 82.5741 74.5128 82.63 74.5221C82.7418 74.5408 82.8929 74.5579 83.0792 74.5733C83.4516 74.6041 83.9602 74.6278 84.566 74.6451C85.7772 74.6797 87.3739 74.6886 89.0392 74.6771C92.3709 74.6542 95.9722 74.55 97.3105 74.4087L97.3108 74.4086C97.7804 74.3617 98.1416 73.954 98.1416 73.4833C98.1416 73.011 97.7792 72.5893 97.3128 72.5582L97.3125 72.5582C95.7826 72.4501 92.9357 72.4958 90.4142 72.5687C88.8201 72.6149 87.3553 72.6719 86.4398 72.7075C85.9092 72.7282 85.5631 72.7417 85.4833 72.7417H85.481L85.481 72.7416C85.3616 72.7369 85.2807 72.6932 85.2297 72.6131C85.183 72.5398 85.1659 72.4417 85.1526 72.341C85.1495 72.3179 85.1466 72.2943 85.1436 72.2701C85.1197 72.0759 85.0915 71.8471 84.9503 71.6139C84.795 71.3657 84.4539 71.1636 84.0506 71.0801ZM84.0743 70.9658C84.4959 71.0531 84.8714 71.2675 85.0494 71.5524L85.0499 71.5531L85.0499 71.5531C85.205 71.8091 85.2359 72.0627 85.2595 72.2565C85.2625 72.2805 85.2653 72.3036 85.2682 72.3257C85.2819 72.4291 85.2972 72.5019 85.3281 72.5505C85.3546 72.592 85.3963 72.6212 85.4845 72.625C85.5655 72.6249 85.9069 72.6116 86.43 72.5912C87.3429 72.5556 88.8093 72.4984 90.4108 72.4521C92.9309 72.3792 95.7838 72.3333 97.3206 72.4418C97.8542 72.4775 98.2583 72.9557 98.2583 73.4833C98.2583 74.0126 97.853 74.4716 97.3226 74.5247C95.9775 74.6667 92.3706 74.7709 89.04 74.7938C87.374 74.8052 85.7758 74.7964 84.5626 74.7617C83.9561 74.7444 83.4451 74.7206 83.0696 74.6896C82.882 74.6741 82.7272 74.6567 82.6108 74.6372C82.5526 74.6275 82.503 74.617 82.4632 74.6057C82.425 74.5949 82.3899 74.5817 82.3655 74.5637C82.2325 74.4662 82.0874 74.2941 81.9462 74.095C81.804 73.8946 81.6622 73.662 81.5367 73.4391C81.411 73.216 81.301 73.0019 81.2224 72.838C81.1831 72.7561 81.1514 72.6864 81.1294 72.6341C81.1185 72.6081 81.1096 72.5858 81.1035 72.5681C81.1004 72.5594 81.0977 72.5511 81.0958 72.5437C81.0942 72.5378 81.0916 72.5274 81.0916 72.5167V72.4608L81.1474 72.4584C81.5264 72.4419 81.7619 72.3793 81.916 72.2929C82.0676 72.2079 82.1453 72.0971 82.2033 71.9714C82.2273 71.9192 82.2481 71.8628 82.2697 71.8043C82.3512 71.583 82.4444 71.3303 82.7711 71.1493C83.1695 70.9158 83.6513 70.8782 84.0743 70.9658Z" fill="black"/>
<path d="M89.3167 73.6333C89.3 74.8 91 74.4666 91.0334 75.4333C90.9834 76.45 88.1667 75.5 88.1334 73.6166C88.25 71.75 91 70.8333 91.0334 71.9C91.0667 72.7833 89.35 72.4833 89.3167 73.6333Z" fill="#FDD406"/>
<path fill-rule="evenodd" clip-rule="evenodd" d="M88.1917 73.6179C88.209 74.5277 88.8991 75.2195 89.6025 75.5599C89.9541 75.7301 90.3011 75.8083 90.5586 75.7851C90.6871 75.7735 90.7887 75.7371 90.8586 75.6794C90.9264 75.6234 90.969 75.5436 90.975 75.4328C90.9667 75.2138 90.866 75.0692 90.7137 74.9549C90.5731 74.8494 90.3921 74.7723 90.1998 74.6903C90.1778 74.6809 90.1556 74.6714 90.1333 74.6619C89.9205 74.5705 89.6993 74.4692 89.5333 74.3133C89.3641 74.1545 89.254 73.9409 89.2584 73.6324L89.2584 73.6316L89.2584 73.6316C89.2672 73.3268 89.3887 73.1152 89.5648 72.958C89.7382 72.8033 89.9634 72.7022 90.1776 72.6128C90.2031 72.6021 90.2285 72.5916 90.2535 72.5813C90.4428 72.5029 90.6174 72.4307 90.7496 72.3345C90.8949 72.2288 90.9825 72.0988 90.9751 71.9021L90.9751 71.9018C90.9713 71.7821 90.9302 71.6951 90.8642 71.6335C90.797 71.5709 90.6992 71.5299 90.575 71.5135C90.3256 71.4806 89.9866 71.5493 89.6393 71.7111C88.9448 72.0348 88.2493 72.7148 88.1917 73.6179ZM91.0917 71.8979C91.087 71.751 91.035 71.6334 90.9438 71.5482C90.8537 71.4642 90.7303 71.4163 90.5902 71.3978C90.311 71.361 89.9489 71.4381 89.59 71.6054C88.8726 71.9398 88.1353 72.6506 88.0752 73.613L88.075 73.6153L88.0751 73.6176C88.0923 74.59 88.8266 75.314 89.5517 75.6649C89.9147 75.8406 90.2834 75.927 90.5691 75.9013C90.7122 75.8884 90.8391 75.8469 90.9329 75.7693C91.0284 75.6904 91.0846 75.5783 91.0916 75.4361L91.0918 75.4337L91.0917 75.4313C91.0826 75.1683 90.9585 74.9927 90.7838 74.8616C90.631 74.747 90.4362 74.6641 90.2463 74.5833C90.2239 74.5737 90.2015 74.5642 90.1793 74.5547C89.965 74.4627 89.7622 74.3682 89.6131 74.2282C89.4673 74.0913 89.3712 73.9091 89.375 73.6345C89.383 73.3645 89.4885 73.1825 89.6425 73.045C89.7994 72.9049 90.0075 72.8102 90.2225 72.7204C90.2476 72.71 90.2728 72.6996 90.298 72.6891C90.4851 72.6119 90.6739 72.5339 90.8182 72.4289C90.9864 72.3065 91.1009 72.1428 91.0917 71.8979Z" fill="black"/>
<path d="M90.3167 73.6333C90.3 74.8 92 74.4666 92.0334 75.4333C91.9834 76.45 89.1667 75.5 89.1334 73.6166C89.25 71.75 92 70.8333 92.0334 71.9C92.0667 72.7833 90.35 72.4833 90.3167 73.6333Z" fill="#FDD406"/>
<path fill-rule="evenodd" clip-rule="evenodd" d="M89.1917 73.6179C89.209 74.5277 89.8991 75.2195 90.6025 75.5599C90.9541 75.7301 91.3011 75.8083 91.5586 75.7851C91.6871 75.7735 91.7887 75.7371 91.8586 75.6794C91.9264 75.6234 91.969 75.5436 91.975 75.4328C91.9667 75.2138 91.866 75.0692 91.7137 74.9549C91.5731 74.8494 91.3921 74.7723 91.1998 74.6903C91.1778 74.6809 91.1556 74.6714 91.1333 74.6619C90.9205 74.5705 90.6993 74.4692 90.5333 74.3133C90.3641 74.1545 90.254 73.9409 90.2584 73.6324L90.2584 73.6316L90.2584 73.6316C90.2672 73.3268 90.3887 73.1152 90.5648 72.958C90.7382 72.8033 90.9634 72.7022 91.1776 72.6128C91.2031 72.6021 91.2285 72.5916 91.2535 72.5813C91.4428 72.5029 91.6174 72.4307 91.7496 72.3345C91.8949 72.2288 91.9825 72.0988 91.9751 71.9021L91.9751 71.9018C91.9713 71.7821 91.9302 71.6951 91.8642 71.6335C91.797 71.5709 91.6992 71.5299 91.575 71.5135C91.3256 71.4806 90.9866 71.5493 90.6393 71.7111C89.9448 72.0348 89.2493 72.7148 89.1917 73.6179ZM92.0917 71.8979C92.087 71.751 92.035 71.6334 91.9438 71.5482C91.8537 71.4642 91.7303 71.4163 91.5902 71.3978C91.311 71.361 90.9489 71.4381 90.59 71.6054C89.8726 71.9398 89.1353 72.6506 89.0752 73.613L89.075 73.6153L89.0751 73.6176C89.0923 74.59 89.8266 75.314 90.5517 75.6649C90.9147 75.8406 91.2834 75.927 91.5691 75.9013C91.7122 75.8884 91.8391 75.8469 91.9329 75.7693C92.0284 75.6904 92.0846 75.5783 92.0916 75.4361L92.0918 75.4337L92.0917 75.4313C92.0826 75.1683 91.9585 74.9927 91.7838 74.8616C91.631 74.747 91.4362 74.6641 91.2463 74.5833C91.2239 74.5737 91.2015 74.5642 91.1793 74.5547C90.965 74.4627 90.7622 74.3682 90.6131 74.2282C90.4673 74.0913 90.3712 73.9091 90.375 73.6345C90.383 73.3645 90.4885 73.1825 90.6425 73.045C90.7994 72.9049 91.0075 72.8102 91.2225 72.7204C91.2476 72.71 91.2728 72.6996 91.298 72.6891C91.4851 72.6119 91.6739 72.5339 91.8182 72.4289C91.9864 72.3065 92.1009 72.1428 92.0917 71.8979Z" fill="black"/>
<path d="M91.4 73.6333C91.3833 74.8 93.0833 74.4666 93.1166 75.4333C93.0666 76.45 90.25 75.5 90.2166 73.6166C90.3333 71.75 93.0833 70.8333 93.1166 71.9C93.15 72.7833 91.4333 72.4833 91.4 73.6333Z" fill="#FDD406"/>
<path fill-rule="evenodd" clip-rule="evenodd" d="M90.275 73.6179C90.2923 74.5277 90.9824 75.2195 91.6858 75.5599C92.0374 75.7301 92.3844 75.8083 92.6419 75.7851C92.7704 75.7735 92.872 75.7371 92.9419 75.6794C93.0097 75.6234 93.0523 75.5436 93.0583 75.4328C93.05 75.2138 92.9493 75.0692 92.797 74.9549C92.6564 74.8494 92.4754 74.7723 92.2831 74.6903C92.261 74.6809 92.2389 74.6714 92.2166 74.6619C92.0038 74.5705 91.7826 74.4692 91.6166 74.3133C91.4474 74.1545 91.3373 73.9409 91.3417 73.6324L91.3417 73.6316L91.3417 73.6316C91.3505 73.3268 91.472 73.1152 91.6481 72.958C91.8214 72.8033 92.0467 72.7022 92.2609 72.6128C92.2864 72.6021 92.3117 72.5916 92.3368 72.5813C92.5261 72.5029 92.7006 72.4307 92.8329 72.3345C92.9782 72.2288 93.0658 72.0988 93.0584 71.9021L93.0584 71.9018C93.0546 71.7821 93.0134 71.6951 92.9475 71.6335C92.8803 71.5709 92.7825 71.5299 92.6582 71.5135C92.4088 71.4806 92.0699 71.5493 91.7226 71.7111C91.028 72.0348 90.3326 72.7148 90.275 73.6179ZM93.175 71.8979C93.1703 71.751 93.1183 71.6334 93.0271 71.5482C92.937 71.4642 92.8136 71.4163 92.6735 71.3978C92.3943 71.361 92.0322 71.4381 91.6733 71.6054C90.9559 71.9398 90.2186 72.6506 90.1584 73.613L90.1583 73.6153L90.1583 73.6176C90.1755 74.59 90.9099 75.314 91.635 75.6649C91.998 75.8406 92.3667 75.927 92.6524 75.9013C92.7955 75.8884 92.9224 75.8469 93.0162 75.7693C93.1117 75.6904 93.1679 75.5783 93.1749 75.4361L93.175 75.4337L93.175 75.4313C93.1659 75.1683 93.0418 74.9927 92.867 74.8616C92.7143 74.747 92.5194 74.6641 92.3296 74.5833C92.3072 74.5737 92.2848 74.5642 92.2626 74.5547C92.0483 74.4627 91.8455 74.3682 91.6964 74.2282C91.5506 74.0913 91.4545 73.9091 91.4583 73.6345C91.4662 73.3645 91.5718 73.1825 91.7258 73.045C91.8827 72.9049 92.0908 72.8102 92.3058 72.7204C92.3309 72.71 92.3561 72.6996 92.3813 72.6891C92.5684 72.6119 92.7572 72.5339 92.9015 72.4289C93.0697 72.3065 93.1841 72.1428 93.175 71.8979Z" fill="black"/>
<path d="M92.4167 73.6333C92.4 74.8 94.1 74.4666 94.1333 75.4333C94.0833 76.45 91.2667 75.5 91.2333 73.6166C91.35 71.75 94.1 70.8333 94.1333 71.9C94.1667 72.7833 92.45 72.4833 92.4167 73.6333Z" fill="#FDD406"/>
<path fill-rule="evenodd" clip-rule="evenodd" d="M91.2917 73.6179C91.309 74.5277 91.9991 75.2195 92.7025 75.5599C93.0541 75.7301 93.401 75.8083 93.6586 75.7851C93.7871 75.7735 93.8887 75.7371 93.9586 75.6794C94.0264 75.6234 94.069 75.5436 94.075 75.4328C94.0667 75.2138 93.966 75.0692 93.8137 74.9549C93.673 74.8494 93.4921 74.7723 93.2998 74.6903C93.2777 74.6809 93.2555 74.6714 93.2333 74.6619C93.0205 74.5705 92.7993 74.4692 92.6333 74.3133C92.4641 74.1545 92.354 73.9409 92.3584 73.6324L92.3584 73.6316L92.3584 73.6316C92.3672 73.3268 92.4887 73.1152 92.6648 72.958C92.8381 72.8033 93.0634 72.7022 93.2775 72.6128C93.3031 72.6021 93.3284 72.5916 93.3535 72.5813C93.5428 72.5029 93.7173 72.4307 93.8496 72.3345C93.9949 72.2288 94.0825 72.0988 94.0751 71.9021L94.075 71.9018C94.0713 71.7821 94.0301 71.6951 93.9642 71.6335C93.897 71.5709 93.7991 71.5299 93.6749 71.5135C93.4255 71.4806 93.0866 71.5493 92.7392 71.7111C92.0447 72.0348 91.3493 72.7148 91.2917 73.6179ZM94.1917 71.8979C94.187 71.751 94.135 71.6334 94.0438 71.5482C93.9537 71.4642 93.8303 71.4163 93.6902 71.3978C93.411 71.361 93.0489 71.4381 92.69 71.6054C91.9726 71.9398 91.2353 72.6506 91.1751 73.613L91.175 73.6153L91.175 73.6176C91.1922 74.59 91.9266 75.314 92.6517 75.6649C93.0147 75.8406 93.3834 75.927 93.6691 75.9013C93.8122 75.8884 93.9391 75.8469 94.0329 75.7693C94.1284 75.6904 94.1846 75.5783 94.1916 75.4361L94.1917 75.4337L94.1917 75.4313C94.1826 75.1683 94.0584 74.9927 93.8837 74.8616C93.731 74.747 93.5361 74.6641 93.3463 74.5833C93.3239 74.5737 93.3015 74.5642 93.2793 74.5547C93.065 74.4627 92.8622 74.3682 92.7131 74.2282C92.5673 74.0913 92.4712 73.9091 92.475 73.6345C92.4829 73.3645 92.5885 73.1825 92.7425 73.045C92.8994 72.9049 93.1074 72.8102 93.3225 72.7204C93.3475 72.71 93.3727 72.6996 93.398 72.6891C93.5851 72.6119 93.7739 72.5339 93.9182 72.4289C94.0864 72.3065 94.2008 72.1428 94.1917 71.8979Z" fill="black"/>
<path d="M90.7637 71.3257C91.119 72.1643 91.6809 72.3239 92.0187 71.6821C92.3564 71.0403 92.3422 69.8403 91.9869 69.0017C91.6316 68.1631 91.0697 68.0035 90.732 68.6453C90.3942 69.2871 90.4084 70.4871 90.7637 71.3257Z" fill="#005801"/>
<path fill-rule="evenodd" clip-rule="evenodd" d="M91.9487 69.0743C91.6039 68.2604 91.073 68.1337 90.7639 68.7208C90.4549 69.308 90.4571 70.4393 90.8019 71.2532C91.1467 72.067 91.6776 72.1937 91.9867 71.6066C92.2957 71.0195 92.2935 69.8881 91.9487 69.0743ZM90.7 68.5698C91.0665 67.8734 91.6593 68.0658 92.0251 68.9291C92.3909 69.7925 92.4172 71.0612 92.0506 71.7576C91.6841 72.454 91.0913 72.2617 90.7255 71.3983C90.3597 70.535 90.3334 69.2662 90.7 68.5698Z" fill="black"/>
<path d="M89.2917 71.2206C89.647 72.0592 90.2089 72.2188 90.5466 71.577C90.8844 70.9352 90.8702 69.7352 90.5149 68.8966C90.1596 68.058 89.5977 67.8984 89.2599 68.5402C88.9222 69.182 88.9364 70.382 89.2917 71.2206Z" fill="#005801"/>
<path fill-rule="evenodd" clip-rule="evenodd" d="M90.4767 68.9692C90.1318 68.1553 89.6009 68.0286 89.2919 68.6157C88.9829 69.2029 88.9851 70.3342 89.3299 71.1481C89.6747 71.9619 90.2056 72.0886 90.5146 71.5015C90.8236 70.9144 90.8215 69.783 90.4767 68.9692ZM89.2279 68.4647C89.5945 67.7683 90.1873 67.9607 90.5531 68.824C90.9189 69.6874 90.9451 70.9561 90.5786 71.6525C90.2121 72.3489 89.6193 72.1566 89.2535 71.2932C88.8877 70.4299 88.8614 69.1611 89.2279 68.4647Z" fill="black"/>
<path d="M88.2369 69.3151C88.5922 70.1537 89.1541 70.3132 89.4918 69.6715C89.8296 69.0297 89.8154 67.8296 89.4601 66.9911C89.1047 66.1525 88.5429 65.9929 88.2051 66.6347C87.8674 67.2765 87.8816 68.4765 88.2369 69.3151Z" fill="#005801"/>
<path fill-rule="evenodd" clip-rule="evenodd" d="M89.4219 67.0636C89.0771 66.2498 88.5462 66.1231 88.2372 66.7102C87.9281 67.2974 87.9303 68.4287 88.2751 69.2426C88.6199 70.0564 89.1508 70.1831 89.4599 69.596C89.7689 69.0088 89.7667 67.8775 89.4219 67.0636ZM88.1732 66.5592C88.5397 65.8628 89.1325 66.0552 89.4983 66.9185C89.8641 67.7818 89.8904 69.0506 89.5238 69.747C89.1573 70.4434 88.5645 70.251 88.1987 69.3877C87.8329 68.5244 87.8066 67.2556 88.1732 66.5592Z" fill="black"/>
<path d="M89.618 68.8448C89.8755 69.9244 90.407 70.4544 90.805 70.0285C91.2031 69.6027 91.317 68.3824 91.0595 67.3028C90.802 66.2232 90.2705 65.6932 89.8725 66.119C89.4744 66.5448 89.3605 67.7652 89.618 68.8448Z" fill="#005801"/>
<path fill-rule="evenodd" clip-rule="evenodd" d="M90.4795 66.2332C90.2704 66.0247 90.0598 66.0151 89.8908 66.1958C89.7218 66.3766 89.6005 66.7413 89.5557 67.2213C89.5114 67.6963 89.5456 68.2571 89.672 68.787C89.7984 69.3169 89.9912 69.708 90.1981 69.9143C90.4071 70.1228 90.6177 70.1324 90.7867 69.9516C90.9557 69.7709 91.077 69.4062 91.1218 68.9261C91.1662 68.4511 91.132 67.8904 91.0056 67.3605C90.8792 66.8305 90.6863 66.4395 90.4795 66.2332ZM90.558 66.0595C90.7807 66.2816 90.9824 66.6953 91.1135 67.245C91.2446 67.7947 91.2822 68.3839 91.2344 68.8954C91.1871 69.4019 91.0525 69.8603 90.8234 70.1054C90.5943 70.3504 90.3402 70.308 90.1196 70.088C89.8968 69.8658 89.6952 69.4521 89.564 68.9025C89.4329 68.3528 89.3953 67.7636 89.4431 67.2521C89.4904 66.7455 89.6251 66.2872 89.8541 66.0421C90.0832 65.797 90.3374 65.8395 90.558 66.0595Z" fill="black"/>
<path d="M89.1574 67.3391C89.4459 68.3055 89.9853 68.6797 90.3623 68.1751C90.7392 67.6704 90.811 66.478 90.5225 65.5117C90.234 64.5453 89.6946 64.1711 89.3176 64.6757C88.9406 65.1804 88.8689 66.3728 89.1574 67.3391Z" fill="#005801"/>
<path fill-rule="evenodd" clip-rule="evenodd" d="M89.9245 64.6377C89.7154 64.4926 89.5065 64.5308 89.3406 64.7529C89.1748 64.9749 89.0688 65.3582 89.041 65.8204C89.0133 66.281 89.065 66.8036 89.2056 67.2746C89.3462 67.7456 89.547 68.0685 89.7553 68.2131C89.9644 68.3582 90.1734 68.3199 90.3392 68.0979C90.5051 67.8759 90.611 67.4925 90.6388 67.0303C90.6665 66.5698 90.6149 66.0472 90.4743 65.5762C90.3337 65.1051 90.1329 64.7822 89.9245 64.6377ZM89.9819 64.4464C90.2096 64.6044 90.4228 64.9518 90.5707 65.4471C90.7185 65.9424 90.7753 66.4992 90.745 67.0026C90.7148 67.5044 90.5964 67.9696 90.3853 68.2522C90.1742 68.5349 89.9249 68.5618 89.698 68.4043C89.4702 68.2463 89.257 67.8989 89.1092 67.4036C88.9613 66.9083 88.9046 66.3515 88.9349 65.8481C88.965 65.3463 89.0834 64.8811 89.2946 64.5985C89.5057 64.3159 89.7549 64.2889 89.9819 64.4464Z" fill="black"/>
<path d="M87.8435 66.7555C88.132 67.7219 88.6714 68.0961 89.0484 67.5915C89.4253 67.0868 89.4971 65.8944 89.2086 64.928C88.9201 63.9617 88.3807 63.5874 88.0037 64.0921C87.6267 64.5967 87.555 65.7892 87.8435 66.7555Z" fill="#005801"/>
<path fill-rule="evenodd" clip-rule="evenodd" d="M88.6107 64.0542C88.4016 63.9091 88.1926 63.9473 88.0268 64.1694C87.8609 64.3914 87.755 64.7747 87.7272 65.2369C87.6994 65.6975 87.7511 66.2201 87.8917 66.6911C88.0323 67.1621 88.2331 67.4851 88.4414 67.6296C88.6505 67.7747 88.8595 67.7364 89.0253 67.5144C89.1912 67.2924 89.2971 66.909 89.3249 66.4468C89.3526 65.9863 89.301 65.4637 89.1604 64.9927C89.0198 64.5216 88.819 64.1987 88.6107 64.0542ZM88.668 63.8629C88.8958 64.0209 89.1089 64.3683 89.2568 64.8636C89.4047 65.3589 89.4614 65.9157 89.4311 66.4191C89.4009 66.9209 89.2825 67.3861 89.0714 67.6687C88.8603 67.9514 88.6111 67.9783 88.3841 67.8208C88.1563 67.6628 87.9432 67.3154 87.7953 66.8201C87.6474 66.3248 87.5907 65.768 87.621 65.2646C87.6512 64.7628 87.7696 64.2976 87.9807 64.015C88.1918 63.7324 88.441 63.7054 88.668 63.8629Z" fill="black"/>
<path d="M87.05 49.4667C87.05 49.4667 84.1167 52 84.45 58.8833C84.8167 65.8167 90.9333 69.0667 90.9333 69.0667H91.9V49.4667H87.05Z" fill="#9063CD"/>
<path fill-rule="evenodd" clip-rule="evenodd" d="M87.0283 49.4083H91.9583V69.125H90.9188L90.9059 69.1182L90.9333 69.0667C90.9059 69.1182 90.906 69.1182 90.9059 69.1182L90.9056 69.118L90.9046 69.1175L90.9011 69.1156C90.8981 69.114 90.8936 69.1115 90.8877 69.1083C90.8758 69.1018 90.8584 69.0921 90.8357 69.0792C90.7903 69.0534 90.7239 69.0148 90.6394 68.9633C90.4704 68.8602 90.2288 68.7054 89.938 68.498C89.3564 68.0833 88.5773 67.4579 87.7866 66.6149C86.2053 64.929 84.576 62.3708 84.3917 58.8864L84.3917 58.8861C84.2246 55.4355 84.8762 53.0719 85.572 51.5692C85.9199 50.818 86.2785 50.2825 86.5509 49.9341C86.6871 49.7599 86.8017 49.6326 86.8825 49.5485C86.923 49.5065 86.955 49.4753 86.977 49.4544C86.9881 49.444 86.9966 49.4361 87.0025 49.4308L87.0092 49.4248L87.0111 49.4232L87.0116 49.4227L87.0117 49.4226C87.0118 49.4225 87.0118 49.4225 87.05 49.4667L87.0117 49.4226L87.0283 49.4083ZM87.0724 49.525C87.0681 49.5289 87.0631 49.5336 87.0572 49.5392C87.0364 49.5588 87.0057 49.5887 86.9666 49.6294C86.8884 49.7107 86.7764 49.8351 86.6428 50.006C86.3756 50.3477 86.0217 50.8757 85.6779 51.6183C84.9904 53.103 84.342 55.4477 84.5082 58.8804C84.6907 62.3293 86.303 64.8627 87.8717 66.5351C88.656 67.3713 89.429 67.9917 90.0057 68.403C90.294 68.6086 90.5332 68.7619 90.7001 68.8637C90.7836 68.9145 90.8489 68.9525 90.8933 68.9777C90.9155 68.9904 90.9325 68.9998 90.9438 69.006C90.9453 69.0068 90.9468 69.0076 90.9481 69.0083H91.8416V49.525H87.0724Z" fill="black"/>
<path d="M93.0256 71.9321C93.3702 72.5575 93.9302 72.371 94.2764 71.5155C94.6226 70.6601 94.624 69.4596 94.2794 68.8343C93.9349 68.2089 93.3749 68.3954 93.0287 69.2508C92.6824 70.1063 92.6811 71.3067 93.0256 71.9321Z" fill="#005801"/>
<path fill-rule="evenodd" clip-rule="evenodd" d="M94.2487 68.9102C93.9348 68.3404 93.4053 68.4898 93.0682 69.3225C92.7311 70.1553 92.7425 71.2864 93.0564 71.8561C93.3702 72.4258 93.8998 72.2765 94.2369 71.4437C94.5739 70.611 94.5626 69.4799 94.2487 68.9102ZM92.9891 69.179C93.3446 68.3009 93.935 68.0773 94.3102 68.7583C94.6854 69.4393 94.6713 70.7091 94.3159 71.5872C93.9605 72.4653 93.3701 72.689 92.9949 72.008C92.6197 71.3269 92.6337 70.0571 92.9891 69.179Z" fill="black"/>
<path d="M91.6058 71.5677C91.9504 72.1931 92.5104 72.0066 92.8566 71.1511C93.2028 70.2957 93.2042 69.0952 92.8596 68.4699C92.5151 67.8445 91.9551 68.031 91.6089 68.8864C91.2626 69.7419 91.2613 70.9423 91.6058 71.5677Z" fill="#005801"/>
<path fill-rule="evenodd" clip-rule="evenodd" d="M92.8289 68.5458C92.515 67.9761 91.9855 68.1254 91.6484 68.9582C91.3113 69.7909 91.3227 70.922 91.6366 71.4917C91.9504 72.0615 92.48 71.9121 92.8171 71.0794C93.1541 70.2466 93.1428 69.1155 92.8289 68.5458ZM91.5693 68.8147C91.9248 67.9366 92.5152 67.7129 92.8904 68.3939C93.2656 69.0749 93.2515 70.3447 92.8961 71.2228C92.5407 72.101 91.9503 72.3246 91.5751 71.6436C91.1999 70.9626 91.2139 69.6928 91.5693 68.8147Z" fill="black"/>
<path d="M90.899 69.534C91.2435 70.1594 91.8035 69.9729 92.1498 69.1174C92.496 68.262 92.4974 67.0616 92.1528 66.4362C91.8082 65.8108 91.2483 65.9973 90.902 66.8527C90.5558 67.7082 90.5544 68.9086 90.899 69.534Z" fill="#005801"/>
<path fill-rule="evenodd" clip-rule="evenodd" d="M92.1221 66.5121C91.8082 65.9424 91.2786 66.0917 90.9416 66.9245C90.6045 67.7572 90.6158 68.8883 90.9297 69.458C91.2436 70.0278 91.7732 69.8784 92.1102 69.0457C92.4473 68.2129 92.436 67.0818 92.1221 66.5121ZM90.8625 66.781C91.2179 65.9029 91.8083 65.6792 92.1835 66.3602C92.5588 67.0413 92.5447 68.3111 92.1893 69.1892C91.8339 70.0673 91.2435 70.2909 90.8682 69.6099C90.493 68.9289 90.5071 67.6591 90.8625 66.781Z" fill="black"/>
<path d="M92.5905 70.1444C93.0048 70.5368 93.5296 69.9598 93.7629 68.8558C93.9961 67.7517 93.8493 66.5386 93.4351 66.1462C93.0209 65.7538 92.496 66.3307 92.2628 67.4348C92.0296 68.5389 92.1763 69.752 92.5905 70.1444Z" fill="#005801"/>
<path fill-rule="evenodd" clip-rule="evenodd" d="M92.8244 66.3117C92.6197 66.5367 92.4341 66.9459 92.3195 67.4885C92.2049 68.0311 92.1846 68.5968 92.2418 69.0699C92.2997 69.5488 92.4323 69.9027 92.6067 70.0679C92.7811 70.2331 92.994 70.2065 93.2012 69.9787C93.4059 69.7538 93.5915 69.3446 93.7061 68.802C93.8207 68.2594 93.8411 67.6936 93.7839 67.2206C93.7259 66.7417 93.5933 66.3878 93.4189 66.2226C93.2446 66.0574 93.0316 66.084 92.8244 66.3117ZM92.7377 66.1468C92.9548 65.9082 93.2114 65.8425 93.4513 66.0697C93.6911 66.2969 93.839 66.7457 93.8997 67.2475C93.9611 67.7552 93.9382 68.348 93.8196 68.9095C93.701 69.4709 93.5076 69.9022 93.2879 70.1437C93.0708 70.3823 92.8142 70.448 92.5744 70.2208C92.3345 69.9936 92.1866 69.5447 92.1259 69.043C92.0645 68.5353 92.0874 67.9424 92.206 67.381C92.3246 66.8195 92.5181 66.3882 92.7377 66.1468Z" fill="black"/>
<path d="M94.5448 70.3446C94.9314 70.8153 95.463 70.3936 95.7321 69.4025C96.0012 68.4114 95.906 67.2264 95.5194 66.7556C95.1327 66.2848 94.6012 66.7066 94.3321 67.6977C94.063 68.6887 94.1582 69.8738 94.5448 70.3446Z" fill="#005801"/>
<path fill-rule="evenodd" clip-rule="evenodd" d="M94.9146 66.7709C94.7089 66.9341 94.5143 67.2753 94.3828 67.7594C94.2514 68.2435 94.21 68.7714 94.2469 69.23C94.2839 69.691 94.3976 70.0626 94.5658 70.2674C94.734 70.4722 94.9428 70.4933 95.1496 70.3292C95.3553 70.166 95.5499 69.8248 95.6814 69.3407C95.8129 68.8566 95.8542 68.3287 95.8173 67.8702C95.7803 67.4091 95.6666 67.0375 95.4984 66.8327C95.3302 66.6279 95.1214 66.6068 94.9146 66.7709ZM94.8487 66.586C95.0716 66.4091 95.3219 66.4125 95.5403 66.6785C95.7587 66.9444 95.886 67.4008 95.926 67.8977C95.9661 68.3971 95.9205 68.9573 95.7829 69.4643C95.6452 69.9712 95.4395 70.3364 95.2155 70.5142C94.9926 70.691 94.7423 70.6876 94.5239 70.4217C94.3055 70.1557 94.1782 69.6994 94.1383 69.2024C94.0981 68.703 94.1437 68.1428 94.2814 67.6359C94.419 67.1289 94.6247 66.7637 94.8487 66.586Z" fill="black"/>
<path d="M93.5602 69.457C93.9468 69.9278 94.4784 69.506 94.7475 68.5149C95.0166 67.5239 94.9213 66.3388 94.5347 65.868C94.1481 65.3973 93.6166 65.819 93.3474 66.8101C93.0783 67.8012 93.1736 68.9862 93.5602 69.457Z" fill="#005801"/>
<path fill-rule="evenodd" clip-rule="evenodd" d="M93.93 65.8835C93.7243 66.0467 93.5296 66.3879 93.3982 66.872C93.2667 67.3561 93.2254 67.8839 93.2622 68.3425C93.2993 68.8036 93.4129 69.1751 93.5811 69.38C93.7493 69.5848 93.9581 69.6059 94.165 69.4418C94.3707 69.2786 94.5653 68.9374 94.6968 68.4533C94.8282 67.9692 94.8695 67.4413 94.8327 66.9827C94.7956 66.5217 94.682 66.1501 94.5138 65.9453C94.3456 65.7405 94.1368 65.7194 93.93 65.8835ZM93.8641 65.6985C94.087 65.5216 94.3373 65.5251 94.5557 65.791C94.7741 66.057 94.9014 66.5133 94.9413 67.0103C94.9815 67.5097 94.9359 68.0698 94.7982 68.5768C94.6605 69.0838 94.4548 69.449 94.2308 69.6267C94.0079 69.8036 93.7577 69.8002 93.5392 69.5342C93.3208 69.2683 93.1935 68.8119 93.1536 68.315C93.1135 67.8156 93.1591 67.2554 93.2967 66.7484C93.4344 66.2415 93.6401 65.8763 93.8641 65.6985Z" fill="black"/>
<path d="M92.3247 68.2295C92.7113 68.7002 93.2429 68.2785 93.512 67.2874C93.7811 66.2963 93.6859 65.1113 93.2993 64.6405C92.9127 64.1697 92.3811 64.5915 92.112 65.5826C91.8429 66.5736 91.9381 67.7587 92.3247 68.2295Z" fill="#005801"/>
<path fill-rule="evenodd" clip-rule="evenodd" d="M92.6945 64.6558C92.4888 64.819 92.2941 65.1602 92.1627 65.6443C92.0312 66.1284 91.9899 66.6563 92.0268 67.1149C92.0638 67.5759 92.1775 67.9475 92.3457 68.1523C92.5139 68.3571 92.7227 68.3782 92.9295 68.2141C93.1352 68.0509 93.3298 67.7097 93.4613 67.2256C93.5927 66.7415 93.6341 66.2136 93.5972 65.7551C93.5602 65.294 93.4465 64.9224 93.2783 64.7176C93.1101 64.5128 92.9013 64.4917 92.6945 64.6558ZM92.6286 64.4709C92.8515 64.294 93.1018 64.2974 93.3202 64.5634C93.5386 64.8293 93.6659 65.2857 93.7058 65.7826C93.746 66.282 93.7004 66.8422 93.5627 67.3491C93.4251 67.8561 93.2194 68.2213 92.9954 68.3991C92.7725 68.5759 92.5222 68.5725 92.3038 68.3066C92.0854 68.0406 91.9581 67.5843 91.9181 67.0873C91.878 66.5879 91.9236 66.0277 92.0612 65.5208C92.1989 65.0138 92.4046 64.6486 92.6286 64.4709Z" fill="black"/>
<path d="M91.1221 67.4226C91.5087 67.8933 92.0403 67.4716 92.3094 66.4805C92.5785 65.4894 92.4832 64.3044 92.0966 63.8336C91.71 63.3628 91.1784 63.7846 90.9093 64.7757C90.6402 65.7667 90.7355 66.9518 91.1221 67.4226Z" fill="#005801"/>
<path fill-rule="evenodd" clip-rule="evenodd" d="M91.4919 63.8489C91.2862 64.0121 91.0915 64.3533 90.9601 64.8374C90.8286 65.3215 90.7873 65.8494 90.8241 66.308C90.8612 66.769 90.9748 67.1406 91.143 67.3454C91.3112 67.5502 91.52 67.5713 91.7268 67.4072C91.9325 67.244 92.1272 66.9028 92.2586 66.4187C92.3901 65.9346 92.4314 65.4067 92.3946 64.9482C92.3575 64.4871 92.2439 64.1155 92.0757 63.9107C91.9075 63.7059 91.6987 63.6848 91.4919 63.8489ZM91.426 63.664C91.6489 63.4871 91.8992 63.4905 92.1176 63.7565C92.336 64.0224 92.4633 64.4788 92.5032 64.9757C92.5433 65.4751 92.4978 66.0353 92.3601 66.5423C92.2224 67.0492 92.0167 67.4144 91.7927 67.5922C91.5698 67.7691 91.3195 67.7656 91.1011 67.4997C90.8827 67.2337 90.7554 66.7774 90.7155 66.2804C90.6754 65.781 90.7209 65.2208 90.8586 64.7139C90.9963 64.2069 91.202 63.8417 91.426 63.664Z" fill="black"/>
<path d="M91.0055 62.2707C92.6792 66.1199 95.0488 68.8 96.2981 68.2568C97.5474 67.7135 97.2034 64.1528 95.5297 60.3035C93.856 56.4543 91.4864 53.7742 90.2371 54.3174C88.9878 54.8607 89.3318 58.4214 91.0055 62.2707Z" fill="#D91C16"/>
<path fill-rule="evenodd" clip-rule="evenodd" d="M91.3396 54.5115C90.9197 54.2787 90.549 54.2182 90.2504 54.348C89.9518 54.4779 89.7432 54.7903 89.6271 55.2561C89.5111 55.7214 89.489 56.3335 89.5583 57.0511C89.697 58.4861 90.2002 60.3351 91.0361 62.2574C91.8719 64.1797 92.881 65.8088 93.8359 66.8888C94.3135 67.429 94.7762 67.8303 95.1956 68.0628C95.6155 68.2955 95.9862 68.3561 96.2848 68.2262C96.5834 68.0964 96.7919 67.784 96.9081 67.3182C97.0241 66.8529 97.0462 66.2408 96.9768 65.5231C96.8382 64.0882 96.3349 62.2392 95.4991 60.3168C94.6633 58.3945 93.6541 56.7654 92.6993 55.6854C92.2217 55.1453 91.759 54.744 91.3396 54.5115ZM92.7492 55.6413C93.7099 56.7278 94.7224 58.3633 95.5602 60.2903C96.3981 62.2172 96.9037 64.0731 97.0432 65.5167C97.1129 66.2383 97.0913 66.8588 96.9728 67.3343C96.8544 67.8092 96.6374 68.1456 96.3114 68.2874C95.9853 68.4291 95.5913 68.3584 95.1633 68.1211C94.7347 67.8835 94.2662 67.4761 93.786 66.933C92.8253 65.8465 91.8128 64.2109 90.9749 62.284C90.1371 60.3571 89.6315 58.5011 89.492 57.0575C89.4223 56.3359 89.4438 55.7154 89.5624 55.24C89.6808 54.7651 89.8977 54.4287 90.2238 54.2869C90.5499 54.1451 90.9439 54.2159 91.3719 54.4532C91.8005 54.6907 92.269 55.0981 92.7492 55.6413Z" fill="black"/>
<path d="M91.1666 52.6899C91.7304 52.6899 92.1875 52.2903 92.1875 51.7974C92.1875 51.3045 91.7304 50.9049 91.1666 50.9049C90.6029 50.9049 90.1458 51.3045 90.1458 51.7974C90.1458 52.2903 90.6029 52.6899 91.1666 52.6899Z" fill="#005801"/>
<path fill-rule="evenodd" clip-rule="evenodd" d="M91.1667 50.9651C90.6282 50.9651 90.206 51.3451 90.206 51.7975C90.206 52.2498 90.6282 52.6298 91.1667 52.6298C91.7051 52.6298 92.1274 52.2498 92.1274 51.7975C92.1274 51.3451 91.7051 50.9651 91.1667 50.9651ZM90.0857 51.7975C90.0857 51.264 90.5775 50.8448 91.1667 50.8448C91.7558 50.8448 92.2476 51.264 92.2476 51.7975C92.2476 52.3309 91.7558 52.7501 91.1667 52.7501C90.5775 52.7501 90.0857 52.3309 90.0857 51.7975Z" fill="black"/>
<path d="M91.0416 51.5708C91.6054 51.5708 92.0625 51.1712 92.0625 50.6783C92.0625 50.1854 91.6054 49.7858 91.0416 49.7858C90.4779 49.7858 90.0208 50.1854 90.0208 50.6783C90.0208 51.1712 90.4779 51.5708 91.0416 51.5708Z" fill="#005801"/>
<path fill-rule="evenodd" clip-rule="evenodd" d="M91.0417 49.8458C90.5032 49.8458 90.081 50.2258 90.081 50.6782C90.081 51.1306 90.5032 51.5106 91.0417 51.5106C91.5801 51.5106 92.0024 51.1306 92.0024 50.6782C92.0024 50.2258 91.5801 49.8458 91.0417 49.8458ZM89.9607 50.6782C89.9607 50.1448 90.4525 49.7256 91.0417 49.7256C91.6308 49.7256 92.1226 50.1448 92.1226 50.6782C92.1226 51.2117 91.6308 51.6308 91.0417 51.6308C90.4525 51.6308 89.9607 51.2117 89.9607 50.6782Z" fill="black"/>
<path d="M89.625 52.9733C90.1543 52.9733 90.5833 52.5483 90.5833 52.0241C90.5833 51.4999 90.1543 51.075 89.625 51.075C89.0957 51.075 88.6667 51.4999 88.6667 52.0241C88.6667 52.5483 89.0957 52.9733 89.625 52.9733Z" fill="#005801"/>
<path fill-rule="evenodd" clip-rule="evenodd" d="M89.625 51.135C89.1284 51.135 88.7268 51.5336 88.7268 52.0241C88.7268 52.5145 89.1284 52.9131 89.625 52.9131C90.1216 52.9131 90.5232 52.5145 90.5232 52.0241C90.5232 51.5336 90.1216 51.135 89.625 51.135ZM88.6065 52.0241C88.6065 51.4661 89.0631 51.0148 89.625 51.0148C90.1869 51.0148 90.6435 51.4661 90.6435 52.0241C90.6435 52.582 90.1869 53.0334 89.625 53.0334C89.0631 53.0334 88.6065 52.582 88.6065 52.0241Z" fill="black"/>
<path d="M89.9166 51.7407C90.4459 51.7407 90.875 51.3221 90.875 50.8057C90.875 50.2893 90.4459 49.8707 89.9166 49.8707C89.3874 49.8707 88.9583 50.2893 88.9583 50.8057C88.9583 51.3221 89.3874 51.7407 89.9166 51.7407Z" fill="#005801"/>
<path fill-rule="evenodd" clip-rule="evenodd" d="M89.9167 49.9309C89.4192 49.9309 89.0185 50.324 89.0185 50.8058C89.0185 51.2876 89.4192 51.6807 89.9167 51.6807C90.4141 51.6807 90.8149 51.2876 90.8149 50.8058C90.8149 50.324 90.4141 49.9309 89.9167 49.9309ZM88.8982 50.8058C88.8982 50.2548 89.3556 49.8107 89.9167 49.8107C90.4777 49.8107 90.9351 50.2548 90.9351 50.8058C90.9351 51.3568 90.4777 51.8009 89.9167 51.8009C89.3556 51.8009 88.8982 51.3568 88.8982 50.8058Z" fill="black"/>
<path d="M88.3333 51.7832C88.9316 51.7832 89.4167 51.3583 89.4167 50.8341C89.4167 50.3098 88.9316 49.8849 88.3333 49.8849C87.735 49.8849 87.25 50.3098 87.25 50.8341C87.25 51.3583 87.735 51.7832 88.3333 51.7832Z" fill="#005801"/>
<path fill-rule="evenodd" clip-rule="evenodd" d="M88.3333 49.9451C87.7605 49.9451 87.3101 50.3503 87.3101 50.8341C87.3101 51.3179 87.7605 51.7232 88.3333 51.7232C88.9061 51.7232 89.3565 51.3179 89.3565 50.8341C89.3565 50.3503 88.9061 49.9451 88.3333 49.9451ZM87.1898 50.8341C87.1898 50.2695 87.7095 49.8248 88.3333 49.8248C88.9571 49.8248 89.4768 50.2695 89.4768 50.8341C89.4768 51.3988 88.9571 51.8434 88.3333 51.8434C87.7095 51.8434 87.1898 51.3988 87.1898 50.8341Z" fill="black"/>
<path d="M90.3125 50.1541C90.8763 50.1541 91.3333 49.7546 91.3333 49.2616C91.3333 48.7687 90.8763 48.3691 90.3125 48.3691C89.7487 48.3691 89.2917 48.7687 89.2917 49.2616C89.2917 49.7546 89.7487 50.1541 90.3125 50.1541Z" fill="#005801"/>
<path fill-rule="evenodd" clip-rule="evenodd" d="M90.3125 48.4292C89.7741 48.4292 89.3518 48.8092 89.3518 49.2616C89.3518 49.714 89.7741 50.094 90.3125 50.094C90.8509 50.094 91.2732 49.714 91.2732 49.2616C91.2732 48.8092 90.8509 48.4292 90.3125 48.4292ZM89.2315 49.2616C89.2315 48.7281 89.7233 48.309 90.3125 48.309C90.9017 48.309 91.3935 48.7281 91.3935 49.2616C91.3935 49.795 90.9017 50.2142 90.3125 50.2142C89.7233 50.2142 89.2315 49.795 89.2315 49.2616Z" fill="black"/>
<path d="M88.9583 50.3666C89.4876 50.3666 89.9167 49.948 89.9167 49.4316C89.9167 48.9152 89.4876 48.4966 88.9583 48.4966C88.4291 48.4966 88 48.9152 88 49.4316C88 49.948 88.4291 50.3666 88.9583 50.3666Z" fill="#005801"/>
<path fill-rule="evenodd" clip-rule="evenodd" d="M88.9583 48.5567C88.4608 48.5567 88.0601 48.9497 88.0601 49.4315C88.0601 49.9133 88.4608 50.3064 88.9583 50.3064C89.4558 50.3064 89.8565 49.9133 89.8565 49.4315C89.8565 48.9497 89.4558 48.5567 88.9583 48.5567ZM87.9398 49.4315C87.9398 48.8805 88.3972 48.4364 88.9583 48.4364C89.5194 48.4364 89.9768 48.8805 89.9768 49.4315C89.9768 49.9825 89.5194 50.4267 88.9583 50.4267C88.3972 50.4267 87.9398 49.9825 87.9398 49.4315Z" fill="black"/>
<path d="M86.9166 51.8399C87.4459 51.8399 87.875 51.4149 87.875 50.8907C87.875 50.3665 87.4459 49.9415 86.9166 49.9415C86.3874 49.9415 85.9583 50.3665 85.9583 50.8907C85.9583 51.4149 86.3874 51.8399 86.9166 51.8399Z" fill="#005801"/>
<path fill-rule="evenodd" clip-rule="evenodd" d="M86.9167 50.0017C86.42 50.0017 86.0185 50.4003 86.0185 50.8908C86.0185 51.3812 86.42 51.7798 86.9167 51.7798C87.4133 51.7798 87.8149 51.3812 87.8149 50.8908C87.8149 50.4003 87.4133 50.0017 86.9167 50.0017ZM85.8982 50.8908C85.8982 50.3328 86.3547 49.8815 86.9167 49.8815C87.4786 49.8815 87.9351 50.3328 87.9351 50.8908C87.9351 51.4487 87.4786 51.9001 86.9167 51.9001C86.3547 51.9001 85.8982 51.4487 85.8982 50.8908Z" fill="black"/>
<path d="M87.25 51.1174C87.7793 51.1174 88.2083 50.6988 88.2083 50.1824C88.2083 49.6661 87.7793 49.2474 87.25 49.2474C86.7207 49.2474 86.2917 49.6661 86.2917 50.1824C86.2917 50.6988 86.7207 51.1174 87.25 51.1174Z" fill="#005801"/>
<path fill-rule="evenodd" clip-rule="evenodd" d="M87.25 49.3075C86.7525 49.3075 86.3518 49.7006 86.3518 50.1824C86.3518 50.6642 86.7525 51.0573 87.25 51.0573C87.7475 51.0573 88.1482 50.6642 88.1482 50.1824C88.1482 49.7006 87.7475 49.3075 87.25 49.3075ZM86.2315 50.1824C86.2315 49.6314 86.6889 49.1873 87.25 49.1873C87.8111 49.1873 88.2685 49.6314 88.2685 50.1824C88.2685 50.7334 87.8111 51.1775 87.25 51.1775C86.6889 51.1775 86.2315 50.7334 86.2315 50.1824Z" fill="black"/>
<path d="M87.6458 50.3241C88.1751 50.3241 88.6042 49.9055 88.6042 49.3891C88.6042 48.8727 88.1751 48.4541 87.6458 48.4541C87.1166 48.4541 86.6875 48.8727 86.6875 49.3891C86.6875 49.9055 87.1166 50.3241 87.6458 50.3241Z" fill="#005801"/>
<path fill-rule="evenodd" clip-rule="evenodd" d="M87.6458 48.5142C87.1483 48.5142 86.7476 48.9073 86.7476 49.389C86.7476 49.8708 87.1483 50.2639 87.6458 50.2639C88.1433 50.2639 88.544 49.8708 88.544 49.389C88.544 48.9073 88.1433 48.5142 87.6458 48.5142ZM86.6273 49.389C86.6273 48.8381 87.0847 48.3939 87.6458 48.3939C88.2069 48.3939 88.6643 48.8381 88.6643 49.389C88.6643 49.94 88.2069 50.3842 87.6458 50.3842C87.0847 50.3842 86.6273 49.94 86.6273 49.389Z" fill="black"/>
<path d="M91.1198 61.3824C93.1368 65.9555 96.0554 69.0967 97.6387 68.3983C99.2221 67.7 98.8705 63.4266 96.8535 58.8535C94.8365 54.2804 91.9179 51.1392 90.3346 51.8376C88.7512 52.5359 89.1028 56.8093 91.1198 61.3824Z" fill="#005801"/>
<path fill-rule="evenodd" clip-rule="evenodd" d="M91.7111 52.0481C91.1912 51.7844 90.7314 51.7263 90.3581 51.8909C89.9848 52.0556 89.7177 52.4343 89.5618 52.9961C89.4062 53.5572 89.3644 54.2922 89.4352 55.1522C89.5766 56.8714 90.1665 59.0766 91.1731 61.3589C92.1797 63.6411 93.4104 65.5637 94.5846 66.8275C95.1719 67.4595 95.7428 67.9243 96.2622 68.1878C96.7821 68.4515 97.2418 68.5096 97.6152 68.345C97.9885 68.1803 98.2556 67.8016 98.4114 67.2399C98.5671 66.6787 98.6088 65.9437 98.5381 65.0838C98.3967 63.3645 97.8067 61.1593 96.8001 58.8771C95.7935 56.5948 94.5629 54.6722 93.3887 53.4085C92.8014 52.7764 92.2305 52.3116 91.7111 52.0481ZM93.4741 53.329C94.6593 54.6046 95.8965 56.5391 96.9069 58.83C97.9173 61.1209 98.5116 63.3389 98.6544 65.0742C98.7257 65.9416 98.6846 66.6917 98.5239 67.271C98.3633 67.8499 98.0806 68.2672 97.6623 68.4517C97.2439 68.6362 96.7451 68.5636 96.2094 68.2918C95.6732 68.0198 95.0915 67.5444 94.4991 66.9069C93.3139 65.6313 92.0768 63.6968 91.0664 61.4059C90.056 59.1151 89.4617 56.897 89.3189 55.1617C89.2475 54.2944 89.2887 53.5442 89.4494 52.9649C89.61 52.386 89.8927 51.9687 90.311 51.7842C90.7293 51.5997 91.2281 51.6723 91.7639 51.9441C92.3001 52.2161 92.8818 52.6915 93.4741 53.329Z" fill="black"/>
<path d="M96.0244 61.8058C96.4479 62.7659 97.0369 63.4358 97.3401 63.3021C97.6433 63.1684 97.5458 62.2817 97.1224 61.3216C96.6989 60.3614 96.1098 59.6915 95.8066 59.8253C95.5035 59.959 95.6009 60.8457 96.0244 61.8058Z" fill="#005801"/>
<path fill-rule="evenodd" clip-rule="evenodd" d="M96.0519 59.9184C95.9542 59.8633 95.8813 59.8561 95.8302 59.8786C95.779 59.9012 95.7352 59.9598 95.71 60.0692C95.6852 60.1773 95.6817 60.3234 95.701 60.4993C95.7396 60.8503 95.8678 61.3061 96.0778 61.7823C96.2878 62.2584 96.538 62.6604 96.7712 62.9256C96.888 63.0585 96.9983 63.1544 97.0948 63.209C97.1925 63.2641 97.2654 63.2713 97.3166 63.2487C97.3677 63.2262 97.4115 63.1675 97.4367 63.0582C97.4615 62.9501 97.4651 62.804 97.4457 62.6281C97.4071 62.2771 97.279 61.8212 97.069 61.3451C96.859 60.869 96.6088 60.4669 96.3756 60.2017C96.2588 60.0689 96.1484 59.973 96.0519 59.9184ZM96.4632 60.1247C96.7062 60.4011 96.9623 60.8141 97.1757 61.298C97.3892 61.782 97.5215 62.2495 97.5617 62.6154C97.5818 62.7979 97.5793 62.9585 97.5504 63.0843C97.5218 63.2088 97.4641 63.3112 97.3636 63.3555C97.2632 63.3998 97.1487 63.3734 97.0375 63.3105C96.9251 63.2471 96.8048 63.1406 96.6835 63.0027C96.4405 62.7263 96.1845 62.3133 95.971 61.8294C95.7576 61.3454 95.6253 60.8778 95.585 60.512C95.565 60.3295 95.5674 60.1689 95.5963 60.0431C95.625 59.9185 95.6827 59.8162 95.7831 59.7719C95.8835 59.7276 95.998 59.754 96.1093 59.8168C96.2217 59.8803 96.3419 59.9868 96.4632 60.1247Z" fill="black"/>
<path d="M96.3 61.5666C98.85 64.6833 98.5333 66.6666 98.2667 68.3333L94.65 64.4499V60.5499L96.3 61.5666Z" fill="#005801"/>
<path fill-rule="evenodd" clip-rule="evenodd" d="M94.5916 60.4456L96.3389 61.5222L96.3451 61.5297C97.6249 63.0939 98.1884 64.3776 98.3969 65.483C98.6051 66.5872 98.4577 67.5084 98.3245 68.3413L98.3054 68.4605L94.5916 64.473V60.4456ZM94.7083 60.6545V64.4271L98.2279 68.2061C98.3552 67.4053 98.4768 66.5364 98.2822 65.5046C98.0785 64.4242 97.5269 63.1603 96.261 61.6112L94.7083 60.6545Z" fill="black"/>
<path d="M96.5167 64.0834C99.0833 67.2 98.7667 69.1834 98.5 70.85L93.5833 63.2334V58.1167C93.9667 59.1167 93.9667 60.9667 96.5167 64.0834Z" fill="#005801"/>
<path fill-rule="evenodd" clip-rule="evenodd" d="M93.525 58.1167L93.6378 58.0958C93.7206 58.3118 93.7857 58.5665 93.8606 58.8595C93.8738 58.9112 93.8873 58.964 93.9013 59.018C93.9948 59.38 94.1098 59.8001 94.2921 60.2858C94.6564 61.2566 95.2906 62.4927 96.5617 64.0464C97.8498 65.6104 98.4176 66.8941 98.6281 67.9995C98.8385 69.1038 98.6911 70.0251 98.5578 70.8579L98.5335 71.0096L93.525 63.2506V58.1167ZM93.6417 58.4868V63.2162L98.4664 70.6904C98.5917 69.8986 98.7074 69.0392 98.5135 68.0214C98.3074 66.9393 97.7502 65.673 96.4716 64.1205C95.1928 62.5574 94.5519 61.3101 94.1829 60.3268C93.9985 59.8354 93.8822 59.4107 93.7883 59.0472C93.7741 58.9924 93.7605 58.939 93.7472 58.8871C93.7103 58.7428 93.6763 58.6097 93.6417 58.4868Z" fill="black"/>
<path d="M96.6 66.1167C99.2167 69.1667 98.9333 71.1667 98.7 72.85C97.8667 70.9333 97.4 69.7167 94.7667 66.65C92.15 63.5833 93.3833 61.3667 93.5333 60.2167C93.95 61.2 93.9833 63.05 96.6 66.1167Z" fill="#005801"/>
<path fill-rule="evenodd" clip-rule="evenodd" d="M93.5032 59.9962L93.587 60.1939C93.6799 60.4132 93.754 60.6746 93.8396 60.9767C93.8516 61.019 93.8638 61.0622 93.8764 61.1062C93.9788 61.4652 94.1032 61.8822 94.2958 62.3638C94.6808 63.3264 95.3399 64.5501 96.6443 66.0788C97.9575 67.6095 98.5463 68.8807 98.7758 69.984C99.0041 71.0812 98.8757 72.0075 98.7595 72.8456L98.7292 73.0637L98.6465 72.8733C98.6095 72.7883 98.5733 72.7048 98.5377 72.6225C98.1703 71.7748 97.8574 71.0526 97.3581 70.211C96.8104 69.2879 96.0377 68.2198 94.7224 66.688C93.4056 65.1448 93.0541 63.8106 93.0541 62.7146C93.0541 62.1678 93.1416 61.6822 93.2379 61.2628C93.2703 61.1217 93.3034 60.9892 93.3344 60.8647C93.3966 60.6156 93.4508 60.3985 93.4755 60.2092L93.5032 59.9962ZM93.5548 60.4369C93.5258 60.5796 93.487 60.7352 93.4455 60.9019C93.4147 61.0251 93.3825 61.1543 93.3516 61.2889C93.2563 61.7043 93.1708 62.1802 93.1708 62.7146C93.1708 63.7811 93.5111 65.0887 94.811 66.6121C96.1289 68.1469 96.9062 69.2205 97.4585 70.1515C97.9617 70.9997 98.2774 71.7284 98.6444 72.5754C98.6531 72.5955 98.6618 72.6156 98.6706 72.6358C98.7773 71.8511 98.8682 71.0008 98.6616 70.0077C98.4369 68.9277 97.8591 67.6739 96.5557 66.1547C95.2434 64.6167 94.5774 63.382 94.1875 62.4071C93.9926 61.9199 93.867 61.4984 93.7642 61.1382C93.7516 61.0939 93.7393 61.0507 93.7273 61.0085C93.6665 60.794 93.6128 60.6045 93.5548 60.4369Z" fill="black"/>
<path d="M93.7831 59.0818C94.5689 60.767 95.6523 61.9249 96.2028 61.6682C96.7534 61.4114 96.5628 59.8372 95.777 58.1521C94.9912 56.4669 93.9078 55.309 93.3572 55.5657C92.8066 55.8225 92.9973 57.3967 93.7831 59.0818Z" fill="#005801"/>
<path fill-rule="evenodd" clip-rule="evenodd" d="M93.8303 55.6764C93.6464 55.5814 93.4959 55.5654 93.3819 55.6186C93.2678 55.6718 93.1834 55.7973 93.1379 55.9993C93.0927 56.2003 93.0888 56.4664 93.1269 56.7811C93.2031 57.4098 93.4449 58.2186 93.836 59.0572C94.227 59.8957 94.6911 60.6009 95.1238 61.0634C95.3403 61.2948 95.5467 61.463 95.7298 61.5575C95.9137 61.6525 96.0642 61.6685 96.1782 61.6153C96.2923 61.5621 96.3767 61.4366 96.4222 61.2346C96.4674 61.0336 96.4713 60.7675 96.4332 60.4528C96.357 59.8241 96.1151 59.0153 95.7241 58.1767C95.3331 57.3382 94.869 56.633 94.4363 56.1705C94.2198 55.9391 94.0134 55.7709 93.8303 55.6764ZM94.5215 56.0908C94.9646 56.5645 95.4351 57.2808 95.8299 58.1274C96.2246 58.974 96.471 59.7949 96.549 60.4388C96.5879 60.7604 96.5853 61.0412 96.536 61.2603C96.4869 61.4783 96.3888 61.6459 96.2275 61.7211C96.0663 61.7963 95.8748 61.7637 95.6762 61.6612C95.4768 61.5582 95.2599 61.3797 95.0386 61.1431C94.5955 60.6694 94.125 59.9531 93.7302 59.1065C93.3355 58.2599 93.0891 57.439 93.0111 56.7951C92.9722 56.4735 92.9748 56.1927 93.0241 55.9736C93.0732 55.7556 93.1713 55.588 93.3326 55.5128C93.4938 55.4377 93.6853 55.4702 93.8839 55.5727C94.0833 55.6757 94.3002 55.8543 94.5215 56.0908Z" fill="black"/>
<path d="M92.8796 60.7479C93.5084 62.1405 94.4126 63.0914 94.8991 62.8717C95.3857 62.652 95.2704 61.3449 94.6416 59.9523C94.0128 58.5597 93.1087 57.6089 92.6221 57.8286C92.1355 58.0483 92.2508 59.3553 92.8796 60.7479Z" fill="#005801"/>
<path fill-rule="evenodd" clip-rule="evenodd" d="M93.0288 57.9243C92.8738 57.8482 92.7455 57.8369 92.6461 57.8818C92.5467 57.9267 92.4703 58.0304 92.4249 58.197C92.3796 58.363 92.3677 58.5829 92.3907 58.8433C92.4366 59.3635 92.6203 60.032 92.9328 60.7239C93.2452 61.4159 93.6251 61.9958 93.985 62.3742C94.1651 62.5637 94.3379 62.7002 94.4924 62.776C94.6474 62.8521 94.7757 62.8634 94.8751 62.8185C94.9746 62.7736 95.0509 62.6699 95.0963 62.5034C95.1416 62.3373 95.1535 62.1174 95.1306 61.857C95.0847 61.3368 94.9009 60.6683 94.5885 59.9764C94.2761 59.2844 93.8961 58.7045 93.5363 58.3261C93.3561 58.1366 93.1833 58.0001 93.0288 57.9243ZM93.6208 58.2457C93.9919 58.6359 94.3785 59.2277 94.6948 59.9284C95.0112 60.629 95.1995 61.3104 95.2468 61.8467C95.2704 62.1147 95.2592 62.3497 95.2089 62.5341C95.1587 62.7179 95.067 62.8599 94.9232 62.9249C94.7793 62.9898 94.6121 62.9647 94.441 62.8808C94.2695 62.7966 94.0858 62.6495 93.9004 62.4546C93.5294 62.0644 93.1428 61.4726 92.8264 60.772C92.5101 60.0713 92.3218 59.39 92.2745 58.8536C92.2509 58.5856 92.2621 58.3506 92.3124 58.1662C92.3625 57.9824 92.4543 57.8404 92.5981 57.7754C92.7419 57.7105 92.9091 57.7356 93.0802 57.8196C93.2517 57.9037 93.4355 58.0508 93.6208 58.2457Z" fill="black"/>
<path d="M91.6567 61.9192C92.2587 63.3236 93.1444 64.2916 93.6351 64.0813C94.1258 63.871 94.0357 62.562 93.4337 61.1576C92.8318 59.7531 91.946 58.7851 91.4553 58.9954C90.9646 59.2058 91.0548 60.5148 91.6567 61.9192Z" fill="#005801"/>
<path fill-rule="evenodd" clip-rule="evenodd" d="M91.8601 59.099C91.7066 59.02 91.5785 59.0061 91.4783 59.0491C91.378 59.0921 91.2997 59.1944 91.2511 59.36C91.2026 59.5251 91.1865 59.7448 91.2044 60.0056C91.2403 60.5266 91.4112 61.1984 91.7103 61.8963C92.0094 62.5941 92.3781 63.1812 92.7306 63.5665C92.9071 63.7593 93.0773 63.8991 93.2303 63.9779C93.3838 64.0569 93.5118 64.0707 93.6121 64.0278C93.7124 63.9848 93.7907 63.8825 93.8393 63.7169C93.8878 63.5517 93.9039 63.3321 93.8859 63.0713C93.8501 62.5503 93.6792 61.8784 93.3801 61.1806C93.081 60.4828 92.7123 59.8957 92.3597 59.5104C92.1833 59.3176 92.0131 59.1778 91.8601 59.099ZM92.4458 59.4317C92.8093 59.8289 93.1845 60.4281 93.4873 61.1346C93.7902 61.8412 93.9653 62.5261 94.0023 63.0633C94.0208 63.3316 94.0051 63.5664 93.9513 63.7497C93.8976 63.9326 93.8031 64.0728 93.6581 64.135C93.513 64.1972 93.3463 64.1689 93.1769 64.0816C93.007 63.9942 92.8261 63.8436 92.6446 63.6452C92.2811 63.248 91.9059 62.6488 91.6031 61.9422C91.3002 61.2356 91.1251 60.5508 91.0881 60.0136C91.0696 59.7453 91.0853 59.5104 91.1391 59.3271C91.1928 59.1443 91.2872 59.0041 91.4323 58.9419C91.5774 58.8797 91.7441 58.908 91.9135 58.9952C92.0833 59.0827 92.2643 59.2332 92.4458 59.4317Z" fill="black"/>
<path d="M92.8707 57.6242C93.4195 58.6563 94.1675 59.3319 94.5413 59.1331C94.9152 58.9344 94.7733 57.9365 94.2245 56.9043C93.6757 55.8721 92.9277 55.1965 92.5539 55.3953C92.18 55.5941 92.3219 56.592 92.8707 57.6242Z" fill="#005801"/>
<path fill-rule="evenodd" clip-rule="evenodd" d="M92.8742 55.4564C92.7516 55.4083 92.654 55.4082 92.5813 55.4469C92.5086 55.4855 92.4541 55.5665 92.4254 55.695C92.3968 55.8233 92.3959 55.9913 92.424 56.1891C92.4802 56.5841 92.6501 57.0851 92.9222 57.5968C93.1943 58.1085 93.5146 58.5296 93.8107 58.797C93.959 58.9309 94.0987 59.0241 94.2211 59.0721C94.3437 59.1202 94.4412 59.1203 94.5139 59.0817C94.5867 59.043 94.6411 58.9621 94.6698 58.8335C94.6984 58.7052 94.6993 58.5373 94.6712 58.3395C94.615 57.9444 94.4451 57.4434 94.173 56.9317C93.901 56.42 93.5806 55.999 93.2845 55.7315C93.1363 55.5976 92.9965 55.5044 92.8742 55.4564ZM93.3627 55.645C93.6713 55.9236 93.9993 56.3565 94.276 56.877C94.5528 57.3974 94.7282 57.9114 94.7867 58.3231C94.8159 58.5286 94.8164 58.7119 94.7837 58.8589C94.7509 59.0056 94.6829 59.124 94.5687 59.1847C94.4545 59.2454 94.3184 59.2356 94.1784 59.1807C94.0383 59.1257 93.8866 59.0228 93.7325 58.8836C93.424 58.6049 93.0959 58.172 92.8192 57.6516C92.5424 57.1311 92.367 56.6171 92.3085 56.2055C92.2793 55.9999 92.2788 55.8166 92.3116 55.6696C92.3443 55.5229 92.4123 55.4046 92.5265 55.3439C92.6407 55.2831 92.7769 55.2929 92.9168 55.3478C93.057 55.4028 93.2086 55.5058 93.3627 55.645Z" fill="black"/>
<path d="M91.822 58.3683C92.3049 59.4329 93.009 60.1541 93.3946 59.9792C93.7802 59.8043 93.7013 58.7995 93.2183 57.7349C92.7354 56.6703 92.0313 55.949 91.6457 56.124C91.2601 56.2989 91.339 57.3037 91.822 58.3683Z" fill="#005801"/>
<path fill-rule="evenodd" clip-rule="evenodd" d="M91.9616 56.205C91.8422 56.1493 91.7449 56.143 91.6699 56.177C91.5949 56.2111 91.5354 56.2884 91.4987 56.4149C91.4621 56.5412 91.4507 56.7087 91.4663 56.9079C91.4976 57.3057 91.6357 57.8164 91.8751 58.3441C92.1145 58.8719 92.4078 59.3122 92.6865 59.5978C92.8261 59.7407 92.9597 59.8425 93.0788 59.8981C93.1981 59.9538 93.2955 59.96 93.3705 59.926C93.4455 59.892 93.5049 59.8146 93.5416 59.6881C93.5782 59.5619 93.5896 59.3943 93.574 59.1952C93.5428 58.7974 93.4047 58.2867 93.1652 57.7589C92.9258 57.2311 92.6326 56.7908 92.3538 56.5053C92.2143 56.3624 92.0807 56.2606 91.9616 56.205ZM92.4373 56.4238C92.7278 56.7213 93.028 57.1739 93.2715 57.7107C93.515 58.2475 93.6578 58.7715 93.6903 59.186C93.7066 59.393 93.6956 59.576 93.6537 59.7206C93.6118 59.865 93.5365 59.9788 93.4187 60.0323C93.3009 60.0857 93.1656 60.0674 93.0294 60.0038C92.893 59.9401 92.7481 59.8278 92.603 59.6793C92.3126 59.3817 92.0124 58.9291 91.7689 58.3923C91.5254 57.8555 91.3826 57.3315 91.35 56.917C91.3338 56.71 91.3447 56.5271 91.3867 56.3824C91.4286 56.2381 91.5039 56.1242 91.6217 56.0708C91.7395 56.0174 91.8747 56.0357 92.0109 56.0993C92.1474 56.163 92.2923 56.2752 92.4373 56.4238Z" fill="black"/>
<path fill-rule="evenodd" clip-rule="evenodd" d="M96.5801 72.7467C96.7754 72.5514 97.0404 72.4417 97.3167 72.4417C97.3489 72.4417 97.375 72.4678 97.375 72.5C97.375 72.5322 97.3489 72.5583 97.3167 72.5583C97.0713 72.5583 96.8361 72.6558 96.6626 72.8292C96.4891 73.0027 96.3917 73.238 96.3917 73.4833C96.3917 73.7286 96.4891 73.9639 96.6626 74.1374C96.8361 74.3109 97.0713 74.4083 97.3167 74.4083C97.3489 74.4083 97.375 74.4344 97.375 74.4667C97.375 74.4989 97.3489 74.525 97.3167 74.525C97.0404 74.525 96.7754 74.4152 96.5801 74.2199C96.3847 74.0245 96.275 73.7596 96.275 73.4833C96.275 73.207 96.3847 72.9421 96.5801 72.7467Z" fill="black"/>
<path d="M90.35 57.5666C90.5302 58.0069 90.7262 58.4335 90.927 58.8222C91.1278 59.2109 91.3293 59.5541 91.5202 59.8321C91.711 60.1101 91.8874 60.3175 92.0392 60.4425C92.1911 60.5675 92.3154 60.6076 92.4052 60.5606C92.4949 60.5135 92.5483 60.3802 92.5623 60.1683C92.5762 59.9563 92.5505 59.6699 92.4866 59.3253C92.4226 58.9808 92.3217 58.5848 92.1896 58.1601C92.0575 57.7354 91.8968 57.2902 91.7167 56.85" fill="#005801"/>
<path fill-rule="evenodd" clip-rule="evenodd" d="M91.6946 56.796C91.7244 56.7838 91.7585 56.7981 91.7707 56.8279C91.9514 57.2696 92.1127 57.7163 92.2453 58.1428C92.3779 58.5691 92.4795 58.9674 92.5439 59.3147C92.6082 59.6614 92.6349 59.9532 92.6205 60.1721C92.6132 60.2815 92.5957 60.3745 92.5663 60.4479C92.5369 60.5213 92.4936 60.5801 92.4323 60.6122C92.3699 60.6449 92.2994 60.6447 92.2276 60.6216C92.1567 60.5987 92.0811 60.5526 92.0022 60.4876C91.8442 60.3575 91.6642 60.1449 91.4721 59.8651C91.2795 59.5846 91.0768 59.2393 90.8752 58.849C90.6735 58.4586 90.4768 58.0304 90.296 57.5887C90.2838 57.5589 90.2981 57.5249 90.3279 57.5127C90.3577 57.5005 90.3918 57.5147 90.404 57.5445C90.5835 57.9833 90.7789 58.4084 90.9788 58.7954C91.1788 59.1826 91.3791 59.5236 91.5683 59.7991C91.7579 60.0753 91.9306 60.2776 92.0763 60.3975C92.1492 60.4575 92.2118 60.4939 92.2634 60.5105C92.3142 60.5269 92.3507 60.5233 92.3781 60.5089C92.4065 60.494 92.4347 60.4626 92.458 60.4046C92.4812 60.3466 92.4973 60.267 92.504 60.1644C92.5175 59.9594 92.4927 59.6784 92.4292 59.336C92.3658 58.9942 92.2655 58.6005 92.1339 58.1774C92.0024 57.7544 91.8422 57.3108 91.6627 56.8721C91.6505 56.8423 91.6648 56.8082 91.6946 56.796Z" fill="black"/>
<path d="M91.6954 56.1929C92.1783 57.2575 92.8824 57.9787 93.268 57.8038C93.6536 57.6289 93.5747 56.624 93.0918 55.5594C92.6088 54.4949 91.9048 53.7736 91.5192 53.9485C91.1336 54.1235 91.2124 55.1283 91.6954 56.1929Z" fill="#005801"/>
<path fill-rule="evenodd" clip-rule="evenodd" d="M91.835 54.0297C91.7156 53.974 91.6183 53.9677 91.5432 54.0017C91.4682 54.0358 91.4088 54.1131 91.3721 54.2396C91.3355 54.3659 91.3241 54.5334 91.3397 54.7326C91.371 55.1304 91.5091 55.6411 91.7485 56.1689C91.9879 56.6966 92.2812 57.1369 92.5599 57.4225C92.6994 57.5654 92.8331 57.6672 92.9522 57.7228C93.0715 57.7785 93.1689 57.7848 93.2439 57.7507C93.3189 57.7167 93.3783 57.6393 93.415 57.5128C93.4516 57.3866 93.463 57.219 93.4474 57.0199C93.4162 56.6221 93.278 56.1114 93.0386 55.5836C92.7992 55.0558 92.5059 54.6155 92.2272 54.33C92.0877 54.1871 91.9541 54.0853 91.835 54.0297ZM92.3107 54.2485C92.6011 54.546 92.9014 54.9986 93.1449 55.5354C93.3884 56.0722 93.5312 56.5962 93.5637 57.0107C93.58 57.2177 93.569 57.4007 93.527 57.5453C93.4852 57.6897 93.4099 57.8035 93.2921 57.857C93.1743 57.9104 93.039 57.8921 92.9028 57.8285C92.7663 57.7648 92.6215 57.6525 92.4764 57.504C92.186 57.2064 91.8857 56.7539 91.6422 56.217C91.3987 55.6802 91.256 55.1562 91.2234 54.7417C91.2072 54.5347 91.2181 54.3518 91.2601 54.2071C91.302 54.0628 91.3773 53.9489 91.4951 53.8955C91.6128 53.8421 91.7481 53.8604 91.8843 53.924C92.0208 53.9877 92.1657 54.0999 92.3107 54.2485Z" fill="black"/>
<path d="M90.4201 56.7917C90.8806 57.8662 91.5694 58.602 91.9586 58.4352C92.3478 58.2684 92.29 57.2622 91.8294 56.1877C91.3689 55.1132 90.6801 54.3774 90.2909 54.5442C89.9018 54.711 89.9596 55.7173 90.4201 56.7917Z" fill="#005801"/>
<path fill-rule="evenodd" clip-rule="evenodd" d="M90.6049 54.6318C90.4868 54.5736 90.3896 54.5653 90.3139 54.5978C90.2382 54.6302 90.1771 54.7063 90.1378 54.832C90.0986 54.9575 90.0836 55.1248 90.0951 55.3242C90.118 55.7225 90.2454 56.236 90.4737 56.7687C90.702 57.3014 90.986 57.7477 91.2587 58.039C91.3952 58.1849 91.5266 58.2894 91.6446 58.3475C91.7627 58.4057 91.8599 58.414 91.9356 58.3815C92.0113 58.3491 92.0724 58.273 92.1117 58.1473C92.1509 58.0218 92.1659 57.8545 92.1544 57.6551C92.1315 57.2568 92.0041 56.7433 91.7758 56.2106C91.5475 55.6779 91.2635 55.2316 90.9908 54.9403C90.8543 54.7944 90.7229 54.6899 90.6049 54.6318ZM91.076 54.8605C91.3601 55.1641 91.6508 55.6229 91.883 56.1646C92.1152 56.7064 92.247 57.2333 92.2709 57.6484C92.2828 57.8557 92.268 58.0384 92.223 58.1821C92.1781 58.3256 92.1005 58.4378 91.9816 58.4888C91.8627 58.5397 91.7278 58.5186 91.593 58.4522C91.4579 58.3856 91.3154 58.2703 91.1735 58.1188C90.8894 57.8152 90.5987 57.3564 90.3665 56.8147C90.1343 56.2729 90.0025 55.746 89.9786 55.3309C89.9667 55.1236 89.9815 54.9409 90.0265 54.7972C90.0714 54.6537 90.149 54.5415 90.2679 54.4905C90.3868 54.4396 90.5217 54.4607 90.6565 54.5271C90.7916 54.5937 90.9341 54.709 91.076 54.8605Z" fill="black"/>
<path d="M89.5 55.0167C89.6762 55.3145 89.8623 55.6005 90.0477 55.8584C90.2331 56.1163 90.4142 56.3411 90.5805 56.5199C90.7469 56.6987 90.8953 56.8281 91.0174 56.9006C91.1394 56.9731 91.2326 56.9873 91.2917 56.9424C91.3508 56.8975 91.3746 56.7945 91.3618 56.6391C91.349 56.4837 91.2997 56.279 91.2169 56.0367C91.1341 55.7945 91.0194 55.5193 90.8792 55.2271C90.739 54.9348 90.5762 54.6311 90.4 54.3334" fill="#005801"/>
<path fill-rule="evenodd" clip-rule="evenodd" d="M90.3703 54.2832C90.398 54.2668 90.4338 54.2759 90.4502 54.3037C90.6272 54.6028 90.7908 54.9079 90.9318 55.2018C91.0727 55.4956 91.1884 55.7729 91.2721 56.0179C91.3556 56.2622 91.4065 56.472 91.4199 56.6343C91.4266 56.7154 91.4241 56.7865 91.4105 56.8453C91.397 56.904 91.3711 56.9553 91.327 56.9889C91.2818 57.0232 91.2266 57.0319 91.1693 57.0232C91.1132 57.0146 91.052 56.989 90.9876 56.9507C90.8585 56.8741 90.7057 56.7401 90.5378 56.5596C90.3694 56.3786 90.1868 56.1518 90.0003 55.8924C89.8138 55.633 89.6268 55.3455 89.4498 55.0464C89.4334 55.0187 89.4426 54.9829 89.4703 54.9665C89.498 54.9501 89.5338 54.9593 89.5502 54.987C89.7256 55.2834 89.9108 55.5679 90.0951 55.8243C90.2794 56.0808 90.4589 56.3036 90.6232 56.4802C90.7881 56.6574 90.9321 56.7821 91.0472 56.8504C91.1047 56.8846 91.1512 56.9024 91.1869 56.9078C91.2216 56.9131 91.2425 56.9065 91.2564 56.896C91.2714 56.8846 91.2869 56.862 91.2969 56.8191C91.3068 56.7762 91.3098 56.7182 91.3036 56.6439C91.2914 56.4953 91.2438 56.2958 91.1617 56.0556C91.0798 55.816 90.966 55.543 90.8266 55.2523C90.6872 54.9617 90.5252 54.6595 90.3498 54.3631C90.3334 54.3353 90.3426 54.2996 90.3703 54.2832Z" fill="black"/>
<path d="M90.0167 54.1834C90.3349 54.7448 90.6972 55.2648 91.0239 55.629C91.3505 55.9932 91.6147 56.1717 91.7584 56.1253C91.902 56.0789 91.9134 55.8114 91.7899 55.3815C91.6664 54.9517 91.4183 54.3948 91.1 53.8334" fill="#005801"/>
<path fill-rule="evenodd" clip-rule="evenodd" d="M91.0712 53.7826C91.0992 53.7667 91.1348 53.7766 91.1507 53.8046C91.4704 54.3685 91.7208 54.9297 91.846 55.3654C91.9084 55.5827 91.9383 55.7641 91.9326 55.8997C91.927 56.031 91.8856 56.1455 91.7763 56.1808C91.7249 56.1974 91.6682 56.1923 91.6113 56.1742C91.5541 56.156 91.4923 56.1235 91.4271 56.0795C91.2967 55.9914 91.1453 55.8518 90.9804 55.668C90.6503 55.2999 90.2856 54.7762 89.9659 54.2121C89.95 54.1841 89.9599 54.1485 89.9879 54.1326C90.0159 54.1167 90.0515 54.1266 90.0674 54.1546C90.3842 54.7135 90.7442 55.2298 91.0673 55.5901C91.229 55.7704 91.3731 55.9022 91.4924 55.9828C91.552 56.0231 91.6036 56.0493 91.6466 56.063C91.6898 56.0767 91.72 56.0764 91.7404 56.0698C91.7748 56.0587 91.8109 56.0163 91.816 55.8947C91.821 55.7775 91.7949 55.6102 91.7338 55.3976C91.6121 54.9737 91.3662 54.4212 91.0492 53.8621C91.0334 53.8341 91.0432 53.7985 91.0712 53.7826Z" fill="black"/>
<path d="M91.95 54.6167C92.1939 55.023 92.4516 55.4132 92.7084 55.7651C92.9652 56.117 93.216 56.4237 93.4465 56.6676C93.677 56.9116 93.8827 57.088 94.0519 57.1869C94.2211 57.2857 94.3504 57.3051 94.4325 57.2438C94.5145 57.1825 94.5478 57.0418 94.5303 56.8297C94.5127 56.6176 94.4448 56.3383 94.3304 56.0077C94.2159 55.677 94.0572 55.3016 93.8632 54.9028C93.6693 54.504 93.4439 54.0896 93.2 53.6833" fill="#005801"/>
<path fill-rule="evenodd" clip-rule="evenodd" d="M93.17 53.6333C93.1976 53.6167 93.2334 53.6257 93.25 53.6533C93.4948 54.061 93.721 54.4768 93.9157 54.8773C94.1104 55.2777 94.2701 55.6553 94.3855 55.9886C94.5007 56.3212 94.5703 56.6058 94.5884 56.8249C94.5975 56.9344 94.5938 57.0293 94.5755 57.1067C94.5572 57.1841 94.5231 57.2489 94.4674 57.2905C94.4108 57.3328 94.341 57.3442 94.2662 57.3331C94.1924 57.322 94.1105 57.2887 94.0225 57.2372C93.8463 57.1343 93.6361 56.9532 93.4041 56.7077C93.1715 56.4615 92.9191 56.1528 92.6613 55.7995C92.4034 55.446 92.1447 55.0543 91.9 54.6467C91.8834 54.6191 91.8924 54.5832 91.92 54.5667C91.9476 54.5501 91.9834 54.559 92 54.5866C92.2431 54.9916 92.4999 55.3803 92.7555 55.7307C93.0113 56.0812 93.2605 56.3858 93.4889 56.6276C93.7179 56.8699 93.9192 57.0417 94.0814 57.1365C94.1625 57.1839 94.2298 57.2097 94.2835 57.2177C94.3362 57.2256 94.3721 57.216 94.3976 57.197C94.424 57.1773 94.4475 57.1412 94.462 57.0799C94.4764 57.0186 94.4806 56.9371 94.4721 56.8345C94.4552 56.6294 94.389 56.3553 94.2753 56.0267C94.1617 55.6988 94.004 55.3256 93.8108 54.9283C93.6176 54.5311 93.3931 54.1183 93.15 53.7134C93.1334 53.6857 93.1424 53.6499 93.17 53.6333Z" fill="black"/>
<path d="M90.8 53.5333C90.9685 53.857 91.1495 54.1706 91.3318 54.4548C91.5142 54.7391 91.6941 54.988 91.8605 55.1864C92.0269 55.3848 92.1764 55.5285 92.2997 55.6087C92.4231 55.6889 92.5177 55.7039 92.5779 55.6528C92.6381 55.6017 92.6625 55.4856 92.6497 55.3116C92.6368 55.1375 92.587 54.9092 92.5033 54.6406C92.4195 54.372 92.3036 54.0688 92.1627 53.7494C92.0217 53.4301 91.8586 53.1014 91.6833 52.7833" fill="#005801"/>
<path fill-rule="evenodd" clip-rule="evenodd" d="M91.6552 52.7322C91.6834 52.7167 91.7189 52.727 91.7344 52.7552C91.9104 53.0746 92.0743 53.4049 92.216 53.7259C92.3577 54.0468 92.4744 54.3521 92.559 54.6233C92.6433 54.8939 92.6945 55.1269 92.7078 55.3073C92.7145 55.3974 92.7118 55.4759 92.6982 55.5403C92.6848 55.6042 92.6594 55.6601 92.6157 55.6972C92.57 55.7361 92.513 55.747 92.4534 55.7376C92.3955 55.7284 92.3331 55.6999 92.2679 55.6576C92.1374 55.5727 91.9836 55.4239 91.8158 55.2239C91.6474 55.0231 91.4661 54.7721 91.2827 54.4863C91.0994 54.2005 90.9175 53.8854 90.7482 53.5603C90.7334 53.5317 90.7445 53.4965 90.773 53.4816C90.8016 53.4667 90.8368 53.4778 90.8517 53.5064C91.0195 53.8287 91.1996 54.1407 91.3809 54.4233C91.5623 54.7061 91.7408 54.9529 91.9052 55.1489C92.0703 55.3457 92.2153 55.4842 92.3315 55.5598C92.3897 55.5976 92.4363 55.6167 92.4716 55.6223C92.5052 55.6277 92.5257 55.6206 92.5401 55.6083C92.5566 55.5944 92.5735 55.5667 92.5841 55.5163C92.5946 55.4664 92.5977 55.3998 92.5915 55.3158C92.5791 55.1481 92.5307 54.9246 92.4476 54.658C92.3646 54.3919 92.2496 54.0908 92.1093 53.773C91.969 53.4553 91.8067 53.1281 91.6322 52.8115C91.6167 52.7833 91.6269 52.7478 91.6552 52.7322Z" fill="black"/>
<path d="M91.6167 50.7833C91.1333 51.2833 91.6333 52.1833 92.0667 52.5499C92.5833 52.9833 95.4167 55.9999 97.4167 53.4833C95.8167 53.4499 92.8167 49.6833 91.6167 50.7833Z" fill="#9063CD"/>
<path fill-rule="evenodd" clip-rule="evenodd" d="M96.0359 52.8438C96.5611 53.1846 97.0361 53.4171 97.4179 53.425L97.5356 53.4275L97.4623 53.5197C96.9538 54.1595 96.3883 54.4518 95.8163 54.5181C95.2464 54.5842 94.6771 54.4251 94.16 54.1755C93.3076 53.764 92.581 53.0975 92.2121 52.7591C92.1346 52.688 92.0729 52.6314 92.0292 52.5947L92.029 52.5946C91.8047 52.4048 91.5652 52.0796 91.4429 51.7363C91.3209 51.3938 91.3105 51.0161 91.5747 50.7428L91.5759 50.7416L91.5772 50.7404C91.9036 50.4412 92.3461 50.4814 92.8267 50.6827C93.3089 50.8847 93.8516 51.2575 94.4012 51.6614C94.55 51.7707 94.6993 51.8823 94.8483 51.9937C95.2522 52.2957 95.6538 52.5959 96.0359 52.8438ZM91.6574 50.8252C91.4394 51.0518 91.4376 51.3735 91.5528 51.6971C91.668 52.0204 91.8952 52.3285 92.1042 52.5054C92.1513 52.5449 92.2161 52.6043 92.2965 52.678C92.669 53.0193 93.3768 53.6679 94.2108 54.0704C94.7166 54.3146 95.2629 54.4648 95.8029 54.4022C96.3151 54.3429 96.8279 54.0913 97.3001 53.5335C96.9066 53.4869 96.4498 53.2514 95.9724 52.9417C95.5868 52.6915 95.1804 52.3877 94.7755 52.085C94.6271 51.9741 94.479 51.8633 94.3321 51.7554C93.7817 51.3509 93.2494 50.9862 92.7816 50.7903C92.3129 50.594 91.9309 50.5756 91.6574 50.8252Z" fill="black"/>
<path d="M91.2666 49.3C90.7833 49.8 91.2833 50.7 91.7166 51.0667C92.2333 51.5 95.0666 54.5167 97.0666 52C95.4666 51.9667 92.4666 48.2 91.2666 49.3Z" fill="#9063CD"/>
<path fill-rule="evenodd" clip-rule="evenodd" d="M95.6859 51.3604C96.2111 51.7012 96.6861 51.9337 97.0679 51.9416L97.1855 51.9441L97.1123 52.0363C96.6038 52.6761 96.0383 52.9684 95.4663 53.0347C94.8964 53.1008 94.3271 52.9417 93.81 52.6921C92.9576 52.2806 92.2309 51.6141 91.8621 51.2757C91.7846 51.2046 91.7229 51.148 91.6792 51.1113L91.679 51.1112C91.4547 50.9214 91.2152 50.5962 91.0929 50.2529C90.9709 49.9104 90.9605 49.5327 91.2247 49.2594L91.2259 49.2582L91.2272 49.257C91.5536 48.9578 91.9961 48.998 92.4767 49.1993C92.9589 49.4013 93.5015 49.7741 94.0512 50.178C94.2 50.2873 94.3493 50.3989 94.4983 50.5103C94.9022 50.8123 95.3038 51.1125 95.6859 51.3604ZM91.3074 49.3418C91.0894 49.5684 91.0876 49.8901 91.2028 50.2137C91.318 50.537 91.5452 50.8451 91.7542 51.022C91.8013 51.0615 91.8661 51.1209 91.9465 51.1946C92.319 51.5359 93.0268 52.1845 93.8607 52.587C94.3666 52.8312 94.9129 52.9814 95.4529 52.9188C95.9651 52.8595 96.4779 52.6079 96.9501 52.0501C96.5566 52.0035 96.0998 51.768 95.6224 51.4583C95.2367 51.2081 94.8304 50.9043 94.4255 50.6016C94.2771 50.4907 94.129 50.3799 93.9821 50.272C93.4317 49.8675 92.8994 49.5028 92.4316 49.3069C91.9629 49.1106 91.5809 49.0922 91.3074 49.3418Z" fill="black"/>
<path d="M90.8166 47.8834C90.3333 48.3834 90.8333 49.2834 91.2666 49.65C91.7833 50.0834 94.6166 53.1 96.6166 50.5834C95.0166 50.55 92.0166 46.7834 90.8166 47.8834Z" fill="#9063CD"/>
<path fill-rule="evenodd" clip-rule="evenodd" d="M95.2359 49.9438C95.7611 50.2845 96.2361 50.5171 96.6179 50.525L96.7356 50.5275L96.6623 50.6196C96.1538 51.2595 95.5883 51.5518 95.0163 51.6181C94.4464 51.6842 93.8771 51.525 93.36 51.2755C92.5076 50.864 91.781 50.1974 91.4121 49.8591C91.3346 49.788 91.2729 49.7314 91.2292 49.6947L91.229 49.6945C91.0047 49.5047 90.7653 49.1796 90.643 48.8362C90.5209 48.4938 90.5106 48.1161 90.7747 47.8428L90.7759 47.8415L90.7772 47.8403C91.1036 47.5412 91.5461 47.5814 92.0267 47.7827C92.5089 47.9846 93.0516 48.3574 93.6012 48.7613C93.75 48.8707 93.8993 48.9823 94.0483 49.0937C94.4522 49.3957 94.8538 49.6959 95.2359 49.9438ZM90.8574 47.9251C90.6394 48.1518 90.6376 48.4735 90.7529 48.7971C90.868 49.1204 91.0952 49.4285 91.3042 49.6054C91.3513 49.6449 91.4161 49.7042 91.4965 49.778C91.869 50.1192 92.5768 50.7679 93.4108 51.1704C93.9166 51.4146 94.4629 51.5648 95.0029 51.5022C95.5151 51.4429 96.0279 51.1913 96.5001 50.6335C96.1066 50.5869 95.6498 50.3514 95.1724 50.0416C94.7868 49.7914 94.3804 49.4877 93.9755 49.1849C93.8271 49.074 93.679 48.9633 93.5321 48.8553C92.9817 48.4509 92.4494 48.0862 91.9816 47.8903C91.5129 47.6939 91.1309 47.6755 90.8574 47.9251Z" fill="black"/>
<path d="M89.8333 46.2667C89.35 46.7667 89.85 47.6667 90.2833 48.0333C90.8 48.4667 93.6333 51.4833 95.6333 48.9667C94.0333 48.9333 91.0333 45.1667 89.8333 46.2667Z" fill="#9063CD"/>
<path fill-rule="evenodd" clip-rule="evenodd" d="M94.2526 48.3271C94.7778 48.6678 95.2528 48.9004 95.6345 48.9083L95.7522 48.9108L95.679 49.0029C95.1705 49.6428 94.605 49.9351 94.033 50.0014C93.4631 50.0675 92.8938 49.9083 92.3767 49.6588C91.5242 49.2473 90.7976 48.5807 90.4288 48.2424C90.3513 48.1713 90.2896 48.1147 90.2458 48.078L90.2456 48.0778C90.0213 47.888 89.7819 47.5629 89.6596 47.2195C89.5376 46.8771 89.5272 46.4994 89.7914 46.2261L89.7926 46.2248L89.7939 46.2236C90.1202 45.9245 90.5628 45.9647 91.0434 46.166C91.5256 46.3679 92.0682 46.7407 92.6179 47.1446C92.7667 47.254 92.916 47.3656 93.065 47.477C93.4689 47.779 93.8704 48.0792 94.2526 48.3271ZM89.874 46.3084C89.6561 46.5351 89.6542 46.8568 89.7695 47.1804C89.8847 47.5037 90.1119 47.8118 90.3209 47.9887C90.3679 48.0282 90.4327 48.0875 90.5132 48.1613C90.8857 48.5025 91.5935 49.1512 92.4274 49.5537C92.9333 49.7979 93.4796 49.9481 94.0196 49.8855C94.5317 49.8262 95.0446 49.5746 95.5168 49.0168C95.1233 48.9702 94.6664 48.7347 94.1891 48.4249C93.8034 48.1747 93.3971 47.871 92.9921 47.5682C92.8438 47.4573 92.6957 47.3466 92.5488 47.2386C91.9984 46.8342 91.4661 46.4695 90.9983 46.2736C90.5296 46.0772 90.1476 46.0588 89.874 46.3084Z" fill="black"/>
<path d="M86.35 44.7167C87.3666 43.95 89.2333 43.7333 90.6833 44.4667C91.9 45.0667 93.9166 47.4833 95.4333 48.0667C94.3666 48.25 93.7166 48.0833 93.0333 47.7667C91.6833 48.7333 91.2 48.8833 89.8333 49.0833C87.9166 49.35 86.3333 48.85 85.7666 47.8667C85.2 46.9167 85.45 45.4167 86.35 44.7167Z" fill="#9063CD"/>
<path fill-rule="evenodd" clip-rule="evenodd" d="M86.3855 44.763C85.9493 45.1024 85.6679 45.6382 85.5657 46.2082C85.4635 46.7785 85.542 47.3761 85.8167 47.8368L85.8172 47.8375L85.8172 47.8375C86.0908 48.3124 86.6135 48.6761 87.3107 48.8879C88.0073 49.0996 88.8735 49.1579 89.8251 49.0256C90.5079 48.9257 90.9644 48.8389 91.418 48.6583C91.8717 48.4776 92.3254 48.2018 92.9994 47.7192L93.027 47.6994L93.0578 47.7137C93.688 48.0058 94.2867 48.1682 95.2227 48.0402C94.8912 47.8855 94.5418 47.6566 94.1872 47.389C93.7639 47.0695 93.3301 46.6926 92.9071 46.3165C92.8099 46.2301 92.7133 46.1438 92.6176 46.0582C92.2958 45.7705 91.9832 45.4911 91.6881 45.2451C91.3047 44.9254 90.955 44.6657 90.6575 44.519L90.657 44.5187C89.9428 44.1575 89.1245 44.0297 88.3585 44.0873C87.5922 44.145 86.883 44.3879 86.3855 44.763ZM90.7094 44.4145C89.9736 44.0424 89.1337 43.912 88.3498 43.971C87.5662 44.03 86.834 44.2786 86.3149 44.6701L86.3149 44.6701L86.3142 44.6706C85.8505 45.0312 85.557 45.5953 85.4509 46.1876C85.3448 46.7797 85.4246 47.4069 85.7163 47.8962C86.0094 48.4045 86.5617 48.7823 87.2768 48.9996C87.9926 49.217 88.8763 49.2754 89.8414 49.1411L89.8418 49.141C90.5255 49.041 90.9939 48.9527 91.4611 48.7667C91.9219 48.5832 92.3786 48.3059 93.0397 47.8338C93.7211 48.1455 94.3794 48.307 95.4432 48.1241L95.652 48.0883L95.4543 48.0122C95.0826 47.8693 94.6773 47.6127 94.2575 47.2959C93.8382 46.9794 93.4074 46.6053 92.9846 46.2293C92.888 46.1435 92.7919 46.0575 92.6964 45.9722C92.3743 45.6842 92.0597 45.4029 91.7629 45.1554C91.3787 44.8351 91.0201 44.5678 90.7094 44.4145Z" fill="black"/>
<path d="M88.5067 46.735C88.9964 46.735 89.3933 46.5052 89.3933 46.2217C89.3933 45.9382 88.9964 45.7084 88.5067 45.7084C88.017 45.7084 87.62 45.9382 87.62 46.2217C87.62 46.5052 88.017 46.735 88.5067 46.735Z" fill="#D91C16"/>
<path fill-rule="evenodd" clip-rule="evenodd" d="M87.9086 45.9087C87.7569 45.9965 87.6777 46.1092 87.6777 46.2217C87.6777 46.3342 87.7569 46.4469 87.9086 46.5347C88.0588 46.6217 88.2701 46.6773 88.5067 46.6773C88.7432 46.6773 88.9545 46.6217 89.1047 46.5347C89.2564 46.4469 89.3356 46.3342 89.3356 46.2217C89.3356 46.1092 89.2564 45.9965 89.1047 45.9087C88.9545 45.8218 88.7432 45.7661 88.5067 45.7661C88.2701 45.7661 88.0588 45.8218 87.9086 45.9087ZM87.8508 45.8088C88.0215 45.7099 88.2535 45.6506 88.5067 45.6506C88.7598 45.6506 88.9919 45.7099 89.1626 45.8088C89.3318 45.9067 89.4511 46.0507 89.4511 46.2217C89.4511 46.3928 89.3318 46.5367 89.1626 46.6347C88.9919 46.7335 88.7598 46.7928 88.5067 46.7928C88.2535 46.7928 88.0215 46.7335 87.8508 46.6347C87.6815 46.5367 87.5623 46.3928 87.5623 46.2217C87.5623 46.0507 87.6815 45.9067 87.8508 45.8088Z" fill="black"/>
<path d="M88.46 46.455C88.6275 46.455 88.7633 46.3349 88.7633 46.1867C88.7633 46.0385 88.6275 45.9183 88.46 45.9183C88.2925 45.9183 88.1567 46.0385 88.1567 46.1867C88.1567 46.3349 88.2925 46.455 88.46 46.455Z" fill="black"/>
<path d="M84.6918 48.6909C84.8362 49.0792 85.4638 49.204 86.0936 48.9698C86.7234 48.7356 87.1169 48.231 86.9725 47.8427C86.8281 47.4545 86.2005 47.3296 85.5707 47.5639C84.9409 47.7981 84.5474 48.3027 84.6918 48.6909Z" fill="#FDD406"/>
<path fill-rule="evenodd" clip-rule="evenodd" d="M86.4422 47.5271C86.2008 47.4791 85.8975 47.5046 85.591 47.6186C85.2846 47.7326 85.0383 47.9114 84.8869 48.1056C84.7348 48.3006 84.6839 48.5026 84.7464 48.6706C84.8089 48.8387 84.9795 48.9584 85.222 49.0066C85.4635 49.0547 85.7668 49.0291 86.0732 48.9152C86.3796 48.8012 86.6259 48.6223 86.7773 48.4282C86.9294 48.2332 86.9803 48.0312 86.9178 47.8631C86.8553 47.695 86.6848 47.5754 86.4422 47.5271ZM86.465 47.4127C86.7298 47.4654 86.9453 47.6023 87.0272 47.8225C87.109 48.0426 87.0354 48.287 86.8693 48.4999C86.7026 48.7137 86.4373 48.9043 86.1139 49.0245C85.7905 49.1448 85.4651 49.1739 85.1992 49.121C84.9344 49.0684 84.719 48.9315 84.6371 48.7113C84.5552 48.4912 84.6289 48.2467 84.7949 48.0338C84.9616 47.82 85.227 47.6295 85.5504 47.5092C85.8737 47.389 86.1991 47.3598 86.465 47.4127Z" fill="black"/>
<path d="M86.5667 46.9C86.65 47.2833 86.3667 47.8167 85.7333 48C85.1 48.2667 84.6167 48.8667 84.3333 49.85C83.3667 47.6167 83.9833 46.6667 85.0167 46.4333C85.9 46.15 86.4333 46.1833 86.5667 46.9Z" fill="#FDD406"/>
<path fill-rule="evenodd" clip-rule="evenodd" d="M86.0593 46.3483C85.816 46.29 85.4757 46.3473 85.0345 46.4888L85.032 46.4896L85.0295 46.4902C84.5282 46.6034 84.136 46.8873 83.9809 47.4083C83.8312 47.911 83.8988 48.6454 84.3245 49.6791C84.6162 48.7754 85.0906 48.2073 85.7107 47.9462L85.7138 47.9449L85.7171 47.9439C86.3275 47.7672 86.5851 47.2594 86.5097 46.9123L86.5093 46.9106L86.5093 46.9106C86.4772 46.7379 86.4219 46.6117 86.3476 46.5221C86.2739 46.4333 86.1786 46.377 86.0593 46.3483ZM86.6239 46.8884C86.5893 46.7032 86.528 46.5568 86.4373 46.4476C86.3459 46.3374 86.2276 46.2688 86.0865 46.2349C85.8095 46.1684 85.4423 46.2357 85.0013 46.377C84.4704 46.4975 84.0387 46.8052 83.8691 47.375C83.7008 47.9403 83.7944 48.7517 84.2798 49.8731L84.3444 50.0223L84.3894 49.8661C84.6692 48.895 85.1425 48.3133 85.7529 48.055C86.4064 47.8643 86.7143 47.3072 86.6239 46.8884Z" fill="black"/>
<path d="M85.6333 47.6167C85.753 47.6167 85.85 47.5197 85.85 47.4C85.85 47.2804 85.753 47.1833 85.6333 47.1833C85.5137 47.1833 85.4167 47.2804 85.4167 47.4C85.4167 47.5197 85.5137 47.6167 85.6333 47.6167Z" fill="black"/>
</g>
<defs>
<clipPath id="clip0_909_217097">
<rect width="180" height="120" fill="white"/>
</clipPath>
</defs>
</svg>
