<svg width="180" height="120" viewBox="0 0 180 120" fill="none" xmlns="http://www.w3.org/2000/svg">
<g clip-path="url(#clip0_909_101562)">
<path d="M0 80H180V120H0V80Z" fill="black"/>
<path d="M0 40H180V80H0V40Z" fill="white"/>
<path d="M0 0H180V40H0V0Z" fill="#D91C16"/>
<path d="M90.1502 60.48L103.85 73.2L102.87 50.1C102.73 46.6 99.6902 47.4 97.4702 48.66C95.2502 50.1 92.6702 50.1 89.9902 49.16C87.2902 50.1 84.7302 50.1 82.5102 48.66C80.3102 47.4 77.2502 46.6 77.1102 50.1L76.1302 73.2L90.1502 60.48Z" fill="white"/>
<path fill-rule="evenodd" clip-rule="evenodd" d="M79.0279 47.4654C80.126 47.3823 81.4698 47.9143 82.5749 48.5472C82.5769 48.5484 82.579 48.5496 82.581 48.5509C84.7567 49.9622 87.2717 49.9688 89.9475 49.0372C89.9753 49.0276 90.0055 49.0276 90.0333 49.0373C92.6888 49.9687 95.2237 49.9623 97.3995 48.5509C97.4016 48.5495 97.4038 48.5482 97.4061 48.5469C98.5206 47.9143 99.8645 47.3823 100.96 47.4654C101.514 47.5073 102.012 47.7072 102.378 48.1368C102.743 48.5641 102.964 49.2025 103 50.0948L103.98 73.1945C103.982 73.2471 103.953 73.2959 103.905 73.318C103.857 73.3401 103.8 73.3311 103.762 73.2953L90.1492 60.6564L76.2176 73.2963C76.1788 73.3315 76.1226 73.34 76.0751 73.3177C76.0276 73.2955 75.9981 73.2469 76.0004 73.1945L76.9803 50.0948C76.9803 50.0948 76.9804 50.0947 76.9804 50.0947C77.0161 49.2022 77.2386 48.5638 77.605 48.1366C77.9734 47.7071 78.4733 47.5073 79.0279 47.4654ZM77.8024 48.3059C77.4869 48.6737 77.2744 49.2477 77.2401 50.1052L77.2401 50.1055L76.2733 72.8947L90.0629 60.3837C90.1129 60.3384 90.1892 60.3388 90.2387 60.3847L103.707 72.8896L102.74 50.1055L102.74 50.1052C102.706 49.2475 102.495 48.6734 102.181 48.3057C101.869 47.9403 101.442 47.7626 100.94 47.7246C99.927 47.6478 98.6424 48.1446 97.5377 48.7712C95.2862 50.23 92.6781 50.2308 89.9901 49.2976C87.2827 50.2308 84.6942 50.2301 82.4425 48.771C81.3482 48.1447 80.0635 47.6478 79.0475 47.7246C78.5447 47.7627 78.1158 47.9404 77.8024 48.3059Z" fill="#D3AE3B"/>
<path d="M78.6902 49.3L77.7302 71.76L76.1302 73.2L77.1102 50.1C77.5827 49.7377 78.1185 49.4664 78.6902 49.3ZM80.6102 50.9L79.8102 69.7L78.2102 71.3401L79.1702 49.64C79.4902 49.96 80.4302 50.74 80.6102 50.9ZM82.3502 52.3401L81.7302 68.0201L80.4302 69.28L81.2302 51.4C81.5502 51.7 82.1902 52.1601 82.3502 52.3401ZM84.2502 53.1401L83.6302 66.5L82.3702 67.5201L82.9902 52.66C83.3102 52.8 83.9302 53.1401 84.2502 53.1401ZM86.0102 53.1401L85.5502 64.28L84.2502 65.5401L84.7502 53.28C85.0502 53.28 85.8702 53.2801 86.0102 53.1401Z" fill="#D3AE3B"/>
<path d="M101.29 49.3L102.25 71.76L103.85 73.2L102.87 50.1C102.398 49.7377 101.862 49.4664 101.29 49.3ZM99.3703 50.9L100.17 69.7L101.77 71.3401L100.81 49.64C100.49 49.96 99.5503 50.74 99.3703 50.9ZM97.6303 52.3401L98.2503 68.0201L99.5503 69.28L98.7503 51.4C98.4303 51.7 97.7903 52.1601 97.6303 52.3401ZM95.7303 53.1401L96.3503 66.5L97.6103 67.5201L96.9903 52.66C96.6703 52.8 96.0503 53.1401 95.7303 53.1401ZM93.9703 53.1401L94.4303 64.28L95.7303 65.5401L95.2303 53.28C94.9303 53.28 94.1103 53.2801 93.9703 53.1401Z" fill="#D3AE3B"/>
<path d="M90.6302 63L92.5502 71.76L91.9102 72.4L91.2502 71.9L90.1702 64.1L90.6302 71.9L89.9902 72.7L89.3702 71.9L89.8302 64.1L88.7302 71.9L88.0702 72.4L87.4302 71.76L89.3502 63.02H90.6302V63Z" fill="#D3AE3B"/>
<path fill-rule="evenodd" clip-rule="evenodd" d="M89.2618 62.91H90.6303V62.9881L90.7377 62.9765L92.6706 71.7953L91.9203 72.5456L91.1475 71.9602L90.4446 66.8834L90.7426 71.9357L89.9889 72.8778L89.258 71.9348L89.561 66.7969L88.8328 71.9603L88.0603 72.5456L87.3099 71.7952L89.2618 62.91ZM90.5461 63.13H89.4387L87.5506 71.7248L88.0803 72.2545L88.6277 71.8397L89.7213 64.0847L89.9401 64.1065L89.4825 71.8653L89.9916 72.5222L90.518 71.8643L90.0605 64.1065L90.2792 64.0849L91.353 71.8398L91.9003 72.2545L92.4299 71.7248L90.5461 63.13Z" fill="#D3AE3B"/>
<path d="M85.6902 59.16L81.8702 72.7L87.1302 73.5L89.3502 63.32L85.6902 59.16Z" fill="white"/>
<path fill-rule="evenodd" clip-rule="evenodd" d="M85.6637 59.043C85.7065 59.0333 85.7513 59.0478 85.7803 59.0808L89.4403 63.2408C89.4655 63.2694 89.4756 63.3083 89.4675 63.3456L87.2475 73.5256C87.234 73.5875 87.1748 73.6282 87.1122 73.6187L81.8522 72.8187C81.8182 72.8135 81.788 72.794 81.7694 72.765C81.7507 72.7361 81.7454 72.7006 81.7548 72.6675L85.5748 59.1275C85.5867 59.0852 85.6208 59.0528 85.6637 59.043ZM85.7458 59.4049L82.0226 72.6018L87.037 73.3645L89.2201 63.3538L85.7458 59.4049Z" fill="#D3AE3B"/>
<path fill-rule="evenodd" clip-rule="evenodd" d="M87.4599 62.6342L84.9799 64.9942C84.9489 65.0237 84.9054 65.036 84.8635 65.0273C84.8217 65.0185 84.7868 64.9896 84.7703 64.9502L84.3103 63.8502L84.5502 63.7499L84.9374 64.6757L87.2806 62.4459L87.4599 62.6342Z" fill="#D3AE3B"/>
<path fill-rule="evenodd" clip-rule="evenodd" d="M86.541 65.8739L86.021 61.0139L86.2795 60.9862L86.7647 65.5208L88.1467 63.7014L88.3538 63.8587L87.762 64.6377L88.4006 66.8653L88.7017 66.4085L88.9188 66.5516L88.495 67.1946L88.5952 67.5442L88.3453 67.6159L88.3065 67.4806L87.1936 69.1692L87.7374 71.7331L87.4831 71.787L86.9881 69.4534L85.9591 71.031C85.9318 71.073 85.8827 71.0955 85.833 71.0889C85.7834 71.0823 85.7419 71.0477 85.7265 71L85.193 69.3479L84.1809 70.9883C84.1537 71.0324 84.1028 71.0562 84.0515 71.0487C84.0002 71.0412 83.9582 71.004 83.9447 70.9539L83.1247 67.9139C83.1128 67.8695 83.1251 67.8221 83.1572 67.7892L84.7972 66.1092C84.8298 66.0759 84.8776 66.0625 84.9227 66.0742C84.9678 66.0858 85.0033 66.1207 85.0156 66.1656L85.4452 67.7292L86.4661 66.3623C86.4971 66.3208 86.5497 66.3016 86.6001 66.3135C86.6506 66.3254 86.6891 66.3661 86.6982 66.4171L87.1251 68.8006L88.2121 67.1513L87.5656 64.8962L86.7738 65.9387C86.7415 65.9811 86.6867 65.9996 86.6354 65.9853C86.5841 65.971 86.5466 65.9268 86.541 65.8739ZM86.9132 69.0922L86.4951 66.7579L85.4944 68.0978C85.4647 68.1376 85.4149 68.157 85.3661 68.1478C85.3173 68.1386 85.278 68.1024 85.2649 68.0545L84.8249 66.453L83.3951 67.9178L84.1175 70.5959L85.1196 68.9718C85.1462 68.9286 85.1955 68.9049 85.2458 68.911C85.2962 68.9171 85.3384 68.9518 85.354 69.0001L85.8902 70.6608L86.9132 69.0922Z" fill="#D3AE3B"/>
<path fill-rule="evenodd" clip-rule="evenodd" d="M84.0715 70.7718C84.1206 70.7799 84.1608 70.8154 84.1749 70.8632L84.771 72.8794L85.5788 71.5331C85.605 71.4894 85.6544 71.4651 85.7051 71.4709C85.7557 71.4767 85.7983 71.5116 85.814 71.5601L86.434 73.4801L86.1866 73.56L85.6545 71.9123L84.8417 73.2669C84.8152 73.3111 84.765 73.3355 84.7139 73.329C84.6627 73.3225 84.6202 73.2863 84.6056 73.2369L84.0016 71.1941L83.0964 72.475L82.8841 72.325L83.9441 70.825C83.9728 70.7843 84.0223 70.7636 84.0715 70.7718Z" fill="#D3AE3B"/>
<path d="M94.2903 59.16L98.1103 72.7L92.8503 73.5L90.6303 63.32L94.2903 59.16Z" fill="white"/>
<path fill-rule="evenodd" clip-rule="evenodd" d="M94.3168 59.043C94.274 59.0333 94.2292 59.0478 94.2002 59.0808L90.5402 63.2408C90.515 63.2694 90.5049 63.3083 90.513 63.3456L92.733 73.5256C92.7465 73.5875 92.8057 73.6282 92.8683 73.6187L98.1283 72.8187C98.1623 72.8135 98.1925 72.794 98.2111 72.765C98.2298 72.7361 98.2351 72.7006 98.2257 72.6675L94.4057 59.1275C94.3938 59.0852 94.3597 59.0528 94.3168 59.043ZM94.2347 59.4049L97.9579 72.6018L92.9435 73.3645L90.7604 63.3538L94.2347 59.4049Z" fill="#D3AE3B"/>
<path fill-rule="evenodd" clip-rule="evenodd" d="M92.5206 62.6342L95.0006 64.9942C95.0316 65.0237 95.0751 65.036 95.117 65.0273C95.1588 65.0185 95.1937 64.9896 95.2102 64.9502L95.6702 63.8502L95.4303 63.7499L95.0431 64.6757L92.6999 62.4459L92.5206 62.6342Z" fill="#D3AE3B"/>
<path fill-rule="evenodd" clip-rule="evenodd" d="M93.4395 65.8739L93.9595 61.0139L93.701 60.9862L93.2158 65.5208L91.8338 63.7014L91.6267 63.8587L92.2185 64.6377L91.5799 66.8653L91.2788 66.4085L91.0617 66.5516L91.4855 67.1946L91.3853 67.5442L91.6352 67.6159L91.674 67.4806L92.7869 69.1692L92.2431 71.7331L92.4974 71.787L92.9924 69.4534L94.0214 71.031C94.0487 71.073 94.0978 71.0955 94.1475 71.0889C94.1971 71.0823 94.2386 71.0477 94.254 71L94.7875 69.3479L95.7996 70.9883C95.8268 71.0324 95.8777 71.0562 95.929 71.0487C95.9803 71.0412 96.0223 71.004 96.0358 70.9539L96.8558 67.9139C96.8677 67.8695 96.8554 67.8221 96.8233 67.7892L95.1833 66.1092C95.1507 66.0759 95.1029 66.0625 95.0578 66.0742C95.0127 66.0858 94.9772 66.1207 94.9649 66.1656L94.5353 67.7292L93.5144 66.3623C93.4834 66.3208 93.4308 66.3016 93.3804 66.3135C93.3299 66.3254 93.2914 66.3661 93.2823 66.4171L92.8554 68.8006L91.7684 67.1513L92.4149 64.8962L93.2067 65.9387C93.239 65.9811 93.2938 65.9996 93.3451 65.9853C93.3964 65.971 93.4339 65.9268 93.4395 65.8739ZM93.0673 69.0922L93.4854 66.7579L94.4861 68.0978C94.5158 68.1376 94.5656 68.157 94.6144 68.1478C94.6632 68.1386 94.7025 68.1024 94.7156 68.0545L95.1556 66.453L96.5854 67.9178L95.863 70.5959L94.8609 68.9718C94.8343 68.9286 94.785 68.9049 94.7347 68.911C94.6843 68.9171 94.6421 68.9518 94.6265 69.0001L94.0903 70.6608L93.0673 69.0922Z" fill="#D3AE3B"/>
<path fill-rule="evenodd" clip-rule="evenodd" d="M95.909 70.7718C95.8599 70.7799 95.8197 70.8154 95.8056 70.8632L95.2095 72.8794L94.4017 71.5331C94.3755 71.4894 94.3261 71.4651 94.2754 71.4709C94.2248 71.4767 94.1822 71.5116 94.1665 71.5601L93.5465 73.4801L93.7939 73.56L94.326 71.9123L95.1388 73.2669C95.1653 73.3111 95.2155 73.3355 95.2666 73.329C95.3178 73.3225 95.3603 73.2863 95.3749 73.2369L95.9789 71.1941L96.8841 72.475L97.0964 72.325L96.0364 70.825C96.0077 70.7843 95.9582 70.7636 95.909 70.7718Z" fill="#D3AE3B"/>
<path d="M89.9903 78.76C93.9903 78.76 97.7903 78.44 100.03 77.82C100.97 77.64 100.97 77.16 100.97 76.52C101.93 76.2 101.45 75.08 102.11 75.08C101.43 75.28 101.31 73.98 100.51 74.14C100.51 73.02 99.3703 72.88 98.4303 73.2C96.5303 73.82 93.1703 73.98 89.9903 73.98C86.7903 73.82 83.4703 73.82 81.5503 73.18C80.6103 72.88 79.4903 73.02 79.4903 74.14C78.6903 73.98 78.5503 75.26 77.8903 75.08C78.5503 75.08 78.0503 76.22 79.0103 76.52C79.0103 77.16 79.0103 77.64 79.9703 77.82C82.1703 78.44 86.0103 78.76 89.9903 78.76Z" fill="white"/>
<path fill-rule="evenodd" clip-rule="evenodd" d="M80.0893 72.9007C80.5533 72.7402 81.1252 72.7925 81.6232 72.9514L81.6262 72.9524L81.6261 72.9524C82.5547 73.2619 83.8379 73.4207 85.3065 73.5206C86.2114 73.5822 87.1726 73.6207 88.1538 73.6601C88.7632 73.6845 89.3802 73.7093 89.9962 73.7401C93.1799 73.7399 96.4975 73.5778 98.3544 72.9724C98.8538 72.8026 99.4302 72.7453 99.8991 72.9025C100.138 72.9826 100.355 73.1208 100.511 73.3337C100.625 73.4897 100.7 73.6763 100.732 73.8911C100.889 73.9079 101.025 73.9684 101.142 74.0524C101.31 74.1727 101.441 74.3431 101.546 74.4789L101.549 74.4837C101.662 74.631 101.744 74.7376 101.832 74.8044C101.872 74.8349 101.907 74.8531 101.945 74.8589C101.998 74.8461 102.053 74.8401 102.11 74.8401C102.23 74.8401 102.331 74.9277 102.348 75.0458C102.365 75.164 102.292 75.2766 102.178 75.3103C102.126 75.3255 102.077 75.3347 102.029 75.3387C102.021 75.345 102.01 75.3565 101.997 75.3791C101.961 75.4425 101.939 75.5289 101.904 75.6669C101.898 75.6898 101.892 75.7141 101.885 75.74C101.843 75.9025 101.785 76.1071 101.66 76.2935C101.556 76.4484 101.412 76.5839 101.21 76.6816C101.207 76.941 101.19 77.2187 101.065 77.4546C100.901 77.7654 100.586 77.9563 100.085 78.0539C97.8116 78.6812 93.9899 79.0001 89.9903 79.0001C86.0119 79.0001 82.1501 78.6814 79.9153 78.0539C79.4063 77.9567 79.0865 77.767 78.919 77.4565C78.7918 77.2207 78.7732 76.9431 78.7706 76.6843C78.5688 76.5898 78.4252 76.4558 78.3228 76.3007C78.1994 76.1139 78.1438 75.9074 78.1044 75.7436C78.0977 75.7158 78.0915 75.6897 78.0858 75.6652C78.0534 75.5283 78.033 75.4419 77.9981 75.3779C77.9839 75.352 77.9726 75.341 77.9652 75.3357C77.9208 75.3324 77.8748 75.3246 77.8271 75.3116C77.7111 75.28 77.6364 75.1674 77.6524 75.0482C77.6683 74.929 77.77 74.8401 77.8903 74.8401C77.9418 74.8401 77.9919 74.845 78.0399 74.8555C78.0783 74.8498 78.1154 74.831 78.1588 74.7972C78.2443 74.7307 78.3246 74.6282 78.4334 74.4892C78.4385 74.4827 78.4436 74.4762 78.4489 74.4695C78.5551 74.334 78.6886 74.1661 78.8584 74.0478C78.9763 73.9657 79.1123 73.9068 79.2679 73.8906C79.2994 73.6768 79.3728 73.4909 79.4853 73.335C79.6391 73.1217 79.8531 72.9825 80.0893 72.9007ZM78.4392 75.187C78.4959 75.3068 78.5291 75.4504 78.5564 75.5686C78.5615 75.5905 78.5663 75.6116 78.5711 75.6315C78.6093 75.7902 78.6498 75.9249 78.7233 76.0362C78.7914 76.1393 78.8948 76.2325 79.0818 76.291C79.182 76.3223 79.2503 76.4151 79.2503 76.5201C79.2503 76.8586 79.2561 77.0703 79.3415 77.2286C79.4128 77.3609 79.5697 77.5008 80.0145 77.5842C80.0215 77.5855 80.0285 77.5871 80.0354 77.5891C82.2021 78.1997 86.0146 78.5201 89.9903 78.5201C93.9852 78.5201 97.7586 78.1998 99.9662 77.5888C99.9725 77.587 99.9788 77.5856 99.9851 77.5843C100.418 77.5014 100.571 77.3627 100.641 77.2305C100.725 77.0713 100.73 76.8584 100.73 76.5201C100.73 76.4168 100.796 76.325 100.894 76.2924C101.083 76.2294 101.19 76.1328 101.261 76.0266C101.337 75.913 101.38 75.7776 101.42 75.6201C101.425 75.6009 101.43 75.5806 101.436 75.5595C101.464 75.4467 101.498 75.3108 101.552 75.1949C101.548 75.1919 101.544 75.1888 101.54 75.1857C101.4 75.0788 101.283 74.9249 101.186 74.7992C101.179 74.7897 101.172 74.7804 101.165 74.7712C101.054 74.627 100.963 74.5149 100.862 74.4427C100.774 74.3793 100.683 74.3503 100.557 74.3754C100.487 74.3895 100.414 74.3712 100.358 74.3257C100.302 74.2801 100.27 74.212 100.27 74.1401C100.27 73.902 100.21 73.7354 100.124 73.6177C100.037 73.4993 99.9102 73.4125 99.7464 73.3576C99.4107 73.245 98.9479 73.2774 98.5076 73.4273L98.5047 73.4282L98.5047 73.4282C96.5625 74.062 93.164 74.2201 89.9903 74.2201C89.9863 74.2201 89.9823 74.22 89.9783 74.2198C89.3712 74.1894 88.7564 74.1647 88.1463 74.1402C87.1587 74.1005 86.1836 74.0614 85.274 73.9995C83.8034 73.8995 82.4672 73.7384 81.4759 73.4082C81.0344 73.2676 80.5768 73.24 80.2462 73.3544C80.085 73.4102 79.9601 73.4972 79.8746 73.6158C79.7894 73.7339 79.7303 73.9012 79.7303 74.1401C79.7303 74.212 79.698 74.2801 79.6424 74.3257C79.5868 74.3712 79.5137 74.3895 79.4432 74.3754C79.3162 74.35 79.223 74.3788 79.1327 74.4417C79.0306 74.5128 78.9379 74.6236 78.8266 74.7656C78.818 74.7766 78.8092 74.7879 78.8003 74.7994C78.7044 74.9223 78.5883 75.0711 78.4536 75.176C78.4489 75.1797 78.4441 75.1834 78.4392 75.187Z" fill="#D3AE3B"/>
<path d="M84.5702 72.7C85.8502 72.88 87.2902 73.02 88.4102 72.88C89.0503 72.88 89.5103 73.98 88.2303 74.14C87.1303 74.28 85.3703 74.14 84.4303 73.98C83.1932 73.7635 81.9655 73.4966 80.7502 73.18C79.6302 72.7 80.4302 71.78 81.0702 71.9C82.212 72.2658 83.3829 72.5335 84.5702 72.7ZM95.4102 72.7C94.1302 72.88 92.6903 73.02 91.6102 72.88C90.9303 72.88 90.4702 73.98 91.7502 74.14C92.8702 74.28 94.6102 74.14 95.5502 73.98C96.3502 73.82 98.1103 73.52 99.2303 73.18C100.35 72.7 99.5503 71.78 98.9102 71.9C97.7685 72.2659 96.5976 72.5336 95.4102 72.7Z" fill="white"/>
<path fill-rule="evenodd" clip-rule="evenodd" d="M80.7926 73.0567C80.5356 72.9449 80.4086 72.8169 80.3551 72.7047C80.3026 72.5948 80.3115 72.4814 80.3661 72.374C80.4221 72.264 80.5257 72.1635 80.6528 72.0972C80.7773 72.0323 80.9147 72.0053 81.0388 72.0265C82.185 72.3932 83.3604 72.6616 84.5522 72.8288M80.7926 73.0567C82.0013 73.3713 83.2222 73.6366 84.4524 73.8519C85.3861 74.0108 87.1318 74.1488 88.2138 74.0111L88.2141 74.011C88.5168 73.9732 88.6972 73.882 88.7969 73.7833C88.8937 73.6874 88.9242 73.5754 88.9112 73.4654C88.8835 73.2324 88.6632 73.0145 88.4178 73.0101C87.2803 73.1507 85.8293 73.0084 84.5522 72.8288M80.5327 71.8666C80.7007 71.779 80.9003 71.7359 81.0942 71.7723C81.0995 71.7733 81.1048 71.7746 81.1099 71.7762C82.2446 72.1398 83.4083 72.4058 84.5883 72.5713L84.5884 72.5713C85.868 72.7513 87.2928 72.8887 88.3941 72.751C88.3995 72.7504 88.4049 72.75 88.4103 72.75C88.8018 72.75 89.1273 73.0801 89.1694 73.4347C89.1913 73.6197 89.1368 73.8127 88.9799 73.968C88.8259 74.1205 88.5838 74.2268 88.2466 74.269C87.1288 74.4113 85.3548 74.2693 84.4084 74.1082L84.4078 74.1081C83.1673 73.8909 81.9362 73.6233 80.7175 73.3058C80.7112 73.3042 80.705 73.3021 80.699 73.2995C80.402 73.1722 80.2113 73.0069 80.1204 72.8167C80.0279 72.6228 80.049 72.4237 80.1344 72.2561C80.2184 72.091 80.3648 71.9541 80.5327 71.8666ZM99.8601 72.8167C99.7693 73.0069 99.5785 73.1722 99.2815 73.2995C99.2771 73.3014 99.2726 73.303 99.268 73.3044C98.3706 73.5769 97.0659 73.8238 96.1709 73.9931C95.9408 74.0367 95.7378 74.0751 95.5758 74.1075L95.5721 74.1082C94.6257 74.2693 92.8717 74.4112 91.7341 74.269C91.3969 74.2269 91.1546 74.1206 91.0011 73.9678C90.8445 73.812 90.7913 73.6183 90.8164 73.4326C90.8649 73.0752 91.2032 72.75 91.6103 72.75C91.6158 72.75 91.6214 72.7504 91.627 72.7511C92.6878 72.8886 94.1121 72.7513 95.3922 72.5713L95.3922 72.5713C96.5722 72.4059 97.7359 72.1399 98.8706 71.7762C98.8757 71.7746 98.881 71.7733 98.8863 71.7723C99.0803 71.7359 99.2798 71.779 99.4478 71.8666C99.6157 71.9541 99.7621 72.091 99.8461 72.2561C99.9315 72.4237 99.9526 72.6228 99.8601 72.8167ZM98.9417 72.0265C99.0658 72.0053 99.2032 72.0323 99.3277 72.0972C99.4548 72.1635 99.5584 72.264 99.6144 72.374C99.6691 72.4814 99.6779 72.5948 99.6254 72.7047C99.5717 72.8172 99.4441 72.9457 99.1855 73.0578C98.3037 73.3247 97.0256 73.5666 96.1323 73.7358C95.8997 73.7798 95.6933 73.8189 95.5266 73.8522C94.5926 74.011 92.8681 74.1488 91.7664 74.011C91.4636 73.9732 91.2834 73.882 91.1845 73.7835C91.0885 73.6881 91.0593 73.5768 91.0741 73.4675C91.1053 73.2371 91.3329 73.0144 91.6024 73.0101C92.7006 73.1507 94.1518 73.0083 95.4283 72.8288M95.4284 72.8288C96.6202 72.6617 97.7955 72.3933 98.9417 72.0265L95.4284 72.8288Z" fill="#D3AE3B"/>
<path d="M80.5903 72.0801C79.6303 71.9001 79.1903 73.0201 79.4903 73.6601C79.6303 73.3401 80.2903 73.3401 80.4303 73.0201C80.6103 72.5401 80.2903 72.5401 80.6103 72.0801H80.5903ZM84.4303 75.0201C84.4303 74.3801 85.0503 74.4601 85.0503 73.8201C85.0503 73.5201 84.8903 73.0201 84.5703 73.0201C84.4036 73.0296 84.2463 73.1001 84.1283 73.2181C84.0103 73.3361 83.9398 73.4934 83.9303 73.6601C83.7903 74.2801 84.4303 74.3801 84.4303 75.0201ZM88.9703 73.2001C89.9103 73.2001 89.8103 74.4601 89.3703 75.1001C89.3703 74.6401 88.5703 74.4601 88.5703 74.1401C88.5703 73.6601 89.2903 73.6601 88.9703 73.2001ZM99.3703 72.0801C100.35 71.9001 100.81 73.0201 100.49 73.6601C100.35 73.3401 99.6903 73.3401 99.5503 73.0201C99.3703 72.5401 99.6903 72.5401 99.3703 72.0801ZM95.5903 75.0001C95.5903 74.3601 94.9503 74.4401 94.9503 73.8001C94.9503 73.5001 95.1103 73.0001 95.4303 73.0001C95.5969 73.0096 95.7542 73.0801 95.8722 73.1981C95.9902 73.3161 96.0607 73.4734 96.0703 73.6401C96.2103 74.2601 95.5703 74.3601 95.5703 75.0001H95.5903ZM90.9903 73.2001C90.0503 73.2001 90.1503 74.4601 90.5903 75.1001C90.5903 74.6401 91.3903 74.4601 91.3903 74.1401C91.3903 73.6601 90.6703 73.6601 90.9903 73.2001Z" fill="white"/>
<path fill-rule="evenodd" clip-rule="evenodd" d="M80.602 71.95C80.064 71.8543 79.6679 72.1245 79.4548 72.4981C79.2447 72.8665 79.202 73.3513 79.3725 73.7152C79.3942 73.7614 79.4409 73.7907 79.4919 73.79C79.543 73.7893 79.5889 73.7589 79.6094 73.7121C79.6289 73.6674 79.6705 73.625 79.7431 73.5816C79.8164 73.5379 79.9062 73.5017 80.0085 73.4607L80.0136 73.4587C80.11 73.4201 80.218 73.3769 80.3106 73.3216C80.4055 73.265 80.4989 73.1874 80.5494 73.0721C80.5503 73.07 80.5512 73.0678 80.552 73.0657C80.6017 72.933 80.6189 72.8278 80.6193 72.7359C80.6196 72.6648 80.6092 72.6019 80.6013 72.5543C80.5995 72.5431 80.5977 72.5328 80.5963 72.5234C80.5888 72.4725 80.5866 72.4334 80.5987 72.3846C80.6113 72.3332 80.6423 72.2616 80.717 72.1543C80.7446 72.1145 80.7479 72.0627 80.7255 72.0198C80.7031 71.9769 80.6587 71.95 80.6103 71.95H80.602ZM80.394 72.1908C80.0669 72.1891 79.8264 72.3714 79.6807 72.6269C79.5453 72.8642 79.4984 73.1546 79.5441 73.4018C79.5656 73.386 79.5877 73.3716 79.6099 73.3584C79.7025 73.3031 79.8105 73.2599 79.9069 73.2213L79.912 73.2193C80.0143 73.1784 80.1041 73.1421 80.1774 73.0984C80.2485 73.0559 80.2898 73.0144 80.3099 72.9707C80.349 72.8653 80.3591 72.7916 80.3593 72.7348C80.3595 72.6877 80.3536 72.6512 80.3462 72.6062C80.344 72.5924 80.3416 72.5777 80.3392 72.5617C80.3293 72.4951 80.3226 72.4179 80.3462 72.3223C80.3565 72.2805 80.3721 72.2371 80.394 72.1908ZM99.5866 72.1908C99.6084 72.2371 99.624 72.2805 99.6343 72.3223C99.6579 72.4179 99.6513 72.4951 99.6413 72.5617C99.6389 72.5777 99.6366 72.5924 99.6343 72.6062C99.6269 72.6512 99.621 72.6877 99.6212 72.7348C99.6214 72.7916 99.6315 72.8653 99.6706 72.9707C99.6907 73.0144 99.732 73.0559 99.8031 73.0984C99.8764 73.1421 99.9662 73.1784 100.069 73.2193L100.074 73.2213C100.17 73.2599 100.278 73.3031 100.371 73.3584C100.394 73.3726 100.418 73.3881 100.441 73.4052C100.492 73.1582 100.445 72.8667 100.306 72.6282C100.159 72.3769 99.9155 72.1948 99.5866 72.1908ZM100.53 72.4969C100.746 72.8658 100.789 73.3526 100.607 73.7182C100.584 73.7633 100.537 73.7913 100.487 73.79C100.436 73.7887 100.391 73.7583 100.371 73.7121C100.352 73.6674 100.31 73.625 100.237 73.5816C100.164 73.5379 100.074 73.5017 99.972 73.4607L99.9669 73.4587C99.8705 73.4202 99.7625 73.3769 99.6699 73.3216C99.575 73.265 99.4816 73.1874 99.4312 73.0721C99.4302 73.07 99.4293 73.0678 99.4285 73.0657C99.3788 72.933 99.3616 72.8278 99.3612 72.7359C99.3609 72.6648 99.3713 72.6019 99.3792 72.5543C99.3811 72.5431 99.3828 72.5328 99.3842 72.5234C99.3918 72.4725 99.3939 72.4334 99.3819 72.3846C99.3692 72.3332 99.3382 72.2616 99.2635 72.1543C99.2383 72.118 99.2332 72.0714 99.25 72.0305C99.2669 71.9897 99.3033 71.9601 99.3468 71.9522C99.899 71.8507 100.309 72.12 100.53 72.4969ZM95.1869 73.3449C95.1163 73.4884 95.0803 73.6685 95.0803 73.8C95.0803 73.9359 95.1135 74.0261 95.1593 74.0968C95.2079 74.1717 95.2738 74.2304 95.3559 74.3022L95.3607 74.3065C95.4267 74.3641 95.5033 74.4312 95.5679 74.5169C95.6222 74.4206 95.6864 74.3391 95.7444 74.2654C95.7532 74.2543 95.7618 74.2433 95.7703 74.2325C95.8416 74.1413 95.897 74.0643 95.9296 73.9781C95.9606 73.8962 95.973 73.7997 95.9434 73.6687C95.9419 73.6617 95.9409 73.6546 95.9405 73.6475C95.9327 73.5127 95.8757 73.3855 95.7803 73.29C95.6858 73.1955 95.5602 73.1387 95.4269 73.1301C95.3448 73.1318 95.2595 73.1975 95.1869 73.3449ZM95.7116 74.8683C95.7441 74.6876 95.8427 74.5617 95.955 74.4184C95.9617 74.4098 95.9684 74.4012 95.9752 74.3925C96.0465 74.3013 96.1248 74.197 96.1728 74.0701C96.2215 73.9414 96.2369 73.7961 96.1993 73.6218C96.1856 73.4273 96.1021 73.2442 95.9641 73.1062C95.8235 72.9656 95.6362 72.8816 95.4377 72.8702C95.4363 72.8702 95.4349 72.8701 95.4336 72.8701C95.4325 72.87 95.4314 72.87 95.4303 72.87C95.1934 72.87 95.04 73.0546 94.9536 73.2301C94.8642 73.4117 94.8203 73.6315 94.8203 73.8C94.8203 73.9842 94.867 74.1239 94.9412 74.2383C95.0111 74.3461 95.1028 74.4262 95.1798 74.4936L95.1846 74.4979C95.2667 74.5696 95.3326 74.6283 95.3812 74.7033C95.4106 74.7486 95.4348 74.802 95.4484 74.8704C95.4431 74.9114 95.4403 74.9546 95.4403 75C95.4403 75.0718 95.4985 75.13 95.5703 75.13H95.5903C95.6621 75.13 95.7203 75.0718 95.7203 75C95.7203 74.9534 95.7173 74.9096 95.7116 74.8683ZM84.5628 72.8902C84.5653 72.8901 84.5678 72.89 84.5703 72.89C84.8071 72.89 84.9605 73.0746 85.0469 73.2501C85.1363 73.4317 85.1803 73.6515 85.1803 73.82C85.1803 74.0033 85.1352 74.1425 85.0635 74.2567C84.9957 74.3645 84.9067 74.4448 84.8321 74.5123L84.8274 74.5165C84.748 74.5882 84.6843 74.6468 84.6372 74.7217C84.5927 74.7925 84.5603 74.8833 84.5603 75.02C84.5603 75.0918 84.5021 75.15 84.4303 75.15C84.3585 75.15 84.3003 75.0918 84.3003 75.02C84.3003 74.7635 84.1831 74.614 84.0455 74.4384C84.0388 74.4298 84.0321 74.4212 84.0253 74.4125C83.9541 74.3213 83.8757 74.217 83.8277 74.0901C83.779 73.9614 83.7636 73.8161 83.8012 73.6418C83.8149 73.4473 83.8984 73.2642 84.0364 73.1262C84.177 72.9856 84.3643 72.9016 84.5628 72.8902ZM84.4396 74.5495C84.3838 74.4476 84.3166 74.3623 84.2561 74.2854C84.2473 74.2743 84.2387 74.2633 84.2302 74.2525C84.159 74.1613 84.1035 74.0843 84.0709 73.9981C84.0399 73.9162 84.0275 73.8197 84.0571 73.6887C84.0586 73.6817 84.0596 73.6746 84.06 73.6675C84.0678 73.5327 84.1248 73.4055 84.2202 73.31C84.3147 73.2155 84.4404 73.1587 84.5736 73.1501C84.6557 73.1518 84.741 73.2175 84.8136 73.3649C84.8842 73.5084 84.9203 73.6885 84.9203 73.82C84.9203 73.9567 84.8878 74.0476 84.8433 74.1184C84.7962 74.1932 84.7325 74.2518 84.6531 74.3236L84.6484 74.3278C84.5818 74.388 84.5038 74.4584 84.4396 74.5495ZM88.855 73.1398C88.8775 73.0969 88.9218 73.07 88.9703 73.07C89.237 73.07 89.4438 73.1608 89.5876 73.3197C89.7282 73.4751 89.7967 73.6826 89.8172 73.8977C89.8578 74.3252 89.7134 74.8303 89.4774 75.1737C89.4451 75.2206 89.3861 75.2411 89.3317 75.2242C89.2773 75.2073 89.2403 75.157 89.2403 75.1C89.2403 75.0263 89.2092 74.9579 89.147 74.8861C89.0832 74.8124 88.9947 74.7446 88.8948 74.6734C88.8783 74.6616 88.8613 74.6496 88.844 74.6375C88.7626 74.5802 88.6755 74.5189 88.6072 74.456C88.5257 74.3809 88.4403 74.2769 88.4403 74.14C88.4403 73.8584 88.6377 73.6994 88.7658 73.5963C88.7805 73.5845 88.7942 73.5734 88.8067 73.5629C88.8781 73.503 88.9087 73.4665 88.9186 73.4348C88.9247 73.4153 88.9309 73.3711 88.8635 73.2743C88.8359 73.2345 88.8326 73.1827 88.855 73.1398ZM89.1784 73.3586C89.271 73.387 89.3412 73.4349 89.3948 73.4941C89.4861 73.595 89.5413 73.7425 89.5583 73.9223C89.5843 74.1962 89.519 74.517 89.3975 74.7855C89.3808 74.761 89.3626 74.7378 89.3435 74.7158C89.2573 74.6164 89.1458 74.533 89.0457 74.4617C89.0259 74.4476 89.0067 74.434 88.9881 74.4209C88.9073 74.3639 88.8379 74.315 88.7833 74.2647C88.7148 74.2016 88.7003 74.1632 88.7003 74.14C88.7003 73.989 88.795 73.9105 88.9316 73.7973C88.9453 73.7859 88.9594 73.7742 88.9738 73.7621C89.0424 73.7045 89.1318 73.6248 89.1669 73.5121C89.1826 73.4616 89.1861 73.4104 89.1784 73.3586ZM90.3729 73.3197C90.5167 73.1608 90.7235 73.07 90.9903 73.07C91.0387 73.07 91.0831 73.0969 91.1055 73.1398C91.1279 73.1827 91.1246 73.2345 91.097 73.2743C91.0296 73.3711 91.0358 73.4153 91.0419 73.4348C91.0518 73.4665 91.0824 73.503 91.1538 73.5629C91.1663 73.5734 91.18 73.5845 91.1947 73.5963C91.3228 73.6994 91.5203 73.8584 91.5203 74.14C91.5203 74.2769 91.4348 74.3809 91.3533 74.456C91.285 74.5189 91.1979 74.5802 91.1165 74.6375C91.0992 74.6496 91.0822 74.6616 91.0657 74.6734C90.9658 74.7446 90.8773 74.8124 90.8135 74.8861C90.7513 74.9579 90.7203 75.0263 90.7203 75.1C90.7203 75.157 90.6832 75.2073 90.6288 75.2242C90.5744 75.2411 90.5154 75.2206 90.4831 75.1737C90.2471 74.8303 90.1028 74.3252 90.1433 73.8977C90.1638 73.6826 90.2323 73.4751 90.3729 73.3197ZM90.563 74.7855C90.4415 74.517 90.3762 74.1962 90.4022 73.9223C90.4192 73.7425 90.4745 73.595 90.5657 73.4941C90.6193 73.4349 90.6895 73.387 90.7821 73.3586C90.7744 73.4104 90.7779 73.4616 90.7936 73.5121C90.8287 73.6248 90.9181 73.7045 90.9867 73.7621C91.0011 73.7742 91.0152 73.7859 91.0289 73.7973C91.1655 73.9105 91.2603 73.989 91.2603 74.14C91.2603 74.1632 91.2457 74.2016 91.1772 74.2647C91.1226 74.315 91.0532 74.3639 90.9724 74.4209C90.9538 74.434 90.9346 74.4476 90.9148 74.4617C90.8147 74.533 90.7032 74.6164 90.617 74.7158C90.5979 74.7378 90.5798 74.761 90.563 74.7855Z" fill="#D3AE3B"/>
<path d="M80.9303 72.4C81.2503 72.4 81.7303 72.54 81.8703 72.72L80.9303 72.4ZM82.5103 72.88C82.6703 72.88 83.3103 73.02 83.6103 73.2L82.5103 72.88ZM88.2303 73.52C87.9303 73.52 87.2903 73.52 87.1303 73.66L88.2303 73.5V73.52ZM86.4903 73.52C86.3103 73.34 85.6903 73.34 85.3703 73.52H86.4903ZM99.0503 72.4C98.7109 72.4043 98.3817 72.5164 98.1103 72.72L99.0503 72.4ZM97.4903 72.88C97.2903 72.88 96.6903 73.02 96.3703 73.2L97.4903 72.88ZM91.7503 73.52C92.0503 73.52 92.6903 73.52 92.8703 73.66L91.7503 73.5V73.52ZM93.4903 73.52C93.6703 73.34 94.2903 73.34 94.6103 73.52H93.4903Z" fill="white"/>
<path fill-rule="evenodd" clip-rule="evenodd" d="M99.1389 72.3848C99.1464 72.4284 99.1211 72.471 99.0792 72.4853L98.1393 72.8053C98.0974 72.8195 98.0513 72.8012 98.0307 72.7621C98.01 72.723 98.0208 72.6746 98.0562 72.6481C98.343 72.433 98.6907 72.3146 99.0491 72.3101C99.0934 72.3095 99.1314 72.3412 99.1389 72.3848ZM80.8415 72.3854C80.8486 72.3419 80.8862 72.3101 80.9302 72.3101C81.1014 72.3101 81.3108 72.3471 81.4955 72.4069C81.5882 72.437 81.6769 72.4734 81.7528 72.5153C81.8275 72.5565 81.8956 72.6061 81.9413 72.6648C81.9657 72.6962 81.9666 72.7399 81.9435 72.7723C81.9205 72.8047 81.8789 72.8181 81.8412 72.8053L80.9012 72.4853C80.8596 72.4711 80.8343 72.4288 80.8415 72.3854ZM82.4211 72.8674C82.4275 72.823 82.4654 72.7901 82.5102 72.7901C82.603 72.7901 82.813 72.828 83.0308 72.8855C83.2499 72.9435 83.4952 73.0261 83.6566 73.1229C83.6953 73.1462 83.7108 73.1946 83.6927 73.2361C83.6746 73.2775 83.6285 73.2991 83.5851 73.2865L82.4851 72.9665C82.4421 72.954 82.4148 72.9117 82.4211 72.8674ZM96.952 72.8856C97.1683 72.8278 97.3778 72.7901 97.4902 72.7901C97.5351 72.7901 97.5732 72.8231 97.5794 72.8676C97.5856 72.912 97.5581 72.9543 97.515 72.9666L96.395 73.2866C96.3511 73.2991 96.3048 73.2768 96.2872 73.2347C96.2696 73.1926 96.2863 73.144 96.3261 73.1216C96.4958 73.0262 96.7342 72.9439 96.952 72.8856ZM86.3065 73.3316C86.4017 73.3558 86.4923 73.3949 86.5539 73.4564C86.5796 73.4822 86.5873 73.5209 86.5734 73.5545C86.5595 73.5881 86.5266 73.6101 86.4902 73.6101H85.3702C85.3293 73.6101 85.2936 73.5825 85.2832 73.5429C85.2728 73.5033 85.2905 73.4617 85.3261 73.4416C85.5042 73.3414 85.7561 73.2951 85.9827 73.2951C86.0972 73.2951 86.2092 73.3068 86.3065 73.3316ZM93.9977 73.2951C94.2244 73.2951 94.4763 73.3414 94.6544 73.4416C94.69 73.4617 94.7077 73.5033 94.6973 73.5429C94.6869 73.5825 94.6512 73.6101 94.6102 73.6101H93.4902C93.4538 73.6101 93.421 73.5881 93.4071 73.5545C93.3932 73.5209 93.4009 73.4822 93.4266 73.4564C93.4881 73.3949 93.5788 73.3558 93.674 73.3316C93.7712 73.3068 93.8833 73.2951 93.9977 73.2951ZM88.2891 73.432C88.3089 73.4491 88.3202 73.4739 88.3202 73.5001V73.5201C88.3202 73.5698 88.28 73.6101 88.2302 73.6101C88.1908 73.6101 88.1458 73.6101 88.0971 73.6104L87.1432 73.7491C87.1037 73.7549 87.0652 73.7339 87.0485 73.6977C87.0318 73.6615 87.041 73.6186 87.071 73.5923C87.1291 73.5415 87.2184 73.5115 87.3076 73.4913C87.4007 73.4703 87.5098 73.4568 87.6205 73.4478C87.7791 73.4351 87.9464 73.4315 88.0835 73.4305L88.2173 73.411C88.2432 73.4072 88.2694 73.4149 88.2891 73.432ZM91.6913 73.4321C91.711 73.415 91.7371 73.4073 91.763 73.411L91.8996 73.4305C92.0364 73.4315 92.203 73.4352 92.3624 73.4478C92.4744 73.4567 92.5851 73.4703 92.6807 73.4912C92.7733 73.5114 92.8638 73.541 92.9255 73.589C92.9577 73.6141 92.969 73.6577 92.9531 73.6952C92.9371 73.7328 92.8979 73.7549 92.8575 73.7492L91.8862 73.6104C91.8363 73.6101 91.7904 73.6101 91.7502 73.6101C91.7005 73.6101 91.6602 73.5698 91.6602 73.5201V73.5001C91.6602 73.474 91.6716 73.4492 91.6913 73.4321Z" fill="#D3AE3B"/>
<path d="M80.6503 74.9201C80.5503 74.9001 80.4903 74.8001 80.5303 74.7201C80.5503 74.5801 80.6503 74.5201 80.7303 74.5601C80.8103 74.5601 80.9103 74.6801 80.9103 74.7201L80.8303 74.8601L80.7903 74.8801C80.7903 74.9201 80.7103 74.9201 80.6503 74.9201ZM91.6503 75.7001C91.6103 75.7001 91.5303 75.6001 91.5303 75.5601C91.5303 75.4801 91.6503 75.3601 91.7303 75.3601L91.8903 75.4401C91.9503 75.5001 91.9503 75.6201 91.8703 75.6801C91.8303 75.7201 91.7103 75.7201 91.6503 75.6801V75.7001ZM91.7103 76.2001C91.6303 76.1601 91.6103 76.1201 91.5903 76.0401C91.5903 75.9401 91.5903 75.9201 91.6903 75.8601L91.7703 75.8201L91.8503 75.8601C91.9303 75.9001 91.9903 75.9401 91.9903 76.0201C91.9903 76.0801 91.9303 76.1401 91.8503 76.1801C91.7903 76.2201 91.7703 76.2201 91.7103 76.1801V76.2001Z" fill="#D3AE3B"/>
<path d="M81.5503 74.0001C81.4703 74.0001 81.3703 74.0801 81.3103 74.1201C81.1903 74.1401 81.0303 74.2201 80.9103 74.1201C80.7903 74.1001 80.6303 74.1201 80.6103 74.2801C80.6303 74.4201 80.8103 74.4801 80.9303 74.4001C81.0103 74.3001 81.2303 74.2201 81.2703 74.4001C81.1703 74.5601 81.1903 74.7401 81.1103 74.8801C81.1103 74.9801 81.0503 75.0601 81.0103 75.1401C80.9103 75.1401 80.8103 75.1401 80.7303 75.2001C80.6682 75.2001 80.6069 75.2145 80.5514 75.2423C80.4958 75.2701 80.4475 75.3104 80.4103 75.3601C80.3303 75.4801 80.2503 75.6001 80.2303 75.7601C80.2503 75.8801 80.4303 75.9201 80.5503 75.9401L80.9503 76.0601L81.5903 76.2401C81.9103 76.3401 82.2303 76.3801 82.5503 76.4601L82.6503 76.4801C82.7903 76.5201 82.8503 76.3801 82.8503 76.2801L83.0503 75.5601C83.0903 75.4601 83.1503 75.2601 82.9703 75.3001C82.8703 75.3601 82.7703 75.4601 82.6503 75.4601C82.4703 75.4601 82.5703 75.6601 82.6503 75.7201C82.6503 75.8401 82.6103 75.9801 82.5503 76.0801C82.4303 76.1401 82.3103 76.0801 82.1903 76.0401C82.0903 76.0401 81.8503 75.9801 81.9503 75.8401L82.0503 75.4801C82.1103 75.3601 82.1103 75.2201 82.1503 75.0801C82.0703 74.9401 81.9503 75.1401 81.8503 75.1601C81.7703 75.2001 81.5303 75.2201 81.6503 75.3601C81.7703 75.4401 81.6903 75.5801 81.6503 75.7001C81.6503 75.8401 81.4903 75.9001 81.3703 75.8401C81.2503 75.8401 81.0703 75.7401 81.1703 75.6201L81.2703 75.2601L81.4103 74.8601C81.4103 74.7201 81.4703 74.6201 81.5303 74.5001C81.5303 74.3601 81.6303 74.2401 81.6303 74.1001C81.6303 74.0401 81.5903 74.0201 81.5503 74.0201V74.0001ZM80.8103 75.4601C80.8194 75.4548 80.8297 75.452 80.8403 75.452C80.8508 75.452 80.8611 75.4548 80.8703 75.4601C80.9103 75.5001 80.9103 75.5401 80.8703 75.5801L80.8103 75.6201C80.7103 75.6201 80.6903 75.6001 80.6903 75.5601C80.6903 75.5401 80.6903 75.5201 80.7503 75.5001C80.7746 75.4825 80.8016 75.469 80.8303 75.4601H80.8103ZM80.6103 76.4601C80.5103 76.3801 80.5303 76.3201 80.6703 76.2001C80.7503 76.1601 80.7703 76.1601 80.8503 76.2201C80.9703 76.3201 80.9703 76.3801 80.8503 76.4801C80.8103 76.5201 80.7903 76.5201 80.7503 76.5201C80.6903 76.5201 80.6703 76.5201 80.6103 76.4801V76.4601ZM81.2103 76.6601C81.1656 76.6462 81.1281 76.6154 81.1057 76.5744C81.0833 76.5333 81.0777 76.4851 81.0903 76.4401C81.1303 76.3601 81.1503 76.3401 81.2703 76.3401C81.4103 76.3401 81.4303 76.3601 81.4503 76.4801C81.4503 76.5601 81.4503 76.5801 81.3903 76.6201C81.368 76.6377 81.3422 76.6504 81.3146 76.6573C81.287 76.6642 81.2582 76.6652 81.2303 76.6601H81.2103ZM99.0503 76.6601C99.0103 76.6401 98.9903 76.6201 98.9903 76.5601C98.9903 76.4801 99.0303 76.4201 99.1503 76.3801C99.2703 76.3201 99.3503 76.3201 99.3903 76.4201C99.4503 76.5401 99.4503 76.5801 99.3703 76.6601C99.3303 76.7201 99.3103 76.7201 99.2103 76.7201C99.1103 76.7201 99.0903 76.7201 99.0503 76.6801V76.6601ZM82.0503 76.9001C81.9703 76.9001 81.9303 76.8201 81.9303 76.7401C81.9303 76.6801 81.9303 76.6601 81.9703 76.6201L82.0903 76.5801L82.2103 76.6001C82.3103 76.6801 82.3303 76.7601 82.2703 76.8401C82.2103 76.9201 82.1503 76.9201 82.0303 76.9001H82.0503ZM86.4103 77.1001L86.3703 77.0401C86.3703 76.9201 86.3703 76.8201 86.4103 76.7001C86.4303 76.6001 86.4103 76.5001 86.4503 76.4001L86.5303 75.8401C86.5303 75.7401 86.5303 75.6401 86.5703 75.5601C86.5903 75.4001 86.5703 75.2601 86.6103 75.1201C86.6103 75.0601 86.6703 74.9201 86.7303 75.0001C86.8103 75.1201 86.9103 75.2001 87.0103 75.3001C87.0903 75.3601 87.0103 75.4401 86.9503 75.4601C86.8703 75.4801 86.8503 75.5801 86.8503 75.6601L86.8103 75.9001C86.8103 76.0401 86.8103 76.1601 86.7703 76.3001L86.7503 76.6601L86.7103 76.9001C86.7103 76.9801 86.7103 77.0801 86.6303 77.1201C86.5703 77.1601 86.4703 77.1601 86.4303 77.1001H86.4103ZM92.3503 75.1401L92.0903 75.3801C91.9703 75.4801 92.1903 75.5201 92.2103 75.6001C92.2503 75.7201 92.2503 75.8401 92.2503 75.9601C92.2903 76.0801 92.3103 76.1801 92.2903 76.3001C92.2903 76.4401 92.1302 76.4001 92.0503 76.4801C91.9502 76.5201 91.9103 76.6201 91.8503 76.6801C91.8027 76.7804 91.7755 76.8892 91.7703 77.0001C91.7703 77.1001 91.7103 77.2001 91.7703 77.2801L91.7903 77.3201H91.8903L92.1903 77.3001C92.4303 77.2601 92.6903 77.2601 92.9303 77.2401L93.3703 77.2001C93.4903 77.2201 93.5503 77.1001 93.5503 77.0001C93.4703 76.8601 93.5303 76.7201 93.4703 76.6001C93.4303 76.4401 93.4503 76.3001 93.4303 76.1601C93.4303 76.0401 93.2903 76.0001 93.2303 76.0801C93.1503 76.1601 93.0303 76.1801 92.9903 76.2601C92.9303 76.3801 93.1103 76.3801 93.1503 76.4601L93.1703 76.7601C93.1903 76.8801 93.0703 76.8801 92.9703 76.9001C92.8703 76.9401 92.7303 76.9601 92.6703 76.8401C92.6303 76.7401 92.6303 76.6401 92.6303 76.5401C92.6303 76.3401 92.5703 76.1801 92.5703 76.0001C92.5703 75.8001 92.5103 75.5801 92.5103 75.3601C92.5103 75.2601 92.4903 75.1201 92.3503 75.1401ZM92.2303 76.7801H92.2903V76.9401L92.2303 76.9601C92.204 76.9684 92.1773 76.9751 92.1503 76.9801C92.1369 76.9806 92.1236 76.9806 92.1103 76.9801C92.0703 76.9401 92.0703 76.8801 92.1303 76.8201L92.2303 76.7801ZM86.2303 74.9401C86.1703 74.9401 86.0703 75.0801 85.9903 75.0601C85.8103 75.0801 85.8303 75.2601 85.9703 75.3201V75.4801C85.9903 75.6401 85.8903 75.7801 85.9103 75.9401C85.9103 76.1001 85.8503 76.2801 85.8503 76.4601C85.7903 76.6401 85.7903 76.8201 85.7703 77.0001C85.7503 77.1601 85.6303 77.1001 85.5303 77.0601V76.8601C85.5503 76.6801 85.4303 76.6401 85.2903 76.6201C85.1503 76.6201 85.0903 76.5201 85.1303 76.4001C85.1903 76.3201 85.3303 76.3401 85.4303 76.3401C85.6303 76.3801 85.6103 76.1201 85.5103 76.0201C85.4303 75.9001 85.2703 75.8201 85.2303 75.7001C85.2303 75.5401 85.1303 75.3601 84.9903 75.2801C84.7703 75.2601 84.5903 75.4401 84.5303 75.6401C84.4303 75.6401 84.3303 75.6801 84.2503 75.7201C84.1103 75.7601 83.9103 76.0001 84.1103 76.1001C84.2103 76.1201 84.5503 76.2001 84.3903 76.3401C84.3103 76.5001 84.1503 76.5001 84.0103 76.4601C83.8703 76.4601 83.7103 76.3801 83.7103 76.2201C83.6903 76.0601 83.6903 75.9001 83.6303 75.7601C83.5903 75.6001 83.4103 75.6401 83.3903 75.8001C83.2503 75.9001 83.2703 76.0801 83.3703 76.2001C83.4303 76.3401 83.3703 76.5201 83.3103 76.6401C83.2703 76.8401 83.0703 76.8401 82.9303 76.8801C82.8703 76.9201 82.6103 76.8801 82.7103 77.0201C82.8602 77.0891 83.0279 77.1101 83.1903 77.0801C83.3503 77.0801 83.4903 76.9401 83.5903 76.8001C83.6903 76.7001 83.8703 76.7601 84.0303 76.7601C84.1703 76.7601 84.3303 76.8601 84.4903 76.7801C84.5303 76.6801 84.7303 76.4801 84.7903 76.6801C84.7903 76.8601 84.9303 76.9401 85.0903 76.9201C85.2703 76.9201 85.1903 77.0401 85.1903 77.1601C85.1903 77.3401 85.3303 77.4401 85.4903 77.5201H85.6503C85.7903 77.4601 85.9503 77.4001 86.0103 77.2401C86.0703 77.1001 86.0703 76.9401 86.1103 76.8001C86.1503 76.5801 86.1903 76.3401 86.1903 76.1201C86.2503 75.9201 86.2303 75.7001 86.2703 75.4801L86.3303 75.0201C86.3303 74.9201 86.2903 74.9201 86.2303 74.9401ZM84.8903 75.7601C84.9103 75.7601 84.9303 75.8001 84.9303 75.8601C84.9303 75.9401 84.9703 76.0001 85.0303 76.0201V76.0801L84.8703 76.1201C84.7703 76.1201 84.6903 76.0801 84.6303 76.0201L84.5903 75.9801L84.6503 75.9401L84.7503 75.8401C84.8103 75.7801 84.8503 75.7601 84.8903 75.7601ZM98.0903 74.1801C97.9752 74.1883 97.8612 74.2084 97.7502 74.2401C97.5502 74.2401 97.4503 74.4401 97.6503 74.5601C97.7703 74.8601 97.9503 74.4801 98.1503 74.5201C98.4303 74.5601 98.4503 74.8801 98.5103 75.1201C98.5103 75.3401 98.5903 75.5601 98.6503 75.7801C98.8503 76.0001 98.5103 76.1401 98.3703 75.9801C98.2503 75.8401 97.9703 75.6801 97.8303 75.8601C97.6503 75.9401 97.6303 76.1801 97.4903 76.2601C97.2503 76.3201 97.2303 76.0201 97.0903 75.9001C96.9703 75.7201 96.7503 75.7001 96.5703 75.6601C96.4903 75.4801 96.5303 75.1801 96.3703 75.0601C96.2103 75.1201 95.9303 75.4001 96.1703 75.5401C96.3703 75.7401 96.0703 75.8201 95.9703 75.9401C95.8103 76.1201 95.7703 76.3401 95.7703 76.5401C95.5103 76.6801 95.4703 76.3801 95.4303 76.2001C95.4303 75.9801 95.2303 76.0401 95.0903 76.1201C94.8903 76.2001 94.8103 76.3801 94.6903 76.5201V76.9201C94.7303 77.1001 94.9303 77.0201 95.0503 77.0001C95.2502 76.9201 95.3303 77.1401 95.1703 77.2601C95.0503 77.3801 94.7303 77.3201 94.7703 77.5401H95.0903C95.2903 77.4801 95.5302 77.3201 95.5503 77.0801C95.5903 76.8801 95.8903 76.9001 96.0503 76.8601C96.2502 76.8001 96.5103 76.7801 96.5703 77.0601C96.7103 77.2001 97.0103 77.3601 97.1703 77.1601C97.2464 77.1118 97.3075 77.043 97.3464 76.9617C97.3853 76.8803 97.4005 76.7897 97.3903 76.7001C97.3703 76.5401 97.6503 76.5401 97.7303 76.6401C97.8303 76.8001 98.1503 76.7601 98.3103 76.6401C98.4703 76.5401 98.5103 76.3201 98.7502 76.3201L99.8303 76.0201C100.11 75.9601 99.7903 75.7801 99.7103 75.6601C99.5103 75.5601 99.3103 76.0001 99.0703 75.7801C98.8703 75.6401 98.8903 75.3801 98.8303 75.1601C98.7703 74.8801 98.7903 74.5601 98.5903 74.3601C98.4703 74.2201 98.2703 74.1801 98.0903 74.1801ZM96.7303 76.0801C96.7503 76.0801 96.7903 76.0801 96.8303 76.1201C96.9103 76.1601 96.9703 76.2401 96.9703 76.3201C96.9703 76.3601 96.9703 76.3601 96.9103 76.3801L96.8103 76.4201C96.7703 76.4201 96.6703 76.3601 96.6703 76.3201V76.2401C96.6303 76.1601 96.6303 76.1601 96.6703 76.1201L96.7303 76.0801ZM98.0303 76.1601C98.1103 76.1601 98.1503 76.1601 98.1903 76.2201C98.2103 76.3001 98.1903 76.3401 98.1103 76.3801L98.0103 76.4201L97.9303 76.3601C97.8903 76.3401 97.8703 76.3201 97.8703 76.2801C97.8703 76.2201 97.9503 76.1601 98.0303 76.1401V76.1601ZM96.2303 76.1601C96.2703 76.1601 96.2903 76.1601 96.3103 76.2001C96.3503 76.2401 96.3703 76.2601 96.3703 76.3201V76.4401C96.3703 76.5001 96.3703 76.4801 96.2502 76.4801C96.1302 76.4801 96.1103 76.4801 96.1103 76.3601C96.1103 76.2801 96.1103 76.2601 96.1703 76.2201C96.1903 76.1801 96.2302 76.1801 96.2502 76.1801L96.2303 76.1601ZM95.1503 76.4601C95.1691 76.4658 95.1863 76.4761 95.2003 76.49C95.2142 76.504 95.2245 76.5212 95.2303 76.5401C95.2303 76.6001 95.2303 76.6401 95.1903 76.6601C95.1303 76.6801 95.0303 76.7001 94.9903 76.6601C94.9897 76.6534 94.9897 76.6467 94.9903 76.6401C94.9503 76.6201 94.9503 76.6001 94.9903 76.5801V76.5601L95.0303 76.5001C95.0426 76.4806 95.0613 76.466 95.0831 76.4587C95.105 76.4514 95.1287 76.4519 95.1503 76.4601ZM96.9903 76.7001L97.0903 76.7201V76.8401H96.8503L96.8303 76.8001C96.8303 76.7601 96.8303 76.7401 96.8703 76.7201L96.9903 76.7001ZM93.5703 77.6601C93.5503 77.6601 93.5103 77.6401 93.5503 77.6201C93.5703 77.5601 93.6503 77.5401 93.7103 77.5001C93.8192 77.4585 93.9156 77.3896 93.9903 77.3001C93.9903 77.2201 94.0703 77.1801 94.0703 77.1001L94.0503 76.8201C94.0232 76.736 93.9663 76.6649 93.8903 76.6201C93.8303 76.6001 93.7503 76.5801 93.7303 76.5001C93.7303 76.4401 93.7903 76.3801 93.8103 76.3201L93.9303 76.0801C93.9903 76.0201 94.0703 76.0801 94.0903 76.1201L94.1903 76.3201C94.2503 76.3801 94.2903 76.4401 94.3103 76.5201C94.3503 76.6001 94.3903 76.6601 94.3903 76.7201L94.4303 76.9801C94.4303 77.0801 94.4303 77.2001 94.3903 77.3001L94.2703 77.4601C94.2103 77.5201 94.1503 77.5801 94.0703 77.6001C94.0103 77.6201 93.9703 77.6801 93.8903 77.6801H93.5903L93.5703 77.6601ZM92.1903 77.7401C92.1503 77.7001 92.1303 77.6801 92.1303 77.6201C92.1303 77.5601 92.1303 77.5601 92.1903 77.5001C92.2703 77.4201 92.3103 77.4201 92.4703 77.5001C92.6103 77.5801 92.6703 77.5801 92.6703 77.5201C92.6903 77.4801 92.7703 77.4201 92.8703 77.4201C92.9072 77.4214 92.9425 77.4356 92.9703 77.4601C93.0103 77.5001 93.0303 77.5201 93.0303 77.6001C93.0303 77.7001 93.0303 77.7001 92.9703 77.7601C92.9103 77.8001 92.9103 77.8001 92.8303 77.8001C92.7947 77.7981 92.7605 77.7857 92.732 77.7643C92.7036 77.743 92.6821 77.7136 92.6703 77.6801C92.6703 77.6401 92.6703 77.6201 92.6303 77.6601L92.5903 77.6801C92.5503 77.6801 92.4703 77.7401 92.4303 77.7801L92.3303 77.8001C92.2503 77.8001 92.2503 77.8001 92.1903 77.7401ZM88.2303 75.9601C88.0903 75.9601 87.9503 76.0801 87.9303 76.2201C87.9703 76.3601 88.0903 76.5201 88.0103 76.6601C88.0703 76.8601 87.8503 76.9401 87.7103 76.8401C87.6303 76.6401 87.5903 76.4401 87.4503 76.2401C87.2903 76.2001 87.2303 76.4601 87.1103 76.5601C87.1703 76.7001 87.3303 76.8401 87.3503 77.0201C87.3903 77.2201 87.2703 77.4201 87.1303 77.5001C86.9903 77.6401 86.7903 77.6001 86.6303 77.6201C86.4303 77.7401 86.7703 77.7801 86.8703 77.7801C87.0703 77.8001 87.2903 77.7801 87.4703 77.6201C87.6103 77.5601 87.5903 77.2801 87.7703 77.2601L88.7303 77.3201C88.8903 77.3601 89.1503 77.3001 89.2703 77.4201C89.2703 77.6201 89.4703 77.7801 89.6503 77.8601C89.7503 77.9001 89.8503 77.7601 89.9503 77.7401C90.1503 77.6801 90.0903 77.4401 90.2103 77.3401H91.2103C91.2503 77.3401 91.2703 77.2401 91.3303 77.2001L91.2903 76.8201C91.2303 76.6601 91.2903 76.4601 91.1903 76.3201C91.0103 76.2801 90.8703 76.4201 90.7103 76.4401C90.5103 76.5201 90.3703 76.7001 90.3503 76.9001C90.2502 77.0801 90.0703 76.8601 90.1503 76.7001L90.1303 76.5001C90.0303 76.4001 89.8503 76.4401 89.7103 76.4201L89.1103 76.3801C88.9103 76.3801 88.7303 76.4001 88.5703 76.3601C88.3703 76.3601 88.3703 76.1601 88.3703 76.0001C88.3303 75.9696 88.2803 75.9553 88.2303 75.9601ZM88.6303 76.7001L88.8303 76.7201H89.0903C89.2903 76.7601 89.4903 76.7601 89.6903 76.7601C89.7303 76.7601 89.7703 76.8001 89.8103 76.8401V77.2401C89.8103 77.3001 89.8103 77.3801 89.7703 77.4001C89.7598 77.416 89.7462 77.4296 89.7303 77.4401C89.7009 77.4349 89.6732 77.4232 89.649 77.4059C89.6247 77.3886 89.6047 77.3661 89.5903 77.3401V77.0601C89.5506 77.0265 89.5019 77.0056 89.4503 77.0001L88.9303 76.9801L88.5303 76.9601C88.4703 76.9401 88.3903 76.9601 88.3503 76.8801C88.3103 76.8401 88.3703 76.7601 88.4303 76.7401C88.4931 76.7119 88.5614 76.6983 88.6303 76.7001ZM90.8903 76.7601C90.9103 76.7601 90.9303 76.7601 90.9303 76.8201L90.9703 76.9201C90.9703 76.9401 90.9703 76.9601 90.9303 76.9601C90.8303 77.0001 90.7303 77.0001 90.6903 76.9601C90.6903 76.9401 90.6903 76.8601 90.7303 76.8401L90.8903 76.7601Z" fill="#D3AE3B"/>
<path d="M89.9903 65.44C96.5103 60.44 95.9502 53.08 95.9502 53.08L95.4502 53.12C94.0702 53.12 90.8102 52.32 90.0502 51.34C89.2502 52.24 85.8903 53.14 84.5303 53.14L84.0303 53.08C84.0303 53.08 83.4503 60.42 89.9903 65.44Z" fill="white"/>
<path fill-rule="evenodd" clip-rule="evenodd" d="M90.056 51.168L90.1372 51.2726C90.3113 51.4972 90.6389 51.722 91.069 51.9328C91.4959 52.1421 92.0117 52.332 92.5491 52.4921C93.6238 52.8123 94.7699 53.0092 95.4459 53.01L96.0515 52.9616L96.0599 53.0717L95.9502 53.08C96.0599 53.0717 96.0599 53.0716 96.0599 53.0717L96.06 53.0734L96.0604 53.0778L96.0614 53.0946C96.0623 53.1092 96.0635 53.1308 96.0648 53.1589C96.0674 53.2152 96.0702 53.2979 96.0716 53.4047C96.0742 53.6183 96.0705 53.9281 96.0456 54.3152C95.9959 55.0893 95.8611 56.1731 95.5213 57.4141C94.8416 59.8965 93.3405 63.0094 90.0572 65.5273L89.9902 65.5787L89.9233 65.5273C86.63 62.9995 85.1289 59.8865 84.4516 57.4065C84.113 56.1667 83.9802 55.0848 83.932 54.3122C83.9079 53.9258 83.905 53.6167 83.9081 53.4036C83.9097 53.2971 83.9127 53.2145 83.9154 53.1584C83.9168 53.1303 83.9181 53.1088 83.919 53.0942L83.9201 53.0775L83.9204 53.0731L83.9205 53.0719L83.9206 53.0715C83.9206 53.0714 83.9206 53.0714 84.0302 53.08L83.9206 53.0715L83.9296 52.9572L84.5368 53.03C85.2019 53.0286 86.3658 52.8075 87.4682 52.4723C88.0199 52.3046 88.5521 52.1095 88.9947 51.9014C89.4406 51.6918 89.7835 51.4745 89.968 51.2669L90.056 51.168ZM84.1337 53.2032C84.1315 53.2547 84.1293 53.323 84.1281 53.4068C84.125 53.6148 84.1279 53.9183 84.1516 54.2985C84.199 55.059 84.3299 56.1258 84.6639 57.3485C85.327 59.7766 86.7901 62.8183 89.9903 65.3011C93.1804 62.8282 94.6435 59.7866 95.3091 57.356C95.6443 56.1319 95.7771 55.0632 95.8261 54.3011C95.8506 53.9201 95.8541 53.6159 95.8516 53.4074C95.8505 53.3209 95.8484 53.2509 95.8463 53.1987L95.4546 53.23H95.4502C94.7456 53.23 93.5743 53.0271 92.4863 52.7029C91.9413 52.5406 91.4133 52.3467 90.9721 52.1304C90.5871 51.9416 90.2586 51.7312 90.0449 51.5029C89.8222 51.713 89.4839 51.9146 89.0883 52.1005C88.6334 52.3143 88.0906 52.513 87.5322 52.6828C86.4183 53.0215 85.2262 53.25 84.5302 53.25H84.5237L84.1337 53.2032Z" fill="#D3AE3B"/>
<path d="M95.4302 53.6H95.2702C94.0302 53.6 91.1502 52.98 90.0302 52.02C88.8702 52.9 85.9302 53.62 84.7102 53.62C84.6564 53.6179 84.6029 53.6113 84.5502 53.6C84.5612 54.8639 84.736 56.1211 85.0702 57.34C85.8724 60.2768 87.5972 62.878 89.9902 64.76C92.3847 62.8709 94.1093 60.2629 94.9102 57.32C95.2428 56.1075 95.4176 54.8572 95.4302 53.6Z" fill="white"/>
<path fill-rule="evenodd" clip-rule="evenodd" d="M90.0337 51.9044L90.0888 51.9517C90.6326 52.4178 91.6157 52.8087 92.6288 53.0831C93.6393 53.3569 94.6609 53.51 95.2703 53.51H95.5212L95.5203 53.6009C95.5075 54.8658 95.3317 56.1239 94.9971 57.3438C94.191 60.3052 92.4555 62.9296 90.046 64.8307L89.9903 64.8746L89.9346 64.8307C87.5265 62.9368 85.7907 60.3191 84.9834 57.3637C84.6471 56.1373 84.4713 54.8724 84.4603 53.6008L84.4593 53.4886L84.569 53.512C84.6161 53.522 84.6639 53.5281 84.712 53.53C85.3103 53.5297 86.3401 53.3522 87.3684 53.0634C88.3991 52.7739 89.4101 52.3775 89.9759 51.9483L90.0337 51.9044ZM87.4171 53.2366C86.3814 53.5275 85.3323 53.71 84.7103 53.71H84.7068C84.685 53.7092 84.6632 53.7076 84.6416 53.7053C84.661 54.9257 84.8342 56.1389 85.1571 57.3162C85.9479 60.2115 87.6413 62.7787 89.9902 64.6452C92.3405 62.7716 94.0338 60.1978 94.8234 57.2964C95.1459 56.1206 95.3192 54.9088 95.3391 53.69H95.2703C94.6396 53.69 93.6012 53.5331 92.5817 53.2569C91.5965 52.9899 90.6114 52.607 90.027 52.1343C89.4247 52.5679 88.4187 52.9553 87.4171 53.2366Z" fill="#D3AE3B"/>
<path d="M87.8702 53C86.7959 53.3499 85.679 53.5517 84.5502 53.6L84.5702 54.42C84.6385 55.4011 84.8061 56.3727 85.0702 57.32C85.6079 59.287 86.5629 61.1151 87.8702 62.68V53ZM91.9902 53V62.84C93.3606 61.2391 94.3579 59.3537 94.9102 57.32C95.1741 56.3727 95.3417 55.4011 95.4102 54.42L95.4302 53.62H95.2702C94.5102 53.62 93.1902 53.38 91.9902 52.98V53Z" fill="#D3AE3B"/>
<path d="M92.4502 50.6C92.5902 50.62 92.2702 49.9 92.2702 49.9C92.6302 50.26 93.9502 50.36 93.9502 50.36C93.1502 50 92.3502 47.34 92.4502 45.2C92.5302 43.08 92.1502 42.24 91.8502 41.92C91.4502 41.52 90.1502 41.16 89.3102 41.12C88.8102 41.1 88.9102 41.48 88.9102 41.48C88.0102 41.26 87.1102 41.16 86.7102 41.44C86.3502 41.68 86.2702 42.94 86.5502 42.72C87.2102 42.18 87.7902 42.68 88.1902 43.26C88.5502 43.76 88.5302 45.2 88.0102 46.9C87.5498 48.1852 86.8734 49.3824 86.0102 50.44C86.8102 50.44 87.9302 49.74 87.9302 49.74L87.6702 50.84C88.5102 50.44 89.1702 49.82 89.1702 49.82L89.9702 50.66C90.2302 50.3 90.7702 49.82 90.7702 49.82C90.7702 49.82 91.4302 50.52 92.4502 50.62V50.6Z" fill="white"/>
<path fill-rule="evenodd" clip-rule="evenodd" d="M88.9764 41.0556C89.0633 41.0088 89.1753 40.987 89.3153 40.9926L89.3163 40.9927C89.7488 41.0133 90.2943 41.1156 90.7821 41.263C91.0264 41.3368 91.2589 41.4227 91.4573 41.5167C91.6537 41.6098 91.8252 41.7147 91.9404 41.8299L91.9418 41.8313L91.9432 41.8328C92.2798 42.1918 92.6579 43.077 92.5776 45.2048L92.5776 45.206C92.5283 46.2599 92.701 47.4456 92.9851 48.4115C93.1271 48.8944 93.2957 49.318 93.4757 49.6407C93.6589 49.9693 93.842 50.1715 94.0026 50.2438L93.9406 50.4872L93.9502 50.36C93.9406 50.4872 93.9406 50.4872 93.9406 50.4872L93.9402 50.4871L93.9363 50.4868L93.9246 50.4859C93.9145 50.485 93.8998 50.4837 93.881 50.482C93.8433 50.4785 93.7894 50.473 93.7237 50.4654C93.5924 50.4502 93.413 50.426 93.2218 50.3904C93.0312 50.3548 92.8257 50.3072 92.6431 50.2443C92.6043 50.231 92.5658 50.2167 92.5281 50.2014C92.5297 50.206 92.5314 50.2106 92.533 50.2152C92.5646 50.3049 92.5948 50.4022 92.6071 50.479C92.6127 50.514 92.6178 50.5629 92.606 50.6079C92.6017 50.6244 92.5936 50.6464 92.5777 50.6675V50.7606L92.4378 50.7469C91.9019 50.6944 91.4627 50.4846 91.1589 50.2899C91.0068 50.1923 90.8876 50.0979 90.806 50.0275C90.7924 50.0157 90.7798 50.0046 90.7683 49.9943C90.7144 50.0443 90.6398 50.1145 90.5572 50.1959C90.3905 50.3601 90.197 50.5639 90.0736 50.7347L89.9837 50.8591L89.1631 49.9974C89.1549 50.0045 89.1462 50.012 89.137 50.0199C89.0604 50.0857 88.9497 50.1773 88.8123 50.2816C88.5382 50.4897 88.1556 50.7501 87.7251 50.9551L87.485 51.0694L87.7384 49.9974C87.6262 50.0584 87.4837 50.1321 87.3236 50.2058C86.9412 50.3819 86.4397 50.5675 86.0102 50.5675H85.7416L85.9115 50.3594C86.7648 49.3138 87.4337 48.1303 87.8892 46.8598C88.146 46.0195 88.2784 45.2464 88.3028 44.625C88.3151 44.3139 88.3002 44.0433 88.2615 43.8226C88.2225 43.6001 88.161 43.4376 88.0868 43.3345L88.0853 43.3324C87.8891 43.0479 87.6599 42.8009 87.4136 42.6855C87.293 42.629 87.1706 42.6051 87.0452 42.6215C86.9195 42.6378 86.7812 42.6958 86.631 42.8187L86.629 42.8203C86.5736 42.8638 86.4861 42.8994 86.398 42.8483C86.3291 42.8083 86.299 42.7339 86.284 42.6819C86.2511 42.5679 86.2478 42.4046 86.2633 42.2405C86.2791 42.0731 86.316 41.8891 86.3741 41.7288C86.4299 41.5747 86.5136 41.4185 86.6383 41.3348C86.8751 41.1696 87.237 41.1275 87.6285 41.1451C87.9813 41.1611 88.381 41.227 88.7827 41.3188C88.7873 41.295 88.7943 41.2699 88.8046 41.2446C88.8335 41.1733 88.8871 41.1036 88.9764 41.0556ZM87.8627 49.6319L87.8621 49.6322L87.86 49.6336L87.851 49.6391C87.843 49.6439 87.831 49.6512 87.8154 49.6605C87.7841 49.6791 87.7382 49.7059 87.6806 49.7381C87.5652 49.8025 87.4032 49.8884 87.2169 49.9742C86.9319 50.1054 86.6009 50.2313 86.2964 50.2851C87.0797 49.2752 87.6988 48.1474 88.1303 46.943L88.1313 46.9402L88.1322 46.9373C88.3948 46.0788 88.5321 45.2829 88.5576 44.635C88.5704 44.3112 88.5553 44.0217 88.5127 43.7786C88.4705 43.538 88.3999 43.3335 88.2945 43.1866C88.0908 42.8914 87.8302 42.599 87.5218 42.4546C87.3649 42.3811 87.1936 42.3449 87.0122 42.3686C86.8485 42.3899 86.6845 42.4589 86.5217 42.5805C86.508 42.5088 86.5046 42.3971 86.5172 42.2645C86.5314 42.1144 86.5644 41.9521 86.6139 41.8156C86.6654 41.6733 86.7263 41.5826 86.781 41.5461L86.7834 41.5445C86.9465 41.4303 87.2341 41.3826 87.617 41.3999C87.9929 41.4169 88.434 41.4949 88.88 41.6039L89.0881 41.6547L89.0338 41.4486C89.0338 41.4486 89.0338 41.4487 89.0338 41.4486C89.0336 41.4477 89.0331 41.4454 89.0326 41.4424C89.0316 41.4363 89.0303 41.4268 89.0298 41.4153C89.0287 41.3912 89.0313 41.3642 89.0409 41.3404C89.0495 41.3193 89.0647 41.2976 89.0972 41.2801C89.1321 41.2613 89.195 41.2431 89.3047 41.2474C89.7121 41.2669 90.2364 41.3645 90.7084 41.5071C90.944 41.5783 91.164 41.6599 91.3481 41.7471C91.5332 41.8348 91.6736 41.9243 91.7586 42.0087C92.022 42.2911 92.4023 43.0867 92.3228 45.1946C92.2722 46.2806 92.4496 47.4946 92.7404 48.4835C92.8859 48.9782 93.061 49.4208 93.2529 49.7649C93.3414 49.9235 93.436 50.0661 93.5363 50.1839C93.4529 50.1718 93.3621 50.1571 93.2686 50.1397C93.0843 50.1053 92.8923 50.0604 92.7261 50.0032C92.556 49.9447 92.4291 49.8786 92.3604 49.8099L92.1538 49.9518L92.1539 49.9522L92.1545 49.9536L92.157 49.9593C92.158 49.9615 92.1591 49.9641 92.1605 49.9672C92.1622 49.9712 92.1643 49.976 92.1666 49.9814C92.1749 50.0006 92.1866 50.0281 92.2002 50.061C92.2276 50.127 92.2623 50.2141 92.2925 50.2999C92.3127 50.3572 92.3297 50.4108 92.3414 50.4557L92.3227 50.453V50.4752C91.9012 50.4085 91.5502 50.2378 91.2965 50.0752C91.1562 49.9852 91.0467 49.8984 90.9726 49.8345C90.9356 49.8025 90.9076 49.7764 90.8891 49.7585C90.8799 49.7496 90.873 49.7428 90.8687 49.7384L90.8639 49.7335L90.863 49.7326L90.7781 49.6425L90.6855 49.7247L90.685 49.7252L90.6838 49.7263L90.679 49.7306L90.6609 49.7468C90.6454 49.7609 90.6229 49.7814 90.5952 49.8071C90.5398 49.8584 90.4632 49.9306 90.3783 50.0142C90.245 50.1455 90.0877 50.3085 89.9602 50.4646L89.1752 49.6404L89.083 49.7271L89.0827 49.7273L89.0815 49.7285L89.0763 49.7333C89.0716 49.7376 89.0644 49.7442 89.0549 49.7527C89.0359 49.7698 89.0076 49.7949 88.9709 49.8264C88.8976 49.8894 88.7908 49.9777 88.6581 50.0785C88.4459 50.2396 88.169 50.4311 87.8577 50.601L88.1257 49.4675" fill="#D3AE3B"/>
<path fill-rule="evenodd" clip-rule="evenodd" d="M89.8005 45.4123L89.9302 45.42C90.06 45.4278 90.06 45.4278 90.06 45.4279L90.0594 45.4377L90.0576 45.4662C90.056 45.4912 90.0535 45.5278 90.0502 45.5747C90.0436 45.6686 90.0336 45.8038 90.0198 45.9693C89.9922 46.3001 89.9495 46.7526 89.8892 47.2385C89.829 47.7242 89.751 48.245 89.6524 48.7122C89.5545 49.1762 89.4342 49.5988 89.2852 49.8808L89.0553 49.7593C89.1863 49.5113 89.3009 49.1189 89.398 48.6585C89.4945 48.2013 89.5715 47.6884 89.6312 47.2065C89.6909 46.725 89.7333 46.2762 89.7607 45.9477C89.7744 45.7835 89.7843 45.6494 89.7909 45.5565C89.7941 45.5101 89.7965 45.4739 89.7981 45.4494L89.7999 45.4216L89.8005 45.4123ZM89.0814 45.5028L89.2102 45.52C89.3391 45.5373 89.3391 45.5374 89.3391 45.5374L89.3387 45.5399L89.3377 45.5472L89.3338 45.5753C89.3303 45.5999 89.3251 45.6359 89.3183 45.682C89.3045 45.7742 89.2839 45.9067 89.2565 46.0686C89.2019 46.3921 89.1202 46.8335 89.0119 47.3042C88.9038 47.7744 88.7687 48.2764 88.6067 48.7202C88.4462 49.1604 88.2542 49.5581 88.0262 49.8077L87.8342 49.6324C88.0263 49.422 88.2043 49.0647 88.3625 48.6311C88.5193 48.2012 88.6517 47.7107 88.7585 47.2459C88.8653 46.7816 88.9461 46.3455 89.0002 46.0253C89.0272 45.8652 89.0475 45.7343 89.0611 45.6436C89.0679 45.5982 89.073 45.5628 89.0764 45.5389L89.0802 45.5118L89.0811 45.5049L89.0814 45.5028ZM90.4202 45.5601C90.4202 45.5601 90.4202 45.56 90.5502 45.56C90.6802 45.56 90.6802 45.5601 90.6802 45.5601L90.6803 45.6008C90.6803 45.6276 90.6804 45.6669 90.6806 45.7172C90.681 45.8177 90.6818 45.9621 90.6833 46.1373C90.6865 46.4878 90.6927 46.9614 90.7052 47.4543C90.7177 47.9473 90.7364 48.4584 90.7643 48.8843C90.7783 49.0974 90.7945 49.2878 90.8133 49.4434C90.8323 49.6016 90.8531 49.7155 90.8739 49.7801L90.6265 49.86C90.5973 49.7696 90.5744 49.6341 90.5551 49.4745C90.5356 49.3124 90.519 49.1168 90.5049 48.9014C90.4766 48.4704 90.4578 47.9553 90.4453 47.4608C90.4327 46.9661 90.4265 46.491 90.4234 46.1396C90.4218 45.9639 90.421 45.8191 90.4206 45.7182C90.4204 45.6677 90.4203 45.6282 90.4203 45.6013L90.4202 45.5601ZM91.2204 45.7469C91.2204 45.7469 91.2204 45.7468 91.3502 45.74L91.48 45.7333L91.4802 45.7352L91.4805 45.7416L91.482 45.7669C91.4833 45.7892 91.4854 45.8223 91.4883 45.8648C91.4941 45.9499 91.5032 46.0728 91.5166 46.2239C91.5433 46.5262 91.5868 46.9403 91.6538 47.3883C91.7209 47.8366 91.8112 48.3167 91.9312 48.7514C92.0518 49.1885 92.1997 49.5692 92.3772 49.8261L92.1633 49.9739C91.9608 49.6808 91.8036 49.2666 91.6805 48.8206C91.5568 48.3721 91.4646 47.8809 91.3967 47.4268C91.3287 46.9722 91.2846 46.5527 91.2576 46.2468C91.2441 46.0938 91.2348 45.9691 91.2289 45.8825C91.2259 45.8392 91.2238 45.8055 91.2224 45.7824L91.2209 45.7561L91.2205 45.7493L91.2204 45.7469Z" fill="#D3AE3B"/>
<path d="M88.3902 43.92C88.3723 43.6881 88.3041 43.4628 88.1902 43.26C87.7902 42.66 87.2102 42.18 86.5502 42.72C86.5502 42.72 86.7702 42.02 87.2702 42C87.6302 41.98 88.4902 42.28 89.2502 43.56C89.2502 43.56 88.6902 43.44 88.5502 43.56C88.3102 43.76 88.4102 43.92 88.4102 43.92H88.3902Z" fill="#D3AE3B"/>
<path d="M86.4702 41.86C86.5302 41.66 86.6102 41.5 86.7302 41.44C87.1302 41.16 88.0102 41.24 88.9102 41.48C88.9102 41.48 88.8302 41.1 89.3102 41.12C90.1502 41.16 91.4302 41.52 91.8302 41.92C91.9583 42.0607 92.0599 42.2233 92.1302 42.4C91.9302 42.12 91.3702 42.14 91.2302 42.16C91.0302 42.18 90.8902 42.16 90.6102 42.24C90.4702 42.28 90.2702 42.32 90.1502 42.4C90.0702 42.48 89.9902 42.72 89.8702 42.72C89.6702 42.72 89.6702 42.68 89.6102 42.62C89.5502 42.52 89.5102 42.4 89.4302 42.42C89.2302 42.44 88.8702 42.28 88.4302 41.92C87.9702 41.56 87.7902 41.48 87.2302 41.52C86.6302 41.56 86.4702 41.9 86.4702 41.9V41.86Z" fill="#D3AE3B"/>
<path d="M89.7502 42.38C89.8828 42.38 89.9902 42.2726 89.9902 42.14C89.9902 42.0075 89.8828 41.9 89.7502 41.9C89.6177 41.9 89.5102 42.0075 89.5102 42.14C89.5102 42.2726 89.6177 42.38 89.7502 42.38Z" fill="white"/>
</g>
<defs>
<clipPath id="clip0_909_101562">
<rect width="180" height="120" fill="white"/>
</clipPath>
</defs>
</svg>
