<svg width="180" height="120" viewBox="0 0 180 120" fill="none" xmlns="http://www.w3.org/2000/svg">
<g clip-path="url(#clip0_909_308368)">
<path d="M0 0H180V120H0V0Z" fill="#D91C16"/>
<path d="M0 0H180V80H0V0Z" fill="#FDD406"/>
<path d="M0 0H180V40H0V0Z" fill="#1E9A1C"/>
<path d="M90 100C112.091 100 130 82.0914 130 60C130 37.9086 112.091 20 90 20C67.9086 20 50 37.9086 50 60C50 82.0914 67.9086 100 90 100Z" fill="#0F3296"/>
<path d="M88.598 32.3148L89.9999 28L97.1844 50.1115H114.196L110.525 52.7781H85.8044L86.6709 50.1115H94.3805L88.598 32.3148Z" fill="#FDD406"/>
<path d="M99.1601 48.5263L109.348 34.5033L108.27 33.7196L98.0814 47.7426L99.1601 48.5263Z" fill="#FDD406"/>
<path d="M120.434 50.1114H115.897L100.758 61.1104L98.3757 53.7781H95.5718L103.211 77.2891L106.881 79.9557L101.625 63.7771L120.434 50.1114Z" fill="#FDD406"/>
<path d="M103.743 65.1663L120.228 70.5226L120.64 69.2545L104.155 63.8982L103.743 65.1663Z" fill="#FDD406"/>
<path d="M108.809 85.8885L107.407 81.5738L92.2683 70.5748L98.5056 66.0432L97.6391 63.3765L77.6395 77.9071L76.2375 82.2219L89.9999 72.2229L108.809 85.8885Z" fill="#FDD406"/>
<path d="M89.3333 74.6667V92H90.6666V74.6667H89.3333Z" fill="#FDD406"/>
<path d="M71.1908 85.8886L74.8612 83.2219L80.6436 65.4252L86.8809 69.9568L89.1493 68.3087L69.1497 53.7781H64.6129L78.3752 63.7771L71.1908 85.8886Z" fill="#FDD406"/>
<path d="M75.8451 63.8982L59.3601 69.2545L59.7721 70.5226L76.2571 65.1663L75.8451 63.8982Z" fill="#FDD406"/>
<path d="M59.5661 50.1115L63.2364 52.7781L81.949 52.7781L79.5666 60.1104L81.835 61.7585L89.4742 38.2476L88.0722 33.9328L82.8154 50.1115H59.5661Z" fill="#FDD406"/>
<path d="M81.9184 47.7426L71.7301 33.7196L70.6514 34.5033L80.8397 48.5263L81.9184 47.7426Z" fill="#FDD406"/>
</g>
<defs>
<clipPath id="clip0_909_308368">
<rect width="180" height="120" fill="white"/>
</clipPath>
</defs>
</svg>
