<svg width="180" height="120" viewBox="0 0 180 120" fill="none" xmlns="http://www.w3.org/2000/svg">
<g clip-path="url(#clip0_307_56207)">
<path d="M180 0H0V120H180V0Z" fill="#54AEF2"/>
<path d="M78.5873 20.2918L85.6408 25.4164L82.9466 33.7082L90 28.5836L97.0534 33.7082L94.3593 25.4164L101.413 20.2918H92.6942L90 12L87.3058 20.2918H78.5873Z" fill="white"/>
<path d="M129.708 57.3058L138 60L129.708 62.6942V71.4127L124.584 64.3593L116.292 67.0534L121.416 60L116.292 52.9466L124.584 55.6408L129.708 48.5873V57.3058Z" fill="white"/>
<path d="M97.0534 86.2918L94.3592 94.5836L101.413 99.7082H92.6942L90 108L87.3058 99.7082H78.5873L85.6407 94.5836L82.9466 86.2918L90 91.4164L97.0534 86.2918Z" fill="white"/>
<path d="M63.7082 67.0534L55.4164 64.3592L50.2918 71.4127V62.6942L42 60L50.2918 57.3058V48.5873L55.4164 55.6407L63.7082 52.9466L58.5836 60L63.7082 67.0534Z" fill="white"/>
</g>
<defs>
<clipPath id="clip0_307_56207">
<rect width="180" height="120" fill="white"/>
</clipPath>
</defs>
</svg>
