<svg width="180" height="120" viewBox="0 0 180 120" fill="none" xmlns="http://www.w3.org/2000/svg">
<g clip-path="url(#clip0_909_286125)">
<path d="M0 0H180V120H0V0Z" fill="#021455"/>
<path d="M180 14.4219L111.633 60L180 105.578V120H158.367L90 74.4219L21.6328 120H0V105.578L68.3672 60L0 14.4219V0H21.6328L90 45.5781L158.367 0H180V14.4219Z" fill="white"/>
<path fill-rule="evenodd" clip-rule="evenodd" d="M75.5781 60L0 9.61426V0L90 59.9995L75.5781 60Z" fill="#D91C16"/>
<path fill-rule="evenodd" clip-rule="evenodd" d="M90 69.6143L14.4219 120H0L90 59.9995V69.6143Z" fill="#D91C16"/>
<path fill-rule="evenodd" clip-rule="evenodd" d="M104.422 60L180 110.385V120L90 59.9995L104.422 60Z" fill="#D91C16"/>
<path d="M90 50.3848L165.578 0H180L90 59.9995V50.3848Z" fill="#D91C16"/>
<path d="M110 0V40H180V80H110V120H70V80H0V40H70V0H110Z" fill="white"/>
<path d="M102 0V48H180V72H102V120H78V72H0V48H78V0H102Z" fill="#D91C16"/>
</g>
<defs>
<clipPath id="clip0_909_286125">
<rect width="180" height="120" fill="white"/>
</clipPath>
</defs>
</svg>
