<svg width="180" height="120" viewBox="0 0 180 120" fill="none" xmlns="http://www.w3.org/2000/svg">
<g clip-path="url(#clip0_909_218534)">
<path d="M0 0H180V120H0V0Z" fill="#D91C16"/>
<path d="M16.7998 16.8H163.2V103.2H16.7998V16.8Z" fill="#005801"/>
<path d="M16.7998 16.8H163.2L16.7998 103.2H163.2L16.7998 16.8Z" fill="#FDD406"/>
<path d="M25.9659 60.0453C27.6707 63.4513 31.0687 67.2025 34.0911 68.5737C34.2379 65.1685 33.1546 60.7677 31.6014 57.2417L25.9659 60.0453Z" fill="#D91C16"/>
<path d="M22.9014 48.5948C25.4414 54.0728 15.8882 66.9372 31.4826 70.1852C29.5882 67.528 28.5506 63.0845 29.0666 59.6029C32.3046 60.9821 35.5514 64.1885 36.8274 67.1917C42.205 52.198 26.245 53.6228 22.9014 48.5948Z" fill="#FDD406"/>
<path d="M128.34 5.8896L130.091 0.5L131.842 5.8896H137.509L132.925 9.22067L134.676 14.6104L130.091 11.2794L125.506 14.6104L127.258 9.22077L122.673 5.8896H128.34Z" fill="#FDD406"/>
<path d="M48.6672 109L50.4184 103.61L52.1695 109H57.8364L53.2517 112.331L55.0028 117.721L50.4182 114.39L45.8336 117.721L47.5848 112.331L43 109H48.6672Z" fill="#FDD406"/>
<path d="M88.5031 109L90.2543 103.61L92.0054 109H97.6723L93.0876 112.331L94.8387 117.721L90.2541 114.39L85.6695 117.721L87.4208 112.331L82.8359 109H88.5031Z" fill="#FDD406"/>
<path d="M130.091 103.61L128.34 109H122.673L127.258 112.331L125.506 117.721L130.091 114.39L134.676 117.721L132.925 112.331L137.509 109H131.842L130.091 103.61Z" fill="#FDD406"/>
<path d="M90.2543 0.5L88.5031 5.8896H82.8359L87.4208 9.22076L85.6695 14.6104L90.2541 11.2794L94.8387 14.6104L93.0876 9.22067L97.6723 5.8896H92.0054L90.2543 0.5Z" fill="#FDD406"/>
<path d="M48.6672 5.8896L50.4184 0.5L52.1695 5.8896H57.8364L53.2517 9.22067L55.0028 14.6104L50.4182 11.2794L45.8336 14.6104L47.5848 9.22076L43 5.8896H48.6672Z" fill="#FDD406"/>
<path d="M90.4 74.4C98.3529 74.4 104.8 67.9529 104.8 60C104.8 52.0471 98.3529 45.6 90.4 45.6C82.4471 45.6 76 52.0471 76 60C76 67.9529 82.4471 74.4 90.4 74.4Z" fill="#D91C16"/>
<path d="M90.3993 46.7999L82.6405 70.6787L102.953 55.9207H77.8457L98.1585 70.6787L90.3993 46.7999Z" fill="#FDD406"/>
</g>
<defs>
<clipPath id="clip0_909_218534">
<rect width="180" height="120" fill="white"/>
</clipPath>
</defs>
</svg>
