<svg width="180" height="120" viewBox="0 0 180 120" fill="none" xmlns="http://www.w3.org/2000/svg">
<g clip-path="url(#clip0_909_286157)">
<path d="M0 0H180V120H0V0Z" fill="white"/>
<path d="M106 0H74V48H0V72H74V120H106V72H180V48H106V0Z" fill="#D91C16"/>
<path d="M140.057 83.7241C142.858 84.092 145.694 84.092 148.495 83.7241C147.885 86.7653 147.504 89.8407 147.352 92.9245C150.435 92.7723 153.511 92.3911 156.552 91.7809C156.184 94.5817 156.184 97.4185 156.552 100.219C153.511 99.6091 150.435 99.2279 147.352 99.0757C147.504 102.16 147.885 105.235 148.495 108.276C145.694 107.908 142.858 107.908 140.057 108.276C140.667 105.235 141.048 102.16 141.2 99.0757C138.117 99.2279 135.041 99.6091 132 100.219C132.368 97.4185 132.368 94.5817 132 91.7809C135.041 92.3912 138.117 92.7724 141.2 92.9245C141.048 89.8407 140.667 86.7653 140.057 83.7241Z" fill="#D91C16"/>
<path d="M31.507 83.7241C34.3078 84.092 37.1446 84.092 39.9454 83.7241C39.3352 86.7653 38.954 89.8407 38.8018 92.9245C41.8856 92.7723 44.961 92.3911 48.0022 91.7809C47.6343 94.5817 47.6343 97.4185 48.0022 100.219C44.961 99.6091 41.8856 99.2279 38.8018 99.0757C38.954 102.16 39.3352 105.235 39.9454 108.276C37.1446 107.908 34.3078 107.908 31.507 108.276C32.1172 105.235 32.4984 102.16 32.6506 99.0757C29.5668 99.2279 26.4914 99.6091 23.4502 100.219C23.8181 97.4185 23.8181 94.5817 23.4502 91.7809C26.4914 92.3912 29.5668 92.7724 32.6506 92.9245C32.4984 89.8407 32.1172 86.7653 31.507 83.7241Z" fill="#D91C16"/>
<path d="M140.057 11.7241C142.858 12.092 145.694 12.092 148.495 11.7241C147.885 14.7653 147.504 17.8407 147.352 20.9245C150.435 20.7724 153.511 20.3911 156.552 19.7809C156.184 22.5817 156.184 25.4185 156.552 28.2193C153.511 27.6091 150.435 27.2279 147.352 27.0757C147.504 30.1596 147.885 33.2349 148.495 36.2761C145.694 35.9083 142.858 35.9083 140.057 36.2761C140.667 33.2349 141.048 30.1596 141.2 27.0757C138.117 27.2279 135.041 27.6091 132 28.2193C132.368 25.4185 132.368 22.5817 132 19.7809C135.041 20.3911 138.117 20.7724 141.2 20.9245C141.048 17.8407 140.667 14.7653 140.057 11.7241Z" fill="#D91C16"/>
<path d="M39.9454 11.7241C37.1446 12.092 34.3078 12.092 31.507 11.7241C32.1172 14.7653 32.4984 17.8407 32.6506 20.9245C29.5668 20.7724 26.4914 20.3911 23.4502 19.7809C23.8181 22.5817 23.8181 25.4185 23.4502 28.2193C26.4914 27.6091 29.5668 27.2279 32.6506 27.0757C32.4984 30.1596 32.1172 33.2349 31.507 36.2761C34.3078 35.9083 37.1446 35.9083 39.9454 36.2761C39.3352 33.2349 38.954 30.1596 38.8018 27.0757C41.8856 27.2279 44.961 27.6091 48.0022 28.2193C47.6343 25.4185 47.6343 22.5817 48.0022 19.7809C44.961 20.3911 41.8856 20.7724 38.8018 20.9245C38.954 17.8407 39.3352 14.7653 39.9454 11.7241Z" fill="#D91C16"/>
</g>
<defs>
<clipPath id="clip0_909_286157">
<rect width="180" height="120" fill="white"/>
</clipPath>
</defs>
</svg>
