<svg width="180" height="120" viewBox="0 0 180 120" fill="none" xmlns="http://www.w3.org/2000/svg">
<g clip-path="url(#clip0_504_376)">
<path d="M180 0H0V120H180V0Z" fill="#D91C16"/>
<path d="M180 0H0V80.3906H180V0Z" fill="white"/>
<path d="M92.1426 54.5172H62.1426V75.1389H92.1426V54.5172Z" fill="black"/>
<path d="M77.7275 72.124H59.4139L55.3545 74.7958V77.6269H77.7275" fill="#D91C16"/>
<path fill-rule="evenodd" clip-rule="evenodd" d="M59.3437 71.8896H77.9618V72.3584H59.4841L55.5889 74.9221V77.3925H77.9618V77.8613H55.1201V74.6695L59.3437 71.8896Z" fill="black"/>
<path d="M70.0635 60.2783C72.7001 60.2783 74.8535 62.4764 74.8535 65.1855V72.1143H78.2959V45.8643H59.4141V72.1143H65.2734V65.1855C65.2734 62.5822 67.3898 60.2783 70.0635 60.2783Z" fill="#D91C16"/>
<path fill-rule="evenodd" clip-rule="evenodd" d="M59.1797 45.6299H78.5303V72.3486H74.6191V65.1855C74.6191 62.6007 72.5656 60.5127 70.0635 60.5127C67.5287 60.5127 65.5078 62.702 65.5078 65.1855V72.3486H59.1797V45.6299ZM59.6484 46.0986V71.8799H65.0391V65.1855C65.0391 62.4624 67.2509 60.0439 70.0635 60.0439C72.8346 60.0439 75.0879 62.3521 75.0879 65.1855V71.8799H78.0615V46.0986H59.6484Z" fill="black"/>
<path d="M74.5559 28.1071H65.873V44.0255H74.5559V28.1071Z" fill="black"/>
<path d="M74.5312 41.5576H66.9333V38.8623H61.3623V41.5576H57.583V38.8623H55.3271V43.7549H74.5312M57.583 43.7372H73.9754V45.8643H57.583V43.7372Z" fill="#D91C16"/>
<path fill-rule="evenodd" clip-rule="evenodd" d="M55.0928 38.6279H57.8174V41.3232H61.1279V38.6279H67.1677V41.3232H74.7656V41.792H66.6989V39.0967H61.5967V41.792H57.3486V39.0967H55.5615V43.5205H57.3486V43.5028H74.2097V43.5205H74.7656V43.9893H74.2097V46.0986H57.3486V43.9893H55.0928V38.6279ZM57.8174 43.9893V45.6299H73.741V43.9893H57.8174Z" fill="black"/>
<path d="M64.0869 22.3242V38.8623H66.9333V34.3213C66.9333 32.6201 68.1343 31.2278 69.8145 31.1426C69.8686 31.1398 69.9207 31.1426 69.9756 31.1426C71.7317 31.1426 73.1543 32.5652 73.1543 34.3213V38.8623H75.8643V22.3242H64.0869Z" fill="#D91C16"/>
<path fill-rule="evenodd" clip-rule="evenodd" d="M63.8525 22.0898H76.0986V39.0967H72.9199V34.3213C72.9199 32.6946 71.6023 31.377 69.9756 31.377C69.9474 31.377 69.9257 31.3765 69.9068 31.3762C69.8775 31.3756 69.8551 31.3752 69.8263 31.3767C68.284 31.4549 67.1677 32.7313 67.1677 34.3213V39.0967H63.8525V22.0898ZM64.3213 22.5586V38.6279H66.6989V34.3213C66.6989 32.5088 67.9846 31.0008 69.8026 30.9085C69.8466 30.9063 69.8973 30.9071 69.9364 30.9077C69.9516 30.908 69.965 30.9082 69.9756 30.9082C71.8611 30.9082 73.3887 32.4357 73.3887 34.3213V38.6279H75.6299V22.5586H64.3213Z" fill="black"/>
<path d="M63.0615 20.083V22.3242H76.7725V20.083H63.0615Z" fill="#D91C16"/>
<path fill-rule="evenodd" clip-rule="evenodd" d="M62.8271 19.8486H77.0068V22.5586H62.8271V19.8486ZM63.2959 20.3174V22.0898H76.5381V20.3174H63.2959Z" fill="black"/>
<path d="M61.3037 15.791V20.083H77.7539V15.791H75.2197V17.9736H72.1582V15.791H67.4854V17.9736H64.4238V15.791H61.3037Z" fill="#D91C16"/>
<path fill-rule="evenodd" clip-rule="evenodd" d="M61.0693 15.5566H64.6582V17.7393H67.251V15.5566H72.3926V17.7393H74.9854V15.5566H77.9883V20.3174H61.0693V15.5566ZM61.5381 16.0254V19.8486H77.5195V16.0254H75.4541V18.208H71.9238V16.0254H67.7197V18.208H64.1895V16.0254H61.5381Z" fill="black"/>
<path fill-rule="evenodd" clip-rule="evenodd" d="M55.1201 74.5614H78.0467V75.0302H55.1201V74.5614Z" fill="black"/>
<path d="M92.3438 73.5059H77.1387L72.5537 75.7178V79.0137H92.3438" fill="#D91C16"/>
<path fill-rule="evenodd" clip-rule="evenodd" d="M77.0851 73.2715H92.5781V73.7402H77.1923L72.7881 75.8649V78.7793H92.5781V79.248H72.3193V75.5706L77.0851 73.2715Z" fill="black"/>
<path fill-rule="evenodd" clip-rule="evenodd" d="M92.8124 75.9465H72.5488V75.4778H92.8124V75.9465Z" fill="black"/>
<path d="M87.8574 54.5172H117.857V75.1389H87.8574V54.5172Z" fill="black"/>
<path d="M102.273 72.124H120.586L124.646 74.7958V77.6269H102.273" fill="#D91C16"/>
<path fill-rule="evenodd" clip-rule="evenodd" d="M120.656 71.8896H102.038V72.3584H120.516L124.411 74.9221V77.3925H102.038V77.8613H124.88V74.6695L120.656 71.8896Z" fill="black"/>
<path d="M109.937 60.2783C107.3 60.2783 105.146 62.4764 105.146 65.1855V72.1143H101.704V45.8643H120.586V72.1143H114.727V65.1855C114.727 62.5822 112.61 60.2783 109.937 60.2783Z" fill="#D91C16"/>
<path fill-rule="evenodd" clip-rule="evenodd" d="M120.82 45.6299H101.47V72.3486H105.381V65.1855C105.381 62.6007 107.434 60.5127 109.937 60.5127C112.471 60.5127 114.492 62.702 114.492 65.1855V72.3486H120.82V45.6299ZM120.352 46.0986V71.8799H114.961V65.1855C114.961 62.4624 112.749 60.0439 109.937 60.0439C107.165 60.0439 104.912 62.3521 104.912 65.1855V71.8799H101.938V46.0986H120.352Z" fill="black"/>
<path d="M105.444 28.1071H114.127V44.0255H105.444V28.1071Z" fill="black"/>
<path d="M105.469 41.5576H113.067V38.8623H118.638V41.5576H122.417V38.8623H124.673V43.7549H105.469M122.417 43.7372H106.025V45.8643H122.417V43.7372Z" fill="#D91C16"/>
<path fill-rule="evenodd" clip-rule="evenodd" d="M124.907 38.6279H122.183V41.3232H118.872V38.6279H112.832V41.3232H105.234V41.792H113.301V39.0967H118.403V41.792H122.651V39.0967H124.438V43.5205H122.651V43.5028H105.79V43.5205H105.234V43.9893H105.79V46.0986H122.651V43.9893H124.907V38.6279ZM122.183 43.9893V45.6299H106.259V43.9893H122.183Z" fill="black"/>
<path d="M115.913 22.3242V38.8623H113.067V34.3213C113.067 32.6201 111.866 31.2278 110.186 31.1426C110.131 31.1398 110.079 31.1426 110.024 31.1426C108.268 31.1426 106.846 32.5652 106.846 34.3213V38.8623H104.136V22.3242H115.913Z" fill="#D91C16"/>
<path fill-rule="evenodd" clip-rule="evenodd" d="M116.147 22.0898H103.901V39.0967H107.08V34.3213C107.08 32.6946 108.398 31.377 110.024 31.377C110.053 31.377 110.074 31.3765 110.093 31.3762C110.123 31.3756 110.145 31.3752 110.174 31.3767C111.716 31.4549 112.832 32.7313 112.832 34.3213V39.0967H116.147V22.0898ZM115.679 22.5586V38.6279H113.301V34.3213C113.301 32.5088 112.015 31.0008 110.197 30.9085C110.153 30.9063 110.103 30.9071 110.064 30.9077C110.048 30.908 110.035 30.9082 110.024 30.9082C108.139 30.9082 106.611 32.4357 106.611 34.3213V38.6279H104.37V22.5586H115.679Z" fill="black"/>
<path d="M116.938 20.083V22.3242H103.228V20.083H116.938Z" fill="#D91C16"/>
<path fill-rule="evenodd" clip-rule="evenodd" d="M117.173 19.8486H102.993V22.5586H117.173V19.8486ZM116.704 20.3174V22.0898H103.462V20.3174H116.704Z" fill="black"/>
<path d="M118.696 15.791V20.083H102.246V15.791H104.78V17.9736H107.842V15.791H112.515V17.9736H115.576V15.791H118.696Z" fill="#D91C16"/>
<path fill-rule="evenodd" clip-rule="evenodd" d="M118.931 15.5566H115.342V17.7393H112.749V15.5566H107.607V17.7393H105.015V15.5566H102.012V20.3174H118.931V15.5566ZM118.462 16.0254V19.8486H102.48V16.0254H104.546V18.208H108.076V16.0254H112.28V18.208H115.811V16.0254H118.462Z" fill="black"/>
<path fill-rule="evenodd" clip-rule="evenodd" d="M124.88 74.5614H101.953V75.0302H124.88V74.5614Z" fill="black"/>
<path d="M87.6562 73.5059H102.861L107.446 75.7178V79.0137H87.6562" fill="#D91C16"/>
<path fill-rule="evenodd" clip-rule="evenodd" d="M102.915 73.2715H87.4219V73.7402H102.808L107.212 75.8649V78.7793H87.4219V79.248H107.681V75.5706L102.915 73.2715Z" fill="black"/>
<path fill-rule="evenodd" clip-rule="evenodd" d="M87.1876 75.9465H107.451V75.4778H87.1876V75.9465Z" fill="black"/>
<path d="M98.108 70.3271C96.8638 70.7412 95.7392 71.4376 94.6069 72.0863C93.1536 72.9449 91.7444 73.8803 90.433 74.9451C89.9714 75.2494 89.5286 75.5829 89.1724 76.0107C88.6916 76.4221 88.2045 76.9739 88.2964 77.6574C88.3207 77.9589 88.7059 77.3034 88.9592 77.2717C89.401 77.0181 89.936 76.9363 90.4321 77.0508C91.028 76.4233 91.7962 76.0028 92.4594 75.4542C93.8679 74.4031 95.3828 73.5005 96.9243 72.66C97.4624 72.3842 98.0029 72.1042 98.5767 71.9092C98.4204 71.3818 98.2642 70.8545 98.108 70.3271Z" fill="#FDD406"/>
<path fill-rule="evenodd" clip-rule="evenodd" d="M98.2271 70.0975L98.7978 72.0238L98.634 72.0795C98.0895 72.2647 97.574 72.5289 97.0476 72.7987C97.0344 72.8055 97.0211 72.8123 97.0079 72.8191C95.472 73.6566 93.9673 74.5534 92.5701 75.5957C92.3128 75.8082 92.0387 76.003 91.771 76.1933C91.6883 76.2521 91.6061 76.3105 91.5253 76.3688C91.1777 76.6196 90.848 76.8736 90.5621 77.1746L90.4913 77.2492L90.3911 77.2261C89.9398 77.122 89.4512 77.1964 89.0483 77.4277L89.0169 77.4457L88.981 77.4502C88.9813 77.4502 88.9813 77.4502 88.981 77.4502C88.9796 77.4506 88.9695 77.4533 88.9493 77.465C88.9269 77.4782 88.8998 77.498 88.8681 77.5249C88.816 77.5691 88.764 77.6213 88.7094 77.676C88.6959 77.6896 88.6821 77.7033 88.6682 77.7172C88.6351 77.7501 88.6002 77.7839 88.5668 77.8127C88.5357 77.8394 88.4942 77.8721 88.4478 77.8929C88.4049 77.9122 88.301 77.9446 88.2073 77.8683C88.135 77.8095 88.121 77.723 88.1168 77.6769C88.0147 76.899 88.5657 76.2944 89.0433 75.8838C89.4126 75.4438 89.8659 75.1033 90.3258 74.7997C91.6441 73.7301 93.0588 72.7914 94.5148 71.9312L94.5169 71.93C94.6621 71.8468 94.8078 71.7625 94.9539 71.6779C95.9385 71.1078 96.9484 70.5231 98.0506 70.1563L98.2271 70.0975ZM94.6969 72.2418C93.2492 73.0971 91.8481 74.0274 90.5458 75.0848L90.5389 75.0904L90.5315 75.0953C90.0749 75.3963 89.6495 75.7183 89.3102 76.1258L89.3004 76.1376L89.2889 76.1475C88.8716 76.5044 88.506 76.9238 88.4679 77.4082C88.519 77.3571 88.5774 77.2995 88.6352 77.2504C88.6995 77.1959 88.7911 77.1264 88.8953 77.1006C89.3408 76.8531 89.8694 76.7641 90.3711 76.8546C90.6636 76.5601 90.9895 76.3115 91.3146 76.0769C91.4002 76.0151 91.4854 75.9545 91.57 75.8944C91.8366 75.7049 92.097 75.5198 92.3441 75.3154L92.3476 75.3125L92.3512 75.3098C93.7693 74.2516 95.2925 73.3444 96.8375 72.5019L96.8396 72.5008L96.8416 72.4998C96.8585 72.4911 96.8754 72.4824 96.8924 72.4738C97.3621 72.2329 97.8454 71.9851 98.355 71.7966L97.9883 70.5586C96.9917 70.9147 96.0697 71.4482 95.137 71.988C94.9907 72.0727 94.8441 72.1575 94.6969 72.2418ZM88.4767 77.6531C88.4766 77.6532 88.4762 77.6517 88.4758 77.6482C88.4766 77.6512 88.4768 77.653 88.4767 77.6531Z" fill="black"/>
<path fill-rule="evenodd" clip-rule="evenodd" d="M92.0625 73.5428C92.1919 73.5428 92.2969 73.6478 92.2969 73.7772V75.6109C92.2969 75.7404 92.1919 75.8453 92.0625 75.8453C91.9331 75.8453 91.8281 75.7404 91.8281 75.6109V73.7772C91.8281 73.6478 91.9331 73.5428 92.0625 73.5428Z" fill="black"/>
<path fill-rule="evenodd" clip-rule="evenodd" d="M93.1953 72.7433C93.3248 72.7433 93.4297 72.8482 93.4297 72.9777V74.7977C93.4297 74.9271 93.3248 75.0321 93.1953 75.0321C93.0659 75.0321 92.9609 74.9271 92.9609 74.7977V72.9777C92.9609 72.8482 93.0659 72.7433 93.1953 72.7433Z" fill="black"/>
<path fill-rule="evenodd" clip-rule="evenodd" d="M94.3281 72.0375C94.4576 72.0375 94.5625 72.1424 94.5625 72.2719V74.0803C94.5625 74.2098 94.4576 74.3147 94.3281 74.3147C94.1987 74.3147 94.0938 74.2098 94.0938 74.0803V72.2719C94.0938 72.1424 94.1987 72.0375 94.3281 72.0375Z" fill="black"/>
<path fill-rule="evenodd" clip-rule="evenodd" d="M95.4609 71.3408C95.5904 71.3408 95.6953 71.4458 95.6953 71.5752V73.4414C95.6953 73.5709 95.5904 73.6758 95.4609 73.6758C95.3315 73.6758 95.2266 73.5709 95.2266 73.4414V71.5752C95.2266 71.4458 95.3315 71.3408 95.4609 71.3408Z" fill="black"/>
<path d="M81.9805 70.3857C81.7949 70.9033 81.6094 71.4209 81.4238 71.9385C84.0193 72.923 86.4905 74.2254 88.829 75.7168C89.6215 76.2562 90.4543 76.7791 91.0771 77.5195C91.2143 77.8997 90.8362 78.2175 90.4611 78.1027C90.1179 77.9861 89.7798 77.8534 89.4176 78.1008C88.899 78.3366 88.4304 79.1047 89.218 79.3623C90.3033 80.0911 92.0687 79.7744 92.5904 78.4973C92.863 77.8404 92.8805 76.9995 92.3525 76.4608C91.3857 75.3527 90.1038 74.582 88.8737 73.8021C86.6757 72.4801 84.3864 71.283 81.9805 70.3857Z" fill="#FDD406"/>
<path fill-rule="evenodd" clip-rule="evenodd" d="M81.8721 70.1533L82.043 70.217C84.4626 71.1194 86.7622 72.3223 88.9661 73.6478L88.9679 73.6489L88.9697 73.65C89.06 73.7073 89.1508 73.7646 89.2419 73.8221C90.3821 74.542 91.57 75.292 92.4844 76.3386C93.0799 76.9502 93.0422 77.8768 92.7564 78.5658C92.4688 79.2693 91.8419 79.6995 91.1555 79.8573C90.4785 80.0131 89.7235 79.9094 89.1377 79.5252C88.9241 79.4507 88.7681 79.3332 88.6842 79.1732C88.5969 79.0069 88.6041 78.8265 88.6566 78.667C88.7568 78.3626 89.0366 78.081 89.3285 77.9434C89.7468 77.6662 90.1487 77.8047 90.4627 77.913C90.4807 77.9192 90.4984 77.9253 90.5158 77.9312C90.6408 77.9686 90.7623 77.9336 90.84 77.8633C90.9085 77.8012 90.9434 77.7125 90.9161 77.6083C90.3811 76.9823 89.6906 76.5162 88.9861 76.0407C88.9007 75.983 88.8151 75.9252 88.7296 75.867C86.4 74.3815 83.9405 73.0858 81.3596 72.1067L81.1943 72.044L81.8721 70.1533ZM82.0878 70.6185L81.6523 71.8332C84.2011 72.8152 86.6282 74.0999 88.9254 75.5649L88.9277 75.5664L88.9299 75.5679C89.0153 75.626 89.1015 75.6841 89.1883 75.7427C89.8975 76.2209 90.6418 76.7228 91.2145 77.4036L91.2351 77.4282L91.246 77.4584C91.3413 77.7224 91.2557 77.9723 91.0817 78.13C90.9113 78.2845 90.6573 78.351 90.408 78.2747L90.4054 78.2739L90.4028 78.273C90.3955 78.2706 90.3883 78.2681 90.3811 78.2656C90.0309 78.1466 89.7894 78.0645 89.5187 78.2494L89.5058 78.2581L89.4917 78.2646C89.27 78.3654 89.0637 78.5815 88.9985 78.7796C88.9675 78.8738 88.9728 78.9484 89.0029 79.0059C89.0333 79.0638 89.1057 79.1362 89.2735 79.1911L89.2972 79.1989L89.3179 79.2128C89.8146 79.5463 90.4753 79.6444 91.0748 79.5065C91.6727 79.369 92.1892 79.0025 92.4234 78.4292L92.4238 78.4283C92.6824 77.805 92.68 77.0525 92.2236 76.5867L92.2199 76.583L92.2165 76.5791C91.3379 75.5721 90.1919 74.8482 89.0412 74.1213C88.9537 74.066 88.8662 74.0107 88.7787 73.9552C86.6392 72.6686 84.4171 71.503 82.0878 70.6185Z" fill="black"/>
<path d="M89.0859 74.0791L88.9395 75.6445L89.0859 74.0791Z" fill="#FDD406"/>
<path fill-rule="evenodd" clip-rule="evenodd" d="M89.1077 73.8458C89.2366 73.8578 89.3313 73.9721 89.3193 74.1009L89.1728 75.6663C89.1608 75.7952 89.0465 75.8899 88.9176 75.8779C88.7888 75.8658 88.6941 75.7515 88.7061 75.6227L88.8525 74.0573C88.8646 73.9284 88.9788 73.8337 89.1077 73.8458Z" fill="black"/>
<path d="M90.3894 74.8778L89.9854 76.4105L90.3894 74.8778Z" fill="#FDD406"/>
<path fill-rule="evenodd" clip-rule="evenodd" d="M90.4492 74.6511C90.5744 74.6841 90.6491 74.8123 90.6161 74.9375L90.212 76.4702C90.179 76.5953 90.0508 76.67 89.9257 76.637C89.8005 76.604 89.7258 76.4758 89.7588 76.3507L90.1628 74.818C90.1958 74.6928 90.3241 74.6181 90.4492 74.6511Z" fill="black"/>
<path d="M91.7835 75.943L90.9355 77.1324L91.7835 75.943Z" fill="#FDD406"/>
<path fill-rule="evenodd" clip-rule="evenodd" d="M91.9195 75.7522C92.0249 75.8273 92.0495 75.9737 91.9743 76.0791L91.1264 77.2684C91.0513 77.3738 90.9049 77.3984 90.7995 77.3232C90.6941 77.2481 90.6696 77.1017 90.7447 76.9963L91.5926 75.807C91.6678 75.7016 91.8141 75.677 91.9195 75.7522Z" fill="black"/>
<path d="M92.2098 78.8348L90.9863 78.1783L92.2098 78.8348Z" fill="#FDD406"/>
<path fill-rule="evenodd" clip-rule="evenodd" d="M90.7798 78.0675C90.841 77.9534 90.9831 77.9105 91.0972 77.9717L92.3207 78.6282C92.4347 78.6894 92.4776 78.8315 92.4164 78.9455C92.3552 79.0596 92.2131 79.1025 92.0991 79.0413L90.8756 78.3848C90.7615 78.3236 90.7186 78.1815 90.7798 78.0675Z" fill="black"/>
<path d="M92.5906 77.5449L91.1865 77.6764L92.5906 77.5449Z" fill="#FDD406"/>
<path fill-rule="evenodd" clip-rule="evenodd" d="M92.824 77.5231C92.8361 77.652 92.7414 77.7662 92.6125 77.7783L91.2084 77.9097C91.0795 77.9218 90.9653 77.8271 90.9532 77.6982C90.9411 77.5694 91.0358 77.4551 91.1647 77.443L92.5688 77.3116C92.6977 77.2995 92.8119 77.3942 92.824 77.5231Z" fill="black"/>
<path d="M90.7807 79.5772L90.6846 78.3433L90.7807 79.5772Z" fill="#FDD406"/>
<path fill-rule="evenodd" clip-rule="evenodd" d="M90.6664 78.1096C90.7954 78.0996 90.9082 78.196 90.9182 78.3251L91.0144 79.559C91.0244 79.688 90.928 79.8008 90.7989 79.8108C90.6699 79.8209 90.5571 79.7244 90.5471 79.5954L90.4509 78.3615C90.4409 78.2324 90.5373 78.1197 90.6664 78.1096Z" fill="black"/>
<path d="M90.2666 78.1667L89.1074 79.0209L90.2666 78.1667Z" fill="#FDD406"/>
<path fill-rule="evenodd" clip-rule="evenodd" d="M90.4553 78.0277C90.5321 78.1319 90.5099 78.2787 90.4057 78.3554L89.2465 79.2096C89.1423 79.2864 88.9955 79.2642 88.9188 79.16C88.842 79.0557 88.8642 78.909 88.9684 78.8322L90.1276 77.9781C90.2318 77.9013 90.3786 77.9235 90.4553 78.0277Z" fill="black"/>
<path fill-rule="evenodd" clip-rule="evenodd" d="M84.6924 71.4548C84.8218 71.4548 84.9268 71.5598 84.9268 71.6892V73.1494C84.9268 73.2788 84.8218 73.3838 84.6924 73.3838C84.5629 73.3838 84.458 73.2788 84.458 73.1494V71.6892C84.458 71.5598 84.5629 71.4548 84.6924 71.4548Z" fill="black"/>
<path fill-rule="evenodd" clip-rule="evenodd" d="M87.6387 73.005C87.7681 73.005 87.873 73.1099 87.873 73.2394V74.896C87.873 75.0255 87.7681 75.1304 87.6387 75.1304C87.5092 75.1304 87.4043 75.0255 87.4043 74.896V73.2394C87.4043 73.1099 87.5092 73.005 87.6387 73.005Z" fill="black"/>
<path fill-rule="evenodd" clip-rule="evenodd" d="M86.166 72.2312C86.2955 72.2312 86.4004 72.3361 86.4004 72.4656V74.0213C86.4004 74.1508 86.2955 74.2557 86.166 74.2557C86.0366 74.2557 85.9316 74.1508 85.9316 74.0213V72.4656C85.9316 72.3361 86.0366 72.2312 86.166 72.2312Z" fill="black"/>
<path d="M80.5225 106.67V110.435H82.8809V108.545H86.0889V110.435H88.623V106.67H80.5225ZM80.5225 111.855V115.635H88.623V111.855H86.0889V113.745H82.8809V111.855H80.5225Z" fill="#FDD406"/>
<path fill-rule="evenodd" clip-rule="evenodd" d="M80.2881 106.436H88.8574V110.669H85.8545V108.779H83.1152V110.669H80.2881V106.436ZM80.7568 106.904V110.2H82.6465V108.311H86.3232V110.2H88.3887V106.904H80.7568ZM80.2881 111.621H83.1152V113.511H85.8545V111.621H88.8574V115.869H80.2881V111.621ZM80.7568 112.09V115.4H88.3887V112.09H86.3232V113.979H82.6465V112.09H80.7568Z" fill="black"/>
<path d="M90.9573 90.7742H88.6182V118.016H90.9573V90.7742Z" fill="#FDD406"/>
<path fill-rule="evenodd" clip-rule="evenodd" d="M88.3838 90.5398H91.1917V118.25H88.3838V90.5398ZM88.8525 91.0085V117.781H90.723V91.0085H88.8525Z" fill="black"/>
<path d="M90.9573 93.1307H88.6182V116.597H90.9573V93.1307Z" fill="#FDD406"/>
<path fill-rule="evenodd" clip-rule="evenodd" d="M88.3838 92.8964H91.1917V116.831H88.3838V92.8964ZM88.8525 93.3651V116.362H90.723V93.3651H88.8525Z" fill="black"/>
<path d="M89.7871 84.0967L94.7676 86.9971L89.7871 89.8828L84.8066 86.9971L89.7871 84.0967ZM83.1221 85.957H81.8184V88.0371H83.1221L89.7871 91.9043L96.4521 88.0371H97.7559V85.957H96.4521L89.7871 82.0898L83.1221 85.957Z" fill="#FDD406"/>
<path fill-rule="evenodd" clip-rule="evenodd" d="M89.7879 81.8124L96.5175 85.717H97.9966V88.2771H96.5175L89.7879 92.1818L83.0582 88.2771H81.5791V85.717H83.0582L89.7879 81.8124ZM89.7879 82.3673L83.1874 86.197H82.0591V87.7971H83.1874L89.7879 91.6268L96.3883 87.7971H97.5166V86.197H96.3883L89.7879 82.3673ZM89.7879 83.819L95.2461 86.9976L89.7879 90.1602L84.3296 86.9976L89.7879 83.819ZM85.2852 86.9966L89.7879 89.6054L94.2905 86.9966L89.7879 84.3744L85.2852 86.9966Z" fill="black"/>
<path d="M89.6926 77.0067C88.5589 77.1657 87.7117 78.2865 87.7737 79.4134C87.7779 81.1654 87.765 82.9179 87.7803 84.6697C87.8404 85.7986 88.8267 86.8101 89.9714 86.8204C90.9019 86.9086 91.8366 86.3646 92.2269 85.5175C91.9583 85.3563 91.6897 85.1952 91.4212 85.0341C91.2132 85.589 90.6133 85.933 90.0296 85.869C89.2631 85.8906 88.6425 85.1453 88.7112 84.3999C88.7159 82.6592 88.7022 80.918 88.7181 79.1777C88.7602 78.4675 89.4375 77.8864 90.1468 77.9589C90.4405 77.8746 90.844 78.2763 91.0256 77.9297C91.2992 77.5409 90.8313 77.2372 90.5715 77.0215C90.2839 76.9821 89.9835 77.0178 89.6926 77.0067ZM92.4026 78.8378C92.2168 79.1874 91.8325 79.3952 91.5237 79.5786V83.1005C91.8362 83.2812 92.1487 83.4618 92.4612 83.6425C92.4575 82.1407 92.4684 80.6387 92.4557 79.1371C92.441 79.0446 92.452 78.9035 92.4026 78.8378Z" fill="#FDD406"/>
<path fill-rule="evenodd" clip-rule="evenodd" d="M90.1288 76.7636C90.2784 76.7609 90.4408 76.7614 90.6038 76.7838L90.6717 76.7931L90.7245 76.8369C90.7445 76.8535 90.7684 76.8725 90.7949 76.8936C90.9112 76.9861 91.0775 77.1185 91.1893 77.2654C91.2622 77.3612 91.3291 77.483 91.3449 77.6281C91.361 77.7751 91.3218 77.92 91.2302 78.0553C91.1542 78.1919 91.0392 78.2786 90.8958 78.3047C90.7689 78.3279 90.6456 78.2977 90.561 78.2732C90.5248 78.2626 90.4873 78.2504 90.4542 78.2396C90.4465 78.2371 90.439 78.2347 90.4319 78.2324C90.3913 78.2192 90.3566 78.2085 90.3243 78.2004C90.2559 78.1834 90.2253 78.186 90.2127 78.1896L90.1682 78.2024L90.1221 78.1977C89.5517 78.1393 88.9952 78.6138 88.9577 79.1863C88.9481 80.2561 88.9495 81.3245 88.951 82.3943C88.9519 83.0622 88.9528 83.7308 88.951 84.4006L88.9509 84.4113L88.95 84.422C88.8929 85.0407 89.4163 85.6462 90.0226 85.6291L90.0391 85.6287L90.0555 85.6305C90.5371 85.6832 91.0291 85.3957 91.1962 84.9499L91.2973 84.6801L92.5346 85.4224L92.4446 85.6179C92.0135 86.5537 90.9882 87.1533 89.9588 87.0603C88.6832 87.0429 87.6066 85.9259 87.5404 84.6825L87.5401 84.6771L87.5401 84.6718C87.5306 83.5811 87.532 82.4884 87.5333 81.3971C87.5342 80.7374 87.535 80.0781 87.5335 79.4201C87.4688 78.1811 88.3941 76.9465 89.6591 76.7691L89.6802 76.7661L89.7015 76.7669C89.805 76.7709 89.9079 76.7685 90.0193 76.7659C90.0548 76.7651 90.0912 76.7642 90.1288 76.7636ZM89.7058 77.2474C88.7151 77.3981 87.9578 78.3944 88.0131 79.4002L88.0134 79.4065L88.0134 79.4128C88.015 80.0768 88.0142 80.7396 88.0133 81.4019C88.0119 82.4891 88.0106 83.5749 88.02 84.6621C88.0766 85.6711 88.9656 86.5713 89.9734 86.5804L89.9836 86.5805L89.9938 86.5815C90.7505 86.6532 91.5161 86.2523 91.908 85.6062L91.5202 85.3735C91.208 85.8776 90.6072 86.1672 90.0196 86.1093C89.1049 86.1244 88.3981 85.2522 88.471 84.3891C88.4728 83.727 88.4719 83.0635 88.471 82.3994C88.4695 81.325 88.4681 80.2492 88.4778 79.1755L88.4779 79.1695L88.4782 79.1635C88.5276 78.3318 89.2992 77.6558 90.1299 77.7166C90.2463 77.695 90.3564 77.7138 90.4402 77.7346C90.4898 77.747 90.5379 77.7622 90.5797 77.7757C90.5889 77.7787 90.5978 77.7816 90.6063 77.7844C90.6388 77.7949 90.6668 77.8041 90.6949 77.8122C90.7588 77.8308 90.7902 77.8337 90.8038 77.8331C90.806 77.8301 90.809 77.8254 90.8127 77.8184L90.82 77.8044L90.829 77.7916C90.8681 77.736 90.8701 77.7016 90.8678 77.6801C90.8647 77.6522 90.8497 77.6117 90.8073 77.556C90.7357 77.4618 90.6339 77.3803 90.5216 77.2903C90.5059 77.2777 90.4899 77.2649 90.4737 77.2519C90.3684 77.2419 90.2575 77.2413 90.1373 77.2435C90.1059 77.244 90.0735 77.2448 90.0404 77.2456C89.9332 77.2481 89.8183 77.2508 89.7058 77.2474ZM92.3675 78.392L92.5942 78.6936C92.6641 78.7866 92.6759 78.9029 92.6808 78.9546C92.6832 78.98 92.6849 79.0071 92.6863 79.0288C92.6867 79.0345 92.687 79.0398 92.6874 79.0446C92.6892 79.0717 92.6907 79.0881 92.6925 79.0992L92.6953 79.117L92.6955 79.1351C92.7033 80.0614 92.7021 80.9896 92.701 81.9165C92.7002 82.4924 92.6995 83.0678 92.7009 83.6419L92.702 84.0591L91.2835 83.239V79.442L91.4009 79.3723C91.4244 79.3583 91.4478 79.3445 91.4712 79.3307C91.6078 79.2502 91.7413 79.1714 91.8649 79.0787C92.0077 78.9714 92.1203 78.8572 92.1904 78.7252L92.3675 78.392ZM92.2175 79.4124C92.223 80.2458 92.222 81.0782 92.221 81.9118C92.2204 82.3495 92.2199 82.7875 92.2203 83.2261L91.7635 82.962V79.7157C91.8868 79.6428 92.0248 79.5589 92.1531 79.4625C92.1746 79.4463 92.1961 79.4296 92.2175 79.4124Z" fill="black"/>
<path d="M96.6237 17.9771H82.876V42.9401H96.6237V17.9771Z" fill="black"/>
<path d="M81.9141 17.9883V38.877H86.2793V32.6807C86.2793 31.2515 87.1945 29.2676 90 29.2676C92.8055 29.2676 93.7207 31.2515 93.7207 32.6807V38.877H98.0859V17.9883H81.9141ZM89.3262 20.332H90.6738V27.4805H89.3262V20.332ZM85.459 21.7383H86.8213V26.9678H85.459V21.7383ZM93.1787 21.7383H94.541V26.9678H93.1787V21.7383Z" fill="#D91C16"/>
<path fill-rule="evenodd" clip-rule="evenodd" d="M81.6797 17.7539H98.3203V39.1113H93.4863V32.6807C93.4863 32.0111 93.271 31.2154 92.7346 30.5909C92.2043 29.9735 91.3419 29.502 90 29.502C88.6581 29.502 87.7957 29.9735 87.2654 30.5909C86.729 31.2154 86.5137 32.0111 86.5137 32.6807V39.1113H81.6797V17.7539ZM82.1484 18.2227V38.6426H86.0449V32.6807C86.0449 31.921 86.2872 31.0102 86.9098 30.2855C87.5385 29.5536 88.5364 29.0332 90 29.0332C91.4636 29.0332 92.4615 29.5536 93.0902 30.2855C93.7128 31.0102 93.9551 31.921 93.9551 32.6807V38.6426H97.8516V18.2227H82.1484ZM89.0918 20.0977H90.9082V27.7148H89.0918V20.0977ZM89.5605 20.5664V27.2461H90.4395V20.5664H89.5605ZM85.2246 21.5039H87.0557V27.2021H85.2246V21.5039ZM85.6934 21.9727V26.7334H86.5869V21.9727H85.6934ZM92.9443 21.5039H94.7754V27.2021H92.9443V21.5039ZM93.4131 21.9727V26.7334H94.3066V21.9727H93.4131Z" fill="black"/>
<path d="M80.4346 14.9854V17.959H99.5654V14.9854H80.4346Z" fill="#D91C16"/>
<path fill-rule="evenodd" clip-rule="evenodd" d="M80.2002 14.751H99.7998V18.1934H80.2002V14.751ZM80.6689 15.2197V17.7246H99.3311V15.2197H80.6689Z" fill="black"/>
<path d="M78.6328 11.5283V14.9854H101.367V11.5283H98.5107V13.4326H95.2881V11.5283H91.6113V13.4326H88.3887V11.5283H84.7119V13.4326H81.4893V11.5283H78.6328Z" fill="#D91C16"/>
<path fill-rule="evenodd" clip-rule="evenodd" d="M78.3984 11.2939H81.7236V13.1982H84.4775V11.2939H88.623V13.1982H91.377V11.2939H95.5225V13.1982H98.2764V11.2939H101.602V15.2197H78.3984V11.2939ZM78.8672 11.7627V14.751H101.133V11.7627H98.7451V13.667H95.0537V11.7627H91.8457V13.667H88.1543V11.7627H84.9463V13.667H81.2549V11.7627H78.8672Z" fill="black"/>
<path d="M74.4141 45.8643V48.0176H105.586V45.8643H74.4141Z" fill="#D91C16"/>
<path fill-rule="evenodd" clip-rule="evenodd" d="M74.1797 45.6299H105.82V48.252H74.1797V45.6299ZM74.6484 46.0986V47.7832H105.352V46.0986H74.6484Z" fill="black"/>
<path d="M73.1396 38.8623V45.8643H106.86V38.8623H103.667V41.5576H99.4189V38.8623H93.7207V41.5576H86.2793V38.8623H80.5811V41.5576H76.333V38.8623H73.1396Z" fill="#D91C16"/>
<path fill-rule="evenodd" clip-rule="evenodd" d="M72.9053 38.6279H76.5674V41.3232H80.3467V38.6279H86.5137V41.3232H93.4863V38.6279H99.6533V41.3232H103.433V38.6279H107.095V46.0986H72.9053V38.6279ZM73.374 39.0967V45.6299H106.626V39.0967H103.901V41.792H99.1846V39.0967H93.9551V41.792H86.0449V39.0967H80.8154V41.792H76.0986V39.0967H73.374Z" fill="black"/>
<path d="M77.1973 48.0176V73.4912H83.2178V63.9551C83.2178 59.4632 86.216 57.3486 90 57.3486C93.637 57.3486 96.7822 59.4632 96.7822 63.9551V73.4912H102.803V48.0176H77.1973Z" fill="#D91C16"/>
<path fill-rule="evenodd" clip-rule="evenodd" d="M76.9629 48.0176C76.9629 47.8881 77.0678 47.7832 77.1973 47.7832H102.803C102.932 47.7832 103.037 47.8881 103.037 48.0176V73.4912C103.037 73.6207 102.932 73.7256 102.803 73.7256H96.7822C96.6528 73.7256 96.5479 73.6207 96.5479 73.4912V63.9551C96.5479 61.768 95.7845 60.1838 94.6003 59.1435C93.4114 58.0991 91.7753 57.583 90 57.583C88.1495 57.583 86.5149 58.1 85.3459 59.1423C84.1811 60.1809 83.4521 61.7645 83.4521 63.9551V73.4912C83.4521 73.6207 83.3472 73.7256 83.2178 73.7256H77.1973C77.0678 73.7256 76.9629 73.6207 76.9629 73.4912V48.0176ZM77.4316 48.252V73.2568H82.9834V63.9551C82.9834 61.6537 83.7535 59.9341 85.0339 58.7925C86.31 57.6546 88.0665 57.1143 90 57.1143C91.8617 57.1143 93.6167 57.6555 94.9097 58.7913C96.2073 59.9313 97.0166 61.6502 97.0166 63.9551V73.2568H102.568V48.252H77.4316Z" fill="black"/>
</g>
<defs>
<clipPath id="clip0_504_376">
<rect width="180" height="120" fill="white"/>
</clipPath>
</defs>
</svg>
