<svg width="180" height="120" viewBox="0 0 180 120" fill="none" xmlns="http://www.w3.org/2000/svg">
<g clip-path="url(#clip0_909_305315)">
<path d="M180 0H0V120H180V0Z" fill="#D91C16"/>
<path d="M180 0H0V80.3906H180V0Z" fill="white"/>
<path d="M92.1427 54.5171H62.1427V75.1387H92.1427V54.5171Z" fill="black"/>
<path d="M77.7276 72.124H59.4141L55.3546 74.7958V77.6269H77.7276" fill="#D91C16"/>
<path fill-rule="evenodd" clip-rule="evenodd" d="M59.3439 71.8896H77.962V72.3584H59.4843L55.589 74.9221V77.3925H77.962V77.8613H55.1203V74.6695L59.3439 71.8896Z" fill="black"/>
<path d="M70.0635 60.2783C72.7001 60.2783 74.8535 62.4764 74.8535 65.1855V72.1143H78.2959V45.8643H59.4141V72.1143H65.2734V65.1855C65.2734 62.5822 67.3898 60.2783 70.0635 60.2783Z" fill="#D91C16"/>
<path fill-rule="evenodd" clip-rule="evenodd" d="M59.1797 45.6299H78.5303V72.3486H74.6191V65.1855C74.6191 62.6007 72.5656 60.5127 70.0635 60.5127C67.5287 60.5127 65.5078 62.702 65.5078 65.1855V72.3486H59.1797V45.6299ZM59.6484 46.0986V71.8799H65.0391V65.1855C65.0391 62.4624 67.2509 60.0439 70.0635 60.0439C72.8346 60.0439 75.0879 62.3521 75.0879 65.1855V71.8799H78.0615V46.0986H59.6484Z" fill="black"/>
<path d="M74.5554 28.1069H65.8726V44.0254H74.5554V28.1069Z" fill="black"/>
<path d="M74.5312 41.5576H66.9333V38.8623H61.3623V41.5576H57.583V38.8623H55.3271V43.7549H74.5312M57.583 43.7372H73.9754V45.8643H57.583V43.7372Z" fill="#D91C16"/>
<path fill-rule="evenodd" clip-rule="evenodd" d="M55.0928 38.6279H57.8174V41.3232H61.1279V38.6279H67.1677V41.3232H74.7656V41.792H66.6989V39.0967H61.5967V41.792H57.3486V39.0967H55.5615V43.5205H57.3486V43.5028H74.2097V43.5205H74.7656V43.9893H74.2097V46.0986H57.3486V43.9893H55.0928V38.6279ZM57.8174 43.9893V45.6299H73.741V43.9893H57.8174Z" fill="black"/>
<path d="M64.0869 22.3242V38.8623H66.9333V34.3213C66.9333 32.6201 68.1343 31.2278 69.8145 31.1426C69.8686 31.1398 69.9207 31.1426 69.9756 31.1426C71.7317 31.1426 73.1543 32.5652 73.1543 34.3213V38.8623H75.8643V22.3242H64.0869Z" fill="#D91C16"/>
<path fill-rule="evenodd" clip-rule="evenodd" d="M63.8525 22.0898H76.0986V39.0967H72.9199V34.3213C72.9199 32.6946 71.6023 31.377 69.9756 31.377C69.9474 31.377 69.9257 31.3765 69.9068 31.3762C69.8775 31.3756 69.8551 31.3752 69.8263 31.3767C68.284 31.4549 67.1677 32.7313 67.1677 34.3213V39.0967H63.8525V22.0898ZM64.3213 22.5586V38.6279H66.6989V34.3213C66.6989 32.5088 67.9846 31.0008 69.8026 30.9085C69.8466 30.9063 69.8973 30.9071 69.9364 30.9077C69.9516 30.908 69.965 30.9082 69.9756 30.9082C71.8611 30.9082 73.3887 32.4357 73.3887 34.3213V38.6279H75.6299V22.5586H64.3213Z" fill="black"/>
<path d="M63.0615 20.083V22.3242H76.7725V20.083H63.0615Z" fill="#D91C16"/>
<path fill-rule="evenodd" clip-rule="evenodd" d="M62.8271 19.8486H77.0068V22.5586H62.8271V19.8486ZM63.2959 20.3174V22.0898H76.5381V20.3174H63.2959Z" fill="black"/>
<path d="M61.3037 15.791V20.083H77.7539V15.791H75.2197V17.9736H72.1582V15.791H67.4854V17.9736H64.4238V15.791H61.3037Z" fill="#D91C16"/>
<path fill-rule="evenodd" clip-rule="evenodd" d="M61.0693 15.5566H64.6582V17.7393H67.251V15.5566H72.3926V17.7393H74.9854V15.5566H77.9883V20.3174H61.0693V15.5566ZM61.5381 16.0254V19.8486H77.5195V16.0254H75.4541V18.208H71.9238V16.0254H67.7197V18.208H64.1895V16.0254H61.5381Z" fill="black"/>
<path fill-rule="evenodd" clip-rule="evenodd" d="M55.1203 74.5615H78.0469V75.0303H55.1203V74.5615Z" fill="black"/>
<path d="M92.3438 73.5059H77.1387L72.5537 75.7178V79.0137H92.3438" fill="#D91C16"/>
<path fill-rule="evenodd" clip-rule="evenodd" d="M77.0851 73.2715H92.5781V73.7402H77.1923L72.7881 75.8649V78.7793H92.5781V79.248H72.3193V75.5706L77.0851 73.2715Z" fill="black"/>
<path fill-rule="evenodd" clip-rule="evenodd" d="M92.8125 75.9463H72.5489V75.4775H92.8125V75.9463Z" fill="black"/>
<path d="M87.8573 54.5171H117.857V75.1387H87.8573V54.5171Z" fill="black"/>
<path d="M102.272 72.124H120.586L124.645 74.7958V77.6269H102.272" fill="#D91C16"/>
<path fill-rule="evenodd" clip-rule="evenodd" d="M120.656 71.8896H102.038V72.3584H120.516L124.411 74.9221V77.3925H102.038V77.8613H124.88V74.6695L120.656 71.8896Z" fill="black"/>
<path d="M109.937 60.2783C107.3 60.2783 105.146 62.4764 105.146 65.1855V72.1143H101.704V45.8643H120.586V72.1143H114.727V65.1855C114.727 62.5822 112.61 60.2783 109.937 60.2783Z" fill="#D91C16"/>
<path fill-rule="evenodd" clip-rule="evenodd" d="M120.82 45.6299H101.47V72.3486H105.381V65.1855C105.381 62.6007 107.434 60.5127 109.937 60.5127C112.471 60.5127 114.492 62.702 114.492 65.1855V72.3486H120.82V45.6299ZM120.352 46.0986V71.8799H114.961V65.1855C114.961 62.4624 112.749 60.0439 109.937 60.0439C107.165 60.0439 104.912 62.3521 104.912 65.1855V71.8799H101.938V46.0986H120.352Z" fill="black"/>
<path d="M105.445 28.1069H114.127V44.0254H105.445V28.1069Z" fill="black"/>
<path d="M105.469 41.5576H113.067V38.8623H118.638V41.5576H122.417V38.8623H124.673V43.7549H105.469M122.417 43.7372H106.025V45.8643H122.417V43.7372Z" fill="#D91C16"/>
<path fill-rule="evenodd" clip-rule="evenodd" d="M124.907 38.6279H122.183V41.3232H118.872V38.6279H112.832V41.3232H105.234V41.792H113.301V39.0967H118.403V41.792H122.651V39.0967H124.438V43.5205H122.651V43.5028H105.79V43.5205H105.234V43.9893H105.79V46.0986H122.651V43.9893H124.907V38.6279ZM122.183 43.9893V45.6299H106.259V43.9893H122.183Z" fill="black"/>
<path d="M115.913 22.3242V38.8623H113.067V34.3213C113.067 32.6201 111.866 31.2278 110.186 31.1426C110.131 31.1398 110.079 31.1426 110.024 31.1426C108.268 31.1426 106.846 32.5652 106.846 34.3213V38.8623H104.136V22.3242H115.913Z" fill="#D91C16"/>
<path fill-rule="evenodd" clip-rule="evenodd" d="M116.147 22.0898H103.901V39.0967H107.08V34.3213C107.08 32.6946 108.398 31.377 110.024 31.377C110.053 31.377 110.074 31.3765 110.093 31.3762C110.123 31.3756 110.145 31.3752 110.174 31.3767C111.716 31.4549 112.832 32.7313 112.832 34.3213V39.0967H116.147V22.0898ZM115.679 22.5586V38.6279H113.301V34.3213C113.301 32.5088 112.015 31.0008 110.197 30.9085C110.153 30.9063 110.103 30.9071 110.064 30.9077C110.048 30.908 110.035 30.9082 110.024 30.9082C108.139 30.9082 106.611 32.4357 106.611 34.3213V38.6279H104.37V22.5586H115.679Z" fill="black"/>
<path d="M116.938 20.083V22.3242H103.228V20.083H116.938Z" fill="#D91C16"/>
<path fill-rule="evenodd" clip-rule="evenodd" d="M117.173 19.8486H102.993V22.5586H117.173V19.8486ZM116.704 20.3174V22.0898H103.462V20.3174H116.704Z" fill="black"/>
<path d="M118.696 15.791V20.083H102.246V15.791H104.78V17.9736H107.842V15.791H112.515V17.9736H115.576V15.791H118.696Z" fill="#D91C16"/>
<path fill-rule="evenodd" clip-rule="evenodd" d="M118.931 15.5566H115.342V17.7393H112.749V15.5566H107.607V17.7393H105.015V15.5566H102.012V20.3174H118.931V15.5566ZM118.462 16.0254V19.8486H102.48V16.0254H104.546V18.208H108.076V16.0254H112.28V18.208H115.811V16.0254H118.462Z" fill="black"/>
<path fill-rule="evenodd" clip-rule="evenodd" d="M124.88 74.5615H101.953V75.0303H124.88V74.5615Z" fill="black"/>
<path d="M87.6562 73.5059H102.861L107.446 75.7178V79.0137H87.6562" fill="#D91C16"/>
<path fill-rule="evenodd" clip-rule="evenodd" d="M102.915 73.2715H87.4219V73.7402H102.808L107.212 75.8649V78.7793H87.4219V79.248H107.681V75.5706L102.915 73.2715Z" fill="black"/>
<path fill-rule="evenodd" clip-rule="evenodd" d="M87.1875 75.9463H107.451V75.4775H87.1875V75.9463Z" fill="black"/>
<path d="M98.1079 70.3271C96.8638 70.7412 95.7392 71.4376 94.6069 72.0863C93.1536 72.9449 91.7443 73.8803 90.4329 74.9451C89.9714 75.2494 89.5286 75.5829 89.1724 76.0107C88.6915 76.4221 88.2045 76.9739 88.2964 77.6574C88.3207 77.9589 88.7059 77.3034 88.9592 77.2717C89.4009 77.0181 89.936 76.9363 90.4321 77.0508C91.028 76.4233 91.7961 76.0028 92.4594 75.4542C93.8678 74.4031 95.3828 73.5005 96.9242 72.66C97.4624 72.3842 98.0029 72.1042 98.5766 71.9092C98.4204 71.3818 98.2642 70.8545 98.1079 70.3271Z" fill="#FDD406"/>
<path fill-rule="evenodd" clip-rule="evenodd" d="M98.2277 70.0977L98.7984 72.0239L98.6346 72.0796C98.09 72.2648 97.5745 72.529 97.0482 72.7988C97.0349 72.8056 97.0217 72.8124 97.0084 72.8192C95.4726 73.6568 93.9678 74.5535 92.5706 75.5958C92.3134 75.8083 92.0393 76.0031 91.7716 76.1934C91.6888 76.2522 91.6067 76.3106 91.5258 76.3689C91.1783 76.6197 90.8485 76.8737 90.5626 77.1748L90.4918 77.2493L90.3916 77.2262C89.9404 77.1221 89.4517 77.1966 89.0488 77.4278L89.0175 77.4458L88.9816 77.4503C88.9818 77.4503 88.9818 77.4503 88.9816 77.4503C88.9801 77.4507 88.97 77.4534 88.9499 77.4652C88.9274 77.4783 88.9004 77.4981 88.8687 77.525C88.8166 77.5693 88.7646 77.6214 88.71 77.6761C88.6964 77.6897 88.6827 77.7034 88.6688 77.7173C88.6356 77.7502 88.6008 77.784 88.5673 77.8128C88.5363 77.8395 88.4947 77.8722 88.4484 77.8931C88.4055 77.9123 88.3015 77.9447 88.2078 77.8684C88.1356 77.8096 88.1215 77.7231 88.1174 77.677C88.0152 76.8992 88.5663 76.2946 89.0439 75.8839C89.4132 75.4439 89.8665 75.1035 90.3264 74.7998C91.6446 73.7302 93.0594 72.7915 94.5154 71.9314L94.5174 71.9301C94.6627 71.8469 94.8083 71.7626 94.9545 71.678C95.9391 71.1079 96.949 70.5232 98.0511 70.1564L98.2277 70.0977ZM94.6974 72.2419C93.2497 73.0972 91.8487 74.0275 90.5464 75.0849L90.5395 75.0905L90.532 75.0955C90.0755 75.3964 89.65 75.7184 89.3107 76.126L89.301 76.1377L89.2894 76.1476C88.8722 76.5045 88.5066 76.924 88.4685 77.4084C88.5196 77.3572 88.578 77.2996 88.6357 77.2506C88.7 77.196 88.7917 77.1265 88.8959 77.1008C89.3413 76.8533 89.8699 76.7642 90.3717 76.8547C90.6641 76.5603 90.9901 76.3116 91.3152 76.077C91.4007 76.0152 91.486 75.9547 91.5705 75.8945C91.8371 75.7051 92.0976 75.5199 92.3447 75.3155L92.3481 75.3126L92.3518 75.31C93.7698 74.2517 95.2931 73.3445 96.8381 72.502L96.8401 72.5009L96.8422 72.4999C96.8591 72.4912 96.876 72.4826 96.8929 72.4739C97.3627 72.233 97.846 71.9852 98.3556 71.7967L97.9888 70.5587C96.9923 70.9148 96.0703 71.4483 95.1376 71.9881C94.9912 72.0728 94.8446 72.1576 94.6974 72.2419ZM88.4773 77.6532C88.4772 77.6534 88.4768 77.6519 88.4763 77.6483C88.4771 77.6513 88.4774 77.6531 88.4773 77.6532Z" fill="black"/>
<path fill-rule="evenodd" clip-rule="evenodd" d="M92.0627 73.543C92.1921 73.543 92.2971 73.6479 92.2971 73.7773V75.6111C92.2971 75.7405 92.1921 75.8454 92.0627 75.8454C91.9332 75.8454 91.8283 75.7405 91.8283 75.6111V73.7773C91.8283 73.6479 91.9332 73.543 92.0627 73.543Z" fill="black"/>
<path fill-rule="evenodd" clip-rule="evenodd" d="M93.1954 72.7432C93.3249 72.7432 93.4298 72.8481 93.4298 72.9775V74.7976C93.4298 74.927 93.3249 75.032 93.1954 75.032C93.066 75.032 92.9611 74.927 92.9611 74.7976V72.9775C92.9611 72.8481 93.066 72.7432 93.1954 72.7432Z" fill="black"/>
<path fill-rule="evenodd" clip-rule="evenodd" d="M94.3282 72.0376C94.4576 72.0376 94.5625 72.1425 94.5625 72.272V74.0805C94.5625 74.2099 94.4576 74.3148 94.3282 74.3148C94.1987 74.3148 94.0938 74.2099 94.0938 74.0805V72.272C94.0938 72.1425 94.1987 72.0376 94.3282 72.0376Z" fill="black"/>
<path fill-rule="evenodd" clip-rule="evenodd" d="M95.4609 71.3408C95.5903 71.3408 95.6953 71.4458 95.6953 71.5752V73.4414C95.6953 73.5709 95.5903 73.6758 95.4609 73.6758C95.3314 73.6758 95.2265 73.5709 95.2265 73.4414V71.5752C95.2265 71.4458 95.3314 71.3408 95.4609 71.3408Z" fill="black"/>
<path d="M81.9801 70.3857C81.7946 70.9033 81.609 71.4209 81.4235 71.9385C84.019 72.923 86.4902 74.2254 88.8287 75.7168C89.6212 76.2562 90.454 76.7791 91.0768 77.5195C91.214 77.8997 90.8359 78.2175 90.4608 78.1027C90.1176 77.9861 89.7795 77.8534 89.4172 78.1008C88.8986 78.3366 88.43 79.1047 89.2177 79.3623C90.3029 80.0911 92.0684 79.7744 92.5901 78.4973C92.8627 77.8404 92.8801 76.9995 92.3522 76.4608C91.3853 75.3527 90.1035 74.582 88.8734 73.8021C86.6753 72.4801 84.3861 71.283 81.9801 70.3857Z" fill="#FDD406"/>
<path fill-rule="evenodd" clip-rule="evenodd" d="M81.8722 70.1533L82.043 70.217C84.4627 71.1194 86.7623 72.3223 88.9662 73.6478L88.968 73.6489L88.9698 73.65C89.0601 73.7073 89.1509 73.7646 89.2419 73.8221C90.3822 74.542 91.5701 75.292 92.4845 76.3386C93.08 76.9502 93.0423 77.8768 92.7565 78.5658C92.4689 79.2693 91.842 79.6995 91.1556 79.8573C90.4785 80.0131 89.7236 79.9094 89.1377 79.5252C88.9241 79.4507 88.7682 79.3332 88.6843 79.1732C88.597 79.0069 88.6042 78.8265 88.6567 78.667C88.7569 78.3626 89.0367 78.081 89.3286 77.9434C89.7469 77.6662 90.1488 77.8047 90.4628 77.913C90.4808 77.9192 90.4985 77.9253 90.5159 77.9312C90.6409 77.9686 90.7624 77.9336 90.8401 77.8633C90.9085 77.8012 90.9435 77.7125 90.9162 77.6083C90.3812 76.9823 89.6906 76.5162 88.9862 76.0407C88.9008 75.983 88.8152 75.9252 88.7297 75.867C86.4001 74.3815 83.9406 73.0858 81.3597 72.1067L81.1944 72.044L81.8722 70.1533ZM82.0879 70.6185L81.6524 71.8332C84.2012 72.8152 86.6282 74.0999 88.9255 75.5649L88.9278 75.5664L88.93 75.5679C89.0153 75.626 89.1016 75.6841 89.1884 75.7427C89.8976 76.2209 90.6419 76.7228 91.2146 77.4036L91.2352 77.4282L91.2461 77.4584C91.3414 77.7224 91.2558 77.9723 91.0818 78.13C90.9114 78.2845 90.6574 78.351 90.4081 78.2747L90.4055 78.2739L90.4029 78.273C90.3956 78.2706 90.3884 78.2681 90.3812 78.2656C90.031 78.1466 89.7895 78.0645 89.5187 78.2494L89.5059 78.2581L89.4918 78.2646C89.2701 78.3654 89.0638 78.5815 88.9986 78.7796C88.9676 78.8738 88.9729 78.9484 89.003 79.0059C89.0334 79.0638 89.1057 79.1362 89.2736 79.1911L89.2973 79.1989L89.318 79.2128C89.8147 79.5463 90.4754 79.6444 91.0749 79.5065C91.6728 79.369 92.1893 79.0025 92.4235 78.4292L92.4239 78.4283C92.6824 77.805 92.6801 77.0525 92.2236 76.5867L92.22 76.583L92.2166 76.5791C91.338 75.5721 90.192 74.8482 89.0413 74.1213C88.9538 74.066 88.8663 74.0107 88.7788 73.9552C86.6393 72.6686 84.4172 71.503 82.0879 70.6185Z" fill="black"/>
<path d="M89.0858 74.0791L88.9394 75.6445L89.0858 74.0791Z" fill="#FDD406"/>
<path fill-rule="evenodd" clip-rule="evenodd" d="M89.1077 73.8458C89.2366 73.8578 89.3313 73.9721 89.3192 74.1009L89.1728 75.6663C89.1607 75.7952 89.0465 75.8899 88.9176 75.8779C88.7887 75.8658 88.694 75.7515 88.7061 75.6227L88.8525 74.0573C88.8646 73.9284 88.9788 73.8337 89.1077 73.8458Z" fill="black"/>
<path d="M90.3899 74.8779L89.9859 76.4106L90.3899 74.8779Z" fill="#FDD406"/>
<path fill-rule="evenodd" clip-rule="evenodd" d="M90.4497 74.6514C90.5749 74.6844 90.6496 74.8126 90.6166 74.9377L90.2125 76.4704C90.1795 76.5956 90.0513 76.6703 89.9261 76.6373C89.801 76.6043 89.7263 76.4761 89.7593 76.3509L90.1633 74.8182C90.1963 74.6931 90.3245 74.6184 90.4497 74.6514Z" fill="black"/>
<path d="M91.7833 75.9429L90.9354 77.1322L91.7833 75.9429Z" fill="#FDD406"/>
<path fill-rule="evenodd" clip-rule="evenodd" d="M91.9194 75.752C92.0248 75.8272 92.0493 75.9735 91.9741 76.0789L91.1262 77.2683C91.0511 77.3737 90.9047 77.3982 90.7993 77.3231C90.6939 77.248 90.6694 77.1016 90.7445 76.9962L91.5925 75.8068C91.6676 75.7014 91.814 75.6769 91.9194 75.752Z" fill="black"/>
<path d="M92.2103 78.8347L90.9868 78.1782L92.2103 78.8347Z" fill="#FDD406"/>
<path fill-rule="evenodd" clip-rule="evenodd" d="M90.7802 78.0675C90.8414 77.9534 90.9835 77.9105 91.0976 77.9717L92.3211 78.6282C92.4351 78.6894 92.478 78.8315 92.4168 78.9455C92.3556 79.0596 92.2135 79.1025 92.0995 79.0413L90.876 78.3848C90.7619 78.3236 90.719 78.1815 90.7802 78.0675Z" fill="black"/>
<path d="M92.5912 77.5449L91.1871 77.6764L92.5912 77.5449Z" fill="#FDD406"/>
<path fill-rule="evenodd" clip-rule="evenodd" d="M92.8245 77.5231C92.8366 77.652 92.7419 77.7662 92.613 77.7783L91.2089 77.9097C91.0801 77.9218 90.9658 77.8271 90.9537 77.6982C90.9417 77.5694 91.0364 77.4551 91.1652 77.443L92.5693 77.3116C92.6982 77.2995 92.8125 77.3942 92.8245 77.5231Z" fill="black"/>
<path d="M90.7804 79.5772L90.6843 78.3433L90.7804 79.5772Z" fill="#FDD406"/>
<path fill-rule="evenodd" clip-rule="evenodd" d="M90.6661 78.1096C90.7952 78.0996 90.9079 78.196 90.918 78.3251L91.0141 79.559C91.0242 79.688 90.9277 79.8008 90.7987 79.8108C90.6696 79.8209 90.5568 79.7244 90.5468 79.5954L90.4506 78.3615C90.4406 78.2324 90.537 78.1197 90.6661 78.1096Z" fill="black"/>
<path d="M90.2663 78.167L89.1071 79.0212L90.2663 78.167Z" fill="#FDD406"/>
<path fill-rule="evenodd" clip-rule="evenodd" d="M90.455 78.028C90.5318 78.1322 90.5095 78.2789 90.4053 78.3557L89.2461 79.2099C89.1419 79.2866 88.9952 79.2644 88.9184 79.1602C88.8416 79.056 88.8638 78.9093 88.968 78.8325L90.1273 77.9783C90.2315 77.9015 90.3782 77.9238 90.455 78.028Z" fill="black"/>
<path fill-rule="evenodd" clip-rule="evenodd" d="M84.6922 71.4551C84.8216 71.4551 84.9266 71.56 84.9266 71.6895V73.1496C84.9266 73.2791 84.8216 73.384 84.6922 73.384C84.5628 73.384 84.4578 73.2791 84.4578 73.1496V71.6895C84.4578 71.56 84.5628 71.4551 84.6922 71.4551Z" fill="black"/>
<path fill-rule="evenodd" clip-rule="evenodd" d="M87.6391 73.0049C87.7685 73.0049 87.8734 73.1098 87.8734 73.2393V74.8959C87.8734 75.0253 87.7685 75.1303 87.6391 75.1303C87.5096 75.1303 87.4047 75.0253 87.4047 74.8959V73.2393C87.4047 73.1098 87.5096 73.0049 87.6391 73.0049Z" fill="black"/>
<path fill-rule="evenodd" clip-rule="evenodd" d="M86.1656 72.2314C86.2951 72.2314 86.4 72.3364 86.4 72.4658V74.0216C86.4 74.151 86.2951 74.2559 86.1656 74.2559C86.0362 74.2559 85.9312 74.151 85.9312 74.0216V72.4658C85.9312 72.3364 86.0362 72.2314 86.1656 72.2314Z" fill="black"/>
<path d="M80.5225 106.67V110.435H82.8809V108.545H86.0889V110.435H88.623V106.67H80.5225ZM80.5225 111.855V115.635H88.623V111.855H86.0889V113.745H82.8809V111.855H80.5225Z" fill="#FDD406"/>
<path fill-rule="evenodd" clip-rule="evenodd" d="M80.2881 106.436H88.8574V110.669H85.8545V108.779H83.1152V110.669H80.2881V106.436ZM80.7568 106.904V110.2H82.6465V108.311H86.3232V110.2H88.3887V106.904H80.7568ZM80.2881 111.621H83.1152V113.511H85.8545V111.621H88.8574V115.869H80.2881V111.621ZM80.7568 112.09V115.4H88.3887V112.09H86.3232V113.979H82.6465V112.09H80.7568Z" fill="black"/>
<path d="M90.9572 90.7744H88.6181V118.016H90.9572V90.7744Z" fill="#FDD406"/>
<path fill-rule="evenodd" clip-rule="evenodd" d="M88.3837 90.54H91.1916V118.25H88.3837V90.54ZM88.8524 91.0088V117.781H90.7229V91.0088H88.8524Z" fill="black"/>
<path d="M90.9572 93.1309H88.6181V116.597H90.9572V93.1309Z" fill="#FDD406"/>
<path fill-rule="evenodd" clip-rule="evenodd" d="M88.3837 92.8965H91.1916V116.831H88.3837V92.8965ZM88.8524 93.3652V116.362H90.7229V93.3652H88.8524Z" fill="black"/>
<path d="M89.7876 84.0967L94.7681 86.9971L89.7876 89.8828L84.8071 86.9971L89.7876 84.0967ZM83.1226 85.957H81.8188V88.0371H83.1226L89.7876 91.9043L96.4526 88.0371H97.7563V85.957H96.4526L89.7876 82.0898L83.1226 85.957Z" fill="#FDD406"/>
<path fill-rule="evenodd" clip-rule="evenodd" d="M89.7876 81.8125L96.5172 85.7172H97.9964V88.2772H96.5172L89.7876 92.1819L83.058 88.2772H81.5789V85.7172H83.058L89.7876 81.8125ZM89.7876 82.3674L83.1872 86.1972H82.0589V87.7972H83.1872L89.7876 91.627L96.3881 87.7972H97.5164V86.1972H96.3881L89.7876 82.3674ZM89.7876 83.8191L95.2459 86.9977L89.7876 90.1603L84.3293 86.9977L89.7876 83.8191ZM85.285 86.9967L89.7876 89.6056L94.2903 86.9967L89.7876 84.3745L85.285 86.9967Z" fill="black"/>
<path d="M89.6925 77.0067C88.5587 77.1657 87.7116 78.2865 87.7735 79.4134C87.7778 81.1654 87.7649 82.9179 87.7802 84.6697C87.8403 85.7986 88.8265 86.8101 89.9713 86.8204C90.9017 86.9086 91.8364 86.3646 92.2267 85.5175C91.9581 85.3563 91.6896 85.1952 91.421 85.0341C91.213 85.589 90.6132 85.933 90.0294 85.869C89.263 85.8906 88.6423 85.1453 88.7111 84.3999C88.7158 82.6592 88.7021 80.918 88.7179 79.1777C88.7601 78.4675 89.4374 77.8864 90.1466 77.9589C90.4403 77.8746 90.8439 78.2763 91.0254 77.9297C91.2991 77.5409 90.8311 77.2372 90.5713 77.0215C90.2837 76.9821 89.9834 77.0178 89.6925 77.0067ZM92.4025 78.8378C92.2167 79.1874 91.8323 79.3952 91.5235 79.5786V83.1005C91.836 83.2812 92.1485 83.4618 92.461 83.6425C92.4573 82.1407 92.4682 80.6387 92.4556 79.1371C92.4408 79.0446 92.4518 78.9035 92.4025 78.8378Z" fill="#FDD406"/>
<path fill-rule="evenodd" clip-rule="evenodd" d="M90.1289 76.7638C90.2785 76.7611 90.4408 76.7617 90.6039 76.784L90.6718 76.7933L90.7246 76.8371C90.7446 76.8537 90.7685 76.8728 90.795 76.8938C90.9113 76.9863 91.0776 77.1187 91.1894 77.2656C91.2623 77.3614 91.3292 77.4832 91.345 77.6283C91.3611 77.7753 91.3219 77.9203 91.2303 78.0556C91.1543 78.1922 91.0393 78.2788 90.8959 78.305C90.769 78.3282 90.6457 78.298 90.5611 78.2734C90.5249 78.2629 90.4874 78.2507 90.4543 78.2399C90.4466 78.2374 90.4391 78.2349 90.432 78.2326C90.3914 78.2195 90.3567 78.2087 90.3244 78.2007C90.256 78.1837 90.2254 78.1862 90.2128 78.1898L90.1683 78.2026L90.1222 78.1979C89.5518 78.1396 88.9953 78.6141 88.9578 79.1865C88.9481 80.2564 88.9496 81.3247 88.9511 82.3945C88.952 83.0625 88.9529 83.731 88.9511 84.4008L88.951 84.4115L88.95 84.4222C88.893 85.041 89.4164 85.6464 90.0227 85.6294L90.0392 85.6289L90.0556 85.6307C90.5372 85.6835 91.0292 85.3959 91.1963 84.9501L91.2974 84.6803L92.5347 85.4227L92.4447 85.6182C92.0136 86.5539 90.9883 87.1535 89.9588 87.0605C88.6832 87.0431 87.6067 85.9261 87.5405 84.6827L87.5402 84.6774L87.5402 84.672C87.5306 83.5813 87.532 82.4886 87.5334 81.3974C87.5343 80.7376 87.5351 80.0783 87.5336 79.4203C87.4689 78.1813 88.3942 76.9467 89.6592 76.7693L89.6803 76.7664L89.7016 76.7672C89.8051 76.7711 89.908 76.7687 90.0194 76.7661C90.0549 76.7653 90.0913 76.7645 90.1289 76.7638ZM89.7058 77.2476C88.7152 77.3984 87.9579 78.3946 88.0132 79.4004L88.0135 79.4067L88.0135 79.413C88.0151 80.077 88.0143 80.7399 88.0134 81.4022C88.012 82.4894 88.0106 83.5752 88.0201 84.6623C88.0767 85.6713 88.9657 86.5716 89.9734 86.5807L89.9837 86.5808L89.9939 86.5817C90.7505 86.6534 91.5162 86.2526 91.9081 85.6065L91.5203 85.3738C91.2081 85.8779 90.6073 86.1674 90.0197 86.1096C89.105 86.1247 88.3982 85.2525 88.4711 84.3893C88.4728 83.7272 88.4719 83.0637 88.4711 82.3997C88.4696 81.3253 88.4681 80.2494 88.4779 79.1758L88.478 79.1698L88.4783 79.1638C88.5277 78.332 89.2993 77.6561 90.13 77.7168C90.2463 77.6952 90.3565 77.7141 90.4402 77.7349C90.4899 77.7472 90.538 77.7624 90.5798 77.7759C90.589 77.7789 90.5979 77.7818 90.6064 77.7846C90.6389 77.7952 90.6669 77.8043 90.695 77.8125C90.7589 77.831 90.7903 77.8339 90.8039 77.8334C90.8061 77.8303 90.8091 77.8256 90.8128 77.8186L90.8201 77.8047L90.8291 77.7918C90.8682 77.7363 90.8702 77.7018 90.8678 77.6804C90.8648 77.6524 90.8498 77.6119 90.8074 77.5563C90.7357 77.4621 90.6339 77.3805 90.5217 77.2906C90.506 77.2779 90.49 77.2651 90.4738 77.2521C90.3685 77.2422 90.2576 77.2416 90.1374 77.2437C90.106 77.2443 90.0736 77.245 90.0405 77.2458C89.9333 77.2483 89.8184 77.251 89.7058 77.2476ZM92.3676 78.3922L92.5943 78.6939C92.6642 78.7869 92.6759 78.9032 92.6809 78.9548C92.6833 78.9803 92.685 79.0073 92.6864 79.0291C92.6868 79.0347 92.6871 79.04 92.6874 79.0449C92.6892 79.0719 92.6908 79.0883 92.6926 79.0995L92.6954 79.1173L92.6956 79.1353C92.7034 80.0616 92.7022 80.9899 92.701 81.9167C92.7003 82.4927 92.6996 83.0681 92.701 83.6421L92.7021 84.0593L91.2835 83.2392V79.4423L91.401 79.3725C91.4245 79.3586 91.4479 79.3447 91.4713 79.331C91.6079 79.2504 91.7414 79.1717 91.865 79.0789C92.0078 78.9717 92.1204 78.8574 92.1905 78.7254L92.3676 78.3922ZM92.2176 79.4126C92.2231 80.2461 92.2221 81.0785 92.221 81.912C92.2205 82.3497 92.2199 82.7877 92.2203 83.2264L91.7635 82.9623V79.7159C91.8869 79.643 92.0249 79.5591 92.1532 79.4627C92.1747 79.4466 92.1962 79.4299 92.2176 79.4126Z" fill="black"/>
<path d="M96.6242 17.9771H82.8764V42.9401H96.6242V17.9771Z" fill="black"/>
<path d="M81.9141 17.9883V38.877H86.2793V32.6807C86.2793 31.2515 87.1945 29.2676 90 29.2676C92.8055 29.2676 93.7207 31.2515 93.7207 32.6807V38.877H98.0859V17.9883H81.9141ZM89.3262 20.332H90.6738V27.4805H89.3262V20.332ZM85.459 21.7383H86.8213V26.9678H85.459V21.7383ZM93.1787 21.7383H94.541V26.9678H93.1787V21.7383Z" fill="#D91C16"/>
<path fill-rule="evenodd" clip-rule="evenodd" d="M81.6797 17.7539H98.3203V39.1113H93.4863V32.6807C93.4863 32.0111 93.271 31.2154 92.7346 30.5909C92.2043 29.9735 91.3419 29.502 90 29.502C88.6581 29.502 87.7957 29.9735 87.2654 30.5909C86.729 31.2154 86.5137 32.0111 86.5137 32.6807V39.1113H81.6797V17.7539ZM82.1484 18.2227V38.6426H86.0449V32.6807C86.0449 31.921 86.2872 31.0102 86.9098 30.2855C87.5385 29.5536 88.5364 29.0332 90 29.0332C91.4636 29.0332 92.4615 29.5536 93.0902 30.2855C93.7128 31.0102 93.9551 31.921 93.9551 32.6807V38.6426H97.8516V18.2227H82.1484ZM89.0918 20.0977H90.9082V27.7148H89.0918V20.0977ZM89.5605 20.5664V27.2461H90.4395V20.5664H89.5605ZM85.2246 21.5039H87.0557V27.2021H85.2246V21.5039ZM85.6934 21.9727V26.7334H86.5869V21.9727H85.6934ZM92.9443 21.5039H94.7754V27.2021H92.9443V21.5039ZM93.4131 21.9727V26.7334H94.3066V21.9727H93.4131Z" fill="black"/>
<path d="M80.4346 14.9854V17.959H99.5654V14.9854H80.4346Z" fill="#D91C16"/>
<path fill-rule="evenodd" clip-rule="evenodd" d="M80.2002 14.751H99.7998V18.1934H80.2002V14.751ZM80.6689 15.2197V17.7246H99.3311V15.2197H80.6689Z" fill="black"/>
<path d="M78.6328 11.5283V14.9854H101.367V11.5283H98.5107V13.4326H95.2881V11.5283H91.6113V13.4326H88.3887V11.5283H84.7119V13.4326H81.4893V11.5283H78.6328Z" fill="#D91C16"/>
<path fill-rule="evenodd" clip-rule="evenodd" d="M78.3984 11.2939H81.7236V13.1982H84.4775V11.2939H88.623V13.1982H91.377V11.2939H95.5225V13.1982H98.2764V11.2939H101.602V15.2197H78.3984V11.2939ZM78.8672 11.7627V14.751H101.133V11.7627H98.7451V13.667H95.0537V11.7627H91.8457V13.667H88.1543V11.7627H84.9463V13.667H81.2549V11.7627H78.8672Z" fill="black"/>
<path d="M74.4141 45.8643V48.0176H105.586V45.8643H74.4141Z" fill="#D91C16"/>
<path fill-rule="evenodd" clip-rule="evenodd" d="M74.1797 45.6299H105.82V48.252H74.1797V45.6299ZM74.6484 46.0986V47.7832H105.352V46.0986H74.6484Z" fill="black"/>
<path d="M73.1396 38.8623V45.8643H106.86V38.8623H103.667V41.5576H99.4189V38.8623H93.7207V41.5576H86.2793V38.8623H80.5811V41.5576H76.333V38.8623H73.1396Z" fill="#D91C16"/>
<path fill-rule="evenodd" clip-rule="evenodd" d="M72.9053 38.6279H76.5674V41.3232H80.3467V38.6279H86.5137V41.3232H93.4863V38.6279H99.6533V41.3232H103.433V38.6279H107.095V46.0986H72.9053V38.6279ZM73.374 39.0967V45.6299H106.626V39.0967H103.901V41.792H99.1846V39.0967H93.9551V41.792H86.0449V39.0967H80.8154V41.792H76.0986V39.0967H73.374Z" fill="black"/>
<path d="M77.1973 48.0176V73.4912H83.2178V63.9551C83.2178 59.4632 86.216 57.3486 90 57.3486C93.637 57.3486 96.7822 59.4632 96.7822 63.9551V73.4912H102.803V48.0176H77.1973Z" fill="#D91C16"/>
<path fill-rule="evenodd" clip-rule="evenodd" d="M76.9629 48.0176C76.9629 47.8881 77.0678 47.7832 77.1973 47.7832H102.803C102.932 47.7832 103.037 47.8881 103.037 48.0176V73.4912C103.037 73.6207 102.932 73.7256 102.803 73.7256H96.7822C96.6528 73.7256 96.5479 73.6207 96.5479 73.4912V63.9551C96.5479 61.768 95.7845 60.1838 94.6003 59.1435C93.4114 58.0991 91.7753 57.583 90 57.583C88.1495 57.583 86.5149 58.1 85.3459 59.1423C84.1811 60.1809 83.4521 61.7645 83.4521 63.9551V73.4912C83.4521 73.6207 83.3472 73.7256 83.2178 73.7256H77.1973C77.0678 73.7256 76.9629 73.6207 76.9629 73.4912V48.0176ZM77.4316 48.252V73.2568H82.9834V63.9551C82.9834 61.6537 83.7535 59.9341 85.0339 58.7925C86.31 57.6546 88.0665 57.1143 90 57.1143C91.8617 57.1143 93.6167 57.6555 94.9097 58.7913C96.2073 59.9313 97.0166 61.6502 97.0166 63.9551V73.2568H102.568V48.252H77.4316Z" fill="black"/>
</g>
<defs>
<clipPath id="clip0_909_305315">
<rect width="180" height="120" fill="white"/>
</clipPath>
</defs>
</svg>
