<svg width="180" height="120" viewBox="0 0 180 120" fill="none" xmlns="http://www.w3.org/2000/svg">
<g clip-path="url(#clip0_909_101782)">
<path d="M0 0H180V120H0V0Z" fill="white"/>
<path d="M0 0H180V40H0V0Z" fill="#D91C16"/>
<path d="M0 80H180V120H0V80Z" fill="black"/>
<path d="M88.8485 68.4091H59.5303C59.4693 68.957 59.2694 69.4866 58.9445 69.9606C58.6196 70.4346 58.1778 70.8413 57.6502 71.1521C57.1227 71.4628 56.5223 71.67 55.8916 71.7589C55.2608 71.8478 54.6151 71.8163 54 71.6667C58.1061 69.6515 57.8485 67.606 55.2576 63.0606C56.697 62.5454 56.9242 62.4091 58.3788 61.4242C57.3485 64.5454 61.0455 64.1667 63.7727 64.1667C63.7727 63.0757 63.8788 61.8333 63.0606 61.6667C64.1212 61.2879 64.2121 61.1667 65.8939 59.7424V63.9394H86.1212V61.0606C86.1212 60.8999 86.0574 60.7457 85.9437 60.632C85.83 60.5184 85.6759 60.4545 85.5152 60.4545C85.3544 60.4545 85.2003 60.5184 85.0866 60.632C84.9729 60.7457 84.9091 60.8999 84.9091 61.0606V62.7273C84.9091 62.8478 84.8612 62.9634 84.776 63.0487C84.6907 63.1339 84.5751 63.1818 84.4545 63.1818H69V60.4545L80.6061 49.2424C80.5303 49.8182 81.7273 51.3636 82.2273 51.6212C81.8485 51.6818 81.4242 51.606 81.1515 51.8788L71.6515 61.0606H82.1818C82.1818 58.6212 84.4545 58.6212 85.5152 57.7576C86.5758 58.6212 88.8485 58.6212 88.8485 61.0606V68.4091ZM91.0455 68.4091V49.2424C92.1212 49.8333 92.9545 50.5151 94.2879 50.8485C94.2273 51.606 93.5455 51.8485 93.5455 52.3788V64.1667C95.0303 64.5 95.3636 63.6363 96.0758 63.197C96.2576 65.0757 97.4545 66.9242 97.4091 68.4091H91.0455ZM111.076 55.606L113.424 53.6363V63.9394H115.091V52.2273C115.909 51.5454 116.97 50.803 117.439 49.9394V68.4091H102.667C102.455 64.5909 102.455 60.6667 106.909 61.5151V59.9545C106.909 59.5909 106.364 59.8788 106.364 59.5454L109.409 57V63.9394H111.076V55.606ZM110.303 50.3333C110.015 50.3485 109.576 48.7727 109.682 48.4697C109.788 48.1212 110.182 48.1212 110.348 48.2879C110.621 48.5454 110.591 50.3182 110.303 50.3333ZM107.561 52.4697C106.727 51.9848 106.864 51.7879 107.591 52C108.848 52.3788 109.485 52.0606 110.394 51.1363L111.076 51.4848C111.97 51.9394 112.515 51.7424 112.833 50.6515C112.924 50.3182 113.197 50.4091 113.273 50.7879C113.561 52.303 112.409 52.7727 111.242 52.3485C110.606 52.1363 110.5 52.1363 110.182 52.3788C109.485 52.9242 108.485 53.0151 107.561 52.4697ZM119.636 68.4091V49.2424C120.712 49.8333 121.545 50.5151 122.879 50.8485C122.818 51.606 122.136 51.8485 122.136 52.3788V64.1667C123.621 64.5 123.955 63.6363 124.667 63.197C124.848 65.0757 126.045 66.9242 126 68.4091H119.636ZM62.197 70.5303C62.197 70.2932 62.2912 70.0658 62.4588 69.8982C62.6264 69.7305 62.8538 69.6364 63.0909 69.6364C63.328 69.6364 63.5554 69.7305 63.723 69.8982C63.8907 70.0658 63.9848 70.2932 63.9848 70.5303C63.9848 70.7674 63.8907 70.9948 63.723 71.1624C63.5554 71.33 63.328 71.4242 63.0909 71.4242C62.8538 71.4242 62.6264 71.33 62.4588 71.1624C62.2912 70.9948 62.197 70.7674 62.197 70.5303ZM105.545 63.5606C105.545 63.6972 105.617 63.8282 105.745 63.9249C105.873 64.0215 106.046 64.0757 106.227 64.0757C106.408 64.0757 106.582 64.0215 106.709 63.9249C106.837 63.8282 106.909 63.6972 106.909 63.5606C106.909 63.424 106.837 63.2929 106.709 63.1963C106.582 63.0997 106.408 63.0454 106.227 63.0454C106.046 63.0454 105.873 63.0997 105.745 63.1963C105.617 63.2929 105.545 63.424 105.545 63.5606Z" fill="#005801"/>
</g>
<defs>
<clipPath id="clip0_909_101782">
<rect width="180" height="120" fill="white"/>
</clipPath>
</defs>
</svg>
