<svg width="180" height="120" viewBox="0 0 180 120" fill="none" xmlns="http://www.w3.org/2000/svg">
<g clip-path="url(#clip0_909_308714)">
<path d="M0 0H180V120H0V0Z" fill="white"/>
<path d="M0 0H180V36H0V0Z" fill="black"/>
<path d="M0 84H180V120H0V84Z" fill="#005801"/>
<path d="M0 78V42H180V78H0Z" fill="#A30904"/>
<path d="M114.814 18.0712L115.019 17.0078L114.2 17.7168C108.955 22.2599 105.93 27.4996 105.175 28.8087L105.164 28.8261C104.609 29.7888 104.032 30.7875 103.667 31.8062C103.315 32.791 103.15 33.8203 103.397 34.8871L68.2507 95.7626L70.1993 96.8876L105.346 36.0121C106.393 35.6925 107.202 35.0354 107.879 34.2377C108.579 33.4125 109.155 32.4138 109.711 31.4511L109.721 31.4337C110.477 30.1246 113.502 24.8849 114.814 18.0712Z" fill="black"/>
<path d="M68.763 95.6253L70.062 96.3753L105.097 35.6934C107.146 35.1443 108.271 33.1958 109.396 31.2472C110.146 29.9482 113.146 24.752 114.446 18.0002C109.249 22.502 106.249 27.6982 105.499 28.9972C104.374 30.9458 103.249 32.8943 103.798 34.9434L68.763 95.6253Z" fill="white"/>
<path d="M65.5802 18.0712L65.3755 17.0078L66.194 17.7168C71.4389 22.2599 74.464 27.4996 75.2198 28.8087L75.2299 28.8261C75.7857 29.7888 76.3623 30.7875 76.727 31.8062C77.0795 32.791 77.244 33.8203 76.9971 34.8871L112.144 95.7626L110.195 96.8876L75.0486 36.0121C74.0013 35.6925 73.1922 35.0354 72.5156 34.2377C71.8156 33.4125 71.2391 32.4138 70.6832 31.4511L70.6732 31.4337C69.9174 30.1246 66.8922 24.8849 65.5802 18.0712Z" fill="black"/>
<path d="M111.631 95.6253L110.332 96.3753L75.2975 35.6934C73.2485 35.1443 72.1235 33.1958 70.9985 31.2472C70.2485 29.9482 67.2485 24.752 65.9484 18.0002C71.1456 22.502 74.1456 27.6982 74.8956 28.9972C76.0206 30.9458 77.1456 32.8943 76.5966 34.9434L111.631 95.6253Z" fill="white"/>
<path fill-rule="evenodd" clip-rule="evenodd" d="M75.9473 78C78.1973 84 85.6973 96 90.1973 96C94.6973 96 102.197 84 104.447 78C106.697 72 108.197 66 108.197 60C108.197 54 106.697 48 104.447 42C102.197 36 94.6973 24 90.1973 24C85.6973 24 78.1973 36 75.9473 42C73.6973 48 72.1973 54 72.1973 60C72.1973 66 73.6973 72 75.9473 78Z" fill="#A30904"/>
<path d="M104.447 78C106.697 72 108.197 66 108.197 60C108.197 54 106.697 48 104.447 42C102.197 48 100.697 54 100.697 60C100.697 66 102.197 72 104.447 78Z" fill="black"/>
<path d="M75.9473 78C73.6973 72 72.1973 66 72.1973 60C72.1973 54 73.6973 48 75.9473 42C78.1973 48 79.6973 54 79.6973 60C79.6973 66 78.1973 72 75.9473 78Z" fill="black"/>
<path d="M86.4473 39.8625C86.4473 49.6125 89.4473 55.6125 89.4473 55.6125V24.1125C89.4473 24.1125 86.4473 30.1125 86.4473 39.8625Z" fill="white"/>
<path d="M90.1973 64.5C91.8541 64.5 93.1973 62.4853 93.1973 60C93.1973 57.5148 91.8541 55.5 90.1973 55.5C88.5404 55.5 87.1973 57.5148 87.1973 60C87.1973 62.4853 88.5404 64.5 90.1973 64.5Z" fill="white"/>
<path d="M90.9473 64.3876C90.9473 64.3876 93.9473 70.3876 93.9473 80.1376C93.9473 89.8876 90.9473 95.8876 90.9473 95.8876V64.3876Z" fill="white"/>
<path d="M89.4473 64.3876C89.4473 64.3876 86.4473 70.3876 86.4473 80.1376C86.4473 89.8876 89.4473 95.8876 89.4473 95.8876V64.3876Z" fill="white"/>
<path d="M93.9473 39.8625C93.9473 49.6125 90.9473 55.6125 90.9473 55.6125V24.1125C90.9473 24.1125 93.9473 30.1125 93.9473 39.8625Z" fill="white"/>
</g>
<defs>
<clipPath id="clip0_909_308714">
<rect width="180" height="120" fill="white"/>
</clipPath>
</defs>
</svg>
