<svg width="180" height="120" viewBox="0 0 180 120" fill="none" xmlns="http://www.w3.org/2000/svg">
<g clip-path="url(#clip0_307_51186)">
<path d="M0 0H180V120H0V0Z" fill="#A30904"/>
<path d="M92.1031 8.93598C84.4711 5.77998 79.7991 5.19999 74.5791 5.14798C67.0191 5.19999 63.4111 8.44798 56.2031 8.74798C59.0591 11.824 69.4111 12.576 73.7751 8.53598C80.2631 9.21198 81.7351 10.964 83.4751 13.144C80.7671 12.716 77.6471 11.936 75.0591 14.8C72.8751 15.24 71.8631 14.8 68.1271 14.8C66.3831 14.8 65.7791 15.656 65.8031 17.2C66.9311 15.64 74.7271 16.56 76.6391 17.2C78.1071 17.692 79.6671 19.728 81.5271 20.06C86.4031 20.928 93.3991 18.38 99.8511 16.644L113.803 14.8H104.231L116.203 12.4H103.187C102.911 12.084 102.251 11.676 101.723 11.328C105.071 9.17198 108.031 5.25198 108.787 3.35998C114.823 3.29998 118.719 2.73998 123.403 1.64399C92.5311 -1.77201 99.5591 1.91198 92.1031 8.93598Z" fill="#FDD406"/>
<path fill-rule="evenodd" clip-rule="evenodd" d="M106.538 0.262477C110.342 0.28776 115.695 0.698468 123.413 1.55253L123.946 1.61147L123.424 1.73356C118.75 2.82731 114.858 3.3881 108.849 3.45134C108.452 4.41075 107.529 5.84418 106.298 7.30428C105.07 8.75994 103.531 10.2493 101.891 11.3283C101.928 11.3522 101.965 11.3764 102.003 11.4009C102.202 11.5309 102.411 11.6669 102.602 11.8005C102.851 11.974 103.08 12.1488 103.228 12.308H117.13L105.158 14.708H115.201L99.8692 16.7344C98.653 17.0617 97.4151 17.4186 96.175 17.7761C94.1343 18.3644 92.0873 18.9545 90.1193 19.418C86.9523 20.164 83.9687 20.5881 81.5111 20.1506C80.5566 19.9802 79.6854 19.3744 78.8805 18.7632C78.7703 18.6796 78.6614 18.5958 78.5537 18.5129C78.2651 18.291 77.9846 18.0753 77.7082 17.8833C77.3289 17.6198 76.9646 17.4061 76.6099 17.2872C75.6657 16.9712 73.2486 16.5817 70.9226 16.4669C69.7608 16.4095 68.627 16.421 67.7155 16.543C67.2597 16.6041 66.8627 16.6924 66.5468 16.8119C66.2294 16.932 66.0035 17.0799 65.8777 17.2539L65.7155 17.4783L65.7112 17.2014C65.699 16.4201 65.845 15.7918 66.2338 15.3595C66.6242 14.9253 67.2417 14.708 68.1272 14.708C69.5948 14.708 70.6441 14.7758 71.5063 14.8315C71.7435 14.8469 71.9666 14.8613 72.1803 14.8731C73.1601 14.9274 73.9451 14.9277 75.0114 14.7157C77.439 12.0499 80.333 12.5305 82.8806 12.9536C83.0061 12.9744 83.1307 12.9951 83.2544 13.0153C82.4407 12.0012 81.6609 11.0964 80.3602 10.3559C78.985 9.57306 77.02 8.96996 73.8069 8.6318C71.5958 10.6547 67.906 11.4698 64.4219 11.4025C62.6693 11.3686 60.9626 11.1114 59.5131 10.6687C58.0656 10.2265 56.8655 9.59654 56.1358 8.81057L56 8.66435L56.1994 8.65605C59.6394 8.51288 62.2557 7.69613 64.8868 6.87475C65.0018 6.83887 65.1168 6.80298 65.2318 6.76714C67.9813 5.91068 70.7842 5.08208 74.5786 5.05598L74.5801 5.05597C79.7984 5.10795 84.4722 5.68736 92.0833 8.82821C93.7098 7.28719 94.6373 5.90992 95.4327 4.72895C95.5308 4.58335 95.6268 4.44074 95.7219 4.30117C96.5959 3.01851 97.3931 1.9881 98.9343 1.29115C100.47 0.596661 102.735 0.237206 106.538 0.262477ZM95.5854 4.83164C94.7827 6.02371 93.8352 7.43072 92.1663 9.00294L92.123 9.04372L92.068 9.02099C84.448 5.86996 79.7878 5.29192 74.579 5.23998C70.8138 5.26599 68.0329 6.08733 65.2865 6.94281C65.1703 6.97904 65.054 7.01532 64.9378 7.05161C62.3605 7.85623 59.7765 8.66295 56.4128 8.83049C57.1216 9.51703 58.227 10.0834 59.5669 10.4927C60.998 10.9298 62.6875 11.1849 64.4255 11.2185C67.9061 11.2858 71.5562 10.4648 73.7127 8.46846L73.7433 8.44015L73.7847 8.44447C77.0352 8.78314 79.0393 9.39224 80.4512 10.196C81.8644 11.0005 82.6768 11.9962 83.5471 13.0866L83.695 13.2719L83.4608 13.2348C83.2612 13.2033 83.0597 13.1699 82.8567 13.1364C80.2923 12.7119 77.4893 12.248 75.1274 14.8617L75.1071 14.8842L75.0774 14.8902C73.9748 15.1123 73.1672 15.1121 72.1701 15.0568C71.9546 15.0449 71.7303 15.0304 71.4922 15.015C70.6305 14.9593 69.5882 14.892 68.1272 14.892C67.2686 14.892 66.7122 15.1026 66.3706 15.4825C66.0632 15.8243 65.9156 16.3185 65.8966 16.9659C66.049 16.8352 66.2487 16.7279 66.4817 16.6398C66.8155 16.5135 67.2276 16.4227 67.6911 16.3607C68.6184 16.2365 69.7646 16.2255 70.9317 16.2831C73.2638 16.3982 75.7006 16.7888 76.6684 17.1127C77.0477 17.2399 77.4289 17.4652 77.8132 17.7322C78.0935 17.927 78.3793 18.1467 78.6691 18.3696C78.7762 18.4519 78.8838 18.5347 78.9918 18.6167C79.799 19.2296 80.6378 19.8078 81.5433 19.9694C83.9616 20.3999 86.914 19.984 90.0771 19.2389C92.0419 18.7761 94.0797 18.1886 96.1162 17.6015C97.3593 17.2431 98.602 16.8848 99.8273 16.5551L99.8331 16.5536L112.405 14.892H103.304L115.276 12.492H103.145L103.118 12.4605C102.988 12.3119 102.763 12.1365 102.497 11.9515C102.308 11.8196 102.103 11.6861 101.905 11.5566C101.826 11.5052 101.748 11.4545 101.673 11.4048L101.555 11.3271L101.673 11.2506C103.337 10.179 104.908 8.66704 106.157 7.18567C107.407 5.7031 108.329 4.25878 108.702 3.32584L108.725 3.26859L108.786 3.26798C114.587 3.21031 118.407 2.69047 122.855 1.67619C115.426 0.862512 110.242 0.4711 106.536 0.446473C102.741 0.421244 100.508 0.78129 99.0101 1.4588C97.5173 2.13385 96.744 3.12794 95.874 4.40478C95.7792 4.5438 95.6834 4.68612 95.5854 4.83164Z" fill="black"/>
<path d="M77.8275 13.956C78.1595 13.956 78.4275 14.224 78.4275 14.556C78.4275 14.888 78.1595 15.156 77.8275 15.156C77.4995 15.156 77.2275 14.888 77.2275 14.556C77.2275 14.224 77.4995 13.956 77.8275 13.956Z" fill="black"/>
<path fill-rule="evenodd" clip-rule="evenodd" d="M77.8273 13.986C77.5157 13.986 77.2573 14.2407 77.2573 14.556C77.2573 14.8713 77.5157 15.126 77.8273 15.126C78.1427 15.126 78.3973 14.8714 78.3973 14.556C78.3973 14.2405 78.1427 13.986 77.8273 13.986ZM77.1973 14.556C77.1973 14.2073 77.4828 13.926 77.8273 13.926C78.1758 13.926 78.4573 14.2074 78.4573 14.556C78.4573 14.9045 78.1758 15.186 77.8273 15.186C77.4828 15.186 77.1973 14.9047 77.1973 14.556Z" fill="black"/>
<path fill-rule="evenodd" clip-rule="evenodd" d="M71.0913 6.53243L71.0549 6.44796C71.0184 6.3635 71.0184 6.36348 71.0185 6.36347L71.0208 6.36245L71.0276 6.35959C71.0334 6.3571 71.0421 6.35344 71.0536 6.34869C71.0764 6.33919 71.1102 6.32535 71.1543 6.30779C71.2424 6.27268 71.3716 6.22273 71.5369 6.16305C71.8675 6.04371 72.3423 5.88541 72.9204 5.72915C74.0759 5.4168 75.647 5.11175 77.3047 5.14398L77.3011 5.32794C75.6667 5.29617 74.1139 5.59713 72.9684 5.90677C72.3959 6.06151 71.926 6.21821 71.5994 6.33612C71.4362 6.39507 71.3088 6.4443 71.2224 6.47872C71.1792 6.49594 71.1462 6.50944 71.1242 6.5186C71.1131 6.52319 71.1048 6.52668 71.0993 6.52901L71.0932 6.53162L71.0917 6.53226L71.0913 6.53243ZM79.0621 6.85068L79.0469 6.75996C79.0316 6.66924 79.0316 6.66923 79.0317 6.66922L79.0347 6.66872L79.0433 6.66731C79.0509 6.66607 79.0622 6.66426 79.077 6.66194C79.1067 6.6573 79.1504 6.65063 79.2073 6.64244C79.321 6.62606 79.4873 6.60359 79.6978 6.57914C80.1189 6.53025 80.7175 6.47342 81.4282 6.44155C82.8489 6.37787 84.7219 6.41372 86.5228 6.81415L86.4829 6.99377C84.7039 6.59821 82.8488 6.56206 81.4365 6.62537C80.7308 6.65701 80.1366 6.71343 79.719 6.76191C79.5103 6.78615 79.3457 6.8084 79.2335 6.82456C79.1774 6.83264 79.1344 6.8392 79.1055 6.84373C79.091 6.84599 79.0801 6.84774 79.0728 6.84892L79.0647 6.85026L79.0621 6.85068ZM63.3736 7.92146L63.3309 7.83996C63.2882 7.75846 63.2882 7.75845 63.2882 7.75844L63.2937 7.75559L63.3096 7.74732C63.3235 7.74006 63.3441 7.72941 63.3705 7.71576C63.4233 7.68848 63.4998 7.64924 63.5943 7.60134C63.7832 7.50557 64.0443 7.37513 64.3331 7.23652C64.9083 6.96039 65.6007 6.64813 66.0488 6.51573L66.1009 6.69219C65.6691 6.81979 64.9894 7.12554 64.4127 7.4024C64.1254 7.54029 63.8656 7.6701 63.6775 7.76546C63.5834 7.81313 63.5074 7.85216 63.4549 7.87927C63.4286 7.89282 63.4083 7.90339 63.3945 7.91056L63.3788 7.91871L63.3736 7.92146ZM83.5181 7.78669L83.5029 7.69596C83.4876 7.60523 83.4877 7.60523 83.4877 7.60522L83.4884 7.60511L83.4903 7.60479L83.4976 7.60361C83.5039 7.60258 83.5134 7.60108 83.5257 7.59918C83.5505 7.59537 83.587 7.58993 83.6344 7.58334C83.7293 7.57015 83.868 7.55234 84.0439 7.53372C84.3957 7.4965 84.8966 7.45605 85.4944 7.44298C86.689 7.41687 88.274 7.50006 89.8279 7.93943L89.7778 8.11649C88.2478 7.68387 86.6827 7.60105 85.4984 7.62694C84.9066 7.63987 84.4108 7.67992 84.0632 7.7167C83.8895 7.73509 83.7528 7.75265 83.6597 7.76558C83.6132 7.77205 83.5776 7.77736 83.5537 7.78104C83.5418 7.78288 83.5328 7.78431 83.5268 7.78527L83.5201 7.78635L83.5185 7.78662L83.5181 7.78669ZM56.1787 8.83674C56.1787 8.83672 56.1786 8.83671 56.2029 8.74796L56.2271 8.65922L56.2278 8.65939L56.2301 8.66001L56.2396 8.66255C56.2481 8.6648 56.261 8.66814 56.278 8.67245C56.312 8.68106 56.3626 8.69353 56.4284 8.7088C56.5601 8.73935 56.7529 8.78109 56.996 8.82566C57.4822 8.9148 58.1696 9.01511 58.973 9.0596C60.5814 9.14868 62.6467 9.01357 64.495 8.12504L64.5747 8.29088C62.687 9.19835 60.5864 9.33324 58.9628 9.24332C58.1502 9.19832 57.455 9.09687 56.9628 9.00664C56.7166 8.96152 56.5211 8.91917 56.3869 8.88804C56.3197 8.87248 56.2679 8.85972 56.2328 8.85081C56.2152 8.84636 56.2018 8.84287 56.1927 8.84047L56.1824 8.83772L56.1797 8.83699L56.1789 8.83679L56.1787 8.83674ZM86.8097 8.76795C86.8096 8.76795 86.8096 8.76795 86.8109 8.67596C86.8121 8.58397 86.8121 8.58397 86.8122 8.58397L86.8128 8.58398L86.8146 8.58401L86.8218 8.58412L86.8499 8.58463C86.8744 8.58511 86.9106 8.58589 86.9572 8.58712C87.0504 8.58957 87.1852 8.59377 87.352 8.60079C87.6856 8.61484 88.1474 8.64016 88.6604 8.68532C89.6831 8.77533 90.9208 8.94501 91.7482 9.2662L91.6816 9.43773C90.8809 9.12692 89.6666 8.95859 88.6443 8.86861C88.1348 8.82376 87.6759 8.79859 87.3443 8.78463C87.1786 8.77765 87.0447 8.77348 86.9524 8.77105C86.9062 8.76984 86.8705 8.76907 86.8463 8.76859L86.8188 8.76809L86.8119 8.76799L86.8097 8.76795ZM85.808 13.2368L85.8549 13.316C85.9017 13.3951 85.9017 13.3952 85.9017 13.3952L85.9012 13.3955L85.8997 13.3963L85.8941 13.3996C85.8892 13.4025 85.8819 13.4067 85.8724 13.4122C85.8534 13.4233 85.8253 13.4394 85.7891 13.4598C85.7167 13.5007 85.6116 13.5591 85.4803 13.629C85.2177 13.7689 84.8502 13.9554 84.4302 14.142C83.5942 14.5135 82.5358 14.892 81.6829 14.892V14.708C82.4939 14.708 83.5215 14.3444 84.3555 13.9739C84.7705 13.7895 85.134 13.605 85.3937 13.4666C85.5236 13.3975 85.6274 13.3399 85.6986 13.2996C85.7342 13.2795 85.7617 13.2637 85.7802 13.253C85.7847 13.2504 85.7886 13.2481 85.792 13.2462C85.7957 13.244 85.7987 13.2422 85.8011 13.2408L85.8064 13.2378L85.8077 13.237L85.808 13.2368ZM99.9085 16.7156L99.8509 16.644C99.7932 16.5723 99.7932 16.5723 99.7933 16.5722L99.7937 16.5718L99.7951 16.5707L99.8004 16.5666C99.8049 16.563 99.8117 16.5576 99.8205 16.5507C99.8382 16.5369 99.8642 16.5168 99.898 16.4913C99.9655 16.4403 100.064 16.3676 100.189 16.2804C100.438 16.1062 100.793 15.8738 101.213 15.6414C102.051 15.1782 103.163 14.708 104.231 14.708V14.892C103.211 14.892 102.132 15.3437 101.302 15.8025C100.889 16.0311 100.54 16.2598 100.294 16.4313C100.172 16.517 100.075 16.5883 100.009 16.6381C99.9759 16.663 99.9507 16.6825 99.9337 16.6958C99.9293 16.6992 99.9254 16.7023 99.9221 16.7049C99.9192 16.7072 99.9167 16.7092 99.9147 16.7108L99.91 16.7145L99.9088 16.7154L99.9085 16.7156Z" fill="black"/>
<path fill-rule="evenodd" clip-rule="evenodd" d="M56.7656 9.38134C56.7656 9.38132 56.7655 9.38131 56.7875 9.29199C56.8096 9.20266 56.8096 9.20266 56.8096 9.20267L56.8105 9.20288L56.8135 9.20363L56.826 9.20662C56.8371 9.20925 56.8538 9.21316 56.8757 9.21815C56.9195 9.22814 56.9843 9.24249 57.068 9.25981C57.2353 9.29447 57.4776 9.34103 57.7771 9.38843C58.3762 9.48327 59.2029 9.58133 60.1139 9.5945C61.942 9.62093 64.0824 9.305 65.4184 7.96698L65.5486 8.09699C64.1567 9.49097 61.9491 9.80505 60.1112 9.77848C59.1892 9.76515 58.3534 9.66595 57.7483 9.57017C57.4456 9.52226 57.2004 9.47516 57.0306 9.43999C56.9458 9.4224 56.8797 9.40779 56.8348 9.39755C56.8123 9.39243 56.7951 9.3884 56.7835 9.38564L56.7702 9.38246L56.7668 9.38162L56.7656 9.38134Z" fill="black"/>
<path fill-rule="evenodd" clip-rule="evenodd" d="M102.713 0.577979C102.713 0.577951 102.713 0.577926 102.755 0.49596C102.797 0.413995 102.797 0.413979 102.797 0.413967L102.798 0.414503L102.802 0.416616C102.806 0.418543 102.812 0.421485 102.82 0.425335C102.837 0.433037 102.861 0.444369 102.894 0.458471C102.96 0.486675 103.058 0.525943 103.185 0.56938C103.44 0.656268 103.813 0.759754 104.28 0.824841C105.213 0.95496 106.525 0.931737 108.036 0.314789L108.106 0.485132C106.56 1.11618 105.215 1.14096 104.254 1.00708C103.774 0.940167 103.39 0.833653 103.126 0.74354C102.994 0.698478 102.891 0.657495 102.822 0.627575C102.787 0.612614 102.76 0.600415 102.742 0.591851C102.733 0.587569 102.726 0.584195 102.721 0.581838L102.715 0.579078L102.714 0.578296L102.713 0.577979ZM104.658 1.40565C104.658 1.40564 104.658 1.40563 104.679 1.31596L104.699 1.22629L104.7 1.22644L104.702 1.22697L104.712 1.22909C104.72 1.23096 104.733 1.23374 104.75 1.2373C104.783 1.24442 104.833 1.25468 104.897 1.26711C105.024 1.29197 105.209 1.32553 105.437 1.36012C105.894 1.42935 106.523 1.5026 107.213 1.51899C107.903 1.53538 108.651 1.49476 109.348 1.33759C110.046 1.18032 110.685 0.907691 111.164 0.464432L111.289 0.599489C110.778 1.07223 110.105 1.3556 109.389 1.51708C108.672 1.67866 107.907 1.71954 107.208 1.70293C106.508 1.68632 105.872 1.61207 105.41 1.54205C105.179 1.50702 104.991 1.47301 104.861 1.44772C104.796 1.43507 104.746 1.4246 104.711 1.41726C104.694 1.4136 104.681 1.41071 104.672 1.40874L104.662 1.40646L104.659 1.40586L104.658 1.40565ZM101.419 0.962571C101.419 0.962555 101.419 0.962542 101.467 0.88396C101.5 0.830216 101.51 0.813226 101.513 0.807856L101.515 0.805374L101.515 0.805778L101.518 0.80727L101.528 0.813386C101.537 0.818807 101.551 0.826851 101.569 0.837135C101.605 0.857706 101.658 0.88722 101.726 0.922617C101.861 0.993445 102.053 1.08764 102.281 1.18081C102.738 1.36796 103.331 1.54748 103.892 1.532L103.897 1.71593C103.299 1.73245 102.678 1.54196 102.211 1.35111C101.977 1.25529 101.779 1.15848 101.64 1.08555C101.571 1.04908 101.516 1.01853 101.478 0.997004C101.459 0.986241 101.445 0.977731 101.435 0.971859L101.423 0.965078L101.42 0.963261L101.419 0.962762L101.419 0.962571ZM100.714 1.49618C100.714 1.49617 100.714 1.49616 100.759 1.41596L100.804 1.33576L100.804 1.33587L100.805 1.3363L100.808 1.33817C100.811 1.33984 100.816 1.34237 100.822 1.34568C100.834 1.35231 100.852 1.36208 100.876 1.37448C100.923 1.39928 100.992 1.43458 101.078 1.47627C101.25 1.55968 101.492 1.66838 101.768 1.76958C102.325 1.97373 103.005 2.1402 103.544 2.02596L103.582 2.20596C102.989 2.33172 102.267 2.14819 101.705 1.94234C101.421 1.83854 101.174 1.72724 100.998 1.64191C100.909 1.59921 100.839 1.56295 100.79 1.53729C100.766 1.52445 100.747 1.51426 100.734 1.50724C100.727 1.50372 100.722 1.501 100.719 1.49913L100.715 1.49698L100.714 1.4964L100.714 1.49618ZM103.946 1.55409C103.946 1.55407 103.946 1.55406 103.995 1.47596L104.043 1.39786L104.044 1.39808L104.045 1.39886L104.05 1.40205C104.055 1.4049 104.062 1.40917 104.071 1.41478C104.09 1.426 104.117 1.44257 104.153 1.46383C104.225 1.50635 104.33 1.56759 104.463 1.64221C104.731 1.79146 105.111 1.99407 105.563 2.20724C106.469 2.63423 107.657 3.10087 108.8 3.26894L108.773 3.45098C107.604 3.27905 106.397 2.80369 105.485 2.37368C105.028 2.15835 104.644 1.95371 104.374 1.80284C104.239 1.72739 104.132 1.66535 104.059 1.6221C104.023 1.60048 103.994 1.58355 103.975 1.57198C103.966 1.5662 103.959 1.56176 103.954 1.55875L103.948 1.5553L103.947 1.5544L103.946 1.55409ZM100.315 1.91809C100.315 1.91805 100.315 1.91802 100.383 1.85596C100.451 1.7939 100.451 1.79388 100.451 1.79382L100.451 1.79414L100.453 1.79581C100.453 1.79669 100.454 1.79785 100.456 1.79928C100.457 1.80044 100.458 1.80178 100.46 1.8033C100.466 1.81006 100.476 1.82028 100.49 1.83347C100.518 1.85983 100.559 1.89801 100.614 1.94399C100.725 2.03597 100.891 2.15897 101.111 2.28108C101.549 2.52513 102.2 2.76558 103.049 2.74798L103.053 2.93194C102.166 2.95034 101.483 2.69879 101.021 2.44184C100.79 2.31345 100.615 2.1837 100.497 2.08556C100.438 2.03647 100.393 1.99524 100.362 1.96597C100.347 1.95133 100.336 1.93968 100.328 1.93152C100.324 1.92744 100.321 1.92423 100.319 1.92196L100.316 1.91926L100.315 1.91846L100.315 1.91809ZM103.38 2.41888C103.38 2.41886 103.38 2.41885 103.427 2.33996L103.474 2.26108L103.476 2.26232L103.483 2.26623C103.487 2.26842 103.491 2.27129 103.497 2.2748L103.509 2.28165C103.532 2.2952 103.566 2.31512 103.61 2.3405C103.699 2.39125 103.827 2.46378 103.987 2.55067C104.308 2.7245 104.754 2.95559 105.257 3.18472C106.27 3.64535 107.498 4.08924 108.404 4.06001L108.41 4.24391C107.456 4.27468 106.193 3.81257 105.181 3.35221C104.673 3.12083 104.222 2.88767 103.9 2.71238C103.738 2.62471 103.608 2.55146 103.519 2.50006C103.474 2.47437 103.439 2.45413 103.416 2.44029C103.404 2.43336 103.395 2.42804 103.389 2.42443L103.382 2.42031L103.38 2.41924L103.38 2.41888ZM99.802 2.90827C99.8019 2.90825 99.8019 2.90824 99.8469 2.82796C99.8918 2.74768 99.8918 2.74768 99.8918 2.74768L99.8926 2.74812L99.8955 2.74971C99.8981 2.75115 99.9021 2.75334 99.9074 2.75622C99.9181 2.76198 99.9341 2.77051 99.955 2.78135C99.9967 2.80303 100.058 2.83398 100.136 2.87061C100.291 2.94393 100.512 3.03985 100.772 3.13006C101.293 3.31131 101.961 3.46576 102.574 3.37691L102.6 3.55901C101.944 3.65416 101.243 3.48861 100.711 3.30386C100.444 3.21107 100.218 3.11249 100.057 3.03706C99.9774 2.99932 99.9139 2.96732 99.8702 2.94467C99.8484 2.93334 99.8315 2.92434 99.82 2.91812C99.8164 2.91616 99.8133 2.91448 99.8107 2.91309L99.8068 2.91093L99.8033 2.909L99.8023 2.90847L99.802 2.90827ZM102.904 3.09346C102.903 3.09343 102.903 3.09341 102.959 3.01996L103.014 2.9465L103.015 2.94671L103.016 2.94755L103.02 2.95112C103.022 2.95245 103.024 2.95406 103.027 2.95594C103.031 2.95859 103.035 2.96178 103.04 2.96548C103.058 2.97817 103.084 2.99691 103.118 3.02085C103.187 3.06873 103.289 3.13734 103.419 3.21969C103.681 3.38442 104.058 3.60391 104.52 3.82229C105.444 4.25958 106.703 4.68971 108.05 4.67197L108.052 4.85595C106.667 4.87421 105.379 4.43234 104.441 3.98863C103.971 3.76651 103.588 3.54325 103.321 3.37536C103.188 3.2914 103.084 3.22123 103.013 3.1719C102.978 3.14723 102.95 3.12777 102.932 3.1144C102.923 3.10771 102.916 3.10255 102.911 3.09901L102.906 3.09495L102.904 3.09346ZM99.316 3.71663C99.316 3.71661 99.316 3.71659 99.3669 3.63996C99.4178 3.56333 99.4178 3.56331 99.4177 3.5633L99.4182 3.56362L99.4202 3.56495L99.429 3.57056C99.4368 3.57558 99.4488 3.58307 99.4646 3.59271C99.4962 3.61198 99.5433 3.63978 99.6044 3.67332C99.7266 3.74041 99.9044 3.83033 100.126 3.9208C100.569 4.10197 101.183 4.28414 101.872 4.29197L101.87 4.47595C101.151 4.46778 100.513 4.27795 100.056 4.09112C99.8273 3.99759 99.6431 3.90451 99.5158 3.8346C99.4522 3.79964 99.4026 3.77044 99.3688 3.74984C99.3519 3.73953 99.3389 3.73138 99.3301 3.72572C99.3256 3.72289 99.3222 3.72069 99.3199 3.71915L99.3171 3.71736L99.3163 3.71684L99.316 3.71663ZM102.343 3.82999C102.343 3.82994 102.343 3.82989 102.411 3.76796C102.479 3.70603 102.479 3.70599 102.479 3.70595L102.479 3.70641L102.482 3.70889C102.484 3.71122 102.487 3.71492 102.492 3.71989C102.502 3.72984 102.517 3.74489 102.538 3.76443C102.58 3.80349 102.645 3.86046 102.736 3.93024C102.916 4.06977 103.196 4.2606 103.594 4.46187C104.389 4.86429 105.656 5.30924 107.531 5.46829L107.515 5.65163C105.618 5.49068 104.328 5.03963 103.511 4.62605C103.102 4.41932 102.812 4.22215 102.623 4.07569C102.528 4.00246 102.459 3.94193 102.413 3.89924C102.39 3.8779 102.373 3.86102 102.361 3.84925C102.359 3.84726 102.358 3.84541 102.356 3.84372C102.353 3.8404 102.35 3.83765 102.348 3.8355L102.344 3.83165L102.343 3.8305L102.343 3.82999ZM98.6621 4.57134C98.6621 4.57131 98.662 4.57128 98.7149 4.49596C98.7677 4.42064 98.7677 4.42062 98.7676 4.4206L98.7678 4.42075L98.7694 4.42178C98.7708 4.42277 98.7731 4.42434 98.7764 4.42647C98.7828 4.43073 98.7928 4.43718 98.8062 4.44552C98.8331 4.4622 98.874 4.48638 98.9283 4.51549C99.037 4.5737 99.1996 4.65156 99.413 4.7284C99.8397 4.88204 100.469 5.03168 101.277 5.01199L101.281 5.19593C100.448 5.21624 99.796 5.06188 99.3507 4.90152C99.1281 4.82136 98.9572 4.73972 98.8414 4.67768C98.7835 4.64666 98.7393 4.62053 98.7093 4.60193C98.6943 4.59263 98.6828 4.5852 98.6749 4.57998C98.6729 4.57863 98.6711 4.57743 98.6695 4.57638C98.6681 4.57541 98.6668 4.57456 98.6658 4.57386L98.6632 4.57211L98.6621 4.57134ZM101.637 4.73626C101.637 4.7362 101.637 4.73615 101.707 4.67596C101.776 4.61578 101.776 4.61573 101.776 4.61569L101.777 4.61597L101.779 4.61815C101.78 4.62026 101.784 4.62365 101.788 4.62826C101.797 4.63747 101.811 4.65154 101.83 4.66989C101.868 4.70658 101.929 4.76037 102.014 4.82655C102.184 4.9589 102.453 5.14096 102.846 5.33496C103.632 5.72289 104.915 6.15925 106.891 6.34034L106.874 6.52358C104.879 6.34067 103.573 5.89903 102.765 5.49996C102.36 5.30046 102.08 5.11177 101.901 4.97174C101.811 4.90174 101.746 4.84394 101.703 4.80308C101.681 4.78265 101.666 4.76646 101.655 4.75511C101.649 4.74943 101.645 4.74496 101.642 4.74178L101.639 4.73797L101.638 4.73681L101.637 4.73626ZM97.9658 5.42328L98.0214 5.26518L98.0223 5.26548L98.025 5.26644L98.0362 5.27031C98.0461 5.27372 98.0609 5.27878 98.0802 5.28527C98.1188 5.29825 98.1754 5.31699 98.2473 5.33985C98.3911 5.38559 98.5957 5.44782 98.8385 5.51367C99.3247 5.64555 99.961 5.79107 100.568 5.84837L100.55 6.03155C99.9288 5.97285 99.2811 5.82437 98.7903 5.69125C98.5445 5.6246 98.3374 5.56158 98.1915 5.51519C98.1186 5.492 98.061 5.47295 98.0215 5.45967C98.0018 5.45302 97.9866 5.44783 97.9762 5.44427L97.9645 5.44019L97.9614 5.43913L97.9604 5.43877C97.9604 5.43876 97.9603 5.43874 97.9658 5.42328ZM100.955 5.58579C100.955 5.58576 100.955 5.58573 101.015 5.51596C101.075 5.44619 101.075 5.44617 101.075 5.44617L101.075 5.44633L101.076 5.44708L101.08 5.45037C101.082 5.45193 101.084 5.45393 101.087 5.45634C101.09 5.45851 101.093 5.46102 101.096 5.46385C101.111 5.47581 101.133 5.49358 101.162 5.51641C101.22 5.56207 101.308 5.62792 101.423 5.70785C101.652 5.86772 101.991 6.08377 102.425 6.30714C103.294 6.754 104.545 7.22936 106.074 7.34422L106.06 7.5277C104.501 7.41056 103.226 6.92592 102.341 6.47078C101.898 6.24315 101.553 6.0227 101.317 5.85882C101.2 5.77687 101.11 5.70904 101.049 5.66148C101.018 5.6377 100.995 5.61898 100.979 5.6061C100.971 5.59966 100.965 5.59468 100.961 5.59125L100.957 5.58729L100.955 5.58579ZM97.3133 6.12944C97.3132 6.12943 97.3132 6.12941 97.3629 6.05196C97.4125 5.97451 97.4125 5.9745 97.4125 5.97448L97.4129 5.97475L97.4147 5.9759L97.4226 5.9808C97.4297 5.98519 97.4406 5.99178 97.455 6.00029C97.4838 6.0173 97.5269 6.04198 97.5832 6.07209C97.6958 6.13232 97.8608 6.21419 98.0693 6.29986C98.4866 6.47131 99.0763 6.65729 99.7667 6.71629L99.751 6.89963C99.0374 6.83863 98.4291 6.64661 97.9994 6.47006C97.7844 6.38173 97.6137 6.2971 97.4964 6.23433C97.4377 6.20294 97.3924 6.17699 97.3615 6.15876C97.346 6.14964 97.3342 6.14244 97.3261 6.13746L97.3168 6.13167L97.3143 6.13009L97.3136 6.12963L97.3133 6.12944ZM100.248 6.38729C100.248 6.38725 100.248 6.38722 100.311 6.31996C100.374 6.2527 100.374 6.25268 100.374 6.25266L100.374 6.25341L100.378 6.25634C100.381 6.25903 100.385 6.26315 100.391 6.26864C100.404 6.27961 100.423 6.29602 100.448 6.31719C100.499 6.35954 100.576 6.42096 100.679 6.4961C100.885 6.6464 101.194 6.85159 101.607 7.06906C102.433 7.50395 103.672 7.98805 105.322 8.18058L105.3 8.36334C103.626 8.16787 102.365 7.67597 101.521 7.23186C101.1 7.00983 100.783 6.79977 100.57 6.64469C100.464 6.56715 100.384 6.50335 100.331 6.45865C100.304 6.4363 100.283 6.41873 100.27 6.4066C100.263 6.40053 100.258 6.39583 100.254 6.39257L100.25 6.38878L100.249 6.38772L100.248 6.38729ZM96.6099 6.72084C96.6099 6.72082 96.6098 6.7208 96.6709 6.65196C96.7319 6.58312 96.7319 6.58311 96.7319 6.58309L96.7323 6.58349L96.7342 6.58513C96.736 6.58665 96.7387 6.589 96.7423 6.59212C96.7497 6.59837 96.7608 6.60771 96.7755 6.61972C96.805 6.64374 96.8489 6.67839 96.9058 6.72023C97.0196 6.80395 97.1849 6.91617 97.3903 7.02939C97.8019 7.25635 98.3692 7.48448 99.0011 7.49999L98.9966 7.68393C98.3246 7.66744 97.7278 7.42557 97.3014 7.19053C97.0878 7.07275 96.9157 6.95597 96.7967 6.86844C96.7372 6.82465 96.6909 6.78812 96.6593 6.76236C96.6513 6.75582 96.6442 6.74997 96.6381 6.74487C96.6321 6.73993 96.6271 6.73569 96.623 6.73221C96.6189 6.72867 96.6157 6.72592 96.6135 6.724L96.6109 6.72175L96.6102 6.72111L96.6099 6.72084ZM99.323 7.39373C99.3296 7.38378 99.3424 7.36468 99.3669 7.32796L99.4179 7.25143L99.4194 7.2524L99.4243 7.25563C99.4287 7.25853 99.4354 7.26289 99.4443 7.26863C99.4621 7.2801 99.4886 7.29706 99.5236 7.31878C99.5934 7.36223 99.6965 7.4247 99.8288 7.50034C100.094 7.65164 100.475 7.85547 100.941 8.06505C101.874 8.48462 103.142 8.92518 104.489 9.01617L104.477 9.19975C103.1 9.10674 101.81 8.6573 100.866 8.23287C100.393 8.02044 100.006 7.81378 99.7375 7.66008C99.603 7.58322 99.498 7.51957 99.4264 7.47501C99.3906 7.45274 99.3631 7.43523 99.3445 7.42323C99.3352 7.41723 99.3281 7.41261 99.3233 7.40945L99.3178 7.40584L99.316 7.40461C99.316 7.4046 99.3158 7.40451 99.323 7.39373ZM95.9547 7.55352C95.9546 7.5535 95.9546 7.55347 96.0149 7.48396C96.0751 7.41445 96.0751 7.41443 96.0751 7.41441L96.0754 7.41465L96.0769 7.41592C96.0783 7.41711 96.0805 7.419 96.0836 7.42154C96.0897 7.42662 96.0992 7.43428 96.1118 7.44419C96.1371 7.46401 96.1751 7.49279 96.2253 7.52773C96.3256 7.59764 96.474 7.6921 96.665 7.7889C97.047 7.9826 97.5974 8.18491 98.2717 8.22009L98.2621 8.40383C97.5563 8.36701 96.9808 8.15532 96.5818 7.95301C96.3822 7.85182 96.2264 7.75278 96.1201 7.67869C96.0669 7.64163 96.0261 7.61078 95.9983 7.58898C95.9844 7.57807 95.9737 7.56943 95.9664 7.56339C95.965 7.56223 95.9637 7.56116 95.9625 7.56019C95.9607 7.55865 95.9592 7.55737 95.958 7.55634L95.9556 7.55437L95.955 7.55378L95.9547 7.55352ZM58.7588 10.4116C58.7587 10.4115 58.7587 10.4115 58.7869 10.324C58.8151 10.2364 58.815 10.2364 58.815 10.2364L58.8156 10.2365L58.8177 10.2372L58.8267 10.24C58.8348 10.2425 58.8472 10.2462 58.8636 10.2509C58.8964 10.2603 58.9454 10.2737 59.0092 10.2896C59.1368 10.3213 59.3237 10.3628 59.5594 10.401C60.0307 10.4775 60.6961 10.5411 61.4707 10.4892C63.019 10.3854 65.0033 9.82038 66.752 7.97272L66.8857 8.0992C65.0984 9.98754 63.0668 10.5666 61.483 10.6728C60.6917 10.7258 60.012 10.6609 59.5299 10.5826C59.2887 10.5435 59.0968 10.501 58.9648 10.4682C58.8987 10.4517 58.8476 10.4377 58.8129 10.4277C58.7955 10.4228 58.7821 10.4188 58.773 10.416L58.7626 10.4128L58.7598 10.4119L58.759 10.4117L58.7588 10.4116ZM62.9883 11.3204C62.9882 11.3204 62.9882 11.3204 62.9629 11.232L62.9375 11.1435L62.938 11.1434L62.9399 11.1428L62.9474 11.1406C62.9541 11.1387 62.9641 11.1357 62.9774 11.1317C63.0039 11.1237 63.0431 11.1116 63.0936 11.0955C63.1946 11.0632 63.3408 11.0145 63.5206 10.9495C63.8803 10.8194 64.3741 10.6238 64.9105 10.3618C65.9867 9.83615 67.2196 9.05028 67.8935 8.0022L68.0482 8.10172C67.3462 9.19363 66.075 9.99777 64.9912 10.5271C64.4476 10.7927 63.9474 10.9908 63.5832 11.1225C63.401 11.1884 63.2526 11.2378 63.1496 11.2707C63.0981 11.2872 63.058 11.2996 63.0306 11.3078C63.0169 11.312 63.0064 11.3151 62.9993 11.3172L62.9911 11.3196L62.9883 11.3204ZM98.535 8.1698C98.5349 8.16977 98.5349 8.16974 98.5949 8.09996C98.6548 8.03018 98.6548 8.03016 98.6548 8.03014L98.6555 8.03074L98.6584 8.03322C98.6612 8.0355 98.6654 8.03902 98.6712 8.04373C98.6828 8.05313 98.7006 8.06726 98.7245 8.08556C98.7725 8.12217 98.8453 8.17552 98.9436 8.24133C99.1402 8.37296 99.4384 8.55447 99.8427 8.75178C100.651 9.14636 101.884 9.60439 103.576 9.85294L103.549 10.035C101.838 9.78353 100.587 9.31956 99.762 8.91714C99.3498 8.71595 99.0443 8.53021 98.8412 8.39421C98.7397 8.32621 98.6638 8.27065 98.6129 8.23181C98.5875 8.21239 98.5683 8.19715 98.5553 8.18663C98.5488 8.18136 98.5439 8.17728 98.5405 8.17444L98.5365 8.17113L98.535 8.1698ZM65.8553 11.3675C65.8553 11.3676 65.8553 11.3676 65.8029 11.292L65.7505 11.2163L65.7521 11.2152L65.7572 11.2117C65.7617 11.2085 65.7685 11.2037 65.7774 11.1974C65.7953 11.1849 65.8216 11.1662 65.8556 11.1418C65.9234 11.093 66.0215 11.0216 66.1419 10.9311C66.3829 10.7502 66.7133 10.4934 67.0708 10.1898C67.7884 9.58057 68.6058 8.79111 69.0354 8.05366L69.1944 8.14626C68.7479 8.91281 67.9093 9.71935 67.1899 10.3301C66.8289 10.6366 66.4956 10.8957 66.2524 11.0783C66.1308 11.1696 66.0317 11.2418 65.9629 11.2912C65.9285 11.3159 65.9017 11.3349 65.8834 11.3478C65.8743 11.3543 65.8673 11.3592 65.8626 11.3625L65.8572 11.3662L65.8558 11.3672L65.8553 11.3675ZM95.2272 8.31606C95.2271 8.31604 95.2271 8.31603 95.2789 8.23996C95.3306 8.16389 95.3306 8.16388 95.3306 8.16389L95.3312 8.1643L95.3335 8.16583L95.343 8.17215C95.3515 8.17776 95.3642 8.18608 95.3809 8.19673C95.4143 8.21803 95.4634 8.24861 95.5257 8.28532C95.6504 8.35877 95.8276 8.45652 96.037 8.55347C96.4583 8.7485 96.9999 8.9355 97.5048 8.92398L97.509 9.10794C96.9619 9.12042 96.3895 8.91942 95.9597 8.72045C95.7436 8.6204 95.561 8.51965 95.4324 8.44385C95.368 8.40594 95.317 8.3742 95.282 8.35185C95.2644 8.34067 95.2509 8.33183 95.2417 8.32573L95.231 8.31868L95.2282 8.31678L95.2275 8.31626L95.2272 8.31606ZM97.7539 8.88909C97.7538 8.88905 97.7538 8.88901 97.8189 8.82396C97.8839 8.75891 97.8839 8.75888 97.8839 8.75886L97.8846 8.75955L97.8875 8.76239C97.8892 8.76407 97.8916 8.76634 97.8945 8.76917C97.8962 8.77074 97.898 8.77249 97.9001 8.7744C97.9114 8.78514 97.9288 8.80122 97.9523 8.82199C97.9992 8.86354 98.0703 8.92385 98.1659 8.99765C98.3569 9.14527 98.6457 9.34684 99.0342 9.56034C99.8109 9.98725 100.987 10.4621 102.578 10.6486L102.556 10.8313C100.939 10.6418 99.7408 10.1587 98.9456 9.72158C98.548 9.50309 98.2513 9.29615 98.0534 9.14327C97.9544 9.06682 97.8801 9.00388 97.8303 8.95974C97.8054 8.93767 97.7866 8.9203 97.7738 8.90829C97.7675 8.90229 97.7626 8.89762 97.7593 8.89438L97.7554 8.8906L97.7543 8.88953L97.7539 8.88909ZM94.5521 8.97122C94.5521 8.97119 94.552 8.97116 94.6149 8.90396C94.6777 8.83676 94.6777 8.83674 94.6777 8.83671L94.678 8.83708L94.6798 8.8387C94.6815 8.84021 94.684 8.84254 94.6875 8.84565C94.6945 8.85186 94.705 8.86116 94.719 8.87306C94.747 8.89687 94.7887 8.93103 94.8425 8.97168C94.9502 9.05305 95.106 9.15997 95.2975 9.26171C95.6819 9.46587 96.2026 9.64508 96.7659 9.56488L96.7918 9.74704C96.1751 9.83484 95.6138 9.63805 95.2112 9.42421C95.0093 9.31695 94.8453 9.20437 94.7316 9.11849C94.6747 9.07551 94.6303 9.03911 94.5999 9.01326C94.5847 9.00033 94.5729 8.99003 94.5649 8.98285C94.5623 8.98052 94.5601 8.97851 94.5582 8.97686L94.5556 8.97448L94.5531 8.97217L94.5524 8.9715L94.5521 8.97122ZM97.115 9.44538C97.1149 9.44531 97.1149 9.44525 97.1869 9.38796C97.2588 9.33066 97.2588 9.33062 97.2588 9.33057L97.2603 9.33241C97.2617 9.33413 97.2641 9.33697 97.2676 9.34089C97.2744 9.34872 97.2854 9.36084 97.3009 9.37685C97.3319 9.40887 97.3809 9.45647 97.4513 9.51643C97.592 9.63634 97.8183 9.80582 98.1565 9.99908C98.8329 10.3856 99.9576 10.8675 101.742 11.2379L101.704 11.418C99.9042 11.0444 98.7608 10.5563 98.0652 10.1588C97.7174 9.9601 97.4817 9.78408 97.3319 9.65649C97.2571 9.5927 97.2037 9.54105 97.1686 9.50476C97.1511 9.48661 97.1381 9.47231 97.1293 9.46226C97.1249 9.45723 97.1215 9.45327 97.1191 9.45042L97.1163 9.44698L97.1154 9.4459L97.115 9.44538ZM93.862 9.65397C93.8693 9.64547 93.8842 9.62797 93.9149 9.59196C93.9745 9.52195 93.9745 9.52193 93.9745 9.5219L93.9748 9.52217L93.9763 9.52343L93.983 9.52896C93.9891 9.53393 93.9985 9.54142 94.0109 9.55107C94.0358 9.57037 94.073 9.59827 94.1215 9.63191C94.2186 9.69923 94.3607 9.7893 94.5393 9.87931C94.8969 10.0596 95.3974 10.2379 95.9746 10.236L95.9752 10.42C95.3603 10.422 94.8308 10.2323 94.4564 10.0436C94.269 9.94912 94.1196 9.85444 94.0167 9.78313C93.9652 9.74746 93.9253 9.71758 93.8981 9.69643C93.8844 9.68585 93.874 9.67745 93.8668 9.67158C93.8632 9.66865 93.8604 9.66635 93.8585 9.66474L93.8562 9.66283L93.8555 9.66226L93.8553 9.66208C93.8553 9.66207 93.8552 9.66199 93.862 9.65397ZM93.2834 10.2254C93.2834 10.2254 93.2834 10.2253 93.3389 10.152C93.3943 10.0786 93.3943 10.0786 93.3943 10.0786L93.3948 10.0789L93.3967 10.0803L93.4047 10.0862C93.4118 10.0914 93.4226 10.0992 93.4367 10.1092C93.465 10.1292 93.5068 10.158 93.5598 10.1924C93.6661 10.2614 93.8174 10.3531 93.9973 10.4438C94.3595 10.6264 94.8268 10.7992 95.2717 10.784L95.278 10.9679C94.7869 10.9847 94.2862 10.7955 93.9144 10.6081C93.7273 10.5138 93.5701 10.4185 93.4596 10.3467C93.4043 10.3108 93.3606 10.2808 93.3306 10.2595C93.3155 10.2489 93.3039 10.2405 93.296 10.2347L93.2868 10.2279L93.2844 10.2261L93.2837 10.2256L93.2834 10.2254Z" fill="black"/>
<path fill-rule="evenodd" clip-rule="evenodd" d="M108.254 1.6795C108.254 1.67949 108.254 1.67949 108.263 1.58799L108.273 1.49648L108.273 1.49649L108.273 1.49653L108.275 1.49668L108.281 1.49732C108.287 1.49789 108.296 1.49872 108.308 1.49976C108.331 1.50185 108.366 1.50479 108.412 1.50815C108.504 1.51488 108.639 1.52328 108.812 1.52993C109.159 1.54322 109.659 1.54945 110.268 1.52109C111.487 1.46434 113.141 1.26922 114.888 0.716278L114.943 0.891695C113.178 1.45075 111.506 1.64763 110.277 1.70489C109.662 1.73352 109.157 1.72726 108.805 1.71379C108.63 1.70706 108.492 1.69853 108.398 1.69166C108.352 1.68823 108.316 1.68521 108.291 1.68303C108.279 1.68195 108.27 1.68107 108.264 1.68046L108.256 1.67976L108.255 1.67957L108.254 1.67951L108.254 1.6795Z" fill="black"/>
<path fill-rule="evenodd" clip-rule="evenodd" d="M110.333 1.69819C110.333 1.69818 110.333 1.69817 110.351 1.60798L110.37 1.51779L110.37 1.51793L110.373 1.51841L110.383 1.52037C110.392 1.52211 110.405 1.5247 110.424 1.52806C110.46 1.53477 110.515 1.54454 110.588 1.55668C110.733 1.58095 110.951 1.61468 111.238 1.65232C111.812 1.7276 112.665 1.81851 113.776 1.88062C115.999 2.00486 119.257 2.01394 123.393 1.55255L123.414 1.73541C119.266 2.19802 115.998 2.1891 113.766 2.06434C112.65 2.00195 111.793 1.91061 111.214 1.83476C110.925 1.79684 110.705 1.76279 110.557 1.73817C110.484 1.72586 110.428 1.71591 110.39 1.70901C110.372 1.70556 110.357 1.70288 110.348 1.70104L110.337 1.69894L110.334 1.69838L110.334 1.69823L110.333 1.69819ZM67.1501 11.2608C67.15 11.2608 67.15 11.2608 67.0994 11.184L67.0488 11.1071L67.0502 11.1063L67.0546 11.1033C67.0585 11.1007 67.0644 11.0968 67.0721 11.0915C67.0877 11.0811 67.1107 11.0654 67.1404 11.0448C67.1998 11.0037 67.2858 10.9431 67.3919 10.8652C67.6042 10.7094 67.8964 10.4849 68.216 10.2102C68.8569 9.6594 69.6008 8.91308 70.0347 8.11983L70.1961 8.20813C69.7461 9.03088 68.9819 9.79456 68.3359 10.3498C68.012 10.6281 67.7159 10.8556 67.5008 11.0135C67.3932 11.0925 67.3058 11.1542 67.2451 11.1961C67.2148 11.2171 67.1912 11.2332 67.175 11.2441C67.167 11.2495 67.1608 11.2537 67.1566 11.2565L67.1518 11.2597L67.1505 11.2605L67.1501 11.2608ZM68.7595 10.99C68.7595 10.99 68.7595 10.99 68.6954 10.924L68.6314 10.8579L68.6325 10.8568L68.6361 10.8533L68.6504 10.8393C68.663 10.827 68.6815 10.8088 68.7053 10.7852C68.753 10.7379 68.8216 10.6692 68.9057 10.5835C69.0737 10.412 69.3029 10.1727 69.5476 9.90137C70.0396 9.35584 70.585 8.69063 70.8286 8.18787L70.9942 8.26809C70.7378 8.79733 70.1753 9.48012 69.6842 10.0246C69.4374 10.2983 69.2064 10.5395 69.0371 10.7122C68.9524 10.7987 68.8831 10.868 68.8349 10.9158C68.8108 10.9397 68.792 10.9582 68.7792 10.9707L68.7646 10.9851L68.7608 10.9887L68.7598 10.9897L68.7595 10.99ZM70.3409 10.5644C70.3409 10.5644 70.3409 10.5644 70.2794 10.496L70.218 10.4275L70.2182 10.4274L70.2189 10.4267L70.2218 10.4241L70.2334 10.4136C70.2436 10.4042 70.2587 10.3903 70.2781 10.3723C70.3169 10.3363 70.3728 10.2837 70.441 10.2179C70.5773 10.086 70.7622 9.90112 70.9566 9.68884C71.349 9.26036 71.7676 8.73373 71.9166 8.30948L72.0902 8.37048C71.9273 8.83423 71.4838 9.3856 71.0923 9.81312C70.8947 10.0288 70.7071 10.2164 70.5689 10.3501C70.4998 10.417 70.4429 10.4704 70.4033 10.5072C70.3835 10.5256 70.368 10.5398 70.3574 10.5495L70.3452 10.5605L70.3421 10.5634L70.3412 10.5641L70.3409 10.5644Z" fill="black"/>
<path fill-rule="evenodd" clip-rule="evenodd" d="M105.211 1.49758C105.211 1.49754 105.211 1.4975 105.271 1.42796C105.331 1.35842 105.331 1.35839 105.331 1.35837L105.331 1.35876L105.334 1.36079C105.336 1.36268 105.34 1.36567 105.345 1.3697C105.355 1.37776 105.37 1.38999 105.391 1.406C105.434 1.43803 105.499 1.4852 105.59 1.54441C105.771 1.66282 106.052 1.82943 106.45 2.01942C107.247 2.39939 108.512 2.87309 110.377 3.24171L110.341 3.42222C108.462 3.05083 107.183 2.57253 106.371 2.1855C105.965 1.99199 105.677 1.82135 105.489 1.69839C105.395 1.63691 105.326 1.58736 105.28 1.55284C105.258 1.53558 105.24 1.52208 105.229 1.51273C105.223 1.50805 105.219 1.50441 105.216 1.50186L105.212 1.49885L105.211 1.49797L105.211 1.49758ZM107.337 1.69598C107.337 1.69596 107.337 1.69594 107.383 1.61596L107.428 1.53597L107.428 1.5361L107.429 1.53666L107.434 1.53905C107.438 1.5412 107.443 1.54445 107.451 1.54876C107.467 1.55736 107.491 1.57016 107.522 1.58666C107.585 1.61966 107.68 1.66748 107.803 1.72627C108.05 1.84386 108.414 2.00529 108.882 2.17976C109.818 2.52875 111.167 2.92972 112.818 3.13667L112.795 3.31925C111.127 3.1102 109.764 2.70517 108.818 2.35216C108.344 2.17564 107.975 2.01207 107.724 1.8924C107.598 1.83256 107.502 1.7837 107.437 1.74967C107.405 1.73265 107.38 1.71935 107.363 1.71023C107.355 1.70567 107.348 1.70216 107.344 1.69976L107.339 1.697L107.337 1.69598ZM109.554 1.71635C109.554 1.71634 109.554 1.71633 109.591 1.63196L109.627 1.5476L109.629 1.54842L109.636 1.55107C109.641 1.55343 109.649 1.55697 109.66 1.56161C109.682 1.57089 109.715 1.58457 109.758 1.60205C109.844 1.63702 109.971 1.68717 110.133 1.74766C110.457 1.86864 110.921 2.03091 111.483 2.19568C112.606 2.52545 114.116 2.86427 115.665 2.90399L115.66 3.08793C114.09 3.04765 112.563 2.70447 111.431 2.37224C110.864 2.20602 110.396 2.04228 110.069 1.92002C109.905 1.85888 109.777 1.80809 109.689 1.77252C109.645 1.75474 109.612 1.74076 109.589 1.73119C109.578 1.72641 109.569 1.72273 109.563 1.72022L109.556 1.71736L109.555 1.71661L109.554 1.71635ZM112.837 2.00142C112.837 2.00141 112.837 2.00141 112.859 1.91196L112.88 1.82252L112.881 1.82262L112.882 1.82298L112.889 1.82447C112.894 1.8258 112.903 1.82778 112.914 1.83037C112.937 1.83554 112.97 1.84315 113.015 1.85278C113.104 1.87204 113.235 1.8994 113.404 1.93165C113.743 1.99616 114.234 2.08023 114.841 2.15821C116.055 2.31421 117.733 2.44572 119.59 2.34809L119.6 2.53183C117.729 2.6302 116.039 2.49771 114.817 2.34071C114.206 2.2622 113.712 2.17751 113.37 2.1124C113.199 2.07984 113.066 2.05217 112.976 2.0326C112.931 2.02281 112.896 2.01505 112.873 2.00972C112.861 2.00706 112.852 2.005 112.846 2.00359L112.84 2.00199L112.837 2.00142ZM68.806 6.60719L68.7668 6.52396C68.7276 6.44074 68.7276 6.44073 68.7276 6.44071L68.728 6.44052L68.7292 6.43998L68.7335 6.43796C68.7373 6.43619 68.7429 6.43361 68.7503 6.43024C68.7651 6.4235 68.7869 6.41363 68.8156 6.40095C68.8731 6.3756 68.9579 6.33903 69.0683 6.29383C69.289 6.20342 69.6118 6.07849 70.0213 5.93982C70.8401 5.66252 72.0062 5.33007 73.3963 5.1091L73.4252 5.29082C72.0473 5.50985 70.8914 5.8394 70.0803 6.1141C69.6748 6.25143 69.3556 6.375 69.138 6.4641C69.0293 6.50864 68.9459 6.54457 68.89 6.56928C68.862 6.58164 68.8408 6.59119 68.8267 6.59762C68.8197 6.60083 68.8144 6.60326 68.811 6.60487L68.8071 6.60666L68.8062 6.60708L68.806 6.60719ZM73.0669 6.44058L73.0308 6.35596C72.9947 6.27135 72.9947 6.27133 72.9947 6.27132L72.9953 6.27108L72.9969 6.27041L73.0029 6.2679C73.0057 6.26673 73.0092 6.26526 73.0134 6.26351C73.0171 6.26201 73.0212 6.2603 73.0259 6.25838C73.0461 6.25011 73.076 6.23807 73.1151 6.22284C73.1933 6.19237 73.3081 6.14911 73.4557 6.0976C73.7509 5.99458 74.1773 5.85851 74.7033 5.72576C75.7548 5.46035 77.2068 5.20765 78.8058 5.26001L78.7998 5.44391C77.2228 5.39227 75.7887 5.64157 74.7483 5.90416C74.2283 6.03541 73.8072 6.16984 73.5163 6.27132C73.371 6.32206 73.2582 6.36455 73.182 6.39427C73.1438 6.40913 73.1149 6.4208 73.0955 6.4287C73.091 6.43056 73.087 6.43222 73.0835 6.43365C73.0796 6.43527 73.0763 6.43661 73.0738 6.43767L73.0685 6.43991L73.0672 6.44044L73.0669 6.44058ZM66.2549 7.12275L66.2148 7.03996C66.1747 6.95716 66.1747 6.95716 66.1747 6.95714L66.1767 6.95619L66.1824 6.95344L66.2047 6.9428C66.2243 6.9335 66.2532 6.91984 66.2908 6.90236C66.3659 6.86738 66.4757 6.81707 66.6145 6.75554C66.8921 6.6325 67.286 6.46453 67.7516 6.28464C68.682 5.92524 69.9027 5.5167 71.0557 5.3252L71.0859 5.50672C69.9509 5.69522 68.7436 6.09868 67.8179 6.45628C67.3556 6.63489 66.9645 6.80167 66.6891 6.92376C66.5514 6.98479 66.4426 7.03463 66.3684 7.06918C66.3313 7.08645 66.3028 7.09989 66.2837 7.10899L66.262 7.11932L66.2566 7.12193L66.2549 7.12275ZM74.8018 6.39704C74.8018 6.39704 74.8018 6.39703 74.7668 6.31196C74.7318 6.22689 74.7318 6.22688 74.7318 6.22686L74.7323 6.22665L74.7337 6.2261L74.7386 6.22413C74.7429 6.22242 74.7491 6.21995 74.7573 6.21677C74.7737 6.2104 74.798 6.20118 74.8301 6.18953C74.8942 6.16624 74.9893 6.13325 75.1145 6.09399C75.3649 6.01546 75.7358 5.91181 76.2199 5.81042C77.1881 5.60762 78.609 5.41384 80.4245 5.44798L80.421 5.63195C78.6205 5.59809 77.2135 5.7903 76.2576 5.99051C75.7797 6.09061 75.4146 6.19272 75.1696 6.26956C75.047 6.30798 74.9545 6.34009 74.8929 6.36247C74.8621 6.37366 74.8391 6.38242 74.8238 6.38832C74.8202 6.38974 74.817 6.39099 74.8142 6.39207C74.8113 6.39324 74.8088 6.39421 74.8069 6.39498L74.8029 6.3966L74.802 6.39697L74.8018 6.39704ZM76.3349 6.46574L76.3148 6.37596C76.2947 6.28618 76.2947 6.28617 76.2948 6.28616L76.2975 6.28555L76.3055 6.28381C76.3125 6.28228 76.3228 6.28004 76.3364 6.27715C76.3636 6.27136 76.4038 6.26296 76.456 6.25244C76.5604 6.23141 76.7131 6.20193 76.9064 6.16797C77.2929 6.10007 77.8424 6.01427 78.4947 5.94251C79.7984 5.79911 81.5168 5.71138 83.1672 5.93681L83.1423 6.11911C81.5128 5.89655 79.8111 5.98282 78.5148 6.12541C77.8671 6.19666 77.3216 6.28185 76.9382 6.3492C76.7465 6.38287 76.5954 6.41207 76.4923 6.43282C76.4408 6.4432 76.4013 6.45146 76.3747 6.45712C76.3614 6.45994 76.3514 6.46212 76.3447 6.46357L76.3372 6.46522L76.3354 6.46562L76.3349 6.46574ZM81.2077 7.11583C81.2077 7.11583 81.2077 7.11583 81.2028 7.02396C81.2 6.97274 81.1988 6.95008 81.1983 6.94005C81.1979 6.93209 81.1979 6.93209 81.1979 6.93209L81.2094 6.9315L81.2427 6.92985C81.272 6.92844 81.3153 6.92644 81.3713 6.92407C81.4833 6.91932 81.6462 6.91311 81.8499 6.90719C82.2573 6.89535 82.8284 6.8847 83.483 6.88946C84.7909 6.89897 86.4373 6.96999 87.7795 7.21749L87.7461 7.39844C86.4202 7.15393 84.7867 7.08295 83.4816 7.07346C82.8297 7.06872 82.261 7.07932 81.8553 7.09111C81.6524 7.097 81.4904 7.10319 81.3791 7.1079C81.3235 7.11026 81.2806 7.11224 81.2516 7.11364L81.2187 7.11526L81.2077 7.11583ZM63.4023 8.35386C63.4024 8.35385 63.4024 8.35385 63.3828 8.26396C63.3632 8.17407 63.3632 8.17406 63.3633 8.17405L63.364 8.17389L63.366 8.17347L63.3733 8.17195C63.3797 8.17064 63.3891 8.16875 63.4016 8.16635C63.4266 8.16154 63.4638 8.15469 63.5136 8.14636C63.6131 8.12969 63.7628 8.10706 63.9651 8.08292C64.3697 8.03465 64.9844 7.98033 65.8281 7.9555C67.5153 7.90585 70.1182 7.97415 73.7865 8.44471L73.7631 8.62721C70.1034 8.15777 67.5102 8.09008 65.8335 8.13942C64.9951 8.16409 64.3859 8.21803 63.9869 8.26563C63.7875 8.28943 63.6406 8.31164 63.5439 8.32783C63.4956 8.33592 63.4599 8.34251 63.4364 8.34703C63.4246 8.34929 63.4159 8.35104 63.4103 8.3522L63.4041 8.35349L63.4023 8.35386ZM85.851 8.20787L85.8468 8.11596C85.8426 8.02406 85.8426 8.02406 85.8426 8.02406L85.8448 8.02396L85.851 8.0237C85.8564 8.02349 85.8643 8.02318 85.8748 8.02281C85.8958 8.02208 85.9269 8.02112 85.9674 8.02017C86.0485 8.01828 86.1676 8.01646 86.3201 8.01671C86.6252 8.01721 87.0641 8.02601 87.6009 8.05914C88.6743 8.12537 90.1401 8.28897 91.709 8.67867L91.6646 8.85725C90.1095 8.47095 88.6552 8.30855 87.5896 8.24279C87.0569 8.20991 86.6216 8.20121 86.3198 8.20071C86.1689 8.20046 86.0514 8.20227 85.9717 8.20412C85.9319 8.20505 85.9016 8.206 85.8812 8.2067C85.8711 8.20706 85.8634 8.20735 85.8584 8.20755L85.8527 8.20779L85.851 8.20787ZM88.2281 9.44501C88.2266 9.43277 88.2239 9.41008 88.2188 9.36796C88.2132 9.3217 88.2104 9.29887 88.2091 9.2876C88.2078 9.27662 88.2078 9.27662 88.2078 9.27662L88.2082 9.27657L88.2092 9.27646L88.2124 9.2761C88.2151 9.2758 88.219 9.2754 88.224 9.27491C88.2341 9.27393 88.2487 9.27263 88.2677 9.27126C88.3057 9.26851 88.3611 9.26548 88.4321 9.26416C88.574 9.26154 88.7784 9.26579 89.0306 9.29299C89.5351 9.3474 90.2314 9.49371 91.0023 9.8609L90.9232 10.027C90.1741 9.67021 89.4985 9.52852 89.0109 9.47593C88.7671 9.44964 88.5705 9.44563 88.4355 9.44813C88.368 9.44938 88.3159 9.45226 88.281 9.45478C88.2635 9.45604 88.2504 9.45721 88.2418 9.45805C88.2375 9.45846 88.2343 9.4588 88.2323 9.45901L88.2302 9.45925L88.2298 9.4593C88.2298 9.4593 88.2298 9.4593 88.2281 9.44501Z" fill="black"/>
<path fill-rule="evenodd" clip-rule="evenodd" d="M92.1663 9.00288C90.7318 10.357 88.7692 11.8295 85.8993 13.3967L85.8821 13.4061L85.8627 13.4077C85.1187 13.4687 84.305 13.3669 83.4609 13.2349L83.4894 13.0531C84.3257 13.1839 85.1134 13.2815 85.8283 13.2258C88.677 11.6686 90.6214 10.2082 92.04 8.86908L92.1663 9.00288Z" fill="black"/>
<path d="M69.6287 57.5233C66.8308 57.1429 64.1451 56.1744 61.7484 54.6815C59.3517 53.1886 57.2983 51.2051 55.7233 48.8615C58.1773 50.2582 60.8993 51.1194 63.7101 51.3885C66.5209 51.6576 69.3568 51.3285 72.0312 50.4228" fill="#FDD406"/>
<path fill-rule="evenodd" clip-rule="evenodd" d="M55.4286 48.5879L55.7689 48.7815C58.2116 50.1718 60.921 51.029 63.7189 51.2969C66.5168 51.5648 69.3396 51.2371 72.0018 50.3356L72.0608 50.5099C69.374 51.4198 66.5251 51.7504 63.7014 51.4801C61.0079 51.2222 58.3956 50.4231 56.0207 49.1322C57.5577 51.3249 59.522 53.1862 61.7971 54.6034C64.1828 56.0894 66.8561 57.0535 69.6411 57.4321L69.6163 57.6145C66.8055 57.2323 64.1075 56.2593 61.6998 54.7596C59.2921 53.2598 57.2292 51.2671 55.647 48.9128L55.4286 48.5879Z" fill="black"/>
<path d="M69.5124 62.2819L52.7833 56.9677L70.204 54.8178" fill="#FDD406"/>
<path fill-rule="evenodd" clip-rule="evenodd" d="M52.3541 56.9279L70.1925 54.7265L70.2151 54.9091L53.2121 57.0074L69.54 62.1942L69.4843 62.3695L52.3541 56.9279Z" fill="black"/>
<path d="M72.0325 50.421C69.561 49.0555 67.4067 47.1821 65.7113 44.9241C64.0159 42.6661 62.8178 40.0746 62.196 37.3203C63.9796 39.5093 66.2065 41.2958 68.7302 42.5623C71.2539 43.8287 74.0172 44.5464 76.8382 44.6682" fill="#FDD406"/>
<path fill-rule="evenodd" clip-rule="evenodd" d="M62.0197 36.9587L62.267 37.2622C64.0424 39.4411 66.2591 41.2194 68.7712 42.48C71.2833 43.7406 74.0338 44.4551 76.8419 44.5763L76.8339 44.7601C73.9999 44.6378 71.224 43.9167 68.6887 42.6445C66.2703 41.4309 64.1232 39.742 62.3752 37.6802C63.016 40.2801 64.1752 42.7253 65.7846 44.8688C67.4722 47.1164 69.6166 48.9812 72.0767 50.3405L71.9877 50.5015C69.5049 49.1297 67.3406 47.2477 65.6374 44.9793C63.9342 42.7109 62.7307 40.1076 62.1059 37.3406L62.0197 36.9587Z" fill="black"/>
<path d="M70.2043 54.8159L56.5253 43.8165L73.546 48.106" fill="#FDD406"/>
<path fill-rule="evenodd" clip-rule="evenodd" d="M56.1396 43.6245L73.5684 48.0168L73.5234 48.1952L56.911 44.0086L70.2619 54.7442L70.1466 54.8876L56.1396 43.6245Z" fill="black"/>
<path d="M76.8366 44.6692C75.0251 42.5032 73.6927 39.9783 72.9272 37.2604C72.1617 34.5425 71.9803 31.6933 72.3951 28.9003C73.2678 31.5857 74.6993 34.0558 76.5953 36.1482C78.4913 38.2406 80.8089 39.9078 83.3956 41.0401" fill="#FDD406"/>
<path fill-rule="evenodd" clip-rule="evenodd" d="M72.3619 28.4995L72.4829 28.8718C73.3516 31.5449 74.7765 34.0037 76.6638 36.0864C78.5511 38.1692 80.858 39.8287 83.4328 40.9558L83.359 41.1244C80.7604 39.9868 78.4322 38.312 76.5274 36.21C74.7106 34.2049 73.3183 31.8546 72.4328 29.3007C72.0915 31.9566 72.2894 34.6554 73.0161 37.2354C73.7781 39.9408 75.1043 42.4542 76.9075 44.6102L76.7664 44.7282C74.9465 42.5523 73.608 40.0157 72.839 37.2853C72.0699 34.5549 71.8877 31.6926 72.3044 28.8868L72.3619 28.4995Z" fill="black"/>
<path d="M73.5454 48.1072L64.7619 32.9102L79.0847 43.0569" fill="#FDD406"/>
<path fill-rule="evenodd" clip-rule="evenodd" d="M64.4709 32.5918L79.1372 42.9819L79.0308 43.132L65.0514 33.2286L73.6243 48.0612L73.465 48.1533L64.4709 32.5918Z" fill="black"/>
<path d="M83.3976 41.0395C82.491 38.3653 82.1609 35.5295 82.4291 32.7187C82.6972 29.9078 83.5575 27.1855 84.9534 24.731C84.7969 27.5503 85.2392 30.3708 86.2512 33.0069C87.2632 35.643 88.8218 38.0349 90.8247 40.0253" fill="#FDD406"/>
<path fill-rule="evenodd" clip-rule="evenodd" d="M85.0671 24.3452L85.0454 24.7361C84.8897 27.5425 85.3299 30.35 86.3372 32.9739C87.3446 35.5979 88.8961 37.9788 90.8897 39.96L90.76 40.0905C88.7479 38.091 87.1821 35.6881 86.1655 33.0399C85.1958 30.5138 84.7467 27.8192 84.8438 25.1179C83.5659 27.4711 82.7753 30.0591 82.5208 32.7274C82.2539 35.5253 82.5825 38.3481 83.4849 41.0099L83.3106 41.069C82.3999 38.3826 82.0683 35.5337 82.3376 32.7099C82.607 29.8861 83.4713 27.1513 84.8736 24.6855L85.0671 24.3452Z" fill="black"/>
<path d="M79.086 43.0559L76.3865 25.7119L86.0759 40.3481" fill="#FDD406"/>
<path fill-rule="evenodd" clip-rule="evenodd" d="M76.2311 25.3102L86.1528 40.2973L85.9994 40.3989L76.5423 26.1137L79.1771 43.0418L78.9953 43.0701L76.2311 25.3102Z" fill="black"/>
<path d="M90.8273 40.0254C90.9481 37.2043 91.6649 34.4408 92.9305 31.9167C94.1961 29.3925 95.9818 27.165 98.1702 25.3806C97.0057 27.953 96.3991 30.7427 96.3903 33.5664C96.3815 36.39 96.9707 39.1835 98.1191 41.763" fill="#FDD406"/>
<path fill-rule="evenodd" clip-rule="evenodd" d="M98.415 25.062L98.2535 25.4186C97.0944 27.9791 96.4906 30.756 96.4818 33.5667C96.4731 36.3773 97.0596 39.158 98.2027 41.7256L98.0346 41.8005C96.8809 39.2091 96.289 36.4027 96.2978 33.5661C96.3063 30.8603 96.8611 28.1855 97.9276 25.7017C95.8859 27.4343 94.2137 29.5618 93.0123 31.9579C91.7525 34.4704 91.039 37.2212 90.9188 40.0293L90.7349 40.0214C90.8563 37.1874 91.5764 34.4112 92.8478 31.8754C94.1192 29.3397 95.9132 27.1019 98.1116 25.3093L98.415 25.062Z" fill="black"/>
<path d="M86.0779 40.3477L89.8271 23.2L93.5739 40.3483" fill="#FDD406"/>
<path fill-rule="evenodd" clip-rule="evenodd" d="M89.8271 22.7691L93.6638 40.3286L93.484 40.3679L89.8271 23.6308L86.1678 40.3674L85.988 40.3281L89.8271 22.7691Z" fill="black"/>
<path d="M98.1171 41.7624C99.2485 39.1754 100.915 36.8572 103.007 34.9605C105.098 33.0638 107.568 31.6315 110.253 30.7578C108.238 32.736 106.665 35.1184 105.637 37.7483C104.609 40.3782 104.15 43.196 104.289 46.0162" fill="#FDD406"/>
<path fill-rule="evenodd" clip-rule="evenodd" d="M110.597 30.5492L110.318 30.8235C108.312 32.7926 106.747 35.164 105.723 37.7818C104.7 40.3996 104.243 43.2044 104.382 46.0116L104.198 46.0207C104.058 43.1875 104.519 40.3568 105.552 37.7148C106.537 35.1947 108.02 32.9008 109.912 30.9698C107.382 31.8481 105.055 33.2282 103.069 35.0286C100.987 36.9167 99.328 39.2241 98.2018 41.7993L98.0332 41.7256C99.1698 39.1266 100.844 36.7978 102.945 34.8923C105.047 32.9869 107.528 31.548 110.225 30.6703L110.597 30.5492Z" fill="black"/>
<path d="M93.5727 40.348L103.262 25.7114L100.563 43.0555" fill="#FDD406"/>
<path fill-rule="evenodd" clip-rule="evenodd" d="M103.417 25.3097L100.653 43.0697L100.471 43.0414L103.105 26.1132L93.6489 40.3988L93.4955 40.2972L103.417 25.3097Z" fill="black"/>
<path d="M104.291 46.0176C106.281 44.0141 108.673 42.4546 111.308 41.4418C113.944 40.4289 116.764 39.9856 119.584 40.1411C116.99 41.2577 114.663 42.9108 112.754 44.9917C110.845 47.0725 109.399 49.534 108.51 52.214" fill="#FDD406"/>
<path fill-rule="evenodd" clip-rule="evenodd" d="M119.979 40.0708L119.62 40.2256C117.038 41.3371 114.721 42.9826 112.821 45.0539C110.921 47.1252 109.482 49.5753 108.597 52.243L108.422 52.185C109.315 49.4927 110.768 47.0199 112.686 44.9295C114.515 42.9355 116.727 41.3325 119.188 40.2153C116.512 40.1203 113.843 40.5662 111.341 41.5276C108.717 42.5358 106.337 44.0881 104.356 46.0824L104.226 45.9528C106.225 43.94 108.627 42.3734 111.275 41.3559C113.923 40.3384 116.756 39.893 119.588 40.0492L119.979 40.0708Z" fill="black"/>
<path d="M100.564 43.0566L114.887 32.9093L106.104 48.1067" fill="#FDD406"/>
<path fill-rule="evenodd" clip-rule="evenodd" d="M115.177 32.5909L106.183 48.1527L106.024 48.0607L114.596 33.2277L100.617 43.1316L100.511 42.9815L115.177 32.5909Z" fill="black"/>
<path d="M108.51 52.2158C111.089 51.0665 113.883 50.4764 116.706 50.4842C119.53 50.4921 122.32 51.0977 124.893 52.2614C122.071 52.3655 119.303 53.066 116.772 54.3167C114.24 55.5674 112.002 57.3399 110.205 59.5177" fill="#FDD406"/>
<path fill-rule="evenodd" clip-rule="evenodd" d="M125.287 52.3389L124.895 52.3533C122.087 52.457 119.332 53.1542 116.812 54.3992C114.292 55.6441 112.064 57.4085 110.275 59.5763L110.133 59.4592C111.939 57.2714 114.187 55.4906 116.73 54.2342C119.156 53.0357 121.798 52.3402 124.497 52.1877C122.036 51.1323 119.386 50.5837 116.705 50.5762C113.895 50.5684 111.114 51.1558 108.547 52.2999L108.472 52.1318C111.063 50.9772 113.869 50.3844 116.706 50.3922C119.542 50.4001 122.345 51.0086 124.93 52.1775L125.287 52.3389Z" fill="black"/>
<path d="M106.104 48.1083L123.125 43.8212L109.445 54.8187" fill="#FDD406"/>
<path fill-rule="evenodd" clip-rule="evenodd" d="M123.511 43.6292L109.503 54.8904L109.387 54.747L122.74 44.0132L106.127 48.1975L106.082 48.0191L123.511 43.6292Z" fill="black"/>
<path d="M110.205 59.5162C113.025 59.3759 115.843 59.8343 118.473 60.8613C121.103 61.8884 123.486 63.4607 125.465 65.4749C122.796 64.553 119.962 64.2067 117.15 64.4588C114.338 64.7108 111.611 65.5555 109.148 66.9373" fill="#FDD406"/>
<path fill-rule="evenodd" clip-rule="evenodd" d="M125.805 65.6897L125.435 65.5619C122.778 64.6442 119.958 64.2995 117.158 64.5504C114.359 64.8013 111.644 65.6421 109.193 67.0176L109.103 66.8571C111.577 65.4689 114.316 64.6204 117.142 64.3671C119.837 64.1256 122.551 64.431 125.123 65.2635C123.209 63.3906 120.936 61.922 118.439 60.9471C115.821 59.9248 113.016 59.4684 110.209 59.6081L110.2 59.4243C113.033 59.2833 115.864 59.7439 118.506 60.7757C121.149 61.8074 123.543 63.387 125.531 65.4105L125.805 65.6897Z" fill="black"/>
<path d="M109.445 54.8172L126.865 56.9664L110.137 62.2812" fill="#FDD406"/>
<path fill-rule="evenodd" clip-rule="evenodd" d="M127.295 56.9266L110.165 62.3689L110.109 62.1935L126.437 57.0062L109.434 54.9085L109.456 54.7259L127.295 56.9266Z" fill="black"/>
<path d="M89.8248 80.8C101.091 80.8 110.225 71.6666 110.225 60.4C110.225 49.1334 101.091 40 89.8248 40C78.5582 40 69.4248 49.1334 69.4248 60.4C69.4248 71.6666 78.5582 80.8 89.8248 80.8Z" fill="#FDD406"/>
<path fill-rule="evenodd" clip-rule="evenodd" d="M89.824 40.092C78.6082 40.092 69.516 49.1842 69.516 60.4C69.516 71.6158 78.6082 80.708 89.824 80.708C101.04 80.708 110.132 71.6158 110.132 60.4C110.132 49.1842 101.04 40.092 89.824 40.092ZM69.332 60.4C69.332 49.0826 78.5066 39.908 89.824 39.908C101.141 39.908 110.316 49.0826 110.316 60.4C110.316 71.7174 101.141 80.892 89.824 80.892C78.5066 80.892 69.332 71.7174 69.332 60.4Z" fill="black"/>
<path d="M0 64.8H180V120H0V64.8Z" fill="#021455"/>
<path d="M0 73.3841V63.407C0.604881 63.2072 1.21061 62.986 1.81738 62.7433C10.9618 59.0856 20.2384 59.0856 29.3827 62.7433C36.2384 65.4856 42.9618 65.4856 49.8174 62.7433C59.0118 59.0656 68.6358 59.1237 78.4404 62.689C86.1808 65.5037 93.8193 65.5037 101.56 62.689C111.364 59.1237 120.988 59.0656 130.183 62.7433C137.038 65.4856 143.762 65.4856 150.617 62.7433C159.762 59.0856 169.038 59.0856 178.183 62.7433C178.789 62.986 179.395 63.2072 180 63.407V73.3841C178.202 72.9484 176.407 72.3726 174.617 71.6567C167.762 68.9144 161.038 68.9144 154.183 71.6567C145.038 75.3144 135.762 75.3144 126.617 71.6567C119.812 68.9344 112.636 68.8763 104.84 71.711C94.9808 75.2963 85.0193 75.2963 75.1597 71.711C67.3643 68.8763 60.1884 68.9344 53.3827 71.6567C44.2384 75.3144 34.9618 75.3144 25.8174 71.6567C18.9618 68.9144 12.2384 68.9144 5.38273 71.6567C3.59289 72.3726 1.79799 72.9484 0 73.3841Z" fill="white"/>
<path d="M0 92.5841V82.607C0.604881 82.4072 1.21061 82.186 1.81738 81.9433C10.9618 78.2856 20.2384 78.2856 29.3827 81.9433C36.2384 84.6856 42.9618 84.6856 49.8174 81.9433C59.0118 78.2656 68.6358 78.3237 78.4404 81.889C86.1808 84.7037 93.8193 84.7037 101.56 81.889C111.364 78.3237 120.988 78.2656 130.183 81.9433C137.038 84.6856 143.762 84.6856 150.617 81.9433C159.762 78.2856 169.038 78.2856 178.183 81.9433C178.789 82.186 179.395 82.4072 180 82.607V92.5841C178.202 92.1484 176.407 91.5726 174.617 90.8567C167.762 88.1144 161.038 88.1144 154.183 90.8567C145.038 94.5144 135.762 94.5144 126.617 90.8567C119.812 88.1344 112.636 88.0763 104.84 90.911C94.9808 94.4963 85.0193 94.4963 75.1597 90.911C67.3643 88.0763 60.1884 88.1344 53.3827 90.8567C44.2384 94.5144 34.9618 94.5144 25.8174 90.8567C18.9618 88.1144 12.2384 88.1144 5.38273 90.8567C3.59289 91.5726 1.79799 92.1484 0 92.5841Z" fill="white"/>
<path d="M0 111.784V101.807C0.604881 101.607 1.21061 101.386 1.81738 101.143C10.9618 97.4856 20.2384 97.4856 29.3827 101.143C36.2384 103.886 42.9618 103.886 49.8174 101.143C59.0118 97.4656 68.6358 97.5237 78.4404 101.089C86.1808 103.904 93.8193 103.904 101.56 101.089C111.364 97.5237 120.988 97.4656 130.183 101.143C137.038 103.886 143.762 103.886 150.617 101.143C159.762 97.4856 169.038 97.4856 178.183 101.143C178.789 101.386 179.395 101.607 180 101.807V111.784C178.202 111.348 176.407 110.773 174.617 110.057C167.762 107.314 161.038 107.314 154.183 110.057C145.038 113.714 135.762 113.714 126.617 110.057C119.812 107.334 112.636 107.276 104.84 110.111C94.9808 113.696 85.0193 113.696 75.1597 110.111C67.3643 107.276 60.1884 107.334 53.3827 110.057C44.2384 113.714 34.9618 113.714 25.8174 110.057C18.9618 107.314 12.2384 107.314 5.38273 110.057C3.59289 110.773 1.79799 111.348 0 111.784Z" fill="white"/>
</g>
<defs>
<clipPath id="clip0_307_51186">
<rect width="180" height="120" fill="white"/>
</clipPath>
</defs>
</svg>
