<svg width="180" height="120" viewBox="0 0 180 120" fill="none" xmlns="http://www.w3.org/2000/svg">
<g clip-path="url(#clip0_909_225242)">
<path d="M0 0H180V120H0V0Z" fill="white"/>
<path d="M90.4044 60C85.8091 66.893 76.496 68.7556 69.6031 64.1603C62.7257 59.5753 60.856 50.2938 65.412 43.4055C61.022 50.0171 59.4303 58.0998 60.987 65.8835C62.5474 73.6855 67.1432 80.5481 73.7634 84.9615C80.3836 89.375 88.4859 90.9779 96.2879 89.4175C104.09 87.8571 110.952 83.2612 115.366 76.641C117.573 73.3309 118.374 69.2798 117.594 65.3788C116.814 61.4778 114.516 58.0465 111.206 55.8398C107.896 53.633 103.844 52.8316 99.9434 53.6118C96.0424 54.392 92.6111 56.6899 90.4044 60Z" fill="#0F3296"/>
<path d="M84.5204 30.5826C76.7358 32.1395 69.8569 36.7626 65.4424 43.359C60.8589 50.2598 62.7097 59.565 69.6026 64.1602C76.4956 68.7555 85.8086 66.8929 90.4039 60C90.4122 59.9875 90.4205 59.975 90.4288 59.9625C92.6364 56.6725 96.0565 54.389 99.9427 53.6118C103.844 52.8316 107.895 53.633 111.205 55.8397C114.515 58.0465 116.813 61.4778 117.593 65.3788C118.373 69.2797 117.572 73.3309 115.365 76.641C119.779 70.0208 121.382 61.9185 119.821 54.1165C118.261 46.3145 113.665 39.452 107.045 35.0385C100.425 30.625 92.3223 29.0222 84.5204 30.5826Z" fill="#D91C16"/>
<path d="M28 36.4253L44.641 11.4638L48.8013 14.2373L32.1603 39.1988L28 36.4253Z" fill="black"/>
<path d="M57.1219 100.216L40.4809 75.2543L44.6411 72.4808L61.2821 97.4423L57.1219 100.216Z" fill="black"/>
<path d="M43.2544 92.9353L50.8815 104.376L55.0418 101.603L47.4146 90.1618L43.2544 92.9353Z" fill="black"/>
<path d="M41.8676 90.8552L34.2405 79.4146L38.4008 76.6411L46.0279 88.0817L41.8676 90.8552Z" fill="black"/>
<path d="M28.0001 83.5748L44.6411 108.536L48.8014 105.763L32.1604 80.8013L28.0001 83.5748Z" fill="black"/>
<path d="M50.8814 15.6241L34.2404 40.5856L38.4007 43.3591L55.0417 18.3976L50.8814 15.6241Z" fill="black"/>
<path d="M40.4808 44.7458L57.1218 19.7843L61.282 22.5578L44.641 47.5193L40.4808 44.7458Z" fill="black"/>
<path d="M127.153 86.0017L119.526 97.4423L123.686 100.216L131.313 88.7752L127.153 86.0017Z" fill="black"/>
<path d="M128.539 83.9216L132.7 86.6951L140.327 75.2543L136.167 72.4808L128.539 83.9216Z" fill="black"/>
<path d="M133.393 90.162L125.766 101.603L129.926 104.376L137.553 92.9355L133.393 90.162Z" fill="black"/>
<path d="M138.94 90.8554L134.78 88.0819L142.407 76.6411L146.567 79.4146L138.94 90.8554Z" fill="black"/>
<path d="M139.633 94.3223L132.006 105.763L136.167 108.536L143.794 97.0957L139.633 94.3223Z" fill="black"/>
<path d="M145.18 95.0156L141.02 92.2421L148.647 80.8013L152.808 83.5749L145.18 95.0156Z" fill="black"/>
<path d="M127.153 33.9985L119.526 22.5578L123.686 19.7843L131.313 31.225L127.153 33.9985Z" fill="black"/>
<path d="M128.54 36.0786L136.167 47.5193L140.327 44.7458L132.7 33.3051L128.54 36.0786Z" fill="black"/>
<path d="M125.766 18.3976L142.407 43.3591L146.567 40.5856L129.926 15.6241L125.766 18.3976Z" fill="black"/>
<path d="M139.634 25.678L132.006 14.2373L136.167 11.4638L143.794 22.9045L139.634 25.678Z" fill="black"/>
<path d="M141.02 27.7581L148.647 39.1988L152.808 36.4253L145.181 24.9846L141.02 27.7581Z" fill="black"/>
</g>
<defs>
<clipPath id="clip0_909_225242">
<rect width="180" height="120" fill="white"/>
</clipPath>
</defs>
</svg>
