<svg width="180" height="120" viewBox="0 0 180 120" fill="none" xmlns="http://www.w3.org/2000/svg">
<g clip-path="url(#clip0_909_286883)">
<path d="M0 0H180V60H0V0Z" fill="#0F3296"/>
<path d="M0 60H180V120H0V60Z" fill="#D91C16"/>
<path d="M40.8955 24.4579L40.5278 36.9579H27.844C26.2835 33.9242 24.9948 31.3476 24.9948 27.8586C24.9948 24.9387 27.2914 22.6196 30.6014 22.6196C34.1053 22.6196 37.9551 23.8003 40.8955 24.4579Z" fill="#FDD406"/>
<path fill-rule="evenodd" clip-rule="evenodd" d="M26.5111 24.8823C26.5939 24.8823 26.6611 24.9495 26.6611 25.0323V32.2474C26.6611 32.3302 26.5939 32.3974 26.5111 32.3974C26.4282 32.3974 26.3611 32.3302 26.3611 32.2474V25.0323C26.3611 24.9495 26.4282 24.8823 26.5111 24.8823Z" fill="black"/>
<path fill-rule="evenodd" clip-rule="evenodd" d="M27.5294 24.146C27.6122 24.146 27.6794 24.2132 27.6794 24.296V33.9028C27.6794 33.9856 27.6122 34.0528 27.5294 34.0528C27.4466 34.0528 27.3794 33.9856 27.3794 33.9028V24.296C27.3794 24.2132 27.4466 24.146 27.5294 24.146Z" fill="black"/>
<path fill-rule="evenodd" clip-rule="evenodd" d="M28.5479 23.6404C28.6308 23.6404 28.6979 23.7075 28.6979 23.7904V35.2354C28.6979 35.3183 28.6308 35.3854 28.5479 35.3854C28.4651 35.3854 28.3979 35.3183 28.3979 35.2354V23.7904C28.3979 23.7075 28.4651 23.6404 28.5479 23.6404Z" fill="black"/>
<path fill-rule="evenodd" clip-rule="evenodd" d="M29.5665 23.4043C29.6493 23.4043 29.7165 23.4715 29.7165 23.5543V32.5305C29.7165 32.6134 29.6493 32.6805 29.5665 32.6805C29.4837 32.6805 29.4165 32.6134 29.4165 32.5305V23.5543C29.4165 23.4715 29.4837 23.4043 29.5665 23.4043Z" fill="black"/>
<path fill-rule="evenodd" clip-rule="evenodd" d="M30.586 23.3596C30.6689 23.3596 30.736 23.4268 30.736 23.5096V32.5749C30.736 32.6578 30.6689 32.7249 30.586 32.7249C30.5032 32.7249 30.436 32.6578 30.436 32.5749V23.5096C30.436 23.4268 30.5032 23.3596 30.586 23.3596Z" fill="black"/>
<path fill-rule="evenodd" clip-rule="evenodd" d="M31.6045 23.043C31.6873 23.043 31.7545 23.1101 31.7545 23.193V32.57C31.7545 32.6528 31.6873 32.72 31.6045 32.72C31.5216 32.72 31.4545 32.6528 31.4545 32.57V23.193C31.4545 23.1101 31.5216 23.043 31.6045 23.043Z" fill="black"/>
<path fill-rule="evenodd" clip-rule="evenodd" d="M32.6231 23.043C32.706 23.043 32.7731 23.1101 32.7731 23.193V32.57C32.7731 32.6528 32.706 32.72 32.6231 32.72C32.5403 32.72 32.4731 32.6528 32.4731 32.57V23.193C32.4731 23.1101 32.5403 23.043 32.6231 23.043Z" fill="black"/>
<path fill-rule="evenodd" clip-rule="evenodd" d="M33.6418 23.1348C33.7247 23.1348 33.7918 23.2019 33.7918 23.2848V32.6618C33.7918 32.7446 33.7247 32.8118 33.6418 32.8118C33.559 32.8118 33.4918 32.7446 33.4918 32.6618V23.2848C33.4918 23.2019 33.559 23.1348 33.6418 23.1348Z" fill="black"/>
<path fill-rule="evenodd" clip-rule="evenodd" d="M34.6603 23.2268C34.7431 23.2268 34.8103 23.294 34.8103 23.3768V32.7538C34.8103 32.8367 34.7431 32.9038 34.6603 32.9038C34.5774 32.9038 34.5103 32.8367 34.5103 32.7538V23.3768C34.5103 23.294 34.5774 23.2268 34.6603 23.2268Z" fill="black"/>
<path fill-rule="evenodd" clip-rule="evenodd" d="M35.6788 23.8242C35.7617 23.8242 35.8288 23.8914 35.8288 23.9742V33.3512C35.8288 33.4341 35.7617 33.5012 35.6788 33.5012C35.596 33.5012 35.5288 33.4341 35.5288 33.3512V23.9742C35.5288 23.8914 35.596 23.8242 35.6788 23.8242Z" fill="black"/>
<path fill-rule="evenodd" clip-rule="evenodd" d="M36.6974 23.916C36.7802 23.916 36.8474 23.9832 36.8474 24.066V34.6379C36.8474 34.7207 36.7802 34.7879 36.6974 34.7879C36.6145 34.7879 36.5474 34.7207 36.5474 34.6379V24.066C36.5474 23.9832 36.6145 23.916 36.6974 23.916Z" fill="black"/>
<path fill-rule="evenodd" clip-rule="evenodd" d="M37.7169 23.916C37.7997 23.916 37.8669 23.9832 37.8669 24.066V33.443C37.8669 33.5259 37.7997 33.593 37.7169 33.593C37.6341 33.593 37.5669 33.5259 37.5669 33.443V24.066C37.5669 23.9832 37.6341 23.916 37.7169 23.916Z" fill="black"/>
<path fill-rule="evenodd" clip-rule="evenodd" d="M38.7353 23.916C38.8182 23.916 38.8853 23.9832 38.8853 24.066V33.443C38.8853 33.5259 38.8182 33.593 38.7353 33.593C38.6525 33.593 38.5853 33.5259 38.5853 33.443V24.066C38.5853 23.9832 38.6525 23.916 38.7353 23.916Z" fill="black"/>
<path d="M32.8992 23.5847C35.0519 23.9398 39.7804 26.1521 39.2411 29.1454C38.4768 33.3872 35.9995 31.6849 32.7153 31.0755L30.2337 31.9027C29.3457 32.8091 28.0382 33.6394 27.1547 32.5461H25.6841V38.2906H41.9525V24.4119L32.8992 23.5847Z" fill="black"/>
<path fill-rule="evenodd" clip-rule="evenodd" d="M32.7501 23.5655C32.7604 23.4855 32.8321 23.4279 32.9125 23.4352L41.9658 24.2624C42.0431 24.2695 42.1022 24.3342 42.1022 24.4118V38.2905C42.1022 38.3733 42.035 38.4405 41.9522 38.4405H25.6838C25.601 38.4405 25.5338 38.3733 25.5338 38.2905V32.546C25.5338 32.4631 25.601 32.396 25.6838 32.396H27.1544C27.1997 32.396 27.2426 32.4165 27.2711 32.4517C27.4737 32.7024 27.6934 32.835 27.9179 32.8882C28.1444 32.9418 28.3892 32.9178 28.6445 32.832C29.1595 32.659 29.6884 32.2446 30.1263 31.7976C30.143 31.7806 30.1634 31.7678 30.186 31.7603L32.6676 30.9331C32.6917 30.9251 32.7175 30.9233 32.7424 30.9279C33.3782 31.0459 33.9856 31.2048 34.5506 31.3527C34.7209 31.3973 34.8874 31.4409 35.0496 31.482C35.7564 31.6612 36.3795 31.7932 36.9191 31.7796C37.4513 31.7661 37.8926 31.6113 38.2499 31.2208C38.6132 30.8237 38.9043 30.1672 39.0932 29.1186C39.3462 27.7144 38.3673 26.4632 36.9931 25.4984C35.6272 24.5393 33.9279 23.9063 32.8745 23.7326C32.7948 23.7194 32.7399 23.6456 32.7501 23.5655ZM34.5223 23.8835C35.3866 24.2042 36.3356 24.6701 37.1655 25.2528C38.5589 26.2312 39.6747 27.5828 39.3884 29.1718C39.1952 30.2442 38.89 30.9656 38.4712 31.4233C38.0464 31.8876 37.5199 32.0645 36.9267 32.0795C36.341 32.0943 35.6812 31.9516 34.9759 31.7728C34.8093 31.7306 34.6399 31.6862 34.4678 31.6412C33.916 31.4968 33.3357 31.3449 32.7257 31.23L30.315 32.0335C29.8691 32.4839 29.3107 32.9246 28.74 33.1164C28.447 33.2148 28.1437 33.25 27.8488 33.1801C27.571 33.1143 27.3124 32.9581 27.0844 32.696H25.8338V38.1405H41.8022V24.5487L34.5223 23.8835Z" fill="black"/>
<path d="M40.1831 23.5847C40.7288 23.5847 41.1712 23.1424 41.1712 22.5967C41.1712 22.051 40.7288 21.6086 40.1831 21.6086C39.6374 21.6086 39.1951 22.051 39.1951 22.5967C39.1951 23.1424 39.6374 23.5847 40.1831 23.5847Z" fill="#FDD406"/>
<path fill-rule="evenodd" clip-rule="evenodd" d="M40.1828 21.8087C39.7476 21.8087 39.3948 22.1615 39.3948 22.5967C39.3948 23.032 39.7476 23.3848 40.1828 23.3848C40.618 23.3848 40.9709 23.032 40.9709 22.5967C40.9709 22.1615 40.618 21.8087 40.1828 21.8087ZM38.9948 22.5967C38.9948 21.9406 39.5267 21.4087 40.1828 21.4087C40.8389 21.4087 41.3709 21.9406 41.3709 22.5967C41.3709 23.2529 40.8389 23.7848 40.1828 23.7848C39.5267 23.7848 38.9948 23.2529 38.9948 22.5967Z" fill="black"/>
<path d="M37.9623 23.0503C38.508 23.0503 38.9503 22.608 38.9503 22.0623C38.9503 21.5166 38.508 21.0742 37.9623 21.0742C37.4166 21.0742 36.9742 21.5166 36.9742 22.0623C36.9742 22.608 37.4166 23.0503 37.9623 23.0503Z" fill="#FDD406"/>
<path fill-rule="evenodd" clip-rule="evenodd" d="M37.9621 21.2743C37.5269 21.2743 37.174 21.6271 37.174 22.0623C37.174 22.4975 37.5269 22.8504 37.9621 22.8504C38.3973 22.8504 38.7502 22.4975 38.7502 22.0623C38.7502 21.6271 38.3973 21.2743 37.9621 21.2743ZM36.774 22.0623C36.774 21.4062 37.306 20.8743 37.9621 20.8743C38.6182 20.8743 39.1502 21.4062 39.1502 22.0623C39.1502 22.7185 38.6182 23.2504 37.9621 23.2504C37.306 23.2504 36.774 22.7185 36.774 22.0623Z" fill="black"/>
<path d="M35.7103 22.4846C36.256 22.4846 36.6984 22.0423 36.6984 21.4966C36.6984 20.9509 36.256 20.5085 35.7103 20.5085C35.1647 20.5085 34.7223 20.9509 34.7223 21.4966C34.7223 22.0423 35.1647 22.4846 35.7103 22.4846Z" fill="#FDD406"/>
<path fill-rule="evenodd" clip-rule="evenodd" d="M35.71 20.7083C35.2748 20.7083 34.922 21.0612 34.922 21.4964C34.922 21.9316 35.2748 22.2845 35.71 22.2845C36.1453 22.2845 36.4981 21.9316 36.4981 21.4964C36.4981 21.0612 36.1453 20.7083 35.71 20.7083ZM34.522 21.4964C34.522 20.8403 35.0539 20.3083 35.71 20.3083C36.3662 20.3083 36.8981 20.8403 36.8981 21.4964C36.8981 22.1525 36.3662 22.6845 35.71 22.6845C35.0539 22.6845 34.522 22.1525 34.522 21.4964Z" fill="black"/>
<path d="M33.4486 22.1075C33.9943 22.1075 34.4367 21.6651 34.4367 21.1194C34.4367 20.5737 33.9943 20.1313 33.4486 20.1313C32.9029 20.1313 32.4606 20.5737 32.4606 21.1194C32.4606 21.6651 32.9029 22.1075 33.4486 22.1075Z" fill="#FDD406"/>
<path fill-rule="evenodd" clip-rule="evenodd" d="M33.4487 20.3314C33.0134 20.3314 32.6606 20.6842 32.6606 21.1194C32.6606 21.5547 33.0134 21.9075 33.4487 21.9075C33.8839 21.9075 34.2367 21.5547 34.2367 21.1194C34.2367 20.6842 33.8839 20.3314 33.4487 20.3314ZM32.2606 21.1194C32.2606 20.4633 32.7925 19.9314 33.4487 19.9314C34.1048 19.9314 34.6367 20.4633 34.6367 21.1194C34.6367 21.7756 34.1048 22.3075 33.4487 22.3075C32.7925 22.3075 32.2606 21.7756 32.2606 21.1194Z" fill="black"/>
<path d="M31.1869 21.8843C31.7326 21.8843 32.175 21.4419 32.175 20.8963C32.175 20.3506 31.7326 19.9082 31.1869 19.9082C30.6412 19.9082 30.1989 20.3506 30.1989 20.8963C30.1989 21.4419 30.6412 21.8843 31.1869 21.8843Z" fill="#FDD406"/>
<path fill-rule="evenodd" clip-rule="evenodd" d="M31.1867 20.1083C30.7515 20.1083 30.3987 20.4611 30.3987 20.8963C30.3987 21.3315 30.7515 21.6844 31.1867 21.6844C31.6219 21.6844 31.9748 21.3315 31.9748 20.8963C31.9748 20.4611 31.6219 20.1083 31.1867 20.1083ZM29.9987 20.8963C29.9987 20.2402 30.5306 19.7083 31.1867 19.7083C31.8429 19.7083 32.3748 20.2402 32.3748 20.8963C32.3748 21.5524 31.8429 22.0844 31.1867 22.0844C30.5306 22.0844 29.9987 21.5524 29.9987 20.8963Z" fill="black"/>
<path d="M28.9699 22.0108C29.5156 22.0108 29.9579 21.5684 29.9579 21.0227C29.9579 20.477 29.5156 20.0347 28.9699 20.0347C28.4242 20.0347 27.9818 20.477 27.9818 21.0227C27.9818 21.5684 28.4242 22.0108 28.9699 22.0108Z" fill="#FDD406"/>
<path fill-rule="evenodd" clip-rule="evenodd" d="M28.9699 20.2347C28.5347 20.2347 28.1819 20.5875 28.1819 21.0228C28.1819 21.458 28.5347 21.8108 28.9699 21.8108C29.4051 21.8108 29.758 21.458 29.758 21.0228C29.758 20.5875 29.4051 20.2347 28.9699 20.2347ZM27.7819 21.0228C27.7819 20.3666 28.3138 19.8347 28.9699 19.8347C29.6261 19.8347 30.158 20.3666 30.158 21.0228C30.158 21.6789 29.6261 22.2108 28.9699 22.2108C28.3138 22.2108 27.7819 21.6789 27.7819 21.0228Z" fill="black"/>
<path d="M26.856 22.7346C27.4017 22.7346 27.844 22.2923 27.844 21.7466C27.844 21.2009 27.4017 20.7585 26.856 20.7585C26.3103 20.7585 25.8679 21.2009 25.8679 21.7466C25.8679 22.2923 26.3103 22.7346 26.856 22.7346Z" fill="#FDD406"/>
<path fill-rule="evenodd" clip-rule="evenodd" d="M26.8557 20.9583C26.4204 20.9583 26.0676 21.3112 26.0676 21.7464C26.0676 22.1816 26.4204 22.5345 26.8557 22.5345C27.2909 22.5345 27.6437 22.1816 27.6437 21.7464C27.6437 21.3112 27.2909 20.9583 26.8557 20.9583ZM25.6676 21.7464C25.6676 21.0903 26.1995 20.5583 26.8557 20.5583C27.5118 20.5583 28.0437 21.0903 28.0437 21.7464C28.0437 22.4025 27.5118 22.9345 26.8557 22.9345C26.1995 22.9345 25.6676 22.4025 25.6676 21.7464Z" fill="black"/>
<path d="M25.0746 24.0442C25.6203 24.0442 26.0627 23.6019 26.0627 23.0562C26.0627 22.5105 25.6203 22.0681 25.0746 22.0681C24.5289 22.0681 24.0865 22.5105 24.0865 23.0562C24.0865 23.6019 24.5289 24.0442 25.0746 24.0442Z" fill="#FDD406"/>
<path fill-rule="evenodd" clip-rule="evenodd" d="M25.0751 22.2682C24.6399 22.2682 24.2871 22.621 24.2871 23.0562C24.2871 23.4914 24.6399 23.8443 25.0751 23.8443C25.5104 23.8443 25.8632 23.4914 25.8632 23.0562C25.8632 22.621 25.5104 22.2682 25.0751 22.2682ZM23.8871 23.0562C23.8871 22.4001 24.419 21.8682 25.0751 21.8682C25.7313 21.8682 26.2632 22.4001 26.2632 23.0562C26.2632 23.7124 25.7313 24.2443 25.0751 24.2443C24.419 24.2443 23.8871 23.7124 23.8871 23.0562Z" fill="black"/>
<path d="M23.8109 25.8711C24.3566 25.8711 24.799 25.4288 24.799 24.8831C24.799 24.3374 24.3566 23.895 23.8109 23.895C23.2652 23.895 22.8229 24.3374 22.8229 24.8831C22.8229 25.4288 23.2652 25.8711 23.8109 25.8711Z" fill="#FDD406"/>
<path fill-rule="evenodd" clip-rule="evenodd" d="M23.8117 24.0948C23.3765 24.0948 23.0237 24.4476 23.0237 24.8829C23.0237 25.3181 23.3765 25.6709 23.8117 25.6709C24.2469 25.6709 24.5998 25.3181 24.5998 24.8829C24.5998 24.4476 24.2469 24.0948 23.8117 24.0948ZM22.6237 24.8829C22.6237 24.2267 23.1556 23.6948 23.8117 23.6948C24.4679 23.6948 24.9998 24.2267 24.9998 24.8829C24.9998 25.539 24.4679 26.0709 23.8117 26.0709C23.1556 26.0709 22.6237 25.539 22.6237 24.8829Z" fill="black"/>
<path d="M23.2024 28.0196C23.7481 28.0196 24.1905 27.5772 24.1905 27.0315C24.1905 26.4858 23.7481 26.0435 23.2024 26.0435C22.6567 26.0435 22.2144 26.4858 22.2144 27.0315C22.2144 27.5772 22.6567 28.0196 23.2024 28.0196Z" fill="#FDD406"/>
<path fill-rule="evenodd" clip-rule="evenodd" d="M23.2025 26.2433C22.7672 26.2433 22.4144 26.5961 22.4144 27.0313C22.4144 27.4665 22.7672 27.8194 23.2025 27.8194C23.6377 27.8194 23.9905 27.4665 23.9905 27.0313C23.9905 26.5961 23.6377 26.2433 23.2025 26.2433ZM22.0144 27.0313C22.0144 26.3752 22.5463 25.8433 23.2025 25.8433C23.8586 25.8433 24.3905 26.3752 24.3905 27.0313C24.3905 27.6875 23.8586 28.2194 23.2025 28.2194C22.5463 28.2194 22.0144 27.6875 22.0144 27.0313Z" fill="black"/>
<path d="M23.225 30.2483C23.7707 30.2483 24.213 29.806 24.213 29.2603C24.213 28.7146 23.7707 28.2722 23.225 28.2722C22.6793 28.2722 22.2369 28.7146 22.2369 29.2603C22.2369 29.806 22.6793 30.2483 23.225 30.2483Z" fill="#FDD406"/>
<path fill-rule="evenodd" clip-rule="evenodd" d="M23.2258 28.4723C22.7905 28.4723 22.4377 28.8251 22.4377 29.2603C22.4377 29.6955 22.7905 30.0484 23.2258 30.0484C23.661 30.0484 24.0138 29.6955 24.0138 29.2603C24.0138 28.8251 23.661 28.4723 23.2258 28.4723ZM22.0377 29.2603C22.0377 28.6042 22.5696 28.0723 23.2258 28.0723C23.8819 28.0723 24.4138 28.6042 24.4138 29.2603C24.4138 29.9165 23.8819 30.4484 23.2258 30.4484C22.5696 30.4484 22.0377 29.9165 22.0377 29.2603Z" fill="black"/>
<path d="M23.6505 32.4312C24.1962 32.4312 24.6386 31.9888 24.6386 31.4431C24.6386 30.8974 24.1962 30.4551 23.6505 30.4551C23.1048 30.4551 22.6625 30.8974 22.6625 31.4431C22.6625 31.9888 23.1048 32.4312 23.6505 32.4312Z" fill="#FDD406"/>
<path fill-rule="evenodd" clip-rule="evenodd" d="M23.6506 30.6551C23.2153 30.6551 22.8625 31.008 22.8625 31.4432C22.8625 31.8784 23.2153 32.2312 23.6506 32.2312C24.0858 32.2312 24.4386 31.8784 24.4386 31.4432C24.4386 31.008 24.0858 30.6551 23.6506 30.6551ZM22.4625 31.4432C22.4625 30.787 22.9944 30.2551 23.6506 30.2551C24.3067 30.2551 24.8386 30.787 24.8386 31.4432C24.8386 32.0993 24.3067 32.6312 23.6506 32.6312C22.9944 32.6312 22.4625 32.0993 22.4625 31.4432Z" fill="black"/>
<path d="M40.6197 23.9064L40.5278 25.1931C38.0696 24.8165 34.5848 23.4468 31.3366 23.4468C28.3353 23.4468 26.0057 24.6473 26.0057 27.6747C26.0057 30.6584 27.2693 33.3718 28.9469 36.1306L27.2006 36.9578C25.6401 33.9242 24.3513 31.3476 24.3513 27.8586C24.3513 24.9386 26.6479 22.0681 30.6013 22.0681C34.1053 22.0681 37.6793 23.2488 40.6197 23.9064Z" fill="#FDD406"/>
<path fill-rule="evenodd" clip-rule="evenodd" d="M30.601 22.2682C26.7606 22.2682 24.551 25.0466 24.551 27.8586C24.551 31.2285 25.769 33.7341 27.2896 36.6942L28.6609 36.0447C27.0352 33.342 25.8054 30.6459 25.8054 27.6748C25.8054 26.1021 26.4146 24.9817 27.4297 24.2624C28.4342 23.5506 29.8138 23.2468 31.3363 23.2468C32.9857 23.2468 34.6884 23.5943 36.2759 23.9846C36.7353 24.0975 37.1837 24.2136 37.6184 24.3261C38.6088 24.5826 39.528 24.8205 40.3436 24.9606L40.4076 24.0636C39.7486 23.9132 39.0627 23.7397 38.3566 23.5611C35.9204 22.945 33.2441 22.2682 30.601 22.2682ZM24.151 27.8586C24.151 24.8307 26.5347 21.8682 30.601 21.8682C33.2992 21.8682 36.0456 22.5631 38.4901 23.1817C39.2468 23.3731 39.9746 23.5573 40.663 23.7112C40.7597 23.7328 40.8259 23.8219 40.8189 23.9206L40.727 25.2074C40.723 25.2631 40.6959 25.3146 40.6523 25.3495C40.6086 25.3843 40.5524 25.3993 40.4972 25.3909C39.6083 25.2547 38.5835 24.9893 37.4963 24.7079C37.0659 24.5964 36.6258 24.4825 36.1804 24.373C34.5989 23.9842 32.9351 23.6468 31.3363 23.6468C29.8575 23.6468 28.5717 23.9434 27.661 24.5887C26.761 25.2265 26.2054 26.2201 26.2054 27.6748C26.2054 30.6015 27.4445 33.2755 29.1175 36.0268C29.1469 36.0752 29.1544 36.1338 29.1382 36.1881C29.1219 36.2423 29.0834 36.2872 29.0322 36.3114L27.2859 37.1386C27.1884 37.1848 27.0718 37.1453 27.0224 37.0494C25.463 34.0178 24.151 31.4017 24.151 27.8586Z" fill="black"/>
<path d="M43.1322 24.4579L43.4999 36.9579H56.1837C57.7442 33.9242 59.033 31.3476 59.033 27.8586C59.033 24.9387 56.7363 22.6196 53.4263 22.6196C49.9224 22.6196 46.0726 23.8003 43.1322 24.4579Z" fill="#FDD406"/>
<path fill-rule="evenodd" clip-rule="evenodd" d="M57.5166 24.8823C57.4338 24.8823 57.3666 24.9495 57.3666 25.0323V32.2474C57.3666 32.3302 57.4338 32.3974 57.5166 32.3974C57.5995 32.3974 57.6666 32.3302 57.6666 32.2474V25.0323C57.6666 24.9495 57.5995 24.8823 57.5166 24.8823Z" fill="black"/>
<path fill-rule="evenodd" clip-rule="evenodd" d="M56.4979 24.146C56.4151 24.146 56.3479 24.2132 56.3479 24.296V33.9028C56.3479 33.9856 56.4151 34.0528 56.4979 34.0528C56.5808 34.0528 56.6479 33.9856 56.6479 33.9028V24.296C56.6479 24.2132 56.5808 24.146 56.4979 24.146Z" fill="black"/>
<path fill-rule="evenodd" clip-rule="evenodd" d="M55.4793 23.6404C55.3964 23.6404 55.3293 23.7075 55.3293 23.7904V35.2354C55.3293 35.3183 55.3964 35.3854 55.4793 35.3854C55.5621 35.3854 55.6293 35.3183 55.6293 35.2354V23.7904C55.6293 23.7075 55.5621 23.6404 55.4793 23.6404Z" fill="black"/>
<path fill-rule="evenodd" clip-rule="evenodd" d="M54.461 23.4043C54.3781 23.4043 54.311 23.4715 54.311 23.5543V32.5305C54.311 32.6134 54.3781 32.6805 54.461 32.6805C54.5438 32.6805 54.611 32.6134 54.611 32.5305V23.5543C54.611 23.4715 54.5438 23.4043 54.461 23.4043Z" fill="black"/>
<path fill-rule="evenodd" clip-rule="evenodd" d="M53.4414 23.3596C53.3586 23.3596 53.2914 23.4268 53.2914 23.5096V32.5749C53.2914 32.6578 53.3586 32.7249 53.4414 32.7249C53.5243 32.7249 53.5914 32.6578 53.5914 32.5749V23.5096C53.5914 23.4268 53.5243 23.3596 53.4414 23.3596Z" fill="black"/>
<path fill-rule="evenodd" clip-rule="evenodd" d="M52.4229 23.043C52.34 23.043 52.2729 23.1101 52.2729 23.193V32.57C52.2729 32.6528 52.34 32.72 52.4229 32.72C52.5057 32.72 52.5729 32.6528 52.5729 32.57V23.193C52.5729 23.1101 52.5057 23.043 52.4229 23.043Z" fill="black"/>
<path fill-rule="evenodd" clip-rule="evenodd" d="M51.4046 23.043C51.3217 23.043 51.2546 23.1101 51.2546 23.193V32.57C51.2546 32.6528 51.3217 32.72 51.4046 32.72C51.4874 32.72 51.5546 32.6528 51.5546 32.57V23.193C51.5546 23.1101 51.4874 23.043 51.4046 23.043Z" fill="black"/>
<path fill-rule="evenodd" clip-rule="evenodd" d="M50.3859 23.1348C50.303 23.1348 50.2359 23.2019 50.2359 23.2848V32.6618C50.2359 32.7446 50.303 32.8118 50.3859 32.8118C50.4687 32.8118 50.5359 32.7446 50.5359 32.6618V23.2848C50.5359 23.2019 50.4687 23.1348 50.3859 23.1348Z" fill="black"/>
<path fill-rule="evenodd" clip-rule="evenodd" d="M49.3672 23.2268C49.2844 23.2268 49.2172 23.294 49.2172 23.3768V32.7538C49.2172 32.8367 49.2844 32.9038 49.3672 32.9038C49.4501 32.9038 49.5172 32.8367 49.5172 32.7538V23.3768C49.5172 23.294 49.4501 23.2268 49.3672 23.2268Z" fill="black"/>
<path fill-rule="evenodd" clip-rule="evenodd" d="M48.3485 23.8242C48.2657 23.8242 48.1985 23.8914 48.1985 23.9742V33.3512C48.1985 33.4341 48.2657 33.5012 48.3485 33.5012C48.4314 33.5012 48.4985 33.4341 48.4985 33.3512V23.9742C48.4985 23.8914 48.4314 23.8242 48.3485 23.8242Z" fill="black"/>
<path fill-rule="evenodd" clip-rule="evenodd" d="M47.3301 23.916C47.2473 23.916 47.1801 23.9832 47.1801 24.066V34.6379C47.1801 34.7207 47.2473 34.7879 47.3301 34.7879C47.4129 34.7879 47.4801 34.7207 47.4801 34.6379V24.066C47.4801 23.9832 47.4129 23.916 47.3301 23.916Z" fill="black"/>
<path fill-rule="evenodd" clip-rule="evenodd" d="M46.3106 23.916C46.2277 23.916 46.1606 23.9832 46.1606 24.066V33.443C46.1606 33.5259 46.2277 33.593 46.3106 33.593C46.3934 33.593 46.4606 33.5259 46.4606 33.443V24.066C46.4606 23.9832 46.3934 23.916 46.3106 23.916Z" fill="black"/>
<path fill-rule="evenodd" clip-rule="evenodd" d="M45.292 23.916C45.2092 23.916 45.142 23.9832 45.142 24.066V33.443C45.142 33.5259 45.2092 33.593 45.292 33.593C45.3749 33.593 45.442 33.5259 45.442 33.443V24.066C45.442 23.9832 45.3749 23.916 45.292 23.916Z" fill="black"/>
<path d="M51.1283 23.5847C48.9756 23.9398 44.2471 26.1521 44.7864 29.1454C45.5507 33.3872 48.0279 31.6849 51.3121 31.0755L53.7938 31.9027C54.6817 32.8091 55.9893 33.6394 56.8728 32.5461H58.3434V38.2906H42.075V24.4119L51.1283 23.5847Z" fill="black"/>
<path fill-rule="evenodd" clip-rule="evenodd" d="M51.2776 23.5655C51.2674 23.4855 51.1956 23.4279 51.1152 23.4352L42.0619 24.2624C41.9846 24.2695 41.9255 24.3342 41.9255 24.4118V38.2905C41.9255 38.3733 41.9927 38.4405 42.0755 38.4405H58.3439C58.4267 38.4405 58.4939 38.3733 58.4939 38.2905V32.546C58.4939 32.4631 58.4267 32.396 58.3439 32.396H56.8733C56.828 32.396 56.7851 32.4165 56.7566 32.4517C56.554 32.7024 56.3343 32.835 56.1098 32.8882C55.8833 32.9418 55.6386 32.9178 55.3832 32.832C54.8682 32.659 54.3393 32.2446 53.9014 31.7976C53.8847 31.7806 53.8643 31.7678 53.8417 31.7603L51.3601 30.9331C51.336 30.9251 51.3103 30.9233 51.2853 30.9279C50.6495 31.0459 50.0421 31.2048 49.4771 31.3527C49.3068 31.3973 49.1403 31.4409 48.9781 31.482C48.2713 31.6612 47.6482 31.7932 47.1086 31.7796C46.5764 31.7661 46.1351 31.6113 45.7778 31.2208C45.4145 30.8237 45.1235 30.1672 44.9345 29.1186C44.6815 27.7144 45.6604 26.4632 47.0346 25.4984C48.4005 24.5393 50.0998 23.9063 51.1532 23.7326C51.2329 23.7194 51.2879 23.6456 51.2776 23.5655ZM49.5055 23.8835C48.6412 24.2042 47.6921 24.6701 46.8622 25.2528C45.4688 26.2312 44.353 27.5828 44.6393 29.1718C44.8325 30.2442 45.1377 30.9656 45.5565 31.4233C45.9813 31.8876 46.5078 32.0645 47.101 32.0795C47.6868 32.0943 48.3465 31.9516 49.0518 31.7728C49.2184 31.7306 49.3878 31.6862 49.5599 31.6412C50.1117 31.4968 50.692 31.3449 51.302 31.23L53.7127 32.0335C54.1586 32.4839 54.717 32.9246 55.2877 33.1164C55.5807 33.2148 55.884 33.25 56.1789 33.1801C56.4567 33.1143 56.7153 32.9581 56.9433 32.696H58.1939V38.1405H42.2255V24.5487L49.5055 23.8835Z" fill="black"/>
<path d="M43.8448 23.5847C43.2991 23.5847 42.8568 23.1424 42.8568 22.5967C42.8568 22.051 43.2991 21.6086 43.8448 21.6086C44.3905 21.6086 44.8329 22.051 44.8329 22.5967C44.8329 23.1424 44.3905 23.5847 43.8448 23.5847Z" fill="#FDD406"/>
<path fill-rule="evenodd" clip-rule="evenodd" d="M43.8448 21.8087C44.28 21.8087 44.6328 22.1615 44.6328 22.5967C44.6328 23.032 44.28 23.3848 43.8448 23.3848C43.4096 23.3848 43.0567 23.032 43.0567 22.5967C43.0567 22.1615 43.4096 21.8087 43.8448 21.8087ZM45.0328 22.5967C45.0328 21.9406 44.5009 21.4087 43.8448 21.4087C43.1886 21.4087 42.6567 21.9406 42.6567 22.5967C42.6567 23.2529 43.1886 23.7848 43.8448 23.7848C44.5009 23.7848 45.0328 23.2529 45.0328 22.5967Z" fill="black"/>
<path d="M46.0653 23.0503C45.5196 23.0503 45.0772 22.608 45.0772 22.0623C45.0772 21.5166 45.5196 21.0742 46.0653 21.0742C46.611 21.0742 47.0533 21.5166 47.0533 22.0623C47.0533 22.608 46.611 23.0503 46.0653 23.0503Z" fill="#FDD406"/>
<path fill-rule="evenodd" clip-rule="evenodd" d="M46.0656 21.2743C46.5008 21.2743 46.8537 21.6271 46.8537 22.0623C46.8537 22.4975 46.5008 22.8504 46.0656 22.8504C45.6304 22.8504 45.2776 22.4975 45.2776 22.0623C45.2776 21.6271 45.6304 21.2743 46.0656 21.2743ZM47.2537 22.0623C47.2537 21.4062 46.7218 20.8743 46.0656 20.8743C45.4095 20.8743 44.8776 21.4062 44.8776 22.0623C44.8776 22.7185 45.4095 23.2504 46.0656 23.2504C46.7218 23.2504 47.2537 22.7185 47.2537 22.0623Z" fill="black"/>
<path d="M48.3174 22.4846C47.7717 22.4846 47.3293 22.0423 47.3293 21.4966C47.3293 20.9509 47.7717 20.5085 48.3174 20.5085C48.8631 20.5085 49.3054 20.9509 49.3054 21.4966C49.3054 22.0423 48.8631 22.4846 48.3174 22.4846Z" fill="#FDD406"/>
<path fill-rule="evenodd" clip-rule="evenodd" d="M48.3176 20.7083C48.7528 20.7083 49.1056 21.0612 49.1056 21.4964C49.1056 21.9316 48.7528 22.2845 48.3176 22.2845C47.8823 22.2845 47.5295 21.9316 47.5295 21.4964C47.5295 21.0612 47.8823 20.7083 48.3176 20.7083ZM49.5056 21.4964C49.5056 20.8403 48.9737 20.3083 48.3176 20.3083C47.6614 20.3083 47.1295 20.8403 47.1295 21.4964C47.1295 22.1525 47.6614 22.6845 48.3176 22.6845C48.9737 22.6845 49.5056 22.1525 49.5056 21.4964Z" fill="black"/>
<path d="M50.5793 22.1075C50.0336 22.1075 49.5913 21.6651 49.5913 21.1194C49.5913 20.5737 50.0336 20.1313 50.5793 20.1313C51.125 20.1313 51.5674 20.5737 51.5674 21.1194C51.5674 21.6651 51.125 22.1075 50.5793 22.1075Z" fill="#FDD406"/>
<path fill-rule="evenodd" clip-rule="evenodd" d="M50.5793 20.3314C51.0145 20.3314 51.3673 20.6842 51.3673 21.1194C51.3673 21.5547 51.0145 21.9075 50.5793 21.9075C50.1441 21.9075 49.7912 21.5547 49.7912 21.1194C49.7912 20.6842 50.1441 20.3314 50.5793 20.3314ZM51.7673 21.1194C51.7673 20.4633 51.2354 19.9314 50.5793 19.9314C49.9231 19.9314 49.3912 20.4633 49.3912 21.1194C49.3912 21.7756 49.9231 22.3075 50.5793 22.3075C51.2354 22.3075 51.7673 21.7756 51.7673 21.1194Z" fill="black"/>
<path d="M52.8407 21.8843C52.295 21.8843 51.8526 21.4419 51.8526 20.8963C51.8526 20.3506 52.295 19.9082 52.8407 19.9082C53.3864 19.9082 53.8287 20.3506 53.8287 20.8963C53.8287 21.4419 53.3864 21.8843 52.8407 21.8843Z" fill="#FDD406"/>
<path fill-rule="evenodd" clip-rule="evenodd" d="M52.841 20.1083C53.2762 20.1083 53.6291 20.4611 53.6291 20.8963C53.6291 21.3315 53.2762 21.6844 52.841 21.6844C52.4058 21.6844 52.0529 21.3315 52.0529 20.8963C52.0529 20.4611 52.4058 20.1083 52.841 20.1083ZM54.0291 20.8963C54.0291 20.2402 53.4971 19.7083 52.841 19.7083C52.1849 19.7083 51.6529 20.2402 51.6529 20.8963C51.6529 21.5524 52.1849 22.0844 52.841 22.0844C53.4971 22.0844 54.0291 21.5524 54.0291 20.8963Z" fill="black"/>
<path d="M55.0576 22.0108C54.5119 22.0108 54.0695 21.5684 54.0695 21.0227C54.0695 20.477 54.5119 20.0347 55.0576 20.0347C55.6033 20.0347 56.0457 20.477 56.0457 21.0227C56.0457 21.5684 55.6033 22.0108 55.0576 22.0108Z" fill="#FDD406"/>
<path fill-rule="evenodd" clip-rule="evenodd" d="M55.0578 20.2347C55.493 20.2347 55.8458 20.5875 55.8458 21.0228C55.8458 21.458 55.493 21.8108 55.0578 21.8108C54.6226 21.8108 54.2697 21.458 54.2697 21.0228C54.2697 20.5875 54.6226 20.2347 55.0578 20.2347ZM56.2458 21.0228C56.2458 20.3666 55.7139 19.8347 55.0578 19.8347C54.4017 19.8347 53.8697 20.3666 53.8697 21.0228C53.8697 21.6789 54.4017 22.2108 55.0578 22.2108C55.7139 22.2108 56.2458 21.6789 56.2458 21.0228Z" fill="black"/>
<path d="M57.172 22.7346C56.6263 22.7346 56.1839 22.2923 56.1839 21.7466C56.1839 21.2009 56.6263 20.7585 57.172 20.7585C57.7177 20.7585 58.16 21.2009 58.16 21.7466C58.16 22.2923 57.7177 22.7346 57.172 22.7346Z" fill="#FDD406"/>
<path fill-rule="evenodd" clip-rule="evenodd" d="M57.1721 20.9583C57.6073 20.9583 57.9601 21.3112 57.9601 21.7464C57.9601 22.1816 57.6073 22.5345 57.1721 22.5345C56.7368 22.5345 56.384 22.1816 56.384 21.7464C56.384 21.3112 56.7368 20.9583 57.1721 20.9583ZM58.3601 21.7464C58.3601 21.0903 57.8282 20.5583 57.1721 20.5583C56.5159 20.5583 55.984 21.0903 55.984 21.7464C55.984 22.4025 56.5159 22.9345 57.1721 22.9345C57.8282 22.9345 58.3601 22.4025 58.3601 21.7464Z" fill="black"/>
<path d="M58.9531 24.0442C58.4074 24.0442 57.9651 23.6019 57.9651 23.0562C57.9651 22.5105 58.4074 22.0681 58.9531 22.0681C59.4988 22.0681 59.9412 22.5105 59.9412 23.0562C59.9412 23.6019 59.4988 24.0442 58.9531 24.0442Z" fill="#FDD406"/>
<path fill-rule="evenodd" clip-rule="evenodd" d="M58.9523 22.2682C59.3876 22.2682 59.7404 22.621 59.7404 23.0562C59.7404 23.4914 59.3876 23.8443 58.9523 23.8443C58.5171 23.8443 58.1643 23.4914 58.1643 23.0562C58.1643 22.621 58.5171 22.2682 58.9523 22.2682ZM60.1404 23.0562C60.1404 22.4001 59.6085 21.8682 58.9523 21.8682C58.2962 21.8682 57.7643 22.4001 57.7643 23.0562C57.7643 23.7124 58.2962 24.2443 58.9523 24.2443C59.6085 24.2443 60.1404 23.7124 60.1404 23.0562Z" fill="black"/>
<path d="M60.2165 25.8711C59.6709 25.8711 59.2285 25.4288 59.2285 24.8831C59.2285 24.3374 59.6709 23.895 60.2165 23.895C60.7622 23.895 61.2046 24.3374 61.2046 24.8831C61.2046 25.4288 60.7622 25.8711 60.2165 25.8711Z" fill="#FDD406"/>
<path fill-rule="evenodd" clip-rule="evenodd" d="M60.216 24.0948C60.6512 24.0948 61.0041 24.4476 61.0041 24.8829C61.0041 25.3181 60.6512 25.6709 60.216 25.6709C59.7808 25.6709 59.4279 25.3181 59.4279 24.8829C59.4279 24.4476 59.7808 24.0948 60.216 24.0948ZM61.4041 24.8829C61.4041 24.2267 60.8721 23.6948 60.216 23.6948C59.5599 23.6948 59.0279 24.2267 59.0279 24.8829C59.0279 25.539 59.5599 26.0709 60.216 26.0709C60.8721 26.0709 61.4041 25.539 61.4041 24.8829Z" fill="black"/>
<path d="M60.8252 28.0196C60.2795 28.0196 59.8371 27.5772 59.8371 27.0315C59.8371 26.4858 60.2795 26.0435 60.8252 26.0435C61.3709 26.0435 61.8132 26.4858 61.8132 27.0315C61.8132 27.5772 61.3709 28.0196 60.8252 28.0196Z" fill="#FDD406"/>
<path fill-rule="evenodd" clip-rule="evenodd" d="M60.8255 26.2433C61.2607 26.2433 61.6135 26.5961 61.6135 27.0313C61.6135 27.4665 61.2607 27.8194 60.8255 27.8194C60.3903 27.8194 60.0374 27.4665 60.0374 27.0313C60.0374 26.5961 60.3903 26.2433 60.8255 26.2433ZM62.0135 27.0313C62.0135 26.3752 61.4816 25.8433 60.8255 25.8433C60.1694 25.8433 59.6374 26.3752 59.6374 27.0313C59.6374 27.6875 60.1694 28.2194 60.8255 28.2194C61.4816 28.2194 62.0135 27.6875 62.0135 27.0313Z" fill="black"/>
<path d="M60.8025 30.2483C60.2568 30.2483 59.8144 29.806 59.8144 29.2603C59.8144 28.7146 60.2568 28.2722 60.8025 28.2722C61.3482 28.2722 61.7905 28.7146 61.7905 29.2603C61.7905 29.806 61.3482 30.2483 60.8025 30.2483Z" fill="#FDD406"/>
<path fill-rule="evenodd" clip-rule="evenodd" d="M60.8019 28.4723C61.2372 28.4723 61.59 28.8251 61.59 29.2603C61.59 29.6955 61.2372 30.0484 60.8019 30.0484C60.3667 30.0484 60.0139 29.6955 60.0139 29.2603C60.0139 28.8251 60.3667 28.4723 60.8019 28.4723ZM61.99 29.2603C61.99 28.6042 61.4581 28.0723 60.8019 28.0723C60.1458 28.0723 59.6139 28.6042 59.6139 29.2603C59.6139 29.9165 60.1458 30.4484 60.8019 30.4484C61.4581 30.4484 61.99 29.9165 61.99 29.2603Z" fill="black"/>
<path d="M60.3769 32.4312C59.8313 32.4312 59.3889 31.9888 59.3889 31.4431C59.3889 30.8974 59.8313 30.4551 60.3769 30.4551C60.9226 30.4551 61.365 30.8974 61.365 31.4431C61.365 31.9888 60.9226 32.4312 60.3769 32.4312Z" fill="#FDD406"/>
<path fill-rule="evenodd" clip-rule="evenodd" d="M60.3771 30.6551C60.8124 30.6551 61.1652 31.008 61.1652 31.4432C61.1652 31.8784 60.8124 32.2312 60.3771 32.2312C59.9419 32.2312 59.5891 31.8784 59.5891 31.4432C59.5891 31.008 59.9419 30.6551 60.3771 30.6551ZM61.5652 31.4432C61.5652 30.787 61.0333 30.2551 60.3771 30.2551C59.721 30.2551 59.1891 30.787 59.1891 31.4432C59.1891 32.0993 59.721 32.6312 60.3771 32.6312C61.0333 32.6312 61.5652 32.0993 61.5652 31.4432Z" fill="black"/>
<path d="M43.4083 23.9064L43.5002 25.1931C45.9584 24.8165 49.4431 23.4468 52.6913 23.4468C55.6926 23.4468 58.0222 24.6473 58.0222 27.6747C58.0222 30.6584 56.7587 33.3718 55.081 36.1306L56.8274 36.9578C58.3879 33.9242 59.6766 31.3476 59.6766 27.8586C59.6766 24.9386 57.38 22.0681 53.4266 22.0681C49.9227 22.0681 46.3486 23.2488 43.4083 23.9064Z" fill="#FDD406"/>
<path fill-rule="evenodd" clip-rule="evenodd" d="M53.4266 22.2682C57.267 22.2682 59.4766 25.0466 59.4766 27.8586C59.4766 31.2285 58.2586 33.7341 56.738 36.6942L55.3667 36.0447C56.9924 33.342 58.2222 30.6459 58.2222 27.6748C58.2222 26.1021 57.6129 24.9817 56.5978 24.2624C55.5934 23.5506 54.2138 23.2468 52.6913 23.2468C51.0419 23.2468 49.3392 23.5943 47.7517 23.9846C47.2923 24.0975 46.8439 24.2136 46.4092 24.3261C45.4188 24.5826 44.4996 24.8205 43.684 24.9606L43.6199 24.0636C44.279 23.9132 44.9649 23.7397 45.671 23.5611C48.1072 22.945 50.7835 22.2682 53.4266 22.2682ZM59.8766 27.8586C59.8766 24.8307 57.4929 21.8682 53.4266 21.8682C50.7284 21.8682 47.982 22.5631 45.5375 23.1817C44.7808 23.3731 44.053 23.5573 43.3646 23.7112C43.2679 23.7328 43.2017 23.8219 43.2087 23.9206L43.3006 25.2074C43.3046 25.2631 43.3317 25.3146 43.3753 25.3495C43.419 25.3843 43.4752 25.3993 43.5304 25.3909C44.4193 25.2547 45.4441 24.9893 46.5313 24.7079C46.9616 24.5964 47.4018 24.4825 47.8472 24.373C49.4287 23.9842 51.0925 23.6468 52.6913 23.6468C54.1701 23.6468 55.4559 23.9434 56.3666 24.5887C57.2666 25.2265 57.8222 26.2201 57.8222 27.6748C57.8222 30.6015 56.5831 33.2755 54.9101 36.0268C54.8807 36.0752 54.8732 36.1338 54.8894 36.1881C54.9057 36.2423 54.9442 36.2872 54.9954 36.3114L56.7417 37.1386C56.8392 37.1848 56.9558 37.1453 57.0052 37.0494C58.5646 34.0178 59.8766 31.4017 59.8766 27.8586Z" fill="black"/>
<path d="M42.0144 10.625L40.9832 12.5562L42.0144 14.4813L43.0457 12.5562L42.0144 10.625ZM42.0144 15.5L40.9832 17.425L42.0144 19.3562L43.0457 17.425L42.0144 15.5Z" fill="#FDD406"/>
<path fill-rule="evenodd" clip-rule="evenodd" d="M42.0141 10.425C42.0879 10.425 42.1557 10.4657 42.1905 10.5308L43.2218 12.4621C43.2532 12.521 43.2532 12.5918 43.2216 12.6507L42.1904 14.5757C42.1556 14.6407 42.0878 14.6813 42.0141 14.6813C41.9404 14.6813 41.8726 14.6407 41.8378 14.5757L40.8065 12.6507C40.775 12.5918 40.7749 12.521 40.8064 12.4621L41.8377 10.5308C41.8724 10.4657 41.9403 10.425 42.0141 10.425ZM41.2096 12.5561L42.0141 14.0578L42.8185 12.5561L42.0141 11.0496L41.2096 12.5561ZM42.0141 15.3C42.0878 15.3 42.1556 15.3406 42.1904 15.4056L43.2216 17.3306C43.2532 17.3895 43.2532 17.4603 43.2218 17.5193L42.1905 19.4505C42.1557 19.5156 42.0879 19.5563 42.0141 19.5563C41.9403 19.5563 41.8724 19.5156 41.8377 19.4505L40.8064 17.5193C40.7749 17.4603 40.775 17.3895 40.8065 17.3306L41.8378 15.4056C41.8726 15.3406 41.9404 15.3 42.0141 15.3ZM41.2096 17.4252L42.0141 18.9317L42.8185 17.4252L42.0141 15.9236L41.2096 17.4252Z" fill="black"/>
<path d="M38.3379 14.9907L39.9642 16.022L41.5852 14.9907L39.9642 13.9595L38.3379 14.9907ZM42.4431 14.9907L44.0642 16.022L45.6905 14.9907L44.0642 13.9595L42.4431 14.9907Z" fill="#FDD406"/>
<path fill-rule="evenodd" clip-rule="evenodd" d="M39.8567 13.7906C39.9221 13.7491 40.0057 13.7492 40.0711 13.7908L41.6921 14.822C41.7499 14.8587 41.7848 14.9224 41.7848 14.9908C41.7848 15.0592 41.7499 15.1228 41.6921 15.1595L40.0711 16.1908C40.0057 16.2324 39.9221 16.2324 39.8567 16.1909L38.2303 15.1597C38.1725 15.123 38.1375 15.0593 38.1375 14.9908C38.1375 14.9223 38.1725 14.8585 38.2303 14.8219L39.8567 13.7906ZM43.9564 13.7908C44.0218 13.7492 44.1054 13.7491 44.1708 13.7906L45.7971 14.8219C45.855 14.8585 45.89 14.9223 45.89 14.9908C45.89 15.0593 45.855 15.123 45.7971 15.1597L44.1708 16.1909C44.1054 16.2324 44.0218 16.2324 43.9564 16.1908L42.3353 15.1595C42.2776 15.1228 42.2427 15.0592 42.2427 14.9908C42.2427 14.9224 42.2776 14.8587 42.3353 14.822L43.9564 13.7908ZM38.7109 14.9908L39.9636 15.7851L41.2122 14.9908L39.9636 14.1965L38.7109 14.9908ZM44.0639 14.1965L42.8153 14.9908L44.0639 15.7851L45.3166 14.9908L44.0639 14.1965Z" fill="black"/>
<path d="M42.0144 15.7952C42.4459 15.7952 42.7957 15.4454 42.7957 15.0139C42.7957 14.5824 42.4459 14.2327 42.0144 14.2327C41.5829 14.2327 41.2332 14.5824 41.2332 15.0139C41.2332 15.4454 41.5829 15.7952 42.0144 15.7952Z" fill="#FDD406"/>
<path fill-rule="evenodd" clip-rule="evenodd" d="M42.0141 14.4325C41.6931 14.4325 41.4328 14.6927 41.4328 15.0137C41.4328 15.3347 41.6931 15.595 42.0141 15.595C42.3351 15.595 42.5953 15.3347 42.5953 15.0137C42.5953 14.6927 42.3351 14.4325 42.0141 14.4325ZM41.0328 15.0137C41.0328 14.4718 41.4722 14.0325 42.0141 14.0325C42.556 14.0325 42.9953 14.4718 42.9953 15.0137C42.9953 15.5557 42.556 15.995 42.0141 15.995C41.4722 15.995 41.0328 15.5557 41.0328 15.0137Z" fill="black"/>
<path d="M42.0136 22.0909C43.1684 22.0909 44.1046 21.1548 44.1046 19.9999C44.1046 18.8451 43.1684 17.9089 42.0136 17.9089C40.8588 17.9089 39.9226 18.8451 39.9226 19.9999C39.9226 21.1548 40.8588 22.0909 42.0136 22.0909Z" fill="#FDD406"/>
<path fill-rule="evenodd" clip-rule="evenodd" d="M42.0141 18.109C40.9698 18.109 40.1231 18.9556 40.1231 20C40.1231 21.0443 40.9698 21.891 42.0141 21.891C43.0585 21.891 43.9051 21.0443 43.9051 20C43.9051 18.9556 43.0585 18.109 42.0141 18.109ZM39.7231 20C39.7231 18.7347 40.7489 17.709 42.0141 17.709C43.2794 17.709 44.3051 18.7347 44.3051 20C44.3051 21.2653 43.2794 22.291 42.0141 22.291C40.7489 22.291 39.7231 21.2653 39.7231 20Z" fill="black"/>
<path fill-rule="evenodd" clip-rule="evenodd" d="M41.4886 17.825C41.5715 17.825 41.6386 17.8921 41.6386 17.975C41.6386 18.4255 41.6363 18.7401 41.6344 19.0081C41.6336 19.1108 41.6329 19.2067 41.6324 19.3008C41.632 19.3807 41.5689 19.4463 41.489 19.4498C40.9911 19.4719 40.5 19.5242 40.0195 19.6042C39.9378 19.6178 39.8605 19.5625 39.8469 19.4808C39.8333 19.3991 39.8886 19.3218 39.9703 19.3082C40.4166 19.234 40.8719 19.183 41.3333 19.1572C41.3336 19.1077 41.334 19.0572 41.3344 19.0049C41.3363 18.7373 41.3386 18.4243 41.3386 17.975C41.3386 17.8921 41.4058 17.825 41.4886 17.825ZM42.5449 17.825C42.6277 17.825 42.6949 17.8921 42.6949 17.975V19.1573C43.156 19.183 43.611 19.234 44.057 19.3082C44.1387 19.3218 44.194 19.3991 44.1804 19.4808C44.1668 19.5625 44.0895 19.6178 44.0078 19.6042C43.5273 19.5242 43.0362 19.4719 42.5382 19.4498C42.4581 19.4462 42.3949 19.3802 42.3949 19.3V17.975C42.3949 17.8921 42.4621 17.825 42.5449 17.825ZM42.0136 20.4937C41.332 20.4937 40.6644 20.5517 40.0134 20.6604C39.9316 20.6741 39.8543 20.6189 39.8407 20.5372C39.827 20.4555 39.8822 20.3781 39.9639 20.3645C40.6308 20.2531 41.3149 20.1937 42.0136 20.1937C42.7124 20.1937 43.3965 20.2531 44.0634 20.3645C44.1451 20.3781 44.2002 20.4555 44.1866 20.5372C44.1729 20.6189 44.0956 20.6741 44.0139 20.6604C43.3629 20.5517 42.6953 20.4937 42.0136 20.4937Z" fill="black"/>
<path d="M39.9701 23.5376C39.7717 26.954 39.3684 30.4334 38.0388 32.9626L40.2013 32.0876C40.9566 29.2218 41.1153 25.5191 41.3451 23.7688L39.9701 23.5376ZM44.0576 23.5376L42.6826 23.7688C42.9123 25.5191 43.071 29.2218 43.8263 32.0876L45.9888 32.9626C44.6593 30.4334 44.2559 26.954 44.0576 23.5376Z" fill="#FDD406"/>
<path fill-rule="evenodd" clip-rule="evenodd" d="M39.8452 23.3813C39.8896 23.3458 39.947 23.331 40.003 23.3404L41.378 23.5717C41.4842 23.5895 41.5572 23.6882 41.5432 23.7949C41.4823 24.2584 41.426 24.8685 41.3614 25.5691C41.186 27.469 40.9493 30.0336 40.3945 32.1386C40.3785 32.1996 40.3346 32.2494 40.2761 32.273L38.1136 33.148C38.0358 33.1795 37.9467 33.1591 37.8903 33.0969C37.834 33.0346 37.8225 32.9439 37.8616 32.8696C39.1687 30.3831 39.5717 26.9444 39.7702 23.5261C39.7735 23.4693 39.8008 23.4167 39.8452 23.3813ZM44.1821 23.3813C44.2265 23.4167 44.2537 23.4693 44.257 23.5261C44.4555 26.9444 44.8586 30.3831 46.1657 32.8696C46.2047 32.9439 46.1932 33.0346 46.1369 33.0969C46.0806 33.1591 45.9914 33.1795 45.9136 33.148L43.7511 32.273C43.6927 32.2494 43.6488 32.1996 43.6327 32.1386C43.0779 30.0336 42.8412 27.469 42.6659 25.5691C42.6012 24.8685 42.5449 24.2584 42.4841 23.7949C42.4701 23.6882 42.543 23.5895 42.6492 23.5717L44.0242 23.3404C44.0802 23.331 44.1376 23.3458 44.1821 23.3813ZM40.1563 23.7718C39.9658 26.9101 39.5886 30.118 38.45 32.5804L40.0329 31.94C40.5604 29.8895 40.7865 27.439 40.9586 25.5737C41.0162 24.9494 41.0678 24.3906 41.1226 23.9343L40.1563 23.7718ZM42.9047 23.9343C42.9595 24.3906 43.011 24.9494 43.0686 25.5737C43.2408 27.439 43.4669 29.8895 43.9943 31.94L45.5772 32.5804C44.4386 30.118 44.0614 26.9101 43.8709 23.7718L42.9047 23.9343Z" fill="black"/>
<path d="M42.011 30.9375C39.4283 30.9375 37.5311 32.1548 37.4172 35.2562C36.7859 34.1453 34.1152 30.6511 31.6235 31.1187C30.1415 31.3969 28.832 33.4519 29.0547 35.8062C27.8277 32.2803 24.2334 31.7024 21.611 33.7875C23.9394 35.702 24.9752 41.3544 26.936 43.8062H42.011H57.086C59.0467 41.3544 60.0888 35.702 62.4172 33.7875C59.7948 31.7024 56.2004 32.2803 54.9735 35.8062C55.1961 33.4519 53.8804 31.3969 52.3985 31.1187C49.9067 30.6511 47.2423 34.1453 46.611 35.2562C46.497 32.1548 44.5936 30.9375 42.011 30.9375Z" fill="#FDD406"/>
<path fill-rule="evenodd" clip-rule="evenodd" d="M38.6586 31.7817C39.5184 31.0484 40.6912 30.7375 42.011 30.7375C43.3308 30.7375 44.5051 31.0484 45.3664 31.7816C46.1178 32.4212 46.609 33.3632 46.7638 34.6418C47.1862 34.0251 47.8622 33.1793 48.6731 32.4471C49.7366 31.4869 51.0902 30.6698 52.4354 30.9222C53.2522 31.0755 53.9939 31.7096 54.4985 32.584C54.8655 33.22 55.1148 33.995 55.1808 34.8366C55.8726 33.5575 56.9329 32.7788 58.1263 32.4981C59.5736 32.1577 61.1893 32.5557 62.5417 33.631C62.589 33.6686 62.6168 33.7255 62.6173 33.7859C62.6177 33.8463 62.5909 33.9037 62.5443 33.942C61.9912 34.3968 61.5042 35.083 61.0534 35.9115C60.6034 36.7382 60.1972 37.6918 59.799 38.6708C59.7066 38.898 59.6146 39.1266 59.5227 39.3553C59.2197 40.1082 58.917 40.8608 58.601 41.5583C58.1892 42.4673 57.7482 43.2985 57.2422 43.9312C57.2043 43.9787 57.1468 44.0063 57.086 44.0063H26.936C26.8752 44.0063 26.8178 43.9787 26.7798 43.9312C26.2738 43.2984 25.8332 42.4672 25.422 41.5582C25.1062 40.8602 24.8038 40.1071 24.5013 39.3537C24.4097 39.1255 24.3181 38.8973 24.2261 38.6707C23.8287 37.6917 23.4233 36.7381 22.9739 35.9114C22.5236 35.083 22.037 34.3968 21.484 33.942C21.4373 33.9037 21.4105 33.8463 21.411 33.7859C21.4115 33.7255 21.4393 33.6686 21.4865 33.631C22.8389 32.5557 24.4547 32.1577 25.902 32.4981C27.0952 32.7788 28.1553 33.5573 28.8472 34.8361C28.9127 33.9948 29.1608 33.2201 29.5265 32.5843C30.0295 31.7097 30.7697 31.0756 31.5866 30.9222C32.9318 30.6698 34.287 31.4868 35.352 32.447C36.1642 33.1793 36.8414 34.0252 37.2643 34.6421C37.4188 33.3635 37.9086 32.4214 38.6586 31.7817ZM38.9181 32.0861C38.1595 32.7331 37.6726 33.7541 37.6171 35.2636C37.6138 35.353 37.5517 35.4293 37.4648 35.4506C37.378 35.4718 37.2875 35.4328 37.2434 35.3551C36.9374 34.8168 36.1251 33.6826 35.0841 32.7441C34.033 31.7964 32.8069 31.1002 31.6604 31.3154C30.9954 31.4402 30.3398 31.9726 29.8733 32.7837C29.4092 33.5906 29.1464 34.6515 29.2539 35.7875C29.2634 35.8882 29.1962 35.9802 29.0973 36.0017C28.9985 36.0233 28.8991 35.9676 28.8659 35.872C28.2727 34.1675 27.1174 33.1949 25.8104 32.8875C24.5634 32.5941 23.1535 32.9006 21.9266 33.7982C22.4565 34.2911 22.9133 34.9624 23.3253 35.7204C23.7863 36.5685 24.1989 37.5403 24.5967 38.5202C24.6901 38.7503 24.7826 38.9807 24.8748 39.2102C25.1766 39.9619 25.4746 40.7039 25.7864 41.3933C26.1767 42.2561 26.5826 43.0219 27.0332 43.6063H56.9888C57.4395 43.0219 57.8458 42.256 58.2366 41.3932C58.5487 40.7043 58.8471 39.9628 59.1493 39.2116C59.2418 38.9816 59.3347 38.7507 59.4285 38.5201C59.827 37.5401 60.2404 36.5684 60.702 35.7203C61.1145 34.9623 61.5717 34.2911 62.1016 33.7982C60.8747 32.9006 59.4649 32.5941 58.2179 32.8875C56.9109 33.1949 55.7555 34.1675 55.1624 35.872C55.1292 35.9676 55.0298 36.0233 54.9309 36.0017C54.8321 35.9802 54.7649 35.8882 54.7744 35.7875C54.8818 34.6517 54.6176 33.5909 54.152 32.7839C53.684 31.9728 53.0268 31.4402 52.3616 31.3154C51.2151 31.1002 49.9907 31.7963 48.9412 32.744C47.9018 33.6825 47.0909 34.8166 46.7849 35.3551C46.7407 35.4328 46.6503 35.4718 46.5635 35.4506C46.4766 35.4293 46.4144 35.353 46.4111 35.2636C46.3557 33.7543 45.8674 32.7333 45.1072 32.0862C44.3427 31.4354 43.2739 31.1375 42.011 31.1375C40.7481 31.1375 39.681 31.4354 38.9181 32.0861Z" fill="black"/>
<path d="M57.0412 43.8051C57.0412 44.9213 50.3089 46.1489 42.0137 46.1489C33.7184 46.1489 26.9861 44.9213 26.9861 43.8051C26.9861 42.6889 33.7184 42.1047 42.0137 42.1047C50.3089 42.1047 57.0412 42.6889 57.0412 43.8051Z" fill="black"/>
<path fill-rule="evenodd" clip-rule="evenodd" d="M27.3704 43.5396C27.1806 43.6559 27.1365 43.7481 27.1365 43.8052C27.1365 43.8668 27.1861 43.9689 27.3781 44.1035C27.5624 44.2327 27.8434 44.3669 28.2186 44.5011C28.967 44.7687 30.0577 45.025 31.4139 45.2476C34.1244 45.6925 37.873 45.999 42.0141 45.999C46.1552 45.999 49.9038 45.6925 52.6143 45.2476C53.9706 45.025 55.0612 44.7687 55.8096 44.5011C56.1848 44.3669 56.4658 44.2327 56.6501 44.1035C56.8422 43.9689 56.8917 43.8668 56.8917 43.8052C56.8917 43.7481 56.8476 43.6559 56.6578 43.5396C56.4751 43.4276 56.1954 43.3176 55.8199 43.2131C55.0714 43.0048 53.9804 42.8282 52.623 42.6856C49.9103 42.4008 46.1592 42.2548 42.0141 42.2548C37.869 42.2548 34.1179 42.4008 31.4053 42.6856C30.0478 42.8282 28.9569 43.0048 28.2083 43.2131C27.8329 43.3176 27.5531 43.4276 27.3704 43.5396ZM31.374 42.3873C34.1013 42.1009 37.864 41.9548 42.0141 41.9548C46.1642 41.9548 49.9269 42.1009 52.6543 42.3873C54.0168 42.5303 55.1274 42.709 55.9004 42.9241C56.2857 43.0314 56.5967 43.1502 56.8146 43.2838C57.0254 43.413 57.1917 43.5832 57.1917 43.8052C57.1917 44.0226 57.0309 44.203 56.8223 44.3492C56.606 44.5008 56.2963 44.6457 55.9107 44.7835C55.1376 45.06 54.0266 45.3198 52.6629 45.5437C49.9334 45.9916 46.1682 46.299 42.0141 46.299C37.86 46.299 34.0948 45.9916 31.3653 45.5437C30.0016 45.3198 28.8907 45.06 28.1176 44.7835C27.732 44.6457 27.4222 44.5008 27.2059 44.3492C26.9974 44.203 26.8365 44.0226 26.8365 43.8052C26.8365 43.5832 27.0029 43.413 27.2136 43.2838C27.4315 43.1502 27.7426 43.0314 28.1279 42.9241C28.9008 42.709 30.0115 42.5303 31.374 42.3873Z" fill="black"/>
<path d="M42.0142 23.5896C42.4012 23.5896 42.715 23.2759 42.715 22.8888C42.715 22.5018 42.4012 22.188 42.0142 22.188C41.6271 22.188 41.3134 22.5018 41.3134 22.8888C41.3134 23.2759 41.6271 23.5896 42.0142 23.5896Z" fill="#FDD406"/>
<path fill-rule="evenodd" clip-rule="evenodd" d="M42.0137 22.3381C41.7095 22.3381 41.4628 22.5847 41.4628 22.8889C41.4628 23.1931 41.7095 23.4397 42.0137 23.4397C42.3179 23.4397 42.5645 23.1931 42.5645 22.8889C42.5645 22.5847 42.3179 22.3381 42.0137 22.3381ZM41.1628 22.8889C41.1628 22.419 41.5438 22.0381 42.0137 22.0381C42.4836 22.0381 42.8645 22.419 42.8645 22.8889C42.8645 23.3588 42.4836 23.7397 42.0137 23.7397C41.5438 23.7397 41.1628 23.3588 41.1628 22.8889Z" fill="black"/>
<path d="M42.0141 25.1523C42.4266 25.1523 42.7609 24.8179 42.7609 24.4055C42.7609 23.993 42.4266 23.6587 42.0141 23.6587C41.6017 23.6587 41.2673 23.993 41.2673 24.4055C41.2673 24.8179 41.6017 25.1523 42.0141 25.1523Z" fill="#FDD406"/>
<path fill-rule="evenodd" clip-rule="evenodd" d="M42.0137 23.8088C41.6841 23.8088 41.4169 24.076 41.4169 24.4056C41.4169 24.7352 41.6841 25.0024 42.0137 25.0024C42.3433 25.0024 42.6105 24.7352 42.6105 24.4056C42.6105 24.076 42.3433 23.8088 42.0137 23.8088ZM41.1169 24.4056C41.1169 23.9103 41.5184 23.5088 42.0137 23.5088C42.509 23.5088 42.9105 23.9103 42.9105 24.4056C42.9105 24.9009 42.509 25.3024 42.0137 25.3024C41.5184 25.3024 41.1169 24.9009 41.1169 24.4056Z" fill="black"/>
<path d="M42.0137 26.8526C42.4642 26.8526 42.8294 26.4874 42.8294 26.0369C42.8294 25.5864 42.4642 25.2212 42.0137 25.2212C41.5632 25.2212 41.198 25.5864 41.198 26.0369C41.198 26.4874 41.5632 26.8526 42.0137 26.8526Z" fill="#FDD406"/>
<path fill-rule="evenodd" clip-rule="evenodd" d="M42.0142 25.3713C41.6465 25.3713 41.3485 25.6693 41.3485 26.037C41.3485 26.4047 41.6465 26.7027 42.0142 26.7027C42.3818 26.7027 42.6799 26.4047 42.6799 26.037C42.6799 25.6693 42.3818 25.3713 42.0142 25.3713ZM41.0485 26.037C41.0485 25.5037 41.4808 25.0713 42.0142 25.0713C42.5475 25.0713 42.9799 25.5037 42.9799 26.037C42.9799 26.5704 42.5475 27.0027 42.0142 27.0027C41.4808 27.0027 41.0485 26.5704 41.0485 26.037Z" fill="black"/>
<path d="M42.0141 28.7828C42.5281 28.7828 42.9447 28.3662 42.9447 27.8522C42.9447 27.3383 42.5281 26.9216 42.0141 26.9216C41.5001 26.9216 41.0835 27.3383 41.0835 27.8522C41.0835 28.3662 41.5001 28.7828 42.0141 28.7828Z" fill="#FDD406"/>
<path fill-rule="evenodd" clip-rule="evenodd" d="M42.0142 27.0715C41.5831 27.0715 41.2336 27.421 41.2336 27.8521C41.2336 28.2832 41.5831 28.6327 42.0142 28.6327C42.4453 28.6327 42.7948 28.2832 42.7948 27.8521C42.7948 27.421 42.4453 27.0715 42.0142 27.0715ZM40.9336 27.8521C40.9336 27.2553 41.4174 26.7715 42.0142 26.7715C42.611 26.7715 43.0948 27.2553 43.0948 27.8521C43.0948 28.4489 42.611 28.9327 42.0142 28.9327C41.4174 28.9327 40.9336 28.4489 40.9336 27.8521Z" fill="black"/>
<path d="M42.0145 30.8968C42.5792 30.8968 43.037 30.439 43.037 29.8743C43.037 29.3096 42.5792 28.8518 42.0145 28.8518C41.4497 28.8518 40.9919 29.3096 40.9919 29.8743C40.9919 30.439 41.4497 30.8968 42.0145 30.8968Z" fill="#FDD406"/>
<path fill-rule="evenodd" clip-rule="evenodd" d="M42.0142 29.0017C41.5323 29.0017 41.1417 29.3923 41.1417 29.8742C41.1417 30.3561 41.5323 30.7467 42.0142 30.7467C42.4961 30.7467 42.8867 30.3561 42.8867 29.8742C42.8867 29.3923 42.4961 29.0017 42.0142 29.0017ZM40.8417 29.8742C40.8417 29.2266 41.3666 28.7017 42.0142 28.7017C42.6618 28.7017 43.1867 29.2266 43.1867 29.8742C43.1867 30.5217 42.6618 31.0467 42.0142 31.0467C41.3666 31.0467 40.8417 30.5217 40.8417 29.8742Z" fill="black"/>
<path d="M41.6079 31.8411C41.4973 31.8397 41.3927 31.9329 41.4204 32.1098C41.453 32.3185 41.4938 32.7089 41.5329 32.9723C41.5771 33.271 41.7512 33.1984 41.7954 32.9661C41.8397 32.7339 41.8218 32.5849 41.8329 32.1536C41.8385 31.938 41.7185 31.8425 41.6079 31.8411ZM42.4204 31.8411C42.3098 31.8425 42.1899 31.938 42.1954 32.1536C42.2065 32.5849 42.1887 32.7339 42.2329 32.9661C42.2772 33.1984 42.4512 33.271 42.4954 32.9723C42.5345 32.7089 42.5753 32.3185 42.6079 32.1098C42.6356 31.9329 42.531 31.8397 42.4204 31.8411ZM40.8829 31.9536C40.7817 31.9677 40.6768 32.0697 40.6829 32.1786C40.6939 32.3776 40.749 32.6164 40.7704 32.9161C40.7925 33.2257 41.0107 33.1054 41.0329 32.9286C41.055 32.7516 41.08 32.4901 41.0579 32.1473C41.0496 32.0187 40.9935 31.9622 40.9267 31.9536C40.9127 31.9518 40.8974 31.9516 40.8829 31.9536ZM43.1017 31.9536C43.0348 31.9622 42.9787 32.0187 42.9704 32.1473C42.9483 32.4901 42.9733 32.7516 42.9954 32.9286C43.0176 33.1054 43.2358 33.2257 43.2579 32.9161C43.2793 32.6164 43.3344 32.3776 43.3454 32.1786C43.3515 32.0697 43.2466 31.9677 43.1454 31.9536C43.131 31.9516 43.1156 31.9518 43.1017 31.9536ZM40.0142 32.3036C39.9215 32.3275 39.8365 32.4389 39.8642 32.5661C39.9194 32.8205 39.9704 33.1017 39.9704 33.3598C39.9704 33.581 40.1593 33.5021 40.1704 33.3473C40.1814 33.1925 40.2017 32.8646 40.2017 32.5661C40.2017 32.3432 40.1068 32.2796 40.0142 32.3036ZM43.9517 32.3036C43.8859 32.3218 43.8267 32.3989 43.8267 32.5661C43.8267 32.8646 43.8469 33.1925 43.8579 33.3473C43.869 33.5021 44.0579 33.581 44.0579 33.3598C44.0579 33.1017 44.1089 32.8205 44.1642 32.5661C44.1918 32.4389 44.1068 32.3275 44.0142 32.3036C43.991 32.2976 43.9736 32.2975 43.9517 32.3036ZM32.1329 32.3378C32.0221 32.3341 31.9444 32.4844 32.0204 32.6503C32.142 32.9157 32.2712 33.0832 32.3954 33.369C32.506 33.6234 32.6757 33.4648 32.6204 33.2878C32.5651 33.1108 32.505 32.9137 32.3392 32.5378C32.2769 32.3967 32.1994 32.34 32.1329 32.3378ZM51.8954 32.3378C51.8289 32.34 51.7514 32.3967 51.6892 32.5378C51.5233 32.9137 51.4632 33.1108 51.4079 33.2878C51.3526 33.4648 51.5223 33.6234 51.6329 33.369C51.7571 33.0832 51.8863 32.9157 52.0079 32.6503C52.084 32.4844 52.0062 32.3341 51.8954 32.3378ZM32.9329 32.3503C32.8513 32.3752 32.8019 32.4786 32.8517 32.6003C32.9513 32.8436 33.095 33.093 33.1954 33.3565C33.2838 33.5887 33.4806 33.5229 33.4142 33.3128C33.3478 33.1027 33.3281 32.9797 33.1954 32.5815C33.129 32.3825 33.0145 32.3254 32.9329 32.3503ZM51.0329 32.3503C50.9632 32.3652 50.8827 32.4322 50.8329 32.5815C50.7002 32.9797 50.6805 33.1027 50.6142 33.3128C50.5477 33.5229 50.7445 33.5887 50.8329 33.3565C50.9333 33.093 51.0771 32.8436 51.1767 32.6003C51.2264 32.4786 51.177 32.3752 51.0954 32.3503C51.075 32.344 51.0561 32.3453 51.0329 32.3503ZM33.9329 32.544C33.8301 32.5636 33.7505 32.7205 33.8204 32.9128C33.9089 33.1561 34.0348 33.3863 34.1454 33.6628C34.256 33.9392 34.4397 33.8835 34.3954 33.7065C34.3512 33.5296 34.2969 33.2363 34.1642 32.794C34.1061 32.6005 34.0129 32.5288 33.9329 32.544ZM50.0954 32.544C50.0154 32.5288 49.9222 32.6005 49.8642 32.794C49.7314 33.2363 49.6772 33.5296 49.6329 33.7065C49.5886 33.8835 49.7723 33.9392 49.8829 33.6628C49.9935 33.3863 50.1194 33.1561 50.2079 32.9128C50.2779 32.7205 50.1982 32.5636 50.0954 32.544ZM31.4579 32.6815C31.3465 32.6929 31.2451 32.8746 31.3142 33.0128C31.4248 33.234 31.4949 33.3092 31.6017 33.544C31.7123 33.7873 31.8334 33.5989 31.7892 33.444C31.7449 33.2892 31.6882 33.1089 31.6329 32.8878C31.5924 32.7258 31.5247 32.6747 31.4579 32.6815ZM52.5704 32.6815C52.5036 32.6747 52.4359 32.7258 52.3954 32.8878C52.3401 33.1089 52.2834 33.2892 52.2392 33.444C52.1949 33.5989 52.316 33.7873 52.4267 33.544C52.5334 33.3092 52.6035 33.234 52.7142 33.0128C52.7832 32.8746 52.6818 32.6929 52.5704 32.6815ZM39.1642 33.2411C39.0474 33.241 38.9227 33.396 38.9642 33.5411C39.0305 33.7734 39.1331 33.9793 39.2079 34.2786C39.2743 34.544 39.4627 34.4118 39.4517 34.2348C39.4406 34.0579 39.4103 33.8171 39.3329 33.4411C39.3039 33.3001 39.2342 33.2411 39.1642 33.2411ZM44.8642 33.2411C44.7941 33.2411 44.7244 33.3001 44.6954 33.4411C44.6181 33.8171 44.5877 34.0579 44.5767 34.2348C44.5656 34.4118 44.7541 34.544 44.8204 34.2786C44.8953 33.9793 44.9978 33.7734 45.0642 33.5411C45.1056 33.396 44.9809 33.241 44.8642 33.2411ZM42.0142 33.4786C41.8703 33.4786 41.8505 33.6717 41.8454 33.8286C41.8289 34.3428 41.6154 34.8423 41.4329 35.0911C41.2505 35.34 40.9818 35.2738 40.7329 35.1411C40.484 35.0084 40.3358 34.9089 40.0704 34.7098C39.8049 34.5108 39.6037 34.6272 39.9204 35.0786C40.8439 36.3946 41.8454 37.5195 41.8454 39.6661C41.8454 39.9436 41.8939 40.0286 42.0142 40.0286C42.1344 40.0286 42.1892 39.9436 42.1892 39.6661C42.1892 37.5195 43.1844 36.3946 44.1079 35.0786C44.4246 34.6272 44.2234 34.5108 43.9579 34.7098C43.6925 34.9089 43.5443 35.0084 43.2954 35.1411C43.0465 35.2738 42.7779 35.34 42.5954 35.0911C42.4129 34.8423 42.1994 34.3428 42.1829 33.8286C42.1779 33.6717 42.158 33.4786 42.0142 33.4786ZM34.9579 33.1565C34.9453 33.1562 34.9316 33.1592 34.9204 33.1628C34.8667 33.1797 34.8309 33.2445 34.8517 33.3565C34.8888 33.557 35.0276 33.9498 35.0829 34.1378C35.1383 34.3258 35.3694 34.2858 35.3142 34.0315C35.2588 33.7771 35.2618 33.7003 35.1954 33.4128C35.1591 33.2555 35.046 33.1589 34.9579 33.1565ZM49.0704 33.1565C48.9823 33.1589 48.8692 33.2555 48.8329 33.4128C48.7666 33.7003 48.7695 33.7771 48.7142 34.0315C48.6589 34.2858 48.8901 34.3258 48.9454 34.1378C49.0007 33.9498 49.1396 33.557 49.1767 33.3565C49.1974 33.2445 49.1616 33.1797 49.1079 33.1628C49.0967 33.1592 49.083 33.1562 49.0704 33.1565ZM30.7642 33.2378C30.6484 33.2468 30.5654 33.3923 30.6829 33.6065C30.8097 33.8379 31.0271 34.1282 31.1267 34.294C31.2262 34.4599 31.3983 34.348 31.2767 34.1378C31.1551 33.9277 31.1142 33.6863 30.9704 33.3878C30.9165 33.2758 30.8336 33.2323 30.7642 33.2378ZM53.2642 33.2378C53.1947 33.2323 53.1118 33.2758 53.0579 33.3878C52.9141 33.6863 52.8733 33.9277 52.7517 34.1378C52.63 34.348 52.8021 34.4599 52.9017 34.294C53.0012 34.1282 53.2186 33.8379 53.3454 33.6065C53.4629 33.3923 53.3799 33.2468 53.2642 33.2378ZM24.4267 33.9036C24.2931 33.8965 24.2512 34.1376 24.3767 34.2973C24.5592 34.5295 24.6862 34.6527 24.8954 34.8411C25.0614 34.9904 25.1096 34.7966 25.0267 34.6473C24.9437 34.4981 24.8238 34.3462 24.6579 34.0973C24.567 33.9609 24.4874 33.9068 24.4267 33.9036ZM59.6017 33.9036C59.5409 33.9068 59.4613 33.9609 59.3704 34.0973C59.2045 34.3462 59.0846 34.4981 59.0017 34.6473C58.9187 34.7966 58.967 34.9904 59.1329 34.8411C59.3421 34.6527 59.4691 34.5295 59.6517 34.2973C59.7771 34.1376 59.7352 33.8965 59.6017 33.9036ZM25.4329 34.1036C25.3265 34.105 25.2562 34.1836 25.3392 34.3661C25.4579 34.6273 25.6146 34.9232 25.7142 35.1223C25.8137 35.3214 26.117 35.3882 25.9954 35.0786C25.8737 34.7689 25.8498 34.6099 25.7392 34.3223C25.6839 34.1786 25.5394 34.1022 25.4329 34.1036ZM58.5954 34.1036C58.489 34.1022 58.3445 34.1786 58.2892 34.3223C58.1786 34.6099 58.1546 34.7689 58.0329 35.0786C57.9113 35.3882 58.2146 35.3214 58.3142 35.1223C58.4138 34.9232 58.5704 34.6273 58.6892 34.3661C58.7721 34.1836 58.7018 34.105 58.5954 34.1036ZM23.4829 34.1723C23.3282 34.1739 23.3148 34.3291 23.4517 34.4286C23.6342 34.5613 23.8517 34.7085 24.0642 34.8786C24.313 35.0776 24.4093 34.8945 24.2767 34.7286C24.144 34.5627 24.0147 34.3945 23.6829 34.2286C23.6 34.1871 23.5345 34.1718 23.4829 34.1723ZM60.5454 34.1723C60.4938 34.1718 60.4284 34.1871 60.3454 34.2286C60.0136 34.3945 59.8843 34.5627 59.7517 34.7286C59.619 34.8945 59.7154 35.0776 59.9642 34.8786C60.1766 34.7085 60.3941 34.5613 60.5767 34.4286C60.7135 34.3291 60.7002 34.1739 60.5454 34.1723ZM38.6142 34.3161C38.5276 34.3282 38.4529 34.4265 38.4892 34.5536C38.5555 34.7858 38.6308 35.0319 38.6767 35.2723C38.7209 35.5046 38.9897 35.5074 38.9454 35.2973C38.9012 35.0872 38.879 34.8243 38.8017 34.5036C38.7726 34.3833 38.712 34.3255 38.6517 34.3161C38.6391 34.3141 38.6265 34.3143 38.6142 34.3161ZM45.3767 34.3161C45.3163 34.3255 45.2557 34.3833 45.2267 34.5036C45.1493 34.8243 45.1271 35.0872 45.0829 35.2973C45.0386 35.5074 45.3074 35.5046 45.3517 35.2723C45.3975 35.0319 45.4728 34.7858 45.5392 34.5536C45.5754 34.4265 45.5008 34.3282 45.4142 34.3161C45.4018 34.3143 45.3892 34.3141 45.3767 34.3161ZM32.5954 33.919C32.5274 33.9378 32.4883 34.0678 32.5392 34.2503C32.8212 35.2622 32.9077 35.7951 32.8579 36.044C32.8082 36.2928 32.6716 36.327 32.4892 36.244C32.3067 36.1611 32.0925 36.0414 31.9267 35.9253C31.7608 35.8091 31.5883 35.9481 31.8267 36.144C33.0376 37.1394 33.877 38.2769 34.2017 39.6565C34.268 39.9385 34.4452 39.9717 34.3954 39.6565C34.1209 37.9186 34.0682 36.4898 34.4829 35.594C34.6388 35.2574 34.4818 34.9341 34.2329 35.4815C34.067 35.8465 33.7986 35.9905 33.5829 35.6753C33.3673 35.3601 32.9218 34.5193 32.7892 34.1378C32.7394 33.9947 32.678 33.9285 32.6267 33.919C32.616 33.9171 32.6051 33.9163 32.5954 33.919ZM51.4017 33.919C51.3503 33.9285 51.2889 33.9947 51.2392 34.1378C51.1065 34.5193 50.661 35.3601 50.4454 35.6753C50.2297 35.9905 49.9613 35.8465 49.7954 35.4815C49.5465 34.9341 49.3895 35.2574 49.5454 35.594C49.9601 36.4898 49.9074 37.9186 49.6329 39.6565C49.5831 39.9717 49.7603 39.9385 49.8267 39.6565C50.1513 38.2769 50.9907 37.1394 52.2017 36.144C52.44 35.9481 52.2675 35.8091 52.1017 35.9253C51.9358 36.0414 51.7216 36.1611 51.5392 36.244C51.3567 36.327 51.2202 36.2928 51.1704 36.044C51.1206 35.7951 51.2071 35.2622 51.4892 34.2503C51.54 34.0678 51.5009 33.9378 51.4329 33.919C51.4232 33.9163 51.4123 33.9171 51.4017 33.919ZM26.5079 34.4036C26.3987 34.405 26.3082 34.4815 26.3579 34.6473C26.4377 34.913 26.6026 35.2002 26.6579 35.3661C26.7133 35.5319 26.8911 35.4545 26.8579 35.2223C26.8247 34.9901 26.8084 34.8517 26.7642 34.5973C26.742 34.4702 26.6171 34.4022 26.5079 34.4036ZM57.5204 34.4036C57.4112 34.4022 57.2863 34.4702 57.2642 34.5973C57.2199 34.8517 57.2036 34.9901 57.1704 35.2223C57.1372 35.4545 57.3151 35.5319 57.3704 35.3661C57.4257 35.2002 57.5906 34.913 57.6704 34.6473C57.7202 34.4815 57.6296 34.405 57.5204 34.4036ZM30.2642 34.0565C30.1372 34.0337 30.1189 34.3614 30.2267 34.494C30.3704 34.6711 30.5701 34.885 30.7704 35.1253C30.9363 35.3244 31.0388 35.1474 30.9392 34.9815C30.8396 34.8156 30.692 34.6393 30.4267 34.219C30.3603 34.114 30.3065 34.0641 30.2642 34.0565ZM53.7642 34.0565C53.7218 34.0641 53.668 34.114 53.6017 34.219C53.3363 34.6393 53.1887 34.8156 53.0892 34.9815C52.9896 35.1474 53.092 35.3244 53.2579 35.1253C53.4582 34.885 53.6579 34.6711 53.8017 34.494C53.9094 34.3614 53.8912 34.0337 53.7642 34.0565ZM27.3642 34.8473C27.2854 34.8418 27.2185 34.9057 27.2517 35.0661C27.2979 35.2894 27.3651 35.4747 27.4204 35.6848C27.4757 35.895 27.6204 35.8589 27.6204 35.6598C27.6204 35.4608 27.5848 35.2387 27.5517 35.0286C27.5351 34.9235 27.443 34.8529 27.3642 34.8473ZM56.6642 34.8473C56.5853 34.8529 56.4932 34.9235 56.4767 35.0286C56.4435 35.2387 56.4079 35.4608 56.4079 35.6598C56.4079 35.8589 56.5526 35.895 56.6079 35.6848C56.6632 35.4747 56.7304 35.2894 56.7767 35.0661C56.8098 34.9057 56.743 34.8418 56.6642 34.8473ZM29.9829 35.1315C29.8591 35.1502 29.7502 35.2699 29.8954 35.4565C30.1276 35.7551 30.3819 35.9647 30.4704 36.0753C30.5588 36.1859 30.7829 36.1451 30.6392 35.9128C30.4922 35.6755 30.2699 35.3897 30.1704 35.2128C30.1331 35.1464 30.0572 35.1203 29.9829 35.1315ZM53.9954 35.1315C53.941 35.1372 53.8859 35.163 53.8579 35.2128C53.7584 35.3897 53.5361 35.6755 53.3892 35.9128C53.2454 36.1451 53.4695 36.1859 53.5579 36.0753C53.6464 35.9647 53.9007 35.7551 54.1329 35.4565C54.2781 35.2699 54.1692 35.1502 54.0454 35.1315C54.0268 35.1287 54.0135 35.1296 53.9954 35.1315ZM25.8517 35.9661C25.754 35.9572 25.7203 36.036 25.8517 36.2161C26.1502 36.6252 26.4796 37.2444 26.5017 37.5098C26.5238 37.7753 26.3926 37.7723 26.2704 37.7723C25.9054 37.7723 25.7271 37.5059 25.3954 37.4286C25.0636 37.3512 25.0155 37.5256 25.2517 37.6973C26.4681 38.5821 27.6874 39.5692 28.1767 40.4661C28.3757 40.8311 28.6448 40.9645 28.4954 40.6161C28.038 39.5486 27.9271 38.6448 28.0267 38.0973C28.1263 37.5499 28.262 37.1813 28.2454 36.8661C28.2288 36.5509 28.0501 36.5724 27.9767 36.8661C27.9269 37.0652 27.8305 37.329 27.7642 37.4286C27.6978 37.5281 27.431 37.5839 27.1767 37.2411C26.9223 36.8983 26.2805 36.2382 26.0704 36.0723C25.9916 36.0101 25.9103 35.9714 25.8517 35.9661ZM58.1767 35.9661C58.1181 35.9714 58.0367 36.0101 57.9579 36.0723C57.7478 36.2382 57.106 36.8983 56.8517 37.2411C56.5973 37.5839 56.3305 37.5281 56.2642 37.4286C56.1978 37.329 56.1014 37.0652 56.0517 36.8661C55.9782 36.5724 55.7995 36.5509 55.7829 36.8661C55.7663 37.1813 55.9021 37.5499 56.0017 38.0973C56.1012 38.6448 55.9903 39.5486 55.5329 40.6161C55.3835 40.9645 55.6526 40.8311 55.8517 40.4661C56.3409 39.5692 57.5602 38.5821 58.7767 37.6973C59.0129 37.5256 58.9647 37.3512 58.6329 37.4286C58.3012 37.5059 58.1229 37.7723 57.7579 37.7723C57.6357 37.7723 57.5045 37.7753 57.5267 37.5098C57.5487 37.2444 57.8781 36.6252 58.1767 36.2161C58.308 36.036 58.2743 35.9572 58.1767 35.9661Z" fill="black"/>
<path d="M27.6453 42.5302L28.0352 43.765L27.6453 42.5302ZM28.4474 42.2961L28.7929 43.5441L28.4474 42.2961ZM29.3138 42.1537L29.5512 43.4267L29.3138 42.1537ZM30.1179 41.9928L30.372 43.2626L30.1179 41.9928ZM31.149 41.891L31.3556 43.1694L31.149 41.891ZM32.2459 41.8923L32.4684 43.168L32.2459 41.8923ZM33.3167 41.5303L33.4774 42.8152L33.3167 41.5303ZM34.324 41.5953L34.4847 42.8802L34.324 41.5953ZM35.2989 41.4653L35.4596 42.7502L35.2989 41.4653ZM36.2774 41.3643L36.3658 42.6562L36.2774 41.3643ZM37.3231 41.3639L37.3998 42.6566L37.3231 41.3639ZM38.2712 41.2986L38.3365 42.5919L38.2712 41.2986ZM39.3166 41.2334L39.3708 42.5272L39.3166 41.2334ZM40.5189 41.2009L40.5732 42.4947L40.5189 41.2009ZM56.382 42.5302L55.9921 43.765L56.382 42.5302ZM55.5799 42.2961L55.2344 43.5441L55.5799 42.2961ZM54.7135 42.1537L54.476 43.4267L54.7135 42.1537ZM53.9094 41.9928L53.6553 43.2626L53.9094 41.9928ZM52.8783 41.891L52.6717 43.1694L52.8783 41.891ZM51.7814 41.8923L51.5589 43.168L51.7814 41.8923ZM50.7106 41.5303L50.5499 42.8152L50.7106 41.5303ZM49.7033 41.5953L49.5425 42.8802L49.7033 41.5953ZM48.7284 41.4653L48.5677 42.7502L48.7284 41.4653ZM47.7499 41.3643L47.6615 42.6562L47.7499 41.3643ZM46.7041 41.3639L46.6274 42.6566L46.7041 41.3639ZM45.7561 41.2986L45.6908 42.5919L45.7561 41.2986ZM44.7107 41.2334L44.6564 42.5272L44.7107 41.2334ZM43.5083 41.2009L43.4541 42.4947L43.5083 41.2009ZM42.0136 41.1167V42.5413V41.1167Z" fill="#FDD406"/>
<path fill-rule="evenodd" clip-rule="evenodd" d="M42.0141 40.9668C42.097 40.9668 42.1641 41.034 42.1641 41.1168V42.5414C42.1641 42.6243 42.097 42.6914 42.0141 42.6914C41.9313 42.6914 41.8641 42.6243 41.8641 42.5414V41.1168C41.8641 41.034 41.9313 40.9668 42.0141 40.9668ZM40.5132 41.0511C40.5959 41.0476 40.6658 41.1119 40.6693 41.1947L40.7236 42.4885C40.727 42.5713 40.6628 42.6412 40.58 42.6447C40.4972 42.6481 40.4273 42.5838 40.4238 42.5011L40.3696 41.2073C40.3661 41.1245 40.4304 41.0546 40.5132 41.0511ZM43.5151 41.0511C43.5979 41.0546 43.6622 41.1245 43.6587 41.2073L43.6045 42.5011C43.601 42.5838 43.5311 42.6481 43.4483 42.6447C43.3655 42.6412 43.3013 42.5713 43.3047 42.4885L43.359 41.1947C43.3624 41.1119 43.4324 41.0476 43.5151 41.0511ZM39.3108 41.0836C39.3936 41.0801 39.4635 41.1444 39.467 41.2272L39.5212 42.521C39.5247 42.6038 39.4604 42.6737 39.3776 42.6771C39.2949 42.6806 39.225 42.6163 39.2215 42.5336L39.1672 41.2398C39.1638 41.157 39.228 41.0871 39.3108 41.0836ZM44.7175 41.0836C44.8002 41.0871 44.8645 41.157 44.8611 41.2398L44.8068 42.5336C44.8033 42.6163 44.7334 42.6806 44.6506 42.6771C44.5679 42.6737 44.5036 42.6038 44.5071 42.521L44.5613 41.2272C44.5648 41.1444 44.6347 41.0801 44.7175 41.0836ZM38.2641 41.1489C38.3469 41.1447 38.4173 41.2084 38.4215 41.2912L38.4868 42.5845C38.491 42.6672 38.4273 42.7376 38.3446 42.7418C38.2619 42.746 38.1914 42.6823 38.1872 42.5996L38.1219 41.3063C38.1177 41.2236 38.1814 41.1531 38.2641 41.1489ZM45.7642 41.1489C45.8469 41.1531 45.9106 41.2236 45.9064 41.3063L45.8411 42.5996C45.8369 42.6823 45.7664 42.746 45.6837 42.7418C45.601 42.7376 45.5373 42.6672 45.5415 42.5845L45.6068 41.2912C45.611 41.2084 45.6814 41.1447 45.7642 41.1489ZM37.3148 41.2143C37.3975 41.2094 37.4685 41.2724 37.4734 41.3551L37.5501 42.6478C37.555 42.7305 37.4919 42.8015 37.4092 42.8064C37.3265 42.8113 37.2555 42.7483 37.2506 42.6656L37.1739 41.3729C37.169 41.2902 37.2321 41.2192 37.3148 41.2143ZM46.7135 41.2143C46.7962 41.2192 46.8593 41.2902 46.8544 41.3729L46.7777 42.6656C46.7728 42.7483 46.7018 42.8113 46.6191 42.8064C46.5364 42.8015 46.4733 42.7305 46.4782 42.6478L46.5549 41.3551C46.5598 41.2724 46.6308 41.2094 46.7135 41.2143ZM36.2677 41.2147C36.3503 41.2091 36.4219 41.2715 36.4276 41.3542L36.516 42.6461C36.5216 42.7287 36.4592 42.8003 36.3766 42.806C36.2939 42.8116 36.2223 42.7492 36.2167 42.6666L36.1283 41.3746C36.1226 41.292 36.185 41.2204 36.2677 41.2147ZM47.7606 41.2147C47.8433 41.2204 47.9057 41.292 47.9 41.3746L47.8116 42.6666C47.806 42.7492 47.7344 42.8116 47.6517 42.806C47.5691 42.8003 47.5067 42.7287 47.5123 42.6461L47.6007 41.3542C47.6064 41.2715 47.678 41.2091 47.7606 41.2147ZM35.2808 41.3165C35.363 41.3063 35.438 41.3646 35.4482 41.4468L35.6089 42.7317C35.6192 42.8139 35.5609 42.8889 35.4787 42.8992C35.3965 42.9094 35.3215 42.8511 35.3113 42.7689L35.1506 41.484C35.1403 41.4018 35.1986 41.3268 35.2808 41.3165ZM48.7475 41.3165C48.8297 41.3268 48.888 41.4018 48.8777 41.484L48.717 42.7689C48.7067 42.8511 48.6318 42.9094 48.5496 42.8992C48.4674 42.8889 48.4091 42.8139 48.4193 42.7317L48.58 41.4468C48.5903 41.3646 48.6653 41.3063 48.7475 41.3165ZM33.2985 41.3815C33.3807 41.3712 33.4557 41.4296 33.466 41.5118L33.6267 42.7967C33.637 42.8789 33.5787 42.9539 33.4965 42.9641C33.4143 42.9744 33.3393 42.9161 33.329 42.8339L33.1683 41.549C33.158 41.4668 33.2163 41.3918 33.2985 41.3815ZM50.7297 41.3815C50.8119 41.3918 50.8702 41.4668 50.86 41.549L50.6993 42.8339C50.689 42.9161 50.614 42.9744 50.5318 42.9641C50.4496 42.9539 50.3913 42.8789 50.4016 42.7967L50.5623 41.5118C50.5726 41.4296 50.6475 41.3712 50.7297 41.3815ZM34.3059 41.4465C34.3881 41.4362 34.4631 41.4945 34.4734 41.5767L34.6341 42.8617C34.6444 42.9439 34.586 43.0189 34.5038 43.0291C34.4216 43.0394 34.3467 42.9811 34.3364 42.8989L34.1757 41.614C34.1654 41.5318 34.2237 41.4568 34.3059 41.4465ZM49.7224 41.4465C49.8046 41.4568 49.8629 41.5318 49.8526 41.614L49.6919 42.8989C49.6816 42.9811 49.6066 43.0394 49.5244 43.0291C49.4422 43.0189 49.3839 42.9439 49.3942 42.8617L49.5549 41.5767C49.5652 41.4945 49.6402 41.4362 49.7224 41.4465ZM31.1256 41.743C31.2073 41.7298 31.2844 41.7854 31.2976 41.8672L31.5042 43.1455C31.5174 43.2273 31.4618 43.3043 31.38 43.3175C31.2982 43.3308 31.2212 43.2752 31.208 43.1934L31.0014 41.915C30.9882 41.8333 31.0438 41.7562 31.1256 41.743ZM52.9027 41.743C52.9845 41.7562 53.0401 41.8333 53.0269 41.915L52.8203 43.1934C52.8071 43.2752 52.73 43.3308 52.6483 43.3175C52.5665 43.3043 52.5109 43.2273 52.5241 43.1455L52.7307 41.8672C52.7439 41.7854 52.8209 41.7298 52.9027 41.743ZM32.2206 41.7447C32.3022 41.7304 32.3799 41.7851 32.3942 41.8667L32.6167 43.1424C32.6309 43.224 32.5763 43.3017 32.4947 43.3159C32.4131 43.3301 32.3354 43.2755 32.3211 43.1939L32.0986 41.9182C32.0844 41.8366 32.139 41.7589 32.2206 41.7447ZM51.8077 41.7447C51.8893 41.7589 51.9439 41.8366 51.9296 41.9182L51.7072 43.1939C51.6929 43.2755 51.6152 43.3301 51.5336 43.3159C51.452 43.3017 51.3974 43.224 51.4116 43.1424L51.6341 41.8667C51.6483 41.7851 51.726 41.7304 51.8077 41.7447ZM30.0889 41.8458C30.1702 41.8295 30.2492 41.8822 30.2655 41.9635L30.5196 43.2332C30.5358 43.3145 30.4831 43.3935 30.4019 43.4097C30.3207 43.426 30.2416 43.3733 30.2254 43.2921L29.9713 42.0223C29.955 41.9411 30.0077 41.8621 30.0889 41.8458ZM53.9393 41.8458C54.0206 41.8621 54.0732 41.9411 54.057 42.0223L53.8029 43.2921C53.7866 43.3733 53.7076 43.426 53.6264 43.4097C53.5452 43.3935 53.4925 43.3145 53.5087 43.2332L53.7628 41.9635C53.7791 41.8822 53.8581 41.8295 53.9393 41.8458ZM29.2868 42.0063C29.3683 41.9911 29.4466 42.0448 29.4618 42.1263L29.6992 43.3993C29.7144 43.4807 29.6607 43.559 29.5792 43.5742C29.4978 43.5894 29.4195 43.5357 29.4043 43.4543L29.1669 42.1813C29.1517 42.0998 29.2054 42.0215 29.2868 42.0063ZM54.7415 42.0063C54.8229 42.0215 54.8766 42.0998 54.8614 42.1813L54.624 43.4543C54.6088 43.5357 54.5305 43.5894 54.4491 43.5742C54.3676 43.559 54.3139 43.4807 54.3291 43.3993L54.5665 42.1263C54.5817 42.0448 54.66 41.9911 54.7415 42.0063ZM28.4079 42.1517C28.4877 42.1296 28.5703 42.1764 28.5924 42.2562L28.938 43.5042C28.9601 43.584 28.9133 43.6667 28.8334 43.6888C28.7536 43.7109 28.6709 43.6641 28.6488 43.5843L28.3033 42.3363C28.2812 42.2564 28.328 42.1738 28.4079 42.1517ZM55.6204 42.1517C55.7003 42.1738 55.7471 42.2564 55.725 42.3363L55.3794 43.5843C55.3573 43.6641 55.2747 43.7109 55.1949 43.6888C55.115 43.6667 55.0682 43.584 55.0903 43.5042L55.4358 42.2562C55.458 42.1764 55.5406 42.1296 55.6204 42.1517ZM27.6006 42.3872C27.6796 42.3623 27.7639 42.4061 27.7888 42.4851L28.1788 43.72C28.2037 43.7989 28.1599 43.8832 28.0809 43.9082C28.0019 43.9331 27.9176 43.8893 27.8927 43.8103L27.5027 42.5755C27.4778 42.4965 27.5216 42.4122 27.6006 42.3872ZM56.4277 42.3872C56.5067 42.4122 56.5505 42.4965 56.5256 42.5755L56.1356 43.8103C56.1107 43.8893 56.0264 43.9331 55.9474 43.9082C55.8684 43.8832 55.8246 43.7989 55.8495 43.72L56.2395 42.4851C56.2644 42.4061 56.3487 42.3623 56.4277 42.3872Z" fill="black"/>
</g>
<defs>
<clipPath id="clip0_909_286883">
<rect width="180" height="120" fill="white"/>
</clipPath>
</defs>
</svg>
