<svg width="180" height="120" viewBox="0 0 180 120" fill="none" xmlns="http://www.w3.org/2000/svg">
<g clip-path="url(#clip0_909_308828)">
<path d="M0 0H180V120H0V0Z" fill="#D91C16"/>
<path fill-rule="evenodd" clip-rule="evenodd" d="M180 21.8333H0V11H180V21.8333ZM0 32.6667H180V43.5H0V32.6667Z" fill="white"/>
<path d="M0 0H54.5454V60H0V0Z" fill="#021455"/>
<path fill-rule="evenodd" clip-rule="evenodd" d="M180 65.4H0V54.5H180V65.4ZM0 76.3H180V87.2H0V76.3ZM180 109H0V98.1H180V109Z" fill="white"/>
<path d="M11.71 22.2162L21.3283 29.2043L17.6544 40.5113L27.2727 33.5232L36.891 40.5113L33.2171 29.2043L42.8355 22.2162H30.9466L27.2727 10.9092L23.5989 22.2162L11.71 22.2162Z" fill="white"/>
</g>
<defs>
<clipPath id="clip0_909_308828">
<rect width="180" height="120" fill="white"/>
</clipPath>
</defs>
</svg>
