<svg width="180" height="120" viewBox="0 0 180 120" fill="none" xmlns="http://www.w3.org/2000/svg">
<g clip-path="url(#clip0_909_287867)">
<path fill-rule="evenodd" clip-rule="evenodd" d="M0 0H60V120H0V0Z" fill="#0F3296"/>
<path fill-rule="evenodd" clip-rule="evenodd" d="M60 0H120V120H60V0Z" fill="#FDD406"/>
<path fill-rule="evenodd" clip-rule="evenodd" d="M120 0H180V120H120V0Z" fill="#D91C16"/>
<g clip-path="url(#clip1_909_287867)">
<path d="M82.5172 23.0021C82.1218 22.9842 81.7308 23.0909 81.3995 23.3069C81.7917 23.4224 82.0594 23.7835 82.0553 24.1913V25.269H80.9751C80.5685 25.2732 80.2077 25.01 80.0883 24.6224C79.681 25.31 79.681 26.1643 80.0883 26.852C80.2041 26.4607 80.5662 26.1937 80.9751 26.1978H82.0553V31.3778C82.0584 31.7679 81.8131 32.1171 81.4443 32.2472C81.9597 32.3172 82.4031 33.0071 82.5246 33.3844C82.6464 33.008 83.0899 32.3172 83.6051 32.2472C83.2328 32.1205 82.9835 31.7702 82.9864 31.3778V26.1975H84.0669C84.4736 26.1933 84.8345 26.4566 84.9537 26.8444C85.3608 26.1566 85.3608 25.3024 84.9537 24.6147C84.8378 25.0058 84.4758 25.2727 84.0669 25.2685H82.9864V24.191C82.9821 23.7854 83.246 23.4254 83.6348 23.3065C83.3035 23.0907 82.9125 22.9841 82.5172 23.0019V23.0021Z" fill="black"/>
<path d="M82.5173 23.2257C82.2996 23.2266 82.0834 23.2617 81.8766 23.3297C82.1303 23.5448 82.2773 23.8597 82.2791 24.1919V25.2695C82.2781 25.2846 82.2755 25.2996 82.2715 25.3142V25.4851H82.1C82.0854 25.4891 82.0705 25.4916 82.0554 25.4926H80.9749C80.6458 25.4905 80.3336 25.3469 80.1182 25.0988C80.0462 25.3043 80.0085 25.5203 80.0065 25.738C80.0074 25.9551 80.0426 26.1708 80.1107 26.377C80.3264 26.1241 80.642 25.9776 80.9749 25.9759H82.2788C82.2773 25.9983 82.2712 26.0199 82.2712 26.0426V26.154C82.2752 26.1686 82.2777 26.1835 82.2788 26.1986V31.3786C82.268 31.6939 82.1213 31.9892 81.8763 32.1887C82.0372 32.2887 82.1807 32.4143 82.301 32.5605C82.3888 32.6812 82.4637 32.8106 82.5246 32.9468C82.5856 32.8107 82.6605 32.6813 82.7481 32.5605C82.8669 32.4177 83.0078 32.2948 83.1654 32.1962C82.9191 31.9946 82.7723 31.6965 82.763 31.3787V25.9829H82.9418C82.9565 25.979 82.9714 25.9766 82.9865 25.9756H84.0668C84.3959 25.9779 84.708 26.1213 84.9235 26.3693C84.9955 26.1639 85.0333 25.948 85.0354 25.7303C85.0344 25.5131 84.9992 25.2975 84.9311 25.0912C84.7154 25.3442 84.3998 25.4907 84.0668 25.4923H82.9865C82.9714 25.4914 82.9564 25.4888 82.9418 25.4848H82.7704V25.3139C82.7664 25.2993 82.7638 25.2843 82.7628 25.2692V24.1917C82.7651 23.8635 82.909 23.5521 83.1577 23.3371C82.9516 23.2654 82.7352 23.2277 82.517 23.2256" fill="#FDD406"/>
<path d="M96.0405 41.9833C95.4093 41.5562 94.8699 41.0079 94.4536 40.3704C93.5262 38.8863 93.1349 37.0643 93.1349 35.2128C93.1349 34.4301 94.0139 33.5491 94.0139 32.9161C94.0198 32.4044 93.9899 31.8929 93.9246 31.3854C94.2364 31.4278 94.7813 31.9799 94.7813 31.9799C94.7813 31.9799 94.7626 30.392 94.2596 30.1145C94.2596 30.1145 94.463 29.9058 95.1984 29.8841C94.9918 29.3621 93.9692 28.7248 93.9692 28.7248C94.0351 28.6225 94.1278 28.5402 94.2373 28.487C94.52 28.3487 94.821 28.2511 95.1312 28.1971C94.7912 28.1236 94.4555 28.0318 94.1255 27.9219C93.1737 27.6046 92.243 27.2274 91.3391 26.7925C90.1833 26.2142 88.9069 25.9163 87.6139 25.923C87.0936 25.923 86.3273 25.9373 85.878 26.2353C85.4669 26.5075 85.5004 26.8616 85.3564 26.9859C85.0173 27.2785 84.4365 27.2682 84.1568 27.2682C82.3463 27.2682 82.2792 29.2006 82.2792 29.2006C82.2792 29.2006 82.7421 28.5019 83.5606 28.5019C84.9216 28.5019 85.9523 29.2414 85.9523 29.52C85.9523 29.6328 85.812 29.6537 85.8034 29.6537C84.9144 29.6537 83.5729 29.1433 82.8602 29.1186V29.4679C84.451 30.02 86.0639 30.8016 86.0639 34.2466C86.0639 36.416 85.8035 38.6295 84.7155 40.3706C84.296 41.008 83.7542 41.5562 83.1211 41.9834L89.5808 43.1448L96.0405 41.9833Z" fill="black"/>
<path d="M89.5805 40.5315L83.1211 41.9834C82.8273 41.8948 81.4455 41.4665 80.4761 40.9281C78.7695 39.9798 77.8846 39.0363 75.8567 38.9437V37.4051C75.8567 36.5832 76.1549 35.8426 76.1549 35.0566C75.3 34.828 72.9272 31.9339 70.7383 30.6494C67.5175 32.7304 65.0237 36.1465 65.0237 37.7174C65.0237 37.7174 65.1205 71.472 65.0237 83.2312C65.0237 83.9089 64.614 84.8663 64.614 84.8663C65.7898 84.3701 67.9451 81.4286 68.3989 80.3104V80.8457C70.1746 80.0379 71.4748 77.9155 72.0571 76.8175C72.0675 76.9762 72.0945 77.3747 72.0945 77.3747C73.6809 75.9876 75.7004 67.7876 75.7004 67.7876L79.0658 71.0868C79.0658 71.0868 77.8487 73.5512 77.3745 73.9926C77.5996 74.0184 77.8259 74.0308 78.0524 74.0297C77.8309 74.3474 76.1391 76.7772 75.6087 77.6936C75.1124 78.551 74.7623 78.1694 73.9994 78.1694C73.3667 78.1694 71.9327 79.1747 71.6972 79.5815C71.4425 79.9976 71.2941 80.4697 71.2653 80.9564C71.2653 81.4268 71.7645 82.0712 71.7645 82.0712C71.7828 81.9572 71.8346 81.8512 71.9134 81.7665C71.9134 81.7665 73.2251 83.3966 73.4184 83.6095C73.5688 83.7755 74.2399 83.8833 74.4764 83.6692C75.0682 83.1325 75.641 82.7572 76.1677 81.9821C76.4389 81.5827 76.4595 81.125 76.7711 80.6962C77.8135 79.2618 79.8878 76.5153 80.3623 75.8878C80.394 76.0625 80.4212 76.2079 80.4514 76.3858C80.989 75.3032 83.5733 73.2346 83.5733 73.2346L86.2771 74.4759C86.2771 74.4759 81.2288 86.0514 76.7478 87.8312C76.7478 87.8312 78.6973 88.6574 81.0914 89.8974C81.4407 90.0782 81.8003 90.2725 82.1643 90.4698C82.4657 90.1077 82.783 89.7054 83.0956 89.2879C84.5271 87.3774 85.9271 85.1632 85.9271 85.1632C86.0246 85.7382 85.2687 87.5142 83.99 89.7044C83.7385 90.1347 83.4762 90.5848 83.1853 91.0419C83.5097 91.2267 83.8316 91.4134 84.1538 91.6069C86.5254 93.0304 88.7526 94.6668 89.5776 96.1701L90.1598 94.717L89.5776 93.264V42.459L89.8687 41.7331L89.5805 40.5315Z" fill="black"/>
<path d="M89.5776 93.264C88.7409 92.3587 86.9915 91.2527 85.0254 90.2319C87.4026 85.976 88.5806 79.2487 88.0279 77.9095C88.0279 77.9095 87.052 81.3985 85.8596 83.3868C84.7556 85.2282 83.3964 87.2992 82.0823 88.8346C81.0948 88.409 80.085 88.0368 79.0573 87.7197C82.9953 84.6938 87.0221 74.6914 87.0221 74.6914L82.8579 72.7663C82.8579 72.7663 81.3001 74.578 80.7942 74.9144C80.7942 74.9144 80.5781 74.0134 80.4514 73.6955C80.4514 73.6955 79.8546 74.1458 79.5279 74.1566C79.5279 74.1566 79.4302 73.5451 79.3564 73.1456C78.9453 73.4189 78.2612 73.3611 78.2612 73.3611C78.8619 73.0775 79.5725 71.3396 79.5725 71.3396L75.5961 66.0635C75.5961 66.0635 74.1994 72.7584 72.6085 74.1346V45.3058L73.8677 46.4724L75.775 44.6962V43.3436L74.0837 44.9191V40.8389C74.3385 40.4543 74.5075 40.1673 74.635 39.9397C74.9088 40.4157 75.7935 41.8747 76.8328 42.7713C77.0038 42.0777 78.1292 41.4186 78.1292 41.4186C78.1292 41.4186 78.5325 42.5086 79.1498 42.7786C79.3669 42.3971 80.6625 41.5524 80.6625 41.5524C80.6625 41.5524 79.5541 41.7204 79.1052 42.1397C78.7197 42.0536 78.6209 40.5343 78.6209 40.5343C78.6209 40.5343 76.9898 41.3268 76.7062 41.8943C76.3951 41.8104 75.9109 40.5895 75.7225 40.0884C76.1257 40.0435 76.5312 40.0212 76.937 40.0216C77.4021 40.0216 77.9972 40.2414 78.6207 40.5343C79.3058 40.856 80.0224 41.2634 80.6623 41.5526C81.482 41.9228 82.7221 41.998 83.0836 42.0134C82.6496 42.314 82.194 42.5823 81.7204 42.8161C81.7204 42.8161 83.6722 42.7981 85.0433 42.1173C85.5417 41.8174 86.0196 41.4847 86.4738 41.1214C86.265 41.7287 85.9468 42.2929 85.5348 42.7862C87.5485 42.6162 88.5512 41.4691 88.8355 41.0843C89.0166 41.5757 89.2675 42.0387 89.5805 42.4591H90.3082V91.8186L89.5776 93.264Z" fill="#AD7D5A"/>
<path d="M74.7393 35.2052L74.7764 36.1267V38.8396C74.0459 38.5889 73.128 37.3918 72.683 36.7587V36.387C72.6928 36.1003 72.8225 35.8308 73.0406 35.6439L72.601 35.488C72.385 35.7155 72.2604 36.0144 72.2509 36.3277V36.5432L70.9397 37.9479L69.6508 36.0007V35.5251C69.6508 35.2046 69.8979 34.8472 70.1053 34.6036L69.6731 34.4475C69.4549 34.7294 69.226 35.1093 69.226 35.4656V35.8519C68.9228 36.1649 67.7434 37.3757 67.7434 37.3757C67.7434 37.3757 67.1516 36.1073 66.991 35.7629C67.894 34.5151 69.3583 33.118 70.7384 32.1155C70.7384 32.1155 73.7313 34.8565 74.7393 35.2052Z" fill="#AD7D5A"/>
<path d="M67.1538 37.8361V40.0734L66.1107 41.0394V37.7173C66.1405 37.3205 66.2629 36.9361 66.4682 36.595L67.1538 37.8361Z" fill="#AD7D5A"/>
<path d="M70.4021 38.6983V40.0807L69.2028 41.203V36.8777L70.4021 38.6983Z" fill="#AD7D5A"/>
<path d="M68.7778 41.1955L67.5781 40.0807V38.4606L68.7778 37.2046V41.1955Z" fill="#AD7D5A"/>
<path d="M74.254 39.5159C73.9754 39.9086 73.2459 40.8691 72.4585 41.2922V37.4944C72.6391 37.7941 73.4677 39.1312 74.254 39.5159Z" fill="#AD7D5A"/>
<path d="M72.0335 37.6875V41.1954L70.8339 40.0806V38.8395L72.0335 37.6875Z" fill="#AD7D5A"/>
<path d="M67.1537 41.4258V44.9264L66.1106 43.9527V42.3993L67.1537 41.4258Z" fill="#AD7D5A"/>
<path d="M68.777 42.5482V43.8041L67.5771 44.9188V41.4333L68.777 42.5482Z" fill="#AD7D5A"/>
<path d="M70.4009 41.4333V44.919L69.2015 43.7967V42.5555L70.4009 41.4333Z" fill="#AD7D5A"/>
<path d="M72.0328 42.5556V43.7967L70.8331 44.9189V41.4333L72.0328 42.5556Z" fill="#AD7D5A"/>
<path d="M73.6569 44.9263L72.457 43.804V42.6374C72.8708 42.3855 73.2869 41.9225 73.6568 41.4333L73.6569 44.9263Z" fill="#AD7D5A"/>
<path d="M70.6173 46.4723L71.8839 45.298V74.1341C71.8839 74.1341 71.9723 75.5649 72.033 76.4974C71.4697 77.0653 69.3508 79.2026 69.3508 79.2026V45.2903L70.6173 46.4723Z" fill="#AD7D5A"/>
<path d="M68.6275 78.1251C68.6275 79.052 66.9307 81.2134 66.1093 81.7073V45.3061L67.3609 46.4727L68.6275 45.2983V78.1251Z" fill="#AD7D5A"/>
<path d="M79.1473 74.9962L80.0712 74.3644C80.0712 74.3644 80.1327 74.6692 80.2126 75.0854C79.817 75.6249 77.5448 78.7183 76.4203 80.2283C76.1407 80.6034 75.906 81.5585 75.906 81.5585C75.906 81.5585 75.4964 81.3653 75.4964 81.0161C75.4964 80.6732 75.5413 80.2654 75.5413 80.2654C75.3213 80.4889 75.0205 80.6147 74.7066 80.6147C74.7066 80.1933 75.5237 79.7361 75.556 79.136C74.9329 79.5967 74.3918 79.3603 73.6711 79.5819C72.8862 79.8231 72.6676 80.152 72.4269 80.1394C72.2851 80.1317 72.1568 79.8878 72.2109 79.738C72.3046 79.4786 73.2754 78.7605 73.954 78.6308C74.1166 78.5997 75.3953 78.9083 75.6529 78.5119C76.7141 76.8784 78.437 74.2266 78.6032 73.9711C78.705 73.952 78.8031 73.9167 78.8936 73.8667C78.8936 73.8667 78.8838 74.7016 79.1473 74.9962Z" fill="#D91C16"/>
<path d="M73.2071 80.0865C73.2581 80.142 73.2547 80.2283 73.1994 80.2796L72.7822 80.6437C72.7224 80.6902 72.6362 80.6803 72.5887 80.6213C72.5375 80.5658 72.5408 80.4795 72.5963 80.4281L73.0134 80.064C73.0399 80.0408 73.0752 80.03 73.1102 80.0344C73.1478 80.0394 73.1823 80.0579 73.2071 80.0865Z" fill="#D91C16"/>
<path d="M73.8404 80.525C73.9639 80.6549 73.9584 80.86 73.8282 80.9832L73.8254 80.9859L72.8121 81.8702C72.6583 81.9841 72.4411 81.9521 72.3268 81.7987C72.225 81.662 72.2381 81.4717 72.3576 81.3501L73.3708 80.4731C73.4214 80.4306 73.4838 80.4046 73.5497 80.3987C73.6612 80.3926 73.769 80.4394 73.8404 80.525Z" fill="#D91C16"/>
<path d="M74.4211 81.2088C74.5446 81.3385 74.5393 81.5435 74.4092 81.6667L74.4061 81.6696L73.3856 82.554C73.2442 82.667 73.0378 82.6443 72.9245 82.5034L72.9235 82.5021C72.7988 82.3684 72.8056 82.1594 72.9386 82.034L73.9517 81.157C73.9995 81.1147 74.0596 81.0886 74.1232 81.0826C74.2368 81.0762 74.3469 81.1229 74.4211 81.2088Z" fill="#D91C16"/>
<path d="M74.7708 81.7512C74.8812 81.742 74.9893 81.7862 75.0615 81.8701C75.1861 82.0038 75.1795 82.2127 75.0466 82.3383L74.0332 83.2154C73.8791 83.3269 73.6635 83.2926 73.5517 83.1388C73.4549 83.0056 73.4662 82.8227 73.5787 82.7024L74.5995 81.8181C74.6477 81.7777 74.7079 81.7542 74.7708 81.7512Z" fill="#D91C16"/>
<path d="M89.5741 40.5315L96.0336 41.9834C96.3274 41.8948 97.7091 41.4665 98.6786 40.9281C100.385 39.9798 101.27 39.0363 103.298 38.9437V37.4051C103.298 36.5832 103 35.8426 103 35.0566C103.855 34.828 106.227 31.9339 108.416 30.6494C111.637 32.7304 114.131 36.1465 114.131 37.7174C114.131 37.7174 114.034 71.472 114.131 83.2312C114.131 83.9089 114.541 84.8663 114.541 84.8663C113.365 84.3701 111.21 81.4286 110.756 80.3104V80.8457C108.98 80.0379 107.68 77.9155 107.098 76.8175C107.087 76.9762 107.06 77.3747 107.06 77.3747C105.474 75.9876 103.454 67.7876 103.454 67.7876L100.089 71.0868C100.089 71.0868 101.306 73.5512 101.78 73.9926C101.555 74.0184 101.329 74.0308 101.102 74.0297C101.324 74.3474 103.016 76.7772 103.546 77.6936C104.042 78.551 104.392 78.1694 105.155 78.1694C105.788 78.1694 107.222 79.1747 107.457 79.5815C107.712 79.9976 107.86 80.4697 107.889 80.9564C107.889 81.4268 107.39 82.0712 107.39 82.0712C107.372 81.9572 107.32 81.8512 107.241 81.7665C107.241 81.7665 105.93 83.3966 105.736 83.6095C105.586 83.7755 104.915 83.8833 104.678 83.6692C104.086 83.1325 103.514 82.7572 102.987 81.9821C102.716 81.5827 102.695 81.125 102.384 80.6962C101.341 79.2618 99.2668 76.5153 98.7924 75.8878C98.7606 76.0625 98.7334 76.2079 98.7033 76.3858C98.1657 75.3032 95.5813 73.2346 95.5813 73.2346L92.8775 74.4759C92.8775 74.4759 97.9258 86.0514 102.407 87.8312C102.407 87.8312 100.457 88.6574 98.0632 89.8974C97.7139 90.0782 97.3543 90.2725 96.9903 90.4698C96.6889 90.1077 96.3716 89.7054 96.059 89.2879C94.6275 87.3774 93.2276 85.1632 93.2276 85.1632C93.13 85.7382 93.886 87.5142 95.1647 89.7044C95.4162 90.1347 95.6784 90.5848 95.9694 91.0419C95.6449 91.2267 95.323 91.4134 95.0008 91.6069C92.6292 93.0304 90.4021 94.6668 89.577 96.1701L88.9949 94.717L89.577 93.264V42.459L89.2859 41.7331L89.5741 40.5315Z" fill="black"/>
<path d="M89.577 93.264C90.4138 92.3587 92.1631 91.2527 94.1292 90.2319C91.752 85.976 90.574 79.2487 91.1267 77.9095C91.1267 77.9095 92.1026 81.3985 93.295 83.3868C94.399 85.2282 95.7582 87.2992 97.0723 88.8346C98.0598 88.409 99.0696 88.0368 100.097 87.7197C96.1593 84.6938 92.1326 74.6914 92.1326 74.6914L96.2967 72.7663C96.2967 72.7663 97.8545 74.578 98.3604 74.9144C98.3604 74.9144 98.5765 74.0134 98.7032 73.6955C98.7032 73.6955 99.3 74.1458 99.6268 74.1566C99.6268 74.1566 99.7244 73.5451 99.7982 73.1456C100.209 73.4189 100.893 73.3611 100.893 73.3611C100.293 73.0775 99.5821 71.3396 99.5821 71.3396L103.558 66.0635C103.558 66.0635 104.955 72.7584 106.546 74.1346V45.3058L105.287 46.4724L103.38 44.6962V43.3436L105.071 44.9191V40.8389C104.816 40.4543 104.647 40.1673 104.52 39.9397C104.246 40.4157 103.361 41.8747 102.322 42.7713C102.151 42.0777 101.025 41.4186 101.025 41.4186C101.025 41.4186 100.622 42.5086 100.005 42.7786C99.7877 42.3971 98.4921 41.5524 98.4921 41.5524C98.4921 41.5524 99.6006 41.7204 100.049 42.1397C100.435 42.0536 100.534 40.5343 100.534 40.5343C100.534 40.5343 102.165 41.3268 102.448 41.8943C102.759 41.8104 103.244 40.5895 103.432 40.0884C103.029 40.0435 102.623 40.0212 102.218 40.0216C101.752 40.0216 101.157 40.2414 100.534 40.5343C99.8488 40.856 99.1322 41.2634 98.4923 41.5526C97.6726 41.9228 96.4325 41.998 96.0709 42.0134C96.505 42.314 96.9606 42.5823 97.4342 42.8161C97.4342 42.8161 95.4824 42.7981 94.1113 42.1173C93.6129 41.8174 93.135 41.4847 92.6808 41.1214C92.8896 41.7287 93.2078 42.2929 93.6198 42.7862C91.6061 42.6162 90.6034 41.4691 90.3191 41.0843C90.138 41.5757 89.8872 42.0387 89.5741 42.4591H88.8464V91.8186L89.577 93.264Z" fill="#AD7D5A"/>
<path d="M104.415 35.2052L104.378 36.1267V38.8396C105.109 38.5889 106.027 37.3918 106.472 36.7587V36.387C106.462 36.1004 106.332 35.8309 106.114 35.6439L106.554 35.488C106.77 35.7155 106.894 36.0144 106.904 36.3277V36.5432L108.215 37.948L109.504 36.0007V35.5251C109.504 35.2046 109.257 34.8472 109.049 34.6036L109.482 34.4475C109.7 34.7294 109.929 35.1094 109.929 35.4656V35.8519C110.232 36.1649 111.411 37.3757 111.411 37.3757C111.411 37.3757 112.003 36.1073 112.164 35.7629C111.261 34.5151 109.796 33.118 108.416 32.1155C108.416 32.1155 105.423 34.8565 104.415 35.2052Z" fill="#AD7D5A"/>
<path d="M112.001 37.8361V40.0734L113.044 41.0394V37.7173C113.014 37.3205 112.892 36.9361 112.686 36.595L112.001 37.8361Z" fill="#AD7D5A"/>
<path d="M108.752 38.6983V40.0807L109.952 41.203V36.8777L108.752 38.6983Z" fill="#AD7D5A"/>
<path d="M110.377 41.1955L111.577 40.0807V38.4606L110.377 37.2046V41.1955Z" fill="#AD7D5A"/>
<path d="M104.901 39.5159C105.179 39.9086 105.909 40.8691 106.696 41.2922V37.4944C106.516 37.7941 105.687 39.1312 104.901 39.5159Z" fill="#AD7D5A"/>
<path d="M107.121 37.6875V41.1954L108.321 40.0806V38.8395L107.121 37.6875Z" fill="#AD7D5A"/>
<path d="M112.001 41.4258V44.9264L113.044 43.9527V42.3993L112.001 41.4258Z" fill="#AD7D5A"/>
<path d="M110.378 42.5482V43.8041L111.578 44.9188V41.4333L110.378 42.5482Z" fill="#AD7D5A"/>
<path d="M108.754 41.4333V44.919L109.953 43.7967V42.5555L108.754 41.4333Z" fill="#AD7D5A"/>
<path d="M107.122 42.5556V43.7967L108.321 44.9189V41.4333L107.122 42.5556Z" fill="#AD7D5A"/>
<path d="M105.498 44.9263L106.698 43.804V42.6374C106.284 42.3855 105.868 41.9225 105.498 41.4333L105.498 44.9263Z" fill="#AD7D5A"/>
<path d="M108.537 46.4723L107.271 45.298V74.1341C107.271 74.1341 107.182 75.5649 107.122 76.4974C107.685 77.0653 109.804 79.2026 109.804 79.2026V45.2903L108.537 46.4723Z" fill="#AD7D5A"/>
<path d="M110.527 78.1251C110.527 79.052 112.224 81.2134 113.045 81.7073V45.3061L111.794 46.4727L110.527 45.2983V78.1251Z" fill="#AD7D5A"/>
<path d="M100.007 74.9962L99.0835 74.3644C99.0835 74.3644 99.0219 74.6692 98.942 75.0854C99.3376 75.6249 101.61 78.7183 102.734 80.2283C103.014 80.6034 103.249 81.5585 103.249 81.5585C103.249 81.5585 103.658 81.3653 103.658 81.0161C103.658 80.6732 103.613 80.2654 103.613 80.2654C103.833 80.4889 104.134 80.6147 104.448 80.6147C104.448 80.1933 103.631 79.7361 103.599 79.136C104.222 79.5967 104.763 79.3603 105.484 79.5819C106.268 79.8231 106.487 80.152 106.728 80.1394C106.869 80.1317 106.998 79.8878 106.944 79.738C106.85 79.4786 105.879 78.7605 105.201 78.6308C105.038 78.5997 103.759 78.9083 103.502 78.5119C102.44 76.8784 100.718 74.2266 100.551 73.9711C100.45 73.952 100.352 73.9167 100.261 73.8667C100.261 73.8667 100.271 74.7016 100.007 74.9962Z" fill="#D91C16"/>
<path d="M105.948 80.0865C105.896 80.142 105.9 80.2283 105.955 80.2796L106.372 80.6437C106.432 80.6902 106.518 80.6803 106.566 80.6213C106.617 80.5658 106.614 80.4795 106.558 80.4281L106.141 80.064C106.115 80.0408 106.079 80.03 106.044 80.0344C106.007 80.0394 105.972 80.0579 105.948 80.0865Z" fill="#D91C16"/>
<path d="M105.314 80.525C105.191 80.6549 105.196 80.86 105.326 80.9832L105.329 80.9859L106.343 81.8702C106.496 81.9841 106.714 81.9521 106.828 81.7987C106.93 81.662 106.917 81.4717 106.797 81.3501L105.784 80.4731C105.733 80.4306 105.671 80.4046 105.605 80.3987C105.493 80.3926 105.386 80.4394 105.314 80.525Z" fill="#D91C16"/>
<path d="M104.734 81.2088C104.61 81.3385 104.615 81.5435 104.745 81.6667L104.749 81.6696L105.769 82.554C105.91 82.667 106.117 82.6443 106.23 82.5034L106.231 82.5021C106.356 82.3684 106.349 82.1594 106.216 82.034L105.203 81.157C105.155 81.1147 105.095 81.0886 105.031 81.0826C104.918 81.0762 104.808 81.1229 104.734 81.2088Z" fill="#D91C16"/>
<path d="M104.384 81.7512C104.273 81.742 104.165 81.7862 104.093 81.8701C103.969 82.0038 103.975 82.2127 104.108 82.3383L105.121 83.2154C105.276 83.3269 105.491 83.2926 105.603 83.1388C105.7 83.0056 105.688 82.8227 105.576 82.7024L104.555 81.8181C104.507 81.7777 104.447 81.7542 104.384 81.7512Z" fill="#D91C16"/>
<path d="M88.0832 26.3988C89.7508 26.3988 90.9237 27.1572 92.5016 27.8553C92.9151 28.0383 93.2948 28.1865 93.6337 28.3012C93.4498 28.4416 93.3038 28.6256 93.2091 28.8364C93.2091 28.8364 93.9162 28.9671 94.2371 29.5575C94.2371 29.5575 93.5648 29.6336 93.4549 30.0256C93.8315 30.0539 94.2057 30.5274 94.2075 30.9844L93.2537 30.687C93.4005 31.4213 93.4778 32.1678 93.4847 32.9166C93.4847 33.5098 92.6281 34.2078 92.6281 35.2131C92.6281 38.3683 93.4249 39.5811 93.9916 40.5565C94.2133 40.9382 94.3934 41.3774 94.7665 41.7085C93.1338 40.8414 91.9203 39.7575 91.9203 38.7507V34.9381H91.4956V38.7507C91.4956 39.4808 91.6744 39.8209 91.6744 39.8209C91.9306 40.6287 92.4488 41.8755 92.7697 42.3775C91.2676 41.5677 90.5045 40.5536 90.5045 40.1776V34.938H90.0798V40.2518L90.1618 40.6159C89.9797 40.8889 89.7431 41.212 89.5806 41.3219C89.4187 41.2122 89.1891 40.8884 89.0068 40.6159L89.0889 40.2518V34.938H88.6642V40.1776C88.6642 40.5535 87.9011 41.5677 86.3992 42.3775C86.7201 41.8753 87.2381 40.6287 87.4942 39.821C87.4942 39.821 87.6731 39.481 87.6731 38.7507V34.9381H87.2484V38.7507C87.2484 39.7563 86.0394 40.842 84.4097 41.7085C84.7789 41.3771 84.9565 40.936 85.1769 40.5565C85.7966 39.4898 86.5628 38.1346 86.5628 34.2766C86.5628 32.8286 86.3481 31.8442 85.9742 31.1552C85.8605 30.9278 85.7074 30.3227 86.5776 30.3227C87.0283 30.3227 88.0603 31.118 88.0603 31.118C88.0191 30.7218 87.8138 30.3607 87.4941 30.1221C87.3621 30.0184 87.2786 29.8652 87.2632 29.6983C87.3231 29.4749 87.4672 29.2832 87.6653 29.1632C87.7866 29.1083 85.8923 28.7791 85.8923 27.9221C85.8923 27.7437 86.0048 27.6248 86.3986 27.6248C86.9145 27.6248 87.7538 28.2416 88.4999 28.2416C89.0513 28.2416 89.2687 28.1078 89.8334 28.1078C90.5236 28.1078 91.9634 29.4113 92.4559 29.3637C91.9053 29.0189 91.0159 27.7138 89.6696 27.7138C89.2022 27.7138 88.7793 27.8179 88.3431 27.8179C87.7841 27.8179 87.2337 27.305 86.6295 27.305C86.2247 27.305 85.7725 27.3275 85.7055 27.2231C85.5884 27.0409 85.6939 26.9352 85.8025 26.7847C86.0075 26.5006 86.5834 26.4181 87.1512 26.3984C87.3214 26.3924 87.4914 26.3895 87.6507 26.391C87.8094 26.3927 87.9563 26.3988 88.0832 26.3988Z" fill="#AD7D5A"/>
<path d="M82.6686 28.4388C82.9338 28.0117 83.4073 27.7582 83.9106 27.7737C84.2826 27.7737 85.5104 27.748 85.5104 27.748C85.674 28.1721 86.4199 28.8807 86.4199 29.6176C86.4199 29.6176 85.6628 28.2563 83.5494 28.2563C83.2459 28.2516 82.945 28.3139 82.6683 28.4386L82.6686 28.4388Z" fill="#D91C16"/>
<path d="M86.1048 29.8776C86.1048 29.8776 85.6547 30.3505 85.5569 30.603C85.1114 30.4346 84.3345 29.636 84.3345 29.636C84.3345 29.636 84.993 30.0195 86.1047 29.8776L86.1048 29.8776Z" fill="#D91C16"/>
<path d="M85.3916 28.6247C85.3916 28.6247 84.8723 28.4586 84.8723 28.2847C84.8723 28.0631 85.1245 28.0631 85.2753 28.2357C85.3471 28.3532 85.3871 28.4873 85.3914 28.6248L85.3916 28.6247Z" fill="black"/>
<path d="M87.8136 29.7213C88.4062 29.7213 88.8866 29.3576 88.8866 28.9089C88.8866 28.4602 88.4062 28.0964 87.8136 28.0964C87.221 28.0964 86.7406 28.4602 86.7406 28.9089C86.7406 29.3576 87.221 29.7213 87.8136 29.7213Z" fill="black"/>
<path d="M87.8124 29.6523C88.224 29.6523 88.5576 29.3195 88.5576 28.9089C88.5576 28.4984 88.224 28.1655 87.8124 28.1655C87.4008 28.1655 87.0671 28.4984 87.0671 28.9089C87.0671 29.3195 87.4008 29.6523 87.8124 29.6523Z" fill="#FDD406"/>
<path d="M87.8127 29.2496C88.0013 29.2496 88.1541 29.0971 88.1541 28.909C88.1541 28.7209 88.0013 28.5684 87.8127 28.5684C87.6241 28.5684 87.4712 28.7209 87.4712 28.909C87.4712 29.0971 87.6241 29.2496 87.8127 29.2496Z" fill="black"/>
<path d="M75.7733 82.3367L78.1314 83.6198L77.5593 86.2371L75.2013 84.9538L75.7733 82.3367Z" fill="black"/>
<path d="M64.7888 57.1892L63.9395 57.5758L73.5357 78.542H74.5565L64.7888 57.1892ZM76.1062 81.9154L75.4134 82.6289L75.8455 83.5803L76.6873 83.1938L76.1062 81.9154Z" fill="black"/>
<path d="M67.7709 73.7202C67.7709 73.7202 68.5792 75.3857 69.1935 75.614C68.8758 75.5276 67.8443 75.9052 67.8443 75.9052C67.8443 75.9052 69.6633 77.5261 71.2062 77.6325C72.5146 77.7224 73.1499 77.071 73.1499 77.071L72.8877 75.6883C72.3202 75.0555 71.6054 74.5716 70.8062 74.2791C69.5118 73.8294 67.7708 73.7205 67.7708 73.7205L67.7709 73.7202Z" fill="black"/>
<path d="M73.8645 70.7368C73.8645 70.7368 72.7484 71.6899 72.4429 72.7938C72.1373 73.8979 72.642 75.1525 72.642 75.1525L73.5798 76.8976C73.5798 76.8976 74.8796 76.2076 75.4325 75.1758C75.9854 74.1439 75.7827 72.7517 75.7827 72.7517C75.7827 72.7517 74.753 73.1341 74.622 73.3034C74.8393 72.1588 73.8644 70.7368 73.8644 70.7368L73.8645 70.7368Z" fill="black"/>
<path d="M70.2771 70.2912C70.2771 70.2912 69.0077 70.7191 67.775 70.6451C66.6008 70.5744 65.6244 69.5908 65.6244 69.5908C65.6244 69.5908 66.5977 68.9338 67.0782 69.0213C66.5497 68.8287 65.7835 67.5082 65.7835 67.5082C65.7835 67.5082 66.8724 67.1799 67.8379 67.543C68.8034 67.9064 69.6453 68.9614 69.6453 68.9614L70.2773 70.2912H70.2771Z" fill="black"/>
<path d="M70.7136 64.1068C70.7136 64.1068 71.3485 65.4181 71.198 65.8738C71.3949 65.5703 72.1402 65.0978 72.1402 65.0978C72.1402 65.0978 72.5908 67.2208 72.1599 68.5321C71.7291 69.8431 70.4172 70.3424 70.4172 70.3424L68.9701 67.5351C68.9701 67.5351 68.7547 66.4951 69.2059 65.6715C69.6572 64.848 70.7136 64.1067 70.7136 64.1067L70.7136 64.1068Z" fill="black"/>
<path d="M62.4544 60.6357C62.4544 60.6357 63.8264 60.492 65.0815 61.0107C66.1308 61.4452 66.4525 62.235 66.4525 62.235L66.9693 63.617C66.9693 63.617 65.4759 64.1757 64.296 63.7485C63.116 63.321 62.249 61.9077 62.249 61.9077C62.249 61.9077 63.0736 61.5958 63.3876 61.7128C62.9303 61.511 62.4547 60.6357 62.4547 60.6357V60.6359L62.4544 60.6357Z" fill="black"/>
<path d="M66.7695 58.0704C66.7695 58.0704 67.3716 58.8417 67.3897 59.7288C67.5502 59.2572 68.3019 58.7358 68.3019 58.7358C68.3019 58.7358 69.075 60.6021 68.9053 61.9271C68.7356 63.2522 67.6233 64.036 67.6233 64.036L66.2361 61.4095C66.2361 61.4095 65.7841 60.3331 65.9172 59.498C66.0506 58.6633 66.7695 58.0701 66.7695 58.0701L66.7695 58.0704Z" fill="black"/>
<path d="M62.0177 53.0474C62.0177 53.0474 61.769 54.4779 62.1922 55.3019C62.5704 56.0372 62.8111 56.1985 62.8111 56.1985C62.0901 55.724 61 55.683 61 55.683C61 55.683 61.388 57.2394 62.3152 57.9495C63.2424 58.6595 64.6722 58.4936 64.6722 58.4936C64.6722 58.4936 65.6124 57.2451 65.5469 55.9001C65.4816 54.555 64.4105 53.1131 64.4105 53.1131C64.4105 53.1131 63.9882 53.9871 63.9509 54.6395C63.6776 53.9669 62.0175 53.0475 62.0175 53.0475L62.0177 53.0474Z" fill="black"/>
<path d="M73.2242 77.0113L73.2627 77.5248C74.1178 77.5327 74.2451 77.4478 74.4643 77.7167C74.6758 77.9536 75.0174 78.0251 75.3065 77.8931C75.6568 77.7314 75.8113 77.3185 75.6529 76.9674C75.4935 76.6192 75.1689 76.5435 74.8561 76.6051C74.6641 76.6428 74.5378 76.7957 74.3749 76.8796C74.0652 77.0396 73.2239 77.0114 73.2239 77.0114L73.2242 77.0113Z" fill="black"/>
<path d="M73.15 76.6195L73.5661 76.9237C73.1198 77.6516 72.9805 77.7143 73.093 78.0422C73.1824 78.3467 73.0622 78.6737 72.7968 78.8484C72.4738 79.059 72.041 78.9711 71.8262 78.6513C71.6146 78.3319 71.7222 78.0174 71.9402 77.7853C72.0741 77.6427 72.2706 77.6169 72.4282 77.5235C72.7283 77.346 73.1499 76.6194 73.1499 76.6194L73.15 76.6195Z" fill="black"/>
<path d="M70.2537 70.522L70.2921 71.0355C71.1473 71.0434 71.2745 70.9586 71.4937 71.2273C71.7052 71.4641 72.0468 71.5357 72.3359 71.4037C72.6863 71.2422 72.8408 70.8292 72.6822 70.4782C72.5228 70.1298 72.1982 70.0543 71.8855 70.1158C71.6934 70.1537 71.5672 70.3065 71.4045 70.3904C71.0946 70.5502 70.2534 70.5222 70.2534 70.5222L70.2537 70.522Z" fill="black"/>
<path d="M70.4269 70.7036L70.7908 71.069C70.2364 71.7185 70.0887 71.759 70.1488 72.1003C70.1898 72.415 70.0201 72.7195 69.7305 72.8509C69.3786 73.0089 68.9647 72.8548 68.8026 72.5055C68.6432 72.1572 68.7985 71.8631 69.0501 71.6677C69.2045 71.5479 69.4031 71.5526 69.573 71.4851C69.8972 71.3563 70.4269 70.7038 70.4269 70.7038L70.4269 70.7036Z" fill="black"/>
<path d="M67.375 64.4465L67.4136 64.96C68.2688 64.9678 68.396 64.8831 68.6153 65.1521C68.827 65.3887 69.1686 65.4601 69.4577 65.3282C69.8079 65.1663 69.9623 64.7535 69.8039 64.4024C69.6443 64.0541 69.3199 63.9786 69.007 64.0402C68.8148 64.078 68.6887 64.2308 68.5258 64.3147C68.2161 64.4747 67.3749 64.4464 67.3749 64.4464L67.375 64.4465Z" fill="black"/>
<path d="M67.6122 64.3391L67.976 64.7044C67.4216 65.354 67.2742 65.3945 67.334 65.7358C67.375 66.0504 67.2053 66.3549 66.9159 66.4863C66.5639 66.6441 66.1502 66.4901 65.9879 66.1409C65.8287 65.7925 65.984 65.4983 66.2355 65.3031C66.3899 65.183 66.5882 65.188 66.7585 65.1202C67.0826 64.9914 67.6122 64.3391 67.6122 64.3391Z" fill="black"/>
<path d="M64.3085 58.0327L64.3469 58.5461C65.2021 58.5541 65.3295 58.4691 65.5485 58.7379C65.76 58.9747 66.1016 59.0463 66.3909 58.9145C66.7411 58.7527 66.8956 58.3399 66.7373 57.9888C66.5779 57.6403 66.2532 57.5647 65.9403 57.6264C65.7485 57.6643 65.6221 57.8172 65.4593 57.9009C65.1496 58.0608 64.3082 58.0327 64.3082 58.0327H64.3085Z" fill="black"/>
<path d="M64.5457 57.9253L64.9093 58.2907C64.3551 58.9404 64.2074 58.9807 64.2675 59.3222C64.3084 59.6367 64.1388 59.9411 63.8493 60.0726C63.4975 60.2306 63.0836 60.0766 62.9215 59.7272C62.762 59.3789 62.9175 59.0845 63.1688 58.8894C63.3234 58.7696 63.5217 58.7743 63.6919 58.7065C64.0158 58.5779 64.5456 57.9254 64.5456 57.9254L64.5457 57.9253Z" fill="black"/>
<path d="M76.1131 83.0786L77.5755 83.8744L77.2207 85.4979L75.7582 84.7021L76.1131 83.0786Z" fill="#FDD406"/>
<path d="M69.7109 69.0005C69.4044 69.1274 68.9497 67.7963 68.6159 67.0671C68.2734 66.3187 67.578 65.1653 67.7755 65.0753C67.9922 64.9765 68.2778 65.5822 68.6282 66.348C68.9787 67.1135 69.998 68.8812 69.7109 69.0002L69.7109 69.0005Z" fill="#FDD406"/>
<path d="M66.5629 61.9901C66.2565 62.1174 65.9211 61.2458 65.5873 60.5164C65.2449 59.7682 64.9113 59.2396 65.1088 59.1496C65.3257 59.0509 65.6459 59.7066 65.9262 60.319C66.1977 60.9124 66.85 61.8709 66.5627 61.9902L66.5629 61.9901Z" fill="#FDD406"/>
<path d="M73.8456 77.8852C73.605 77.9493 72.5548 75.7566 71.7058 73.9013C70.8568 72.0461 70.2246 70.545 70.4221 70.4554C70.639 70.3565 71.3263 72.1091 72.1757 73.9646C73.0249 75.8201 74.0259 77.8368 73.8457 77.8852L73.8456 77.8852Z" fill="#FDD406"/>
<path d="M75.0194 77.6384C75.2288 77.6384 75.3986 77.4691 75.3986 77.2601C75.3986 77.0512 75.2288 76.8818 75.0194 76.8818C74.8099 76.8818 74.6401 77.0512 74.6401 77.2601C74.6401 77.4691 74.8099 77.6384 75.0194 77.6384Z" fill="#FDD406"/>
<path d="M72.4106 78.6472C72.62 78.6472 72.7898 78.4778 72.7898 78.2689C72.7898 78.06 72.62 77.8906 72.4106 77.8906C72.2012 77.8906 72.0314 78.06 72.0314 78.2689C72.0314 78.4778 72.2012 78.6472 72.4106 78.6472Z" fill="#FDD406"/>
<path d="M72.0479 71.1441C72.2573 71.1441 72.4271 70.9747 72.4271 70.7658C72.4271 70.5568 72.2573 70.3875 72.0479 70.3875C71.8384 70.3875 71.6686 70.5568 71.6686 70.7658C71.6686 70.9747 71.8384 71.1441 72.0479 71.1441Z" fill="#FDD406"/>
<path d="M69.4378 72.5945C69.6473 72.5945 69.8171 72.4251 69.8171 72.2162C69.8171 72.0073 69.6473 71.8379 69.4378 71.8379C69.2284 71.8379 69.0586 72.0073 69.0586 72.2162C69.0586 72.4251 69.2284 72.5945 69.4378 72.5945Z" fill="#FDD406"/>
<path d="M69.1697 65.0706C69.3791 65.0706 69.5489 64.9012 69.5489 64.6923C69.5489 64.4833 69.3791 64.314 69.1697 64.314C68.9602 64.314 68.7904 64.4833 68.7904 64.6923C68.7904 64.9012 68.9602 65.0706 69.1697 65.0706Z" fill="#FDD406"/>
<path d="M66.6229 66.2303C66.8324 66.2303 67.0022 66.0609 67.0022 65.8519C67.0022 65.643 66.8324 65.4736 66.6229 65.4736C66.4135 65.4736 66.2437 65.643 66.2437 65.8519C66.2437 66.0609 66.4135 66.2303 66.6229 66.2303Z" fill="#FDD406"/>
<path d="M66.1032 58.6576C66.3127 58.6576 66.4825 58.4882 66.4825 58.2793C66.4825 58.0703 66.3127 57.9009 66.1032 57.9009C65.8937 57.9009 65.7239 58.0703 65.7239 58.2793C65.7239 58.4882 65.8937 58.6576 66.1032 58.6576Z" fill="#FDD406"/>
<path d="M63.5568 59.8168C63.7663 59.8168 63.9361 59.6474 63.9361 59.4384C63.9361 59.2295 63.7663 59.0601 63.5568 59.0601C63.3473 59.0601 63.1775 59.2295 63.1775 59.4384C63.1775 59.6474 63.3473 59.8168 63.5568 59.8168Z" fill="#FDD406"/>
<path d="M62.4398 53.917C62.4398 53.917 62.4026 54.9624 62.7493 55.5553C63.0961 56.1485 63.8705 56.385 63.8705 56.385C63.8705 56.385 63.9075 55.3399 63.5608 54.747C63.214 54.1538 62.4398 53.917 62.4398 53.917Z" fill="#005801"/>
<path d="M61.715 56.282C61.715 56.282 62.6253 56.3354 63.1511 56.7372C63.6765 57.1391 63.8801 57.9763 63.8801 57.9763C63.4756 57.9975 63.0763 57.877 62.7513 57.6356C62.2258 57.2336 61.715 56.282 61.715 56.282Z" fill="#005801"/>
<path d="M64.5719 54.1711C64.3861 54.6278 64.295 55.1173 64.3041 55.6101C64.3389 56.3568 64.7756 57.1979 64.7756 57.1979C64.7756 57.1979 65.1705 56.3016 65.1357 55.5548C65.1011 54.8082 64.6777 54.3825 64.5719 54.1711Z" fill="#005801"/>
<path d="M63.0393 60.9014C63.3431 61.3005 63.7305 61.6287 64.1744 61.8634C64.8625 62.2026 65.8878 62.2153 65.8878 62.2153C65.5582 61.8055 65.1503 61.465 64.6878 61.2136C63.9997 60.8743 63.0393 60.9011 63.0393 60.9011L63.0393 60.9014Z" fill="#005801"/>
<path d="M63.2605 62.3474C63.2605 62.3474 63.589 62.9892 64.1896 63.2643C64.7906 63.5396 66.0196 63.5169 66.0196 63.5169C65.7259 63.1553 65.3609 62.8575 64.9473 62.642C64.3465 62.3666 63.2604 62.3474 63.2604 62.3474L63.2605 62.3474Z" fill="#005801"/>
<path d="M66.7201 58.9241C66.5012 59.3071 66.3882 59.7413 66.3925 60.1822C66.4281 60.842 66.8621 61.5629 66.8621 61.5629C66.8621 61.5629 67.1673 60.7364 67.1316 60.0768C67.1012 59.6625 66.9589 59.2642 66.7199 58.9241H66.7201Z" fill="#005801"/>
<path d="M68.0575 59.7705C68.0575 59.7705 67.4362 60.6024 67.347 61.4576C67.2577 62.3127 67.7003 63.1913 67.7003 63.1913C67.7003 63.1913 68.4509 62.4395 68.5401 61.5845C68.6293 60.7291 68.0575 59.7708 68.0575 59.7708L68.0575 59.7705Z" fill="#005801"/>
<path d="M66.3445 67.668C66.4129 67.8992 66.5265 68.1147 66.6788 68.302C66.8909 68.5484 67.1266 68.7737 67.3826 68.9744C67.6971 68.8903 68.0272 68.8826 68.3453 68.9519C68.8787 69.0673 69.5882 69.5413 69.5882 69.5413C69.5882 69.5413 68.8246 68.4044 68.0317 67.9624C67.5124 67.6957 66.924 67.593 66.3448 67.6678L66.3445 67.668Z" fill="#005801"/>
<path d="M66.2659 69.622C66.2659 69.622 67.2545 69.2007 68.0687 69.3094C68.883 69.4182 69.6171 70.0601 69.6171 70.0601C69.6171 70.0601 68.5166 70.4399 67.7025 70.3313C67.166 70.2351 66.6678 69.9892 66.2657 69.622H66.2659Z" fill="#005801"/>
<path d="M70.4444 65.0374C70.4444 65.0374 69.5701 65.9612 69.4968 66.763C69.4236 67.5647 70.2057 68.3119 70.2057 68.3119C70.185 68.0242 70.2176 67.7351 70.3019 67.4592C70.4133 67.2097 70.5547 66.9746 70.7229 66.7591C70.7922 66.5177 70.8175 66.2658 70.7977 66.0154C70.7309 65.6733 70.6117 65.3434 70.4444 65.0374Z" fill="#005801"/>
<path d="M71.6989 66.1074C71.6989 66.1074 70.8748 66.9391 70.6571 67.8298C70.4392 68.7204 70.8274 69.67 70.8274 69.67C70.8274 69.67 71.5767 69.0803 71.7946 68.1898C72.0125 67.2992 71.6987 66.1074 71.6987 66.1074L71.6989 66.1074Z" fill="#005801"/>
<path d="M73.7626 71.476C73.9777 71.9305 74.1349 72.41 74.2305 72.9035C74.3254 73.5534 74.2375 73.7785 74.2375 73.7785C74.2375 73.7785 73.8516 74.1569 73.6785 74.3795C73.4561 74.6655 73.4235 75.189 73.4235 75.189C73.4235 75.189 72.6485 74.0398 72.768 73.1996C72.8874 72.3597 73.7626 71.4758 73.7626 71.4758L73.7626 71.476Z" fill="#005801"/>
<path d="M75.3955 73.2746C75.3955 73.2746 74.4033 73.9283 74.0096 74.599C73.7753 75.0108 73.7075 75.4962 73.8198 75.9562C74.2791 75.8911 74.6841 75.6217 74.9209 75.2237C75.3148 74.5533 75.3954 73.2744 75.3954 73.2744L75.3955 73.2746Z" fill="#005801"/>
<path d="M68.8755 76.036C68.8755 76.036 70.3056 75.9971 71.1797 76.2115C72.0538 76.4256 72.3719 76.8931 72.3719 76.8931C72.3719 76.8931 71.3891 77.3521 70.515 77.1378C69.6409 76.9237 68.8754 76.0358 68.8754 76.0358L68.8755 76.036Z" fill="#005801"/>
<path d="M68.6338 74.343C68.6338 74.343 69.279 75.3408 70.113 75.7028C71.2625 76.2015 72.5935 75.9598 72.5935 75.9598C72.5935 75.9598 71.8704 75.0758 70.8755 74.6856C69.8803 74.2955 68.6338 74.3431 68.6338 74.3431L68.6338 74.343Z" fill="#005801"/>
<path d="M117.596 54.7522L117.782 55.1459C117.597 55.2152 117.442 55.3465 117.342 55.5174C117.206 55.7855 117.432 56.1641 117.432 56.1641C117.432 56.1641 115.86 56.0272 115.614 56.1865C115.392 56.3302 115.708 57.4167 115.562 58.3344C115.358 59.6134 114.852 59.5059 114.832 59.7537C114.812 59.9946 115.025 60.3706 115.025 60.3706C115.025 60.3706 114.731 60.4632 114.668 60.5862C114.567 60.7839 114.738 61.1487 114.616 61.3887C113.932 62.7276 112.921 64.7039 112.254 66.0115C112.16 66.194 111.91 66.2637 111.784 66.5094C111.718 66.6882 111.71 66.8833 111.762 67.0668C111.762 67.0668 111.319 67.0932 111.166 67.3939C111.069 67.6318 111.046 67.8931 111.099 68.1444C110.92 68.1762 110.766 68.2887 110.681 68.4491C110.535 68.7367 110.783 68.8876 110.719 69.014C109.821 70.7709 108.764 72.842 108.119 74.105C107.881 74.5694 107.051 74.6625 106.569 75.6062C106.293 76.1257 106.373 76.7618 106.77 77.1966C106.77 77.1966 106.075 77.2594 105.891 77.6204C105.703 77.9884 105.852 78.5472 106.353 78.802C106.854 79.0566 107.402 78.8505 107.59 78.4825C107.774 78.1214 107.403 77.5237 107.403 77.5237C107.99 77.5829 108.552 77.2715 108.812 76.7433C109.294 75.7995 108.887 75.0823 109.124 74.6178C109.77 73.3547 110.827 71.2838 111.725 69.5268C111.79 69.4003 112.055 69.5098 112.202 69.2222C112.282 69.0607 112.282 68.8709 112.202 68.7094C112.438 68.6037 112.638 68.4303 112.775 68.2113C112.929 67.9107 112.693 67.5351 112.693 67.5351C112.873 67.4711 113.027 67.3513 113.133 67.1934C113.258 66.9476 113.166 66.707 113.259 66.5243C113.927 65.2168 114.938 63.2404 115.621 61.9018C115.744 61.6615 116.139 61.5793 116.24 61.3813C116.303 61.2585 116.203 60.9652 116.203 60.9652C116.203 60.9652 116.638 60.9223 116.821 60.7644C117.01 60.6021 116.626 60.254 117.544 59.3375C118.202 58.6802 119.264 58.2934 119.25 58.0295C119.235 57.7377 118.199 56.5506 118.199 56.5506C118.199 56.5506 118.636 56.5139 118.773 56.246C118.854 56.0634 118.869 55.8589 118.818 55.6662L119.25 55.5919L119.25 53.5481L117.596 54.7522ZM103.313 83.2172C103.242 83.3599 103.242 83.5276 103.313 83.6703C103.313 83.6703 102.792 83.5077 102.613 83.596C102.444 83.6791 102.613 86.1304 102.613 86.1304C102.613 86.1304 104.693 84.8212 104.662 84.6366C104.628 84.4403 104.192 84.1089 104.192 84.1089C104.349 84.0849 104.484 83.9884 104.558 83.8489C104.626 83.7146 104.635 83.3309 104.163 83.0906C104.022 83.0125 103.861 82.9764 103.701 82.9867C103.542 82.9968 103.398 83.0826 103.313 83.2172Z" fill="black"/>
<path d="M117.974 54.8346L118.958 55.3327L118.943 54.1509L117.974 54.8346Z" fill="#FDD406"/>
<path d="M117.594 55.5482C117.421 55.8093 117.493 56.1612 117.755 56.3341C118.016 56.5071 118.369 56.4356 118.542 56.1745C118.716 55.9134 118.644 55.5615 118.382 55.3886C118.364 55.3763 118.345 55.3651 118.325 55.3551C118.226 55.3041 118.115 55.281 118.004 55.2881C117.831 55.296 117.675 55.3951 117.594 55.5482Z" fill="#FDD406"/>
<path d="M115.903 56.4474C115.8 56.5142 115.941 57.3975 115.911 58.1491C115.882 58.8579 115.655 59.0575 115.531 59.3011C115.416 59.526 115.002 59.7916 115.002 59.7916L115.344 60.1335C115.344 60.1335 115.567 59.7871 115.918 59.1001C116.332 58.2902 116.319 56.8226 116.44 56.7444C116.757 56.633 117.081 56.5387 117.408 56.4619C117.408 56.4619 116.616 56.4192 116.179 56.4249C116.087 56.4192 115.994 56.4268 115.903 56.4474Z" fill="#FDD406"/>
<path d="M115.994 60.5275C116.145 60.1519 116.317 59.7847 116.508 59.4275C116.99 58.484 118.018 57.7997 118.042 57.629C118.067 57.453 117.685 56.6257 117.685 56.6257C117.685 56.6257 116.777 56.7993 116.649 56.9231C116.525 57.0426 116.58 58.2685 116.098 59.2121C115.918 59.5793 115.72 59.9366 115.502 60.2823L115.994 60.5275Z" fill="#FDD406"/>
<path d="M118.31 57.696C118.318 57.8395 117.122 58.692 116.709 59.5018C116.358 60.1886 116.209 60.5722 116.209 60.5722L116.686 60.6465C116.686 60.6465 116.653 60.1577 116.768 59.933C116.893 59.6895 116.925 59.3913 117.484 58.952C118.076 58.4861 118.876 58.0789 118.869 57.956C118.863 57.8424 117.975 56.7446 117.975 56.7446C118.104 57.0557 118.216 57.3732 118.31 57.696Z" fill="#FDD406"/>
<path d="M114.809 62.995C115.527 61.5885 115.747 61.4927 115.837 61.3154C115.934 61.125 115.911 60.8686 115.591 60.7058C115.496 60.6531 115.387 60.6299 115.278 60.6392C115.139 60.6557 115.018 60.7428 114.958 60.8695C114.867 61.0469 114.916 61.2839 114.198 62.6905L112.566 65.8787C112.472 66.0405 112.528 66.2476 112.69 66.3412C112.69 66.3411 112.69 66.3412 112.69 66.3412C112.698 66.3459 112.706 66.3503 112.715 66.3543C112.872 66.442 113.071 66.3861 113.158 66.2295C113.166 66.217 113.172 66.204 113.177 66.1907L114.809 62.995Z" fill="#FDD406"/>
<path d="M111.926 66.6515C111.837 66.8258 111.989 67.0818 112.268 67.2239C112.548 67.3656 112.85 67.3387 112.939 67.1644C113.028 66.9902 112.868 66.7341 112.589 66.592C112.466 66.5257 112.326 66.4949 112.186 66.503C112.08 66.5036 111.981 66.5599 111.926 66.6515Z" fill="#FDD406"/>
<path d="M111.322 67.558C111.206 67.7835 111.386 68.1072 111.724 68.2793C112.062 68.451 112.429 68.4079 112.544 68.1824C112.659 67.9569 112.479 67.6334 112.141 67.4614C112.026 67.4008 111.899 67.3653 111.769 67.3574C111.593 67.3316 111.419 67.4099 111.322 67.558Z" fill="#FDD406"/>
<path d="M110.942 68.5692C110.853 68.7433 111.005 68.9994 111.285 69.1414C111.564 69.2833 111.866 69.2562 111.955 69.082C112.044 68.9078 111.892 68.6517 111.612 68.5097C111.487 68.4433 111.345 68.4124 111.203 68.4204C111.096 68.4212 110.997 68.4776 110.942 68.5692Z" fill="#FDD406"/>
<path d="M110.696 69.5353C110.696 69.5353 108.884 73.092 108.245 74.3436C108.041 74.7434 107.181 74.9925 106.844 75.6518C106.505 76.3149 106.744 76.9357 107.187 77.1604C107.629 77.3853 108.279 77.2218 108.617 76.5585C108.954 75.8994 108.652 75.0555 108.856 74.6559C109.495 73.4039 111.307 69.8474 111.307 69.8474C111.403 69.6902 111.354 69.4847 111.196 69.3885C111.186 69.3824 111.176 69.3768 111.165 69.3718C111.101 69.3379 111.029 69.325 110.957 69.3347C110.843 69.3578 110.747 69.4318 110.696 69.5353Z" fill="#FDD406"/>
<path d="M106.113 77.792C105.977 78.0577 106.132 78.4118 106.463 78.5797C106.794 78.7478 107.177 78.667 107.312 78.4014C107.448 78.1358 107.285 77.7815 106.955 77.6136C106.84 77.5531 106.712 77.5224 106.582 77.5245C106.388 77.5209 106.208 77.6236 106.113 77.792Z" fill="#FDD406"/>
<path d="M103.7 83.2249C103.612 83.217 103.526 83.2567 103.476 83.3289C103.407 83.4647 103.55 83.6793 103.796 83.8045C104.043 83.9297 104.301 83.9181 104.37 83.7822C104.44 83.6462 104.296 83.4317 104.05 83.3066C103.942 83.2504 103.821 83.2222 103.7 83.2247L103.7 83.2249Z" fill="#FDD406"/>
<path d="M102.85 83.8934V85.6474L104.281 84.6218C103.97 84.1401 103.424 83.8619 102.85 83.8933V83.8934Z" fill="#FDD406"/>
<path d="M103.756 44.83C103.756 43.8681 105.022 42.9199 105.022 42.9199H74.1323C74.1323 42.9199 75.3989 43.8679 75.3989 44.83V67.7656C75.3879 68.2695 75.5599 68.7605 75.8833 69.1478C76.1803 69.562 76.8133 70.1343 77.4701 70.5599C79.4989 71.8742 82.8908 73.26 85.4572 74.4246C87.5958 75.395 88.4657 75.7865 89.5773 77.1596C90.6891 75.7865 91.5664 75.3951 93.7049 74.4246C96.2709 73.2602 99.663 71.8742 101.692 70.5599C102.349 70.1343 102.982 69.5621 103.279 69.1478C103.6 68.7596 103.769 68.2686 103.756 67.7656L103.756 44.83Z" fill="#FDD406"/>
<path d="M76.1291 57.8062V44.8298C76.1361 44.4061 76.0053 43.9916 75.7565 43.6482H103.398C103.149 43.9916 103.019 44.4061 103.026 44.8298L103.034 57.8062L89.5814 61.8711L76.1291 57.8062Z" fill="#D91C16"/>
<path d="M103.033 57.8065L94.7036 57.6504H84.4588L76.129 57.8065V67.7656C76.129 68.2662 76.6498 69.4387 79.6532 70.9314C84.6177 73.3991 88.4336 74.5512 89.5774 75.9555C90.721 74.5512 94.5369 73.399 99.5015 70.9314C102.505 69.4387 103.026 68.2662 103.026 67.7656L103.033 57.8065Z" fill="#0F3296"/>
<path d="M94.5023 57.2867C94.5023 57.2867 99.3078 56.078 99.3078 50.9546C99.3078 46.9531 94.4901 44.968 94.3531 44.0132C93.8823 45.6654 95.9625 47.9474 95.9625 50.6499C95.9625 54.1465 93.3772 54.3139 93.3772 54.3139C92.7722 54.3139 92.5271 54.7448 92.2893 54.7448C91.7803 54.6918 91.5408 54.0461 91.0375 54.0461C90.5649 54.0461 90.2021 54.7744 89.5773 54.7744C88.9526 54.7744 88.5971 54.0461 88.1244 54.0461C87.6214 54.0461 87.3817 54.6918 86.8728 54.7448C86.635 54.7448 86.3897 54.3139 85.7847 54.3139C85.7847 54.3139 83.1995 54.1465 83.1995 50.6499C83.1995 47.9474 85.28 45.6651 84.8089 44.0132C84.6724 44.968 79.8546 46.953 79.8546 50.9546C79.8546 56.0779 84.6601 57.2867 84.6601 57.2867L83.2892 59.7763C83.2892 59.7763 85.275 59.8754 86.329 60.7723C87.6 61.8536 87.4763 64.1446 87.4763 65.8112C87.4763 67.1243 87.31 68.51 86.6345 69.0811C85.7275 69.8482 85.1144 69.905 85.1144 70.8055C85.1144 71.5566 85.6932 71.7072 86.6345 72.2028C87.8406 72.8377 87.7844 73.6891 89.5773 73.6891C91.3705 73.6891 91.3216 72.8378 92.5278 72.2028C93.4691 71.7072 94.0478 71.5566 94.0478 70.8055C94.0478 69.905 93.4345 69.8482 92.5278 69.0811C91.8524 68.5097 91.686 67.1242 91.686 65.8112C91.686 64.1446 91.5625 61.8536 92.8333 60.7723C93.8874 59.8756 95.8732 59.7763 95.8732 59.7763L94.5023 57.2867Z" fill="black"/>
<path d="M89.5769 44.3689L88.7422 46.7325L86.4698 45.6547L87.5501 47.9216L85.1809 48.7613L87.5501 49.6011L86.4698 51.8605L88.7422 50.7829L89.5769 53.1462L90.4188 50.7829L92.6913 51.8605L91.6111 49.6011L93.9803 48.7613L91.6111 47.9216L92.6913 45.6547L90.4188 46.7325L89.5769 44.3689Z" fill="black"/>
<path d="M84.4583 57.6508C84.4583 57.6508 81.4912 56.9273 80.3829 55.4658C79.1493 56.5412 77.6984 57.3395 76.1285 57.8069C76.1285 57.8069 78.5455 58.8954 80.3829 60.2819C81.2295 59.0717 84.4583 57.6508 84.4583 57.6508Z" fill="black"/>
<path d="M94.7028 57.6509C94.7028 57.6509 97.9317 59.0715 98.7784 60.2819C100.616 58.8954 103.032 57.8069 103.032 57.8069C101.463 57.3394 100.012 56.5411 98.7784 55.4658C97.6701 56.9272 94.7028 57.6509 94.7028 57.6509Z" fill="black"/>
<path d="M85.6735 60.8013L84.5187 61.9531L85.6735 63.105L86.8284 61.9531L85.6735 60.8013Z" fill="black"/>
<path d="M93.4889 60.8013L92.3342 61.9531L93.4889 63.105L94.6438 61.9531L93.4889 60.8013Z" fill="black"/>
<path d="M85.3829 67.5272C85.3964 68.2706 85.3491 69.0138 85.2414 69.7494C85.2414 69.7494 86.8694 69.2714 87.1937 67.6239C87.3456 66.8516 87.5149 64.0065 86.7316 63.5214L84.6083 63.1052C85.1219 64.5232 85.384 66.0196 85.3829 67.5272Z" fill="black"/>
<path d="M92.4307 63.5215C91.6476 64.0064 91.8168 66.8515 91.9688 67.624C92.2929 69.2715 93.9209 69.7495 93.9209 69.7495C93.8132 69.0139 93.7659 68.2707 93.7794 67.5273C93.7782 66.0196 94.0405 64.5232 94.5543 63.1052L92.4307 63.5215Z" fill="black"/>
<path d="M80.3767 63.6039C79.6506 63.7781 79.2035 64.5064 79.3781 65.2306C79.407 65.3505 79.4522 65.4658 79.5125 65.5734C79.404 65.5369 79.2913 65.5144 79.1771 65.5064C79.13 65.504 79.0828 65.504 79.0357 65.5064C78.2819 65.538 77.6964 66.173 77.728 66.9249C77.7596 67.6769 78.3963 68.2608 79.1501 68.2293C79.2066 68.227 79.2629 68.2211 79.3187 68.2118C79.2523 68.3012 79.1973 68.3985 79.155 68.5015C78.8695 69.1999 79.2056 69.9969 79.9058 70.2817C80.6059 70.5664 81.4049 70.2312 81.6903 69.5328L81.6955 69.5199C81.7362 69.4172 81.7638 69.3098 81.7776 69.2003C81.844 69.2913 81.9215 69.3737 82.0084 69.4455C82.5804 69.9371 83.4436 69.8731 83.9365 69.3025C84.4293 68.7319 84.3651 67.8709 83.7931 67.3793C83.6995 67.2988 83.5954 67.2314 83.4836 67.1788C83.5909 67.1446 83.6934 67.0972 83.789 67.0377C84.429 66.6341 84.622 65.7906 84.2211 65.1499C83.955 64.7264 83.4767 64.4835 82.9768 64.5182C82.7493 64.5336 82.5291 64.6052 82.336 64.7264C82.2409 64.7848 82.1534 64.8547 82.0754 64.9344C82.0719 64.1753 81.4522 63.5627 80.6912 63.5662C80.5852 63.5667 80.4797 63.5793 80.3767 63.6039Z" fill="black"/>
<path d="M94.9043 67.5722C95.0523 68.964 96.1862 70.13 97.5865 70.4632C97.3435 70.0731 97.1907 69.6339 97.1394 69.1775C96.964 67.5269 98.2437 66.1897 99.9929 66.1897C100.264 66.19 100.534 66.2226 100.797 66.2865C100.146 65.234 98.9979 64.5887 97.7576 64.5771C96.0085 64.5772 94.7285 65.9218 94.9043 67.5722Z" fill="black"/>
<path d="M82.4996 50.6496C82.4996 53.2813 83.9065 54.8337 85.7853 54.8337C86.1436 54.8337 86.5355 55.3168 86.8732 55.3168C87.4236 55.3168 87.7898 54.7074 88.125 54.7074C88.5509 54.7074 88.8381 55.3762 89.5777 55.3762C90.3175 55.3762 90.6121 54.7074 91.038 54.7074C91.3731 54.7074 91.7392 55.3168 92.2897 55.3168C92.6275 55.3168 93.0191 54.8337 93.3776 54.8337C95.2563 54.8337 96.6634 53.2813 96.6634 50.6496C96.6634 48.5033 94.8564 45.8864 95.054 45.4619C95.054 45.4619 98.5781 47.9835 98.5781 50.9542C98.5781 55.7396 93.7129 56.9222 93.7129 56.9222L94.8081 59.382C94.8081 59.382 93.3 59.6076 92.3792 60.3483C91.151 61.3362 91.1348 64.0054 91.1348 65.8107C91.1348 67.9372 91.2142 68.8383 91.9843 69.4152C92.7964 70.0239 93.4073 70.155 93.4073 70.7754C93.4073 71.3158 92.7749 71.5369 91.9544 71.8976C91.021 72.308 90.928 73.0199 89.5777 73.0199C88.2273 73.0199 88.1417 72.308 87.2083 71.8976C86.3879 71.5369 85.7554 71.316 85.7554 70.7754C85.7554 70.155 86.3663 70.0239 87.1784 69.4152C87.9486 68.8383 88.0277 67.9372 88.0277 65.8107C88.0277 64.0054 88.0117 61.3362 86.7835 60.3483C85.8625 59.6073 84.3546 59.382 84.3546 59.382L85.4496 56.9222C85.4496 56.9222 80.5846 55.7397 80.5846 50.9542C80.5846 47.9835 84.1088 45.4619 84.1088 45.4619C84.3064 45.8864 82.4996 48.5033 82.4996 50.6496ZM87.7372 70.4117C86.7815 70.4117 86.1727 70.6129 86.1727 70.9022C86.1727 71.1917 86.7816 71.3854 87.7372 71.3854C87.9919 71.3854 88.2811 71.2374 88.2811 70.9022C88.2746 70.6241 88.0433 70.4038 87.7644 70.4103C87.7554 70.4105 87.7463 70.411 87.7372 70.4117ZM91.4252 70.4117C91.1471 70.3902 90.9042 70.5977 90.8827 70.8751C90.882 70.8841 90.8815 70.8932 90.8813 70.9022C90.8812 71.2374 91.1705 71.3854 91.4252 71.3854C92.3811 71.3854 92.9897 71.1919 92.9897 70.9022C92.9897 70.6128 92.3809 70.4117 91.4252 70.4117Z" fill="#FDD406"/>
<path d="M89.5856 45.96L90.1221 47.4689L91.5674 46.7777L90.8819 48.2269L92.3871 48.7621L90.8819 49.2972L91.5674 50.739L90.122 50.0552L89.5782 51.5565L89.0417 50.0552L87.5964 50.739L88.2819 49.2972L86.7769 48.7621L88.2819 48.2269L87.5964 46.7777L89.0417 47.4689L89.5856 45.96Z" fill="#FDD406"/>
<path d="M77.5433 57.8496C77.5433 57.8496 79.3784 58.7613 80.3003 59.5738L80.3522 59.6184L80.3819 59.5814C81.2531 58.5839 82.8703 57.7382 82.8703 57.7382C82.8703 57.7382 81.3166 57.3107 80.3373 56.1924C79.3023 57.2446 77.5433 57.8496 77.5433 57.8496Z" fill="#FDD406"/>
<path d="M101.617 57.8518C101.617 57.8518 99.7818 58.7635 98.86 59.576L98.808 59.6206L98.7783 59.5836C97.9071 58.5861 96.2899 57.7404 96.2899 57.7404C96.2899 57.7404 97.8437 57.3129 98.8229 56.1946C99.8579 57.2468 101.617 57.8518 101.617 57.8518Z" fill="#FDD406"/>
<path d="M85.6736 61.3513L86.2771 61.9531L85.6736 62.5627L85.0626 61.9531L85.6736 61.3513Z" fill="#FDD406"/>
<path d="M93.4889 61.3513L94.1 61.9531L93.4889 62.5627L92.8855 61.9531L93.4889 61.3513Z" fill="#FDD406"/>
<path d="M86.4934 63.9818C86.915 64.5622 86.8434 65.5006 86.8434 66.8061C86.869 67.5475 86.4898 68.2444 85.8526 68.6268C85.8526 65.4628 85.5256 64.7021 85.3534 63.7439L86.4934 63.9818Z" fill="#FDD406"/>
<path d="M93.8091 63.7439C93.6366 64.7023 93.31 65.4629 93.31 68.6267C92.6728 68.2443 92.2935 67.5474 92.3191 66.8061C92.3191 65.5005 92.2474 64.5624 92.6692 63.9818L93.8091 63.7439Z" fill="#FDD406"/>
<path d="M81.8069 64.9412C81.8342 65.0556 81.8417 65.1737 81.8292 65.2906C81.8193 65.3824 81.7968 65.4724 81.7622 65.558C81.1652 65.347 80.4996 65.5174 80.0783 65.9892C80.0037 65.9242 79.9386 65.8492 79.8848 65.7662C79.8206 65.6707 79.7727 65.5652 79.7431 65.4541C79.6016 64.8855 79.9489 64.3102 80.5189 64.169C81.0883 64.0279 81.6646 64.3735 81.8069 64.9412Z" fill="#FDD406"/>
<path d="M83.3953 66.9239C83.2947 66.9852 83.1844 67.0289 83.069 67.0531C82.9785 67.0721 82.8857 67.0786 82.7934 67.0722C82.8102 66.4406 82.442 65.8618 81.8619 65.608C81.9008 65.5171 81.9523 65.4321 82.0147 65.3554C82.086 65.265 82.1717 65.187 82.2686 65.1246C82.7667 64.8142 83.4227 64.9654 83.7339 65.4623C84.045 65.9592 83.8934 66.6136 83.3953 66.9239Z" fill="#FDD406"/>
<path d="M81.9958 69.0435C81.9063 68.967 81.8306 68.8758 81.7719 68.7738C81.7257 68.6938 81.6909 68.6078 81.6685 68.5182C82.2758 68.339 82.7139 67.8108 82.7767 67.1821C82.8753 67.1909 82.9723 67.2135 83.0647 67.249C83.1729 67.2887 83.2737 67.346 83.3632 67.4185C83.812 67.7963 83.8689 68.4656 83.4901 68.9133C83.1128 69.3594 82.445 69.4176 81.9958 69.0435Z" fill="#FDD406"/>
<path d="M79.5423 68.3708C79.5875 68.2623 79.6511 68.1622 79.7301 68.075C79.7922 68.0065 79.8634 67.9469 79.9419 67.8979C80.3005 68.4187 80.9394 68.6711 81.5582 68.5364C81.5803 68.6327 81.5888 68.7316 81.5834 68.8303C81.5791 68.9452 81.5556 69.0586 81.5141 69.1659C81.294 69.709 80.6742 69.9713 80.1297 69.7518C79.5851 69.5322 79.3222 68.9139 79.5423 68.3708Z" fill="#FDD406"/>
<path d="M79.4255 65.8354C79.543 65.8448 79.658 65.8742 79.7656 65.9223C79.8501 65.9599 79.9289 66.0091 79.9998 66.0684C79.6141 66.5695 79.5709 67.2537 79.8906 67.7991C79.8056 67.8498 79.7139 67.8884 79.6182 67.9138C79.5073 67.9452 79.3919 67.958 79.2768 67.9517C78.691 67.9108 78.2493 67.4038 78.2904 66.8194C78.3314 66.235 78.8397 65.7944 79.4255 65.8354Z" fill="#FDD406"/>
<path d="M81.2332 68.0486C81.8011 68.0486 82.2614 67.5894 82.2614 67.023C82.2614 66.4565 81.8011 65.9973 81.2332 65.9973C80.6653 65.9973 80.205 66.4565 80.205 67.023C80.205 67.5894 80.6653 68.0486 81.2332 68.0486Z" fill="#FDD406"/>
<path d="M99.285 65.6401C97.578 65.9693 96.3495 67.4733 96.5282 69.2298C95.9842 68.7803 95.5861 68.175 95.515 67.5056C95.3766 66.202 96.3257 65.1941 97.7576 65.1941C98.2983 65.1989 98.827 65.3533 99.285 65.6401Z" fill="#FDD406"/>
<path d="M104.418 43.1489H74.7362C75.1298 43.5443 75.6295 44.1749 75.6295 44.8285V64.7466H75.6286V67.7642H75.6295C75.6251 68.0005 75.6632 68.2357 75.7421 68.4586C75.8185 68.6562 75.9249 68.8409 76.0576 69.0062L76.063 69.0134C76.3524 69.3812 76.6885 69.7099 77.063 69.9912C77.1476 70.0574 77.2342 70.1223 77.3214 70.1848C77.4061 70.2454 77.4948 70.3059 77.586 70.3649L77.5881 70.3664C79.1677 71.3893 81.6012 72.4649 83.8121 73.4417C84.4285 73.7141 85.0298 73.9798 85.5434 74.2129L85.5443 74.2138L85.5934 74.2359H85.5942C87.618 75.1542 88.5203 75.5639 89.5771 76.7984C90.6368 75.5594 91.5363 75.1512 93.5787 74.2245L93.5786 74.2243L93.6019 74.2137C94.1167 73.9801 94.7167 73.715 95.3331 73.4427C97.5442 72.4657 99.978 71.3901 101.558 70.367L101.559 70.3661C102.002 70.0785 102.413 69.7434 102.783 69.3668C102.843 69.3042 102.9 69.242 102.951 69.1817C102.999 69.1251 103.044 69.0685 103.083 69.0135L103.087 69.01L103.088 69.0089L103.089 69.0062C103.223 68.8401 103.331 68.6549 103.41 68.4568C103.49 68.2349 103.529 68.0002 103.525 67.7643H103.526V64.7467H103.525V44.8285C103.525 44.1749 104.025 43.5443 104.418 43.1489ZM103.987 44.8285V64.7466H103.986V67.7643H103.987C103.991 68.0556 103.942 68.3453 103.841 68.6188C103.747 68.8575 103.618 69.0809 103.458 69.2815L103.459 69.2819C103.415 69.3426 103.363 69.4089 103.303 69.4788C103.247 69.5449 103.184 69.6144 103.115 69.6856C102.72 70.0873 102.283 70.4448 101.81 70.7516L101.809 70.7525C100.194 71.7979 97.7447 72.8806 95.5191 73.8639C94.9366 74.1212 94.3696 74.3718 93.7931 74.6334L93.7698 74.6439H93.769C91.6827 75.5906 90.8294 75.9777 89.7568 77.3026L89.5773 77.5244L89.3977 77.3026C88.3297 75.9837 87.4715 75.5942 85.403 74.6556L85.4031 74.6553L85.3546 74.6334L85.3529 74.6324L85.3523 74.6322L85.3521 74.6326C84.7744 74.3703 84.2085 74.1204 83.6261 73.863C81.4005 72.8796 78.9508 71.797 77.3367 70.7515L77.3314 70.7479L77.3297 70.7467L77.3298 70.7466C77.2389 70.6877 77.1457 70.6243 77.0523 70.5574C76.9595 70.4909 76.868 70.4224 76.7795 70.3532C76.3701 70.0445 76.003 69.6837 75.6876 69.2799C75.528 69.0796 75.4003 68.856 75.3088 68.617C75.2107 68.3435 75.1629 68.0547 75.1674 67.7643H75.1683V64.7467H75.1674V44.8285C75.1674 43.9805 73.9971 43.1047 73.9938 43.1022V42.688H105.161V43.1022C105.157 43.1047 103.987 43.9805 103.987 44.8285ZM103.288 43.4172L103.289 43.4163H103.399L103.877 43.4161L103.578 43.79C103.361 44.0923 103.248 44.4567 103.257 44.8285V64.7467H103.256V67.7643H103.257C103.257 68.1723 102.971 68.9603 101.622 69.9425L101.623 69.9429C101.371 70.1266 101.079 70.3188 100.744 70.5182C100.407 70.7189 100.03 70.925 99.6094 71.1341L99.609 71.1334L99.6046 71.1356V71.1365C97.8032 72.0319 96.1395 72.7598 94.7031 73.3882C92.2362 74.4673 90.4493 75.2491 89.7567 76.0985L89.7532 76.1031L89.7524 76.104L89.5725 76.313L89.3986 76.0994C88.7063 75.2495 86.9189 74.4673 84.4508 73.3878C83.0154 72.76 81.3532 72.0326 79.5533 71.1382V71.1373L79.5503 71.1357L79.5499 71.1365C78.2727 70.5019 77.4327 69.9198 76.887 69.4199C76.7793 69.3207 76.6824 69.2249 76.5964 69.1327C76.042 68.5384 75.8987 68.0584 75.8985 67.7651H75.8976V67.7643H75.8985V64.7467H75.8976V44.8285C75.9063 44.4567 75.7936 44.0923 75.5765 43.79L75.2776 43.4172H76.2702V43.4163H102.884V43.4172L103.288 43.4172ZM102.884 43.8764V43.8773H76.2702V43.8764H76.1552C76.2903 44.1756 76.36 44.5002 76.3596 44.8285V64.7467H76.3587V67.7643H76.3596V67.7651H76.3587C76.3588 67.9723 76.477 68.3295 76.934 68.8193C77.0126 68.9035 77.1009 68.9912 77.1993 69.0814C77.7156 69.5547 78.52 70.1102 79.7558 70.7241V70.725L79.7588 70.7266L79.7592 70.7258C81.5697 71.6256 83.2145 72.3452 84.6349 72.9665C86.9831 73.9937 88.7295 74.7576 89.5771 75.6118C90.4249 74.7578 92.1713 73.9939 94.5189 72.9669C95.9404 72.3451 97.5867 71.6248 99.3987 70.7241L99.3991 70.7249L99.4034 70.7227V70.7218C99.8226 70.5134 100.189 70.3137 100.508 70.1239C100.829 69.9327 101.108 69.7482 101.35 69.5721H101.351C102.542 68.7048 102.795 68.0766 102.795 67.7643H102.796V64.7467H102.795V44.8285C102.794 44.5002 102.864 44.1756 102.999 43.8764L102.884 43.8764Z" fill="black"/>
</g>
</g>
<defs>
<clipPath id="clip0_909_287867">
<rect width="180" height="120" fill="white"/>
</clipPath>
<clipPath id="clip1_909_287867">
<rect width="58.25" height="73.1702" fill="white" transform="translate(61 23)"/>
</clipPath>
</defs>
</svg>
