<svg width="180" height="120" viewBox="0 0 180 120" fill="none" xmlns="http://www.w3.org/2000/svg">
<g clip-path="url(#clip0_909_227966)">
<path d="M0 0H180V120H0V0Z" fill="#0F7562"/>
<path d="M90.0004 38.3948C85.6943 42.1138 82.9691 47.6136 82.9691 53.7499C82.9691 57.93 84.2338 61.8148 86.4013 65.0424C83.7405 61.6112 82.1566 57.303 82.1566 52.6249C82.1566 49.524 82.8526 46.5856 84.0968 43.9574C83.2362 43.0476 82.5837 41.939 82.2153 40.7078C80.5467 43.6542 79.5941 47.0596 79.5941 50.6874C79.5941 55.1732 81.0505 59.3189 83.5161 62.6774C79.177 58.1573 73.0736 55.3437 66.3131 55.3437C65.949 55.3437 65.5869 55.3518 65.2268 55.368C65.9093 56.0042 66.4821 56.7566 66.9138 57.5937C73.6728 57.6043 79.7723 60.4273 84.1049 64.955C79.9653 61.4912 74.6326 59.4062 68.8128 59.4062C65.573 59.4062 62.4841 60.0523 59.668 61.2228C62.5785 68.8575 69.9685 74.2812 78.6253 74.2812C79.3966 74.2812 80.1578 74.2381 80.9066 74.1543C79.5457 74.4422 78.1345 74.5937 76.6879 74.5937C71.2142 74.5937 66.247 72.4252 62.5983 68.9006C61.8379 69.1924 61.0225 69.3732 60.1719 69.4232C63.888 73.629 69.3221 76.2812 75.3756 76.2812C80.5189 76.2812 85.215 74.3666 88.7901 71.2114C89.2094 70.8414 89.6131 70.4543 90.0004 70.0512C90.8653 70.9511 91.8124 71.7714 92.8296 72.4999C96.1532 74.8801 100.226 76.2812 104.625 76.2812C110.679 76.2812 116.113 73.629 119.829 69.4232C118.978 69.3733 118.163 69.1925 117.402 68.9006C113.754 72.4252 108.787 74.5937 103.313 74.5937C101.867 74.5937 100.455 74.4422 99.0946 74.1544C99.8433 74.2381 100.604 74.2812 101.375 74.2812C110.032 74.2812 117.422 68.8575 120.333 61.2228C117.516 60.0523 114.428 59.4062 111.188 59.4062C105.369 59.4062 100.037 61.4906 95.8974 64.9535C100.23 60.4267 106.329 57.6044 113.087 57.5937C113.519 56.7566 114.091 56.0042 114.774 55.3679C114.414 55.3518 114.052 55.3437 113.688 55.3437C106.927 55.3437 100.823 58.1578 96.4837 62.6787C98.9499 59.32 100.407 55.1738 100.407 50.6874C100.407 47.0596 99.4541 43.6542 97.7855 40.7078C97.4171 41.939 96.7645 43.0476 95.904 43.9574C97.1482 46.5856 97.8441 49.524 97.8441 52.6249C97.8441 57.303 96.2603 61.6112 93.5995 65.0424C95.767 61.8148 97.0316 57.93 97.0316 53.7499C97.0316 47.6136 94.3065 42.1138 90.0004 38.3948Z" fill="white"/>
<path d="M76.0004 77.8436C81.4294 77.8436 86.3603 75.7104 90.0004 72.2365C93.6405 75.7104 98.5713 77.8436 104 77.8436H119.791C119.326 78.5275 118.838 79.1946 118.328 79.8436L103.063 79.8436C98.0867 79.8436 93.5292 78.0515 90.0004 75.0775C86.4716 78.0515 81.914 79.8436 76.9379 79.8436H61.673C61.1632 79.1946 60.6752 78.5275 60.2102 77.8436L76.0004 77.8436Z" fill="white"/>
<path d="M115.63 82.9061H64.3711C64.0483 82.5789 63.7317 82.2455 63.4215 81.9061H116.579C116.269 82.2455 115.952 82.5789 115.63 82.9061Z" fill="white"/>
<path d="M111.462 86.5311H68.539C67.8687 86.0327 67.2164 85.5115 66.5831 84.9686H113.418C112.784 85.5115 112.132 86.0327 111.462 86.5311Z" fill="white"/>
<path d="M105.569 90.0936H74.4318C73.1855 89.4949 71.9789 88.8266 70.8172 88.0936H109.184C108.022 88.8266 106.815 89.4949 105.569 90.0936Z" fill="white"/>
<path d="M90.0004 93.6249C94.6931 93.6249 99.1761 92.727 103.287 91.0936H76.7138C80.8246 92.727 85.3076 93.6249 90.0004 93.6249Z" fill="white"/>
<path d="M88.5203 27.1812H83.7297L87.6054 29.997L86.125 34.5532L90.0007 31.7373L93.8764 34.5532L92.396 29.997L96.2717 27.1812H91.4811L90.0007 22.625L88.5203 27.1812Z" fill="#FDD406"/>
<path d="M69.3445 35.6899L72.6589 35.7478L73.628 38.9178L74.7073 35.7835L78.0216 35.8414L75.3742 33.8465L76.4535 30.7122L73.7381 32.6135L71.0907 30.6186L72.0599 33.7886L69.3445 35.6899Z" fill="#FDD406"/>
<path d="M66.4681 49.6104L64.0437 47.3497L61.1445 48.9568L62.5454 45.9525L60.1211 43.6918L63.4112 44.0958L64.8122 41.0915L65.4447 44.3455L68.7348 44.7494L65.8356 46.3565L66.4681 49.6104Z" fill="#FDD406"/>
<path d="M106.374 38.9178L107.343 35.7478L110.657 35.6899L107.942 33.7886L108.911 30.6186L106.264 32.6135L103.548 30.7122L104.627 33.8465L101.98 35.8414L105.294 35.7835L106.374 38.9178Z" fill="#FDD406"/>
<path d="M113.534 49.6104L115.958 47.3497L118.857 48.9568L117.456 45.9525L119.88 43.6918L116.59 44.0958L115.189 41.0915L114.557 44.3455L111.267 44.7494L114.166 46.3565L113.534 49.6104Z" fill="#FDD406"/>
</g>
<defs>
<clipPath id="clip0_909_227966">
<rect width="180" height="120" fill="white"/>
</clipPath>
</defs>
</svg>
