<svg width="180" height="120" viewBox="0 0 180 120" fill="none" xmlns="http://www.w3.org/2000/svg">
<g clip-path="url(#clip0_909_253420)">
<path d="M0 0H180V120H0V0Z" fill="#0F3296"/>
<path d="M0 40H180V80H0V40Z" fill="white"/>
<path d="M72 59.8656L73.9958 59.999L74.0154 59.7074L73.2304 59.655L73.2912 58.693L74.1234 58.0896L74.1482 57.72L73.2706 58.3572C73.241 58.1496 73.1262 57.9358 72.9176 57.8636C72.735 57.7976 72.5112 57.786 72.353 57.9166C72.1524 58.0642 72.1162 58.3282 72.0902 58.558L72 59.8656ZM72.304 59.5932L72.374 58.6104C72.3988 58.4488 72.4284 58.262 72.57 58.159C72.698 58.0742 72.8868 58.1374 72.9392 58.2818C73.0436 58.5312 72.9972 58.8062 72.9838 59.0678L72.9458 59.636L72.304 59.5932ZM72.2598 56.801L74.2074 57.2558L74.65 55.3602L74.3734 55.2954L73.9968 56.908L73.404 56.7696L73.7432 55.3164L73.4678 55.2522L73.1286 56.7054L72.604 56.5828L72.9664 55.0308L72.6884 54.9658L72.2598 56.801ZM72.9614 54.1856L74.8504 54.8426L74.9464 54.5666L74.2034 54.3082L74.4958 53.4514C74.5598 53.216 74.6092 52.941 74.4706 52.722C74.3582 52.5602 74.1582 52.4566 73.9606 52.4628C73.743 52.472 73.5656 52.6322 73.469 52.8178C73.3262 53.0862 73.2464 53.3814 73.1422 53.6658L72.9614 54.1856ZM73.3264 54.0032L73.6284 53.1524C73.6964 53.0026 73.7794 52.825 73.9518 52.7774C74.0934 52.7448 74.242 52.8538 74.2544 52.999C74.289 53.2662 74.1722 53.5184 74.0902 53.7664L73.9342 54.2146L73.3264 54.0032ZM74.0048 51.7664L75.0724 52.3878C75.2744 52.4964 75.5304 52.5586 75.7418 52.437C76.0298 52.2774 76.2104 51.9828 76.3518 51.6954C76.4636 51.4534 76.5444 51.1528 76.4022 50.9054C76.2492 50.6584 75.971 50.5448 75.7336 50.3974L75.0422 49.993L74.8954 50.2438L75.9126 50.841C76.074 50.9392 76.2076 51.117 76.1798 51.3148C76.1478 51.5504 76.0132 51.757 75.8792 51.9476C75.7684 52.1016 75.5826 52.2262 75.3852 52.1846C75.1794 52.1452 75.0122 52.0106 74.8314 51.9132L74.1514 51.5154L74.0048 51.7664ZM75.4454 49.4122L77.0338 50.6276L77.774 49.6628C77.9164 49.4584 78.0476 49.1928 77.9512 48.942C77.8634 48.7424 77.658 48.588 77.4376 48.578C77.3382 48.564 77.2086 48.6394 77.1548 48.6726C77.2114 48.4594 77.0368 48.259 76.8404 48.2026C76.604 48.1186 76.3644 48.2702 76.2078 48.4382C76.0238 48.6384 75.8702 48.864 75.7018 49.0772L75.4454 49.4122ZM75.8482 49.3526L76.4048 48.6374C76.4954 48.5366 76.6408 48.4224 76.7812 48.4964C76.9092 48.5518 76.9408 48.7134 76.8796 48.8296C76.7826 49.0376 76.6224 49.2062 76.4888 49.3906L76.2708 49.6758L75.8482 49.3526ZM76.4954 49.8478L77.0734 49.1072C77.1774 48.9984 77.308 48.8614 77.4728 48.8928C77.6138 48.9252 77.7162 49.078 77.6676 49.22C77.5882 49.4818 77.3924 49.6822 77.2346 49.8992L76.9866 50.2236L76.4954 49.8478ZM77.2462 47.2908L78.6196 48.7446L79.7962 47.633L79.601 47.4264L78.66 48.3156L78.636 48.3384L78.6184 48.32L77.4574 47.0912L77.2462 47.2908ZM79.007 45.7502L80.226 47.3358L80.464 47.1528L79.2448 45.5674L79.007 45.7502ZM80.7982 44.5338C80.6006 44.6568 80.4414 44.8008 80.3186 44.969C80.1958 45.1372 80.1304 45.311 80.1208 45.4934C80.1112 45.6758 80.16 45.8522 80.2674 46.0248C80.3639 46.1807 80.5004 46.308 80.6626 46.3936C80.8266 46.4814 81.0038 46.5138 81.1978 46.4922C81.3918 46.4706 81.6088 46.3852 81.8518 46.2338C82.0848 46.0886 82.2498 45.9214 82.3518 45.729C82.4487 45.5485 82.4782 45.3395 82.435 45.1394L82.1584 45.248C82.2308 45.6476 81.973 45.8396 81.6844 46.0228C81.2326 46.2976 80.7924 46.2778 80.5228 45.8648C80.2432 45.3994 80.5488 45.0148 80.933 44.7648C81.2058 44.5948 81.4746 44.4784 81.7306 44.6412L81.947 44.4484C81.798 44.3456 81.6286 44.298 81.436 44.3084C81.2336 44.3196 81.0222 44.3942 80.7982 44.5338ZM83.1616 43.3544L82.9522 45.5956L83.2636 45.47L83.3266 44.7752L83.3278 44.7746L84.3394 44.3666L84.8668 44.8234L85.1782 44.698L83.473 43.2288L83.1614 43.3544H83.1616ZM83.4352 43.5842L84.1002 44.1596L83.3556 44.46L83.4352 43.5842ZM87.5452 42.118L87.67 44.114L88.7528 44.043C89.0364 44.0104 89.3406 43.9368 89.5344 43.711C89.7846 43.4336 89.8202 43.0188 89.7106 42.6734C89.6186 42.3694 89.3452 42.1392 89.0356 42.0808C88.7306 42.0222 88.4198 42.0686 88.1128 42.0824L87.5452 42.118ZM87.8532 42.3834L88.715 42.3386C88.8789 42.3329 89.04 42.3823 89.1726 42.4788C89.3726 42.6156 89.4902 42.862 89.464 43.1038C89.4496 43.3818 89.2452 43.6376 88.975 43.7078C88.8206 43.7478 88.6598 43.7592 88.5016 43.7766L87.9424 43.8116L87.853 42.3836L87.8532 42.3834ZM90.3328 41.9998L90.2188 43.9966L92.1622 44.1076L92.1782 43.824L90.525 43.7296L90.5598 43.1216L92.0496 43.2068L92.0656 42.9246L90.5758 42.8394L90.6066 42.3016L92.1978 42.3924L92.2142 42.1074L90.3328 41.9998ZM95.5548 42.833L94.8316 44.6976L95.0888 44.7976L95.6622 43.319L95.692 43.2422L95.724 43.3276L96.4136 45.3112L96.7504 45.4418L97.4736 43.5772L97.2156 43.4772L96.6426 44.955L96.6134 45.0304L96.5818 44.946L95.891 42.9634L95.5548 42.833ZM98.2416 43.9872L97.3324 45.7686L97.0652 45.6322L97.9744 43.8508L98.2416 43.9872ZM99.7502 44.871C99.556 44.743 99.3586 44.658 99.1546 44.6168C98.9506 44.5756 98.7652 44.5884 98.5956 44.6558C98.426 44.7232 98.2856 44.841 98.1736 45.0108C98.0722 45.1635 98.0134 45.3406 98.0034 45.5238C97.9922 45.7094 98.0364 45.8838 98.1372 46.0512C98.238 46.2186 98.406 46.3802 98.6446 46.5376C98.874 46.689 99.0948 46.7692 99.3122 46.7816C99.5208 46.7932 99.7104 46.7364 99.8826 46.6112L99.6686 46.4052C99.3356 46.6378 99.0536 46.4836 98.7666 46.2976C98.3286 46.0016 98.1628 45.5934 98.4256 45.176C98.732 44.7276 99.209 44.845 99.5964 45.09C99.865 45.267 100.083 45.4626 100.042 45.7632L100.307 45.8794C100.338 45.701 100.311 45.5274 100.221 45.3566C100.126 45.1774 99.9706 45.0164 99.7502 44.871ZM101.654 46.3074L99.5636 47.1414L99.8174 47.3614L100.465 47.1012L100.466 47.1022L101.289 47.8172L101.123 48.4946L101.376 48.7148L101.908 46.5276L101.654 46.3076V46.3074ZM101.574 46.6556L101.365 47.5096L100.758 46.9834L101.574 46.6556ZM103.165 47.697L101.622 48.9696L101.808 49.195L102.415 48.6944L103.031 49.4358L102.839 50.4458L103.075 50.7318L103.276 49.6658C103.449 49.8074 103.701 49.8786 103.908 49.7664C104.086 49.6824 104.242 49.5208 104.251 49.315C104.273 49.0392 104.076 48.8158 103.919 48.6112L103.165 47.697ZM103.131 48.1038L103.78 48.9034C103.875 49.045 103.994 49.2438 103.885 49.409C103.795 49.5504 103.598 49.538 103.477 49.4464C103.232 49.2816 103.07 49.029 102.879 48.8096L102.634 48.513L103.131 48.1038ZM105.505 50.88L103.256 50.983L103.424 51.2742L104.12 51.2402L104.121 51.2414L104.665 52.1868L104.286 52.7724L104.453 53.0634L105.672 51.171L105.505 50.88ZM105.315 51.1828L104.837 51.921L104.437 51.225L105.315 51.183V51.1828ZM106.788 53.5274C106.663 53.188 106.466 52.8406 106.132 52.671C105.761 52.4844 105.266 52.575 105.003 52.902C104.774 53.174 104.762 53.5582 104.823 53.8924C104.895 54.276 105.071 54.6412 105.336 54.9296L105.186 54.9832L105.282 55.2494L106.219 54.9128L105.854 53.901L105.638 53.979L105.906 54.7246L105.589 54.8386C105.309 54.598 105.153 54.2426 105.071 53.889C105.011 53.6236 105.009 53.3056 105.21 53.097C105.441 52.8566 105.85 52.782 106.127 52.987C106.401 53.187 106.555 53.5112 106.633 53.8336C106.686 54.0456 106.678 54.2976 106.517 54.463C106.472 54.4966 106.543 54.5436 106.555 54.584L106.632 54.7104C106.716 54.6438 106.784 54.5587 106.831 54.4618C106.878 54.3648 106.901 54.2585 106.901 54.151C106.906 53.9382 106.859 53.727 106.788 53.5274ZM107.362 55.0892L106.244 55.3068C106.036 55.3472 105.881 55.4128 105.777 55.5004C105.673 55.588 105.607 55.7108 105.575 55.8746C105.543 56.0366 105.548 56.2352 105.594 56.4766C105.595 56.4785 105.595 56.4804 105.595 56.4824C105.643 56.7238 105.713 56.9094 105.803 57.0478C105.894 57.1878 106.002 57.277 106.13 57.319C106.259 57.361 106.428 57.364 106.636 57.3236L107.754 57.106L107.699 56.8206L106.607 57.033C106.117 57.1282 105.952 56.8704 105.868 56.4292L105.867 56.4236C105.78 55.9832 105.836 55.6822 106.326 55.5868L107.418 55.3746L107.362 55.0892ZM107.976 58.4932L105.906 57.6082L105.93 57.9432L106.573 58.2156V58.217L106.652 59.305L106.055 59.6672L106.08 60.0022L108 58.8282L107.976 58.4932ZM107.673 58.6834L106.922 59.1404L106.864 58.3396L107.673 58.6836V58.6834ZM73.5504 63.6668L73.2602 63.7432L73.581 64.9616L73.871 64.8854L73.5504 63.6668ZM106.457 63.6668L106.747 63.7432L106.426 64.9616L106.136 64.8852L106.457 63.6668ZM76.6434 68.7976L74.4074 69.0548L74.5944 69.3338L75.2872 69.252L75.288 69.2532L75.8958 70.1592L75.5574 70.7692L75.7446 71.0482L76.8306 69.0766L76.6434 68.7976ZM76.475 69.1128L76.049 69.882L75.6016 69.2154L76.475 69.1128ZM77.4994 70.0194L76.074 71.3524L76.2644 71.556L77.4656 70.4326L76.8354 72.1666L77.0536 72.4L78.776 71.8772L77.5964 72.9804L77.7866 73.1838L79.212 71.851L78.923 71.5418L77.1728 72.0646L77.828 70.3708L77.4994 70.0194ZM79.5756 72.1376L78.3724 73.7352L79.9276 74.9062L80.0984 74.6792L78.7756 73.6832L79.1418 73.1968L80.3338 74.0944L80.504 73.8686L79.312 72.971L79.636 72.5406L80.9092 73.4994L81.0812 73.2714L79.5756 72.1376ZM81.5324 73.5698L80.5904 75.3344L80.848 75.472L81.2186 74.778L82.0706 75.2288L82.2784 76.2356L82.6052 76.41L82.3852 75.348C82.599 75.413 82.8596 75.3824 83.0078 75.2C83.1338 75.059 83.2194 74.8614 83.159 74.672C83.0888 74.4114 82.8322 74.275 82.6156 74.1486L81.5324 73.5698ZM81.6558 73.9588L82.5608 74.4508C82.6976 74.5434 82.8714 74.6698 82.8542 74.8562C82.839 75.0198 82.6626 75.107 82.5136 75.0722C82.2216 75.024 81.9756 74.85 81.7156 74.7202L81.3528 74.5264L81.6558 73.9588ZM83.7914 74.751L83.0356 76.6028L83.3136 76.716L84.0692 74.8644L83.7914 74.751ZM85.595 75.374C85.374 75.3006 85.1616 75.27 84.9538 75.283C84.747 75.296 84.5704 75.3568 84.424 75.466C84.2776 75.5752 84.1728 75.7254 84.1088 75.9182C84.0505 76.0921 84.0397 76.2785 84.0776 76.458C84.115 76.64 84.203 76.7972 84.3436 76.9326C84.4842 77.068 84.6886 77.1806 84.96 77.2706C85.2208 77.357 85.455 77.3774 85.668 77.3326C85.8724 77.2898 86.0408 77.1858 86.1748 77.0202L85.9146 76.8766C85.6534 77.1878 85.341 77.1122 85.0156 77.007C84.5156 76.835 84.2496 76.4838 84.395 76.0124C84.5744 75.5 85.0656 75.4894 85.5034 75.6254C85.8086 75.7266 86.0698 75.859 86.108 76.16L86.3946 76.2032C86.3786 76.0228 86.307 75.8622 86.1758 75.7208C86.0378 75.5722 85.8456 75.4572 85.595 75.374ZM87.6058 75.8242L86.2978 77.6562L86.6302 77.7042L87.034 77.1352H87.0354L88.115 77.2916L88.341 77.9516L88.6734 77.9996L87.9382 75.8722L87.6058 75.8242ZM87.7268 76.1602L88.012 76.9922L87.2174 76.8772L87.7268 76.1604V76.1602ZM92.294 75.8384C92.0654 75.8824 91.8652 75.9598 91.6904 76.0728C91.5156 76.1858 91.392 76.3248 91.3178 76.4916C91.2436 76.6584 91.2258 76.8408 91.2644 77.0404C91.2986 77.2206 91.3804 77.3884 91.5012 77.5264C91.6228 77.6668 91.7851 77.766 91.9656 77.81C92.1536 77.859 92.3876 77.8572 92.6686 77.803C92.9382 77.751 93.1522 77.654 93.3162 77.5108C93.4736 77.3732 93.5696 77.2 93.6052 76.9902L93.3082 76.9922C93.2326 77.3916 92.9232 77.4784 92.588 77.5462C92.0678 77.6408 91.664 77.4646 91.56 76.9824C91.4656 76.4476 91.8888 76.198 92.3372 76.1024C92.6528 76.0414 92.9454 76.029 93.126 76.2728L93.3972 76.1702C93.2949 76.0199 93.1442 75.9093 92.9702 75.8566C92.7772 75.7946 92.5532 75.7884 92.294 75.8384ZM93.6296 75.6018L94.1984 77.5192L96.0646 76.9654L95.9838 76.693L94.3964 77.164L94.2232 76.5804L95.6538 76.156L95.5734 75.885L94.1428 76.3094L93.9896 75.793L95.5176 75.3396L95.4362 75.0656L93.6296 75.6018ZM95.7932 74.9218L96.6328 76.737L96.8832 76.621L96.183 75.1072L98.1198 76C98.1628 76.0374 98.2058 76.0124 98.249 75.9894L98.5008 75.873L97.6612 74.0578L97.4102 74.1738L98.1096 75.6858L96.1204 74.7704L95.7932 74.9218ZM97.9894 73.8902L98.146 74.1282L98.8604 73.6582L98.8876 73.6402L98.901 73.6608L99.8304 75.0728L100.073 74.913L99.1438 73.501L99.1304 73.4804L99.158 73.4624L99.876 72.9898L99.7192 72.7518L97.9894 73.8902ZM100.002 72.5122L101.357 73.9832L101.572 73.7852L101.039 73.2068L101.745 72.551L102.764 72.6866L103.037 72.4356L101.962 72.2932C102.094 72.1128 102.151 71.8566 102.027 71.6566C101.934 71.484 101.764 71.3366 101.558 71.3386C101.281 71.3324 101.069 71.541 100.873 71.7094L100.002 72.5122ZM100.41 72.5238L101.173 71.8318C101.309 71.729 101.501 71.5998 101.672 71.6994C101.818 71.7814 101.816 71.979 101.731 72.1046C101.58 72.3586 101.336 72.534 101.128 72.7372L100.846 72.9972L100.41 72.5238ZM102.329 70.1834L103.223 72.2488L103.436 71.9888L103.157 71.3494L103.158 71.3484L103.848 70.5042L104.53 70.651L104.743 70.391L102.541 69.9236L102.329 70.1836V70.1834ZM102.679 70.2532L103.539 70.4378L103.03 71.0592L102.679 70.2532ZM103.2 69.0504L104.878 70.1384L105.758 68.7804L105.52 68.626L104.815 69.7122L104.797 69.7402L104.776 69.7262L103.358 68.8066L103.2 69.0504Z" fill="#D3AE3B"/>
<path d="M90.0002 45.2751L77.2598 67.3415H102.74L90.0002 45.2751Z" fill="white"/>
<path opacity="0.62" d="M90.4842 46.1133L90.0003 45.2751L89.5168 46.1125L89.9671 56.6161L89.0294 46.9568L88.3379 48.1544L89.9011 56.6256L88.0009 48.7381L87.4924 49.6187L89.8369 56.644L87.2375 50.0603L86.8341 50.759L89.7759 56.6712L86.6276 51.1167L86.2878 51.7052L89.7192 56.7064L86.1109 52.0116L85.8101 52.5324L89.6682 56.7494L85.6511 52.808L85.373 53.2895L89.6235 56.799L85.2235 53.5485L84.956 54.0119L89.5862 56.8543L84.8095 54.2657L84.5419 54.729L89.5569 56.9143L84.3924 54.988L84.1143 55.4696L89.5365 56.9779L83.9552 55.7451L83.6545 56.266L89.5246 57.0435L83.4776 56.5724L83.1378 57.1609L89.5225 57.1102L82.9313 57.5186L82.5279 58.2174L89.5294 57.1766L82.2729 58.6589L81.7645 59.5396L89.5455 57.2414L81.4274 60.1234L80.7359 61.321L89.5704 57.3033L80.2484 62.1654L79.7594 63.0124L80.7177 63.0124L89.6039 57.3611L81.0352 63.4832L80.6724 64.3815L81.6317 64.2467L89.645 57.4137L82.0118 64.6688L81.7774 65.6088L82.7087 65.3418L89.693 57.46L83.1438 65.7069L83.0425 66.6704L83.9276 66.2764L89.747 57.4993L84.4092 66.5773L84.436 67.3415H84.7696L85.2647 67.0322L89.8058 57.5308L85.7835 67.2632L85.7974 67.3415H86.774L89.8686 57.5534L87.3455 67.3415H88.2904L89.9339 57.5674L88.8281 67.3415H89.737L90.0005 57.5719L90.264 67.3415H91.1729L90.0671 57.5674L91.7106 67.3415H92.6555L90.1324 57.5534L93.227 67.3415H94.2036L94.2175 67.2632L90.1951 57.5306L94.7363 67.0322L95.2314 67.3415H95.565L95.5918 66.5773L90.254 57.4993L96.0734 66.2764L96.9585 66.6704L96.8572 65.7069L90.308 57.46L97.2923 65.3418L98.2236 65.6088L97.9893 64.6688L90.3561 57.4137L98.3693 64.2467L99.3287 64.3815L98.9658 63.4832L90.3972 57.3611L99.2833 63.0124L100.241 63.0124L99.7515 62.1648L90.4306 57.3033L99.2641 61.3206L98.5727 60.123L90.4554 57.2414L98.2357 59.5393L97.7273 58.6588L90.4716 57.1766L97.4724 58.2173L97.069 57.5185L90.4787 57.1103L96.8625 57.1609L96.5228 56.5725L90.4763 57.0436L96.3459 56.2661L96.0452 55.7453L90.4648 56.9778L95.8861 55.4697L95.6081 54.9882L90.4441 56.9143L95.4586 54.7293L95.1911 54.2659L90.4147 56.8544L95.0446 54.0122L94.7771 53.5489L90.3776 56.799L94.6276 53.2899L94.3496 52.8084L90.3328 56.7494L94.1905 52.5329L93.8898 52.012L90.2817 56.7065L93.7129 51.7057L93.3732 51.1172L90.2251 56.6712L93.1667 50.7596L92.7633 50.0608L90.1641 56.6439L92.5084 49.6194L92 48.7388L90.1 56.6256L91.663 48.1551L90.9716 46.9575L90.0339 56.6163L90.4842 46.1133Z" fill="#54AEF2"/>
<path d="M90.0004 55.4951L89.9736 55.4957L90.0004 56.1179L90.0272 55.4957L90.0004 55.4951Z" fill="white"/>
<path d="M91.5206 56.5996L91.5117 56.5743L90.9283 56.792L91.5283 56.6253L91.5206 56.5996Z" fill="white"/>
<path d="M90.9613 58.3704L90.9399 58.3866L90.9179 58.4019L90.5739 57.8828L90.9613 58.3704Z" fill="white"/>
<path d="M89.0609 58.3866L89.0829 58.4019L89.427 57.8828L89.0396 58.3704L89.0609 58.3866Z" fill="white"/>
<path d="M88.4726 56.6253L88.4803 56.5996L88.4891 56.5743L89.0726 56.792L88.4726 56.6253Z" fill="white"/>
<path d="M90.2229 55.5107L90.1962 55.5075L90.1362 56.1274L90.2493 55.515L90.2229 55.5107Z" fill="white"/>
<path d="M91.5693 56.7897L91.5745 56.816L91.5786 56.8425L90.9612 56.9241L91.5693 56.7897Z" fill="white"/>
<path d="M90.7508 58.5048L90.7742 58.4917L90.4584 57.9549L90.7269 58.5169L90.7508 58.5048Z" fill="white"/>
<path d="M88.9098 58.2615L88.8901 58.2433L88.8712 58.2243L89.3227 57.7953L88.9098 58.2615Z" fill="white"/>
<path d="M88.5638 56.3928L88.5526 56.4172L89.1235 56.6658L88.5761 56.369L88.5638 56.3928Z" fill="white"/>
<path d="M90.4151 55.5502L90.441 55.557L90.4666 55.565L90.2694 56.1557L90.4151 55.5502Z" fill="white"/>
<path d="M91.5979 57.0377L91.5963 57.011L90.9755 57.0595L91.5982 57.0645L91.5979 57.0377Z" fill="white"/>
<path d="M90.5721 58.5858L90.5471 58.5955L90.5217 58.6041L90.3341 58.0103L90.5721 58.5858Z" fill="white"/>
<path d="M88.7409 58.0776L88.7579 58.0983L89.2317 57.6942L88.7249 58.0561L88.7409 58.0776Z" fill="white"/>
<path d="M88.6608 56.2223L88.6753 56.1997L88.6908 56.1778L89.1916 56.548L88.6608 56.2223Z" fill="white"/>
<path d="M90.6505 55.6333L90.6258 55.623L90.3972 56.2023L90.6748 55.6448L90.6505 55.6333Z" fill="white"/>
<path d="M91.5922 57.2339L91.59 57.2606L91.5866 57.2872L90.9706 57.1955L91.5922 57.2339Z" fill="white"/>
<path d="M90.3327 58.657L90.3588 58.6508L90.2032 58.0478L90.3064 58.662L90.3327 58.657Z" fill="white"/>
<path d="M88.6301 57.9156L88.6161 57.8927L88.6033 57.8692L89.1555 57.5813L88.6301 57.9156Z" fill="white"/>
<path d="M88.8126 56.024L88.7951 56.0443L89.2754 56.4407L88.8309 56.0045L88.8126 56.024Z" fill="white"/>
<path d="M90.8244 55.7243L90.8475 55.738L90.8699 55.7527L90.5174 56.2662L90.8244 55.7243Z" fill="white"/>
<path d="M91.5514 57.4802L91.5573 57.4541L90.9471 57.3295L91.5443 57.5061L91.5514 57.4802Z" fill="white"/>
<path d="M90.1386 58.6855L90.1119 58.688L90.0852 58.6893L90.0685 58.0667L90.1386 58.6855Z" fill="white"/>
<path d="M88.5184 57.6923L88.529 57.7169L89.0959 57.459L88.509 57.6672L88.5184 57.6923Z" fill="white"/>
<path d="M88.9529 55.8867L88.973 55.8691L88.9939 55.8523L89.3734 56.3462L88.9529 55.8867Z" fill="white"/>
<path d="M91.0279 55.8691L91.007 55.8523L90.6276 56.3462L91.048 55.8868L91.0279 55.8691Z" fill="white"/>
<path d="M91.492 57.6672L91.4825 57.6923L91.4719 57.7169L90.905 57.459L91.492 57.6672Z" fill="white"/>
<path d="M89.889 58.688L89.9157 58.6893L89.9324 58.0667L89.8623 58.6856L89.889 58.688Z" fill="white"/>
<path d="M88.4566 57.5061L88.4495 57.4802L88.4436 57.4541L89.0538 57.3295L88.4566 57.5061Z" fill="white"/>
<path d="M89.1535 55.738L89.131 55.7527L89.4835 56.2662L89.1765 55.7243L89.1535 55.738Z" fill="white"/>
<path d="M91.1699 56.0045L91.1883 56.024L91.2058 56.0443L90.7254 56.4407L91.1699 56.0045Z" fill="white"/>
<path d="M91.3847 57.8927L91.3976 57.8692L90.8453 57.5813L91.3708 57.9156L91.3847 57.8927Z" fill="white"/>
<path d="M89.6944 58.662L89.6681 58.657L89.642 58.6508L89.7976 58.0478L89.6944 58.662Z" fill="white"/>
<path d="M88.4108 57.2606L88.4142 57.2872L89.0302 57.1955L88.4086 57.2339L88.4108 57.2606Z" fill="white"/>
<path d="M89.3261 55.6448L89.3503 55.6333L89.375 55.623L89.6036 56.2023L89.3261 55.6448Z" fill="white"/>
<path d="M91.3256 56.1997L91.3101 56.1778L90.8093 56.548L91.3401 56.2222L91.3256 56.1997Z" fill="white"/>
<path d="M91.2761 58.0561L91.26 58.0776L91.2431 58.0983L90.7693 57.6942L91.2761 58.0561Z" fill="white"/>
<path d="M89.4538 58.5955L89.4792 58.6041L89.6668 58.0103L89.4288 58.5858L89.4538 58.5955Z" fill="white"/>
<path d="M88.4027 57.0645L88.403 57.0377L88.4046 57.011L89.0255 57.0595L88.4027 57.0645Z" fill="white"/>
<path d="M89.5599 55.557L89.5343 55.565L89.7316 56.1557L89.5858 55.5502L89.5599 55.557Z" fill="white"/>
<path d="M91.4247 56.369L91.437 56.3928L91.4482 56.4172L90.8773 56.6658L91.4247 56.369Z" fill="white"/>
<path d="M91.1107 58.2433L91.1296 58.2243L90.6781 57.7953L91.091 58.2615L91.1107 58.2433Z" fill="white"/>
<path d="M89.2739 58.5169L89.25 58.5048L89.2266 58.4917L89.5424 57.9549L89.2739 58.5169Z" fill="white"/>
<path d="M88.4263 56.816L88.4222 56.8425L89.0396 56.9241L88.4315 56.7897L88.4263 56.816Z" fill="white"/>
<path d="M89.7515 55.515L89.778 55.5107L89.8046 55.5075L89.8646 56.1274L89.7515 55.515Z" fill="white"/>
<path d="M84.2065 55.319C85.8165 53.9292 87.8733 53.1659 90.0003 53.169C92.1271 53.1661 94.1839 53.9294 95.7941 55.319L98.7253 60.4002C98.8261 60.9443 98.8763 61.4967 98.8753 62.0502H97.8691C97.8691 57.705 94.3455 54.1814 90.0003 54.1814C85.6551 54.1814 82.1315 57.705 82.1315 62.0502H81.1253C81.1241 61.4967 81.1743 60.9443 81.2753 60.4002L84.2065 55.319Z" fill="#D91C16"/>
<path d="M83.9441 55.7815C85.5123 54.2665 87.6475 53.3315 90.0003 53.3315C92.3531 53.3315 94.4885 54.2667 96.0567 55.7815L98.4629 59.9441C98.6297 60.6175 98.7191 61.3253 98.7191 62.0503H97.8691C97.8691 57.7051 94.3455 54.1815 90.0003 54.1815C85.6551 54.1815 82.1317 57.7051 82.1317 62.0503H81.2817C81.2816 61.3425 81.3676 60.6373 81.5379 59.9503L83.9441 55.7815Z" fill="#F4812F"/>
<path d="M83.6127 56.3567C85.1803 54.5985 87.4599 53.4941 90.0003 53.4941L90.0001 53.4939C92.5403 53.4939 94.8205 54.5987 96.3877 56.3563L98.1315 59.3753C98.4085 60.2173 98.5565 61.1157 98.5565 62.0503H97.8691C97.8691 57.7051 94.3455 54.1815 90.0003 54.1815C85.6551 54.1815 82.1315 57.7051 82.1315 62.0503H81.4441C81.4427 61.1417 81.5861 60.2387 81.8691 59.3753L83.6127 56.3567Z" fill="#FDD406"/>
<path d="M83.0191 57.3813C84.5259 55.1329 87.0903 53.6501 90.0003 53.6501V53.6503C92.9079 53.6503 95.4681 55.1299 96.9753 57.3753L97.5443 58.3627C98.1077 59.5103 98.4005 60.7717 98.4003 62.0501H97.8689C97.8689 57.7049 94.3453 54.1813 90.0001 54.1813C85.6549 54.1813 82.1315 57.7049 82.1315 62.0503H81.6001C81.599 60.7697 81.892 59.5059 82.4565 58.3563L83.0191 57.3813Z" fill="#1E9A1C"/>
<path d="M81.7627 62.0501C81.7627 57.5005 85.4509 53.8125 90.0003 53.8125C94.5499 53.8125 98.2379 57.5005 98.2379 62.0501H97.8691C97.8691 57.7047 94.3455 54.1813 90.0003 54.1813C85.6551 54.1813 82.1315 57.7047 82.1315 62.0501H81.7627Z" fill="#54AEF2"/>
<path d="M81.9253 62.0504C81.9253 57.5892 85.5391 53.9692 90.0003 53.9692C94.4615 53.9692 98.0815 57.5892 98.0815 62.0504H97.8065C97.8065 57.7386 94.3121 54.2442 90.0003 54.2442C85.6885 54.2442 82.1941 57.7384 82.1941 62.0504H81.9253Z" fill="#0F3296"/>
<path d="M82.0826 62.0494C82.0826 57.6766 85.6276 54.1316 90.0004 54.1316C94.3732 54.1316 97.9174 57.6766 97.9174 62.0494L97.916 62.196H97.7566L97.758 62.0494C97.758 57.765 94.2848 54.2918 90.0004 54.2918C85.716 54.2918 82.2428 57.765 82.2428 62.0494C82.2428 62.0983 82.2433 62.1471 82.2442 62.196H82.084L82.0826 62.0494Z" fill="#9063CD"/>
<path d="M90.0792 57.6269C89.9504 57.6021 89.834 57.5301 89.7242 57.5049C89.573 57.6499 89.5572 57.7963 89.578 57.9209C89.6304 57.9489 89.64 57.9915 89.7536 58.0929C89.8672 58.1943 89.8528 58.2475 89.846 58.4859C89.843 58.5865 89.86 58.8021 89.9618 58.8223C90.0714 58.8443 90.1482 58.7531 90.1798 58.5903C90.2102 58.4323 90.2632 58.3471 90.3194 58.2499C90.3806 57.8795 90.2808 57.7483 90.0792 57.6269Z" fill="#8A1538"/>
<path d="M89.4337 56.7049C89.3147 56.7079 89.1281 56.9073 89.0451 56.7999C88.9973 56.7383 88.9893 56.6195 89.0377 56.5199C89.1495 56.2897 89.2625 56.1767 89.4711 56.0539C89.9467 55.7737 90.2491 55.8639 90.4859 56.2665C90.7055 56.6209 90.9163 57.0125 90.9351 57.3407C90.9411 57.4409 90.9917 57.6223 90.9039 57.7127C90.6343 57.9907 89.9847 57.4257 89.6045 57.5151C89.4765 57.5451 89.3291 57.6385 89.2085 57.5587C89.1145 57.4967 89.1929 57.3593 89.2629 57.2999C89.3853 57.1959 89.5631 56.8269 89.5389 56.6669C89.5255 56.5777 89.5229 56.7027 89.4337 56.7049Z" fill="#D91C16"/>
<path d="M89.3855 56.5098C89.1689 56.5988 89.1923 56.725 89.0835 56.8278C89.1143 56.8394 89.2367 56.8898 89.3563 56.7676C89.4079 56.7248 89.4659 56.709 89.4917 56.6952C89.4307 56.7394 89.3871 56.806 89.3549 56.832C89.2741 56.8978 89.1481 57.0486 89.0869 57.2012C89.0257 57.3538 89.0009 57.5358 89.0117 57.5576C89.0225 57.5794 89.0969 57.7136 89.3249 57.804C89.7309 57.9654 89.8083 58.2918 90.2203 58.2918C90.5431 58.2918 90.4913 58.0806 90.7495 58.1254C90.9735 58.1642 91.0923 57.9862 90.8767 57.879C90.6025 57.7854 90.0583 57.8406 89.8023 57.8856C89.7195 57.069 89.7911 57.3556 89.7719 57.0046C89.7527 56.6536 89.6473 56.6326 89.7863 56.3484C89.6707 56.5228 89.5309 56.4952 89.3855 56.5098Z" fill="#8A1538"/>
<path d="M90.1877 55.959C90.1797 56.0036 90.1723 56.0622 90.1765 56.079L90.2321 56.2778C90.2551 56.345 90.2645 56.3938 90.2801 56.4634C90.2965 56.5354 90.3603 56.5634 90.4189 56.6078C90.4929 56.6638 90.4357 56.8152 90.4819 56.8216C90.5187 56.8266 90.5795 56.6072 90.5799 56.5722C90.5811 56.5289 90.5787 56.4856 90.5725 56.4428C90.546 56.3838 90.5175 56.3256 90.4873 56.2684C90.475 56.2452 90.4614 56.2227 90.4467 56.201C90.4026 56.1364 90.3497 56.0783 90.2895 56.0284L90.2783 56.019L90.2265 55.9816L90.1877 55.959Z" fill="#D91C16"/>
<path d="M90.2499 57.4797C90.1063 57.4421 89.9647 57.3711 89.8425 57.3347C89.6025 57.2629 89.3465 57.1079 89.1693 57.1719C89.1059 57.1999 89.1115 57.2631 89.0913 57.3539C89.0829 57.4605 88.9721 57.6179 89.0641 57.5663C89.2011 57.4897 89.5621 57.7129 89.6831 57.7875C89.7405 57.8229 89.8616 57.8923 89.8996 57.9919C89.9376 58.0915 89.9179 58.3431 89.9077 58.4511C89.8971 58.5643 89.9315 58.8181 90.0449 58.8485C90.1671 58.8811 90.2605 58.7839 90.3081 58.6025C90.3541 58.4263 90.3891 58.3251 90.4595 58.2195C90.5299 58.1139 90.6107 58.0683 90.7235 58.0469C90.8363 58.0255 90.9999 58.1393 90.9999 58.0063C90.9999 57.9189 90.9231 57.8353 90.9559 57.7155C90.9815 57.6211 90.8756 57.6399 90.7876 57.6011C90.5804 57.5373 90.3935 57.5171 90.2499 57.4797Z" fill="#D91C16"/>
<path d="M89.6727 57.7807C89.6073 57.7451 89.2097 57.4851 89.0641 57.5665C89.0181 57.5921 89.0007 57.5633 89.0001 57.5151C88.9995 57.4669 89.0219 57.3963 89.0369 57.3419C89.0519 57.2875 89.0759 57.1835 89.1401 57.1295C89.2775 57.0135 89.5939 57.2445 89.7617 57.3067L89.6727 57.7807Z" fill="#8A1538"/>
<path d="M90.3528 58.2722C90.536 57.9516 90.6544 57.9928 90.8754 57.9974C90.9492 57.999 90.9708 57.9316 90.954 57.864C90.8984 57.9888 90.6216 57.85 90.471 57.9166C90.1564 58.055 90.215 58.6706 90.0656 58.7306C90.2208 58.8608 90.2904 58.3814 90.3528 58.2722Z" fill="#D91C16"/>
<path d="M80.6208 61.5291L78.6298 64.9765H101.371L99.3802 61.5291H80.6208Z" fill="white"/>
<path d="M99.9379 62.4877C99.8578 62.4879 99.778 62.4885 99.6982 62.4892C99.5369 62.4906 99.376 62.4919 99.2151 62.4887C98.8405 62.4887 98.496 62.5316 98.1557 62.5739C97.8603 62.6106 97.568 62.647 97.2621 62.6545C96.9554 62.6471 96.6621 62.6107 96.3656 62.5738C96.0247 62.5315 95.6796 62.4887 95.3049 62.4887C95.1645 62.4868 95.0239 62.488 94.8836 62.4893H94.8825C94.7209 62.4906 94.5597 62.492 94.3997 62.4887C94.0253 62.4887 93.68 62.5315 93.3389 62.5739C93.0423 62.6107 92.7489 62.6471 92.4425 62.6545C92.136 62.6471 91.8426 62.6106 91.546 62.5738C91.2052 62.5315 90.8601 62.4887 90.4859 62.4887C90.3438 62.4868 90.2019 62.488 90.0603 62.4892H90.0599C89.8982 62.4906 89.7369 62.4919 89.5765 62.4887C89.2021 62.4887 88.8576 62.5316 88.5175 62.5739C88.2219 62.6107 87.9294 62.6471 87.6235 62.6545C87.3169 62.6471 87.0241 62.6106 86.7281 62.5738C86.3881 62.5315 86.0438 62.4887 85.6697 62.4887C85.5272 62.4867 85.3854 62.488 85.2441 62.4892H85.2439C85.0836 62.4906 84.9239 62.492 84.7645 62.4887C84.39 62.4887 84.0449 62.5315 83.704 62.5738C83.4074 62.6106 83.114 62.6471 82.8073 62.6545C82.5008 62.6471 82.2075 62.6106 81.9109 62.5738C81.5701 62.5315 81.225 62.4887 80.8507 62.4887C80.7097 62.4868 80.5686 62.488 80.4278 62.4893H80.4269C80.3046 62.4903 80.1823 62.4913 80.0607 62.4904L79.9853 62.6209L80.3301 62.5867C80.6364 62.5941 80.9297 62.6306 81.2262 62.6674C81.5672 62.7098 81.9126 62.7527 82.2873 62.7527H83.1925C83.5668 62.7527 83.9119 62.7098 84.2527 62.6675L84.2529 62.6674C84.5494 62.6306 84.8426 62.5941 85.1491 62.5867C85.4557 62.5941 85.75 62.6306 86.0474 62.6675C86.3893 62.7098 86.7355 62.7527 87.1097 62.7527H88.0157C88.39 62.7527 88.7343 62.7098 89.0742 62.6674C89.37 62.6306 89.6625 62.5941 89.9687 62.5867C90.2752 62.5941 90.568 62.6306 90.8639 62.6675C91.204 62.7098 91.5484 62.7527 91.9225 62.7527H92.8311C93.2053 62.7527 93.5504 62.7098 93.8912 62.6675C94.1879 62.6306 94.4816 62.5941 94.7885 62.5867C95.0952 62.5941 95.3885 62.6306 95.6849 62.6675C96.0255 62.7098 96.3704 62.7527 96.7449 62.7527H97.6509C98.0251 62.7527 98.3695 62.7098 98.7095 62.6674C99.0053 62.6306 99.2978 62.5941 99.6039 62.5867C99.7411 62.59 99.8758 62.5991 100.009 62.6113L99.9379 62.4877Z" fill="#021455"/>
<path d="M100.067 62.7115C99.9436 62.7106 99.8207 62.7116 99.6982 62.7126C99.5369 62.714 99.376 62.7153 99.2151 62.7121C98.8405 62.7121 98.496 62.755 98.1557 62.7973C97.8603 62.834 97.568 62.8704 97.2621 62.8779C96.9554 62.8705 96.6621 62.8341 96.3656 62.7972C96.0247 62.7549 95.6796 62.7121 95.3049 62.7121C95.1645 62.7102 95.0238 62.7115 94.8836 62.7127H94.8827C94.721 62.714 94.5597 62.7154 94.3997 62.7121C94.0253 62.7121 93.68 62.7549 93.3389 62.7973C93.0423 62.8341 92.7489 62.8705 92.4425 62.8779C92.136 62.8705 91.8426 62.834 91.546 62.7972C91.2052 62.7549 90.8601 62.7121 90.4859 62.7121C90.3438 62.7102 90.2017 62.7114 90.0601 62.7126H90.0598C89.8981 62.714 89.7369 62.7153 89.5765 62.7121C89.2021 62.7121 88.8576 62.755 88.5175 62.7973C88.2219 62.8341 87.9294 62.8705 87.6235 62.8779C87.3169 62.8705 87.0241 62.834 86.7281 62.7972C86.3881 62.7549 86.0438 62.7121 85.6697 62.7121C85.5271 62.7101 85.3854 62.7114 85.2441 62.7126H85.2439C85.0836 62.714 84.9239 62.7154 84.7645 62.7121C84.39 62.7121 84.0449 62.7549 83.704 62.7972C83.4074 62.834 83.114 62.8705 82.8073 62.8779C82.5008 62.8705 82.2075 62.834 81.9109 62.7972C81.5701 62.7549 81.225 62.7121 80.8507 62.7121C80.7096 62.7102 80.5684 62.7115 80.4275 62.7127H80.4268C80.2643 62.714 80.1022 62.7154 79.9413 62.7121C79.9384 62.7121 79.9355 62.7121 79.9327 62.7121L79.8485 62.8579L80.3301 62.8101C80.6364 62.8175 80.9297 62.854 81.2262 62.8908C81.5672 62.9332 81.9126 62.9761 82.2873 62.9761H83.1925C83.5668 62.9761 83.9119 62.9332 84.2527 62.8909C84.5492 62.854 84.8426 62.8175 85.1491 62.8101C85.4557 62.8175 85.75 62.854 86.0474 62.8909C86.3893 62.9332 86.7355 62.9761 87.1097 62.9761H88.0157C88.39 62.9761 88.7343 62.9332 89.0742 62.8908C89.37 62.854 89.6625 62.8175 89.9687 62.8101C90.2752 62.8175 90.568 62.854 90.8639 62.8909C91.204 62.9332 91.5484 62.9761 91.9225 62.9761H92.8311C93.2053 62.9761 93.5504 62.9332 93.8912 62.8909C94.188 62.854 94.4816 62.8175 94.7885 62.8101C95.0952 62.8175 95.3885 62.854 95.6849 62.8909C96.0255 62.9332 96.3704 62.9761 96.7449 62.9761H97.6509C98.0251 62.9761 98.3695 62.9332 98.7095 62.8908C99.0053 62.854 99.2978 62.8175 99.6039 62.8101C99.7881 62.8146 99.9677 62.8293 100.146 62.8483L100.067 62.7115Z" fill="#021455"/>
<path d="M100.199 62.9402L100.124 62.9347C99.9816 62.9328 99.8397 62.934 99.6982 62.9352C99.5369 62.9366 99.376 62.9379 99.2151 62.9347C98.8405 62.9347 98.496 62.9776 98.1557 63.0199C97.8603 63.0566 97.568 63.093 97.2621 63.1005C96.9554 63.0931 96.6621 63.0567 96.3656 63.0198C96.0247 62.9775 95.6796 62.9347 95.3049 62.9347C95.1644 62.9328 95.0238 62.9341 94.8835 62.9353H94.8827C94.721 62.9366 94.5597 62.938 94.3997 62.9347C94.0253 62.9347 93.68 62.9775 93.3389 63.0199C93.0423 63.0567 92.7489 63.0931 92.4425 63.1005C92.136 63.0931 91.8426 63.0566 91.546 63.0198C91.2052 62.9775 90.8601 62.9347 90.4859 62.9347C90.3438 62.9328 90.2019 62.934 90.0602 62.9352H90.0599C89.8982 62.9366 89.7369 62.9379 89.5765 62.9347C89.2021 62.9347 88.8576 62.9776 88.5175 63.0199C88.2219 63.0567 87.9294 63.0931 87.6235 63.1005C87.3169 63.0931 87.0241 63.0566 86.7281 63.0198C86.3881 62.9775 86.0438 62.9347 85.6697 62.9347C85.5271 62.9327 85.3854 62.934 85.2441 62.9352H85.2439C85.0836 62.9366 84.9239 62.938 84.7645 62.9347C84.39 62.9347 84.0449 62.9775 83.704 63.0198C83.4074 63.0566 83.114 63.0931 82.8073 63.1005C82.5008 63.0931 82.2075 63.0566 81.9109 63.0198C81.5701 62.9775 81.225 62.9347 80.8507 62.9347C80.7097 62.9328 80.5685 62.9341 80.4277 62.9353H80.427C80.2645 62.9366 80.1023 62.938 79.9413 62.9347C79.8948 62.9347 79.8487 62.9354 79.8031 62.9366L79.7121 63.0941L80.3301 63.0327C80.6364 63.0401 80.9297 63.0766 81.2262 63.1134C81.5672 63.1558 81.9126 63.1987 82.2873 63.1987H83.1925C83.5668 63.1987 83.9119 63.1558 84.2527 63.1135L84.2529 63.1134C84.5494 63.0766 84.8426 63.0401 85.1491 63.0327C85.4557 63.0401 85.75 63.0766 86.0474 63.1135C86.3893 63.1558 86.7355 63.1987 87.1097 63.1987H88.0157C88.39 63.1987 88.7343 63.1558 89.0742 63.1134C89.37 63.0766 89.6625 63.0401 89.9687 63.0327C90.2752 63.0401 90.568 63.0766 90.8639 63.1135C91.204 63.1558 91.5484 63.1987 91.9225 63.1987H92.8311C93.2053 63.1987 93.5504 63.1558 93.8912 63.1135C94.188 63.0766 94.4816 63.0401 94.7885 63.0327C95.0952 63.0401 95.3885 63.0766 95.6849 63.1135C96.0255 63.1558 96.3704 63.1987 96.7449 63.1987H97.6509C98.0251 63.1987 98.3695 63.1558 98.7095 63.1134C99.0053 63.0766 99.2978 63.0401 99.6039 63.0327C99.8355 63.0383 100.06 63.0602 100.283 63.0863L100.199 62.9402Z" fill="#021455"/>
<path d="M100.334 63.1735L100.124 63.1581C99.9816 63.1562 99.8397 63.1574 99.6982 63.1586C99.5369 63.16 99.376 63.1613 99.2151 63.1581C98.8405 63.1581 98.496 63.201 98.1557 63.2433C97.8603 63.28 97.568 63.3164 97.2621 63.3239C96.9554 63.3165 96.6621 63.2801 96.3656 63.2433C96.0247 63.2009 95.6796 63.1581 95.3049 63.1581C95.1644 63.1563 95.0238 63.1575 94.8835 63.1587H94.8828C94.7211 63.16 94.5597 63.1614 94.3997 63.1581C94.0253 63.1581 93.68 63.201 93.3389 63.2433C93.0423 63.2801 92.7489 63.3165 92.4425 63.3239C92.136 63.3165 91.8426 63.2801 91.546 63.2432C91.2052 63.2009 90.8601 63.1581 90.4859 63.1581C90.3441 63.1562 90.2024 63.1574 90.0611 63.1586H90.0599C89.8982 63.16 89.7369 63.1613 89.5765 63.1581C89.2021 63.1581 88.8577 63.201 88.5176 63.2433C88.2219 63.2801 87.9294 63.3165 87.6235 63.3239C87.3169 63.3165 87.0241 63.28 86.7281 63.2432C86.3881 63.2009 86.0438 63.1581 85.6697 63.1581C85.5271 63.1561 85.3852 63.1574 85.2438 63.1586C85.0835 63.16 84.9239 63.1614 84.7645 63.1581C84.39 63.1581 84.0449 63.2009 83.704 63.2432C83.4074 63.28 83.114 63.3165 82.8073 63.3239C82.5008 63.3165 82.2075 63.2801 81.9109 63.2432C81.5701 63.2009 81.225 63.1581 80.8507 63.1581C80.7096 63.1563 80.5684 63.1575 80.4275 63.1587H80.4268C80.2644 63.16 80.1023 63.1614 79.9413 63.1581C79.8495 63.1581 79.7596 63.1607 79.6711 63.1652L79.5753 63.3311L80.3301 63.2561C80.6364 63.2636 80.9297 63.3 81.2262 63.3368C81.5672 63.3792 81.9126 63.4221 82.2873 63.4221H83.1925C83.5668 63.4221 83.9119 63.3792 84.2527 63.3369C84.5492 63.3 84.8426 63.2636 85.1491 63.2561C85.4557 63.2636 85.7499 63.3 86.0474 63.3369C86.3893 63.3792 86.7355 63.4221 87.1097 63.4221H88.0157C88.39 63.4221 88.7343 63.3792 89.0742 63.3369C89.37 63.3 89.6625 63.2636 89.9687 63.2561C90.2752 63.2636 90.568 63.3 90.8639 63.3369C91.204 63.3792 91.5484 63.4221 91.9225 63.4221H92.8311C93.2053 63.4221 93.5504 63.3792 93.8912 63.3369C94.188 63.3 94.4816 63.2636 94.7885 63.2561C95.0952 63.2636 95.3884 63.3 95.6849 63.3369C96.0255 63.3792 96.3704 63.4221 96.7449 63.4221H97.6509C98.0251 63.4221 98.3695 63.3792 98.7095 63.3368C99.0053 63.3 99.2978 63.2636 99.6039 63.2561C99.8833 63.2629 100.152 63.2933 100.422 63.3263L100.334 63.1735Z" fill="#021455"/>
<path d="M100.469 63.4068L100.124 63.3815C99.9816 63.3796 99.8397 63.3808 99.6982 63.382C99.5369 63.3834 99.376 63.3847 99.2151 63.3815C98.8405 63.3815 98.496 63.4244 98.1557 63.4667C97.8603 63.5034 97.568 63.5398 97.2621 63.5473C96.9554 63.5399 96.6621 63.5035 96.3656 63.4667C96.0247 63.4243 95.6796 63.3815 95.3049 63.3815C95.1644 63.3797 95.0238 63.3809 94.8835 63.3821H94.8828C94.7211 63.3834 94.5598 63.3848 94.3997 63.3815C94.0253 63.3815 93.68 63.4244 93.3389 63.4667C93.0423 63.5035 92.7489 63.5399 92.4425 63.5473C92.136 63.5399 91.8426 63.5035 91.546 63.4666C91.2052 63.4243 90.8601 63.3815 90.4859 63.3815C90.3438 63.3796 90.2019 63.3808 90.0602 63.382H90.0599C89.8982 63.3834 89.7369 63.3847 89.5765 63.3815C89.2021 63.3815 88.8576 63.4244 88.5175 63.4667C88.2218 63.5035 87.9294 63.5399 87.6235 63.5473C87.3169 63.5399 87.0241 63.5034 86.7281 63.4666C86.3881 63.4243 86.0438 63.3815 85.6697 63.3815C85.5271 63.3795 85.3853 63.3808 85.244 63.382C85.0838 63.3834 84.9239 63.3848 84.7645 63.3815C84.39 63.3815 84.0449 63.4243 83.704 63.4666C83.4074 63.5035 83.114 63.5399 82.8073 63.5473C82.5008 63.5399 82.2075 63.5035 81.9109 63.4667C81.5701 63.4243 81.225 63.3815 80.8507 63.3815C80.7096 63.3797 80.5684 63.3809 80.4276 63.3821H80.4269C80.2644 63.3834 80.1023 63.3848 79.9413 63.3815C79.803 63.3815 79.6688 63.3873 79.5373 63.3968L79.4385 63.568L80.3301 63.4795C80.6364 63.487 80.9297 63.5234 81.2262 63.5602C81.5672 63.6026 81.9126 63.6455 82.2873 63.6455H83.1925C83.5668 63.6455 83.9119 63.6026 84.2527 63.5603L84.2529 63.5602C84.5494 63.5234 84.8426 63.487 85.1491 63.4795C85.4557 63.487 85.7499 63.5234 86.0474 63.5603C86.3893 63.6026 86.7355 63.6455 87.1097 63.6455H88.0157C88.39 63.6455 88.7343 63.6026 89.0742 63.5603C89.37 63.5234 89.6625 63.487 89.9687 63.4795C90.2752 63.487 90.568 63.5234 90.8639 63.5603C91.204 63.6026 91.5484 63.6455 91.9225 63.6455H92.8311C93.2053 63.6455 93.5504 63.6026 93.8912 63.5603C94.188 63.5234 94.4816 63.487 94.7885 63.4795C95.0952 63.487 95.3884 63.5234 95.6849 63.5603C96.0255 63.6026 96.3704 63.6455 96.7449 63.6455H97.6509C98.0251 63.6455 98.3695 63.6026 98.7095 63.5602C99.0053 63.5234 99.2978 63.487 99.6039 63.4795C99.9114 63.487 100.206 63.5231 100.504 63.5596C100.523 63.562 100.542 63.5643 100.561 63.5667L100.469 63.4068Z" fill="#021455"/>
<path d="M100.603 63.6393L100.124 63.6041C99.9816 63.6022 99.8397 63.6034 99.6982 63.6046C99.5369 63.606 99.376 63.6073 99.2151 63.6041C98.8405 63.6041 98.496 63.647 98.1557 63.6893C97.8603 63.726 97.568 63.7624 97.2621 63.7699C96.9554 63.7625 96.6621 63.7261 96.3656 63.6893C96.0247 63.6469 95.6796 63.6041 95.3049 63.6041C95.1644 63.6023 95.0238 63.6035 94.8834 63.6047H94.8829C94.7212 63.6061 94.5598 63.6074 94.3997 63.6041C94.0253 63.6041 93.68 63.647 93.3389 63.6893C93.0423 63.7261 92.7489 63.7625 92.4425 63.7699C92.136 63.7625 91.8426 63.7261 91.546 63.6892C91.2052 63.6469 90.8601 63.6041 90.4859 63.6041C90.344 63.6022 90.202 63.6034 90.0605 63.6046H90.0599C89.8982 63.606 89.7369 63.6073 89.5765 63.6041C89.2021 63.6041 88.8577 63.647 88.5176 63.6893C88.2219 63.7261 87.9294 63.7625 87.6235 63.7699C87.3169 63.7625 87.0241 63.726 86.7281 63.6892C86.3881 63.6469 86.0438 63.6041 85.6697 63.6041C85.5271 63.6021 85.3851 63.6034 85.2438 63.6046C85.0835 63.606 84.9239 63.6074 84.7645 63.6041C84.39 63.6041 84.0449 63.6469 83.704 63.6892C83.4074 63.7261 83.114 63.7625 82.8073 63.7699C82.5008 63.7625 82.2075 63.7261 81.9109 63.6893C81.5701 63.6469 81.225 63.6041 80.8507 63.6041C80.7096 63.6023 80.5683 63.6035 80.4274 63.6047H80.4269C80.2644 63.6061 80.1023 63.6074 79.9413 63.6041C79.7553 63.6041 79.5768 63.6146 79.4025 63.6304L79.3021 63.8042L80.3301 63.7021C80.6364 63.7096 80.9297 63.746 81.2262 63.7828C81.5672 63.8252 81.9126 63.8681 82.2873 63.8681H83.1925C83.5668 63.8681 83.9119 63.8252 84.2527 63.7829C84.5492 63.746 84.8426 63.7096 85.1491 63.7021C85.4557 63.7096 85.7499 63.746 86.0474 63.7829C86.3893 63.8252 86.7355 63.8681 87.1097 63.8681H88.0157C88.39 63.8681 88.7343 63.8252 89.0742 63.7829C89.37 63.746 89.6625 63.7096 89.9687 63.7021C90.2752 63.7096 90.568 63.746 90.8639 63.7829C91.204 63.8252 91.5484 63.8681 91.9225 63.8681H92.8311C93.2053 63.8681 93.5504 63.8252 93.8912 63.7829C94.188 63.746 94.4816 63.7096 94.7885 63.7021C95.0952 63.7096 95.3884 63.746 95.6849 63.7829C96.0255 63.8252 96.3704 63.8681 96.7449 63.8681H97.6509C98.0251 63.8681 98.3695 63.8252 98.7095 63.7828C99.0053 63.746 99.2978 63.7096 99.6039 63.7021C99.9114 63.7096 100.206 63.7457 100.504 63.7822C100.568 63.7902 100.634 63.7982 100.699 63.8059L100.603 63.6393Z" fill="#021455"/>
<path d="M100.737 63.8719L100.124 63.8269C99.9816 63.825 99.8397 63.8262 99.6982 63.8274C99.5369 63.8288 99.376 63.8301 99.2151 63.8269C98.8405 63.8269 98.496 63.8698 98.1557 63.9121C97.8603 63.9488 97.568 63.9852 97.2621 63.9927C96.9554 63.9853 96.6621 63.9489 96.3656 63.9121C96.0247 63.8697 95.6796 63.8269 95.3049 63.8269C95.1644 63.8251 95.0237 63.8263 94.8834 63.8275H94.8829C94.7212 63.8288 94.5598 63.8302 94.3997 63.8269C94.0253 63.8269 93.68 63.8698 93.3389 63.9121C93.0423 63.9489 92.7489 63.9853 92.4425 63.9927C92.136 63.9853 91.8426 63.9489 91.546 63.912C91.2052 63.8697 90.8601 63.8269 90.4859 63.8269C90.3438 63.825 90.2019 63.8262 90.0603 63.8274H90.06C89.8983 63.8288 89.7369 63.8301 89.5765 63.8269C89.2021 63.8269 88.8576 63.8698 88.5175 63.9121C88.2218 63.9489 87.9294 63.9853 87.6235 63.9927C87.3169 63.9853 87.0241 63.9488 86.7281 63.912C86.3881 63.8697 86.0438 63.8269 85.6697 63.8269C85.5271 63.8249 85.3853 63.8262 85.244 63.8274C85.0837 63.8288 84.9239 63.8302 84.7645 63.8269C84.39 63.8269 84.0449 63.8697 83.704 63.912C83.4074 63.9488 83.114 63.9853 82.8073 63.9927C82.5008 63.9853 82.2075 63.9489 81.9109 63.912C81.5701 63.8697 81.225 63.8269 80.8507 63.8269C80.7096 63.8251 80.5684 63.8263 80.4275 63.8275H80.427C80.2645 63.8288 80.1023 63.8302 79.9413 63.8269C79.7065 63.8269 79.4836 63.8437 79.2661 63.8666L79.1657 64.0405L80.3301 63.9249C80.6364 63.9324 80.9297 63.9688 81.2262 64.0056C81.5672 64.048 81.9126 64.0909 82.2873 64.0909H83.1925C83.5668 64.0909 83.9119 64.048 84.2527 64.0057L84.2529 64.0056C84.5494 63.9688 84.8426 63.9324 85.1491 63.9249C85.4557 63.9324 85.7499 63.9688 86.0474 64.0057C86.3893 64.048 86.7355 64.0909 87.1097 64.0909H88.0157C88.39 64.0909 88.7343 64.048 89.0742 64.0057C89.37 63.9688 89.6625 63.9324 89.9687 63.9249C90.2752 63.9324 90.568 63.9688 90.8639 64.0057C91.204 64.048 91.5484 64.0909 91.9225 64.0909H92.8311C93.2053 64.0909 93.5504 64.048 93.8912 64.0057C94.188 63.9688 94.4816 63.9324 94.7885 63.9249C95.0952 63.9324 95.3884 63.9688 95.6849 64.0057C96.0255 64.048 96.3704 64.0909 96.7449 64.0909H97.6509C98.0251 64.0909 98.3695 64.048 98.7095 64.0056C99.0053 63.9688 99.2978 63.9324 99.6039 63.9249C99.9114 63.9324 100.206 63.9685 100.504 64.005C100.614 64.0186 100.725 64.0322 100.837 64.0444L100.737 63.8719Z" fill="#021455"/>
<path d="M100.872 64.1052L100.124 64.0503C99.9816 64.0484 99.8397 64.0496 99.6982 64.0508C99.5369 64.0522 99.376 64.0535 99.2151 64.0503C98.8405 64.0503 98.496 64.0932 98.1557 64.1355C97.8603 64.1722 97.568 64.2086 97.2621 64.2161C96.9554 64.2087 96.6621 64.1723 96.3656 64.1355C96.0247 64.0931 95.6796 64.0503 95.3049 64.0503C95.1644 64.0485 95.0237 64.0497 94.8834 64.0509H94.8829C94.7212 64.0522 94.5598 64.0536 94.3997 64.0503C94.0253 64.0503 93.68 64.0932 93.3389 64.1355C93.0423 64.1723 92.7489 64.2087 92.4425 64.2161C92.136 64.2087 91.8426 64.1723 91.546 64.1354C91.2052 64.0931 90.8601 64.0503 90.4859 64.0503C90.3439 64.0484 90.2018 64.0496 90.0602 64.0508H90.0599C89.8982 64.0522 89.7369 64.0535 89.5765 64.0503C89.2021 64.0503 88.8577 64.0932 88.5176 64.1355C88.2219 64.1723 87.9294 64.2087 87.6235 64.2161C87.3169 64.2087 87.0241 64.1722 86.7281 64.1354C86.3881 64.0931 86.0438 64.0503 85.6697 64.0503C85.5271 64.0483 85.3851 64.0496 85.2438 64.0508C85.0835 64.0522 84.9239 64.0536 84.7645 64.0503C84.39 64.0503 84.0449 64.0931 83.704 64.1354C83.4074 64.1722 83.114 64.2087 82.8073 64.2161C82.5008 64.2087 82.2075 64.1723 81.9109 64.1354C81.5701 64.0931 81.225 64.0503 80.8507 64.0503C80.7096 64.0485 80.5683 64.0497 80.4273 64.0509H80.4271C80.2645 64.0522 80.1023 64.0536 79.9413 64.0503C79.6567 64.0503 79.3896 64.0749 79.1282 64.1054L79.0289 64.2775L80.3301 64.1483C80.6364 64.1558 80.9297 64.1922 81.2262 64.229C81.5672 64.2714 81.9126 64.3143 82.2873 64.3143H83.1925C83.5668 64.3143 83.9119 64.2714 84.2527 64.2291C84.5492 64.1922 84.8426 64.1558 85.1491 64.1483C85.4557 64.1558 85.7499 64.1922 86.0474 64.2291C86.3893 64.2714 86.7355 64.3143 87.1097 64.3143H88.0157C88.39 64.3143 88.7343 64.2714 89.0742 64.2291C89.37 64.1922 89.6625 64.1558 89.9687 64.1483C90.2752 64.1558 90.568 64.1922 90.8639 64.2291C91.204 64.2714 91.5484 64.3143 91.9225 64.3143H92.8311C93.2053 64.3143 93.5504 64.2714 93.8912 64.2291C94.188 64.1922 94.4816 64.1558 94.7885 64.1483C95.0952 64.1558 95.3884 64.1922 95.6849 64.2291C96.0255 64.2714 96.3704 64.3143 96.7449 64.3143H97.6509C98.0251 64.3143 98.3695 64.2714 98.7095 64.229C99.0053 64.1922 99.2978 64.1558 99.6039 64.1483C99.9114 64.1558 100.206 64.1919 100.504 64.2284C100.659 64.2475 100.815 64.2666 100.974 64.2819L100.872 64.1052Z" fill="#021455"/>
<path d="M80.6217 61.5347L80.6463 61.4917H99.3549L99.3797 61.5347H80.6217Z" fill="#021455"/>
<path d="M80.5771 61.6111L80.6025 61.5671H99.3987L99.4241 61.6111H80.5771Z" fill="#021455"/>
<path d="M80.5625 61.6363L80.5215 61.7075H99.4799L99.4389 61.6363H80.5625Z" fill="#021455"/>
<path d="M80.4489 61.8331L80.4989 61.7463V61.7465H99.5025L99.5525 61.8331H80.4489Z" fill="#021455"/>
<path d="M80.4191 61.8847L80.3691 61.9715H99.6323L99.5823 61.8847H80.4191Z" fill="#021455"/>
<path d="M80.2899 62.1089L80.3393 62.0229H99.6619L99.7113 62.1089H80.2899Z" fill="#021455"/>
<path d="M80.2597 62.1613L80.2097 62.2473H99.7917L99.7417 62.1613H80.2597Z" fill="#021455"/>
<path d="M80.1129 62.4161L80.1737 62.3101H99.8277L99.8883 62.4161H80.1129Z" fill="#021455"/>
<path d="M81.4717 62.4575C82.1617 62.5899 82.2281 62.4575 82.2281 62.4575H81.4717Z" fill="#021455"/>
<path d="M97.7723 62.4575C97.7723 62.4575 97.8385 62.5899 98.5287 62.4575H97.7723Z" fill="#021455"/>
<path d="M79.9413 64.2729C79.6097 64.2729 79.3019 64.3063 78.9993 64.3435L78.9021 64.5127L80.3301 64.3709C80.6364 64.3784 80.9297 64.4148 81.2262 64.4516C81.5672 64.494 81.9126 64.5369 82.2873 64.5369H83.1925C83.5668 64.5369 83.9119 64.494 84.2527 64.4517C84.5492 64.4148 84.8426 64.3784 85.1491 64.3709C85.4557 64.3784 85.7499 64.4148 86.0474 64.4517C86.3893 64.494 86.7355 64.5369 87.1097 64.5369H88.0157C88.39 64.5369 88.7343 64.494 89.0742 64.4517C89.37 64.4148 89.6625 64.3784 89.9687 64.3709C90.2752 64.3784 90.568 64.4148 90.8639 64.4517C91.204 64.494 91.5484 64.5369 91.9225 64.5369H92.8311C93.2053 64.5369 93.5504 64.494 93.8912 64.4517C94.188 64.4148 94.4816 64.3784 94.7885 64.3709C95.0952 64.3784 95.3884 64.4148 95.6849 64.4517C96.0255 64.494 96.3704 64.5369 96.7449 64.5369H97.6509C98.0251 64.5369 98.3695 64.494 98.7095 64.4516C99.0053 64.4148 99.2978 64.3784 99.6039 64.3709C99.9114 64.3784 100.206 64.4145 100.504 64.451C100.7 64.4751 100.897 64.4994 101.101 64.5157L100.998 64.3371L100.124 64.2729C99.9816 64.271 99.8397 64.2722 99.6982 64.2734C99.5369 64.2748 99.376 64.2761 99.2151 64.2729C98.8405 64.2729 98.496 64.3158 98.1557 64.3581C97.8603 64.3948 97.568 64.4312 97.2621 64.4387C96.9554 64.4313 96.6621 64.3949 96.3656 64.3581C96.0247 64.3157 95.6796 64.2729 95.3049 64.2729C95.1644 64.2711 95.0237 64.2723 94.8833 64.2735H94.8831C94.7213 64.2748 94.5599 64.2762 94.3997 64.2729C94.0253 64.2729 93.68 64.3158 93.3389 64.3581C93.0423 64.3949 92.7489 64.4313 92.4425 64.4387C92.136 64.4313 91.8426 64.3949 91.546 64.358C91.2052 64.3157 90.8601 64.2729 90.4859 64.2729C90.3438 64.271 90.2017 64.2722 90.0601 64.2734H90.0599C89.8982 64.2748 89.7369 64.2761 89.5765 64.2729C89.2021 64.2729 88.8576 64.3158 88.5176 64.3581C88.2219 64.3949 87.9294 64.4313 87.6235 64.4387C87.3169 64.4313 87.0241 64.3948 86.7281 64.358C86.3881 64.3157 86.0438 64.2729 85.6697 64.2729C85.5271 64.2709 85.3851 64.2722 85.2438 64.2734C85.0835 64.2748 84.9239 64.2762 84.7645 64.2729C84.39 64.2729 84.0449 64.3157 83.704 64.358C83.4074 64.3949 83.114 64.4313 82.8073 64.4387C82.5008 64.4313 82.2075 64.3949 81.9109 64.3581C81.5701 64.3157 81.225 64.2729 80.8507 64.2729C80.7095 64.2711 80.5682 64.2723 80.4273 64.2735H80.427C80.2645 64.2748 80.1023 64.2762 79.9413 64.2729Z" fill="#021455"/>
<path d="M96.1263 59.4087C95.7845 59.4087 95.6799 59.5811 95.6799 59.5811C95.1327 61.6963 93.3185 63.8477 91.1599 63.8477H89.5439V66.0013H101.847L100.609 63.8105C98.668 63.5207 97.0813 61.5359 96.5761 59.5811C96.5761 59.5811 96.4683 59.4087 96.1263 59.4087Z" fill="#B1EB50"/>
<path d="M96.1263 59.4932C95.9695 59.4932 95.8743 59.5292 95.8187 59.5642C95.7659 59.5972 95.7557 59.6194 95.7545 59.6218C95.7545 59.6232 95.7515 59.6238 95.7509 59.625C95.4709 60.6896 94.8805 61.7588 94.0841 62.5664C93.2817 63.3804 92.2701 63.9324 91.1631 63.9324H89.6283V65.9168H101.799L100.663 63.9052C99.7259 63.7828 98.8687 63.2726 98.1717 62.5664C97.3745 61.7588 96.7853 60.6896 96.5049 59.625L96.5015 59.6218C96.5001 59.6194 96.4875 59.6008 96.4339 59.5676C96.3773 59.5324 96.2831 59.4932 96.1263 59.4932Z" fill="#B1EB50"/>
<path d="M96.1262 59.4932C96.1556 59.4932 96.1822 59.4974 96.2074 59.5V61.6602C96.2016 62.1282 96.0414 62.5048 95.805 62.9484C95.6956 63.2592 95.6078 63.141 95.335 63.5198C94.969 63.6506 94.6978 63.7016 94.3074 63.763C93.804 63.8426 92.6832 63.913 92.13 63.7902C92.8582 63.5766 93.5222 63.1362 94.0842 62.5662C94.2345 62.4137 94.3767 62.2535 94.5102 62.0862C94.7345 61.8041 94.9358 61.5045 95.1122 61.1902C95.1826 61.065 95.2494 60.9406 95.3116 60.8116C95.405 60.6184 95.4882 60.4216 95.5616 60.2236C95.5864 60.1574 95.6106 60.0902 95.6328 60.024C95.6772 59.8912 95.7162 59.758 95.7512 59.625C95.7516 59.6238 95.7542 59.623 95.7544 59.6216C95.7546 59.6202 95.766 59.5972 95.8186 59.5642C95.8545 59.5431 95.8932 59.5271 95.9336 59.5168H95.937C95.9874 59.5034 96.0478 59.4932 96.1262 59.4932Z" fill="#FDD406"/>
<path d="M95.9878 59.7805C95.9054 60.9873 95.5324 62.4189 94.659 63.3425C94.3376 63.6099 93.927 63.8525 93.5298 63.7935C94.8838 62.6915 95.7068 61.0041 95.9878 59.7805Z" fill="#D3AE3B"/>
<path d="M94.899 61.8562C94.6986 62.4004 93.9414 63.2054 93.131 63.8652C92.901 63.8722 92.779 63.8854 92.5702 63.8728C93.0638 63.8278 94.2144 62.8562 94.899 61.8562Z" fill="#D3AE3B"/>
<path d="M93.0582 59.4087C92.7164 59.4087 92.6118 59.5811 92.6118 59.5811C92.0646 61.6963 90.2504 63.8477 88.0918 63.8477H86.4758V66.0013H98.7786L97.5412 63.8105C95.5998 63.5207 94.0132 61.5359 93.508 59.5811C93.508 59.5811 93.4002 59.4087 93.0582 59.4087Z" fill="#B1EB50"/>
<path d="M93.0582 59.4932C92.9014 59.4932 92.8062 59.5292 92.7506 59.5642C92.6978 59.5972 92.6876 59.6194 92.6864 59.6218C92.6864 59.6232 92.6834 59.6238 92.6828 59.625C92.4028 60.6896 91.8124 61.7588 91.016 62.5664C90.2136 63.3804 89.202 63.9324 88.095 63.9324H86.5602V65.9168H98.7312L97.5952 63.9052C96.6578 63.7828 95.8006 63.2726 95.1036 62.5664C94.3064 61.7588 93.7172 60.6896 93.4368 59.625L93.4334 59.6218C93.432 59.6194 93.4194 59.6008 93.3658 59.5676C93.3092 59.5324 93.215 59.4932 93.0582 59.4932Z" fill="#B1EB50"/>
<path d="M93.058 59.4932C93.0874 59.4932 93.114 59.4974 93.1392 59.5V61.6602C93.1334 62.1282 92.9732 62.5048 92.7368 62.9484C92.6274 63.2592 92.5396 63.141 92.2668 63.5198C91.9008 63.6506 91.6296 63.7016 91.2392 63.763C90.7358 63.8426 89.615 63.913 89.0618 63.7902C89.79 63.5766 90.454 63.1362 91.016 62.5662C91.1663 62.4137 91.3085 62.2535 91.442 62.0862C91.6663 61.8041 91.8676 61.5045 92.044 61.1902C92.1144 61.065 92.1812 60.9406 92.2434 60.8116C92.3368 60.6184 92.42 60.4216 92.4934 60.2236C92.5182 60.1574 92.5424 60.0902 92.5646 60.024C92.609 59.8912 92.648 59.758 92.683 59.625C92.6834 59.6238 92.686 59.623 92.6862 59.6216C92.6864 59.6202 92.6978 59.5972 92.7504 59.5642C92.7863 59.5431 92.825 59.5271 92.8654 59.5168H92.8688C92.9192 59.5034 92.9796 59.4932 93.058 59.4932Z" fill="#FDD406"/>
<path d="M92.9197 59.7805C92.8373 60.9873 92.4643 62.4189 91.5909 63.3425C91.2695 63.6099 90.8589 63.8525 90.4617 63.7935C91.8157 62.6915 92.6387 61.0041 92.9197 59.7805Z" fill="#D3AE3B"/>
<path d="M91.8309 61.8562C91.6305 62.4004 90.8733 63.2054 90.0629 63.8652C89.8329 63.8722 89.7109 63.8854 89.5021 63.8728C89.9957 63.8278 91.1463 62.8562 91.8309 61.8562Z" fill="#D3AE3B"/>
<path d="M90.4437 59.5819C90.9908 61.6969 92.8018 63.8485 94.9604 63.8485H96.5782V66.0021H83.4158L83.4124 63.8485H85.0268C87.1852 63.8485 88.9994 61.6969 89.5468 59.5819C89.5468 59.5819 89.6536 59.4087 89.9954 59.4087C90.3372 59.4087 90.444 59.5819 90.444 59.5819H90.4437Z" fill="#B1EB50"/>
<path d="M89.9952 59.4932C90.152 59.4932 90.2462 59.5324 90.3028 59.5676C90.3566 59.6008 90.3692 59.6194 90.3706 59.6216L90.374 59.625C90.6542 60.6896 91.2436 61.7588 92.0406 62.5664C92.844 63.3804 93.858 63.9324 94.9652 63.9324H96.4932V65.9168H83.4972V63.9322H85.0322C86.1392 63.9322 87.1508 63.3802 87.9532 62.5662C88.7496 61.7588 89.34 60.6896 89.62 59.625C89.6206 59.6236 89.623 59.623 89.6234 59.6218C89.6246 59.6194 89.6348 59.5972 89.6874 59.5642C89.7434 59.5294 89.8384 59.4932 89.9952 59.4932Z" fill="#B1EB50"/>
<path d="M89.8528 59.5061C89.8365 59.5092 89.8204 59.5128 89.8044 59.5171H89.8008C89.7606 59.5273 89.7221 59.5432 89.6864 59.5643C89.6336 59.5973 89.6236 59.6191 89.6224 59.6215C89.6218 59.6227 89.619 59.6235 89.6188 59.6249L89.5002 60.0243L89.429 60.2233L89.1792 60.8117C89.1166 60.94 89.0501 61.0663 88.9796 61.1905C88.8032 61.5046 88.6019 61.804 88.3776 62.0859C88.2441 62.2534 88.1019 62.4138 87.9516 62.5665C87.3896 63.1365 86.726 63.5765 85.9978 63.7899C86.5508 63.9129 86.8042 63.7787 87.3076 63.6991C87.698 63.6375 88.1496 63.5865 88.5162 63.4557C88.789 63.0769 88.696 63.1957 88.8054 62.8849C89.0416 62.4413 89.3866 62.0405 89.4722 61.5487C89.796 60.9443 89.8528 59.8259 89.8528 59.5061Z" fill="#FDD406"/>
<path d="M89.8551 59.7805C89.7727 60.9873 89.3997 62.4189 88.5263 63.3425C88.2051 63.6099 87.7943 63.8525 87.3971 63.7935C88.7511 62.6915 89.5741 61.0041 89.8551 59.7805Z" fill="#D3AE3B"/>
<path d="M88.7665 61.8562C88.5661 62.4004 87.8089 63.2056 86.9985 63.8652C86.7685 63.8722 86.6465 63.8854 86.4377 63.8728C86.9311 63.8278 88.0821 62.8562 88.7665 61.8562Z" fill="#D3AE3B"/>
<path d="M90.1904 59.5168H90.194C90.2341 59.5272 90.2725 59.543 90.3082 59.564C90.361 59.597 90.3712 59.6188 90.3724 59.6212C90.3728 59.6224 90.3756 59.6234 90.376 59.6248L90.4944 60.024L90.5658 60.223L90.8156 60.8114L91.0152 61.1904C91.1916 61.5045 91.3929 61.804 91.6172 62.0858C91.7507 62.2533 91.8929 62.4136 92.0432 62.5662C92.6052 63.1362 93.2688 63.6552 93.9968 63.8686C92.5478 63.8742 91.919 63.7426 91.3924 63.0654C90.8658 62.3882 90.6712 62.0918 90.5644 61.678C90.4576 61.2642 90.1592 60.364 90.1904 59.5168Z" fill="#FDD406"/>
<path d="M90.2954 59.7805C90.3778 60.9873 90.7394 62.1817 91.6128 63.1055C91.9342 63.3729 92.3448 63.6155 92.742 63.5565C91.275 62.5561 90.5762 61.0041 90.2954 59.7805Z" fill="#D3AE3B"/>
<path d="M86.9499 59.4087C86.6079 59.4087 86.5003 59.5811 86.5003 59.5811C85.9957 61.5305 84.1353 64.0447 82.2009 64.3433L81.2429 66.0013H91.0459V63.7317C89.2809 63.2575 87.8679 61.4057 87.3963 59.5811C87.3963 59.5811 87.2917 59.4087 86.9499 59.4087Z" fill="#B1EB50"/>
<path d="M86.9499 59.4932C86.7931 59.4932 86.6989 59.5324 86.6423 59.5676C86.5885 59.6008 86.5759 59.6194 86.5747 59.6216L86.5713 59.625C86.2909 60.6896 85.6357 61.766 84.9553 62.623C84.2749 63.48 83.0113 64.3464 82.1469 64.4382L81.2905 65.9168H90.9025V63.7782C90.1917 63.56 89.5425 63.1248 88.9921 62.5662C88.1957 61.7588 87.6053 60.6896 87.3253 59.625C87.3249 59.6236 87.3223 59.623 87.3219 59.6218C87.3207 59.6194 87.3103 59.5972 87.2577 59.5642C87.2017 59.5294 87.1067 59.4932 86.9499 59.4932Z" fill="#B1EB50"/>
<path d="M86.6892 59.7808C86.5658 61.5894 85.5586 63.8716 84.4212 64.2648C84.0502 64.3928 83.4014 64.4376 83.1758 64.4664C85.1654 63.5202 86.3414 61.2958 86.6892 59.7808Z" fill="#FDD406"/>
<path d="M86.9494 59.4932C86.92 59.4932 86.8934 59.4974 86.8682 59.5V61.6602C86.8742 62.1282 87.0344 62.5048 87.2706 62.9484C87.2844 62.9872 87.2978 63.0192 87.3112 63.0464C87.3932 63.2636 87.4538 63.339 87.7676 63.5772C88.765 64.3346 90.0016 64.4478 90.7292 64.3852C90.5012 64.2056 90.2576 64.0422 90.043 63.8918C90.3852 63.8806 90.713 63.8418 90.9456 63.7902C90.2176 63.5768 89.5536 63.1362 88.9916 62.5662C88.8945 62.4658 88.8009 62.3622 88.711 62.2554L88.5926 62.093C88.369 61.813 88.14 61.5036 87.9636 61.1904C87.8932 61.0662 87.8267 60.9399 87.7642 60.8116C87.6408 60.556 87.5335 60.293 87.443 60.024C87.3991 59.8923 87.3597 59.7592 87.3246 59.625C87.3242 59.6238 87.3216 59.623 87.3212 59.6216C87.3208 59.6202 87.3098 59.5972 87.257 59.5642C87.2211 59.543 87.1823 59.5271 87.142 59.5168H87.1386C87.0768 59.5006 87.0132 59.4927 86.9494 59.4932Z" fill="#FDD406"/>
<path d="M87.0894 59.7805C87.1718 60.9873 87.5448 62.4189 88.4182 63.3425C88.7394 63.6099 89.1502 63.8525 89.5474 63.7935C88.1934 62.6915 87.3702 61.0041 87.0894 59.7805Z" fill="#D3AE3B"/>
<path d="M87.9227 61.4495C88.3965 62.6169 89.5967 63.7075 90.8313 64.4403C91.0613 64.4473 91.1297 64.4409 91.3387 64.4283C90.4549 63.9541 89.0309 63.2775 87.9227 61.4495Z" fill="#FDD406"/>
<path d="M83.864 59.4087C83.522 59.4087 83.4144 59.5811 83.4144 59.5811C82.9098 61.5305 81.0494 64.0447 79.115 64.3433L78.157 66.0013H87.96V63.7317C86.195 63.2575 84.782 61.4057 84.3104 59.5811C84.3104 59.5811 84.2058 59.4087 83.864 59.4087Z" fill="#B1EB50"/>
<path d="M83.864 59.4932C83.7072 59.4932 83.613 59.5324 83.5564 59.5676C83.5026 59.6008 83.49 59.6194 83.4888 59.6216L83.4854 59.625C83.205 60.6896 82.5498 61.766 81.8694 62.623C81.189 63.48 79.9254 64.3464 79.061 64.4382L78.2046 65.9168H87.8166V63.7782C87.1058 63.56 86.4566 63.1248 85.9062 62.5662C85.1098 61.7588 84.5194 60.6896 84.2394 59.625C84.239 59.6236 84.2364 59.623 84.236 59.6218C84.2348 59.6194 84.2244 59.5972 84.1718 59.5642C84.1158 59.5294 84.0208 59.4932 83.864 59.4932Z" fill="#B1EB50"/>
<path d="M83.6031 59.7808C83.4797 61.5894 82.4725 63.8716 81.3351 64.2648C80.9641 64.3928 80.3153 64.4376 80.0897 64.4664C82.0793 63.5202 83.2553 61.2958 83.6031 59.7808Z" fill="#FDD406"/>
<path d="M83.8634 59.4932C83.834 59.4932 83.8074 59.4974 83.7822 59.5V61.6602C83.7882 62.1282 83.9484 62.5048 84.1846 62.9484C84.1984 62.9872 84.2118 63.0192 84.2252 63.0464C84.3072 63.2636 84.3678 63.339 84.6816 63.5772C85.679 64.3346 86.9156 64.4478 87.6432 64.3852C87.4152 64.2056 87.1716 64.0422 86.957 63.8918C87.2992 63.8806 87.627 63.8418 87.8596 63.7902C87.1316 63.5768 86.4676 63.1362 85.9056 62.5662C85.8086 62.4658 85.715 62.3622 85.625 62.2554L85.5066 62.093C85.283 61.813 85.054 61.5036 84.8776 61.1904C84.8072 61.0662 84.7407 60.9399 84.6782 60.8116C84.5548 60.556 84.4476 60.293 84.357 60.024C84.3132 59.8923 84.2737 59.7592 84.2386 59.625C84.2382 59.6238 84.2356 59.623 84.2352 59.6216C84.2348 59.6202 84.2238 59.5972 84.171 59.5642C84.1351 59.543 84.0964 59.5271 84.056 59.5168H84.0526C83.9909 59.5006 83.9273 59.4927 83.8634 59.4932Z" fill="#FDD406"/>
<path d="M84.0034 59.7805C84.0858 60.9873 84.4588 62.4189 85.3322 63.3425C85.6534 63.6099 86.0642 63.8525 86.4614 63.7935C85.1074 62.6915 84.2842 61.0041 84.0034 59.7805Z" fill="#D3AE3B"/>
<path d="M84.8368 61.4495C85.3106 62.6169 86.5108 63.7075 87.7454 64.4403C87.9754 64.4473 88.0438 64.4409 88.2528 64.4283C87.369 63.9541 85.945 63.2775 84.8368 61.4495Z" fill="#FDD406"/>
<path d="M100.768 64.9386C101.024 64.9494 101.243 64.9588 101.3 64.9386L102.735 67.3386H77.2659L78.5205 65.167C78.7066 65.1503 78.9073 65.1251 79.1139 65.0992C79.5106 65.0495 79.9289 64.997 80.3077 64.997L80.4629 65.0004C80.4773 65 80.4919 64.9994 80.5065 64.9988C80.5278 64.9979 80.5494 64.997 80.5709 64.997C80.5788 64.997 80.5868 64.9969 80.5947 64.9968C80.6106 64.9967 80.6265 64.9966 80.6421 64.997C80.6584 64.9966 80.6752 64.9967 80.6919 64.9968C80.7003 64.9969 80.7086 64.997 80.7169 64.997C80.7383 64.997 80.7581 64.9979 80.7781 64.9988C80.7922 64.9994 80.8064 65 80.8213 65.0004C80.8324 65.0001 80.8436 64.9997 80.8549 64.9994C80.8949 64.9982 80.9356 64.997 80.9765 64.997C81.3412 64.997 81.6771 65.0455 82.009 65.0935C82.3326 65.1402 82.6525 65.1865 82.9915 65.1866C83.3307 65.1867 83.6507 65.1404 83.9745 65.0935C84.3061 65.0455 84.6417 64.997 85.0065 64.997L85.1625 65.0004C85.1771 65 85.1913 64.9994 85.2054 64.9988C85.2257 64.9979 85.2458 64.997 85.2671 64.997C85.275 64.997 85.283 64.9969 85.2909 64.9968C85.3068 64.9967 85.3226 64.9966 85.3381 64.997C85.3537 64.9966 85.3678 64.9967 85.3826 64.9968C85.3902 64.9969 85.3979 64.997 85.4061 64.997L85.5175 65.0004C85.5239 65.0002 85.5303 65 85.5367 64.9998C85.5819 64.9983 85.6259 64.997 85.6727 64.997C86.0374 64.997 86.3728 65.0456 86.704 65.0935C87.027 65.1403 87.346 65.1866 87.6843 65.1866C88.0226 65.1866 88.3416 65.1403 88.6646 65.0935C88.9958 65.0456 89.3312 64.997 89.6959 64.997C89.8259 64.9997 89.9563 64.9987 90.0876 64.9977C90.1797 64.9971 90.2722 64.9964 90.3655 64.997C90.7301 64.997 91.0661 65.0455 91.398 65.0935C91.7219 65.1403 92.0418 65.1866 92.3805 65.1866C92.7191 65.1866 93.0391 65.1403 93.363 65.0935C93.6949 65.0455 94.031 64.997 94.3957 64.997C94.5239 64.9999 94.6534 64.9988 94.7836 64.9978C94.876 64.9971 94.9687 64.9963 95.0617 64.997C95.4266 64.997 95.7624 65.0455 96.0941 65.0935C96.4178 65.1403 96.7376 65.1866 97.0767 65.1866C97.415 65.1866 97.7348 65.1403 98.0586 65.0935C98.3907 65.0456 98.727 64.997 99.0917 64.997C99.2188 64.9998 99.3475 64.9988 99.4772 64.9977C99.5703 64.997 99.6638 64.9963 99.7577 64.997L100.014 64.9298C100.216 64.9151 100.51 64.9276 100.768 64.9386Z" fill="white"/>
<path d="M101.409 65.0352C101.406 65.0348 101.403 65.0344 101.4 65.0341L101.235 64.7493C101.029 64.7427 100.801 64.718 100.564 64.692C100.253 64.6582 99.9239 64.6223 99.5989 64.6223L99.4797 64.6237C99.2158 64.6315 98.9822 64.6699 98.7219 64.7127C98.3431 64.7751 97.9078 64.8467 97.2397 64.8467C96.7131 64.8467 96.407 64.8022 96.1006 64.7577C95.7511 64.7069 95.4011 64.656 94.7229 64.6709C94.0703 64.6853 93.6255 64.7599 93.2503 64.8228C92.9417 64.8745 92.6802 64.9184 92.3889 64.9143C92.1792 64.9114 91.9269 64.8957 91.6541 64.8786L91.6536 64.8786C91.0869 64.8432 90.4318 64.8024 89.8869 64.8593C89.7993 64.8685 89.7099 64.8787 89.6193 64.8896L89.6011 64.8893L89.5824 64.8889C89.2123 64.8889 88.8717 64.9378 88.5354 64.986C88.2434 65.0279 87.9545 65.0694 87.6524 65.0779C87.3499 65.0694 87.0608 65.0279 86.7686 64.986C86.4325 64.9377 86.0921 64.8889 85.7222 64.8889C85.5815 64.887 85.4418 64.8882 85.3026 64.8894H85.3024C85.1436 64.8908 84.9855 64.8921 84.8274 64.8889C84.4574 64.8889 84.1167 64.9377 83.7801 64.986C83.4872 65.0279 83.1973 65.0694 82.8942 65.0779C82.5916 65.0694 82.302 65.0279 82.0092 64.986C81.6722 64.9378 81.331 64.8889 80.961 64.8889C80.8207 64.887 80.6803 64.8882 80.5403 64.8894H80.5401C80.3803 64.8908 80.2209 64.8921 80.0628 64.8889C79.6928 64.8889 79.3521 64.9378 79.0157 64.986C78.8726 65.0065 78.7302 65.027 78.5867 65.0434L78.5013 65.1915H78.5198C78.8899 65.1915 79.2295 65.1427 79.565 65.0945C79.8562 65.0526 80.1444 65.0112 80.4466 65.0025C80.7491 65.0111 81.0386 65.0525 81.3313 65.0944C81.6683 65.1427 82.0095 65.1915 82.3798 65.1915H83.2746C83.6445 65.1915 83.9857 65.1427 84.3226 65.0945C84.6155 65.0525 84.9052 65.0111 85.2078 65.0025C85.3342 65.0061 85.4585 65.0154 85.5819 65.0281C85.4261 65.0297 85.2693 65.037 85.1111 65.0527C84.8401 65.0796 84.617 65.1217 84.4028 65.1658C84.19 65.1844 83.9843 65.2139 83.7802 65.2431C83.4872 65.2851 83.1973 65.3266 82.8942 65.3351C82.5916 65.3266 82.302 65.2851 82.0092 65.2432C81.6722 65.195 81.331 65.1461 80.961 65.1461C80.8207 65.1442 80.6803 65.1454 80.5403 65.1466H80.5401C80.3803 65.148 80.2209 65.1493 80.0628 65.1461C79.6928 65.1461 79.3521 65.195 79.0157 65.2432C78.8203 65.2712 78.6263 65.2991 78.4288 65.317L78.3528 65.4487H78.5198C78.5505 65.4487 78.5811 65.4484 78.6115 65.4477C78.5141 65.4665 78.4206 65.4841 78.3321 65.4993L78.2822 65.5861C78.2792 65.5863 78.2761 65.5864 78.2731 65.5866L78.2039 65.7065H78.2128L78.1635 65.7921C78.2974 65.7766 78.5035 65.7487 78.7385 65.7169C78.822 65.7056 78.9091 65.6938 78.9979 65.6819C79.1912 65.6632 79.3788 65.6362 79.565 65.6095L79.6079 65.6033C79.9005 65.5679 80.1636 65.5409 80.3239 65.5367C80.4359 65.5338 80.6166 65.5378 80.8394 65.5451C81.0043 65.5626 81.1673 65.5859 81.3313 65.6094C81.6683 65.6577 82.0095 65.7065 82.3798 65.7065H83.2746C83.6445 65.7065 83.9857 65.6577 84.3226 65.6095C84.6155 65.5675 84.9052 65.5261 85.2078 65.5175C85.5106 65.5261 85.8012 65.5675 86.095 65.6095C86.433 65.6577 86.7753 65.7065 87.1452 65.7065H88.0392C88.4091 65.7065 88.7498 65.6577 89.0861 65.6094C89.3783 65.5675 89.6673 65.5261 89.9696 65.5175C90.2721 65.5261 90.561 65.5675 90.8531 65.6095C91.1891 65.6577 91.5294 65.7065 91.8994 65.7065H92.7974C93.1673 65.7065 93.5083 65.6577 93.8452 65.6095C94.1381 65.5676 94.4278 65.5261 94.7308 65.5175C95.0337 65.5261 95.3235 65.5675 95.6164 65.6095C95.9534 65.6577 96.2946 65.7065 96.6648 65.7065H97.5588C97.9286 65.7065 98.2691 65.6577 98.6054 65.6094C98.8976 65.5675 99.1867 65.5261 99.489 65.5175C99.7915 65.5261 100.081 65.5675 100.374 65.6095C100.711 65.6577 101.052 65.7065 101.422 65.7065H101.796L101.724 65.5821C101.496 65.5651 101.273 65.5332 101.049 65.501C100.713 65.4527 100.372 65.4039 100.003 65.4039C99.8615 65.402 99.7212 65.4032 99.5816 65.4044C99.4223 65.4058 99.2636 65.4071 99.1046 65.4039C98.7345 65.4039 98.3942 65.4528 98.0581 65.501C97.766 65.5429 97.4772 65.5844 97.1748 65.5929C96.8717 65.5844 96.5818 65.5429 96.2889 65.501C95.9523 65.4527 95.6115 65.4039 95.2416 65.4039C95.1018 65.402 94.962 65.4032 94.8225 65.4044C94.6634 65.4058 94.5047 65.4071 94.347 65.4039C93.9769 65.4039 93.6357 65.4528 93.2987 65.501C93.0058 65.5429 92.7162 65.5844 92.4136 65.5929C92.111 65.5844 91.8213 65.5429 91.5284 65.501C91.1915 65.4527 90.8503 65.4039 90.4804 65.4039C90.3401 65.402 90.1998 65.4032 90.06 65.4044H90.0597C89.9001 65.4058 89.7409 65.4071 89.5824 65.4039C89.2123 65.4039 88.8717 65.4528 88.5354 65.501C88.2434 65.5429 87.9545 65.5844 87.6524 65.5929C87.3499 65.5844 87.0608 65.5429 86.7686 65.501C86.4324 65.4527 86.0921 65.4039 85.7222 65.4039C85.5814 65.402 85.4416 65.4032 85.3023 65.4044C85.1436 65.4058 84.9855 65.4071 84.8274 65.4039L84.8129 65.4039C84.999 65.3819 85.2213 65.3673 85.5145 65.3673C85.854 65.3673 86.1561 65.3832 86.4561 65.4008C86.6784 65.4283 86.906 65.4487 87.1452 65.4487H88.0392C88.4092 65.4487 88.7497 65.3999 89.0861 65.3516C89.3783 65.3097 89.6673 65.2683 89.9696 65.2597C90.2721 65.2683 90.561 65.3097 90.8531 65.3517C91.1891 65.3999 91.5294 65.4487 91.8994 65.4487H92.7974C93.1673 65.4487 93.5083 65.3999 93.8452 65.3517C94.1381 65.3098 94.4278 65.2683 94.7308 65.2597C95.0337 65.2683 95.3235 65.3097 95.6164 65.3517C95.9534 65.3999 96.2946 65.4487 96.6648 65.4487H97.5588C97.9286 65.4487 98.2691 65.3999 98.6054 65.3516C98.8976 65.3097 99.1867 65.2683 99.489 65.2597C99.7915 65.2683 100.081 65.3097 100.374 65.3517C100.711 65.3999 101.052 65.4487 101.422 65.4487H101.648L101.568 65.3104C101.394 65.2926 101.222 65.268 101.049 65.2432C100.713 65.1949 100.372 65.1461 100.003 65.1461C99.8615 65.1442 99.7212 65.1454 99.5816 65.1466C99.4223 65.148 99.2636 65.1493 99.1046 65.1461C98.7345 65.1461 98.3942 65.195 98.0581 65.2432C97.766 65.2851 97.4772 65.3266 97.1748 65.3351C96.8717 65.3266 96.5818 65.2851 96.2889 65.2432C95.9523 65.1949 95.6115 65.1461 95.2416 65.1461C95.1018 65.1442 94.962 65.1454 94.8225 65.1466C94.6634 65.148 94.5047 65.1493 94.347 65.1461C93.9769 65.1461 93.6357 65.195 93.2987 65.2432C93.0058 65.2851 92.7162 65.3266 92.4136 65.3351C92.111 65.3266 91.8213 65.2851 91.5284 65.2432C91.1915 65.1949 90.8503 65.1461 90.4804 65.1461C90.3869 65.1449 90.2935 65.145 90.2003 65.1455C90.6562 65.1216 91.2258 65.1598 91.7378 65.1942C91.9238 65.2066 92.1021 65.2186 92.2647 65.2269C92.5807 65.2434 92.8433 65.2162 93.1066 65.1808C93.361 65.1638 93.6041 65.129 93.8452 65.0945L93.8829 65.0891C93.9362 65.0856 93.991 65.0828 94.0475 65.0809L94.9423 65.0513C95.0759 65.0469 95.2058 65.0489 95.3331 65.0551C95.4275 65.0674 95.5218 65.0809 95.6164 65.0945C95.9534 65.1427 96.2946 65.1915 96.6648 65.1915H97.5588C97.9286 65.1915 98.2691 65.1427 98.6054 65.0944C98.8976 65.0525 99.1867 65.0111 99.489 65.0025C99.7915 65.0111 100.081 65.0525 100.374 65.0944C100.711 65.1427 101.052 65.1915 101.422 65.1915H101.499L101.409 65.0352Z" fill="#021455"/>
<path d="M101.878 65.8484C101.595 65.8367 101.324 65.7977 101.049 65.7583C100.713 65.7101 100.372 65.6613 100.003 65.6613C99.8615 65.6594 99.7214 65.6606 99.5817 65.6618C99.4225 65.6632 99.2636 65.6645 99.1046 65.6613C98.7345 65.6613 98.3942 65.7101 98.0581 65.7584C97.766 65.8003 97.4772 65.8417 97.1748 65.8503C96.8717 65.8418 96.5819 65.8003 96.2889 65.7583C95.9523 65.7101 95.6115 65.6613 95.2416 65.6613C95.1018 65.6594 94.962 65.6606 94.8225 65.6618C94.6634 65.6632 94.5047 65.6645 94.347 65.6613C93.9769 65.6613 93.6357 65.7101 93.2987 65.7584C93.0058 65.8003 92.7162 65.8417 92.4136 65.8503C92.111 65.8417 91.8213 65.8003 91.5285 65.7584C91.1915 65.7101 90.8503 65.6613 90.4804 65.6613C90.3401 65.6594 90.2 65.6606 90.0601 65.6618H90.0597C89.9001 65.6632 89.7409 65.6645 89.5824 65.6613C89.2123 65.6613 88.8717 65.7102 88.5354 65.7584C88.2434 65.8003 87.9545 65.8418 87.6524 65.8503C87.3499 65.8417 87.0608 65.8003 86.7686 65.7584C86.4325 65.7101 86.0921 65.6613 85.7222 65.6613C85.5815 65.6594 85.4417 65.6606 85.3025 65.6618C85.1438 65.6632 84.9855 65.6645 84.8274 65.6613C84.4574 65.6613 84.1167 65.7101 83.7801 65.7583C83.4872 65.8003 83.1973 65.8418 82.8942 65.8503C82.5916 65.8417 82.302 65.8003 82.0092 65.7584C81.6722 65.7101 81.331 65.6613 80.961 65.6613C80.8207 65.6594 80.6803 65.6606 80.5403 65.6618H80.5401C80.3803 65.6632 80.2209 65.6645 80.0628 65.6613C79.6928 65.6613 79.3521 65.7102 79.0157 65.7584C78.7235 65.8003 78.4345 65.8417 78.1324 65.8503C78.1286 65.8502 78.1248 65.8501 78.1211 65.85L78.0553 65.9639H78.5198C78.8899 65.9639 79.2295 65.9151 79.565 65.8668C79.8562 65.825 80.1444 65.7835 80.4466 65.7749C80.7491 65.7835 81.0386 65.8249 81.3313 65.8668C81.6683 65.9151 82.0095 65.9639 82.3798 65.9639H83.2746C83.6445 65.9639 83.9857 65.9151 84.3226 65.8668C84.6155 65.8249 84.9052 65.7835 85.2078 65.7749C85.5106 65.7835 85.8012 65.8249 86.095 65.8668C86.433 65.9151 86.7753 65.9639 87.1452 65.9639H88.0392C88.4091 65.9639 88.7497 65.9151 89.086 65.8668C89.3783 65.8249 89.6673 65.7835 89.9696 65.7749C90.2721 65.7835 90.561 65.8249 90.8531 65.8668C91.1891 65.9151 91.5294 65.9639 91.8994 65.9639H92.7974C93.1673 65.9639 93.5083 65.9151 93.8452 65.8669C94.1381 65.8249 94.4278 65.7835 94.7308 65.7749C95.0337 65.7835 95.3235 65.8249 95.6164 65.8669C95.9534 65.9151 96.2946 65.9639 96.6648 65.9639H97.5588C97.9286 65.9639 98.2691 65.9151 98.6054 65.8668C98.8976 65.8249 99.1867 65.7835 99.489 65.7749C99.7915 65.7835 100.081 65.8249 100.374 65.8668C100.711 65.9151 101.052 65.9639 101.422 65.9639H101.945L101.878 65.8484Z" fill="#021455"/>
<path d="M102.023 66.099L101.933 66.1075C101.63 66.0989 101.341 66.0575 101.049 66.0156C100.713 65.9673 100.372 65.9185 100.003 65.9185C99.8615 65.9166 99.7212 65.9178 99.5816 65.919C99.4223 65.9204 99.2636 65.9217 99.1046 65.9185C98.7345 65.9185 98.3942 65.9673 98.0581 66.0156C97.766 66.0575 97.4772 66.099 97.1748 66.1075C96.8717 66.099 96.5818 66.0575 96.2889 66.0155C95.9523 65.9673 95.6115 65.9185 95.2416 65.9185C95.1018 65.9166 94.962 65.9178 94.8225 65.919C94.6634 65.9204 94.5047 65.9217 94.347 65.9185C93.9769 65.9185 93.6357 65.9673 93.2987 66.0156C93.0058 66.0575 92.7162 66.099 92.4136 66.1075C92.111 66.099 91.8213 66.0575 91.5284 66.0156C91.1915 65.9673 90.8503 65.9185 90.4804 65.9185C90.3401 65.9166 90.1998 65.9178 90.06 65.919H90.0597C89.9001 65.9204 89.7409 65.9217 89.5824 65.9185C89.2123 65.9185 88.8717 65.9674 88.5354 66.0156C88.2434 66.0575 87.9545 66.099 87.6524 66.1075C87.3499 66.0989 87.0608 66.0575 86.7686 66.0156C86.4324 65.9673 86.0921 65.9185 85.7222 65.9185C85.5815 65.9166 85.4416 65.9178 85.3023 65.919C85.1436 65.9204 84.9855 65.9217 84.8274 65.9185C84.4574 65.9185 84.1167 65.9673 83.7801 66.0155C83.4872 66.0575 83.1973 66.099 82.8942 66.1075C82.5916 66.099 82.302 66.0575 82.0092 66.0156C81.6722 65.9673 81.331 65.9185 80.961 65.9185C80.8207 65.9166 80.6803 65.9178 80.5403 65.919H80.5401C80.3803 65.9204 80.2209 65.9217 80.0628 65.9185C79.6928 65.9185 79.3521 65.9674 79.0157 66.0156C78.7235 66.0575 78.4345 66.099 78.1324 66.1075C78.08 66.1061 78.0281 66.1036 77.9766 66.1001L77.9068 66.2211H78.5198C78.8899 66.2211 79.2295 66.1723 79.565 66.124C79.8563 66.0822 80.1444 66.0408 80.4466 66.0321C80.7491 66.0407 81.0386 66.0821 81.3313 66.124C81.6683 66.1723 82.0095 66.2211 82.3798 66.2211H83.2746C83.6445 66.2211 83.9857 66.1723 84.3226 66.124C84.6155 66.0821 84.9052 66.0407 85.2078 66.0321C85.5106 66.0407 85.8012 66.0821 86.095 66.124C86.433 66.1723 86.7753 66.2211 87.1452 66.2211H88.0392C88.4091 66.2211 88.7498 66.1723 89.0861 66.124C89.3783 66.0821 89.6673 66.0407 89.9696 66.0321C90.2721 66.0407 90.561 66.0821 90.8531 66.124C91.1891 66.1723 91.5294 66.2211 91.8994 66.2211H92.7974C93.1673 66.2211 93.5083 66.1723 93.8452 66.1241C94.1381 66.0821 94.4278 66.0407 94.7308 66.0321C95.0337 66.0407 95.3235 66.0821 95.6164 66.1241C95.9534 66.1723 96.2946 66.2211 96.6648 66.2211H97.5588C97.9286 66.2211 98.2691 66.1723 98.6054 66.124C98.8976 66.0821 99.1867 66.0407 99.489 66.0321C99.7915 66.0407 100.081 66.0821 100.374 66.124C100.711 66.1723 101.052 66.2211 101.422 66.2211H102.093L102.023 66.099Z" fill="#021455"/>
<path d="M102.164 66.3434L101.933 66.3653C101.63 66.3567 101.341 66.3153 101.049 66.2734C100.713 66.2251 100.372 66.1763 100.003 66.1763C99.8615 66.1744 99.7214 66.1756 99.5817 66.1768C99.4225 66.1782 99.2636 66.1795 99.1046 66.1763C98.7345 66.1763 98.3942 66.2251 98.0581 66.2734C97.766 66.3153 97.4772 66.3568 97.1748 66.3653C96.8717 66.3568 96.5819 66.3153 96.2889 66.2733C95.9523 66.2251 95.6115 66.1763 95.2416 66.1763C95.1018 66.1744 94.962 66.1756 94.8225 66.1768C94.6634 66.1782 94.5047 66.1795 94.347 66.1763C93.9769 66.1763 93.6357 66.2251 93.2987 66.2734C93.0058 66.3153 92.7162 66.3568 92.4136 66.3653C92.111 66.3568 91.8213 66.3153 91.5285 66.2734C91.1915 66.2251 90.8503 66.1763 90.4804 66.1763C90.3402 66.1744 90.2 66.1756 90.0603 66.1768H90.0597C89.9001 66.1782 89.7409 66.1795 89.5824 66.1763C89.2123 66.1763 88.8717 66.2252 88.5354 66.2734C88.2434 66.3153 87.9545 66.3568 87.6524 66.3653C87.3499 66.3567 87.0608 66.3153 86.7686 66.2734C86.4325 66.2251 86.0921 66.1763 85.7222 66.1763C85.5815 66.1744 85.4418 66.1756 85.3026 66.1768C85.1439 66.1782 84.9855 66.1795 84.8274 66.1763C84.4574 66.1763 84.1167 66.2251 83.7801 66.2733C83.4872 66.3153 83.1973 66.3568 82.8942 66.3653C82.5916 66.3568 82.302 66.3153 82.0092 66.2734C81.6722 66.2251 81.331 66.1763 80.961 66.1763C80.8207 66.1744 80.6803 66.1756 80.5403 66.1768H80.5401C80.3803 66.1782 80.2209 66.1795 80.0628 66.1763C79.6928 66.1763 79.3521 66.2252 79.0157 66.2734C78.7235 66.3153 78.4345 66.3568 78.1324 66.3653C78.0316 66.3626 77.9326 66.3557 77.8345 66.3464L77.758 66.4789H78.5198C78.8899 66.4789 79.2295 66.4301 79.565 66.3818C79.8562 66.34 80.1444 66.2986 80.4466 66.2899C80.7491 66.2985 81.0386 66.3399 81.3313 66.3818C81.6683 66.4301 82.0095 66.4789 82.3798 66.4789H83.2746C83.6445 66.4789 83.9857 66.4301 84.3226 66.3818C84.6155 66.3399 84.9052 66.2985 85.2078 66.2899C85.5106 66.2985 85.8012 66.3399 86.095 66.3818C86.433 66.4301 86.7753 66.4789 87.1452 66.4789H88.0392C88.4091 66.4789 88.7497 66.4301 89.086 66.3818C89.3783 66.3399 89.6673 66.2985 89.9696 66.2899C90.2721 66.2985 90.561 66.3399 90.8531 66.3818C91.1891 66.4301 91.5294 66.4789 91.8994 66.4789H92.7974C93.1673 66.4789 93.5083 66.4301 93.8452 66.3819C94.1381 66.3399 94.4278 66.2985 94.7308 66.2899C95.0337 66.2985 95.3235 66.3399 95.6164 66.3819C95.9534 66.4301 96.2946 66.4789 96.6648 66.4789H97.5588C97.9286 66.4789 98.2691 66.4301 98.6054 66.3818C98.8976 66.3399 99.1867 66.2985 99.489 66.2899C99.7915 66.2985 100.081 66.3399 100.374 66.3818C100.711 66.4301 101.052 66.4789 101.422 66.4789H102.242L102.164 66.3434Z" fill="#021455"/>
<path d="M102.306 66.5885L101.933 66.6237C101.63 66.6152 101.341 66.5737 101.049 66.5318C100.713 66.4835 100.372 66.4347 100.003 66.4347C99.8615 66.4328 99.7212 66.434 99.5816 66.4352C99.4223 66.4366 99.2636 66.4379 99.1046 66.4347C98.7345 66.4347 98.3942 66.4836 98.0581 66.5318C97.766 66.5737 97.4772 66.6152 97.1748 66.6237C96.8717 66.6152 96.5818 66.5737 96.2889 66.5318C95.9523 66.4835 95.6115 66.4347 95.2416 66.4347C95.1018 66.4328 94.962 66.434 94.8225 66.4352C94.6634 66.4366 94.5047 66.4379 94.347 66.4347C93.9769 66.4347 93.6357 66.4836 93.2987 66.5318C93.0058 66.5737 92.7162 66.6152 92.4136 66.6237C92.111 66.6152 91.8213 66.5737 91.5284 66.5318C91.1915 66.4835 90.8503 66.4347 90.4804 66.4347C90.3401 66.4328 90.1998 66.434 90.06 66.4352H90.0597C89.9001 66.4366 89.7409 66.4379 89.5824 66.4347C89.2123 66.4347 88.8717 66.4836 88.5354 66.5318C88.2434 66.5737 87.9545 66.6152 87.6524 66.6237C87.3499 66.6152 87.0608 66.5737 86.7686 66.5318C86.4324 66.4835 86.0921 66.4347 85.7222 66.4347C85.5815 66.4328 85.4416 66.434 85.3023 66.4352C85.1436 66.4366 84.9855 66.4379 84.8274 66.4347C84.4574 66.4347 84.1167 66.4835 83.7801 66.5318C83.4872 66.5737 83.1973 66.6152 82.8942 66.6237C82.5916 66.6152 82.302 66.5737 82.0092 66.5318C81.6722 66.4836 81.331 66.4347 80.961 66.4347C80.8207 66.4328 80.6803 66.434 80.5403 66.4352H80.5401C80.3803 66.4366 80.2209 66.4379 80.0628 66.4347C79.6928 66.4347 79.3521 66.4836 79.0157 66.5318C78.7235 66.5737 78.4345 66.6152 78.1324 66.6237C77.9832 66.6196 77.8381 66.6067 77.694 66.5898L77.6091 66.7366L77.625 66.7373H78.5198C78.8899 66.7373 79.2295 66.6885 79.565 66.6403C79.8563 66.5984 80.1444 66.557 80.4466 66.5483C80.7491 66.5569 81.0386 66.5983 81.3313 66.6402C81.6683 66.6885 82.0095 66.7373 82.3798 66.7373H83.2746C83.6445 66.7373 83.9857 66.6885 84.3226 66.6403C84.6155 66.5983 84.9052 66.5569 85.2078 66.5483C85.5106 66.5569 85.8012 66.5983 86.095 66.6403C86.433 66.6885 86.7753 66.7373 87.1452 66.7373H88.0392C88.4091 66.7373 88.7498 66.6885 89.0861 66.6402C89.3783 66.5983 89.6673 66.5569 89.9696 66.5483C90.2721 66.5569 90.561 66.5983 90.8531 66.6403C91.1891 66.6885 91.5294 66.7373 91.8994 66.7373H92.7974C93.1673 66.7373 93.5083 66.6885 93.8452 66.6403C94.1381 66.5984 94.4278 66.5569 94.7308 66.5483C95.0337 66.5569 95.3235 66.5983 95.6164 66.6403C95.9534 66.6885 96.2946 66.7373 96.6648 66.7373H97.5588C97.9286 66.7373 98.2691 66.6885 98.6054 66.6402C98.8976 66.5983 99.1867 66.5569 99.489 66.5483C99.7915 66.5569 100.081 66.5983 100.374 66.6402C100.711 66.6885 101.052 66.7373 101.422 66.7373H102.317L102.39 66.7342L102.306 66.5885Z" fill="#021455"/>
<path d="M102.446 66.8324L101.933 66.8809C101.63 66.8724 101.341 66.8309 101.049 66.789C100.713 66.7407 100.372 66.6919 100.003 66.6919C99.8615 66.69 99.7214 66.6912 99.5817 66.6924C99.4225 66.6938 99.2636 66.6951 99.1046 66.6919C98.7345 66.6919 98.3942 66.7408 98.0581 66.789C97.766 66.8309 97.4772 66.8724 97.1748 66.8809C96.8717 66.8724 96.5819 66.8309 96.2889 66.789C95.9523 66.7407 95.6115 66.6919 95.2416 66.6919C95.1018 66.69 94.962 66.6912 94.8225 66.6924C94.6634 66.6938 94.5047 66.6951 94.347 66.6919C93.9769 66.6919 93.6357 66.7408 93.2987 66.789C93.0058 66.8309 92.7162 66.8724 92.4136 66.8809C92.111 66.8724 91.8213 66.8309 91.5285 66.789C91.1915 66.7408 90.8503 66.6919 90.4804 66.6919C90.3402 66.69 90.2001 66.6912 90.0604 66.6924H90.0597C89.9001 66.6938 89.7409 66.6951 89.5824 66.6919C89.2123 66.6919 88.8717 66.7408 88.5354 66.789C88.2434 66.8309 87.9545 66.8724 87.6524 66.8809C87.3499 66.8724 87.0608 66.8309 86.7686 66.789C86.4325 66.7408 86.0921 66.6919 85.7222 66.6919C85.5816 66.69 85.4419 66.6912 85.3027 66.6924H85.3023C85.1436 66.6938 84.9855 66.6951 84.8274 66.6919C84.4574 66.6919 84.1167 66.7407 83.7801 66.789C83.4872 66.8309 83.1973 66.8724 82.8942 66.8809C82.5916 66.8724 82.302 66.8309 82.0092 66.789C81.6722 66.7408 81.331 66.6919 80.961 66.6919C80.8207 66.69 80.6803 66.6912 80.5403 66.6924H80.5401C80.3803 66.6938 80.2209 66.6951 80.0628 66.6919C79.6928 66.6919 79.3521 66.7408 79.0157 66.789C78.7235 66.8309 78.4345 66.8724 78.1324 66.8809C77.9354 66.8755 77.7454 66.8547 77.5555 66.8296L77.4642 66.9877L77.625 66.9945H78.5198C78.8899 66.9945 79.2295 66.9457 79.565 66.8975C79.8562 66.8556 80.1444 66.8142 80.4466 66.8055C80.7491 66.8141 81.0386 66.8555 81.3313 66.8974C81.6683 66.9457 82.0095 66.9945 82.3798 66.9945H83.2746C83.6445 66.9945 83.9857 66.9457 84.3226 66.8975C84.6155 66.8555 84.9052 66.8141 85.2078 66.8055C85.5106 66.8141 85.8012 66.8555 86.095 66.8975C86.433 66.9457 86.7753 66.9945 87.1452 66.9945H88.0392C88.4091 66.9945 88.7497 66.9457 89.086 66.8974C89.3783 66.8555 89.6673 66.8141 89.9696 66.8055C90.2721 66.8141 90.561 66.8555 90.8531 66.8975C91.1891 66.9457 91.5294 66.9945 91.8994 66.9945H92.7974C93.1673 66.9945 93.5083 66.9457 93.8452 66.8975C94.1381 66.8556 94.4278 66.8141 94.7308 66.8055C95.0337 66.8141 95.3235 66.8555 95.6164 66.8975C95.9534 66.9457 96.2946 66.9945 96.6648 66.9945H97.5588C97.9286 66.9945 98.2691 66.9457 98.6054 66.8974C98.8976 66.8555 99.1867 66.8141 99.489 66.8055C99.7915 66.8141 100.081 66.8555 100.374 66.8974C100.711 66.9457 101.052 66.9945 101.422 66.9945H102.317L102.535 66.9851L102.446 66.8324Z" fill="#021455"/>
<path d="M79.0157 67.0468C79.3521 66.9986 79.6928 66.9497 80.0628 66.9497C80.2209 66.9529 80.3803 66.9516 80.5401 66.9502H80.5403C80.6803 66.949 80.8207 66.9478 80.961 66.9497C81.331 66.9497 81.6722 66.9986 82.0092 67.0468C82.302 67.0887 82.5916 67.1302 82.8942 67.1387C83.1973 67.1302 83.4871 67.0887 83.7801 67.0468C84.1167 66.9985 84.4574 66.9497 84.8274 66.9497C84.9855 66.9529 85.1436 66.9516 85.3023 66.9502H85.3025C85.4418 66.949 85.5815 66.9478 85.7222 66.9497C86.0921 66.9497 86.4324 66.9985 86.7686 67.0468C87.0608 67.0887 87.3499 67.1302 87.6524 67.1387C87.9545 67.1302 88.2434 67.0887 88.5354 67.0468C88.8717 66.9986 89.2123 66.9497 89.5824 66.9497C89.7409 66.9529 89.9001 66.9516 90.0597 66.9502H90.0604C90.2001 66.949 90.3402 66.9478 90.4804 66.9497C90.8503 66.9497 91.1915 66.9986 91.5284 67.0468C91.8213 67.0887 92.111 67.1302 92.4136 67.1387C92.7162 67.1302 93.0058 67.0887 93.2987 67.0468C93.6357 66.9986 93.9769 66.9497 94.347 66.9497C94.5047 66.9529 94.6634 66.9516 94.8225 66.9502C94.962 66.949 95.1018 66.9478 95.2416 66.9497C95.6115 66.9497 95.9523 66.9985 96.2889 67.0468C96.5818 67.0887 96.8717 67.1302 97.1748 67.1387C97.4772 67.1302 97.766 67.0887 98.0581 67.0468C98.3942 66.9986 98.7345 66.9497 99.1046 66.9497C99.2636 66.9529 99.4223 66.9516 99.5816 66.9502C99.7212 66.949 99.8615 66.9478 100.003 66.9497C100.372 66.9497 100.713 66.9985 101.049 67.0468C101.341 67.0887 101.63 67.1302 101.933 67.1387L102.58 67.0775L102.673 67.2369L102.317 67.2523H101.422C101.052 67.2523 100.711 67.2035 100.374 67.1553C100.081 67.1133 99.7915 67.0719 99.489 67.0633C99.1867 67.0719 98.8976 67.1133 98.6054 67.1552C98.2691 67.2035 97.9286 67.2523 97.5588 67.2523H96.6648C96.2946 67.2523 95.9534 67.2035 95.6164 67.1553C95.3235 67.1133 95.0337 67.0719 94.7308 67.0633C94.4278 67.0719 94.1381 67.1134 93.8452 67.1553C93.5083 67.2035 93.1673 67.2523 92.7974 67.2523H91.8994C91.5294 67.2523 91.1891 67.2035 90.8531 67.1553C90.561 67.1133 90.2721 67.0719 89.9696 67.0633C89.6673 67.0719 89.3783 67.1133 89.0861 67.1552C88.7498 67.2035 88.4091 67.2523 88.0392 67.2523H87.1452C86.7753 67.2523 86.433 67.2035 86.095 67.1553C85.8012 67.1133 85.5106 67.0719 85.2078 67.0633C84.9052 67.0719 84.6155 67.1133 84.3226 67.1553C83.9857 67.2035 83.6445 67.2523 83.2746 67.2523H82.3798C82.0095 67.2523 81.6683 67.2035 81.3313 67.1552C81.0386 67.1133 80.7491 67.0719 80.4466 67.0633C80.1444 67.072 79.8563 67.1134 79.565 67.1553C79.2295 67.2035 78.8899 67.2523 78.5198 67.2523H77.625L77.3274 67.2397L77.4254 67.0697C77.659 67.1021 77.8904 67.1321 78.1324 67.1387C78.4345 67.1302 78.7235 67.0887 79.0157 67.0468Z" fill="#021455"/>
<path d="M78.2839 65.7793L78.7693 64.9411L80.5983 64.7111L100.848 64.2659C100.85 64.2659 100.853 64.2657 100.855 64.2656C100.859 64.2653 100.862 64.2651 100.866 64.2651L101.234 64.9157C101.066 64.9117 100.916 64.9032 100.769 64.8948C100.43 64.8755 100.1 64.8567 99.5725 64.8939C99.2898 64.9139 99.011 64.9566 98.7285 65C98.2549 65.0726 97.7707 65.1468 97.2393 65.1181C96.7127 65.1181 96.4067 65.0737 96.1004 65.0292C95.7509 64.9785 95.401 64.9277 94.7225 64.9427C94.1254 64.9558 93.7896 65.0256 93.48 65.09C93.173 65.1538 92.8919 65.2123 92.4073 65.2047C92.0337 65.1989 91.6944 65.1742 91.3726 65.1508C90.856 65.1133 90.3842 65.0789 89.8867 65.1309C89.5645 65.1646 89.2183 65.2194 88.8785 65.2731C88.3669 65.3539 87.8701 65.4325 87.4921 65.4333C87.1773 65.4319 86.8624 65.4007 86.5452 65.3694C86.0747 65.3229 85.5991 65.2758 85.1109 65.3243C84.79 65.3562 84.5362 65.4093 84.2849 65.4618C83.8963 65.5431 83.5137 65.623 82.8983 65.6213C82.4477 65.62 81.9938 65.5709 81.5591 65.5238C81.1534 65.4799 80.7644 65.4378 80.4107 65.4381C79.9157 65.4386 79.3489 65.5598 78.8586 65.6646C78.6492 65.7094 78.4538 65.7512 78.2839 65.7793Z" fill="#B1EB50"/>
<path d="M100.783 64.9845L100.014 64.9297C100.216 64.9152 100.51 64.9276 100.768 64.9385C101.024 64.9492 101.243 64.9585 101.3 64.9384L101.374 65.0346C101.177 65.0211 100.98 65.0044 100.783 64.9845Z" fill="white"/>
<path d="M90 44.9749L83.5716 56.1121L77 67.4919L89.8596 67.4905L103 67.4919L96.5694 56.3553L90 44.9749ZM90 45.5753L96.31 56.5057L102.48 67.1912L89.8596 67.1905L77.5194 67.1912L83.8314 56.2623L90 45.5753Z" fill="#D3AE3B"/>
</g>
<defs>
<clipPath id="clip0_909_253420">
<rect width="180" height="120" fill="white"/>
</clipPath>
</defs>
</svg>
