<svg width="180" height="120" viewBox="0 0 180 120" fill="none" xmlns="http://www.w3.org/2000/svg">
<g clip-path="url(#clip0_324_33699)">
<path d="M0 0H180V120H0V0Z" fill="#FDD406"/>
<rect width="100" height="50" fill="#021455"/>
<path d="M0 5.59018L38.8196 25L0 44.4098V50H11.1803L50 30.5902L88.8196 50H100V44.4098L61.1803 25L100 5.59016V0H88.8196L50 19.4098L11.1803 0H0V5.59018Z" fill="white"/>
<path d="M0 3.72678L42.5464 25H50L0 50H7.45355L50 28.7268L50 25L100 50V46.2732L57.4536 25H50L100 0H92.5464L50 21.2732L50 25L0 0V3.72678Z" fill="#D91C16"/>
<path d="M0 16.6667V33.3333H41.6667V50H58.3333V33.3333H100V16.6667H58.3333V0H41.6667V16.6667H0Z" fill="white"/>
<path d="M0 20V30H45V50H55V30H100V20H55V0H45V20H0Z" fill="#D91C16"/>
<path d="M49.9998 35.2079C55.6374 35.2079 60.2076 30.6377 60.2076 25C60.2076 19.3624 55.6374 14.7922 49.9998 14.7922C44.3622 14.7922 39.792 19.3624 39.792 25C39.792 30.6377 44.3622 35.2079 49.9998 35.2079Z" fill="#021455"/>
<path d="M51.3474 5.72598L50.0003 1.58008L48.6532 5.72598H44.2939L47.8207 8.28828L46.4736 12.4342L50.0003 9.87187L53.527 12.4342L52.1799 8.28828L55.7066 5.72598H51.3474Z" fill="#FDD406"/>
<path d="M50.0002 14.7923L52.292 21.8457H59.7084L53.7084 26.205L56.0002 33.2584L50.0002 28.8991L44.0002 33.2584L46.292 26.205L40.292 21.8457H47.7084L50.0002 14.7923Z" fill="#FDD406"/>
<path d="M17.0003 19.5801L18.3474 23.726H22.7066L19.1799 26.2883L20.527 30.4342L17.0003 27.8719L13.4736 30.4342L14.8207 26.2883L11.2939 23.726H15.6532L17.0003 19.5801Z" fill="#FDD406"/>
<path d="M84.3474 23.726L83.0003 19.5801L81.6532 23.726H77.2939L80.8206 26.2883L79.4736 30.4342L83.0003 27.8719L86.527 30.4342L85.1799 26.2883L88.7066 23.726H84.3474Z" fill="#FDD406"/>
<path d="M50.0003 37.5801L51.3474 41.726H55.7066L52.1799 44.2883L53.527 48.4342L50.0003 45.8719L46.4736 48.4342L47.8207 44.2883L44.2939 41.726H48.6532L50.0003 37.5801Z" fill="#FDD406"/>
</g>
<defs>
<clipPath id="clip0_324_33699">
<rect width="180" height="120" fill="white"/>
</clipPath>
</defs>
</svg>
