<svg width="180" height="120" viewBox="0 0 180 120" fill="none" xmlns="http://www.w3.org/2000/svg">
<g clip-path="url(#clip0_324_33699)">
<path d="M0 0H180V120H0V0Z" fill="#FDD406"/>
<g clip-path="url(#clip1_324_33699)">
<mask id="mask0_324_33699" style="mask-type:luminance" maskUnits="userSpaceOnUse" x="0" y="0" width="100" height="50">
<path d="M100 0H0V50H100V0Z" fill="white"/>
</mask>
<g mask="url(#mask0_324_33699)">
<path d="M0 0V50H100V0H0Z" fill="#021455"/>
<path d="M11.1804 0L50 19.4096L88.8196 0H100V5.59L61.1804 25L100 44.4096V50H88.8196L50 30.59L11.1804 50H0V44.4096L38.8196 25L0 5.59V0H11.1804Z" fill="white"/>
<path d="M50 28.7268L7.45363 50H0L50 25V28.7268Z" fill="#D91C16"/>
<path d="M57.4538 25L100 46.2733V50L50 25H57.4538Z" fill="#D91C16"/>
<path d="M50 25V21.2732L92.5462 0H100L50 25Z" fill="#D91C16"/>
<path d="M50 25H42.5462L0 3.72681V0L50 25Z" fill="#D91C16"/>
<path d="M58.3333 0V16.6667H100V33.3333H58.3333V50H41.6667V33.3333H0V16.6667H41.6667V0H58.3333Z" fill="white"/>
<path d="M55 0V20H100V30H55V50H45V30H0V20H45V0H55Z" fill="#D91C16"/>
</g>
</g>
<path fill-rule="evenodd" clip-rule="evenodd" d="M19.8952 20.5801L21.006 23.9987H24.6005L21.6925 26.1115L22.8033 29.5301L19.8952 27.4173L16.9872 29.5301L18.098 26.1115L15.1899 23.9987H18.7845L19.8952 20.5801Z" fill="#FEDD00"/>
<path fill-rule="evenodd" clip-rule="evenodd" d="M49.9989 38.13L51.1096 41.5484H54.7039L51.7961 43.6611L52.9068 47.0794L49.9989 44.9668L47.0911 47.0794L48.2018 43.6611L45.2939 41.5484H48.8882L49.9989 38.13Z" fill="#FEDD00"/>
<path fill-rule="evenodd" clip-rule="evenodd" d="M81.2161 23.9987L80.1053 20.5801L78.9945 23.9987H75.4L78.3081 26.1115L77.1973 29.5301L80.1053 27.4173L83.0133 29.5301L81.9026 26.1115L84.8106 23.9987H81.2161Z" fill="#FEDD00"/>
<path fill-rule="evenodd" clip-rule="evenodd" d="M49.9989 2.92004L51.1096 6.33843H54.7039L51.7961 8.4511L52.9068 11.8695L49.9989 9.75681L47.0911 11.8695L48.2018 8.4511L45.2939 6.33843H48.8882L49.9989 2.92004Z" fill="#FEDD00"/>
<path d="M49.9998 35.2079C55.6374 35.2079 60.2076 30.6377 60.2076 25C60.2076 19.3624 55.6374 14.7922 49.9998 14.7922C44.3622 14.7922 39.792 19.3624 39.792 25C39.792 30.6377 44.3622 35.2079 49.9998 35.2079Z" fill="#012169"/>
<path fill-rule="evenodd" clip-rule="evenodd" d="M49.9992 14.792L52.291 21.8454H59.7074L53.7074 26.2047L55.9992 33.2581L49.9992 28.8988L43.9992 33.2581L46.291 26.2047L40.291 21.8454H47.7074L49.9992 14.792Z" fill="#FEDD00"/>
</g>
<defs>
<clipPath id="clip0_324_33699">
<rect width="180" height="120" fill="white"/>
</clipPath>
<clipPath id="clip1_324_33699">
<rect width="100" height="50" fill="white"/>
</clipPath>
</defs>
</svg>
