<svg width="180" height="120" viewBox="0 0 180 120" fill="none" xmlns="http://www.w3.org/2000/svg">
<g clip-path="url(#clip0_307_47921)">
<path d="M180 0H0V120H180V0Z" fill="#021455"/>
<path d="M139.621 21.0498L137.477 14.4528L135.334 21.0498H128.397L134.009 25.1272L131.865 31.724L137.477 27.6468L143.089 31.724L140.945 25.1272L146.557 21.0498H139.621Z" fill="white"/>
<path d="M164.33 45.6627L169.324 42.0344H163.152L161.245 36.1639L159.337 42.0344H153.164L158.158 45.6627L156.251 51.533L161.244 47.905L166.238 51.533L164.33 45.6627Z" fill="white"/>
<path d="M118.83 48.9466L113.218 53.024L115.361 59.6208L109.749 55.5437L104.138 59.6208L106.281 53.0234L100.67 48.9466H107.606L109.75 42.3496L111.893 48.9466H118.83Z" fill="white"/>
<path d="M139.856 92.7248L137.477 85.4012L135.097 92.7248H127.398L133.627 97.2507L131.247 104.575L137.477 100.048L143.707 104.575L141.328 97.2507L147.557 92.7248H139.856Z" fill="white"/>
<path d="M138.893 22.0505L137.477 17.6913L136.06 22.0505H131.477L135.185 24.7447L133.769 29.1039L137.476 26.41L141.184 29.1039L139.768 24.7447L143.476 22.0505L138.893 22.0505Z" fill="#D91C16"/>
<path d="M163.154 45.2801L166.244 43.035H162.424L161.244 39.4023L160.063 43.035H156.244L159.334 45.2801L158.154 48.9129L161.244 46.6678L164.334 48.9129L163.154 45.2801Z" fill="#D91C16"/>
<path d="M103.75 49.9472L107.458 52.6415L106.042 57.0007L109.75 54.3065L113.459 57.0007L112.042 52.6409L115.75 49.9472H111.166L109.75 45.588L108.334 49.9472H103.75Z" fill="#D91C16"/>
<path d="M139.13 93.7256L137.478 88.6399L135.825 93.7256H130.478L134.804 96.869L133.152 101.955L137.478 98.8116L141.804 101.955L140.151 96.869L144.478 93.7256H139.13Z" fill="#D91C16"/>
<g clip-path="url(#clip1_307_47921)">
<path d="M0 0H90V60H0V0Z" fill="#021455"/>
<path d="M90 7.21094L55.8164 30L90 52.7891V60H79.1836L45 37.2109L10.8164 60H0V52.7891L34.1836 30L0 7.21094V0H10.8164L45 22.7891L79.1836 0H90V7.21094Z" fill="white"/>
<path fill-rule="evenodd" clip-rule="evenodd" d="M37.7891 30L0 4.80713V0L45 29.9998L37.7891 30Z" fill="#D91C16"/>
<path fill-rule="evenodd" clip-rule="evenodd" d="M45 34.8071L7.21094 60H0L45 29.9998V34.8071Z" fill="#D91C16"/>
<path fill-rule="evenodd" clip-rule="evenodd" d="M52.2109 30L90 55.1924V60L45 29.9998L52.2109 30Z" fill="#D91C16"/>
<path d="M45 25.1924L82.7891 0H90L45 29.9998V25.1924Z" fill="#D91C16"/>
<path d="M55 0V20H90V40H55V60H35V40H0V20H35V0H55Z" fill="white"/>
<path d="M51 0V24H90V36H51V60H39V36H0V24H39V0H51Z" fill="#D91C16"/>
</g>
</g>
<defs>
<clipPath id="clip0_307_47921">
<rect width="180" height="120" fill="white"/>
</clipPath>
<clipPath id="clip1_307_47921">
<rect width="90" height="60" fill="white"/>
</clipPath>
</defs>
</svg>
