<svg width="180" height="120" viewBox="0 0 180 120" fill="none" xmlns="http://www.w3.org/2000/svg">
<g clip-path="url(#clip0_909_253766)">
<path d="M0 120V0H180V120H0Z" fill="white"/>
<path d="M0 60H90V120H0V60Z" fill="#021455"/>
<path d="M90 0H180V60H90V0Z" fill="#D91C16"/>
<path d="M48.4954 26.4585L44.7725 15L41.0496 26.4585H29L38.7484 33.5413L35.0255 45L44.7725 37.9182L54.5195 45L50.7966 33.5413L60.545 26.4585H48.4954Z" fill="#021455"/>
<path d="M138.495 86.4585L134.772 75L131.05 86.4585H119L128.748 93.5413L125.025 105L134.772 97.9182L144.52 105L140.797 93.5413L150.545 86.4585H138.495Z" fill="#D91C16"/>
</g>
<defs>
<clipPath id="clip0_909_253766">
<rect width="180" height="120" fill="white"/>
</clipPath>
</defs>
</svg>
