<svg width="180" height="120" viewBox="0 0 180 120" fill="none" xmlns="http://www.w3.org/2000/svg">
<path d="M0 0H180V120H0V0Z" fill="#D91C16"/>
<path d="M0 30H180V90H0V30Z" fill="white"/>
<path d="M77.7764 36.7767L82.9473 47.2276C82.9473 47.2276 83.0121 36.4348 83.9872 35.8565L83.2592 34.5325C81.333 35.0668 79.4961 35.8244 77.7764 36.7767Z" fill="#F4812F"/>
<path d="M75.9795 37.8705L83.176 49.0253L83.1579 53.2642L79.0151 49.2958C79.0151 49.2958 78.4255 49.2736 78.4273 48.858C78.4287 48.623 78.5525 48.5267 78.6841 48.4246C78.8339 48.3082 78.9937 48.1841 78.9937 47.8384C78.9937 47.4938 78.7744 47.3443 78.5688 47.204C78.3874 47.0803 78.2166 46.9638 78.2166 46.727C78.2166 46.4968 78.3242 46.3928 78.4415 46.2795C78.5815 46.1442 78.7352 45.9956 78.7352 45.6029C78.7352 45.0166 78.1973 44.9989 77.4471 44.9743C77.2741 44.9686 77.0898 44.9625 76.8982 44.949C75.8763 44.8768 74.8733 44.9457 74.7513 45.3984L71.4151 41.7399C72.7847 40.2789 74.3161 38.9789 75.9795 37.8705Z" fill="#F4812F"/>
<path d="M95.8327 34.2983L93.6738 41.7606C94.3472 41.8407 95.0273 41.8623 95.7041 41.8248C96.1178 41.8603 96.0312 42.1354 95.9435 42.4139C95.9022 42.5451 95.8606 42.677 95.871 42.7851L95.862 47.3765C97.8911 43.793 99.9203 40.2092 101.949 36.6256C101.468 36.3671 100.979 36.1237 100.481 35.8961C99.5302 35.4913 98.5541 35.146 97.5738 34.8204C97.0794 34.6459 96.5781 34.4915 96.0715 34.3563C95.9921 34.3366 95.9124 34.3173 95.8327 34.2983Z" fill="#F4812F"/>
<path d="M103.397 37.4663L95.8805 49.0213L95.8711 53.4916C96.5099 52.8838 97.15 52.2773 97.7901 51.6707L97.7916 51.6692L97.7947 51.6663C98.8376 50.678 99.8805 49.6897 100.918 48.6961C101.06 48.4952 100.874 48.34 100.684 48.1809C100.448 47.9836 100.205 47.7803 100.572 47.4763C101.173 47.2867 101.275 46.3154 100.642 46.1288C100.121 45.3629 101.114 44.957 101.74 45.0408C102.057 45.0553 102.377 45.0342 102.698 45.0131C103.259 44.9761 103.82 44.9391 104.362 45.0932C104.663 45.3808 104.949 45.0212 105.236 44.6592C105.397 44.4564 105.559 44.2529 105.724 44.1619L105.954 43.9311C106.758 43.1226 107.561 42.314 108.357 41.4971C106.874 39.9553 105.209 38.5994 103.397 37.4663Z" fill="#F4812F"/>
<path d="M109.616 42.9045L104.744 46.5885C104.749 46.7937 104.868 46.9719 104.987 47.151C105.077 47.2856 105.167 47.4207 105.21 47.5683C105.412 47.9932 105.083 48.3746 104.809 48.6925C104.771 48.7358 104.735 48.778 104.701 48.8189C104.536 49.0456 104.746 49.1922 104.937 49.326C105.012 49.3779 105.083 49.4279 105.129 49.4798C105.49 49.8501 105.176 50.4301 104.791 50.6455C105.254 50.9223 105.488 51.4405 105.59 51.9509L112.999 48.0967C112.07 46.2268 110.932 44.4852 109.616 42.9045Z" fill="#F4812F"/>
<path d="M115.711 57.8861L105.367 58.6564L105.44 64.2116L115.149 64.2118L115.795 59.5312C115.783 58.9785 115.755 58.4299 115.711 57.8861Z" fill="#F4812F"/>
<path d="M64.4962 64.1427L73.4646 64.2118V58.512L64.2771 58.0734C64.2268 58.7494 64.2012 59.4325 64.2012 60.1217C64.2012 61.4887 64.3019 62.8315 64.4962 64.1427Z" fill="#F4812F"/>
<path d="M64.4624 56.3357L73.6106 57.2128L73.5378 53.1725L66.0553 50.2371C65.2993 52.1679 64.7582 54.2111 64.4624 56.3357Z" fill="#F4812F"/>
<path d="M70.0733 43.2874C68.7635 44.9215 67.6406 46.7196 66.738 48.6471L73.3184 51.8039L74.3921 50.6961C74.3921 50.6961 73.7005 50.2252 73.7348 49.792C73.7411 49.5774 73.908 49.452 74.0782 49.324C74.2557 49.1906 74.4368 49.0544 74.4434 48.8116C74.4497 48.5909 74.2535 48.468 74.0561 48.3443C73.8616 48.2225 73.6659 48.0999 73.6617 47.8823C73.6104 47.4071 74.2674 46.8976 74.2674 46.8976L70.0733 43.2874Z" fill="#F4812F"/>
<path d="M78.7958 51.5129V54.3987L83.1579 56.6175L83.1941 54.3087C82.6446 53.9359 81.9189 53.3029 81.1973 52.6735C79.7777 51.4352 78.3737 50.2105 78.3577 51.0077C78.2847 51.5849 78.7958 51.5129 78.7958 51.5129Z" fill="#F4812F"/>
<path d="M78.7959 56.9962V55.2645L83.1761 57.1223L78.7959 56.9962Z" fill="#F4812F"/>
<path d="M115.386 56.1877C115.263 55.2859 115.135 54.3862 114.926 53.5018C114.646 52.3177 114.289 51.1526 113.855 50.0175C113.839 49.9745 113.818 49.9333 113.798 49.8921C113.778 49.853 113.758 49.8139 113.743 49.7733L105.44 53.248L105.516 57.3616L115.386 56.1877Z" fill="#F4812F"/>
<path d="M100.04 57.068L100.113 55.4081L95.8789 57.2482L100.04 57.068Z" fill="#F4812F"/>
<path d="M95.8584 54.471C95.8584 54.471 99.7998 50.954 100.639 50.3045C100.639 51.0261 100.184 51.5849 100.184 51.5849V54.3267L95.8763 56.3467L95.8584 54.471Z" fill="#F4812F"/>
<path d="M100.583 84.3003C97.3541 85.794 93.772 86.625 90.001 86.625C86.1648 86.625 82.5242 85.765 79.2518 84.2223C80.1624 83.525 81.9972 82.2856 83.9366 82.1761C84.01 82.172 84.0741 82.1734 84.1301 82.1745C84.1541 82.175 84.1767 82.1755 84.1978 82.1755C85.5919 82.1755 86.518 82.7348 87.2712 83.276C87.3599 83.3397 87.4462 83.4028 87.5307 83.4646C88.1646 83.9278 88.7016 84.3202 89.4095 84.3836C90.1912 84.4537 90.972 83.9973 91.8654 83.4539L91.8921 83.4376C92.7787 82.8982 93.7701 82.295 94.9875 82.2512C96.2092 82.2071 97.5173 82.6793 98.5357 83.1504C99.5542 83.6214 100.287 84.1048 100.287 84.1048L100.583 84.3003Z" fill="#0F3296"/>
<path d="M105.413 81.379L74.4183 81.2467C73.7697 80.741 73.145 80.2045 72.5465 79.6393C73.0313 79.4403 73.8697 79.1016 74.7801 78.7592C75.4905 78.492 76.2447 78.2221 76.9137 78.0131C77.5828 77.8042 78.1521 77.6529 78.5625 77.6316C79.3029 77.5928 80.1221 77.9732 80.9852 78.3739L80.9867 78.3746C81.0933 78.4241 81.2005 78.4739 81.3084 78.5232C82.2902 78.9725 83.3061 79.3951 84.1147 79.3632C84.9001 79.332 85.6226 79.0183 86.4349 78.6656L86.6022 78.5931C87.4837 78.2119 88.4779 77.8131 89.7384 77.7754C90.9645 77.7388 91.7893 78.171 92.5508 78.5701L92.6462 78.6201C93.4347 79.032 94.171 79.3943 95.4173 79.2916C96.5232 79.2006 96.8917 78.9083 97.3333 78.5579L97.3342 78.5572C97.3938 78.5098 97.4549 78.4614 97.5192 78.4123C98.0603 77.9994 98.7998 77.5944 100.557 77.6316C103.269 77.6886 105.613 79.5097 106.606 80.407C106.218 80.7427 105.82 81.0669 105.413 81.379Z" fill="#0F3296"/>
<path d="M109.555 77.4125L70.3338 77.2763C69.842 76.6819 69.3752 76.0648 68.9352 75.4269C69.1164 75.3168 69.3163 75.1906 69.529 75.0563C69.7118 74.9408 69.9043 74.8192 70.1026 74.6968C71.1329 74.0603 72.3017 73.3732 73.3209 73.3732C74.3021 73.3732 75.1694 73.9447 76.0085 74.4976L76.0444 74.5213C76.8946 75.0814 77.7207 75.6191 78.5267 75.6829C79.2946 75.7435 79.9445 75.2907 80.7257 74.7464L80.7842 74.7056C81.5916 74.1434 82.5364 73.517 83.8335 73.517C85.1218 73.517 86.1292 74.0772 87.0195 74.6035L87.1273 74.6672C87.9729 75.1679 88.7188 75.6095 89.5271 75.6095C90.377 75.6095 91.3128 75.154 92.2788 74.6586L92.4063 74.5931C93.3321 74.1174 94.2849 73.6278 95.2829 73.5898C96.3396 73.5495 97.3226 74.1071 98.2418 74.6289L98.2571 74.6375C99.1808 75.1618 100.046 75.6406 100.757 75.6101C101.471 75.5793 102.208 75.115 103.024 74.6007L103.07 74.5718C103.904 74.0461 104.828 73.4846 105.943 73.4454L105.96 73.4448L105.978 73.446C107.296 73.561 108.626 74.1958 109.571 74.9316C110.028 75.2875 110.396 75.6655 110.626 76.0471C110.283 76.5145 109.926 76.9699 109.555 77.4125Z" fill="#0F3296"/>
<path d="M65.7272 69.1233C65.3855 68.1513 65.0976 67.1528 64.8672 66.1317C65.0452 66.3022 65.3538 66.5796 65.7408 66.8543C66.3631 67.2961 67.1776 67.7072 67.9049 67.6761C68.4623 67.6521 69.1381 67.2611 69.8941 66.8238C70.0868 66.7123 70.2846 66.5979 70.487 66.4857C71.2346 66.0714 72.0745 65.6974 72.9875 65.7197C73.2918 65.7271 73.6044 65.7784 73.9243 65.887L74.111 65.951L74.1204 66.1476C74.19 67.596 74.7496 68.7784 74.7496 68.7784L74.9486 69.1963L65.7272 69.1233Z" fill="#0F3296"/>
<path d="M67.4842 73.0697C67.0462 72.2677 66.6476 71.4398 66.2912 70.589C66.8382 70.1806 67.4436 69.8593 68.0611 69.8302C68.927 69.7895 69.7158 70.2493 70.4757 70.6922L70.585 70.7559C71.3787 71.2171 72.1411 71.6352 72.8466 71.6035C73.6426 71.5677 73.922 71.4543 74.1245 71.3135C74.1924 71.2663 74.258 71.2069 74.3325 71.1394C74.48 71.0058 74.6623 70.8408 74.9656 70.6772L75.2274 70.5363L75.3618 70.8017C75.5406 71.1553 76.0389 71.6167 76.4917 71.9568C76.9445 72.2969 77.3428 72.5297 77.3428 72.5297L78.2673 73.0697H67.4842Z" fill="#0F3296"/>
<path d="M113.461 71.167C113.171 71.8157 112.856 72.4504 112.518 73.0697H100.793L101.718 72.5297C101.718 72.5297 102.116 72.2969 102.569 71.9568C103.022 71.6167 103.521 71.1553 103.699 70.8017L103.834 70.5363L104.096 70.6772C104.399 70.8407 104.581 71.0057 104.728 71.1393C104.803 71.2067 104.868 71.2662 104.936 71.3135C105.139 71.4543 105.418 71.5677 106.214 71.6035C106.92 71.6352 107.683 71.2171 108.476 70.7559L108.585 70.6922C109.345 70.2493 110.134 69.7895 111 69.8302C111.892 69.8722 112.759 70.5241 113.461 71.167Z" fill="#0F3296"/>
<path d="M105.275 65.887C105.595 65.7784 105.907 65.7271 106.212 65.7197C107.125 65.6974 107.964 66.0714 108.712 66.4857C108.914 66.5977 109.111 66.712 109.304 66.8232C110.06 67.2608 110.737 67.6521 111.294 67.6761C112.022 67.7072 112.837 67.2961 113.459 66.8543C114.081 66.4125 114.501 65.9639 114.501 65.9639L114.986 66.2585L113.968 69.1194L104.25 69.1963L104.45 68.7784C104.45 68.7784 105.009 67.5959 105.079 66.1476L105.088 65.951L105.275 65.887Z" fill="#0F3296"/>
<path d="M89.5823 69.7569C88.0641 69.8 86.8454 70.5809 86.0123 71.337C85.5947 71.716 85.2713 72.0902 85.0509 72.3718C84.8305 72.6534 84.7087 72.8496 84.7087 72.8496L84.6652 73.2922L94.7799 73.2863L94.4858 72.8379C94.4858 72.8379 93.9488 72.0172 93.0788 71.2249C92.2101 70.4337 90.9861 69.6397 89.5823 69.7569Z" fill="#0F3296"/>
<path d="M89.5259 67.0985C88.2607 67.0985 87.5769 67.5168 87.2532 67.9801C86.9295 68.4434 86.9744 68.931 86.9744 68.931L86.9996 69.1928L92.1379 69.1958L92.1509 68.9199C92.1509 68.9199 92.171 68.4321 91.8292 67.9737C91.4874 67.5154 90.7914 67.0985 89.5259 67.0985Z" fill="#0F3296"/>
<path d="M83.2758 64.7325L87.2238 64.6421L86.908 65.266C86.3461 66.3767 85.5016 66.8834 84.6893 67.3216L84.5959 67.3715H80.3486L80.8751 66.6953C81.6948 65.6426 83.1813 64.7888 83.1813 64.7888L83.2758 64.7325Z" fill="#8A1538"/>
<path d="M92.2175 65.266L91.9023 64.6421L95.8497 64.7325L95.9442 64.7888C95.9442 64.7888 97.4309 65.6431 98.2504 66.6959L98.7769 67.3715H94.5296L94.4363 67.3216C93.6239 66.8834 92.7794 66.3767 92.2175 65.266Z" fill="#8A1538"/>
<path d="M78.7962 63.5044C78.7412 63.5042 78.6867 63.5148 78.6359 63.5357C78.585 63.5566 78.5387 63.5873 78.4997 63.626C78.4606 63.6648 78.4296 63.7108 78.4084 63.7616C78.3872 63.8123 78.3762 63.8667 78.376 63.9217C78.3758 63.9767 78.3864 64.0312 78.4073 64.0821C78.4281 64.133 78.4588 64.1793 78.4976 64.2183C78.5363 64.2573 78.5824 64.2884 78.6331 64.3096C78.6839 64.3308 78.7383 64.3418 78.7933 64.342L100.402 64.4142C100.457 64.4144 100.511 64.4038 100.562 64.3829C100.613 64.362 100.66 64.3313 100.699 64.2926C100.738 64.2538 100.769 64.2078 100.79 64.157C100.811 64.1063 100.822 64.0519 100.822 63.9969C100.822 63.9419 100.812 63.8874 100.791 63.8365C100.77 63.7856 100.739 63.7393 100.701 63.7003C100.662 63.6612 100.616 63.6302 100.565 63.609C100.514 63.5878 100.46 63.5768 100.405 63.5766L78.7962 63.5044Z" fill="#8A1538"/>
<path d="M80.9919 58.2772C81.073 58.2015 81.1809 58.161 81.2918 58.1648C81.3467 58.1666 81.4008 58.1793 81.4509 58.202C81.5009 58.2248 81.546 58.2572 81.5836 58.2973C81.6211 58.3375 81.6504 58.3847 81.6697 58.4362C81.689 58.4876 81.698 58.5424 81.6962 58.5974L81.6708 59.3224L82.2705 58.6051C82.3417 58.52 82.4437 58.4667 82.5542 58.4568C82.6647 58.4468 82.7746 58.4812 82.8598 58.5522C82.902 58.5875 82.9369 58.6307 82.9624 58.6795C82.9879 58.7282 83.0035 58.7815 83.0084 58.8362C83.0133 58.891 83.0074 58.9462 82.9909 58.9987C82.9745 59.0512 82.9479 59.0999 82.9126 59.1421L81.6949 60.5989L82.7065 61.9414C82.7733 62.03 82.8022 62.1416 82.7868 62.2516C82.7714 62.3615 82.7129 62.4609 82.6243 62.5277C82.5356 62.5946 82.424 62.6235 82.3141 62.6081C82.2041 62.5927 82.1048 62.5342 82.0379 62.4456L81.1435 61.2586L80.1386 62.4609C80.1034 62.5031 80.0601 62.5379 80.0114 62.5634C79.9627 62.5889 79.9094 62.6046 79.8546 62.6095C79.7998 62.6144 79.7446 62.6084 79.6921 62.592C79.6396 62.5756 79.5909 62.549 79.5487 62.5137C79.5065 62.4784 79.4717 62.4352 79.4462 62.3865C79.4207 62.3377 79.405 62.2845 79.4001 62.2297C79.3952 62.1749 79.4011 62.1197 79.4176 62.0672C79.434 62.0147 79.4606 61.966 79.4959 61.9238L80.6261 60.5719L79.4828 59.0547C79.416 58.966 79.3871 58.8544 79.4025 58.7445C79.4179 58.6345 79.4764 58.5351 79.565 58.4683C79.6089 58.4351 79.659 58.411 79.7122 58.3972C79.7655 58.3834 79.821 58.3802 79.8755 58.3879C79.9854 58.4034 80.0846 58.4618 80.1514 58.5505L80.8285 59.4491L80.8592 58.5686C80.8631 58.4577 80.9108 58.3529 80.9919 58.2772Z" fill="#8A1538"/>
<path d="M85.0808 58.2772C85.1619 58.2015 85.2697 58.161 85.3806 58.1648C85.4356 58.1666 85.4897 58.1793 85.5397 58.202C85.5898 58.2248 85.6349 58.2572 85.6724 58.2973C85.71 58.3375 85.7393 58.3847 85.7586 58.4362C85.7779 58.4876 85.7869 58.5424 85.7851 58.5974L85.7596 59.3224L86.3593 58.6051C86.4305 58.52 86.5326 58.4667 86.6431 58.4568C86.7536 58.4468 86.8635 58.4812 86.9487 58.5522C86.9909 58.5875 87.0257 58.6307 87.0512 58.6795C87.0767 58.7282 87.0924 58.7815 87.0973 58.8362C87.1022 58.891 87.0962 58.9462 87.0798 58.9987C87.0634 59.0512 87.0368 59.0999 87.0015 59.1421L85.7838 60.5989L86.7953 61.9414C86.8622 62.03 86.8911 62.1416 86.8757 62.2516C86.8602 62.3615 86.8018 62.4609 86.7131 62.5277C86.6245 62.5946 86.5129 62.6235 86.4029 62.6081C86.293 62.5927 86.1936 62.5342 86.1268 62.4456L85.2324 61.2586L84.2275 62.4609C84.1922 62.5031 84.149 62.5379 84.1003 62.5634C84.0515 62.5889 83.9983 62.6046 83.9435 62.6095C83.8887 62.6144 83.8335 62.6084 83.781 62.592C83.7285 62.5756 83.6798 62.549 83.6376 62.5137C83.5954 62.4784 83.5605 62.4352 83.535 62.3865C83.5095 62.3377 83.4939 62.2845 83.489 62.2297C83.4841 62.1749 83.49 62.1197 83.5064 62.0672C83.5229 62.0147 83.5495 61.966 83.5848 61.9238L84.715 60.5719L83.5717 59.0547C83.5048 58.966 83.4759 58.8544 83.4914 58.7445C83.5068 58.6345 83.5652 58.5351 83.6539 58.4683C83.6978 58.4351 83.7478 58.411 83.8011 58.3972C83.8544 58.3834 83.9099 58.3802 83.9644 58.3879C84.0742 58.4034 84.1735 58.4618 84.2402 58.5505L84.9174 59.4491L84.948 58.5686C84.9519 58.4577 84.9997 58.3529 85.0808 58.2772Z" fill="#8A1538"/>
<path d="M89.2414 58.2772C89.3225 58.2015 89.4303 58.1611 89.5412 58.1648C89.5962 58.1667 89.6502 58.1793 89.7003 58.2021C89.7504 58.2248 89.7955 58.2572 89.833 58.2974C89.8706 58.3375 89.8999 58.3847 89.9192 58.4362C89.9385 58.4877 89.9475 58.5425 89.9456 58.5974L89.9202 59.3224L90.5199 58.6051C90.5911 58.52 90.6932 58.4667 90.8037 58.4568C90.9141 58.4469 91.0241 58.4812 91.1093 58.5523C91.1515 58.5875 91.1863 58.6308 91.2118 58.6795C91.2373 58.7282 91.2529 58.7815 91.2579 58.8363C91.2628 58.8911 91.2568 58.9463 91.2404 58.9988C91.224 59.0513 91.1973 59.1 91.1621 59.1422L89.9444 60.599L90.9559 61.9414C91.0228 62.0301 91.0516 62.1417 91.0362 62.2516C91.0208 62.3616 90.9624 62.4609 90.8737 62.5278C90.7851 62.5946 90.6735 62.6235 90.5635 62.6081C90.4536 62.5927 90.3542 62.5343 90.2873 62.4456L89.393 61.2587L88.3881 62.4609C88.3528 62.5031 88.3096 62.538 88.2608 62.5635C88.2121 62.589 88.1588 62.6046 88.1041 62.6095C88.0493 62.6144 87.9941 62.6085 87.9416 62.5921C87.8891 62.5756 87.8404 62.549 87.7982 62.5137C87.756 62.4785 87.7211 62.4352 87.6956 62.3865C87.6701 62.3378 87.6545 62.2845 87.6496 62.2297C87.6447 62.1749 87.6506 62.1197 87.667 62.0672C87.6835 62.0148 87.7101 61.966 87.7453 61.9238L88.8755 60.572L87.7323 59.0547C87.6654 58.966 87.6365 58.8545 87.6519 58.7445C87.6674 58.6345 87.7258 58.5352 87.8145 58.4683C87.8584 58.4352 87.9084 58.411 87.9617 58.3972C88.015 58.3834 88.0705 58.3803 88.125 58.3879C88.2348 58.4034 88.334 58.4619 88.4008 58.5505L89.078 59.4492L89.1086 58.5687C89.1125 58.4578 89.1603 58.353 89.2414 58.2772Z" fill="#8A1538"/>
<path d="M93.5481 58.2772C93.6292 58.2015 93.737 58.161 93.8479 58.1648C93.9029 58.1666 93.957 58.1793 94.007 58.202C94.0571 58.2248 94.1022 58.2572 94.1397 58.2973C94.1773 58.3375 94.2066 58.3847 94.2259 58.4362C94.2452 58.4876 94.2542 58.5424 94.2524 58.5974L94.2269 59.3224L94.8267 58.6051C94.8979 58.52 94.9999 58.4667 95.1104 58.4568C95.2209 58.4468 95.3308 58.4812 95.416 58.5522C95.4582 58.5875 95.493 58.6307 95.5185 58.6795C95.544 58.7282 95.5597 58.7815 95.5646 58.8362C95.5695 58.891 95.5636 58.9462 95.5471 58.9987C95.5307 59.0512 95.5041 59.0999 95.4688 59.1421L94.2511 60.5989L95.2626 61.9414C95.3295 62.03 95.3584 62.1416 95.343 62.2516C95.3275 62.3615 95.2691 62.4609 95.1804 62.5277C95.0918 62.5946 94.9802 62.6235 94.8702 62.6081C94.7603 62.5927 94.6609 62.5342 94.5941 62.4456L93.6997 61.2586L92.6948 62.4609C92.6595 62.5031 92.6163 62.5379 92.5676 62.5634C92.5188 62.5889 92.4656 62.6046 92.4108 62.6095C92.356 62.6144 92.3008 62.6084 92.2483 62.592C92.1958 62.5756 92.1471 62.549 92.1049 62.5137C92.0627 62.4784 92.0278 62.4352 92.0023 62.3865C91.9768 62.3377 91.9612 62.2845 91.9563 62.2297C91.9514 62.1749 91.9573 62.1197 91.9737 62.0672C91.9902 62.0147 92.0168 61.966 92.0521 61.9238L93.1823 60.5719L92.039 59.0547C91.9721 58.966 91.9433 58.8544 91.9587 58.7445C91.9741 58.6345 92.0325 58.5351 92.1212 58.4683C92.1651 58.4351 92.2151 58.411 92.2684 58.3972C92.3217 58.3834 92.3772 58.3802 92.4317 58.3879C92.5415 58.4034 92.6408 58.4618 92.7076 58.5505L93.3847 59.4491L93.4153 58.5686C93.4192 58.4577 93.467 58.3529 93.5481 58.2772Z" fill="#8A1538"/>
<path d="M97.7092 58.2772C97.7903 58.2015 97.8982 58.161 98.0091 58.1648C98.064 58.1666 98.1181 58.1793 98.1682 58.202C98.2182 58.2248 98.2633 58.2572 98.3009 58.2973C98.3384 58.3375 98.3677 58.3847 98.387 58.4362C98.4064 58.4876 98.4153 58.5424 98.4135 58.5974L98.3881 59.3224L98.9878 58.6051C99.059 58.52 99.161 58.4667 99.2715 58.4568C99.382 58.4468 99.4919 58.4812 99.5771 58.5522C99.6193 58.5875 99.6542 58.6307 99.6797 58.6795C99.7052 58.7282 99.7208 58.7815 99.7257 58.8362C99.7306 58.891 99.7247 58.9462 99.7083 58.9987C99.6918 59.0512 99.6652 59.0999 99.6299 59.1421L98.4122 60.5989L99.4238 61.9414C99.4906 62.03 99.5195 62.1416 99.5041 62.2516C99.4887 62.3615 99.4302 62.4609 99.3416 62.5277C99.2529 62.5946 99.1413 62.6235 99.0314 62.6081C98.9214 62.5927 98.8221 62.5342 98.7552 62.4456L97.8608 61.2586L96.8559 62.4609C96.8207 62.5031 96.7774 62.5379 96.7287 62.5634C96.68 62.5889 96.6267 62.6046 96.5719 62.6095C96.5171 62.6144 96.4619 62.6084 96.4094 62.592C96.357 62.5756 96.3082 62.549 96.266 62.5137C96.2238 62.4784 96.189 62.4352 96.1635 62.3865C96.138 62.3377 96.1223 62.2845 96.1174 62.2297C96.1125 62.1749 96.1184 62.1197 96.1349 62.0672C96.1513 62.0147 96.1779 61.966 96.2132 61.9238L97.3434 60.5719L96.2001 59.0547C96.1333 58.966 96.1044 58.8544 96.1198 58.7445C96.1352 58.6345 96.1937 58.5351 96.2823 58.4683C96.3262 58.4351 96.3763 58.411 96.4296 58.3972C96.4828 58.3834 96.5383 58.3802 96.5928 58.3879C96.7027 58.4034 96.8019 58.4618 96.8687 58.5505L97.5458 59.4491L97.5765 58.5686C97.5804 58.4577 97.6281 58.3529 97.7092 58.2772Z" fill="#8A1538"/>
<path d="M84.8526 54.1112L94.4163 56.6366V43.1444C90.0358 43.3611 86.3862 34.9196 94.1243 34.3426C86.5321 33.2603 85.6558 35.2083 84.78 37.3006L84.8526 54.1112Z" fill="#D91C16"/>
<path d="M89.5657 33.7627C88.3749 33.8274 87.4913 34.0418 86.8082 34.3697C85.442 35.0255 84.9513 36.1405 84.5125 37.1889C84.4977 37.2246 84.4901 37.2629 84.4902 37.3016L84.563 54.1123L84.58 54.0953C84.5754 54.1597 84.5925 54.2237 84.6284 54.2773C84.6644 54.3309 84.7171 54.371 84.7784 54.3911L94.3425 56.9169C94.3854 56.9282 94.4303 56.9295 94.4738 56.9208C94.5173 56.912 94.5581 56.8934 94.5933 56.8664C94.6285 56.8393 94.6569 56.8046 94.6766 56.7648C94.6962 56.725 94.7064 56.6812 94.7064 56.6369V43.1443C94.7064 43.105 94.6984 43.0661 94.6829 43.03C94.6674 42.9938 94.6447 42.9613 94.6162 42.9342C94.5877 42.9071 94.554 42.8861 94.5171 42.8725C94.4803 42.8589 94.441 42.8529 94.4018 42.8549C93.4014 42.9043 92.4239 42.458 91.6307 41.7285C90.8374 40.999 90.2401 39.9907 90.0083 38.9768C89.7765 37.9629 89.902 36.9598 90.5178 36.1699C91.1336 35.3801 92.2653 34.7717 94.1458 34.6315C94.217 34.626 94.2837 34.5945 94.333 34.543C94.3824 34.4915 94.411 34.4236 94.4134 34.3522C94.4158 34.2809 94.3918 34.2112 94.346 34.1565C94.3002 34.1018 94.2358 34.0659 94.1652 34.0557C92.2544 33.7832 90.7565 33.6981 89.5657 33.7627ZM89.6033 34.345C90.3182 34.3063 91.2179 34.3483 92.2141 34.4325C91.2587 34.746 90.5297 35.2126 90.0611 35.8136C89.3218 36.762 89.1827 37.9644 89.4437 39.1059C89.7046 40.2475 90.3574 41.3448 91.2386 42.1552C92.0435 42.8954 93.0518 43.3755 94.1265 43.4125V56.26L85.1412 53.8881L85.0702 37.3679C85.4989 36.3445 85.8884 35.4539 87.0588 34.8921C87.6533 34.6067 88.4671 34.4066 89.6033 34.345Z" fill="#8A1538"/>
<path d="M86.9775 66.3066C84.8974 69.7116 79.3366 68.7017 78.0362 66.3248C77.6466 66.2156 77.8771 51.659 77.8771 51.659C77.8771 51.659 77.2558 51.3793 77.2271 50.9317C77.1986 50.4797 78.0719 50.4387 78.0719 49.8601C78.0719 49.282 77.1801 49.5086 77.1622 48.9267C77.166 48.3703 78.1144 48.447 78.0719 47.9328C78.0218 47.3532 77.0098 47.439 76.9669 46.9048C76.9341 46.4804 77.6907 46.1103 77.901 45.9194L77.1945 45.9092L75.6017 45.9413C74.4702 45.9426 75.6212 46.1851 75.6047 46.8304C75.5943 47.252 75.0309 47.5325 74.9805 47.899C74.9626 48.2752 75.7867 48.5395 75.7971 48.9911C75.8065 49.394 74.9875 49.4214 75.0169 49.7958C75.0677 50.4294 75.7424 50.5688 75.7322 50.9525C75.7219 51.3356 74.8244 51.4817 74.822 51.7874C74.8534 52.3789 74.952 66.7558 74.952 66.7558C76.382 74.0797 84.6373 75.9429 86.9775 66.3066Z" fill="#D91C16"/>
<path d="M77.1884 45.6195L75.596 45.6517L75.6013 45.6511C75.4546 45.6513 75.3417 45.6554 75.2473 45.6652C75.1529 45.6751 75.08 45.6763 74.9709 45.7462C74.9163 45.7812 74.8465 45.8537 74.823 45.9482C74.7994 46.0426 74.8239 46.1252 74.847 46.1753C74.8936 46.2755 74.9391 46.3093 74.982 46.3514C75.1537 46.5197 75.3187 46.6732 75.3148 46.8227C75.3148 46.8229 75.3148 46.8231 75.3148 46.8233C75.3127 46.9067 75.2338 47.0305 75.09 47.1937C74.9463 47.357 74.7369 47.5416 74.6932 47.8593C74.692 47.8679 74.6912 47.8765 74.6908 47.8852C74.6813 48.0863 74.7823 48.2441 74.8816 48.3565C74.9809 48.4689 75.0921 48.5564 75.1933 48.64C75.2944 48.7236 75.3853 48.8029 75.4398 48.8683C75.4943 48.9338 75.5067 48.972 75.5073 48.9975C75.5074 49.0002 75.5219 48.9831 75.485 49.0151C75.4482 49.047 75.3647 49.0955 75.2655 49.1471C75.1663 49.1987 75.052 49.2531 74.9403 49.3479C74.8286 49.4426 74.7122 49.6201 74.7278 49.8186C74.7613 50.2356 75.0155 50.5079 75.1997 50.6797C75.2919 50.7656 75.3685 50.8344 75.4069 50.8816C75.4453 50.9288 75.4424 50.9338 75.4422 50.9444C75.4428 50.9277 75.4523 50.935 75.3987 50.9802C75.3452 51.0255 75.2461 51.0841 75.1358 51.144C75.0254 51.2039 74.905 51.2646 74.7912 51.3489C74.6774 51.4331 74.5341 51.567 74.5324 51.785C74.5322 51.7908 74.5322 51.7967 74.5324 51.8026C74.5348 51.8495 74.5407 52.1546 74.5465 52.6038C74.5521 53.053 74.559 53.6629 74.5658 54.3782C74.5795 55.8089 74.5944 57.6614 74.6087 59.4954C74.6373 63.1634 74.6621 66.7579 74.6621 66.7579C74.6622 66.7759 74.664 66.7937 74.6674 66.8113C75.4016 70.5717 77.9073 72.9925 80.6034 73.1805C81.9514 73.2745 83.3344 72.7975 84.5114 71.6826C85.6884 70.5677 86.6643 68.8237 87.259 66.3746C87.275 66.3076 87.2666 66.237 87.2352 66.1756C87.2039 66.1142 87.1517 66.066 87.088 66.0396C87.0243 66.0132 86.9533 66.0104 86.8877 66.0317C86.8221 66.053 86.7663 66.0969 86.7302 66.1557C85.7567 67.7493 83.9696 68.3135 82.234 68.1948C80.4984 68.0761 78.8652 67.2367 78.2902 66.1856C78.2848 66.1811 78.2794 66.1768 78.2737 66.1727C78.2722 66.1679 78.2635 66.1375 78.2555 66.0917C78.2389 65.9969 78.2214 65.8408 78.2062 65.6415C78.176 65.2428 78.1529 64.6679 78.1364 63.9804C78.1033 62.6054 78.0955 60.7769 78.1 58.9518C78.1089 55.3016 78.1669 51.6635 78.1669 51.6635C78.1678 51.6069 78.1521 51.5513 78.1217 51.5035C78.0914 51.4557 78.0477 51.4179 77.9961 51.3946C77.9961 51.3946 77.8704 51.3374 77.7425 51.2361C77.6147 51.1349 77.522 51.0076 77.516 50.9133C77.5148 50.8933 77.5073 50.9036 77.55 50.8617C77.5927 50.8197 77.6855 50.7586 77.7965 50.6867C77.9075 50.6149 78.0382 50.5303 78.1534 50.3997C78.2686 50.2691 78.3618 50.0778 78.3618 49.8603C78.3618 49.6413 78.2514 49.4398 78.1164 49.3285C77.9814 49.2172 77.8423 49.1691 77.7296 49.1248C77.6169 49.0806 77.5306 49.0409 77.4942 49.0115C77.4602 48.984 77.4572 48.9811 77.4549 48.9235C77.4558 48.8746 77.4602 48.8652 77.5048 48.8255C77.5518 48.7836 77.6471 48.7304 77.7625 48.6734C77.8779 48.6165 78.0128 48.5569 78.1405 48.4434C78.2681 48.3298 78.3784 48.1248 78.3606 47.9086C78.3606 47.9082 78.3606 47.9078 78.3606 47.9074C78.3408 47.6785 78.2082 47.4906 78.0648 47.3762C77.9213 47.2619 77.7683 47.1963 77.6345 47.1367C77.5007 47.0772 77.3853 47.023 77.324 46.9771C77.2631 46.9315 77.2599 46.9236 77.2565 46.882C77.2553 46.8644 77.2606 46.8294 77.3052 46.7669C77.3502 46.7041 77.4301 46.6258 77.5242 46.5504C77.7123 46.3996 77.9317 46.2826 78.0959 46.1336C78.1389 46.0945 78.1691 46.0434 78.1827 45.9868C78.1963 45.9303 78.1925 45.871 78.172 45.8166C78.1514 45.7623 78.1149 45.7153 78.0674 45.6819C78.0198 45.6486 77.9632 45.6303 77.9051 45.6294L77.1984 45.6194C77.1951 45.6194 77.1918 45.6194 77.1884 45.6195ZM77.0593 46.2017C76.9804 46.2725 76.8988 46.3393 76.8339 46.4301C76.7396 46.5619 76.6627 46.7326 76.6778 46.9272C76.6778 46.9274 76.6778 46.9276 76.6778 46.9278C76.6958 47.1526 76.8351 47.3351 76.9771 47.4414C77.1192 47.5478 77.2677 47.608 77.3986 47.6662C77.5294 47.7245 77.6414 47.7802 77.7032 47.8294C77.7646 47.8784 77.7771 47.8973 77.7824 47.9574C77.7859 47.9962 77.7933 47.9765 77.7554 48.0102C77.7171 48.0443 77.6228 48.0963 77.506 48.154C77.3891 48.2117 77.2497 48.276 77.1192 48.3923C76.9886 48.5086 76.8742 48.7032 76.8726 48.9247C76.8726 48.9282 76.8726 48.9317 76.8726 48.9353C76.8794 49.1552 76.9938 49.3519 77.1297 49.4618C77.2656 49.5716 77.4053 49.6202 77.5177 49.6643C77.6302 49.7084 77.715 49.7488 77.7478 49.7758C77.7806 49.8028 77.7819 49.7903 77.7819 49.8603C77.7819 49.9321 77.7661 49.9625 77.7185 50.0165C77.6709 50.0704 77.5851 50.133 77.4813 50.2002C77.3775 50.2674 77.2568 50.3369 77.1438 50.4479C77.0308 50.5588 76.9248 50.7437 76.9378 50.9497C76.9378 50.9499 76.9378 50.9501 76.9378 50.9503C76.9605 51.3035 77.1927 51.54 77.3827 51.6905C77.4853 51.7718 77.5138 51.7768 77.5852 51.8161C77.5828 51.9725 77.5294 55.3759 77.5207 58.9501C77.5162 60.7778 77.5238 62.6088 77.5571 63.9939C77.5737 64.6865 77.5969 65.2667 77.6287 65.685C77.6445 65.8941 77.6622 66.0617 77.685 66.1921C77.6964 66.2573 77.7075 66.312 77.7284 66.3706C77.7389 66.3999 77.7511 66.4305 77.7778 66.4703C77.7812 66.4755 77.797 66.4816 77.8012 66.4874C78.5358 67.7984 80.3171 68.6446 82.1947 68.773C83.6466 68.8723 85.1739 68.5078 86.3099 67.5187C85.7409 69.1993 84.9772 70.443 84.1129 71.2618C83.0392 72.2788 81.8304 72.6852 80.6433 72.6024C78.2736 72.4372 75.9421 70.271 75.2415 66.7192C75.2412 66.6852 75.2171 63.1421 75.1886 59.4913C75.1744 57.6571 75.1588 55.8043 75.1452 54.3729C75.1384 53.6573 75.1321 53.0471 75.1264 52.5968C75.1208 52.1561 75.1169 51.8957 75.1117 51.7897C75.1111 51.8548 75.0809 51.856 75.1364 51.8149C75.1919 51.7738 75.2966 51.7163 75.4123 51.6535C75.5279 51.5908 75.6549 51.5223 75.7727 51.4228C75.8904 51.3234 76.0165 51.1686 76.0221 50.9603C76.0269 50.7791 75.9434 50.6226 75.8566 50.516C75.7698 50.4093 75.6764 50.3321 75.5948 50.256C75.4373 50.1091 75.3383 49.9916 75.3154 49.7893C75.349 49.761 75.4328 49.7136 75.5332 49.6614C75.6339 49.609 75.7517 49.5512 75.8648 49.453C75.9779 49.3549 76.0911 49.1832 76.0867 48.9846V48.984C76.0819 48.7839 75.9876 48.6201 75.8854 48.4974C75.783 48.3745 75.6665 48.2793 75.5625 48.1933C75.4586 48.1074 75.3665 48.0298 75.316 47.9726C75.2744 47.9256 75.2783 47.9214 75.2779 47.9233C75.2915 47.8695 75.3782 47.7437 75.525 47.577C75.6781 47.4031 75.8856 47.1759 75.8942 46.838C75.9008 46.5782 75.7957 46.3811 75.6752 46.2299L77.0593 46.2017ZM78.1141 66.0453C78.2091 66.072 78.244 66.1255 78.2591 66.1481C78.2716 66.1669 78.2718 66.1698 78.272 66.171C78.2361 66.1115 78.1801 66.0669 78.1141 66.0453Z" fill="#8A1538"/>
<path d="M92.4199 66.3064C94.5 69.7113 100.061 68.7015 101.361 66.3245C101.751 66.2153 101.52 51.6587 101.52 51.6587C101.52 51.6587 102.142 51.379 102.17 50.9315C102.199 50.4794 101.38 50.4384 101.38 49.8598C101.38 49.2818 102.217 49.5083 102.235 48.9264C102.231 48.37 101.356 48.4108 101.398 47.8963C101.448 47.317 102.136 47.3847 102.175 46.8504C102.207 46.3903 101.743 46.11 101.533 45.9192L102.203 45.9089L103.795 45.9411C104.927 45.9423 103.776 46.1849 103.793 46.8302C103.803 47.2517 104.366 47.5322 104.417 47.8987C104.435 48.275 103.61 48.5393 103.6 48.9908C103.591 49.3938 104.41 49.4212 104.38 49.7955C104.329 50.4292 103.655 50.5686 103.665 50.9522C103.675 51.3354 104.573 51.4815 104.575 51.7872C104.544 52.3786 104.445 66.7556 104.445 66.7556C103.015 74.0794 94.7601 75.9426 92.4199 66.3064Z" fill="#D91C16"/>
<path d="M102.199 45.6194L101.528 45.6294C101.47 45.6303 101.414 45.6487 101.366 45.6821C101.319 45.7156 101.282 45.7625 101.262 45.8169C101.241 45.8712 101.238 45.9305 101.251 45.9869C101.265 46.0434 101.295 46.0945 101.338 46.1336C101.601 46.3723 101.904 46.5714 101.886 46.8297C101.88 46.9005 101.866 46.9224 101.829 46.963C101.792 47.0037 101.723 47.0535 101.63 47.1156C101.537 47.1777 101.421 47.253 101.316 47.3744C101.211 47.4958 101.127 47.6696 101.11 47.8716C101.11 47.872 101.11 47.8724 101.11 47.8728C101.092 48.0824 101.188 48.2812 101.305 48.3999C101.422 48.5185 101.548 48.5849 101.654 48.6464C101.761 48.7079 101.847 48.763 101.891 48.8072C101.933 48.85 101.942 48.8662 101.943 48.924C101.941 48.9856 101.935 48.9911 101.905 49.0168C101.873 49.0443 101.795 49.0829 101.689 49.1271C101.583 49.1714 101.449 49.2211 101.32 49.3343C101.191 49.4476 101.09 49.6458 101.09 49.8603C101.09 50.0732 101.176 50.2614 101.284 50.3926C101.393 50.5239 101.517 50.6094 101.621 50.6814C101.725 50.7534 101.81 50.8139 101.849 50.8546C101.887 50.8952 101.883 50.8875 101.881 50.9133C101.875 51.0075 101.782 51.1349 101.654 51.2361C101.527 51.3373 101.401 51.3946 101.401 51.3946C101.35 51.4178 101.306 51.4557 101.276 51.5034C101.245 51.5512 101.23 51.6068 101.231 51.6634C101.231 51.6634 101.288 55.3016 101.297 58.9518C101.301 60.7769 101.294 62.6054 101.261 63.9803C101.244 64.6678 101.221 65.2422 101.191 65.6409C101.176 65.8402 101.158 65.9968 101.141 66.0917C101.133 66.1374 101.125 66.1678 101.123 66.1727C101.118 66.1768 101.112 66.1811 101.107 66.1856C100.532 67.2367 98.8985 68.0761 97.163 68.1948C95.4275 68.3135 93.6409 67.7492 92.6674 66.1556C92.6313 66.0969 92.5755 66.0529 92.5099 66.0317C92.4443 66.0104 92.3733 66.0132 92.3096 66.0395C92.2459 66.0659 92.1937 66.1141 92.1623 66.1755C92.131 66.2369 92.1225 66.3075 92.1385 66.3746C92.7333 68.8237 93.7091 70.5676 94.8861 71.6825C96.0631 72.7974 97.4461 73.2745 98.7942 73.1805C101.49 72.9925 103.996 70.5716 104.73 66.8113C104.734 66.7937 104.735 66.7758 104.735 66.7579C104.735 66.7579 104.76 63.1633 104.788 59.4953C104.803 57.6613 104.818 55.8088 104.832 54.3781C104.839 53.6628 104.845 53.0529 104.851 52.6037C104.856 52.1546 104.862 51.8497 104.865 51.8025C104.865 51.7969 104.865 51.7912 104.865 51.7855C104.864 51.5675 104.72 51.4331 104.606 51.3488C104.493 51.2646 104.372 51.2038 104.262 51.144C104.151 51.0841 104.052 51.0254 103.999 50.9802C103.945 50.935 103.954 50.9277 103.955 50.9444C103.955 50.9338 103.952 50.9287 103.991 50.8816C104.029 50.8344 104.106 50.7656 104.198 50.6797C104.382 50.5079 104.636 50.2356 104.669 49.8186C104.685 49.62 104.569 49.4426 104.457 49.3479C104.346 49.2531 104.231 49.1987 104.132 49.1471C104.033 49.0955 103.949 49.0471 103.913 49.015C103.876 48.983 103.89 49 103.89 48.9974C103.891 48.972 103.903 48.9338 103.957 48.8683C104.012 48.8028 104.103 48.7236 104.204 48.64C104.305 48.5564 104.416 48.4688 104.515 48.3565C104.615 48.2441 104.716 48.0862 104.707 47.8851C104.706 47.8765 104.706 47.8679 104.704 47.8593C104.66 47.5416 104.451 47.3569 104.308 47.1937C104.164 47.0305 104.085 46.9066 104.083 46.8233C104.083 46.8231 104.083 46.8229 104.083 46.8227C104.079 46.6732 104.243 46.5197 104.415 46.3514C104.458 46.3093 104.504 46.2755 104.551 46.1753C104.574 46.1252 104.598 46.042 104.574 45.9475C104.55 45.8531 104.481 45.7812 104.427 45.7462C104.318 45.6763 104.244 45.6751 104.15 45.6652C104.057 45.6555 103.945 45.652 103.802 45.6517H103.796L102.209 45.6194C102.206 45.6194 102.202 45.6193 102.199 45.6194ZM102.242 46.1993L103.722 46.2298C103.602 46.3809 103.497 46.5778 103.503 46.8373C103.512 47.1756 103.719 47.4029 103.872 47.5769C104.019 47.7435 104.105 47.8692 104.119 47.9232C104.119 47.9217 104.123 47.9259 104.082 47.9725C104.031 48.0297 103.938 48.1073 103.834 48.1932C103.73 48.2792 103.615 48.3744 103.512 48.4973C103.41 48.6202 103.315 48.7841 103.31 48.9845C103.306 49.1834 103.42 49.3547 103.533 49.4529C103.646 49.551 103.764 49.6088 103.864 49.6612C103.965 49.7135 104.048 49.7609 104.082 49.7892C104.059 49.9915 103.96 50.1089 103.802 50.2558C103.721 50.332 103.628 50.4092 103.541 50.5159C103.454 50.6226 103.371 50.779 103.375 50.9602C103.381 51.1685 103.507 51.3232 103.624 51.4227C103.742 51.5222 103.87 51.5906 103.985 51.6534C104.101 51.7162 104.206 51.7737 104.261 51.8148C104.317 51.8559 104.286 51.8548 104.285 51.7896C104.28 51.8953 104.277 52.156 104.271 52.5967C104.265 53.0469 104.259 53.6572 104.252 54.3728C104.239 55.8041 104.223 57.657 104.209 59.4912C104.181 63.1432 104.156 66.6897 104.156 66.7214C103.454 70.2717 101.123 72.4371 98.7537 72.6023C97.5666 72.685 96.3584 72.2787 95.2847 71.2616C94.4204 70.4429 93.6566 69.1992 93.0877 67.5185C94.2237 68.5077 95.751 68.8722 97.2029 68.7729C99.0799 68.6445 100.86 67.7988 101.595 66.4884C101.6 66.4822 101.616 66.4756 101.62 66.4702C101.646 66.4303 101.658 66.3997 101.669 66.3704C101.689 66.3118 101.701 66.2572 101.713 66.192C101.735 66.0616 101.753 65.894 101.769 65.6848C101.801 65.2666 101.823 64.6863 101.84 63.9938C101.873 62.6087 101.881 60.7777 101.877 58.95C101.868 55.3758 101.814 51.9723 101.812 51.816C101.883 51.7767 101.912 51.7717 102.015 51.6904C102.205 51.5398 102.437 51.3034 102.459 50.9502C102.459 50.95 102.459 50.9498 102.459 50.9496C102.472 50.7494 102.375 50.567 102.268 50.4548C102.162 50.3425 102.048 50.2718 101.951 50.2047C101.854 50.1377 101.775 50.0767 101.731 50.0234C101.687 49.9701 101.67 49.9365 101.67 49.8602C101.67 49.7856 101.674 49.7948 101.703 49.7698C101.731 49.7448 101.807 49.7059 101.913 49.6618C102.018 49.6177 102.153 49.5681 102.283 49.4564C102.413 49.3446 102.518 49.1506 102.525 48.9351C102.525 48.9316 102.525 48.9281 102.525 48.9245C102.523 48.7094 102.422 48.5193 102.302 48.3986C102.183 48.2779 102.052 48.2072 101.944 48.1451C101.837 48.0829 101.753 48.0283 101.717 47.9924C101.682 47.9569 101.683 47.9673 101.687 47.9208C101.695 47.8337 101.716 47.7983 101.755 47.753C101.794 47.7074 101.861 47.6576 101.951 47.5974C102.042 47.5372 102.154 47.4676 102.258 47.3526C102.363 47.2377 102.45 47.067 102.464 46.8713C102.484 46.5926 102.376 46.3776 102.242 46.1993ZM101.283 66.0453C101.217 66.0669 101.161 66.1114 101.125 66.1709C101.125 66.1697 101.125 66.1668 101.138 66.148C101.153 66.1254 101.188 66.0719 101.283 66.0453Z" fill="#8A1538"/>
</svg>
