<svg width="180" height="120" viewBox="0 0 180 120" fill="none" xmlns="http://www.w3.org/2000/svg">
<g clip-path="url(#clip0_307_49609)">
<path d="M0 0H180V120H0V0Z" fill="black"/>
<path d="M0 0H180V120L0 0Z" fill="#D91C16"/>
<path d="M125.397 34.8653C124.216 36.3916 121.419 33.3299 118.069 33.26C114.719 33.1901 112.346 36.4703 111.369 37.5871C110.392 38.704 107.252 44.5662 107.321 45.1944C107.391 45.8225 109.276 43.4496 109.974 43.0309C110.043 43.8684 109.206 44.8456 109.415 45.1246C109.625 45.4037 111.858 43.4496 112.626 43.3799C112.835 43.9383 112.207 44.4965 112.416 45.334C112.695 45.6131 113.952 43.9381 114.789 43.5893C114.929 44.2174 114.021 45.404 114.51 46.1715C114.859 46.2412 116.952 43.7987 117.651 43.5194C118.349 43.2401 117.302 45.8225 117.651 46.0319C118.279 45.6131 120.233 43.3797 120.861 43.1006C121.489 42.8215 120.791 45.9622 121.07 45.9622C121.838 45.4037 123.792 42.7518 124.002 42.3331C124.211 41.9143 123.792 46.3809 125.956 48.754C128.119 51.127 131.4 53.8487 131.749 53.8487C132.167 53.0809 131.609 51.4758 131.958 51.5456C132.935 52.5924 134.75 54.1278 135.168 54.1278C135.587 54.1278 134.889 52.4528 135.447 52.4528C136.564 53.4996 139.775 57.6174 146.056 59.5018C145.637 58.3153 144.73 57.2684 144.66 56.7102C145.079 56.7799 146.545 57.478 146.824 57.4081C147.103 57.3381 143.753 53.2206 143.962 52.6621C144.73 52.5924 145.079 53.0809 145.358 52.7319C145.009 52.1737 142.078 48.8934 142.078 48.1256C142.078 47.3578 142.985 48.2653 143.264 48.1256C143.543 47.986 142.148 45.0547 142.427 44.7059C142.706 44.3571 145.777 46.5903 146.544 46.5903C147.312 46.5903 146.754 43.8684 147.103 43.7287C147.452 43.5891 150.034 45.1944 150.592 45.1944C151.151 45.1944 151.081 44.0078 151.29 44.1475C151.5 44.2871 157.571 50.359 155.478 57.4778C153.384 62.5727 149.197 65.2946 143.055 63.0612C143.404 63.6196 146.684 66.3415 150.243 65.3643C153.803 64.3871 158.13 61.5956 157.641 54.6165C157.153 47.6374 154.849 46.6602 154.501 45.6133C154.152 44.5665 155.059 45.8924 155.827 46.1717C156.594 46.451 155.687 44.7059 155.478 43.9381C155.268 43.1703 157.781 45.5434 158.409 45.7528C159.037 45.9621 156.943 40.0299 156.315 39.6112C155.687 39.1924 156.943 39.7506 157.362 39.8903C157.781 40.0299 153.523 33.3996 152.616 33.3996C151.709 33.3996 153.384 33.0506 153.872 33.0506C154.361 33.0506 148.987 28.7235 148.08 28.7235C147.172 28.7235 150.034 27.6067 150.313 27.5369C150.802 27.6067 144.102 23.9776 138.1 27.6067C137.751 27.3278 140.926 25.1293 141.031 24.1871C141.066 23.9428 139.984 23.4194 139.914 23.1403C139.844 22.8612 141.589 22.0237 141.659 21.3956C141.24 20.8372 140.472 21.0465 140.054 20.9071C139.949 20.3836 141.52 19.0924 141.38 18.5342C141.275 18.2202 140.123 18.1155 139.844 18.3249C139.565 18.5342 140.577 16.8592 140.403 16.3708C140.263 16.1614 139.705 16.301 139.146 16.4405C138.797 16.3708 140.961 13.3696 140.542 12.9508C140.124 12.5321 134.261 16.0215 132.097 19.9299C129.934 23.8383 131.609 26.979 131.33 28.3049C131.051 29.6309 130.702 30.9571 129.794 30.9571C128.887 30.9571 126.794 29.5612 126.095 28.8633C125.397 28.1655 125.258 27.6768 124.281 27.3977C123.304 27.1186 121.07 27.9561 120.233 28.0258C119.395 28.0956 116.115 27.3977 115.906 27.6071C115.696 27.8165 119.116 29.0727 119.884 29.4915C120.652 29.9102 120.722 30.4686 121.28 30.8174C121.838 31.1662 127.072 32.7018 125.397 34.8653ZM145.846 44.7059C147.521 46.3809 158.828 53.9184 158.828 63.1309C158.828 72.3434 150.592 72.0645 148.219 71.7852C150.871 74.0184 160.921 73.5996 160.921 63.1309C160.921 53.9184 147.94 44.7059 146.265 43.8684C144.59 43.0309 144.171 43.0309 145.846 44.7059Z" fill="#FDD406"/>
<path d="M35.0688 36.8L36.9497 42.2111L42.6773 42.3279L38.1122 45.7888L39.7711 51.2721L35.0688 48L30.3665 51.2721L32.0254 45.7888L27.4604 42.3279L33.1879 42.2111L35.0688 36.8Z" fill="white"/>
<path d="M17.4688 60.8L19.3497 66.2111L25.0773 66.3279L20.5122 69.7888L22.1711 75.2721L17.4688 72L12.7665 75.2721L14.4254 69.7888L9.86035 66.3279L15.5879 66.2111L17.4688 60.8Z" fill="white"/>
<path d="M35.0688 92.8L36.9497 98.2111L42.6773 98.3279L38.1122 101.789L39.7711 107.272L35.0688 104L30.3665 107.272L32.0254 101.789L27.4604 98.3279L33.1879 98.2111L35.0688 92.8Z" fill="white"/>
<path d="M51.0688 59.2L52.9497 64.6111L58.6772 64.7279L54.1122 68.1888L55.7711 73.6721L51.0688 70.4L46.3665 73.6721L48.0254 68.1888L43.4604 64.7279L49.1879 64.6111L51.0688 59.2Z" fill="white"/>
<path d="M43.0688 79.2L44.0093 81.9056L46.873 81.9639L44.5905 83.6944L45.4199 86.4361L43.0688 84.8L40.7177 86.4361L41.5471 83.6944L39.2646 81.9639L42.1283 81.9056L43.0688 79.2Z" fill="white"/>
</g>
<defs>
<clipPath id="clip0_307_49609">
<rect width="180" height="120" fill="white"/>
</clipPath>
</defs>
</svg>
