<svg width="180" height="120" viewBox="0 0 180 120" fill="none" xmlns="http://www.w3.org/2000/svg">
<g clip-path="url(#clip0_909_225619)">
<path d="M180 0H0V120H180V0Z" fill="white"/>
<path d="M180 0H45V120H180V0Z" fill="#005801"/>
<path d="M145.126 76.4848C145.697 75.9773 146.246 75.4544 146.774 74.9173C141.103 87.3548 128.561 95.9999 114 95.9999C94.1177 95.9999 78 79.8822 78 59.9999C78 43.9431 88.5122 30.3415 103.03 25.7019C102.434 26.1631 101.85 26.6477 101.278 27.1558C87.6562 39.2641 86.4292 60.1225 98.5375 73.7443C110.646 87.3661 131.504 88.5931 145.126 76.4848Z" fill="white"/>
<path d="M132.919 39.578L127.127 33.0617L127.983 41.7381L119.996 45.2332L128.512 47.1004L129.368 55.7768L133.775 48.2544L142.292 50.1215L136.499 43.6053L140.907 36.0828L132.919 39.578Z" fill="white"/>
</g>
<defs>
<clipPath id="clip0_909_225619">
<rect width="180" height="120" fill="white"/>
</clipPath>
</defs>
</svg>
