<svg width="180" height="120" viewBox="0 0 180 120" fill="none" xmlns="http://www.w3.org/2000/svg">
<g clip-path="url(#clip0_307_49622)">
<path d="M180 0H0V120H180V0Z" fill="white"/>
<path d="M180 0H45V120H180V0Z" fill="#005801"/>
<path d="M145.126 76.4849C145.697 75.9774 146.246 75.4545 146.774 74.9174C141.103 87.3549 128.561 96 114 96C94.1177 96 78 79.8822 78 60C78 43.9431 88.5122 30.3415 103.03 25.702C102.434 26.1632 101.85 26.6478 101.278 27.1559C87.6562 39.2642 86.4292 60.1226 98.5375 73.7444C110.646 87.3662 131.504 88.5932 145.126 76.4849Z" fill="white"/>
<path d="M132.919 39.578L127.127 33.0617L127.983 41.7381L119.996 45.2332L128.512 47.1004L129.368 55.7768L133.775 48.2544L142.292 50.1216L136.499 43.6053L140.907 36.0829L132.919 39.578Z" fill="white"/>
</g>
<defs>
<clipPath id="clip0_307_49622">
<rect width="180" height="120" fill="white"/>
</clipPath>
</defs>
</svg>
