<svg width="180" height="120" viewBox="0 0 180 120" fill="none" xmlns="http://www.w3.org/2000/svg">
<g clip-path="url(#clip0_909_309192)">
<path d="M0 0H180V120H0V0Z" fill="#FDD406"/>
<path d="M0 0H180V60H0V0Z" fill="#54AEF2"/>
<path d="M0 90H180V120H0V90Z" fill="#005801"/>
<path d="M140.335 12L141.118 25.4354L145.352 12.66L142.631 25.8415L150.027 14.5973L143.988 26.625L154.041 17.6781L145.094 27.7315L157.122 21.6923L145.878 29.0885L159.059 26.3677L146.284 30.6012L159.719 31.3846L146.284 32.1681L159.059 36.4015L145.878 33.6808L157.122 41.0769L145.094 35.0377L154.041 45.0912L143.988 36.1442L150.027 48.1719L142.631 36.9277L145.352 50.1092L141.118 37.3338L140.335 50.7692L139.551 37.3338L135.318 50.1092L138.039 36.9277L130.643 48.1719L136.682 36.1442L126.628 45.0912L135.575 35.0377L123.548 41.0769L134.792 33.6808L121.61 36.4015L134.386 32.1681L120.95 31.3846L134.386 30.6012L121.61 26.3677L134.792 29.0885L123.548 21.6923L135.575 27.7315L126.628 17.6781L136.682 26.625L130.643 14.5973L138.039 25.8415L135.318 12.66L139.551 25.4354L140.335 12Z" fill="#FDD406"/>
<path fill-rule="evenodd" clip-rule="evenodd" d="M140.335 26.0771C137.404 26.0771 135.027 28.4534 135.027 31.3848C135.027 34.3161 137.404 36.6925 140.335 36.6925C143.266 36.6925 145.643 34.3161 145.643 31.3848C145.643 28.4534 143.266 26.0771 140.335 26.0771ZM134.335 31.3848C134.335 28.0711 137.021 25.3848 140.335 25.3848C143.649 25.3848 146.335 28.0711 146.335 31.3848C146.335 34.6985 143.649 37.3848 140.335 37.3848C137.021 37.3848 134.335 34.6985 134.335 31.3848Z" fill="#54AEF2"/>
</g>
<defs>
<clipPath id="clip0_909_309192">
<rect width="180" height="120" fill="white"/>
</clipPath>
</defs>
</svg>
