<svg width="180" height="120" viewBox="0 0 180 120" fill="none" xmlns="http://www.w3.org/2000/svg">
<g clip-path="url(#clip0_307_46515)">
<path d="M0 120H180V0H0V120Z" fill="#005801"/>
<path d="M135 47.6647C134.988 45.5567 134.17 39.8785 133.962 37.9736C133.755 36.0688 133.546 34.3406 133.597 33.936C133.646 33.5455 134.247 34.4789 134.565 34.5544C134.729 34.5214 134.656 33.9319 134.357 33.4285C134.155 33.0866 133.466 31.8082 133.048 31.0591C132.851 30.7046 132.807 30.499 132.713 30.4554C132.618 30.4118 131.857 31.947 131.941 32.1172C132.148 32.4292 132.291 32.5781 132.323 33.1291C132.356 33.6802 132.641 37.6145 133.004 40.5967C133.277 42.8465 133.877 47.6935 133.899 50.7071C133.905 51.6902 133.796 52.6272 133.665 53.0187C133.329 53.6336 132.804 54.1882 130.849 55.3318C128.652 56.6178 125.721 57.688 124.461 58.4041C123.677 58.8508 123.937 58.9106 124.619 58.7151C125.3 58.5196 128.818 57.8931 130.527 57.1708C132.131 56.4911 133.173 55.3541 133.963 53.6954C134.939 51.6446 135.014 49.9043 135 47.6647Z" fill="white"/>
<path d="M128.198 31.6521C128.368 31.5863 129.774 31.5139 130.152 31.5919C129.904 31.9474 128.217 32.7345 128.21 32.8788C128.256 32.9761 129.375 32.699 129.728 32.5451C129.958 32.4063 130.112 32.1915 130.283 32.0133C130.686 31.5493 131.165 30.6888 131.044 30.5809C130.849 30.4067 128.932 30.5151 128.679 30.551C128.51 30.5754 128.08 31.3452 128.002 31.5427C127.924 31.7403 128.028 31.718 128.198 31.6521Z" fill="white"/>
<path d="M131.07 44.1464C131.363 43.1537 131.436 41.9493 131.037 40.6815C130.627 39.3763 129.609 38.5807 128.875 38.1729L128.744 39.4295C128.744 39.4295 129.773 39.9411 130.477 41.2291C130.923 42.046 131.109 43.2013 130.757 44.4893C130.698 44.8089 130.927 44.6326 131.07 44.1464Z" fill="white"/>
<path d="M120.18 50.448C120.444 49.554 120.508 48.4696 120.15 47.328C119.781 46.1525 118.865 45.4358 118.203 45.0701L118.085 46.2011C118.085 46.2011 119.012 46.662 119.646 47.8208C120.048 48.5557 120.214 49.5976 119.898 50.7569C119.846 51.0436 120.051 50.8856 120.18 50.448Z" fill="white"/>
<path d="M82.3727 33.3382C82.7968 34.1136 82.9726 35.2116 82.639 36.4348C82.5831 36.7382 82.7989 36.5715 82.9364 36.1096C83.2136 35.1676 83.2827 34.0229 82.9036 32.818C82.5141 31.5776 81.5472 30.8225 80.8498 30.436L80.7266 31.6293C80.7266 31.6293 81.7044 32.115 82.3727 33.3382Z" fill="white"/>
<path d="M56.8506 33.7394C57.2067 34.5741 57.2308 35.701 56.6556 36.8882C56.5438 37.1866 56.8161 37.0452 57.0445 36.599C57.5113 35.6869 57.7731 34.5452 57.5365 33.2841C57.2938 31.9875 56.3198 31.1037 55.5906 30.6251L55.2598 31.8097C55.2598 31.8097 56.2891 32.4236 56.8506 33.7394Z" fill="white"/>
<path d="M63.9055 52.3965C64.358 51.5567 64.5464 50.9915 64.7475 49.9967C64.9233 49.1215 64.9348 48.1106 64.8713 47.0814C66.2255 46.5294 67.8394 45.6131 68.3817 45.5458C68.0108 46.8191 68.8961 48.1932 70.6842 48.0139C70.8211 49.4538 70.9383 50.7185 71.0096 51.4686C71.1553 53.0063 71.1334 54.9441 71.129 55.2809C71.123 55.6192 71.3678 55.5554 71.6193 54.8017C71.9545 53.7928 72.0581 51.1581 71.9365 49.4158C71.9074 48.9802 71.8581 48.3922 71.7984 47.7221C72.9576 47.1858 73.1504 46.1505 73.5837 45.7094C73.9749 47.0794 76.1278 47.2653 76.7923 46.972C77.6162 46.6079 77.8863 45.953 78.0983 44.433C78.3108 42.9136 77.6918 42.3018 77.4705 42.1361C77.4486 42.32 76.9095 44.1059 76.9095 44.1059C76.9095 44.1059 77.4206 44.6458 77.4464 44.9112C77.03 45.288 76.1519 45.3113 75.4145 45.0712C74.6766 44.8311 74.4504 44.3895 74.4942 44.0932C74.5369 43.7959 74.8147 43.5254 74.824 43.1633C74.8322 42.8012 74.6586 42.906 74.3633 43.2266C74.068 43.5477 73.8774 43.8364 73.4687 44.5257C73.1345 45.0894 72.5922 45.7772 71.6357 45.9738C71.4779 44.3186 71.2977 42.5575 71.1772 41.4514C71.1142 40.8674 70.4847 35.8208 70.4398 35.2561C70.4009 34.7643 70.3281 34.1844 70.3401 33.9119C70.3522 33.6951 70.488 33.7812 70.6984 34.0081C70.9093 34.2345 71.278 34.6296 71.3415 34.5987C71.5563 34.4933 71.3366 33.8374 71.0556 33.2499C70.7751 32.6609 69.8175 30.3371 69.6165 30.2414C69.5129 30.1928 68.8665 31.6231 68.8282 31.9047C68.9284 32.0809 69.1903 32.358 69.1996 33.1461C69.2029 33.3659 69.3442 35.4384 69.5403 37.398C69.7118 39.1286 69.9391 40.7707 69.961 40.9616C70.1172 42.2825 70.3067 44.1443 70.4869 45.9748C69.4488 45.7772 69.1727 45.0925 69.1957 44.702C69.222 44.2613 69.4209 43.764 69.3256 43.6515C69.1256 43.5315 67.9358 44.1965 66.2764 44.9112C65.8097 45.1117 65.2838 45.327 64.7289 45.5311C64.5842 44.2836 64.3936 43.0974 64.3169 42.1903L64.3076 42.0895C65.3988 42.0191 66.2923 41.4681 66.6988 40.9434C67.2066 40.2875 67.5616 38.9377 67.5961 37.9035C67.6306 36.8682 66.7952 34.9755 66.5964 34.3738C66.3959 33.7716 66.2923 33.3542 66.2748 33.1461C66.2567 32.9379 66.7262 33.3872 67.0215 33.4753C67.2214 33.5153 67.1524 33.0823 66.9081 32.785C66.6654 32.4887 65.3528 30.4967 65.2608 30.6365C65.2044 30.7185 64.6785 32.1838 64.6439 32.4081C64.851 32.5449 65.0932 32.9217 65.1101 33.2828C65.1277 33.6439 65.4169 35.2318 65.7374 36.1141C66.059 36.9964 66.7437 38.689 66.787 39.1545C66.2978 39.4994 65.1841 40.0834 64.0824 40.0484C63.894 38.5047 63.6551 36.7117 63.5275 35.442C63.4782 34.9512 63.4749 34.4275 63.4826 34.154C63.4886 33.9372 63.6447 33.9671 63.8595 34.1899C64.0753 34.4128 64.4062 34.7369 64.4741 34.7136C64.622 34.6645 64.4938 34.1727 64.2008 33.5887C63.9077 33.0048 62.743 30.5347 62.5387 30.4425C62.4352 30.3954 61.9136 31.7826 61.8808 32.0658C61.9849 32.241 62.2516 32.512 62.2779 33.3C62.2987 33.9276 62.6044 37.0029 62.8663 39.7116C61.7761 39.1479 61.4042 38.3421 61.2694 36.9893C61.1752 36.0462 61.1659 34.309 60.8295 32.8559C60.64 32.0343 60.2406 31.1997 59.7673 30.7565C59.6544 31.0295 59.1505 32.7054 59.1505 32.7054C59.3148 33.1866 59.8259 34.8068 59.8084 36.2108C59.7914 37.6148 59.6807 38.9873 58.1074 39.9329C56.5352 40.8791 54.1768 40.5027 53.5945 39.0268C53.0122 37.5499 54.3067 33.847 54.2897 32.9729C54.2722 32.0987 54.116 31.9781 53.7506 32.1225C53.3858 32.2668 52.6391 33.1096 51.996 34.4807C51.3529 35.8527 51.0669 37.552 50.7015 38.7073C50.3372 39.8625 49.7538 41.033 48.851 40.9682C47.9482 40.9044 47.4623 40.0783 47.1845 38.8835C46.9062 37.6877 47.0766 36.1131 47.1522 35.7094C47.3407 34.6984 46.9041 34.9056 46.6367 36.4929C46.4713 37.4719 46.3069 39.0355 46.8893 40.6719C47.4705 42.3083 48.4615 42.9187 49.3298 42.7095C50.1986 42.5013 50.9623 40.4637 51.2318 39.5485C51.5008 38.6348 52.7043 34.5764 53.3858 34.3768C53.4811 34.8342 52.8561 36.3086 52.6561 38.0331C52.4567 39.7577 52.9218 42.0744 55.1109 42.475C57.2999 42.8761 58.7851 41.4564 59.3236 40.4708C59.8626 39.4837 60.1141 38.4489 60.1749 37.9278C60.245 39.2507 61.1478 41.3167 62.9013 41.9057L63.0821 41.9579C63.19 43.0407 63.3659 44.4543 63.5275 45.9388C63.1862 46.0442 62.8416 46.1394 62.4987 46.2214C62.4549 46.0791 62.4067 45.9398 62.3481 45.8117C61.8128 44.6604 60.927 43.5994 59.6994 43.6728C58.4454 43.7473 57.0781 45.4207 57.1378 46.6428C57.1772 47.4648 57.6297 48.1395 59.2754 48.3122C60.027 48.3917 60.8251 48.3081 61.6496 48.1283C61.7657 48.4682 61.8391 48.806 61.8473 49.1139C61.3258 49.7238 57.0107 52.9784 53.7797 53.2914C50.5487 53.6039 49.5631 51.9102 49.5308 50.21C49.5067 48.9164 50.2846 47.6254 50.8313 46.732C51.6136 46.1596 52.2557 45.444 52.661 44.8919C52.7712 44.9598 52.8758 45.0226 52.9755 45.0808C53.3617 45.3052 53.5156 45.6405 53.5156 45.6405C53.5868 45.5311 53.9188 44.9334 53.789 44.6412C53.7293 44.5693 53.4373 44.3895 53.0861 44.1763C53.4548 43.2575 53.4499 42.3403 52.9722 42.1361C52.4381 41.9087 51.7407 42.5408 51.44 42.9263C51.2838 43.1268 51.2241 43.3542 51.223 43.5452C51.2208 43.7908 51.3364 44.0127 51.6224 44.2102C51.9072 44.4047 52.1718 44.5809 52.4205 44.74C51.7144 45.4815 50.0458 46.5679 49.0246 47.206C48.9868 47.1123 48.8373 47.2111 48.6362 47.4481L48.3596 47.6188C47.545 48.1172 45.5915 49.2117 45.2075 49.4796C44.8229 49.7481 45.0639 49.6994 45.2075 49.6397C45.4786 49.4933 45.8347 49.316 46.2346 49.1205C46.8011 48.8435 47.4601 48.53 48.1043 48.2155C47.9137 48.5386 47.7165 48.9164 47.5417 49.3287C46.7731 51.1434 45.5307 54.9046 48.2183 57.1675C50.7897 59.3338 55.2095 58.5097 58.8749 56.2584C62.5409 54.0066 63.3325 53.2149 63.9055 52.3965ZM51.9544 43.45C51.8273 43.3563 51.8097 43.2312 51.9133 43.144C52.0453 43.0316 52.214 42.9252 52.4058 42.8893C52.8122 42.8138 52.9744 43.2808 52.8111 44.0081C52.5022 43.8192 52.1844 43.6206 51.9544 43.45ZM60.3622 46.5177C58.4958 46.5263 58.4098 46.1875 58.4449 45.9707C58.4794 45.755 59.0606 45.1629 59.798 45.5534C60.1097 45.719 60.4608 46.0654 60.7857 46.5005C60.6422 46.5111 60.5008 46.5167 60.3622 46.5177ZM54.6458 56.3328C51.1195 57.2952 47.6798 55.8041 47.4716 52.8518C47.3122 50.5974 48.1344 48.8987 48.6647 47.9414C49.1704 47.6912 49.6481 47.4481 50.043 47.2303C49.12 48.7169 48.5798 50.7079 48.9408 52.3944C49.3495 54.3049 51.0116 55.4632 53.8257 55.0894C56.6119 54.7202 60.3792 52.0703 61.4474 51.071C61.7728 50.7104 61.9876 50.3852 62.2801 49.7227C62.4006 49.4508 62.5699 49.0917 62.6329 48.686C62.674 48.4216 62.6959 48.139 62.7008 47.8513C63.0279 47.7535 63.3566 47.6441 63.6875 47.5266C63.7998 48.7361 63.8825 49.9284 63.8874 50.9596C62.1514 52.9956 58.1721 55.37 54.6458 56.3328Z" fill="white"/>
<path d="M116.326 48.5909C116.206 46.6157 115.918 43.0404 115.757 41.2267C115.615 39.6125 115.335 37.4002 115.13 35.4528C115.078 34.9625 115.073 34.493 115.078 34.22C115.084 34.0042 115.3 34.0873 115.516 34.3092C115.732 34.531 116.069 34.8096 116.133 34.7756C116.344 34.6662 116.091 34.1253 115.795 33.5434C115.498 32.9604 114.323 30.549 114.119 30.4574C114.015 30.4108 113.464 31.8552 113.433 32.1384C113.538 32.3126 113.807 32.5826 113.836 33.3706C113.865 34.1592 114.264 37.7846 114.551 40.7167C114.751 42.7547 115.008 46.0803 115.195 48.5879C115.186 48.592 115.372 50.9719 115.393 51.2393C115.508 52.779 115.448 54.7163 115.437 55.0526C115.424 55.3905 115.671 55.3317 115.936 54.5821C116.206 53.8168 116.36 52.108 116.381 50.5652L116.326 48.5909Z" fill="white"/>
<path d="M106.312 41.676C105.951 41.7864 105.383 41.404 105.427 40.6022C105.466 39.8779 105.776 39.1998 105.896 38.7718C106.06 38.1812 106.061 37.6119 105.922 37.9346C105.609 38.6558 105.025 40.0501 104.905 40.9963C104.784 41.9424 105.09 42.5522 105.507 42.7603C106.027 43.0212 106.401 42.6074 106.654 41.9976C106.897 41.4136 106.851 40.7319 106.682 40.8924C106.541 41.0601 106.488 41.6218 106.312 41.676Z" fill="white"/>
<path d="M101.116 44.5904C101.307 44.0809 101.352 43.5815 101.205 43.8555C100.872 44.4693 100.25 45.6555 100.067 46.4796C99.8853 47.3036 100.106 47.8613 100.457 48.0725C100.894 48.3368 101.254 47.998 101.526 47.4789C101.786 46.982 101.799 46.3788 101.639 46.5095C101.501 46.6472 101.41 47.137 101.252 47.1729C100.924 47.2454 100.456 46.8706 100.557 46.1676C100.649 45.5345 100.977 44.9586 101.116 44.5904Z" fill="white"/>
<path d="M85.9804 55.3395C86.3009 54.8193 86.4603 54.2799 86.2379 54.5524C85.7416 55.1612 84.8021 56.3428 84.423 57.2094C84.045 58.076 84.1655 58.7268 84.5024 59.0231C84.9226 59.3928 85.391 59.089 85.8002 58.5729C86.193 58.078 86.3398 57.4216 86.1343 57.5335C85.9541 57.6597 85.7481 58.1778 85.5668 58.1874C85.1937 58.2057 84.7632 57.7088 85.0272 56.9602C85.2661 56.2846 85.7487 55.7163 85.9804 55.3395Z" fill="white"/>
<path d="M112.515 40.1594C112.148 40.2516 111.604 39.8398 111.695 39.0411C111.778 38.3203 112.129 37.6594 112.273 37.239C112.474 36.657 112.508 36.0893 112.35 36.4033C111.995 37.1083 111.329 38.4697 111.151 39.4088C110.973 40.3473 111.242 40.9718 111.646 41.2012C112.15 41.4869 112.547 41.0938 112.837 40.4972C113.115 39.9269 113.11 39.2442 112.931 39.3961C112.78 39.5572 112.694 40.1148 112.515 40.1594Z" fill="white"/>
<path d="M112.403 49.9582C112.906 50.2438 113.304 49.8508 113.594 49.2542C113.871 48.6839 113.867 48.0011 113.689 48.1531C113.537 48.3131 113.451 48.8718 113.272 48.9163C112.905 49.008 112.36 48.5967 112.452 47.798C112.535 47.0773 112.885 46.4158 113.03 45.996C113.23 45.414 113.264 44.8452 113.107 45.1603C112.751 45.8653 112.086 47.2267 111.908 48.1647C111.729 49.1042 111.998 49.7287 112.403 49.9582Z" fill="white"/>
<path d="M118.83 37.4414C119.072 36.7374 119.114 36.0501 118.922 36.4304C118.492 37.2834 117.686 38.9304 117.471 40.0675C117.256 41.2035 117.582 41.9587 118.071 42.2368C118.68 42.5822 119.161 42.1066 119.512 41.3854C119.847 40.695 119.842 39.8679 119.626 40.0528C119.444 40.2468 119.339 40.9214 119.122 40.9756C118.679 41.087 118.02 40.5892 118.131 39.6228C118.231 38.7506 118.656 37.9509 118.83 37.4414Z" fill="white"/>
<path d="M67.4644 49.6185C67.8604 48.7605 68.004 47.9015 67.7125 48.3588C67.0601 49.3824 65.8313 51.3643 65.4117 52.7683C64.9915 54.1728 65.3027 55.1594 65.8806 55.5641C66.6016 56.0665 67.2693 55.5215 67.8046 54.6549C68.3168 53.8238 68.4187 52.783 68.1234 52.9911C67.8686 53.214 67.6484 54.0517 67.369 54.0958C66.7949 54.1859 66.0324 53.486 66.2986 52.2831C66.5396 51.1977 67.1784 50.2394 67.4644 49.6185Z" fill="white"/>
<path d="M122.925 58.1249C123.229 57.8762 125.868 56.4545 126.354 56.1658C126.354 56.1658 126.851 55.3554 126.702 55.2693C126.553 55.1832 125.589 56.0594 124.99 56.0838C124.39 56.1081 123.569 55.6674 123.542 55.3063C123.62 55.0338 124.342 54.6246 124.602 54.6079C124.863 54.5927 124.821 55.1863 124.908 55.2587C124.995 55.3301 125.342 54.8489 125.386 54.6484C125.428 54.4483 125.393 53.6106 124.916 53.7306C124.16 53.9216 123.021 55.3225 122.891 55.7631C122.76 56.2048 123.464 56.5892 123.978 56.7984C123.934 56.8146 123.551 56.999 123.308 57.239C123.308 57.239 123.047 57.5313 122.925 58.1249Z" fill="white"/>
<path d="M113.925 59.8859C114.229 59.6372 116.868 58.2165 117.354 57.9268C117.354 57.9268 117.852 57.1164 117.702 57.0303C117.553 56.9442 116.589 57.8204 115.99 57.8447C115.39 57.8691 114.569 57.4284 114.542 57.0673C114.62 56.7948 115.342 56.3856 115.602 56.3699C115.863 56.3537 115.821 56.9467 115.908 57.0187C115.995 57.0911 116.342 56.6099 116.386 56.4094C116.428 56.2093 116.392 55.3716 115.916 55.4916C115.16 55.6836 114.021 57.0835 113.891 57.5251C113.76 57.9658 114.464 58.3502 114.977 58.5594C114.934 58.5756 114.551 58.7594 114.308 59C114.308 59 114.047 59.2923 113.925 59.8859Z" fill="white"/>
<path d="M93.6524 34.4039C93.8891 34.6789 95.4394 36.6486 96.6539 37.887C97.8679 39.1263 99.949 41.132 101.478 42.5066C101.774 42.773 102.088 43.0617 102.407 43.3621C102.793 46.3229 103.239 50.0907 103.426 51.6486C103.611 53.1827 103.638 55.12 103.642 55.4574C103.645 55.7952 103.888 55.7263 104.12 54.9681C104.43 53.9506 104.465 51.3159 104.301 49.5756C104.199 48.5008 103.958 46.4876 103.726 44.6313C104.628 45.5232 105.481 46.408 106.056 47.0705C107.113 48.2866 108.002 49.2038 108.544 50.5111C108.927 51.4359 108.888 52.1718 109.045 52.3172C109.181 52.4428 109.331 51.3361 109.164 50.2629C108.892 48.5201 108.52 47.7811 106.282 45.2928C105.429 44.3416 104.424 43.3474 103.442 42.418C103.404 42.1313 103.37 41.8659 103.338 41.6304C103.261 41.0484 102.502 36.017 102.443 35.4533C102.392 34.9625 102.302 34.3846 102.31 34.1117C102.315 33.8944 102.453 33.979 102.67 34.2008C102.886 34.4221 103.264 34.8096 103.328 34.7757C103.539 34.6663 103.304 34.0164 103.007 33.4335C102.712 32.8515 101.695 30.5491 101.491 30.4579C101.387 30.4113 100.777 31.8553 100.746 32.1379C100.852 32.3121 101.12 32.5836 101.149 33.3707C101.157 33.5905 101.353 35.66 101.597 37.614C101.814 39.3406 102.083 40.978 102.111 41.1675L102.112 41.1822C101.099 40.2583 100.206 39.4738 99.6652 38.981C98.3998 37.8308 95.6048 35.1013 95.4925 34.6926C95.4673 34.5634 95.6843 34.643 96.0831 34.7068C96.4835 34.7711 96.8396 34.9073 96.7755 34.7108C96.7465 34.6181 96.5931 34.3892 96.2113 34.1532C95.8289 33.9167 94.8494 33.3038 94.1208 32.8703C93.3906 32.4372 93.029 32.0741 92.8784 32.1779C92.8039 32.2291 92.8701 33.7125 92.914 33.8974C93.0964 33.9131 93.4169 34.1279 93.6524 34.4039Z" fill="white"/>
<path d="M95.648 31.7361C95.9476 31.6703 97.3676 31.7063 97.8831 31.8146C97.6672 31.9646 96.2144 32.6984 95.9274 32.8732C95.642 33.0484 95.5697 33.1497 95.7132 33.1325C96.1295 33.017 97.0679 32.8732 97.5177 32.6387C97.9417 32.4401 98.6643 31.4717 98.9453 31.1106C99.2247 30.7495 99.2247 30.5692 99.1535 30.4725C98.8664 30.3165 97.0159 30.16 96.1235 30.3813C95.8764 30.5489 95.3933 31.4419 95.322 31.6277C95.2508 31.8146 95.3483 31.802 95.648 31.7361Z" fill="white"/>
<path d="M103.545 31.62C103.787 31.5668 104.931 31.5957 105.346 31.6828C105.173 31.8038 104.002 32.3954 103.771 32.5372C103.539 32.6775 103.482 32.7595 103.598 32.7454C103.933 32.6532 104.69 32.5372 105.052 32.3473C105.393 32.1872 105.976 31.4067 106.202 31.1165C106.427 30.8248 106.427 30.6799 106.369 30.6024C106.139 30.4753 104.648 30.3497 103.928 30.5285C103.729 30.6632 103.341 31.3829 103.283 31.5328C103.224 31.6828 103.304 31.6731 103.545 31.62Z" fill="white"/>
<path d="M109.966 31.5374C110.207 31.4843 111.351 31.5131 111.766 31.6002C111.593 31.7213 110.422 32.3129 110.191 32.4537C109.96 32.595 109.903 32.677 110.018 32.6628C110.354 32.5707 111.169 32.4537 111.531 32.2648C111.873 32.1047 112.278 31.3242 112.504 31.033C112.73 30.7423 112.73 30.5964 112.672 30.5199C112.442 30.3928 111.067 30.2672 110.349 30.445C110.15 30.5807 109.76 31.3004 109.703 31.4503C109.645 31.6002 109.723 31.5906 109.966 31.5374Z" fill="white"/>
<path d="M105.96 34.6642C105.58 35.2629 106.056 35.7461 106.23 36.2298C105.995 36.444 105.635 36.2485 105.515 36.0606C105.258 35.6752 105.344 34.8896 105.042 34.7686C104.965 34.9808 104.915 35.2163 104.915 35.2163C104.915 35.2163 105.144 35.7537 105.087 36.1092C105.05 36.324 104.86 36.5747 104.61 36.5797C103.943 36.5959 104.272 35.6083 104.014 35.0486C103.961 35.1854 103.924 35.3323 103.862 35.4604C103.909 35.6063 103.935 35.8109 103.943 35.9289C103.958 36.1634 103.94 36.4161 103.98 36.6162C104.035 36.8993 104.192 37.0872 104.432 37.1055C104.931 37.145 105.158 36.7413 105.233 36.4101C105.319 36.7479 105.978 37.1202 106.302 36.7053C106.732 36.1583 106.388 35.6898 106.168 35.1753C106.009 34.7949 106.055 34.5452 105.96 34.6642Z" fill="white"/>
<path d="M87.2327 33.0765C87.2672 33.3226 87.3937 33.4908 87.6002 33.5161C88.0264 33.5703 88.2423 33.2314 88.3228 32.9498C88.3792 33.2441 88.9303 33.5905 89.23 33.2471C89.6261 32.7928 89.3516 32.3755 89.1862 31.9232C89.0678 31.5879 89.1188 31.3752 89.0311 31.474C88.6751 31.9733 89.0635 32.4104 89.19 32.8344C88.9774 33.0086 88.6767 32.8258 88.5814 32.6601C88.3787 32.3172 88.4893 31.6441 88.2363 31.5271C88.1596 31.7074 88.1053 31.9075 88.1053 31.9075C88.1053 31.9075 88.2768 32.38 88.21 32.6834C88.1689 32.8673 87.9941 33.0754 87.7772 33.0699C87.2025 33.0572 87.5323 32.2195 87.3362 31.7277C87.2852 31.8427 87.2453 31.9688 87.1855 32.0751C87.2201 32.2038 87.2327 32.38 87.2327 32.4829C87.237 32.6855 87.2086 32.9012 87.2327 33.0765Z" fill="white"/>
<path d="M100.831 56.2724C100.895 56.1706 101.036 55.8911 101.001 55.7001C100.965 55.5092 100.731 54.7125 100.277 54.5129C99.8255 54.3134 99.4836 54.7317 99.2673 55.3137L99.1171 55.3101C99.0815 55.3962 99.0366 55.5249 99.001 55.7573C98.9506 56.0931 98.8553 56.3094 98.2795 56.8321C97.7953 57.2697 96.2263 58.3207 95.2096 58.8145C94.1917 59.3093 93.4593 59.7363 93.1892 59.8659C92.9203 59.9936 92.9986 60.0412 93.2676 59.9606C93.536 59.8806 94.8869 59.4456 95.4254 59.2237C95.9628 59.0004 96.6202 58.6332 97.4124 58.1191C98.2932 57.5478 98.8197 56.9764 98.9966 56.47C99.1226 56.1088 99.1549 55.9645 99.1549 55.9645C99.1549 55.9645 99.4858 56.16 100.047 56.2881C100.607 56.4168 100.766 56.3753 100.831 56.2724ZM100.071 55.1404C100.321 55.2352 100.472 55.5066 100.517 55.6712C100.231 55.6778 99.705 55.5325 99.4809 55.4312C99.6157 55.1703 99.8501 55.0574 100.071 55.1404Z" fill="white"/>
<path d="M94.8675 56.8327C94.0863 56.7243 92.118 56.4249 91.6365 55.2823C92.0408 54.6928 93.9028 53.9462 96.2354 53.2478C98.568 52.5509 101.005 51.6463 101.66 51.2097C101.804 51.1611 102.082 51.1758 102.082 51.1758C102.199 50.8379 102.785 49.6517 102.821 49.4036C102.169 49.4405 98.1511 49.7358 96.3664 49.8315C94.5805 49.9278 91.1413 49.9045 89.9953 49.8918C90.6981 49.3863 92.3662 48.3997 94.7503 47.5579C95.0593 47.4485 95.3452 47.3498 95.612 47.2606C95.8103 47.6142 95.9577 47.9636 95.9884 48.268C96.1401 48.112 96.2541 47.5949 96.2157 47.0641C97.6055 46.6204 98.3215 46.4736 98.6305 46.39C98.8255 46.1373 99.1712 45.1152 99.2227 44.3722C99.015 43.9938 98.3648 43.5228 97.7863 43.1181C96.9892 42.5615 96.1297 42.0763 95.2718 42.2885C94.0989 42.5762 93.8639 44.7308 94.1373 45.1876C94.2244 45.332 94.4309 45.5877 94.6747 45.9033C93.8179 46.2401 92.9217 46.6361 92.1317 47.0525C90.3722 47.9793 88.4077 48.9933 87.8347 49.9683L87.6703 50.0483C87.6243 50.1405 87.2617 51.6493 87.2091 51.8119C87.575 51.7992 90.3075 51.8043 92.2106 51.745C94.1126 51.6843 95.7758 51.624 96.4272 51.624C95.4625 51.8524 92.9343 52.7919 92.2073 53.3445C91.4804 53.8986 91.0235 54.7409 91.0115 56.1849C90.3338 55.9195 89.0744 55.3132 88.0012 53.8616C86.8048 52.2439 87.0524 50.5801 86.5736 48.3967C85.8779 45.2281 84.3922 42.5529 83.467 41.7344C83.1552 42.8527 83.1153 43.6955 83.1153 43.6955C83.1153 43.6955 84.2744 46.2583 84.8611 47.8943C85.4479 49.5307 85.9491 51.1428 85.9245 51.504C85.4413 52.5635 82.5811 54.7829 80.1976 56.082C77.9373 57.3138 75.946 57.4465 75.2404 56.5693C75.1018 56.3981 75.0076 56.1955 74.9545 55.9661C75.2612 55.8227 75.5691 55.6784 75.8846 55.534C77.917 54.6082 81.5266 52.6592 82.3724 51.6367C83.2851 50.3973 83.2725 48.6525 82.7373 47.6537C82.2042 46.6554 81.3683 45.4996 81.3031 45.0909C81.2521 44.8979 81.846 45.1694 82.1966 45.1876C82.3664 45.1749 82.2815 44.9465 81.9172 44.5854C81.6257 44.2977 80.4989 43.3643 80.0683 43.0001C79.9604 42.9074 79.8799 42.9449 79.858 43.0427C79.7741 43.4154 79.6027 44.2136 79.5364 44.6077L79.5824 44.8062C79.7062 44.8797 79.8486 44.9622 79.9177 45.1684C80.0152 45.4606 80.3565 46.276 80.9158 47.3052C81.4762 48.3339 82.2859 49.4694 82.3653 50.0427C81.7068 50.8825 78.3865 52.6709 75.1522 54.1448C75.3522 53.5248 75.6677 52.8238 76.0862 52.0454C76.2051 51.9137 76.3136 51.7511 76.4144 51.5678C76.737 50.9782 76.7683 50.2575 76.5727 50.4099C76.4051 50.5715 76.2846 51.1565 76.0928 51.196C75.7 51.2765 75.1489 50.8182 75.2875 49.9799C75.413 49.2238 75.8173 48.541 75.992 48.1039C76.2342 47.4992 76.3004 46.9015 76.1169 47.2267C75.7044 47.953 74.9304 49.36 74.6926 50.3431C74.4559 51.3247 74.7074 51.9957 75.1221 52.2556C75.2771 52.3543 75.4256 52.3852 75.5669 52.366C75.2831 52.9059 74.9325 53.5684 74.6767 54.3585C73.3762 54.9404 72.1108 55.4606 71.0633 55.8354C67.2982 57.1831 64.615 57.9773 62.7382 58.5668L62.6648 58.5998C62.8028 58.1536 62.7842 57.7727 62.6363 57.8872C62.4687 58.0497 62.3487 58.6347 62.157 58.6732C61.7642 58.7537 61.2131 58.2959 61.3511 57.4571C61.4771 56.701 61.8814 56.0192 62.0562 55.5816C62.2972 54.9774 62.364 54.3787 62.1811 54.7044C61.768 55.4307 60.9945 56.8377 60.7567 57.8203C60.5195 58.8024 60.771 59.4735 61.1851 59.7338C61.7012 60.0579 62.1411 59.6603 62.4785 59.0455L62.5968 58.7927C62.7141 58.7927 62.9118 58.7654 63.2071 58.6995C64.0672 58.5061 66.2174 58.1941 69.1739 57.8086C71.363 57.524 72.8744 56.9228 74.3354 56.2537C74.3289 56.4153 74.3272 56.5799 74.3343 56.7496C74.4138 58.7558 75.7285 59.322 77.5264 58.9467C79.2608 58.5826 81.6794 56.9922 83.129 55.9195C84.6404 54.8012 85.5125 53.8019 85.7349 53.4534C86.1381 52.599 86.2488 51.6549 86.2761 51.2097C86.4082 52.4364 86.515 54.1341 87.6753 55.5903C88.7435 56.9304 90.9326 58.8003 95.05 58.8515C95.0636 58.3617 94.8675 56.8327 94.8675 56.8327ZM94.5953 44.4015C95.1847 43.7401 96.4425 44.1726 97.3864 45.0114C96.9027 45.1248 96.2458 45.3269 95.5211 45.5857C95.0905 45.0666 94.6101 44.5662 94.5953 44.4015Z" fill="white"/>
<path d="M71.4476 35.3324C71.7149 35.2103 72.5328 34.8426 73.4142 34.3291C74.294 33.819 75.1207 33.2011 75.5249 32.7904C75.68 32.6329 75.818 32.5098 75.9062 32.3634C76.1703 32.4728 76.3521 32.5863 76.4655 32.6308C76.6359 32.6967 76.8633 32.7914 77.0112 32.3062C77.1585 31.8215 76.963 31.5085 76.6748 31.1347C76.431 30.8212 76.0443 30.3501 75.7304 30.2331C75.4641 30.1334 75.3376 30.728 75.3781 30.7133H75.5562L75.5907 30.73C75.2242 30.9149 74.9404 31.4902 74.9119 31.6923C74.8829 31.9121 74.9245 32.0742 75.4504 32.2094L75.6619 32.2717C75.2231 32.7914 74.4052 33.3288 73.8481 33.7096C73.0576 34.2516 71.9357 34.9287 71.6163 35.1242C71.2969 35.3187 71.3237 35.38 71.4476 35.3324ZM76.1982 31.5145L76.2267 31.2547C76.5965 31.6761 76.8709 32.1775 76.8435 32.2484C76.6737 32.2621 76.4623 32.1051 76.0925 31.9471C76.1336 31.8215 76.1681 31.6827 76.1982 31.5145ZM75.1365 31.5151C75.1343 31.436 75.2768 31.2162 75.5781 31.0962C75.8788 30.9751 76.0119 31.313 76.0382 31.7242L75.9489 31.8888L75.6778 31.7951C75.3907 31.7111 75.1968 31.6635 75.1365 31.5151Z" fill="white"/>
<path d="M91.1624 43.2652C91.5962 42.9786 92.7888 42.1175 93.4654 41.5533C93.936 41.1613 94.4887 40.5839 94.864 40.0957C95.0995 40.2481 95.3192 40.3833 95.5191 40.5008C95.9048 40.7262 96.0598 41.0605 96.0598 41.0605C96.1311 40.9511 96.463 40.3524 96.3332 40.0612C96.2554 39.966 95.781 39.6889 95.2962 39.3921C95.5422 38.8401 95.8807 37.8854 95.3959 37.5511C94.9812 37.2675 94.2816 37.737 93.9579 38.3463C93.6905 38.8507 93.656 39.2787 94.166 39.6292C94.3096 39.7279 94.4471 39.8211 94.5818 39.9098C94.0674 40.4725 93.1197 41.3051 92.4454 41.8719C91.6077 42.5729 90.8156 43.2602 90.6776 43.4243L90.6376 43.4881C90.4546 42.9786 90.5044 42.664 90.3686 42.8332C89.7819 43.7535 90.517 44.499 90.7844 45.2435C90.4228 45.5717 89.869 45.2704 89.6833 44.9832C89.2878 44.3886 89.4198 43.1811 88.9569 42.9943C88.8374 43.3204 88.7597 43.6836 88.7597 43.6836C88.7597 43.6836 89.1119 44.5107 89.0226 45.0566C88.9673 45.3869 88.6747 45.7733 88.2907 45.7799C87.263 45.8062 87.7698 44.2858 87.3731 43.4248C87.2926 43.636 87.2351 43.8619 87.1387 44.0574C87.2115 44.2838 87.2515 44.5978 87.2619 44.7796C87.2882 45.1407 87.2586 45.5282 87.3195 45.8382C87.4044 46.2737 87.6465 46.5634 88.0163 46.5903C88.7827 46.6526 89.1327 46.0296 89.2489 45.5216C89.3809 46.0413 90.396 46.6126 90.895 45.9754C91.5563 45.1331 91.0271 44.4119 90.6891 43.6198L90.6491 43.5169C90.6962 43.5337 90.8731 43.4562 91.1624 43.2652ZM94.16 38.5225C94.4142 38.051 94.9494 38.011 95.1099 38.2581C95.2376 38.4546 95.248 38.8381 95.0562 39.2427C94.584 38.9464 94.1628 38.6562 94.16 38.5225Z" fill="white"/>
<path d="M74.4324 40.2666C73.5296 40.2028 73.0437 39.3757 72.766 38.1809C72.4877 36.9861 72.6581 35.4105 72.7337 35.0068C72.8093 34.6036 72.3836 34.8118 72.2182 35.7908C72.0538 36.7688 71.8884 38.3329 72.4707 39.9703C73.052 41.6057 74.043 42.2161 74.9112 42.0069C75.7795 41.7987 76.5437 39.7611 76.8133 38.8469C77.0822 37.9322 78.2858 34.202 78.9673 34.0014C79.0626 34.4588 78.4375 35.606 78.2376 37.3305C78.0387 39.0551 78.3849 41.3171 80.574 41.7182C82.7631 42.1198 84.2482 40.6996 84.7867 39.7125C85.3257 38.7269 85.5772 37.6906 85.638 37.17C85.7081 38.4934 86.6109 40.5599 88.3645 41.1489C90.0589 41.7182 91.3534 41.197 91.9253 40.4591C92.4331 39.8037 92.8467 38.4539 92.8823 37.4187C92.9168 36.3844 92.0228 34.4917 91.8228 33.889C91.6223 33.2878 91.5188 32.8704 91.5013 32.6623C91.4843 32.4541 91.9538 32.9034 92.249 32.9915C92.449 33.0315 92.3789 32.5985 92.1356 32.3012C91.893 32.0049 90.5793 30.0129 90.4873 30.1516C90.4308 30.2347 89.9049 31.7 89.8704 31.9243C90.0786 32.0611 90.3196 32.4379 90.3377 32.799C90.3541 33.1602 90.702 34.748 91.0236 35.6303C91.3451 36.5126 91.9702 38.2052 92.014 38.6707C91.389 39.1113 89.9811 39.672 88.6439 39.1037C87.3066 38.5334 86.8799 37.7074 86.7325 36.2315C86.6383 35.2884 86.629 33.5512 86.2926 32.0986C86.1031 31.2776 85.7037 30.4429 85.2293 29.9997C85.1176 30.2717 84.6136 31.9486 84.6136 31.9486C84.7779 32.4298 85.289 34.05 85.2726 35.454C85.2545 36.857 85.1439 38.23 83.5705 39.1762C81.9983 40.1223 79.7583 39.7454 79.176 38.269C78.5936 36.7931 79.8881 33.4726 79.8712 32.5985C79.8536 31.7243 79.6964 31.6032 79.3321 31.7481C78.9673 31.8924 78.2195 32.7352 77.5775 34.1063C76.9343 35.4783 76.6489 36.8494 76.283 38.0047C75.9187 39.1599 75.3352 40.3304 74.4324 40.2666Z" fill="white"/>
<path d="M48.2196 35.1494C49.3305 35.0688 50.2695 34.2266 50.5122 34.0027C50.7554 33.7773 50.8863 33.4415 50.7121 33.5692C49.427 34.7163 47.7074 34.7488 47.611 34.5558C47.6548 34.3633 48.1073 34.0503 48.7674 33.6097C49.1684 33.3417 49.5256 33.0905 49.7929 32.7345L49.8658 32.7471C50.355 32.8545 50.9198 33.0682 51.0923 32.8971C51.3733 32.62 51.4106 32.1662 51.106 31.6769C50.8485 31.2616 50.2481 30.8752 49.7266 30.5961C49.2062 30.3186 49.1054 30.7617 49.0386 30.9197C48.9745 31.0671 49.0008 31.1927 49.1109 31.1958C48.9432 31.4242 48.8238 31.7185 48.78 31.9616C48.7515 32.1186 48.7745 32.2472 48.8386 32.3531C48.8572 32.383 48.9536 32.501 49.1361 32.5709L49.3623 32.6413C48.9728 33.0009 48.5242 33.2825 48.2886 33.4248C47.8635 33.6816 47.3595 34.1308 47.2034 34.5953C47.0467 35.0613 47.1075 35.2299 48.2196 35.1494ZM50.1835 31.8724L50.2262 31.6354V31.4835C50.5785 31.7397 51.1416 32.225 51.1071 32.5157C50.8841 32.465 50.459 32.3754 50.0553 32.2715C50.1068 32.1505 50.149 32.0178 50.1835 31.8724ZM49.1394 31.9464C48.8802 31.7397 49.1328 31.5336 49.3623 31.4009C49.6587 31.2297 49.8323 31.371 49.9841 31.8203C49.931 31.9489 49.8564 32.074 49.7688 32.1941C49.5382 32.1226 49.2133 32.0082 49.1394 31.9464Z" fill="white"/>
<path d="M51.552 47.6962C51.2327 47.9732 51.1089 48.8748 51.1741 48.929C51.2387 48.9831 52.2368 49.32 52.3929 49.3929L52.4642 49.1214C52.9397 49.5484 53.4667 51.6786 53.5839 51.6847C53.7011 51.6903 53.871 51.4436 53.9822 50.8779C54.0846 50.3532 54.187 49.5681 54.2939 48.929C54.3936 48.344 54.5486 48.0092 54.9003 47.9423C55.2525 47.8765 55.5133 48.3278 55.6042 48.6347C55.6042 48.6347 55.8513 48.0446 55.9039 47.6779C55.8453 47.485 55.2975 46.7577 54.8483 46.9982C54.3985 47.2393 54.1169 48.2599 54.026 48.8981C53.9345 49.5352 53.8644 50.3253 53.7537 50.4519C53.6376 49.908 53.2656 48.9345 52.8164 48.3875C52.3113 47.7747 51.7208 47.5498 51.552 47.6962Z" fill="white"/>
<path d="M47.2941 46.6072C47.711 46.4927 48.6494 46.3489 49.0986 46.1144C49.5221 45.9158 50.2447 44.9474 50.5251 44.5863C50.8051 44.2252 50.8056 44.0439 50.7344 43.9481C50.4479 43.7911 48.5968 43.6356 47.7039 43.857C47.4574 44.0236 46.9747 44.9165 46.9035 45.1034C46.8312 45.2893 46.9298 45.2776 47.2289 45.2118C47.5286 45.1449 48.9491 45.1809 49.4629 45.2893C49.2487 45.4402 47.7959 46.1741 47.5089 46.3489C47.2229 46.5231 47.1506 46.6254 47.2941 46.6072Z" fill="white"/>
<path d="M133.358 51.777C133.315 50.6946 132.785 49.0328 130.769 46.4832C130.073 45.6029 129.094 44.4573 128.061 43.2838C128.033 42.8836 128.005 42.518 127.979 42.2039C127.843 40.5888 127.385 37.2936 127.188 35.3457C127.14 34.8544 127.136 34.3317 127.143 34.0587C127.15 33.8419 127.306 33.8708 127.521 34.0936C127.736 34.316 128.066 34.6406 128.135 34.6184C128.282 34.5677 128.155 34.0759 127.862 33.4929C127.569 32.909 126.463 30.5472 126.26 30.4556C126.155 30.409 125.634 31.7957 125.601 32.0794C125.705 32.2536 125.972 32.5245 125.998 33.3131C126.025 34.1012 126.501 38.7558 126.774 41.6888L126.789 41.8524C125.245 40.1289 123.791 38.5573 123.193 37.9201C123.09 37.8097 122.976 37.6841 122.853 37.5494C122.755 36.7648 122.666 36.0173 122.604 35.3999C122.553 34.9096 122.55 34.3859 122.559 34.1129C122.564 33.8966 122.721 33.926 122.936 34.1488C123.151 34.3712 123.481 34.6958 123.55 34.6725C123.697 34.6229 123.569 34.1311 123.276 33.5471C122.984 32.9632 121.831 30.5472 121.626 30.4556C121.523 30.409 120.977 31.9061 120.945 32.1877C121.049 32.363 121.316 32.634 121.343 33.4225C121.353 33.7573 121.44 34.7723 121.556 36.0532C120.533 34.8372 119.531 33.5639 119.46 33.305C119.435 33.1774 119.651 33.2559 120.051 33.3207C120.45 33.3846 120.824 33.5046 120.76 33.3071C120.73 33.2154 120.578 32.9865 120.196 32.7494C119.814 32.5129 118.834 31.9001 118.106 31.4675C117.375 31.0345 117.014 30.6703 116.863 30.7741C116.789 30.8253 116.855 32.3098 116.898 32.4937C117.081 32.5104 117.42 32.6466 117.636 32.9353C117.854 33.224 119.25 35.1811 120.354 36.5045C120.671 36.8854 121.169 37.4759 121.751 38.1576C121.865 39.3768 121.985 40.6364 122.083 41.6888C122.307 44.0896 123.113 50.4211 123.12 52.479C122.526 53.0366 121.31 53.8145 120.06 53.8308C118.809 53.8465 118.123 53.5172 117.619 52.5873C117.463 52.2991 117.319 52.0094 117.175 51.7471C116.835 51.1236 116.074 50.7736 115.341 50.9453L115.229 50.9752L115.03 51.0709C114.534 51.3308 114.02 51.7663 113.519 52.442C112.651 53.614 112.097 54.8852 111.454 55.9863C110.786 57.133 110.272 57.9024 109.099 57.7185C108.273 57.5889 107.646 56.8803 107.259 56.0086C108.345 55.257 109.134 54.2765 109.711 52.9176C110.462 51.1515 110.73 49.1605 110.663 46.9218C110.599 44.8149 109.638 39.8579 109.385 37.9581C109.132 36.0573 108.768 34.4973 108.81 34.0916C108.85 33.7001 109.473 34.6219 109.792 34.6908C109.956 34.6543 109.868 34.0663 109.558 33.5694C109.348 33.2316 108.681 31.6949 108.245 30.9539C108.041 30.6035 107.991 30.4004 107.896 30.3588C107.802 30.3158 107.076 31.8661 107.163 32.0348C107.378 32.3417 107.525 32.4881 107.57 33.0381C107.616 33.5882 108.113 37.6258 108.548 40.5994C108.876 42.8431 109.6 46.9188 109.693 49.9313C109.723 50.9144 109.583 51.62 109.462 52.014C109.149 52.6177 108.64 53.2883 106.852 54.5611C106.576 52.7626 106.876 51.3014 106.615 51.1661C106.319 51.1981 106.272 52.0363 106.239 53.0705C106.222 53.5481 106.243 54.2096 106.333 54.9202C104.137 56.388 101.236 57.7246 99.8731 58.4382C99.0739 58.8576 99.362 58.9553 100.039 58.7462C100.715 58.536 104.433 57.561 106.418 56.5171L106.632 56.3986C106.732 56.7486 106.854 57.0874 107.005 57.3999C107.672 58.7877 108.627 59.6117 109.66 59.5312C110.53 59.4644 111.16 58.5339 111.71 57.4242C112.266 56.3009 113.206 54.1676 114.127 53.3739C114.481 53.068 114.847 52.8259 115.203 52.6805C115.203 52.6805 115.833 52.4703 116.412 52.8487C116.619 52.9854 116.774 53.1799 116.872 53.3977C117.101 53.8976 117.371 54.5338 117.923 55.0666C118.896 56.0036 120.461 55.8101 121.634 55.2651C122.806 54.7196 123.404 53.8687 123.665 52.8578C124.11 51.1282 124.038 49.356 123.953 47.7818C123.855 45.9853 123.568 44.1493 123.405 42.2039C123.352 41.5784 123.25 40.7083 123.132 39.7647C124.275 41.0836 125.462 42.4222 126.181 43.1541C126.43 43.4068 126.691 43.6874 126.96 43.9837C127.175 46.9284 127.382 50.6131 127.491 52.1594C127.599 53.7001 127.529 55.6369 127.516 55.9737C127.503 56.3105 127.691 56.2528 127.96 55.5052C128.32 54.5018 128.546 51.8707 128.467 50.1258C128.42 49.0891 128.317 47.1989 128.205 45.411C129.092 46.465 129.934 47.5291 130.482 48.2473C131.456 49.5226 132.35 51.039 132.663 51.9851C132.975 52.9323 133.01 53.2128 133.071 53.3815C133.132 53.5502 133.4 52.8593 133.358 51.777Z" fill="white"/>
<path d="M116.91 87.8024C116.822 87.5508 116.552 87.3662 116.23 87.3662C115.908 87.3662 115.639 87.5508 115.551 87.8024H112.5C112.469 87.464 112.499 87.1239 112.595 86.7926L118.894 86.7887L119.069 87.0844C119.227 87.3508 119.427 87.5915 119.659 87.8025L116.91 87.8024ZM121.079 84.8755H113.51C114.092 84.4557 114.397 83.8431 114.315 83.2233C114.263 82.8327 113.876 82.5409 113.404 82.5013H113.167C112.593 82.5574 112.177 82.9711 112.238 83.4255L112.261 83.6002L112.289 83.8689C112.32 84.2063 112.29 84.5453 112.195 84.8755H56.2471C57.0778 86.0843 58.5925 86.8255 60.2282 86.8244L111.281 86.793C110.698 87.2133 110.391 87.8271 110.474 88.448C110.534 88.9024 111.048 89.226 111.622 89.1699C112.195 89.1139 112.611 88.7002 112.552 88.2452L112.528 88.071H115.529C115.582 88.3639 115.874 88.5886 116.23 88.5886C116.587 88.5886 116.879 88.3639 116.932 88.071H119.984V88.0639C120.622 88.5161 121.431 88.776 122.288 88.776C123.094 88.776 123.747 88.2161 123.747 87.5249V87.1634C123.747 85.9002 122.553 84.8754 121.08 84.8754" fill="white"/>
</g>
<defs>
<clipPath id="clip0_307_46515">
<rect width="180" height="120" fill="white"/>
</clipPath>
</defs>
</svg>
