<svg width="180" height="120" viewBox="0 0 180 120" fill="none" xmlns="http://www.w3.org/2000/svg">
<g clip-path="url(#clip0_909_102749)">
<path d="M0 120H180V0H0V120Z" fill="#005801"/>
<path d="M135 47.6645C134.987 45.5566 134.17 39.8784 133.962 37.9735C133.755 36.0686 133.546 34.3405 133.596 33.9358C133.646 33.5453 134.247 34.4788 134.564 34.5542C134.729 34.5213 134.655 33.9318 134.357 33.4283C134.155 33.0865 133.466 31.8081 133.048 31.059C132.851 30.7045 132.807 30.4988 132.712 30.4553C132.618 30.4117 131.857 31.9469 131.94 32.1171C132.148 32.429 132.29 32.578 132.323 33.129C132.356 33.6801 132.641 37.6144 133.004 40.5966C133.277 42.8464 133.877 47.6934 133.898 50.707C133.904 51.6901 133.795 52.6271 133.664 53.0186C133.329 53.6334 132.804 54.188 130.849 55.3317C128.652 56.6176 125.721 57.6878 124.461 58.404C123.677 58.8507 123.937 58.9105 124.619 58.715C125.299 58.5195 128.817 57.893 130.527 57.1707C132.131 56.491 133.172 55.354 133.963 53.6952C134.939 51.6445 135.014 49.9042 135 47.6645Z" fill="white"/>
<path d="M128.197 31.6523C128.367 31.5864 129.774 31.514 130.152 31.592C129.903 31.9475 128.217 32.7346 128.21 32.879C128.256 32.9762 129.375 32.6992 129.728 32.5452C129.958 32.4064 130.112 32.1917 130.283 32.0134C130.686 31.5494 131.164 30.6889 131.044 30.581C130.848 30.4068 128.932 30.5152 128.679 30.5512C128.51 30.5755 128.08 31.3453 128.001 31.5429C127.924 31.7404 128.028 31.7181 128.197 31.6523Z" fill="white"/>
<path d="M131.07 44.1464C131.363 43.1537 131.435 41.9493 131.037 40.6815C130.627 39.3763 129.609 38.5807 128.875 38.1729L128.744 39.4295C128.744 39.4295 129.773 39.9411 130.477 41.2291C130.923 42.046 131.109 43.2013 130.757 44.4893C130.698 44.8089 130.926 44.6326 131.07 44.1464Z" fill="white"/>
<path d="M120.18 50.448C120.444 49.554 120.509 48.4696 120.15 47.328C119.781 46.1525 118.865 45.4358 118.203 45.0701L118.085 46.2011C118.085 46.2011 119.012 46.662 119.646 47.8208C120.048 48.5557 120.215 49.5976 119.898 50.7569C119.846 51.0436 120.051 50.8856 120.18 50.448Z" fill="white"/>
<path d="M82.3725 33.3382C82.7965 34.1136 82.9724 35.2116 82.6387 36.4348C82.5829 36.7382 82.7987 36.5715 82.9362 36.1096C83.2134 35.1676 83.2824 34.0229 82.9033 32.818C82.5138 31.5776 81.5469 30.8225 80.8496 30.436L80.7263 31.6293C80.7263 31.6293 81.7042 32.115 82.3725 33.3382Z" fill="white"/>
<path d="M56.85 33.7393C57.2061 34.574 57.2302 35.7009 56.655 36.8881C56.5432 37.1864 56.8155 37.0451 57.0439 36.5989C57.5106 35.6867 57.7725 34.5451 57.5358 33.284C57.2932 31.9874 56.3191 31.1036 55.59 30.6249L55.2591 31.8096C55.2591 31.8096 56.2885 32.4235 56.85 33.7393Z" fill="white"/>
<path d="M63.9052 52.3965C64.3577 51.5567 64.5462 50.9915 64.7472 49.9967C64.9231 49.1215 64.9346 48.1106 64.871 47.0814C66.2252 46.5294 67.8391 45.6131 68.3814 45.5458C68.0106 46.8191 68.8958 48.1932 70.6839 48.0139C70.8209 49.4538 70.9381 50.7185 71.0093 51.4686C71.155 53.0063 71.1331 54.9441 71.1287 55.2809C71.1227 55.6192 71.3676 55.5554 71.619 54.8017C71.9543 53.7928 72.0578 51.1581 71.9362 49.4158C71.9072 48.9802 71.8579 48.3922 71.7982 47.7221C72.9573 47.1858 73.1502 46.1505 73.5835 45.7094C73.9746 47.0794 76.1275 47.2653 76.792 46.972C77.616 46.6079 77.886 45.953 78.098 44.433C78.3106 42.9136 77.6916 42.3018 77.4702 42.1361C77.4483 42.32 76.9093 44.1059 76.9093 44.1059C76.9093 44.1059 77.4204 44.6458 77.4461 44.9112C77.0298 45.288 76.1517 45.3113 75.4143 45.0712C74.6764 44.8311 74.4501 44.3895 74.494 44.0932C74.5367 43.7959 74.8144 43.5254 74.8237 43.1633C74.832 42.8012 74.6583 42.906 74.363 43.2266C74.0678 43.5477 73.8771 43.8364 73.4685 44.5257C73.1343 45.0894 72.5919 45.7772 71.6355 45.9738C71.4777 44.3186 71.2975 42.5575 71.1769 41.4514C71.1139 40.8674 70.4845 35.8208 70.4396 35.2561C70.4007 34.7643 70.3278 34.1844 70.3399 33.9119C70.3519 33.6951 70.4878 33.7812 70.6982 34.0081C70.9091 34.2345 71.2777 34.6296 71.3413 34.5987C71.556 34.4933 71.3364 33.8374 71.0553 33.2499C70.7748 32.6609 69.8173 30.3371 69.6162 30.2414C69.5127 30.1928 68.8663 31.6231 68.8279 31.9047C68.9282 32.0809 69.19 32.358 69.1993 33.1461C69.2026 33.3659 69.344 35.4384 69.5401 37.398C69.7115 39.1286 69.9389 40.7707 69.9608 40.9616C70.1169 42.2825 70.3065 44.1443 70.4867 45.9748C69.4486 45.7772 69.1725 45.0925 69.1955 44.702C69.2218 44.2613 69.4206 43.764 69.3253 43.6515C69.1254 43.5315 67.9355 44.1965 66.2762 44.9112C65.8095 45.1117 65.2836 45.327 64.7286 45.5311C64.584 44.2836 64.3933 43.0974 64.3167 42.1903L64.3073 42.0895C65.3986 42.0191 66.2921 41.4681 66.6986 40.9434C67.2064 40.2875 67.5614 38.9377 67.5959 37.9035C67.6304 36.8682 66.795 34.9755 66.5961 34.3738C66.3956 33.7716 66.2921 33.3542 66.2745 33.1461C66.2565 32.9379 66.7259 33.3872 67.0212 33.4753C67.2212 33.5153 67.1521 33.0823 66.9078 32.785C66.6651 32.4887 65.3526 30.4967 65.2605 30.6365C65.2041 30.7185 64.6782 32.1838 64.6437 32.4081C64.8508 32.5449 65.0929 32.9217 65.1099 33.2828C65.1274 33.6439 65.4167 35.2318 65.7371 36.1141C66.0587 36.9964 66.7435 38.689 66.7868 39.1545C66.2976 39.4994 65.1838 40.0834 64.0822 40.0484C63.8937 38.5047 63.6549 36.7117 63.5273 35.442C63.478 34.9512 63.4747 34.4275 63.4823 34.154C63.4884 33.9372 63.6445 33.9671 63.8592 34.1899C64.0751 34.4128 64.406 34.7369 64.4739 34.7136C64.6218 34.6645 64.4936 34.1727 64.2005 33.5887C63.9074 33.0048 62.7428 30.5347 62.5384 30.4425C62.4349 30.3954 61.9134 31.7826 61.8805 32.0658C61.9846 32.241 62.2514 32.512 62.2777 33.3C62.2985 33.9276 62.6042 37.0029 62.866 39.7116C61.7759 39.1479 61.4039 38.3421 61.2692 36.9893C61.1749 36.0462 61.1656 34.309 60.8293 32.8559C60.6397 32.0343 60.2404 31.1997 59.7671 30.7565C59.6542 31.0295 59.1502 32.7054 59.1502 32.7054C59.3146 33.1866 59.8257 34.8068 59.8081 36.2108C59.7912 37.6148 59.6805 38.9873 58.1072 39.9329C56.5349 40.8791 54.1766 40.5027 53.5943 39.0268C53.0119 37.5499 54.3064 33.847 54.2894 32.9729C54.2719 32.0987 54.1158 31.9781 53.7504 32.1225C53.3856 32.2668 52.6389 33.1096 51.9957 34.4807C51.3526 35.8527 51.0667 37.552 50.7013 38.7073C50.337 39.8625 49.7535 41.033 48.8507 40.9682C47.9479 40.9044 47.462 40.0783 47.1843 38.8835C46.906 37.6877 47.0764 36.1131 47.152 35.7094C47.3404 34.6984 46.9038 34.9056 46.6365 36.4929C46.471 37.4719 46.3067 39.0355 46.889 40.6719C47.4702 42.3083 48.4612 42.9187 49.3295 42.7095C50.1984 42.5013 50.962 40.4637 51.2315 39.5485C51.5005 38.6348 52.7041 34.5764 53.3856 34.3768C53.4809 34.8342 52.8558 36.3086 52.6559 38.0331C52.4565 39.7577 52.9216 42.0744 55.1106 42.475C57.2997 42.8761 58.7848 41.4564 59.3233 40.4708C59.8624 39.4837 60.1138 38.4489 60.1746 37.9278C60.2447 39.2507 61.1475 41.3167 62.9011 41.9057L63.0819 41.9579C63.1898 43.0407 63.3657 44.4543 63.5273 45.9388C63.186 46.0442 62.8414 46.1394 62.4985 46.2214C62.4546 46.0791 62.4064 45.9398 62.3478 45.8117C61.8126 44.6604 60.9268 43.5994 59.6991 43.6728C58.4452 43.7473 57.0778 45.4207 57.1375 46.6428C57.177 47.4648 57.6295 48.1395 59.2751 48.3122C60.0267 48.3917 60.8249 48.3081 61.6493 48.1283C61.7655 48.4682 61.8389 48.806 61.8471 49.1139C61.3256 49.7238 57.0104 52.9784 53.7794 53.2914C50.5484 53.6039 49.5629 51.9102 49.5306 50.21C49.5065 48.9164 50.2844 47.6254 50.8311 46.732C51.6134 46.1596 52.2554 45.444 52.6608 44.8919C52.7709 44.9598 52.8755 45.0226 52.9752 45.0808C53.3615 45.3052 53.5154 45.6405 53.5154 45.6405C53.5866 45.5311 53.9186 44.9334 53.7887 44.6412C53.729 44.5693 53.437 44.3895 53.0859 44.1763C53.4546 43.2575 53.4496 42.3403 52.972 42.1361C52.4378 41.9087 51.7405 42.5408 51.4397 42.9263C51.2836 43.1268 51.2239 43.3542 51.2228 43.5452C51.2206 43.7908 51.3362 44.0127 51.6221 44.2102C51.907 44.4047 52.1716 44.5809 52.4203 44.74C51.7142 45.4815 50.0455 46.5679 49.0244 47.206C48.9866 47.1123 48.837 47.2111 48.636 47.4481L48.3594 47.6188C47.5448 48.1172 45.5912 49.2117 45.2072 49.4796C44.8227 49.7481 45.0637 49.6994 45.2072 49.6397C45.4784 49.4933 45.8345 49.316 46.2344 49.1205C46.8008 48.8435 47.4598 48.53 48.1041 48.2155C47.9134 48.5386 47.7162 48.9164 47.5415 49.3287C46.7729 51.1434 45.5304 54.9046 48.218 57.1675C50.7895 59.3338 55.2092 58.5097 58.8747 56.2584C62.5406 54.0066 63.3322 53.2149 63.9052 52.3965ZM51.9541 43.45C51.827 43.3563 51.8095 43.2312 51.913 43.144C52.0451 43.0316 52.2138 42.9252 52.4055 42.8893C52.812 42.8138 52.9741 43.2808 52.8109 44.0081C52.5019 43.8192 52.1842 43.6206 51.9541 43.45ZM60.362 46.5177C58.4956 46.5263 58.4096 46.1875 58.4446 45.9707C58.4791 45.755 59.0604 45.1629 59.7977 45.5534C60.1094 45.719 60.4606 46.0654 60.7854 46.5005C60.6419 46.5111 60.5006 46.5167 60.362 46.5177ZM54.6455 56.3328C51.1192 57.2952 47.6795 55.8041 47.4713 52.8518C47.3119 50.5974 48.1342 48.8987 48.6645 47.9414C49.1701 47.6912 49.6478 47.4481 50.0428 47.2303C49.1197 48.7169 48.5796 50.7079 48.9406 52.3944C49.3493 54.3049 51.0113 55.4632 53.8254 55.0894C56.6116 54.7202 60.379 52.0703 61.4472 51.071C61.7726 50.7104 61.9873 50.3852 62.2799 49.7227C62.4004 49.4508 62.5697 49.0917 62.6327 48.686C62.6738 48.4216 62.6957 48.139 62.7006 47.8513C63.0276 47.7535 63.3563 47.6441 63.6872 47.5266C63.7995 48.7361 63.8822 49.9284 63.8872 50.9596C62.1511 52.9956 58.1718 55.37 54.6455 56.3328Z" fill="white"/>
<path d="M116.325 48.5908C116.206 46.6155 115.917 43.0403 115.756 41.2266C115.614 39.6124 115.334 37.4001 115.129 35.4527C115.078 34.9624 115.072 34.4929 115.078 34.2199C115.084 34.0041 115.299 34.0872 115.515 34.309C115.731 34.5309 116.069 34.8094 116.132 34.7755C116.343 34.6661 116.091 34.1252 115.794 33.5432C115.498 32.9603 114.323 30.5489 114.118 30.4572C114.014 30.4106 113.464 31.8551 113.432 32.1382C113.537 32.3125 113.806 32.5824 113.835 33.3705C113.865 34.1591 114.263 37.7845 114.551 40.7165C114.75 42.7546 115.007 46.0802 115.195 48.5878C115.186 48.5918 115.372 50.9718 115.392 51.2392C115.507 52.7789 115.447 54.7162 115.436 55.0525C115.423 55.3903 115.67 55.3316 115.935 54.582C116.206 53.8167 116.359 52.1078 116.38 50.5651L116.325 48.5908Z" fill="white"/>
<path d="M106.312 41.676C105.951 41.7864 105.383 41.404 105.427 40.6022C105.466 39.8779 105.776 39.1998 105.896 38.7718C106.06 38.1812 106.061 37.6119 105.922 37.9346C105.609 38.6558 105.025 40.0501 104.905 40.9963C104.784 41.9424 105.09 42.5522 105.507 42.7603C106.027 43.0212 106.401 42.6074 106.654 41.9976C106.897 41.4136 106.851 40.7319 106.682 40.8924C106.541 41.0601 106.488 41.6218 106.312 41.676Z" fill="white"/>
<path d="M101.115 44.5905C101.307 44.081 101.352 43.5816 101.204 43.8556C100.872 44.4695 100.249 45.6556 100.066 46.4797C99.8846 47.3037 100.105 47.8614 100.456 48.0726C100.893 48.337 101.253 47.9981 101.525 47.479C101.786 46.9821 101.799 46.3789 101.639 46.5096C101.501 46.6473 101.409 47.1371 101.251 47.1731C100.923 47.2455 100.455 46.8707 100.557 46.1677C100.649 45.5346 100.976 44.9587 101.115 44.5905Z" fill="white"/>
<path d="M85.98 55.3395C86.3005 54.8193 86.4599 54.2799 86.2375 54.5524C85.7411 55.1612 84.8016 56.3428 84.4225 57.2094C84.0446 58.076 84.1651 58.7268 84.502 59.0231C84.9222 59.3928 85.3905 59.089 85.7998 58.5729C86.1925 58.078 86.3394 57.4216 86.1339 57.5335C85.9537 57.6597 85.7477 58.1778 85.5664 58.1874C85.1933 58.2057 84.7627 57.7088 85.0268 56.9602C85.2656 56.2846 85.7483 55.7163 85.98 55.3395Z" fill="white"/>
<path d="M112.515 40.1594C112.147 40.2516 111.604 39.8398 111.695 39.0411C111.778 38.3203 112.129 37.6594 112.273 37.239C112.473 36.657 112.508 36.0893 112.35 36.4033C111.995 37.1083 111.328 38.4697 111.15 39.4088C110.972 40.3473 111.241 40.9718 111.646 41.2012C112.15 41.4869 112.546 41.0938 112.837 40.4972C113.114 39.9269 113.11 39.2442 112.931 39.3961C112.78 39.5572 112.694 40.1148 112.515 40.1594Z" fill="white"/>
<path d="M112.402 49.958C112.905 50.2437 113.304 49.8507 113.593 49.254C113.871 48.6837 113.867 48.001 113.689 48.1529C113.537 48.313 113.451 48.8716 113.272 48.9162C112.904 49.0079 112.36 48.5966 112.452 47.7979C112.535 47.0772 112.885 46.4157 113.03 45.9958C113.23 45.4139 113.264 44.8451 113.106 45.1601C112.75 45.8652 112.085 47.2266 111.907 48.1646C111.729 49.1041 111.998 49.7286 112.402 49.958Z" fill="white"/>
<path d="M118.83 37.4414C119.072 36.7374 119.114 36.0501 118.922 36.4304C118.491 37.2834 117.686 38.9304 117.47 40.0675C117.256 41.2035 117.582 41.9587 118.071 42.2368C118.679 42.5822 119.161 42.1066 119.512 41.3854C119.847 40.695 119.842 39.8679 119.626 40.0528C119.444 40.2468 119.339 40.9214 119.122 40.9756C118.678 41.087 118.019 40.5892 118.13 39.6228C118.231 38.7506 118.655 37.9509 118.83 37.4414Z" fill="white"/>
<path d="M67.464 49.6185C67.8601 48.7605 68.0036 47.9015 67.7122 48.3588C67.0597 49.3824 65.831 51.3643 65.4113 52.7683C64.9912 54.1728 65.3023 55.1594 65.8803 55.5641C66.6012 56.0665 67.269 55.5215 67.8042 54.6549C68.3164 53.8238 68.4183 52.783 68.123 52.9911C67.8683 53.214 67.6481 54.0517 67.3687 54.0958C66.7946 54.1859 66.032 53.486 66.2982 52.2831C66.5393 51.1977 67.178 50.2394 67.464 49.6185Z" fill="white"/>
<path d="M122.925 58.125C123.229 57.8763 125.868 56.4546 126.354 56.1659C126.354 56.1659 126.851 55.3556 126.702 55.2695C126.552 55.1833 125.588 56.0596 124.989 56.0839C124.389 56.1082 123.568 55.6675 123.542 55.3064C123.62 55.0339 124.341 54.6247 124.602 54.608C124.863 54.5928 124.82 55.1864 124.908 55.2588C124.995 55.3302 125.341 54.8491 125.385 54.6485C125.428 54.4484 125.392 53.6107 124.915 53.7308C124.16 53.9217 123.02 55.3226 122.891 55.7633C122.76 56.2049 123.464 56.5893 123.977 56.7985C123.934 56.8147 123.55 56.9991 123.307 57.2392C123.307 57.2392 123.047 57.5314 122.925 58.125Z" fill="white"/>
<path d="M113.925 59.886C114.228 59.6373 116.868 58.2166 117.354 57.9269C117.354 57.9269 117.852 57.1165 117.702 57.0304C117.552 56.9443 116.588 57.8206 115.989 57.8449C115.389 57.8692 114.568 57.4285 114.542 57.0674C114.62 56.7949 115.341 56.3857 115.602 56.37C115.863 56.3538 115.82 56.9469 115.908 57.0188C115.995 57.0912 116.341 56.6101 116.385 56.4095C116.428 56.2094 116.391 55.3717 115.915 55.4917C115.16 55.6837 114.02 57.0836 113.89 57.5253C113.76 57.9659 114.463 58.3503 114.976 58.5595C114.934 58.5757 114.55 58.7596 114.307 59.0001C114.307 59.0001 114.047 59.2924 113.925 59.886Z" fill="white"/>
<path d="M93.6525 34.404C93.8891 34.679 95.4395 36.6487 96.654 37.8871C97.8679 39.1265 99.9491 41.1321 101.478 42.5067C101.774 42.7731 102.088 43.0618 102.407 43.3622C102.793 46.3231 103.239 50.0908 103.426 51.6487C103.611 53.1829 103.638 55.1202 103.642 55.4575C103.645 55.7953 103.888 55.7264 104.12 54.9682C104.43 53.9507 104.465 51.316 104.301 49.5757C104.199 48.5009 103.959 46.4877 103.726 44.6314C104.629 45.5233 105.481 46.4082 106.056 47.0706C107.113 48.2867 108.002 49.2039 108.544 50.5112C108.927 51.436 108.888 52.1719 109.046 52.3173C109.181 52.4429 109.331 51.3362 109.164 50.263C108.892 48.5202 108.52 47.7812 106.282 45.2929C105.429 44.3417 104.424 43.3475 103.442 42.4181C103.404 42.1314 103.37 41.866 103.338 41.6305C103.261 41.0486 102.502 36.0172 102.443 35.4535C102.392 34.9627 102.302 34.3848 102.31 34.1118C102.315 33.8945 102.453 33.9791 102.67 34.2009C102.886 34.4223 103.264 34.8097 103.328 34.7758C103.539 34.6664 103.304 34.0166 103.008 33.4336C102.712 32.8517 101.695 30.5492 101.491 30.458C101.387 30.4114 100.777 31.8554 100.746 32.138C100.852 32.3122 101.12 32.5837 101.149 33.3708C101.158 33.5906 101.353 35.6601 101.597 37.6141C101.814 39.3407 102.083 40.9782 102.111 41.1676L102.112 41.1823C101.099 40.2584 100.207 39.4739 99.6653 38.9811C98.3998 37.8309 95.6049 35.1014 95.4926 34.6927C95.4674 34.5636 95.6843 34.6431 96.0831 34.7069C96.4836 34.7712 96.8397 34.9075 96.7756 34.7109C96.7465 34.6183 96.5932 34.3893 96.2113 34.1533C95.829 33.9168 94.8495 33.3039 94.1209 32.8704C93.3906 32.4373 93.0291 32.0742 92.8784 32.178C92.8039 32.2292 92.8702 33.7127 92.914 33.8975C93.0965 33.9132 93.4169 34.128 93.6525 34.404Z" fill="white"/>
<path d="M95.6475 31.7363C95.9472 31.6704 97.3671 31.7064 97.8826 31.8148C97.6668 31.9647 96.2139 32.6986 95.9269 32.8733C95.6415 33.0486 95.5692 33.1498 95.7127 33.1326C96.129 33.0171 97.0674 32.8733 97.5172 32.6388C97.9412 32.4403 98.6638 31.4719 98.9448 31.1107C99.2242 30.7496 99.2242 30.5693 99.153 30.4726C98.8659 30.3166 97.0154 30.1601 96.123 30.3814C95.8759 30.5491 95.3928 31.442 95.3216 31.6279C95.2503 31.8148 95.3479 31.8021 95.6475 31.7363Z" fill="white"/>
<path d="M103.545 31.6198C103.787 31.5667 104.932 31.5955 105.346 31.6826C105.173 31.8037 104.002 32.3953 103.771 32.5371C103.54 32.6774 103.482 32.7594 103.598 32.7452C103.933 32.6531 104.69 32.5371 105.052 32.3471C105.393 32.1871 105.976 31.4066 106.202 31.1164C106.427 30.8247 106.427 30.6798 106.37 30.6023C106.139 30.4752 104.648 30.3496 103.928 30.5284C103.729 30.6631 103.341 31.3828 103.283 31.5327C103.225 31.6826 103.304 31.673 103.545 31.6198Z" fill="white"/>
<path d="M109.965 31.5373C110.206 31.4841 111.35 31.513 111.765 31.6001C111.593 31.7212 110.422 32.3127 110.19 32.4535C109.96 32.5949 109.902 32.6769 110.018 32.6627C110.353 32.5705 111.169 32.4535 111.531 32.2646C111.872 32.1046 112.277 31.3241 112.504 31.0329C112.73 30.7421 112.73 30.5963 112.671 30.5198C112.441 30.3927 111.067 30.2671 110.348 30.4448C110.149 30.5806 109.76 31.3003 109.702 31.4502C109.645 31.6001 109.723 31.5905 109.965 31.5373Z" fill="white"/>
<path d="M105.96 34.6642C105.58 35.2629 106.056 35.7461 106.23 36.2298C105.996 36.444 105.635 36.2485 105.515 36.0606C105.258 35.6752 105.344 34.8896 105.042 34.7686C104.965 34.9808 104.915 35.2163 104.915 35.2163C104.915 35.2163 105.144 35.7537 105.087 36.1092C105.05 36.324 104.861 36.5747 104.61 36.5797C103.943 36.5959 104.272 35.6083 104.014 35.0486C103.962 35.1854 103.924 35.3323 103.862 35.4604C103.91 35.6063 103.935 35.8109 103.943 35.9289C103.958 36.1634 103.94 36.4161 103.98 36.6162C104.035 36.8993 104.192 37.0872 104.432 37.1055C104.931 37.145 105.158 36.7413 105.233 36.4101C105.319 36.7479 105.978 37.1202 106.302 36.7053C106.732 36.1583 106.388 35.6898 106.168 35.1753C106.009 34.7949 106.055 34.5452 105.96 34.6642Z" fill="white"/>
<path d="M87.2325 33.0763C87.267 33.3225 87.3935 33.4906 87.6001 33.516C88.0263 33.5702 88.2421 33.2313 88.3226 32.9497C88.3791 33.244 88.9302 33.5904 89.2298 33.247C89.6259 32.7927 89.3514 32.3754 89.186 31.9231C89.0677 31.5878 89.1186 31.3751 89.031 31.4738C88.6749 31.9732 89.0633 32.4103 89.1898 32.8342C88.9773 33.0085 88.6765 32.8256 88.5812 32.66C88.3785 32.3171 88.4892 31.644 88.2361 31.527C88.1594 31.7073 88.1051 31.9074 88.1051 31.9074C88.1051 31.9074 88.2766 32.3799 88.2098 32.6833C88.1687 32.8672 87.9939 33.0753 87.777 33.0698C87.2023 33.0571 87.5321 32.2194 87.336 31.7276C87.2851 31.8425 87.2451 31.9687 87.1854 32.075C87.2199 32.2037 87.2325 32.3799 87.2325 32.4827C87.2369 32.6853 87.2084 32.9011 87.2325 33.0763Z" fill="white"/>
<path d="M100.83 56.2724C100.894 56.1706 101.035 55.8911 101 55.7001C100.964 55.5092 100.73 54.7125 100.276 54.5129C99.8247 54.3134 99.4829 54.7317 99.2665 55.3137L99.1164 55.3101C99.0808 55.3962 99.0359 55.5249 99.0003 55.7573C98.9499 56.0931 98.8546 56.3094 98.2788 56.8321C97.7945 57.2697 96.2256 58.3207 95.2089 58.8145C94.191 59.3093 93.4586 59.7363 93.1885 59.8659C92.9195 59.9936 92.9979 60.0412 93.2668 59.9606C93.5353 59.8806 94.8862 59.4456 95.4247 59.2237C95.9621 59.0004 96.6195 58.6332 97.4116 58.1191C98.2925 57.5478 98.819 56.9764 98.9959 56.47C99.1219 56.1088 99.1542 55.9645 99.1542 55.9645C99.1542 55.9645 99.4851 56.16 100.047 56.2881C100.606 56.4168 100.765 56.3753 100.83 56.2724ZM100.071 55.1404C100.32 55.2352 100.472 55.5066 100.517 55.6712C100.231 55.6778 99.7042 55.5325 99.4802 55.4312C99.6149 55.1703 99.8494 55.0574 100.071 55.1404Z" fill="white"/>
<path d="M94.8675 56.8328C94.0863 56.7244 92.118 56.4251 91.6365 55.2824C92.0408 54.6929 93.9028 53.9463 96.2354 53.2479C98.568 52.551 101.005 51.6464 101.66 51.2098C101.804 51.1612 102.082 51.1759 102.082 51.1759C102.199 50.838 102.785 49.6519 102.821 49.4037C102.169 49.4407 98.1511 49.7359 96.3663 49.8317C94.5804 49.9279 91.1413 49.9046 89.9952 49.8919C90.6981 49.3865 92.3662 48.3998 94.7503 47.5581C95.0592 47.4487 95.3452 47.3499 95.612 47.2608C95.8103 47.6143 95.9576 47.9638 95.9883 48.2682C96.1401 48.1122 96.254 47.595 96.2157 47.0642C97.6055 46.6206 98.3215 46.4737 98.6304 46.3901C98.8255 46.1374 99.1711 45.1153 99.2226 44.3723C99.015 43.994 98.3648 43.5229 97.7863 43.1182C96.9892 42.5616 96.1297 42.0764 95.2718 42.2886C94.0989 42.5763 93.8639 44.7309 94.1373 45.1877C94.2244 45.3321 94.4309 45.5879 94.6747 45.9034C93.8179 46.2402 92.9217 46.6363 92.1317 47.0526C90.3721 47.9795 88.4077 48.9934 87.8347 49.9684L87.6703 50.0484C87.6243 50.1406 87.2616 51.6494 87.209 51.812C87.575 51.7994 90.3075 51.8044 92.2106 51.7452C94.1126 51.6844 95.7758 51.6241 96.4271 51.6241C95.4624 51.8525 92.9343 52.7921 92.2073 53.3446C91.4804 53.8987 91.0235 54.741 91.0114 56.185C90.3338 55.9196 89.0744 55.3133 88.0012 53.8617C86.8048 52.244 87.0524 50.5802 86.5736 48.3968C85.8779 45.2282 84.3922 42.553 83.4669 41.7345C83.1552 42.8528 83.1152 43.6956 83.1152 43.6956C83.1152 43.6956 84.2744 46.2584 84.8611 47.8944C85.4478 49.5308 85.9491 51.143 85.9244 51.5041C85.4412 52.5636 82.5811 54.783 80.1976 56.0822C77.9373 57.3139 75.946 57.4466 75.2404 56.5694C75.1018 56.3982 75.0076 56.1956 74.9544 55.9662C75.2612 55.8228 75.5691 55.6785 75.8846 55.5342C77.917 54.6083 81.5266 52.6594 82.3724 51.6368C83.285 50.3974 83.2724 48.6526 82.7372 47.6538C82.2042 46.6555 81.3682 45.4997 81.3031 45.091C81.2521 44.898 81.8459 45.1695 82.1965 45.1877C82.3664 45.1751 82.2815 44.9466 81.9172 44.5855C81.6257 44.2978 80.4989 43.3644 80.0683 43.0002C79.9604 42.9075 79.8798 42.945 79.8579 43.0428C79.7741 43.4155 79.6026 44.2138 79.5364 44.6078L79.5824 44.8063C79.7062 44.8798 79.8486 44.9623 79.9176 45.1685C80.0151 45.4607 80.3564 46.2762 80.9157 47.3053C81.4762 48.334 82.2858 49.4695 82.3653 50.0429C81.7068 50.8826 78.3865 52.671 75.1522 54.1449C75.3521 53.5249 75.6677 52.824 76.0862 52.0455C76.2051 51.9138 76.3136 51.7512 76.4144 51.5679C76.737 50.9783 76.7682 50.2576 76.5727 50.4101C76.405 50.5716 76.2845 51.1566 76.0928 51.1961C75.7 51.2767 75.1489 50.8183 75.2875 49.9801C75.4129 49.2239 75.8172 48.5412 75.992 48.1041C76.2341 47.4993 76.3004 46.9017 76.1169 47.2268C75.7044 47.9531 74.9303 49.3601 74.6926 50.3432C74.4559 51.3248 74.7074 51.9959 75.1221 52.2557C75.2771 52.3545 75.4255 52.3854 75.5669 52.3661C75.2831 52.906 74.9325 53.5685 74.6767 54.3586C73.3762 54.9406 72.1107 55.4607 71.0633 55.8355C67.2982 57.1833 64.615 57.9774 62.7382 58.567L62.6647 58.5999C62.8028 58.1537 62.7842 57.7728 62.6363 57.8873C62.4686 58.0499 62.3487 58.6348 62.1569 58.6733C61.7641 58.7539 61.213 58.296 61.3511 57.4573C61.4771 56.7011 61.8814 56.0194 62.0561 55.5818C62.2972 54.9775 62.364 54.3789 62.181 54.7045C61.768 55.4308 60.9945 56.8378 60.7567 57.8204C60.5195 58.8025 60.7709 59.4736 61.1851 59.7339C61.7011 60.0581 62.141 59.6605 62.4785 59.0456L62.5968 58.7929C62.714 58.7929 62.9118 58.7655 63.2071 58.6997C64.0672 58.5062 66.2173 58.1942 69.1739 57.8088C71.363 57.5241 72.8744 56.9229 74.3354 56.2539C74.3288 56.4154 74.3272 56.58 74.3343 56.7497C74.4137 58.7559 75.7285 59.3221 77.5264 58.9468C79.2608 58.5827 81.6794 56.9923 83.1289 55.9196C84.6403 54.8013 85.5125 53.802 85.7349 53.4535C86.1381 52.5991 86.2487 51.655 86.2761 51.2098C86.4081 52.4365 86.515 54.1342 87.6752 55.5904C88.7435 56.9305 90.9325 58.8005 95.0499 58.8516C95.0636 58.3618 94.8675 56.8328 94.8675 56.8328ZM94.5952 44.4017C95.1847 43.7402 96.4425 44.1727 97.3864 45.0115C96.9026 45.1249 96.2458 45.327 95.521 45.5858C95.0905 45.0667 94.61 44.5663 94.5952 44.4017Z" fill="white"/>
<path d="M71.4472 35.3323C71.7146 35.2102 72.5325 34.8425 73.4139 34.3289C74.2937 33.8189 75.1203 33.201 75.5246 32.7903C75.6797 32.6327 75.8177 32.5097 75.9059 32.3633C76.17 32.4727 76.3518 32.5861 76.4652 32.6307C76.6356 32.6966 76.8629 32.7913 77.0109 32.3061C77.1582 31.8214 76.9627 31.5083 76.6745 31.1346C76.4307 30.8211 76.044 30.35 75.7301 30.233C75.4638 30.1332 75.3373 30.7279 75.3778 30.7132H75.5559L75.5904 30.7299C75.2239 30.9147 74.9401 31.4901 74.9116 31.6922C74.8826 31.912 74.9242 32.0741 75.4501 32.2093L75.6616 32.2716C75.2228 32.7913 74.4049 33.3286 73.8478 33.7095C73.0573 34.2515 71.9354 34.9286 71.616 35.1241C71.2966 35.3186 71.3234 35.3799 71.4472 35.3323ZM76.1979 31.5144L76.2264 31.2546C76.5962 31.676 76.8706 32.1774 76.8432 32.2483C76.6734 32.262 76.4619 32.105 76.0922 31.947C76.1333 31.8214 76.1678 31.6826 76.1979 31.5144ZM75.1362 31.5149C75.134 31.4359 75.2765 31.2161 75.5778 31.0961C75.8785 30.975 76.0116 31.3128 76.0379 31.7241L75.9486 31.8887L75.6775 31.795C75.3904 31.7109 75.1965 31.6633 75.1362 31.5149Z" fill="white"/>
<path d="M91.1625 43.2651C91.5964 42.9784 92.789 42.1174 93.4655 41.5532C93.9361 41.1612 94.4888 40.5838 94.8641 40.0955C95.0996 40.248 95.3193 40.3832 95.5193 40.5007C95.9049 40.7261 96.06 41.0604 96.06 41.0604C96.1312 40.951 96.4632 40.3523 96.3333 40.0611C96.2555 39.9659 95.7811 39.6888 95.2963 39.392C95.5423 38.84 95.8808 37.8852 95.396 37.551C94.9813 37.2673 94.2818 37.7368 93.958 38.3461C93.6907 38.8506 93.6561 39.2786 94.1662 39.6291C94.3097 39.7278 94.4472 39.821 94.582 39.9097C94.0676 40.4724 93.1198 41.305 92.4455 41.8718C91.6079 42.5727 90.8157 43.26 90.6777 43.4241L90.6377 43.488C90.4547 42.9784 90.5046 42.6639 90.3687 42.8331C89.782 43.7533 90.5172 44.4989 90.7845 45.2434C90.4229 45.5716 89.8691 45.2703 89.6834 44.9831C89.2879 44.3885 89.4199 43.181 88.957 42.9941C88.8376 43.3203 88.7598 43.6835 88.7598 43.6835C88.7598 43.6835 89.112 44.5105 89.0227 45.0565C88.9674 45.3868 88.6749 45.7732 88.2908 45.7798C87.2631 45.8061 87.7699 44.2857 87.3733 43.4246C87.2927 43.6358 87.2352 43.8617 87.1388 44.0572C87.2117 44.2836 87.2516 44.5977 87.2621 44.7795C87.2883 45.1406 87.2588 45.5281 87.3196 45.838C87.4045 46.2736 87.6466 46.5633 88.0164 46.5902C88.7828 46.6525 89.1328 46.0295 89.249 45.5215C89.381 46.0411 90.3961 46.6124 90.8952 45.9753C91.5564 45.133 91.0272 44.4118 90.6892 43.6196L90.6492 43.5168C90.6963 43.5335 90.8732 43.456 91.1625 43.2651ZM94.1601 38.5224C94.4143 38.0509 94.9495 38.0108 95.1101 38.258C95.2377 38.4545 95.2481 38.8379 95.0564 39.2426C94.5841 38.9463 94.1629 38.6561 94.1601 38.5224Z" fill="white"/>
<path d="M74.4322 40.2667C73.5294 40.2029 73.0435 39.3758 72.7658 38.181C72.4875 36.9862 72.6579 35.4106 72.7335 35.0069C72.8091 34.6037 72.3834 34.8119 72.218 35.7909C72.0536 36.769 71.8882 38.333 72.4705 39.9704C73.0517 41.6059 74.0427 42.2162 74.911 42.007C75.7793 41.7988 76.5435 39.7613 76.813 38.8471C77.082 37.9324 78.2856 34.2021 78.967 34.0015C79.0624 34.4589 78.4373 35.6061 78.2374 37.3307C78.0385 39.0552 78.3847 41.3172 80.5738 41.7183C82.7629 42.1199 84.248 40.6998 84.7865 39.7126C85.3255 38.727 85.577 37.6908 85.6378 37.1701C85.7079 38.4935 86.6107 40.56 88.3643 41.149C90.0587 41.7183 91.3531 41.1971 91.9251 40.4592C92.4329 39.8038 92.8465 38.454 92.8821 37.4188C92.9166 36.3845 92.0226 34.4918 91.8226 33.8891C91.6221 33.2879 91.5186 32.8706 91.5011 32.6624C91.4841 32.4542 91.9535 32.9035 92.2488 32.9916C92.4488 33.0316 92.3787 32.5986 92.1354 32.3013C91.8927 32.005 90.5791 30.013 90.487 30.1518C90.4306 30.2348 89.9047 31.7001 89.8702 31.9245C90.0784 32.0612 90.3194 32.438 90.3375 32.7992C90.3539 33.1603 90.7018 34.7481 91.0234 35.6304C91.3449 36.5127 91.97 38.2053 92.0138 38.6708C91.3888 39.1114 89.9809 39.6721 88.6437 39.1038C87.3064 38.5335 86.8797 37.7075 86.7323 36.2316C86.6381 35.2885 86.6288 33.5513 86.2924 32.0987C86.1029 31.2777 85.7035 30.443 85.2291 29.9998C85.1174 30.2718 84.6134 31.9488 84.6134 31.9488C84.7777 32.4299 85.2888 34.0502 85.2724 35.4541C85.2543 36.8571 85.1437 38.2302 83.5703 39.1763C81.9981 40.1224 79.7581 39.7456 79.1758 38.2692C78.5934 36.7933 79.8879 33.4728 79.8709 32.5986C79.8534 31.7244 79.6962 31.6033 79.3319 31.7482C78.967 31.8925 78.2193 32.7353 77.5772 34.1064C76.9341 35.4784 76.6487 36.8495 76.2828 38.0048C75.9185 39.1601 75.335 40.3305 74.4322 40.2667Z" fill="white"/>
<path d="M48.219 35.1494C49.33 35.0688 50.2689 34.2266 50.5116 34.0027C50.7548 33.7773 50.8858 33.4415 50.7116 33.5692C49.4264 34.7163 47.7068 34.7488 47.6104 34.5558C47.6542 34.3633 48.1067 34.0503 48.7668 33.6097C49.1678 33.3417 49.525 33.0905 49.7923 32.7345L49.8652 32.7471C50.3544 32.8545 50.9192 33.0682 51.0917 32.8971C51.3728 32.62 51.41 32.1662 51.1054 31.6769C50.848 31.2616 50.2476 30.8752 49.726 30.5961C49.2056 30.3186 49.1048 30.7617 49.038 30.9197C48.9739 31.0671 49.0002 31.1927 49.1103 31.1958C48.9427 31.4242 48.8232 31.7185 48.7794 31.9616C48.7509 32.1186 48.7739 32.2472 48.838 32.3531C48.8567 32.383 48.9531 32.501 49.1355 32.5709L49.3617 32.6413C48.9722 33.0009 48.5236 33.2825 48.288 33.4248C47.8629 33.6816 47.3589 34.1308 47.2028 34.5953C47.0461 35.0613 47.1069 35.2299 48.219 35.1494ZM50.1829 31.8724L50.2256 31.6354V31.4835C50.5779 31.7397 51.141 32.225 51.1065 32.5157C50.8836 32.465 50.4585 32.3754 50.0547 32.2715C50.1062 32.1505 50.1484 32.0178 50.1829 31.8724ZM49.1388 31.9464C48.8797 31.7397 49.1322 31.5336 49.3617 31.4009C49.6581 31.2297 49.8318 31.371 49.9835 31.8203C49.9304 31.9489 49.8559 32.074 49.7682 32.1941C49.5376 32.1226 49.2127 32.0082 49.1388 31.9464Z" fill="white"/>
<path d="M51.552 47.6962C51.2326 47.9732 51.1088 48.8748 51.174 48.929C51.2386 48.9831 52.2368 49.32 52.3929 49.3929L52.4641 49.1214C52.9396 49.5484 53.4666 51.6786 53.5838 51.6847C53.7011 51.6903 53.8709 51.4436 53.9821 50.8779C54.0845 50.3532 54.187 49.5681 54.2938 48.929C54.3935 48.344 54.5485 48.0092 54.9002 47.9423C55.2525 47.8765 55.5132 48.3278 55.6042 48.6347C55.6042 48.6347 55.8512 48.0446 55.9038 47.6779C55.8452 47.485 55.2974 46.7577 54.8482 46.9982C54.3984 47.2393 54.1169 48.2599 54.0259 48.8981C53.9344 49.5352 53.8643 50.3253 53.7537 50.4519C53.6375 49.908 53.2656 48.9345 52.8163 48.3875C52.3113 47.7747 51.7207 47.5498 51.552 47.6962Z" fill="white"/>
<path d="M47.2942 46.6073C47.7111 46.4928 48.6495 46.349 49.0987 46.1145C49.5222 45.9159 50.2448 44.9475 50.5253 44.5864C50.8052 44.2253 50.8057 44.044 50.7345 43.9483C50.448 43.7912 48.5969 43.6358 47.704 43.8571C47.4575 44.0237 46.9749 44.9166 46.9037 45.1035C46.8313 45.2894 46.9299 45.2778 47.2291 45.2119C47.5287 45.1451 48.9492 45.181 49.463 45.2894C49.2488 45.4403 47.796 46.1742 47.509 46.349C47.223 46.5232 47.1507 46.6255 47.2942 46.6073Z" fill="white"/>
<path d="M133.357 51.777C133.315 50.6946 132.784 49.0328 130.769 46.4832C130.073 45.6029 129.094 44.4573 128.061 43.2838C128.033 42.8836 128.004 42.518 127.978 42.2039C127.843 40.5888 127.385 37.2936 127.187 35.3457C127.139 34.8544 127.135 34.3317 127.143 34.0587C127.15 33.8419 127.306 33.8708 127.521 34.0936C127.735 34.316 128.066 34.6406 128.135 34.6184C128.282 34.5677 128.154 34.0759 127.861 33.4929C127.569 32.909 126.463 30.5472 126.259 30.4556C126.155 30.409 125.633 31.7957 125.601 32.0794C125.705 32.2536 125.972 32.5245 125.998 33.3131C126.025 34.1012 126.5 38.7558 126.774 41.6888L126.789 41.8524C125.245 40.1289 123.791 38.5573 123.193 37.9201C123.089 37.8097 122.975 37.6841 122.853 37.5494C122.755 36.7648 122.665 36.0173 122.603 35.3999C122.553 34.9096 122.55 34.3859 122.558 34.1129C122.563 33.8966 122.721 33.926 122.935 34.1488C123.151 34.3712 123.481 34.6958 123.55 34.6725C123.697 34.6229 123.569 34.1311 123.276 33.5471C122.984 32.9632 121.83 30.5472 121.626 30.4556C121.522 30.409 120.977 31.9061 120.945 32.1877C121.049 32.363 121.316 32.634 121.342 33.4225C121.353 33.7573 121.44 34.7723 121.556 36.0532C120.533 34.8372 119.531 33.5639 119.459 33.305C119.434 33.1774 119.651 33.2559 120.051 33.3207C120.45 33.3846 120.824 33.5046 120.76 33.3071C120.73 33.2154 120.578 32.9865 120.196 32.7494C119.813 32.5129 118.834 31.9001 118.105 31.4675C117.375 31.0345 117.013 30.6703 116.863 30.7741C116.788 30.8253 116.855 32.3098 116.897 32.4937C117.081 32.5104 117.42 32.6466 117.636 32.9353C117.854 33.224 119.25 35.1811 120.353 36.5045C120.671 36.8854 121.169 37.4759 121.751 38.1576C121.865 39.3768 121.984 40.6364 122.083 41.6888C122.307 44.0896 123.112 50.4211 123.12 52.479C122.526 53.0366 121.31 53.8145 120.059 53.8308C118.809 53.8465 118.123 53.5172 117.619 52.5873C117.463 52.2991 117.319 52.0094 117.175 51.7471C116.834 51.1236 116.074 50.7736 115.341 50.9453L115.229 50.9752L115.03 51.0709C114.533 51.3308 114.02 51.7663 113.518 52.442C112.651 53.614 112.096 54.8852 111.454 55.9863C110.785 57.133 110.272 57.9024 109.099 57.7185C108.272 57.5889 107.645 56.8803 107.258 56.0086C108.345 55.257 109.134 54.2765 109.711 52.9176C110.462 51.1515 110.729 49.1605 110.663 46.9218C110.599 44.8149 109.638 39.8579 109.385 37.9581C109.131 36.0573 108.768 34.4973 108.81 34.0916C108.849 33.7001 109.473 34.6219 109.792 34.6908C109.955 34.6543 109.868 34.0663 109.558 33.5694C109.347 33.2316 108.681 31.6949 108.245 30.9539C108.04 30.6035 107.991 30.4004 107.896 30.3588C107.801 30.3158 107.076 31.8661 107.163 32.0348C107.378 32.3417 107.525 32.4881 107.57 33.0381C107.616 33.5882 108.113 37.6258 108.548 40.5994C108.876 42.8431 109.599 46.9188 109.692 49.9313C109.723 50.9144 109.583 51.62 109.461 52.014C109.149 52.6177 108.64 53.2883 106.852 54.5611C106.576 52.7626 106.876 51.3014 106.614 51.1661C106.319 51.1981 106.272 52.0363 106.238 53.0705C106.222 53.5481 106.243 54.2096 106.333 54.9202C104.136 56.388 101.235 57.7246 99.8729 58.4382C99.0736 58.8576 99.3617 58.9553 100.038 58.7462C100.715 58.536 104.433 57.561 106.418 56.5171L106.631 56.3986C106.732 56.7486 106.854 57.0874 107.004 57.3999C107.672 58.7877 108.626 59.6117 109.66 59.5312C110.529 59.4644 111.16 58.5339 111.71 57.4242C112.266 56.3009 113.206 54.1676 114.127 53.3739C114.481 53.068 114.847 52.8259 115.203 52.6805C115.203 52.6805 115.832 52.4703 116.411 52.8487C116.619 52.9854 116.774 53.1799 116.872 53.3977C117.101 53.8976 117.371 54.5338 117.923 55.0666C118.896 56.0036 120.46 55.8101 121.634 55.2651C122.805 54.7196 123.404 53.8687 123.664 52.8578C124.109 51.1282 124.038 49.356 123.953 47.7818C123.855 45.9853 123.568 44.1493 123.405 42.2039C123.352 41.5784 123.25 40.7083 123.132 39.7647C124.275 41.0836 125.461 42.4222 126.181 43.1541C126.429 43.4068 126.691 43.6874 126.96 43.9837C127.175 46.9284 127.381 50.6131 127.49 52.1594C127.598 53.7001 127.529 55.6369 127.516 55.9737C127.503 56.3105 127.69 56.2528 127.959 55.5052C128.32 54.5018 128.546 51.8707 128.467 50.1258C128.42 49.0891 128.317 47.1989 128.205 45.411C129.092 46.465 129.934 47.5291 130.481 48.2473C131.455 49.5226 132.35 51.039 132.663 51.9851C132.975 52.9323 133.01 53.2128 133.07 53.3815C133.131 53.5502 133.4 52.8593 133.357 51.777Z" fill="white"/>
<path d="M116.91 87.8023C116.822 87.5507 116.553 87.3661 116.23 87.3661C115.908 87.3661 115.639 87.5507 115.551 87.8023H112.5C112.469 87.4639 112.499 87.1238 112.595 86.7925L118.894 86.7886L119.069 87.0842C119.227 87.3507 119.428 87.5914 119.66 87.8024L116.91 87.8023ZM121.08 84.8754H113.511C114.092 84.4556 114.397 83.8429 114.316 83.2232C114.263 82.8325 113.876 82.5408 113.405 82.5012H113.168C112.594 82.5573 112.177 82.971 112.238 83.4254L112.261 83.6001L112.289 83.8688C112.32 84.2061 112.29 84.5452 112.195 84.8754H56.2473C57.078 86.0841 58.5927 86.8254 60.2284 86.8242L111.282 86.7929C110.698 87.2132 110.392 87.827 110.474 88.4478C110.534 88.9022 111.048 89.2259 111.622 89.1698C112.195 89.1138 112.612 88.7 112.552 88.2451L112.529 88.0709H115.529C115.582 88.3638 115.874 88.5885 116.23 88.5885C116.587 88.5885 116.879 88.3638 116.933 88.0709H119.985V88.0638C120.622 88.516 121.432 88.7759 122.288 88.7759C123.094 88.7759 123.747 88.216 123.747 87.5248V87.1633C123.747 85.9001 122.553 84.8753 121.08 84.8753" fill="white"/>
</g>
<defs>
<clipPath id="clip0_909_102749">
<rect width="180" height="120" fill="white"/>
</clipPath>
</defs>
</svg>
