<svg width="180" height="120" viewBox="0 0 180 120" fill="none" xmlns="http://www.w3.org/2000/svg">
<path d="M0 0H180V120H0V0Z" fill="#005801"/>
<path d="M0 120L180 0H0V120Z" fill="#0F3296"/>
<path d="M9.05601 120H0V113.963L170.944 0H180V6.03733L9.05601 120Z" fill="#FDD406"/>
<path d="M57.2876 16.6824L50.4602 11.7219L58.8994 11.7219L61.5072 3.6958L64.1151 11.7219L72.5543 11.7219L65.7268 16.6824L68.3347 24.7085L61.5072 19.7481L54.6798 24.7085L57.2876 16.6824Z" fill="white"/>
<path d="M34.3573 36.336L27.5299 31.3756L35.9691 31.3756L38.5769 23.3494L41.1848 31.3756L49.624 31.3756L42.7965 36.336L45.4044 44.3622L38.5769 39.4017L31.7495 44.3622L34.3573 36.336Z" fill="white"/>
<path d="M57.2876 55.9897L50.4602 51.0292L58.8994 51.0292L61.5072 43.0031L64.1151 51.0292L72.5543 51.0292L65.7268 55.9897L68.3347 64.0158L61.5072 59.0554L54.6798 64.0158L57.2876 55.9897Z" fill="white"/>
<path d="M11.427 55.9897L4.59961 51.0292L13.0388 51.0292L15.6466 43.0031L18.2545 51.0292L26.6937 51.0292L19.8663 55.9897L22.4741 64.0158L15.6466 59.0554L8.8192 64.0158L11.427 55.9897Z" fill="white"/>
<path d="M4.59961 11.7219L13.0388 11.7219L15.6466 3.6958L18.2545 11.7219L26.6937 11.7219L19.8663 16.6824L22.4741 24.7085L15.6466 19.7481L8.8192 24.7085L11.427 16.6824L4.59961 11.7219Z" fill="white"/>
</svg>
