<svg width="180" height="120" viewBox="0 0 180 120" fill="none" xmlns="http://www.w3.org/2000/svg">
<g clip-path="url(#clip0_307_46620)">
<path d="M0 0H180V120H0V0Z" fill="#D91C16"/>
<path d="M0 0H180V80H0V0Z" fill="#0F3296"/>
<path d="M0 0H180V40H0V0Z" fill="white"/>
<path d="M47.5494 92.7C36.7994 87.525 21.3994 77.2251 21.3994 56.9001C21.3994 36.5501 22.3994 27.3 22.3994 27.3H72.7244C72.7244 27.3 73.6994 36.5501 73.6994 56.9001C73.6994 77.2501 58.2994 87.5 47.5494 92.7Z" fill="white"/>
<path d="M47.5498 90C37.6748 85.25 23.5498 75.8 23.5498 57.15C23.5498 38.5 24.4498 30 24.4498 30H70.6498C70.6498 30 71.5248 38.5 71.5248 57.15C71.5498 75.825 57.4248 85.25 47.5498 90Z" fill="#D91C16"/>
<path d="M49.6498 52.25C52.3248 52.3 57.5498 52.4 62.1748 50.85C62.1748 50.85 62.0748 52.5251 62.0748 54.4501C62.0748 56.375 62.1998 58.05 62.1998 58.05C57.9498 56.625 52.6748 56.6 49.6498 56.625V66.9251H45.4498V56.625C42.4498 56.6 37.1748 56.625 32.9248 58.05C32.9248 58.05 33.0498 56.375 33.0498 54.4501C33.0498 52.5 32.9248 50.85 32.9248 50.85C37.5498 52.4 42.7748 52.3 45.4248 52.25V45.7751C42.9998 45.7751 39.4998 45.8751 35.5248 47.2001C35.5248 47.2001 35.6498 45.55 35.6498 43.6C35.6498 41.675 35.5248 40 35.5248 40C39.4998 41.325 42.9998 41.45 45.4248 41.425C45.2998 37.325 44.0998 32.175 44.0998 32.175C44.0998 32.175 46.5748 32.35 47.5498 32.35C48.5498 32.35 50.9998 32.175 50.9998 32.175C50.9998 32.175 49.7998 37.325 49.6748 41.425C52.0998 41.45 55.5998 41.325 59.5748 40C59.5748 40 59.4498 41.675 59.4498 43.6C59.4498 45.55 59.5748 47.2001 59.5748 47.2001C56.3709 46.1669 53.0149 45.6851 49.6498 45.7751V52.2751V52.25Z" fill="white"/>
<path d="M47.5492 65.825C42.5742 65.825 39.9242 72.7 39.9242 72.7C39.9242 72.7 38.4242 69.45 34.3742 69.45C31.6242 69.45 29.6242 71.875 28.3242 74.15C33.3242 82.075 41.2992 86.975 47.5492 90C53.7992 87 61.7992 82.075 66.7742 74.15C65.4742 71.9 63.4742 69.45 60.7242 69.45C56.6742 69.45 55.1742 72.7 55.1742 72.7C55.1742 72.7 52.5492 65.825 47.5492 65.825Z" fill="#0F3296"/>
</g>
<defs>
<clipPath id="clip0_307_46620">
<rect width="180" height="120" fill="white"/>
</clipPath>
</defs>
</svg>
