<svg width="180" height="120" viewBox="0 0 180 120" fill="none" xmlns="http://www.w3.org/2000/svg">
<g clip-path="url(#clip0_938_14)">
<path d="M0 0H180V120H0V0Z" fill="black"/>
<path d="M0 0H180V80H0V0Z" fill="white"/>
<path d="M0 0H180V40H0V0Z" fill="#005801"/>
<path fill-rule="evenodd" clip-rule="evenodd" d="M125.251 75L128.974 63.5412L119.226 56.459H131.276L134.999 45L138.722 56.459H150.77L141.023 63.5409L144.746 75L134.999 67.918L125.251 75ZM80.2504 75L83.9736 63.5412L74.2256 56.459H86.2747L89.998 45L93.7213 56.459H105.77L96.0223 63.5409L99.7456 75L89.9979 67.918L80.2504 75Z" fill="#D91C16"/>
<path fill-rule="evenodd" clip-rule="evenodd" d="M54.7472 75L44.9994 67.918L35.252 75L38.9752 63.5412L29.2272 56.459H41.2763L44.9996 45L48.7229 56.459H60.7712L51.0239 63.5409L54.7472 75Z" fill="#D91C16"/>
</g>
<defs>
<clipPath id="clip0_938_14">
<rect width="180" height="120" fill="white"/>
</clipPath>
</defs>
</svg>
