<svg width="180" height="120" viewBox="0 0 180 120" fill="none" xmlns="http://www.w3.org/2000/svg">
<g clip-path="url(#clip0_307_47781)">
<path d="M0 0H180V120H0V0Z" fill="#0F3296"/>
<path d="M0 22.5H180V97.5H0V22.5Z" fill="#FDD406"/>
<path d="M0 30H180V90H0V30Z" fill="#A30904"/>
<path d="M147.073 46.2839L139.787 48.8552L147.073 51.4265L154.358 48.8552L147.073 46.2839Z" fill="white"/>
<path fill-rule="evenodd" clip-rule="evenodd" d="M147.073 46.1235L154.813 48.8552L147.073 51.5868L139.333 48.8552L147.073 46.1235ZM140.242 48.8552L147.073 51.2661L153.904 48.8552L147.073 46.4442L140.242 48.8552Z" fill="black"/>
<path d="M142.28 47.9998H37.005C36.4904 47.9998 36.0732 48.3835 36.0732 48.8569C36.0732 49.3302 36.4904 49.714 37.005 49.714H142.28C142.795 49.714 143.212 49.3302 143.212 48.8569C143.212 48.3835 142.795 47.9998 142.28 47.9998Z" fill="#FDD406"/>
<path fill-rule="evenodd" clip-rule="evenodd" d="M37.0049 48.151C36.5616 48.151 36.2243 48.4787 36.2243 48.8569C36.2243 49.2351 36.5616 49.5628 37.0049 49.5628H142.28C142.724 49.5628 143.061 49.2351 143.061 48.8569C143.061 48.4787 142.724 48.151 142.28 48.151H37.0049ZM35.9219 48.8569C35.9219 48.2884 36.4189 47.8486 37.0049 47.8486H142.28C142.866 47.8486 143.363 48.2884 143.363 48.8569C143.363 49.4254 142.866 49.8652 142.28 49.8652H37.0049C36.4189 49.8652 35.9219 49.4254 35.9219 48.8569Z" fill="black"/>
<path d="M140.65 49.713C141.078 49.713 141.507 49.2843 141.507 48.8559C141.507 48.4275 141.078 47.9988 140.65 47.9988M139.792 49.713C140.22 49.713 140.649 49.2843 140.649 48.8559C140.649 48.4275 140.22 47.9988 139.792 47.9988M138.934 49.713C139.362 49.713 139.791 49.2843 139.791 48.8559C139.791 48.4275 139.362 47.9988 138.934 47.9988" fill="#FDD406"/>
<path fill-rule="evenodd" clip-rule="evenodd" d="M139.63 48.1596C139.812 48.3414 139.942 48.5922 139.942 48.8557C139.942 49.1192 139.812 49.37 139.63 49.5519C139.448 49.7338 139.197 49.864 138.934 49.864V49.5616C139.098 49.5616 139.276 49.4775 139.416 49.3379C139.556 49.1984 139.64 49.0206 139.64 48.8557C139.64 48.6908 139.556 48.513 139.416 48.3735C139.277 48.2339 139.099 48.1498 138.934 48.1498V47.8474C139.197 47.8474 139.448 47.9777 139.63 48.1596ZM140.488 48.1596C140.67 48.3414 140.8 48.5922 140.8 48.8557C140.8 49.1192 140.67 49.37 140.488 49.5519C140.306 49.7338 140.055 49.864 139.792 49.864V49.5616C139.956 49.5616 140.134 49.4775 140.274 49.3379C140.414 49.1984 140.498 49.0206 140.498 48.8557C140.498 48.6908 140.414 48.513 140.274 48.3735C140.135 48.2339 139.957 48.1498 139.792 48.1498V47.8474C140.055 47.8474 140.306 47.9777 140.488 48.1596ZM141.346 48.1596C141.528 48.3414 141.658 48.5922 141.658 48.8557C141.658 49.1192 141.528 49.37 141.346 49.5519C141.164 49.7338 140.913 49.864 140.65 49.864V49.5616C140.814 49.5616 140.992 49.4775 141.132 49.3379C141.272 49.1984 141.356 49.0206 141.356 48.8557C141.356 48.6908 141.272 48.513 141.132 48.3735C140.993 48.2339 140.815 48.1498 140.65 48.1498V47.8474C140.913 47.8474 141.164 47.9777 141.346 48.1596Z" fill="black"/>
<path d="M140.092 51.429L132.807 54.0003L140.092 56.5716L147.378 54.0003L140.092 51.429Z" fill="white"/>
<path fill-rule="evenodd" clip-rule="evenodd" d="M140.092 51.2686L147.832 54.0002L140.092 56.7318L132.353 54.0002L140.092 51.2686ZM133.261 54.0002L140.092 56.4112L146.924 54.0002L140.092 51.5892L133.261 54.0002Z" fill="black"/>
<path d="M135.3 53.145H30.0246C29.51 53.145 29.0928 53.5288 29.0928 54.0021C29.0928 54.4755 29.51 54.8592 30.0246 54.8592H135.3C135.815 54.8592 136.232 54.4755 136.232 54.0021C136.232 53.5288 135.815 53.145 135.3 53.145Z" fill="#FDD406"/>
<path fill-rule="evenodd" clip-rule="evenodd" d="M30.0244 53.2961C29.5811 53.2961 29.2438 53.6237 29.2438 54.002C29.2438 54.3802 29.5812 54.7079 30.0244 54.7079H135.3C135.743 54.7079 136.08 54.3802 136.08 54.002C136.08 53.6237 135.743 53.2961 135.3 53.2961H30.0244ZM28.9414 54.002C28.9414 53.4334 29.4384 52.9937 30.0244 52.9937H135.3C135.886 52.9937 136.383 53.4334 136.383 54.002C136.383 54.5705 135.886 55.0103 135.3 55.0103H30.0244C29.4384 55.0103 28.9414 54.5705 28.9414 54.002Z" fill="black"/>
<path d="M133.669 54.858C134.097 54.858 134.527 54.4293 134.527 54.0009C134.527 53.5725 134.098 53.1438 133.669 53.1438M132.811 54.858C133.239 54.858 133.669 54.4293 133.669 54.0009C133.669 53.5725 133.24 53.1438 132.811 53.1438M131.953 54.858C132.381 54.858 132.811 54.4293 132.811 54.0009C132.811 53.5725 132.382 53.1438 131.953 53.1438" fill="#FDD406"/>
<path fill-rule="evenodd" clip-rule="evenodd" d="M132.65 53.3046C132.832 53.4865 132.962 53.7373 132.962 54.0007C132.962 54.2642 132.831 54.515 132.649 54.6969C132.467 54.8788 132.216 55.009 131.953 55.009V54.7066C132.118 54.7066 132.296 54.6225 132.436 54.483C132.575 54.3434 132.66 54.1656 132.66 54.0007C132.66 53.8358 132.575 53.658 132.436 53.5185C132.296 53.3789 132.118 53.2948 131.953 53.2948V52.9924C132.217 52.9924 132.468 53.1227 132.65 53.3046ZM133.508 53.3046C133.69 53.4865 133.82 53.7373 133.82 54.0007C133.82 54.2642 133.689 54.515 133.507 54.6969C133.325 54.8788 133.074 55.009 132.811 55.009V54.7066C132.976 54.7066 133.154 54.6225 133.294 54.483C133.433 54.3434 133.518 54.1656 133.518 54.0007C133.518 53.8358 133.433 53.658 133.294 53.5185C133.154 53.3789 132.976 53.2948 132.811 53.2948V52.9924C133.075 52.9924 133.326 53.1227 133.508 53.3046ZM134.366 53.3046C134.548 53.4865 134.678 53.7373 134.678 54.0007C134.678 54.2642 134.547 54.515 134.365 54.6969C134.183 54.8788 133.932 55.009 133.669 55.009V54.7066C133.834 54.7066 134.012 54.6225 134.152 54.483C134.291 54.3434 134.376 54.1656 134.376 54.0007C134.376 53.8358 134.291 53.658 134.152 53.5185C134.012 53.3789 133.834 53.2948 133.669 53.2948V52.9924C133.933 52.9924 134.184 53.1227 134.366 53.3046Z" fill="black"/>
<path d="M161.605 58.7158H18.4293C17.7295 58.7158 17.1621 59.2914 17.1621 60.0015C17.1621 60.7115 17.7295 61.2871 18.4293 61.2871H161.605C162.305 61.2871 162.872 60.7115 162.872 60.0015C162.872 59.2914 162.305 58.7158 161.605 58.7158Z" fill="#FDD406"/>
<path fill-rule="evenodd" clip-rule="evenodd" d="M18.4292 58.878C17.821 58.878 17.324 59.3788 17.324 60.0016C17.324 60.6244 17.821 61.1253 18.4292 61.1253H161.605C162.213 61.1253 162.71 60.6244 162.71 60.0016C162.71 59.3788 162.213 58.878 161.605 58.878H18.4292ZM17 60.0016C17 59.2043 17.6377 58.554 18.4292 58.554H161.605C162.396 58.554 163.034 59.2043 163.034 60.0016C163.034 60.7989 162.396 61.4493 161.605 61.4493H18.4292C17.6377 61.4493 17 60.7989 17 60.0016Z" fill="black"/>
<path d="M152.624 58.98C151.325 61.2288 153.62 58.232 159.219 61.9968C160.257 62.6962 161.164 64.5436 161.164 65.8246C160.9 65.6484 160.705 65.2564 160.415 65.0016C160.008 65.4086 160.802 67.2748 160.919 68.1566C160.043 67.6668 160.127 67.4348 159.836 66.8328C159.894 67.5606 159.686 69.5648 160.034 70.3368C159.344 70.1396 159.39 69.5844 159.03 69.4728C159.275 70.3464 158.817 71.2972 158.938 72.2794C158.535 71.8804 158.106 71.5678 157.918 71.4066C157.887 71.8742 157.143 73.1034 157.126 73.5456C156.784 73.339 156.691 73.0168 156.634 72.7998C156.209 73.334 154.698 75.3072 154.601 75.909C153.437 74.8806 150.454 72.3764 150.066 71.0472C149.723 71.8016 149.226 72.0564 148.244 72.6072C147.856 70.5006 146.405 68.1328 147.181 66.327C146.631 66.653 146.179 66.9792 145.629 67.3804C146.15 64.3294 148.805 60.7518 152.625 58.98H152.624Z" fill="#333333"/>
<path fill-rule="evenodd" clip-rule="evenodd" d="M152.55 58.8518H152.625L152.657 58.9994L152.735 59.0442C152.571 59.3268 152.471 59.5162 152.425 59.6443C152.402 59.7086 152.397 59.7452 152.398 59.7638C152.399 59.767 152.399 59.7692 152.399 59.7705C152.405 59.7745 152.424 59.784 152.47 59.7912C152.517 59.7986 152.581 59.8017 152.664 59.8019C152.736 59.8021 152.819 59.8001 152.915 59.7977C152.928 59.7974 152.942 59.7971 152.955 59.7968C153.068 59.7941 153.194 59.7914 153.335 59.7917C154.469 59.7943 156.468 59.9923 159.291 61.8904C159.835 62.257 160.333 62.915 160.695 63.6351C161.057 64.3559 161.292 65.158 161.292 65.8247V66.0647L161.092 65.9313C160.94 65.8297 160.813 65.6704 160.698 65.5213C160.689 65.5099 160.68 65.4984 160.671 65.487C160.596 65.3908 160.524 65.2973 160.447 65.2133C160.445 65.2221 160.443 65.2314 160.441 65.2412C160.427 65.3178 160.424 65.4154 160.433 65.5324C160.452 65.7665 160.514 66.0565 160.595 66.369C160.647 66.5731 160.707 66.7821 160.765 66.9885C160.796 67.0983 160.827 67.2075 160.857 67.3147C160.941 67.6196 161.015 67.9095 161.046 68.1399L161.079 68.3935L160.856 68.2686C160.41 68.0191 160.191 67.826 160.05 67.6061C160.021 67.5609 159.996 67.5154 159.973 67.4693C159.972 67.506 159.972 67.5434 159.971 67.5813C159.97 67.6549 159.968 67.7306 159.966 67.808C159.961 68.0502 159.955 68.3087 159.955 68.5685C159.954 68.9111 159.963 69.2519 159.992 69.5534C160.022 69.8575 160.073 70.1106 160.151 70.2841L160.265 70.5361L159.999 70.4602C159.615 70.3503 159.432 70.1363 159.302 69.9445C159.278 69.909 159.258 69.877 159.239 69.8476C159.233 69.8386 159.227 69.8298 159.222 69.8212C159.252 70.1653 159.207 70.5133 159.157 70.854C159.152 70.8929 159.146 70.9318 159.14 70.9705C159.075 71.4059 159.012 71.8321 159.065 72.2637L159.111 72.631L158.848 72.3706C158.563 72.0884 158.271 71.8554 158.054 71.6826C158.036 71.6683 158.019 71.6543 158.002 71.6408C157.976 71.7299 157.941 71.8257 157.903 71.9232C157.828 72.1126 157.731 72.3245 157.637 72.5319L157.633 72.5389C157.537 72.7502 157.443 72.9566 157.372 73.1376C157.299 73.3231 157.257 73.4643 157.254 73.5505L157.246 73.7679L157.06 73.6554C156.791 73.4933 156.659 73.2677 156.584 73.0712C156.338 73.3868 155.955 73.8921 155.6 74.4025C155.379 74.7188 155.17 75.0354 155.011 75.309C154.931 75.4459 154.864 75.5705 154.815 75.6779C154.766 75.787 154.737 75.8713 154.728 75.9294L154.691 76.1593L154.516 76.0052C154.407 75.9091 154.282 75.7998 154.145 75.6796C153.549 75.1591 152.719 74.4331 151.953 73.6826C151.481 73.2205 151.031 72.7468 150.675 72.3035C150.407 71.9715 150.186 71.6496 150.049 71.3579C149.707 71.9355 149.22 72.2078 148.435 72.647C148.393 72.6706 148.35 72.6946 148.307 72.7191L148.15 72.8068L148.118 72.6305C148.022 72.1127 147.861 71.5764 147.683 71.031C147.631 70.8718 147.578 70.7115 147.524 70.5508C147.395 70.1637 147.264 69.7739 147.153 69.3902C146.876 68.437 146.702 67.4849 146.941 66.6246C146.526 66.8874 146.148 67.1602 145.704 67.484L145.449 67.6703L145.502 67.3589C146.029 64.2718 148.699 60.675 152.532 58.8815L152.55 58.8518ZM152.314 59.2726C148.854 61.0163 146.432 64.2502 145.817 67.0851C146.255 66.7677 146.651 66.4922 147.116 66.2167L147.454 66.016L147.299 66.3777C146.93 67.236 147.086 68.2403 147.399 69.3186C147.509 69.6972 147.637 70.0793 147.765 70.4643C147.819 70.6261 147.874 70.7885 147.927 70.9514C148.086 71.4393 148.235 71.929 148.335 72.4089C149.22 71.9134 149.644 71.6658 149.949 70.9941L150.092 70.6798L150.189 71.0113C150.278 71.3179 150.524 71.7072 150.874 72.1426C151.222 72.5748 151.664 73.0407 152.132 73.4994C152.892 74.2441 153.716 74.9638 154.311 75.4845C154.39 75.5535 154.465 75.619 154.535 75.6806C154.549 75.6451 154.565 75.6086 154.582 75.5713C154.636 75.4535 154.707 75.321 154.789 75.1799C154.953 74.8977 155.167 74.5747 155.389 74.2558C155.834 73.6176 156.32 72.9885 156.534 72.72L156.693 72.5198L156.758 72.7673C156.803 72.9383 156.865 73.1489 157.038 73.3176C157.063 73.2312 157.096 73.1382 157.133 73.0437C157.207 72.8552 157.304 72.6422 157.4 72.4325L157.401 72.4292C157.497 72.219 157.592 72.0121 157.664 71.8287C157.739 71.6406 157.784 71.4928 157.79 71.3981L157.807 71.1422L158.002 71.3094C158.05 71.3505 158.117 71.4045 158.199 71.4695C158.358 71.5969 158.571 71.7664 158.789 71.9631C158.785 71.61 158.837 71.2646 158.886 70.9371C158.892 70.8967 158.898 70.8566 158.904 70.8168C158.973 70.3453 159.021 69.9148 158.907 69.5075L158.843 69.2806L159.068 69.3504C159.191 69.3884 159.275 69.4641 159.342 69.5467C159.384 69.5994 159.426 69.6639 159.465 69.7243C159.482 69.7511 159.499 69.7771 159.515 69.801C159.59 69.9119 159.678 70.0225 159.823 70.1093C159.783 69.9491 159.756 69.7684 159.737 69.5786C159.706 69.2645 159.698 68.914 159.698 68.568C159.699 68.3055 159.705 68.0433 159.71 67.8006C159.712 67.7237 159.713 67.6487 159.715 67.5763C159.721 67.2727 159.722 67.0175 159.709 66.843L159.952 66.7771C160.014 66.9066 160.06 67.0203 160.101 67.1194C160.109 67.1389 160.116 67.1578 160.124 67.1762C160.17 67.2894 160.211 67.3809 160.266 67.4676C160.352 67.6011 160.48 67.7338 160.742 67.9021C160.708 67.7459 160.662 67.5705 160.61 67.3831C160.581 67.2794 160.551 67.172 160.52 67.0629C160.461 66.8545 160.4 66.6399 160.346 66.4332C160.265 66.1181 160.198 65.8101 160.178 65.5523C160.168 65.4233 160.169 65.3014 160.189 65.1946C160.208 65.0884 160.248 64.9868 160.324 64.9111L160.409 64.8259L160.499 64.9053C160.642 65.0312 160.763 65.1873 160.871 65.3267C160.881 65.3392 160.891 65.3517 160.9 65.3639C160.941 65.4165 160.98 65.4657 161.018 65.5106C160.96 64.9615 160.759 64.3335 160.466 63.7502C160.115 63.0516 159.641 62.4361 159.148 62.1033C156.371 60.2366 154.423 60.0507 153.335 60.0482C153.197 60.0479 153.073 60.0505 152.962 60.0532C152.948 60.0535 152.935 60.0538 152.921 60.0542C152.826 60.0565 152.739 60.0586 152.663 60.0584C152.577 60.0582 152.498 60.0551 152.431 60.0447C152.365 60.0345 152.296 60.0153 152.24 59.9716C152.177 59.9227 152.146 59.8543 152.142 59.778C152.138 59.7086 152.156 59.6338 152.184 59.5575C152.212 59.4782 152.256 59.3839 152.314 59.2726Z" fill="black"/>
<path d="M147.782 70.1161C148.321 69.0385 148.818 68.6969 149.166 68.0029C149.781 66.7833 149.869 65.8131 150.405 65.9553C150.941 66.0975 150.941 66.5971 150.246 67.7961C149.552 68.9953 149.222 69.2515 147.782 70.1161ZM151.427 72.6841C151.358 71.8635 151.596 71.5209 151.553 70.9927C151.479 70.0629 151.098 69.4249 151.593 69.3795C152.087 69.3343 152.318 69.6515 152.32 70.5883C152.321 71.5253 152.176 71.7713 151.428 72.6843L151.427 72.6841ZM154.193 74.2921C153.977 73.1467 154.139 72.6387 154.001 71.9007C153.76 70.6023 153.284 69.7477 153.742 69.6289C154.2 69.5101 154.477 69.9301 154.65 71.2469C154.824 72.5635 154.732 72.9253 154.193 74.2921ZM157.07 66.2671C156.395 65.7543 156 65.7199 155.565 65.3905C154.797 64.8125 154.409 64.1935 154.162 64.5007C153.915 64.8079 154.091 65.1439 154.895 65.6773C155.699 66.2107 155.971 66.2527 157.07 66.2671ZM156.593 70.0681C156.237 69.3287 155.862 69.1411 155.632 68.6653C155.225 67.8293 155.224 67.1059 154.783 67.2913C154.341 67.4767 154.306 67.8553 154.778 68.6647C155.25 69.4739 155.497 69.6205 156.593 70.0681Z" fill="#CCCCCC"/>
<path d="M23.4528 61.1459C23.3802 60.4911 23.5204 60.4127 23.1174 59.9189C23.704 60.1643 23.7262 60.8165 24.4394 60.3537C24.7012 60.2181 24.8154 60.2137 24.4972 59.4863C25.2408 59.5209 27.676 60.3559 28.066 60.3751C29.09 60.4223 30.9592 59.2995 32.2566 60.6801C33.502 61.9389 33.0862 63.2453 33.0862 64.9887C32.5858 64.7489 32.827 64.6307 32.296 64.0073C32.694 65.5311 32.2748 68.2785 32.2748 69.8945C32.0704 69.5049 32.1004 69.6739 31.9006 69.2705C31.3696 70.7455 30.7332 71.0491 30.7332 72.7925C30.5416 72.1089 30.7266 72.2533 30.5134 71.8937C29.9974 73.0137 26.5354 73.9707 27.8694 75.0995C26.6654 74.3935 26.1374 74.4677 25.5914 73.8327C25.356 73.9845 25.1692 74.2719 24.9504 74.6657C22.8334 73.6917 23.5904 71.5907 21.9318 70.1873C21.6448 70.7757 21.7756 70.6905 21.4654 71.6481C21.1296 70.3179 21.0378 69.4727 20.6602 68.4947C20.3344 69.0367 20.3634 68.8289 19.7718 69.6483C19.527 68.0279 19.1286 67.6455 19.2862 66.5733C18.6574 67.0169 19.069 66.8373 18.4404 67.3833C19.036 63.2313 21.6078 60.1631 23.4534 61.1457L23.4528 61.1459Z" fill="#333333"/>
<path fill-rule="evenodd" clip-rule="evenodd" d="M24.2471 59.3145L24.5044 59.3264C24.7078 59.3359 25.0135 59.3984 25.3517 59.4817C25.6938 59.5659 26.0826 59.6748 26.4581 59.7826C26.5811 59.818 26.7025 59.8531 26.8204 59.8872C27.064 59.9577 27.2929 60.024 27.4908 60.0787C27.6375 60.1193 27.7652 60.153 27.8675 60.177C27.9734 60.2019 28.0409 60.2136 28.0734 60.2152C28.3043 60.2258 28.5924 60.1701 28.9347 60.0924C28.9895 60.08 29.0456 60.067 29.1027 60.0538C29.3941 59.9864 29.7128 59.9127 30.0371 59.869C30.8176 59.7636 31.6722 59.8259 32.3716 60.569C33.0248 61.23 33.2439 61.9092 33.2978 62.6409C33.3244 63.0027 33.3108 63.3776 33.2913 63.7651C33.2881 63.8289 33.2847 63.8931 33.2813 63.9578C33.2639 64.2878 33.246 64.6286 33.246 64.9887V65.2429L33.0168 65.133C32.8835 65.0692 32.7878 65.0079 32.7144 64.9366C32.6554 64.8791 32.6162 64.8202 32.584 64.7611C32.6477 65.4178 32.6325 66.1744 32.5942 66.9245C32.5739 67.3239 32.547 67.7211 32.5212 68.1037C32.4764 68.7665 32.4346 69.3851 32.4346 69.8945L32.1328 69.9689C32.0404 69.7926 32.0008 69.7405 31.9642 69.6923C31.9621 69.6896 31.9601 69.6869 31.9581 69.6842C31.9481 69.671 31.9381 69.6577 31.9279 69.6432C31.7787 70.0042 31.6242 70.2974 31.4846 70.5623C31.4042 70.7148 31.3289 70.8579 31.2623 70.9991C31.0464 71.4569 30.893 71.9455 30.893 72.7925L30.5788 72.8357C30.4847 72.4999 30.4767 72.3497 30.4721 72.2472C30.2953 72.4588 30.0477 72.6557 29.7869 72.8392C29.5954 72.974 29.3886 73.107 29.1842 73.2375C29.1641 73.2503 29.1441 73.2631 29.124 73.2759C28.9392 73.3938 28.7575 73.5097 28.5876 73.6255C28.2033 73.8875 27.9116 74.1288 27.7874 74.3565C27.7289 74.4639 27.7135 74.5579 27.7344 74.647C27.756 74.7391 27.8219 74.8499 27.9725 74.9773L27.7882 75.2376C27.297 74.9495 26.9233 74.7951 26.6068 74.6643C26.5426 74.6378 26.4808 74.6123 26.4208 74.5868C26.1025 74.4515 25.8352 74.3169 25.5725 74.0491C25.4175 74.1905 25.271 74.4177 25.0901 74.7434L25.018 74.8731L24.8832 74.8111C23.7636 74.296 23.4044 73.4739 23.1176 72.6396C23.0885 72.5549 23.0601 72.4703 23.0319 72.3859C22.8004 71.6955 22.5748 71.0224 21.9851 70.4515C21.9177 70.6062 21.8912 70.6996 21.8625 70.8172C21.8566 70.8414 21.8506 70.8667 21.8442 70.8936C21.8055 71.0568 21.7524 71.2808 21.6174 71.6974L21.4461 72.2264L21.31 71.6873C21.1912 71.2168 21.1023 70.8045 21.0213 70.4289C20.9874 70.2715 20.9548 70.1205 20.9221 69.9744C20.8341 69.5824 20.7438 69.2215 20.6189 68.8518C20.5529 68.9431 20.4988 69.0037 20.4339 69.0751L20.426 69.0837C20.3227 69.1974 20.1856 69.3482 19.9013 69.742L19.6718 70.0598L19.6133 69.6722C19.5176 69.039 19.3991 68.601 19.2981 68.228C19.2715 68.1299 19.2462 68.0363 19.2228 67.9449C19.1359 67.6052 19.0777 67.2993 19.0923 66.9218C19.0345 66.973 19.0151 67.0012 18.9955 67.0297L18.9948 67.0307C18.9917 67.0351 18.9886 67.0397 18.9853 67.0445C18.9605 67.081 18.9281 67.1285 18.8685 67.1953C18.8027 67.2691 18.7051 67.3652 18.5451 67.5041L18.2207 67.7859L18.2817 67.3606C18.5829 65.2607 19.3845 63.4272 20.3538 62.2379C20.8382 61.6436 21.3712 61.2021 21.913 60.9744C22.3688 60.7828 22.8332 60.7423 23.2717 60.8927C23.2691 60.8416 23.2676 60.7951 23.2662 60.7524C23.266 60.7454 23.2658 60.7386 23.2656 60.7319C23.2625 60.6318 23.2603 60.5614 23.2505 60.4957C23.232 60.3723 23.1854 60.2556 22.9931 60.0201L23.1789 59.7713C23.3493 59.8426 23.4764 59.9427 23.5795 60.0379C23.62 60.0753 23.6583 60.1135 23.6929 60.1479C23.7014 60.1564 23.7097 60.1646 23.7178 60.1726C23.76 60.2144 23.7961 60.2489 23.8313 60.2774C23.8995 60.3325 23.9527 60.3555 24.014 60.3555C24.0815 60.3554 24.1857 60.3274 24.352 60.2194L24.3586 60.2152L24.3655 60.2116C24.3861 60.201 24.4038 60.192 24.4193 60.1841C24.4619 60.1625 24.4877 60.1495 24.5094 60.1337C24.5267 60.1211 24.5275 60.1168 24.5283 60.1121C24.5284 60.1117 24.5284 60.1114 24.5285 60.1109C24.5319 60.0941 24.5328 60.0507 24.5051 59.9536C24.4781 59.8592 24.429 59.7304 24.3503 59.5504L24.2471 59.3145ZM23.303 61.2498L23.3153 61.3608L23.8564 61.1791L23.6032 61.0443C23.5925 60.926 23.5889 60.8285 23.5862 60.7424C23.5859 60.7337 23.5856 60.7251 23.5854 60.7165C23.5828 60.6325 23.5803 60.5522 23.5707 60.475C23.59 60.4927 23.6098 60.5099 23.63 60.5263C23.7299 60.6071 23.8526 60.6757 24.0143 60.6756C24.1681 60.6754 24.332 60.613 24.5194 60.4924C24.5282 60.4879 24.5374 60.4832 24.547 60.4784C24.5957 60.4539 24.6529 60.425 24.6973 60.3928C24.7637 60.3447 24.8221 60.2767 24.8426 60.1729C24.8607 60.0808 24.845 59.9782 24.8129 59.8657C24.7971 59.8103 24.7759 59.7483 24.7494 59.6784C24.8967 59.704 25.0752 59.7432 25.2752 59.7925C25.611 59.8751 25.9948 59.9826 26.3698 60.0903C26.491 60.1251 26.6114 60.16 26.7289 60.194C26.9737 60.2648 27.2057 60.332 27.4055 60.3873C27.5536 60.4282 27.6859 60.4632 27.7943 60.4886C27.8989 60.5132 27.9928 60.5318 28.0579 60.535L28.0584 60.535C28.3394 60.5479 28.6689 60.481 29.0055 60.4046C29.0628 60.3916 29.1206 60.3783 29.1788 60.3648C29.4701 60.2975 29.7718 60.2278 30.0799 60.1862C30.8139 60.0871 31.542 60.1536 32.1397 60.7897L32.1411 60.7912L32.1426 60.7927C32.7336 61.39 32.9291 61.993 32.9786 62.6644C33.0036 63.0045 32.9911 63.3618 32.9716 63.7489C32.9685 63.8115 32.9651 63.8748 32.9617 63.9389C32.949 64.1814 32.9356 64.435 32.9294 64.6989C32.8969 64.6651 32.8744 64.6282 32.8455 64.5704C32.8371 64.5535 32.8285 64.5357 32.8194 64.5167C32.7547 64.3824 32.6628 64.1914 32.4176 63.9035L32.1409 64.0477C32.3328 64.7826 32.3297 65.8271 32.2746 66.9082C32.2549 67.2937 32.2285 67.6845 32.2029 68.0646C32.1722 68.5199 32.1425 68.9601 32.1266 69.3581C32.1047 69.3192 32.0779 69.2684 32.0438 69.1995L31.877 68.8628L31.7498 69.2163C31.5722 69.7095 31.3878 70.0589 31.214 70.3882C31.1305 70.5464 31.0495 70.6999 30.9728 70.8626C30.8377 71.149 30.7259 71.4474 30.6551 71.8194C30.6537 71.817 30.6523 71.8145 30.6508 71.8121L30.4953 71.5498L30.3678 71.8267C30.2588 72.0633 29.9802 72.3117 29.6026 72.5775C29.4178 72.7076 29.2167 72.837 29.012 72.9677C28.9919 72.9805 28.9717 72.9934 28.9516 73.0062C28.7674 73.1237 28.5815 73.2423 28.4072 73.3611C28.0283 73.6194 27.6723 73.899 27.5064 74.2033C27.4275 74.3479 27.3871 74.506 27.4133 74.672C27.1484 74.5416 26.9224 74.4483 26.726 74.3672C26.6631 74.3412 26.6032 74.3165 26.546 74.2922C26.2044 74.147 25.9621 74.0186 25.7125 73.7284L25.6216 73.6226L25.5044 73.6982C25.262 73.8545 25.0745 74.1259 24.8848 74.4559C23.9905 73.996 23.6862 73.309 23.4203 72.5355C23.3918 72.4525 23.3637 72.3683 23.3353 72.2832C23.087 71.5391 22.8157 70.7257 22.0349 70.0651L21.8779 69.9322L21.7877 70.1171C21.6397 70.4206 21.5965 70.5571 21.5516 70.7413C21.5455 70.7662 21.5394 70.7918 21.533 70.819C21.5186 70.8794 21.5026 70.947 21.4812 71.0292C21.4278 70.7955 21.3807 70.5767 21.3355 70.3673C21.3013 70.2084 21.2682 70.0549 21.2344 69.9043C21.1216 69.4015 21.0022 68.9368 20.8093 68.4371L20.6914 68.1318L20.5228 68.4122C20.3659 68.6732 20.2982 68.7484 20.197 68.8598L20.191 68.8664C20.1138 68.9514 20.0192 69.0554 19.8673 69.2518C19.7819 68.7896 19.6865 68.4374 19.6056 68.1388C19.5796 68.0428 19.5551 67.9523 19.5329 67.8656C19.4255 67.4454 19.3696 67.1044 19.4443 66.5966L19.4986 66.2274L19.1937 66.4425C18.875 66.6673 18.8018 66.7465 18.7312 66.8491C18.7276 66.8542 18.7242 66.8593 18.7208 66.8642C18.7074 66.8839 18.6944 66.903 18.6773 66.9251C19.0174 65.0773 19.7483 63.4875 20.602 62.4401C21.0657 61.8712 21.5589 61.4704 22.037 61.2695C22.4825 61.0822 22.9115 61.0689 23.303 61.2498Z" fill="black"/>
<path d="M20.8477 67.9238C21.3933 66.587 21.8849 66.1672 22.2375 65.3066C22.8599 63.794 22.9613 62.5846 23.4841 62.7692C24.0071 62.9536 23.9987 63.5766 23.2991 65.0626C22.5995 66.5492 22.2721 66.8642 20.8477 67.9234V67.9238ZM22.9129 71.2688C23.1317 70.0704 23.4767 69.6338 23.6185 68.862C23.8703 67.5048 23.7299 66.494 24.2159 66.5474C24.7019 66.6006 24.8117 67.113 24.4883 68.463C24.1649 69.8132 23.9419 70.1328 22.9129 71.2688ZM25.3831 73.5938C25.4447 72.4318 25.7171 71.9784 25.7579 71.2298C25.8317 69.9134 25.5783 68.9712 26.0417 68.9658C26.5051 68.9604 26.6703 69.4338 26.5283 70.7516C26.3863 72.0696 26.2149 72.3984 25.3831 73.5938ZM30.6875 65.9948C29.6733 64.9844 29.0601 64.7956 28.4057 64.1458C27.2531 63.0046 26.6963 61.933 26.2859 62.3128C25.8755 62.6928 26.1225 63.262 27.3359 64.348C28.5495 65.434 28.9715 65.5924 30.6875 65.9948ZM30.0695 69.9008C29.4089 68.8862 28.9241 68.6234 28.4975 67.9706C27.7455 66.8234 27.4867 65.8376 27.0605 66.0818C26.6339 66.326 26.7293 66.841 27.5445 67.9532C28.3595 69.065 28.6873 69.2696 30.0695 69.9012V69.9008Z" fill="#CCCCCC"/>
<path d="M132.074 59.9999C123.503 68.5705 112.074 85.7139 89.2164 85.7139C69.2164 85.7139 54.9324 68.5715 46.3584 59.9999C54.9298 51.4277 69.2144 34.2859 89.2164 34.2859C112.072 34.2859 123.5 51.4285 132.074 59.9999Z" fill="white"/>
<path d="M86.2241 43.2298C88.5046 45.7944 86.6004 46.8286 89.0142 46.9968C91.5596 47.1838 90.1166 49.707 92.2577 49.7948C93.7547 49.8602 92.1083 55.84 93.5491 57.8134C95.0171 59.8706 96.2465 58.4162 96.2723 59.9022C96.2977 61.4394 92.2771 61.2844 92.2067 66.0192C92.0887 68.748 88.8138 68.9226 88.6574 70.6786C88.463 72.3301 95.1096 73.257 95.0207 74.7355C94.9296 76.2094 87.8442 75.9786 87.5358 77.6596C87.3778 79.1697 97.2695 80.407 98.0651 84.7736C96.5891 85.2562 92.3893 85.7107 89.2153 85.7131C69.2183 85.7275 54.9314 68.569 46.3604 59.9982C54.9318 51.4262 69.2168 34.2834 89.2183 34.2834C89.2183 34.2834 83.2818 39.708 86.2272 43.228L86.2241 43.2298Z" fill="black"/>
<path fill-rule="evenodd" clip-rule="evenodd" d="M46.5721 59.9999C47.4362 60.8662 48.3568 61.8164 49.3338 62.8249C53.1987 66.8141 57.9481 71.7164 63.5933 75.9504C70.7219 81.2967 79.2614 85.5628 89.2164 85.5628C108.465 85.5628 119.569 73.3727 127.737 64.4062C129.196 62.8055 130.56 61.3075 131.861 60C130.559 58.6916 129.193 57.1926 127.734 55.5908C119.564 46.6242 108.461 34.4372 89.2164 34.4372C79.2604 34.4372 70.7202 38.7031 63.5916 44.0494C57.9432 48.2855 53.192 53.1908 49.3268 57.1814C48.3523 58.1875 47.4341 59.1355 46.5721 59.9999ZM63.4102 43.8074C70.5672 38.4398 79.1704 34.1348 89.2164 34.1348C108.607 34.1348 119.812 46.4396 127.977 55.4061C129.47 57.0451 130.86 58.5726 132.181 59.893L132.288 60L132.181 60.1069C130.862 61.4264 129.472 62.9529 127.981 64.5909C119.817 73.5573 108.611 85.8652 89.2164 85.8652C79.1713 85.8652 70.5689 81.56 63.4119 76.1923C57.7453 71.9423 52.9739 67.0171 49.1083 63.0269C48.0935 61.9794 47.1412 60.9964 46.2515 60.1069L46.1445 60L46.2515 59.8931C47.1391 59.0053 48.0891 58.0245 49.1013 56.9794C52.9673 52.9878 57.7405 48.0596 63.4102 43.8074Z" fill="black"/>
<path d="M64.4365 57.714V50.8569H62.3584V57.714H64.4365Z" fill="white"/>
<path d="M66.5134 50.8569V57.714H68.5915V50.8569H66.5134Z" fill="white"/>
<path d="M70.6714 50.8569V57.714H72.7495V50.8569H70.6714Z" fill="white"/>
<path d="M64.4365 69.1441V62.287H62.3584V69.1441H64.4365Z" fill="white"/>
<path d="M66.5134 62.287V69.1441H68.5915V62.287H66.5134Z" fill="white"/>
<path d="M70.6714 62.287V69.1441H72.7495V62.287H70.6714Z" fill="white"/>
<path d="M76.9045 50.8569V57.714H74.8264V50.8569H76.9045Z" fill="white"/>
<path d="M78.9814 57.714V50.8569H81.0595V57.714H78.9814Z" fill="white"/>
<path d="M83.1394 57.714V50.8569H85.2175V57.714H83.1394Z" fill="white"/>
<path d="M76.9045 69.1441V62.287H74.8264V69.1441H76.9045Z" fill="white"/>
<path d="M78.9814 62.287V69.1441H81.0595V62.287H78.9814Z" fill="white"/>
<path d="M83.1394 62.287V69.1441H85.2175V62.287H83.1394Z" fill="white"/>
<path d="M95.8642 57.714V50.8569H93.7861V57.714H95.8642Z" fill="black"/>
<path d="M97.9411 50.8569V57.714H100.019V50.8569H97.9411Z" fill="black"/>
<path d="M102.099 50.8569V57.714H104.177V50.8569H102.099Z" fill="black"/>
<path d="M95.8642 69.1441V62.287H93.7861V69.1441H95.8642Z" fill="black"/>
<path d="M97.9411 62.287V69.1441H100.019V62.287H97.9411Z" fill="black"/>
<path d="M102.099 62.287V69.1441H104.177V62.287H102.099Z" fill="black"/>
<path d="M108.332 50.8569V57.714H106.254V50.8569H108.332Z" fill="black"/>
<path d="M110.409 57.714V50.8569H112.487V57.714H110.409Z" fill="black"/>
<path d="M114.567 57.714V50.8569H116.645V57.714H114.567Z" fill="black"/>
<path d="M108.332 69.1441V62.287H106.254V69.1441H108.332Z" fill="black"/>
<path d="M110.409 62.287V69.1441H112.487V62.287H110.409Z" fill="black"/>
<path d="M114.567 62.287V69.1441H116.645V62.287H114.567Z" fill="black"/>
<path d="M75.3581 38.8499C74.1707 41.1463 77.4371 38.0861 82.5575 41.9307C83.5065 42.6449 84.8667 45.4667 84.8667 46.7747C83.7765 46.5427 81.8459 45.4667 81.8459 45.4667C81.8459 45.4667 84.1115 47.7359 84.1115 50.3519C83.3111 49.8515 82.9107 49.9265 82.6445 49.3121C82.6445 50.1589 83.3565 50.6987 83.3565 52.0067C82.8695 51.6154 82.3488 51.2681 81.8005 50.9687C82.5557 52.2767 80.4245 54.8141 81.4911 55.6611C79.6257 55.3913 77.7171 54.1995 76.9619 52.8915C76.5617 53.1611 76.5183 53.5847 76.5027 54.0361C76.5615 54.0851 73.6631 51.8849 73.9295 51.0397C73.5407 51.5851 73.4861 51.8849 73.3973 52.4997C72.3327 51.4497 71.3567 50.3997 71.0015 49.0421C70.5285 49.6567 70.4987 49.6567 70.0255 50.2715C69.6707 48.1201 69.6707 48.1969 70.3805 46.3531C69.8777 46.6861 69.4637 47.0191 68.9609 47.4291C69.4369 44.3135 71.8655 40.6601 75.3585 38.8507L75.3581 38.8499Z" fill="#333333"/>
<path fill-rule="evenodd" clip-rule="evenodd" d="M75.3606 38.5757L75.5238 38.9047L75.4498 38.943C75.3143 39.2094 75.2513 39.3834 75.24 39.4961C75.2344 39.5521 75.2429 39.5818 75.2518 39.5982C75.26 39.6133 75.2756 39.63 75.312 39.6459C75.3943 39.682 75.5375 39.6958 75.7646 39.6962C75.864 39.6964 75.9746 39.6942 76.0975 39.6917C76.1106 39.6914 76.1238 39.6912 76.1372 39.6909C76.2755 39.6882 76.4279 39.6854 76.5928 39.6858C77.9198 39.6884 80.0449 39.889 82.6321 41.8316C82.8857 42.0224 83.1579 42.3462 83.4215 42.7354C83.6865 43.1268 83.9485 43.5929 84.1799 44.0765C84.64 45.0376 84.9908 46.0913 84.9908 46.7746V46.9277L84.8411 46.8958C84.2799 46.7764 83.5126 46.4431 82.8939 46.1453C82.7097 46.0566 82.5375 45.9704 82.3863 45.8931C82.5879 46.1411 82.8357 46.4706 83.0836 46.862C83.6555 47.765 84.2356 49.01 84.2356 50.3518V50.5754L84.046 50.4569C83.7776 50.2891 83.5642 50.1918 83.3762 50.1061C83.2864 50.0651 83.2024 50.0268 83.121 49.9848C83.0259 49.9356 82.9371 49.8821 82.8554 49.8141C82.9075 49.9729 82.9787 50.1325 83.0568 50.3073C83.0755 50.3494 83.0947 50.3924 83.1141 50.4365C83.2947 50.8467 83.4806 51.3273 83.4806 52.0066V52.2651L83.2791 52.1032C82.8883 51.7893 82.4755 51.5039 82.0439 51.2492C82.1132 51.5325 82.0984 51.8427 82.043 52.1561C81.969 52.5743 81.8187 53.0188 81.6755 53.4421C81.6658 53.4706 81.6562 53.499 81.6466 53.5274C81.4931 53.9822 81.3555 54.406 81.3192 54.7669C81.2831 55.1254 81.3495 55.3902 81.5684 55.564L81.9277 55.8493L81.4736 55.7837C80.5223 55.6461 79.5629 55.2741 78.7455 54.7711C77.9782 54.299 77.3284 53.7067 76.9285 53.0752C76.6785 53.3058 76.6407 53.6356 76.6267 54.0403L76.6125 54.0398C76.582 54.1137 76.4952 54.1598 76.4646 54.1544C76.4567 54.1515 76.4459 54.1464 76.4427 54.1447C76.4418 54.1441 76.4406 54.1434 76.4395 54.1428C76.4385 54.1422 76.4376 54.1416 76.4371 54.1413C76.4326 54.1385 76.428 54.1351 76.4269 54.1342L76.4267 54.1341C76.422 54.1307 76.4149 54.1253 76.4058 54.1184C76.3873 54.1044 76.3589 54.0825 76.322 54.0537C76.2482 53.996 76.1401 53.9102 76.0096 53.8032C75.7489 53.5894 75.398 53.2905 75.0531 52.963C74.7092 52.6363 74.3672 52.2774 74.1271 51.9437C74.0072 51.777 73.9094 51.6121 73.8504 51.4571C73.845 51.4429 73.8398 51.4285 73.835 51.4142C73.7608 51.5447 73.7086 51.6629 73.6687 51.7828C73.5993 51.9907 73.5647 52.2086 73.5201 52.5174L73.4851 52.76L73.3105 52.5879C72.3084 51.5995 71.3616 50.5906 70.9507 49.31C70.8035 49.4982 70.7065 49.6168 70.6097 49.7351L70.6094 49.7354C70.4842 49.8885 70.3593 50.0412 70.1239 50.347L69.9499 50.5731L69.9035 50.2916C69.898 50.2584 69.8926 50.2257 69.8873 50.1936C69.7217 49.1902 69.6358 48.67 69.6806 48.1855C69.7202 47.7573 69.8617 47.3585 70.1213 46.6821C69.7607 46.9397 69.4278 47.2083 69.0394 47.5251L68.79 47.7284L68.8386 47.4103C69.319 44.2658 71.7573 40.5932 75.2656 38.7594L75.3606 38.5757ZM75.0864 39.1385C71.9234 40.9172 69.703 44.2215 69.1397 47.1243C69.5346 46.8053 69.8927 46.5276 70.3123 46.2497L70.6357 46.0356L70.4963 46.3976C70.481 46.4374 70.466 46.4764 70.4513 46.5144C70.1243 47.3634 69.9679 47.7691 69.9274 48.2083C69.8887 48.627 69.9551 49.0779 70.1018 49.9714C70.2353 49.8014 70.3267 49.6897 70.4179 49.5782C70.5432 49.4251 70.6681 49.2724 70.9035 48.9665L71.0576 48.7662L71.1216 49.0107C71.4483 50.2594 72.3164 51.2469 73.3113 52.2397C73.343 52.0427 73.3778 51.8716 73.4336 51.7044C73.5118 51.4698 73.6294 51.2475 73.8288 50.9677L74.0479 51.0769C74.0265 51.1447 74.0331 51.2404 74.082 51.369C74.1303 51.496 74.2148 51.6413 74.3282 51.7989C74.5549 52.114 74.8838 52.4604 75.2238 52.7833C75.5629 53.1054 75.9089 53.4002 76.1668 53.6116C76.2529 53.6822 76.3291 53.7434 76.3917 53.7931C76.4218 53.4181 76.5159 53.0426 76.8929 52.7887L77.003 52.7145L77.0694 52.8295C77.4338 53.4606 78.0823 54.0721 78.8753 54.5601C79.5731 54.9894 80.376 55.319 81.1823 55.4817C81.0676 55.2667 81.0456 55.0104 81.0726 54.7421C81.1123 54.3481 81.2603 53.8969 81.4118 53.4481C81.4209 53.4214 81.4299 53.3946 81.439 53.3679C81.5838 52.9394 81.7284 52.5118 81.799 52.113C81.874 51.6886 81.8605 51.3201 81.6934 51.0306L81.4727 50.6484L81.8601 50.8599C82.3361 51.1199 82.7916 51.4155 83.2226 51.7443C83.1833 51.2503 83.0372 50.8769 82.8873 50.5363C82.8683 50.4931 82.849 50.4501 82.8298 50.4072C82.6739 50.0593 82.5208 49.7178 82.5208 49.312L82.7584 49.2628C82.8198 49.4046 82.8866 49.5013 82.9611 49.5756C83.0362 49.6504 83.124 49.7074 83.2348 49.7646C83.2998 49.7982 83.3748 49.8325 83.459 49.871C83.6066 49.9385 83.7826 50.019 83.9824 50.1312C83.9237 48.9399 83.4026 47.8288 82.8742 46.9945C82.5946 46.553 82.3148 46.192 82.1051 45.9416C82.0003 45.8165 81.9131 45.7191 81.8524 45.6533C81.822 45.6203 81.7983 45.5953 81.7822 45.5786C81.7742 45.5703 81.7681 45.5641 81.7641 45.56L81.7597 45.5554L81.7584 45.5542C81.7584 45.5542 81.7584 45.5542 81.7586 45.554L81.9064 45.3584L81.9067 45.3586L81.9077 45.3591L81.9117 45.3614L81.9279 45.3703C81.9421 45.3781 81.9632 45.3897 81.9904 45.4045C82.0449 45.4341 82.1241 45.4768 82.2226 45.5288C82.4197 45.6328 82.6937 45.7738 83.0014 45.922C83.5619 46.1919 84.2239 46.4802 84.7367 46.616C84.689 45.9871 84.3768 45.0616 83.9564 44.1835C83.7292 43.7088 83.4732 43.2538 83.2163 42.8744C82.9579 42.4927 82.7041 42.1959 82.4832 42.0296C79.9501 40.1277 77.8818 39.9361 76.5923 39.9336C76.4303 39.9333 76.2802 39.9359 76.1421 39.9387C76.1286 39.9389 76.1153 39.9392 76.1021 39.9395C75.9798 39.9419 75.8664 39.9442 75.7641 39.944C75.5443 39.9436 75.3494 39.9329 75.2125 39.8728C75.1392 39.8407 75.0749 39.7915 75.0342 39.7167C74.9942 39.6432 74.9847 39.5592 74.9934 39.4716C75.0028 39.3775 75.0346 39.2672 75.0864 39.1385Z" fill="black"/>
<path d="M72.4307 50.0698C72.6207 48.4874 73.0343 47.8912 73.1579 46.8722C73.3785 45.08 73.1167 43.7698 73.7519 43.8032C74.3871 43.8362 74.5699 44.4972 74.2559 46.286C73.9421 48.0742 73.6773 48.5084 72.4307 50.0698ZM75.7457 52.9678C75.6171 51.6328 75.8637 51.0644 75.7817 50.2042C75.6407 48.691 75.1733 47.666 75.7269 47.5718C76.2803 47.4776 76.5603 47.9852 76.6199 49.513C76.6797 51.041 76.5317 51.448 75.7455 52.9678H75.7457ZM80.9207 55.3318C80.3579 54.1764 79.8743 53.832 79.5111 53.0884C78.8693 51.7816 78.7351 50.7144 78.2403 50.9076C77.7453 51.1012 77.7725 51.6532 78.4875 52.9324C79.2023 54.2116 79.5255 54.4726 80.9207 55.3318ZM82.7117 44.9848C81.2783 44.2302 80.5421 44.2208 79.6185 43.7358C77.9919 42.8858 77.0451 41.9254 76.7091 42.454C76.3727 42.9826 76.8215 43.5082 78.4985 44.281C80.1755 45.0538 80.6905 45.0904 82.7119 44.9848H82.7117ZM83.2367 49.3078C82.1931 48.4396 81.5759 48.3118 80.9027 47.7532C79.7167 46.7732 79.1267 45.8104 78.7305 46.2008C78.3345 46.591 78.5991 47.1064 79.8437 48.0298C81.0885 48.9532 81.5141 49.0678 83.2367 49.3078Z" fill="#CCCCCC"/>
</g>
<defs>
<clipPath id="clip0_307_47781">
<rect width="180" height="120" fill="white"/>
</clipPath>
</defs>
</svg>
