<svg width="180" height="120" viewBox="0 0 180 120" fill="none" xmlns="http://www.w3.org/2000/svg">
<g clip-path="url(#clip0_909_226152)">
<path d="M180 0H0V120H180V0Z" fill="#1E9A1C"/>
<path d="M67.9245 16.604L68.5707 14.6153H70.6617L68.97 13.3862L69.6162 11.3975L67.9245 12.6265L66.2328 11.3975L66.8789 13.3861L65.1872 14.6153H67.2783L67.9245 16.604Z" fill="white"/>
<path d="M91.2128 27.0341C91.2128 20.8787 87.4855 15.5926 82.1655 13.3085C85.5472 16.1913 87.6134 20.5467 87.4046 25.3289C87.045 33.5658 80.0736 39.9539 71.8366 39.5943C69.9806 39.5133 68.2189 39.0955 66.6065 38.4041C69.2128 40.6242 72.5908 41.9651 76.2819 41.9651C84.5266 41.9651 91.2128 35.2789 91.2128 27.0341Z" fill="white"/>
<path d="M68.5707 22.2953L67.9245 24.284L67.2783 22.2953H65.1872L66.8789 21.0662L66.2328 19.0775L67.9245 20.3065L69.6162 19.0775L68.97 21.0662L70.6617 22.2953H68.5707Z" fill="white"/>
<path d="M76.1581 18.5509L75.5119 20.5396L74.8657 18.5509H72.7746L74.4664 17.3217L73.8202 15.3331L75.5119 16.5621L77.2036 15.3331L76.5574 17.3218L78.2491 18.5509H76.1581Z" fill="white"/>
<path d="M60.3373 28.0284L60.9835 26.0396H63.0745L61.3828 24.8106L62.029 22.8218L60.3373 24.0509L58.6456 22.8218L59.2917 24.8105L57.6 26.0396H59.6911L60.3373 28.0284Z" fill="white"/>
<path d="M68.5707 29.9752L67.9245 31.964L67.2783 29.9752H65.1872L66.8789 28.7461L66.2328 26.7574L67.9245 27.9865L69.6162 26.7574L68.97 28.7462L70.6617 29.9752H68.5707Z" fill="white"/>
<path d="M46.8 0H14.4V120H46.8V0Z" fill="#D91C16"/>
<path d="M22.3236 0H21.2007L19.2093 1.82194L18.4148 1.08041H19.1457L19.008 0.24355H17.7368L15.2262 2.59527V3.49569H16.3385V2.74358L16.9106 3.26264L15.6076 4.47027L16.222 5.05288L14.4 6.7478V7.92366L17.4826 5.05288L16.8682 4.47027L18.1606 3.26264L17.0483 2.22451L17.7898 1.54654L19.2093 2.8601L22.3236 0Z" fill="black"/>
<path d="M19.5556 0H20.2656L19.6542 0.571948L19.5556 0Z" fill="black"/>
<path d="M14.4 0H16.4973L15.883 0.624923H15.1203V1.48296L14.4 2.21389V0Z" fill="black"/>
<path d="M19.6517 0H20.1391L19.7186 0.391831L19.6517 0Z" fill="#FDD406"/>
<path d="M14.4009 0H16.3817L15.8521 0.529548H15.0365V1.45114L14.4009 2.08674V0Z" fill="#FDD406"/>
<path d="M22.1864 0L19.2099 2.7435L17.7904 1.41934L16.9217 2.22443L18.034 3.26256L16.7416 4.47019L17.3561 5.0528L14.4006 7.79646V6.86426L16.3497 5.0528L15.7353 4.47019L17.0383 3.26256L16.2544 2.53163V3.41087H15.3116V2.62697L17.7798 0.328251H18.9239L19.0407 0.995624H18.1932L19.2102 1.93842L21.3286 0H22.1864Z" fill="#FDD406"/>
<path d="M14.4004 13.9175V15.0933L16.2224 16.7988L15.608 17.3709L16.911 18.5785L16.3389 19.0976V18.3454H15.2266V19.2459L17.7372 21.5976H19.0084L19.1461 20.7713H18.4152L19.2097 20.0298L21.2012 21.8412L19.2097 23.6632L18.4152 22.9217H19.1461L19.0084 22.0849H17.7372L15.2266 24.4366V25.337H16.3389V24.5849L16.911 25.104L15.608 26.3116L16.2224 26.8942L14.4004 28.5891V29.765L17.483 26.8942L16.8686 26.3116L18.161 25.104L17.0487 24.0658L17.7902 23.3879L19.2097 24.7014L22.3241 21.8413L19.2097 18.9811L17.7902 20.3052L17.0487 19.6167L18.161 18.5785L16.8686 17.3709L17.483 16.7989L14.4004 13.9175ZM14.4004 19.6272V24.0552L15.1207 23.3243V22.4662H15.8834L16.4978 21.8412L15.8834 21.2268H15.1207V20.3582L14.4004 19.6272ZM19.6546 21.195L19.5487 21.7989L19.6546 22.4133L20.3114 21.7989L19.6546 21.195Z" fill="black"/>
<path d="M14.4007 14.0444V14.9766L16.3498 16.7987L15.7354 17.3707L17.0384 18.5783L16.2545 19.3093V18.43H15.3117V19.2139L17.7799 21.5127H18.924L19.0405 20.8559H18.193L19.21 19.9025L21.3286 21.841L19.21 23.7796L18.193 22.8368H19.0405L18.9237 22.1694H17.7796L15.3114 24.4682V25.2521H16.2542V24.3728L17.0381 25.1037L15.7351 26.3114L16.3495 26.894L14.4004 28.7054V29.6376L17.3559 26.894L16.7415 26.3114L18.0338 25.1038L16.9215 24.0656L17.7902 23.2605L19.2097 24.5847L22.1864 21.841L19.2097 19.0974L17.7902 20.4216L16.9215 19.6165L18.0338 18.5783L16.7415 17.3707L17.3559 16.7987L14.4004 14.0444L14.4007 14.0444ZM14.4007 19.7542V23.9279L15.0363 23.2923V22.3707H15.8519L16.3816 21.8411L15.8519 21.3114H15.0363V20.3898L14.4007 19.7542ZM19.7184 21.3644L19.6443 21.7987L19.7184 22.233L20.1845 21.7987L19.7184 21.3644Z" fill="#FDD406"/>
<path d="M14.4004 36.4771V37.6529L16.2224 39.3584L15.608 39.9304L16.911 41.1381L16.3389 41.6571V40.905H15.2266V41.8054L17.7372 44.1571H19.0084L19.1461 43.3309H18.4152L19.2097 42.5893L21.2012 44.4008L19.2097 46.2228L18.4152 45.4813H19.1461L19.0084 44.6444H17.7372L15.2266 46.9961V47.8966H16.3389V47.1445L16.911 47.6635L15.608 48.8712L16.2224 49.4538L14.4004 51.1487V52.3245L17.483 49.4538L16.8686 48.8712L18.161 47.6635L17.0487 46.6254L17.7902 45.9474L19.2097 47.261L22.3241 44.4008L19.2097 41.5407L17.7902 42.8648L17.0487 42.1763L18.161 41.1381L16.8686 39.9305L17.483 39.3585L14.4004 36.4771ZM14.4004 42.1868V46.6148L15.1207 45.8838V45.0258H15.8834L16.4978 44.4008L15.8834 43.7864H15.1207V42.9178L14.4004 42.1868ZM19.6546 43.7546L19.5487 44.3584L19.6546 44.9728L20.3114 44.3584L19.6546 43.7546Z" fill="black"/>
<path d="M14.4007 36.604V37.5362L16.3498 39.3583L15.7354 39.9303L17.0384 41.1379L16.2545 41.8688V40.9896H15.3117V41.7735L17.7799 44.0722H18.924L19.0405 43.4154H18.193L19.21 42.4621L21.3286 44.4006L19.21 46.3392L18.193 45.3964H19.0405L18.9237 44.729H17.7796L15.3114 47.0277V47.8116H16.2542V46.9324L17.0381 47.6633L15.7351 48.8709L16.3495 49.4536L14.4004 51.265V52.1972L17.3559 49.4536L16.7415 48.8709L18.0338 47.6633L16.9215 46.6252L17.7902 45.8201L19.2097 47.1443L22.1864 44.4006L19.2097 41.657L17.7902 42.9811L16.9215 42.176L18.0338 41.1379L16.7415 39.9303L17.3559 39.3582L14.4004 36.604L14.4007 36.604ZM14.4007 42.3138V46.4875L15.0363 45.8519V44.9303H15.8519L16.3816 44.4006L15.8519 43.871H15.0363V42.9494L14.4007 42.3138ZM19.7184 43.9239L19.6443 44.3583L19.7184 44.7926L20.1845 44.3583L19.7184 43.9239Z" fill="#FDD406"/>
<path d="M14.4004 59.0366V60.2125L16.2224 61.918L15.608 62.49L16.911 63.6976L16.3389 64.2167V63.4646H15.2266V64.365L17.7372 66.7167H19.0084L19.1461 65.8904H18.4152L19.2097 65.1489L21.2012 66.9604L19.2097 68.7824L18.4152 68.0409H19.1461L19.0084 67.204H17.7372L15.2266 69.5557V70.4561H16.3389V69.704L16.911 70.2231L15.608 71.4307L16.2224 72.0133L14.4004 73.7082V74.8841L17.483 72.0133L16.8686 71.4307L18.161 70.2231L17.0487 69.185L17.7902 68.507L19.2097 69.8206L22.3241 66.9604L19.2097 64.1002L17.7902 65.4244L17.0487 64.7358L18.161 63.6977L16.8686 62.4901L17.483 61.918L14.4004 59.0366ZM14.4004 64.7464V69.1743L15.1207 68.4434V67.5854H15.8834L16.4978 66.9604L15.8834 66.346H15.1207V65.4773L14.4004 64.7464ZM19.6546 66.3142L19.5487 66.918L19.6546 67.5324L20.3114 66.918L19.6546 66.3142Z" fill="black"/>
<path d="M14.4007 59.1636V60.0958L16.3498 61.9178L15.7354 62.4899L17.0384 63.6975L16.2545 64.4284V63.5492H15.3117V64.3331L17.7799 66.6318H18.924L19.0405 65.975H18.193L19.21 65.0216L21.3286 66.9602L19.21 68.8987L18.193 67.956H19.0405L18.9237 67.2886H17.7796L15.3114 69.5873V70.3712H16.2542V69.492L17.0381 70.2229L15.7351 71.4305L16.3495 72.0131L14.4004 73.8246V74.7568L17.3559 72.0131L16.7415 71.4305L18.0338 70.2229L16.9215 69.1848L17.7902 68.3797L19.2097 69.7038L22.1864 66.9602L19.2097 64.2165L17.7902 65.5407L16.9215 64.7356L18.0338 63.6975L16.7415 62.4898L17.3559 61.9178L14.4004 59.1636L14.4007 59.1636ZM14.4007 64.8733V69.0471L15.0363 68.4115V67.4899H15.8519L16.3816 66.9602L15.8519 66.4305H15.0363V65.5089L14.4007 64.8733ZM19.7184 66.4835L19.6443 66.9178L19.7184 67.3522L20.1845 66.9178L19.7184 66.4835Z" fill="#FDD406"/>
<path d="M14.4004 81.5959V82.7718L16.2224 84.4773L15.608 85.0493L16.911 86.257L16.3389 86.776V86.0239H15.2266V86.9243L17.7372 89.276H19.0084L19.1461 88.4498H18.4152L19.2097 87.7082L21.2012 89.5197L19.2097 91.3417L18.4152 90.6002H19.1461L19.0084 89.7633H17.7372L15.2266 92.115V93.0155H16.3389V92.2634L16.911 92.7824L15.608 93.99L16.2224 94.5727L14.4004 96.2676V97.4434L17.483 94.5727L16.8686 93.99L18.161 92.7824L17.0487 91.7443L17.7902 91.0663L19.2097 92.3799L22.3241 89.5197L19.2097 86.6596L17.7902 87.9837L17.0487 87.2951L18.161 86.257L16.8686 85.0494L17.483 84.4774L14.4004 81.5959ZM14.4004 87.3057V91.7337L15.1207 91.0027V90.1447H15.8834L16.4978 89.5197L15.8834 88.9053H15.1207V88.0366L14.4004 87.3057ZM19.6546 88.8735L19.5487 89.4773L19.6546 90.0917L20.3114 89.4773L19.6546 88.8735Z" fill="black"/>
<path d="M14.4007 81.7232V82.6554L16.3498 84.4774L15.7354 85.0494L17.0384 86.2571L16.2545 86.988V86.1087H15.3117V86.8926L17.7799 89.1914H18.924L19.0405 88.5346H18.193L19.21 87.5812L21.3286 89.5198L19.21 91.4583L18.193 90.5155H19.0405L18.9237 89.8481H17.7796L15.3114 92.1469V92.9308H16.2542V92.0515L17.0381 92.7825L15.7351 93.9901L16.3495 94.5727L14.4004 96.3842V97.3164L17.3559 94.5727L16.7415 93.9901L18.0338 92.7825L16.9215 91.7443L17.7902 90.9392L19.2097 92.2634L22.1864 89.5198L19.2097 86.7761L17.7902 88.1003L16.9215 87.2952L18.0338 86.257L16.7415 85.0494L17.3559 84.4774L14.4004 81.7231L14.4007 81.7232ZM14.4007 87.4329V91.6066L15.0363 90.971V90.0494H15.8519L16.3816 89.5198L15.8519 88.9901H15.0363V88.0685L14.4007 87.4329ZM19.7184 89.0431L19.6443 89.4774L19.7184 89.9117L20.1845 89.4774L19.7184 89.0431Z" fill="#FDD406"/>
<path d="M38.876 0H39.9989L41.9904 1.82194L42.7848 1.08041H42.0539L42.1916 0.24355H43.4628L45.9734 2.59527V3.49569H44.8611V2.74358L44.2891 3.26264L45.592 4.47027L44.9776 5.05288L46.7973 6.74562V7.92148L43.717 5.05288L44.3314 4.47027L43.0391 3.26264L44.1514 2.22451L43.4098 1.54654L41.9904 2.8601L38.876 0Z" fill="black"/>
<path d="M46.7973 2.21151L46.0793 1.48296V0.624923H45.3166L44.7023 0H46.7973V2.21151Z" fill="black"/>
<path d="M41.644 0L41.5454 0.571948L40.934 0H41.644Z" fill="black"/>
<path d="M41.5485 0H41.0611L41.4816 0.391831L41.5485 0Z" fill="#FDD406"/>
<path d="M46.7973 2.08468V0H44.8185L45.3481 0.529548H46.1638V1.45114L46.7973 2.08468Z" fill="#FDD406"/>
<path d="M46.7973 6.86208L44.8505 5.0528L45.4649 4.47019L44.1619 3.26256L44.9458 2.53163V3.41087H45.8887V2.62697L43.4204 0.328251H42.2763L42.1595 0.995624H43.007L41.9901 1.93842L39.8716 0H39.0138L41.9904 2.7435L43.4098 1.41934L44.2785 2.22443L43.1662 3.26256L44.4586 4.47019L43.8442 5.0528L46.7973 7.79428V6.86208Z" fill="#FDD406"/>
<path d="M46.8006 13.9175V15.0933L44.9786 16.7988L45.593 17.3709L44.29 18.5785L44.8621 19.0976V18.3454H45.9744V19.2459L43.4638 21.5976H42.1926L42.0548 20.7713H42.7858L41.9913 20.0298L39.9998 21.8412L41.9913 23.6632L42.7858 22.9217H42.0548L42.1926 22.0849H43.4638L45.9744 24.4366V25.337H44.8621V24.5849L44.29 25.104L45.593 26.3116L44.9786 26.8942L46.8006 28.5891V29.765L43.718 26.8942L44.3324 26.3116L43.04 25.104L44.1523 24.0658L43.4108 23.3879L41.9913 24.7014L38.8769 21.8413L41.9913 18.9811L43.4108 20.3052L44.1523 19.6167L43.04 18.5785L44.3324 17.3709L43.718 16.7989L46.8006 13.9175ZM46.8006 19.6272V24.0552L46.0803 23.3243V22.4662H45.3175L44.7032 21.8412L45.3175 21.2268H46.0803V20.3582L46.8006 19.6272ZM41.5464 21.195L41.6523 21.7989L41.5464 22.4133L40.8896 21.7989L41.5464 21.195Z" fill="black"/>
<path d="M46.8003 14.0444V14.9766L44.8512 16.7987L45.4656 17.3707L44.1626 18.5783L44.9465 19.3093V18.43H45.8893V19.2139L43.4211 21.5127H42.277L42.1605 20.8559H43.008L41.991 19.9025L39.8724 21.841L41.991 23.7796L43.008 22.8368H42.1605L42.2773 22.1694H43.4214L45.8896 24.4682V25.2521H44.9468V24.3728L44.1629 25.1037L45.4659 26.3114L44.8514 26.894L46.8006 28.7054V29.6376L43.8451 26.894L44.4595 26.3114L43.1671 25.1038L44.2795 24.0656L43.4108 23.2605L41.9913 24.5847L39.0146 21.841L41.9913 19.0974L43.4108 20.4216L44.2795 19.6165L43.1671 18.5783L44.4595 17.3707L43.8451 16.7987L46.8006 14.0444L46.8003 14.0444ZM46.8003 19.7542V23.9279L46.1647 23.2923V22.3707H45.3491L44.8194 21.8411L45.3491 21.3114H46.1647V20.3898L46.8003 19.7542ZM41.4825 21.3644L41.5567 21.7987L41.4825 22.233L41.0164 21.7987L41.4825 21.3644Z" fill="#FDD406"/>
<path d="M46.8006 36.4771V37.6529L44.9786 39.3584L45.593 39.9304L44.29 41.1381L44.8621 41.6571V40.905H45.9744V41.8054L43.4638 44.1571H42.1926L42.0548 43.3309H42.7858L41.9913 42.5893L39.9998 44.4008L41.9913 46.2228L42.7858 45.4813H42.0548L42.1926 44.6444H43.4638L45.9744 46.9961V47.8966H44.8621V47.1445L44.29 47.6635L45.593 48.8712L44.9786 49.4538L46.8006 51.1487V52.3245L43.718 49.4538L44.3324 48.8712L43.04 47.6635L44.1523 46.6254L43.4108 45.9474L41.9913 47.261L38.8769 44.4008L41.9913 41.5407L43.4108 42.8648L44.1523 42.1763L43.04 41.1381L44.3324 39.9305L43.718 39.3585L46.8006 36.4771ZM46.8006 42.1868V46.6148L46.0803 45.8838V45.0258H45.3175L44.7032 44.4008L45.3175 43.7864H46.0803V42.9178L46.8006 42.1868ZM41.5464 43.7546L41.6523 44.3584L41.5464 44.9728L40.8896 44.3584L41.5464 43.7546Z" fill="black"/>
<path d="M46.8003 36.604V37.5362L44.8512 39.3583L45.4656 39.9303L44.1626 41.1379L44.9465 41.8688V40.9896H45.8893V41.7735L43.4211 44.0722H42.277L42.1605 43.4154H43.008L41.991 42.4621L39.8724 44.4006L41.991 46.3392L43.008 45.3964H42.1605L42.2773 44.729H43.4214L45.8896 47.0277V47.8116H44.9468V46.9324L44.1629 47.6633L45.4659 48.8709L44.8514 49.4536L46.8006 51.265V52.1972L43.8451 49.4536L44.4595 48.8709L43.1671 47.6633L44.2795 46.6252L43.4108 45.8201L41.9913 47.1443L39.0146 44.4006L41.9913 41.657L43.4108 42.9811L44.2795 42.176L43.1671 41.1379L44.4595 39.9303L43.8451 39.3582L46.8006 36.604L46.8003 36.604ZM46.8003 42.3138V46.4875L46.1647 45.8519V44.9303H45.3491L44.8194 44.4006L45.3491 43.871H46.1647V42.9494L46.8003 42.3138ZM41.4825 43.9239L41.5567 44.3583L41.4825 44.7926L41.0164 44.3583L41.4825 43.9239Z" fill="#FDD406"/>
<path d="M46.8006 59.0366V60.2125L44.9786 61.918L45.593 62.49L44.29 63.6976L44.8621 64.2167V63.4646H45.9744V64.365L43.4638 66.7167H42.1926L42.0548 65.8904H42.7858L41.9913 65.1489L39.9998 66.9604L41.9913 68.7824L42.7858 68.0409H42.0548L42.1926 67.204H43.4638L45.9744 69.5557V70.4561H44.8621V69.704L44.29 70.2231L45.593 71.4307L44.9786 72.0133L46.8006 73.7082V74.8841L43.718 72.0133L44.3324 71.4307L43.04 70.2231L44.1523 69.185L43.4108 68.507L41.9913 69.8206L38.8769 66.9604L41.9913 64.1002L43.4108 65.4244L44.1523 64.7358L43.04 63.6977L44.3324 62.4901L43.718 61.918L46.8006 59.0366ZM46.8006 64.7464V69.1743L46.0803 68.4434V67.5854H45.3175L44.7032 66.9604L45.3175 66.346H46.0803V65.4773L46.8006 64.7464ZM41.5464 66.3142L41.6523 66.918L41.5464 67.5324L40.8896 66.918L41.5464 66.3142Z" fill="black"/>
<path d="M46.8003 59.1636V60.0958L44.8512 61.9178L45.4656 62.4899L44.1626 63.6975L44.9465 64.4284V63.5492H45.8893V64.3331L43.4211 66.6318H42.277L42.1605 65.975H43.008L41.991 65.0216L39.8724 66.9602L41.991 68.8987L43.008 67.956H42.1605L42.2773 67.2886H43.4214L45.8896 69.5873V70.3712H44.9468V69.492L44.1629 70.2229L45.4659 71.4305L44.8514 72.0131L46.8006 73.8246V74.7568L43.8451 72.0131L44.4595 71.4305L43.1671 70.2229L44.2795 69.1848L43.4108 68.3797L41.9913 69.7038L39.0146 66.9602L41.9913 64.2165L43.4108 65.5407L44.2795 64.7356L43.1671 63.6975L44.4595 62.4898L43.8451 61.9178L46.8006 59.1636L46.8003 59.1636ZM46.8003 64.8733V69.0471L46.1647 68.4115V67.4899H45.3491L44.8194 66.9602L45.3491 66.4305H46.1647V65.5089L46.8003 64.8733ZM41.4825 66.4835L41.5567 66.9178L41.4825 67.3522L41.0164 66.9178L41.4825 66.4835Z" fill="#FDD406"/>
<path d="M46.8006 81.5957V82.7716L44.9786 84.4771L45.593 85.0491L44.29 86.2567L44.8621 86.7758V86.0237H45.9744V86.9241L43.4638 89.2758H42.1926L42.0548 88.4495H42.7858L41.9913 87.708L39.9998 89.5194L41.9913 91.3415L42.7858 90.5999H42.0548L42.1926 89.7631H43.4638L45.9744 92.1148V93.0152H44.8621V92.2631L44.29 92.7822L45.593 93.9898L44.9786 94.5724L46.8006 96.2673V97.4432L43.718 94.5724L44.3324 93.9898L43.04 92.7822L44.1523 91.744L43.4108 91.0661L41.9913 92.3796L38.8769 89.5195L41.9913 86.6593L43.4108 87.9835L44.1523 87.2949L43.04 86.2568L44.3324 85.0491L43.718 84.4771L46.8006 81.5957ZM46.8006 87.3055V91.7334L46.0803 91.0025V90.1445H45.3175L44.7032 89.5195L45.3175 88.905H46.0803V88.0364L46.8006 87.3055ZM41.5464 88.8733L41.6523 89.4771L41.5464 90.0915L40.8896 89.4771L41.5464 88.8733Z" fill="black"/>
<path d="M46.8003 81.7227V82.6549L44.8512 84.4769L45.4656 85.0489L44.1626 86.2566L44.9465 86.9875V86.1083H45.8893V86.8922L43.4211 89.1909H42.277L42.1605 88.5341H43.008L41.991 87.5807L39.8724 89.5193L41.991 91.4578L43.008 90.515H42.1605L42.2773 89.8477H43.4214L45.8896 92.1464V92.9303H44.9468V92.051L44.1629 92.782L45.4659 93.9896L44.8514 94.5722L46.8006 96.3837V97.3159L43.8451 94.5722L44.4595 93.9896L43.1671 92.782L44.2795 91.7438L43.4108 90.9388L41.9913 92.2629L39.0146 89.5193L41.9913 86.7756L43.4108 88.0998L44.2795 87.2947L43.1671 86.2566L44.4595 85.0489L43.8451 84.4769L46.8006 81.7227L46.8003 81.7227ZM46.8003 87.4324V91.6061L46.1647 90.9706V90.049H45.3491L44.8194 89.5193L45.3491 88.9896H46.1647V88.068L46.8003 87.4324ZM41.4825 89.0426L41.5567 89.4769L41.4825 89.9112L41.0164 89.4769L41.4825 89.0426Z" fill="#FDD406"/>
<path d="M18.4542 14.0678L15.858 12.4758V8.64874L18.4542 7.0567V5.0317L20.9076 3.55426H22.8677L26.5972 1.45654H34.6038L38.3334 3.55426H40.2935L42.7469 5.0317V7.0567L45.3431 8.64874L45.343 12.4758L42.7469 14.0678V16.0928L40.2935 17.5703H38.3334L34.6038 19.668H26.5972L22.8677 17.5703H20.9076L18.4542 16.0928V14.0678Z" fill="black"/>
<path d="M26.6142 1.54639L22.8854 3.64385H20.9363L18.5422 5.08452V7.10782L15.9469 8.69681V12.4256L18.5422 14.0146V16.0485L20.9257 17.4892H22.8854L26.6142 19.5866H34.5803L38.3091 17.4892H40.2689L42.663 16.0485V14.0146L45.2583 12.4256V8.69681L42.663 7.10782V5.08452L40.2689 3.64385H38.3091L34.5803 1.54639H26.6142ZM26.8367 2.31969H34.3685L38.0973 4.41715H40.0464L41.8579 5.50825V7.53155L44.4638 9.12054V12.0019L41.8579 13.5909V15.6142L40.0464 16.7053H38.0973L34.3685 18.8028H26.8367L23.1079 16.7053H21.1587L19.3367 15.6142V13.5909L16.7414 12.0019V9.12054L19.3367 7.53155V5.50825L21.1587 4.41715H23.1079L26.8367 2.31969Z" fill="#1E9A1C"/>
<path d="M30.557 10.605V2.40332H26.8559L23.1262 4.50104H21.1818L19.4228 5.56028V7.58036L16.8268 9.17228V10.5194L30.6429 10.5193V18.7212H34.3441L38.0737 16.6234H40.0181L41.777 15.5642V13.5442L44.3732 11.9522V10.6051L30.557 10.605Z" fill="#FDD406"/>
<path d="M16.8269 10.6051L16.8268 11.9522L19.423 13.5442V15.5642L21.1818 16.6234H23.1263L26.8559 18.7212H30.5572V10.5193L44.3733 10.5194V9.17228L41.7771 7.58036V5.56028L40.0183 4.50104H38.0738L34.3442 2.40332H30.643V10.605L16.8269 10.6051Z" fill="white"/>
<path d="M22.4907 5.25632L21.8516 4.66064L21.2183 5.05112L21.8585 5.648L21.0365 6.15728H22.8303L24.3761 7.61541L24.8706 7.09317L23.3676 5.67536V4.71296L22.4907 5.25632Z" fill="black"/>
<path d="M25.5161 4.99461L24.877 4.39893L24.2437 4.78941L24.8839 5.38629L24.0619 5.89557H25.8557L27.4015 7.35369L27.896 6.83145L26.393 5.41365V4.45125L25.5161 4.99461Z" fill="black"/>
<path d="M22.2689 6.96726L21.6298 6.37158L20.9966 6.76206L21.6367 7.35894L20.8148 7.86822H22.6086L24.1543 9.32635L24.6488 8.80411L23.1458 7.3863V6.4239L22.2689 6.96726Z" fill="black"/>
<path d="M30.6008 2.31787H28.9822L28.1352 3.13411H26.4841L25.2641 3.76735L25.5486 4.46059L26.6366 3.88915H27.1132L28.7814 5.81851L30.6008 4.71055L30.6008 2.31787Z" fill="black"/>
<path d="M21.8409 4.76758L22.4153 5.3029L21.9341 5.60098L21.3589 5.06482L21.8409 4.76758ZM23.282 4.86658V5.71198L24.7495 7.09629L24.3727 7.49421L22.8644 6.07138H21.3373L23.282 4.86658Z" fill="#D91C16"/>
<path d="M24.8663 4.50586L25.4407 5.04118L24.9595 5.33926L24.3844 4.8031L24.8663 4.50586ZM26.3074 4.60486V5.45026L27.7749 6.83457L27.3981 7.2325L25.8898 5.80978H24.3627L26.3074 4.60486Z" fill="#D91C16"/>
<path d="M21.6194 6.47876L22.1936 7.01408L21.7124 7.31216L21.1374 6.776L21.6194 6.47876ZM23.0604 6.57776V7.42316L24.5278 8.80748L24.1512 9.2054L22.6429 7.78268H21.1156L23.0604 6.57776Z" fill="#D91C16"/>
<path d="M30.5576 2.40332H29.0164L28.1694 3.21956H26.5046L25.3726 3.80708L25.5916 4.34084L26.6149 3.80348H27.1519L28.7983 5.70764L30.5576 4.6364L30.5576 2.40332Z" fill="#D91C16"/>
<path d="M22.4907 15.8682L21.8516 16.4639L21.2183 16.0734L21.8585 15.4765L21.0365 14.9672H22.8303L24.3761 13.5091L24.8706 14.0313L23.3676 15.4491V16.4115L22.4907 15.8682Z" fill="black"/>
<path d="M25.5161 16.1299L24.877 16.7256L24.2437 16.3351L24.8839 15.7382L24.0619 15.2289H25.8557L27.4015 13.7708L27.896 14.2931L26.393 15.7109V16.6733L25.5161 16.1299Z" fill="black"/>
<path d="M22.2689 14.1572L21.6298 14.7529L20.9966 14.3625L21.6367 13.7656L20.8148 13.2563H22.6086L24.1543 11.7982L24.6488 12.3204L23.1458 13.7382V14.7006L22.2689 14.1572Z" fill="black"/>
<path d="M30.6008 18.8066H28.9822L28.1352 17.9904H26.4841L25.2641 17.3572L25.5486 16.6639L26.6366 17.2354H27.1132L28.7814 15.306L30.6008 16.414L30.6008 18.8066Z" fill="black"/>
<path d="M21.8409 16.3569L22.4153 15.8216L21.9341 15.5235L21.3589 16.0597L21.8409 16.3569ZM23.282 16.2579V15.4125L24.7495 14.0282L24.3727 13.6303L22.8644 15.0531H21.3373L23.282 16.2579Z" fill="#D91C16"/>
<path d="M24.8663 16.6187L25.4407 16.0833L24.9595 15.7853L24.3844 16.3214L24.8663 16.6187ZM26.3074 16.5197V15.6743L27.7749 14.2899L27.3981 13.892L25.8898 15.3147H24.3627L26.3074 16.5197Z" fill="#D91C16"/>
<path d="M21.6194 14.6458L22.1936 14.1104L21.7124 13.8124L21.1374 14.3485L21.6194 14.6458ZM23.0604 14.5468V13.7014L24.5278 12.317L24.1512 11.9191L22.6429 13.3418H21.1156L23.0604 14.5468Z" fill="#D91C16"/>
<path d="M30.5576 18.7212H29.0164L28.1694 17.905H26.5046L25.3726 17.3174L25.5916 16.7837L26.6149 17.321H27.1519L28.7983 15.4169L30.5576 16.4881L30.5576 18.7212Z" fill="#D91C16"/>
<path d="M21.412 7.94217L20.6403 7.65381L20.6218 7.66665L19.6253 8.35809V8.54397L18.0293 10.5622L19.6253 12.5805V12.7665L20.6403 13.4707L21.412 13.1823L20.941 12.8704V12.277L21.1282 12.0531H21.9645V9.07137H21.1282L20.941 8.84745V8.25405L21.412 7.94217Z" fill="black"/>
<path d="M19.7112 8.4028L20.6524 7.74976L21.2248 7.9636L20.8555 8.20816V8.8786L21.0883 9.157H21.8788V11.9676H21.0883L20.8555 12.246V12.9165L21.2248 13.161L20.6524 13.3749L19.7112 12.7218L19.7113 12.5508L18.1387 10.5623L19.7113 8.57368L19.7112 8.4028Z" fill="#D91C16"/>
<path d="M38.7113 5.25632L39.3504 4.66064L39.9836 5.05112L39.3434 5.648L40.1654 6.15728H38.3717L36.8258 7.61541L36.3313 7.09317L37.8343 5.67536V4.71296L38.7113 5.25632Z" fill="black"/>
<path d="M35.6869 4.99461L36.326 4.39893L36.9592 4.78941L36.319 5.38629L37.141 5.89557H35.3473L33.8014 7.35369L33.3069 6.83145L34.8099 5.41365V4.45125L35.6869 4.99461Z" fill="black"/>
<path d="M38.9331 6.96726L39.5722 6.37158L40.2053 6.76206L39.5652 7.35894L40.3871 7.86822H38.5934L37.0476 9.32635L36.5531 8.80411L38.0561 7.3863V6.4239L38.9331 6.96726Z" fill="black"/>
<path d="M30.6012 2.31787H32.2198L33.0668 3.13411H34.7179L35.9379 3.76735L35.6534 4.46059L34.5653 3.88915H34.0888L32.4206 5.81851L30.6011 4.71055L30.6012 2.31787Z" fill="black"/>
<path d="M39.361 4.76758L38.7867 5.3029L39.2679 5.60098L39.8431 5.06482L39.361 4.76758ZM37.9199 4.86658V5.71198L36.4525 7.09629L36.8293 7.49421L38.3375 6.07138H39.8647L37.9199 4.86658Z" fill="#D91C16"/>
<path d="M36.3356 4.50586L35.7613 5.04118L36.2425 5.33926L36.8175 4.8031L36.3356 4.50586ZM34.8945 4.60486V5.45026L33.4271 6.83457L33.8039 7.2325L35.3121 5.80978H36.8393L34.8945 4.60486Z" fill="#D91C16"/>
<path d="M39.5826 6.47876L39.0084 7.01408L39.4896 7.31216L40.0646 6.776L39.5826 6.47876ZM38.1416 6.57776V7.42316L36.6741 8.80748L37.0508 9.2054L38.5591 7.78268H40.0863L38.1416 6.57776Z" fill="#D91C16"/>
<path d="M30.6445 2.40332H32.1857L33.0327 3.21956H34.6974L35.8295 3.80708L35.6105 4.34084L34.5871 3.80348H34.0501L32.4037 5.70764L30.6445 4.6364L30.6445 2.40332Z" fill="#D91C16"/>
<path d="M38.7113 15.8682L39.3504 16.4639L39.9836 16.0734L39.3434 15.4765L40.1654 14.9672H38.3717L36.8258 13.5091L36.3313 14.0313L37.8343 15.4491V16.4115L38.7113 15.8682Z" fill="black"/>
<path d="M35.6869 16.1299L36.326 16.7256L36.9592 16.3351L36.319 15.7382L37.141 15.2289H35.3473L33.8014 13.7708L33.3069 14.2931L34.8099 15.7109V16.6733L35.6869 16.1299Z" fill="black"/>
<path d="M38.9331 14.1572L39.5722 14.7529L40.2053 14.3625L39.5652 13.7656L40.3871 13.2563H38.5934L37.0476 11.7982L36.5531 12.3204L38.0561 13.7382V14.7006L38.9331 14.1572Z" fill="black"/>
<path d="M30.6012 18.8066H32.2198L33.0668 17.9904H34.7179L35.9379 17.3572L35.6534 16.6639L34.5653 17.2354H34.0888L32.4206 15.306L30.6011 16.414L30.6012 18.8066Z" fill="black"/>
<path d="M39.361 16.3569L38.7867 15.8216L39.2679 15.5235L39.8431 16.0597L39.361 16.3569ZM37.9199 16.2579V15.4125L36.4525 14.0282L36.8293 13.6303L38.3375 15.0531H39.8647L37.9199 16.2579Z" fill="#D91C16"/>
<path d="M36.3356 16.6187L35.7613 16.0833L36.2425 15.7853L36.8175 16.3214L36.3356 16.6187ZM34.8945 16.5197V15.6743L33.4271 14.2899L33.8039 13.892L35.3121 15.3147H36.8393L34.8945 16.5197Z" fill="#D91C16"/>
<path d="M39.5826 14.6458L39.0084 14.1104L39.4896 13.8124L40.0646 14.3485L39.5826 14.6458ZM38.1416 14.5468V13.7014L36.6741 12.317L37.0508 11.9191L38.5591 13.3418H40.0863L38.1416 14.5468Z" fill="#D91C16"/>
<path d="M30.6445 18.7212H32.1857L33.0327 17.905H34.6974L35.8295 17.3174L35.6105 16.7837L34.5871 17.321H34.0501L32.4037 15.4169L30.6445 16.4881L30.6445 18.7212Z" fill="#D91C16"/>
<path d="M39.7892 7.94217L40.5609 7.65381L40.5794 7.66665L41.5759 8.35809V8.54397L43.1719 10.5622L41.5759 12.5805V12.7665L40.5609 13.4707L39.7892 13.1823L40.2602 12.8704V12.277L40.073 12.0531H39.2367V9.07137H40.073L40.2602 8.84745V8.25405L39.7892 7.94217Z" fill="black"/>
<path d="M41.4901 8.4028L40.5488 7.74976L39.9764 7.9636L40.3458 8.20816V8.8786L40.113 9.157H39.3224V11.9676H40.113L40.3458 12.246V12.9165L39.9764 13.161L40.5488 13.3749L41.4901 12.7218L41.49 12.5508L43.0626 10.5623L41.49 8.57368L41.4901 8.4028Z" fill="#D91C16"/>
<path d="M20.0411 12.2565L19.6066 11.8806V11.6994L18.6744 10.5624L19.6067 9.42523V9.24415L20.0412 8.86819L20.8217 9.50287L20.3712 9.49939L21.0369 10.175H22.5579L23.754 9.23959V6.77275H26.7457L30.2202 4.64059V4.08139L29.6889 3.72727H29.5205L28.9419 4.11451L28.8522 4.40335L28.3996 3.78535L29.2793 3.04627H29.4199L30.4127 2.31787H30.787L31.7796 3.04627H31.9204L32.8001 3.78535L32.3475 4.40335L32.2578 4.11451L31.6792 3.72727H31.5108L30.9795 4.08139V4.64059L34.4539 6.77275H37.4457V9.23959L38.6418 10.175H40.1628L40.8285 9.49939L40.378 9.50287L41.1585 8.86819L41.593 9.24415V9.42523L42.5253 10.5624L41.593 11.6994V11.8806L41.1585 12.2565L40.378 11.6218L40.8285 11.6253L40.1628 10.9496H38.6418L37.4457 11.8851V14.352H34.4539L30.9795 16.4841V17.0433L31.5108 17.3974H31.6792L32.2578 17.0102L32.3475 16.7214L32.8001 17.3392L31.9204 18.0784H31.7796L30.787 18.8068H30.4127L29.4199 18.0784H29.2793L28.3995 17.3392L28.8522 16.7214L28.9419 17.0102L29.5204 17.3974H29.6887L30.2202 17.0433V16.4841L26.7457 14.352H23.754V11.8851L22.5577 10.9496H21.0369L20.3712 11.6253L20.8217 11.6218L20.0411 12.2565Z" fill="black"/>
<path d="M30.6434 17.4638L31.0237 17.7546L30.6434 18.0453V17.4638ZM29.4347 17.9926H29.4487L30.4415 18.7212H30.5574V18.1528L30.0366 17.7546L30.5575 17.3563V16.2888L26.8397 14.0072H24.0913V11.7147L22.6723 10.605H20.532L19.994 11.2132L19.4561 10.605L18.8209 10.6051L19.6928 11.6685V11.8412L20.0382 12.1412L20.5931 11.7092L20.2674 11.7117V11.6037L20.9931 10.8639H22.5879L23.8404 11.8434V14.2663H26.7707L30.3065 16.4361V17.0889L29.7153 17.4829H29.4949L28.8696 17.0643L28.8215 16.909L28.5165 17.3252L29.3112 17.9926L29.4347 17.9926ZM19.9945 10.0406L20.4181 10.5194H19.5708L19.9945 10.0406ZM30.5576 3.07916L30.1776 3.36992L30.5576 3.66056V3.07916ZM40.7831 10.6051L41.2067 11.0839L41.6303 10.6051H40.7831ZM31.7522 3.13172L30.7595 2.40332H30.6435V2.9714L31.1646 3.36992L30.6434 3.76844V4.83572L34.3613 7.11728H37.1096V9.40976L38.5286 10.5195H40.6686L41.2067 9.91136L41.7447 10.5194H42.38L41.5081 9.45596V9.28328L41.1627 8.98328L40.6079 9.41528L40.9335 9.41264V9.52076L40.2078 10.2604H38.613L37.3607 9.281V6.8582H34.4303L30.8945 4.68836V4.03544L31.4856 3.6416H31.706L32.3313 4.06016L32.3795 4.21544L32.6844 3.79928L31.8897 3.13172L31.7522 3.13172Z" fill="#FDD406"/>
<path d="M30.5574 18.0452L30.1773 17.7546L30.5574 17.4639V18.0452ZM20.4179 10.6051L19.9943 11.0839L19.5707 10.6051H20.4179ZM31.766 17.9926H31.752L30.7592 18.7212H30.6433V18.5724V18.1531L31.1643 17.7546L30.6432 17.356V16.2888L34.361 14.0072H37.1094V11.7147L38.5284 10.605H40.6685L41.2064 11.2132L41.7444 10.605L42.3798 10.6051L41.5079 11.6685V11.8412L41.1625 12.1412L40.6076 11.7092L40.9333 11.7117V11.6037L40.2075 10.8639H38.6127L37.3604 11.8434V14.2663H34.43L30.8942 16.4361V17.0889L31.4853 17.4829H31.7058L32.3311 17.0643L32.3792 16.909L32.6841 17.3252L31.8895 17.9926L31.766 17.9926ZM41.2064 10.0406L40.7828 10.5194H41.6301L41.2064 10.0406ZM29.4487 3.13172L30.4415 2.40332H30.5575V2.9714L30.0363 3.36992L30.5575 3.76844L30.5576 4.83572L26.8397 7.11728H24.0914V9.40976L22.6723 10.5195H20.5317L19.9938 9.91136L19.4557 10.5194H18.8209L19.6929 9.45596V9.28328L20.0383 8.98328L20.5931 9.41528L20.2674 9.41264V9.52076L20.9933 10.2604H22.5879L23.8404 9.281V6.8582H26.7707L30.3066 4.68836V4.03544L29.7155 3.6416H29.4949L28.8696 4.06016L28.8215 4.21544L28.5167 3.79928L29.3113 3.13172L29.4487 3.13172ZM30.6432 3.66068L31.0235 3.36992L30.6432 3.07916V3.66068Z" fill="white"/>
<path d="M30.5574 10.605V4.93604L26.8637 7.20284H24.1767V9.4514L22.8111 10.5194L30.6432 10.5193V16.1883L34.3366 13.9216H37.0236V11.6731L38.3892 10.6051L30.5574 10.605Z" fill="#1E9A1C"/>
<path d="M22.8111 10.605L24.1768 11.673V13.9215H26.8637L30.5575 16.1883V10.5191L38.3893 10.5193L37.0237 9.45127V7.20271H34.3368L30.6433 4.93604V10.6049L22.8111 10.605Z" fill="#D91C16"/>
<path d="M26.6245 7.81272L25.9855 7.21704L25.3523 7.6074L25.9925 8.20428L25.1705 8.71356H26.9643L28.5101 10.1718L29.0046 9.64945L27.5016 8.23164V7.26936L26.6245 7.81272Z" fill="black"/>
<path d="M34.5758 13.3117L35.215 13.9074L35.8481 13.5169L35.208 12.92L36.03 12.4109H34.2361L32.6904 10.9526L32.1959 11.4749L33.6989 12.8928V13.8551L34.5758 13.3117Z" fill="black"/>
<path d="M26.6245 13.3117L25.9854 13.9074L25.3523 13.5169L25.9924 12.92L25.1705 12.4109H26.9643L28.51 10.9526L29.0045 11.4749L27.5015 12.8928V13.8551L26.6245 13.3117Z" fill="black"/>
<path d="M34.5758 7.81272L35.215 7.21704L35.8481 7.6074L35.208 8.20428L36.03 8.71356H34.2361L32.6904 10.1718L32.1959 9.64945L33.6989 8.23164V7.26936L34.5758 7.81272Z" fill="black"/>
<path d="M35.2252 13.8003L34.651 13.265L35.1322 12.9669L35.7073 13.503L35.2252 13.8003ZM33.7843 13.7013V12.856L32.3168 11.4717L32.6936 11.0736L34.2019 12.4965H35.729L33.7843 13.7013ZM25.9749 7.32397L26.5492 7.85929L26.0679 8.15749L25.4929 7.62133L25.9749 7.32397ZM27.416 7.42309V8.26837L28.8835 9.65269L28.5067 10.0507L26.9984 8.62789H25.4713L27.416 7.42309Z" fill="#D91C16"/>
<path d="M35.2254 7.32397L34.6512 7.85929L35.1324 8.15749L35.7074 7.62133L35.2254 7.32397ZM33.7844 7.42309V8.26837L32.3169 9.65269L32.6937 10.0507L34.202 8.62789H35.7291L33.7844 7.42309ZM25.975 13.8003L26.5492 13.265L26.068 12.9669L25.493 13.503L25.975 13.8003ZM27.416 13.7013V12.856L28.8835 11.4717L28.5068 11.0736L26.9985 12.4965H25.4713L27.416 13.7013Z" fill="#1E9A1C"/>
<path d="M34.5721 10.5622L30.6003 13.2093L26.6285 10.5622L30.6003 7.91504L34.5721 10.5622Z" fill="black"/>
<path d="M30.5577 8.04639L26.8474 10.5192H34.3537L30.6435 8.04639V13.0777L34.3539 10.6049H26.8473L30.5577 13.0777V8.04639Z" fill="white"/>
<path d="M31.6625 11.4725V12.2003H29.5384V11.4725H28.1637V9.65187H29.5384V8.92407H31.6625V9.65187H33.0371V11.4725H31.6625Z" fill="black"/>
<path d="M29.6242 9.00977V9.73757H28.2496V10.5195H30.5577V9.00977L29.6242 9.00977ZM30.6435 10.5195H32.9516V9.73757H31.577V9.00977H30.6435L30.6435 10.5195ZM28.2496 10.6052V11.3871H29.6242V12.1149H30.5577V10.6052L28.2496 10.6052ZM30.6435 12.1149H31.577V11.3871H32.9516V10.6052H30.6435V12.1149Z" fill="#D91C16"/>
<path d="M37.3754 40.7219V39.5559H40.5731V38.3898H43.7707V27.8536H40.5731V26.6875H37.3754V25.5215H34.1778V24.3555H27.0214V25.5215H23.8237V26.6875H20.626V27.8536H17.4283V38.3898H20.626V39.5559H23.8237V40.7219H27.0214V41.8879H34.1778V40.7219H37.3754Z" fill="black"/>
<path d="M27.1118 24.4385V25.6037H23.9126V26.769H20.7134V27.9342H17.5143V38.305H20.7134V39.4704H23.9126V40.6355H27.1118V41.8006H34.0925V40.6355H37.2918V39.4704H40.4911V38.305H43.6901V27.9342H40.4911V26.769H37.2918V25.6037H34.0925V24.4385H27.1118ZM27.9593 25.2859H33.245V26.4512H36.4443V27.6164H39.6437V28.7817H42.8427V37.4575H39.6437V38.6229H36.4443V39.788H33.245V40.9531H27.9593V39.788H24.76V38.6229H21.5609V37.4575H18.3617V28.7817H21.5609V27.6164H24.76V26.4512H27.9593V25.2859Z" fill="#FDD406"/>
<path d="M24.8423 39.7037V38.5375H21.6446V37.3716H18.4469V28.8715H21.6446V27.7055H24.8423V26.5395H28.0399V25.3735H33.1601V26.5395H36.3578V27.7055H39.5553V28.8715H42.7531V37.3716H39.5553V38.5375H36.3578V39.7037H33.1601V40.8696H28.0399V39.7037H24.8423Z" fill="#D91C16"/>
<path d="M25.5843 27.4028L24.756 26.7767V27.9789L23.963 28.4829L23.9609 27.7304L23.2002 28.4136L22.4396 27.7304L22.4375 28.4829L21.5586 27.9244V29.039L20.8484 29.5532L20.8464 28.8698L20.0025 29.4809L19.1587 28.8698L19.1567 29.5532L18.3607 28.9769V32.3532H17.4283V33.8901H18.3607V37.2664L19.1567 36.69L19.1587 37.3736L20.0025 36.7624L20.8462 37.3736L20.8483 36.69L21.5586 37.2042V38.3189L22.4374 37.7604L22.4395 38.513L23.2002 37.8297L23.9608 38.513L23.9629 37.7604L24.756 38.2643V39.4666L25.5842 38.8406L25.586 39.6802L26.3977 38.9543L27.2095 39.6802L27.2113 38.8406L27.9538 39.4018V40.684L29.0641 39.672V40.8612L30.5996 39.874L32.1352 40.8612V39.672L33.2455 40.684V39.4018L33.9879 38.8406L33.9897 39.6802L34.8015 38.9543L35.6133 39.6802L35.6151 38.8406L36.4431 39.4666V38.2643L37.2364 37.7604L37.2384 38.513L37.9992 37.8297L38.7599 38.513L38.7619 37.7604L39.6409 38.3189V37.2042L40.3512 36.69L40.3532 37.3736L41.1969 36.7624L42.0408 37.3736L42.0428 36.69L42.8387 37.2663V33.8901H43.7711V32.3532H42.8387V28.9769L42.0428 29.5532L42.0408 28.8698L41.1969 29.4809L40.3531 28.8698L40.3513 29.5532L39.641 29.039V27.9244L38.762 28.4829L38.76 27.7304L37.9993 28.4136L37.2385 27.7304L37.2365 28.4829L36.4432 27.9788V26.7767L35.6152 27.4026L35.6134 26.563L34.8016 27.289L33.9898 26.563L33.988 27.4028L33.2456 26.8413V25.5593L32.1353 26.5713V25.3821L30.5997 26.3693L29.0642 25.3821V26.5713L27.9539 25.5593V26.8414L27.2114 27.4028L27.2096 26.563L26.3978 27.289L25.5861 26.563L25.5843 27.4028Z" fill="black"/>
<path d="M19.2427 29.7206L19.2447 29.0371L20.0032 29.5866L20.0287 29.568L20.7617 29.0371L20.7637 29.7206L21.5593 29.1447V37.0983L20.7637 36.5225L20.7617 37.206L20.0032 36.6565L19.2447 37.206L19.2427 36.5225L18.447 37.0983V33.8042H17.5146V32.4389H18.447V29.1447L19.2427 29.7206Z" fill="#1E9A1C"/>
<path d="M25.6721 26.7544L26.3986 27.4041L27.1251 26.7544L27.1269 27.5748L27.9547 26.949V39.2945L27.1269 38.6687L27.1251 39.4892L26.3986 38.8395L25.6721 39.4892L25.6705 38.6687L24.8428 39.2945V26.949L25.6705 27.5748L25.6721 26.7544Z" fill="#1E9A1C"/>
<path d="M35.5285 26.7544L34.802 27.4041L34.0755 26.7544L34.0737 27.5748L33.2461 26.949V39.2945L34.0737 38.6687L34.0755 39.4892L34.802 38.8395L35.5285 39.4892L35.5303 38.6687L36.3581 39.2945V26.949L35.5303 27.5748L35.5285 26.7544Z" fill="#1E9A1C"/>
<path d="M41.9582 29.7206L41.9562 29.0371L41.1977 29.5866L41.172 29.568L40.4391 29.0371L40.4371 29.7206L39.6416 29.1447V37.0983L40.4371 36.5225L40.4391 37.206L41.1977 36.6565L41.9562 37.206L41.9582 36.5225L42.7537 37.0983V33.8042H43.6861V32.4389H42.7537V29.1447L41.9582 29.7206Z" fill="#1E9A1C"/>
<path d="M22.5251 27.9221L23.2005 28.529L23.876 27.9221L23.878 28.6388L24.7565 28.0804V38.1629L23.878 37.6047L23.876 38.3212L23.2005 37.7145L22.5251 38.3212L22.5231 37.6047L21.6445 38.1629V28.0804L22.5231 28.6388L22.5251 27.9221Z" fill="#FDD406"/>
<path d="M29.1503 26.7653L28.04 25.7534V40.4899L29.1503 39.4779V40.7042L30.6 39.7721H30.6002L32.05 40.7042V39.4779L33.1602 40.4899V25.7534L32.05 26.7653V25.5391L30.6002 26.4711H30.6L29.1503 25.5391V26.7653Z" fill="#FDD406"/>
<path d="M38.6749 27.9221L37.9994 28.529L37.3238 27.9221L37.322 28.6388L36.4434 28.0804V38.1629L37.322 37.6047L37.3238 38.3212L37.9994 37.7145L38.6749 38.3212L38.6769 37.6047L39.5554 38.1629V28.0804L38.6769 28.6388L38.6749 27.9221Z" fill="#FDD406"/>
<path d="M19.6587 31.673C19.7558 31.7709 19.8719 31.8205 20.0036 31.8205C20.1353 31.8205 20.2513 31.7709 20.3485 31.673C20.6522 31.367 20.6624 30.8136 20.6594 30.4153C20.6594 30.4153 20.3083 30.7863 20.2449 30.8533C20.2008 30.777 20.0036 30.4365 20.0036 30.4365C20.0036 30.4365 19.8065 30.777 19.7622 30.8533C19.6988 30.7863 19.3477 30.4153 19.3477 30.4153C19.3447 30.8136 19.355 31.367 19.6587 31.673Z" fill="black"/>
<path d="M22.9944 30.816L22.7386 30.5604V30.0511L22.1511 30.5956L23.2013 31.6459L24.2515 30.5956L23.664 30.0511V30.5604L23.4083 30.816V29.9137L23.8613 29.5248L23.2013 28.958L22.5413 29.5248L22.9944 29.9137V30.816Z" fill="black"/>
<path d="M26.1916 29.8038L25.9358 29.548V29.0388L25.3483 29.5833L26.3986 30.6336L27.4488 29.5833L26.8613 29.0388V29.548L26.6054 29.8038V28.9014L27.0586 28.5124L26.3986 27.9458L25.7386 28.5124L26.1916 28.9014V29.8038Z" fill="black"/>
<path d="M20.0036 30.6074C20.056 30.6979 20.2282 30.9954 20.2282 30.9954C20.2282 30.9954 20.4709 30.7388 20.57 30.6343C20.5581 31.0841 20.4594 31.4394 20.2876 31.6123C20.2071 31.6934 20.1116 31.7346 20.0036 31.7346C19.8955 31.7346 19.8 31.6934 19.7196 31.6124C19.5478 31.4394 19.4491 31.0841 19.4372 30.6343C19.5362 30.7389 19.7788 30.9954 19.7788 30.9954C19.8537 30.866 19.9287 30.7367 20.0036 30.6074Z" fill="white"/>
<path d="M26.5203 28.8621V30.0108L26.9475 29.5837V29.2352L27.3258 29.5858L26.3991 30.5125L25.4724 29.5858L25.8506 29.2352V29.5837L26.2778 30.0108V28.8621L25.8706 28.5126L26.3991 28.0588L26.9275 28.5126L26.5203 28.8621Z" fill="white"/>
<path d="M23.3221 29.8741V31.0227L23.7493 30.5955V30.2472L24.1275 30.5977L23.2008 31.5244L22.2741 30.5977L22.6524 30.2472V30.5955L23.0796 31.0227V29.8741L22.6724 29.5245L23.2008 29.0708L23.7292 29.5245L23.3221 29.8741Z" fill="#D91C16"/>
<path d="M41.5428 31.673C41.4457 31.7709 41.3297 31.8205 41.1979 31.8205C41.0663 31.8205 40.9502 31.7709 40.853 31.673C40.5493 31.367 40.5391 30.8136 40.5421 30.4153C40.5421 30.4153 40.8932 30.7863 40.9566 30.8533C41.0008 30.777 41.1979 30.4365 41.1979 30.4365C41.1979 30.4365 41.3951 30.777 41.4394 30.8533C41.5027 30.7863 41.8538 30.4153 41.8538 30.4153C41.8568 30.8136 41.8465 31.367 41.5428 31.673Z" fill="black"/>
<path d="M38.2071 30.8157L38.463 30.5601V30.0508L39.0505 30.5954L38.0002 31.6456L36.95 30.5954L37.5375 30.0508V30.5601L37.7932 30.8157V29.9134L37.3402 29.5245L38.0002 28.9578L38.6602 29.5245L38.2071 29.9134V30.8157Z" fill="black"/>
<path d="M35.01 29.8038L35.2657 29.548V29.0388L35.8532 29.5833L34.803 30.6336L33.7527 29.5833L34.3403 29.0388V29.548L34.5961 29.8038V28.9014L34.143 28.5124L34.803 27.9458L35.463 28.5124L35.01 28.9014V29.8038Z" fill="black"/>
<path d="M41.1979 30.6074C41.1455 30.6979 40.9733 30.9954 40.9733 30.9954C40.9733 30.9954 40.7307 30.7388 40.6315 30.6343C40.6434 31.0841 40.7422 31.4394 40.9139 31.6123C40.9944 31.6934 41.0899 31.7346 41.1979 31.7346C41.3061 31.7346 41.4016 31.6934 41.482 31.6124C41.6537 31.4394 41.7525 31.0841 41.7643 30.6343C41.6653 30.7389 41.4227 30.9954 41.4227 30.9954C41.3478 30.866 41.2728 30.7367 41.1979 30.6074Z" fill="white"/>
<path d="M34.6813 28.8621V30.0108L34.2541 29.5837V29.2352L33.8759 29.5858L34.8025 30.5125L35.7293 29.5858L35.351 29.2352V29.5837L34.9238 30.0108V28.8621L35.331 28.5126L34.8025 28.0588L34.2742 28.5126L34.6813 28.8621Z" fill="white"/>
<path d="M37.8795 29.8741V31.0227L37.4523 30.5955V30.2472L37.074 30.5977L38.0008 31.5244L38.9274 30.5977L38.5492 30.2472V30.5955L38.122 31.0227V29.8741L38.5291 29.5245L38.0008 29.0708L37.4723 29.5245L37.8795 29.8741Z" fill="#D91C16"/>
<path d="M31.8574 30.1873L31.5134 29.7119L32.3956 28.8974L31.573 28.2216V28.7004L31.229 28.9947V28.1263L32.0061 27.5535L30.6003 26.5173L29.1945 27.5535L29.9717 28.1263V28.9947L29.6277 28.7004V28.2216L28.805 28.8974L29.6873 29.7119L29.3433 30.1873H31.8574Z" fill="black"/>
<path d="M29.5115 30.1017L29.8016 29.7006L28.9358 28.9014L29.5422 28.4031V28.74L30.0577 29.1811V28.0831L29.3393 27.5537L30.6006 26.624L31.8619 27.5537L31.1436 28.0831V29.1811L31.659 28.74V28.4031L32.2655 28.9014L31.3997 29.7006L31.6899 30.1017H29.5115Z" fill="#D91C16"/>
<path d="M29.9573 27.5536L30.5997 28.027L31.2421 27.5536L30.5997 27.0801L30.5742 27.0989L29.9573 27.5536Z" fill="black"/>
<path d="M30.6007 27.1868C30.6432 27.218 31.0236 27.4984 31.0987 27.5537C31.0236 27.609 30.6432 27.8895 30.6007 27.9207C30.5583 27.8895 30.1778 27.609 30.1028 27.5537C30.1778 27.4984 30.5583 27.218 30.6007 27.1868Z" fill="#1E9A1C"/>
<path d="M19.6587 34.5702C19.7558 34.4722 19.8719 34.4227 20.0036 34.4227C20.1353 34.4227 20.2513 34.4722 20.3485 34.5702C20.6522 34.8762 20.6624 35.4296 20.6594 35.8279C20.6594 35.8279 20.3083 35.4568 20.2449 35.3899C20.2008 35.4662 20.0036 35.8066 20.0036 35.8066C20.0036 35.8066 19.8065 35.4662 19.7622 35.3899C19.6988 35.4568 19.3477 35.8279 19.3477 35.8279C19.3447 35.4296 19.355 34.8762 19.6587 34.5702Z" fill="black"/>
<path d="M22.9944 35.4272L22.7386 35.6828V36.1921L22.1511 35.6475L23.2013 34.5973L24.2515 35.6475L23.664 36.1921V35.6828L23.4083 35.4272V36.3295L23.8613 36.7184L23.2013 37.2852L22.5413 36.7184L22.9944 36.3295V35.4272Z" fill="black"/>
<path d="M26.1916 36.4394L25.9358 36.6951V37.2044L25.3483 36.6598L26.3986 35.6096L27.4488 36.6598L26.8613 37.2044V36.6951L26.6054 36.4394V37.3418L27.0586 37.7307L26.3986 38.2974L25.7386 37.7307L26.1916 37.3418V36.4394Z" fill="black"/>
<path d="M20.0036 35.6357C20.056 35.5453 20.2282 35.2478 20.2282 35.2478C20.2282 35.2478 20.4709 35.5043 20.57 35.6089C20.5581 35.1591 20.4594 34.8038 20.2876 34.6309C20.2071 34.5497 20.1116 34.5086 20.0036 34.5086C19.8955 34.5086 19.8 34.5497 19.7196 34.6307C19.5478 34.8038 19.4491 35.1591 19.4372 35.6089C19.5362 35.5042 19.7788 35.2478 19.7788 35.2478C19.8537 35.3771 19.9287 35.5065 20.0036 35.6357Z" fill="white"/>
<path d="M26.5203 37.381V36.2324L26.9475 36.6595V37.008L27.3258 36.6573L26.3991 35.7307L25.4724 36.6573L25.8506 37.008V36.6595L26.2778 36.2324V37.381L25.8706 37.7306L26.3991 38.1843L26.9275 37.7306L26.5203 37.381Z" fill="white"/>
<path d="M23.3221 36.3691V35.2204L23.7493 35.6476V35.996L24.1275 35.6455L23.2008 34.7187L22.2741 35.6455L22.6524 35.996V35.6476L23.0796 35.2204V36.3691L22.6724 36.7186L23.2008 37.1724L23.7292 36.7186L23.3221 36.3691Z" fill="#D91C16"/>
<path d="M41.5428 34.5702C41.4457 34.4722 41.3297 34.4227 41.1979 34.4227C41.0663 34.4227 40.9502 34.4722 40.853 34.5702C40.5493 34.8762 40.5391 35.4296 40.5421 35.8279C40.5421 35.8279 40.8932 35.4568 40.9566 35.3899C41.0008 35.4662 41.1979 35.8066 41.1979 35.8066C41.1979 35.8066 41.3951 35.4662 41.4394 35.3899C41.5027 35.4568 41.8538 35.8279 41.8538 35.8279C41.8568 35.4296 41.8465 34.8762 41.5428 34.5702Z" fill="black"/>
<path d="M38.2071 35.4274L38.463 35.683V36.1923L39.0505 35.6478L38.0002 34.5975L36.95 35.6478L37.5375 36.1923V35.683L37.7932 35.4274V36.3297L37.3402 36.7186L38.0002 37.2854L38.6602 36.7186L38.2071 36.3297V35.4274Z" fill="black"/>
<path d="M35.01 36.4394L35.2657 36.6951V37.2044L35.8532 36.6598L34.803 35.6096L33.7527 36.6598L34.3403 37.2044V36.6951L34.5961 36.4394V37.3418L34.143 37.7307L34.803 38.2974L35.463 37.7307L35.01 37.3418V36.4394Z" fill="black"/>
<path d="M41.1979 35.6357C41.1455 35.5453 40.9733 35.2478 40.9733 35.2478C40.9733 35.2478 40.7307 35.5043 40.6315 35.6089C40.6434 35.1591 40.7422 34.8038 40.9139 34.6309C40.9944 34.5497 41.0899 34.5086 41.1979 34.5086C41.3061 34.5086 41.4016 34.5497 41.482 34.6307C41.6537 34.8038 41.7525 35.1591 41.7643 35.6089C41.6653 35.5042 41.4227 35.2478 41.4227 35.2478C41.3478 35.3771 41.2728 35.5065 41.1979 35.6357Z" fill="white"/>
<path d="M34.6813 37.381V36.2324L34.2541 36.6595V37.008L33.8759 36.6573L34.8025 35.7307L35.7293 36.6573L35.351 37.008V36.6595L34.9238 36.2324V37.381L35.331 37.7306L34.8025 38.1843L34.2742 37.7306L34.6813 37.381Z" fill="white"/>
<path d="M37.8795 36.3691V35.2204L37.4523 35.6476V35.996L37.074 35.6455L38.0008 34.7187L38.9274 35.6455L38.5492 35.996V35.6476L38.122 35.2204V36.3691L38.5291 36.7186L38.0008 37.1724L37.4723 36.7186L37.8795 36.3691Z" fill="#D91C16"/>
<path d="M31.8574 36.0559L31.5134 36.5313L32.3956 37.3458L31.573 38.0216V37.5428L31.229 37.2484V38.1169L32.0061 38.6896L30.6003 39.7258L29.1945 38.6896L29.9717 38.1169V37.2484L29.6277 37.5428V38.0216L28.805 37.3458L29.6873 36.5313L29.3433 36.0559H31.8574Z" fill="black"/>
<path d="M29.5115 36.1414L29.8016 36.5426L28.9358 37.3418L29.5422 37.84V37.5032L30.0577 37.0621V38.1601L29.3393 38.6895L30.6006 39.6191L31.8619 38.6895L31.1436 38.1601V37.0621L31.659 37.5032V37.84L32.2655 37.3418L31.3997 36.5426L31.6899 36.1414H29.5115Z" fill="#D91C16"/>
<path d="M29.9573 38.6896L30.5997 38.2162L31.2421 38.6896L30.5997 39.1631L30.5742 39.1442L29.9573 38.6896Z" fill="black"/>
<path d="M30.6007 39.0564C30.6432 39.0252 31.0236 38.7448 31.0987 38.6894C31.0236 38.6341 30.6432 38.3537 30.6007 38.3225C30.5583 38.3537 30.1778 38.6341 30.1028 38.6894C30.1778 38.7448 30.5583 39.0252 30.6007 39.0564Z" fill="#1E9A1C"/>
<path d="M41.9812 32.63H40.5737V32.069H36.2716L33.2767 30.1018H33.264H27.9238L24.929 32.069H20.6268V32.63H19.2193V33.6135H20.6268V34.1745H24.929L27.9238 36.1418H33.2767L36.2716 34.1745H40.5737V33.6135H41.9812V32.63Z" fill="black"/>
<path d="M27.9483 30.1904L24.9505 32.1502H20.7132V32.7116H19.3043V33.5273H20.7132V34.0887H24.9505L27.9483 36.0591H33.2555L36.2428 34.0887H40.4907V33.5273H41.8996V32.7116H40.4907V32.1502H36.2428L33.2555 30.1904H27.9483ZM28.0119 30.4764H33.1814L35.925 32.2773V32.5527H38.9865V33.6968H35.925V33.9722L33.1814 35.7625H28.0119L25.2789 33.9722V33.6968H22.2068V32.5527H25.2789V32.2773L28.0119 30.4764Z" fill="#D91C16"/>
<path d="M33.1605 30.5652L35.8362 32.3219V32.6336H38.9026V33.6097H35.8362V33.9216L33.1605 35.6783H28.0396L25.3638 33.9216V33.6097H22.2975V32.6336H25.3638V32.3219L28.0396 30.5652H33.1605Z" fill="#D91C16"/>
<path d="M26.71 34.1195L27.8686 34.9893L28.6307 34.417L28.1876 34.0844L27.8686 34.324L27.5962 34.1195L31.9592 30.8438H31.0732L26.71 34.1195ZM29.239 35.3997H30.125L34.4882 32.1239L33.3298 31.2543L32.5675 31.8264L33.0106 32.1589L33.3298 31.9193L33.6022 32.1239L29.239 35.3997ZM31.0732 35.3997H31.9591L27.5962 32.1239L27.8686 31.9193L28.1876 32.1589L28.6307 31.8264L27.8686 31.2543L26.71 32.1239L31.0732 35.3997ZM33.6022 34.1195L33.3298 34.324L33.0106 34.0844L32.5675 34.417L33.3298 34.9893L34.4882 34.1195L30.125 30.8438H29.239L33.6022 34.1195Z" fill="black"/>
<path d="M25.833 33.1217L26.6117 33.6389L27.3904 33.1217L26.6117 32.6045L25.833 33.1217Z" fill="black"/>
<path d="M29.8213 33.1217L30.6 33.6389L31.3786 33.1217L30.6 32.6045L29.8213 33.1217Z" fill="black"/>
<path d="M35.3669 33.1217L34.5883 33.6389L33.8096 33.1217L34.5883 32.6045L35.3669 33.1217Z" fill="black"/>
<path d="M34.3462 34.1197L33.3305 34.8822L32.711 34.4171L33.0113 34.1916L33.3305 34.4313L33.7456 34.1197L29.4966 30.9297H30.0972L34.3462 34.1197ZM31.703 35.314H31.1025L26.8535 32.124L27.8693 31.3614L28.4886 31.8266L28.1884 32.0519L27.8693 31.8123L27.4541 32.124L31.703 35.314ZM30.0972 35.314H29.4966L33.7456 32.124L33.3305 31.8123L33.0113 32.0519L32.711 31.8266L33.3305 31.3614L34.3462 32.124L30.0972 35.314ZM31.1025 30.9297H31.703L27.4541 34.1196L27.8693 34.4313L28.1884 34.1916L28.4886 34.4171L27.8693 34.8822L26.8535 34.1196L31.1025 30.9297Z" fill="#FDD406"/>
<path d="M26.612 32.7075L27.2358 33.1218L26.612 33.536L25.9883 33.1218L26.612 32.7075Z" fill="#1E9A1C"/>
<path d="M30.6002 32.7075L31.224 33.1218L30.6002 33.536L29.9766 33.1218L30.6002 32.7075Z" fill="#1E9A1C"/>
<path d="M34.5886 32.7075L33.9648 33.1218L34.5886 33.536L35.2122 33.1218L34.5886 32.7075Z" fill="#1E9A1C"/>
<path d="M16.9043 54.8301L16.5988 55.2622L17.1464 55.681L16.5986 56.0999L16.9042 56.532L17.5405 56.6059L18.1567 56.1298L19.6931 57.1057V56.2953L18.7261 55.681L19.6931 55.0668V54.2563L18.1567 55.2323L17.5405 54.7563L16.9043 54.8301Z" fill="black"/>
<path d="M16.9043 52.0146L16.5988 52.4469L17.1464 52.8657L16.5986 53.2845L16.9042 53.7167L17.5405 53.7905L18.1567 53.3144L19.6931 54.2904V53.4798L18.7261 52.8657L19.6931 52.2514V51.4409L18.1567 52.4169L17.5405 51.9408L16.9043 52.0146Z" fill="black"/>
<path d="M16.9043 59.3477L16.5988 58.9156L17.1464 58.4968L16.5986 58.0779L16.9042 57.6457L17.5405 57.5719L18.1567 58.048L19.6931 57.072V57.8825L18.7261 58.4968L19.6931 59.1109V59.9214L18.1567 58.9455L17.5405 59.4216L16.9043 59.3477Z" fill="black"/>
<path d="M44.2977 54.8301L44.6032 55.2622L44.0556 55.681L44.6032 56.0999L44.2977 56.532L43.6615 56.6059L43.0453 56.1298L41.5088 57.1057V56.2953L42.4759 55.681L41.5088 55.0668V54.2563L43.0453 55.2323L43.6615 54.7563L44.2977 54.8301Z" fill="black"/>
<path d="M44.2977 52.0146L44.6032 52.4469L44.0556 52.8657L44.6032 53.2845L44.2977 53.7167L43.6615 53.7905L43.0453 53.3144L41.5088 54.2904V53.4798L42.4759 52.8657L41.5088 52.2514V51.4409L43.0453 52.4169L43.6615 51.9408L44.2977 52.0146Z" fill="black"/>
<path d="M44.2977 59.3477L44.6032 58.9156L44.0556 58.4968L44.6032 58.0779L44.2977 57.6457L43.6615 57.5719L43.0453 58.048L41.5088 57.072V57.8825L42.4759 58.4968L41.5088 59.1109V59.9214L43.0453 58.9455L43.6615 59.4216L44.2977 59.3477Z" fill="black"/>
<path d="M38.1475 47.146V48.3172H38.9993V48.8348H39.8362V47.8923H39.0898V47.146H38.1475Z" fill="black"/>
<path d="M40.6582 48.9929V50.164H41.5092V50.6817H42.347V49.7392H41.6007V48.9929H40.6582Z" fill="black"/>
<path d="M23.055 47.146V48.3172H22.2029V48.8348H21.3662V47.8923H22.1125V47.146H23.055Z" fill="black"/>
<path d="M38.1475 64.2166V63.0454H38.9993V62.5278H39.8362V63.4702H39.0898V64.2166H38.1475Z" fill="black"/>
<path d="M23.055 64.2166V63.0454H22.2029V62.5278H21.3662V63.4702H22.1125V64.2166H23.055Z" fill="black"/>
<path d="M40.6582 62.3694V61.1983H41.5092V60.6807H42.347V61.623H41.6007V62.3694H40.6582Z" fill="black"/>
<path d="M20.5442 48.9929V50.164H19.693V50.6817H18.8555V49.7392H19.6018V48.9929H20.5442Z" fill="black"/>
<path d="M20.5442 62.3694V61.1983H19.693V60.6807H18.8555V61.623H19.6018V62.3694H20.5442Z" fill="black"/>
<path d="M33.7524 47.1187C33.6981 47.0659 33.1023 46.4875 33.1023 46.4875L32.4636 47.0793C32.4636 47.0793 32.964 47.5649 33.0203 47.6196L32.3018 48.3172H33.3686L33.7524 47.9445L34.1363 48.3172H35.203L34.4844 47.6196C34.5407 47.5649 35.041 47.0793 35.041 47.0793L34.4025 46.4875C34.1855 46.6977 33.969 46.9083 33.7524 47.1187Z" fill="black"/>
<path d="M30.601 47.1187C30.5467 47.0659 29.9509 46.4875 29.9509 46.4875L29.3123 47.0793C29.3123 47.0793 29.8126 47.5649 29.869 47.6196L29.1504 48.3172H30.2171L30.601 47.9445L30.9848 48.3172H32.0515L31.3331 47.6196C31.3894 47.5649 31.8896 47.0793 31.8896 47.0793L31.2511 46.4875C31.0342 46.6977 30.8177 46.9083 30.601 47.1187Z" fill="black"/>
<path d="M27.4506 47.1187C27.5049 47.0659 28.1007 46.4875 28.1007 46.4875L28.7394 47.0793C28.7394 47.0793 28.239 47.5649 28.1827 47.6196L28.9012 48.3172H27.8344L27.4506 47.9445L27.0667 48.3172H26L26.7186 47.6196C26.6623 47.5649 26.1619 47.0793 26.1619 47.0793L26.8005 46.4875C27.0175 46.6977 27.234 46.9083 27.4506 47.1187Z" fill="black"/>
<path d="M33.7524 64.2438C33.6981 64.2965 33.1023 64.8749 33.1023 64.8749L32.4636 64.2832C32.4636 64.2832 32.964 63.7977 33.0203 63.743L32.3018 63.0454H33.3686L33.7524 63.4181L34.1363 63.0454H35.203L34.4844 63.743C34.5407 63.7977 35.041 64.2832 35.041 64.2832L34.4025 64.8749C34.1855 64.6648 33.969 64.4542 33.7524 64.2438Z" fill="black"/>
<path d="M30.601 64.2438C30.5467 64.2965 29.9509 64.8749 29.9509 64.8749L29.3123 64.2832C29.3123 64.2832 29.8126 63.7977 29.869 63.743L29.1504 63.0454H30.2171L30.601 63.4181L30.9848 63.0454H32.0515L31.3331 63.743C31.3894 63.7977 31.8896 64.2832 31.8896 64.2832L31.2511 64.8749C31.0342 64.6648 30.8177 64.4542 30.601 64.2438Z" fill="black"/>
<path d="M27.4506 64.2438C27.5049 64.2965 28.1007 64.8749 28.1007 64.8749L28.7394 64.2832C28.7394 64.2832 28.239 63.7977 28.1827 63.743L28.9012 63.0454H27.8344L27.4506 63.4181L27.0667 63.0454H26L26.7186 63.743C26.6623 63.7977 26.1619 64.2832 26.1619 64.2832L26.8005 64.8749C27.0175 64.6648 27.234 64.4542 27.4506 64.2438Z" fill="black"/>
<path d="M19.6069 56.3427V56.95L18.1513 56.0254L17.5151 56.517L16.9515 56.4516L16.7158 56.1182L17.287 55.6814L16.7158 55.2446L16.9516 54.9111L17.5151 54.8457L18.1513 55.3372L19.6069 54.4126V55.0199L18.5656 55.6814L19.6069 56.3427Z" fill="#1E9A1C"/>
<path d="M19.6069 53.5269V54.1343L18.1513 53.2097L17.5151 53.7012L16.9515 53.6358L16.7158 53.3024L17.287 52.8656L16.7158 52.4289L16.9516 52.0954L17.5151 52.0299L18.1513 52.5214L19.6069 51.5969V52.2042L18.5656 52.8656L19.6069 53.5269Z" fill="#1E9A1C"/>
<path d="M19.6069 57.8354V57.228L18.1513 58.1526L17.5151 57.661L16.9515 57.7264L16.7158 58.0599L17.287 58.4967L16.7158 58.9335L16.9516 59.2669L17.5151 59.3323L18.1513 58.8408L19.6069 59.7654V59.1581L18.5656 58.4967L19.6069 57.8354Z" fill="#1E9A1C"/>
<path d="M41.5947 56.3427V56.95L43.0503 56.0254L43.6863 56.517L44.25 56.4516L44.4856 56.1182L43.9144 55.6814L44.4856 55.2446L44.25 54.9111L43.6863 54.8457L43.0503 55.3372L41.5947 54.4126V55.0199L42.6358 55.6814L41.5947 56.3427Z" fill="#1E9A1C"/>
<path d="M41.5947 53.5269V54.1343L43.0503 53.2097L43.6863 53.7012L44.25 53.6358L44.4856 53.3024L43.9144 52.8656L44.4856 52.4289L44.25 52.0954L43.6863 52.0299L43.0503 52.5214L41.5947 51.5969V52.2042L42.6358 52.8656L41.5947 53.5269Z" fill="#1E9A1C"/>
<path d="M41.5947 57.8354V57.228L43.0503 58.1526L43.6863 57.661L44.25 57.7264L44.4856 58.0599L43.9144 58.4967L44.4856 58.9335L44.25 59.2669L43.6863 59.3323L43.0503 58.8408L41.5947 59.7654V59.1581L42.6358 58.4967L41.5947 57.8354Z" fill="#1E9A1C"/>
<path d="M39.0034 47.2317V47.9781H39.7497V48.7491H39.0844V48.2315H38.2324V47.2317H39.0034Z" fill="#1E9A1C"/>
<path d="M41.5142 49.0786V49.8249H42.2604V50.596H41.595V50.0785H40.7432V49.0786H41.5142Z" fill="#1E9A1C"/>
<path d="M22.1984 47.2317V47.9781H21.4521V48.7491H22.1175V48.2315H22.9694V47.2317H22.1984Z" fill="#1E9A1C"/>
<path d="M39.0034 64.1306V63.3843H39.7497V62.6133H39.0844V63.1308H38.2324V64.1306H39.0034Z" fill="#1E9A1C"/>
<path d="M22.1985 64.1306V63.3843H21.4521V62.6133H22.1175V63.1308H22.9695V64.1306H22.1985Z" fill="#1E9A1C"/>
<path d="M41.5142 62.2839V61.5376H42.2604V60.7666H41.595V61.2842H40.7432V62.2839H41.5142Z" fill="#1E9A1C"/>
<path d="M19.6867 49.0786V49.8249H18.9404V50.596H19.6058V50.0785H20.4577V49.0786H19.6867Z" fill="#1E9A1C"/>
<path d="M19.6868 62.2839V61.5376H18.9404V60.7666H19.6058V61.2842H20.4578V62.2839H19.6868Z" fill="#1E9A1C"/>
<path d="M33.1005 46.6057C33.1536 46.6573 33.7519 47.2381 33.7519 47.2381C33.7519 47.2381 34.3501 46.6573 34.4033 46.6057C34.4537 46.6523 34.8604 47.0291 34.9161 47.0807C34.8585 47.1365 34.3608 47.6196 34.3608 47.6196L34.9911 48.2315H34.1706L33.7519 47.8249L33.3331 48.2315H32.5127L33.1429 47.6196C33.1429 47.6196 32.6453 47.1365 32.5877 47.0807C32.6434 47.0291 33.0501 46.6523 33.1005 46.6057Z" fill="#1E9A1C"/>
<path d="M29.9492 46.6057C30.0024 46.6573 30.6006 47.2381 30.6006 47.2381C30.6006 47.2381 31.1988 46.6573 31.252 46.6057C31.3024 46.6523 31.709 47.0291 31.7647 47.0807C31.7072 47.1365 31.2096 47.6196 31.2096 47.6196L31.8398 48.2315H31.0192L30.6006 47.8249L30.1819 48.2315H29.3613L29.9916 47.6196C29.9916 47.6196 29.4939 47.1365 29.4364 47.0807C29.4921 47.0291 29.8988 46.6523 29.9492 46.6057Z" fill="#1E9A1C"/>
<path d="M28.1015 46.6057C28.0483 46.6573 27.4501 47.2381 27.4501 47.2381C27.4501 47.2381 26.8519 46.6573 26.7987 46.6057C26.7483 46.6523 26.3416 47.0291 26.2859 47.0807C26.3435 47.1365 26.8412 47.6196 26.8412 47.6196L26.2109 48.2315H27.0314L27.4501 47.8249L27.8689 48.2315H28.6893L28.0591 47.6196C28.0591 47.6196 28.5567 47.1365 28.6143 47.0807C28.5586 47.0291 28.1519 46.6523 28.1015 46.6057Z" fill="#1E9A1C"/>
<path d="M33.1005 64.7566C33.1536 64.7049 33.7519 64.1241 33.7519 64.1241C33.7519 64.1241 34.3501 64.7049 34.4033 64.7566C34.4537 64.7099 34.8604 64.3331 34.9161 64.2817C34.8585 64.2257 34.3608 63.7427 34.3608 63.7427L34.9911 63.1309H34.1706L33.7519 63.5373L33.3331 63.1309H32.5127L33.1429 63.7427C33.1429 63.7427 32.6453 64.2257 32.5877 64.2817C32.6434 64.3331 33.0501 64.7099 33.1005 64.7566Z" fill="#1E9A1C"/>
<path d="M29.9492 64.7566C30.0024 64.7049 30.6006 64.1241 30.6006 64.1241C30.6006 64.1241 31.1988 64.7049 31.252 64.7566C31.3024 64.7099 31.709 64.3331 31.7647 64.2817C31.7072 64.2257 31.2096 63.7427 31.2096 63.7427L31.8398 63.1309H31.0192L30.6006 63.5373L30.1819 63.1309H29.3613L29.9916 63.7427C29.9916 63.7427 29.4939 64.2257 29.4364 64.2817C29.4921 64.3331 29.8988 64.7099 29.9492 64.7566Z" fill="#1E9A1C"/>
<path d="M28.1015 64.7566C28.0483 64.7049 27.4501 64.1241 27.4501 64.1241C27.4501 64.1241 26.8519 64.7049 26.7987 64.7566C26.7483 64.7099 26.3416 64.3331 26.2859 64.2817C26.3435 64.2257 26.8412 63.7427 26.8412 63.7427L26.2109 63.1309H27.0314L27.4501 63.5373L27.8689 63.1309H28.6893L28.0591 63.7427C28.0591 63.7427 28.5567 64.2257 28.6143 64.2817C28.5586 64.3331 28.1519 64.7099 28.1015 64.7566Z" fill="#1E9A1C"/>
<path d="M22.1172 61.2841V63.1309H39.0843V61.2841H41.5945V50.0782H39.0843V48.2314H22.1172V50.0782H19.607V61.2841H22.1172Z" fill="black"/>
<path d="M22.2084 48.3155V50.1589H19.6978V61.1969H22.2084V63.0403H38.9986V61.1969H41.5094V50.1588H38.9986V48.3154L22.2084 48.3155ZM23.2889 49.0254H37.9183V50.805L38.522 51.2501H40.7996V60.1165H38.5115L37.9183 60.5508V62.341H23.289V60.5613L22.6851 60.1165H20.397V51.2501H22.6746L23.289 50.805L23.2889 49.0254Z" fill="#FDD406"/>
<path d="M23.3732 49.1101V50.7416L25.5766 49.1101H23.3732ZM35.6188 49.1101L37.8222 50.7416V49.1101H35.6188ZM20.4919 51.3349V52.8603L22.5681 51.3349H20.4919ZM38.6276 51.3349L40.7144 52.8708V51.3349H38.6276ZM40.7144 58.485L38.6276 60.0318H40.7144V58.485ZM20.4918 58.4955V60.0318H22.5681L20.4918 58.4955ZM23.3732 60.625V62.2457H25.5659L23.3732 60.625ZM37.8221 60.625L35.6296 62.2457H37.8221V60.625Z" fill="#D91C16"/>
<path d="M35.4762 49.1118C35.4988 49.1284 40.6793 52.9547 40.7137 52.9801V58.3822C40.6793 58.4077 35.4988 62.2339 35.4762 62.2506H25.7243C25.7019 62.2339 20.5213 58.4077 20.4869 58.3822V52.9801C20.5213 52.9547 25.7019 49.1284 25.7243 49.1118H35.4762Z" fill="#1E9A1C"/>
<path d="M21.7346 59.0042L21.1324 58.3053L21.6977 57.6493L21.1324 56.9932L21.6977 56.3373L21.1324 55.6813L21.6977 55.0252L21.1324 54.3692L21.6976 53.7131L21.1324 53.0571L21.7346 52.3583H39.4669L40.069 53.0571L39.5037 53.7131L40.069 54.3692L39.5037 55.0252L40.069 55.6813L39.5037 56.3373L40.069 56.9932L39.5037 57.6493L40.069 58.3053L39.4669 59.0042H21.7346ZM33.9237 49.9569L33.2248 49.3547L32.5687 49.9201L31.9127 49.3547L31.2567 49.9201L30.6007 49.3547L29.9446 49.9201L29.2886 49.3547L28.6327 49.9201L27.9766 49.3547L27.2777 49.9569V61.4055L27.9766 62.0078L28.6327 61.4425L29.2886 62.0077L29.9446 61.4423L30.6007 62.0077L31.2567 61.4423L31.9127 62.0077L32.5687 61.4425L33.2248 62.0078L33.9237 61.4055V49.9569Z" fill="black"/>
<path d="M32.5261 49.9961L31.913 49.4678L31.2998 49.9961V61.3661L31.913 61.8944L32.5261 61.3661V49.9961Z" fill="#FDD406"/>
<path d="M29.9021 49.9961L29.2889 49.4678L28.6758 49.9961V61.3661L29.2889 61.8944L29.9021 61.3661V49.9961Z" fill="#FDD406"/>
<path d="M21.7743 58.9185L21.2461 58.3053L21.7743 57.6921H39.4281L39.9564 58.3053L39.4281 58.9185H21.7743Z" fill="#FDD406"/>
<path d="M39.428 55.0679L39.9564 55.6811L39.428 56.2942H21.7745L21.2461 55.6811L21.7745 55.0679H39.428Z" fill="#FDD406"/>
<path d="M39.4281 53.6704L39.9564 53.0572L39.4281 52.4441H21.7743L21.2461 53.0572L21.7743 53.6704H39.4281Z" fill="#FDD406"/>
<path d="M33.8386 49.9961L33.2255 49.4678L32.6123 49.9961V61.3661L33.2255 61.8944L33.8384 61.3662L33.8386 49.9961Z" fill="#D91C16"/>
<path d="M28.5907 49.9961L27.9775 49.4678L27.3643 49.9961V61.3661L27.9775 61.8944L28.5907 61.3661V49.9961Z" fill="#D91C16"/>
<path d="M21.7745 57.6063L21.2461 56.9931L21.7745 56.3799H39.428L39.9564 56.9931L39.428 57.6063H21.7745Z" fill="#D91C16"/>
<path d="M21.7745 54.9823L21.2461 54.3691L21.7745 53.7559H39.428L39.9564 54.3691L39.428 54.9823H21.7745Z" fill="#D91C16"/>
<path d="M31.2147 61.3661L30.6015 61.8944L29.9883 61.3661V49.9961L30.6015 49.4678L31.2147 49.9961V61.3661Z" fill="#D91C16"/>
<path d="M36.5273 50.218H24.6312V51.1628H23.1109V60.1997H24.6312V61.1444H36.5701V60.1997H38.0904V51.1628H36.5701V50.218H36.5273Z" fill="black"/>
<path d="M24.7184 50.3069V51.2499H23.193V60.1164H24.7184V61.0591H25.9684L23.479 58.9723V52.3937L25.9684 50.3069H24.7184ZM35.2376 50.3069L37.7163 52.3937V58.9723L35.2376 61.0591H36.4875V60.1164H38.0024V51.2499H36.4875V50.3069L35.2376 50.3069Z" fill="#D91C16"/>
<path d="M26.1068 50.3069C26.0833 50.3267 23.5946 52.4109 23.5645 52.4361V58.9297C23.5946 58.9551 26.0833 61.0392 26.1068 61.059H35.1005C35.1241 61.0392 37.6021 58.9549 37.6322 58.9297V52.4361C37.6021 52.4109 35.1241 50.3267 35.1005 50.3069H26.1068ZM26.234 50.6671H34.9628L37.2721 52.6056V58.7603L34.9628 60.6882H26.234L23.9352 58.7603V52.6056L26.234 50.6671Z" fill="#1E9A1C"/>
<path d="M28.546 58.8577L28.9367 59.0265L29.0086 59.4829L28.5167 59.9156L29.2312 60.6064H28.5437L28.0522 60.1333L27.5605 60.6064H26.873L27.5876 59.9156L27.0956 59.4829L27.1676 59.0265L27.5582 58.8577L28.0522 59.2526L28.0789 59.2312L28.546 58.8577Z" fill="#1E9A1C"/>
<path d="M31.0959 58.8577L31.4865 59.0265L31.5585 59.4829L31.0666 59.9156L31.7811 60.6064H31.0936L30.602 60.1333L30.1105 60.6064H29.4229L30.1375 59.9156L29.6456 59.4829L29.7176 59.0265L30.1082 58.8577L30.602 59.2526L30.6287 59.2312L31.0959 58.8577Z" fill="#1E9A1C"/>
<path d="M32.6569 58.8577L32.2663 59.0265L32.1943 59.4829L32.6862 59.9156L31.9717 60.6064H32.6592L33.1508 60.1333L33.6423 60.6064H34.3298L33.6153 59.9156L34.1072 59.4829L34.0352 59.0265L33.6446 58.8577L33.1508 59.2526L33.1239 59.2312L32.6569 58.8577Z" fill="#1E9A1C"/>
<path d="M28.546 52.5045L28.9367 52.3357L29.0086 51.8794L28.5167 51.4467L29.2312 50.7559H28.5437L28.0522 51.2289L27.5605 50.7559H26.873L27.5876 51.4467L27.0956 51.8793L27.1676 52.3357L27.5582 52.5045L28.0522 52.1097L28.0789 52.1311L28.546 52.5045Z" fill="#1E9A1C"/>
<path d="M31.0959 52.5045L31.4865 52.3357L31.5585 51.8794L31.0666 51.4467L31.7811 50.7559H31.0936L30.602 51.2289L30.1105 50.7559H29.4229L30.1375 51.4467L29.6456 51.8793L29.7176 52.3357L30.1082 52.5045L30.602 52.1097L30.6287 52.1311L31.0959 52.5045Z" fill="#1E9A1C"/>
<path d="M32.6569 52.5045L32.2663 52.3357L32.1943 51.8794L32.6862 51.4467L31.9717 50.7559H32.6592L33.1508 51.2289L33.6423 50.7559H34.3298L33.6153 51.4467L34.1072 51.8793L34.0352 52.3357L33.6446 52.5045L33.1508 52.1097L33.1239 52.1311L32.6569 52.5045Z" fill="#1E9A1C"/>
<path d="M37.1826 53.2332L36.7926 53.5561L37.1826 53.8789V54.4142L36.5829 53.92C36.5829 53.92 36.1796 54.2854 36.1524 54.31C36.1179 54.3056 35.7293 54.2568 35.6909 54.252C35.6738 54.2204 35.5524 53.9968 35.5283 53.952C35.5685 53.9119 35.9255 53.5561 35.9255 53.5561C35.9255 53.5561 35.5685 53.2002 35.5283 53.1601C35.5524 53.1154 35.6738 52.8916 35.6909 52.8601C35.7293 52.8553 36.1179 52.8064 36.1524 52.802C36.1796 52.8266 36.5829 53.1922 36.5829 53.1922L37.1826 52.698V53.2332Z" fill="#1E9A1C"/>
<path d="M37.1826 55.3582L36.7926 55.6811L37.1826 56.0038V56.5392L36.5829 56.045C36.5829 56.045 36.1796 56.4104 36.1524 56.435C36.1179 56.4306 35.7293 56.3817 35.6909 56.377C35.6738 56.3454 35.5524 56.1216 35.5283 56.077C35.5685 56.0369 35.9255 55.6811 35.9255 55.6811C35.9255 55.6811 35.5685 55.3251 35.5283 55.285C35.5524 55.2404 35.6738 55.0166 35.6909 54.985C35.7293 54.9803 36.1179 54.9314 36.1524 54.927C36.1796 54.9516 36.5829 55.317 36.5829 55.317L37.1826 54.823V55.3582Z" fill="#1E9A1C"/>
<path d="M37.1826 58.129L36.7926 57.8061L37.1826 57.4833V56.948L36.5829 57.4423C36.5829 57.4423 36.1796 57.0768 36.1524 57.0522C36.1179 57.0565 35.7293 57.1054 35.6909 57.1101C35.6738 57.1417 35.5524 57.3655 35.5283 57.4101C35.5685 57.4503 35.9255 57.8061 35.9255 57.8061C35.9255 57.8061 35.5685 58.162 35.5283 58.2021C35.5524 58.2468 35.6738 58.4706 35.6909 58.5021C35.7293 58.5069 36.1179 58.5558 36.1524 58.5601C36.1796 58.5355 36.5829 58.1701 36.5829 58.1701L37.1826 58.6642V58.129Z" fill="#1E9A1C"/>
<path d="M24.0215 53.2334L24.4114 53.5564L24.0215 53.8792V54.4145L24.6212 53.9202C24.6212 53.9202 25.0246 54.2856 25.0517 54.3102C25.0861 54.3059 25.4748 54.257 25.5132 54.2522C25.5304 54.2207 25.6516 53.997 25.6758 53.9522C25.6356 53.9122 25.2786 53.5564 25.2786 53.5564C25.2786 53.5564 25.6356 53.2004 25.6758 53.1604C25.6516 53.1156 25.5304 52.8918 25.5132 52.8604C25.4748 52.8556 25.0861 52.8066 25.0517 52.8023C25.0246 52.8269 24.6212 53.1924 24.6212 53.1924L24.0215 52.6982V53.2334Z" fill="#1E9A1C"/>
<path d="M24.0215 55.3584L24.4114 55.6814L24.0215 56.004V56.5395L24.6212 56.0452C24.6212 56.0452 25.0246 56.4106 25.0517 56.4352C25.0861 56.4309 25.4748 56.3819 25.5132 56.3772C25.5304 56.3457 25.6516 56.1219 25.6758 56.0772C25.6356 56.0372 25.2786 55.6814 25.2786 55.6814C25.2786 55.6814 25.6356 55.3253 25.6758 55.2852C25.6516 55.2406 25.5304 55.0168 25.5132 54.9852C25.4748 54.9806 25.0861 54.9316 25.0517 54.9273C25.0246 54.9519 24.6212 55.3173 24.6212 55.3173L24.0215 54.8232V55.3584Z" fill="#1E9A1C"/>
<path d="M24.0215 58.129L24.4114 57.8061L24.0215 57.4833V56.948L24.6212 57.4423C24.6212 57.4423 25.0246 57.0768 25.0517 57.0522C25.0861 57.0565 25.4748 57.1054 25.5132 57.1101C25.5304 57.1417 25.6516 57.3655 25.6758 57.4101C25.6356 57.4503 25.2786 57.8061 25.2786 57.8061C25.2786 57.8061 25.6356 58.162 25.6758 58.2021C25.6516 58.2468 25.5304 58.4706 25.5132 58.5021C25.4748 58.5069 25.0861 58.5558 25.0517 58.5601C25.0246 58.5355 24.6212 58.1701 24.6212 58.1701L24.0215 58.6642V58.129Z" fill="#1E9A1C"/>
<path d="M26.2649 50.752C26.2417 50.7714 24.1445 52.5273 24.0509 52.6059C24.24 52.7625 24.4228 52.9264 24.6124 53.0825C24.6603 53.0392 25.0255 52.7117 25.0255 52.7117L25.5657 52.7859L25.7776 53.1778C25.7776 53.1778 25.4481 53.5076 25.3963 53.5592C25.4481 53.6106 25.7776 53.9405 25.7776 53.9405L25.5657 54.3325L25.0255 54.396C25.0255 54.396 24.6604 54.0793 24.6124 54.0359L24.0191 54.5337V54.7032C24.2187 54.8684 24.4121 55.0361 24.6124 55.2011C24.6604 55.1578 25.0255 54.8409 25.0255 54.8409L25.5657 54.9045L25.7776 55.2964C25.7776 55.2964 25.4481 55.6262 25.3963 55.6778C25.4481 55.7293 25.7776 56.0592 25.7776 56.0592L25.5657 56.4617L25.0255 56.5253C25.0255 56.5253 24.6604 56.1979 24.6124 56.1545L24.0191 56.6524V56.8325L24.6124 57.3303C24.6604 57.287 25.0255 56.9596 25.0255 56.9596L25.5657 57.0337L25.7776 57.4257C25.7776 57.4257 25.4481 57.7554 25.3963 57.807C25.4481 57.8586 25.7776 58.1884 25.7776 58.1884L25.5657 58.5803L25.0255 58.6545C25.0255 58.6545 24.6604 58.3272 24.6124 58.2837C24.4236 58.4392 24.2393 58.5945 24.0509 58.7498C24.1445 58.8284 26.2417 60.5842 26.2649 60.6037H26.7522L27.4619 59.9151L27.0064 59.5125L27.0912 58.9617L27.5679 58.7604L28.0551 59.1418L28.5318 58.7604L29.0085 58.9617L29.1039 59.5125L28.6378 59.9151L29.3263 60.5719L30.0149 59.9151L29.5488 59.5125L29.6335 58.9617L30.1208 58.7604L30.5975 59.1418L31.0848 58.7604L31.5615 58.9617L31.6462 59.5125L31.1907 59.9151L31.8687 60.5825L32.5573 59.9151L32.1018 59.5125L32.1865 58.9617L32.6738 58.7604L33.1505 59.1418L33.6272 58.7604L34.1145 58.9617L34.1992 59.5125L33.7437 59.9151L34.4535 60.6037H34.9301C34.9533 60.5842 37.0504 58.8284 37.1441 58.7498C36.9554 58.5944 36.7717 58.4395 36.5827 58.2837C36.5347 58.3272 36.1801 58.6545 36.1801 58.6545L35.6399 58.5803L35.4174 58.1884C35.4174 58.1884 35.7471 57.8586 35.7988 57.807C35.7471 57.7554 35.4174 57.4257 35.4174 57.4257L35.6399 57.0337L36.1801 56.9596C36.1801 56.9596 36.5347 57.287 36.5827 57.3303L37.1759 56.8325V56.6524L36.5827 56.1545C36.5347 56.1979 36.1801 56.5253 36.1801 56.5253L35.6399 56.4617L35.4174 56.0592C35.4174 56.0592 35.7471 55.7293 35.7988 55.6778C35.7471 55.6262 35.4174 55.2964 35.4174 55.2964L35.6399 54.9045L36.1801 54.8409C36.1801 54.8409 36.5347 55.1578 36.5827 55.2011C36.7816 55.0373 36.9774 54.8771 37.1759 54.7138V54.5231L36.5827 54.0359C36.5347 54.0793 36.1801 54.396 36.1801 54.396L35.6399 54.3325L35.4174 53.9405C35.4174 53.9405 35.7471 53.6106 35.7988 53.5592C35.7471 53.5076 35.4174 53.1778 35.4174 53.1778L35.6399 52.7859L36.1801 52.7117C36.1801 52.7117 36.5347 53.0391 36.5827 53.0825C36.7725 52.9261 36.9649 52.7728 37.1547 52.6164C37.0818 52.5552 34.9534 50.7714 34.9301 50.752H34.4534L33.7437 51.4405L34.1992 51.8431L34.1145 52.3939L33.6272 52.6058L33.1505 52.2244L32.6738 52.6058L32.1865 52.3939L32.1017 51.8431L32.5573 51.4405L31.8793 50.7837L31.1907 51.4405L31.6462 51.8431L31.5615 52.3939L31.0848 52.6058L30.5975 52.2244L30.1208 52.6058L29.6335 52.3939L29.5488 51.8431L30.0149 51.4405L29.3263 50.7837L28.6378 51.4405L29.1039 51.8431L29.0085 52.3939L28.5318 52.6058L28.0551 52.2244L27.5679 52.6058L27.0912 52.3939L27.0064 51.8431L27.4619 51.4405L26.7416 50.752L26.2649 50.752ZM24.0191 55.466V55.9003L24.2734 55.6779L24.0191 55.466Z" fill="#D91C16"/>
<path d="M28.0554 60.2542L27.6846 60.6036H28.4154L28.0554 60.2542Z" fill="white"/>
<path d="M30.5983 60.2542L30.2383 60.6036H30.9691L30.5983 60.2542Z" fill="white"/>
<path d="M33.1508 60.2542L32.7803 60.6036H33.5216L33.1508 60.2542Z" fill="white"/>
<path d="M27.6738 50.7522L28.0552 51.1122L28.426 50.7522H27.6738Z" fill="white"/>
<path d="M30.2275 50.7522L30.5984 51.1122L30.9797 50.7522H30.2275Z" fill="white"/>
<path d="M32.7803 50.7522L33.1508 51.1122L33.5216 50.7522H32.7803Z" fill="white"/>
<path d="M37.1762 53.3474L36.922 53.5593L37.1762 53.7606V53.3474Z" fill="white"/>
<path d="M37.1762 55.4658L36.922 55.6777L37.1762 55.8896V55.4658Z" fill="white"/>
<path d="M37.1762 57.5952L36.922 57.8071L37.1762 58.0189V57.5952Z" fill="white"/>
<path d="M24.0195 53.3369V53.7712L24.2738 53.5593L24.0195 53.3369Z" fill="white"/>
<path d="M24.0195 55.4658V55.9001L24.2738 55.6777L24.0195 55.4658Z" fill="white"/>
<path d="M24.0195 57.585V58.0192L24.2738 57.8073L24.0195 57.585Z" fill="white"/>
<path d="M32.7814 54.9714V54.2131H32.0139V53.3818H29.1876V54.2131H28.4202V54.9714H27.3604V56.391H28.4202V57.1491H29.1876V57.9805H32.0139V57.1491H32.7814V56.391H33.8411V54.9714H32.7814Z" fill="black"/>
<path d="M30.558 53.4675V54.3244L29.3431 55.015V55.6383H27.4463V55.057H28.506V54.2989H29.2734V53.4675H30.558Z" fill="#FDD406"/>
<path d="M30.6436 57.8949V57.038L31.8583 56.3473V55.7241H33.7553V56.3053H32.6956V57.0636H31.9282V57.8949H30.6436Z" fill="#FDD406"/>
<path d="M31.8583 55.6383V55.015L30.6436 54.3244V53.4675H31.9282V54.2989H32.6956V55.057H33.7553V55.6383H31.8583Z" fill="white"/>
<path d="M27.4463 55.7241H29.3431V56.3473L30.558 57.038V57.8949H29.2734V57.0636H28.506V56.3053H27.4463V55.7241Z" fill="white"/>
<path d="M29.4287 55.7241V56.3018L30.5578 56.9438V55.7241H29.4287Z" fill="#D91C16"/>
<path d="M30.5578 54.4187L29.4287 55.0606V55.6383H30.5578V54.4187Z" fill="#1E9A1C"/>
<path d="M31.7726 55.6385V55.0608L30.6436 54.4189V55.6385H31.7726Z" fill="#D91C16"/>
<path d="M30.6436 56.9438L31.7726 56.3018V55.7241H30.6436V56.9438Z" fill="#1E9A1C"/>
<path d="M20.33 70.746V73.0894H18.0969V75.2148H15.8336V81.2665H18.0969V83.392H20.33V85.7353H28.4495L29.8774 86.5933L29.1913 87.0055H26.296L26.0463 86.7239H28.6701L27.9309 85.9795H24.1777L25.8782 87.7499H29.3978L30.6001 87.0275L31.8023 87.7499H35.3222L37.0226 85.9795H33.2695L32.5302 86.7239H35.1541L34.9042 87.0055H32.0089L31.3227 86.5933L32.7507 85.7353H40.8703V83.392H43.1034V81.2665H45.3665V75.2148H43.1034V73.0894H40.8703V70.746H32.7507L31.3227 69.8881L32.0089 69.4758H34.9042L35.1541 69.7574H32.5302L33.2695 70.5018H37.0226L35.3222 68.7314H31.8023L30.6001 69.4538L29.3978 68.7314H25.8782L24.1777 70.5018H27.9309L28.6701 69.7574H26.0463L26.296 69.4758H29.1913L29.8774 69.8881L28.4495 70.746H20.33Z" fill="#D91C16"/>
<path d="M32.7261 85.6461H40.7875V83.305H43.0121V81.1758H45.279V75.2965H43.0121V73.1779H40.7875V70.8368H32.7261L29.3786 68.8135H25.9146L24.3786 70.413H27.8955L28.4676 69.841H25.8511L26.2536 69.3855H29.2197L33.0121 71.6737H39.94V74.0148H42.1752V76.144H44.4422V80.3389H42.1752V82.4682H39.94V84.8093H33.0121L29.2197 87.0868H26.2536L25.8511 86.6419H28.4676L27.8955 86.0698H24.3786L25.9146 87.6694H29.3786L32.7261 85.6461ZM28.1816 84.8093H21.2536V82.4682H19.029V80.3389H16.7621V76.144H19.029V74.0148H21.2536V71.6737H28.1816L31.9846 69.3855H34.9401L35.3426 69.841H32.7367L33.3087 70.4131H36.8257L35.2896 68.8135H31.8256L28.4782 70.8368H20.4168V73.1779H18.1816V75.2965H15.9146V81.1758H18.1816V83.305H20.4168V85.6461H28.4782L31.8256 87.6694H35.2896L36.8257 86.0698H33.3087L32.7367 86.6419H35.3426L34.9401 87.0868H31.9846L28.1816 84.8093Z" fill="#FDD406"/>
<path d="M39.2693 81.7908V84.1341H32.8292L30.6004 85.4733L28.3715 84.1341H21.9315V81.7908H19.6983V79.6652H17.4352V76.8161H19.6983V74.6905H21.9315V72.3473H28.3596H28.3715L30.6004 71.0081L32.8292 72.3473H39.2693V74.6905H41.5024V76.8161H43.7655V79.6652H41.5024V81.7908H39.2693Z" fill="#1E9A1C"/>
<path d="M22.7744 80.9701V83.2381H26.3144L22.7744 80.8901V80.9701Z" fill="black"/>
<path d="M22.7744 75.5118V73.2437H26.3144L22.7744 75.5916V75.5118Z" fill="black"/>
<path d="M38.4257 80.9701V83.2381H34.8857L38.4257 80.8901V80.9701Z" fill="black"/>
<path d="M38.4257 75.5118V73.2437H34.8857L38.4257 75.5916V75.5118Z" fill="black"/>
<path d="M22.8604 81.0498L26.0303 83.1523H22.8604V81.0498Z" fill="#D91C16"/>
<path d="M22.8604 75.4321C22.9836 75.3503 25.8143 73.4728 26.0303 73.3296H22.8604V75.4321Z" fill="#D91C16"/>
<path d="M38.3408 81.0498C38.2175 81.1316 35.3868 83.009 35.1709 83.1523H38.3408V81.0498Z" fill="#D91C16"/>
<path d="M38.3408 75.4321C38.2175 75.3504 35.3868 73.4729 35.1709 73.3296H38.3408V75.4321Z" fill="#D91C16"/>
<path d="M27.2899 77.6189V76.4606H26.8948L24.9996 75.2756L24.9769 75.2899L23.1044 76.4606H22.7094V77.6189H21.8184V78.8628H22.7094V80.0209H23.1044L24.9996 81.2059L26.8948 80.0209H27.2899V78.8628H28.6462V77.6189H27.2899Z" fill="black"/>
<path d="M25 75.377L26.7336 76.4608H23.2666L25 75.377ZM26.7334 80.0211L25 81.1049L23.2667 80.0211H26.7334Z" fill="#D91C16"/>
<path d="M26.3132 77.7046V78.7771H24.1514V77.7046H26.3132Z" fill="#D91C16"/>
<path d="M27.2052 78.8625V79.9351H25.0434V78.8625H27.2052Z" fill="#FDD406"/>
<path d="M24.9581 78.8628V79.9354H22.7963V78.8628H24.9581Z" fill="#FDD406"/>
<path d="M28.5616 77.7046V78.7771H26.3998V77.7046H28.5616Z" fill="#FDD406"/>
<path d="M24.0665 77.7046V78.7771H21.9047V77.7046H24.0665Z" fill="#FDD406"/>
<path d="M27.2052 76.5464V77.6188H25.0434V76.5464H27.2052Z" fill="#FDD406"/>
<path d="M24.9581 76.5464V77.6188H22.7963V76.5464H24.9581Z" fill="#FDD406"/>
<path d="M23.4714 77.9429V78.5388H22.5004V77.9429H23.4714Z" fill="black"/>
<path d="M24.363 76.7847V77.3806H23.392V76.7847H24.363Z" fill="black"/>
<path d="M26.6101 76.7847V77.3806H25.6391V76.7847H26.6101Z" fill="black"/>
<path d="M25.7185 77.9429V78.5388H24.7475V77.9429H25.7185Z" fill="black"/>
<path d="M27.9656 77.9429V78.5388H26.9945V77.9429H27.9656Z" fill="black"/>
<path d="M26.6101 79.1011V79.697H25.6391V79.1011H26.6101Z" fill="black"/>
<path d="M24.363 79.1011V79.697H23.392V79.1011H24.363Z" fill="black"/>
<path d="M23.3794 78.0342H22.5912V78.4472H23.3794V78.0342Z" fill="white"/>
<path d="M24.271 76.876H23.4828V77.289H24.271V76.876Z" fill="white"/>
<path d="M26.518 76.876H25.7299V77.289H26.518V76.876Z" fill="white"/>
<path d="M25.6264 78.0342H24.8383V78.4472H25.6264V78.0342Z" fill="white"/>
<path d="M27.8745 78.0342H27.0863V78.4472H27.8745V78.0342Z" fill="white"/>
<path d="M26.518 79.1924H25.7299V79.6054H26.518V79.1924Z" fill="white"/>
<path d="M24.271 79.1924H23.4828V79.6054H24.271V79.1924Z" fill="white"/>
<path d="M33.9113 77.6189V76.4606H34.3063L36.2016 75.2756L36.2243 75.2899L38.0968 76.4606H38.4918V77.6189H39.3828V78.8628H38.4918V80.0209H38.0968L36.2016 81.2059L34.3063 80.0209H33.9113V78.8628H32.5549V77.6189H33.9113Z" fill="black"/>
<path d="M36.2012 75.377L34.4675 76.4608H37.9346L36.2012 75.377ZM34.4678 80.0211L36.2012 81.1049L37.9344 80.0211H34.4678Z" fill="#D91C16"/>
<path d="M34.888 77.7046V78.7771H37.0498V77.7046H34.888Z" fill="#D91C16"/>
<path d="M33.9966 78.8625V79.9351H36.1584V78.8625H33.9966Z" fill="#FDD406"/>
<path d="M36.2447 78.8625V79.9351H38.4065V78.8625H36.2447Z" fill="#FDD406"/>
<path d="M32.6402 77.7046V78.7771H34.802V77.7046H32.6402Z" fill="#FDD406"/>
<path d="M37.1353 77.7046V78.7771H39.2971V77.7046H37.1353Z" fill="#FDD406"/>
<path d="M33.9966 76.5464V77.6188H36.1584V76.5464H33.9966Z" fill="#FDD406"/>
<path d="M36.2447 76.5464V77.6188H38.4065V76.5464H36.2447Z" fill="#FDD406"/>
<path d="M37.7305 77.9429V78.5388H38.7016V77.9429H37.7305Z" fill="black"/>
<path d="M36.8399 76.7847V77.3806H37.8109V76.7847H36.8399Z" fill="black"/>
<path d="M34.5919 76.7847V77.3806H35.5629V76.7847H34.5919Z" fill="black"/>
<path d="M35.4835 77.9429V78.5388H36.4545V77.9429H35.4835Z" fill="black"/>
<path d="M33.2364 77.9429V78.5388H34.2074V77.9429H33.2364Z" fill="black"/>
<path d="M34.5919 79.1011V79.697H35.5629V79.1011H34.5919Z" fill="black"/>
<path d="M36.8399 79.1011V79.697H37.8109V79.1011H36.8399Z" fill="black"/>
<path d="M37.8226 78.0342H38.6107V78.4472H37.8226V78.0342Z" fill="white"/>
<path d="M36.932 76.876H37.7201V77.289H36.932V76.876Z" fill="white"/>
<path d="M34.6839 76.876H35.4721V77.289H34.6839V76.876Z" fill="white"/>
<path d="M35.5755 78.0342H36.3637V78.4472H35.5755V78.0342Z" fill="white"/>
<path d="M33.3275 78.0342H34.1156V78.4472H33.3275V78.0342Z" fill="white"/>
<path d="M34.6839 79.1924H35.4721V79.6054H34.6839V79.1924Z" fill="white"/>
<path d="M36.932 79.1924H37.7201V79.6054H36.932V79.1924Z" fill="white"/>
<path d="M32.8907 75.6841V76.8422H32.4957L30.6004 78.0272L30.5777 78.013L28.7052 76.8422H28.3102V75.6841H27.1865V74.4402H28.3102V73.282H28.7052L30.6004 72.0969L32.4957 73.282H32.8907V74.4402H34.0144V75.6841H32.8907Z" fill="black"/>
<path d="M30.6006 77.9261L32.3341 76.8421H28.8672L30.6006 77.9261ZM32.334 73.282L30.6006 72.198L28.8673 73.282H32.334Z" fill="#FDD406"/>
<path d="M32.8057 74.4401V73.3677H30.644V74.4401H32.8057Z" fill="#D91C16"/>
<path d="M30.5587 74.4401V73.3677H28.3969V74.4401H30.5587Z" fill="#D91C16"/>
<path d="M33.9298 75.5984V74.5259H31.768V75.5984H33.9298Z" fill="#D91C16"/>
<path d="M31.6818 75.5984V74.5259H29.52V75.5984H31.6818Z" fill="#D91C16"/>
<path d="M29.4345 75.5984V74.5259H27.2729V75.5984H29.4345Z" fill="#D91C16"/>
<path d="M32.8057 76.7566V75.6841H30.644V76.7566H32.8057Z" fill="#D91C16"/>
<path d="M30.5587 76.7566V75.6841H28.3969V76.7566H30.5587Z" fill="#D91C16"/>
<path d="M29.9626 73.606V74.2019H28.9916V73.606H29.9626Z" fill="black"/>
<path d="M32.2097 73.606V74.2019H31.2387V73.606H32.2097Z" fill="black"/>
<path d="M28.8386 74.7642V75.3601H27.8676V74.7642H28.8386Z" fill="black"/>
<path d="M31.0867 74.7642V75.3601H30.1156V74.7642H31.0867Z" fill="black"/>
<path d="M33.3337 74.7642V75.3601H32.3627V74.7642H33.3337Z" fill="black"/>
<path d="M29.9626 75.9224V76.5183H28.9916V75.9224H29.9626Z" fill="black"/>
<path d="M32.2097 75.9224V76.5183H31.2387V75.9224H32.2097Z" fill="black"/>
<path d="M29.8716 73.6973H29.0834V74.1103H29.8716V73.6973Z" fill="white"/>
<path d="M32.1186 73.6973H31.3305V74.1103H32.1186V73.6973Z" fill="white"/>
<path d="M28.7475 74.8555H27.9594V75.2685H28.7475V74.8555Z" fill="white"/>
<path d="M30.9956 74.8555H30.2074V75.2685H30.9956V74.8555Z" fill="white"/>
<path d="M33.2427 74.8555H32.4545V75.2685H33.2427V74.8555Z" fill="white"/>
<path d="M29.8716 76.0137H29.0834V76.4267H29.8716V76.0137Z" fill="white"/>
<path d="M32.1186 76.0137H31.3305V76.4267H32.1186V76.0137Z" fill="white"/>
<path d="M32.8907 82.0417V83.1999H32.4957L30.6004 84.3849L30.5777 84.3707L28.7052 83.1999H28.3102V82.0417H27.1865V80.7978H28.3102V79.6397H28.7052L30.6004 78.4546L32.4957 79.6397H32.8907V80.7978H34.0144V82.0417H32.8907Z" fill="black"/>
<path d="M30.6006 84.2837L32.3341 83.1998H28.8672L30.6006 84.2837ZM32.334 79.6396L30.6006 78.5557L28.8673 79.6396H32.334Z" fill="#FDD406"/>
<path d="M32.8057 80.7978V79.7253H30.644V80.7978H32.8057Z" fill="#D91C16"/>
<path d="M30.5587 80.7978V79.7253H28.3969V80.7978H30.5587Z" fill="#D91C16"/>
<path d="M33.9298 81.9559V80.8833H31.768V81.9559H33.9298Z" fill="#D91C16"/>
<path d="M31.6818 81.9559V80.8833H29.52V81.9559H31.6818Z" fill="#D91C16"/>
<path d="M29.4345 81.9559V80.8833H27.2729V81.9559H29.4345Z" fill="#D91C16"/>
<path d="M32.8057 83.1141V82.0415H30.644V83.1141H32.8057Z" fill="#D91C16"/>
<path d="M30.5587 83.1141V82.0415H28.3969V83.1141H30.5587Z" fill="#D91C16"/>
<path d="M29.9626 79.9634V80.5593H28.9916V79.9634H29.9626Z" fill="black"/>
<path d="M32.2097 79.9634V80.5593H31.2387V79.9634H32.2097Z" fill="black"/>
<path d="M28.8386 81.1216V81.7175H27.8676V81.1216H28.8386Z" fill="black"/>
<path d="M31.0867 81.1216V81.7175H30.1156V81.1216H31.0867Z" fill="black"/>
<path d="M33.3337 81.1216V81.7175H32.3627V81.1216H33.3337Z" fill="black"/>
<path d="M29.9626 82.2798V82.8757H28.9916V82.2798H29.9626Z" fill="black"/>
<path d="M32.2097 82.2798V82.8757H31.2387V82.2798H32.2097Z" fill="black"/>
<path d="M29.8716 80.0549H29.0834V80.468H29.8716V80.0549Z" fill="white"/>
<path d="M32.1186 80.0549H31.3305V80.468H32.1186V80.0549Z" fill="white"/>
<path d="M28.7475 81.2131H27.9594V81.6262H28.7475V81.2131Z" fill="white"/>
<path d="M30.9956 81.2131H30.2074V81.6262H30.9956V81.2131Z" fill="white"/>
<path d="M33.2427 81.2131H32.4545V81.6262H33.2427V81.2131Z" fill="white"/>
<path d="M29.8716 82.3713H29.0834V82.7844H29.8716V82.3713Z" fill="white"/>
<path d="M32.1186 82.3713H31.3305V82.7844H32.1186V82.3713Z" fill="white"/>
<path d="M18.3355 95.8708L26.7459 91.3445H26.7567H34.4537L42.864 95.8708V103.329L34.4537 107.855H26.7459L18.3355 103.329V95.8708Z" fill="black"/>
<path d="M26.7729 91.4302L18.4254 95.9217V103.273L26.7729 107.765H34.4315L42.7793 103.273V95.9217L34.4315 91.4302H26.7729ZM26.921 92.0339H34.2834L42.1861 96.2817V102.924L34.2834 107.172H26.9166L19.0142 102.924V96.2817L26.921 92.0339Z" fill="#1E9A1C"/>
<path d="M30.6425 99.5567V107.085H34.2616L42.0982 102.867V99.6425L30.5568 99.6425V92.1145H26.9379L19.1012 96.3318V99.5567L30.6425 99.5567Z" fill="#FDD406"/>
<path d="M30.5568 99.5567V107.085H26.9379L19.1012 102.867V99.6425L30.6425 99.6425V92.1145H34.2616L42.0982 96.3318V99.5567L30.5568 99.5567Z" fill="white"/>
<path d="M31.3032 106.663V104.488L30.5997 104.934L29.8962 104.488V106.663H27.7079L29.1845 105.58V104.036L26.9325 102.607H25.359V96.5926H26.9325L29.1845 95.1638V93.6193L27.7079 92.5364H27.8388H29.8962V94.7123L30.5997 94.2659L31.3032 94.7123V92.5364H33.4916L32.0149 93.6193V95.1638L34.2668 96.5926H35.8404V102.607H34.2668L32.0149 104.036V105.58L33.4916 106.663H31.3032Z" fill="black"/>
<path d="M31.3917 92.627V94.8727L30.6395 94.3961V95.0317L34.0822 97.2242H35.2158V99.5551H35.7561V96.6737H34.2412L31.932 95.2117V93.5802L33.2348 92.627H31.3917ZM25.4488 99.6398V102.521H26.9531L29.2731 103.993V105.625L27.97 106.578H29.8134V104.332L30.5548 104.809V104.152L27.112 101.981H25.9891V99.6398L25.4488 99.6398Z" fill="#FDD406"/>
<path d="M27.97 92.627L29.2731 93.5802V95.2117L26.9531 96.6737H25.4488V99.5551H25.9891V97.2242H27.112L30.5548 95.0422V94.3961L29.8134 94.8727V92.627L27.97 92.627ZM35.2158 99.6398V101.981H34.0822L30.6395 104.152V104.809L31.3917 104.332V106.578H33.2347L31.932 105.625V103.993L34.2412 102.521H35.7561V99.6398L35.2158 99.6398Z" fill="white"/>
<path d="M26.0709 101.892H27.1384L30.5999 104.088L34.0613 101.892H35.129V97.3084H34.0738H34.0613L30.5999 95.1123L27.1384 97.3084H26.0709V101.892Z" fill="#D91C16"/>
<path d="M32.9962 100.689H33.7353V100.339H33.1793V99.7035H34.3675V101.325H33.2284L33.2285 102.431H30.8836V100.841H31.9156V101.477H31.5159V101.795H32.5962V101.187L28.204 98.5107H27.4649V98.8603H28.021V99.4959H26.8326V97.875H27.9718V96.769H28.0146H30.3166V98.3581H29.2846V97.7224H29.6843V97.4047H28.6041V98.0122L32.9962 100.689ZM32.5962 98.0122V97.4047H31.5159V97.7224H31.9156V98.3581H30.8836V96.769H33.2285V97.875H34.3675V99.4959H33.1793V98.8603H33.7354V98.5107H32.9962L28.6041 101.187V101.795H29.6843V101.477H29.2846V100.841H30.3166V102.431H27.9718V101.324H26.8326V99.7035H28.021V100.339H27.4649V100.689H28.204L32.5962 98.0122Z" fill="black"/>
<path d="M32.682 101.139V101.881H31.4302V101.392H31.83V100.927H30.9694V102.345H33.1428V101.239H34.282V99.7896H33.2651V100.254H33.8211V100.775H32.9723L28.5184 98.0606V97.3193H29.7702V97.8084H29.3705V98.2727H30.231V96.855H28.0576V97.9609H26.9185V99.4105H27.9353V98.9462H27.3793V98.4252H28.2281L32.682 101.139ZM32.9723 98.4252H33.8212V98.9462H33.2651V99.4105H34.282V97.9609H33.143V96.855H30.9695V98.2727H31.83V97.8084H31.4303V97.3193H32.682V98.0606L28.2281 100.775H27.3793V100.254H27.9353V99.7895H26.9185V101.239H28.0576V102.345H30.231V100.927H29.3705V101.392H29.7702V101.881H28.5184V101.139L32.9723 98.4252Z" fill="white"/>
<path d="M40.4096 99.9766V102.329H39.4086V101.498H38.3995V102.329H37.3984V99.9766H38.3995V100.807H39.4086V99.9766H40.4096Z" fill="black"/>
<path d="M36.8276 103.1V105.452H35.8265V104.621H34.8174V105.452H33.8164V103.1H34.8174V103.93H35.8265V103.1H36.8276Z" fill="black"/>
<path d="M40.4096 99.2225V96.8701H39.4086V97.7009H38.3995V96.8701H37.3984V99.2225H38.3995V98.3917H39.4086V99.2225H40.4096Z" fill="black"/>
<path d="M20.792 99.9766V102.329H21.793V101.498H22.8021V102.329H23.8032V99.9766H22.8021V100.807H21.793V99.9766H20.792Z" fill="black"/>
<path d="M20.792 99.2225V96.8701H21.793V97.7009H22.8021V96.8701H23.8032V99.2225H22.8021V98.3917H21.793V99.2225H20.792Z" fill="black"/>
<path d="M36.8276 96.0997V93.7473H35.8265V94.5781H34.8174V93.7473H33.8164V96.0997H34.8174V95.2689H35.8265V96.0997H36.8276Z" fill="black"/>
<path d="M24.374 103.1V105.452H25.3751V104.621H26.3841V105.452H27.3852V103.1H26.3841V103.93H25.3751V103.1H24.374Z" fill="black"/>
<path d="M24.374 96.0997V93.7473H25.3751V94.5781H26.3841V93.7473H27.3852V96.0997H26.3841V95.2689H25.3751V96.0997H24.374Z" fill="black"/>
<path d="M37.4248 94.4512V96.2376H40.7442L37.4248 94.4512Z" fill="black"/>
<path d="M23.7765 104.748V102.962H20.457L23.7765 104.748Z" fill="black"/>
<path d="M23.7765 94.4512V96.2376H20.457L23.7765 94.4512Z" fill="black"/>
<path d="M37.4248 104.748V102.962H40.7442L37.4248 104.748Z" fill="black"/>
<path d="M39.4935 101.413V102.243H40.3232V100.062H39.4935V100.893H38.313V100.062H37.4834V102.243H38.313V101.413H39.4935Z" fill="#D91C16"/>
<path d="M35.9115 104.536V105.366H36.741V103.186H35.9115V104.016H34.7309V103.186H33.9014V105.366H34.7309V104.536H35.9115Z" fill="#D91C16"/>
<path d="M39.4935 97.7868V96.9561H40.3232V99.1369H39.4935V98.3061H38.313V99.1369H37.4834V96.9561H38.313V97.7868H39.4935Z" fill="#D91C16"/>
<path d="M21.7065 101.413V102.243H20.877V100.062H21.7065V100.893H22.8871V100.062H23.7166V102.243H22.8871V101.413H21.7065Z" fill="#D91C16"/>
<path d="M21.7065 97.7868V96.9561H20.877V99.1369H21.7065V98.3061H22.8871V99.1369H23.7166V96.9561H22.8871V97.7868H21.7065Z" fill="#D91C16"/>
<path d="M35.9115 94.6639V93.833H36.741V96.014H35.9115V95.1831H34.7309V96.014H33.9014V93.833H34.7309V94.6639H35.9115Z" fill="#D91C16"/>
<path d="M25.2885 104.536V105.366H24.459V103.186H25.2885V104.016H26.4691V103.186H27.2988V105.366H26.4691V104.536H25.2885Z" fill="#D91C16"/>
<path d="M25.2885 94.6639V93.833H24.459V96.014H25.2885V95.1831H26.4691V96.014H27.2988V93.833H26.4691V94.6639H25.2885Z" fill="#D91C16"/>
<path d="M37.5146 94.5972V96.1545H40.4068L37.5146 94.5972ZM20.7986 103.051L23.6905 104.608V103.051H20.7986Z" fill="#FDD406"/>
<path d="M23.6904 94.5972L20.7984 96.1545H23.6904V94.5972ZM37.5144 103.051V104.608L40.4066 103.051H37.5144Z" fill="white"/>
<path d="M44.1796 106.165C44.0198 106.846 43.478 107.361 43.3489 108.067C43.0904 107.33 42.8521 106.713 43.03 105.907C43.1574 105.33 43.6424 104.919 43.6986 104.326C44.2274 104.802 44.3413 105.476 44.1796 106.165ZM44.3137 109.02C43.8651 109.635 43.2416 110.107 42.553 110.421C42.6886 109.883 42.4342 109.477 42.1519 109.049C41.8117 108.535 41.6458 108.029 41.9232 107.436C42.0524 107.744 42.226 108 42.4298 108.264C42.7311 108.675 42.9292 109.04 42.9757 109.568C43.3242 109.309 43.4773 108.924 43.6636 108.551C43.9477 108.016 44.4061 107.569 44.9326 107.277C44.7927 107.877 44.685 108.511 44.3137 109.02ZM41.798 110.853C41.8939 111.195 41.9766 111.533 41.9581 111.89C42.2545 111.571 42.6481 111.331 42.9992 111.073C43.4774 110.687 44.0348 110.414 44.4258 109.921C44.3674 110.646 44.0572 111.237 43.4683 111.678C42.8457 112.144 42.0949 112.395 41.4817 112.884C41.5735 112.225 41.3313 111.697 41.1248 111.091C40.9527 110.512 41.1193 109.924 41.5119 109.483C41.506 109.972 41.6604 110.392 41.798 110.853ZM40.4008 113.08C40.2718 113.58 39.9135 113.987 39.6688 114.433C40.3286 114.228 40.9107 113.87 41.5071 113.534C42.2175 113.147 42.9889 112.901 43.632 112.39C43.3119 113.575 42.5187 114.262 41.3583 114.612C40.5649 114.851 39.8962 114.732 38.9335 115.121C39.0439 114.469 39.2384 113.766 39.5466 113.178C39.7857 112.753 40.0509 112.334 40.1986 111.866C40.4126 112.25 40.5139 112.642 40.4008 113.08ZM37.9731 114.893C37.746 115.282 37.4461 115.61 37.0742 115.868C38.0108 115.928 38.7645 115.334 39.6776 115.308C40.2416 115.292 40.777 115.467 41.3522 115.415C40.6696 115.875 39.955 116.278 39.124 116.385C38.0438 116.525 37.0476 116.253 35.8558 116.359C36.4128 115.966 36.6914 115.44 37.0386 114.875C37.4906 114.168 37.9172 113.665 38.7964 113.551C38.4435 113.948 38.2381 114.439 37.9731 114.893ZM34.6468 116.447C36.2968 116.728 37.878 117.091 39.5631 117.108C37.6768 117.765 35.8995 117.884 34.0287 117.205C33.0177 116.838 32.2425 116.642 31.479 116.696C30.3631 116.777 29.007 117.217 27.5061 118.8L26.9162 118.328C29.0673 116.411 31.8818 115.977 34.6467 116.447L34.6468 116.447Z" fill="#FDD406"/>
<path d="M17.0286 106.165C17.1884 106.846 17.7302 107.361 17.8593 108.067C18.1178 107.33 18.3561 106.713 18.1782 105.907C18.0509 105.33 17.5658 104.919 17.5097 104.326C16.9808 104.802 16.8669 105.476 17.0286 106.165ZM16.8945 109.02C17.3431 109.635 17.9666 110.107 18.6552 110.421C18.5196 109.883 18.774 109.477 19.0563 109.049C19.3965 108.535 19.5624 108.029 19.2851 107.436C19.1558 107.744 18.9822 108 18.7784 108.264C18.4771 108.675 18.279 109.04 18.2325 109.568C17.8841 109.309 17.7309 108.924 17.5446 108.551C17.2605 108.016 16.8021 107.569 16.2756 107.277C16.4155 107.877 16.5232 108.511 16.8945 109.02ZM19.4102 110.853C19.3143 111.195 19.2316 111.533 19.2501 111.89C18.9537 111.571 18.5601 111.331 18.209 111.073C17.7308 110.687 17.1734 110.414 16.7825 109.921C16.8408 110.646 17.151 111.237 17.7399 111.678C18.3625 112.144 19.1133 112.395 19.7265 112.884C19.6347 112.225 19.8769 111.697 20.0834 111.091C20.2555 110.512 20.0889 109.924 19.6963 109.483C19.7022 109.972 19.5478 110.392 19.4102 110.853ZM20.8074 113.08C20.9364 113.58 21.2947 113.987 21.5394 114.433C20.8796 114.228 20.2975 113.87 19.7011 113.534C18.9907 113.147 18.2193 112.901 17.5762 112.39C17.8963 113.575 18.6895 114.262 19.8499 114.612C20.6433 114.851 21.312 114.732 22.2747 115.121C22.1643 114.469 21.9698 113.766 21.6616 113.178C21.4225 112.753 21.1573 112.334 21.0096 111.866C20.7956 112.25 20.6943 112.642 20.8074 113.08ZM23.2351 114.893C23.4622 115.282 23.7621 115.61 24.134 115.868C23.1974 115.928 22.4437 115.334 21.5306 115.308C20.9666 115.292 20.4312 115.467 19.856 115.415C20.5386 115.875 21.2532 116.278 22.0842 116.385C23.1644 116.525 24.1606 116.253 25.3524 116.359C24.7954 115.966 24.5168 115.44 24.1696 114.875C23.7176 114.168 23.291 113.665 22.4118 113.551C22.7647 113.948 22.9701 114.439 23.2351 114.893ZM26.5614 116.447C24.9114 116.728 23.3302 117.091 21.6451 117.108C23.5314 117.765 25.3087 117.884 27.1795 117.205C28.1905 116.838 28.9657 116.642 29.7292 116.696C30.8451 116.777 32.2012 117.217 33.7021 118.8L34.292 118.328C32.1409 116.411 29.3264 115.977 26.5615 116.447L26.5614 116.447Z" fill="#FDD406"/>
</g>
<defs>
<clipPath id="clip0_909_226152">
<rect width="180" height="120" fill="white"/>
</clipPath>
</defs>
</svg>
