<svg width="180" height="120" viewBox="0 0 180 120" fill="none" xmlns="http://www.w3.org/2000/svg">
<g clip-path="url(#clip0_307_45139)">
<path d="M180 0H0V120H180V0Z" fill="#1E9A1C"/>
<path d="M67.9241 16.604L68.5703 14.6153H70.6613L68.9696 13.3862L69.6158 11.3975L67.9241 12.6265L66.2324 11.3975L66.8786 13.3861L65.1868 14.6153H67.2779L67.9241 16.604Z" fill="white"/>
<path d="M91.2124 27.0341C91.2124 20.8787 87.4851 15.5926 82.1651 13.3085C85.5468 16.1913 87.613 20.5467 87.4042 25.3289C87.0446 33.5658 80.0732 39.9539 71.8362 39.5943C69.9802 39.5133 68.2185 39.0955 66.6062 38.4041C69.2124 40.6242 72.5904 41.9651 76.2815 41.9651C84.5262 41.9651 91.2124 35.2789 91.2124 27.0341Z" fill="white"/>
<path d="M68.5703 22.2953L67.9241 24.284L67.2779 22.2953H65.1868L66.8786 21.0662L66.2324 19.0775L67.9241 20.3065L69.6158 19.0775L68.9696 21.0662L70.6613 22.2953H68.5703Z" fill="white"/>
<path d="M76.1577 18.5509L75.5115 20.5396L74.8653 18.5509H72.7742L74.466 17.3217L73.8198 15.3331L75.5115 16.5621L77.2032 15.3331L76.557 17.3218L78.2487 18.5509H76.1577Z" fill="white"/>
<path d="M60.3369 28.0284L60.9831 26.0396H63.0741L61.3824 24.8106L62.0286 22.8218L60.3369 24.0509L58.6452 22.8218L59.2913 24.8105L57.5996 26.0396H59.6907L60.3369 28.0284Z" fill="white"/>
<path d="M68.5703 29.9752L67.9241 31.964L67.2779 29.9752H65.1868L66.8786 28.7461L66.2324 26.7574L67.9241 27.9865L69.6158 26.7574L68.9696 28.7462L70.6613 29.9752H68.5703Z" fill="white"/>
<path d="M46.8004 0H14.4004V120H46.8004V0Z" fill="#D91C16"/>
<path d="M22.324 0H21.2011L19.2097 1.82194L18.4152 1.08041H19.1461L19.0084 0.24355H17.7372L15.2266 2.59527V3.49569H16.3389V2.74358L16.911 3.26264L15.608 4.47027L16.2224 5.05288L14.4004 6.7478V7.92366L17.483 5.05288L16.8686 4.47027L18.161 3.26264L17.0487 2.22451L17.7902 1.54654L19.2097 2.8601L22.324 0Z" fill="black"/>
<path d="M19.556 0H20.266L19.6546 0.571948L19.556 0Z" fill="black"/>
<path d="M14.4004 0H16.4977L15.8834 0.624923H15.1207V1.48296L14.4004 2.21389V0Z" fill="black"/>
<path d="M19.6516 0H20.1389L19.7184 0.391831L19.6516 0Z" fill="#FDD406"/>
<path d="M14.4007 0H16.3815L15.8519 0.529548H15.0363V1.45114L14.4007 2.08674V0Z" fill="#FDD406"/>
<path d="M22.1862 0L19.2097 2.7435L17.7902 1.41934L16.9215 2.22443L18.0338 3.26256L16.7415 4.47019L17.3559 5.0528L14.4004 7.79646V6.86426L16.3495 5.0528L15.7351 4.47019L17.0381 3.26256L16.2542 2.53163V3.41087H15.3114V2.62697L17.7796 0.328251H18.9237L19.0405 0.995624H18.193L19.21 1.93842L21.3285 0H22.1862Z" fill="#FDD406"/>
<path d="M14.4004 13.9175V15.0933L16.2224 16.7988L15.608 17.3709L16.911 18.5785L16.3389 19.0976V18.3454H15.2266V19.2459L17.7372 21.5976H19.0084L19.1461 20.7713H18.4152L19.2097 20.0298L21.2012 21.8412L19.2097 23.6632L18.4152 22.9217H19.1461L19.0084 22.0849H17.7372L15.2266 24.4366V25.337H16.3389V24.5849L16.911 25.104L15.608 26.3116L16.2224 26.8942L14.4004 28.5891V29.765L17.483 26.8942L16.8686 26.3116L18.161 25.104L17.0487 24.0658L17.7902 23.3879L19.2097 24.7014L22.3241 21.8413L19.2097 18.9811L17.7902 20.3052L17.0487 19.6167L18.161 18.5785L16.8686 17.3709L17.483 16.7989L14.4004 13.9175ZM14.4004 19.6272V24.0552L15.1207 23.3243V22.4662H15.8834L16.4978 21.8412L15.8834 21.2268H15.1207V20.3582L14.4004 19.6272ZM19.6546 21.195L19.5487 21.7989L19.6546 22.4133L20.3114 21.7989L19.6546 21.195Z" fill="black"/>
<path d="M14.4007 14.0446V14.9768L16.3498 16.7988L15.7354 17.3708L17.0384 18.5785L16.2545 19.3094V18.4302H15.3117V19.2141L17.7799 21.5128H18.924L19.0405 20.856H18.193L19.21 19.9026L21.3286 21.8412L19.21 23.7797L18.193 22.8369H19.0405L18.9237 22.1696H17.7796L15.3114 24.4683V25.2522H16.2542V24.3729L17.0381 25.1039L15.7351 26.3115L16.3495 26.8941L14.4004 28.7056V29.6378L17.3559 26.8941L16.7415 26.3115L18.0338 25.1039L16.9215 24.0657L17.7902 23.2607L19.2097 24.5848L22.1864 21.8412L19.2097 19.0975L17.7902 20.4217L16.9215 19.6166L18.0338 18.5785L16.7415 17.3708L17.3559 16.7988L14.4004 14.0446L14.4007 14.0446ZM14.4007 19.7543V23.928L15.0363 23.2925V22.3709H15.8519L16.3816 21.8412L15.8519 21.3115H15.0363V20.3899L14.4007 19.7543ZM19.7184 21.3645L19.6443 21.7988L19.7184 22.2331L20.1845 21.7988L19.7184 21.3645Z" fill="#FDD406"/>
<path d="M14.4004 36.4772V37.653L16.2224 39.3585L15.608 39.9306L16.911 41.1382L16.3389 41.6573V40.9051H15.2266V41.8056L17.7372 44.1573H19.0084L19.1461 43.331H18.4152L19.2097 42.5895L21.2012 44.4009L19.2097 46.2229L18.4152 45.4814H19.1461L19.0084 44.6446H17.7372L15.2266 46.9963V47.8967H16.3389V47.1446L16.911 47.6636L15.608 48.8713L16.2224 49.4539L14.4004 51.1488V52.3247L17.483 49.4539L16.8686 48.8713L18.161 47.6636L17.0487 46.6255L17.7902 45.9475L19.2097 47.2611L22.3241 44.4009L19.2097 41.5408L17.7902 42.8649L17.0487 42.1764L18.161 41.1382L16.8686 39.9306L17.483 39.3586L14.4004 36.4772ZM14.4004 42.1869V46.6149L15.1207 45.884V45.0259H15.8834L16.4978 44.4009L15.8834 43.7865H15.1207V42.9179L14.4004 42.1869ZM19.6546 43.7547L19.5487 44.3585L19.6546 44.9729L20.3114 44.3585L19.6546 43.7547Z" fill="black"/>
<path d="M14.4007 36.6043V37.5365L16.3498 39.3585L15.7354 39.9305L17.0384 41.1382L16.2545 41.8691V40.9899H15.3117V41.7737L17.7799 44.0725H18.924L19.0405 43.4157H18.193L19.21 42.4623L21.3286 44.4009L19.21 46.3394L18.193 45.3966H19.0405L18.9237 44.7293H17.7796L15.3114 47.028V47.8119H16.2542V46.9326L17.0381 47.6636L15.7351 48.8712L16.3495 49.4538L14.4004 51.2653V52.1975L17.3559 49.4538L16.7415 48.8712L18.0338 47.6636L16.9215 46.6254L17.7902 45.8203L19.2097 47.1445L22.1864 44.4009L19.2097 41.6572L17.7902 42.9814L16.9215 42.1763L18.0338 41.1381L16.7415 39.9305L17.3559 39.3585L14.4004 36.6042L14.4007 36.6043ZM14.4007 42.314V46.4877L15.0363 45.8521V44.9305H15.8519L16.3816 44.4009L15.8519 43.8712H15.0363V42.9496L14.4007 42.314ZM19.7184 43.9242L19.6443 44.3585L19.7184 44.7928L20.1845 44.3585L19.7184 43.9242Z" fill="#FDD406"/>
<path d="M14.4004 59.0366V60.2125L16.2224 61.918L15.608 62.49L16.911 63.6976L16.3389 64.2167V63.4646H15.2266V64.365L17.7372 66.7167H19.0084L19.1461 65.8904H18.4152L19.2097 65.1489L21.2012 66.9604L19.2097 68.7824L18.4152 68.0409H19.1461L19.0084 67.204H17.7372L15.2266 69.5557V70.4561H16.3389V69.704L16.911 70.2231L15.608 71.4307L16.2224 72.0133L14.4004 73.7082V74.8841L17.483 72.0133L16.8686 71.4307L18.161 70.2231L17.0487 69.185L17.7902 68.507L19.2097 69.8206L22.3241 66.9604L19.2097 64.1002L17.7902 65.4244L17.0487 64.7358L18.161 63.6977L16.8686 62.4901L17.483 61.918L14.4004 59.0366ZM14.4004 64.7464V69.1743L15.1207 68.4434V67.5854H15.8834L16.4978 66.9604L15.8834 66.346H15.1207V65.4773L14.4004 64.7464ZM19.6546 66.3142L19.5487 66.918L19.6546 67.5324L20.3114 66.918L19.6546 66.3142Z" fill="black"/>
<path d="M14.4007 59.1637V60.0959L16.3498 61.9179L15.7354 62.49L17.0384 63.6976L16.2545 64.4285V63.5493H15.3117V64.3332L17.7799 66.6319H18.924L19.0405 65.9751H18.193L19.21 65.0217L21.3286 66.9603L19.21 68.8989L18.193 67.9561H19.0405L18.9237 67.2887H17.7796L15.3114 69.5874V70.3713H16.2542V69.4921L17.0381 70.223L15.7351 71.4306L16.3495 72.0133L14.4004 73.8247V74.7569L17.3559 72.0133L16.7415 71.4306L18.0338 70.223L16.9215 69.1849L17.7902 68.3798L19.2097 69.7039L22.1864 66.9603L19.2097 64.2167L17.7902 65.5408L16.9215 64.7357L18.0338 63.6976L16.7415 62.49L17.3559 61.9179L14.4004 59.1637L14.4007 59.1637ZM14.4007 64.8735V69.0472L15.0363 68.4116V67.49H15.8519L16.3816 66.9603L15.8519 66.4307H15.0363V65.5091L14.4007 64.8735ZM19.7184 66.4836L19.6443 66.918L19.7184 67.3523L20.1845 66.918L19.7184 66.4836Z" fill="#FDD406"/>
<path d="M14.4004 81.5959V82.7718L16.2224 84.4773L15.608 85.0493L16.911 86.257L16.3389 86.776V86.0239H15.2266V86.9243L17.7372 89.276H19.0084L19.1461 88.4498H18.4152L19.2097 87.7082L21.2012 89.5197L19.2097 91.3417L18.4152 90.6002H19.1461L19.0084 89.7633H17.7372L15.2266 92.115V93.0155H16.3389V92.2634L16.911 92.7824L15.608 93.99L16.2224 94.5727L14.4004 96.2676V97.4434L17.483 94.5727L16.8686 93.99L18.161 92.7824L17.0487 91.7443L17.7902 91.0663L19.2097 92.3799L22.3241 89.5197L19.2097 86.6596L17.7902 87.9837L17.0487 87.2951L18.161 86.257L16.8686 85.0494L17.483 84.4774L14.4004 81.5959ZM14.4004 87.3057V91.7337L15.1207 91.0027V90.1447H15.8834L16.4978 89.5197L15.8834 88.9053H15.1207V88.0366L14.4004 87.3057ZM19.6546 88.8735L19.5487 89.4773L19.6546 90.0917L20.3114 89.4773L19.6546 88.8735Z" fill="black"/>
<path d="M14.4007 81.723V82.6552L16.3498 84.4773L15.7354 85.0493L17.0384 86.2569L16.2545 86.9879V86.1086H15.3117V86.8925L17.7799 89.1912H18.924L19.0405 88.5345H18.193L19.21 87.5811L21.3286 89.5196L19.21 91.4582L18.193 90.5154H19.0405L18.9237 89.848H17.7796L15.3114 92.1467V92.9306H16.2542V92.0514L17.0381 92.7823L15.7351 93.99L16.3495 94.5726L14.4004 96.384V97.3162L17.3559 94.5726L16.7415 93.99L18.0338 92.7823L16.9215 91.7442L17.7902 90.9391L19.2097 92.2633L22.1864 89.5196L19.2097 86.776L17.7902 88.1001L16.9215 87.2951L18.0338 86.2569L16.7415 85.0493L17.3559 84.4773L14.4004 81.723L14.4007 81.723ZM14.4007 87.4328V91.6065L15.0363 90.9709V90.0493H15.8519L16.3816 89.5197L15.8519 88.99H15.0363V88.0684L14.4007 87.4328ZM19.7184 89.043L19.6443 89.4773L19.7184 89.9116L20.1845 89.4773L19.7184 89.043Z" fill="#FDD406"/>
<path d="M38.875 0H39.998L41.9894 1.82194L42.7839 1.08041H42.0529L42.1906 0.24355H43.4618L45.9724 2.59527V3.49569H44.8601V2.74358L44.2881 3.26264L45.5911 4.47027L44.9766 5.05288L46.7963 6.74562V7.92148L43.7161 5.05288L44.3305 4.47027L43.0381 3.26264L44.1504 2.22451L43.4088 1.54654L41.9894 2.8601L38.875 0Z" fill="black"/>
<path d="M46.7963 2.21151L46.0783 1.48296V0.624923H45.3156L44.7013 0H46.7963V2.21151Z" fill="black"/>
<path d="M41.6431 0L41.5444 0.571948L40.9331 0H41.6431Z" fill="black"/>
<path d="M41.5483 0H41.061L41.4815 0.391831L41.5483 0Z" fill="#FDD406"/>
<path d="M46.7972 2.08468V0H44.8184L45.348 0.529548H46.1636V1.45114L46.7972 2.08468Z" fill="#FDD406"/>
<path d="M46.7972 6.86208L44.8504 5.0528L45.4648 4.47019L44.1618 3.26256L44.9457 2.53163V3.41087H45.8885V2.62697L43.4203 0.328251H42.2762L42.1594 0.995624H43.0069L41.9899 1.93842L39.8714 0H39.0137L41.9902 2.7435L43.4097 1.41934L44.2784 2.22443L43.1661 3.26256L44.4584 4.47019L43.844 5.0528L46.7972 7.79428V6.86208Z" fill="#FDD406"/>
<path d="M46.8008 13.9175V15.0933L44.9787 16.7988L45.5932 17.3709L44.2902 18.5785L44.8622 19.0976V18.3454H45.9745V19.2459L43.4639 21.5976H42.1928L42.055 20.7713H42.786L41.9915 20.0298L40 21.8412L41.9915 23.6632L42.786 22.9217H42.055L42.1928 22.0849H43.4639L45.9745 24.4366V25.337H44.8622V24.5849L44.2902 25.104L45.5932 26.3116L44.9787 26.8942L46.8008 28.5891V29.765L43.7182 26.8942L44.3326 26.3116L43.0402 25.104L44.1525 24.0658L43.411 23.3879L41.9915 24.7014L38.8771 21.8413L41.9915 18.9811L43.411 20.3052L44.1525 19.6167L43.0402 18.5785L44.3326 17.3709L43.7182 16.7989L46.8008 13.9175ZM46.8008 19.6272V24.0552L46.0804 23.3243V22.4662H45.3177L44.7034 21.8412L45.3177 21.2268H46.0804V20.3582L46.8008 19.6272ZM41.5465 21.195L41.6525 21.7989L41.5465 22.4133L40.8898 21.7989L41.5465 21.195Z" fill="black"/>
<path d="M46.8005 14.0446V14.9768L44.8513 16.7988L45.4658 17.3708L44.1628 18.5785L44.9467 19.3094V18.4302H45.8895V19.2141L43.4213 21.5128H42.2772L42.1607 20.856H43.0081L41.9912 19.9026L39.8726 21.8412L41.9912 23.7797L43.0081 22.8369H42.1607L42.2775 22.1696H43.4216L45.8898 24.4683V25.2522H44.947V24.3729L44.1631 25.1039L45.4661 26.3115L44.8516 26.8941L46.8008 28.7056V29.6378L43.8453 26.8941L44.4597 26.3115L43.1673 25.1039L44.2796 24.0657L43.411 23.2607L41.9915 24.5848L39.0148 21.8412L41.9915 19.0975L43.411 20.4217L44.2796 19.6166L43.1673 18.5785L44.4597 17.3708L43.8453 16.7988L46.8008 14.0446L46.8005 14.0446ZM46.8005 19.7543V23.928L46.1649 23.2925V22.3709H45.3492L44.8196 21.8412L45.3492 21.3115H46.1649V20.3899L46.8005 19.7543ZM41.4827 21.3645L41.5569 21.7988L41.4827 22.2331L41.0166 21.7988L41.4827 21.3645Z" fill="#FDD406"/>
<path d="M46.8008 36.4772V37.653L44.9787 39.3585L45.5932 39.9306L44.2902 41.1382L44.8622 41.6573V40.9051H45.9745V41.8056L43.4639 44.1573H42.1928L42.055 43.331H42.786L41.9915 42.5895L40 44.4009L41.9915 46.2229L42.786 45.4814H42.055L42.1928 44.6446H43.4639L45.9745 46.9963V47.8967H44.8622V47.1446L44.2902 47.6636L45.5932 48.8713L44.9787 49.4539L46.8008 51.1488V52.3247L43.7182 49.4539L44.3326 48.8713L43.0402 47.6636L44.1525 46.6255L43.411 45.9475L41.9915 47.2611L38.8771 44.4009L41.9915 41.5408L43.411 42.8649L44.1525 42.1764L43.0402 41.1382L44.3326 39.9306L43.7182 39.3586L46.8008 36.4772ZM46.8008 42.1869V46.6149L46.0804 45.884V45.0259H45.3177L44.7034 44.4009L45.3177 43.7865H46.0804V42.9179L46.8008 42.1869ZM41.5465 43.7547L41.6525 44.3585L41.5465 44.9729L40.8898 44.3585L41.5465 43.7547Z" fill="black"/>
<path d="M46.8005 36.6043V37.5365L44.8513 39.3585L45.4658 39.9305L44.1628 41.1382L44.9467 41.8691V40.9899H45.8895V41.7737L43.4213 44.0725H42.2772L42.1607 43.4157H43.0081L41.9912 42.4623L39.8726 44.4009L41.9912 46.3394L43.0081 45.3966H42.1607L42.2775 44.7293H43.4216L45.8898 47.028V47.8119H44.947V46.9326L44.1631 47.6636L45.4661 48.8712L44.8516 49.4538L46.8008 51.2653V52.1975L43.8453 49.4538L44.4597 48.8712L43.1673 47.6636L44.2796 46.6254L43.411 45.8203L41.9915 47.1445L39.0148 44.4009L41.9915 41.6572L43.411 42.9814L44.2796 42.1763L43.1673 41.1381L44.4597 39.9305L43.8453 39.3585L46.8008 36.6042L46.8005 36.6043ZM46.8005 42.314V46.4877L46.1649 45.8521V44.9305H45.3492L44.8196 44.4009L45.3492 43.8712H46.1649V42.9496L46.8005 42.314ZM41.4827 43.9242L41.5569 44.3585L41.4827 44.7928L41.0166 44.3585L41.4827 43.9242Z" fill="#FDD406"/>
<path d="M46.8008 59.0365V60.2124L44.9787 61.9179L45.5932 62.4899L44.2902 63.6975L44.8622 64.2166V63.4645H45.9745V64.3649L43.4639 66.7166H42.1928L42.055 65.8903H42.786L41.9915 65.1488L40 66.9602L41.9915 68.7823L42.786 68.0407H42.055L42.1928 67.2039H43.4639L45.9745 69.5556V70.456H44.8622V69.7039L44.2902 70.223L45.5932 71.4306L44.9787 72.0132L46.8008 73.7081V74.884L43.7182 72.0132L44.3326 71.4306L43.0402 70.223L44.1525 69.1848L43.411 68.5069L41.9915 69.8204L38.8771 66.9603L41.9915 64.1001L43.411 65.4243L44.1525 64.7357L43.0402 63.6976L44.3326 62.4899L43.7182 61.9179L46.8008 59.0365ZM46.8008 64.7463V69.1742L46.0804 68.4433V67.5852H45.3177L44.7034 66.9602L45.3177 66.3458H46.0804V65.4772L46.8008 64.7463ZM41.5465 66.3141L41.6525 66.9179L41.5465 67.5323L40.8898 66.9179L41.5465 66.3141Z" fill="black"/>
<path d="M46.8005 59.1636V60.0958L44.8513 61.9178L45.4658 62.4899L44.1628 63.6975L44.9467 64.4284V63.5492H45.8895V64.3331L43.4213 66.6318H42.2772L42.1607 65.975H43.0081L41.9912 65.0216L39.8726 66.9602L41.9912 68.8987L43.0081 67.956H42.1607L42.2775 67.2886H43.4216L45.8898 69.5873V70.3712H44.947V69.492L44.1631 70.2229L45.4661 71.4305L44.8516 72.0131L46.8008 73.8246V74.7568L43.8453 72.0131L44.4597 71.4305L43.1673 70.2229L44.2796 69.1848L43.411 68.3797L41.9915 69.7038L39.0148 66.9602L41.9915 64.2165L43.411 65.5407L44.2796 64.7356L43.1673 63.6975L44.4597 62.4898L43.8453 61.9178L46.8008 59.1636L46.8005 59.1636ZM46.8005 64.8733V69.0471L46.1649 68.4115V67.4899H45.3492L44.8196 66.9602L45.3492 66.4305H46.1649V65.5089L46.8005 64.8733ZM41.4827 66.4835L41.5569 66.9178L41.4827 67.3522L41.0166 66.9178L41.4827 66.4835Z" fill="#FDD406"/>
<path d="M46.8008 81.5958V82.7717L44.9787 84.4772L45.5932 85.0492L44.2902 86.2568L44.8622 86.7759V86.0238H45.9745V86.9242L43.4639 89.2759H42.1928L42.055 88.4496H42.786L41.9915 87.7081L40 89.5196L41.9915 91.3416L42.786 90.6001H42.055L42.1928 89.7632H43.4639L45.9745 92.1149V93.0153H44.8622V92.2632L44.2902 92.7823L45.5932 93.9899L44.9787 94.5725L46.8008 96.2675V97.4433L43.7182 94.5725L44.3326 93.9899L43.0402 92.7823L44.1525 91.7442L43.411 91.0662L41.9915 92.3798L38.8771 89.5196L41.9915 86.6594L43.411 87.9836L44.1525 87.295L43.0402 86.2569L44.3326 85.0493L43.7182 84.4772L46.8008 81.5958ZM46.8008 87.3056V91.7335L46.0804 91.0026V90.1446H45.3177L44.7034 89.5196L45.3177 88.9052H46.0804V88.0365L46.8008 87.3056ZM41.5465 88.8734L41.6525 89.4772L41.5465 90.0916L40.8898 89.4772L41.5465 88.8734Z" fill="black"/>
<path d="M46.8005 81.7229V82.6551L44.8513 84.4771L45.4658 85.0492L44.1628 86.2568L44.9467 86.9877V86.1085H45.8895V86.8924L43.4213 89.1911H42.2772L42.1607 88.5343H43.0081L41.9912 87.581L39.8726 89.5195L41.9912 91.4581L43.0081 90.5153H42.1607L42.2775 89.8479H43.4216L45.8898 92.1466V92.9305H44.947V92.0513L44.1631 92.7822L45.4661 93.9898L44.8516 94.5725L46.8008 96.3839V97.3161L43.8453 94.5725L44.4597 93.9898L43.1673 92.7822L44.2796 91.7441L43.411 90.939L41.9915 92.2632L39.0148 89.5195L41.9915 86.7759L43.411 88.1L44.2796 87.2949L43.1673 86.2568L44.4597 85.0492L43.8453 84.4771L46.8008 81.7229L46.8005 81.7229ZM46.8005 87.4327V91.6064L46.1649 90.9708V90.0492H45.3492L44.8196 89.5195L45.3492 88.9899H46.1649V88.0683L46.8005 87.4327ZM41.4827 89.0428L41.5569 89.4772L41.4827 89.9115L41.0166 89.4772L41.4827 89.0428Z" fill="#FDD406"/>
<path d="M18.4556 14.0678L15.8594 12.4758V8.64874L18.4556 7.0567V5.0317L20.909 3.55426H22.8691L26.5985 1.45654H34.6052L38.3348 3.55426H40.2949L42.7483 5.0317V7.0567L45.3445 8.64874L45.3443 12.4758L42.7483 14.0678V16.0928L40.2949 17.5703H38.3348L34.6052 19.668H26.5985L22.8691 17.5703H20.909L18.4556 16.0928V14.0678Z" fill="black"/>
<path d="M26.6166 1.54651L22.8878 3.64397H20.9386L18.5446 5.08464V7.10794L15.9492 8.69693V12.4257L18.5446 14.0147V16.0486L20.928 17.4893H22.8878L26.6166 19.5868H34.5827L38.3115 17.4893H40.2712L42.6653 16.0486V14.0147L45.2607 12.4257V8.69693L42.6653 7.10794V5.08464L40.2712 3.64397H38.3115L34.5827 1.54651H26.6166ZM26.8391 2.31981H34.3708L38.0996 4.41727H40.0488L41.8602 5.50838V7.53168L44.4661 9.12067V12.002L41.8602 13.591V15.6143L40.0488 16.7054H38.0996L34.3708 18.8029H26.8391L23.1103 16.7054H21.1611L19.3391 15.6143V13.591L16.7437 12.002V9.12067L19.3391 7.53168V5.50838L21.1611 4.41727H23.1103L26.8391 2.31981Z" fill="#1E9A1C"/>
<path d="M30.5584 10.605V2.40332H26.8572L23.1275 4.50104H21.1832L19.4242 5.56028V7.58036L16.8281 9.17228V10.5194L30.6443 10.5193V18.7212H34.3454L38.075 16.6234H40.0195L41.7783 15.5642V13.5442L44.3745 11.9522V10.6051L30.5584 10.605Z" fill="#FDD406"/>
<path d="M16.8282 10.6051L16.8281 11.9522L19.4243 13.5442V15.5642L21.1832 16.6234H23.1276L26.8572 18.7212H30.5585V10.5193L44.3747 10.5194V9.17228L41.7785 7.58036V5.56028L40.0196 4.50104H38.0751L34.3455 2.40332H30.6444V10.605L16.8282 10.6051Z" fill="white"/>
<path d="M22.4932 5.25608L21.8541 4.6604L21.2209 5.05088L21.8611 5.64776L21.0391 6.15704H22.8328L24.3787 7.61516L24.8732 7.09292L23.3702 5.67512V4.71272L22.4932 5.25608Z" fill="black"/>
<path d="M25.5167 4.99436L24.8775 4.39868L24.2443 4.78916L24.8845 5.38604L24.0625 5.89532H25.8563L27.4021 7.35345L27.8966 6.83121L26.3936 5.4134V4.451L25.5167 4.99436Z" fill="black"/>
<path d="M22.2704 6.96714L21.6313 6.37146L20.9982 6.76194L21.6383 7.35882L20.8164 7.8681H22.6102L24.1559 9.32622L24.6504 8.80398L23.1474 7.38618V6.42378L22.2704 6.96714Z" fill="black"/>
<path d="M30.6023 2.31775H28.9837L28.1367 3.13399H26.4857L25.2656 3.76723L25.5501 4.46047L26.6382 3.88903H27.1147L28.7829 5.81839L30.6024 4.71043L30.6023 2.31775Z" fill="black"/>
<path d="M21.8435 4.76758L22.4178 5.3029L21.9366 5.60098L21.3614 5.06482L21.8435 4.76758ZM23.2846 4.86658V5.71198L24.752 7.09629L24.3752 7.49421L22.867 6.07138H21.3398L23.2846 4.86658Z" fill="#D91C16"/>
<path d="M24.8669 4.50586L25.4412 5.04118L24.96 5.33926L24.385 4.8031L24.8669 4.50586ZM26.308 4.60486V5.45026L27.7755 6.83457L27.3987 7.2325L25.8904 5.80978H24.3633L26.308 4.60486Z" fill="#D91C16"/>
<path d="M21.6209 6.47864L22.1951 7.01396L21.7139 7.31204L21.1389 6.77588L21.6209 6.47864ZM23.0619 6.57764V7.42304L24.5294 8.80735L24.1527 9.20527L22.6444 7.78256H21.1172L23.0619 6.57764Z" fill="#D91C16"/>
<path d="M30.56 2.40332H29.0188L28.1718 3.21956H26.5071L25.375 3.80708L25.594 4.34084L26.6174 3.80348H27.1544L28.8008 5.70764L30.56 4.6364L30.56 2.40332Z" fill="#D91C16"/>
<path d="M22.4932 15.8683L21.8541 16.464L21.2209 16.0735L21.8611 15.4766L21.0391 14.9673H22.8328L24.3787 13.5092L24.8732 14.0315L23.3702 15.4493V16.4117L22.4932 15.8683Z" fill="black"/>
<path d="M25.5167 16.13L24.8775 16.7257L24.2443 16.3352L24.8845 15.7383L24.0625 15.2291H25.8563L27.4021 13.7709L27.8966 14.2932L26.3936 15.711V16.6734L25.5167 16.13Z" fill="black"/>
<path d="M22.2704 14.1572L21.6313 14.7529L20.9982 14.3625L21.6383 13.7656L20.8164 13.2563H22.6102L24.1559 11.7982L24.6504 12.3204L23.1474 13.7382V14.7006L22.2704 14.1572Z" fill="black"/>
<path d="M30.6023 18.8066H28.9837L28.1367 17.9904H26.4857L25.2656 17.3572L25.5501 16.6639L26.6382 17.2354H27.1147L28.7829 15.306L30.6024 16.414L30.6023 18.8066Z" fill="black"/>
<path d="M21.8435 16.3568L22.4178 15.8215L21.9366 15.5234L21.3614 16.0596L21.8435 16.3568ZM23.2846 16.2578V15.4124L24.752 14.0281L24.3752 13.6302L22.867 15.053H21.3398L23.2846 16.2578Z" fill="#D91C16"/>
<path d="M24.8669 16.6185L25.4412 16.0832L24.96 15.7851L24.385 16.3213L24.8669 16.6185ZM26.308 16.5195V15.6741L27.7755 14.2898L27.3987 13.8919L25.8904 15.3146H24.3633L26.308 16.5195Z" fill="#D91C16"/>
<path d="M21.6209 14.6458L22.1951 14.1104L21.7139 13.8124L21.1389 14.3485L21.6209 14.6458ZM23.0619 14.5468V13.7014L24.5294 12.317L24.1527 11.9191L22.6444 13.3418H21.1172L23.0619 14.5468Z" fill="#D91C16"/>
<path d="M30.56 18.7211H29.0188L28.1718 17.9048H26.5071L25.375 17.3173L25.594 16.7835L26.6174 17.3209H27.1544L28.8008 15.4167L30.56 16.488L30.56 18.7211Z" fill="#D91C16"/>
<path d="M21.4139 7.94217L20.6422 7.65381L20.6237 7.66665L19.6273 8.35809V8.54397L18.0312 10.5622L19.6273 12.5805V12.7665L20.6422 13.4707L21.4139 13.1823L20.9429 12.8704V12.277L21.1301 12.0531H21.9664V9.07137H21.1301L20.9429 8.84745V8.25405L21.4139 7.94217Z" fill="black"/>
<path d="M19.7131 8.40267L20.6544 7.74963L21.2268 7.96347L20.8574 8.20803V8.87847L21.0902 9.15687H21.8808V11.9675H21.0902L20.8574 12.2459V12.9164L21.2268 13.1609L20.6544 13.3748L19.7131 12.7217L19.7132 12.5507L18.1406 10.5622L19.7132 8.57356L19.7131 8.40267Z" fill="#D91C16"/>
<path d="M38.7138 5.25608L39.3529 4.6604L39.9862 5.05088L39.346 5.64776L40.168 6.15704H38.3742L36.8284 7.61516L36.3339 7.09292L37.8368 5.67512V4.71272L38.7138 5.25608Z" fill="black"/>
<path d="M35.6884 4.99436L36.3275 4.39868L36.9608 4.78916L36.3206 5.38604L37.1426 5.89532H35.3488L33.803 7.35345L33.3085 6.83121L34.8115 5.4134V4.451L35.6884 4.99436Z" fill="black"/>
<path d="M38.9346 6.96714L39.5738 6.37146L40.2069 6.76194L39.5668 7.35882L40.3887 7.8681H38.5949L37.0492 9.32622L36.5547 8.80398L38.0577 7.38618V6.42378L38.9346 6.96714Z" fill="black"/>
<path d="M30.6027 2.31775H32.2214L33.0683 3.13399H34.7194L35.9395 3.76723L35.6549 4.46047L34.5669 3.88903H34.0904L32.4221 5.81839L30.6027 4.71043L30.6027 2.31775Z" fill="black"/>
<path d="M39.3635 4.76758L38.7892 5.3029L39.2704 5.60098L39.8456 5.06482L39.3635 4.76758ZM37.9225 4.86658V5.71198L36.455 7.09629L36.8318 7.49421L38.3401 6.07138H39.8672L37.9225 4.86658Z" fill="#D91C16"/>
<path d="M36.3362 4.50586L35.7619 5.04118L36.2431 5.33926L36.8181 4.8031L36.3362 4.50586ZM34.8951 4.60486V5.45026L33.4276 6.83457L33.8044 7.2325L35.3127 5.80978H36.8398L34.8951 4.60486Z" fill="#D91C16"/>
<path d="M39.5841 6.47864L39.0099 7.01396L39.4911 7.31204L40.0662 6.77588L39.5841 6.47864ZM38.1432 6.57764V7.42304L36.6757 8.80735L37.0524 9.20527L38.5607 7.78256H40.0879L38.1432 6.57764Z" fill="#D91C16"/>
<path d="M30.647 2.40332H32.1882L33.0352 3.21956H34.7L35.832 3.80708L35.613 4.34084L34.5897 3.80348H34.0527L32.4063 5.70764L30.647 4.6364L30.647 2.40332Z" fill="#D91C16"/>
<path d="M38.7138 15.8683L39.3529 16.464L39.9862 16.0735L39.346 15.4766L40.168 14.9673H38.3742L36.8284 13.5092L36.3339 14.0315L37.8368 15.4493V16.4117L38.7138 15.8683Z" fill="black"/>
<path d="M35.6884 16.13L36.3275 16.7257L36.9608 16.3352L36.3206 15.7383L37.1426 15.2291H35.3488L33.803 13.7709L33.3085 14.2932L34.8115 15.711V16.6734L35.6884 16.13Z" fill="black"/>
<path d="M38.9346 14.1572L39.5738 14.7529L40.2069 14.3625L39.5668 13.7656L40.3887 13.2563H38.5949L37.0492 11.7982L36.5547 12.3204L38.0577 13.7382V14.7006L38.9346 14.1572Z" fill="black"/>
<path d="M30.6027 18.8066H32.2214L33.0683 17.9904H34.7194L35.9395 17.3572L35.6549 16.6639L34.5669 17.2354H34.0904L32.4221 15.306L30.6027 16.414L30.6027 18.8066Z" fill="black"/>
<path d="M39.3635 16.3568L38.7892 15.8215L39.2704 15.5234L39.8456 16.0596L39.3635 16.3568ZM37.9225 16.2578V15.4124L36.455 14.0281L36.8318 13.6302L38.3401 15.053H39.8672L37.9225 16.2578Z" fill="#D91C16"/>
<path d="M36.3362 16.6185L35.7619 16.0832L36.2431 15.7851L36.8181 16.3213L36.3362 16.6185ZM34.8951 16.5195V15.6741L33.4276 14.2898L33.8044 13.8919L35.3127 15.3146H36.8398L34.8951 16.5195Z" fill="#D91C16"/>
<path d="M39.5841 14.6458L39.0099 14.1104L39.4911 13.8124L40.0662 14.3485L39.5841 14.6458ZM38.1432 14.5468V13.7014L36.6757 12.317L37.0524 11.9191L38.5607 13.3418H40.0879L38.1432 14.5468Z" fill="#D91C16"/>
<path d="M30.647 18.7211H32.1882L33.0352 17.9048H34.7L35.832 17.3173L35.613 16.7835L34.5897 17.3209H34.0527L32.4063 15.4167L30.647 16.488L30.647 18.7211Z" fill="#D91C16"/>
<path d="M39.7911 7.94217L40.5629 7.65381L40.5813 7.66665L41.5778 8.35809V8.54397L43.1738 10.5622L41.5778 12.5805V12.7665L40.5629 13.4707L39.7911 13.1823L40.2621 12.8704V12.277L40.0749 12.0531H39.2387V9.07137H40.0749L40.2621 8.84745V8.25405L39.7911 7.94217Z" fill="black"/>
<path d="M41.492 8.40267L40.5507 7.74963L39.9783 7.96347L40.3476 8.20803V8.87847L40.1148 9.15687H39.3243V11.9675H40.1148L40.3476 12.2459V12.9164L39.9783 13.1609L40.5507 13.3748L41.492 12.7217L41.4918 12.5507L43.0645 10.5622L41.4918 8.57356L41.492 8.40267Z" fill="#D91C16"/>
<path d="M20.0425 12.2564L19.6079 11.8804V11.6992L18.6758 10.5622L19.6081 9.42511V9.24403L20.0426 8.86807L20.8231 9.50275L20.3726 9.49927L21.0382 10.1749H22.5592L23.7554 9.23947V6.77263H26.7471L30.2216 4.64047V4.08127L29.6902 3.72715H29.5219L28.9432 4.11439L28.8536 4.40323L28.4009 3.78523L29.2807 3.04615H29.4213L30.4141 2.31775H30.7883L31.781 3.04615H31.9218L32.8015 3.78523L32.3488 4.40323L32.2592 4.11439L31.6805 3.72715H31.5122L30.9808 4.08127V4.64047L34.4553 6.77263H37.447V9.23947L38.6432 10.1749H40.1642L40.8298 9.49927L40.3794 9.50275L41.1598 8.86807L41.5944 9.24403V9.42511L42.5266 10.5622L41.5944 11.6992V11.8804L41.1598 12.2564L40.3794 11.6217L40.8298 11.6252L40.1642 10.9495H38.6432L37.447 11.885V14.3518H34.4553L30.9808 16.484V17.0432L31.5122 17.3973H31.6805L32.2592 17.0101L32.3488 16.7212L32.8015 17.3391L31.9218 18.0783H31.781L30.7883 18.8067H30.4141L29.4213 18.0783H29.2807L28.4008 17.3391L28.8536 16.7212L28.9432 17.0101L29.5217 17.3973H29.6901L30.2216 17.0432V16.484L26.7471 14.3518H23.7554V11.885L22.5591 10.9495H21.0382L20.3726 11.6252L20.8231 11.6217L20.0425 12.2564Z" fill="black"/>
<path d="M30.6448 17.4638L31.0251 17.7546L30.6448 18.0453V17.4638ZM29.436 17.9926H29.4501L30.4428 18.7212H30.5588V18.1528L30.038 17.7546L30.5589 17.3563V16.2888L26.841 14.0072H24.0927V11.7147L22.6737 10.605H20.5333L19.9954 11.2132L19.4574 10.605L18.8223 10.6051L19.6942 11.6685V11.8412L20.0395 12.1412L20.5944 11.7092L20.2688 11.7117V11.6037L20.9945 10.8639H22.5893L23.8418 11.8434V14.2663H26.772L30.3078 16.4361V17.0889L29.7167 17.4829H29.4963L28.871 17.0643L28.8228 16.909L28.5179 17.3252L29.3126 17.9926L29.436 17.9926ZM19.9959 10.0406L20.4195 10.5194H19.5722L19.9959 10.0406ZM30.559 3.07916L30.179 3.36992L30.559 3.66056V3.07916ZM40.7844 10.6051L41.208 11.0839L41.6316 10.6051H40.7844ZM31.7536 3.13172L30.7608 2.40332H30.6449V2.9714L31.166 3.36992L30.6448 3.76844V4.83572L34.3626 7.11728H37.111V9.40976L38.53 10.5195H40.67L41.208 9.91136L41.7461 10.5194H42.3814L41.5095 9.45596V9.28328L41.1641 8.98328L40.6092 9.41528L40.9349 9.41264V9.52076L40.2092 10.2604H38.6144L37.362 9.281V6.8582H34.4316L30.8958 4.68836V4.03544L31.4869 3.6416H31.7074L32.3327 4.06016L32.3808 4.21544L32.6857 3.79928L31.8911 3.13172L31.7536 3.13172Z" fill="#FDD406"/>
<path d="M30.5587 18.0452L30.1787 17.7546L30.5587 17.4639V18.0452ZM20.4192 10.6051L19.9956 11.0839L19.572 10.6051H20.4192ZM31.7674 17.9926H31.7533L30.7606 18.7212H30.6447V18.5724V18.1531L31.1657 17.7546L30.6445 17.356V16.2888L34.3624 14.0072H37.1107V11.7147L38.5298 10.605H40.6698L41.2078 11.2132L41.7458 10.605L42.3812 10.6051L41.5092 11.6685V11.8412L41.1639 12.1412L40.609 11.7092L40.9347 11.7117V11.6037L40.2089 10.8639H38.6141L37.3618 11.8434V14.2663H34.4314L30.8956 16.4361V17.0889L31.4867 17.4829H31.7071L32.3325 17.0643L32.3806 16.909L32.6855 17.3252L31.8909 17.9926L31.7674 17.9926ZM41.2078 10.0406L40.7842 10.5194H41.6315L41.2078 10.0406ZM29.4501 3.13172L30.4428 2.40332H30.5589V2.9714L30.0377 3.36992L30.5589 3.76844L30.559 4.83572L26.841 7.11728H24.0928V9.40976L22.6737 10.5195H20.5331L19.9951 9.91136L19.4571 10.5194H18.8223L19.6943 9.45596V9.28328L20.0397 8.98328L20.5944 9.41528L20.2687 9.41264V9.52076L20.9946 10.2604H22.5893L23.8418 9.281V6.8582H26.772L30.308 4.68836V4.03544L29.7168 3.6416H29.4963L28.871 4.06016L28.8228 4.21544L28.518 3.79928L29.3127 3.13172L29.4501 3.13172ZM30.6445 3.66068L31.0248 3.36992L30.6445 3.07916V3.66068Z" fill="white"/>
<path d="M30.5587 10.605V4.93604L26.865 7.20284H24.1781V9.4514L22.8125 10.5194L30.6445 10.5193V16.1883L34.338 13.9216H37.0249V11.6731L38.3905 10.6051L30.5587 10.605Z" fill="#1E9A1C"/>
<path d="M22.8125 10.605L24.1782 11.673V13.9215H26.865L30.5589 16.1883V10.5191L38.3907 10.5193L37.0251 9.45127V7.20271H34.3381L30.6447 4.93604V10.6049L22.8125 10.605Z" fill="#D91C16"/>
<path d="M26.6259 7.81272L25.9869 7.21704L25.3537 7.6074L25.9939 8.20428L25.1719 8.71356H26.9656L28.5115 10.1718L29.006 9.64945L27.503 8.23164V7.26936L26.6259 7.81272Z" fill="black"/>
<path d="M34.5772 13.3118L35.2163 13.9075L35.8495 13.517L35.2094 12.9202L36.0314 12.411H34.2375L32.6918 10.9528L32.1973 11.475L33.7003 12.8929V13.8552L34.5772 13.3118Z" fill="black"/>
<path d="M26.6259 13.3118L25.9868 13.9075L25.3537 13.517L25.9938 12.9202L25.1719 12.411H26.9656L28.5113 10.9528L29.0059 11.475L27.5029 12.8929V13.8552L26.6259 13.3118Z" fill="black"/>
<path d="M34.5772 7.81272L35.2163 7.21704L35.8495 7.6074L35.2094 8.20428L36.0314 8.71356H34.2375L32.6918 10.1718L32.1973 9.64945L33.7003 8.23164V7.26936L34.5772 7.81272Z" fill="black"/>
<path d="M35.2266 13.8003L34.6524 13.265L35.1336 12.9669L35.7087 13.503L35.2266 13.8003ZM33.7857 13.7013V12.856L32.3182 11.4717L32.695 11.0736L34.2033 12.4965H35.7304L33.7857 13.7013ZM25.9763 7.32397L26.5506 7.85929L26.0693 8.15749L25.4943 7.62133L25.9763 7.32397ZM27.4174 7.42309V8.26837L28.8849 9.65269L28.5081 10.0507L26.9998 8.62789H25.4727L27.4174 7.42309Z" fill="#D91C16"/>
<path d="M35.2267 7.32397L34.6525 7.85929L35.1337 8.15749L35.7088 7.62133L35.2267 7.32397ZM33.7858 7.42309V8.26837L32.3183 9.65269L32.6951 10.0507L34.2034 8.62789H35.7305L33.7858 7.42309ZM25.9764 13.8003L26.5506 13.265L26.0694 12.9669L25.4944 13.503L25.9764 13.8003ZM27.4174 13.7013V12.856L28.8849 11.4717L28.5082 11.0736L26.9999 12.4965H25.4727L27.4174 13.7013Z" fill="#1E9A1C"/>
<path d="M34.5725 10.5624L30.6007 13.2094L26.6289 10.5624L30.6007 7.91516L34.5725 10.5624Z" fill="black"/>
<path d="M30.5581 8.04651L26.8478 10.5193H34.3541L30.6439 8.04651V13.0779L34.3543 10.605H26.8477L30.5581 13.0779V8.04651Z" fill="white"/>
<path d="M31.6629 11.4725V12.2003H29.5388V11.4725H28.1641V9.65187H29.5388V8.92407H31.6629V9.65187H33.0375V11.4725H31.6629Z" fill="black"/>
<path d="M29.6246 9.00965V9.73745H28.25V10.5194H30.5581V9.00964L29.6246 9.00965ZM30.6439 10.5194H32.952V9.73745H31.5774V9.00965H30.6439L30.6439 10.5194ZM28.25 10.6051V11.387H29.6246V12.1148H30.5581V10.605L28.25 10.6051ZM30.6439 12.1148H31.5774V11.387H32.952V10.6051H30.6439V12.1148Z" fill="#D91C16"/>
<path d="M37.3768 40.7219V39.5559H40.5744V38.3898H43.7721V27.8536H40.5744V26.6875H37.3768V25.5215H34.1792V24.3555H27.0227V25.5215H23.8251V26.6875H20.6273V27.8536H17.4297V38.3898H20.6273V39.5559H23.8251V40.7219H27.0227V41.8879H34.1792V40.7219H37.3768Z" fill="black"/>
<path d="M27.1132 24.4385V25.6037H23.9139V26.769H20.7148V27.9342H17.5156V38.305H20.7148V39.4704H23.9139V40.6355H27.1132V41.8006H34.0939V40.6355H37.2932V39.4704H40.4925V38.305H43.6915V27.9342H40.4925V26.769H37.2932V25.6037H34.0939V24.4385H27.1132ZM27.9606 25.2859H33.2464V26.4512H36.4457V27.6164H39.645V28.7817H42.844V37.4575H39.645V38.6229H36.4457V39.788H33.2464V40.9531H27.9606V39.788H24.7614V38.6229H21.5623V37.4575H18.3631V28.7817H21.5623V27.6164H24.7614V26.4512H27.9606V25.2859Z" fill="#FDD406"/>
<path d="M24.8446 39.7037V38.5375H21.647V37.3716H18.4492V28.8715H21.647V27.7055H24.8446V26.5395H28.0423V25.3735H33.1624V26.5395H36.3602V27.7055H39.5577V28.8715H42.7555V37.3716H39.5577V38.5375H36.3602V39.7037H33.1624V40.8696H28.0423V39.7037H24.8446Z" fill="#D91C16"/>
<path d="M25.5857 27.4028L24.7574 26.7767V27.9789L23.9643 28.4829L23.9623 27.7304L23.2016 28.4136L22.4409 27.7304L22.4389 28.4829L21.56 27.9244V29.039L20.8497 29.5532L20.8477 28.8698L20.0039 29.4809L19.16 28.8698L19.1581 29.5532L18.3621 28.9769V32.3532H17.4297V33.8901H18.3621V37.2664L19.1581 36.69L19.16 37.3736L20.0039 36.7624L20.8476 37.3736L20.8496 36.69L21.5599 37.2042V38.3189L22.4388 37.7604L22.4409 38.513L23.2015 37.8297L23.9622 38.513L23.9642 37.7604L24.7573 38.2643V39.4666L25.5856 38.8406L25.5874 39.6802L26.3991 38.9543L27.2108 39.6802L27.2126 38.8406L27.9552 39.4018V40.684L29.0655 39.672V40.8612L30.601 39.874L32.1366 40.8612V39.672L33.2469 40.684V39.4018L33.9893 38.8406L33.9911 39.6802L34.8029 38.9543L35.6147 39.6802L35.6165 38.8406L36.4445 39.4666V38.2643L37.2378 37.7604L37.2398 38.513L38.0006 37.8297L38.7613 38.513L38.7633 37.7604L39.6423 38.3189V37.2042L40.3526 36.69L40.3546 37.3736L41.1983 36.7624L42.0421 37.3736L42.0441 36.69L42.8401 37.2663V33.8901H43.7725V32.3532H42.8401V28.9769L42.0441 29.5532L42.0421 28.8698L41.1983 29.4809L40.3545 28.8698L40.3527 29.5532L39.6424 29.039V27.9244L38.7634 28.4829L38.7614 27.7304L38.0007 28.4136L37.2399 27.7304L37.2379 28.4829L36.4446 27.9788V26.7767L35.6166 27.4026L35.6148 26.563L34.803 27.289L33.9912 26.563L33.9894 27.4028L33.2469 26.8413V25.5593L32.1367 26.5713V25.3821L30.6011 26.3693L29.0655 25.3821V26.5713L27.9553 25.5593V26.8414L27.2127 27.4028L27.2109 26.563L26.3991 27.289L25.5874 26.563L25.5857 27.4028Z" fill="black"/>
<path d="M19.2436 29.7206L19.2456 29.0371L20.0041 29.5866L20.0297 29.568L20.7627 29.0371L20.7647 29.7206L21.5603 29.1447V37.0983L20.7647 36.5225L20.7627 37.206L20.0041 36.6565L19.2456 37.206L19.2436 36.5225L18.448 37.0983V33.8042H17.5156V32.4389H18.448V29.1447L19.2436 29.7206Z" fill="#1E9A1C"/>
<path d="M25.6731 26.7543L26.3996 27.404L27.1261 26.7543L27.1279 27.5747L27.9556 26.9489V39.2944L27.1279 38.6686L27.1261 39.489L26.3996 38.8394L25.6731 39.489L25.6715 38.6686L24.8438 39.2944V26.9489L25.6715 27.5747L25.6731 26.7543Z" fill="#1E9A1C"/>
<path d="M35.5285 26.7543L34.802 27.404L34.0755 26.7543L34.0737 27.5747L33.2461 26.9489V39.2944L34.0737 38.6686L34.0755 39.489L34.802 38.8394L35.5285 39.489L35.5303 38.6686L36.3581 39.2944V26.9489L35.5303 27.5747L35.5285 26.7543Z" fill="#1E9A1C"/>
<path d="M41.9592 29.7206L41.9572 29.0371L41.1987 29.5866L41.173 29.568L40.4401 29.0371L40.4381 29.7206L39.6426 29.1447V37.0983L40.4381 36.5225L40.4401 37.206L41.1987 36.6565L41.9572 37.206L41.9592 36.5225L42.7547 37.0983V33.8042H43.6871V32.4389H42.7547V29.1447L41.9592 29.7206Z" fill="#1E9A1C"/>
<path d="M22.527 27.9221L23.2025 28.529L23.878 27.9221L23.88 28.6388L24.7585 28.0804V38.1629L23.88 37.6047L23.878 38.3212L23.2025 37.7145L22.527 38.3212L22.525 37.6047L21.6465 38.1629V28.0804L22.525 28.6388L22.527 27.9221Z" fill="#FDD406"/>
<path d="M29.1532 26.7653L28.043 25.7534V40.4899L29.1532 39.4779V40.7042L30.6029 39.7721H30.6032L32.0529 40.7042V39.4779L33.1631 40.4899V25.7534L32.0529 26.7653V25.5391L30.6032 26.4711H30.6029L29.1532 25.5391V26.7653Z" fill="#FDD406"/>
<path d="M38.6768 27.9221L38.0014 28.529L37.3258 27.9221L37.324 28.6388L36.4453 28.0804V38.1629L37.324 37.6047L37.3258 38.3212L38.0014 37.7145L38.6768 38.3212L38.6788 37.6047L39.5574 38.1629V28.0804L38.6788 28.6388L38.6768 27.9221Z" fill="#FDD406"/>
<path d="M19.661 31.6731C19.7581 31.771 19.8741 31.8206 20.0059 31.8206C20.1375 31.8206 20.2535 31.771 20.3507 31.6731C20.6545 31.3671 20.6647 30.8137 20.6617 30.4154C20.6617 30.4154 20.3105 30.7864 20.2472 30.8534C20.203 30.7771 20.0059 30.4366 20.0059 30.4366C20.0059 30.4366 19.8087 30.7771 19.7644 30.8534C19.7011 30.7864 19.3499 30.4154 19.3499 30.4154C19.3469 30.8137 19.3573 31.3671 19.661 31.6731Z" fill="black"/>
<path d="M22.9957 30.816L22.7399 30.5604V30.0511L22.1523 30.5956L23.2026 31.6459L24.2528 30.5956L23.6653 30.0511V30.5604L23.4096 30.816V29.9137L23.8626 29.5248L23.2026 28.958L22.5426 29.5248L22.9957 29.9137V30.816Z" fill="black"/>
<path d="M26.1948 29.8039L25.9391 29.5482V29.0389L25.3516 29.5834L26.4018 30.6337L27.452 29.5834L26.8645 29.0389V29.5482L26.6087 29.8039V28.9015L27.0618 28.5126L26.4018 27.9459L25.7418 28.5126L26.1948 28.9015V29.8039Z" fill="black"/>
<path d="M20.0059 30.6077C20.0583 30.6981 20.2305 30.9956 20.2305 30.9956C20.2305 30.9956 20.4731 30.7391 20.5723 30.6345C20.5604 31.0843 20.4616 31.4396 20.2899 31.6125C20.2094 31.6937 20.1139 31.7348 20.0059 31.7348C19.8977 31.7348 19.8022 31.6937 19.7218 31.6127C19.5501 31.4396 19.4513 31.0843 19.4395 30.6345C19.5385 30.7392 19.7811 30.9956 19.7811 30.9956C19.856 30.8663 19.931 30.7369 20.0059 30.6077Z" fill="white"/>
<path d="M26.5226 28.8622V30.0109L26.9498 29.5838V29.2353L27.328 29.586L26.4014 30.5126L25.4746 29.586L25.8529 29.2353V29.5838L26.2801 30.0109V28.8622L25.8729 28.5127L26.4014 28.059L26.9297 28.5127L26.5226 28.8622Z" fill="white"/>
<path d="M23.3253 29.8743V31.023L23.7525 30.5958V30.2474L24.1307 30.5979L23.204 31.5247L22.2773 30.5979L22.6556 30.2474V30.5958L23.0828 31.023V29.8743L22.6756 29.5248L23.204 29.071L23.7325 29.5248L23.3253 29.8743Z" fill="#D91C16"/>
<path d="M41.5441 31.6731C41.447 31.771 41.331 31.8206 41.1992 31.8206C41.0676 31.8206 40.9515 31.771 40.8543 31.6731C40.5506 31.3671 40.5404 30.8137 40.5434 30.4154C40.5434 30.4154 40.8945 30.7864 40.9579 30.8534C41.0021 30.7771 41.1992 30.4366 41.1992 30.4366C41.1992 30.4366 41.3964 30.7771 41.4406 30.8534C41.504 30.7864 41.8551 30.4154 41.8551 30.4154C41.8581 30.8137 41.8478 31.3671 41.5441 31.6731Z" fill="black"/>
<path d="M38.2074 30.8158L38.4633 30.5602V30.051L39.0508 30.5955L38.0005 31.6458L36.9503 30.5955L37.5378 30.051V30.5602L37.7935 30.8158V29.9136L37.3405 29.5246L38.0005 28.9579L38.6605 29.5246L38.2074 29.9136V30.8158Z" fill="black"/>
<path d="M35.0122 29.8039L35.268 29.5482V29.0389L35.8555 29.5834L34.8052 30.6337L33.755 29.5834L34.3425 29.0389V29.5482L34.5984 29.8039V28.9015L34.1452 28.5126L34.8052 27.9459L35.4652 28.5126L35.0122 28.9015V29.8039Z" fill="black"/>
<path d="M41.1992 30.6077C41.1468 30.6981 40.9746 30.9956 40.9746 30.9956C40.9746 30.9956 40.7319 30.7391 40.6328 30.6345C40.6447 31.0843 40.7435 31.4396 40.9152 31.6125C40.9957 31.6937 41.0912 31.7348 41.1992 31.7348C41.3073 31.7348 41.4029 31.6937 41.4833 31.6127C41.655 31.4396 41.7537 31.0843 41.7656 30.6345C41.6666 30.7392 41.424 30.9956 41.424 30.9956C41.3491 30.8663 41.2741 30.7369 41.1992 30.6077Z" fill="white"/>
<path d="M34.6825 28.8622V30.0109L34.2553 29.5838V29.2353L33.8771 29.586L34.8037 30.5126L35.7305 29.586L35.3522 29.2353V29.5838L34.925 30.0109V28.8622L35.3322 28.5127L34.8037 28.059L34.2753 28.5127L34.6825 28.8622Z" fill="white"/>
<path d="M37.8817 29.8743V31.023L37.4545 30.5958V30.2474L37.0763 30.5979L38.003 31.5247L38.9297 30.5979L38.5514 30.2474V30.5958L38.1242 31.023V29.8743L38.5314 29.5248L38.003 29.071L37.4746 29.5248L37.8817 29.8743Z" fill="#D91C16"/>
<path d="M31.8591 30.1873L31.5151 29.7119L32.3973 28.8974L31.5747 28.2216V28.7004L31.2307 28.9947V28.1263L32.0078 27.5535L30.602 26.5173L29.1962 27.5535L29.9734 28.1263V28.9947L29.6294 28.7004V28.2216L28.8066 28.8974L29.689 29.7119L29.345 30.1873H31.8591Z" fill="black"/>
<path d="M29.5131 30.1017L29.8033 29.7006L28.9375 28.9014L29.5439 28.4031V28.74L30.0594 29.1811V28.0831L29.3409 27.5537L30.6023 26.624L31.8636 27.5537L31.1453 28.0831V29.1811L31.6607 28.74V28.4031L32.2671 28.9014L31.4013 29.7006L31.6916 30.1017H29.5131Z" fill="#D91C16"/>
<path d="M29.959 27.5537L30.6013 28.0271L31.2438 27.5537L30.6013 27.0802L30.5759 27.099L29.959 27.5537Z" fill="black"/>
<path d="M30.6033 27.1868C30.6458 27.218 31.0262 27.4984 31.1013 27.5537C31.0262 27.609 30.6458 27.8895 30.6033 27.9207C30.561 27.8895 30.1805 27.609 30.1055 27.5537C30.1805 27.4984 30.561 27.218 30.6033 27.1868Z" fill="#1E9A1C"/>
<path d="M19.661 34.57C19.7581 34.4721 19.8741 34.4226 20.0059 34.4226C20.1375 34.4226 20.2535 34.4721 20.3507 34.57C20.6545 34.876 20.6647 35.4295 20.6617 35.8278C20.6617 35.8278 20.3105 35.4567 20.2472 35.3898C20.203 35.4661 20.0059 35.8065 20.0059 35.8065C20.0059 35.8065 19.8087 35.4661 19.7644 35.3898C19.7011 35.4567 19.3499 35.8278 19.3499 35.8278C19.3469 35.4295 19.3573 34.876 19.661 34.57Z" fill="black"/>
<path d="M22.9957 35.4272L22.7399 35.6828V36.1921L22.1523 35.6475L23.2026 34.5973L24.2528 35.6475L23.6653 36.1921V35.6828L23.4096 35.4272V36.3295L23.8626 36.7184L23.2026 37.2852L22.5426 36.7184L22.9957 36.3295V35.4272Z" fill="black"/>
<path d="M26.1948 36.4393L25.9391 36.695V37.2043L25.3516 36.6597L26.4018 35.6095L27.452 36.6597L26.8645 37.2043V36.695L26.6087 36.4393V37.3417L27.0618 37.7306L26.4018 38.2972L25.7418 37.7306L26.1948 37.3417V36.4393Z" fill="black"/>
<path d="M20.0059 35.6355C20.0583 35.545 20.2305 35.2475 20.2305 35.2475C20.2305 35.2475 20.4731 35.5041 20.5723 35.6086C20.5604 35.1589 20.4616 34.8035 20.2899 34.6306C20.2094 34.5495 20.1139 34.5083 20.0059 34.5083C19.8977 34.5083 19.8022 34.5495 19.7218 34.6305C19.5501 34.8035 19.4513 35.1589 19.4395 35.6086C19.5385 35.504 19.7811 35.2475 19.7811 35.2475C19.856 35.3769 19.931 35.5063 20.0059 35.6355Z" fill="white"/>
<path d="M26.5226 37.3809V36.2323L26.9498 36.6594V37.0078L27.328 36.6572L26.4014 35.7306L25.4746 36.6572L25.8529 37.0078V36.6594L26.2801 36.2323V37.3809L25.8729 37.7305L26.4014 38.1842L26.9297 37.7305L26.5226 37.3809Z" fill="white"/>
<path d="M23.3253 36.3688V35.2202L23.7525 35.6474V35.9958L24.1307 35.6452L23.204 34.7185L22.2773 35.6452L22.6556 35.9958V35.6474L23.0828 35.2202V36.3688L22.6756 36.7184L23.204 37.1721L23.7325 36.7184L23.3253 36.3688Z" fill="#D91C16"/>
<path d="M41.5441 34.57C41.447 34.4721 41.331 34.4226 41.1992 34.4226C41.0676 34.4226 40.9515 34.4721 40.8543 34.57C40.5506 34.876 40.5404 35.4295 40.5434 35.8278C40.5434 35.8278 40.8945 35.4567 40.9579 35.3898C41.0021 35.4661 41.1992 35.8065 41.1992 35.8065C41.1992 35.8065 41.3964 35.4661 41.4406 35.3898C41.504 35.4567 41.8551 35.8278 41.8551 35.8278C41.8581 35.4295 41.8478 34.876 41.5441 34.57Z" fill="black"/>
<path d="M38.2074 35.4273L38.4633 35.6829V36.1922L39.0508 35.6476L38.0005 34.5974L36.9503 35.6476L37.5378 36.1922V35.6829L37.7935 35.4273V36.3296L37.3405 36.7185L38.0005 37.2853L38.6605 36.7185L38.2074 36.3296V35.4273Z" fill="black"/>
<path d="M35.0122 36.4393L35.268 36.695V37.2043L35.8555 36.6597L34.8052 35.6095L33.755 36.6597L34.3425 37.2043V36.695L34.5984 36.4393V37.3417L34.1452 37.7306L34.8052 38.2972L35.4652 37.7306L35.0122 37.3417V36.4393Z" fill="black"/>
<path d="M41.1992 35.6355C41.1468 35.545 40.9746 35.2475 40.9746 35.2475C40.9746 35.2475 40.7319 35.5041 40.6328 35.6086C40.6447 35.1589 40.7435 34.8035 40.9152 34.6306C40.9957 34.5495 41.0912 34.5083 41.1992 34.5083C41.3073 34.5083 41.4029 34.5495 41.4833 34.6305C41.655 34.8035 41.7537 35.1589 41.7656 35.6086C41.6666 35.504 41.424 35.2475 41.424 35.2475C41.3491 35.3769 41.2741 35.5063 41.1992 35.6355Z" fill="white"/>
<path d="M34.6825 37.3809V36.2323L34.2553 36.6594V37.0078L33.8771 36.6572L34.8037 35.7306L35.7305 36.6572L35.3522 37.0078V36.6594L34.925 36.2323V37.3809L35.3322 37.7305L34.8037 38.1842L34.2753 37.7305L34.6825 37.3809Z" fill="white"/>
<path d="M37.8817 36.3688V35.2202L37.4545 35.6474V35.9958L37.0763 35.6452L38.003 34.7185L38.9297 35.6452L38.5514 35.9958V35.6474L38.1242 35.2202V36.3688L38.5314 36.7184L38.003 37.1721L37.4746 36.7184L37.8817 36.3688Z" fill="#D91C16"/>
<path d="M31.8591 36.0559L31.5151 36.5313L32.3973 37.3458L31.5747 38.0216V37.5428L31.2307 37.2484V38.1169L32.0078 38.6896L30.602 39.7258L29.1962 38.6896L29.9734 38.1169V37.2484L29.6294 37.5428V38.0216L28.8066 37.3458L29.689 36.5313L29.345 36.0559H31.8591Z" fill="black"/>
<path d="M29.5131 36.1414L29.8033 36.5426L28.9375 37.3418L29.5439 37.84V37.5032L30.0594 37.0621V38.1601L29.3409 38.6895L30.6023 39.6191L31.8636 38.6895L31.1453 38.1601V37.0621L31.6607 37.5032V37.84L32.2671 37.3418L31.4013 36.5426L31.6916 36.1414H29.5131Z" fill="#D91C16"/>
<path d="M29.959 38.6894L30.6013 38.216L31.2438 38.6894L30.6013 39.163L30.5759 39.1441L29.959 38.6894Z" fill="black"/>
<path d="M30.6033 39.0564C30.6458 39.0252 31.0262 38.7448 31.1013 38.6894C31.0262 38.6341 30.6458 38.3537 30.6033 38.3225C30.561 38.3537 30.1805 38.6341 30.1055 38.6894C30.1805 38.7448 30.561 39.0252 30.6033 39.0564Z" fill="#1E9A1C"/>
<path d="M41.9825 32.63H40.5751V32.069H36.2729L33.2781 30.1018H33.2654H27.9251L24.9304 32.069H20.6282V32.63H19.2207V33.6135H20.6282V34.1745H24.9304L27.9251 36.1418H33.2781L36.2729 34.1745H40.5751V33.6135H41.9825V32.63Z" fill="black"/>
<path d="M27.9487 30.1904L24.9509 32.1502H20.7136V32.7116H19.3047V33.5273H20.7136V34.0887H24.9509L27.9487 36.0591H33.2559L36.2432 34.0887H40.4911V33.5273H41.9V32.7116H40.4911V32.1502H36.2432L33.2559 30.1904H27.9487ZM28.0123 30.4764H33.1818L35.9254 32.2773V32.5527H38.9869V33.6968H35.9254V33.9722L33.1818 35.7625H28.0123L25.2793 33.9722V33.6968H22.2072V32.5527H25.2793V32.2773L28.0123 30.4764Z" fill="#D91C16"/>
<path d="M33.1618 30.5652L35.8376 32.3219V32.6336H38.9039V33.6097H35.8376V33.9216L33.1618 35.6783H28.0409L25.3652 33.9216V33.6097H22.2988V32.6336H25.3652V32.3219L28.0409 30.5652H33.1618Z" fill="#D91C16"/>
<path d="M26.7109 34.1195L27.8695 34.9893L28.6317 34.417L28.1886 34.0844L27.8695 34.324L27.5971 34.1195L31.9602 30.8438H31.0741L26.7109 34.1195ZM29.2399 35.3997H30.126L34.4892 32.1239L33.3307 31.2543L32.5685 31.8264L33.0115 32.1589L33.3307 31.9193L33.6031 32.1239L29.2399 35.3997ZM31.0741 35.3997H31.9601L27.5971 32.1239L27.8695 31.9193L28.1886 32.1589L28.6317 31.8264L27.8695 31.2543L26.7109 32.1239L31.0741 35.3997ZM33.6031 34.1195L33.3307 34.324L33.0115 34.0844L32.5685 34.417L33.3307 34.9893L34.4892 34.1195L30.126 30.8438H29.2399L33.6031 34.1195Z" fill="black"/>
<path d="M25.834 33.1217L26.6127 33.6389L27.3913 33.1217L26.6127 32.6045L25.834 33.1217Z" fill="black"/>
<path d="M29.8223 33.1217L30.6009 33.6389L31.3796 33.1217L30.6009 32.6045L29.8223 33.1217Z" fill="black"/>
<path d="M35.3679 33.1217L34.5892 33.6389L33.8105 33.1217L34.5892 32.6045L35.3679 33.1217Z" fill="black"/>
<path d="M34.3482 34.1195L33.3325 34.8821L32.7129 34.417L33.0133 34.1915L33.3325 34.4312L33.7475 34.1195L29.4986 30.9296H30.0992L34.3482 34.1195ZM31.7049 35.3139H31.1044L26.8555 32.1239L27.8713 31.3613L28.4906 31.8264L28.1904 32.0518L27.8713 31.8122L27.4561 32.1239L31.7049 35.3139ZM30.0992 35.3139H29.4986L33.7475 32.1239L33.3325 31.8122L33.0133 32.0518L32.7129 31.8264L33.3325 31.3613L34.3482 32.1239L30.0992 35.3139ZM31.1044 30.9296H31.7049L27.4561 34.1195L27.8713 34.4312L28.1904 34.1915L28.4906 34.417L27.8713 34.8821L26.8555 34.1195L31.1044 30.9296Z" fill="#FDD406"/>
<path d="M26.612 32.7075L27.2358 33.1218L26.612 33.536L25.9883 33.1218L26.612 32.7075Z" fill="#1E9A1C"/>
<path d="M30.6002 32.7075L31.224 33.1218L30.6002 33.536L29.9766 33.1218L30.6002 32.7075Z" fill="#1E9A1C"/>
<path d="M34.5886 32.7075L33.9648 33.1218L34.5886 33.536L35.2122 33.1218L34.5886 32.7075Z" fill="#1E9A1C"/>
<path d="M16.9052 54.8302L16.5997 55.2623L17.1474 55.6811L16.5996 56.1L16.9051 56.5321L17.5415 56.6061L18.1577 56.1299L19.6941 57.1059V56.2954L18.7271 55.6811L19.6941 55.0669V54.2565L18.1577 55.2324L17.5415 54.7564L16.9052 54.8302Z" fill="black"/>
<path d="M16.9052 52.0145L16.5997 52.4468L17.1474 52.8656L16.5996 53.2844L16.9051 53.7166L17.5415 53.7904L18.1577 53.3142L19.6941 54.2903V53.4797L18.7271 52.8656L19.6941 52.2513V51.4408L18.1577 52.4168L17.5415 51.9407L16.9052 52.0145Z" fill="black"/>
<path d="M16.9052 59.3477L16.5997 58.9156L17.1474 58.4968L16.5996 58.0779L16.9051 57.6457L17.5415 57.5719L18.1577 58.048L19.6941 57.072V57.8825L18.7271 58.4968L19.6941 59.1109V59.9214L18.1577 58.9455L17.5415 59.4216L16.9052 59.3477Z" fill="black"/>
<path d="M44.2987 54.8301L44.6042 55.2622L44.0565 55.681L44.6042 56.0999L44.2987 56.532L43.6624 56.6059L43.0462 56.1298L41.5098 57.1057V56.2953L42.4768 55.681L41.5098 55.0668V54.2563L43.0462 55.2323L43.6624 54.7563L44.2987 54.8301Z" fill="black"/>
<path d="M44.2987 52.0146L44.6042 52.4469L44.0565 52.8657L44.6042 53.2845L44.2987 53.7167L43.6624 53.7905L43.0462 53.3144L41.5098 54.2904V53.4798L42.4768 52.8657L41.5098 52.2514V51.4409L43.0462 52.4169L43.6624 51.9408L44.2987 52.0146Z" fill="black"/>
<path d="M44.2987 59.3477L44.6042 58.9156L44.0565 58.4968L44.6042 58.0779L44.2987 57.6457L43.6624 57.5719L43.0462 58.048L41.5098 57.072V57.8825L42.4768 58.4968L41.5098 59.1109V59.9214L43.0462 58.9455L43.6624 59.4216L44.2987 59.3477Z" fill="black"/>
<path d="M38.1484 47.146V48.3172H39.0003V48.8348H39.8372V47.8923H39.0908V47.146H38.1484Z" fill="black"/>
<path d="M40.6602 48.9929V50.164H41.5112V50.6817H42.3489V49.7392H41.6026V48.9929H40.6602Z" fill="black"/>
<path d="M23.0559 47.146V48.3172H22.2038V48.8348H21.3672V47.8923H22.1135V47.146H23.0559Z" fill="black"/>
<path d="M38.1484 64.2166V63.0454H39.0003V62.5278H39.8372V63.4702H39.0908V64.2166H38.1484Z" fill="black"/>
<path d="M23.0559 64.2166V63.0454H22.2038V62.5278H21.3672V63.4702H22.1135V64.2166H23.0559Z" fill="black"/>
<path d="M40.6602 62.3695V61.1985H41.5112V60.6808H42.3489V61.6231H41.6026V62.3695H40.6602Z" fill="black"/>
<path d="M20.5442 48.9929V50.164H19.693V50.6817H18.8555V49.7392H19.6018V48.9929H20.5442Z" fill="black"/>
<path d="M20.5442 62.3695V61.1985H19.693V60.6808H18.8555V61.6231H19.6018V62.3695H20.5442Z" fill="black"/>
<path d="M33.7534 47.1187C33.6991 47.0659 33.1033 46.4875 33.1033 46.4875L32.4646 47.0793C32.4646 47.0793 32.965 47.5649 33.0213 47.6196L32.3027 48.3172H33.3695L33.7534 47.9445L34.1373 48.3172H35.204L34.4854 47.6196C34.5417 47.5649 35.042 47.0793 35.042 47.0793L34.4035 46.4875C34.1865 46.6977 33.97 46.9083 33.7534 47.1187Z" fill="black"/>
<path d="M30.6029 47.1187C30.5487 47.0659 29.9529 46.4875 29.9529 46.4875L29.3142 47.0793C29.3142 47.0793 29.8145 47.5649 29.8709 47.6196L29.1523 48.3172H30.219L30.6029 47.9445L30.9868 48.3172H32.0535L31.335 47.6196C31.3913 47.5649 31.8916 47.0793 31.8916 47.0793L31.2531 46.4875C31.0361 46.6977 30.8196 46.9083 30.6029 47.1187Z" fill="black"/>
<path d="M27.4506 47.1187C27.5049 47.0659 28.1007 46.4875 28.1007 46.4875L28.7394 47.0793C28.7394 47.0793 28.239 47.5649 28.1827 47.6196L28.9012 48.3172H27.8344L27.4506 47.9445L27.0667 48.3172H26L26.7186 47.6196C26.6623 47.5649 26.1619 47.0793 26.1619 47.0793L26.8005 46.4875C27.0175 46.6977 27.234 46.9083 27.4506 47.1187Z" fill="black"/>
<path d="M33.7534 64.2437C33.6991 64.2964 33.1033 64.8748 33.1033 64.8748L32.4646 64.2831C32.4646 64.2831 32.965 63.7976 33.0213 63.7428L32.3027 63.0453H33.3695L33.7534 63.418L34.1373 63.0453H35.204L34.4854 63.7428C34.5417 63.7976 35.042 64.2831 35.042 64.2831L34.4035 64.8748C34.1865 64.6647 33.97 64.4541 33.7534 64.2437Z" fill="black"/>
<path d="M30.6029 64.2437C30.5487 64.2964 29.9529 64.8748 29.9529 64.8748L29.3142 64.2831C29.3142 64.2831 29.8145 63.7976 29.8709 63.7428L29.1523 63.0453H30.219L30.6029 63.418L30.9868 63.0453H32.0535L31.335 63.7428C31.3913 63.7976 31.8916 64.2831 31.8916 64.2831L31.2531 64.8748C31.0361 64.6647 30.8196 64.4541 30.6029 64.2437Z" fill="black"/>
<path d="M27.4506 64.2437C27.5049 64.2964 28.1007 64.8748 28.1007 64.8748L28.7394 64.2831C28.7394 64.2831 28.239 63.7976 28.1827 63.7428L28.9012 63.0453H27.8344L27.4506 63.418L27.0667 63.0453H26L26.7186 63.7428C26.6623 63.7976 26.1619 64.2831 26.1619 64.2831L26.8005 64.8748C27.0175 64.6647 27.234 64.4541 27.4506 64.2437Z" fill="black"/>
<path d="M19.6078 56.3426V56.9499L18.1522 56.0253L17.5161 56.5169L16.9525 56.4515L16.7168 56.118L17.288 55.6812L16.7168 55.2444L16.9526 54.911L17.5161 54.8456L18.1522 55.3371L19.6078 54.4125V55.0198L18.5666 55.6812L19.6078 56.3426Z" fill="#1E9A1C"/>
<path d="M19.6078 53.5269V54.1343L18.1522 53.2097L17.5161 53.7012L16.9525 53.6358L16.7168 53.3024L17.288 52.8656L16.7168 52.4289L16.9526 52.0954L17.5161 52.0299L18.1522 52.5214L19.6078 51.5969V52.2042L18.5666 52.8656L19.6078 53.5269Z" fill="#1E9A1C"/>
<path d="M19.6078 57.8355V57.2281L18.1522 58.1528L17.5161 57.6611L16.9525 57.7265L16.7168 58.06L17.288 58.4968L16.7168 58.9336L16.9526 59.2671L17.5161 59.3325L18.1522 58.841L19.6078 59.7656V59.1582L18.5666 58.4968L19.6078 57.8355Z" fill="#1E9A1C"/>
<path d="M41.5957 56.3426V56.9499L43.0513 56.0253L43.6873 56.5169L44.2509 56.4515L44.4866 56.118L43.9154 55.6812L44.4866 55.2444L44.2509 54.911L43.6873 54.8456L43.0513 55.3371L41.5957 54.4125V55.0198L42.6368 55.6812L41.5957 56.3426Z" fill="#1E9A1C"/>
<path d="M41.5957 53.5269V54.1343L43.0513 53.2097L43.6873 53.7012L44.2509 53.6358L44.4866 53.3024L43.9154 52.8656L44.4866 52.4289L44.2509 52.0954L43.6873 52.0299L43.0513 52.5214L41.5957 51.5969V52.2042L42.6368 52.8656L41.5957 53.5269Z" fill="#1E9A1C"/>
<path d="M41.5957 57.8355V57.2281L43.0513 58.1528L43.6873 57.6611L44.2509 57.7265L44.4866 58.06L43.9154 58.4968L44.4866 58.9336L44.2509 59.2671L43.6873 59.3325L43.0513 58.841L41.5957 59.7656V59.1582L42.6368 58.4968L41.5957 57.8355Z" fill="#1E9A1C"/>
<path d="M39.0054 47.2317V47.9781H39.7517V48.7491H39.0864V48.2315H38.2344V47.2317H39.0054Z" fill="#1E9A1C"/>
<path d="M41.5151 49.0785V49.8248H42.2614V50.5959H41.596V50.0783H40.7441V49.0785H41.5151Z" fill="#1E9A1C"/>
<path d="M22.1994 47.2317V47.9781H21.4531V48.7491H22.1185V48.2315H22.9704V47.2317H22.1994Z" fill="#1E9A1C"/>
<path d="M39.0054 64.1306V63.3843H39.7517V62.6133H39.0864V63.1308H38.2344V64.1306H39.0054Z" fill="#1E9A1C"/>
<path d="M22.1995 64.1306V63.3843H21.4531V62.6133H22.1185V63.1308H22.9705V64.1306H22.1995Z" fill="#1E9A1C"/>
<path d="M41.5151 62.2838V61.5375H42.2614V60.7665H41.596V61.284H40.7441V62.2838H41.5151Z" fill="#1E9A1C"/>
<path d="M19.6877 49.0785V49.8248H18.9414V50.5959H19.6068V50.0783H20.4587V49.0785H19.6877Z" fill="#1E9A1C"/>
<path d="M19.6878 62.2838V61.5375H18.9414V60.7665H19.6068V61.284H20.4588V62.2838H19.6878Z" fill="#1E9A1C"/>
<path d="M33.1014 46.6057C33.1546 46.6573 33.7529 47.2381 33.7529 47.2381C33.7529 47.2381 34.3511 46.6573 34.4043 46.6057C34.4547 46.6523 34.8614 47.0291 34.917 47.0807C34.8594 47.1365 34.3618 47.6196 34.3618 47.6196L34.992 48.2315H34.1716L33.7529 47.8249L33.3341 48.2315H32.5137L33.1439 47.6196C33.1439 47.6196 32.6463 47.1365 32.5887 47.0807C32.6444 47.0291 33.051 46.6523 33.1014 46.6057Z" fill="#1E9A1C"/>
<path d="M29.9512 46.6057C30.0043 46.6573 30.6025 47.2381 30.6025 47.2381C30.6025 47.2381 31.2007 46.6573 31.254 46.6057C31.3044 46.6523 31.711 47.0291 31.7666 47.0807C31.7092 47.1365 31.2115 47.6196 31.2115 47.6196L31.8418 48.2315H31.0212L30.6025 47.8249L30.1838 48.2315H29.3633L29.9935 47.6196C29.9935 47.6196 29.4959 47.1365 29.4384 47.0807C29.4941 47.0291 29.9008 46.6523 29.9512 46.6057Z" fill="#1E9A1C"/>
<path d="M28.1015 46.6057C28.0483 46.6573 27.4501 47.2381 27.4501 47.2381C27.4501 47.2381 26.8519 46.6573 26.7987 46.6057C26.7483 46.6523 26.3416 47.0291 26.2859 47.0807C26.3435 47.1365 26.8412 47.6196 26.8412 47.6196L26.2109 48.2315H27.0314L27.4501 47.8249L27.8689 48.2315H28.6893L28.0591 47.6196C28.0591 47.6196 28.5567 47.1365 28.6143 47.0807C28.5586 47.0291 28.1519 46.6523 28.1015 46.6057Z" fill="#1E9A1C"/>
<path d="M33.1014 64.7567C33.1546 64.705 33.7529 64.1242 33.7529 64.1242C33.7529 64.1242 34.3511 64.705 34.4043 64.7567C34.4547 64.7101 34.8614 64.3333 34.917 64.2818C34.8594 64.2259 34.3618 63.7429 34.3618 63.7429L34.992 63.131H34.1716L33.7529 63.5374L33.3341 63.131H32.5137L33.1439 63.7429C33.1439 63.7429 32.6463 64.2259 32.5887 64.2818C32.6444 64.3333 33.051 64.7101 33.1014 64.7567Z" fill="#1E9A1C"/>
<path d="M29.9512 64.7567C30.0043 64.705 30.6025 64.1242 30.6025 64.1242C30.6025 64.1242 31.2007 64.705 31.254 64.7567C31.3044 64.7101 31.711 64.3333 31.7666 64.2818C31.7092 64.2259 31.2115 63.7429 31.2115 63.7429L31.8418 63.131H31.0212L30.6025 63.5374L30.1838 63.131H29.3633L29.9935 63.7429C29.9935 63.7429 29.4959 64.2259 29.4384 64.2818C29.4941 64.3333 29.9008 64.7101 29.9512 64.7567Z" fill="#1E9A1C"/>
<path d="M28.1015 64.7567C28.0483 64.705 27.4501 64.1242 27.4501 64.1242C27.4501 64.1242 26.8519 64.705 26.7987 64.7567C26.7483 64.7101 26.3416 64.3333 26.2859 64.2818C26.3435 64.2259 26.8412 63.7429 26.8412 63.7429L26.2109 63.131H27.0314L27.4501 63.5374L27.8689 63.131H28.6893L28.0591 63.7429C28.0591 63.7429 28.5567 64.2259 28.6143 64.2818C28.5586 64.3333 28.1519 64.7101 28.1015 64.7567Z" fill="#1E9A1C"/>
<path d="M22.1176 61.2841V63.1309H39.0847V61.2841H41.5949V50.0782H39.0847V48.2314H22.1176V50.0782H19.6074V61.2841H22.1176Z" fill="black"/>
<path d="M22.2098 48.3155V50.1589H19.6992V61.1969H22.2098V63.0403H39V61.1969H41.5108V50.1588H38.9999V48.3154L22.2098 48.3155ZM23.2903 49.0254H37.9196V50.805L38.5234 51.2501H40.801V60.1165H38.5129L37.9196 60.5508V62.341H23.2903V60.5613L22.6865 60.1165H20.3984V51.2501H22.6759L23.2903 50.805L23.2903 49.0254Z" fill="#FDD406"/>
<path d="M23.3736 49.1101V50.7416L25.577 49.1101H23.3736ZM35.6192 49.1101L37.8226 50.7416V49.1101H35.6192ZM20.4922 51.3349V52.8603L22.5685 51.3349H20.4922ZM38.628 51.3349L40.7148 52.8708V51.3349H38.628ZM40.7148 58.485L38.628 60.0318H40.7148V58.485ZM20.4922 58.4955V60.0318H22.5685L20.4922 58.4955ZM23.3735 60.625V62.2457H25.5663L23.3735 60.625ZM37.8225 60.625L35.63 62.2457H37.8225V60.625Z" fill="#D91C16"/>
<path d="M35.4776 49.1118C35.5002 49.1284 40.6807 52.9547 40.7151 52.9801V58.3822C40.6807 58.4077 35.5002 62.2339 35.4776 62.2506H25.7257C25.7032 62.2339 20.5227 58.4077 20.4883 58.3822V52.9801C20.5227 52.9547 25.7032 49.1284 25.7257 49.1118H35.4776Z" fill="#1E9A1C"/>
<path d="M21.735 59.0042L21.1328 58.3053L21.6981 57.6493L21.1328 56.9932L21.6981 56.3373L21.1328 55.6813L21.6981 55.0252L21.1328 54.3692L21.698 53.7131L21.1328 53.0571L21.735 52.3583H39.4673L40.0694 53.0571L39.5041 53.7131L40.0694 54.3692L39.5041 55.0252L40.0694 55.6813L39.5041 56.3373L40.0694 56.9932L39.5041 57.6493L40.0694 58.3053L39.4673 59.0042H21.735ZM33.9241 49.9569L33.2252 49.3547L32.5691 49.9201L31.9131 49.3547L31.2571 49.9201L30.6011 49.3547L29.945 49.9201L29.289 49.3547L28.6331 49.9201L27.977 49.3547L27.2781 49.9569V61.4055L27.977 62.0078L28.6331 61.4425L29.289 62.0077L29.945 61.4423L30.6011 62.0077L31.2571 61.4423L31.9131 62.0077L32.5691 61.4425L33.2252 62.0078L33.9241 61.4055V49.9569Z" fill="black"/>
<path d="M32.5271 49.9961L31.914 49.4678L31.3008 49.9961V61.3661L31.914 61.8944L32.5271 61.3661V49.9961Z" fill="#FDD406"/>
<path d="M29.9021 49.9961L29.2889 49.4678L28.6758 49.9961V61.3661L29.2889 61.8944L29.9021 61.3661V49.9961Z" fill="#FDD406"/>
<path d="M21.7743 58.9185L21.2461 58.3053L21.7743 57.6921H39.4281L39.9564 58.3053L39.4281 58.9185H21.7743Z" fill="#FDD406"/>
<path d="M39.428 55.0679L39.9564 55.6811L39.428 56.2942H21.7745L21.2461 55.6811L21.7745 55.0679H39.428Z" fill="#FDD406"/>
<path d="M39.4281 53.6704L39.9564 53.0572L39.4281 52.4441H21.7743L21.2461 53.0572L21.7743 53.6704H39.4281Z" fill="#FDD406"/>
<path d="M33.8396 49.9961L33.2265 49.4678L32.6133 49.9961V61.3661L33.2265 61.8944L33.8394 61.3662L33.8396 49.9961Z" fill="#D91C16"/>
<path d="M28.5897 49.9961L27.9765 49.4678L27.3633 49.9961V61.3661L27.9765 61.8944L28.5897 61.3661V49.9961Z" fill="#D91C16"/>
<path d="M21.7745 57.6063L21.2461 56.9931L21.7745 56.3799H39.428L39.9564 56.9931L39.428 57.6063H21.7745Z" fill="#D91C16"/>
<path d="M21.7745 54.9824L21.2461 54.3692L21.7745 53.756H39.428L39.9564 54.3692L39.428 54.9824H21.7745Z" fill="#D91C16"/>
<path d="M31.2147 61.3661L30.6015 61.8944L29.9883 61.3661V49.9961L30.6015 49.4678L31.2147 49.9961V61.3661Z" fill="#D91C16"/>
<path d="M36.5277 50.218H24.6316V51.1628H23.1113V60.1997H24.6316V61.1444H36.5705V60.1997H38.0908V51.1628H36.5705V50.218H36.5277Z" fill="black"/>
<path d="M24.7188 50.3069V51.2499H23.1934V60.1164H24.7188V61.0591H25.9688L23.4794 58.9723V52.3937L25.9688 50.3069H24.7188ZM35.238 50.3069L37.7167 52.3937V58.9723L35.238 61.0591H36.4879V60.1164H38.0028V51.2499H36.4879V50.3069L35.238 50.3069Z" fill="#D91C16"/>
<path d="M26.1088 50.3069C26.0853 50.3267 23.5965 52.4109 23.5664 52.4361V58.9297C23.5965 58.9551 26.0853 61.0392 26.1088 61.059H35.1024C35.126 61.0392 37.6041 58.9549 37.6342 58.9297V52.4361C37.604 52.4109 35.126 50.3267 35.1024 50.3069H26.1088ZM26.2359 50.6671H34.9647L37.274 52.6056V58.7603L34.9647 60.6882H26.2359L23.9372 58.7603V52.6056L26.2359 50.6671Z" fill="#1E9A1C"/>
<path d="M28.5479 58.8577L28.9386 59.0265L29.0105 59.4829L28.5186 59.9156L29.2331 60.6064H28.5456L28.0541 60.1333L27.5625 60.6064H26.875L27.5896 59.9156L27.0976 59.4829L27.1696 59.0265L27.5602 58.8577L28.0541 59.2526L28.0809 59.2312L28.5479 58.8577Z" fill="#1E9A1C"/>
<path d="M31.0988 58.8577L31.4894 59.0265L31.5614 59.4829L31.0695 59.9156L31.784 60.6064H31.0965L30.6049 60.1333L30.1134 60.6064H29.4258L30.1404 59.9156L29.6485 59.4829L29.7205 59.0265L30.1111 58.8577L30.6049 59.2526L30.6317 59.2312L31.0988 58.8577Z" fill="#1E9A1C"/>
<path d="M32.6579 58.8577L32.2673 59.0265L32.1953 59.4829L32.6871 59.9156L31.9727 60.6064H32.6601L33.1518 60.1333L33.6433 60.6064H34.3308L33.6163 59.9156L34.1082 59.4829L34.0362 59.0265L33.6456 58.8577L33.1518 59.2526L33.1249 59.2312L32.6579 58.8577Z" fill="#1E9A1C"/>
<path d="M28.5479 52.5045L28.9386 52.3357L29.0105 51.8794L28.5186 51.4467L29.2331 50.7559H28.5456L28.0541 51.2289L27.5625 50.7559H26.875L27.5896 51.4467L27.0976 51.8793L27.1696 52.3357L27.5602 52.5045L28.0541 52.1097L28.0809 52.1311L28.5479 52.5045Z" fill="#1E9A1C"/>
<path d="M31.0988 52.5045L31.4894 52.3357L31.5614 51.8794L31.0695 51.4467L31.784 50.7559H31.0965L30.6049 51.2289L30.1134 50.7559H29.4258L30.1404 51.4467L29.6485 51.8793L29.7205 52.3357L30.1111 52.5045L30.6049 52.1097L30.6317 52.1311L31.0988 52.5045Z" fill="#1E9A1C"/>
<path d="M32.6579 52.5045L32.2673 52.3357L32.1953 51.8794L32.6871 51.4467L31.9727 50.7559H32.6601L33.1518 51.2289L33.6433 50.7559H34.3308L33.6163 51.4467L34.1082 51.8793L34.0362 52.3357L33.6456 52.5045L33.1518 52.1097L33.1249 52.1311L32.6579 52.5045Z" fill="#1E9A1C"/>
<path d="M37.1856 53.2332L36.7956 53.5561L37.1856 53.8789V54.4142L36.5858 53.92C36.5858 53.92 36.1825 54.2854 36.1554 54.31C36.1208 54.3056 35.7323 54.2568 35.6939 54.252C35.6767 54.2204 35.5554 53.9968 35.5312 53.952C35.5715 53.9119 35.9285 53.5561 35.9285 53.5561C35.9285 53.5561 35.5715 53.2002 35.5312 53.1601C35.5554 53.1154 35.6767 52.8916 35.6939 52.8601C35.7323 52.8553 36.1208 52.8064 36.1554 52.802C36.1825 52.8266 36.5858 53.1922 36.5858 53.1922L37.1856 52.698V53.2332Z" fill="#1E9A1C"/>
<path d="M37.1856 55.3582L36.7956 55.6811L37.1856 56.0038V56.5392L36.5858 56.045C36.5858 56.045 36.1825 56.4104 36.1554 56.435C36.1208 56.4306 35.7323 56.3817 35.6939 56.377C35.6767 56.3454 35.5554 56.1216 35.5312 56.077C35.5715 56.0369 35.9285 55.6811 35.9285 55.6811C35.9285 55.6811 35.5715 55.3251 35.5312 55.285C35.5554 55.2404 35.6767 55.0166 35.6939 54.985C35.7323 54.9803 36.1208 54.9314 36.1554 54.927C36.1825 54.9516 36.5858 55.317 36.5858 55.317L37.1856 54.823V55.3582Z" fill="#1E9A1C"/>
<path d="M37.1856 58.129L36.7956 57.8061L37.1856 57.4833V56.948L36.5858 57.4423C36.5858 57.4423 36.1825 57.0768 36.1554 57.0522C36.1208 57.0565 35.7323 57.1054 35.6939 57.1101C35.6767 57.1417 35.5554 57.3655 35.5312 57.4101C35.5715 57.4503 35.9285 57.8061 35.9285 57.8061C35.9285 57.8061 35.5715 58.162 35.5312 58.2021C35.5554 58.2468 35.6767 58.4706 35.6939 58.5021C35.7323 58.5069 36.1208 58.5558 36.1554 58.5601C36.1825 58.5355 36.5858 58.1701 36.5858 58.1701L37.1856 58.6642V58.129Z" fill="#1E9A1C"/>
<path d="M24.0234 53.2333L24.4133 53.5562L24.0234 53.879V54.4144L24.6232 53.9201C24.6232 53.9201 25.0265 54.2855 25.0536 54.3101C25.0881 54.3058 25.4768 54.2569 25.5152 54.2521C25.5323 54.2206 25.6535 53.9969 25.6778 53.9521C25.6376 53.912 25.2806 53.5562 25.2806 53.5562C25.2806 53.5562 25.6376 53.2003 25.6778 53.1602C25.6535 53.1155 25.5323 52.8917 25.5152 52.8602C25.4768 52.8554 25.0881 52.8065 25.0536 52.8022C25.0265 52.8268 24.6232 53.1923 24.6232 53.1923L24.0234 52.6981V53.2333Z" fill="#1E9A1C"/>
<path d="M24.0234 55.3583L24.4133 55.6812L24.0234 56.0039V56.5394L24.6232 56.0451C24.6232 56.0451 25.0265 56.4105 25.0536 56.4351C25.0881 56.4308 25.4768 56.3818 25.5152 56.3771C25.5323 56.3456 25.6535 56.1218 25.6778 56.0771C25.6376 56.037 25.2806 55.6812 25.2806 55.6812C25.2806 55.6812 25.6376 55.3252 25.6778 55.2851C25.6535 55.2405 25.5323 55.0167 25.5152 54.9851C25.4768 54.9804 25.0881 54.9315 25.0536 54.9272C25.0265 54.9518 24.6232 55.3172 24.6232 55.3172L24.0234 54.8231V55.3583Z" fill="#1E9A1C"/>
<path d="M24.0234 58.129L24.4133 57.8061L24.0234 57.4833V56.948L24.6232 57.4423C24.6232 57.4423 25.0265 57.0768 25.0536 57.0522C25.0881 57.0565 25.4768 57.1054 25.5152 57.1101C25.5323 57.1417 25.6535 57.3655 25.6778 57.4101C25.6376 57.4503 25.2806 57.8061 25.2806 57.8061C25.2806 57.8061 25.6376 58.162 25.6778 58.2021C25.6535 58.2468 25.5323 58.4706 25.5152 58.5021C25.4768 58.5069 25.0881 58.5558 25.0536 58.5601C25.0265 58.5355 24.6232 58.1701 24.6232 58.1701L24.0234 58.6642V58.129Z" fill="#1E9A1C"/>
<path d="M26.2653 50.7522C26.2421 50.7716 24.1449 52.5274 24.0513 52.606C24.2404 52.7627 24.4232 52.9266 24.6128 53.0827C24.6607 53.0393 25.0259 52.7118 25.0259 52.7118L25.5661 52.786L25.778 53.1779C25.778 53.1779 25.4485 53.5077 25.3966 53.5593C25.4485 53.6108 25.778 53.9406 25.778 53.9406L25.5661 54.3326L25.0259 54.3961C25.0259 54.3961 24.6608 54.0794 24.6128 54.036L24.0195 54.5339V54.7033C24.2191 54.8685 24.4125 55.0362 24.6128 55.2012C24.6607 55.1579 25.0259 54.8411 25.0259 54.8411L25.5661 54.9046L25.778 55.2966C25.778 55.2966 25.4485 55.6263 25.3966 55.6779C25.4485 55.7294 25.778 56.0593 25.778 56.0593L25.5661 56.4618L25.0259 56.5254C25.0259 56.5254 24.6608 56.1981 24.6128 56.1546L24.0195 56.6525V56.8326L24.6128 57.3305C24.6607 57.2871 25.0259 56.9597 25.0259 56.9597L25.5661 57.0339L25.778 57.4258C25.778 57.4258 25.4485 57.7556 25.3966 57.8072C25.4485 57.8588 25.778 58.1885 25.778 58.1885L25.5661 58.5805L25.0259 58.6546C25.0259 58.6546 24.6608 58.3273 24.6128 58.2839C24.424 58.4393 24.2397 58.5946 24.0513 58.75C24.1449 58.8286 26.2421 60.5843 26.2653 60.6038H26.7526L27.4623 59.9152L27.0068 59.5127L27.0916 58.9618L27.5683 58.7606L28.0555 59.1419L28.5322 58.7606L29.0089 58.9618L29.1043 59.5127L28.6382 59.9152L29.3267 60.572L30.0153 59.9152L29.5492 59.5127L29.6339 58.9618L30.1212 58.7606L30.5979 59.1419L31.0852 58.7606L31.5619 58.9618L31.6466 59.5127L31.1911 59.9152L31.8691 60.5826L32.5577 59.9152L32.1022 59.5127L32.1869 58.9618L32.6742 58.7606L33.1509 59.1419L33.6276 58.7606L34.1149 58.9618L34.1996 59.5127L33.7441 59.9152L34.4538 60.6038H34.9305C34.9537 60.5843 37.0508 58.8286 37.1445 58.75C36.9558 58.5946 36.7721 58.4397 36.5831 58.2839C36.5351 58.3273 36.1805 58.6546 36.1805 58.6546L35.6403 58.5805L35.4178 58.1885C35.4178 58.1885 35.7475 57.8588 35.7992 57.8072C35.7475 57.7556 35.4178 57.4258 35.4178 57.4258L35.6403 57.0339L36.1805 56.9597C36.1805 56.9597 36.5351 57.2871 36.5831 57.3305L37.1763 56.8326V56.6525L36.5831 56.1546C36.5351 56.1981 36.1805 56.5254 36.1805 56.5254L35.6403 56.4618L35.4178 56.0593C35.4178 56.0593 35.7475 55.7294 35.7992 55.6779C35.7475 55.6263 35.4178 55.2966 35.4178 55.2966L35.6403 54.9046L36.1805 54.8411C36.1805 54.8411 36.5351 55.1579 36.5831 55.2012C36.782 55.0374 36.9778 54.8772 37.1763 54.7139V54.5233L36.5831 54.036C36.5351 54.0794 36.1805 54.3961 36.1805 54.3961L35.6403 54.3326L35.4178 53.9406C35.4178 53.9406 35.7475 53.6108 35.7992 53.5593C35.7475 53.5077 35.4178 53.1779 35.4178 53.1779L35.6403 52.786L36.1805 52.7118C36.1805 52.7118 36.5351 53.0393 36.5831 53.0826C36.7729 52.9262 36.9653 52.7729 37.1551 52.6165C37.0822 52.5553 34.9538 50.7716 34.9305 50.7521H34.4538L33.7441 51.4406L34.1996 51.8432L34.1149 52.394L33.6276 52.6059L33.1509 52.2245L32.6742 52.6059L32.1869 52.394L32.1021 51.8432L32.5577 51.4406L31.8797 50.7839L31.1911 51.4406L31.6466 51.8432L31.5619 52.394L31.0852 52.6059L30.5979 52.2245L30.1212 52.6059L29.6339 52.394L29.5492 51.8432L30.0153 51.4406L29.3267 50.7839L28.6382 51.4406L29.1043 51.8432L29.0089 52.394L28.5322 52.6059L28.0555 52.2245L27.5682 52.6059L27.0916 52.394L27.0068 51.8432L27.4623 51.4406L26.742 50.7521L26.2653 50.7522ZM24.0195 55.4661V55.9004L24.2738 55.678L24.0195 55.4661Z" fill="#D91C16"/>
<path d="M28.0544 60.2542L27.6836 60.6036H28.4144L28.0544 60.2542Z" fill="white"/>
<path d="M30.5983 60.2542L30.2383 60.6036H30.9691L30.5983 60.2542Z" fill="white"/>
<path d="M33.1518 60.2542L32.7812 60.6036H33.5226L33.1518 60.2542Z" fill="white"/>
<path d="M27.6738 50.7522L28.0552 51.1122L28.426 50.7522H27.6738Z" fill="white"/>
<path d="M30.2266 50.7522L30.5974 51.1122L30.9788 50.7522H30.2266Z" fill="white"/>
<path d="M32.7812 50.7522L33.1518 51.1122L33.5226 50.7522H32.7812Z" fill="white"/>
<path d="M37.1761 53.3474L36.9219 53.5593L37.1761 53.7606V53.3474Z" fill="white"/>
<path d="M37.1761 55.4659L36.9219 55.6778L37.1761 55.8897V55.4659Z" fill="white"/>
<path d="M37.1761 57.5952L36.9219 57.8071L37.1761 58.0189V57.5952Z" fill="white"/>
<path d="M24.0195 53.337V53.7713L24.2738 53.5594L24.0195 53.337Z" fill="white"/>
<path d="M24.0195 55.4659V55.9002L24.2738 55.6778L24.0195 55.4659Z" fill="white"/>
<path d="M24.0195 57.5848V58.0191L24.2738 57.8072L24.0195 57.5848Z" fill="white"/>
<path d="M32.7823 54.9714V54.2131H32.0149V53.3818H29.1886V54.2131H28.4212V54.9714H27.3613V56.391H28.4212V57.1491H29.1886V57.9805H32.0149V57.1491H32.7823V56.391H33.842V54.9714H32.7823Z" fill="black"/>
<path d="M30.559 53.4675V54.3244L29.3441 55.015V55.6383H27.4473V55.057H28.507V54.2989H29.2744V53.4675H30.559Z" fill="#FDD406"/>
<path d="M30.6445 57.8949V57.038L31.8593 56.3473V55.7241H33.7562V56.3053H32.6965V57.0636H31.9291V57.8949H30.6445Z" fill="#FDD406"/>
<path d="M31.8593 55.6383V55.015L30.6445 54.3244V53.4675H31.9291V54.2989H32.6965V55.057H33.7562V55.6383H31.8593Z" fill="white"/>
<path d="M27.4473 55.7241H29.3441V56.3473L30.559 57.038V57.8949H29.2744V57.0636H28.507V56.3053H27.4473V55.7241Z" fill="white"/>
<path d="M29.4297 55.7241V56.3018L30.5588 56.9438V55.7241H29.4297Z" fill="#D91C16"/>
<path d="M30.5588 54.4187L29.4297 55.0606V55.6383H30.5588V54.4187Z" fill="#1E9A1C"/>
<path d="M31.7736 55.6384V55.0607L30.6445 54.4188V55.6384H31.7736Z" fill="#D91C16"/>
<path d="M30.6445 56.9438L31.7736 56.3018V55.7241H30.6445V56.9438Z" fill="#1E9A1C"/>
<path d="M20.3304 70.746V73.0894H18.0973V75.2148H15.834V81.2665H18.0973V83.392H20.3304V85.7353H28.4499L29.8778 86.5933L29.1917 87.0055H26.2964L26.0467 86.7239H28.6705L27.9313 85.9795H24.1781L25.8786 87.7499H29.3982L30.6005 87.0275L31.8027 87.7499H35.3226L37.023 85.9795H33.2699L32.5305 86.7239H35.1545L34.9046 87.0055H32.0093L31.3231 86.5933L32.7511 85.7353H40.8707V83.392H43.1037V81.2665H45.3669V75.2148H43.1037V73.0894H40.8707V70.746H32.7511L31.3231 69.8881L32.0093 69.4758H34.9046L35.1545 69.7574H32.5305L33.2699 70.5018H37.023L35.3226 68.7314H31.8027L30.6005 69.4538L29.3982 68.7314H25.8786L24.1781 70.5018H27.9313L28.6705 69.7574H26.0467L26.2964 69.4758H29.1917L29.8778 69.8881L28.4499 70.746H20.3304Z" fill="#D91C16"/>
<path d="M32.7255 85.646H40.7869V83.3049H43.0115V81.1757H45.2784V75.2964H43.0115V73.1778H40.7869V70.8367H32.7255L29.378 68.8134H25.914L24.378 70.4129H27.895L28.467 69.8409H25.8505L26.253 69.3854H29.2191L33.0115 71.6735H39.9395V74.0146H42.1746V76.1439H44.4416V80.3388H42.1746V82.468H39.9395V84.8091H33.0115L29.2191 87.0867H26.253L25.8505 86.6418H28.467L27.895 86.0697H24.378L25.914 87.6693H29.378L32.7255 85.646ZM28.181 84.8091H21.253V82.468H19.0285V80.3388H16.7615V76.1439H19.0285V74.0146H21.253V71.6735H28.181L31.984 69.3854H34.9395L35.342 69.8409H32.7361L33.3081 70.4129H36.8251L35.2891 68.8134H31.8251L28.4776 70.8367H20.4162V73.1778H18.181V75.2964H15.9141V81.1757H18.181V83.3049H20.4162V85.646H28.4776L31.8251 87.6693H35.2891L36.8251 86.0697H33.3081L32.7361 86.6418H35.342L34.9395 87.0867H31.984L28.181 84.8091Z" fill="#FDD406"/>
<path d="M39.2697 81.7908V84.1341H32.8296L30.6007 85.4733L28.3719 84.1341H21.9319V81.7908H19.6987V79.6652H17.4355V76.8161H19.6987V74.6905H21.9319V72.3473H28.36H28.3719L30.6007 71.0081L32.8296 72.3473H39.2697V74.6905H41.5027V76.8161H43.7659V79.6652H41.5027V81.7908H39.2697Z" fill="#1E9A1C"/>
<path d="M22.7754 80.9698V83.2378H26.3154L22.7754 80.8899V80.9698Z" fill="black"/>
<path d="M22.7754 75.5117V73.2435H26.3154L22.7754 75.5914V75.5117Z" fill="black"/>
<path d="M38.4267 80.9698V83.2378H34.8867L38.4267 80.8899V80.9698Z" fill="black"/>
<path d="M38.4267 75.5117V73.2435H34.8867L38.4267 75.5914V75.5117Z" fill="black"/>
<path d="M22.8613 81.0497L26.0312 83.1522H22.8613V81.0497Z" fill="#D91C16"/>
<path d="M22.8613 75.4319C22.9846 75.35 25.8152 73.4725 26.0312 73.3293H22.8613V75.4319Z" fill="#D91C16"/>
<path d="M38.3418 81.0496C38.2184 81.1314 35.3878 83.0088 35.1719 83.1521H38.3418V81.0496Z" fill="#D91C16"/>
<path d="M38.3418 75.4319C38.2184 75.3501 35.3878 73.4726 35.1719 73.3293H38.3418V75.4319Z" fill="#D91C16"/>
<path d="M27.2899 77.6189V76.4606H26.8948L24.9996 75.2756L24.9769 75.2899L23.1044 76.4606H22.7094V77.6189H21.8184V78.8628H22.7094V80.0209H23.1044L24.9996 81.2059L26.8948 80.0209H27.2899V78.8628H28.6462V77.6189H27.2899Z" fill="black"/>
<path d="M24.999 75.377L26.7327 76.4608H23.2656L24.999 75.377ZM26.7324 80.0211L24.999 81.1049L23.2657 80.0211H26.7324Z" fill="#D91C16"/>
<path d="M26.3141 77.7047V78.7773H24.1523V77.7047H26.3141Z" fill="#D91C16"/>
<path d="M27.2048 78.8627V79.9352H25.043V78.8627H27.2048Z" fill="#FDD406"/>
<path d="M24.9587 78.8628V79.9354H22.7969V78.8628H24.9587Z" fill="#FDD406"/>
<path d="M28.5602 77.7047V78.7773H26.3984V77.7047H28.5602Z" fill="#FDD406"/>
<path d="M24.0661 77.7047V78.7773H21.9043V77.7047H24.0661Z" fill="#FDD406"/>
<path d="M27.2048 76.5465V77.619H25.043V76.5465H27.2048Z" fill="#FDD406"/>
<path d="M24.9587 76.5465V77.619H22.7969V76.5465H24.9587Z" fill="#FDD406"/>
<path d="M23.471 77.9429V78.5388H22.5V77.9429H23.471Z" fill="black"/>
<path d="M24.3617 76.7847V77.3806H23.3906V76.7847H24.3617Z" fill="black"/>
<path d="M26.6097 76.7847V77.3806H25.6387V76.7847H26.6097Z" fill="black"/>
<path d="M25.7171 77.9429V78.5388H24.7461V77.9429H25.7171Z" fill="black"/>
<path d="M27.9652 77.9429V78.5388H26.9941V77.9429H27.9652Z" fill="black"/>
<path d="M26.6097 79.1011V79.697H25.6387V79.1011H26.6097Z" fill="black"/>
<path d="M24.3617 79.1011V79.697H23.3906V79.1011H24.3617Z" fill="black"/>
<path d="M23.38 78.0343H22.5918V78.4473H23.38V78.0343Z" fill="white"/>
<path d="M24.2725 76.8761H23.4844V77.2891H24.2725V76.8761Z" fill="white"/>
<path d="M26.5186 76.8761H25.7305V77.2891H26.5186V76.8761Z" fill="white"/>
<path d="M25.628 78.0343H24.8398V78.4473H25.628V78.0343Z" fill="white"/>
<path d="M27.8741 78.0343H27.0859V78.4473H27.8741V78.0343Z" fill="white"/>
<path d="M26.5186 79.1925H25.7305V79.6055H26.5186V79.1925Z" fill="white"/>
<path d="M24.2725 79.1925H23.4844V79.6055H24.2725V79.1925Z" fill="white"/>
<path d="M33.9113 77.6189V76.4606H34.3063L36.2016 75.2756L36.2243 75.2899L38.0968 76.4606H38.4918V77.6189H39.3828V78.8628H38.4918V80.0209H38.0968L36.2016 81.2059L34.3063 80.0209H33.9113V78.8628H32.5549V77.6189H33.9113Z" fill="black"/>
<path d="M36.2002 75.3768L34.4666 76.4607H37.9336L36.2002 75.3768ZM34.4668 80.021L36.2002 81.1048L37.9335 80.021H34.4668Z" fill="#D91C16"/>
<path d="M34.889 77.7046V78.7771H37.0508V77.7046H34.889Z" fill="#D91C16"/>
<path d="M33.9964 78.8627V79.9352H36.1582V78.8627H33.9964Z" fill="#FDD406"/>
<path d="M36.2444 78.8627V79.9352H38.4062V78.8627H36.2444Z" fill="#FDD406"/>
<path d="M32.639 77.7047V78.7773H34.8008V77.7047H32.639Z" fill="#FDD406"/>
<path d="M37.1351 77.7047V78.7773H39.2969V77.7047H37.1351Z" fill="#FDD406"/>
<path d="M33.9964 76.5465V77.619H36.1582V76.5465H33.9964Z" fill="#FDD406"/>
<path d="M36.2444 76.5465V77.619H38.4062V76.5465H36.2444Z" fill="#FDD406"/>
<path d="M37.7301 77.9429V78.5388H38.7012V77.9429H37.7301Z" fill="black"/>
<path d="M36.8395 76.7847V77.3806H37.8105V76.7847H36.8395Z" fill="black"/>
<path d="M34.5915 76.7847V77.3806H35.5625V76.7847H34.5915Z" fill="black"/>
<path d="M35.4821 77.9429V78.5388H36.4531V77.9429H35.4821Z" fill="black"/>
<path d="M33.236 77.9429V78.5388H34.207V77.9429H33.236Z" fill="black"/>
<path d="M34.5915 79.1011V79.697H35.5625V79.1011H34.5915Z" fill="black"/>
<path d="M36.8395 79.1011V79.697H37.8105V79.1011H36.8395Z" fill="black"/>
<path d="M37.8232 78.0343H38.6113V78.4473H37.8232V78.0343Z" fill="white"/>
<path d="M36.9325 76.8761H37.7207V77.2891H36.9325V76.8761Z" fill="white"/>
<path d="M34.6845 76.8761H35.4727V77.2891H34.6845V76.8761Z" fill="white"/>
<path d="M35.5751 78.0343H36.3633V78.4473H35.5751V78.0343Z" fill="white"/>
<path d="M33.329 78.0343H34.1172V78.4473H33.329V78.0343Z" fill="white"/>
<path d="M34.6845 79.1925H35.4727V79.6055H34.6845V79.1925Z" fill="white"/>
<path d="M36.9325 79.1925H37.7207V79.6055H36.9325V79.1925Z" fill="white"/>
<path d="M32.8917 75.6841V76.8422H32.4967L30.6014 78.0272L30.5787 78.013L28.7062 76.8422H28.3112V75.6841H27.1875V74.4402H28.3112V73.282H28.7062L30.6014 72.0969L32.4967 73.282H32.8917V74.4402H34.0154V75.6841H32.8917Z" fill="black"/>
<path d="M30.6006 77.9261L32.3341 76.8421H28.8672L30.6006 77.9261ZM32.334 73.282L30.6006 72.198L28.8673 73.282H32.334Z" fill="#FDD406"/>
<path d="M32.8063 74.4401V73.3677H30.6445V74.4401H32.8063Z" fill="#D91C16"/>
<path d="M30.5602 74.4401V73.3677H28.3984V74.4401H30.5602Z" fill="#D91C16"/>
<path d="M33.9313 75.5983V74.5258H31.7695V75.5983H33.9313Z" fill="#D91C16"/>
<path d="M31.6833 75.5983V74.5258H29.5215V75.5983H31.6833Z" fill="#D91C16"/>
<path d="M29.4351 75.5983V74.5258H27.2734V75.5983H29.4351Z" fill="#D91C16"/>
<path d="M32.8063 76.7565V75.684H30.6445V76.7565H32.8063Z" fill="#D91C16"/>
<path d="M30.5602 76.7565V75.684H28.3984V76.7565H30.5602Z" fill="#D91C16"/>
<path d="M29.9632 73.6058V74.2018H28.9922V73.6058H29.9632Z" fill="black"/>
<path d="M32.2113 73.6058V74.2018H31.2402V73.6058H32.2113Z" fill="black"/>
<path d="M28.8402 74.764V75.36H27.8691V74.764H28.8402Z" fill="black"/>
<path d="M31.0882 74.764V75.36H30.1172V74.764H31.0882Z" fill="black"/>
<path d="M33.3343 74.764V75.36H32.3633V74.764H33.3343Z" fill="black"/>
<path d="M29.9632 75.9222V76.5182H28.9922V75.9222H29.9632Z" fill="black"/>
<path d="M32.2113 75.9222V76.5182H31.2402V75.9222H32.2113Z" fill="black"/>
<path d="M29.8741 73.6973H29.0859V74.1103H29.8741V73.6973Z" fill="white"/>
<path d="M32.1202 73.6973H31.332V74.1103H32.1202V73.6973Z" fill="white"/>
<path d="M28.7491 74.8555H27.9609V75.2685H28.7491V74.8555Z" fill="white"/>
<path d="M30.9971 74.8555H30.209V75.2685H30.9971V74.8555Z" fill="white"/>
<path d="M33.2452 74.8555H32.457V75.2685H33.2452V74.8555Z" fill="white"/>
<path d="M29.8741 76.0137H29.0859V76.4267H29.8741V76.0137Z" fill="white"/>
<path d="M32.1202 76.0137H31.332V76.4267H32.1202V76.0137Z" fill="white"/>
<path d="M32.8917 82.0416V83.1997H32.4967L30.6014 84.3847L30.5787 84.3706L28.7062 83.1997H28.3112V82.0416H27.1875V80.7977H28.3112V79.6396H28.7062L30.6014 78.4545L32.4967 79.6396H32.8917V80.7977H34.0154V82.0416H32.8917Z" fill="black"/>
<path d="M30.6006 84.2836L32.3341 83.1997H28.8672L30.6006 84.2836ZM32.334 79.6395L30.6006 78.5555L28.8673 79.6395H32.334Z" fill="#FDD406"/>
<path d="M32.8063 80.7977V79.7252H30.6445V80.7977H32.8063Z" fill="#D91C16"/>
<path d="M30.5602 80.7977V79.7252H28.3984V80.7977H30.5602Z" fill="#D91C16"/>
<path d="M33.9313 81.9559V80.8833H31.7695V81.9559H33.9313Z" fill="#D91C16"/>
<path d="M31.6833 81.9559V80.8833H29.5215V81.9559H31.6833Z" fill="#D91C16"/>
<path d="M29.4351 81.9559V80.8833H27.2734V81.9559H29.4351Z" fill="#D91C16"/>
<path d="M32.8063 83.1141V82.0415H30.6445V83.1141H32.8063Z" fill="#D91C16"/>
<path d="M30.5602 83.1141V82.0415H28.3984V83.1141H30.5602Z" fill="#D91C16"/>
<path d="M29.9632 79.9634V80.5593H28.9922V79.9634H29.9632Z" fill="black"/>
<path d="M32.2113 79.9634V80.5593H31.2402V79.9634H32.2113Z" fill="black"/>
<path d="M28.8402 81.1216V81.7175H27.8691V81.1216H28.8402Z" fill="black"/>
<path d="M31.0882 81.1216V81.7175H30.1172V81.1216H31.0882Z" fill="black"/>
<path d="M33.3343 81.1216V81.7175H32.3633V81.1216H33.3343Z" fill="black"/>
<path d="M29.9632 82.2798V82.8757H28.9922V82.2798H29.9632Z" fill="black"/>
<path d="M32.2113 82.2798V82.8757H31.2402V82.2798H32.2113Z" fill="black"/>
<path d="M29.8741 80.0548H29.0859V80.4678H29.8741V80.0548Z" fill="white"/>
<path d="M32.1202 80.0548H31.332V80.4678H32.1202V80.0548Z" fill="white"/>
<path d="M28.7491 81.213H27.9609V81.626H28.7491V81.213Z" fill="white"/>
<path d="M30.9971 81.213H30.209V81.626H30.9971V81.213Z" fill="white"/>
<path d="M33.2452 81.213H32.457V81.626H33.2452V81.213Z" fill="white"/>
<path d="M29.8741 82.3712H29.0859V82.7843H29.8741V82.3712Z" fill="white"/>
<path d="M32.1202 82.3712H31.332V82.7843H32.1202V82.3712Z" fill="white"/>
<path d="M18.3359 95.8708L26.7463 91.3445H26.7571H34.4541L42.8644 95.8708V103.329L34.4541 107.855H26.7463L18.3359 103.329V95.8708Z" fill="black"/>
<path d="M26.7733 91.4302L18.4258 95.9217V103.273L26.7733 107.765H34.4319L42.7797 103.273V95.9217L34.4319 91.4302H26.7733ZM26.9214 92.0339H34.2838L42.1865 96.2817V102.924L34.2838 107.172H26.917L19.0146 102.924V96.2817L26.9214 92.0339Z" fill="#1E9A1C"/>
<path d="M30.6429 99.5567V107.085H34.262L42.0986 102.867V99.6425L30.5572 99.6425V92.1145H26.9383L19.1016 96.3318V99.5567L30.6429 99.5567Z" fill="#FDD406"/>
<path d="M30.5572 99.5567V107.085H26.9383L19.1016 102.867V99.6425L30.6429 99.6425V92.1145H34.262L42.0986 96.3318V99.5567L30.5572 99.5567Z" fill="white"/>
<path d="M31.3036 106.663V104.488L30.6001 104.934L29.8966 104.488V106.663H27.7083L29.1849 105.58V104.036L26.9329 102.607H25.3594V96.5926H26.9329L29.1849 95.1638V93.6193L27.7083 92.5364H27.8392H29.8966V94.7123L30.6001 94.2659L31.3036 94.7123V92.5364H33.492L32.0153 93.6193V95.1638L34.2672 96.5926H35.8408V102.607H34.2672L32.0153 104.036V105.58L33.492 106.663H31.3036Z" fill="black"/>
<path d="M31.3921 92.627V94.8727L30.6399 94.3961V95.0317L34.0826 97.2242H35.2162V99.5551H35.7565V96.6737H34.2416L31.9324 95.2117V93.5802L33.2352 92.627H31.3921ZM25.4492 99.6398V102.521H26.9535L29.2735 103.993V105.625L27.9704 106.578H29.8138V104.332L30.5552 104.809V104.152L27.1124 101.981H25.9895V99.6398L25.4492 99.6398Z" fill="#FDD406"/>
<path d="M27.9704 92.627L29.2735 93.5802V95.2117L26.9535 96.6737H25.4492V99.5551H25.9895V97.2242H27.1124L30.5552 95.0422V94.3961L29.8138 94.8727V92.627L27.9704 92.627ZM35.2162 99.6398V101.981H34.0826L30.6399 104.152V104.809L31.3921 104.332V106.578H33.2351L31.9324 105.625V103.993L34.2416 102.521H35.7565V99.6398L35.2162 99.6398Z" fill="white"/>
<path d="M26.0703 101.892H27.1378L30.5993 104.088L34.0608 101.892H35.1284V97.3083H34.0732H34.0608L30.5993 95.1122L27.1378 97.3083H26.0703V101.892Z" fill="#D91C16"/>
<path d="M32.9956 100.689H33.7347V100.339H33.1787V99.7036H34.367V101.325H33.2278L33.2279 102.431H30.883V100.842H31.915V101.477H31.5153V101.795H32.5956V101.187L28.2034 98.5108H27.4643V98.8604H28.0204V99.496H26.832V97.8751H27.9712V96.7692H28.014H30.316V98.3582H29.284V97.7226H29.6837V97.4048H28.6035V98.0124L32.9956 100.689ZM32.5956 98.0124V97.4048H31.5153V97.7226H31.915V98.3582H30.883V96.7692H33.2279V97.8751H34.367V99.496H33.1787V98.8604H33.7348V98.5108H32.9956L28.6035 101.187V101.795H29.6837V101.477H29.284V100.841H30.316V102.431H27.9712V101.325H26.832V99.7036H28.0204V100.339H27.4643V100.689H28.2034L32.5956 98.0124Z" fill="black"/>
<path d="M32.6815 101.139V101.881H31.4296V101.392H31.8294V100.927H30.9688V102.345H33.1423V101.239H34.2814V99.7896H33.2645V100.254H33.8205V100.775H32.9717L28.5178 98.0606V97.3193H29.7697V97.8084H29.3699V98.2727H30.2305V96.855H28.057V97.9609H26.918V99.4105H27.9347V98.9462H27.3788V98.4252H28.2275L32.6815 101.139ZM32.9717 98.4252H33.8206V98.9462H33.2645V99.4105H34.2814V97.9609H33.1424V96.855H30.9689V98.2727H31.8294V97.8084H31.4297V97.3193H32.6815V98.0606L28.2275 100.775H27.3788V100.254H27.9347V99.7895H26.918V101.239H28.057V102.345H30.2305V100.927H29.3699V101.392H29.7697V101.881H28.5178V101.139L32.9717 98.4252Z" fill="white"/>
<path d="M40.4096 99.9767V102.329H39.4086V101.498H38.3995V102.329H37.3984V99.9767H38.3995V100.807H39.4086V99.9767H40.4096Z" fill="black"/>
<path d="M36.8276 103.1V105.452H35.8265V104.621H34.8174V105.452H33.8164V103.1H34.8174V103.93H35.8265V103.1H36.8276Z" fill="black"/>
<path d="M40.4096 99.2225V96.8701H39.4086V97.7009H38.3995V96.8701H37.3984V99.2225H38.3995V98.3917H39.4086V99.2225H40.4096Z" fill="black"/>
<path d="M20.793 99.9767V102.329H21.794V101.498H22.8031V102.329H23.8041V99.9767H22.8031V100.807H21.794V99.9767H20.793Z" fill="black"/>
<path d="M20.793 99.2225V96.8701H21.794V97.7009H22.8031V96.8701H23.8041V99.2225H22.8031V98.3917H21.794V99.2225H20.793Z" fill="black"/>
<path d="M36.8276 96.0997V93.7473H35.8265V94.5781H34.8174V93.7473H33.8164V96.0997H34.8174V95.2689H35.8265V96.0997H36.8276Z" fill="black"/>
<path d="M24.375 103.1V105.452H25.376V104.621H26.3851V105.452H27.3862V103.1H26.3851V103.931H25.376V103.1H24.375Z" fill="black"/>
<path d="M24.375 96.0997V93.7473H25.376V94.5781H26.3851V93.7473H27.3862V96.0997H26.3851V95.2689H25.376V96.0997H24.375Z" fill="black"/>
<path d="M37.4258 94.451V96.2375H40.7452L37.4258 94.451Z" fill="black"/>
<path d="M23.7765 104.748V102.962H20.457L23.7765 104.748Z" fill="black"/>
<path d="M23.7765 94.451V96.2375H20.457L23.7765 94.451Z" fill="black"/>
<path d="M37.4258 104.748V102.962H40.7452L37.4258 104.748Z" fill="black"/>
<path d="M39.4945 101.413V102.244H40.3242V100.063H39.4945V100.893H38.3139V100.063H37.4844V102.244H38.3139V101.413H39.4945Z" fill="#D91C16"/>
<path d="M35.9125 104.536V105.366H36.742V103.185H35.9125V104.016H34.7319V103.185H33.9023V105.366H34.7319V104.536H35.9125Z" fill="#D91C16"/>
<path d="M39.4945 97.7867V96.9559H40.3242V99.1368H39.4945V98.3059H38.3139V99.1368H37.4844V96.9559H38.3139V97.7867H39.4945Z" fill="#D91C16"/>
<path d="M21.7065 101.413V102.244H20.877V100.063H21.7065V100.893H22.8871V100.063H23.7166V102.244H22.8871V101.413H21.7065Z" fill="#D91C16"/>
<path d="M21.7065 97.7867V96.9559H20.877V99.1368H21.7065V98.3059H22.8871V99.1368H23.7166V96.9559H22.8871V97.7867H21.7065Z" fill="#D91C16"/>
<path d="M35.9125 94.6639V93.833H36.742V96.014H35.9125V95.1831H34.7319V96.014H33.9023V93.833H34.7319V94.6639H35.9125Z" fill="#D91C16"/>
<path d="M25.2885 104.536V105.366H24.459V103.185H25.2885V104.016H26.4691V103.185H27.2988V105.366H26.4691V104.536H25.2885Z" fill="#D91C16"/>
<path d="M25.2885 94.6639V93.833H24.459V96.014H25.2885V95.1831H26.4691V96.014H27.2988V93.833H26.4691V94.6639H25.2885Z" fill="#D91C16"/>
<path d="M37.515 94.5972V96.1545H40.4072L37.515 94.5972ZM20.799 103.051L23.6909 104.608V103.051H20.799Z" fill="#FDD406"/>
<path d="M23.6908 94.5972L20.7988 96.1545H23.6908V94.5972ZM37.5148 103.051V104.608L40.407 103.051H37.5148Z" fill="white"/>
<path d="M44.1794 106.165C44.0196 106.846 43.4778 107.361 43.3487 108.067C43.0902 107.33 42.8519 106.713 43.0298 105.907C43.1572 105.33 43.6422 104.919 43.6984 104.326C44.2272 104.802 44.3411 105.476 44.1794 106.165ZM44.3135 109.02C43.8649 109.635 43.2414 110.107 42.5528 110.421C42.6884 109.883 42.434 109.477 42.1517 109.049C41.8115 108.535 41.6456 108.029 41.923 107.436C42.0522 107.744 42.2259 108 42.4296 108.264C42.7309 108.675 42.9291 109.04 42.9755 109.568C43.324 109.309 43.4771 108.924 43.6635 108.551C43.9475 108.016 44.4059 107.569 44.9324 107.277C44.7925 107.877 44.6848 108.511 44.3135 109.02ZM41.7978 110.853C41.8937 111.195 41.9764 111.533 41.9579 111.89C42.2543 111.571 42.6479 111.331 42.999 111.073C43.4772 110.687 44.0346 110.414 44.4256 109.921C44.3673 110.646 44.0571 111.237 43.4681 111.678C42.8455 112.144 42.0947 112.395 41.4815 112.884C41.5733 112.225 41.3311 111.697 41.1246 111.091C40.9525 110.512 41.1191 109.924 41.5117 109.483C41.5058 109.972 41.6602 110.392 41.7978 110.853ZM40.4007 113.08C40.2717 113.58 39.9133 113.987 39.6687 114.433C40.3284 114.228 40.9105 113.87 41.5069 113.534C42.2173 113.147 42.9887 112.901 43.6318 112.39C43.3117 113.575 42.5185 114.262 41.3581 114.612C40.5647 114.851 39.8961 114.732 38.9333 115.121C39.0437 114.469 39.2382 113.766 39.5464 113.178C39.7855 112.753 40.0507 112.334 40.1985 111.866C40.4124 112.25 40.5137 112.642 40.4007 113.08ZM37.9729 114.893C37.7458 115.282 37.4459 115.61 37.074 115.868C38.0106 115.928 38.7643 115.334 39.6774 115.308C40.2414 115.292 40.7769 115.467 41.352 115.415C40.6695 115.875 39.9549 116.278 39.1239 116.385C38.0436 116.525 37.0474 116.253 35.8557 116.359C36.4126 115.966 36.6912 115.44 37.0384 114.875C37.4904 114.168 37.917 113.665 38.7963 113.551C38.4433 113.948 38.2379 114.439 37.9729 114.893ZM34.6467 116.447C36.2967 116.728 37.8778 117.091 39.5629 117.108C37.6767 117.765 35.8993 117.884 34.0285 117.205C33.0175 116.838 32.2423 116.642 31.4788 116.696C30.3629 116.777 29.0068 117.217 27.5059 118.8L26.916 118.328C29.0671 116.411 31.8816 115.977 34.6466 116.447L34.6467 116.447Z" fill="#FDD406"/>
<path d="M17.0284 106.165C17.1882 106.846 17.73 107.361 17.8591 108.067C18.1176 107.33 18.3559 106.713 18.178 105.907C18.0507 105.33 17.5656 104.919 17.5095 104.326C16.9806 104.802 16.8667 105.476 17.0284 106.165ZM16.8943 109.02C17.3429 109.635 17.9664 110.107 18.655 110.421C18.5194 109.883 18.7738 109.477 19.0561 109.049C19.3963 108.535 19.5622 108.029 19.2849 107.436C19.1556 107.744 18.982 108 18.7782 108.264C18.4769 108.675 18.2788 109.04 18.2323 109.568C17.8839 109.309 17.7307 108.924 17.5444 108.551C17.2603 108.016 16.8019 107.569 16.2754 107.277C16.4153 107.877 16.5231 108.511 16.8943 109.02ZM19.41 110.853C19.3141 111.195 19.2315 111.533 19.2499 111.89C18.9535 111.571 18.5599 111.331 18.2088 111.073C17.7306 110.687 17.1732 110.414 16.7823 109.921C16.8406 110.646 17.1508 111.237 17.7397 111.678C18.3623 112.144 19.1131 112.395 19.7264 112.884C19.6346 112.225 19.8767 111.697 20.0832 111.091C20.2553 110.512 20.0888 109.924 19.6961 109.483C19.702 109.972 19.5477 110.392 19.41 110.853ZM20.8072 113.08C20.9362 113.58 21.2945 113.987 21.5392 114.433C20.8794 114.228 20.2973 113.87 19.7009 113.534C18.9905 113.147 18.2191 112.901 17.5761 112.39C17.8961 113.575 18.6893 114.262 19.8497 114.612C20.6431 114.851 21.3118 114.732 22.2745 115.121C22.1641 114.469 21.9696 113.766 21.6615 113.178C21.4223 112.753 21.1571 112.334 21.0094 111.866C20.7954 112.25 20.6941 112.642 20.8072 113.08ZM23.2349 114.893C23.4621 115.282 23.7619 115.61 24.1338 115.868C23.1972 115.928 22.4435 115.334 21.5304 115.308C20.9664 115.292 20.431 115.467 19.8558 115.415C20.5384 115.875 21.253 116.278 22.084 116.385C23.1642 116.525 24.1605 116.253 25.3522 116.359C24.7953 115.966 24.5166 115.44 24.1695 114.875C23.7174 114.168 23.2908 113.665 22.4116 113.551C22.7645 113.948 22.9699 114.439 23.2349 114.893ZM26.5612 116.447C24.9112 116.728 23.3301 117.091 21.6449 117.108C23.5312 117.765 25.3085 117.884 27.1793 117.205C28.1903 116.838 28.9655 116.642 29.7291 116.696C30.8449 116.777 32.2011 117.217 33.7019 118.8L34.2918 118.328C32.1407 116.411 29.3263 115.977 26.5613 116.447L26.5612 116.447Z" fill="#FDD406"/>
</g>
<defs>
<clipPath id="clip0_307_45139">
<rect width="180" height="120" fill="white"/>
</clipPath>
</defs>
</svg>
