<svg width="180" height="120" viewBox="0 0 180 120" fill="none" xmlns="http://www.w3.org/2000/svg">
<path d="M0 0H180V120H0V0Z" fill="#D91C16"/>
<path d="M93.8646 56.6329L83.5006 60L93.8646 63.3671V74.266L100.272 65.4486L110.637 68.816L104.231 60L110.637 51.184L100.272 54.5514L93.8646 45.734V56.6329Z" fill="white"/>
<path d="M70.6315 88.053C76.7095 85.7496 81.875 81.5345 85.3506 76.042C82.1049 79.6537 77.84 82.1959 73.1192 83.3328C68.3984 84.4698 63.4438 84.148 58.9097 82.4101C54.3756 80.6721 50.4753 77.5996 47.724 73.5985C44.9727 69.5974 43.4997 64.8558 43.4997 60C43.4997 55.1442 44.9727 50.4026 47.724 46.4015C50.4753 42.4004 54.3756 39.3279 58.9097 37.5899C63.4438 35.852 68.3984 35.5302 73.1192 36.6672C77.84 37.8041 82.1049 40.3463 85.3506 43.958C81.875 38.4655 76.7095 34.2504 70.6315 31.947C64.5535 29.6436 57.8918 29.3764 51.6489 31.1858C45.406 32.9951 39.9196 36.7831 36.0153 41.9796C32.111 47.1762 30 53.5002 30 60C30 66.4998 32.111 72.8238 36.0153 78.0204C39.9196 83.2169 45.406 87.0049 51.6489 88.8142C57.8918 90.6236 64.5535 90.3564 70.6315 88.053Z" fill="white"/>
</svg>
