<svg width="180" height="120" viewBox="0 0 180 120" fill="none" xmlns="http://www.w3.org/2000/svg">
<g clip-path="url(#clip0_909_304250)">
<path d="M0 0H180V120H0V0Z" fill="#0F3296"/>
<path d="M89.2461 38.0273C89.949 38.8476 90.4195 39.6673 90.4195 40.6643C89.8294 40.956 89.014 41.0752 88.5434 41.6025C91.4737 41.1913 92.0574 44.5892 95.3391 43.2998C95.4583 43.7704 95.9288 44.1811 96.5124 44.0035L96.8638 43.0677C98.1502 42.7162 97.7988 44.8245 99.2101 44.4136C99.9134 45.0003 99.4429 45.995 99.9134 46.7008C99.9134 47.5197 100.265 48.2226 100.616 48.9252C100.968 48.5173 101.2 47.9306 102.022 48.1064C102.605 48.7496 103.076 49.3364 103.195 50.039C102.957 51.3881 102.605 52.5584 104.011 53.2611V53.672C104.952 54.0829 107.06 53.2611 107.06 54.9019C106.941 55.4887 107.644 54.9616 107.882 55.3128C108.466 55.0775 109.288 55.1969 109.99 55.1969C110.574 56.4268 109.288 57.3051 108.936 58.4189C109.52 59.0027 109.288 60.0598 109.169 60.7592L108.817 60.9351C109.752 61.1107 110.925 60.8221 111.747 61.3492L113.272 61.9327C113.975 61.525 114.791 61.4623 115.732 61.525C116.435 62.0523 115.494 62.9306 116.083 63.3385C116.906 63.3385 117.608 63.4578 117.721 64.1607L117.84 64.3928C118.424 63.3385 120.068 64.0412 120.771 63.2822C121.944 63.2822 122.176 64.5687 122.76 65.2715C122.998 67.091 120.771 67.9132 121.473 69.7265C121.003 70.6048 120.068 71.3079 119.365 72.1297C119.597 72.2489 119.478 72.5376 119.478 72.7133C118.775 73.1276 119.365 74.3573 118.424 74.4707C118.311 75.2358 116.905 74.9411 117.37 75.7629C118.311 76.9928 116.905 77.7522 116.905 78.869C116.315 79.5152 115.142 78.279 115.142 79.5152C114.439 79.6908 113.737 78.869 113.272 79.5719C113.034 80.3939 113.737 80.6824 113.624 81.5045C114.791 81.3851 115.142 82.5586 115.613 83.2615L116.786 84.4347C115.613 85.3697 114.088 84.3154 112.682 84.8424C112.331 84.6668 112.682 84.2024 112.331 84.0268C111.979 83.6125 111.277 83.6125 110.693 83.4993C110.806 84.0268 109.752 84.2022 110.223 84.8422C110.223 85.0178 110.455 85.5451 109.99 85.5451C109.049 85.8401 109.168 84.7295 108.346 85.1372C107.292 85.5451 108.114 87.1265 106.589 86.9507C106.821 88.3627 104.249 89.2976 106.006 90.5276C106.238 90.7599 106.119 91.2303 106.119 91.5817C105.064 92.5229 103.194 92.1716 102.021 91.82C101.08 91.5817 101.67 90.4082 101.318 89.7682C100.967 89.1785 99.9128 88.7706 99.9128 87.9485C99.2095 87.6596 98.6202 87.4784 98.1496 86.8942C96.5119 88.4756 94.5171 90.0003 92.1759 90.0568C91.1218 90.5838 90.5321 92.6987 88.8942 91.8198C88.251 92.8743 86.3152 91.8198 86.199 93.3387C85.4367 93.6335 85.7881 94.6311 85.3207 95.0955C85.1449 96.2688 85.3207 97.2664 86.3152 97.9695C86.7261 98.8478 85.4367 98.8478 85.9637 99.67C86.0831 99.9588 85.9637 100.373 85.7881 100.492C85.4367 100.667 85.3207 100.844 85.4367 101.195C85.1449 101.195 85.026 101.37 84.7934 101.602C84.4985 102.186 83.5635 102.481 82.9173 102.889C82.2741 103.064 81.8035 102.6 81.3956 102.186C81.2762 102.832 80.7494 103.184 80.1062 103.184C79.168 103.184 79.3438 102.362 78.6409 102.011C78.9327 100.956 77.9947 100.492 78.2895 99.5507C79.0516 98.9672 80.3383 98.553 79.9868 97.3233C79.168 96.3316 79.4598 94.8634 78.6409 93.6902C78.1139 93.2258 77.2354 92.5231 77.5271 91.4061C78.2895 90.5278 77.5271 89.4735 77.1162 88.5385C76.9406 87.7731 76.473 87.0705 76.473 86.1918C75.1836 85.4326 75.1239 83.4371 73.3075 83.2615C72.018 83.2615 71.7857 81.6236 70.4963 81.7366C70.3772 81.5045 70.0854 81.3289 69.8501 81.0966C68.9152 81.7366 67.7419 80.921 66.5714 81.2095C65.8091 79.9231 67.2146 78.1661 65.1629 77.4005V76.5849C65.3982 76.6976 65.5143 76.4653 65.5738 76.3464C65.6899 75.4679 64.1085 75.355 64.7549 74.3571C64.4035 74.0623 63.9926 73.943 64.2279 73.3595C63.3464 71.546 60.7109 71.7218 60.1241 69.9021C60.5947 69.4944 60.5947 69.0801 60.7706 68.7289C60.3594 68.026 60.2435 67.2666 60.3594 66.5075C60.7706 66.3881 61.0026 65.8613 61.2379 65.4469C60.7109 65.0957 60.0675 64.5687 59.4809 64.7443C58.4268 64.5687 57.6643 63.7528 56.7263 63.2822C56.491 63.0499 56.6103 62.636 56.6103 62.3473C57.8995 61.9329 56.4347 60.1165 58.0159 60.352C58.427 59.8249 59.3053 59.6491 59.9487 59.2382C60.5949 59.1222 61.122 59.3573 61.7652 59.5331C62.2923 60.2328 63.2305 59.9411 63.7573 60.5276C64.2844 60.4084 64.9308 60.1165 65.574 60.4084C65.574 59.4138 66.0416 58.8271 66.7472 58.1242C66.8634 57.7162 67.5066 57.4215 68.0337 57.1892C69.0315 57.4215 70.2018 57.4215 70.9077 56.7186C71.3753 57.0134 71.7862 56.4268 72.3132 56.4268C72.9562 56.3077 73.4835 56.4833 73.9541 56.7783C74.0106 55.6048 76.0623 56.6024 76.4734 55.1969C76.941 54.2587 75.184 53.9075 75.3 53.0854C75.0082 52.1473 75.7111 51.6799 76.0623 51.0367C76.4732 50.8608 76.9408 50.6258 77.4679 50.7417C78.817 50.2741 77.7626 47.5197 79.9308 48.5173C79.9308 48.8093 79.8116 49.1605 79.9872 49.2202C80.7496 49.2202 80.8666 48.3408 81.396 48.0469C81.6281 47.2281 81.1013 46.2305 81.8039 45.587C82.1554 45.5276 82.4501 45.4114 82.6824 45.1165C82.6824 44.4733 82.331 44.122 81.8039 43.7109C81.6283 44.0037 81.1607 43.7706 80.8666 43.8867C80.8666 43.1838 80.4578 42.7165 80.3387 42.07C79.9872 41.8944 79.8116 41.6027 79.9308 41.1915C80.4578 40.6645 79.9308 39.3751 81.1607 39.6675C81.6283 39.2589 82.4501 39.5507 82.9177 38.8478C84.1477 38.1451 85.7883 38.1451 86.7265 36.8557C87.1374 36.9152 87.605 36.5043 88.0159 36.8557C88.1323 37.6178 89.2461 37.3229 89.2461 38.0273Z" fill="#D3AE3B"/>
<path d="M81.6401 17.1602L83.2401 22.1402H88.4801L84.2401 25.2202L85.8601 30.2002L81.6401 27.1202L77.4001 30.2002L79.0201 25.2202L74.7801 22.1402H80.0201L81.6401 17.1602Z" fill="white"/>
<path d="M98.3601 17.1602L99.9801 22.1402H105.22L100.98 25.2202L102.6 30.2002L98.3601 27.1202L94.1401 30.2002L95.7601 25.2202L91.5201 22.1402H96.7601L98.3601 17.1602Z" fill="white"/>
<path d="M114.84 20.0801L116.46 25.0401H121.7L117.46 28.1201L119.08 33.1001L114.84 30.0201L110.62 33.1001L112.24 28.1201L108 25.0401H113.24L114.84 20.0801Z" fill="white"/>
<path d="M132.18 30.7601L130.58 25.8001L128.96 30.7601H123.72L127.96 33.8401L126.34 38.8201L130.58 35.7401L134.8 38.8201L133.18 33.8401L137.42 30.7601H132.18Z" fill="white"/>
<path d="M66.7601 25.0401L65.1601 20.0801L63.5401 25.0401H58.3001L62.5401 28.1201L60.9201 33.1001L65.1601 30.0201L69.3801 33.1001L67.7601 28.1201L72.0001 25.0401H66.7601Z" fill="white"/>
<path d="M49.4201 25.8001L51.0401 30.7601H56.2801L52.0401 33.8401L53.6601 38.8201L49.4201 35.7401L45.2001 38.8201L46.8201 33.8401L42.5801 30.7601H47.8201L49.4201 25.8001Z" fill="white"/>
</g>
<defs>
<clipPath id="clip0_909_304250">
<rect width="180" height="120" fill="white"/>
</clipPath>
</defs>
</svg>
