<svg width="160" height="120" viewBox="0 0 160 120" fill="none" xmlns="http://www.w3.org/2000/svg">
<g clip-path="url(#clip0_909_264804)">
<path d="M0 0H160V120H0V0Z" fill="#021455"/>
<path d="M96.9601 31.2002C96.9601 61.4024 100.462 71.8092 107.473 78.82C111.654 82.9709 113.508 84.5329 120 88.8002C126.492 84.5329 128.346 82.9709 132.527 78.82C139.538 71.8092 143.04 61.4024 143.04 31.2002C137.941 33.3835 135.035 34.442 130.83 34.3772C127.068 34.3194 123.083 32.5723 120 31.2002C116.918 32.5723 112.932 34.3193 109.17 34.3772C104.965 34.442 102.059 33.3835 96.9601 31.2002Z" fill="white"/>
<path d="M102.74 72.4111C104.084 74.962 105.66 77.0069 107.473 78.8199C111.655 82.9708 113.508 84.5327 120 88.8C126.492 84.5327 128.346 82.9708 132.528 78.8199C134.341 77.0069 135.917 74.962 137.26 72.4111H102.74Z" fill="#54AEF2"/>
<path d="M96 30C96 61.4607 99.6481 72.3012 106.951 79.6041C111.306 83.9279 113.237 85.5548 120 90C126.763 85.5548 128.694 83.9279 133.049 79.6041C140.352 72.3012 144 61.4607 144 30C138.688 32.2743 135.661 33.3768 131.281 33.3094C127.363 33.249 123.211 31.4293 120 30C116.789 31.4293 112.637 33.249 108.719 33.3094C104.339 33.3769 101.312 32.2743 96 30ZM97.44 31.68C102.433 33.8269 105.278 34.8679 109.396 34.8042C113.079 34.7472 116.982 33.0292 120 31.68C123.018 33.0292 126.921 34.7473 130.604 34.8042C134.722 34.8679 137.567 33.8269 142.56 31.68C142.56 61.3789 139.131 71.6123 132.266 78.5062C128.172 82.588 126.357 84.1238 120 88.32C113.643 84.1238 111.828 82.588 107.734 78.5062C100.869 71.6123 97.44 61.3789 97.44 31.68Z" fill="#FDD406"/>
<path fill-rule="evenodd" clip-rule="evenodd" d="M124.551 50.9632C123.17 49.6109 121.436 47.9118 120.727 46.3213C120.201 45.0885 123.49 46.6084 124.573 47.4121C125.623 48.0949 125.965 48.1056 126.669 48.1275C127.13 48.1419 127.747 48.1611 128.822 48.3781C132.011 49.0218 133.536 51.3047 135.016 53.5209C135.195 53.789 135.373 54.0561 135.554 54.3193C135.782 54.6342 136.212 54.8434 136.717 55.0886C137.767 55.5987 139.137 56.2646 139.673 58.3628C138.08 57.5106 136.772 57.1078 135.462 57.6939C135.3 59.3986 133.58 60.8933 131.806 62.4346C130.13 63.8914 128.406 65.3898 127.904 67.1465C127.814 67.417 127.761 67.818 127.703 68.2602C127.549 69.4307 127.357 70.8902 126.331 70.9844C125.999 70.1572 126.139 69.305 126.264 68.5352C126.395 67.7342 126.511 67.0224 126.068 66.521C125.43 66.3526 124.735 66.5028 124.022 66.6566C122.949 66.8885 121.836 67.1288 120.821 66.3009C122.759 65.3712 123.555 65.3342 124.231 65.3028C124.841 65.2745 125.353 65.2507 126.519 64.5823C128.978 63.2604 131.421 57.1801 128.445 54.349C127.219 54.0605 127.069 54.2115 125.497 55.7942C125.328 55.9645 125.142 56.1513 124.937 56.3559C124.799 54.2355 124.964 54.065 125.806 53.1955C125.933 53.0641 126.076 52.9167 126.235 52.7442C125.906 52.291 125.277 51.6752 124.551 50.9632ZM128.532 49.0827C128.532 49.3805 128.279 49.6219 127.966 49.6219C127.654 49.6219 127.401 49.3805 127.401 49.0827C127.401 48.785 127.654 48.5436 127.966 48.5436C128.279 48.5436 128.532 48.785 128.532 49.0827Z" fill="#F4812F"/>
<path fill-rule="evenodd" clip-rule="evenodd" d="M114.569 51.2295C113.96 53.0248 113.195 55.2804 112.051 56.6213C111.153 57.6409 111.026 54.1579 111.266 52.8698C111.409 51.6657 111.259 51.3725 110.95 50.769C110.748 50.3732 110.477 49.8439 110.176 48.8365C109.284 45.8479 110.689 43.4963 112.053 41.2134C112.218 40.9373 112.382 40.6621 112.542 40.3869C112.727 40.0474 112.72 39.5867 112.712 39.0469C112.694 37.9237 112.672 36.4575 114.368 35.0259C114.321 36.7661 114.559 38.0574 115.714 38.8873C117.371 38.2278 119.561 38.9794 121.819 39.7545C123.953 40.487 126.148 41.2405 128.012 40.843C128.305 40.7926 128.701 40.6498 129.138 40.4922C130.296 40.0751 131.739 39.5551 132.306 40.3762C131.693 41.0417 130.838 41.3225 130.065 41.5762C129.261 41.84 128.547 42.0745 128.289 42.6825C128.431 43.2992 128.895 43.8151 129.371 44.3438C130.087 45.1402 130.829 45.9656 130.536 47.2085C128.768 46.0087 128.362 45.3555 128.017 44.8001C127.706 44.2996 127.445 43.8785 126.281 43.2084C123.906 41.7528 117.125 42.5337 115.89 46.3648C116.195 47.5334 116.406 47.5893 118.608 48.1752C118.845 48.2382 119.105 48.3073 119.39 48.3847C117.488 49.4919 117.253 49.4324 116.053 49.1288C115.872 49.083 115.669 49.0315 115.434 48.9777C115.168 49.4668 114.89 50.2844 114.569 51.2295ZM110.966 48.7522C111.242 48.6131 111.584 48.7137 111.73 48.977C111.876 49.2403 111.77 49.5665 111.494 49.7056C111.218 49.8447 110.876 49.7441 110.73 49.4808C110.584 49.2175 110.69 48.8913 110.966 48.7522Z" fill="#F4812F"/>
<path fill-rule="evenodd" clip-rule="evenodd" d="M120.092 58.7947C122.019 58.3632 124.44 57.821 126.235 58.0606C127.615 58.2654 124.554 60.1708 123.274 60.6417C122.119 61.148 121.933 61.422 121.551 61.9858C121.3 62.3556 120.965 62.8502 120.216 63.6168C117.995 65.891 115.158 65.9611 112.403 66.0292C112.07 66.0374 111.738 66.0457 111.408 66.0577C111.007 66.082 110.597 66.3261 110.117 66.6121C109.118 67.2073 107.813 67.9842 105.651 67.3411C107.237 66.479 108.273 65.617 108.421 64.2451C106.972 63.2345 106.514 61.059 106.042 58.8158C105.595 56.6955 105.136 54.5147 103.815 53.1998C103.618 52.9867 103.285 52.7371 102.917 52.4619C101.944 51.7332 100.731 50.8247 101.175 49.9375C102.089 50.0929 102.784 50.6456 103.411 51.1448C104.064 51.6643 104.644 52.1259 105.323 52.0219C105.803 51.587 106.026 50.9415 106.255 50.28C106.599 49.2835 106.956 48.2507 108.223 47.8472C108.061 49.9102 107.684 50.5792 107.364 51.148C107.076 51.6606 106.833 52.0919 106.834 53.3885C106.756 56.0792 110.964 61.2074 115.042 60.2336C115.933 59.3799 115.875 59.1795 115.261 57.0796C115.195 56.8538 115.123 56.6059 115.045 56.3329C117.022 57.3119 117.091 57.5346 117.439 58.6705C117.491 58.8422 117.55 59.0347 117.623 59.2539C118.2 59.2183 119.078 59.0218 120.092 58.7947ZM119.732 63.0165C119.465 62.8631 119.378 62.5319 119.539 62.2766C119.7 62.0214 120.047 61.9388 120.315 62.0922C120.583 62.2455 120.669 62.5768 120.508 62.832C120.348 63.0873 120 63.1699 119.732 63.0165Z" fill="#F4812F"/>
<g clip-path="url(#clip1_909_264804)">
<mask id="mask0_909_264804" style="mask-type:luminance" maskUnits="userSpaceOnUse" x="0" y="0" width="75" height="50">
<path d="M75 0H0V50H75V0Z" fill="white"/>
</mask>
<g mask="url(#mask0_909_264804)">
<path d="M0 0H75V50H0V0Z" fill="#021455"/>
<path d="M75 6.00912L46.5138 25L75 43.9908V50H65.9863L37.5 31.0091L9.01367 50H0V43.9908L28.4863 25L0 6.00912V0H9.01367L37.5 18.9909L65.9863 0H75V6.00912Z" fill="white"/>
<path fill-rule="evenodd" clip-rule="evenodd" d="M31.4909 25L0 4.00594V0L37.5 24.9998L31.4909 25Z" fill="#D91C16"/>
<path fill-rule="evenodd" clip-rule="evenodd" d="M37.5 29.0062L6.00912 50.0002H0L37.5 25V29.0062Z" fill="#D91C16"/>
<path fill-rule="evenodd" clip-rule="evenodd" d="M43.5092 25.0002L75 45.994V50.0002L37.5 25L43.5092 25.0002Z" fill="#D91C16"/>
<path d="M37.5 20.9937L68.9908 0H75L37.5 24.9998V20.9937Z" fill="#D91C16"/>
<path d="M45.8333 0V16.6667H75V33.3333H45.8333V50H29.1667V33.3333H0V16.6667H29.1667V0H45.8333Z" fill="white"/>
<path d="M42.5 0V20H75V30H42.5V50H32.5V30H0V20H32.5V0H42.5Z" fill="#D91C16"/>
</g>
</g>
</g>
<defs>
<clipPath id="clip0_909_264804">
<rect width="160" height="120" fill="white"/>
</clipPath>
<clipPath id="clip1_909_264804">
<rect width="75" height="50" fill="white"/>
</clipPath>
</defs>
</svg>
