<svg width="160" height="120" viewBox="0 0 160 120" fill="none" xmlns="http://www.w3.org/2000/svg">
<path d="M0 0H160V120H0V0Z" fill="#005801"/>
<path d="M0 0H80V45H0V0Z" fill="#FF7E3D"/>
<path d="M160 53.5H0V61.7857H160V53.5Z" fill="white"/>
<path d="M160 70.0714H0V78.3571H160V70.0714Z" fill="white"/>
<path d="M0 86.6429H160V94.9286H0V86.6429Z" fill="white"/>
<path d="M160 103.214H0V111.5H160V103.214Z" fill="white"/>
<path d="M110.618 10.923C112.979 7.6967 116.304 5.30386 120.114 4.0896C118.021 5.7011 116.326 7.77037 115.157 10.1387C113.988 12.5071 113.377 15.1117 113.371 17.7528C113.371 20.0244 113.818 22.2737 114.687 24.3723C115.556 26.471 116.831 28.3779 118.437 29.9841C120.043 31.5903 121.95 32.8645 124.049 33.7338C126.147 34.603 128.397 35.0504 130.668 35.0504C132.971 35.0478 135.251 34.5853 137.373 33.69C139.495 32.7947 141.417 31.4846 143.025 29.8367C141.528 33.1377 139.111 35.9375 136.064 37.9013C133.017 39.8651 129.469 40.9097 125.845 40.9103C120.84 40.9103 116.04 38.9222 112.502 35.3834C108.963 31.8447 106.975 27.045 106.975 22.0404C106.981 18.0423 108.256 14.1493 110.618 10.923Z" fill="white"/>
<path d="M135.884 11.2273L132.848 7.81159L133.296 12.3596L129.109 14.1915L133.573 15.1702L134.022 19.7183L136.332 15.7752L140.796 16.7539L137.76 13.3384L140.071 9.39533L135.884 11.2273Z" fill="white"/>
</svg>
