<svg width="160" height="120" viewBox="0 0 160 120" fill="none" xmlns="http://www.w3.org/2000/svg">
<g clip-path="url(#clip0_909_307964)">
<path d="M0 0H160V120H0V0Z" fill="black"/>
<path d="M0 0H160V60H0V0Z" fill="#D91C16"/>
<path fill-rule="evenodd" clip-rule="evenodd" d="M65.3052 41.1594H72.634L74.8564 34.252L77.1384 41.1594H84.4664L78.5798 45.5446L80.8616 52.5716L74.8564 48.3068L68.9102 52.5716L71.1922 45.5446L65.3052 41.1594Z" fill="#FDD406"/>
<path fill-rule="evenodd" clip-rule="evenodd" d="M92.0938 78.9412L86.3284 74.4352C92.1538 69.6904 95.9388 62.4224 95.9388 54.3142C95.9388 41.941 87.11 31.5494 75.4566 29.0868L76.3574 24.8818C77.9794 25.2424 79.8822 25.9252 81.4438 26.465L82.9458 23.9434C84.5658 24.7234 86.3694 25.504 87.87 26.465L86.7294 29.1686C88.2314 30.1302 90.0444 31.6188 91.0526 32.791L93.308 31.0292C94.5096 32.35 95.9516 33.7306 96.9726 35.1734L94.9304 37.2758C96.2492 39.2118 96.759 40.1028 97.7312 42.3332L100.597 41.6612C101.138 43.3428 101.959 45.4016 102.261 47.1428L99.5474 48.2092C99.8714 49.5624 100.291 51.926 100.264 53.9142C100.262 54.0338 100.253 54.1694 100.253 54.2898L103.086 54.694C102.966 56.4364 102.907 58.419 102.545 60.1606H99.6026C99.1826 61.9616 98.6406 64.1646 97.9806 65.8456L100.442 67.2882C99.662 68.8492 98.8822 70.7116 97.8606 72.2134L95.1578 71.0728C94.1358 72.5738 92.9958 74.0148 91.7342 75.337L93.4754 77.619C92.9958 78.039 92.575 78.46 92.0938 78.941M79.4214 78.4002L83.7758 81.0242C83.3698 81.3956 82.1534 82.0254 81.831 82.153L82.543 84.8862C80.8616 85.4278 79.059 86.2078 77.1982 86.5686L76.1172 83.866C74.3752 84.226 72.634 84.466 70.8318 84.466L70.4704 87.2888C68.7892 87.1692 66.747 87.2888 64.8848 86.8684V84.0464C63.2026 83.7452 61.581 83.3252 60.02 82.784L58.638 85.2484C57.1966 84.6464 55.2748 83.9254 53.7124 82.9652L54.734 80.2624C53.472 79.601 52.331 78.7606 51.25 77.9184L53.953 74.4948C58.3982 78.0392 63.9836 80.1404 70.1104 80.1404C73.3546 80.1404 76.5368 79.601 79.4214 78.4004" fill="#FDD406"/>
<path fill-rule="evenodd" clip-rule="evenodd" d="M97.5719 85.3621L68.8259 63.4859L68.5639 63.8591L97.2359 85.7737L95.5341 87.9031L67.5835 69.9751C60.0157 65.2299 60.3161 61.5063 61.8779 57.4819L63.1995 54.2385C63.9205 58.4431 68.2441 61.6273 72.7491 65.1701L98.1319 84.6695L97.5719 85.3621ZM104.789 91.8821C104.73 91.8821 104.672 91.8705 104.618 91.848C104.563 91.8255 104.514 91.7925 104.473 91.7509C104.431 91.7093 104.398 91.66 104.376 91.6057C104.354 91.5514 104.342 91.4932 104.343 91.4345C104.343 91.3759 104.354 91.3179 104.377 91.2637C104.399 91.2095 104.432 91.1603 104.473 91.1189C104.515 91.0774 104.564 91.0445 104.618 91.0221C104.672 90.9997 104.73 90.9881 104.789 90.9881C105.036 90.9881 105.237 91.1881 105.237 91.4345C105.237 91.4933 105.225 91.5516 105.203 91.6059C105.18 91.6603 105.147 91.7097 105.106 91.7513C105.064 91.7929 105.015 91.8258 104.96 91.8483C104.906 91.8708 104.848 91.8822 104.789 91.8821ZM103.071 90.6207C102.952 90.6205 102.838 90.5734 102.755 90.4896C102.671 90.4058 102.624 90.2922 102.623 90.1737C102.623 90.0853 102.649 89.9988 102.699 89.9252C102.748 89.8517 102.817 89.7943 102.899 89.7604C102.981 89.7265 103.071 89.7176 103.158 89.7349C103.244 89.7521 103.324 89.7946 103.387 89.8571C103.449 89.9197 103.492 89.9993 103.509 90.0861C103.526 90.1728 103.518 90.2627 103.484 90.3445C103.45 90.4262 103.393 90.4961 103.319 90.5452C103.246 90.5944 103.159 90.6207 103.071 90.6207ZM101.313 89.2195C101.066 89.2195 100.865 89.0195 100.865 88.7733C100.869 88.6571 100.918 88.5468 101.001 88.4658C101.084 88.3848 101.196 88.3395 101.312 88.3395C101.429 88.3395 101.54 88.3848 101.624 88.4658C101.707 88.5468 101.756 88.6571 101.759 88.7733C101.759 89.0195 101.559 89.2195 101.313 89.2195ZM107.223 91.6995L98.6105 85.0265L96.1077 88.2519L103.59 93.4989C104.191 93.9189 104.25 95.8425 106.471 96.1433C107.374 96.2625 107.973 95.6013 107.973 95.6013C108.941 94.4229 108.677 92.8009 107.223 91.6995Z" fill="#FDD406"/>
</g>
<defs>
<clipPath id="clip0_909_307964">
<rect width="160" height="120" fill="white"/>
</clipPath>
</defs>
</svg>
