<svg width="160" height="120" viewBox="0 0 160 120" fill="none" xmlns="http://www.w3.org/2000/svg">
<g clip-path="url(#clip0_307_72972)">
<path d="M0 0H160V120H0V0Z" fill="black"/>
<path d="M0 0H160V60H0V0Z" fill="#D91C16"/>
<path fill-rule="evenodd" clip-rule="evenodd" d="M65.3047 41.1594H72.6335L74.8559 34.252L77.1379 41.1594H84.4659L78.5793 45.5446L80.8611 52.5716L74.8559 48.3068L68.9097 52.5716L71.1917 45.5446L65.3047 41.1594Z" fill="#FDD406"/>
<path fill-rule="evenodd" clip-rule="evenodd" d="M92.0938 78.9412L86.3284 74.4352C92.1538 69.6904 95.9388 62.4224 95.9388 54.3142C95.9388 41.941 87.11 31.5494 75.4566 29.0868L76.3574 24.8818C77.9794 25.2424 79.8822 25.9252 81.4438 26.465L82.9458 23.9434C84.5658 24.7234 86.3694 25.504 87.87 26.465L86.7294 29.1686C88.2314 30.1302 90.0444 31.6188 91.0526 32.791L93.308 31.0292C94.5096 32.35 95.9516 33.7306 96.9726 35.1734L94.9304 37.2758C96.2492 39.2118 96.759 40.1028 97.7312 42.3332L100.597 41.6612C101.138 43.3428 101.959 45.4016 102.261 47.1428L99.5474 48.2092C99.8714 49.5624 100.291 51.926 100.264 53.9142C100.262 54.0338 100.253 54.1694 100.253 54.2898L103.086 54.694C102.966 56.4364 102.907 58.419 102.545 60.1606H99.6026C99.1826 61.9616 98.6406 64.1646 97.9806 65.8456L100.442 67.2882C99.662 68.8492 98.8822 70.7116 97.8606 72.2134L95.1578 71.0728C94.1358 72.5738 92.9958 74.0148 91.7342 75.337L93.4754 77.619C92.9958 78.039 92.575 78.46 92.0938 78.941M79.4214 78.4002L83.7758 81.0242C83.3698 81.3956 82.1534 82.0254 81.831 82.153L82.543 84.8862C80.8616 85.4278 79.059 86.2078 77.1982 86.5686L76.1172 83.866C74.3752 84.226 72.634 84.466 70.8318 84.466L70.4704 87.2888C68.7892 87.1692 66.747 87.2888 64.8848 86.8684V84.0464C63.2026 83.7452 61.581 83.3252 60.02 82.784L58.638 85.2484C57.1966 84.6464 55.2748 83.9254 53.7124 82.9652L54.734 80.2624C53.472 79.601 52.331 78.7606 51.25 77.9184L53.953 74.4948C58.3982 78.0392 63.9836 80.1404 70.1104 80.1404C73.3546 80.1404 76.5368 79.601 79.4214 78.4004" fill="#FDD406"/>
<path fill-rule="evenodd" clip-rule="evenodd" d="M97.5721 85.3624L68.8261 63.4862L68.5641 63.8594L97.2361 85.774L95.5343 87.9034L67.5837 69.9754C60.0159 65.2302 60.3163 61.5066 61.8781 57.4822L63.1997 54.2388C63.9207 58.4434 68.2443 61.6276 72.7493 65.1704L98.1321 84.6698L97.5721 85.3624ZM104.789 91.8824C104.73 91.8824 104.672 91.8708 104.618 91.8482C104.564 91.8257 104.514 91.7927 104.473 91.7512C104.432 91.7096 104.399 91.6602 104.376 91.6059C104.354 91.5516 104.343 91.4935 104.343 91.4347C104.343 91.3761 104.354 91.3181 104.377 91.264C104.399 91.2098 104.432 91.1606 104.473 91.1191C104.515 91.0777 104.564 91.0448 104.618 91.0223C104.672 90.9999 104.73 90.9883 104.789 90.9883C105.036 90.9883 105.237 91.1884 105.237 91.4347C105.237 91.4936 105.225 91.5518 105.203 91.6062C105.18 91.6605 105.147 91.7099 105.106 91.7515C105.064 91.7931 105.015 91.8261 104.96 91.8486C104.906 91.8711 104.848 91.8824 104.789 91.8824ZM103.071 90.6209C102.952 90.6208 102.839 90.5737 102.755 90.4899C102.671 90.4061 102.624 90.2925 102.624 90.1739C102.623 90.0855 102.65 89.999 102.699 89.9255C102.748 89.8519 102.818 89.7946 102.899 89.7607C102.981 89.7268 103.071 89.7179 103.158 89.7351C103.245 89.7523 103.324 89.7949 103.387 89.8574C103.449 89.9199 103.492 89.9996 103.509 90.0863C103.527 90.173 103.518 90.263 103.484 90.3447C103.45 90.4264 103.393 90.4963 103.319 90.5455C103.246 90.5946 103.159 90.6209 103.071 90.6209ZM101.313 89.2197C101.067 89.2197 100.866 89.0198 100.866 88.7736C100.869 88.6573 100.918 88.547 101.001 88.466C101.085 88.385 101.196 88.3397 101.313 88.3397C101.429 88.3397 101.541 88.385 101.624 88.466C101.708 88.547 101.756 88.6573 101.76 88.7736C101.76 89.0198 101.56 89.2197 101.313 89.2197ZM107.224 91.6997L98.6107 85.0268L96.1079 88.2522L103.59 93.4991C104.191 93.9191 104.25 95.8428 106.471 96.1435C107.374 96.2627 107.973 95.6015 107.973 95.6015C108.941 94.4231 108.677 92.8011 107.224 91.6997Z" fill="#FDD406"/>
</g>
<defs>
<clipPath id="clip0_307_72972">
<rect width="160" height="120" fill="white"/>
</clipPath>
</defs>
</svg>
