<svg width="161" height="120" viewBox="0 0 161 120" fill="none" xmlns="http://www.w3.org/2000/svg">
<g clip-path="url(#clip0_451_2103)">
<path d="M160.455 0H0.455078V120H160.455V0Z" fill="#54AEF2"/>
<path fill-rule="evenodd" clip-rule="evenodd" d="M77.2953 10.2524C77.3742 10.1832 77.4916 10.1354 77.6043 10.1543C77.7735 10.1827 77.868 10.3041 77.9484 10.436C78.0288 10.5678 78.0981 10.7328 78.1668 10.9305C78.2912 11.2887 78.4112 11.7755 78.5355 12.2969C80.6714 12.3853 85.1586 12.8242 87.1359 13.3649L87.1336 13.3641C87.8272 13.5447 88.3935 13.4565 88.9851 13.2973C89.1439 13.2546 89.304 13.2063 89.4676 13.157C89.9138 13.0226 90.3856 12.8804 90.9238 12.8219C90.9535 12.8187 90.9836 12.8222 91.0118 12.8321C91.04 12.8421 91.0656 12.8582 91.0867 12.8793C91.4288 13.2214 91.7559 13.3444 92.0902 13.47C92.226 13.5211 92.363 13.5726 92.5027 13.6395C92.7444 13.7551 92.9865 13.9232 93.1929 14.207C93.3924 14.4814 93.5585 14.8655 93.6976 15.4063C93.8681 15.6628 94.0458 15.7834 94.232 15.8406C94.4219 15.899 94.6295 15.8905 94.8383 15.8539C94.955 15.8335 95.0702 15.8043 95.1821 15.7759C95.2701 15.7536 95.3561 15.7318 95.439 15.7153C95.5332 15.6965 95.6241 15.6829 95.7215 15.6926C95.8188 15.7022 95.9336 15.7467 96.0066 15.8399C96.0196 15.8565 96.0299 15.8751 96.0371 15.8949C96.4321 16.9838 97.0487 17.5901 97.7683 17.9199C98.4879 18.2497 99.323 18.2964 100.135 18.2051C100.946 18.1138 101.731 17.8857 102.339 17.6832C102.522 17.6224 102.689 17.5639 102.837 17.512C102.935 17.4776 103.025 17.4461 103.106 17.4188C103.207 17.3845 103.293 17.3569 103.368 17.3375L103.373 17.3362C103.438 17.319 103.49 17.3056 103.574 17.3164C103.839 17.3239 104.057 17.4848 104.26 17.6836C104.467 17.8871 104.665 18.1437 104.857 18.3942L104.896 18.4456C105.073 18.6778 105.243 18.9009 105.392 19.0578C105.551 19.2246 105.681 19.2814 105.703 19.2809C106.06 19.2176 106.177 19.1022 106.312 18.9679C106.328 18.9522 106.344 18.9362 106.361 18.9199C106.443 18.8416 106.549 18.7502 106.702 18.7121C106.854 18.674 107.028 18.6916 107.249 18.761C107.294 18.775 107.332 18.8042 107.357 18.8436C107.383 18.883 107.393 18.9301 107.387 18.9766C107.29 19.7489 107.659 20.6358 108.077 21.4918C108.131 21.6006 108.184 21.7085 108.238 21.8156C108.575 22.4926 108.894 23.1347 108.945 23.7297C109.04 23.7645 109.225 23.8071 109.472 23.577C109.604 23.454 109.76 23.2126 109.917 22.9685C109.953 22.9126 109.99 22.8564 110.026 22.8016C110.122 22.6546 110.219 22.5155 110.329 22.4035C110.439 22.2916 110.576 22.1885 110.757 22.2C110.762 22.2003 110.768 22.2008 110.773 22.2015C111.272 22.2728 111.6 22.3398 111.975 22.4166C112.252 22.4732 112.556 22.5352 112.973 22.6082C112.979 22.6092 112.986 22.6105 112.992 22.6121C112.996 22.6132 113 22.6143 113.004 22.6156C114.295 23.0569 115.277 23.3301 116.067 23.5502C116.898 23.7813 117.518 23.954 118.067 24.2015C118.107 24.2194 118.14 24.2497 118.161 24.2879C118.395 24.7162 118.618 25.0198 118.872 25.1922C119.126 25.3645 119.419 25.4282 119.872 25.3519C119.922 25.3434 119.974 25.3546 120.017 25.3832C120.471 25.6885 120.56 26.1007 120.575 26.3711C120.576 26.389 120.577 26.4061 120.577 26.4224C120.582 26.5188 120.586 26.5858 120.592 26.6179C120.764 26.5272 120.918 26.434 121.063 26.3461C121.272 26.2199 121.463 26.1045 121.663 26.0222C122.028 25.8718 122.446 25.8659 122.97 26.1281C123.999 26.6423 124.998 27.641 125.512 28.6695C125.526 28.6973 125.533 28.7279 125.533 28.759C125.533 28.8842 125.512 29.0432 125.484 29.2552C125.477 29.307 125.47 29.3619 125.462 29.4203C125.424 29.7177 125.379 30.0957 125.349 30.5496C125.288 31.4562 125.288 32.6642 125.53 34.1152C125.554 34.2124 125.577 34.3071 125.599 34.4004C125.805 35.2527 125.984 35.9929 126.92 37.4871C126.946 37.5283 126.956 37.5774 126.948 37.6254C126.82 38.4123 127.133 39.558 127.497 40.5843C127.603 40.8848 127.713 41.1756 127.815 41.4469C127.887 41.6388 127.956 41.821 128.017 41.9898C128.165 42.3971 128.276 42.7078 128.276 42.9644C128.276 43.5079 128.054 43.9278 127.788 44.3117C127.727 44.4009 127.663 44.4898 127.599 44.5795C127.413 44.8409 127.222 45.1091 127.056 45.4117C127.477 45.7791 127.738 46.2022 127.813 46.6554C127.898 47.1635 127.796 47.6879 127.604 48.1988C127.289 49.0388 126.741 49.8367 126.285 50.5013C126.237 50.5705 126.191 50.6384 126.145 50.7047C127.811 51.0636 128.954 51.4957 129.731 51.9394C130.455 52.3533 130.901 52.7724 131.264 53.1132C131.316 53.1615 131.366 53.2082 131.414 53.2531C131.806 53.6148 132.105 53.8528 132.679 53.9379C133.254 54.0229 134.122 53.9393 135.582 53.5742C135.618 53.5652 135.656 53.5664 135.692 53.5778C135.727 53.5891 135.759 53.6101 135.783 53.6385C135.807 53.6668 135.823 53.7013 135.828 53.7381C135.834 53.775 135.829 53.8126 135.815 53.8468C135.082 55.5571 134.865 56.3005 134.985 57.03C135.063 57.502 135.295 58.0006 135.65 58.7611C135.844 59.1762 136.074 59.6694 136.335 60.2789C136.354 60.3218 136.356 60.3698 136.343 60.4145C136.33 60.4593 136.301 60.4979 136.262 60.5238C135.543 61.0032 135.202 61.3866 135.051 61.7086C134.899 62.0305 134.918 62.3087 134.97 62.6488C134.976 62.6845 134.981 62.7207 134.987 62.7576C135.091 63.4101 135.225 64.2583 134.33 65.4211C134.331 65.4232 134.331 65.4242 134.331 65.4251C134.332 65.4263 134.332 65.4274 134.333 65.4308C134.353 65.4808 134.395 65.5628 134.456 65.6586C134.578 65.8502 134.775 66.1015 135.03 66.3468C135.539 66.8375 136.27 67.2984 137.102 67.2984C137.13 67.2984 137.158 67.3044 137.184 67.3161C137.21 67.3277 137.233 67.3448 137.252 67.366C137.27 67.3872 137.284 67.4122 137.293 67.4393C137.301 67.4663 137.304 67.4949 137.3 67.523C137.103 69.1005 136.739 69.8465 136.42 70.5021C136.336 70.673 136.256 70.8379 136.182 71.0097C135.826 71.8404 135.586 72.8912 135.83 75.8183C135.832 75.8462 135.829 75.8743 135.82 75.9007C135.81 75.9272 135.796 75.9514 135.777 75.9718C135.757 75.9922 135.734 76.0083 135.708 76.0192C135.682 76.03 135.655 76.0353 135.627 76.0347C134.7 76.0164 134.136 76.263 133.737 76.6297C133.337 76.9963 133.099 77.5016 132.893 78.0195C132.857 78.1106 132.822 78.202 132.787 78.2929C132.624 78.7187 132.464 79.1336 132.205 79.4589C131.933 79.801 131.513 80.0029 130.952 79.9715C131.041 81.039 131.3 81.7098 131.549 82.3524C131.584 82.4412 131.618 82.5293 131.651 82.6179C131.945 83.3961 132.163 84.229 131.905 85.6773C131.898 85.7153 131.88 85.7505 131.854 85.7787C131.828 85.807 131.794 85.8269 131.756 85.8363C130.776 86.0815 130.305 86.205 129.98 86.4218C129.655 86.6387 129.422 86.9792 128.932 87.7148C128.907 87.7513 128.872 87.7789 128.83 87.7931C128.789 87.8074 128.744 87.8076 128.702 87.7937L127.432 87.3703C127.308 87.9231 127.165 88.3829 127.039 88.7853C126.916 89.1822 126.809 89.5234 126.756 89.8433C126.64 90.5362 126.743 91.2005 127.466 92.4047C127.484 92.4345 127.493 92.4685 127.494 92.5033C127.495 92.5382 127.486 92.5726 127.47 92.6031C127.453 92.6337 127.429 92.6594 127.399 92.6777C127.37 92.696 127.336 92.7062 127.301 92.7074C127.301 92.7074 126.824 92.7228 126.278 92.7304C125.83 92.7367 125.413 92.7286 125.083 92.7105C125.125 92.9423 125.235 93.1301 125.416 93.3414C125.429 93.3563 125.441 93.3715 125.455 93.3868C125.678 93.6476 125.947 93.9602 126.021 94.4383C126.025 94.4626 126.024 94.4875 126.019 94.5117C125.99 94.6447 125.924 94.7025 125.841 94.7749C125.831 94.7835 125.821 94.7923 125.81 94.8015C125.713 94.8878 125.586 94.9814 125.432 95.0828C125.123 95.2856 124.703 95.5176 124.219 95.7406C123.295 96.1662 122.143 96.5509 121.08 96.614C121.012 96.8281 121.018 97.0408 121.102 97.2722C121.2 97.5398 121.386 97.8204 121.591 98.0886C121.681 98.2058 121.774 98.3204 121.865 98.4321C121.983 98.5763 122.096 98.7156 122.193 98.8496C122.366 99.0874 122.518 99.3107 122.464 99.5808C122.456 99.6197 122.437 99.6555 122.409 99.6834C122.381 99.7114 122.345 99.7303 122.306 99.7379C120.346 100.117 119.382 102.307 119.215 102.717C119.232 102.725 119.249 102.732 119.265 102.739C119.36 102.78 119.462 102.824 119.635 102.94C119.781 103.039 119.927 103.155 120.032 103.303C120.138 103.452 120.203 103.661 120.125 103.86C120.114 103.888 120.096 103.914 120.074 103.934C120.051 103.955 120.024 103.97 119.995 103.978C119.965 103.987 119.934 103.989 119.904 103.983C119.874 103.978 119.845 103.966 119.821 103.948C119.519 103.727 119.307 103.622 119.047 103.564C118.788 103.506 118.468 103.497 117.987 103.496C117.898 103.516 117.804 103.53 117.703 103.544C117.469 103.578 117.2 103.616 116.887 103.752C116.423 103.954 115.874 104.363 115.318 105.302C115.293 105.343 115.254 105.374 115.208 105.389C114.905 105.49 114.641 105.558 114.405 105.619C114.141 105.687 113.913 105.746 113.704 105.831C113.309 105.991 112.962 106.235 112.5 106.847C112.478 106.876 112.449 106.899 112.415 106.912C112.381 106.926 112.345 106.93 112.309 106.924C112.273 106.919 112.24 106.903 112.212 106.88C112.184 106.857 112.163 106.827 112.151 106.793C112.054 106.516 111.957 106.43 111.919 106.416C111.882 106.401 111.816 106.413 111.69 106.503C111.587 106.576 111.469 106.689 111.338 106.816C111.145 107.002 110.922 107.217 110.674 107.373C110.331 107.589 109.897 107.99 109.539 108.332C109.505 108.363 109.473 108.395 109.441 108.425C109.301 108.559 109.175 108.679 109.068 108.773C109.003 108.83 108.946 108.877 108.891 108.914C108.863 108.933 108.836 108.949 108.8 108.964L108.796 108.965C108.759 108.98 108.706 109.001 108.622 108.97C108.581 108.955 108.545 108.927 108.522 108.89C108.498 108.852 108.487 108.808 108.491 108.764C108.512 108.534 108.629 108.165 108.741 107.813C108.783 107.683 108.801 107.63 108.824 107.563C108.832 107.539 108.841 107.514 108.852 107.482L106.738 107.905C106.734 107.906 106.73 107.907 106.726 107.907C106.724 107.908 106.721 107.908 106.718 107.908C106.718 107.908 106.691 107.911 106.639 107.916C106.588 107.921 106.513 107.929 106.417 107.939H106.416C106.343 107.946 106.267 107.91 106.227 107.873C106.188 107.837 106.169 107.802 106.154 107.77C106.123 107.704 106.107 107.641 106.091 107.568C106.072 107.484 106.055 107.39 106.038 107.292C106.026 107.221 106.013 107.148 105.999 107.076C105.966 106.906 105.922 106.741 105.875 106.645C105.851 106.598 105.827 106.57 105.817 106.562C105.807 106.554 105.82 106.559 105.813 106.559C105.811 106.56 105.628 106.652 105.44 106.819C105.251 106.986 105.029 107.211 104.806 107.439L104.78 107.465C104.565 107.685 104.35 107.905 104.154 108.08C104.141 108.091 104.129 108.102 104.116 108.113C103.931 108.28 103.783 108.413 103.568 108.439C103.409 108.459 103.262 108.414 103.151 108.348C103.041 108.283 102.959 108.201 102.888 108.13L102.886 108.127C102.814 108.055 102.752 107.995 102.703 107.962C102.655 107.931 102.631 107.923 102.588 107.928C102.595 107.927 102.594 107.928 102.586 107.932C102.577 107.938 102.556 107.95 102.532 107.973C102.489 108.014 102.432 108.081 102.371 108.164C102.249 108.331 102.111 108.56 101.975 108.792C101.949 108.837 101.923 108.881 101.897 108.925C101.788 109.112 101.682 109.294 101.584 109.445C101.523 109.538 101.466 109.618 101.406 109.686C101.401 109.691 101.396 109.697 101.392 109.702C101.338 109.764 101.287 109.823 101.166 109.844C101.057 109.863 100.985 109.831 100.913 109.798L100.909 109.796C100.835 109.762 100.761 109.718 100.679 109.667C100.611 109.624 100.539 109.576 100.462 109.525C100.355 109.454 100.241 109.378 100.121 109.304C99.7082 109.051 99.2355 108.838 98.8575 108.902C96.4015 109.755 94.9017 108.886 93.9981 108.179C93.8856 108.091 93.7816 108.006 93.6861 107.927C93.5891 107.848 93.5007 107.776 93.4208 107.714C93.2621 107.593 93.1337 107.524 93.0708 107.512L93.0621 107.51C93.0071 107.5 92.9981 107.498 92.9286 107.592C92.8555 107.691 92.7621 107.906 92.6711 108.251C92.6635 108.28 92.6493 108.307 92.6297 108.33C92.6101 108.353 92.5856 108.371 92.558 108.383C92.5304 108.395 92.5004 108.401 92.4703 108.4C92.4401 108.399 92.4107 108.391 92.384 108.377C92.1362 108.245 91.9662 108.169 91.8477 108.134C91.7292 108.099 91.6692 108.099 91.5934 108.115C91.5356 108.127 91.4646 108.157 91.3692 108.196C91.2145 108.26 90.9957 108.35 90.6649 108.437L90.6641 108.437C90.4516 108.492 90.248 108.444 90.1035 108.345C89.9591 108.246 89.8628 108.114 89.7754 107.993C89.7674 107.981 89.7594 107.97 89.7515 107.959C89.6736 107.851 89.6027 107.752 89.5352 107.688C89.4609 107.618 89.4076 107.59 89.3211 107.593C88.8009 107.607 88.6003 107.831 88.3957 108.064C88.3797 108.082 88.3639 108.101 88.3481 108.119C88.263 108.219 88.1771 108.319 88.0489 108.391C87.8968 108.477 87.68 108.48 87.4817 108.377C87.4559 108.364 87.4334 108.345 87.4156 108.322C87.3979 108.299 87.3854 108.272 87.3789 108.244C87.2586 107.713 86.9956 107.353 86.6516 107.076C86.3076 106.799 85.8783 106.612 85.4438 106.462C85.2593 106.398 85.0745 106.341 84.8949 106.286C84.6515 106.212 84.4178 106.14 84.2082 106.058C83.8441 105.916 83.5209 105.735 83.4141 105.393C83.4128 105.389 83.4116 105.385 83.4106 105.381C83.3366 105.077 83.4079 104.802 83.5649 104.607C83.7219 104.412 83.9415 104.286 84.1696 104.175C84.2625 104.13 84.3569 104.086 84.4501 104.043C84.8049 103.878 85.1417 103.722 85.3071 103.518C85.4081 103.246 85.4094 103.03 85.4108 102.809C85.4115 102.681 85.4123 102.552 85.4324 102.409C85.4606 102.21 85.5421 101.995 85.7207 101.782C85.898 101.572 86.165 101.358 86.5749 101.113C87.0891 100.765 87.3896 100.477 87.5574 100.239C87.7253 100.001 87.7678 99.8173 87.7707 99.6265C87.7726 99.5041 87.7508 99.374 87.7274 99.2337C87.6777 98.937 87.6204 98.5945 87.7629 98.1812C87.7645 98.1768 87.7661 98.1723 87.768 98.168C88.096 97.4004 88.2494 96.9427 88.2625 96.5285C88.2756 96.1143 88.1523 95.7102 87.8789 95.0344C87.8782 95.0327 87.8776 95.031 87.8769 95.0293C87.8769 95.0293 87.4677 93.928 87.0191 92.8285C86.7948 92.2787 86.5604 91.7289 86.3648 91.3223C86.267 91.1189 86.1784 90.9506 86.1101 90.8418C86.0782 90.7908 86.0516 90.7563 86.0355 90.7379C85.8593 90.6919 85.7716 90.7261 85.6488 90.839C85.5222 90.9554 85.3875 91.17 85.2363 91.4226L85.2266 91.4388C84.9255 91.942 84.5346 92.5952 83.7496 92.8793C83.748 92.88 83.7465 92.8806 83.7449 92.8813C82.1733 93.4051 80.1125 92.7512 78.3195 92.0024C77.596 91.7002 76.9164 91.3788 76.3353 91.104C76.1963 91.0382 76.0629 90.9752 75.9359 90.9156C75.607 90.7615 75.3206 90.6311 75.0941 90.5414C74.868 90.4519 74.6906 90.4092 74.641 90.409C74.5158 90.4115 74.2735 90.4416 73.971 90.4792C73.8519 90.494 73.7234 90.5099 73.589 90.5258C73.1124 90.5822 72.5528 90.6365 72.0156 90.6293C71.4785 90.6222 70.9626 90.5589 70.5605 90.3477C70.3307 90.227 70.1525 90.0372 70.0414 89.8008C69.8993 89.9976 69.7355 90.1529 69.5461 90.2395C69.2121 90.3921 68.8474 90.3829 68.5152 90.3164C68.183 90.2499 67.8766 90.124 67.6445 90.0164C67.5474 89.9714 67.4632 89.9296 67.3975 89.8969C67.3847 89.8905 67.3727 89.8845 67.3613 89.8789C67.3303 89.8636 67.3075 89.8526 67.2906 89.8449C66.8441 89.8487 66.5678 89.9328 66.384 90.0477C66.196 90.1652 66.0876 90.3182 65.9816 90.4953C65.9616 90.5288 65.9419 90.5633 65.9219 90.5983C65.8363 90.7482 65.7451 90.9077 65.5973 91.0434C65.4149 91.2107 65.1446 91.3144 64.7777 91.2973C64.7594 91.2964 64.7412 91.293 64.7238 91.2871C64.6886 91.2754 64.5231 91.2431 64.3047 91.2149C64.0863 91.1867 63.803 91.157 63.4793 91.1266C62.8319 91.0658 62.0221 91.0029 61.2308 90.9465C59.8043 90.8448 58.6164 90.775 58.3724 90.7606L58.3512 90.7594V91.527C58.3512 91.5611 58.3424 91.5946 58.3258 91.6244C58.3092 91.6542 58.2853 91.6792 58.2563 91.6971C58.2273 91.715 58.1942 91.7253 58.1601 91.7268C58.1261 91.7283 58.0922 91.7211 58.0617 91.7059L54.1555 89.7524L50.741 88.777C50.7381 88.7761 50.7352 88.7752 50.7324 88.7742C49.5919 88.394 49.064 87.7835 48.6343 87.2866C48.4883 87.1177 48.3536 86.962 48.2101 86.8328C47.9272 86.5782 47.6181 86.4065 47.0594 86.3707C46.5006 86.3349 45.6924 86.4507 44.4785 86.8149C44.4486 86.8238 44.4171 86.8257 44.3863 86.8202C44.3556 86.8148 44.3266 86.8023 44.3016 86.7837C44.2766 86.765 44.2563 86.7408 44.2423 86.7129C44.2283 86.685 44.221 86.6543 44.2211 86.6231V83.8813H41.9695C41.9405 83.8813 41.9118 83.8749 41.8854 83.8627C41.8591 83.8505 41.8357 83.8327 41.817 83.8106C41.7982 83.7884 41.7845 83.7624 41.7767 83.7344C41.769 83.7064 41.7675 83.6771 41.7722 83.6485C42.0169 82.18 42.1383 81.2645 42.1758 80.6426C42.2132 80.0207 42.1699 79.701 42.0828 79.3817C42.05 79.2615 42.01 79.1388 41.9649 79.0007C41.7786 78.4297 41.5065 77.5956 41.3078 75.5934L39.566 76.0289C39.5276 76.0386 39.4872 76.0366 39.4499 76.0232C39.4127 76.0099 39.3802 75.9857 39.3566 75.9539C38.8454 75.263 38.7405 74.7217 38.8578 74.2996C38.9587 73.9367 39.2014 73.6892 39.3889 73.4979C39.4195 73.4667 39.4486 73.4371 39.4754 73.4086C39.5709 73.3071 39.6333 73.2209 39.6504 73.1707L39.6509 73.1691C39.6676 73.1202 39.673 73.1041 39.6113 73.0211C39.4865 72.8533 39.0088 72.5366 37.9683 72.0961C37.9313 72.0804 37.8999 72.054 37.8782 72.0202C37.8565 71.9864 37.8454 71.9468 37.8465 71.9067C37.8465 71.9067 37.863 71.1845 37.7558 70.6055C37.7023 70.316 37.6021 70.0677 37.525 69.9922C37.4864 69.9545 37.4751 69.951 37.4359 69.9559C37.4016 69.9602 37.3223 70.0039 37.2293 70.0805C37.231 70.1041 37.2333 70.1342 37.2457 70.1836C37.2767 70.3078 37.3418 70.4826 37.4144 70.6539C37.5597 70.9965 37.7332 71.3285 37.7332 71.3285C37.7502 71.3609 37.7579 71.3973 37.7557 71.4337C37.7535 71.4702 37.7413 71.5054 37.7205 71.5354C37.6996 71.5654 37.671 71.5892 37.6376 71.6041C37.6043 71.619 37.5675 71.6245 37.5312 71.6199C35.5555 71.373 34.2758 71.0029 33.4859 70.1473C32.696 69.2916 32.4519 68.0055 32.4519 66.0274C32.4519 65.9987 32.4581 65.9704 32.47 65.9443C32.4818 65.9183 32.4992 65.8951 32.5208 65.8763C32.5425 65.8575 32.5679 65.8436 32.5953 65.8355C32.6228 65.8274 32.6517 65.8253 32.6801 65.8293C32.6801 65.8293 33.4846 65.9436 34.2472 66.0004C34.6286 66.0288 35.002 66.042 35.2414 66.0223C35.2957 66.0178 35.3193 66.0116 35.3452 66.0047C35.3529 66.0027 35.3609 66.0006 35.3699 65.9985C35.2452 65.7413 35.1457 65.3797 35.0414 64.8918C34.9209 64.3284 34.8062 63.6485 34.709 62.9817C34.6118 62.3148 34.5321 61.6618 34.4836 61.1524C34.4593 60.8977 34.4428 60.6793 34.4355 60.5106C34.432 60.4262 34.4308 60.3545 34.4324 60.2942C34.4326 60.2869 34.4327 60.2799 34.4329 60.2732C34.4336 60.2351 34.4342 60.2039 34.4437 60.1639C34.4454 60.0204 34.5135 59.9032 34.5961 59.7876C34.686 59.6616 34.8056 59.5337 34.9445 59.3966C35.0728 59.2698 35.2179 59.1355 35.37 58.9947C35.5471 58.8308 35.7337 58.6581 35.914 58.4786C36.2492 58.1449 36.5611 57.7869 36.7469 57.438C36.9326 57.089 36.994 56.7672 36.8711 56.4446C36.8616 56.4199 36.8572 56.3935 36.8581 56.367C36.8589 56.3406 36.865 56.3146 36.876 56.2905C36.8869 56.2664 36.9026 56.2447 36.922 56.2267C36.9414 56.2087 36.9642 56.1947 36.989 56.1856C37.234 56.0956 37.5965 56.0668 37.925 56.0454C38.0431 56.0377 38.0892 56.0365 38.1488 56.035C38.1706 56.0345 38.1942 56.0339 38.2238 56.0329C37.4432 54.4606 37.3628 54.1232 37.3594 52.5114C37.3234 52.5141 37.2851 52.5165 37.2473 52.5189C37.1809 52.523 37.116 52.5271 37.0676 52.5325C36.9703 52.5434 36.8561 52.53 36.7386 52.5114C36.7244 52.5355 36.7049 52.5704 36.6804 52.6313C36.6571 52.6895 36.6321 52.7589 36.6046 52.8351C36.5622 52.9529 36.5139 53.0869 36.457 53.2204C36.3634 53.4401 36.2492 53.6635 36.0629 53.8239C35.8765 53.9843 35.5909 54.0531 35.3051 53.9387C35.2742 53.9264 35.247 53.9065 35.2258 53.8809C35.1446 53.7835 35.154 53.6974 35.1619 53.6244C35.1624 53.6202 35.1628 53.616 35.1633 53.6118C35.1711 53.5362 35.189 53.4605 35.2101 53.3762C35.2197 53.3381 35.2301 53.2983 35.2408 53.2574C35.2772 53.1174 35.3175 52.9628 35.3441 52.8059C35.3785 52.6031 35.3882 52.3989 35.3476 52.2286C35.307 52.0583 35.227 51.9211 35.0492 51.8067L35.0484 51.8059C34.8842 51.699 34.8574 51.5237 34.8472 51.3618C34.837 51.1998 34.8524 51.0209 34.8714 50.836C34.9013 50.5449 34.9098 50.2957 34.9019 50.0942C34.7604 50.1164 34.5881 50.1308 34.3839 50.0719C33.9367 49.9429 33.4112 49.5184 32.9793 48.4938C32.9147 48.4122 32.8953 48.4129 32.8511 48.4211C32.8052 48.4297 32.7186 48.4807 32.6367 48.561C32.5004 48.6945 32.4104 48.8487 32.3778 48.9045C32.3759 48.9078 32.3741 48.9107 32.3726 48.9133C32.3759 48.9233 32.3793 48.933 32.3827 48.9429C32.4027 49 32.4242 49.0615 32.4285 49.1911C32.4321 49.3004 32.4203 49.425 32.3605 49.5469C32.3007 49.6689 32.1839 49.7809 32.0277 49.8348C31.9972 49.8453 31.9646 49.8483 31.9327 49.8434C31.9008 49.8386 31.8705 49.8261 31.8445 49.8071C31.5896 49.6205 31.3774 49.5664 31.1175 49.5002C31.0899 49.4932 31.0619 49.486 31.0332 49.4786C30.7334 49.4007 30.3762 49.2873 29.9535 48.952C29.7243 48.7702 29.6052 48.5581 29.5511 48.361C29.5142 48.2263 29.5025 48.1013 29.492 47.9892C29.4871 47.9372 29.4825 47.8879 29.4757 47.8418C29.4545 47.6964 29.4224 47.5866 29.3179 47.4684C29.2135 47.3502 29.0221 47.2186 28.6625 47.0915C28.637 47.0825 28.6137 47.0685 28.5938 47.0502C28.574 47.032 28.558 47.01 28.5469 46.9854C28.5357 46.9609 28.5297 46.9343 28.5291 46.9073C28.5285 46.8804 28.5333 46.8536 28.5433 46.8286C29.0354 45.5984 29.2955 45.0614 29.7773 44.7172C30.0899 44.494 30.4951 44.3499 31.0664 44.1468C31.2706 44.0742 31.496 43.9941 31.7461 43.9001C30.6982 43.1903 30.4125 42.9153 29.5839 41.6735C28.4496 41.2869 27.8753 40.8892 26.9809 40.2698C26.7387 40.1021 26.473 39.9181 26.1664 39.7137C26.1492 39.7023 26.1339 39.6884 26.1211 39.6723C24.0988 37.1441 23.1351 32.2297 23.1351 28.759C23.1351 28.7315 23.1408 28.7042 23.1518 28.6789C23.1628 28.6536 23.179 28.6309 23.1992 28.6122C23.3896 28.4358 23.6322 28.3618 23.8593 28.404C24.0865 28.4461 24.2898 28.5798 24.491 28.7618C24.8933 29.1258 25.2989 29.7048 25.7437 30.361C25.8007 30.4451 25.8584 30.5305 25.9167 30.6168C26.7661 31.8745 27.7468 33.3266 28.8273 33.9774L32.2402 35.4407C32.2439 35.4421 32.2475 35.4437 32.2511 35.4454C33.2497 35.9447 33.8826 36.4506 34.4398 36.9457C34.5494 37.0432 34.6561 37.14 34.7623 37.2363C35.1909 37.6252 35.6109 38.0063 36.1781 38.3868L40.5613 39.8481C40.5816 39.8549 40.6008 39.8649 40.6179 39.8778C41.4955 40.5359 42.176 41.2855 42.7822 41.9531C42.8681 42.0478 42.9526 42.1408 43.0359 42.2317C43.6959 42.9516 44.2836 43.524 44.9425 43.7559C45.6767 43.7489 46.0965 43.548 46.4089 43.3305C46.5054 43.2634 46.5917 43.1943 46.6749 43.1276C46.7289 43.0844 46.7815 43.0423 46.8347 43.0024C46.9701 42.9009 47.1164 42.8077 47.3007 42.7872C47.3048 42.7868 47.3088 42.7865 47.3128 42.7864C48.7475 42.7128 49.8253 42.5823 50.6 42.3696C51.3746 42.1568 51.834 41.8683 52.0851 41.4899C52.0893 41.4835 52.0939 41.4774 52.0988 41.4715C52.2864 41.2492 52.557 41.1687 52.8543 41.1492C53.0363 41.1373 53.2377 41.1427 53.4696 41.1489C53.6163 41.1528 53.7753 41.1571 53.9492 41.1574C54.8182 41.1594 56.0733 41.0615 57.9121 40.3957L57.4672 38.6149C57.4579 38.5782 57.4593 38.5396 57.4711 38.5036C57.4829 38.4677 57.5047 38.4358 57.5339 38.4117C57.5339 38.4117 58.535 37.6077 59.9093 37.8406C59.8923 37.3673 59.8797 36.6832 60.0101 35.9278C60.1506 35.1142 60.4672 34.2689 61.1199 33.6832C60.7938 33.2712 60.6795 32.8805 60.7179 32.593C60.7616 32.2659 60.9445 32.0586 60.9445 32.0586C60.9479 32.0548 60.9514 32.0512 60.955 32.0477C60.955 32.0477 61.145 31.8651 61.3453 31.6352C61.5421 31.4092 61.7351 31.1179 61.7648 31.0082C61.4772 29.4157 61.8513 28.8828 62.1121 28.5111C62.1991 28.3872 62.2735 28.2812 62.3066 28.1598C62.3398 28.0377 62.3248 28.0079 62.3015 27.9699C62.2794 27.9339 62.2231 27.8863 62.1436 27.819L62.1308 27.8082C62.0445 27.7352 61.9342 27.632 61.8734 27.4719C61.8126 27.3117 61.8093 27.1122 61.8757 26.8664C62.0191 26.3348 62.493 26.0406 62.9046 25.7867C63.3163 25.5329 63.6576 25.3075 63.7226 25.0606C63.8028 24.7573 63.7236 24.557 63.6179 24.3801C63.5808 24.318 63.5401 24.2612 63.5007 24.2061C63.4839 24.1828 63.4674 24.1597 63.4515 24.1367C63.4444 24.1265 63.4369 24.1163 63.4291 24.1058C63.3785 24.0373 63.321 23.9595 63.3496 23.8164C63.3524 23.8019 63.3569 23.7878 63.3628 23.7742C63.4839 23.502 63.51 22.9332 63.4781 22.3727C63.4584 22.0273 63.422 21.6839 63.3914 21.3942C63.3722 21.2137 63.3553 21.054 63.346 20.9278C63.3427 20.8813 63.3556 20.8351 63.3826 20.7972C63.4097 20.7592 63.4491 20.7319 63.4941 20.7199C64.7153 20.3934 65.5399 19.7494 66.1893 19.2423C66.2175 19.2202 66.2454 19.1985 66.273 19.177L66.2734 19.1767C66.6043 18.9189 66.8861 18.6993 67.1867 18.5949C67.3929 18.5233 67.6109 18.5613 67.8191 18.6551C68.0493 17.3396 68.2915 16.3762 68.8523 15.7531C69.432 15.1091 70.3304 14.8554 71.725 14.8363C71.7583 14.7057 71.7563 14.5812 71.7093 14.4485C71.6492 14.2788 71.5327 14.1025 71.4117 13.9356C71.3889 13.9041 71.3659 13.8732 71.3432 13.8427C71.2454 13.7113 71.152 13.5859 71.0949 13.4438C71.0597 13.3562 71.0363 13.2496 71.0714 13.1379C71.1066 13.0262 71.1982 12.9401 71.3019 12.8883C71.3223 12.8781 71.3442 12.8715 71.3668 12.8688C71.8675 12.8062 72.3456 12.7873 72.8445 12.9914C73.3392 13.1939 73.8368 13.6081 74.4175 14.3551C74.4207 14.3501 74.4238 14.3454 74.4269 14.3406C74.4423 14.3172 74.4579 14.2935 74.4863 14.2285C74.5003 14.1966 74.5145 14.1624 74.5294 14.1269C74.5687 14.0327 74.6121 13.9289 74.6648 13.8305C74.7374 13.6949 74.8261 13.5503 75.0062 13.4903C75.122 13.4516 75.2555 13.4259 75.3921 13.3996C75.5255 13.3739 75.6619 13.3477 75.7878 13.3082C75.9153 13.2683 76.0271 13.217 76.1054 13.1555C76.1838 13.094 76.2309 13.0291 76.2531 12.9309V12.9301C76.3923 12.3286 76.5979 11.5251 77.0976 10.5258L77.0988 10.5231C77.1573 10.4104 77.2164 10.3216 77.2953 10.2524ZM36.6389 52.5051C36.6385 52.5051 36.6381 52.5052 36.6375 52.5051L36.6378 52.5055C36.6384 52.5057 36.6392 52.5049 36.6398 52.5051L36.6389 52.5051Z" fill="white"/>
<path d="M23.1287 32.6209C23.1767 32.6213 23.2228 32.6216 23.2664 32.6199C23.301 32.6187 23.3353 32.6265 23.366 32.6425C23.3967 32.6585 23.4228 32.6823 23.4415 32.7114C23.4603 32.7405 23.4712 32.7739 23.4732 32.8085C23.4751 32.8431 23.4681 32.8776 23.4527 32.9086C23.4149 32.9848 23.385 32.9945 23.3658 33.0008C23.3619 33.0021 23.3584 33.0032 23.3555 33.0047C23.339 33.013 23.3282 33.0169 23.318 33.0206L23.3156 33.0215C23.3015 33.0266 23.2883 33.0311 23.2743 33.0359C23.2665 33.0385 23.2585 33.0412 23.25 33.0442C23.2024 33.0606 23.143 33.0829 23.0785 33.1172C22.9495 33.1857 22.8039 33.2965 22.7027 33.5051C22.6848 33.5419 22.656 33.5722 22.6202 33.5921C22.5845 33.612 22.5435 33.6205 22.5028 33.6163C22.4621 33.6122 22.4236 33.5957 22.3926 33.569C22.3616 33.5424 22.3395 33.5068 22.3293 33.4672C22.2814 33.2801 22.2729 33.1223 22.3222 32.982C22.3716 32.8418 22.488 32.7405 22.6035 32.6926C22.782 32.6186 22.9659 32.6198 23.1287 32.6209Z" fill="white"/>
<path d="M22.5129 34.2903C22.6788 34.166 22.8632 34.1515 22.9851 34.1485C23.0659 34.1465 23.1281 34.1535 23.1281 34.1535C23.16 34.1572 23.1905 34.1685 23.2171 34.1865C23.2437 34.2044 23.2656 34.2285 23.2809 34.2567C23.2962 34.2849 23.3045 34.3164 23.3051 34.3484C23.3057 34.3805 23.2986 34.4123 23.2844 34.441C23.2568 34.4966 23.2285 34.5135 23.2103 34.5244C23.2083 34.5255 23.2064 34.5267 23.2047 34.5277C23.1875 34.5385 23.1768 34.5432 23.1675 34.5474L23.1668 34.5477C23.155 34.5529 23.1453 34.5567 23.136 34.5604C23.1304 34.5626 23.1249 34.5648 23.1191 34.5672C23.0886 34.58 23.0532 34.5964 23.0105 34.6246C22.9252 34.681 22.8111 34.7832 22.7027 35.0067C22.6848 35.0434 22.656 35.0738 22.6202 35.0937C22.5845 35.1136 22.5435 35.122 22.5028 35.1179C22.4621 35.1138 22.4236 35.0972 22.3926 35.0706C22.3616 35.0439 22.3395 35.0084 22.3293 34.9688C22.2532 34.6715 22.347 34.4145 22.5129 34.2903Z" fill="white"/>
<path d="M25.9927 41.4319C26.0205 41.4143 26.0523 41.4039 26.0851 41.4016C26.0851 41.4016 26.2878 41.3789 26.4906 41.4817C26.592 41.533 26.6992 41.6257 26.7562 41.7633C26.8133 41.9009 26.8175 42.0695 26.768 42.2633C26.7578 42.3029 26.7356 42.3385 26.7046 42.3651C26.6736 42.3918 26.6351 42.4083 26.5944 42.4124C26.5537 42.4166 26.5128 42.4081 26.477 42.3882C26.4413 42.3683 26.4125 42.338 26.3945 42.3012C26.2801 42.0653 26.1787 41.9401 26.1094 41.8707C26.0747 41.836 26.0485 41.8155 26.0265 41.7992C26.0226 41.7963 26.0187 41.7935 26.0148 41.7906C26.0079 41.7856 26.0008 41.7805 25.9922 41.7738C25.9896 41.7719 25.9868 41.7703 25.9837 41.7685C25.97 41.7607 25.9501 41.7493 25.9207 41.691C25.9059 41.6616 25.8986 41.629 25.8994 41.5961C25.9002 41.5631 25.9092 41.5309 25.9254 41.5023C25.9417 41.4737 25.9648 41.4495 25.9927 41.4319Z" fill="white"/>
<path d="M138.165 70.3296C138.201 70.3085 138.242 70.2991 138.284 70.3028C138.325 70.3064 138.365 70.323 138.396 70.3501C138.428 70.3772 138.451 70.4135 138.461 70.4539C138.472 70.5012 138.493 70.5498 138.516 70.6042C138.545 70.6742 138.579 70.7538 138.602 70.852C138.644 71.0263 138.618 71.2543 138.463 71.4871C138.444 71.5147 138.419 71.5373 138.39 71.5528C138.361 71.5683 138.328 71.5763 138.295 71.576C138.262 71.5757 138.229 71.5672 138.2 71.5512C138.171 71.5352 138.146 71.5123 138.128 71.4844C137.94 71.1918 137.917 70.7962 138.084 70.4207C138.101 70.3826 138.129 70.3508 138.165 70.3296Z" fill="white"/>
</g>
<defs>
<clipPath id="clip0_451_2103">
<rect width="160" height="120" fill="white" transform="translate(0.455078)"/>
</clipPath>
</defs>
</svg>
