<svg width="160" height="120" viewBox="0 0 160 120" fill="none" xmlns="http://www.w3.org/2000/svg">
<g clip-path="url(#clip0_909_228004)">
<path d="M0 0H160V120H0V0Z" fill="#54AEF2"/>
<path d="M0 40H160V80H0V40Z" fill="white"/>
<path fill-rule="evenodd" clip-rule="evenodd" d="M85.2775 57.1621C86.0951 56.7728 86.6768 56.2318 87.2418 55.7063C87.8996 55.0946 88.5349 54.5037 89.4938 54.1971C90.9495 53.7486 91.6655 52.8313 92.1924 52.1562C92.3743 51.9232 92.5337 51.719 92.6931 51.573C93.0623 51.2702 93.429 51.2538 93.6769 51.2426C93.8587 51.2345 93.9765 51.2292 93.9846 51.116C94.0036 50.8483 93.2434 50.6437 92.2564 51.2084C91.9345 51.403 91.7223 51.6346 91.4923 51.8857C91.0394 52.38 90.5177 52.9496 88.9544 53.4593C87.7808 53.842 87.1734 54.3636 86.5913 54.8634C86.1003 55.2851 85.6273 55.6913 84.8476 55.9857L91.7117 48.5765C91.7117 48.5765 91.9319 48.3554 91.7919 48.2055C91.6297 48.0649 91.4317 48.2768 91.4317 48.2768L83.7909 55.3573C84.3966 54.685 84.7268 53.9631 85.0476 53.2617C85.4211 52.4449 85.782 51.6559 86.5505 51.0056C87.7238 50.0342 88.0342 48.9127 88.2627 48.0874C88.3416 47.8025 88.4107 47.5529 88.5022 47.3569C88.7273 46.9359 89.0599 46.7804 89.2846 46.6753C89.4494 46.5982 89.5563 46.5482 89.5204 46.4405C89.4355 46.1859 88.6549 46.2878 87.9591 47.1872C87.7362 47.4902 87.6288 47.7854 87.5124 48.1054C87.2832 48.7354 87.0191 49.4612 85.7699 50.5304C84.8321 51.3331 84.4705 52.0474 84.124 52.732C83.8317 53.3094 83.5501 53.8657 82.9425 54.4361L86.4487 44.9641C86.4487 44.9641 86.5675 44.6756 86.3808 44.5907C86.1772 44.5228 86.0754 44.7943 86.0754 44.7943L81.7248 54.2619C82.0278 53.4083 82.0566 52.6143 82.0846 51.843C82.1171 50.9454 82.1486 50.0783 82.6098 49.1834C83.322 47.837 83.1796 46.6821 83.0749 45.8321C83.0387 45.5388 83.007 45.2817 83.0165 45.0656C83.0635 44.5905 83.3112 44.3196 83.4786 44.1364C83.6014 44.0021 83.681 43.9151 83.6066 43.8293C83.4308 43.6266 82.7485 44.0194 82.4499 45.1167C82.3599 45.4819 82.3736 45.7957 82.3885 46.1359C82.4179 46.8057 82.4517 47.5773 81.7067 49.0431C81.1474 50.1436 81.0867 50.9419 81.0286 51.707C80.9795 52.3523 80.9323 52.974 80.5892 53.7335L80.2037 43.6407C80.2037 43.6407 80.2031 43.3287 79.9981 43.3218C79.784 43.337 79.7938 43.6268 79.7938 43.6268L79.3975 54.0386C79.3508 53.134 79.0736 52.3894 78.8042 51.6661C78.4908 50.8243 78.1881 50.0113 78.2717 49.008C78.4144 47.4915 77.8409 46.479 77.4189 45.7338C77.2732 45.4766 77.1456 45.2512 77.0717 45.048C76.9332 44.5911 77.0583 44.246 77.1429 44.0127C77.205 43.8417 77.2452 43.7307 77.1437 43.68C76.9037 43.56 76.4237 44.184 76.5677 45.312C76.6242 45.6838 76.7571 45.9685 76.901 46.2771C77.1844 46.8846 77.511 47.5846 77.3837 49.224C77.2881 50.4547 77.5375 51.2154 77.7766 51.9446C77.9782 52.5595 78.1725 53.152 78.1461 53.985L73.9277 44.808C73.9277 44.808 73.8077 44.52 73.6157 44.592C73.4237 44.688 73.5437 44.952 73.5437 44.952L77.1611 54.7206C76.7718 53.9039 76.2313 53.3227 75.7061 52.758C75.0944 52.1002 74.5035 51.4649 74.1968 50.506C73.7484 49.0503 72.8311 48.3343 72.156 47.8074C71.923 47.6255 71.7188 47.4661 71.5728 47.3066C71.27 46.9375 71.2535 46.5708 71.2424 46.3229C71.2343 46.1411 71.229 46.0233 71.1158 46.0152C70.8481 45.9962 70.6434 46.7564 71.2082 47.7434C71.4027 48.0653 71.6344 48.2775 71.8855 48.5075C72.3798 48.9603 72.9494 49.4821 73.4591 51.0454C73.8418 52.219 74.3633 52.8264 74.8632 53.4085C75.2849 53.8995 75.6911 54.3725 75.9855 55.1522L68.5762 48.2881C68.5762 48.2881 68.3552 48.0679 68.2053 48.2079C68.0647 48.3701 68.2766 48.568 68.2766 48.568L75.3584 56.2103C74.6857 55.6038 73.9633 55.2733 73.2614 54.9523C72.4445 54.5787 71.6555 54.2179 71.0052 53.4493C70.0338 52.2761 68.9123 51.9656 68.087 51.7372C67.8021 51.6583 67.5525 51.5892 67.3565 51.4977C66.9355 51.2725 66.78 50.94 66.6749 50.7153C66.5978 50.5505 66.5478 50.4436 66.4401 50.4795C66.1856 50.5643 66.2874 51.345 67.1868 52.0408C67.4898 52.2637 67.785 52.3711 68.105 52.4875C68.735 52.7167 69.4609 52.9807 70.53 54.23C71.3327 55.1678 72.047 55.5294 72.7316 55.8759C73.309 56.1682 73.8653 56.4497 74.4357 57.0574L64.9637 53.5512C64.9637 53.5512 64.6752 53.4324 64.5903 53.619C64.5224 53.8227 64.794 53.9245 64.794 53.9245L74.259 58.2739C73.4065 57.9719 72.6135 57.9431 71.843 57.9152C70.9454 57.8826 70.0783 57.8512 69.1834 57.39C67.837 56.6778 66.6821 56.8201 65.8321 56.9249C65.5387 56.961 65.2817 56.9927 65.0656 56.9832C64.5905 56.9363 64.3196 56.6886 64.1364 56.5212C64.0021 56.3984 63.9151 56.3188 63.8293 56.3932C63.6266 56.569 64.0194 57.2512 65.1167 57.5499C65.4819 57.6399 65.7957 57.6261 66.1359 57.6112C66.8057 57.5819 67.5773 57.5481 69.0431 58.293C70.1436 58.8523 70.9419 58.913 71.707 58.9712C72.3523 59.0202 72.974 59.0675 73.7335 59.4106L63.6407 59.796C63.6407 59.796 63.3287 59.7967 63.3218 60.0016C63.337 60.2158 63.6268 60.2059 63.6268 60.2059L74.037 60.6022C73.1329 60.6491 72.3888 60.9262 71.6657 61.1954C70.824 61.5088 70.0109 61.8116 69.0076 61.728C67.4911 61.5852 66.4786 62.1587 65.7335 62.5807C65.4762 62.7264 65.2509 62.8541 65.0476 62.928C64.5907 63.0664 64.2456 62.9413 64.0123 62.8567C63.8413 62.7947 63.7304 62.7544 63.6796 62.856C63.5596 63.096 64.1836 63.576 65.3116 63.432C65.6835 63.3754 65.9682 63.2426 66.2768 63.0986C66.8843 62.8152 67.5843 62.4886 69.2236 62.616C70.4543 62.7116 71.2151 62.4621 71.9442 62.2231C72.5592 62.0214 73.1517 61.8272 73.9846 61.8535L64.8076 66.072C64.8076 66.072 64.5196 66.192 64.5916 66.384C64.6876 66.576 64.9516 66.456 64.9516 66.456L74.7243 62.837C73.9058 63.2264 73.3238 63.7677 72.7583 64.2936C72.1005 64.9053 71.4652 65.4962 70.5063 65.8029C69.0506 66.2514 68.3347 67.1686 67.8077 67.8437C67.6258 68.0767 67.4665 68.2809 67.307 68.427C66.9378 68.7297 66.5711 68.7462 66.3232 68.7573C66.1415 68.7654 66.0236 68.7707 66.0155 68.884C65.9965 69.1516 66.7567 69.3563 67.7437 68.7916C68.0656 68.597 68.2778 68.3653 68.5078 68.1143C68.9607 67.6199 69.4824 67.0503 71.0457 66.5406C72.2193 66.158 72.8267 65.6364 73.4088 65.1365C73.8998 64.7149 74.3729 64.3087 75.1525 64.0142L68.2884 71.4235C68.2884 71.4235 68.0682 71.6446 68.2082 71.7944C68.3704 71.935 68.5684 71.7232 68.5684 71.7232L76.2092 64.6427C75.6035 65.3149 75.2733 66.0368 74.9526 66.7382C74.579 67.555 74.2181 68.3441 73.4496 68.9944C72.2763 69.9658 71.9659 71.0872 71.7374 71.9125C71.6585 72.1974 71.5894 72.4471 71.498 72.643C71.2728 73.064 70.9403 73.2196 70.7155 73.3247C70.5507 73.4018 70.4438 73.4517 70.4797 73.5594C70.5646 73.814 71.3452 73.7122 72.041 72.8127C72.2639 72.5098 72.3714 72.2145 72.4878 71.8945C72.7169 71.2645 72.981 70.5387 74.2302 69.4695C75.1681 68.6669 75.5296 67.9526 75.8761 67.2679C76.1684 66.6905 76.45 66.1342 77.0576 65.5639L73.5514 75.0359C73.5514 75.0359 73.4326 75.3244 73.6193 75.4092C73.8229 75.4771 73.9247 75.2056 73.9247 75.2056L78.2753 65.7381C77.9723 66.5917 77.9435 67.3856 77.9155 68.1569C77.883 69.0546 77.8515 69.9216 77.3903 70.8165C76.6781 72.163 76.8205 73.3179 76.9252 74.1678C76.9614 74.4612 76.9931 74.7183 76.9836 74.9343C76.9366 75.4094 76.689 75.6804 76.5215 75.8635C76.3988 75.9978 76.3192 76.0849 76.3935 76.1706C76.5694 76.3733 77.2516 75.9805 77.5502 74.8833C77.6403 74.5181 77.6265 74.2042 77.6116 73.864C77.5822 73.1943 77.5484 72.4226 78.2934 70.9568C78.8527 69.8563 78.9134 69.058 78.9715 68.2929C79.0206 67.6476 79.0678 67.0259 79.4109 66.2664L79.7964 76.3592C79.7964 76.3592 79.7971 76.6712 80.002 76.6782C80.2161 76.6629 80.2063 76.3731 80.2063 76.3731L80.6026 65.9613C80.6493 66.866 80.9265 67.6105 81.1959 68.3338C81.5093 69.1756 81.8121 69.9887 81.7285 70.992C81.5857 72.5085 82.1592 73.521 82.5812 74.2661C82.7269 74.5233 82.8546 74.7487 82.9285 74.952C83.0669 75.4089 82.9418 75.754 82.8572 75.9872C82.7951 76.1583 82.7549 76.2692 82.8565 76.32C83.0965 76.44 83.5765 75.816 83.4325 74.688C83.3759 74.3161 83.243 74.0314 83.0991 73.7228C82.8157 73.1153 82.4891 72.4153 82.6165 70.776C82.712 69.5452 82.4626 68.7845 82.2235 68.0554C82.0219 67.4404 81.8276 66.8479 81.854 66.015L86.0725 75.192C86.0725 75.192 86.1925 75.48 86.3845 75.408C86.5765 75.312 86.4565 75.048 86.4565 75.048L82.8407 65.2839C83.2298 66.0982 83.7693 66.6783 84.2935 67.242C84.9052 67.8997 85.4961 68.5351 85.8028 69.494C86.2513 70.9496 87.1685 71.6656 87.8436 72.1925C88.0766 72.3744 88.2808 72.5338 88.4269 72.6933C88.7297 73.0625 88.7461 73.4292 88.7572 73.6771C88.7653 73.8588 88.7706 73.9767 88.8839 73.9847C89.1515 74.0037 89.3562 73.2436 88.7915 72.2565C88.5969 71.9346 88.3652 71.7224 88.1142 71.4924C87.6198 71.0396 87.0503 70.5179 86.5405 68.9546C86.1579 67.781 85.6363 67.1736 85.1364 66.5914C84.7148 66.1004 84.3086 65.6274 84.0142 64.8478L91.4234 71.7119C91.4234 71.7119 91.6445 71.932 91.7943 71.792C91.935 71.6299 91.7231 71.4319 91.7231 71.4319L84.6412 63.7896C85.3139 64.3962 86.0364 64.7266 86.7383 65.0476C87.5551 65.4212 88.3441 65.7821 88.9944 66.5506C89.9658 67.7239 91.0873 68.0343 91.9126 68.2628C92.1975 68.3417 92.4471 68.4108 92.6431 68.5022C93.0641 68.7274 93.2196 69.0599 93.3248 69.2847C93.4018 69.4495 93.4518 69.5564 93.5595 69.5205C93.8141 69.4356 93.7123 68.655 92.8128 67.9592C92.5099 67.7362 92.2146 67.6288 91.8946 67.5124C91.2646 67.2832 90.5388 67.0192 89.4696 65.77C88.667 64.8321 87.9526 64.4706 87.268 64.124C86.6906 63.8318 86.1343 63.5502 85.5639 62.9426L95.036 66.4488C95.036 66.4488 95.3245 66.5676 95.4093 66.3809C95.4772 66.1773 95.2057 66.0754 95.2057 66.0754L85.7406 61.726C86.5931 62.0281 87.3862 62.0568 88.1566 62.0848C89.0543 62.1173 89.9213 62.1488 90.8162 62.61C92.1627 63.3222 93.3176 63.1798 94.1675 63.0751C94.4609 63.0389 94.718 63.0072 94.934 63.0167C95.4091 63.0637 95.6801 63.3113 95.8632 63.4788C95.9975 63.6015 96.0846 63.6811 96.1703 63.6068C96.373 63.431 95.9802 62.7487 94.883 62.4501C94.5178 62.36 94.2039 62.3738 93.8637 62.3887C93.194 62.4181 92.4223 62.4519 90.9565 61.7069C89.856 61.1476 89.0577 61.0869 88.2926 61.0288C87.6473 60.9797 87.0256 60.9325 86.2661 60.5894L96.3589 60.2039C96.3589 60.2039 96.6709 60.2032 96.6779 59.9983C96.6626 59.7842 96.3728 59.794 96.3728 59.794L85.9626 59.3978C86.8667 59.3509 87.6109 59.0738 88.3339 58.8045C89.1757 58.4911 89.9887 58.1884 90.992 58.272C92.5085 58.4147 93.521 57.8412 94.2662 57.4192C94.5234 57.2735 94.7488 57.1459 94.952 57.072C95.4089 56.9335 95.754 57.0587 95.9873 57.1432C96.1583 57.2053 96.2693 57.2455 96.32 57.144C96.44 56.904 95.816 56.424 94.688 56.568C94.3162 56.6246 94.0314 56.7574 93.7229 56.9013C93.1153 57.1848 92.4154 57.5113 90.776 57.384C89.5453 57.2884 88.7846 57.5378 88.0554 57.7769C87.4405 57.9785 86.848 58.1728 86.015 58.1464L95.192 53.928C95.192 53.928 95.48 53.808 95.408 53.616C95.312 53.424 95.048 53.544 95.048 53.544L85.2775 57.1621ZM82.9641 58.0188L84.8181 57.3322L84.4555 56.409L82.9641 58.0188ZM82.6682 64.818L83.5909 64.4557L81.9821 62.9652L82.6682 64.818ZM76.4087 55.5443L77.3319 55.1818L78.0183 57.0354L76.4087 55.5443ZM83.4304 55.6913L82.7422 54.9772L81.9805 57.0349L83.4304 55.6913ZM80.6112 54.3101L81.5205 54.7066L80.695 56.5031L80.6112 54.3101ZM79.3037 56.5033L79.3789 54.5276L78.3871 54.5092L79.3037 56.5033ZM77.0363 61.9809L75.182 62.6675L75.5446 63.591L77.0363 61.9809ZM74.9768 57.2577L75.6911 56.5693L77.0349 58.0195L74.9768 57.2577ZM74.7065 58.4795L74.3101 59.3886L76.5025 59.3048L74.7065 58.4795ZM74.5272 60.6208L76.5027 60.696L74.5089 61.6125L74.5272 60.6208ZM77.2579 65.0228L76.5697 64.3086L78.0196 62.965L77.2579 65.0228ZM78.4796 65.2933L79.3889 65.6899L79.3052 63.4969L78.4796 65.2933ZM80.6212 65.4723L80.6964 63.4967L81.613 65.4907L80.6212 65.4723ZM85.0228 62.7423L84.3085 63.4306L82.9647 61.9804L85.0228 62.7423ZM85.2931 61.5204L85.6896 60.6114L83.4971 60.6951L85.2931 61.5204ZM85.4724 59.3791L83.497 59.3039L85.4908 58.3874L85.4724 59.3791Z" fill="#D3AE3B"/>
<path d="M87.02 55.3136C86.4779 55.8314 85.9067 56.377 85.0156 56.8055L84.8724 56.3972C85.8828 56.0152 86.5611 55.4513 87.1658 54.9487C87.8516 54.3786 88.4427 53.8872 89.316 53.8292C88.2669 54.1227 87.664 54.6985 87.02 55.3136Z" fill="#784B26"/>
<path d="M83.1946 65.0152C83.6231 65.9063 84.1687 66.4775 84.6865 67.0196C85.3016 67.6636 85.8774 68.2665 86.1709 69.3156C86.1129 68.4423 85.6215 67.8512 85.0515 67.1654C84.5488 66.5607 83.9849 65.8824 83.603 64.872L83.1946 65.0152Z" fill="#784B26"/>
<path d="M76.8054 54.9846C76.377 54.0935 75.8314 53.5223 75.3136 52.9802C74.6985 52.3362 74.1227 51.7333 73.8292 50.6842C73.8872 51.5575 74.3786 52.1486 74.9486 52.8344C75.4513 53.4391 76.0152 54.1174 76.3971 55.1277L76.8054 54.9846Z" fill="#784B26"/>
<path d="M84.6923 52.984C84.3896 53.6698 84.0706 54.3925 83.4113 55.1293L83.1228 54.8069C83.9101 54.0674 84.321 53.2868 84.6873 52.591C85.1027 51.8019 85.4608 51.1218 86.2454 50.734C85.3885 51.4066 85.0519 52.1693 84.6923 52.984Z" fill="#784B26"/>
<path d="M81.2877 54.1947C81.6148 53.2617 81.633 52.4719 81.6502 51.7225C81.6706 50.8322 81.6897 49.9987 82.224 49.0494C81.6475 49.7079 81.577 50.4733 81.4952 51.3613C81.423 52.1444 81.3421 53.0227 80.8978 54.0072L81.2877 54.1947Z" fill="#784B26"/>
<path d="M78.9683 54.1439C78.9135 53.1567 78.628 52.4201 78.3571 51.7211C78.0353 50.8908 77.734 50.1134 77.8643 49.0319C77.5837 49.8609 77.8115 50.595 78.0757 51.4468C78.3087 52.1978 78.57 53.0403 78.5363 54.1199L78.9683 54.1439Z" fill="#784B26"/>
<path d="M74.9845 63.1943C74.0934 63.6228 73.5222 64.1684 72.9801 64.6862C72.3361 65.3013 71.7332 65.8771 70.6841 66.1706C71.5574 66.1126 72.1485 65.6212 72.8343 65.0511C73.439 64.5485 74.1173 63.9846 75.1277 63.6026L74.9845 63.1943Z" fill="#784B26"/>
<path d="M75.1292 56.5888C74.3924 55.9295 73.6697 55.6106 72.9839 55.3079C72.1692 54.9483 71.4065 54.6117 70.7339 53.7547C71.1216 54.5394 71.8018 54.8974 72.5909 55.3129C73.2867 55.6792 74.0672 56.0901 74.8068 56.8773L75.1292 56.5888Z" fill="#784B26"/>
<path d="M71.7225 58.3499C72.4719 58.3671 73.2616 58.3852 74.1947 58.7124L74.0072 59.1023C73.0227 58.658 72.1443 58.5771 71.3613 58.5049C70.4733 58.4231 69.7079 58.3525 69.0494 57.7761C69.9987 58.3103 70.8322 58.3295 71.7225 58.3499Z" fill="#784B26"/>
<path d="M71.7209 61.6431C72.4199 61.3722 73.1564 61.0867 74.1436 61.0319L74.1196 61.4639C73.04 61.4302 72.1976 61.6915 71.4465 61.9245C70.5948 62.1887 69.8607 62.4165 69.0316 62.1359C70.1132 62.2662 70.8905 61.9649 71.7209 61.6431Z" fill="#784B26"/>
<path d="M76.5888 64.8704C75.9295 65.6073 75.6105 66.33 75.3078 67.0158C74.9482 67.8305 74.6116 68.5932 73.7547 69.2658C74.5393 68.878 74.8974 68.1979 75.3128 67.4088C75.6791 66.713 76.09 65.9324 76.8773 65.1929L76.5888 64.8704Z" fill="#784B26"/>
<path d="M78.3499 68.2773C78.3671 67.5279 78.3852 66.7381 78.7124 65.8051L79.1023 65.9925C78.658 66.9771 78.5771 67.8554 78.5049 68.6384C78.4231 69.5265 78.3525 70.2919 77.7761 70.9504C78.3103 70.0011 78.3295 69.1676 78.3499 68.2773Z" fill="#784B26"/>
<path d="M81.643 68.2787C81.3721 67.5797 81.0866 66.8431 81.0318 65.8559L81.4638 65.8799C81.4301 66.9595 81.6914 67.802 81.9244 68.553C82.1886 69.4048 82.4164 70.1389 82.1358 70.9679C82.2661 69.8864 81.9648 69.109 81.643 68.2787Z" fill="#784B26"/>
<path d="M84.8709 63.411C85.6077 64.0703 86.3304 64.3892 87.0162 64.6919C87.8309 65.0515 88.5936 65.3881 89.2662 66.2451C88.8784 65.4604 88.1983 65.1024 87.4092 64.6869C86.7134 64.3206 85.9328 63.9097 85.1933 63.1225L84.8709 63.411Z" fill="#784B26"/>
<path d="M88.2776 61.6499C87.5282 61.6327 86.7384 61.6145 85.8054 61.2874L85.9929 60.8975C86.9774 61.3418 87.8557 61.4227 88.6388 61.4949C89.5268 61.5767 90.2922 61.6473 90.9507 62.2237C90.0014 61.6895 89.1679 61.6703 88.2776 61.6499Z" fill="#784B26"/>
<path d="M88.2792 58.3567C87.5802 58.6276 86.8437 58.9131 85.8564 58.9679L85.8805 58.5359C86.9601 58.5696 87.8025 58.3083 88.5536 58.0753C89.4053 57.8111 90.1394 57.5833 90.9685 57.8639C89.8869 57.7336 89.1096 58.0349 88.2792 58.3567Z" fill="#784B26"/>
<path fill-rule="evenodd" clip-rule="evenodd" d="M91.3447 48.1874L84.6073 54.4307C84.8196 54.0604 84.9902 53.6879 85.1561 53.3252L85.1573 53.3226C85.5333 52.5004 85.8841 51.7335 86.6309 51.1013C87.4404 50.4309 87.85 49.6897 88.1017 49.0216C88.2235 48.6982 88.3083 48.3915 88.3829 48.1221L88.3894 48.0987C88.4661 47.8216 88.531 47.5919 88.6141 47.4128C88.7914 47.0831 89.0395 46.9332 89.2446 46.8327C89.2774 46.8166 89.3068 46.8028 89.3356 46.7894C89.3545 46.7805 89.3732 46.7718 89.3925 46.7626C89.4374 46.7411 89.4831 46.7181 89.5216 46.6922C89.5594 46.667 89.6023 46.6313 89.6286 46.5795C89.6579 46.5217 89.6587 46.4598 89.6391 46.4009C89.5961 46.272 89.4733 46.2143 89.3544 46.1992C89.2326 46.1837 89.0847 46.2061 88.9264 46.2635C88.6077 46.379 88.2201 46.6456 87.8604 47.1106L87.8585 47.113C87.6839 47.3503 87.5774 47.5822 87.4863 47.817C87.4534 47.9017 87.4233 47.9848 87.3929 48.0682C87.3376 48.2204 87.2817 48.3741 87.2084 48.5412C86.9876 49.0442 86.6178 49.6402 85.6887 50.4353C84.7319 51.2542 84.3612 51.9866 84.013 52.6746L84.0081 52.6843C83.7984 53.0985 83.5965 53.4954 83.277 53.8928L86.5653 45.0095L86.5667 45.0058L86.5713 44.9935C86.5749 44.9834 86.5796 44.9694 86.5846 44.9524C86.5942 44.9189 86.6055 44.8713 86.6095 44.8187C86.6171 44.7206 86.6005 44.5531 86.4327 44.4768L86.4205 44.472C86.249 44.4149 86.1232 44.5084 86.057 44.5856C86.0234 44.6248 85.9993 44.6654 85.9838 44.6951C85.9759 44.7102 85.9699 44.7232 85.9657 44.7327L85.9605 44.7452L82.1257 53.0902C82.1801 52.6673 82.1951 52.2584 82.2095 51.8601L82.2096 51.8573C82.2424 50.9538 82.273 50.111 82.7211 49.2412C83.2124 48.312 83.3072 47.4705 83.284 46.7569C83.2727 46.4115 83.2338 46.0957 83.1996 45.8182L83.1966 45.7942C83.1615 45.5088 83.1335 45.2717 83.1418 45.0745C83.1794 44.7021 83.3513 44.4686 83.5023 44.2972C83.5264 44.2698 83.5483 44.2459 83.5698 44.2224L83.5882 44.2023L83.6121 44.1759C83.6453 44.1389 83.6787 44.1001 83.7045 44.0615C83.7297 44.0237 83.7557 43.9743 83.7602 43.9163C83.7651 43.8518 83.7422 43.7943 83.7015 43.7473C83.6125 43.6447 83.4769 43.6384 83.3613 43.67C83.2429 43.7023 83.1147 43.7796 82.9905 43.8931C82.7402 44.1218 82.4842 44.5164 82.3298 45.0838L82.329 45.0867C82.2585 45.3727 82.2488 45.6277 82.2545 45.8795C82.2566 45.9703 82.2604 46.0586 82.2643 46.1472C82.2715 46.3091 82.2787 46.4725 82.2749 46.6549C82.2633 47.2041 82.1498 47.8963 81.5958 48.9864C81.0252 50.1092 80.9629 50.9276 80.9045 51.6965L80.9037 51.7073C80.8685 52.1703 80.8338 52.6142 80.6907 53.1036L80.3292 43.6382L80.3291 43.6342L80.3286 43.6211C80.3281 43.6104 80.3271 43.5956 80.3251 43.578C80.3213 43.5434 80.3135 43.4951 80.2971 43.445C80.2665 43.3514 80.1871 43.203 80.0028 43.1968L79.9897 43.197C79.8094 43.2098 79.729 43.3444 79.6974 43.4411C79.6813 43.4901 79.6746 43.5368 79.6716 43.5702C79.6701 43.5872 79.6695 43.6015 79.6693 43.6119L79.6693 43.6254L79.3199 52.8035C79.2082 52.3917 79.0655 52.0079 78.9264 51.6343L78.9254 51.6316C78.61 50.7843 78.3157 49.994 78.3968 49.0189C78.4951 47.9725 78.2607 47.1587 77.9661 46.5083C77.8236 46.1935 77.6668 45.9167 77.529 45.6734L77.517 45.6523C77.3754 45.4021 77.2588 45.1938 77.1909 45.0084C77.0832 44.6499 77.1526 44.3684 77.2265 44.1524C77.2382 44.1182 77.2492 44.0879 77.2599 44.0584L77.2603 44.0574C77.2674 44.0378 77.2745 44.0184 77.2816 43.9982C77.2981 43.9513 77.3141 43.9027 77.3231 43.8572C77.332 43.8126 77.3371 43.757 77.319 43.7018C77.2989 43.6402 77.2557 43.5959 77.2002 43.5681C77.0787 43.5073 76.951 43.5534 76.8562 43.6268C76.7592 43.702 76.6704 43.8224 76.5991 43.9749C76.4553 44.2819 76.3698 44.7445 76.4443 45.3277L76.4447 45.3307C76.489 45.6219 76.5777 45.8613 76.6793 46.0917C76.716 46.1749 76.7534 46.255 76.7909 46.3355C76.8595 46.4823 76.9285 46.6303 76.9948 46.8003C77.1943 47.3121 77.3543 47.9951 77.2597 49.2142C77.1621 50.4698 77.4179 51.2498 77.6581 51.9825L77.6615 51.9928C77.8062 52.434 77.944 52.8574 77.9991 53.3643L74.0428 44.7578L74.0412 44.7541L74.0358 44.7422C74.0312 44.7325 74.0246 44.7192 74.016 44.7037C73.9992 44.6732 73.9735 44.6316 73.9392 44.5915C73.8751 44.5168 73.745 44.4101 73.5724 44.4748L73.5604 44.4801C73.3987 44.5609 73.3758 44.716 73.3836 44.8175C73.3876 44.8689 73.3992 44.9147 73.4093 44.9466C73.4144 44.9629 73.4193 44.9763 73.4231 44.986L73.4283 44.9985L76.6182 53.6129C76.3572 53.2747 76.0782 52.9743 75.8063 52.682L75.8044 52.6799C75.1887 52.0179 74.6144 51.4004 74.3161 50.4684C74.0065 49.464 73.4785 48.8019 72.9575 48.3137C72.7053 48.0775 72.4545 47.8817 72.2341 47.7096L72.215 47.6947C71.9884 47.5178 71.801 47.37 71.6673 47.2246C71.4306 46.9347 71.387 46.6481 71.3726 46.4201C71.3703 46.3839 71.3689 46.3512 71.3675 46.3196C71.3665 46.2988 71.3656 46.278 71.3645 46.2567C71.3618 46.207 71.358 46.156 71.3489 46.1104C71.34 46.0659 71.3235 46.0126 71.2856 45.9685C71.2435 45.9193 71.1866 45.8948 71.1247 45.8904C70.9892 45.8808 70.8888 45.9723 70.8294 46.0763C70.7685 46.1829 70.7326 46.3281 70.725 46.4963C70.7097 46.835 70.8077 47.295 71.0997 47.8054L71.1012 47.808C71.2536 48.0601 71.4271 48.2473 71.6092 48.4213C71.6748 48.484 71.7402 48.5439 71.8056 48.6038C71.9251 48.7132 72.0456 48.8235 72.1718 48.9552C72.552 49.3517 72.9612 49.9214 73.3403 51.084C73.7307 52.2814 74.2655 52.9041 74.7678 53.4891L74.7749 53.4973C75.0774 53.8496 75.3668 54.188 75.6116 54.6353L68.6629 48.1978L68.66 48.1951L68.6505 48.1862C68.6425 48.179 68.6313 48.1692 68.6175 48.1581C68.5903 48.1364 68.5507 48.1078 68.5036 48.0839C68.4158 48.0394 68.2547 47.9906 68.12 48.1165L68.1109 48.1259C67.9925 48.2625 68.0307 48.4145 68.0768 48.5052C68.1001 48.5512 68.1284 48.5891 68.1499 48.6147C68.1608 48.6278 68.1705 48.6383 68.1778 48.6458L68.1873 48.6554L74.43 55.3922C74.0599 55.1801 73.6877 55.0097 73.3252 54.8439L73.3226 54.8427C72.5004 54.4666 71.7335 54.1159 71.1014 53.369C70.431 52.5595 69.6897 52.1499 69.0216 51.8983C68.6982 51.7765 68.3916 51.6916 68.1221 51.617L68.0987 51.6105C67.8217 51.5338 67.5919 51.4689 67.4128 51.3858C67.0832 51.2085 66.9332 50.9604 66.8327 50.7553C66.8166 50.7225 66.8029 50.6931 66.7894 50.6643C66.7806 50.6454 66.7718 50.6267 66.7626 50.6074C66.7411 50.5626 66.7181 50.5169 66.6923 50.4783C66.667 50.4406 66.6314 50.3976 66.5795 50.3713C66.5217 50.342 66.4598 50.3412 66.4009 50.3608C66.272 50.4038 66.2143 50.5267 66.1992 50.6456C66.1838 50.7673 66.2062 50.9153 66.2635 51.0735C66.379 51.3923 66.6456 51.7798 67.1107 52.1396L67.1131 52.1414C67.3503 52.316 67.5822 52.4225 67.817 52.5136C67.9017 52.5465 67.9847 52.5766 68.0681 52.6069C68.2203 52.6623 68.3741 52.7182 68.5412 52.7916C69.0442 53.0124 69.6403 53.3822 70.4354 54.3112C71.2543 55.268 71.9866 55.6387 72.6746 55.9869L72.6843 55.9918C73.0986 56.2015 73.4954 56.4034 73.8928 56.7229L65.0095 53.4347L65.0058 53.4332L64.9936 53.4287C64.9835 53.425 64.9694 53.4203 64.9524 53.4154C64.9189 53.4057 64.8714 53.3944 64.8187 53.3904C64.7206 53.3828 64.5531 53.3994 64.4768 53.5672L64.4721 53.5794C64.4149 53.751 64.5084 53.8767 64.5857 53.943C64.6248 53.9766 64.6654 54.0007 64.6951 54.0162C64.7102 54.0241 64.7232 54.0301 64.7328 54.0342L64.7452 54.0395L73.091 57.8745C72.6678 57.8201 72.2586 57.8051 71.8601 57.7906L71.8573 57.7905C70.9538 57.7578 70.111 57.7272 69.2412 57.2791C68.312 56.7878 67.4705 56.693 66.7569 56.7162C66.4115 56.7274 66.0957 56.7664 65.8182 56.8006L65.7942 56.8035C65.5088 56.8387 65.2717 56.8667 65.0745 56.8584C64.7021 56.8207 64.4686 56.6489 64.2972 56.4979C64.2698 56.4738 64.2458 56.4518 64.2224 56.4304L64.204 56.4136L64.1759 56.3881C64.1389 56.3549 64.1001 56.3215 64.0615 56.2957C64.0237 56.2705 63.9743 56.2445 63.9163 56.24C63.8518 56.2351 63.7943 56.258 63.7473 56.2987C63.6447 56.3877 63.6384 56.5233 63.67 56.6389C63.7023 56.7573 63.7796 56.8854 63.8931 57.0097C64.1218 57.26 64.5164 57.516 65.0838 57.6704L65.0867 57.6712C65.3727 57.7417 65.6277 57.7514 65.8795 57.7457C65.9704 57.7436 66.0587 57.7397 66.1474 57.7358C66.3093 57.7287 66.4725 57.7215 66.6549 57.7253C67.2041 57.7369 67.8963 57.8504 68.9864 58.4044C70.1092 58.975 70.9276 59.0372 71.6965 59.0957L71.7073 59.0965C72.1703 59.1317 72.6142 59.1663 73.1036 59.3095L63.6382 59.671L63.6342 59.6711L63.6211 59.6716C63.6104 59.6721 63.5956 59.6731 63.578 59.675C63.5434 59.6789 63.4951 59.6867 63.445 59.7031C63.3514 59.7337 63.203 59.8131 63.1968 59.9973L63.197 60.0104C63.2098 60.1908 63.3444 60.2712 63.4411 60.3028C63.4901 60.3188 63.5368 60.3256 63.5702 60.3286C63.5872 60.3301 63.6015 60.3306 63.6119 60.3308L63.6254 60.3309L72.8033 60.6802C72.3915 60.7919 72.0077 60.9346 71.634 61.0738L71.6314 61.0747C70.7841 61.3902 69.9938 61.6845 69.0187 61.6034C67.9722 61.505 67.1585 61.7395 66.5081 62.034C66.1933 62.1766 65.9164 62.3334 65.6732 62.4712L65.6521 62.4831C65.4019 62.6248 65.1936 62.7414 65.0082 62.8093C64.6497 62.917 64.3682 62.8476 64.1521 62.7736C64.1178 62.7619 64.0873 62.7508 64.0577 62.7401C64.038 62.7329 64.0181 62.7257 63.998 62.7186C63.9511 62.7021 63.9025 62.686 63.8569 62.677C63.8124 62.6682 63.7568 62.663 63.7015 62.6811C63.64 62.7013 63.5956 62.7444 63.5679 62.8C63.5071 62.9215 63.5532 63.0492 63.6266 63.1439C63.7017 63.241 63.8222 63.3297 63.9747 63.4011C64.2817 63.5448 64.7442 63.6303 65.3275 63.5559L65.3305 63.5555C65.6217 63.5112 65.861 63.4225 66.0915 63.3209C66.1747 63.2842 66.2548 63.2468 66.3352 63.2093C66.4821 63.1407 66.63 63.0716 66.8001 63.0054C67.3119 62.8058 67.9948 62.6458 69.214 62.7405C70.4696 62.838 71.2496 62.5823 71.9823 62.3421L71.9926 62.3387C72.4338 62.194 72.8572 62.0562 73.3641 62.0011L64.7575 65.9574L64.7539 65.959L64.742 65.9644C64.7323 65.969 64.719 65.9756 64.7035 65.9842C64.673 66.001 64.6314 66.0266 64.5913 66.061C64.5166 66.1251 64.4099 66.2552 64.4746 66.4278L64.4799 66.4398C64.5607 66.6015 64.7158 66.6243 64.8172 66.6165C64.8687 66.6126 64.9144 66.6009 64.9464 66.5909C64.9627 66.5858 64.9761 66.5808 64.9858 66.577L64.9983 66.5719L73.6117 63.3823C73.274 63.6431 72.9739 63.9218 72.6819 64.1934L72.6798 64.1953C72.0178 64.811 71.4003 65.3853 70.4683 65.6836C69.4639 65.9931 68.8018 66.5212 68.3137 67.0422C68.0774 67.2943 67.8817 67.5451 67.7097 67.7655L67.6946 67.7847C67.5177 68.0113 67.3699 68.1987 67.2246 68.3324C66.9346 68.5691 66.648 68.6127 66.42 68.6271C66.3837 68.6294 66.351 68.6308 66.3194 68.6322C66.2985 68.6332 66.2779 68.6341 66.2566 68.6352C66.2069 68.6379 66.1559 68.6417 66.1104 68.6508C66.0658 68.6597 66.0125 68.6762 65.9684 68.714C65.9192 68.7562 65.8948 68.8131 65.8903 68.875C65.8807 69.0105 65.9722 69.1109 66.0762 69.1703C66.1828 69.2312 66.328 69.2671 66.4962 69.2747C66.8349 69.29 67.2949 69.192 67.8053 68.9L67.8079 68.8985C68.06 68.7461 68.2472 68.5726 68.4212 68.3905C68.4839 68.3249 68.5438 68.2595 68.6037 68.1941C68.7131 68.0746 68.8234 67.9541 68.9551 67.8278C69.3516 67.4477 69.9214 67.0385 71.0839 66.6594C72.2813 66.269 72.904 65.7342 73.489 65.2319L73.4973 65.2248C73.8495 64.9223 74.1879 64.6329 74.6352 64.3881L68.1977 71.3368L68.195 71.3397L68.1861 71.3492C68.1789 71.3572 68.1691 71.3684 68.1581 71.3822C68.1363 71.4094 68.1077 71.449 68.0838 71.4961C68.0393 71.5839 67.9905 71.745 68.1164 71.8797L68.1258 71.8888C68.2624 72.0072 68.4144 71.969 68.5052 71.9229C68.5512 71.8996 68.589 71.8713 68.6147 71.8498C68.6277 71.8389 68.6383 71.8292 68.6458 71.8219L68.6554 71.8124L75.3928 65.5691C75.1805 65.9394 75.0099 66.3119 74.844 66.6746L74.8428 66.6772C74.4668 67.4994 74.116 68.2663 73.3692 68.8985C72.5597 69.5689 72.1501 70.3101 71.8984 70.9782C71.7766 71.3016 71.6918 71.6082 71.6172 71.8777L71.6107 71.9011C71.534 72.1781 71.4691 72.4079 71.386 72.587C71.2086 72.9166 70.9605 73.0666 70.7555 73.1671C70.7227 73.1832 70.6933 73.197 70.6645 73.2104C70.6455 73.2193 70.6269 73.228 70.6076 73.2372C70.5627 73.2587 70.517 73.2817 70.4784 73.3075C70.4407 73.3328 70.3978 73.3685 70.3715 73.4203C70.3422 73.4781 70.3413 73.54 70.361 73.5989C70.4039 73.7278 70.5268 73.7855 70.6457 73.8006C70.7675 73.8161 70.9154 73.7936 71.0737 73.7363C71.3924 73.6208 71.78 73.3542 72.1397 72.8892L72.1415 72.8868C72.3161 72.6495 72.4227 72.4176 72.5138 72.1828C72.5466 72.0982 72.5768 72.0152 72.607 71.932C72.6624 71.7797 72.7184 71.6257 72.7917 71.4586C73.0125 70.9556 73.3823 70.3595 74.3113 69.5644C75.2682 68.7455 75.6388 68.0132 75.9871 67.3252L75.992 67.3155C76.2017 66.9013 76.4035 66.5044 76.7231 66.107L73.4348 74.9903L73.4334 74.994L73.4288 75.0062C73.4252 75.0164 73.4205 75.0304 73.4155 75.0474C73.4058 75.0809 73.3946 75.1284 73.3905 75.1811C73.383 75.2792 73.3996 75.4467 73.5674 75.523L73.5796 75.5278C73.7511 75.5849 73.8769 75.4914 73.9431 75.4142C73.9767 75.375 74.0008 75.3344 74.0163 75.3047C74.0242 75.2896 74.0302 75.2766 74.0344 75.2671L74.0396 75.2546L77.8743 66.9095C77.82 67.3325 77.805 67.7414 77.7906 68.1397L77.7905 68.1425C77.7577 69.046 77.7271 69.8888 77.279 70.7586C76.7877 71.6878 76.6929 72.5293 76.7161 73.2429C76.7273 73.5883 76.7663 73.9041 76.8005 74.1816L76.8034 74.2056C76.8386 74.4909 76.8666 74.7281 76.8583 74.9253C76.8206 75.2977 76.6488 75.5312 76.4978 75.7026C76.4737 75.73 76.4518 75.7539 76.4303 75.7774L76.4119 75.7975L76.388 75.8239C76.3548 75.8609 76.3214 75.8997 76.2956 75.9383C76.2704 75.9761 76.2444 76.0255 76.2399 76.0835C76.235 76.148 76.2579 76.2055 76.2986 76.2524C76.3876 76.3551 76.5232 76.3614 76.6388 76.3298C76.7572 76.2975 76.8853 76.2202 77.0096 76.1066C77.2599 75.878 77.5159 75.4834 77.6703 74.916L77.6711 74.9131C77.7416 74.6271 77.7513 74.3721 77.7456 74.1203C77.7435 74.0294 77.7396 73.9411 77.7357 73.8524C77.7286 73.6905 77.7214 73.5273 77.7252 73.3449C77.7368 72.7957 77.8503 72.1035 78.4043 71.0134C78.9749 69.8906 79.0371 69.0722 79.0956 68.3033L79.0964 68.2925C79.1316 67.8295 79.1662 67.3856 79.3094 66.8962L79.6709 76.3616L79.671 76.3656L79.6715 76.3786C79.672 76.3894 79.673 76.4042 79.675 76.4218C79.6788 76.4564 79.6866 76.5046 79.703 76.5548C79.7336 76.6484 79.813 76.7968 79.9972 76.803L80.0103 76.8028C80.1907 76.7899 80.2711 76.6554 80.3027 76.5587C80.3188 76.5097 80.3255 76.4629 80.3285 76.4296C80.33 76.4126 80.3306 76.3983 80.3307 76.3879L80.3308 76.3743L80.6801 67.1963C80.7918 67.6081 80.9345 67.9919 81.0737 68.3655L81.0747 68.3682C81.3901 69.2154 81.6844 70.0058 81.6033 70.9809C81.5049 72.0273 81.7394 72.8411 82.0339 73.4915C82.1765 73.8063 82.3333 74.0831 82.4711 74.3264L82.483 74.3475C82.6247 74.5976 82.7413 74.806 82.8092 74.9914C82.9169 75.3499 82.8475 75.6313 82.7735 75.8474C82.7619 75.8814 82.7509 75.9117 82.7403 75.9411L82.7399 75.9422L82.7322 75.9635L82.7185 76.0016C82.702 76.0485 82.686 76.0971 82.6769 76.1426C82.6681 76.1872 82.663 76.2427 82.681 76.298C82.7012 76.3596 82.7443 76.4039 82.7999 76.4317C82.9214 76.4925 83.0491 76.4464 83.1438 76.373C83.2409 76.2978 83.3296 76.1774 83.401 76.0249C83.5447 75.7179 83.6303 75.2553 83.5558 74.6721L83.5554 74.6691C83.5111 74.3778 83.4224 74.1385 83.3208 73.9081C83.2841 73.8249 83.2467 73.7448 83.2092 73.6643C83.1406 73.5175 83.0715 73.3695 83.0053 73.1995C82.8058 72.6877 82.6457 72.0047 82.7404 70.7856C82.838 69.53 82.5822 68.75 82.342 68.0173L82.3386 68.007C82.1939 67.5658 82.0561 67.1424 82.001 66.6355L85.9573 75.242L85.9589 75.2457L85.9643 75.2576C85.9689 75.2673 85.9755 75.2806 85.9841 75.2961C86.0009 75.3266 86.0265 75.3682 86.0609 75.4082C86.125 75.483 86.2551 75.5897 86.4277 75.5249L86.4397 75.5197C86.6014 75.4389 86.6242 75.2838 86.6164 75.1823C86.6125 75.1309 86.6009 75.0851 86.5908 75.0532C86.5857 75.0369 86.5808 75.0235 86.577 75.0138L86.5718 75.0013L83.3818 66.3869C83.6429 66.7251 83.9219 67.0255 84.1938 67.3178L84.1957 67.3199C84.8114 67.9819 85.3857 68.5994 85.684 69.5314C85.9935 70.5358 86.5216 71.1979 87.0426 71.6861C87.2948 71.9223 87.5456 72.1181 87.766 72.2901L87.7851 72.3051C88.0117 72.482 88.1991 72.6298 88.3328 72.7752C88.5695 73.0651 88.6131 73.3517 88.6275 73.5797C88.6298 73.616 88.6312 73.6487 88.6326 73.6803C88.6336 73.7012 88.6345 73.7218 88.6356 73.7431C88.6383 73.7928 88.6421 73.8438 88.6512 73.8893C88.6601 73.9339 88.6766 73.9872 88.7144 74.0313C88.7566 74.0805 88.8135 74.105 88.8754 74.1094C89.0109 74.119 89.1112 74.0275 89.1707 73.9235C89.2316 73.8169 89.2675 73.6717 89.2751 73.5035C89.2904 73.1648 89.1924 72.7048 88.9004 72.1944L88.8989 72.1918C88.7465 71.9397 88.573 71.7525 88.3909 71.5785C88.3253 71.5158 88.26 71.456 88.1946 71.3961C88.0751 71.2867 87.9545 71.1763 87.8282 71.0446C87.448 70.6481 87.0389 70.0784 86.6598 68.9158C86.2694 67.7184 85.7346 67.0957 85.2323 66.5107L85.2252 66.5024C84.9227 66.1502 84.6333 65.8118 84.3885 65.3645L91.3372 71.802L91.3401 71.8047L91.3496 71.8136C91.3576 71.8208 91.3688 71.8306 91.3826 71.8417C91.4098 71.8634 91.4494 71.892 91.4965 71.9159C91.5843 71.9604 91.7454 72.0092 91.8801 71.8833L91.8892 71.8739C92.0076 71.7373 91.9694 71.5853 91.9233 71.4946C91.9 71.4485 91.8717 71.4107 91.8502 71.385C91.8393 71.372 91.8296 71.3615 91.8223 71.3539L91.8128 71.3444L85.5701 64.6076C85.9401 64.8197 86.3124 64.9901 86.6749 65.1559L86.6775 65.1571C87.4997 65.5332 88.2666 65.8839 88.8987 66.6308C89.5691 67.4403 90.3103 67.8499 90.9785 68.1015C91.3019 68.2233 91.6086 68.3082 91.878 68.3828L91.9014 68.3893C92.1784 68.466 92.4082 68.5309 92.5873 68.614C92.9169 68.7913 93.0669 69.0394 93.1674 69.2445C93.1835 69.2773 93.1972 69.3067 93.2107 69.3355C93.2195 69.3544 93.2283 69.3731 93.2375 69.3924C93.2589 69.4372 93.282 69.4829 93.3078 69.5215C93.3331 69.5592 93.3687 69.6022 93.4206 69.6285C93.4783 69.6578 93.5402 69.6586 93.5992 69.639C93.7281 69.596 93.7857 69.4731 93.8009 69.3542C93.8163 69.2325 93.7939 69.0845 93.7366 68.9263C93.6211 68.6075 93.3545 68.22 92.8894 67.8602L92.887 67.8584C92.6498 67.6838 92.4178 67.5773 92.1831 67.4862C92.0984 67.4533 92.0154 67.4232 91.9321 67.3929C91.7798 67.3375 91.626 67.2816 91.4589 67.2082C90.9559 66.9874 90.3598 66.6176 89.5647 65.6886C88.7458 64.7318 88.0135 64.3611 87.3255 64.0129L87.3158 64.008C86.9015 63.7983 86.5047 63.5964 86.1073 63.2769L94.9906 66.5651L94.9943 66.5666L95.0065 66.5711C95.0166 66.5748 95.0307 66.5795 95.0477 66.5844C95.0812 66.5941 95.1287 66.6054 95.1814 66.6094C95.2795 66.617 95.447 66.6003 95.5232 66.4326L95.528 66.4204C95.5852 66.2488 95.4917 66.1231 95.4144 66.0568C95.3753 66.0232 95.3347 65.9991 95.305 65.9836C95.2899 65.9757 95.2769 65.9697 95.2673 65.9656L95.2549 65.9603L86.9091 62.1253C87.3323 62.1797 87.7415 62.1947 88.14 62.2092L88.1428 62.2093C89.0463 62.242 89.8891 62.2726 90.7589 62.7207C91.6881 63.212 92.5296 63.3068 93.2432 63.2836C93.5886 63.2724 93.9044 63.2334 94.1819 63.1992L94.2059 63.1963C94.4913 63.1611 94.7284 63.1331 94.9256 63.1414C95.298 63.1791 95.5315 63.3509 95.7029 63.5019C95.7303 63.526 95.7542 63.548 95.7777 63.5694L95.7961 63.5862L95.8242 63.6117C95.8612 63.6449 95.9 63.6783 95.9386 63.7041C95.9764 63.7293 96.0258 63.7553 96.0838 63.7598C96.1483 63.7647 96.2058 63.7418 96.2528 63.7011C96.3554 63.6121 96.3617 63.4765 96.3301 63.3609C96.2978 63.2425 96.2205 63.1144 96.1069 62.9901C95.8783 62.7398 95.4837 62.4838 94.9163 62.3294L94.9134 62.3286C94.6274 62.2581 94.3724 62.2484 94.1206 62.2541C94.0298 62.2562 93.9415 62.2601 93.8529 62.264C93.691 62.2711 93.5276 62.2783 93.3452 62.2745C92.796 62.2629 92.1038 62.1494 91.0137 61.5954C89.8909 61.0248 89.0725 60.9626 88.3036 60.9041L88.2928 60.9033C87.8298 60.8681 87.3859 60.8335 86.8965 60.6903L96.3619 60.3288L96.3659 60.3287L96.379 60.3282L96.3836 60.328C96.3938 60.3274 96.4069 60.3264 96.4221 60.3247C96.4567 60.3209 96.5049 60.3131 96.5551 60.2967C96.6487 60.2661 96.7971 60.1867 96.8033 60.0025L96.8031 59.9894C96.7903 59.809 96.6557 59.7286 96.559 59.697C96.51 59.6809 96.4632 59.6742 96.4299 59.6712C96.4129 59.6697 96.3986 59.6692 96.3882 59.669L96.3746 59.6689L87.1968 59.3196C87.6086 59.2079 87.9924 59.0652 88.366 58.926L88.3687 58.925C89.216 58.6096 90.0063 58.3153 90.9814 58.3964C92.0278 58.4948 92.8416 58.2603 93.492 57.9658C93.8068 57.8232 94.0837 57.6664 94.3269 57.5286L94.348 57.5167C94.5982 57.375 94.8065 57.2584 94.9919 57.1905C95.3504 57.0828 95.6319 57.1522 95.848 57.2262C95.8824 57.2379 95.9129 57.249 95.9427 57.2598C95.9623 57.267 95.9819 57.2741 96.0021 57.2812C96.049 57.2977 96.0976 57.3138 96.1432 57.3228C96.1877 57.3316 96.2433 57.3368 96.2986 57.3187C96.3601 57.2985 96.4045 57.2554 96.4322 57.1998C96.493 57.0783 96.4469 56.9506 96.3735 56.8559C96.2984 56.7588 96.1779 56.6701 96.0254 56.5987C95.7184 56.455 95.2558 56.3694 94.6726 56.4439L94.6696 56.4443C94.3784 56.4886 94.1391 56.5773 93.9086 56.6789C93.8254 56.7156 93.7453 56.753 93.6648 56.7905C93.518 56.8591 93.37 56.9282 93.2 56.9944C92.6882 57.194 92.0052 57.354 90.7861 57.2593C89.5305 57.1617 88.7505 57.4175 88.0178 57.6577L88.0075 57.6611C87.5663 57.8058 87.1429 57.9436 86.636 57.9987L95.2425 54.0424L95.2462 54.0408L95.2581 54.0354C95.2678 54.0308 95.2811 54.0242 95.2966 54.0156C95.3271 53.9988 95.3687 53.9732 95.4088 53.9388C95.4835 53.8747 95.5902 53.7446 95.5255 53.572L95.5202 53.56C95.4394 53.3983 95.2843 53.3755 95.1828 53.3833C95.1314 53.3872 95.0857 53.3989 95.0537 53.4089C95.0374 53.414 95.024 53.419 95.0143 53.4228L95.0018 53.4279L86.3884 56.6175C86.7261 56.3567 87.0261 56.078 87.3182 55.8064L87.3202 55.8045C87.9823 55.1888 88.5998 54.6145 89.5317 54.3162C90.5362 54.0066 91.1983 53.4786 91.6864 52.9576C91.9227 52.7054 92.1185 52.4546 92.2905 52.2342L92.3054 52.2151C92.4823 51.9885 92.6302 51.8011 92.7755 51.6674C93.0655 51.4307 93.3521 51.3871 93.58 51.3727C93.6163 51.3704 93.649 51.369 93.6805 51.3676C93.7014 51.3666 93.7222 51.3657 93.7435 51.3646C93.7932 51.3619 93.8442 51.3581 93.8897 51.349C93.9342 51.3401 93.9876 51.3236 94.0317 51.2857C94.0809 51.2436 94.1053 51.1867 94.1097 51.1248C94.1194 50.9893 94.0279 50.8889 93.9239 50.8295C93.8173 50.7686 93.672 50.7327 93.5039 50.7251C93.1652 50.7098 92.7051 50.8078 92.1948 51.0998L92.1922 51.1013C91.9401 51.2537 91.7529 51.4272 91.5789 51.6093C91.5162 51.6748 91.4564 51.7401 91.3966 51.8055C91.2872 51.925 91.1767 52.0456 91.045 52.1719C90.6485 52.5521 90.0787 52.9613 88.9162 53.3404C87.7188 53.7308 87.0961 54.2655 86.5111 54.7679L86.5028 54.775C86.1506 55.0774 85.8122 55.3668 85.3649 55.6117L91.8023 48.663L91.8051 48.6601L91.814 48.6505C91.8212 48.6426 91.831 48.6314 91.842 48.6176C91.8638 48.5904 91.8924 48.5507 91.9163 48.5037C91.9608 48.4159 92.0095 48.2548 91.8837 48.1201L91.8743 48.111C91.7377 47.9926 91.5857 48.0308 91.4949 48.0769C91.4489 48.1002 91.4111 48.1285 91.3854 48.15C91.3724 48.1609 91.3618 48.1706 91.3543 48.1778L91.3447 48.1874ZM84.8619 57.4494L84.869 57.4689C85.0296 57.4103 85.1817 57.3461 85.3266 57.2773L95.0918 53.6611L95.1056 53.6555C95.1107 53.6535 95.1187 53.6505 95.1287 53.6474C95.1492 53.6409 95.1755 53.6346 95.202 53.6325C95.2526 53.6286 95.2777 53.6397 95.2932 53.6655C95.298 53.6843 95.2925 53.7092 95.2461 53.749C95.2232 53.7686 95.1973 53.7849 95.176 53.7967C95.1656 53.8024 95.157 53.8066 95.1512 53.8094L85.9901 58.0204C85.8395 58.0147 85.6809 58.0017 85.5124 57.9799L85.4804 58.2279L85.5263 58.2336L83.4723 59.1778L82.8547 59.1543L90.3924 55.7039L82.5985 58.5978L83.036 58.1255L84.8619 57.4494ZM85.2297 57.0466C86.0202 56.6691 86.5868 56.1452 87.1479 55.6233L87.1638 55.6085C87.8176 55.0005 88.4706 54.3931 89.4562 54.0779L89.4575 54.0775C90.4109 53.7838 91.0375 53.2845 91.504 52.7867C91.7324 52.5429 91.9222 52.2997 92.0952 52.0781L92.1084 52.0613C92.2826 51.8381 92.4446 51.6315 92.6092 51.4807L92.6144 51.4762C92.9634 51.19 93.3119 51.1391 93.5643 51.1232C93.6016 51.1208 93.6396 51.1191 93.6737 51.1176L93.7301 51.1149C93.7789 51.1123 93.8143 51.1091 93.8407 51.1038C93.8485 51.1023 93.8544 51.1008 93.8588 51.0994L93.8572 51.0963C93.8564 51.0947 93.8554 51.093 93.854 51.0911C93.8464 51.0801 93.8303 51.0639 93.7998 51.0465C93.7384 51.0114 93.6355 50.9813 93.4926 50.9748C93.2094 50.9621 92.7964 51.0439 92.3202 51.316C92.0952 51.4523 91.9257 51.6083 91.7596 51.782C91.7042 51.84 91.6478 51.9015 91.5894 51.9652C91.4761 52.0888 91.3548 52.2212 91.218 52.3524C90.7918 52.7611 90.1884 53.1885 88.9937 53.5781C87.8438 53.953 87.2518 54.4614 86.6724 54.9589L86.6657 54.9646C86.1803 55.3815 85.7007 55.7918 84.92 56.092L83.412 57.7197L85.2297 57.0466ZM82.8932 57.9118L84.4296 56.2534L84.385 56.2656L84.3197 56.0243C84.4836 55.98 84.6352 55.9313 84.7765 55.879L91.6288 48.4826C91.6331 48.4779 91.6394 48.4706 91.6468 48.4614C91.662 48.4425 91.6797 48.4175 91.6933 48.3906C91.7209 48.3361 91.7165 48.3109 91.7049 48.2954C91.6807 48.2775 91.6533 48.2769 91.608 48.2998C91.5843 48.3119 91.5625 48.3278 91.546 48.3416L91.5377 48.3487L91.5303 48.3555L91.5278 48.3579L91.5172 48.3684L83.878 55.4473C83.7708 55.566 83.6551 55.6831 83.5296 55.7984L83.5156 55.7832L82.0873 57.1067L81.8638 57.7104L87.9572 52.0541L82.3135 58.1265L82.8932 57.9118ZM81.4946 59.0077L81.9357 58.533L82.5172 58.3176L82.079 58.7907L81.4946 59.0077ZM80.01 59.994L80.0066 59.9905L80.0025 59.9888L79.9981 59.9888L79.9934 59.9907L79.9903 59.9937L79.9888 59.9974L79.9887 60.0026L79.99 60.0058L79.9934 60.0093L79.9975 60.011L80.002 60.011L80.0067 60.0091L80.0098 60.0061L80.0113 60.0024L80.0113 59.9972L80.01 59.994ZM81.4018 62.5975L84.2958 70.3919L80.8454 62.8542L80.8219 63.4718L81.7661 65.5258L81.7718 65.4799L82.0198 65.5119C81.998 65.6803 81.985 65.839 81.9793 65.9896L86.1903 75.1507L86.196 75.1622L86.2031 75.1755C86.2148 75.1967 86.2311 75.2226 86.2507 75.2455C86.2905 75.2919 86.3154 75.2974 86.3342 75.2927C86.36 75.2772 86.3711 75.2521 86.3672 75.2015C86.3651 75.1749 86.3588 75.1487 86.3523 75.1281C86.3503 75.1217 86.3483 75.1161 86.3467 75.1115L86.3442 75.1051L86.3386 75.0913L82.7209 65.3221C82.6529 65.1785 82.5893 65.0277 82.5312 64.8686L82.5504 64.8616L81.874 63.035L81.4018 62.5975ZM82.2798 63.411L82.9517 65.2254C83.3294 66.0179 83.8541 66.5854 84.3769 67.1475L84.3917 67.1634C84.9997 67.8172 85.607 68.4702 85.9223 69.4558L85.9227 69.4571C86.2164 70.4105 86.7157 71.0372 87.2135 71.5036C87.4573 71.7321 87.7004 71.9218 87.9221 72.0949L87.9389 72.108C88.1621 72.2822 88.3687 72.4442 88.5195 72.6088L88.5239 72.614C88.8102 72.963 88.861 73.3115 88.877 73.5639C88.8793 73.6012 88.881 73.6392 88.8826 73.6733L88.8853 73.7297C88.8879 73.7785 88.8911 73.8139 88.8963 73.8403L88.8987 73.8509L88.9008 73.8584C88.902 73.8579 88.9034 73.8572 88.905 73.8563L88.9091 73.8537C88.92 73.846 88.9362 73.8299 88.9536 73.7995C88.9888 73.738 89.0189 73.6351 89.0254 73.4922C89.0381 73.209 88.9563 72.796 88.6842 72.3199C88.5479 72.0948 88.3919 71.9253 88.2182 71.7592C88.1601 71.7037 88.0985 71.6473 88.0347 71.5888C87.9111 71.4755 87.779 71.3544 87.6478 71.2176C87.2391 70.7914 86.8117 70.188 86.4221 68.9933C86.0472 67.8434 85.5388 67.2514 85.0413 66.6721L85.0355 66.6653C84.6187 66.1799 84.2084 65.7003 83.9082 64.9196L82.2798 63.411ZM82.0877 62.8922L81.8731 62.3127L87.946 67.9568L82.2901 61.8639L82.8938 62.0874L84.2171 63.5153L84.2017 63.5295C84.3176 63.6557 84.4355 63.7721 84.5549 63.8798L91.6318 71.5168L91.6423 71.5274C91.6461 71.5313 91.6518 71.5376 91.6586 71.5456C91.6724 71.5621 91.6883 71.5839 91.7004 71.6077C91.7233 71.6529 91.7227 71.6804 91.7048 71.7045C91.6893 71.7161 91.6641 71.7206 91.6096 71.6929C91.5827 71.6793 91.5577 71.6616 91.5388 71.6464C91.5295 71.639 91.5223 71.6327 91.5176 71.6284L84.1212 64.7761C84.0689 64.6348 84.0202 64.4832 83.9758 64.3193L83.7345 64.3846L83.7468 64.4292L82.0877 62.8922ZM81.4666 61.9349L81.6819 62.5163L81.2089 62.078L80.9919 61.4937L81.4666 61.9349ZM77.4688 55.1312L77.4497 55.1382L78.1261 56.9648L78.5983 57.4023L75.7043 49.6079L79.1547 57.1456L79.1782 56.528L78.234 54.474L78.2283 54.5199L77.9803 54.4879C78.002 54.3195 78.0151 54.1608 78.0208 54.0102L73.8097 44.8491L73.8041 44.8376L73.797 44.8243C73.7853 44.8031 73.769 44.7771 73.7494 44.7542C73.7096 44.7079 73.6847 44.7024 73.6659 44.7071C73.6401 44.7226 73.629 44.7477 73.6329 44.7983C73.635 44.8249 73.6413 44.8511 73.6478 44.8717C73.6509 44.8816 73.6538 44.8896 73.6559 44.8947L73.6615 44.9085L77.2791 54.6777C77.3472 54.8213 77.4108 54.9721 77.4688 55.1312ZM75.6232 52.8523C76.146 53.4144 76.6707 53.9819 77.0484 54.7744L77.7203 56.5888L76.0919 55.0802C75.7917 54.2995 75.3814 53.8199 74.9646 53.3345L74.9588 53.3277C74.4613 52.7484 73.9529 52.1564 73.578 51.0065C73.1884 49.8118 72.761 49.2084 72.3523 48.7822C72.2211 48.6454 72.089 48.5243 71.9654 48.411C71.9016 48.3525 71.84 48.296 71.7819 48.2406C71.6082 48.0745 71.4522 47.905 71.3159 47.6799C71.0438 47.2038 70.962 46.7908 70.9747 46.5076C70.9812 46.3647 71.0113 46.2618 71.0465 46.2003C71.0638 46.1699 71.0801 46.1538 71.091 46.1461C71.0944 46.1438 71.0971 46.1423 71.0993 46.1414C71.1007 46.1458 71.1022 46.1517 71.1038 46.1595C71.109 46.1859 71.1122 46.2213 71.1148 46.2701L71.1175 46.3265C71.119 46.3606 71.1208 46.3986 71.1231 46.4359C71.1391 46.6883 71.1899 47.0368 71.4761 47.3858L71.4806 47.391C71.6314 47.5556 71.838 47.7175 72.0612 47.8918L72.078 47.9049C72.2997 48.078 72.5428 48.2677 72.7866 48.4962C73.2844 48.9626 73.7837 49.5893 74.0774 50.5427L74.0778 50.544C74.3931 51.5296 75.0004 52.1826 75.6084 52.8364L75.6232 52.8523ZM76.2533 55.5706L77.9124 57.1076L78.127 57.6871L72.054 52.043L77.71 58.1359L77.1062 57.9124L75.783 56.4845L75.7984 56.4703C75.6825 56.3441 75.5646 56.2277 75.4452 56.12L68.3683 48.483L68.3578 48.4724C68.354 48.4685 68.3482 48.4622 68.3415 48.4542C68.3277 48.4377 68.3118 48.4159 68.2997 48.3921C68.2768 48.3469 68.2774 48.3194 68.2953 48.2953C68.3108 48.2837 68.336 48.2792 68.3905 48.3069C68.4174 48.3205 68.4424 48.3382 68.4613 48.3534C68.4706 48.3608 68.4778 48.3671 68.4825 48.3714L75.8789 55.2237C75.9312 55.365 75.9799 55.5165 76.0242 55.6805L76.2656 55.6152L76.2533 55.5706ZM78.5335 58.0649L79.0082 58.5061L78.7912 57.9218L78.3182 57.4835L78.5335 58.0649ZM81.0011 58.5113L81.4577 58.0874L81.6815 57.4827L81.227 57.9039L81.0011 58.5113ZM81.4205 57.3838L81.8736 56.964L82.6585 54.8435L82.622 54.8719L82.4693 54.674C82.6037 54.5702 82.7252 54.4673 82.8357 54.3649L86.3359 44.9093C86.338 44.9033 86.3411 44.8941 86.3444 44.8828C86.3512 44.8595 86.358 44.8296 86.3603 44.7995C86.365 44.7386 86.3512 44.7171 86.3346 44.7072C86.3054 44.6999 86.2798 44.7098 86.2468 44.7483C86.2294 44.7686 86.2154 44.7916 86.2054 44.8107C86.2006 44.82 86.197 44.8277 86.1948 44.8327L86.1891 44.8465L81.8424 54.3056C81.7884 54.4576 81.7258 54.6116 81.6533 54.7675L81.6342 54.7586L80.8215 56.5273L80.846 57.171L84.3108 49.6139L81.4205 57.3838ZM80.6151 57.6747L80.5905 57.03L80.3315 57.5936L80.3552 58.2416L80.6151 57.6747ZM79.6553 58.2392L79.6784 57.6163L79.4092 57.0306L79.3856 57.6502L79.6553 58.2392ZM80.008 48.7549L80.3112 57.0391L80.5694 56.4772L80.4831 54.2187L80.4602 54.2589L80.2434 54.1345C80.3279 53.9872 80.4007 53.8456 80.4636 53.7087L80.0789 43.6334C80.0786 43.627 80.078 43.6174 80.0767 43.6056C80.074 43.5815 80.0688 43.5513 80.0594 43.5226C80.0405 43.4646 80.0195 43.4499 80.0004 43.4472C79.9706 43.4516 79.9508 43.4705 79.935 43.5188C79.9267 43.5441 79.9225 43.5708 79.9206 43.5922C79.9197 43.6027 79.9194 43.6111 79.9193 43.6166L79.9192 43.6315L79.5232 54.0365C79.5314 54.1968 79.5324 54.3622 79.5252 54.5332L79.5043 54.5323L79.4303 56.4778L79.699 57.0625L80.008 48.7549ZM84.9287 53.2212C84.6098 53.9184 84.2867 54.6196 83.7003 55.2712L82.2793 56.588L83.0497 54.5068C83.6561 53.9307 83.9422 53.368 84.2312 52.7972L84.2352 52.7893C84.58 52.108 84.9324 51.4117 85.8513 50.6253C86.806 49.8082 87.1999 49.1824 87.4373 48.6417C87.5134 48.4683 87.5747 48.3 87.632 48.1426L87.6323 48.1416L87.6328 48.1404C87.6622 48.0597 87.6905 47.9818 87.7194 47.9074C87.8063 47.6834 87.9032 47.4744 88.059 47.2624C88.3948 46.8288 88.7451 46.5951 89.0116 46.4985C89.146 46.4498 89.2526 46.4383 89.3229 46.4472C89.3576 46.4516 89.3788 46.4604 89.39 46.4677C89.3922 46.4691 89.394 46.4704 89.3955 46.4716L89.3976 46.4735C89.394 46.4764 89.3891 46.4801 89.3826 46.4845C89.3602 46.4995 89.3287 46.516 89.2846 46.5371L89.2335 46.5611C89.2026 46.5756 89.1682 46.5917 89.1346 46.6082C88.9075 46.7195 88.6049 46.8999 88.3921 47.2979L88.389 47.304C88.2946 47.5062 88.224 47.7591 88.1485 48.032L88.1428 48.0525C88.0678 48.3235 87.9855 48.6208 87.8677 48.9334C87.6272 49.5719 87.2394 50.273 86.4709 50.9092L86.4699 50.9101C85.68 51.5785 85.3091 52.3895 84.9378 53.2014L84.9287 53.2212ZM81.6107 54.211C81.9018 53.3862 81.9319 52.616 81.9597 51.8511L81.9605 51.8293C81.9928 50.9371 82.0251 50.0459 82.4991 49.1261L82.4998 49.1249C82.9662 48.243 83.0563 47.4469 83.0341 46.765C83.0232 46.4311 82.9855 46.125 82.9511 45.8458L82.9485 45.8247C82.9139 45.5437 82.8823 45.2831 82.8921 45.0601L82.8926 45.0533C82.937 44.6041 83.1475 44.3217 83.3147 44.1319C83.3395 44.1038 83.3654 44.0754 83.3885 44.0502L83.4261 44.0088C83.4587 43.9725 83.4815 43.9452 83.4965 43.9228C83.5009 43.9162 83.504 43.9109 83.5061 43.9069C83.5039 43.906 83.5009 43.9051 83.4969 43.9044C83.4838 43.902 83.4609 43.9019 83.427 43.9112C83.3587 43.9298 83.2647 43.9812 83.1591 44.0777C82.9498 44.2689 82.7156 44.6189 82.5714 45.1479C82.5086 45.4035 82.499 45.6336 82.5044 45.8739C82.5063 45.9541 82.5099 46.0376 82.5137 46.1242C82.521 46.2917 82.5288 46.4707 82.5248 46.6602C82.5124 47.2505 82.388 47.9795 81.8186 49.0997C81.2707 50.1779 81.2115 50.956 81.1536 51.7174L81.153 51.7263C81.1045 52.3643 81.0555 52.9936 80.7157 53.7578L80.8003 55.9746L81.6107 54.211ZM78.2725 53.9592L79.1992 55.9752L79.273 54.0377C79.2266 53.1632 78.9595 52.4395 78.6921 51.7215L78.6845 51.7011C78.373 50.8644 78.0618 50.0287 78.1477 48.9975L78.1478 48.9962C78.2413 48.0029 78.0198 47.2329 77.7384 46.6115C77.6006 46.3071 77.4486 46.0387 77.31 45.794L77.2995 45.7755C77.16 45.5291 77.0311 45.3004 76.9548 45.0906L76.9526 45.0841C76.8217 44.6522 76.9082 44.3107 76.99 44.0714C77.0022 44.0358 77.0152 43.9999 77.0269 43.9677L77.0458 43.915C77.0621 43.869 77.0727 43.8351 77.0779 43.8086C77.0794 43.8009 77.0803 43.7948 77.0807 43.7902L77.078 43.7904C77.0761 43.7906 77.0738 43.7909 77.0713 43.7914C77.0582 43.7943 77.037 43.803 77.0093 43.8245C76.9533 43.8678 76.8861 43.9514 76.8255 44.0809C76.7053 44.3376 76.6229 44.7505 76.6921 45.2946C76.7318 45.5546 76.8111 45.7709 76.908 45.9908C76.9404 46.0643 76.9757 46.14 77.0123 46.2185C77.0832 46.3705 77.1589 46.5329 77.2277 46.7095C77.4422 47.2597 77.6062 47.9807 77.5089 49.2336C77.4152 50.4394 77.6584 51.1809 77.8963 51.9065L77.8991 51.9149C78.0984 52.5229 78.294 53.1231 78.2725 53.9592ZM75.1382 62.5504L75.1311 62.5308C74.9705 62.5895 74.8183 62.6537 74.6734 62.7225L64.9082 66.3387L64.8945 66.3443C64.8893 66.3463 64.8814 66.3493 64.8714 66.3524C64.8509 66.3589 64.8246 66.3652 64.7981 66.3673C64.7475 66.3712 64.7223 66.3601 64.7069 66.3343C64.7021 66.3155 64.7076 66.2906 64.754 66.2508C64.7769 66.2312 64.8028 66.2148 64.8241 66.2031C64.8344 66.1974 64.8431 66.1932 64.8489 66.1904L74.01 61.9794C74.1606 61.9851 74.3192 61.9981 74.4877 62.0199L74.5197 61.7719L74.4738 61.7662L76.5278 60.822L77.1454 60.8455L69.6076 64.2959L77.4015 61.402L76.9641 61.8743L75.1382 62.5504ZM74.7703 62.9532C73.9799 63.3308 73.4133 63.8546 72.8522 64.3765L72.8363 64.3913C72.1825 64.9993 71.5295 65.6066 70.5439 65.9219L70.5426 65.9223C69.5892 66.216 68.9625 66.7153 68.4961 67.2131C68.2676 67.4569 68.0779 67.7 67.9048 67.9217L67.8917 67.9385C67.7175 68.1617 67.5555 68.3683 67.3909 68.5191L67.3857 68.5235C67.0367 68.8098 66.6882 68.8606 66.4358 68.8766C66.3985 68.8789 66.3605 68.8806 66.3264 68.8822L66.27 68.8849C66.2212 68.8875 66.1858 68.8907 66.1594 68.8959C66.1516 68.8975 66.1457 68.899 66.1413 68.9004C66.1422 68.9026 66.1437 68.9053 66.146 68.9087C66.1537 68.9196 66.1698 68.9358 66.2002 68.9532C66.2617 68.9884 66.3646 69.0185 66.5075 69.025C66.7907 69.0377 67.2037 68.9559 67.6798 68.6838C67.9049 68.5475 68.0744 68.3915 68.2405 68.2178C68.296 68.1597 68.3524 68.0981 68.4109 68.0343C68.5242 67.9107 68.6453 67.7786 68.7821 67.6474C69.2083 67.2387 69.8117 66.8113 71.0064 66.4217C72.1563 66.0468 72.7483 65.5384 73.3276 65.0409L73.3344 65.0351C73.8198 64.6183 74.2994 64.208 75.0801 63.9078L76.5881 62.2801L74.7703 62.9532ZM77.1069 62.088L75.5705 63.7464L75.6151 63.7341L75.6804 63.9755C75.5165 64.0198 75.3649 64.0685 75.2236 64.1208L68.3713 71.5172C68.367 71.5219 68.3607 71.5291 68.3533 71.5384C68.3381 71.5573 68.3204 71.5823 68.3068 71.6092C68.2791 71.6637 68.2836 71.6889 68.2952 71.7044C68.3193 71.7223 68.3468 71.7229 68.392 71.7C68.4158 71.6879 68.4376 71.672 68.4541 71.6582C68.4622 71.6514 68.4684 71.6457 68.4723 71.6419L68.4829 71.6314L76.122 64.5525C76.2293 64.4338 76.345 64.3167 76.4705 64.2014L76.4845 64.2166L77.9128 62.893L78.1362 62.2894L72.0429 67.9457L77.6865 61.8733L77.1069 62.088ZM78.5055 60.9921L78.0643 61.4668L77.4828 61.6822L77.921 61.2092L78.5055 60.9921ZM78.087 58.5421L78.5112 58.9991L77.9038 58.7731L77.4822 58.3182L78.087 58.5421ZM76.9635 58.1262L77.3837 58.5796L69.6138 55.6894L77.171 59.1541L76.5279 59.1787L74.7587 58.3657L74.7675 58.3468C74.6124 58.2747 74.4593 58.2125 74.3081 58.1587L64.8465 53.8109L64.8327 53.8051C64.8277 53.8029 64.82 53.7994 64.8107 53.7945C64.7917 53.7846 64.7686 53.7705 64.7484 53.7532C64.7098 53.7201 64.6999 53.6945 64.7072 53.6653C64.7171 53.6487 64.7387 53.635 64.7996 53.6397C64.8296 53.642 64.8595 53.6488 64.8828 53.6555C64.8942 53.6588 64.9033 53.6619 64.9093 53.664L74.3649 57.1643C74.4673 57.2748 74.5703 57.3962 74.674 57.5307L74.872 57.378L74.8436 57.3415L76.9635 58.1262ZM77.0305 59.4097L77.6747 59.3851L78.2414 59.6449L77.594 59.6686L77.0305 59.4097ZM77.6162 60.3217L78.2392 60.3448L77.65 60.6145L77.0304 60.5909L77.6162 60.3217ZM77.0394 59.6889L68.7549 59.9921L77.0625 60.3011L76.4776 60.5699L74.5321 60.4959L74.533 60.475C74.362 60.4677 74.1967 60.4688 74.0363 60.477L63.6315 60.0809L63.6166 60.0809C63.6111 60.0808 63.6027 60.0805 63.5922 60.0795C63.5708 60.0776 63.5441 60.0735 63.5188 60.0652C63.4705 60.0494 63.4516 60.0296 63.4472 59.9998C63.4499 59.9806 63.4646 59.9597 63.5226 59.9407C63.5513 59.9314 63.5815 59.9262 63.6056 59.9235C63.6174 59.9222 63.627 59.9216 63.6334 59.9213L73.7087 59.5366C73.8456 59.5994 73.9872 59.6722 74.1345 59.7568L74.2589 59.5399L74.2187 59.5171L76.4777 59.4308L77.0394 59.6889ZM75.2691 56.2978C74.6182 55.7126 73.9177 55.3898 73.2212 55.0712L73.2015 55.0622C72.3895 54.6908 71.5785 54.3199 70.9101 53.53L70.9092 53.529C70.273 52.7606 69.5719 52.3727 68.9335 52.1322C68.6208 52.0145 68.3236 51.9322 68.0525 51.8572L68.032 51.8515C67.7591 51.7759 67.5063 51.7053 67.304 51.6109L67.2979 51.6079C66.8999 51.395 66.7195 51.0924 66.6082 50.8654C66.5918 50.8318 66.5756 50.7974 66.5612 50.7665L66.5371 50.7153C66.516 50.6713 66.4995 50.6398 66.4845 50.6174C66.4801 50.6108 66.4764 50.6059 66.4735 50.6024C66.4718 50.6041 66.4699 50.6065 66.4677 50.6099C66.4605 50.6212 66.4517 50.6423 66.4472 50.6771C66.4383 50.7473 66.4498 50.8539 66.4986 50.9884C66.5951 51.2549 66.8288 51.6052 67.2624 51.9409C67.4745 52.0967 67.6834 52.1936 67.9075 52.2806C67.9823 52.3096 68.0608 52.3382 68.1421 52.3678C68.2997 52.4251 68.4682 52.4865 68.6417 52.5626C69.1824 52.8 69.8082 53.1939 70.6253 54.1486C71.4117 55.0675 72.108 55.4199 72.7893 55.7648L72.7972 55.7688C73.3681 56.0577 73.9307 56.3438 74.5068 56.9502L76.5875 57.7204L75.2691 56.2978ZM71.8511 58.0405C72.6168 58.0683 73.3877 58.0984 74.2135 58.3903L75.9751 59.1998L73.7578 59.2845C72.9936 58.9447 72.3643 58.8957 71.7263 58.8472L71.7174 58.8465C70.956 58.7887 70.1779 58.7295 69.0997 58.1815C67.9795 57.6122 67.2505 57.4878 66.6602 57.4754C66.4707 57.4714 66.2917 57.4792 66.1242 57.4865C66.0376 57.4903 65.9541 57.4939 65.8739 57.4957C65.6336 57.5012 65.4035 57.4916 65.1479 57.4288C64.6189 57.2845 64.2689 57.0504 64.0777 56.8411C63.9812 56.7355 63.9298 56.6414 63.9112 56.5731C63.9019 56.5393 63.902 56.5164 63.9044 56.5033C63.9051 56.4993 63.906 56.4963 63.9069 56.4941L63.912 56.4969L63.9187 56.501L63.9228 56.5037C63.9452 56.5187 63.9725 56.5414 64.0088 56.5741L64.0502 56.6117C64.0754 56.6348 64.1038 56.6607 64.1319 56.6855C64.3217 56.8527 64.6041 57.0632 65.0533 57.1075L65.0601 57.108C65.2831 57.1178 65.5437 57.0863 65.8247 57.0517L65.8458 57.0491C66.125 57.0147 66.4311 56.9769 66.765 56.9661C67.4469 56.9439 68.243 57.034 69.1249 57.5004L69.1261 57.501C70.0459 57.9751 70.9371 58.0074 71.8293 58.0397L71.8511 58.0405ZM75.975 60.801L73.959 61.7277C73.1228 61.7062 72.5227 61.9018 71.9147 62.1011L71.9063 62.1039C71.1807 62.3418 70.4391 62.5849 69.2333 62.4913C67.9805 62.394 67.2594 62.558 66.7093 62.7724C66.5327 62.8413 66.3703 62.917 66.2183 62.9878C66.1398 63.0244 66.0641 63.0597 65.9906 63.0921C65.7707 63.1891 65.5544 63.2683 65.2943 63.3081C64.7503 63.3773 64.3374 63.2949 64.0807 63.1747C63.9511 63.1141 63.8676 63.0468 63.8242 62.9909C63.8028 62.9631 63.7941 62.942 63.7912 62.9289C63.7904 62.925 63.79 62.9219 63.79 62.9195C63.7946 62.9199 63.8006 62.9207 63.8084 62.9223C63.8348 62.9275 63.8687 62.9381 63.9148 62.9544L63.9674 62.9733C63.9997 62.985 64.0356 62.998 64.0712 63.0102C64.3105 63.092 64.6519 63.1784 65.0839 63.0475L65.0904 63.0454C65.3002 62.9691 65.5289 62.8402 65.7753 62.7007L65.7938 62.6902C66.0385 62.5516 66.3069 62.3996 66.6112 62.2618C67.2327 61.9804 68.0027 61.7589 68.9959 61.8524L68.9973 61.8525C70.0285 61.9384 70.8642 61.6272 71.7009 61.3156L71.7213 61.308C72.4393 61.0407 73.163 60.7736 74.0375 60.7272L75.975 60.801ZM78.5424 61.9124L78.999 61.4885L78.7731 62.0959L78.3186 62.517L78.5424 61.9124ZM78.1265 63.0358L78.5796 62.616L75.6893 70.3859L79.154 62.8288L79.1786 63.4724L78.3659 65.2412L78.3468 65.2323C78.2742 65.3882 78.2117 65.5422 78.1577 65.6942L73.811 75.1533L73.8053 75.1671L73.8019 75.1745C73.8 75.1786 73.7975 75.1836 73.7947 75.1891C73.7847 75.2082 73.7707 75.2312 73.7533 75.2515C73.7203 75.29 73.6947 75.2999 73.6655 75.2926C73.6489 75.2827 73.6351 75.2612 73.6398 75.2003C73.6421 75.1702 73.6489 75.1403 73.6557 75.117C73.659 75.1056 73.662 75.0965 73.6642 75.0905L77.1644 65.6349C77.2749 65.5325 77.3963 65.4295 77.5308 65.3258L77.3781 65.1279L77.3416 65.1562L78.1265 63.0358ZM79.4096 62.9698L79.385 62.3251L79.6449 61.7581L79.6686 62.4061L79.4096 62.9698ZM80.3217 62.3835L80.3448 61.7606L80.6144 62.3496L80.5909 62.9692L80.3217 62.3835ZM79.6889 62.9607L79.9921 71.2449L80.3011 62.9373L80.5698 63.522L80.4958 65.4675L80.4749 65.4666C80.4676 65.6376 80.4687 65.803 80.4769 65.9633L80.0809 76.3683L80.0808 76.3832C80.0807 76.3887 80.0804 76.3971 80.0794 76.4076C80.0775 76.429 80.0734 76.4557 80.0651 76.481C80.0493 76.5293 80.0295 76.5482 79.9997 76.5526C79.9806 76.5498 79.9596 76.5352 79.9406 76.4772C79.9313 76.4485 79.9261 76.4183 79.9234 76.3942C79.9221 76.3824 79.9215 76.3728 79.9212 76.3664L79.5365 66.2911C79.5993 66.1542 79.6721 66.0126 79.7567 65.8653L79.5399 65.7409L79.517 65.7811L79.4307 63.5226L79.6889 62.9607ZM76.2998 64.7286C75.7134 65.3801 75.3903 66.0813 75.0714 66.7786L75.0623 66.7984C74.691 67.6103 74.3201 68.4213 73.5302 69.0897L73.5291 69.0906C72.7607 69.7268 72.3728 70.4279 72.1324 71.0663C72.0146 71.379 71.9323 71.6763 71.8573 71.9473L71.8516 71.9678C71.776 72.2407 71.7055 72.4935 71.6111 72.6958L71.608 72.7019C71.3951 73.0999 71.0926 73.2803 70.8655 73.3916C70.8321 73.408 70.7979 73.424 70.7671 73.4384L70.7155 73.4627C70.6714 73.4838 70.6399 73.5003 70.6175 73.5153C70.611 73.5197 70.6061 73.5234 70.6025 73.5263C70.6043 73.528 70.6067 73.5299 70.6101 73.5321C70.6213 73.5394 70.6424 73.5482 70.6772 73.5526C70.7475 73.5615 70.8541 73.55 70.9885 73.5013C71.255 73.4047 71.6053 73.171 71.9411 72.7374C72.0969 72.5254 72.1938 72.3164 72.2807 72.0924C72.3097 72.0175 72.3383 71.939 72.3679 71.8577C72.4253 71.7001 72.4866 71.5316 72.5628 71.3581C72.8002 70.8174 73.1941 70.1916 74.1488 69.3745C75.0676 68.5881 75.4201 67.8918 75.7649 67.2105L75.7689 67.2026C76.0579 66.6317 76.344 66.0691 76.9504 65.493L77.7208 63.4118L76.2998 64.7286ZM78.0404 68.1487C78.0681 67.3838 78.0983 66.6136 78.3894 65.7888L79.1997 64.0252L79.2844 66.2419C78.9446 67.0062 78.8956 67.6355 78.8471 68.2735L78.8464 68.2824C78.7886 69.0438 78.7294 69.8219 78.1815 70.9001C77.6121 72.0203 77.4877 72.7492 77.4753 73.3396C77.4713 73.5291 77.4791 73.7081 77.4864 73.8756C77.4902 73.9621 77.4938 74.0456 77.4956 74.1259C77.5011 74.3662 77.4915 74.5963 77.4287 74.8518C77.2845 75.3809 77.0503 75.7309 76.841 75.9221C76.7354 76.0185 76.6413 76.07 76.573 76.0886C76.5392 76.0979 76.5163 76.0978 76.5032 76.0954L76.4993 76.0946L76.497 76.094L76.494 76.0929C76.4961 76.0889 76.4992 76.0836 76.5036 76.077C76.5186 76.0546 76.5413 76.0273 76.574 75.991L76.6116 75.9496C76.6347 75.9244 76.6606 75.896 76.6854 75.8679C76.8526 75.6781 77.0631 75.3957 77.1075 74.9465L77.1079 74.9397C77.1177 74.7167 77.0862 74.4561 77.0516 74.1751L77.049 74.1539C77.0146 73.8748 76.9768 73.5687 76.966 73.2348C76.9438 72.5529 77.0339 71.7567 77.5003 70.8749L77.5009 70.8737C77.975 69.9539 78.0073 69.0627 78.0396 68.1705L78.0404 68.1487ZM80.8009 64.0246L81.7276 66.0406C81.7061 66.8767 81.9017 67.4769 82.101 68.0848L82.1038 68.0933C82.3417 68.8189 82.5848 69.5604 82.4912 70.7662C82.3939 72.0191 82.5579 72.7401 82.7723 73.2903C82.8412 73.4669 82.9169 73.6293 82.9878 73.7813C83.0244 73.8598 83.0597 73.9355 83.0921 74.009C83.189 74.2289 83.2682 74.4451 83.308 74.7052C83.3772 75.2492 83.2948 75.6622 83.1746 75.9189C83.114 76.0484 83.0467 76.132 82.9908 76.1753C82.963 76.1968 82.9419 76.2055 82.9288 76.2083C82.9262 76.2089 82.924 76.2092 82.9221 76.2094L82.9194 76.2095C82.9198 76.205 82.9206 76.1989 82.9222 76.1912C82.9274 76.1647 82.938 76.1308 82.9543 76.0847L82.9732 76.0321C82.9849 75.9999 82.9979 75.964 83.0101 75.9284C83.0919 75.6891 83.1783 75.3476 83.0474 74.9156L83.0453 74.9092C82.969 74.6994 82.8401 74.4707 82.7006 74.2243L82.6901 74.2058C82.5515 73.9611 82.3995 73.6927 82.2617 73.3883C81.9803 72.7669 81.7588 71.9968 81.8523 71.0036L81.8524 71.0023C81.9383 69.9711 81.6271 69.1354 81.3155 68.2986L81.308 68.2783C81.0406 67.5603 80.7735 66.8366 80.7271 65.9621L80.8009 64.0246ZM81.9131 61.4577L81.4888 61.0007L82.0963 61.2267L82.5178 61.6816L81.9131 61.4577ZM83.0366 61.8736L82.6164 61.4202L90.3863 64.3104L82.8291 60.8457L83.4722 60.8211L85.2414 61.634L85.2326 61.6529C85.3877 61.7251 85.5408 61.7873 85.692 61.8411L95.1536 66.1889L95.1673 66.1947C95.1724 66.1969 95.1801 66.2004 95.1893 66.2053C95.2084 66.2152 95.2315 66.2293 95.2517 66.2466C95.2903 66.2797 95.3002 66.3053 95.2929 66.3344C95.283 66.3511 95.2614 66.3648 95.2005 66.3601C95.1704 66.3578 95.1406 66.351 95.1173 66.3443C95.1059 66.341 95.0968 66.3379 95.0908 66.3358L85.6352 62.8355C85.5328 62.725 85.4298 62.6036 85.3261 62.4691L85.1281 62.6218L85.1565 62.6583L83.0366 61.8736ZM82.9696 60.5901L82.3254 60.6147L81.7587 60.3549L82.4061 60.3312L82.9696 60.5901ZM82.3839 59.6781L81.7609 59.655L82.3501 59.3853L82.9697 59.4088L82.3839 59.6781ZM82.9607 60.3109L91.2452 60.0077L82.9376 59.6987L83.5225 59.4299L85.468 59.5039L85.4671 59.5248C85.6381 59.5321 85.8034 59.531 85.9638 59.5228L96.3686 59.9189L96.3835 59.9189C96.389 59.919 96.3974 59.9193 96.4079 59.9203C96.4293 59.9222 96.456 59.9263 96.4813 59.9346C96.5296 59.9504 96.5485 59.9702 96.5529 60C96.5501 60.0192 96.5355 60.0401 96.4775 60.0591C96.4488 60.0684 96.4186 60.0736 96.3945 60.0763C96.3827 60.0776 96.3731 60.0782 96.3667 60.0785L86.2914 60.4632C86.1545 60.4004 86.0129 60.3276 85.8656 60.243L85.7412 60.4599L85.7814 60.4827L83.5224 60.569L82.9607 60.3109ZM84.731 63.702C85.3819 64.2872 86.0824 64.61 86.7789 64.9286L86.7986 64.9376C87.6106 65.309 88.4216 65.6799 89.09 66.4698L89.0909 66.4708C89.7271 67.2392 90.4282 67.6271 91.0666 67.8676C91.3793 67.9853 91.6765 68.0676 91.9475 68.1426L91.9681 68.1483C92.241 68.2239 92.4938 68.2945 92.6961 68.3889L92.7022 68.3919C93.1002 68.6048 93.2806 68.9074 93.3919 69.1344C93.4083 69.168 93.4244 69.2024 93.4389 69.2333L93.463 69.2845C93.4841 69.3285 93.5006 69.36 93.5156 69.3824C93.52 69.389 93.5236 69.3939 93.5266 69.3974C93.5283 69.3957 93.5302 69.3933 93.5324 69.3899C93.5396 69.3786 93.5484 69.3575 93.5529 69.3227C93.5618 69.2525 93.5502 69.1459 93.5015 69.0114C93.405 68.7449 93.1713 68.3946 92.7377 68.0589C92.5256 67.9031 92.3167 67.8062 92.0926 67.7192C92.0178 67.6902 91.9393 67.6616 91.8579 67.632C91.7005 67.5747 91.5318 67.5133 91.3584 67.4371C90.8177 67.1998 90.1919 66.8059 89.3748 65.8512C88.5884 64.9323 87.8921 64.5799 87.2108 64.235L87.2029 64.231C86.632 63.9421 86.0694 63.656 85.4933 63.0496L83.4126 62.2794L84.731 63.702ZM88.149 61.9593C87.3833 61.9315 86.6124 61.9014 85.7866 61.6095L84.025 60.8L86.2423 60.7153C87.0065 61.0551 87.6358 61.1041 88.2738 61.1526L88.2827 61.1533C89.0441 61.2111 89.8222 61.2703 90.9004 61.8182C92.0206 62.3876 92.7495 62.512 93.3399 62.5244C93.5294 62.5284 93.7084 62.5206 93.8759 62.5133C93.9624 62.5095 94.0459 62.5059 94.1262 62.5041C94.3665 62.4986 94.5966 62.5082 94.8521 62.571C95.3812 62.7153 95.7312 62.9494 95.9224 63.1587C96.0188 63.2643 96.0703 63.3584 96.0889 63.4267C96.0982 63.4605 96.0981 63.4834 96.0957 63.4965C96.095 63.5005 96.0941 63.5035 96.0932 63.5057L96.0881 63.5029L96.0814 63.4988L96.0773 63.4961C96.0549 63.4811 96.0276 63.4584 95.9913 63.4257L95.9499 63.3881L95.915 63.3563C95.8997 63.3424 95.8839 63.3282 95.8682 63.3143C95.6784 63.1471 95.396 62.9366 94.9468 62.8923L94.94 62.8918C94.717 62.882 94.4564 62.9135 94.1754 62.9481L94.1542 62.9507C93.8751 62.9851 93.569 63.0229 93.2351 63.0337C92.5532 63.0559 91.7571 62.9658 90.8752 62.4994L90.874 62.4988C89.9542 62.0247 89.063 61.9924 88.1708 61.9601L88.149 61.9593ZM84.0251 59.1988L86.0411 58.2721C86.8773 58.2936 87.4774 58.098 88.0854 57.8987L88.0938 57.8959C88.8194 57.658 89.5609 57.4149 90.7668 57.5085C92.0196 57.6058 92.7406 57.4418 93.2908 57.2274C93.4674 57.1585 93.6298 57.0828 93.7818 57.012C93.8603 56.9754 93.936 56.94 94.0095 56.9076C94.2294 56.8107 94.4457 56.7315 94.7058 56.6917C95.2498 56.6225 95.6627 56.7049 95.9194 56.8251C96.049 56.8857 96.1325 56.953 96.1759 57.0089C96.1973 57.0367 96.206 57.0578 96.2089 57.0709C96.2097 57.0748 96.2101 57.0779 96.2101 57.0803C96.2055 57.0799 96.1995 57.0791 96.1917 57.0775C96.1653 57.0723 96.1313 57.0617 96.0853 57.0454L96.0327 57.0265C96.0004 57.0148 95.9645 57.0018 95.9289 56.9896C95.6896 56.9078 95.3482 56.8214 94.9162 56.9523L94.9097 56.9544C94.6999 57.0307 94.4712 57.1596 94.2248 57.2991L94.2063 57.3096C93.9616 57.4482 93.6932 57.6002 93.3889 57.738C92.7674 58.0194 91.9974 58.2409 91.0041 58.1474L91.0028 58.1473C89.9716 58.0614 89.1359 58.3726 88.2992 58.6842L88.2788 58.6918C87.5608 58.9591 86.8371 59.2262 85.9626 59.2726L84.0251 59.1988Z" fill="#784B26"/>
<path d="M80.0002 66.675C83.6867 66.675 86.6752 63.6865 86.6752 60C86.6752 56.3134 83.6867 53.325 80.0002 53.325C76.3137 53.325 73.3252 56.3134 73.3252 60C73.3252 63.6865 76.3137 66.675 80.0002 66.675Z" fill="#D3AE3B"/>
<path fill-rule="evenodd" clip-rule="evenodd" d="M79.9999 53.4999C76.4101 53.4999 73.4999 56.4101 73.4999 59.9999C73.4999 63.5898 76.4101 66.4999 79.9999 66.4999C83.5898 66.4999 86.4999 63.5898 86.4999 59.9999C86.4999 56.4101 83.5898 53.4999 79.9999 53.4999ZM73.1499 59.9999C73.1499 56.2168 76.2168 53.1499 79.9999 53.1499C83.7831 53.1499 86.8499 56.2168 86.8499 59.9999C86.8499 63.7831 83.7831 66.8499 79.9999 66.8499C76.2168 66.8499 73.1499 63.7831 73.1499 59.9999Z" fill="#784B26"/>
<path d="M79.3501 58.15C78.5251 57.375 77.0251 57.55 75.8501 58.575V58.55C76.9751 57.05 78.5251 57.125 79.6501 58.05C79.7172 58.2368 79.7674 58.4292 79.8001 58.625C79.9335 59.431 79.7927 60.2585 79.4001 60.975L79.2001 60.875C79.6501 60.225 79.8251 59.6 79.7251 59.025C79.6723 58.7074 79.5437 58.4072 79.3501 58.15Z" fill="#784B26"/>
<path d="M80.7002 58.15C81.5252 57.375 83.0252 57.55 84.2002 58.575V58.55C83.0752 57.05 81.5252 57.125 80.4002 58.05C80.3331 58.2368 80.2829 58.4292 80.2502 58.625C80.1168 59.431 80.2576 60.2585 80.6502 60.975L80.8502 60.875C80.4002 60.225 80.2252 59.6 80.3252 59.025C80.3779 58.7074 80.5066 58.4072 80.7002 58.15Z" fill="#784B26"/>
<path d="M82.35 58.25C81.7272 58.25 81.5513 58.3989 81.2923 58.6183C81.2705 58.6367 81.2482 58.6556 81.225 58.675C81.0241 58.8423 80.8793 58.8752 80.798 58.8937C80.7579 58.9028 80.7332 58.9084 80.725 58.925C80.65 58.975 80.725 59.125 80.8 59.075C80.925 59.025 81.125 58.925 81.425 58.675C81.725 58.425 82.05 58.425 82.35 58.425C82.9886 58.425 83.4246 58.7825 83.6746 58.9874C83.7866 59.0793 83.8613 59.1404 83.9 59.125C83.975 59.075 83.375 58.25 82.35 58.25Z" fill="#784B26"/>
<path fill-rule="evenodd" clip-rule="evenodd" d="M82.275 58.575C81.825 58.575 81.375 58.775 81.125 59.175C81.3538 59.3923 81.7186 59.5154 82.1213 59.5324C82.1622 59.5438 82.2053 59.55 82.2499 59.55C82.3 59.55 82.3482 59.5422 82.3935 59.5279C82.7933 59.4983 83.2082 59.3676 83.55 59.125C83.3863 58.9511 83.1887 58.8127 82.9694 58.7181C82.7501 58.6235 82.5138 58.5748 82.275 58.575ZM83.175 59.075C82.9922 59.2851 82.7661 59.4085 82.527 59.4608C82.6468 59.3746 82.7249 59.2339 82.7249 59.075C82.7249 58.9226 82.6531 58.7869 82.5415 58.7C82.8632 58.7597 83.1356 58.9173 83.175 59.075ZM81.7749 59.075C81.7749 58.9312 81.8388 58.8023 81.9398 58.7152C81.8685 58.7354 81.7992 58.7631 81.7331 58.7979C81.5664 58.8856 81.4256 59.0157 81.325 59.175C81.5139 59.3189 81.7418 59.4208 81.9793 59.4654C81.8558 59.3796 81.7749 59.2368 81.7749 59.075Z" fill="#784B26"/>
<path d="M81.3252 59.7C81.8252 60 82.7002 60.05 83.5752 59.375C82.5502 59.8 81.9502 59.8 81.5252 59.6C81.3734 59.5146 81.2648 59.4472 81.183 59.3965C81.0493 59.3135 80.9872 59.275 80.9252 59.275C80.8252 59.275 80.8252 59.375 81.3252 59.7Z" fill="#784B26"/>
<path d="M78.9998 60.925C78.9871 60.9262 78.9746 60.928 78.9621 60.9303L78.9748 60.925H78.9998Z" fill="#784B26"/>
<path d="M78.9621 60.9303C78.8447 60.9819 78.7748 61.0801 78.7748 61.225C78.7748 61.375 78.9248 61.525 79.0748 61.525C79.1162 61.5284 79.158 61.5232 79.1973 61.5097C79.2366 61.4962 79.2727 61.4747 79.3033 61.4464C79.3338 61.4182 79.3582 61.384 79.3748 61.3458C79.3914 61.3077 79.3999 61.2666 79.3998 61.225C79.457 61.3448 79.545 61.4473 79.6549 61.5219C79.7647 61.5966 79.8923 61.6408 80.0248 61.65C80.1616 61.6452 80.2945 61.6031 80.4091 61.5281C80.5237 61.4532 80.6156 61.3484 80.6748 61.225C80.6748 61.3045 80.7064 61.3808 80.7627 61.4371C80.8189 61.4934 80.8952 61.525 80.9748 61.525C81.1498 61.525 81.2748 61.375 81.2748 61.225C81.2748 61.075 81.1998 60.975 81.0748 60.9C81.1525 60.9109 81.2263 60.9408 81.2895 60.9872C81.3528 61.0336 81.4036 61.0949 81.4374 61.1657C81.4712 61.2365 81.487 61.3145 81.4833 61.3929C81.4795 61.4713 81.4565 61.5475 81.4161 61.6147C81.3757 61.682 81.3193 61.7382 81.252 61.7784C81.1846 61.8185 81.1083 61.8414 81.0299 61.8449C80.9515 61.8484 80.8735 61.8324 80.8028 61.7984C80.7321 61.7644 80.671 61.7134 80.6248 61.65C80.4534 61.7586 80.2524 61.811 80.0498 61.8H79.9998C79.8058 61.8044 79.6147 61.7523 79.4498 61.65C79.407 61.7183 79.3474 61.7745 79.2768 61.8135C79.2063 61.8524 79.1269 61.8728 79.0463 61.8726C78.9657 61.8724 78.8864 61.8517 78.816 61.8124C78.7456 61.7731 78.6863 61.7166 78.6438 61.6481C78.6013 61.5796 78.5769 61.5014 78.573 61.4208C78.569 61.3403 78.5856 61.2601 78.6212 61.1878C78.6569 61.1154 78.7103 61.0534 78.7765 61.0074C78.8323 60.9687 78.8956 60.9424 78.9621 60.9303Z" fill="#784B26"/>
<path d="M79.4998 62.3C79.1481 62.3 78.9311 62.5019 78.6908 62.7254C78.5724 62.8355 78.4484 62.9509 78.2998 63.05C78.4452 62.9918 78.5822 62.8998 78.7403 62.7936C78.8539 62.7173 78.9784 62.6336 79.1248 62.55C79.3651 62.4126 79.5937 62.4875 79.7781 62.5479C79.8622 62.5754 79.9371 62.6 79.9998 62.6C80.0623 62.6 80.1346 62.5755 80.2159 62.548C80.3947 62.4876 80.617 62.4125 80.8748 62.55C81.0212 62.6336 81.1457 62.7173 81.2593 62.7936C81.4174 62.8998 81.5544 62.9918 81.6998 63.05C81.5333 62.9448 81.4006 62.8213 81.2759 62.7051C81.0447 62.4898 80.8408 62.3 80.4998 62.3C80.3251 62.3176 80.1554 62.3685 79.9998 62.45C79.8461 62.3598 79.6762 62.3003 79.4998 62.275V62.3Z" fill="#784B26"/>
<path fill-rule="evenodd" clip-rule="evenodd" d="M78.4502 63.05C78.8502 62.95 79.1002 62.9 79.3002 62.9C79.5151 62.8846 79.6546 62.907 79.7766 62.9265C79.8532 62.9388 79.923 62.95 80.0002 62.95C80.0754 62.95 80.1458 62.9374 80.225 62.9233C80.458 62.8818 80.7662 62.8268 81.4912 63.0399C81.5545 63.04 81.6238 63.0432 81.6998 63.05C81.1827 63.1101 81.03 63.2859 80.8856 63.4522C80.7298 63.6316 80.5837 63.8 79.9998 63.8C79.416 63.8 79.2698 63.6316 79.114 63.4522C78.9696 63.2859 78.8169 63.1101 78.2998 63.05L78.4502 63.05ZM78.4502 63.05C79.0571 62.9187 79.3519 63.0135 79.6029 63.0942C79.7345 63.1365 79.854 63.175 80.0002 63.175C80.1355 63.175 80.248 63.1378 80.3734 63.0963C80.612 63.0173 80.8975 62.9228 81.477 63.0399C81.0485 63.0422 80.8935 63.188 80.7389 63.3335C80.5839 63.4794 80.4293 63.625 79.9998 63.625C79.5654 63.625 79.4144 63.4832 79.2624 63.3405C79.1082 63.1957 78.953 63.05 78.4998 63.05L78.4502 63.05Z" fill="#784B26"/>
<path d="M79.9998 63.8C80.2451 63.8 80.4804 63.8974 80.6539 64.0709C80.8273 64.2444 80.9248 64.4796 80.9248 64.725C80.876 64.5163 80.758 64.3303 80.5901 64.1971C80.4221 64.0639 80.2141 63.9915 79.9998 63.9915C79.7855 63.9915 79.5775 64.0639 79.4095 64.1971C79.2416 64.3303 79.1236 64.5163 79.0748 64.725C79.0748 64.4796 79.1723 64.2444 79.3457 64.0709C79.5192 63.8974 79.7545 63.8 79.9998 63.8Z" fill="#784B26"/>
<path d="M77.6998 58.25C78.3226 58.25 78.4985 58.3989 78.7575 58.6183C78.7793 58.6367 78.8016 58.6556 78.8248 58.675C79.0257 58.8423 79.1705 58.8752 79.2518 58.8937C79.2919 58.9028 79.3166 58.9084 79.3248 58.925C79.3998 58.975 79.3248 59.125 79.2498 59.075C79.1248 59.025 78.9248 58.925 78.6248 58.675C78.3248 58.425 77.9998 58.425 77.6998 58.425C77.0612 58.425 76.6252 58.7825 76.3752 58.9874C76.2632 59.0793 76.1885 59.1404 76.1498 59.125C76.0748 59.075 76.6748 58.25 77.6998 58.25Z" fill="#784B26"/>
<path fill-rule="evenodd" clip-rule="evenodd" d="M76.5249 59.175C76.7749 58.775 77.2249 58.575 77.6749 58.575C77.9137 58.5748 78.15 58.6235 78.3693 58.7181C78.5886 58.8127 78.7862 58.9511 78.9499 59.125C78.6374 59.3468 78.2639 59.475 77.8966 59.518C77.8434 59.5387 77.7855 59.55 77.725 59.55C77.6831 59.55 77.6424 59.5445 77.6037 59.5344C77.1687 59.5317 76.7692 59.407 76.5249 59.175ZM78.5749 59.075C78.4213 59.2516 78.2371 59.3669 78.0403 59.4303C78.1383 59.3432 78.2 59.2163 78.2 59.075C78.2 58.9352 78.1396 58.8095 78.0435 58.7226C78.3191 58.7937 78.5397 58.9343 78.5749 59.075ZM77.25 59.075C77.25 59.2467 77.3411 59.3971 77.4776 59.4805C77.205 59.448 76.9398 59.3387 76.7249 59.175C76.8255 59.0157 76.9663 58.8856 77.133 58.7979C77.2315 58.7461 77.337 58.7101 77.4457 58.6907C77.3271 58.7771 77.25 58.917 77.25 59.075Z" fill="#784B26"/>
<path d="M78.7251 59.7C78.2251 60 77.3501 60.05 76.4751 59.375C77.5001 59.8 78.1001 59.8 78.5251 59.6C78.6769 59.5146 78.7855 59.4472 78.8673 59.3965C79.001 59.3135 79.063 59.275 79.1251 59.275C79.2251 59.275 79.2251 59.375 78.7251 59.7Z" fill="#784B26"/>
</g>
<defs>
<clipPath id="clip0_909_228004">
<rect width="160" height="120" fill="white"/>
</clipPath>
</defs>
</svg>
