<svg width="161" height="120" viewBox="0 0 161 120" fill="none" xmlns="http://www.w3.org/2000/svg">
<g clip-path="url(#clip0_307_72999)">
<path d="M0.454102 0H160.454V120H0.454102V0Z" fill="#1E9A1C"/>
<path d="M0.454102 0H160.454V80H0.454102V0Z" fill="#D91C16"/>
<path d="M0.454102 0H160.454V40H0.454102V0Z" fill="#54AEF2"/>
<path d="M76.4287 78C86.3698 78 94.4287 69.9411 94.4287 60C94.4287 50.0589 86.3698 42 76.4287 42C66.4876 42 58.4287 50.0589 58.4287 60C58.4287 69.9411 66.4876 78 76.4287 78Z" fill="white"/>
<path d="M80.4287 75C88.713 75 95.4287 68.2843 95.4287 60C95.4287 51.7157 88.713 45 80.4287 45C72.1444 45 65.4287 51.7157 65.4287 60C65.4287 68.2843 72.1444 75 80.4287 75Z" fill="#D91C16"/>
<path d="M96.4287 50L98.3537 55.375L103.504 52.925L101.054 58.1L106.429 60L101.054 61.925L103.504 67.075L98.3537 64.625L96.4287 70L94.5037 64.625L89.3537 67.075L91.8037 61.925L86.4287 60L91.8037 58.075L89.3537 52.925L94.5037 55.375L96.4287 50Z" fill="white"/>
</g>
<defs>
<clipPath id="clip0_307_72999">
<rect width="160" height="120" fill="white" transform="translate(0.428711)"/>
</clipPath>
</defs>
</svg>
