<svg width="161" height="120" viewBox="0 0 161 120" fill="none" xmlns="http://www.w3.org/2000/svg">
<g clip-path="url(#clip0_307_70818)">
<path d="M0.455078 0H160.455V120H0.455078V0Z" fill="#0F3296"/>
<path d="M53.9551 0H106.955V120H53.9551V0Z" fill="#FDD406"/>
<path d="M80.6844 29.5C78.7344 34.8175 76.7469 40.3525 72.4944 44.59C73.8144 44.155 76.1244 43.765 77.6094 43.8025V66.1675L71.2944 67.105C71.0694 67.0825 70.9944 66.73 70.9944 66.25C70.3869 59.305 68.7444 53.47 66.8544 47.4325C66.7194 46.6075 64.3269 43.4575 66.1719 44.0125C66.3969 44.0425 68.8644 45.0475 68.4744 44.5675C65.1144 41.0875 60.2019 38.5825 55.4319 37.84C55.0119 37.735 54.7644 37.945 55.1394 38.4325C61.4694 48.175 66.7644 59.6725 66.7194 73.315C69.1794 73.315 75.1419 71.86 77.6094 71.86V87.64H80.7219L81.4344 43.57L80.6844 29.5Z" fill="black"/>
<path d="M80.6847 29.5C82.6347 34.8175 84.6222 40.3525 88.8747 44.59C87.5547 44.155 85.2447 43.765 83.7597 43.8025V66.1675L90.0747 67.105C90.2997 67.0825 90.3747 66.73 90.3747 66.25C90.9822 59.305 92.6247 53.47 94.5147 47.4325C94.6497 46.6075 97.0422 43.4575 95.1972 44.0125C94.9722 44.0425 92.5047 45.0475 92.8947 44.5675C96.2547 41.0875 101.167 38.5825 105.937 37.84C106.357 37.735 106.605 37.945 106.23 38.4325C99.8997 48.175 94.6047 59.6725 94.6497 73.315C92.1897 73.315 86.2272 71.86 83.7597 71.86V87.64H80.6472L79.9347 43.57L80.6847 29.5Z" fill="black"/>
</g>
<defs>
<clipPath id="clip0_307_70818">
<rect width="160" height="120" fill="white" transform="translate(0.455078)"/>
</clipPath>
</defs>
</svg>
