<svg width="160" height="120" viewBox="0 0 160 120" fill="none" xmlns="http://www.w3.org/2000/svg">
<path d="M0 0H160V120H0V0Z" fill="#E23726"/>
<path d="M0 0V120L160 0V120L0 0Z" fill="#1E9A1C"/>
<path d="M147.561 120L80 69.3295L12.4394 120H0V110.67L67.5606 60L0 9.32953V0H12.4394L80 50.6705L147.561 0H160V9.32953L92.4394 60L160 110.67V120H147.561Z" fill="white"/>
<path d="M80 94C98.7777 94 114 78.7777 114 60C114 41.2223 98.7777 26 80 26C61.2223 26 46 41.2223 46 60C46 78.7777 61.2223 94 80 94Z" fill="white"/>
<path d="M79.9998 35.12L82.1018 38.76H86.3038L84.2038 42.4L86.3038 46.04H82.1018L79.9998 49.68L77.8978 46.04H73.6958L75.7958 42.4L73.6958 38.76H77.8978L79.9998 35.12Z" fill="#E23726"/>
<path d="M101.547 72.44L97.3432 72.4404L95.2422 76.0794L93.1399 72.4408L88.9375 72.4394L91.0385 68.8004L88.9372 65.16L93.1405 65.1596L95.2415 61.5206L97.3439 65.1592L101.546 65.1606L99.4452 68.7996L101.547 72.44Z" fill="#E23726"/>
<path d="M58.4531 72.44L60.5545 68.7996L58.4535 65.1606L62.6558 65.1592L64.7581 61.5206L66.8591 65.1596L71.0625 65.16L68.9611 68.8004L71.0621 72.4394L66.8598 72.4408L64.7575 76.0794L62.6565 72.4404L58.4531 72.44Z" fill="#E23726"/>
<path fill-rule="evenodd" clip-rule="evenodd" d="M80.0002 34.4001L82.31 38.4H86.9275L84.6198 42.4L86.9275 46.4H82.31L80.0002 50.3999L77.6904 46.4H73.0729L75.3806 42.4L73.0729 38.4H77.6904L80.0002 34.4001ZM80.0002 35.8399L78.106 39.12H74.3195L76.2118 42.4L74.3195 45.68H78.106L80.0002 48.9601L81.8944 45.68H85.6809L83.7886 42.4L85.6809 39.12H81.8944L80.0002 35.8399Z" fill="#1E9A1C"/>
<path fill-rule="evenodd" clip-rule="evenodd" d="M102.17 72.8L97.5515 72.8004L95.2427 76.7993L92.9325 72.8007L88.3145 72.7993L90.6233 68.8004L88.3142 64.8001L92.9331 64.7997L95.2418 60.8008L97.5521 64.7993L102.17 64.8008L99.8613 68.7997L102.17 72.8ZM100.923 72.0801L99.0299 68.7996L100.923 65.5204L97.1365 65.5192L95.2421 62.2404L93.3488 65.5196L89.561 65.52L91.4546 68.8004L89.5614 72.0797L93.3481 72.0809L95.2425 75.3597L97.1357 72.0804L100.923 72.0801Z" fill="#1E9A1C"/>
<path fill-rule="evenodd" clip-rule="evenodd" d="M57.8301 72.8L60.1392 68.7997L57.8304 64.8008L62.4484 64.7993L64.7586 60.8008L67.0674 64.7997L71.6863 64.8001L69.3772 68.8004L71.6859 72.7993L67.068 72.8007L64.7577 76.7993L62.449 72.8004L57.8301 72.8ZM59.077 72.0801L62.8647 72.0804L64.758 75.3597L66.6524 72.0809L70.4391 72.0797L68.5458 68.8004L70.4394 65.52L66.6517 65.5196L64.7584 62.2404L62.864 65.5192L59.0773 65.5204L60.9705 68.7996L59.077 72.0801Z" fill="#1E9A1C"/>
</svg>
