<svg width="160" height="120" viewBox="0 0 160 120" fill="none" xmlns="http://www.w3.org/2000/svg">
<g clip-path="url(#clip0_909_308016)">
<path d="M0 0H160V120H0V0Z" fill="#D91C16"/>
<path d="M0 0V120L160 0V120L0 0Z" fill="#1E9A1C"/>
<path d="M147.561 120L80 69.3295L12.4394 120H0V110.67L67.5606 60L0 9.32953V0H12.4394L80 50.6705L147.561 0H160V9.32953L92.4394 60L160 110.67V120H147.561Z" fill="white"/>
<path d="M80 94C98.7777 94 114 78.7777 114 60C114 41.2223 98.7777 26 80 26C61.2223 26 46 41.2223 46 60C46 78.7777 61.2223 94 80 94Z" fill="white"/>
<path d="M80.0001 35.1201L82.1021 38.7601H86.3041L84.2041 42.4001L86.3041 46.0401H82.1021L80.0001 49.6801L77.8981 46.0401H73.6961L75.7961 42.4001L73.6961 38.7601H77.8981L80.0001 35.1201Z" fill="#D91C16"/>
<path d="M101.547 72.4401L97.3435 72.4405L95.2425 76.0795L93.1401 72.4409L88.9378 72.4395L91.0388 68.8005L88.9375 65.1601L93.1408 65.1597L95.2418 61.5207L97.3441 65.1593L101.546 65.1607L99.4455 68.7997L101.547 72.4401Z" fill="#D91C16"/>
<path d="M58.4534 72.4401L60.5547 68.7997L58.4537 65.1607L62.656 65.1593L64.7584 61.5207L66.8594 65.1597L71.0627 65.1601L68.9614 68.8005L71.0624 72.4395L66.86 72.4409L64.7577 76.0795L62.6567 72.4405L58.4534 72.4401Z" fill="#D91C16"/>
<path fill-rule="evenodd" clip-rule="evenodd" d="M80 34.4001L82.3098 38.4H86.9273L84.6196 42.4L86.9273 46.4H82.3098L80 50.3999L77.6902 46.4H73.0727L75.3804 42.4L73.0727 38.4H77.6902L80 34.4001ZM80 35.8399L78.1058 39.12H74.3193L76.2116 42.4L74.3193 45.68H78.1058L80 48.9601L81.8942 45.68H85.6807L83.7884 42.4L85.6807 39.12H81.8942L80 35.8399Z" fill="#1E9A1C"/>
<path fill-rule="evenodd" clip-rule="evenodd" d="M102.17 72.8L97.5512 72.8004L95.2425 76.7993L92.9322 72.8007L88.3143 72.7993L90.623 68.8004L88.3139 64.8001L92.9328 64.7997L95.2416 60.8008L97.5518 64.7993L102.17 64.8008L99.861 68.7997L102.17 72.8ZM100.923 72.0801L99.0297 68.7996L100.923 65.5204L97.1362 65.5192L95.2418 62.2404L93.3485 65.5196L89.5608 65.52L91.4544 68.8004L89.5611 72.0797L93.3478 72.0809L95.2422 75.3597L97.1355 72.0804L100.923 72.0801Z" fill="#1E9A1C"/>
<path fill-rule="evenodd" clip-rule="evenodd" d="M57.8298 72.8L60.1389 68.7997L57.8302 64.8008L62.4481 64.7993L64.7584 60.8008L67.0671 64.7997L71.686 64.8001L69.377 68.8004L71.6857 72.7993L67.0677 72.8007L64.7575 76.7993L62.4487 72.8004L57.8298 72.8ZM59.0767 72.0801L62.8645 72.0804L64.7577 75.3597L66.6521 72.0809L70.4388 72.0797L68.5456 68.8004L70.4392 65.52L66.6514 65.5196L64.7582 62.2404L62.8637 65.5192L59.077 65.5204L60.9703 68.7996L59.0767 72.0801Z" fill="#1E9A1C"/>
</g>
<defs>
<clipPath id="clip0_909_308016">
<rect width="160" height="120" fill="white"/>
</clipPath>
</defs>
</svg>
