<svg width="160" height="120" viewBox="0 0 160 120" fill="none" xmlns="http://www.w3.org/2000/svg">
<g clip-path="url(#clip0_307_72370)">
<path d="M0 0H160V120H0V0Z" fill="#1E9A1C"/>
<path d="M8.85547 60L79.9983 105.429L151.141 60L79.9983 14.5714L8.85547 60Z" fill="#FDD406"/>
<path d="M79.998 90C96.5666 90 109.998 76.5685 109.998 60C109.998 43.4315 96.5666 30 79.998 30C63.4295 30 49.998 43.4315 49.998 60C49.998 76.5685 63.4295 90 79.998 90Z" fill="#0F3296"/>
<path d="M50.9512 52.4694C54.8553 51.7812 58.8371 51.4285 62.8553 51.4285C79.7971 51.4285 96.0926 57.6981 108.64 68.9524C109.119 67.4188 109.478 65.8323 109.706 64.2038C96.6343 53.227 80.0584 47.1428 62.8553 47.1428C59.3866 47.1428 55.9434 47.3902 52.5493 47.8751C51.8977 49.3481 51.3612 50.8833 50.9512 52.4694Z" fill="white"/>
<path d="M63.988 50.7116L66.5579 50.8013L66.5764 50.2711L64.496 50.1984L64.5217 49.4642L66.1533 49.5211L66.1704 49.0316L64.5388 48.9747L64.5587 48.4036L66.5167 48.472L66.5352 47.9417L64.0877 47.8562L63.988 50.7116Z" fill="#1E9A1C"/>
<path fill-rule="evenodd" clip-rule="evenodd" d="M61.707 50.7237L60.3602 50.7473L60.3104 47.8905L61.6571 47.867C61.8179 47.8642 61.9777 47.8931 62.1273 47.9521C62.2769 48.011 62.4134 48.0988 62.5291 48.2105C62.6448 48.3222 62.7373 48.4556 62.8014 48.6031C62.8655 48.7505 62.9 48.9092 62.9028 49.07L62.9099 49.4781C62.9127 49.6389 62.8838 49.7986 62.8249 49.9482C62.766 50.0978 62.6781 50.2344 62.5664 50.35C62.4547 50.4657 62.3213 50.5583 62.1739 50.6224C62.0264 50.6865 61.8678 50.7209 61.707 50.7237ZM61.6569 50.1939L60.8815 50.2075L60.8502 48.4118L61.6256 48.3983C61.8312 48.3947 62.0299 48.4729 62.1778 48.6158C62.3258 48.7587 62.4109 48.9545 62.4145 49.1601L62.4188 49.405C62.4224 49.6107 62.3441 49.8093 62.2012 49.9573C62.0584 50.1052 61.8626 50.1903 61.6569 50.1939Z" fill="#1E9A1C"/>
<path fill-rule="evenodd" clip-rule="evenodd" d="M57.2685 50.9357L56.7392 50.9727L56.5806 48.1197L58.2093 48.0058C58.4468 47.9892 58.6813 48.0676 58.861 48.2239C59.0408 48.3801 59.1511 48.6014 59.1677 48.8389C59.1843 49.0765 59.1058 49.311 58.9496 49.4907C58.9017 49.5459 58.8476 49.5945 58.7888 49.6359C59.0966 49.8707 59.1396 50.4857 59.1618 50.8033L58.6732 50.8375C58.6542 50.5651 58.6199 50.0741 58.3311 49.7976L57.1945 49.8771L57.2685 50.9357ZM58.2568 49.2709L57.1575 49.3478L57.1062 48.6148L58.2056 48.538C58.3028 48.5312 58.3987 48.5633 58.4722 48.6272C58.5457 48.6911 58.5908 48.7816 58.5976 48.8788C58.6044 48.976 58.5723 49.0719 58.5084 49.1454C58.4445 49.219 58.354 49.2641 58.2568 49.2709Z" fill="#1E9A1C"/>
<path fill-rule="evenodd" clip-rule="evenodd" d="M55.2626 50.7046C55.056 50.9999 54.7497 51.1892 54.4113 51.2307C54.0728 51.2723 53.7299 51.1627 53.4579 50.9262C53.186 50.6897 53.0072 50.3455 52.961 49.9695C52.9149 49.5934 53.005 49.2163 53.2117 48.921C53.4184 48.6257 53.7246 48.4364 54.0631 48.3949C54.4015 48.3533 54.7445 48.4628 55.0164 48.6994C55.2884 48.9359 55.4671 49.28 55.5133 49.6561C55.5595 50.0322 55.4693 50.4093 55.2626 50.7046ZM54.8445 50.3779C54.7245 50.5623 54.5454 50.6797 54.3466 50.7041C54.1478 50.7285 53.9457 50.658 53.7846 50.5081C53.6235 50.3582 53.5167 50.1412 53.4877 49.9048C53.4587 49.6684 53.5098 49.432 53.6298 49.2476C53.7499 49.0632 53.929 48.9459 54.1277 48.9215C54.3265 48.8971 54.5287 48.9676 54.6898 49.1175C54.8508 49.2674 54.9576 49.4844 54.9866 49.7208C55.0157 49.9571 54.9645 50.1935 54.8445 50.3779Z" fill="#1E9A1C"/>
<path d="M68.1011 50.9086L67.6131 50.8659L67.8621 48.0196L68.5737 48.0818L68.9722 50.0834L69.7122 48.1815L70.4238 48.2437L70.1748 51.09L69.6868 51.0473L69.8576 49.0956L69.1176 50.9975L68.6703 50.9584L68.2718 48.9568L68.1011 50.9086Z" fill="#1E9A1C"/>
<path d="M73.5326 51.5336L75.6445 51.8965L75.7275 51.4138L74.0983 51.1338L74.2089 50.4902L75.5364 50.7183L75.6193 50.2356L74.2918 50.0075L74.3679 49.565L75.9468 49.8363L76.0297 49.3535L73.9681 48.9993L73.5326 51.5336Z" fill="#1E9A1C"/>
<path fill-rule="evenodd" clip-rule="evenodd" d="M79.472 52.7321L78.9583 52.5993L79.7132 49.8433L81.2938 50.2521C81.5244 50.3118 81.7218 50.4605 81.8427 50.6657C81.9636 50.8709 81.998 51.1158 81.9384 51.3463C81.8787 51.5769 81.7299 51.7743 81.5247 51.8952C81.3195 52.0161 81.0747 52.0505 80.8442 51.9908L79.7377 51.7047L79.472 52.7321ZM80.9375 51.4669L79.8706 51.191L80.0545 50.4797L81.1215 50.7556C81.2158 50.78 81.2966 50.8409 81.346 50.9248C81.3954 51.0088 81.4095 51.1089 81.3851 51.2032C81.3607 51.2976 81.2999 51.3783 81.2159 51.4278C81.132 51.4772 81.0318 51.4913 80.9375 51.4669Z" fill="#1E9A1C"/>
<path fill-rule="evenodd" clip-rule="evenodd" d="M82.4634 53.5344L82.9695 53.694L83.2886 52.6818L84.3752 53.0245C84.5426 53.3876 84.3946 53.857 84.3125 54.1174L84.7796 54.2647C84.8754 53.961 85.0607 53.373 84.8604 53.0417C84.9303 53.0248 84.9984 52.9994 85.0632 52.9656C85.2745 52.8556 85.4334 52.6663 85.505 52.4391C85.5766 52.212 85.555 51.9657 85.4451 51.7545C85.3351 51.5432 85.1457 51.3843 84.9186 51.3127L83.3615 50.8218L82.4634 53.5344ZM83.4482 52.1758L84.4992 52.5072C84.5921 52.5365 84.6929 52.5277 84.7793 52.4827C84.8657 52.4377 84.9307 52.3602 84.96 52.2673C84.9893 52.1744 84.9805 52.0736 84.9355 51.9872C84.8905 51.9008 84.813 51.8358 84.7201 51.8065L83.6691 51.4751L83.4482 52.1758Z" fill="#1E9A1C"/>
<path fill-rule="evenodd" clip-rule="evenodd" d="M87.1196 55.102C87.4389 55.2214 87.798 55.1949 88.1176 55.0284C88.4373 54.8619 88.6915 54.569 88.8241 54.2141C88.9568 53.8592 88.9572 53.4715 88.8252 53.1361C88.6931 52.8007 88.4395 52.5452 88.1201 52.4258C87.8007 52.3063 87.4417 52.3328 87.122 52.4993C86.8024 52.6658 86.5482 52.9587 86.4156 53.3136C86.2829 53.6685 86.2825 54.0563 86.4145 54.3917C86.5465 54.727 86.8002 54.9825 87.1196 55.102ZM87.3054 54.605C87.493 54.6751 87.706 54.6537 87.8976 54.5456C88.0892 54.4375 88.2437 54.2514 88.3271 54.0283C88.4105 53.8052 88.416 53.5634 88.3423 53.3561C88.2687 53.1488 88.1219 52.9929 87.9343 52.9228C87.7467 52.8526 87.5337 52.874 87.3421 52.9821C87.1505 53.0903 86.996 53.2764 86.9126 53.4994C86.8292 53.7225 86.8237 53.9643 86.8974 54.1716C86.971 54.3789 87.1178 54.5348 87.3054 54.605Z" fill="#1E9A1C"/>
<path d="M92.2885 54.5869C92.1742 54.2451 91.9343 53.9766 91.6216 53.8407C91.3089 53.7047 90.949 53.7123 90.621 53.8619C90.2931 54.0114 90.024 54.2906 89.8729 54.6381C89.7218 54.9855 89.7012 55.3728 89.8155 55.7146C89.9297 56.0564 90.1696 56.3249 90.4823 56.4608C90.7817 56.591 91.1244 56.5896 91.4409 56.458L91.2875 56.8107L91.6618 56.9735L92.2314 55.6634L91.2394 55.2321L91.0767 55.6064L91.5061 55.7932C91.4403 55.8551 91.367 55.9069 91.2884 55.9459C91.0914 56.0439 90.8776 56.0541 90.6939 55.9742C90.5103 55.8944 90.3719 55.731 90.3091 55.5201C90.2464 55.3092 90.2645 55.068 90.3595 54.8496C90.4545 54.6312 90.6185 54.4535 90.8155 54.3555C91.0125 54.2576 91.2264 54.2474 91.41 54.3273C91.5937 54.4071 91.7321 54.5705 91.7948 54.7814C91.8114 54.8371 91.8223 54.8949 91.8277 54.9539L92.3549 55.1832C92.3738 54.9801 92.3519 54.7765 92.2885 54.5869Z" fill="#1E9A1C"/>
<path fill-rule="evenodd" clip-rule="evenodd" d="M92.6195 57.4201L93.0944 57.6569L93.5679 56.7072L94.5876 57.2155C94.696 57.6004 94.4764 58.0409 94.3546 58.2852L94.7929 58.5038C94.935 58.2188 95.2101 57.6671 95.064 57.3085C95.1357 57.3027 95.207 57.2882 95.2763 57.265C95.5021 57.1895 95.6887 57.0273 95.795 56.8142C95.9012 56.601 95.9185 56.3544 95.8429 56.1286C95.7673 55.9027 95.6051 55.7161 95.392 55.6099L93.9309 54.8814L92.6195 57.4201ZM93.8047 56.2323L94.7909 56.724C94.8781 56.7675 94.979 56.7746 95.0714 56.7436C95.1638 56.7127 95.2401 56.6464 95.2836 56.5592C95.327 56.472 95.3341 56.3711 95.3032 56.2787C95.2723 56.1863 95.2059 56.11 95.1187 56.0665L94.1325 55.5748L93.8047 56.2323Z" fill="#1E9A1C"/>
<path d="M95.8541 59.0637L98.0922 60.3299L98.3535 59.8681L96.5417 58.843L96.9035 58.2036L98.3245 59.0075L98.5657 58.5812L97.1447 57.7773L97.4261 57.2799L99.1313 58.2447L99.3926 57.7829L97.2611 56.5769L95.8541 59.0637Z" fill="#1E9A1C"/>
<path d="M100.369 61.1911C100.024 60.9718 99.8689 60.7032 100.022 60.4623L99.4802 60.1169C99.0947 60.7182 99.6862 61.3128 100.082 61.565C100.547 61.8611 101.243 62.1353 101.643 61.5071C101.965 61.0031 101.476 60.5338 101.079 60.1518C100.804 59.8881 100.573 59.6661 100.682 59.5031C100.841 59.2535 101.058 59.3311 101.324 59.5011C101.6 59.6765 101.78 59.9247 101.616 60.1829L102.141 60.5173C102.528 59.929 102.03 59.4185 101.721 59.2211L101.681 59.1957C101.345 58.98 100.57 58.4815 100.109 59.1866C99.7917 59.6741 100.242 60.1162 100.631 60.4971C100.923 60.7844 101.181 61.0368 101.046 61.2477C100.947 61.4024 100.713 61.4104 100.369 61.1911Z" fill="#1E9A1C"/>
<path d="M103.087 62.4891C102.922 62.7217 103.063 62.998 103.395 63.235C103.727 63.472 103.962 63.4764 104.069 63.3271C104.214 63.1235 103.97 62.8579 103.693 62.5557C103.325 62.155 102.898 61.6899 103.241 61.2197C103.738 60.5396 104.486 61.0781 104.81 61.311L104.848 61.3385C105.147 61.5518 105.617 62.0876 105.2 62.6549L104.693 62.2935C104.871 62.0442 104.704 61.787 104.438 61.5973C104.18 61.4136 103.968 61.3248 103.796 61.5657C103.679 61.7228 103.898 61.9566 104.158 62.2343C104.535 62.6365 104.999 63.1308 104.652 63.6173C104.219 64.2237 103.538 63.9134 103.089 63.5934C102.707 63.3208 102.148 62.6961 102.564 62.1158L103.087 62.4891Z" fill="#1E9A1C"/>
<path fill-rule="evenodd" clip-rule="evenodd" d="M106.958 66.0149C106.603 66.0745 106.253 65.9887 105.986 65.7764C105.719 65.5641 105.557 65.2428 105.535 64.883C105.513 64.5232 105.633 64.1545 105.869 63.858C106.105 63.5615 106.437 63.3615 106.793 63.3019C107.148 63.2423 107.498 63.3281 107.765 63.5404C108.032 63.7527 108.194 64.074 108.216 64.4338C108.238 64.7936 108.118 65.1623 107.882 65.4588C107.646 65.7553 107.314 65.9553 106.958 66.0149ZM106.898 65.4877C106.682 65.5313 106.473 65.4858 106.317 65.3612C106.16 65.2365 106.068 65.0429 106.062 64.8229C106.056 64.603 106.136 64.3747 106.285 64.1883C106.433 64.002 106.637 63.8727 106.853 63.8291C107.069 63.7855 107.278 63.831 107.435 63.9557C107.591 64.0803 107.683 64.2739 107.689 64.4939C107.695 64.7138 107.615 64.9421 107.466 65.1285C107.318 65.3149 107.114 65.4441 106.898 65.4877Z" fill="#1E9A1C"/>
<path d="M55.5081 53.3266L55.1108 54.5494L55.7222 54.748" fill="white"/>
<path d="M55.5081 53.3266L55.9055 54.5494L55.2941 54.748" fill="white"/>
<path d="M56.7309 54.215H55.4452V54.8578" fill="white"/>
<path d="M56.7309 54.215L55.6908 54.9707L55.3129 54.4506" fill="white"/>
<path d="M54.2854 54.215L55.3255 54.9707L55.7034 54.4506" fill="white"/>
<path d="M54.2854 54.215H55.5711V54.8578" fill="white"/>
<path d="M56.2639 55.6524L55.8666 54.4297L55.2552 54.6283" fill="white"/>
<path d="M56.2639 55.6524L55.2237 54.8967L55.6016 54.3766" fill="white"/>
<path d="M54.7524 55.6524L55.7926 54.8967L55.4147 54.3766" fill="white"/>
<path d="M54.7524 55.6524L55.1497 54.4297L55.7611 54.6283" fill="white"/>
<path d="M58.1612 65.9388L57.7639 67.1616L58.3753 67.3603" fill="white"/>
<path d="M58.1612 65.9388L58.5585 67.1616L57.9471 67.3603" fill="white"/>
<path d="M59.384 66.8272H58.0983V67.4701" fill="white"/>
<path d="M59.384 66.8272L58.3438 67.5829L57.966 67.0629" fill="white"/>
<path d="M56.9384 66.8272L57.9786 67.5829L58.3565 67.0629" fill="white"/>
<path d="M56.9384 66.8272H58.2241V67.4701" fill="white"/>
<path d="M58.9169 68.2647L58.5196 67.0419L57.9082 67.2406" fill="white"/>
<path d="M58.9169 68.2647L57.8768 67.509L58.2546 66.9889" fill="white"/>
<path d="M57.4055 68.2647L58.4456 67.509L58.0678 66.9889" fill="white"/>
<path d="M57.4055 68.2647L57.8028 67.0419L58.4142 67.2406" fill="white"/>
<path d="M54.4877 68.847L54.1566 69.866L54.6661 70.0315" fill="white"/>
<path d="M54.4877 68.847L54.8188 69.866L54.3093 70.0315" fill="white"/>
<path d="M55.5067 69.5873H54.4353V70.123" fill="white"/>
<path d="M55.5067 69.5873L54.6399 70.2171L54.325 69.7837" fill="white"/>
<path d="M53.4688 69.5873L54.3356 70.2171L54.6504 69.7837" fill="white"/>
<path d="M53.4688 69.5873H54.5402V70.123" fill="white"/>
<path d="M55.1175 70.7852L54.7864 69.7662L54.2769 69.9318" fill="white"/>
<path d="M55.1175 70.7852L54.2507 70.1554L54.5656 69.722" fill="white"/>
<path d="M53.858 70.7852L54.7248 70.1554L54.4099 69.722" fill="white"/>
<path d="M53.858 70.7852L54.1891 69.7662L54.6986 69.9318" fill="white"/>
<path d="M61.1 64.7756L60.9108 65.3578L61.2019 65.4524" fill="white"/>
<path d="M61.1 64.7756L61.2892 65.3578L60.998 65.4524" fill="white"/>
<path d="M61.6823 65.1986H61.07V65.5047" fill="white"/>
<path d="M61.6823 65.1986L61.1869 65.5585L61.007 65.3108" fill="white"/>
<path d="M60.5177 65.1986L61.013 65.5585L61.193 65.3108" fill="white"/>
<path d="M60.5177 65.1986H61.1299V65.5047" fill="white"/>
<path d="M61.4599 65.8831L61.2707 65.3008L60.9795 65.3954" fill="white"/>
<path d="M61.4599 65.8831L60.9645 65.5232L61.1445 65.2756" fill="white"/>
<path d="M60.7401 65.8831L61.2354 65.5232L61.0555 65.2756" fill="white"/>
<path d="M60.7401 65.8831L60.9293 65.3008L61.2204 65.3954" fill="white"/>
<path d="M64.4061 69.1327L64.075 70.1517L64.5845 70.3172" fill="white"/>
<path d="M64.4061 69.1327L64.7372 70.1517L64.2277 70.3172" fill="white"/>
<path d="M65.4251 69.873H64.3537V70.4087" fill="white"/>
<path d="M65.4251 69.873L64.5583 70.5028L64.2434 70.0694" fill="white"/>
<path d="M63.3871 69.873L64.2539 70.5028L64.5688 70.0694" fill="white"/>
<path d="M63.3871 69.873H64.4585V70.4087" fill="white"/>
<path d="M65.0359 71.0709L64.7048 70.0519L64.1953 70.2175" fill="white"/>
<path d="M65.0359 71.0709L64.1691 70.4412L64.484 70.0078" fill="white"/>
<path d="M63.7763 71.0709L64.6431 70.4412L64.3283 70.0078" fill="white"/>
<path d="M63.7763 71.0709L64.1074 70.0519L64.6169 70.2175" fill="white"/>
<path d="M63.5081 72.3266L63.2433 73.1418L63.6509 73.2742" fill="white"/>
<path d="M63.5081 72.3266L63.773 73.1418L63.3654 73.2742" fill="white"/>
<path d="M64.3233 72.9188H63.4662V73.3474" fill="white"/>
<path d="M64.3233 72.9188L63.6299 73.4227L63.378 73.0759" fill="white"/>
<path d="M62.693 72.9188L63.3864 73.4227L63.6383 73.0759" fill="white"/>
<path d="M62.693 72.9188H63.5501V73.3474" fill="white"/>
<path d="M64.012 73.8772L63.7471 73.062L63.3395 73.1944" fill="white"/>
<path d="M64.012 73.8772L63.3185 73.3733L63.5704 73.0266" fill="white"/>
<path d="M63.0043 73.8772L63.6978 73.3733L63.4459 73.0266" fill="white"/>
<path d="M63.0043 73.8772L63.2692 73.062L63.6768 73.1944" fill="white"/>
<path d="M89.3041 49.4082L88.9068 50.631L89.5182 50.8296" fill="white"/>
<path d="M89.3041 49.4082L89.7014 50.631L89.09 50.8296" fill="white"/>
<path d="M90.5269 50.2966H89.2411V50.9395" fill="white"/>
<path d="M90.5269 50.2966L89.4867 51.0523L89.1088 50.5323" fill="white"/>
<path d="M88.0813 50.2966L89.1214 51.0523L89.4993 50.5323" fill="white"/>
<path d="M88.0813 50.2966H89.367V50.9395" fill="white"/>
<path d="M90.0598 51.7341L89.6625 50.5113L89.0511 50.7099" fill="white"/>
<path d="M90.0598 51.7341L89.0196 50.9784L89.3975 50.4583" fill="white"/>
<path d="M88.5483 51.7341L89.5885 50.9784L89.2106 50.4583" fill="white"/>
<path d="M88.5483 51.7341L88.9456 50.5113L89.557 50.7099" fill="white"/>
<path d="M101.018 69.2449L100.621 70.4677L101.232 70.6664" fill="white"/>
<path d="M101.018 69.2449L101.416 70.4677L100.804 70.6664" fill="white"/>
<path d="M102.241 70.1333H100.955V70.7762" fill="white"/>
<path d="M102.241 70.1333L101.201 70.8891L100.823 70.369" fill="white"/>
<path d="M99.7956 70.1333L100.836 70.8891L101.214 70.369" fill="white"/>
<path d="M99.7956 70.1333H101.081V70.7762" fill="white"/>
<path d="M101.774 71.5708L101.377 70.348L100.765 70.5467" fill="white"/>
<path d="M101.774 71.5708L100.734 70.8151L101.112 70.295" fill="white"/>
<path d="M100.263 71.5708L101.303 70.8151L100.925 70.295" fill="white"/>
<path d="M100.263 71.5708L100.66 70.348L101.271 70.5467" fill="white"/>
<path d="M105.182 69.9592L104.917 70.7744L105.324 70.9069" fill="white"/>
<path d="M105.182 69.9592L105.446 70.7744L105.039 70.9069" fill="white"/>
<path d="M105.997 70.5515H105.14V70.9801" fill="white"/>
<path d="M105.997 70.5515L105.303 71.0553L105.051 70.7086" fill="white"/>
<path d="M104.366 70.5515L105.06 71.0553L105.312 70.7086" fill="white"/>
<path d="M104.366 70.5515H105.224V70.9801" fill="white"/>
<path d="M105.685 71.5098L105.421 70.6946L105.013 70.8271" fill="white"/>
<path d="M105.685 71.5098L104.992 71.006L105.244 70.6593" fill="white"/>
<path d="M104.678 71.5098L105.371 71.006L105.119 70.6593" fill="white"/>
<path d="M104.678 71.5098L104.943 70.6946L105.35 70.8271" fill="white"/>
<path d="M102.243 72.1123L101.912 73.1313L102.421 73.2968" fill="white"/>
<path d="M102.243 72.1123L102.574 73.1313L102.064 73.2968" fill="white"/>
<path d="M103.262 72.8526H102.19V73.3883" fill="white"/>
<path d="M103.262 72.8526L102.395 73.4824L102.08 73.049" fill="white"/>
<path d="M101.224 72.8526L102.091 73.4824L102.406 73.049" fill="white"/>
<path d="M101.224 72.8526H102.295V73.3883" fill="white"/>
<path d="M102.873 74.0505L102.542 73.0315L102.032 73.1971" fill="white"/>
<path d="M102.873 74.0505L102.006 73.4207L102.321 72.9873" fill="white"/>
<path d="M101.613 74.0505L102.48 73.4207L102.165 72.9873" fill="white"/>
<path d="M101.613 74.0505L101.944 73.0315L102.454 73.1971" fill="white"/>
<path d="M95.0184 78.398L94.6873 79.417L95.1968 79.5825" fill="white"/>
<path d="M95.0184 78.398L95.3494 79.417L94.84 79.5825" fill="white"/>
<path d="M96.0373 79.1383H94.9659V79.6741" fill="white"/>
<path d="M96.0373 79.1383L95.1705 79.7681L94.8557 79.3347" fill="white"/>
<path d="M93.9994 79.1383L94.8662 79.7681L95.1811 79.3347" fill="white"/>
<path d="M93.9994 79.1383H95.0708V79.6741" fill="white"/>
<path d="M95.6481 80.3362L95.317 79.3172L94.8075 79.4828" fill="white"/>
<path d="M95.6481 80.3362L94.7813 79.7065L95.0962 79.2731" fill="white"/>
<path d="M94.3886 80.3362L95.2554 79.7065L94.9405 79.2731" fill="white"/>
<path d="M94.3886 80.3362L94.7197 79.3172L95.2292 79.4828" fill="white"/>
<path d="M94.9775 81.6327L94.7127 82.4479L95.1203 82.5803" fill="white"/>
<path d="M94.9775 81.6327L95.2424 82.4479L94.8348 82.5803" fill="white"/>
<path d="M95.7927 82.225H94.9356V82.6535" fill="white"/>
<path d="M95.7927 82.225L95.0993 82.7288L94.8474 82.3821" fill="white"/>
<path d="M94.1623 82.225L94.8558 82.7288L95.1077 82.3821" fill="white"/>
<path d="M94.1623 82.225H95.0195V82.6535" fill="white"/>
<path d="M95.4813 83.1833L95.2165 82.3681L94.8089 82.5005" fill="white"/>
<path d="M95.4813 83.1833L94.7879 82.6795L95.0398 82.3327" fill="white"/>
<path d="M94.4737 83.1833L95.1672 82.6795L94.9153 82.3327" fill="white"/>
<path d="M94.4737 83.1833L94.7386 82.3681L95.1462 82.5005" fill="white"/>
<path d="M97.9979 76.2449L97.7331 77.0601L98.1407 77.1926" fill="white"/>
<path d="M97.9979 76.2449L98.2628 77.0601L97.8552 77.1926" fill="white"/>
<path d="M98.8131 76.8372H97.956V77.2658" fill="white"/>
<path d="M98.8131 76.8372L98.1197 77.341L97.8678 76.9943" fill="white"/>
<path d="M97.1828 76.8372L97.8762 77.341L98.1281 76.9943" fill="white"/>
<path d="M97.1828 76.8372H98.0399V77.2658" fill="white"/>
<path d="M98.5018 77.7955L98.2369 76.9803L97.8293 77.1128" fill="white"/>
<path d="M98.5018 77.7955L97.8083 77.2917L98.0602 76.945" fill="white"/>
<path d="M97.4941 77.7955L98.1876 77.2917L97.9357 76.945" fill="white"/>
<path d="M97.4941 77.7955L97.759 76.9803L98.1666 77.1128" fill="white"/>
<path d="M100.406 74.5204L100.075 75.5394L100.585 75.705" fill="white"/>
<path d="M100.406 74.5204L100.737 75.5394L100.228 75.705" fill="white"/>
<path d="M101.425 75.2608H100.354V75.7965" fill="white"/>
<path d="M101.425 75.2608L100.558 75.8906L100.243 75.4572" fill="white"/>
<path d="M99.3871 75.2608L100.254 75.8906L100.569 75.4572" fill="white"/>
<path d="M99.3871 75.2608H100.459V75.7965" fill="white"/>
<path d="M101.036 76.4587L100.705 75.4397L100.195 75.6052" fill="white"/>
<path d="M101.036 76.4587L100.169 75.8289L100.484 75.3955" fill="white"/>
<path d="M99.7763 76.4587L100.643 75.8289L100.328 75.3955" fill="white"/>
<path d="M99.7763 76.4587L100.107 75.4397L100.617 75.6052" fill="white"/>
<path d="M94.8959 75.6735L94.631 76.4887L95.0386 76.6211" fill="white"/>
<path d="M94.8959 75.6735L95.1608 76.4887L94.7532 76.6211" fill="white"/>
<path d="M95.7111 76.2658H94.854V76.6944" fill="white"/>
<path d="M95.7111 76.2658L95.0177 76.7696L94.7657 76.4229" fill="white"/>
<path d="M94.0807 76.2658L94.7742 76.7696L95.0261 76.4229" fill="white"/>
<path d="M94.0807 76.2658H94.9379V76.6944" fill="white"/>
<path d="M95.3997 77.2241L95.1348 76.4089L94.7272 76.5413" fill="white"/>
<path d="M95.3997 77.2241L94.7063 76.7203L94.9582 76.3736" fill="white"/>
<path d="M94.3921 77.2241L95.0855 76.7203L94.8336 76.3736" fill="white"/>
<path d="M94.3921 77.2241L94.657 76.4089L95.0646 76.5413" fill="white"/>
<path d="M68.5694 60.1531L68.2383 61.1721L68.7478 61.3376" fill="white"/>
<path d="M68.5694 60.1531L68.9005 61.1721L68.391 61.3376" fill="white"/>
<path d="M69.5884 60.8934H68.5169V61.4292" fill="white"/>
<path d="M69.5884 60.8934L68.7216 61.5232L68.4067 61.0898" fill="white"/>
<path d="M67.5504 60.8934L68.4172 61.5232L68.7321 61.0898" fill="white"/>
<path d="M67.5504 60.8934H68.6218V61.4292" fill="white"/>
<path d="M69.1991 62.0913L68.8681 61.0723L68.3586 61.2379" fill="white"/>
<path d="M69.1991 62.0913L68.3323 61.4616L68.6472 61.0282" fill="white"/>
<path d="M67.9396 62.0913L68.8064 61.4616L68.4915 61.0282" fill="white"/>
<path d="M67.9396 62.0913L68.2707 61.0723L68.7802 61.2379" fill="white"/>
<path d="M88.1612 57.6327L87.8963 58.4479L88.3039 58.5803" fill="white"/>
<path d="M88.1612 57.6327L88.4261 58.4479L88.0185 58.5803" fill="white"/>
<path d="M88.9764 58.225H88.1193V58.6535" fill="white"/>
<path d="M88.9764 58.225L88.283 58.7288L88.0311 58.3821" fill="white"/>
<path d="M87.346 58.225L88.0395 58.7288L88.2914 58.3821" fill="white"/>
<path d="M87.346 58.225H88.2032V58.6535" fill="white"/>
<path d="M88.665 59.1833L88.4002 58.3681L87.9926 58.5005" fill="white"/>
<path d="M88.665 59.1833L87.9716 58.6795L88.2235 58.3327" fill="white"/>
<path d="M87.6574 59.1833L88.3508 58.6795L88.0989 58.3327" fill="white"/>
<path d="M87.6574 59.1833L87.9223 58.3681L88.3299 58.5005" fill="white"/>
<path d="M79.9979 72.1837L79.6006 73.4065L80.212 73.6052" fill="white"/>
<path d="M79.9979 72.1837L80.3953 73.4065L79.7839 73.6052" fill="white"/>
<path d="M81.2207 73.0721H79.935V73.715" fill="white"/>
<path d="M81.2207 73.0721L80.1806 73.8278L79.8027 73.3078" fill="white"/>
<path d="M78.7752 73.0721L79.8153 73.8278L80.1932 73.3078" fill="white"/>
<path d="M78.7752 73.0721H80.0609V73.715" fill="white"/>
<path d="M80.7537 74.5096L80.3564 73.2868L79.745 73.4855" fill="white"/>
<path d="M80.7537 74.5096L79.7135 73.7539L80.0914 73.2338" fill="white"/>
<path d="M79.2422 74.5096L80.2824 73.7539L79.9045 73.2338" fill="white"/>
<path d="M79.2422 74.5096L79.6395 73.2868L80.2509 73.4855" fill="white"/>
<path d="M83.4673 66.4388L83.1362 67.4578L83.6457 67.6234" fill="white"/>
<path d="M83.4673 66.4388L83.7984 67.4578L83.2889 67.6234" fill="white"/>
<path d="M84.4863 67.1792H83.4149V67.7149" fill="white"/>
<path d="M84.4863 67.1792L83.6195 67.8089L83.3046 67.3755" fill="white"/>
<path d="M82.4483 67.1792L83.3151 67.8089L83.63 67.3755" fill="white"/>
<path d="M82.4483 67.1792H83.5198V67.7149" fill="white"/>
<path d="M84.0971 68.3771L83.766 67.3581L83.2565 67.5236" fill="white"/>
<path d="M84.0971 68.3771L83.2303 67.7473L83.5452 67.3139" fill="white"/>
<path d="M82.8376 68.3771L83.7044 67.7473L83.3895 67.3139" fill="white"/>
<path d="M82.8376 68.3771L83.1686 67.3581L83.6781 67.5236" fill="white"/>
<path d="M79.9979 63.7449L79.6669 64.7639L80.1763 64.9295" fill="white"/>
<path d="M79.9979 63.7449L80.329 64.7639L79.8195 64.9295" fill="white"/>
<path d="M81.0169 64.4853H79.9455V65.021" fill="white"/>
<path d="M81.0169 64.4853L80.1501 65.115L79.8352 64.6816" fill="white"/>
<path d="M78.979 64.4853L79.8458 65.115L80.1606 64.6816" fill="white"/>
<path d="M78.979 64.4853H80.0504V65.021" fill="white"/>
<path d="M80.6277 65.6832L80.2966 64.6642L79.7871 64.8297" fill="white"/>
<path d="M80.6277 65.6832L79.7609 65.0534L80.0758 64.62" fill="white"/>
<path d="M79.3682 65.6832L80.235 65.0534L79.9201 64.62" fill="white"/>
<path d="M79.3682 65.6832L79.6993 64.6642L80.2088 64.8297" fill="white"/>
<path d="M76.9775 66.6531L76.7127 67.4683L77.1203 67.6007" fill="white"/>
<path d="M76.9775 66.6531L77.2424 67.4683L76.8348 67.6007" fill="white"/>
<path d="M77.7927 67.2454H76.9356V67.6739" fill="white"/>
<path d="M77.7927 67.2454L77.0993 67.7492L76.8474 67.4025" fill="white"/>
<path d="M76.1623 67.2454L76.8558 67.7492L77.1077 67.4025" fill="white"/>
<path d="M76.1623 67.2454H77.0195V67.6739" fill="white"/>
<path d="M77.4814 68.2037L77.2165 67.3885L76.8089 67.5209" fill="white"/>
<path d="M77.4814 68.2037L76.7879 67.6999L77.0398 67.3531" fill="white"/>
<path d="M76.4737 68.2037L77.1672 67.6999L76.9153 67.3531" fill="white"/>
<path d="M76.4737 68.2037L76.7386 67.3885L77.1462 67.5209" fill="white"/>
<path d="M78.4877 68.9796L78.2985 69.5619L78.5897 69.6565" fill="white"/>
<path d="M78.4877 68.9796L78.6769 69.5619L78.3858 69.6565" fill="white"/>
<path d="M79.07 69.4027H78.4578V69.7088" fill="white"/>
<path d="M79.07 69.4027L78.5747 69.7626L78.3948 69.5149" fill="white"/>
<path d="M77.9055 69.4027L78.4008 69.7626L78.5807 69.5149" fill="white"/>
<path d="M77.9055 69.4027H78.5177V69.7088" fill="white"/>
<path d="M78.8476 70.0872L78.6584 69.5049L78.3673 69.5995" fill="white"/>
<path d="M78.8476 70.0872L78.3523 69.7273L78.5322 69.4797" fill="white"/>
<path d="M78.1279 70.0872L78.6232 69.7273L78.4433 69.4797" fill="white"/>
<path d="M78.1279 70.0872L78.3171 69.5049L78.6082 69.5995" fill="white"/>
<path d="M88.9775 79.1327L88.6464 80.1517L89.1559 80.3172" fill="white"/>
<path d="M88.9775 79.1327L89.3086 80.1517L88.7991 80.3172" fill="white"/>
<path d="M89.9965 79.873H88.9251V80.4087" fill="white"/>
<path d="M89.9965 79.873L89.1297 80.5028L88.8148 80.0694" fill="white"/>
<path d="M87.9585 79.873L88.8253 80.5028L89.1402 80.0694" fill="white"/>
<path d="M87.9585 79.873H89.03V80.4087" fill="white"/>
<path d="M89.6073 81.0709L89.2762 80.0519L88.7667 80.2175" fill="white"/>
<path d="M89.6073 81.0709L88.7405 80.4412L89.0554 80.0078" fill="white"/>
<path d="M88.3478 81.0709L89.2146 80.4412L88.8997 80.0078" fill="white"/>
<path d="M88.3478 81.0709L88.6789 80.0519L89.1883 80.2175" fill="white"/>
<path d="M91.549 76.6939L91.2841 77.5091L91.6917 77.6415" fill="white"/>
<path d="M91.549 76.6939L91.8138 77.5091L91.4062 77.6415" fill="white"/>
<path d="M92.3642 77.2862H91.507V77.7148" fill="white"/>
<path d="M92.3642 77.2862L91.6707 77.79L91.4188 77.4433" fill="white"/>
<path d="M90.7338 77.2862L91.4272 77.79L91.6791 77.4433" fill="white"/>
<path d="M90.7338 77.2862H91.5909V77.7148" fill="white"/>
<path d="M92.0528 78.2445L91.7879 77.4293L91.3803 77.5617" fill="white"/>
<path d="M92.0528 78.2445L91.3593 77.7407L91.6112 77.394" fill="white"/>
<path d="M91.0451 78.2445L91.7386 77.7407L91.4867 77.394" fill="white"/>
<path d="M91.0451 78.2445L91.31 77.4293L91.7176 77.5617" fill="white"/>
<path d="M86.6102 75.9592L86.3453 76.7744L86.7529 76.9069" fill="white"/>
<path d="M86.6102 75.9592L86.8751 76.7744L86.4675 76.9069" fill="white"/>
<path d="M87.4254 76.5515H86.5682V76.9801" fill="white"/>
<path d="M87.4254 76.5515L86.7319 77.0553L86.48 76.7086" fill="white"/>
<path d="M85.795 76.5515L86.4884 77.0553L86.7403 76.7086" fill="white"/>
<path d="M85.795 76.5515H86.6521V76.9801" fill="white"/>
<path d="M87.114 77.5098L86.8491 76.6946L86.4415 76.8271" fill="white"/>
<path d="M87.114 77.5098L86.4206 77.006L86.6725 76.6593" fill="white"/>
<path d="M86.1064 77.5098L86.7998 77.006L86.5479 76.6593" fill="white"/>
<path d="M86.1064 77.5098L86.3712 76.6946L86.7788 76.8271" fill="white"/>
<path d="M67.9571 74.6327L67.5598 75.8555L68.1712 76.0541" fill="white"/>
<path d="M67.9571 74.6327L68.3544 75.8555L67.743 76.0541" fill="white"/>
<path d="M69.1799 75.5211H67.8942V76.164" fill="white"/>
<path d="M69.1799 75.5211L68.1397 76.2768L67.7619 75.7567" fill="white"/>
<path d="M66.7343 75.5211L67.7745 76.2768L68.1524 75.7567" fill="white"/>
<path d="M66.7343 75.5211H68.0201V76.164" fill="white"/>
<path d="M68.7128 76.9586L68.3155 75.7358L67.7041 75.9344" fill="white"/>
<path d="M68.7128 76.9586L67.6727 76.2028L68.0505 75.6828" fill="white"/>
<path d="M67.2014 76.9586L68.2416 76.2028L67.8637 75.6828" fill="white"/>
<path d="M67.2014 76.9586L67.5987 75.7358L68.2101 75.9344" fill="white"/>
<path d="M79.9979 83.0409L79.8655 83.4485L80.0693 83.5147" fill="white"/>
<path d="M79.9979 83.0409L80.1304 83.4485L79.9266 83.5147" fill="white"/>
<path d="M80.4055 83.337H79.977V83.5513" fill="white"/>
<path d="M80.4055 83.337L80.0588 83.5889L79.9329 83.4155" fill="white"/>
<path d="M79.5903 83.337L79.9371 83.5889L80.063 83.4155" fill="white"/>
<path d="M79.5903 83.337H80.0189V83.5513" fill="white"/>
<path d="M80.2498 83.8162L80.1174 83.4086L79.9136 83.4748" fill="white"/>
<path d="M80.2498 83.8162L79.9031 83.5642L80.0291 83.3909" fill="white"/>
<path d="M79.746 83.8162L80.0928 83.5642L79.9668 83.3909" fill="white"/>
<path d="M79.746 83.8162L79.8785 83.4086L80.0823 83.4748" fill="white"/>
</g>
<defs>
<clipPath id="clip0_307_72370">
<rect width="160" height="120" fill="white"/>
</clipPath>
</defs>
</svg>
