<svg width="160" height="120" viewBox="0 0 160 120" fill="none" xmlns="http://www.w3.org/2000/svg">
<g clip-path="url(#clip0_909_237118)">
<path d="M0 0H160V120H0V0Z" fill="#1E9A1C"/>
<path d="M8.85461 59.9999L79.9975 105.428L151.14 59.9999L79.9975 14.5713L8.85461 59.9999Z" fill="#FDD406"/>
<path d="M79.9972 90C96.5657 90 109.997 76.5685 109.997 60C109.997 43.4315 96.5657 30 79.9972 30C63.4287 30 49.9972 43.4315 49.9972 60C49.9972 76.5685 63.4287 90 79.9972 90Z" fill="#0F3296"/>
<path d="M50.9503 52.4692C54.8544 51.781 58.8363 51.4283 62.8545 51.4283C79.7963 51.4283 96.0917 57.6979 108.639 68.9522C109.118 67.4186 109.477 65.832 109.705 64.2036C96.6334 53.2268 80.0576 47.1426 62.8545 47.1426C59.3858 47.1426 55.9426 47.3899 52.5485 47.8749C51.8969 49.3478 51.3603 50.8831 50.9503 52.4692Z" fill="white"/>
<path d="M63.9872 50.7114L66.557 50.8011L66.5755 50.2708L64.4952 50.1982L64.5208 49.4639L66.1525 49.5209L66.1696 49.0314L64.5379 48.9744L64.5579 48.4033L66.5158 48.4717L66.5344 47.9414L64.0869 47.856L63.9872 50.7114Z" fill="#1E9A1C"/>
<path fill-rule="evenodd" clip-rule="evenodd" d="M61.7061 50.7235L60.3594 50.747L60.3095 47.8903L61.6563 47.8668C61.817 47.864 61.9768 47.8929 62.1264 47.9518C62.276 48.0107 62.4126 48.0986 62.5282 48.2103C62.6439 48.322 62.7364 48.4554 62.8006 48.6028C62.8647 48.7503 62.8991 48.909 62.9019 49.0697L62.9091 49.4778C62.9119 49.6386 62.883 49.7984 62.824 49.948C62.7651 50.0976 62.6773 50.2341 62.5656 50.3498C62.4539 50.4655 62.3205 50.558 62.173 50.6221C62.0256 50.6863 61.8669 50.7207 61.7061 50.7235ZM61.6561 50.1937L60.8807 50.2072L60.8493 48.4116L61.6247 48.398C61.8304 48.3945 62.029 48.4727 62.177 48.6156C62.3249 48.7585 62.4101 48.9543 62.4136 49.1599L62.4179 49.4048C62.4215 49.6104 62.3433 49.8091 62.2004 49.957C62.0575 50.105 61.8617 50.1901 61.6561 50.1937Z" fill="#1E9A1C"/>
<path fill-rule="evenodd" clip-rule="evenodd" d="M57.2676 50.9355L56.7383 50.9725L56.5797 48.1195L58.2084 48.0056C58.446 47.989 58.6804 48.0674 58.8602 48.2236C59.0399 48.3799 59.1502 48.6011 59.1668 48.8387C59.1834 49.0763 59.105 49.3107 58.9488 49.4905C58.9008 49.5456 58.8467 49.5942 58.7879 49.6356C59.0958 49.8704 59.1388 50.4854 59.161 50.8031L58.6724 50.8372C58.6533 50.5649 58.619 50.0739 58.3302 49.7974L57.1936 49.8768L57.2676 50.9355ZM58.256 49.2706L57.1566 49.3475L57.1054 48.6146L58.2047 48.5377C58.3019 48.5309 58.3978 48.563 58.4713 48.6269C58.5449 48.6909 58.59 48.7814 58.5968 48.8786C58.6036 48.9757 58.5715 49.0717 58.5076 49.1452C58.4437 49.2187 58.3531 49.2638 58.256 49.2706Z" fill="#1E9A1C"/>
<path fill-rule="evenodd" clip-rule="evenodd" d="M55.2618 50.7044C55.0551 50.9997 54.7489 51.1889 54.4104 51.2305C54.072 51.272 53.729 51.1625 53.4571 50.926C53.1851 50.6894 53.0064 50.3453 52.9602 49.9692C52.914 49.5932 53.0042 49.216 53.2109 48.9207C53.4175 48.6254 53.7238 48.4362 54.0622 48.3946C54.4007 48.3531 54.7436 48.4626 55.0156 48.6991C55.2875 48.9357 55.4663 49.2798 55.5125 49.6559C55.5586 50.0319 55.4685 50.4091 55.2618 50.7044ZM54.8437 50.3777C54.7236 50.5621 54.5445 50.6794 54.3458 50.7038C54.147 50.7282 53.9448 50.6577 53.7837 50.5078C53.6227 50.358 53.5159 50.141 53.4868 49.9046C53.4578 49.6682 53.509 49.4318 53.629 49.2474C53.749 49.063 53.9281 48.9457 54.1269 48.9213C54.3257 48.8969 54.5278 48.9674 54.6889 49.1173C54.85 49.2671 54.9568 49.4841 54.9858 49.7205C55.0148 49.9569 54.9637 50.1933 54.8437 50.3777Z" fill="#1E9A1C"/>
<path d="M68.1002 50.9083L67.6123 50.8656L67.8613 48.0193L68.5729 48.0816L68.9714 50.0831L69.7114 48.1812L70.4229 48.2435L70.1739 51.0897L69.686 51.047L69.8567 49.0953L69.1167 50.9972L68.6695 50.9581L68.271 48.9566L68.1002 50.9083Z" fill="#1E9A1C"/>
<path d="M73.5318 51.5333L75.6437 51.8962L75.7266 51.4135L74.0974 51.1336L74.208 50.4899L75.5355 50.718L75.6185 50.2353L74.291 50.0072L74.367 49.5647L75.9459 49.836L76.0289 49.3533L73.9672 48.9991L73.5318 51.5333Z" fill="#1E9A1C"/>
<path fill-rule="evenodd" clip-rule="evenodd" d="M79.4711 52.7319L78.9574 52.599L79.7123 49.8431L81.293 50.2519C81.5235 50.3115 81.721 50.4603 81.8419 50.6655C81.9627 50.8707 81.9971 51.1155 81.9375 51.3461C81.8779 51.5766 81.7291 51.7741 81.5239 51.895C81.3187 52.0158 81.0739 52.0502 80.8433 51.9906L79.7369 51.7045L79.4711 52.7319ZM80.9367 51.4667L79.8697 51.1907L80.0537 50.4795L81.1206 50.7554C81.2149 50.7798 81.2957 50.8406 81.3451 50.9246C81.3946 51.0085 81.4087 51.1087 81.3843 51.203C81.3599 51.2973 81.299 51.3781 81.2151 51.4275C81.1311 51.477 81.031 51.4911 80.9367 51.4667Z" fill="#1E9A1C"/>
<path fill-rule="evenodd" clip-rule="evenodd" d="M82.4626 53.5342L82.9686 53.6937L83.2877 52.6816L84.3744 53.0242C84.5417 53.3873 84.3937 53.8568 84.3116 54.1172L84.7787 54.2644C84.8745 53.9608 85.0599 53.3728 84.8595 53.0415C84.9294 53.0245 84.9975 52.9991 85.0624 52.9654C85.2736 52.8554 85.4325 52.666 85.5041 52.4389C85.5757 52.2118 85.5542 51.9655 85.4442 51.7542C85.3343 51.543 85.1449 51.3841 84.9178 51.3125L83.3607 50.8215L82.4626 53.5342ZM83.4473 52.1756L84.4983 52.5069C84.5913 52.5362 84.692 52.5274 84.7784 52.4824C84.8648 52.4375 84.9299 52.36 84.9591 52.2671C84.9884 52.1741 84.9796 52.0734 84.9346 51.987C84.8897 51.9006 84.8122 51.8355 84.7193 51.8063L83.6682 51.4749L83.4473 52.1756Z" fill="#1E9A1C"/>
<path fill-rule="evenodd" clip-rule="evenodd" d="M87.1187 55.1017C87.4381 55.2211 87.7971 55.1947 88.1168 55.0282C88.4365 54.8617 88.6906 54.5688 88.8233 54.2139C88.956 53.859 88.9563 53.4712 88.8243 53.1358C88.6923 52.8004 88.4387 52.5449 88.1193 52.4255C87.7999 52.3061 87.4409 52.3326 87.1212 52.4991C86.8015 52.6656 86.5474 52.9585 86.4147 53.3134C86.282 53.6682 86.2816 54.056 86.4137 54.3914C86.5457 54.7268 86.7993 54.9823 87.1187 55.1017ZM87.3045 54.6047C87.4921 54.6748 87.7051 54.6535 87.8968 54.5454C88.0884 54.4372 88.2429 54.2511 88.3263 54.0281C88.4097 53.805 88.4151 53.5632 88.3415 53.3559C88.2678 53.1485 88.121 52.9927 87.9335 52.9225C87.7459 52.8524 87.5329 52.8737 87.3412 52.9819C87.1496 53.09 86.9951 53.2761 86.9117 53.4992C86.8283 53.7222 86.8228 53.964 86.8965 54.1714C86.9702 54.3787 87.1169 54.5346 87.3045 54.6047Z" fill="#1E9A1C"/>
<path d="M92.2877 54.5866C92.1734 54.2448 91.9335 53.9764 91.6208 53.8404C91.3081 53.7044 90.9481 53.7121 90.6202 53.8616C90.2922 54.0111 90.0231 54.2904 89.8721 54.6378C89.721 54.9853 89.7003 55.3725 89.8146 55.7143C89.9289 56.0562 90.1688 56.3246 90.4815 56.4606C90.7809 56.5908 91.1235 56.5893 91.44 56.4577L91.2866 56.8105L91.6609 56.9733L92.2306 55.6632L91.2386 55.2319L91.0758 55.6062L91.5053 55.7929C91.4395 55.8549 91.3662 55.9066 91.2876 55.9457C91.0906 56.0437 90.8767 56.0538 90.6931 55.974C90.5094 55.8941 90.371 55.7308 90.3083 55.5199C90.2456 55.309 90.2637 55.0678 90.3587 54.8494C90.4536 54.631 90.6176 54.4533 90.8147 54.3553C91.0117 54.2573 91.2255 54.2472 91.4092 54.327C91.5928 54.4069 91.7313 54.5702 91.794 54.7811C91.8105 54.8368 91.8215 54.8947 91.8268 54.9537L92.354 55.1829C92.3729 54.9799 92.3511 54.7763 92.2877 54.5866Z" fill="#1E9A1C"/>
<path fill-rule="evenodd" clip-rule="evenodd" d="M92.6187 57.4199L93.0935 57.6566L93.567 56.7069L94.5867 57.2153C94.6952 57.6001 94.4756 58.0406 94.3537 58.285L94.7921 58.5035C94.9342 58.2185 95.2092 57.6668 95.0632 57.3083C95.1348 57.3024 95.2061 57.288 95.2754 57.2648C95.5013 57.1892 95.6878 57.027 95.7941 56.8139C95.9004 56.6008 95.9176 56.3542 95.842 56.1283C95.7665 55.9025 95.6043 55.7159 95.3912 55.6096L93.93 54.8811L92.6187 57.4199ZM93.8038 56.2321L94.7901 56.7238C94.8772 56.7673 94.9781 56.7743 95.0705 56.7434C95.1629 56.7125 95.2392 56.6461 95.2827 56.5589C95.3262 56.4718 95.3332 56.3709 95.3023 56.2785C95.2714 56.1861 95.2051 56.1098 95.1179 56.0663L94.1316 55.5746L93.8038 56.2321Z" fill="#1E9A1C"/>
<path d="M95.8533 59.0634L98.0913 60.3296L98.3526 59.8678L96.5409 58.8428L96.9026 58.2033L98.3236 59.0073L98.5648 58.581L97.1438 57.777L97.4252 57.2797L99.1304 58.2444L99.3917 57.7826L97.2602 56.5767L95.8533 59.0634Z" fill="#1E9A1C"/>
<path d="M100.368 61.1908C100.024 60.9715 99.868 60.703 100.022 60.462L99.4794 60.1166C99.0939 60.7179 99.6854 61.3126 100.081 61.5648C100.546 61.8608 101.242 62.1351 101.643 61.5068C101.964 61.0029 101.475 60.5335 101.078 60.1516C100.803 59.8879 100.572 59.6658 100.681 59.5029C100.84 59.2533 101.057 59.3309 101.324 59.5008C101.599 59.6763 101.78 59.9245 101.615 60.1826L102.14 60.5171C102.527 59.9288 102.029 59.4182 101.72 59.2209L101.68 59.1954C101.345 58.9797 100.569 58.4812 100.108 59.1864C99.7908 59.6739 100.241 60.116 100.63 60.4969C100.923 60.7841 101.18 61.0366 101.046 61.2475C100.947 61.4022 100.712 61.4101 100.368 61.1908Z" fill="#1E9A1C"/>
<path d="M103.087 62.4888C102.921 62.7214 103.062 62.9977 103.394 63.2347C103.727 63.4718 103.961 63.4761 104.068 63.3268C104.213 63.1232 103.97 62.8576 103.692 62.5554C103.324 62.1547 102.897 61.6897 103.24 61.2195C103.737 60.5394 104.485 61.0778 104.809 61.3108L104.847 61.3382C105.146 61.5516 105.617 62.0874 105.199 62.6547L104.693 62.2932C104.87 62.044 104.703 61.7867 104.437 61.5971C104.18 61.4134 103.967 61.3246 103.795 61.5655C103.678 61.7225 103.897 61.9564 104.158 62.2341C104.535 62.6363 104.998 63.1306 104.651 63.6171C104.218 64.2235 103.537 63.9131 103.089 63.5932C102.706 63.3206 102.147 62.6958 102.563 62.1155L103.087 62.4888Z" fill="#1E9A1C"/>
<path fill-rule="evenodd" clip-rule="evenodd" d="M106.957 66.0147C106.602 66.0742 106.252 65.9884 105.985 65.7762C105.719 65.5639 105.556 65.2425 105.534 64.8828C105.512 64.523 105.633 64.1543 105.868 63.8578C106.104 63.5613 106.437 63.3612 106.792 63.3017C107.147 63.2421 107.497 63.3279 107.764 63.5402C108.031 63.7524 108.193 64.0738 108.215 64.4336C108.237 64.7933 108.117 65.162 107.881 65.4585C107.645 65.7551 107.313 65.9551 106.957 66.0147ZM106.897 65.4875C106.682 65.5311 106.472 65.4856 106.316 65.3609C106.159 65.2362 106.068 65.0426 106.062 64.8227C106.056 64.6028 106.135 64.3745 106.284 64.1881C106.432 64.0017 106.636 63.8725 106.852 63.8289C107.068 63.7852 107.277 63.8307 107.434 63.9554C107.59 64.0801 107.682 64.2737 107.688 64.4936C107.694 64.7136 107.614 64.9418 107.466 65.1282C107.317 65.3146 107.113 65.4438 106.897 65.4875Z" fill="#1E9A1C"/>
<path d="M55.5073 53.3266L55.11 54.5494L55.7214 54.748" fill="white"/>
<path d="M55.5073 53.3266L55.9046 54.5494L55.2932 54.748" fill="white"/>
<path d="M56.7301 54.215H55.4444V54.8578" fill="white"/>
<path d="M56.7301 54.215L55.6899 54.9707L55.3121 54.4506" fill="white"/>
<path d="M54.2845 54.215L55.3247 54.9707L55.7025 54.4506" fill="white"/>
<path d="M54.2845 54.215H55.5702V54.8578" fill="white"/>
<path d="M56.263 55.6524L55.8657 54.4297L55.2543 54.6283" fill="white"/>
<path d="M56.263 55.6524L55.2229 54.8967L55.6007 54.3766" fill="white"/>
<path d="M54.7516 55.6524L55.7917 54.8967L55.4139 54.3766" fill="white"/>
<path d="M54.7516 55.6524L55.1489 54.4297L55.7603 54.6283" fill="white"/>
<path d="M58.1604 65.9388L57.763 67.1616L58.3744 67.3603" fill="white"/>
<path d="M58.1604 65.9388L58.5577 67.1616L57.9463 67.3603" fill="white"/>
<path d="M59.3831 66.8272H58.0974V67.4701" fill="white"/>
<path d="M59.3831 66.8272L58.343 67.5829L57.9651 67.0629" fill="white"/>
<path d="M56.9376 66.8272L57.9777 67.5829L58.3556 67.0629" fill="white"/>
<path d="M56.9376 66.8272H58.2233V67.4701" fill="white"/>
<path d="M58.9161 68.2647L58.5188 67.0419L57.9074 67.2406" fill="white"/>
<path d="M58.9161 68.2647L57.8759 67.509L58.2538 66.9889" fill="white"/>
<path d="M57.4046 68.2647L58.4448 67.509L58.0669 66.9889" fill="white"/>
<path d="M57.4046 68.2647L57.8019 67.0419L58.4133 67.2406" fill="white"/>
<path d="M54.4869 68.847L54.1558 69.866L54.6653 70.0315" fill="white"/>
<path d="M54.4869 68.847L54.818 69.866L54.3085 70.0315" fill="white"/>
<path d="M55.5059 69.5873H54.4344V70.123" fill="white"/>
<path d="M55.5059 69.5873L54.6391 70.2171L54.3242 69.7837" fill="white"/>
<path d="M53.4679 69.5873L54.3347 70.2171L54.6496 69.7837" fill="white"/>
<path d="M53.4679 69.5873H54.5393V70.123" fill="white"/>
<path d="M55.1167 70.7852L54.7856 69.7662L54.2761 69.9318" fill="white"/>
<path d="M55.1167 70.7852L54.2499 70.1554L54.5647 69.722" fill="white"/>
<path d="M53.8571 70.7852L54.7239 70.1554L54.409 69.722" fill="white"/>
<path d="M53.8571 70.7852L54.1882 69.7662L54.6977 69.9318" fill="white"/>
<path d="M61.0991 64.7756L60.9099 65.3578L61.2011 65.4524" fill="white"/>
<path d="M61.0991 64.7756L61.2883 65.3578L60.9972 65.4524" fill="white"/>
<path d="M61.6814 65.1986H61.0692V65.5047" fill="white"/>
<path d="M61.6814 65.1986L61.1861 65.5585L61.0062 65.3108" fill="white"/>
<path d="M60.5168 65.1986L61.0122 65.5585L61.1921 65.3108" fill="white"/>
<path d="M60.5168 65.1986H61.1291V65.5047" fill="white"/>
<path d="M61.459 65.8831L61.2698 65.3008L60.9787 65.3954" fill="white"/>
<path d="M61.459 65.8831L60.9637 65.5232L61.1436 65.2756" fill="white"/>
<path d="M60.7393 65.8831L61.2346 65.5232L61.0546 65.2756" fill="white"/>
<path d="M60.7393 65.8831L60.9285 65.3008L61.2196 65.3954" fill="white"/>
<path d="M64.4052 69.1327L64.0742 70.1517L64.5837 70.3172" fill="white"/>
<path d="M64.4052 69.1327L64.7363 70.1517L64.2268 70.3172" fill="white"/>
<path d="M65.4242 69.873H64.3528V70.4087" fill="white"/>
<path d="M65.4242 69.873L64.5574 70.5028L64.2425 70.0694" fill="white"/>
<path d="M63.3863 69.873L64.2531 70.5028L64.5679 70.0694" fill="white"/>
<path d="M63.3863 69.873H64.4577V70.4087" fill="white"/>
<path d="M65.035 71.0709L64.7039 70.0519L64.1944 70.2175" fill="white"/>
<path d="M65.035 71.0709L64.1682 70.4412L64.4831 70.0078" fill="white"/>
<path d="M63.7755 71.0709L64.6423 70.4412L64.3274 70.0078" fill="white"/>
<path d="M63.7755 71.0709L64.1066 70.0519L64.6161 70.2175" fill="white"/>
<path d="M63.5073 72.3266L63.2424 73.1418L63.65 73.2742" fill="white"/>
<path d="M63.5073 72.3266L63.7722 73.1418L63.3646 73.2742" fill="white"/>
<path d="M64.3225 72.9188H63.4653V73.3474" fill="white"/>
<path d="M64.3225 72.9188L63.629 73.4227L63.3771 73.0759" fill="white"/>
<path d="M62.6921 72.9188L63.3855 73.4227L63.6374 73.0759" fill="white"/>
<path d="M62.6921 72.9188H63.5492V73.3474" fill="white"/>
<path d="M64.0111 73.8772L63.7462 73.062L63.3386 73.1944" fill="white"/>
<path d="M64.0111 73.8772L63.3177 73.3733L63.5696 73.0266" fill="white"/>
<path d="M63.0035 73.8772L63.6969 73.3733L63.445 73.0266" fill="white"/>
<path d="M63.0035 73.8772L63.2683 73.062L63.6759 73.1944" fill="white"/>
<path d="M89.3032 49.4082L88.9059 50.631L89.5173 50.8296" fill="white"/>
<path d="M89.3032 49.4082L89.7005 50.631L89.0891 50.8296" fill="white"/>
<path d="M90.526 50.2966H89.2403V50.9395" fill="white"/>
<path d="M90.526 50.2966L89.4858 51.0523L89.108 50.5323" fill="white"/>
<path d="M88.0804 50.2966L89.1206 51.0523L89.4985 50.5323" fill="white"/>
<path d="M88.0804 50.2966H89.3661V50.9395" fill="white"/>
<path d="M90.0589 51.7341L89.6616 50.5113L89.0502 50.7099" fill="white"/>
<path d="M90.0589 51.7341L89.0188 50.9784L89.3966 50.4583" fill="white"/>
<path d="M88.5475 51.7341L89.5877 50.9784L89.2098 50.4583" fill="white"/>
<path d="M88.5475 51.7341L88.9448 50.5113L89.5562 50.7099" fill="white"/>
<path d="M101.017 69.2449L100.62 70.4677L101.232 70.6664" fill="white"/>
<path d="M101.017 69.2449L101.415 70.4677L100.803 70.6664" fill="white"/>
<path d="M102.24 70.1333H100.955V70.7762" fill="white"/>
<path d="M102.24 70.1333L101.2 70.8891L100.822 70.369" fill="white"/>
<path d="M99.7947 70.1333L100.835 70.8891L101.213 70.369" fill="white"/>
<path d="M99.7947 70.1333H101.08V70.7762" fill="white"/>
<path d="M101.773 71.5708L101.376 70.348L100.765 70.5467" fill="white"/>
<path d="M101.773 71.5708L100.733 70.8151L101.111 70.295" fill="white"/>
<path d="M100.262 71.5708L101.302 70.8151L100.924 70.295" fill="white"/>
<path d="M100.262 71.5708L100.659 70.348L101.27 70.5467" fill="white"/>
<path d="M105.181 69.9592L104.916 70.7744L105.323 70.9069" fill="white"/>
<path d="M105.181 69.9592L105.446 70.7744L105.038 70.9069" fill="white"/>
<path d="M105.996 70.5515H105.139V70.9801" fill="white"/>
<path d="M105.996 70.5515L105.303 71.0553L105.051 70.7086" fill="white"/>
<path d="M104.366 70.5515L105.059 71.0553L105.311 70.7086" fill="white"/>
<path d="M104.366 70.5515H105.223V70.9801" fill="white"/>
<path d="M105.685 71.5098L105.42 70.6946L105.012 70.8271" fill="white"/>
<path d="M105.685 71.5098L104.991 71.006L105.243 70.6593" fill="white"/>
<path d="M104.677 71.5098L105.37 71.006L105.118 70.6593" fill="white"/>
<path d="M104.677 71.5098L104.942 70.6946L105.349 70.8271" fill="white"/>
<path d="M102.242 72.1123L101.911 73.1313L102.42 73.2968" fill="white"/>
<path d="M102.242 72.1123L102.573 73.1313L102.064 73.2968" fill="white"/>
<path d="M103.261 72.8526H102.19V73.3883" fill="white"/>
<path d="M103.261 72.8526L102.394 73.4824L102.079 73.049" fill="white"/>
<path d="M101.223 72.8526L102.09 73.4824L102.405 73.049" fill="white"/>
<path d="M101.223 72.8526H102.294V73.3883" fill="white"/>
<path d="M102.872 74.0505L102.541 73.0315L102.031 73.1971" fill="white"/>
<path d="M102.872 74.0505L102.005 73.4207L102.32 72.9873" fill="white"/>
<path d="M101.612 74.0505L102.479 73.4207L102.164 72.9873" fill="white"/>
<path d="M101.612 74.0505L101.943 73.0315L102.453 73.1971" fill="white"/>
<path d="M95.0175 78.398L94.6864 79.417L95.1959 79.5825" fill="white"/>
<path d="M95.0175 78.398L95.3486 79.417L94.8391 79.5825" fill="white"/>
<path d="M96.0365 79.1383H94.9651V79.6741" fill="white"/>
<path d="M96.0365 79.1383L95.1697 79.7681L94.8548 79.3347" fill="white"/>
<path d="M93.9985 79.1383L94.8653 79.7681L95.1802 79.3347" fill="white"/>
<path d="M93.9985 79.1383H95.0699V79.6741" fill="white"/>
<path d="M95.6473 80.3362L95.3162 79.3172L94.8067 79.4828" fill="white"/>
<path d="M95.6473 80.3362L94.7805 79.7065L95.0953 79.2731" fill="white"/>
<path d="M94.3877 80.3362L95.2545 79.7065L94.9396 79.2731" fill="white"/>
<path d="M94.3877 80.3362L94.7188 79.3172L95.2283 79.4828" fill="white"/>
<path d="M94.9767 81.6327L94.7118 82.4479L95.1194 82.5803" fill="white"/>
<path d="M94.9767 81.6327L95.2416 82.4479L94.834 82.5803" fill="white"/>
<path d="M95.7919 82.225H94.9347V82.6535" fill="white"/>
<path d="M95.7919 82.225L95.0984 82.7288L94.8465 82.3821" fill="white"/>
<path d="M94.1615 82.225L94.8549 82.7288L95.1068 82.3821" fill="white"/>
<path d="M94.1615 82.225H95.0186V82.6535" fill="white"/>
<path d="M95.4805 83.1833L95.2156 82.3681L94.808 82.5005" fill="white"/>
<path d="M95.4805 83.1833L94.7871 82.6795L95.039 82.3327" fill="white"/>
<path d="M94.4729 83.1833L95.1663 82.6795L94.9144 82.3327" fill="white"/>
<path d="M94.4729 83.1833L94.7377 82.3681L95.1453 82.5005" fill="white"/>
<path d="M97.9971 76.2449L97.7322 77.0601L98.1398 77.1926" fill="white"/>
<path d="M97.9971 76.2449L98.262 77.0601L97.8544 77.1926" fill="white"/>
<path d="M98.8123 76.8372H97.9551V77.2658" fill="white"/>
<path d="M98.8123 76.8372L98.1188 77.341L97.8669 76.9943" fill="white"/>
<path d="M97.1819 76.8372L97.8753 77.341L98.1273 76.9943" fill="white"/>
<path d="M97.1819 76.8372H98.039V77.2658" fill="white"/>
<path d="M98.5009 77.7955L98.236 76.9803L97.8284 77.1128" fill="white"/>
<path d="M98.5009 77.7955L97.8075 77.2917L98.0594 76.945" fill="white"/>
<path d="M97.4933 77.7955L98.1867 77.2917L97.9348 76.945" fill="white"/>
<path d="M97.4933 77.7955L97.7581 76.9803L98.1657 77.1128" fill="white"/>
<path d="M100.405 74.5204L100.074 75.5394L100.584 75.705" fill="white"/>
<path d="M100.405 74.5204L100.736 75.5394L100.227 75.705" fill="white"/>
<path d="M101.424 75.2608H100.353V75.7965" fill="white"/>
<path d="M101.424 75.2608L100.557 75.8906L100.243 75.4572" fill="white"/>
<path d="M99.3863 75.2608L100.253 75.8906L100.568 75.4572" fill="white"/>
<path d="M99.3863 75.2608H100.458V75.7965" fill="white"/>
<path d="M101.035 76.4587L100.704 75.4397L100.194 75.6052" fill="white"/>
<path d="M101.035 76.4587L100.168 75.8289L100.483 75.3955" fill="white"/>
<path d="M99.7755 76.4587L100.642 75.8289L100.327 75.3955" fill="white"/>
<path d="M99.7755 76.4587L100.107 75.4397L100.616 75.6052" fill="white"/>
<path d="M94.895 75.6735L94.6302 76.4887L95.0378 76.6211" fill="white"/>
<path d="M94.895 75.6735L95.1599 76.4887L94.7523 76.6211" fill="white"/>
<path d="M95.7102 76.2658H94.8531V76.6944" fill="white"/>
<path d="M95.7102 76.2658L95.0168 76.7696L94.7649 76.4229" fill="white"/>
<path d="M94.0799 76.2658L94.7733 76.7696L95.0252 76.4229" fill="white"/>
<path d="M94.0799 76.2658H94.937V76.6944" fill="white"/>
<path d="M95.3989 77.2241L95.134 76.4089L94.7264 76.5413" fill="white"/>
<path d="M95.3989 77.2241L94.7054 76.7203L94.9573 76.3736" fill="white"/>
<path d="M94.3912 77.2241L95.0847 76.7203L94.8328 76.3736" fill="white"/>
<path d="M94.3912 77.2241L94.6561 76.4089L95.0637 76.5413" fill="white"/>
<path d="M68.5685 60.1531L68.2374 61.1721L68.7469 61.3376" fill="white"/>
<path d="M68.5685 60.1531L68.8996 61.1721L68.3901 61.3376" fill="white"/>
<path d="M69.5875 60.8934H68.5161V61.4292" fill="white"/>
<path d="M69.5875 60.8934L68.7207 61.5232L68.4058 61.0898" fill="white"/>
<path d="M67.5495 60.8934L68.4163 61.5232L68.7312 61.0898" fill="white"/>
<path d="M67.5495 60.8934H68.621V61.4292" fill="white"/>
<path d="M69.1983 62.0913L68.8672 61.0723L68.3577 61.2379" fill="white"/>
<path d="M69.1983 62.0913L68.3315 61.4616L68.6464 61.0282" fill="white"/>
<path d="M67.9387 62.0913L68.8056 61.4616L68.4907 61.0282" fill="white"/>
<path d="M67.9387 62.0913L68.2698 61.0723L68.7793 61.2379" fill="white"/>
<path d="M88.1604 57.6327L87.8955 58.4479L88.3031 58.5803" fill="white"/>
<path d="M88.1604 57.6327L88.4252 58.4479L88.0176 58.5803" fill="white"/>
<path d="M88.9756 58.225H88.1184V58.6535" fill="white"/>
<path d="M88.9756 58.225L88.2821 58.7288L88.0302 58.3821" fill="white"/>
<path d="M87.3452 58.225L88.0386 58.7288L88.2905 58.3821" fill="white"/>
<path d="M87.3452 58.225H88.2023V58.6535" fill="white"/>
<path d="M88.6642 59.1833L88.3993 58.3681L87.9917 58.5005" fill="white"/>
<path d="M88.6642 59.1833L87.9707 58.6795L88.2226 58.3327" fill="white"/>
<path d="M87.6565 59.1833L88.35 58.6795L88.0981 58.3327" fill="white"/>
<path d="M87.6565 59.1833L87.9214 58.3681L88.329 58.5005" fill="white"/>
<path d="M79.9971 72.1837L79.5998 73.4065L80.2112 73.6052" fill="white"/>
<path d="M79.9971 72.1837L80.3944 73.4065L79.783 73.6052" fill="white"/>
<path d="M81.2199 73.0721H79.9342V73.715" fill="white"/>
<path d="M81.2199 73.0721L80.1797 73.8278L79.8018 73.3078" fill="white"/>
<path d="M78.7743 73.0721L79.8145 73.8278L80.1923 73.3078" fill="white"/>
<path d="M78.7743 73.0721H80.06V73.715" fill="white"/>
<path d="M80.7528 74.5096L80.3555 73.2868L79.7441 73.4855" fill="white"/>
<path d="M80.7528 74.5096L79.7126 73.7539L80.0905 73.2338" fill="white"/>
<path d="M79.2414 74.5096L80.2815 73.7539L79.9037 73.2338" fill="white"/>
<path d="M79.2414 74.5096L79.6387 73.2868L80.2501 73.4855" fill="white"/>
<path d="M83.4665 66.4388L83.1354 67.4578L83.6449 67.6234" fill="white"/>
<path d="M83.4665 66.4388L83.7976 67.4578L83.2881 67.6234" fill="white"/>
<path d="M84.4855 67.1792H83.414V67.7149" fill="white"/>
<path d="M84.4855 67.1792L83.6187 67.8089L83.3038 67.3755" fill="white"/>
<path d="M82.4475 67.1792L83.3143 67.8089L83.6292 67.3755" fill="white"/>
<path d="M82.4475 67.1792H83.5189V67.7149" fill="white"/>
<path d="M84.0962 68.3771L83.7652 67.3581L83.2557 67.5236" fill="white"/>
<path d="M84.0962 68.3771L83.2294 67.7473L83.5443 67.3139" fill="white"/>
<path d="M82.8367 68.3771L83.7035 67.7473L83.3886 67.3139" fill="white"/>
<path d="M82.8367 68.3771L83.1678 67.3581L83.6773 67.5236" fill="white"/>
<path d="M79.9971 63.7449L79.666 64.7639L80.1755 64.9295" fill="white"/>
<path d="M79.9971 63.7449L80.3282 64.7639L79.8187 64.9295" fill="white"/>
<path d="M81.0161 64.4853H79.9446V65.021" fill="white"/>
<path d="M81.0161 64.4853L80.1493 65.115L79.8344 64.6816" fill="white"/>
<path d="M78.9781 64.4853L79.8449 65.115L80.1598 64.6816" fill="white"/>
<path d="M78.9781 64.4853H80.0495V65.021" fill="white"/>
<path d="M80.6269 65.6832L80.2958 64.6642L79.7863 64.8297" fill="white"/>
<path d="M80.6269 65.6832L79.7601 65.0534L80.0749 64.62" fill="white"/>
<path d="M79.3673 65.6832L80.2341 65.0534L79.9192 64.62" fill="white"/>
<path d="M79.3673 65.6832L79.6984 64.6642L80.2079 64.8297" fill="white"/>
<path d="M76.9767 66.6531L76.7118 67.4683L77.1194 67.6007" fill="white"/>
<path d="M76.9767 66.6531L77.2416 67.4683L76.834 67.6007" fill="white"/>
<path d="M77.7919 67.2454H76.9347V67.6739" fill="white"/>
<path d="M77.7919 67.2454L77.0984 67.7492L76.8465 67.4025" fill="white"/>
<path d="M76.1615 67.2454L76.8549 67.7492L77.1068 67.4025" fill="white"/>
<path d="M76.1615 67.2454H77.0186V67.6739" fill="white"/>
<path d="M77.4805 68.2037L77.2156 67.3885L76.808 67.5209" fill="white"/>
<path d="M77.4805 68.2037L76.7871 67.6999L77.039 67.3531" fill="white"/>
<path d="M76.4729 68.2037L77.1663 67.6999L76.9144 67.3531" fill="white"/>
<path d="M76.4729 68.2037L76.7377 67.3885L77.1453 67.5209" fill="white"/>
<path d="M78.4869 68.9796L78.2977 69.5619L78.5888 69.6565" fill="white"/>
<path d="M78.4869 68.9796L78.6761 69.5619L78.3849 69.6565" fill="white"/>
<path d="M79.0692 69.4027H78.4569V69.7088" fill="white"/>
<path d="M79.0692 69.4027L78.5738 69.7626L78.3939 69.5149" fill="white"/>
<path d="M77.9046 69.4027L78.3999 69.7626L78.5799 69.5149" fill="white"/>
<path d="M77.9046 69.4027H78.5169V69.7088" fill="white"/>
<path d="M78.8468 70.0872L78.6576 69.5049L78.3664 69.5995" fill="white"/>
<path d="M78.8468 70.0872L78.3514 69.7273L78.5314 69.4797" fill="white"/>
<path d="M78.127 70.0872L78.6223 69.7273L78.4424 69.4797" fill="white"/>
<path d="M78.127 70.0872L78.3162 69.5049L78.6074 69.5995" fill="white"/>
<path d="M88.9767 79.1327L88.6456 80.1517L89.1551 80.3172" fill="white"/>
<path d="M88.9767 79.1327L89.3078 80.1517L88.7983 80.3172" fill="white"/>
<path d="M89.9957 79.873H88.9242V80.4087" fill="white"/>
<path d="M89.9957 79.873L89.1289 80.5028L88.814 80.0694" fill="white"/>
<path d="M87.9577 79.873L88.8245 80.5028L89.1394 80.0694" fill="white"/>
<path d="M87.9577 79.873H89.0291V80.4087" fill="white"/>
<path d="M89.6064 81.0709L89.2754 80.0519L88.7659 80.2175" fill="white"/>
<path d="M89.6064 81.0709L88.7396 80.4412L89.0545 80.0078" fill="white"/>
<path d="M88.3469 81.0709L89.2137 80.4412L88.8988 80.0078" fill="white"/>
<path d="M88.3469 81.0709L88.678 80.0519L89.1875 80.2175" fill="white"/>
<path d="M91.5481 76.6939L91.2832 77.5091L91.6908 77.6415" fill="white"/>
<path d="M91.5481 76.6939L91.813 77.5091L91.4054 77.6415" fill="white"/>
<path d="M92.3633 77.2862H91.5062V77.7148" fill="white"/>
<path d="M92.3633 77.2862L91.6699 77.79L91.4179 77.4433" fill="white"/>
<path d="M90.7329 77.2862L91.4264 77.79L91.6783 77.4433" fill="white"/>
<path d="M90.7329 77.2862H91.5901V77.7148" fill="white"/>
<path d="M92.0519 78.2445L91.787 77.4293L91.3795 77.5617" fill="white"/>
<path d="M92.0519 78.2445L91.3585 77.7407L91.6104 77.394" fill="white"/>
<path d="M91.0443 78.2445L91.7377 77.7407L91.4858 77.394" fill="white"/>
<path d="M91.0443 78.2445L91.3092 77.4293L91.7168 77.5617" fill="white"/>
<path d="M86.6093 75.9592L86.3445 76.7744L86.7521 76.9069" fill="white"/>
<path d="M86.6093 75.9592L86.8742 76.7744L86.4666 76.9069" fill="white"/>
<path d="M87.4245 76.5515H86.5674V76.9801" fill="white"/>
<path d="M87.4245 76.5515L86.7311 77.0553L86.4792 76.7086" fill="white"/>
<path d="M85.7941 76.5515L86.4876 77.0553L86.7395 76.7086" fill="white"/>
<path d="M85.7941 76.5515H86.6513V76.9801" fill="white"/>
<path d="M87.1131 77.5098L86.8483 76.6946L86.4407 76.8271" fill="white"/>
<path d="M87.1131 77.5098L86.4197 77.006L86.6716 76.6593" fill="white"/>
<path d="M86.1055 77.5098L86.799 77.006L86.5471 76.6593" fill="white"/>
<path d="M86.1055 77.5098L86.3704 76.6946L86.778 76.8271" fill="white"/>
<path d="M67.9563 74.6327L67.559 75.8555L68.1704 76.0541" fill="white"/>
<path d="M67.9563 74.6327L68.3536 75.8555L67.7422 76.0541" fill="white"/>
<path d="M69.1791 75.5211H67.8933V76.164" fill="white"/>
<path d="M69.1791 75.5211L68.1389 76.2768L67.761 75.7567" fill="white"/>
<path d="M66.7335 75.5211L67.7736 76.2768L68.1515 75.7567" fill="white"/>
<path d="M66.7335 75.5211H68.0192V76.164" fill="white"/>
<path d="M68.712 76.9586L68.3147 75.7358L67.7033 75.9344" fill="white"/>
<path d="M68.712 76.9586L67.6718 76.2028L68.0497 75.6828" fill="white"/>
<path d="M67.2005 76.9586L68.2407 76.2028L67.8629 75.6828" fill="white"/>
<path d="M67.2005 76.9586L67.5979 75.7358L68.2092 75.9344" fill="white"/>
<path d="M79.9971 83.0409L79.8647 83.4485L80.0684 83.5147" fill="white"/>
<path d="M79.9971 83.0409L80.1295 83.4485L79.9257 83.5147" fill="white"/>
<path d="M80.4047 83.337H79.9761V83.5513" fill="white"/>
<path d="M80.4047 83.337L80.058 83.5889L79.932 83.4155" fill="white"/>
<path d="M79.5895 83.337L79.9362 83.5889L80.0622 83.4155" fill="white"/>
<path d="M79.5895 83.337H80.0181V83.5513" fill="white"/>
<path d="M80.249 83.8162L80.1166 83.4086L79.9128 83.4748" fill="white"/>
<path d="M80.249 83.8162L79.9023 83.5642L80.0282 83.3909" fill="white"/>
<path d="M79.7452 83.8162L80.0919 83.5642L79.9659 83.3909" fill="white"/>
<path d="M79.7452 83.8162L79.8776 83.4086L80.0814 83.4748" fill="white"/>
</g>
<defs>
<clipPath id="clip0_909_237118">
<rect width="160" height="120" fill="white"/>
</clipPath>
</defs>
</svg>
