<svg width="160" height="120" viewBox="0 0 160 120" fill="none" xmlns="http://www.w3.org/2000/svg">
<path d="M0 -1.52588e-05H160V120H0V-1.52588e-05Z" fill="#1E9A1C"/>
<path d="M9 60L80.1429 105.429L151.286 60L80.1429 14.5714L9 60Z" fill="#FDD406"/>
<path d="M80.1426 90C96.7111 90 110.143 76.5685 110.143 60C110.143 43.4315 96.7111 30 80.1426 30C63.574 30 50.1426 43.4315 50.1426 60C50.1426 76.5685 63.574 90 80.1426 90Z" fill="#0F3296"/>
<path d="M51.0957 52.4695C54.9998 51.7812 58.9816 51.4286 62.9998 51.4286C79.9417 51.4286 96.2371 57.6982 108.784 68.9525C109.263 67.4188 109.622 65.8323 109.85 64.2039C96.7788 53.2271 80.203 47.1429 62.9998 47.1429C59.5311 47.1429 56.088 47.3902 52.6938 47.8752C52.0422 49.3481 51.5057 50.8833 51.0957 52.4695Z" fill="white"/>
<path d="M64.1325 50.7116L66.7024 50.8014L66.7209 50.2711L64.6406 50.1984L64.6662 49.4642L66.2979 49.5212L66.315 49.0317L64.6833 48.9747L64.7032 48.4036L66.6612 48.472L66.6797 47.9417L64.2323 47.8562L64.1325 50.7116Z" fill="#1E9A1C"/>
<path fill-rule="evenodd" clip-rule="evenodd" d="M61.8515 50.7238L60.5048 50.7473L60.4549 47.8906L61.8016 47.8671C61.9624 47.8643 62.1222 47.8932 62.2718 47.9521C62.4214 48.011 62.5579 48.0988 62.6736 48.2106C62.7893 48.3223 62.8818 48.4556 62.9459 48.6031C63.0101 48.7506 63.0445 48.9092 63.0473 49.07L63.0544 49.4781C63.0573 49.6389 63.0284 49.7986 62.9694 49.9483C62.9105 50.0979 62.8227 50.2344 62.711 50.3501C62.5993 50.4657 62.4659 50.5583 62.3184 50.6224C62.1709 50.6865 62.0123 50.721 61.8515 50.7238ZM61.8014 50.194L61.026 50.2075L60.9947 48.4119L61.7701 48.3983C61.9757 48.3947 62.1744 48.473 62.3223 48.6159C62.4703 48.7587 62.5554 48.9545 62.559 49.1602L62.5633 49.405C62.5669 49.6107 62.4886 49.8093 62.3458 49.9573C62.2029 50.1052 62.0071 50.1904 61.8014 50.194Z" fill="#1E9A1C"/>
<path fill-rule="evenodd" clip-rule="evenodd" d="M57.413 50.9357L56.8837 50.9728L56.7251 48.1197L58.3538 48.0058C58.5914 47.9892 58.8258 48.0677 59.0056 48.2239C59.1853 48.3802 59.2956 48.6014 59.3122 48.839C59.3288 49.0765 59.2504 49.311 59.0941 49.4907C59.0462 49.5459 58.9921 49.5945 58.9333 49.6359C59.2411 49.8707 59.2842 50.4857 59.3064 50.8033L58.8178 50.8375C58.7987 50.5651 58.7644 50.0741 58.4756 49.7976L57.339 49.8771L57.413 50.9357ZM58.4013 49.2709L57.302 49.3478L57.2507 48.6149L58.3501 48.538C58.4473 48.5312 58.5432 48.5633 58.6167 48.6272C58.6903 48.6911 58.7354 48.7816 58.7422 48.8788C58.749 48.976 58.7169 49.0719 58.653 49.1455C58.589 49.219 58.4985 49.2641 58.4013 49.2709Z" fill="#1E9A1C"/>
<path fill-rule="evenodd" clip-rule="evenodd" d="M55.4072 50.7047C55.2005 50.9999 54.8943 51.1892 54.5558 51.2307C54.2174 51.2723 53.8744 51.1628 53.6025 50.9262C53.3305 50.6897 53.1518 50.3456 53.1056 49.9695C53.0594 49.5935 53.1496 49.2163 53.3562 48.921C53.5629 48.6257 53.8692 48.4365 54.2076 48.3949C54.5461 48.3533 54.889 48.4629 55.161 48.6994C55.4329 48.9359 55.6117 49.2801 55.6578 49.6561C55.704 50.0322 55.6138 50.4094 55.4072 50.7047ZM54.989 50.378C54.869 50.5624 54.6899 50.6797 54.4911 50.7041C54.2924 50.7285 54.0902 50.658 53.9291 50.5081C53.7681 50.3582 53.6613 50.1412 53.6322 49.9048C53.6032 49.6685 53.6543 49.4321 53.7744 49.2477C53.8944 49.0633 54.0735 48.946 54.2723 48.9216C54.471 48.8972 54.6732 48.9676 54.8343 49.1175C54.9954 49.2674 55.1022 49.4844 55.1312 49.7208C55.1602 49.9572 55.1091 50.1936 54.989 50.378Z" fill="#1E9A1C"/>
<path d="M68.2456 50.9086L67.7577 50.8659L68.0067 48.0196L68.7182 48.0819L69.1167 50.0834L69.8567 48.1815L70.5683 48.2437L70.3193 51.09L69.8314 51.0473L70.0021 49.0956L69.2621 50.9975L68.8148 50.9584L68.4163 48.9569L68.2456 50.9086Z" fill="#1E9A1C"/>
<path d="M73.6772 51.5336L75.7891 51.8965L75.872 51.4138L74.2428 51.1338L74.3534 50.4902L75.6809 50.7183L75.7639 50.2356L74.4364 50.0075L74.5124 49.565L76.0913 49.8363L76.1743 49.3536L74.1126 48.9993L73.6772 51.5336Z" fill="#1E9A1C"/>
<path fill-rule="evenodd" clip-rule="evenodd" d="M79.6165 52.7322L79.1028 52.5993L79.8577 49.8434L81.4384 50.2522C81.6689 50.3118 81.8664 50.4606 81.9872 50.6658C82.1081 50.871 82.1425 51.1158 82.0829 51.3464C82.0233 51.5769 81.8745 51.7744 81.6693 51.8952C81.4641 52.0161 81.2193 52.0505 80.9887 51.9909L79.8822 51.7047L79.6165 52.7322ZM81.082 51.4669L80.0151 51.191L80.1991 50.4797L81.266 50.7557C81.3603 50.78 81.4411 50.8409 81.4905 50.9249C81.54 51.0088 81.5541 51.109 81.5297 51.2033C81.5053 51.2976 81.4444 51.3784 81.3605 51.4278C81.2765 51.4773 81.1764 51.4913 81.082 51.4669Z" fill="#1E9A1C"/>
<path fill-rule="evenodd" clip-rule="evenodd" d="M82.608 53.5344L83.114 53.694L83.4331 52.6819L84.5198 53.0245C84.6871 53.3876 84.5391 53.857 84.457 54.1174L84.9241 54.2647C85.0199 53.961 85.2053 53.3731 85.0049 53.0418C85.0748 53.0248 85.1429 52.9994 85.2077 52.9656C85.419 52.8557 85.5779 52.6663 85.6495 52.4392C85.7211 52.212 85.6996 51.9658 85.5896 51.7545C85.4796 51.5433 85.2903 51.3844 85.0631 51.3127L83.506 50.8218L82.608 53.5344ZM83.5927 52.1758L84.6437 52.5072C84.7366 52.5365 84.8374 52.5277 84.9238 52.4827C85.0102 52.4377 85.0752 52.3603 85.1045 52.2673C85.1338 52.1744 85.125 52.0737 85.08 51.9872C85.035 51.9008 84.9576 51.8358 84.8647 51.8065L83.8136 51.4751L83.5927 52.1758Z" fill="#1E9A1C"/>
<path fill-rule="evenodd" clip-rule="evenodd" d="M87.2641 55.102C87.5835 55.2214 87.9425 55.195 88.2622 55.0285C88.5819 54.862 88.836 54.569 88.9687 54.2142C89.1014 53.8593 89.1017 53.4715 88.9697 53.1361C88.8377 52.8007 88.5841 52.5452 88.2647 52.4258C87.9453 52.3064 87.5863 52.3328 87.2666 52.4993C86.9469 52.6658 86.6928 52.9587 86.5601 53.3136C86.4274 53.6685 86.427 54.0563 86.5591 54.3917C86.6911 54.7271 86.9447 54.9826 87.2641 55.102ZM87.4499 54.605C87.6375 54.6751 87.8505 54.6538 88.0421 54.5456C88.2338 54.4375 88.3883 54.2514 88.4717 54.0283C88.5551 53.8053 88.5605 53.5635 88.4869 53.3561C88.4132 53.1488 88.2664 52.9929 88.0788 52.9228C87.8913 52.8527 87.6782 52.874 87.4866 52.9822C87.295 53.0903 87.1405 53.2764 87.0571 53.4995C86.9737 53.7225 86.9682 53.9643 87.0419 54.1716C87.1156 54.379 87.2623 54.5349 87.4499 54.605Z" fill="#1E9A1C"/>
<path d="M92.433 54.5869C92.3188 54.2451 92.0789 53.9767 91.7662 53.8407C91.4534 53.7047 91.0935 53.7123 90.7656 53.8619C90.4376 54.0114 90.1685 54.2906 90.0174 54.6381C89.8664 54.9855 89.8457 55.3728 89.96 55.7146C90.0743 56.0565 90.3142 56.3249 90.6269 56.4609C90.9263 56.591 91.2689 56.5896 91.5854 56.458L91.432 56.8108L91.8063 56.9735L92.3759 55.6634L91.384 55.2321L91.2212 55.6064L91.6507 55.7932C91.5849 55.8551 91.5116 55.9069 91.433 55.946C91.236 56.0439 91.0221 56.0541 90.8385 55.9743C90.6548 55.8944 90.5164 55.7311 90.4537 55.5202C90.391 55.3093 90.4091 55.0681 90.504 54.8497C90.599 54.6313 90.763 54.4535 90.96 54.3556C91.1571 54.2576 91.3709 54.2474 91.5546 54.3273C91.7382 54.4071 91.8766 54.5705 91.9394 54.7814C91.9559 54.8371 91.9669 54.895 91.9722 54.954L92.4994 55.1832C92.5183 54.9802 92.4964 54.7766 92.433 54.5869Z" fill="#1E9A1C"/>
<path fill-rule="evenodd" clip-rule="evenodd" d="M92.764 57.4202L93.2389 57.6569L93.7124 56.7072L94.7321 57.2156C94.8406 57.6004 94.621 58.0409 94.4991 58.2852L94.9375 58.5038C95.0795 58.2188 95.3546 57.6671 95.2086 57.3085C95.2802 57.3027 95.3515 57.2883 95.4208 57.2651C95.6466 57.1895 95.8332 57.0273 95.9395 56.8142C96.0458 56.6011 96.063 56.3544 95.9874 56.1286C95.9119 55.9027 95.7497 55.7162 95.5365 55.6099L94.0754 54.8814L92.764 57.4202ZM93.9492 56.2323L94.9354 56.7241C95.0226 56.7675 95.1235 56.7746 95.2159 56.7437C95.3083 56.7128 95.3846 56.6464 95.4281 56.5592C95.4716 56.472 95.4786 56.3711 95.4477 56.2787C95.4168 56.1864 95.3504 56.11 95.2633 56.0666L94.277 55.5748L93.9492 56.2323Z" fill="#1E9A1C"/>
<path d="M95.9987 59.0637L98.2367 60.3299L98.498 59.8681L96.6863 58.843L97.048 58.2036L98.469 59.0076L98.7102 58.5813L97.2892 57.7773L97.5706 57.28L99.2758 58.2447L99.5371 57.7829L97.4056 56.577L95.9987 59.0637Z" fill="#1E9A1C"/>
<path d="M100.513 61.1911C100.169 60.9718 100.013 60.7033 100.167 60.4623L99.6247 60.1169C99.2392 60.7182 99.8308 61.3128 100.227 61.565C100.691 61.8611 101.388 62.1354 101.788 61.5071C102.109 61.0031 101.621 60.5338 101.223 60.1519C100.949 59.8881 100.718 59.6661 100.826 59.5031C100.985 59.2536 101.202 59.3312 101.469 59.5011C101.744 59.6766 101.925 59.9247 101.76 60.1829L102.285 60.5174C102.672 59.929 102.175 59.4185 101.865 59.2211L101.825 59.1957C101.49 58.98 100.715 58.4815 100.254 59.1867C99.9362 59.6741 100.387 60.1162 100.775 60.4971C101.068 60.7844 101.325 61.0369 101.191 61.2478C101.092 61.4025 100.858 61.4104 100.513 61.1911Z" fill="#1E9A1C"/>
<path d="M103.232 62.4891C103.066 62.7217 103.207 62.998 103.54 63.235C103.872 63.472 104.107 63.4764 104.214 63.3271C104.359 63.1235 104.115 62.8579 103.838 62.5557C103.47 62.155 103.043 61.6899 103.385 61.2198C103.883 60.5397 104.631 61.0781 104.954 61.311L104.993 61.3385C105.292 61.5518 105.762 62.0877 105.345 62.655L104.838 62.2935C105.016 62.0443 104.848 61.787 104.583 61.5974C104.325 61.4137 104.113 61.3249 103.941 61.5658C103.824 61.7228 104.043 61.9566 104.303 62.2344C104.68 62.6366 105.143 63.1308 104.796 63.6173C104.364 64.2238 103.683 63.9134 103.234 63.5934C102.852 63.3209 102.292 62.6961 102.709 62.1158L103.232 62.4891Z" fill="#1E9A1C"/>
<path fill-rule="evenodd" clip-rule="evenodd" d="M107.103 66.0149C106.747 66.0745 106.398 65.9887 106.131 65.7765C105.864 65.5642 105.702 65.2428 105.68 64.883C105.658 64.5233 105.778 64.1546 106.014 63.8581C106.25 63.5615 106.582 63.3615 106.937 63.3019C107.293 63.2424 107.643 63.3282 107.909 63.5404C108.176 63.7527 108.338 64.0741 108.36 64.4338C108.382 64.7936 108.262 65.1623 108.026 65.4588C107.79 65.7553 107.458 65.9554 107.103 66.0149ZM107.043 65.4877C106.827 65.5314 106.618 65.4859 106.461 65.3612C106.304 65.2365 106.213 65.0429 106.207 64.823C106.201 64.603 106.281 64.3748 106.429 64.1884C106.577 64.002 106.782 63.8728 106.997 63.8291C107.213 63.7855 107.422 63.831 107.579 63.9557C107.736 64.0804 107.827 64.274 107.833 64.4939C107.839 64.7138 107.759 64.9421 107.611 65.1285C107.463 65.3149 107.258 65.4441 107.043 65.4877Z" fill="#1E9A1C"/>
<path d="M55.6527 53.3265L55.2554 54.5493L55.8668 54.748" fill="white"/>
<path d="M55.6527 53.3265L56.05 54.5493L55.4386 54.748" fill="white"/>
<path d="M56.8755 54.2149H55.5898V54.8578" fill="white"/>
<path d="M56.8755 54.2149L55.8353 54.9706L55.4574 54.4506" fill="white"/>
<path d="M54.4299 54.2149L55.4701 54.9706L55.8479 54.4506" fill="white"/>
<path d="M54.4299 54.2149H55.7156V54.8578" fill="white"/>
<path d="M56.4084 55.6524L56.0111 54.4296L55.3997 54.6283" fill="white"/>
<path d="M56.4084 55.6524L55.3682 54.8967L55.7461 54.3766" fill="white"/>
<path d="M54.897 55.6524L55.9371 54.8967L55.5593 54.3766" fill="white"/>
<path d="M54.897 55.6524L55.2943 54.4296L55.9057 54.6283" fill="white"/>
<path d="M58.3057 65.9388L57.9084 67.1615L58.5198 67.3602" fill="white"/>
<path d="M58.3057 65.9388L58.703 67.1615L58.0917 67.3602" fill="white"/>
<path d="M59.5285 66.8272H58.2428V67.47" fill="white"/>
<path d="M59.5285 66.8272L58.4884 67.5829L58.1105 67.0628" fill="white"/>
<path d="M57.083 66.8272L58.1231 67.5829L58.501 67.0628" fill="white"/>
<path d="M57.083 66.8272H58.3687V67.47" fill="white"/>
<path d="M59.0615 68.2646L58.6642 67.0418L58.0528 67.2405" fill="white"/>
<path d="M59.0615 68.2646L58.0213 67.5089L58.3992 66.9888" fill="white"/>
<path d="M57.55 68.2646L58.5902 67.5089L58.2123 66.9888" fill="white"/>
<path d="M57.55 68.2646L57.9473 67.0418L58.5587 67.2405" fill="white"/>
<path d="M54.6323 68.8469L54.3012 69.8659L54.8107 70.0315" fill="white"/>
<path d="M54.6323 68.8469L54.9634 69.8659L54.4539 70.0315" fill="white"/>
<path d="M55.6513 69.5873H54.5798V70.123" fill="white"/>
<path d="M55.6513 69.5873L54.7845 70.217L54.4696 69.7836" fill="white"/>
<path d="M53.6133 69.5873L54.4801 70.217L54.795 69.7836" fill="white"/>
<path d="M53.6133 69.5873H54.6847V70.123" fill="white"/>
<path d="M55.262 70.7852L54.931 69.7662L54.4215 69.9317" fill="white"/>
<path d="M55.262 70.7852L54.3952 70.1554L54.7101 69.722" fill="white"/>
<path d="M54.0025 70.7852L54.8693 70.1554L54.5544 69.722" fill="white"/>
<path d="M54.0025 70.7852L54.3336 69.7662L54.8431 69.9317" fill="white"/>
<path d="M61.2445 64.7755L61.0553 65.3578L61.3465 65.4524" fill="white"/>
<path d="M61.2445 64.7755L61.4337 65.3578L61.1426 65.4524" fill="white"/>
<path d="M61.8268 65.1985H61.2145V65.5047" fill="white"/>
<path d="M61.8268 65.1985L61.3315 65.5584L61.1515 65.3108" fill="white"/>
<path d="M60.6622 65.1985L61.1576 65.5584L61.3375 65.3108" fill="white"/>
<path d="M60.6622 65.1985H61.2745V65.5047" fill="white"/>
<path d="M61.6044 65.8831L61.4152 65.3008L61.124 65.3954" fill="white"/>
<path d="M61.6044 65.8831L61.1091 65.5232L61.289 65.2755" fill="white"/>
<path d="M60.8846 65.8831L61.38 65.5232L61.2 65.2755" fill="white"/>
<path d="M60.8846 65.8831L61.0738 65.3008L61.365 65.3954" fill="white"/>
<path d="M64.5506 69.1326L64.2195 70.1516L64.729 70.3172" fill="white"/>
<path d="M64.5506 69.1326L64.8817 70.1516L64.3722 70.3172" fill="white"/>
<path d="M65.5696 69.873H64.4982V70.4087" fill="white"/>
<path d="M65.5696 69.873L64.7028 70.5027L64.3879 70.0693" fill="white"/>
<path d="M63.5316 69.873L64.3984 70.5027L64.7133 70.0693" fill="white"/>
<path d="M63.5316 69.873H64.6031V70.4087" fill="white"/>
<path d="M65.1804 71.0709L64.8493 70.0519L64.3398 70.2174" fill="white"/>
<path d="M65.1804 71.0709L64.3136 70.4411L64.6285 70.0077" fill="white"/>
<path d="M63.9209 71.0709L64.7877 70.4411L64.4728 70.0077" fill="white"/>
<path d="M63.9209 71.0709L64.252 70.0519L64.7614 70.2174" fill="white"/>
<path d="M63.6527 72.3265L63.3878 73.1417L63.7954 73.2741" fill="white"/>
<path d="M63.6527 72.3265L63.9175 73.1417L63.51 73.2741" fill="white"/>
<path d="M64.4679 72.9188H63.6107V73.3474" fill="white"/>
<path d="M64.4679 72.9188L63.7744 73.4226L63.5225 73.0759" fill="white"/>
<path d="M62.8375 72.9188L63.5309 73.4226L63.7828 73.0759" fill="white"/>
<path d="M62.8375 72.9188H63.6946V73.3474" fill="white"/>
<path d="M64.1565 73.8771L63.8916 73.0619L63.484 73.1943" fill="white"/>
<path d="M64.1565 73.8771L63.463 73.3733L63.715 73.0266" fill="white"/>
<path d="M63.1489 73.8771L63.8423 73.3733L63.5904 73.0266" fill="white"/>
<path d="M63.1489 73.8771L63.4137 73.0619L63.8213 73.1943" fill="white"/>
<path d="M89.4486 49.4081L89.0513 50.6309L89.6627 50.8296" fill="white"/>
<path d="M89.4486 49.4081L89.8459 50.6309L89.2345 50.8296" fill="white"/>
<path d="M90.6714 50.2965H89.3857V50.9394" fill="white"/>
<path d="M90.6714 50.2965L89.6312 51.0523L89.2534 50.5322" fill="white"/>
<path d="M88.2258 50.2965L89.266 51.0523L89.6438 50.5322" fill="white"/>
<path d="M88.2258 50.2965H89.5115V50.9394" fill="white"/>
<path d="M90.2043 51.734L89.807 50.5112L89.1956 50.7099" fill="white"/>
<path d="M90.2043 51.734L89.1642 50.9783L89.542 50.4582" fill="white"/>
<path d="M88.6929 51.734L89.733 50.9783L89.3552 50.4582" fill="white"/>
<path d="M88.6929 51.734L89.0902 50.5112L89.7016 50.7099" fill="white"/>
<path d="M101.163 69.2449L100.766 70.4677L101.377 70.6663" fill="white"/>
<path d="M101.163 69.2449L101.56 70.4677L100.949 70.6663" fill="white"/>
<path d="M102.386 70.1333H101.1V70.7761" fill="white"/>
<path d="M102.386 70.1333L101.346 70.889L100.968 70.3689" fill="white"/>
<path d="M99.9401 70.1333L100.98 70.889L101.358 70.3689" fill="white"/>
<path d="M99.9401 70.1333H101.226V70.7761" fill="white"/>
<path d="M101.919 71.5708L101.521 70.348L100.91 70.5466" fill="white"/>
<path d="M101.919 71.5708L100.878 70.815L101.256 70.2949" fill="white"/>
<path d="M100.407 71.5708L101.447 70.815L101.069 70.2949" fill="white"/>
<path d="M100.407 71.5708L100.804 70.348L101.416 70.5466" fill="white"/>
<path d="M105.326 69.9592L105.061 70.7744L105.469 70.9068" fill="white"/>
<path d="M105.326 69.9592L105.591 70.7744L105.183 70.9068" fill="white"/>
<path d="M106.141 70.5514H105.284V70.98" fill="white"/>
<path d="M106.141 70.5514L105.448 71.0553L105.196 70.7085" fill="white"/>
<path d="M104.511 70.5514L105.204 71.0553L105.456 70.7085" fill="white"/>
<path d="M104.511 70.5514H105.368V70.98" fill="white"/>
<path d="M105.83 71.5098L105.565 70.6946L105.158 70.827" fill="white"/>
<path d="M105.83 71.5098L105.137 71.0059L105.388 70.6592" fill="white"/>
<path d="M104.822 71.5098L105.516 71.0059L105.264 70.6592" fill="white"/>
<path d="M104.822 71.5098L105.087 70.6946L105.495 70.827" fill="white"/>
<path d="M102.387 72.1122L102.056 73.1312L102.566 73.2968" fill="white"/>
<path d="M102.387 72.1122L102.718 73.1312L102.209 73.2968" fill="white"/>
<path d="M103.406 72.8526H102.335V73.3883" fill="white"/>
<path d="M103.406 72.8526L102.54 73.4823L102.225 73.0489" fill="white"/>
<path d="M101.368 72.8526L102.235 73.4823L102.55 73.0489" fill="white"/>
<path d="M101.368 72.8526H102.44V73.3883" fill="white"/>
<path d="M103.017 74.0505L102.686 73.0315L102.177 73.197" fill="white"/>
<path d="M103.017 74.0505L102.15 73.4207L102.465 72.9873" fill="white"/>
<path d="M101.758 74.0505L102.624 73.4207L102.31 72.9873" fill="white"/>
<path d="M101.758 74.0505L102.089 73.0315L102.598 73.197" fill="white"/>
<path d="M95.1629 78.3979L94.8318 79.4169L95.3413 79.5825" fill="white"/>
<path d="M95.1629 78.3979L95.494 79.4169L94.9845 79.5825" fill="white"/>
<path d="M96.1819 79.1383H95.1104V79.674" fill="white"/>
<path d="M96.1819 79.1383L95.3151 79.768L95.0002 79.3346" fill="white"/>
<path d="M94.1439 79.1383L95.0107 79.768L95.3256 79.3346" fill="white"/>
<path d="M94.1439 79.1383H95.2153V79.674" fill="white"/>
<path d="M95.7927 80.3362L95.4616 79.3172L94.9521 79.4827" fill="white"/>
<path d="M95.7927 80.3362L94.9258 79.7064L95.2407 79.273" fill="white"/>
<path d="M94.5331 80.3362L95.3999 79.7064L95.085 79.273" fill="white"/>
<path d="M94.5331 80.3362L94.8642 79.3172L95.3737 79.4827" fill="white"/>
<path d="M95.1221 81.6326L94.8572 82.4478L95.2648 82.5803" fill="white"/>
<path d="M95.1221 81.6326L95.3869 82.4478L94.9793 82.5803" fill="white"/>
<path d="M95.9373 82.2249H95.0801V82.6535" fill="white"/>
<path d="M95.9373 82.2249L95.2438 82.7287L94.9919 82.382" fill="white"/>
<path d="M94.3069 82.2249L95.0003 82.7287L95.2522 82.382" fill="white"/>
<path d="M94.3069 82.2249H95.164V82.6535" fill="white"/>
<path d="M95.6259 83.1832L95.361 82.368L94.9534 82.5005" fill="white"/>
<path d="M95.6259 83.1832L94.9324 82.6794L95.1843 82.3327" fill="white"/>
<path d="M94.6183 83.1832L95.3117 82.6794L95.0598 82.3327" fill="white"/>
<path d="M94.6183 83.1832L94.8831 82.368L95.2907 82.5005" fill="white"/>
<path d="M98.1425 76.2449L97.8776 77.0601L98.2852 77.1925" fill="white"/>
<path d="M98.1425 76.2449L98.4073 77.0601L97.9998 77.1925" fill="white"/>
<path d="M98.9577 76.8372H98.1005V77.2657" fill="white"/>
<path d="M98.9577 76.8372L98.2642 77.341L98.0123 76.9942" fill="white"/>
<path d="M97.3273 76.8372L98.0207 77.341L98.2726 76.9942" fill="white"/>
<path d="M97.3273 76.8372H98.1844V77.2657" fill="white"/>
<path d="M98.6463 77.7955L98.3814 76.9803L97.9738 77.1127" fill="white"/>
<path d="M98.6463 77.7955L97.9529 77.2916L98.2048 76.9449" fill="white"/>
<path d="M97.6387 77.7955L98.3321 77.2916L98.0802 76.9449" fill="white"/>
<path d="M97.6387 77.7955L97.9035 76.9803L98.3111 77.1127" fill="white"/>
<path d="M100.551 74.5204L100.22 75.5394L100.729 75.7049" fill="white"/>
<path d="M100.551 74.5204L100.882 75.5394L100.372 75.7049" fill="white"/>
<path d="M101.57 75.2607H100.498V75.7964" fill="white"/>
<path d="M101.57 75.2607L100.703 75.8905L100.388 75.4571" fill="white"/>
<path d="M99.5316 75.2607L100.398 75.8905L100.713 75.4571" fill="white"/>
<path d="M99.5316 75.2607H100.603V75.7964" fill="white"/>
<path d="M101.18 76.4586L100.849 75.4396L100.34 75.6052" fill="white"/>
<path d="M101.18 76.4586L100.314 75.8288L100.628 75.3954" fill="white"/>
<path d="M99.9209 76.4586L100.788 75.8288L100.473 75.3954" fill="white"/>
<path d="M99.9209 76.4586L100.252 75.4396L100.761 75.6052" fill="white"/>
<path d="M95.0404 75.6735L94.7756 76.4886L95.1832 76.6211" fill="white"/>
<path d="M95.0404 75.6735L95.3053 76.4886L94.8977 76.6211" fill="white"/>
<path d="M95.8556 76.2657H94.9985V76.6943" fill="white"/>
<path d="M95.8556 76.2657L95.1622 76.7695L94.9103 76.4228" fill="white"/>
<path d="M94.2252 76.2657L94.9187 76.7695L95.1706 76.4228" fill="white"/>
<path d="M94.2252 76.2657H95.0824V76.6943" fill="white"/>
<path d="M95.5443 77.224L95.2794 76.4088L94.8718 76.5413" fill="white"/>
<path d="M95.5443 77.224L94.8508 76.7202L95.1027 76.3735" fill="white"/>
<path d="M94.5366 77.224L95.2301 76.7202L94.9782 76.3735" fill="white"/>
<path d="M94.5366 77.224L94.8015 76.4088L95.2091 76.5413" fill="white"/>
<path d="M68.7139 60.153L68.3828 61.172L68.8923 61.3376" fill="white"/>
<path d="M68.7139 60.153L69.045 61.172L68.5355 61.3376" fill="white"/>
<path d="M69.7329 60.8934H68.6615V61.4291" fill="white"/>
<path d="M69.7329 60.8934L68.8661 61.5232L68.5512 61.0897" fill="white"/>
<path d="M67.6949 60.8934L68.5617 61.5232L68.8766 61.0897" fill="white"/>
<path d="M67.6949 60.8934H68.7663V61.4291" fill="white"/>
<path d="M69.3437 62.0913L69.0126 61.0723L68.5031 61.2378" fill="white"/>
<path d="M69.3437 62.0913L68.4769 61.4615L68.7918 61.0281" fill="white"/>
<path d="M68.0841 62.0913L68.9509 61.4615L68.6361 61.0281" fill="white"/>
<path d="M68.0841 62.0913L68.4152 61.0723L68.9247 61.2378" fill="white"/>
<path d="M88.3057 57.6326L88.0409 58.4478L88.4485 58.5803" fill="white"/>
<path d="M88.3057 57.6326L88.5706 58.4478L88.163 58.5803" fill="white"/>
<path d="M89.1209 58.2249H88.2638V58.6535" fill="white"/>
<path d="M89.1209 58.2249L88.4275 58.7287L88.1756 58.382" fill="white"/>
<path d="M87.4906 58.2249L88.184 58.7287L88.4359 58.382" fill="white"/>
<path d="M87.4906 58.2249H88.3477V58.6535" fill="white"/>
<path d="M88.8096 59.1832L88.5447 58.368L88.1371 58.5005" fill="white"/>
<path d="M88.8096 59.1832L88.1161 58.6794L88.368 58.3327" fill="white"/>
<path d="M87.8019 59.1832L88.4954 58.6794L88.2435 58.3327" fill="white"/>
<path d="M87.8019 59.1832L88.0668 58.368L88.4744 58.5005" fill="white"/>
<path d="M80.1425 72.1837L79.7452 73.4064L80.3566 73.6051" fill="white"/>
<path d="M80.1425 72.1837L80.5398 73.4064L79.9284 73.6051" fill="white"/>
<path d="M81.3653 73.0721H80.0795V73.7149" fill="white"/>
<path d="M81.3653 73.0721L80.3251 73.8278L79.9472 73.3077" fill="white"/>
<path d="M78.9197 73.0721L79.9599 73.8278L80.3377 73.3077" fill="white"/>
<path d="M78.9197 73.0721H80.2054V73.7149" fill="white"/>
<path d="M80.8982 74.5095L80.5009 73.2867L79.8895 73.4854" fill="white"/>
<path d="M80.8982 74.5095L79.858 73.7538L80.2359 73.2337" fill="white"/>
<path d="M79.3868 74.5095L80.4269 73.7538L80.0491 73.2337" fill="white"/>
<path d="M79.3868 74.5095L79.7841 73.2867L80.3955 73.4854" fill="white"/>
<path d="M83.6119 66.4388L83.2808 67.4577L83.7903 67.6233" fill="white"/>
<path d="M83.6119 66.4388L83.943 67.4577L83.4335 67.6233" fill="white"/>
<path d="M84.6308 67.1791H83.5594V67.7148" fill="white"/>
<path d="M84.6308 67.1791L83.764 67.8089L83.4492 67.3755" fill="white"/>
<path d="M82.5929 67.1791L83.4597 67.8089L83.7746 67.3755" fill="white"/>
<path d="M82.5929 67.1791H83.6643V67.7148" fill="white"/>
<path d="M84.2416 68.377L83.9105 67.358L83.401 67.5235" fill="white"/>
<path d="M84.2416 68.377L83.3748 67.7472L83.6897 67.3138" fill="white"/>
<path d="M82.9821 68.377L83.8489 67.7472L83.534 67.3138" fill="white"/>
<path d="M82.9821 68.377L83.3132 67.358L83.8227 67.5235" fill="white"/>
<path d="M80.1425 63.7449L79.8114 64.7639L80.3209 64.9294" fill="white"/>
<path d="M80.1425 63.7449L80.4736 64.7639L79.9641 64.9294" fill="white"/>
<path d="M81.1615 64.4852H80.09V65.0209" fill="white"/>
<path d="M81.1615 64.4852L80.2947 65.115L79.9798 64.6816" fill="white"/>
<path d="M79.1235 64.4852L79.9903 65.115L80.3052 64.6816" fill="white"/>
<path d="M79.1235 64.4852H80.1949V65.0209" fill="white"/>
<path d="M80.7722 65.6831L80.4412 64.6641L79.9317 64.8297" fill="white"/>
<path d="M80.7722 65.6831L79.9054 65.0533L80.2203 64.6199" fill="white"/>
<path d="M79.5127 65.6831L80.3795 65.0533L80.0646 64.6199" fill="white"/>
<path d="M79.5127 65.6831L79.8438 64.6641L80.3533 64.8297" fill="white"/>
<path d="M77.1221 66.653L76.8572 67.4682L77.2648 67.6007" fill="white"/>
<path d="M77.1221 66.653L77.3869 67.4682L76.9793 67.6007" fill="white"/>
<path d="M77.9373 67.2453H77.0801V67.6739" fill="white"/>
<path d="M77.9373 67.2453L77.2438 67.7491L76.9919 67.4024" fill="white"/>
<path d="M76.3069 67.2453L77.0003 67.7491L77.2522 67.4024" fill="white"/>
<path d="M76.3069 67.2453H77.164V67.6739" fill="white"/>
<path d="M77.6259 68.2036L77.361 67.3884L76.9534 67.5209" fill="white"/>
<path d="M77.6259 68.2036L76.9324 67.6998L77.1843 67.3531" fill="white"/>
<path d="M76.6183 68.2036L77.3117 67.6998L77.0598 67.3531" fill="white"/>
<path d="M76.6183 68.2036L76.8831 67.3884L77.2907 67.5209" fill="white"/>
<path d="M78.6323 68.9796L78.4431 69.5618L78.7342 69.6564" fill="white"/>
<path d="M78.6323 68.9796L78.8215 69.5618L78.5303 69.6564" fill="white"/>
<path d="M79.2146 69.4026H78.6023V69.7087" fill="white"/>
<path d="M79.2146 69.4026L78.7192 69.7625L78.5393 69.5148" fill="white"/>
<path d="M78.05 69.4026L78.5453 69.7625L78.7252 69.5148" fill="white"/>
<path d="M78.05 69.4026H78.6622V69.7087" fill="white"/>
<path d="M78.9921 70.0871L78.8029 69.5049L78.5118 69.5994" fill="white"/>
<path d="M78.9921 70.0871L78.4968 69.7273L78.6768 69.4796" fill="white"/>
<path d="M78.2724 70.0871L78.7677 69.7273L78.5878 69.4796" fill="white"/>
<path d="M78.2724 70.0871L78.4616 69.5049L78.7527 69.5994" fill="white"/>
<path d="M89.1221 79.1326L88.791 80.1516L89.3005 80.3172" fill="white"/>
<path d="M89.1221 79.1326L89.4532 80.1516L88.9437 80.3172" fill="white"/>
<path d="M90.1411 79.873H89.0696V80.4087" fill="white"/>
<path d="M90.1411 79.873L89.2742 80.5027L88.9594 80.0693" fill="white"/>
<path d="M88.1031 79.873L88.9699 80.5027L89.2848 80.0693" fill="white"/>
<path d="M88.1031 79.873H89.1745V80.4087" fill="white"/>
<path d="M89.7518 81.0709L89.4207 80.0519L88.9112 80.2174" fill="white"/>
<path d="M89.7518 81.0709L88.885 80.4411L89.1999 80.0077" fill="white"/>
<path d="M88.4923 81.0709L89.3591 80.4411L89.0442 80.0077" fill="white"/>
<path d="M88.4923 81.0709L88.8234 80.0519L89.3329 80.2174" fill="white"/>
<path d="M91.6935 76.6939L91.4286 77.509L91.8362 77.6415" fill="white"/>
<path d="M91.6935 76.6939L91.9584 77.509L91.5508 77.6415" fill="white"/>
<path d="M92.5087 77.2861H91.6515V77.7147" fill="white"/>
<path d="M92.5087 77.2861L91.8152 77.7899L91.5633 77.4432" fill="white"/>
<path d="M90.8783 77.2861L91.5717 77.7899L91.8237 77.4432" fill="white"/>
<path d="M90.8783 77.2861H91.7354V77.7147" fill="white"/>
<path d="M92.1973 78.2444L91.9324 77.4293L91.5248 77.5617" fill="white"/>
<path d="M92.1973 78.2444L91.5039 77.7406L91.7558 77.3939" fill="white"/>
<path d="M91.1897 78.2444L91.8831 77.7406L91.6312 77.3939" fill="white"/>
<path d="M91.1897 78.2444L91.4545 77.4293L91.8621 77.5617" fill="white"/>
<path d="M86.7547 75.9592L86.4898 76.7744L86.8974 76.9068" fill="white"/>
<path d="M86.7547 75.9592L87.0196 76.7744L86.612 76.9068" fill="white"/>
<path d="M87.5699 76.5514H86.7128V76.98" fill="white"/>
<path d="M87.5699 76.5514L86.8765 77.0553L86.6246 76.7085" fill="white"/>
<path d="M85.9395 76.5514L86.633 77.0553L86.8849 76.7085" fill="white"/>
<path d="M85.9395 76.5514H86.7967V76.98" fill="white"/>
<path d="M87.2585 77.5098L86.9937 76.6946L86.5861 76.827" fill="white"/>
<path d="M87.2585 77.5098L86.5651 77.0059L86.817 76.6592" fill="white"/>
<path d="M86.2509 77.5098L86.9443 77.0059L86.6924 76.6592" fill="white"/>
<path d="M86.2509 77.5098L86.5158 76.6946L86.9234 76.827" fill="white"/>
<path d="M68.1017 74.6326L67.7043 75.8554L68.3157 76.0541" fill="white"/>
<path d="M68.1017 74.6326L68.499 75.8554L67.8876 76.0541" fill="white"/>
<path d="M69.3244 75.521H68.0387V76.1639" fill="white"/>
<path d="M69.3244 75.521L68.2843 76.2768L67.9064 75.7567" fill="white"/>
<path d="M66.8789 75.521L67.919 76.2768L68.2969 75.7567" fill="white"/>
<path d="M66.8789 75.521H68.1646V76.1639" fill="white"/>
<path d="M68.8574 76.9585L68.4601 75.7357L67.8487 75.9344" fill="white"/>
<path d="M68.8574 76.9585L67.8172 76.2028L68.1951 75.6827" fill="white"/>
<path d="M67.3459 76.9585L68.3861 76.2028L68.0082 75.6827" fill="white"/>
<path d="M67.3459 76.9585L67.7432 75.7357L68.3546 75.9344" fill="white"/>
<path d="M80.1425 83.0408L80.01 83.4484L80.2138 83.5146" fill="white"/>
<path d="M80.1425 83.0408L80.2749 83.4484L80.0711 83.5146" fill="white"/>
<path d="M80.5501 83.3369H80.1215V83.5512" fill="white"/>
<path d="M80.5501 83.3369L80.2033 83.5888L80.0774 83.4155" fill="white"/>
<path d="M79.7349 83.3369L80.0816 83.5888L80.2076 83.4155" fill="white"/>
<path d="M79.7349 83.3369H80.1634V83.5512" fill="white"/>
<path d="M80.3944 83.8161L80.2619 83.4085L80.0581 83.4747" fill="white"/>
<path d="M80.3944 83.8161L80.0477 83.5642L80.1736 83.3908" fill="white"/>
<path d="M79.8906 83.8161L80.2373 83.5642L80.1113 83.3908" fill="white"/>
<path d="M79.8906 83.8161L80.023 83.4085L80.2268 83.4747" fill="white"/>
</svg>
