<svg width="160" height="120" viewBox="0 0 160 120" fill="none" xmlns="http://www.w3.org/2000/svg">
<g clip-path="url(#clip0_354_68)">
<path d="M160 0H0V120H160V0Z" fill="#1E9A1C"/>
<path d="M123.015 88.1174L124.496 92.7227L129.02 91.0094L126.343 95.0387L130.503 97.5075L125.684 97.9268L126.347 102.719L123.015 99.2121L119.682 102.719L120.346 97.9268L115.526 97.5075L119.687 95.0387L117.01 91.0094L121.534 92.7227L123.015 88.1174Z" fill="#FDD406"/>
<path d="M106.132 45.5522L107.613 50.1575L112.137 48.4442L109.46 52.4736L113.62 54.9424L108.801 55.3616L109.465 60.1535L106.132 56.6469L102.799 60.1535L103.463 55.3616L98.6436 54.9424L102.804 52.4736L100.127 48.4442L104.651 50.1575L106.132 45.5522Z" fill="#FDD406"/>
<path d="M123.015 16.4287L124.496 21.034L129.02 19.3207L126.343 23.35L130.503 25.8188L125.684 26.2381L126.347 31.0299L123.015 27.5234L119.682 31.0299L120.346 26.2381L115.526 25.8188L119.687 23.35L117.01 19.3207L121.534 21.034L123.015 16.4287Z" fill="#FDD406"/>
<path d="M146.911 38.3835L148.392 42.9888L152.916 41.2755L150.239 45.3049L154.4 47.7737L149.58 48.1929L150.244 52.9848L146.911 49.4782L143.579 52.9848L144.242 48.1929L139.423 47.7737L143.583 45.3049L140.906 41.2755L145.43 42.9888L146.911 38.3835Z" fill="#FDD406"/>
<path d="M133.769 59.9539L134.94 62.8234L138.03 63.0498L135.663 65.0498L136.403 68.0592L133.769 66.4258L131.135 68.0592L131.875 65.0498L129.508 63.0498L132.599 62.8234L133.769 59.9539Z" fill="#FDD406"/>
<path d="M98.8306 78.4862C94.3885 82.5328 88.4824 85 82 85C68.1929 85 57 73.8071 57 60C57 46.1929 68.1929 35 82 35C88.4825 35 94.3887 37.4673 98.8308 41.514C96.1034 40.1784 93.0369 39.4286 89.7953 39.4286C78.434 39.4286 69.2238 48.6388 69.2238 60C69.2238 71.3613 78.434 80.5715 89.7953 80.5715C93.0368 80.5715 96.1033 79.8217 98.8306 78.4862Z" fill="#FDD406"/>
<path d="M27.19 51.1896C38.8929 51.1896 48.38 41.7025 48.38 29.9996C48.38 18.2967 38.8929 8.80957 27.19 8.80957C15.4871 8.80957 6 18.2967 6 29.9996C6 41.7025 15.4871 51.1896 27.19 51.1896Z" fill="#FDD406"/>
<path d="M25.7285 45.9767H31.0197C31.0197 45.9767 31.2585 45.4917 30.9664 45.2492C30.6743 45.0067 29.5365 44.9533 29.8439 44.0954C30.4758 42.3317 30.564 42.8755 30.9609 38.6868C31.3577 34.498 31.5488 27.9282 31.5488 27.9282H30.7845C30.7845 27.9282 30.9315 29.9711 30.4905 32.6314C30.0496 35.2917 29.9174 35.5268 29.4323 37.5697C28.9473 39.6126 28.8738 39.789 28.4329 40.9795C27.992 42.17 27.9479 42.2288 27.2571 43.331C26.5664 44.4333 26.8162 44.0218 26.4341 44.6832C26.243 45.0139 26.0078 44.9257 25.8792 45.1664C25.7506 45.407 25.7286 45.9766 25.7286 45.9766L25.7285 45.9767Z" fill="#784B26" stroke="#784B26" stroke-width="1.38887"/>
<path d="M29.765 14.5615C29.809 15.3833 29.7264 16.4713 29.3858 17.3567C29.0404 18.3433 28.6649 19.3268 28.6834 20.3485C28.1344 20.5353 27.5685 19.1604 27.04 19.9692C27.4373 21.0868 28.3546 21.9717 28.983 22.9786C29.0889 23.2908 29.9931 24.1059 29.47 24.2954C28.1495 23.8435 27.8294 22.1705 27.0104 21.1545C26.0591 19.4447 24.2857 18.2362 22.31 18.1528C21.5679 18.1723 19.155 17.9689 19.7829 19.2397C20.7074 19.8683 21.8468 20.2782 22.7597 20.9837C23.4399 21.0474 24.6727 22.1829 24.6009 22.6119C23.4045 22.1274 22.8446 21.5466 21.5557 21.0369C19.8093 20.3624 17.3936 20.7681 16.4267 22.5014C16.2465 22.9528 15.9803 24.2685 16.5472 24.3938C17.2096 23.3596 18.1571 22.2035 19.561 22.5137C20.6637 22.5998 18.3305 24.5679 19.223 24.172C19.5059 24.0465 20.1589 23.6178 20.612 23.573C21.065 23.5282 21.3181 23.8674 21.6618 23.9143C22.3493 24.0082 22.5386 24.2964 22.4749 24.464C22.3997 24.6619 22.1813 24.493 21.4824 24.7145C21.133 24.8253 20.9504 25.1324 20.5428 25.273C20.1353 25.4136 19.2874 25.4235 18.9705 25.2989C17.862 24.8173 16.0446 24.9012 15.699 26.2903C15.6987 26.9012 15.155 26.2228 14.9038 26.4867C14.7154 27.1533 14.6667 27.8377 13.678 27.7772C13.0778 28.4068 12.4632 29.0588 11.7012 29.5067C12.1484 30.5332 13.9203 28.4758 13.8375 29.3433C13.0629 30.3995 14.2361 30.6218 14.7496 29.8088C15.6182 28.8911 16.6939 27.774 17.9899 28.6989C18.6072 29.28 18.9659 28.3916 19.4127 28.4392C19.6942 29.1611 20.0484 28.4747 20.3678 28.2706C20.8909 28.2055 20.7437 28.9239 21.3651 28.4813C22.6037 27.6616 24.1274 28.3504 25.3373 27.5529C26.6251 26.9662 25.5181 28.0255 25.1627 28.4396C24.5968 29.537 25.0875 30.9777 23.8602 31.6593C23.3672 32.9672 24.4427 34.6914 23.3457 35.659C23.1861 36.2657 24.7565 36.1962 25.1972 36.4456C25.9695 36.4761 25.164 34.678 25.9303 34.4369C26.9579 35.073 26.9097 33.2994 26.6975 32.7524C26.7972 31.5089 26.8673 30.1493 27.4853 29.0229C28.1422 27.6425 28.7502 29.5852 28.0149 30.1317C27.5971 31.4011 26.9891 32.9897 27.9389 34.1702C28.2127 34.2314 28.4374 34.895 28.7919 35.0989C29.1463 35.3028 29.6305 35.0472 29.7188 34.4435C30.1735 32.6256 29.9444 30.6707 30.5937 28.9027C31.0519 28.355 31.6841 28.8144 31.9682 29.318C32.8781 30.3743 33.5176 31.6948 34.6191 32.5651C35.622 33.0344 36.509 33.7442 36.9712 34.7767C36.965 35.5734 39.2337 35.6955 38.5558 34.81C37.9053 33.948 38.3345 33.0858 38.9933 32.5126C39.3462 32.5997 39.2419 31.9677 38.9653 32.2177C38.5223 32.1132 38.494 31.3024 39.1097 31.6878C40.1468 32.0226 39.0288 30.9372 38.654 30.904C37.7771 30.3604 36.7696 29.7351 36.3385 28.7903C37.48 28.802 38.665 29.4176 39.8314 29.0358C40.7664 28.5554 41.7148 29.0758 42.0413 29.9C42.7641 29.7847 42.4559 29.0598 42.0413 28.8184C42.57 28.6003 42.9356 28.148 42.2946 27.749C41.956 27.3072 42.7485 26.5537 41.7744 26.5851C41.8062 25.841 41.5133 25.1601 40.7022 24.903C39.8897 24.215 37.5054 25.9167 37.5746 24.3657C37.3343 23.5216 38.5431 24.253 38.8809 23.832C39.2299 22.9421 37.2177 23.029 37.8817 22.339C38.3153 22.0598 40.3503 21.6588 38.7544 21.3601C37.9579 21.579 37.2744 21.4169 36.6476 21.0227C36.0763 21.9782 34.445 20.5038 34.7356 22.2026C34.5124 22.8428 33.0543 24.506 32.6598 23.2317C32.9954 22.233 34.7229 21.9065 34.1872 20.5599C34.105 19.7193 33.4081 20.7061 33.0797 20.6434C32.9135 20.1201 33.5826 19.5034 34.0489 19.3792C34.9743 20.091 35.0023 18.4813 35.8824 18.6122C36.5249 18.4694 35.6749 18.1938 35.4957 18.0729C35.6718 17.6026 36.6582 17.3622 35.691 16.9538C34.8375 16.3206 34.205 17.5841 33.5011 17.6515C32.8254 16.8887 34.1145 16.5221 34.4703 16.1204C34.4894 15.821 33.7186 16.0301 33.9505 15.7693C34.152 15.4092 35.5167 15.3824 34.8776 14.8422C33.9151 14.5118 32.6731 14.5942 31.7496 15.0223C31.1678 15.2106 30.9966 16.5262 30.4951 16.4716C30.2593 15.886 30.5719 14.7307 29.7647 14.5613L29.765 14.5615ZM34.3161 27.414C35.0495 27.2898 34.3316 28.5278 33.9789 28.5096C34.0101 28.0648 32.9182 28.1076 33.5957 27.7201C33.8154 27.5782 34.0601 27.47 34.3161 27.414Z" fill="#1E9A1C"/>
</g>
<defs>
<clipPath id="clip0_354_68">
<rect width="160" height="120" fill="white"/>
</clipPath>
</defs>
</svg>
