<svg width="160" height="120" viewBox="0 0 160 120" fill="none" xmlns="http://www.w3.org/2000/svg">
<g clip-path="url(#clip0_909_223947)">
<path d="M0 0H160V120H0" fill="#D91C16"/>
<path d="M57.3478 6.47845L56.9651 10.8209L60.9767 12.5267L56.7286 13.5046L56.3459 17.8471L54.1031 14.109L49.855 15.087L52.717 11.7988L50.4741 8.06078L54.4858 9.76662L57.3478 6.47845Z" fill="#FDD406"/>
<path d="M24.9999 12L29.0411 24.4377H42.1189L31.5388 32.1246L35.58 44.5623L24.9999 36.8754L14.4198 44.5623L18.461 32.1246L7.88086 24.4377H20.9586L24.9999 12Z" fill="#FDD406"/>
<path d="M69.2687 23.6759L71.3065 19.8223L67.3927 21.7421L64.3574 18.6132L64.9739 22.9287L61.0602 24.8485L65.355 25.5958L65.9714 29.9112L68.0092 26.0576L72.304 26.8048L69.2687 23.6759Z" fill="#FDD406"/>
<path d="M72.6361 39.9425L69.2035 42.6296L70.6984 46.7245L67.0821 44.2903L63.6495 46.9774L64.8471 42.7859L61.2308 40.3517L65.5872 40.1954L66.7848 36.0039L68.2796 40.0988L72.6361 39.9425Z" fill="#FDD406"/>
<path d="M56.9145 52.7404L57.1168 48.3858L54.3936 51.7899L50.3147 50.2518L52.7106 53.8937L49.9874 57.2977L54.1913 56.1444L56.5872 59.7862L56.7895 55.4317L60.9934 54.2784L56.9145 52.7404Z" fill="#FDD406"/>
</g>
<defs>
<clipPath id="clip0_909_223947">
<rect width="160" height="120" fill="white"/>
</clipPath>
</defs>
</svg>
