<svg width="160" height="120" viewBox="0 0 160 120" fill="none" xmlns="http://www.w3.org/2000/svg">
<path d="M0 120H160V0H0V120Z" fill="#0F3296"/>
<path d="M160 60L160 90.5H0V60H160Z" fill="white"/>
<path d="M0 80.5H160V70.5H0V80.5Z" fill="#E23726"/>
<path d="M36.2241 80.4585L37.4943 84.361H41.6074L38.2806 86.774L39.5517 90.6773L36.2241 88.265L32.896 90.6773L34.1675 86.774L30.84 84.361H34.9522M35.8833 60.0334L37.1544 63.935H41.2675L37.9399 66.3467L39.2109 70.2492L35.8833 67.8375L32.5557 70.2492L33.8268 66.3467L30.5 63.935H34.6123M94.0377 60.0462L95.3087 63.9401H99.4218L96.0942 66.3475L97.3653 70.2414L94.0377 67.8348L90.7101 70.2414L91.9811 66.3475L88.6536 63.9401H92.7658" fill="#FDD406"/>
<path d="M93.6575 80.4695L94.9285 84.3642H99.0424L95.7148 86.7716L96.9859 90.6663L93.6577 88.2597L90.331 90.6663L91.6012 86.7716L88.2744 84.3642H92.3867" fill="#FDD406"/>
<path d="M64.9544 39.0301L66.2254 42.9419H70.3393L67.0112 45.3592L68.2827 49.2709L64.9546 46.8536L61.627 49.2709L62.8981 45.3592L59.5713 42.9419H63.683" fill="#FDD406"/>
<path d="M64.9691 100.318L66.2393 104.23H70.3524L67.0256 106.647L68.2967 110.559L64.9691 108.142L61.641 110.559L62.9125 106.647L59.585 104.23H63.6972" fill="#FDD406"/>
<path d="M46.9768 44.8632L48.2479 48.775H52.3617L49.0336 51.1923L50.3052 55.1041L46.9771 52.6868L43.6495 55.1041L44.9205 51.1923L41.5938 48.775H45.7055" fill="#FDD406"/>
<path d="M82.9098 94.4987L84.18 98.4104H88.2939L84.9663 100.828L86.2379 104.74L82.9098 102.323L79.5822 104.74L80.8532 100.828L77.5256 98.4104H81.6379M47.6048 94.9621L48.8759 98.8738H52.989L49.6614 101.291L50.9324 105.203L47.6048 102.785L44.2773 105.203L45.5483 101.291L42.2207 98.8738H46.3338M82.389 44.4148L83.6601 48.3265H87.7732L84.4464 50.7438L85.7174 54.6556L82.3893 52.2383L79.0617 54.6556L80.3328 50.7438L77.006 48.3265H81.1183" fill="#FDD406"/>
</svg>
