<svg width="160" height="120" viewBox="0 0 160 120" fill="none" xmlns="http://www.w3.org/2000/svg">
<path d="M0 120H160V0H0V120Z" fill="#0F3296"/>
<path d="M160 60L160 90.5H0V60H160Z" fill="white"/>
<path d="M0 80.5H160V70.5H0V80.5Z" fill="#D91C16"/>
<path d="M34.2246 80.4585L35.4948 84.361H39.6079L36.2811 86.774L37.5522 90.6772L34.2246 88.265L30.8965 90.6772L32.168 86.774L28.8404 84.361H32.9527M33.8838 60.0333L35.1549 63.935H39.2679L35.9404 66.3467L37.2114 70.2491L33.8838 67.8374L30.5562 70.2491L31.8273 66.3467L28.5005 63.935H32.6128M92.0382 60.0461L93.3092 63.94H97.4223L94.0947 66.3475L95.3658 70.2414L92.0382 67.8348L88.7106 70.2414L89.9816 66.3475L86.654 63.94H90.7663" fill="#FDD406"/>
<path d="M91.6589 80.4696L92.93 84.3644H97.0439L93.7163 86.7718L94.9873 90.6665L91.6592 88.2599L88.3324 90.6665L89.6027 86.7718L86.2759 84.3644H90.3882" fill="#FDD406"/>
<path d="M62.9539 39.0301L64.2249 42.9419H68.3388L65.0107 45.3592L66.2822 49.271L62.9541 46.8537L59.6266 49.271L60.8976 45.3592L57.5708 42.9419H61.6826" fill="#FDD406"/>
<path d="M62.9686 100.318L64.2388 104.23H68.3519L65.0251 106.647L66.2962 110.559L62.9686 108.142L59.6405 110.559L60.9121 106.647L57.5845 104.23H61.6968" fill="#FDD406"/>
<path d="M44.9773 44.8631L46.2483 48.7749H50.3622L47.0341 51.1922L48.3057 55.104L44.9776 52.6867L41.65 55.104L42.921 51.1922L39.5942 48.7749H43.706" fill="#FDD406"/>
<path d="M80.9103 94.4988L82.1805 98.4106H86.2944L82.9668 100.828L84.2384 104.74L80.9103 102.323L77.5827 104.74L78.8537 100.828L75.5261 98.4106H79.6384M45.6053 94.9622L46.8764 98.874H50.9894L47.6619 101.291L48.9329 105.204L45.6053 102.786L42.2777 105.204L43.5488 101.291L40.2212 98.874H44.3343M80.3895 44.4149L81.6606 48.3267H85.7736L82.4469 50.744L83.7179 54.6558L80.3898 52.2385L77.0622 54.6558L78.3332 50.744L75.0065 48.3267H79.1187" fill="#FDD406"/>
</svg>
