<svg width="160" height="120" viewBox="0 0 160 120" fill="none" xmlns="http://www.w3.org/2000/svg">
<g clip-path="url(#clip0_909_101609)">
<path d="M0 80H160V120H0V80Z" fill="black"/>
<path d="M0 40H160V80H0V40Z" fill="white"/>
<path d="M0 0H160V40H0V0Z" fill="#D91C16"/>
<path d="M80.16 60.48L93.86 73.2L92.88 50.1C92.74 46.6 89.7 47.4 87.48 48.66C85.26 50.1 82.68 50.1 80 49.16C77.3 50.1 74.74 50.1 72.52 48.66C70.32 47.4 67.26 46.6 67.12 50.1L66.14 73.2L80.16 60.48Z" fill="white"/>
<path fill-rule="evenodd" clip-rule="evenodd" d="M69.0377 47.4654C70.1358 47.3823 71.4796 47.9143 72.5846 48.5472C72.5867 48.5484 72.5887 48.5496 72.5908 48.5509C74.7665 49.9622 77.2814 49.9688 79.9573 49.0372C79.985 49.0276 80.0153 49.0276 80.043 49.0373C82.6986 49.9687 85.2335 49.9623 87.4093 48.5509C87.4114 48.5495 87.4136 48.5482 87.4158 48.5469C88.5304 47.9143 89.8742 47.3823 90.9698 47.4654C91.5234 47.5073 92.0214 47.7072 92.3883 48.1368C92.753 48.5641 92.9742 49.2025 93.0099 50.0948L93.9899 73.1945C93.9921 73.2471 93.9623 73.2959 93.9145 73.318C93.8666 73.3401 93.8102 73.3311 93.7716 73.2953L80.159 60.6564L66.2274 73.2963C66.1885 73.3315 66.1323 73.34 66.0849 73.3177C66.0374 73.2955 66.0079 73.2469 66.0101 73.1945L66.9901 50.0948C66.9901 50.0948 66.9901 50.0947 66.9901 50.0947C67.0258 49.2022 67.2484 48.5638 67.6148 48.1366C67.9832 47.7071 68.483 47.5073 69.0377 47.4654ZM67.8121 48.3059C67.4967 48.6737 67.2842 49.2477 67.2499 50.1052L67.2499 50.1055L66.2831 72.8947L80.0727 60.3837C80.1226 60.3384 80.199 60.3388 80.2485 60.3847L93.7167 72.8896L92.7501 50.1055L92.7501 50.1052C92.7158 49.2475 92.5045 48.6734 92.1905 48.3057C91.8786 47.9403 91.4516 47.7626 90.9502 47.7246C89.9368 47.6478 88.6522 48.1446 87.5475 48.7712C85.296 50.23 82.6879 50.2308 79.9999 49.2976C77.2925 50.2308 74.704 50.2301 72.4523 48.771C71.358 48.1447 70.0733 47.6478 69.0573 47.7246C68.5545 47.7627 68.1256 47.9404 67.8121 48.3059Z" fill="#D3AE3B"/>
<path d="M68.7 49.3L67.74 71.76L66.14 73.2L67.12 50.1C67.5925 49.7377 68.1283 49.4664 68.7 49.3ZM70.62 50.9L69.82 69.7L68.22 71.3401L69.18 49.64C69.5 49.96 70.44 50.74 70.62 50.9ZM72.36 52.3401L71.74 68.0201L70.44 69.28L71.24 51.4C71.56 51.7 72.2 52.1601 72.36 52.3401ZM74.26 53.1401L73.64 66.5L72.38 67.5201L73 52.66C73.32 52.8 73.94 53.1401 74.26 53.1401ZM76.02 53.1401L75.56 64.28L74.26 65.5401L74.76 53.28C75.06 53.28 75.88 53.2801 76.02 53.1401Z" fill="#D3AE3B"/>
<path d="M91.3 49.3L92.26 71.76L93.86 73.2L92.88 50.1C92.4075 49.7377 91.8717 49.4664 91.3 49.3ZM89.38 50.9L90.18 69.7L91.78 71.3401L90.82 49.64C90.5 49.96 89.56 50.74 89.38 50.9ZM87.64 52.3401L88.26 68.0201L89.56 69.28L88.76 51.4C88.44 51.7 87.8 52.1601 87.64 52.3401ZM85.74 53.1401L86.36 66.5L87.62 67.5201L87 52.66C86.68 52.8 86.06 53.1401 85.74 53.1401ZM83.98 53.1401L84.44 64.28L85.74 65.5401L85.24 53.28C84.94 53.28 84.12 53.2801 83.98 53.1401Z" fill="#D3AE3B"/>
<path d="M80.64 63L82.56 71.76L81.92 72.4L81.26 71.9L80.18 64.1L80.64 71.9L80 72.7L79.38 71.9L79.84 64.1L78.74 71.9L78.08 72.4L77.44 71.76L79.36 63.02H80.64V63Z" fill="#D3AE3B"/>
<path fill-rule="evenodd" clip-rule="evenodd" d="M79.2715 62.91H80.64V62.9881L80.7474 62.9765L82.6803 71.7953L81.93 72.5456L81.1573 71.9602L80.4543 66.8834L80.7523 71.9357L79.9986 72.8778L79.2678 71.9348L79.5708 66.7969L78.8426 71.9603L78.07 72.5456L77.3196 71.7952L79.2715 62.91ZM80.5559 63.13H79.4485L77.5604 71.7248L78.09 72.2545L78.6374 71.8397L79.7311 64.0847L79.9498 64.1065L79.4922 71.8653L80.0014 72.5222L80.5277 71.8643L80.0702 64.1065L80.289 64.0849L81.3627 71.8398L81.91 72.2545L82.4397 71.7248L80.5559 63.13Z" fill="#D3AE3B"/>
<path d="M75.7 59.16L71.88 72.7L77.14 73.5L79.36 63.32L75.7 59.16Z" fill="white"/>
<path fill-rule="evenodd" clip-rule="evenodd" d="M75.6734 59.043C75.7163 59.0333 75.7611 59.0478 75.7901 59.0808L79.4501 63.2408C79.4753 63.2694 79.4854 63.3083 79.4773 63.3456L77.2573 73.5256C77.2438 73.5875 77.1846 73.6282 77.122 73.6187L71.862 72.8187C71.8279 72.8135 71.7978 72.794 71.7791 72.765C71.7605 72.7361 71.7552 72.7006 71.7645 72.6675L75.5845 59.1275C75.5965 59.0852 75.6306 59.0528 75.6734 59.043ZM75.7556 59.4049L72.0324 72.6018L77.0468 73.3645L79.2298 63.3538L75.7556 59.4049Z" fill="#D3AE3B"/>
<path fill-rule="evenodd" clip-rule="evenodd" d="M77.4696 62.6342L74.9896 64.9942C74.9586 65.0237 74.9151 65.036 74.8733 65.0273C74.8314 65.0185 74.7966 64.9896 74.7801 64.9502L74.3201 63.8502L74.5599 63.7499L74.9471 64.6757L77.2904 62.4459L77.4696 62.6342Z" fill="#D3AE3B"/>
<path fill-rule="evenodd" clip-rule="evenodd" d="M76.5507 65.8739L76.0307 61.0139L76.2893 60.9862L76.7745 65.5208L78.1565 63.7014L78.3635 63.8587L77.7718 64.6377L78.4104 66.8653L78.7115 66.4085L78.9286 66.5516L78.5048 67.1946L78.605 67.5442L78.355 67.6159L78.3163 67.4806L77.2033 69.1692L77.7472 71.7331L77.4928 71.787L76.9978 69.4534L75.9689 71.031C75.9415 71.073 75.8925 71.0955 75.8428 71.0889C75.7931 71.0823 75.7517 71.0477 75.7363 71L75.2028 69.3479L74.1906 70.9883C74.1634 71.0324 74.1126 71.0562 74.0613 71.0487C74.01 71.0412 73.968 71.004 73.9545 70.9539L73.1345 67.9139C73.1225 67.8695 73.1349 67.8221 73.167 67.7892L74.807 66.1092C74.8395 66.0759 74.8874 66.0625 74.9325 66.0742C74.9776 66.0858 75.013 66.1207 75.0254 66.1656L75.4549 67.7292L76.4759 66.3623C76.5068 66.3208 76.5595 66.3016 76.6099 66.3135C76.6603 66.3254 76.6988 66.3661 76.708 66.4171L77.1349 68.8006L78.2219 67.1513L77.5754 64.8962L76.7835 65.9387C76.7513 65.9811 76.6965 65.9996 76.6451 65.9853C76.5938 65.971 76.5564 65.9268 76.5507 65.8739ZM76.923 69.0922L76.5049 66.7579L75.5042 68.0978C75.4745 68.1376 75.4247 68.157 75.3759 68.1478C75.3271 68.1386 75.2878 68.1024 75.2747 68.0545L74.8347 66.453L73.4048 67.9178L74.1272 70.5959L75.1294 68.9718C75.156 68.9286 75.2053 68.9049 75.2556 68.911C75.3059 68.9171 75.3481 68.9518 75.3637 69.0001L75.9 70.6608L76.923 69.0922Z" fill="#D3AE3B"/>
<path fill-rule="evenodd" clip-rule="evenodd" d="M74.0812 70.7718C74.1304 70.7799 74.1706 70.8154 74.1847 70.8632L74.7808 72.8794L75.5886 71.5331C75.6148 71.4894 75.6642 71.4651 75.7148 71.4709C75.7655 71.4767 75.8081 71.5116 75.8237 71.5601L76.4437 73.4801L76.1963 73.56L75.6643 71.9123L74.8515 73.2669C74.825 73.3111 74.7748 73.3355 74.7236 73.329C74.6725 73.3225 74.63 73.2863 74.6154 73.2369L74.0114 71.1941L73.1062 72.475L72.8939 72.325L73.9539 70.825C73.9826 70.7843 74.0321 70.7636 74.0812 70.7718Z" fill="#D3AE3B"/>
<path d="M84.3 59.16L88.12 72.7L82.86 73.5L80.64 63.32L84.3 59.16Z" fill="white"/>
<path fill-rule="evenodd" clip-rule="evenodd" d="M84.3266 59.043C84.2837 59.0333 84.2389 59.0478 84.2099 59.0808L80.5499 63.2408C80.5247 63.2694 80.5146 63.3083 80.5227 63.3456L82.7427 73.5256C82.7562 73.5875 82.8154 73.6282 82.878 73.6187L88.138 72.8187C88.1721 72.8135 88.2022 72.794 88.2209 72.765C88.2395 72.7361 88.2448 72.7006 88.2355 72.6675L84.4155 59.1275C84.4035 59.0852 84.3694 59.0528 84.3266 59.043ZM84.2444 59.4049L87.9676 72.6018L82.9532 73.3645L80.7702 63.3538L84.2444 59.4049Z" fill="#D3AE3B"/>
<path fill-rule="evenodd" clip-rule="evenodd" d="M82.5304 62.6342L85.0104 64.9942C85.0414 65.0237 85.0849 65.036 85.1267 65.0273C85.1686 65.0185 85.2034 64.9896 85.2199 64.9502L85.6799 63.8502L85.4401 63.7499L85.0529 64.6757L82.7096 62.4459L82.5304 62.6342Z" fill="#D3AE3B"/>
<path fill-rule="evenodd" clip-rule="evenodd" d="M83.4493 65.8739L83.9693 61.0139L83.7107 60.9862L83.2255 65.5208L81.8435 63.7014L81.6365 63.8587L82.2282 64.6377L81.5896 66.8653L81.2885 66.4085L81.0714 66.5516L81.4952 67.1946L81.395 67.5442L81.645 67.6159L81.6837 67.4806L82.7967 69.1692L82.2528 71.7331L82.5072 71.787L83.0022 69.4534L84.0311 71.031C84.0585 71.073 84.1075 71.0955 84.1572 71.0889C84.2069 71.0823 84.2483 71.0477 84.2637 71L84.7972 69.3479L85.8094 70.9883C85.8366 71.0324 85.8874 71.0562 85.9387 71.0487C85.99 71.0412 86.032 71.004 86.0455 70.9539L86.8655 67.9139C86.8775 67.8695 86.8651 67.8221 86.833 67.7892L85.193 66.1092C85.1605 66.0759 85.1126 66.0625 85.0675 66.0742C85.0224 66.0858 84.987 66.1207 84.9746 66.1656L84.5451 67.7292L83.5241 66.3623C83.4932 66.3208 83.4405 66.3016 83.3901 66.3135C83.3397 66.3254 83.3012 66.3661 83.292 66.4171L82.8651 68.8006L81.7781 67.1513L82.4246 64.8962L83.2165 65.9387C83.2487 65.9811 83.3035 65.9996 83.3549 65.9853C83.4062 65.971 83.4436 65.9268 83.4493 65.8739ZM83.077 69.0922L83.4951 66.7579L84.4958 68.0978C84.5255 68.1376 84.5753 68.157 84.6241 68.1478C84.6729 68.1386 84.7122 68.1024 84.7253 68.0545L85.1653 66.453L86.5952 67.9178L85.8728 70.5959L84.8706 68.9718C84.844 68.9286 84.7947 68.9049 84.7444 68.911C84.6941 68.9171 84.6519 68.9518 84.6363 69.0001L84.1 70.6608L83.077 69.0922Z" fill="#D3AE3B"/>
<path fill-rule="evenodd" clip-rule="evenodd" d="M85.9188 70.7718C85.8696 70.7799 85.8294 70.8154 85.8153 70.8632L85.2192 72.8794L84.4114 71.5331C84.3852 71.4894 84.3358 71.4651 84.2852 71.4709C84.2345 71.4767 84.1919 71.5116 84.1763 71.5601L83.5563 73.4801L83.8037 73.56L84.3357 71.9123L85.1485 73.2669C85.175 73.3111 85.2252 73.3355 85.2764 73.329C85.3275 73.3225 85.37 73.2863 85.3846 73.2369L85.9886 71.1941L86.8938 72.475L87.1061 72.325L86.0461 70.825C86.0174 70.7843 85.9679 70.7636 85.9188 70.7718Z" fill="#D3AE3B"/>
<path d="M80 78.76C84 78.76 87.8 78.44 90.04 77.82C90.98 77.64 90.98 77.16 90.98 76.52C91.94 76.2 91.46 75.08 92.12 75.08C91.44 75.28 91.32 73.98 90.52 74.14C90.52 73.02 89.38 72.88 88.44 73.2C86.54 73.82 83.18 73.98 80 73.98C76.8 73.82 73.48 73.82 71.56 73.18C70.62 72.88 69.5 73.02 69.5 74.14C68.7 73.98 68.56 75.26 67.9 75.08C68.56 75.08 68.06 76.22 69.02 76.52C69.02 77.16 69.02 77.64 69.98 77.82C72.18 78.44 76.02 78.76 80 78.76Z" fill="white"/>
<path fill-rule="evenodd" clip-rule="evenodd" d="M70.099 72.9007C70.5631 72.7402 71.1349 72.7925 71.633 72.9514L71.6359 72.9524L71.6359 72.9524C72.5644 73.2619 73.8476 73.4207 75.3163 73.5206C76.2211 73.5822 77.1824 73.6207 78.1636 73.6601C78.7729 73.6845 79.39 73.7093 80.006 73.7401C83.1896 73.7399 86.5072 73.5778 88.3641 72.9724C88.8635 72.8026 89.44 72.7453 89.9088 72.9025C90.1475 72.9826 90.3644 73.1208 90.5207 73.3337C90.6352 73.4897 90.7101 73.6763 90.7422 73.8911C90.8984 73.9079 91.0343 73.9684 91.1516 74.0524C91.3195 74.1727 91.4511 74.3431 91.5553 74.4789L91.559 74.4837C91.6722 74.631 91.754 74.7376 91.8414 74.8044C91.8813 74.8349 91.9167 74.8531 91.9546 74.8589C92.0074 74.8461 92.0627 74.8401 92.12 74.8401C92.2393 74.8401 92.3405 74.9277 92.3575 75.0458C92.3746 75.164 92.3022 75.2766 92.1877 75.3103C92.1362 75.3255 92.0864 75.3347 92.0385 75.3387C92.0304 75.345 92.0198 75.3565 92.0068 75.3791C91.9706 75.4425 91.9487 75.5289 91.9136 75.6669C91.9077 75.6898 91.9016 75.7141 91.8949 75.74C91.853 75.9025 91.7944 76.1071 91.6698 76.2935C91.5662 76.4484 91.422 76.5839 91.2196 76.6816C91.2172 76.941 91.1993 77.2187 91.0747 77.4546C90.9106 77.7654 90.596 77.9563 90.0948 78.0539C87.8213 78.6812 83.9996 79.0001 80 79.0001C76.0217 79.0001 72.1599 78.6814 69.9251 78.0539C69.416 77.9567 69.0962 77.767 68.9288 77.4565C68.8016 77.2207 68.783 76.9431 68.7804 76.6843C68.5786 76.5898 68.4349 76.4558 68.3325 76.3007C68.2092 76.1139 68.1535 75.9074 68.1141 75.7436C68.1074 75.7158 68.1013 75.6897 68.0955 75.6652C68.0632 75.5283 68.0427 75.4419 68.0078 75.3779C67.9937 75.352 67.9824 75.341 67.975 75.3357C67.9305 75.3324 67.8845 75.3246 67.8368 75.3116C67.7208 75.28 67.6462 75.1674 67.6621 75.0482C67.6781 74.929 67.7798 74.8401 67.9 74.8401C67.9516 74.8401 68.0016 74.845 68.0496 74.8555C68.088 74.8498 68.1252 74.831 68.1685 74.7972C68.254 74.7307 68.3343 74.6282 68.4431 74.4892C68.4482 74.4827 68.4534 74.4762 68.4586 74.4695C68.5648 74.334 68.6984 74.1661 68.8681 74.0478C68.9861 73.9657 69.122 73.9068 69.2776 73.8906C69.3091 73.6768 69.3826 73.4909 69.495 73.335C69.6488 73.1217 69.8628 72.9825 70.099 72.9007ZM68.449 75.187C68.5057 75.3068 68.5388 75.4504 68.5661 75.5686C68.5712 75.5905 68.5761 75.6116 68.5808 75.6315C68.619 75.7902 68.6596 75.9249 68.7331 76.0362C68.8012 76.1393 68.9045 76.2325 69.0916 76.291C69.1918 76.3223 69.26 76.4151 69.26 76.5201C69.26 76.8586 69.2658 77.0703 69.3512 77.2286C69.4226 77.3609 69.5795 77.5008 70.0242 77.5842C70.0312 77.5855 70.0382 77.5871 70.0451 77.5891C72.2118 78.1997 76.0244 78.5201 80 78.5201C83.995 78.5201 87.7683 78.1998 89.976 77.5888C89.9822 77.587 89.9885 77.5856 89.9949 77.5843C90.428 77.5014 90.5805 77.3627 90.6503 77.2305C90.7343 77.0713 90.74 76.8584 90.74 76.5201C90.74 76.4168 90.8061 76.325 90.9041 76.2924C91.0931 76.2294 91.1998 76.1328 91.2708 76.0266C91.3468 75.913 91.3895 75.7776 91.4301 75.6201C91.435 75.6009 91.4401 75.5806 91.4454 75.5595C91.4734 75.4467 91.5073 75.3108 91.5621 75.1949C91.558 75.1919 91.5539 75.1888 91.5499 75.1857C91.41 75.0788 91.2923 74.9249 91.1961 74.7992C91.1888 74.7897 91.1817 74.7804 91.1746 74.7712C91.0639 74.627 90.973 74.5149 90.8721 74.4427C90.7837 74.3793 90.6927 74.3503 90.5671 74.3754C90.4966 74.3895 90.4234 74.3712 90.3678 74.3257C90.3122 74.2801 90.28 74.212 90.28 74.1401C90.28 73.902 90.2201 73.7354 90.1337 73.6177C90.0468 73.4993 89.92 73.4125 89.7562 73.3576C89.4205 73.245 88.9576 73.2774 88.5173 73.4273L88.5145 73.4282L88.5144 73.4282C86.5723 74.062 83.1737 74.2201 80 74.2201C79.996 74.2201 79.992 74.22 79.988 74.2198C79.3809 74.1894 78.7661 74.1647 78.1561 74.1402C77.1684 74.1005 76.1933 74.0614 75.2837 73.9995C73.8131 73.8995 72.4769 73.7384 71.4856 73.4082C71.0441 73.2676 70.5866 73.24 70.2559 73.3544C70.0947 73.4102 69.9699 73.4972 69.8843 73.6158C69.7991 73.7339 69.74 73.9012 69.74 74.1401C69.74 74.212 69.7078 74.2801 69.6521 74.3257C69.5965 74.3712 69.5234 74.3895 69.4529 74.3754C69.3259 74.35 69.2327 74.3788 69.1425 74.4417C69.0404 74.5128 68.9477 74.6236 68.8364 74.7656C68.8278 74.7766 68.819 74.7879 68.81 74.7994C68.7141 74.9223 68.5981 75.0711 68.4633 75.176C68.4586 75.1797 68.4538 75.1834 68.449 75.187Z" fill="#D3AE3B"/>
<path d="M74.58 72.7C75.86 72.88 77.3 73.02 78.42 72.88C79.06 72.88 79.52 73.98 78.24 74.14C77.14 74.28 75.38 74.14 74.44 73.98C73.203 73.7635 71.9753 73.4966 70.76 73.18C69.64 72.7 70.44 71.78 71.08 71.9C72.2218 72.2658 73.3927 72.5335 74.58 72.7ZM85.42 72.7C84.14 72.88 82.7 73.02 81.62 72.88C80.94 72.88 80.48 73.98 81.76 74.14C82.88 74.28 84.62 74.14 85.56 73.98C86.36 73.82 88.12 73.52 89.24 73.18C90.36 72.7 89.56 71.78 88.92 71.9C87.7783 72.2659 86.6073 72.5336 85.42 72.7Z" fill="white"/>
<path fill-rule="evenodd" clip-rule="evenodd" d="M70.8023 73.0567C70.5453 72.9449 70.4183 72.8169 70.3648 72.7047C70.3123 72.5948 70.3212 72.4814 70.3758 72.374C70.4318 72.264 70.5354 72.1635 70.6625 72.0972C70.787 72.0323 70.9244 72.0053 71.0485 72.0265C72.1947 72.3932 73.3701 72.6616 74.5619 72.8288M70.8023 73.0567C72.011 73.3713 73.2319 73.6366 74.4621 73.8519C75.3958 74.0108 77.1415 74.1488 78.2236 74.0111L78.2238 74.011C78.5265 73.9732 78.7069 73.882 78.8066 73.7833C78.9034 73.6874 78.9339 73.5754 78.9209 73.4654C78.8932 73.2324 78.6729 73.0145 78.4275 73.0101C77.2901 73.1507 75.839 73.0084 74.5619 72.8288M70.5424 71.8666C70.7104 71.779 70.91 71.7359 71.1039 71.7723C71.1092 71.7733 71.1145 71.7746 71.1196 71.7762C72.2543 72.1398 73.418 72.4058 74.598 72.5713L74.5981 72.5713C75.8777 72.7513 77.3026 72.8887 78.4038 72.751C78.4092 72.7504 78.4146 72.75 78.42 72.75C78.8115 72.75 79.137 73.0801 79.1791 73.4347C79.201 73.6197 79.1465 73.8127 78.9896 73.968C78.8356 74.1205 78.5935 74.2268 78.2563 74.269C77.1385 74.4113 75.3645 74.2693 74.4182 74.1082L74.4175 74.1081C73.177 73.8909 71.9459 73.6233 70.7272 73.3058C70.7209 73.3042 70.7147 73.3021 70.7088 73.2995C70.4117 73.1722 70.221 73.0069 70.1301 72.8167C70.0376 72.6228 70.0588 72.4237 70.1441 72.2561C70.2281 72.091 70.3745 71.9541 70.5424 71.8666ZM89.8698 72.8167C89.779 73.0069 89.5882 73.1722 89.2912 73.2995C89.2868 73.3014 89.2823 73.303 89.2777 73.3044C88.3803 73.5769 87.0756 73.8238 86.1806 73.9931C85.9505 74.0367 85.7475 74.0751 85.5855 74.1075L85.5818 74.1082C84.6354 74.2693 82.8814 74.4112 81.7438 74.269C81.4066 74.2269 81.1643 74.1206 81.0108 73.9678C80.8542 73.812 80.801 73.6183 80.8261 73.4326C80.8746 73.0752 81.2129 72.75 81.62 72.75C81.6256 72.75 81.6311 72.7504 81.6367 72.7511C82.6975 72.8886 84.1218 72.7513 85.4019 72.5713L85.4019 72.5713C86.5819 72.4059 87.7456 72.1399 88.8803 71.7762C88.8854 71.7746 88.8907 71.7733 88.896 71.7723C89.09 71.7359 89.2895 71.779 89.4575 71.8666C89.6254 71.9541 89.7718 72.091 89.8558 72.2561C89.9412 72.4237 89.9623 72.6228 89.8698 72.8167ZM88.9514 72.0265C89.0755 72.0053 89.2129 72.0323 89.3374 72.0972C89.4645 72.1635 89.5681 72.264 89.6241 72.374C89.6788 72.4814 89.6876 72.5948 89.6351 72.7047C89.5814 72.8172 89.4538 72.9457 89.1952 73.0578C88.3134 73.3247 87.0353 73.5666 86.142 73.7358C85.9094 73.7798 85.703 73.8189 85.5363 73.8522C84.6023 74.011 82.8778 74.1488 81.7761 74.011C81.4733 73.9732 81.2931 73.882 81.1942 73.7835C81.0983 73.6881 81.069 73.5768 81.0838 73.4675C81.115 73.2371 81.3426 73.0144 81.6121 73.0101C82.7103 73.1507 84.1615 73.0083 85.438 72.8288M85.4381 72.8288C86.6299 72.6617 87.8052 72.3933 88.9514 72.0265L85.4381 72.8288Z" fill="#D3AE3B"/>
<path d="M70.6 72.0801C69.64 71.9001 69.2 73.0201 69.5 73.6601C69.64 73.3401 70.3 73.3401 70.44 73.0201C70.62 72.5401 70.3 72.5401 70.62 72.0801H70.6ZM74.44 75.0201C74.44 74.3801 75.06 74.4601 75.06 73.8201C75.06 73.5201 74.9 73.0201 74.58 73.0201C74.4134 73.0296 74.2561 73.1001 74.1381 73.2181C74.02 73.3361 73.9495 73.4934 73.94 73.6601C73.8 74.2801 74.44 74.3801 74.44 75.0201ZM78.98 73.2001C79.92 73.2001 79.82 74.4601 79.38 75.1001C79.38 74.6401 78.58 74.4601 78.58 74.1401C78.58 73.6601 79.3 73.6601 78.98 73.2001ZM89.38 72.0801C90.36 71.9001 90.82 73.0201 90.5 73.6601C90.36 73.3401 89.7 73.3401 89.56 73.0201C89.38 72.5401 89.7 72.5401 89.38 72.0801ZM85.6 75.0001C85.6 74.3601 84.96 74.4401 84.96 73.8001C84.96 73.5001 85.12 73.0001 85.44 73.0001C85.6066 73.0096 85.7639 73.0801 85.8819 73.1981C86 73.3161 86.0705 73.4734 86.08 73.6401C86.22 74.2601 85.58 74.3601 85.58 75.0001H85.6ZM81 73.2001C80.06 73.2001 80.16 74.4601 80.6 75.1001C80.6 74.6401 81.4 74.4601 81.4 74.1401C81.4 73.6601 80.68 73.6601 81 73.2001Z" fill="white"/>
<path fill-rule="evenodd" clip-rule="evenodd" d="M70.6117 71.95C70.0737 71.8543 69.6776 72.1245 69.4645 72.4981C69.2544 72.8665 69.2117 73.3513 69.3822 73.7152C69.4039 73.7614 69.4506 73.7907 69.5016 73.79C69.5527 73.7893 69.5986 73.7589 69.6191 73.7121C69.6386 73.6674 69.6802 73.625 69.7528 73.5816C69.8261 73.5379 69.9159 73.5017 70.0182 73.4607L70.0233 73.4587C70.1197 73.4201 70.2277 73.3769 70.3203 73.3216C70.4152 73.265 70.5086 73.1874 70.5591 73.0721C70.56 73.07 70.5609 73.0678 70.5617 73.0657C70.6114 72.933 70.6286 72.8278 70.629 72.7359C70.6293 72.6648 70.6189 72.6019 70.611 72.5543C70.6092 72.5431 70.6074 72.5328 70.606 72.5234C70.5985 72.4725 70.5963 72.4334 70.6084 72.3846C70.6211 72.3332 70.652 72.2616 70.7267 72.1543C70.7543 72.1145 70.7576 72.0627 70.7352 72.0198C70.7128 71.9769 70.6684 71.95 70.62 71.95H70.6117ZM70.4037 72.1908C70.0766 72.1891 69.8362 72.3714 69.6904 72.6269C69.555 72.8642 69.5081 73.1546 69.5538 73.4018C69.5753 73.386 69.5974 73.3716 69.6196 73.3584C69.7122 73.3031 69.8202 73.2599 69.9166 73.2213L69.9217 73.2193C70.024 73.1784 70.1138 73.1421 70.1871 73.0984C70.2582 73.0559 70.2995 73.0144 70.3196 72.9707C70.3587 72.8653 70.3688 72.7916 70.369 72.7348C70.3692 72.6877 70.3633 72.6512 70.3559 72.6062C70.3537 72.5924 70.3513 72.5777 70.3489 72.5617C70.339 72.4951 70.3323 72.4179 70.3559 72.3223C70.3662 72.2805 70.3819 72.2371 70.4037 72.1908ZM89.5963 72.1908C89.6181 72.2371 89.6337 72.2805 89.644 72.3223C89.6676 72.4179 89.661 72.4951 89.651 72.5617C89.6487 72.5777 89.6463 72.5924 89.644 72.6062C89.6366 72.6512 89.6307 72.6877 89.6309 72.7348C89.6311 72.7916 89.6412 72.8653 89.6803 72.9707C89.7004 73.0144 89.7417 73.0559 89.8128 73.0984C89.8861 73.1421 89.9759 73.1784 90.0782 73.2193L90.0833 73.2213C90.1797 73.2599 90.2877 73.3031 90.3803 73.3584C90.4041 73.3726 90.4278 73.3881 90.4507 73.4052C90.5018 73.1582 90.4549 72.8667 90.3153 72.6282C90.1682 72.3769 89.9252 72.1948 89.5963 72.1908ZM90.5397 72.4969C90.7556 72.8658 90.799 73.3526 90.6162 73.7182C90.5937 73.7633 90.5471 73.7913 90.4966 73.79C90.4462 73.7887 90.4011 73.7583 90.3809 73.7121C90.3613 73.6674 90.3197 73.625 90.2471 73.5816C90.1738 73.5379 90.084 73.5017 89.9817 73.4607L89.9766 73.4587C89.8802 73.4202 89.7722 73.3769 89.6796 73.3216C89.5847 73.265 89.4913 73.1874 89.4409 73.0721C89.4399 73.07 89.4391 73.0678 89.4382 73.0657C89.3885 72.933 89.3713 72.8278 89.3709 72.7359C89.3706 72.6648 89.381 72.6019 89.3889 72.5543C89.3908 72.5431 89.3925 72.5328 89.3939 72.5234C89.4015 72.4725 89.4036 72.4334 89.3916 72.3846C89.3789 72.3332 89.3479 72.2616 89.2732 72.1543C89.248 72.118 89.2429 72.0714 89.2598 72.0305C89.2766 71.9897 89.313 71.9601 89.3565 71.9522C89.9087 71.8507 90.3191 72.12 90.5397 72.4969ZM85.1966 73.3449C85.126 73.4884 85.09 73.6685 85.09 73.8C85.09 73.9359 85.1232 74.0261 85.169 74.0968C85.2176 74.1717 85.2835 74.2304 85.3656 74.3022L85.3704 74.3065C85.4364 74.3641 85.513 74.4312 85.5776 74.5169C85.6319 74.4206 85.6961 74.3391 85.7541 74.2654C85.7629 74.2543 85.7715 74.2433 85.78 74.2325C85.8513 74.1413 85.9067 74.0643 85.9393 73.9781C85.9703 73.8962 85.9827 73.7997 85.9531 73.6687C85.9516 73.6617 85.9506 73.6546 85.9502 73.6475C85.9425 73.5127 85.8854 73.3855 85.79 73.29C85.6955 73.1955 85.5699 73.1387 85.4366 73.1301C85.3545 73.1318 85.2692 73.1975 85.1966 73.3449ZM85.7213 74.8683C85.7538 74.6876 85.8524 74.5617 85.9647 74.4184C85.9714 74.4098 85.9781 74.4012 85.9849 74.3925C86.0562 74.3013 86.1345 74.197 86.1825 74.0701C86.2312 73.9414 86.2466 73.7961 86.2091 73.6218C86.1953 73.4273 86.1119 73.2442 85.9738 73.1062C85.8332 72.9656 85.6459 72.8816 85.4474 72.8702C85.446 72.8702 85.4447 72.8701 85.4433 72.8701C85.4422 72.87 85.4411 72.87 85.44 72.87C85.2031 72.87 85.0497 73.0546 84.9633 73.2301C84.8739 73.4117 84.83 73.6315 84.83 73.8C84.83 73.9842 84.8767 74.1239 84.9509 74.2383C85.0208 74.3461 85.1125 74.4262 85.1895 74.4936L85.1944 74.4979C85.2764 74.5696 85.3423 74.6283 85.3909 74.7033C85.4203 74.7486 85.4445 74.802 85.4581 74.8704C85.4528 74.9114 85.45 74.9546 85.45 75C85.45 75.0718 85.5082 75.13 85.58 75.13H85.6C85.6718 75.13 85.73 75.0718 85.73 75C85.73 74.9534 85.727 74.9096 85.7213 74.8683ZM74.5725 72.8902C74.575 72.8901 74.5775 72.89 74.58 72.89C74.8168 72.89 74.9702 73.0746 75.0566 73.2501C75.146 73.4317 75.19 73.6515 75.19 73.82C75.19 74.0033 75.1449 74.1425 75.0732 74.2567C75.0054 74.3645 74.9165 74.4448 74.8418 74.5123L74.8371 74.5165C74.7577 74.5882 74.694 74.6468 74.6469 74.7217C74.6024 74.7925 74.57 74.8833 74.57 75.02C74.57 75.0918 74.5118 75.15 74.44 75.15C74.3682 75.15 74.31 75.0918 74.31 75.02C74.31 74.7635 74.1928 74.614 74.0552 74.4384C74.0485 74.4298 74.0418 74.4212 74.035 74.4125C73.9638 74.3213 73.8854 74.217 73.8374 74.0901C73.7887 73.9614 73.7733 73.8161 73.8109 73.6418C73.8246 73.4473 73.9081 73.2642 74.0461 73.1262C74.1867 72.9856 74.374 72.9016 74.5725 72.8902ZM74.4493 74.5495C74.3935 74.4476 74.3264 74.3623 74.2658 74.2854C74.257 74.2743 74.2484 74.2633 74.2399 74.2525C74.1687 74.1613 74.1132 74.0843 74.0806 73.9981C74.0496 73.9162 74.0372 73.8197 74.0668 73.6887C74.0683 73.6817 74.0693 73.6746 74.0697 73.6675C74.0775 73.5327 74.1345 73.4055 74.2299 73.31C74.3244 73.2155 74.4501 73.1587 74.5833 73.1501C74.6654 73.1518 74.7507 73.2175 74.8233 73.3649C74.8939 73.5084 74.93 73.6885 74.93 73.82C74.93 73.9567 74.8975 74.0476 74.853 74.1184C74.806 74.1932 74.7422 74.2518 74.6628 74.3236L74.6581 74.3278C74.5915 74.388 74.5135 74.4584 74.4493 74.5495ZM78.8647 73.1398C78.8872 73.0969 78.9316 73.07 78.98 73.07C79.2467 73.07 79.4535 73.1608 79.5973 73.3197C79.7379 73.4751 79.8064 73.6826 79.8269 73.8977C79.8675 74.3252 79.7231 74.8303 79.4871 75.1737C79.4548 75.2206 79.3958 75.2411 79.3414 75.2242C79.287 75.2073 79.25 75.157 79.25 75.1C79.25 75.0263 79.2189 74.9579 79.1567 74.8861C79.0929 74.8124 79.0044 74.7446 78.9045 74.6734C78.888 74.6616 78.871 74.6496 78.8537 74.6375C78.7723 74.5802 78.6852 74.5189 78.6169 74.456C78.5354 74.3809 78.45 74.2769 78.45 74.14C78.45 73.8584 78.6474 73.6994 78.7755 73.5963C78.7902 73.5845 78.8039 73.5734 78.8164 73.5629C78.8878 73.503 78.9185 73.4665 78.9283 73.4348C78.9344 73.4153 78.9406 73.3711 78.8732 73.2743C78.8456 73.2345 78.8423 73.1827 78.8647 73.1398ZM79.1881 73.3586C79.2807 73.387 79.3509 73.4349 79.4045 73.4941C79.4958 73.595 79.551 73.7425 79.568 73.9223C79.594 74.1962 79.5287 74.517 79.4072 74.7855C79.3905 74.761 79.3723 74.7378 79.3532 74.7158C79.267 74.6164 79.1555 74.533 79.0554 74.4617C79.0356 74.4476 79.0164 74.434 78.9978 74.4209C78.917 74.3639 78.8476 74.315 78.793 74.2647C78.7245 74.2016 78.71 74.1632 78.71 74.14C78.71 73.989 78.8047 73.9105 78.9413 73.7973C78.955 73.7859 78.9691 73.7742 78.9835 73.7621C79.0521 73.7045 79.1415 73.6248 79.1766 73.5121C79.1923 73.4616 79.1958 73.4104 79.1881 73.3586ZM80.3826 73.3197C80.5264 73.1608 80.7332 73.07 81 73.07C81.0484 73.07 81.0928 73.0969 81.1152 73.1398C81.1376 73.1827 81.1343 73.2345 81.1067 73.2743C81.0393 73.3711 81.0455 73.4153 81.0516 73.4348C81.0615 73.4665 81.0921 73.503 81.1635 73.5629C81.176 73.5734 81.1897 73.5845 81.2044 73.5963C81.3325 73.6994 81.53 73.8584 81.53 74.14C81.53 74.2769 81.4445 74.3809 81.363 74.456C81.2947 74.5189 81.2076 74.5802 81.1262 74.6375C81.1089 74.6496 81.0919 74.6616 81.0754 74.6734C80.9755 74.7446 80.887 74.8124 80.8232 74.8861C80.761 74.9579 80.73 75.0263 80.73 75.1C80.73 75.157 80.6929 75.2073 80.6385 75.2242C80.5841 75.2411 80.5251 75.2206 80.4928 75.1737C80.2568 74.8303 80.1125 74.3252 80.153 73.8977C80.1735 73.6826 80.242 73.4751 80.3826 73.3197ZM80.5727 74.7855C80.4512 74.517 80.3859 74.1962 80.4119 73.9223C80.429 73.7425 80.4842 73.595 80.5754 73.4941C80.629 73.4349 80.6992 73.387 80.7918 73.3586C80.7841 73.4104 80.7876 73.4616 80.8033 73.5121C80.8385 73.6248 80.9278 73.7045 80.9964 73.7621C81.0108 73.7742 81.0249 73.7859 81.0386 73.7973C81.1752 73.9105 81.27 73.989 81.27 74.14C81.27 74.1632 81.2554 74.2016 81.1869 74.2647C81.1323 74.315 81.0629 74.3639 80.9821 74.4209C80.9635 74.434 80.9443 74.4476 80.9245 74.4617C80.8244 74.533 80.7129 74.6164 80.6267 74.7158C80.6076 74.7378 80.5895 74.761 80.5727 74.7855Z" fill="#D3AE3B"/>
<path d="M70.94 72.4C71.26 72.4 71.74 72.54 71.88 72.72L70.94 72.4ZM72.52 72.88C72.68 72.88 73.32 73.02 73.62 73.2L72.52 72.88ZM78.24 73.52C77.94 73.52 77.3 73.52 77.14 73.66L78.24 73.5V73.52ZM76.5 73.52C76.32 73.34 75.7 73.34 75.38 73.52H76.5ZM89.06 72.4C88.7207 72.4043 88.3915 72.5164 88.12 72.72L89.06 72.4ZM87.5 72.88C87.3 72.88 86.7 73.02 86.38 73.2L87.5 72.88ZM81.76 73.52C82.06 73.52 82.7 73.52 82.88 73.66L81.76 73.5V73.52ZM83.5 73.52C83.68 73.34 84.3 73.34 84.62 73.52H83.5Z" fill="white"/>
<path fill-rule="evenodd" clip-rule="evenodd" d="M89.1487 72.3848C89.1562 72.4284 89.1309 72.471 89.089 72.4853L88.149 72.8053C88.1071 72.8195 88.0611 72.8012 88.0404 72.7621C88.0197 72.723 88.0306 72.6746 88.066 72.6481C88.3527 72.433 88.7004 72.3146 89.0588 72.3101C89.1031 72.3095 89.1412 72.3412 89.1487 72.3848ZM70.8512 72.3854C70.8584 72.3419 70.896 72.3101 70.94 72.3101C71.1111 72.3101 71.3205 72.3471 71.5052 72.4069C71.5979 72.437 71.6866 72.4734 71.7625 72.5153C71.8372 72.5565 71.9054 72.6061 71.951 72.6648C71.9754 72.6962 71.9764 72.7399 71.9533 72.7723C71.9302 72.8047 71.8886 72.8181 71.851 72.8053L70.911 72.4853C70.8693 72.4711 70.844 72.4288 70.8512 72.3854ZM72.4309 72.8674C72.4372 72.823 72.4752 72.7901 72.52 72.7901C72.6127 72.7901 72.8227 72.828 73.0405 72.8855C73.2597 72.9435 73.5049 73.0261 73.6663 73.1229C73.7051 73.1462 73.7206 73.1946 73.7025 73.2361C73.6844 73.2775 73.6383 73.2991 73.5948 73.2865L72.4948 72.9665C72.4518 72.954 72.4246 72.9117 72.4309 72.8674ZM86.9617 72.8856C87.178 72.8278 87.3876 72.7901 87.5 72.7901C87.5449 72.7901 87.5829 72.8231 87.5891 72.8676C87.5953 72.912 87.5679 72.9543 87.5247 72.9666L86.4047 73.2866C86.3608 73.2991 86.3145 73.2768 86.2969 73.2347C86.2793 73.1926 86.2961 73.144 86.3359 73.1216C86.5055 73.0262 86.7439 72.9439 86.9617 72.8856ZM76.3162 73.3316C76.4115 73.3558 76.5021 73.3949 76.5636 73.4564C76.5894 73.4822 76.5971 73.5209 76.5831 73.5545C76.5692 73.5881 76.5364 73.6101 76.5 73.6101H75.38C75.3391 73.6101 75.3033 73.5825 75.2929 73.5429C75.2825 73.5033 75.3002 73.4617 75.3359 73.4416C75.5139 73.3414 75.7659 73.2951 75.9925 73.2951C76.1069 73.2951 76.219 73.3068 76.3162 73.3316ZM84.0075 73.2951C84.2341 73.2951 84.486 73.3414 84.6641 73.4416C84.6998 73.4617 84.7174 73.5033 84.707 73.5429C84.6967 73.5825 84.6609 73.6101 84.62 73.6101H83.5C83.4636 73.6101 83.4308 73.5881 83.4168 73.5545C83.4029 73.5209 83.4106 73.4822 83.4363 73.4564C83.4979 73.3949 83.5885 73.3558 83.6837 73.3316C83.781 73.3068 83.8931 73.2951 84.0075 73.2951ZM78.2989 73.432C78.3186 73.4491 78.33 73.4739 78.33 73.5001V73.5201C78.33 73.5698 78.2897 73.6101 78.24 73.6101C78.2006 73.6101 78.1556 73.6101 78.1068 73.6104L77.1529 73.7491C77.1135 73.7549 77.0749 73.7339 77.0582 73.6977C77.0416 73.6615 77.0507 73.6186 77.0807 73.5923C77.1388 73.5415 77.2282 73.5115 77.3173 73.4913C77.4104 73.4703 77.5195 73.4568 77.6303 73.4478C77.7889 73.4351 77.9561 73.4315 78.0932 73.4305L78.227 73.411C78.2529 73.4072 78.2791 73.4149 78.2989 73.432ZM81.701 73.4321C81.7207 73.415 81.7469 73.4073 81.7727 73.411L81.9093 73.4305C82.0461 73.4315 82.2127 73.4352 82.3721 73.4478C82.4841 73.4567 82.5949 73.4703 82.6905 73.4912C82.783 73.5114 82.8735 73.541 82.9352 73.589C82.9674 73.6141 82.9788 73.6577 82.9628 73.6952C82.9469 73.7328 82.9077 73.7549 82.8673 73.7492L81.8959 73.6104C81.8461 73.6101 81.8001 73.6101 81.76 73.6101C81.7103 73.6101 81.67 73.5698 81.67 73.5201V73.5001C81.67 73.474 81.6813 73.4492 81.701 73.4321Z" fill="#D3AE3B"/>
<path d="M70.66 74.9201C70.56 74.9001 70.5 74.8001 70.54 74.7201C70.56 74.5801 70.66 74.5201 70.74 74.5601C70.82 74.5601 70.92 74.6801 70.92 74.7201L70.84 74.8601L70.8 74.8801C70.8 74.9201 70.72 74.9201 70.66 74.9201ZM81.66 75.7001C81.62 75.7001 81.54 75.6001 81.54 75.5601C81.54 75.4801 81.66 75.3601 81.74 75.3601L81.9 75.4401C81.96 75.5001 81.96 75.6201 81.88 75.6801C81.84 75.7201 81.72 75.7201 81.66 75.6801V75.7001ZM81.72 76.2001C81.64 76.1601 81.62 76.1201 81.6 76.0401C81.6 75.9401 81.6 75.9201 81.7 75.8601L81.78 75.8201L81.86 75.8601C81.94 75.9001 82 75.9401 82 76.0201C82 76.0801 81.94 76.1401 81.86 76.1801C81.8 76.2201 81.78 76.2201 81.72 76.1801V76.2001Z" fill="#D3AE3B"/>
<path d="M71.56 74.0001C71.48 74.0001 71.38 74.0801 71.32 74.1201C71.2 74.1401 71.04 74.2201 70.92 74.1201C70.8 74.1001 70.64 74.1201 70.62 74.2801C70.64 74.4201 70.82 74.4801 70.94 74.4001C71.02 74.3001 71.24 74.2201 71.28 74.4001C71.18 74.5601 71.2 74.7401 71.12 74.8801C71.12 74.9801 71.06 75.0601 71.02 75.1401C70.92 75.1401 70.82 75.1401 70.74 75.2001C70.6779 75.2001 70.6166 75.2145 70.5611 75.2423C70.5056 75.2701 70.4572 75.3104 70.42 75.3601C70.34 75.4801 70.26 75.6001 70.24 75.7601C70.26 75.8801 70.44 75.9201 70.56 75.9401L70.96 76.0601L71.6 76.2401C71.92 76.3401 72.24 76.3801 72.56 76.4601L72.66 76.4801C72.8 76.5201 72.86 76.3801 72.86 76.2801L73.06 75.5601C73.1 75.4601 73.16 75.2601 72.98 75.3001C72.88 75.3601 72.78 75.4601 72.66 75.4601C72.48 75.4601 72.58 75.6601 72.66 75.7201C72.66 75.8401 72.62 75.9801 72.56 76.0801C72.44 76.1401 72.32 76.0801 72.2 76.0401C72.1 76.0401 71.86 75.9801 71.96 75.8401L72.06 75.4801C72.12 75.3601 72.12 75.2201 72.16 75.0801C72.08 74.9401 71.96 75.1401 71.86 75.1601C71.78 75.2001 71.54 75.2201 71.66 75.3601C71.78 75.4401 71.7 75.5801 71.66 75.7001C71.66 75.8401 71.5 75.9001 71.38 75.8401C71.26 75.8401 71.08 75.7401 71.18 75.6201L71.28 75.2601L71.42 74.8601C71.42 74.7201 71.48 74.6201 71.54 74.5001C71.54 74.3601 71.64 74.2401 71.64 74.1001C71.64 74.0401 71.6 74.0201 71.56 74.0201V74.0001ZM70.82 75.4601C70.8291 75.4548 70.8395 75.452 70.85 75.452C70.8605 75.452 70.8709 75.4548 70.88 75.4601C70.92 75.5001 70.92 75.5401 70.88 75.5801L70.82 75.6201C70.72 75.6201 70.7 75.6001 70.7 75.5601C70.7 75.5401 70.7 75.5201 70.76 75.5001C70.7843 75.4825 70.8114 75.469 70.84 75.4601H70.82ZM70.62 76.4601C70.52 76.3801 70.54 76.3201 70.68 76.2001C70.76 76.1601 70.78 76.1601 70.86 76.2201C70.98 76.3201 70.98 76.3801 70.86 76.4801C70.82 76.5201 70.8 76.5201 70.76 76.5201C70.7 76.5201 70.68 76.5201 70.62 76.4801V76.4601ZM71.22 76.6601C71.1753 76.6462 71.1378 76.6154 71.1154 76.5744C71.093 76.5333 71.0875 76.4851 71.1 76.4401C71.14 76.3601 71.16 76.3401 71.28 76.3401C71.42 76.3401 71.44 76.3601 71.46 76.4801C71.46 76.5601 71.46 76.5801 71.4 76.6201C71.3777 76.6377 71.3519 76.6504 71.3243 76.6573C71.2967 76.6642 71.268 76.6652 71.24 76.6601H71.22ZM89.06 76.6601C89.02 76.6401 89 76.6201 89 76.5601C89 76.4801 89.04 76.4201 89.16 76.3801C89.28 76.3201 89.36 76.3201 89.4 76.4201C89.46 76.5401 89.46 76.5801 89.38 76.6601C89.34 76.7201 89.32 76.7201 89.22 76.7201C89.12 76.7201 89.1 76.7201 89.06 76.6801V76.6601ZM72.06 76.9001C71.98 76.9001 71.94 76.8201 71.94 76.7401C71.94 76.6801 71.94 76.6601 71.98 76.6201L72.1 76.5801L72.22 76.6001C72.32 76.6801 72.34 76.7601 72.28 76.8401C72.22 76.9201 72.16 76.9201 72.04 76.9001H72.06ZM76.42 77.1001L76.38 77.0401C76.38 76.9201 76.38 76.8201 76.42 76.7001C76.44 76.6001 76.42 76.5001 76.46 76.4001L76.54 75.8401C76.54 75.7401 76.54 75.6401 76.58 75.5601C76.6 75.4001 76.58 75.2601 76.62 75.1201C76.62 75.0601 76.68 74.9201 76.74 75.0001C76.82 75.1201 76.92 75.2001 77.02 75.3001C77.1 75.3601 77.02 75.4401 76.96 75.4601C76.88 75.4801 76.86 75.5801 76.86 75.6601L76.82 75.9001C76.82 76.0401 76.82 76.1601 76.78 76.3001L76.76 76.6601L76.72 76.9001C76.72 76.9801 76.72 77.0801 76.64 77.1201C76.58 77.1601 76.48 77.1601 76.44 77.1001H76.42ZM82.36 75.1401L82.1 75.3801C81.98 75.4801 82.2 75.5201 82.22 75.6001C82.26 75.7201 82.26 75.8401 82.26 75.9601C82.3 76.0801 82.32 76.1801 82.3 76.3001C82.3 76.4401 82.14 76.4001 82.06 76.4801C81.96 76.5201 81.92 76.6201 81.86 76.6801C81.8124 76.7804 81.7852 76.8892 81.78 77.0001C81.78 77.1001 81.72 77.2001 81.78 77.2801L81.8 77.3201H81.9L82.2 77.3001C82.44 77.2601 82.7 77.2601 82.94 77.2401L83.38 77.2001C83.5 77.2201 83.56 77.1001 83.56 77.0001C83.48 76.8601 83.54 76.7201 83.48 76.6001C83.44 76.4401 83.46 76.3001 83.44 76.1601C83.44 76.0401 83.3 76.0001 83.24 76.0801C83.16 76.1601 83.04 76.1801 83 76.2601C82.94 76.3801 83.12 76.3801 83.16 76.4601L83.18 76.7601C83.2 76.8801 83.08 76.8801 82.98 76.9001C82.88 76.9401 82.74 76.9601 82.68 76.8401C82.64 76.7401 82.64 76.6401 82.64 76.5401C82.64 76.3401 82.58 76.1801 82.58 76.0001C82.58 75.8001 82.52 75.5801 82.52 75.3601C82.52 75.2601 82.5 75.1201 82.36 75.1401ZM82.24 76.7801H82.3V76.9401L82.24 76.9601C82.2138 76.9684 82.187 76.9751 82.16 76.9801C82.1467 76.9806 82.1333 76.9806 82.12 76.9801C82.08 76.9401 82.08 76.8801 82.14 76.8201L82.24 76.7801ZM76.24 74.9401C76.18 74.9401 76.08 75.0801 76 75.0601C75.82 75.0801 75.84 75.2601 75.98 75.3201V75.4801C76 75.6401 75.9 75.7801 75.92 75.9401C75.92 76.1001 75.86 76.2801 75.86 76.4601C75.8 76.6401 75.8 76.8201 75.78 77.0001C75.76 77.1601 75.64 77.1001 75.54 77.0601V76.8601C75.56 76.6801 75.44 76.6401 75.3 76.6201C75.16 76.6201 75.1 76.5201 75.14 76.4001C75.2 76.3201 75.34 76.3401 75.44 76.3401C75.64 76.3801 75.62 76.1201 75.52 76.0201C75.44 75.9001 75.28 75.8201 75.24 75.7001C75.24 75.5401 75.14 75.3601 75 75.2801C74.78 75.2601 74.6 75.4401 74.54 75.6401C74.44 75.6401 74.34 75.6801 74.26 75.7201C74.12 75.7601 73.92 76.0001 74.12 76.1001C74.22 76.1201 74.56 76.2001 74.4 76.3401C74.32 76.5001 74.16 76.5001 74.02 76.4601C73.88 76.4601 73.72 76.3801 73.72 76.2201C73.7 76.0601 73.7 75.9001 73.64 75.7601C73.6 75.6001 73.42 75.6401 73.4 75.8001C73.26 75.9001 73.28 76.0801 73.38 76.2001C73.44 76.3401 73.38 76.5201 73.32 76.6401C73.28 76.8401 73.08 76.8401 72.94 76.8801C72.88 76.9201 72.62 76.8801 72.72 77.0201C72.87 77.0891 73.0376 77.1101 73.2 77.0801C73.36 77.0801 73.5 76.9401 73.6 76.8001C73.7 76.7001 73.88 76.7601 74.04 76.7601C74.18 76.7601 74.34 76.8601 74.5 76.7801C74.54 76.6801 74.74 76.4801 74.8 76.6801C74.8 76.8601 74.94 76.9401 75.1 76.9201C75.28 76.9201 75.2 77.0401 75.2 77.1601C75.2 77.3401 75.34 77.4401 75.5 77.5201H75.66C75.8 77.4601 75.96 77.4001 76.02 77.2401C76.08 77.1001 76.08 76.9401 76.12 76.8001C76.16 76.5801 76.2 76.3401 76.2 76.1201C76.26 75.9201 76.24 75.7001 76.28 75.4801L76.34 75.0201C76.34 74.9201 76.3 74.9201 76.24 74.9401ZM74.9 75.7601C74.92 75.7601 74.94 75.8001 74.94 75.8601C74.94 75.9401 74.98 76.0001 75.04 76.0201V76.0801L74.88 76.1201C74.78 76.1201 74.7 76.0801 74.64 76.0201L74.6 75.9801L74.66 75.9401L74.76 75.8401C74.82 75.7801 74.86 75.7601 74.9 75.7601ZM88.1 74.1801C87.9849 74.1883 87.871 74.2084 87.76 74.2401C87.56 74.2401 87.46 74.4401 87.66 74.5601C87.78 74.8601 87.96 74.4801 88.16 74.5201C88.44 74.5601 88.46 74.8801 88.52 75.1201C88.52 75.3401 88.6 75.5601 88.66 75.7801C88.86 76.0001 88.52 76.1401 88.38 75.9801C88.26 75.8401 87.98 75.6801 87.84 75.8601C87.66 75.9401 87.64 76.1801 87.5 76.2601C87.26 76.3201 87.24 76.0201 87.1 75.9001C86.98 75.7201 86.76 75.7001 86.58 75.6601C86.5 75.4801 86.54 75.1801 86.38 75.0601C86.22 75.1201 85.94 75.4001 86.18 75.5401C86.38 75.7401 86.08 75.8201 85.98 75.9401C85.82 76.1201 85.78 76.3401 85.78 76.5401C85.52 76.6801 85.48 76.3801 85.44 76.2001C85.44 75.9801 85.24 76.0401 85.1 76.1201C84.9 76.2001 84.82 76.3801 84.7 76.5201V76.9201C84.74 77.1001 84.94 77.0201 85.06 77.0001C85.26 76.9201 85.34 77.1401 85.18 77.2601C85.06 77.3801 84.74 77.3201 84.78 77.5401H85.1C85.3 77.4801 85.54 77.3201 85.56 77.0801C85.6 76.8801 85.9 76.9001 86.06 76.8601C86.26 76.8001 86.52 76.7801 86.58 77.0601C86.72 77.2001 87.02 77.3601 87.18 77.1601C87.2562 77.1118 87.3172 77.043 87.3561 76.9617C87.395 76.8803 87.4102 76.7897 87.4 76.7001C87.38 76.5401 87.66 76.5401 87.74 76.6401C87.84 76.8001 88.16 76.7601 88.32 76.6401C88.48 76.5401 88.52 76.3201 88.76 76.3201L89.84 76.0201C90.12 75.9601 89.8 75.7801 89.72 75.6601C89.52 75.5601 89.32 76.0001 89.08 75.7801C88.88 75.6401 88.9 75.3801 88.84 75.1601C88.78 74.8801 88.8 74.5601 88.6 74.3601C88.48 74.2201 88.28 74.1801 88.1 74.1801ZM86.74 76.0801C86.76 76.0801 86.8 76.0801 86.84 76.1201C86.92 76.1601 86.98 76.2401 86.98 76.3201C86.98 76.3601 86.98 76.3601 86.92 76.3801L86.82 76.4201C86.78 76.4201 86.68 76.3601 86.68 76.3201V76.2401C86.64 76.1601 86.64 76.1601 86.68 76.1201L86.74 76.0801ZM88.04 76.1601C88.12 76.1601 88.16 76.1601 88.2 76.2201C88.22 76.3001 88.2 76.3401 88.12 76.3801L88.02 76.4201L87.94 76.3601C87.9 76.3401 87.88 76.3201 87.88 76.2801C87.88 76.2201 87.96 76.1601 88.04 76.1401V76.1601ZM86.24 76.1601C86.28 76.1601 86.3 76.1601 86.32 76.2001C86.36 76.2401 86.38 76.2601 86.38 76.3201V76.4401C86.38 76.5001 86.38 76.4801 86.26 76.4801C86.14 76.4801 86.12 76.4801 86.12 76.3601C86.12 76.2801 86.12 76.2601 86.18 76.2201C86.2 76.1801 86.24 76.1801 86.26 76.1801L86.24 76.1601ZM85.16 76.4601C85.1789 76.4658 85.1961 76.4761 85.21 76.49C85.224 76.504 85.2343 76.5212 85.24 76.5401C85.24 76.6001 85.24 76.6401 85.2 76.6601C85.14 76.6801 85.04 76.7001 85 76.6601C84.9994 76.6534 84.9994 76.6467 85 76.6401C84.96 76.6201 84.96 76.6001 85 76.5801V76.5601L85.04 76.5001C85.0523 76.4806 85.071 76.466 85.0929 76.4587C85.1147 76.4514 85.1384 76.4519 85.16 76.4601ZM87 76.7001L87.1 76.7201V76.8401H86.86L86.84 76.8001C86.84 76.7601 86.84 76.7401 86.88 76.7201L87 76.7001ZM83.58 77.6601C83.56 77.6601 83.52 77.6401 83.56 77.6201C83.58 77.5601 83.66 77.5401 83.72 77.5001C83.8289 77.4585 83.9253 77.3896 84 77.3001C84 77.2201 84.08 77.1801 84.08 77.1001L84.06 76.8201C84.033 76.736 83.976 76.6649 83.9 76.6201C83.84 76.6001 83.76 76.5801 83.74 76.5001C83.74 76.4401 83.8 76.3801 83.82 76.3201L83.94 76.0801C84 76.0201 84.08 76.0801 84.1 76.1201L84.2 76.3201C84.26 76.3801 84.3 76.4401 84.32 76.5201C84.36 76.6001 84.4 76.6601 84.4 76.7201L84.44 76.9801C84.44 77.0801 84.44 77.2001 84.4 77.3001L84.28 77.4601C84.22 77.5201 84.16 77.5801 84.08 77.6001C84.02 77.6201 83.98 77.6801 83.9 77.6801H83.6L83.58 77.6601ZM82.2 77.7401C82.16 77.7001 82.14 77.6801 82.14 77.6201C82.14 77.5601 82.14 77.5601 82.2 77.5001C82.28 77.4201 82.32 77.4201 82.48 77.5001C82.62 77.5801 82.68 77.5801 82.68 77.5201C82.7 77.4801 82.78 77.4201 82.88 77.4201C82.9169 77.4214 82.9523 77.4356 82.98 77.4601C83.02 77.5001 83.04 77.5201 83.04 77.6001C83.04 77.7001 83.04 77.7001 82.98 77.7601C82.92 77.8001 82.92 77.8001 82.84 77.8001C82.8044 77.7981 82.7703 77.7857 82.7418 77.7643C82.7133 77.743 82.6918 77.7136 82.68 77.6801C82.68 77.6401 82.68 77.6201 82.64 77.6601L82.6 77.6801C82.56 77.6801 82.48 77.7401 82.44 77.7801L82.34 77.8001C82.26 77.8001 82.26 77.8001 82.2 77.7401ZM78.24 75.9601C78.1 75.9601 77.96 76.0801 77.94 76.2201C77.98 76.3601 78.1 76.5201 78.02 76.6601C78.08 76.8601 77.86 76.9401 77.72 76.8401C77.64 76.6401 77.6 76.4401 77.46 76.2401C77.3 76.2001 77.24 76.4601 77.12 76.5601C77.18 76.7001 77.34 76.8401 77.36 77.0201C77.4 77.2201 77.28 77.4201 77.14 77.5001C77 77.6401 76.8 77.6001 76.64 77.6201C76.44 77.7401 76.78 77.7801 76.88 77.7801C77.08 77.8001 77.3 77.7801 77.48 77.6201C77.62 77.5601 77.6 77.2801 77.78 77.2601L78.74 77.3201C78.9 77.3601 79.16 77.3001 79.28 77.4201C79.28 77.6201 79.48 77.7801 79.66 77.8601C79.76 77.9001 79.86 77.7601 79.96 77.7401C80.16 77.6801 80.1 77.4401 80.22 77.3401H81.22C81.26 77.3401 81.28 77.2401 81.34 77.2001L81.3 76.8201C81.24 76.6601 81.3 76.4601 81.2 76.3201C81.02 76.2801 80.88 76.4201 80.72 76.4401C80.52 76.5201 80.38 76.7001 80.36 76.9001C80.26 77.0801 80.08 76.8601 80.16 76.7001L80.14 76.5001C80.04 76.4001 79.86 76.4401 79.72 76.4201L79.12 76.3801C78.92 76.3801 78.74 76.4001 78.58 76.3601C78.38 76.3601 78.38 76.1601 78.38 76.0001C78.34 75.9696 78.29 75.9553 78.24 75.9601ZM78.64 76.7001L78.84 76.7201H79.1C79.3 76.7601 79.5 76.7601 79.7 76.7601C79.74 76.7601 79.78 76.8001 79.82 76.8401V77.2401C79.82 77.3001 79.82 77.3801 79.78 77.4001C79.7695 77.416 79.7559 77.4296 79.74 77.4401C79.7107 77.4349 79.6829 77.4232 79.6587 77.4059C79.6345 77.3886 79.6144 77.3661 79.6 77.3401V77.0601C79.5604 77.0265 79.5116 77.0056 79.46 77.0001L78.94 76.9801L78.54 76.9601C78.48 76.9401 78.4 76.9601 78.36 76.8801C78.32 76.8401 78.38 76.7601 78.44 76.7401C78.5028 76.7119 78.5712 76.6983 78.64 76.7001ZM80.9 76.7601C80.92 76.7601 80.94 76.7601 80.94 76.8201L80.98 76.9201C80.98 76.9401 80.98 76.9601 80.94 76.9601C80.84 77.0001 80.74 77.0001 80.7 76.9601C80.7 76.9401 80.7 76.8601 80.74 76.8401L80.9 76.7601Z" fill="#D3AE3B"/>
<path d="M80 65.44C86.52 60.44 85.96 53.08 85.96 53.08L85.46 53.12C84.08 53.12 80.82 52.32 80.06 51.34C79.26 52.24 75.9 53.14 74.54 53.14L74.04 53.08C74.04 53.08 73.46 60.42 80 65.44Z" fill="white"/>
<path fill-rule="evenodd" clip-rule="evenodd" d="M80.0658 51.168L80.147 51.2726C80.3211 51.4972 80.6487 51.722 81.0788 51.9328C81.5057 52.1421 82.0215 52.332 82.5589 52.4921C83.6336 52.8123 84.7797 53.0092 85.4557 53.01L86.0613 52.9616L86.0697 53.0717L85.96 53.08C86.0697 53.0717 86.0697 53.0716 86.0697 53.0717L86.0698 53.0734L86.0702 53.0778L86.0712 53.0946C86.0721 53.1092 86.0733 53.1308 86.0746 53.1589C86.0772 53.2152 86.08 53.2979 86.0813 53.4047C86.084 53.6183 86.0803 53.9281 86.0554 54.3152C86.0057 55.0893 85.8709 56.1731 85.5311 57.4141C84.8514 59.8965 83.3503 63.0094 80.067 65.5273L80 65.5787L79.9331 65.5273C76.6398 62.9995 75.1387 59.8865 74.4614 57.4065C74.1228 56.1667 73.99 55.0848 73.9418 54.3122C73.9177 53.9258 73.9148 53.6167 73.9179 53.4036C73.9195 53.2971 73.9225 53.2145 73.9252 53.1584C73.9266 53.1303 73.9279 53.1088 73.9288 53.0942L73.9299 53.0775L73.9302 53.0731L73.9303 53.0719L73.9304 53.0715C73.9304 53.0714 73.9304 53.0714 74.04 53.08L73.9304 53.0715L73.9394 52.9572L74.5466 53.03C75.2117 53.0286 76.3756 52.8075 77.478 52.4723C78.0296 52.3046 78.5619 52.1095 79.0045 51.9014C79.4504 51.6918 79.7933 51.4745 79.9778 51.2669L80.0658 51.168ZM74.1434 53.2032C74.1413 53.2547 74.1391 53.323 74.1379 53.4068C74.1348 53.6148 74.1377 53.9183 74.1614 54.2985C74.2088 55.059 74.3397 56.1258 74.6736 57.3485C75.3367 59.7766 76.7999 62.8183 80.0001 65.3011C83.1902 62.8282 84.6533 59.7866 85.3189 57.356C85.6541 56.1319 85.7869 55.0632 85.8359 54.3011C85.8604 53.9201 85.8639 53.6159 85.8614 53.4074C85.8603 53.3209 85.8582 53.2509 85.8561 53.1987L85.4644 53.23H85.46C84.7554 53.23 83.5841 53.0271 82.4961 52.7029C81.9511 52.5406 81.4231 52.3467 80.9819 52.1304C80.5969 51.9416 80.2684 51.7312 80.0547 51.5029C79.832 51.713 79.4937 51.9146 79.0981 52.1005C78.6432 52.3143 78.1004 52.513 77.542 52.6828C76.4281 53.0215 75.236 53.25 74.54 53.25H74.5335L74.1434 53.2032Z" fill="#D3AE3B"/>
<path d="M85.44 53.6H85.28C84.04 53.6 81.16 52.98 80.04 52.02C78.88 52.9 75.94 53.62 74.72 53.62C74.6662 53.6179 74.6127 53.6113 74.56 53.6C74.5709 54.8639 74.7457 56.1211 75.08 57.34C75.8822 60.2768 77.607 62.878 80 64.76C82.3944 62.8709 84.1191 60.2629 84.92 57.32C85.2526 56.1075 85.4273 54.8572 85.44 53.6Z" fill="white"/>
<path fill-rule="evenodd" clip-rule="evenodd" d="M80.0435 51.9044L80.0986 51.9517C80.6424 52.4178 81.6255 52.8087 82.6386 53.0831C83.649 53.3569 84.6707 53.51 85.28 53.51H85.5309L85.53 53.6009C85.5173 54.8658 85.3414 56.1239 85.0068 57.3438C84.2008 60.3052 82.4653 62.9296 80.0558 64.8307L80.0001 64.8746L79.9444 64.8307C77.5362 62.9368 75.8005 60.3191 74.9932 57.3637C74.6569 56.1373 74.481 54.8724 74.47 53.6008L74.4691 53.4886L74.5788 53.512C74.6259 53.522 74.6737 53.5281 74.7218 53.53C75.32 53.5297 76.3499 53.3522 77.3782 53.0634C78.4089 52.7739 79.4199 52.3775 79.9856 51.9483L80.0435 51.9044ZM77.4269 53.2366C76.3912 53.5275 75.342 53.71 74.72 53.71H74.7166C74.6948 53.7092 74.673 53.7076 74.6513 53.7053C74.6708 54.9257 74.844 56.1389 75.1668 57.3162C75.9577 60.2115 77.6511 62.7787 79.9999 64.6452C82.3503 62.7716 84.0435 60.1978 84.8332 57.2964C85.1557 56.1206 85.3289 54.9088 85.3488 53.69H85.28C84.6494 53.69 83.611 53.5331 82.5915 53.2569C81.6063 52.9899 80.6212 52.607 80.0367 52.1343C79.4344 52.5679 78.4285 52.9553 77.4269 53.2366Z" fill="#D3AE3B"/>
<path d="M77.88 53C76.8057 53.3499 75.6888 53.5517 74.56 53.6L74.58 54.42C74.6483 55.4011 74.8158 56.3727 75.08 57.32C75.6177 59.287 76.5726 61.1151 77.88 62.68V53ZM82 53V62.84C83.3703 61.2391 84.3677 59.3537 84.92 57.32C85.1839 56.3727 85.3514 55.4011 85.42 54.42L85.44 53.62H85.28C84.52 53.62 83.2 53.38 82 52.98V53Z" fill="#D3AE3B"/>
<path d="M82.46 50.6C82.6 50.62 82.28 49.9 82.28 49.9C82.64 50.26 83.96 50.36 83.96 50.36C83.16 50 82.36 47.34 82.46 45.2C82.54 43.08 82.16 42.24 81.86 41.92C81.46 41.52 80.16 41.16 79.32 41.12C78.82 41.1 78.92 41.48 78.92 41.48C78.02 41.26 77.12 41.16 76.72 41.44C76.36 41.68 76.28 42.94 76.56 42.72C77.22 42.18 77.8 42.68 78.2 43.26C78.56 43.76 78.54 45.2 78.02 46.9C77.5596 48.1852 76.8832 49.3824 76.02 50.44C76.82 50.44 77.94 49.74 77.94 49.74L77.68 50.84C78.52 50.44 79.18 49.82 79.18 49.82L79.98 50.66C80.24 50.3 80.78 49.82 80.78 49.82C80.78 49.82 81.44 50.52 82.46 50.62V50.6Z" fill="white"/>
<path fill-rule="evenodd" clip-rule="evenodd" d="M78.9861 41.0556C79.0731 41.0088 79.1851 40.987 79.3251 40.9926L79.3261 40.9927C79.7586 41.0133 80.3041 41.1156 80.7919 41.263C81.0362 41.3368 81.2687 41.4227 81.4671 41.5167C81.6635 41.6098 81.835 41.7147 81.9502 41.8299L81.9516 41.8313L81.953 41.8328C82.2896 42.1918 82.6677 43.077 82.5874 45.2048L82.5874 45.206C82.5381 46.2599 82.7108 47.4456 82.9948 48.4115C83.1369 48.8944 83.3055 49.318 83.4854 49.6407C83.6687 49.9693 83.8518 50.1715 84.0124 50.2438L83.9504 50.4872L83.96 50.36C83.9504 50.4872 83.9504 50.4872 83.9504 50.4872L83.95 50.4871L83.9461 50.4868L83.9344 50.4859C83.9243 50.485 83.9096 50.4837 83.8907 50.482C83.8531 50.4785 83.7992 50.473 83.7335 50.4654C83.6021 50.4502 83.4228 50.426 83.2316 50.3904C83.0409 50.3548 82.8355 50.3072 82.6529 50.2443C82.6141 50.231 82.5756 50.2167 82.5379 50.2014C82.5395 50.206 82.5412 50.2106 82.5428 50.2152C82.5744 50.3049 82.6046 50.4022 82.6169 50.479C82.6225 50.514 82.6276 50.5629 82.6158 50.6079C82.6115 50.6244 82.6034 50.6464 82.5875 50.6675V50.7606L82.4476 50.7469C81.9117 50.6944 81.4724 50.4846 81.1687 50.2899C81.0166 50.1923 80.8973 50.0979 80.8158 50.0275C80.8022 50.0157 80.7896 50.0046 80.7781 49.9943C80.7241 50.0443 80.6496 50.1145 80.567 50.1959C80.4003 50.3601 80.2068 50.5639 80.0834 50.7347L79.9935 50.8591L79.1729 49.9974C79.1647 50.0045 79.156 50.012 79.1468 50.0199C79.0702 50.0857 78.9595 50.1773 78.8221 50.2816C78.548 50.4897 78.1654 50.7501 77.7348 50.9551L77.4948 51.0694L77.7482 49.9974C77.636 50.0584 77.4935 50.1321 77.3334 50.2058C76.951 50.3819 76.4495 50.5675 76.02 50.5675H75.7514L75.9213 50.3594C76.7746 49.3138 77.4435 48.1303 77.899 46.8598C78.1558 46.0195 78.2882 45.2464 78.3126 44.625C78.3249 44.3139 78.31 44.0433 78.2713 43.8226C78.2323 43.6001 78.1708 43.4376 78.0966 43.3345L78.0951 43.3324C77.8989 43.0479 77.6697 42.8009 77.4234 42.6855C77.3028 42.629 77.1804 42.6051 77.0549 42.6215C76.9293 42.6378 76.791 42.6958 76.6408 42.8187L76.6388 42.8203C76.5834 42.8638 76.4959 42.8994 76.4078 42.8483C76.3389 42.8083 76.3088 42.7339 76.2938 42.6819C76.2609 42.5679 76.2576 42.4046 76.2731 42.2405C76.2889 42.0731 76.3258 41.8891 76.3839 41.7288C76.4397 41.5747 76.5234 41.4185 76.648 41.3348C76.8849 41.1696 77.2468 41.1275 77.6383 41.1451C77.9911 41.1611 78.3908 41.227 78.7925 41.3188C78.7971 41.295 78.8041 41.2699 78.8144 41.2446C78.8433 41.1733 78.8969 41.1036 78.9861 41.0556ZM77.8725 49.6319L77.8719 49.6322L77.8698 49.6336L77.8608 49.6391C77.8528 49.6439 77.8408 49.6512 77.8252 49.6605C77.7939 49.6791 77.748 49.7059 77.6904 49.7381C77.575 49.8025 77.413 49.8884 77.2267 49.9742C76.9417 50.1054 76.6107 50.2313 76.3062 50.2851C77.0895 49.2752 77.7086 48.1474 78.1401 46.943L78.1411 46.9402L78.142 46.9373C78.4046 46.0788 78.5419 45.2829 78.5674 44.635C78.5802 44.3112 78.5651 44.0217 78.5225 43.7786C78.4803 43.538 78.4096 43.3335 78.3043 43.1866C78.1006 42.8914 77.84 42.599 77.5316 42.4546C77.3747 42.3811 77.2034 42.3449 77.022 42.3686C76.8583 42.3899 76.6942 42.4589 76.5315 42.5805C76.5178 42.5088 76.5144 42.3971 76.527 42.2645C76.5411 42.1144 76.5742 41.9521 76.6237 41.8156C76.6752 41.6733 76.7361 41.5826 76.7908 41.5461L76.7931 41.5445C76.9563 41.4303 77.2438 41.3826 77.6268 41.3999C78.0027 41.4169 78.4438 41.4949 78.8898 41.6039L79.0979 41.6547L79.0436 41.4486C79.0436 41.4486 79.0436 41.4487 79.0436 41.4486C79.0434 41.4477 79.0429 41.4454 79.0424 41.4424C79.0414 41.4363 79.0401 41.4268 79.0396 41.4153C79.0385 41.3912 79.0411 41.3642 79.0507 41.3404C79.0593 41.3193 79.0745 41.2976 79.107 41.2801C79.1419 41.2613 79.2048 41.2431 79.3145 41.2474C79.7219 41.2669 80.2462 41.3645 80.7182 41.5071C80.9538 41.5783 81.1738 41.6599 81.3579 41.7471C81.543 41.8348 81.6834 41.9243 81.7684 42.0087C82.0318 42.2911 82.4121 43.0867 82.3326 45.1946C82.282 46.2806 82.4593 47.4946 82.7502 48.4835C82.8957 48.9782 83.0708 49.4208 83.2627 49.7649C83.3512 49.9235 83.4458 50.0661 83.5461 50.1839C83.4627 50.1718 83.3719 50.1571 83.2784 50.1397C83.0941 50.1053 82.9021 50.0604 82.7359 50.0032C82.5658 49.9447 82.4389 49.8786 82.3702 49.8099L82.1636 49.9518L82.1637 49.9522L82.1643 49.9536L82.1668 49.9593C82.1678 49.9615 82.1689 49.9641 82.1703 49.9672C82.172 49.9712 82.1741 49.976 82.1764 49.9814C82.1847 50.0006 82.1964 50.0281 82.21 50.061C82.2374 50.127 82.2721 50.2141 82.3023 50.2999C82.3225 50.3572 82.3395 50.4108 82.3512 50.4557L82.3325 50.453V50.4752C81.911 50.4085 81.56 50.2378 81.3063 50.0752C81.166 49.9852 81.0565 49.8984 80.9824 49.8345C80.9454 49.8025 80.9174 49.7764 80.8989 49.7585C80.8897 49.7496 80.8828 49.7428 80.8784 49.7384L80.8737 49.7335L80.8728 49.7326L80.7879 49.6425L80.6953 49.7247L80.6948 49.7252L80.6936 49.7263L80.6888 49.7306L80.6707 49.7468C80.6552 49.7609 80.6327 49.7814 80.605 49.8071C80.5496 49.8584 80.473 49.9306 80.3881 50.0142C80.2548 50.1455 80.0975 50.3085 79.97 50.4646L79.185 49.6404L79.0928 49.7271L79.0925 49.7273L79.0913 49.7285L79.0861 49.7333C79.0813 49.7376 79.0742 49.7442 79.0647 49.7527C79.0457 49.7698 79.0174 49.7949 78.9807 49.8264C78.9074 49.8894 78.8006 49.9777 78.6679 50.0785C78.4557 50.2396 78.1788 50.4311 77.8675 50.601L78.1355 49.4675" fill="#D3AE3B"/>
<path fill-rule="evenodd" clip-rule="evenodd" d="M79.8103 45.4123L79.9401 45.42C80.0698 45.4278 80.0698 45.4278 80.0698 45.4279L80.0692 45.4377L80.0674 45.4662C80.0658 45.4912 80.0633 45.5278 80.0601 45.5747C80.0535 45.6686 80.0434 45.8038 80.0296 45.9693C80.002 46.3001 79.9593 46.7526 79.8991 47.2385C79.8388 47.7242 79.7608 48.245 79.6623 48.7122C79.5644 49.1762 79.444 49.5988 79.295 49.8808L79.0651 49.7593C79.1961 49.5113 79.3107 49.1189 79.4079 48.6585C79.5043 48.2013 79.5813 47.6884 79.641 47.2065C79.7008 46.725 79.7431 46.2762 79.7705 45.9477C79.7842 45.7835 79.7942 45.6494 79.8007 45.5565C79.804 45.5101 79.8064 45.4739 79.8079 45.4494L79.8097 45.4216L79.8103 45.4123ZM79.0912 45.5028L79.2201 45.52C79.3489 45.5373 79.3489 45.5374 79.3489 45.5374L79.3486 45.5399L79.3476 45.5472L79.3436 45.5753C79.3402 45.5999 79.335 45.6359 79.3281 45.682C79.3143 45.7742 79.2937 45.9067 79.2664 46.0686C79.2117 46.3921 79.13 46.8335 79.0218 47.3042C78.9136 47.7744 78.7785 48.2764 78.6166 48.7202C78.456 49.1604 78.264 49.5581 78.0361 49.8077L77.8441 49.6324C78.0361 49.422 78.2141 49.0647 78.3723 48.6311C78.5291 48.2012 78.6615 47.7107 78.7684 47.2459C78.8751 46.7816 78.9559 46.3455 79.01 46.0253C79.037 45.8652 79.0574 45.7343 79.0709 45.6436C79.0777 45.5982 79.0828 45.5628 79.0862 45.5389L79.09 45.5118L79.0909 45.5049L79.0912 45.5028ZM80.4301 45.5601C80.4301 45.5601 80.4301 45.56 80.5601 45.56C80.6901 45.56 80.6901 45.5601 80.6901 45.5601L80.6901 45.6008C80.6902 45.6276 80.6902 45.6669 80.6904 45.7172C80.6908 45.8177 80.6916 45.9621 80.6932 46.1373C80.6963 46.4878 80.7025 46.9614 80.715 47.4543C80.7275 47.9473 80.7462 48.4584 80.7741 48.8843C80.7881 49.0974 80.8044 49.2878 80.8231 49.4434C80.8422 49.6016 80.8629 49.7155 80.8838 49.7801L80.6363 49.86C80.6072 49.7696 80.5842 49.6341 80.565 49.4745C80.5454 49.3124 80.5288 49.1168 80.5147 48.9014C80.4864 48.4704 80.4676 47.9553 80.4551 47.4608C80.4426 46.9661 80.4363 46.491 80.4332 46.1396C80.4316 45.9639 80.4308 45.8191 80.4304 45.7182C80.4302 45.6677 80.4302 45.6282 80.4301 45.6013L80.4301 45.5601ZM81.2302 45.7469C81.2302 45.7469 81.2302 45.7468 81.3601 45.74L81.4899 45.7333L81.49 45.7352L81.4903 45.7416L81.4918 45.7669C81.4931 45.7892 81.4952 45.8223 81.4981 45.8648C81.5039 45.9499 81.5131 46.0728 81.5264 46.2239C81.5531 46.5262 81.5966 46.9403 81.6636 47.3883C81.7307 47.8366 81.821 48.3167 81.941 48.7514C82.0616 49.1885 82.2095 49.5692 82.387 49.8261L82.1731 49.9739C81.9706 49.6808 81.8135 49.2666 81.6904 48.8206C81.5666 48.3721 81.4744 47.8809 81.4065 47.4268C81.3385 46.9722 81.2945 46.5527 81.2674 46.2468C81.2539 46.0938 81.2446 45.9691 81.2387 45.8825C81.2358 45.8392 81.2336 45.8055 81.2323 45.7824L81.2307 45.7561L81.2304 45.7493L81.2302 45.7469Z" fill="#D3AE3B"/>
<path d="M78.4 43.92C78.3821 43.6881 78.3139 43.4628 78.2 43.26C77.8 42.66 77.22 42.18 76.56 42.72C76.56 42.72 76.78 42.02 77.28 42C77.64 41.98 78.5 42.28 79.26 43.56C79.26 43.56 78.7 43.44 78.56 43.56C78.32 43.76 78.42 43.92 78.42 43.92H78.4Z" fill="#D3AE3B"/>
<path d="M76.48 41.86C76.54 41.66 76.62 41.5 76.74 41.44C77.14 41.16 78.02 41.24 78.92 41.48C78.92 41.48 78.84 41.1 79.32 41.12C80.16 41.16 81.44 41.52 81.84 41.92C81.9681 42.0607 82.0698 42.2233 82.14 42.4C81.94 42.12 81.38 42.14 81.24 42.16C81.04 42.18 80.9 42.16 80.62 42.24C80.48 42.28 80.28 42.32 80.16 42.4C80.08 42.48 80 42.72 79.88 42.72C79.68 42.72 79.68 42.68 79.62 42.62C79.56 42.52 79.52 42.4 79.44 42.42C79.24 42.44 78.88 42.28 78.44 41.92C77.98 41.56 77.8 41.48 77.24 41.52C76.64 41.56 76.48 41.9 76.48 41.9V41.86Z" fill="#D3AE3B"/>
<path d="M79.76 42.38C79.8926 42.38 80 42.2726 80 42.14C80 42.0075 79.8926 41.9 79.76 41.9C79.6275 41.9 79.52 42.0075 79.52 42.14C79.52 42.2726 79.6275 42.38 79.76 42.38Z" fill="white"/>
</g>
<defs>
<clipPath id="clip0_909_101609">
<rect width="160" height="120" fill="white"/>
</clipPath>
</defs>
</svg>
