<svg width="160" height="120" viewBox="0 0 160 120" fill="none" xmlns="http://www.w3.org/2000/svg">
<path d="M160 0H0V120H160V0Z" fill="#54AEF2"/>
<path d="M68.5873 20.2918L75.6408 25.4164L72.9466 33.7082L80 28.5836L87.0534 33.7082L84.3593 25.4164L91.4127 20.2918H82.6942L80 12L77.3058 20.2918H68.5873Z" fill="white"/>
<path d="M119.708 57.3058L128 60L119.708 62.6942V71.4127L114.584 64.3593L106.292 67.0534L111.416 60L106.292 52.9466L114.584 55.6408L119.708 48.5873V57.3058Z" fill="white"/>
<path d="M87.0534 86.2918L84.3592 94.5836L91.4127 99.7082H82.6942L80 108L77.3058 99.7082H68.5873L75.6407 94.5836L72.9466 86.2918L80 91.4164L87.0534 86.2918Z" fill="white"/>
<path d="M53.7082 67.0534L45.4164 64.3592L40.2918 71.4127V62.6942L32 60L40.2918 57.3058V48.5873L45.4164 55.6407L53.7082 52.9466L48.5836 60L53.7082 67.0534Z" fill="white"/>
</svg>
