<svg width="160" height="120" viewBox="0 0 160 120" fill="none" xmlns="http://www.w3.org/2000/svg">
<path d="M0 0H160V120H0V0Z" fill="#021455"/>
<path d="M18.75 0L79.75 45.25L140.5 0H160V15.5L100 60.25L160 104.75V120H140L80 75.25L20.25 120H0V105L59.75 60.5L0 16V0H18.75Z" fill="white"/>
<path d="M106 70.25L160 110V120L92.25 70.25H106ZM60 75.25L61.5 84L13.5 120H0L60 75.25ZM160 0V0.75L97.75 47.75L98.25 36.75L147.5 0H160ZM0 0L59.75 44H44.75L0 10.5V0Z" fill="#E23726"/>
<path d="M60.25 0V120H100.25V0H60.25ZM0 40V80H160V40H0Z" fill="white"/>
<path d="M0 48.25V72.25H160V48.25H0ZM68.25 0V120H92.25V0H68.25Z" fill="#E23726"/>
</svg>
