<svg width="160" height="120" viewBox="0 0 160 120" fill="none" xmlns="http://www.w3.org/2000/svg">
<path d="M0 0H160V120H0V0Z" fill="#E23726"/>
<path d="M13.5 17H146.5V103H13.5V17Z" fill="#005801"/>
<path d="M13.5 17H146.5L13.5 103H146.5L13.5 17Z" fill="#FDD406"/>
<path d="M27.1777 60.0452C28.8825 63.4512 32.2805 67.2024 35.3029 68.5736C35.4497 65.1684 34.3665 60.7676 32.8133 57.2416L27.1777 60.0452Z" fill="#E23726"/>
<path d="M24.1138 48.5948C26.6538 54.0728 17.1006 66.9372 32.695 70.1852C30.8006 67.528 29.763 63.0844 30.279 59.6028C33.517 60.982 36.7638 64.1884 38.0398 67.1916C43.4174 52.198 27.4574 53.6228 24.1138 48.5948Z" fill="#FDD406"/>
<path d="M39.9184 103.61L35.3336 117.721L47.3364 109H32.5L44.5028 117.721L39.9184 103.61Z" fill="#FDD406"/>
<path d="M79.7548 103.61L75.17 117.721L87.1728 109H72.3364L84.3392 117.721L79.7548 103.61Z" fill="#FDD406"/>
<path d="M119.591 103.61L115.006 117.721L127.009 109H112.173L124.176 117.721L119.591 103.61Z" fill="#FDD406"/>
<path d="M119.591 0.5L115.006 14.6104L127.009 5.8896H112.173L124.176 14.6104L119.591 0.5Z" fill="#FDD406"/>
<path d="M79.7548 0.5L75.17 14.6104L87.1728 5.8896H72.3364L84.3392 14.6104L79.7548 0.5Z" fill="#FDD406"/>
<path d="M39.9184 0.5L35.3336 14.6104L47.3364 5.8896H32.5L44.5028 14.6104L39.9184 0.5Z" fill="#FDD406"/>
<path d="M80.0001 74.4C87.953 74.4 94.4001 67.9529 94.4001 60C94.4001 52.0471 87.953 45.6 80.0001 45.6C72.0472 45.6 65.6001 52.0471 65.6001 60C65.6001 67.9529 72.0472 74.4 80.0001 74.4Z" fill="#E23726"/>
<path d="M79.9999 46.7999L72.2411 70.6787L92.5539 55.9207H67.4463L87.7591 70.6787L79.9999 46.7999Z" fill="#FDD406"/>
</svg>
