<svg width="161" height="120" viewBox="0 0 161 120" fill="none" xmlns="http://www.w3.org/2000/svg">
<g clip-path="url(#clip0_307_66026)">
<path d="M0.455078 0H160.455V120H0.455078V0Z" fill="#D91C16"/>
<path d="M17.2549 16.8H143.655V103.2H17.2549V16.8Z" fill="#005801"/>
<path d="M17.2549 16.8H143.655L17.2549 103.2H143.655L17.2549 16.8Z" fill="#FDD406"/>
<path d="M25.1104 60.0452C26.8152 63.4512 30.2132 67.2024 33.2356 68.5736C33.3824 65.1684 32.2992 60.7676 30.746 57.2416L25.1104 60.0452Z" fill="#D91C16"/>
<path d="M22.0459 48.5948C24.5859 54.0728 15.0327 66.9372 30.6271 70.1852C28.7327 67.528 27.6951 63.0844 28.2111 59.6028C31.4491 60.982 34.6959 64.1884 35.9719 67.1916C41.3495 52.198 25.3895 53.6228 22.0459 48.5948Z" fill="#FDD406"/>
<path d="M40.3735 103.61L35.7887 117.721L47.7915 109H32.9551L44.9579 117.721L40.3735 103.61Z" fill="#FDD406"/>
<path d="M80.2094 103.61L75.6246 117.721L87.6274 109H72.791L84.7938 117.721L80.2094 103.61Z" fill="#FDD406"/>
<path d="M120.046 103.61L115.462 117.721L127.464 109H112.628L124.631 117.721L120.046 103.61Z" fill="#FDD406"/>
<path d="M120.046 0.5L115.462 14.6104L127.464 5.8896H112.628L124.631 14.6104L120.046 0.5Z" fill="#FDD406"/>
<path d="M80.2094 0.5L75.6246 14.6104L87.6274 5.8896H72.791L84.7938 14.6104L80.2094 0.5Z" fill="#FDD406"/>
<path d="M40.3735 0.5L35.7887 14.6104L47.7915 5.8896H32.9551L44.9579 14.6104L40.3735 0.5Z" fill="#FDD406"/>
<path d="M80.4547 74.4C88.4076 74.4 94.8547 67.9529 94.8547 60C94.8547 52.0471 88.4076 45.6 80.4547 45.6C72.5018 45.6 66.0547 52.0471 66.0547 60C66.0547 67.9529 72.5018 74.4 80.4547 74.4Z" fill="#D91C16"/>
<path d="M80.454 46.8L72.6952 70.6788L93.008 55.9208H67.9004L88.2132 70.6788L80.454 46.8Z" fill="#FDD406"/>
</g>
<defs>
<clipPath id="clip0_307_66026">
<rect width="160" height="120" fill="white" transform="translate(0.455078)"/>
</clipPath>
</defs>
</svg>
