<svg width="160" height="120" viewBox="0 0 160 120" fill="none" xmlns="http://www.w3.org/2000/svg">
<path d="M0 0H160V120H0V0Z" fill="white"/>
<path d="M90.6667 0H69.3333V48H0V72H69.3333V120H90.6667V72H160V48H90.6667V0Z" fill="#E23726"/>
<path d="M33.2188 11.724C30.4181 12.0919 27.5812 12.0919 24.7804 11.724C25.3907 14.7652 25.7719 17.8406 25.924 20.9244C22.8402 20.7722 19.7649 20.391 16.7236 19.7808C17.0915 22.5816 17.0915 25.4184 16.7236 28.2192C19.7649 27.609 22.8402 27.2278 25.924 27.0756C25.7719 30.1594 25.3907 33.2348 24.7804 36.276C27.5812 35.9081 30.4181 35.9081 33.2188 36.276C32.6086 33.2348 32.2274 30.1594 32.0752 27.0756C35.1591 27.2278 38.2344 27.609 41.2756 28.2192C40.9078 25.4184 40.9078 22.5816 41.2756 19.7808C38.2344 20.391 35.1591 20.7722 32.0752 20.9244C32.2274 17.8406 32.6086 14.7652 33.2188 11.724Z" fill="#E23726"/>
<path d="M126.78 11.724C129.581 12.0919 132.418 12.0919 135.219 11.724C134.609 14.7652 134.227 17.8406 134.075 20.9244C137.159 20.7722 140.234 20.391 143.276 19.7808C142.908 22.5816 142.908 25.4184 143.276 28.2192C140.234 27.609 137.159 27.2278 134.075 27.0756C134.227 30.1594 134.609 33.2348 135.219 36.276C132.418 35.9081 129.581 35.9081 126.78 36.276C127.391 33.2348 127.772 30.1594 127.924 27.0756C124.84 27.2278 121.765 27.609 118.724 28.2192C119.091 25.4184 119.091 22.5816 118.724 19.7808C121.765 20.391 124.84 20.7722 127.924 20.9244C127.772 17.8406 127.391 14.7652 126.78 11.724Z" fill="#E23726"/>
<path d="M24.7804 83.724C27.5812 84.0919 30.4181 84.0919 33.2188 83.724C32.6086 86.7652 32.2274 89.8406 32.0752 92.9244C35.1591 92.7722 38.2344 92.391 41.2756 91.7808C40.9078 94.5816 40.9078 97.4184 41.2756 100.219C38.2344 99.609 35.1591 99.2278 32.0752 99.0756C32.2274 102.159 32.6086 105.235 33.2188 108.276C30.4181 107.908 27.5812 107.908 24.7804 108.276C25.3907 105.235 25.7719 102.159 25.924 99.0756C22.8402 99.2278 19.7649 99.609 16.7236 100.219C17.0915 97.4184 17.0915 94.5816 16.7236 91.7808C19.7649 92.391 22.8402 92.7722 25.924 92.9244C25.7719 89.8406 25.3907 86.7652 24.7804 83.724Z" fill="#E23726"/>
<path d="M126.78 83.724C129.581 84.0919 132.418 84.0919 135.219 83.724C134.609 86.7652 134.227 89.8406 134.075 92.9244C137.159 92.7722 140.234 92.391 143.276 91.7808C142.908 94.5816 142.908 97.4184 143.276 100.219C140.234 99.609 137.159 99.2278 134.075 99.0756C134.227 102.159 134.609 105.235 135.219 108.276C132.418 107.908 129.581 107.908 126.78 108.276C127.391 105.235 127.772 102.159 127.924 99.0756C124.84 99.2278 121.765 99.609 118.724 100.219C119.091 97.4184 119.091 94.5816 118.724 91.7808C121.765 92.391 124.84 92.7722 127.924 92.9244C127.772 89.8406 127.391 86.7652 126.78 83.724Z" fill="#E23726"/>
</svg>
