<svg width="160" height="120" viewBox="0 0 160 120" fill="none" xmlns="http://www.w3.org/2000/svg">
<g clip-path="url(#clip0_909_305419)">
<path d="M160 0H0V120H160V0Z" fill="#D91C16"/>
<path d="M160 0H0V80.3906H160V0Z" fill="white"/>
<path d="M82.1427 54.5171H52.1427V75.1387H82.1427V54.5171Z" fill="black"/>
<path d="M67.7276 72.124H49.414L45.3546 74.7958V77.6269H67.7276" fill="#D91C16"/>
<path fill-rule="evenodd" clip-rule="evenodd" d="M49.3438 71.8896H67.962V72.3584H49.4842L45.589 74.9221V77.3925H67.962V77.8613H45.1202V74.6695L49.3438 71.8896Z" fill="black"/>
<path d="M60.0635 60.2783C62.7001 60.2783 64.8535 62.4764 64.8535 65.1855V72.1143H68.2959V45.8643H49.4141V72.1143H55.2734V65.1855C55.2734 62.5822 57.3898 60.2783 60.0635 60.2783Z" fill="#D91C16"/>
<path fill-rule="evenodd" clip-rule="evenodd" d="M49.1797 45.6299H68.5303V72.3486H64.6191V65.1855C64.6191 62.6007 62.5656 60.5127 60.0635 60.5127C57.5287 60.5127 55.5078 62.702 55.5078 65.1855V72.3486H49.1797V45.6299ZM49.6484 46.0986V71.8799H55.0391V65.1855C55.0391 62.4624 57.2509 60.0439 60.0635 60.0439C62.8346 60.0439 65.0879 62.3521 65.0879 65.1855V71.8799H68.0615V46.0986H49.6484Z" fill="black"/>
<path d="M64.5554 28.1069H55.8726V44.0254H64.5554V28.1069Z" fill="black"/>
<path d="M64.5312 41.5576H56.9333V38.8623H51.3623V41.5576H47.583V38.8623H45.3271V43.7549H64.5312M47.583 43.7372H63.9754V45.8643H47.583V43.7372Z" fill="#D91C16"/>
<path fill-rule="evenodd" clip-rule="evenodd" d="M45.0928 38.6279H47.8174V41.3232H51.1279V38.6279H57.1677V41.3232H64.7656V41.792H56.6989V39.0967H51.5967V41.792H47.3486V39.0967H45.5615V43.5205H47.3486V43.5028H64.2097V43.5205H64.7656V43.9893H64.2097V46.0986H47.3486V43.9893H45.0928V38.6279ZM47.8174 43.9893V45.6299H63.741V43.9893H47.8174Z" fill="black"/>
<path d="M54.0869 22.3242V38.8623H56.9333V34.3213C56.9333 32.6201 58.1343 31.2278 59.8145 31.1426C59.8686 31.1398 59.9207 31.1426 59.9756 31.1426C61.7317 31.1426 63.1543 32.5652 63.1543 34.3213V38.8623H65.8643V22.3242H54.0869Z" fill="#D91C16"/>
<path fill-rule="evenodd" clip-rule="evenodd" d="M53.8525 22.0898H66.0986V39.0967H62.9199V34.3213C62.9199 32.6946 61.6023 31.377 59.9756 31.377C59.9474 31.377 59.9257 31.3765 59.9068 31.3762C59.8775 31.3756 59.8551 31.3752 59.8263 31.3767C58.284 31.4549 57.1677 32.7313 57.1677 34.3213V39.0967H53.8525V22.0898ZM54.3213 22.5586V38.6279H56.6989V34.3213C56.6989 32.5088 57.9846 31.0008 59.8026 30.9085C59.8466 30.9063 59.8973 30.9071 59.9364 30.9077C59.9516 30.908 59.965 30.9082 59.9756 30.9082C61.8611 30.9082 63.3887 32.4357 63.3887 34.3213V38.6279H65.6299V22.5586H54.3213Z" fill="black"/>
<path d="M53.0615 20.083V22.3242H66.7725V20.083H53.0615Z" fill="#D91C16"/>
<path fill-rule="evenodd" clip-rule="evenodd" d="M52.8271 19.8486H67.0068V22.5586H52.8271V19.8486ZM53.2959 20.3174V22.0898H66.5381V20.3174H53.2959Z" fill="black"/>
<path d="M51.3037 15.791V20.083H67.7539V15.791H65.2197V17.9736H62.1582V15.791H57.4854V17.9736H54.4238V15.791H51.3037Z" fill="#D91C16"/>
<path fill-rule="evenodd" clip-rule="evenodd" d="M51.0693 15.5566H54.6582V17.7393H57.251V15.5566H62.3926V17.7393H64.9854V15.5566H67.9883V20.3174H51.0693V15.5566ZM51.5381 16.0254V19.8486H67.5195V16.0254H65.4541V18.208H61.9238V16.0254H57.7197V18.208H54.1895V16.0254H51.5381Z" fill="black"/>
<path fill-rule="evenodd" clip-rule="evenodd" d="M45.1202 74.5615H68.0469V75.0303H45.1202V74.5615Z" fill="black"/>
<path d="M82.3438 73.5059H67.1387L62.5537 75.7178V79.0137H82.3438" fill="#D91C16"/>
<path fill-rule="evenodd" clip-rule="evenodd" d="M67.0851 73.2715H82.5781V73.7402H67.1923L62.7881 75.8649V78.7793H82.5781V79.248H62.3193V75.5706L67.0851 73.2715Z" fill="black"/>
<path fill-rule="evenodd" clip-rule="evenodd" d="M82.8125 75.9463H62.5489V75.4775H82.8125V75.9463Z" fill="black"/>
<path d="M77.8573 54.5171H107.857V75.1387H77.8573V54.5171Z" fill="black"/>
<path d="M92.2724 72.124H110.586L114.645 74.7958V77.6269H92.2724" fill="#D91C16"/>
<path fill-rule="evenodd" clip-rule="evenodd" d="M110.656 71.8896H92.038V72.3584H110.516L114.411 74.9221V77.3925H92.038V77.8613H114.88V74.6695L110.656 71.8896Z" fill="black"/>
<path d="M99.9365 60.2783C97.2999 60.2783 95.1465 62.4764 95.1465 65.1855V72.1143H91.7041V45.8643H110.586V72.1143H104.727V65.1855C104.727 62.5822 102.61 60.2783 99.9365 60.2783Z" fill="#D91C16"/>
<path fill-rule="evenodd" clip-rule="evenodd" d="M110.82 45.6299H91.4697V72.3486H95.3809V65.1855C95.3809 62.6007 97.4344 60.5127 99.9365 60.5127C102.471 60.5127 104.492 62.702 104.492 65.1855V72.3486H110.82V45.6299ZM110.352 46.0986V71.8799H104.961V65.1855C104.961 62.4624 102.749 60.0439 99.9365 60.0439C97.1654 60.0439 94.9121 62.3521 94.9121 65.1855V71.8799H91.9385V46.0986H110.352Z" fill="black"/>
<path d="M95.4446 28.1069H104.127V44.0254H95.4446V28.1069Z" fill="black"/>
<path d="M95.4688 41.5576H103.067V38.8623H108.638V41.5576H112.417V38.8623H114.673V43.7549H95.4688M112.417 43.7372H96.0246V45.8643H112.417V43.7372Z" fill="#D91C16"/>
<path fill-rule="evenodd" clip-rule="evenodd" d="M114.907 38.6279H112.183V41.3232H108.872V38.6279H102.832V41.3232H95.2344V41.792H103.301V39.0967H108.403V41.792H112.651V39.0967H114.438V43.5205H112.651V43.5028H95.7903V43.5205H95.2344V43.9893H95.7903V46.0986H112.651V43.9893H114.907V38.6279ZM112.183 43.9893V45.6299H96.259V43.9893H112.183Z" fill="black"/>
<path d="M105.913 22.3242V38.8623H103.067V34.3213C103.067 32.6201 101.866 31.2278 100.186 31.1426C100.131 31.1398 100.079 31.1426 100.024 31.1426C98.2683 31.1426 96.8457 32.5652 96.8457 34.3213V38.8623H94.1357V22.3242H105.913Z" fill="#D91C16"/>
<path fill-rule="evenodd" clip-rule="evenodd" d="M106.147 22.0898H93.9014V39.0967H97.0801V34.3213C97.0801 32.6946 98.3977 31.377 100.024 31.377C100.053 31.377 100.074 31.3765 100.093 31.3762C100.123 31.3756 100.145 31.3752 100.174 31.3767C101.716 31.4549 102.832 32.7313 102.832 34.3213V39.0967H106.147V22.0898ZM105.679 22.5586V38.6279H103.301V34.3213C103.301 32.5088 102.015 31.0008 100.197 30.9085C100.153 30.9063 100.103 30.9071 100.064 30.9077C100.048 30.908 100.035 30.9082 100.024 30.9082C98.1389 30.9082 96.6113 32.4357 96.6113 34.3213V38.6279H94.3701V22.5586H105.679Z" fill="black"/>
<path d="M106.938 20.083V22.3242H93.2275V20.083H106.938Z" fill="#D91C16"/>
<path fill-rule="evenodd" clip-rule="evenodd" d="M107.173 19.8486H92.9932V22.5586H107.173V19.8486ZM106.704 20.3174V22.0898H93.4619V20.3174H106.704Z" fill="black"/>
<path d="M108.696 15.791V20.083H92.2461V15.791H94.7803V17.9736H97.8418V15.791H102.515V17.9736H105.576V15.791H108.696Z" fill="#D91C16"/>
<path fill-rule="evenodd" clip-rule="evenodd" d="M108.931 15.5566H105.342V17.7393H102.749V15.5566H97.6074V17.7393H95.0146V15.5566H92.0117V20.3174H108.931V15.5566ZM108.462 16.0254V19.8486H92.4805V16.0254H94.5459V18.208H98.0762V16.0254H102.28V18.208H105.811V16.0254H108.462Z" fill="black"/>
<path fill-rule="evenodd" clip-rule="evenodd" d="M114.88 74.5615H91.9531V75.0303H114.88V74.5615Z" fill="black"/>
<path d="M77.6562 73.5059H92.8613L97.4463 75.7178V79.0137H77.6562" fill="#D91C16"/>
<path fill-rule="evenodd" clip-rule="evenodd" d="M92.9149 73.2715H77.4219V73.7402H92.8077L97.2119 75.8649V78.7793H77.4219V79.248H97.6807V75.5706L92.9149 73.2715Z" fill="black"/>
<path fill-rule="evenodd" clip-rule="evenodd" d="M77.1875 75.9463H97.4511V75.4775H77.1875V75.9463Z" fill="black"/>
<path d="M88.108 70.3271C86.8638 70.7412 85.7392 71.4376 84.6069 72.0863C83.1536 72.9449 81.7444 73.8803 80.433 74.9451C79.9714 75.2494 79.5286 75.5829 79.1724 76.0107C78.6916 76.4221 78.2045 76.9739 78.2964 77.6574C78.3207 77.9589 78.7059 77.3034 78.9592 77.2717C79.401 77.0181 79.936 76.9363 80.4321 77.0508C81.028 76.4233 81.7962 76.0028 82.4594 75.4542C83.8679 74.4031 85.3828 73.5005 86.9243 72.66C87.4624 72.3842 88.0029 72.1042 88.5767 71.9092C88.4204 71.3818 88.2642 70.8545 88.108 70.3271Z" fill="#FDD406"/>
<path fill-rule="evenodd" clip-rule="evenodd" d="M88.2277 70.0977L88.7984 72.0239L88.6346 72.0796C88.09 72.2648 87.5745 72.529 87.0482 72.7988C87.0349 72.8056 87.0217 72.8124 87.0084 72.8192C85.4726 73.6568 83.9678 74.5535 82.5706 75.5958C82.3134 75.8083 82.0393 76.0031 81.7716 76.1934C81.6888 76.2522 81.6067 76.3106 81.5258 76.3689C81.1783 76.6197 80.8485 76.8737 80.5626 77.1748L80.4918 77.2493L80.3916 77.2262C79.9404 77.1221 79.4517 77.1966 79.0488 77.4278L79.0175 77.4458L78.9816 77.4503C78.9818 77.4503 78.9818 77.4503 78.9816 77.4503C78.9801 77.4507 78.97 77.4534 78.9499 77.4652C78.9274 77.4783 78.9004 77.4981 78.8687 77.525C78.8166 77.5693 78.7646 77.6214 78.71 77.6761C78.6964 77.6897 78.6827 77.7034 78.6688 77.7173C78.6356 77.7502 78.6008 77.784 78.5673 77.8128C78.5363 77.8395 78.4947 77.8722 78.4484 77.8931C78.4055 77.9123 78.3015 77.9447 78.2078 77.8684C78.1356 77.8096 78.1215 77.7231 78.1174 77.677C78.0152 76.8992 78.5663 76.2946 79.0439 75.8839C79.4132 75.4439 79.8665 75.1035 80.3264 74.7998C81.6446 73.7302 83.0594 72.7915 84.5154 71.9314L84.5174 71.9301C84.6627 71.8469 84.8083 71.7626 84.9545 71.678C85.9391 71.1079 86.949 70.5232 88.0511 70.1564L88.2277 70.0977ZM84.6974 72.2419C83.2497 73.0972 81.8487 74.0275 80.5464 75.0849L80.5395 75.0905L80.532 75.0955C80.0755 75.3964 79.65 75.7184 79.3107 76.126L79.301 76.1377L79.2894 76.1476C78.8722 76.5045 78.5066 76.924 78.4685 77.4084C78.5196 77.3572 78.578 77.2996 78.6357 77.2506C78.7 77.196 78.7917 77.1265 78.8959 77.1008C79.3413 76.8533 79.8699 76.7642 80.3717 76.8547C80.6641 76.5603 80.9901 76.3116 81.3152 76.077C81.4007 76.0152 81.486 75.9547 81.5705 75.8945C81.8371 75.7051 82.0976 75.5199 82.3447 75.3155L82.3481 75.3126L82.3518 75.31C83.7698 74.2517 85.2931 73.3445 86.8381 72.502L86.8401 72.5009L86.8422 72.4999C86.8591 72.4912 86.876 72.4826 86.8929 72.4739C87.3627 72.233 87.846 71.9852 88.3556 71.7967L87.9888 70.5587C86.9923 70.9148 86.0703 71.4483 85.1376 71.9881C84.9912 72.0728 84.8446 72.1576 84.6974 72.2419ZM78.4773 77.6532C78.4772 77.6534 78.4768 77.6519 78.4763 77.6483C78.4771 77.6513 78.4774 77.6531 78.4773 77.6532Z" fill="black"/>
<path fill-rule="evenodd" clip-rule="evenodd" d="M82.0627 73.543C82.1922 73.543 82.2971 73.6479 82.2971 73.7773V75.6111C82.2971 75.7405 82.1922 75.8454 82.0627 75.8454C81.9333 75.8454 81.8284 75.7405 81.8284 75.6111V73.7773C81.8284 73.6479 81.9333 73.543 82.0627 73.543Z" fill="black"/>
<path fill-rule="evenodd" clip-rule="evenodd" d="M83.1954 72.7432C83.3249 72.7432 83.4298 72.8481 83.4298 72.9775V74.7976C83.4298 74.927 83.3249 75.032 83.1954 75.032C83.066 75.032 82.9611 74.927 82.9611 74.7976V72.9775C82.9611 72.8481 83.066 72.7432 83.1954 72.7432Z" fill="black"/>
<path fill-rule="evenodd" clip-rule="evenodd" d="M84.3282 72.0376C84.4576 72.0376 84.5626 72.1425 84.5626 72.272V74.0805C84.5626 74.2099 84.4576 74.3148 84.3282 74.3148C84.1987 74.3148 84.0938 74.2099 84.0938 74.0805V72.272C84.0938 72.1425 84.1987 72.0376 84.3282 72.0376Z" fill="black"/>
<path fill-rule="evenodd" clip-rule="evenodd" d="M85.4609 71.3408C85.5903 71.3408 85.6953 71.4458 85.6953 71.5752V73.4414C85.6953 73.5709 85.5903 73.6758 85.4609 73.6758C85.3314 73.6758 85.2265 73.5709 85.2265 73.4414V71.5752C85.2265 71.4458 85.3314 71.3408 85.4609 71.3408Z" fill="black"/>
<path d="M71.9802 70.3857C71.7946 70.9033 71.6091 71.4209 71.4235 71.9385C74.019 72.923 76.4902 74.2254 78.8287 75.7168C79.6212 76.2562 80.454 76.7791 81.0768 77.5195C81.214 77.8997 80.8359 78.2175 80.4608 78.1027C80.1176 77.9861 79.7795 77.8534 79.4173 78.1008C78.8986 78.3366 78.4301 79.1047 79.2177 79.3623C80.303 80.0911 82.0684 79.7744 82.5901 78.4973C82.8627 77.8404 82.8802 76.9995 82.3522 76.4608C81.3854 75.3527 80.1035 74.582 78.8734 73.8021C76.6753 72.4801 74.3861 71.283 71.9802 70.3857Z" fill="#FDD406"/>
<path fill-rule="evenodd" clip-rule="evenodd" d="M71.8723 70.1533L72.0431 70.217C74.4628 71.1194 76.7623 72.3223 78.9662 73.6478L78.968 73.6489L78.9698 73.65C79.0601 73.7073 79.1509 73.7646 79.242 73.8221C80.3822 74.542 81.5701 75.292 82.4845 76.3386C83.08 76.9502 83.0423 77.8768 82.7566 78.5658C82.469 79.2693 81.842 79.6995 81.1556 79.8573C80.4786 80.0131 79.7236 79.9094 79.1378 79.5252C78.9242 79.4507 78.7683 79.3332 78.6843 79.1732C78.597 79.0069 78.6042 78.8265 78.6567 78.667C78.7569 78.3626 79.0367 78.081 79.3287 77.9434C79.7469 77.6662 80.1488 77.8047 80.4628 77.913C80.4808 77.9192 80.4985 77.9253 80.5159 77.9312C80.6409 77.9686 80.7624 77.9336 80.8401 77.8633C80.9086 77.8012 80.9436 77.7125 80.9162 77.6083C80.3812 76.9823 79.6907 76.5162 78.9863 76.0407C78.9009 75.983 78.8153 75.9252 78.7297 75.867C76.4001 74.3815 73.9407 73.0858 71.3597 72.1067L71.1945 72.044L71.8723 70.1533ZM72.0879 70.6185L71.6525 71.8332C74.2013 72.8152 76.6283 74.0999 78.9255 75.5649L78.9278 75.5664L78.93 75.5679C79.0154 75.626 79.1016 75.6841 79.1884 75.7427C79.8976 76.2209 80.6419 76.7228 81.2146 77.4036L81.2353 77.4282L81.2462 77.4584C81.3415 77.7224 81.2559 77.9723 81.0818 78.13C80.9114 78.2845 80.6574 78.351 80.4081 78.2747L80.4055 78.2739L80.403 78.273C80.3957 78.2706 80.3884 78.2681 80.3812 78.2656C80.031 78.1466 79.7895 78.0645 79.5188 78.2494L79.5059 78.2581L79.4918 78.2646C79.2702 78.3654 79.0638 78.5815 78.9986 78.7796C78.9676 78.8738 78.9729 78.9484 79.0031 79.0059C79.0335 79.0638 79.1058 79.1362 79.2737 79.1911L79.2974 79.1989L79.3181 79.2128C79.8147 79.5463 80.4754 79.6444 81.0749 79.5065C81.6728 79.369 82.1893 79.0025 82.4235 78.4292L82.4239 78.4283C82.6825 77.805 82.6801 77.0525 82.2237 76.5867L82.22 76.583L82.2166 76.5791C81.338 75.5721 80.1921 74.8482 79.0414 74.1213C78.9538 74.066 78.8663 74.0107 78.7788 73.9552C76.6393 72.6686 74.4173 71.503 72.0879 70.6185Z" fill="black"/>
<path d="M79.0859 74.0791L78.9395 75.6445L79.0859 74.0791Z" fill="#FDD406"/>
<path fill-rule="evenodd" clip-rule="evenodd" d="M79.1077 73.8458C79.2366 73.8578 79.3313 73.9721 79.3193 74.1009L79.1728 75.6663C79.1608 75.7952 79.0465 75.8899 78.9176 75.8779C78.7888 75.8658 78.6941 75.7515 78.7061 75.6227L78.8525 74.0573C78.8646 73.9284 78.9788 73.8337 79.1077 73.8458Z" fill="black"/>
<path d="M80.39 74.8779L79.9859 76.4106L80.39 74.8779Z" fill="#FDD406"/>
<path fill-rule="evenodd" clip-rule="evenodd" d="M80.4497 74.6514C80.5749 74.6844 80.6496 74.8126 80.6166 74.9377L80.2125 76.4704C80.1795 76.5956 80.0513 76.6703 79.9261 76.6373C79.801 76.6043 79.7263 76.4761 79.7593 76.3509L80.1633 74.8182C80.1963 74.6931 80.3245 74.6184 80.4497 74.6514Z" fill="black"/>
<path d="M81.7833 75.9429L80.9354 77.1322L81.7833 75.9429Z" fill="#FDD406"/>
<path fill-rule="evenodd" clip-rule="evenodd" d="M81.9194 75.752C82.0248 75.8272 82.0493 75.9735 81.9742 76.0789L81.1263 77.2683C81.0511 77.3737 80.9048 77.3982 80.7994 77.3231C80.694 77.248 80.6695 77.1016 80.7446 76.9962L81.5925 75.8068C81.6677 75.7014 81.814 75.6769 81.9194 75.752Z" fill="black"/>
<path d="M82.2103 78.8347L80.9868 78.1782L82.2103 78.8347Z" fill="#FDD406"/>
<path fill-rule="evenodd" clip-rule="evenodd" d="M80.7803 78.0675C80.8415 77.9534 80.9836 77.9105 81.0976 77.9717L82.3211 78.6282C82.4352 78.6894 82.478 78.8315 82.4168 78.9455C82.3556 79.0596 82.2136 79.1025 82.0995 79.0413L80.876 78.3848C80.7619 78.3236 80.7191 78.1815 80.7803 78.0675Z" fill="black"/>
<path d="M82.5912 77.5449L81.1871 77.6764L82.5912 77.5449Z" fill="#FDD406"/>
<path fill-rule="evenodd" clip-rule="evenodd" d="M82.8246 77.5231C82.8367 77.652 82.742 77.7662 82.6131 77.7783L81.209 77.9097C81.0801 77.9218 80.9659 77.8271 80.9538 77.6982C80.9417 77.5694 81.0364 77.4551 81.1653 77.443L82.5694 77.3116C82.6983 77.2995 82.8125 77.3942 82.8246 77.5231Z" fill="black"/>
<path d="M80.7805 79.5772L80.6843 78.3433L80.7805 79.5772Z" fill="#FDD406"/>
<path fill-rule="evenodd" clip-rule="evenodd" d="M80.6661 78.1096C80.7952 78.0996 80.9079 78.196 80.918 78.3251L81.0141 79.559C81.0242 79.688 80.9277 79.8008 80.7987 79.8108C80.6696 79.8209 80.5569 79.7244 80.5468 79.5954L80.4507 78.3615C80.4406 78.2324 80.5371 78.1197 80.6661 78.1096Z" fill="black"/>
<path d="M80.2663 78.167L79.1071 79.0212L80.2663 78.167Z" fill="#FDD406"/>
<path fill-rule="evenodd" clip-rule="evenodd" d="M80.455 78.028C80.5318 78.1322 80.5095 78.2789 80.4053 78.3557L79.2461 79.2099C79.1419 79.2866 78.9952 79.2644 78.9184 79.1602C78.8416 79.056 78.8638 78.9093 78.968 78.8325L80.1273 77.9783C80.2315 77.9015 80.3782 77.9238 80.455 78.028Z" fill="black"/>
<path fill-rule="evenodd" clip-rule="evenodd" d="M74.6922 71.4551C74.8216 71.4551 74.9266 71.56 74.9266 71.6895V73.1496C74.9266 73.2791 74.8216 73.384 74.6922 73.384C74.5628 73.384 74.4578 73.2791 74.4578 73.1496V71.6895C74.4578 71.56 74.5628 71.4551 74.6922 71.4551Z" fill="black"/>
<path fill-rule="evenodd" clip-rule="evenodd" d="M77.6391 73.0049C77.7685 73.0049 77.8735 73.1098 77.8735 73.2393V74.8959C77.8735 75.0253 77.7685 75.1303 77.6391 75.1303C77.5097 75.1303 77.4047 75.0253 77.4047 74.8959V73.2393C77.4047 73.1098 77.5097 73.0049 77.6391 73.0049Z" fill="black"/>
<path fill-rule="evenodd" clip-rule="evenodd" d="M76.1656 72.2314C76.2951 72.2314 76.4 72.3364 76.4 72.4658V74.0216C76.4 74.151 76.2951 74.2559 76.1656 74.2559C76.0362 74.2559 75.9313 74.151 75.9313 74.0216V72.4658C75.9313 72.3364 76.0362 72.2314 76.1656 72.2314Z" fill="black"/>
<path d="M70.5225 106.67V110.435H72.8809V108.545H76.0889V110.435H78.623V106.67H70.5225ZM70.5225 111.855V115.635H78.623V111.855H76.0889V113.745H72.8809V111.855H70.5225Z" fill="#FDD406"/>
<path fill-rule="evenodd" clip-rule="evenodd" d="M70.2881 106.436H78.8574V110.669H75.8545V108.779H73.1152V110.669H70.2881V106.436ZM70.7568 106.904V110.2H72.6465V108.311H76.3232V110.2H78.3887V106.904H70.7568ZM70.2881 111.621H73.1152V113.511H75.8545V111.621H78.8574V115.869H70.2881V111.621ZM70.7568 112.09V115.4H78.3887V112.09H76.3232V113.979H72.6465V112.09H70.7568Z" fill="black"/>
<path d="M80.9572 90.7744H78.618V118.016H80.9572V90.7744Z" fill="#FDD406"/>
<path fill-rule="evenodd" clip-rule="evenodd" d="M78.3837 90.54H81.1916V118.25H78.3837V90.54ZM78.8524 91.0088V117.781H80.7228V91.0088H78.8524Z" fill="black"/>
<path d="M80.9572 93.1309H78.618V116.597H80.9572V93.1309Z" fill="#FDD406"/>
<path fill-rule="evenodd" clip-rule="evenodd" d="M78.3837 92.8965H81.1916V116.831H78.3837V92.8965ZM78.8524 93.3652V116.362H80.7228V93.3652H78.8524Z" fill="black"/>
<path d="M79.7876 84.0967L84.7681 86.9971L79.7876 89.8828L74.8071 86.9971L79.7876 84.0967ZM73.1226 85.957H71.8188V88.0371H73.1226L79.7876 91.9043L86.4526 88.0371H87.7563V85.957H86.4526L79.7876 82.0898L73.1226 85.957Z" fill="#FDD406"/>
<path fill-rule="evenodd" clip-rule="evenodd" d="M79.7876 81.8125L86.5172 85.7172H87.9964V88.2772H86.5172L79.7876 92.1819L73.058 88.2772H71.5789V85.7172H73.058L79.7876 81.8125ZM79.7876 82.3674L73.1872 86.1972H72.0589V87.7972H73.1872L79.7876 91.627L86.3881 87.7972H87.5164V86.1972H86.3881L79.7876 82.3674ZM79.7876 83.8191L85.2459 86.9977L79.7876 90.1603L74.3293 86.9977L79.7876 83.8191ZM75.285 86.9967L79.7876 89.6056L84.2903 86.9967L79.7876 84.3745L75.285 86.9967Z" fill="black"/>
<path d="M79.6925 77.0067C78.5587 77.1657 77.7116 78.2865 77.7736 79.4134C77.7778 81.1654 77.7649 82.9179 77.7802 84.6697C77.8403 85.7986 78.8265 86.8101 79.9713 86.8204C80.9018 86.9086 81.8364 86.3646 82.2267 85.5175C81.9582 85.3563 81.6896 85.1952 81.4211 85.0341C81.213 85.589 80.6132 85.933 80.0295 85.869C79.263 85.8906 78.6423 85.1453 78.7111 84.3999C78.7158 82.6592 78.7021 80.918 78.7179 79.1777C78.7601 78.4675 79.4374 77.8864 80.1467 77.9589C80.4403 77.8746 80.8439 78.2763 81.0254 77.9297C81.2991 77.5409 80.8312 77.2372 80.5713 77.0215C80.2838 76.9821 79.9834 77.0178 79.6925 77.0067ZM82.4025 78.8378C82.2167 79.1874 81.8324 79.3952 81.5236 79.5786V83.1005C81.8361 83.2812 82.1486 83.4618 82.4611 83.6425C82.4573 82.1407 82.4683 80.6387 82.4556 79.1371C82.4408 79.0446 82.4518 78.9035 82.4025 78.8378Z" fill="#FDD406"/>
<path fill-rule="evenodd" clip-rule="evenodd" d="M80.1289 76.7638C80.2785 76.7611 80.4409 76.7617 80.6039 76.784L80.6718 76.7933L80.7246 76.8371C80.7446 76.8537 80.7685 76.8728 80.795 76.8938C80.9113 76.9863 81.0777 77.1187 81.1894 77.2656C81.2623 77.3614 81.3292 77.4832 81.345 77.6283C81.3611 77.7753 81.3219 77.9203 81.2303 78.0556C81.1543 78.1922 81.0394 78.2788 80.8959 78.305C80.769 78.3282 80.6457 78.298 80.5612 78.2734C80.5249 78.2629 80.4875 78.2507 80.4543 78.2399C80.4466 78.2374 80.4392 78.2349 80.432 78.2326C80.3914 78.2195 80.3568 78.2087 80.3244 78.2007C80.256 78.1837 80.2254 78.1862 80.2128 78.1898L80.1683 78.2026L80.1222 78.1979C79.5518 78.1396 78.9953 78.6141 78.9579 79.1865C78.9482 80.2564 78.9496 81.3247 78.9511 82.3945C78.952 83.0625 78.9529 83.731 78.9511 84.4008L78.9511 84.4115L78.9501 84.4222C78.893 85.041 79.4164 85.6464 80.0227 85.6294L80.0392 85.6289L80.0556 85.6307C80.5372 85.6835 81.0292 85.3959 81.1963 84.9501L81.2975 84.6803L82.5348 85.4227L82.4447 85.6182C82.0136 86.5539 80.9883 87.1535 79.9589 87.0605C78.6833 87.0431 77.6067 85.9261 77.5405 84.6827L77.5402 84.6774L77.5402 84.672C77.5307 83.5813 77.5321 82.4886 77.5335 81.3974C77.5343 80.7376 77.5352 80.0783 77.5336 79.4203C77.4689 78.1813 78.3942 76.9467 79.6592 76.7693L79.6803 76.7664L79.7016 76.7672C79.8051 76.7711 79.908 76.7687 80.0194 76.7661C80.0549 76.7653 80.0913 76.7645 80.1289 76.7638ZM79.7059 77.2476C78.7152 77.3984 77.9579 78.3946 78.0132 79.4004L78.0136 79.4067L78.0136 79.413C78.0152 80.077 78.0143 80.7399 78.0135 81.4022C78.0121 82.4894 78.0107 83.5752 78.0201 84.6623C78.0767 85.6713 78.9657 86.5716 79.9735 86.5807L79.9837 86.5808L79.9939 86.5817C80.7506 86.6534 81.5162 86.2526 81.9081 85.6065L81.5203 85.3738C81.2081 85.8779 80.6073 86.1674 80.0197 86.1096C79.105 86.1247 78.3982 85.2525 78.4711 84.3893C78.4729 83.7272 78.472 83.0637 78.4711 82.3997C78.4696 81.3253 78.4682 80.2494 78.4779 79.1758L78.478 79.1698L78.4784 79.1638C78.5277 78.332 79.2993 77.6561 80.13 77.7168C80.2464 77.6952 80.3565 77.7141 80.4403 77.7349C80.4899 77.7472 80.538 77.7624 80.5798 77.7759C80.589 77.7789 80.5979 77.7818 80.6064 77.7846C80.6389 77.7952 80.667 77.8043 80.695 77.8125C80.759 77.831 80.7903 77.8339 80.8039 77.8334C80.8061 77.8303 80.8092 77.8256 80.8128 77.8186L80.8201 77.8047L80.8292 77.7918C80.8683 77.7363 80.8702 77.7018 80.8679 77.6804C80.8648 77.6524 80.8498 77.6119 80.8074 77.5563C80.7358 77.4621 80.634 77.3805 80.5218 77.2906C80.506 77.2779 80.49 77.2651 80.4739 77.2521C80.3686 77.2422 80.2577 77.2416 80.1374 77.2437C80.1061 77.2443 80.0737 77.245 80.0405 77.2458C79.9333 77.2483 79.8184 77.251 79.7059 77.2476ZM82.3676 78.3922L82.5943 78.6939C82.6642 78.7869 82.676 78.9032 82.6809 78.9548C82.6834 78.9803 82.6851 79.0073 82.6865 79.0291C82.6868 79.0347 82.6872 79.04 82.6875 79.0449C82.6893 79.0719 82.6908 79.0883 82.6926 79.0995L82.6954 79.1173L82.6956 79.1353C82.7034 80.0616 82.7022 80.9899 82.7011 81.9167C82.7004 82.4927 82.6996 83.0681 82.7011 83.6421L82.7021 84.0593L81.2836 83.2392V79.4423L81.401 79.3725C81.4245 79.3586 81.448 79.3447 81.4713 79.331C81.608 79.2504 81.7415 79.1717 81.865 79.0789C82.0078 78.9717 82.1204 78.8574 82.1905 78.7254L82.3676 78.3922ZM82.2177 79.4126C82.2232 80.2461 82.2221 81.0785 82.2211 81.912C82.2205 82.3497 82.22 82.7877 82.2204 83.2264L81.7636 82.9623V79.7159C81.8869 79.643 82.0249 79.5591 82.1533 79.4627C82.1748 79.4466 82.1963 79.4299 82.2177 79.4126Z" fill="black"/>
<path d="M86.6242 17.9771H72.8764V42.9401H86.6242V17.9771Z" fill="black"/>
<path d="M71.9141 17.9883V38.877H76.2793V32.6807C76.2793 31.2515 77.1945 29.2676 80 29.2676C82.8055 29.2676 83.7207 31.2515 83.7207 32.6807V38.877H88.0859V17.9883H71.9141ZM79.3262 20.332H80.6738V27.4805H79.3262V20.332ZM75.459 21.7383H76.8213V26.9678H75.459V21.7383ZM83.1787 21.7383H84.541V26.9678H83.1787V21.7383Z" fill="#D91C16"/>
<path fill-rule="evenodd" clip-rule="evenodd" d="M71.6797 17.7539H88.3203V39.1113H83.4863V32.6807C83.4863 32.0111 83.271 31.2154 82.7346 30.5909C82.2043 29.9735 81.3419 29.502 80 29.502C78.6581 29.502 77.7957 29.9735 77.2654 30.5909C76.729 31.2154 76.5137 32.0111 76.5137 32.6807V39.1113H71.6797V17.7539ZM72.1484 18.2227V38.6426H76.0449V32.6807C76.0449 31.921 76.2872 31.0102 76.9098 30.2855C77.5385 29.5536 78.5364 29.0332 80 29.0332C81.4636 29.0332 82.4615 29.5536 83.0902 30.2855C83.7128 31.0102 83.9551 31.921 83.9551 32.6807V38.6426H87.8516V18.2227H72.1484ZM79.0918 20.0977H80.9082V27.7148H79.0918V20.0977ZM79.5605 20.5664V27.2461H80.4395V20.5664H79.5605ZM75.2246 21.5039H77.0557V27.2021H75.2246V21.5039ZM75.6934 21.9727V26.7334H76.5869V21.9727H75.6934ZM82.9443 21.5039H84.7754V27.2021H82.9443V21.5039ZM83.4131 21.9727V26.7334H84.3066V21.9727H83.4131Z" fill="black"/>
<path d="M70.4346 14.9854V17.959H89.5654V14.9854H70.4346Z" fill="#D91C16"/>
<path fill-rule="evenodd" clip-rule="evenodd" d="M70.2002 14.751H89.7998V18.1934H70.2002V14.751ZM70.6689 15.2197V17.7246H89.3311V15.2197H70.6689Z" fill="black"/>
<path d="M68.6328 11.5283V14.9854H91.3672V11.5283H88.5107V13.4326H85.2881V11.5283H81.6113V13.4326H78.3887V11.5283H74.7119V13.4326H71.4893V11.5283H68.6328Z" fill="#D91C16"/>
<path fill-rule="evenodd" clip-rule="evenodd" d="M68.3984 11.2939H71.7236V13.1982H74.4775V11.2939H78.623V13.1982H81.377V11.2939H85.5225V13.1982H88.2764V11.2939H91.6016V15.2197H68.3984V11.2939ZM68.8672 11.7627V14.751H91.1328V11.7627H88.7451V13.667H85.0537V11.7627H81.8457V13.667H78.1543V11.7627H74.9463V13.667H71.2549V11.7627H68.8672Z" fill="black"/>
<path d="M64.4141 45.8643V48.0176H95.5859V45.8643H64.4141Z" fill="#D91C16"/>
<path fill-rule="evenodd" clip-rule="evenodd" d="M64.1797 45.6299H95.8203V48.252H64.1797V45.6299ZM64.6484 46.0986V47.7832H95.3516V46.0986H64.6484Z" fill="black"/>
<path d="M63.1396 38.8623V45.8643H96.8604V38.8623H93.667V41.5576H89.4189V38.8623H83.7207V41.5576H76.2793V38.8623H70.5811V41.5576H66.333V38.8623H63.1396Z" fill="#D91C16"/>
<path fill-rule="evenodd" clip-rule="evenodd" d="M62.9053 38.6279H66.5674V41.3232H70.3467V38.6279H76.5137V41.3232H83.4863V38.6279H89.6533V41.3232H93.4326V38.6279H97.0947V46.0986H62.9053V38.6279ZM63.374 39.0967V45.6299H96.626V39.0967H93.9014V41.792H89.1846V39.0967H83.9551V41.792H76.0449V39.0967H70.8154V41.792H66.0986V39.0967H63.374Z" fill="black"/>
<path d="M67.1973 48.0176V73.4912H73.2178V63.9551C73.2178 59.4632 76.216 57.3486 80 57.3486C83.637 57.3486 86.7822 59.4632 86.7822 63.9551V73.4912H92.8027V48.0176H67.1973Z" fill="#D91C16"/>
<path fill-rule="evenodd" clip-rule="evenodd" d="M66.9629 48.0176C66.9629 47.8881 67.0678 47.7832 67.1973 47.7832H92.8027C92.9322 47.7832 93.0371 47.8881 93.0371 48.0176V73.4912C93.0371 73.6207 92.9322 73.7256 92.8027 73.7256H86.7822C86.6528 73.7256 86.5479 73.6207 86.5479 73.4912V63.9551C86.5479 61.768 85.7845 60.1838 84.6003 59.1435C83.4114 58.0991 81.7753 57.583 80 57.583C78.1495 57.583 76.5149 58.1 75.3459 59.1423C74.1811 60.1809 73.4521 61.7645 73.4521 63.9551V73.4912C73.4521 73.6207 73.3472 73.7256 73.2178 73.7256H67.1973C67.0678 73.7256 66.9629 73.6207 66.9629 73.4912V48.0176ZM67.4316 48.252V73.2568H72.9834V63.9551C72.9834 61.6537 73.7535 59.9341 75.0339 58.7925C76.31 57.6546 78.0665 57.1143 80 57.1143C81.8617 57.1143 83.6167 57.6555 84.9097 58.7913C86.2073 59.9313 87.0166 61.6502 87.0166 63.9551V73.2568H92.5684V48.252H67.4316Z" fill="black"/>
</g>
<defs>
<clipPath id="clip0_909_305419">
<rect width="160" height="120" fill="white"/>
</clipPath>
</defs>
</svg>
