<svg width="160" height="120" viewBox="0 0 160 120" fill="none" xmlns="http://www.w3.org/2000/svg">
<g clip-path="url(#clip0_421_13948)">
<path d="M160 0H0V120H160V0Z" fill="black"/>
<path d="M160 0H0V40.05H160V0Z" fill="#0F3296"/>
<path d="M40.015 61.5762C40.0948 61.4988 41.3448 61.914 42.8277 62.4909C44.3106 63.0675 46.2264 63.6123 47.0505 63.666C48.5031 63.7308 53.6466 66.1809 53.5968 66.7701C53.5872 67.3206 45.8104 64.9425 43.0843 63.5574C39.8122 61.9266 39.7351 61.8468 40.015 61.5762Z" fill="#1E9A1C"/>
<path d="M49.6027 62.7084C50.2288 64.2387 52.4497 65.2848 55.4305 65.5425C57.4477 65.6856 56.5225 64.8159 53.7034 63.7884C52.3792 63.3651 50.8369 62.5662 50.182 62.091C49.0288 61.1973 49.0288 61.1973 49.6027 62.7084ZM21.526 51.258C23.137 53.6496 24.9703 55.374 28.5259 57.7659C31.1371 59.5458 33.4147 60.9363 33.5257 60.825C33.748 60.5469 20.7481 48.477 19.8592 48.1431C19.5262 48.0318 20.2483 49.4223 21.526 51.258ZM54.9727 63.993C56.179 64.5561 57.7189 64.9998 58.4956 65.0259C59.4136 65.0568 59.17 64.8309 57.4567 64.1637C56.1157 63.6396 54.5119 62.7585 53.8 62.2122C52.5238 61.1679 52.5238 61.1679 52.6576 62.0865C52.7338 62.6118 53.6959 63.4278 54.9727 63.993ZM47.4697 53.1411C48.2476 56.256 51.4696 61.9851 52.5808 62.2074C53.5807 62.3742 53.5807 62.3187 52.7476 61.3731C51.3586 59.76 48.3589 53.8641 48.3589 52.7517C48.3589 52.14 48.0811 51.6948 47.7478 51.6948C47.3587 51.6948 47.2474 52.251 47.4697 53.1411ZM14.0776 49.2354C14.0584 49.3449 15.1012 50.1504 16.4077 51.0588C17.7145 51.9672 19.2367 53.2527 19.7422 53.9067C20.608 55.0761 25.513 57.9753 25.9732 57.6048C26.4238 57.2889 20.1058 52.1634 17.4343 50.6754C14.2546 48.8712 14.1451 48.852 14.0776 49.2354ZM15.8674 53.5146C15.8674 53.6259 17.0341 54.2376 18.4786 54.9051C19.9231 55.5726 21.6451 56.5737 22.2562 57.1299C23.3116 58.131 28.645 60.1335 29.0338 59.6886C29.4226 59.2992 22.3117 55.35 19.423 54.3489C15.9784 53.1252 15.8674 53.1252 15.8674 53.5146ZM40.6444 55.4772C42.7555 59.3706 44.9221 61.9293 45.811 61.6512C46.2553 61.4844 45.2554 59.8713 43.0888 57.2571C41.1445 54.9765 39.4777 52.9743 39.3112 52.8075C39.1447 52.6404 39.7558 53.8641 40.6444 55.4772ZM43.3747 53.9595C43.3747 54.5712 45.5413 58.7985 46.819 60.5784C47.5411 61.5795 48.3745 62.1357 49.3189 62.1357C50.7079 62.1357 50.7079 62.1357 48.5968 59.7441C47.3746 58.4649 45.7636 56.5179 44.9302 55.4613C44.0968 54.4044 43.3747 53.7369 43.3747 53.9595ZM38.2669 55.7553C38.2669 56.5896 42.328 62.1519 42.9571 62.1519C43.243 62.1519 42.5566 60.8169 41.3557 59.2038C38.6674 55.533 38.2669 55.1436 38.2669 55.7553ZM34.4305 71.0829C30.7639 72.5292 29.9863 73.0296 29.9863 73.8084C29.9863 74.142 30.3751 74.0865 30.9862 73.5858C31.4863 73.0851 33.3196 72.4176 34.9861 72.0285C36.6526 71.6394 38.6527 70.9716 39.4303 70.5822L40.8193 69.8592H39.1528C38.2639 69.9147 36.097 70.4709 34.4305 71.0829ZM24.0193 61.6341C26.7586 64.128 35.9206 68.8395 40.5628 70.2258C41.8207 70.596 43.8616 70.6809 45.0148 70.4382L47.1649 70.0098L45.043 68.889C41.6203 67.1175 35.9995 63.3651 33.982 61.5549C31.7839 59.574 31.8553 60.2583 34.0915 62.9946C34.9651 64.0968 37.5478 65.997 39.8122 67.1844C42.0955 68.424 43.6906 69.5592 43.4296 69.6543C42.751 69.9015 36.4846 66.3252 31.7185 62.9715C26.5393 59.295 26.3257 59.1951 28.2532 61.5708C29.1982 62.7063 30.9451 64.2597 32.2126 64.9815C33.4468 65.7747 34.2919 66.4731 34.0309 66.5682C33.5089 66.7584 30.262 64.9821 26.0227 62.2653C24.8407 61.4529 23.2312 60.4413 22.5334 59.9853C21.7642 59.4966 22.4527 60.2517 24.0193 61.6341ZM24.4228 60.8565L22.2007 61.5795L23.8672 61.8576C24.7561 62.0802 25.9228 61.9689 26.4784 61.6908C26.9785 61.4127 27.9784 61.1901 28.7005 61.1346C29.9227 61.1346 29.9227 61.0791 28.8673 60.6339C27.4783 60.0222 27.145 60.0222 24.4228 60.8565ZM27.1609 62.3661C26.2165 63.0891 26.272 63.1449 28.3276 62.811C29.5498 62.6442 31.3276 62.3103 32.2165 62.088C33.661 61.6986 33.5497 61.6431 31.0498 61.5873C29.383 61.5318 27.8275 61.8654 27.1609 62.3661ZM13.3594 56.5179C22.5259 58.1865 40.9144 64.3605 39.8032 65.4174C39.5254 65.6955 34.3588 64.4163 33.6367 63.9156C33.3589 63.6375 30.6367 63.7488 27.6367 64.1382C22.0258 64.7499 21.0814 65.2506 21.1924 67.5312C21.2479 68.6436 21.2479 68.6436 21.5257 67.5312C22.0258 65.4732 22.8589 65.0283 26.0257 65.0283C29.47 65.0283 38.9143 66.4188 43.081 67.5312C48.6364 69.0885 48.8032 69.0885 46.9699 68.0874C44.581 66.7524 40.9699 64.305 40.3033 63.582C39.0811 62.1915 16.915 56.073 13.6927 56.1843C12.1927 56.2956 12.1372 56.2956 13.3594 56.5179ZM17.5738 59.4819C16.9072 59.9826 16.1848 61.1505 16.0183 62.0961C15.685 63.7092 15.685 63.7092 16.5739 62.6523C18.9073 59.7042 19.0738 59.5932 21.9628 59.5374C24.2962 59.4819 24.6295 59.3706 23.5183 59.0367C21.1846 58.3137 18.8515 58.4805 17.5738 59.4819ZM45.8905 62.9142C46.3348 63.693 50.6683 65.8623 51.0016 65.5284C51.1684 65.3616 50.6683 64.9167 50.0017 64.5273C49.2796 64.1379 48.3352 63.5262 47.9461 63.081C47.0572 62.247 45.3907 62.0799 45.8905 62.9142ZM46.2247 68.199C46.669 68.9778 51.0025 71.1471 51.3358 70.8132C51.5026 70.6464 51.0025 70.2015 50.3359 69.8121C49.6138 69.4227 48.6694 68.811 48.2803 68.3658C47.3914 67.5315 45.7249 67.3644 46.2247 68.199ZM49.2157 65.6412C48.1792 66.0423 47.137 66.7674 46.8133 67.2864C46.4305 67.8996 46.7545 67.9056 48.0913 67.2333C49.1395 66.7086 50.6527 66.2778 51.4831 66.207C53.0377 66.1302 53.0377 66.1302 52.0483 65.5113C51.4828 65.1576 50.2816 65.193 49.2157 65.6412ZM42.8179 69.633C39.6517 72.4761 38.9515 74.4585 39.9655 77.4036L40.8424 79.9257L40.5982 77.3733C40.2208 73.8702 41.164 72.2766 44.9971 69.5091C46.7989 68.2212 48.2308 67.0536 48.1963 66.9477C48.0079 66.3657 44.428 68.115 42.8179 69.633ZM23.2165 46.8954C24.9388 50.1771 31.9384 57.7416 35.8273 60.6339C36.8827 61.4127 38.7718 62.1912 39.9382 62.3583L42.1048 62.6919L40.4938 60.912C37.8826 58.0752 33.8827 52.6242 32.605 50.2326C31.216 47.6184 31.0495 48.2859 32.2162 51.6231C32.6605 52.9581 34.4383 55.6278 36.1606 57.519C37.8829 59.4657 38.9938 61.0788 38.716 61.0788C37.9939 61.0788 33.3271 55.5723 29.9941 50.7888C26.383 45.5604 26.2165 45.3936 27.2164 48.2859C27.7165 49.6764 28.8274 51.7344 29.7718 52.8468C30.6607 54.015 31.2163 54.9603 30.9385 54.9603C30.3829 54.9603 27.9385 52.1793 24.883 48.1743C24.0496 47.0061 22.8829 45.5046 22.3831 44.8371C21.8278 44.1144 22.2166 45.06 23.2165 46.8954ZM41.1364 62.4696C41.1364 62.859 41.9698 63.8601 42.9697 64.6389C45.9142 66.8637 53.7472 70.5903 54.7471 70.2012C55.3582 69.9786 54.4138 69.3669 51.7471 68.3658C47.0806 66.5304 42.8029 64.083 42.8029 63.2487C42.8029 62.8038 44.6362 62.748 49.1917 63.0261C56.0248 63.4155 58.0804 62.6367 51.8584 62.0805C45.3031 61.4127 41.1364 61.5795 41.1364 62.4696ZM26.4703 68.421C24.0814 68.9772 22.8037 69.8115 22.8037 70.8126C22.8037 71.202 23.026 71.1462 23.3038 70.7013C23.7481 69.9783 28.3036 68.6433 28.7482 69.0882C28.8592 69.1995 28.6927 70.0338 28.3594 70.8681C28.0261 71.7024 27.9151 72.5367 28.0816 72.7035C28.2484 72.9261 28.5259 72.4809 28.6927 71.8692C29.3593 69.4776 31.4149 68.7543 36.3592 69.1995C38.8591 69.4221 41.6368 69.7002 42.5257 69.7557C43.4701 69.8112 44.7478 70.1451 45.4144 70.5345C46.8589 71.3133 52.4698 71.3688 51.9697 70.59C51.8029 70.3119 50.7475 69.9225 49.5808 69.7557C48.4696 69.5889 46.1365 69.0327 44.4142 68.5875C40.9699 67.698 29.9701 67.5867 26.4703 68.421ZM46.7569 74.8416C42.5698 74.094 40.5787 74.7618 38.8849 77.3754L37.4398 79.62L39.2983 77.856C41.8231 75.4014 43.6579 75.1644 48.1963 76.485C50.3191 77.1135 52.1197 77.5245 52.1818 77.4321C52.5238 76.9245 48.943 75.1773 46.7569 74.8416ZM41.3353 73.2918C33.6133 75.4053 32.7244 76.1841 33.8356 79.6884C34.2799 81.0234 34.2799 80.9676 34.3357 79.2435C34.3912 78.2979 34.8913 76.9629 35.4469 76.4067C36.4468 75.4056 40.9468 74.1261 46.4467 73.2363C47.7799 73.0695 48.6688 72.6801 48.5023 72.402C48.0574 71.6787 46.2796 71.9013 41.3353 73.2918ZM47.8984 76.0095C44.0095 77.7339 42.7318 79.4025 42.7873 82.5171L42.8428 85.1871L43.3984 82.6842C44.1205 79.2357 45.5095 78.012 50.0095 76.5657C52.1206 75.8982 53.8426 75.2307 53.8426 75.1194C53.8426 74.5077 49.8982 75.0639 47.8984 76.0095ZM47.1601 80.7849C46.4935 81.675 45.9934 82.8429 45.9934 83.4549C45.9934 84.1779 46.2712 84.0111 47.0488 82.7319C47.6599 81.7308 48.7153 80.5626 49.3822 80.0619C50.6599 79.1718 50.6599 79.1718 49.4932 79.1718C48.8269 79.1718 47.8267 79.8393 47.1601 80.7849Z" fill="#1E9A1C"/>
<path d="M136.534 106.244C136.185 106.829 135.937 107.252 135.765 107.549C134.027 107.033 126.739 103.771 120.5 100.947C114.212 98.1019 105.272 94.4575 103.595 93.4309C102.309 92.6419 102.425 91.9741 103.997 92.5603C105.57 93.1465 111.632 95.9908 115.922 97.8715C120.893 100.091 133.376 104.949 136.534 106.244ZM104.652 91.9963C106.365 92.9635 115.426 96.2932 121.809 98.9173C128.143 101.521 135.54 104.526 137.295 104.982C137.456 104.679 137.69 104.248 138.018 103.651C134.817 102.466 122.173 98.0479 117.127 96.0034C112.774 94.2739 106.616 91.6429 105.025 91.1122C103.433 90.5815 103.34 91.2529 104.652 91.9963ZM102.848 93.8902C101.308 93.2224 101.157 93.8833 102.4 94.7386C104.022 95.8516 112.759 99.9595 118.889 103.13C124.972 106.277 132.08 109.916 133.788 110.523C133.975 110.236 134.246 109.826 134.624 109.26C131.538 107.801 119.327 102.296 114.478 99.8188C110.292 97.7161 104.388 94.558 102.848 93.8902ZM121.277 90.691C116.726 89.5849 110.263 87.8377 108.613 87.5338C106.962 87.2299 106.964 87.9079 108.367 88.4614C110.197 89.1805 119.633 91.2154 126.319 92.9245C132.953 94.6204 140.696 96.5656 142.497 96.7723C142.615 96.4498 142.787 95.9902 143.028 95.353C139.694 94.6261 126.558 92.0122 121.277 90.691ZM118.443 94.2052C114.005 92.7064 107.719 90.4015 106.101 89.9548C104.484 89.5081 104.426 90.1837 105.776 90.8572C107.536 91.7335 116.759 94.5838 123.271 96.8698C129.732 99.1381 137.276 101.752 139.053 102.115C139.198 101.804 139.409 101.361 139.705 100.747C136.447 99.7324 123.589 95.9824 118.443 94.2052ZM120.047 92.5285C115.538 91.2643 109.139 89.2918 107.501 88.9306C105.862 88.5694 105.84 89.2468 107.223 89.8489C109.027 90.6316 118.386 92.9947 125.009 94.9366C131.579 96.8632 139.25 99.0778 141.043 99.3475C141.172 99.0295 141.359 98.5759 141.623 97.9477C138.315 97.1047 125.279 94.0336 120.047 92.5285Z" fill="#1E9A1C"/>
<path d="M83.0195 106.563L84.8189 107.85C87.3983 109.649 88.817 112.149 88.6763 114.73L88.5809 116.861L89.4275 114.764C90.3539 112.57 90.2261 109.247 89.1323 106.786L88.4939 105.352L90.521 106.235C93.4175 107.458 95.3246 109.608 95.723 112.162L96.0722 114.267L96.4649 112.039C96.9152 109.699 96.101 106.477 94.5191 104.298L93.5966 103.026L95.7629 103.468C98.8499 104.062 101.162 105.768 102.082 108.184L102.861 110.17L102.782 107.908C102.737 105.526 101.271 102.544 99.2714 100.741L98.1053 99.6896L100.316 99.6716C103.459 99.6095 106.075 100.797 107.477 102.969L108.65 104.749L108.104 102.553C107.565 100.234 105.512 97.6211 103.182 96.2741L101.823 95.4881L103.982 95.0108C107.043 94.295 109.848 94.913 111.67 96.7448L113.188 98.2415L112.198 96.2081C111.189 94.0511 108.638 91.9223 106.079 91.0898L104.586 90.605L106.599 89.6882C109.444 88.3511 112.317 88.3715 114.479 89.7836L116.275 90.9323L114.884 89.1491C113.449 87.2486 110.512 85.6985 107.836 85.4171L106.276 85.2533L108.055 83.9372C110.56 82.0376 113.374 81.4583 115.783 82.3904L117.778 83.1395L116.047 81.6854C114.249 80.1257 111.054 79.22 108.378 79.502L106.818 79.6658L108.283 78.0086C110.34 75.6287 112.972 74.4773 115.522 74.8877L117.628 75.2048L115.633 74.1431C113.551 72.9917 110.238 72.7709 107.679 73.6034L106.186 74.0885L107.276 72.1628C108.793 69.4067 111.129 67.7324 113.707 67.6022L115.834 67.4744L113.662 66.851C111.386 66.1583 108.1 66.6326 105.769 67.9787L104.41 68.7644L105.076 66.6536C105.988 63.6419 107.925 61.5185 110.421 60.8546L112.475 60.2867L110.221 60.1292C107.85 59.9252 104.734 61.0724 102.735 62.8748L101.569 63.9263L101.782 61.7231C102.048 58.5866 103.502 56.1068 105.805 54.9374L107.696 53.9549L105.459 54.2696C103.098 54.5636 100.288 56.3348 98.7068 58.514L97.7843 59.7854L97.5356 57.5858C97.145 54.4634 98.0513 51.7337 100.062 50.1116L101.707 48.7565L99.5837 49.5299C97.3352 50.309 94.9553 52.6265 93.8606 55.0874L93.2222 56.5235L92.522 54.4235C91.4912 51.4505 91.8116 48.5921 93.4409 46.5869L94.7693 44.9192L92.8529 46.1174C90.8153 47.3474 88.9682 50.1098 88.4087 52.7447L88.0826 54.2822L86.9615 52.3745C85.3361 49.6799 85.0556 46.8185 86.2328 44.5172L87.1856 42.6095L85.5602 44.1803C83.8226 45.8081 82.5893 48.8951 82.5893 51.5885V53.1596L81.0965 51.5267C78.9476 49.2308 78.0791 46.4888 78.7526 43.9931L79.2878 41.9282L78.0242 43.8041C76.6625 45.7571 76.0973 49.0331 76.6568 51.6686L76.9826 53.2052L75.1838 51.9185C72.6044 50.1194 71.186 47.6189 71.3264 45.0374L71.4212 42.9062L70.5746 45.0041C69.6488 47.1983 69.7763 50.5202 70.8698 52.9808L71.5082 54.4169L69.4811 53.5331C66.5846 52.3103 64.6775 50.1599 64.2791 47.606L63.9299 45.5015L63.5375 47.729C63.0872 50.0678 63.9011 53.2913 65.4833 55.4705L66.4055 56.7413L64.2395 56.2985C61.1525 55.7054 58.8407 53.9993 57.9203 51.5834L57.1415 49.5977L57.2204 51.8588C57.2657 54.2408 58.7318 57.2237 60.731 59.0258L61.8971 60.0773L59.6861 60.0953C56.5433 60.1577 53.9273 58.9697 52.5257 56.7989L51.3518 55.0184L51.8984 57.2132C52.4372 59.5337 54.4904 62.1467 56.8205 63.4934L58.1795 64.2791L56.0207 64.7564C52.9595 65.4716 50.1542 64.8545 48.3323 63.0227L46.8143 61.5257L47.8046 63.5591C48.8135 65.7167 51.3647 67.8443 53.9234 68.6765L55.4162 69.1622L53.4035 70.0787C50.5577 71.4161 47.6855 71.3954 45.5228 69.983L43.727 68.8346L45.1178 70.6172C46.5527 72.5177 49.49 74.0678 52.1657 74.3495L53.7263 74.5139L51.9479 75.8291C49.442 77.7296 46.6283 78.3074 44.2196 77.3759L42.2246 76.6271L43.9553 78.0809C45.7535 79.6415 48.9485 80.5463 51.6242 80.2646L53.1848 80.1008L51.7187 81.7574C49.6622 84.1379 47.03 85.2887 44.4806 84.8792L42.3737 84.5615L44.3687 85.6238C46.4519 86.7758 49.7648 86.996 52.3235 86.1635L53.8163 85.6781L52.7264 87.6044C51.209 90.3602 48.8735 92.0348 46.2947 92.1641L44.168 92.2913L46.34 92.9153C48.6164 93.608 51.9029 93.1337 54.233 91.7873L55.5923 91.0013L54.9263 93.1121C54.0143 96.1244 52.0778 98.2481 49.5821 98.9117L47.528 99.4796L49.7819 99.6374C52.1525 99.8408 55.2689 98.6933 57.2681 96.8906L58.4342 95.8391L58.2209 98.0432C57.9545 101.179 56.501 103.659 54.1976 104.828L52.3064 105.811L54.5438 105.496C56.9051 105.202 59.7146 103.43 61.2959 101.251L62.2184 99.98L62.4674 102.18C62.858 105.302 61.9514 108.031 59.9411 109.654L58.2953 111.009L60.4187 110.236C62.6672 109.457 65.0477 107.138 66.1421 104.678L66.7802 103.243L67.4804 105.341C68.5112 108.315 68.1908 111.173 66.5615 113.179L65.2331 114.847L67.1495 113.648C69.1871 112.418 71.0342 109.655 71.5937 107.02L71.9198 105.484L73.0409 107.392C74.6663 110.086 74.9468 112.948 73.7696 115.249L72.8168 117.157L74.4422 115.585C76.1798 113.958 77.4131 110.871 77.4131 108.178V106.606L78.9059 108.239C81.0548 110.536 81.9233 113.277 81.2504 115.773L80.7143 117.838L81.9779 115.962C83.3396 114.008 83.9048 110.733 83.3456 108.098L83.0195 106.561" fill="#FDD406"/>
<path d="M77.4813 4.48354C75.2835 8.10784 75.0213 11.0067 76.5213 16.0128C77.2434 18.3489 78.0369 21.8376 78.3702 23.7285C78.8145 26.3982 78.768 26.6523 78.8304 27.2328C79.386 27.2328 80.6484 27.2349 81.2322 27.2313C81.3162 26.307 81.384 25.2402 81.5811 23.7729C81.8109 22.0623 82.4925 18.4848 83.2254 15.9996C84.6903 11.034 84.5922 7.98724 82.3143 4.53874C81.4809 3.25954 80.37 2.20264 79.8699 2.20264C79.3704 2.20294 78.2391 3.17974 77.4813 4.48354ZM88.2744 14.7381C85.1634 16.0731 83.2923 19.7685 82.2702 24.8613C82.0815 25.8177 82.0353 26.1552 81.9408 27.2331C82.6143 27.2358 82.8789 27.2403 83.5353 27.2364C83.679 26.5113 83.7825 26.1285 84.0993 25.0995C85.3548 21.1191 89.0526 19.5216 88.8858 23.2485C88.8303 24.2775 88.3965 24.852 87.9138 25.4037C88.5105 25.2546 89.7783 24.6624 90.8058 24.0783C96.5277 20.6295 94.2744 12.1794 88.2744 14.7381ZM75.5619 28.5318C78.0726 28.5429 82.4121 28.563 84.4962 28.5519C84.4986 28.0158 84.5064 28.2894 84.5115 27.8562C82.977 27.8433 77.1015 27.8646 75.5736 27.8646C75.5775 28.1448 75.5703 28.2804 75.5619 28.5318ZM76.3005 31.4754C75.3954 32.4522 73.9815 33.1824 73.9815 33.1824C73.9815 33.1824 75.2322 33.3231 76.3986 33.2379C77.565 33.1527 78.2121 33.0069 78.9015 32.6718C78.7143 34.0635 78.7035 35.4072 78.7035 35.4072C78.8733 37.1982 79.065 37.6563 79.4529 38.5281C79.9791 39.2553 80.2851 39.2592 80.6721 38.4915C81.0903 37.632 81.3654 36.7476 81.453 35.3991C81.4227 34.3884 81.3663 33.9252 81.1272 32.6895C81.9342 33.0393 82.4439 33.1299 83.6481 33.2382C84.8802 33.3492 86.0127 33.2949 86.0127 33.2949C86.0127 33.2949 84.3483 32.4588 83.616 31.4331C82.893 30.4206 83.0472 30.5928 82.5213 29.2887C81.8823 29.2584 78.6432 29.2881 77.6154 29.2881C77.0523 30.477 76.9956 30.7251 76.3005 31.4754ZM71.727 14.736C74.838 16.071 76.7091 19.7664 77.7312 24.8592C77.9199 25.8156 77.9661 26.1531 78.0606 27.231C77.3871 27.2337 77.1225 27.2382 76.4661 27.2343C76.3224 26.5092 76.2189 26.1264 75.9021 25.0974C74.6466 21.117 70.9488 19.5195 71.1156 23.2464C71.1711 24.2754 71.6049 24.8499 72.0876 25.4016C71.4909 25.2525 70.2231 24.6603 69.1956 24.0762C63.4737 20.6277 65.727 12.1776 71.727 14.736Z" fill="#FDD406"/>
<path d="M21.9813 4.48354C19.7835 8.10784 19.5213 11.0067 21.0213 16.0128C21.7434 18.3489 22.5369 21.8376 22.8702 23.7285C23.3145 26.3982 23.268 26.6523 23.3304 27.2328C23.886 27.2328 25.1484 27.2349 25.7322 27.2313C25.8162 26.307 25.884 25.2402 26.0811 23.7729C26.3109 22.0623 26.9925 18.4848 27.7254 15.9996C29.1903 11.034 29.0922 7.98724 26.8143 4.53874C25.9809 3.25954 24.87 2.20264 24.3699 2.20264C23.8704 2.20294 22.7391 3.17974 21.9813 4.48354ZM32.7744 14.7381C29.6634 16.0731 27.7923 19.7685 26.7702 24.8613C26.5815 25.8177 26.5353 26.1552 26.4408 27.2331C27.1143 27.2358 27.3789 27.2403 28.0353 27.2364C28.179 26.5113 28.2825 26.1285 28.5993 25.0995C29.8548 21.1191 33.5526 19.5216 33.3858 23.2485C33.3303 24.2775 32.8965 24.852 32.4138 25.4037C33.0105 25.2546 34.2783 24.6624 35.3058 24.0783C41.0277 20.6295 38.7744 12.1794 32.7744 14.7381ZM20.0619 28.5318C22.5726 28.5429 26.9121 28.563 28.9962 28.5519C28.9986 28.0158 29.0064 28.2894 29.0115 27.8562C27.477 27.8433 21.6015 27.8646 20.0736 27.8646C20.0775 28.1448 20.0703 28.2804 20.0619 28.5318ZM20.8005 31.4754C19.8954 32.4522 18.4815 33.1824 18.4815 33.1824C18.4815 33.1824 19.7322 33.3231 20.8986 33.2379C22.065 33.1527 22.7121 33.0069 23.4015 32.6718C23.2143 34.0635 23.2035 35.4072 23.2035 35.4072C23.3733 37.1982 23.565 37.6563 23.9529 38.5281C24.4791 39.2553 24.7851 39.2592 25.1721 38.4915C25.5903 37.632 25.8654 36.7476 25.953 35.3991C25.9227 34.3884 25.8663 33.9252 25.6272 32.6895C26.4342 33.0393 26.9439 33.1299 28.1481 33.2382C29.3802 33.3492 30.5127 33.2949 30.5127 33.2949C30.5127 33.2949 28.8483 32.4588 28.116 31.4331C27.393 30.4206 27.5472 30.5928 27.0213 29.2887C26.3823 29.2584 23.1432 29.2881 22.1154 29.2881C21.5523 30.477 21.4956 30.7251 20.8005 31.4754ZM16.227 14.736C19.338 16.071 21.2091 19.7664 22.2312 24.8592C22.4199 25.8156 22.4661 26.1531 22.5606 27.231C21.8871 27.2337 21.6225 27.2382 20.9661 27.2343C20.8224 26.5092 20.7189 26.1264 20.4021 25.0974C19.1466 21.117 15.4488 19.5195 15.6156 23.2464C15.6711 24.2754 16.1049 24.8499 16.5876 25.4016C15.9909 25.2525 14.7231 24.6603 13.6956 24.0762C7.97367 20.6277 10.227 12.1776 16.227 14.736Z" fill="#FDD406"/>
<path d="M132.981 4.48354C130.783 8.10784 130.521 11.0067 132.021 16.0128C132.743 18.3489 133.537 21.8376 133.87 23.7285C134.314 26.3982 134.268 26.6523 134.33 27.2328C134.886 27.2328 136.148 27.2349 136.732 27.2313C136.816 26.307 136.884 25.2402 137.081 23.7729C137.311 22.0623 137.992 18.4848 138.725 15.9996C140.19 11.034 140.092 7.98724 137.814 4.53874C136.981 3.25954 135.87 2.20264 135.37 2.20264C134.87 2.20294 133.739 3.17974 132.981 4.48354ZM143.774 14.7381C140.663 16.0731 138.792 19.7685 137.77 24.8613C137.581 25.8177 137.535 26.1552 137.441 27.2331C138.114 27.2358 138.379 27.2403 139.035 27.2364C139.179 26.5113 139.282 26.1285 139.599 25.0995C140.855 21.1191 144.553 19.5216 144.386 23.2485C144.33 24.2775 143.896 24.852 143.414 25.4037C144.01 25.2546 145.278 24.6624 146.306 24.0783C152.028 20.6295 149.774 12.1794 143.774 14.7381ZM131.062 28.5318C133.573 28.5429 137.912 28.563 139.996 28.5519C139.999 28.0158 140.006 28.2894 140.011 27.8562C138.477 27.8433 132.601 27.8646 131.074 27.8646C131.077 28.1448 131.07 28.2804 131.062 28.5318ZM131.8 31.4754C130.895 32.4522 129.481 33.1824 129.481 33.1824C129.481 33.1824 130.732 33.3231 131.899 33.2379C133.065 33.1527 133.712 33.0069 134.401 32.6718C134.214 34.0635 134.203 35.4072 134.203 35.4072C134.373 37.1982 134.565 37.6563 134.953 38.5281C135.479 39.2553 135.785 39.2592 136.172 38.4915C136.59 37.632 136.865 36.7476 136.953 35.3991C136.923 34.3884 136.866 33.9252 136.627 32.6895C137.434 33.0393 137.944 33.1299 139.148 33.2382C140.38 33.3492 141.513 33.2949 141.513 33.2949C141.513 33.2949 139.848 32.4588 139.116 31.4331C138.393 30.4206 138.547 30.5928 138.021 29.2887C137.382 29.2584 134.143 29.2881 133.115 29.2881C132.552 30.477 132.496 30.7251 131.8 31.4754ZM127.227 14.736C130.338 16.071 132.209 19.7664 133.231 24.8592C133.42 25.8156 133.466 26.1531 133.561 27.231C132.887 27.2337 132.622 27.2382 131.966 27.2343C131.822 26.5092 131.719 26.1264 131.402 25.0974C130.147 21.117 126.449 19.5195 126.616 23.2464C126.671 24.2754 127.105 24.8499 127.588 25.4016C126.991 25.2525 125.723 24.6603 124.696 24.0762C118.974 20.6277 121.227 12.1776 127.227 14.736Z" fill="#FDD406"/>
</g>
<defs>
<clipPath id="clip0_421_13948">
<rect width="160" height="120" fill="white"/>
</clipPath>
</defs>
</svg>
