<svg width="160" height="120" viewBox="0 0 160 120" fill="none" xmlns="http://www.w3.org/2000/svg">
<g clip-path="url(#clip0_462_293)">
<path d="M160 0H0V120H160V0Z" fill="#D91C16"/>
<path fill-rule="evenodd" clip-rule="evenodd" d="M49.4035 41.0295C49.3998 41.888 49.5941 42.7357 49.9713 43.5068C50.3485 44.278 50.8984 44.9518 51.5783 45.4759C52.2582 45.9999 53.0498 46.3602 53.8916 46.5286C54.7333 46.697 55.6026 46.669 56.4318 46.4468C57.707 46.1052 59.0417 46.0472 60.3417 46.2769C61.6418 46.5066 62.8757 47.0185 63.9566 47.7764C65.0375 48.5344 65.9392 49.5201 66.5981 50.6641C67.2571 51.808 67.6573 53.0826 67.7706 54.3979C67.8822 55.6935 68.3189 56.9401 69.0403 58.0221C69.7616 59.1041 70.7442 59.9867 71.8972 60.5882C73.0502 61.1896 74.3363 61.4904 75.6365 61.4627C76.9366 61.4351 78.2088 61.0799 79.3352 60.4301C76.4709 62.5547 72.89 63.4764 69.3559 62.9986C65.8218 62.5208 62.6142 60.6813 60.4169 57.8724C60.33 57.9254 60.2407 57.9742 60.1491 58.0186C62.3754 60.8857 65.6299 62.7742 69.2238 63.2843C72.8178 63.7945 76.4692 62.8863 79.4055 60.752C76.5634 64.1599 72.5666 66.4027 68.1771 67.053C63.7875 67.7032 59.3122 66.7154 55.6042 64.2779C51.8962 61.8403 49.2148 58.1235 48.0712 53.8359C46.9277 49.5484 47.4019 44.9899 49.4035 41.0295ZM57.5056 52.275L57.7283 54.5615L55.6226 55.4798L57.866 55.9746L58.0887 58.2611L59.2525 56.2804L61.4959 56.7751L59.9717 55.0562L61.1355 53.0755L59.0298 53.9939L57.5056 52.275Z" fill="white"/>
<path fill-rule="evenodd" clip-rule="evenodd" d="M52.5029 83.2364C53.3182 83.5052 54.1845 83.5824 55.0345 83.4619C55.8844 83.3415 56.6952 83.0267 57.4037 82.542C58.1122 82.0573 58.6994 81.4158 59.1197 80.6673C59.54 79.9187 59.782 79.0834 59.827 78.2261C59.8961 76.9077 60.2534 75.6205 60.8736 74.4551C61.4938 73.2896 62.3619 72.2743 63.4168 71.4805C64.4717 70.6867 65.6877 70.1337 66.9794 69.8605C68.271 69.5874 69.6068 69.6006 70.8927 69.8993C72.1595 70.1935 73.4799 70.1634 74.7319 69.8117C75.9839 69.4601 77.127 68.7983 78.0552 67.8875C78.9835 66.9768 79.667 65.8466 80.0425 64.6016C80.418 63.3565 80.4733 62.0369 80.2033 60.7648C81.3389 64.1454 81.1089 67.8359 79.5624 71.0493C78.0159 74.2628 75.2752 76.745 71.9248 77.9667C71.9483 78.0657 71.9671 78.1658 71.981 78.2666C75.3958 77.0353 78.1975 74.5237 79.7933 71.2633C81.3891 68.0028 81.6538 64.2495 80.5313 60.7974C82.8941 64.5535 83.7921 69.0477 83.0541 73.4233C82.316 77.799 79.9936 81.7501 76.5295 84.5233C73.0655 87.2966 68.702 88.6982 64.2709 88.4608C59.8398 88.2235 55.651 86.3638 52.5029 83.2364ZM65.7017 79.0057L67.9451 79.5005L68.1678 81.787L69.3316 79.8063L71.575 80.301L70.0509 78.5821L71.2146 76.6014L69.1089 77.5198L67.5848 75.8009L67.8075 78.0874L65.7017 79.0057Z" fill="white"/>
<path fill-rule="evenodd" clip-rule="evenodd" d="M86.4062 26.3445C87.0231 25.7475 87.7693 25.3008 88.5869 25.039C84.2018 24.3592 79.7199 25.3169 75.9955 27.7294C72.2712 30.1419 69.5649 33.8406 68.3925 38.1203C67.22 42.4001 67.6636 46.9617 69.6384 50.9354C71.6133 54.9092 74.9814 58.0173 79.1007 59.6672C76.1636 57.5342 74.1715 54.3421 73.5461 50.7664C72.9207 47.1907 73.711 43.5119 75.7499 40.5086C75.8204 40.582 75.8944 40.6519 75.9717 40.7181C73.9792 43.6759 73.221 47.2949 73.8586 50.8037C74.4963 54.3125 76.4795 57.4333 79.3852 59.5008C78.4191 58.6304 77.6882 57.5303 77.2601 56.3023C76.8321 55.0743 76.7208 53.7582 76.9364 52.4758C77.1521 51.1934 77.6879 49.9861 78.494 48.9657C79.3002 47.9453 80.3508 47.1448 81.5485 46.6382C82.7645 46.124 83.8529 45.3495 84.7373 44.3693C85.6217 43.3891 86.2805 42.227 86.6673 40.9648C87.0541 39.7025 87.1597 38.3708 86.9764 37.0634C86.7931 35.756 86.3255 34.5046 85.6065 33.3974C85.139 32.6774 84.8438 31.8593 84.7438 31.0067C84.6439 30.1541 84.7419 29.2899 85.0302 28.4814C85.3185 27.6728 85.7894 26.9416 86.4062 26.3445ZM78.2898 37.1381L80.3956 36.2197L79.2318 38.2004L80.7559 39.9193L78.5125 39.4246L77.3487 41.4053L77.126 39.1188L74.8826 38.6241L76.9884 37.7057L76.7657 35.4192L78.2898 37.1381Z" fill="white"/>
<path fill-rule="evenodd" clip-rule="evenodd" d="M113.987 55.6929C114.746 56.095 115.401 56.6667 115.903 57.3633C115.194 52.9828 112.899 49.0162 109.453 46.2196C106.008 43.4231 101.654 41.9922 97.2213 42.1997C92.7887 42.4072 88.5875 44.2386 85.4185 47.3447C82.2495 50.4509 80.3343 54.6146 80.0381 59.0422C81.1591 55.5896 83.5793 52.7086 86.7868 51.0089C89.9942 49.3092 93.7372 48.924 97.2235 49.935C97.1755 50.0247 97.1319 50.1167 97.0928 50.2107C93.6641 49.2297 89.9879 49.6269 86.8479 51.3177C83.7079 53.0084 81.3526 55.8589 80.2842 59.2614C80.8135 58.0735 81.6339 57.0384 82.6695 56.2519C83.7051 55.4653 84.9224 54.9527 86.2087 54.7615C87.495 54.5704 88.8088 54.7068 90.0284 55.1582C91.2479 55.6096 92.3339 56.3614 93.1858 57.344C94.0506 58.3415 95.1235 59.1374 96.329 59.6756C97.5345 60.2138 98.8433 60.4812 100.163 60.459C101.483 60.4369 102.782 60.1257 103.969 59.5474C105.156 58.9691 106.202 58.1377 107.033 57.1118C107.573 56.4446 108.26 55.9111 109.04 55.5525C109.82 55.194 110.672 55.0201 111.53 55.0445C112.388 55.0688 113.229 55.2907 113.987 55.6929ZM101.214 51.309L102.738 53.0279L100.495 52.5332L99.3308 54.5139L99.1081 52.2274L96.8647 51.7326L98.9705 50.8143L98.7478 48.5278L100.272 50.2467L102.378 49.3283L101.214 51.309Z" fill="white"/>
<path fill-rule="evenodd" clip-rule="evenodd" d="M94.5985 90.9933C94.4504 91.8388 94.1093 92.6389 93.6017 93.3312C97.5489 91.3037 100.612 87.8945 102.207 83.7537C103.802 79.6128 103.817 75.0297 102.25 70.8782C100.683 66.7267 97.6432 63.297 93.7098 61.2429C89.7764 59.1889 85.2246 58.6541 80.9222 59.7406C84.5522 59.7398 88.0401 61.1514 90.6478 63.6766C93.2555 66.2018 94.7785 69.6425 94.8943 73.2707C94.7941 73.2527 94.6931 73.2397 94.5917 73.2315C94.4651 69.6675 92.9513 66.2939 90.373 63.8301C87.7947 61.3662 84.3559 60.0071 80.7898 60.0424C82.0831 60.1788 83.3211 60.6392 84.3892 61.381C85.4572 62.1228 86.3209 63.1222 86.9002 64.2864C87.4795 65.4507 87.7557 66.7423 87.7033 68.0417C87.6508 69.3411 87.2714 70.6062 86.6002 71.72C85.9187 72.8508 85.4933 74.1171 85.354 75.4299C85.2147 76.7427 85.3648 78.0701 85.7938 79.3187C86.2227 80.5673 86.9201 81.7067 87.8369 82.6566C88.7536 83.6066 89.8675 84.3442 91.0999 84.8173C91.9014 85.125 92.6211 85.6133 93.2031 86.2443C93.7851 86.8754 94.2138 87.6321 94.4558 88.4557C94.6978 89.2794 94.7467 90.1477 94.5985 90.9933ZM94.8207 77.4903L93.6569 79.4711L93.4342 77.1846L91.1908 76.6898L93.2966 75.7714L93.0738 73.4849L94.598 75.2038L96.7038 74.2855L95.54 76.2662L97.0641 77.9851L94.8207 77.4903Z" fill="white"/>
</g>
<defs>
<clipPath id="clip0_462_293">
<rect width="160" height="120" fill="white"/>
</clipPath>
</defs>
</svg>
