<svg width="160" height="120" viewBox="0 0 160 120" fill="none" xmlns="http://www.w3.org/2000/svg">
<g clip-path="url(#clip0_944_4042)">
<path d="M0 0H160V120H0V0Z" fill="#021455"/>
<path d="M121.667 91.4285L123.319 96.5676L128.368 94.6557L125.381 99.1522L130.023 101.907L124.645 102.375L125.386 107.722L121.667 103.809L117.948 107.722L118.688 102.375L113.31 101.907L117.953 99.1522L114.965 94.6557L120.014 96.5676L121.667 91.4285Z" fill="white"/>
<path d="M91.6666 43.9285L93.3195 49.0676L98.368 47.1557L95.3806 51.6522L100.023 54.4072L94.645 54.8751L95.3856 60.2225L91.6666 56.3094L87.9476 60.2225L88.6882 54.8751L83.3101 54.4072L87.9526 51.6522L84.9652 47.1557L90.0137 49.0676L91.6666 43.9285Z" fill="white"/>
<path d="M121.667 11.4285L123.319 16.5676L128.368 14.6557L125.381 19.1522L130.023 21.9072L124.645 22.3751L125.386 27.7225L121.667 23.8094L117.948 27.7225L118.688 22.3751L113.31 21.9072L117.953 19.1522L114.965 14.6557L120.014 16.5676L121.667 11.4285Z" fill="white"/>
<path d="M148.333 35.9285L149.986 41.0676L155.035 39.1557L152.047 43.6522L156.69 46.4072L151.312 46.8751L152.052 52.2225L148.333 48.3094L144.614 52.2225L145.355 46.8751L139.977 46.4072L144.619 43.6522L141.632 39.1557L146.68 41.0676L148.333 35.9285Z" fill="white"/>
<path d="M133.667 60L134.973 63.2022L138.422 63.4549L135.78 65.6867L136.606 69.0451L133.667 67.2222L130.728 69.0451L131.553 65.6867L128.911 63.4549L132.36 63.2022L133.667 60Z" fill="white"/>
<path d="M40 72L43.4711 82.7922L54.073 78.7772L47.7994 88.2198L57.5487 94.0054L46.2547 94.9879L47.8099 106.217L40 98L32.1901 106.217L33.7453 94.9879L22.4513 94.0054L32.2006 88.2198L25.927 78.7772L36.5289 82.7922L40 72Z" fill="white"/>
<g clip-path="url(#clip1_944_4042)">
<path d="M0 0H80V60H0V0Z" fill="#021455"/>
<path d="M80 7.49951L49.9995 30L80 52.5V60H70.0005L40 37.4995L9.99951 60H0V52.5L30 30L0 7.49951V0H10L40 22.5L70 0H80V7.49951Z" fill="white"/>
<path d="M40 35L6.66699 60H0L40 30V35Z" fill="#D91C16"/>
<path d="M80 54.9995V60L40 30H46.6665L80 54.9995Z" fill="#D91C16"/>
<path d="M40 30H33.333L0 5V0L40 30Z" fill="#D91C16"/>
<path d="M80 0L40 30V24.9995L73.333 0H80Z" fill="#D91C16"/>
<path d="M50 0V20H80V40H50V60H30V40H0V20H30V0H50Z" fill="white"/>
<path d="M46 0V24H80V36H46V60H34V36H0V24H34V0H46Z" fill="#D91C16"/>
</g>
</g>
<defs>
<clipPath id="clip0_944_4042">
<rect width="160" height="120" fill="white"/>
</clipPath>
<clipPath id="clip1_944_4042">
<rect width="80" height="60" fill="white"/>
</clipPath>
</defs>
</svg>
