<svg width="160" height="120" viewBox="0 0 160 120" fill="none" xmlns="http://www.w3.org/2000/svg">
<g clip-path="url(#clip0_909_250338)">
<path d="M0 0H160V120H0V0Z" fill="white"/>
<path d="M0 0H160V40H0V0ZM0 80H160V120H0V80Z" fill="#54AEF2"/>
<path d="M46.8403 43.3333L48.3372 47.9399H53.1807L49.2622 50.7867L50.759 55.3933L46.8403 52.5463L42.9217 55.3933L44.4185 50.7867L40.5 47.9399H45.3435L46.8403 43.3333Z" fill="#54AEF2"/>
<path d="M46.8403 63.3333L48.3372 67.9399H53.1807L49.2622 70.7867L50.759 75.3932L46.8403 72.5463L42.9217 75.3932L44.4185 70.7867L40.5 67.9399H45.3435L46.8403 63.3333Z" fill="#54AEF2"/>
<path d="M81.6705 57.9399L80.1736 53.3332L78.6768 57.9399H73.8333L77.7518 60.7867L76.255 65.3932L80.1736 62.5463L84.0923 65.3932L82.5955 60.7867L86.514 57.9399H81.6705Z" fill="#54AEF2"/>
<path d="M113.507 43.3333L115.004 47.9399H119.847L115.929 50.7867L117.426 55.3933L113.507 52.5463L109.588 55.3933L111.085 50.7867L107.167 47.9399H112.01L113.507 43.3333Z" fill="#54AEF2"/>
<path d="M115.004 67.9399L113.507 63.3333L112.01 67.9399H107.167L111.085 70.7867L109.588 75.3933L113.507 72.5463L117.426 75.3933L115.929 70.7867L119.847 67.9399H115.004Z" fill="#54AEF2"/>
</g>
<defs>
<clipPath id="clip0_909_250338">
<rect width="160" height="120" fill="white"/>
</clipPath>
</defs>
</svg>
