<svg width="160" height="120" viewBox="0 0 160 120" fill="none" xmlns="http://www.w3.org/2000/svg">
<path d="M79.5047 69.9725H79.5031C79.2157 69.9342 78.9681 69.8734 78.7871 69.7969C78.7806 69.7941 78.7776 69.7867 78.7803 69.7801C78.7831 69.7738 78.7905 69.7701 78.7971 69.7734C78.976 69.849 79.2213 69.9092 79.5064 69.9471C79.5134 69.9481 79.5183 69.9545 79.5174 69.9615C79.5165 69.968 79.5111 69.9725 79.5047 69.9725ZM79.5047 69.8225H79.5031C79.2157 69.7844 78.9681 69.7236 78.7871 69.6469C78.7806 69.6441 78.7776 69.6367 78.7804 69.6301C78.7831 69.6238 78.7905 69.6201 78.7971 69.6234C78.976 69.6992 79.2213 69.7594 79.5064 69.7971C79.5134 69.798 79.5183 69.8045 79.5174 69.8115C79.5165 69.818 79.5111 69.8225 79.5047 69.8225ZM79.5047 69.6727H79.5031C79.215 69.6344 78.9674 69.5736 78.7871 69.4971C78.7806 69.4943 78.7776 69.4869 78.7804 69.4803C78.7831 69.474 78.7905 69.4705 78.7971 69.4736C78.9753 69.5492 79.2206 69.6094 79.5064 69.6473C79.5134 69.6482 79.5183 69.6547 79.5174 69.6617C79.5165 69.6682 79.5111 69.6727 79.5047 69.6727ZM79.5047 69.5229H79.5031C79.2157 69.4846 78.9681 69.4238 78.7871 69.3473C78.7806 69.3445 78.7776 69.3371 78.7803 69.3305C78.7831 69.3242 78.7905 69.3209 78.7971 69.3238C78.976 69.3994 79.2213 69.4596 79.5064 69.4975C79.5134 69.4984 79.5183 69.5049 79.5174 69.5119C79.5165 69.5184 79.5111 69.5229 79.5047 69.5229ZM79.5047 69.373H79.5031C79.2157 69.3348 78.9681 69.274 78.7871 69.1975C78.7806 69.1947 78.7776 69.1873 78.7803 69.1807C78.7831 69.1744 78.7905 69.1709 78.7971 69.174C78.976 69.2496 79.2213 69.3098 79.5064 69.3477C79.5134 69.3486 79.5183 69.3551 79.5174 69.3621C79.5165 69.3686 79.5111 69.373 79.5047 69.373ZM79.5047 69.223H79.5031C79.2163 69.1854 78.9688 69.1246 78.7871 69.0475C78.7806 69.0447 78.7776 69.0373 78.7804 69.0307C78.7831 69.0244 78.7905 69.0209 78.7971 69.024C78.9767 69.1002 79.2219 69.1602 79.5064 69.1977C79.5134 69.1986 79.5183 69.2051 79.5174 69.2121C79.5165 69.2184 79.5111 69.223 79.5047 69.223ZM79.5047 69.0732H79.5031C79.2157 69.0352 78.9681 68.9744 78.7871 68.8977C78.7806 68.8949 78.7776 68.8875 78.7804 68.8809C78.7831 68.8746 78.7905 68.8709 78.7971 68.8742C78.976 68.95 79.2213 69.0102 79.5064 69.0479C79.5134 69.0488 79.5183 69.0553 79.5174 69.0623C79.5165 69.0686 79.5111 69.0732 79.5047 69.0732ZM79.5047 68.9234H79.5031C79.2163 68.8855 78.9688 68.8248 78.7871 68.7479C78.7806 68.7451 78.7776 68.7377 78.7803 68.7311C78.7831 68.7248 78.7905 68.7213 78.7971 68.7244C78.9767 68.8004 79.222 68.8604 79.5064 68.898C79.5134 68.899 79.5183 68.9055 79.5174 68.9125C79.5165 68.9189 79.5111 68.9234 79.5047 68.9234ZM79.5047 68.7736H79.5031C79.2163 68.7357 78.9688 68.675 78.7871 68.598C78.7806 68.5953 78.7776 68.5879 78.7803 68.5813C78.7831 68.575 78.7905 68.5717 78.7971 68.5746C78.9767 68.6506 79.222 68.7105 79.5064 68.7482C79.5134 68.7492 79.5183 68.7557 79.5174 68.7627C79.5165 68.7691 79.5111 68.7736 79.5047 68.7736ZM79.5047 68.6236H79.5031C79.2163 68.5859 78.9688 68.5252 78.7871 68.448C78.7806 68.4453 78.7776 68.4379 78.7804 68.4313C78.7831 68.425 78.7905 68.4217 78.7971 68.4246C78.9767 68.5008 79.2219 68.5607 79.5064 68.5982C79.5134 68.5992 79.5183 68.6057 79.5174 68.6127C79.5165 68.6189 79.5111 68.6236 79.5047 68.6236ZM79.5047 68.4738H79.5031C79.2157 68.4357 78.9681 68.375 78.7871 68.2982C78.7806 68.2955 78.7776 68.2881 78.7804 68.2814C78.7831 68.2752 78.7905 68.2717 78.7971 68.2748C78.976 68.3506 79.2213 68.4107 79.5064 68.4484C79.5134 68.4494 79.5183 68.4559 79.5174 68.4629C79.5165 68.4691 79.5111 68.4738 79.5047 68.4738ZM79.5047 68.324H79.5031C79.2163 68.2861 78.9688 68.2254 78.7871 68.1484C78.7806 68.1457 78.7776 68.1383 78.7803 68.1316C78.7831 68.1254 78.7905 68.1217 78.7971 68.125C78.9767 68.201 79.222 68.2609 79.5064 68.2986C79.5134 68.2996 79.5183 68.3061 79.5174 68.3131C79.5165 68.3195 79.5111 68.324 79.5047 68.324ZM79.5047 68.1742H79.5031C79.2163 68.1363 78.9688 68.0756 78.7871 67.9986C78.7806 67.9959 78.7776 67.9885 78.7803 67.9818C78.7831 67.9756 78.7905 67.9721 78.7971 67.9752C78.9767 68.0512 79.222 68.1111 79.5064 68.1488C79.5134 68.1498 79.5183 68.1563 79.5174 68.1633C79.5165 68.1695 79.5111 68.1742 79.5047 68.1742ZM79.5047 68.0242H79.5031C79.2163 67.9865 78.9688 67.9258 78.7871 67.8486C78.7806 67.8459 78.7776 67.8385 78.7804 67.8318C78.7831 67.8256 78.7905 67.8221 78.7971 67.8252C78.9767 67.9014 79.2219 67.9613 79.5064 67.9988C79.5134 67.9998 79.5183 68.0063 79.5174 68.0133C79.5165 68.0195 79.5111 68.0242 79.5047 68.0242ZM79.5047 67.8744H79.5031C79.2157 67.8363 78.9681 67.7756 78.7871 67.6988C78.7806 67.6961 78.7776 67.6887 78.7804 67.682C78.7831 67.6758 78.7905 67.6725 78.7971 67.6754C78.976 67.7512 79.2213 67.8113 79.5064 67.849C79.5134 67.85 79.5183 67.8564 79.5174 67.8635C79.5165 67.8697 79.5111 67.8744 79.5047 67.8744Z" fill="black"/>
</g>
<path d="M80.2084 66.4946C80.0026 66.4946 79.7988 66.505 79.6088 66.525C79.4186 66.5448 79.246 66.5742 79.1004 66.611C78.955 66.648 78.8396 66.6918 78.7608 66.74C78.6822 66.7882 78.6416 66.8398 78.6416 66.892C78.6424 66.9146 78.6508 66.937 78.6666 66.9592V67.3396C78.6508 67.3618 78.6424 67.3842 78.6416 67.4068C78.6418 67.4302 78.6502 67.4536 78.6666 67.4768V67.5494H78.7464C78.8602 67.6244 79.0606 67.6888 79.3216 67.7344C79.5826 67.7798 79.8918 67.8042 80.2084 67.8042C80.5248 67.804 80.8336 67.7796 81.0942 67.7342C81.3548 67.6888 81.5552 67.6244 81.6688 67.5494H81.7656V67.4492C81.7716 67.4352 81.7748 67.421 81.775 67.4068C81.7742 67.3942 81.771 67.3818 81.7656 67.3692V66.9296C81.771 66.9172 81.7742 66.9046 81.775 66.892C81.775 66.8398 81.7346 66.7882 81.6558 66.74C81.577 66.6918 81.4616 66.648 81.3162 66.611C81.1708 66.5742 80.998 66.5448 80.808 66.525C80.6178 66.505 80.4142 66.4946 80.2084 66.4946ZM80.2084 66.7634C80.241 66.7636 80.2734 66.764 80.306 66.7646C80.3324 66.765 80.3588 66.7654 80.3852 66.7662C80.4086 66.7668 80.4318 66.7678 80.4548 66.7688C80.4834 66.7698 80.5118 66.7712 80.54 66.7726C80.564 66.774 80.5878 66.7756 80.6116 66.7774C80.6374 66.779 80.6632 66.7808 80.6886 66.7828C80.7148 66.7852 80.741 66.7876 80.7666 66.7902C80.7892 66.7922 80.8114 66.7944 80.8334 66.7968C80.86 66.7998 80.8864 66.803 80.9124 66.8064C80.933 66.809 80.9532 66.8116 80.9732 66.8144C80.9998 66.8182 81.026 66.8224 81.0516 66.8266C81.0696 66.8294 81.0874 66.8324 81.105 66.8354C81.1276 66.8396 81.1496 66.8438 81.1712 66.8482C81.1856 66.8508 81.1996 66.8536 81.2138 66.8564H81.2114C81.4244 66.9014 81.5864 66.96 81.681 67.0262C81.572 67.103 81.3722 67.1696 81.1088 67.2168C80.8452 67.2638 80.5308 67.2892 80.2084 67.2894C79.8862 67.2892 79.5718 67.264 79.3084 67.217C79.0448 67.17 78.845 67.1034 78.7358 67.0266C78.8272 66.962 78.9828 66.9046 79.1876 66.8598C79.3924 66.815 79.6392 66.7844 79.9044 66.771C79.9556 66.7686 80.0074 66.7666 80.0592 66.7652C80.1088 66.764 80.1586 66.7634 80.2084 66.7634Z" fill="#E23726"/>
<path d="M80.2085 67.8169C79.8903 67.8169 79.5829 67.7929 79.3195 67.747C79.0578 67.7013 78.8585 67.6374 78.7427 67.5622H78.6539V67.4808C78.6375 67.4565 78.6291 67.4317 78.6289 67.4071C78.6298 67.3825 78.6382 67.3589 78.6539 67.3356V66.9632C78.6382 66.9399 78.6298 66.9163 78.6289 66.8925C78.6289 66.8349 78.6711 66.78 78.7542 66.7292C78.8341 66.6804 78.9496 66.6364 79.0974 66.5987C79.2464 66.561 79.4181 66.5321 79.6076 66.5124C79.7988 66.4921 80.0011 66.4819 80.2085 66.4819C80.4158 66.4819 80.618 66.4921 80.8094 66.5124C80.9992 66.5321 81.1709 66.561 81.3193 66.5987C81.4672 66.6364 81.5826 66.6804 81.6625 66.7292C81.7457 66.7798 81.7877 66.8347 81.7877 66.8921C81.7869 66.9062 81.7838 66.9194 81.7783 66.9323V67.3667C81.7838 67.38 81.7869 67.3929 81.7877 67.4062C81.7875 67.422 81.7844 67.4372 81.7783 67.4519V67.5622H81.6727C81.557 67.6374 81.3578 67.7013 81.0965 67.7468C80.8338 67.7925 80.5266 67.8167 80.2085 67.8169ZM78.6795 67.5368H78.7503L78.7535 67.5388C78.8659 67.613 79.0632 67.6763 79.3239 67.722C79.5858 67.7673 79.8917 67.7915 80.2085 67.7915C80.5252 67.7913 80.8309 67.7671 81.0922 67.7218C81.3525 67.6763 81.5496 67.613 81.6619 67.5388L81.665 67.5368H81.7529L81.7539 67.4442C81.7592 67.4317 81.7621 67.4192 81.7623 67.4067C81.7615 67.3968 81.7588 67.3858 81.7539 67.3743L81.7529 67.3692L81.7539 66.9243C81.7588 66.9136 81.7615 66.9024 81.7623 66.8913C81.7623 66.8448 81.723 66.796 81.6492 66.7511C81.5715 66.7034 81.4584 66.6604 81.3131 66.6233C81.1658 66.5862 80.9953 66.5573 80.8066 66.5378C80.6162 66.5177 80.4148 66.5073 80.2085 66.5073C80.002 66.5073 79.8007 66.5177 79.6103 66.5378C79.4219 66.5573 79.2515 66.5862 79.1036 66.6233C78.9584 66.6604 78.8453 66.7034 78.7675 66.7511C78.6936 66.7962 78.6545 66.845 78.6545 66.8921C78.6552 66.9116 78.6626 66.9313 78.6771 66.9519L78.6795 66.9552V67.3438L78.6771 67.3472C78.6628 67.3671 78.6552 67.3874 78.6545 67.4073C78.6547 67.4274 78.6623 67.4483 78.6771 67.4694L78.6795 67.4728V67.5368ZM80.2085 67.3022C79.8842 67.3021 79.5723 67.2771 79.3063 67.2296C79.0399 67.1821 78.8401 67.1155 78.7285 67.0372L78.7137 67.0267L78.7284 67.0163C78.821 66.9509 78.9788 66.8925 79.185 66.8474C79.3903 66.8024 79.639 66.7718 79.9038 66.7583C79.9552 66.756 80.007 66.754 80.059 66.7526C80.1087 66.7513 80.1586 66.7507 80.2085 66.7507C80.2411 66.7509 80.2736 66.7513 80.3064 66.7521C80.3326 66.7524 80.3592 66.7528 80.3857 66.7536C80.409 66.7542 80.4322 66.7552 80.4555 66.7562C80.484 66.7571 80.5125 66.7585 80.5408 66.7601C80.5648 66.7614 80.5887 66.763 80.6127 66.7647C80.6383 66.7663 80.6643 66.7681 80.6898 66.7702C80.716 66.7726 80.7424 66.7749 80.768 66.7776C80.7904 66.7796 80.8129 66.7817 80.8348 66.7841C80.8617 66.7872 80.8881 66.7903 80.9143 66.7938C80.9348 66.7964 80.9551 66.7989 80.9752 66.8019C80.9971 66.805 81.0189 66.8085 81.0406 66.812L81.0537 66.814C81.0668 66.8159 81.0797 66.8183 81.0926 66.8204L81.1143 66.8241C81.1346 66.828 81.1543 66.8317 81.1738 66.8358C81.1881 66.8384 81.2021 66.8411 81.2164 66.844V66.8444C81.4297 66.8897 81.593 66.9489 81.6885 67.0157L81.7033 67.0263L81.6885 67.0368C81.5773 67.1149 81.3775 67.1817 81.1111 67.2294C80.8441 67.2769 80.5322 67.3021 80.2085 67.3022ZM78.7587 67.0267C78.8699 67.0983 79.0602 67.1599 79.3107 67.2046C79.5753 67.2517 79.8857 67.2767 80.2085 67.2769C80.5307 67.2767 80.8412 67.2515 81.1066 67.2044C81.3572 67.1593 81.5473 67.0979 81.6582 67.0263C81.5633 66.9653 81.4086 66.9112 81.2088 66.869L81.209 66.8687C81.1957 66.8659 81.1826 66.8634 81.1691 66.8608C81.1492 66.8567 81.1297 66.853 81.1094 66.8493L81.0883 66.8456C81.0756 66.8435 81.0627 66.8413 81.0498 66.8394L81.0365 66.8372C81.015 66.8337 80.9934 66.8304 80.9715 66.8272C80.9516 66.8243 80.9313 66.8218 80.9109 66.8192C80.885 66.8157 80.8586 66.8126 80.8318 66.8095C80.8102 66.8071 80.7881 66.805 80.7654 66.803C80.7396 66.8003 80.7137 66.7979 80.6875 66.7956C80.6623 66.7935 80.6367 66.7917 80.6109 66.7901C80.5871 66.7884 80.5633 66.7868 80.5393 66.7854C80.5113 66.7839 80.4828 66.7825 80.4545 66.7815C80.4314 66.7806 80.4082 66.7796 80.385 66.779C80.3584 66.7782 80.3322 66.7778 80.3059 66.7774C80.2231 66.7753 80.1413 66.7759 80.0597 66.778C80.0078 66.7794 79.9562 66.7813 79.9051 66.7837C79.6416 66.7972 79.3944 66.8278 79.1904 66.8724C78.9988 66.9142 78.8502 66.9673 78.7587 67.0267Z" fill="black"/>
<path d="M80.208 66.7634C79.8856 66.7636 79.5711 66.7888 79.3076 66.836C79.044 66.883 78.8442 66.9496 78.7354 67.0266C78.8445 67.1036 79.0443 67.17 79.308 67.217C79.5714 67.264 79.8857 67.2892 80.208 67.2894C80.5304 67.2892 80.8448 67.264 81.1081 67.2168C81.3718 67.1698 81.5716 67.1032 81.6804 67.0262C81.5713 66.9492 81.3714 66.8828 81.1078 66.8358C80.8443 66.7888 80.5302 66.7636 80.208 66.7634Z" fill="white"/>
<path d="M80.2077 67.3022C79.8834 67.302 79.5715 67.277 79.3055 67.2295C79.0388 67.1821 78.839 67.1155 78.7277 67.0371L78.7129 67.0266L78.7276 67.0162C78.8387 66.9377 79.0383 66.8709 79.3051 66.8235C79.5697 66.776 79.8819 66.7508 80.2077 66.7506C80.533 66.7508 80.8449 66.7758 81.1098 66.8233C81.3768 66.8709 81.5766 66.9375 81.6875 67.0158L81.7021 67.0262L81.6875 67.0365C81.5766 67.1151 81.3768 67.1819 81.1102 67.2293C80.8445 67.2768 80.5326 67.302 80.2077 67.3022ZM78.7579 67.0266C78.8688 67.0983 79.059 67.1596 79.31 67.2045C79.5745 67.2516 79.885 67.2766 80.2077 67.2768C80.5311 67.2766 80.8416 67.2514 81.1055 67.2043C81.3566 67.1594 81.5467 67.0981 81.6572 67.0262C81.5467 66.9545 81.3564 66.8932 81.1051 66.8483C80.8418 66.8012 80.5314 66.7762 80.2077 66.776C79.8834 66.7762 79.5729 66.8014 79.3096 66.8485C79.0586 66.8934 78.8686 66.9547 78.7579 67.0266Z" fill="black"/>
<path d="M80.1741 66.4952C80.1321 66.4952 80.0901 66.4958 80.0483 66.4968V66.7658C80.0901 66.7646 80.1321 66.764 80.1741 66.7636V66.4952ZM81.0325 66.5544V66.8236C81.0757 66.8304 81.1177 66.8378 81.1581 66.8458V66.5764C81.1177 66.5686 81.0757 66.5612 81.0325 66.5544ZM79.2945 66.5696C79.2511 66.5776 79.2091 66.5862 79.1689 66.5952V66.8638C79.2091 66.8548 79.2511 66.8464 79.2945 66.8384V66.5696ZM81.2001 67.199C81.1533 67.2086 81.1043 67.2176 81.0535 67.2258V67.7406C81.1043 67.7322 81.1533 67.7234 81.2001 67.7136V67.199ZM79.7553 67.2718V67.787C79.8035 67.7906 79.8523 67.7938 79.9019 67.7964V67.2812C79.8523 67.2786 79.8035 67.2756 79.7553 67.2718Z" fill="white"/>
<path d="M79.9148 67.8098L79.9014 67.809C79.8517 67.8064 79.8028 67.8033 79.7545 67.7996L79.7427 67.7988V67.2578L79.7565 67.259C79.8046 67.2629 79.8532 67.2658 79.9027 67.2686L79.9148 67.2691V67.8098ZM79.7683 67.775C79.8082 67.7781 79.8484 67.7807 79.8893 67.7828V67.2934C79.8484 67.291 79.8082 67.2887 79.7683 67.2855V67.775ZM81.041 67.7557V67.2148L81.0518 67.2131C81.1016 67.2051 81.1506 67.1961 81.1977 67.1865L81.2129 67.1834V67.7238L81.2029 67.726C81.1611 67.735 81.1145 67.7436 81.0559 67.7533L81.041 67.7557ZM81.0664 67.2367V67.7256C81.1133 67.7176 81.1523 67.7104 81.1875 67.7031V67.2146C81.148 67.2225 81.1076 67.2299 81.0664 67.2367ZM79.1562 66.8797V66.585L79.1662 66.5826C79.2075 66.5734 79.2499 66.5648 79.2923 66.557L79.3074 66.5541V66.8488L79.297 66.8508C79.2509 66.8594 79.21 66.8676 79.1719 66.8762L79.1562 66.8797ZM79.1818 66.6055V66.8479C79.2128 66.841 79.2458 66.8344 79.2818 66.8277V66.585C79.2482 66.5912 79.2146 66.598 79.1818 66.6055ZM81.1709 66.8613L81.1557 66.8582C81.1154 66.8502 81.0734 66.8428 81.0307 66.8363L81.0199 66.8346V66.5393L81.0346 66.5416C81.0777 66.5484 81.1201 66.5559 81.1605 66.5639L81.1709 66.5658V66.8613ZM81.0453 66.8127C81.0795 66.818 81.1129 66.8238 81.1455 66.8301V66.5869C81.1129 66.5807 81.0795 66.5748 81.0453 66.5693V66.8127ZM80.0356 66.7789V66.4842L80.0481 66.484C80.09 66.483 80.1321 66.4824 80.1742 66.4824H80.187V66.7762H80.1743C80.1324 66.7766 80.0905 66.7773 80.0488 66.7785L80.0356 66.7789ZM80.0612 66.5092V66.7527C80.0945 66.7518 80.128 66.7512 80.1614 66.7508V66.508C80.128 66.508 80.0945 66.5084 80.0612 66.5092Z" fill="black"/>
<path d="M81.7656 69.8281C81.7076 69.8625 81.6294 69.8949 81.5334 69.9241C81.3928 69.9811 81.1976 70.0283 80.9658 70.0609C80.7342 70.0935 80.4736 70.1107 80.2084 70.1109C79.9446 70.1107 79.685 70.0937 79.454 70.0615C79.2228 70.0291 79.0278 69.9825 78.8866 69.9261C78.7972 69.8987 78.7232 69.8689 78.6666 69.8371V70.1613C78.6508 70.1833 78.6424 70.2059 78.6416 70.2283C78.6418 70.2519 78.6502 70.2751 78.6666 70.2983V70.3711H78.7464C78.8602 70.4459 79.0608 70.5105 79.3216 70.5559C79.5826 70.6013 79.8918 70.6257 80.2084 70.6257C80.5246 70.6255 80.8334 70.6011 81.0942 70.5557C81.3548 70.5103 81.5552 70.4459 81.6688 70.3711H81.7656V70.2709C81.7716 70.2567 81.7748 70.2425 81.775 70.2283C81.7742 70.2159 81.771 70.2033 81.7656 70.1909V69.8281Z" fill="#E23726"/>
<path d="M80.2085 70.6384C79.8899 70.6384 79.5825 70.6141 79.3195 70.5682C79.0586 70.5229 78.8594 70.4593 78.7427 70.3837H78.6539V70.3022C78.6375 70.278 78.6291 70.2532 78.6289 70.2284C78.6298 70.204 78.6382 70.1802 78.6539 70.1571V69.8151L78.6729 69.8259C78.7284 69.8571 78.8016 69.8866 78.8904 69.9137C79.0311 69.97 79.2262 70.0165 79.4559 70.0487C79.6855 70.0807 79.9458 70.0979 80.2085 70.0981C80.4725 70.0979 80.7338 70.0805 80.9641 70.0481C81.1941 70.0157 81.3895 69.9688 81.5285 69.9122C81.6244 69.8829 81.7016 69.851 81.7592 69.8171L81.7783 69.8055V70.1882C81.7838 70.201 81.7869 70.2141 81.7877 70.2274C81.7875 70.2434 81.7844 70.2587 81.7783 70.2733V70.3837H81.6727C81.5566 70.4589 81.3574 70.5227 81.0965 70.5682C80.8336 70.6139 80.5264 70.6382 80.2085 70.6384ZM78.6795 70.3583H78.7503L78.7535 70.3602C78.8668 70.4348 79.064 70.4979 79.3238 70.5432C79.5854 70.5887 79.8913 70.613 80.2085 70.613C80.525 70.6128 80.8307 70.5885 81.0922 70.5432C81.3521 70.4977 81.5492 70.4344 81.6619 70.3602L81.665 70.3583H81.7529L81.7539 70.2657C81.7592 70.2532 81.7621 70.2405 81.7623 70.228C81.7615 70.218 81.7588 70.2069 81.7539 70.1962L81.7529 70.1909V69.8499C81.6961 69.8809 81.6236 69.9098 81.5371 69.9364C81.3971 69.9932 81.1998 70.0409 80.9676 70.0735C80.7361 70.1061 80.4736 70.1233 80.2085 70.1235C79.9446 70.1233 79.6832 70.1063 79.4523 70.0741C79.2207 70.0417 79.0234 69.9944 78.8819 69.938C78.802 69.9135 78.7338 69.8868 78.6795 69.8585V70.1653L78.6771 70.1686C78.6628 70.1885 78.6552 70.2089 78.6545 70.2286C78.6547 70.2491 78.6621 70.2696 78.6771 70.2909L78.6795 70.2942V70.3583Z" fill="black"/>
<path d="M78.6973 67.5861V68.0315L79.2581 70.0285C79.3003 70.0367 79.3443 70.0443 79.3895 70.0515L78.6973 67.5861Z" fill="#E23726"/>
<path d="M79.4072 70.0673L79.3875 70.0642C79.3385 70.0562 79.2953 70.0487 79.2558 70.0409L79.248 70.0396L79.2459 70.0319L78.6846 68.0315V67.586L78.7097 67.5825L79.4072 70.0673ZM79.2684 70.0173C79.3001 70.0235 79.3342 70.0294 79.3719 70.0356L78.7102 67.6788V68.0298L79.2684 70.0173Z" fill="black"/>
<path d="M79.7606 67.7874L79.2656 70.0298C79.304 70.0372 79.3436 70.044 79.3844 70.0504L79.8828 67.7952C79.8416 67.793 79.8008 67.7904 79.7606 67.7874ZM81.1558 67.7222C81.1138 67.7304 81.0702 67.738 81.0252 67.7448L80.419 70.1066C80.4612 70.1052 80.5032 70.1034 80.5448 70.1012L81.1558 67.7222Z" fill="#E23726"/>
<path d="M80.4022 70.1201L80.4065 70.1035L81.0146 67.7334L81.0229 67.7321C81.0663 67.7256 81.1101 67.718 81.153 67.7096L81.1729 67.7057L81.1679 67.7252L80.5546 70.1135L80.5452 70.1139C80.5036 70.116 80.4616 70.1178 80.4192 70.1194L80.4022 70.1201ZM81.0353 67.7561L80.4354 70.0932C80.4687 70.092 80.5017 70.0906 80.5347 70.0889L81.1382 67.7385C81.104 67.7449 81.0694 67.7508 81.0353 67.7561ZM79.394 70.0649L79.3822 70.0631C79.3412 70.0567 79.3016 70.0496 79.2629 70.0422L79.25 70.0399L79.2528 70.027L79.7503 67.7737L79.7613 67.7746C79.8015 67.7778 79.8422 67.7803 79.8833 67.7824L79.8983 67.7832L79.8951 67.7979L79.394 70.0649ZM79.2807 70.0196C79.3111 70.0254 79.3423 70.0307 79.3743 70.036L79.8669 67.8071C79.8345 67.8053 79.8022 67.8033 79.7704 67.801L79.2807 70.0196Z" fill="black"/>
<path d="M79.7588 67.7872L80.3778 70.1082C80.4192 70.107 80.4606 70.1052 80.5014 70.1032L79.8862 67.7956C79.8432 67.7932 79.8008 67.7904 79.7588 67.7872Z" fill="#E23726"/>
<path d="M80.3685 70.1214L80.3659 70.1116L79.7422 67.7729L79.7602 67.7745C79.8021 67.7778 79.8443 67.7806 79.8873 67.7829L79.8966 67.7833L79.8989 67.7923L80.5183 70.1151L80.5024 70.1159C80.4616 70.1179 80.42 70.1198 80.3786 70.121L80.3685 70.1214ZM79.7762 67.8013L80.388 70.0952C80.4206 70.0942 80.4532 70.0927 80.4854 70.0911L79.8767 67.8079C79.8428 67.806 79.8094 67.8038 79.7762 67.8013Z" fill="black"/>
<path d="M81.1903 67.7156C81.1521 67.7236 81.1123 67.731 81.0713 67.7378L81.6779 69.8268L81.7539 69.8056V69.6572L81.1903 67.7156Z" fill="#E23726"/>
<path d="M81.6687 69.8425L81.0547 67.7274L81.0689 67.7251C81.109 67.7187 81.1488 67.7112 81.1873 67.7032L81.1988 67.7007L81.2021 67.7122L81.7662 69.6573V69.8155L81.6687 69.8425ZM81.0871 67.7481L81.6863 69.8112L81.7408 69.796V69.6591L81.1809 67.7306C81.1502 67.737 81.1189 67.7427 81.0871 67.7481Z" fill="black"/>
<path d="M81.7634 69.829C81.7258 69.8508 81.68 69.872 81.6266 69.892V70.3948C81.6416 70.387 81.6554 70.379 81.6684 70.371H81.7634V69.829ZM79.2432 70.0256V70.5406C79.2872 70.5494 79.3328 70.5574 79.3802 70.565V70.0498C79.3328 70.0424 79.2872 70.0342 79.2432 70.0256ZM80.5158 70.1026C80.4706 70.105 80.4248 70.1068 80.379 70.1082V70.623C80.4248 70.6216 80.4706 70.62 80.5158 70.6178V70.1026Z" fill="white"/>
<path d="M80.3678 70.6361L80.3664 70.623V70.0957L80.3787 70.0955C80.4244 70.0941 80.4701 70.0922 80.5152 70.0898L80.5285 70.0891V70.6299L80.5164 70.6305C80.4717 70.6326 80.4264 70.6342 80.3811 70.6357L80.3678 70.6361ZM80.3918 70.1205V70.6098C80.4297 70.6086 80.4666 70.6072 80.5031 70.6057V70.116C80.4662 70.1178 80.4291 70.1193 80.3918 70.1205ZM79.3931 70.5801L79.3782 70.5777C79.3272 70.5695 79.2822 70.5615 79.2407 70.5531L79.2305 70.5512V70.0102L79.2457 70.0131C79.2937 70.0225 79.3384 70.0303 79.3822 70.0371L79.3931 70.0389V70.5801ZM79.2561 70.5301C79.2902 70.5369 79.327 70.5434 79.3675 70.55V70.0607C79.3314 70.0549 79.2947 70.0484 79.2561 70.041V70.5301ZM81.6141 70.4158V69.8832L81.6223 69.8801C81.6748 69.8602 81.7201 69.8393 81.757 69.8178L81.7762 69.8066V70.3836H81.6721C81.6598 70.3912 81.6467 70.3986 81.6326 70.4061L81.6141 70.4158ZM81.6395 69.9008V70.3732C81.6473 70.3688 81.6547 70.3645 81.6619 70.36L81.665 70.3582H81.7508V69.8506C81.7186 69.868 81.6813 69.8848 81.6395 69.9008Z" fill="black"/>
<path d="M80.6701 53.8133H80.4002V53.7621H80.6701V53.8133ZM80.6635 53.6631H80.3937V53.6119H80.6635V53.6631ZM80.6566 53.5131H80.3869V53.4619H80.6566V53.5131ZM80.65 53.3629H80.3803V53.3117H80.65V53.3629ZM80.6434 53.2126H80.3734V53.1614H80.6434V53.2126ZM80.6367 53.0626H80.3668V53.0114H80.6367V53.0626ZM80.6299 52.9124H80.3602V52.8612H80.6299V52.9124ZM80.6232 52.7624H80.3533V52.7112H80.6232V52.7624ZM80.6164 52.6122H80.3467V52.561H80.6164V52.6122ZM80.61 52.4622H80.3398V52.411H80.61V52.4622ZM80.6031 52.312H80.3332V52.2608H80.6031V52.312ZM80.5965 52.1618H80.3266V52.1106H80.5965V52.1618ZM80.5896 52.0118H80.3199V51.9606H80.5896V52.0118ZM80.583 51.8616H80.3131V51.8104H80.583V51.8616ZM80.5764 51.7116H80.3064V51.6604H80.5764V51.7116ZM80.5697 51.5614H80.2996V51.5102H80.5697V51.5614ZM80.5629 51.4114H80.2932V51.3602H80.5629V51.4114ZM80.5563 51.2612H80.2863V51.21H80.5563V51.2612ZM80.5494 51.111H80.2797V51.0598H80.5494V51.111ZM80.543 50.961H80.2729V50.9098H80.543V50.961ZM80.5361 50.8108H80.2662V50.7596H80.5361V50.8108ZM80.5293 50.6608H80.2596V50.6096H80.5293V50.6608ZM80.5227 50.5106H80.2529V50.4594H80.5227V50.5106ZM80.5158 50.3606H80.2461V50.3094H80.5158V50.3606Z" fill="black"/>
<path d="M79.7431 49.0888C77.1895 48.7602 76.3823 49.003 76.2649 49.0458C76.1475 49.0888 74.5037 49.5316 73.8579 50.5888C73.2123 51.646 73.7113 52.046 73.7113 52.046C73.5939 51.8032 74.0195 50.903 74.0195 50.903C73.8139 51.2746 74.0781 51.9032 74.0781 51.9032C73.9901 51.7174 74.1809 51.1602 74.1809 51.1602L74.3277 51.6032C74.3277 51.346 74.4597 50.7316 74.4597 50.7316C74.4743 51.5316 74.6359 51.6746 74.6359 51.6746C74.4891 51.4746 74.7385 50.246 74.7385 50.246C74.5917 50.9746 74.8267 51.1316 74.8267 51.1316C74.8267 50.2744 75.2523 49.8316 75.2523 49.8316C74.7973 50.3316 75.1201 51.0602 75.1201 51.0602C75.1641 50.2174 75.8245 49.5458 75.8245 49.5458C75.2081 50.1888 75.5751 50.6174 75.5751 50.6174C75.5897 50.0744 76.5437 49.2888 76.5437 49.2888C76.1327 49.6744 76.1475 50.1458 76.1475 50.1458C76.3089 49.8458 76.9253 49.2602 76.9253 49.2602C76.7785 49.4602 76.6465 49.9888 76.6465 49.9888L76.8373 49.8744L77.3655 49.2458L77.0427 49.7316L77.3655 49.5888L77.7325 49.2602L77.5711 49.4744L77.8353 49.403L78.0993 49.103L77.9379 49.3172H78.3195L78.4809 49.1602L78.4075 49.3316L78.6865 49.3458L78.7745 49.1888L78.7597 49.3458H78.8919L79.0093 49.1172L78.9653 49.3458C78.9653 49.3458 79.2735 49.3458 79.3321 49.4172C79.3909 49.4888 77.4537 50.003 77.4537 50.003C77.4537 50.003 77.8793 50.003 77.9085 50.1174C77.9379 50.2316 76.9399 50.3888 76.9399 50.3888L77.4243 50.5888L76.4557 50.7174L77.1601 50.803L75.9419 51.0888H77.0573L75.8833 51.3174L76.6317 51.4174L75.6485 51.5602L76.5877 51.646L75.5751 52.0602L76.1181 51.9746C75.0467 52.9746 75.4283 53.689 75.4283 53.689C75.5017 53.3746 75.9861 52.646 75.9861 52.646C75.8687 53.5746 76.1327 53.9032 76.1327 53.9032C76.1621 53.646 76.4997 52.3318 76.4997 52.3318C76.5583 52.6318 76.5877 53.4888 76.5877 53.4888C76.8373 53.2888 76.7345 52.2888 76.7345 52.2888L77.1307 52.6602C76.9399 52.346 76.9839 51.6174 76.9839 51.6174C77.1013 51.746 77.2481 52.246 77.2481 52.246C77.2629 52.1316 77.3803 51.2888 77.3803 51.2888C77.3803 51.5888 77.6151 52.1746 77.6151 52.1746L77.7031 51.1746C77.7179 51.4174 77.9967 51.9032 77.9967 51.9032V50.8174L78.1875 51.303L78.2167 50.546L78.3049 51.4316L78.4663 51.246L78.3341 51.2316L78.3929 51.203L78.5543 50.3316L78.8039 50.7316L78.8919 50.4744L78.8331 50.0602C78.9213 50.0888 79.0533 50.346 79.0533 50.346V49.8174L79.2881 49.9174L79.6403 49.4172L79.4203 49.8174L79.7577 49.6174L79.3615 49.9174L79.6111 50.0174L79.0533 50.0744V50.2174L79.5523 50.2602C78.8479 50.3744 78.8331 50.5744 78.8331 50.5744L79.5083 50.546C78.9799 50.5316 78.5983 50.903 78.5983 50.903L79.4055 50.8744C78.6571 50.9316 78.3489 51.2174 78.3489 51.2174L79.2881 51.2746C78.8185 51.2316 78.3049 51.7316 78.3049 51.7316L78.9213 51.746C78.3489 51.8032 78.2167 52.1174 78.2167 52.1174L78.7157 52.1316C78.2021 52.4174 78.1727 52.9032 78.1727 52.9032L78.7451 52.4602C78.1435 52.9746 78.3489 53.4032 78.3489 53.4032L78.7157 52.9888C78.2021 53.4746 78.3195 53.8174 78.3195 53.8174L78.7011 53.4174C78.5103 54.6318 78.7745 54.6604 78.7745 54.6604L78.8625 53.4318C79.1855 53.5888 79.3909 54.3032 79.3909 54.3032L79.1121 53.1746C79.4203 53.3888 79.5083 53.8318 79.5083 53.8318C79.6257 53.3174 79.1413 52.646 79.1413 52.646L79.7431 53.3888L79.2881 52.2602L79.8165 53.0318C79.8311 52.3032 79.4055 51.846 79.4055 51.846L80.0513 52.3888C80.0219 52.1602 79.6843 51.5602 79.6843 51.5602C79.8165 51.6602 80.0659 51.9602 80.0659 51.9602C79.9779 51.6032 79.6111 51.1888 79.6111 51.1888C79.7871 51.2316 80.0807 51.5888 80.0807 51.5888C80.0807 51.3888 79.8751 50.646 79.8751 50.646L80.0953 51.103L80.0073 50.3602L80.1981 50.646L80.1541 50.1316L80.2861 50.1602L80.3741 49.5458L80.3301 50.1744L80.1833 50.1174L80.2275 50.6174L80.6823 50.1316L80.4181 51.003L80.8731 50.5888L80.5063 51.346L81.0347 50.746L80.6383 51.7316L81.0639 51.3746L80.6677 52.0888C80.8879 52.0888 81.3281 51.6174 81.3281 51.6174C81.1079 51.746 80.7851 52.5318 80.7851 52.5318C81.0639 52.5318 81.2547 52.046 81.2547 52.046L80.7997 52.8602C81.0787 52.7746 81.3869 52.2602 81.3869 52.2602C81.4455 52.546 80.9025 53.4746 80.9025 53.4746C81.0787 53.4746 81.3575 53.246 81.3575 53.246C81.3575 53.246 81.4015 53.0604 81.2107 53.4032C81.0199 53.746 80.5797 54.1604 80.5797 54.1604C80.9613 54.1746 81.3281 53.6746 81.3281 53.6746C81.3869 53.9032 80.8731 54.8032 80.8731 54.8032C81.2401 54.7746 81.5483 53.7746 81.5483 53.7746C81.6657 53.9032 81.7391 55.0604 81.7683 54.9176C81.7977 54.7746 81.7831 53.346 81.7831 53.346C81.8565 53.446 82.1565 54.1 82.1565 54.1C82.1783 53.7806 81.8283 52.5456 81.8283 52.5456L82.2439 53.291L81.7409 51.8642L82.3533 52.5882L81.5877 51.1404L81.9815 51.7152C81.8503 50.7358 81.1941 50.7358 81.1941 50.7358C81.9815 50.6292 82.0471 51.5874 82.0471 51.5874C82.2221 51.5448 82.2003 51.0552 82.2003 51.0552L82.2439 51.2894L82.3753 52.0984L82.4627 51.3958V52.2688C82.4627 52.354 82.7253 51.7578 82.7253 51.7578C82.7909 51.8642 82.7909 52.5882 82.7909 52.5882L83.0095 52.0134C83.1409 52.354 83.0533 52.929 83.0533 52.929C83.2721 52.929 83.3377 52.4178 83.3377 52.4178L83.6001 53.1632L83.5783 52.6096C83.5565 52.056 82.7909 50.97 82.5939 50.8634C82.3971 50.757 81.6315 50.5228 81.6315 50.5228C81.7191 50.4164 81.5441 49.884 81.5441 49.884L82.1127 50.608C82.2439 50.3524 81.9815 49.9266 81.9815 49.9266C82.1565 50.1182 82.6595 50.821 82.6595 50.821C82.7253 50.5654 82.5283 49.9904 82.5283 49.9904C82.6815 50.1396 83.2283 51.0126 83.2283 51.0126C83.2065 50.9274 82.9003 50.0544 82.9003 50.0544C83.2721 50.3738 83.6439 51.3958 83.6439 51.3958C83.7533 51.0552 83.4909 50.1608 83.4909 50.1608L84.1251 51.63C84.1907 51.332 84.0815 50.7358 84.0815 50.7358C84.2783 50.906 84.6063 51.6726 84.6063 51.6726C84.5627 51.2254 84.4313 50.6718 84.4313 50.6718L85.0001 51.694L84.8907 51.0126L85.2407 51.7578L85.0657 51.0978L85.5469 51.7578L85.1533 51.0552L85.7219 51.6088C85.7219 51.6088 84.8907 50.608 84.7157 50.459C84.5407 50.3098 82.9877 49.7562 82.6377 49.586C82.2877 49.4156 80.7565 49.5008 80.7565 49.5008L81.2159 49.4794L81.1285 49.2878L81.2159 49.4582H81.5221L81.3471 49.2878L81.4783 49.4794H82.0033L81.6533 49.1814C81.8283 49.2666 82.0033 49.4582 82.0033 49.4582L82.2659 49.4794L82.0909 49.1174L82.3533 49.522L82.7909 49.6072C82.7253 49.4156 82.4627 49.1174 82.4627 49.1174C82.6377 49.2878 82.8565 49.6284 82.8565 49.6284L83.2283 49.7562C83.2283 49.5646 82.9221 49.1388 82.9221 49.1388C83.1845 49.3516 83.4033 49.7988 83.4033 49.7988C83.4251 49.6284 83.2721 49.1174 83.2721 49.1174C83.4471 49.224 83.7315 49.884 83.7315 49.884C83.7533 49.6924 83.7095 49.1174 83.6659 49.1388C83.7971 49.2878 84.0815 50.0544 84.0815 50.0544V49.309C84.1689 49.309 84.4095 50.1182 84.4095 50.1182C84.5407 49.8202 84.3877 49.2026 84.3877 49.2026C84.4971 49.4156 84.7377 50.097 84.7377 50.097L84.7813 49.7988L84.8469 50.3524L84.9127 49.884L85.1095 50.395C85.0877 50.097 84.8469 49.2878 84.8469 49.2878C85.0219 49.4582 85.4813 50.459 85.4813 50.459V50.097L85.6125 50.6718C85.8095 50.097 85.3939 49.4582 85.3939 49.4582C85.7001 49.884 85.8095 50.4376 85.8095 50.4376L85.9407 50.1396C86.0719 50.3524 86.0719 50.906 86.0719 50.906C86.2469 50.3098 85.8969 49.7776 85.8969 49.7776C86.2689 50.0544 86.4875 51.1828 86.4875 51.1828L86.5531 50.3098C86.6625 50.5228 86.8701 51.1862 86.8701 51.1862C86.9201 50.8168 86.7603 50.1946 86.5505 49.9222C86.3407 49.65 86.1711 49.3682 84.8527 49.096C83.5343 48.8236 80.3483 49.057 80.3483 49.057L80.8577 48.95C81.1873 48.6974 81.9463 48.9112 81.9463 48.9112L82.1361 48.921C82.1361 48.921 82.1061 48.707 82.0961 48.6292C82.0861 48.5514 82.4557 48.882 82.4557 48.882L82.5855 48.8918V48.5222L83.1249 48.921L83.3245 48.95L82.9751 48.4932C83.1747 48.6778 83.7741 48.9112 83.7741 48.9112C83.7341 48.746 83.2847 48.396 83.2847 48.396C83.4345 48.396 84.0537 48.9404 84.0537 48.9404L83.6841 48.5222L84.5731 48.9306C84.5131 48.8236 84.2135 48.5222 84.2135 48.5222C84.5631 48.8334 85.2821 49.0182 85.2821 49.0182L84.4331 48.357L85.4919 49.164C85.3221 48.6584 84.8027 48.2112 84.8027 48.2112C85.0625 48.25 86.0511 49.2028 86.0511 49.2028C86.0511 48.8236 85.6817 48.3764 85.6817 48.3764C85.9413 48.464 86.6005 49.339 86.6005 49.339C86.6305 49.1056 86.2509 48.4932 86.2509 48.4932C86.4507 48.5904 86.9899 49.3486 86.9899 49.3486C87.1099 48.9112 86.6005 48.5222 86.6005 48.5222L87.6229 49.069C87.0899 48.2906 86.0137 48.031 85.8853 47.983C85.7569 47.935 84.8093 47.935 83.9897 47.9638C83.1703 47.9926 82.1239 48.454 82.0745 48.4636C82.0251 48.4732 81.1859 48.723 81.1859 48.723L80.9589 48.6366L81.2451 48.7038L81.6401 48.5982L81.2451 48.3578L81.7585 48.55L82.0251 48.454L81.6401 48.233L82.0547 48.4156L82.6669 48.1944L81.9659 47.935L83.0717 47.9446L82.2325 47.6562L83.5949 47.8774C83.4763 47.7332 83.0913 47.6082 83.0913 47.6082C83.3677 47.6082 83.9997 47.7524 83.9997 47.7524C83.8811 47.6178 83.3381 47.3776 83.3381 47.3776C83.6343 47.4352 84.4241 47.666 84.4241 47.666L83.8417 47.2718C83.9207 47.3008 84.4045 47.4834 84.4045 47.4834C84.3057 47.3104 83.9897 47.1662 83.9897 47.1662C84.1181 47.1662 85.0659 47.6178 85.0659 47.6178C84.8585 47.291 84.4045 46.8298 84.4045 46.8298L84.9869 47.1854L84.6513 46.8106L85.5201 47.2046C85.2239 46.801 84.5623 46.5704 84.3649 46.5414C84.1675 46.5126 82.7755 46.6664 81.6795 47.4256C80.5837 48.1848 80.4553 48.8864 80.4553 48.8864C80.4553 48.8864 79.3321 46.5172 77.3655 46.3744C77.3655 46.3744 77.6737 46.66 78.2755 46.7886C78.2755 46.7886 77.6151 46.9314 77.4537 47.16C77.4537 47.16 78.1875 47.103 78.6571 47.2314C78.6571 47.2314 77.8793 47.3886 77.7619 47.5886C77.7619 47.5886 78.5983 47.503 79.0387 47.5744C79.0387 47.5744 78.2901 47.6744 78.2609 47.8458C78.2609 47.8458 79.4203 47.8458 79.4643 48.06C79.4643 48.06 78.6717 48.0316 78.4663 48.1602C78.4663 48.1602 79.5083 48.303 79.7137 48.4458L79.0679 48.5458C79.0679 48.5458 79.9045 48.7172 80.0073 48.9458C80.0073 48.9458 78.1581 48.1602 76.6465 48.003C75.1347 47.8458 74.6799 48.2316 74.4157 48.4458C74.1515 48.6602 73.5497 49.2172 73.6525 49.6744C73.6525 49.6744 73.9753 49.0602 74.7533 48.5744L74.0487 49.403L74.8413 48.7744C74.8413 48.7744 74.3569 49.4172 74.3569 49.6316C74.3569 49.6316 75.1055 48.4458 75.4283 48.2316C75.4283 48.2316 74.8853 48.903 74.8999 49.1602C74.8999 49.1602 75.9419 48.1602 76.0447 48.1744C76.0447 48.1744 75.2523 48.8744 75.2669 49.3316C75.2669 49.3316 76.1769 48.3886 76.4557 48.303C76.4557 48.303 75.7659 48.6886 75.8979 49.0172L76.6465 48.3458L76.1915 49.0602L76.4117 48.9888C76.4117 48.9888 76.7345 48.3886 77.1895 48.403L76.5877 48.9602L76.8959 48.9316C76.8959 48.9316 77.2481 48.503 77.6737 48.3602C77.6737 48.3602 77.0573 48.8458 77.0281 48.9316L77.2189 48.9458C77.2189 48.9458 77.5857 48.5744 77.8645 48.503L77.6003 48.9172H77.7325L78.0847 48.5886L77.8353 48.903L78.1581 48.9316L78.3929 48.7316L78.2021 48.9602H78.4369L78.5837 48.8458L78.5691 48.9888L78.9505 49.003L79.0533 48.803L79.0387 48.9744L79.7431 49.0888Z" fill="#1E9A1C"/>
<path d="M81.7624 54.9554C81.7618 54.9554 81.7615 54.9553 81.7611 54.9553C81.73 54.9542 81.7275 54.954 81.6851 54.61C81.6552 54.3671 81.6077 53.9818 81.5536 53.8388C81.481 54.055 81.2064 54.8029 80.8743 54.8287L80.8263 54.8324L80.8501 54.7905C80.9784 54.5658 81.2839 53.984 81.3056 53.7436C81.1988 53.8727 80.907 54.1863 80.5952 54.1863C80.5896 54.1863 80.5839 54.1862 80.5781 54.186L80.5171 54.1837L80.5615 54.1418C80.5659 54.1377 80.9954 53.7315 81.1841 53.3973C81.0941 53.4509 80.9878 53.5003 80.9019 53.5003H80.8574L80.8798 53.4618C80.8847 53.4533 81.3347 52.6801 81.3638 52.3431C81.2675 52.4889 81.0312 52.8158 80.8064 52.8846L80.7456 52.9033L80.9792 52.4854C80.921 52.5289 80.8558 52.5574 80.7845 52.5574H80.7464L80.7609 52.5221C80.7697 52.5008 80.9093 52.1626 81.0681 51.8966C80.9329 52.0088 80.7765 52.1144 80.6669 52.1144H80.6236L80.974 51.483L80.654 51.7512L80.614 51.722L80.9548 50.8749L80.5247 51.363L80.4825 51.3349L80.7917 50.6969L80.3659 51.0844L80.6253 50.2292L80.2064 50.6767L80.204 50.6505L80.1761 50.6602L80.0446 50.4631L80.12 51.1L80.0716 51.1141L79.9677 50.8985C80.0279 51.1341 80.1056 51.4629 80.1056 51.5888V51.6602L80.0603 51.6051C80.0579 51.6022 79.8654 51.3692 79.7046 51.2624C79.8179 51.4051 80.0254 51.6921 80.09 51.9541L80.0455 51.9765C80.0437 51.9743 79.9022 51.8046 79.7779 51.68C79.8795 51.8713 80.0546 52.2194 80.076 52.3856L80.0843 52.4506L79.5512 52.0025C79.6776 52.2021 79.8508 52.5632 79.8414 53.0323L79.8398 53.1121L79.3988 52.468L79.7661 53.3793L79.7226 53.405L79.3466 52.9409C79.4715 53.1858 79.6016 53.5352 79.5325 53.8375L79.4825 53.8368C79.4818 53.8328 79.4043 53.4575 79.1539 53.2402L79.415 54.297L79.3656 54.3102C79.3636 54.3035 79.1744 53.6556 78.8845 53.4736L78.7975 54.6886L78.7711 54.6858C78.7653 54.6852 78.7344 54.6799 78.7011 54.6363C78.6213 54.5321 78.5519 54.2488 78.6629 53.4937L78.3082 53.8655L78.2946 53.8258C78.2914 53.8166 78.246 53.6748 78.3423 53.4484L78.3417 53.449L78.3251 53.4142C78.3178 53.3991 78.1791 53.0953 78.4856 52.6929L78.1431 52.9579L78.1465 52.9016C78.1468 52.8969 78.1792 52.4477 78.6273 52.1547L78.1781 52.142L78.1925 52.1076C78.1972 52.0963 78.2962 51.8717 78.6724 51.7658L78.2428 51.7557L78.2864 51.7133C78.3033 51.6969 78.6235 51.3887 78.9921 51.2823L78.4944 51.2519L78.2847 51.493L78.2604 51.2494L78.2426 51.2474L78.2594 51.2392L78.2273 50.9172L78.2124 51.304L78.163 51.3124L78.0216 50.9524V51.9991L77.9739 51.9159C77.9647 51.8999 77.7904 51.5947 77.7128 51.3471L77.6399 52.1769L77.5907 52.1842C77.5829 52.1648 77.4351 51.7938 77.3772 51.4923C77.3414 51.7492 77.2828 52.1714 77.2728 52.2494L77.2229 52.2533C77.2216 52.2489 77.1092 51.8685 77.0059 51.6935C77.0009 51.8859 77.0028 52.4015 77.1519 52.6469L77.1125 52.6789L76.7653 52.3533C76.7836 52.5844 76.8246 53.3312 76.6031 53.5088L76.5632 53.5407L76.5615 53.4897C76.5613 53.4822 76.538 52.8173 76.4929 52.4595C76.4088 52.791 76.1811 53.6997 76.1574 53.9061L76.1504 53.967L76.112 53.9192C76.1014 53.906 75.8628 53.5976 75.9478 52.751C75.8167 52.9557 75.5088 53.4538 75.4526 53.6948L75.4371 53.761L75.4051 53.701C75.3895 53.6718 75.0403 52.9846 76.0405 52.0127L75.5784 52.0855L75.5648 52.0366L76.4806 51.662L75.6454 51.5857L75.6441 51.5349L76.4458 51.4185L75.8792 51.3427L75.8778 51.2924L76.7915 51.1144H75.9412L75.9354 51.0639L77.0133 50.811L76.4519 50.7428L76.4517 50.6922L77.3256 50.576L76.8453 50.3777L76.9352 50.3635C77.375 50.2943 77.8624 50.182 77.883 50.1213C77.8663 50.0582 77.6215 50.0286 77.4531 50.0286L77.4465 49.9783C78.1055 49.8034 79.1547 49.5068 79.2965 49.4211C79.2373 49.3852 79.068 49.3715 78.9646 49.3715H78.9336L78.9497 49.288L78.9069 49.3715H78.7309L78.737 49.3067L78.7003 49.3722L78.3688 49.3552L78.4063 49.2677L78.3291 49.3428H77.9216L77.8487 49.4257L77.5052 49.5185L77.554 49.4537L77.3751 49.6122L76.9723 49.7904L77.0919 49.6103L76.8498 49.8963L76.6061 50.0425L76.621 49.9827C76.6253 49.9653 76.7079 49.6377 76.8159 49.4024C76.6273 49.5903 76.2823 49.948 76.1694 50.158L76.1242 50.2418L76.1212 50.1467C76.1207 50.1314 76.1148 49.8474 76.3046 49.5395C76.0236 49.8115 75.6093 50.27 75.6 50.6181L75.5982 50.6845L75.555 50.6341C75.5524 50.631 75.3737 50.4147 75.4715 50.0654C75.3155 50.3302 75.165 50.6792 75.145 51.0616L75.0961 51.0706C75.0938 51.0654 74.9396 50.7089 74.9971 50.3219C74.9175 50.5272 74.8516 50.798 74.8516 51.1316V51.1795L74.8118 51.1529C74.805 51.1483 74.6955 51.0709 74.6696 50.7969C74.6174 51.1629 74.5835 51.561 74.6558 51.6595L74.6182 51.6938C74.6119 51.6883 74.4783 51.5626 74.4416 50.9483C74.4033 51.1503 74.3526 51.4463 74.3526 51.6032L74.3028 51.6112L74.1807 51.243C74.1354 51.3921 74.045 51.7253 74.0928 51.8727C74.0977 51.8854 74.1007 51.8927 74.1009 51.8933L74.0542 51.9141C74.0514 51.9081 74.0488 51.9016 74.0464 51.8949C74.0154 51.8159 73.9014 51.5038 73.9157 51.2059C73.7951 51.5071 73.6676 51.8983 73.7336 52.0349L73.6946 52.066C73.6735 52.0491 73.1856 51.6397 73.8355 50.5756C74.2185 49.9484 75.0457 49.4074 76.1669 49.0502L76.5242 48.4893L75.887 49.0606L75.8735 49.0268C75.8344 48.9296 75.8601 48.8292 75.9179 48.7349C75.605 49.0181 75.29 49.3438 75.2846 49.3494L75.2426 49.3929L75.2407 49.3324C75.2307 49.0197 75.5766 48.6068 75.8132 48.3621C75.5885 48.5493 75.2376 48.871 74.9169 49.1787L74.8769 49.2172L74.8738 49.1617C74.8646 49.001 75.0559 48.696 75.2122 48.4754C74.8609 48.8823 74.3837 49.6358 74.3778 49.6453L74.3306 49.72V49.6316C74.3306 49.4754 74.5666 49.1155 74.7112 48.9097L74.0639 49.423L74.0285 49.3864L74.6167 48.6947C73.9602 49.1524 73.6774 49.6806 73.6744 49.6863L73.6421 49.7478L73.6269 49.68C73.5161 49.1876 74.1898 48.5957 74.3989 48.426L74.4083 48.4183C74.6835 48.195 75.1446 47.8207 76.6485 47.9776C77.4662 48.0627 78.3895 48.3341 79.0622 48.5642L79.0633 48.5206L79.6327 48.4324C79.3363 48.3064 78.4717 48.1869 78.4621 48.1855L78.3923 48.176L78.4521 48.1385C78.6353 48.0238 79.2457 48.0298 79.4193 48.0332C79.2987 47.916 78.6655 47.8715 78.2602 47.8715H78.2299L78.235 47.8416C78.2575 47.7089 78.6085 47.6226 78.8445 47.5794C78.3968 47.5503 77.7711 47.6134 77.7639 47.614L77.7137 47.6192L77.7392 47.5758C77.8345 47.4133 78.32 47.2828 78.5417 47.2306C78.0845 47.1384 77.4617 47.185 77.455 47.1855L77.4008 47.1897L77.4322 47.1453C77.5591 46.9654 77.9693 46.8401 78.1648 46.789C77.632 46.6525 77.3594 46.4043 77.3474 46.3931L77.294 46.3436L77.3666 46.3489C79.1478 46.4783 80.2527 48.4417 80.447 48.8147C80.5072 48.6201 80.7544 48.0349 81.6642 47.4047C82.7771 46.6337 84.1691 46.4881 84.3679 46.5162C84.5915 46.549 85.2464 46.7894 85.5402 47.1895L85.598 47.2683L84.7507 46.8841L85.0052 47.1683L84.973 47.2072L84.5554 46.9523C84.707 47.1155 84.9505 47.3895 85.0868 47.6042L85.1343 47.6791L85.0542 47.6409C84.7995 47.5196 84.4466 47.3585 84.2154 47.2659C84.2974 47.3219 84.3816 47.393 84.4261 47.4708L84.4613 47.5325L84.3949 47.5074C84.3949 47.5074 84.1966 47.4326 84.0333 47.3712L84.4376 47.6448L84.4161 47.6905C84.4099 47.6887 83.9148 47.5442 83.565 47.4563C83.7324 47.5388 83.9466 47.6543 84.0181 47.7355L84.0704 47.795L83.9933 47.7773C83.988 47.7761 83.5636 47.6799 83.2628 47.6457C83.3853 47.6969 83.5429 47.7749 83.614 47.8612L83.6572 47.9135L82.5238 47.7296L83.0794 47.9204L83.0708 47.9702L82.1113 47.9619L82.7406 48.1947C83.1115 48.0746 83.5773 47.9527 83.988 47.9383C84.8193 47.9093 85.7591 47.9089 85.8937 47.9592C85.9068 47.964 85.9302 47.9713 85.962 47.981C86.7577 48.2261 87.3234 48.5873 87.6433 49.0546L87.6101 49.0916L86.7626 48.6384C86.9072 48.7927 87.0945 49.061 87.0138 49.3553L86.9995 49.4073L86.9683 49.3635C86.9638 49.3569 86.5695 48.804 86.3372 48.59C86.4456 48.7795 86.6484 49.1621 86.6251 49.3423L86.6171 49.4046L86.5792 49.3545C86.5736 49.3468 86.0669 48.6765 85.7763 48.4604C85.8863 48.6155 86.0761 48.924 86.0761 49.2028V49.263L86.0327 49.2213C85.746 48.9448 85.206 48.4551 84.9247 48.2908C85.0872 48.451 85.3909 48.7854 85.5154 49.1559L85.5419 49.2348L85.2792 49.0345L85.2749 49.043C85.2509 49.0368 84.7794 48.9139 84.4167 48.6991C84.4917 48.781 84.5669 48.8686 84.5947 48.9181L84.6331 48.9866L83.7827 48.596L84.0722 48.9235L84.0363 48.9596C83.865 48.8092 83.6175 48.6076 83.4484 48.4989C83.5855 48.618 83.7718 48.7961 83.7982 48.9052L83.8097 48.9528L83.7642 48.935C83.7441 48.9272 83.3542 48.7746 83.1019 48.6179L83.3511 48.9437C83.9296 48.9554 84.4736 48.9918 84.8572 49.0711C86.1327 49.3344 86.3425 49.6089 86.5452 49.8744L86.57 49.9066C86.7839 50.1843 86.9449 50.8197 86.8949 51.1896L86.845 51.1938C86.8433 51.188 86.682 50.6738 86.5706 50.4105L86.5124 51.1848L86.4618 51.1878C86.4599 51.1779 86.2892 50.3111 86.0015 49.9238C86.0939 50.1296 86.2146 50.5085 86.0958 50.9133L86.0456 50.906C86.0456 50.901 86.0443 50.4278 85.9419 50.1985L85.7993 50.5222L85.7837 50.4427C85.7829 50.4393 85.7431 50.2423 85.6472 49.9954C85.6984 50.2029 85.7163 50.4456 85.6361 50.6802L85.607 50.7651L85.5062 50.3238V50.4591L85.4574 50.4697C85.4534 50.4611 85.1095 49.7137 84.9081 49.4095C84.9771 49.651 85.1177 50.1649 85.1343 50.3931L85.0849 50.4042L84.9236 49.9853L84.8716 50.3559L84.8208 50.3554L84.7781 49.9937L84.7624 50.1008L84.713 50.1055C84.7111 50.1004 84.57 49.7015 84.456 49.4218C84.489 49.6316 84.5156 49.9391 84.4322 50.1286L84.404 50.1923L84.3843 50.1256C84.2904 49.8094 84.1712 49.4741 84.1064 49.3677V50.0545L84.0568 50.0634C84.0546 50.0572 83.8718 49.5661 83.7345 49.2997C83.7597 49.4967 83.7669 49.7936 83.7562 49.887L83.7452 49.9823L83.7074 49.8942C83.7048 49.8885 83.4857 49.3825 83.3202 49.195C83.3628 49.3491 83.4449 49.6695 83.4281 49.802L83.4185 49.8766C83.4314 49.8817 83.4443 49.8867 83.4572 49.8918C84.0298 50.1151 84.6218 50.3461 84.7316 50.4396C84.9062 50.5884 85.707 51.5516 85.7409 51.5926L85.7034 51.6272L85.2611 51.1965L85.5685 51.7454L85.5255 51.7729L85.1245 51.223L85.2648 51.7513L85.2169 51.7687L84.9439 51.1878L85.0245 51.69L84.9771 51.7064L84.4935 50.8376C84.5361 51.0376 84.6027 51.378 84.631 51.6702L84.5822 51.6827C84.5792 51.6758 84.3115 51.0529 84.1199 50.8148C84.1474 50.9908 84.2011 51.3999 84.1493 51.6355L84.1324 51.713L83.596 50.4707C83.6632 50.7647 83.737 51.1877 83.6677 51.4037L83.6449 51.4748L83.6193 51.4047C83.6158 51.3952 83.2962 50.5235 82.9601 50.1502C83.0423 50.3853 83.2349 50.938 83.2525 51.0063L83.206 51.0262C83.2013 51.0187 82.7962 50.373 82.59 50.1039C82.6445 50.2888 82.7322 50.6381 82.6835 50.8274L82.6699 50.8805L82.638 50.8359C82.6339 50.8303 82.3169 50.3877 82.1009 50.1124C82.1613 50.2623 82.2132 50.4671 82.1347 50.6198L82.1177 50.6528C82.314 50.7192 82.5159 50.7926 82.6054 50.841C82.8243 50.9594 83.5812 52.0508 83.6033 52.6087L83.6249 53.1623L83.5753 53.1718L83.3454 52.5185C83.313 52.6727 83.2296 52.9547 83.0527 52.9547H83.023L83.0275 52.9253C83.0283 52.9199 83.1017 52.4241 83.0072 52.0897L82.814 52.5973L82.7646 52.5883C82.7646 52.3434 82.7527 51.9778 82.7212 51.8284C82.5068 52.3111 82.4818 52.3065 82.4597 52.3021C82.4542 52.301 82.4365 52.2952 82.4365 52.2688V51.808L82.3999 52.1015L82.3493 52.1025L82.2171 51.2885C82.2011 51.4299 82.1591 51.5863 82.0525 51.6123L82.023 51.6195L82.0208 51.5892C82.0206 51.5845 81.9851 51.1176 81.6993 50.8847C81.6138 50.815 81.5138 50.7729 81.4007 50.7587C81.612 50.8431 81.9208 51.0752 82.0062 51.7118L81.9597 51.7297L81.8187 51.5239L82.3753 52.5763L82.3331 52.6048L81.8107 51.9871L82.2673 53.2825L82.221 53.3034L81.9085 52.743C82.007 53.1093 82.198 53.8581 82.1814 54.1018L82.1325 54.1107C82.13 54.1052 81.9173 53.642 81.8087 53.4407C81.8115 53.765 81.8181 54.799 81.7927 54.9228C81.7872 54.9495 81.7736 54.9554 81.7624 54.9554ZM81.3388 53.6161L81.3523 53.6683C81.4054 53.8751 81.0298 54.5728 80.9222 54.7668C81.2458 54.6553 81.5202 53.7765 81.5232 53.7672L81.5363 53.7245L81.5665 53.7574C81.6363 53.8338 81.6845 54.1859 81.7359 54.6038C81.7417 54.6512 81.7476 54.6994 81.7533 54.743C81.7665 54.328 81.757 53.3582 81.7568 53.3464L81.756 53.267L81.8029 53.3309C81.8587 53.4067 82.0359 53.7815 82.1259 53.9747C82.0839 53.5469 81.8062 52.5636 81.8031 52.5526L81.8499 52.5333L82.1193 53.016L81.7161 51.8727L81.7597 51.8477L82.2197 52.3915L81.5644 51.1523L81.6081 51.126L81.9374 51.6067C81.7798 50.7735 81.2183 50.7615 81.1935 50.7614L81.19 50.7105C81.4054 50.6812 81.5867 50.7269 81.7318 50.8453C81.9904 51.056 82.0542 51.4314 82.0683 51.5497C82.1689 51.4785 82.1794 51.1764 82.174 51.0564L82.2247 51.0506L82.2685 51.2847L82.3712 51.9183L82.4367 51.3927L82.4876 51.3959V52.2003C82.5368 52.1089 82.6243 51.922 82.7011 51.7476L82.7208 51.7031L82.7462 51.7445C82.7978 51.828 82.8111 52.2323 82.8146 52.4521L83.0085 51.942L83.0325 52.0043C83.1482 52.3037 83.0993 52.7698 83.0825 52.8993C83.2236 52.8593 83.2952 52.5419 83.3117 52.4146L83.3611 52.4094L83.5671 52.9948L83.5521 52.6106C83.5302 52.0548 82.7613 50.9835 82.5812 50.8859C82.3888 50.7819 81.631 50.5496 81.6234 50.5472L81.5867 50.5361L81.5956 50.5253L80.8919 49.8817L80.9263 49.844L81.6234 50.4813C81.6534 50.376 81.5792 50.0746 81.5193 49.8921L81.5636 49.8682L82.1054 50.5582C82.1872 50.3153 81.9615 49.944 81.9591 49.94L81.9997 49.9094C82.1486 50.0724 82.5253 50.5919 82.6439 50.7565C82.6702 50.4903 82.5052 50.004 82.5034 49.9987L82.5454 49.9721C82.6581 50.0818 82.9718 50.5634 83.1402 50.8267C83.045 50.5468 82.8777 50.0694 82.8753 50.063L82.8439 49.9729L82.9161 50.035C83.2316 50.3058 83.54 51.0562 83.6368 51.3062C83.688 50.9327 83.4681 50.1762 83.4656 50.168L83.5136 50.1507L84.1128 51.5387C84.1447 51.2326 84.0566 50.7458 84.0556 50.7404L84.0425 50.669L84.0976 50.7165C84.2433 50.8426 84.4534 51.2746 84.5609 51.5092C84.5072 51.1076 84.407 50.6826 84.4058 50.6777L84.4529 50.6594L84.9511 51.5548L84.8648 51.0167L84.913 51.0018L85.1427 51.4905L85.0402 51.1044L85.0857 51.0828L85.315 51.3973L85.1304 51.0677L85.1704 51.0369L85.3724 51.2335C85.1199 50.9358 84.7984 50.5635 84.6984 50.4785C84.5952 50.3906 83.954 50.1404 83.4386 49.9394C83.0917 49.8041 82.764 49.6761 82.6259 49.609C82.6156 49.604 82.6042 49.5992 82.5919 49.5946L82.337 49.5451L82.3341 49.5405C81.9011 49.4864 81.1937 49.5077 80.8962 49.5199L80.757 49.5263L80.7544 49.4754C80.7665 49.4747 80.8327 49.4711 80.9339 49.467L81.1763 49.4557L81.1046 49.2985L81.1505 49.2762L81.2308 49.4327H81.4146L81.3253 49.3023L81.3642 49.2695L81.5533 49.4536C81.5849 49.454 81.62 49.4537 81.654 49.4539H81.9331L81.6361 49.2009L81.6638 49.1585C81.8236 49.2362 81.9798 49.3967 82.0146 49.4336L82.2228 49.4504L82.0671 49.1286L82.1117 49.1036L82.3644 49.4931C82.4607 49.5062 82.5433 49.5232 82.6048 49.5451L82.7492 49.5731C82.6663 49.3893 82.4452 49.1371 82.4429 49.1344L82.4798 49.0991C82.6427 49.2577 82.8384 49.5549 82.8724 49.6071L83.1988 49.7192C83.1656 49.5239 82.9034 49.1577 82.9007 49.1538L82.9374 49.119C83.129 49.2744 83.2952 49.5472 83.3751 49.6919C83.3531 49.4813 83.2482 49.129 83.247 49.1248L83.2279 49.061L83.2847 49.0956C83.4245 49.1807 83.6238 49.5876 83.7109 49.7772C83.7138 49.5748 83.6861 49.2556 83.6609 49.1745C83.6558 49.1674 83.6507 49.1611 83.646 49.1557L83.624 49.1306L83.6675 49.1093L83.6859 49.1186C83.6917 49.1228 83.6974 49.1319 83.7027 49.1451C83.8058 49.2879 83.9724 49.7016 84.0552 49.9154V49.2835H84.0808C84.1661 49.2835 84.3156 49.7237 84.4103 50.0346C84.4892 49.7295 84.3636 49.2143 84.3622 49.2088L84.4097 49.1909C84.495 49.3568 84.6558 49.7953 84.7265 49.9918L84.7552 49.7951L84.806 49.7958L84.8484 50.1534L84.9005 49.7828L85.046 50.1611C84.9734 49.8066 84.8236 49.3015 84.8218 49.2952L84.7937 49.201L84.864 49.2695C85.0081 49.4099 85.3314 50.0806 85.455 50.3436V50.097L85.5056 50.0914L85.6146 50.5685C85.7339 50.0383 85.3757 49.4781 85.3718 49.4722L85.414 49.4433C85.6531 49.7759 85.7742 50.1896 85.8163 50.3571L85.9363 50.0848L85.9617 50.1262C86.0423 50.2569 86.0749 50.5056 86.088 50.6874C86.1374 50.1993 85.8779 49.7963 85.8749 49.7917L85.9115 49.7571C86.2021 49.9733 86.3968 50.6769 86.4745 51.0064L86.5337 50.2175L86.5751 50.2981C86.656 50.4552 86.7868 50.8465 86.8531 51.0508C86.8566 50.6875 86.7132 50.1762 86.5294 49.9379L86.5046 49.9054C86.3075 49.6474 86.1038 49.3805 84.847 49.1211C83.547 48.8527 80.3812 49.0802 80.3495 49.0825L80.3423 49.032L80.846 48.9262C81.1843 48.6742 81.9212 48.8778 81.9525 48.8866L82.1058 48.894C82.0972 48.832 82.0777 48.6922 82.07 48.6325C82.0669 48.6085 82.0824 48.5983 82.0872 48.5958C82.1023 48.5883 82.1423 48.5686 82.4656 48.8572L82.5593 48.8643V48.4716L83.1341 48.8967L83.2654 48.9158L82.954 48.5088L82.9917 48.4745C83.1493 48.6203 83.5702 48.8007 83.7247 48.864C83.6408 48.7239 83.3763 48.5004 83.2685 48.4162L83.2097 48.3705H83.2841C83.3763 48.3705 83.6148 48.546 83.8062 48.6998L83.6642 48.5391L83.6941 48.499L84.4954 48.8672C84.3913 48.7384 84.1972 48.5427 84.1947 48.5403L84.2298 48.5031C84.4829 48.7285 84.9396 48.8885 85.1609 48.9567L84.4167 48.3772L84.4478 48.3367L85.4361 49.0898C85.2456 48.6306 84.7902 48.2347 84.7855 48.2305L84.7183 48.1728L84.8058 48.1859C85.0408 48.2211 85.8199 48.9484 86.0216 49.1398C85.9851 48.7886 85.6648 48.3969 85.6613 48.3927L85.6042 48.3235L85.6892 48.3522C85.9146 48.4283 86.414 49.0563 86.572 49.2608C86.5339 49.0021 86.2318 48.5122 86.2284 48.5067L86.1818 48.4316L86.2613 48.4703C86.4374 48.5559 86.8536 49.1178 86.9763 49.2868C87.0361 48.893 86.589 48.5462 86.5843 48.5426L86.6118 48.4997L87.5355 48.9936C87.2128 48.5794 86.6792 48.2554 85.947 48.03C85.9138 48.0197 85.8894 48.0122 85.8757 48.007C85.7531 47.9613 84.8011 47.9606 83.99 47.9894C83.3015 48.0135 82.4519 48.345 82.1728 48.454C82.1103 48.4784 82.088 48.4869 82.0786 48.4887C82.0583 48.4927 81.8857 48.5427 81.6913 48.5999L81.7038 48.6075L81.3036 48.7145C81.2615 48.727 81.2236 48.7383 81.1925 48.7475L81.1843 48.75L80.949 48.6605L80.964 48.6117L81.2441 48.6775L81.2898 48.6653C81.3622 48.6437 81.462 48.6142 81.5661 48.5835L81.2312 48.3798L81.2534 48.334L81.7579 48.5228L81.9638 48.4487L81.6267 48.2552L81.6497 48.2096L82.055 48.3881L82.5917 48.1941L81.9564 47.959L81.9654 47.9094L82.914 47.9177L82.2234 47.6804L82.2359 47.631L83.5154 47.8387C83.3663 47.7256 83.0859 47.6337 83.0827 47.6326L83.0906 47.5827C83.3027 47.5827 83.7132 47.6647 83.9038 47.7053C83.7183 47.5748 83.3316 47.403 83.3271 47.401L83.3423 47.3525C83.5558 47.3941 84.0296 47.5266 84.2755 47.5969L83.8267 47.293L83.8497 47.2478C83.9083 47.2693 84.1894 47.3753 84.331 47.4287C84.2077 47.2952 83.981 47.1908 83.9784 47.1895L83.989 47.1407C84.1007 47.1407 84.7486 47.4404 84.9923 47.5552C84.7734 47.2427 84.3898 46.852 84.3857 46.8478L84.4171 46.8081L84.8513 47.0731L84.6316 46.8277L84.6611 46.7874L85.4302 47.1361C85.1038 46.7766 84.512 46.589 84.3605 46.5668C84.1878 46.5418 82.7892 46.6876 81.6935 47.4467C80.6187 48.1912 80.481 48.8841 80.4798 48.891L80.4656 48.969L80.4316 48.8973C80.4204 48.8741 79.3248 46.6079 77.4473 46.4075C77.5664 46.4949 77.8475 46.6712 78.2802 46.7636V46.8136C78.2742 46.8149 77.7139 46.938 77.5125 47.1307C77.6995 47.1206 78.2738 47.1002 78.6631 47.2068L78.6615 47.2565C78.4686 47.2955 77.981 47.4187 77.8219 47.5573C78.0259 47.5391 78.6738 47.4892 79.0421 47.5492L79.0414 47.5997C78.7845 47.6341 78.3846 47.7211 78.3006 47.8205C78.5651 47.8222 79.4454 47.8442 79.4886 48.0549L79.4951 48.0868L79.4627 48.0856C79.4554 48.0853 78.8312 48.064 78.559 48.1478C78.8187 48.1863 79.5534 48.3037 79.7276 48.4249L79.78 48.4614L79.2034 48.5507C79.4465 48.61 79.9478 48.7526 80.0299 48.9354L80.0567 48.9949L79.9966 48.9694C79.9782 48.9616 78.1335 48.1835 76.6432 48.0284C75.1592 47.8741 74.7095 48.2397 74.4406 48.458L74.4311 48.4657C74.2379 48.6225 73.6366 49.1489 73.6666 49.5988C73.773 49.4279 74.11 48.9456 74.7391 48.5527L74.7721 48.591L74.2363 49.2211L74.8247 48.7544L74.8611 48.7898C74.8573 48.7949 74.5493 49.2051 74.4291 49.4711C74.6416 49.145 75.1552 48.3817 75.4135 48.2103L75.4476 48.2477C75.4426 48.2538 74.9906 48.8153 74.931 49.0945C75.2188 48.8196 75.9325 48.1489 76.0443 48.1489C76.0454 48.1489 76.0464 48.1489 76.0475 48.1491L76.1027 48.1567L76.0609 48.1935C76.0534 48.2002 75.3509 48.8257 75.2951 49.2653C75.4876 49.0689 76.1994 48.3548 76.4475 48.2786L76.4675 48.3253C76.4611 48.3289 75.85 48.6747 75.91 48.9715L76.6287 48.3268L76.6674 48.3596L76.2506 49.0139L76.3936 48.9677C76.4374 48.8896 76.7417 48.3772 77.1725 48.3772C77.1782 48.3772 77.1839 48.3773 77.1896 48.3774L77.2519 48.3794L76.6597 48.9278L76.8824 48.9071C76.9352 48.8448 77.2648 48.4702 77.6649 48.336L77.6888 48.3803C77.4374 48.5783 77.1659 48.8068 77.0791 48.9024C77.1275 48.9001 77.1784 48.8981 77.2319 48.8967C77.3281 48.8044 77.62 48.539 77.8575 48.4782L77.9201 48.4622L77.6462 48.8917H77.7217L78.0665 48.57L78.104 48.6046L77.8841 48.8817L78.1491 48.9052L78.3756 48.7122L78.4118 48.748L78.2691 48.919C78.3226 48.9222 78.3776 48.9259 78.4337 48.9298L78.6146 48.7889L78.5989 48.9422C78.707 48.9508 78.8197 48.9607 78.937 48.9719L79.0299 48.7913L79.0782 48.8052L79.0655 48.953L79.7465 49.0636L79.7392 49.1142C79.4613 49.0784 79.2043 49.0494 78.9666 49.0261L78.9652 49.0292L78.5402 49.0134L78.5427 48.9889C78.5114 48.9865 78.4804 48.9843 78.4498 48.982L78.445 48.9858H78.1468L78.165 48.9639C77.8004 48.9442 77.5001 48.9408 77.2538 48.9467C77.2429 48.9572 77.2368 48.9634 77.2364 48.9638L77.2281 48.9722L77.0156 48.9563C76.5479 48.9833 76.3367 49.0466 76.273 49.0699C76.2636 49.0733 76.2447 49.0793 76.2174 49.0878C75.0902 49.4413 74.2597 49.9791 73.879 50.6021C73.403 51.3818 73.5614 51.798 73.6657 51.9536C73.6545 51.682 73.8742 51.1616 73.9615 50.9669C73.9712 50.9406 73.9828 50.9151 73.9964 50.8906L74.0419 50.9139C74.0323 50.9344 74.0215 50.9577 74.0099 50.9836C73.9264 51.2057 73.979 51.4964 74.0325 51.6886C74.0526 51.4567 74.1503 51.1686 74.156 51.1519L74.1806 51.0802L74.3091 51.468C74.3367 51.1809 74.4294 50.7476 74.434 50.7262L74.4846 50.7311C74.491 51.0869 74.5271 51.311 74.5641 51.4493C74.552 51.05 74.6924 50.3415 74.7127 50.2412L74.7629 50.2511C74.6615 50.7545 74.7458 50.9782 74.8013 51.0642C74.816 50.5087 75.0099 50.131 75.1328 49.9459C75.159 49.904 75.1895 49.863 75.2246 49.8234C75.2298 49.8175 75.2328 49.8142 75.2331 49.8139L75.2705 49.8488C75.267 49.8526 75.2636 49.8564 75.2603 49.8603C75.2457 49.8771 75.216 49.9133 75.1791 49.9682C74.9553 50.3202 75.0436 50.7452 75.1041 50.9413C75.1693 50.3981 75.4751 49.935 75.6608 49.6978C75.7002 49.6449 75.7462 49.5904 75.7995 49.5344C75.8032 49.5304 75.8053 49.5283 75.8056 49.5279L75.8423 49.5635C75.8401 49.5659 75.8379 49.5682 75.8357 49.5705C75.8179 49.5894 75.7647 49.6474 75.6952 49.7367C75.3986 50.1374 75.4921 50.4257 75.556 50.5431C75.6433 50.0022 76.4892 49.3001 76.5268 49.2691L76.5605 49.3075C76.2756 49.5747 76.1996 49.8872 76.1795 50.0442C76.3912 49.7332 76.8841 49.2635 76.9071 49.2417L76.9452 49.2754C76.8322 49.4295 76.726 49.7908 76.6867 49.9345L76.8199 49.8547L77.3452 49.2295L77.3861 49.26L77.1118 49.6728L77.3507 49.5671L77.7147 49.2412L77.7522 49.2756L77.6357 49.4302L77.8205 49.3803L78.0793 49.0861L78.119 49.1183L77.9885 49.2917H78.3084L78.4623 49.1419L78.5037 49.1703L78.4448 49.308L78.6712 49.3195L78.7516 49.1763L78.7993 49.1913L78.7871 49.3203H78.8756L78.9859 49.1055L79.0337 49.1221L78.9954 49.3207C79.0847 49.3225 79.2962 49.3342 79.3511 49.401L79.36 49.4118L79.3567 49.4306C79.3301 49.5132 78.3206 49.797 77.6189 49.9852C77.7511 49.9976 77.9118 50.0296 77.9326 50.1111C77.935 50.1203 77.9356 50.1346 77.925 50.1508C77.8593 50.2508 77.2825 50.3575 77.0322 50.3996L77.5215 50.6016L76.6577 50.7163L77.1625 50.7776L77.1653 50.8279L76.162 51.0633H77.0566L77.0615 51.1139L76.0405 51.3128L76.6344 51.3922L76.6347 51.4427L75.8655 51.5545L76.5894 51.6206L76.5967 51.6697L75.7872 52.0009L76.1958 51.9364L76.1349 51.9933C75.2786 52.7926 75.3646 53.4099 75.4246 53.609C75.5417 53.2692 75.9456 52.6596 75.9641 52.6319L76.0108 52.6493C75.923 53.3433 76.0518 53.6997 76.1175 53.8291C76.1816 53.4663 76.4615 52.3753 76.4742 52.3255L76.5242 52.3269C76.574 52.582 76.6024 53.2232 76.6103 53.4263C76.7956 53.165 76.7093 52.3008 76.7084 52.2915L76.7014 52.2234L77.0508 52.551C76.9242 52.2028 76.9561 51.6426 76.9577 51.6159L76.9614 51.5555L77.0021 51.6003C77.0882 51.6946 77.1866 51.9719 77.2375 52.1285C77.2733 51.867 77.3534 51.2923 77.3543 51.2853L77.4052 51.2888C77.4052 51.5053 77.5323 51.8802 77.5987 52.0613L77.6769 51.1724L77.7279 51.1731C77.7385 51.3463 77.8909 51.6533 77.9704 51.8032V50.8175L78.0199 50.8081L78.166 51.1801L78.1905 50.5451L78.2414 50.5435L78.3084 51.2154L78.3177 51.2108L78.3308 51.1987C78.3333 51.1964 78.3471 51.1839 78.3733 51.1647L78.5405 50.2623L78.7965 50.6724L78.8211 50.6005L78.8048 50.6011L78.807 50.5725C78.8076 50.5636 78.8133 50.5275 78.8623 50.48L78.8651 50.4719L78.8014 50.0233L78.8404 50.0359C78.903 50.0562 78.9785 50.1666 79.0271 50.2478V49.7788L79.2784 49.8858L79.6187 49.4025L79.6619 49.4296L79.4871 49.7477L79.744 49.5955L79.7724 49.6379L79.4122 49.9105L79.6199 49.9937L79.613 50.0428L79.0783 50.0974V50.194L79.5537 50.2347L79.5557 50.2854C79.1451 50.352 78.9756 50.447 78.906 50.5103L78.8937 50.5463L79.3501 50.5271C79.4012 50.5215 79.4543 50.519 79.5083 50.5205L79.5087 50.5717L79.3574 50.578C79.1358 50.6026 78.9479 50.6908 78.8165 50.7717L78.81 50.7908L78.8033 50.78C78.7467 50.8156 78.7014 50.8493 78.6696 50.8749L79.4039 50.8488L79.4068 50.8999C78.8487 50.9426 78.5367 51.1153 78.4197 51.1953L78.4195 51.1962L79.2501 51.2468C79.2634 51.2472 79.2766 51.248 79.2898 51.2492L79.2859 51.3002L79.2485 51.2979C78.8856 51.2877 78.5003 51.5931 78.3689 51.7076L78.9212 51.7205L78.9232 51.7715C78.487 51.815 78.313 52.0126 78.2595 52.0931L78.8087 52.1087L78.7274 52.154C78.3379 52.3707 78.2335 52.7075 78.2066 52.8441L78.7288 52.44L78.7611 52.4797C78.2781 52.8927 78.3245 53.241 78.3575 53.3541L78.4666 53.2308C78.5245 53.1499 78.5998 53.0626 78.6974 52.9703L78.7341 53.0057L78.5104 53.2586C78.3374 53.5009 78.3278 53.6826 78.3351 53.7633L78.7384 53.3407L78.7257 53.4215C78.5834 54.3265 78.6958 54.5585 78.7514 54.6164L78.8391 53.3923L78.873 53.4089C79.0382 53.4891 79.1718 53.7046 79.2651 53.9032L79.0703 53.115L79.126 53.1537C79.3405 53.3026 79.4501 53.5546 79.4992 53.7046C79.5241 53.2276 79.1243 52.6672 79.12 52.661L79.1605 52.63L79.655 53.2403L79.2637 52.2698L79.3085 52.2458L79.7901 52.9489C79.7725 52.2872 79.3901 51.8678 79.3861 51.8635L79.4212 51.8265L80.0099 52.3212C79.9376 52.0655 79.6644 51.5782 79.6614 51.5727L79.6991 51.5398C79.7849 51.6048 79.9163 51.7491 80.0016 51.8466C79.8778 51.5318 79.5945 51.2094 79.5912 51.2057L79.5372 51.1448L79.6164 51.164C79.7549 51.1976 79.955 51.4075 80.0485 51.5129C80.0148 51.2509 79.8517 50.6595 79.8498 50.6529L79.8975 50.6349L80.0513 50.9541L79.9812 50.3633L80.0279 50.3461L80.1635 50.5492L80.125 50.0993L80.156 50.106L80.1535 50.0788L80.2652 50.122L80.348 49.5423L80.399 49.5476L80.3525 50.2107L80.28 50.1852L80.213 50.1707L80.2472 50.5582L80.6628 50.1141L80.706 50.139L80.4687 50.9217L80.8552 50.5699L80.8954 50.6L80.6103 51.1885L81.015 50.7292L81.0577 50.7556L80.6995 51.6464L81.0468 51.3551L81.0855 51.3871L80.7142 52.0564C80.8456 52.0215 81.04 51.8604 81.1792 51.7292C81.2259 51.668 81.2718 51.6203 81.3146 51.5954L81.3462 51.6349C81.3402 51.6414 81.2888 51.6961 81.2144 51.7664C81.0531 51.9818 80.8783 52.3773 80.8245 52.5025C80.923 52.4844 81.0091 52.4018 81.0765 52.3112L81.2318 52.0336L81.2779 52.0554C81.2736 52.0664 81.2159 52.2104 81.1183 52.3414L80.8575 52.8077C81.1056 52.6751 81.3615 52.2517 81.3644 52.247L81.3982 52.1907L81.4113 52.2551C81.4644 52.5143 81.057 53.2542 80.949 53.444C81.0439 53.425 81.1587 53.3562 81.2394 53.301C81.3193 53.168 81.3417 53.1635 81.3648 53.1724C81.3868 53.181 81.3923 53.207 81.3816 53.252L81.3796 53.2603L81.373 53.2658C81.3689 53.2692 81.3318 53.2994 81.2775 53.3371C81.2646 53.359 81.2495 53.3848 81.2324 53.4156C81.0773 53.6943 80.7656 54.0137 80.645 54.1322C80.9853 54.0924 81.3034 53.6641 81.3068 53.6595L81.3388 53.6161ZM78.3123 51.2551L78.3238 51.3702L78.4143 51.2662L78.3123 51.2551ZM78.5668 50.401L78.4326 51.1249C78.5309 51.0637 78.7031 50.9774 78.9635 50.9156L78.5323 50.9309L78.5797 50.8846C78.5865 50.8782 78.6569 50.8107 78.7756 50.7356L78.5668 50.401ZM78.8759 50.5981L78.8426 50.6956C78.9097 50.6577 78.9881 50.6203 79.0759 50.5897L78.8759 50.5981ZM81.6675 50.5074C81.7384 50.5293 81.923 50.587 82.1136 50.6514L81.6072 50.0064C81.6497 50.1591 81.7052 50.3999 81.6675 50.5074ZM78.8658 50.1135L78.912 50.4393C78.9903 50.3845 79.1265 50.322 79.3638 50.2698L79.0783 50.2453V50.3461L79.0299 50.3578C78.9912 50.2824 78.9215 50.1679 78.8658 50.1135ZM79.0783 49.8561V50.0461L79.5045 50.0026L79.3128 49.9258L79.2964 49.9491L79.0783 49.8561ZM79.3954 49.8085L79.319 49.9171L79.3809 49.8702L79.3522 49.8872L79.3954 49.8085ZM82.8839 49.6651C83.0302 49.725 83.2161 49.7977 83.4109 49.8736L83.3796 49.81C83.3781 49.8067 83.257 49.5614 83.0898 49.351C83.1702 49.4866 83.2533 49.652 83.2533 49.7562V49.7921L82.8839 49.6651ZM82.8216 49.6393C82.8265 49.6414 82.8314 49.6434 82.8365 49.6456L82.8343 49.6422C82.8339 49.6418 82.8302 49.6359 82.8236 49.6258L82.8286 49.6407L82.8216 49.6393ZM82.2962 49.4847C82.2968 49.4848 82.2974 49.4849 82.2982 49.485L82.2906 49.4734L82.2962 49.4847ZM81.3396 48.8526C81.1644 48.8526 80.9892 48.8809 80.8726 48.9704L80.8622 48.9751L80.7017 49.0088C81.0357 48.9892 81.5714 48.9621 82.164 48.9481L81.9443 48.9367C81.9361 48.9348 81.6378 48.8526 81.3396 48.8526ZM78.9918 48.9773C78.9986 48.978 79.0051 48.9786 79.0119 48.9793L79.0161 48.9299L78.9918 48.9773ZM77.1208 48.4311C76.7779 48.4679 76.5191 48.8583 76.4511 48.9708C76.4828 48.9645 76.5186 48.9581 76.5584 48.9518L77.1208 48.4311ZM82.1242 48.6515C82.1363 48.7424 82.1609 48.9175 82.1609 48.9176L82.1652 48.9481C82.4704 48.941 82.7913 48.9374 83.107 48.9402L82.6105 48.5729V48.9194L82.4445 48.9068L82.438 48.901C82.3212 48.7966 82.1814 48.6832 82.1242 48.6515ZM78.5098 48.9353C78.5225 48.9363 78.5351 48.9373 78.5479 48.9383L78.5515 48.9028L78.5098 48.9353ZM77.5075 48.4597C77.2436 48.599 77.0279 48.8217 76.9481 48.9099C76.969 48.9086 76.9905 48.9072 77.0124 48.9059C77.0681 48.8222 77.3301 48.6034 77.5075 48.4597ZM77.7903 48.8976C77.7955 48.8977 77.8006 48.8979 77.8059 48.898L77.8517 48.8404L77.7903 48.8976ZM77.8036 48.5498C77.6214 48.6225 77.4155 48.7972 77.3088 48.8949C77.3945 48.8932 77.4861 48.8927 77.5843 48.8938L77.8036 48.5498ZM79.114 48.5821C79.4883 48.7114 79.779 48.8257 79.921 48.8831C79.754 48.7476 79.3334 48.6312 79.114 48.5821ZM81.4888 48.4767L81.6324 48.564C81.6492 48.5591 81.6659 48.5541 81.6825 48.5492L81.4888 48.4767ZM82.145 48.4098L82.0599 48.4406C82.064 48.4396 82.0669 48.4389 82.0689 48.4385C82.0751 48.4371 82.107 48.4248 82.145 48.4098Z" fill="black"/>
<path d="M78.0924 49.1032L77.8284 49.403L77.799 49.411V49.446C77.799 49.446 76.7716 49.8174 76.0086 50.4602C75.2454 51.1032 74.7758 51.8174 74.6878 52.1604C74.5998 52.5032 74.585 53.4604 74.585 53.4604C74.585 53.4604 74.7318 52.6604 74.8198 52.546C74.8198 52.546 74.8198 53.0462 74.8932 53.1604C74.8932 53.1604 74.952 52.289 74.9812 52.1604C75.0106 52.0318 75.0106 52.8746 75.172 52.9462C75.172 52.9462 75.128 52.046 75.2454 51.7604C75.2454 51.7604 75.2014 52.246 75.2896 52.3746C75.2896 52.3746 75.4216 51.246 75.7298 50.946C75.7298 50.946 75.3628 51.5318 75.5976 52.3604L75.6684 52.0446L75.5684 52.0604L75.6746 52.017L75.7738 51.5746L75.9208 51.9162L75.9802 51.8918L76.0172 51.5946L75.6418 51.5604L76.0914 51.495L76.0964 51.3468L75.8764 51.3174L76.0988 51.2742L76.1048 51.089H75.9352L76.1062 51.0488L76.1112 50.889L76.1304 51.0432L76.3714 50.9866L76.4048 50.8318L76.4378 50.971L76.4574 50.9664L76.4978 50.7234L76.4488 50.7174L76.5 50.7106L76.5368 50.4888L76.5658 50.702L76.6796 50.6868L76.7424 50.3746L76.8158 50.6602C76.8158 50.6602 77.0066 50.046 77.1532 49.9746L77.1648 50.3484C77.1878 50.3442 77.2086 50.3404 77.2334 50.3358L77.5496 49.8032L77.5438 49.977C77.5732 49.9692 77.6084 49.9594 77.668 49.9434L77.799 49.646L77.887 49.8746L78.0338 49.7032L78.1032 49.8234C78.6594 49.6676 79.361 49.4608 79.3252 49.4174C79.2666 49.346 78.9584 49.346 78.9584 49.346L79.0024 49.1174L78.885 49.346H78.7528L78.7676 49.1888L78.6796 49.346L78.4006 49.3316L78.474 49.1602L78.3126 49.3174H77.931L78.0924 49.1032ZM77.5428 50.0068L77.5348 50.246L77.6366 50.0146C77.6026 50.011 77.5712 50.0084 77.5428 50.0068ZM76.5698 50.7322L76.597 50.9336L76.6316 50.9256L76.668 50.7442L76.5698 50.7322ZM76.1362 51.089L76.1576 51.2628L76.3188 51.2314L76.3494 51.089H76.1362ZM76.1694 51.3566L76.1848 51.4814L76.2674 51.4694L76.2882 51.3724L76.1694 51.3566ZM76.0354 51.5962L76.082 51.789L76.088 51.601L76.0354 51.5962ZM76.201 51.6114L76.214 51.7174L76.2362 51.6146L76.201 51.6114ZM75.967 51.9974L75.9566 51.999L75.9646 52.0176L75.967 51.9974Z" fill="#1E9A1C"/>
<path d="M74.6072 53.4645L74.5625 53.46C74.5631 53.4209 74.5784 52.4963 74.666 52.1549C74.7602 51.7882 75.2576 51.0635 75.9941 50.4429C76.7017 49.8469 77.647 49.4792 77.7766 49.4304V49.3938L77.8161 49.383L78.0756 49.0883L78.1104 49.1168L77.9763 49.2949H78.3035L78.4584 49.1441L78.4948 49.1691L78.4342 49.3108L78.6669 49.3228L78.748 49.1778L78.7901 49.191L78.7777 49.3235H78.8713L78.9824 49.1072L79.0246 49.1218L78.9857 49.3238C79.0671 49.3256 79.2881 49.3365 79.3427 49.4032L79.3505 49.4126L79.3478 49.4297C79.3401 49.4541 79.3242 49.5049 78.1094 49.8451L78.0926 49.8499L78.0303 49.7421L77.8797 49.918L77.7978 49.7052L77.6844 49.9624L77.591 49.9877C77.6063 49.9889 77.6224 49.9904 77.6391 49.9922L77.6698 49.9955L77.5555 50.2552L77.5123 50.2453L77.5242 49.8903L77.2477 50.3561L77.1432 50.3753L77.1321 50.0184C77.0225 50.1273 76.8851 50.5135 76.8374 50.6669L76.8139 50.7428L76.7452 50.4757L76.6986 50.707L76.6274 50.7166L76.6949 50.7248L76.6509 50.9443L76.578 50.9612L76.5437 50.7063L76.5347 50.6398L76.4773 50.985L76.4211 50.9981L76.406 50.934L76.3905 51.0052L76.1301 51.0665H76.3774L76.3378 51.2507L76.1383 51.2896L76.1245 51.1778L76.1208 51.2928L76.0157 51.3134L76.1197 51.3272L76.1134 51.5146L75.8339 51.5552L76.1113 51.5805L76.1046 51.7897L76.0602 51.7943L76.0305 51.6715L76.001 51.9077L75.909 51.9456L75.7807 51.6474L75.6196 52.3654L75.576 52.3666C75.4344 51.8669 75.5112 51.451 75.5954 51.1984C75.4016 51.6302 75.3131 52.3681 75.312 52.3773L75.3051 52.437L75.2711 52.3875C75.2243 52.3192 75.2123 52.1623 75.2119 52.0222C75.1686 52.3926 75.1942 52.9382 75.1946 52.9452L75.1964 52.9817L75.1629 52.9669C75.0537 52.9184 75.0158 52.6116 74.9862 52.3014C74.986 52.2991 74.9858 52.2968 74.9855 52.2944C74.9557 52.572 74.9162 53.1548 74.9157 53.162L74.9111 53.23L74.8743 53.1726C74.8183 53.0854 74.803 52.7977 74.7989 52.6441C74.7299 52.8395 74.6409 53.2807 74.6072 53.4645ZM77.8217 49.4282V49.4619L77.8067 49.4673C77.7966 49.471 76.7742 49.8448 76.0232 50.4775C75.2937 51.092 74.8021 51.8061 74.7098 52.166C74.6524 52.3892 74.6263 52.8821 74.6151 53.1914C74.6663 52.9453 74.7447 52.6067 74.8021 52.5323L74.8425 52.4799V52.5461C74.8425 52.651 74.8498 52.8949 74.8787 53.044C74.8958 52.802 74.9361 52.2572 74.9593 52.1554C74.9613 52.1466 74.9685 52.123 74.9887 52.1246C75.0148 52.1263 75.0161 52.1392 75.0312 52.2971C75.0469 52.4629 75.0775 52.7844 75.1473 52.8927C75.1397 52.6911 75.1223 52.001 75.2246 51.7518L75.268 51.7625C75.2581 51.8712 75.2454 52.1364 75.2787 52.2841C75.3169 52.0099 75.4512 51.1859 75.7142 50.93L75.749 50.958C75.7455 50.9635 75.4163 51.503 75.5961 52.2645L75.6392 52.072L75.572 52.0827L75.56 52.0395L75.6553 52.0007L75.7467 51.5927L75.6398 51.5829L75.6387 51.5382L75.763 51.52L75.767 51.5019L75.7741 51.5184L76.0696 51.4754L76.0732 51.3665L75.8734 51.3398L75.8722 51.2953L76.0769 51.2555L76.0815 51.1116H75.9353L75.9301 51.0671L76.0843 51.0308L76.0888 50.8884L76.1337 50.8863L76.1497 51.0155L76.3524 50.9679L76.3828 50.827L76.4269 50.8266L76.4451 50.9037L76.4718 50.7429L76.4461 50.7398L76.4458 50.6951L76.4806 50.6905L76.5146 50.4851L76.5593 50.4858L76.5853 50.6767L76.6607 50.6666L76.7204 50.3702L76.7644 50.3691L76.8184 50.5794C76.8759 50.4078 77.0188 50.015 77.1435 49.9544L77.1748 49.9391L77.1865 50.3215L77.2193 50.3155L77.5303 49.7917L77.5723 49.804L77.5674 49.9473L77.6518 49.9245L77.8005 49.587L77.8945 49.8313L78.0375 49.6643L78.1141 49.7969C79.0326 49.5394 79.2489 49.451 79.2958 49.4213C79.2391 49.3832 79.0643 49.3686 78.9585 49.3686H78.9313L78.9506 49.2678L78.8988 49.3686H78.7281L78.7353 49.2929L78.6925 49.3693L78.3672 49.3524L78.4089 49.2552L78.3219 49.34H77.9141L77.841 49.423L77.8217 49.4282ZM75.8085 51.5982L75.9328 51.887L75.9596 51.876L75.992 51.6149L75.8085 51.5982ZM76.1618 51.1116L76.1771 51.2361L76.2999 51.2122L76.3216 51.1116H76.1618ZM76.5962 50.7581L76.6146 50.8956L76.6412 50.7636L76.5962 50.7581ZM77.5646 50.0308L77.5613 50.1301L77.6035 50.034C77.59 50.0328 77.5771 50.0317 77.5646 50.0308ZM75.977 52.1035L75.9244 51.981L75.9931 51.9708L75.977 52.1035ZM76.2361 51.7222L76.1917 51.7202L76.1753 51.5864L76.2638 51.5945L76.2361 51.7222ZM76.1653 51.507L76.1435 51.3304L76.3154 51.3533L76.2862 51.4894L76.1653 51.507ZM76.1954 51.3828L76.2044 51.4558L76.2487 51.4494L76.2611 51.3916L76.1954 51.3828Z" fill="black"/>
<path d="M80.3681 46.7736L80.2393 48.4988C80.3811 48.731 80.4553 48.8864 80.4553 48.8864C80.4553 48.8864 80.4795 48.7554 80.5947 48.546L80.5383 46.8416C80.4815 46.8146 80.4245 46.7922 80.3681 46.7736ZM80.6097 49.002L80.5453 49.0156L80.6107 49.033L80.6097 49.002Z" fill="#D3AE3B"/>
<path d="M80.637 49.0666L80.5384 49.0403L80.5397 48.9906L80.6341 48.9708L80.637 49.0666ZM80.4657 48.9679L80.4319 48.8974C80.4312 48.8958 80.3565 48.7403 80.2172 48.5121L80.2129 48.505L80.2135 48.4969L80.3448 46.739L80.3759 46.7494C80.4362 46.7694 80.4944 46.7926 80.5489 46.8186L80.563 46.8252L80.5636 46.8408L80.6202 48.5522L80.6169 48.5583C80.5054 48.7609 80.4804 48.8898 80.4802 48.8911L80.4657 48.9679ZM80.2651 48.4925C80.3522 48.6356 80.4138 48.75 80.4478 48.8152C80.4663 48.7566 80.5022 48.6617 80.5687 48.5399L80.513 46.8582C80.4739 46.8401 80.4331 46.8235 80.3909 46.8084L80.2651 48.4925Z" fill="black"/>
<path d="M74.7861 64.6308C74.7861 64.6308 75.3973 64.2908 75.7467 64.6166L75.6301 64.8574L75.0335 64.9L74.7861 64.6308Z" fill="white"/>
<path d="M75.024 64.9233L74.75 64.6248L74.775 64.611C74.8004 64.5967 75.4045 64.2668 75.7618 64.6002L75.774 64.6115L75.6445 64.8789L75.024 64.9233ZM74.8226 64.6371L75.0426 64.8768L75.6152 64.836L75.7188 64.6221C75.4231 64.3647 74.9388 64.5795 74.8226 64.6371Z" fill="black"/>
<path d="M75.2241 63.8912L75.2119 64.8136L75.3329 64.8146L75.3451 63.892L75.2241 63.8912Z" fill="#1E9A1C"/>
<path d="M75.3457 64.8276L75.1992 64.8263L75.1993 64.8134L75.2117 63.8784L75.3582 63.8794L75.3581 63.8923L75.3457 64.8276ZM75.225 64.8009L75.3205 64.8019L75.3324 63.9048L75.2369 63.9042L75.225 64.8009Z" fill="black"/>
<path d="M74.8047 64.9332C74.8047 64.9332 74.9277 64.9828 74.9031 65.1614C74.8785 65.3398 74.8293 65.9846 75.2971 65.9846C75.7647 65.9846 75.7031 65.3598 75.7031 65.2606C75.7031 65.1614 75.7401 64.9728 75.7401 64.9728V64.6158C75.7401 64.6158 75.2723 64.953 74.8047 64.6058V64.9332Z" fill="#1E9A1C"/>
<path d="M75.2972 66.0053C75.1764 66.0053 75.0789 65.9637 75.0076 65.8819C74.8277 65.6754 74.8666 65.276 74.8828 65.1586C74.9047 64.9993 74.8014 64.9542 74.797 64.9524L74.7843 64.9471L74.7842 64.5647L74.8171 64.5891C75.2671 64.9233 75.7236 64.6024 75.7281 64.5991L75.7607 64.5756V64.9729C75.76 64.9788 75.7238 65.1645 75.7238 65.2606C75.7238 65.2682 75.7242 65.2792 75.7247 65.2926C75.7288 65.4114 75.7396 65.727 75.5766 65.8958C75.5064 65.9684 75.4124 66.0053 75.2972 66.0053ZM74.8254 64.9209C74.859 64.9407 74.9451 65.0079 74.9236 65.1641C74.9125 65.2448 74.8659 65.6565 75.0387 65.8547C75.1019 65.9272 75.1888 65.9639 75.2972 65.9639C75.4008 65.9639 75.4849 65.9315 75.5469 65.8672C75.6979 65.711 75.6874 65.4081 75.6835 65.294C75.683 65.2799 75.6826 65.2686 75.6826 65.2606C75.6826 65.1606 75.7184 64.9768 75.7199 64.969L75.7195 64.6532C75.6067 64.7204 75.2176 64.9108 74.8254 64.6456V64.9209Z" fill="black"/>
<path d="M75.2081 65.0768C75.2081 65.0768 75.1709 65.2994 75.1709 65.5226C75.1709 65.6344 75.1795 65.7462 75.2095 65.8344C75.2245 65.8786 75.2447 65.9174 75.2765 65.9478C75.2837 65.9548 75.2919 65.9608 75.3005 65.9666C75.3405 65.9662 75.3759 65.9614 75.4073 65.9524L75.4055 65.9136C75.3845 65.9142 75.3727 65.9098 75.3561 65.8938C75.3395 65.878 75.3227 65.8492 75.3101 65.812C75.2847 65.7376 75.2747 65.6306 75.2747 65.5226C75.2747 65.307 75.3113 65.0882 75.3113 65.0882L75.2081 65.0768Z" fill="white"/>
<path d="M75.7347 64.889C75.3115 65.0236 75.0045 64.9796 74.8047 64.9048V64.9336C74.8047 64.9336 74.8629 64.9572 74.8913 65.0302C75.2833 65.2156 75.5899 65.0652 75.7389 64.958L75.7347 64.889Z" fill="white"/>
<path d="M75.2606 65.1293C75.1479 65.1293 75.0221 65.1049 74.8862 65.0407L74.882 65.0387L74.8804 65.0344C74.8542 64.9674 74.8007 64.9446 74.8002 64.9444L74.793 64.9415V64.8879L74.8087 64.8938C74.9916 64.9622 75.3001 65.0149 75.7311 64.8778L75.7453 64.8733L75.7508 64.9637L75.7456 64.9674C75.6467 65.0387 75.4779 65.1293 75.2606 65.1293ZM74.9003 65.0215C75.2805 65.1995 75.5792 65.0569 75.7268 64.9524L75.7238 64.9045C75.3062 65.0348 75.0022 64.9877 74.8162 64.9213V64.9262C74.8333 64.9352 74.8759 64.9625 74.9003 65.0215Z" fill="black"/>
<path d="M73.7729 72.7686L73.6625 72.7479L73.5049 73.5453L74.0309 73.6438L74.0497 73.5484L73.6341 73.4704L73.7729 72.7686ZM74.2081 73.1386L74.2917 73.1518L74.3393 72.8672L74.2559 72.854L74.2081 73.1386ZM75.0153 72.9622L74.9441 73.4706C74.9379 73.5141 74.9269 73.5488 74.9105 73.5748C74.8937 73.6024 74.8733 73.6229 74.8493 73.6365C74.8013 73.662 74.7501 73.6708 74.6955 73.6628C74.6711 73.6596 74.6471 73.6524 74.6235 73.6417C74.6001 73.631 74.5791 73.6162 74.5603 73.5969C74.5429 73.5779 74.5299 73.5529 74.5217 73.522C74.5125 73.4919 74.5109 73.455 74.5171 73.4117L74.5881 72.9055L74.4767 72.8906L74.4015 73.4274C74.3897 73.505 74.4057 73.5753 74.4493 73.6378C74.4925 73.7024 74.5689 73.7427 74.6785 73.7586C74.7923 73.7724 74.8805 73.7532 74.9431 73.7014C75.0053 73.6508 75.0423 73.5834 75.0541 73.4992L75.1273 72.9771L75.0153 72.9622ZM75.7595 73.7018L75.7573 73.7016L75.4123 73.0074L75.2797 72.994L75.1933 73.8016L75.3015 73.8126L75.3715 73.1599L75.3737 73.16L75.7261 73.8557L75.8519 73.8685L75.9383 73.0608L75.8295 73.0496L75.7595 73.7018ZM76.2307 73.0844L76.1183 73.0748L76.0463 73.8838L76.1587 73.8935L76.2307 73.0844ZM77.0329 73.5505C77.0251 73.6466 76.9937 73.7234 76.9387 73.781C76.8833 73.8393 76.8101 73.8654 76.7191 73.8599C76.6277 73.8529 76.5593 73.8167 76.5137 73.7514C76.4663 73.6868 76.4463 73.6065 76.4533 73.5102C76.4605 73.4126 76.4921 73.3354 76.5483 73.2786C76.6029 73.2212 76.6759 73.1953 76.7673 73.2008C76.8581 73.2078 76.9269 73.2436 76.9733 73.3082C77.0195 73.372 77.0393 73.4526 77.0329 73.5505ZM77.1485 73.5584C77.1517 73.5133 77.1491 73.4654 77.1407 73.4151C77.1303 73.3646 77.1113 73.317 77.0835 73.2727C77.0557 73.2268 77.0169 73.1884 76.9673 73.1576C76.9157 73.1279 76.8513 73.11 76.7743 73.1039C76.7363 73.1013 76.7007 73.1021 76.6679 73.1065C76.6349 73.1112 76.6049 73.1193 76.5779 73.1307C76.5237 73.1542 76.4793 73.1868 76.4445 73.2282C76.4107 73.2685 76.3855 73.3128 76.3687 73.3615C76.3511 73.4102 76.3407 73.457 76.3373 73.5022C76.3341 73.5458 76.3377 73.5927 76.3481 73.6424C76.3577 73.6922 76.3763 73.7401 76.4035 73.7858C76.4321 73.8315 76.4715 73.8696 76.5215 73.9005C76.5711 73.932 76.6347 73.9508 76.7119 73.9568C76.7511 73.9596 76.7873 73.9578 76.8203 73.9516C76.8533 73.9472 76.8835 73.9393 76.9109 73.9274C76.9645 73.9039 77.0085 73.8714 77.0427 73.8302C77.0767 73.7886 77.1027 73.744 77.1201 73.6961C77.1357 73.648 77.1453 73.6022 77.1485 73.5584ZM77.8127 73.8427L77.8105 73.8424L77.4293 73.1664L77.2961 73.1596L77.2523 73.9704L77.3611 73.976L77.3965 73.3206L77.3987 73.3208L77.7873 73.9979L77.9137 74.0042L77.9573 73.1935L77.8479 73.1878L77.8127 73.8427ZM78.5505 73.6591L78.9593 73.672L78.9625 73.5748L78.5537 73.5618L78.5619 73.3134L79.0265 73.3281L79.0297 73.2308L78.4523 73.2126L78.4253 74.0242L78.5381 74.0279L78.5505 73.6591ZM79.5105 73.8159L79.5881 74.0539L79.7111 74.056L79.4255 73.2386L79.2979 73.236L78.9679 74.042L79.0837 74.0443L79.1757 73.8094L79.5105 73.8159ZM79.2123 73.713L79.3533 73.3582H79.3555L79.4715 73.7178L79.2123 73.713ZM79.9569 73.2451L79.8441 73.2443L79.8375 74.0562L79.9503 74.057L79.9569 73.2451ZM80.0365 73.3438L80.3185 73.3404L80.3281 74.055L80.4409 74.0539L80.4315 73.3391L80.7141 73.3354L80.7127 73.2383L80.0351 73.2469L80.0365 73.3438ZM81.2457 73.2246L81.1335 73.2281L81.1593 74.0396L81.6949 74.0234L81.6917 73.9263L81.2685 73.9391L81.2457 73.2246ZM82.2615 73.7634L82.3543 73.9962L82.4773 73.9909L82.1395 73.1924L82.0119 73.1979L81.7347 74.0224L81.8503 74.0174L81.9271 73.7776L82.2615 73.7634ZM81.9573 73.679L82.0751 73.3162H82.0775L82.2163 73.668L81.9573 73.679ZM83.0047 73.5919L83.4129 73.5664L83.4067 73.4694L82.9983 73.4948L82.9819 73.2469L83.4457 73.2178L83.4393 73.1208L82.8629 73.1568L82.9163 73.9672L83.0289 73.96L83.0047 73.5919ZM84.2315 73.4659C84.2389 73.562 84.2201 73.6427 84.1747 73.7076C84.1291 73.7734 84.0609 73.8104 83.9701 73.8185C83.8787 73.825 83.8053 73.7996 83.7499 73.742C83.6931 73.6852 83.6605 73.6089 83.6523 73.5126C83.6441 73.4151 83.6631 73.3341 83.7097 73.2696C83.7545 73.2047 83.8227 73.1682 83.9139 73.16C84.0047 73.1534 84.0783 73.1784 84.1343 73.2352C84.1899 73.2914 84.2223 73.3682 84.2315 73.4659ZM84.3469 73.4565C84.3429 73.4112 84.3329 73.3644 84.3165 73.3159C84.2985 73.2674 84.2721 73.2234 84.2375 73.1836C84.2029 73.1427 84.1587 73.1104 84.1047 73.0875C84.0489 73.0659 83.9825 73.0576 83.9055 73.0633C83.8675 73.0662 83.8325 73.0724 83.8007 73.0816C83.7687 73.0912 83.7405 73.1036 83.7155 73.119C83.6659 73.1505 83.6271 73.1893 83.5991 73.2354C83.5721 73.28 83.5543 73.3276 83.5453 73.3782C83.5355 73.429 83.5327 73.4768 83.5365 73.522C83.5401 73.5656 83.5511 73.6115 83.5693 73.6591C83.5865 73.7068 83.6125 73.7513 83.6467 73.7924C83.6821 73.8332 83.7269 73.8651 83.7813 73.888C83.8353 73.9118 83.9009 73.9208 83.9783 73.9152C84.0175 73.9122 84.0529 73.905 84.0847 73.894C84.1165 73.8846 84.1451 73.8722 84.1703 73.8566C84.2197 73.8253 84.2579 73.7867 84.2851 73.7409C84.3123 73.6946 84.3309 73.6466 84.3405 73.5966C84.3485 73.5469 84.3505 73.5003 84.3469 73.4565ZM84.6015 73.4886L84.8729 73.4599C84.9059 73.4562 84.9333 73.4576 84.9549 73.4638C84.9753 73.4698 84.9913 73.4794 85.0027 73.4928C85.0143 73.5052 85.0227 73.5198 85.0275 73.5368C85.0317 73.5539 85.0347 73.5708 85.0367 73.588C85.0387 73.6065 85.0437 73.6372 85.0517 73.6808C85.0559 73.7013 85.0601 73.7211 85.0645 73.7401C85.0691 73.7592 85.0739 73.7755 85.0791 73.7886L85.2167 73.774L85.2147 73.7558C85.1975 73.748 85.1855 73.7388 85.1785 73.7281C85.1721 73.7172 85.1671 73.701 85.1639 73.6797L85.1409 73.5342C85.1363 73.5066 85.1305 73.4836 85.1235 73.4654C85.1155 73.4479 85.1061 73.4346 85.0957 73.4263C85.0855 73.4159 85.0745 73.4082 85.0629 73.4036C85.0507 73.3992 85.0379 73.3956 85.0245 73.3927C85.0373 73.3839 85.0499 73.373 85.0627 73.3602C85.0747 73.349 85.0857 73.3357 85.0959 73.3201C85.1057 73.3039 85.1129 73.2849 85.1175 73.2633C85.1211 73.2419 85.1213 73.2164 85.1181 73.187C85.1073 73.1034 85.0727 73.0488 85.0147 73.023C84.9569 72.9988 84.8923 72.9909 84.8213 72.999L84.4377 73.0398L84.5281 73.847L84.6403 73.835L84.6015 73.4886ZM84.5603 73.1212L84.8397 73.0917C84.8703 73.0876 84.9031 73.0909 84.9377 73.1013C84.9541 73.1081 84.9683 73.1198 84.9805 73.1367C84.9927 73.1542 85.0007 73.1789 85.0041 73.2102C85.0075 73.2396 85.0053 73.2636 84.9979 73.2826C84.9907 73.3026 84.9795 73.3182 84.9645 73.3294C84.9493 73.341 84.9321 73.3495 84.9125 73.3544C84.8929 73.361 84.8725 73.3654 84.8511 73.3677L84.5911 73.3953L84.5603 73.1212ZM85.9545 73.1005C85.9367 73.0312 85.8959 72.9746 85.8321 72.931C85.7687 72.8867 85.6835 72.8712 85.5767 72.8846C85.4559 72.9029 85.3675 72.9544 85.3115 73.0393C85.2545 73.1248 85.2349 73.2308 85.2527 73.357C85.2765 73.5096 85.3315 73.6138 85.4173 73.67C85.4997 73.7263 85.5897 73.7472 85.6873 73.7331C85.7041 73.7307 85.7295 73.7245 85.7631 73.7146C85.7967 73.7044 85.8317 73.6868 85.8677 73.6622C85.9041 73.6367 85.9353 73.5996 85.9609 73.551C85.9867 73.5031 86.0005 73.4414 86.0019 73.3656L85.8935 73.3807C85.8913 73.4274 85.8833 73.4669 85.8695 73.4984C85.8555 73.53 85.8377 73.5555 85.8165 73.5745C85.7955 73.5927 85.7741 73.6066 85.7521 73.6162C85.7299 73.6256 85.7091 73.6318 85.6901 73.6344C85.5895 73.6477 85.5139 73.625 85.4629 73.5667C85.4125 73.5104 85.3807 73.4339 85.3673 73.3372C85.3525 73.2315 85.3675 73.1479 85.4125 73.0865C85.4545 73.0266 85.5139 72.9914 85.5907 72.9808C85.6121 72.9779 85.6345 72.9763 85.6583 72.9758C85.6817 72.9771 85.7055 72.9823 85.7297 72.991C85.7537 73 85.7761 73.0144 85.7969 73.0342C85.8177 73.0536 85.8343 73.0807 85.8467 73.1154L85.9545 73.1005ZM86.7775 73.4298L86.2835 73.5216L86.2311 73.2548L86.6799 73.1712L86.6611 73.0758L86.2125 73.1592L86.1645 72.9151L86.6505 72.8246L86.6319 72.7292L86.0349 72.8402L86.1915 73.6378L86.7961 73.5253L86.7775 73.4298Z" fill="black"/>
</svg>
