<svg width="160" height="120" viewBox="0 0 160 120" fill="none" xmlns="http://www.w3.org/2000/svg">
<path d="M0 0H160V40H0V0Z" fill="#FF7E3D"/>
<path d="M0 40H160V80H0V40Z" fill="white"/>
<path d="M0 80H160V120H0V80Z" fill="#1E9A1C"/>
<path fill-rule="evenodd" clip-rule="evenodd" d="M96 60C96 68.8366 88.8366 76 80 76C71.1634 76 64 68.8366 64 60C64 51.1634 71.1634 44 80 44C88.8366 44 96 51.1634 96 60ZM81.1063 73.9569C80.7413 73.9855 80.3723 74 80 74C79.6242 74 79.2518 73.9852 78.8835 73.9561C78.9249 73.5688 78.6498 73.2172 78.2615 73.1661C77.8728 73.1149 77.5157 73.384 77.456 73.7694C76.7183 73.634 76.0007 73.4407 75.3083 73.1945C75.4505 72.8304 75.2759 72.4178 74.9131 72.2675C74.5506 72.1173 74.1358 72.2852 73.9786 72.6425C73.3059 72.3216 72.6628 71.9485 72.0546 71.5285C72.2845 71.2138 72.2222 70.7714 71.9113 70.5329C71.6009 70.2946 71.1582 70.3485 70.9135 70.651C70.3492 70.1691 69.8237 69.6432 69.3423 69.0786C69.6452 68.834 69.6992 68.3911 69.4608 68.0804C69.2224 67.7697 68.7803 67.7073 68.4656 67.9369C68.0461 67.3284 67.6735 66.685 67.353 66.0121C67.7107 65.8551 67.8788 65.44 67.7286 65.0774C67.5784 64.7147 67.166 64.54 66.8021 64.682C66.5563 63.9894 66.3636 63.2717 66.2287 62.5338C66.6144 62.4743 66.8838 62.1171 66.8326 61.7282C66.7815 61.3401 66.4301 61.0651 66.0431 61.1062C66.0145 60.7412 66 60.3723 66 60C66 59.6241 66.0148 59.2517 66.0439 58.8833C66.4312 58.9248 66.7828 58.6497 66.834 58.2614C66.8851 57.8726 66.6161 57.5156 66.2306 57.4559C66.366 56.7181 66.5593 56.0006 66.8056 55.3081C67.1696 55.4504 67.5823 55.2758 67.7326 54.913C67.8827 54.5505 67.7149 54.1356 67.3575 53.9785C67.6785 53.3058 68.0516 52.6627 68.4715 52.0545C68.7863 52.2844 69.2287 52.2221 69.4672 51.9112C69.7054 51.6008 69.6516 51.1581 69.3491 50.9134C69.831 50.3492 70.3568 49.8237 70.9215 49.3422C71.1661 49.6451 71.609 49.6991 71.9196 49.4607C72.2304 49.2223 72.2927 48.7802 72.0632 48.4655C72.6717 48.046 73.3151 47.6734 73.988 47.353C74.145 47.7106 74.5601 47.8787 74.9227 47.7285C75.2853 47.5783 75.46 47.166 75.3181 46.802C76.0107 46.5563 76.7284 46.3636 77.4663 46.2287C77.5258 46.6144 77.883 46.8837 78.2718 46.8325C78.6599 46.7814 78.9349 46.4301 78.8939 46.0431C79.2588 46.0145 79.6277 46 80 46C80 46 80 46 80 46L79.5201 54.4L79.8565 57.2036C79.7059 57.2112 79.5584 57.2307 79.4149 57.2612L79.0143 54.4666L76.3766 46.477L78.0871 54.715L79.1374 57.3353C78.9949 57.3814 78.8574 57.4386 78.726 57.5059L77.6158 54.9102L73.0001 47.8756L76.7844 55.3902L78.4774 57.6497C78.3524 57.7308 78.2344 57.8216 78.1242 57.9211L76.3797 55.7008L70.1006 50.1005L75.7009 56.3796L77.9212 58.1241C77.8217 58.2342 77.7309 58.3523 77.6498 58.4772L75.3904 56.7843L67.8757 53L74.9103 57.6157L77.506 58.7259C77.4387 58.8573 77.3815 58.9948 77.3354 59.1372L74.7151 58.0869L66.4771 56.3765L74.4667 59.0142L77.2612 59.4148C77.2307 59.5582 77.2112 59.7057 77.2036 59.8564L74.4001 59.52L66 60L74.4001 60.48L77.2036 60.1436C77.2112 60.2942 77.2307 60.4417 77.2612 60.5851L74.4667 60.9857L66.4771 63.6234L74.7151 61.913L77.3354 60.8627C77.3815 61.0052 77.4387 61.1426 77.506 61.2741L74.9104 62.3843L67.8757 67L75.3904 63.2157L77.6498 61.5227C77.731 61.6476 77.8218 61.7657 77.9212 61.8758L75.7009 63.6204L70.1006 69.8995L76.3797 64.2992L78.1242 62.0789C78.2344 62.1783 78.3524 62.2691 78.4774 62.3502L76.7844 64.6097L73.0001 72.1243L77.6158 65.0897L78.726 62.494C78.8575 62.5613 78.9949 62.6185 79.1374 62.6646L78.0871 65.2849L76.3766 73.5229L79.0144 65.5334L79.4149 62.7387C79.5584 62.7692 79.7059 62.7887 79.8565 62.7963L79.5201 65.6L80 74L80.4801 65.6L80.1437 62.7963C80.2943 62.7887 80.4418 62.7692 80.5852 62.7387L80.9858 65.5334L83.6236 73.5229L81.9131 65.2849L80.8628 62.6645C81.0052 62.6184 81.1427 62.5612 81.2741 62.4939L82.3844 65.0897L87.0001 72.1243L83.2158 64.6097L81.5227 62.3501C81.6477 62.2689 81.7657 62.1781 81.8758 62.0787L83.6205 64.2992L89.8996 69.8995C89.6362 70.1629 89.3623 70.4158 89.0787 70.6576C88.834 70.3549 88.3911 70.3009 88.0806 70.5392C87.7699 70.7776 87.7074 71.2197 87.9369 71.5344C87.3284 71.9539 86.6851 72.3265 86.0121 72.647C85.8551 72.2893 85.4401 72.1213 85.0775 72.2715C84.7149 72.4217 84.5402 72.834 84.6821 73.1979C83.9895 73.4436 83.2718 73.6364 82.5339 73.7713C82.4744 73.3856 82.1172 73.1163 81.7284 73.1675C81.3402 73.2186 81.0653 73.5699 81.1063 73.9569ZM90.651 69.0865C90.3486 68.8418 90.2948 68.3992 90.533 68.0887C90.7715 67.7779 91.2138 67.7155 91.5285 67.9454C91.9485 67.3372 92.3216 66.6941 92.6425 66.0214C92.2853 65.8642 92.1175 65.4494 92.2676 65.087C92.4179 64.7242 92.8304 64.5496 93.1945 64.6918C93.4407 63.9993 93.634 63.2818 93.7694 62.544C93.3841 62.4843 93.1151 62.1273 93.1662 61.7386C93.2173 61.3503 93.5689 61.0753 93.9561 61.1166C93.9852 60.7482 94 60.3758 94 60L85.6001 60.48L82.7963 60.1435C82.7887 60.2942 82.7692 60.4417 82.7387 60.5851L85.5335 60.9857L93.5231 63.6234L85.285 61.913L82.6645 60.8626C82.6185 61.0051 82.5613 61.1425 82.494 61.274L85.0898 62.3843L92.1244 67L84.6098 63.2157L82.3502 61.5226C82.2691 61.6475 82.1783 61.7656 82.0788 61.8757L84.2993 63.6204L89.8996 69.8995C90.1605 69.6385 90.4112 69.3673 90.651 69.0865ZM82.7963 59.8564L85.6001 59.52L94 60C94 59.6277 93.9855 59.2587 93.9569 58.8938C93.5699 58.9348 93.2187 58.6598 93.1676 58.2717C93.1164 57.8829 93.3857 57.5257 93.7713 57.4662C93.6364 56.7283 93.4437 56.0106 93.198 55.318C92.834 55.4598 92.4218 55.2852 92.2716 54.9226C92.1214 54.56 92.2894 54.145 92.647 53.988C92.3265 53.315 91.9539 52.6717 91.5344 52.0632C91.2198 52.2926 90.7777 52.2302 90.5393 51.9195C90.301 51.6089 90.355 51.1661 90.6577 50.9214C90.4159 50.6378 90.1629 50.3639 89.8995 50.1005C89.6386 49.8396 89.3674 49.5889 89.0866 49.3491C88.8419 49.6515 88.3993 49.7053 88.0888 49.4671C87.778 49.2286 87.7157 48.7863 87.9455 48.4715C87.3373 48.0516 86.6942 47.6785 86.0215 47.3575C85.8643 47.7148 85.4495 47.8826 85.0871 47.7325C84.7243 47.5822 84.5497 47.1696 84.6919 46.8056C83.9995 46.5593 83.2819 46.366 82.5441 46.2306C82.4844 46.616 82.1274 46.885 81.7387 46.8338C81.3504 46.7827 81.0754 46.4311 81.1167 46.0439C80.7483 46.0148 80.3759 46 80 46L80.4801 54.4L80.1437 57.2036C80.2943 57.2112 80.4418 57.2307 80.5852 57.2612L80.9858 54.4666L83.6236 46.477L81.9131 54.715L80.8628 57.3354C81.0052 57.3815 81.1427 57.4387 81.2741 57.506L82.3844 54.9102L87.0001 47.8756L83.2158 55.3902L81.5227 57.6499C81.6477 57.731 81.7657 57.8218 81.8758 57.9212L83.6205 55.7008L89.8995 50.1005L84.2993 56.3796L82.0788 58.1242C82.1783 58.2344 82.2691 58.3524 82.3502 58.4774L84.6098 56.7843L92.1245 53L85.0898 57.6157L82.494 58.7259C82.5613 58.8574 82.6185 58.9949 82.6646 59.1373L85.285 58.0869L93.5231 56.3765L85.5335 59.0142L82.7387 59.4148C82.7692 59.5583 82.7887 59.7058 82.7963 59.8564Z" fill="#0F3296"/>
</svg>
