<svg width="160" height="120" viewBox="0 0 160 120" fill="none" xmlns="http://www.w3.org/2000/svg">
<g clip-path="url(#clip0_909_101787)">
<path d="M0 0H160V120H0V0Z" fill="white"/>
<path d="M0 0H160V40H0V0Z" fill="#D91C16"/>
<path d="M0 80H160V120H0V80Z" fill="black"/>
<path d="M78.8485 68.4091H49.5303C49.4693 68.957 49.2694 69.4866 48.9445 69.9606C48.6196 70.4346 48.1778 70.8413 47.6502 71.1521C47.1227 71.4628 46.5223 71.67 45.8916 71.7589C45.2608 71.8478 44.6151 71.8163 44 71.6667C48.1061 69.6515 47.8485 67.606 45.2576 63.0606C46.697 62.5454 46.9242 62.4091 48.3788 61.4242C47.3485 64.5454 51.0455 64.1667 53.7727 64.1667C53.7727 63.0757 53.8788 61.8333 53.0606 61.6667C54.1212 61.2879 54.2121 61.1667 55.8939 59.7424V63.9394H76.1212V61.0606C76.1212 60.8999 76.0574 60.7457 75.9437 60.632C75.83 60.5184 75.6759 60.4545 75.5152 60.4545C75.3544 60.4545 75.2003 60.5184 75.0866 60.632C74.9729 60.7457 74.9091 60.8999 74.9091 61.0606V62.7273C74.9091 62.8478 74.8612 62.9634 74.776 63.0487C74.6907 63.1339 74.5751 63.1818 74.4545 63.1818H59V60.4545L70.6061 49.2424C70.5303 49.8182 71.7273 51.3636 72.2273 51.6212C71.8485 51.6818 71.4242 51.606 71.1515 51.8788L61.6515 61.0606H72.1818C72.1818 58.6212 74.4545 58.6212 75.5152 57.7576C76.5758 58.6212 78.8485 58.6212 78.8485 61.0606V68.4091ZM81.0455 68.4091V49.2424C82.1212 49.8333 82.9545 50.5151 84.2879 50.8485C84.2273 51.606 83.5455 51.8485 83.5455 52.3788V64.1667C85.0303 64.5 85.3636 63.6363 86.0758 63.197C86.2576 65.0757 87.4545 66.9242 87.4091 68.4091H81.0455ZM101.076 55.606L103.424 53.6363V63.9394H105.091V52.2273C105.909 51.5454 106.97 50.803 107.439 49.9394V68.4091H92.6667C92.4545 64.5909 92.4545 60.6667 96.9091 61.5151V59.9545C96.9091 59.5909 96.3636 59.8788 96.3636 59.5454L99.4091 57V63.9394H101.076V55.606ZM100.303 50.3333C100.015 50.3485 99.5758 48.7727 99.6818 48.4697C99.7879 48.1212 100.182 48.1212 100.348 48.2879C100.621 48.5454 100.591 50.3182 100.303 50.3333ZM97.5606 52.4697C96.7273 51.9848 96.8636 51.7879 97.5909 52C98.8485 52.3788 99.4849 52.0606 100.394 51.1363L101.076 51.4848C101.97 51.9394 102.515 51.7424 102.833 50.6515C102.924 50.3182 103.197 50.4091 103.273 50.7879C103.561 52.303 102.409 52.7727 101.242 52.3485C100.606 52.1363 100.5 52.1363 100.182 52.3788C99.4849 52.9242 98.4849 53.0151 97.5606 52.4697ZM109.636 68.4091V49.2424C110.712 49.8333 111.545 50.5151 112.879 50.8485C112.818 51.606 112.136 51.8485 112.136 52.3788V64.1667C113.621 64.5 113.955 63.6363 114.667 63.197C114.848 65.0757 116.045 66.9242 116 68.4091H109.636ZM52.197 70.5303C52.197 70.2932 52.2912 70.0658 52.4588 69.8982C52.6264 69.7305 52.8538 69.6364 53.0909 69.6364C53.328 69.6364 53.5554 69.7305 53.723 69.8982C53.8907 70.0658 53.9848 70.2932 53.9848 70.5303C53.9848 70.7674 53.8907 70.9948 53.723 71.1624C53.5554 71.33 53.328 71.4242 53.0909 71.4242C52.8538 71.4242 52.6264 71.33 52.4588 71.1624C52.2912 70.9948 52.197 70.7674 52.197 70.5303ZM95.5455 63.5606C95.5455 63.6972 95.6173 63.8282 95.7452 63.9249C95.873 64.0215 96.0464 64.0757 96.2273 64.0757C96.4081 64.0757 96.5815 64.0215 96.7094 63.9249C96.8373 63.8282 96.9091 63.6972 96.9091 63.5606C96.9091 63.424 96.8373 63.2929 96.7094 63.1963C96.5815 63.0997 96.4081 63.0454 96.2273 63.0454C96.0464 63.0454 95.873 63.0997 95.7452 63.1963C95.6173 63.2929 95.5455 63.424 95.5455 63.5606Z" fill="#005801"/>
</g>
<defs>
<clipPath id="clip0_909_101787">
<rect width="160" height="120" fill="white"/>
</clipPath>
</defs>
</svg>
