<svg width="160" height="120" viewBox="0 0 160 120" fill="none" xmlns="http://www.w3.org/2000/svg">
<g clip-path="url(#clip0_307_65713)">
<path d="M0 0H160V120H0V0Z" fill="#A30904"/>
<path d="M82.1242 10.936C74.4922 7.78001 69.8202 7.20002 64.6002 7.14802C57.0402 7.20002 53.4322 10.448 46.2242 10.748C49.0802 13.824 59.4322 14.576 63.7962 10.536C70.2842 11.212 71.7562 12.964 73.4962 15.144C70.7882 14.716 67.6682 13.936 65.0802 16.8C62.8962 17.24 61.8842 16.8 58.1482 16.8C56.4042 16.8 55.8002 17.656 55.8242 19.2C56.9522 17.64 64.7482 18.56 66.6602 19.2C68.1282 19.692 69.6882 21.728 71.5482 22.06C76.4242 22.928 83.4202 20.38 89.8722 18.644L103.824 16.8H94.2522L106.224 14.4H93.2082C92.9322 14.084 92.2722 13.676 91.7442 13.328C95.0922 11.172 98.0522 7.25202 98.8082 5.36002C104.844 5.30002 108.74 4.74002 113.424 3.64402C82.5522 0.228016 89.5802 3.91202 82.1242 10.936Z" fill="#FDD406"/>
<path fill-rule="evenodd" clip-rule="evenodd" d="M96.5586 2.26251C100.363 2.28779 105.716 2.6985 113.434 3.55256L113.967 3.6115L113.445 3.73359C108.771 4.82734 104.879 5.38813 98.8704 5.45137C98.4735 6.41078 97.5497 7.84421 96.3186 9.30431C95.0912 10.76 93.5521 12.2494 91.9124 13.3283C91.949 13.3522 91.9862 13.3765 92.0236 13.4009C92.2231 13.531 92.4317 13.667 92.6233 13.8005C92.8723 13.974 93.101 14.1489 93.2491 14.308H107.151L95.1792 16.708H105.222L89.8903 18.7344C88.674 19.0618 87.4362 19.4186 86.196 19.7761C84.1554 20.3644 82.1083 20.9545 80.1403 21.4181C76.9734 22.164 73.9898 22.5881 71.5321 22.1506C70.5776 21.9802 69.7064 21.3744 68.9016 20.7633C68.7914 20.6796 68.6825 20.5958 68.5747 20.513C68.2862 20.2911 68.0057 20.0754 67.7292 19.8833C67.35 19.6198 66.9857 19.4061 66.631 19.2872C65.6868 18.9712 63.2696 18.5817 60.9437 18.4669C59.7818 18.4095 58.6481 18.421 57.7366 18.5431C57.2807 18.6041 56.8837 18.6924 56.5678 18.8119C56.2504 18.932 56.0246 19.0799 55.8988 19.2539L55.7366 19.4783L55.7323 19.2014C55.7201 18.4201 55.866 17.7918 56.2548 17.3595C56.6452 16.9253 57.2628 16.708 58.1482 16.708C59.6158 16.708 60.6652 16.7758 61.5274 16.8316C61.7646 16.8469 61.9876 16.8613 62.2013 16.8731C63.1812 16.9274 63.9662 16.9277 65.0325 16.7157C67.46 14.0499 70.354 14.5305 72.9016 14.9536C73.0271 14.9745 73.1518 14.9952 73.2755 15.0153C72.4618 14.0012 71.682 13.0964 70.3812 12.356C69.006 11.5731 67.041 10.97 63.828 10.6318C61.6169 12.6548 57.9271 13.4699 54.443 13.4025C52.6904 13.3686 50.9837 13.1114 49.5342 12.6687C48.0867 12.2265 46.8866 11.5966 46.1568 10.8106L46.0211 10.6644L46.2204 10.6561C49.6604 10.5129 52.2767 9.69616 54.9079 8.87478C55.0228 8.8389 55.1378 8.80301 55.2529 8.76717C58.0024 7.91071 60.8053 7.08211 64.5996 7.05601L64.6012 7.056C69.8195 7.10798 74.4933 7.68739 82.1043 10.8282C83.7308 9.28722 84.6584 7.90995 85.4538 6.72898C85.5518 6.58338 85.6479 6.44077 85.743 6.3012C86.6169 5.01854 87.4141 3.98813 88.9553 3.29118C90.4911 2.59669 92.7564 2.23724 96.5586 2.26251ZM85.6065 6.83167C84.8037 8.02374 83.8562 9.43075 82.1873 11.003L82.144 11.0437L82.0891 11.021C74.4691 7.86999 69.8089 7.29195 64.6001 7.24001C60.8348 7.26602 58.0539 8.08736 55.3076 8.94284C55.1913 8.97907 55.0751 9.01535 54.9588 9.05164C52.3816 9.85626 49.7975 10.663 46.4339 10.8305C47.1427 11.5171 48.2481 12.0835 49.5879 12.4927C51.019 12.9298 52.7086 13.1849 54.4465 13.2185C57.9272 13.2858 61.5773 12.4649 63.7337 10.4685L63.7643 10.4402L63.8058 10.4445C67.0562 10.7832 69.0603 11.3923 70.4722 12.1961C71.8855 13.0006 72.6979 13.9963 73.5681 15.0866L73.716 15.2719L73.4819 15.2349C73.2822 15.2033 73.0808 15.17 72.8778 15.1364C70.3134 14.7119 67.5103 14.248 65.1485 16.8617L65.1282 16.8842L65.0984 16.8902C63.9958 17.1123 63.1883 17.1121 62.1912 17.0569C61.9756 17.0449 61.7513 17.0304 61.5133 17.015C60.6515 16.9594 59.6093 16.892 58.1482 16.892C57.2897 16.892 56.7332 17.1027 56.3916 17.4825C56.0843 17.8243 55.9366 18.3186 55.9177 18.9659C56.0701 18.8352 56.2697 18.728 56.5027 18.6398C56.8366 18.5135 57.2486 18.4228 57.7122 18.3607C58.6394 18.2365 59.7857 18.2255 60.9528 18.2831C63.2848 18.3983 65.7216 18.7888 66.6894 19.1128C67.0688 19.2399 67.45 19.4652 67.8342 19.7322C68.1146 19.927 68.4004 20.1468 68.6902 20.3696C68.7972 20.452 68.9048 20.5347 69.0129 20.6167C69.82 21.2296 70.6589 21.8078 71.5644 21.9694C73.9827 22.3999 76.9351 21.984 80.0981 21.239C82.0629 20.7762 84.1007 20.1887 86.1373 19.6015C87.3804 19.2431 88.623 18.8848 89.8483 18.5552L89.8542 18.5536L102.426 16.892H93.3253L105.297 14.492H93.1664L93.1389 14.4605C93.0091 14.3119 92.7837 14.1365 92.5181 13.9515C92.3289 13.8197 92.1242 13.6861 91.9256 13.5566C91.8468 13.5053 91.7691 13.4546 91.6936 13.4048L91.5757 13.3271L91.6944 13.2507C93.3585 12.1791 94.9288 10.6671 96.1779 9.1857C97.428 7.70313 98.35 6.25881 98.7228 5.32587L98.7457 5.26862L98.8073 5.26801C104.608 5.21035 108.429 4.6905 112.876 3.67622C105.447 2.86254 100.263 2.47113 96.5574 2.4465C92.7616 2.42128 90.5294 2.78132 89.0311 3.45883C87.5384 4.13388 86.765 5.12797 85.895 6.40481C85.8003 6.54383 85.7044 6.68615 85.6065 6.83167Z" fill="black"/>
<path d="M67.8482 15.956C68.1802 15.956 68.4482 16.224 68.4482 16.556C68.4482 16.888 68.1802 17.156 67.8482 17.156C67.5202 17.156 67.2482 16.888 67.2482 16.556C67.2482 16.224 67.5202 15.956 67.8482 15.956Z" fill="black"/>
<path fill-rule="evenodd" clip-rule="evenodd" d="M67.8483 15.986C67.5367 15.986 67.2783 16.2407 67.2783 16.556C67.2783 16.8713 67.5367 17.126 67.8483 17.126C68.1637 17.126 68.4183 16.8714 68.4183 16.556C68.4183 16.2406 68.1637 15.986 67.8483 15.986ZM67.2183 16.556C67.2183 16.2073 67.5038 15.926 67.8483 15.926C68.1968 15.926 68.4783 16.2074 68.4783 16.556C68.4783 16.9046 68.1968 17.186 67.8483 17.186C67.5038 17.186 67.2183 16.9047 67.2183 16.556Z" fill="black"/>
<path fill-rule="evenodd" clip-rule="evenodd" d="M61.1127 8.53246L61.0762 8.44799C61.0398 8.36353 61.0398 8.36351 61.0398 8.3635L61.0422 8.36248L61.0489 8.35962C61.0548 8.35713 61.0635 8.35347 61.0749 8.34872C61.0978 8.33922 61.1316 8.32538 61.1756 8.30782C61.2637 8.27271 61.393 8.22276 61.5583 8.16308C61.8889 8.04374 62.3637 7.88544 62.9417 7.72918C64.0972 7.41683 65.6684 7.11178 67.326 7.14401L67.3224 7.32797C65.6881 7.2962 64.1352 7.59716 62.9897 7.9068C62.4173 8.06154 61.9474 8.21824 61.6208 8.33615C61.4575 8.3951 61.3301 8.44433 61.2437 8.47876C61.2005 8.49597 61.1676 8.50947 61.1455 8.51864C61.1345 8.52322 61.1262 8.52671 61.1207 8.52904L61.1146 8.53166L61.1131 8.53229L61.1127 8.53246ZM69.0835 8.85071L69.0682 8.75999C69.053 8.66927 69.053 8.66926 69.053 8.66925L69.056 8.66875L69.0647 8.66734C69.0723 8.6661 69.0836 8.66429 69.0984 8.66197C69.128 8.65733 69.1718 8.65066 69.2286 8.64247C69.3424 8.62609 69.5086 8.60362 69.7192 8.57917C70.1403 8.53028 70.7388 8.47345 71.4496 8.44158C72.8703 8.3779 74.7432 8.41375 76.5442 8.81419L76.5043 8.9938C74.7252 8.59824 72.8702 8.56209 71.4578 8.6254C70.7521 8.65704 70.1579 8.71346 69.7404 8.76194C69.5316 8.78618 69.3671 8.80843 69.2549 8.82459C69.1988 8.83267 69.1558 8.83923 69.1269 8.84376C69.1124 8.84602 69.1015 8.84777 69.0942 8.84895L69.0861 8.85029L69.0835 8.85071ZM53.3949 9.92149L53.3522 9.83999C53.3096 9.75849 53.3096 9.75848 53.3096 9.75847L53.315 9.75562L53.3309 9.74735C53.3449 9.74009 53.3654 9.72944 53.3918 9.71579C53.4447 9.68851 53.5212 9.64927 53.6156 9.60137C53.8045 9.5056 54.0657 9.37516 54.3544 9.23655C54.9297 8.96042 55.622 8.64816 56.0702 8.51576L56.1223 8.69222C55.6904 8.81982 55.0108 9.12557 54.434 9.40243C54.1468 9.54032 53.8869 9.67014 53.6988 9.76549C53.6048 9.81316 53.5288 9.85219 53.4762 9.8793C53.45 9.89285 53.4296 9.90342 53.4158 9.91059L53.4002 9.91875L53.3949 9.92149ZM73.5395 9.78672L73.5242 9.69599C73.509 9.60526 73.509 9.60526 73.5091 9.60525L73.5097 9.60514L73.5116 9.60482L73.5189 9.60364C73.5253 9.60261 73.5347 9.60112 73.5471 9.59921C73.5718 9.5954 73.6083 9.58996 73.6558 9.58337C73.7507 9.57018 73.8893 9.55237 74.0652 9.53375C74.417 9.49653 74.918 9.45608 75.5157 9.44301C76.7104 9.4169 78.2953 9.50009 79.8493 9.93946L79.7992 10.1165C78.2691 9.6839 76.7041 9.60108 75.5197 9.62697C74.928 9.6399 74.4322 9.67995 74.0846 9.71673C73.9108 9.73512 73.7742 9.75268 73.6811 9.76562C73.6346 9.77208 73.599 9.77739 73.5751 9.78107C73.5632 9.78291 73.5542 9.78434 73.5482 9.7853L73.5415 9.78638L73.5399 9.78665L73.5395 9.78672ZM46.2001 10.8368C46.2 10.8367 46.2 10.8367 46.2242 10.748L46.2485 10.6592L46.2491 10.6594L46.2514 10.66L46.261 10.6626C46.2695 10.6648 46.2824 10.6682 46.2994 10.6725C46.3334 10.6811 46.3839 10.6936 46.4498 10.7088C46.5815 10.7394 46.7742 10.7811 47.0173 10.8257C47.5036 10.9148 48.1909 11.0151 48.9943 11.0596C50.6027 11.1487 52.6681 11.0136 54.5164 10.1251L54.5961 10.2909C52.7084 11.1984 50.6077 11.3333 48.9841 11.2434C48.1715 11.1983 47.4764 11.0969 46.9841 11.0067C46.738 10.9615 46.5425 10.9192 46.4082 10.8881C46.3411 10.8725 46.2893 10.8597 46.2542 10.8508C46.2366 10.8464 46.2232 10.8429 46.2141 10.8405L46.2037 10.8377L46.201 10.837L46.2003 10.8368L46.2001 10.8368ZM76.831 10.768C76.831 10.768 76.831 10.768 76.8322 10.676C76.8335 10.584 76.8335 10.584 76.8335 10.584L76.8341 10.584L76.836 10.584L76.8432 10.5842L76.8712 10.5847C76.8958 10.5851 76.932 10.5859 76.9786 10.5871C77.0718 10.5896 77.2066 10.5938 77.3734 10.6008C77.707 10.6149 78.1688 10.6402 78.6818 10.6853C79.7045 10.7754 80.9422 10.945 81.7695 11.2662L81.7029 11.4378C80.9023 11.1269 79.688 10.9586 78.6657 10.8686C78.1561 10.8238 77.6972 10.7986 77.3657 10.7847C77.1999 10.7777 77.0661 10.7735 76.9738 10.7711C76.9276 10.7699 76.8918 10.7691 76.8676 10.7686L76.8402 10.7681L76.8332 10.768L76.831 10.768ZM75.8294 15.2368L75.8762 15.316C75.9231 15.3952 75.9231 15.3952 75.923 15.3952L75.9225 15.3955L75.9211 15.3964L75.9155 15.3996C75.9105 15.4025 75.9033 15.4068 75.8938 15.4123C75.8747 15.4233 75.8467 15.4394 75.8105 15.4599C75.7381 15.5008 75.6329 15.5591 75.5016 15.6291C75.2391 15.7689 74.8716 15.9555 74.4516 16.1421C73.6156 16.5135 72.5572 16.892 71.7042 16.892V16.708C72.5153 16.708 73.5429 16.3445 74.3769 15.9739C74.7919 15.7895 75.1554 15.605 75.4151 15.4667C75.5449 15.3975 75.6487 15.3399 75.72 15.2997C75.7556 15.2795 75.7831 15.2638 75.8016 15.253C75.806 15.2505 75.81 15.2482 75.8134 15.2462C75.817 15.2441 75.8201 15.2423 75.8225 15.2409L75.8277 15.2378L75.829 15.237L75.8294 15.2368ZM89.9299 18.7157L89.8722 18.644C89.8146 18.5723 89.8146 18.5723 89.8146 18.5723L89.8151 18.5719L89.8165 18.5708L89.8217 18.5666C89.8263 18.563 89.833 18.5577 89.8419 18.5508C89.8595 18.537 89.8856 18.5169 89.9193 18.4913C89.9869 18.4403 90.0855 18.3676 90.2103 18.2804C90.4598 18.1062 90.8143 17.8739 91.2347 17.6415C92.0728 17.1782 93.1845 16.708 94.2522 16.708V16.892C93.2319 16.892 92.1537 17.3438 91.3237 17.8025C90.9102 18.0311 90.5612 18.2598 90.3157 18.4313C90.1929 18.517 90.0962 18.5884 90.0302 18.6382C89.9973 18.6631 89.972 18.6826 89.9551 18.6958C89.9506 18.6993 89.9468 18.7023 89.9435 18.7049C89.9405 18.7072 89.938 18.7092 89.936 18.7108L89.9313 18.7145L89.9302 18.7154L89.9299 18.7157Z" fill="black"/>
<path fill-rule="evenodd" clip-rule="evenodd" d="M46.7863 11.3814C46.7863 11.3814 46.7862 11.3813 46.8082 11.292C46.8303 11.2027 46.8303 11.2027 46.8303 11.2027L46.8312 11.2029L46.8342 11.2037L46.8467 11.2066C46.8578 11.2093 46.8745 11.2132 46.8964 11.2182C46.9402 11.2282 47.005 11.2425 47.0887 11.2598C47.2559 11.2945 47.4983 11.3411 47.7977 11.3885C48.3969 11.4833 49.2236 11.5814 50.1346 11.5945C51.9627 11.621 54.1031 11.305 55.4391 9.96701L55.5693 10.097C54.1774 11.491 51.9698 11.8051 50.1319 11.7785C49.2099 11.7652 48.3741 11.666 47.769 11.5702C47.4663 11.5223 47.2211 11.4752 47.0513 11.44C46.9665 11.4224 46.9004 11.4078 46.8555 11.3976C46.833 11.3925 46.8158 11.3884 46.8042 11.3857L46.7909 11.3825L46.7875 11.3817L46.7863 11.3814Z" fill="black"/>
<path fill-rule="evenodd" clip-rule="evenodd" d="M92.7346 2.57801C92.7345 2.57798 92.7344 2.57796 92.7762 2.49599C92.818 2.41403 92.818 2.41401 92.818 2.414L92.819 2.41453L92.8233 2.41665C92.8272 2.41857 92.8333 2.42152 92.8415 2.42537C92.8579 2.43307 92.8827 2.4444 92.9156 2.4585C92.9813 2.48671 93.0794 2.52597 93.2068 2.56941C93.4617 2.6563 93.834 2.75978 94.3009 2.82487C95.2344 2.95499 96.5467 2.93177 98.0574 2.31482L98.127 2.48516C96.5817 3.11621 95.236 3.14099 94.2755 3.00711C93.7955 2.9402 93.4118 2.83368 93.1474 2.74357C93.0152 2.69851 92.9128 2.65753 92.843 2.62761C92.8082 2.61264 92.7814 2.60045 92.7632 2.59188C92.7541 2.5876 92.7471 2.58423 92.7423 2.58187L92.7367 2.57911L92.7352 2.57833L92.7346 2.57801ZM94.6797 3.40568C94.6797 3.40567 94.6797 3.40566 94.7002 3.31599L94.7208 3.22632L94.7215 3.22647L94.7238 3.227L94.7333 3.22912C94.7417 3.23099 94.7545 3.23377 94.7712 3.23733C94.8046 3.24445 94.8541 3.25471 94.918 3.26714C95.0456 3.292 95.2305 3.32556 95.4587 3.36016C95.9152 3.42938 96.5441 3.50263 97.2339 3.51902C97.9241 3.53541 98.6726 3.49479 99.3695 3.33762C100.067 3.18036 100.707 2.90772 101.186 2.46446L101.311 2.59952C100.8 3.07226 100.126 3.35563 99.41 3.51711C98.6936 3.6787 97.9288 3.71957 97.2295 3.70296C96.5299 3.68635 95.893 3.6121 95.4311 3.54208C95.2001 3.50705 95.0127 3.47304 94.8828 3.44775C94.8178 3.4351 94.7673 3.42463 94.7328 3.41729C94.7156 3.41363 94.7024 3.41074 94.6935 3.40877L94.6833 3.40649L94.6807 3.40589L94.6797 3.40568ZM91.4404 2.9626C91.4404 2.96259 91.4404 2.96257 91.4882 2.88399C91.5209 2.83025 91.5313 2.81326 91.5345 2.80789L91.5361 2.8054L91.5367 2.80581L91.5392 2.8073L91.5495 2.81342C91.5587 2.81884 91.5725 2.82688 91.5905 2.83717C91.6266 2.85774 91.6797 2.88725 91.7472 2.92265C91.8822 2.99348 92.0743 3.08767 92.3021 3.18084C92.7595 3.36799 93.3526 3.54751 93.9137 3.53203L93.9188 3.71596C93.3199 3.73248 92.6989 3.54199 92.2324 3.35114C91.9982 3.25532 91.8007 3.15851 91.6617 3.08558C91.5922 3.04911 91.5372 3.01856 91.4994 2.99703C91.4805 2.98627 91.466 2.97776 91.456 2.97189L91.4446 2.96511L91.4416 2.96329L91.4407 2.96279L91.4404 2.9626ZM90.7352 3.49621C90.7352 3.4962 90.7351 3.49619 90.7802 3.41599L90.8253 3.33579L90.8255 3.3359L90.8263 3.33633L90.8296 3.3382C90.8327 3.33987 90.8372 3.3424 90.8433 3.34571C90.8555 3.35234 90.8736 3.36211 90.8971 3.37451C90.9443 3.39931 91.0131 3.43461 91.0992 3.4763C91.2717 3.55971 91.5132 3.66841 91.7894 3.76961C92.3466 3.97376 93.0263 4.14023 93.5651 4.02599L93.6033 4.20599C93.0102 4.33175 92.2879 4.14822 91.7261 3.94237C91.4428 3.83857 91.1955 3.72727 91.0191 3.64194C90.9308 3.59924 90.8602 3.56298 90.8114 3.53732C90.787 3.52448 90.7681 3.51429 90.7553 3.50727C90.7488 3.50375 90.7439 3.50103 90.7405 3.49916L90.7366 3.49701L90.7356 3.49643L90.7352 3.49621ZM93.9677 3.55412C93.9676 3.5541 93.9676 3.55409 94.0162 3.47599L94.0649 3.39789L94.0652 3.39811L94.0665 3.39889L94.0716 3.40208C94.0763 3.40493 94.0832 3.4092 94.0925 3.41481C94.1109 3.42603 94.1384 3.4426 94.1742 3.46386C94.2459 3.50638 94.3512 3.56762 94.4847 3.64224C94.7519 3.79149 95.1322 3.9941 95.5845 4.20727C96.4903 4.63426 97.6787 5.1009 98.8216 5.26897L98.7948 5.45101C97.6257 5.27908 96.4182 4.80372 95.506 4.37371C95.0492 4.15838 94.6651 3.95375 94.395 3.80287C94.2599 3.72742 94.1533 3.66538 94.0804 3.62213C94.0439 3.60051 94.0159 3.58358 93.9968 3.57202C93.9873 3.56623 93.9801 3.56179 93.9752 3.55878L93.9696 3.55533L93.9682 3.55443L93.9677 3.55412ZM90.3364 3.91812C90.3363 3.91808 90.3363 3.91805 90.4042 3.85599C90.4721 3.79393 90.4721 3.79391 90.4721 3.79385L90.4724 3.79417L90.4739 3.79584C90.4748 3.79672 90.4759 3.79788 90.4772 3.79931C90.4783 3.80047 90.4796 3.80181 90.4811 3.80333C90.4877 3.81009 90.4978 3.82031 90.5115 3.8335C90.5389 3.85986 90.5804 3.89804 90.6357 3.94402C90.7465 4.036 90.9126 4.159 91.132 4.28111C91.5704 4.52516 92.2214 4.76561 93.0703 4.74801L93.0741 4.93197C92.187 4.95037 91.5041 4.69882 91.0425 4.44188C90.8118 4.31348 90.6364 4.18373 90.5182 4.08559C90.4591 4.0365 90.4142 3.99527 90.3838 3.966C90.3686 3.95136 90.3571 3.93971 90.3491 3.93155C90.3452 3.92747 90.3421 3.92426 90.34 3.92199L90.3375 3.91929L90.3367 3.91849L90.3364 3.91812ZM93.4009 4.41891C93.4009 4.41889 93.4009 4.41888 93.4482 4.33999L93.4956 4.26111L93.4977 4.26235L93.5042 4.26626C93.5079 4.26845 93.5127 4.27132 93.5187 4.27484L93.5303 4.28168C93.5534 4.29523 93.5875 4.31515 93.6317 4.34053C93.7201 4.39128 93.8486 4.46381 94.0087 4.5507C94.3289 4.72453 94.775 4.95562 95.2788 5.18475C96.2916 5.64539 97.519 6.08927 98.4253 6.06004L98.4312 6.24394C97.4775 6.27471 96.2148 5.8126 95.2026 5.35224C94.6939 5.12086 94.2438 4.8877 93.9209 4.71241C93.7594 4.62474 93.6296 4.55149 93.5401 4.5001C93.4954 4.4744 93.4607 4.45416 93.4371 4.44032C93.4253 4.43339 93.4163 4.42807 93.4102 4.42446L93.4033 4.42034L93.4015 4.41927L93.4009 4.41891ZM89.8233 4.9083C89.8233 4.90828 89.8233 4.90827 89.8682 4.82799C89.9132 4.74771 89.9131 4.74771 89.9132 4.74771L89.9139 4.74815L89.9168 4.74974C89.9194 4.75118 89.9234 4.75337 89.9288 4.75625C89.9394 4.76201 89.9554 4.77054 89.9763 4.78138C90.0181 4.80306 90.0795 4.83401 90.1573 4.87064C90.3128 4.94396 90.5334 5.03988 90.7929 5.13009C91.3144 5.31134 91.9827 5.4658 92.595 5.37694L92.6214 5.55904C91.9657 5.65419 91.264 5.48864 90.7325 5.30389C90.4655 5.2111 90.2389 5.11252 90.0788 5.03709C89.9987 4.99935 89.9352 4.96736 89.8916 4.9447C89.8697 4.93337 89.8529 4.92437 89.8413 4.91815C89.8377 4.91619 89.8346 4.91451 89.8321 4.91312L89.8281 4.91096L89.8246 4.90903L89.8237 4.9085L89.8233 4.9083ZM92.9249 5.09349C92.9249 5.09346 92.9248 5.09344 92.9802 5.01999L93.0356 4.94653L93.0359 4.94674L93.037 4.94758L93.0418 4.95115C93.0436 4.95248 93.0458 4.95409 93.0484 4.95597C93.052 4.95862 93.0563 4.96181 93.0614 4.96551C93.0789 4.9782 93.1051 4.99694 93.1395 5.02088C93.2083 5.06876 93.31 5.13737 93.4407 5.21972C93.7021 5.38445 94.0793 5.60394 94.5411 5.82232C95.4658 6.25961 96.7243 6.68974 98.071 6.672L98.0734 6.85598C96.6881 6.87424 95.4007 6.43237 94.4624 5.98866C93.9927 5.76654 93.6091 5.54328 93.3426 5.37539C93.2094 5.29143 93.1053 5.22126 93.0344 5.17193C92.999 5.14726 92.9718 5.1278 92.9534 5.11443C92.9441 5.10774 92.9371 5.10258 92.9324 5.09904L92.9269 5.09498L92.9249 5.09349ZM89.3374 5.71666C89.3374 5.71664 89.3373 5.71663 89.3882 5.63999C89.4391 5.56336 89.4391 5.56334 89.4391 5.56333L89.4396 5.56365L89.4416 5.56498L89.4503 5.57059C89.4582 5.57561 89.4701 5.58311 89.4859 5.59274C89.5176 5.61201 89.5647 5.63981 89.6258 5.67335C89.7479 5.74044 89.9258 5.83036 90.147 5.92083C90.5901 6.102 91.2044 6.28417 91.8933 6.292L91.8912 6.47598C91.1721 6.46781 90.5343 6.27798 90.0774 6.09115C89.8487 5.99762 89.6645 5.90454 89.5372 5.83463C89.4735 5.79967 89.424 5.77047 89.3902 5.74987C89.3733 5.73956 89.3603 5.73141 89.3514 5.72575C89.347 5.72292 89.3436 5.72072 89.3412 5.71918L89.3385 5.71739L89.3377 5.71687L89.3374 5.71666ZM92.3643 5.83003C92.3642 5.82997 92.3642 5.82992 92.4322 5.76799C92.5003 5.70606 92.5002 5.70602 92.5002 5.70598L92.5006 5.70644L92.5029 5.70892C92.5052 5.71125 92.5087 5.71495 92.5136 5.71992C92.5234 5.72987 92.5387 5.74492 92.5598 5.76446C92.6018 5.80352 92.6668 5.86049 92.7569 5.93027C92.937 6.0698 93.2174 6.26063 93.6152 6.4619C94.4107 6.86432 95.6772 7.30927 97.552 7.46832L97.5364 7.65166C95.6392 7.49071 94.3497 7.03966 93.5322 6.62608C93.1235 6.41935 92.8332 6.22218 92.6442 6.07572C92.5497 6.00249 92.4805 5.94196 92.4346 5.89927C92.4116 5.87793 92.3944 5.86105 92.3828 5.84928C92.3808 5.84729 92.379 5.84544 92.3773 5.84375C92.3741 5.84043 92.3715 5.83768 92.3694 5.83553L92.3658 5.83168L92.3647 5.83053L92.3643 5.83003ZM88.6835 6.57137C88.6834 6.57134 88.6834 6.57131 88.7362 6.49599C88.789 6.42067 88.789 6.42065 88.789 6.42063L88.7892 6.42078L88.7907 6.42181C88.7922 6.4228 88.7945 6.42437 88.7977 6.4265C88.8042 6.43076 88.8141 6.43722 88.8276 6.44555C88.8545 6.46223 88.8953 6.48641 88.9497 6.51552C89.0583 6.57373 89.221 6.65159 89.4344 6.72843C89.8611 6.88207 90.4907 7.03171 91.298 7.01202L91.3025 7.19596C90.4697 7.21627 89.8174 7.06191 89.3721 6.90155C89.1494 6.82139 88.9786 6.73975 88.8628 6.67771C88.8049 6.64669 88.7607 6.62057 88.7307 6.60196C88.7157 6.59266 88.7042 6.58523 88.6963 6.58002C88.6942 6.57866 88.6924 6.57746 88.6909 6.57641C88.6894 6.57544 88.6882 6.57459 88.6871 6.57389L88.6846 6.57214L88.6835 6.57137ZM91.6587 6.73629C91.6587 6.73623 91.6586 6.73618 91.7282 6.67599C91.7978 6.61581 91.7978 6.61576 91.7977 6.61572L91.798 6.616L91.7999 6.61818C91.8019 6.62029 91.805 6.62368 91.8094 6.62829C91.8181 6.6375 91.832 6.65157 91.8512 6.66992C91.8897 6.70661 91.9499 6.7604 92.0349 6.82658C92.2049 6.95893 92.4743 7.14099 92.8674 7.33499C93.6537 7.72292 94.9365 8.15928 96.9126 8.34037L96.8958 8.52361C94.9 8.3407 93.5948 7.89906 92.786 7.49999C92.3817 7.30049 92.1018 7.1118 91.9219 6.97177C91.832 6.90177 91.7671 6.84397 91.7242 6.80311C91.7028 6.78268 91.6869 6.76649 91.6761 6.75514C91.6707 6.74946 91.6666 6.74499 91.6637 6.74181L91.6602 6.738L91.6592 6.73684L91.6587 6.73629ZM87.9871 7.42331L88.0428 7.26521L88.0436 7.26551L88.0464 7.26647L88.0575 7.27034C88.0675 7.27375 88.0822 7.27881 88.1015 7.2853C88.1401 7.29828 88.1968 7.31702 88.2687 7.33988C88.4125 7.38562 88.6171 7.44785 88.8598 7.5137C89.346 7.64558 89.9823 7.7911 90.5889 7.8484L90.5716 8.03158C89.9501 7.97288 89.3024 7.8244 88.8116 7.69128C88.5659 7.62463 88.3587 7.56161 88.2129 7.51522C88.14 7.49203 88.0823 7.47298 88.0429 7.4597C88.0231 7.45306 88.0079 7.44786 87.9976 7.4443L87.9858 7.44022L87.9828 7.43916L87.9818 7.4388C87.9817 7.43879 87.9817 7.43877 87.9871 7.42331ZM90.9763 7.58582C90.9763 7.58579 90.9763 7.58576 91.0362 7.51599C91.0962 7.44622 91.0962 7.44621 91.0962 7.4462L91.0964 7.44636L91.0972 7.44711L91.1011 7.4504C91.103 7.45196 91.1054 7.45396 91.1083 7.45637C91.1109 7.45854 91.1139 7.46105 91.1174 7.46388C91.132 7.47584 91.154 7.49361 91.1832 7.51644C91.2418 7.5621 91.3292 7.62795 91.4439 7.70788C91.6734 7.86775 92.0119 8.0838 92.4463 8.30718C93.3152 8.75403 94.5663 9.22939 96.0951 9.34425L96.0813 9.52773C94.5222 9.41059 93.2472 8.92595 92.3622 8.47081C91.9195 8.24318 91.574 8.02273 91.3388 7.85886C91.2211 7.77691 91.131 7.70907 91.07 7.66151C91.0396 7.63773 91.0164 7.61901 91.0007 7.60613C90.9928 7.59969 90.9869 7.59471 90.9828 7.59128L90.9781 7.58732L90.9763 7.58582ZM87.3346 8.12947C87.3346 8.12946 87.3346 8.12944 87.3842 8.05199C87.4339 7.97454 87.4339 7.97453 87.4338 7.97452L87.4343 7.97479L87.4361 7.97593L87.444 7.98083C87.4511 7.98522 87.4619 7.99181 87.4763 8.00032C87.5052 8.01733 87.5483 8.04201 87.6046 8.07212C87.7171 8.13235 87.8822 8.21422 88.0907 8.29989C88.508 8.47134 89.0977 8.65732 89.7881 8.71632L89.7724 8.89966C89.0588 8.83866 88.4505 8.64664 88.0208 8.47009C87.8058 8.38176 87.6351 8.29713 87.5178 8.23436C87.4591 8.20297 87.4137 8.17702 87.3828 8.15879C87.3674 8.14967 87.3555 8.14247 87.3475 8.13749L87.3381 8.1317L87.3356 8.13012L87.3349 8.12966L87.3346 8.12947ZM90.2695 8.38732C90.2695 8.38729 90.2695 8.38725 90.3322 8.31999C90.395 8.25273 90.395 8.25271 90.395 8.25269L90.3958 8.25344L90.399 8.25637C90.4019 8.25906 90.4065 8.26318 90.4127 8.26867C90.4252 8.27964 90.4441 8.29605 90.4696 8.31722C90.5205 8.35957 90.5974 8.42099 90.7003 8.49613C90.9061 8.64643 91.2157 8.85162 91.6286 9.06909C92.4543 9.50398 93.6935 9.98808 95.3429 10.1806L95.3216 10.3634C93.647 10.1679 92.3861 9.676 91.5429 9.23189C91.1213 9.00986 90.8041 8.7998 90.5918 8.64472C90.4856 8.56718 90.4056 8.50338 90.3519 8.45868C90.325 8.43633 90.3047 8.41876 90.291 8.40663C90.2841 8.40056 90.2789 8.39586 90.2753 8.3926L90.2711 8.38881L90.27 8.38775L90.2695 8.38732ZM86.6312 8.72087C86.6312 8.72085 86.6312 8.72083 86.6922 8.65199C86.7533 8.58315 86.7533 8.58314 86.7532 8.58312L86.7537 8.58352L86.7556 8.58517C86.7573 8.58668 86.76 8.58903 86.7637 8.59215C86.771 8.5984 86.7822 8.60774 86.7969 8.61975C86.8264 8.64377 86.8703 8.67842 86.9271 8.72026C87.0409 8.80398 87.2063 8.9162 87.4116 9.02942C87.8233 9.25638 88.3905 9.48451 89.0225 9.50002L89.018 9.68396C88.3459 9.66747 87.7491 9.4256 87.3228 9.19056C87.1092 9.07278 86.937 8.956 86.8181 8.86847C86.7586 8.82468 86.7123 8.78815 86.6807 8.76239C86.6726 8.75585 86.6656 8.75 86.6594 8.7449C86.6535 8.73996 86.6485 8.73572 86.6444 8.73224C86.6402 8.7287 86.6371 8.72595 86.6348 8.72403L86.6323 8.72178L86.6315 8.72114L86.6312 8.72087ZM89.3444 9.39376C89.351 9.38381 89.3637 9.36471 89.3882 9.32799L89.4393 9.25146L89.4407 9.25243L89.4457 9.25566C89.4501 9.25856 89.4568 9.26292 89.4656 9.26866C89.4834 9.28013 89.51 9.29709 89.5449 9.31881C89.6148 9.36226 89.7179 9.42473 89.8502 9.50037C90.1149 9.65167 90.4964 9.85551 90.9625 10.0651C91.8955 10.4846 93.1634 10.9252 94.5104 11.0162L94.498 11.1998C93.1211 11.1068 91.8309 10.6573 90.887 10.2329C90.4146 10.0205 90.0278 9.81381 89.7589 9.66011C89.6244 9.58325 89.5193 9.5196 89.4477 9.47504C89.4119 9.45277 89.3845 9.43526 89.3659 9.42326C89.3566 9.41726 89.3495 9.41264 89.3447 9.40949L89.3392 9.40587L89.3373 9.40464C89.3373 9.40463 89.3372 9.40454 89.3444 9.39376ZM85.976 9.55356C85.976 9.55353 85.976 9.5535 86.0362 9.48399C86.0965 9.41448 86.0965 9.41446 86.0964 9.41444L86.0967 9.41468L86.0982 9.41595C86.0996 9.41715 86.1019 9.41903 86.1049 9.42157C86.1111 9.42665 86.1205 9.43431 86.1332 9.44422C86.1584 9.46404 86.1965 9.49282 86.2466 9.52776C86.347 9.59767 86.4954 9.69213 86.6863 9.78894C87.0683 9.98263 87.6188 10.1849 88.293 10.2201L88.2834 10.4039C87.5777 10.367 87.0021 10.1554 86.6031 9.95305C86.4035 9.85185 86.2477 9.75281 86.1414 9.67872C86.0883 9.64166 86.0474 9.61081 86.0196 9.58901C86.0057 9.57811 85.9951 9.56946 85.9878 9.56342C85.9863 9.56226 85.9851 9.56119 85.9839 9.56022C85.9821 9.55868 85.9805 9.5574 85.9793 9.55637L85.977 9.5544L85.9763 9.55381L85.976 9.55356ZM48.7802 12.4116C48.7801 12.4116 48.78 12.4116 48.8082 12.324C48.8364 12.2364 48.8364 12.2364 48.8364 12.2364L48.8369 12.2366L48.839 12.2372L48.8481 12.24C48.8562 12.2425 48.8686 12.2462 48.8849 12.2509C48.9177 12.2603 48.9667 12.2738 49.0305 12.2896C49.1582 12.3214 49.3451 12.3628 49.5807 12.4011C50.0521 12.4776 50.7174 12.5411 51.4921 12.4892C53.0403 12.3854 55.0247 11.8204 56.7734 9.97275L56.907 10.0992C55.1198 11.9876 53.0881 12.5666 51.5044 12.6728C50.713 12.7258 50.0334 12.6609 49.5512 12.5827C49.3101 12.5435 49.1182 12.501 48.9861 12.4682C48.9201 12.4518 48.869 12.4378 48.8342 12.4278C48.8168 12.4228 48.8035 12.4188 48.7944 12.416L48.784 12.4128L48.7812 12.4119L48.7804 12.4117L48.7802 12.4116ZM53.0096 13.3204C53.0096 13.3204 53.0095 13.3204 52.9842 13.232L52.9589 13.1435L52.9594 13.1434L52.9612 13.1429L52.9687 13.1407C52.9754 13.1387 52.9855 13.1357 52.9987 13.1317C53.0252 13.1237 53.0644 13.1116 53.115 13.0955C53.216 13.0632 53.3621 13.0146 53.5419 12.9495C53.9016 12.8194 54.3955 12.6238 54.9318 12.3618C56.0081 11.8362 57.2409 11.0503 57.9148 10.0022L58.0696 10.1017C57.3675 11.1937 56.0964 11.9978 55.0126 12.5272C54.469 12.7927 53.9688 12.9908 53.6045 13.1226C53.4223 13.1885 53.274 13.2378 53.171 13.2708C53.1195 13.2872 53.0793 13.2996 53.052 13.3079C53.0383 13.312 53.0278 13.3151 53.0206 13.3172L53.0125 13.3196L53.0096 13.3204ZM88.5563 10.1698C88.5563 10.1698 88.5563 10.1698 88.6162 10.1C88.6762 10.0302 88.6762 10.0302 88.6761 10.0302L88.6768 10.0308L88.6798 10.0332C88.6825 10.0355 88.6868 10.0391 88.6926 10.0438C88.7042 10.0532 88.7219 10.0673 88.7459 10.0856C88.7939 10.1222 88.8667 10.1755 88.965 10.2414C89.1615 10.373 89.4598 10.5545 89.8641 10.7518C90.6725 11.1464 91.9055 11.6044 93.5976 11.853L93.5709 12.035C91.859 11.7836 90.6079 11.3196 89.7834 10.9172C89.3712 10.716 89.0657 10.5302 88.8626 10.3942C88.7611 10.3262 88.6851 10.2707 88.6343 10.2318C88.6088 10.2124 88.5896 10.1972 88.5767 10.1867C88.5702 10.1814 88.5652 10.1773 88.5618 10.1745L88.5579 10.1712L88.5563 10.1698ZM55.8767 13.3676C55.8766 13.3676 55.8766 13.3676 55.8242 13.292L55.7718 13.2164L55.7734 13.2152L55.7785 13.2117C55.7831 13.2085 55.7899 13.2038 55.7988 13.1975C55.8166 13.1849 55.843 13.1662 55.8769 13.1418C55.9448 13.0931 56.0428 13.0216 56.1633 12.9312C56.4043 12.7502 56.7347 12.4934 57.0922 12.1899C57.8098 11.5806 58.6272 10.7911 59.0567 10.0537L59.2157 10.1463C58.7692 10.9128 57.9306 11.7194 57.2113 12.3301C56.8503 12.6366 56.5169 12.8958 56.2738 13.0783C56.1522 13.1696 56.0531 13.2418 55.9843 13.2912C55.9499 13.3159 55.9231 13.335 55.9048 13.3479C55.8957 13.3543 55.8887 13.3592 55.8839 13.3625L55.8785 13.3663L55.8771 13.3673L55.8767 13.3676ZM85.2485 10.3161C85.2485 10.3161 85.2485 10.3161 85.3002 10.24C85.352 10.1639 85.352 10.1639 85.352 10.1639L85.3526 10.1643L85.3549 10.1659L85.3644 10.1722C85.3729 10.1778 85.3856 10.1861 85.4023 10.1968C85.4357 10.2181 85.4848 10.2486 85.5471 10.2853C85.6718 10.3588 85.849 10.4565 86.0584 10.5535C86.4796 10.7485 87.0212 10.9355 87.5261 10.924L87.5303 11.108C86.9832 11.1204 86.4108 10.9195 85.9811 10.7205C85.765 10.6204 85.5824 10.5197 85.4537 10.4439C85.3893 10.406 85.3384 10.3742 85.3033 10.3519C85.2858 10.3407 85.2723 10.3319 85.263 10.3258L85.2524 10.3187L85.2496 10.3168L85.2488 10.3163L85.2485 10.3161ZM87.7752 10.8891C87.7752 10.8891 87.7752 10.889 87.8402 10.824C87.9053 10.7589 87.9053 10.7589 87.9052 10.7589L87.9059 10.7596L87.9088 10.7624C87.9106 10.7641 87.9129 10.7664 87.9159 10.7692C87.9175 10.7708 87.9194 10.7725 87.9214 10.7744C87.9328 10.7852 87.9502 10.8013 87.9737 10.822C88.0206 10.8636 88.0917 10.9239 88.1872 10.9977C88.3783 11.1453 88.6671 11.3469 89.0555 11.5604C89.8323 11.9873 91.008 12.4621 92.5989 12.6486L92.5775 12.8314C90.9605 12.6418 89.7622 12.1587 88.9669 11.7216C88.5694 11.5031 88.2726 11.2962 88.0747 11.1433C87.9758 11.0669 87.9015 11.0039 87.8517 10.9598C87.8267 10.9377 87.8079 10.9203 87.7952 10.9083C87.7888 10.9023 87.784 10.8977 87.7806 10.8944L87.7768 10.8906L87.7757 10.8896L87.7752 10.8891ZM84.5735 10.9712C84.5734 10.9712 84.5734 10.9712 84.6362 10.904C84.6991 10.8368 84.699 10.8368 84.699 10.8367L84.6994 10.8371L84.7012 10.8387C84.7028 10.8402 84.7054 10.8426 84.7089 10.8457C84.7158 10.8519 84.7264 10.8612 84.7404 10.8731C84.7684 10.8969 84.8101 10.9311 84.8639 10.9717C84.9716 11.0531 85.1273 11.16 85.3189 11.2617C85.7033 11.4659 86.224 11.6451 86.7873 11.5649L86.8132 11.7471C86.1965 11.8349 85.6352 11.6381 85.2326 11.4242C85.0306 11.317 84.8666 11.2044 84.753 11.1185C84.6961 11.0755 84.6516 11.0391 84.6212 11.0133C84.606 11.0004 84.5943 10.9901 84.5863 10.9829C84.5837 10.9805 84.5814 10.9785 84.5796 10.9769L84.577 10.9745L84.5745 10.9722L84.5738 10.9715L84.5735 10.9712ZM87.1363 11.4454C87.1363 11.4453 87.1362 11.4453 87.2082 11.388C87.2802 11.3307 87.2802 11.3306 87.2801 11.3306L87.2816 11.3324C87.2831 11.3342 87.2855 11.337 87.2889 11.3409C87.2958 11.3487 87.3068 11.3609 87.3223 11.3769C87.3532 11.4089 87.4023 11.4565 87.4726 11.5165C87.6134 11.6364 87.8397 11.8059 88.1779 11.9991C88.8543 12.3856 89.9789 12.8676 91.7629 13.2379L91.7255 13.4181C89.9255 13.0444 88.7822 12.5564 88.0866 12.1589C87.7388 11.9601 87.5031 11.7841 87.3533 11.6565C87.2784 11.5927 87.2251 11.5411 87.19 11.5048C87.1724 11.4866 87.1595 11.4723 87.1506 11.4623C87.1462 11.4573 87.1429 11.4533 87.1405 11.4504L87.1376 11.447L87.1368 11.4459L87.1363 11.4454ZM83.8834 11.654C83.8906 11.6455 83.9055 11.628 83.9362 11.592C83.9959 11.522 83.9959 11.522 83.9959 11.5219L83.9962 11.5222L83.9977 11.5235L84.0044 11.529C84.0105 11.534 84.0198 11.5415 84.0323 11.5511C84.0571 11.5704 84.0943 11.5983 84.1429 11.6319C84.24 11.6993 84.3821 11.7893 84.5606 11.8793C84.9183 12.0596 85.4188 12.2379 85.9959 12.236L85.9965 12.42C85.3816 12.4221 84.8521 12.2323 84.4778 12.0436C84.2904 11.9492 84.1409 11.8545 84.0381 11.7832C83.9866 11.7475 83.9467 11.7176 83.9194 11.6965C83.9058 11.6859 83.8953 11.6775 83.8881 11.6716C83.8845 11.6687 83.8818 11.6664 83.8798 11.6648L83.8775 11.6629L83.8769 11.6623L83.8767 11.6621C83.8767 11.6621 83.8766 11.662 83.8834 11.654ZM83.3048 12.2254C83.3048 12.2254 83.3047 12.2254 83.3602 12.152C83.4157 12.0786 83.4157 12.0786 83.4157 12.0786L83.4162 12.0789L83.418 12.0804L83.426 12.0862C83.4332 12.0915 83.444 12.0993 83.4581 12.1093C83.4864 12.1293 83.5281 12.158 83.5812 12.1925C83.6875 12.2614 83.8388 12.3532 84.0186 12.4438C84.3808 12.6264 84.8482 12.7993 85.2931 12.784L85.2994 12.9679C84.8083 12.9847 84.3076 12.7956 83.9358 12.6081C83.7487 12.5138 83.5915 12.4185 83.481 12.3468C83.4257 12.3109 83.382 12.2808 83.3519 12.2596C83.3369 12.2489 83.3253 12.2405 83.3173 12.2347L83.3082 12.228L83.3057 12.2261L83.3051 12.2256L83.3048 12.2254Z" fill="black"/>
<path fill-rule="evenodd" clip-rule="evenodd" d="M98.2748 3.67953C98.2747 3.67952 98.2747 3.67952 98.2843 3.58802L98.2938 3.49651L98.2939 3.49652L98.2942 3.49656L98.2958 3.49671L98.3023 3.49735C98.3081 3.49792 98.3169 3.49875 98.3286 3.49979C98.352 3.50188 98.3869 3.50482 98.4328 3.50819C98.5245 3.51491 98.6598 3.52332 98.8333 3.52996C99.1803 3.54325 99.6799 3.54948 100.289 3.52112C101.507 3.46437 103.162 3.26925 104.908 2.71631L104.964 2.89173C103.198 3.45078 101.527 3.64766 100.298 3.70492C99.6826 3.73355 99.1777 3.72729 98.8262 3.71382C98.6505 3.70709 98.513 3.69856 98.4193 3.69169C98.3725 3.68826 98.3365 3.68524 98.3122 3.68306C98.3 3.68198 98.2908 3.6811 98.2845 3.68049L98.2773 3.67979L98.2754 3.6796L98.2749 3.67954L98.2748 3.67953Z" fill="black"/>
<path fill-rule="evenodd" clip-rule="evenodd" d="M100.354 3.69822C100.354 3.69821 100.354 3.6982 100.372 3.60801L100.39 3.51782L100.391 3.51796L100.394 3.51844L100.404 3.5204C100.413 3.52214 100.426 3.52473 100.444 3.52809C100.481 3.5348 100.536 3.54457 100.608 3.55671C100.754 3.58098 100.972 3.61471 101.259 3.65235C101.833 3.72763 102.685 3.81854 103.797 3.88065C106.02 4.00489 109.277 4.01397 113.414 3.55258L113.434 3.73544C109.287 4.19805 106.019 4.18913 103.787 4.06437C102.67 4.00198 101.813 3.91064 101.235 3.83479C100.945 3.79687 100.726 3.76282 100.578 3.7382C100.504 3.72589 100.449 3.71594 100.411 3.70904C100.392 3.70559 100.378 3.70291 100.369 3.70107L100.358 3.69897L100.355 3.69841L100.354 3.69826L100.354 3.69822ZM57.1709 13.2608C57.1709 13.2608 57.1708 13.2608 57.1202 13.184L57.0696 13.1072L57.071 13.1063L57.0754 13.1034C57.0793 13.1008 57.0852 13.0968 57.093 13.0916C57.1085 13.0811 57.1315 13.0654 57.1612 13.0449C57.2206 13.0038 57.3066 12.9431 57.4127 12.8652C57.625 12.7094 57.9172 12.4849 58.2368 12.2102C58.8777 11.6594 59.6216 10.9131 60.0555 10.1199L60.217 10.2082C59.7669 11.0309 59.0028 11.7946 58.3567 12.3498C58.0328 12.6281 57.7368 12.8556 57.5216 13.0135C57.414 13.0925 57.3266 13.1542 57.2659 13.1962C57.2356 13.2172 57.212 13.2332 57.1958 13.2441C57.1878 13.2496 57.1816 13.2537 57.1774 13.2565L57.1726 13.2597L57.1713 13.2605L57.1709 13.2608ZM58.7803 12.99C58.7803 12.99 58.7803 12.9901 58.7162 12.924L58.6522 12.858L58.6534 12.8568L58.657 12.8533L58.6712 12.8394C58.6838 12.8271 58.7023 12.8088 58.7262 12.7852C58.7738 12.7379 58.8425 12.6692 58.9265 12.5835C59.0945 12.412 59.3237 12.1727 59.5684 11.9014C60.0604 11.3559 60.6059 10.6907 60.8494 10.1879L61.015 10.2681C60.7586 10.7974 60.1961 11.4802 59.7051 12.0246C59.4582 12.2983 59.2272 12.5395 59.0579 12.7123C58.9732 12.7987 58.9039 12.868 58.8557 12.9158C58.8317 12.9397 58.8128 12.9582 58.8 12.9708L58.7854 12.9851L58.7816 12.9888L58.7806 12.9897L58.7803 12.99ZM60.3617 12.5644C60.3617 12.5644 60.3617 12.5645 60.3002 12.496L60.2388 12.4276L60.239 12.4274L60.2397 12.4268L60.2426 12.4241L60.2542 12.4136C60.2644 12.4043 60.2795 12.3904 60.2989 12.3724C60.3377 12.3363 60.3937 12.2838 60.4618 12.2179C60.5981 12.086 60.783 11.9012 60.9774 11.6889C61.3698 11.2604 61.7884 10.7338 61.9374 10.3095L62.111 10.3705C61.9481 10.8343 61.5046 11.3856 61.1131 11.8131C60.9155 12.0289 60.7279 12.2165 60.5897 12.3501C60.5206 12.417 60.4637 12.4704 60.4241 12.5072C60.4043 12.5256 60.3888 12.5398 60.3782 12.5495L60.366 12.5606L60.3629 12.5634L60.362 12.5642L60.3617 12.5644Z" fill="black"/>
<path fill-rule="evenodd" clip-rule="evenodd" d="M95.2321 3.49761C95.2321 3.49757 95.232 3.49754 95.2923 3.42799C95.3525 3.35845 95.3525 3.35842 95.3524 3.3584L95.3529 3.3588L95.3553 3.36082C95.3576 3.36271 95.3612 3.3657 95.3662 3.36973C95.3761 3.37779 95.3916 3.39002 95.4128 3.40603C95.4552 3.43806 95.5206 3.48523 95.6111 3.54444C95.7922 3.66285 96.0736 3.82946 96.4719 4.01945C97.2685 4.39942 98.5331 4.87312 100.398 5.24174L100.362 5.42225C98.4834 5.05086 97.2041 4.57256 96.3927 4.18553C95.987 3.99202 95.6984 3.82138 95.5104 3.69842C95.4164 3.63694 95.3476 3.58739 95.3019 3.55287C95.279 3.53561 95.262 3.52211 95.2504 3.51276C95.2446 3.50808 95.2402 3.50444 95.2372 3.50189L95.2336 3.49888L95.2326 3.498L95.2321 3.49761ZM97.3589 3.69601C97.3588 3.69599 97.3588 3.69597 97.4043 3.61599L97.4497 3.536L97.45 3.53613L97.4509 3.53669L97.4552 3.53908C97.4591 3.54123 97.4649 3.54448 97.4728 3.54879C97.4886 3.55739 97.5123 3.57019 97.5438 3.58669C97.6069 3.61969 97.701 3.66751 97.8244 3.7263C98.0714 3.84389 98.4357 4.00532 98.9034 4.17979C99.839 4.52878 101.188 4.92975 102.84 5.13671L102.817 5.31928C101.149 5.11023 99.7855 4.7052 98.8391 4.35219C98.3659 4.17567 97.9967 4.0121 97.7453 3.89243C97.6197 3.8326 97.5235 3.78373 97.4585 3.7497C97.426 3.73268 97.4013 3.71938 97.3846 3.71026C97.3763 3.7057 97.3699 3.7022 97.3656 3.69979L97.3607 3.69703L97.3589 3.69601ZM99.5756 3.71638C99.5756 3.71637 99.5756 3.71636 99.6123 3.63199L99.649 3.54763L99.6509 3.54845L99.657 3.5511C99.6625 3.55346 99.6709 3.557 99.6819 3.56164C99.7039 3.57092 99.7368 3.5846 99.7798 3.60208C99.8659 3.63705 99.9926 3.6872 100.154 3.74769C100.478 3.86867 100.943 4.03094 101.504 4.19571C102.628 4.52548 104.138 4.8643 105.687 4.90402L105.682 5.08796C104.111 5.04768 102.585 4.7045 101.452 4.37227C100.886 4.20605 100.417 4.04231 100.09 3.92005C99.9264 3.85891 99.7981 3.80812 99.7106 3.77256C99.6668 3.75477 99.6332 3.74079 99.6105 3.73122C99.5991 3.72644 99.5905 3.72276 99.5846 3.72025L99.578 3.71739L99.5762 3.71664L99.5756 3.71638ZM102.859 4.00145C102.859 4.00144 102.859 4.00144 102.88 3.91199L102.902 3.82255L102.902 3.82265L102.904 3.82301L102.91 3.8245C102.916 3.82583 102.924 3.82781 102.936 3.8304C102.958 3.83557 102.992 3.84318 103.036 3.85281C103.125 3.87207 103.256 3.89943 103.426 3.93168C103.764 3.99619 104.255 4.08026 104.862 4.15824C106.076 4.31424 107.754 4.44575 109.611 4.34812L109.621 4.53187C107.75 4.63023 106.06 4.49774 104.839 4.34074C104.227 4.26223 103.733 4.17755 103.391 4.11243C103.22 4.07987 103.088 4.0522 102.997 4.03263C102.952 4.02284 102.918 4.01508 102.894 4.00975C102.883 4.00709 102.874 4.00503 102.868 4.00362L102.861 4.00202L102.859 4.00145ZM58.8275 8.60722L58.7883 8.52399C58.7491 8.44077 58.7491 8.44076 58.7491 8.44074L58.7495 8.44055L58.7507 8.44001L58.755 8.43799C58.7588 8.43622 58.7644 8.43364 58.7718 8.43027C58.7866 8.42353 58.8084 8.41366 58.8371 8.40098C58.8946 8.37563 58.9794 8.33906 59.0898 8.29386C59.3105 8.20345 59.6333 8.07852 60.0428 7.93985C60.8616 7.66255 62.0277 7.3301 63.4178 7.10913L63.4467 7.29085C62.0688 7.50988 60.9129 7.83943 60.1018 8.11413C59.6963 8.25146 59.377 8.37503 59.1595 8.46413C59.0507 8.50867 58.9674 8.5446 58.9114 8.56931C58.8834 8.58167 58.8623 8.59122 58.8482 8.59765C58.8412 8.60086 58.8359 8.60329 58.8325 8.6049L58.8286 8.60669L58.8277 8.60711L58.8275 8.60722ZM63.0884 8.44061L63.0523 8.35599C63.0162 8.27138 63.0162 8.27136 63.0162 8.27135L63.0168 8.27111L63.0184 8.27044L63.0243 8.26793C63.0271 8.26676 63.0307 8.26529 63.0349 8.26354C63.0386 8.26204 63.0427 8.26033 63.0474 8.25841C63.0676 8.25014 63.0975 8.2381 63.1366 8.22287C63.2147 8.1924 63.3296 8.14914 63.4772 8.09763C63.7724 7.99461 64.1988 7.85854 64.7248 7.72579C65.7763 7.46038 67.2282 7.20768 68.8273 7.26004L68.8213 7.44394C67.2443 7.3923 65.8102 7.6416 64.7698 7.90419C64.2498 8.03544 63.8286 8.16987 63.5378 8.27135C63.3924 8.32209 63.2797 8.36458 63.2034 8.3943C63.1653 8.40916 63.1364 8.42083 63.117 8.42873C63.1125 8.43059 63.1084 8.43225 63.105 8.43368C63.1011 8.4353 63.0978 8.43664 63.0953 8.4377L63.09 8.43994L63.0887 8.44047L63.0884 8.44061ZM56.2764 9.12278L56.2363 9.03999C56.1962 8.95719 56.1962 8.95719 56.1962 8.95717L56.1982 8.95622L56.2039 8.95347L56.2262 8.94283C56.2458 8.93353 56.2747 8.91987 56.3123 8.90239C56.3874 8.86741 56.4972 8.8171 56.636 8.75557C56.9136 8.63253 57.3075 8.46456 57.7731 8.28467C58.7034 7.92527 59.9242 7.51673 61.0772 7.32524L61.1073 7.50675C59.9724 7.69525 58.7651 8.09871 57.8394 8.45631C57.3771 8.63492 56.986 8.8017 56.7105 8.92379C56.5729 8.98482 56.4641 9.03467 56.3899 9.06921C56.3528 9.08648 56.3243 9.09992 56.3052 9.10902L56.2835 9.11935L56.2781 9.12196L56.2764 9.12278ZM64.8233 8.39708C64.8233 8.39707 64.8233 8.39706 64.7883 8.31199C64.7532 8.22692 64.7533 8.22691 64.7533 8.22689L64.7538 8.22668L64.7552 8.22613L64.7601 8.22416C64.7643 8.22245 64.7706 8.21998 64.7788 8.2168C64.7952 8.21043 64.8195 8.20121 64.8516 8.18956C64.9157 8.16627 65.0108 8.13329 65.136 8.09402C65.3864 8.01549 65.7573 7.91184 66.2414 7.81045C67.2096 7.60765 68.6305 7.41387 70.446 7.44801L70.4425 7.63198C68.642 7.59812 67.2349 7.79033 66.2791 7.99054C65.8012 8.09064 65.4361 8.19275 65.191 8.26959C65.0685 8.30801 64.976 8.34012 64.9144 8.3625C64.8836 8.37369 64.8605 8.38245 64.8453 8.38835C64.8417 8.38977 64.8385 8.39102 64.8357 8.3921C64.8327 8.39327 64.8303 8.39424 64.8284 8.39501L64.8244 8.39663L64.8235 8.397L64.8233 8.39708ZM66.3564 8.46577L66.3363 8.37599C66.3162 8.28621 66.3162 8.2862 66.3163 8.28619L66.319 8.28558L66.327 8.28384C66.3339 8.28231 66.3443 8.28007 66.3579 8.27718C66.3851 8.27139 66.4253 8.26299 66.4775 8.25247C66.5819 8.23145 66.7345 8.20196 66.9279 8.168C67.3144 8.1001 67.8639 8.0143 68.5162 7.94254C69.8199 7.79914 71.5382 7.71141 73.1887 7.93684L73.1638 8.11915C71.5343 7.89658 69.8326 7.98285 68.5363 8.12544C67.8886 8.19669 67.3431 8.28188 66.9597 8.34923C66.768 8.3829 66.6169 8.4121 66.5138 8.43285C66.4623 8.44323 66.4228 8.45149 66.3962 8.45715C66.3829 8.45997 66.3729 8.46215 66.3662 8.4636L66.3587 8.46525L66.3569 8.46565L66.3564 8.46577ZM71.2292 9.11586C71.2292 9.11586 71.2292 9.11586 71.2243 9.02399C71.2215 8.97277 71.2203 8.95011 71.2198 8.94008C71.2194 8.93212 71.2194 8.93212 71.2194 8.93212L71.2308 8.93153L71.2642 8.92988C71.2935 8.92847 71.3368 8.92647 71.3928 8.9241C71.5048 8.91935 71.6677 8.91314 71.8714 8.90722C72.2788 8.89538 72.8498 8.88473 73.5044 8.88949C74.8123 8.899 76.4588 8.97002 77.8009 9.21752L77.7676 9.39847C76.4417 9.15396 74.8082 9.08298 73.5031 9.07349C72.8512 9.06875 72.2825 9.07935 71.8768 9.09114C71.6739 9.09703 71.5119 9.10322 71.4006 9.10793C71.345 9.11029 71.302 9.11227 71.273 9.11367L71.2402 9.11529L71.2292 9.11586ZM53.4238 10.3539C53.4238 10.3539 53.4239 10.3539 53.4043 10.264C53.3847 10.1741 53.3847 10.1741 53.3848 10.1741L53.3855 10.1739L53.3875 10.1735L53.3948 10.172C53.4012 10.1707 53.4106 10.1688 53.4231 10.1664C53.448 10.1616 53.4853 10.1547 53.535 10.1464C53.6346 10.1297 53.7843 10.1071 53.9866 10.083C54.3912 10.0347 55.0059 9.98036 55.8496 9.95553C57.5368 9.90588 60.1396 9.97419 63.808 10.4447L63.7846 10.6272C60.1249 10.1578 57.5317 10.0901 55.855 10.1395C55.0166 10.1641 54.4073 10.2181 54.0084 10.2657C53.809 10.2895 53.6621 10.3117 53.5654 10.3279C53.5171 10.336 53.4813 10.3425 53.4578 10.3471C53.4461 10.3493 53.4374 10.3511 53.4318 10.3522L53.4256 10.3535L53.4238 10.3539ZM75.8725 10.2079L75.8683 10.116C75.8641 10.0241 75.8641 10.0241 75.8641 10.0241L75.8663 10.024L75.8724 10.0237C75.8778 10.0235 75.8858 10.0232 75.8963 10.0228C75.9173 10.0221 75.9484 10.0212 75.9889 10.0202C76.07 10.0183 76.1891 10.0165 76.3416 10.0167C76.6466 10.0172 77.0856 10.026 77.6224 10.0592C78.6958 10.1254 80.1616 10.289 81.7304 10.6787L81.6861 10.8573C80.1309 10.471 78.6767 10.3086 77.6111 10.2428C77.0784 10.2099 76.6431 10.2012 76.3413 10.2007C76.1904 10.2005 76.0729 10.2023 75.9932 10.2042C75.9534 10.2051 75.923 10.206 75.9027 10.2067C75.8926 10.2071 75.8849 10.2074 75.8799 10.2076L75.8742 10.2078L75.8725 10.2079ZM78.2496 11.445C78.2481 11.4328 78.2454 11.4101 78.2403 11.368C78.2347 11.3217 78.2319 11.2989 78.2306 11.2876C78.2293 11.2767 78.2293 11.2766 78.2293 11.2766L78.2297 11.2766L78.2306 11.2765L78.2338 11.2761C78.2366 11.2758 78.2405 11.2754 78.2455 11.2749C78.2556 11.274 78.2702 11.2727 78.2892 11.2713C78.3272 11.2685 78.3826 11.2655 78.4536 11.2642C78.5955 11.2616 78.7999 11.2658 79.0521 11.293C79.5566 11.3474 80.2529 11.4937 81.0238 11.8609L80.9447 12.0271C80.1956 11.6702 79.52 11.5286 79.0324 11.476C78.7886 11.4497 78.592 11.4457 78.457 11.4482C78.3895 11.4494 78.3373 11.4523 78.3025 11.4548C78.285 11.4561 78.2719 11.4572 78.2633 11.4581C78.259 11.4585 78.2558 11.4588 78.2538 11.459L78.2517 11.4593L78.2513 11.4593C78.2513 11.4593 78.2513 11.4593 78.2496 11.445Z" fill="black"/>
<path fill-rule="evenodd" clip-rule="evenodd" d="M82.1874 11.0029C80.7529 12.3571 78.7902 13.8295 75.9203 15.3968L75.9032 15.4061L75.8837 15.4077C75.1397 15.4687 74.3261 15.3669 73.482 15.2349L73.5104 15.0531C74.3468 15.1839 75.1345 15.2816 75.8493 15.2259C78.698 13.6686 80.6424 12.2083 82.0611 10.8691L82.1874 11.0029Z" fill="black"/>
<path d="M59.629 59.5233C56.8311 59.143 54.1454 58.1744 51.7487 56.6815C49.352 55.1886 47.2986 53.2051 45.7236 50.8615C48.1776 52.2582 50.8996 53.1194 53.7104 53.3885C56.5212 53.6576 59.3571 53.3285 62.0315 52.4228" fill="#FDD406"/>
<path fill-rule="evenodd" clip-rule="evenodd" d="M45.4289 50.5879L45.7692 50.7815C48.2119 52.1718 50.9213 53.0291 53.7192 53.2969C56.5171 53.5648 59.3399 53.2372 62.0021 52.3356L62.0611 52.5099C59.3743 53.4198 56.5254 53.7504 53.7017 53.4801C51.0082 53.2222 48.3959 52.4231 46.021 51.1322C47.558 53.3249 49.5223 55.1862 51.7974 56.6034C54.1831 58.0895 56.8564 59.0535 59.6414 59.4322L59.6166 59.6145C56.8058 59.2324 54.1078 58.2594 51.7001 56.7596C49.2924 55.2598 47.2296 53.2672 45.6473 50.9128L45.4289 50.5879Z" fill="black"/>
<path d="M59.5122 64.2819L42.7831 58.9677L60.2038 56.8179" fill="#FDD406"/>
<path fill-rule="evenodd" clip-rule="evenodd" d="M42.3542 58.9279L60.1926 56.7266L60.2151 56.9092L43.2122 59.0075L59.5401 64.1942L59.4844 64.3696L42.3542 58.9279Z" fill="black"/>
<path d="M62.0326 52.4211C59.5611 51.0555 57.4068 49.1821 55.7114 46.9241C54.016 44.6661 52.8179 42.0747 52.196 39.3204C53.9796 41.5093 56.2066 43.2958 58.7303 44.5623C61.254 45.8287 64.0172 46.5465 66.8383 46.6682" fill="#FDD406"/>
<path fill-rule="evenodd" clip-rule="evenodd" d="M52.02 38.9588L52.2673 39.2623C54.0427 41.4412 56.2594 43.2194 58.7715 44.4801C61.2836 45.7407 64.0341 46.4551 66.8422 46.5763L66.8342 46.7601C64.0002 46.6378 61.2243 45.9168 58.689 44.6445C56.2706 43.4309 54.1235 41.742 52.3755 39.6802C53.0163 42.2801 54.1755 44.7254 55.7849 46.8689C57.4725 49.1165 59.6169 50.9813 62.077 52.3406L61.988 52.5016C59.5052 51.1298 57.3409 49.2477 55.6377 46.9793C53.9345 44.7109 52.731 42.1076 52.1062 39.3406L52.02 38.9588Z" fill="black"/>
<path d="M60.2044 56.816L46.5254 45.8166L63.546 50.106" fill="#FDD406"/>
<path fill-rule="evenodd" clip-rule="evenodd" d="M46.1397 45.6245L63.5685 50.0168L63.5235 50.1952L46.911 46.0086L60.262 56.7443L60.1467 56.8877L46.1397 45.6245Z" fill="black"/>
<path d="M66.8372 46.6692C65.0257 44.5033 63.6933 41.9783 62.9278 39.2604C62.1622 36.5425 61.9809 33.6933 62.3956 30.9003C63.2684 33.5857 64.6998 36.0558 66.5959 38.1482C68.4919 40.2406 70.8095 41.9078 73.3961 43.0401" fill="#FDD406"/>
<path fill-rule="evenodd" clip-rule="evenodd" d="M62.3622 30.4996L62.4832 30.8719C63.3519 33.5449 64.7768 36.0037 66.6641 38.0864C68.5514 40.1692 70.8583 41.8287 73.4331 42.9558L73.3593 43.1244C70.7607 41.9869 68.4325 40.312 66.5277 38.21C64.7109 36.205 63.3186 33.8546 62.4331 31.3007C62.0918 33.9566 62.2897 36.6554 63.0164 39.2354C63.7784 41.9408 65.1046 44.4542 66.9078 46.6102L66.7667 46.7282C64.9468 44.5523 63.6083 42.0157 62.8393 39.2853C62.0702 36.5549 61.888 33.6927 62.3047 30.8868L62.3622 30.4996Z" fill="black"/>
<path d="M63.5452 50.1073L54.7617 34.9102L69.0846 45.057" fill="#FDD406"/>
<path fill-rule="evenodd" clip-rule="evenodd" d="M54.4714 34.5918L69.1378 44.9819L69.0314 45.1321L55.052 35.2286L63.6249 50.0613L63.4656 50.1533L54.4714 34.5918Z" fill="black"/>
<path d="M73.3979 43.0395C72.4913 40.3654 72.1612 37.5296 72.4294 34.7187C72.6975 31.9078 73.5578 29.1855 74.9537 26.7311C74.7972 29.5504 75.2395 32.3708 76.2515 35.0069C77.2635 37.643 78.8221 40.0349 80.825 42.0253" fill="#FDD406"/>
<path fill-rule="evenodd" clip-rule="evenodd" d="M75.0671 26.3453L75.0454 26.7361C74.8897 29.5425 75.33 32.35 76.3373 34.9739C77.3446 37.5979 78.8961 39.9788 80.8897 41.96L80.76 42.0906C78.748 40.091 77.1822 37.6881 76.1655 35.0399C75.1958 32.5139 74.7468 29.8193 74.8438 27.1179C73.566 29.4711 72.7754 32.0591 72.5209 34.7274C72.2539 37.5254 72.5825 40.3481 73.485 43.01L73.3107 43.069C72.3999 40.3826 72.0683 37.5338 72.3377 34.7099C72.6071 31.8861 73.4713 29.1514 74.8736 26.6856L75.0671 26.3453Z" fill="black"/>
<path d="M69.0861 45.0559L66.3866 27.712L76.0759 42.3481" fill="#FDD406"/>
<path fill-rule="evenodd" clip-rule="evenodd" d="M66.2309 27.3102L76.1526 42.2973L75.9992 42.3989L66.5422 28.1137L69.177 45.0418L68.9951 45.0701L66.2309 27.3102Z" fill="black"/>
<path d="M80.8268 42.0254C80.9476 39.2043 81.6644 36.4408 82.93 33.9167C84.1956 31.3926 85.9814 29.165 88.1697 27.3807C87.0053 29.953 86.3987 32.7428 86.3898 35.5664C86.381 38.39 86.9702 41.1835 88.1186 43.7631" fill="#FDD406"/>
<path fill-rule="evenodd" clip-rule="evenodd" d="M88.4151 27.062L88.2536 27.4186C87.0945 29.9791 86.4907 32.7561 86.4819 35.5667C86.4731 38.3773 87.0596 41.158 88.2027 43.7257L88.0347 43.8005C86.881 41.2091 86.2891 38.4027 86.2979 35.5661C86.3063 32.8604 86.8612 30.1856 87.9277 27.7018C85.886 29.4343 84.2137 31.5619 83.0123 33.9579C81.7525 36.4705 81.0391 39.2213 80.9188 42.0293L80.735 42.0215C80.8563 39.1874 81.5764 36.4112 82.8478 33.8755C84.1193 31.3397 85.9132 29.102 88.1117 27.3094L88.4151 27.062Z" fill="black"/>
<path d="M76.0777 42.3478L79.8269 25.2L83.5737 42.3483" fill="#FDD406"/>
<path fill-rule="evenodd" clip-rule="evenodd" d="M79.827 24.7692L83.6636 42.3286L83.4838 42.3679L79.8269 25.6309L76.1676 42.3674L75.9878 42.3281L79.827 24.7692Z" fill="black"/>
<path d="M88.1172 43.7625C89.2486 41.1754 90.915 38.8573 93.0068 36.9605C95.0985 35.0638 97.5682 33.6315 100.253 32.7578C98.2384 34.736 96.6652 37.1185 95.6373 39.7484C94.6094 42.3783 94.15 45.196 94.2893 48.0162" fill="#FDD406"/>
<path fill-rule="evenodd" clip-rule="evenodd" d="M100.597 32.5492L100.318 32.8235C98.3123 34.7926 96.7463 37.1641 95.7231 39.7819C94.6999 42.3997 94.2427 45.2044 94.3814 48.0117L94.1976 48.0207C94.0576 45.1876 94.5191 42.3569 95.5518 39.7149C96.5368 37.1948 98.0202 34.9009 99.9117 32.9698C97.3821 33.8481 95.0543 35.2282 93.0687 37.0287C90.9866 38.9167 89.3278 41.2242 88.2016 43.7993L88.033 43.7256C89.1697 41.1266 90.8437 38.7978 92.9451 36.8924C95.0465 34.9869 97.5275 33.548 100.225 32.6704L100.597 32.5492Z" fill="black"/>
<path d="M83.5723 42.348L93.2611 27.7115L90.5622 45.0556" fill="#FDD406"/>
<path fill-rule="evenodd" clip-rule="evenodd" d="M93.4167 27.3097L90.6531 45.0697L90.4713 45.0414L93.1055 28.1132L83.649 42.3988L83.4955 42.2972L93.4167 27.3097Z" fill="black"/>
<path d="M94.291 48.0176C96.2807 46.0141 98.6721 44.4546 101.308 43.4418C103.944 42.4289 106.764 41.9857 109.583 42.1411C106.99 43.2577 104.662 44.9109 102.753 46.9917C100.845 49.0726 99.3984 51.534 98.5094 54.214" fill="#FDD406"/>
<path fill-rule="evenodd" clip-rule="evenodd" d="M109.979 42.0708L109.62 42.2256C107.038 43.3371 104.721 44.9826 102.821 47.0539C100.921 49.1252 99.4816 51.5753 98.5967 54.243L98.422 54.1851C99.3151 51.4927 100.768 49.0199 102.686 46.9295C104.515 44.9355 106.727 43.3325 109.188 42.2153C106.512 42.1203 103.843 42.5662 101.341 43.5277C98.7172 44.5359 96.3368 46.0882 94.3563 48.0825L94.2257 47.9528C96.2246 45.9401 98.627 44.3734 101.275 43.3559C103.923 42.3384 106.756 41.8931 109.588 42.0493L109.979 42.0708Z" fill="black"/>
<path d="M90.564 45.0566L104.887 34.9094L96.1035 50.1067" fill="#FDD406"/>
<path fill-rule="evenodd" clip-rule="evenodd" d="M105.177 34.591L96.1832 50.1528L96.0239 50.0607L104.596 35.2278L90.6172 45.1317L90.5108 44.9815L105.177 34.591Z" fill="black"/>
<path d="M98.5099 54.2159C101.089 53.0666 103.882 52.4764 106.706 52.4843C109.53 52.4921 112.32 53.0978 114.892 54.2614C112.071 54.3656 109.303 55.066 106.771 56.3167C104.24 57.5674 102.002 59.34 100.205 61.5178" fill="#FDD406"/>
<path fill-rule="evenodd" clip-rule="evenodd" d="M115.287 54.3389L114.896 54.3533C112.087 54.457 109.332 55.1543 106.812 56.3992C104.292 57.6441 102.064 59.4085 100.275 61.5763L100.133 61.4592C101.939 59.2714 104.187 57.4907 106.731 56.2342C109.156 55.0357 111.798 54.3402 114.497 54.1878C112.036 53.1324 109.386 52.5837 106.706 52.5763C103.895 52.5685 101.115 53.1559 98.5473 54.2999L98.4724 54.1318C101.063 52.9772 103.87 52.3844 106.706 52.3923C109.543 52.4002 112.346 53.0086 114.93 54.1776L115.287 54.3389Z" fill="black"/>
<path d="M96.1045 50.1083L113.126 45.8212L99.4452 56.8187" fill="#FDD406"/>
<path fill-rule="evenodd" clip-rule="evenodd" d="M113.511 45.6292L99.5029 56.8904L99.3876 56.747L112.74 46.0132L96.127 50.1975L96.0821 50.0191L113.511 45.6292Z" fill="black"/>
<path d="M100.205 61.5162C103.025 61.3759 105.843 61.8343 108.473 62.8614C111.103 63.8884 113.486 65.4608 115.465 67.4749C112.796 66.553 109.962 66.2067 107.15 66.4588C104.338 66.7108 101.61 67.5555 99.1479 68.9373" fill="#FDD406"/>
<path fill-rule="evenodd" clip-rule="evenodd" d="M115.805 67.6897L115.435 67.5619C112.778 66.6442 109.958 66.2995 107.158 66.5504C104.359 66.8013 101.644 67.6421 99.193 69.0176L99.103 68.8571C101.577 67.4689 104.316 66.6204 107.142 66.3671C109.837 66.1256 112.551 66.431 115.123 67.2635C113.209 65.3906 110.936 63.922 108.44 62.9471C105.821 61.9248 103.016 61.4684 100.209 61.6081L100.2 61.4243C103.033 61.2833 105.864 61.7439 108.506 62.7757C111.149 63.8074 113.543 65.387 115.531 67.4105L115.805 67.6897Z" fill="black"/>
<path d="M99.445 56.8172L116.866 58.9664L100.137 64.2812" fill="#FDD406"/>
<path fill-rule="evenodd" clip-rule="evenodd" d="M117.295 58.9267L100.165 64.3689L100.109 64.1935L116.437 59.0062L99.4337 56.9085L99.4562 56.7259L117.295 58.9267Z" fill="black"/>
<path d="M79.8245 82.8C91.0911 82.8 100.224 73.6666 100.224 62.4C100.224 51.1334 91.0911 42 79.8245 42C68.5579 42 59.4245 51.1334 59.4245 62.4C59.4245 73.6666 68.5579 82.8 79.8245 82.8Z" fill="#FDD406"/>
<path fill-rule="evenodd" clip-rule="evenodd" d="M79.8245 42.092C68.6087 42.092 59.5165 51.1842 59.5165 62.4C59.5165 73.6158 68.6087 82.708 79.8245 82.708C91.0403 82.708 100.133 73.6158 100.133 62.4C100.133 51.1842 91.0403 42.092 79.8245 42.092ZM59.3325 62.4C59.3325 51.0826 68.5071 41.908 79.8245 41.908C91.1419 41.908 100.317 51.0826 100.317 62.4C100.317 73.7174 91.1419 82.892 79.8245 82.892C68.5071 82.892 59.3325 73.7174 59.3325 62.4Z" fill="black"/>
<path d="M0 64.8H160V120H0V64.8Z" fill="#021455"/>
<path d="M0 69.7142V60.0828C3.80438 60.3453 7.60484 61.2322 11.3827 62.7433C18.2384 65.4856 24.9618 65.4856 31.8174 62.7433C40.9618 59.0856 50.2384 59.0856 59.3827 62.7433C66.2384 65.4856 72.9618 65.4856 79.8174 62.7433C89.0118 59.0656 98.6358 59.1237 108.44 62.689C116.181 65.5037 123.819 65.5037 131.56 62.689C141.299 59.1473 150.861 59.0665 160 62.6708V72.8413C158.871 72.5019 157.743 72.107 156.617 71.6567C149.812 68.9345 142.636 68.8764 134.84 71.711C124.981 75.2964 115.019 75.2964 105.16 71.711C97.3643 68.8764 90.1884 68.9345 83.3827 71.6567C74.2384 75.3145 64.9618 75.3145 55.8174 71.6567C48.9618 68.9145 42.2384 68.9145 35.3827 71.6567C26.2384 75.3145 16.9618 75.3145 7.81738 71.6567C5.19719 70.6086 2.59632 69.9611 0 69.7142Z" fill="white"/>
<path d="M0 88.9142V79.2828C3.80438 79.5453 7.60484 80.4322 11.3827 81.9433C18.2384 84.6856 24.9618 84.6856 31.8174 81.9433C40.9618 78.2856 50.2384 78.2856 59.3827 81.9433C66.2384 84.6856 72.9618 84.6856 79.8174 81.9433C89.0118 78.2656 98.6358 78.3237 108.44 81.889C116.181 84.7037 123.819 84.7037 131.56 81.889C141.299 78.3473 150.861 78.2665 160 81.8708V92.0413C158.871 91.7018 157.743 91.307 156.617 90.8567C149.812 88.1345 142.636 88.0764 134.84 90.911C124.981 94.4964 115.019 94.4964 105.16 90.911C97.3643 88.0764 90.1884 88.1345 83.3827 90.8567C74.2384 94.5145 64.9618 94.5145 55.8174 90.8567C48.9618 88.1145 42.2384 88.1145 35.3827 90.8567C26.2384 94.5145 16.9618 94.5145 7.81738 90.8567C5.19719 89.8086 2.59632 89.1611 0 88.9142Z" fill="white"/>
<path d="M0 108.114V98.4828C3.80438 98.7453 7.60484 99.6322 11.3827 101.143C18.2384 103.886 24.9618 103.886 31.8174 101.143C40.9618 97.4856 50.2384 97.4856 59.3827 101.143C66.2384 103.886 72.9618 103.886 79.8174 101.143C89.0118 97.4656 98.6358 97.5237 108.44 101.089C116.181 103.904 123.819 103.904 131.56 101.089C141.299 97.5473 150.861 97.4665 160 101.071V111.241C158.871 110.902 157.743 110.507 156.617 110.057C149.812 107.334 142.636 107.276 134.84 110.111C124.981 113.696 115.019 113.696 105.16 110.111C97.3643 107.276 90.1884 107.334 83.3827 110.057C74.2384 113.714 64.9618 113.714 55.8174 110.057C48.9618 107.314 42.2384 107.314 35.3827 110.057C26.2384 113.714 16.9618 113.714 7.81738 110.057C5.19719 109.009 2.59632 108.361 0 108.114Z" fill="white"/>
</g>
<defs>
<clipPath id="clip0_307_65713">
<rect width="160" height="120" fill="white"/>
</clipPath>
</defs>
</svg>
