<svg width="160" height="120" viewBox="0 0 160 120" fill="none" xmlns="http://www.w3.org/2000/svg">
<g clip-path="url(#clip0_307_65769)">
<path d="M0 0H160V120H0V0Z" fill="white"/>
<path d="M0 0H160V30H0V0Z" fill="#FDD406"/>
<path d="M0 60H160V120H0V60Z" fill="#D91C16"/>
<path d="M0 90H160V120H0V90Z" fill="#0F3296"/>
<path d="M80 60L0 120V0L80 60Z" fill="#1E9A1C"/>
<path d="M40.0606 34.9391C33.9731 35.6711 28.3648 38.6083 24.2962 43.1953C20.2277 47.7823 17.9811 53.7011 17.9811 59.8325C17.9811 65.9639 20.2277 71.8827 24.2962 76.4697C28.3648 81.0567 33.9731 83.9939 40.0606 84.7259C36.224 85.7896 32.1935 85.9522 28.2837 85.2008C24.374 84.4495 20.6908 82.8047 17.5218 80.3947C14.3527 77.9848 11.7836 74.875 10.015 71.3081C8.2464 67.7412 7.32617 63.8138 7.32617 59.8325C7.32617 55.8512 8.2464 51.9238 10.015 48.3569C11.7836 44.79 14.3527 41.6802 17.5218 39.2703C20.6908 36.8603 24.374 35.2155 28.2837 34.4642C32.1935 33.7128 36.224 33.8754 40.0606 34.9391Z" fill="white"/>
<path d="M40.0605 37.7989L41.2547 41.4732H45.1206L41.9933 43.7458L43.1877 47.4207L40.062 45.1493L36.9363 47.4207L38.1298 43.7451L35.0034 41.4732H38.8674L40.0605 37.7989Z" fill="white"/>
<path d="M41.2547 52.8699L40.0605 49.1956L38.8674 52.8699H35.0034L38.1298 55.1418L36.9363 58.8174L40.062 56.546L43.1877 58.8174L41.9933 55.1425L45.1206 52.8699H41.2547Z" fill="white"/>
<path d="M40.0605 60.5923L41.2547 64.2666H45.1206L41.9933 66.5392L43.1877 70.2141L40.062 67.9427L36.9363 70.2141L38.1298 66.5385L35.0034 64.2666H38.8674L40.0605 60.5923Z" fill="white"/>
<path d="M41.2547 75.6633L40.0605 71.989L38.8674 75.6633H35.0034L38.1298 77.9352L36.9363 81.6108L40.062 79.3393L43.1877 81.6108L41.9933 77.9359L45.1206 75.6633H41.2547Z" fill="white"/>
</g>
<defs>
<clipPath id="clip0_307_65769">
<rect width="160" height="120" fill="white"/>
</clipPath>
</defs>
</svg>
