<svg width="160" height="120" viewBox="0 0 160 120" fill="none" xmlns="http://www.w3.org/2000/svg">
<g clip-path="url(#clip0_909_222447)">
<path d="M0 120L0 0L160 0L0 120Z" fill="#1E9A1C"/>
<path d="M160 0V120L0 120L160 0Z" fill="#D91C16"/>
<path d="M119.618 0L160 0V30.2866L40.3822 120H0L0 89.7134L119.618 0Z" fill="#FDD406"/>
<path d="M131.024 0.0983887L159.868 0.0983887V21.7317L28.7124 120.098H-0.13208L-0.13208 98.4651L131.024 0.0983887Z" fill="black"/>
<path d="M104.166 22.8606L114.149 29.8852L123.913 22.5627L120.318 34.2258L130.301 41.2502L118.096 41.4354L114.5 53.1L110.553 41.5499L98.3489 41.7352L108.114 34.4117L104.166 22.8606Z" fill="white"/>
<path d="M37.6 72.7807L47.583 79.8052L57.3466 72.4827L53.7517 84.1458L63.7345 91.1702L51.5295 91.3555L47.9341 103.02L43.9869 91.47L31.7826 91.6553L41.5475 84.3318L37.6 72.7807Z" fill="white"/>
</g>
<defs>
<clipPath id="clip0_909_222447">
<rect width="160" height="120" fill="white"/>
</clipPath>
</defs>
</svg>
