<svg width="160" height="120" viewBox="0 0 160 120" fill="none" xmlns="http://www.w3.org/2000/svg">
<g clip-path="url(#clip0_307_65800)">
<path d="M0 0H160V120H0V0Z" fill="#54AEF2"/>
<path d="M89.6564 32.052C90.6164 32.04 90.9764 31.44 90.9764 30.72C90.9764 29.76 89.6564 25.188 89.6564 25.188C89.6564 25.188 88.3364 29.76 88.3364 30.72C88.3364 31.44 88.6964 32.052 89.6564 32.052Z" fill="#FDD406"/>
<path d="M89.6564 66.546C98.5736 66.546 105.802 59.3172 105.802 50.4C105.802 41.4828 98.5736 34.254 89.6564 34.254C80.7392 34.254 73.5104 41.4828 73.5104 50.4C73.5104 59.3172 80.7392 66.546 89.6564 66.546Z" fill="#FDD406"/>
<path d="M109.336 51.72C108.616 51.72 108.016 51.36 108.004 50.4C108.004 49.44 108.616 49.08 109.336 49.08C110.296 49.08 114.868 50.4 114.868 50.4C114.868 50.4 110.296 51.72 109.336 51.72Z" fill="#FDD406"/>
<path d="M89.6564 68.748C88.6964 68.76 88.3364 69.36 88.3364 70.08C88.3364 71.04 89.6564 75.612 89.6564 75.612C89.6564 75.612 90.9764 71.04 90.9764 70.08C90.9764 69.36 90.6164 68.748 89.6564 68.748Z" fill="#FDD406"/>
<path d="M69.9764 49.08C70.6964 49.08 71.2964 49.44 71.3084 50.4C71.3084 51.36 70.6964 51.72 69.9764 51.72C69.0164 51.72 64.4444 50.4 64.4444 50.4C64.4444 50.4 69.0164 49.08 69.9764 49.08Z" fill="#FDD406"/>
<path d="M96.6779 33.4487C97.5694 33.805 98.1316 33.3884 98.4071 32.7232C98.7745 31.8363 99.3046 27.1072 99.3046 27.1072C99.3046 27.1072 96.3354 30.826 95.9681 31.7129C95.6925 32.3781 95.7909 33.0813 96.6779 33.4487Z" fill="#FDD406"/>
<path d="M107.333 59.1507C106.668 58.8752 106.251 58.313 106.608 57.4215C106.975 56.5346 107.678 56.4362 108.343 56.7117C109.23 57.0791 112.949 60.0482 112.949 60.0482C112.949 60.0482 108.22 59.5181 107.333 59.1507Z" fill="#FDD406"/>
<path d="M82.6349 67.3513C81.7434 66.9951 81.1812 67.4116 80.9056 68.0768C80.5383 68.9637 80.0082 73.6929 80.0082 73.6929C80.0082 73.6929 82.9773 69.974 83.3447 69.0871C83.6202 68.4219 83.5218 67.7187 82.6349 67.3513Z" fill="#FDD406"/>
<path d="M71.9796 41.6493C72.6448 41.9248 73.0613 42.487 72.705 43.3785C72.3377 44.2655 71.6345 44.3638 70.9693 44.0883C70.0824 43.7209 66.3635 40.7518 66.3635 40.7518C66.3635 40.7518 71.0926 41.2819 71.9796 41.6493Z" fill="#FDD406"/>
<path d="M102.63 37.426C103.318 38.0963 103.997 37.9266 104.506 37.4175C105.184 36.7387 107.484 32.5724 107.484 32.5724C107.484 32.5724 103.318 34.8719 102.639 35.5508C102.13 36.0599 101.952 36.7472 102.63 37.426Z" fill="#FDD406"/>
<path d="M102.639 65.2492C102.13 64.7401 101.96 64.0613 102.63 63.374C103.309 62.6952 103.997 62.8734 104.506 63.3825C105.184 64.0613 107.484 68.2276 107.484 68.2276C107.484 68.2276 103.318 65.9281 102.639 65.2492Z" fill="#FDD406"/>
<path d="M76.6824 63.374C75.9951 62.7037 75.3162 62.8734 74.8071 63.3825C74.1283 64.0613 71.8288 68.2276 71.8288 68.2276C71.8288 68.2276 75.9951 65.9281 76.6739 65.2492C77.183 64.7401 77.3612 64.0528 76.6824 63.374Z" fill="#FDD406"/>
<path d="M76.6739 35.5508C77.183 36.0599 77.3527 36.7387 76.6824 37.426C76.0036 38.1048 75.3162 37.9266 74.8071 37.4175C74.1283 36.7387 71.8288 32.5724 71.8288 32.5724C71.8288 32.5724 75.9951 34.8719 76.6739 35.5508Z" fill="#FDD406"/>
<path d="M106.608 43.3785C106.986 44.2609 107.678 44.3638 108.343 44.0883C109.23 43.7209 112.949 40.7518 112.949 40.7518C112.949 40.7518 108.22 41.2819 107.333 41.6493C106.668 41.9248 106.24 42.4916 106.608 43.3785Z" fill="#FDD406"/>
<path d="M95.9681 69.0871C95.6925 68.4219 95.7955 67.7298 96.6779 67.3513C97.5648 66.984 98.1316 67.4116 98.4071 68.0768C98.7745 68.9637 99.3046 73.6929 99.3046 73.6929C99.3046 73.6929 96.3354 69.974 95.9681 69.0871Z" fill="#FDD406"/>
<path d="M72.705 57.4215C72.3266 56.5391 71.6345 56.4362 70.9693 56.7117C70.0824 57.0791 66.3635 60.0482 66.3635 60.0482C66.3635 60.0482 71.0926 59.5181 71.9796 59.1507C72.6448 58.8752 73.0724 58.3084 72.705 57.4215Z" fill="#FDD406"/>
<path d="M83.3447 31.7129C83.6202 32.3781 83.5172 33.0702 82.6349 33.4487C81.748 33.816 81.1812 33.3884 80.9056 32.7232C80.5383 31.8363 80.0082 27.1072 80.0082 27.1072C80.0082 27.1072 82.9773 30.826 83.3447 31.7129Z" fill="#FDD406"/>
<path d="M93.2359 32.4046C94.1798 32.5801 94.6499 32.0618 94.7904 31.3557C94.9777 30.4141 94.575 25.6724 94.575 25.6724C94.575 25.6724 92.3884 29.8991 92.2011 30.8406C92.0606 31.5468 92.2943 32.2173 93.2359 32.4046Z" fill="#FDD406"/>
<path d="M108.701 55.534C107.995 55.3936 107.476 54.9234 107.652 53.9795C107.839 53.038 108.51 52.8043 109.216 52.9447C110.157 53.132 114.384 55.3186 114.384 55.3186C114.384 55.3186 109.642 55.7213 108.701 55.534Z" fill="#FDD406"/>
<path d="M86.0769 68.3954C85.133 68.2199 84.6628 68.7382 84.5224 69.4443C84.3351 70.3859 84.7378 75.1276 84.7378 75.1276C84.7378 75.1276 86.9243 70.9009 87.1116 69.9594C87.2521 69.2532 87.0184 68.5827 86.0769 68.3954Z" fill="#FDD406"/>
<path d="M70.612 45.266C71.3182 45.4065 71.8364 45.8766 71.6609 46.8205C71.4736 47.762 70.8032 47.9957 70.097 47.8553C69.1554 47.668 64.9288 45.4814 64.9288 45.4814C64.9288 45.4814 69.6705 45.0787 70.612 45.266Z" fill="#FDD406"/>
<path d="M99.85 35.1442C100.655 35.6676 101.288 35.3687 101.688 34.77C102.221 33.9718 103.663 29.437 103.663 29.437C103.663 29.437 100.026 32.5051 99.4925 33.3033C99.0924 33.902 99.0518 34.6109 99.85 35.1442Z" fill="#FDD406"/>
<path d="M105.286 62.4312C104.688 62.0312 104.389 61.3985 104.912 60.5936C105.446 59.7954 106.154 59.8361 106.753 60.2361C107.551 60.7694 110.619 64.407 110.619 64.407C110.619 64.407 106.085 62.9645 105.286 62.4312Z" fill="#FDD406"/>
<path d="M79.4628 65.6558C78.6579 65.1324 78.0252 65.4313 77.6252 66.03C77.0919 66.8282 75.6493 71.363 75.6493 71.363C75.6493 71.363 79.2869 68.2949 79.8203 67.4967C80.2203 66.898 80.261 66.1892 79.4628 65.6558Z" fill="#FDD406"/>
<path d="M74.0264 38.3688C74.6251 38.7689 74.9239 39.4015 74.4006 40.2064C73.8672 41.0046 73.1584 40.9639 72.5597 40.5639C71.7615 40.0306 68.6934 36.393 68.6934 36.393C68.6934 36.393 73.2282 37.8355 74.0264 38.3688Z" fill="#FDD406"/>
<path d="M104.912 40.2064C105.456 40.9979 106.154 40.9639 106.753 40.5639C107.551 40.0306 110.619 36.393 110.619 36.393C110.619 36.393 106.085 37.8355 105.286 38.3688C104.688 38.7689 104.379 39.4082 104.912 40.2064Z" fill="#FDD406"/>
<path d="M99.4925 67.4967C99.0924 66.898 99.0584 66.1991 99.85 65.6558C100.648 65.1225 101.288 65.4313 101.688 66.03C102.221 66.8282 103.663 71.363 103.663 71.363C103.663 71.363 100.026 68.2949 99.4925 67.4967Z" fill="#FDD406"/>
<path d="M74.4006 60.5936C73.8572 59.8021 73.1584 59.8361 72.5597 60.2361C71.7615 60.7694 68.6934 64.407 68.6934 64.407C68.6934 64.407 73.2282 62.9645 74.0264 62.4312C74.6251 62.0312 74.9339 61.3918 74.4006 60.5936Z" fill="#FDD406"/>
<path d="M79.8203 33.3033C80.2203 33.902 80.2543 34.6009 79.4628 35.1442C78.6646 35.6775 78.0252 35.3687 77.6252 34.77C77.0919 33.9718 75.6493 29.437 75.6493 29.437C75.6493 29.437 79.2869 32.5051 79.8203 33.3033Z" fill="#FDD406"/>
<path d="M107.652 46.8205C107.851 47.7597 108.51 47.9957 109.216 47.8553C110.157 47.668 114.384 45.4814 114.384 45.4814C114.384 45.4814 109.642 45.0787 108.701 45.266C107.995 45.4065 107.465 45.8789 107.652 46.8205Z" fill="#FDD406"/>
<path d="M92.2011 69.9594C92.0606 69.2532 92.2967 68.5945 93.2359 68.3955C94.1774 68.2082 94.6499 68.7382 94.7904 69.4443C94.9777 70.3859 94.575 75.1276 94.575 75.1276C94.575 75.1276 92.3884 70.9009 92.2011 69.9594Z" fill="#FDD406"/>
<path d="M71.6609 53.9795C71.4619 53.0403 70.8032 52.8043 70.097 52.9447C69.1554 53.132 64.9288 55.3186 64.9288 55.3186C64.9288 55.3186 69.6705 55.7213 70.612 55.534C71.3182 55.3936 71.8482 54.9211 71.6609 53.9795Z" fill="#FDD406"/>
<path d="M87.1116 30.8406C87.2521 31.5468 87.0161 32.2055 86.0769 32.4046C85.1353 32.5918 84.6628 32.0618 84.5224 31.3557C84.3351 30.4141 84.7378 25.6724 84.7378 25.6724C84.7378 25.6724 86.9243 29.8991 87.1116 30.8406Z" fill="#FDD406"/>
<path d="M86.7758 85.376C86.3438 85.4 85.9238 85.456 85.5117 85.588C85.2093 85.6287 84.9138 85.704 84.6185 85.7792C84.3631 85.8443 84.1074 85.9094 83.8478 85.952L83.6237 85.988L83.2478 86.024C83.2718 86.128 83.2878 86.232 83.2878 86.336C83.2878 86.444 83.2758 86.548 83.2478 86.636C83.2238 86.72 83.1477 86.824 83.0877 86.888C83.0078 86.976 82.9238 87.052 82.8237 87.1C82.7277 87.148 82.6197 87.168 82.5117 87.176C82.4037 87.18 82.2917 87.176 82.1877 87.136C82.0797 87.1 81.9798 87.032 81.8877 86.952C81.7772 86.9794 81.6649 86.9994 81.5517 87.012C81.4398 87.024 81.3357 87.024 81.2358 87.012C81.1238 86.98 81.0078 86.944 80.8998 86.9C80.791 86.855 80.6866 86.8 80.5878 86.736L80.5418 86.7629L80.5033 86.7852L80.4481 86.8171C80.0795 87.0299 79.6958 87.2514 79.4757 87.624C79.339 87.8116 79.3091 88.0259 79.278 88.2483L79.2758 88.264C79.2558 88.544 79.3278 88.84 79.4478 89.1C79.467 89.1332 79.4848 89.0845 79.51 89.0152C79.5424 88.9262 79.5873 88.803 79.6638 88.776C79.8918 88.588 80.1758 88.452 80.4638 88.376C80.7078 88.252 80.6757 88.384 80.5758 88.576C80.5718 88.5926 80.5647 88.6169 80.5565 88.6451C80.5154 88.7865 80.4464 89.0241 80.5998 88.864C81.4118 88.504 82.3118 88.432 83.1878 88.364C84.4598 88.232 85.7358 88.204 87.0117 88.188L90.6117 88.264C90.8024 88.2693 90.9935 88.2871 91.1845 88.3049C91.5663 88.3405 91.9479 88.3759 92.3237 88.312C92.3649 88.3011 92.413 88.2927 92.4623 88.2842C92.5759 88.2646 92.696 88.2438 92.7518 88.188C92.543 88.0673 92.3049 88.0424 92.0703 88.0177C92.0171 88.0122 91.9642 88.0066 91.9118 88H89.6237C89.4984 87.9874 89.372 87.9769 89.2452 87.9665C88.7286 87.9238 88.2055 87.8807 87.7238 87.688C87.6871 87.6733 87.6511 87.654 87.6155 87.635C87.4957 87.5709 87.3809 87.5095 87.2637 87.636C87.0357 87.716 86.7918 87.772 86.5518 87.788C86.1318 87.82 85.7118 87.732 85.3238 87.576C85.5151 87.3108 85.7327 87.068 85.9496 86.8259C86.05 86.7138 86.1503 86.6019 86.2478 86.488C85.9998 86.448 85.7598 86.396 85.5117 86.336C85.7929 86.1426 86.0607 85.9325 86.3292 85.7218C86.4771 85.6058 86.6252 85.4897 86.7758 85.376Z" fill="#FDD406"/>
<path d="M103.855 89.2131C104.352 89.546 104.858 89.8849 105.464 89.5212C105.849 89.2398 105.902 88.7552 105.953 88.2913C105.971 88.1279 105.989 87.9671 106.021 87.8188C105.922 87.2143 106.16 87.4092 106.495 87.6836C106.761 87.902 107.089 88.1707 107.358 88.1272C108.627 88.566 110.203 87.5682 109.983 86.1472C108.793 86.1045 107.607 85.9766 106.422 85.8488C104.703 85.6634 102.984 85.478 101.252 85.5527C101.148 85.5634 101.044 85.5698 100.942 85.576C100.406 85.6087 99.9439 85.6368 100.008 86.2856C99.948 86.5826 99.6111 86.6863 99.323 86.7751C99.0199 86.8684 98.7708 86.9451 98.9541 87.2125C99.2863 87.7558 98.5779 88.1255 98.0556 88.3981C97.943 88.4569 97.839 88.5112 97.7559 88.5617C95.9392 89.2432 94.016 89.2297 92.0917 89.2162C90.9478 89.2082 89.8035 89.2001 88.6811 89.3381C86.9311 89.4866 84.8503 90.1549 84.3523 92.0597C85.3514 92.3256 86.2247 91.7197 87.0438 91.1515C87.2722 90.993 87.4967 90.8373 87.7183 90.7044C87.8533 90.7771 87.8317 91.0345 87.8066 91.3328C87.775 91.71 87.7378 92.1526 88.0051 92.3692C88.8489 92.3031 89.4349 91.5121 89.9439 90.825C90.0322 90.7057 90.1183 90.5896 90.2029 90.481C90.4512 90.7629 90.3862 91.1209 90.323 91.4697C90.2626 91.8024 90.2038 92.1269 90.4196 92.3692C91.1593 92.4389 91.6187 91.898 92.0734 91.3626C92.3187 91.0738 92.5627 90.7865 92.8487 90.5975C93.1254 90.5507 93.0633 90.8608 92.9906 91.2237C92.9199 91.5766 92.8393 91.9796 93.0508 92.1525C93.8342 92.4847 94.644 91.9264 94.8962 91.1674C95.2638 90.0943 95.6024 90.8887 95.7438 91.5643C96.2005 92.3295 97.0825 91.6085 97.4137 91.1018C97.7214 90.3167 98.0226 90.6487 98.3817 91.0444C98.4967 91.1711 98.6175 91.3043 98.7464 91.4095C99.5084 91.5298 99.9147 90.9571 100.314 90.394C100.503 90.1278 100.691 89.8637 100.913 89.676C100.86 90.3274 101.571 91.1721 102.152 90.5118C102.376 90.305 102.507 89.9918 102.634 89.6871C102.782 89.3336 102.925 88.9916 103.204 88.8402C103.424 88.9244 103.639 89.0682 103.855 89.2131Z" fill="#FDD406"/>
<path d="M81.862 86.5192C81.4482 86.7995 81.0647 87.0593 80.5757 86.6117C80.5725 86.4436 80.5895 86.2679 80.6684 86.1163C81.2825 85.3185 82.237 84.9994 83.1845 84.6827C83.6446 84.5289 84.1032 84.3756 84.5202 84.1684C86.3094 83.6006 87.5118 82.25 88.7165 80.8969C89.4285 80.0972 90.1412 79.2966 90.9764 78.6562C91.5102 78.4658 92.0843 78.4262 92.6606 78.3864C93.0861 78.3571 93.5127 78.3276 93.9251 78.2374C97.5338 77.7122 101.081 76.5539 104.257 74.7571C111.192 70.7587 116.495 63.8467 118.055 55.9435C117.887 55.1431 119.193 54.7952 119.381 55.6039C119.708 57.0756 119.423 58.586 119.144 60.0626C119.079 60.4016 119.016 60.7389 118.96 61.0735C119.952 59.6346 120.374 57.9417 120.794 56.2599C120.937 55.6848 121.08 55.111 121.246 54.5491C121.348 54.3613 121.394 54.1098 121.441 53.856C121.529 53.3782 121.619 52.8923 122.086 52.8085C122.989 52.6844 123.122 53.6632 123.127 54.3277C123.09 57.5556 121.571 60.5347 120.105 63.3332C121.25 62.3868 122.074 61.1602 122.897 59.9357C123.278 59.3686 123.659 58.8015 124.071 58.2632C124.46 57.5233 125.394 56.9573 126.141 57.5756C126.484 58.1705 126.105 58.8021 125.757 59.3836C125.634 59.5877 125.516 59.7856 125.433 59.9736C123.951 62.4072 122.252 64.7552 120.198 66.7382C121.854 65.9569 123.135 64.643 124.404 63.3417C124.779 62.9573 125.153 62.574 125.535 62.2058C125.865 61.5725 127.131 61.6597 127.039 62.4665C125.256 65.2637 122.775 67.5648 120.167 69.5861C121.032 69.85 121.768 69.3839 122.499 68.9213C122.886 68.676 123.272 68.4317 123.674 68.2979C124.558 67.8662 124.183 69.0662 123.906 69.4645C123.1 70.6911 121.848 71.451 120.602 72.2068C120.041 72.5473 119.481 72.887 118.965 73.2682C117.99 73.6247 118.386 74.0354 119.244 73.886C119.302 73.8837 119.379 73.8775 119.468 73.8704C120.023 73.8258 121.023 73.7457 120.476 74.3532C119.629 74.9738 118.62 75.2415 117.61 75.5093C116.962 75.681 116.315 75.8528 115.709 76.1177C116.143 76.2714 116.613 76.2736 117.079 76.2758C117.595 76.2782 118.107 76.2806 118.557 76.4892C117.786 77.0872 116.818 77.2817 115.864 77.4735C115.517 77.5433 115.171 77.6127 114.838 77.701C113.849 77.7979 113.789 78.0595 114.815 78.1435C114.941 78.1753 115.13 78.1863 115.333 78.1981C115.82 78.2264 116.386 78.2593 116.359 78.5941C115.755 78.7999 115.109 78.8701 114.462 78.9404C113.539 79.0406 112.615 79.1409 111.814 79.6353C111.863 79.8952 112.419 80.079 112.89 80.2346C113.052 80.2884 113.205 80.3388 113.322 80.3878C113.957 80.6031 113.438 80.8574 112.908 81.1172C112.624 81.2559 112.338 81.3961 112.223 81.5328C109.707 83.134 106.674 83.6804 103.73 83.4541C106.087 83.2183 108.287 82.1873 110.162 80.7701C110.946 80.5034 110.74 79.8524 110.547 79.2409L110.546 79.2395C110.534 79.1995 110.521 79.1598 110.509 79.1203C111.168 79.1766 111.975 79.0553 112.352 78.4867C111.357 77.9177 112.143 77.5924 112.893 77.4179C113.284 77.2789 114.3 76.8546 113.604 76.4273C113.669 75.9681 114.148 75.7676 114.606 75.5759C114.816 75.4883 115.021 75.4026 115.18 75.2948C116.115 74.962 116.011 74.7664 115.09 74.601C115.692 74.0754 116.38 73.6795 117.069 73.2833C117.521 73.023 117.974 72.7625 118.402 72.4651C119.088 72.1361 118.202 71.9961 117.623 71.9047C117.486 71.883 117.366 71.8641 117.288 71.846C117.473 71.6457 117.699 71.4534 117.93 71.2574C118.609 70.68 119.327 70.0696 119.145 69.1221C118.775 69.109 118.434 69.2236 118.093 69.3382C117.781 69.4431 117.468 69.548 117.133 69.5554C117.99 68.7 118.7 67.6038 118.774 66.367C117.736 66.1378 116.641 66.4264 115.724 66.9276C113.785 68.0774 112.146 69.7607 110.943 71.6603C110.716 72.3035 110.443 72.8861 109.735 73.106C108.911 73.5621 108.044 73.973 107.175 74.3853C104.72 75.5494 102.24 76.7255 100.603 78.9656C99.2002 79.3557 97.7571 79.5329 96.3138 79.7101C94.7643 79.9004 93.2146 80.0907 91.7138 80.5445C90.5674 80.7736 89.7345 81.5327 88.9056 82.2881C88.6601 82.5119 88.415 82.7353 88.1622 82.9445C86.337 84.2188 84.4856 85.4943 82.3639 86.2246C82.371 86.2238 82.3781 86.2231 82.3853 86.2228C82.3901 86.2225 82.3949 86.2224 82.3998 86.2224C82.5566 86.2224 82.6838 86.3496 82.6838 86.5064C82.6838 86.6633 82.5566 86.7905 82.3998 86.7905C82.2429 86.7905 82.1157 86.6633 82.1157 86.5064C82.1157 86.4277 82.1477 86.3565 82.1995 86.3051C82.0832 86.3694 81.9715 86.445 81.862 86.5192Z" fill="#FDD406"/>
<path d="M89.0957 78.594C88.9399 78.8768 88.8079 79.1754 88.6759 79.4739C88.452 79.9801 88.2282 80.4862 87.8885 80.9156C86.4143 79.5743 84.3387 79.49 82.4272 79.4125C82.2318 79.4045 82.0381 79.3967 81.8469 79.3876C80.1456 79.2967 78.2956 79.1398 76.9793 77.9264C76.4539 77.496 75.965 77.0169 75.4762 76.5377C74.6768 75.7541 73.8772 74.9703 72.9171 74.3993C71.5048 74.0153 70.0811 73.5348 68.9457 72.5668C67.6962 71.5483 66.7217 70.2761 65.7465 69.0031C64.8279 67.804 63.9088 66.6041 62.7587 65.6148C62.4183 65.2797 62.0319 65.0014 61.6455 64.7232C61.519 64.632 61.3922 64.5407 61.2672 64.4476C61.0605 64.4979 60.9828 64.7183 60.9147 64.9114C60.8243 65.1677 60.7509 65.3759 60.415 65.074C60.0946 64.846 59.2932 64.8238 59.221 65.1422C59.9459 66.0974 60.6716 67.1881 60.772 68.4098C60.5853 68.429 60.3439 68.4188 60.1024 68.4086C59.7043 68.3918 59.3061 68.3749 59.1536 68.4895C59.8101 69.4735 60.6516 70.3463 61.6078 71.0411C61.4505 71.0664 61.2407 71.0782 61.026 71.0904C60.6148 71.1137 60.1851 71.1381 60.0696 71.2595C61.0187 72.033 62.0364 72.8236 63.2793 73.0223C63.3887 73.1665 63.3352 73.3684 63.2806 73.5746C63.2082 73.8477 63.1339 74.1282 63.4341 74.2914C63.4868 74.313 63.5605 74.337 63.6428 74.3639L63.6433 74.364C64.0373 74.4926 64.6272 74.6851 64.0532 74.9724C63.5768 75.2934 63.7535 76.0416 64.3628 76.0248C64.4989 76.0944 64.6951 76.1454 64.8947 76.1973C65.2598 76.2922 65.6367 76.3902 65.6805 76.6104C65.5937 76.6987 65.4603 76.7912 65.3245 76.8854C64.926 77.1617 64.5066 77.4525 65.1809 77.6952C66.0256 78.1637 66.989 78.4679 67.9535 78.5012C67.6941 78.7195 67.4024 78.8872 67.1109 79.0547C66.8585 79.1999 66.606 79.345 66.3748 79.5228C68.6008 80.828 71.0684 81.6864 73.5068 82.5131C74.4776 82.8374 75.4596 83.1398 76.466 83.3303C73.5418 83.1614 70.7154 82.2958 68.0522 81.1109C66.6718 80.5055 65.2821 79.9205 63.8674 79.3991C64.2089 79.2213 64.58 79.1176 64.9518 79.0135C65.2553 78.9287 65.5594 78.8436 65.8485 78.7181C65.5492 78.6581 65.2436 78.6072 64.9365 78.556C63.8735 78.3787 62.7911 78.1983 61.8804 77.6288C61.999 77.4174 62.3351 77.3386 62.6586 77.2628C62.8263 77.2235 62.9907 77.185 63.1196 77.1292C63.8289 76.9592 64.2689 76.7531 63.2687 76.6914C62.9139 76.5951 62.5407 76.5479 62.1673 76.5007C61.4794 76.4136 60.7906 76.3265 60.2145 75.932C60.2506 75.702 60.6337 75.6676 61.0069 75.6341C61.2255 75.6144 61.4408 75.5951 61.5808 75.5369L61.6203 75.5301L61.688 75.5187C62.136 75.4433 62.6167 75.3624 62.9696 75.0653C62.3842 74.8226 61.7311 74.7356 61.0791 74.6487C59.9943 74.5041 58.9123 74.3599 58.1494 73.4999C57.9651 73.1566 58.3965 73.2189 58.809 73.2785C59.0269 73.3099 59.2396 73.3406 59.3534 73.3104C59.6083 73.3104 59.8689 73.3351 60.1308 73.3599C60.7285 73.4164 61.3321 73.4736 61.8862 73.239C61.6609 73.1401 61.434 73.0418 61.2063 72.9432C59.1383 72.0473 57.0086 71.1246 55.4476 69.4625C55.4335 69.4408 55.4174 69.4163 55.3998 69.3896C55.1764 69.051 54.7128 68.3482 55.1439 68.2553C55.7289 68.3327 56.2438 68.6534 56.7571 68.9732C57.4272 69.3906 58.0945 69.8063 58.9114 69.6766C59.0236 69.5253 58.7173 69.3176 58.3924 69.0972C58.1623 68.9411 57.9229 68.7787 57.8163 68.6256C55.7129 66.8207 53.6715 64.8619 52.1973 62.4977C52.0959 61.7081 53.3369 61.5899 53.6637 62.1996C54.0518 62.5734 54.4309 62.9623 54.8108 63.352C56.0055 64.5777 57.2088 65.812 58.7289 66.6145C59.1336 66.8108 58.9451 66.6513 58.6802 66.4272C58.4799 66.2576 58.2358 66.0511 58.1716 65.9335C56.3204 63.7838 54.558 61.5134 53.2642 58.9817C53.0326 58.5254 52.6488 57.6994 53.3417 57.4565C54.0345 57.1094 54.7218 57.5822 55.0731 58.1773C55.5403 58.7666 55.9651 59.394 56.3902 60.0218C57.2035 61.2228 58.0177 62.4251 59.1311 63.3643L59.0747 63.2548C57.6468 60.4844 56.144 57.5686 56.1071 54.385L56.1084 54.3609C56.1422 53.7358 56.1921 52.8142 57.0292 52.8396C57.5271 52.7641 57.6218 53.1872 57.7136 53.5971C57.753 53.7733 57.7919 53.9471 57.862 54.0778C58.0493 54.7106 58.2085 55.3574 58.3679 56.0053C58.8054 57.7836 59.2452 59.571 60.2766 61.1045C60.2291 60.8354 60.178 60.565 60.1268 60.2937C59.8436 58.7929 59.5548 57.2627 59.8122 55.7492C59.8823 55.1624 60.5429 54.9848 60.9741 55.3396C61.1611 55.7973 61.2687 56.3127 61.3773 56.8331C61.4711 57.2826 61.5657 57.7357 61.7129 58.1585C63.5201 64.3409 67.5779 69.7783 72.8658 73.4273C77.2209 76.4142 82.3893 78.1973 87.6642 78.5082C87.9718 78.535 88.2802 78.5505 88.5885 78.566C88.7577 78.5745 88.927 78.583 89.0961 78.5934L89.0957 78.594Z" fill="#FDD406"/>
<path fill-rule="evenodd" clip-rule="evenodd" d="M14.3995 7.34952C14.031 7.08623 13.5382 6.83316 13.0055 6.83316C12.1493 6.83316 11.2743 7.37628 11.2743 8.34948C11.2743 8.97921 11.7697 10.0854 12.2794 11.2234C12.8193 12.429 13.3753 13.6704 13.3753 14.4191C13.3753 15.5126 12.5752 16.0868 11.5153 16.0541C10.3397 16.0186 9.44766 15.4685 9.44766 14.3626C9.44766 13.1636 10.0564 12.6786 10.8075 12.6458C11.5586 12.6131 11.8834 13.1279 11.8834 13.4995C11.8834 13.9264 11.6195 14.0207 11.33 14.0207C10.6859 14.0207 10.9382 13.006 10.9382 13.006C10.5416 13.2347 10.2694 13.5167 10.5136 14.0207C10.1929 14.0096 9.91386 14.1452 9.73002 14.3808C9.91146 14.5967 10.1782 14.71 10.5136 14.7408C10.3163 15.2806 10.5935 15.5399 11.0301 15.6553C10.9143 15.4159 10.8563 15.0955 10.9689 14.8561C11.1284 14.9753 11.4112 15.0546 11.6037 15.0546C12.1995 15.0546 12.809 14.4312 12.809 13.5614C12.809 12.4099 11.8379 11.31 10.2598 11.7198C10.8037 11.3488 11.0259 10.9547 11.059 10.5836C11.0003 10.5958 10.9469 10.6079 10.8976 10.619C10.6547 10.674 10.513 10.706 10.3311 10.6088C10.6027 10.2487 10.8055 9.83076 10.6771 9.47076C10.4591 9.67716 10.2055 9.74016 9.9261 9.69996C10.4211 8.40096 9.5511 6.77556 7.79562 6.59988C7.79562 6.59988 8.78874 8.14164 8.78874 9.3528C8.78874 10.4771 8.57733 11.2341 8.37225 11.9684C8.17911 12.66 7.99158 13.3315 7.99158 14.2708C7.99158 15.5264 8.72046 16.3332 9.43626 16.7048C8.7933 16.7458 8.54514 16.8968 8.16354 17.4096L8.16413 17.4097L8.16318 17.41C8.36254 17.7721 8.70636 18.0405 9.23995 18.1904C8.42604 18.7917 8.01546 19.6648 8.01546 20.4743C8.01546 21.3656 8.17746 21.9496 8.35414 22.5865C8.56604 23.3503 8.79906 24.1904 8.79906 25.7279C8.79906 26.5979 8.46102 27.4717 7.77054 28.2811C9.65706 27.8946 10.3987 26.2609 9.79506 25.0732C10.0974 24.9475 10.3343 25.0768 10.5677 25.2041C10.6311 25.2388 10.6942 25.2732 10.7583 25.3024C10.7677 24.7579 10.5878 24.4672 10.4181 24.1931C10.3836 24.1374 10.3495 24.0823 10.3175 24.0259C10.3175 24.0259 10.6439 24.0422 10.9379 24.1567C10.8983 23.7355 10.7025 23.3588 10.3175 23.1748C11.936 23.4365 12.7993 22.3891 12.7993 21.1453C12.7993 19.8925 11.6877 19.5643 10.9625 19.7706C10.9317 19.5948 10.9348 19.4084 11.0278 19.206C10.5671 19.3142 10.354 19.5714 10.5135 20.098C10.2442 20.1444 10.0348 20.281 9.8523 20.458C10.0249 20.6563 10.2567 20.794 10.5135 20.8507C10.3546 21.2822 10.6325 21.6278 10.9707 21.7019C10.9707 21.7019 10.7795 20.7853 11.4604 20.7853C11.7301 20.7853 11.9176 20.9533 11.9176 21.3418C11.9176 21.8992 11.6013 22.2256 10.8074 22.2256C10.1623 22.2256 9.53394 21.6856 9.53394 20.4744C9.53394 19.4772 10.5299 18.6022 11.4441 18.625C12.4469 18.6497 13.4033 19.4556 13.4033 20.4416C13.4033 21.08 13.3436 21.5156 13.1584 21.8982L7.86006 32.8966C7.38714 33.8783 7.19922 34.5218 7.19922 35.5476C7.19922 37.1901 8.21349 38.4806 10.1298 38.7048C8.21349 38.929 7.19922 40.2195 7.19922 41.862C7.19922 42.8878 7.38714 43.5313 7.86006 44.513L13.1584 55.5114C13.3436 55.894 13.4033 56.3296 13.4033 56.968C13.4033 57.954 12.4469 58.7599 11.4441 58.7846C10.5299 58.8074 9.53394 57.9324 9.53394 56.9352C9.53394 55.724 10.1623 55.184 10.8074 55.184C11.6013 55.184 11.9176 55.5104 11.9176 56.0678C11.9176 56.4563 11.7301 56.6243 11.4604 56.6243C10.7795 56.6243 10.9707 55.7077 10.9707 55.7077C10.6325 55.7818 10.3546 56.1274 10.5135 56.5589C10.2567 56.6156 10.0249 56.7533 9.8523 56.9516C10.0348 57.1286 10.2442 57.2652 10.5135 57.3116C10.354 57.8382 10.5671 58.0954 11.0278 58.2036C10.9348 58.0012 10.9317 57.8148 10.9625 57.639C11.6877 57.8453 12.7993 57.5171 12.7993 56.2643C12.7993 55.0205 11.936 53.9731 10.3175 54.2348C10.7025 54.0508 10.8983 53.6741 10.9379 53.2529C10.6439 53.3674 10.3175 53.3837 10.3175 53.3837C10.3495 53.3273 10.3836 53.2722 10.4181 53.2165C10.5878 52.9424 10.7677 52.6517 10.7583 52.1072C10.6942 52.1364 10.6311 52.1708 10.5677 52.2054C10.3344 52.3328 10.0974 52.4621 9.79506 52.3364C10.3987 51.1487 9.65706 49.515 7.77054 49.1285C8.46102 49.9379 8.79906 50.8117 8.79906 51.6817C8.79906 53.2193 8.56604 54.0593 8.35414 54.8231C8.17746 55.4601 8.01546 56.0441 8.01546 56.9353C8.01546 57.7448 8.42604 58.6179 9.23995 59.2192C8.70636 59.3691 8.36254 59.6375 8.16318 59.9996L8.16443 60L8.16318 60.0004C8.36254 60.3625 8.70636 60.6309 9.23995 60.7808C8.42604 61.3821 8.01546 62.2552 8.01546 63.0647C8.01546 63.956 8.17746 64.5399 8.35414 65.1769C8.56604 65.9407 8.79906 66.7808 8.79906 68.3183C8.79906 69.1883 8.46102 70.0621 7.77054 70.8715C9.65706 70.485 10.3987 68.8513 9.79506 67.6636C10.0974 67.5379 10.3343 67.6672 10.5677 67.7945C10.631 67.8291 10.6942 67.8636 10.7583 67.8928C10.7677 67.3483 10.5878 67.0576 10.4181 66.7835C10.3836 66.7278 10.3495 66.6727 10.3175 66.6163C10.3175 66.6163 10.6439 66.6326 10.9379 66.7471C10.8983 66.3259 10.7025 65.9492 10.3175 65.7652C11.936 66.0269 12.7993 64.9795 12.7993 63.7357C12.7993 62.4829 11.6877 62.1547 10.9625 62.361C10.9317 62.1852 10.9348 61.9988 11.0278 61.7964C10.5671 61.9046 10.354 62.1618 10.5135 62.6884C10.2442 62.7348 10.0348 62.8714 9.8523 63.0484C10.0249 63.2467 10.2567 63.3844 10.5135 63.4411C10.3546 63.8726 10.6325 64.2182 10.9707 64.2923C10.9707 64.2923 10.7795 63.3757 11.4604 63.3757C11.7301 63.3757 11.9176 63.5437 11.9176 63.9322C11.9176 64.4896 11.6013 64.816 10.8074 64.816C10.1623 64.816 9.53394 64.276 9.53394 63.0648C9.53394 62.0676 10.5299 61.1926 11.4441 61.2154C12.4469 61.2401 13.4033 62.046 13.4033 63.032C13.4033 63.6704 13.3436 64.106 13.1584 64.4886L7.86006 75.487C7.38714 76.4687 7.19922 77.1122 7.19922 78.138C7.19922 79.7805 8.21349 81.071 10.1298 81.2952C8.21349 81.5194 7.19922 82.8099 7.19922 84.4524C7.19922 85.4782 7.38714 86.1217 7.86006 87.1034L13.1584 98.1018C13.3436 98.4844 13.4033 98.92 13.4033 99.5584C13.4033 100.544 12.4469 101.35 11.4441 101.375C10.5299 101.398 9.53394 100.523 9.53394 99.5256C9.53394 98.3144 10.1623 97.7744 10.8074 97.7744C11.6013 97.7744 11.9176 98.1008 11.9176 98.6582C11.9176 99.0467 11.7301 99.2147 11.4604 99.2147C10.7795 99.2147 10.9707 98.2981 10.9707 98.2981C10.6325 98.3722 10.3546 98.7178 10.5135 99.1493C10.2567 99.206 10.0249 99.3437 9.8523 99.542C10.0348 99.719 10.2442 99.8556 10.5135 99.902C10.354 100.429 10.5671 100.686 11.0278 100.794C10.9348 100.592 10.9317 100.405 10.9625 100.229C11.6877 100.436 12.7993 100.107 12.7993 98.8547C12.7993 97.6109 11.936 96.5635 10.3175 96.8252C10.7025 96.6412 10.8983 96.2645 10.9379 95.8433C10.6439 95.9578 10.3175 95.9741 10.3175 95.9741C10.3495 95.9177 10.3836 95.8626 10.4181 95.8069C10.5878 95.5328 10.7677 95.2421 10.7583 94.6976C10.6942 94.7268 10.6311 94.7612 10.5677 94.7958C10.3344 94.9232 10.0974 95.0525 9.79506 94.9268C10.3987 93.7391 9.65706 92.1054 7.77054 91.7189C8.46102 92.5283 8.79906 93.4021 8.79906 94.2721C8.79906 95.8096 8.56604 96.6497 8.35414 97.4135C8.17746 98.0505 8.01546 98.6344 8.01546 99.5257C8.01546 100.335 8.42604 101.208 9.23994 101.81C8.70636 101.959 8.36254 102.228 8.16318 102.59L8.16413 102.59L8.16354 102.59C8.54514 103.103 8.7933 103.254 9.43626 103.295C8.72046 103.667 7.99158 104.474 7.99158 105.729C7.99158 106.669 8.17911 107.34 8.37225 108.032C8.57733 108.766 8.78874 109.523 8.78874 110.647C8.78874 111.858 7.79562 113.4 7.79562 113.4C9.5511 113.224 10.4211 111.599 9.9261 110.3C10.2055 110.26 10.4591 110.323 10.6771 110.529C10.8055 110.169 10.6027 109.751 10.3311 109.391C10.513 109.294 10.6547 109.326 10.8976 109.381C10.9469 109.392 11.0003 109.404 11.059 109.416C11.0259 109.045 10.8037 108.651 10.2598 108.28C11.8379 108.69 12.809 107.59 12.809 106.439C12.809 105.569 12.1995 104.945 11.6037 104.945C11.4112 104.945 11.1284 105.025 10.9689 105.144C10.8563 104.904 10.9143 104.584 11.0301 104.345C10.5935 104.46 10.3163 104.719 10.5136 105.259C10.1782 105.29 9.91146 105.403 9.73002 105.619C9.91386 105.855 10.1929 105.99 10.5136 105.979C10.2694 106.483 10.5416 106.765 10.9382 106.994C10.9382 106.994 10.6859 105.979 11.33 105.979C11.6195 105.979 11.8834 106.074 11.8834 106.5C11.8834 106.872 11.5586 107.387 10.8075 107.354C10.0564 107.321 9.44766 106.836 9.44766 105.637C9.44766 104.532 10.3397 103.981 11.5153 103.946C12.5752 103.913 13.3753 104.487 13.3753 105.581C13.3753 106.33 12.8193 107.571 12.2794 108.777C11.7697 109.915 11.2743 111.021 11.2743 111.651C11.2743 112.624 12.1493 113.167 13.0055 113.167C13.5382 113.167 14.031 112.914 14.3995 112.65C14.768 112.914 15.2607 113.167 15.7934 113.167C16.6496 113.167 17.5246 112.624 17.5246 111.651C17.5246 111.021 17.0292 109.915 16.5195 108.777C15.9796 107.571 15.4237 106.33 15.4237 105.581C15.4237 104.487 16.2237 103.913 17.2837 103.946C18.4592 103.981 19.3513 104.532 19.3513 105.637C19.3513 106.836 18.7425 107.321 17.9914 107.354C17.2403 107.387 16.9155 106.872 16.9155 106.5C16.9155 106.074 17.1794 105.979 17.4689 105.979C18.113 105.979 17.8607 106.994 17.8607 106.994C18.2573 106.765 18.5295 106.483 18.2853 105.979C18.6061 105.99 18.8851 105.855 19.0689 105.619C18.8875 105.403 18.6207 105.29 18.2853 105.259C18.4826 104.719 18.2054 104.46 17.7688 104.345C17.8846 104.584 17.9426 104.904 17.83 105.144C17.6705 105.025 17.3877 104.945 17.1952 104.945C16.5994 104.945 15.9899 105.569 15.9899 106.439C15.9899 107.59 16.961 108.69 18.5391 108.28C17.9953 108.651 17.773 109.045 17.7399 109.416C17.7977 109.404 17.8503 109.393 17.8989 109.382L17.9006 109.381L17.9013 109.381C18.1442 109.326 18.2859 109.294 18.4678 109.391C18.1963 109.751 17.9935 110.169 18.1219 110.529C18.3398 110.323 18.5935 110.26 18.8728 110.3C18.3778 111.599 19.2478 113.224 21.0033 113.4C21.0033 113.4 20.0102 111.858 20.0102 110.647C20.0102 109.523 20.2216 108.766 20.4267 108.032C20.6198 107.34 20.8073 106.669 20.8073 105.729C20.8073 104.474 20.0785 103.667 19.3627 103.295C20.0056 103.254 20.2538 103.103 20.6354 102.59L20.6348 102.59L20.6357 102.59C20.4364 102.228 20.0926 101.959 19.559 101.81C20.3729 101.208 20.7835 100.335 20.7835 99.5257C20.7835 98.6344 20.6215 98.0505 20.4448 97.4135C20.2329 96.6497 19.9999 95.8096 19.9999 94.2721C19.9999 93.4021 20.3379 92.5283 21.0284 91.7189C19.1419 92.1054 18.4003 93.7391 19.0039 94.9268C18.7015 95.0525 18.4646 94.9232 18.2312 94.7958C18.1679 94.7613 18.1047 94.7268 18.0406 94.6976C18.0312 95.2421 18.2111 95.5328 18.3808 95.8069C18.4153 95.8626 18.4494 95.9177 18.4814 95.9741C18.4814 95.9741 18.155 95.9578 17.861 95.8433C17.9006 96.2645 18.0964 96.6412 18.4814 96.8252C16.8629 96.5635 15.9997 97.6109 15.9997 98.8547C15.9997 100.107 17.1112 100.436 17.8364 100.229C17.8672 100.405 17.8641 100.592 17.7711 100.794C18.2318 100.686 18.4449 100.429 18.2854 99.902C18.5547 99.8556 18.7641 99.719 18.9466 99.542C18.774 99.3437 18.5422 99.206 18.2854 99.1493C18.4443 98.7178 18.1664 98.3722 17.8282 98.2981C17.8282 98.2981 18.0194 99.2147 17.3385 99.2147C17.0689 99.2147 16.8813 99.0467 16.8813 98.6582C16.8813 98.1008 17.1976 97.7744 17.9915 97.7744C18.6367 97.7744 19.265 98.3144 19.265 99.5256C19.265 100.523 18.269 101.398 17.3548 101.375C16.352 101.35 15.3956 100.544 15.3956 99.5584C15.3956 98.92 15.4553 98.4844 15.6405 98.1018L20.9389 87.1034C21.4118 86.1217 21.5997 85.4782 21.5997 84.4524C21.5997 82.8099 20.5854 81.5194 18.6691 81.2952C20.5854 81.071 21.5997 79.7805 21.5997 78.138C21.5997 77.1122 21.4118 76.4687 20.9389 75.487L15.6405 64.4886C15.4553 64.106 15.3956 63.6704 15.3956 63.032C15.3956 62.046 16.352 61.2401 17.3548 61.2154C18.269 61.1926 19.265 62.0676 19.265 63.0648C19.265 64.276 18.6367 64.816 17.9915 64.816C17.1976 64.816 16.8813 64.4896 16.8813 63.9322C16.8813 63.5437 17.0689 63.3757 17.3385 63.3757C18.0194 63.3757 17.8282 64.2923 17.8282 64.2923C18.1664 64.2182 18.4443 63.8726 18.2854 63.4411C18.5422 63.3844 18.774 63.2467 18.9466 63.0484C18.7641 62.8714 18.5547 62.7348 18.2854 62.6884C18.4449 62.1618 18.2318 61.9046 17.7711 61.7964C17.8641 61.9988 17.8672 62.1852 17.8364 62.361C17.1112 62.1547 15.9997 62.4829 15.9997 63.7357C15.9997 64.9795 16.8629 66.0269 18.4814 65.7652C18.0964 65.9492 17.9006 66.3259 17.861 66.7471C18.155 66.6326 18.4814 66.6163 18.4814 66.6163C18.4494 66.6727 18.4153 66.7278 18.3808 66.7835C18.2111 67.0576 18.0312 67.3483 18.0406 67.8928C18.1047 67.8636 18.1679 67.8291 18.2313 67.7945C18.4646 67.6672 18.7015 67.5379 19.0039 67.6636C18.4003 68.8513 19.1419 70.485 21.0284 70.8715C20.3379 70.0621 19.9999 69.1883 19.9999 68.3183C19.9999 66.7808 20.2329 65.9407 20.4448 65.1769C20.6215 64.5399 20.7835 63.956 20.7835 63.0647C20.7835 62.2552 20.3729 61.3821 19.559 60.7808C20.0926 60.6309 20.4364 60.3625 20.6357 60.0004C20.6353 60.0002 20.6349 60.0001 20.6345 60C20.6349 59.9999 20.6353 59.9998 20.6357 59.9996C20.4364 59.6375 20.0926 59.3691 19.559 59.2192C20.3729 58.6179 20.7835 57.7448 20.7835 56.9353C20.7835 56.0441 20.6215 55.4601 20.4448 54.8231C20.2329 54.0593 19.9999 53.2193 19.9999 51.6817C19.9999 50.8117 20.3379 49.9379 21.0284 49.1285C19.1419 49.515 18.4003 51.1487 19.0039 52.3364C18.7015 52.4621 18.4646 52.3328 18.2313 52.2055C18.1679 52.1709 18.1047 52.1364 18.0406 52.1072C18.0312 52.6517 18.2111 52.9424 18.3808 53.2165C18.4153 53.2722 18.4494 53.3273 18.4814 53.3837C18.4814 53.3837 18.155 53.3674 17.861 53.2529C17.9006 53.6741 18.0964 54.0508 18.4814 54.2348C16.8629 53.9731 15.9997 55.0205 15.9997 56.2643C15.9997 57.5171 17.1112 57.8453 17.8364 57.639C17.8672 57.8148 17.8641 58.0012 17.7711 58.2036C18.2318 58.0954 18.4449 57.8382 18.2854 57.3116C18.5547 57.2652 18.7641 57.1286 18.9466 56.9516C18.774 56.7533 18.5422 56.6156 18.2854 56.5589C18.4443 56.1274 18.1664 55.7818 17.8282 55.7077C17.8282 55.7077 18.0194 56.6243 17.3385 56.6243C17.0689 56.6243 16.8813 56.4563 16.8813 56.0678C16.8813 55.5104 17.1976 55.184 17.9915 55.184C18.6367 55.184 19.265 55.724 19.265 56.9352C19.265 57.9324 18.269 58.8074 17.3548 58.7846C16.352 58.7599 15.3956 57.954 15.3956 56.968C15.3956 56.3296 15.4553 55.894 15.6405 55.5114L20.9389 44.513C21.4118 43.5313 21.5997 42.8878 21.5997 41.862C21.5997 40.2195 20.5854 38.929 18.6691 38.7048C20.5854 38.4806 21.5997 37.1901 21.5997 35.5476C21.5997 34.5218 21.4118 33.8783 20.9389 32.8966L15.6405 21.8982C15.4553 21.5156 15.3956 21.08 15.3956 20.4416C15.3956 19.4556 16.352 18.6497 17.3548 18.625C18.269 18.6022 19.265 19.4772 19.265 20.4744C19.265 21.6856 18.6367 22.2256 17.9915 22.2256C17.1976 22.2256 16.8813 21.8992 16.8813 21.3418C16.8813 20.9533 17.0689 20.7853 17.3385 20.7853C18.0194 20.7853 17.8282 21.7019 17.8282 21.7019C18.1664 21.6278 18.4443 21.2822 18.2854 20.8507C18.5422 20.794 18.774 20.6563 18.9466 20.458C18.7641 20.281 18.5547 20.1444 18.2854 20.098C18.4449 19.5714 18.2318 19.3142 17.7711 19.206C17.8641 19.4084 17.8672 19.5948 17.8364 19.7706C17.1112 19.5643 15.9997 19.8925 15.9997 21.1453C15.9997 22.3891 16.8629 23.4365 18.4814 23.1748C18.0964 23.3588 17.9006 23.7355 17.861 24.1567C18.155 24.0422 18.4814 24.0259 18.4814 24.0259C18.4494 24.0823 18.4153 24.1374 18.3808 24.1931C18.2111 24.4672 18.0312 24.7579 18.0406 25.3024C18.1047 25.2732 18.1679 25.2388 18.2313 25.2041C18.4646 25.0768 18.7015 24.9475 19.0039 25.0732C18.4003 26.2609 19.1419 27.8946 21.0284 28.2811C20.3379 27.4717 19.9999 26.5979 19.9999 25.7279C19.9999 24.1904 20.2329 23.3503 20.4448 22.5865C20.6215 21.9496 20.7835 21.3656 20.7835 20.4743C20.7835 19.6648 20.3729 18.7917 19.559 18.1904C20.0926 18.0405 20.4364 17.7721 20.6357 17.41L20.6348 17.4097L20.6354 17.4096C20.2538 16.8968 20.0056 16.7458 19.3627 16.7048C20.0785 16.3332 20.8073 15.5264 20.8073 14.2708C20.8073 13.3315 20.6198 12.66 20.4267 11.9684C20.2216 11.2341 20.0102 10.4771 20.0102 9.3528C20.0102 8.14164 21.0033 6.59988 21.0033 6.59988C19.2478 6.77556 18.3778 8.40096 18.8728 9.69996C18.5935 9.74016 18.3398 9.67716 18.1219 9.47076C17.9935 9.83076 18.1963 10.2487 18.4678 10.6088C18.2859 10.706 18.1442 10.674 17.9013 10.619C17.8521 10.6079 17.7986 10.5958 17.7399 10.5836C17.773 10.9547 17.9953 11.3488 18.5391 11.7198C16.961 11.31 15.9899 12.4099 15.9899 13.5614C15.9899 14.4312 16.5994 15.0546 17.1952 15.0546C17.3877 15.0546 17.6705 14.9753 17.83 14.8561C17.9426 15.0955 17.8846 15.4159 17.7688 15.6553C18.2054 15.5399 18.4826 15.2806 18.2853 14.7408C18.6207 14.71 18.8875 14.5967 19.0689 14.3808C18.8851 14.1452 18.6061 14.0096 18.2853 14.0207C18.5295 13.5167 18.2573 13.2347 17.8607 13.006C17.8607 13.006 18.113 14.0207 17.4689 14.0207C17.1794 14.0207 16.9155 13.9264 16.9155 13.4995C16.9155 13.1279 17.2403 12.6131 17.9914 12.6458C18.7425 12.6786 19.3513 13.1636 19.3513 14.3626C19.3513 15.4685 18.4592 16.0186 17.2837 16.0541C16.2237 16.0868 15.4237 15.5126 15.4237 14.4191C15.4237 13.6704 15.9796 12.429 16.5195 11.2234C17.0292 10.0854 17.5246 8.97921 17.5246 8.34948C17.5246 7.37628 16.6496 6.83316 15.7934 6.83316C15.2607 6.83316 14.768 7.08623 14.3995 7.34952ZM14.3995 8.75064L14.3986 8.75028L14.3978 8.74926C14.3491 8.70869 13.2376 7.79222 12.8546 8.26764C12.504 8.70275 13.1435 10.102 13.7797 11.4938C14.0006 11.9769 14.221 12.4592 14.3995 12.8999C14.5779 12.4592 14.7984 11.9769 15.0192 11.4938C15.6554 10.102 16.295 8.70275 15.9443 8.26764C15.5613 7.79223 14.4499 8.70868 14.4011 8.74926L14.4003 8.75028L14.3995 8.75064ZM16.6537 60C16.62 59.9882 16.587 59.976 16.555 59.9634C15.4229 59.8322 14.6326 58.9638 14.3998 58.5229L14.3995 58.5222L14.3991 58.5229C14.1663 58.9638 13.376 59.8322 12.2439 59.9634C12.2119 59.976 12.1789 59.9882 12.1452 60C12.1789 60.0118 12.2119 60.024 12.2439 60.0366C13.376 60.1678 14.1663 61.0362 14.3991 61.4771C14.3992 61.4773 14.3993 61.4775 14.3995 61.4778C14.3996 61.4775 14.3997 61.4773 14.3998 61.4771C14.6326 61.0362 15.4229 60.1678 16.555 60.0366C16.587 60.024 16.62 60.0118 16.6537 60ZM14.3995 64.9458C14.3993 64.946 14.3992 64.9463 14.3991 64.9465L9.01134 76.3703C8.77758 76.8701 8.63574 77.4002 8.63574 77.9742C8.63574 79.4178 9.95814 79.9218 10.7093 79.9218C11.6073 79.9218 12.5216 79.2378 12.5216 78.3834C12.5216 77.8421 12.2276 77.516 11.8031 77.516C10.7882 77.516 10.8499 78.3794 11.0522 78.9235C10.4205 78.6395 10.0533 78.1325 10.1542 77.5979C9.79662 77.5488 9.45618 77.3792 9.14202 77.025C9.38922 76.713 9.69066 76.477 10.1542 76.4686C9.95178 75.6391 10.507 75.2884 11.0522 75.0938C10.8797 75.7026 10.7666 76.4032 11.8031 76.4032C12.5591 76.4032 13.1541 76.5341 13.5011 77.0251L13.5827 73.7845C13.6264 72.8128 12.2822 72.8405 11.4278 73.1298C11.7502 72.0106 12.4115 71.4054 13.942 71.5586C13.5705 71.4032 13.1746 71.0537 13.1746 70.3802C13.1749 69.4691 13.9141 68.4596 14.3993 68.1612C14.8846 68.4596 15.6241 69.4691 15.6243 70.3802C15.6243 71.0537 15.2284 71.4032 14.8569 71.5586C16.3874 71.4054 17.0487 72.0106 17.3711 73.1298C16.5167 72.8405 15.1725 72.8128 15.2162 73.7845L15.2978 77.0251C15.6448 76.5341 16.2398 76.4032 16.9958 76.4032C18.0323 76.4032 17.9192 75.7026 17.7467 75.0938C18.2919 75.2884 18.8471 75.6391 18.6447 76.4686C19.1083 76.477 19.4097 76.713 19.6569 77.025C19.3427 77.3792 19.0023 77.5488 18.6447 77.5979C18.7456 78.1325 18.3784 78.6395 17.7467 78.9235C17.9491 78.3794 18.0107 77.516 16.9958 77.516C16.5713 77.516 16.2773 77.8421 16.2773 78.3834C16.2773 79.2378 17.1916 79.9218 18.0896 79.9218C18.8408 79.9218 20.1632 79.4178 20.1632 77.9742C20.1632 77.4002 20.0213 76.8701 19.7876 76.3703L14.3998 64.9465C14.3997 64.9463 14.3996 64.946 14.3995 64.9458ZM14.3995 78.9682C13.8582 80.3432 12.5001 81.1267 11.2473 81.2952C12.5001 81.4637 13.8582 82.2472 14.3995 83.6222C14.9407 82.2472 16.2989 81.4637 17.5516 81.2952C16.2989 81.1267 14.9407 80.3432 14.3995 78.9682ZM16.555 102.554C16.6169 102.578 16.6821 102.601 16.7503 102.622C15.7298 102.857 14.8716 103.24 14.3995 104.035C13.9273 103.24 13.0691 102.857 12.0486 102.622C12.1168 102.601 12.182 102.578 12.2439 102.554C13.376 102.423 14.1663 101.554 14.3991 101.113L14.3995 101.113L14.3998 101.113C14.6326 101.554 15.4229 102.423 16.555 102.554ZM14.3998 97.6439L14.3995 97.6446L14.3991 97.6439L9.01134 86.2201C8.77758 85.7203 8.63574 85.1902 8.63574 84.6162C8.63574 83.1726 9.95814 82.6686 10.7093 82.6686C11.6073 82.6686 12.5216 83.3526 12.5216 84.207C12.5216 84.7483 12.2276 85.0744 11.8031 85.0744C10.7882 85.0744 10.8499 84.211 11.0522 83.6669C10.4205 83.9509 10.0533 84.4579 10.1542 84.9925C9.79662 85.0416 9.45618 85.2112 9.14202 85.5654C9.38922 85.8774 9.69066 86.1134 10.1542 86.1218C9.95178 86.9513 10.507 87.302 11.0522 87.4966C10.8797 86.8878 10.7666 86.1872 11.8031 86.1872C12.5591 86.1872 13.1541 86.0563 13.5011 85.5653L13.5827 88.8059C13.6264 89.7776 12.2822 89.7499 11.4278 89.4606C11.7502 90.5798 12.4115 91.185 13.942 91.0318C13.5705 91.1872 13.1746 91.5367 13.1746 92.2102C13.1749 93.1213 13.9141 94.1308 14.3993 94.4292C14.8846 94.1308 15.6241 93.1213 15.6243 92.2102C15.6243 91.5367 15.2284 91.1872 14.8569 91.0318C16.3874 91.185 17.0487 90.5798 17.3711 89.4606C16.5167 89.7499 15.1725 89.7776 15.2162 88.8059L15.2978 85.5653C15.6448 86.0563 16.2398 86.1872 16.9958 86.1872C18.0323 86.1872 17.9192 86.8878 17.7467 87.4966C18.2919 87.302 18.8471 86.9513 18.6447 86.1218C19.1083 86.1134 19.4097 85.8774 19.6569 85.5654C19.3427 85.2112 19.0023 85.0416 18.6447 84.9925C18.7456 84.4579 18.3784 83.9509 17.7467 83.6669C17.9491 84.211 18.0107 85.0744 16.9958 85.0744C16.5713 85.0744 16.2773 84.7483 16.2773 84.207C16.2773 83.3526 17.1916 82.6686 18.0896 82.6686C18.8408 82.6686 20.1632 83.1726 20.1632 84.6162C20.1632 85.1902 20.0213 85.7203 19.7876 86.2201L14.3998 97.6439ZM14.3995 107.1C14.221 107.541 14.0006 108.023 13.7797 108.506C13.1435 109.898 12.504 111.297 12.8546 111.732C13.2376 112.208 14.349 111.291 14.3978 111.251L14.3986 111.25L14.3995 111.249L14.4003 111.25L14.4011 111.251C14.4499 111.291 15.5613 112.208 15.9443 111.732C16.295 111.297 15.6554 109.898 15.0192 108.506C14.7984 108.023 14.5779 107.541 14.3995 107.1ZM17.5516 38.7048C16.2989 38.5363 14.9407 37.7528 14.3995 36.3778C13.8582 37.7528 12.5001 38.5363 11.2473 38.7048C12.5001 38.8733 13.8582 39.6568 14.3995 41.0318C14.9407 39.6568 16.2988 38.8733 17.5516 38.7048ZM14.3993 51.8388C13.9141 51.5404 13.1749 50.5309 13.1746 49.6198C13.1746 48.9463 13.5705 48.5968 13.942 48.4414C12.4115 48.5946 11.7502 47.9894 11.4278 46.8702C12.2822 47.1595 13.6264 47.1872 13.5827 46.2155L13.5011 42.9749C13.1541 43.4659 12.5591 43.5968 11.8031 43.5968C10.7666 43.5968 10.8797 44.2974 11.0522 44.9062C10.507 44.7116 9.95178 44.3609 10.1542 43.5314C9.69066 43.523 9.38922 43.287 9.14202 42.975C9.45618 42.6208 9.79662 42.4512 10.1542 42.4021C10.0533 41.8675 10.4205 41.3605 11.0522 41.0765C10.8499 41.6206 10.7882 42.484 11.8031 42.484C12.2276 42.484 12.5216 42.1579 12.5216 41.6166C12.5216 40.7622 11.6073 40.0782 10.7093 40.0782C9.95814 40.0782 8.63574 40.5822 8.63574 42.0258C8.63574 42.5998 8.77758 43.1299 9.01134 43.6297L14.3991 55.0535L14.3995 55.0542L14.3998 55.0535L19.7876 43.6297C20.0213 43.1299 20.1632 42.5998 20.1632 42.0258C20.1632 40.5822 18.8408 40.0782 18.0896 40.0782C17.1916 40.0782 16.2773 40.7622 16.2773 41.6166C16.2773 42.1579 16.5713 42.484 16.9958 42.484C18.0107 42.484 17.9491 41.6206 17.7467 41.0765C18.3784 41.3605 18.7456 41.8675 18.6447 42.4021C19.0023 42.4512 19.3427 42.6208 19.6569 42.975C19.4097 43.287 19.1083 43.523 18.6447 43.5314C18.8471 44.3609 18.2919 44.7116 17.7467 44.9062C17.9192 44.2974 18.0323 43.5968 16.9958 43.5968C16.2398 43.5968 15.6448 43.4659 15.2978 42.9749L15.2162 46.2155C15.1725 47.1872 16.5167 47.1595 17.3711 46.8702C17.0487 47.9894 16.3874 48.5946 14.8569 48.4414C15.2284 48.5968 15.6243 48.9463 15.6243 49.6198C15.6241 50.5309 14.8846 51.5404 14.3993 51.8388ZM14.3996 25.5708C13.9143 25.8692 13.1749 26.8787 13.1746 27.7898C13.1746 28.4633 13.5705 28.8128 13.942 28.9682C12.4115 28.815 11.7502 29.4202 11.4278 30.5394C12.2822 30.2501 13.6264 30.2224 13.5827 31.1941L13.5011 34.4347C13.1541 33.9437 12.5591 33.8128 11.8031 33.8128C10.7666 33.8128 10.8797 33.1122 11.0522 32.5034C10.507 32.698 9.95178 33.0487 10.1542 33.8782C9.69066 33.8866 9.38922 34.1226 9.14202 34.4346C9.45618 34.7888 9.79662 34.9584 10.1542 35.0075C10.0533 35.5421 10.4205 36.0491 11.0522 36.3331C10.8499 35.789 10.7882 34.9256 11.8031 34.9256C12.2276 34.9256 12.5216 35.2517 12.5216 35.793C12.5216 36.6474 11.6073 37.3314 10.7093 37.3314C9.95814 37.3314 8.63574 36.8274 8.63574 35.3838C8.63574 34.8098 8.77758 34.2797 9.01134 33.7799L14.3991 22.3561L14.3995 22.3554L14.3998 22.3561L19.7876 33.7799C20.0213 34.2797 20.1632 34.8098 20.1632 35.3838C20.1632 36.8274 18.8408 37.3314 18.0896 37.3314C17.1916 37.3314 16.2773 36.6474 16.2773 35.793C16.2773 35.2517 16.5713 34.9256 16.9958 34.9256C18.0107 34.9256 17.9491 35.789 17.7467 36.3331C18.3784 36.0491 18.7456 35.5421 18.6447 35.0075C19.0023 34.9584 19.3427 34.7888 19.6569 34.4346C19.4097 34.1226 19.1083 33.8866 18.6447 33.8782C18.8471 33.0487 18.2919 32.698 17.7467 32.5034C17.9192 33.1122 18.0323 33.8128 16.9958 33.8128C16.2398 33.8128 15.6448 33.9437 15.2978 34.4347L15.2162 31.1941C15.1725 30.2224 16.5167 30.2501 17.3711 30.5394C17.0487 29.4202 16.3874 28.815 14.8569 28.9682C15.2284 28.8128 15.6243 28.4633 15.6243 27.7898C15.6241 26.8787 14.8849 25.8692 14.3996 25.5708ZM14.3998 18.8867L14.3995 18.8874L14.3991 18.8867C14.1663 18.4458 13.376 17.5774 12.2439 17.4462C12.182 17.4219 12.1168 17.399 12.0486 17.3777C13.0691 17.1432 13.9273 16.7598 14.3995 15.9648C14.8716 16.7598 15.7298 17.1432 16.7503 17.3777C16.6821 17.399 16.6169 17.4219 16.555 17.4462C15.4229 17.5774 14.6326 18.4458 14.3998 18.8867Z" fill="#FDD406"/>
</g>
<defs>
<clipPath id="clip0_307_65800">
<rect width="160" height="120" fill="white"/>
</clipPath>
</defs>
</svg>
