<svg width="160" height="120" viewBox="0 0 160 120" fill="none" xmlns="http://www.w3.org/2000/svg">
<path d="M0 0H160V120H0V0Z" fill="#E23726"/>
<path d="M0 30H160V90H0V30Z" fill="white"/>
<path d="M78.8245 30C77.5365 32.712 75.1113 34.6074 72.7931 36.4012C72.4117 36.7342 71.4634 37.3792 72.1512 37.8702C72.7406 37.2116 74.3581 38.0838 73.4181 38.7922C72.5761 39.5802 71.4167 39.8688 70.4816 40.5192C69.6537 40.9692 68.8137 41.4388 68.1571 42.1274C68.1125 43.2034 69.4919 42.6078 70.0517 43.056C70.7807 43.8352 69.7426 45.1492 68.7858 44.8486C67.5626 44.8862 66.7179 45.9626 66.2551 46.9894C65.2983 48.469 63.4851 48.9074 62.0413 49.7494C61.2153 50.2308 60.4139 50.7636 59.6451 51.3254C58.6537 52.0034 59.5161 53.3454 60.5711 53.016C61.7097 52.9024 62.7341 52.0078 63.9131 52.2656C64.9821 52.6412 65.2821 54.0384 64.9178 55.014C64.6479 55.795 63.9939 56.3452 63.4701 56.9552C62.6195 57.817 61.507 58.3764 60.334 58.6432C59.2006 59.0238 58.1817 59.7182 57.4381 60.6558C56.5753 61.5246 55.7157 62.4074 54.7237 63.1318C54.4103 63.9314 55.2947 64.6124 56.0317 64.5912C57.5852 64.4932 58.6617 63.222 59.9847 62.5686C61.0827 62.0752 62.3747 63.2586 62.1061 64.4022C62.0211 65.515 60.9792 66.0796 60.053 66.422C57.33 67.7908 54.9657 69.776 52.8665 71.966C52.4323 72.8518 51.2385 72.591 50.5959 73.2084C50.1773 73.9896 51.2278 74.4016 51.8548 74.3214C54.5488 73.9974 57.0629 72.8586 59.4443 71.6058C60.3299 71.1824 61.1615 70.6252 62.0823 70.2878C62.9471 70.074 64.1531 70.4498 64.3077 71.4342C64.3065 72.4734 63.2771 73.0488 62.4619 73.4548C59.9479 74.7756 57.1889 75.5058 54.5019 76.379C53.4959 76.0978 52.7379 77.8876 53.8415 78.2094C55.0083 78.6094 56.2489 78.2886 57.4425 78.2362C61.1335 77.6708 64.3615 75.6736 67.8115 74.3826C69.2459 73.915 70.9389 74.5674 71.6467 75.9114C72.3579 77.1094 72.2926 78.6848 71.5426 79.8488C70.357 82.3852 68.5546 84.7164 66.135 86.1748C64.6163 86.9268 62.8435 87.2144 61.5417 88.3656C60.3377 88.7624 62.1452 90.3892 62.4064 89.098C63.1298 88.1114 64.4059 87.8164 65.5631 87.7756C67.3025 87.5864 69.1497 87.2656 70.5011 86.0616C71.7127 85.1206 72.9067 83.8226 74.5519 83.8024C75.4611 83.9102 76.3605 84.6408 77.2839 84.195C78.0919 83.825 79.3592 84.0418 79.5702 85.0352C79.956 86.1974 81.1538 86.7262 82.1038 87.348C82.4476 87.8308 83.5901 89.076 83.8535 87.9782C83.6409 87.1952 83.9447 85.997 84.9719 86.2586C85.8691 86.2986 86.7241 86.6296 87.6197 86.6838C88.812 86.9308 89.8069 87.7472 90.4841 88.733C90.9498 89.3764 91.9703 90.4816 92.7285 89.6286C93.1989 88.7464 92.3008 88.0106 91.5697 87.6956C90.5037 87.035 89.5923 86.1552 88.66 85.3222C87.286 84.039 86.0996 82.407 85.8815 80.4902C85.5858 78.5792 85.7415 76.6298 85.9909 74.7238C86.3049 73.4968 87.8741 72.8268 88.9712 73.4788C90.515 74.1832 92.0482 75.1912 93.8182 75.082C96.3758 75.137 99.0041 74.6474 101.503 75.3884C103.936 76.1546 105.675 78.2072 108.044 79.0954C108.574 79.4178 109.253 79.111 109.447 78.5444C109.682 78.0354 109.516 77.3842 109.026 77.094C106.28 74.3222 102.527 72.9758 99.3503 70.81C98.3501 70.556 98.1679 68.9466 99.0926 68.482C100.308 67.5986 102.028 68.01 103.107 68.9208C104.018 69.4542 105.044 69.854 106.112 69.8548C107.207 69.5122 106.676 67.9284 105.696 67.8092C103.92 66.8066 102.649 65.1612 101.11 63.8572C100.224 63.1072 99.2549 62.3478 98.0643 62.2024C97.4137 62.0838 96.7483 62.058 96.0889 62.1022C95.4705 61.4302 96.2945 60.4012 97.0941 60.4854C97.9145 60.5406 98.73 60.6016 99.5494 60.4874C100.465 60.4204 101.38 60.3256 102.299 60.3194C103.041 60.8244 104.523 59.952 103.853 59.081C103.122 58.4402 102.065 58.4958 101.191 58.167C99.6565 57.6654 98.0939 57.2547 96.5113 56.937C95.4047 56.871 95.5413 55.4146 96.5139 55.2538C97.1505 55.0164 97.7039 55.5054 98.3149 55.5812C99.3585 55.8056 100.436 55.8026 101.479 56.03C102.363 55.5934 101.68 54.3014 100.88 54.226C98.9921 53.551 97.3606 52.3328 95.7656 51.1476C94.0048 49.8234 92.4075 48.292 90.6251 46.9982C89.9783 46.5976 88.9183 46.4822 88.7483 45.594C88.6883 44.7768 89.6498 44.4048 90.3316 44.5958C91.299 44.8814 92.2003 45.3788 93.1863 45.623C93.9597 45.7546 94.7572 45.9834 95.5026 45.886C96.449 45.2912 95.0966 44.9112 94.6073 44.705C93.3456 44.0244 92.2245 43.1178 91.0889 42.253C90.1293 41.434 91.9029 41.0722 92.5129 41.3876C93.5329 41.8142 93.6491 40.328 92.8867 39.954C91.9883 39.572 91.2158 38.938 90.4012 38.3848C88.9292 37.3372 87.2625 36.5078 85.4533 36.2774C83.4247 36.0736 81.5313 34.9072 80.4551 33.1724C79.7877 32.1838 79.2979 31.0904 78.8245 30ZM72.1631 41.3802C73.2085 41.4112 73.0477 43.2956 72.0185 43.1698C71.0189 43.1054 71.0801 41.1778 72.1631 41.3802ZM82.0246 42.395C83.042 42.213 83.2575 44.0694 82.241 44.1566C81.1819 44.3462 80.7894 42.2774 82.0246 42.395ZM79.1363 42.637C80.1677 42.8398 79.9843 44.6366 78.9433 44.6522C78.1817 44.8218 77.3609 45.3416 76.5905 44.9522C75.9639 44.2894 76.8695 43.3096 77.5689 43.0942C78.1053 42.986 78.5989 42.7424 79.1363 42.637ZM85.7839 42.6448C86.7779 43.0072 86.4272 44.7618 85.3788 44.7394C84.3874 44.8724 83.9257 43.2184 84.8503 42.8262C85.1495 42.7202 85.4631 42.6308 85.7839 42.6448ZM74.5699 44.635C75.3009 45.3306 74.8691 46.673 73.9678 46.9938C73.3185 47.355 72.4328 48.2098 71.7254 47.5064C71.3414 46.6474 72.3051 46.0006 72.8719 45.5238C73.3777 45.1306 73.9359 44.7736 74.5699 44.635ZM82.9167 48.5144C83.9631 49.0084 83.4319 50.8942 82.2835 50.777C81.3403 50.538 81.4634 48.9202 82.4135 48.7912C82.593 48.7224 82.7577 48.6212 82.9167 48.5144ZM79.5965 48.7016C80.5751 49.1598 79.8279 50.793 78.8421 50.5576C77.8201 50.4376 77.8389 48.6408 78.966 48.803C79.1784 48.7926 79.3977 48.787 79.5965 48.7016ZM86.7537 49.6384C87.8263 49.3056 89.1176 50.4104 88.7696 51.5312C88.2917 52.4 87.1096 52.5098 86.2626 52.1852C85.2905 52.1372 84.6365 50.6754 85.5027 50.0564C85.8611 49.7858 86.3129 49.6744 86.7537 49.6384ZM70.9099 49.9194C71.7969 49.4368 72.7385 50.887 71.9843 51.5266C71.4846 52.2612 70.2017 52.5612 69.6361 51.7446C69.166 50.9466 69.9259 49.6064 70.9099 49.9194ZM66.8179 50.6062C67.8239 50.7438 68.4795 51.6576 68.8514 52.5278C68.942 53.588 67.3775 54.1698 66.6951 53.3984C65.9275 52.917 65.2557 51.9268 65.6581 51.0078C65.9061 50.6428 66.3999 50.4922 66.8181 50.6062H66.8179ZM91.2987 54.4386C92.3907 54.151 93.1833 55.8958 92.2457 56.527C91.3885 57.3056 89.7217 56.2742 90.1688 55.1632C90.3909 54.7512 90.8353 54.4776 91.2987 54.4386ZM77.4017 56.429C78.3173 56.5456 78.0207 58.1324 77.1741 58.079C76.2657 57.9106 76.4737 56.3396 77.4017 56.429ZM72.7577 57.272C73.5043 56.7436 74.4674 58.0332 73.8463 58.634C73.1019 59.1584 72.1363 57.8894 72.7577 57.272ZM80.1417 57.428C81.0071 57.954 81.5209 58.9346 81.6285 59.924C81.2137 60.8486 79.6117 60.6258 79.4311 59.6412C79.1145 58.8626 79.4063 57.8612 80.1415 57.4282L80.1417 57.428ZM82.7185 58.958C83.8339 58.6778 83.4334 61.0092 82.5023 60.2006C82.1926 59.833 82.3585 59.2282 82.7183 58.958H82.7185ZM66.5349 60.5814C67.2735 60.3652 68.35 60.5926 68.5538 61.4402C68.6398 62.2368 67.7639 62.6512 67.1219 62.8486C66.0933 63.1662 65.087 63.6874 63.9806 63.6174C63.1512 63.1434 62.8537 62.1734 62.5581 61.3274C63.3583 60.577 64.5368 60.7972 65.5288 60.6094C65.8638 60.5922 66.1995 60.584 66.5349 60.5814ZM91.6385 64.2344C92.5804 63.7724 93.5938 65.268 92.8052 65.9664C91.8186 67.102 89.9193 67.313 88.7393 66.359C88.5976 65.3542 89.6013 64.6242 90.4933 64.48C90.8683 64.374 91.2411 64.2158 91.6385 64.2344ZM96.9338 65.3818C98.0044 65.1976 98.8477 66.7246 98.0831 67.515C97.3597 68.606 95.6343 68.892 94.6479 67.9978C94.2632 67.0934 95.0434 66.151 95.8739 65.8608C96.2307 65.7088 96.5686 65.5142 96.9338 65.3818ZM70.3081 67.0054C71.2995 66.9074 72.2077 67.891 72.0777 68.8684C72.7953 69.5746 71.5245 70.8904 70.8095 70.159C70.1795 69.3956 70.1827 68.36 69.9387 67.4462C69.9277 67.2432 70.0781 66.9804 70.3081 67.0054ZM77.9185 67.5752C78.9435 67.132 80.2695 68.3582 79.7115 69.3962C79.3129 70.2416 77.7589 69.9582 77.8105 68.979C77.8079 68.5104 77.7701 68.03 77.9185 67.575V67.5752ZM74.216 68.2386C75.2437 68.003 76.1865 69.3352 75.6155 70.224C74.5909 70.3152 74.059 69.0992 74.216 68.2386Z" fill="#1E9A1C"/>
</svg>
