<svg width="160" height="120" viewBox="0 0 160 120" fill="none" xmlns="http://www.w3.org/2000/svg">
<path d="M0 0H160V60H0V0Z" fill="#0F3296"/>
<path d="M0 60H160V120H0V60Z" fill="#E23726"/>
<path d="M43.2804 24.46L42.9004 36.96H30.2204C28.6604 33.92 27.3804 31.36 27.3804 27.86C27.3804 24.94 29.6804 22.62 32.9804 22.62C36.4804 22.62 40.3404 23.8 43.2804 24.46Z" fill="#FDD406"/>
<path d="M28.9004 25.04V32.24V25.04ZM29.9004 24.3V33.9V24.3ZM30.9404 23.8V35.24V23.8ZM31.9404 23.56V32.54V23.56ZM32.9604 23.52V32.58V23.52ZM33.9804 23.18V32.58V23.18ZM35.0004 23.18V32.58V23.18ZM36.0204 23.28V32.68V23.28ZM37.0404 23.38V32.76V23.38ZM38.0604 23.96V33.36V23.96ZM39.0604 24.06V34.64V24.06ZM40.1004 24.06V33.46V24.06ZM41.1004 24.06V33.46V24.06Z" fill="#FDD406"/>
<path fill-rule="evenodd" clip-rule="evenodd" d="M33.9801 22.88C34.1458 22.88 34.2801 23.0143 34.2801 23.18V32.58C34.2801 32.7457 34.1458 32.88 33.9801 32.88C33.8144 32.88 33.6801 32.7457 33.6801 32.58V23.18C33.6801 23.0143 33.8144 22.88 33.9801 22.88ZM35.0001 22.88C35.1658 22.88 35.3001 23.0143 35.3001 23.18V32.58C35.3001 32.7457 35.1658 32.88 35.0001 32.88C34.8344 32.88 34.7001 32.7457 34.7001 32.58V23.18C34.7001 23.0143 34.8344 22.88 35.0001 22.88ZM36.0201 22.98C36.1858 22.98 36.3201 23.1143 36.3201 23.28V32.68C36.3201 32.8457 36.1858 32.98 36.0201 32.98C35.8544 32.98 35.7201 32.8457 35.7201 32.68V23.28C35.7201 23.1143 35.8544 22.98 36.0201 22.98ZM37.0401 23.08C37.2058 23.08 37.3401 23.2143 37.3401 23.38V32.76C37.3401 32.9257 37.2058 33.06 37.0401 33.06C36.8744 33.06 36.7401 32.9257 36.7401 32.76V23.38C36.7401 23.2143 36.8744 23.08 37.0401 23.08ZM32.9601 23.22C33.1258 23.22 33.2601 23.3543 33.2601 23.52V32.58C33.2601 32.7457 33.1258 32.88 32.9601 32.88C32.7944 32.88 32.6601 32.7457 32.6601 32.58V23.52C32.6601 23.3543 32.7944 23.22 32.9601 23.22ZM31.9401 23.26C32.1058 23.26 32.2401 23.3943 32.2401 23.56V32.54C32.2401 32.7057 32.1058 32.84 31.9401 32.84C31.7744 32.84 31.6401 32.7057 31.6401 32.54V23.56C31.6401 23.3943 31.7744 23.26 31.9401 23.26ZM30.9401 23.5C31.1058 23.5 31.2401 23.6343 31.2401 23.8V35.24C31.2401 35.4057 31.1058 35.54 30.9401 35.54C30.7744 35.54 30.6401 35.4057 30.6401 35.24V23.8C30.6401 23.6343 30.7744 23.5 30.9401 23.5ZM38.0601 23.66C38.2258 23.66 38.3601 23.7943 38.3601 23.96V33.36C38.3601 33.5257 38.2258 33.66 38.0601 33.66C37.8944 33.66 37.7601 33.5257 37.7601 33.36V23.96C37.7601 23.7943 37.8944 23.66 38.0601 23.66ZM39.0601 23.76C39.2258 23.76 39.3601 23.8943 39.3601 24.06V34.64C39.3601 34.8057 39.2258 34.94 39.0601 34.94C38.8944 34.94 38.7601 34.8057 38.7601 34.64V24.06C38.7601 23.8943 38.8944 23.76 39.0601 23.76ZM40.1001 23.76C40.2658 23.76 40.4001 23.8943 40.4001 24.06V33.46C40.4001 33.6257 40.2658 33.76 40.1001 33.76C39.9344 33.76 39.8001 33.6257 39.8001 33.46V24.06C39.8001 23.8943 39.9344 23.76 40.1001 23.76ZM41.1001 23.76C41.2658 23.76 41.4001 23.8943 41.4001 24.06V33.46C41.4001 33.6257 41.2658 33.76 41.1001 33.76C40.9344 33.76 40.8001 33.6257 40.8001 33.46V24.06C40.8001 23.8943 40.9344 23.76 41.1001 23.76ZM29.9001 24C30.0658 24 30.2001 24.1343 30.2001 24.3V33.9C30.2001 34.0657 30.0658 34.2 29.9001 34.2C29.7344 34.2 29.6001 34.0657 29.6001 33.9V24.3C29.6001 24.1343 29.7344 24 29.9001 24ZM28.9001 24.74C29.0658 24.74 29.2001 24.8743 29.2001 25.04V32.24C29.2001 32.4057 29.0658 32.54 28.9001 32.54C28.7344 32.54 28.6001 32.4057 28.6001 32.24V25.04C28.6001 24.8743 28.7344 24.74 28.9001 24.74Z" fill="black"/>
<path d="M35.2801 23.6C37.4401 23.94 42.1601 26.16 41.6201 29.14C40.8601 33.38 38.3801 31.68 35.1001 31.08L32.6201 31.9C31.7201 32.8 30.4201 33.64 29.5401 32.54H28.0601V38.3H44.3401V24.4L35.2801 23.6Z" fill="black"/>
<path fill-rule="evenodd" clip-rule="evenodd" d="M34.9825 23.5635C35.0022 23.403 35.1456 23.2869 35.3066 23.3012L44.3666 24.1012C44.5215 24.1148 44.6403 24.2445 44.6403 24.4V38.3C44.6403 38.4657 44.5059 38.6 44.3403 38.6H28.0603C27.8946 38.6 27.7603 38.4657 27.7603 38.3V32.54C27.7603 32.3743 27.8946 32.24 28.0603 32.24H29.5403C29.6314 32.24 29.7176 32.2814 29.7745 32.3526C29.9583 32.5823 30.1492 32.6943 30.3357 32.7388C30.5263 32.7842 30.7405 32.7656 30.9767 32.6858C31.4582 32.5231 31.9686 32.1274 32.4081 31.6879C32.4412 31.6548 32.4816 31.6299 32.5261 31.6152L35.0061 30.7952C35.0538 30.7794 35.1048 30.7759 35.1542 30.7849C35.7968 30.9024 36.4124 31.0623 36.979 31.2094C37.1469 31.2529 37.3104 31.2954 37.4691 31.3353C38.1762 31.5132 38.7808 31.6389 39.2973 31.6251C39.7989 31.6117 40.1975 31.4676 40.5207 31.1139C40.8559 30.747 41.1392 30.1232 41.325 29.0871L41.3251 29.0865C41.5615 27.7816 40.6538 26.5822 39.2904 25.6256C37.9437 24.6807 36.2663 24.0589 35.2336 23.8964C35.0739 23.8712 34.9628 23.724 34.9825 23.5635ZM37.8714 24.13C38.4729 24.4075 39.0803 24.7452 39.6351 25.1344C41.0366 26.1178 42.2189 27.5182 41.9155 29.1932C41.7212 30.277 41.4096 31.0306 40.9636 31.5186C40.5055 32.0199 39.9366 32.2083 39.3133 32.2249C38.7047 32.2411 38.0268 32.0943 37.3227 31.9172C37.1554 31.8751 36.9862 31.8312 36.8148 31.7867C36.2745 31.6465 35.7125 31.5006 35.1212 31.389L32.7813 32.1627C32.3287 32.607 31.7598 33.0545 31.1688 33.2542C30.8575 33.3594 30.5254 33.4008 30.1967 33.3225C29.9048 33.2529 29.6369 33.094 29.4026 32.84H28.3603V38H44.0403V24.6747L37.8714 24.13Z" fill="black"/>
<path d="M42.5601 23.58C43.1013 23.58 43.5401 23.1412 43.5401 22.6C43.5401 22.0588 43.1013 21.62 42.5601 21.62C42.0188 21.62 41.5801 22.0588 41.5801 22.6C41.5801 23.1412 42.0188 23.58 42.5601 23.58Z" fill="#FDD406"/>
<path fill-rule="evenodd" clip-rule="evenodd" d="M42.5602 22.02C42.2399 22.02 41.9802 22.2797 41.9802 22.6C41.9802 22.9204 42.2399 23.18 42.5602 23.18C42.8805 23.18 43.1402 22.9204 43.1402 22.6C43.1402 22.2797 42.8805 22.02 42.5602 22.02ZM41.1802 22.6C41.1802 21.8379 41.798 21.22 42.5602 21.22C43.3223 21.22 43.9402 21.8379 43.9402 22.6C43.9402 23.3622 43.3223 23.98 42.5602 23.98C41.798 23.98 41.1802 23.3622 41.1802 22.6Z" fill="black"/>
<path d="M40.3404 23.04C40.8816 23.04 41.3204 22.6013 41.3204 22.06C41.3204 21.5188 40.8816 21.08 40.3404 21.08C39.7991 21.08 39.3604 21.5188 39.3604 22.06C39.3604 22.6013 39.7991 23.04 40.3404 23.04Z" fill="#FDD406"/>
<path fill-rule="evenodd" clip-rule="evenodd" d="M40.34 21.48C40.0196 21.48 39.76 21.7397 39.76 22.06C39.76 22.3803 40.0196 22.64 40.34 22.64C40.6603 22.64 40.92 22.3803 40.92 22.06C40.92 21.7397 40.6603 21.48 40.34 21.48ZM38.96 22.06C38.96 21.2978 39.5778 20.68 40.34 20.68C41.1021 20.68 41.72 21.2978 41.72 22.06C41.72 22.8221 41.1021 23.44 40.34 23.44C39.5778 23.44 38.96 22.8221 38.96 22.06Z" fill="black"/>
<path d="M38.0801 22.48C38.6213 22.48 39.0601 22.0413 39.0601 21.5C39.0601 20.9588 38.6213 20.52 38.0801 20.52C37.5389 20.52 37.1001 20.9588 37.1001 21.5C37.1001 22.0413 37.5389 22.48 38.0801 22.48Z" fill="#FDD406"/>
<path fill-rule="evenodd" clip-rule="evenodd" d="M38.0802 20.92C37.7599 20.92 37.5002 21.1797 37.5002 21.5C37.5002 21.8203 37.7599 22.08 38.0802 22.08C38.4005 22.08 38.6602 21.8203 38.6602 21.5C38.6602 21.1797 38.4005 20.92 38.0802 20.92ZM36.7002 21.5C36.7002 20.7378 37.318 20.12 38.0802 20.12C38.8423 20.12 39.4602 20.7378 39.4602 21.5C39.4602 22.2621 38.8423 22.88 38.0802 22.88C37.318 22.88 36.7002 22.2621 36.7002 21.5Z" fill="black"/>
<path d="M35.8203 22.1C36.3616 22.1 36.8003 21.6613 36.8003 21.12C36.8003 20.5788 36.3616 20.14 35.8203 20.14C35.2791 20.14 34.8403 20.5788 34.8403 21.12C34.8403 21.6613 35.2791 22.1 35.8203 22.1Z" fill="#FDD406"/>
<path fill-rule="evenodd" clip-rule="evenodd" d="M35.8204 20.54C35.5001 20.54 35.2404 20.7997 35.2404 21.12C35.2404 21.4403 35.5001 21.7 35.8204 21.7C36.1408 21.7 36.4004 21.4403 36.4004 21.12C36.4004 20.7997 36.1408 20.54 35.8204 20.54ZM34.4404 21.12C34.4404 20.3578 35.0583 19.74 35.8204 19.74C36.5826 19.74 37.2004 20.3578 37.2004 21.12C37.2004 21.8821 36.5826 22.5 35.8204 22.5C35.0583 22.5 34.4404 21.8821 34.4404 21.12Z" fill="black"/>
<path d="M33.5601 21.88C34.1013 21.88 34.5401 21.4413 34.5401 20.9C34.5401 20.3588 34.1013 19.92 33.5601 19.92C33.0188 19.92 32.5801 20.3588 32.5801 20.9C32.5801 21.4413 33.0188 21.88 33.5601 21.88Z" fill="#FDD406"/>
<path fill-rule="evenodd" clip-rule="evenodd" d="M33.5602 20.32C33.2399 20.32 32.9802 20.5797 32.9802 20.9C32.9802 21.2203 33.2399 21.48 33.5602 21.48C33.8805 21.48 34.1402 21.2203 34.1402 20.9C34.1402 20.5797 33.8805 20.32 33.5602 20.32ZM32.1802 20.9C32.1802 20.1379 32.798 19.52 33.5602 19.52C34.3223 19.52 34.9402 20.1379 34.9402 20.9C34.9402 21.6622 34.3223 22.28 33.5602 22.28C32.798 22.28 32.1802 21.6622 32.1802 20.9Z" fill="black"/>
<path d="M31.3604 22C31.9016 22 32.3404 21.5613 32.3404 21.02C32.3404 20.4788 31.9016 20.04 31.3604 20.04C30.8191 20.04 30.3804 20.4788 30.3804 21.02C30.3804 21.5613 30.8191 22 31.3604 22Z" fill="#FDD406"/>
<path fill-rule="evenodd" clip-rule="evenodd" d="M31.36 20.44C31.0397 20.44 30.78 20.6997 30.78 21.02C30.78 21.3403 31.0397 21.6 31.36 21.6C31.6803 21.6 31.94 21.3403 31.94 21.02C31.94 20.6997 31.6803 20.44 31.36 20.44ZM29.98 21.02C29.98 20.2579 30.5978 19.64 31.36 19.64C32.1221 19.64 32.74 20.2579 32.74 21.02C32.74 21.7822 32.1221 22.4 31.36 22.4C30.5978 22.4 29.98 21.7822 29.98 21.02Z" fill="black"/>
<path d="M29.2403 22.72C29.7815 22.72 30.2203 22.2812 30.2203 21.74C30.2203 21.1988 29.7815 20.76 29.2403 20.76C28.699 20.76 28.2603 21.1988 28.2603 21.74C28.2603 22.2812 28.699 22.72 29.2403 22.72Z" fill="#FDD406"/>
<path fill-rule="evenodd" clip-rule="evenodd" d="M29.2404 21.16C28.92 21.16 28.6604 21.4197 28.6604 21.74C28.6604 22.0604 28.92 22.32 29.2404 22.32C29.5607 22.32 29.8204 22.0604 29.8204 21.74C29.8204 21.4197 29.5607 21.16 29.2404 21.16ZM27.8604 21.74C27.8604 20.9779 28.4782 20.36 29.2404 20.36C30.0025 20.36 30.6204 20.9779 30.6204 21.74C30.6204 22.5022 30.0025 23.12 29.2404 23.12C28.4782 23.12 27.8604 22.5022 27.8604 21.74Z" fill="black"/>
<path d="M27.46 24.04C28.0012 24.04 28.44 23.6013 28.44 23.06C28.44 22.5188 28.0012 22.08 27.46 22.08C26.9187 22.08 26.48 22.5188 26.48 23.06C26.48 23.6013 26.9187 24.04 27.46 24.04Z" fill="#FDD406"/>
<path fill-rule="evenodd" clip-rule="evenodd" d="M27.4601 22.48C27.1398 22.48 26.8801 22.7397 26.8801 23.06C26.8801 23.3803 27.1398 23.64 27.4601 23.64C27.7804 23.64 28.0401 23.3803 28.0401 23.06C28.0401 22.7397 27.7804 22.48 27.4601 22.48ZM26.0801 23.06C26.0801 22.2978 26.6979 21.68 27.4601 21.68C28.2222 21.68 28.8401 22.2978 28.8401 23.06C28.8401 23.8221 28.2222 24.44 27.4601 24.44C26.6979 24.44 26.0801 23.8221 26.0801 23.06Z" fill="black"/>
<path d="M26.2002 25.86C26.7415 25.86 27.1802 25.4213 27.1802 24.88C27.1802 24.3388 26.7415 23.9 26.2002 23.9C25.659 23.9 25.2202 24.3388 25.2202 24.88C25.2202 25.4213 25.659 25.86 26.2002 25.86Z" fill="#FDD406"/>
<path fill-rule="evenodd" clip-rule="evenodd" d="M26.2003 24.3C25.88 24.3 25.6203 24.5597 25.6203 24.88C25.6203 25.2003 25.88 25.46 26.2003 25.46C26.5206 25.46 26.7803 25.2003 26.7803 24.88C26.7803 24.5597 26.5206 24.3 26.2003 24.3ZM24.8203 24.88C24.8203 24.1178 25.4382 23.5 26.2003 23.5C26.9625 23.5 27.5803 24.1178 27.5803 24.88C27.5803 25.6422 26.9625 26.26 26.2003 26.26C25.4382 26.26 24.8203 25.6422 24.8203 24.88Z" fill="black"/>
<path d="M25.5801 28.02C26.1213 28.02 26.5601 27.5812 26.5601 27.04C26.5601 26.4988 26.1213 26.06 25.5801 26.06C25.0389 26.06 24.6001 26.4988 24.6001 27.04C24.6001 27.5812 25.0389 28.02 25.5801 28.02Z" fill="#FDD406"/>
<path fill-rule="evenodd" clip-rule="evenodd" d="M25.5802 26.46C25.2599 26.46 25.0002 26.7197 25.0002 27.04C25.0002 27.3604 25.2599 27.62 25.5802 27.62C25.9005 27.62 26.1602 27.3604 26.1602 27.04C26.1602 26.7197 25.9005 26.46 25.5802 26.46ZM24.2002 27.04C24.2002 26.2779 24.818 25.66 25.5802 25.66C26.3423 25.66 26.9602 26.2779 26.9602 27.04C26.9602 27.8022 26.3423 28.42 25.5802 28.42C24.818 28.42 24.2002 27.8022 24.2002 27.04Z" fill="black"/>
<path d="M25.6001 30.24C26.1414 30.24 26.5801 29.8013 26.5801 29.26C26.5801 28.7188 26.1414 28.28 25.6001 28.28C25.0589 28.28 24.6201 28.7188 24.6201 29.26C24.6201 29.8013 25.0589 30.24 25.6001 30.24Z" fill="#FDD406"/>
<path fill-rule="evenodd" clip-rule="evenodd" d="M25.6002 28.68C25.2799 28.68 25.0202 28.9397 25.0202 29.26C25.0202 29.5803 25.2799 29.84 25.6002 29.84C25.9205 29.84 26.1802 29.5803 26.1802 29.26C26.1802 28.9397 25.9205 28.68 25.6002 28.68ZM24.2202 29.26C24.2202 28.4979 24.8381 27.88 25.6002 27.88C26.3624 27.88 26.9802 28.4979 26.9802 29.26C26.9802 30.0222 26.3624 30.64 25.6002 30.64C24.8381 30.64 24.2202 30.0222 24.2202 29.26Z" fill="black"/>
<path d="M26.0401 32.42C26.5813 32.42 27.0201 31.9813 27.0201 31.44C27.0201 30.8988 26.5813 30.46 26.0401 30.46C25.4988 30.46 25.0601 30.8988 25.0601 31.44C25.0601 31.9813 25.4988 32.42 26.0401 32.42Z" fill="#FDD406"/>
<path fill-rule="evenodd" clip-rule="evenodd" d="M26.0402 30.86C25.7198 30.86 25.4602 31.1197 25.4602 31.44C25.4602 31.7603 25.7198 32.02 26.0402 32.02C26.3605 32.02 26.6202 31.7603 26.6202 31.44C26.6202 31.1197 26.3605 30.86 26.0402 30.86ZM24.6602 31.44C24.6602 30.6778 25.278 30.06 26.0402 30.06C26.8023 30.06 27.4202 30.6778 27.4202 31.44C27.4202 32.2021 26.8023 32.82 26.0402 32.82C25.278 32.82 24.6602 32.2021 24.6602 31.44Z" fill="black"/>
<path d="M43.0002 23.9L42.9002 25.2C40.4402 24.8 36.9602 23.44 33.7002 23.44C30.7002 23.44 28.3802 24.64 28.3802 27.68C28.3802 30.66 29.6402 33.38 31.3202 36.14L29.5802 36.94C28.0202 33.94 26.7202 31.34 26.7202 27.86C26.7202 24.94 29.0202 22.06 32.9802 22.06C36.4802 22.06 40.0602 23.26 43.0002 23.9Z" fill="#FDD406"/>
<path fill-rule="evenodd" clip-rule="evenodd" d="M32.9803 22.46C29.2465 22.46 27.1203 25.1557 27.1203 27.86C27.1203 31.1041 28.2807 33.5607 29.7597 36.4173L30.7471 35.9633C29.1709 33.3131 27.9803 30.6308 27.9803 27.68C27.9803 26.0433 28.613 24.8563 29.6833 24.0942C30.7324 23.3472 32.1567 23.04 33.7003 23.04C35.3806 23.04 37.1042 23.39 38.6959 23.7816C39.1942 23.9042 39.6764 24.03 40.1406 24.151C41.0059 24.3766 41.8085 24.5858 42.5354 24.728L42.5749 24.2151C41.9353 24.0695 41.2697 23.9019 40.5888 23.7304L40.566 23.7246C39.7685 23.5237 38.9489 23.3172 38.1131 23.1304C36.4243 22.7529 34.6873 22.46 32.9803 22.46ZM26.3203 27.86C26.3203 24.7244 28.7942 21.66 32.9803 21.66C34.7733 21.66 36.5763 21.9672 38.2876 22.3497C39.134 22.5389 39.9625 22.7476 40.757 22.9478L40.7843 22.9547C41.5893 23.1575 42.3579 23.3508 43.0854 23.5092C43.2805 23.5517 43.4144 23.7316 43.3991 23.9307L43.2991 25.2307C43.2905 25.3423 43.2356 25.4452 43.1476 25.5145C43.0596 25.5837 42.9466 25.6128 42.8361 25.5948C41.9617 25.4527 40.9533 25.1898 39.894 24.9137C39.4382 24.7949 38.9729 24.6736 38.5047 24.5584C36.9264 24.1701 35.28 23.84 33.7003 23.84C32.244 23.84 31.0083 24.1328 30.1473 24.7459C29.3077 25.3437 28.7803 26.2767 28.7803 27.68C28.7803 30.5464 29.9916 33.1879 31.662 35.9321C31.7213 36.0296 31.7362 36.1478 31.7029 36.2569C31.6695 36.3661 31.5911 36.4558 31.4874 36.5035L29.7474 37.3035C29.5535 37.3926 29.3239 37.3139 29.2254 37.1246C27.6671 34.1278 26.3203 31.4486 26.3203 27.86Z" fill="black"/>
<path d="M45.5199 24.46L45.8999 36.96H58.5799C60.1399 33.92 61.4199 31.36 61.4199 27.86C61.4199 24.94 59.1199 22.62 55.8199 22.62C52.3199 22.62 48.4599 23.8 45.5199 24.46Z" fill="#FDD406"/>
<path d="M59.8999 25.04V32.24V25.04ZM58.8999 24.3V33.9V24.3ZM57.8599 23.8V35.24V23.8ZM56.8599 23.56V32.54V23.56ZM55.8399 23.52V32.58V23.52ZM54.8199 23.18V32.58V23.18ZM53.7999 23.18V32.58V23.18ZM52.7799 23.28V32.68V23.28ZM51.7599 23.38V32.76V23.38ZM50.7399 23.96V33.36V23.96ZM49.7399 24.06V34.64V24.06ZM48.6999 24.06V33.46V24.06ZM47.6999 24.06V33.46V24.06Z" fill="#FDD406"/>
<path fill-rule="evenodd" clip-rule="evenodd" d="M54.8202 22.88C54.6545 22.88 54.5202 23.0143 54.5202 23.18V32.58C54.5202 32.7457 54.6545 32.88 54.8202 32.88C54.9859 32.88 55.1202 32.7457 55.1202 32.58V23.18C55.1202 23.0143 54.9859 22.88 54.8202 22.88ZM53.8002 22.88C53.6345 22.88 53.5002 23.0143 53.5002 23.18V32.58C53.5002 32.7457 53.6345 32.88 53.8002 32.88C53.9659 32.88 54.1002 32.7457 54.1002 32.58V23.18C54.1002 23.0143 53.9659 22.88 53.8002 22.88ZM52.7802 22.98C52.6145 22.98 52.4802 23.1143 52.4802 23.28V32.68C52.4802 32.8457 52.6145 32.98 52.7802 32.98C52.9459 32.98 53.0802 32.8457 53.0802 32.68V23.28C53.0802 23.1143 52.9459 22.98 52.7802 22.98ZM51.7602 23.08C51.5945 23.08 51.4602 23.2143 51.4602 23.38V32.76C51.4602 32.9257 51.5945 33.06 51.7602 33.06C51.9259 33.06 52.0602 32.9257 52.0602 32.76V23.38C52.0602 23.2143 51.9259 23.08 51.7602 23.08ZM55.8402 23.22C55.6745 23.22 55.5402 23.3543 55.5402 23.52V32.58C55.5402 32.7457 55.6745 32.88 55.8402 32.88C56.0059 32.88 56.1402 32.7457 56.1402 32.58V23.52C56.1402 23.3543 56.0059 23.22 55.8402 23.22ZM56.8602 23.26C56.6945 23.26 56.5602 23.3943 56.5602 23.56V32.54C56.5602 32.7057 56.6945 32.84 56.8602 32.84C57.0259 32.84 57.1602 32.7057 57.1602 32.54V23.56C57.1602 23.3943 57.0259 23.26 56.8602 23.26ZM57.8602 23.5C57.6945 23.5 57.5602 23.6343 57.5602 23.8V35.24C57.5602 35.4057 57.6945 35.54 57.8602 35.54C58.0259 35.54 58.1602 35.4057 58.1602 35.24V23.8C58.1602 23.6343 58.0259 23.5 57.8602 23.5ZM50.7402 23.66C50.5745 23.66 50.4402 23.7943 50.4402 23.96V33.36C50.4402 33.5257 50.5745 33.66 50.7402 33.66C50.9059 33.66 51.0402 33.5257 51.0402 33.36V23.96C51.0402 23.7943 50.9059 23.66 50.7402 23.66ZM49.7402 23.76C49.5745 23.76 49.4402 23.8943 49.4402 24.06V34.64C49.4402 34.8057 49.5745 34.94 49.7402 34.94C49.9059 34.94 50.0402 34.8057 50.0402 34.64V24.06C50.0402 23.8943 49.9059 23.76 49.7402 23.76ZM48.7002 23.76C48.5345 23.76 48.4002 23.8943 48.4002 24.06V33.46C48.4002 33.6257 48.5345 33.76 48.7002 33.76C48.8659 33.76 49.0002 33.6257 49.0002 33.46V24.06C49.0002 23.8943 48.8659 23.76 48.7002 23.76ZM47.7002 23.76C47.5345 23.76 47.4002 23.8943 47.4002 24.06V33.46C47.4002 33.6257 47.5345 33.76 47.7002 33.76C47.8659 33.76 48.0002 33.6257 48.0002 33.46V24.06C48.0002 23.8943 47.8659 23.76 47.7002 23.76ZM58.9002 24C58.7345 24 58.6002 24.1343 58.6002 24.3V33.9C58.6002 34.0657 58.7345 34.2 58.9002 34.2C59.0659 34.2 59.2002 34.0657 59.2002 33.9V24.3C59.2002 24.1343 59.0659 24 58.9002 24ZM59.9002 24.74C59.7345 24.74 59.6002 24.8743 59.6002 25.04V32.24C59.6002 32.4057 59.7345 32.54 59.9002 32.54C60.0659 32.54 60.2002 32.4057 60.2002 32.24V25.04C60.2002 24.8743 60.0659 24.74 59.9002 24.74Z" fill="black"/>
<path d="M53.5202 23.6C51.3602 23.94 46.6402 26.16 47.1802 29.14C47.9402 33.38 50.4202 31.68 53.7002 31.08L56.1802 31.9C57.0802 32.8 58.3802 33.64 59.2602 32.54H60.7402V38.3H44.4602V24.4L53.5202 23.6Z" fill="black"/>
<path fill-rule="evenodd" clip-rule="evenodd" d="M53.8178 23.5635C53.7981 23.403 53.6547 23.2869 53.4937 23.3012L44.4337 24.1012C44.2788 24.1148 44.16 24.2445 44.16 24.4V38.3C44.16 38.4657 44.2944 38.6 44.46 38.6H60.74C60.9057 38.6 61.04 38.4657 61.04 38.3V32.54C61.04 32.3743 60.9057 32.24 60.74 32.24H59.26C59.1689 32.24 59.0827 32.2814 59.0258 32.3526C58.842 32.5823 58.6511 32.6943 58.4646 32.7388C58.274 32.7842 58.0598 32.7656 57.8236 32.6858C57.3421 32.5231 56.8317 32.1274 56.3922 31.6879C56.3591 31.6548 56.3187 31.6299 56.2742 31.6152L53.7942 30.7952C53.7465 30.7794 53.6955 30.7759 53.6461 30.7849C53.0035 30.9024 52.3879 31.0623 51.8213 31.2094C51.6534 31.2529 51.4899 31.2954 51.3312 31.3353C50.6241 31.5132 50.0195 31.6389 49.503 31.6251C49.0014 31.6117 48.6028 31.4676 48.2796 31.1139C47.9444 30.747 47.661 30.1232 47.4753 29.0871L47.4752 29.0865C47.2388 27.7816 48.1465 26.5822 49.5098 25.6256C50.8566 24.6807 52.534 24.0589 53.5667 23.8964C53.7264 23.8712 53.8375 23.724 53.8178 23.5635ZM50.9289 24.13C50.3274 24.4075 49.72 24.7452 49.1652 25.1344C47.7637 26.1178 46.5814 27.5182 46.8848 29.1932C47.0791 30.277 47.3907 31.0306 47.8367 31.5186C48.2948 32.0199 48.8637 32.2083 49.487 32.2249C50.0956 32.2411 50.7735 32.0943 51.4776 31.9172C51.6449 31.8751 51.8141 31.8312 51.9855 31.7867C52.5258 31.6465 53.0878 31.5006 53.6791 31.389L56.019 32.1627C56.4716 32.607 57.0405 33.0545 57.6315 33.2542C57.9428 33.3594 58.2749 33.4008 58.6036 33.3225C58.8955 33.2529 59.1634 33.094 59.3977 32.84H60.44V38H44.76V24.6747L50.9289 24.13Z" fill="black"/>
<path d="M46.2402 23.58C45.699 23.58 45.2602 23.1412 45.2602 22.6C45.2602 22.0588 45.699 21.62 46.2402 21.62C46.7815 21.62 47.2202 22.0588 47.2202 22.6C47.2202 23.1412 46.7815 23.58 46.2402 23.58Z" fill="#FDD406"/>
<path fill-rule="evenodd" clip-rule="evenodd" d="M46.2401 22.02C46.5604 22.02 46.8201 22.2797 46.8201 22.6C46.8201 22.9204 46.5604 23.18 46.2401 23.18C45.9198 23.18 45.6601 22.9204 45.6601 22.6C45.6601 22.2797 45.9198 22.02 46.2401 22.02ZM47.6201 22.6C47.6201 21.8379 47.0023 21.22 46.2401 21.22C45.478 21.22 44.8601 21.8379 44.8601 22.6C44.8601 23.3622 45.478 23.98 46.2401 23.98C47.0023 23.98 47.6201 23.3622 47.6201 22.6Z" fill="black"/>
<path d="M48.4599 23.04C47.9187 23.04 47.4799 22.6013 47.4799 22.06C47.4799 21.5188 47.9187 21.08 48.4599 21.08C49.0012 21.08 49.4399 21.5188 49.4399 22.06C49.4399 22.6013 49.0012 23.04 48.4599 23.04Z" fill="#FDD406"/>
<path fill-rule="evenodd" clip-rule="evenodd" d="M48.4603 21.48C48.7807 21.48 49.0403 21.7397 49.0403 22.06C49.0403 22.3803 48.7807 22.64 48.4603 22.64C48.14 22.64 47.8803 22.3803 47.8803 22.06C47.8803 21.7397 48.14 21.48 48.4603 21.48ZM49.8403 22.06C49.8403 21.2978 49.2225 20.68 48.4603 20.68C47.6982 20.68 47.0803 21.2978 47.0803 22.06C47.0803 22.8221 47.6982 23.44 48.4603 23.44C49.2225 23.44 49.8403 22.8221 49.8403 22.06Z" fill="black"/>
<path d="M50.7202 22.48C50.179 22.48 49.7402 22.0413 49.7402 21.5C49.7402 20.9588 50.179 20.52 50.7202 20.52C51.2614 20.52 51.7002 20.9588 51.7002 21.5C51.7002 22.0413 51.2614 22.48 50.7202 22.48Z" fill="#FDD406"/>
<path fill-rule="evenodd" clip-rule="evenodd" d="M50.7201 20.92C51.0404 20.92 51.3001 21.1797 51.3001 21.5C51.3001 21.8203 51.0404 22.08 50.7201 22.08C50.3998 22.08 50.1401 21.8203 50.1401 21.5C50.1401 21.1797 50.3998 20.92 50.7201 20.92ZM52.1001 21.5C52.1001 20.7378 51.4823 20.12 50.7201 20.12C49.9579 20.12 49.3401 20.7378 49.3401 21.5C49.3401 22.2621 49.9579 22.88 50.7201 22.88C51.4823 22.88 52.1001 22.2621 52.1001 21.5Z" fill="black"/>
<path d="M52.98 22.1C52.4387 22.1 52 21.6613 52 21.12C52 20.5788 52.4387 20.14 52.98 20.14C53.5212 20.14 53.96 20.5788 53.96 21.12C53.96 21.6613 53.5212 22.1 52.98 22.1Z" fill="#FDD406"/>
<path fill-rule="evenodd" clip-rule="evenodd" d="M52.9799 20.54C53.3002 20.54 53.5599 20.7997 53.5599 21.12C53.5599 21.4403 53.3002 21.7 52.9799 21.7C52.6595 21.7 52.3999 21.4403 52.3999 21.12C52.3999 20.7997 52.6595 20.54 52.9799 20.54ZM54.3599 21.12C54.3599 20.3578 53.742 19.74 52.9799 19.74C52.2177 19.74 51.5999 20.3578 51.5999 21.12C51.5999 21.8821 52.2177 22.5 52.9799 22.5C53.742 22.5 54.3599 21.8821 54.3599 21.12Z" fill="black"/>
<path d="M55.2402 21.88C54.699 21.88 54.2602 21.4413 54.2602 20.9C54.2602 20.3588 54.699 19.92 55.2402 19.92C55.7815 19.92 56.2202 20.3588 56.2202 20.9C56.2202 21.4413 55.7815 21.88 55.2402 21.88Z" fill="#FDD406"/>
<path fill-rule="evenodd" clip-rule="evenodd" d="M55.2401 20.32C55.5604 20.32 55.8201 20.5797 55.8201 20.9C55.8201 21.2203 55.5604 21.48 55.2401 21.48C54.9198 21.48 54.6601 21.2203 54.6601 20.9C54.6601 20.5797 54.9198 20.32 55.2401 20.32ZM56.6201 20.9C56.6201 20.1379 56.0023 19.52 55.2401 19.52C54.478 19.52 53.8601 20.1379 53.8601 20.9C53.8601 21.6622 54.478 22.28 55.2401 22.28C56.0023 22.28 56.6201 21.6622 56.6201 20.9Z" fill="black"/>
<path d="M57.4399 22C56.8987 22 56.4599 21.5613 56.4599 21.02C56.4599 20.4788 56.8987 20.04 57.4399 20.04C57.9812 20.04 58.4199 20.4788 58.4199 21.02C58.4199 21.5613 57.9812 22 57.4399 22Z" fill="#FDD406"/>
<path fill-rule="evenodd" clip-rule="evenodd" d="M57.4403 20.44C57.7606 20.44 58.0203 20.6997 58.0203 21.02C58.0203 21.3403 57.7606 21.6 57.4403 21.6C57.12 21.6 56.8603 21.3403 56.8603 21.02C56.8603 20.6997 57.12 20.44 57.4403 20.44ZM58.8203 21.02C58.8203 20.2579 58.2025 19.64 57.4403 19.64C56.6782 19.64 56.0603 20.2579 56.0603 21.02C56.0603 21.7822 56.6782 22.4 57.4403 22.4C58.2025 22.4 58.8203 21.7822 58.8203 21.02Z" fill="black"/>
<path d="M59.56 22.72C59.0188 22.72 58.58 22.2812 58.58 21.74C58.58 21.1988 59.0188 20.76 59.56 20.76C60.1013 20.76 60.54 21.1988 60.54 21.74C60.54 22.2812 60.1013 22.72 59.56 22.72Z" fill="#FDD406"/>
<path fill-rule="evenodd" clip-rule="evenodd" d="M59.5599 21.16C59.8803 21.16 60.1399 21.4197 60.1399 21.74C60.1399 22.0604 59.8803 22.32 59.5599 22.32C59.2396 22.32 58.9799 22.0604 58.9799 21.74C58.9799 21.4197 59.2396 21.16 59.5599 21.16ZM60.9399 21.74C60.9399 20.9779 60.3221 20.36 59.5599 20.36C58.7978 20.36 58.1799 20.9779 58.1799 21.74C58.1799 22.5022 58.7978 23.12 59.5599 23.12C60.3221 23.12 60.9399 22.5022 60.9399 21.74Z" fill="black"/>
<path d="M61.3403 24.04C60.7991 24.04 60.3603 23.6013 60.3603 23.06C60.3603 22.5188 60.7991 22.08 61.3403 22.08C61.8815 22.08 62.3203 22.5188 62.3203 23.06C62.3203 23.6013 61.8815 24.04 61.3403 24.04Z" fill="#FDD406"/>
<path fill-rule="evenodd" clip-rule="evenodd" d="M61.3402 22.48C61.6605 22.48 61.9202 22.7397 61.9202 23.06C61.9202 23.3803 61.6605 23.64 61.3402 23.64C61.0199 23.64 60.7602 23.3803 60.7602 23.06C60.7602 22.7397 61.0199 22.48 61.3402 22.48ZM62.7202 23.06C62.7202 22.2978 62.1024 21.68 61.3402 21.68C60.5781 21.68 59.9602 22.2978 59.9602 23.06C59.9602 23.8221 60.5781 24.44 61.3402 24.44C62.1024 24.44 62.7202 23.8221 62.7202 23.06Z" fill="black"/>
<path d="M62.6001 25.86C62.0588 25.86 61.6201 25.4213 61.6201 24.88C61.6201 24.3388 62.0588 23.9 62.6001 23.9C63.1413 23.9 63.5801 24.3388 63.5801 24.88C63.5801 25.4213 63.1413 25.86 62.6001 25.86Z" fill="#FDD406"/>
<path fill-rule="evenodd" clip-rule="evenodd" d="M62.6 24.3C62.9203 24.3 63.18 24.5597 63.18 24.88C63.18 25.2003 62.9203 25.46 62.6 25.46C62.2797 25.46 62.02 25.2003 62.02 24.88C62.02 24.5597 62.2797 24.3 62.6 24.3ZM63.98 24.88C63.98 24.1178 63.3621 23.5 62.6 23.5C61.8378 23.5 61.22 24.1178 61.22 24.88C61.22 25.6422 61.8378 26.26 62.6 26.26C63.3621 26.26 63.98 25.6422 63.98 24.88Z" fill="black"/>
<path d="M63.2202 28.02C62.679 28.02 62.2402 27.5812 62.2402 27.04C62.2402 26.4988 62.679 26.06 63.2202 26.06C63.7614 26.06 64.2002 26.4988 64.2002 27.04C64.2002 27.5812 63.7614 28.02 63.2202 28.02Z" fill="#FDD406"/>
<path fill-rule="evenodd" clip-rule="evenodd" d="M63.2201 26.46C63.5404 26.46 63.8001 26.7197 63.8001 27.04C63.8001 27.3604 63.5404 27.62 63.2201 27.62C62.8998 27.62 62.6401 27.3604 62.6401 27.04C62.6401 26.7197 62.8998 26.46 63.2201 26.46ZM64.6001 27.04C64.6001 26.2779 63.9822 25.66 63.2201 25.66C62.4579 25.66 61.8401 26.2779 61.8401 27.04C61.8401 27.8022 62.4579 28.42 63.2201 28.42C63.9823 28.42 64.6001 27.8022 64.6001 27.04Z" fill="black"/>
<path d="M63.2002 30.24C62.6589 30.24 62.2202 29.8013 62.2202 29.26C62.2202 28.7188 62.6589 28.28 63.2002 28.28C63.7414 28.28 64.1802 28.7188 64.1802 29.26C64.1802 29.8013 63.7414 30.24 63.2002 30.24Z" fill="#FDD406"/>
<path fill-rule="evenodd" clip-rule="evenodd" d="M63.2001 28.68C63.5204 28.68 63.7801 28.9397 63.7801 29.26C63.7801 29.5803 63.5204 29.84 63.2001 29.84C62.8798 29.84 62.6201 29.5803 62.6201 29.26C62.6201 28.9397 62.8798 28.68 63.2001 28.68ZM64.5801 29.26C64.5801 28.4979 63.9622 27.88 63.2001 27.88C62.4379 27.88 61.8201 28.4979 61.8201 29.26C61.8201 30.0222 62.4379 30.64 63.2001 30.64C63.9622 30.64 64.5801 30.0222 64.5801 29.26Z" fill="black"/>
<path d="M62.7602 32.42C62.219 32.42 61.7802 31.9813 61.7802 31.44C61.7802 30.8988 62.219 30.46 62.7602 30.46C63.3015 30.46 63.7402 30.8988 63.7402 31.44C63.7402 31.9813 63.3015 32.42 62.7602 32.42Z" fill="#FDD406"/>
<path fill-rule="evenodd" clip-rule="evenodd" d="M62.7601 30.86C63.0805 30.86 63.3401 31.1197 63.3401 31.44C63.3401 31.7603 63.0805 32.02 62.7601 32.02C62.4398 32.02 62.1801 31.7603 62.1801 31.44C62.1801 31.1197 62.4398 30.86 62.7601 30.86ZM64.1401 31.44C64.1401 30.6778 63.5223 30.06 62.7601 30.06C61.998 30.06 61.3801 30.6778 61.3801 31.44C61.3801 32.2021 61.998 32.82 62.7601 32.82C63.5223 32.82 64.1401 32.2021 64.1401 31.44Z" fill="black"/>
<path d="M45.8001 23.9L45.9001 25.2C48.3601 24.8 51.8401 23.44 55.1001 23.44C58.1001 23.44 60.4201 24.64 60.4201 27.68C60.4201 30.66 59.1601 33.38 57.4801 36.14L59.2201 36.94C60.7801 33.94 62.0801 31.34 62.0801 27.86C62.0801 24.94 59.7801 22.06 55.8201 22.06C52.3201 22.06 48.7401 23.26 45.8001 23.9Z" fill="#FDD406"/>
<path fill-rule="evenodd" clip-rule="evenodd" d="M55.82 22.46C59.5538 22.46 61.68 25.1557 61.68 27.86C61.68 31.1041 60.5196 33.5607 59.0406 36.4173L58.0532 35.9633C59.6294 33.3131 60.82 30.6308 60.82 27.68C60.82 26.0433 60.1873 24.8563 59.117 24.0942C58.0679 23.3472 56.6436 23.04 55.1 23.04C53.4197 23.04 51.6961 23.39 50.1044 23.7816C49.6061 23.9042 49.1239 24.03 48.6597 24.151C47.7944 24.3766 46.9918 24.5858 46.2649 24.728L46.2254 24.2151C46.865 24.0695 47.5306 23.9019 48.2115 23.7304L48.2343 23.7246C49.0318 23.5237 49.8514 23.3172 50.6872 23.1304C52.376 22.7529 54.113 22.46 55.82 22.46ZM62.48 27.86C62.48 24.7244 60.0061 21.66 55.82 21.66C54.027 21.66 52.224 21.9672 50.5127 22.3497C49.6663 22.5389 48.8378 22.7476 48.0433 22.9478L48.016 22.9547C47.211 23.1575 46.4424 23.3508 45.7149 23.5092C45.5198 23.5517 45.3858 23.7316 45.4012 23.9307L45.5012 25.2307C45.5097 25.3423 45.5647 25.4452 45.6527 25.5145C45.7407 25.5837 45.8537 25.6128 45.9642 25.5948C46.8386 25.4527 47.847 25.1898 48.9063 24.9137C49.3621 24.7949 49.8274 24.6736 50.2956 24.5584C51.8739 24.1701 53.5203 23.84 55.1 23.84C56.5563 23.84 57.792 24.1328 58.653 24.7459C59.4926 25.3437 60.02 26.2767 60.02 27.68C60.02 30.5464 58.8087 33.1879 57.1383 35.9321C57.079 36.0296 57.0641 36.1478 57.0974 36.2569C57.1308 36.3661 57.2092 36.4558 57.3129 36.5035L59.0529 37.3035C59.2467 37.3926 59.4764 37.3139 59.5749 37.1246C61.1332 34.1278 62.48 31.4486 62.48 27.86Z" fill="black"/>
<path d="M44.4002 10.62L43.3602 12.56L44.4002 14.48L45.4202 12.56L44.4002 10.6V10.62ZM44.4002 15.5L43.3602 17.42L44.4002 19.36L45.4002 17.4L44.3802 15.48L44.4002 15.5ZM40.7202 15L42.3402 16.02L43.9602 15L42.3602 13.96L40.7202 15ZM44.8202 15L46.4402 16.02L48.0802 15L46.4402 13.96L44.8402 15H44.8202Z" fill="#FDD406"/>
<path fill-rule="evenodd" clip-rule="evenodd" d="M44.3053 10.2114C44.4843 10.1677 44.6701 10.2518 44.7551 10.4153L45.7751 12.3753C45.8359 12.4921 45.8353 12.6314 45.7736 12.7477L44.8252 14.5327L46.2223 13.6246C46.3535 13.5393 46.5224 13.5384 46.6545 13.6222L48.2945 14.6622C48.4107 14.7359 48.4809 14.8641 48.4803 15.0017C48.4797 15.1393 48.4084 15.267 48.2916 15.3397L46.6516 16.3597C46.5215 16.4405 46.3568 16.4401 46.2272 16.3585L44.8339 15.4812L45.7536 17.2123C45.8148 17.3276 45.8159 17.4655 45.7566 17.5818L44.7566 19.5418C44.689 19.6744 44.5532 19.7585 44.4044 19.76C44.2555 19.7615 44.1181 19.6802 44.0478 19.549L43.0078 17.609C42.9442 17.4904 42.9445 17.3478 43.0086 17.2295L43.9601 15.4728L42.5534 16.3585C42.4232 16.4405 42.2574 16.4405 42.1272 16.3585L40.5072 15.3385C40.3911 15.2654 40.3205 15.1378 40.3203 15.0006C40.3201 14.8634 40.3902 14.7357 40.5061 14.6622L42.1461 13.6222C42.2782 13.5384 42.4471 13.5393 42.5783 13.6246L43.9732 14.5313L43.0086 12.7505C42.9445 12.6322 42.9442 12.4896 43.0078 12.371L44.0152 10.4918C44.0535 10.3555 44.1625 10.2464 44.3053 10.2114ZM44.4003 11.4665L43.8147 12.559L44.3969 13.6338L44.9684 12.5581L44.4003 11.4665ZM44.3404 14.8755C44.3537 14.9161 44.3606 14.959 44.3603 15.0029C44.3601 15.0294 44.3573 15.0555 44.352 15.081C44.3777 15.0792 44.4035 15.0798 44.429 15.083C44.4157 15.0202 44.4173 14.9538 44.436 14.8891C44.4371 14.8854 44.4382 14.8817 44.4393 14.8781C44.427 14.8793 44.4145 14.8799 44.4019 14.88C44.3812 14.8801 44.3606 14.8785 44.3404 14.8755ZM45.5727 15.001L46.4416 15.5481L47.3282 14.9967L46.443 14.4353L45.5727 15.001ZM44.3922 16.3549L44.9494 17.4037L44.3915 18.497L43.8147 17.421L44.3922 16.3549ZM41.4691 14.9988L42.3403 15.5473L43.2181 14.9946L42.3576 14.4353L41.4691 14.9988Z" fill="black"/>
<path d="M44.4001 15.8C44.8309 15.8 45.1801 15.4508 45.1801 15.02C45.1801 14.5892 44.8309 14.24 44.4001 14.24C43.9693 14.24 43.6201 14.5892 43.6201 15.02C43.6201 15.4508 43.9693 15.8 44.4001 15.8Z" fill="#FDD406"/>
<path fill-rule="evenodd" clip-rule="evenodd" d="M44.4002 14.64C44.1903 14.64 44.0202 14.8101 44.0202 15.02C44.0202 15.2298 44.1903 15.4 44.4002 15.4C44.6101 15.4 44.7802 15.2298 44.7802 15.02C44.7802 14.8101 44.6101 14.64 44.4002 14.64ZM43.2202 15.02C43.2202 14.3683 43.7485 13.84 44.4002 13.84C45.0519 13.84 45.5802 14.3683 45.5802 15.02C45.5802 15.6717 45.0519 16.2 44.4002 16.2C43.7485 16.2 43.2202 15.6717 43.2202 15.02Z" fill="black"/>
<path d="M44.4003 22.1C45.5601 22.1 46.5003 21.1598 46.5003 20C46.5003 18.8402 45.5601 17.9 44.4003 17.9C43.2405 17.9 42.3003 18.8402 42.3003 20C42.3003 21.1598 43.2405 22.1 44.4003 22.1Z" fill="#FDD406"/>
<path fill-rule="evenodd" clip-rule="evenodd" d="M44.3999 18.3C43.461 18.3 42.6999 19.0611 42.6999 20C42.6999 20.9389 43.461 21.7 44.3999 21.7C45.3388 21.7 46.0999 20.9389 46.0999 20C46.0999 19.0611 45.3388 18.3 44.3999 18.3ZM41.8999 20C41.8999 18.6193 43.0192 17.5 44.3999 17.5C45.7806 17.5 46.8999 18.6193 46.8999 20C46.8999 21.3807 45.7806 22.5 44.3999 22.5C43.0192 22.5 41.8999 21.3807 41.8999 20Z" fill="black"/>
<path fill-rule="evenodd" clip-rule="evenodd" d="M43.8601 17.68C44.0258 17.68 44.1601 17.8143 44.1601 17.98V19.3C44.1601 19.4601 44.0344 19.5919 43.8745 19.5996C43.3904 19.623 42.908 19.6751 42.4301 19.7558C42.2667 19.7834 42.1119 19.6733 42.0843 19.5099C42.0567 19.3466 42.1668 19.1918 42.3302 19.1642C42.7376 19.0954 43.1481 19.0464 43.5601 19.0173V17.98C43.5601 17.8143 43.6944 17.68 43.8601 17.68ZM44.9201 17.68C45.0858 17.68 45.2201 17.8143 45.2201 17.98V19.0166C45.6389 19.0451 46.056 19.0944 46.47 19.1642C46.6334 19.1917 46.7435 19.3465 46.7159 19.5099C46.6884 19.6732 46.5336 19.7834 46.3702 19.7558C45.8859 19.6742 45.3971 19.622 44.9065 19.5997C44.7462 19.5924 44.6201 19.4604 44.6201 19.3V17.98C44.6201 17.8143 44.7544 17.68 44.9201 17.68ZM44.3987 20.04L44.4001 20.04C45.0973 20.04 45.7959 20.1015 46.4554 20.2251C46.6182 20.2557 46.7255 20.4124 46.695 20.5753C46.6644 20.7381 46.5077 20.8454 46.3448 20.8149C45.7246 20.6986 45.0634 20.64 44.4008 20.64C43.7339 20.643 43.0684 20.7018 42.4113 20.8156C42.248 20.8439 42.0928 20.7344 42.0645 20.5712C42.0362 20.4079 42.1457 20.2527 42.3089 20.2244C42.9992 20.1048 43.6982 20.0432 44.3987 20.04Z" fill="black"/>
<path d="M42.3599 23.54C42.1599 26.94 41.7599 30.44 40.4199 32.96L42.5799 32.08C43.3399 29.22 43.4999 25.52 43.7199 23.76L42.3599 23.54ZM46.4399 23.54L45.0599 23.76C45.2999 25.52 45.4599 29.22 46.1999 32.08L48.3599 32.96C47.0399 30.44 46.6399 26.96 46.4399 23.54Z" fill="#FDD406"/>
<path fill-rule="evenodd" clip-rule="evenodd" d="M42.1098 23.2279C42.1981 23.1572 42.3122 23.1271 42.4239 23.1452L43.7839 23.3652C43.9964 23.3995 44.1436 23.596 44.1169 23.8096C44.0627 24.2433 44.0114 24.8107 43.9524 25.4634C43.7794 27.3775 43.5401 30.0247 42.9666 32.1827C42.9344 32.304 42.8471 32.4031 42.7309 32.4505L40.5709 33.3305C40.415 33.394 40.236 33.3531 40.1232 33.2281C40.0103 33.1031 39.9878 32.9209 40.0669 32.7722C41.3609 30.3387 41.7604 26.9217 41.9607 23.5165C41.9674 23.4036 42.0215 23.2987 42.1098 23.2279ZM46.6907 23.2283C46.7787 23.2991 46.8327 23.4038 46.8393 23.5167C47.0396 26.9411 47.4391 30.3397 48.7144 32.7744C48.7923 32.9232 48.769 33.1047 48.6561 33.229C48.5431 33.3533 48.3646 33.3938 48.2091 33.3305L46.0491 32.4505C45.9321 32.4028 45.8444 32.3026 45.8128 32.1802C45.4353 30.7212 45.2079 29.0577 45.0448 27.5505C44.9731 26.8876 44.9144 26.2614 44.8611 25.6933C44.7916 24.9522 44.7313 24.3101 44.6637 23.8141C44.6343 23.5987 44.7824 23.3992 44.9971 23.365L46.3771 23.145C46.4887 23.1272 46.6026 23.1575 46.6907 23.2283ZM45.5048 24.0942C45.556 24.5376 45.6059 25.0678 45.6605 25.6485C45.7139 26.2167 45.7719 26.8333 45.8402 27.4645C45.9948 28.8937 46.2045 30.431 46.5383 31.7859L47.5702 32.2063C46.6007 29.8404 46.2514 26.8875 46.0676 24.0044L45.5048 24.0942ZM42.7322 24.0054C42.5485 26.8715 42.1988 29.8349 41.2168 32.2035L42.2432 31.7853C42.7613 29.7395 42.9806 27.3145 43.1479 25.4656C43.1938 24.9584 43.2357 24.4946 43.2789 24.0939L42.7322 24.0054Z" fill="black"/>
<path d="M44.4 30.94C41.8 30.94 39.9 32.14 39.8 35.26C39.16 34.14 36.5 30.66 34 31.12C32.52 31.4 31.2 33.46 31.44 35.8C30.2 32.28 26.62 31.7 23.98 33.8C26.32 35.7 27.36 41.36 29.32 43.8H59.46C61.42 41.36 62.46 35.7 64.8 33.8C62.18 31.7 58.58 32.28 57.36 35.8C57.56 33.46 56.26 31.4 54.76 31.12C52.28 30.66 49.62 34.14 48.98 35.26C48.88 32.16 46.98 30.94 44.38 30.94H44.4Z" fill="#FDD406"/>
<path fill-rule="evenodd" clip-rule="evenodd" d="M44.3746 30.54C44.3764 30.54 44.3782 30.54 44.3801 30.54H44.4001C44.4019 30.54 44.4038 30.54 44.4056 30.54C45.7519 30.544 46.9731 30.8626 47.877 31.633C48.5717 32.2252 49.0451 33.0549 49.2574 34.1305C49.6813 33.5639 50.2531 32.8955 50.912 32.3006C51.9808 31.3357 53.3946 30.4599 54.833 30.7267L54.8335 30.7268C55.735 30.8951 56.5197 31.5814 57.0438 32.4871C57.3418 33.0022 57.565 33.6024 57.6838 34.2522C58.391 33.2118 59.371 32.5584 60.4641 32.303C61.9793 31.9489 63.6578 32.3717 65.0502 33.4879C65.1446 33.5635 65.1997 33.6778 65.2001 33.7987C65.2005 33.9197 65.1461 34.0343 65.0522 34.1105C64.5262 34.5376 64.0523 35.1951 63.6051 36.0129C63.1597 36.8272 62.7563 37.7707 62.358 38.7484C62.2647 38.9773 62.1716 39.2085 62.0784 39.44C61.7764 40.1895 61.4728 40.9431 61.1566 41.6405C60.7429 42.5526 60.2939 43.4006 59.7719 44.0505C59.696 44.145 59.5813 44.2 59.4601 44.2H29.3201C29.1988 44.2 29.0842 44.145 29.0082 44.0505C28.4862 43.4006 28.0372 42.5526 27.6236 41.6405C27.3073 40.9431 27.0037 40.1894 26.7018 39.4399C26.6085 39.2084 26.5154 38.9773 26.4221 38.7484C26.0238 37.7707 25.6205 36.8272 25.1751 36.0129C24.7279 35.1951 24.254 34.5376 23.7279 34.1105C23.6339 34.0341 23.5795 33.9192 23.5801 33.798C23.5807 33.6768 23.6362 33.5624 23.7311 33.4869C25.1327 32.372 26.8106 31.9488 28.3261 32.303C29.4145 32.5573 30.3903 33.206 31.1002 34.2379C31.2145 33.5936 31.4344 32.9987 31.7284 32.4879C32.2499 31.5821 33.0343 30.8956 33.9257 30.727L33.9277 30.7266L33.9277 30.7266C35.375 30.4603 36.7932 31.3346 37.8653 32.3003C38.5255 32.895 39.0977 33.563 39.5219 34.1295C39.7336 33.0476 40.2073 32.2164 40.9037 31.6251C41.8082 30.8569 43.0296 30.5439 44.3746 30.54ZM44.39 31.34C43.1496 31.3415 42.1343 31.6295 41.4215 32.2349C40.716 32.834 40.2472 33.795 40.1999 35.2728C40.1941 35.4517 40.0702 35.605 39.8965 35.6482C39.7228 35.6913 39.5416 35.6138 39.4528 35.4584C39.1519 34.9319 38.3529 33.8162 37.3299 32.8947C36.2873 31.9556 35.1259 31.3201 34.0734 31.5132C33.4852 31.6249 32.87 32.1083 32.4217 32.887C31.9782 33.6575 31.7266 34.6736 31.838 35.7592C31.8587 35.9608 31.7253 36.146 31.5275 36.1903C31.3298 36.2346 31.1301 36.124 31.0628 35.9329C30.4836 34.2887 29.3783 33.3704 28.1441 33.082C27.0252 32.8205 25.7546 33.0664 24.6095 33.8346C25.0892 34.3243 25.5042 34.9474 25.877 35.629C26.346 36.4865 26.7638 37.4667 27.163 38.4466C27.2592 38.6826 27.3541 38.9183 27.4485 39.1526C27.749 39.8985 28.0437 40.6298 28.3522 41.3101C28.7235 42.1289 29.1034 42.847 29.5162 43.4H59.2639C59.6767 42.847 60.0567 42.1289 60.428 41.3101C60.7365 40.6298 61.0311 39.8984 61.3317 39.1525C61.426 38.9183 61.521 38.6826 61.6171 38.4466C62.0163 37.4667 62.4342 36.4865 62.9032 35.629C63.2762 34.9469 63.6916 34.3233 64.1718 33.8335C63.0348 33.0665 61.765 32.8205 60.6461 33.082C59.4118 33.3704 58.3073 34.2885 57.738 35.931C57.6719 36.1216 57.4743 36.2332 57.2769 36.1912C57.0796 36.1493 56.9443 35.9669 56.9615 35.7659C57.0546 34.6772 56.7976 33.6591 56.3514 32.8878C55.9005 32.1087 55.2852 31.625 54.6868 31.5132C53.6454 31.3202 52.4893 31.9544 51.4481 32.8944C50.4274 33.816 49.6283 34.9319 49.3274 35.4584C49.2386 35.6138 49.0574 35.6913 48.8837 35.6482C48.71 35.605 48.5861 35.4518 48.5803 35.2729C48.533 33.8057 48.0646 32.844 47.3581 32.2419C46.6447 31.6339 45.6291 31.3415 44.39 31.34Z" fill="black"/>
<path d="M44.4001 41.8C40.2448 41.8 36.4732 41.9501 33.7361 42.2391C32.3698 42.3834 31.2484 42.5636 30.4628 42.7812C30.0723 42.8893 29.7457 43.0118 29.5102 43.1547C29.2904 43.2881 29.0601 43.4957 29.0601 43.8C29.0601 44.0962 29.2738 44.3179 29.4926 44.4727C29.7254 44.6375 30.0503 44.7888 30.4417 44.929C31.2283 45.2108 32.3507 45.4711 33.7194 45.6936C36.4609 46.1392 40.2374 46.44 44.4001 46.44C48.563 46.44 52.3345 46.1342 55.071 45.686C56.4373 45.4623 57.557 45.2013 58.3415 44.9206C58.7318 44.7809 59.0556 44.6306 59.2876 44.4675C59.5045 44.3151 59.7201 44.0952 59.7201 43.8C59.7201 43.4957 59.4898 43.2881 59.2699 43.1547C59.0346 43.0118 58.708 42.8894 58.3177 42.7812C57.5323 42.5636 56.4116 42.3834 55.0466 42.2391C52.3119 41.9501 48.5453 41.8 44.4001 41.8Z" fill="black"/>
<path d="M44.3999 23.58C44.7865 23.58 45.0999 23.2666 45.0999 22.88C45.0999 22.4934 44.7865 22.18 44.3999 22.18C44.0133 22.18 43.6999 22.4934 43.6999 22.88C43.6999 23.2666 44.0133 23.58 44.3999 23.58Z" fill="#FDD406"/>
<path d="M44.3999 25.14C44.8086 25.14 45.1399 24.8087 45.1399 24.4C45.1399 23.9913 44.8086 23.66 44.3999 23.66C43.9912 23.66 43.6599 23.9913 43.6599 24.4C43.6599 24.8087 43.9912 25.14 44.3999 25.14Z" fill="#FDD406"/>
<path d="M44.3999 26.86C44.8528 26.86 45.2199 26.4929 45.2199 26.04C45.2199 25.5871 44.8528 25.22 44.3999 25.22C43.947 25.22 43.5799 25.5871 43.5799 26.04C43.5799 26.4929 43.947 26.86 44.3999 26.86Z" fill="#FDD406"/>
<path d="M44.3999 28.8C44.919 28.8 45.3399 28.3791 45.3399 27.86C45.3399 27.3408 44.919 26.92 44.3999 26.92C43.8807 26.92 43.4599 27.3408 43.4599 27.86C43.4599 28.3791 43.8807 28.8 44.3999 28.8Z" fill="#FDD406"/>
<path d="M44.3999 30.9C44.9632 30.9 45.4199 30.4433 45.4199 29.88C45.4199 29.3167 44.9632 28.86 44.3999 28.86C43.8366 28.86 43.3799 29.3167 43.3799 29.88C43.3799 30.4433 43.8366 30.9 44.3999 30.9Z" fill="#FDD406"/>
<path fill-rule="evenodd" clip-rule="evenodd" d="M43.4001 22.88C43.4001 22.3277 43.8478 21.88 44.4001 21.88C44.9524 21.88 45.4001 22.3277 45.4001 22.88C45.4001 23.1696 45.2769 23.4305 45.0802 23.6132C45.3006 23.8039 45.4401 24.0856 45.4401 24.4C45.4401 24.7038 45.3098 24.9772 45.1021 25.1673C45.357 25.3726 45.5201 25.6873 45.5201 26.04C45.5201 26.3703 45.3771 26.6672 45.1497 26.8722C45.4477 27.0986 45.6401 27.4569 45.6401 27.86C45.6401 28.2466 45.4632 28.5919 45.1859 28.8193C45.51 29.0598 45.7201 29.4454 45.7201 29.88C45.7201 30.609 45.1291 31.2 44.4001 31.2C43.6711 31.2 43.0801 30.609 43.0801 29.88C43.0801 29.4454 43.2901 29.0598 43.6143 28.8193C43.337 28.5919 43.1601 28.2466 43.1601 27.86C43.1601 27.4569 43.3525 27.0986 43.6505 26.8722C43.423 26.6672 43.2801 26.3703 43.2801 26.04C43.2801 25.6873 43.4432 25.3726 43.698 25.1673C43.4903 24.9772 43.3601 24.7038 43.3601 24.4C43.3601 24.0856 43.4996 23.8039 43.72 23.6132C43.5232 23.4305 43.4001 23.1696 43.4001 22.88ZM44.4001 22.48C44.1792 22.48 44.0001 22.6591 44.0001 22.88C44.0001 23.1009 44.1792 23.28 44.4001 23.28C44.621 23.28 44.8001 23.1009 44.8001 22.88C44.8001 22.6591 44.621 22.48 44.4001 22.48ZM44.4001 23.96C44.1571 23.96 43.9601 24.157 43.9601 24.4C43.9601 24.643 44.1571 24.84 44.4001 24.84C44.6431 24.84 44.8401 24.643 44.8401 24.4C44.8401 24.157 44.6431 23.96 44.4001 23.96ZM44.4001 25.52C44.1129 25.52 43.8801 25.7528 43.8801 26.04C43.8801 26.3272 44.1129 26.56 44.4001 26.56C44.6873 26.56 44.9201 26.3272 44.9201 26.04C44.9201 25.7528 44.6873 25.52 44.4001 25.52ZM44.4001 27.22C44.0466 27.22 43.7601 27.5065 43.7601 27.86C43.7601 28.2135 44.0466 28.5 44.4001 28.5C44.7535 28.5 45.0401 28.2135 45.0401 27.86C45.0401 27.5065 44.7535 27.22 44.4001 27.22ZM44.4001 29.16C44.0024 29.16 43.6801 29.4824 43.6801 29.88C43.6801 30.2776 44.0024 30.6 44.4001 30.6C44.7977 30.6 45.1201 30.2776 45.1201 29.88C45.1201 29.4824 44.7977 29.16 44.4001 29.16Z" fill="black"/>
<path d="M43.9999 31.84C43.8799 31.84 43.7799 31.94 43.7999 32.12L43.9199 32.98C43.9599 33.28 44.1199 33.18 44.1799 32.98C44.2199 32.74 44.1999 32.58 44.2199 32.16C44.2199 31.94 44.0999 31.84 43.9799 31.84H43.9999ZM44.7999 31.84C44.6799 31.84 44.5799 31.94 44.5799 32.16C44.5799 32.58 44.5799 32.74 44.6199 32.96C44.6599 33.2 44.8199 33.28 44.8799 32.96L44.9799 32.12C45.0199 31.92 44.8999 31.84 44.7999 31.84ZM43.2599 31.96C43.2069 31.96 43.156 31.9811 43.1185 32.0186C43.081 32.0561 43.0599 32.107 43.0599 32.16C43.0599 32.36 43.1199 32.62 43.1399 32.92C43.1799 33.22 43.3999 33.12 43.4199 32.92C43.4199 32.76 43.4599 32.48 43.4199 32.14C43.4199 32.02 43.3799 31.96 43.2999 31.94C43.2866 31.9384 43.2732 31.9384 43.2599 31.94V31.96ZM45.4799 31.96C45.4199 31.96 45.3599 32.02 45.3399 32.16C45.3292 32.4141 45.3426 32.6685 45.3799 32.92C45.3799 33.12 45.6199 33.22 45.6399 32.92C45.6399 32.62 45.7199 32.38 45.7199 32.18C45.7199 32.06 45.6199 31.98 45.5199 31.96C45.5067 31.9584 45.4932 31.9584 45.4799 31.96ZM42.3999 32.3C42.2999 32.32 42.1999 32.44 42.2399 32.56C42.2999 32.82 42.3599 33.1 42.3599 33.36C42.3599 33.58 42.5399 33.5 42.5599 33.36C42.5755 33.0937 42.5822 32.8268 42.5799 32.56C42.5799 32.36 42.4799 32.28 42.3799 32.3H42.3999ZM46.3199 32.3C46.2599 32.32 46.1999 32.4 46.1999 32.56L46.2399 33.36C46.2399 33.5 46.4399 33.58 46.4399 33.36C46.4399 33.1 46.4799 32.82 46.5399 32.56C46.5799 32.44 46.4799 32.32 46.3999 32.3C46.3803 32.2949 46.3596 32.2949 46.3399 32.3H46.3199ZM34.5199 32.34C34.3999 32.34 34.3199 32.48 34.3999 32.64C34.5199 32.92 34.6599 33.08 34.7799 33.36C34.8799 33.62 35.0599 33.46 34.9999 33.28L34.7199 32.54C34.6599 32.4 34.5799 32.34 34.5199 32.34ZM54.2799 32.34C54.1999 32.34 54.1399 32.4 54.0799 32.54C53.8999 32.92 53.8399 33.1 53.7799 33.28C53.7399 33.48 53.8999 33.62 54.0199 33.36L54.3799 32.64C54.4599 32.48 54.3799 32.34 54.2799 32.34ZM35.3199 32.34C35.2199 32.38 35.1799 32.48 35.2199 32.6C35.3399 32.84 35.4799 33.1 35.5799 33.36C35.6599 33.58 35.8599 33.52 35.7799 33.32L35.5799 32.58C35.4999 32.38 35.3799 32.32 35.3199 32.34ZM53.4199 32.34C53.3399 32.36 53.2599 32.44 53.2199 32.58C53.0799 32.98 53.0599 33.1 52.9999 33.32C52.9199 33.52 53.1199 33.58 53.1999 33.36L53.5599 32.6C53.5999 32.48 53.5599 32.38 53.4799 32.34C53.4603 32.3349 53.4396 32.3349 53.4199 32.34ZM36.3199 32.54C36.1999 32.56 36.1199 32.72 36.1999 32.92C36.2799 33.16 36.3999 33.38 36.5199 33.66C36.6399 33.94 36.8199 33.88 36.7799 33.7C36.7199 33.52 36.6799 33.24 36.5399 32.8C36.4799 32.6 36.3999 32.52 36.3199 32.54ZM52.4799 32.54C52.3999 32.54 52.2999 32.6 52.2399 32.8C52.1199 33.24 52.0399 33.52 52.0199 33.7C51.9599 33.9 52.1599 33.94 52.2599 33.66C52.3799 33.38 52.4999 33.16 52.5799 32.92C52.6599 32.72 52.5799 32.56 52.4799 32.54ZM33.8399 32.68C33.7199 32.68 33.6399 32.88 33.6999 33.02C33.7999 33.22 33.8799 33.3 33.9799 33.54C34.0999 33.78 34.2199 33.6 34.1799 33.44C34.1199 33.28 34.0599 33.1 34.0199 32.88C33.9799 32.72 33.8999 32.68 33.8199 32.68H33.8399ZM54.9599 32.68C54.8799 32.68 54.8199 32.72 54.7599 32.88L54.6199 33.44C54.5799 33.6 54.6999 33.78 54.8199 33.54C54.9199 33.3 54.9799 33.24 55.0999 33.02C55.1599 32.88 55.0599 32.7 54.9599 32.68ZM41.5599 33.24C41.4199 33.24 41.2999 33.4 41.3599 33.54C41.3999 33.78 41.5199 33.98 41.5799 34.28C41.6599 34.54 41.8399 34.42 41.8199 34.24C41.8054 33.9713 41.772 33.704 41.7199 33.44C41.6799 33.3 41.6199 33.24 41.5399 33.24H41.5599ZM47.2399 33.24C47.1799 33.24 47.0999 33.3 47.0799 33.44C47.0212 33.7035 46.9811 33.9709 46.9599 34.24C46.9599 34.42 47.1399 34.54 47.1999 34.28L47.4399 33.54C47.4799 33.4 47.3599 33.24 47.2399 33.24ZM44.3999 33.48C44.2399 33.48 44.2199 33.68 44.2199 33.82C44.2077 34.2755 44.0692 34.7186 43.8199 35.1C43.6199 35.34 43.3599 35.28 43.1199 35.14C42.8873 35.0133 42.6664 34.866 42.4599 34.7C42.1799 34.5 41.9799 34.62 42.2999 35.08C43.2199 36.4 44.2199 37.52 44.2199 39.68C44.2199 39.94 44.2799 40.02 44.3999 40.02C44.5199 40.02 44.5599 39.94 44.5599 39.66C44.5599 37.52 45.5599 36.4 46.4799 35.06C46.7999 34.62 46.5999 34.5 46.3399 34.7C46.1343 34.8672 45.9133 35.0145 45.6799 35.14C45.4199 35.28 45.1599 35.34 44.9799 35.1C44.7306 34.7186 44.5921 34.2755 44.5799 33.82C44.5599 33.68 44.5399 33.48 44.3799 33.48H44.3999ZM37.3399 33.16C37.3267 33.1578 37.3132 33.1578 37.2999 33.16C37.2399 33.18 37.2199 33.24 37.2399 33.36L37.4599 34.14C37.5199 34.34 37.7399 34.28 37.6999 34.04L37.5799 33.42C37.5399 33.26 37.4199 33.16 37.3399 33.16ZM51.4599 33.16C51.3599 33.16 51.2599 33.26 51.2199 33.42C51.1399 33.7 51.1399 33.78 51.0999 34.02C51.0399 34.28 51.2799 34.32 51.3199 34.14L51.5599 33.34C51.5599 33.24 51.5399 33.18 51.4799 33.16C51.4667 33.1578 51.4532 33.1578 51.4399 33.16H51.4599ZM33.1399 33.24C33.0199 33.24 32.9399 33.4 33.0599 33.6C33.1799 33.84 33.3999 34.12 33.4999 34.3C33.5999 34.46 33.7799 34.34 33.6599 34.14C33.5399 33.94 33.4999 33.68 33.3399 33.38C33.3267 33.3379 33.2999 33.3013 33.2638 33.276C33.2276 33.2506 33.184 33.238 33.1399 33.24ZM55.6399 33.24C55.5799 33.24 55.4999 33.28 55.4399 33.38C55.2999 33.68 55.2399 33.92 55.1399 34.14C55.0199 34.34 55.1799 34.46 55.2799 34.3C55.3799 34.12 55.5999 33.84 55.7199 33.6C55.8399 33.4 55.7599 33.24 55.6399 33.24ZM26.7999 33.9C26.6799 33.9 26.6399 34.14 26.7599 34.3C26.9152 34.4966 27.0894 34.6774 27.2799 34.84C27.4399 35 27.4799 34.8 27.3999 34.64L27.0399 34.1C26.9399 33.96 26.8599 33.9 26.7999 33.9ZM61.9799 33.9C61.9199 33.9 61.8399 33.96 61.7599 34.1L61.3799 34.64C61.2999 34.8 61.3399 35 61.5199 34.84C61.7106 34.6776 61.8848 34.4967 62.0399 34.3C62.1599 34.14 62.1199 33.9 61.9799 33.9ZM27.8199 34.1C27.6999 34.1 27.6199 34.18 27.7199 34.36L28.0999 35.12C28.1999 35.32 28.4999 35.38 28.3799 35.08L28.1199 34.32C28.0599 34.18 27.9199 34.12 27.8199 34.12V34.1ZM60.9799 34.1C60.8599 34.1 60.7199 34.18 60.6599 34.32L60.4199 35.08C60.2999 35.38 60.5999 35.32 60.6999 35.12C60.7999 34.92 60.9599 34.62 61.0599 34.36C61.1599 34.18 61.0799 34.1 60.9799 34.1ZM25.8599 34.18C25.6999 34.18 25.6999 34.32 25.8399 34.42C26.0199 34.56 26.2399 34.7 26.4399 34.88C26.6999 35.08 26.7799 34.88 26.6399 34.72C26.5199 34.56 26.3999 34.4 26.0599 34.22C25.9799 34.18 25.9199 34.18 25.8599 34.18ZM62.9199 34.18C62.8799 34.18 62.7999 34.18 62.7199 34.22C62.3999 34.4 62.2599 34.56 62.1199 34.72C61.9999 34.9 62.0999 35.08 62.3399 34.88C62.5399 34.7 62.7799 34.56 62.9399 34.42C63.0999 34.32 63.0799 34.18 62.9399 34.18H62.9199ZM40.9999 34.32C40.8999 34.32 40.8399 34.42 40.8599 34.56L41.0599 35.28C41.0999 35.5 41.3599 35.5 41.3199 35.28C41.2799 35.08 41.2599 34.82 41.1799 34.5C41.1599 34.38 41.0999 34.32 41.0199 34.3C41.0133 34.2995 41.0066 34.2995 40.9999 34.3V34.32ZM47.7599 34.32C47.6999 34.32 47.6399 34.38 47.5999 34.52C47.5199 34.82 47.4999 35.08 47.4599 35.3C47.4199 35.5 47.6799 35.5 47.7199 35.28L47.9199 34.56C47.9599 34.42 47.8799 34.32 47.7999 34.32C47.7867 34.3178 47.7732 34.3178 47.7599 34.32ZM34.9599 33.92C34.8999 33.92 34.8599 34.06 34.9199 34.26C35.1321 34.8364 35.2404 35.4458 35.2399 36.06C35.1799 36.3 35.0399 36.32 34.8599 36.26C34.6637 36.1632 34.4763 36.0494 34.2999 35.92C34.1399 35.82 33.9599 35.94 34.1999 36.14C35.3999 37.14 36.2599 38.28 36.5999 39.66C36.6399 39.94 36.8199 39.98 36.7799 39.66C36.4999 37.92 36.4399 36.48 36.8599 35.6C37.0199 35.26 36.8599 34.94 36.6199 35.48C36.4399 35.84 36.1799 35.98 35.9599 35.68C35.6472 35.192 35.3795 34.6765 35.1599 34.14C35.1199 34 35.0599 33.94 34.9999 33.92C34.9933 33.9189 34.9865 33.9189 34.9799 33.92H34.9599ZM53.7799 33.92C53.7199 33.92 53.6599 34 53.6199 34.12C53.4799 34.52 53.0399 35.36 52.8199 35.68C52.5999 36 52.3399 35.84 52.1799 35.48C51.9199 34.94 51.7799 35.26 51.9199 35.6C52.3399 36.48 52.2799 37.92 52.0199 39.66C51.9599 39.98 52.1399 39.94 52.2199 39.66C52.5898 38.2553 53.421 37.0157 54.5799 36.14C54.8199 35.94 54.6399 35.82 54.4799 35.94C54.3025 36.0563 54.1151 36.1567 53.9199 36.24C53.7199 36.32 53.5999 36.3 53.5399 36.04C53.4999 35.8 53.5799 35.26 53.8799 34.24C53.9199 34.08 53.8799 33.94 53.8199 33.92C53.807 33.9155 53.7929 33.9155 53.7799 33.92ZM28.8799 34.4C28.7799 34.4 28.6799 34.48 28.7399 34.64C28.8199 34.92 28.9799 35.2 29.0399 35.36C29.0999 35.54 29.2799 35.46 29.2399 35.22L29.1399 34.6C29.1399 34.48 28.9999 34.4 28.8799 34.4ZM59.8999 34.4C59.7799 34.4 59.6599 34.48 59.6399 34.6L59.5599 35.22C59.5199 35.46 59.6999 35.54 59.7599 35.36C59.7999 35.2 59.9599 34.92 60.0399 34.64C60.0999 34.48 60.0199 34.4 59.8999 34.4ZM32.6399 34.06C32.5199 34.04 32.4999 34.36 32.5999 34.5L33.1599 35.12C33.3199 35.32 33.4199 35.14 33.3199 34.98L32.7999 34.22C32.7399 34.12 32.6799 34.06 32.6399 34.06ZM56.1399 34.06C56.0999 34.06 56.0399 34.12 55.9799 34.22L55.4599 34.98C55.3599 35.14 55.4599 35.32 55.6399 35.12L56.1799 34.5C56.2799 34.36 56.2799 34.04 56.1399 34.06ZM29.7399 34.86C29.6599 34.86 29.5999 34.9 29.6399 35.06C29.6799 35.3 29.7399 35.46 29.7999 35.68C29.8599 35.88 29.9999 35.86 29.9999 35.66L29.9399 35.02C29.9312 34.9721 29.9069 34.9285 29.8707 34.8959C29.8345 34.8633 29.7885 34.8437 29.7399 34.84V34.86ZM59.0399 34.86C58.9931 34.8591 58.9475 34.8746 58.911 34.9038C58.8744 34.933 58.8493 34.9742 58.8399 35.02L58.7799 35.66C58.7799 35.86 58.9399 35.9 58.9799 35.68L59.1599 35.08C59.1999 34.9 59.1199 34.84 59.0399 34.84V34.86ZM32.3599 35.14C32.2399 35.14 32.1399 35.28 32.2799 35.46C32.4999 35.76 32.7599 35.96 32.8599 36.06C32.9399 36.18 33.1599 36.14 33.0199 35.92L32.5599 35.22C32.5199 35.14 32.4399 35.12 32.3599 35.14ZM56.3599 35.14C56.3199 35.14 56.2599 35.16 56.2399 35.22L55.7599 35.92C55.6199 36.14 55.8399 36.18 55.9399 36.08C56.0199 35.96 56.2799 35.76 56.5199 35.46C56.6599 35.26 56.5399 35.14 56.4199 35.14C56.4066 35.1385 56.3932 35.1385 56.3799 35.14H56.3599ZM28.2199 35.96C28.1399 35.96 28.0999 36.04 28.2199 36.22C28.5288 36.5947 28.7539 37.0311 28.8799 37.5C28.8999 37.78 28.7799 37.78 28.6599 37.78C28.2799 37.78 28.0999 37.5 27.7799 37.42C27.4399 37.36 27.3799 37.52 27.6199 37.7C28.7663 38.425 29.7641 39.3617 30.5599 40.46C30.7599 40.84 31.0199 40.96 30.8799 40.62C30.4913 39.8401 30.3253 38.9682 30.3999 38.1C30.4999 37.54 30.6399 37.18 30.6199 36.86C30.6199 36.56 30.4199 36.58 30.3599 36.86L30.1599 37.42C30.0799 37.52 29.7999 37.58 29.5599 37.24C29.2198 36.8226 28.8451 36.4346 28.4399 36.08C28.3799 36.02 28.2999 35.98 28.2399 35.96H28.2199ZM60.5599 35.96C60.4999 35.96 60.4199 36 60.3399 36.08C59.9418 36.4356 59.5739 36.8236 59.2399 37.24C58.9799 37.58 58.6999 37.52 58.6399 37.44C58.5487 37.256 58.4815 37.0611 58.4399 36.86C58.3599 36.58 58.1799 36.56 58.1599 36.86C58.1599 37.18 58.2799 37.54 58.3799 38.1C58.4799 38.66 58.3799 39.54 57.9199 40.62C57.7599 40.96 58.0399 40.82 58.2399 40.46C59.0284 39.3623 60.0195 38.4255 61.1599 37.7C61.3999 37.52 61.3599 37.36 61.0199 37.42C60.6799 37.5 60.4999 37.78 60.1399 37.78C60.0199 37.78 59.8799 37.78 59.8999 37.5C59.9199 37.24 60.2599 36.62 60.5599 36.22C60.6799 36.02 60.6599 35.96 60.5599 35.96Z" fill="black"/>
<path fill-rule="evenodd" clip-rule="evenodd" d="M44.3998 40.8C44.5655 40.8 44.6998 40.9343 44.6998 41.1V42.54C44.6998 42.7057 44.5655 42.84 44.3998 42.84C44.2341 42.84 44.0998 42.7057 44.0998 42.54V41.1C44.0998 40.9343 44.2341 40.8 44.3998 40.8ZM42.886 40.9003C43.0515 40.8927 43.1918 41.0206 43.1995 41.1862L43.2595 42.4862C43.2671 42.6517 43.1391 42.792 42.9736 42.7997C42.8081 42.8073 42.6678 42.6793 42.6601 42.5138L42.6001 41.2138C42.5925 41.0483 42.7205 40.9079 42.886 40.9003ZM45.889 40.9001C46.0546 40.9052 46.1848 41.0436 46.1797 41.2092L46.1397 42.5092C46.1346 42.6748 45.9962 42.8049 45.8306 42.7998C45.665 42.7948 45.5349 42.6564 45.5399 42.4908L45.5799 41.1908C45.585 41.0252 45.7234 40.895 45.889 40.9001ZM41.6858 40.9403C41.8513 40.9326 41.9917 41.0604 41.9995 41.2259L42.0595 42.5059C42.0672 42.6714 41.9394 42.8119 41.7739 42.8197C41.6084 42.8274 41.4679 42.6995 41.4601 42.534L41.4001 41.254C41.3924 41.0885 41.5203 40.9481 41.6858 40.9403ZM47.0892 40.9401C47.2548 40.9453 47.3848 41.0838 47.3797 41.2494L47.3397 42.5294C47.3345 42.695 47.196 42.825 47.0304 42.8198C46.8648 42.8147 46.7348 42.6762 46.74 42.5106L46.78 41.2306C46.7851 41.065 46.9236 40.935 47.0892 40.9401ZM40.646 41.0003C40.8115 40.9927 40.9518 41.1206 40.9595 41.2862L41.0195 42.5862C41.0271 42.7517 40.8991 42.892 40.7336 42.8997C40.5681 42.9073 40.4278 42.7793 40.4201 42.6138L40.3601 41.3138C40.3525 41.1483 40.4805 41.0079 40.646 41.0003ZM48.1536 41.0003C48.3191 41.0079 48.4471 41.1483 48.4395 41.3138L48.3795 42.6138C48.3718 42.7793 48.2315 42.9073 48.066 42.8997C47.9005 42.892 47.7725 42.7517 47.7801 42.5862L47.8401 41.2862C47.8478 41.1206 47.9881 40.9927 48.1536 41.0003ZM38.6168 41.0609C38.782 41.0482 38.9262 41.1718 38.9389 41.337L39.0389 42.637C39.0516 42.8022 38.928 42.9464 38.7628 42.9591C38.5976 42.9718 38.4534 42.8482 38.4407 42.683L38.3407 41.383C38.328 41.2178 38.4516 41.0736 38.6168 41.0609ZM50.1628 41.0609C50.328 41.0736 50.4516 41.2178 50.4389 41.383L50.3389 42.683C50.3262 42.8482 50.182 42.9718 50.0168 42.9591C49.8516 42.9464 49.728 42.8022 49.7407 42.637L49.8407 41.337C49.8534 41.1718 49.9976 41.0482 50.1628 41.0609ZM39.6814 41.0606C39.8468 41.0504 39.9891 41.1762 39.9992 41.3416L40.0792 42.6416C40.0894 42.8069 39.9636 42.9492 39.7982 42.9594C39.6329 42.9696 39.4905 42.8438 39.4804 42.6784L39.4004 41.3784C39.3902 41.213 39.516 41.0707 39.6814 41.0606ZM49.0982 41.0606C49.2636 41.0707 49.3894 41.213 49.3792 41.3784L49.2992 42.6784C49.2891 42.8438 49.1468 42.9696 48.9814 42.9594C48.816 42.9492 48.6902 42.8069 48.7004 42.6416L48.7804 41.3416C48.7905 41.1762 48.9329 41.0504 49.0982 41.0606ZM51.1616 41.1829C51.3257 41.206 51.44 41.3577 51.4169 41.5218L51.2369 42.8018C51.2138 42.9658 51.0621 43.0801 50.898 43.0571C50.734 43.034 50.6197 42.8823 50.6427 42.7182L50.8227 41.4382C50.8458 41.2741 50.9975 41.1598 51.1616 41.1829ZM37.6426 41.1823C37.807 41.1618 37.9569 41.2784 37.9775 41.4428L38.1375 42.7228C38.158 42.8872 38.0414 43.0371 37.877 43.0577C37.7126 43.0782 37.5627 42.9616 37.5421 42.7972L37.3821 41.5172C37.3616 41.3528 37.4782 41.2029 37.6426 41.1823ZM35.6626 41.2423C35.827 41.2218 35.9769 41.3384 35.9975 41.5028L36.1575 42.7828C36.178 42.9472 36.0614 43.0971 35.897 43.1177C35.7326 43.1382 35.5827 43.0216 35.5621 42.8572L35.4021 41.5772C35.3816 41.4128 35.4982 41.2629 35.6626 41.2423ZM53.137 41.2423C53.3014 41.2629 53.418 41.4128 53.3975 41.5772L53.2375 42.8572C53.2169 43.0216 53.067 43.1382 52.9026 43.1177C52.7382 43.0971 52.6216 42.9472 52.6421 42.7828L52.8021 41.5028C52.8227 41.3384 52.9726 41.2218 53.137 41.2423ZM36.6626 41.3023C36.827 41.2818 36.9769 41.3984 36.9975 41.5628L37.1575 42.8428C37.178 43.0072 37.0614 43.1571 36.897 43.1777C36.7326 43.1982 36.5827 43.0816 36.5621 42.9172L36.4021 41.6372C36.3816 41.4728 36.4982 41.3229 36.6626 41.3023ZM52.117 41.3023C52.2814 41.3229 52.398 41.4728 52.3775 41.6372L52.2175 42.9172C52.1969 43.0816 52.047 43.1982 51.8826 43.1777C51.7182 43.1571 51.6016 43.0072 51.6221 42.8428L51.7821 41.5628C51.8027 41.3984 51.9526 41.2818 52.117 41.3023ZM34.5682 41.6045C34.7314 41.576 34.8868 41.6852 34.9153 41.8484L35.1353 43.1084C35.1638 43.2716 35.0546 43.427 34.8914 43.4555C34.7282 43.484 34.5728 43.3748 34.5443 43.2116L34.3243 41.9516C34.2958 41.7884 34.405 41.633 34.5682 41.6045ZM54.2106 41.6043C54.3739 41.6324 54.4835 41.7875 54.4555 41.9508L54.2355 43.2308C54.2074 43.3941 54.0523 43.5037 53.889 43.4757C53.7257 43.4476 53.6161 43.2925 53.6441 43.1292L53.8641 41.8492C53.8922 41.6859 54.0473 41.5763 54.2106 41.6043ZM33.4735 41.6036C33.6372 41.578 33.7906 41.69 33.8162 41.8537L34.0162 43.1337C34.0418 43.2974 33.9298 43.4508 33.7661 43.4764C33.6024 43.502 33.449 43.39 33.4234 43.2263L33.2234 41.9463C33.1978 41.7826 33.3098 41.6292 33.4735 41.6036ZM55.2861 41.6036C55.4498 41.6292 55.5618 41.7826 55.5362 41.9463L55.3362 43.2263C55.3106 43.39 55.1572 43.502 54.9935 43.4764C54.8298 43.4508 54.7178 43.2974 54.7434 43.1337L54.9434 41.8537C54.969 41.69 55.1224 41.578 55.2861 41.6036ZM32.4392 41.7062C32.6014 41.6727 32.7601 41.7771 32.7936 41.9394L33.0536 43.1994C33.0871 43.3616 32.9827 43.5203 32.8204 43.5538C32.6582 43.5873 32.4995 43.4829 32.466 43.3206L32.206 42.0606C32.1725 41.8983 32.2769 41.7397 32.4392 41.7062ZM56.3604 41.7062C56.5227 41.7397 56.6271 41.8983 56.5936 42.0606L56.3336 43.3206C56.3001 43.4829 56.1414 43.5873 55.9792 43.5538C55.8169 43.5203 55.7125 43.3616 55.746 43.1994L56.006 41.9394C56.0395 41.7771 56.1982 41.6727 56.3604 41.7062ZM57.1551 41.8451C57.3179 41.8757 57.4252 42.0324 57.3947 42.1953L57.1547 43.4753C57.1241 43.6381 56.9674 43.7454 56.8045 43.7149C56.6417 43.6843 56.5344 43.5275 56.5649 43.3647L56.8049 42.0847C56.8355 41.9219 56.9922 41.8146 57.1551 41.8451ZM31.6445 41.8451C31.8074 41.8146 31.9641 41.9219 31.9947 42.0847L32.2347 43.3647C32.2652 43.5276 32.1579 43.6843 31.9951 43.7149C31.8322 43.7454 31.6755 43.6381 31.6449 43.4753L31.4049 42.1953C31.3744 42.0324 31.4817 41.8757 31.6445 41.8451ZM30.7362 42.0119C30.8953 41.9657 31.0617 42.0572 31.1079 42.2163L31.4679 43.4563C31.5141 43.6155 31.4226 43.7819 31.2634 43.8281C31.1043 43.8743 30.9379 43.7827 30.8917 43.6236L30.5317 42.3836C30.4855 42.2245 30.577 42.0581 30.7362 42.0119ZM58.0391 42.0107C58.1989 42.0545 58.2929 42.2195 58.2491 42.3793L57.9091 43.6193C57.8653 43.7791 57.7003 43.8731 57.5405 43.8293C57.3807 43.7855 57.2867 43.6204 57.3305 43.4607L57.6705 42.2207C57.7143 42.0609 57.8793 41.9669 58.0391 42.0107ZM29.9263 42.2549C30.0838 42.2033 30.2533 42.2891 30.3049 42.4465L30.7049 43.6665C30.7565 43.824 30.6707 43.9934 30.5133 44.0451C30.3558 44.0967 30.1864 44.0109 30.1347 43.8535L29.7347 42.6335C29.6831 42.476 29.7689 42.3065 29.9263 42.2549ZM58.8533 42.2549C59.0107 42.3065 59.0965 42.476 59.0449 42.6335L58.6449 43.8535C58.5933 44.0109 58.4238 44.0967 58.2663 44.0451C58.1089 43.9934 58.0231 43.824 58.0747 43.6665L58.4747 42.4465C58.5264 42.2891 58.6958 42.2033 58.8533 42.2549Z" fill="black"/>
</svg>
