<svg width="160" height="120" viewBox="0 0 160 120" fill="none" xmlns="http://www.w3.org/2000/svg">
<g clip-path="url(#clip0_909_287030)">
<path d="M0 0H160V60H0V0Z" fill="#0F3296"/>
<path d="M0 60H160V120H0V60Z" fill="#D91C16"/>
<path d="M38.5162 24.4579L38.1486 36.9579H25.4647C23.9042 33.9242 22.6155 31.3476 22.6155 27.8586C22.6155 24.9387 24.9121 22.6196 28.2221 22.6196C31.726 22.6196 35.5758 23.8003 38.5162 24.4579Z" fill="#FDD406"/>
<path fill-rule="evenodd" clip-rule="evenodd" d="M24.1314 24.8823C24.2143 24.8823 24.2814 24.9495 24.2814 25.0323V32.2474C24.2814 32.3302 24.2143 32.3974 24.1314 32.3974C24.0486 32.3974 23.9814 32.3302 23.9814 32.2474V25.0323C23.9814 24.9495 24.0486 24.8823 24.1314 24.8823Z" fill="black"/>
<path fill-rule="evenodd" clip-rule="evenodd" d="M25.15 24.146C25.2328 24.146 25.3 24.2132 25.3 24.296V33.9028C25.3 33.9856 25.2328 34.0528 25.15 34.0528C25.0672 34.0528 25 33.9856 25 33.9028V24.296C25 24.2132 25.0672 24.146 25.15 24.146Z" fill="black"/>
<path fill-rule="evenodd" clip-rule="evenodd" d="M26.1686 23.6404C26.2514 23.6404 26.3186 23.7075 26.3186 23.7904V35.2354C26.3186 35.3183 26.2514 35.3854 26.1686 35.3854C26.0857 35.3854 26.0186 35.3183 26.0186 35.2354V23.7904C26.0186 23.7075 26.0857 23.6404 26.1686 23.6404Z" fill="black"/>
<path fill-rule="evenodd" clip-rule="evenodd" d="M27.1871 23.4043C27.27 23.4043 27.3371 23.4715 27.3371 23.5543V32.5305C27.3371 32.6134 27.27 32.6805 27.1871 32.6805C27.1043 32.6805 27.0371 32.6134 27.0371 32.5305V23.5543C27.0371 23.4715 27.1043 23.4043 27.1871 23.4043Z" fill="black"/>
<path fill-rule="evenodd" clip-rule="evenodd" d="M28.2064 23.3596C28.2892 23.3596 28.3564 23.4268 28.3564 23.5096V32.5749C28.3564 32.6578 28.2892 32.7249 28.2064 32.7249C28.1236 32.7249 28.0564 32.6578 28.0564 32.5749V23.5096C28.0564 23.4268 28.1236 23.3596 28.2064 23.3596Z" fill="black"/>
<path fill-rule="evenodd" clip-rule="evenodd" d="M29.2252 23.043C29.308 23.043 29.3752 23.1101 29.3752 23.193V32.57C29.3752 32.6528 29.308 32.72 29.2252 32.72C29.1424 32.72 29.0752 32.6528 29.0752 32.57V23.193C29.0752 23.1101 29.1424 23.043 29.2252 23.043Z" fill="black"/>
<path fill-rule="evenodd" clip-rule="evenodd" d="M30.244 23.043C30.3268 23.043 30.394 23.1101 30.394 23.193V32.57C30.394 32.6528 30.3268 32.72 30.244 32.72C30.1612 32.72 30.094 32.6528 30.094 32.57V23.193C30.094 23.1101 30.1612 23.043 30.244 23.043Z" fill="black"/>
<path fill-rule="evenodd" clip-rule="evenodd" d="M31.2623 23.1348C31.3451 23.1348 31.4123 23.2019 31.4123 23.2848V32.6618C31.4123 32.7446 31.3451 32.8118 31.2623 32.8118C31.1795 32.8118 31.1123 32.7446 31.1123 32.6618V23.2848C31.1123 23.2019 31.1795 23.1348 31.2623 23.1348Z" fill="black"/>
<path fill-rule="evenodd" clip-rule="evenodd" d="M32.2809 23.2268C32.3637 23.2268 32.4309 23.294 32.4309 23.3768V32.7538C32.4309 32.8367 32.3637 32.9038 32.2809 32.9038C32.198 32.9038 32.1309 32.8367 32.1309 32.7538V23.3768C32.1309 23.294 32.198 23.2268 32.2809 23.2268Z" fill="black"/>
<path fill-rule="evenodd" clip-rule="evenodd" d="M33.2994 23.8242C33.3823 23.8242 33.4494 23.8914 33.4494 23.9742V33.3512C33.4494 33.4341 33.3823 33.5012 33.2994 33.5012C33.2166 33.5012 33.1494 33.4341 33.1494 33.3512V23.9742C33.1494 23.8914 33.2166 23.8242 33.2994 23.8242Z" fill="black"/>
<path fill-rule="evenodd" clip-rule="evenodd" d="M34.318 23.916C34.4008 23.916 34.468 23.9832 34.468 24.066V34.6379C34.468 34.7207 34.4008 34.7879 34.318 34.7879C34.2351 34.7879 34.168 34.7207 34.168 34.6379V24.066C34.168 23.9832 34.2351 23.916 34.318 23.916Z" fill="black"/>
<path fill-rule="evenodd" clip-rule="evenodd" d="M35.3373 23.916C35.4201 23.916 35.4873 23.9832 35.4873 24.066V33.443C35.4873 33.5259 35.4201 33.593 35.3373 33.593C35.2544 33.593 35.1873 33.5259 35.1873 33.443V24.066C35.1873 23.9832 35.2544 23.916 35.3373 23.916Z" fill="black"/>
<path fill-rule="evenodd" clip-rule="evenodd" d="M36.3561 23.916C36.4389 23.916 36.5061 23.9832 36.5061 24.066V33.443C36.5061 33.5259 36.4389 33.593 36.3561 33.593C36.2732 33.593 36.2061 33.5259 36.2061 33.443V24.066C36.2061 23.9832 36.2732 23.916 36.3561 23.916Z" fill="black"/>
<path d="M30.5195 23.5847C32.6722 23.9398 37.4007 26.1521 36.8614 29.1454C36.0972 33.3872 33.6199 31.6849 30.3357 31.0755L27.8541 31.9027C26.9661 32.8091 25.6585 33.6394 24.775 32.5461H23.3044V38.2906H39.5728V24.4119L30.5195 23.5847Z" fill="black"/>
<path fill-rule="evenodd" clip-rule="evenodd" d="M30.3708 23.5655C30.3811 23.4855 30.4529 23.4279 30.5333 23.4352L39.5866 24.2624C39.6638 24.2695 39.7229 24.3342 39.7229 24.4118V38.2905C39.7229 38.3733 39.6558 38.4405 39.5729 38.4405H23.3045C23.2217 38.4405 23.1545 38.3733 23.1545 38.2905V32.546C23.1545 32.4631 23.2217 32.396 23.3045 32.396H24.7751C24.8204 32.396 24.8633 32.4165 24.8918 32.4517C25.0944 32.7024 25.3141 32.835 25.5387 32.8882C25.7651 32.9418 26.0099 32.9178 26.2652 32.832C26.7802 32.659 27.3091 32.2446 27.747 31.7976C27.7637 31.7806 27.7842 31.7678 27.8067 31.7603L30.2884 30.9331C30.3124 30.9251 30.3382 30.9233 30.3632 30.9279C30.9989 31.0459 31.6063 31.2048 32.1713 31.3527C32.3416 31.3973 32.5081 31.4409 32.6703 31.482C33.3771 31.6612 34.0002 31.7932 34.5398 31.7796C35.072 31.7661 35.5134 31.6113 35.8706 31.2208C36.234 30.8237 36.525 30.1672 36.7139 29.1186C36.9669 27.7144 35.9881 26.4632 34.6139 25.4984C33.248 24.5393 31.5487 23.9063 30.4952 23.7326C30.4155 23.7194 30.3606 23.6456 30.3708 23.5655ZM32.143 23.8835C33.0073 24.2042 33.9563 24.6701 34.7863 25.2528C36.1797 26.2312 37.2955 27.5828 37.0091 29.1718C36.8159 30.2442 36.5107 30.9656 36.092 31.4233C35.6672 31.8876 35.1406 32.0645 34.5474 32.0795C33.9617 32.0943 33.3019 31.9516 32.5966 31.7728C32.43 31.7306 32.2606 31.6862 32.0885 31.6412C31.5368 31.4968 30.9564 31.3449 30.3464 31.23L27.9358 32.0335C27.4898 32.4839 26.9314 32.9246 26.3607 33.1164C26.0677 33.2148 25.7644 33.25 25.4695 33.1801C25.1918 33.1143 24.9331 32.9581 24.7052 32.696H23.4545V38.1405H39.4229V24.5487L32.143 23.8835Z" fill="black"/>
<path d="M37.8037 23.5847C38.3494 23.5847 38.7918 23.1424 38.7918 22.5967C38.7918 22.051 38.3494 21.6086 37.8037 21.6086C37.258 21.6086 36.8157 22.051 36.8157 22.5967C36.8157 23.1424 37.258 23.5847 37.8037 23.5847Z" fill="#FDD406"/>
<path fill-rule="evenodd" clip-rule="evenodd" d="M37.8035 21.8087C37.3683 21.8087 37.0155 22.1615 37.0155 22.5967C37.0155 23.032 37.3683 23.3848 37.8035 23.3848C38.2388 23.3848 38.5916 23.032 38.5916 22.5967C38.5916 22.1615 38.2388 21.8087 37.8035 21.8087ZM36.6155 22.5967C36.6155 21.9406 37.1474 21.4087 37.8035 21.4087C38.4597 21.4087 38.9916 21.9406 38.9916 22.5967C38.9916 23.2529 38.4597 23.7848 37.8035 23.7848C37.1474 23.7848 36.6155 23.2529 36.6155 22.5967Z" fill="black"/>
<path d="M35.583 23.0503C36.1287 23.0503 36.5711 22.608 36.5711 22.0623C36.5711 21.5166 36.1287 21.0742 35.583 21.0742C35.0373 21.0742 34.595 21.5166 34.595 22.0623C34.595 22.608 35.0373 23.0503 35.583 23.0503Z" fill="#FDD406"/>
<path fill-rule="evenodd" clip-rule="evenodd" d="M35.5828 21.2743C35.1476 21.2743 34.7948 21.6271 34.7948 22.0623C34.7948 22.4975 35.1476 22.8504 35.5828 22.8504C36.0181 22.8504 36.3709 22.4975 36.3709 22.0623C36.3709 21.6271 36.0181 21.2743 35.5828 21.2743ZM34.3948 22.0623C34.3948 21.4062 34.9267 20.8743 35.5828 20.8743C36.239 20.8743 36.7709 21.4062 36.7709 22.0623C36.7709 22.7185 36.239 23.2504 35.5828 23.2504C34.9267 23.2504 34.3948 22.7185 34.3948 22.0623Z" fill="black"/>
<path d="M33.3308 22.4846C33.8765 22.4846 34.3189 22.0423 34.3189 21.4966C34.3189 20.9509 33.8765 20.5085 33.3308 20.5085C32.7851 20.5085 32.3428 20.9509 32.3428 21.4966C32.3428 22.0423 32.7851 22.4846 33.3308 22.4846Z" fill="#FDD406"/>
<path fill-rule="evenodd" clip-rule="evenodd" d="M33.3309 20.7083C32.8956 20.7083 32.5428 21.0612 32.5428 21.4964C32.5428 21.9316 32.8956 22.2845 33.3309 22.2845C33.7661 22.2845 34.1189 21.9316 34.1189 21.4964C34.1189 21.0612 33.7661 20.7083 33.3309 20.7083ZM32.1428 21.4964C32.1428 20.8403 32.6747 20.3083 33.3309 20.3083C33.987 20.3083 34.5189 20.8403 34.5189 21.4964C34.5189 22.1525 33.987 22.6845 33.3309 22.6845C32.6747 22.6845 32.1428 22.1525 32.1428 21.4964Z" fill="black"/>
<path d="M31.0696 22.1075C31.6153 22.1075 32.0576 21.6651 32.0576 21.1194C32.0576 20.5737 31.6153 20.1313 31.0696 20.1313C30.5239 20.1313 30.0815 20.5737 30.0815 21.1194C30.0815 21.6651 30.5239 22.1075 31.0696 22.1075Z" fill="#FDD406"/>
<path fill-rule="evenodd" clip-rule="evenodd" d="M31.0692 20.3314C30.6339 20.3314 30.2811 20.6842 30.2811 21.1194C30.2811 21.5547 30.6339 21.9075 31.0692 21.9075C31.5044 21.9075 31.8572 21.5547 31.8572 21.1194C31.8572 20.6842 31.5044 20.3314 31.0692 20.3314ZM29.8811 21.1194C29.8811 20.4633 30.413 19.9314 31.0692 19.9314C31.7253 19.9314 32.2572 20.4633 32.2572 21.1194C32.2572 21.7756 31.7253 22.3075 31.0692 22.3075C30.413 22.3075 29.8811 21.7756 29.8811 21.1194Z" fill="black"/>
<path d="M28.8076 21.8843C29.3533 21.8843 29.7957 21.4419 29.7957 20.8963C29.7957 20.3506 29.3533 19.9082 28.8076 19.9082C28.2619 19.9082 27.8196 20.3506 27.8196 20.8963C27.8196 21.4419 28.2619 21.8843 28.8076 21.8843Z" fill="#FDD406"/>
<path fill-rule="evenodd" clip-rule="evenodd" d="M28.8074 20.1083C28.3722 20.1083 28.0194 20.4611 28.0194 20.8963C28.0194 21.3315 28.3722 21.6844 28.8074 21.6844C29.2427 21.6844 29.5955 21.3315 29.5955 20.8963C29.5955 20.4611 29.2427 20.1083 28.8074 20.1083ZM27.6194 20.8963C27.6194 20.2402 28.1513 19.7083 28.8074 19.7083C29.4636 19.7083 29.9955 20.2402 29.9955 20.8963C29.9955 21.5524 29.4636 22.0844 28.8074 22.0844C28.1513 22.0844 27.6194 21.5524 27.6194 20.8963Z" fill="black"/>
<path d="M26.5908 22.0108C27.1365 22.0108 27.5789 21.5684 27.5789 21.0227C27.5789 20.477 27.1365 20.0347 26.5908 20.0347C26.0451 20.0347 25.6028 20.477 25.6028 21.0227C25.6028 21.5684 26.0451 22.0108 26.5908 22.0108Z" fill="#FDD406"/>
<path fill-rule="evenodd" clip-rule="evenodd" d="M26.5909 20.2347C26.1557 20.2347 25.8028 20.5875 25.8028 21.0228C25.8028 21.458 26.1557 21.8108 26.5909 21.8108C27.0261 21.8108 27.3789 21.458 27.3789 21.0228C27.3789 20.5875 27.0261 20.2347 26.5909 20.2347ZM25.4028 21.0228C25.4028 20.3666 25.9347 19.8347 26.5909 19.8347C27.247 19.8347 27.7789 20.3666 27.7789 21.0228C27.7789 21.6789 27.247 22.2108 26.5909 22.2108C25.9347 22.2108 25.4028 21.6789 25.4028 21.0228Z" fill="black"/>
<path d="M24.4768 22.7346C25.0225 22.7346 25.4649 22.2923 25.4649 21.7466C25.4649 21.2009 25.0225 20.7585 24.4768 20.7585C23.9311 20.7585 23.4888 21.2009 23.4888 21.7466C23.4888 22.2923 23.9311 22.7346 24.4768 22.7346Z" fill="#FDD406"/>
<path fill-rule="evenodd" clip-rule="evenodd" d="M24.4764 20.9583C24.0412 20.9583 23.6883 21.3112 23.6883 21.7464C23.6883 22.1816 24.0412 22.5345 24.4764 22.5345C24.9116 22.5345 25.2644 22.1816 25.2644 21.7464C25.2644 21.3112 24.9116 20.9583 24.4764 20.9583ZM23.2883 21.7464C23.2883 21.0903 23.8202 20.5583 24.4764 20.5583C25.1325 20.5583 25.6644 21.0903 25.6644 21.7464C25.6644 22.4025 25.1325 22.9345 24.4764 22.9345C23.8202 22.9345 23.2883 22.4025 23.2883 21.7464Z" fill="black"/>
<path d="M22.6953 24.0442C23.241 24.0442 23.6834 23.6019 23.6834 23.0562C23.6834 22.5105 23.241 22.0681 22.6953 22.0681C22.1496 22.0681 21.7073 22.5105 21.7073 23.0562C21.7073 23.6019 22.1496 24.0442 22.6953 24.0442Z" fill="#FDD406"/>
<path fill-rule="evenodd" clip-rule="evenodd" d="M22.6961 22.2682C22.2609 22.2682 21.9081 22.621 21.9081 23.0562C21.9081 23.4914 22.2609 23.8443 22.6961 23.8443C23.1313 23.8443 23.4842 23.4914 23.4842 23.0562C23.4842 22.621 23.1313 22.2682 22.6961 22.2682ZM21.5081 23.0562C21.5081 22.4001 22.04 21.8682 22.6961 21.8682C23.3523 21.8682 23.8842 22.4001 23.8842 23.0562C23.8842 23.7124 23.3523 24.2443 22.6961 24.2443C22.04 24.2443 21.5081 23.7124 21.5081 23.0562Z" fill="black"/>
<path d="M21.4317 25.8711C21.9773 25.8711 22.4197 25.4288 22.4197 24.8831C22.4197 24.3374 21.9773 23.895 21.4317 23.895C20.886 23.895 20.4436 24.3374 20.4436 24.8831C20.4436 25.4288 20.886 25.8711 21.4317 25.8711Z" fill="#FDD406"/>
<path fill-rule="evenodd" clip-rule="evenodd" d="M21.4322 24.0948C20.997 24.0948 20.6441 24.4476 20.6441 24.8829C20.6441 25.3181 20.997 25.6709 21.4322 25.6709C21.8674 25.6709 22.2202 25.3181 22.2202 24.8829C22.2202 24.4476 21.8674 24.0948 21.4322 24.0948ZM20.2441 24.8829C20.2441 24.2267 20.7761 23.6948 21.4322 23.6948C22.0883 23.6948 22.6202 24.2267 22.6202 24.8829C22.6202 25.539 22.0883 26.0709 21.4322 26.0709C20.7761 26.0709 20.2441 25.539 20.2441 24.8829Z" fill="black"/>
<path d="M20.8233 28.0196C21.3689 28.0196 21.8113 27.5772 21.8113 27.0315C21.8113 26.4858 21.3689 26.0435 20.8233 26.0435C20.2776 26.0435 19.8352 26.4858 19.8352 27.0315C19.8352 27.5772 20.2776 28.0196 20.8233 28.0196Z" fill="#FDD406"/>
<path fill-rule="evenodd" clip-rule="evenodd" d="M20.8233 26.2433C20.3881 26.2433 20.0353 26.5961 20.0353 27.0313C20.0353 27.4665 20.3881 27.8194 20.8233 27.8194C21.2585 27.8194 21.6114 27.4665 21.6114 27.0313C21.6114 26.5961 21.2585 26.2433 20.8233 26.2433ZM19.6353 27.0313C19.6353 26.3752 20.1672 25.8433 20.8233 25.8433C21.4794 25.8433 22.0114 26.3752 22.0114 27.0313C22.0114 27.6875 21.4794 28.2194 20.8233 28.2194C20.1672 28.2194 19.6353 27.6875 19.6353 27.0313Z" fill="black"/>
<path d="M20.8457 30.2483C21.3914 30.2483 21.8338 29.806 21.8338 29.2603C21.8338 28.7146 21.3914 28.2722 20.8457 28.2722C20.3 28.2722 19.8577 28.7146 19.8577 29.2603C19.8577 29.806 20.3 30.2483 20.8457 30.2483Z" fill="#FDD406"/>
<path fill-rule="evenodd" clip-rule="evenodd" d="M20.8463 28.4723C20.411 28.4723 20.0582 28.8251 20.0582 29.2603C20.0582 29.6955 20.411 30.0484 20.8463 30.0484C21.2815 30.0484 21.6343 29.6955 21.6343 29.2603C21.6343 28.8251 21.2815 28.4723 20.8463 28.4723ZM19.6582 29.2603C19.6582 28.6042 20.1901 28.0723 20.8463 28.0723C21.5024 28.0723 22.0343 28.6042 22.0343 29.2603C22.0343 29.9165 21.5024 30.4484 20.8463 30.4484C20.1901 30.4484 19.6582 29.9165 19.6582 29.2603Z" fill="black"/>
<path d="M21.2713 32.4312C21.8169 32.4312 22.2593 31.9888 22.2593 31.4431C22.2593 30.8974 21.8169 30.4551 21.2713 30.4551C20.7256 30.4551 20.2832 30.8974 20.2832 31.4431C20.2832 31.9888 20.7256 32.4312 21.2713 32.4312Z" fill="#FDD406"/>
<path fill-rule="evenodd" clip-rule="evenodd" d="M21.2713 30.6551C20.8361 30.6551 20.4833 31.008 20.4833 31.4432C20.4833 31.8784 20.8361 32.2312 21.2713 32.2312C21.7065 32.2312 22.0594 31.8784 22.0594 31.4432C22.0594 31.008 21.7065 30.6551 21.2713 30.6551ZM20.0833 31.4432C20.0833 30.787 20.6152 30.2551 21.2713 30.2551C21.9274 30.2551 22.4594 30.787 22.4594 31.4432C22.4594 32.0993 21.9274 32.6312 21.2713 32.6312C20.6152 32.6312 20.0833 32.0993 20.0833 31.4432Z" fill="black"/>
<path d="M38.2403 23.9064L38.1484 25.1931C35.6902 24.8165 32.2054 23.4468 28.9572 23.4468C25.9559 23.4468 23.6263 24.6473 23.6263 27.6747C23.6263 30.6584 24.8899 33.3718 26.5675 36.1306L24.8212 36.9578C23.2607 33.9242 21.9719 31.3476 21.9719 27.8586C21.9719 24.9386 24.2685 22.0681 28.2219 22.0681C31.7259 22.0681 35.2999 23.2488 38.2403 23.9064Z" fill="#FDD406"/>
<path fill-rule="evenodd" clip-rule="evenodd" d="M28.2217 22.2682C24.3813 22.2682 22.1717 25.0466 22.1717 27.8586C22.1717 31.2285 23.3897 33.7341 24.9103 36.6942L26.2816 36.0447C24.6559 33.342 23.4261 30.6459 23.4261 27.6748C23.4261 26.1021 24.0354 24.9817 25.0505 24.2624C26.0549 23.5506 27.4345 23.2468 28.957 23.2468C30.6064 23.2468 32.3091 23.5943 33.8966 23.9846C34.356 24.0975 34.8044 24.2136 35.2392 24.3261C36.2295 24.5826 37.1487 24.8205 37.9643 24.9606L38.0284 24.0636C37.3693 23.9132 36.6834 23.7397 35.9773 23.5611C33.5411 22.945 30.8648 22.2682 28.2217 22.2682ZM21.7717 27.8586C21.7717 24.8307 24.1554 21.8682 28.2217 21.8682C30.9199 21.8682 33.6664 22.5631 36.1108 23.1817C36.8676 23.3731 37.5953 23.5573 38.2838 23.7112C38.3804 23.7328 38.4467 23.8219 38.4396 23.9206L38.3477 25.2074C38.3437 25.2631 38.3166 25.3146 38.273 25.3495C38.2293 25.3843 38.1731 25.3993 38.1179 25.3909C37.229 25.2547 36.2042 24.9893 35.1171 24.7079C34.6867 24.5964 34.2465 24.4825 33.8011 24.373C32.2196 23.9842 30.5558 23.6468 28.957 23.6468C27.4782 23.6468 26.1924 23.9434 25.2817 24.5887C24.3817 25.2265 23.8261 26.2201 23.8261 27.6748C23.8261 30.6015 25.0652 33.2755 26.7382 36.0268C26.7676 36.0752 26.7752 36.1338 26.7589 36.1881C26.7427 36.2423 26.7041 36.2872 26.6529 36.3114L24.9066 37.1386C24.8091 37.1848 24.6925 37.1453 24.6431 37.0494C23.0837 34.0178 21.7717 31.4017 21.7717 27.8586Z" fill="black"/>
<path d="M40.7531 24.4579L41.1207 36.9579H53.8045C55.3651 33.9242 56.6538 31.3476 56.6538 27.8586C56.6538 24.9387 54.3572 22.6196 51.0472 22.6196C47.5432 22.6196 43.6935 23.8003 40.7531 24.4579Z" fill="#FDD406"/>
<path fill-rule="evenodd" clip-rule="evenodd" d="M55.1376 24.8823C55.0548 24.8823 54.9876 24.9495 54.9876 25.0323V32.2474C54.9876 32.3302 55.0548 32.3974 55.1376 32.3974C55.2204 32.3974 55.2876 32.3302 55.2876 32.2474V25.0323C55.2876 24.9495 55.2204 24.8823 55.1376 24.8823Z" fill="black"/>
<path fill-rule="evenodd" clip-rule="evenodd" d="M54.1188 24.146C54.036 24.146 53.9688 24.2132 53.9688 24.296V33.9028C53.9688 33.9856 54.036 34.0528 54.1188 34.0528C54.2016 34.0528 54.2688 33.9856 54.2688 33.9028V24.296C54.2688 24.2132 54.2016 24.146 54.1188 24.146Z" fill="black"/>
<path fill-rule="evenodd" clip-rule="evenodd" d="M53.1002 23.6404C53.0174 23.6404 52.9502 23.7075 52.9502 23.7904V35.2354C52.9502 35.3183 53.0174 35.3854 53.1002 35.3854C53.1831 35.3854 53.2502 35.3183 53.2502 35.2354V23.7904C53.2502 23.7075 53.1831 23.6404 53.1002 23.6404Z" fill="black"/>
<path fill-rule="evenodd" clip-rule="evenodd" d="M52.0814 23.4043C51.9986 23.4043 51.9314 23.4715 51.9314 23.5543V32.5305C51.9314 32.6134 51.9986 32.6805 52.0814 32.6805C52.1643 32.6805 52.2314 32.6134 52.2314 32.5305V23.5543C52.2314 23.4715 52.1643 23.4043 52.0814 23.4043Z" fill="black"/>
<path fill-rule="evenodd" clip-rule="evenodd" d="M51.0622 23.3596C50.9793 23.3596 50.9122 23.4268 50.9122 23.5096V32.5749C50.9122 32.6578 50.9793 32.7249 51.0622 32.7249C51.145 32.7249 51.2122 32.6578 51.2122 32.5749V23.5096C51.2122 23.4268 51.145 23.3596 51.0622 23.3596Z" fill="black"/>
<path fill-rule="evenodd" clip-rule="evenodd" d="M50.0436 23.043C49.9608 23.043 49.8936 23.1101 49.8936 23.193V32.57C49.8936 32.6528 49.9608 32.72 50.0436 32.72C50.1264 32.72 50.1936 32.6528 50.1936 32.57V23.193C50.1936 23.1101 50.1264 23.043 50.0436 23.043Z" fill="black"/>
<path fill-rule="evenodd" clip-rule="evenodd" d="M49.025 23.043C48.9422 23.043 48.875 23.1101 48.875 23.193V32.57C48.875 32.6528 48.9422 32.72 49.025 32.72C49.1079 32.72 49.175 32.6528 49.175 32.57V23.193C49.175 23.1101 49.1079 23.043 49.025 23.043Z" fill="black"/>
<path fill-rule="evenodd" clip-rule="evenodd" d="M48.0067 23.1348C47.9239 23.1348 47.8567 23.2019 47.8567 23.2848V32.6618C47.8567 32.7446 47.9239 32.8118 48.0067 32.8118C48.0896 32.8118 48.1567 32.7446 48.1567 32.6618V23.2848C48.1567 23.2019 48.0896 23.1348 48.0067 23.1348Z" fill="black"/>
<path fill-rule="evenodd" clip-rule="evenodd" d="M46.9879 23.2268C46.9051 23.2268 46.8379 23.294 46.8379 23.3768V32.7538C46.8379 32.8367 46.9051 32.9038 46.9879 32.9038C47.0708 32.9038 47.1379 32.8367 47.1379 32.7538V23.3768C47.1379 23.294 47.0708 23.2268 46.9879 23.2268Z" fill="black"/>
<path fill-rule="evenodd" clip-rule="evenodd" d="M45.9694 23.8242C45.8865 23.8242 45.8194 23.8914 45.8194 23.9742V33.3512C45.8194 33.4341 45.8865 33.5012 45.9694 33.5012C46.0522 33.5012 46.1194 33.4341 46.1194 33.3512V23.9742C46.1194 23.8914 46.0522 23.8242 45.9694 23.8242Z" fill="black"/>
<path fill-rule="evenodd" clip-rule="evenodd" d="M44.9506 23.916C44.8677 23.916 44.8006 23.9832 44.8006 24.066V34.6379C44.8006 34.7207 44.8677 34.7879 44.9506 34.7879C45.0334 34.7879 45.1006 34.7207 45.1006 34.6379V24.066C45.1006 23.9832 45.0334 23.916 44.9506 23.916Z" fill="black"/>
<path fill-rule="evenodd" clip-rule="evenodd" d="M43.9313 23.916C43.8485 23.916 43.7813 23.9832 43.7813 24.066V33.443C43.7813 33.5259 43.8485 33.593 43.9313 33.593C44.0141 33.593 44.0813 33.5259 44.0813 33.443V24.066C44.0813 23.9832 44.0141 23.916 43.9313 23.916Z" fill="black"/>
<path fill-rule="evenodd" clip-rule="evenodd" d="M42.9127 23.916C42.8299 23.916 42.7627 23.9832 42.7627 24.066V33.443C42.7627 33.5259 42.8299 33.593 42.9127 33.593C42.9956 33.593 43.0627 33.5259 43.0627 33.443V24.066C43.0627 23.9832 42.9956 23.916 42.9127 23.916Z" fill="black"/>
<path d="M48.749 23.5847C46.5963 23.9398 41.8678 26.1521 42.4071 29.1454C43.1714 33.3872 45.6487 31.6849 48.9329 31.0755L51.4145 31.9027C52.3024 32.8091 53.61 33.6394 54.4935 32.5461H55.9641V38.2906H39.6957V24.4119L48.749 23.5847Z" fill="black"/>
<path fill-rule="evenodd" clip-rule="evenodd" d="M48.8985 23.5655C48.8882 23.4855 48.8164 23.4279 48.736 23.4352L39.6827 24.2624C39.6055 24.2695 39.5464 24.3342 39.5464 24.4118V38.2905C39.5464 38.3733 39.6135 38.4405 39.6964 38.4405H55.9647C56.0476 38.4405 56.1147 38.3733 56.1147 38.2905V32.546C56.1147 32.4631 56.0476 32.396 55.9647 32.396H54.4942C54.4488 32.396 54.406 32.4165 54.3775 32.4517C54.1749 32.7024 53.9551 32.835 53.7306 32.8882C53.5042 32.9418 53.2594 32.9178 53.0041 32.832C52.4891 32.659 51.9602 32.2446 51.5223 31.7976C51.5056 31.7806 51.4851 31.7678 51.4625 31.7603L48.9809 30.9331C48.9568 30.9251 48.9311 30.9233 48.9061 30.9279C48.2704 31.0459 47.663 31.2048 47.098 31.3527C46.9277 31.3973 46.7612 31.4409 46.5989 31.482C45.8922 31.6612 45.2691 31.7932 44.7295 31.7796C44.1972 31.7661 43.7559 31.6113 43.3987 31.2208C43.0353 30.8237 42.7443 30.1672 42.5554 29.1186C42.3024 27.7144 43.2812 26.4632 44.6554 25.4984C46.0213 24.5393 47.7206 23.9063 48.7741 23.7326C48.8537 23.7194 48.9087 23.6456 48.8985 23.5655ZM47.1263 23.8835C46.262 24.2042 45.313 24.6701 44.483 25.2528C43.0896 26.2312 41.9738 27.5828 42.2601 29.1718C42.4534 30.2442 42.7586 30.9656 43.1773 31.4233C43.6021 31.8876 44.1287 32.0645 44.7219 32.0795C45.3076 32.0943 45.9674 31.9516 46.6727 31.7728C46.8393 31.7306 47.0086 31.6862 47.1808 31.6412C47.7325 31.4968 48.3128 31.3449 48.9229 31.23L51.3335 32.0335C51.7794 32.4839 52.3378 32.9246 52.9085 33.1164C53.2015 33.2148 53.5048 33.25 53.7998 33.1801C54.0775 33.1143 54.3361 32.9581 54.5641 32.696H55.8147V38.1405H39.8464V24.5487L47.1263 23.8835Z" fill="black"/>
<path d="M41.4658 23.5847C40.9201 23.5847 40.4778 23.1424 40.4778 22.5967C40.4778 22.051 40.9201 21.6086 41.4658 21.6086C42.0115 21.6086 42.4539 22.051 42.4539 22.5967C42.4539 23.1424 42.0115 23.5847 41.4658 23.5847Z" fill="#FDD406"/>
<path fill-rule="evenodd" clip-rule="evenodd" d="M41.4658 21.8087C41.901 21.8087 42.2538 22.1615 42.2538 22.5967C42.2538 23.032 41.901 23.3848 41.4658 23.3848C41.0305 23.3848 40.6777 23.032 40.6777 22.5967C40.6777 22.1615 41.0305 21.8087 41.4658 21.8087ZM42.6538 22.5967C42.6538 21.9406 42.1219 21.4087 41.4658 21.4087C40.8096 21.4087 40.2777 21.9406 40.2777 22.5967C40.2777 23.2529 40.8096 23.7848 41.4658 23.7848C42.1219 23.7848 42.6538 23.2529 42.6538 22.5967Z" fill="black"/>
<path d="M43.6863 23.0503C43.1406 23.0503 42.6982 22.608 42.6982 22.0623C42.6982 21.5166 43.1406 21.0742 43.6863 21.0742C44.232 21.0742 44.6743 21.5166 44.6743 22.0623C44.6743 22.608 44.232 23.0503 43.6863 23.0503Z" fill="#FDD406"/>
<path fill-rule="evenodd" clip-rule="evenodd" d="M43.6862 21.2743C44.1214 21.2743 44.4743 21.6271 44.4743 22.0623C44.4743 22.4975 44.1214 22.8504 43.6862 22.8504C43.251 22.8504 42.8982 22.4975 42.8982 22.0623C42.8982 21.6271 43.251 21.2743 43.6862 21.2743ZM44.8743 22.0623C44.8743 21.4062 44.3424 20.8743 43.6862 20.8743C43.0301 20.8743 42.4982 21.4062 42.4982 22.0623C42.4982 22.7185 43.0301 23.2504 43.6862 23.2504C44.3424 23.2504 44.8743 22.7185 44.8743 22.0623Z" fill="black"/>
<path d="M45.9382 22.4846C45.3925 22.4846 44.9502 22.0423 44.9502 21.4966C44.9502 20.9509 45.3925 20.5085 45.9382 20.5085C46.4839 20.5085 46.9263 20.9509 46.9263 21.4966C46.9263 22.0423 46.4839 22.4846 45.9382 22.4846Z" fill="#FDD406"/>
<path fill-rule="evenodd" clip-rule="evenodd" d="M45.9384 20.7083C46.3736 20.7083 46.7265 21.0612 46.7265 21.4964C46.7265 21.9316 46.3736 22.2845 45.9384 22.2845C45.5032 22.2845 45.1504 21.9316 45.1504 21.4964C45.1504 21.0612 45.5032 20.7083 45.9384 20.7083ZM47.1265 21.4964C47.1265 20.8403 46.5946 20.3083 45.9384 20.3083C45.2823 20.3083 44.7504 20.8403 44.7504 21.4964C44.7504 22.1525 45.2823 22.6845 45.9384 22.6845C46.5946 22.6845 47.1265 22.1525 47.1265 21.4964Z" fill="black"/>
<path d="M48.1999 22.1075C47.6542 22.1075 47.2119 21.6651 47.2119 21.1194C47.2119 20.5737 47.6542 20.1313 48.1999 20.1313C48.7456 20.1313 49.188 20.5737 49.188 21.1194C49.188 21.6651 48.7456 22.1075 48.1999 22.1075Z" fill="#FDD406"/>
<path fill-rule="evenodd" clip-rule="evenodd" d="M48.2004 20.3314C48.6356 20.3314 48.9884 20.6842 48.9884 21.1194C48.9884 21.5547 48.6356 21.9075 48.2004 21.9075C47.7651 21.9075 47.4123 21.5547 47.4123 21.1194C47.4123 20.6842 47.7651 20.3314 48.2004 20.3314ZM49.3884 21.1194C49.3884 20.4633 48.8565 19.9314 48.2004 19.9314C47.5442 19.9314 47.0123 20.4633 47.0123 21.1194C47.0123 21.7756 47.5442 22.3075 48.2004 22.3075C48.8565 22.3075 49.3884 21.7756 49.3884 21.1194Z" fill="black"/>
<path d="M50.4617 21.8843C49.916 21.8843 49.4736 21.4419 49.4736 20.8963C49.4736 20.3506 49.916 19.9082 50.4617 19.9082C51.0073 19.9082 51.4497 20.3506 51.4497 20.8963C51.4497 21.4419 51.0073 21.8843 50.4617 21.8843Z" fill="#FDD406"/>
<path fill-rule="evenodd" clip-rule="evenodd" d="M50.4616 20.1083C50.8968 20.1083 51.2497 20.4611 51.2497 20.8963C51.2497 21.3315 50.8968 21.6844 50.4616 21.6844C50.0264 21.6844 49.6736 21.3315 49.6736 20.8963C49.6736 20.4611 50.0264 20.1083 50.4616 20.1083ZM51.6497 20.8963C51.6497 20.2402 51.1177 19.7083 50.4616 19.7083C49.8055 19.7083 49.2736 20.2402 49.2736 20.8963C49.2736 21.5524 49.8055 22.0844 50.4616 22.0844C51.1177 22.0844 51.6497 21.5524 51.6497 20.8963Z" fill="black"/>
<path d="M52.6785 22.0108C52.1328 22.0108 51.6904 21.5684 51.6904 21.0227C51.6904 20.477 52.1328 20.0347 52.6785 20.0347C53.2241 20.0347 53.6665 20.477 53.6665 21.0227C53.6665 21.5684 53.2241 22.0108 52.6785 22.0108Z" fill="#FDD406"/>
<path fill-rule="evenodd" clip-rule="evenodd" d="M52.6786 20.2347C53.1139 20.2347 53.4667 20.5875 53.4667 21.0228C53.4667 21.458 53.1139 21.8108 52.6786 21.8108C52.2434 21.8108 51.8906 21.458 51.8906 21.0228C51.8906 20.5875 52.2434 20.2347 52.6786 20.2347ZM53.8667 21.0228C53.8667 20.3666 53.3348 19.8347 52.6786 19.8347C52.0225 19.8347 51.4906 20.3666 51.4906 21.0228C51.4906 21.6789 52.0225 22.2108 52.6786 22.2108C53.3348 22.2108 53.8667 21.6789 53.8667 21.0228Z" fill="black"/>
<path d="M54.7927 22.7346C54.247 22.7346 53.8047 22.2923 53.8047 21.7466C53.8047 21.2009 54.247 20.7585 54.7927 20.7585C55.3384 20.7585 55.7808 21.2009 55.7808 21.7466C55.7808 22.2923 55.3384 22.7346 54.7927 22.7346Z" fill="#FDD406"/>
<path fill-rule="evenodd" clip-rule="evenodd" d="M54.7929 20.9583C55.2281 20.9583 55.581 21.3112 55.581 21.7464C55.581 22.1816 55.2281 22.5345 54.7929 22.5345C54.3577 22.5345 54.0049 22.1816 54.0049 21.7464C54.0049 21.3112 54.3577 20.9583 54.7929 20.9583ZM55.981 21.7464C55.981 21.0903 55.449 20.5583 54.7929 20.5583C54.1368 20.5583 53.6049 21.0903 53.6049 21.7464C53.6049 22.4025 54.1368 22.9345 54.7929 22.9345C55.449 22.9345 55.981 22.4025 55.981 21.7464Z" fill="black"/>
<path d="M56.5737 24.0442C56.028 24.0442 55.5857 23.6019 55.5857 23.0562C55.5857 22.5105 56.028 22.0681 56.5737 22.0681C57.1194 22.0681 57.5618 22.5105 57.5618 23.0562C57.5618 23.6019 57.1194 24.0442 56.5737 24.0442Z" fill="#FDD406"/>
<path fill-rule="evenodd" clip-rule="evenodd" d="M56.5732 22.2682C57.0084 22.2682 57.3612 22.621 57.3612 23.0562C57.3612 23.4914 57.0084 23.8443 56.5732 23.8443C56.1379 23.8443 55.7851 23.4914 55.7851 23.0562C55.7851 22.621 56.1379 22.2682 56.5732 22.2682ZM57.7612 23.0562C57.7612 22.4001 57.2293 21.8682 56.5732 21.8682C55.917 21.8682 55.3851 22.4001 55.3851 23.0562C55.3851 23.7124 55.917 24.2443 56.5732 24.2443C57.2293 24.2443 57.7612 23.7124 57.7612 23.0562Z" fill="black"/>
<path d="M57.8376 25.8711C57.2919 25.8711 56.8496 25.4288 56.8496 24.8831C56.8496 24.3374 57.2919 23.895 57.8376 23.895C58.3833 23.895 58.8257 24.3374 58.8257 24.8831C58.8257 25.4288 58.3833 25.8711 57.8376 25.8711Z" fill="#FDD406"/>
<path fill-rule="evenodd" clip-rule="evenodd" d="M57.8368 24.0948C58.2721 24.0948 58.6249 24.4476 58.6249 24.8829C58.6249 25.3181 58.2721 25.6709 57.8368 25.6709C57.4016 25.6709 57.0488 25.3181 57.0488 24.8829C57.0488 24.4476 57.4016 24.0948 57.8368 24.0948ZM59.0249 24.8829C59.0249 24.2267 58.493 23.6948 57.8368 23.6948C57.1807 23.6948 56.6488 24.2267 56.6488 24.8829C56.6488 25.539 57.1807 26.0709 57.8368 26.0709C58.493 26.0709 59.0249 25.539 59.0249 24.8829Z" fill="black"/>
<path d="M58.446 28.0196C57.9003 28.0196 57.458 27.5772 57.458 27.0315C57.458 26.4858 57.9003 26.0435 58.446 26.0435C58.9917 26.0435 59.4341 26.4858 59.4341 27.0315C59.4341 27.5772 58.9917 28.0196 58.446 28.0196Z" fill="#FDD406"/>
<path fill-rule="evenodd" clip-rule="evenodd" d="M58.4465 26.2433C58.8817 26.2433 59.2345 26.5961 59.2345 27.0313C59.2345 27.4665 58.8817 27.8194 58.4465 27.8194C58.0112 27.8194 57.6584 27.4665 57.6584 27.0313C57.6584 26.5961 58.0112 26.2433 58.4465 26.2433ZM59.6345 27.0313C59.6345 26.3752 59.1026 25.8433 58.4465 25.8433C57.7903 25.8433 57.2584 26.3752 57.2584 27.0313C57.2584 27.6875 57.7903 28.2194 58.4465 28.2194C59.1026 28.2194 59.6345 27.6875 59.6345 27.0313Z" fill="black"/>
<path d="M58.4236 30.2483C57.8779 30.2483 57.4355 29.806 57.4355 29.2603C57.4355 28.7146 57.8779 28.2722 58.4236 28.2722C58.9693 28.2722 59.4116 28.7146 59.4116 29.2603C59.4116 29.806 58.9693 30.2483 58.4236 30.2483Z" fill="#FDD406"/>
<path fill-rule="evenodd" clip-rule="evenodd" d="M58.4228 28.4723C58.858 28.4723 59.2108 28.8251 59.2108 29.2603C59.2108 29.6955 58.858 30.0484 58.4228 30.0484C57.9876 30.0484 57.6347 29.6955 57.6347 29.2603C57.6347 28.8251 57.9876 28.4723 58.4228 28.4723ZM59.6108 29.2603C59.6108 28.6042 59.0789 28.0723 58.4228 28.0723C57.7666 28.0723 57.2347 28.6042 57.2347 29.2603C57.2347 29.9165 57.7666 30.4484 58.4228 30.4484C59.0789 30.4484 59.6108 29.9165 59.6108 29.2603Z" fill="black"/>
<path d="M57.9978 32.4312C57.4521 32.4312 57.0097 31.9888 57.0097 31.4431C57.0097 30.8974 57.4521 30.4551 57.9978 30.4551C58.5435 30.4551 58.9858 30.8974 58.9858 31.4431C58.9858 31.9888 58.5435 32.4312 57.9978 32.4312Z" fill="#FDD406"/>
<path fill-rule="evenodd" clip-rule="evenodd" d="M57.998 30.6551C58.4332 30.6551 58.786 31.008 58.786 31.4432C58.786 31.8784 58.4332 32.2312 57.998 32.2312C57.5628 32.2312 57.2099 31.8784 57.2099 31.4432C57.2099 31.008 57.5628 30.6551 57.998 30.6551ZM59.186 31.4432C59.186 30.787 58.6541 30.2551 57.998 30.2551C57.3418 30.2551 56.8099 30.787 56.8099 31.4432C56.8099 32.0993 57.3418 32.6312 57.998 32.6312C58.6541 32.6312 59.186 32.0993 59.186 31.4432Z" fill="black"/>
<path d="M41.0292 23.9064L41.1211 25.1931C43.5793 24.8165 47.0641 23.4468 50.3123 23.4468C53.3136 23.4468 55.6432 24.6473 55.6432 27.6747C55.6432 30.6584 54.3796 33.3718 52.702 36.1306L54.4483 36.9578C56.0089 33.9242 57.2976 31.3476 57.2976 27.8586C57.2976 24.9386 55.001 22.0681 51.0476 22.0681C47.5437 22.0681 43.9696 23.2488 41.0292 23.9064Z" fill="#FDD406"/>
<path fill-rule="evenodd" clip-rule="evenodd" d="M51.0476 22.2682C54.888 22.2682 57.0976 25.0466 57.0976 27.8586C57.0976 31.2285 55.8796 33.7341 54.3589 36.6942L52.9877 36.0447C54.6134 33.342 55.8431 30.6459 55.8431 27.6748C55.8431 26.1021 55.2339 24.9817 54.2188 24.2624C53.2144 23.5506 51.8347 23.2468 50.3123 23.2468C48.6629 23.2468 46.9601 23.5943 45.3727 23.9846C44.9133 24.0975 44.4649 24.2136 44.0301 24.3261C43.0398 24.5826 42.1206 24.8205 41.305 24.9606L41.2409 24.0636C41.9 23.9132 42.5859 23.7397 43.292 23.5611C45.7282 22.945 48.4045 22.2682 51.0476 22.2682ZM57.4976 27.8586C57.4976 24.8307 55.1139 21.8682 51.0476 21.8682C48.3494 21.8682 45.6029 22.5631 43.1584 23.1817C42.4017 23.3731 41.674 23.5573 40.9855 23.7112C40.8889 23.7328 40.8226 23.8219 40.8297 23.9206L40.9216 25.2074C40.9256 25.2631 40.9527 25.3146 40.9963 25.3495C41.0399 25.3843 41.0962 25.3993 41.1514 25.3909C42.0403 25.2547 43.065 24.9893 44.1522 24.7079C44.5826 24.5964 45.0228 24.4825 45.4682 24.373C47.0497 23.9842 48.7135 23.6468 50.3123 23.6468C51.7911 23.6468 53.0769 23.9434 53.9875 24.5887C54.8876 25.2265 55.4431 26.2201 55.4431 27.6748C55.4431 30.6015 54.2041 33.2755 52.5311 36.0268C52.5016 36.0752 52.4941 36.1338 52.5104 36.1881C52.5266 36.2423 52.5651 36.2872 52.6164 36.3114L54.3627 37.1386C54.4602 37.1848 54.5768 37.1453 54.6261 37.0494C56.1855 34.0178 57.4976 31.4017 57.4976 27.8586Z" fill="black"/>
<path d="M39.635 10.625L38.6038 12.5562L39.635 14.4813L40.6663 12.5562L39.635 10.625ZM39.635 15.5L38.6038 17.425L39.635 19.3562L40.6663 17.425L39.635 15.5Z" fill="#FDD406"/>
<path fill-rule="evenodd" clip-rule="evenodd" d="M39.6351 10.425C39.7089 10.425 39.7767 10.4657 39.8115 10.5308L40.8427 12.4621C40.8742 12.521 40.8742 12.5918 40.8426 12.6507L39.8114 14.5757C39.7765 14.6407 39.7088 14.6813 39.6351 14.6813C39.5613 14.6813 39.4936 14.6407 39.4588 14.5757L38.4275 12.6507C38.396 12.5918 38.3959 12.521 38.4274 12.4621L39.4586 10.5308C39.4934 10.4657 39.5612 10.425 39.6351 10.425ZM38.8306 12.5561L39.6351 14.0578L40.4395 12.5561L39.6351 11.0496L38.8306 12.5561ZM39.6351 15.3C39.7088 15.3 39.7765 15.3406 39.8114 15.4056L40.8426 17.3306C40.8742 17.3895 40.8742 17.4603 40.8427 17.5193L39.8115 19.4505C39.7767 19.5156 39.7089 19.5563 39.6351 19.5563C39.5612 19.5563 39.4934 19.5156 39.4586 19.4505L38.4274 17.5193C38.3959 17.4603 38.396 17.3895 38.4275 17.3306L39.4588 15.4056C39.4936 15.3406 39.5613 15.3 39.6351 15.3ZM38.8306 17.4252L39.6351 18.9317L40.4395 17.4252L39.6351 15.9236L38.8306 17.4252Z" fill="black"/>
<path d="M35.9585 14.9907L37.5848 16.022L39.2058 14.9907L37.5848 13.9595L35.9585 14.9907ZM40.0637 14.9907L41.6848 16.022L43.3111 14.9907L41.6848 13.9595L40.0637 14.9907Z" fill="#FDD406"/>
<path fill-rule="evenodd" clip-rule="evenodd" d="M37.4775 13.7906C37.543 13.7491 37.6265 13.7492 37.692 13.7908L39.313 14.822C39.3707 14.8587 39.4056 14.9224 39.4056 14.9908C39.4056 15.0592 39.3707 15.1228 39.313 15.1595L37.692 16.1908C37.6265 16.2324 37.543 16.2324 37.4775 16.1909L35.8512 15.1597C35.7934 15.123 35.7583 15.0593 35.7583 14.9908C35.7583 14.9223 35.7934 14.8585 35.8512 14.8219L37.4775 13.7906ZM41.5772 13.7908C41.6426 13.7492 41.7262 13.7491 41.7917 13.7906L43.418 14.8219C43.4758 14.8585 43.5109 14.9223 43.5109 14.9908C43.5109 15.0593 43.4758 15.123 43.418 15.1597L41.7917 16.1909C41.7262 16.2324 41.6426 16.2324 41.5772 16.1908L39.9562 15.1595C39.8985 15.1228 39.8635 15.0592 39.8635 14.9908C39.8635 14.9224 39.8985 14.8587 39.9562 14.822L41.5772 13.7908ZM36.3318 14.9908L37.5844 15.7851L38.833 14.9908L37.5844 14.1965L36.3318 14.9908ZM41.6847 14.1965L40.4361 14.9908L41.6847 15.7851L42.9374 14.9908L41.6847 14.1965Z" fill="black"/>
<path d="M39.635 15.7952C40.0665 15.7952 40.4163 15.4454 40.4163 15.0139C40.4163 14.5824 40.0665 14.2327 39.635 14.2327C39.2035 14.2327 38.8538 14.5824 38.8538 15.0139C38.8538 15.4454 39.2035 15.7952 39.635 15.7952Z" fill="#FDD406"/>
<path fill-rule="evenodd" clip-rule="evenodd" d="M39.6351 14.4325C39.314 14.4325 39.0538 14.6927 39.0538 15.0137C39.0538 15.3347 39.314 15.595 39.6351 15.595C39.9561 15.595 40.2163 15.3347 40.2163 15.0137C40.2163 14.6927 39.9561 14.4325 39.6351 14.4325ZM38.6538 15.0137C38.6538 14.4718 39.0931 14.0325 39.6351 14.0325C40.177 14.0325 40.6163 14.4718 40.6163 15.0137C40.6163 15.5557 40.177 15.995 39.6351 15.995C39.0931 15.995 38.6538 15.5557 38.6538 15.0137Z" fill="black"/>
<path d="M39.6344 22.0909C40.7893 22.0909 41.7254 21.1548 41.7254 19.9999C41.7254 18.8451 40.7893 17.9089 39.6344 17.9089C38.4796 17.9089 37.5435 18.8451 37.5435 19.9999C37.5435 21.1548 38.4796 22.0909 39.6344 22.0909Z" fill="#FDD406"/>
<path fill-rule="evenodd" clip-rule="evenodd" d="M39.635 18.109C38.5906 18.109 37.744 18.9556 37.744 20C37.744 21.0443 38.5906 21.891 39.635 21.891C40.6794 21.891 41.526 21.0443 41.526 20C41.526 18.9556 40.6794 18.109 39.635 18.109ZM37.344 20C37.344 18.7347 38.3697 17.709 39.635 17.709C40.9003 17.709 41.926 18.7347 41.926 20C41.926 21.2653 40.9003 22.291 39.635 22.291C38.3697 22.291 37.344 21.2653 37.344 20Z" fill="black"/>
<path fill-rule="evenodd" clip-rule="evenodd" d="M39.1095 17.825C39.1923 17.825 39.2595 17.8921 39.2595 17.975C39.2595 18.4255 39.2572 18.7401 39.2552 19.0081C39.2545 19.1108 39.2537 19.2067 39.2532 19.3008C39.2528 19.3807 39.1898 19.4463 39.1099 19.4498C38.6119 19.4719 38.1209 19.5242 37.6404 19.6042C37.5586 19.6178 37.4814 19.5625 37.4678 19.4808C37.4542 19.3991 37.5094 19.3218 37.5911 19.3082C38.0375 19.234 38.4927 19.183 38.9541 19.1572C38.9545 19.1077 38.9548 19.0572 38.9552 19.0049C38.9572 18.7373 38.9595 18.4243 38.9595 17.975C38.9595 17.8921 39.0267 17.825 39.1095 17.825ZM40.1657 17.825C40.2486 17.825 40.3157 17.8921 40.3157 17.975V19.1573C40.7769 19.183 41.2318 19.234 41.6779 19.3082C41.7596 19.3218 41.8148 19.3991 41.8012 19.4808C41.7876 19.5625 41.7104 19.6178 41.6286 19.6042C41.1481 19.5242 40.6571 19.4719 40.1591 19.4498C40.0789 19.4462 40.0157 19.3802 40.0157 19.3V17.975C40.0157 17.8921 40.0829 17.825 40.1657 17.825ZM39.6345 20.4937C38.9529 20.4937 38.2852 20.5517 37.6342 20.6604C37.5525 20.6741 37.4752 20.6189 37.4615 20.5372C37.4479 20.4555 37.5031 20.3781 37.5848 20.3645C38.2516 20.2531 38.9358 20.1937 39.6345 20.1937C40.3332 20.1937 41.0174 20.2531 41.6842 20.3645C41.7659 20.3781 41.8211 20.4555 41.8074 20.5372C41.7938 20.6189 41.7165 20.6741 41.6348 20.6604C40.9838 20.5517 40.3161 20.4937 39.6345 20.4937Z" fill="black"/>
<path d="M37.5909 23.5376C37.3925 26.954 36.9892 30.4334 35.6597 32.9626L37.8222 32.0876C38.5775 29.2218 38.7361 25.5191 38.9659 23.7688L37.5909 23.5376ZM41.6784 23.5376L40.3034 23.7688C40.5332 25.5191 40.6919 29.2218 41.4472 32.0876L43.6097 32.9626C42.2801 30.4334 41.8768 26.954 41.6784 23.5376Z" fill="#FDD406"/>
<path fill-rule="evenodd" clip-rule="evenodd" d="M37.466 23.3813C37.5105 23.3458 37.5679 23.331 37.6239 23.3404L38.9989 23.5717C39.1051 23.5895 39.178 23.6882 39.164 23.7949C39.1032 24.2584 39.0469 24.8685 38.9822 25.5691C38.8069 27.469 38.5702 30.0336 38.0154 32.1386C37.9993 32.1996 37.9554 32.2494 37.897 32.273L35.7345 33.148C35.6567 33.1795 35.5675 33.1591 35.5112 33.0969C35.4549 33.0346 35.4434 32.9439 35.4824 32.8696C36.7895 30.3831 37.1926 26.9444 37.3911 23.5261C37.3944 23.4693 37.4216 23.4167 37.466 23.3813ZM41.8029 23.3813C41.8473 23.4167 41.8746 23.4693 41.8779 23.5261C42.0764 26.9444 42.4794 30.3831 43.7865 32.8696C43.8256 32.9439 43.8141 33.0346 43.7578 33.0969C43.7014 33.1591 43.6123 33.1795 43.5345 33.148L41.372 32.273C41.3135 32.2494 41.2696 32.1996 41.2536 32.1386C40.6988 30.0336 40.4621 27.469 40.2867 25.5691C40.2221 24.8685 40.1658 24.2584 40.1049 23.7949C40.0909 23.6882 40.1639 23.5895 40.2701 23.5717L41.6451 23.3404C41.7011 23.331 41.7585 23.3458 41.8029 23.3813ZM37.7772 23.7718C37.5867 26.9101 37.2095 30.118 36.0709 32.5804L37.6538 31.94C38.1812 29.8895 38.4073 27.439 38.5795 25.5737C38.6371 24.9494 38.6886 24.3906 38.7434 23.9343L37.7772 23.7718ZM40.5255 23.9343C40.5803 24.3906 40.6319 24.9494 40.6895 25.5737C40.8616 27.439 41.0877 29.8895 41.6152 31.94L43.1981 32.5804C42.0595 30.118 41.6823 26.9101 41.4918 23.7718L40.5255 23.9343Z" fill="black"/>
<path d="M39.6319 30.9375C37.0493 30.9375 35.1521 32.1548 35.0382 35.2562C34.4069 34.1453 31.7361 30.6511 29.2444 31.1187C27.7625 31.3969 26.453 33.4519 26.6757 35.8062C25.4487 32.2803 21.8543 31.7024 19.2319 33.7875C21.5604 35.702 22.5961 41.3544 24.5569 43.8062H39.6319H54.7069C56.6677 41.3544 57.7098 35.702 60.0382 33.7875C57.4158 31.7024 53.8214 32.2803 52.5944 35.8062C52.8171 33.4519 51.5014 31.3969 50.0194 31.1187C47.5277 30.6511 44.8633 34.1453 44.2319 35.2562C44.118 32.1548 42.2146 30.9375 39.6319 30.9375Z" fill="#FDD406"/>
<path fill-rule="evenodd" clip-rule="evenodd" d="M36.2795 31.7817C37.1394 31.0484 38.3122 30.7375 39.632 30.7375C40.9518 30.7375 42.126 31.0484 42.9874 31.7816C43.7387 32.4212 44.2299 33.3632 44.3848 34.6418C44.8072 34.0251 45.4831 33.1793 46.2941 32.4471C47.3575 31.4869 48.7111 30.6698 50.0564 30.9222C50.8732 31.0755 51.6148 31.7096 52.1195 32.584C52.4865 33.22 52.7357 33.995 52.8017 34.8366C53.4936 33.5575 54.5539 32.7788 55.7473 32.4981C57.1945 32.1577 58.8103 32.5557 60.1627 33.631C60.21 33.6686 60.2377 33.7255 60.2382 33.7859C60.2387 33.8463 60.2119 33.9037 60.1653 33.942C59.6122 34.3968 59.1252 35.083 58.6743 35.9115C58.2244 36.7382 57.8181 37.6918 57.42 38.6708C57.3276 38.898 57.2356 39.1266 57.1436 39.3553C56.8407 40.1082 56.5379 40.8608 56.2219 41.5583C55.8102 42.4673 55.3692 43.2985 54.8632 43.9312C54.8252 43.9787 54.7678 44.0063 54.707 44.0063H24.557C24.4962 44.0063 24.4387 43.9787 24.4008 43.9312C23.8947 43.2984 23.4542 42.4672 23.043 41.5582C22.7272 40.8602 22.4248 40.1071 22.1223 39.3537C22.0307 39.1255 21.939 38.8973 21.847 38.6707C21.4497 37.6917 21.0442 36.7381 20.5949 35.9114C20.1446 35.083 19.658 34.3968 19.105 33.942C19.0583 33.9037 19.0315 33.8463 19.032 33.7859C19.0325 33.7255 19.0602 33.6686 19.1075 33.631C20.4599 32.5557 22.0757 32.1577 23.5229 32.4981C24.7161 32.7788 25.7763 33.5573 26.4682 34.8361C26.5337 33.9948 26.7818 33.2201 27.1475 32.5843C27.6505 31.7097 28.3906 31.0756 29.2076 30.9222C30.5528 30.6698 31.9079 31.4868 32.9729 32.447C33.7851 33.1793 34.4624 34.0252 34.8853 34.6421C35.0398 33.3635 35.5295 32.4214 36.2795 31.7817ZM36.5391 32.0861C35.7804 32.7331 35.2935 33.7541 35.2381 35.2636C35.2348 35.353 35.1726 35.4293 35.0858 35.4506C34.9989 35.4718 34.9085 35.4328 34.8643 35.3551C34.5584 34.8168 33.746 33.6826 32.7051 32.7441C31.654 31.7964 30.4279 31.1002 29.2814 31.3154C28.6163 31.4402 27.9608 31.9726 27.4942 32.7837C27.0301 33.5906 26.7674 34.6515 26.8748 35.7875C26.8844 35.8882 26.8172 35.9802 26.7183 36.0017C26.6195 36.0233 26.5201 35.9676 26.4868 35.872C25.8937 34.1675 24.7384 33.1949 23.4313 32.8875C22.1843 32.5941 20.7745 32.9006 19.5476 33.7982C20.0775 34.2911 20.5343 34.9624 20.9463 35.7204C21.4073 36.5685 21.8199 37.5403 22.2177 38.5202C22.3111 38.7503 22.4036 38.9807 22.4957 39.2102C22.7976 39.9619 23.0955 40.7039 23.4074 41.3933C23.7977 42.2561 24.2036 43.0219 24.6542 43.6063H54.6097C55.0605 43.0219 55.4667 42.256 55.8576 41.3932C56.1697 40.7043 56.468 39.9628 56.7703 39.2116C56.8628 38.9816 56.9557 38.7507 57.0495 38.5201C57.448 37.5401 57.8614 36.5684 58.323 35.7203C58.7355 34.9623 59.1927 34.2911 59.7226 33.7982C58.4957 32.9006 57.0859 32.5941 55.8389 32.8875C54.5318 33.1949 53.3765 34.1675 52.7834 35.872C52.7501 35.9676 52.6507 36.0233 52.5519 36.0017C52.453 35.9802 52.3858 35.8882 52.3954 35.7875C52.5028 34.6517 52.2386 33.5909 51.773 32.7839C51.3049 31.9728 50.6478 31.4402 49.9826 31.3154C48.8361 31.1002 47.6116 31.7963 46.5621 32.744C45.5228 33.6825 44.7119 34.8166 44.4059 35.3551C44.3617 35.4328 44.2713 35.4718 44.1844 35.4506C44.0976 35.4293 44.0354 35.353 44.0321 35.2636C43.9767 33.7543 43.4883 32.7333 42.7281 32.0862C41.9636 31.4354 40.8949 31.1375 39.632 31.1375C38.3691 31.1375 37.302 31.4354 36.5391 32.0861Z" fill="black"/>
<path d="M54.6621 43.8051C54.6621 44.9213 47.9297 46.1489 39.6345 46.1489C31.3393 46.1489 24.6069 44.9213 24.6069 43.8051C24.6069 42.6889 31.3393 42.1047 39.6345 42.1047C47.9297 42.1047 54.6621 42.6889 54.6621 43.8051Z" fill="black"/>
<path fill-rule="evenodd" clip-rule="evenodd" d="M24.9914 43.5396C24.8016 43.6559 24.7575 43.7481 24.7575 43.8052C24.7575 43.8668 24.8071 43.9689 24.9991 44.1035C25.1834 44.2327 25.4644 44.3669 25.8396 44.5011C26.588 44.7687 27.6786 45.025 29.0349 45.2476C31.7454 45.6925 35.494 45.999 39.6351 45.999C43.7762 45.999 47.5248 45.6925 50.2353 45.2476C51.5915 45.025 52.6822 44.7687 53.4306 44.5011C53.8058 44.3669 54.0868 44.2327 54.2711 44.1035C54.4631 43.9689 54.5127 43.8668 54.5127 43.8052C54.5127 43.7481 54.4686 43.6559 54.2788 43.5396C54.0961 43.4276 53.8164 43.3176 53.4409 43.2131C52.6923 43.0048 51.6014 42.8282 50.2439 42.6856C47.5313 42.4008 43.7802 42.2548 39.6351 42.2548C35.49 42.2548 31.7389 42.4008 29.0263 42.6856C27.6688 42.8282 26.5779 43.0048 25.8293 43.2131C25.4538 43.3176 25.1741 43.4276 24.9914 43.5396ZM28.9949 42.3873C31.7223 42.1009 35.485 41.9548 39.6351 41.9548C43.7852 41.9548 47.5479 42.1009 50.2753 42.3873C51.6377 42.5303 52.7484 42.709 53.5213 42.9241C53.9067 43.0314 54.2177 43.1502 54.4356 43.2838C54.6463 43.413 54.8127 43.5832 54.8127 43.8052C54.8127 44.0226 54.6518 44.203 54.4433 44.3492C54.227 44.5008 53.9172 44.6457 53.5316 44.7835C52.7585 45.06 51.6476 45.3198 50.2839 45.5437C47.5544 45.9916 43.7892 46.299 39.6351 46.299C35.481 46.299 31.7158 45.9916 28.9863 45.5437C27.6226 45.3198 26.5117 45.06 25.7386 44.7835C25.353 44.6457 25.0432 44.5008 24.8269 44.3492C24.6184 44.203 24.4575 44.0226 24.4575 43.8052C24.4575 43.5832 24.6238 43.413 24.8346 43.2838C25.0525 43.1502 25.3635 43.0314 25.7488 42.9241C26.5218 42.709 27.6324 42.5303 28.9949 42.3873Z" fill="black"/>
<path d="M39.6352 23.5896C40.0222 23.5896 40.336 23.2759 40.336 22.8888C40.336 22.5018 40.0222 22.188 39.6352 22.188C39.2481 22.188 38.9343 22.5018 38.9343 22.8888C38.9343 23.2759 39.2481 23.5896 39.6352 23.5896Z" fill="#FDD406"/>
<path fill-rule="evenodd" clip-rule="evenodd" d="M39.6345 22.3381C39.3303 22.3381 39.0837 22.5847 39.0837 22.8889C39.0837 23.1931 39.3303 23.4397 39.6345 23.4397C39.9387 23.4397 40.1853 23.1931 40.1853 22.8889C40.1853 22.5847 39.9387 22.3381 39.6345 22.3381ZM38.7837 22.8889C38.7837 22.419 39.1646 22.0381 39.6345 22.0381C40.1044 22.0381 40.4853 22.419 40.4853 22.8889C40.4853 23.3588 40.1044 23.7397 39.6345 23.7397C39.1646 23.7397 38.7837 23.3588 38.7837 22.8889Z" fill="black"/>
<path d="M39.6352 25.1523C40.0476 25.1523 40.382 24.8179 40.382 24.4055C40.382 23.993 40.0476 23.6587 39.6352 23.6587C39.2228 23.6587 38.8884 23.993 38.8884 24.4055C38.8884 24.8179 39.2228 25.1523 39.6352 25.1523Z" fill="#FDD406"/>
<path fill-rule="evenodd" clip-rule="evenodd" d="M39.6346 23.8088C39.305 23.8088 39.0378 24.076 39.0378 24.4056C39.0378 24.7352 39.305 25.0024 39.6346 25.0024C39.9642 25.0024 40.2314 24.7352 40.2314 24.4056C40.2314 24.076 39.9642 23.8088 39.6346 23.8088ZM38.7378 24.4056C38.7378 23.9103 39.1393 23.5088 39.6346 23.5088C40.1299 23.5088 40.5314 23.9103 40.5314 24.4056C40.5314 24.9009 40.1299 25.3024 39.6346 25.3024C39.1393 25.3024 38.7378 24.9009 38.7378 24.4056Z" fill="black"/>
<path d="M39.6346 26.8526C40.0851 26.8526 40.4503 26.4874 40.4503 26.0369C40.4503 25.5864 40.0851 25.2212 39.6346 25.2212C39.1841 25.2212 38.8188 25.5864 38.8188 26.0369C38.8188 26.4874 39.1841 26.8526 39.6346 26.8526Z" fill="#FDD406"/>
<path fill-rule="evenodd" clip-rule="evenodd" d="M39.6352 25.3713C39.2675 25.3713 38.9694 25.6693 38.9694 26.037C38.9694 26.4047 39.2675 26.7027 39.6352 26.7027C40.0028 26.7027 40.3009 26.4047 40.3009 26.037C40.3009 25.6693 40.0028 25.3713 39.6352 25.3713ZM38.6694 26.037C38.6694 25.5037 39.1018 25.0713 39.6352 25.0713C40.1685 25.0713 40.6009 25.5037 40.6009 26.037C40.6009 26.5704 40.1685 27.0027 39.6352 27.0027C39.1018 27.0027 38.6694 26.5704 38.6694 26.037Z" fill="black"/>
<path d="M39.6352 28.7828C40.1492 28.7828 40.5658 28.3662 40.5658 27.8522C40.5658 27.3383 40.1492 26.9216 39.6352 26.9216C39.1212 26.9216 38.7046 27.3383 38.7046 27.8522C38.7046 28.3662 39.1212 28.7828 39.6352 28.7828Z" fill="#FDD406"/>
<path fill-rule="evenodd" clip-rule="evenodd" d="M39.6348 27.0715C39.2037 27.0715 38.8542 27.421 38.8542 27.8521C38.8542 28.2832 39.2037 28.6327 39.6348 28.6327C40.0659 28.6327 40.4154 28.2832 40.4154 27.8521C40.4154 27.421 40.0659 27.0715 39.6348 27.0715ZM38.5542 27.8521C38.5542 27.2553 39.038 26.7715 39.6348 26.7715C40.2316 26.7715 40.7154 27.2553 40.7154 27.8521C40.7154 28.4489 40.2316 28.9327 39.6348 28.9327C39.038 28.9327 38.5542 28.4489 38.5542 27.8521Z" fill="black"/>
<path d="M39.6351 30.8968C40.1998 30.8968 40.6576 30.439 40.6576 29.8743C40.6576 29.3096 40.1998 28.8518 39.6351 28.8518C39.0703 28.8518 38.6125 29.3096 38.6125 29.8743C38.6125 30.439 39.0703 30.8968 39.6351 30.8968Z" fill="#FDD406"/>
<path fill-rule="evenodd" clip-rule="evenodd" d="M39.6352 29.0017C39.1533 29.0017 38.7626 29.3923 38.7626 29.8742C38.7626 30.3561 39.1533 30.7467 39.6352 30.7467C40.117 30.7467 40.5077 30.3561 40.5077 29.8742C40.5077 29.3923 40.117 29.0017 39.6352 29.0017ZM38.4626 29.8742C38.4626 29.2266 38.9876 28.7017 39.6352 28.7017C40.2827 28.7017 40.8077 29.2266 40.8077 29.8742C40.8077 30.5217 40.2827 31.0467 39.6352 31.0467C38.9876 31.0467 38.4626 30.5217 38.4626 29.8742Z" fill="black"/>
<path d="M39.2289 31.8411C39.1183 31.8397 39.0137 31.9329 39.0414 32.1098C39.074 32.3185 39.1148 32.7089 39.1539 32.9723C39.1981 33.271 39.3721 33.1984 39.4164 32.9661C39.4606 32.7339 39.4428 32.5849 39.4539 32.1536C39.4594 31.938 39.3395 31.8425 39.2289 31.8411ZM40.0414 31.8411C39.9308 31.8425 39.8108 31.938 39.8164 32.1536C39.8275 32.5849 39.8096 32.7339 39.8539 32.9661C39.8981 33.1984 40.0722 33.271 40.1164 32.9723C40.1555 32.7089 40.1963 32.3185 40.2289 32.1098C40.2566 31.9329 40.152 31.8397 40.0414 31.8411ZM38.5039 31.9536C38.4027 31.9677 38.2978 32.0697 38.3039 32.1786C38.3149 32.3776 38.37 32.6164 38.3914 32.9161C38.4135 33.2257 38.6317 33.1054 38.6539 32.9286C38.676 32.7516 38.701 32.4901 38.6789 32.1473C38.6706 32.0187 38.6144 31.9622 38.5476 31.9536C38.5337 31.9518 38.5183 31.9516 38.5039 31.9536ZM40.7226 31.9536C40.6558 31.9622 40.5997 32.0187 40.5914 32.1473C40.5693 32.4901 40.5943 32.7516 40.6164 32.9286C40.6385 33.1054 40.8568 33.2257 40.8789 32.9161C40.9003 32.6164 40.9554 32.3776 40.9664 32.1786C40.9724 32.0697 40.8675 31.9677 40.7664 31.9536C40.7519 31.9516 40.7365 31.9518 40.7226 31.9536ZM37.6351 32.3036C37.5425 32.3275 37.4575 32.4389 37.4851 32.5661C37.5404 32.8205 37.5914 33.1017 37.5914 33.3598C37.5914 33.581 37.7803 33.5021 37.7914 33.3473C37.8024 33.1925 37.8226 32.8646 37.8226 32.5661C37.8226 32.3432 37.7277 32.2796 37.6351 32.3036ZM41.5726 32.3036C41.5069 32.3218 41.4476 32.3989 41.4476 32.5661C41.4476 32.8646 41.4679 33.1925 41.4789 33.3473C41.49 33.5021 41.6789 33.581 41.6789 33.3598C41.6789 33.1017 41.7299 32.8205 41.7851 32.5661C41.8128 32.4389 41.7278 32.3275 41.6351 32.3036C41.612 32.2976 41.5945 32.2975 41.5726 32.3036ZM29.7539 32.3378C29.6431 32.3341 29.5653 32.4844 29.6414 32.6503C29.763 32.9157 29.8922 33.0832 30.0164 33.369C30.127 33.6234 30.2966 33.4648 30.2414 33.2878C30.186 33.1108 30.126 32.9137 29.9601 32.5378C29.8979 32.3967 29.8204 32.34 29.7539 32.3378ZM49.5164 32.3378C49.4499 32.34 49.3724 32.3967 49.3101 32.5378C49.1443 32.9137 49.0842 33.1108 49.0289 33.2878C48.9736 33.4648 49.1433 33.6234 49.2539 33.369C49.3781 33.0832 49.5073 32.9157 49.6289 32.6503C49.7049 32.4844 49.6272 32.3341 49.5164 32.3378ZM30.5539 32.3503C30.4723 32.3752 30.4229 32.4786 30.4726 32.6003C30.5722 32.8436 30.7159 33.093 30.8164 33.3565C30.9048 33.5887 31.1016 33.5229 31.0351 33.3128C30.9688 33.1027 30.9491 32.9797 30.8164 32.5815C30.75 32.3825 30.6354 32.3254 30.5539 32.3503ZM48.6539 32.3503C48.5841 32.3652 48.5037 32.4322 48.4539 32.5815C48.3212 32.9797 48.3015 33.1027 48.2351 33.3128C48.1687 33.5229 48.3654 33.5887 48.4539 33.3565C48.5543 33.093 48.698 32.8436 48.7976 32.6003C48.8474 32.4786 48.7979 32.3752 48.7164 32.3503C48.696 32.344 48.6771 32.3453 48.6539 32.3503ZM31.5539 32.544C31.4511 32.5636 31.3714 32.7205 31.4414 32.9128C31.5299 33.1561 31.6558 33.3863 31.7664 33.6628C31.877 33.9392 32.0606 33.8835 32.0164 33.7065C31.9721 33.5296 31.9179 33.2363 31.7851 32.794C31.7271 32.6005 31.6339 32.5288 31.5539 32.544ZM47.7164 32.544C47.6364 32.5288 47.5432 32.6005 47.4851 32.794C47.3524 33.2363 47.2981 33.5296 47.2539 33.7065C47.2096 33.8835 47.3933 33.9392 47.5039 33.6628C47.6145 33.3863 47.7404 33.1561 47.8289 32.9128C47.8988 32.7205 47.8192 32.5636 47.7164 32.544ZM29.0789 32.6815C28.9675 32.6929 28.8661 32.8746 28.9351 33.0128C29.0458 33.234 29.1159 33.3092 29.2226 33.544C29.3332 33.7873 29.4544 33.5989 29.4101 33.444C29.3659 33.2892 29.3091 33.1089 29.2539 32.8878C29.2134 32.7258 29.1457 32.6747 29.0789 32.6815ZM50.1914 32.6815C50.1245 32.6747 50.0569 32.7258 50.0164 32.8878C49.9611 33.1089 49.9044 33.2892 49.8601 33.444C49.8159 33.5989 49.937 33.7873 50.0476 33.544C50.1544 33.3092 50.2244 33.234 50.3351 33.0128C50.4042 32.8746 50.3027 32.6929 50.1914 32.6815ZM36.7851 33.2411C36.6684 33.241 36.5437 33.396 36.5851 33.5411C36.6515 33.7734 36.754 33.9793 36.8289 34.2786C36.8952 34.544 37.0837 34.4118 37.0726 34.2348C37.0615 34.0579 37.0312 33.8171 36.9539 33.4411C36.9248 33.3001 36.8552 33.2411 36.7851 33.2411ZM42.4851 33.2411C42.4151 33.2411 42.3454 33.3001 42.3164 33.4411C42.239 33.8171 42.2087 34.0579 42.1976 34.2348C42.1865 34.4118 42.375 34.544 42.4414 34.2786C42.5162 33.9793 42.6188 33.7734 42.6851 33.5411C42.7266 33.396 42.6019 33.241 42.4851 33.2411ZM39.6351 33.4786C39.4913 33.4786 39.4714 33.6717 39.4664 33.8286C39.4499 34.3428 39.2364 34.8423 39.0539 35.0911C38.8714 35.34 38.6028 35.2738 38.3539 35.1411C38.105 35.0084 37.9568 34.9089 37.6914 34.7098C37.4259 34.5108 37.2247 34.6272 37.5414 35.0786C38.4649 36.3946 39.4664 37.5195 39.4664 39.6661C39.4664 39.9436 39.5149 40.0286 39.6351 40.0286C39.7554 40.0286 39.8101 39.9436 39.8101 39.6661C39.8101 37.5195 40.8054 36.3946 41.7289 35.0786C42.0456 34.6272 41.8443 34.5108 41.5789 34.7098C41.3135 34.9089 41.1653 35.0084 40.9164 35.1411C40.6675 35.2738 40.3988 35.34 40.2164 35.0911C40.0338 34.8423 39.8204 34.3428 39.8039 33.8286C39.7988 33.6717 39.779 33.4786 39.6351 33.4786ZM32.5789 33.1565C32.5663 33.1562 32.5526 33.1592 32.5414 33.1628C32.4877 33.1797 32.4519 33.2445 32.4726 33.3565C32.5097 33.557 32.6486 33.9498 32.7039 34.1378C32.7592 34.3258 32.9904 34.2858 32.9351 34.0315C32.8798 33.7771 32.8827 33.7003 32.8164 33.4128C32.7801 33.2555 32.667 33.1589 32.5789 33.1565ZM46.6914 33.1565C46.6033 33.1589 46.4902 33.2555 46.4539 33.4128C46.3875 33.7003 46.3905 33.7771 46.3351 34.0315C46.2799 34.2858 46.511 34.3258 46.5664 34.1378C46.6216 33.9498 46.7605 33.557 46.7976 33.3565C46.8184 33.2445 46.7826 33.1797 46.7289 33.1628C46.7177 33.1592 46.704 33.1562 46.6914 33.1565ZM28.3851 33.2378C28.2694 33.2468 28.1864 33.3923 28.3039 33.6065C28.4307 33.8379 28.6481 34.1282 28.7476 34.294C28.8471 34.4599 29.0193 34.348 28.8976 34.1378C28.776 33.9277 28.7352 33.6863 28.5914 33.3878C28.5375 33.2758 28.4546 33.2323 28.3851 33.2378ZM50.8851 33.2378C50.8157 33.2323 50.7328 33.2758 50.6789 33.3878C50.5351 33.6863 50.4942 33.9277 50.3726 34.1378C50.2509 34.348 50.4231 34.4599 50.5226 34.294C50.6221 34.1282 50.8396 33.8379 50.9664 33.6065C51.0839 33.3923 51.0009 33.2468 50.8851 33.2378ZM22.0476 33.9036C21.9141 33.8965 21.8722 34.1376 21.9976 34.2973C22.1802 34.5295 22.3072 34.6527 22.5164 34.8411C22.6823 34.9904 22.7306 34.7966 22.6476 34.6473C22.5647 34.4981 22.4447 34.3462 22.2789 34.0973C22.188 33.9609 22.1083 33.9068 22.0476 33.9036ZM57.2226 33.9036C57.1619 33.9068 57.0823 33.9609 56.9914 34.0973C56.8255 34.3462 56.7056 34.4981 56.6226 34.6473C56.5397 34.7966 56.5879 34.9904 56.7539 34.8411C56.9631 34.6527 57.0901 34.5295 57.2726 34.2973C57.3981 34.1376 57.3562 33.8965 57.2226 33.9036ZM23.0539 34.1036C22.9474 34.105 22.8772 34.1836 22.9601 34.3661C23.0789 34.6273 23.2355 34.9232 23.3351 35.1223C23.4347 35.3214 23.738 35.3882 23.6164 35.0786C23.4947 34.7689 23.4707 34.6099 23.3601 34.3223C23.3048 34.1786 23.1603 34.1022 23.0539 34.1036ZM56.2164 34.1036C56.1099 34.1022 55.9654 34.1786 55.9101 34.3223C55.7995 34.6099 55.7756 34.7689 55.6539 35.0786C55.5323 35.3882 55.8356 35.3214 55.9351 35.1223C56.0347 34.9232 56.1913 34.6273 56.3101 34.3661C56.3931 34.1836 56.3228 34.105 56.2164 34.1036ZM21.1039 34.1723C20.9491 34.1739 20.9358 34.3291 21.0726 34.4286C21.2552 34.5613 21.4727 34.7085 21.6851 34.8786C21.9339 35.0776 22.0303 34.8945 21.8976 34.7286C21.7649 34.5627 21.6357 34.3945 21.3039 34.2286C21.2209 34.1871 21.1555 34.1718 21.1039 34.1723ZM58.1664 34.1723C58.1148 34.1718 58.0493 34.1871 57.9664 34.2286C57.6346 34.3945 57.5053 34.5627 57.3726 34.7286C57.2399 34.8945 57.3363 35.0776 57.5851 34.8786C57.7976 34.7085 58.0151 34.5613 58.1976 34.4286C58.3345 34.3291 58.3211 34.1739 58.1664 34.1723ZM36.2351 34.3161C36.1485 34.3282 36.0738 34.4265 36.1101 34.5536C36.1765 34.7858 36.2518 35.0319 36.2976 35.2723C36.3419 35.5046 36.6106 35.5074 36.5664 35.2973C36.5222 35.0872 36.5 34.8243 36.4226 34.5036C36.3936 34.3833 36.333 34.3255 36.2726 34.3161C36.2601 34.3141 36.2475 34.3143 36.2351 34.3161ZM42.9976 34.3161C42.9373 34.3255 42.8767 34.3833 42.8476 34.5036C42.7703 34.8243 42.7481 35.0872 42.7039 35.2973C42.6596 35.5074 42.9284 35.5046 42.9726 35.2723C43.0185 35.0319 43.0938 34.7858 43.1601 34.5536C43.1964 34.4265 43.1217 34.3282 43.0351 34.3161C43.0228 34.3143 43.0102 34.3141 42.9976 34.3161ZM30.2164 33.919C30.1484 33.9378 30.1093 34.0678 30.1601 34.2503C30.4422 35.2622 30.5286 35.7951 30.4789 36.044C30.4291 36.2928 30.2926 36.327 30.1101 36.244C29.9277 36.1611 29.7135 36.0414 29.5476 35.9253C29.3818 35.8091 29.2093 35.9481 29.4476 36.144C30.6586 37.1394 31.498 38.2769 31.8226 39.6565C31.889 39.9385 32.0661 39.9717 32.0164 39.6565C31.7419 37.9186 31.6891 36.4898 32.1039 35.594C32.2597 35.2574 32.1028 34.9341 31.8539 35.4815C31.688 35.8465 31.4196 35.9905 31.2039 35.6753C30.9883 35.3601 30.5428 34.5193 30.4101 34.1378C30.3603 33.9947 30.2989 33.9285 30.2476 33.919C30.2369 33.9171 30.2261 33.9163 30.2164 33.919ZM49.0226 33.919C48.9713 33.9285 48.9099 33.9947 48.8601 34.1378C48.7274 34.5193 48.282 35.3601 48.0664 35.6753C47.8507 35.9905 47.5822 35.8465 47.4164 35.4815C47.1675 34.9341 47.0105 35.2574 47.1664 35.594C47.5811 36.4898 47.5283 37.9186 47.2539 39.6565C47.2041 39.9717 47.3813 39.9385 47.4476 39.6565C47.7723 38.2769 48.6117 37.1394 49.8226 36.144C50.061 35.9481 49.8885 35.8091 49.7226 35.9253C49.5568 36.0414 49.3426 36.1611 49.1601 36.244C48.9777 36.327 48.8411 36.2928 48.7914 36.044C48.7416 35.7951 48.8281 35.2622 49.1101 34.2503C49.161 34.0678 49.1219 33.9378 49.0539 33.919C49.0442 33.9163 49.0333 33.9171 49.0226 33.919ZM24.1289 34.4036C24.0197 34.405 23.9291 34.4815 23.9789 34.6473C24.0586 34.913 24.2236 35.2002 24.2789 35.3661C24.3342 35.5319 24.5121 35.4545 24.4789 35.2223C24.4457 34.9901 24.4294 34.8517 24.3851 34.5973C24.363 34.4702 24.2381 34.4022 24.1289 34.4036ZM55.1414 34.4036C55.0322 34.4022 54.9072 34.4702 54.8851 34.5973C54.8409 34.8517 54.8245 34.9901 54.7914 35.2223C54.7582 35.4545 54.936 35.5319 54.9914 35.3661C55.0466 35.2002 55.2116 34.913 55.2914 34.6473C55.3411 34.4815 55.2506 34.405 55.1414 34.4036ZM27.8851 34.0565C27.7581 34.0337 27.7399 34.3614 27.8476 34.494C27.9914 34.6711 28.1911 34.885 28.3914 35.1253C28.5572 35.3244 28.6597 35.1474 28.5601 34.9815C28.4606 34.8156 28.313 34.6393 28.0476 34.219C27.9813 34.114 27.9275 34.0641 27.8851 34.0565ZM51.3851 34.0565C51.3428 34.0641 51.289 34.114 51.2226 34.219C50.9572 34.6393 50.8096 34.8156 50.7101 34.9815C50.6105 35.1474 50.713 35.3244 50.8789 35.1253C51.0792 34.885 51.2788 34.6711 51.4226 34.494C51.5304 34.3614 51.5121 34.0337 51.3851 34.0565ZM24.9851 34.8473C24.9063 34.8418 24.8395 34.9057 24.8726 35.0661C24.9189 35.2894 24.986 35.4747 25.0414 35.6848C25.0966 35.895 25.2414 35.8589 25.2414 35.6598C25.2414 35.4608 25.2058 35.2387 25.1726 35.0286C25.156 34.9235 25.0639 34.8529 24.9851 34.8473ZM54.2851 34.8473C54.2063 34.8529 54.1142 34.9235 54.0976 35.0286C54.0645 35.2387 54.0289 35.4608 54.0289 35.6598C54.0289 35.8589 54.1736 35.895 54.2289 35.6848C54.2842 35.4747 54.3514 35.2894 54.3976 35.0661C54.4308 34.9057 54.3639 34.8418 54.2851 34.8473ZM27.6039 35.1315C27.4801 35.1502 27.3712 35.2699 27.5164 35.4565C27.7486 35.7551 28.0029 35.9647 28.0914 36.0753C28.1798 36.1859 28.4039 36.1451 28.2601 35.9128C28.1132 35.6755 27.8909 35.3897 27.7914 35.2128C27.7541 35.1464 27.6781 35.1203 27.6039 35.1315ZM51.6164 35.1315C51.5619 35.1372 51.5069 35.163 51.4789 35.2128C51.3794 35.3897 51.1571 35.6755 51.0101 35.9128C50.8664 36.1451 51.0904 36.1859 51.1789 36.0753C51.2674 35.9647 51.5217 35.7551 51.7539 35.4565C51.8991 35.2699 51.7901 35.1502 51.6664 35.1315C51.6478 35.1287 51.6345 35.1296 51.6164 35.1315ZM23.4726 35.9661C23.375 35.9572 23.3413 36.036 23.4726 36.2161C23.7712 36.6252 24.1005 37.2444 24.1226 37.5098C24.1448 37.7753 24.0136 37.7723 23.8914 37.7723C23.5264 37.7723 23.3481 37.5059 23.0164 37.4286C22.6846 37.3512 22.6364 37.5256 22.8726 37.6973C24.0891 38.5821 25.3084 39.5692 25.7976 40.4661C25.9967 40.8311 26.2657 40.9645 26.1164 40.6161C25.659 39.5486 25.5481 38.6448 25.6476 38.0973C25.7472 37.5499 25.883 37.1813 25.8664 36.8661C25.8498 36.5509 25.6711 36.5724 25.5976 36.8661C25.5479 37.0652 25.4515 37.329 25.3851 37.4286C25.3188 37.5281 25.052 37.5839 24.7976 37.2411C24.5433 36.8983 23.9015 36.2382 23.6914 36.0723C23.6126 36.0101 23.5312 35.9714 23.4726 35.9661ZM55.7976 35.9661C55.739 35.9714 55.6577 36.0101 55.5789 36.0723C55.3688 36.2382 54.727 36.8983 54.4726 37.2411C54.2182 37.5839 53.9515 37.5281 53.8851 37.4286C53.8188 37.329 53.7224 37.0652 53.6726 36.8661C53.5992 36.5724 53.4205 36.5509 53.4039 36.8661C53.3873 37.1813 53.523 37.5499 53.6226 38.0973C53.7221 38.6448 53.6113 39.5486 53.1539 40.6161C53.0045 40.9645 53.2736 40.8311 53.4726 40.4661C53.9619 39.5692 55.1812 38.5821 56.3976 37.6973C56.6338 37.5256 56.5857 37.3512 56.2539 37.4286C55.9221 37.5059 55.7439 37.7723 55.3789 37.7723C55.2567 37.7723 55.1255 37.7753 55.1476 37.5098C55.1697 37.2444 55.4991 36.6252 55.7976 36.2161C55.929 36.036 55.8953 35.9572 55.7976 35.9661Z" fill="black"/>
<path d="M25.2661 42.5302L25.6561 43.765L25.2661 42.5302ZM26.0682 42.2961L26.4138 43.5441L26.0682 42.2961ZM26.9347 42.1537L27.1721 43.4267L26.9347 42.1537ZM27.7387 41.9928L27.9928 43.2626L27.7387 41.9928ZM28.7698 41.891L28.9764 43.1694L28.7698 41.891ZM29.8668 41.8923L30.0892 43.168L29.8668 41.8923ZM30.9375 41.5303L31.0982 42.8152L30.9375 41.5303ZM31.9449 41.5953L32.1056 42.8802L31.9449 41.5953ZM32.9197 41.4653L33.0804 42.7502L32.9197 41.4653ZM33.8983 41.3643L33.9867 42.6562L33.8983 41.3643ZM34.944 41.3639L35.0207 42.6566L34.944 41.3639ZM35.892 41.2986L35.9574 42.5919L35.892 41.2986ZM36.9374 41.2334L36.9917 42.5272L36.9374 41.2334ZM38.1398 41.2009L38.194 42.4947L38.1398 41.2009ZM54.0029 42.5302L53.6129 43.765L54.0029 42.5302ZM53.2008 42.2961L52.8552 43.5441L53.2008 42.2961ZM52.3343 42.1537L52.0969 43.4267L52.3343 42.1537ZM51.5303 41.9928L51.2762 43.2626L51.5303 41.9928ZM50.4991 41.891L50.2925 43.1694L50.4991 41.891ZM49.4022 41.8923L49.1797 43.168L49.4022 41.8923ZM48.3315 41.5303L48.1708 42.8152L48.3315 41.5303ZM47.3241 41.5953L47.1634 42.8802L47.3241 41.5953ZM46.3492 41.4653L46.1885 42.7502L46.3492 41.4653ZM45.3707 41.3643L45.2823 42.6562L45.3707 41.3643ZM44.325 41.3639L44.2483 42.6566L44.325 41.3639ZM43.3769 41.2986L43.3116 42.5919L43.3769 41.2986ZM42.3315 41.2334L42.2773 42.5272L42.3315 41.2334ZM41.1292 41.2009L41.0749 42.4947L41.1292 41.2009ZM39.6345 41.1167V42.5413V41.1167Z" fill="#FDD406"/>
<path fill-rule="evenodd" clip-rule="evenodd" d="M39.6351 40.9668C39.718 40.9668 39.7851 41.034 39.7851 41.1168V42.5414C39.7851 42.6243 39.718 42.6914 39.6351 42.6914C39.5523 42.6914 39.4851 42.6243 39.4851 42.5414V41.1168C39.4851 41.034 39.5523 40.9668 39.6351 40.9668ZM38.1341 41.0511C38.2169 41.0476 38.2868 41.1119 38.2903 41.1947L38.3445 42.4885C38.348 42.5713 38.2837 42.6412 38.201 42.6447C38.1182 42.6481 38.0483 42.5838 38.0448 42.5011L37.9905 41.2073C37.9871 41.1245 38.0514 41.0546 38.1341 41.0511ZM41.1361 41.0511C41.2189 41.0546 41.2832 41.1245 41.2797 41.2073L41.2254 42.5011C41.222 42.5838 41.152 42.6481 41.0693 42.6447C40.9865 42.6412 40.9222 42.5713 40.9257 42.4885L40.9799 41.1947C40.9834 41.1119 41.0533 41.0476 41.1361 41.0511ZM36.9318 41.0836C37.0146 41.0801 37.0845 41.1444 37.0879 41.2272L37.1422 42.521C37.1457 42.6038 37.0814 42.6737 36.9986 42.6771C36.9158 42.6806 36.8459 42.6163 36.8425 42.5336L36.7882 41.2398C36.7847 41.157 36.849 41.0871 36.9318 41.0836ZM42.3384 41.0836C42.4212 41.0871 42.4855 41.157 42.482 41.2398L42.4278 42.5336C42.4243 42.6163 42.3544 42.6806 42.2716 42.6771C42.1888 42.6737 42.1246 42.6038 42.128 42.521L42.1823 41.2272C42.1858 41.1444 42.2557 41.0801 42.3384 41.0836ZM35.8851 41.1489C35.9678 41.1447 36.0383 41.2084 36.0425 41.2912L36.1078 42.5845C36.112 42.6672 36.0483 42.7376 35.9656 42.7418C35.8828 42.746 35.8124 42.6823 35.8082 42.5996L35.7429 41.3063C35.7387 41.2236 35.8024 41.1531 35.8851 41.1489ZM43.3851 41.1489C43.4679 41.1531 43.5315 41.2236 43.5274 41.3063L43.462 42.5996C43.4579 42.6823 43.3874 42.746 43.3047 42.7418C43.2219 42.7376 43.1582 42.6672 43.1624 42.5845L43.2277 41.2912C43.2319 41.2084 43.3024 41.1447 43.3851 41.1489ZM34.9357 41.2143C35.0184 41.2094 35.0894 41.2724 35.0943 41.3551L35.171 42.6478C35.176 42.7305 35.1129 42.8015 35.0302 42.8064C34.9475 42.8113 34.8765 42.7483 34.8716 42.6656L34.7949 41.3729C34.79 41.2902 34.853 41.2192 34.9357 41.2143ZM44.3345 41.2143C44.4172 41.2192 44.4803 41.2902 44.4754 41.3729L44.3987 42.6656C44.3938 42.7483 44.3227 42.8113 44.24 42.8064C44.1573 42.8015 44.0943 42.7305 44.0992 42.6478L44.1759 41.3551C44.1808 41.2724 44.2518 41.2094 44.3345 41.2143ZM33.8887 41.2147C33.9713 41.2091 34.0429 41.2715 34.0485 41.3542L34.1369 42.6461C34.1426 42.7287 34.0802 42.8003 33.9975 42.806C33.9149 42.8116 33.8433 42.7492 33.8376 42.6666L33.7492 41.3746C33.7436 41.292 33.806 41.2204 33.8887 41.2147ZM45.3816 41.2147C45.4642 41.2204 45.5266 41.292 45.521 41.3746L45.4326 42.6666C45.4269 42.7492 45.3553 42.8116 45.2727 42.806C45.19 42.8003 45.1276 42.7287 45.1333 42.6461L45.2217 41.3542C45.2273 41.2715 45.2989 41.2091 45.3816 41.2147ZM32.9018 41.3165C32.984 41.3063 33.0589 41.3646 33.0692 41.4468L33.2299 42.7317C33.2402 42.8139 33.1819 42.8889 33.0997 42.8992C33.0175 42.9094 32.9425 42.8511 32.9322 42.7689L32.7715 41.484C32.7613 41.4018 32.8196 41.3268 32.9018 41.3165ZM46.3685 41.3165C46.4507 41.3268 46.509 41.4018 46.4987 41.484L46.338 42.7689C46.3277 42.8511 46.2527 42.9094 46.1705 42.8992C46.0883 42.8889 46.03 42.8139 46.0403 42.7317L46.201 41.4468C46.2113 41.3646 46.2863 41.3063 46.3685 41.3165ZM30.9195 41.3815C31.0017 41.3712 31.0767 41.4296 31.087 41.5118L31.2477 42.7967C31.258 42.8789 31.1997 42.9539 31.1175 42.9641C31.0352 42.9744 30.9603 42.9161 30.95 42.8339L30.7893 41.549C30.779 41.4668 30.8373 41.3918 30.9195 41.3815ZM48.3507 41.3815C48.4329 41.3918 48.4912 41.4668 48.4809 41.549L48.3202 42.8339C48.31 42.9161 48.235 42.9744 48.1528 42.9641C48.0706 42.9539 48.0123 42.8789 48.0226 42.7967L48.1833 41.5118C48.1935 41.4296 48.2685 41.3712 48.3507 41.3815ZM31.9269 41.4465C32.0091 41.4362 32.0841 41.4945 32.0943 41.5767L32.255 42.8617C32.2653 42.9439 32.207 43.0189 32.1248 43.0291C32.0426 43.0394 31.9676 42.9811 31.9574 42.8989L31.7967 41.614C31.7864 41.5318 31.8447 41.4568 31.9269 41.4465ZM47.3433 41.4465C47.4256 41.4568 47.4839 41.5318 47.4736 41.614L47.3129 42.8989C47.3026 42.9811 47.2276 43.0394 47.1454 43.0291C47.0632 43.0189 47.0049 42.9439 47.0152 42.8617L47.1759 41.5767C47.1862 41.4945 47.2611 41.4362 47.3433 41.4465ZM28.7465 41.743C28.8283 41.7298 28.9053 41.7854 28.9185 41.8672L29.1251 43.1455C29.1384 43.2273 29.0828 43.3043 29.001 43.3175C28.9192 43.3308 28.8422 43.2752 28.829 43.1934L28.6224 41.915C28.6092 41.8333 28.6648 41.7562 28.7465 41.743ZM50.5237 41.743C50.6055 41.7562 50.6611 41.8333 50.6478 41.915L50.4412 43.1934C50.428 43.2752 50.351 43.3308 50.2692 43.3175C50.1875 43.3043 50.1319 43.2273 50.1451 43.1455L50.3517 41.8672C50.3649 41.7854 50.4419 41.7298 50.5237 41.743ZM29.8416 41.7447C29.9232 41.7304 30.0009 41.7851 30.0151 41.8667L30.2376 43.1424C30.2519 43.224 30.1972 43.3017 30.1156 43.3159C30.034 43.3301 29.9563 43.2755 29.9421 43.1939L29.7196 41.9182C29.7054 41.8366 29.76 41.7589 29.8416 41.7447ZM49.4286 41.7447C49.5102 41.7589 49.5649 41.8366 49.5506 41.9182L49.3281 43.1939C49.3139 43.2755 49.2362 43.3301 49.1546 43.3159C49.073 43.3017 49.0184 43.224 49.0326 43.1424L49.2551 41.8667C49.2693 41.7851 49.347 41.7304 49.4286 41.7447ZM27.7099 41.8458C27.7911 41.8295 27.8702 41.8822 27.8864 41.9635L28.1405 43.2332C28.1568 43.3145 28.1041 43.3935 28.0229 43.4097C27.9416 43.426 27.8626 43.3733 27.8464 43.2921L27.5923 42.0223C27.576 41.9411 27.6287 41.8621 27.7099 41.8458ZM51.5603 41.8458C51.6415 41.8621 51.6942 41.9411 51.678 42.0223L51.4239 43.2921C51.4076 43.3733 51.3286 43.426 51.2474 43.4097C51.1661 43.3935 51.1134 43.3145 51.1297 43.2332L51.3838 41.9635C51.4 41.8822 51.4791 41.8295 51.5603 41.8458ZM26.9078 42.0063C26.9892 41.9911 27.0676 42.0448 27.0828 42.1263L27.3202 43.3993C27.3354 43.4807 27.2816 43.559 27.2002 43.5742C27.1188 43.5894 27.0404 43.5357 27.0253 43.4543L26.7878 42.1813C26.7727 42.0998 26.8264 42.0215 26.9078 42.0063ZM52.3624 42.0063C52.4439 42.0215 52.4976 42.0998 52.4824 42.1813L52.245 43.4543C52.2298 43.5357 52.1515 43.5894 52.07 43.5742C51.9886 43.559 51.9349 43.4807 51.9501 43.3993L52.1875 42.1263C52.2027 42.0448 52.281 41.9911 52.3624 42.0063ZM26.0288 42.1517C26.1087 42.1296 26.1913 42.1764 26.2134 42.2562L26.5589 43.5042C26.581 43.584 26.5342 43.6667 26.4544 43.6888C26.3746 43.7109 26.2919 43.6641 26.2698 43.5843L25.9243 42.3363C25.9022 42.2564 25.949 42.1738 26.0288 42.1517ZM53.2414 42.1517C53.3212 42.1738 53.368 42.2564 53.3459 42.3363L53.0004 43.5843C52.9783 43.6641 52.8957 43.7109 52.8158 43.6888C52.736 43.6667 52.6892 43.584 52.7113 43.5042L53.0568 42.2562C53.0789 42.1764 53.1616 42.1296 53.2414 42.1517ZM25.2216 42.3872C25.3006 42.3623 25.3848 42.4061 25.4098 42.4851L25.7997 43.72C25.8247 43.7989 25.7809 43.8832 25.7019 43.9082C25.6229 43.9331 25.5386 43.8893 25.5136 43.8103L25.1237 42.5755C25.0988 42.4965 25.1426 42.4122 25.2216 42.3872ZM54.0487 42.3872C54.1277 42.4122 54.1715 42.4965 54.1465 42.5755L53.7566 43.8103C53.7316 43.8893 53.6474 43.9331 53.5684 43.9082C53.4894 43.8832 53.4456 43.7989 53.4705 43.72L53.8605 42.4851C53.8854 42.4061 53.9697 42.3623 54.0487 42.3872Z" fill="black"/>
</g>
<defs>
<clipPath id="clip0_909_287030">
<rect width="160" height="120" fill="white"/>
</clipPath>
</defs>
</svg>
