<svg width="160" height="120" viewBox="0 0 160 120" fill="none" xmlns="http://www.w3.org/2000/svg">
<g clip-path="url(#clip0_909_225359)">
<path d="M0 0H160V120H0V0Z" fill="#FDD406"/>
<path d="M7.5 7.5H49V112.5H7.5V7.5Z" fill="#F4812F"/>
<path d="M7.5 7.5H28.5V112.5H7.5V7.5Z" fill="#005801"/>
<path d="M57 8H153V113H57V8Z" fill="#8A1538"/>
<path d="M86.0712 91.5017L86.8069 91.0872L87.1217 91.5025C87.5411 92.0558 88.7014 92.0495 89.4712 91.4898L90.0598 91.0618L90.5528 91.4898C91.2009 92.0525 92.4114 92.0531 93.1842 91.4918C93.7253 91.0985 93.8007 91.0906 94.1585 91.3898C94.3718 91.5682 94.9973 91.7712 95.5487 91.841C96.5416 91.9669 96.5566 91.9599 97.1375 91.1096C97.6241 90.3975 97.7 90.1092 97.5841 89.4186C97.4976 88.8756 97.4362 88.3292 97.4 87.7809C97.3559 86.9791 97.3607 86.974 98.5578 86.5673C99.2188 86.3427 99.9841 86.0415 100.258 85.8979C100.736 85.6476 102.055 84.1361 102.055 83.8382C102.055 83.7593 101.54 83.6383 100.91 83.5694C98.4069 83.2954 97.9829 81.9838 99.6104 79.5476C102.264 75.5744 103.866 71.7052 103.877 69.2403C103.882 68.1385 103.946 67.7687 104.091 68.0083C104.684 68.9874 103.621 73.0928 102.012 76.041L101.364 77.2281L101.982 77.0893C102.323 77.0129 104.322 76.1898 106.425 75.2603C112.183 72.7159 114.161 72.2173 117.887 72.3704C121.009 72.4987 122.338 73.0938 124.542 75.3493C125.71 76.5444 126.835 77.3993 128.893 78.656C133.276 81.3333 133.459 81.5652 133.668 84.7139C133.879 87.9041 133.774 88.0772 131.301 88.6102C129.187 89.0658 127.862 90.0272 127.507 91.363C127.317 92.0764 127.716 92.097 128.782 91.4286L129.563 90.9388L129.91 91.4286C130.367 92.0724 131.337 92.0751 132.143 91.4345L132.752 90.9507L133.374 91.4345C134.341 92.1862 135.627 92.0039 135.99 91.0636C136.059 90.8828 136.246 90.9408 136.623 91.2604C137.329 91.8593 139.14 92.1164 139.335 91.6454C139.41 91.4658 139.268 91.022 139.02 90.6592C137.967 89.1179 137.637 88.3829 137.623 87.5439C137.604 86.3771 137.961 85.8141 139.321 84.8651C140.974 83.7122 141.484 82.2249 140.228 82.2249C139.452 82.2249 138.67 81.5558 138.171 80.4652C137.157 78.2486 137.356 75.7635 138.878 71.6294C140.423 67.4303 140.595 66.656 140.601 63.8477C140.606 61.577 140.547 61.1843 140.018 59.9394C139.694 59.1782 139.037 58.0448 138.558 57.4209L137.687 56.2863L138.806 55.3822C142.22 52.6218 141.522 48.1041 137.411 46.3633C136.153 45.8308 135.839 45.7838 133.635 45.7982C132.313 45.8069 130.297 45.9767 129.155 46.1754C127.99 46.3781 126.02 46.541 124.668 46.5464C122.52 46.5548 122.156 46.5033 121.328 46.0733C120.465 45.6251 120.317 45.4123 120.148 44.3764C120.113 44.1635 119.961 43.951 119.809 43.9043C119.516 43.814 118.16 44.9618 117.96 45.4703C117.861 45.7213 117.78 45.7038 117.49 45.3694C117.298 45.1472 117.029 44.6367 116.893 44.2351C116.551 43.2248 116.971 42.4674 118.188 41.8999L119.133 41.4596L118.576 41.1225C117.427 40.4267 115.473 40.9026 114.766 42.0504C114.566 42.375 114.348 42.6412 114.282 42.6419C114.215 42.6426 113.835 42.333 113.437 41.9537C111.954 40.5394 112.464 38.4467 114.448 37.8078C115.507 37.4671 116.443 37.7269 116.638 38.4154C116.935 39.4665 117.86 38.0849 117.694 36.8372C117.584 36.0078 117.6 35.979 118.189 35.979C119.007 35.979 120.748 37.0266 121.287 37.8429C121.912 38.7909 121.867 40.2838 121.178 41.3965L120.638 42.2701L121.345 42.1319C122.381 41.9294 123.389 41.3011 123.898 40.5392C124.437 39.7338 124.495 38.1653 124.017 37.3191C123.554 36.4988 123.608 36.3686 124.292 36.6457C125.456 37.1172 126.078 37.637 126.545 38.5281C126.966 39.3305 126.989 39.5299 126.761 40.3652C126.621 40.8804 126.308 41.5584 126.067 41.8717C125.691 42.3597 125.678 42.4413 125.978 42.4413C126.535 42.4413 127.7 41.9262 128.114 41.4966C128.323 41.2796 128.628 40.7451 128.791 40.3088L129.088 39.5158L129.43 40.1203C129.913 40.9751 130.851 41.7444 131.996 42.2231C133.227 42.7379 133.739 42.7671 133.096 42.2854C132.661 41.9607 131.862 39.6707 132.104 39.4468C132.247 39.315 133.918 40.5697 135.826 42.2409C137.631 43.8219 138.765 44.3398 140.423 44.3398C142.541 44.3398 143.774 42.5411 142.822 40.8404C142.267 39.8487 141.031 39.7111 140.308 40.5603C139.975 40.9507 139.884 41.2615 139.982 41.671C140.101 42.1728 140.054 42.2396 139.586 42.2396C138.97 42.2396 137.757 41.4713 135.602 39.7167C132.316 37.0411 128.323 34.7732 125.439 33.9449C123.589 33.4134 119.636 33.2059 117.755 33.5417C115.72 33.9051 113.312 35.0418 112 36.2586C109.676 38.4148 109.639 41.284 111.902 43.8969L112.55 44.6453L112.111 45.3104C111.473 46.278 111.527 47.5804 112.247 48.5396C112.564 48.9622 112.883 49.3077 112.957 49.3073C113.031 49.307 113.112 49.0355 113.137 48.7038C113.2 47.8645 113.569 47.3023 114.203 47.0796C114.774 46.8791 115.143 46.9738 117.756 47.9916C120.505 49.0621 125.026 49.1357 129.833 48.1882C132.19 47.7237 134.969 47.751 136.192 48.2508C138.433 49.1669 138.952 51.5502 137.305 53.3592C136.592 54.1424 135.904 54.4614 133.595 55.0797C131.838 55.5504 131.421 55.5815 127.427 55.5426C124.015 55.5094 122.789 55.5733 121.396 55.8572C119.884 56.1653 118.954 56.1962 114.512 56.087L109.376 55.9607L109.945 56.4208C110.259 56.6739 110.701 56.9853 110.929 57.1128C111.316 57.3296 111.303 57.3588 110.727 57.5671C110.389 57.6895 109.638 57.7897 109.058 57.7997H108.005L107.863 58.6635C107.785 59.144 107.791 59.705 107.876 59.9102C108.002 60.2129 107.955 60.2564 107.628 60.1404C107.407 60.0619 106.789 59.9073 106.257 59.7969C105.724 59.6866 105.007 59.462 104.663 59.2976C104.085 59.0215 104.021 59.0289 103.808 59.3964C103.618 59.7246 101.833 61.0208 101.571 61.0208C101.529 61.0208 101.474 60.7708 101.45 60.4653C101.426 60.1599 101.168 59.3647 100.878 58.6982C100.587 58.0318 100.284 57.3048 100.204 57.0826C100.083 56.7475 100.028 56.7304 99.8824 56.9817C99.7857 57.1483 99.6445 57.6027 99.5687 57.9915C99.4929 58.3803 99.2239 59.0118 98.9711 59.3948L98.5113 60.0914L98.2182 59.4957C97.9034 58.8563 97.3807 58.1934 97.1917 58.1934C97.1279 58.1934 97.019 58.3979 96.95 58.6477C96.8057 59.1695 95.5666 60.6167 95.264 60.6167C95.1526 60.6167 95.0613 60.2078 95.0613 59.7078C95.0613 59.2079 94.9629 58.799 94.8427 58.799C94.7225 58.799 94.6241 58.9283 94.6241 59.0864C94.6241 59.4707 93.5658 60.6165 93.2108 60.6165C93.0559 60.6165 92.8068 60.7528 92.6571 60.9193C92.2669 61.3537 91.9477 61.2928 92.1118 60.8153C92.1887 60.5913 92.1386 60.0688 92.0007 59.654L91.6745 58.673C91.6223 58.5159 91.2431 58.5576 90.4404 58.8087C89.1434 59.2145 88.7086 59.1427 89.3756 58.6329C89.6195 58.4465 89.9905 57.8011 90.1999 57.1984C90.4093 56.5957 90.7185 56.0612 90.8868 56.0103C91.1224 55.939 91.1099 56.0271 90.8321 56.3935C90.6338 56.6552 90.471 57.008 90.4701 57.1777C90.4693 57.3473 90.3201 57.7496 90.1383 58.0715C89.9565 58.3934 89.8424 58.6887 89.8845 58.7277C89.9265 58.7667 90.42 58.5836 90.9811 58.3213L91.9552 57.8441V58.2709C92.0078 58.5057 92.1307 59.1252 92.2787 59.6474L92.5477 60.5971L93.242 60.2857C93.9517 59.9674 94.6238 58.8329 94.6238 57.9533C94.6238 57.5184 94.8791 57.5852 94.9836 58.0473C95.0143 58.183 95.1745 58.692 95.3397 59.1784L95.64 60.063L96.1154 59.5045C96.3768 59.1974 96.7048 58.5948 96.8438 58.1655C97.0855 57.4204 97.4648 57.0999 97.4648 57.641C97.4648 58.031 98.5554 59.4295 98.7658 59.3093C98.8676 59.2512 99.07 58.7264 99.2158 58.143C99.5191 56.9295 100.008 56.1043 100.319 56.2818C100.436 56.3485 100.481 56.4781 100.42 56.5697C100.359 56.6612 100.61 57.4502 100.978 58.3228L101.8 60.2751C101.935 60.5984 102.056 60.5515 102.846 59.8712C103.337 59.4478 103.783 58.9739 103.837 58.8181C103.918 58.5825 104.027 58.591 104.487 58.8693C105.129 59.2583 107.289 59.885 107.456 59.7309C107.518 59.6731 107.583 59.1196 107.598 58.501L107.627 57.3759L108.248 57.5016C108.59 57.5707 109.308 57.5664 109.844 57.492L110.819 57.3568L109.95 56.775C109.472 56.4551 108.989 56.0411 108.876 55.855C108.756 55.6567 108.331 55.4884 107.849 55.4484C106.547 55.3404 104.239 54.0777 104.239 53.473C104.239 53.3596 104.559 53.5526 104.95 53.9018C105.816 54.677 107.02 55.1634 108.072 55.212H108.858L108.372 54.5317C108.092 54.1689 107.841 53.4806 107.783 52.9143C107.689 52.0117 107.591 51.8683 106.625 51.2131C106.045 50.8195 105.326 50.2297 105.028 49.9023L104.486 49.307L104.209 50.0138C104.057 50.4026 103.871 50.7205 103.796 50.7205C103.721 50.7205 103.429 50.4933 103.147 50.2157C102.864 49.938 102.577 49.7118 102.507 49.7131C102.438 49.7144 102.188 50.0884 101.952 50.5442L101.522 51.373L101.19 50.8953C101.007 50.6325 100.575 50.1676 100.23 49.8621C99.8857 49.5566 99.7044 49.3067 99.8274 49.3067C99.9505 49.3067 100.376 49.6248 100.773 50.0138L101.495 50.7209L101.789 50.2028C101.963 49.8954 102.028 49.4231 101.949 49.0414C101.834 48.4848 101.85 48.4525 102.069 48.8018C102.208 49.0239 102.63 49.4498 103.007 49.7482L103.693 50.2908L104.166 49.4453C104.637 48.604 104.64 48.6024 104.854 49.1048C105.141 49.7768 107.214 51.4347 108.979 52.4035C109.251 52.5529 109.136 52.0394 108.634 50.8587C108.501 50.546 108.392 49.9823 108.392 49.6061C108.392 49.0478 108.227 48.7993 107.495 48.2561C106.439 47.4717 106.097 46.914 105.898 45.6485C105.817 45.1359 105.632 44.5658 105.487 44.3817C105.272 44.1083 105.236 44.2613 105.294 45.2128C105.332 45.854 105.247 46.6513 105.103 46.9845L104.843 47.5903L104.641 47.0854C104.53 46.8078 104.04 46.3248 103.552 46.0123C103.064 45.6997 102.721 45.3916 102.791 45.3274C102.86 45.2632 103.362 45.548 103.907 45.9604C104.736 46.5884 104.919 46.6565 105.034 46.3798C105.169 46.0547 105.034 44.6405 104.773 43.6523C104.643 43.1588 104.654 43.1615 105.278 43.7703C105.738 44.2191 105.993 44.7547 106.19 45.6887C106.44 46.8755 106.567 47.0731 107.691 48.0366C108.367 48.6152 108.954 49.056 108.997 49.0164C109.04 48.9767 109.126 47.4798 109.187 45.6902C109.304 42.2582 109.171 41.4416 108.324 40.3813L107.889 39.8364L108.573 39.1163C109.466 38.177 109.876 37.424 110.053 36.3967L110.198 35.561L109.426 36.2746C108.794 36.8588 108.492 36.9881 107.759 36.9881C107.034 36.9881 106.751 36.8695 106.262 36.3615C105.676 35.7519 104.637 35.1655 103.638 34.88C103.269 34.7746 103.146 34.8205 103.146 35.0641C103.146 35.2426 102.942 35.7578 102.693 36.2092L102.24 37.0297L101.291 36.1143C100.709 35.5528 100.018 35.1158 99.5041 34.984C98.1908 34.6471 98.1198 34.6805 98.1198 35.6351C98.1198 37.0831 97.4862 37.3528 96.3458 36.3905C95.4765 35.6569 94.7555 35.4973 93.1069 35.674L91.8338 35.8105L92.0628 36.3712C92.2542 36.8397 92.211 37.0368 91.8011 37.5689C91.1361 38.4318 90.2716 38.8056 88.9407 38.8056C88.3277 38.8056 87.5606 38.9294 87.2361 39.0806C86.9115 39.2317 86.105 39.4061 85.4439 39.4679C84.7828 39.5296 84.0782 39.6398 83.878 39.7127C83.5649 39.8269 83.5305 39.7328 83.6314 39.0379C83.7858 37.9745 83.0245 37.19 81.8379 37.19C80.2983 37.19 79.5883 38.5335 80.1911 40.3059C80.3219 40.6992 80.4345 41.098 80.5285 41.5012C80.6006 41.8294 81.2941 42.7004 82.1435 43.5297C82.9622 44.329 83.7359 45.1606 83.863 45.3778C83.9901 45.595 84.41 45.9436 84.7961 46.1524L85.4984 46.5321L85.4057 45.799C85.304 44.9933 85.4839 44.867 85.9232 45.4354C86.0803 45.6386 86.4791 45.9671 86.8097 46.1654C87.3304 46.4778 87.4107 46.484 87.4107 46.2128C87.4107 46.0407 87.5169 45.644 87.6467 45.3313L87.8826 44.7629L88.2919 45.5364C88.5171 45.9617 89.249 46.9286 89.9187 47.685C91.2181 49.1525 92.0097 50.7925 91.6011 51.1699C91.4353 51.3231 90.9874 51.3112 90.0588 51.1291C89.339 50.988 88.4489 50.9134 88.0804 50.9633C87.3282 51.0654 87.269 50.9705 87.7316 50.4054C88.2198 49.8088 88.1422 49.7104 87.1829 49.7104C86.0731 49.7104 83.3178 49.1914 82.2601 48.783C81.2318 48.386 80.9945 48.4848 80.6917 49.4366L80.1375 51.1614L79.8308 52.1072L80.9435 52.0027C81.5555 51.9452 82.3426 51.8145 82.6927 51.7122C83.0427 51.6099 83.3609 51.5556 83.3997 51.5913C83.4385 51.6271 83.2824 51.9968 83.053 52.4127L82.6358 53.1689L83.3295 53.0309C83.7111 52.955 84.2851 52.7692 84.6051 52.6182C85.162 52.3554 85.2067 52.3745 85.6461 53.0623C86.1863 53.9084 86.6184 53.8737 86.7142 52.9764C86.8133 52.049 87.126 52.1861 87.7144 53.4152C88.2799 54.5971 88.8684 55.0144 88.9817 54.3138C89.0192 54.0812 89.324 53.7026 89.6588 53.4724C90.3363 53.0067 90.8466 53.1465 91.1393 53.8775C91.4422 54.6341 90.7666 55.4142 88.8013 56.5766C84.8643 58.9051 82.5759 62.0897 81.9226 66.1486C81.3334 69.8098 83.1737 73.593 86.8659 76.3102C88.6328 77.6106 91.4397 78.983 91.2613 78.4593C90.5038 76.2354 90.5288 71.992 91.3035 71.2762C91.4198 71.1688 91.3798 71.6115 91.2145 72.2601C90.5994 74.6762 90.8665 76.6013 92.4436 81.1134C93.8699 85.1943 93.6724 86.9383 91.6539 88.0912C91.0056 88.4613 90.5881 88.5224 88.845 88.5018C86.9535 88.4794 86.7474 88.5165 86.1402 88.9886C85.5515 89.4464 84.7882 90.9492 84.7882 91.6505C84.7882 92.0304 85.2206 91.9802 86.0703 91.5015L86.0712 91.5017ZM116.825 91.4193L117.619 90.9218L118.157 91.4193C118.863 92.0711 119.689 92.0566 120.367 91.3803C120.663 91.0852 120.929 90.8807 120.958 90.926C121.057 91.0873 121.154 91.2493 121.251 91.4121C121.418 91.6933 121.763 91.8346 122.385 91.8774C123.135 91.929 123.336 91.8583 123.634 91.4383L123.989 90.9375L124.77 91.4272C126.908 92.7681 128.048 91.3614 127.092 88.5601C126.606 87.1359 126.874 86.3351 128.44 84.5222C129.1 83.7578 129.641 82.9419 129.641 82.709C129.641 82.3378 129.519 82.2881 128.64 82.3051C127.799 82.3214 127.553 82.2333 127.111 81.7579C126.391 80.9844 126.433 80.0988 127.238 79.1159L127.881 78.3307L126.74 77.5754C126.113 77.1599 124.981 76.177 124.226 75.391C122.529 73.6259 120.861 72.7889 118.66 72.599L117.185 72.4717L117.188 73.5612C117.19 74.9637 117.865 76.3128 119.706 78.5981C121.8 81.1965 121.946 81.5988 122.031 84.995L122.103 87.8672L121.497 88.4281C120.949 88.9348 120.703 88.9995 118.936 89.0989C117.254 89.1936 116.901 89.2783 116.408 89.7048C115.752 90.2712 115.556 90.5795 115.354 91.3618C115.236 91.8178 115.283 91.9173 115.621 91.9173C115.847 91.9173 116.388 91.6933 116.825 91.4198L116.825 91.4193ZM72.113 83.1102C72.113 82.7471 72.2792 82.6501 73.0971 82.5368L74.0812 82.4004L73.4248 81.8901C72.6451 81.2838 72.5729 80.8102 73.2603 80.809C73.9448 80.809 75.1041 80.1154 75.2803 79.6023C75.3622 79.3639 75.3107 79.0452 75.1639 78.8815C74.7801 78.4542 74.0586 78.5188 73.9246 78.9922C73.7806 79.5012 73.5394 79.5025 72.9926 78.9973C72.1702 78.2374 72.1516 76.6641 72.9545 75.748C73.3329 75.3162 73.3295 75.2879 72.8471 74.8423C72.3283 74.3628 71.9577 73.4138 72.2014 73.1885C72.2791 73.1169 72.689 73.174 73.1125 73.3155C73.7143 73.5165 73.9518 73.5197 74.1997 73.3295C74.9507 72.7536 74.1371 72.0131 72.9327 72.1764C72.448 72.2421 72.2478 72.1764 72.1781 71.9311C72.1255 71.745 71.7015 71.5021 71.2239 71.3844C70.3704 71.1739 70.3643 71.1764 70.3643 71.7501C70.3643 72.3788 69.9965 72.4974 69.2975 72.0941C68.7296 71.7664 68.1787 72.0208 68.1787 72.6108C68.1787 73.1613 68.7461 73.4329 69.7631 73.369C70.5432 73.3199 70.5722 73.8859 69.8313 74.6995L69.2985 75.2846L69.7206 75.8763C70.3457 76.7525 70.2931 78.2077 69.6102 78.9304L69.0749 79.4971L68.7237 79.0428C68.2356 78.4112 67.5679 78.4536 67.385 79.1276C67.2651 79.5689 67.3642 79.7706 67.9306 80.2383C68.3112 80.5526 68.8669 80.8097 69.1657 80.8097C69.9046 80.8097 69.8757 81.3766 69.1076 81.9495L68.5066 82.3978L69.4354 82.5384C69.9463 82.6158 70.3641 82.7612 70.3641 82.8617C70.3641 83.2468 70.6048 84.4157 71.2147 84.445C71.7594 84.471 72.0998 83.6628 72.1125 83.1106L72.113 83.1102ZM83.867 78.8812C84.7109 78.5566 86.5372 77.0478 86.5372 76.6749C86.5372 76.5577 86.0331 76.0168 85.417 75.4728C84.1205 74.3282 82.7101 72.4006 82.3447 71.2735C82.1541 70.6858 81.2335 69.6799 78.6399 67.2258L75.1889 63.96L74.1943 64.2058C73.6473 64.341 72.9798 64.455 72.7111 64.4589C72.248 64.4659 72.2564 64.4917 72.8721 64.9567L73.5217 65.4473L74.4324 64.9541C75.3151 64.4761 75.3466 64.4731 75.4555 64.8578C75.5193 65.083 75.3818 65.4733 75.1377 65.76C74.9011 66.038 74.7664 66.3532 74.8381 66.4607C74.9099 66.5682 74.6827 66.7927 74.333 66.9598C73.6849 67.2694 73.2351 68.2889 73.7465 68.2889C74.2066 68.2889 75.2211 67.0675 75.1043 66.6544C75.0444 66.4428 75.0734 66.2252 75.1686 66.1709C75.5637 65.9453 75.5391 66.9042 75.1375 67.3758C74.9009 67.6537 74.7662 67.9689 74.838 68.0765C74.9097 68.184 74.6825 68.4084 74.3328 68.5756C73.689 68.8832 73.2346 69.9046 73.7416 69.9046C74.2385 69.9046 75.2364 68.7376 75.1127 68.3009C75.0481 68.0725 75.0731 67.841 75.1684 67.7866C75.4346 67.6346 75.5782 68.3916 75.3534 68.7625C75.2331 68.9612 75.2341 69.2325 75.3563 69.4475C75.5774 69.8371 75.3532 70.5856 74.9458 70.8181C74.7713 70.9177 74.8895 71.1135 75.3129 71.4254C75.9257 71.8769 75.9375 71.9243 75.9375 73.9169C75.9375 75.582 76.0064 76.0118 76.32 76.3016C76.6719 76.6269 76.7024 76.6282 76.7024 76.3161C76.7024 75.9754 77.3154 75.559 77.8168 75.559C77.9647 75.559 78.8889 76.3231 79.8703 77.2571C80.8578 78.1967 81.891 78.9962 82.1837 79.0471L82.8834 79.1666C82.9774 79.1818 83.4199 79.0535 83.8668 78.8816L83.867 78.8812ZM73.3153 70.9C73.3153 70.3632 72.1805 69.7903 70.823 69.6416C69.7272 69.5217 69.7091 69.5284 69.7091 70.0626C69.7091 70.5048 69.8815 70.6787 70.6379 71.0001C71.8534 71.5165 73.3151 71.4619 73.3151 70.9H73.3153ZM74.5592 70.7761C75.1128 70.286 75.375 69.7031 75.0421 69.7031C74.6591 69.7031 73.6424 70.5931 73.6424 70.9286C73.6424 71.452 73.8313 71.4206 74.5592 70.7761ZM73.356 69.1886C73.403 68.8858 73.2109 68.6836 72.6354 68.43C71.3939 67.883 69.9097 67.6295 69.5522 67.9037C68.8938 68.4086 69.3325 69.0865 70.3966 69.2084C70.8249 69.2575 71.4058 69.3849 71.6874 69.4916C72.5052 69.8015 73.2829 69.6603 73.356 69.1885V69.1886ZM73.3795 67.5666C73.4463 67.1345 73.1631 66.9799 70.8516 66.1862C69.1259 65.5935 68.3618 65.873 68.9134 66.8953C69.1054 67.2513 69.428 67.414 70.1511 67.5197C70.689 67.5982 71.4242 67.7519 71.7847 67.8612C72.7481 68.153 73.3047 68.0503 73.3795 67.5668L73.3795 67.5666ZM74.5372 66.0467C74.8861 65.7017 75.1713 65.2946 75.1713 65.142C75.1713 64.647 73.794 65.5227 73.6183 66.1294C73.4076 66.8571 73.7491 66.8263 74.5372 66.0467ZM73.3795 65.9446C73.4556 65.4524 72.6166 65.008 70.967 64.6664C69.7567 64.4158 69.2229 64.5579 69.3135 65.1068C69.363 65.4063 69.766 65.6251 70.9096 65.9734C72.7396 66.5307 73.29 66.5243 73.3795 65.9448L73.3795 65.9446ZM74.9929 63.654C77.1068 62.736 77.2896 60.4207 75.2964 59.8129C74.4687 59.5604 73.9405 59.6965 73.6237 60.2435C73.3811 60.6623 73.5433 61.4239 73.8751 61.4239C73.9872 61.4239 74.079 61.5648 74.079 61.7371C74.079 62.541 70.8516 62.9053 69.528 62.2507C69.0631 62.0208 68.8605 61.4239 69.2475 61.4239C69.5366 61.4239 69.7366 60.8157 69.589 60.3854C69.3876 59.7994 68.7822 59.5963 67.9041 59.8203C65.9227 60.3258 65.9784 62.5975 67.9958 63.5615C69.6499 64.3519 73.2762 64.4 74.9931 63.6542L74.9929 63.654ZM73.6782 61.8739C73.8005 61.7608 73.7474 61.5869 73.5422 61.4296C73.0927 61.085 73.1167 60.5724 73.6097 59.9856C73.9798 59.545 74.026 58.8856 74.1535 52.2339C74.373 40.7709 75.2466 32.1489 76.3981 30.0806C76.8565 29.2571 76.7922 29.2538 75.6076 30.0402C74.0816 31.0533 72.9197 32.3725 71.8902 34.2609C69.9466 37.8262 69.2712 42.623 69.2712 52.8623C69.2712 58.676 69.3119 59.4366 69.6511 59.9832C69.9734 60.5022 69.9906 60.694 69.7641 61.2483C69.6173 61.6076 69.5508 61.9512 69.6161 62.0116C70.05 62.4126 73.2113 62.3062 73.678 61.8749L73.6782 61.8739ZM91.4382 51.007C91.5044 50.908 91.3581 50.4082 91.1132 49.8963C90.7311 49.0981 90.5773 48.9655 90.033 48.9655C88.328 48.9655 85.5873 48.2222 82.7617 46.9934C81.13 46.2839 80.5665 46.1208 80.3709 46.3016C79.8717 46.7629 80.7013 47.858 81.9864 48.4335C83.1263 48.9441 86.3129 49.5715 87.7665 49.5715C88.6099 49.5715 88.6298 49.6086 88.1498 50.2854L87.7969 50.7832L88.7508 50.8071C89.2755 50.8202 89.9997 50.9003 90.3604 50.9851C91.2969 51.2052 91.3057 51.2054 91.4385 51.007H91.4382Z" fill="#FDD406"/>
<path d="M126.217 92.39C125.785 92.3902 125.228 92.245 124.531 91.8081L124.11 91.5441L124.001 91.6984C123.57 92.3066 123.162 92.3813 122.354 92.326C121.829 92.2899 121.185 92.1795 120.864 91.6421C120.85 91.6173 120.835 91.5926 120.82 91.5678C120.779 91.6066 120.733 91.6502 120.684 91.6987C119.841 92.5399 118.729 92.5596 117.852 91.7495L117.566 91.4855L117.064 91.8007C116.629 92.0735 115.991 92.3669 115.621 92.3669C115.487 92.3669 115.174 92.3669 114.977 92.1128C114.782 91.8603 114.841 91.5477 114.918 91.2492C115.144 90.3777 115.39 89.9902 116.114 89.3646C116.735 88.8272 117.229 88.7447 118.911 88.6501C120.704 88.549 120.779 88.4802 121.192 88.0981L121.648 87.6753L121.581 85.0062C121.499 81.6967 121.395 81.4104 119.356 78.8803C117.451 76.5152 116.741 75.0738 116.738 73.5621L116.736 72.7948C113.755 72.7969 111.698 73.4217 106.607 75.6716C104.733 76.4995 102.51 77.4315 102.081 77.5279L101.292 77.7051C100.891 78.3948 100.454 79.0945 99.9841 79.7973C99.2186 80.9434 98.9389 81.8168 99.1753 82.3234C99.3721 82.7456 99.9724 83.0144 100.959 83.1225C102.265 83.2654 102.504 83.4756 102.504 83.8383C102.504 84.4399 100.925 86.0564 100.467 86.2963C100.17 86.4517 99.3948 86.7578 98.7024 86.993C98.3046 87.1282 97.9282 87.2561 97.8448 87.3303C97.829 87.3945 97.8399 87.5943 97.8488 87.7563C97.884 88.2853 97.9443 88.8224 98.028 89.3479C98.1638 90.157 98.0621 90.5533 97.5087 91.3632C96.8365 92.3474 96.6479 92.4331 95.4921 92.2872C94.9289 92.2158 94.191 92.003 93.8702 91.7349C93.8175 91.6908 93.7819 91.6632 93.7582 91.6459C93.6701 91.6944 93.514 91.8078 93.4485 91.8555C92.4994 92.5448 91.0682 92.5328 90.2581 91.8295L90.0349 91.6358L89.7355 91.8535C88.7531 92.5678 87.3362 92.5301 86.7633 91.774L86.6856 91.6715L86.1538 91.9713L86.1505 91.9708C85.4219 92.3633 84.9849 92.4451 84.6618 92.2562C84.4563 92.1362 84.3384 91.9154 84.3384 91.6505C84.3384 90.8123 85.1654 89.1772 85.864 88.6337C86.5972 88.0638 86.9221 88.0303 88.8504 88.0521C90.598 88.0736 90.8996 88.0041 91.4308 87.7007C93.0003 86.8044 93.5221 85.5625 92.0191 81.2616C91.7304 80.4357 91.4847 79.6947 91.2797 79.0203C91.0315 79.0599 90.5441 78.9574 89.3562 78.3534C88.5297 77.933 87.6495 77.4078 86.9304 76.9087C86.6027 77.6628 84.9321 78.8573 84.1982 79.2243L84.1909 79.2387L84.0282 79.3012C83.4134 79.5377 83.0037 79.6422 82.8118 79.6105L82.1078 79.4903C81.4511 79.3761 79.6373 77.6561 79.5604 77.5828C78.6739 76.7393 77.9744 76.165 77.7365 76.0143C77.4805 76.0492 77.208 76.2369 77.152 76.3427C77.1512 76.5237 77.1369 76.8272 76.8407 76.9568C76.5189 77.0978 76.274 76.8713 76.0148 76.6319C75.5571 76.2087 75.4879 75.643 75.4879 73.9169C75.4879 72.7142 75.3406 72.0043 75.0461 71.7873C74.8658 71.6545 74.6934 71.5128 74.575 71.3549C74.1962 71.6641 73.8799 71.8357 73.5612 71.6929C73.4871 71.6596 73.4279 71.6152 73.3806 71.5645C73.2859 71.6253 73.1736 71.6746 73.0472 71.7123C73.9048 71.6477 74.6407 71.9641 74.87 72.5151C75.0414 72.9266 74.8931 73.3644 74.4733 73.6863C74.0048 74.0456 73.515 73.9241 72.97 73.742C72.8373 73.6976 72.7162 73.6661 72.6152 73.6444C72.6963 73.8987 72.8897 74.2695 73.1522 74.5121C73.7671 75.0801 73.8736 75.3811 73.2927 76.0443C72.6528 76.7743 72.6554 78.0734 73.2977 78.6671C73.3832 78.7461 73.4498 78.8015 73.5008 78.8402C73.6063 78.5084 73.8823 78.2618 74.245 78.1776C74.692 78.0737 75.1848 78.2321 75.4983 78.5812C75.7532 78.865 75.8403 79.3559 75.7055 79.7482C75.461 80.4602 74.2011 81.1828 73.3851 81.2531C73.4568 81.3297 73.5588 81.4246 73.7008 81.5352L75.1981 82.6993L73.1587 82.9822C72.8005 83.0318 72.6359 83.0716 72.5627 83.1V83.3349L72.5435 83.3493C72.4865 83.7776 72.2978 84.2802 71.9585 84.5964C71.7354 84.8042 71.4708 84.9077 71.1935 84.8941C70.3456 84.8534 70.0056 83.7465 69.931 83.1117C69.8134 83.0721 69.6218 83.0214 69.368 82.983L67.3746 82.6812L68.8387 81.5892C69.0177 81.4557 69.1247 81.3412 69.1852 81.2596C69.1789 81.2594 69.1724 81.2594 69.1656 81.2594C68.703 81.2594 68.0501 80.9201 67.6442 80.585C67.024 80.0728 66.7619 79.7065 66.951 79.01C67.0751 78.5523 67.377 78.2441 67.7788 78.1642C68.2314 78.0732 68.7177 78.2999 69.0794 78.7679L69.1089 78.8063L69.2835 78.6216C69.8233 78.0502 69.8577 76.8429 69.3545 76.1374L68.7217 75.2502L69.4987 74.3968C69.7638 74.1058 69.8615 73.9161 69.8975 73.8169C69.8702 73.8153 69.8353 73.815 69.7913 73.8177C68.9924 73.8679 68.412 73.7289 68.0664 73.4043C67.8457 73.1971 67.729 72.9228 67.729 72.6108C67.729 72.1884 67.92 71.8358 68.2531 71.6435C68.6168 71.4334 69.0914 71.456 69.5221 71.7046C69.7203 71.8189 69.8418 71.8586 69.9064 71.872C69.9108 71.844 69.9146 71.8044 69.9146 71.7501C69.9146 71.5405 69.9146 71.3492 69.9784 71.187C69.5404 70.9476 69.2595 70.6483 69.2595 70.0626C69.2595 69.8333 69.2595 69.5765 69.4253 69.3772C69.1167 69.2023 68.9063 68.9591 68.8256 68.6677C68.7304 68.3235 68.8349 67.9772 69.1135 67.6926C68.8645 67.563 68.6636 67.3795 68.5176 67.1088C68.1439 66.4161 68.2932 66.0023 68.4843 65.7769C68.6062 65.6332 68.771 65.534 68.9798 65.4793C68.9243 65.3885 68.888 65.2896 68.8698 65.1799C68.8025 64.7728 68.9595 64.523 69.1031 64.3851C69.1036 64.3848 69.1041 64.3843 69.1045 64.3838C68.608 64.2785 68.1624 64.1393 67.802 63.967C66.6087 63.397 65.9054 62.339 66.0103 61.2718C66.1006 60.3518 66.767 59.6464 67.7928 59.3846C68.2344 59.2722 68.6316 59.2551 68.9676 59.3265C68.8397 58.4736 68.8215 56.8218 68.8215 52.8623C68.8215 42.5909 69.5212 37.667 71.4954 34.0458C72.5533 32.105 73.781 30.7131 75.359 29.6657C76.2763 29.0565 76.6198 28.8282 76.9541 29.1373C77.2733 29.4326 77.0605 29.8151 76.7909 30.2993C75.6788 32.2967 74.8199 40.91 74.6029 52.2425C74.5216 56.4907 74.4741 58.3363 74.3411 59.2581C74.6565 59.2168 75.0193 59.2584 75.4275 59.3829C76.4447 59.6931 77.0836 60.4323 77.1363 61.3604C77.19 62.3026 76.6303 63.2181 75.6776 63.8036L78.949 66.8992C80.1533 68.0389 80.9989 68.8676 81.586 69.4964C81.3366 68.367 81.2954 67.216 81.4786 66.0773C82.1505 61.9029 84.5371 58.5762 88.5724 56.1896C90.7524 54.9002 90.8433 54.3478 90.7218 54.0446C90.6353 53.8282 90.5313 53.6921 90.4293 53.6612C90.3183 53.628 90.1302 53.6939 89.9133 53.8429C89.6394 54.0313 89.4467 54.3032 89.4246 54.3902C89.3319 54.9637 88.9734 55.0764 88.8235 55.0979C88.3241 55.1704 87.8157 54.6689 87.3087 53.6094C87.2406 53.4672 87.1806 53.3491 87.1278 53.2509C87.0337 53.7399 86.8178 54.0271 86.4842 54.1054C85.8705 54.2498 85.4164 53.5382 85.2671 53.3043C85.1994 53.1984 85.0842 53.0181 85.0119 52.9295C84.9438 52.9555 84.8462 53.0016 84.7969 53.0249C84.4427 53.192 83.8365 53.3884 83.4172 53.4719L81.7751 53.7985L82.6592 52.1956C82.6613 52.1918 82.6633 52.1881 82.6654 52.1844C82.2484 52.2859 81.5558 52.3968 80.9855 52.4503L79.1924 52.6189L80.2637 49.299C80.3886 48.906 80.5384 48.5073 80.8565 48.2849C80.2719 47.8407 79.8676 47.3058 79.7889 46.826C79.734 46.4906 79.8324 46.187 80.0657 45.9714C80.475 45.5928 81.0784 45.7711 82.941 46.5812C85.6814 47.7729 88.395 48.5138 90.0261 48.5159C89.8901 48.342 89.7423 48.164 89.5821 47.983C88.9221 47.2376 88.2279 46.3256 87.9441 45.836C87.8899 46.0164 87.8609 46.1636 87.8604 46.213C87.8604 46.3164 87.8604 46.6315 87.5808 46.7898C87.2702 46.9655 86.9649 46.7829 86.5784 46.5509C86.3721 46.4272 86.1099 46.2372 85.8896 46.0424L86.0542 47.3437L84.5821 46.5479C84.1783 46.3295 83.6683 45.9355 83.4748 45.605C83.3845 45.4554 82.7146 44.7158 81.8294 43.8513C81.6673 43.693 80.2403 42.2847 80.0893 41.5979C80.0001 41.2156 79.8905 40.8268 79.7645 40.4477C79.387 39.3384 79.4581 38.3357 79.9654 37.6272C80.3751 37.0553 81.04 36.7404 81.8378 36.7404C82.582 36.7404 83.2199 37.0041 83.6343 37.4829C84.0082 37.9151 84.1652 38.4903 84.0763 39.1026C84.0709 39.1392 84.0662 39.1731 84.062 39.2043C84.4255 39.1315 84.9527 39.0622 85.402 39.0202C86.0646 38.9583 86.8003 38.7875 87.0462 38.673C87.4883 38.4671 88.3522 38.356 88.9407 38.356C90.1384 38.356 90.864 38.0484 91.4449 37.2944C91.7778 36.8625 91.7653 36.8321 91.6466 36.5414L91.1915 35.4272L93.059 35.227C94.8308 35.0369 95.6662 35.2287 96.6358 36.0469C97.1661 36.4945 97.433 36.5265 97.4852 36.5026C97.5332 36.4803 97.6701 36.2731 97.6701 35.6352C97.6701 35.181 97.6701 34.7519 97.9955 34.4995C98.3508 34.2237 98.8269 34.3462 99.6158 34.5486C100.203 34.6992 100.965 35.1752 101.603 35.7908L102.13 36.2989L102.3 35.9919C102.544 35.5489 102.686 35.1497 102.697 35.0507C102.697 34.8159 102.78 34.6271 102.945 34.5031C103.223 34.2936 103.587 34.3979 103.762 34.4476C104.837 34.7551 105.946 35.384 106.587 36.0499C106.991 36.47 107.155 36.5385 107.759 36.5385C108.377 36.5385 108.568 36.4552 109.121 35.9444L110.867 34.3304L110.496 36.4735C110.303 37.5923 109.855 38.4201 108.899 39.426L108.485 39.862L108.676 40.1007C109.65 41.3209 109.751 42.3325 109.636 45.7056C109.519 49.1472 109.46 49.2016 109.302 49.3468C109.152 49.4853 108.997 49.4968 108.836 49.4423C108.84 49.4948 108.841 49.5494 108.841 49.6061C108.841 49.9217 108.938 50.4248 109.047 50.6828C109.628 52.0483 109.7 52.4731 109.395 52.7485C109.263 52.8679 109.028 52.9435 108.762 52.7977C108.572 52.6932 108.374 52.5786 108.174 52.4563C108.196 52.5794 108.214 52.7154 108.23 52.8678C108.28 53.3495 108.498 53.9597 108.728 54.2573L109.629 55.5172L114.523 55.6375C118.943 55.7463 119.83 55.7174 121.306 55.4166C122.732 55.1259 123.991 55.0593 127.432 55.0931C131.377 55.1316 131.773 55.1021 133.478 54.6454C135.83 54.0157 136.363 53.726 136.973 53.0565C137.664 52.2976 137.952 51.3837 137.764 50.549C137.576 49.7179 136.957 49.0495 136.022 48.667C134.893 48.2056 132.156 48.1886 129.92 48.6293C125.029 49.5935 120.42 49.5118 117.593 48.4106C115.053 47.4216 114.754 47.3627 114.352 47.5039C113.893 47.6653 113.635 48.0804 113.585 48.7377C113.566 48.989 113.508 49.754 112.959 49.757C112.806 49.76 112.598 49.7584 111.887 48.8093C111.052 47.6965 110.992 46.1908 111.736 45.0629L111.987 44.6821L111.562 44.1913C109.151 41.4074 109.201 38.2415 111.694 35.929C113.079 34.6443 115.539 33.4806 117.676 33.099C119.609 32.7543 123.663 32.9669 125.563 33.5129C128.502 34.3571 132.554 36.6553 135.886 39.3681C137.809 40.934 139.04 41.7478 139.547 41.7884C139.546 41.784 139.545 41.7795 139.544 41.7749C139.412 41.2209 139.538 40.7705 139.965 40.2688C140.402 39.7565 141.016 39.4988 141.652 39.5605C142.303 39.6242 142.873 40.0106 143.214 40.6208C143.716 41.5166 143.727 42.5021 143.245 43.3245C142.707 44.2418 141.652 44.7895 140.423 44.7895C138.651 44.7895 137.416 44.2318 135.53 42.5792C134.267 41.473 133.236 40.6615 132.623 40.2282C132.81 40.8736 133.176 41.7576 133.369 41.9288C133.539 42.0555 134 42.401 133.76 42.8215C133.538 43.2093 133.085 43.1663 131.822 42.6379C130.683 42.1616 129.733 41.4143 129.174 40.5639C129.005 40.9821 128.705 41.5305 128.438 41.8085C127.941 42.3245 126.653 42.8909 125.978 42.8909C125.865 42.8909 125.521 42.8909 125.371 42.5863C125.206 42.2523 125.44 41.9488 125.711 41.5974C125.916 41.3314 126.204 40.7005 126.327 40.2469C126.525 39.5233 126.515 39.4387 126.147 38.7368C125.78 38.0367 125.308 37.6007 124.469 37.2118C124.962 38.2178 124.879 39.8822 124.272 40.7892C123.698 41.6479 122.583 42.3483 121.431 42.5732L119.714 42.9087L120.796 41.1599C121.386 40.2055 121.436 38.8859 120.911 38.0905C120.427 37.357 118.806 36.4285 118.189 36.4285C118.166 36.4285 118.133 36.4285 118.098 36.429C118.108 36.54 118.127 36.679 118.14 36.7781C118.269 37.7539 117.809 39.0738 117.087 39.2232C116.978 39.2453 116.426 39.3181 116.205 38.5378C116.169 38.4098 116.083 38.311 115.943 38.2359C115.624 38.065 115.117 38.065 114.586 38.2358C113.782 38.4949 113.23 39.036 113.074 39.7204C112.922 40.3805 113.168 41.076 113.747 41.6284C113.937 41.8089 114.1 41.9528 114.223 42.0553C114.271 41.9893 114.325 41.9089 114.383 41.8147C115.218 40.4594 117.451 39.916 118.809 40.7379L120.086 41.5112L118.378 42.3074C117.112 42.8975 117.132 43.5401 117.319 44.0909C117.426 44.4055 117.61 44.7624 117.749 44.967C118.24 44.3167 119.386 43.3043 119.941 43.4745C120.298 43.5843 120.538 43.9749 120.592 44.304C120.739 45.2029 120.8 45.2925 121.535 45.6743C122.251 46.0461 122.52 46.105 124.666 46.0969C125.997 46.0915 127.935 45.9315 129.078 45.7325C130.243 45.5297 132.286 45.3575 133.632 45.3486C135.894 45.3333 136.265 45.39 137.586 45.9493C139.722 46.8536 141.106 48.509 141.385 50.4911C141.656 52.4224 140.819 54.3326 139.088 55.732L138.311 56.3603L138.915 57.1471C139.414 57.7975 140.095 58.9713 140.431 59.7634C140.986 61.0674 141.056 61.5256 141.05 63.8487C141.044 66.7181 140.864 67.534 139.299 71.7847C137.822 75.7989 137.62 78.1802 138.58 80.2783C138.996 81.1877 139.643 81.7752 140.228 81.7752C141.031 81.7752 141.267 82.2516 141.332 82.4563C141.572 83.2188 140.867 84.335 139.578 85.2338C138.263 86.1516 138.057 86.5924 138.073 87.5366C138.085 88.2748 138.393 88.9451 139.391 90.4056C139.61 90.7251 139.931 91.3822 139.75 91.8178C139.683 91.9792 139.521 92.1916 139.129 92.2864C138.427 92.4567 137.023 92.1893 136.332 91.6033C136.302 91.5785 136.276 91.5567 136.252 91.5374C136.023 91.8958 135.67 92.1528 135.231 92.2749C134.535 92.4679 133.738 92.2865 133.098 91.7893L132.755 91.5226L132.423 91.7865C131.872 92.224 131.221 92.4274 130.637 92.3445C130.186 92.2804 129.798 92.0476 129.543 91.6887L129.442 91.5455L129.021 91.8096C128.269 92.2812 127.685 92.5345 127.279 92.2355C127.228 92.1979 127.184 92.155 127.148 92.1067C126.949 92.2483 126.644 92.39 126.217 92.39ZM123.868 90.3311L125.009 91.0462C125.73 91.4979 126.326 91.6123 126.647 91.359C126.983 91.0928 127.19 90.2382 126.667 88.7052C126.125 87.1192 126.433 86.1568 128.099 84.2284C128.662 83.5766 129.036 83.0051 129.157 82.7584C128.991 82.7478 128.748 82.7529 128.649 82.7546C127.75 82.7741 127.35 82.6749 126.782 82.0643C126.277 81.5224 125.621 80.3817 126.89 78.831L127.218 78.4308L126.492 77.9504C125.84 77.5186 124.678 76.5103 123.902 75.7027C122.285 74.0211 120.706 73.2268 118.622 73.0469L117.636 72.9619L117.637 73.5602C117.64 74.8414 118.295 76.1304 120.056 78.3162C122.212 80.9914 122.393 81.4898 122.48 84.9838L122.557 88.0591L121.802 88.758C121.131 89.379 120.758 89.4468 118.961 89.5478C117.315 89.6406 117.078 89.7192 116.702 90.0449C116.129 90.5397 115.976 90.7679 115.803 91.4204C115.988 91.3569 116.275 91.2312 116.565 91.0519L117.671 90.3584L118.462 91.089C118.992 91.5783 119.541 91.569 120.049 91.0619C120.676 90.438 120.86 90.4584 120.996 90.4731L121.21 90.4966L121.337 90.6844C121.441 90.854 121.54 91.018 121.637 91.1827C121.717 91.3157 121.979 91.3989 122.416 91.4289C123.059 91.473 123.086 91.4338 123.267 91.1781L123.868 90.3311ZM86.9282 90.5028L87.4801 91.231C87.7255 91.5548 88.607 91.5622 89.2067 91.1262L90.0845 90.4879L90.8475 91.1503C91.3341 91.5728 92.3221 91.5622 92.9199 91.128C93.5246 90.6885 93.852 90.5473 94.447 91.0451C94.544 91.1262 95.0412 91.3236 95.6052 91.3951C95.9364 91.437 96.2227 91.4731 96.3095 91.433C96.4007 91.391 96.5702 91.1431 96.7662 90.8559C97.2088 90.2084 97.231 90.0318 97.1407 89.493C97.0519 88.9369 96.9884 88.3721 96.9513 87.8106C96.89 86.6983 97.1544 86.5692 98.4131 86.1417C99.1123 85.904 99.8238 85.6178 100.05 85.4996C100.328 85.3537 101.039 84.5806 101.403 84.094C101.259 84.0674 101.077 84.04 100.861 84.0164C99.522 83.8699 98.704 83.4404 98.3603 82.7036C97.9732 81.8738 98.2599 80.7598 99.2364 79.2979C101.85 75.3851 103.417 71.6245 103.427 69.2385C103.432 68.0482 103.471 67.6216 103.887 67.5063C104.063 67.4577 104.31 67.5029 104.475 67.7753C105.234 69.0278 103.986 73.3628 102.407 76.2564L102.262 76.5215C102.965 76.2572 104.489 75.6245 106.244 74.849C112.045 72.2853 114.115 71.7651 117.905 71.9213C121.146 72.0544 122.577 72.6946 124.864 75.0351C125.997 76.1953 127.113 77.0424 129.127 78.2724C133.481 80.9315 133.891 81.2752 134.116 84.6842C134.335 87.9893 134.198 88.4459 131.396 89.0497C130.071 89.3351 128.421 89.9684 127.974 91.3675C128.104 91.3067 128.288 91.208 128.543 91.0477L129.684 90.3322L130.277 91.1685C130.39 91.3283 130.554 91.4245 130.763 91.4542C131.104 91.5027 131.505 91.367 131.863 91.0824L132.749 90.3788L133.65 91.0796C134.06 91.3978 134.573 91.5242 134.99 91.4084C135.187 91.3539 135.447 91.2217 135.57 90.9017C135.644 90.71 135.787 90.5783 135.973 90.5307C136.282 90.4527 136.572 90.6283 136.913 90.9174C137.4 91.3302 138.503 91.5062 138.889 91.4236C138.859 91.3049 138.784 91.1115 138.649 90.9129C137.534 89.2817 137.189 88.4963 137.174 87.5515C137.152 86.2199 137.576 85.5346 139.064 84.4962C140.256 83.6645 140.548 82.8532 140.472 82.7213C140.464 82.712 140.395 82.6746 140.228 82.6746C139.263 82.6746 138.341 81.9185 137.762 80.6523C136.691 78.3117 136.886 75.7384 138.456 71.4741C139.987 67.3144 140.145 66.6017 140.151 63.8467C140.156 61.6418 140.105 61.2931 139.604 60.1154C139.297 59.3935 138.655 58.2851 138.201 57.6948L137.063 56.2122L138.523 55.0326C140.002 53.8368 140.721 52.227 140.495 50.6162C140.261 48.9547 139.073 47.5555 137.236 46.7774C136.046 46.2734 135.777 46.2342 133.638 46.2477C132.333 46.2564 130.356 46.4227 129.232 46.6184C128.047 46.8247 126.043 46.9905 124.67 46.9961C122.563 47.0043 122.066 46.9631 121.121 46.4723C120.134 45.9596 119.895 45.6192 119.704 44.4489C119.702 44.4328 119.697 44.4165 119.69 44.4011C119.309 44.6172 118.493 45.3436 118.378 45.6351C118.34 45.7325 118.223 46.0295 117.907 46.0836C117.565 46.1428 117.326 45.8658 117.151 45.6638C116.918 45.3959 116.625 44.8437 116.467 44.3795C116.177 43.5231 116.208 42.3272 117.998 41.4924L118.165 41.4146C117.203 40.9876 115.694 41.4011 115.149 42.2862C114.656 43.0876 114.425 43.09 114.286 43.0915C114.141 43.0943 113.982 43.0938 113.127 42.2793C112.312 41.5026 111.973 40.4968 112.197 39.5198C112.423 38.5333 113.213 37.7333 114.311 37.3799C115.08 37.1322 115.83 37.1552 116.367 37.4432C116.677 37.6088 116.9 37.8517 117.022 38.151C117.168 37.8799 117.314 37.3923 117.248 36.8965C117.179 36.3763 117.133 36.0326 117.361 35.7722C117.574 35.5294 117.886 35.5294 118.189 35.5294C119.155 35.5294 121.038 36.6492 121.662 37.5952C122.375 38.6764 122.336 40.3632 121.572 41.6145C122.375 41.3817 123.134 40.8733 123.525 40.2893C123.969 39.6254 124.02 38.238 123.626 37.54C123.365 37.0775 123.095 36.5992 123.401 36.2504C123.693 35.9183 124.155 36.105 124.461 36.229C125.728 36.7423 126.424 37.3284 126.943 38.3195C127.414 39.2179 127.452 39.5415 127.195 40.4834C127.076 40.9216 126.849 41.4515 126.626 41.8372C127.077 41.671 127.581 41.4016 127.79 41.1847C127.939 41.03 128.219 40.5551 128.37 40.1512L129.006 38.4553L129.821 39.8992C130.257 40.6705 131.113 41.3664 132.169 41.8084C132.209 41.8249 132.247 41.8407 132.284 41.8558C131.929 41.1258 131.634 40.1323 131.612 39.6974C131.607 39.6012 131.591 39.3083 131.799 39.1165C132.129 38.8123 132.512 39.0116 133.573 39.8082C134.286 40.3433 135.191 41.0872 136.122 41.9027C137.84 43.4073 138.885 43.8903 140.423 43.8903C141.329 43.8903 142.094 43.5087 142.469 42.8697C142.79 42.3218 142.776 41.6791 142.43 41.06C142.234 40.7104 141.919 40.4902 141.565 40.4555C141.225 40.4225 140.893 40.5668 140.65 40.8518C140.383 41.165 140.363 41.332 140.419 41.5669C140.482 41.8332 140.561 42.1644 140.352 42.4294C140.146 42.6892 139.809 42.6892 139.586 42.6892C138.959 42.6892 137.993 42.2431 135.318 40.0654C132.073 37.4232 128.146 35.1904 125.315 34.3771C123.547 33.8691 119.632 33.6634 117.834 33.9843C115.882 34.3329 113.556 35.4281 112.306 36.5882C110.174 38.5656 110.15 41.1879 112.242 43.6025L113.113 44.6086L112.486 45.5582C111.951 46.37 111.999 47.4599 112.606 48.2699C112.644 48.3206 112.681 48.3688 112.717 48.4143C112.851 47.5334 113.319 46.9136 114.054 46.6556C114.794 46.3953 115.273 46.5419 117.919 47.5727C120.594 48.6146 125.016 48.6797 129.746 47.7471C132.209 47.2619 135.053 47.2994 136.362 47.8347C137.56 48.3242 138.39 49.2414 138.641 50.3511C138.895 51.4761 138.529 52.6829 137.638 53.662C136.853 54.523 136.119 54.8692 133.711 55.5141C131.913 55.9957 131.445 56.0319 127.423 55.9923C124.058 55.9595 122.838 56.0222 121.486 56.2977C119.94 56.6127 118.961 56.646 114.501 56.5365L110.724 56.4437C110.89 56.5609 111.046 56.6631 111.148 56.7204C111.369 56.8439 111.671 57.0129 111.642 57.3633C111.642 57.3643 111.642 57.3652 111.641 57.3662L112.051 57.6401L111.448 57.7236C111.31 57.8346 111.108 57.9075 110.88 57.9899C110.45 58.1455 109.625 58.2397 109.066 58.2493H108.387L108.307 58.7364C108.231 59.201 108.258 59.6434 108.292 59.7402C108.353 59.8852 108.496 60.2305 108.25 60.4895C108.003 60.7506 107.648 60.6247 107.478 60.5642C107.297 60.5001 106.726 60.3534 106.165 60.2372C105.592 60.1183 104.847 59.8838 104.469 59.7032C104.416 59.6779 104.304 59.6244 104.217 59.5883C104.21 59.5985 104.204 59.6097 104.197 59.6219C103.965 60.0218 102.07 61.4705 101.571 61.4705C101.079 61.4705 101.032 60.887 101.002 60.501C100.986 60.3007 100.774 59.5862 100.465 58.8778C100.318 58.5393 100.17 58.1925 100.048 57.8998C100.034 57.9583 100.022 58.0179 100.01 58.0776C99.9233 58.5222 99.6319 59.2097 99.3464 59.6424L98.4545 60.9939L97.8148 59.6943C97.6663 59.3928 97.4822 59.1138 97.3277 58.913C97.033 59.5561 95.8547 61.0663 95.2639 61.0663C94.8761 61.0663 94.6645 60.7196 94.6204 60.0087C94.2115 60.5389 93.6161 61.0529 93.2256 61.0658C93.181 61.0772 93.0655 61.1377 92.9914 61.2201C92.4617 61.8094 92.0575 61.6698 91.9083 61.582C91.8037 61.5205 91.479 61.2733 91.6865 60.6692C91.7149 60.5746 91.7015 60.1793 91.5741 59.7959L91.3237 59.0431C91.1955 59.0637 90.968 59.1148 90.5746 59.2379C89.3575 59.6187 88.8783 59.6135 88.6735 59.2188C88.4452 58.7781 88.9227 58.4131 89.1024 58.2757C89.2364 58.1733 89.5729 57.6326 89.7751 57.0509C89.8394 56.8658 89.955 56.562 90.1087 56.2769C89.7873 56.5023 89.4249 56.7301 89.0301 56.9636C85.1823 59.2393 83.0027 62.2671 82.3665 66.2201C81.8059 69.7027 83.5876 73.3393 87.1323 75.9481C88.3276 76.8279 89.8448 77.6326 90.6506 77.9643C90.0675 75.5887 90.1068 71.7698 90.9984 70.946C91.1606 70.7963 91.3919 70.7681 91.5739 70.8766C91.8781 71.0578 91.8959 71.4069 91.6503 72.3711C91.0593 74.692 91.321 76.5393 92.8679 80.965C94.1504 84.6346 94.3993 87.0408 91.8768 88.4816C91.1113 88.9188 90.5719 88.972 88.8396 88.9513C86.9497 88.9293 86.8884 88.9764 86.416 89.3435C86.0049 89.6633 85.4192 90.746 85.2722 91.3913C85.3984 91.3438 85.5841 91.2593 85.8496 91.1099L85.9878 91.032L85.9886 91.0322L86.9282 90.5028ZM128.914 81.8522C129.362 81.8522 129.665 81.8901 129.877 82.0976C130.091 82.308 130.091 82.5889 130.091 82.709C130.089 83.272 128.998 84.5632 128.78 84.8162C127.229 86.6112 127.113 87.2277 127.518 88.4149C127.692 88.9265 127.804 89.4044 127.854 89.8396C128.57 89.0619 129.702 88.4948 131.206 88.1706C132.678 87.8533 133.349 86.711 133.219 84.7436C133.025 81.8163 133.018 81.7021 128.658 79.0397C128.48 78.9309 128.308 78.8247 128.143 78.721L127.586 79.4007C126.734 80.4419 127.06 81.0436 127.44 81.4515C127.776 81.8131 127.885 81.8698 128.632 81.8556C128.732 81.8537 128.825 81.8522 128.914 81.8522ZM69.6167 82.1121C70.6745 82.2919 70.8138 82.6057 70.8138 82.8617C70.8138 83.3207 71.0872 83.9888 71.2364 83.996C71.2661 83.9953 71.3032 83.978 71.3454 83.9386C71.5134 83.782 71.6559 83.406 71.6629 83.1004L71.6679 82.8819L71.6877 82.8671C71.8143 82.2821 72.415 82.1781 72.972 82.1003C72.4483 81.6475 72.2476 81.2299 72.3752 80.857C72.4387 80.6717 72.6378 80.3606 73.2595 80.3594C73.8118 80.3594 74.7577 79.7397 74.8552 79.4562C74.8887 79.3584 74.8575 79.2174 74.8286 79.1812C74.7184 79.0586 74.5537 79.0288 74.4483 79.0536C74.4123 79.062 74.3673 79.0793 74.3572 79.1147C74.3172 79.2561 74.1954 79.686 73.7919 79.7997C73.3911 79.9122 73.0246 79.6391 72.6874 79.3276C71.6845 78.4008 71.6507 76.5534 72.6164 75.4517C72.6416 75.423 72.6803 75.3788 72.7154 75.3366C72.6592 75.2808 72.5889 75.2159 72.542 75.1727C72.0639 74.7307 71.675 73.9462 71.6752 73.4238C71.6752 73.1253 71.7955 72.9515 71.8965 72.8583C71.9794 72.7816 72.2324 72.5474 73.2549 72.8891C73.7984 73.0706 73.8601 73.0231 73.9262 72.9727C74.0257 72.8962 74.0397 72.8489 74.0399 72.8484C74.0119 72.7737 73.6439 72.5339 72.9932 72.6221C72.7146 72.6603 71.9862 72.7587 71.7622 72.1073C71.6877 72.0399 71.4473 71.9025 71.1162 71.821C71.0148 71.796 70.9073 71.7695 70.8139 71.7482V71.7501C70.8139 72.3044 70.5791 72.5564 70.3821 72.6701C69.8893 72.9545 69.2746 72.5998 69.0728 72.4835C68.8968 72.382 68.7635 72.387 68.7027 72.4221C68.6413 72.4576 68.6283 72.5444 68.6283 72.6108C68.6283 72.6835 68.6498 72.7186 68.682 72.7489C68.7376 72.801 68.9796 72.9678 69.7349 72.9203C70.3998 72.8789 70.6492 73.1921 70.7406 73.3825C70.882 73.6771 70.8967 74.1974 70.1637 75.0024L69.8753 75.3191L70.0866 75.6152C70.837 76.6671 70.7672 78.3605 69.937 79.2392L69.0407 80.1879L68.3679 79.3178C68.2049 79.1068 68.0394 79.0277 67.9541 79.0462C67.8745 79.062 67.8304 79.2027 67.8187 79.2455C67.7606 79.4601 67.7484 79.5048 68.2169 79.8916C68.5579 80.1732 69.0139 80.3601 69.1656 80.3601C69.8571 80.3601 70.0593 80.7445 70.1141 80.9097C70.2374 81.2812 70.0571 81.7095 69.6167 82.1121ZM82.2734 78.6063L82.91 78.7151C83.0091 78.6968 83.2902 78.6189 83.6563 78.4806L83.7056 78.4616C84.3564 78.2113 85.6637 77.1472 86.0226 76.7007C85.8725 76.5238 85.5655 76.2039 85.1195 75.8099C83.747 74.5984 82.3103 72.6255 81.9169 71.4122C81.7353 70.8517 80.4101 69.5198 78.3308 67.5525L75.8916 65.2441C75.8477 65.446 75.7583 65.6467 75.6477 65.8224C75.6752 65.8454 75.7009 65.8713 75.7248 65.9001C76.0244 66.2614 75.9142 66.9831 75.622 67.4681C75.6327 67.4778 75.6431 67.4879 75.6532 67.4983C75.962 67.8153 76.0039 68.557 75.7377 68.9956C75.7076 69.0455 75.7005 69.1434 75.7472 69.2257C76.0325 69.7281 75.8774 70.5137 75.4602 70.9716C75.4934 70.9984 75.5329 71.0289 75.5795 71.0633C76.3872 71.6585 76.3872 71.9156 76.3872 73.9169C76.3872 74.9714 76.4202 75.4677 76.4919 75.7259C76.7971 75.3622 77.3423 75.1093 77.8167 75.1093C77.9511 75.1093 78.2658 75.1093 80.1803 76.9315C81.2262 77.9268 82.0777 78.5357 82.2734 78.6063ZM70.1588 70.0302V70.0626C70.1588 70.2413 70.1588 70.3081 70.8136 70.5864C71.6894 70.9585 72.5439 70.9482 72.8272 70.843C72.6565 70.6342 71.9629 70.2188 70.774 70.0885C70.5555 70.0647 70.3172 70.0385 70.1588 70.0302ZM69.8143 68.2695C69.7218 68.3433 69.6865 68.4071 69.6922 68.4278C69.7145 68.5078 69.9355 68.7031 70.4477 68.7618C70.9155 68.8152 71.53 68.9512 71.8467 69.0712C72.4432 69.2974 72.8542 69.1853 72.9122 69.1162C72.9133 69.1077 72.9131 69.1038 72.9131 69.1038C72.9122 69.1031 72.8578 69.0194 72.454 68.8414C71.2353 68.3044 70.0637 68.1675 69.8143 68.2695ZM69.1868 66.3567C69.1919 66.4077 69.2187 66.5146 69.3089 66.6817C69.3925 66.8365 69.5182 66.9728 70.2161 67.0748C70.7738 67.1562 71.536 67.316 71.9151 67.431C72.6274 67.6467 72.894 67.564 72.9264 67.53C72.9262 67.53 72.9314 67.5217 72.9351 67.4981C72.9351 67.4977 72.9352 67.497 72.9352 67.4965C72.7147 67.3013 71.5117 66.8883 70.7056 66.6114C69.6644 66.254 69.2824 66.3249 69.1868 66.3567ZM69.7598 65.0229C69.8269 65.0966 70.0887 65.2535 71.0407 65.5434C72.4129 65.9614 72.8114 65.9648 72.9248 65.9223C72.9272 65.9152 72.9299 65.9048 72.9325 65.8903C72.8997 65.8336 72.625 65.4689 70.8758 65.1067C70.1395 64.954 69.854 64.9948 69.7598 65.0229ZM72.9351 65.8759C72.9349 65.8764 72.9349 65.8769 72.9348 65.8775C72.9349 65.877 72.9349 65.8767 72.9351 65.8762V65.8759ZM73.4397 64.822L73.5619 64.9142L73.8922 64.7354C73.7423 64.7667 73.5882 64.7964 73.4397 64.822ZM68.5451 60.1797C68.3712 60.1797 68.1847 60.2128 68.015 60.256C67.3623 60.4225 66.9578 60.8248 66.9052 61.3597C66.8378 62.0457 67.3419 62.7507 68.1896 63.1557C69.7377 63.8956 73.2047 63.9407 74.8139 63.2418L74.8138 63.2416C75.7202 62.848 76.2795 62.1295 76.2386 61.4114C76.2076 60.8674 75.8164 60.4416 75.1652 60.243C74.3646 59.999 74.1503 60.2312 74.0126 60.4689C73.9285 60.6141 73.951 60.8709 73.999 60.9873C74.3043 61.0532 74.5287 61.3589 74.5287 61.7371C74.5287 61.9478 74.4414 62.2531 74.026 62.5111C73.1014 63.0852 70.5622 63.2639 69.3286 62.6537C68.836 62.4102 68.5145 61.873 68.6117 61.4562C68.6718 61.1994 68.8711 61.0224 69.1336 60.9827C69.1797 60.8875 69.216 60.6842 69.1636 60.5315C69.0721 60.2652 68.825 60.1797 68.5451 60.1797ZM70.0752 61.7276C70.6978 61.8768 72.3894 61.8236 73.1068 61.6426C72.9191 61.4482 72.8068 61.2157 72.7789 60.9606C72.735 60.5583 72.8986 60.133 73.2653 59.6965C73.5435 59.3653 73.5899 58.1712 73.7039 52.2253C73.9089 41.519 74.6707 33.413 75.7221 30.5054C74.3177 31.4688 73.253 32.7002 72.2848 34.4761C70.3917 37.9489 69.7208 42.7602 69.7208 52.8623C69.7208 58.4082 69.7616 59.3089 70.0331 59.746C70.4309 60.3869 70.4612 60.7308 70.1803 61.4185C70.131 61.539 70.0972 61.6445 70.0752 61.7276ZM93.217 61.066C93.2149 61.0661 93.2129 61.0661 93.2108 61.0661C93.2127 61.066 93.2148 61.0661 93.217 61.066ZM92.4048 58.222C92.4138 58.2632 92.4241 58.3119 92.4359 58.3667C92.4964 58.65 92.5977 59.1243 92.7112 59.5249L92.8384 59.974L93.0582 59.8755C93.6109 59.6275 94.1741 58.6574 94.1741 57.9533C94.1741 57.3048 94.601 57.2244 94.6864 57.2148C94.957 57.186 95.2896 57.362 95.4221 57.9482C95.4435 58.0422 95.5845 58.501 95.7653 59.0338L95.8107 59.167C96.0285 58.8906 96.3028 58.3766 96.4161 58.0271C96.5612 57.5792 96.8872 56.8415 97.4337 56.9276C97.545 56.9452 97.9059 57.0471 97.9141 57.621C97.9607 57.8103 98.3174 58.3235 98.5987 58.6426C98.655 58.4828 98.7189 58.2766 98.7795 58.034C98.9194 57.4739 99.3152 56.1413 99.9648 55.8639C100.16 55.7808 100.365 55.7904 100.542 55.8914C100.713 55.9893 100.837 56.1506 100.88 56.3339C100.906 56.4462 100.902 56.5594 100.869 56.6646C100.907 56.8545 101.072 57.3898 101.393 58.148L102.125 59.8869C102.276 59.7682 102.461 59.6088 102.552 59.5306C103.022 59.1257 103.353 58.7577 103.419 58.6506C103.454 58.5519 103.548 58.3273 103.801 58.2357C104.095 58.1291 104.379 58.2785 104.72 58.4847C105.187 58.7678 106.504 59.1675 107.098 59.2769C107.119 59.0923 107.14 58.8223 107.149 58.4896L107.191 56.8291L108.337 57.061C108.564 57.1068 109.1 57.1179 109.585 57.07C109.238 56.8267 108.688 56.3988 108.499 56.0997C108.449 56.0531 108.211 55.9297 107.812 55.8965C106.548 55.7917 103.79 54.5138 103.79 53.4731C103.79 53.2797 103.898 53.1112 104.072 53.0335C104.311 52.9265 104.591 52.9785 105.249 53.5668C105.993 54.2324 107.029 54.6817 107.978 54.7557C107.667 54.3305 107.401 53.5967 107.335 52.9607C107.257 52.2126 107.254 52.1834 106.373 51.5852C105.756 51.1671 105.02 50.5609 104.696 50.205L104.641 50.1449L104.628 50.1777C104.24 51.1701 103.951 51.1701 103.796 51.1701C103.692 51.1701 103.476 51.1701 102.831 50.5362C102.745 50.4516 102.665 50.3782 102.595 50.3179C102.527 50.4281 102.443 50.573 102.351 50.7513L101.578 52.2414L100.82 51.1519C100.657 50.9169 100.25 50.4803 99.9323 50.1987C99.4188 49.7439 99.2614 49.4544 99.3707 49.166C99.4417 48.9783 99.6212 48.8571 99.8274 48.8571C100.098 48.8571 100.522 49.1382 101.088 49.6926L101.392 49.9907L101.398 49.9811C101.517 49.7697 101.565 49.4049 101.509 49.1325C101.418 48.6921 101.339 48.3119 101.723 48.1577C102.101 48.0063 102.32 48.3548 102.45 48.5632C102.55 48.7227 102.929 49.1125 103.287 49.3957L103.558 49.6108L103.774 49.2258C104.13 48.5892 104.284 48.3131 104.629 48.3131C104.635 48.3131 104.641 48.3131 104.647 48.3133L104.224 47.2522C104.174 47.1263 103.805 46.7082 103.31 46.3909C102.369 45.7888 102.346 45.5217 102.334 45.3934C102.321 45.2431 102.376 45.0988 102.485 44.9976C102.705 44.7936 102.985 44.6982 104.178 45.6019C104.366 45.7442 104.52 45.8559 104.638 45.9366C104.639 45.4703 104.548 44.561 104.338 43.7671C104.256 43.4562 104.164 43.1042 104.495 42.9112C104.837 42.7119 105.058 42.9271 105.592 43.4485C106.122 43.9649 106.413 44.567 106.63 45.5958C106.858 46.6782 106.934 46.796 107.984 47.6951C108.228 47.9045 108.444 48.0814 108.622 48.2219C108.657 47.6608 108.699 46.7829 108.737 45.6749C108.857 42.1673 108.689 41.5578 107.973 40.662L107.293 39.8108L108.247 38.8066C108.927 38.0916 109.298 37.5109 109.499 36.8108C108.918 37.303 108.514 37.4378 107.759 37.4378C106.917 37.4378 106.509 37.2663 105.938 36.6733C105.416 36.1303 104.463 35.5914 103.555 35.3242C103.438 35.7877 103.104 36.3956 103.087 36.4266L102.35 37.7605L100.979 36.438C100.454 35.9319 99.8315 35.5321 99.3923 35.4196C99.166 35.3615 98.7784 35.2621 98.5814 35.2421C98.5694 35.3633 98.5694 35.5511 98.5694 35.6352C98.5694 35.9704 98.5694 36.9905 97.8641 37.3181C97.3803 37.5431 96.7883 37.3525 96.0558 36.7341C95.3389 36.1291 94.7926 35.9455 93.1547 36.1211L92.4759 36.1938L92.4789 36.2013C92.7588 36.8859 92.6057 37.2612 92.1572 37.8433C91.4047 38.8198 90.4127 39.2551 88.9407 39.2551C88.3599 39.2551 87.662 39.3782 87.4259 39.4882C87.0121 39.6809 86.1145 39.8568 85.4857 39.9156C84.7872 39.9808 84.1581 40.0892 84.0319 40.1352C83.916 40.1774 83.6081 40.2897 83.3507 40.0804C83.0599 39.8439 83.1185 39.4405 83.1864 38.9734C83.2379 38.6183 83.1577 38.3064 82.9542 38.0713C82.7134 37.7929 82.317 37.6395 81.8378 37.6395C81.3306 37.6395 80.9361 37.8164 80.6965 38.1508C80.3675 38.6103 80.3384 39.3429 80.6167 40.1612C80.7524 40.5691 80.8697 40.9847 80.9662 41.3993C81.0128 41.5651 81.5121 42.285 82.4575 43.2079C83.0736 43.8094 84.0595 44.8231 84.2511 45.1509C84.3135 45.2575 84.6133 45.5278 84.9434 45.7196C84.9047 45.3638 84.8922 44.8482 85.3073 44.6768C85.7602 44.4902 86.1238 44.9599 86.2789 45.1606C86.3879 45.3016 86.7298 45.5911 87.0293 45.7727C87.0813 45.5635 87.1566 45.3392 87.2315 45.159L87.8335 43.7087L88.6893 45.3261C88.8748 45.6769 89.5485 46.5887 90.2552 47.387C91.2051 48.4597 92.7725 50.7 91.9062 51.5002C91.606 51.7773 91.1182 51.7952 89.9722 51.5703C89.2441 51.4275 88.4223 51.3706 88.1407 51.4089C87.7756 51.4584 87.3262 51.5194 87.098 51.2154L86.9421 51.2115L87.0272 51.0916C86.8867 50.7549 87.1405 50.419 87.3502 50.1615C87.3006 50.1606 87.245 50.16 87.1828 50.16C86.0144 50.16 83.2106 49.632 82.0982 49.2024C81.5459 48.9893 81.4088 49.0037 81.3759 49.0195C81.3538 49.03 81.2703 49.1012 81.1202 49.5729L80.4692 51.5957L80.9015 51.5551C81.4811 51.5006 82.2437 51.3749 82.5667 51.2806C83.3823 51.0423 83.5584 51.1262 83.7042 51.2606C83.9526 51.4888 83.912 51.7688 83.502 52.5284C83.8191 52.4442 84.1903 52.3168 84.4132 52.2116C85.2717 51.8064 85.5371 52.0567 86.0249 52.8203C86.1117 52.9561 86.1835 53.0482 86.2393 53.1102C86.2494 53.0623 86.2592 53.0025 86.2671 52.9287C86.2961 52.6563 86.3644 52.0185 86.8723 51.9313C87.36 51.847 87.6986 52.341 88.1199 53.2212C88.3105 53.6197 88.479 53.8739 88.6022 54.026C88.7482 53.6802 89.0892 53.3183 89.4039 53.1018C89.8669 52.7836 90.2992 52.682 90.6899 52.8006C91.0693 52.9154 91.3608 53.2215 91.5567 53.7104C91.8185 54.3647 91.5848 54.9555 91.0078 55.5394C91.2195 55.5401 91.3441 55.6445 91.4156 55.7473C91.6409 56.0709 91.391 56.4005 91.1903 56.6652C91.0293 56.8778 90.9281 57.1213 90.9191 57.1922C90.9184 57.4037 90.8101 57.7063 90.6976 57.9571C90.728 57.9432 90.7589 57.9289 90.7907 57.914L92.4048 57.1232V58.222ZM104.97 48.4335C105.108 48.5522 105.189 48.7424 105.268 48.9285C105.444 49.341 106.843 50.5704 108.436 51.5641C108.379 51.4169 108.308 51.2421 108.22 51.0348C108.064 50.6686 107.942 50.041 107.942 49.6061C107.942 49.2581 107.91 49.1239 107.227 48.6171C106.36 47.9736 105.919 47.4472 105.661 46.6394C105.625 46.8414 105.577 47.0226 105.516 47.1622L104.97 48.4335ZM88.6499 50.3549L88.7621 50.3576C89.3231 50.3717 90.0703 50.455 90.4634 50.5475C90.6405 50.5891 90.8057 50.6279 90.9372 50.6564C90.8889 50.5081 90.8137 50.3122 90.7076 50.0902C90.3843 49.4151 90.351 49.4151 90.033 49.4151C89.6448 49.4151 89.2081 49.3791 88.7322 49.3096C88.7801 49.3524 88.8211 49.405 88.8545 49.4695C89.0048 49.7604 88.8684 50.0338 88.6499 50.3549ZM80.6747 46.6886C80.7129 46.9222 81.1765 47.5781 82.1702 48.0232C83.2324 48.499 86.2982 49.1047 87.7075 49.1216C86.1943 48.793 84.4098 48.2005 82.5825 47.4058C82.1915 47.2358 81.0732 46.7495 80.6747 46.6886Z" fill="black"/>
<path d="M101.327 56.1089C101.327 55.8126 100.435 55.0097 99.5313 54.4923C98.8216 54.086 98.7045 54.0737 98.7028 54.405C98.7004 54.9081 98.2419 56.1721 98.0618 56.1721C97.9602 56.1721 97.8101 55.9251 97.7281 55.6232C97.6461 55.3214 97.3021 54.7264 96.9638 54.3011L96.3484 53.5278L95.8693 54.2443C95.4225 54.9122 94.6489 55.5663 94.3054 55.5663C94.2234 55.5663 94.2073 55.2145 94.2698 54.7846C94.3376 54.3176 94.2853 53.947 94.1397 53.8639C94.0057 53.7875 93.8961 53.8142 93.8961 53.9232C93.8961 54.1748 92.8215 55.3642 92.5942 55.3642C92.5005 55.3642 92.3694 55.0233 92.3027 54.6069L92.0511 53.1428C91.9794 52.754 92.1323 53.0176 92.3912 53.7287L92.8617 55.0214L93.3778 54.2336C93.6617 53.8003 93.8944 53.3269 93.895 53.1815C93.8955 53.0361 93.9915 52.9717 94.1083 53.0384C94.2251 53.1051 94.3874 53.6259 94.4693 54.1957L94.618 55.2318L95.1859 54.6243C95.4983 54.2902 95.8642 53.843 95.9992 53.6304C96.24 53.251 96.2537 53.2513 96.7327 53.6478C97.0012 53.87 97.4139 54.4014 97.6498 54.8285C97.8858 55.2557 98.1106 55.5738 98.149 55.5353C98.1875 55.4968 98.2741 55.0563 98.3413 54.5565L98.4744 53.6065C98.5079 53.4827 100.185 54.5463 100.806 55.0849C101.204 55.4311 101.583 55.6659 101.647 55.6066C101.711 55.5473 101.764 55.0367 101.764 54.4717C101.764 53.5961 101.669 53.3615 101.12 52.8828C100.489 52.3324 100.471 52.3293 100.238 52.7319C99.9353 53.2544 99.5784 53.262 99.5784 52.7459C99.5784 52.3693 98.3858 50.9214 98.0756 50.9214C97.9951 50.9214 97.744 51.2394 97.5175 51.6281C97.291 52.0169 97.0473 52.3346 96.9761 52.3341C96.6703 52.3323 94.9889 50.5034 94.9898 50.1733C94.9898 49.9106 95.103 49.9778 95.3979 50.4163C95.6218 50.7496 96.0693 51.2469 96.392 51.5218C97.0456 52.0782 97.2833 51.9428 97.5356 50.8707C97.6075 50.5652 97.7324 50.3152 97.813 50.3152C98.0925 50.3152 99.556 51.8318 99.7619 52.3347L99.9684 52.8396L100.125 52.2842C100.316 51.6051 100.527 51.5799 100.833 52.1995C100.961 52.4584 101.591 52.9966 102.234 53.3956L103.403 54.1209L103.638 53.3914C103.767 52.9901 103.937 52.7596 104.017 52.879C104.137 53.0572 103.833 54.266 103.603 54.526C103.569 54.5651 103.19 54.3497 102.762 54.0477L101.983 53.4985L101.98 54.4817C101.977 55.0225 101.917 55.6695 101.845 55.9193C101.703 56.4079 101.327 56.5454 101.327 56.1085L101.327 56.1089ZM95.6325 48.2705C94.2433 47.1387 94.0324 46.8798 94.0631 46.3435L94.0958 45.7726L94.1865 46.3241C94.2395 46.646 94.6094 47.1285 95.0757 47.4837L95.8744 48.092L96.3652 47.5382C96.635 47.2335 96.8595 46.8708 96.8637 46.732C96.875 46.37 96.9417 46.4003 97.8823 47.1967C98.718 47.9041 98.731 47.9076 98.8552 47.4491C98.9244 47.1935 98.9 46.7124 98.8006 46.3799C98.5275 45.466 98.581 45.3281 98.9948 45.8793C99.2009 46.154 99.5324 46.5421 99.7313 46.742C100.078 47.09 100.099 47.0857 100.228 46.6411C100.302 46.3857 100.364 45.9182 100.365 45.6021L100.368 45.0278L101.122 45.8612C101.826 46.6396 101.89 46.6684 102.105 46.2974C102.232 46.079 102.337 45.5536 102.339 45.1297C102.341 44.5822 102.4 44.444 102.543 44.6525C102.781 45.0006 102.616 45.9484 102.176 46.7562L101.86 47.3358L101.445 46.7058C100.915 45.9 100.738 45.913 100.398 46.7825C100.077 47.6042 99.8674 47.6668 99.5542 47.035C99.3515 46.6261 99.3128 46.6761 99.1688 47.5351L99.0088 48.4897L98.0506 47.764L97.0921 47.0383L96.6612 47.5161C96.4243 47.7789 96.2271 48.1076 96.2231 48.2464C96.2143 48.5473 95.9839 48.5567 95.6325 48.2705ZM107.927 44.0549C107.422 43.6104 107.073 43.1862 107.153 43.1125C107.233 43.0387 107.323 43.0175 107.353 43.0655C107.383 43.1136 107.797 43.5377 108.272 44.008C109.366 45.091 109.141 45.1216 107.927 44.0549ZM91.4669 42.395C91.0068 41.7882 91.0387 41.3861 91.5985 40.7284C92.0031 40.2531 92.1879 40.1886 92.8945 40.2762C93.3477 40.3323 94.323 40.7231 95.0618 41.1445C95.9151 41.6311 96.7976 41.9571 97.4811 42.0382C98.073 42.1083 98.5572 42.1348 98.5572 42.0969C98.5572 42.0591 98.3113 41.6683 98.0109 41.2285C97.2973 40.1839 97.3218 40.0718 98.1267 40.6976C98.9528 41.3399 99.9411 41.5278 102.15 41.4623L103.229 41.4303L102.603 40.8267C101.727 39.9824 101.996 39.9066 102.963 40.7252C103.87 41.4931 103.813 41.5471 101.905 41.733C101.094 41.8121 100.222 41.7547 99.4971 41.5749C98.4126 41.3059 98.3705 41.31 98.5759 41.6647C98.6944 41.869 98.8862 42.0363 99.0021 42.0363C99.1181 42.0363 99.2131 42.1399 99.2131 42.2665C99.2131 42.6558 96.8707 42.3135 95.7514 41.7605C93.1943 40.4973 92.8724 40.388 92.2638 40.575C91.9251 40.6791 91.5862 40.9839 91.4694 41.2894C91.0797 42.3082 92.5607 43.1003 93.1715 42.1995C93.3485 41.9385 93.3072 41.7598 92.996 41.4422C92.5698 41.0071 92.6098 40.9451 93.185 41.1491C93.5934 41.2938 93.6483 42.2506 93.2684 42.6017C92.8336 43.0033 91.8416 42.8895 91.4669 42.395ZM101.539 39.8788C101.219 39.5834 101.47 39.5109 102.904 39.4849C104.677 39.4526 105.754 39.1643 107.025 38.3814C108.043 37.7542 108.32 37.8777 107.353 38.528C106.471 39.1213 105.096 39.5773 103.768 39.7168C103.126 39.7843 102.393 39.8778 102.14 39.9246C101.888 39.9714 101.617 39.9508 101.539 39.8786L101.539 39.8788Z" fill="black"/>
<path d="M101.48 56.8215C101.452 56.8215 101.424 56.8195 101.396 56.8155C101.166 56.7829 100.9 56.5924 100.879 56.1645C100.766 55.9574 100.124 55.3499 99.3079 54.8824C99.2318 54.8388 99.1636 54.8005 99.1033 54.7675C98.9827 55.4091 98.6395 56.6216 98.0619 56.6216C97.585 56.6216 97.3662 56.0058 97.2944 55.741C97.2354 55.5242 96.9311 54.9821 96.6119 54.581L96.38 54.2895L96.2433 54.4941C95.88 55.037 95.1343 55.8099 94.5329 55.9813L94.3061 56.2238L94.2761 56.015C94.1474 56.007 94.0262 55.9467 93.9398 55.8469C93.8789 55.7765 93.7236 55.597 93.8042 54.8803C93.55 55.1866 93.246 55.4829 92.9832 55.6567L92.7464 56.0183L92.6689 55.8053C92.6427 55.8108 92.6177 55.8137 92.5943 55.8137C92.3568 55.8137 92.0221 55.6961 91.8588 54.6781L91.608 53.2188C91.5206 52.7455 91.7328 52.5822 91.9262 52.5296C92.3884 52.404 92.5481 52.8449 92.8137 53.5748L92.9773 54.0244L93.0018 53.9872C93.2545 53.6015 93.4177 53.2537 93.4463 53.1494C93.4559 52.9288 93.5639 52.7387 93.7391 52.6374C93.9174 52.5341 94.1388 52.538 94.3314 52.6479C94.6645 52.8381 94.8324 53.5598 94.9145 54.1317L94.9298 54.2389C95.2252 53.9151 95.5222 53.5429 95.6199 53.3893C95.7566 53.1737 95.8981 52.9507 96.1834 52.9055C96.1982 52.9032 96.2128 52.9014 96.2273 52.9001L96.3169 52.766L96.4402 52.9209C96.6244 52.9743 96.7956 53.116 97.0195 53.3014C97.2825 53.519 97.6458 53.9655 97.911 54.3874L98.0405 53.4891L98.1054 53.2489L98.3526 53.1677C98.5285 53.1139 98.6556 53.075 99.7142 53.7516C99.7759 53.7911 99.8405 53.8329 99.907 53.8766L99.7848 53.5778C99.7218 53.5771 99.6692 53.5673 99.6303 53.557C99.5145 53.5258 99.1404 53.378 99.1292 52.7739C99.0544 52.5256 98.4868 51.8013 98.1445 51.4864C98.0779 51.5776 97.9956 51.7009 97.9062 51.8545C97.3627 52.7866 97.126 52.7866 96.9731 52.7836C96.8248 52.7828 96.5482 52.7811 95.5369 51.681C94.5392 50.5956 94.5399 50.2989 94.5402 50.1722C94.5402 49.7625 94.7676 49.6318 94.9033 49.5904C95.3032 49.4688 95.5624 49.8551 95.771 50.1654C95.9727 50.4655 96.3906 50.9299 96.6836 51.1795C96.7921 51.2718 96.8671 51.3248 96.9166 51.3552C96.9571 51.2708 97.0194 51.102 97.098 50.7676C97.2388 50.1691 97.4795 49.8656 97.8132 49.8656C98.2886 49.8656 99.3422 50.9733 99.8756 51.6876C99.9841 51.498 100.147 51.3299 100.398 51.3067C100.874 51.2638 101.127 51.7799 101.236 52.0006C101.305 52.1289 101.79 52.591 102.471 53.0135L103.151 53.4355L103.21 53.2537C103.437 52.5455 103.71 52.4289 103.896 52.4028C104.09 52.3754 104.279 52.4621 104.391 52.6285C104.691 53.0776 104.206 54.5222 103.941 54.8233C103.644 55.1602 103.257 54.9464 102.503 54.4152L102.43 54.3635L102.429 54.483C102.427 54.9924 102.373 55.7124 102.277 56.0446C102.138 56.5207 101.825 56.8214 101.48 56.8215ZM100.106 54.0093C100.466 54.2519 100.849 54.527 101.1 54.7453C101.173 54.8081 101.241 54.8638 101.303 54.9125C101.31 54.7847 101.314 54.6364 101.314 54.4716C101.314 53.6998 101.253 53.5953 100.824 53.2216C100.752 53.1582 100.666 53.0835 100.59 53.0196C100.488 53.1832 100.383 53.3009 100.282 53.3847L100.106 54.0093ZM99.3296 49.2964L97.1498 47.6457L96.9952 47.8172C96.8213 48.0101 96.6995 48.2159 96.6711 48.2928C96.6471 48.6764 96.4099 48.8259 96.3069 48.8731C96.0321 48.9986 95.71 48.9133 95.3485 48.6191L95.3487 48.619C94.024 47.5398 93.5682 47.1255 93.6143 46.3178L93.647 45.7469L94.5395 45.6996L94.6302 46.251C94.6561 46.4082 94.92 46.7999 95.3484 47.126L95.8149 47.4813L96.0289 47.2399C96.2453 46.9956 96.3821 46.7654 96.4157 46.6813C96.4224 46.5245 96.4538 46.2316 96.7403 46.1041C97.099 45.9444 97.3482 46.1552 98.1728 46.8535C98.263 46.9298 98.3576 47.0098 98.4453 47.0825C98.4456 46.903 98.4214 46.681 98.3699 46.5087C98.1799 45.8728 98.0299 45.3707 98.4562 45.1558C98.8607 44.9513 99.1697 45.3632 99.3544 45.6093C99.4901 45.7901 99.6884 46.029 99.8584 46.2193C99.8915 46.0136 99.9149 45.7747 99.9157 45.5999L99.9249 43.8668L101.455 45.5596C101.541 45.6542 101.667 45.7939 101.778 45.9088C101.834 45.7167 101.888 45.4106 101.889 45.1278C101.891 44.7189 101.893 44.2556 102.296 44.1318C102.403 44.0985 102.681 44.0581 102.914 44.3984C103.301 44.9637 103.034 46.1206 102.571 46.9712L101.896 48.2088L101.07 46.9529C101.005 46.8551 100.953 46.7801 100.91 46.7226C100.884 46.7807 100.853 46.854 100.817 46.9464C100.639 47.4018 100.411 47.8893 99.9561 47.9092C99.8078 47.9165 99.6853 47.8706 99.5806 47.7996L99.3296 49.2964ZM108.981 45.2973C108.677 45.2973 108.28 44.9638 107.631 44.3925C106.698 43.5723 106.694 43.2651 106.692 43.1494C106.691 43.009 106.748 42.8751 106.848 42.782C107.003 42.6394 107.194 42.5708 107.371 42.5948C107.511 42.6134 107.635 42.6875 107.716 42.7998C107.781 42.8746 108.108 43.2133 108.588 43.6884C109.259 44.3525 109.664 44.7533 109.303 45.1399C109.203 45.2467 109.099 45.2973 108.981 45.2973ZM106.98 43.3166C106.988 43.3282 106.997 43.3395 107.006 43.3501C106.993 43.3346 106.986 43.3242 106.98 43.3166ZM107.721 42.8062C107.725 42.8129 107.73 42.8197 107.734 42.8266C107.731 42.8218 107.727 42.8148 107.721 42.8062ZM92.5313 43.2948C92.4711 43.2948 92.41 43.2921 92.3483 43.2866C91.8316 43.241 91.3682 43.0092 91.1086 42.6667L91.2997 42.5219L91.1087 42.6666C90.5152 41.8839 90.5566 41.2587 91.2563 40.4369C91.7617 39.8429 92.0943 39.7237 92.9499 39.8299C93.5214 39.9007 94.5858 40.3553 95.2847 40.754C96.088 41.2121 96.908 41.5174 97.5341 41.5916C97.602 41.5996 97.6669 41.6069 97.7288 41.6135C97.7006 41.5715 97.6707 41.5275 97.6398 41.4821C97.1295 40.7352 96.8483 40.3238 97.1996 39.9935C97.5404 39.6725 97.9402 39.9829 98.4026 40.3425C99.1353 40.9121 100.043 41.0754 102.136 41.0128L102.149 41.0124C101.949 40.8151 101.752 40.6004 101.664 40.3874C101.507 40.3664 101.35 40.3155 101.234 40.209L101.234 40.2091C100.989 39.9827 100.911 39.748 101.001 39.5117C101.163 39.0837 101.668 39.0576 102.896 39.0353C104.599 39.0044 105.582 38.7427 106.789 37.9987C107.431 37.6037 108.031 37.2867 108.324 37.7426C108.627 38.2127 108.036 38.6105 107.604 38.9011C106.665 39.5332 105.213 40.0172 103.815 40.1639C103.579 40.1888 103.326 40.2176 103.092 40.2462C103.145 40.2901 103.199 40.3355 103.254 40.3821C103.717 40.7742 104.084 41.0848 103.96 41.5111L104.31 41.8482L103.68 41.8668C103.381 42.0409 102.843 42.0933 101.949 42.1805C101.181 42.2552 100.352 42.2136 99.6336 42.0665C99.6526 42.1298 99.6628 42.1969 99.6628 42.2665C99.6628 42.4597 99.5637 42.6322 99.3905 42.7397C98.7424 43.1421 96.4492 42.6068 95.5523 42.1635C94.8324 41.8079 94.3006 41.5499 93.898 41.3661C93.9141 41.4164 93.928 41.469 93.939 41.5235C94.0311 41.9714 93.9537 42.5805 93.5736 42.9319C93.3198 43.1664 92.9469 43.2948 92.5313 43.2948ZM92.256 41.0664C92.094 41.158 91.9423 41.3119 91.8894 41.4501C91.7413 41.8374 92.12 42.0484 92.1638 42.0711C92.2319 42.1066 92.5825 42.2677 92.7995 41.9472C92.8061 41.9372 92.8115 41.9289 92.8156 41.9219C92.7974 41.8937 92.7581 41.8418 92.6749 41.7568C92.4819 41.5598 92.2529 41.3261 92.256 41.0664Z" fill="black"/>
<path d="M86.0712 91.5017L86.8069 91.0872L87.1217 91.5025C87.5411 92.0558 88.7014 92.0495 89.4712 91.4898L90.0598 91.0618L90.5528 91.4898C91.2009 92.0525 92.4114 92.0531 93.1842 91.4918C93.7253 91.0985 93.8007 91.0906 94.1585 91.3898C94.3718 91.5682 94.9973 91.7712 95.5487 91.841C96.5416 91.9669 96.5566 91.9599 97.1375 91.1096C97.6241 90.3975 97.7 90.1092 97.5841 89.4186C97.4976 88.8756 97.4362 88.3292 97.4 87.7809C97.3559 86.9791 97.3607 86.974 98.5578 86.5673C99.2188 86.3427 99.9841 86.0415 100.258 85.8979C100.736 85.6476 102.055 84.1361 102.055 83.8382C102.055 83.7593 101.54 83.6383 100.91 83.5694C98.4069 83.2954 97.9829 81.9838 99.6104 79.5476C102.264 75.5744 103.866 71.7052 103.877 69.2403C103.882 68.1385 103.946 67.7687 104.091 68.0083C104.684 68.9874 103.621 73.0928 102.012 76.041L101.364 77.2281L101.982 77.0893C102.323 77.0129 104.322 76.1898 106.425 75.2603C112.183 72.7159 114.161 72.2173 117.887 72.3704C121.009 72.4987 122.338 73.0938 124.542 75.3493C125.71 76.5444 126.835 77.3993 128.893 78.656C133.276 81.3333 133.459 81.5652 133.668 84.7139C133.879 87.9041 133.774 88.0772 131.301 88.6102C129.187 89.0658 127.862 90.0272 127.507 91.363C127.317 92.0764 127.716 92.097 128.782 91.4286L129.563 90.9388L129.91 91.4286C130.367 92.0724 131.337 92.0751 132.143 91.4345L132.752 90.9507L133.374 91.4345C134.341 92.1862 135.627 92.0039 135.99 91.0636C136.059 90.8828 136.246 90.9408 136.623 91.2604C137.329 91.8593 139.14 92.1164 139.335 91.6454C139.41 91.4658 139.268 91.022 139.02 90.6592C137.967 89.1179 137.637 88.3829 137.623 87.5439C137.604 86.3771 137.961 85.8141 139.321 84.8651C140.974 83.7122 141.484 82.2249 140.228 82.2249C139.452 82.2249 138.67 81.5558 138.171 80.4652C137.157 78.2486 137.356 75.7635 138.878 71.6294C140.423 67.4303 140.595 66.656 140.601 63.8477C140.606 61.577 140.547 61.1843 140.018 59.9394C139.694 59.1782 139.037 58.0448 138.558 57.4209L137.687 56.2863L138.806 55.3822C142.22 52.6218 141.522 48.1041 137.411 46.3633C136.153 45.8308 135.839 45.7838 133.635 45.7982C132.313 45.8069 130.297 45.9767 129.155 46.1754C127.99 46.3781 126.02 46.541 124.668 46.5464C122.52 46.5548 122.156 46.5033 121.328 46.0733C120.465 45.6251 120.317 45.4123 120.148 44.3764C120.113 44.1635 119.961 43.951 119.809 43.9043C119.516 43.814 118.16 44.9618 117.96 45.4703C117.861 45.7213 117.78 45.7038 117.49 45.3694C117.298 45.1472 117.029 44.6367 116.893 44.2351C116.551 43.2248 116.971 42.4674 118.188 41.8999L119.133 41.4596L118.576 41.1225C117.427 40.4267 115.473 40.9026 114.766 42.0504C114.566 42.375 114.348 42.6412 114.282 42.6419C114.215 42.6426 113.835 42.333 113.437 41.9537C111.954 40.5394 112.464 38.4467 114.448 37.8078C115.507 37.4671 116.443 37.7269 116.638 38.4154C116.935 39.4665 117.86 38.0849 117.694 36.8372C117.584 36.0078 117.6 35.979 118.189 35.979C119.007 35.979 120.748 37.0266 121.287 37.8429C121.912 38.7909 121.867 40.2838 121.178 41.3965L120.638 42.2701L121.345 42.1319C122.381 41.9294 123.389 41.3011 123.898 40.5392C124.437 39.7338 124.495 38.1653 124.017 37.3191C123.554 36.4988 123.608 36.3686 124.292 36.6457C125.456 37.1172 126.078 37.637 126.545 38.5281C126.966 39.3305 126.989 39.5299 126.761 40.3652C126.621 40.8804 126.308 41.5584 126.067 41.8717C125.691 42.3597 125.678 42.4413 125.978 42.4413C126.535 42.4413 127.7 41.9262 128.114 41.4966C128.323 41.2796 128.628 40.7451 128.791 40.3088L129.088 39.5158L129.43 40.1203C129.913 40.9751 130.851 41.7444 131.996 42.2231C133.227 42.7379 133.739 42.7671 133.096 42.2854C132.661 41.9607 131.862 39.6707 132.104 39.4468C132.247 39.315 133.918 40.5697 135.826 42.2409C137.631 43.8219 138.765 44.3398 140.423 44.3398C142.541 44.3398 143.774 42.5411 142.822 40.8404C142.267 39.8487 141.031 39.7111 140.308 40.5603C139.975 40.9507 139.884 41.2615 139.982 41.671C140.101 42.1728 140.054 42.2396 139.586 42.2396C138.97 42.2396 137.757 41.4713 135.602 39.7167C132.316 37.0411 128.323 34.7732 125.439 33.9449C123.589 33.4134 119.636 33.2059 117.755 33.5417C115.72 33.9051 113.312 35.0418 112 36.2586C109.676 38.4148 109.639 41.284 111.902 43.8969L112.55 44.6453L112.111 45.3104C111.473 46.278 111.527 47.5804 112.247 48.5396C112.564 48.9622 112.883 49.3077 112.957 49.3073C113.031 49.307 113.112 49.0355 113.137 48.7038C113.2 47.8645 113.569 47.3023 114.203 47.0796C114.774 46.8791 115.143 46.9738 117.756 47.9916C120.505 49.0621 125.026 49.1357 129.833 48.1882C132.19 47.7237 134.969 47.751 136.192 48.2508C138.433 49.1669 138.952 51.5502 137.305 53.3592C136.592 54.1424 135.904 54.4614 133.595 55.0797C131.838 55.5504 131.421 55.5815 127.427 55.5426C124.015 55.5094 122.789 55.5733 121.396 55.8572C119.884 56.1653 118.954 56.1962 114.512 56.087L109.376 55.9607L109.945 56.4208C110.259 56.6739 110.701 56.9853 110.929 57.1128C111.316 57.3296 111.303 57.3588 110.727 57.5671C110.389 57.6895 109.638 57.7897 109.058 57.7997H108.005L107.863 58.6635C107.785 59.144 107.791 59.705 107.876 59.9102C108.002 60.2129 107.955 60.2564 107.628 60.1404C107.407 60.0619 106.789 59.9073 106.257 59.7969C105.724 59.6866 105.007 59.462 104.663 59.2976C104.085 59.0215 104.021 59.0289 103.808 59.3964C103.618 59.7246 101.833 61.0208 101.571 61.0208C101.529 61.0208 101.474 60.7708 101.45 60.4653C101.426 60.1599 101.168 59.3647 100.878 58.6982C100.587 58.0318 100.284 57.3048 100.204 57.0826C100.083 56.7475 100.028 56.7304 99.8824 56.9817C99.7857 57.1483 99.6445 57.6027 99.5687 57.9915C99.4929 58.3803 99.2239 59.0118 98.9711 59.3948L98.5113 60.0914L98.2182 59.4957C97.9034 58.8563 97.3807 58.1934 97.1917 58.1934C97.1279 58.1934 97.019 58.3979 96.95 58.6477C96.8057 59.1695 95.5666 60.6167 95.264 60.6167C95.1526 60.6167 95.0613 60.2078 95.0613 59.7078C95.0613 59.2079 94.9629 58.799 94.8427 58.799C94.7225 58.799 94.6241 58.9283 94.6241 59.0864C94.6241 59.4707 93.5658 60.6165 93.2108 60.6165C93.0559 60.6165 92.8068 60.7528 92.6571 60.9193C92.2669 61.3537 91.9477 61.2928 92.1118 60.8153C92.1887 60.5913 92.1386 60.0688 92.0007 59.654L91.6745 58.673C91.6223 58.5159 91.2431 58.5576 90.4404 58.8087C89.1434 59.2145 88.7086 59.1427 89.3756 58.6329C89.6195 58.4465 89.9905 57.8011 90.1999 57.1984C90.4093 56.5957 90.7185 56.0612 90.8868 56.0103C91.1224 55.939 91.1099 56.0271 90.8321 56.3935C90.6338 56.6552 90.471 57.008 90.4701 57.1777C90.4693 57.3473 90.3201 57.7496 90.1383 58.0715C89.9565 58.3934 89.8424 58.6887 89.8845 58.7277C89.9265 58.7667 90.42 58.5836 90.9811 58.3213L91.9552 57.8441V58.2709C92.0078 58.5057 92.1307 59.1252 92.2787 59.6474L92.5477 60.5971L93.242 60.2857C93.9517 59.9674 94.6238 58.8329 94.6238 57.9533C94.6238 57.5184 94.8791 57.5852 94.9836 58.0473C95.0143 58.183 95.1745 58.692 95.3397 59.1784L95.64 60.063L96.1154 59.5045C96.3768 59.1974 96.7048 58.5948 96.8438 58.1655C97.0855 57.4204 97.4648 57.0999 97.4648 57.641C97.4648 58.031 98.5554 59.4295 98.7658 59.3093C98.8676 59.2512 99.07 58.7264 99.2158 58.143C99.5191 56.9295 100.008 56.1043 100.319 56.2818C100.436 56.3485 100.481 56.4781 100.42 56.5697C100.359 56.6612 100.61 57.4502 100.978 58.3228L101.8 60.2751C101.935 60.5984 102.056 60.5515 102.846 59.8712C103.337 59.4478 103.783 58.9739 103.837 58.8181C103.918 58.5825 104.027 58.591 104.487 58.8693C105.129 59.2583 107.289 59.885 107.456 59.7309C107.518 59.6731 107.583 59.1196 107.598 58.501L107.627 57.3759L108.248 57.5016C108.59 57.5707 109.308 57.5664 109.844 57.492L110.819 57.3568L109.95 56.775C109.472 56.4551 108.989 56.0411 108.876 55.855C108.756 55.6567 108.331 55.4884 107.849 55.4484C106.547 55.3404 104.239 54.0777 104.239 53.473C104.239 53.3596 104.559 53.5526 104.95 53.9018C105.816 54.677 107.02 55.1634 108.072 55.212H108.858L108.372 54.5317C108.092 54.1689 107.841 53.4806 107.783 52.9143C107.689 52.0117 107.591 51.8683 106.625 51.2131C106.045 50.8195 105.326 50.2297 105.028 49.9023L104.486 49.307L104.209 50.0138C104.057 50.4026 103.871 50.7205 103.796 50.7205C103.721 50.7205 103.429 50.4933 103.147 50.2157C102.864 49.938 102.577 49.7118 102.507 49.7131C102.438 49.7144 102.188 50.0884 101.952 50.5442L101.522 51.373L101.19 50.8953C101.007 50.6325 100.575 50.1676 100.23 49.8621C99.8857 49.5566 99.7044 49.3067 99.8274 49.3067C99.9505 49.3067 100.376 49.6248 100.773 50.0138L101.495 50.7209L101.789 50.2028C101.963 49.8954 102.028 49.4231 101.949 49.0414C101.834 48.4848 101.85 48.4525 102.069 48.8018C102.208 49.0239 102.63 49.4498 103.007 49.7482L103.693 50.2908L104.166 49.4453C104.637 48.604 104.64 48.6024 104.854 49.1048C105.141 49.7768 107.214 51.4347 108.979 52.4035C109.251 52.5529 109.136 52.0394 108.634 50.8587C108.501 50.546 108.392 49.9823 108.392 49.6061C108.392 49.0478 108.227 48.7993 107.495 48.2561C106.439 47.4717 106.097 46.914 105.898 45.6485C105.817 45.1359 105.632 44.5658 105.487 44.3817C105.272 44.1083 105.236 44.2613 105.294 45.2128C105.332 45.854 105.247 46.6513 105.103 46.9845L104.843 47.5903L104.641 47.0854C104.53 46.8078 104.04 46.3248 103.552 46.0123C103.064 45.6997 102.721 45.3916 102.791 45.3274C102.86 45.2632 103.362 45.548 103.907 45.9604C104.736 46.5884 104.919 46.6565 105.034 46.3798C105.169 46.0547 105.034 44.6405 104.773 43.6523C104.643 43.1588 104.654 43.1615 105.278 43.7703C105.738 44.2191 105.993 44.7547 106.19 45.6887C106.44 46.8755 106.567 47.0731 107.691 48.0366C108.367 48.6152 108.954 49.056 108.997 49.0164C109.04 48.9767 109.126 47.4798 109.187 45.6902C109.304 42.2582 109.171 41.4416 108.324 40.3813L107.889 39.8364L108.573 39.1163C109.466 38.177 109.876 37.424 110.053 36.3967L110.198 35.561L109.426 36.2746C108.794 36.8588 108.492 36.9881 107.759 36.9881C107.034 36.9881 106.751 36.8695 106.262 36.3615C105.676 35.7519 104.637 35.1655 103.638 34.88C103.269 34.7746 103.146 34.8205 103.146 35.0641C103.146 35.2426 102.942 35.7578 102.693 36.2092L102.24 37.0297L101.291 36.1143C100.709 35.5528 100.018 35.1158 99.5041 34.984C98.1908 34.6471 98.1198 34.6805 98.1198 35.6351C98.1198 37.0831 97.4862 37.3528 96.3458 36.3905C95.4765 35.6569 94.7555 35.4973 93.1069 35.674L91.8338 35.8105L92.0628 36.3712C92.2542 36.8397 92.211 37.0368 91.8011 37.5689C91.1361 38.4318 90.2716 38.8056 88.9407 38.8056C88.3277 38.8056 87.5606 38.9294 87.2361 39.0806C86.9115 39.2317 86.105 39.4061 85.4439 39.4679C84.7828 39.5296 84.0782 39.6398 83.878 39.7127C83.5649 39.8269 83.5305 39.7328 83.6314 39.0379C83.7858 37.9745 83.0245 37.19 81.8379 37.19C80.2983 37.19 79.5883 38.5335 80.1911 40.3059C80.3219 40.6992 80.4345 41.098 80.5285 41.5012C80.6006 41.8294 81.2941 42.7004 82.1435 43.5297C82.9622 44.329 83.7359 45.1606 83.863 45.3778C83.9901 45.595 84.41 45.9436 84.7961 46.1524L85.4984 46.5321L85.4057 45.799C85.304 44.9933 85.4839 44.867 85.9232 45.4354C86.0803 45.6386 86.4791 45.9671 86.8097 46.1654C87.3304 46.4778 87.4107 46.484 87.4107 46.2128C87.4107 46.0407 87.5169 45.644 87.6467 45.3313L87.8826 44.7629L88.2919 45.5364C88.5171 45.9617 89.249 46.9286 89.9187 47.685C91.2181 49.1525 92.0097 50.7925 91.6011 51.1699C91.4353 51.3231 90.9874 51.3112 90.0588 51.1291C89.339 50.988 88.4489 50.9134 88.0804 50.9633C87.3282 51.0654 87.269 50.9705 87.7316 50.4054C88.2198 49.8088 88.1422 49.7104 87.1829 49.7104C86.0731 49.7104 83.3178 49.1914 82.2601 48.783C81.2318 48.386 80.9945 48.4848 80.6917 49.4366L80.1375 51.1614L79.8308 52.1072L80.9435 52.0027C81.5555 51.9452 82.3426 51.8145 82.6927 51.7122C83.0427 51.6099 83.3609 51.5556 83.3997 51.5913C83.4385 51.6271 83.2824 51.9968 83.053 52.4127L82.6358 53.1689L83.3295 53.0309C83.7111 52.955 84.2851 52.7692 84.6051 52.6182C85.162 52.3554 85.2067 52.3745 85.6461 53.0623C86.1863 53.9084 86.6184 53.8737 86.7142 52.9764C86.8133 52.049 87.126 52.1861 87.7144 53.4152C88.2799 54.5971 88.8684 55.0144 88.9817 54.3138C89.0192 54.0812 89.324 53.7026 89.6588 53.4724C90.3363 53.0067 90.8466 53.1465 91.1393 53.8775C91.4422 54.6341 90.7666 55.4142 88.8013 56.5766C84.8643 58.9051 82.5759 62.0897 81.9226 66.1486C81.3334 69.8098 83.1737 73.593 86.8659 76.3102C88.6328 77.6106 91.4397 78.983 91.2613 78.4593C90.5038 76.2354 90.5288 71.992 91.3035 71.2762C91.4198 71.1688 91.3798 71.6115 91.2145 72.2601C90.5994 74.6762 90.8665 76.6013 92.4436 81.1134C93.8699 85.1943 93.6724 86.9383 91.6539 88.0912C91.0056 88.4613 90.5881 88.5224 88.845 88.5018C86.9535 88.4794 86.7474 88.5165 86.1402 88.9886C85.5515 89.4464 84.7882 90.9492 84.7882 91.6505C84.7882 92.0304 85.2206 91.9802 86.0703 91.5015L86.0712 91.5017ZM116.825 91.4193L117.619 90.9218L118.157 91.4193C118.863 92.0711 119.689 92.0566 120.367 91.3803C120.663 91.0852 120.929 90.8807 120.958 90.926C121.057 91.0873 121.154 91.2493 121.251 91.4121C121.418 91.6933 121.763 91.8346 122.385 91.8774C123.135 91.929 123.336 91.8583 123.634 91.4383L123.989 90.9375L124.77 91.4272C126.908 92.7681 128.048 91.3614 127.092 88.5601C126.606 87.1359 126.874 86.3351 128.44 84.5222C129.1 83.7578 129.641 82.9419 129.641 82.709C129.641 82.3378 129.519 82.2881 128.64 82.3051C127.799 82.3214 127.553 82.2333 127.111 81.7579C126.391 80.9844 126.433 80.0988 127.238 79.1159L127.881 78.3307L126.74 77.5754C126.113 77.1599 124.981 76.177 124.226 75.391C122.529 73.6259 120.861 72.7889 118.66 72.599L117.185 72.4717L117.188 73.5612C117.19 74.9637 117.865 76.3128 119.706 78.5981C121.8 81.1965 121.946 81.5988 122.031 84.995L122.103 87.8672L121.497 88.4281C120.949 88.9348 120.703 88.9995 118.936 89.0989C117.254 89.1936 116.901 89.2783 116.408 89.7048C115.752 90.2712 115.556 90.5795 115.354 91.3618C115.236 91.8178 115.283 91.9173 115.621 91.9173C115.847 91.9173 116.388 91.6933 116.825 91.4198L116.825 91.4193ZM72.113 83.1102C72.113 82.7471 72.2792 82.6501 73.0971 82.5368L74.0812 82.4004L73.4248 81.8901C72.6451 81.2838 72.5729 80.8102 73.2603 80.809C73.9448 80.809 75.1041 80.1154 75.2803 79.6023C75.3622 79.3639 75.3107 79.0452 75.1639 78.8815C74.7801 78.4542 74.0586 78.5188 73.9246 78.9922C73.7806 79.5012 73.5394 79.5025 72.9926 78.9973C72.1702 78.2374 72.1516 76.6641 72.9545 75.748C73.3329 75.3162 73.3295 75.2879 72.8471 74.8423C72.3283 74.3628 71.9577 73.4138 72.2014 73.1885C72.2791 73.1169 72.689 73.174 73.1125 73.3155C73.7143 73.5165 73.9518 73.5197 74.1997 73.3295C74.9507 72.7536 74.1371 72.0131 72.9327 72.1764C72.448 72.2421 72.2478 72.1764 72.1781 71.9311C72.1255 71.745 71.7015 71.5021 71.2239 71.3844C70.3704 71.1739 70.3643 71.1764 70.3643 71.7501C70.3643 72.3788 69.9965 72.4974 69.2975 72.0941C68.7296 71.7664 68.1787 72.0208 68.1787 72.6108C68.1787 73.1613 68.7461 73.4329 69.7631 73.369C70.5432 73.3199 70.5722 73.8859 69.8313 74.6995L69.2985 75.2846L69.7206 75.8763C70.3457 76.7525 70.2931 78.2077 69.6102 78.9304L69.0749 79.4971L68.7237 79.0428C68.2356 78.4112 67.5679 78.4536 67.385 79.1276C67.2651 79.5689 67.3642 79.7706 67.9306 80.2383C68.3112 80.5526 68.8669 80.8097 69.1657 80.8097C69.9046 80.8097 69.8757 81.3766 69.1076 81.9495L68.5066 82.3978L69.4354 82.5384C69.9463 82.6158 70.3641 82.7612 70.3641 82.8617C70.3641 83.2468 70.6048 84.4157 71.2147 84.445C71.7594 84.471 72.0998 83.6628 72.1125 83.1106L72.113 83.1102ZM83.867 78.8812C84.7109 78.5566 86.5372 77.0478 86.5372 76.6749C86.5372 76.5577 86.0331 76.0168 85.417 75.4728C84.1205 74.3282 82.7101 72.4006 82.3447 71.2735C82.1541 70.6858 81.2335 69.6799 78.6399 67.2258L75.1889 63.96L74.1943 64.2058C73.6473 64.341 72.9798 64.455 72.7111 64.4589C72.248 64.4659 72.2564 64.4917 72.8721 64.9567L73.5217 65.4473L74.4324 64.9541C75.3151 64.4761 75.3466 64.4731 75.4555 64.8578C75.5193 65.083 75.3818 65.4733 75.1377 65.76C74.9011 66.038 74.7664 66.3532 74.8381 66.4607C74.9099 66.5682 74.6827 66.7927 74.333 66.9598C73.6849 67.2694 73.2351 68.2889 73.7465 68.2889C74.2066 68.2889 75.2211 67.0675 75.1043 66.6544C75.0444 66.4428 75.0734 66.2252 75.1686 66.1709C75.5637 65.9453 75.5391 66.9042 75.1375 67.3758C74.9009 67.6537 74.7662 67.9689 74.838 68.0765C74.9097 68.184 74.6825 68.4084 74.3328 68.5756C73.689 68.8832 73.2346 69.9046 73.7416 69.9046C74.2385 69.9046 75.2364 68.7376 75.1127 68.3009C75.0481 68.0725 75.0731 67.841 75.1684 67.7866C75.4346 67.6346 75.5782 68.3916 75.3534 68.7625C75.2331 68.9612 75.2341 69.2325 75.3563 69.4475C75.5774 69.8371 75.3532 70.5856 74.9458 70.8181C74.7713 70.9177 74.8895 71.1135 75.3129 71.4254C75.9257 71.8769 75.9375 71.9243 75.9375 73.9169C75.9375 75.582 76.0064 76.0118 76.32 76.3016C76.6719 76.6269 76.7024 76.6282 76.7024 76.3161C76.7024 75.9754 77.3154 75.559 77.8168 75.559C77.9647 75.559 78.8889 76.3231 79.8703 77.2571C80.8578 78.1967 81.891 78.9962 82.1837 79.0471L82.8834 79.1666C82.9774 79.1818 83.4199 79.0535 83.8668 78.8816L83.867 78.8812ZM73.3153 70.9C73.3153 70.3632 72.1805 69.7903 70.823 69.6416C69.7272 69.5217 69.7091 69.5284 69.7091 70.0626C69.7091 70.5048 69.8815 70.6787 70.6379 71.0001C71.8534 71.5165 73.3151 71.4619 73.3151 70.9H73.3153ZM74.5592 70.7761C75.1128 70.286 75.375 69.7031 75.0421 69.7031C74.6591 69.7031 73.6424 70.5931 73.6424 70.9286C73.6424 71.452 73.8313 71.4206 74.5592 70.7761ZM73.356 69.1886C73.403 68.8858 73.2109 68.6836 72.6354 68.43C71.3939 67.883 69.9097 67.6295 69.5522 67.9037C68.8938 68.4086 69.3325 69.0865 70.3966 69.2084C70.8249 69.2575 71.4058 69.3849 71.6874 69.4916C72.5052 69.8015 73.2829 69.6603 73.356 69.1885V69.1886ZM73.3795 67.5666C73.4463 67.1345 73.1631 66.9799 70.8516 66.1862C69.1259 65.5935 68.3618 65.873 68.9134 66.8953C69.1054 67.2513 69.428 67.414 70.1511 67.5197C70.689 67.5982 71.4242 67.7519 71.7847 67.8612C72.7481 68.153 73.3047 68.0503 73.3795 67.5668L73.3795 67.5666ZM74.5372 66.0467C74.8861 65.7017 75.1713 65.2946 75.1713 65.142C75.1713 64.647 73.794 65.5227 73.6183 66.1294C73.4076 66.8571 73.7491 66.8263 74.5372 66.0467ZM73.3795 65.9446C73.4556 65.4524 72.6166 65.008 70.967 64.6664C69.7567 64.4158 69.2229 64.5579 69.3135 65.1068C69.363 65.4063 69.766 65.6251 70.9096 65.9734C72.7396 66.5307 73.29 66.5243 73.3795 65.9448L73.3795 65.9446ZM74.9929 63.654C77.1068 62.736 77.2896 60.4207 75.2964 59.8129C74.4687 59.5604 73.9405 59.6965 73.6237 60.2435C73.3811 60.6623 73.5433 61.4239 73.8751 61.4239C73.9872 61.4239 74.079 61.5648 74.079 61.7371C74.079 62.541 70.8516 62.9053 69.528 62.2507C69.0631 62.0208 68.8605 61.4239 69.2475 61.4239C69.5366 61.4239 69.7366 60.8157 69.589 60.3854C69.3876 59.7994 68.7822 59.5963 67.9041 59.8203C65.9227 60.3258 65.9784 62.5975 67.9958 63.5615C69.6499 64.3519 73.2762 64.4 74.9931 63.6542L74.9929 63.654ZM73.6782 61.8739C73.8005 61.7608 73.7474 61.5869 73.5422 61.4296C73.0927 61.085 73.1167 60.5724 73.6097 59.9856C73.9798 59.545 74.026 58.8856 74.1535 52.2339C74.373 40.7709 75.2466 32.1489 76.3981 30.0806C76.8565 29.2571 76.7922 29.2538 75.6076 30.0402C74.0816 31.0533 72.9197 32.3725 71.8902 34.2609C69.9466 37.8262 69.2712 42.623 69.2712 52.8623C69.2712 58.676 69.3119 59.4366 69.6511 59.9832C69.9734 60.5022 69.9906 60.694 69.7641 61.2483C69.6173 61.6076 69.5508 61.9512 69.6161 62.0116C70.05 62.4126 73.2113 62.3062 73.678 61.8749L73.6782 61.8739ZM91.4382 51.007C91.5044 50.908 91.3581 50.4082 91.1132 49.8963C90.7311 49.0981 90.5773 48.9655 90.033 48.9655C88.328 48.9655 85.5873 48.2222 82.7617 46.9934C81.13 46.2839 80.5665 46.1208 80.3709 46.3016C79.8717 46.7629 80.7013 47.858 81.9864 48.4335C83.1263 48.9441 86.3129 49.5715 87.7665 49.5715C88.6099 49.5715 88.6298 49.6086 88.1498 50.2854L87.7969 50.7832L88.7508 50.8071C89.2755 50.8202 89.9997 50.9003 90.3604 50.9851C91.2969 51.2052 91.3057 51.2054 91.4385 51.007H91.4382Z" fill="#FDD406"/>
<path d="M101.327 56.1089C101.327 55.8126 100.435 55.0097 99.5313 54.4923C98.8216 54.086 98.7045 54.0737 98.7028 54.405C98.7004 54.9081 98.2419 56.1721 98.0618 56.1721C97.9602 56.1721 97.8101 55.9251 97.7281 55.6232C97.6461 55.3214 97.3021 54.7264 96.9638 54.3011L96.3484 53.5278L95.8693 54.2443C95.4225 54.9122 94.6489 55.5663 94.3054 55.5663C94.2234 55.5663 94.2073 55.2145 94.2698 54.7846C94.3376 54.3176 94.2853 53.947 94.1397 53.8639C94.0057 53.7875 93.8961 53.8142 93.8961 53.9232C93.8961 54.1748 92.8215 55.3642 92.5942 55.3642C92.5005 55.3642 92.3694 55.0233 92.3027 54.6069L92.0511 53.1428C91.9794 52.754 92.1323 53.0176 92.3912 53.7287L92.8617 55.0214L93.3778 54.2336C93.6617 53.8003 93.8944 53.3269 93.895 53.1815C93.8955 53.0361 93.9915 52.9717 94.1083 53.0384C94.2251 53.1051 94.3874 53.6259 94.4693 54.1957L94.618 55.2318L95.1859 54.6243C95.4983 54.2902 95.8642 53.843 95.9992 53.6304C96.24 53.251 96.2537 53.2513 96.7327 53.6478C97.0012 53.87 97.4139 54.4014 97.6498 54.8285C97.8858 55.2557 98.1106 55.5738 98.149 55.5353C98.1875 55.4968 98.2741 55.0563 98.3413 54.5565L98.4744 53.6065C98.5079 53.4827 100.185 54.5463 100.806 55.0849C101.204 55.4311 101.583 55.6659 101.647 55.6066C101.711 55.5473 101.764 55.0367 101.764 54.4717C101.764 53.5961 101.669 53.3615 101.12 52.8828C100.489 52.3324 100.471 52.3293 100.238 52.7319C99.9353 53.2544 99.5784 53.262 99.5784 52.7459C99.5784 52.3693 98.3858 50.9214 98.0756 50.9214C97.9951 50.9214 97.744 51.2394 97.5175 51.6281C97.291 52.0169 97.0473 52.3346 96.9761 52.3341C96.6703 52.3323 94.9889 50.5034 94.9898 50.1733C94.9898 49.9106 95.103 49.9778 95.3979 50.4163C95.6218 50.7496 96.0693 51.2469 96.392 51.5218C97.0456 52.0782 97.2833 51.9428 97.5356 50.8707C97.6075 50.5652 97.7324 50.3152 97.813 50.3152C98.0925 50.3152 99.556 51.8318 99.7619 52.3347L99.9684 52.8396L100.125 52.2842C100.316 51.6051 100.527 51.5799 100.833 52.1995C100.961 52.4584 101.591 52.9966 102.234 53.3956L103.403 54.1209L103.638 53.3914C103.767 52.9901 103.937 52.7596 104.017 52.879C104.137 53.0572 103.833 54.266 103.603 54.526C103.569 54.5651 103.19 54.3497 102.762 54.0477L101.983 53.4985L101.98 54.4817C101.977 55.0225 101.917 55.6695 101.845 55.9193C101.703 56.4079 101.327 56.5454 101.327 56.1085L101.327 56.1089ZM95.6325 48.2705C94.2433 47.1387 94.0324 46.8798 94.0631 46.3435L94.0958 45.7726L94.1865 46.3241C94.2395 46.646 94.6094 47.1285 95.0757 47.4837L95.8744 48.092L96.3652 47.5382C96.635 47.2335 96.8595 46.8708 96.8637 46.732C96.875 46.37 96.9417 46.4003 97.8823 47.1967C98.718 47.9041 98.731 47.9076 98.8552 47.4491C98.9244 47.1935 98.9 46.7124 98.8006 46.3799C98.5275 45.466 98.581 45.3281 98.9948 45.8793C99.2009 46.154 99.5324 46.5421 99.7313 46.742C100.078 47.09 100.099 47.0857 100.228 46.6411C100.302 46.3857 100.364 45.9182 100.365 45.6021L100.368 45.0278L101.122 45.8612C101.826 46.6396 101.89 46.6684 102.105 46.2974C102.232 46.079 102.337 45.5536 102.339 45.1297C102.341 44.5822 102.4 44.444 102.543 44.6525C102.781 45.0006 102.616 45.9484 102.176 46.7562L101.86 47.3358L101.445 46.7058C100.915 45.9 100.738 45.913 100.398 46.7825C100.077 47.6042 99.8674 47.6668 99.5542 47.035C99.3515 46.6261 99.3128 46.6761 99.1688 47.5351L99.0088 48.4897L98.0506 47.764L97.0921 47.0383L96.6612 47.5161C96.4243 47.7789 96.2271 48.1076 96.2231 48.2464C96.2143 48.5473 95.9839 48.5567 95.6325 48.2705ZM107.927 44.0549C107.422 43.6104 107.073 43.1862 107.153 43.1125C107.233 43.0387 107.323 43.0175 107.353 43.0655C107.383 43.1136 107.797 43.5377 108.272 44.008C109.366 45.091 109.141 45.1216 107.927 44.0549ZM91.4669 42.395C91.0068 41.7882 91.0387 41.3861 91.5985 40.7284C92.0031 40.2531 92.1879 40.1886 92.8945 40.2762C93.3477 40.3323 94.323 40.7231 95.0618 41.1445C95.9151 41.6311 96.7976 41.9571 97.4811 42.0382C98.073 42.1083 98.5572 42.1348 98.5572 42.0969C98.5572 42.0591 98.3113 41.6683 98.0109 41.2285C97.2973 40.1839 97.3218 40.0718 98.1267 40.6976C98.9528 41.3399 99.9411 41.5278 102.15 41.4623L103.229 41.4303L102.603 40.8267C101.727 39.9824 101.996 39.9066 102.963 40.7252C103.87 41.4931 103.813 41.5471 101.905 41.733C101.094 41.8121 100.222 41.7547 99.4971 41.5749C98.4126 41.3059 98.3705 41.31 98.5759 41.6647C98.6944 41.869 98.8862 42.0363 99.0021 42.0363C99.1181 42.0363 99.2131 42.1399 99.2131 42.2665C99.2131 42.6558 96.8707 42.3135 95.7514 41.7605C93.1943 40.4973 92.8724 40.388 92.2638 40.575C91.9251 40.6791 91.5862 40.9839 91.4694 41.2894C91.0797 42.3082 92.5607 43.1003 93.1715 42.1995C93.3485 41.9385 93.3072 41.7598 92.996 41.4422C92.5698 41.0071 92.6098 40.9451 93.185 41.1491C93.5934 41.2938 93.6483 42.2506 93.2684 42.6017C92.8336 43.0033 91.8416 42.8895 91.4669 42.395ZM101.539 39.8788C101.219 39.5834 101.47 39.5109 102.904 39.4849C104.677 39.4526 105.754 39.1643 107.025 38.3814C108.043 37.7542 108.32 37.8777 107.353 38.528C106.471 39.1213 105.096 39.5773 103.768 39.7168C103.126 39.7843 102.393 39.8778 102.14 39.9246C101.888 39.9714 101.617 39.9508 101.539 39.8786L101.539 39.8788Z" fill="black"/>
<path d="M136.939 93.3494C136.939 93.3494 138.262 96.1088 139.724 97.233C141.889 98.8988 146.329 98.7784 148.214 100.722C150.472 103.014 148.038 106.041 148.059 106.304L148.183 107.903C148.183 107.903 146.66 107.922 146.019 108.024C145.055 108.178 144.679 108.982 142.884 108.863C138.372 108.563 138.554 104.397 138.298 100.838C138.072 99.4828 137.547 97.7158 137.249 96.3608C136.994 95.199 136.939 93.3494 136.939 93.3494Z" fill="#FDD406"/>
<path d="M143.237 109.084C143.121 109.084 142.999 109.08 142.87 109.072C138.569 108.786 138.347 105.074 138.15 101.798C138.131 101.481 138.112 101.165 138.09 100.853C137.954 100.05 137.704 99.0686 137.463 98.1199C137.308 97.5094 137.161 96.9326 137.045 96.4057C136.788 95.2383 136.732 93.4318 136.73 93.3557L137.128 93.2588C137.141 93.2861 138.447 95.9865 139.851 97.067C140.826 97.8166 142.334 98.2068 143.793 98.584C145.525 99.032 147.316 99.4953 148.364 100.576C150.328 102.57 148.945 105.078 148.424 106.021C148.361 106.136 148.291 106.263 148.27 106.316L148.408 108.11L148.185 108.113C148.17 108.113 146.67 108.132 146.052 108.231C145.733 108.282 145.485 108.412 145.197 108.562C144.725 108.808 144.197 109.084 143.237 109.084ZM137.2 94.2936C137.243 94.9123 137.321 95.7133 137.454 96.3158C137.568 96.8359 137.714 97.4094 137.869 98.0166C138.112 98.9736 138.364 99.9633 138.505 100.804C138.53 101.136 138.549 101.454 138.568 101.773C138.763 105.027 138.965 108.392 142.898 108.654C143.977 108.726 144.5 108.454 145.003 108.191C145.31 108.03 145.6 107.879 145.986 107.818C146.492 107.737 147.506 107.707 147.957 107.698L147.85 106.321C147.841 106.211 147.9 106.104 148.058 105.819C148.582 104.868 149.81 102.641 148.064 100.869C147.097 99.8713 145.364 99.423 143.688 98.9895C142.189 98.6018 140.638 98.2006 139.596 97.399C138.617 96.6463 137.716 95.2145 137.2 94.2936Z" fill="black"/>
<path d="M72.0698 93.327C72.0698 93.327 70.7458 96.0904 69.283 97.2162C67.1158 98.8844 62.672 98.7638 60.7858 100.71C58.5258 103.005 60.9612 106.037 60.9408 106.3L60.8168 107.902C60.8168 107.902 62.3406 107.92 62.9824 108.023C63.9472 108.177 64.3236 108.982 66.1198 108.862C70.636 108.562 70.454 104.391 70.7094 100.826C70.9362 99.4692 71.461 97.6994 71.7594 96.3426C72.0152 95.179 72.0698 93.327 72.0698 93.327Z" fill="#FDD406"/>
<path d="M65.7662 109.084C64.8059 109.084 64.2774 108.808 63.8047 108.561C63.5167 108.411 63.268 108.281 62.9493 108.23C62.3299 108.131 60.8293 108.111 60.8143 108.111L60.5905 108.108L60.7297 106.312C60.7085 106.259 60.6379 106.131 60.5749 106.017C60.0537 105.072 58.6694 102.561 60.6365 100.563C61.6842 99.482 63.4767 99.018 65.2102 98.5693C66.6701 98.1916 68.1799 97.8008 69.1551 97.0502C70.5621 95.9674 71.868 93.2635 71.8809 93.2363L72.2795 93.3334C72.2772 93.4102 72.2199 95.2244 71.9641 96.3875C71.8481 96.9152 71.7012 97.4932 71.5455 98.1047C71.3037 99.0547 71.0539 100.037 70.916 100.861C70.8961 101.153 70.8772 101.469 70.858 101.787C70.6613 105.067 70.4385 108.785 66.1338 109.072C66.0047 109.08 65.8822 109.084 65.7662 109.084ZM61.043 107.696C61.4943 107.705 62.5088 107.735 63.0155 107.816C63.4015 107.878 63.6916 108.029 63.9987 108.19C64.5029 108.453 65.024 108.726 66.1061 108.653C70.0422 108.391 70.2442 105.021 70.4397 101.762C70.4588 101.443 70.4779 101.125 70.5004 100.811C70.6434 99.9504 70.8955 98.9596 71.1393 98.0014C71.294 97.3932 71.4401 96.8186 71.5547 96.2977C71.6873 95.6941 71.7654 94.8922 71.8094 94.2727C71.2926 95.1947 70.3904 96.6285 69.4108 97.3822C68.3678 98.1852 66.8158 98.5869 65.3151 98.9752C63.6377 99.4094 61.9032 99.8582 60.9363 100.856C59.1874 102.632 60.4169 104.862 60.942 105.815C61.0994 106.1 61.1583 106.207 61.1498 106.316L61.043 107.696Z" fill="black"/>
<path d="M72.0703 26.6406C72.0703 26.6406 70.7463 23.8772 69.2835 22.7514C67.1163 21.0832 62.6725 21.2038 60.7863 19.2576C58.5263 16.9626 60.9617 13.9306 60.9413 13.6674L60.8173 12.066C60.8173 12.066 62.3413 12.0472 62.9829 11.9446C63.9477 11.7904 64.3241 10.9856 66.1203 11.1052C70.6365 11.4058 70.4545 15.5768 70.7099 19.1412C70.9367 20.4984 71.4615 22.2682 71.7599 23.625C72.0157 24.7886 72.0703 26.6406 72.0703 26.6406Z" fill="#FDD406"/>
<path d="M71.8812 26.7313C71.8683 26.704 70.5615 23.9995 69.1554 22.9175C68.1802 22.1668 66.6704 21.7761 65.2105 21.3982C63.477 20.9496 61.6845 20.4857 60.6357 19.4035C58.6697 17.407 60.054 14.8958 60.5752 13.9505C60.6382 13.8362 60.7088 13.7081 60.73 13.6552L60.5909 11.8592L60.8145 11.8564C60.8296 11.8563 62.3306 11.8366 62.9496 11.7377C63.2682 11.6867 63.5169 11.5568 63.8049 11.4064C64.3347 11.1299 64.9351 10.8164 66.1341 10.896C70.4388 11.1825 70.6617 14.9003 70.8583 18.1804C70.8775 18.4983 70.8964 18.8147 70.9187 19.1263C71.0542 19.9307 71.304 20.9129 71.5458 21.8628C71.7015 22.4745 71.8484 23.0522 71.9644 23.58C72.2216 24.7493 72.2775 26.5582 72.2798 26.6347L71.8812 26.7313ZM61.0433 12.2717L61.1501 13.6512C61.1586 13.7605 61.0997 13.8674 60.9423 14.1528C60.4173 15.1053 59.1877 17.3356 60.9355 19.1105C61.9035 20.1094 63.6381 20.5583 65.3156 20.9924C66.8163 21.3808 68.3681 21.7823 69.4113 22.5853C70.3911 23.3395 71.2939 24.7743 71.8105 25.6964C71.7667 25.0788 71.689 24.2791 71.555 23.67C71.4404 23.1489 71.2943 22.5744 71.1396 21.9661C70.8958 21.0079 70.6437 20.0171 70.5031 19.1758C70.4783 18.843 70.4591 18.525 70.44 18.2055C70.2445 14.9464 70.0425 11.5763 66.1064 11.3144C65.0243 11.2424 64.5033 11.5146 63.999 11.778C63.6918 11.9384 63.4018 12.0899 63.0159 12.1516C62.5093 12.2325 61.4948 12.2622 61.0433 12.2717Z" fill="black"/>
<path d="M136.929 26.6406C136.929 26.6406 138.253 23.8772 139.715 22.7514C141.883 21.0832 146.326 21.2038 148.213 19.2576C150.473 16.9626 148.037 13.9306 148.058 13.6674L148.182 12.066C148.182 12.066 146.658 12.0472 146.016 11.9446C145.051 11.7904 144.675 10.9856 142.879 11.1052C138.362 11.4058 138.544 15.5768 138.289 19.1412C138.062 20.4984 137.537 22.2682 137.239 23.625C136.983 24.7886 136.929 26.6406 136.929 26.6406Z" fill="#FDD406"/>
<path d="M137.118 26.7313C137.13 26.704 138.437 23.9995 139.843 22.9175C140.819 22.1668 142.328 21.7761 143.788 21.3982C145.522 20.9496 147.314 20.4857 148.363 19.4035C150.329 17.407 148.945 14.8958 148.424 13.9505C148.361 13.8362 148.29 13.7081 148.269 13.6552L148.408 11.8592L148.184 11.8564C148.169 11.8563 146.668 11.8366 146.049 11.7377C145.731 11.6867 145.482 11.5568 145.194 11.4064C144.664 11.1299 144.064 10.8164 142.865 10.896C138.56 11.1825 138.337 14.9003 138.14 18.1804C138.121 18.4983 138.102 18.8147 138.08 19.1263C137.945 19.9307 137.695 20.9129 137.453 21.8628C137.297 22.4745 137.15 23.0522 137.034 23.58C136.777 24.7493 136.721 26.5582 136.719 26.6347L137.118 26.7313ZM147.955 12.2717L147.849 13.6512C147.84 13.7605 147.899 13.8674 148.056 14.1528C148.581 15.1053 149.811 17.3356 148.063 19.1105C147.095 20.1094 145.361 20.5583 143.683 20.9924C142.182 21.3808 140.631 21.7823 139.587 22.5853C138.608 23.3395 137.705 24.7743 137.188 25.6964C137.232 25.0788 137.31 24.2791 137.444 23.67C137.558 23.1489 137.704 22.5744 137.859 21.9661C138.103 21.0079 138.355 20.0171 138.496 19.1758C138.52 18.843 138.54 18.525 138.559 18.2055C138.754 14.9464 138.956 11.5763 142.892 11.3144C143.974 11.2424 144.495 11.5146 145 11.778C145.307 11.9384 145.597 12.0899 145.983 12.1516C146.489 12.2325 147.504 12.2622 147.955 12.2717Z" fill="black"/>
</g>
<defs>
<clipPath id="clip0_909_225359">
<rect width="160" height="120" fill="white"/>
</clipPath>
</defs>
</svg>
