<svg width="160" height="120" viewBox="0 0 160 120" fill="none" xmlns="http://www.w3.org/2000/svg">
<path d="M0 0H160V120H0V0Z" fill="#FDD406"/>
<path d="M7.5 7.5H49V112.5H7.5V7.5Z" fill="#FF7E3D"/>
<path d="M7.5 7.5H28.5V112.5H7.5V7.5Z" fill="#005801"/>
<path d="M57 8H153V113H57V8Z" fill="#8A1538"/>
<path d="M86.0715 91.5017L86.8072 91.0872L87.122 91.5025C87.5414 92.0558 88.7017 92.0495 89.4715 91.4898L90.0601 91.0618L90.5531 91.4898C91.2012 92.0525 92.4117 92.0531 93.1845 91.4918C93.7256 91.0985 93.801 91.0906 94.1588 91.3898C94.3721 91.5682 94.9976 91.7712 95.549 91.841C96.5419 91.9669 96.5569 91.9599 97.1378 91.1096C97.6244 90.3975 97.7003 90.1092 97.5844 89.4186C97.4979 88.8756 97.4365 88.3292 97.4003 87.7809C97.3562 86.9791 97.361 86.974 98.5581 86.5673C99.2191 86.3427 99.9844 86.0415 100.259 85.8979C100.737 85.6476 102.055 84.1361 102.055 83.8382C102.055 83.7593 101.54 83.6383 100.911 83.5694C98.4072 83.2954 97.9832 81.9838 99.6107 79.5476C102.265 75.5744 103.866 71.7052 103.877 69.2403C103.882 68.1385 103.946 67.7687 104.091 68.0083C104.684 68.9874 103.622 73.0928 102.013 76.041L101.365 77.2281L101.983 77.0893C102.323 77.0129 104.322 76.1898 106.426 75.2603C112.183 72.7159 114.161 72.2173 117.887 72.3704C121.009 72.4987 122.339 73.0938 124.543 75.3493C125.71 76.5444 126.835 77.3993 128.893 78.6559C133.277 81.3333 133.46 81.5652 133.668 84.7139C133.879 87.9041 133.774 88.0772 131.301 88.6102C129.187 89.0658 127.862 90.0272 127.507 91.363C127.317 92.0764 127.717 92.097 128.782 91.4286L129.563 90.9388L129.911 91.4286C130.367 92.0724 131.338 92.0751 132.143 91.4345L132.752 90.9507L133.375 91.4345C134.341 92.1862 135.627 92.0039 135.99 91.0636C136.06 90.8828 136.246 90.9408 136.623 91.2604C137.329 91.8593 139.14 92.1164 139.335 91.6454C139.41 91.4658 139.268 91.022 139.02 90.6592C137.967 89.1179 137.637 88.3829 137.624 87.5439C137.604 86.3771 137.961 85.8141 139.322 84.8651C140.974 83.7122 141.485 82.2249 140.228 82.2249C139.452 82.2249 138.67 81.5558 138.171 80.4652C137.157 78.2486 137.356 75.7635 138.878 71.6294C140.424 67.4303 140.595 66.656 140.601 63.8477C140.606 61.577 140.548 61.1843 140.018 59.9394C139.694 59.1782 139.038 58.0448 138.558 57.4209L137.687 56.2863L138.806 55.3822C142.221 52.6218 141.522 48.1041 137.411 46.3633C136.154 45.8308 135.839 45.7838 133.635 45.7982C132.313 45.8069 130.297 45.9767 129.155 46.1754C127.991 46.3781 126.02 46.541 124.668 46.5464C122.521 46.5548 122.156 46.5033 121.328 46.0733C120.466 45.6251 120.318 45.4123 120.149 44.3764C120.114 44.1635 119.961 43.951 119.809 43.9043C119.516 43.814 118.16 44.9618 117.96 45.4703C117.861 45.7213 117.781 45.7038 117.491 45.3694C117.298 45.1472 117.029 44.6367 116.893 44.2351C116.551 43.2248 116.971 42.4674 118.189 41.8999L119.133 41.4596L118.576 41.1225C117.427 40.4267 115.473 40.9026 114.767 42.0504C114.567 42.375 114.349 42.6412 114.282 42.6419C114.215 42.6426 113.836 42.333 113.438 41.9537C111.954 40.5394 112.464 38.4467 114.449 37.8078C115.507 37.4671 116.443 37.7269 116.638 38.4154C116.935 39.4665 117.86 38.0849 117.694 36.8372C117.584 36.0078 117.601 35.979 118.189 35.979C119.007 35.979 120.748 37.0266 121.287 37.8429C121.912 38.7909 121.867 40.2838 121.179 41.3965L120.638 42.2701L121.345 42.1319C122.382 41.9294 123.389 41.3011 123.899 40.5392C124.437 39.7338 124.495 38.1653 124.018 37.3191C123.555 36.4988 123.608 36.3686 124.292 36.6457C125.456 37.1172 126.079 37.637 126.545 38.5281C126.966 39.3305 126.989 39.5299 126.762 40.3652C126.621 40.8804 126.309 41.5584 126.067 41.8717C125.691 42.3597 125.679 42.4413 125.978 42.4413C126.536 42.4413 127.701 41.9262 128.114 41.4966C128.323 41.2796 128.628 40.7451 128.791 40.3088L129.089 39.5158L129.43 40.1203C129.913 40.9751 130.852 41.7444 131.996 42.2231C133.227 42.7379 133.74 42.7671 133.096 42.2854C132.662 41.9607 131.862 39.6707 132.104 39.4468C132.247 39.315 133.918 40.5697 135.826 42.2409C137.631 43.8219 138.765 44.3398 140.423 44.3398C142.541 44.3398 143.774 42.5411 142.822 40.8404C142.267 39.8487 141.031 39.7111 140.308 40.5603C139.976 40.9507 139.885 41.2615 139.982 41.671C140.101 42.1728 140.055 42.2396 139.586 42.2396C138.971 42.2396 137.757 41.4713 135.602 39.7167C132.316 37.0411 128.323 34.7732 125.44 33.9449C123.589 33.4134 119.637 33.2059 117.756 33.5417C115.72 33.9051 113.312 35.0418 112 36.2586C109.676 38.4148 109.639 41.284 111.902 43.8969L112.551 44.6453L112.112 45.3104C111.473 46.278 111.528 47.5804 112.247 48.5396C112.564 48.9622 112.884 49.3077 112.957 49.3073C113.031 49.307 113.112 49.0355 113.137 48.7038C113.2 47.8645 113.57 47.3023 114.203 47.0796C114.774 46.8791 115.143 46.9738 117.756 47.9916C120.505 49.0621 125.026 49.1357 129.834 48.1882C132.191 47.7237 134.97 47.751 136.192 48.2508C138.433 49.1669 138.953 51.5502 137.305 53.3592C136.592 54.1424 135.904 54.4614 133.595 55.0797C131.838 55.5504 131.422 55.5815 127.428 55.5426C124.015 55.5094 122.789 55.5733 121.396 55.8572C119.884 56.1653 118.954 56.1962 114.512 56.087L109.376 55.9607L109.946 56.4208C110.259 56.6739 110.701 56.9853 110.929 57.1128C111.316 57.3296 111.304 57.3588 110.728 57.5671C110.389 57.6895 109.638 57.7897 109.059 57.7997H108.005L107.863 58.6635C107.785 59.144 107.791 59.705 107.877 59.9102C108.002 60.2129 107.955 60.2564 107.628 60.1404C107.407 60.0619 106.79 59.9073 106.257 59.7969C105.724 59.6866 105.007 59.462 104.663 59.2976C104.085 59.0215 104.021 59.0289 103.808 59.3964C103.618 59.7246 101.833 61.0208 101.571 61.0208C101.529 61.0208 101.474 60.7708 101.45 60.4653C101.426 60.1599 101.168 59.3647 100.878 58.6982C100.588 58.0318 100.285 57.3048 100.204 57.0826C100.083 56.7475 100.029 56.7304 99.8827 56.9817C99.786 57.1483 99.6448 57.6027 99.569 57.9915C99.4932 58.3803 99.2242 59.0118 98.9714 59.3948L98.5116 60.0914L98.2185 59.4957C97.9037 58.8563 97.381 58.1934 97.192 58.1934C97.1282 58.1934 97.0193 58.3979 96.9503 58.6477C96.806 59.1695 95.5669 60.6167 95.2643 60.6167C95.1529 60.6167 95.0616 60.2078 95.0616 59.7078C95.0616 59.2079 94.9632 58.799 94.843 58.799C94.7228 58.799 94.6245 58.9283 94.6245 59.0864C94.6245 59.4707 93.5661 60.6165 93.2111 60.6165C93.0562 60.6165 92.8071 60.7528 92.6574 60.9193C92.2672 61.3537 91.948 61.2928 92.1121 60.8153C92.189 60.5913 92.1389 60.0688 92.001 59.654L91.6748 58.673C91.6226 58.5159 91.2434 58.5576 90.4407 58.8087C89.1437 59.2145 88.7089 59.1427 89.3759 58.6329C89.6198 58.4465 89.9908 57.8011 90.2002 57.1984C90.4096 56.5957 90.7188 56.0612 90.8871 56.0103C91.1227 55.939 91.1102 56.0271 90.8324 56.3935C90.6341 56.6552 90.4713 57.008 90.4704 57.1777C90.4696 57.3473 90.3204 57.7496 90.1386 58.0715C89.9568 58.3934 89.8427 58.6887 89.8848 58.7277C89.9268 58.7667 90.4203 58.5836 90.9815 58.3213L91.9555 57.8441V58.2709C92.0081 58.5057 92.131 59.1252 92.279 59.6474L92.548 60.5971L93.2424 60.2857C93.952 59.9674 94.6241 58.8329 94.6241 57.9533C94.6241 57.5184 94.8794 57.5852 94.9839 58.0473C95.0146 58.183 95.1748 58.692 95.34 59.1784L95.6403 60.063L96.1157 59.5045C96.3772 59.1974 96.7051 58.5948 96.8441 58.1655C97.0858 57.4204 97.4651 57.0999 97.4651 57.641C97.4651 58.031 98.5557 59.4295 98.7661 59.3093C98.8679 59.2512 99.0703 58.7264 99.2161 58.143C99.5194 56.9295 100.008 56.1043 100.319 56.2818C100.436 56.3485 100.482 56.4781 100.42 56.5697C100.359 56.6612 100.61 57.4502 100.979 58.3228L101.801 60.2751C101.935 60.5984 102.057 60.5515 102.846 59.8712C103.337 59.4478 103.783 58.9739 103.837 58.8181C103.918 58.5825 104.028 58.591 104.487 58.8693C105.13 59.2583 107.29 59.885 107.456 59.7309C107.519 59.6731 107.583 59.1196 107.599 58.501L107.627 57.3759L108.248 57.5016C108.59 57.5707 109.308 57.5665 109.845 57.492L110.82 57.3568L109.951 56.775C109.473 56.4551 108.989 56.0411 108.877 55.855C108.757 55.6567 108.331 55.4884 107.849 55.4484C106.547 55.3404 104.24 54.0777 104.24 53.473C104.24 53.3596 104.559 53.5526 104.95 53.9018C105.816 54.677 107.021 55.1634 108.072 55.212H108.859L108.372 54.5317C108.092 54.1689 107.842 53.4806 107.783 52.9143C107.689 52.0117 107.591 51.8683 106.625 51.2131C106.045 50.8195 105.327 50.2297 105.028 49.9023L104.486 49.307L104.21 50.0138C104.058 50.4026 103.872 50.7205 103.797 50.7205C103.722 50.7205 103.429 50.4933 103.147 50.2157C102.865 49.938 102.577 49.7118 102.508 49.7131C102.439 49.7144 102.188 50.0884 101.952 50.5442L101.522 51.373L101.19 50.8953C101.007 50.6325 100.576 50.1676 100.231 49.8621C99.886 49.5566 99.7047 49.3067 99.8278 49.3067C99.9508 49.3067 100.376 49.6248 100.773 50.0138L101.495 50.7209L101.789 50.2028C101.963 49.8954 102.029 49.4231 101.95 49.0414C101.834 48.4848 101.851 48.4525 102.069 48.8018C102.208 49.0239 102.631 49.4498 103.008 49.7482L103.693 50.2908L104.166 49.4453C104.637 48.604 104.64 48.6024 104.855 49.1048C105.141 49.7768 107.214 51.4347 108.979 52.4035C109.251 52.5529 109.136 52.0394 108.634 50.8587C108.501 50.546 108.392 49.9823 108.392 49.6061C108.392 49.0478 108.227 48.7993 107.495 48.2561C106.439 47.4717 106.097 46.914 105.898 45.6485C105.818 45.1359 105.633 44.5658 105.487 44.3817C105.272 44.1083 105.236 44.2613 105.294 45.2128C105.333 45.854 105.247 46.6513 105.104 46.9845L104.843 47.5903L104.642 47.0854C104.531 46.8078 104.041 46.3248 103.553 46.0123C103.064 45.6997 102.722 45.3916 102.791 45.3274C102.86 45.2632 103.363 45.548 103.907 45.9604C104.737 46.5884 104.919 46.6565 105.034 46.3798C105.169 46.0547 105.034 44.6405 104.773 43.6523C104.643 43.1588 104.654 43.1615 105.278 43.7703C105.739 44.2191 105.993 44.7547 106.19 45.6887C106.441 46.8755 106.567 47.0731 107.692 48.0366C108.367 48.6152 108.955 49.056 108.998 49.0164C109.041 48.9767 109.126 47.4798 109.187 45.6902C109.304 42.2582 109.172 41.4416 108.325 40.3813L107.889 39.8364L108.574 39.1163C109.466 38.177 109.876 37.424 110.054 36.3967L110.198 35.561L109.426 36.2746C108.794 36.8588 108.492 36.9881 107.76 36.9881C107.035 36.9881 106.751 36.8695 106.263 36.3615C105.676 35.7519 104.637 35.1655 103.638 34.88C103.269 34.7746 103.147 34.8205 103.147 35.0641C103.147 35.2426 102.943 35.7578 102.694 36.2092L102.241 37.0297L101.292 36.1143C100.709 35.5528 100.018 35.1158 99.5044 34.984C98.1911 34.6471 98.1201 34.6805 98.1201 35.6351C98.1201 37.0831 97.4865 37.3528 96.3461 36.3905C95.4768 35.6569 94.7558 35.4973 93.1072 35.674L91.8341 35.8105L92.0631 36.3712C92.2545 36.8397 92.2113 37.0368 91.8014 37.5689C91.1364 38.4318 90.2719 38.8056 88.941 38.8056C88.328 38.8056 87.5609 38.9294 87.2364 39.0806C86.9118 39.2317 86.1053 39.4061 85.4442 39.4679C84.7831 39.5296 84.0785 39.6398 83.8783 39.7127C83.5652 39.8269 83.5308 39.7328 83.6317 39.0379C83.7861 37.9745 83.0248 37.19 81.8382 37.19C80.2986 37.19 79.5886 38.5335 80.1914 40.3059C80.3222 40.6992 80.4348 41.098 80.5288 41.5012C80.6009 41.8294 81.2944 42.7004 82.1438 43.5297C82.9625 44.329 83.7362 45.1606 83.8633 45.3778C83.9904 45.595 84.4103 45.9436 84.7964 46.1524L85.4987 46.5321L85.406 45.799C85.3043 44.9933 85.4842 44.867 85.9235 45.4354C86.0806 45.6386 86.4794 45.9671 86.8101 46.1654C87.3307 46.4778 87.4111 46.484 87.4111 46.2128C87.4111 46.0407 87.5172 45.644 87.647 45.3313L87.8829 44.7629L88.2922 45.5364C88.5174 45.9617 89.2493 46.9286 89.919 47.685C91.2184 49.1525 92.01 50.7925 91.6014 51.1699C91.4356 51.3231 90.9877 51.3112 90.0591 51.1291C89.3393 50.988 88.4492 50.9134 88.0808 50.9633C87.3285 51.0654 87.2693 50.9705 87.7319 50.4054C88.2201 49.8088 88.1425 49.7104 87.1832 49.7104C86.0734 49.7104 83.3181 49.1914 82.2604 48.783C81.2321 48.386 80.9948 48.4848 80.692 49.4366L80.1378 51.1614L79.8311 52.1072L80.9438 52.0027C81.5558 51.9452 82.3429 51.8145 82.693 51.7122C83.043 51.6099 83.3612 51.5556 83.4 51.5913C83.4388 51.6271 83.2827 51.9968 83.0533 52.4127L82.6361 53.1689L83.3298 53.0309C83.7114 52.955 84.2854 52.7692 84.6054 52.6182C85.1623 52.3554 85.207 52.3745 85.6464 53.0623C86.1866 53.9084 86.6187 53.8737 86.7145 52.9764C86.8136 52.049 87.1263 52.1861 87.7147 53.4152C88.2802 54.5971 88.8688 55.0144 88.982 54.3138C89.0195 54.0812 89.3243 53.7026 89.6591 53.4724C90.3366 53.0067 90.8469 53.1465 91.1396 53.8775C91.4425 54.6341 90.7669 55.4142 88.8016 56.5766C84.8646 58.9051 82.5762 62.0897 81.9229 66.1486C81.3337 69.8098 83.174 73.593 86.8662 76.3102C88.6331 77.6106 91.44 78.983 91.2616 78.4593C90.5042 76.2354 90.5291 71.992 91.3038 71.2762C91.4201 71.1688 91.3801 71.6115 91.2149 72.2601C90.5997 74.6762 90.8668 76.6013 92.4439 81.1134C93.8702 85.1943 93.6727 86.9383 91.6542 88.0912C91.0059 88.4613 90.5884 88.5224 88.8453 88.5018C86.9538 88.4794 86.7478 88.5165 86.1405 88.9886C85.5518 89.4464 84.7885 90.9492 84.7885 91.6505C84.7885 92.0304 85.2209 91.9802 86.0706 91.5015L86.0715 91.5017ZM116.826 91.4193L117.619 90.9218L118.157 91.4193C118.863 92.0711 119.689 92.0566 120.367 91.3803C120.663 91.0852 120.929 90.8807 120.958 90.926C121.057 91.0873 121.155 91.2493 121.251 91.4121C121.419 91.6933 121.764 91.8346 122.386 91.8774C123.135 91.929 123.337 91.8583 123.634 91.4383L123.989 90.9375L124.771 91.4272C126.909 92.7682 128.048 91.3614 127.093 88.5601C126.607 87.1359 126.874 86.3351 128.44 84.5222C129.1 83.7578 129.641 82.9419 129.642 82.709C129.642 82.3378 129.52 82.2881 128.641 82.3051C127.8 82.3214 127.554 82.2333 127.111 81.7579C126.391 80.9844 126.434 80.0988 127.239 79.1159L127.882 78.3307L126.741 77.5754C126.113 77.1599 124.982 76.177 124.226 75.391C122.529 73.6259 120.861 72.7889 118.661 72.599L117.186 72.4717L117.188 73.5612C117.191 74.9637 117.865 76.3128 119.707 78.5981C121.8 81.1965 121.946 81.5988 122.031 84.995L122.103 87.8672L121.497 88.4281C120.95 88.9348 120.703 88.9995 118.936 89.0989C117.255 89.1936 116.901 89.2783 116.408 89.7048C115.752 90.2712 115.556 90.5795 115.354 91.3618C115.236 91.8178 115.284 91.9173 115.621 91.9173C115.847 91.9173 116.389 91.6933 116.825 91.4198L116.826 91.4193ZM72.1133 83.1102C72.1133 82.7471 72.2795 82.6501 73.0974 82.5368L74.0815 82.4004L73.4252 81.8901C72.6454 81.2838 72.5732 80.8102 73.2606 80.809C73.9451 80.809 75.1044 80.1154 75.2807 79.6023C75.3625 79.3639 75.311 79.0452 75.1642 78.8815C74.7804 78.4542 74.0589 78.5188 73.9249 78.9922C73.7809 79.5012 73.5398 79.5025 72.9929 78.9973C72.1705 78.2374 72.1519 76.6641 72.9548 75.748C73.3332 75.3162 73.3298 75.2879 72.8474 74.8423C72.3286 74.3628 71.958 73.4138 72.2017 73.1885C72.2794 73.1169 72.6893 73.174 73.1128 73.3155C73.7146 73.5165 73.9521 73.5197 74.2 73.3295C74.951 72.7536 74.1374 72.0131 72.933 72.1764C72.4483 72.2421 72.2481 72.1764 72.1784 71.9311C72.1258 71.745 71.7018 71.5021 71.2242 71.3844C70.3707 71.1739 70.3646 71.1764 70.3646 71.7501C70.3646 72.3788 69.9969 72.4974 69.2978 72.0941C68.7299 71.7664 68.179 72.0208 68.179 72.6108C68.179 73.1613 68.7464 73.4329 69.7634 73.369C70.5435 73.3199 70.5725 73.8859 69.8316 74.6995L69.2988 75.2846L69.7209 75.8763C70.346 76.7525 70.2934 78.2077 69.6105 78.9304L69.0752 79.4971L68.724 79.0428C68.2359 78.4112 67.5682 78.4536 67.3853 79.1276C67.2654 79.5689 67.3645 79.7706 67.9309 80.2383C68.3115 80.5526 68.8672 80.8097 69.166 80.8097C69.9049 80.8097 69.876 81.3766 69.1079 81.9495L68.5069 82.3978L69.4357 82.5384C69.9466 82.6158 70.3644 82.7612 70.3644 82.8617C70.3644 83.2468 70.6051 84.4157 71.2151 84.445C71.7597 84.471 72.1001 83.6628 72.1128 83.1106L72.1133 83.1102ZM83.8673 78.8812C84.7112 78.5566 86.5375 77.0478 86.5375 76.6749C86.5375 76.5577 86.0334 76.0168 85.4173 75.4728C84.1208 74.3282 82.7104 72.4006 82.345 71.2735C82.1544 70.6858 81.2338 69.6799 78.6402 67.2257L75.1892 63.96L74.1946 64.2058C73.6476 64.341 72.9801 64.455 72.7114 64.4589C72.2483 64.4659 72.2567 64.4917 72.8724 64.9567L73.522 65.4473L74.4327 64.9541C75.3154 64.4761 75.347 64.4731 75.4558 64.8578C75.5196 65.083 75.3821 65.4733 75.138 65.76C74.9014 66.038 74.7667 66.3532 74.8384 66.4607C74.9102 66.5682 74.683 66.7927 74.3333 66.9598C73.6852 67.2694 73.2354 68.2889 73.7468 68.2889C74.2069 68.2889 75.2214 67.0675 75.1046 66.6544C75.0447 66.4427 75.0737 66.2252 75.1689 66.1709C75.564 65.9453 75.5394 66.9042 75.1378 67.3758C74.9012 67.6537 74.7665 67.9689 74.8383 68.0765C74.91 68.184 74.6828 68.4084 74.3331 68.5756C73.6893 68.8832 73.2349 69.9046 73.7419 69.9046C74.2388 69.9046 75.2367 68.7376 75.113 68.3009C75.0484 68.0725 75.0734 67.841 75.1687 67.7866C75.4349 67.6346 75.5785 68.3916 75.3537 68.7625C75.2334 68.9612 75.2344 69.2325 75.3566 69.4475C75.5777 69.8371 75.3535 70.5856 74.9461 70.8181C74.7716 70.9177 74.8898 71.1135 75.3132 71.4254C75.926 71.8769 75.9378 71.9243 75.9378 73.9169C75.9378 75.582 76.0067 76.0118 76.3203 76.3016C76.6722 76.6269 76.7027 76.6282 76.7027 76.3161C76.7027 75.9754 77.3157 75.559 77.8171 75.559C77.965 75.559 78.8892 76.3231 79.8706 77.2571C80.8581 78.1967 81.8913 78.9962 82.184 79.0471L82.8837 79.1666C82.9777 79.1818 83.4202 79.0535 83.8672 78.8816L83.8673 78.8812ZM73.3156 70.9C73.3156 70.3632 72.1808 69.7903 70.8233 69.6416C69.7275 69.5217 69.7094 69.5284 69.7094 70.0626C69.7094 70.5048 69.8818 70.6787 70.6382 71.0001C71.8537 71.5165 73.3155 71.4619 73.3155 70.9H73.3156ZM74.5595 70.7761C75.1131 70.286 75.3753 69.7031 75.0424 69.7031C74.6594 69.7031 73.6427 70.5931 73.6427 70.9286C73.6427 71.452 73.8316 71.4206 74.5595 70.7761ZM73.3563 69.1886C73.4033 68.8858 73.2112 68.6836 72.6357 68.43C71.3942 67.883 69.91 67.6295 69.5525 67.9037C68.8941 68.4086 69.3328 69.0865 70.3969 69.2084C70.8252 69.2575 71.4062 69.3849 71.6877 69.4916C72.5055 69.8015 73.2833 69.6603 73.3563 69.1885V69.1886ZM73.3798 67.5666C73.4466 67.1345 73.1634 66.9799 70.8519 66.1862C69.1262 65.5935 68.3621 65.873 68.9137 66.8953C69.1057 67.2513 69.4283 67.414 70.1515 67.5197C70.6893 67.5982 71.4245 67.7519 71.785 67.8612C72.7484 68.153 73.305 68.0503 73.3798 67.5668L73.3798 67.5666ZM74.5375 66.0467C74.8864 65.7017 75.1716 65.2946 75.1716 65.142C75.1716 64.647 73.7943 65.5227 73.6186 66.1294C73.4079 66.8571 73.7494 66.8263 74.5375 66.0467ZM73.3798 65.9446C73.4559 65.4524 72.6169 65.0079 70.9673 64.6664C69.757 64.4158 69.2232 64.5579 69.3138 65.1068C69.3633 65.4063 69.7663 65.6251 70.9099 65.9734C72.7399 66.5307 73.2903 66.5243 73.3798 65.9448L73.3798 65.9446ZM74.9932 63.654C77.1071 62.736 77.2899 60.4207 75.2967 59.8129C74.469 59.5604 73.9408 59.6965 73.624 60.2435C73.3814 60.6623 73.5436 61.4239 73.8754 61.4239C73.9875 61.4239 74.0793 61.5648 74.0793 61.7371C74.0793 62.541 70.8519 62.9053 69.5283 62.2507C69.0634 62.0208 68.8608 61.4239 69.2478 61.4239C69.537 61.4239 69.7369 60.8157 69.5893 60.3855C69.3879 59.7994 68.7825 59.5963 67.9044 59.8203C65.923 60.3258 65.9787 62.5975 67.9961 63.5615C69.6502 64.3519 73.2765 64.4 74.9934 63.6542L74.9932 63.654ZM73.6785 61.8739C73.8008 61.7608 73.7477 61.5869 73.5425 61.4296C73.093 61.085 73.117 60.5724 73.61 59.9856C73.9801 59.545 74.0263 58.8856 74.1538 52.2339C74.3733 40.7709 75.2469 32.1489 76.3984 30.0806C76.8568 29.2571 76.7925 29.2538 75.6079 30.0402C74.0819 31.0533 72.92 32.3725 71.8905 34.2609C69.9469 37.8262 69.2715 42.623 69.2715 52.8623C69.2715 58.676 69.3122 59.4366 69.6514 59.9832C69.9737 60.5022 69.9909 60.694 69.7644 61.2483C69.6176 61.6076 69.5511 61.9512 69.6164 62.0116C70.0504 62.4126 73.2117 62.3062 73.6783 61.8749L73.6785 61.8739ZM91.4385 51.007C91.5047 50.908 91.3584 50.4082 91.1135 49.8963C90.7314 49.0981 90.5776 48.9655 90.0333 48.9655C88.3284 48.9655 85.5876 48.2222 82.762 46.9934C81.1303 46.2839 80.5668 46.1208 80.3712 46.3016C79.872 46.7629 80.7016 47.858 81.9867 48.4335C83.1266 48.9441 86.3132 49.5715 87.7668 49.5715C88.6102 49.5715 88.6301 49.6086 88.1501 50.2854L87.7972 50.7832L88.7511 50.8071C89.2758 50.8202 90.0001 50.9003 90.3607 50.9851C91.2972 51.2052 91.306 51.2054 91.4388 51.007H91.4385Z" fill="#FDD406"/>
<path d="M126.217 92.39C125.785 92.3902 125.228 92.245 124.531 91.8081L124.11 91.5441L124.001 91.6984C123.57 92.3066 123.162 92.3813 122.354 92.326C121.829 92.2899 121.185 92.1795 120.864 91.6421C120.85 91.6174 120.835 91.5926 120.82 91.5678C120.779 91.6066 120.733 91.6502 120.684 91.6987C119.841 92.5399 118.729 92.5596 117.852 91.7495L117.566 91.4855L117.064 91.8007C116.629 92.0735 115.991 92.3669 115.621 92.3669C115.487 92.3669 115.174 92.3669 114.977 92.1128C114.782 91.8603 114.841 91.5477 114.918 91.2492C115.144 90.3777 115.39 89.9902 116.114 89.3646C116.735 88.8272 117.229 88.7447 118.911 88.6501C120.704 88.549 120.779 88.4802 121.192 88.0981L121.648 87.6753L121.581 85.0062C121.499 81.6967 121.395 81.4104 119.356 78.8803C117.451 76.5152 116.741 75.0738 116.738 73.5621L116.736 72.7948C113.755 72.7969 111.698 73.4217 106.607 75.6716C104.733 76.4995 102.51 77.4315 102.081 77.5279L101.292 77.7051C100.891 78.3948 100.454 79.0945 99.9841 79.7973C99.2186 80.9434 98.9389 81.8168 99.1753 82.3234C99.3721 82.7456 99.9724 83.0144 100.959 83.1225C102.265 83.2654 102.504 83.4756 102.504 83.8383C102.504 84.4399 100.925 86.0564 100.467 86.2963C100.17 86.4517 99.3948 86.7578 98.7024 86.993C98.3046 87.1282 97.9282 87.2561 97.8448 87.3303C97.829 87.3945 97.8399 87.5943 97.8488 87.7563C97.884 88.2853 97.9443 88.8224 98.028 89.3479C98.1638 90.157 98.0621 90.5533 97.5087 91.3632C96.8365 92.3474 96.6479 92.4331 95.4921 92.2872C94.9289 92.2158 94.191 92.003 93.8702 91.7349C93.8175 91.6908 93.7819 91.6632 93.7582 91.6459C93.6701 91.6944 93.514 91.8078 93.4485 91.8555C92.4994 92.5448 91.0682 92.5328 90.2581 91.8295L90.0349 91.6358L89.7355 91.8535C88.7531 92.5678 87.3362 92.5301 86.7633 91.774L86.6856 91.6715L86.1538 91.9713L86.1505 91.9708C85.4219 92.3633 84.9849 92.4451 84.6618 92.2562C84.4563 92.1362 84.3384 91.9154 84.3384 91.6505C84.3384 90.8123 85.1654 89.1772 85.864 88.6337C86.5972 88.0638 86.9221 88.0303 88.8504 88.0521C90.598 88.0736 90.8996 88.0041 91.4308 87.7007C93.0003 86.8044 93.5221 85.5625 92.0191 81.2616C91.7304 80.4357 91.4847 79.6947 91.2797 79.0203C91.0315 79.0599 90.5441 78.9574 89.3562 78.3534C88.5297 77.933 87.6495 77.4078 86.9304 76.9087C86.6027 77.6628 84.9321 78.8573 84.1982 79.2243L84.1909 79.2387L84.0282 79.3012C83.4134 79.5377 83.0037 79.6422 82.8118 79.6105L82.1078 79.4903C81.4511 79.3761 79.6373 77.6561 79.5604 77.5828C78.6739 76.7393 77.9744 76.165 77.7365 76.0143C77.4805 76.0492 77.208 76.2369 77.152 76.3427C77.1512 76.5237 77.1369 76.8272 76.8407 76.9568C76.5189 77.0978 76.274 76.8713 76.0148 76.6319C75.5571 76.2087 75.4879 75.643 75.4879 73.9169C75.4879 72.7142 75.3406 72.0043 75.0461 71.7873C74.8658 71.6545 74.6934 71.5128 74.575 71.3549C74.1962 71.6641 73.8799 71.8357 73.5612 71.6929C73.4871 71.6596 73.4279 71.6152 73.3806 71.5645C73.2859 71.6253 73.1736 71.6746 73.0472 71.7123C73.9048 71.6477 74.6407 71.9641 74.87 72.5151C75.0414 72.9266 74.8931 73.3644 74.4733 73.6863C74.0048 74.0456 73.515 73.9241 72.97 73.742C72.8373 73.6976 72.7162 73.666 72.6152 73.6444C72.6963 73.8987 72.8897 74.2695 73.1522 74.5121C73.7671 75.0801 73.8736 75.3811 73.2927 76.0443C72.6528 76.7743 72.6554 78.0734 73.2977 78.6671C73.3832 78.7461 73.4498 78.8015 73.5008 78.8402C73.6063 78.5084 73.8823 78.2618 74.245 78.1776C74.692 78.0737 75.1848 78.2321 75.4983 78.5812C75.7532 78.865 75.8403 79.3559 75.7055 79.7482C75.461 80.4602 74.2011 81.1828 73.3851 81.2531C73.4568 81.3297 73.5588 81.4246 73.7008 81.5352L75.1981 82.6993L73.1587 82.9822C72.8005 83.0318 72.6359 83.0716 72.5627 83.1V83.3349L72.5435 83.3493C72.4865 83.7776 72.2978 84.2802 71.9585 84.5964C71.7354 84.8042 71.4708 84.9077 71.1935 84.8941C70.3456 84.8534 70.0056 83.7465 69.931 83.1117C69.8134 83.0721 69.6218 83.0214 69.368 82.983L67.3746 82.6812L68.8387 81.5892C69.0177 81.4557 69.1247 81.3412 69.1852 81.2596C69.1789 81.2594 69.1724 81.2594 69.1656 81.2594C68.703 81.2594 68.0501 80.9201 67.6442 80.585C67.024 80.0728 66.7619 79.7065 66.951 79.01C67.0751 78.5523 67.377 78.2441 67.7788 78.1642C68.2314 78.0732 68.7177 78.2999 69.0794 78.7679L69.1089 78.8063L69.2835 78.6216C69.8233 78.0502 69.8577 76.8429 69.3545 76.1374L68.7217 75.2502L69.4987 74.3968C69.7638 74.1058 69.8615 73.9161 69.8975 73.8169C69.8702 73.8153 69.8353 73.815 69.7913 73.8177C68.9924 73.8679 68.412 73.7289 68.0664 73.4043C67.8457 73.1971 67.729 72.9228 67.729 72.6108C67.729 72.1884 67.92 71.8358 68.2531 71.6435C68.6168 71.4334 69.0914 71.456 69.5221 71.7046C69.7203 71.8189 69.8418 71.8586 69.9064 71.872C69.9108 71.844 69.9146 71.8044 69.9146 71.7501C69.9146 71.5405 69.9146 71.3492 69.9784 71.187C69.5404 70.9476 69.2595 70.6483 69.2595 70.0626C69.2595 69.8333 69.2595 69.5765 69.4253 69.3772C69.1167 69.2023 68.9063 68.9591 68.8256 68.6677C68.7304 68.3235 68.8349 67.9772 69.1135 67.6926C68.8645 67.563 68.6636 67.3795 68.5176 67.1088C68.1439 66.4161 68.2932 66.0023 68.4843 65.7769C68.6062 65.6332 68.771 65.534 68.9798 65.4793C68.9243 65.3885 68.888 65.2896 68.8698 65.1799C68.8025 64.7729 68.9595 64.523 69.1031 64.3851C69.1036 64.3848 69.1041 64.3843 69.1045 64.3838C68.608 64.2785 68.1624 64.1393 67.802 63.967C66.6087 63.397 65.9054 62.339 66.0103 61.2718C66.1006 60.3518 66.767 59.6464 67.7928 59.3846C68.2344 59.2722 68.6316 59.2551 68.9676 59.3265C68.8397 58.4736 68.8215 56.8218 68.8215 52.8623C68.8215 42.5909 69.5212 37.667 71.4954 34.0458C72.5533 32.105 73.781 30.7131 75.359 29.6657C76.2763 29.0565 76.6198 28.8282 76.9541 29.1373C77.2733 29.4326 77.0605 29.8151 76.7909 30.2993C75.6788 32.2967 74.8199 40.91 74.6029 52.2425C74.5216 56.4907 74.4741 58.3363 74.3411 59.2581C74.6565 59.2168 75.0193 59.2584 75.4276 59.3829C76.4447 59.6931 77.0836 60.4323 77.1363 61.3604C77.19 62.3026 76.6303 63.2181 75.6776 63.8036L78.949 66.8992C80.1533 68.0389 80.9989 68.8676 81.586 69.4964C81.3366 68.367 81.2954 67.216 81.4786 66.0773C82.1505 61.9029 84.5371 58.5762 88.5724 56.1896C90.7524 54.9002 90.8433 54.3478 90.7218 54.0446C90.6353 53.8282 90.5313 53.6921 90.4293 53.6612C90.3183 53.628 90.1302 53.6939 89.9133 53.8429C89.6394 54.0313 89.4467 54.3032 89.4246 54.3902C89.3319 54.9637 88.9734 55.0764 88.8235 55.0979C88.3241 55.1704 87.8157 54.6689 87.3087 53.6094C87.2406 53.4672 87.1806 53.3491 87.1278 53.2509C87.0337 53.7399 86.8178 54.0271 86.4842 54.1054C85.8705 54.2498 85.4164 53.5382 85.2671 53.3043C85.1994 53.1984 85.0842 53.0181 85.0119 52.9295C84.9438 52.9555 84.8462 53.0016 84.7969 53.0249C84.4427 53.192 83.8365 53.3884 83.4172 53.4719L81.7751 53.7985L82.6592 52.1956C82.6613 52.1918 82.6633 52.1881 82.6654 52.1844C82.2484 52.2859 81.5558 52.3968 80.9855 52.4503L79.1924 52.6189L80.2637 49.299C80.3886 48.906 80.5384 48.5073 80.8565 48.2849C80.2719 47.8407 79.8676 47.3058 79.7889 46.826C79.734 46.4906 79.8324 46.187 80.0657 45.9714C80.475 45.5928 81.0784 45.7711 82.941 46.5812C85.6814 47.7729 88.395 48.5138 90.0261 48.5159C89.8901 48.3421 89.7423 48.164 89.5821 47.983C88.9221 47.2376 88.2279 46.3256 87.9441 45.836C87.8899 46.0164 87.8609 46.1636 87.8604 46.213C87.8604 46.3164 87.8604 46.6315 87.5808 46.7898C87.2702 46.9655 86.9649 46.7829 86.5784 46.5509C86.3721 46.4272 86.1099 46.2372 85.8896 46.0424L86.0542 47.3437L84.5821 46.5479C84.1783 46.3295 83.6683 45.9355 83.4748 45.605C83.3845 45.4554 82.7146 44.7158 81.8294 43.8513C81.6673 43.693 80.2403 42.2847 80.0893 41.5979C80.0001 41.2156 79.8905 40.8268 79.7645 40.4477C79.387 39.3384 79.4581 38.3357 79.9654 37.6272C80.3751 37.0553 81.04 36.7404 81.8378 36.7404C82.582 36.7404 83.2199 37.0041 83.6343 37.4829C84.0082 37.9151 84.1652 38.4903 84.0763 39.1026C84.0709 39.1392 84.0662 39.1731 84.062 39.2043C84.4255 39.1315 84.9527 39.0622 85.402 39.0202C86.0646 38.9583 86.8003 38.7875 87.0462 38.673C87.4883 38.4671 88.3522 38.356 88.9407 38.356C90.1384 38.356 90.864 38.0484 91.4449 37.2944C91.7778 36.8625 91.7653 36.8321 91.6466 36.5414L91.1915 35.4272L93.059 35.227C94.8308 35.0369 95.6662 35.2287 96.6358 36.0469C97.1661 36.4945 97.4331 36.5265 97.4852 36.5026C97.5332 36.4803 97.6701 36.2731 97.6701 35.6352C97.6701 35.181 97.6701 34.7519 97.9955 34.4995C98.3508 34.2237 98.8269 34.3462 99.6158 34.5486C100.203 34.6992 100.965 35.1752 101.603 35.7908L102.13 36.2989L102.3 35.9919C102.544 35.5489 102.686 35.1497 102.697 35.0507C102.697 34.8159 102.78 34.6271 102.945 34.5031C103.223 34.2936 103.587 34.3979 103.762 34.4476C104.837 34.7551 105.946 35.384 106.587 36.0499C106.991 36.47 107.155 36.5385 107.759 36.5385C108.377 36.5385 108.568 36.4552 109.121 35.9444L110.867 34.3304L110.496 36.4735C110.303 37.5923 109.855 38.4201 108.899 39.426L108.485 39.862L108.676 40.1007C109.65 41.3209 109.751 42.3325 109.636 45.7056C109.519 49.1472 109.46 49.2016 109.302 49.3468C109.152 49.4853 108.997 49.4968 108.836 49.4423C108.84 49.4948 108.841 49.5494 108.841 49.6061C108.841 49.9217 108.938 50.4248 109.047 50.6828C109.628 52.0483 109.7 52.4731 109.395 52.7485C109.263 52.8679 109.028 52.9435 108.762 52.7977C108.572 52.6932 108.374 52.5786 108.174 52.4563C108.196 52.5794 108.214 52.7154 108.23 52.8678C108.28 53.3495 108.498 53.9597 108.728 54.2573L109.629 55.5172L114.523 55.6375C118.943 55.7463 119.83 55.7174 121.306 55.4166C122.732 55.1259 123.991 55.0593 127.432 55.0931C131.377 55.1316 131.773 55.1021 133.478 54.6454C135.83 54.0157 136.363 53.726 136.973 53.0565C137.664 52.2976 137.952 51.3837 137.764 50.549C137.576 49.7179 136.957 49.0495 136.022 48.667C134.893 48.2056 132.156 48.1886 129.92 48.6293C125.029 49.5935 120.42 49.5118 117.593 48.4106C115.053 47.4216 114.754 47.3627 114.352 47.5039C113.893 47.6653 113.635 48.0804 113.585 48.7377C113.566 48.989 113.508 49.754 112.959 49.757C112.806 49.76 112.598 49.7584 111.887 48.8093C111.052 47.6965 110.992 46.1908 111.736 45.0629L111.987 44.6821L111.562 44.1913C109.151 41.4074 109.201 38.2415 111.694 35.929C113.079 34.6443 115.539 33.4806 117.676 33.099C119.609 32.7543 123.663 32.9669 125.563 33.5129C128.502 34.3571 132.554 36.6553 135.886 39.3681C137.809 40.934 139.04 41.7478 139.547 41.7884C139.546 41.784 139.545 41.7795 139.544 41.7749C139.412 41.2209 139.538 40.7705 139.965 40.2688C140.402 39.7565 141.016 39.4988 141.652 39.5605C142.303 39.6242 142.873 40.0106 143.214 40.6208C143.716 41.5166 143.727 42.5021 143.245 43.3245C142.707 44.2418 141.652 44.7895 140.423 44.7895C138.651 44.7895 137.416 44.2318 135.53 42.5792C134.267 41.473 133.236 40.6615 132.623 40.2282C132.81 40.8736 133.176 41.7576 133.369 41.9288C133.539 42.0555 134 42.401 133.76 42.8215C133.538 43.2093 133.085 43.1663 131.822 42.6379C130.683 42.1616 129.733 41.4143 129.174 40.5639C129.005 40.9821 128.705 41.5305 128.438 41.8085C127.941 42.3245 126.653 42.8909 125.978 42.8909C125.865 42.8909 125.521 42.8909 125.371 42.5863C125.206 42.2523 125.44 41.9488 125.711 41.5974C125.916 41.3314 126.204 40.7005 126.327 40.2469C126.525 39.5233 126.515 39.4387 126.147 38.7368C125.78 38.0367 125.308 37.6007 124.469 37.2118C124.962 38.2178 124.879 39.8822 124.272 40.7892C123.698 41.6479 122.583 42.3483 121.431 42.5732L119.714 42.9087L120.796 41.1599C121.386 40.2055 121.436 38.8859 120.911 38.0905C120.427 37.357 118.806 36.4285 118.189 36.4285C118.166 36.4285 118.133 36.4285 118.098 36.429C118.108 36.54 118.127 36.679 118.14 36.7781C118.269 37.7539 117.809 39.0738 117.087 39.2232C116.978 39.2453 116.426 39.3181 116.205 38.5378C116.169 38.4098 116.083 38.311 115.943 38.2359C115.624 38.065 115.117 38.065 114.586 38.2358C113.782 38.4949 113.23 39.036 113.074 39.7204C112.922 40.3805 113.168 41.076 113.747 41.6284C113.937 41.8089 114.1 41.9528 114.223 42.0553C114.271 41.9893 114.325 41.9089 114.383 41.8147C115.218 40.4594 117.451 39.916 118.809 40.7379L120.086 41.5112L118.378 42.3074C117.112 42.8975 117.132 43.5401 117.319 44.0909C117.426 44.4055 117.61 44.7624 117.749 44.967C118.24 44.3167 119.386 43.3043 119.941 43.4745C120.298 43.5843 120.538 43.9749 120.592 44.304C120.739 45.2029 120.8 45.2925 121.535 45.6743C122.251 46.0461 122.52 46.105 124.666 46.0969C125.997 46.0915 127.935 45.9315 129.078 45.7325C130.243 45.5297 132.286 45.3575 133.632 45.3486C135.894 45.3333 136.265 45.39 137.586 45.9493C139.722 46.8536 141.106 48.509 141.385 50.4911C141.656 52.4224 140.819 54.3326 139.088 55.732L138.311 56.3603L138.915 57.1471C139.414 57.7975 140.095 58.9713 140.431 59.7634C140.986 61.0674 141.056 61.5256 141.05 63.8487C141.044 66.7181 140.864 67.534 139.299 71.7847C137.822 75.7989 137.62 78.1802 138.58 80.2783C138.996 81.1877 139.643 81.7752 140.228 81.7752C141.031 81.7752 141.267 82.2516 141.332 82.4563C141.572 83.2188 140.867 84.335 139.578 85.2338C138.263 86.1516 138.057 86.5924 138.073 87.5366C138.085 88.2748 138.393 88.9451 139.391 90.4056C139.61 90.7251 139.931 91.3822 139.75 91.8178C139.683 91.9792 139.521 92.1916 139.129 92.2864C138.427 92.4566 137.023 92.1893 136.332 91.6033C136.302 91.5785 136.276 91.5567 136.252 91.5374C136.023 91.8958 135.671 92.1528 135.231 92.2749C134.535 92.4679 133.738 92.2865 133.098 91.7893L132.755 91.5226L132.423 91.7865C131.872 92.224 131.221 92.4274 130.637 92.3445C130.186 92.2804 129.798 92.0476 129.543 91.6887L129.442 91.5455L129.021 91.8096C128.269 92.2812 127.685 92.5345 127.279 92.2355C127.228 92.1979 127.184 92.155 127.148 92.1067C126.949 92.2483 126.644 92.39 126.217 92.39ZM123.868 90.3311L125.009 91.0462C125.73 91.4979 126.326 91.6123 126.647 91.359C126.983 91.0928 127.19 90.2382 126.667 88.7052C126.125 87.1192 126.433 86.1568 128.099 84.2284C128.662 83.5766 129.036 83.0051 129.157 82.7584C128.991 82.7478 128.748 82.7529 128.649 82.7546C127.75 82.7741 127.35 82.6749 126.782 82.0643C126.277 81.5224 125.621 80.3817 126.89 78.831L127.218 78.4308L126.492 77.9504C125.84 77.5186 124.678 76.5103 123.902 75.7027C122.285 74.0211 120.706 73.2268 118.622 73.0469L117.636 72.9619L117.637 73.5602C117.64 74.8414 118.295 76.1304 120.056 78.3162C122.212 80.9914 122.393 81.4898 122.48 84.9838L122.557 88.0591L121.802 88.758C121.131 89.379 120.758 89.4468 118.961 89.5478C117.315 89.6406 117.078 89.7192 116.702 90.0449C116.129 90.5397 115.976 90.7679 115.803 91.4204C115.988 91.3569 116.275 91.2312 116.565 91.0519L117.671 90.3584L118.462 91.089C118.992 91.5783 119.541 91.569 120.049 91.0619C120.676 90.438 120.86 90.4584 120.996 90.4731L121.21 90.4966L121.337 90.6844C121.441 90.854 121.54 91.018 121.637 91.1827C121.717 91.3157 121.979 91.3989 122.416 91.4289C123.059 91.473 123.086 91.4338 123.267 91.1781L123.868 90.3311ZM86.9282 90.5028L87.4801 91.231C87.7255 91.5548 88.607 91.5622 89.2067 91.1262L90.0845 90.4879L90.8475 91.1503C91.3341 91.5728 92.3221 91.5622 92.9199 91.128C93.5246 90.6885 93.852 90.5473 94.447 91.0451C94.544 91.1262 95.0412 91.3236 95.6052 91.3951C95.9364 91.437 96.2227 91.4731 96.3095 91.433C96.4007 91.391 96.5702 91.1431 96.7662 90.8559C97.2088 90.2084 97.231 90.0318 97.1407 89.493C97.0519 88.9369 96.9884 88.3721 96.9513 87.8106C96.89 86.6983 97.1544 86.5692 98.4131 86.1417C99.1123 85.904 99.8238 85.6178 100.05 85.4996C100.328 85.3537 101.039 84.5806 101.403 84.094C101.259 84.0674 101.077 84.04 100.861 84.0164C99.522 83.8699 98.704 83.4404 98.3603 82.7036C97.9732 81.8738 98.2599 80.7598 99.2364 79.2979C101.85 75.3851 103.417 71.6245 103.427 69.2385C103.432 68.0482 103.471 67.6216 103.887 67.5063C104.063 67.4577 104.31 67.5029 104.475 67.7753C105.234 69.0278 103.986 73.3628 102.407 76.2564L102.262 76.5215C102.965 76.2572 104.489 75.6245 106.244 74.849C112.045 72.2853 114.115 71.7651 117.905 71.9213C121.146 72.0544 122.577 72.6946 124.864 75.0351C125.997 76.1953 127.113 77.0424 129.127 78.2724C133.481 80.9315 133.891 81.2752 134.116 84.6842C134.335 87.9893 134.198 88.4459 131.396 89.0497C130.071 89.3351 128.421 89.9684 127.974 91.3675C128.104 91.3067 128.288 91.208 128.543 91.0477L129.684 90.3322L130.277 91.1685C130.39 91.3283 130.554 91.4245 130.763 91.4542C131.104 91.5027 131.505 91.367 131.863 91.0824L132.749 90.3788L133.65 91.0796C134.06 91.3978 134.573 91.5242 134.99 91.4084C135.187 91.3539 135.447 91.2217 135.57 90.9017C135.644 90.71 135.787 90.5783 135.973 90.5307C136.282 90.4527 136.572 90.6283 136.913 90.9174C137.4 91.3302 138.503 91.5062 138.889 91.4236C138.859 91.3049 138.784 91.1115 138.649 90.9129C137.534 89.2817 137.189 88.4963 137.174 87.5515C137.152 86.2199 137.576 85.5346 139.064 84.4962C140.256 83.6645 140.548 82.8532 140.472 82.7213C140.464 82.712 140.395 82.6746 140.228 82.6746C139.263 82.6746 138.341 81.9185 137.762 80.6523C136.691 78.3117 136.886 75.7384 138.456 71.4741C139.987 67.3144 140.145 66.6017 140.151 63.8467C140.156 61.6418 140.105 61.2931 139.604 60.1154C139.297 59.3935 138.655 58.2851 138.201 57.6948L137.063 56.2122L138.523 55.0326C140.002 53.8368 140.721 52.227 140.495 50.6162C140.261 48.9547 139.073 47.5555 137.236 46.7774C136.046 46.2734 135.777 46.2342 133.638 46.2477C132.333 46.2564 130.356 46.4227 129.232 46.6184C128.047 46.8247 126.043 46.9905 124.67 46.9961C122.563 47.0043 122.066 46.9631 121.121 46.4723C120.134 45.9596 119.895 45.6192 119.704 44.4489C119.702 44.4328 119.697 44.4165 119.69 44.4011C119.309 44.6172 118.493 45.3436 118.378 45.6351C118.34 45.7325 118.223 46.0295 117.907 46.0836C117.565 46.1428 117.326 45.8658 117.151 45.6638C116.918 45.3959 116.625 44.8437 116.467 44.3795C116.177 43.5231 116.208 42.3272 117.998 41.4924L118.165 41.4146C117.203 40.9876 115.694 41.4011 115.149 42.2862C114.656 43.0876 114.425 43.09 114.286 43.0915C114.141 43.0943 113.982 43.0938 113.127 42.2793C112.312 41.5026 111.973 40.4968 112.197 39.5198C112.423 38.5333 113.213 37.7333 114.311 37.3799C115.08 37.1322 115.83 37.1552 116.367 37.4432C116.677 37.6088 116.9 37.8517 117.022 38.151C117.168 37.8799 117.314 37.3923 117.248 36.8965C117.179 36.3763 117.133 36.0326 117.361 35.7722C117.574 35.5294 117.886 35.5294 118.189 35.5294C119.155 35.5294 121.038 36.6492 121.662 37.5952C122.375 38.6764 122.336 40.3632 121.572 41.6145C122.375 41.3817 123.134 40.8733 123.525 40.2893C123.969 39.6254 124.02 38.238 123.626 37.54C123.365 37.0775 123.095 36.5992 123.401 36.2504C123.693 35.9183 124.155 36.105 124.461 36.229C125.728 36.7423 126.424 37.3284 126.943 38.3195C127.414 39.2179 127.452 39.5415 127.195 40.4834C127.076 40.9216 126.849 41.4515 126.626 41.8372C127.077 41.671 127.581 41.4016 127.79 41.1847C127.939 41.03 128.219 40.5551 128.37 40.1512L129.006 38.4553L129.821 39.8992C130.257 40.6705 131.113 41.3664 132.169 41.8084C132.209 41.8249 132.247 41.8407 132.284 41.8558C131.929 41.1258 131.634 40.1323 131.612 39.6974C131.607 39.6012 131.591 39.3083 131.799 39.1165C132.129 38.8123 132.512 39.0116 133.573 39.8082C134.286 40.3433 135.191 41.0872 136.122 41.9027C137.84 43.4073 138.885 43.8903 140.423 43.8903C141.329 43.8903 142.094 43.5087 142.469 42.8697C142.79 42.3218 142.776 41.6791 142.43 41.06C142.234 40.7104 141.919 40.4902 141.565 40.4555C141.225 40.4225 140.893 40.5668 140.65 40.8518C140.383 41.165 140.363 41.332 140.419 41.5669C140.482 41.8332 140.561 42.1644 140.352 42.4294C140.146 42.6892 139.809 42.6892 139.586 42.6892C138.959 42.6892 137.993 42.2431 135.318 40.0654C132.073 37.4232 128.146 35.1904 125.315 34.3771C123.547 33.8691 119.632 33.6634 117.834 33.9843C115.882 34.3329 113.556 35.4281 112.306 36.5882C110.174 38.5656 110.15 41.1879 112.242 43.6025L113.113 44.6086L112.486 45.5582C111.951 46.37 111.999 47.4599 112.606 48.2699C112.644 48.3206 112.681 48.3688 112.717 48.4143C112.851 47.5334 113.319 46.9136 114.054 46.6556C114.794 46.3953 115.273 46.5419 117.919 47.5727C120.594 48.6146 125.016 48.6797 129.746 47.7471C132.209 47.2619 135.053 47.2994 136.362 47.8347C137.56 48.3242 138.39 49.2414 138.641 50.3511C138.895 51.4761 138.529 52.6829 137.638 53.662C136.853 54.523 136.119 54.8692 133.711 55.5141C131.913 55.9957 131.445 56.0319 127.423 55.9923C124.058 55.9595 122.838 56.0222 121.486 56.2977C119.94 56.6127 118.961 56.646 114.501 56.5365L110.724 56.4437C110.89 56.5609 111.046 56.6631 111.148 56.7204C111.369 56.8439 111.671 57.0129 111.642 57.3633C111.642 57.3643 111.642 57.3652 111.641 57.3662L112.051 57.6401L111.448 57.7236C111.31 57.8346 111.108 57.9075 110.88 57.9899C110.45 58.1455 109.625 58.2397 109.066 58.2493H108.387L108.307 58.7364C108.231 59.201 108.258 59.6434 108.292 59.7402C108.353 59.8852 108.496 60.2305 108.25 60.4895C108.003 60.7506 107.648 60.6247 107.478 60.5642C107.297 60.5001 106.726 60.3534 106.165 60.2372C105.592 60.1183 104.847 59.8838 104.469 59.7032C104.416 59.6779 104.304 59.6244 104.217 59.5883C104.21 59.5985 104.204 59.6097 104.197 59.6219C103.965 60.0218 102.07 61.4705 101.571 61.4705C101.079 61.4705 101.032 60.887 101.002 60.501C100.986 60.3007 100.774 59.5862 100.465 58.8778C100.318 58.5393 100.17 58.1925 100.048 57.8998C100.034 57.9583 100.022 58.0179 100.01 58.0776C99.9233 58.5222 99.6319 59.2097 99.3464 59.6424L98.4545 60.9939L97.8148 59.6943C97.6663 59.3928 97.4822 59.1138 97.3277 58.913C97.033 59.5561 95.8547 61.0663 95.2639 61.0663C94.8761 61.0663 94.6645 60.7196 94.6204 60.0087C94.2115 60.5389 93.6161 61.0529 93.2256 61.0658C93.181 61.0772 93.0655 61.1377 92.9914 61.2201C92.4617 61.8094 92.0575 61.6698 91.9083 61.582C91.8037 61.5205 91.479 61.2733 91.6865 60.6692C91.7149 60.5746 91.7015 60.1793 91.5741 59.7959L91.3237 59.0431C91.1955 59.0637 90.968 59.1148 90.5746 59.2379C89.3575 59.6187 88.8783 59.6135 88.6735 59.2188C88.4452 58.7781 88.9227 58.4131 89.1024 58.2757C89.2364 58.1733 89.5729 57.6326 89.7751 57.0509C89.8394 56.8658 89.955 56.562 90.1087 56.2769C89.7873 56.5023 89.4249 56.7301 89.0301 56.9636C85.1823 59.2393 83.0027 62.2671 82.3665 66.2201C81.8059 69.7027 83.5876 73.3393 87.1323 75.9481C88.3276 76.8279 89.8448 77.6326 90.6506 77.9643C90.0675 75.5887 90.1068 71.7698 90.9984 70.946C91.1606 70.7963 91.3919 70.7681 91.5739 70.8766C91.8781 71.0578 91.8959 71.4069 91.6503 72.3711C91.0593 74.692 91.321 76.5393 92.8679 80.965C94.1504 84.6346 94.3993 87.0408 91.8768 88.4816C91.1113 88.9188 90.5719 88.972 88.8396 88.9513C86.9497 88.9293 86.8884 88.9764 86.416 89.3435C86.0049 89.6633 85.4192 90.746 85.2722 91.3913C85.3984 91.3438 85.5841 91.2593 85.8496 91.1099L85.9878 91.032L85.9886 91.0322L86.9282 90.5028ZM128.914 81.8521C129.362 81.8521 129.665 81.8901 129.877 82.0976C130.091 82.308 130.091 82.5889 130.091 82.709C130.089 83.272 128.998 84.5632 128.78 84.8162C127.229 86.6112 127.113 87.2277 127.518 88.4149C127.692 88.9265 127.804 89.4044 127.854 89.8396C128.57 89.0619 129.702 88.4949 131.206 88.1706C132.678 87.8533 133.349 86.711 133.219 84.7436C133.025 81.8163 133.018 81.7021 128.658 79.0397C128.48 78.9309 128.308 78.8247 128.143 78.721L127.586 79.4007C126.734 80.4419 127.06 81.0436 127.44 81.4515C127.776 81.8131 127.885 81.8698 128.632 81.8556C128.732 81.8537 128.825 81.8521 128.914 81.8521ZM69.6167 82.1121C70.6745 82.2919 70.8138 82.6057 70.8138 82.8617C70.8138 83.3207 71.0872 83.9888 71.2364 83.996C71.2661 83.9953 71.3032 83.978 71.3454 83.9386C71.5134 83.782 71.6559 83.406 71.6629 83.1004L71.6679 82.8819L71.6877 82.8671C71.8143 82.2821 72.415 82.1781 72.972 82.1003C72.4483 81.6475 72.2476 81.2299 72.3752 80.857C72.4387 80.6717 72.6378 80.3606 73.2595 80.3594C73.8118 80.3594 74.7577 79.7397 74.8552 79.4562C74.8887 79.3584 74.8575 79.2174 74.8286 79.1812C74.7184 79.0586 74.5537 79.0288 74.4483 79.0536C74.4123 79.062 74.3673 79.0793 74.3572 79.1147C74.3172 79.2561 74.1954 79.686 73.7919 79.7997C73.3911 79.9122 73.0246 79.6391 72.6874 79.3276C71.6845 78.4008 71.6507 76.5534 72.6164 75.4517C72.6416 75.423 72.6803 75.3788 72.7154 75.3366C72.6592 75.2808 72.5889 75.2159 72.542 75.1727C72.0639 74.7307 71.675 73.9462 71.6752 73.4238C71.6752 73.1253 71.7955 72.9515 71.8965 72.8583C71.9794 72.7816 72.2324 72.5474 73.2549 72.8891C73.7984 73.0706 73.8601 73.0231 73.9262 72.9727C74.0257 72.8962 74.0397 72.8489 74.0399 72.8484C74.0119 72.7737 73.6439 72.5339 72.9932 72.6221C72.7146 72.6603 71.9862 72.7587 71.7622 72.1073C71.6877 72.0399 71.4473 71.9025 71.1162 71.821C71.0148 71.796 70.9073 71.7695 70.8139 71.7482V71.7501C70.8139 72.3044 70.5791 72.5564 70.3821 72.6701C69.8893 72.9545 69.2746 72.5998 69.0728 72.4835C68.8968 72.382 68.7635 72.387 68.7027 72.4221C68.6413 72.4576 68.6283 72.5443 68.6283 72.6108C68.6283 72.6835 68.6498 72.7186 68.682 72.7489C68.7376 72.801 68.9796 72.9678 69.7349 72.9202C70.3998 72.8789 70.6492 73.1921 70.7406 73.3825C70.882 73.6771 70.8967 74.1974 70.1637 75.0024L69.8753 75.3191L70.0866 75.6152C70.837 76.6671 70.7672 78.3605 69.937 79.2392L69.0407 80.1879L68.3679 79.3178C68.2049 79.1068 68.0394 79.0277 67.9541 79.0462C67.8745 79.062 67.8304 79.2027 67.8187 79.2455C67.7606 79.4601 67.7484 79.5048 68.2169 79.8916C68.5579 80.1732 69.0139 80.3601 69.1656 80.3601C69.8571 80.3601 70.0593 80.7445 70.1141 80.9097C70.2374 81.2812 70.0571 81.7095 69.6167 82.1121ZM82.2734 78.6063L82.91 78.7151C83.0091 78.6968 83.2902 78.6189 83.6563 78.4806L83.7056 78.4616C84.3564 78.2113 85.6637 77.1472 86.0226 76.7007C85.8725 76.5238 85.5655 76.2039 85.1195 75.8099C83.747 74.5984 82.3103 72.6255 81.9169 71.4122C81.7353 70.8517 80.4101 69.5198 78.3308 67.5525L75.8916 65.2441C75.8477 65.446 75.7583 65.6467 75.6477 65.8224C75.6752 65.8454 75.7009 65.8713 75.7248 65.9001C76.0244 66.2614 75.9142 66.9831 75.622 67.4681C75.6327 67.4778 75.6431 67.4879 75.6532 67.4983C75.962 67.8153 76.0039 68.557 75.7377 68.9956C75.7076 69.0455 75.7005 69.1434 75.7472 69.2257C76.0325 69.7281 75.8774 70.5137 75.4602 70.9716C75.4934 70.9984 75.5329 71.0289 75.5795 71.0633C76.3872 71.6585 76.3872 71.9156 76.3872 73.9169C76.3872 74.9714 76.4202 75.4677 76.4919 75.7259C76.7971 75.3622 77.3423 75.1093 77.8167 75.1093C77.9511 75.1093 78.2658 75.1093 80.1803 76.9315C81.2262 77.9268 82.0777 78.5357 82.2734 78.6063ZM70.1588 70.0302V70.0626C70.1588 70.2413 70.1588 70.3081 70.8136 70.5864C71.6894 70.9585 72.5439 70.9482 72.8272 70.843C72.6565 70.6342 71.9629 70.2188 70.774 70.0885C70.5555 70.0647 70.3172 70.0385 70.1588 70.0302ZM69.8143 68.2695C69.7218 68.3433 69.6865 68.4071 69.6922 68.4278C69.7145 68.5078 69.9355 68.7031 70.4477 68.7618C70.9155 68.8152 71.53 68.9512 71.8467 69.0712C72.4432 69.2974 72.8542 69.1853 72.9122 69.1162C72.9133 69.1077 72.9131 69.1038 72.9131 69.1038C72.9122 69.1031 72.8578 69.0194 72.454 68.8414C71.2353 68.3044 70.0637 68.1675 69.8143 68.2695ZM69.1868 66.3567C69.1919 66.4077 69.2187 66.5146 69.3089 66.6817C69.3925 66.8365 69.5182 66.9728 70.2161 67.0748C70.7738 67.1562 71.536 67.316 71.9151 67.431C72.6274 67.6467 72.894 67.564 72.9264 67.53C72.9262 67.53 72.9314 67.5217 72.9351 67.4981C72.9351 67.4977 72.9352 67.497 72.9352 67.4965C72.7147 67.3013 71.5117 66.8883 70.7056 66.6114C69.6644 66.254 69.2824 66.3249 69.1868 66.3567ZM69.7598 65.0229C69.8269 65.0966 70.0887 65.2535 71.0407 65.5434C72.4129 65.9614 72.8114 65.9648 72.9248 65.9223C72.9272 65.9152 72.9299 65.9048 72.9325 65.8903C72.8997 65.8336 72.625 65.4689 70.8758 65.1067C70.1395 64.954 69.854 64.9948 69.7598 65.0229ZM72.9351 65.8759C72.9349 65.8764 72.9349 65.8769 72.9348 65.8775C72.9349 65.877 72.9349 65.8767 72.9351 65.8762V65.8759ZM73.4397 64.822L73.5619 64.9142L73.8922 64.7354C73.7423 64.7667 73.5882 64.7964 73.4397 64.822ZM68.5451 60.1797C68.3712 60.1797 68.1847 60.2128 68.015 60.256C67.3623 60.4225 66.9578 60.8248 66.9052 61.3597C66.8378 62.0457 67.3419 62.7507 68.1896 63.1557C69.7377 63.8956 73.2047 63.9407 74.8139 63.2418L74.8138 63.2416C75.7202 62.848 76.2795 62.1295 76.2386 61.4114C76.2076 60.8674 75.8164 60.4416 75.1652 60.243C74.3646 59.999 74.1503 60.2312 74.0126 60.4689C73.9285 60.6141 73.951 60.8709 73.999 60.9873C74.3043 61.0532 74.5287 61.3589 74.5287 61.7371C74.5287 61.9478 74.4414 62.2531 74.026 62.5111C73.1014 63.0852 70.5622 63.2639 69.3286 62.6537C68.836 62.4102 68.5145 61.873 68.6117 61.4562C68.6718 61.1994 68.8711 61.0224 69.1336 60.9827C69.1797 60.8875 69.216 60.6842 69.1636 60.5315C69.0721 60.2652 68.825 60.1797 68.5451 60.1797ZM70.0752 61.7276C70.6978 61.8768 72.3894 61.8236 73.1068 61.6426C72.9191 61.4482 72.8068 61.2157 72.7789 60.9606C72.735 60.5583 72.8986 60.133 73.2653 59.6965C73.5435 59.3653 73.5899 58.1712 73.7039 52.2253C73.9089 41.519 74.6707 33.413 75.7221 30.5054C74.3177 31.4688 73.253 32.7002 72.2848 34.4761C70.3917 37.9489 69.7208 42.7602 69.7208 52.8623C69.7208 58.4082 69.7616 59.3089 70.0331 59.746C70.4309 60.3869 70.4612 60.7308 70.1803 61.4185C70.131 61.539 70.0972 61.6445 70.0752 61.7276ZM93.217 61.066C93.2149 61.0661 93.2129 61.0661 93.2108 61.0661C93.2127 61.066 93.2148 61.0661 93.217 61.066ZM92.4048 58.222C92.4138 58.2632 92.4241 58.3119 92.4359 58.3667C92.4964 58.65 92.5977 59.1243 92.7112 59.5249L92.8384 59.974L93.0582 59.8755C93.6109 59.6275 94.1741 58.6574 94.1741 57.9533C94.1741 57.3048 94.601 57.2244 94.6864 57.2148C94.957 57.186 95.2896 57.362 95.4221 57.9482C95.4435 58.0422 95.5845 58.501 95.7653 59.0338L95.8107 59.167C96.0285 58.8906 96.3028 58.3766 96.4161 58.0271C96.5612 57.5792 96.8872 56.8415 97.4337 56.9276C97.545 56.9452 97.9059 57.0471 97.9141 57.621C97.9607 57.8103 98.3174 58.3235 98.5987 58.6426C98.655 58.4828 98.7188 58.2766 98.7795 58.034C98.9194 57.4739 99.3152 56.1413 99.9649 55.8639C100.16 55.7808 100.365 55.7904 100.542 55.8914C100.713 55.9893 100.837 56.1506 100.88 56.3339C100.906 56.4462 100.902 56.5594 100.869 56.6646C100.907 56.8545 101.072 57.3898 101.393 58.148L102.125 59.8869C102.276 59.7682 102.461 59.6088 102.552 59.5306C103.022 59.1257 103.353 58.7577 103.419 58.6506C103.454 58.5519 103.548 58.3273 103.801 58.2357C104.095 58.1291 104.379 58.2785 104.72 58.4847C105.187 58.7678 106.504 59.1675 107.098 59.2769C107.119 59.0923 107.14 58.8223 107.149 58.4896L107.191 56.8291L108.337 57.061C108.564 57.1068 109.1 57.1179 109.585 57.07C109.238 56.8267 108.688 56.3988 108.499 56.0997C108.449 56.0531 108.211 55.9297 107.812 55.8965C106.548 55.7917 103.79 54.5138 103.79 53.4731C103.79 53.2797 103.898 53.1112 104.072 53.0335C104.311 52.9265 104.591 52.9785 105.249 53.5667C105.993 54.2324 107.029 54.6817 107.978 54.7557C107.667 54.3305 107.401 53.5967 107.335 52.9607C107.257 52.2126 107.254 52.1834 106.373 51.5852C105.756 51.1671 105.02 50.5609 104.696 50.205L104.641 50.1449L104.628 50.1777C104.24 51.1701 103.951 51.1701 103.796 51.1701C103.692 51.1701 103.476 51.1701 102.831 50.5362C102.745 50.4516 102.665 50.3782 102.595 50.3179C102.527 50.4281 102.443 50.573 102.351 50.7513L101.578 52.2414L100.82 51.1519C100.657 50.9169 100.25 50.4803 99.9323 50.1987C99.4188 49.7439 99.2614 49.4544 99.3707 49.166C99.4417 48.9783 99.6212 48.8571 99.8274 48.8571C100.098 48.8571 100.522 49.1382 101.088 49.6926L101.392 49.9907L101.398 49.9811C101.517 49.7697 101.565 49.4049 101.509 49.1325C101.418 48.6921 101.339 48.3119 101.723 48.1577C102.101 48.0063 102.32 48.3548 102.45 48.5632C102.55 48.7227 102.929 49.1125 103.287 49.3957L103.558 49.6108L103.774 49.2258C104.13 48.5892 104.284 48.3131 104.629 48.3131C104.635 48.3131 104.641 48.3131 104.647 48.3133L104.224 47.2522C104.174 47.1263 103.805 46.7082 103.31 46.3909C102.369 45.7888 102.346 45.5217 102.334 45.3934C102.321 45.2431 102.376 45.0988 102.485 44.9976C102.705 44.7936 102.985 44.6982 104.178 45.6019C104.366 45.7442 104.52 45.8559 104.638 45.9366C104.639 45.4703 104.548 44.561 104.338 43.7671C104.256 43.4562 104.164 43.1042 104.495 42.9112C104.837 42.7119 105.058 42.9271 105.592 43.4485C106.122 43.9649 106.413 44.567 106.63 45.5958C106.858 46.6782 106.934 46.796 107.984 47.6951C108.228 47.9045 108.444 48.0814 108.622 48.2219C108.657 47.6608 108.699 46.7829 108.737 45.6749C108.857 42.1673 108.689 41.5578 107.973 40.662L107.293 39.8108L108.247 38.8066C108.927 38.0916 109.298 37.5109 109.499 36.8108C108.918 37.303 108.514 37.4378 107.759 37.4378C106.917 37.4378 106.509 37.2663 105.938 36.6733C105.416 36.1303 104.463 35.5914 103.555 35.3242C103.438 35.7877 103.104 36.3956 103.087 36.4266L102.35 37.7605L100.979 36.438C100.454 35.9319 99.8315 35.5321 99.3923 35.4196C99.166 35.3615 98.7784 35.2621 98.5814 35.2421C98.5694 35.3633 98.5694 35.5511 98.5694 35.6352C98.5694 35.9704 98.5694 36.9905 97.8641 37.3181C97.3803 37.5431 96.7883 37.3525 96.0558 36.7341C95.3389 36.1291 94.7926 35.9455 93.1547 36.1211L92.4759 36.1938L92.4789 36.2013C92.7588 36.8859 92.6057 37.2612 92.1572 37.8433C91.4047 38.8198 90.4127 39.2551 88.9407 39.2551C88.3599 39.2551 87.662 39.3782 87.4259 39.4882C87.0121 39.6809 86.1145 39.8568 85.4857 39.9156C84.7872 39.9808 84.1581 40.0892 84.0319 40.1352C83.916 40.1774 83.6081 40.2897 83.3507 40.0804C83.0599 39.8439 83.1185 39.4405 83.1864 38.9734C83.2379 38.6183 83.1577 38.3064 82.9542 38.0713C82.7134 37.7929 82.317 37.6395 81.8378 37.6395C81.3306 37.6395 80.9361 37.8164 80.6965 38.1508C80.3675 38.6103 80.3384 39.3429 80.6167 40.1612C80.7524 40.5691 80.8697 40.9847 80.9662 41.3993C81.0128 41.5651 81.5121 42.285 82.4575 43.2079C83.0737 43.8094 84.0595 44.8231 84.2511 45.1509C84.3135 45.2575 84.6133 45.5278 84.9434 45.7196C84.9047 45.3638 84.8922 44.8482 85.3073 44.6768C85.7602 44.4902 86.1238 44.9599 86.2789 45.1606C86.3879 45.3016 86.7298 45.5911 87.0293 45.7727C87.0813 45.5635 87.1566 45.3392 87.2315 45.159L87.8335 43.7087L88.6893 45.3261C88.8748 45.6769 89.5485 46.5887 90.2552 47.387C91.2051 48.4597 92.7725 50.7 91.9062 51.5002C91.606 51.7773 91.1182 51.7952 89.9722 51.5703C89.2441 51.4275 88.4223 51.3706 88.1407 51.4089C87.7756 51.4584 87.3262 51.5194 87.098 51.2154L86.9421 51.2115L87.0272 51.0916C86.8867 50.7549 87.1405 50.419 87.3502 50.1615C87.3006 50.1606 87.245 50.16 87.1828 50.16C86.0144 50.16 83.2106 49.632 82.0982 49.2024C81.5459 48.9893 81.4088 49.0037 81.3759 49.0195C81.3538 49.03 81.2703 49.1012 81.1202 49.5729L80.4692 51.5957L80.9015 51.5551C81.4811 51.5006 82.2437 51.3749 82.5667 51.2806C83.3823 51.0423 83.5584 51.1262 83.7042 51.2606C83.9526 51.4888 83.912 51.7688 83.502 52.5284C83.8191 52.4442 84.1903 52.3168 84.4132 52.2116C85.2717 51.8064 85.5371 52.0567 86.0249 52.8203C86.1117 52.9561 86.1835 53.0482 86.2393 53.1102C86.2494 53.0623 86.2592 53.0025 86.2671 52.9287C86.2961 52.6563 86.3644 52.0185 86.8723 51.9313C87.36 51.847 87.6986 52.341 88.1199 53.2212C88.3105 53.6197 88.479 53.8739 88.6022 54.026C88.7482 53.6802 89.0892 53.3183 89.4039 53.1019C89.8669 52.7836 90.2992 52.682 90.6899 52.8006C91.0693 52.9154 91.3608 53.2215 91.5567 53.7104C91.8185 54.3647 91.5848 54.9555 91.0078 55.5394C91.2195 55.5401 91.3441 55.6445 91.4156 55.7473C91.6409 56.0709 91.391 56.4005 91.1903 56.6652C91.0293 56.8778 90.9281 57.1213 90.9191 57.1922C90.9184 57.4037 90.8101 57.7063 90.6976 57.9571C90.728 57.9432 90.7589 57.9289 90.7907 57.914L92.4048 57.1232V58.222ZM104.97 48.4335C105.108 48.5522 105.189 48.7424 105.268 48.9285C105.444 49.341 106.843 50.5704 108.436 51.5641C108.379 51.4169 108.308 51.2421 108.22 51.0348C108.064 50.6686 107.942 50.041 107.942 49.6061C107.942 49.2581 107.91 49.1239 107.227 48.6171C106.36 47.9736 105.919 47.4472 105.661 46.6394C105.625 46.8414 105.577 47.0226 105.516 47.1622L104.97 48.4335ZM88.6499 50.3549L88.7621 50.3576C89.3231 50.3717 90.0703 50.455 90.4634 50.5475C90.6405 50.5891 90.8057 50.6279 90.9372 50.6564C90.8889 50.5081 90.8137 50.3122 90.7076 50.0902C90.3843 49.4151 90.351 49.4151 90.033 49.4151C89.6448 49.4151 89.2081 49.3791 88.7322 49.3096C88.7801 49.3524 88.8211 49.405 88.8545 49.4695C89.0048 49.7604 88.8684 50.0338 88.6499 50.3549ZM80.6747 46.6886C80.7129 46.9222 81.1765 47.5781 82.1702 48.0232C83.2324 48.499 86.2982 49.1047 87.7075 49.1216C86.1943 48.793 84.4098 48.2005 82.5825 47.4058C82.1915 47.2358 81.0732 46.7495 80.6747 46.6886Z" fill="black"/>
<path d="M101.326 56.1089C101.326 55.8126 100.435 55.0097 99.531 54.4923C98.8213 54.086 98.7042 54.0737 98.7025 54.405C98.7001 54.9081 98.2416 56.1721 98.0615 56.1721C97.9599 56.1721 97.8098 55.9251 97.7278 55.6232C97.6458 55.3214 97.3018 54.7264 96.9634 54.3011L96.3481 53.5278L95.869 54.2443C95.4222 54.9122 94.6485 55.5663 94.3051 55.5663C94.2231 55.5663 94.207 55.2145 94.2695 54.7846C94.3373 54.3176 94.285 53.947 94.1394 53.8639C94.0054 53.7875 93.8958 53.8142 93.8958 53.9232C93.8958 54.1748 92.8212 55.3642 92.5939 55.3642C92.5002 55.3642 92.3691 55.0233 92.3024 54.6069L92.0508 53.1428C91.9791 52.754 92.132 53.0176 92.3909 53.7287L92.8614 55.0214L93.3775 54.2336C93.6614 53.8003 93.8941 53.3269 93.8946 53.1815C93.8952 53.0361 93.9912 52.9717 94.108 53.0384C94.2248 53.1051 94.3871 53.6259 94.469 54.1957L94.6177 55.2318L95.1856 54.6243C95.498 54.2902 95.8639 53.843 95.9989 53.6304C96.2397 53.251 96.2534 53.2513 96.7324 53.6478C97.0009 53.87 97.4136 54.4014 97.6495 54.8285C97.8855 55.2557 98.1103 55.5738 98.1487 55.5353C98.1872 55.4968 98.2738 55.0563 98.341 54.5565L98.4741 53.6065C98.5076 53.4827 100.185 54.5463 100.805 55.0849C101.204 55.4311 101.583 55.6659 101.647 55.6066C101.711 55.5473 101.764 55.0367 101.764 54.4717C101.764 53.5961 101.668 53.3615 101.119 52.8828C100.488 52.3324 100.471 52.3293 100.238 52.7319C99.935 53.2544 99.5781 53.262 99.5781 52.7459C99.5781 52.3693 98.3855 50.9214 98.0753 50.9214C97.9948 50.9214 97.7437 51.2394 97.5172 51.6281C97.2907 52.0169 97.047 52.3346 96.9758 52.3341C96.6699 52.3323 94.9886 50.5034 94.9895 50.1733C94.9895 49.9106 95.1027 49.9778 95.3976 50.4163C95.6215 50.7496 96.069 51.2469 96.3916 51.5218C97.0453 52.0782 97.2829 51.9428 97.5353 50.8707C97.6072 50.5652 97.732 50.3152 97.8127 50.3152C98.0922 50.3152 99.5556 51.8318 99.7615 52.3347L99.9681 52.8396L100.125 52.2842C100.316 51.6051 100.527 51.5799 100.833 52.1995C100.96 52.4584 101.591 52.9966 102.234 53.3956L103.403 54.1209L103.637 53.3914C103.766 52.9901 103.937 52.7596 104.017 52.879C104.136 53.0572 103.832 54.266 103.603 54.526C103.569 54.5651 103.19 54.3497 102.761 54.0477L101.982 53.4985L101.979 54.4817C101.977 55.0225 101.917 55.6695 101.844 55.9193C101.703 56.4079 101.326 56.5454 101.326 56.1085L101.326 56.1089ZM95.6322 48.2705C94.243 47.1387 94.0321 46.8798 94.0628 46.3435L94.0955 45.7726L94.1862 46.3241C94.2392 46.646 94.6091 47.1285 95.0754 47.4837L95.8741 48.092L96.3648 47.5382C96.6347 47.2335 96.8592 46.8708 96.8634 46.732C96.8747 46.37 96.9414 46.4003 97.882 47.1967C98.7177 47.9041 98.7307 47.9076 98.8549 47.4491C98.9241 47.1935 98.8997 46.7124 98.8003 46.3799C98.5272 45.466 98.5807 45.3281 98.9945 45.8793C99.2006 46.154 99.5321 46.5421 99.731 46.742C100.077 47.09 100.099 47.0857 100.227 46.6411C100.302 46.3857 100.363 45.9182 100.365 45.6021L100.368 45.0278L101.122 45.8612C101.825 46.6396 101.89 46.6684 102.105 46.2974C102.232 46.079 102.337 45.5536 102.338 45.1297C102.341 44.5822 102.4 44.444 102.542 44.6525C102.781 45.0006 102.615 45.9485 102.175 46.7562L101.859 47.3358L101.445 46.7058C100.914 45.9 100.738 45.913 100.398 46.7825C100.076 47.6042 99.8671 47.6668 99.5539 47.035C99.3512 46.6261 99.3125 46.6761 99.1685 47.5351L99.0085 48.4897L98.0503 47.764L97.0918 47.0383L96.6609 47.5161C96.424 47.7789 96.2268 48.1076 96.2228 48.2464C96.214 48.5473 95.9836 48.5567 95.6322 48.2705ZM107.927 44.0549C107.421 43.6104 107.073 43.1862 107.153 43.1125C107.233 43.0387 107.323 43.0175 107.353 43.0655C107.383 43.1136 107.796 43.5377 108.271 44.008C109.365 45.091 109.141 45.1216 107.927 44.0549ZM91.4666 42.395C91.0065 41.7882 91.0384 41.3861 91.5982 40.7284C92.0028 40.2531 92.1876 40.1886 92.8942 40.2762C93.3474 40.3323 94.3227 40.7231 95.0614 41.1445C95.9148 41.6311 96.7973 41.9571 97.4808 42.0382C98.0727 42.1083 98.5569 42.1348 98.5569 42.0969C98.5569 42.0591 98.311 41.6683 98.0106 41.2285C97.297 40.1839 97.3215 40.0718 98.1264 40.6976C98.9525 41.3399 99.9408 41.5278 102.149 41.4623L103.228 41.4303L102.602 40.8267C101.727 39.9824 101.996 39.9066 102.963 40.7252C103.87 41.4931 103.813 41.5471 101.905 41.733C101.094 41.8121 100.222 41.7547 99.4968 41.5749C98.4123 41.3059 98.3702 41.31 98.5756 41.6647C98.6941 41.869 98.8858 42.0363 99.0018 42.0363C99.1177 42.0363 99.2128 42.1399 99.2128 42.2665C99.2128 42.6558 96.8703 42.3135 95.751 41.7605C93.194 40.4973 92.8721 40.388 92.2635 40.575C91.9248 40.6791 91.5859 40.9839 91.4691 41.2894C91.0794 42.3082 92.5604 43.1003 93.1712 42.1995C93.3482 41.9385 93.3069 41.7598 92.9957 41.4422C92.5695 41.0071 92.6095 40.9451 93.1847 41.1491C93.5931 41.2938 93.648 42.2506 93.2681 42.6017C92.8333 43.0033 91.8412 42.8895 91.4666 42.395ZM101.539 39.8788C101.219 39.5834 101.47 39.5109 102.903 39.4849C104.677 39.4526 105.754 39.1643 107.025 38.3814C108.043 37.7542 108.319 37.8777 107.353 38.528C106.471 39.1213 105.096 39.5773 103.768 39.7168C103.125 39.7843 102.393 39.8778 102.14 39.9246C101.887 39.9714 101.617 39.9508 101.539 39.8786L101.539 39.8788Z" fill="black"/>
<path d="M101.481 56.8215C101.453 56.8215 101.424 56.8195 101.396 56.8155C101.167 56.7829 100.9 56.5924 100.879 56.1645C100.767 55.9574 100.125 55.3499 99.3083 54.8824C99.2322 54.8388 99.164 54.8005 99.1036 54.7675C98.9831 55.4091 98.6399 56.6216 98.0623 56.6216C97.5853 56.6216 97.3666 56.0058 97.2947 55.741C97.2358 55.5242 96.9315 54.9821 96.6123 54.581L96.3804 54.2895L96.2436 54.4941C95.8804 55.037 95.1347 55.8099 94.5333 55.9813L94.3065 56.2238L94.2765 56.015C94.1477 56.007 94.0266 55.9467 93.9402 55.8469C93.8792 55.7765 93.724 55.597 93.8045 54.8803C93.5504 55.1866 93.2464 55.4829 92.9835 55.6567L92.7468 56.0183L92.6692 55.8053C92.643 55.8108 92.6181 55.8137 92.5947 55.8137C92.3572 55.8137 92.0225 55.6961 91.8592 54.6781L91.6084 53.2188C91.521 52.7455 91.7331 52.5822 91.9266 52.5296C92.3887 52.404 92.5484 52.8449 92.8141 53.5748L92.9777 54.0244L93.0022 53.9872C93.2549 53.6015 93.418 53.2537 93.4466 53.1494C93.4563 52.9288 93.5643 52.7387 93.7395 52.6374C93.9178 52.5341 94.1392 52.538 94.3317 52.6479C94.6648 52.8381 94.8327 53.5598 94.9149 54.1317L94.9302 54.2389C95.2255 53.9151 95.5226 53.5429 95.6202 53.3893C95.757 53.1737 95.8985 52.9507 96.1838 52.9055C96.1986 52.9032 96.2131 52.9014 96.2277 52.9001L96.3172 52.766L96.4406 52.9209C96.6247 52.9743 96.7959 53.116 97.0199 53.3014C97.2829 53.519 97.6461 53.9655 97.9113 54.3874L98.0408 53.4891L98.1057 53.2489L98.3529 53.1677C98.5289 53.1139 98.656 53.075 99.7145 53.7516C99.7763 53.7911 99.8409 53.8329 99.9074 53.8766L99.7851 53.5778C99.7221 53.5771 99.6695 53.5673 99.6307 53.557C99.5149 53.5258 99.1407 53.378 99.1295 52.7739C99.0548 52.5256 98.4872 51.8013 98.1449 51.4864C98.0783 51.5776 97.996 51.7009 97.9066 51.8545C97.3631 52.7866 97.1264 52.7866 96.9735 52.7836C96.8252 52.7828 96.5486 52.7811 95.5373 51.681C94.5396 50.5956 94.5402 50.2989 94.5405 50.1722C94.5405 49.7625 94.768 49.6318 94.9036 49.5904C95.3035 49.4688 95.5627 49.8551 95.7714 50.1654C95.9731 50.4655 96.391 50.9299 96.684 51.1795C96.7925 51.2718 96.8675 51.3248 96.9169 51.3552C96.9575 51.2708 97.0197 51.102 97.0984 50.7676C97.2391 50.1691 97.4798 49.8656 97.8136 49.8656C98.289 49.8656 99.3426 50.9733 99.876 51.6876C99.9845 51.498 100.148 51.3299 100.399 51.3067C100.874 51.2638 101.128 51.7799 101.237 52.0006C101.306 52.1289 101.791 52.591 102.472 53.0135L103.152 53.4355L103.21 53.2537C103.438 52.5455 103.711 52.4289 103.896 52.4028C104.09 52.3754 104.28 52.4621 104.391 52.6285C104.692 53.0776 104.207 54.5222 103.941 54.8233C103.645 55.1602 103.257 54.9464 102.503 54.4152L102.43 54.3635L102.43 54.483C102.428 54.9924 102.373 55.7124 102.277 56.0446C102.139 56.5207 101.825 56.8214 101.481 56.8215ZM100.107 54.0093C100.467 54.2519 100.849 54.527 101.101 54.7453C101.173 54.8081 101.241 54.8638 101.303 54.9125C101.31 54.7847 101.315 54.6364 101.315 54.4716C101.315 53.6998 101.253 53.5953 100.825 53.2216C100.752 53.1582 100.666 53.0835 100.59 53.0196C100.488 53.1832 100.384 53.3009 100.283 53.3847L100.107 54.0093ZM99.3299 49.2964L97.1502 47.6457L96.9956 47.8172C96.8217 48.0101 96.6999 48.2159 96.6715 48.2928C96.6475 48.6764 96.4102 48.8259 96.3073 48.8731C96.0324 48.9986 95.7104 48.9133 95.3489 48.6191L95.349 48.619C94.0244 47.5398 93.5686 47.1255 93.6147 46.3178L93.6474 45.7469L94.5399 45.6996L94.6306 46.251C94.6565 46.4082 94.9204 46.7999 95.3487 47.126L95.8153 47.4813L96.0293 47.2399C96.2457 46.9956 96.3824 46.7654 96.4161 46.6813C96.4227 46.5245 96.4542 46.2316 96.7407 46.1041C97.0993 45.9444 97.3486 46.1552 98.1732 46.8535C98.2634 46.9298 98.358 47.0098 98.4456 47.0825C98.446 46.903 98.4218 46.681 98.3703 46.5087C98.1803 45.8728 98.0302 45.3707 98.4565 45.1558C98.861 44.9513 99.1701 45.3632 99.3547 45.6093C99.4904 45.7901 99.6888 46.029 99.8587 46.2193C99.8919 46.0136 99.9153 45.7747 99.9161 45.5999L99.9252 43.8668L101.456 45.5596C101.541 45.6542 101.667 45.7939 101.778 45.9088C101.834 45.7167 101.888 45.4106 101.889 45.1278C101.891 44.7189 101.893 44.2556 102.296 44.1318C102.404 44.0985 102.681 44.0581 102.914 44.3984C103.301 44.9637 103.034 46.1206 102.571 46.9712L101.896 48.2088L101.07 46.9529C101.006 46.8551 100.953 46.7801 100.91 46.7226C100.884 46.7807 100.853 46.854 100.817 46.9464C100.639 47.4018 100.411 47.8893 99.9565 47.9092C99.8082 47.9165 99.6856 47.8706 99.5809 47.7996L99.3299 49.2964ZM108.981 45.2973C108.677 45.2973 108.281 44.9638 107.631 44.3925C106.698 43.5723 106.694 43.2651 106.693 43.1494C106.691 43.009 106.748 42.8751 106.849 42.782C107.003 42.6394 107.194 42.5708 107.371 42.5948C107.512 42.6134 107.636 42.6875 107.717 42.7998C107.781 42.8746 108.109 43.2133 108.588 43.6884C109.259 44.3525 109.664 44.7533 109.303 45.1399C109.204 45.2467 109.1 45.2973 108.981 45.2973ZM106.981 43.3166C106.989 43.3282 106.997 43.3395 107.006 43.3501C106.994 43.3346 106.986 43.3242 106.981 43.3166ZM107.721 42.8062C107.726 42.8129 107.73 42.8197 107.735 42.8266C107.731 42.8218 107.727 42.8148 107.721 42.8062ZM92.5317 43.2948C92.4715 43.2948 92.4104 43.2921 92.3486 43.2866C91.832 43.241 91.3686 43.0092 91.1089 42.6667L91.3001 42.5219L91.1091 42.6666C90.5156 41.8839 90.5569 41.2587 91.2566 40.4369C91.762 39.8429 92.0947 39.7237 92.9502 39.8299C93.5218 39.9007 94.5862 40.3553 95.2851 40.754C96.0884 41.2121 96.9084 41.5174 97.5345 41.5916C97.6024 41.5996 97.6673 41.6069 97.7292 41.6135C97.7009 41.5715 97.6711 41.5275 97.6401 41.4821C97.1298 40.7352 96.8487 40.3238 97.2 39.9935C97.5408 39.6725 97.9405 39.9829 98.403 40.3425C99.1357 40.9121 100.043 41.0754 102.137 41.0128L102.149 41.0124C101.95 40.8151 101.752 40.6004 101.665 40.3874C101.507 40.3664 101.35 40.3155 101.235 40.209L101.235 40.2091C100.99 39.9827 100.911 39.748 101.001 39.5117C101.164 39.0837 101.669 39.0576 102.896 39.0353C104.599 39.0044 105.582 38.7427 106.79 37.9987C107.431 37.6037 108.031 37.2867 108.325 37.7426C108.627 38.2127 108.036 38.6105 107.604 38.9011C106.665 39.5332 105.213 40.0172 103.816 40.1639C103.579 40.1888 103.327 40.2176 103.092 40.2462C103.145 40.2901 103.199 40.3355 103.254 40.3821C103.718 40.7742 104.084 41.0848 103.961 41.5111L104.31 41.8482L103.681 41.8668C103.381 42.0409 102.844 42.0933 101.949 42.1805C101.181 42.2552 100.352 42.2136 99.634 42.0665C99.6529 42.1298 99.6632 42.1969 99.6632 42.2665C99.6632 42.4597 99.564 42.6322 99.3909 42.7397C98.7427 43.1421 96.4496 42.6068 95.5526 42.1635C94.8327 41.8079 94.3009 41.5499 93.8983 41.3661C93.9145 41.4164 93.9284 41.469 93.9394 41.5235C94.0315 41.9714 93.9541 42.5805 93.5739 42.9319C93.3201 43.1664 92.9472 43.2948 92.5317 43.2948ZM92.2564 41.0664C92.0943 41.158 91.9427 41.3119 91.8898 41.4501C91.7417 41.8374 92.1204 42.0484 92.1641 42.0711C92.2322 42.1066 92.5829 42.2677 92.7999 41.9472C92.8065 41.9372 92.8119 41.9289 92.816 41.9219C92.7978 41.8937 92.7585 41.8418 92.6752 41.7568C92.4822 41.5598 92.2532 41.3261 92.2564 41.0664Z" fill="black"/>
<path d="M86.0715 91.5017L86.8072 91.0872L87.122 91.5025C87.5414 92.0558 88.7017 92.0495 89.4715 91.4898L90.0601 91.0618L90.5531 91.4898C91.2012 92.0525 92.4117 92.0531 93.1845 91.4918C93.7256 91.0985 93.801 91.0906 94.1588 91.3898C94.3721 91.5682 94.9976 91.7712 95.549 91.841C96.5419 91.9669 96.5569 91.9599 97.1378 91.1096C97.6244 90.3975 97.7003 90.1092 97.5844 89.4186C97.4979 88.8756 97.4365 88.3292 97.4003 87.7809C97.3562 86.9791 97.361 86.974 98.5581 86.5673C99.2191 86.3427 99.9844 86.0415 100.259 85.8979C100.737 85.6476 102.055 84.1361 102.055 83.8382C102.055 83.7593 101.54 83.6383 100.911 83.5694C98.4072 83.2954 97.9832 81.9838 99.6107 79.5476C102.265 75.5744 103.866 71.7052 103.877 69.2403C103.882 68.1385 103.946 67.7687 104.091 68.0083C104.684 68.9874 103.622 73.0928 102.013 76.041L101.365 77.2281L101.983 77.0893C102.323 77.0129 104.322 76.1898 106.426 75.2603C112.183 72.7159 114.161 72.2173 117.887 72.3704C121.009 72.4987 122.339 73.0938 124.543 75.3493C125.71 76.5444 126.835 77.3993 128.893 78.6559C133.277 81.3333 133.46 81.5652 133.668 84.7139C133.879 87.9041 133.774 88.0772 131.301 88.6102C129.187 89.0658 127.862 90.0272 127.507 91.363C127.317 92.0764 127.717 92.097 128.782 91.4286L129.563 90.9388L129.911 91.4286C130.367 92.0724 131.338 92.0751 132.143 91.4345L132.752 90.9507L133.375 91.4345C134.341 92.1862 135.627 92.0039 135.99 91.0636C136.06 90.8828 136.246 90.9408 136.623 91.2604C137.329 91.8593 139.14 92.1164 139.335 91.6454C139.41 91.4658 139.268 91.022 139.02 90.6592C137.967 89.1179 137.637 88.3829 137.624 87.5439C137.604 86.3771 137.961 85.8141 139.322 84.8651C140.974 83.7122 141.485 82.2249 140.228 82.2249C139.452 82.2249 138.67 81.5558 138.171 80.4652C137.157 78.2486 137.356 75.7635 138.878 71.6294C140.424 67.4303 140.595 66.656 140.601 63.8477C140.606 61.577 140.548 61.1843 140.018 59.9394C139.694 59.1782 139.038 58.0448 138.558 57.4209L137.687 56.2863L138.806 55.3822C142.221 52.6218 141.522 48.1041 137.411 46.3633C136.154 45.8308 135.839 45.7838 133.635 45.7982C132.313 45.8069 130.297 45.9767 129.155 46.1754C127.991 46.3781 126.02 46.541 124.668 46.5464C122.521 46.5548 122.156 46.5033 121.328 46.0733C120.466 45.6251 120.318 45.4123 120.149 44.3764C120.114 44.1635 119.961 43.951 119.809 43.9043C119.516 43.814 118.16 44.9618 117.96 45.4703C117.861 45.7213 117.781 45.7038 117.491 45.3694C117.298 45.1472 117.029 44.6367 116.893 44.2351C116.551 43.2248 116.971 42.4674 118.189 41.8999L119.133 41.4596L118.576 41.1225C117.427 40.4267 115.473 40.9026 114.767 42.0504C114.567 42.375 114.349 42.6412 114.282 42.6419C114.215 42.6426 113.836 42.333 113.438 41.9537C111.954 40.5394 112.464 38.4467 114.449 37.8078C115.507 37.4671 116.443 37.7269 116.638 38.4154C116.935 39.4665 117.86 38.0849 117.694 36.8372C117.584 36.0078 117.601 35.979 118.189 35.979C119.007 35.979 120.748 37.0266 121.287 37.8429C121.912 38.7909 121.867 40.2838 121.179 41.3965L120.638 42.2701L121.345 42.1319C122.382 41.9294 123.389 41.3011 123.899 40.5392C124.437 39.7338 124.495 38.1653 124.018 37.3191C123.555 36.4988 123.608 36.3686 124.292 36.6457C125.456 37.1172 126.079 37.637 126.545 38.5281C126.966 39.3305 126.989 39.5299 126.762 40.3652C126.621 40.8804 126.309 41.5584 126.067 41.8717C125.691 42.3597 125.679 42.4413 125.978 42.4413C126.536 42.4413 127.701 41.9262 128.114 41.4966C128.323 41.2796 128.628 40.7451 128.791 40.3088L129.089 39.5158L129.43 40.1203C129.913 40.9751 130.852 41.7444 131.996 42.2231C133.227 42.7379 133.74 42.7671 133.096 42.2854C132.662 41.9607 131.862 39.6707 132.104 39.4468C132.247 39.315 133.918 40.5697 135.826 42.2409C137.631 43.8219 138.765 44.3398 140.423 44.3398C142.541 44.3398 143.774 42.5411 142.822 40.8404C142.267 39.8487 141.031 39.7111 140.308 40.5603C139.976 40.9507 139.885 41.2615 139.982 41.671C140.101 42.1728 140.055 42.2396 139.586 42.2396C138.971 42.2396 137.757 41.4713 135.602 39.7167C132.316 37.0411 128.323 34.7732 125.44 33.9449C123.589 33.4134 119.637 33.2059 117.756 33.5417C115.72 33.9051 113.312 35.0418 112 36.2586C109.676 38.4148 109.639 41.284 111.902 43.8969L112.551 44.6453L112.112 45.3104C111.473 46.278 111.528 47.5804 112.247 48.5396C112.564 48.9622 112.884 49.3077 112.957 49.3073C113.031 49.307 113.112 49.0355 113.137 48.7038C113.2 47.8645 113.57 47.3023 114.203 47.0796C114.774 46.8791 115.143 46.9738 117.756 47.9916C120.505 49.0621 125.026 49.1357 129.834 48.1882C132.191 47.7237 134.97 47.751 136.192 48.2508C138.433 49.1669 138.953 51.5502 137.305 53.3592C136.592 54.1424 135.904 54.4614 133.595 55.0797C131.838 55.5504 131.422 55.5815 127.428 55.5426C124.015 55.5094 122.789 55.5733 121.396 55.8572C119.884 56.1653 118.954 56.1962 114.512 56.087L109.376 55.9607L109.946 56.4208C110.259 56.6739 110.701 56.9853 110.929 57.1128C111.316 57.3296 111.304 57.3588 110.728 57.5671C110.389 57.6895 109.638 57.7897 109.059 57.7997H108.005L107.863 58.6635C107.785 59.144 107.791 59.705 107.877 59.9102C108.002 60.2129 107.955 60.2564 107.628 60.1404C107.407 60.0619 106.79 59.9073 106.257 59.7969C105.724 59.6866 105.007 59.462 104.663 59.2976C104.085 59.0215 104.021 59.0289 103.808 59.3964C103.618 59.7246 101.833 61.0208 101.571 61.0208C101.529 61.0208 101.474 60.7708 101.45 60.4653C101.426 60.1599 101.168 59.3647 100.878 58.6982C100.588 58.0318 100.285 57.3048 100.204 57.0826C100.083 56.7475 100.029 56.7304 99.8827 56.9817C99.786 57.1483 99.6448 57.6027 99.569 57.9915C99.4932 58.3803 99.2242 59.0118 98.9714 59.3948L98.5116 60.0914L98.2185 59.4957C97.9037 58.8563 97.381 58.1934 97.192 58.1934C97.1282 58.1934 97.0193 58.3979 96.9503 58.6477C96.806 59.1695 95.5669 60.6167 95.2643 60.6167C95.1529 60.6167 95.0616 60.2078 95.0616 59.7078C95.0616 59.2079 94.9632 58.799 94.843 58.799C94.7228 58.799 94.6245 58.9283 94.6245 59.0864C94.6245 59.4707 93.5661 60.6165 93.2111 60.6165C93.0562 60.6165 92.8071 60.7528 92.6574 60.9193C92.2672 61.3537 91.948 61.2928 92.1121 60.8153C92.189 60.5913 92.1389 60.0688 92.001 59.654L91.6748 58.673C91.6226 58.5159 91.2434 58.5576 90.4407 58.8087C89.1437 59.2145 88.7089 59.1427 89.3759 58.6329C89.6198 58.4465 89.9908 57.8011 90.2002 57.1984C90.4096 56.5957 90.7188 56.0612 90.8871 56.0103C91.1227 55.939 91.1102 56.0271 90.8324 56.3935C90.6341 56.6552 90.4713 57.008 90.4704 57.1777C90.4696 57.3473 90.3204 57.7496 90.1386 58.0715C89.9568 58.3934 89.8427 58.6887 89.8848 58.7277C89.9268 58.7667 90.4203 58.5836 90.9815 58.3213L91.9555 57.8441V58.2709C92.0081 58.5057 92.131 59.1252 92.279 59.6474L92.548 60.5971L93.2424 60.2857C93.952 59.9674 94.6241 58.8329 94.6241 57.9533C94.6241 57.5184 94.8794 57.5852 94.9839 58.0473C95.0146 58.183 95.1748 58.692 95.34 59.1784L95.6403 60.063L96.1157 59.5045C96.3772 59.1974 96.7051 58.5948 96.8441 58.1655C97.0858 57.4204 97.4651 57.0999 97.4651 57.641C97.4651 58.031 98.5557 59.4295 98.7661 59.3093C98.8679 59.2512 99.0703 58.7264 99.2161 58.143C99.5194 56.9295 100.008 56.1043 100.319 56.2818C100.436 56.3485 100.482 56.4781 100.42 56.5697C100.359 56.6612 100.61 57.4502 100.979 58.3228L101.801 60.2751C101.935 60.5984 102.057 60.5515 102.846 59.8712C103.337 59.4478 103.783 58.9739 103.837 58.8181C103.918 58.5825 104.028 58.591 104.487 58.8693C105.13 59.2583 107.29 59.885 107.456 59.7309C107.519 59.6731 107.583 59.1196 107.599 58.501L107.627 57.3759L108.248 57.5016C108.59 57.5707 109.308 57.5665 109.845 57.492L110.82 57.3568L109.951 56.775C109.473 56.4551 108.989 56.0411 108.877 55.855C108.757 55.6567 108.331 55.4884 107.849 55.4484C106.547 55.3404 104.24 54.0777 104.24 53.473C104.24 53.3596 104.559 53.5526 104.95 53.9018C105.816 54.677 107.021 55.1634 108.072 55.212H108.859L108.372 54.5317C108.092 54.1689 107.842 53.4806 107.783 52.9143C107.689 52.0117 107.591 51.8683 106.625 51.2131C106.045 50.8195 105.327 50.2297 105.028 49.9023L104.486 49.307L104.21 50.0138C104.058 50.4026 103.872 50.7205 103.797 50.7205C103.722 50.7205 103.429 50.4933 103.147 50.2157C102.865 49.938 102.577 49.7118 102.508 49.7131C102.439 49.7144 102.188 50.0884 101.952 50.5442L101.522 51.373L101.19 50.8953C101.007 50.6325 100.576 50.1676 100.231 49.8621C99.886 49.5566 99.7047 49.3067 99.8278 49.3067C99.9508 49.3067 100.376 49.6248 100.773 50.0138L101.495 50.7209L101.789 50.2028C101.963 49.8954 102.029 49.4231 101.95 49.0414C101.834 48.4848 101.851 48.4525 102.069 48.8018C102.208 49.0239 102.631 49.4498 103.008 49.7482L103.693 50.2908L104.166 49.4453C104.637 48.604 104.64 48.6024 104.855 49.1048C105.141 49.7768 107.214 51.4347 108.979 52.4035C109.251 52.5529 109.136 52.0394 108.634 50.8587C108.501 50.546 108.392 49.9823 108.392 49.6061C108.392 49.0478 108.227 48.7993 107.495 48.2561C106.439 47.4717 106.097 46.914 105.898 45.6485C105.818 45.1359 105.633 44.5658 105.487 44.3817C105.272 44.1083 105.236 44.2613 105.294 45.2128C105.333 45.854 105.247 46.6513 105.104 46.9845L104.843 47.5903L104.642 47.0854C104.531 46.8078 104.041 46.3248 103.553 46.0123C103.064 45.6997 102.722 45.3916 102.791 45.3274C102.86 45.2632 103.363 45.548 103.907 45.9604C104.737 46.5884 104.919 46.6565 105.034 46.3798C105.169 46.0547 105.034 44.6405 104.773 43.6523C104.643 43.1588 104.654 43.1615 105.278 43.7703C105.739 44.2191 105.993 44.7547 106.19 45.6887C106.441 46.8755 106.567 47.0731 107.692 48.0366C108.367 48.6152 108.955 49.056 108.998 49.0164C109.041 48.9767 109.126 47.4798 109.187 45.6902C109.304 42.2582 109.172 41.4416 108.325 40.3813L107.889 39.8364L108.574 39.1163C109.466 38.177 109.876 37.424 110.054 36.3967L110.198 35.561L109.426 36.2746C108.794 36.8588 108.492 36.9881 107.76 36.9881C107.035 36.9881 106.751 36.8695 106.263 36.3615C105.676 35.7519 104.637 35.1655 103.638 34.88C103.269 34.7746 103.147 34.8205 103.147 35.0641C103.147 35.2426 102.943 35.7578 102.694 36.2092L102.241 37.0297L101.292 36.1143C100.709 35.5528 100.018 35.1158 99.5044 34.984C98.1911 34.6471 98.1201 34.6805 98.1201 35.6351C98.1201 37.0831 97.4865 37.3528 96.3461 36.3905C95.4768 35.6569 94.7558 35.4973 93.1072 35.674L91.8341 35.8105L92.0631 36.3712C92.2545 36.8397 92.2113 37.0368 91.8014 37.5689C91.1364 38.4318 90.2719 38.8056 88.941 38.8056C88.328 38.8056 87.5609 38.9294 87.2364 39.0806C86.9118 39.2317 86.1053 39.4061 85.4442 39.4679C84.7831 39.5296 84.0785 39.6398 83.8783 39.7127C83.5652 39.8269 83.5308 39.7328 83.6317 39.0379C83.7861 37.9745 83.0248 37.19 81.8382 37.19C80.2986 37.19 79.5886 38.5335 80.1914 40.3059C80.3222 40.6992 80.4348 41.098 80.5288 41.5012C80.6009 41.8294 81.2944 42.7004 82.1438 43.5297C82.9625 44.329 83.7362 45.1606 83.8633 45.3778C83.9904 45.595 84.4103 45.9436 84.7964 46.1524L85.4987 46.5321L85.406 45.799C85.3043 44.9933 85.4842 44.867 85.9235 45.4354C86.0806 45.6386 86.4794 45.9671 86.8101 46.1654C87.3307 46.4778 87.4111 46.484 87.4111 46.2128C87.4111 46.0407 87.5172 45.644 87.647 45.3313L87.8829 44.7629L88.2922 45.5364C88.5174 45.9617 89.2493 46.9286 89.919 47.685C91.2184 49.1525 92.01 50.7925 91.6014 51.1699C91.4356 51.3231 90.9877 51.3112 90.0591 51.1291C89.3393 50.988 88.4492 50.9134 88.0808 50.9633C87.3285 51.0654 87.2693 50.9705 87.7319 50.4054C88.2201 49.8088 88.1425 49.7104 87.1832 49.7104C86.0734 49.7104 83.3181 49.1914 82.2604 48.783C81.2321 48.386 80.9948 48.4848 80.692 49.4366L80.1378 51.1614L79.8311 52.1072L80.9438 52.0027C81.5558 51.9452 82.3429 51.8145 82.693 51.7122C83.043 51.6099 83.3612 51.5556 83.4 51.5913C83.4388 51.6271 83.2827 51.9968 83.0533 52.4127L82.6361 53.1689L83.3298 53.0309C83.7114 52.955 84.2854 52.7692 84.6054 52.6182C85.1623 52.3554 85.207 52.3745 85.6464 53.0623C86.1866 53.9084 86.6187 53.8737 86.7145 52.9764C86.8136 52.049 87.1263 52.1861 87.7147 53.4152C88.2802 54.5971 88.8688 55.0144 88.982 54.3138C89.0195 54.0812 89.3243 53.7026 89.6591 53.4724C90.3366 53.0067 90.8469 53.1465 91.1396 53.8775C91.4425 54.6341 90.7669 55.4142 88.8016 56.5766C84.8646 58.9051 82.5762 62.0897 81.9229 66.1486C81.3337 69.8098 83.174 73.593 86.8662 76.3102C88.6331 77.6106 91.44 78.983 91.2616 78.4593C90.5042 76.2354 90.5291 71.992 91.3038 71.2762C91.4201 71.1688 91.3801 71.6115 91.2149 72.2601C90.5997 74.6762 90.8668 76.6013 92.4439 81.1134C93.8702 85.1943 93.6727 86.9383 91.6542 88.0912C91.0059 88.4613 90.5884 88.5224 88.8453 88.5018C86.9538 88.4794 86.7478 88.5165 86.1405 88.9886C85.5518 89.4464 84.7885 90.9492 84.7885 91.6505C84.7885 92.0304 85.2209 91.9802 86.0706 91.5015L86.0715 91.5017ZM116.826 91.4193L117.619 90.9218L118.157 91.4193C118.863 92.0711 119.689 92.0566 120.367 91.3803C120.663 91.0852 120.929 90.8807 120.958 90.926C121.057 91.0873 121.155 91.2493 121.251 91.4121C121.419 91.6933 121.764 91.8346 122.386 91.8774C123.135 91.929 123.337 91.8583 123.634 91.4383L123.989 90.9375L124.771 91.4272C126.909 92.7682 128.048 91.3614 127.093 88.5601C126.607 87.1359 126.874 86.3351 128.44 84.5222C129.1 83.7578 129.641 82.9419 129.642 82.709C129.642 82.3378 129.52 82.2881 128.641 82.3051C127.8 82.3214 127.554 82.2333 127.111 81.7579C126.391 80.9844 126.434 80.0988 127.239 79.1159L127.882 78.3307L126.741 77.5754C126.113 77.1599 124.982 76.177 124.226 75.391C122.529 73.6259 120.861 72.7889 118.661 72.599L117.186 72.4717L117.188 73.5612C117.191 74.9637 117.865 76.3128 119.707 78.5981C121.8 81.1965 121.946 81.5988 122.031 84.995L122.103 87.8672L121.497 88.4281C120.95 88.9348 120.703 88.9995 118.936 89.0989C117.255 89.1936 116.901 89.2783 116.408 89.7048C115.752 90.2712 115.556 90.5795 115.354 91.3618C115.236 91.8178 115.284 91.9173 115.621 91.9173C115.847 91.9173 116.389 91.6933 116.825 91.4198L116.826 91.4193ZM72.1133 83.1102C72.1133 82.7471 72.2795 82.6501 73.0974 82.5368L74.0815 82.4004L73.4252 81.8901C72.6454 81.2838 72.5732 80.8102 73.2606 80.809C73.9451 80.809 75.1044 80.1154 75.2807 79.6023C75.3625 79.3639 75.311 79.0452 75.1642 78.8815C74.7804 78.4542 74.0589 78.5188 73.9249 78.9922C73.7809 79.5012 73.5398 79.5025 72.9929 78.9973C72.1705 78.2374 72.1519 76.6641 72.9548 75.748C73.3332 75.3162 73.3298 75.2879 72.8474 74.8423C72.3286 74.3628 71.958 73.4138 72.2017 73.1885C72.2794 73.1169 72.6893 73.174 73.1128 73.3155C73.7146 73.5165 73.9521 73.5197 74.2 73.3295C74.951 72.7536 74.1374 72.0131 72.933 72.1764C72.4483 72.2421 72.2481 72.1764 72.1784 71.9311C72.1258 71.745 71.7018 71.5021 71.2242 71.3844C70.3707 71.1739 70.3646 71.1764 70.3646 71.7501C70.3646 72.3788 69.9969 72.4974 69.2978 72.0941C68.7299 71.7664 68.179 72.0208 68.179 72.6108C68.179 73.1613 68.7464 73.4329 69.7634 73.369C70.5435 73.3199 70.5725 73.8859 69.8316 74.6995L69.2988 75.2846L69.7209 75.8763C70.346 76.7525 70.2934 78.2077 69.6105 78.9304L69.0752 79.4971L68.724 79.0428C68.2359 78.4112 67.5682 78.4536 67.3853 79.1276C67.2654 79.5689 67.3645 79.7706 67.9309 80.2383C68.3115 80.5526 68.8672 80.8097 69.166 80.8097C69.9049 80.8097 69.876 81.3766 69.1079 81.9495L68.5069 82.3978L69.4357 82.5384C69.9466 82.6158 70.3644 82.7612 70.3644 82.8617C70.3644 83.2468 70.6051 84.4157 71.2151 84.445C71.7597 84.471 72.1001 83.6628 72.1128 83.1106L72.1133 83.1102ZM83.8673 78.8812C84.7112 78.5566 86.5375 77.0478 86.5375 76.6749C86.5375 76.5577 86.0334 76.0168 85.4173 75.4728C84.1208 74.3282 82.7104 72.4006 82.345 71.2735C82.1544 70.6858 81.2338 69.6799 78.6402 67.2257L75.1892 63.96L74.1946 64.2058C73.6476 64.341 72.9801 64.455 72.7114 64.4589C72.2483 64.4659 72.2567 64.4917 72.8724 64.9567L73.522 65.4473L74.4327 64.9541C75.3154 64.4761 75.347 64.4731 75.4558 64.8578C75.5196 65.083 75.3821 65.4733 75.138 65.76C74.9014 66.038 74.7667 66.3532 74.8384 66.4607C74.9102 66.5682 74.683 66.7927 74.3333 66.9598C73.6852 67.2694 73.2354 68.2889 73.7468 68.2889C74.2069 68.2889 75.2214 67.0675 75.1046 66.6544C75.0447 66.4427 75.0737 66.2252 75.1689 66.1709C75.564 65.9453 75.5394 66.9042 75.1378 67.3758C74.9012 67.6537 74.7665 67.9689 74.8383 68.0765C74.91 68.184 74.6828 68.4084 74.3331 68.5756C73.6893 68.8832 73.2349 69.9046 73.7419 69.9046C74.2388 69.9046 75.2367 68.7376 75.113 68.3009C75.0484 68.0725 75.0734 67.841 75.1687 67.7866C75.4349 67.6346 75.5785 68.3916 75.3537 68.7625C75.2334 68.9612 75.2344 69.2325 75.3566 69.4475C75.5777 69.8371 75.3535 70.5856 74.9461 70.8181C74.7716 70.9177 74.8898 71.1135 75.3132 71.4254C75.926 71.8769 75.9378 71.9243 75.9378 73.9169C75.9378 75.582 76.0067 76.0118 76.3203 76.3016C76.6722 76.6269 76.7027 76.6282 76.7027 76.3161C76.7027 75.9754 77.3157 75.559 77.8171 75.559C77.965 75.559 78.8892 76.3231 79.8706 77.2571C80.8581 78.1967 81.8913 78.9962 82.184 79.0471L82.8837 79.1666C82.9777 79.1818 83.4202 79.0535 83.8672 78.8816L83.8673 78.8812ZM73.3156 70.9C73.3156 70.3632 72.1808 69.7903 70.8233 69.6416C69.7275 69.5217 69.7094 69.5284 69.7094 70.0626C69.7094 70.5048 69.8818 70.6787 70.6382 71.0001C71.8537 71.5165 73.3155 71.4619 73.3155 70.9H73.3156ZM74.5595 70.7761C75.1131 70.286 75.3753 69.7031 75.0424 69.7031C74.6594 69.7031 73.6427 70.5931 73.6427 70.9286C73.6427 71.452 73.8316 71.4206 74.5595 70.7761ZM73.3563 69.1886C73.4033 68.8858 73.2112 68.6836 72.6357 68.43C71.3942 67.883 69.91 67.6295 69.5525 67.9037C68.8941 68.4086 69.3328 69.0865 70.3969 69.2084C70.8252 69.2575 71.4062 69.3849 71.6877 69.4916C72.5055 69.8015 73.2833 69.6603 73.3563 69.1885V69.1886ZM73.3798 67.5666C73.4466 67.1345 73.1634 66.9799 70.8519 66.1862C69.1262 65.5935 68.3621 65.873 68.9137 66.8953C69.1057 67.2513 69.4283 67.414 70.1515 67.5197C70.6893 67.5982 71.4245 67.7519 71.785 67.8612C72.7484 68.153 73.305 68.0503 73.3798 67.5668L73.3798 67.5666ZM74.5375 66.0467C74.8864 65.7017 75.1716 65.2946 75.1716 65.142C75.1716 64.647 73.7943 65.5227 73.6186 66.1294C73.4079 66.8571 73.7494 66.8263 74.5375 66.0467ZM73.3798 65.9446C73.4559 65.4524 72.6169 65.0079 70.9673 64.6664C69.757 64.4158 69.2232 64.5579 69.3138 65.1068C69.3633 65.4063 69.7663 65.6251 70.9099 65.9734C72.7399 66.5307 73.2903 66.5243 73.3798 65.9448L73.3798 65.9446ZM74.9932 63.654C77.1071 62.736 77.2899 60.4207 75.2967 59.8129C74.469 59.5604 73.9408 59.6965 73.624 60.2435C73.3814 60.6623 73.5436 61.4239 73.8754 61.4239C73.9875 61.4239 74.0793 61.5648 74.0793 61.7371C74.0793 62.541 70.8519 62.9053 69.5283 62.2507C69.0634 62.0208 68.8608 61.4239 69.2478 61.4239C69.537 61.4239 69.7369 60.8157 69.5893 60.3855C69.3879 59.7994 68.7825 59.5963 67.9044 59.8203C65.923 60.3258 65.9787 62.5975 67.9961 63.5615C69.6502 64.3519 73.2765 64.4 74.9934 63.6542L74.9932 63.654ZM73.6785 61.8739C73.8008 61.7608 73.7477 61.5869 73.5425 61.4296C73.093 61.085 73.117 60.5724 73.61 59.9856C73.9801 59.545 74.0263 58.8856 74.1538 52.2339C74.3733 40.7709 75.2469 32.1489 76.3984 30.0806C76.8568 29.2571 76.7925 29.2538 75.6079 30.0402C74.0819 31.0533 72.92 32.3725 71.8905 34.2609C69.9469 37.8262 69.2715 42.623 69.2715 52.8623C69.2715 58.676 69.3122 59.4366 69.6514 59.9832C69.9737 60.5022 69.9909 60.694 69.7644 61.2483C69.6176 61.6076 69.5511 61.9512 69.6164 62.0116C70.0504 62.4126 73.2117 62.3062 73.6783 61.8749L73.6785 61.8739ZM91.4385 51.007C91.5047 50.908 91.3584 50.4082 91.1135 49.8963C90.7314 49.0981 90.5776 48.9655 90.0333 48.9655C88.3284 48.9655 85.5876 48.2222 82.762 46.9934C81.1303 46.2839 80.5668 46.1208 80.3712 46.3016C79.872 46.7629 80.7016 47.858 81.9867 48.4335C83.1266 48.9441 86.3132 49.5715 87.7668 49.5715C88.6102 49.5715 88.6301 49.6086 88.1501 50.2854L87.7972 50.7832L88.7511 50.8071C89.2758 50.8202 90.0001 50.9003 90.3607 50.9851C91.2972 51.2052 91.306 51.2054 91.4388 51.007H91.4385Z" fill="#FDD406"/>
<path d="M101.326 56.1089C101.326 55.8126 100.435 55.0097 99.531 54.4923C98.8213 54.086 98.7042 54.0737 98.7025 54.405C98.7001 54.9081 98.2416 56.1721 98.0615 56.1721C97.9599 56.1721 97.8098 55.9251 97.7278 55.6232C97.6458 55.3214 97.3018 54.7264 96.9634 54.3011L96.3481 53.5278L95.869 54.2443C95.4222 54.9122 94.6485 55.5663 94.3051 55.5663C94.2231 55.5663 94.207 55.2145 94.2695 54.7846C94.3373 54.3176 94.285 53.947 94.1394 53.8639C94.0054 53.7875 93.8958 53.8142 93.8958 53.9232C93.8958 54.1748 92.8212 55.3642 92.5939 55.3642C92.5002 55.3642 92.3691 55.0233 92.3024 54.6069L92.0508 53.1428C91.9791 52.754 92.132 53.0176 92.3909 53.7287L92.8614 55.0214L93.3775 54.2336C93.6614 53.8003 93.8941 53.3269 93.8946 53.1815C93.8952 53.0361 93.9912 52.9717 94.108 53.0384C94.2248 53.1051 94.3871 53.6259 94.469 54.1957L94.6177 55.2318L95.1856 54.6243C95.498 54.2902 95.8639 53.843 95.9989 53.6304C96.2397 53.251 96.2534 53.2513 96.7324 53.6478C97.0009 53.87 97.4136 54.4014 97.6495 54.8285C97.8855 55.2557 98.1103 55.5738 98.1487 55.5353C98.1872 55.4968 98.2738 55.0563 98.341 54.5565L98.4741 53.6065C98.5076 53.4827 100.185 54.5463 100.805 55.0849C101.204 55.4311 101.583 55.6659 101.647 55.6066C101.711 55.5473 101.764 55.0367 101.764 54.4717C101.764 53.5961 101.668 53.3615 101.119 52.8828C100.488 52.3324 100.471 52.3293 100.238 52.7319C99.935 53.2544 99.5781 53.262 99.5781 52.7459C99.5781 52.3693 98.3855 50.9214 98.0753 50.9214C97.9948 50.9214 97.7437 51.2394 97.5172 51.6281C97.2907 52.0169 97.047 52.3346 96.9758 52.3341C96.6699 52.3323 94.9886 50.5034 94.9895 50.1733C94.9895 49.9106 95.1027 49.9778 95.3976 50.4163C95.6215 50.7496 96.069 51.2469 96.3916 51.5218C97.0453 52.0782 97.2829 51.9428 97.5353 50.8707C97.6072 50.5652 97.732 50.3152 97.8127 50.3152C98.0922 50.3152 99.5556 51.8318 99.7615 52.3347L99.9681 52.8396L100.125 52.2842C100.316 51.6051 100.527 51.5799 100.833 52.1995C100.96 52.4584 101.591 52.9966 102.234 53.3956L103.403 54.1209L103.637 53.3914C103.766 52.9901 103.937 52.7596 104.017 52.879C104.136 53.0572 103.832 54.266 103.603 54.526C103.569 54.5651 103.19 54.3497 102.761 54.0477L101.982 53.4985L101.979 54.4817C101.977 55.0225 101.917 55.6695 101.844 55.9193C101.703 56.4079 101.326 56.5454 101.326 56.1085L101.326 56.1089ZM95.6322 48.2705C94.243 47.1387 94.0321 46.8798 94.0628 46.3435L94.0955 45.7726L94.1862 46.3241C94.2392 46.646 94.6091 47.1285 95.0754 47.4837L95.8741 48.092L96.3648 47.5382C96.6347 47.2335 96.8592 46.8708 96.8634 46.732C96.8747 46.37 96.9414 46.4003 97.882 47.1967C98.7177 47.9041 98.7307 47.9076 98.8549 47.4491C98.9241 47.1935 98.8997 46.7124 98.8003 46.3799C98.5272 45.466 98.5807 45.3281 98.9945 45.8793C99.2006 46.154 99.5321 46.5421 99.731 46.742C100.077 47.09 100.099 47.0857 100.227 46.6411C100.302 46.3857 100.363 45.9182 100.365 45.6021L100.368 45.0278L101.122 45.8612C101.825 46.6396 101.89 46.6684 102.105 46.2974C102.232 46.079 102.337 45.5536 102.338 45.1297C102.341 44.5822 102.4 44.444 102.542 44.6525C102.781 45.0006 102.615 45.9485 102.175 46.7562L101.859 47.3358L101.445 46.7058C100.914 45.9 100.738 45.913 100.398 46.7825C100.076 47.6042 99.8671 47.6668 99.5539 47.035C99.3512 46.6261 99.3125 46.6761 99.1685 47.5351L99.0085 48.4897L98.0503 47.764L97.0918 47.0383L96.6609 47.5161C96.424 47.7789 96.2268 48.1076 96.2228 48.2464C96.214 48.5473 95.9836 48.5567 95.6322 48.2705ZM107.927 44.0549C107.421 43.6104 107.073 43.1862 107.153 43.1125C107.233 43.0387 107.323 43.0175 107.353 43.0655C107.383 43.1136 107.796 43.5377 108.271 44.008C109.365 45.091 109.141 45.1216 107.927 44.0549ZM91.4666 42.395C91.0065 41.7882 91.0384 41.3861 91.5982 40.7284C92.0028 40.2531 92.1876 40.1886 92.8942 40.2762C93.3474 40.3323 94.3227 40.7231 95.0614 41.1445C95.9148 41.6311 96.7973 41.9571 97.4808 42.0382C98.0727 42.1083 98.5569 42.1348 98.5569 42.0969C98.5569 42.0591 98.311 41.6683 98.0106 41.2285C97.297 40.1839 97.3215 40.0718 98.1264 40.6976C98.9525 41.3399 99.9408 41.5278 102.149 41.4623L103.228 41.4303L102.602 40.8267C101.727 39.9824 101.996 39.9066 102.963 40.7252C103.87 41.4931 103.813 41.5471 101.905 41.733C101.094 41.8121 100.222 41.7547 99.4968 41.5749C98.4123 41.3059 98.3702 41.31 98.5756 41.6647C98.6941 41.869 98.8858 42.0363 99.0018 42.0363C99.1177 42.0363 99.2128 42.1399 99.2128 42.2665C99.2128 42.6558 96.8703 42.3135 95.751 41.7605C93.194 40.4973 92.8721 40.388 92.2635 40.575C91.9248 40.6791 91.5859 40.9839 91.4691 41.2894C91.0794 42.3082 92.5604 43.1003 93.1712 42.1995C93.3482 41.9385 93.3069 41.7598 92.9957 41.4422C92.5695 41.0071 92.6095 40.9451 93.1847 41.1491C93.5931 41.2938 93.648 42.2506 93.2681 42.6017C92.8333 43.0033 91.8412 42.8895 91.4666 42.395ZM101.539 39.8788C101.219 39.5834 101.47 39.5109 102.903 39.4849C104.677 39.4526 105.754 39.1643 107.025 38.3814C108.043 37.7542 108.319 37.8777 107.353 38.528C106.471 39.1213 105.096 39.5773 103.768 39.7168C103.125 39.7843 102.393 39.8778 102.14 39.9246C101.887 39.9714 101.617 39.9508 101.539 39.8786L101.539 39.8788Z" fill="black"/>
<path d="M136.939 93.3494C136.939 93.3494 138.262 96.1088 139.724 97.233C141.889 98.8988 146.329 98.7784 148.214 100.722C150.472 103.014 148.038 106.041 148.059 106.304L148.183 107.903C148.183 107.903 146.66 107.922 146.019 108.024C145.055 108.178 144.679 108.982 142.884 108.863C138.372 108.563 138.554 104.397 138.298 100.838C138.072 99.4828 137.547 97.7158 137.249 96.3608C136.994 95.199 136.939 93.3494 136.939 93.3494Z" fill="#FDD406"/>
<path d="M143.238 109.084C143.122 109.084 143 109.08 142.871 109.072C138.57 108.786 138.347 105.074 138.15 101.798C138.131 101.481 138.112 101.165 138.09 100.853C137.954 100.05 137.705 99.0686 137.463 98.1199C137.308 97.5094 137.161 96.9326 137.045 96.4057C136.788 95.2383 136.733 93.4318 136.73 93.3557L137.129 93.2588C137.142 93.2861 138.447 95.9865 139.852 97.067C140.826 97.8166 142.335 98.2068 143.793 98.584C145.525 99.032 147.316 99.4953 148.364 100.576C150.328 102.57 148.946 105.078 148.425 106.021C148.362 106.136 148.291 106.263 148.27 106.316L148.409 108.11L148.186 108.113C148.171 108.113 146.671 108.132 146.052 108.231C145.734 108.282 145.486 108.412 145.198 108.562C144.726 108.808 144.197 109.084 143.238 109.084ZM137.2 94.2936C137.244 94.9123 137.322 95.7133 137.454 96.3158C137.569 96.8359 137.715 97.4094 137.869 98.0166C138.113 98.9736 138.365 99.9633 138.505 100.804C138.53 101.136 138.549 101.454 138.568 101.773C138.764 105.027 138.966 108.392 142.898 108.654C143.978 108.726 144.5 108.454 145.004 108.191C145.311 108.03 145.601 107.879 145.986 107.818C146.492 107.737 147.506 107.707 147.957 107.698L147.85 106.321C147.842 106.211 147.901 106.104 148.058 105.819C148.583 104.868 149.811 102.641 148.065 100.869C147.097 99.8713 145.364 99.423 143.688 98.9895C142.189 98.6018 140.639 98.2006 139.596 97.399C138.618 96.6463 137.716 95.2145 137.2 94.2936Z" fill="black"/>
<path d="M72.0698 93.327C72.0698 93.327 70.7458 96.0904 69.283 97.2162C67.1158 98.8844 62.672 98.7638 60.7858 100.71C58.5258 103.005 60.9612 106.037 60.9408 106.3L60.8168 107.902C60.8168 107.902 62.3406 107.92 62.9824 108.023C63.9472 108.177 64.3236 108.982 66.1198 108.862C70.636 108.562 70.454 104.391 70.7094 100.826C70.9362 99.4692 71.461 97.6994 71.7594 96.3426C72.0152 95.179 72.0698 93.327 72.0698 93.327Z" fill="#FDD406"/>
<path d="M65.7662 109.084C64.8059 109.084 64.2774 108.808 63.8047 108.561C63.5167 108.411 63.268 108.281 62.9493 108.23C62.3299 108.131 60.8293 108.111 60.8143 108.111L60.5905 108.108L60.7297 106.312C60.7085 106.259 60.6379 106.131 60.5749 106.017C60.0537 105.072 58.6694 102.561 60.6365 100.563C61.6842 99.482 63.4767 99.018 65.2102 98.5693C66.6701 98.1916 68.1799 97.8008 69.1551 97.0502C70.5621 95.9674 71.868 93.2635 71.8809 93.2363L72.2795 93.3334C72.2772 93.4102 72.2199 95.2244 71.9641 96.3875C71.8481 96.9152 71.7012 97.4932 71.5455 98.1047C71.3037 99.0547 71.0539 100.037 70.916 100.861C70.8961 101.153 70.8772 101.469 70.858 101.787C70.6613 105.067 70.4385 108.785 66.1338 109.072C66.0047 109.08 65.8822 109.084 65.7662 109.084ZM61.043 107.696C61.4943 107.705 62.5088 107.735 63.0155 107.816C63.4015 107.878 63.6916 108.029 63.9987 108.19C64.5029 108.453 65.024 108.726 66.1061 108.653C70.0422 108.391 70.2442 105.021 70.4397 101.762C70.4588 101.443 70.4779 101.125 70.5004 100.811C70.6434 99.9504 70.8955 98.9596 71.1393 98.0014C71.294 97.3932 71.4401 96.8186 71.5547 96.2977C71.6873 95.6941 71.7654 94.8922 71.8094 94.2727C71.2926 95.1947 70.3904 96.6285 69.4108 97.3822C68.3678 98.1852 66.8158 98.5869 65.3151 98.9752C63.6377 99.4094 61.9032 99.8582 60.9363 100.856C59.1874 102.632 60.4169 104.862 60.942 105.815C61.0994 106.1 61.1583 106.207 61.1498 106.316L61.043 107.696Z" fill="black"/>
<path d="M72.0698 26.6406C72.0698 26.6406 70.7458 23.8772 69.283 22.7514C67.1158 21.0832 62.672 21.2038 60.7858 19.2576C58.5258 16.9626 60.9612 13.9306 60.9408 13.6674L60.8168 12.066C60.8168 12.066 62.3408 12.0472 62.9824 11.9446C63.9472 11.7904 64.3236 10.9856 66.1198 11.1052C70.636 11.4058 70.454 15.5768 70.7094 19.1412C70.9362 20.4984 71.461 22.2682 71.7594 23.625C72.0152 24.7886 72.0698 26.6406 72.0698 26.6406Z" fill="#FDD406"/>
<path d="M71.8812 26.7313C71.8683 26.704 70.5615 23.9995 69.1554 22.9175C68.1802 22.1668 66.6704 21.7761 65.2105 21.3982C63.477 20.9496 61.6845 20.4857 60.6357 19.4035C58.6697 17.407 60.054 14.8958 60.5752 13.9505C60.6382 13.8362 60.7088 13.7081 60.73 13.6552L60.5909 11.8592L60.8145 11.8564C60.8296 11.8563 62.3306 11.8366 62.9496 11.7377C63.2682 11.6867 63.5169 11.5568 63.8049 11.4064C64.3347 11.1299 64.9351 10.8164 66.1341 10.896C70.4388 11.1825 70.6617 14.9003 70.8583 18.1804C70.8775 18.4983 70.8964 18.8147 70.9187 19.1263C71.0542 19.9307 71.304 20.9129 71.5458 21.8628C71.7015 22.4745 71.8484 23.0522 71.9644 23.58C72.2216 24.7493 72.2775 26.5582 72.2798 26.6347L71.8812 26.7313ZM61.0433 12.2717L61.1501 13.6512C61.1586 13.7605 61.0997 13.8674 60.9423 14.1528C60.4173 15.1053 59.1877 17.3356 60.9355 19.1105C61.9035 20.1094 63.6381 20.5583 65.3156 20.9924C66.8163 21.3808 68.3681 21.7823 69.4113 22.5853C70.3911 23.3395 71.2939 24.7743 71.8105 25.6964C71.7667 25.0788 71.689 24.2791 71.555 23.67C71.4404 23.1489 71.2943 22.5744 71.1396 21.9661C70.8958 21.0079 70.6437 20.0171 70.5031 19.1758C70.4783 18.843 70.4591 18.525 70.44 18.2055C70.2445 14.9464 70.0425 11.5763 66.1064 11.3144C65.0243 11.2424 64.5033 11.5146 63.999 11.778C63.6918 11.9384 63.4018 12.0899 63.0159 12.1516C62.5093 12.2325 61.4948 12.2622 61.0433 12.2717Z" fill="black"/>
<path d="M136.929 26.6406C136.929 26.6406 138.253 23.8772 139.716 22.7514C141.883 21.0832 146.327 21.2038 148.213 19.2576C150.473 16.9626 148.037 13.9306 148.058 13.6674L148.182 12.066C148.182 12.066 146.658 12.0472 146.016 11.9446C145.051 11.7904 144.675 10.9856 142.879 11.1052C138.363 11.4058 138.545 15.5768 138.289 19.1412C138.062 20.4984 137.538 22.2682 137.239 23.625C136.983 24.7886 136.929 26.6406 136.929 26.6406Z" fill="#FDD406"/>
<path d="M137.117 26.7313C137.13 26.704 138.437 23.9995 139.843 22.9175C140.818 22.1668 142.328 21.7761 143.788 21.3982C145.522 20.9496 147.314 20.4857 148.363 19.4035C150.329 17.407 148.945 14.8958 148.423 13.9505C148.36 13.8362 148.29 13.7081 148.269 13.6552L148.408 11.8592L148.184 11.8564C148.169 11.8563 146.668 11.8366 146.049 11.7377C145.73 11.6867 145.482 11.5568 145.194 11.4064C144.664 11.1299 144.063 10.8164 142.864 10.896C138.56 11.1825 138.337 14.9003 138.14 18.1804C138.121 18.4983 138.102 18.8147 138.08 19.1263C137.944 19.9307 137.695 20.9129 137.453 21.8628C137.297 22.4745 137.15 23.0522 137.034 23.58C136.777 24.7493 136.721 26.5582 136.719 26.6347L137.117 26.7313ZM147.955 12.2717L147.848 13.6512C147.84 13.7605 147.899 13.8674 148.056 14.1528C148.581 15.1053 149.811 17.3356 148.063 19.1105C147.095 20.1094 145.36 20.5583 143.683 20.9924C142.182 21.3808 140.63 21.7823 139.587 22.5853C138.607 23.3395 137.705 24.7743 137.188 25.6964C137.232 25.0788 137.31 24.2791 137.444 23.67C137.558 23.1489 137.704 22.5744 137.859 21.9661C138.103 21.0079 138.355 20.0171 138.496 19.1758C138.52 18.843 138.539 18.525 138.559 18.2055C138.754 14.9464 138.956 11.5763 142.892 11.3144C143.974 11.2424 144.495 11.5146 145 11.778C145.307 11.9384 145.597 12.0899 145.983 12.1516C146.489 12.2325 147.504 12.2622 147.955 12.2717Z" fill="black"/>
</svg>
