<svg width="160" height="120" viewBox="0 0 160 120" fill="none" xmlns="http://www.w3.org/2000/svg">
<path d="M0 0H160V120H0V0Z" fill="white"/>
<path d="M0 0H160V36H0V0Z" fill="#0F3296"/>
<path d="M0 84H160V120H0V84Z" fill="#1E9A1C"/>
<path d="M80.0321 38C80.3411 37.9996 80.6442 38.0844 80.908 38.2451C81.1719 38.4057 81.3864 38.6361 81.5279 38.9107C85.085 39.335 86.9557 41.9107 87.6071 44.9064C88.3679 48.4079 87.5621 53.1693 85.0914 58.1686L94.5821 70.7621C95.0859 70.5264 95.584 70.2785 96.0757 70.0186L99.5643 77.4029C93.5279 80.5283 86.8297 82.1596 80.0321 82.1596C73.2346 82.1596 66.5364 80.5283 60.5 77.4029L63.9886 70.0186C64.4803 70.2785 64.9783 70.5264 65.4821 70.7621L74.9729 58.1686C72.5021 53.1693 71.6964 48.4079 72.4571 44.9064C73.1086 41.9107 74.9793 39.335 78.5364 38.9107C78.6779 38.6361 78.8924 38.4057 79.1562 38.2451C79.4201 38.0844 79.7232 37.9996 80.0321 38ZM83.7907 56.4414C85.715 52.145 86.3407 48.0714 85.7321 45.3779C85.1943 42.995 83.9879 41.225 81.5921 40.8479V47L84.5921 50H82.1921V54.32L83.7907 56.4414ZM78.4721 40.8479C76.0764 41.225 74.87 42.995 74.3321 45.3779C73.7236 48.0714 74.3493 52.145 76.2736 56.4414L77.8721 54.32V50H75.4721L78.4721 47V40.8479ZM65.1521 73.1771L64.1257 75.3457L65.7864 74.9L65.1521 73.1771ZM64.3164 76.2886C65.0782 76.6162 65.85 76.9199 66.6307 77.1993L66.1186 75.8064L64.3164 76.2886ZM68.0943 75.9629L70.2479 75.2814L69.6286 73.8929C68.7399 73.6229 67.8621 73.3183 66.9971 72.98L68.0943 75.9629ZM70.64 76.1643L68.4264 76.865L68.81 77.9064C69.7788 78.1907 70.7581 78.438 71.7457 78.6479L70.64 76.1643ZM73.0314 77.1071L75.4036 76.1343L74.8357 75.0607C73.8389 74.914 72.8487 74.7253 71.8679 74.495L73.0314 77.1071ZM75.8557 76.9871L73.4214 77.9836L73.8929 79.0443C74.9702 79.2123 76.054 79.3359 77.1414 79.415L75.8557 76.9871ZM78.2471 77.66L81.2064 76.1129L80.7779 75.4314C79.5188 75.4579 78.2592 75.4179 77.0043 75.3114L78.2471 77.66ZM81.7229 76.9271L78.6971 78.5086L79.2286 79.5114C80.5798 79.5387 81.9316 79.4972 83.2786 79.3871L81.7229 76.9271ZM84.2064 77.4886L86.5336 75.89L85.8586 74.9621C84.8585 75.127 83.8519 75.2492 82.8414 75.3286L84.2064 77.4886ZM87.0993 76.6657L84.7207 78.3007L85.2714 79.1729C86.3602 79.0291 87.4425 78.8404 88.5157 78.6071L87.0993 76.6657ZM89.2636 76.5779L91.2007 74.8593L90.41 73.9014C89.5517 74.1618 88.684 74.3899 87.8086 74.585L89.2636 76.5779ZM91.8136 75.5986L89.8314 77.3579L90.4057 78.1464C91.3489 77.8916 92.2824 77.6021 93.2043 77.2786L91.8136 75.5986ZM93.7893 75.1636L95.1029 73.58L94.5307 72.3693C93.778 72.7027 93.014 73.01 92.24 73.2907L93.7893 75.1636ZM95.5571 74.5379L94.4129 75.9157L94.985 76.6079C95.4182 76.4326 95.8482 76.2497 96.275 76.0593L95.5571 74.5379Z" fill="black"/>
</svg>
