<svg width="160" height="120" viewBox="0 0 160 120" fill="none" xmlns="http://www.w3.org/2000/svg">
<g clip-path="url(#clip0_909_288026)">
<path fill-rule="evenodd" clip-rule="evenodd" d="M0 0H53.325V120H0V0Z" fill="#0F3296"/>
<path fill-rule="evenodd" clip-rule="evenodd" d="M53.9998 0H107.35V120H53.9998V0Z" fill="#FDD406"/>
<path fill-rule="evenodd" clip-rule="evenodd" d="M106.675 0H160V120H106.675V0Z" fill="#D91C16"/>
<g clip-path="url(#clip1_909_288026)">
<path d="M73.9317 28.0018C73.5838 27.9861 73.2397 28.08 72.9482 28.2701C73.2933 28.3717 73.5288 28.6893 73.5252 29.0482V29.9963H72.5749C72.2172 30 71.8997 29.7685 71.7947 29.4274C71.4363 30.0324 71.4363 30.784 71.7947 31.3891C71.8965 31.0448 72.2151 30.8099 72.5749 30.8135H73.5252V35.371C73.528 35.7143 73.3121 36.0215 72.9877 36.136C73.4411 36.1976 73.8313 36.8045 73.9382 37.1365C74.0454 36.8053 74.4355 36.1976 74.8888 36.136C74.5612 36.0245 74.3419 35.7163 74.3445 35.371V30.8133H75.2951C75.6529 30.8095 75.9704 31.0412 76.0753 31.3824C76.4335 30.7773 76.4335 30.0258 76.0753 29.4206C75.9733 29.7648 75.6548 29.9996 75.2951 29.9959H74.3445V29.0479C74.3407 28.6911 74.5729 28.3743 74.9149 28.2697C74.6234 28.0798 74.2795 27.986 73.9317 28.0017V28.0018Z" fill="black"/>
<path d="M73.9317 28.1986C73.7402 28.1994 73.55 28.2303 73.3681 28.2901C73.5913 28.4794 73.7206 28.7564 73.7221 29.0486V29.9968C73.7213 30.0101 73.7191 30.0233 73.7155 30.0361V30.1865H73.5646C73.5518 30.19 73.5386 30.1922 73.5253 30.1931H72.5747C72.2852 30.1912 72.0105 30.0649 71.821 29.8466C71.7576 30.0274 71.7244 30.2174 71.7227 30.409C71.7235 30.6 71.7544 30.7898 71.8143 30.9712C72.0041 30.7487 72.2818 30.6198 72.5747 30.6183H73.7219C73.7206 30.638 73.7152 30.657 73.7152 30.6769V30.775C73.7187 30.7878 73.721 30.801 73.7219 30.8142V35.3717C73.7124 35.6491 73.5834 35.9089 73.3678 36.0845C73.5094 36.1725 73.6356 36.283 73.7415 36.4116C73.8187 36.5178 73.8846 36.6317 73.9382 36.7515C73.9919 36.6317 74.0578 36.5179 74.1348 36.4116C74.2394 36.286 74.3633 36.1778 74.502 36.0911C74.2852 35.9137 74.1561 35.6514 74.1479 35.3719V30.6244H74.3053C74.3181 30.621 74.3313 30.6189 74.3446 30.6181H75.2951C75.5846 30.62 75.8592 30.7462 76.0488 30.9645C76.1122 30.7837 76.1454 30.5937 76.1473 30.4022C76.1464 30.2111 76.1154 30.0214 76.0554 29.8399C75.8657 30.0625 75.588 30.1914 75.2951 30.1928H74.3446C74.3313 30.192 74.3181 30.1898 74.3053 30.1862H74.1544V30.0359C74.1509 30.023 74.1487 30.0098 74.1478 29.9965V29.0485C74.1498 28.7597 74.2764 28.4857 74.4952 28.2966C74.3139 28.2335 74.1235 28.2004 73.9315 28.1985" fill="#FDD406"/>
<path d="M85.8298 44.702C85.2745 44.3262 84.7998 43.8438 84.4336 43.2829C83.6176 41.9771 83.2733 40.3741 83.2733 38.7451C83.2733 38.0565 84.0467 37.2813 84.0467 36.7244C84.0519 36.2742 84.0256 35.8242 83.9681 35.3776C84.2425 35.4149 84.7219 35.9007 84.7219 35.9007C84.7219 35.9007 84.7054 34.5036 84.2629 34.2595C84.2629 34.2595 84.4419 34.0758 85.0889 34.0568C84.9071 33.5975 84.0074 33.0367 84.0074 33.0367C84.0653 32.9468 84.1469 32.8744 84.2433 32.8275C84.492 32.7058 84.7568 32.62 85.0298 32.5724C84.7306 32.5078 84.4353 32.427 84.1449 32.3304C83.3075 32.0512 82.4886 31.7193 81.6933 31.3367C80.6764 30.8279 79.5534 30.5658 78.4158 30.5716C77.958 30.5717 77.2838 30.5842 76.8886 30.8464C76.5268 31.0859 76.5563 31.3975 76.4296 31.5068C76.1313 31.7643 75.6202 31.7552 75.3741 31.7552C73.7812 31.7552 73.7222 33.4554 73.7222 33.4554C73.7222 33.4554 74.1295 32.8407 74.8496 32.8407C76.047 32.8407 76.9539 33.4913 76.9539 33.7364C76.9539 33.8357 76.8304 33.8541 76.8229 33.8541C76.0407 33.8541 74.8604 33.405 74.2333 33.3833V33.6906C75.633 34.1763 77.0521 34.864 77.0521 37.895C77.0521 39.8037 76.823 41.7512 75.8657 43.283C75.4967 43.8439 75.0199 44.3262 74.4629 44.7021L80.1464 45.7239L85.8298 44.702Z" fill="black"/>
<path d="M80.1462 43.4248L74.463 44.7022C74.2045 44.6242 72.9888 44.2474 72.1358 43.7737C70.6343 42.9394 69.8558 42.1093 68.0716 42.0278V40.6741C68.0716 39.9509 68.3339 39.2993 68.3339 38.6078C67.5818 38.4066 65.4941 35.8604 63.5682 34.7302C60.7345 36.5611 58.5404 39.5667 58.5404 40.9488C58.5404 40.9488 58.6255 70.6471 58.5404 80.9932C58.5404 81.5894 58.1799 82.4318 58.1799 82.4318C59.2144 81.9952 61.1107 79.4072 61.51 78.4234V78.8943C63.0723 78.1836 64.2163 76.3162 64.7286 75.3502C64.7377 75.4898 64.7615 75.8405 64.7615 75.8405C66.1572 74.62 67.934 67.4055 67.934 67.4055L70.895 70.3082C70.895 70.3082 69.8242 72.4765 69.407 72.8647C69.605 72.8875 69.8042 72.8984 70.0034 72.8974C69.8086 73.1769 68.32 75.3147 67.8534 76.1211C67.4167 76.8754 67.1087 76.5396 66.4374 76.5396C65.8808 76.5396 64.6191 77.4242 64.4119 77.7821C64.1878 78.1481 64.0573 78.5636 64.0319 78.9918C64.0319 79.4056 64.4711 79.9726 64.4711 79.9726C64.4873 79.8723 64.5329 79.779 64.6021 79.7045C64.6021 79.7045 65.7562 81.1386 65.9262 81.326C66.0586 81.472 66.6491 81.5669 66.8572 81.3785C67.3778 80.9063 67.8818 80.5761 68.3452 79.8942C68.5838 79.5428 68.602 79.1401 68.8761 78.7628C69.7932 77.5008 71.6183 75.0843 72.0357 74.5323C72.0636 74.6859 72.0876 74.8139 72.1141 74.9704C72.5871 74.0179 74.8608 72.1979 74.8608 72.1979L77.2397 73.29C77.2397 73.29 72.7981 83.4744 68.8556 85.0404C68.8556 85.0404 70.5708 85.7673 72.6772 86.8582C72.9845 87.0174 73.3009 87.1883 73.6212 87.3619C73.8864 87.0433 74.1655 86.6894 74.4406 86.322C75.7001 84.6411 76.9318 82.693 76.9318 82.693C77.0176 83.1989 76.3525 84.7614 75.2274 86.6885C75.0062 87.0671 74.7754 87.463 74.5195 87.8653C74.8049 88.0279 75.0881 88.1921 75.3716 88.3624C77.4582 89.6148 79.4177 91.0545 80.1436 92.3772L80.6558 91.0987L80.1436 89.8203V45.1206L80.3997 44.482L80.1462 43.4248Z" fill="black"/>
<path d="M80.1437 89.8201C79.4076 89.0236 77.8684 88.0504 76.1386 87.1523C78.2301 83.4078 79.2666 77.489 78.7802 76.3107C78.7802 76.3107 77.9217 79.3804 76.8726 81.1298C75.9012 82.7499 74.7053 84.5721 73.5492 85.9229C72.6804 85.5485 71.7919 85.221 70.8877 84.942C74.3524 82.2797 77.8953 73.4793 77.8953 73.4793L74.2316 71.7856C74.2316 71.7856 72.8609 73.3796 72.4158 73.6755C72.4158 73.6755 72.2257 72.8828 72.1143 72.6031C72.1143 72.6031 71.5892 72.9993 71.3017 73.0088C71.3017 73.0088 71.2158 72.4708 71.1509 72.1193C70.7891 72.3598 70.1873 72.3089 70.1873 72.3089C70.7157 72.0594 71.341 70.5303 71.341 70.5303L67.8425 65.8883C67.8425 65.8883 66.6136 71.7786 65.2139 72.9895V47.6251L66.3217 48.6515L67.9998 47.0887V45.8987L66.5118 47.2848V43.695C66.736 43.3566 66.8846 43.1041 66.9968 42.9038C67.2377 43.3226 68.0161 44.6063 68.9305 45.3952C69.0809 44.7849 70.0711 44.205 70.0711 44.205C70.0711 44.205 70.426 45.164 70.969 45.4016C71.1601 45.0659 72.3 44.3228 72.3 44.3228C72.3 44.3228 71.3247 44.4705 70.9298 44.8394C70.5906 44.7637 70.5037 43.427 70.5037 43.427C70.5037 43.427 69.0687 44.1243 68.8191 44.6236C68.5454 44.5497 68.1194 43.4755 67.9536 43.0346C68.3084 42.9952 68.6652 42.9755 69.0222 42.9759C69.4314 42.9759 69.955 43.1692 70.5036 43.427C71.1063 43.71 71.7368 44.0684 72.2998 44.3229C73.021 44.6486 74.1121 44.7148 74.4302 44.7283C74.0483 44.9928 73.6474 45.2289 73.2307 45.4345C73.2307 45.4345 74.948 45.4187 76.1544 44.8198C76.5929 44.5558 77.0133 44.2631 77.4129 43.9435C77.2292 44.4779 76.9493 44.9742 76.5868 45.4082C78.3584 45.2586 79.2407 44.2494 79.4908 43.9108C79.6501 44.3433 79.8709 44.7506 80.1463 45.1204H80.7865V88.5483L80.1437 89.8201Z" fill="#AD7D5A"/>
<path d="M67.0884 38.7384L67.1211 39.5492V41.9361C66.4784 41.7155 65.6708 40.6623 65.2792 40.1052V39.7783C65.2879 39.526 65.402 39.2889 65.5938 39.1244L65.2071 38.9872C65.017 39.1874 64.9074 39.4504 64.899 39.726V39.9157L63.7455 41.1516L62.6115 39.4384V39.0199C62.6115 38.7379 62.8289 38.4234 63.0114 38.2091L62.6311 38.0718C62.4391 38.3198 62.2377 38.6541 62.2377 38.9676V39.3074C61.971 39.5828 60.9332 40.6481 60.9332 40.6481C60.9332 40.6481 60.4126 39.5321 60.2712 39.2291C61.0658 38.1313 62.3541 36.9021 63.5683 36.02C63.5683 36.02 66.2016 38.4316 67.0884 38.7384Z" fill="#AD7D5A"/>
<path d="M60.4146 41.0531V43.0216L59.4968 43.8715V40.9487C59.523 40.5995 59.6307 40.2614 59.8114 39.9612L60.4146 41.0531Z" fill="#AD7D5A"/>
<path d="M63.2725 41.8118V43.0281L62.2173 44.0155V40.21L63.2725 41.8118Z" fill="#AD7D5A"/>
<path d="M61.8436 44.0088L60.7881 43.028V41.6027L61.8436 40.4976V44.0088Z" fill="#AD7D5A"/>
<path d="M66.6615 42.531C66.4164 42.8765 65.7745 43.7216 65.0818 44.0939V40.7524C65.2407 41.0161 65.9697 42.1925 66.6615 42.531Z" fill="#AD7D5A"/>
<path d="M64.7078 40.9224V44.0087L63.6523 43.0278V41.9359L64.7078 40.9224Z" fill="#AD7D5A"/>
<path d="M60.4146 44.2114V47.2914L59.4968 46.4347V45.068L60.4146 44.2114Z" fill="#AD7D5A"/>
<path d="M61.8427 45.1989V46.3039L60.7871 47.2846V44.218L61.8427 45.1989Z" fill="#AD7D5A"/>
<path d="M63.2716 44.2183V47.285L62.2163 46.2976V45.2056L63.2716 44.2183Z" fill="#AD7D5A"/>
<path d="M64.7074 45.2057V46.2976L63.6519 47.285V44.2183L64.7074 45.2057Z" fill="#AD7D5A"/>
<path d="M66.1362 47.2915L65.0806 46.304V45.2776C65.4446 45.056 65.8107 44.6486 66.1361 44.2183L66.1362 47.2915Z" fill="#AD7D5A"/>
<path d="M63.4619 48.6515L64.5763 47.6184V72.9892C64.5763 72.9892 64.6541 74.2481 64.7075 75.0685C64.2119 75.5681 62.3477 77.4486 62.3477 77.4486V47.6116L63.4619 48.6515Z" fill="#AD7D5A"/>
<path d="M61.7112 76.5006C61.7112 77.3161 60.2183 79.2177 59.4956 79.6523V47.6255L60.5968 48.6519L61.7112 47.6187V76.5006Z" fill="#AD7D5A"/>
<path d="M70.9667 73.7476L71.7796 73.1918C71.7796 73.1918 71.8338 73.46 71.9041 73.8262C71.556 74.3008 69.5568 77.0225 68.5675 78.351C68.3215 78.681 68.115 79.5214 68.115 79.5214C68.115 79.5214 67.7546 79.3514 67.7546 79.0442C67.7546 78.7425 67.7941 78.3837 67.7941 78.3837C67.6006 78.5803 67.3359 78.691 67.0597 78.691C67.0597 78.3202 67.7786 77.918 67.807 77.39C67.2588 77.7954 66.7827 77.5873 66.1486 77.7823C65.4581 77.9945 65.2657 78.2839 65.054 78.2728C64.9292 78.2661 64.8163 78.0515 64.8639 77.9197C64.9464 77.6914 65.8005 77.0597 66.3976 76.9455C66.5406 76.9181 67.6656 77.1897 67.8923 76.8409C68.826 75.4036 70.3418 73.0705 70.4881 72.8457C70.5776 72.8289 70.6639 72.7979 70.7436 72.7539C70.7436 72.7539 70.735 73.4885 70.9667 73.7476Z" fill="#D91C16"/>
<path d="M65.7403 78.2264C65.7853 78.2752 65.7822 78.3511 65.7336 78.3963L65.3666 78.7166C65.3139 78.7575 65.2381 78.7488 65.1963 78.6969C65.1512 78.6481 65.1542 78.5721 65.2029 78.5269L65.5699 78.2066C65.5933 78.1862 65.6243 78.1767 65.6551 78.1805C65.6882 78.1849 65.7185 78.2012 65.7403 78.2264Z" fill="#D91C16"/>
<path d="M66.2976 78.612C66.4063 78.7263 66.4015 78.9068 66.2869 79.0152L66.2844 79.0176L65.3929 79.7956C65.2576 79.8958 65.0664 79.8677 64.9659 79.7327C64.8764 79.6124 64.8879 79.445 64.993 79.338L65.8845 78.5664C65.9289 78.529 65.9839 78.5061 66.0419 78.501C66.1399 78.4955 66.2348 78.5367 66.2976 78.612Z" fill="#D91C16"/>
<path d="M66.8085 79.2136C66.9172 79.3277 66.9125 79.5081 66.7981 79.6165L66.7953 79.619L65.8975 80.3972C65.7731 80.4966 65.5915 80.4766 65.4918 80.3526L65.4909 80.3514C65.3812 80.2338 65.3871 80.0499 65.5042 79.9396L66.3956 79.168C66.4376 79.1308 66.4904 79.1079 66.5464 79.1026C66.6463 79.0969 66.7432 79.138 66.8085 79.2136Z" fill="#D91C16"/>
<path d="M67.1162 79.691C67.2133 79.6829 67.3085 79.7218 67.3719 79.7956C67.4816 79.9132 67.4757 80.097 67.3588 80.2075L66.4672 80.9793C66.3316 81.0773 66.1419 81.0472 66.0436 80.9118C65.9584 80.7947 65.9684 80.6337 66.0674 80.5279L66.9655 79.7499C67.0079 79.7143 67.0609 79.6936 67.1162 79.691Z" fill="#D91C16"/>
<path d="M80.1405 43.4248L85.8237 44.7022C86.0822 44.6242 87.2979 44.2474 88.1509 43.7737C89.6524 42.9394 90.4309 42.1093 92.2151 42.0278V40.6741C92.2151 39.9509 91.9527 39.2993 91.9527 38.6078C92.7049 38.4066 94.7926 35.8604 96.7185 34.7302C99.5522 36.5611 101.746 39.5667 101.746 40.9488C101.746 40.9488 101.661 70.6471 101.746 80.9932C101.746 81.5894 102.107 82.4318 102.107 82.4318C101.072 81.9952 99.176 79.4072 98.7767 78.4234V78.8943C97.2144 78.1836 96.0704 76.3162 95.5581 75.3502C95.549 75.4898 95.5252 75.8405 95.5252 75.8405C94.1294 74.62 92.3526 67.4055 92.3526 67.4055L89.3916 70.3082C89.3916 70.3082 90.4625 72.4765 90.8797 72.8647C90.6817 72.8875 90.4825 72.8984 90.2832 72.8974C90.4781 73.1769 91.9667 75.3147 92.4333 76.1211C92.8699 76.8754 93.178 76.5396 93.8493 76.5396C94.4059 76.5396 95.6676 77.4242 95.8747 77.7821C96.0989 78.1481 96.2294 78.5636 96.2548 78.9918C96.2548 79.4056 95.8156 79.9726 95.8156 79.9726C95.7994 79.8723 95.7538 79.779 95.6846 79.7045C95.6846 79.7045 94.5305 81.1386 94.3604 81.326C94.228 81.472 93.6376 81.5669 93.4295 81.3785C92.9089 80.9063 92.4049 80.5761 91.9415 79.8942C91.7029 79.5428 91.6847 79.1401 91.4106 78.7628C90.4935 77.5008 88.6684 75.0843 88.251 74.5323C88.223 74.6859 88.1991 74.8139 88.1726 74.9704C87.6996 74.0179 85.4258 72.1979 85.4258 72.1979L83.0469 73.29C83.0469 73.29 87.4886 83.4744 91.4311 85.0404C91.4311 85.0404 89.7158 85.7673 87.6094 86.8582C87.3021 87.0174 86.9857 87.1883 86.6655 87.3619C86.4003 87.0433 86.1211 86.6894 85.8461 86.322C84.5866 84.6411 83.3549 82.693 83.3549 82.693C83.2691 83.1989 83.9342 84.7614 85.0592 86.6885C85.2805 87.0671 85.5112 87.463 85.7672 87.8653C85.4818 88.0279 85.1985 88.1921 84.915 88.3624C82.8285 89.6148 80.8689 91.0545 80.143 92.3772L79.6309 91.0987L80.1431 89.8203V45.1206L79.887 44.482L80.1405 43.4248Z" fill="black"/>
<path d="M80.1431 89.8201C80.8792 89.0236 82.4184 88.0504 84.1482 87.1523C82.0566 83.4078 81.0202 77.489 81.5065 76.3107C81.5065 76.3107 82.3651 79.3804 83.4142 81.1298C84.3856 82.7499 85.5814 84.5721 86.7376 85.9229C87.6064 85.5485 88.4949 85.221 89.3991 84.942C85.9343 82.2797 82.3915 73.4793 82.3915 73.4793L86.0552 71.7856C86.0552 71.7856 87.4258 73.3796 87.8709 73.6755C87.8709 73.6755 88.0611 72.8828 88.1725 72.6031C88.1725 72.6031 88.6976 72.9993 88.9851 73.0088C88.9851 73.0088 89.071 72.4708 89.1359 72.1193C89.4977 72.3598 90.0995 72.3089 90.0995 72.3089C89.571 72.0594 88.9458 70.5303 88.9458 70.5303L92.4443 65.8883C92.4443 65.8883 93.6732 71.7786 95.0729 72.9895V47.6251L93.965 48.6515L92.2869 47.0887V45.8987L93.775 47.2848V43.695C93.5508 43.3566 93.4021 43.1041 93.2899 42.9038C93.0491 43.3226 92.2707 44.6063 91.3563 45.3952C91.2058 44.7849 90.2156 44.205 90.2156 44.205C90.2156 44.205 89.8608 45.164 89.3177 45.4016C89.1267 45.0659 87.9868 44.3228 87.9868 44.3228C87.9868 44.3228 88.962 44.4705 89.3569 44.8394C89.6961 44.7637 89.7831 43.427 89.7831 43.427C89.7831 43.427 91.2181 44.1243 91.4677 44.6236C91.7413 44.5497 92.1673 43.4755 92.3332 43.0346C91.9783 42.9952 91.6216 42.9755 91.2646 42.9759C90.8553 42.9759 90.3318 43.1692 89.7832 43.427C89.1805 43.71 88.55 44.0684 87.9869 44.3229C87.2658 44.6486 86.1746 44.7148 85.8566 44.7283C86.2384 44.9928 86.6393 45.2289 87.056 45.4345C87.056 45.4345 85.3387 45.4187 84.1324 44.8198C83.6939 44.5558 83.2734 44.2631 82.8738 43.9435C83.0575 44.4779 83.3375 44.9742 83.7 45.4082C81.9283 45.2586 81.0461 44.2494 80.796 43.9108C80.6366 44.3433 80.4159 44.7506 80.1405 45.1204H79.5002V88.5483L80.1431 89.8201Z" fill="#AD7D5A"/>
<path d="M93.1982 38.7384L93.1655 39.5492V41.9361C93.8082 41.7155 94.6158 40.6623 95.0074 40.1053V39.7783C94.9987 39.526 94.8847 39.2889 94.6928 39.1244L95.0795 38.9872C95.2696 39.1875 95.3792 39.4504 95.3876 39.726V39.9157L96.5412 41.1516L97.6752 39.4384V39.0199C97.6752 38.7379 97.4577 38.4234 97.2753 38.2091L97.6556 38.0718C97.8475 38.3198 98.0489 38.6541 98.0489 38.9676V39.3074C98.3157 39.5828 99.3534 40.6481 99.3534 40.6481C99.3534 40.6481 99.874 39.5321 100.015 39.2291C99.2208 38.1313 97.9325 36.9021 96.7183 36.02C96.7183 36.02 94.085 38.4316 93.1982 38.7384Z" fill="#AD7D5A"/>
<path d="M99.8721 41.0531V43.0216L100.79 43.8715V40.9487C100.764 40.5995 100.656 40.2614 100.475 39.9612L99.8721 41.0531Z" fill="#AD7D5A"/>
<path d="M97.0142 41.8118V43.028L98.0694 44.0155V40.21L97.0142 41.8118Z" fill="#AD7D5A"/>
<path d="M98.4434 44.0088L99.4989 43.028V41.6027L98.4434 40.4976V44.0088Z" fill="#AD7D5A"/>
<path d="M93.6252 42.531C93.8703 42.8765 94.5122 43.7216 95.205 44.0939V40.7524C95.0461 41.0161 94.3171 42.1925 93.6252 42.531Z" fill="#AD7D5A"/>
<path d="M95.5789 40.9224V44.0087L96.6344 43.0278V41.9359L95.5789 40.9224Z" fill="#AD7D5A"/>
<path d="M99.8723 44.2114V47.2914L100.79 46.4347V45.068L99.8723 44.2114Z" fill="#AD7D5A"/>
<path d="M98.4441 45.1989V46.3039L99.4997 47.2846V44.218L98.4441 45.1989Z" fill="#AD7D5A"/>
<path d="M97.0154 44.2183V47.285L98.0706 46.2976V45.2056L97.0154 44.2183Z" fill="#AD7D5A"/>
<path d="M95.5793 45.2057V46.2976L96.6349 47.285V44.2183L95.5793 45.2057Z" fill="#AD7D5A"/>
<path d="M94.1506 47.2915L95.2063 46.304V45.2776C94.8422 45.056 94.4761 44.6486 94.1507 44.2183L94.1506 47.2915Z" fill="#AD7D5A"/>
<path d="M96.8249 48.6515L95.7105 47.6184V72.9892C95.7105 72.9892 95.6327 74.2481 95.5793 75.0685C96.0749 75.5681 97.9392 77.4486 97.9392 77.4486V47.6116L96.8249 48.6515Z" fill="#AD7D5A"/>
<path d="M98.5754 76.5006C98.5754 77.3161 100.068 79.2177 100.791 79.6523V47.6255L99.6898 48.6519L98.5754 47.6187V76.5006Z" fill="#AD7D5A"/>
<path d="M89.3199 73.7476L88.507 73.1918C88.507 73.1918 88.4529 73.46 88.3826 73.8262C88.7306 74.3008 90.7298 77.0225 91.7191 78.351C91.9651 78.681 92.1717 79.5214 92.1717 79.5214C92.1717 79.5214 92.532 79.3514 92.532 79.0442C92.532 78.7425 92.4926 78.3837 92.4926 78.3837C92.6861 78.5803 92.9507 78.691 93.2269 78.691C93.2269 78.3202 92.508 77.918 92.4796 77.39C93.0278 77.7954 93.5039 77.5873 94.138 77.7823C94.8285 77.9945 95.0209 78.2839 95.2327 78.2728C95.3574 78.2661 95.4703 78.0515 95.4227 77.9197C95.3402 77.6914 94.4861 77.0597 93.8891 76.9455C93.746 76.9181 92.621 77.1897 92.3943 76.8409C91.4606 75.4036 89.9448 73.0705 89.7985 72.8457C89.709 72.8289 89.6227 72.7979 89.543 72.7539C89.543 72.7539 89.5517 73.4885 89.3199 73.7476Z" fill="#D91C16"/>
<path d="M94.5462 78.2264C94.5013 78.2752 94.5043 78.3511 94.553 78.3963L94.92 78.7166C94.9726 78.7575 95.0484 78.7488 95.0903 78.6969C95.1354 78.6481 95.1324 78.5721 95.0836 78.5269L94.7166 78.2066C94.6932 78.1862 94.6622 78.1767 94.6314 78.1805C94.5983 78.1849 94.568 78.2012 94.5462 78.2264Z" fill="#D91C16"/>
<path d="M93.9891 78.612C93.8805 78.7263 93.8852 78.9068 93.9998 79.0152L94.0023 79.0176L94.8938 79.7956C95.0291 79.8958 95.2203 79.8677 95.3208 79.7327C95.4103 79.6124 95.3988 79.445 95.2937 79.338L94.4022 78.5664C94.3578 78.529 94.3028 78.5061 94.2448 78.501C94.1468 78.4955 94.0519 78.5367 93.9891 78.612Z" fill="#D91C16"/>
<path d="M93.4782 79.2136C93.3695 79.3277 93.3742 79.5081 93.4886 79.6165L93.4914 79.619L94.3892 80.3972C94.5136 80.4966 94.6952 80.4766 94.7949 80.3526L94.7958 80.3514C94.9055 80.2338 94.8996 80.0499 94.7825 79.9396L93.8911 79.168C93.8491 79.1308 93.7963 79.1079 93.7403 79.1026C93.6404 79.0969 93.5435 79.138 93.4782 79.2136Z" fill="#D91C16"/>
<path d="M93.1705 79.691C93.0733 79.6829 92.9782 79.7218 92.9148 79.7956C92.8051 79.9132 92.8109 80.097 92.9278 80.2075L93.8194 80.9793C93.9551 81.0773 94.1448 81.0472 94.2431 80.9119C94.3283 80.7947 94.3183 80.6337 94.2193 80.5279L93.3212 79.7499C93.2788 79.7143 93.2258 79.6936 93.1705 79.691Z" fill="#D91C16"/>
<path d="M78.8288 30.9903C80.2959 30.9903 81.3279 31.6576 82.7162 32.2718C83.08 32.4328 83.4141 32.5632 83.7123 32.6641C83.5504 32.7877 83.422 32.9495 83.3386 33.135C83.3386 33.135 83.9608 33.25 84.2432 33.7695C84.2432 33.7695 83.6516 33.8364 83.5549 34.1813C83.8863 34.2062 84.2155 34.6228 84.217 35.0249L83.3779 34.7632C83.5071 35.4093 83.5751 36.0661 83.5812 36.7249C83.5812 37.2468 82.8275 37.8609 82.8275 38.7454C82.8275 41.5215 83.5285 42.5885 84.0272 43.4467C84.2222 43.7825 84.3807 44.1689 84.7089 44.4603C83.2724 43.6973 82.2048 42.7437 82.2048 41.8579V38.5035H81.8311V41.8579C81.8311 42.5003 81.9884 42.7995 81.9884 42.7995C82.2139 43.5102 82.6697 44.6072 82.9521 45.0488C81.6305 44.3364 80.9591 43.4442 80.9591 43.1134V38.5034H80.5855V43.1786L80.6575 43.499C80.4974 43.7391 80.2892 44.0234 80.1463 44.1201C80.0037 44.0236 79.8018 43.7387 79.6414 43.499L79.7136 43.1786V38.5034H79.3399V43.1134C79.3399 43.4441 78.6686 44.3364 77.3471 45.0488C77.6295 44.607 78.0852 43.5102 78.3105 42.7995C78.3105 42.7995 78.4679 42.5004 78.4679 41.8579V38.5035H78.0943V41.8579C78.0943 42.7427 77.0306 43.6978 75.5967 44.4603C75.9215 44.1687 76.0778 43.7806 76.2717 43.4467C76.817 42.5082 77.491 41.3158 77.491 37.9214C77.491 36.6475 77.3022 35.7813 76.9732 35.1751C76.8732 34.9751 76.7385 34.4427 77.5041 34.4427C77.9007 34.4427 78.8086 35.1424 78.8086 35.1424C78.7724 34.7938 78.5917 34.4762 78.3104 34.2662C78.1943 34.175 78.1209 34.0402 78.1073 33.8934C78.16 33.6968 78.2868 33.5281 78.4611 33.4226C78.5678 33.3743 76.9011 33.0846 76.9011 32.3306C76.9011 32.1736 77.0001 32.069 77.3466 32.069C77.8005 32.069 78.539 32.6117 79.1953 32.6117C79.6805 32.6117 79.8718 32.494 80.3687 32.494C80.9759 32.494 82.2427 33.6408 82.676 33.599C82.1916 33.2956 81.4091 32.1473 80.2245 32.1473C79.8133 32.1473 79.4412 32.2389 79.0574 32.2389C78.5656 32.2389 78.0813 31.7876 77.5498 31.7876C77.1936 31.7876 76.7957 31.8074 76.7368 31.7156C76.6337 31.5553 76.7266 31.4623 76.8221 31.3298C77.0025 31.0799 77.5092 31.0073 78.0087 30.99C78.1585 30.9847 78.3081 30.9822 78.4483 30.9835C78.5879 30.985 78.7171 30.9903 78.8288 30.9903Z" fill="#AD7D5A"/>
<path d="M74.065 32.7852C74.2983 32.4095 74.7148 32.1864 75.1577 32.2001C75.485 32.2001 76.5652 32.1775 76.5652 32.1775C76.7092 32.5506 77.3654 33.174 77.3654 33.8224C77.3654 33.8224 76.6993 32.6247 74.8399 32.6247C74.5728 32.6206 74.3081 32.6753 74.0647 32.7851L74.065 32.7852Z" fill="#D91C16"/>
<path d="M77.0881 34.0512C77.0881 34.0512 76.6921 34.4673 76.606 34.6894C76.214 34.5413 75.5305 33.8386 75.5305 33.8386C75.5305 33.8386 76.1099 34.1761 77.088 34.0512L77.0881 34.0512Z" fill="#D91C16"/>
<path d="M76.4608 32.9488C76.4608 32.9488 76.0039 32.8026 76.0039 32.6496C76.0039 32.4547 76.2258 32.4547 76.3585 32.6066C76.4216 32.71 76.4568 32.8279 76.4606 32.9489L76.4608 32.9488Z" fill="black"/>
<path d="M78.5915 33.9135C79.1129 33.9135 79.5356 33.5935 79.5356 33.1987C79.5356 32.8039 79.1129 32.4839 78.5915 32.4839C78.0701 32.4839 77.6475 32.8039 77.6475 33.1987C77.6475 33.5935 78.0701 33.9135 78.5915 33.9135Z" fill="black"/>
<path d="M78.5905 33.8528C78.9526 33.8528 79.2462 33.56 79.2462 33.1987C79.2462 32.8375 78.9526 32.5447 78.5905 32.5447C78.2284 32.5447 77.9348 32.8375 77.9348 33.1987C77.9348 33.56 78.2284 33.8528 78.5905 33.8528Z" fill="#FDD406"/>
<path d="M78.5907 33.4985C78.7566 33.4985 78.8912 33.3644 78.8912 33.1989C78.8912 33.0333 78.7566 32.8992 78.5907 32.8992C78.4248 32.8992 78.2903 33.0333 78.2903 33.1989C78.2903 33.3644 78.4248 33.4985 78.5907 33.4985Z" fill="black"/>
<path d="M67.9979 80.2061L70.0726 81.335L69.5692 83.6378L67.4946 82.5087L67.9979 80.2061Z" fill="black"/>
<path d="M58.3335 58.0806L57.5862 58.4207L66.0292 76.8673H66.9273L58.3335 58.0806ZM68.2908 79.8354L67.6813 80.4632L68.0615 81.3002L68.8021 80.9602L68.2908 79.8354Z" fill="black"/>
<path d="M60.9572 72.6252C60.9572 72.6252 61.6684 74.0905 62.2088 74.2915C61.9293 74.2155 61.0217 74.5477 61.0217 74.5477C61.0217 74.5477 62.6222 75.9738 63.9796 76.0674C65.1308 76.1465 65.6897 75.5734 65.6897 75.5734L65.4591 74.3569C64.9598 73.8001 64.3309 73.3743 63.6277 73.117C62.4889 72.7213 60.957 72.6255 60.957 72.6255L60.9572 72.6252Z" fill="black"/>
<path d="M66.3187 70.0002C66.3187 70.0002 65.3367 70.8388 65.0679 71.81C64.799 72.7814 65.2431 73.8853 65.2431 73.8853L66.0682 75.4207C66.0682 75.4207 67.2118 74.8136 67.6983 73.9058C68.1847 72.9979 68.0064 71.773 68.0064 71.773C68.0064 71.773 67.1004 72.1094 66.9852 72.2584C67.1764 71.2514 66.3186 70.0002 66.3186 70.0002L66.3187 70.0002Z" fill="black"/>
<path d="M63.1622 69.6081C63.1622 69.6081 62.0453 69.9846 60.9608 69.9195C59.9277 69.8573 59.0686 68.9919 59.0686 68.9919C59.0686 68.9919 59.925 68.4138 60.3477 68.4908C59.8827 68.3213 59.2086 67.1595 59.2086 67.1595C59.2086 67.1595 60.1666 66.8707 61.0161 67.1902C61.8656 67.5099 62.6063 68.4381 62.6063 68.4381L63.1623 69.6081H63.1622Z" fill="black"/>
<path d="M63.5463 64.1669C63.5463 64.1669 64.1048 65.3205 63.9724 65.7215C64.1457 65.4545 64.8014 65.0388 64.8014 65.0388C64.8014 65.0388 65.1978 66.9067 64.8187 68.0603C64.4397 69.2138 63.2854 69.6531 63.2854 69.6531L62.0123 67.1832C62.0123 67.1832 61.8227 66.2681 62.2197 65.5435C62.6168 64.8189 63.5463 64.1667 63.5463 64.1667L63.5463 64.1669Z" fill="black"/>
<path d="M56.2796 61.113C56.2796 61.113 57.4867 60.9865 58.591 61.4429C59.5142 61.8252 59.7972 62.5201 59.7972 62.5201L60.2519 63.736C60.2519 63.736 58.938 64.2275 57.8999 63.8518C56.8617 63.4756 56.0989 62.2322 56.0989 62.2322C56.0989 62.2322 56.8244 61.9577 57.1006 62.0606C56.6983 61.8831 56.2798 61.113 56.2798 61.113V61.1131L56.2796 61.113Z" fill="black"/>
<path d="M60.0761 58.856C60.0761 58.856 60.6059 59.5346 60.6218 60.3151C60.763 59.9002 61.4244 59.4415 61.4244 59.4415C61.4244 59.4415 62.1046 61.0834 61.9553 62.2492C61.806 63.4151 60.8273 64.1047 60.8273 64.1047L59.6068 61.7939C59.6068 61.7939 59.2091 60.8468 59.3263 60.1121C59.4436 59.3776 60.0761 58.8557 60.0761 58.8557L60.0761 58.856Z" fill="black"/>
<path d="M55.8954 54.4365C55.8954 54.4365 55.6766 55.6952 56.049 56.4202C56.3816 57.0671 56.5934 57.209 56.5934 57.209C55.9591 56.7915 55 56.7554 55 56.7554C55 56.7554 55.3414 58.1248 56.1572 58.7496C56.973 59.3743 58.2309 59.2283 58.2309 59.2283C58.2309 59.2283 59.0581 58.1298 59.0005 56.9464C58.943 55.763 58.0007 54.4944 58.0007 54.4944C58.0007 54.4944 57.6291 55.2633 57.5963 55.8373C57.3558 55.2456 55.8952 54.4367 55.8952 54.4367L55.8954 54.4365Z" fill="black"/>
<path d="M65.7551 75.5207L65.7891 75.9725C66.5414 75.9795 66.6534 75.9048 66.8462 76.1413C67.0323 76.3497 67.3329 76.4127 67.5873 76.2965C67.8954 76.1542 68.0313 75.791 67.892 75.4821C67.7518 75.1757 67.4661 75.1091 67.191 75.1633C67.0221 75.1965 66.9109 75.331 66.7676 75.4048C66.4951 75.5456 65.7549 75.5208 65.7549 75.5208L65.7551 75.5207Z" fill="black"/>
<path d="M65.69 75.1759L66.0561 75.4435C65.6633 76.0839 65.5408 76.1391 65.6398 76.4277C65.7184 76.6955 65.6127 76.9832 65.3792 77.1369C65.095 77.3222 64.7142 77.2449 64.5252 76.9635C64.3391 76.6825 64.4337 76.4058 64.6255 76.2016C64.7433 76.0761 64.9162 76.0534 65.0549 75.9713C65.3189 75.8151 65.6898 75.1758 65.6898 75.1758L65.69 75.1759Z" fill="black"/>
<path d="M63.1416 69.8112L63.1754 70.263C63.9278 70.2699 64.0397 70.1953 64.2326 70.4317C64.4187 70.6401 64.7192 70.703 64.9736 70.5869C65.2819 70.4448 65.4178 70.0815 65.2782 69.7727C65.138 69.4661 64.8525 69.3997 64.5773 69.4538C64.4083 69.4872 64.2972 69.6216 64.1541 69.6954C63.8815 69.836 63.1414 69.8114 63.1414 69.8114L63.1416 69.8112Z" fill="black"/>
<path d="M63.2941 69.9709L63.6143 70.2924C63.1265 70.8639 62.9966 70.8995 63.0494 71.1998C63.0855 71.4767 62.9362 71.7446 62.6814 71.8602C62.3718 71.9992 62.0077 71.8637 61.865 71.5563C61.7248 71.2499 61.8614 70.9911 62.0828 70.8192C62.2187 70.7138 62.3933 70.7179 62.5429 70.6585C62.828 70.5452 63.2941 69.9711 63.2941 69.9711L63.2941 69.9709Z" fill="black"/>
<path d="M60.609 64.4659L60.6429 64.9177C61.3954 64.9246 61.5073 64.85 61.7002 65.0867C61.8865 65.2949 62.187 65.3577 62.4414 65.2416C62.7495 65.0992 62.8854 64.736 62.746 64.4271C62.6056 64.1206 62.3201 64.0542 62.0448 64.1084C61.8758 64.1417 61.7648 64.2761 61.6215 64.3499C61.349 64.4907 60.6089 64.4658 60.6089 64.4658L60.609 64.4659Z" fill="black"/>
<path d="M60.8177 64.3713L61.1377 64.6927C60.65 65.2643 60.5203 65.2999 60.5729 65.6002C60.609 65.877 60.4597 66.1449 60.205 66.2605C59.8954 66.3993 59.5314 66.2638 59.3886 65.9566C59.2485 65.65 59.3851 65.3913 59.6064 65.2195C59.7423 65.1138 59.9168 65.1182 60.0666 65.0585C60.3518 64.9452 60.8177 64.3713 60.8177 64.3713Z" fill="black"/>
<path d="M57.9109 58.8226L57.9447 59.2743C58.6971 59.2813 58.8092 59.2066 59.0019 59.443C59.188 59.6514 59.4885 59.7144 59.743 59.5985C60.0512 59.4561 60.1871 59.0929 60.0478 58.7839C59.9076 58.4774 59.6219 58.4108 59.3466 58.4651C59.1778 58.4985 59.0667 58.633 58.9234 58.7067C58.6509 58.8473 57.9106 58.8226 57.9106 58.8226H57.9109Z" fill="black"/>
<path d="M58.1198 58.7283L58.4396 59.0498C57.952 59.6214 57.822 59.6569 57.8749 59.9573C57.9109 60.2341 57.7617 60.5019 57.507 60.6175C57.1974 60.7566 56.8333 60.621 56.6907 60.3136C56.5504 60.0072 56.6871 59.7482 56.9083 59.5765C57.0443 59.4711 57.2188 59.4752 57.3685 59.4156C57.6535 59.3024 58.1196 58.7284 58.1196 58.7284L58.1198 58.7283Z" fill="black"/>
<path d="M68.2968 80.8589L69.5836 81.5591L69.2713 82.9875L67.9846 82.2873L68.2968 80.8589Z" fill="#FDD406"/>
<path d="M62.664 68.4726C62.3943 68.5842 61.9943 67.4131 61.7005 66.7715C61.3992 66.1131 60.7874 65.0983 60.9612 65.0191C61.1518 64.9322 61.4031 65.4651 61.7114 66.1389C62.0198 66.8124 62.9166 68.3676 62.664 68.4724L62.664 68.4726Z" fill="#FDD406"/>
<path d="M59.8942 62.3045C59.6247 62.4165 59.3296 61.6496 59.0359 61.0079C58.7346 60.3496 58.4411 59.8846 58.6149 59.8054C58.8057 59.7185 59.0874 60.2955 59.334 60.8342C59.573 61.3564 60.1469 62.1996 59.8941 62.3046L59.8942 62.3045Z" fill="#FDD406"/>
<path d="M66.3019 76.2897C66.0902 76.3462 65.1662 74.4169 64.4192 72.7846C63.6723 71.1523 63.116 69.8316 63.2898 69.7528C63.4806 69.6658 64.0854 71.2077 64.8327 72.8403C65.5798 74.4728 66.4606 76.2472 66.302 76.2897L66.3019 76.2897Z" fill="#FDD406"/>
<path d="M67.3347 76.0724C67.5189 76.0724 67.6683 75.9234 67.6683 75.7396C67.6683 75.5558 67.5189 75.4067 67.3347 75.4067C67.1504 75.4067 67.001 75.5558 67.001 75.7396C67.001 75.9234 67.1504 76.0724 67.3347 76.0724Z" fill="#FDD406"/>
<path d="M65.0395 76.9601C65.2237 76.9601 65.3731 76.8111 65.3731 76.6272C65.3731 76.4434 65.2237 76.2944 65.0395 76.2944C64.8552 76.2944 64.7058 76.4434 64.7058 76.6272C64.7058 76.8111 64.8552 76.9601 65.0395 76.9601Z" fill="#FDD406"/>
<path d="M64.7202 70.3586C64.9045 70.3586 65.0539 70.2096 65.0539 70.0257C65.0539 69.8419 64.9045 69.6929 64.7202 69.6929C64.5359 69.6929 64.3865 69.8419 64.3865 70.0257C64.3865 70.2096 64.5359 70.3586 64.7202 70.3586Z" fill="#FDD406"/>
<path d="M62.4237 71.6346C62.608 71.6346 62.7574 71.4856 62.7574 71.3018C62.7574 71.118 62.608 70.969 62.4237 70.969C62.2395 70.969 62.0901 71.118 62.0901 71.3018C62.0901 71.4856 62.2395 71.6346 62.4237 71.6346Z" fill="#FDD406"/>
<path d="M62.1879 65.0151C62.3722 65.0151 62.5216 64.866 62.5216 64.6822C62.5216 64.4984 62.3722 64.3494 62.1879 64.3494C62.0036 64.3494 61.8542 64.4984 61.8542 64.6822C61.8542 64.866 62.0036 65.0151 62.1879 65.0151Z" fill="#FDD406"/>
<path d="M59.9472 66.0353C60.1315 66.0353 60.2809 65.8863 60.2809 65.7025C60.2809 65.5187 60.1315 65.3696 59.9472 65.3696C59.7629 65.3696 59.6135 65.5187 59.6135 65.7025C59.6135 65.8863 59.7629 66.0353 59.9472 66.0353Z" fill="#FDD406"/>
<path d="M59.4897 59.3726C59.6741 59.3726 59.8235 59.2236 59.8235 59.0397C59.8235 58.8558 59.6741 58.7068 59.4897 58.7068C59.3054 58.7068 59.156 58.8558 59.156 59.0397C59.156 59.2236 59.3054 59.3726 59.4897 59.3726Z" fill="#FDD406"/>
<path d="M57.2495 60.3924C57.4338 60.3924 57.5833 60.2433 57.5833 60.0595C57.5833 59.8756 57.4338 59.7266 57.2495 59.7266C57.0652 59.7266 56.9158 59.8756 56.9158 60.0595C56.9158 60.2433 57.0652 60.3924 57.2495 60.3924Z" fill="#FDD406"/>
<path d="M56.2669 55.2017C56.2669 55.2017 56.2342 56.1214 56.5393 56.6431C56.8444 57.165 57.5257 57.3731 57.5257 57.3731C57.5257 57.3731 57.5583 56.4535 57.2532 55.9319C56.9481 55.41 56.2669 55.2017 56.2669 55.2017Z" fill="#005801"/>
<path d="M55.6292 57.2825C55.6292 57.2825 56.4301 57.3295 56.8927 57.683C57.355 58.0366 57.5341 58.7732 57.5341 58.7732C57.1782 58.7918 56.8269 58.6858 56.541 58.4734C56.0786 58.1197 55.6292 57.2825 55.6292 57.2825Z" fill="#005801"/>
<path d="M58.1427 55.4253C57.9792 55.8271 57.899 56.2578 57.907 56.6913C57.9376 57.3483 58.3219 58.0883 58.3219 58.0883C58.3219 58.0883 58.6693 57.2997 58.6387 56.6427C58.6082 55.9858 58.2357 55.6113 58.1427 55.4253Z" fill="#005801"/>
<path d="M56.7944 61.3466C57.0618 61.6977 57.4025 61.9866 57.7931 62.193C58.3985 62.4915 59.3006 62.5026 59.3006 62.5026C59.0106 62.142 58.6518 61.8425 58.2448 61.6213C57.6394 61.3228 56.7944 61.3464 56.7944 61.3464L56.7944 61.3466Z" fill="#005801"/>
<path d="M56.9891 62.6189C56.9891 62.6189 57.2782 63.1836 57.8066 63.4256C58.3353 63.6678 59.4167 63.6479 59.4167 63.6479C59.1582 63.3297 58.8371 63.0677 58.4732 62.8781C57.9446 62.6358 56.989 62.6189 56.989 62.6189L56.9891 62.6189Z" fill="#005801"/>
<path d="M60.0327 59.6069C59.8402 59.944 59.7407 60.3259 59.7445 60.7138C59.7759 61.2944 60.1577 61.9287 60.1577 61.9287C60.1577 61.9287 60.4262 61.2015 60.3948 60.6211C60.3681 60.2566 60.2429 59.9062 60.0326 59.6069H60.0327Z" fill="#005801"/>
<path d="M61.2096 60.3518C61.2096 60.3518 60.6629 61.0837 60.5844 61.8361C60.5059 62.5885 60.8953 63.3615 60.8953 63.3615C60.8953 63.3615 61.5557 62.7001 61.6342 61.9478C61.7127 61.1952 61.2096 60.3521 61.2096 60.3521L61.2096 60.3518Z" fill="#005801"/>
<path d="M59.7024 67.3001C59.7626 67.5036 59.8626 67.6931 59.9965 67.8579C60.1831 68.0748 60.3905 68.2729 60.6158 68.4495C60.8925 68.3755 61.1829 68.3688 61.4628 68.4297C61.9321 68.5313 62.5563 68.9483 62.5563 68.9483C62.5563 68.9483 61.8845 67.9481 61.1869 67.5591C60.7299 67.3245 60.2123 67.2341 59.7026 67.3L59.7024 67.3001Z" fill="#005801"/>
<path d="M59.6332 69.0193C59.6332 69.0193 60.503 68.6486 61.2193 68.7443C61.9358 68.84 62.5816 69.4048 62.5816 69.4048C62.5816 69.4048 61.6135 69.7389 60.8972 69.6434C60.4251 69.5587 59.9868 69.3423 59.6331 69.0193H59.6332Z" fill="#005801"/>
<path d="M63.3094 64.9856C63.3094 64.9856 62.5402 65.7985 62.4757 66.5039C62.4113 67.2092 63.0994 67.8667 63.0994 67.8667C63.0812 67.6135 63.1099 67.3592 63.1841 67.1164C63.2821 66.8969 63.4065 66.6901 63.5545 66.5005C63.6154 66.288 63.6377 66.0664 63.6203 65.8461C63.5615 65.5451 63.4566 65.2549 63.3094 64.9856Z" fill="#005801"/>
<path d="M64.4132 65.927C64.4132 65.927 63.6882 66.6588 63.4966 67.4424C63.305 68.226 63.6465 69.0615 63.6465 69.0615C63.6465 69.0615 64.3058 68.5426 64.4975 67.7591C64.6892 66.9755 64.4131 65.927 64.4131 65.927L64.4132 65.927Z" fill="#005801"/>
<path d="M66.2291 70.6505C66.4184 71.0504 66.5567 71.4723 66.6408 71.9065C66.7243 72.4783 66.6469 72.6763 66.6469 72.6763C66.6469 72.6763 66.3074 73.0093 66.1551 73.2051C65.9594 73.4567 65.9308 73.9173 65.9308 73.9173C65.9308 73.9173 65.2489 72.9062 65.354 72.167C65.459 71.428 66.2291 70.6504 66.2291 70.6504L66.2291 70.6505Z" fill="#005801"/>
<path d="M67.6656 72.233C67.6656 72.233 66.7926 72.8082 66.4462 73.3983C66.2401 73.7606 66.1804 74.1877 66.2793 74.5925C66.6834 74.5351 67.0397 74.2981 67.2481 73.9479C67.5946 73.3581 67.6655 72.2329 67.6655 72.2329L67.6656 72.233Z" fill="#005801"/>
<path d="M61.9291 74.6623C61.9291 74.6623 63.1873 74.6281 63.9563 74.8168C64.7254 75.0052 65.0053 75.4165 65.0053 75.4165C65.0053 75.4165 64.1406 75.8203 63.3716 75.6318C62.6025 75.4434 61.929 74.6622 61.929 74.6622L61.9291 74.6623Z" fill="#005801"/>
<path d="M61.7166 73.1731C61.7166 73.1731 62.2842 74.051 63.018 74.3695C64.0294 74.8083 65.2004 74.5956 65.2004 74.5956C65.2004 74.5956 64.5642 73.8179 63.6889 73.4746C62.8133 73.1313 61.7166 73.1732 61.7166 73.1732L61.7166 73.1731Z" fill="#005801"/>
<path d="M104.795 55.9366L104.959 56.283C104.796 56.344 104.659 56.4595 104.572 56.6098C104.451 56.8458 104.65 57.1789 104.65 57.1789C104.65 57.1789 103.267 57.0584 103.051 57.1985C102.855 57.325 103.134 58.2809 103.005 59.0883C102.826 60.2136 102.381 60.1191 102.363 60.3371C102.345 60.549 102.533 60.8798 102.533 60.8798C102.533 60.8798 102.274 60.9613 102.218 61.0695C102.129 61.2435 102.28 61.5644 102.172 61.7756C101.571 62.9536 100.682 64.6924 100.095 65.8429C100.012 66.0034 99.7919 66.0647 99.6814 66.281C99.6233 66.4383 99.6164 66.6099 99.6618 66.7713C99.6618 66.7713 99.2724 66.7946 99.1374 67.0591C99.0523 67.2685 99.0318 67.4984 99.0783 67.7194C98.921 67.7474 98.7854 67.8464 98.7111 67.9875C98.5819 68.2406 98.8007 68.3733 98.7442 68.4845C97.9543 70.0303 97.024 71.8525 96.4564 72.9637C96.2476 73.3723 95.5168 73.4542 95.0927 74.2846C94.85 74.7416 94.9208 75.3013 95.2696 75.6839C95.2696 75.6839 94.6586 75.739 94.4962 76.0567C94.3308 76.3805 94.4617 76.8721 94.9027 77.0963C95.3437 77.3203 95.8255 77.1389 95.9911 76.8152C96.1533 76.4975 95.827 75.9716 95.827 75.9716C96.3433 76.0237 96.8375 75.7498 97.0659 75.285C97.4902 74.4546 97.1325 73.8236 97.3412 73.4149C97.909 72.3036 98.8394 70.4816 99.6291 68.9357C99.6861 68.8244 99.9194 68.9207 100.049 68.6677C100.119 68.5257 100.119 68.3586 100.049 68.2166C100.257 68.1235 100.432 67.971 100.553 67.7783C100.689 67.5138 100.481 67.1834 100.481 67.1834C100.639 67.127 100.775 67.0216 100.868 66.8827C100.978 66.6665 100.897 66.4548 100.979 66.294C101.567 65.1437 102.456 63.4048 103.057 62.227C103.165 62.0156 103.513 61.9433 103.602 61.7691C103.657 61.661 103.569 61.403 103.569 61.403C103.569 61.403 103.951 61.3652 104.113 61.2263C104.279 61.0835 103.942 60.7773 104.749 59.9709C105.328 59.3925 106.262 59.0523 106.25 58.8201C106.236 58.5633 105.326 57.5189 105.326 57.5189C105.326 57.5189 105.71 57.4866 105.83 57.2509C105.901 57.0903 105.915 56.9103 105.87 56.7408L106.25 56.6754L106.25 54.8772L104.795 55.9366ZM92.2285 80.9809C92.1657 81.1064 92.1657 81.254 92.2285 81.3796C92.2285 81.3796 91.7697 81.2365 91.6123 81.3142C91.464 81.3873 91.6123 83.5441 91.6123 83.5441C91.6123 83.5441 93.4427 82.3922 93.4148 82.2297C93.3854 82.057 93.0019 81.7654 93.0019 81.7654C93.1393 81.7443 93.2585 81.6595 93.3232 81.5367C93.3833 81.4185 93.3914 81.0809 92.9756 80.8695C92.8517 80.8008 92.7106 80.7691 92.5691 80.7781C92.4295 80.787 92.3026 80.8625 92.2285 80.9809Z" fill="black"/>
<path d="M105.127 56.0088L105.993 56.447L105.98 55.4072L105.127 56.0088Z" fill="#FDD406"/>
<path d="M104.793 56.6364C104.641 56.8662 104.704 57.1757 104.934 57.3279C105.164 57.4801 105.475 57.4172 105.627 57.1874C105.78 56.9577 105.717 56.6481 105.486 56.496C105.47 56.4852 105.453 56.4754 105.436 56.4666C105.349 56.4217 105.251 56.4013 105.154 56.4076C105.001 56.4146 104.864 56.5017 104.793 56.6364Z" fill="#FDD406"/>
<path d="M103.305 57.4279C103.214 57.4866 103.338 58.2638 103.312 58.9251C103.287 59.5487 103.087 59.7243 102.978 59.9386C102.877 60.1365 102.512 60.3702 102.512 60.3702L102.814 60.671C102.814 60.671 103.01 60.3663 103.318 59.7618C103.682 59.0492 103.671 57.758 103.777 57.6892C104.057 57.5911 104.341 57.5082 104.63 57.4406C104.63 57.4406 103.933 57.4031 103.548 57.4081C103.467 57.4031 103.385 57.4097 103.305 57.4279Z" fill="#FDD406"/>
<path d="M103.385 61.0176C103.518 60.6872 103.669 60.3641 103.837 60.0498C104.261 59.2197 105.166 58.6176 105.187 58.4674C105.209 58.3126 104.873 57.5847 104.873 57.5847C104.873 57.5847 104.074 57.7374 103.961 57.8464C103.852 57.9515 103.9 59.03 103.476 59.8603C103.319 60.1834 103.144 60.4977 102.952 60.8019L103.385 61.0176Z" fill="#FDD406"/>
<path d="M105.423 58.5262C105.43 58.6525 104.378 59.4026 104.014 60.115C103.705 60.7193 103.575 61.0568 103.575 61.0568L103.994 61.1222C103.994 61.1222 103.965 60.6921 104.066 60.4944C104.176 60.2802 104.205 60.0178 104.696 59.6313C105.217 59.2214 105.921 58.8632 105.915 58.755C105.91 58.6551 105.128 57.6892 105.128 57.6892C105.241 57.9629 105.34 58.2423 105.423 58.5262Z" fill="#FDD406"/>
<path d="M102.343 63.1884C102.975 61.951 103.168 61.8667 103.247 61.7107C103.333 61.5432 103.312 61.3176 103.031 61.1744C102.947 61.128 102.851 61.1076 102.756 61.1158C102.633 61.1303 102.526 61.2069 102.474 61.3184C102.394 61.4744 102.437 61.683 101.805 62.9206L100.369 65.7256C100.287 65.868 100.336 66.0502 100.478 66.1325C100.478 66.1325 100.478 66.1325 100.478 66.1325C100.485 66.1367 100.493 66.1405 100.5 66.1441C100.639 66.2212 100.813 66.1721 100.891 66.0343C100.897 66.0233 100.902 66.0119 100.907 66.0001L102.343 63.1884Z" fill="#FDD406"/>
<path d="M99.8057 66.4057C99.7275 66.5591 99.8616 66.7843 100.107 66.9093C100.353 67.034 100.619 67.0104 100.697 66.857C100.775 66.7037 100.635 66.4784 100.389 66.3533C100.281 66.2951 100.158 66.268 100.035 66.275C99.941 66.2756 99.8541 66.3252 99.8057 66.4057Z" fill="#FDD406"/>
<path d="M99.2743 67.2033C99.1729 67.4016 99.3311 67.6865 99.6284 67.8378C99.9257 67.9889 100.248 67.951 100.349 67.7526C100.451 67.5542 100.293 67.2696 99.9954 67.1182C99.8939 67.0649 99.7822 67.0337 99.6676 67.0268C99.5132 67.004 99.3597 67.0729 99.2743 67.2033Z" fill="#FDD406"/>
<path d="M98.9403 68.0929C98.862 68.2461 98.9962 68.4714 99.2418 68.5963C99.4875 68.7212 99.7534 68.6973 99.8319 68.5441C99.9101 68.3908 99.7759 68.1655 99.5303 68.0406C99.4195 67.9822 99.2949 67.955 99.1698 67.962C99.0756 67.9627 98.9886 68.0123 98.9403 68.0929Z" fill="#FDD406"/>
<path d="M98.7239 68.9429C98.7239 68.9429 97.1299 72.0723 96.5676 73.1734C96.3878 73.5252 95.6313 73.7444 95.3351 74.3244C95.0367 74.9079 95.2472 75.454 95.6365 75.6517C96.0256 75.8496 96.5971 75.7058 96.8952 75.1222C97.1914 74.5423 96.9253 73.7998 97.1048 73.4482C97.6673 72.3466 99.2616 69.2175 99.2616 69.2175C99.3464 69.0792 99.3028 68.8984 99.1642 68.8138C99.1554 68.8084 99.1463 68.8035 99.137 68.7991C99.0807 68.7693 99.0166 68.7579 98.9535 68.7664C98.8538 68.7868 98.769 68.8519 98.7239 68.9429Z" fill="#FDD406"/>
<path d="M94.6916 76.2074C94.5722 76.4411 94.7088 76.7526 94.9996 76.9004C95.2905 77.0483 95.6275 76.9772 95.747 76.7436C95.8665 76.5098 95.7232 76.1982 95.4324 76.0504C95.3315 75.9971 95.2187 75.9702 95.1046 75.972C94.934 75.9688 94.7755 76.0592 94.6916 76.2074Z" fill="#FDD406"/>
<path d="M92.5681 80.9874C92.4909 80.9805 92.4159 81.0155 92.3716 81.079C92.3105 81.1984 92.4366 81.3872 92.6534 81.4975C92.8702 81.6076 93.097 81.5973 93.1582 81.4778C93.2193 81.3581 93.0929 81.1694 92.8764 81.0593C92.7813 81.0099 92.6753 80.9851 92.5682 80.9873L92.5681 80.9874Z" fill="#FDD406"/>
<path d="M91.8208 81.5757V83.1189L93.0795 82.2165C92.8059 81.7927 92.3254 81.548 91.8208 81.5756V81.5757Z" fill="#FDD406"/>
<path d="M92.6174 47.2069C92.6174 46.3606 93.7318 45.5264 93.7318 45.5264H66.554C66.554 45.5264 67.6684 46.3604 67.6684 47.2069V67.3863C67.6586 67.8297 67.81 68.2616 68.0945 68.6024C68.3559 68.9668 68.9127 69.4703 69.4906 69.8448C71.2756 71.0012 74.2599 72.2205 76.5179 73.2451C78.3995 74.0988 79.1648 74.4433 80.1429 75.6514C81.121 74.4433 81.8929 74.099 83.7745 73.2451C86.0321 72.2206 89.0165 71.0012 90.8017 69.8448C91.3798 69.4703 91.9367 68.9669 92.1979 68.6024C92.4803 68.2608 92.6293 67.8289 92.6174 67.3863L92.6174 47.2069Z" fill="#FDD406"/>
<path d="M68.3108 58.6239V47.2068C68.3169 46.8341 68.2019 46.4694 67.9829 46.1672H92.3029C92.084 46.4694 91.969 46.8341 91.9751 47.2068L91.9821 58.6239L80.1465 62.2003L68.3108 58.6239Z" fill="#D91C16"/>
<path d="M91.982 58.6239L84.6533 58.4866H75.6395L68.3108 58.6239V67.3862C68.3108 67.8266 68.769 68.8583 71.4115 70.1716C75.7794 72.3427 79.1367 73.3564 80.143 74.5919C81.1492 73.3564 84.5065 72.3426 88.8745 70.1716C91.5169 68.8583 91.9751 67.8266 91.9751 67.3862L91.982 58.6239Z" fill="#0F3296"/>
<path d="M84.4761 58.1664C84.4761 58.1664 88.7041 57.103 88.7041 52.5953C88.7041 49.0747 84.4653 47.3281 84.3448 46.488C83.9306 47.9417 85.7608 49.9495 85.7608 52.3272C85.7608 55.4037 83.4861 55.5509 83.4861 55.5509C82.9538 55.5509 82.7382 55.93 82.529 55.93C82.0812 55.8834 81.8704 55.3153 81.4276 55.3153C81.0119 55.3153 80.6926 55.9561 80.1429 55.9561C79.5933 55.9561 79.2805 55.3153 78.8646 55.3153C78.4221 55.3153 78.2112 55.8834 77.7634 55.93C77.5542 55.93 77.3384 55.5509 76.8061 55.5509C76.8061 55.5509 74.5316 55.4037 74.5316 52.3272C74.5316 49.9495 76.362 47.9415 75.9475 46.488C75.8274 47.3281 71.5886 49.0745 71.5886 52.5953C71.5886 57.103 75.8167 58.1664 75.8167 58.1664L74.6104 60.3569C74.6104 60.3569 76.3577 60.4441 77.285 61.2332C78.4032 62.1845 78.2944 64.2002 78.2944 65.6665C78.2944 66.8219 78.148 68.041 77.5538 68.5435C76.7558 69.2184 76.2163 69.2684 76.2163 70.0607C76.2163 70.7215 76.7256 70.854 77.5538 71.2901C78.6149 71.8486 78.5655 72.5978 80.1429 72.5978C81.7206 72.5978 81.6776 71.8488 82.7389 71.2901C83.5671 70.854 84.0762 70.7216 84.0762 70.0607C84.0762 69.2684 83.5366 69.2184 82.7389 68.5435C82.1446 68.0408 81.9982 66.8217 81.9982 65.6665C81.9982 64.2002 81.8895 62.1845 83.0076 61.2332C83.9351 60.4442 85.6822 60.3569 85.6822 60.3569L84.4761 58.1664Z" fill="black"/>
<path d="M80.1426 46.801L79.4083 48.8806L77.4089 47.9323L78.3594 49.9268L76.2749 50.6656L78.3594 51.4045L77.4089 53.3923L79.4083 52.4442L80.1426 54.5235L80.8834 52.4442L82.8827 53.3923L81.9324 51.4045L84.0169 50.6656L81.9324 49.9268L82.8827 47.9323L80.8834 48.8806L80.1426 46.801Z" fill="black"/>
<path d="M75.639 58.4869C75.639 58.4869 73.0285 57.8503 72.0534 56.5645C70.968 57.5106 69.6915 58.213 68.3103 58.6242C68.3103 58.6242 70.4368 59.5819 72.0534 60.8017C72.7983 59.737 75.639 58.4869 75.639 58.4869Z" fill="black"/>
<path d="M84.6523 58.4869C84.6523 58.4869 87.4932 59.7369 88.2382 60.8017C89.8546 59.5819 91.981 58.6242 91.981 58.6242C90.5999 58.2129 89.3235 57.5105 88.2382 56.5645C87.2631 57.8502 84.6523 58.4869 84.6523 58.4869Z" fill="black"/>
<path d="M76.7082 61.2585L75.6921 62.2719L76.7082 63.2855L77.7243 62.2719L76.7082 61.2585Z" fill="black"/>
<path d="M83.5845 61.2585L82.5686 62.2719L83.5845 63.2855L84.6006 62.2719L83.5845 61.2585Z" fill="black"/>
<path d="M76.4525 67.1763C76.4645 67.8303 76.4228 68.4842 76.3281 69.1314C76.3281 69.1314 77.7604 68.7108 78.0457 67.2613C78.1794 66.5818 78.3283 64.0786 77.6392 63.6518L75.771 63.2856C76.2229 64.5332 76.4535 65.8498 76.4525 67.1763Z" fill="black"/>
<path d="M82.6535 63.6519C81.9645 64.0785 82.1134 66.5818 82.2471 67.2614C82.5323 68.7109 83.9646 69.1315 83.9646 69.1315C83.8699 68.4842 83.8283 67.8303 83.8402 67.1763C83.8391 65.8498 84.0698 64.5332 84.522 63.2856L82.6535 63.6519Z" fill="black"/>
<path d="M72.048 63.7244C71.4091 63.8776 71.0158 64.5184 71.1694 65.1556C71.1948 65.261 71.2346 65.3625 71.2876 65.4571C71.1922 65.4251 71.093 65.4053 70.9926 65.3983C70.9511 65.3962 70.9096 65.3962 70.8681 65.3983C70.2049 65.426 69.6898 65.9848 69.7176 66.6463C69.7454 67.3079 70.3056 67.8217 70.9688 67.7939C71.0185 67.7919 71.0681 67.7867 71.1172 67.7785C71.0587 67.8572 71.0103 67.9428 70.9731 68.0334C70.7219 68.6479 71.0177 69.3491 71.6337 69.5997C72.2496 69.8502 72.9526 69.5552 73.2038 68.9408L73.2083 68.9295C73.2441 68.8391 73.2684 68.7446 73.2806 68.6482C73.339 68.7283 73.4072 68.8008 73.4836 68.8639C73.9869 69.2965 74.7464 69.2402 75.18 68.7382C75.6136 68.2362 75.5571 67.4786 75.0539 67.0461C74.9715 66.9753 74.8799 66.9159 74.7816 66.8697C74.8759 66.8396 74.9662 66.7979 75.0502 66.7456C75.6133 66.3904 75.7832 65.6483 75.4304 65.0846C75.1963 64.7119 74.7755 64.4983 74.3357 64.5288C74.1354 64.5424 73.9417 64.6053 73.7719 64.712C73.6882 64.7634 73.6112 64.8248 73.5425 64.895C73.5395 64.2271 72.9942 63.6881 72.3247 63.6912C72.2315 63.6916 72.1386 63.7027 72.048 63.7244Z" fill="black"/>
<path d="M84.8296 67.2159C84.9599 68.4405 85.9575 69.4664 87.1894 69.7595C86.9757 69.4163 86.8413 69.0299 86.7961 68.6284C86.6418 67.1761 87.7677 65.9996 89.3067 65.9996C89.5452 65.9999 89.7829 66.0285 90.0146 66.0848C89.441 65.1587 88.4312 64.5909 87.34 64.5808C85.8011 64.5809 84.675 65.7639 84.8296 67.2159Z" fill="black"/>
<path d="M73.9158 52.3272C73.9158 54.6427 75.1537 56.0085 76.8067 56.0085C77.1219 56.0085 77.4668 56.4336 77.7638 56.4336C78.2481 56.4336 78.5703 55.8974 78.8652 55.8974C79.24 55.8974 79.4926 56.4858 80.1434 56.4858C80.7942 56.4858 81.0534 55.8974 81.4282 55.8974C81.723 55.8974 82.0451 56.4336 82.5294 56.4336C82.8266 56.4336 83.1712 56.0085 83.4866 56.0085C85.1396 56.0085 86.3775 54.6427 86.3775 52.3272C86.3775 50.4389 84.7877 48.1364 84.9616 47.7629C84.9616 47.7629 88.0622 49.9815 88.0622 52.5952C88.0622 56.8055 83.7816 57.846 83.7816 57.846L84.7452 60.0102C84.7452 60.0102 83.4183 60.2087 82.6082 60.8604C81.5276 61.7296 81.5134 64.078 81.5134 65.6663C81.5134 67.5373 81.5831 68.3301 82.2608 68.8377C82.9753 69.3733 83.5127 69.4886 83.5127 70.0344C83.5127 70.51 82.9563 70.7045 82.2344 71.0218C81.4132 71.3829 81.3314 72.0092 80.1434 72.0092C78.9552 72.0092 78.8799 71.3829 78.0587 71.0218C77.3369 70.7045 76.7804 70.5101 76.7804 70.0344C76.7804 69.4886 77.3178 69.3733 78.0323 68.8377C78.71 68.3301 78.7796 67.5373 78.7796 65.6663C78.7796 64.078 78.7655 61.7296 77.6849 60.8604C76.8746 60.2085 75.5479 60.0102 75.5479 60.0102L76.5114 57.846C76.5114 57.846 72.231 56.8057 72.231 52.5952C72.231 49.9815 75.3317 47.7629 75.3317 47.7629C75.5055 48.1364 73.9158 50.4389 73.9158 52.3272ZM78.5241 69.7145C77.6832 69.7145 77.1475 69.8915 77.1475 70.1461C77.1475 70.4007 77.6833 70.5711 78.5241 70.5711C78.7481 70.5711 79.0026 70.441 79.0026 70.1461C78.9969 69.9013 78.7933 69.7076 78.548 69.7133C78.54 69.7134 78.532 69.7138 78.5241 69.7145ZM81.7688 69.7145C81.5241 69.6956 81.3104 69.8781 81.2915 70.1222C81.2909 70.1301 81.2905 70.1381 81.2903 70.1461C81.2902 70.441 81.5447 70.5711 81.7688 70.5711C82.6098 70.5711 83.1453 70.4009 83.1453 70.1461C83.1453 69.8914 82.6097 69.7145 81.7688 69.7145Z" fill="#FDD406"/>
<path d="M80.1504 48.2012L80.6224 49.5288L81.894 48.9207L81.2909 50.1957L82.6152 50.6666L81.2909 51.1374L81.8941 52.4059L80.6224 51.8043L80.1439 53.1251L79.6719 51.8043L78.4002 52.4059L79.0034 51.1374L77.6792 50.6666L79.0034 50.1957L78.4002 48.9207L79.6719 49.5288L80.1504 48.2012Z" fill="#FDD406"/>
<path d="M69.5552 58.6619C69.5552 58.6619 71.1697 59.464 71.9808 60.1789L72.0265 60.2181L72.0526 60.1856C72.8191 59.3079 74.242 58.5639 74.242 58.5639C74.242 58.5639 72.875 58.1878 72.0134 57.2039C71.1028 58.1296 69.5552 58.6619 69.5552 58.6619Z" fill="#FDD406"/>
<path d="M90.7359 58.6641C90.7359 58.6641 89.1213 59.4662 88.3103 60.1811L88.2646 60.2203L88.2385 60.1878C87.4719 59.3101 86.0491 58.5661 86.0491 58.5661C86.0491 58.5661 87.4161 58.19 88.2777 57.2061C89.1883 58.1318 90.7359 58.6641 90.7359 58.6641Z" fill="#FDD406"/>
<path d="M76.7084 61.7429L77.2395 62.2724L76.7084 62.8087L76.1709 62.2724L76.7084 61.7429Z" fill="#FDD406"/>
<path d="M83.5846 61.7429L84.1223 62.2724L83.5846 62.8087L83.0537 62.2724L83.5846 61.7429Z" fill="#FDD406"/>
<path d="M77.4298 64.0572C77.8007 64.5678 77.7377 65.3935 77.7377 66.5422C77.7603 67.1944 77.4266 67.8075 76.866 68.144C76.866 65.3603 76.5782 64.691 76.4268 63.8479L77.4298 64.0572Z" fill="#FDD406"/>
<path d="M83.8663 63.8479C83.7145 64.6912 83.4272 65.3603 83.4272 68.1439C82.8666 67.8075 82.5328 67.1944 82.5553 66.5421C82.5553 65.3934 82.4923 64.568 82.8634 64.0573L83.8663 63.8479Z" fill="#FDD406"/>
<path d="M73.3064 64.9013C73.3305 65.0019 73.3371 65.1058 73.326 65.2087C73.3174 65.2895 73.2976 65.3686 73.2671 65.444C72.7419 65.2582 72.1562 65.4082 71.7856 65.8233C71.7199 65.7662 71.6626 65.7001 71.6153 65.6271C71.5588 65.5431 71.5167 65.4503 71.4907 65.3525C71.3662 64.8523 71.6717 64.346 72.1732 64.2218C72.6742 64.0977 73.1812 64.4018 73.3064 64.9013Z" fill="#FDD406"/>
<path d="M74.7039 66.6459C74.6153 66.6998 74.5183 66.7382 74.4168 66.7595C74.3371 66.7762 74.2555 66.7819 74.1743 66.7763C74.189 66.2206 73.865 65.7113 73.3547 65.488C73.389 65.4081 73.4342 65.3333 73.4892 65.2658C73.5518 65.1863 73.6273 65.1177 73.7125 65.0628C74.1508 64.7897 74.7279 64.9227 75.0017 65.3599C75.2755 65.797 75.1421 66.3728 74.7039 66.6459Z" fill="#FDD406"/>
<path d="M73.4726 68.5107C73.3938 68.4434 73.3272 68.3632 73.2756 68.2735C73.2349 68.2031 73.2043 68.1274 73.1846 68.0486C73.7189 67.8909 74.1044 67.4262 74.1596 66.873C74.2464 66.8808 74.3317 66.9006 74.413 66.9319C74.5082 66.9668 74.5969 67.0172 74.6756 67.081C75.0705 67.4134 75.1206 68.0022 74.7873 68.3962C74.4553 68.7887 73.8678 68.8399 73.4726 68.5107Z" fill="#FDD406"/>
<path d="M71.314 67.919C71.3539 67.8235 71.4098 67.7354 71.4793 67.6587C71.5339 67.5985 71.5966 67.546 71.6656 67.5029C71.9811 67.9611 72.5433 68.1832 73.0878 68.0647C73.1072 68.1494 73.1146 68.2364 73.1099 68.3232C73.1061 68.4243 73.0855 68.5241 73.0489 68.6185C72.8553 69.0963 72.3099 69.3271 71.8308 69.134C71.3518 68.9408 71.1204 68.3968 71.314 67.919Z" fill="#FDD406"/>
<path d="M71.2113 65.6881C71.3146 65.6964 71.4158 65.7222 71.5105 65.7645C71.5848 65.7977 71.6542 65.841 71.7166 65.8931C71.3772 66.334 71.3392 66.936 71.6205 67.4158C71.5457 67.4605 71.465 67.4944 71.3808 67.5168C71.2832 67.5444 71.1817 67.5556 71.0804 67.5501C70.565 67.5141 70.1764 67.068 70.2125 66.5539C70.2487 66.0397 70.6958 65.6521 71.2113 65.6881Z" fill="#FDD406"/>
<path d="M72.8016 67.6354C73.3013 67.6354 73.7063 67.2314 73.7063 66.733C73.7063 66.2346 73.3013 65.8306 72.8016 65.8306C72.302 65.8306 71.897 66.2346 71.897 66.733C71.897 67.2314 72.302 67.6354 72.8016 67.6354Z" fill="#FDD406"/>
<path d="M88.6842 65.5162C87.1823 65.8059 86.1015 67.1291 86.2587 68.6745C85.7801 68.2791 85.4298 67.7464 85.3672 67.1575C85.2455 66.0106 86.0806 65.1238 87.3404 65.1238C87.8161 65.128 88.2813 65.2639 88.6842 65.5162Z" fill="#FDD406"/>
<path d="M93.2005 45.7278H67.0853C67.4317 46.0757 67.8713 46.6305 67.8713 47.2055V64.7301H67.8705V67.3851H67.8713C67.8674 67.593 67.9009 67.7999 67.9703 67.996C68.0375 68.1698 68.1312 68.3323 68.248 68.4778L68.2527 68.4841C68.5073 68.8077 68.803 69.0969 69.1325 69.3444C69.2069 69.4026 69.2831 69.4597 69.3599 69.5147C69.4344 69.568 69.5124 69.6213 69.5927 69.6732L69.5945 69.6745C70.9843 70.5745 73.1253 71.5208 75.0706 72.3803C75.6129 72.62 76.1419 72.8537 76.5938 73.0588L76.5946 73.0596L76.6378 73.079H76.6385C78.4191 73.8869 79.213 74.2475 80.1428 75.3336C81.0752 74.2434 81.8666 73.8843 83.6635 73.069L83.6634 73.0688L83.6839 73.0595C84.1368 72.8539 84.6648 72.6207 85.2071 72.3811C87.1525 71.5215 89.2938 70.5752 90.6839 69.6751L90.685 69.6743C91.075 69.4212 91.436 69.1264 91.7617 68.7951C91.8147 68.74 91.8645 68.6853 91.9096 68.6322C91.9521 68.5824 91.9912 68.5326 92.0259 68.4842L92.029 68.4811L92.0297 68.4802L92.0313 68.4778C92.1489 68.3316 92.2439 68.1686 92.313 67.9944C92.384 67.7992 92.4184 67.5927 92.4145 67.3851H92.4153V64.7301H92.4145V47.2055C92.4145 46.6305 92.8542 46.0757 93.2005 45.7278ZM92.8211 47.2055V64.7301H92.8203V67.3851H92.8211C92.8249 67.6414 92.7813 67.8963 92.6926 68.1369C92.6101 68.3469 92.4966 68.5435 92.3557 68.72L92.3562 68.7203C92.3178 68.7738 92.2717 68.8321 92.2194 68.8936C92.1698 68.9517 92.1142 69.0129 92.0539 69.0755C91.7066 69.429 91.3216 69.7435 90.9058 70.0134L90.9047 70.0142C89.4842 70.934 87.3289 71.8865 85.3707 72.7517C84.8582 72.9781 84.3593 73.1986 83.8521 73.4287L83.8316 73.438H83.8309C81.9954 74.2709 81.2446 74.6115 80.3009 75.7772L80.1429 75.9723L79.9849 75.7772C79.0453 74.6168 78.2902 74.2741 76.4702 73.4483L76.4704 73.448L76.4277 73.4287L76.4262 73.4279L76.4256 73.4277L76.4255 73.428C75.9172 73.1973 75.4193 72.9774 74.9069 72.7509C72.9488 71.8857 70.7934 70.9332 69.3734 70.0134L69.3686 70.0102L69.3671 70.0091L69.3672 70.009C69.2872 69.9572 69.2053 69.9014 69.1231 69.8426C69.0414 69.784 68.961 69.7238 68.8831 69.6629C68.5229 69.3913 68.1999 69.0738 67.9224 68.7186C67.782 68.5423 67.6696 68.3456 67.5891 68.1353C67.5029 67.8947 67.4607 67.6406 67.4647 67.3851H67.4655V64.7301H67.4647V47.2055C67.4647 46.4594 66.435 45.6889 66.4321 45.6867V45.3223H93.8537V45.6867C93.8508 45.6889 92.8211 46.4594 92.8211 47.2055ZM92.2061 45.9638L92.2067 45.963H92.3033L92.7242 45.9629L92.4612 46.2918C92.2702 46.5578 92.1711 46.8785 92.1787 47.2055V64.7301H92.1779V67.3851H92.1787C92.1787 67.7441 91.9268 68.4374 90.7405 69.3016L90.7407 69.3019C90.519 69.4635 90.2628 69.6327 89.9681 69.8081C89.6714 69.9847 89.3395 70.1659 88.9694 70.35L88.9691 70.3493L88.9653 70.3513V70.3521C87.3803 71.1399 85.9166 71.7803 84.6528 72.3332C82.4823 73.2826 80.9101 73.9704 80.3008 74.7178L80.2977 74.7218L80.297 74.7226L80.1388 74.9065L79.9857 74.7186C79.3767 73.9708 77.804 73.2826 75.6325 72.3328C74.3696 71.7804 72.9071 71.1405 71.3235 70.3536V70.3528L71.3209 70.3514L71.3205 70.3521C70.1969 69.7937 69.4578 69.2816 68.9777 68.8417C68.8829 68.7544 68.7977 68.6702 68.722 68.5891C68.2342 68.0662 68.1082 67.6439 68.1079 67.3858H68.1071V67.3851H68.1079V64.7301H68.1071V47.2055C68.1148 46.8785 68.0156 46.5578 67.8247 46.2918L67.5617 45.9639H68.435V45.9631H91.851V45.9639L92.2061 45.9638ZM91.8509 46.3678V46.3686H68.435V46.3678H68.3338C68.4527 46.6311 68.514 46.9167 68.5137 47.2055V64.7301H68.5129V67.3851H68.5137V67.3858H68.5129C68.513 67.5681 68.6169 67.8824 69.019 68.3134C69.0882 68.3874 69.1659 68.4645 69.2524 68.544C69.7067 68.9604 70.4145 69.4491 71.5017 69.9892V69.9901L71.5043 69.9914L71.5047 69.9907C73.0976 70.7824 74.5448 71.4156 75.7945 71.9622C77.8605 72.8659 79.397 73.538 80.1428 74.2895C80.8887 73.5382 82.4252 72.8661 84.4907 71.9625C85.7414 71.4154 87.1899 70.7817 88.7841 69.9893L88.7844 69.99L88.7882 69.988V69.9872C89.157 69.8038 89.4793 69.6282 89.7599 69.4611C90.0425 69.293 90.2883 69.1306 90.5009 68.9757H90.5016C91.5496 68.2126 91.7721 67.6598 91.7721 67.3851H91.7729V64.7301H91.7721V47.2055C91.7718 46.9167 91.8331 46.6311 91.952 46.3678L91.8509 46.3678Z" fill="black"/>
</g>
</g>
<defs>
<clipPath id="clip0_909_288026">
<rect width="160" height="120" fill="white"/>
</clipPath>
<clipPath id="clip1_909_288026">
<rect width="51.25" height="64.3772" fill="white" transform="translate(55 28)"/>
</clipPath>
</defs>
</svg>
