<svg width="160" height="120" viewBox="0 0 160 120" fill="none" xmlns="http://www.w3.org/2000/svg">
<g clip-path="url(#clip0_307_64887)">
<path d="M0 120V0H160V120H0Z" fill="#0F3296"/>
<path d="M0 116.258L160 0V24.0203L0 118.5V116.258Z" fill="#F4812F"/>
<path d="M0 118.08L160 23.5V47.0249L0 120V118.08Z" fill="white"/>
<path d="M43.1 32.4L48.7 18.4L46.3 33.2L55.1 21.2L48.7 34.8L60.3 25.2L51.1 36.8L64.7 30.8L52.7 39.6L67.5 37.2L53.1 42.8L78.7 44L53.1 45.6L67.5 51.2L52.7 48.8L64.7 57.6L51.1 51.2L60.3 62.8L48.7 53.6L55.1 67.2L46.3 55.2L48.7 70L43.1 55.6L41.5 81.2L40.3 55.6L34.7 70L37.1 55.2L28.3 67.2L34.3 53.6L22.7 62.8L32.3 51.2L18.7 57.6L30.7 48.8L15.9 51.2L29.9 45.6L4.30005 44L29.9 42.8L15.9 37.2L30.7 39.6L18.7 30.8L32.3 36.8L22.7 25.2L34.3 34.8L28.3 21.2L37.1 33.2L34.7 18.4L40.3 32.4L41.5 6.80002L43.1 32.4Z" fill="white"/>
</g>
<defs>
<clipPath id="clip0_307_64887">
<rect width="160" height="120" fill="white"/>
</clipPath>
</defs>
</svg>
