<svg width="160" height="120" viewBox="0 0 160 120" fill="none" xmlns="http://www.w3.org/2000/svg">
<g clip-path="url(#clip0_909_289090)">
<path d="M0 0H160V120H0V0Z" fill="#D91C16"/>
<path d="M0 72V48L80 60L160 72V48L80 60L0 72ZM68 0H92L80 60L68 0ZM92 120H68L80 60L92 120ZM0 0H30L80 60L0 0ZM0 120H30L80 60L0 120ZM160 0H130L80 60L160 0ZM160 120H130L80 60L160 120Z" fill="#FDD406"/>
<path d="M79.9998 77.1417C89.4675 77.1417 97.1426 69.4666 97.1426 59.9988C97.1426 50.5311 89.4675 42.856 79.9998 42.856C70.5321 42.856 62.8569 50.5311 62.8569 59.9988C62.8569 69.4666 70.5321 77.1417 79.9998 77.1417Z" fill="#FDD406"/>
<path d="M97.1431 59.9985C97.1429 50.5309 89.4672 42.856 79.9995 42.856C70.532 42.8561 62.8571 50.531 62.8569 59.9985C62.8569 69.3183 70.294 76.9014 79.5571 77.1362L79.9995 77.1421C89.3194 77.1421 96.9027 69.7043 97.1372 60.4409L97.1431 59.9985ZM101.428 59.9985C101.428 71.8332 91.8342 81.4272 79.9995 81.4272C68.165 81.4271 58.5708 71.8331 58.5708 59.9985C58.571 48.1641 68.1651 38.57 79.9995 38.5698C91.8341 38.5698 101.428 48.164 101.428 59.9985Z" fill="#D91C16"/>
</g>
<defs>
<clipPath id="clip0_909_289090">
<rect width="160" height="120" fill="white"/>
</clipPath>
</defs>
</svg>
