<svg width="160" height="120" viewBox="0 0 160 120" fill="none" xmlns="http://www.w3.org/2000/svg">
<g clip-path="url(#clip0_307_64892)">
<path d="M0 0H160V120H0V0Z" fill="#D91C16"/>
<path d="M0 72V48L160 72V48L0 72ZM72 0H88L80 47.1429L72 0ZM88 120H72L80 72.8571L88 120ZM0 0H24L87.3486 66.6171L0 0ZM0 120H24L87.3486 53.3829L0 120ZM160 0H136L72.6514 66.6171L160 0ZM160 120H136L72.6514 53.3829L160 120Z" fill="#FDD406"/>
<path d="M80.1793 81.3571C92.0511 81.3571 101.675 71.7632 101.675 59.9286C101.675 48.0939 92.0511 38.5 80.1793 38.5C68.3076 38.5 58.6836 48.0939 58.6836 59.9286C58.6836 71.7632 68.3076 81.3571 80.1793 81.3571Z" fill="#D91C16"/>
<path d="M79.8929 77.2857C89.3903 77.2857 97.0895 69.6106 97.0895 60.1429C97.0895 50.6751 89.3903 43 79.8929 43C70.3955 43 62.6963 50.6751 62.6963 60.1429C62.6963 69.6106 70.3955 77.2857 79.8929 77.2857Z" fill="#FDD406"/>
</g>
<defs>
<clipPath id="clip0_307_64892">
<rect width="160" height="120" fill="white"/>
</clipPath>
</defs>
</svg>
