<svg width="160" height="120" viewBox="0 0 160 120" fill="none" xmlns="http://www.w3.org/2000/svg">
<path d="M0 0H160V120H0V0Z" fill="#E23726"/>
<path d="M0 24H160V96H0V24Z" fill="#1E9A1C"/>
<path d="M67.94 44.64H77.12L80 36L82.88 44.64H92.06L84.5 50.16L87.56 58.92L80 53.52L72.44 58.92L75.5 50.16L67.94 44.64ZM35 40.2C36.756 49.0138 42.2446 57.0256 50.4868 62.8062C58.729 68.5867 69.1887 71.76 80 71.76C90.8113 71.76 101.271 68.5867 109.513 62.8062C117.755 57.0256 123.244 49.0138 125 40.2C125 51.8165 120.259 62.9572 111.82 71.1713C103.381 79.3854 91.9347 84 80 84C68.0653 84 56.6193 79.3854 48.1802 71.1713C39.7411 62.9572 35 51.8165 35 40.2Z" fill="#FDD406"/>
</svg>
