<svg width="160" height="120" viewBox="0 0 160 120" fill="none" xmlns="http://www.w3.org/2000/svg">
<g clip-path="url(#clip0_421_828)">
<path d="M0 0H160V120H0V0Z" fill="#021455"/>
<path d="M0 0H80V50H0V0Z" fill="#021455"/>
<path d="M9.375 0L39.875 18.8542L70.25 0H80V6.45833L50 25.1042L80 43.6458V50H70L40 31.3542L10.125 50H0V43.75L29.875 25.2083L0 6.66667V0H9.375Z" fill="white"/>
<path d="M53 29.2708L80 45.8333V50L46.125 29.2708H53ZM30 31.3542L30.75 35L6.75 50H0L30 31.3542ZM80 0V0.3125L48.875 19.8958L49.125 15.3125L73.75 0H80ZM0 0L29.875 18.3333H22.375L0 4.375V0Z" fill="#D91C16"/>
<path d="M30.125 0V50H50.125V0H30.125ZM0 16.6667V33.3333H80V16.6667H0Z" fill="white"/>
<path d="M0 20.1042V30.1042H80V20.1042H0ZM34.125 0V50H46.125V0H34.125Z" fill="#D91C16"/>
<path d="M93.8934 29.5054H145.269L145.208 66.0628C145.635 80.7587 136.476 89.878 119.622 93.9896C107.655 91.0176 93.8544 84.8704 93.834 66.4798L93.8951 29.5054L93.8934 29.5054Z" fill="white"/>
<path d="M95.0303 30.6074H144.129L144.071 65.6384C144.479 79.7204 135.725 88.4588 119.618 92.3988C108.181 89.5514 94.9921 83.6604 94.9727 66.0378L95.031 30.6074H95.0303Z" fill="#54AEF2"/>
<path d="M119.618 92.5855L119.574 92.5748C108.945 89.9285 94.8113 84.2986 94.791 66.0378L94.8494 30.607L95.0301 30.6073V30.426H144.31L144.31 30.6076L144.252 65.6386C144.651 79.421 136.378 88.4855 119.661 92.5748L119.618 92.5855ZM95.2115 30.7885L95.1535 66.038C95.1734 84.0191 109.112 89.5906 119.619 92.2121C136.118 88.164 144.283 79.2255 143.889 65.6435L143.947 30.7885H95.2115Z" fill="black"/>
<path d="M143.749 69.7878C141.963 83.2298 131.61 89.103 119.618 92.2202C109.003 89.3726 97.5829 84.8266 95.3691 69.8554L143.749 69.7879L143.749 69.7878Z" fill="#AD7D5A"/>
<path d="M117.673 37.1331L117.604 32.718L121.095 32.7522L121.13 37.1331H130.678L130.713 40.5556L121.13 40.5898L121.053 80.9528L117.648 80.9743L117.604 40.5557L108.088 40.5899L108.09 37.099L117.673 37.1331Z" fill="#784B26"/>
<path fill-rule="evenodd" clip-rule="evenodd" d="M109.943 71.4536L118.684 80.5212C121.706 77.1992 119.61 64.7821 115.634 62.4951C115.158 63.9654 114.347 65.7283 113.486 66.2967C111.591 67.5881 106.948 69.0979 108.5 70.0648C108.854 69.5747 109.78 69.1118 110.215 70.2011C110.733 71.9164 108.282 72.0255 108.282 72.0255C108.282 72.0255 106.73 71.8347 106.458 70.2553C106.185 68.6762 108.769 67.2343 108.99 67.1241C109.208 67.0423 112.584 66.1439 113.156 63.1484C113.864 60.2075 114.599 60.6434 114.735 60.5889C119.146 61.0245 122.033 68.9213 122.196 74.476C122.36 80.0308 119.936 83.7068 119.501 83.9519C119.065 84.1969 108.99 71.9982 108.99 71.9982L109.943 71.4536Z" fill="#F4812F"/>
<path d="M119.49 84.0545C119.296 84.0545 118.599 83.5145 114.009 78.1297C111.465 75.1445 108.942 72.0904 108.916 72.0598L108.896 72.0348C108.569 72.108 108.311 72.1209 108.287 72.1221C108.255 72.1193 106.645 71.9029 106.363 70.2717C106.068 68.5584 108.919 67.052 108.948 67.0375C108.971 67.0281 108.998 67.0195 109.036 67.0072C110.343 66.5883 112.604 65.5275 113.062 63.1303C113.63 60.7719 114.218 60.4807 114.663 60.4973C114.681 60.4975 114.695 60.499 114.707 60.4971L114.729 60.4883L114.746 60.4926C116.768 60.6922 118.686 62.4959 120.147 65.5713C121.405 68.2201 122.208 71.548 122.294 74.473C122.459 80.0891 119.973 83.7977 119.549 84.0361C119.533 84.0451 119.516 84.0545 119.49 84.0545ZM109.139 72.0252C113.004 76.7027 118.852 83.5994 119.475 83.8537C119.941 83.5197 122.261 79.9223 122.101 74.4789C121.94 69.0145 119.064 61.1338 114.745 60.6869C114.717 60.6924 114.689 60.6916 114.657 60.6906C114.461 60.6861 113.854 60.6686 113.251 63.1711C112.776 65.6621 110.443 66.7596 109.095 67.1916C109.061 67.2023 109.038 67.21 109.025 67.2146C108.45 67.5021 106.318 68.8701 106.554 70.2389C106.811 71.7301 108.28 71.9275 108.295 71.9293C108.293 71.9285 108.803 71.9021 109.295 71.7131L109.838 71.4025C109.906 71.3436 109.968 71.2779 110.019 71.2051C110.205 70.9432 110.24 70.6146 110.124 70.2289C109.98 69.8711 109.771 69.6687 109.503 69.6359C109.159 69.5936 108.777 69.8479 108.579 70.1213L108.526 70.1945L108.45 70.1469C108.203 69.993 108.082 69.8117 108.092 69.6082C108.125 68.949 109.591 68.2246 111.143 67.4576C111.981 67.0436 112.848 66.6152 113.433 66.2168C114.272 65.6629 115.073 63.9158 115.543 62.4652L115.58 62.3518L115.683 62.4113C117.578 63.501 119.244 67.0326 119.929 71.4088C120.438 74.6625 120.398 78.782 118.756 80.5861L118.687 80.6627L109.93 71.5783C109.764 71.7133 109.57 71.8148 109.373 71.8914L109.139 72.0252ZM110.071 71.4465L118.681 80.3783C119.962 78.8695 120.368 75.4631 119.738 71.4387C119.074 67.1984 117.492 63.7699 115.689 62.6404C115.204 64.0984 114.397 65.8119 113.54 66.3773C112.946 66.7828 112.073 67.2141 111.229 67.6311C109.862 68.3064 108.312 69.0721 108.286 69.6176C108.28 69.7295 108.344 69.8334 108.48 69.934C108.716 69.6514 109.121 69.3951 109.527 69.4438C109.762 69.4729 110.089 69.6215 110.306 70.165C110.443 70.6191 110.399 71.0041 110.177 71.3174C110.145 71.3629 110.109 71.4059 110.071 71.4465Z" fill="black"/>
<path d="M116.314 63.0125L116.369 79.3774L116.314 63.0125Z" fill="#F4812F"/>
<path d="M116.412 63.0121L116.219 63.0127L116.273 79.3777L116.466 79.3771L116.412 63.0121Z" fill="black"/>
<path d="M115.336 63.312C115.336 63.3393 115.39 78.1797 115.39 78.1797L115.336 63.312Z" fill="#F4812F"/>
<path d="M115.293 78.1799C115.29 77.5739 115.238 63.3389 115.238 63.3118H115.432C115.432 63.3567 115.486 78.0309 115.486 78.1792L115.293 78.1799Z" fill="black"/>
<path d="M114.273 65.4629L114.328 77.2806L114.273 65.4629Z" fill="#F4812F"/>
<path d="M114.371 65.4625L114.178 65.4634L114.232 77.2811L114.425 77.2803L114.371 65.4625Z" fill="black"/>
<path d="M113.402 66.3069L113.457 76.0826L113.402 66.3069Z" fill="#F4812F"/>
<path d="M113.498 66.3063L113.305 66.3074L113.359 76.0831L113.553 76.0821L113.498 66.3063Z" fill="black"/>
<path d="M112.572 66.7427H112.379V74.9933H112.572V66.7427Z" fill="black"/>
<path d="M111.564 67.3962H111.371V73.9312H111.564V67.3962Z" fill="black"/>
<path d="M110.693 67.9136H110.5V72.9237H110.693V67.9136Z" fill="black"/>
<path d="M118.821 82.9052C118.794 82.9052 118.767 82.894 118.748 82.8721L109.735 72.552C109.7 72.5118 109.704 72.4507 109.744 72.4155C109.784 72.3803 109.845 72.3844 109.881 72.4247L118.894 82.7448C118.929 82.785 118.925 82.8462 118.884 82.8813C118.866 82.8973 118.843 82.9052 118.821 82.9052Z" fill="#FDD406"/>
<path d="M119.555 82.4451C119.527 82.4451 119.498 82.4387 119.472 82.425C119.383 82.3791 119.348 82.2699 119.394 82.1809C123.096 74.9904 119.131 66.1441 119.091 66.0557C119.049 65.9647 119.089 65.857 119.18 65.8154C119.271 65.774 119.379 65.8139 119.42 65.9049C119.462 65.9949 123.498 75.0016 119.716 82.3469C119.684 82.4094 119.621 82.4451 119.555 82.4451Z" fill="#FDD406"/>
<path d="M108.746 70.7905C108.724 70.7905 108.702 70.7866 108.681 70.7786C108.588 70.7429 108.541 70.6384 108.576 70.545C108.612 70.4519 108.805 69.9835 109.135 69.8991C109.234 69.8735 109.385 69.8724 109.545 70.0087C109.621 70.0739 109.629 70.1884 109.564 70.2644C109.499 70.3405 109.384 70.3491 109.309 70.2841C109.259 70.2417 109.235 70.2476 109.225 70.2503C109.118 70.2773 108.976 70.5136 108.915 70.6737C108.888 70.746 108.819 70.7905 108.746 70.7905Z" fill="#FDD406"/>
<path d="M107.303 70.8724C107.255 70.8724 107.208 70.854 107.173 70.8173C106.948 70.586 106.84 70.3083 106.852 69.9921C106.886 69.1069 107.876 68.2233 107.918 68.186C107.993 68.1202 108.107 68.1271 108.174 68.2019C108.24 68.2769 108.233 68.3915 108.158 68.4577C108.149 68.4659 107.242 69.2767 107.215 70.0067C107.207 70.2228 107.278 70.4054 107.433 70.5649C107.502 70.6368 107.501 70.7515 107.429 70.8212C107.394 70.8554 107.348 70.8724 107.303 70.8724Z" fill="#FDD406"/>
<path d="M121.156 45.6093C121.761 45.0903 122.075 44.7731 122.45 44.8308C122.824 44.8884 123.335 44.8595 123.709 44.7442C124.085 44.6287 125.945 44.3981 126.709 44.6576C126.969 44.6865 127.314 44.8308 127.847 45.2777C128.382 45.7246 129.16 46.5033 128.901 48.666C128.641 50.8287 128.726 51.7538 128.612 52.9627C128.411 55.0967 127.937 56.8538 127.084 56.7115C128.237 58.7301 128.352 60.4603 129.102 61.8445C129.852 63.2287 130.313 66.0547 130.025 69.1115C129.737 72.1683 128.93 79.0313 131.351 83.6453C130.947 83.9337 129.968 83.6453 129.102 82.7225C128.237 81.7997 127.857 81.83 127.141 82.3764C124.95 84.049 122.898 86.0649 119.875 84.049C119.183 83.5876 118.964 83.0342 119.471 81.6267C120.74 78.1087 121.356 73.2817 121.156 71.0147L121.156 45.6093Z" fill="#1E9A1C"/>
<path d="M122.343 84.926C121.578 84.926 120.757 84.6842 119.854 84.082C119.185 83.6363 118.902 83.0894 119.434 81.6131C120.692 78.1246 121.32 73.3184 121.117 71.0182L121.117 45.5908L121.131 45.5789C121.195 45.5241 121.256 45.4716 121.313 45.4215C121.806 44.9945 122.102 44.7358 122.456 44.7913C122.841 44.8501 123.34 44.8163 123.698 44.706C124.043 44.6001 125.925 44.3486 126.723 44.6197C127.036 44.6536 127.404 44.8535 127.874 45.2471C128.31 45.6118 129.217 46.3707 128.941 48.6707C128.781 49.9993 128.752 50.8537 128.727 51.6075C128.711 52.0664 128.696 52.4999 128.652 52.9663C128.522 54.3528 128.227 56.1119 127.568 56.6187C127.44 56.7176 127.301 56.7642 127.157 56.7589C127.782 57.8712 128.1 58.9047 128.38 59.8186C128.602 60.5404 128.811 61.2223 129.138 61.8254C129.822 63.0885 130.375 65.8322 130.065 69.115C130.051 69.2627 130.036 69.4193 130.02 69.5842C129.718 72.7203 129.088 79.2461 131.387 83.6268L131.403 83.6576L131.375 83.6777C130.963 83.9723 129.966 83.701 129.073 82.7498C128.227 81.8467 127.872 81.8691 127.166 82.408C126.977 82.5523 126.789 82.699 126.602 82.8455C125.285 83.8738 123.938 84.926 122.343 84.926ZM121.197 45.6275V71.0146C121.4 73.3197 120.771 78.1416 119.509 81.64C118.992 83.0748 119.247 83.5818 119.898 84.0156C122.636 85.8416 124.539 84.3559 126.553 82.7826C126.74 82.6359 126.929 82.4891 127.118 82.3447C127.856 81.7818 128.25 81.7539 129.132 82.6951C129.974 83.5926 130.898 83.8738 131.3 83.6318C129.01 79.2305 129.638 72.7127 129.941 69.5766C129.957 69.4117 129.972 69.2553 129.986 69.1076C130.294 65.8414 129.747 63.1158 129.068 61.8633C128.737 61.2533 128.527 60.5678 128.304 59.8421C128.019 58.9137 127.696 57.8614 127.05 56.7312L127.008 56.6583L127.091 56.6721C127.242 56.6977 127.387 56.658 127.52 56.5556C128.016 56.1737 128.39 54.8964 128.573 52.9589C128.617 52.4948 128.631 52.0625 128.647 51.6048C128.673 50.8494 128.702 49.9932 128.862 48.6611C129.132 46.4041 128.248 45.664 127.822 45.3082C127.366 44.9252 127.011 44.7311 126.706 44.6972C125.964 44.4463 124.119 44.6601 123.722 44.7821C123.353 44.8956 122.84 44.931 122.444 44.8701C122.127 44.8207 121.841 45.0698 121.365 45.4817C121.312 45.5282 121.256 45.5769 121.197 45.6275Z" fill="black"/>
<path d="M123.234 43.4462C123.392 43.9364 123.478 44.5707 123.219 45.1475C122.959 45.7242 122.902 46.4163 123.334 47.2526C124.026 46.2722 125.007 46.4741 125.583 45.8973C126.161 45.3205 126.276 44.7726 126.709 44.6572C126.276 44.2824 125.612 43.8787 125.757 42.7828C125.901 41.687 127.429 40.7932 126.045 39.1205C125.152 38.0408 123.853 38.342 123.291 38.7601C123.026 38.9566 122.801 39.2358 122.715 39.4233C122.628 39.6108 122.736 40.0373 122.526 40.2885C122.383 40.4614 122.209 40.6334 122.007 40.7786C121.878 40.8724 121.797 41.009 121.935 41.168C121.991 41.2315 122.092 41.2451 122.203 41.2837C122.139 41.4134 122.066 41.5428 121.993 41.6366C121.925 41.7246 121.954 41.8085 122.036 41.8802C121.928 42.2261 122.138 42.2637 121.993 42.5233C121.868 42.7478 121.698 43.0134 122.167 43.2731C122.296 43.3451 122.91 43.4876 123.234 43.4462Z" fill="#FFE2BD"/>
<path d="M123.329 47.3292L123.299 47.2708C122.911 46.5196 122.873 45.8197 123.183 45.1312C123.443 44.553 123.342 43.9248 123.206 43.4893C122.875 43.5179 122.288 43.3859 122.148 43.308C121.97 43.2091 121.866 43.1013 121.831 42.9785C121.785 42.8146 121.871 42.661 121.947 42.5255L121.959 42.5039C122.025 42.3856 122.01 42.3241 121.989 42.2391C121.969 42.1582 121.945 42.0583 121.992 41.8925C121.903 41.8041 121.892 41.7031 121.963 41.6122C122.019 41.5389 122.083 41.434 122.148 41.3073C122.135 41.3033 122.122 41.2995 122.11 41.2959C122.03 41.2724 121.955 41.2502 121.906 41.1943C121.844 41.1232 121.817 41.0501 121.826 40.9769C121.835 40.8948 121.89 40.8152 121.985 40.7464C122.169 40.6132 122.341 40.4506 122.496 40.2631C122.616 40.1194 122.625 39.9086 122.633 39.7227C122.638 39.5958 122.642 39.4863 122.68 39.4065C122.761 39.2299 122.979 38.9422 123.268 38.7281C123.912 38.2491 125.209 38.0467 126.077 39.0951C127.05 40.2717 126.596 41.0916 126.196 41.815C126.013 42.145 125.841 42.4569 125.797 42.788C125.671 43.7456 126.181 44.1668 126.59 44.5053C126.64 44.5468 126.689 44.5871 126.736 44.6271L126.792 44.6764L126.72 44.6957C126.483 44.7589 126.346 44.96 126.157 45.2383C126.017 45.4456 125.857 45.6807 125.612 45.9256C125.365 46.1727 125.05 46.2795 124.715 46.3926C124.247 46.5509 123.763 46.7147 123.367 47.2756L123.329 47.3292ZM123.262 43.4024L123.272 43.434C123.418 43.8836 123.532 44.5488 123.256 45.1639C122.965 45.8111 122.992 46.4699 123.341 47.1763C123.745 46.6365 124.246 46.4671 124.69 46.3171C125.015 46.2071 125.322 46.1031 125.556 45.8692C125.796 45.6296 125.953 45.398 126.092 45.1935C126.265 44.9374 126.406 44.7303 126.63 44.6416C126.6 44.617 126.57 44.5921 126.539 44.5668C126.115 44.2158 125.586 43.779 125.718 42.7777C125.764 42.4315 125.94 42.1132 126.126 41.7763C126.533 41.041 126.954 40.2807 126.015 39.1459C125.101 38.0411 123.801 38.4304 123.315 38.7921C123.051 38.9887 122.831 39.2668 122.752 39.4399C122.721 39.5054 122.717 39.6125 122.712 39.7259C122.704 39.9245 122.695 40.1497 122.558 40.3141C122.398 40.5067 122.221 40.6739 122.031 40.811C121.978 40.8494 121.913 40.9112 121.905 40.9859C121.899 41.0361 121.92 41.0885 121.966 41.1418C122 41.1803 122.061 41.1984 122.132 41.2195C122.16 41.2275 122.188 41.236 122.217 41.246L122.26 41.2609L122.24 41.3015C122.164 41.4534 122.092 41.5744 122.026 41.661C121.995 41.7011 121.965 41.7642 122.063 41.8501L122.083 41.8673L122.075 41.8921C122.025 42.0514 122.046 42.1371 122.066 42.22C122.089 42.3111 122.11 42.3969 122.029 42.5427L122.017 42.5646C121.945 42.6924 121.871 42.8247 121.908 42.9568C121.937 43.0581 122.028 43.1501 122.187 43.2383C122.31 43.3072 122.914 43.4479 123.23 43.4066L123.262 43.4024Z" fill="black"/>
<path d="M117.625 49.1849C116.818 49.3868 115.52 49.0408 114.539 49.156C114.106 49.2071 113.761 48.9831 113.819 48.5505C113.876 48.1179 113.934 47.4547 113.847 46.8491C113.713 45.9054 114.164 44.5998 114.799 43.1579C115.433 41.7161 115.751 40.9087 115.751 40.231C115.751 39.784 115.794 39.2793 116.197 39.0198C116.496 38.8281 116.553 38.6418 116.659 38.4864C116.904 38.1259 117.134 38.0394 117.163 38.2558C117.181 38.3844 117.134 38.5008 117.019 38.6739C117.278 38.4575 117.719 38.2051 117.819 38.1331C117.92 38.0611 118.433 37.7006 118.461 38.0394C118.663 37.9385 118.8 37.9456 118.851 38.0537C118.905 38.1707 118.872 38.2197 118.771 38.3061C118.915 38.2773 119.081 38.5297 118.792 38.7531C118.944 38.7026 119.095 38.955 118.829 39.1857C118.553 39.4238 118.238 39.5895 118.137 39.7768C118.035 39.9643 117.351 40.4906 117.077 40.6059C116.803 40.7213 116.789 40.8795 116.789 41.2835C116.789 45.7244 116.256 45.3636 116.256 46.431C116.256 46.7193 116.197 46.9788 116.486 46.8923C116.775 46.8058 117.192 46.6761 117.625 46.6761V49.1849Z" fill="#FFE2BD"/>
<path d="M116.986 49.2896C116.685 49.2896 116.357 49.2611 116.019 49.2317C115.515 49.1881 114.993 49.1429 114.545 49.1955C114.286 49.2259 114.059 49.162 113.919 49.0202C113.802 48.9013 113.754 48.7371 113.78 48.5453C113.866 47.892 113.876 47.3232 113.808 46.8548C113.662 45.8281 114.209 44.4017 114.763 43.1419C115.432 41.6214 115.711 40.8808 115.711 40.2309C115.711 39.7397 115.768 39.249 116.177 38.9863C116.402 38.842 116.482 38.7054 116.56 38.5734C116.582 38.5355 116.603 38.499 116.627 38.4638C116.8 38.2092 116.975 38.0747 117.094 38.1022C117.128 38.1104 117.189 38.1404 117.203 38.2505C117.216 38.3435 117.197 38.4291 117.156 38.5191C117.317 38.403 117.5 38.2884 117.634 38.2052C117.709 38.1585 117.767 38.1218 117.797 38.1008C117.995 37.9596 118.26 37.8067 118.405 37.8732C118.448 37.8933 118.477 37.9296 118.492 37.9812C118.612 37.9287 118.709 37.9147 118.782 37.9405C118.83 37.9571 118.865 37.9895 118.888 38.0367C118.94 38.1498 118.918 38.2153 118.861 38.2774C118.906 38.2967 118.946 38.3351 118.97 38.3872C119.008 38.4714 119.003 38.5962 118.891 38.7176C118.929 38.7322 118.962 38.7608 118.985 38.8011C119.038 38.8946 119.036 39.0592 118.856 39.2157C118.755 39.3032 118.651 39.3792 118.55 39.4527C118.38 39.5769 118.233 39.6842 118.173 39.7958C118.065 39.9947 117.364 40.5286 117.093 40.6426C116.841 40.7485 116.829 40.8809 116.829 41.2835C116.829 44.2692 116.589 45.0885 116.43 45.6307C116.352 45.8948 116.296 46.0855 116.296 46.4309C116.296 46.4745 116.295 46.5174 116.294 46.5585C116.29 46.6912 116.286 46.8166 116.335 46.8545C116.361 46.8746 116.409 46.8741 116.475 46.8541L116.504 46.8456C116.798 46.7572 117.201 46.6362 117.626 46.6362H117.666V49.216L117.636 49.2235C117.442 49.272 117.222 49.2896 116.986 49.2896ZM114.997 49.092C115.33 49.092 115.682 49.1225 116.026 49.1523C116.61 49.2031 117.162 49.2509 117.586 49.1534V46.7163C117.187 46.7236 116.807 46.8378 116.527 46.9219L116.498 46.9304C116.404 46.9588 116.334 46.9547 116.287 46.9177C116.205 46.855 116.209 46.7164 116.214 46.556C116.215 46.5157 116.217 46.4736 116.217 46.4309C116.217 46.0741 116.277 45.8685 116.353 45.6083C116.511 45.0705 116.75 44.2578 116.75 41.2835C116.75 40.8793 116.762 40.6953 117.063 40.5692C117.339 40.4523 118.01 39.9292 118.102 39.7579C118.171 39.6304 118.325 39.5182 118.503 39.3884C118.602 39.3158 118.705 39.2407 118.804 39.1554C118.948 39.0306 118.954 38.9078 118.916 38.8406C118.891 38.7965 118.848 38.7777 118.806 38.7909L118.769 38.7216C118.951 38.5803 118.913 38.4552 118.897 38.4203C118.873 38.3678 118.824 38.3358 118.779 38.3452L118.629 38.3754L118.746 38.2758C118.84 38.1955 118.859 38.1648 118.815 38.0705C118.802 38.0431 118.783 38.0253 118.756 38.0158C118.713 38.001 118.631 37.9995 118.479 38.0752L118.427 38.1013L118.422 38.0426C118.415 37.966 118.382 37.9507 118.372 37.9456C118.287 37.9063 118.091 37.9889 117.843 38.1656C117.813 38.1871 117.753 38.2248 117.676 38.2728C117.497 38.3848 117.226 38.554 117.045 38.7045L116.986 38.6517C117.102 38.4777 117.14 38.3718 117.125 38.2612C117.118 38.2133 117.102 38.186 117.076 38.1799C117.009 38.1637 116.861 38.2606 116.693 38.5088C116.67 38.5426 116.65 38.5776 116.628 38.6138C116.55 38.7474 116.46 38.8988 116.22 39.0534C115.843 39.2954 115.791 39.7624 115.791 40.2309C115.791 40.8953 115.51 41.6426 114.836 43.1739C114.286 44.4235 113.744 45.8367 113.887 46.8435C113.956 47.319 113.946 47.8952 113.859 48.5557C113.837 48.7223 113.877 48.8636 113.976 48.9642C114.098 49.0884 114.302 49.1432 114.535 49.1164C114.683 49.099 114.838 49.092 114.997 49.092Z" fill="black"/>
<path d="M117.797 58.7586C119.101 58.107 120.594 57.8647 121.373 57.6629C122.151 57.461 123.392 56.8556 123.997 56.5383C124.603 56.221 125.093 55.7884 125.439 55.6731C125.786 55.5578 126.173 55.3192 126.391 54.8946C127.515 52.7029 128.121 50.9442 128.121 49.4155C128.121 48.4063 127.862 47.2816 126.881 48.089C125.959 48.848 124.955 50.3111 124.689 51.3764C124.286 52.9913 123.94 53.3374 123.853 53.6545C123.767 53.9718 123.44 53.9714 123.045 54.0583C121.344 54.4332 120.94 54.6926 119.672 55.6443C118.403 56.5959 117.018 57.4323 116.096 57.9513C115.173 58.4704 115.001 58.528 114.798 58.9461C114.597 59.3642 114.41 59.6814 114.236 59.869C114.063 60.0564 114.013 60.2755 114.049 60.5033C114.078 60.6908 113.991 61.5559 113.977 61.8442C113.961 62.1326 114.034 62.2048 114.15 62.2191C114.265 62.2336 114.423 62.1759 114.482 61.8298C114.423 62.1759 114.899 62.0605 114.929 61.8011C114.913 62.1759 115.418 61.9597 115.448 61.6136C115.448 61.8587 115.83 61.6892 115.865 61.5703C115.951 61.282 116.023 60.9647 116.139 60.7341C116.307 60.3993 116.487 59.9656 116.817 59.7247C117.192 59.4508 117.018 59.148 117.797 58.7586Z" fill="#FFE2BD"/>
<path d="M114.181 62.2609C114.168 62.2609 114.156 62.26 114.146 62.2586C113.984 62.2389 113.923 62.1182 113.938 61.8422C113.942 61.7531 113.953 61.609 113.966 61.4465C113.993 61.1039 114.03 60.6348 114.01 60.5096C113.97 60.2514 114.036 60.0268 114.208 59.8421C114.37 59.6663 114.552 59.3676 114.763 58.9289C114.949 58.546 115.111 58.4554 115.795 58.074C115.881 58.0266 115.974 57.9744 116.077 57.9166C116.823 57.4969 118.28 56.6393 119.648 55.6124C120.914 54.6628 121.316 54.3987 123.037 54.0194C123.105 54.0046 123.171 53.9923 123.233 53.9805C123.533 53.9241 123.75 53.8834 123.815 53.6441C123.842 53.5464 123.891 53.4496 123.958 53.3157C124.111 53.0105 124.368 52.4999 124.652 51.3669C124.91 50.3308 125.899 48.8466 126.856 48.0584C127.175 47.796 127.446 47.7142 127.66 47.8156C128.097 48.0218 128.162 48.9065 128.162 49.4156C128.162 50.878 127.627 52.5734 126.427 54.9129C126.172 55.4102 125.707 55.6265 125.452 55.711C125.274 55.7707 125.05 55.9208 124.792 56.0946C124.562 56.2491 124.302 56.4242 124.016 56.5738C123.736 56.7209 122.29 57.4666 121.384 57.7017C121.218 57.7445 121.025 57.7882 120.801 57.8389C119.973 58.0262 118.839 58.2828 117.816 58.7944C117.348 59.0285 117.235 59.2235 117.127 59.4122C117.058 59.5327 116.993 59.6466 116.841 59.757C116.562 59.9605 116.392 60.3088 116.242 60.6158C116.219 60.6625 116.197 60.7082 116.175 60.7521C116.09 60.9225 116.027 61.1471 115.966 61.3644C115.946 61.4375 115.926 61.5105 115.904 61.5818C115.873 61.6863 115.669 61.7949 115.539 61.7768C115.506 61.7719 115.479 61.7598 115.458 61.7414C115.386 61.9193 115.208 62.0437 115.062 62.0373C114.993 62.033 114.943 61.9988 114.914 61.9412C114.873 61.9967 114.815 62.0363 114.76 62.059C114.664 62.0986 114.566 62.093 114.506 62.0449C114.495 62.0367 114.485 62.0266 114.476 62.0139C114.396 62.224 114.263 62.2609 114.181 62.2609ZM127.468 47.8533C127.31 47.8533 127.122 47.9425 126.907 48.1199C125.961 48.8989 124.984 50.3642 124.729 51.3862C124.443 52.5278 124.184 53.0435 124.029 53.3516C123.964 53.4813 123.917 53.5752 123.892 53.6652C123.814 53.9525 123.552 54.0018 123.248 54.0589C123.186 54.0705 123.121 54.0827 123.055 54.0974C121.35 54.473 120.951 54.7348 119.696 55.6763C118.324 56.7058 116.864 57.5653 116.116 57.9861C116.013 58.044 115.919 58.0962 115.834 58.1437C115.151 58.5242 115.009 58.6034 114.835 58.9636C114.62 59.4094 114.434 59.7145 114.266 59.8962C114.112 60.0622 114.053 60.2644 114.089 60.4975C114.11 60.6316 114.074 61.0869 114.045 61.4527C114.033 61.6143 114.022 61.7576 114.017 61.8463C114.002 62.1363 114.077 62.1699 114.156 62.1795C114.296 62.1978 114.401 62.0713 114.443 61.8232L114.522 61.8365C114.514 61.8846 114.513 61.9488 114.555 61.9824C114.593 62.0121 114.661 62.0137 114.73 61.9853C114.797 61.9574 114.879 61.8912 114.89 61.7967L114.969 61.8027C114.966 61.8705 114.981 61.9523 115.067 61.9576C115.189 61.9691 115.392 61.8129 115.409 61.6103L115.488 61.6137C115.488 61.6803 115.521 61.6935 115.55 61.6978C115.653 61.7123 115.811 61.6158 115.828 61.5592C115.849 61.4883 115.869 61.4156 115.89 61.343C115.951 61.1221 116.015 60.8935 116.104 60.7164C116.126 60.6726 116.148 60.6273 116.17 60.5809C116.325 60.2654 116.499 59.9078 116.794 59.6926C116.932 59.5922 116.99 59.4903 117.058 59.3725C117.167 59.1828 117.29 58.968 117.78 58.7231C118.812 58.207 119.952 57.9493 120.784 57.761C121.007 57.7105 121.2 57.667 121.364 57.6245C122.06 57.4439 123.208 56.9076 123.979 56.5031C124.261 56.3557 124.519 56.1818 124.747 56.0285C125.011 55.8515 125.238 55.6985 125.427 55.6354C125.67 55.5546 126.114 55.3485 126.356 54.8766C127.55 52.5489 128.082 50.8647 128.082 49.4156C128.082 48.5815 127.916 48.0246 127.626 47.8878C127.577 47.8647 127.525 47.8533 127.468 47.8533Z" fill="black"/>
<path d="M127.143 82.3761C127.23 82.6933 127.389 83.0539 127.446 83.2702C127.504 83.4864 127.402 83.5539 127.346 83.6739C127.043 84.3083 126.718 85.3196 126.667 85.8654C126.639 86.1827 126.423 86.4854 126.321 86.6729C126.21 86.8796 126.253 87.0391 126.509 87.2352C126.632 87.3289 127.028 87.2064 127.071 87.0046C127.215 87.1486 127.475 87.091 127.59 86.8747C127.72 87.0046 127.937 86.918 128.081 86.7018C128.21 86.7882 128.397 86.6152 128.47 86.4997C128.672 86.6008 128.889 86.4782 128.895 86.0818C128.896 86.0021 128.946 85.8654 129.004 85.7718C129.061 85.678 129.082 85.4978 129.076 85.3391C129.068 85.1805 129.17 84.8634 129.306 84.6398C129.443 84.4163 129.681 84.0198 129.58 83.645C129.486 83.2958 129.335 83.3278 129.205 82.8232C128.889 82.4914 128.456 82.03 128.009 82.0012C127.562 81.9724 127.302 82.2752 127.143 82.3761Z" fill="#FFE2BD"/>
<path d="M126.63 87.307C126.574 87.307 126.522 87.2959 126.484 87.2668C126.218 87.0631 126.161 86.8855 126.286 86.6541C126.306 86.6174 126.33 86.5763 126.356 86.5316C126.461 86.3531 126.605 86.1088 126.627 85.8619C126.68 85.2869 127.022 84.2574 127.309 83.6566C127.323 83.6271 127.339 83.6006 127.356 83.5744C127.405 83.4967 127.446 83.4295 127.406 83.2806C127.38 83.1812 127.331 83.0472 127.279 82.9054C127.219 82.7424 127.151 82.5574 127.104 82.3867L127.096 82.3582L127.121 82.3426C127.152 82.323 127.187 82.2951 127.228 82.2627C127.392 82.133 127.639 81.9369 128.011 81.9613C128.466 81.9908 128.9 82.4463 129.217 82.7789L129.243 82.8133C129.313 83.0836 129.387 83.1928 129.458 83.2986C129.517 83.3871 129.574 83.4707 129.618 83.6347C129.725 84.0312 129.474 84.4406 129.34 84.6607C129.211 84.8719 129.108 85.1816 129.115 85.3371C129.121 85.4857 129.104 85.6832 129.037 85.7926C128.981 85.8824 128.935 86.0123 128.934 86.0824C128.931 86.3015 128.863 86.4617 128.745 86.5338C128.668 86.581 128.576 86.5861 128.483 86.5498C128.425 86.6301 128.317 86.7359 128.204 86.7599C128.164 86.7687 128.127 86.7664 128.093 86.7531C127.999 86.881 127.878 86.9629 127.763 86.9742C127.702 86.9806 127.647 86.9668 127.6 86.9347C127.532 87.0351 127.43 87.1031 127.318 87.1197C127.235 87.133 127.154 87.1148 127.088 87.0707C127.046 87.1515 126.956 87.2226 126.834 87.2678C126.774 87.2898 126.699 87.307 126.63 87.307ZM127.188 82.3931C127.234 82.5529 127.297 82.7252 127.354 82.8779C127.406 83.0217 127.456 83.1572 127.483 83.2601C127.532 83.4422 127.477 83.5308 127.423 83.6166C127.409 83.6404 127.394 83.6642 127.381 83.6908C127.063 84.3584 126.754 85.3558 126.706 85.8691C126.683 86.1336 126.534 86.3869 126.425 86.572C126.399 86.6158 126.375 86.656 126.356 86.692C126.267 86.8562 126.266 86.999 126.532 87.2035C126.579 87.239 126.694 87.2347 126.806 87.1929C126.929 87.1476 127.015 87.0722 127.031 86.9963L127.046 86.9248L127.098 86.9763C127.152 87.0303 127.227 87.0523 127.306 87.041C127.408 87.0258 127.5 86.9566 127.554 86.856L127.579 86.8086L127.617 86.8465C127.655 86.884 127.702 86.9013 127.755 86.8949C127.855 86.8849 127.964 86.8045 128.047 86.6797L128.069 86.6465L128.103 86.6685C128.127 86.6845 128.154 86.6888 128.187 86.682C128.275 86.6633 128.382 86.5638 128.435 86.4787L128.454 86.448L128.487 86.464C128.564 86.5031 128.641 86.5033 128.704 86.4656C128.798 86.4084 128.851 86.2719 128.855 86.0812C128.856 85.9961 128.905 85.8539 128.969 85.7508C129.016 85.6734 129.042 85.5123 129.036 85.3406C129.027 85.1693 129.133 84.8455 129.272 84.6191C129.4 84.4094 129.639 84.0189 129.541 83.6554C129.5 83.5043 129.45 83.4295 129.392 83.3431C129.321 83.2383 129.241 83.1195 129.169 82.8433L129.16 82.834C128.851 82.5109 128.43 82.0683 128.006 82.041C127.664 82.0172 127.441 82.1959 127.278 82.3252C127.245 82.351 127.216 82.374 127.188 82.3931Z" fill="black"/>
<path d="M118.938 84.8563C119.341 85.2599 120.25 85.2744 120.884 84.5966C120.654 84.4957 120.149 84.265 119.919 84.0776C119.601 84.3949 119.24 84.7552 118.938 84.8563Z" fill="#FFE2BD"/>
<path d="M119.702 85.1771C119.384 85.1771 119.096 85.0712 118.909 84.8845L118.863 84.839L118.924 84.8185C119.218 84.7203 119.575 84.364 119.89 84.0496L119.915 84.0242L119.943 84.0468C120.163 84.2251 120.637 84.4451 120.9 84.5601L120.952 84.5828L120.913 84.6238C120.586 84.9732 120.165 85.1695 119.726 85.1769C119.718 85.1771 119.71 85.1771 119.702 85.1771ZM119.011 84.8707C119.183 85.0158 119.43 85.0974 119.702 85.0974C119.71 85.0974 119.717 85.0974 119.725 85.0972C120.124 85.0904 120.51 84.9179 120.816 84.6101C120.554 84.4939 120.143 84.299 119.921 84.1308C119.628 84.4242 119.3 84.7462 119.011 84.8707Z" fill="black"/>
<path d="M123.018 39.0052C123.176 37.9815 123.901 38.0057 124.358 38.1113C124.545 38.1546 125.007 38.1977 125.439 38.0824C126.295 37.8544 126.939 38.1546 126.853 38.9765C127.083 39.1494 127.328 39.5531 127.285 39.8993C127.242 40.2452 127.314 40.3894 127.632 40.4326C127.948 40.476 128.627 40.8653 128.178 41.4131C128.611 41.6727 128.943 42.3359 128.713 42.7829C128.482 43.2299 127.79 43.302 127.501 42.8982C127.185 43.0424 126.664 43.0713 126.348 42.7397C126.132 42.9991 125.583 42.9704 125.482 42.7397C125.382 42.509 125.211 42.3855 125.007 42.3215C124.776 42.2495 124.762 41.615 125.107 41.5429C125.064 41.3554 125.08 41.1392 125.166 41.0383C125.252 40.9374 125.18 40.7499 124.978 40.5912C124.776 40.4326 124.604 39.827 124.805 39.4955C124.459 39.6108 123.695 39.2792 123.537 39.0485C123.377 38.8178 123.162 38.8034 123.018 39.0052Z" fill="#D3AE3B"/>
<path d="M128.05 43.2035C127.823 43.2035 127.618 43.1105 127.489 42.9474C127.142 43.0929 126.655 43.0858 126.35 42.7972C126.203 42.9419 125.962 42.982 125.779 42.956C125.613 42.9325 125.492 42.8595 125.446 42.7558C125.36 42.5573 125.213 42.4278 124.996 42.3595C124.851 42.3144 124.793 42.1099 124.801 41.939C124.809 41.7688 124.882 41.5741 125.061 41.5143C125.03 41.3435 125.04 41.1252 125.136 41.0126C125.156 40.9884 125.165 40.9572 125.161 40.9195C125.152 40.8288 125.075 40.7177 124.954 40.6226C124.751 40.4634 124.587 39.9073 124.732 39.5528C124.34 39.6063 123.658 39.2958 123.504 39.0712C123.43 38.964 123.342 38.9046 123.255 38.904H123.254C123.179 38.904 123.109 38.9469 123.05 39.0286L122.979 38.9993C123.039 38.6092 123.187 38.3319 123.419 38.1751C123.654 38.0158 123.973 37.9812 124.368 38.0725C124.573 38.12 125.026 38.1517 125.429 38.044C125.943 37.9073 126.37 37.9562 126.633 38.1815C126.835 38.3542 126.926 38.6225 126.895 38.9586C127.138 39.1517 127.367 39.5601 127.325 39.9043C127.282 40.2448 127.353 40.3545 127.637 40.3931C127.852 40.4227 128.222 40.5996 128.335 40.8857C128.381 41.0027 128.399 41.1851 128.238 41.403C128.671 41.6888 128.984 42.3443 128.748 42.8012C128.632 43.028 128.388 43.1812 128.111 43.2012C128.091 43.2027 128.07 43.2035 128.05 43.2035ZM127.515 42.8484L127.534 42.8752C127.656 43.0465 127.87 43.1399 128.105 43.1216C128.354 43.1037 128.573 42.9669 128.678 42.7647C128.897 42.339 128.573 41.6961 128.158 41.4474L128.119 41.4237L128.148 41.388C128.282 41.2245 128.32 41.0653 128.261 40.9149C128.164 40.6696 127.83 40.5002 127.627 40.4721C127.254 40.4216 127.205 40.222 127.246 39.8945C127.286 39.5702 127.061 39.1821 126.83 39.0086L126.812 38.995L126.814 38.9724C126.847 38.6533 126.767 38.4007 126.581 38.242C126.342 38.0372 125.929 37.9929 125.45 38.1211C125 38.2414 124.533 38.1926 124.35 38.1503C123.977 38.0643 123.679 38.0948 123.463 38.2411C123.276 38.3676 123.148 38.5835 123.081 38.8834C123.134 38.8447 123.193 38.8242 123.254 38.8242H123.256C123.369 38.8252 123.48 38.8967 123.57 39.0259C123.717 39.2404 124.469 39.5654 124.793 39.4578L124.896 39.4233L124.839 39.5163C124.653 39.824 124.81 40.4082 125.003 40.5599C125.143 40.6699 125.229 40.798 125.24 40.9116C125.246 40.9709 125.231 41.0236 125.196 41.0643C125.124 41.1487 125.104 41.3462 125.147 41.5339L125.156 41.5736L125.116 41.582C124.954 41.6159 124.888 41.7906 124.881 41.9428C124.873 42.1099 124.933 42.2564 125.02 42.2835C125.26 42.359 125.423 42.5031 125.519 42.724C125.553 42.8004 125.654 42.8578 125.79 42.8771C125.965 42.9017 126.195 42.861 126.318 42.7142L126.346 42.6799L126.377 42.7123C126.697 43.0471 127.215 42.9852 127.485 42.8621L127.515 42.8484Z" fill="black"/>
<path d="M123.239 43.4858L123.229 43.4067C123.496 43.3724 123.679 43.2728 123.841 43.185C124.014 43.0907 124.177 43.0022 124.404 43.017L124.398 43.0965C124.196 43.0823 124.049 43.1626 123.879 43.255C123.711 43.3462 123.521 43.4495 123.239 43.4858Z" fill="black"/>
<path d="M122.521 42.091L122.477 42.0858C122.371 42.0736 122.26 42.0609 122.154 42.0036C122.096 41.9718 122.049 41.9448 122.01 41.9104L122.062 41.8506C122.096 41.8796 122.139 41.9043 122.192 41.9336C122.285 41.9835 122.387 41.9952 122.486 42.0066L122.531 42.0119L122.521 42.091Z" fill="black"/>
<path d="M122.412 41.4553C122.338 41.3787 122.255 41.3436 122.191 41.3215L122.217 41.2461C122.29 41.271 122.384 41.311 122.47 41.3998L122.412 41.4553Z" fill="black"/>
<path d="M125.544 39.1557C125.351 39.1557 125.104 39.1137 124.979 38.9905C124.599 38.617 124.158 38.4542 123.797 38.5557C123.632 38.602 123.509 38.7019 123.482 38.8102C123.466 38.8713 123.485 38.9288 123.534 38.9765L123.479 39.0342C123.409 38.9665 123.382 38.8801 123.404 38.791C123.438 38.6533 123.581 38.5338 123.775 38.479C124.165 38.3692 124.634 38.5395 125.035 38.9337C125.191 39.0876 125.613 39.0976 125.744 39.054L125.769 39.1296C125.721 39.1455 125.639 39.1557 125.544 39.1557Z" fill="black"/>
<path d="M127.857 41.6019C127.835 41.6019 127.812 41.6001 127.788 41.5964C127.507 41.5512 127.209 41.2339 126.905 40.6533C126.757 40.3713 126.595 40.3151 126.439 40.2608C126.283 40.2064 126.135 40.1551 126.037 39.8991C125.82 39.3312 124.981 39.4959 124.815 39.5345L124.797 39.4568C125.31 39.3371 125.925 39.3828 126.112 39.8706C126.196 40.092 126.315 40.1333 126.465 40.1854C126.628 40.2421 126.813 40.3063 126.975 40.6162C127.263 41.1655 127.549 41.4772 127.801 41.5175C127.925 41.5381 128.039 41.4938 128.152 41.3846L128.207 41.4419C128.097 41.5482 127.98 41.6018 127.857 41.6019Z" fill="black"/>
<path d="M126.316 42.7638C126.176 42.579 126.125 42.2002 126.202 41.9406C126.038 41.7246 126.099 41.314 126.21 41.0925L126.282 41.1283C126.18 41.3308 126.12 41.7244 126.276 41.9062L126.291 41.9233L126.284 41.9447C126.199 42.2011 126.264 42.5632 126.379 42.7158L126.316 42.7638Z" fill="black"/>
<path d="M125.708 42.1303C125.338 42.0713 125.086 41.7505 125.068 41.5466L125.148 41.5396C125.161 41.6884 125.369 41.9954 125.721 42.0516L125.708 42.1303Z" fill="black"/>
<path d="M127.471 42.9228C127.255 42.6451 127.29 42.3981 127.333 42.0854L127.412 42.0964C127.37 42.4021 127.339 42.6229 127.533 42.8739L127.471 42.9228Z" fill="black"/>
<path d="M126.625 41.2859C126.122 41.286 125.856 40.9408 125.783 40.7803C125.501 40.6512 125.342 40.292 125.356 40.0271L125.436 40.0314C125.423 40.2741 125.569 40.6039 125.829 40.7134L125.844 40.7199L125.851 40.7352C125.907 40.8734 126.188 41.2553 126.733 41.2007L126.741 41.28C126.701 41.284 126.662 41.2859 126.625 41.2859Z" fill="black"/>
<path d="M126.829 39.008C126.471 38.73 126.066 38.4631 125.535 38.3931L125.546 38.314C126.095 38.3864 126.511 38.6601 126.878 38.9449L126.829 39.008Z" fill="black"/>
<path d="M122.438 54.2318L122.385 54.1728C123.291 53.349 122.973 51.5661 122.741 50.2642L122.719 50.1431C122.516 49.0078 122.713 48.0272 123.302 47.2288L123.366 47.2762C122.79 48.0563 122.599 49.0162 122.798 50.1292L122.819 50.2502C123.055 51.5704 123.377 53.3784 122.438 54.2318Z" fill="black"/>
<path d="M123.871 57.2912C123.554 57.2912 123.237 57.2261 122.971 57.0929L123.006 57.0217C123.591 57.3139 124.433 57.2652 124.926 56.9096C125.446 56.5337 126.388 56.5194 127.092 56.6722L127.075 56.7502C126.411 56.606 125.47 56.6148 124.973 56.9743C124.683 57.1833 124.278 57.2912 123.871 57.2912Z" fill="black"/>
<path d="M124.765 62.3972C124.627 61.3519 124.69 60.3091 124.745 59.3891C124.77 58.972 124.794 58.5782 124.794 58.2395C124.794 57.205 125.05 56.7383 125.677 56.6287L125.691 56.7072C125.103 56.81 124.873 57.2397 124.873 58.2395C124.873 58.5805 124.85 58.9756 124.824 59.3939C124.77 60.3103 124.707 61.349 124.844 62.3867L124.765 62.3972Z" fill="black"/>
<path d="M123.901 58.2423C123.832 57.2752 124.191 57.1851 124.538 57.0979C124.566 57.0909 124.594 57.0839 124.622 57.0764L124.643 57.1534C124.614 57.161 124.586 57.1681 124.558 57.1752C124.214 57.2617 123.916 57.3363 123.981 58.2367L123.901 58.2423Z" fill="black"/>
<path d="M122.726 58.2692L122.646 58.2674C122.658 57.7683 122.794 57.3595 123.003 57.2005C123.1 57.1263 123.21 57.1036 123.33 57.1338L123.311 57.2111C123.216 57.1874 123.129 57.2051 123.051 57.2639C122.862 57.4085 122.737 57.7938 122.726 58.2692Z" fill="black"/>
<path d="M129.237 73.0438C129.021 72.2766 128.984 70.9313 128.941 69.3737C128.881 67.22 128.807 64.5395 128.199 62.5481C128.094 62.2016 127.993 61.9089 127.895 61.6259C127.631 60.8602 127.403 60.1991 127.275 58.9646C127.103 57.302 126.848 56.8558 126.529 56.7308C126.534 56.7353 126.539 56.7399 126.544 56.7446C126.787 56.985 126.897 57.5216 126.879 58.3848L126.799 58.383C126.817 57.5547 126.712 57.0225 126.488 56.8015C126.416 56.7312 126.333 56.6916 126.236 56.6814C126.211 56.6805 126.186 56.6798 126.161 56.6791L126.16 56.5994C126.19 56.598 126.22 56.5994 126.249 56.6027C126.789 56.6322 127.136 56.8473 127.354 58.9564C127.481 60.1817 127.708 60.839 127.971 61.5999C128.068 61.8837 128.17 62.177 128.276 62.5247C128.886 64.5266 128.961 67.213 129.021 69.3716C129.064 70.9239 129.101 72.2645 129.314 73.0224L129.237 73.0438Z" fill="black"/>
<path d="M128.543 78.2879C128.406 77.4658 127.915 76.2596 127.293 74.7324C126.866 73.6824 126.381 72.4924 125.893 71.1432L125.889 71.1305L125.893 71.1176C127.728 65.3146 127.033 61.7684 126.008 58.8004L126.084 58.7744C127.112 61.7531 127.81 65.3113 125.973 71.1289C126.459 72.4713 126.941 73.6564 127.367 74.7025C127.991 76.2342 128.484 77.4439 128.622 78.2746L128.543 78.2879Z" fill="black"/>
<path d="M122.624 66.2956L122.547 66.2741C122.616 66.029 122.574 65.8618 122.515 65.6304C122.41 65.2116 122.25 64.5788 122.662 62.9304C122.932 61.8503 122.979 61.1901 122.809 60.8524L122.881 60.8169C123.061 61.1772 123.018 61.8351 122.74 62.9495C122.332 64.5788 122.489 65.1999 122.592 65.6108C122.652 65.8452 122.698 66.0302 122.624 66.2956Z" fill="black"/>
<path d="M123.17 67.1062L123.095 67.0792C123.403 66.219 123.18 65.1542 122.984 64.2147C122.833 63.4966 122.691 62.8181 122.805 62.3257L122.882 62.3437C122.773 62.8188 122.913 63.489 123.062 64.1983C123.26 65.1483 123.486 66.2249 123.17 67.1062Z" fill="black"/>
<path d="M124.997 84.0256L124.958 83.9564C125.414 83.6957 125.39 82.8873 125.373 82.2969C125.368 82.1336 125.363 81.9793 125.369 81.8553C125.524 78.7717 124.464 76.4789 122.721 72.9932C122.626 72.8025 122.535 72.6348 122.446 72.4723C122.108 71.849 121.863 71.3986 121.91 70.6084C121.942 70.0611 121.883 69.4162 121.826 68.7928C121.78 68.2889 121.736 67.8129 121.736 67.3809H121.816C121.816 67.8092 121.859 68.2834 121.905 68.7855C121.963 69.4119 122.022 70.0598 121.989 70.6131C121.944 71.3805 122.184 71.8225 122.517 72.4342C122.605 72.5973 122.697 72.7656 122.793 72.9576C124.541 76.4549 125.605 78.7559 125.449 81.8592C125.443 81.9799 125.448 82.1328 125.452 82.2945C125.47 82.9051 125.495 83.7412 124.997 84.0256Z" fill="black"/>
<path d="M121.852 84.8831C121.84 84.8831 121.829 84.8827 121.816 84.8815L121.823 84.8022C121.965 84.8128 122.143 84.756 122.36 84.2353C122.561 83.753 123.268 80.6358 122.978 78.4886L123.057 78.478C123.349 80.6396 122.637 83.7798 122.434 84.2661C122.255 84.6956 122.079 84.8831 121.852 84.8831Z" fill="black"/>
<path d="M123.054 84.0061L122.98 83.976C123.424 82.8797 123.399 81.4914 123.324 80.9105L123.403 80.9004C123.479 81.4885 123.504 82.8943 123.054 84.0061Z" fill="black"/>
<path d="M124.527 82.5005L124.449 82.4829C124.668 81.5124 124.657 80.2149 124.42 78.9231L124.498 78.9087C124.738 80.2108 124.748 81.5198 124.527 82.5005Z" fill="black"/>
<path d="M123.749 84.6639L123.729 84.587C124.04 84.5038 123.945 83.5612 123.882 82.9375C123.865 82.7629 123.849 82.6122 123.843 82.4934L123.923 82.4895C123.929 82.6061 123.944 82.7559 123.962 82.9295C124.035 83.6575 124.127 84.5633 123.749 84.6639Z" fill="black"/>
<path d="M128.814 82.4913C128.34 82.0325 127.888 80.6882 127.409 79.2647C126.971 77.9632 126.518 76.6171 126.012 75.8228L126.079 75.7798C126.59 76.5825 127.045 77.9331 127.484 79.2394C127.96 80.6532 128.409 81.9888 128.869 82.4339L128.814 82.4913Z" fill="black"/>
<path d="M126.929 81.8019L126.925 81.7445C126.898 81.3072 126.861 80.7082 126.621 80.4419L126.68 80.3884C126.939 80.6755 126.975 81.2656 127.005 81.7396L127.008 81.7968L126.929 81.8019Z" fill="black"/>
<path d="M115.488 61.6152L115.408 61.6117C115.41 61.5646 115.411 61.5177 115.411 61.4705C115.414 61.1935 115.417 60.907 115.718 60.4802L115.783 60.5263C115.496 60.9326 115.494 61.2064 115.491 61.4714C115.49 61.5195 115.49 61.5671 115.488 61.6152Z" fill="black"/>
<path d="M114.968 61.8026L114.889 61.7995L114.896 61.6147C114.931 60.675 114.936 60.5543 115.247 60.2581L115.302 60.3159C115.014 60.5897 115.011 60.687 114.975 61.6176L114.968 61.8026Z" fill="black"/>
<path d="M114.522 61.8306L114.442 61.829C114.445 61.6495 114.443 61.4964 114.44 61.3612C114.432 60.8942 114.427 60.6368 114.679 60.2368L114.746 60.2794C114.507 60.6593 114.512 60.9081 114.52 61.3599C114.522 61.4956 114.525 61.6495 114.522 61.8306Z" fill="black"/>
<path d="M117.339 38.929L117.291 38.8655C117.595 38.6336 118.316 38.0854 118.439 38.0059L118.482 38.0729C118.362 38.1509 117.643 38.6976 117.339 38.929Z" fill="black"/>
<path d="M117.557 39.2314L117.508 39.1684L117.815 38.9291C118.347 38.5146 118.64 38.2863 118.765 38.2666L118.778 38.3453C118.673 38.3619 118.351 38.6126 117.864 38.992L117.557 39.2314Z" fill="black"/>
<path d="M117.778 39.5713L117.732 39.5061C117.898 39.3895 118.068 39.25 118.232 39.1151C118.454 38.9333 118.645 38.7763 118.777 38.7166L118.81 38.7892C118.687 38.8447 118.491 39.0059 118.283 39.1767C118.118 39.3125 117.947 39.453 117.778 39.5713Z" fill="black"/>
<path d="M116.625 39.0944L116.576 39.0315C116.622 38.9959 116.691 38.9273 116.764 38.8547C116.848 38.7716 116.935 38.6855 116.995 38.6416L117.042 38.7059C116.987 38.7463 116.903 38.8302 116.821 38.9114C116.746 38.9856 116.675 39.0559 116.625 39.0944Z" fill="black"/>
<path d="M127.04 87.0311C126.954 86.9358 126.973 86.6516 127.083 86.384L127.157 86.4141C127.043 86.6917 127.05 86.9237 127.099 86.978L127.04 87.0311Z" fill="black"/>
<path d="M127.56 86.9028C127.432 86.7737 127.622 86.2353 127.63 86.2124L127.705 86.2394C127.608 86.5124 127.566 86.7962 127.616 86.8466L127.56 86.9028Z" fill="black"/>
<path d="M128.062 86.7378C128.023 86.7201 127.994 86.6847 127.977 86.6355C127.936 86.5197 127.965 86.348 128.057 86.1648L128.128 86.2003C128.048 86.3621 128.019 86.5148 128.052 86.6091C128.062 86.6375 128.077 86.657 128.095 86.6656L128.062 86.7378Z" fill="black"/>
<path d="M128.455 86.5377C128.426 86.528 128.403 86.5075 128.389 86.4782C128.352 86.401 128.372 86.2575 128.451 86.0393L128.526 86.0667C128.434 86.3211 128.446 86.412 128.461 86.4436C128.467 86.4563 128.475 86.4602 128.48 86.462L128.455 86.5377Z" fill="black"/>
<path d="M122.794 39.9136C123.003 40.1875 123.219 40.1585 123.257 40.3351C123.295 40.5119 123.323 40.5244 123.364 40.5769C123.404 40.6291 123.265 40.6186 123.196 40.5904C123.129 40.5622 122.96 40.5651 122.856 40.5666C122.753 40.5682 122.631 40.4468 122.708 40.4325C122.784 40.4184 122.774 40.3944 122.762 40.3406C122.751 40.287 122.805 40.202 122.837 40.1865C122.87 40.1709 122.847 40.1738 122.818 40.1018C122.788 40.0296 122.75 39.8546 122.794 39.9136Z" fill="black"/>
<path d="M122.92 39.6628C123.154 39.6903 123.558 39.8167 123.777 40.0591C123.949 40.2498 123.809 40.1993 123.721 40.2063C123.634 40.2137 123.463 40.1518 123.377 40.0434C123.292 39.9352 123.038 39.798 122.902 39.7623C122.82 39.741 122.743 39.6419 122.92 39.6628Z" fill="black"/>
</g>
<defs>
<clipPath id="clip0_421_828">
<rect width="160" height="120" fill="white"/>
</clipPath>
</defs>
</svg>
