<svg width="160" height="120" viewBox="0 0 160 120" fill="none" xmlns="http://www.w3.org/2000/svg">
<g clip-path="url(#clip0_909_274816)">
<path d="M0 0H160V120H0V0Z" fill="#021455"/>
<path d="M93.8934 29.5054H145.269L145.208 66.0628C145.635 80.7587 136.476 89.878 119.622 93.9896C107.655 91.0176 93.8544 84.8704 93.834 66.4798L93.8951 29.5054L93.8934 29.5054Z" fill="white"/>
<path d="M95.0306 30.6074H144.129L144.071 65.6384C144.479 79.7204 135.725 88.4588 119.619 92.3988C108.181 89.5514 94.9924 83.6604 94.973 66.0378L95.0313 30.6074H95.0306Z" fill="#54AEF2"/>
<path d="M119.618 92.5857L119.575 92.575C108.946 89.9287 94.8119 84.2988 94.7916 66.0381L94.85 30.6072L95.0307 30.6075V30.4263H144.311L144.31 30.6078L144.252 65.6389C144.652 79.4213 136.379 88.4857 119.662 92.575L119.618 92.5857ZM95.2121 30.7888L95.1541 66.0383C95.174 84.0193 109.113 89.5908 119.619 92.2123C136.119 88.1643 144.284 79.2258 143.89 65.6437L143.947 30.7888H95.2121Z" fill="black"/>
<path d="M143.748 69.7876C141.962 83.2296 131.61 89.1027 119.617 92.22C109.003 89.3724 97.5824 84.8264 95.3686 69.8552L143.749 69.7876L143.748 69.7876Z" fill="#AD7D5A"/>
<path d="M117.673 37.1328L117.605 32.7178L121.096 32.752L121.13 37.1328H130.679L130.713 40.5554L121.13 40.5896L121.053 80.9526L117.648 80.974L117.605 40.5554L108.088 40.5897L108.09 37.0987L117.673 37.1328Z" fill="#784B26"/>
<path fill-rule="evenodd" clip-rule="evenodd" d="M109.943 71.4536L118.684 80.5212C121.706 77.1992 119.61 64.7821 115.634 62.4951C115.158 63.9654 114.347 65.7283 113.486 66.2967C111.591 67.5881 106.948 69.0979 108.5 70.0648C108.854 69.5747 109.78 69.1118 110.215 70.2011C110.733 71.9164 108.282 72.0255 108.282 72.0255C108.282 72.0255 106.73 71.8347 106.458 70.2553C106.185 68.6762 108.769 67.2343 108.99 67.1241C109.208 67.0423 112.584 66.1439 113.156 63.1484C113.864 60.2075 114.599 60.6434 114.735 60.5889C119.146 61.0245 122.033 68.9213 122.196 74.476C122.36 80.0308 119.936 83.7068 119.501 83.9519C119.065 84.1969 108.99 71.9982 108.99 71.9982L109.943 71.4536Z" fill="#F4812F"/>
<path d="M119.489 84.0545C119.296 84.0545 118.598 83.5145 114.008 78.1297C111.464 75.1445 108.941 72.0904 108.915 72.0598L108.895 72.0348C108.568 72.108 108.31 72.1209 108.286 72.1221C108.254 72.1193 106.644 71.9029 106.362 70.2717C106.067 68.5584 108.918 67.052 108.947 67.0375C108.97 67.0281 108.997 67.0195 109.035 67.0072C110.342 66.5883 112.603 65.5275 113.061 63.1303C113.629 60.7719 114.217 60.4807 114.662 60.4973C114.68 60.4975 114.694 60.499 114.706 60.4971L114.728 60.4883L114.745 60.4926C116.767 60.6922 118.685 62.4959 120.146 65.5713C121.404 68.2201 122.207 71.548 122.293 74.473C122.458 80.0891 119.972 83.7977 119.548 84.0361C119.532 84.0451 119.515 84.0545 119.489 84.0545ZM109.138 72.0252C113.003 76.7027 118.851 83.5994 119.474 83.8537C119.94 83.5197 122.26 79.9223 122.1 74.4789C121.939 69.0145 119.063 61.1338 114.744 60.6869C114.716 60.6924 114.688 60.6916 114.656 60.6906C114.46 60.6861 113.853 60.6686 113.25 63.1711C112.775 65.6621 110.442 66.7596 109.094 67.1916C109.06 67.2023 109.037 67.21 109.024 67.2146C108.449 67.5021 106.317 68.8701 106.553 70.2389C106.81 71.7301 108.279 71.9275 108.294 71.9293C108.292 71.9285 108.802 71.9021 109.294 71.7131L109.837 71.4025C109.905 71.3436 109.967 71.2779 110.018 71.2051C110.204 70.9432 110.239 70.6146 110.123 70.2289C109.979 69.8711 109.77 69.6687 109.502 69.6359C109.158 69.5936 108.776 69.8479 108.578 70.1213L108.525 70.1945L108.449 70.1469C108.202 69.993 108.081 69.8117 108.091 69.6082C108.124 68.949 109.59 68.2246 111.142 67.4576C111.98 67.0436 112.847 66.6152 113.432 66.2168C114.271 65.6629 115.072 63.9158 115.542 62.4652L115.579 62.3518L115.682 62.4113C117.577 63.501 119.243 67.0326 119.928 71.4088C120.437 74.6625 120.397 78.782 118.755 80.5861L118.686 80.6627L109.929 71.5783C109.763 71.7133 109.569 71.8148 109.372 71.8914L109.138 72.0252ZM110.071 71.4465L118.68 80.3783C119.961 78.8695 120.367 75.4631 119.737 71.4387C119.073 67.1984 117.491 63.7699 115.688 62.6404C115.203 64.0984 114.396 65.8119 113.539 66.3773C112.945 66.7828 112.072 67.2141 111.228 67.6311C109.861 68.3064 108.312 69.0721 108.285 69.6176C108.279 69.7295 108.343 69.8334 108.479 69.934C108.715 69.6514 109.12 69.3951 109.526 69.4438C109.762 69.4729 110.088 69.6215 110.305 70.165C110.442 70.6191 110.398 71.0041 110.176 71.3174C110.144 71.3629 110.108 71.4059 110.071 71.4465Z" fill="black"/>
<path d="M116.315 63.0127L116.369 79.3776L116.315 63.0127Z" fill="#F4812F"/>
<path d="M116.411 63.0121L116.218 63.0127L116.272 79.3777L116.466 79.3771L116.411 63.0121Z" fill="black"/>
<path d="M115.335 63.3115C115.335 63.3388 115.389 78.1792 115.389 78.1792L115.335 63.3115Z" fill="#F4812F"/>
<path d="M115.292 78.1797C115.29 77.5736 115.238 63.3387 115.238 63.3115H115.431C115.431 63.3564 115.485 78.0307 115.486 78.1789L115.292 78.1797Z" fill="black"/>
<path d="M114.273 65.4629L114.327 77.2806L114.273 65.4629Z" fill="#F4812F"/>
<path d="M114.369 65.4625L114.176 65.4634L114.23 77.2811L114.423 77.2803L114.369 65.4625Z" fill="black"/>
<path d="M113.401 66.3071L113.456 76.0829L113.401 66.3071Z" fill="#F4812F"/>
<path d="M113.498 66.3065L113.305 66.3076L113.359 76.0834L113.552 76.0823L113.498 66.3065Z" fill="black"/>
<path d="M112.572 66.7427H112.379V74.9933H112.572V66.7427Z" fill="black"/>
<path d="M111.564 67.3965H111.371V73.9314H111.564V67.3965Z" fill="black"/>
<path d="M110.693 67.9136H110.5V72.9237H110.693V67.9136Z" fill="black"/>
<path d="M118.82 82.9047C118.793 82.9047 118.766 82.8935 118.747 82.8717L109.734 72.5515C109.699 72.5113 109.703 72.4502 109.743 72.415C109.783 72.3799 109.845 72.384 109.88 72.4242L118.893 82.7443C118.928 82.7845 118.924 82.8457 118.884 82.8808C118.865 82.8968 118.843 82.9047 118.82 82.9047Z" fill="#FDD406"/>
<path d="M119.555 82.4449C119.527 82.4449 119.498 82.4384 119.472 82.4248C119.383 82.3789 119.348 82.2697 119.394 82.1806C123.096 74.9902 119.131 66.1439 119.091 66.0554C119.049 65.9644 119.089 65.8568 119.18 65.8152C119.271 65.7738 119.379 65.8136 119.42 65.9046C119.462 65.9947 123.498 75.0013 119.716 82.3466C119.684 82.4091 119.62 82.4449 119.555 82.4449Z" fill="#FDD406"/>
<path d="M108.745 70.7905C108.723 70.7905 108.701 70.7866 108.68 70.7786C108.587 70.7429 108.54 70.6384 108.575 70.545C108.611 70.4519 108.804 69.9835 109.134 69.8991C109.233 69.8735 109.384 69.8724 109.544 70.0087C109.62 70.0739 109.628 70.1884 109.563 70.2644C109.498 70.3405 109.383 70.3491 109.308 70.2841C109.258 70.2417 109.234 70.2476 109.224 70.2503C109.117 70.2773 108.975 70.5136 108.914 70.6737C108.887 70.746 108.818 70.7905 108.745 70.7905Z" fill="#FDD406"/>
<path d="M107.302 70.8721C107.254 70.8721 107.207 70.8538 107.172 70.817C106.947 70.5858 106.839 70.3081 106.852 69.9918C106.886 69.1067 107.875 68.2231 107.917 68.1858C107.992 68.12 108.106 68.1268 108.173 68.2016C108.239 68.2766 108.232 68.3913 108.157 68.4575C108.148 68.4657 107.241 69.2764 107.214 70.0065C107.206 70.2225 107.277 70.4051 107.432 70.5647C107.502 70.6366 107.5 70.7512 107.428 70.8209C107.393 70.8551 107.347 70.8721 107.302 70.8721Z" fill="#FDD406"/>
<path d="M121.156 45.6088C121.761 45.0898 122.075 44.7726 122.45 44.8303C122.824 44.8879 123.334 44.859 123.709 44.7437C124.085 44.6283 125.945 44.3976 126.709 44.6571C126.969 44.686 127.314 44.8303 127.847 45.2773C128.381 45.7241 129.16 46.5028 128.9 48.6656C128.641 50.8283 128.726 51.7533 128.612 52.9622C128.411 55.0962 127.937 56.8533 127.084 56.711C128.237 58.7296 128.352 60.4598 129.102 61.844C129.852 63.2282 130.313 66.0542 130.024 69.111C129.737 72.1678 128.93 79.0308 131.351 83.6448C130.947 83.9332 129.968 83.6448 129.102 82.722C128.237 81.7992 127.857 81.8295 127.141 82.376C124.95 84.0485 122.898 86.0644 119.875 84.0485C119.183 83.5871 118.964 83.0337 119.471 81.6262C120.739 78.1082 121.356 73.2812 121.156 71.0142L121.156 45.6088Z" fill="#1E9A1C"/>
<path d="M122.342 84.9255C121.577 84.9255 120.756 84.6837 119.853 84.0815C119.184 83.6358 118.901 83.089 119.434 81.6126C120.692 78.1241 121.319 73.3179 121.116 71.0177L121.116 45.5903L121.13 45.5784C121.194 45.5236 121.255 45.4711 121.312 45.421C121.805 44.994 122.101 44.7353 122.456 44.7908C122.84 44.8496 123.339 44.8158 123.697 44.7055C124.042 44.5996 125.924 44.3481 126.722 44.6192C127.035 44.6531 127.403 44.853 127.873 45.2466C128.309 45.6113 129.216 46.3702 128.94 48.6702C128.781 49.9988 128.752 50.8532 128.726 51.607C128.71 52.0659 128.695 52.4994 128.652 52.9658C128.521 54.3523 128.227 56.1114 127.568 56.6183C127.439 56.7171 127.3 56.7637 127.157 56.7584C127.781 57.8707 128.099 58.9042 128.379 59.8182C128.601 60.5399 128.81 61.2218 129.137 61.8249C129.822 63.088 130.374 65.8317 130.064 69.1145C130.05 69.2622 130.035 69.4188 130.019 69.5837C129.717 72.7198 129.087 79.2456 131.386 83.6263L131.403 83.6571L131.374 83.6772C130.962 83.9718 129.965 83.7005 129.073 82.7493C128.226 81.8462 127.871 81.8686 127.165 82.4075C126.976 82.5518 126.788 82.6985 126.601 82.845C125.284 83.8733 123.937 84.9255 122.342 84.9255ZM121.196 45.627V71.0142C121.399 73.3192 120.77 78.1411 119.509 81.6395C118.991 83.0743 119.246 83.5813 119.897 84.0151C122.635 85.8411 124.538 84.3554 126.552 82.7821C126.739 82.6354 126.928 82.4886 127.117 82.3442C127.855 81.7813 128.249 81.7534 129.131 82.6946C129.973 83.5921 130.897 83.8733 131.299 83.6313C129.009 79.23 129.637 72.7122 129.94 69.5761C129.956 69.4112 129.971 69.2548 129.985 69.1071C130.293 65.8409 129.746 63.1153 129.067 61.8628C128.736 61.2528 128.526 60.5673 128.303 59.8416C128.018 58.9132 127.695 57.8609 127.049 56.7308L127.008 56.6578L127.091 56.6716C127.241 56.6972 127.386 56.6575 127.519 56.5551C128.015 56.1732 128.389 54.8959 128.572 52.9584C128.616 52.4943 128.631 52.062 128.646 51.6043C128.672 50.8489 128.701 49.9927 128.861 48.6606C129.132 46.4036 128.247 45.6635 127.822 45.3077C127.365 44.9247 127.01 44.7306 126.705 44.6967C125.963 44.4458 124.118 44.6596 123.721 44.7816C123.352 44.8951 122.839 44.9305 122.444 44.8696C122.126 44.8202 121.84 45.0693 121.365 45.4812C121.311 45.5277 121.255 45.5764 121.196 45.627Z" fill="black"/>
<path d="M123.234 43.4462C123.393 43.9364 123.479 44.5707 123.219 45.1475C122.96 45.7242 122.903 46.4163 123.334 47.2526C124.027 46.2722 125.008 46.4741 125.584 45.8973C126.161 45.3205 126.276 44.7726 126.709 44.6572C126.276 44.2824 125.613 43.8787 125.757 42.7828C125.902 41.687 127.429 40.7932 126.046 39.1205C125.152 38.0408 123.853 38.342 123.291 38.7601C123.027 38.9566 122.801 39.2358 122.715 39.4233C122.628 39.6108 122.737 40.0373 122.527 40.2885C122.384 40.4614 122.209 40.6334 122.008 40.7786C121.879 40.8724 121.798 41.009 121.936 41.168C121.991 41.2315 122.093 41.2451 122.204 41.2837C122.139 41.4134 122.066 41.5428 121.994 41.6366C121.925 41.7246 121.955 41.8085 122.037 41.8802C121.928 42.2261 122.138 42.2637 121.994 42.5233C121.869 42.7478 121.699 43.0134 122.167 43.2731C122.296 43.3451 122.91 43.4876 123.234 43.4462Z" fill="#FFE2BD"/>
<path d="M123.329 47.329L123.299 47.2706C122.911 46.5193 122.873 45.8194 123.183 45.1309C123.443 44.5527 123.342 43.9246 123.206 43.489C122.875 43.5177 122.288 43.3856 122.148 43.3078C121.97 43.2089 121.866 43.101 121.831 42.9783C121.785 42.8143 121.871 42.6607 121.947 42.5253L121.959 42.5037C122.025 42.3853 122.01 42.3239 121.989 42.2388C121.969 42.158 121.945 42.0581 121.992 41.8923C121.903 41.8039 121.892 41.7028 121.962 41.612C122.019 41.5386 122.082 41.4338 122.147 41.307C122.135 41.3031 122.122 41.2993 122.11 41.2957C122.03 41.2721 121.955 41.25 121.906 41.194C121.844 41.1229 121.817 41.0499 121.825 40.9766C121.835 40.8946 121.89 40.8149 121.984 40.7462C122.169 40.613 122.341 40.4504 122.496 40.2629C122.616 40.1191 122.625 39.9084 122.632 39.7224C122.638 39.5956 122.642 39.486 122.679 39.4062C122.76 39.2297 122.979 38.942 123.268 38.7278C123.912 38.2489 125.209 38.0465 126.077 39.0949C127.05 40.2715 126.596 41.0914 126.196 41.8147C126.013 42.1448 125.84 42.4566 125.797 42.7878C125.671 43.7454 126.18 44.1666 126.59 44.5051C126.64 44.5466 126.689 44.5869 126.735 44.6268L126.792 44.6761L126.72 44.6955C126.483 44.7587 126.346 44.9597 126.157 45.2381C126.017 45.4454 125.857 45.6804 125.612 45.9254C125.365 46.1724 125.049 46.2793 124.715 46.3924C124.247 46.5507 123.763 46.7144 123.367 47.2754L123.329 47.329ZM123.262 43.4021L123.272 43.4338C123.417 43.8834 123.532 44.5485 123.255 45.1636C122.964 45.8108 122.992 46.4697 123.341 47.176C123.745 46.6363 124.246 46.4669 124.689 46.3169C125.015 46.2068 125.322 46.1028 125.556 45.8689C125.795 45.6294 125.953 45.3977 126.091 45.1932C126.265 44.9372 126.406 44.7301 126.629 44.6414C126.6 44.6168 126.57 44.5919 126.539 44.5666C126.114 44.2156 125.586 43.7788 125.718 42.7774C125.763 42.4312 125.939 42.113 126.126 41.776C126.533 41.0408 126.954 40.2804 126.015 39.1457C125.101 38.0409 123.801 38.4302 123.315 38.7919C123.05 38.9885 122.831 39.2666 122.752 39.4396C122.721 39.5052 122.717 39.6123 122.712 39.7257C122.704 39.9243 122.695 40.1495 122.557 40.3138C122.398 40.5064 122.221 40.6736 122.031 40.8107C121.978 40.8492 121.913 40.9109 121.905 40.9856C121.899 41.0358 121.92 41.0883 121.966 41.1416C121.999 41.1801 122.061 41.1981 122.132 41.2192C122.159 41.2272 122.188 41.2357 122.217 41.2458L122.26 41.2606L122.24 41.3012C122.164 41.4532 122.092 41.5742 122.026 41.6607C121.994 41.7009 121.964 41.7639 122.063 41.8499L122.083 41.8671L122.075 41.8919C122.025 42.0511 122.046 42.1369 122.066 42.2198C122.089 42.3108 122.11 42.3967 122.029 42.5425L122.017 42.5643C121.945 42.6922 121.87 42.8245 121.908 42.9565C121.937 43.0579 122.028 43.1499 122.187 43.2381C122.31 43.3069 122.913 43.4476 123.229 43.4063L123.262 43.4021Z" fill="black"/>
<path d="M117.625 49.1844C116.818 49.3863 115.52 49.0403 114.539 49.1555C114.106 49.2066 113.761 48.9826 113.819 48.5501C113.876 48.1174 113.934 47.4542 113.847 46.8486C113.713 45.9049 114.165 44.5993 114.799 43.1574C115.433 41.7156 115.751 40.9082 115.751 40.2305C115.751 39.7835 115.794 39.2788 116.198 39.0193C116.496 38.8276 116.553 38.6414 116.66 38.4859C116.904 38.1254 117.134 38.0389 117.163 38.2553C117.181 38.3839 117.134 38.5003 117.019 38.6734C117.279 38.4571 117.719 38.2046 117.819 38.1326C117.92 38.0606 118.433 37.7001 118.461 38.0389C118.663 37.9381 118.8 37.9451 118.851 38.0532C118.905 38.1702 118.872 38.2192 118.771 38.3057C118.915 38.2768 119.081 38.5292 118.792 38.7526C118.944 38.7021 119.095 38.9545 118.829 39.1852C118.553 39.4233 118.238 39.589 118.137 39.7763C118.036 39.9638 117.351 40.4901 117.077 40.6054C116.803 40.7208 116.789 40.879 116.789 41.2831C116.789 45.7239 116.256 45.3631 116.256 46.4305C116.256 46.7189 116.198 46.9784 116.486 46.8918C116.775 46.8053 117.192 46.6756 117.625 46.6756V49.1844Z" fill="#FFE2BD"/>
<path d="M116.986 49.2894C116.685 49.2894 116.357 49.2609 116.018 49.2315C115.514 49.1878 114.992 49.1427 114.544 49.1952C114.285 49.2256 114.058 49.1617 113.919 49.0199C113.802 48.9011 113.754 48.7368 113.779 48.545C113.866 47.8917 113.875 47.323 113.807 46.8545C113.661 45.8279 114.208 44.4015 114.762 43.1416C115.431 41.6211 115.711 40.8806 115.711 40.2307C115.711 39.7395 115.767 39.2488 116.176 38.9861C116.401 38.8417 116.481 38.7052 116.559 38.5732C116.581 38.5353 116.603 38.4988 116.627 38.4636C116.799 38.209 116.974 38.0744 117.093 38.102C117.128 38.1102 117.188 38.1402 117.203 38.2502C117.216 38.3433 117.197 38.4288 117.155 38.5189C117.316 38.4028 117.5 38.2882 117.633 38.205C117.708 38.1582 117.767 38.1216 117.796 38.1005C117.994 37.9594 118.259 37.8065 118.404 37.873C118.448 37.8931 118.477 37.9293 118.491 37.981C118.611 37.9284 118.708 37.9145 118.781 37.9403C118.829 37.9569 118.865 37.9893 118.887 38.0364C118.939 38.1495 118.917 38.2151 118.86 38.2772C118.906 38.2964 118.945 38.3349 118.969 38.3869C119.008 38.4711 119.002 38.5959 118.891 38.7174C118.928 38.732 118.962 38.7606 118.985 38.8009C119.038 38.8944 119.036 39.0589 118.855 39.2155C118.754 39.303 118.65 39.3789 118.549 39.4525C118.379 39.5767 118.232 39.684 118.172 39.7955C118.064 39.9945 117.363 40.5283 117.093 40.6424C116.841 40.7483 116.829 40.8807 116.829 41.2832C116.829 44.269 116.588 45.0883 116.429 45.6305C116.352 45.8946 116.295 46.0853 116.295 46.4307C116.295 46.4742 116.294 46.5171 116.293 46.5582C116.289 46.6909 116.285 46.8163 116.334 46.8542C116.361 46.8743 116.408 46.8738 116.475 46.8538L116.503 46.8453C116.797 46.757 117.2 46.636 117.625 46.636H117.665V49.2157L117.635 49.2233C117.441 49.2718 117.222 49.2894 116.986 49.2894ZM114.997 49.0917C115.33 49.0917 115.681 49.1223 116.025 49.1521C116.609 49.2029 117.162 49.2507 117.586 49.1531V46.716C117.187 46.7234 116.806 46.8375 116.526 46.9217L116.498 46.9302C116.403 46.9585 116.334 46.9544 116.286 46.9175C116.204 46.8547 116.208 46.7161 116.213 46.5558C116.214 46.5155 116.216 46.4734 116.216 46.4307C116.216 46.0738 116.276 45.8683 116.353 45.608C116.51 45.0702 116.749 44.2575 116.749 41.2832C116.749 40.879 116.762 40.695 117.062 40.569C117.339 40.4521 118.009 39.9289 118.102 39.7576C118.17 39.6302 118.324 39.518 118.502 39.3881C118.602 39.3155 118.704 39.2405 118.803 39.1552C118.947 39.0304 118.954 38.9075 118.915 38.8404C118.89 38.7962 118.847 38.7775 118.805 38.7906L118.768 38.7213C118.95 38.5801 118.912 38.455 118.896 38.42C118.873 38.3676 118.823 38.3356 118.779 38.3449L118.628 38.3751L118.745 38.2755C118.839 38.1952 118.858 38.1646 118.815 38.0702C118.802 38.0429 118.782 38.025 118.755 38.0155C118.712 38.0008 118.63 37.9992 118.479 38.0749L118.426 38.1011L118.421 38.0424C118.415 37.9657 118.382 37.9504 118.371 37.9453C118.286 37.9061 118.09 37.9887 117.842 38.1654C117.812 38.1868 117.752 38.2245 117.675 38.2726C117.496 38.3846 117.225 38.5537 117.045 38.7042L116.986 38.6515C117.102 38.4775 117.139 38.3716 117.124 38.261C117.117 38.213 117.101 38.1858 117.075 38.1796C117.009 38.1635 116.861 38.2604 116.693 38.5085C116.67 38.5423 116.649 38.5774 116.628 38.6136C116.549 38.7472 116.46 38.8986 116.219 39.0531C115.842 39.2951 115.79 39.7621 115.79 40.2307C115.79 40.895 115.509 41.6424 114.835 43.1737C114.286 44.4233 113.743 45.8364 113.886 46.8433C113.955 47.3188 113.945 47.8949 113.858 48.5555C113.836 48.7221 113.877 48.8634 113.976 48.964C114.098 49.0881 114.301 49.143 114.535 49.1161C114.682 49.0988 114.837 49.0917 114.997 49.0917Z" fill="black"/>
<path d="M117.798 58.7584C119.101 58.1067 120.595 57.8644 121.374 57.6627C122.152 57.4608 123.393 56.8553 123.998 56.5381C124.604 56.2207 125.094 55.7882 125.44 55.6729C125.786 55.5576 126.174 55.319 126.391 54.8944C127.516 52.7027 128.122 50.9439 128.122 49.4153C128.122 48.406 127.862 47.2813 126.881 48.0888C125.96 48.8478 124.956 50.3109 124.69 51.3762C124.286 52.991 123.941 53.3371 123.853 53.6542C123.767 53.9716 123.441 53.9712 123.046 54.058C121.345 54.433 120.941 54.6923 119.672 55.644C118.404 56.5957 117.019 57.432 116.096 57.951C115.174 58.4701 115.001 58.5277 114.799 58.9458C114.598 59.364 114.41 59.6812 114.237 59.8688C114.063 60.0561 114.014 60.2752 114.049 60.5031C114.079 60.6906 113.991 61.5556 113.977 61.844C113.962 62.1324 114.034 62.2045 114.151 62.2188C114.266 62.2334 114.424 62.1757 114.482 61.8296C114.424 62.1757 114.9 62.0602 114.929 61.8008C114.914 62.1757 115.419 61.9594 115.448 61.6134C115.448 61.8584 115.83 61.6889 115.866 61.5701C115.952 61.2817 116.024 60.9645 116.139 60.7339C116.308 60.399 116.487 59.9654 116.818 59.7245C117.193 59.4505 117.019 59.1478 117.798 58.7584Z" fill="#FFE2BD"/>
<path d="M114.181 62.2604C114.168 62.2604 114.156 62.2595 114.146 62.2581C113.983 62.2384 113.923 62.1177 113.937 61.8417C113.942 61.7526 113.953 61.6085 113.966 61.446C113.993 61.1034 114.029 60.6343 114.01 60.5091C113.97 60.2509 114.036 60.0263 114.207 59.8416C114.37 59.6658 114.552 59.3671 114.763 58.9284C114.948 58.5455 115.111 58.4549 115.795 58.0735C115.88 58.0261 115.974 57.9739 116.077 57.9161C116.823 57.4964 118.28 56.6388 119.648 55.6119C120.914 54.6623 121.316 54.3982 123.037 54.0189C123.105 54.0041 123.171 53.9918 123.233 53.98C123.533 53.9236 123.75 53.8829 123.815 53.6436C123.842 53.5459 123.89 53.4491 123.958 53.3152C124.111 53.0101 124.368 52.4994 124.652 51.3664C124.91 50.3303 125.899 48.8461 126.856 48.0579C127.175 47.7955 127.446 47.7137 127.66 47.8151C128.096 48.0213 128.162 48.906 128.162 49.4151C128.162 50.8775 127.627 52.5729 126.427 54.9124C126.172 55.4097 125.707 55.626 125.452 55.7105C125.273 55.7702 125.05 55.9203 124.792 56.0941C124.562 56.2486 124.302 56.4237 124.016 56.5733C123.736 56.7204 122.29 57.4661 121.384 57.7012C121.218 57.744 121.025 57.7877 120.801 57.8384C119.973 58.0257 118.839 58.2823 117.815 58.7939C117.347 59.028 117.235 59.223 117.127 59.4117C117.058 59.5322 116.992 59.6461 116.841 59.7565C116.562 59.9601 116.392 60.3083 116.242 60.6153C116.219 60.662 116.197 60.7077 116.175 60.7517C116.09 60.922 116.027 61.1466 115.966 61.364C115.946 61.437 115.925 61.5101 115.904 61.5813C115.873 61.6858 115.669 61.7944 115.538 61.7763C115.506 61.7714 115.479 61.7593 115.458 61.7409C115.386 61.9188 115.207 62.0433 115.062 62.0368C114.993 62.0325 114.942 61.9983 114.914 61.9407C114.873 61.9962 114.814 62.0358 114.76 62.0585C114.664 62.0981 114.566 62.0925 114.505 62.0444C114.495 62.0362 114.485 62.0261 114.475 62.0134C114.396 62.2235 114.263 62.2604 114.181 62.2604ZM127.468 47.8528C127.31 47.8528 127.122 47.942 126.907 48.1194C125.961 48.8984 124.984 50.3637 124.729 51.3857C124.443 52.5273 124.184 53.043 124.029 53.3511C123.964 53.4809 123.917 53.5747 123.892 53.6647C123.814 53.952 123.552 54.0014 123.248 54.0584C123.186 54.07 123.121 54.0822 123.054 54.0969C121.35 54.4726 120.951 54.7343 119.696 55.6758C118.324 56.7053 116.864 57.5648 116.116 57.9856C116.013 58.0435 115.919 58.0957 115.834 58.1433C115.151 58.5237 115.009 58.6029 114.835 58.9631C114.62 59.4089 114.434 59.7141 114.266 59.8957C114.112 60.0617 114.053 60.264 114.089 60.497C114.11 60.6311 114.074 61.0864 114.045 61.4522C114.033 61.6138 114.021 61.7571 114.017 61.8458C114.002 62.1358 114.077 62.1694 114.156 62.179C114.296 62.1974 114.401 62.0708 114.443 61.8227L114.522 61.836C114.514 61.8841 114.513 61.9483 114.555 61.9819C114.593 62.0116 114.661 62.0132 114.729 61.9849C114.797 61.9569 114.879 61.8907 114.889 61.7962L114.969 61.8022C114.966 61.87 114.981 61.9518 115.067 61.9571C115.189 61.9686 115.392 61.8124 115.409 61.6099L115.488 61.6132C115.488 61.6798 115.521 61.6931 115.55 61.6974C115.653 61.7118 115.811 61.6153 115.828 61.5587C115.849 61.4878 115.869 61.4151 115.889 61.3425C115.951 61.1216 116.015 60.8931 116.104 60.7159C116.126 60.6722 116.148 60.6268 116.17 60.5804C116.325 60.2649 116.499 59.9073 116.794 59.6921C116.932 59.5917 116.99 59.4898 117.058 59.372C117.167 59.1823 117.29 58.9675 117.78 58.7227C118.812 58.2065 119.952 57.9488 120.784 57.7605C121.007 57.7101 121.2 57.6665 121.364 57.624C122.06 57.4435 123.208 56.9071 123.979 56.5026C124.261 56.3552 124.519 56.1813 124.747 56.028C125.011 55.851 125.238 55.698 125.427 55.635C125.67 55.5541 126.114 55.348 126.356 54.8761C127.55 52.5484 128.082 50.8643 128.082 49.4151C128.082 48.581 127.916 48.0241 127.626 47.8873C127.577 47.8643 127.524 47.8528 127.468 47.8528Z" fill="black"/>
<path d="M127.141 82.3759C127.228 82.6931 127.386 83.0536 127.443 83.2699C127.502 83.4862 127.4 83.5536 127.343 83.6736C127.041 84.3081 126.715 85.3194 126.665 85.8652C126.637 86.1824 126.421 86.4852 126.319 86.6727C126.208 86.8794 126.251 87.0389 126.507 87.235C126.629 87.3286 127.026 87.2061 127.069 87.0043C127.213 87.1484 127.472 87.0908 127.588 86.8744C127.718 87.0043 127.934 86.9177 128.079 86.7015C128.208 86.788 128.395 86.615 128.467 86.4995C128.67 86.6005 128.886 86.478 128.893 86.0815C128.894 86.0019 128.943 85.8652 129.002 85.7715C129.059 85.6777 129.08 85.4976 129.074 85.3389C129.066 85.1802 129.167 84.8631 129.304 84.6396C129.441 84.416 129.679 84.0196 129.578 83.6448C129.484 83.2955 129.333 83.3275 129.203 82.823C128.886 82.4912 128.453 82.0298 128.007 82.0009C127.56 81.9722 127.3 82.275 127.141 82.3759Z" fill="#FFE2BD"/>
<path d="M126.629 87.3068C126.573 87.3068 126.52 87.2956 126.482 87.2665C126.217 87.0628 126.159 86.8853 126.284 86.6538C126.304 86.6171 126.328 86.5761 126.354 86.5314C126.46 86.3529 126.603 86.1085 126.625 85.8616C126.679 85.2866 127.021 84.2572 127.307 83.6564C127.321 83.6269 127.338 83.6003 127.354 83.5741C127.403 83.4964 127.445 83.4292 127.405 83.2804C127.379 83.181 127.329 83.047 127.277 82.9052C127.217 82.7421 127.149 82.5572 127.102 82.3865L127.095 82.3579L127.12 82.3423C127.15 82.3228 127.186 82.2949 127.227 82.2624C127.39 82.1327 127.637 81.9366 128.009 81.9611C128.464 81.9906 128.898 82.446 129.216 82.7786L129.242 82.813C129.311 83.0833 129.385 83.1925 129.456 83.2984C129.516 83.3868 129.572 83.4704 129.616 83.6345C129.723 84.031 129.473 84.4404 129.338 84.6605C129.209 84.8716 129.106 85.1814 129.114 85.3368C129.12 85.4855 129.102 85.6829 129.036 85.7923C128.98 85.8822 128.934 86.012 128.933 86.0822C128.929 86.3013 128.862 86.4615 128.743 86.5335C128.666 86.5808 128.574 86.5859 128.482 86.5495C128.423 86.6298 128.315 86.7357 128.203 86.7597C128.163 86.7685 128.125 86.7661 128.091 86.7529C127.997 86.8808 127.876 86.9626 127.762 86.974C127.7 86.9804 127.645 86.9665 127.598 86.9345C127.531 87.0349 127.428 87.1029 127.316 87.1195C127.234 87.1327 127.152 87.1146 127.087 87.0704C127.045 87.1513 126.954 87.2224 126.832 87.2675C126.772 87.2896 126.698 87.3068 126.629 87.3068ZM127.187 82.3929C127.233 82.5527 127.296 82.7249 127.352 82.8777C127.405 83.0214 127.455 83.157 127.482 83.2599C127.531 83.4419 127.475 83.5306 127.422 83.6163C127.407 83.6402 127.392 83.664 127.379 83.6906C127.061 84.3581 126.752 85.3556 126.704 85.8689C126.681 86.1333 126.532 86.3866 126.423 86.5718C126.397 86.6156 126.374 86.6558 126.354 86.6917C126.266 86.856 126.264 86.9988 126.531 87.2033C126.578 87.2388 126.692 87.2345 126.805 87.1927C126.927 87.1474 127.013 87.072 127.029 86.996L127.045 86.9245L127.097 86.9761C127.151 87.03 127.225 87.0521 127.305 87.0408C127.406 87.0255 127.499 86.9564 127.553 86.8558L127.578 86.8083L127.616 86.8462C127.654 86.8837 127.7 86.9011 127.754 86.8947C127.853 86.8847 127.962 86.8042 128.045 86.6794L128.068 86.6462L128.101 86.6683C128.125 86.6843 128.153 86.6886 128.186 86.6818C128.273 86.663 128.38 86.5636 128.434 86.4784L128.453 86.4478L128.485 86.4638C128.563 86.5029 128.64 86.5031 128.702 86.4654C128.796 86.4081 128.85 86.2716 128.853 86.081C128.854 85.9958 128.904 85.8536 128.968 85.7505C129.015 85.6732 129.041 85.512 129.034 85.3404C129.026 85.1691 129.132 84.8452 129.27 84.6189C129.398 84.4091 129.637 84.0187 129.539 83.6552C129.498 83.504 129.448 83.4292 129.39 83.3429C129.319 83.238 129.239 83.1193 129.167 82.8431L129.158 82.8337C128.85 82.5107 128.428 82.0681 128.004 82.0408C127.662 82.0169 127.44 82.1956 127.276 82.3249C127.244 82.3507 127.214 82.3738 127.187 82.3929Z" fill="black"/>
<path d="M118.937 84.8563C119.341 85.2599 120.249 85.2744 120.884 84.5966C120.653 84.4957 120.148 84.265 119.918 84.0776C119.6 84.3949 119.239 84.7552 118.937 84.8563Z" fill="#FFE2BD"/>
<path d="M119.702 85.1769C119.383 85.1769 119.095 85.071 118.909 84.8843L118.863 84.8388L118.924 84.8183C119.218 84.72 119.575 84.3638 119.89 84.0493L119.915 84.0239L119.943 84.0466C120.162 84.2249 120.636 84.4448 120.9 84.5599L120.951 84.5825L120.913 84.6235C120.586 84.9729 120.164 85.1692 119.726 85.1767C119.718 85.1769 119.71 85.1769 119.702 85.1769ZM119.011 84.8704C119.183 85.0155 119.43 85.0972 119.702 85.0972C119.709 85.0972 119.717 85.0972 119.725 85.097C120.124 85.0901 120.509 84.9177 120.815 84.6099C120.553 84.4937 120.142 84.2987 119.921 84.1306C119.627 84.4239 119.3 84.746 119.011 84.8704Z" fill="black"/>
<path d="M123.018 39.005C123.176 37.9813 123.902 38.0055 124.359 38.111C124.546 38.1543 125.008 38.1975 125.44 38.0822C126.295 37.8542 126.94 38.1543 126.854 38.9762C127.084 39.1492 127.328 39.5528 127.285 39.899C127.242 40.245 127.314 40.3892 127.632 40.4324C127.948 40.4758 128.627 40.865 128.179 41.4129C128.612 41.6725 128.943 42.3357 128.713 42.7827C128.483 43.2296 127.79 43.3018 127.502 42.898C127.185 43.0421 126.665 43.071 126.348 42.7395C126.132 42.9989 125.584 42.9701 125.483 42.7395C125.383 42.5087 125.212 42.3853 125.008 42.3212C124.776 42.2492 124.762 41.6148 125.108 41.5426C125.065 41.3551 125.08 41.1389 125.166 41.0381C125.252 40.9372 125.18 40.7497 124.979 40.591C124.776 40.4324 124.604 39.8268 124.805 39.4952C124.46 39.6106 123.695 39.2789 123.537 39.0483C123.378 38.8175 123.162 38.8032 123.018 39.005Z" fill="#D3AE3B"/>
<path d="M128.05 43.2032C127.823 43.2032 127.618 43.1103 127.489 42.9472C127.142 43.0927 126.655 43.0856 126.35 42.797C126.203 42.9416 125.962 42.9817 125.779 42.9558C125.613 42.9322 125.492 42.8593 125.446 42.7556C125.36 42.557 125.213 42.4275 124.996 42.3593C124.851 42.3142 124.793 42.1097 124.801 41.9388C124.809 41.7686 124.882 41.5738 125.061 41.5141C125.03 41.3433 125.04 41.1249 125.136 41.0123C125.156 40.9882 125.165 40.9569 125.161 40.9192C125.152 40.8285 125.075 40.7175 124.954 40.6224C124.751 40.4632 124.587 39.907 124.732 39.5525C124.34 39.6061 123.658 39.2955 123.504 39.0709C123.43 38.9638 123.342 38.9044 123.255 38.9037H123.254C123.179 38.9037 123.109 38.9467 123.05 39.0283L122.979 38.999C123.039 38.609 123.187 38.3316 123.419 38.1748C123.654 38.0155 123.973 37.981 124.368 38.0723C124.573 38.1197 125.026 38.1515 125.429 38.0438C125.943 37.907 126.37 37.956 126.633 38.1813C126.835 38.3539 126.926 38.6223 126.895 38.9583C127.138 39.1515 127.367 39.5599 127.325 39.904C127.282 40.2445 127.353 40.3542 127.637 40.3929C127.852 40.4225 128.222 40.5993 128.335 40.8855C128.381 41.0024 128.399 41.1849 128.238 41.4027C128.671 41.6886 128.984 42.3441 128.748 42.801C128.632 43.0277 128.388 43.181 128.111 43.201C128.091 43.2024 128.07 43.2032 128.05 43.2032ZM127.515 42.8482L127.534 42.8749C127.656 43.0463 127.87 43.1397 128.105 43.1214C128.354 43.1034 128.573 42.9666 128.678 42.7645C128.897 42.3388 128.573 41.6958 128.158 41.4472L128.119 41.4234L128.148 41.3878C128.282 41.2242 128.32 41.065 128.261 40.9147C128.164 40.6693 127.83 40.4999 127.627 40.4719C127.254 40.4214 127.205 40.2218 127.246 39.8942C127.286 39.5699 127.061 39.1818 126.83 39.0083L126.812 38.9947L126.814 38.9722C126.847 38.653 126.767 38.4005 126.581 38.2418C126.342 38.0369 125.929 37.9927 125.45 38.1208C125 38.2411 124.533 38.1924 124.35 38.15C123.977 38.0641 123.679 38.0945 123.463 38.2408C123.276 38.3674 123.148 38.5832 123.081 38.8831C123.134 38.8444 123.193 38.8239 123.254 38.8239H123.256C123.369 38.8249 123.48 38.8965 123.57 39.0257C123.717 39.2401 124.469 39.5651 124.793 39.4575L124.896 39.4231L124.839 39.516C124.653 39.8237 124.81 40.4079 125.003 40.5597C125.143 40.6696 125.229 40.7978 125.24 40.9113C125.246 40.9706 125.231 41.0233 125.196 41.0641C125.124 41.1484 125.104 41.346 125.147 41.5337L125.156 41.5733L125.116 41.5817C124.954 41.6156 124.888 41.7903 124.881 41.9426C124.873 42.1097 124.933 42.2562 125.02 42.2832C125.26 42.3588 125.423 42.5028 125.519 42.7237C125.553 42.8002 125.654 42.8575 125.79 42.8769C125.965 42.9015 126.195 42.8608 126.318 42.714L126.346 42.6797L126.377 42.712C126.697 43.0469 127.215 42.985 127.485 42.8618L127.515 42.8482Z" fill="black"/>
<path d="M123.239 43.4855L123.229 43.4064C123.496 43.3721 123.68 43.2725 123.841 43.1847C124.015 43.0904 124.178 43.0019 124.404 43.0168L124.399 43.0963C124.197 43.082 124.05 43.1624 123.879 43.2548C123.712 43.346 123.521 43.4493 123.239 43.4855Z" fill="black"/>
<path d="M122.522 42.091L122.478 42.0858C122.371 42.0736 122.261 42.0609 122.155 42.0036C122.097 41.9718 122.05 41.9448 122.01 41.9104L122.063 41.8506C122.096 41.8796 122.14 41.9043 122.193 41.9336C122.285 41.9835 122.388 41.9952 122.487 42.0066L122.532 42.0119L122.522 42.091Z" fill="black"/>
<path d="M122.412 41.4553C122.338 41.3787 122.255 41.3436 122.191 41.3215L122.217 41.2461C122.289 41.271 122.383 41.311 122.469 41.3998L122.412 41.4553Z" fill="black"/>
<path d="M125.545 39.1557C125.352 39.1557 125.105 39.1137 124.98 38.9905C124.6 38.617 124.159 38.4542 123.797 38.5557C123.633 38.602 123.509 38.7019 123.482 38.8102C123.467 38.8713 123.486 38.9288 123.535 38.9765L123.48 39.0342C123.41 38.9665 123.383 38.8801 123.405 38.791C123.439 38.6533 123.581 38.5338 123.776 38.479C124.165 38.3692 124.635 38.5395 125.036 38.9337C125.192 39.0876 125.614 39.0976 125.745 39.054L125.77 39.1296C125.722 39.1455 125.64 39.1557 125.545 39.1557Z" fill="black"/>
<path d="M127.857 41.6017C127.834 41.6017 127.811 41.5998 127.788 41.5961C127.506 41.551 127.209 41.2337 126.904 40.653C126.756 40.371 126.595 40.3149 126.439 40.2606C126.283 40.2062 126.135 40.1549 126.036 39.8988C125.82 39.331 124.981 39.4956 124.814 39.5343L124.796 39.4566C125.31 39.3368 125.925 39.3825 126.111 39.8703C126.196 40.0917 126.315 40.133 126.465 40.1852C126.628 40.2418 126.812 40.3061 126.975 40.6159C127.263 41.1652 127.549 41.477 127.801 41.5173C127.924 41.5378 128.039 41.4936 128.151 41.3844L128.207 41.4416C128.097 41.548 127.98 41.6016 127.857 41.6017Z" fill="black"/>
<path d="M126.317 42.7636C126.177 42.5787 126.126 42.2 126.203 41.9403C126.039 41.7243 126.1 41.3138 126.211 41.0923L126.283 41.128C126.181 41.3306 126.121 41.7241 126.277 41.906L126.292 41.923L126.285 41.9444C126.2 42.2009 126.265 42.563 126.38 42.7155L126.317 42.7636Z" fill="black"/>
<path d="M125.708 42.1303C125.338 42.0713 125.086 41.7505 125.068 41.5466L125.148 41.5396C125.161 41.6884 125.369 41.9954 125.721 42.0516L125.708 42.1303Z" fill="black"/>
<path d="M127.47 42.9228C127.255 42.6451 127.289 42.3981 127.333 42.0854L127.412 42.0964C127.369 42.4021 127.338 42.6229 127.533 42.8739L127.47 42.9228Z" fill="black"/>
<path d="M126.626 41.2856C126.122 41.2857 125.856 40.9405 125.784 40.7801C125.501 40.651 125.343 40.2918 125.357 40.0269L125.437 40.0312C125.423 40.2738 125.57 40.6036 125.83 40.7132L125.845 40.7196L125.851 40.735C125.907 40.8731 126.189 41.2551 126.733 41.2005L126.741 41.2798C126.701 41.2838 126.663 41.2856 126.626 41.2856Z" fill="black"/>
<path d="M126.829 39.008C126.471 38.73 126.066 38.4631 125.536 38.3931L125.546 38.314C126.095 38.3864 126.511 38.6601 126.878 38.9449L126.829 39.008Z" fill="black"/>
<path d="M122.438 54.232L122.385 54.173C123.291 53.3492 122.973 51.5663 122.741 50.2645L122.719 50.1434C122.516 49.008 122.713 48.0274 123.302 47.229L123.366 47.2765C122.79 48.0565 122.599 49.0164 122.798 50.1294L122.819 50.2505C123.055 51.5706 123.377 53.3786 122.438 54.232Z" fill="black"/>
<path d="M123.871 57.2912C123.555 57.2912 123.237 57.2261 122.971 57.0929L123.007 57.0217C123.591 57.3139 124.434 57.2652 124.926 56.9096C125.447 56.5337 126.389 56.5194 127.092 56.6722L127.075 56.7502C126.411 56.606 125.47 56.6148 124.973 56.9743C124.684 57.1833 124.278 57.2912 123.871 57.2912Z" fill="black"/>
<path d="M124.766 62.3975C124.628 61.3521 124.691 60.3094 124.746 59.3894C124.771 58.9723 124.795 58.5784 124.795 58.2397C124.795 57.2053 125.051 56.7386 125.678 56.6289L125.692 56.7074C125.104 56.8103 124.874 57.2399 124.874 58.2397C124.874 58.5808 124.851 58.9759 124.826 59.3941C124.771 60.3105 124.708 61.3492 124.845 62.3869L124.766 62.3975Z" fill="black"/>
<path d="M123.901 58.2426C123.832 57.2755 124.191 57.1854 124.538 57.0981C124.566 57.0911 124.594 57.0842 124.622 57.0767L124.642 57.1536C124.614 57.1612 124.586 57.1684 124.557 57.1755C124.213 57.2619 123.916 57.3365 123.981 58.2369L123.901 58.2426Z" fill="black"/>
<path d="M122.726 58.2694L122.646 58.2676C122.658 57.7685 122.794 57.3597 123.003 57.2007C123.1 57.1265 123.21 57.1039 123.33 57.134L123.311 57.2114C123.216 57.1877 123.129 57.2053 123.051 57.2641C122.862 57.4088 122.737 57.794 122.726 58.2694Z" fill="black"/>
<path d="M129.237 73.0436C129.021 72.2764 128.984 70.9311 128.94 69.3735C128.881 67.2198 128.807 64.5393 128.199 62.5479C128.093 62.2014 127.992 61.9086 127.895 61.6256C127.631 60.86 127.403 60.1989 127.275 58.9644C127.103 57.3018 126.847 56.8555 126.528 56.7306C126.533 56.7351 126.538 56.7397 126.543 56.7444C126.787 56.9848 126.897 57.5213 126.878 58.3845L126.799 58.3828C126.816 57.5544 126.711 57.0223 126.487 56.8012C126.416 56.731 126.333 56.6913 126.235 56.6812C126.21 56.6802 126.185 56.6795 126.16 56.6788L126.16 56.5992C126.19 56.5978 126.219 56.5992 126.248 56.6025C126.788 56.632 127.136 56.847 127.354 58.9562C127.481 60.1815 127.708 60.8387 127.97 61.5996C128.068 61.8834 128.169 62.1768 128.275 62.5245C128.886 64.5264 128.96 67.2127 129.02 69.3713C129.063 70.9237 129.1 72.2643 129.314 73.0221L129.237 73.0436Z" fill="black"/>
<path d="M128.543 78.2879C128.406 77.4658 127.915 76.2596 127.293 74.7324C126.866 73.6824 126.381 72.4924 125.893 71.1432L125.889 71.1305L125.893 71.1176C127.728 65.3146 127.033 61.7684 126.008 58.8004L126.084 58.7744C127.112 61.7531 127.81 65.3113 125.973 71.1289C126.459 72.4713 126.941 73.6564 127.367 74.7025C127.991 76.2342 128.484 77.4439 128.622 78.2746L128.543 78.2879Z" fill="black"/>
<path d="M122.623 66.2956L122.546 66.2741C122.615 66.029 122.573 65.8618 122.514 65.6304C122.409 65.2116 122.249 64.5788 122.662 62.9304C122.931 61.8503 122.978 61.1901 122.809 60.8524L122.88 60.8169C123.061 61.1772 123.017 61.8351 122.739 62.9495C122.332 64.5788 122.488 65.1999 122.592 65.6108C122.651 65.8452 122.697 66.0302 122.623 66.2956Z" fill="black"/>
<path d="M123.171 67.1062L123.096 67.0792C123.404 66.219 123.181 65.1542 122.985 64.2147C122.834 63.4966 122.692 62.8181 122.806 62.3257L122.883 62.3437C122.774 62.8188 122.914 63.489 123.062 64.1983C123.261 65.1483 123.487 66.2249 123.171 67.1062Z" fill="black"/>
<path d="M124.998 84.0256L124.959 83.9564C125.415 83.6957 125.391 82.8873 125.374 82.2969C125.369 82.1336 125.365 81.9793 125.37 81.8553C125.525 78.7717 124.465 76.4789 122.723 72.9932C122.627 72.8025 122.536 72.6348 122.448 72.4723C122.109 71.849 121.864 71.3986 121.911 70.6084C121.943 70.0611 121.884 69.4162 121.827 68.7928C121.781 68.2889 121.737 67.8129 121.737 67.3809H121.817C121.817 67.8092 121.861 68.2834 121.906 68.7855C121.964 69.4119 122.023 70.0598 121.991 70.6131C121.945 71.3805 122.185 71.8225 122.518 72.4342C122.606 72.5973 122.698 72.7656 122.794 72.9576C124.542 76.4549 125.606 78.7559 125.45 81.8592C125.444 81.9799 125.449 82.1328 125.454 82.2945C125.471 82.9051 125.496 83.7412 124.998 84.0256Z" fill="black"/>
<path d="M121.853 84.8831C121.841 84.8831 121.829 84.8827 121.817 84.8815L121.824 84.8022C121.965 84.8128 122.144 84.756 122.361 84.2353C122.562 83.753 123.269 80.6358 122.978 78.4886L123.057 78.478C123.35 80.6396 122.637 83.7798 122.434 84.2661C122.255 84.6956 122.08 84.8831 121.853 84.8831Z" fill="black"/>
<path d="M123.055 84.0061L122.981 83.976C123.425 82.8797 123.399 81.4914 123.324 80.9105L123.403 80.9004C123.479 81.4885 123.505 82.8943 123.055 84.0061Z" fill="black"/>
<path d="M124.528 82.5005L124.45 82.4829C124.669 81.5124 124.658 80.2149 124.42 78.9231L124.499 78.9087C124.738 80.2108 124.749 81.5198 124.528 82.5005Z" fill="black"/>
<path d="M123.749 84.6637L123.728 84.5867C124.04 84.5035 123.945 83.5609 123.882 82.9373C123.864 82.7627 123.849 82.6119 123.843 82.4932L123.922 82.4893C123.928 82.6059 123.944 82.7557 123.961 82.9293C124.035 83.6572 124.126 84.5631 123.749 84.6637Z" fill="black"/>
<path d="M128.814 82.4913C128.34 82.0325 127.888 80.6882 127.409 79.2647C126.971 77.9632 126.519 76.6171 126.012 75.8228L126.079 75.7798C126.591 76.5825 127.045 77.9331 127.485 79.2394C127.961 80.6532 128.41 81.9888 128.87 82.4339L128.814 82.4913Z" fill="black"/>
<path d="M126.929 81.8021L126.925 81.7447C126.898 81.3074 126.861 80.7084 126.621 80.4422L126.68 80.3887C126.939 80.6758 126.975 81.2658 127.005 81.7398L127.008 81.7971L126.929 81.8021Z" fill="black"/>
<path d="M115.488 61.6154L115.408 61.6119C115.411 61.5648 115.411 61.518 115.412 61.4707C115.414 61.1937 115.417 60.9072 115.718 60.4805L115.783 60.5266C115.497 60.9328 115.494 61.2066 115.491 61.4717C115.491 61.5197 115.49 61.5674 115.488 61.6154Z" fill="black"/>
<path d="M114.969 61.8023L114.889 61.7992L114.896 61.6145C114.932 60.6748 114.936 60.5541 115.247 60.2578L115.302 60.3156C115.015 60.5895 115.011 60.6867 114.976 61.6174L114.969 61.8023Z" fill="black"/>
<path d="M114.522 61.8306L114.443 61.829C114.446 61.6495 114.443 61.4964 114.44 61.3612C114.432 60.8942 114.427 60.6368 114.679 60.2368L114.746 60.2794C114.507 60.6593 114.512 60.9081 114.52 61.3599C114.523 61.4956 114.525 61.6495 114.522 61.8306Z" fill="black"/>
<path d="M117.34 38.929L117.291 38.8655C117.595 38.6336 118.316 38.0854 118.439 38.0059L118.483 38.0729C118.362 38.1509 117.643 38.6976 117.34 38.929Z" fill="black"/>
<path d="M117.556 39.2314L117.507 39.1684L117.815 38.9291C118.346 38.5146 118.639 38.2863 118.765 38.2666L118.777 38.3453C118.672 38.3619 118.35 38.6126 117.864 38.992L117.556 39.2314Z" fill="black"/>
<path d="M117.778 39.5716L117.732 39.5063C117.898 39.3897 118.068 39.2503 118.232 39.1153C118.453 38.9336 118.644 38.7766 118.776 38.7168L118.809 38.7895C118.686 38.8449 118.49 39.0062 118.282 39.177C118.117 39.3128 117.946 39.4532 117.778 39.5716Z" fill="black"/>
<path d="M116.626 39.0944L116.577 39.0315C116.622 38.9959 116.692 38.9273 116.765 38.8547C116.849 38.7716 116.936 38.6855 116.995 38.6416L117.043 38.7059C116.988 38.7463 116.903 38.8302 116.821 38.9114C116.746 38.9856 116.675 39.0559 116.626 39.0944Z" fill="black"/>
<path d="M127.039 87.0309C126.954 86.9355 126.973 86.6514 127.082 86.3838L127.156 86.4139C127.043 86.6914 127.05 86.9234 127.098 86.9777L127.039 87.0309Z" fill="black"/>
<path d="M127.559 86.9028C127.432 86.7737 127.622 86.2353 127.63 86.2124L127.705 86.2394C127.608 86.5124 127.566 86.7962 127.616 86.8466L127.559 86.9028Z" fill="black"/>
<path d="M128.062 86.7381C128.024 86.7203 127.994 86.685 127.977 86.6357C127.936 86.5199 127.966 86.3482 128.057 86.165L128.128 86.2006C128.048 86.3623 128.019 86.515 128.052 86.6094C128.062 86.6377 128.077 86.6572 128.095 86.6658L128.062 86.7381Z" fill="black"/>
<path d="M128.455 86.5375C128.426 86.5277 128.403 86.5072 128.389 86.4779C128.352 86.4008 128.372 86.2572 128.451 86.0391L128.526 86.0664C128.434 86.3209 128.445 86.4117 128.461 86.4434C128.467 86.4561 128.474 86.46 128.48 86.4617L128.455 86.5375Z" fill="black"/>
<path d="M122.794 39.9133C123.003 40.1872 123.219 40.1583 123.257 40.3348C123.295 40.5117 123.323 40.5242 123.364 40.5766C123.404 40.6289 123.265 40.6184 123.197 40.5902C123.129 40.5619 122.96 40.5648 122.856 40.5664C122.753 40.568 122.631 40.4466 122.708 40.4323C122.784 40.4181 122.774 40.3942 122.762 40.3404C122.751 40.2867 122.805 40.2018 122.837 40.1862C122.87 40.1706 122.847 40.1736 122.818 40.1015C122.788 40.0294 122.75 39.8543 122.794 39.9133Z" fill="black"/>
<path d="M122.921 39.6625C123.155 39.69 123.559 39.8165 123.778 40.0589C123.95 40.2495 123.809 40.199 123.722 40.2061C123.635 40.2134 123.464 40.1515 123.378 40.0432C123.293 39.935 123.038 39.7977 122.903 39.762C122.821 39.7408 122.743 39.6417 122.921 39.6625Z" fill="black"/>
<g clip-path="url(#clip1_909_274816)">
<mask id="mask0_909_274816" style="mask-type:luminance" maskUnits="userSpaceOnUse" x="0" y="0" width="75" height="50">
<path d="M75 0H0V50H75V0Z" fill="white"/>
</mask>
<g mask="url(#mask0_909_274816)">
<path d="M0 0H75V50H0V0Z" fill="#021455"/>
<path d="M75 6.00912L46.5138 25L75 43.9908V50H65.9863L37.5 31.0091L9.01367 50H0V43.9908L28.4863 25L0 6.00912V0H9.01367L37.5 18.9909L65.9863 0H75V6.00912Z" fill="white"/>
<path fill-rule="evenodd" clip-rule="evenodd" d="M31.4909 25L0 4.00594V0L37.5 24.9998L31.4909 25Z" fill="#D91C16"/>
<path fill-rule="evenodd" clip-rule="evenodd" d="M37.5 29.0062L6.00912 50.0002H0L37.5 25V29.0062Z" fill="#D91C16"/>
<path fill-rule="evenodd" clip-rule="evenodd" d="M43.5092 25.0002L75 45.994V50.0002L37.5 25L43.5092 25.0002Z" fill="#D91C16"/>
<path d="M37.5 20.9937L68.9908 0H75L37.5 24.9998V20.9937Z" fill="#D91C16"/>
<path d="M45.8333 0V16.6667H75V33.3333H45.8333V50H29.1667V33.3333H0V16.6667H29.1667V0H45.8333Z" fill="white"/>
<path d="M42.5 0V20H75V30H42.5V50H32.5V30H0V20H32.5V0H42.5Z" fill="#D91C16"/>
</g>
</g>
</g>
<defs>
<clipPath id="clip0_909_274816">
<rect width="160" height="120" fill="white"/>
</clipPath>
<clipPath id="clip1_909_274816">
<rect width="75" height="50" fill="white"/>
</clipPath>
</defs>
</svg>
