<svg width="160" height="120" viewBox="0 0 160 120" fill="none" xmlns="http://www.w3.org/2000/svg">
<path d="M0 0H160V120H0V0Z" fill="black"/>
<path d="M0 40H160V120H0V40Z" fill="#E23726"/>
<path d="M0 80H160V120H0V80Z" fill="#1E9A1C"/>
<path d="M80.0001 4.80005C79.1334 4.80005 78.8001 6.10005 78.8001 7.40005C78.8001 10.1013 79.0854 11.6913 79.687 15.0441L79.687 15.0445C79.7833 15.5807 79.8876 16.162 80.0001 16.8C80.1126 16.1618 80.2169 15.5804 80.3132 15.0441C80.9148 11.6913 81.2001 10.1013 81.2001 7.40005C81.2001 6.10005 80.8667 4.80005 80.0001 4.80005Z" fill="#E23726"/>
<path d="M104.332 37H55.6681C59.2099 26.9794 68.7666 19.8 80.0001 19.8C91.2335 19.8 100.79 26.9794 104.332 37Z" fill="#E23726"/>
<path d="M116.718 37H110.263C112.802 35.811 114.224 35.1875 116.588 34.5541C117.844 34.2176 119.186 34.2031 119.41 35.0402C119.634 35.8774 118.465 36.5358 117.209 36.8723C117.042 36.9171 116.878 36.9597 116.718 37Z" fill="#E23726"/>
<path d="M49.7375 37H43.2816C43.1218 36.9597 42.9585 36.9171 42.7911 36.8723C41.5354 36.5358 40.366 35.8774 40.5903 35.0402C40.8146 34.2031 42.1566 34.2176 43.4123 34.5541C45.7762 35.1875 47.1984 35.811 49.7375 37Z" fill="#E23726"/>
<path d="M83.556 4.9553C82.6926 4.87977 82.2473 6.14577 82.134 7.44082C81.8985 10.1318 82.0442 11.7406 82.3513 15.1332C82.4004 15.6758 82.4537 16.264 82.5101 16.9096C82.6778 16.2838 82.8324 15.7137 82.975 15.188L82.9751 15.1875C83.8666 11.9 84.2894 10.3409 84.5248 7.65C84.6381 6.35494 84.4194 5.03084 83.556 4.9553Z" fill="#E23726"/>
<path d="M87.0849 5.41989C86.2314 5.2694 85.6774 6.49176 85.4517 7.77201C84.9826 10.4323 84.9874 12.0476 84.9977 15.454C84.9994 15.9988 85.0011 16.5895 85.0011 17.2376C85.2228 16.6286 85.4265 16.0741 85.6144 15.5627L85.6145 15.5625C86.7891 12.3652 87.3461 10.8489 87.8152 8.18877C88.0409 6.90852 87.9384 5.57039 87.0849 5.41989Z" fill="#E23726"/>
<path d="M90.5599 6.19027C89.7227 5.96596 89.0643 7.13539 88.7278 8.3911C88.0287 11.0003 87.8928 12.6099 87.6061 16.0043C87.5602 16.5472 87.5105 17.1358 87.454 17.7814C87.7279 17.1941 87.9791 16.6596 88.2109 16.1665L88.211 16.1663C89.6599 13.0834 90.3469 11.6215 91.0461 9.01226C91.3825 7.75656 91.397 6.41458 90.5599 6.19027Z" fill="#E23726"/>
<path d="M93.9545 7.26059C93.1401 6.96417 92.3822 8.07177 91.9376 9.29337C91.0137 11.8317 90.738 13.4234 90.1566 16.7798C90.0636 17.3166 89.9628 17.8987 89.8502 18.5369C90.1742 17.9758 90.471 17.4652 90.7448 16.9943L90.745 16.9939C92.4571 14.0491 93.269 12.6526 94.1929 10.1142C94.6375 8.89261 94.7689 7.55701 93.9545 7.26059Z" fill="#E23726"/>
<path d="M97.2429 8.62269C96.4574 8.25642 95.6059 9.29375 95.0565 10.4719C93.9149 12.9201 93.5015 14.4817 92.6298 17.7747L92.6297 17.7751C92.4903 18.3017 92.3392 18.8725 92.1715 19.4984C92.5432 18.9675 92.8835 18.4847 93.1973 18.0393C95.1595 15.2548 96.09 13.9344 97.2317 11.4862C97.7811 10.308 98.0284 8.98896 97.2429 8.62269Z" fill="#E23726"/>
<path d="M100.4 10.2662C99.6495 9.83288 98.7108 10.792 98.0608 11.9179C96.7102 14.2573 96.1623 15.7769 95.0068 18.9814L95.0066 18.982C94.8219 19.4944 94.6216 20.0498 94.4001 20.6585C94.8167 20.162 95.1977 19.7107 95.5492 19.2944C97.7466 16.6915 98.7887 15.4572 100.139 13.1179C100.789 11.992 101.151 10.6995 100.4 10.2662Z" fill="#E23726"/>
<path d="M103.402 12.1786C102.692 11.6815 101.673 12.5552 100.928 13.6201C99.3783 15.8329 98.7 17.299 97.2697 20.3906C97.041 20.8851 96.7929 21.4211 96.5191 22.0085C96.9742 21.5533 97.3905 21.1395 97.7747 20.7576L97.7812 20.7511L97.7827 20.7497C100.199 18.3482 101.344 17.2095 102.894 14.9967C103.639 13.9318 104.112 12.6757 103.402 12.1786Z" fill="#E23726"/>
<path d="M106.226 14.3454C105.562 13.7884 104.471 14.5699 103.635 15.5658C101.899 17.6351 101.095 19.0364 99.4012 21.9916L99.4009 21.9922C99.13 22.4647 98.8363 22.9769 98.5123 23.538C98.9985 23.13 99.4436 22.7588 99.8548 22.4159L99.8552 22.4155L99.8654 22.407L99.868 22.4048L99.8783 22.3963L99.8809 22.3941C102.497 20.2124 103.737 19.1778 105.474 17.1085C106.309 16.1126 106.89 14.9025 106.226 14.3454Z" fill="#E23726"/>
<path d="M108.85 16.7501C108.237 16.1373 107.082 16.8208 106.163 17.74C104.253 19.6501 103.33 20.9761 101.385 23.7724L101.385 23.7727C101.074 24.2198 100.736 24.7046 100.365 25.2354C100.894 24.8649 101.377 24.5285 101.823 24.2182L101.828 24.2151C104.624 22.2697 105.95 21.3472 107.86 19.4371C108.779 18.5179 109.463 17.3629 108.85 16.7501Z" fill="#E23726"/>
<path d="M111.255 19.3743C110.698 18.7104 109.487 19.2907 108.492 20.1263C106.422 21.8627 105.388 23.1032 103.206 25.7193L103.206 25.7196C102.857 26.1379 102.479 26.5914 102.062 27.0878C102.623 26.7637 103.136 26.4699 103.609 26.1989C106.564 24.5046 107.965 23.7012 110.034 21.9648C111.03 21.1292 111.812 20.0382 111.255 19.3743Z" fill="#E23726"/>
<path d="M113.421 22.1981C112.924 21.4882 111.668 21.9608 110.603 22.7064C108.391 24.2558 107.252 25.4014 104.851 27.8172L104.85 27.8175L104.85 27.8181C104.466 28.2043 104.05 28.623 103.592 29.081C104.179 28.8071 104.715 28.5591 105.21 28.3303C108.301 26.9 109.767 26.2218 111.98 24.6724C113.045 23.9268 113.919 22.9081 113.421 22.1981Z" fill="#E23726"/>
<path d="M115.334 25.2C114.901 24.4495 113.608 24.8108 112.482 25.4608C110.143 26.8115 108.909 27.8535 106.306 30.051C105.889 30.4024 105.438 30.7835 104.942 31.2C105.55 30.9785 106.106 30.7782 106.618 30.5935L106.619 30.5932C109.823 29.4378 111.343 28.8899 113.682 27.5393C114.808 26.8893 115.767 25.9506 115.334 25.2Z" fill="#E23726"/>
<path d="M116.977 28.3572C116.611 27.5718 115.292 27.8191 114.114 28.3685C111.666 29.5101 110.345 30.4406 107.561 32.4028L107.56 32.4034C107.115 32.7171 106.632 33.0571 106.102 33.4286C106.728 33.261 107.298 33.1098 107.825 32.9704L107.825 32.9703C111.118 32.0986 112.68 31.6852 115.128 30.5436C116.306 29.9942 117.344 29.1427 116.977 28.3572Z" fill="#E23726"/>
<path d="M118.34 31.6456C118.043 30.8312 116.707 30.9626 115.486 31.4072C112.948 32.3311 111.551 33.143 108.606 34.8551C108.135 35.1289 107.624 35.4258 107.063 35.7499C107.698 35.6379 108.277 35.5376 108.811 35.445L108.82 35.4435C112.177 34.8621 113.768 34.5864 116.307 33.6625C117.528 33.2179 118.636 32.46 118.34 31.6456Z" fill="#E23726"/>
<path d="M41.6606 31.6456C41.3642 32.46 42.4718 33.2179 43.6934 33.6625C46.2318 34.5864 47.8234 34.8621 51.1799 35.4435L51.1815 35.4438L51.1844 35.4443C51.72 35.5371 52.3005 35.6376 52.9369 35.7499C52.3757 35.4258 51.865 35.129 51.394 34.8551C48.4491 33.143 47.0526 32.3311 44.5142 31.4072C43.2926 30.9626 41.957 30.8312 41.6606 31.6456Z" fill="#E23726"/>
<path d="M43.0227 28.3572C42.6564 29.1427 43.6938 29.9942 44.872 30.5436C47.3202 31.6852 48.8817 32.0986 52.1747 32.9703L52.1755 32.9705L52.1759 32.9706C52.7023 33.11 53.2729 33.261 53.8984 33.4286C53.3681 33.0573 52.8857 32.7174 52.4407 32.4038L52.4393 32.4028C49.6548 30.4406 48.3344 29.5101 45.8863 28.3685C44.7081 27.8191 43.389 27.5718 43.0227 28.3572Z" fill="#E23726"/>
<path d="M44.6662 25.2C44.2329 25.9506 45.1921 26.8893 46.3179 27.5393C48.6573 28.8899 50.1769 29.4378 53.3814 30.5932C53.8939 30.778 54.4495 30.9784 55.0585 31.2C54.5627 30.784 54.1119 30.4034 53.696 30.0523L53.6952 30.0516L53.6944 30.0509C51.0916 27.8535 49.8573 26.8114 47.5179 25.4608C46.3921 24.8108 45.0996 24.4495 44.6662 25.2Z" fill="#E23726"/>
<path d="M46.5787 22.1981C46.0816 22.9081 46.9553 23.9268 48.0202 24.6724C50.2329 26.2218 51.699 26.9001 54.7906 28.3304C55.2851 28.5591 55.8211 28.8072 56.4085 29.081C55.9524 28.625 55.5378 28.2078 55.1552 27.823L55.1526 27.8203L55.1498 27.8176L55.1497 27.8174C52.7483 25.4015 51.6095 24.2558 49.3968 22.7064C48.3319 21.9608 47.0758 21.4882 46.5787 22.1981Z" fill="#E23726"/>
<path d="M48.7455 19.3743C48.1884 20.0382 48.97 21.1292 49.9658 21.9648C52.0351 23.7012 53.4365 24.5046 56.3917 26.1989C56.8643 26.4699 57.3768 26.7638 57.938 27.0878C57.5217 26.5917 57.1437 26.1384 56.7949 25.7202L56.7941 25.7193C54.6124 23.1032 53.5778 21.8626 51.5085 20.1263C50.5127 19.2907 49.3025 18.7104 48.7455 19.3743Z" fill="#E23726"/>
<path d="M51.1501 16.7501C50.5373 17.3629 51.2208 18.5179 52.1401 19.4371C54.0502 21.3472 55.3762 22.2697 58.1724 24.2152L58.173 24.2156L58.1757 24.2174L58.177 24.2184C58.623 24.5286 59.1063 24.8649 59.6354 25.2354C59.2637 24.7045 58.9263 24.2196 58.6151 23.7723C56.6697 20.9761 55.7472 19.6501 53.8371 17.74C52.9179 16.8208 51.7629 16.1373 51.1501 16.7501Z" fill="#E23726"/>
<path d="M53.7743 14.3454C53.1104 14.9025 53.6907 16.1126 54.5263 17.1085C56.2627 19.1778 57.5032 20.2124 60.1192 22.3941L60.1207 22.3953L60.1214 22.3959C60.5393 22.7444 60.9922 23.1221 61.4878 23.538C61.1638 22.9768 60.87 22.4645 60.5991 21.9919L60.5989 21.9916C58.9046 19.0365 58.1012 17.6351 56.3648 15.5658C55.5292 14.5699 54.4382 13.7884 53.7743 14.3454Z" fill="#E23726"/>
<path d="M56.5982 12.1786C55.8882 12.6757 56.3608 13.9318 57.1065 14.9967C58.6559 17.2095 59.8015 18.3483 62.2175 20.7497L62.2176 20.7499L62.2198 20.752C62.6056 21.1355 63.0237 21.5511 63.4811 22.0085C63.2072 21.4211 62.9591 20.885 62.7304 20.3905C61.3001 17.2989 60.6218 15.8329 59.0724 13.6201C58.3268 12.5553 57.3081 11.6815 56.5982 12.1786Z" fill="#E23726"/>
<path d="M59.6001 10.2662C58.8495 10.6995 59.2108 11.992 59.8608 13.1179C61.2115 15.4573 62.2535 16.6915 64.451 19.2944C64.8025 19.7107 65.1835 20.1621 65.6001 20.6585C65.3784 20.0495 65.178 19.4938 64.9932 18.9813C63.8378 15.7768 63.2899 14.2572 61.9393 11.9179C61.2893 10.792 60.3506 9.83288 59.6001 10.2662Z" fill="#E23726"/>
<path d="M62.7572 8.62269C61.9718 8.98896 62.2191 10.308 62.7685 11.4862C63.9101 13.9344 64.8406 15.2548 66.8028 18.0393L66.803 18.0395C67.1168 18.4848 67.457 18.9676 67.8287 19.4984C67.661 18.8728 67.51 18.3022 67.3706 17.7758L67.3703 17.7746C66.4986 14.4817 66.0852 12.9201 64.9436 10.4719C64.3942 9.29375 63.5427 8.25642 62.7572 8.62269Z" fill="#E23726"/>
<path d="M66.0457 7.26059C65.2313 7.55701 65.3626 8.89261 65.8073 10.1142C66.7312 12.6526 67.543 14.0491 69.2551 16.994L69.2557 16.995C69.5294 17.4657 69.8261 17.976 70.1499 18.5369C70.0373 17.8986 69.9365 17.3166 69.8435 16.7797C69.2621 13.4233 68.9864 11.8317 68.0625 9.29337C67.6179 8.07177 66.8601 6.96417 66.0457 7.26059Z" fill="#E23726"/>
<path d="M69.4403 6.19027C68.6031 6.41458 68.6176 7.75656 68.9541 9.01226C69.6532 11.6215 70.3403 13.0835 71.7892 16.1664L71.7899 16.1679L71.7909 16.1699L71.7911 16.1705C72.0223 16.6624 72.2729 17.1956 72.5461 17.7814C72.4896 17.1357 72.4399 16.5471 72.394 16.0042C72.1074 12.6099 71.9714 11.0003 71.2723 8.3911C70.9358 7.13539 70.2774 5.96596 69.4403 6.19027Z" fill="#E23726"/>
<path d="M72.9152 5.41989C72.0617 5.57039 71.9592 6.90852 72.1849 8.18877C72.654 10.849 73.2111 12.3653 74.3858 15.5627C74.5737 16.0741 74.7773 16.6286 74.999 17.2376C74.999 16.5895 75.0008 15.9988 75.0024 15.454C75.0127 12.0476 75.0175 10.4322 74.5485 7.77201C74.3227 6.49176 73.7687 5.2694 72.9152 5.41989Z" fill="#E23726"/>
<path d="M76.4441 4.9553C75.5807 5.03084 75.362 6.35494 75.4753 7.65C75.7107 10.341 76.1335 11.9 77.0251 15.1877C77.1677 15.7136 77.3222 16.2836 77.49 16.9096C77.5464 16.2643 77.5997 15.6763 77.6488 15.1338L77.6488 15.1331C77.956 11.7406 78.1016 10.1318 77.8662 7.44082C77.7529 6.14577 77.3075 4.87977 76.4441 4.9553Z" fill="#E23726"/>
</svg>
