<svg width="160" height="120" viewBox="0 0 160 120" fill="none" xmlns="http://www.w3.org/2000/svg">
<path d="M0 120V0H160L0 120Z" fill="#0F3296"/>
<path d="M160 0V120H0L160 0Z" fill="#1E9A1C"/>
<path d="M127.951 0H160V24.037L32.0494 120H0V95.963L127.951 0Z" fill="white"/>
<path d="M135.963 0H160V18.0278L24.037 120H0V101.972L135.963 0Z" fill="#E23726"/>
<path d="M34.1043 21.0874L31 12.682L27.8957 21.0874C28.8859 20.823 29.9265 20.682 31 20.682C32.0735 20.682 33.1141 20.823 34.1043 21.0874Z" fill="#FDD406"/>
<path d="M34.1098 21.0889C36.1742 21.6412 38.0192 22.7304 39.4861 24.1975L41 15.362L34.1098 21.0889Z" fill="#FDD406"/>
<path d="M39.4865 24.1979C40.9534 25.6653 42.0422 27.5107 42.594 29.5756L48.32 22.682L39.4865 24.1979Z" fill="#FDD406"/>
<path d="M42.595 29.5791C42.8592 30.5689 43 31.609 43 32.682C43 33.7558 42.859 34.7967 42.5944 35.7871L51 32.682L42.595 29.5791Z" fill="#FDD406"/>
<path d="M42.5936 35.79C41.4894 39.9195 38.2375 43.1714 34.108 44.2756L41 50.004L39.486 41.168L48.32 42.682L42.5936 35.79Z" fill="#FDD406"/>
<path d="M34.1051 44.2764C33.1147 44.541 32.0738 44.682 31 44.682C29.9262 44.682 28.8853 44.541 27.8949 44.2764L31 52.682L34.1051 44.2764Z" fill="#FDD406"/>
<path d="M27.892 44.2756C23.7625 43.1714 20.5106 39.9195 19.4064 35.79L13.68 42.682L22.514 41.168L21 50.004L27.892 44.2756Z" fill="#FDD406"/>
<path d="M19.4056 35.7871C19.141 34.7967 19 33.7558 19 32.682C19 31.609 19.1408 30.5689 19.405 29.5791L11 32.682L19.4056 35.7871Z" fill="#FDD406"/>
<path d="M19.406 29.5756C19.9578 27.5107 21.0466 25.6653 22.5135 24.1979L13.68 22.682L19.406 29.5756Z" fill="#FDD406"/>
<path d="M22.5139 24.1975L21 15.362L27.8902 21.0889C25.8258 21.6412 23.9808 22.7304 22.5139 24.1975Z" fill="#FDD406"/>
<path d="M21 32.682C21 27.1592 25.4772 22.682 31 22.682C36.5228 22.682 41 27.1592 41 32.682C41 38.2049 36.5228 42.682 31 42.682C25.4772 42.682 21 38.2049 21 32.682Z" fill="#FDD406"/>
</svg>
