<svg width="160" height="120" viewBox="0 0 160 120" fill="none" xmlns="http://www.w3.org/2000/svg">
<g clip-path="url(#clip0_324_33709)">
<path d="M0 0H160V120H0V0Z" fill="#FDD406"/>
<g clip-path="url(#clip1_324_33709)">
<path d="M0 0H80V60H0V0Z" fill="#021455"/>
<path d="M80 7.49951L49.9995 30L80 52.5V60H70.0005L40 37.4995L9.99951 60H0V52.5L30 30L0 7.49951V0H10L40 22.5L70 0H80V7.49951Z" fill="white"/>
<path d="M40 35L6.66699 60H0L40 30V35Z" fill="#D91C16"/>
<path d="M80 54.9995V60L40 30H46.6665L80 54.9995Z" fill="#D91C16"/>
<path d="M40 30H33.333L0 5V0L40 30Z" fill="#D91C16"/>
<path d="M80 0L40 30V24.9995L73.333 0H80Z" fill="#D91C16"/>
<path d="M50 0V20H80V40H50V60H30V40H0V20H30V0H50Z" fill="white"/>
<path d="M46 0V24H80V36H46V60H34V36H0V24H34V0H46Z" fill="#D91C16"/>
</g>
<path fill-rule="evenodd" clip-rule="evenodd" d="M15.0003 24.5801L16.3474 28.726H20.7066L17.1799 31.2883L18.527 35.4342L15.0003 32.8719L11.4736 35.4342L12.8207 31.2883L9.29395 28.726H13.6532L15.0003 24.5801Z" fill="#FDD406"/>
<path fill-rule="evenodd" clip-rule="evenodd" d="M40.0003 44.5801L41.3474 48.726H45.7066L42.1799 51.2883L43.527 55.4342L40.0003 52.8719L36.4736 55.4342L37.8207 51.2883L34.2939 48.726H38.6532L40.0003 44.5801Z" fill="#FDD406"/>
<path fill-rule="evenodd" clip-rule="evenodd" d="M66.3474 28.726L65.0003 24.5801L63.6532 28.726H59.2939L62.8207 31.2883L61.4736 35.4342L65.0003 32.8719L68.527 35.4342L67.1799 31.2883L70.7066 28.726H66.3474Z" fill="#FDD406"/>
<path fill-rule="evenodd" clip-rule="evenodd" d="M40.0003 4.58008L41.3474 8.72598H45.7066L42.1799 11.2883L43.527 15.4342L40.0003 12.8719L36.4736 15.4342L37.8207 11.2883L34.2939 8.72598H38.6532L40.0003 4.58008Z" fill="#FDD406"/>
<path d="M39.9998 40.2079C45.6374 40.2079 50.2076 35.6377 50.2076 30C50.2076 24.3624 45.6374 19.7922 39.9998 19.7922C34.3622 19.7922 29.792 24.3624 29.792 30C29.792 35.6377 34.3622 40.2079 39.9998 40.2079Z" fill="#021455"/>
<path fill-rule="evenodd" clip-rule="evenodd" d="M39.9992 19.792L42.291 26.8454H49.7074L43.7074 31.2047L45.9992 38.2581L39.9992 33.8988L33.9992 38.2581L36.291 31.2047L30.291 26.8454H37.7074L39.9992 19.792Z" fill="#FDD406"/>
</g>
<defs>
<clipPath id="clip0_324_33709">
<rect width="160" height="120" fill="white"/>
</clipPath>
<clipPath id="clip1_324_33709">
<rect width="80" height="60" fill="white"/>
</clipPath>
</defs>
</svg>
