<svg width="160" height="120" viewBox="0 0 160 120" fill="none" xmlns="http://www.w3.org/2000/svg">
<path d="M0 0H160V120H0V0Z" fill="#FDD406"/>
<path d="M80 0H0V50H80V0Z" fill="#021455"/>
<path d="M0 5.59018L31.0557 25L0 44.4098V50H8.94426L40 30.5902L71.0557 50H80V44.4098L48.9443 25L80 5.59016V0H71.0557L40 19.4098L8.94426 0H0V5.59018Z" fill="white"/>
<path d="M0 3.72678L34.0371 25H40L0 50H5.96284L40 28.7268L40 25L80 50V46.2732L45.9628 25H40L80 0H74.0371L40 21.2732L40 25L0 0V3.72678Z" fill="#E23726"/>
<path d="M0 16.6667V33.3333H33.3333V50H46.6667V33.3333H80V16.6667H46.6667V0H33.3333V16.6667H0Z" fill="white"/>
<path d="M0 20V30H36V50H44V30H80V20H44V0H36V20H0Z" fill="#E23726"/>
<path d="M39.922 33.5064C44.6201 33.5064 48.4285 29.6979 48.4285 24.9999C48.4285 20.3019 44.6201 16.4934 39.922 16.4934C35.224 16.4934 31.4155 20.3019 31.4155 24.9999C31.4155 29.6979 35.224 33.5064 39.922 33.5064Z" fill="#021455"/>
<path d="M39.9217 16.4934L44.9217 31.8818L31.8315 22.3713H48.0119L34.9217 31.8818" fill="#FDD406"/>
<path d="M10.7553 20.4833L13.6942 29.5284L6 23.9382H15.5106L7.81636 29.5284" fill="#FDD406"/>
<path d="M69.0888 20.4833L72.0277 29.5284L64.3335 23.9382H73.8441L66.1499 29.5284" fill="#FDD406"/>
<path d="M39.9218 37.15L42.8607 46.1951L35.1665 40.6049H44.6771L36.9829 46.1951" fill="#FDD406"/>
<path d="M39.9218 3.81665L42.8607 12.8617L35.1665 7.27156H44.6771L36.9829 12.8617" fill="#FDD406"/>
</svg>
