<svg width="160" height="120" viewBox="0 0 160 120" fill="none" xmlns="http://www.w3.org/2000/svg">
<g clip-path="url(#clip0_324_33709)">
<path d="M0 0H160V120H0V0Z" fill="#FDD406"/>
<g clip-path="url(#clip1_324_33709)">
<mask id="mask0_324_33709" style="mask-type:luminance" maskUnits="userSpaceOnUse" x="0" y="0" width="75" height="50">
<path d="M75 0H0V50H75V0Z" fill="white"/>
</mask>
<g mask="url(#mask0_324_33709)">
<path d="M0 0H75V50H0V0Z" fill="#021455"/>
<path d="M75 6.00912L46.5138 25L75 43.9908V50H65.9863L37.5 31.0091L9.01367 50H0V43.9908L28.4863 25L0 6.00912V0H9.01367L37.5 18.9909L65.9863 0H75V6.00912Z" fill="white"/>
<path fill-rule="evenodd" clip-rule="evenodd" d="M31.4909 25L0 4.00594V0L37.5 24.9998L31.4909 25Z" fill="#D91C16"/>
<path fill-rule="evenodd" clip-rule="evenodd" d="M37.5 29.0059L6.00912 50H0L37.5 24.9998V29.0059Z" fill="#D91C16"/>
<path fill-rule="evenodd" clip-rule="evenodd" d="M43.5092 25L75 45.9937V50L37.5 24.9998L43.5092 25Z" fill="#D91C16"/>
<path d="M37.5 20.9937L68.9908 0H75L37.5 24.9998V20.9937Z" fill="#D91C16"/>
<path d="M45.8333 0V16.6667H75V33.3333H45.8333V50H29.1667V33.3333H0V16.6667H29.1667V0H45.8333Z" fill="white"/>
<path d="M42.5 0V20H75V30H42.5V50H32.5V30H0V20H32.5V0H42.5Z" fill="#D91C16"/>
</g>
</g>
<path fill-rule="evenodd" clip-rule="evenodd" d="M13.6447 20.5801L14.7555 23.9987H18.35L15.442 26.1115L16.5528 29.5301L13.6447 27.4173L10.7367 29.5301L11.8475 26.1115L8.93945 23.9987H12.534L13.6447 20.5801Z" fill="#FEDD00"/>
<path fill-rule="evenodd" clip-rule="evenodd" d="M37.498 38.1299L38.6087 41.5483H42.203L39.2951 43.6609L40.4058 47.0793L37.498 44.9666L34.5901 47.0793L35.7008 43.6609L32.793 41.5483H36.3873L37.498 38.1299Z" fill="#FEDD00"/>
<path fill-rule="evenodd" clip-rule="evenodd" d="M62.4656 23.9987L61.3548 20.5801L60.2441 23.9987H56.6495L59.5576 26.1115L58.4468 29.5301L61.3548 27.4173L64.2629 29.5301L63.1521 26.1115L66.0601 23.9987H62.4656Z" fill="#FEDD00"/>
<path fill-rule="evenodd" clip-rule="evenodd" d="M37.498 2.91992L38.6087 6.3383H42.203L39.2951 8.45098L40.4058 11.8694L37.498 9.75669L34.5901 11.8694L35.7008 8.45098L32.793 6.3383H36.3873L37.498 2.91992Z" fill="#FEDD00"/>
<path d="M37.4983 35.2079C43.136 35.2079 47.7061 30.6377 47.7061 25C47.7061 19.3624 43.136 14.7922 37.4983 14.7922C31.8607 14.7922 27.2905 19.3624 27.2905 25C27.2905 30.6377 31.8607 35.2079 37.4983 35.2079Z" fill="#012169"/>
<path fill-rule="evenodd" clip-rule="evenodd" d="M37.4978 14.792L39.7895 21.8454H47.206L41.206 26.2047L43.4978 33.2581L37.4978 28.8988L31.4978 33.2581L33.7896 26.2047L27.7896 21.8454H35.206L37.4978 14.792Z" fill="#FEDD00"/>
</g>
<defs>
<clipPath id="clip0_324_33709">
<rect width="160" height="120" fill="white"/>
</clipPath>
<clipPath id="clip1_324_33709">
<rect width="75" height="50" fill="white"/>
</clipPath>
</defs>
</svg>
