<svg width="160" height="120" viewBox="0 0 160 120" fill="none" xmlns="http://www.w3.org/2000/svg">
<g clip-path="url(#clip0_307_62452)">
<path d="M160 0H0V120H160V0Z" fill="#021455"/>
<path d="M122.477 14.4527L124.621 21.0497H131.557L125.946 25.1268L128.089 31.7239L122.477 27.6467L116.866 31.7239L119.009 25.1268L113.397 21.0497H120.334L122.477 14.4527Z" fill="white"/>
<path d="M151.237 51.5331L149.33 45.6626L154.324 42.0344H148.151L146.244 36.164L144.336 42.0344L138.164 42.0344L143.157 45.6626L141.25 51.5331L146.244 47.9049L151.237 51.5331Z" fill="white"/>
<path d="M94.7499 42.3495L96.8934 48.9465H103.83L98.2183 53.0236L100.362 59.6207L94.75 55.5435L89.1382 59.6207L91.2817 53.0237L85.67 48.9465H92.6064L94.7499 42.3495Z" fill="white"/>
<path d="M122.477 85.4012L124.857 92.7248H132.557L126.328 97.2509L128.707 104.575L122.477 100.048L116.248 104.575L118.627 97.2509L112.397 92.7248H120.098L122.477 85.4012Z" fill="white"/>
<path d="M122.477 17.6912L123.894 22.0504L128.477 22.0504L124.769 24.7446L126.186 29.1039L122.478 26.4097L118.769 29.1039L120.186 24.7446L116.478 22.0504H121.061L122.477 17.6912Z" fill="#D91C16"/>
<path d="M146.244 39.4025L147.424 43.0352H151.244L148.154 45.2803L149.334 48.9131L146.244 46.6679L143.154 48.9131L144.334 45.2803L141.244 43.0352H145.064L146.244 39.4025Z" fill="#D91C16"/>
<path d="M100.75 49.9473L97.0418 52.6414L98.4582 57.0007L94.75 54.3065L91.0417 57.0007L92.4582 52.6414L88.75 49.9473H93.3335L94.7499 45.588L96.1663 49.9473H100.75Z" fill="#D91C16"/>
<path d="M122.477 88.6397L124.13 93.7255H129.477L125.151 96.8687L126.804 101.955L122.477 98.8113L118.151 101.955L119.804 96.8687L115.478 93.7255H120.825L122.477 88.6397Z" fill="#D91C16"/>
<g clip-path="url(#clip1_307_62452)">
<path d="M0 0H80V60H0V0Z" fill="#021455"/>
<path d="M80 7.49951L49.9995 30L80 52.5V60H70.0005L40 37.4995L9.99951 60H0V52.5L30 30L0 7.49951V0H10L40 22.5L70 0H80V7.49951Z" fill="white"/>
<path d="M40 35L6.66699 60H0L40 30V35Z" fill="#D91C16"/>
<path d="M80 54.9995V60L40 30H46.6665L80 54.9995Z" fill="#D91C16"/>
<path d="M40 30H33.333L0 5V0L40 30Z" fill="#D91C16"/>
<path d="M80 0L40 30V24.9995L73.333 0H80Z" fill="#D91C16"/>
<path d="M50 0V20H80V40H50V60H30V40H0V20H30V0H50Z" fill="white"/>
<path d="M46 0V24H80V36H46V60H34V36H0V24H34V0H46Z" fill="#D91C16"/>
</g>
</g>
<defs>
<clipPath id="clip0_307_62452">
<rect width="160" height="120" fill="white"/>
</clipPath>
<clipPath id="clip1_307_62452">
<rect width="80" height="60" fill="white"/>
</clipPath>
</defs>
</svg>
