<svg width="160" height="120" viewBox="0 0 160 120" fill="none" xmlns="http://www.w3.org/2000/svg">
<g clip-path="url(#clip0_307_64139)">
<path d="M0 0H160V120H0V0Z" fill="black"/>
<path d="M0 0H160V120L0 0Z" fill="#D91C16"/>
<path d="M99.0593 34.8653C97.8776 36.3917 95.0812 33.33 91.7312 33.2601C88.3812 33.1901 86.0081 36.4704 85.0312 37.5872C84.0542 38.704 80.9136 44.5663 80.9833 45.1944C81.053 45.8226 82.9376 43.4497 83.6355 43.031C83.7052 43.8685 82.8677 44.8456 83.0771 45.1247C83.2864 45.4038 85.5196 43.4497 86.2874 43.38C86.4968 43.9384 85.8687 44.4966 86.078 45.3341C86.3574 45.6132 87.6136 43.9382 88.4511 43.5894C88.5905 44.2175 87.6833 45.404 88.1718 46.1716C88.5208 46.2413 90.6144 43.7987 91.3124 43.5194C92.0105 43.2401 90.9634 45.8226 91.3124 46.0319C91.9405 45.6132 93.8948 43.3798 94.523 43.1007C95.1511 42.8216 94.4532 45.9622 94.7323 45.9622C95.4999 45.4038 97.4542 42.7519 97.6636 42.3331C97.873 41.9144 97.4542 46.381 99.6177 48.754C101.781 51.1271 105.062 53.8487 105.41 53.8487C105.829 53.081 105.271 51.4759 105.62 51.5456C106.597 52.5925 108.411 54.1278 108.83 54.1278C109.249 54.1278 108.551 52.4528 109.109 52.4528C110.226 53.4997 113.436 57.6175 119.718 59.5019C119.299 58.3153 118.392 57.2685 118.322 56.7103C118.741 56.78 120.206 57.478 120.485 57.4081C120.765 57.3382 117.415 53.2206 117.624 52.6622C118.392 52.5925 118.741 53.081 119.02 52.7319C118.671 52.1737 115.74 48.8935 115.74 48.1257C115.74 47.3579 116.647 48.2653 116.926 48.1257C117.205 47.986 115.809 45.0548 116.089 44.706C116.368 44.3571 119.438 46.5903 120.206 46.5903C120.974 46.5903 120.416 43.8685 120.765 43.7288C121.114 43.5892 123.696 45.1944 124.254 45.1944C124.812 45.1944 124.743 44.0079 124.952 44.1476C125.161 44.2872 131.233 50.3591 129.14 57.4778C127.046 62.5728 122.859 65.2946 116.717 63.0612C117.066 63.6196 120.346 66.3415 123.905 65.3644C127.465 64.3872 131.792 61.5956 131.303 54.6165C130.815 47.6374 128.511 46.6603 128.162 45.6134C127.814 44.5665 128.721 45.8925 129.489 46.1718C130.256 46.4511 129.349 44.706 129.14 43.9382C128.93 43.1704 131.443 45.5435 132.071 45.7528C132.699 45.9622 130.605 40.03 129.977 39.6112C129.349 39.1925 130.605 39.7507 131.024 39.8903C131.443 40.03 127.185 33.3997 126.278 33.3997C125.371 33.3997 127.046 33.0507 127.534 33.0507C128.023 33.0507 122.649 28.7235 121.742 28.7235C120.834 28.7235 123.696 27.6067 123.975 27.537C124.464 27.6067 117.764 23.9776 111.761 27.6067C111.412 27.3278 114.588 25.1294 114.693 24.1872C114.728 23.9429 113.646 23.4194 113.576 23.1403C113.506 22.8612 115.251 22.0237 115.321 21.3956C114.902 20.8372 114.134 21.0466 113.716 20.9071C113.611 20.3837 115.181 19.0925 115.042 18.5343C114.937 18.2202 113.785 18.1155 113.506 18.3249C113.227 18.5343 114.239 16.8593 114.065 16.3708C113.925 16.1615 113.367 16.3011 112.808 16.4405C112.459 16.3708 114.623 13.3696 114.204 12.9509C113.785 12.5321 107.923 16.0216 105.759 19.93C103.596 23.8384 105.271 26.979 104.992 28.305C104.712 29.631 104.363 30.9571 103.456 30.9571C102.549 30.9571 100.455 29.5612 99.7573 28.8634C99.0593 28.1655 98.9198 27.6769 97.9427 27.3978C96.9655 27.1187 94.7323 27.9562 93.8948 28.0259C93.0574 28.0956 89.7771 27.3978 89.5677 27.6071C89.3583 27.8165 92.778 29.0728 93.5458 29.4915C94.3136 29.9103 94.3835 30.4687 94.9417 30.8175C95.4999 31.1663 100.734 32.7019 99.0593 34.8653ZM119.508 44.706C121.183 46.381 132.49 53.9185 132.49 63.131C132.49 72.3435 124.254 72.0646 121.881 71.7853C124.533 74.0185 134.583 73.5997 134.583 63.131C134.583 53.9185 121.602 44.706 119.927 43.8685C118.252 43.031 117.833 43.031 119.508 44.706Z" fill="#FDD406"/>
<path d="M40 36.8L41.8809 42.2111L47.6084 42.3279L43.0433 45.7888L44.7022 51.2721L40 48L35.2977 51.2721L36.9566 45.7888L32.3915 42.3279L38.119 42.2111L40 36.8Z" fill="white"/>
<path d="M22.4 60.8L24.2809 66.2111L30.0084 66.3279L25.4433 69.7888L27.1022 75.2721L22.4 72L17.6977 75.2721L19.3566 69.7888L14.7915 66.3279L20.519 66.2111L22.4 60.8Z" fill="white"/>
<path d="M40 92.8L41.8809 98.2111L47.6084 98.3279L43.0433 101.789L44.7022 107.272L40 104L35.2977 107.272L36.9566 101.789L32.3915 98.3279L38.119 98.2111L40 92.8Z" fill="white"/>
<path d="M56 59.2L57.8809 64.6111L63.6084 64.7279L59.0433 68.1888L60.7022 73.6721L56 70.4L51.2977 73.6721L52.9566 68.1888L48.3915 64.7279L54.119 64.6111L56 59.2Z" fill="white"/>
<path d="M48 79.2L48.9404 81.9056L51.8042 81.9639L49.5216 83.6944L50.3511 86.4361L48 84.8L45.6488 86.4361L46.4783 83.6944L44.1957 81.9639L47.0595 81.9056L48 79.2Z" fill="white"/>
</g>
<defs>
<clipPath id="clip0_307_64139">
<rect width="160" height="120" fill="white"/>
</clipPath>
</defs>
</svg>
