<svg width="160" height="120" viewBox="0 0 160 120" fill="none" xmlns="http://www.w3.org/2000/svg">
<g clip-path="url(#clip0_307_64152)">
<path d="M160 0H0V120H160V0Z" fill="white"/>
<path d="M160 0H40V120H160V0Z" fill="#005801"/>
<path d="M132.626 76.4849C133.197 75.9774 133.746 75.4545 134.274 74.9174C128.603 87.3549 116.061 96 101.5 96C81.6177 96 65.5 79.8822 65.5 60C65.5 43.9431 76.0122 30.3415 90.5299 25.702C89.934 26.1632 89.3496 26.6478 88.778 27.1559C75.1562 39.2642 73.9292 60.1226 86.0375 73.7444C98.1458 87.3662 119.004 88.5932 132.626 76.4849Z" fill="white"/>
<path d="M120.419 39.578L114.627 33.0617L115.483 41.7381L107.496 45.2332L116.012 47.1004L116.868 55.7768L121.275 48.2544L129.792 50.1216L123.999 43.6053L128.407 36.0829L120.419 39.578Z" fill="white"/>
</g>
<defs>
<clipPath id="clip0_307_64152">
<rect width="160" height="120" fill="white"/>
</clipPath>
</defs>
</svg>
