<svg width="160" height="120" viewBox="0 0 160 120" fill="none" xmlns="http://www.w3.org/2000/svg">
<path d="M0 0H160V120H0V0Z" fill="#FDD406"/>
<path d="M0 0H160V60H0V0Z" fill="#54AEF2"/>
<path d="M0 90H160V120H0V90Z" fill="#1E9A1C"/>
<path d="M120.337 12L121.12 25.4354L125.354 12.66L122.633 25.8415L130.029 14.5973L123.99 26.625L134.043 17.6781L125.096 27.7315L137.124 21.6923L125.88 29.0885L139.061 26.3677L126.286 30.6012L139.721 31.3846L126.286 32.1681L139.061 36.4015L125.88 33.6808L137.124 41.0769L125.096 35.0377L134.043 45.0912L123.99 36.1442L130.029 48.1719L122.633 36.9277L125.354 50.1092L121.12 37.3338L120.337 50.7692L119.553 37.3338L115.32 50.1092L118.041 36.9277L110.644 48.1719L116.684 36.1442L106.63 45.0912L115.577 35.0377L103.549 41.0769L114.794 33.6808L101.612 36.4015L114.388 32.1681L100.952 31.3846L114.388 30.6012L101.612 26.3677L114.794 29.0885L103.549 21.6923L115.577 27.7315L106.63 17.6781L116.684 26.625L110.644 14.5973L118.041 25.8415L115.32 12.66L119.553 25.4354L120.337 12Z" fill="#FDD406"/>
<path fill-rule="evenodd" clip-rule="evenodd" d="M120.337 26.077C117.406 26.077 115.029 28.4533 115.029 31.3846C115.029 34.316 117.406 36.6923 120.337 36.6923C123.268 36.6923 125.645 34.316 125.645 31.3846C125.645 28.4533 123.268 26.077 120.337 26.077ZM114.337 31.3846C114.337 28.0709 117.023 25.3846 120.337 25.3846C123.651 25.3846 126.337 28.0709 126.337 31.3846C126.337 34.6984 123.651 37.3846 120.337 37.3846C117.023 37.3846 114.337 34.6984 114.337 31.3846Z" fill="#54AEF2"/>
</svg>
