<svg width="160" height="120" viewBox="0 0 160 120" fill="none" xmlns="http://www.w3.org/2000/svg">
<path d="M0 120H160V0H0V120Z" fill="#005801"/>
<path d="M125 47.6647C124.988 45.5567 124.17 39.8785 123.962 37.9736C123.755 36.0688 123.546 34.3406 123.597 33.936C123.646 33.5455 124.247 34.4789 124.565 34.5544C124.729 34.5214 124.656 33.9319 124.357 33.4285C124.155 33.0866 123.466 31.8082 123.048 31.0591C122.851 30.7046 122.807 30.499 122.713 30.4554C122.618 30.4118 121.857 31.947 121.941 32.1172C122.148 32.4292 122.291 32.5781 122.323 33.1291C122.356 33.6802 122.641 37.6145 123.004 40.5967C123.277 42.8465 123.877 47.6935 123.899 50.7071C123.905 51.6902 123.796 52.6272 123.665 53.0187C123.329 53.6336 122.804 54.1882 120.849 55.3318C118.652 56.6178 115.721 57.688 114.461 58.4041C113.677 58.8508 113.937 58.9106 114.619 58.7151C115.3 58.5196 118.818 57.8931 120.527 57.1708C122.131 56.4911 123.173 55.3541 123.963 53.6954C124.939 51.6446 125.014 49.9043 125 47.6647Z" fill="white"/>
<path d="M118.198 31.6521C118.368 31.5863 119.774 31.5139 120.152 31.5919C119.904 31.9474 118.217 32.7345 118.21 32.8788C118.256 32.9761 119.375 32.699 119.728 32.5451C119.958 32.4063 120.112 32.1915 120.283 32.0133C120.686 31.5493 121.165 30.6888 121.044 30.5809C120.849 30.4067 118.932 30.5151 118.679 30.551C118.51 30.5754 118.08 31.3452 118.002 31.5427C117.924 31.7403 118.028 31.718 118.198 31.6521Z" fill="white"/>
<path d="M121.07 44.1464C121.363 43.1537 121.436 41.9493 121.037 40.6815C120.627 39.3763 119.609 38.5807 118.875 38.1729L118.744 39.4295C118.744 39.4295 119.773 39.9411 120.477 41.2291C120.923 42.046 121.109 43.2013 120.757 44.4893C120.698 44.8089 120.927 44.6326 121.07 44.1464Z" fill="white"/>
<path d="M110.18 50.448C110.444 49.554 110.509 48.4696 110.151 47.328C109.781 46.1525 108.865 45.4358 108.204 45.0701L108.085 46.2011C108.085 46.2011 109.012 46.662 109.646 47.8208C110.048 48.5557 110.215 49.5976 109.899 50.7569C109.846 51.0436 110.052 50.8856 110.18 50.448Z" fill="white"/>
<path d="M72.3727 33.3382C72.7968 34.1136 72.9726 35.2116 72.639 36.4348C72.5831 36.7382 72.7989 36.5715 72.9364 36.1096C73.2136 35.1676 73.2827 34.0229 72.9036 32.818C72.5141 31.5776 71.5472 30.8225 70.8498 30.436L70.7266 31.6293C70.7266 31.6293 71.7044 32.115 72.3727 33.3382Z" fill="white"/>
<path d="M46.8501 33.7394C47.2062 34.5741 47.2303 35.701 46.6551 36.8882C46.5434 37.1866 46.8156 37.0452 47.0441 36.599C47.5108 35.6869 47.7727 34.5452 47.536 33.2841C47.2933 31.9875 46.3193 31.1037 45.5902 30.6251L45.2593 31.8097C45.2593 31.8097 46.2886 32.4236 46.8501 33.7394Z" fill="white"/>
<path d="M53.9055 52.3965C54.358 51.5567 54.5464 50.9915 54.7475 49.9967C54.9233 49.1215 54.9348 48.1106 54.8713 47.0814C56.2255 46.5294 57.8394 45.6131 58.3817 45.5458C58.0108 46.8191 58.8961 48.1932 60.6842 48.0139C60.8211 49.4538 60.9383 50.7185 61.0096 51.4686C61.1553 53.0063 61.1334 54.9441 61.129 55.2809C61.123 55.6192 61.3678 55.5554 61.6193 54.8017C61.9545 53.7928 62.0581 51.1581 61.9365 49.4158C61.9074 48.9802 61.8581 48.3922 61.7984 47.7221C62.9576 47.1858 63.1504 46.1505 63.5837 45.7094C63.9749 47.0794 66.1278 47.2653 66.7923 46.972C67.6162 46.6079 67.8863 45.953 68.0983 44.433C68.3108 42.9136 67.6918 42.3018 67.4705 42.1361C67.4486 42.32 66.9095 44.1059 66.9095 44.1059C66.9095 44.1059 67.4206 44.6458 67.4464 44.9112C67.03 45.288 66.1519 45.3113 65.4145 45.0712C64.6766 44.8311 64.4504 44.3895 64.4942 44.0932C64.5369 43.7959 64.8147 43.5254 64.824 43.1633C64.8322 42.8012 64.6586 42.906 64.3633 43.2266C64.068 43.5477 63.8774 43.8364 63.4687 44.5257C63.1345 45.0894 62.5922 45.7772 61.6357 45.9738C61.4779 44.3186 61.2977 42.5575 61.1772 41.4514C61.1142 40.8674 60.4847 35.8208 60.4398 35.2561C60.4009 34.7643 60.3281 34.1844 60.3401 33.9119C60.3522 33.6951 60.488 33.7812 60.6984 34.0081C60.9093 34.2345 61.278 34.6296 61.3415 34.5987C61.5563 34.4933 61.3366 33.8374 61.0556 33.2499C60.7751 32.6609 59.8175 30.3371 59.6165 30.2414C59.5129 30.1928 58.8665 31.6231 58.8282 31.9047C58.9284 32.0809 59.1903 32.358 59.1996 33.1461C59.2029 33.3659 59.3442 35.4384 59.5403 37.398C59.7118 39.1286 59.9391 40.7707 59.961 40.9616C60.1172 42.2825 60.3067 44.1443 60.4869 45.9748C59.4488 45.7772 59.1727 45.0925 59.1957 44.702C59.222 44.2613 59.4209 43.764 59.3256 43.6515C59.1256 43.5315 57.9358 44.1965 56.2764 44.9112C55.8097 45.1117 55.2838 45.327 54.7289 45.5311C54.5842 44.2836 54.3936 43.0974 54.3169 42.1903L54.3076 42.0895C55.3988 42.0191 56.2923 41.4681 56.6988 40.9434C57.2066 40.2875 57.5616 38.9377 57.5961 37.9035C57.6306 36.8682 56.7952 34.9755 56.5964 34.3738C56.3959 33.7716 56.2923 33.3542 56.2748 33.1461C56.2567 32.9379 56.7262 33.3872 57.0215 33.4753C57.2214 33.5153 57.1524 33.0823 56.9081 32.785C56.6654 32.4887 55.3528 30.4967 55.2608 30.6365C55.2044 30.7185 54.6785 32.1838 54.6439 32.4081C54.851 32.5449 55.0932 32.9217 55.1101 33.2828C55.1277 33.6439 55.4169 35.2318 55.7374 36.1141C56.059 36.9964 56.7437 38.689 56.787 39.1545C56.2978 39.4994 55.1841 40.0834 54.0824 40.0484C53.894 38.5047 53.6551 36.7117 53.5275 35.442C53.4782 34.9512 53.4749 34.4275 53.4826 34.154C53.4886 33.9372 53.6447 33.9671 53.8595 34.1899C54.0753 34.4128 54.4062 34.7369 54.4741 34.7136C54.622 34.6645 54.4938 34.1727 54.2008 33.5887C53.9077 33.0048 52.743 30.5347 52.5387 30.4425C52.4352 30.3954 51.9136 31.7826 51.8808 32.0658C51.9849 32.241 52.2516 32.512 52.2779 33.3C52.2987 33.9276 52.6044 37.0029 52.8663 39.7116C51.7761 39.1479 51.4042 38.3421 51.2694 36.9893C51.1752 36.0462 51.1659 34.309 50.8295 32.8559C50.64 32.0343 50.2406 31.1997 49.7673 30.7565C49.6544 31.0295 49.1505 32.7054 49.1505 32.7054C49.3148 33.1866 49.8259 34.8068 49.8084 36.2108C49.7914 37.6148 49.6807 38.9873 48.1074 39.9329C46.5352 40.8791 44.1768 40.5027 43.5945 39.0268C43.0122 37.5499 44.3067 33.847 44.2897 32.9729C44.2722 32.0987 44.116 31.9781 43.7506 32.1225C43.3858 32.2668 42.6391 33.1096 41.996 34.4807C41.3529 35.8527 41.0669 37.552 40.7015 38.7073C40.3372 39.8625 39.7538 41.033 38.851 40.9682C37.9482 40.9044 37.4623 40.0783 37.1845 38.8835C36.9062 37.6877 37.0766 36.1131 37.1522 35.7094C37.3407 34.6984 36.9041 34.9056 36.6367 36.4929C36.4713 37.4719 36.3069 39.0355 36.8893 40.6719C37.4705 42.3083 38.4615 42.9187 39.3298 42.7095C40.1986 42.5013 40.9623 40.4637 41.2318 39.5485C41.5008 38.6348 42.7043 34.5764 43.3858 34.3768C43.4811 34.8342 42.8561 36.3086 42.6561 38.0331C42.4567 39.7577 42.9218 42.0744 45.1109 42.475C47.2999 42.8761 48.7851 41.4564 49.3236 40.4708C49.8626 39.4837 50.1141 38.4489 50.1749 37.9278C50.245 39.2507 51.1478 41.3167 52.9013 41.9057L53.0821 41.9579C53.19 43.0407 53.3659 44.4543 53.5275 45.9388C53.1862 46.0442 52.8416 46.1394 52.4987 46.2214C52.4549 46.0791 52.4067 45.9398 52.3481 45.8117C51.8128 44.6604 50.927 43.5994 49.6994 43.6728C48.4454 43.7473 47.0781 45.4207 47.1378 46.6428C47.1772 47.4648 47.6297 48.1395 49.2754 48.3122C50.027 48.3917 50.8251 48.3081 51.6496 48.1283C51.7657 48.4682 51.8391 48.806 51.8473 49.1139C51.3258 49.7238 47.0107 52.9784 43.7797 53.2914C40.5487 53.6039 39.5631 51.9102 39.5308 50.21C39.5067 48.9164 40.2846 47.6254 40.8313 46.732C41.6136 46.1596 42.2557 45.444 42.661 44.8919C42.7712 44.9598 42.8758 45.0226 42.9755 45.0808C43.3617 45.3052 43.5156 45.6405 43.5156 45.6405C43.5868 45.5311 43.9188 44.9334 43.789 44.6412C43.7293 44.5693 43.4373 44.3895 43.0861 44.1763C43.4548 43.2575 43.4499 42.3403 42.9722 42.1361C42.4381 41.9087 41.7407 42.5408 41.44 42.9263C41.2838 43.1268 41.2241 43.3542 41.223 43.5452C41.2208 43.7908 41.3364 44.0127 41.6224 44.2102C41.9072 44.4047 42.1718 44.5809 42.4205 44.74C41.7144 45.4815 40.0458 46.5679 39.0246 47.206C38.9868 47.1123 38.8373 47.2111 38.6362 47.4481L38.3596 47.6188C37.545 48.1172 35.5915 49.2117 35.2075 49.4796C34.8229 49.7481 35.0639 49.6994 35.2075 49.6397C35.4786 49.4933 35.8347 49.316 36.2346 49.1205C36.8011 48.8435 37.4601 48.53 38.1043 48.2155C37.9137 48.5386 37.7165 48.9164 37.5417 49.3287C36.7731 51.1434 35.5307 54.9046 38.2183 57.1675C40.7897 59.3338 45.2095 58.5097 48.8749 56.2584C52.5409 54.0066 53.3325 53.2149 53.9055 52.3965ZM41.9544 43.45C41.8273 43.3563 41.8097 43.2312 41.9133 43.144C42.0453 43.0316 42.214 42.9252 42.4058 42.8893C42.8122 42.8138 42.9744 43.2808 42.8111 44.0081C42.5022 43.8192 42.1844 43.6206 41.9544 43.45ZM50.3622 46.5177C48.4958 46.5263 48.4098 46.1875 48.4449 45.9707C48.4794 45.755 49.0606 45.1629 49.798 45.5534C50.1097 45.719 50.4608 46.0654 50.7857 46.5005C50.6422 46.5111 50.5008 46.5167 50.3622 46.5177ZM44.6458 56.3328C41.1195 57.2952 37.6798 55.8041 37.4716 52.8518C37.3122 50.5974 38.1344 48.8987 38.6647 47.9414C39.1704 47.6912 39.6481 47.4481 40.043 47.2303C39.12 48.7169 38.5798 50.7079 38.9408 52.3944C39.3495 54.3049 41.0116 55.4632 43.8257 55.0894C46.6119 54.7202 50.3792 52.0703 51.4474 51.071C51.7728 50.7104 51.9876 50.3852 52.2801 49.7227C52.4006 49.4508 52.5699 49.0917 52.6329 48.686C52.674 48.4216 52.6959 48.139 52.7008 47.8513C53.0279 47.7535 53.3566 47.6441 53.6875 47.5266C53.7998 48.7361 53.8825 49.9284 53.8874 50.9596C52.1514 52.9956 48.1721 55.37 44.6458 56.3328Z" fill="white"/>
<path d="M106.325 48.5909C106.206 46.6157 105.918 43.0404 105.757 41.2267C105.614 39.6125 105.334 37.4002 105.129 35.4528C105.078 34.9625 105.072 34.493 105.078 34.22C105.084 34.0042 105.3 34.0873 105.515 34.3092C105.731 34.531 106.069 34.8096 106.132 34.7756C106.343 34.6662 106.091 34.1253 105.794 33.5434C105.498 32.9604 104.323 30.549 104.119 30.4574C104.014 30.4108 103.464 31.8552 103.432 32.1384C103.537 32.3126 103.806 32.5826 103.835 33.3706C103.865 34.1592 104.263 37.7846 104.551 40.7167C104.75 42.7547 105.008 46.0803 105.195 48.5879C105.186 48.592 105.372 50.9719 105.392 51.2393C105.507 52.779 105.448 54.7163 105.436 55.0526C105.423 55.3905 105.671 55.3317 105.936 54.5821C106.206 53.8168 106.36 52.108 106.38 50.5652L106.325 48.5909Z" fill="white"/>
<path d="M96.313 41.676C95.9514 41.7864 95.3839 41.404 95.4272 40.6022C95.4666 39.8779 95.7767 39.1998 95.8961 38.7718C96.0604 38.1812 96.0615 37.6119 95.9224 37.9346C95.609 38.6558 95.0256 40.0501 94.9051 40.9963C94.784 41.9424 95.0908 42.5522 95.5077 42.7603C96.027 43.0212 96.4012 42.6074 96.6543 41.9976C96.8975 41.4136 96.8515 40.7319 96.6828 40.8924C96.5414 41.0601 96.4888 41.6218 96.313 41.676Z" fill="white"/>
<path d="M91.1152 44.5904C91.3069 44.0809 91.3518 43.5815 91.2045 43.8555C90.8719 44.4693 90.2491 45.6555 90.0667 46.4796C89.8848 47.3036 90.1055 47.8613 90.4561 48.0725C90.8933 48.3368 91.2532 47.998 91.5255 47.4789C91.7857 46.982 91.7988 46.3788 91.6389 46.5095C91.5008 46.6472 91.4093 47.137 91.2516 47.1729C90.9234 47.2454 90.4556 46.8706 90.5569 46.1676C90.649 45.5345 90.976 44.9586 91.1152 44.5904Z" fill="white"/>
<path d="M75.9804 55.3395C76.3009 54.8193 76.4603 54.2799 76.2379 54.5524C75.7416 55.1612 74.8021 56.3428 74.423 57.2094C74.045 58.076 74.1655 58.7268 74.5024 59.0231C74.9226 59.3928 75.391 59.089 75.8002 58.5729C76.193 58.078 76.3398 57.4216 76.1343 57.5335C75.9541 57.6597 75.7481 58.1778 75.5668 58.1874C75.1937 58.2057 74.7632 57.7088 75.0272 56.9602C75.2661 56.2846 75.7487 55.7163 75.9804 55.3395Z" fill="white"/>
<path d="M102.515 40.1594C102.148 40.2516 101.604 39.8398 101.695 39.0411C101.778 38.3203 102.129 37.6594 102.273 37.239C102.474 36.657 102.508 36.0893 102.35 36.4033C101.995 37.1083 101.329 38.4697 101.151 39.4088C100.973 40.3473 101.242 40.9718 101.646 41.2012C102.15 41.4869 102.547 41.0938 102.837 40.4972C103.115 39.9269 103.11 39.2442 102.931 39.3961C102.78 39.5572 102.694 40.1148 102.515 40.1594Z" fill="white"/>
<path d="M102.403 49.9582C102.906 50.2438 103.304 49.8508 103.594 49.2542C103.871 48.6839 103.867 48.0011 103.689 48.1531C103.537 48.3131 103.451 48.8718 103.272 48.9163C102.905 49.008 102.36 48.5967 102.452 47.798C102.535 47.0773 102.885 46.4158 103.03 45.996C103.23 45.414 103.264 44.8452 103.107 45.1603C102.751 45.8653 102.086 47.2267 101.908 48.1647C101.729 49.1042 101.998 49.7287 102.403 49.9582Z" fill="white"/>
<path d="M108.83 37.4414C109.072 36.7374 109.114 36.0501 108.922 36.4304C108.492 37.2834 107.686 38.9304 107.471 40.0675C107.256 41.2035 107.582 41.9587 108.071 42.2368C108.68 42.5822 109.161 42.1066 109.512 41.3854C109.847 40.695 109.842 39.8679 109.626 40.0528C109.444 40.2468 109.339 40.9214 109.122 40.9756C108.679 41.087 108.02 40.5892 108.131 39.6228C108.231 38.7506 108.656 37.9509 108.83 37.4414Z" fill="white"/>
<path d="M57.4644 49.6185C57.8604 48.7605 58.004 47.9015 57.7125 48.3588C57.0601 49.3824 55.8313 51.3643 55.4117 52.7683C54.9915 54.1728 55.3027 55.1594 55.8806 55.5641C56.6016 56.0665 57.2693 55.5215 57.8046 54.6549C58.3168 53.8238 58.4187 52.783 58.1234 52.9911C57.8686 53.214 57.6484 54.0517 57.369 54.0958C56.7949 54.1859 56.0324 53.486 56.2986 52.2831C56.5396 51.1977 57.1784 50.2394 57.4644 49.6185Z" fill="white"/>
<path d="M112.925 58.1249C113.229 57.8762 115.868 56.4545 116.354 56.1658C116.354 56.1658 116.851 55.3554 116.702 55.2693C116.553 55.1832 115.589 56.0594 114.99 56.0838C114.39 56.1081 113.569 55.6674 113.542 55.3063C113.62 55.0338 114.342 54.6246 114.602 54.6079C114.863 54.5927 114.821 55.1863 114.908 55.2587C114.995 55.3301 115.342 54.8489 115.386 54.6484C115.428 54.4483 115.393 53.6106 114.916 53.7306C114.16 53.9216 113.021 55.3225 112.891 55.7631C112.76 56.2048 113.464 56.5892 113.978 56.7984C113.934 56.8146 113.551 56.999 113.308 57.239C113.308 57.239 113.047 57.5313 112.925 58.1249Z" fill="white"/>
<path d="M103.925 59.8859C104.229 59.6372 106.868 58.2165 107.354 57.9268C107.354 57.9268 107.852 57.1164 107.702 57.0303C107.553 56.9442 106.589 57.8204 105.99 57.8447C105.39 57.8691 104.569 57.4284 104.542 57.0673C104.62 56.7948 105.342 56.3856 105.602 56.3699C105.863 56.3537 105.821 56.9467 105.908 57.0187C105.995 57.0911 106.342 56.6099 106.386 56.4094C106.428 56.2093 106.392 55.3716 105.916 55.4916C105.16 55.6836 104.021 57.0835 103.891 57.5251C103.76 57.9658 104.464 58.3502 104.977 58.5594C104.934 58.5756 104.551 58.7594 104.308 59C104.308 59 104.047 59.2923 103.925 59.8859Z" fill="white"/>
<path d="M83.6529 34.4039C83.8896 34.6789 85.4399 36.6486 86.6544 37.887C87.8683 39.1263 89.9495 41.132 91.4784 42.5066C91.7743 42.773 92.0882 43.0617 92.4075 43.3621C92.7932 46.3229 93.2391 50.0907 93.4265 51.6486C93.6111 53.1827 93.6385 55.12 93.6423 55.4574C93.6456 55.7952 93.8888 55.7263 94.12 54.9681C94.4301 53.9506 94.4657 51.3159 94.3013 49.5756C94.1994 48.5008 93.959 46.4876 93.7261 44.6313C94.6289 45.5232 95.4819 46.408 96.0565 47.0705C97.1133 48.2866 98.0024 49.2038 98.5442 50.5111C98.9276 51.4359 98.8887 52.1718 99.046 52.3172C99.1818 52.4428 99.3319 51.3361 99.1643 50.2629C98.8926 48.5201 98.5201 47.7811 96.2828 45.2928C95.4293 44.3416 94.4246 43.3474 93.4424 42.418C93.4046 42.1313 93.3701 41.8659 93.3388 41.6304C93.261 41.0484 92.5029 36.017 92.4431 35.4533C92.3922 34.9625 92.3029 34.3846 92.31 34.1117C92.3155 33.8944 92.4536 33.979 92.6705 34.2008C92.8863 34.4221 93.2643 34.8096 93.3284 34.7757C93.5399 34.6663 93.3043 34.0164 93.0079 33.4335C92.7127 32.8515 91.6954 30.5491 91.491 30.4579C91.3875 30.4113 90.7778 31.8553 90.7466 32.1379C90.8523 32.3121 91.1207 32.5836 91.1498 33.3707C91.158 33.5905 91.353 35.66 91.5979 37.614C91.8148 39.3406 92.0832 40.978 92.1112 41.1675L92.1123 41.1822C91.0994 40.2583 90.207 39.4738 89.6657 38.981C88.4003 37.8308 85.6053 35.1013 85.493 34.6926C85.4678 34.5634 85.6848 34.643 86.0836 34.7068C86.484 34.7711 86.8401 34.9073 86.776 34.7108C86.747 34.6181 86.5936 34.3892 86.2118 34.1532C85.8294 33.9167 84.8499 33.3038 84.1213 32.8703C83.3911 32.4372 83.0295 32.0741 82.8788 32.1779C82.8043 32.2291 82.8706 33.7125 82.9145 33.8974C83.0969 33.9131 83.4173 34.1279 83.6529 34.4039Z" fill="white"/>
<path d="M85.6475 31.7361C85.9472 31.6703 87.3671 31.7063 87.8826 31.8146C87.6668 31.9646 86.2139 32.6984 85.9269 32.8732C85.6415 33.0484 85.5692 33.1497 85.7127 33.1325C86.129 33.017 87.0674 32.8732 87.5172 32.6387C87.9412 32.4401 88.6638 31.4717 88.9448 31.1106C89.2242 30.7495 89.2242 30.5692 89.153 30.4725C88.8659 30.3165 87.0154 30.16 86.123 30.3813C85.8759 30.5489 85.3928 31.4419 85.3216 31.6277C85.2503 31.8146 85.3479 31.802 85.6475 31.7361Z" fill="white"/>
<path d="M93.5454 31.62C93.7876 31.5668 94.932 31.5957 95.3467 31.6828C95.173 31.8038 94.0029 32.3954 93.7717 32.5372C93.54 32.6775 93.4824 32.7595 93.598 32.7454C93.9338 32.6532 94.6904 32.5372 95.0525 32.3473C95.3938 32.1872 95.9761 31.4067 96.2023 31.1165C96.4275 30.8248 96.4275 30.6799 96.37 30.6024C96.1399 30.4753 94.6482 30.3497 93.9289 30.5285C93.7295 30.6632 93.3411 31.3829 93.2836 31.5328C93.225 31.6828 93.3044 31.6731 93.5454 31.62Z" fill="white"/>
<path d="M99.965 31.5374C100.206 31.4843 101.35 31.5131 101.765 31.6002C101.593 31.7213 100.422 32.3129 100.19 32.4537C99.9596 32.595 99.902 32.677 100.018 32.6628C100.353 32.5707 101.169 32.4537 101.531 32.2648C101.873 32.1047 102.277 31.3242 102.504 31.033C102.73 30.7423 102.73 30.5964 102.671 30.5199C102.441 30.3928 101.067 30.2672 100.349 30.445C100.149 30.5807 99.7596 31.3004 99.7021 31.4503C99.6446 31.6002 99.7229 31.5906 99.965 31.5374Z" fill="white"/>
<path d="M95.9604 34.6642C95.5802 35.2629 96.0568 35.7461 96.2304 36.2298C95.996 36.444 95.6355 36.2485 95.515 36.0606C95.2586 35.6752 95.3446 34.8896 95.0428 34.7686C94.9655 34.9808 94.9151 35.2163 94.9151 35.2163C94.9151 35.2163 95.1447 35.7537 95.0872 36.1092C95.0505 36.324 94.8609 36.5747 94.6106 36.5797C93.9433 36.5959 94.272 35.6083 94.0145 35.0486C93.9619 35.1854 93.9241 35.3323 93.8628 35.4604C93.9099 35.6063 93.9357 35.8109 93.9433 35.9289C93.9587 36.1634 93.94 36.4161 93.98 36.6162C94.0354 36.8993 94.1926 37.0872 94.4325 37.1055C94.931 37.145 95.1584 36.7413 95.2334 36.4101C95.3194 36.7479 95.9785 37.1202 96.3028 36.7053C96.7322 36.1583 96.3888 35.6898 96.1685 35.1753C96.0097 34.7949 96.0557 34.5452 95.9604 34.6642Z" fill="white"/>
<path d="M77.2327 33.0765C77.2672 33.3226 77.3937 33.4908 77.6002 33.5161C78.0264 33.5703 78.2423 33.2314 78.3228 32.9498C78.3792 33.2441 78.9303 33.5905 79.23 33.2471C79.6261 32.7928 79.3516 32.3755 79.1862 31.9232C79.0678 31.5879 79.1188 31.3752 79.0311 31.474C78.6751 31.9733 79.0635 32.4104 79.19 32.8344C78.9774 33.0086 78.6767 32.8258 78.5814 32.6601C78.3787 32.3172 78.4893 31.6441 78.2363 31.5271C78.1596 31.7074 78.1053 31.9075 78.1053 31.9075C78.1053 31.9075 78.2768 32.38 78.21 32.6834C78.1689 32.8673 77.9941 33.0754 77.7772 33.0699C77.2025 33.0572 77.5323 32.2195 77.3362 31.7277C77.2852 31.8427 77.2453 31.9688 77.1855 32.0751C77.2201 32.2038 77.2327 32.38 77.2327 32.4829C77.237 32.6855 77.2086 32.9012 77.2327 33.0765Z" fill="white"/>
<path d="M90.8302 56.2724C90.8943 56.1706 91.0357 55.8911 91 55.7001C90.9644 55.5092 90.7305 54.7125 90.2764 54.5129C89.825 54.3134 89.4832 54.7317 89.2668 55.3137L89.1167 55.3101C89.0811 55.3962 89.0361 55.5249 89.0005 55.7573C88.9501 56.0931 88.8548 56.3094 88.2791 56.8321C87.7948 57.2697 86.2258 58.3207 85.2091 58.8145C84.1913 59.3093 83.4588 59.7363 83.1888 59.8659C82.9198 59.9936 82.9981 60.0412 83.2671 59.9606C83.5355 59.8806 84.8864 59.4456 85.4249 59.2237C85.9623 59.0004 86.6197 58.6332 87.4119 58.1191C88.2927 57.5478 88.8192 56.9764 88.9961 56.47C89.1221 56.1088 89.1545 55.9645 89.1545 55.9645C89.1545 55.9645 89.4853 56.16 90.0469 56.2881C90.6062 56.4168 90.765 56.3753 90.8302 56.2724ZM90.071 55.1404C90.3202 55.2352 90.472 55.5066 90.5169 55.6712C90.2309 55.6778 89.7045 55.5325 89.4804 55.4312C89.6152 55.1703 89.8496 55.0574 90.071 55.1404Z" fill="white"/>
<path d="M84.8675 56.8327C84.0863 56.7243 82.118 56.4249 81.6365 55.2823C82.0408 54.6928 83.9028 53.9462 86.2354 53.2478C88.568 52.5509 91.0052 51.6463 91.6604 51.2097C91.804 51.1611 92.0817 51.1758 92.0817 51.1758C92.1989 50.8379 92.7846 49.6517 92.8213 49.4036C92.1694 49.4405 88.1511 49.7358 86.3664 49.8315C84.5805 49.9278 81.1413 49.9045 79.9953 49.8918C80.6981 49.3863 82.3662 48.3997 84.7503 47.5579C85.0593 47.4485 85.3452 47.3498 85.612 47.2606C85.8103 47.6142 85.9577 47.9636 85.9884 48.268C86.1401 48.112 86.2541 47.5949 86.2157 47.0641C87.6055 46.6204 88.3215 46.4736 88.6305 46.39C88.8255 46.1373 89.1712 45.1152 89.2227 44.3722C89.015 43.9938 88.3648 43.5228 87.7863 43.1181C86.9892 42.5615 86.1297 42.0763 85.2718 42.2885C84.0989 42.5762 83.8639 44.7308 84.1373 45.1876C84.2244 45.332 84.4309 45.5877 84.6747 45.9033C83.8179 46.2401 82.9217 46.6361 82.1317 47.0525C80.3722 47.9793 78.4077 48.9933 77.8347 49.9683L77.6703 50.0483C77.6243 50.1405 77.2617 51.6493 77.2091 51.8119C77.575 51.7992 80.3075 51.8043 82.2106 51.745C84.1126 51.6843 85.7758 51.624 86.4272 51.624C85.4625 51.8524 82.9343 52.7919 82.2073 53.3445C81.4804 53.8986 81.0235 54.7409 81.0115 56.1849C80.3338 55.9195 79.0744 55.3132 78.0012 53.8616C76.8048 52.2439 77.0524 50.5801 76.5736 48.3967C75.8779 45.2281 74.3922 42.5529 73.467 41.7344C73.1552 42.8527 73.1153 43.6955 73.1153 43.6955C73.1153 43.6955 74.2744 46.2583 74.8611 47.8943C75.4479 49.5307 75.9491 51.1428 75.9245 51.504C75.4413 52.5635 72.5811 54.7829 70.1976 56.082C67.9373 57.3138 65.946 57.4465 65.2404 56.5693C65.1018 56.3981 65.0076 56.1955 64.9545 55.9661C65.2612 55.8227 65.5691 55.6784 65.8846 55.534C67.917 54.6082 71.5266 52.6592 72.3724 51.6367C73.2851 50.3973 73.2725 48.6525 72.7373 47.6537C72.2042 46.6554 71.3683 45.4996 71.3031 45.0909C71.2521 44.8979 71.846 45.1694 72.1966 45.1876C72.3664 45.1749 72.2815 44.9465 71.9172 44.5854C71.6257 44.2977 70.4989 43.3643 70.0683 43.0001C69.9604 42.9074 69.8799 42.9449 69.858 43.0427C69.7741 43.4154 69.6027 44.2136 69.5364 44.6077L69.5824 44.8062C69.7062 44.8797 69.8486 44.9622 69.9177 45.1684C70.0152 45.4606 70.3565 46.276 70.9158 47.3052C71.4762 48.3339 72.2859 49.4694 72.3653 50.0427C71.7068 50.8825 68.3865 52.6709 65.1522 54.1448C65.3522 53.5248 65.6677 52.8238 66.0862 52.0454C66.2051 51.9137 66.3136 51.7511 66.4144 51.5678C66.737 50.9782 66.7683 50.2575 66.5727 50.4099C66.4051 50.5715 66.2846 51.1565 66.0928 51.196C65.7 51.2765 65.1489 50.8182 65.2875 49.9799C65.413 49.2238 65.8173 48.541 65.992 48.1039C66.2342 47.4992 66.3004 46.9015 66.1169 47.2267C65.7044 47.953 64.9304 49.36 64.6926 50.3431C64.4559 51.3247 64.7074 51.9957 65.1221 52.2556C65.2771 52.3543 65.4256 52.3852 65.5669 52.366C65.2831 52.9059 64.9325 53.5684 64.6767 54.3585C63.3762 54.9404 62.1108 55.4606 61.0633 55.8354C57.2982 57.1831 54.615 57.9773 52.7382 58.5668L52.6648 58.5998C52.8028 58.1536 52.7842 57.7727 52.6363 57.8872C52.4687 58.0497 52.3487 58.6347 52.157 58.6732C51.7642 58.7537 51.2131 58.2959 51.3511 57.4571C51.4771 56.701 51.8814 56.0192 52.0562 55.5816C52.2972 54.9774 52.364 54.3787 52.1811 54.7044C51.768 55.4307 50.9945 56.8377 50.7567 57.8203C50.5195 58.8024 50.771 59.4735 51.1851 59.7338C51.7012 60.0579 52.1411 59.6603 52.4785 59.0455L52.5968 58.7927C52.7141 58.7927 52.9118 58.7654 53.2071 58.6995C54.0672 58.5061 56.2174 58.1941 59.1739 57.8086C61.363 57.524 62.8744 56.9228 64.3354 56.2537C64.3289 56.4153 64.3272 56.5799 64.3343 56.7496C64.4138 58.7558 65.7285 59.322 67.5264 58.9467C69.2608 58.5826 71.6794 56.9922 73.129 55.9195C74.6404 54.8012 75.5125 53.8019 75.7349 53.4534C76.1381 52.599 76.2488 51.6549 76.2761 51.2097C76.4082 52.4364 76.515 54.1341 77.6753 55.5903C78.7435 56.9304 80.9326 58.8003 85.05 58.8515C85.0636 58.3617 84.8675 56.8327 84.8675 56.8327ZM84.5953 44.4015C85.1847 43.7401 86.4425 44.1726 87.3864 45.0114C86.9027 45.1248 86.2458 45.3269 85.5211 45.5857C85.0905 45.0666 84.6101 44.5662 84.5953 44.4015Z" fill="white"/>
<path d="M61.4476 35.3324C61.7149 35.2103 62.5328 34.8426 63.4142 34.3291C64.294 33.819 65.1207 33.2011 65.5249 32.7904C65.68 32.6329 65.818 32.5098 65.9062 32.3634C66.1703 32.4728 66.3521 32.5863 66.4655 32.6308C66.6359 32.6967 66.8633 32.7914 67.0112 32.3062C67.1585 31.8215 66.963 31.5085 66.6748 31.1347C66.431 30.8212 66.0443 30.3501 65.7304 30.2331C65.4641 30.1334 65.3376 30.728 65.3781 30.7133H65.5562L65.5907 30.73C65.2242 30.9149 64.9404 31.4902 64.9119 31.6923C64.8829 31.9121 64.9245 32.0742 65.4504 32.2094L65.6619 32.2717C65.2231 32.7914 64.4052 33.3288 63.8481 33.7096C63.0576 34.2516 61.9357 34.9287 61.6163 35.1242C61.2969 35.3187 61.3237 35.38 61.4476 35.3324ZM66.1982 31.5145L66.2267 31.2547C66.5965 31.6761 66.8709 32.1775 66.8435 32.2484C66.6737 32.2621 66.4623 32.1051 66.0925 31.9471C66.1336 31.8215 66.1681 31.6827 66.1982 31.5145ZM65.1365 31.5151C65.1343 31.436 65.2768 31.2162 65.5781 31.0962C65.8788 30.9751 66.0119 31.313 66.0382 31.7242L65.9489 31.8888L65.6778 31.7951C65.3907 31.7111 65.1968 31.6635 65.1365 31.5151Z" fill="white"/>
<path d="M81.1629 43.2652C81.5967 42.9786 82.7893 42.1175 83.4659 41.5533C83.9364 41.1613 84.4892 40.5839 84.8644 40.0957C85.1 40.2481 85.3197 40.3833 85.5196 40.5008C85.9053 40.7262 86.0603 41.0605 86.0603 41.0605C86.1315 40.9511 86.4635 40.3524 86.3337 40.0612C86.2559 39.966 85.7815 39.6889 85.2967 39.3921C85.5426 38.8401 85.8812 37.8854 85.3964 37.5511C84.9817 37.2675 84.2821 37.737 83.9584 38.3463C83.691 38.8507 83.6565 39.2787 84.1665 39.6292C84.3101 39.7279 84.4476 39.8211 84.5823 39.9098C84.0679 40.4725 83.1202 41.3051 82.4458 41.8719C81.6082 42.5729 80.8161 43.2602 80.678 43.4243L80.6381 43.4881C80.4551 42.9786 80.5049 42.664 80.3691 42.8332C79.7824 43.7535 80.5175 44.499 80.7849 45.2435C80.4233 45.5717 79.8695 45.2704 79.6838 44.9832C79.2882 44.3886 79.4203 43.1811 78.9574 42.9943C78.8379 43.3204 78.7601 43.6836 78.7601 43.6836C78.7601 43.6836 79.1124 44.5107 79.0231 45.0566C78.9678 45.3869 78.6752 45.7733 78.2912 45.7799C77.2635 45.8062 77.7702 44.2858 77.3736 43.4248C77.2931 43.636 77.2356 43.8619 77.1392 44.0574C77.212 44.2838 77.252 44.5978 77.2624 44.7796C77.2887 45.1407 77.2591 45.5282 77.3199 45.8382C77.4049 46.2737 77.647 46.5634 78.0168 46.5903C78.7832 46.6526 79.1332 46.0296 79.2493 45.5216C79.3814 46.0413 80.3965 46.6126 80.8955 45.9754C81.5567 45.1331 81.0276 44.4119 80.6895 43.6198L80.6496 43.5169C80.6967 43.5337 80.8736 43.4562 81.1629 43.2652ZM84.1605 38.5225C84.4147 38.051 84.9499 38.011 85.1104 38.2581C85.2381 38.4546 85.2485 38.8381 85.0567 39.2427C84.5845 38.9464 84.1632 38.6562 84.1605 38.5225Z" fill="white"/>
<path d="M64.4324 40.2666C63.5296 40.2028 63.0437 39.3757 62.766 38.1809C62.4877 36.9861 62.6581 35.4105 62.7337 35.0068C62.8093 34.6036 62.3836 34.8118 62.2182 35.7908C62.0538 36.7688 61.8884 38.3329 62.4707 39.9703C63.052 41.6057 64.043 42.2161 64.9112 42.0069C65.7795 41.7987 66.5437 39.7611 66.8133 38.8469C67.0822 37.9322 68.2858 34.202 68.9673 34.0014C69.0626 34.4588 68.4375 35.606 68.2376 37.3305C68.0387 39.0551 68.3849 41.3171 70.574 41.7182C72.7631 42.1198 74.2482 40.6996 74.7867 39.7125C75.3257 38.7269 75.5772 37.6906 75.638 37.17C75.7081 38.4934 76.6109 40.5599 78.3645 41.1489C80.0589 41.7182 81.3534 41.197 81.9253 40.4591C82.4331 39.8037 82.8467 38.4539 82.8823 37.4187C82.9168 36.3844 82.0228 34.4917 81.8228 33.889C81.6223 33.2878 81.5188 32.8704 81.5013 32.6623C81.4843 32.4541 81.9538 32.9034 82.249 32.9915C82.449 33.0315 82.3789 32.5985 82.1356 32.3012C81.893 32.0049 80.5793 30.0129 80.4873 30.1516C80.4308 30.2347 79.9049 31.7 79.8704 31.9243C80.0786 32.0611 80.3196 32.4379 80.3377 32.799C80.3541 33.1602 80.702 34.748 81.0236 35.6303C81.3451 36.5126 81.9702 38.2052 82.014 38.6707C81.389 39.1113 79.9811 39.672 78.6439 39.1037C77.3066 38.5334 76.8799 37.7074 76.7325 36.2315C76.6383 35.2884 76.629 33.5512 76.2926 32.0986C76.1031 31.2776 75.7037 30.4429 75.2293 29.9997C75.1176 30.2717 74.6136 31.9486 74.6136 31.9486C74.7779 32.4298 75.289 34.05 75.2726 35.454C75.2545 36.857 75.1439 38.23 73.5705 39.1762C71.9983 40.1223 69.7583 39.7454 69.176 38.269C68.5936 36.7931 69.8881 33.4726 69.8712 32.5985C69.8536 31.7243 69.6964 31.6032 69.3321 31.7481C68.9673 31.8924 68.2195 32.7352 67.5775 34.1063C66.9343 35.4783 66.6489 36.8494 66.283 38.0047C65.9187 39.1599 65.3352 40.3304 64.4324 40.2666Z" fill="white"/>
<path d="M38.2191 35.1494C39.3301 35.0688 40.269 34.2266 40.5117 34.0027C40.7549 33.7773 40.8859 33.4415 40.7116 33.5692C39.4265 34.7163 37.7069 34.7488 37.6105 34.5558C37.6543 34.3633 38.1068 34.0503 38.7669 33.6097C39.1679 33.3417 39.5251 33.0905 39.7924 32.7345L39.8653 32.7471C40.3545 32.8545 40.9193 33.0682 41.0918 32.8971C41.3729 32.62 41.4101 32.1662 41.1055 31.6769C40.8481 31.2616 40.2476 30.8752 39.7261 30.5961C39.2057 30.3186 39.1049 30.7617 39.0381 30.9197C38.974 31.0671 39.0003 31.1927 39.1104 31.1958C38.9428 31.4242 38.8233 31.7185 38.7795 31.9616C38.751 32.1186 38.774 32.2472 38.8381 32.3531C38.8567 32.383 38.9532 32.501 39.1356 32.5709L39.3618 32.6413C38.9723 33.0009 38.5237 33.2825 38.2881 33.4248C37.863 33.6816 37.359 34.1308 37.2029 34.5953C37.0462 35.0613 37.107 35.2299 38.2191 35.1494ZM40.183 31.8724L40.2257 31.6354V31.4835C40.578 31.7397 41.1411 32.225 41.1066 32.5157C40.8837 32.465 40.4586 32.3754 40.0548 32.2715C40.1063 32.1505 40.1485 32.0178 40.183 31.8724ZM39.1389 31.9464C38.8798 31.7397 39.1323 31.5336 39.3618 31.4009C39.6582 31.2297 39.8319 31.371 39.9836 31.8203C39.9305 31.9489 39.856 32.074 39.7683 32.1941C39.5377 32.1226 39.2128 32.0082 39.1389 31.9464Z" fill="white"/>
<path d="M41.552 47.6962C41.2327 47.9732 41.1089 48.8748 41.1741 48.929C41.2387 48.9831 42.2368 49.32 42.3929 49.3929L42.4642 49.1214C42.9397 49.5484 43.4667 51.6786 43.5839 51.6847C43.7011 51.6903 43.871 51.4436 43.9822 50.8779C44.0846 50.3532 44.187 49.5681 44.2939 48.929C44.3936 48.344 44.5486 48.0092 44.9003 47.9423C45.2525 47.8765 45.5133 48.3278 45.6042 48.6347C45.6042 48.6347 45.8513 48.0446 45.9039 47.6779C45.8453 47.485 45.2975 46.7577 44.8483 46.9982C44.3985 47.2393 44.1169 48.2599 44.026 48.8981C43.9345 49.5352 43.8644 50.3253 43.7537 50.4519C43.6376 49.908 43.2656 48.9345 42.8164 48.3875C42.3113 47.7747 41.7208 47.5498 41.552 47.6962Z" fill="white"/>
<path d="M37.2946 46.6072C37.7115 46.4927 38.6499 46.3489 39.0991 46.1144C39.5226 45.9158 40.2451 44.9474 40.5256 44.5863C40.8056 44.2252 40.8061 44.0439 40.7349 43.9481C40.4484 43.7911 38.5973 43.6356 37.7044 43.857C37.4579 44.0236 36.9752 44.9165 36.904 45.1034C36.8317 45.2893 36.9303 45.2776 37.2294 45.2118C37.5291 45.1449 38.9496 45.1809 39.4634 45.2893C39.2492 45.4402 37.7964 46.1741 37.5094 46.3489C37.2234 46.5231 37.1511 46.6254 37.2946 46.6072Z" fill="white"/>
<path d="M123.358 51.777C123.315 50.6946 122.785 49.0328 120.769 46.4832C120.073 45.6029 119.094 44.4573 118.061 43.2838C118.033 42.8836 118.005 42.518 117.979 42.2039C117.843 40.5888 117.385 37.2936 117.188 35.3457C117.14 34.8544 117.136 34.3317 117.143 34.0587C117.15 33.8419 117.306 33.8708 117.521 34.0936C117.736 34.316 118.066 34.6406 118.135 34.6184C118.282 34.5677 118.155 34.0759 117.862 33.4929C117.569 32.909 116.463 30.5472 116.26 30.4556C116.155 30.409 115.634 31.7957 115.601 32.0794C115.705 32.2536 115.972 32.5245 115.998 33.3131C116.025 34.1012 116.501 38.7558 116.774 41.6888L116.789 41.8524C115.245 40.1289 113.791 38.5573 113.193 37.9201C113.09 37.8097 112.976 37.6841 112.853 37.5494C112.755 36.7648 112.666 36.0173 112.604 35.3999C112.553 34.9096 112.55 34.3859 112.559 34.1129C112.564 33.8966 112.721 33.926 112.936 34.1488C113.151 34.3712 113.481 34.6958 113.55 34.6725C113.697 34.6229 113.569 34.1311 113.276 33.5471C112.984 32.9632 111.831 30.5472 111.626 30.4556C111.523 30.409 110.977 31.9061 110.945 32.1877C111.049 32.363 111.316 32.634 111.343 33.4225C111.353 33.7573 111.44 34.7723 111.556 36.0532C110.533 34.8372 109.531 33.5639 109.46 33.305C109.435 33.1774 109.651 33.2559 110.051 33.3207C110.45 33.3846 110.824 33.5046 110.76 33.3071C110.73 33.2154 110.578 32.9865 110.196 32.7494C109.814 32.5129 108.834 31.9001 108.106 31.4675C107.375 31.0345 107.014 30.6703 106.863 30.7741C106.789 30.8253 106.855 32.3098 106.898 32.4937C107.081 32.5104 107.42 32.6466 107.636 32.9353C107.854 33.224 109.25 35.1811 110.354 36.5045C110.671 36.8854 111.169 37.4759 111.751 38.1576C111.865 39.3768 111.985 40.6364 112.083 41.6888C112.307 44.0896 113.113 50.4211 113.12 52.479C112.526 53.0366 111.31 53.8145 110.06 53.8308C108.809 53.8465 108.123 53.5172 107.619 52.5873C107.463 52.2991 107.319 52.0094 107.175 51.7471C106.835 51.1236 106.074 50.7736 105.341 50.9453L105.229 50.9752L105.03 51.0709C104.534 51.3308 104.02 51.7663 103.519 52.442C102.651 53.614 102.097 54.8852 101.454 55.9863C100.786 57.133 100.272 57.9024 99.0989 57.7185C98.2728 57.5889 97.6455 56.8803 97.2588 56.0086C98.3451 55.257 99.1339 54.2765 99.7108 52.9176C100.462 51.1515 100.73 49.1605 100.663 46.9218C100.599 44.8149 99.6385 39.8579 99.3848 37.9581C99.1317 36.0573 98.768 34.4973 98.8102 34.0916C98.8496 33.7001 99.473 34.6219 99.7924 34.6908C99.9557 34.6543 99.868 34.0663 99.5579 33.5694C99.3476 33.2316 98.6814 31.6949 98.2454 30.9539C98.0405 30.6035 97.9912 30.4004 97.8959 30.3588C97.8017 30.3158 97.0758 31.8661 97.1634 32.0348C97.3782 32.3417 97.525 32.4881 97.5699 33.0381C97.6159 33.5882 98.1134 37.6258 98.5483 40.5994C98.8759 42.8431 99.5996 46.9188 99.6927 49.9313C99.7234 50.9144 99.5831 51.62 99.4615 52.014C99.1493 52.6177 98.6404 53.2883 96.8523 54.5611C96.5762 52.7626 96.8764 51.3014 96.6145 51.1661C96.3193 51.1981 96.2722 52.0363 96.2387 53.0705C96.2223 53.5481 96.2431 54.2096 96.333 54.9202C94.1368 56.388 91.2355 57.7246 89.8731 58.4382C89.0739 58.8576 89.362 58.9553 90.0386 58.7462C90.7151 58.536 94.4331 57.561 96.4179 56.5171L96.6315 56.3986C96.7323 56.7486 96.8545 57.0874 97.0046 57.3999C97.6724 58.7877 98.6267 59.6117 99.6604 59.5312C100.53 59.4644 101.16 58.5339 101.71 57.4242C102.266 56.3009 103.206 54.1676 104.127 53.3739C104.481 53.068 104.847 52.8259 105.203 52.6805C105.203 52.6805 105.833 52.4703 106.412 52.8487C106.619 52.9854 106.774 53.1799 106.872 53.3977C107.101 53.8976 107.371 54.5338 107.923 55.0666C108.896 56.0036 110.461 55.8101 111.634 55.2651C112.806 54.7196 113.404 53.8687 113.665 52.8578C114.11 51.1282 114.038 49.356 113.953 47.7818C113.855 45.9853 113.568 44.1493 113.405 42.2039C113.352 41.5784 113.25 40.7083 113.132 39.7647C114.275 41.0836 115.462 42.4222 116.181 43.1541C116.43 43.4068 116.691 43.6874 116.96 43.9837C117.175 46.9284 117.382 50.6131 117.491 52.1594C117.599 53.7001 117.529 55.6369 117.516 55.9737C117.503 56.3105 117.691 56.2528 117.96 55.5052C118.32 54.5018 118.546 51.8707 118.467 50.1258C118.42 49.0891 118.317 47.1989 118.205 45.411C119.092 46.465 119.934 47.5291 120.482 48.2473C121.456 49.5226 122.35 51.039 122.663 51.9851C122.975 52.9323 123.01 53.2128 123.071 53.3815C123.132 53.5502 123.4 52.8593 123.358 51.777Z" fill="white"/>
<path d="M106.91 87.8024C106.822 87.5508 106.553 87.3662 106.231 87.3662C105.909 87.3662 105.64 87.5508 105.551 87.8024H102.5C102.47 87.464 102.5 87.1239 102.595 86.7926L108.894 86.7887L109.069 87.0844C109.228 87.3508 109.428 87.5915 109.66 87.8025L106.91 87.8024ZM111.08 84.8755H103.511C104.093 84.4557 104.398 83.8431 104.316 83.2233C104.264 82.8327 103.877 82.5409 103.405 82.5013H103.168C102.594 82.5574 102.178 82.9711 102.238 83.4255L102.261 83.6002L102.289 83.8689C102.32 84.2063 102.29 84.5453 102.195 84.8755H46.2476C47.0783 86.0843 48.593 86.8255 50.2287 86.8244L101.282 86.793C100.698 87.2133 100.392 87.8271 100.474 88.448C100.535 88.9024 101.048 89.226 101.622 89.1699C102.196 89.1139 102.612 88.7002 102.552 88.2452L102.529 88.071H105.529C105.582 88.3639 105.874 88.5886 106.231 88.5886C106.587 88.5886 106.88 88.3639 106.933 88.071H109.985V88.0639C110.622 88.5161 111.432 88.776 112.289 88.776C113.095 88.776 113.748 88.2161 113.748 87.5249V87.1634C113.748 85.9002 112.554 84.8754 111.08 84.8754" fill="white"/>
</svg>
