<svg width="160" height="120" viewBox="0 0 160 120" fill="none" xmlns="http://www.w3.org/2000/svg">
<path d="M0 0H160V120H0V0Z" fill="#0F3296"/>
<path d="M0 22.5H160V97.5H0V22.5Z" fill="#FDD406"/>
<path d="M0 30H160V90H0V30Z" fill="#B00F04"/>
<path d="M137.073 46.2841L129.787 48.8554L137.073 51.4267L144.358 48.8554L137.073 46.2841Z" fill="white"/>
<path fill-rule="evenodd" clip-rule="evenodd" d="M137.073 46.1237L144.813 48.8553L137.073 51.5869L129.333 48.8553L137.073 46.1237ZM130.242 48.8553L137.073 51.2663L143.904 48.8553L137.073 46.4443L130.242 48.8553Z" fill="black"/>
<path d="M132.28 48H27.005C26.4904 48 26.0732 48.3837 26.0732 48.8571C26.0732 49.3305 26.4904 49.7142 27.005 49.7142H132.28C132.795 49.7142 133.212 49.3305 133.212 48.8571C133.212 48.3837 132.795 48 132.28 48Z" fill="#FDD406"/>
<path fill-rule="evenodd" clip-rule="evenodd" d="M27.0049 48.1512C26.5616 48.1512 26.2243 48.4788 26.2243 48.8571C26.2243 49.2353 26.5616 49.563 27.0049 49.563H132.28C132.724 49.563 133.061 49.2353 133.061 48.8571C133.061 48.4788 132.724 48.1512 132.28 48.1512H27.0049ZM25.9219 48.8571C25.9219 48.2885 26.4189 47.8488 27.0049 47.8488H132.28C132.866 47.8488 133.363 48.2885 133.363 48.8571C133.363 49.4256 132.866 49.8654 132.28 49.8654H27.0049C26.4189 49.8654 25.9219 49.4256 25.9219 48.8571Z" fill="black"/>
<path d="M130.65 49.713C131.078 49.713 131.507 49.2843 131.507 48.8559C131.507 48.4275 131.078 47.9988 130.65 47.9988M129.792 49.713C130.22 49.713 130.649 49.2843 130.649 48.8559C130.649 48.4275 130.22 47.9988 129.792 47.9988M128.934 49.713C129.362 49.713 129.791 49.2843 129.791 48.8559C129.791 48.4275 129.362 47.9988 128.934 47.9988" fill="#FDD406"/>
<path fill-rule="evenodd" clip-rule="evenodd" d="M129.63 48.1598C129.812 48.3417 129.942 48.5925 129.942 48.856C129.942 49.1195 129.812 49.3703 129.63 49.5521C129.448 49.734 129.197 49.8643 128.934 49.8643V49.5619C129.098 49.5619 129.276 49.4778 129.416 49.3382C129.556 49.1986 129.64 49.0209 129.64 48.856C129.64 48.691 129.556 48.5133 129.416 48.3737C129.277 48.2341 129.099 48.1501 128.934 48.1501V47.8477C129.197 47.8477 129.448 47.9779 129.63 48.1598ZM130.488 48.1598C130.67 48.3417 130.8 48.5925 130.8 48.856C130.8 49.1195 130.67 49.3703 130.488 49.5521C130.306 49.734 130.055 49.8643 129.792 49.8643V49.5619C129.956 49.5619 130.134 49.4778 130.274 49.3382C130.414 49.1986 130.498 49.0209 130.498 48.856C130.498 48.691 130.414 48.5133 130.274 48.3737C130.135 48.2341 129.957 48.1501 129.792 48.1501V47.8477C130.055 47.8477 130.306 47.9779 130.488 48.1598ZM131.346 48.1598C131.528 48.3417 131.658 48.5925 131.658 48.856C131.658 49.1195 131.528 49.3703 131.346 49.5521C131.164 49.734 130.913 49.8643 130.65 49.8643V49.5619C130.814 49.5619 130.992 49.4778 131.132 49.3382C131.272 49.1986 131.356 49.0209 131.356 48.856C131.356 48.691 131.272 48.5133 131.132 48.3737C130.993 48.2341 130.815 48.1501 130.65 48.1501V47.8477C130.913 47.8477 131.164 47.9779 131.346 48.1598Z" fill="black"/>
<path d="M130.092 51.4291L122.807 54.0004L130.092 56.5717L137.378 54.0004L130.092 51.4291Z" fill="white"/>
<path fill-rule="evenodd" clip-rule="evenodd" d="M130.092 51.2687L137.832 54.0003L130.092 56.732L122.353 54.0003L130.092 51.2687ZM123.261 54.0003L130.092 56.4113L136.924 54.0003L130.092 51.5894L123.261 54.0003Z" fill="black"/>
<path d="M125.3 53.145H20.0246C19.51 53.145 19.0928 53.5288 19.0928 54.0021C19.0928 54.4755 19.51 54.8592 20.0246 54.8592H125.3C125.815 54.8592 126.232 54.4755 126.232 54.0021C126.232 53.5288 125.815 53.145 125.3 53.145Z" fill="#FDD406"/>
<path fill-rule="evenodd" clip-rule="evenodd" d="M20.0244 53.2962C19.5811 53.2962 19.2438 53.6239 19.2438 54.0021C19.2438 54.3803 19.5812 54.708 20.0244 54.708H125.3C125.743 54.708 126.08 54.3803 126.08 54.0021C126.08 53.6239 125.743 53.2962 125.3 53.2962H20.0244ZM18.9414 54.0021C18.9414 53.4336 19.4384 52.9938 20.0244 52.9938H125.3C125.886 52.9938 126.383 53.4336 126.383 54.0021C126.383 54.5706 125.886 55.0104 125.3 55.0104H20.0244C19.4384 55.0104 18.9414 54.5706 18.9414 54.0021Z" fill="black"/>
<path d="M123.669 54.858C124.097 54.858 124.527 54.4293 124.527 54.0009C124.527 53.5725 124.098 53.1438 123.669 53.1438M122.811 54.858C123.239 54.858 123.669 54.4293 123.669 54.0009C123.669 53.5725 123.24 53.1438 122.811 53.1438M121.953 54.858C122.381 54.858 122.811 54.4293 122.811 54.0009C122.811 53.5725 122.382 53.1438 121.953 53.1438" fill="#FDD406"/>
<path fill-rule="evenodd" clip-rule="evenodd" d="M122.65 53.3048C122.832 53.4867 122.962 53.7375 122.962 54.001C122.962 54.2645 122.831 54.5153 122.649 54.6972C122.467 54.879 122.216 55.0093 121.953 55.0093V54.7069C122.118 54.7069 122.296 54.6228 122.436 54.4832C122.575 54.3436 122.66 54.1659 122.66 54.001C122.66 53.836 122.575 53.6583 122.436 53.5187C122.296 53.3792 122.118 53.2951 121.953 53.2951V52.9927C122.217 52.9927 122.468 53.1229 122.65 53.3048ZM123.508 53.3048C123.69 53.4867 123.82 53.7375 123.82 54.001C123.82 54.2645 123.689 54.5153 123.507 54.6972C123.325 54.879 123.074 55.0093 122.811 55.0093V54.7069C122.976 54.7069 123.154 54.6228 123.294 54.4832C123.433 54.3436 123.518 54.1659 123.518 54.001C123.518 53.836 123.433 53.6583 123.294 53.5187C123.154 53.3792 122.976 53.2951 122.811 53.2951V52.9927C123.075 52.9927 123.326 53.1229 123.508 53.3048ZM124.366 53.3048C124.548 53.4867 124.678 53.7375 124.678 54.001C124.678 54.2645 124.547 54.5153 124.365 54.6972C124.183 54.879 123.932 55.0093 123.669 55.0093V54.7069C123.834 54.7069 124.012 54.6228 124.152 54.4832C124.291 54.3436 124.376 54.1659 124.376 54.001C124.376 53.836 124.291 53.6583 124.152 53.5187C124.012 53.3792 123.834 53.2951 123.669 53.2951V52.9927C123.933 52.9927 124.184 53.1229 124.366 53.3048Z" fill="black"/>
<path d="M151.605 58.7159H8.42931C7.72946 58.7159 7.16211 59.2915 7.16211 60.0016C7.16211 60.7116 7.72946 61.2872 8.42931 61.2872H151.605C152.305 61.2872 152.872 60.7116 152.872 60.0016C152.872 59.2915 152.305 58.7159 151.605 58.7159Z" fill="#FDD406"/>
<path fill-rule="evenodd" clip-rule="evenodd" d="M8.4292 58.878C7.82101 58.878 7.324 59.3788 7.324 60.0016C7.324 60.6244 7.82102 61.1253 8.4292 61.1253H151.605C152.213 61.1253 152.71 60.6244 152.71 60.0016C152.71 59.3788 152.213 58.878 151.605 58.878H8.4292ZM7 60.0016C7 59.2043 7.63768 58.554 8.4292 58.554H151.605C152.396 58.554 153.034 59.2043 153.034 60.0016C153.034 60.7989 152.396 61.4493 151.605 61.4493H8.4292C7.63768 61.4493 7 60.7989 7 60.0016Z" fill="black"/>
<path d="M142.624 58.98C141.325 61.2288 143.62 58.232 149.219 61.9968C150.257 62.6962 151.164 64.5436 151.164 65.8246C150.9 65.6484 150.705 65.2564 150.415 65.0016C150.008 65.4086 150.802 67.2748 150.919 68.1566C150.043 67.6668 150.127 67.4348 149.836 66.8328C149.894 67.5606 149.686 69.5648 150.034 70.3368C149.344 70.1396 149.39 69.5844 149.03 69.4728C149.275 70.3464 148.817 71.2972 148.938 72.2794C148.535 71.8804 148.106 71.5678 147.918 71.4066C147.887 71.8742 147.143 73.1034 147.126 73.5456C146.784 73.339 146.691 73.0168 146.634 72.7998C146.209 73.334 144.698 75.3072 144.601 75.909C143.437 74.8806 140.454 72.3764 140.066 71.0472C139.723 71.8016 139.226 72.0564 138.244 72.6072C137.856 70.5006 136.405 68.1328 137.181 66.327C136.631 66.653 136.179 66.9792 135.629 67.3804C136.15 64.3294 138.805 60.7518 142.625 58.98H142.624Z" fill="#333333"/>
<path fill-rule="evenodd" clip-rule="evenodd" d="M142.55 58.8518H142.625L142.657 58.9994L142.735 59.0442C142.571 59.3268 142.471 59.5162 142.425 59.6443C142.402 59.7086 142.397 59.7452 142.398 59.7638C142.399 59.767 142.399 59.7692 142.399 59.7705C142.405 59.7745 142.424 59.784 142.47 59.7912C142.517 59.7986 142.581 59.8017 142.664 59.8019C142.736 59.8021 142.819 59.8001 142.915 59.7977C142.928 59.7974 142.942 59.7971 142.955 59.7968C143.068 59.7941 143.194 59.7914 143.335 59.7917C144.469 59.7943 146.468 59.9923 149.291 61.8904C149.835 62.257 150.333 62.915 150.695 63.6351C151.057 64.3559 151.292 65.158 151.292 65.8247V66.0647L151.092 65.9313C150.94 65.8297 150.813 65.6704 150.698 65.5213C150.689 65.5099 150.68 65.4984 150.671 65.487C150.596 65.3908 150.524 65.2973 150.447 65.2133C150.445 65.2221 150.443 65.2314 150.441 65.2412C150.427 65.3178 150.424 65.4154 150.433 65.5324C150.452 65.7665 150.514 66.0565 150.595 66.369C150.647 66.5731 150.707 66.7821 150.765 66.9885C150.796 67.0983 150.827 67.2075 150.857 67.3147C150.941 67.6196 151.015 67.9095 151.046 68.1399L151.079 68.3935L150.856 68.2686C150.41 68.0191 150.191 67.826 150.05 67.6061C150.021 67.5609 149.996 67.5154 149.973 67.4693C149.972 67.506 149.972 67.5434 149.971 67.5813C149.97 67.6549 149.968 67.7306 149.966 67.808C149.961 68.0502 149.955 68.3087 149.955 68.5685C149.954 68.9111 149.963 69.2519 149.992 69.5534C150.022 69.8575 150.073 70.1106 150.151 70.2841L150.265 70.5361L149.999 70.4602C149.615 70.3503 149.432 70.1363 149.302 69.9445C149.278 69.909 149.258 69.877 149.239 69.8476C149.233 69.8386 149.227 69.8298 149.222 69.8212C149.252 70.1653 149.207 70.5133 149.157 70.854C149.152 70.8929 149.146 70.9318 149.14 70.9705C149.075 71.4059 149.012 71.8321 149.065 72.2637L149.111 72.631L148.848 72.3706C148.563 72.0884 148.271 71.8554 148.054 71.6826C148.036 71.6683 148.019 71.6543 148.002 71.6408C147.976 71.7299 147.941 71.8257 147.903 71.9232C147.828 72.1126 147.731 72.3245 147.637 72.5319L147.633 72.5389C147.537 72.7502 147.443 72.9566 147.372 73.1376C147.299 73.3231 147.257 73.4643 147.254 73.5505L147.246 73.7679L147.06 73.6554C146.791 73.4933 146.659 73.2677 146.584 73.0712C146.338 73.3868 145.955 73.8921 145.6 74.4025C145.379 74.7188 145.17 75.0354 145.011 75.309C144.931 75.4459 144.864 75.5705 144.815 75.6779C144.766 75.787 144.737 75.8713 144.728 75.9294L144.691 76.1593L144.516 76.0052C144.407 75.9091 144.282 75.7998 144.145 75.6796C143.549 75.1591 142.719 74.4331 141.953 73.6826C141.481 73.2205 141.031 72.7468 140.675 72.3035C140.407 71.9715 140.186 71.6496 140.049 71.3579C139.707 71.9355 139.22 72.2078 138.435 72.647C138.393 72.6706 138.35 72.6946 138.307 72.7191L138.15 72.8068L138.118 72.6305C138.022 72.1127 137.861 71.5764 137.683 71.031C137.631 70.8718 137.578 70.7115 137.524 70.5508C137.395 70.1637 137.264 69.7739 137.153 69.3902C136.876 68.437 136.702 67.4849 136.941 66.6246C136.526 66.8874 136.148 67.1602 135.704 67.484L135.449 67.6703L135.502 67.3589C136.029 64.2718 138.699 60.675 142.532 58.8815L142.55 58.8518ZM142.314 59.2726C138.854 61.0163 136.432 64.2502 135.817 67.0851C136.255 66.7677 136.651 66.4922 137.116 66.2167L137.454 66.016L137.299 66.3777C136.93 67.236 137.086 68.2403 137.399 69.3186C137.509 69.6972 137.637 70.0793 137.765 70.4643C137.819 70.6261 137.874 70.7885 137.927 70.9514C138.086 71.4393 138.235 71.929 138.335 72.4089C139.22 71.9134 139.644 71.6658 139.949 70.9941L140.092 70.6798L140.189 71.0113C140.278 71.3179 140.524 71.7072 140.874 72.1426C141.222 72.5748 141.664 73.0407 142.132 73.4994C142.892 74.2441 143.716 74.9638 144.311 75.4845C144.39 75.5535 144.465 75.619 144.535 75.6806C144.549 75.6451 144.565 75.6086 144.582 75.5713C144.636 75.4535 144.707 75.321 144.789 75.1799C144.953 74.8977 145.167 74.5747 145.389 74.2558C145.834 73.6176 146.32 72.9885 146.534 72.72L146.693 72.5198L146.758 72.7673C146.803 72.9383 146.865 73.1489 147.038 73.3176C147.063 73.2312 147.096 73.1382 147.133 73.0437C147.207 72.8552 147.304 72.6422 147.4 72.4325L147.401 72.4292C147.497 72.219 147.592 72.0121 147.664 71.8287C147.739 71.6406 147.784 71.4928 147.79 71.3981L147.807 71.1422L148.002 71.3094C148.05 71.3505 148.117 71.4045 148.199 71.4695C148.358 71.5969 148.571 71.7664 148.789 71.9631C148.785 71.61 148.837 71.2646 148.886 70.9371C148.892 70.8967 148.898 70.8566 148.904 70.8168C148.973 70.3453 149.021 69.9148 148.907 69.5075L148.843 69.2806L149.068 69.3504C149.191 69.3884 149.275 69.4641 149.342 69.5467C149.384 69.5994 149.426 69.6639 149.465 69.7243C149.482 69.7511 149.499 69.7771 149.515 69.801C149.59 69.9119 149.678 70.0225 149.823 70.1093C149.783 69.9491 149.756 69.7684 149.737 69.5786C149.706 69.2645 149.698 68.914 149.698 68.568C149.699 68.3055 149.705 68.0433 149.71 67.8006C149.712 67.7237 149.713 67.6487 149.715 67.5763C149.721 67.2727 149.722 67.0175 149.709 66.843L149.952 66.7771C150.014 66.9066 150.06 67.0203 150.101 67.1194C150.109 67.1389 150.116 67.1578 150.124 67.1762C150.17 67.2894 150.211 67.3809 150.266 67.4676C150.352 67.6011 150.48 67.7338 150.742 67.9021C150.708 67.7459 150.662 67.5705 150.61 67.3831C150.581 67.2794 150.551 67.172 150.52 67.0629C150.461 66.8545 150.4 66.6399 150.346 66.4332C150.265 66.1181 150.198 65.8101 150.178 65.5523C150.168 65.4233 150.169 65.3014 150.189 65.1946C150.208 65.0884 150.248 64.9868 150.324 64.9111L150.409 64.8259L150.499 64.9053C150.642 65.0312 150.763 65.1873 150.871 65.3267C150.881 65.3392 150.891 65.3517 150.9 65.3639C150.941 65.4165 150.98 65.4657 151.018 65.5106C150.96 64.9615 150.759 64.3335 150.466 63.7502C150.115 63.0516 149.641 62.4361 149.148 62.1033C146.371 60.2366 144.423 60.0507 143.335 60.0482C143.197 60.0479 143.073 60.0505 142.962 60.0532C142.948 60.0535 142.935 60.0538 142.921 60.0542C142.826 60.0565 142.739 60.0586 142.663 60.0584C142.577 60.0582 142.498 60.0551 142.431 60.0447C142.365 60.0345 142.296 60.0153 142.24 59.9716C142.177 59.9227 142.146 59.8543 142.142 59.778C142.138 59.7086 142.156 59.6338 142.184 59.5575C142.212 59.4782 142.256 59.3839 142.314 59.2726Z" fill="black"/>
<path d="M137.782 70.116C138.321 69.0384 138.818 68.6968 139.166 68.0028C139.781 66.7832 139.869 65.813 140.405 65.9552C140.941 66.0974 140.941 66.597 140.246 67.796C139.552 68.9952 139.222 69.2514 137.782 70.116ZM141.427 72.684C141.358 71.8634 141.596 71.5208 141.553 70.9926C141.479 70.0628 141.098 69.4248 141.593 69.3794C142.087 69.3342 142.318 69.6514 142.32 70.5882C142.321 71.5252 142.176 71.7712 141.428 72.6842L141.427 72.684ZM144.193 74.292C143.977 73.1466 144.139 72.6386 144.001 71.9006C143.76 70.6022 143.284 69.7476 143.742 69.6288C144.2 69.51 144.477 69.93 144.65 71.2468C144.824 72.5634 144.732 72.9252 144.193 74.292ZM147.07 66.267C146.395 65.7542 146 65.7198 145.565 65.3904C144.797 64.8124 144.409 64.1934 144.162 64.5006C143.915 64.8078 144.091 65.1438 144.895 65.6772C145.699 66.2106 145.971 66.2526 147.07 66.267ZM146.593 70.068C146.237 69.3286 145.862 69.141 145.632 68.6652C145.225 67.8292 145.224 67.1058 144.783 67.2912C144.341 67.4766 144.306 67.8552 144.778 68.6646C145.25 69.4738 145.497 69.6204 146.593 70.068Z" fill="#CCCCCC"/>
<path d="M13.4538 61.1461C13.3812 60.4913 13.5214 60.4128 13.1184 59.919C13.705 60.1644 13.7272 60.8167 14.4404 60.3539C14.7022 60.2183 14.8164 60.2139 14.4982 59.4865C15.2418 59.5211 17.677 60.3561 18.067 60.3753C19.091 60.4225 20.9602 59.2996 22.2576 60.6802C23.503 61.939 23.0872 63.2454 23.0872 64.9888C22.5868 64.749 22.828 64.6308 22.297 64.0074C22.695 65.5312 22.2758 68.2786 22.2758 69.8946C22.0714 69.505 22.1014 69.674 21.9016 69.2706C21.3706 70.7456 20.7342 71.0493 20.7342 72.7927C20.5426 72.1091 20.7276 72.2534 20.5144 71.8938C19.9984 73.0138 16.5364 73.9708 17.8704 75.0996C16.6664 74.3936 16.1384 74.4678 15.5924 73.8328C15.357 73.9846 15.1702 74.272 14.9514 74.6658C12.8344 73.6918 13.5914 71.5909 11.9328 70.1875C11.6458 70.7759 11.7766 70.6906 11.4664 71.6482C11.1306 70.318 11.0388 69.4728 10.6612 68.4948C10.3354 69.0368 10.3644 68.829 9.77281 69.6484C9.52801 68.028 9.12961 67.6456 9.28721 66.5734C8.65841 67.017 9.07001 66.8374 8.44141 67.3834C9.03701 63.2314 11.6088 60.1632 13.4544 61.1458L13.4538 61.1461Z" fill="#333333"/>
<path fill-rule="evenodd" clip-rule="evenodd" d="M14.2481 59.3146L14.5054 59.3265C14.7088 59.336 15.0145 59.3985 15.3527 59.4818C15.6948 59.566 16.0836 59.675 16.4591 59.7828C16.5821 59.8181 16.7035 59.8532 16.8214 59.8874C17.065 59.9579 17.2939 60.0241 17.4918 60.0789C17.6385 60.1194 17.7662 60.1531 17.8685 60.1771C17.9744 60.202 18.0419 60.2137 18.0744 60.2154C18.3053 60.2259 18.5933 60.1703 18.9356 60.0926C18.9905 60.0801 19.0466 60.0671 19.1037 60.0539C19.3951 59.9866 19.7138 59.9128 20.0381 59.8691C20.8186 59.7638 21.6731 59.826 22.3725 60.5691C23.0258 61.2301 23.2448 61.9093 23.2988 62.641C23.3254 63.0028 23.3118 63.3777 23.2923 63.7652C23.2891 63.829 23.2857 63.8933 23.2823 63.9579C23.2649 64.2879 23.247 64.6287 23.247 64.9888V65.243L23.0178 65.1332C22.8845 65.0693 22.7887 65.008 22.7154 64.9367C22.6563 64.8792 22.6172 64.8203 22.585 64.7613C22.6487 65.418 22.6335 66.1746 22.5952 66.9246C22.5748 67.324 22.548 67.7213 22.5222 68.1038C22.4774 68.7666 22.4356 69.3852 22.4356 69.8946L22.1338 69.969C22.0413 69.7928 22.0017 69.7406 21.9651 69.6924C21.9631 69.6897 21.9611 69.687 21.9591 69.6844C21.949 69.6711 21.9391 69.6578 21.9288 69.6433C21.7797 70.0043 21.6251 70.2975 21.4856 70.5625C21.4052 70.7149 21.3298 70.858 21.2633 70.9992C21.0474 71.4571 20.894 71.9456 20.894 72.7926L20.5798 72.8358C20.4857 72.5 20.4777 72.3498 20.4731 72.2473C20.2963 72.4589 20.0487 72.6558 19.7878 72.8394C19.5964 72.9741 19.3896 73.1071 19.1852 73.2376C19.1651 73.2504 19.145 73.2632 19.125 73.276C18.9402 73.3939 18.7584 73.5098 18.5885 73.6257C18.2042 73.8877 17.9126 74.1289 17.7884 74.3566C17.7299 74.464 17.7145 74.558 17.7354 74.6472C17.757 74.7392 17.8229 74.85 17.9735 74.9774L17.7892 75.2377C17.298 74.9496 16.9243 74.7953 16.6077 74.6644C16.5436 74.6379 16.4817 74.6124 16.4218 74.5869C16.1035 74.4516 15.8361 74.317 15.5735 74.0492C15.4185 74.1906 15.272 74.4178 15.091 74.7436L15.019 74.8732L14.8842 74.8112C13.7646 74.2961 13.4054 73.4741 13.1186 72.6397C13.0895 72.555 13.0611 72.4704 13.0328 72.3861C12.8014 71.6956 12.5758 71.0225 11.9861 70.4516C11.9187 70.6064 11.8922 70.6997 11.8635 70.8173C11.8576 70.8415 11.8516 70.8668 11.8452 70.8937C11.8065 71.057 11.7533 71.2809 11.6184 71.6975L11.447 72.2265L11.3109 71.6874C11.1922 71.2169 11.1033 70.8046 11.0223 70.429C10.9884 70.2716 10.9558 70.1206 10.923 69.9745C10.8351 69.5826 10.7448 69.2217 10.6199 68.852C10.5539 68.9432 10.4997 69.0038 10.4348 69.0752L10.427 69.0839C10.3237 69.1975 10.1866 69.3483 9.90228 69.7421L9.67282 70.0599L9.61427 69.6723C9.5186 69.0391 9.40003 68.6012 9.29904 68.2281C9.27249 68.1301 9.24715 68.0365 9.22376 67.945C9.13691 67.6053 9.07871 67.2994 9.09324 66.9219C9.03546 66.9732 9.01605 67.0013 8.99643 67.0298L8.99576 67.0308C8.9927 67.0352 8.98956 67.0398 8.98629 67.0446C8.96144 67.0811 8.92905 67.1286 8.8695 67.1954C8.80367 67.2692 8.70604 67.3653 8.54608 67.5043L8.22168 67.786L8.28269 67.3607C8.58392 65.2608 9.38547 63.4273 10.3548 62.238C10.8392 61.6437 11.3722 61.2022 11.914 60.9745C12.3698 60.7829 12.8341 60.7424 13.2727 60.8928C13.2701 60.8417 13.2685 60.7953 13.2672 60.7525C13.267 60.7456 13.2668 60.7387 13.2665 60.732C13.2634 60.6319 13.2613 60.5615 13.2514 60.4958C13.233 60.3724 13.1864 60.2558 12.9941 60.0202L13.1799 59.7714C13.3503 59.8427 13.4774 59.9428 13.5805 60.038C13.621 60.0754 13.6593 60.1136 13.6938 60.148C13.7024 60.1565 13.7107 60.1648 13.7188 60.1727C13.761 60.2145 13.7971 60.2491 13.8323 60.2775C13.9004 60.3327 13.9537 60.3556 14.015 60.3556C14.0825 60.3555 14.1867 60.3275 14.353 60.2196L14.3596 60.2153L14.3665 60.2117C14.387 60.2011 14.4047 60.1921 14.4202 60.1843C14.4628 60.1627 14.4886 60.1496 14.5104 60.1338C14.5277 60.1213 14.5285 60.1169 14.5293 60.1123C14.5293 60.1119 14.5294 60.1115 14.5295 60.1111C14.5328 60.0942 14.5338 60.0508 14.5061 59.9537C14.4791 59.8594 14.43 59.7305 14.3513 59.5506L14.2481 59.3146ZM13.304 61.2499L13.3163 61.3609L13.8574 61.1792L13.6041 61.0444C13.5935 60.9261 13.5898 60.8287 13.5871 60.7425C13.5869 60.7338 13.5866 60.7252 13.5863 60.7166C13.5838 60.6327 13.5813 60.5523 13.5717 60.4752C13.5909 60.4928 13.6107 60.5101 13.631 60.5265C13.7309 60.6072 13.8536 60.6758 14.0153 60.6757C14.1691 60.6755 14.333 60.6131 14.5204 60.4925C14.5292 60.488 14.5384 60.4834 14.548 60.4785C14.5967 60.454 14.6539 60.4252 14.6983 60.393C14.7646 60.3449 14.8231 60.2768 14.8435 60.173C14.8617 60.0809 14.846 59.9784 14.8138 59.8658C14.798 59.8105 14.7769 59.7484 14.7504 59.6786C14.8977 59.7041 15.0761 59.7434 15.2761 59.7926C15.6119 59.8753 15.9957 59.9828 16.3708 60.0904C16.492 60.1252 16.6124 60.1601 16.7299 60.1941C16.9746 60.265 17.2067 60.3321 17.4065 60.3874C17.5545 60.4283 17.6869 60.4633 17.7953 60.4888C17.8999 60.5133 17.9937 60.5319 18.0589 60.5351L18.0594 60.5351C18.3404 60.5481 18.6699 60.4811 19.0065 60.4047C19.0638 60.3917 19.1216 60.3784 19.1797 60.3649C19.4711 60.2976 19.7728 60.2279 20.0809 60.1863C20.8148 60.0873 21.543 60.1538 22.1407 60.7898L22.1421 60.7913L22.1435 60.7928C22.7346 61.3902 22.93 61.9931 22.9795 62.6646C23.0046 63.0046 22.9921 63.3619 22.9726 63.7491C22.9694 63.8116 22.9661 63.8749 22.9627 63.939C22.9499 64.1816 22.9366 64.4351 22.9304 64.699C22.8979 64.6652 22.8754 64.6283 22.8465 64.5705C22.8381 64.5536 22.8295 64.5358 22.8203 64.5168C22.7557 64.3825 22.6638 64.1915 22.4186 63.9036L22.1419 64.0479C22.3338 64.7828 22.3307 65.8272 22.2755 66.9083C22.2559 67.2939 22.2295 67.6846 22.2039 68.0647C22.1732 68.5201 22.1435 68.9602 22.1275 69.3582C22.1056 69.3193 22.0789 69.2685 22.0447 69.1996L21.878 68.8629L21.7507 69.2164C21.5732 69.7097 21.3888 70.059 21.2149 70.3884C21.1315 70.5465 21.0504 70.7 20.9737 70.8627C20.8387 71.1491 20.7269 71.4475 20.6561 71.8195C20.6547 71.8171 20.6533 71.8147 20.6518 71.8122L20.4963 71.55L20.3688 71.8268C20.2597 72.0635 19.9812 72.3118 19.6036 72.5776C19.4188 72.7077 19.2177 72.8371 19.0129 72.9678C18.9928 72.9806 18.9727 72.9935 18.9525 73.0063C18.7684 73.1238 18.5824 73.2424 18.4082 73.3612C18.0293 73.6195 17.6733 73.8992 17.5074 74.2034C17.4285 74.348 17.3881 74.5061 17.4143 74.6721C17.1493 74.5417 16.9234 74.4484 16.727 74.3673C16.664 74.3413 16.6041 74.3166 16.547 74.2923C16.2053 74.1471 15.963 74.0187 15.7135 73.7285L15.6226 73.6227L15.5054 73.6983C15.263 73.8546 15.0755 74.126 14.8857 74.4561C13.9915 73.9961 13.6872 73.3091 13.4213 72.5356C13.3928 72.4527 13.3647 72.3684 13.3363 72.2833C13.088 71.5392 12.8166 70.7259 12.0359 70.0652L11.8789 69.9324L11.7887 70.1173C11.6407 70.4207 11.5975 70.5573 11.5525 70.7414C11.5465 70.7663 11.5404 70.792 11.5339 70.8191C11.5196 70.8795 11.5035 70.9472 11.4822 71.0294C11.4288 70.7956 11.3816 70.5769 11.3365 70.3674C11.3022 70.2085 11.2692 70.055 11.2354 69.9044C11.1226 69.4016 11.0032 68.937 10.8102 68.4372L10.6924 68.1319L10.5237 68.4124C10.3669 68.6733 10.2992 68.7486 10.1979 68.86L10.192 68.8665C10.1147 68.9515 10.0202 69.0556 9.8683 69.2519C9.7829 68.7898 9.68747 68.4375 9.60657 68.1389C9.58057 68.0429 9.55607 67.9525 9.53388 67.8657C9.42644 67.4455 9.37062 67.1045 9.44527 66.5967L9.49953 66.2276L9.19466 66.4426C8.87598 66.6675 8.80282 66.7466 8.73214 66.8492C8.72861 66.8544 8.72519 66.8594 8.72179 66.8643C8.70835 66.884 8.69535 66.9031 8.67826 66.9252C9.01838 65.0774 9.74928 63.4876 10.6029 62.4403C11.0666 61.8713 11.5599 61.4705 12.038 61.2696C12.4835 61.0823 12.9125 61.069 13.304 61.2499Z" fill="black"/>
<path d="M10.8486 67.9241C11.3942 66.5873 11.8858 66.1675 12.2384 65.3069C12.8608 63.7943 12.9622 62.5849 13.485 62.7695C14.008 62.9539 13.9996 63.5769 13.3 65.0629C12.6004 66.5495 12.273 66.8645 10.8486 67.9237V67.9241ZM12.9138 71.2691C13.1326 70.0707 13.4776 69.6341 13.6194 68.8623C13.8712 67.5051 13.7308 66.4943 14.2168 66.5477C14.7028 66.6009 14.8126 67.1133 14.4892 68.4633C14.1658 69.8135 13.9428 70.1331 12.9138 71.2691ZM15.384 73.5941C15.4456 72.4321 15.718 71.9787 15.7588 71.2301C15.8326 69.9137 15.5792 68.9715 16.0426 68.9661C16.506 68.9607 16.6712 69.4341 16.5292 70.7519C16.3872 72.0699 16.2158 72.3987 15.384 73.5941ZM20.6884 65.9951C19.6742 64.9847 19.061 64.7959 18.4066 64.1461C17.254 63.0049 16.6972 61.9333 16.2868 62.3131C15.8764 62.6931 16.1234 63.2623 17.3368 64.3483C18.5504 65.4343 18.9724 65.5927 20.6884 65.9951ZM20.0704 69.9011C19.4098 68.8865 18.925 68.6237 18.4984 67.9709C17.7464 66.8237 17.4876 65.8379 17.0614 66.0821C16.6348 66.3263 16.7302 66.8413 17.5454 67.9535C18.3604 69.0653 18.6882 69.2699 20.0704 69.9015V69.9011Z" fill="#CCCCCC"/>
<path d="M122.074 59.9999C113.503 68.5705 102.074 85.7139 79.2164 85.7139C59.2164 85.7139 44.9324 68.5715 36.3584 59.9999C44.9298 51.4277 59.2144 34.2859 79.2164 34.2859C102.072 34.2859 113.5 51.4285 122.074 59.9999Z" fill="white"/>
<path d="M76.2241 43.23C78.5046 45.7946 76.6004 46.8288 79.0142 46.997C81.5596 47.184 80.1166 49.7072 82.2577 49.795C83.7547 49.8604 82.1083 55.8402 83.5491 57.8136C85.0171 59.8708 86.2465 58.4164 86.2723 59.9024C86.2977 61.4396 82.2771 61.2846 82.2067 66.0194C82.0887 68.7482 78.8138 68.9228 78.6574 70.6788C78.463 72.3302 85.1096 73.2572 85.0207 74.7356C84.9296 76.2096 77.8442 75.9788 77.5358 77.6598C77.3778 79.1698 87.2695 80.4072 88.0651 84.7738C86.5891 85.2564 82.3893 85.7108 79.2153 85.7132C59.2183 85.7276 44.9314 68.5692 36.3604 59.9984C44.9318 51.4264 59.2168 34.2836 79.2183 34.2836C79.2183 34.2836 73.2818 39.7082 76.2272 43.2282L76.2241 43.23Z" fill="black"/>
<path fill-rule="evenodd" clip-rule="evenodd" d="M36.5721 59.9999C37.4362 60.8662 38.3568 61.8164 39.3338 62.8249C43.1987 66.8141 47.9481 71.7164 53.5933 75.9504C60.7219 81.2967 69.2614 85.5628 79.2164 85.5628C98.4646 85.5628 109.569 73.3727 117.737 64.4062C119.196 62.8055 120.56 61.3075 121.861 60C120.559 58.6916 119.193 57.1926 117.734 55.5908C109.564 46.6242 98.461 34.4372 79.2164 34.4372C69.2604 34.4372 60.7202 38.7031 53.5916 44.0494C47.9432 48.2855 43.192 53.1908 39.3268 57.1814C38.3523 58.1875 37.4341 59.1355 36.5721 59.9999ZM53.4102 43.8074C60.5672 38.4398 69.1704 34.1348 79.2164 34.1348C98.6073 34.1348 109.812 46.4396 117.977 55.4061C119.47 57.0451 120.86 58.5726 122.181 59.893L122.288 60L122.181 60.1069C120.862 61.4264 119.472 62.9529 117.981 64.5909C109.817 73.5573 98.611 85.8652 79.2164 85.8652C69.1713 85.8652 60.5689 81.56 53.4119 76.1923C47.7453 71.9423 42.9739 67.0171 39.1083 63.0269C38.0935 61.9794 37.1412 60.9964 36.2515 60.1069L36.1445 60L36.2515 59.8931C37.1391 59.0053 38.0891 58.0245 39.1013 56.9794C42.9673 52.9878 47.7405 48.0596 53.4102 43.8074Z" fill="black"/>
<path d="M54.4365 57.7139V50.8568H52.3584V57.7139H54.4365Z" fill="white"/>
<path d="M56.5134 50.8568V57.7139H58.5915V50.8568H56.5134Z" fill="white"/>
<path d="M60.6714 50.8568V57.7139H62.7495V50.8568H60.6714Z" fill="white"/>
<path d="M54.4365 69.1439V62.2868H52.3584V69.1439H54.4365Z" fill="white"/>
<path d="M56.5134 62.2868V69.1439H58.5915V62.2868H56.5134Z" fill="white"/>
<path d="M60.6714 62.2868V69.1439H62.7495V62.2868H60.6714Z" fill="white"/>
<path d="M66.9045 50.8568V57.7139H64.8264V50.8568H66.9045Z" fill="white"/>
<path d="M68.9814 57.7139V50.8568H71.0595V57.7139H68.9814Z" fill="white"/>
<path d="M73.1394 57.7139V50.8568H75.2175V57.7139H73.1394Z" fill="white"/>
<path d="M66.9045 69.1439V62.2868H64.8264V69.1439H66.9045Z" fill="white"/>
<path d="M68.9814 62.2868V69.1439H71.0595V62.2868H68.9814Z" fill="white"/>
<path d="M73.1394 62.2868V69.1439H75.2175V62.2868H73.1394Z" fill="white"/>
<path d="M85.8642 57.7139V50.8568H83.7861V57.7139H85.8642Z" fill="black"/>
<path d="M87.9411 50.8568V57.7139H90.0192V50.8568H87.9411Z" fill="black"/>
<path d="M92.0991 50.8568V57.7139H94.1772V50.8568H92.0991Z" fill="black"/>
<path d="M85.8642 69.1439V62.2868H83.7861V69.1439H85.8642Z" fill="black"/>
<path d="M87.9411 62.2868V69.1439H90.0192V62.2868H87.9411Z" fill="black"/>
<path d="M92.0991 62.2868V69.1439H94.1772V62.2868H92.0991Z" fill="black"/>
<path d="M98.3322 50.8568V57.7139H96.2541V50.8568H98.3322Z" fill="black"/>
<path d="M100.409 57.7139V50.8568H102.487V57.7139H100.409Z" fill="black"/>
<path d="M104.567 57.7139V50.8568H106.645V57.7139H104.567Z" fill="black"/>
<path d="M98.3322 69.1439V62.2868H96.2541V69.1439H98.3322Z" fill="black"/>
<path d="M100.409 62.2868V69.1439H102.487V62.2868H100.409Z" fill="black"/>
<path d="M104.567 62.2868V69.1439H106.645V62.2868H104.567Z" fill="black"/>
<path d="M65.3581 38.85C64.1707 41.1464 67.4371 38.0862 72.5575 41.9308C73.5065 42.645 74.8667 45.4668 74.8667 46.7748C73.7765 46.5428 71.8459 45.4668 71.8459 45.4668C71.8459 45.4668 74.1115 47.736 74.1115 50.352C73.3111 49.8516 72.9107 49.9266 72.6445 49.3122C72.6445 50.159 73.3565 50.6988 73.3565 52.0068C72.8695 51.6155 72.3488 51.2682 71.8005 50.9688C72.5557 52.2768 70.4245 54.8142 71.4911 55.6612C69.6257 55.3914 67.7171 54.1996 66.9619 52.8916C66.5617 53.1612 66.5183 53.5848 66.5027 54.0362C66.5615 54.0852 63.6631 51.885 63.9295 51.0398C63.5407 51.5852 63.4861 51.885 63.3973 52.4998C62.3327 51.4498 61.3567 50.3998 61.0015 49.0422C60.5285 49.6568 60.4987 49.6568 60.0255 50.2716C59.6707 48.1202 59.6707 48.197 60.3805 46.3532C59.8777 46.6862 59.4637 47.0192 58.9609 47.4292C59.4369 44.3136 61.8655 40.6602 65.3585 38.8508L65.3581 38.85Z" fill="#333333"/>
<path fill-rule="evenodd" clip-rule="evenodd" d="M65.3606 38.5758L65.5238 38.9048L65.4498 38.9431C65.3143 39.2095 65.2513 39.3836 65.24 39.4963C65.2344 39.5522 65.2429 39.5819 65.2518 39.5983C65.26 39.6134 65.2756 39.6301 65.312 39.646C65.3943 39.6821 65.5375 39.6959 65.7646 39.6963C65.864 39.6965 65.9746 39.6943 66.0975 39.6918C66.1106 39.6916 66.1238 39.6913 66.1372 39.691C66.2755 39.6883 66.4279 39.6856 66.5928 39.6859C67.9198 39.6885 70.0449 39.8891 72.6321 41.8317C72.8857 42.0226 73.1579 42.3463 73.4215 42.7355C73.6865 43.1269 73.9485 43.593 74.1799 44.0766C74.64 45.0378 74.9908 46.0914 74.9908 46.7748V46.9278L74.8411 46.896C74.2799 46.7765 73.5126 46.4433 72.8939 46.1454C72.7097 46.0567 72.5375 45.9705 72.3863 45.8932C72.5879 46.1412 72.8357 46.4707 73.0836 46.8621C73.6555 47.7651 74.2356 49.0101 74.2356 50.352V50.5755L74.046 50.457C73.7776 50.2892 73.5642 50.1919 73.3762 50.1062C73.2864 50.0653 73.2024 50.027 73.121 49.9849C73.0259 49.9358 72.9371 49.8822 72.8554 49.8142C72.9075 49.9731 72.9787 50.1326 73.0568 50.3075C73.0755 50.3496 73.0947 50.3925 73.1141 50.4366C73.2947 50.8469 73.4806 51.3274 73.4806 52.0068V52.2652L73.2791 52.1034C72.8883 51.7894 72.4755 51.504 72.0439 51.2494C72.1132 51.5326 72.0984 51.8428 72.043 52.1562C71.969 52.5744 71.8187 53.0189 71.6755 53.4422C71.6658 53.4707 71.6562 53.4991 71.6466 53.5275C71.4931 53.9823 71.3555 54.4061 71.3192 54.767C71.2831 55.1255 71.3495 55.3904 71.5684 55.5641L71.9277 55.8495L71.4736 55.7838C70.5223 55.6462 69.5629 55.2742 68.7455 54.7712C67.9782 54.2991 67.3284 53.7068 66.9285 53.0753C66.6785 53.3059 66.6407 53.6357 66.6267 54.0404L66.6125 54.04C66.582 54.1138 66.4952 54.1599 66.4646 54.1545C66.4567 54.1516 66.4459 54.1465 66.4427 54.1448C66.4418 54.1443 66.4406 54.1435 66.4395 54.1429C66.4385 54.1423 66.4376 54.1417 66.4371 54.1414C66.4326 54.1386 66.428 54.1352 66.4269 54.1343L66.4267 54.1342C66.422 54.1308 66.4149 54.1254 66.4058 54.1185C66.3873 54.1045 66.3589 54.0826 66.322 54.0538C66.2482 53.9961 66.1401 53.9103 66.0096 53.8033C65.7489 53.5896 65.398 53.2907 65.0531 52.9631C64.7092 52.6364 64.3672 52.2775 64.1271 51.9438C64.0072 51.7771 63.9094 51.6122 63.8504 51.4573C63.845 51.443 63.8398 51.4287 63.835 51.4143C63.7608 51.5448 63.7086 51.663 63.6687 51.7829C63.5993 51.9908 63.5647 52.2087 63.5201 52.5175L63.4851 52.7602L63.3105 52.588C62.3084 51.5996 61.3616 50.5907 60.9507 49.3101C60.8035 49.4983 60.7065 49.6169 60.6097 49.7352L60.6094 49.7355C60.4842 49.8886 60.3593 50.0413 60.1239 50.3471L59.9499 50.5732L59.9035 50.2917C59.898 50.2585 59.8926 50.2259 59.8873 50.1937C59.7217 49.1903 59.6358 48.6701 59.6806 48.1856C59.7202 47.7574 59.8617 47.3586 60.1213 46.6822C59.7607 46.9398 59.4278 47.2085 59.0394 47.5252L58.79 47.7285L58.8386 47.4105C59.319 44.266 61.7573 40.5933 65.2656 38.7596L65.3606 38.5758ZM65.0864 39.1386C61.9234 40.9173 59.703 44.2216 59.1397 47.1244C59.5346 46.8055 59.8927 46.5277 60.3123 46.2499L60.6357 46.0357L60.4963 46.3977C60.481 46.4376 60.466 46.4765 60.4513 46.5146C60.1243 47.3635 59.9679 47.7693 59.9274 48.2084C59.8887 48.6272 59.9551 49.0781 60.1018 49.9716C60.2353 49.8015 60.3267 49.6898 60.4179 49.5783C60.5432 49.4252 60.6681 49.2725 60.9035 48.9666L61.0576 48.7664L61.1216 49.0108C61.4483 50.2595 62.3164 51.247 63.3113 52.2398C63.343 52.0428 63.3778 51.8718 63.4336 51.7046C63.5118 51.4699 63.6294 51.2476 63.8288 50.9678L64.0479 51.077C64.0265 51.1448 64.0331 51.2405 64.082 51.3691C64.1303 51.4961 64.2148 51.6414 64.3282 51.7991C64.5549 52.1141 64.8838 52.4606 65.2238 52.7835C65.5629 53.1055 65.9089 53.4003 66.1668 53.6117C66.2529 53.6823 66.3291 53.7435 66.3917 53.7933C66.4218 53.4182 66.5159 53.0427 66.8929 52.7888L67.003 52.7146L67.0694 52.8296C67.4338 53.4607 68.0823 54.0722 68.8753 54.5602C69.5731 54.9895 70.376 55.3191 71.1823 55.4819C71.0676 55.2668 71.0456 55.0105 71.0726 54.7422C71.1123 54.3482 71.2603 53.8971 71.4118 53.4482C71.4209 53.4215 71.4299 53.3947 71.439 53.368C71.5838 52.9395 71.7284 52.512 71.799 52.1131C71.874 51.6887 71.8605 51.3202 71.6934 51.0307L71.4727 50.6485L71.8601 50.86C72.3361 51.12 72.7916 51.4156 73.2226 51.7444C73.1833 51.2504 73.0372 50.877 72.8873 50.5364C72.8683 50.4932 72.849 50.4502 72.8298 50.4074C72.6739 50.0595 72.5208 49.7179 72.5208 49.3122L72.7584 49.2629C72.8198 49.4047 72.8866 49.5014 72.9611 49.5757C73.0362 49.6505 73.124 49.7075 73.2348 49.7647C73.2998 49.7983 73.3748 49.8326 73.459 49.8711C73.6066 49.9386 73.7826 50.0191 73.9824 50.1313C73.9237 48.9401 73.4026 47.8289 72.8742 46.9947C72.5946 46.5531 72.3148 46.1922 72.1051 45.9418C72.0003 45.8166 71.9131 45.7192 71.8524 45.6534C71.822 45.6205 71.7983 45.5954 71.7822 45.5788C71.7742 45.5704 71.7681 45.5642 71.7641 45.5601L71.7597 45.5556L71.7584 45.5543C71.7584 45.5543 71.7584 45.5543 71.7586 45.5541L71.9064 45.3585L71.9067 45.3587L71.9077 45.3593L71.9117 45.3615L71.9279 45.3704C71.9421 45.3782 71.9632 45.3898 71.9904 45.4046C72.0449 45.4343 72.1241 45.477 72.2226 45.5289C72.4197 45.6329 72.6937 45.774 73.0014 45.9221C73.5619 46.192 74.2239 46.4804 74.7367 46.6161C74.689 45.9872 74.3768 45.0617 73.9564 44.1836C73.7292 43.709 73.4732 43.2539 73.2163 42.8745C72.9579 42.4929 72.7041 42.196 72.4832 42.0298C69.9501 40.1278 67.8818 39.9362 66.5923 39.9337C66.4303 39.9334 66.2802 39.9361 66.1421 39.9388C66.1286 39.939 66.1153 39.9393 66.1021 39.9396C65.9798 39.942 65.8664 39.9443 65.7641 39.9441C65.5443 39.9437 65.3494 39.933 65.2125 39.873C65.1392 39.8408 65.0749 39.7916 65.0342 39.7168C64.9942 39.6433 64.9847 39.5594 64.9934 39.4717C65.0028 39.3776 65.0346 39.2673 65.0864 39.1386Z" fill="black"/>
<path d="M62.4307 50.0699C62.6207 48.4875 63.0343 47.8913 63.1579 46.8723C63.3785 45.0801 63.1167 43.7699 63.7519 43.8033C64.3871 43.8363 64.5699 44.4973 64.2559 46.2861C63.9421 48.0743 63.6773 48.5085 62.4307 50.0699ZM65.7457 52.9679C65.6171 51.6329 65.8637 51.0645 65.7817 50.2043C65.6407 48.6911 65.1733 47.6661 65.7269 47.5719C66.2803 47.4777 66.5603 47.9853 66.6199 49.5131C66.6797 51.0411 66.5317 51.4481 65.7455 52.9679H65.7457ZM70.9207 55.3319C70.3579 54.1765 69.8743 53.8321 69.5111 53.0885C68.8693 51.7817 68.7351 50.7145 68.2403 50.9077C67.7453 51.1013 67.7725 51.6533 68.4875 52.9325C69.2023 54.2117 69.5255 54.4727 70.9207 55.3319ZM72.7117 44.9849C71.2783 44.2303 70.5421 44.2209 69.6185 43.7359C67.9919 42.8859 67.0451 41.9255 66.7091 42.4541C66.3727 42.9827 66.8215 43.5083 68.4985 44.2811C70.1755 45.0539 70.6905 45.0905 72.7119 44.9849H72.7117ZM73.2367 49.3079C72.1931 48.4397 71.5759 48.3119 70.9027 47.7533C69.7167 46.7733 69.1267 45.8105 68.7305 46.2009C68.3345 46.5911 68.5991 47.1065 69.8437 48.0299C71.0885 48.9533 71.5141 49.0679 73.2367 49.3079Z" fill="#CCCCCC"/>
</svg>
