<svg width="160" height="120" viewBox="0 0 160 120" fill="none" xmlns="http://www.w3.org/2000/svg">
<g clip-path="url(#clip0_909_309483)">
<path d="M0 0H160V120H0V0Z" fill="#0F3296"/>
<path d="M0 22.5H160V97.5H0V22.5Z" fill="#FDD406"/>
<path d="M0 30H160V90H0V30Z" fill="#A30904"/>
<path d="M137.073 46.2839L129.788 48.8552L137.073 51.4265L144.359 48.8552L137.073 46.2839Z" fill="white"/>
<path fill-rule="evenodd" clip-rule="evenodd" d="M137.073 46.1235L144.813 48.8552L137.073 51.5868L129.333 48.8552L137.073 46.1235ZM130.242 48.8552L137.073 51.2661L143.904 48.8552L137.073 46.4442L130.242 48.8552Z" fill="black"/>
<path d="M132.28 47.9998H27.005C26.4904 47.9998 26.0732 48.3835 26.0732 48.8569C26.0732 49.3302 26.4904 49.714 27.005 49.714H132.28C132.795 49.714 133.212 49.3302 133.212 48.8569C133.212 48.3835 132.795 47.9998 132.28 47.9998Z" fill="#FDD406"/>
<path fill-rule="evenodd" clip-rule="evenodd" d="M27.0051 48.151C26.5619 48.151 26.2245 48.4787 26.2245 48.8569C26.2245 49.2351 26.5619 49.5628 27.0051 49.5628H132.281C132.724 49.5628 133.061 49.2351 133.061 48.8569C133.061 48.4787 132.724 48.151 132.281 48.151H27.0051ZM25.9221 48.8569C25.9221 48.2884 26.4191 47.8486 27.0051 47.8486H132.281C132.866 47.8486 133.364 48.2884 133.364 48.8569C133.364 49.4254 132.866 49.8652 132.281 49.8652H27.0051C26.4191 49.8652 25.9221 49.4254 25.9221 48.8569Z" fill="black"/>
<path d="M130.65 49.713C131.078 49.713 131.508 49.2843 131.508 48.8559C131.508 48.4275 131.079 47.9988 130.651 47.9988M129.792 49.713C130.22 49.713 130.65 49.2843 130.65 48.8559C130.65 48.4275 130.221 47.9988 129.793 47.9988M128.934 49.713C129.362 49.713 129.792 49.2843 129.792 48.8559C129.792 48.4275 129.363 47.9988 128.935 47.9988" fill="#FDD406"/>
<path fill-rule="evenodd" clip-rule="evenodd" d="M129.631 48.1596C129.813 48.3414 129.943 48.5922 129.943 48.8557C129.943 49.1192 129.813 49.37 129.631 49.5519C129.448 49.7338 129.198 49.864 128.934 49.864V49.5616C129.099 49.5616 129.277 49.4775 129.417 49.3379C129.557 49.1984 129.641 49.0206 129.641 48.8557C129.641 48.6908 129.557 48.513 129.417 48.3735C129.277 48.2339 129.099 48.1498 128.935 48.1498V47.8474C129.198 47.8474 129.449 47.9777 129.631 48.1596ZM130.489 48.1596C130.671 48.3414 130.801 48.5922 130.801 48.8557C130.801 49.1192 130.671 49.37 130.489 49.5519C130.306 49.7338 130.056 49.864 129.792 49.864V49.5616C129.957 49.5616 130.135 49.4775 130.275 49.3379C130.415 49.1984 130.499 49.0206 130.499 48.8557C130.499 48.6908 130.415 48.513 130.275 48.3735C130.135 48.2339 129.957 48.1498 129.793 48.1498V47.8474C130.056 47.8474 130.307 47.9777 130.489 48.1596ZM131.347 48.1596C131.529 48.3414 131.659 48.5922 131.659 48.8557C131.659 49.1192 131.529 49.37 131.347 49.5519C131.164 49.7338 130.914 49.864 130.65 49.864V49.5616C130.815 49.5616 130.993 49.4775 131.133 49.3379C131.273 49.1984 131.357 49.0206 131.357 48.8557C131.357 48.6908 131.273 48.513 131.133 48.3735C130.993 48.2339 130.815 48.1498 130.651 48.1498V47.8474C130.914 47.8474 131.165 47.9777 131.347 48.1596Z" fill="black"/>
<path d="M130.092 51.429L122.807 54.0003L130.092 56.5716L137.378 54.0003L130.092 51.429Z" fill="white"/>
<path fill-rule="evenodd" clip-rule="evenodd" d="M130.092 51.2686L137.832 54.0002L130.092 56.7318L122.353 54.0002L130.092 51.2686ZM123.261 54.0002L130.092 56.4112L136.924 54.0002L130.092 51.5892L123.261 54.0002Z" fill="black"/>
<path d="M125.299 53.145H20.0241C19.5095 53.145 19.0923 53.5288 19.0923 54.0021C19.0923 54.4755 19.5095 54.8592 20.0241 54.8592H125.299C125.814 54.8592 126.231 54.4755 126.231 54.0021C126.231 53.5288 125.814 53.145 125.299 53.145Z" fill="#FDD406"/>
<path fill-rule="evenodd" clip-rule="evenodd" d="M20.0242 53.2961C19.5809 53.2961 19.2436 53.6237 19.2436 54.002C19.2436 54.3802 19.5809 54.7079 20.0242 54.7079H125.3C125.743 54.7079 126.08 54.3802 126.08 54.002C126.08 53.6237 125.743 53.2961 125.3 53.2961H20.0242ZM18.9412 54.002C18.9412 53.4334 19.4382 52.9937 20.0242 52.9937H125.3C125.886 52.9937 126.383 53.4334 126.383 54.002C126.383 54.5705 125.886 55.0103 125.3 55.0103H20.0242C19.4382 55.0103 18.9412 54.5705 18.9412 54.002Z" fill="black"/>
<path d="M123.669 54.858C124.097 54.858 124.527 54.4293 124.527 54.0009C124.527 53.5725 124.098 53.1438 123.67 53.1438M122.811 54.858C123.239 54.858 123.669 54.4293 123.669 54.0009C123.669 53.5725 123.24 53.1438 122.812 53.1438M121.953 54.858C122.381 54.858 122.811 54.4293 122.811 54.0009C122.811 53.5725 122.382 53.1438 121.954 53.1438" fill="#FDD406"/>
<path fill-rule="evenodd" clip-rule="evenodd" d="M122.65 53.3046C122.832 53.4865 122.962 53.7373 122.962 54.0007C122.962 54.2642 122.832 54.515 122.65 54.6969C122.468 54.8788 122.217 55.009 121.953 55.009V54.7066C122.118 54.7066 122.296 54.6225 122.436 54.483C122.576 54.3434 122.66 54.1656 122.66 54.0007C122.66 53.8358 122.576 53.658 122.436 53.5185C122.296 53.3789 122.119 53.2948 121.954 53.2948V52.9924C122.217 52.9924 122.468 53.1227 122.65 53.3046ZM123.508 53.3046C123.69 53.4865 123.82 53.7373 123.82 54.0007C123.82 54.2642 123.69 54.515 123.508 54.6969C123.326 54.8788 123.075 55.009 122.811 55.009V54.7066C122.976 54.7066 123.154 54.6225 123.294 54.483C123.434 54.3434 123.518 54.1656 123.518 54.0007C123.518 53.8358 123.434 53.658 123.294 53.5185C123.154 53.3789 122.977 53.2948 122.812 53.2948V52.9924C123.075 52.9924 123.326 53.1227 123.508 53.3046ZM124.366 53.3046C124.548 53.4865 124.678 53.7373 124.678 54.0007C124.678 54.2642 124.548 54.515 124.366 54.6969C124.184 54.8788 123.933 55.009 123.669 55.009V54.7066C123.834 54.7066 124.012 54.6225 124.152 54.483C124.292 54.3434 124.376 54.1656 124.376 54.0007C124.376 53.8358 124.292 53.658 124.152 53.5185C124.012 53.3789 123.835 53.2948 123.67 53.2948V52.9924C123.933 52.9924 124.184 53.1227 124.366 53.3046Z" fill="black"/>
<path d="M151.605 58.7158H8.42931C7.72946 58.7158 7.16211 59.2914 7.16211 60.0015C7.16211 60.7115 7.72946 61.2871 8.42931 61.2871H151.605C152.305 61.2871 152.872 60.7115 152.872 60.0015C152.872 59.2914 152.305 58.7158 151.605 58.7158Z" fill="#FDD406"/>
<path fill-rule="evenodd" clip-rule="evenodd" d="M8.4292 58.878C7.82101 58.878 7.324 59.3788 7.324 60.0016C7.324 60.6244 7.82102 61.1253 8.4292 61.1253H151.605C152.213 61.1253 152.71 60.6244 152.71 60.0016C152.71 59.3788 152.213 58.878 151.605 58.878H8.4292ZM7 60.0016C7 59.2043 7.63768 58.554 8.4292 58.554H151.605C152.396 58.554 153.034 59.2043 153.034 60.0016C153.034 60.7989 152.396 61.4493 151.605 61.4493H8.4292C7.63768 61.4493 7 60.7989 7 60.0016Z" fill="black"/>
<path d="M142.623 58.98C141.325 61.2288 143.62 58.232 149.219 61.9968C150.257 62.6962 151.163 64.5436 151.163 65.8246C150.9 65.6484 150.704 65.2564 150.414 65.0016C150.008 65.4086 150.802 67.2748 150.918 68.1566C150.043 67.6668 150.127 67.4348 149.836 66.8328C149.894 67.5606 149.686 69.5648 150.034 70.3368C149.344 70.1396 149.39 69.5844 149.03 69.4728C149.275 70.3464 148.816 71.2972 148.938 72.2794C148.535 71.8804 148.105 71.5678 147.918 71.4066C147.887 71.8742 147.143 73.1034 147.126 73.5456C146.784 73.339 146.691 73.0168 146.634 72.7998C146.209 73.334 144.698 75.3072 144.601 75.909C143.436 74.8806 140.454 72.3764 140.066 71.0472C139.722 71.8016 139.226 72.0564 138.244 72.6072C137.856 70.5006 136.405 68.1328 137.181 66.327C136.631 66.653 136.178 66.9792 135.629 67.3804C136.149 64.3294 138.805 60.7518 142.624 58.98H142.623Z" fill="#333333"/>
<path fill-rule="evenodd" clip-rule="evenodd" d="M142.549 58.8518H142.624L142.657 58.9994L142.734 59.0442C142.571 59.3268 142.471 59.5162 142.425 59.6443C142.402 59.7086 142.397 59.7452 142.398 59.7638C142.398 59.767 142.399 59.7692 142.399 59.7705C142.405 59.7745 142.423 59.784 142.47 59.7912C142.517 59.7986 142.58 59.8017 142.664 59.8019C142.736 59.8021 142.819 59.8001 142.915 59.7977C142.928 59.7974 142.941 59.7971 142.955 59.7968C143.067 59.7941 143.194 59.7914 143.335 59.7917C144.469 59.7943 146.468 59.9923 149.291 61.8904C149.834 62.257 150.333 62.915 150.695 63.6351C151.057 64.3559 151.291 65.158 151.291 65.8247V66.0647L151.092 65.9313C150.94 65.8297 150.813 65.6704 150.697 65.5213C150.688 65.5099 150.68 65.4984 150.671 65.487C150.596 65.3908 150.524 65.2973 150.446 65.2133C150.444 65.2221 150.442 65.2314 150.441 65.2412C150.426 65.3178 150.424 65.4154 150.433 65.5324C150.451 65.7665 150.514 66.0565 150.594 66.369C150.647 66.5731 150.706 66.7821 150.765 66.9885C150.796 67.0983 150.827 67.2075 150.857 67.3147C150.941 67.6196 151.015 67.9095 151.045 68.1399L151.079 68.3935L150.856 68.2686C150.41 68.0191 150.191 67.826 150.05 67.6061C150.021 67.5609 149.996 67.5154 149.973 67.4693C149.972 67.506 149.972 67.5434 149.971 67.5813C149.969 67.6549 149.968 67.7306 149.966 67.808C149.961 68.0502 149.955 68.3087 149.955 68.5685C149.954 68.9111 149.962 69.2519 149.992 69.5534C150.022 69.8575 150.073 70.1106 150.151 70.2841L150.265 70.5361L149.999 70.4602C149.615 70.3503 149.432 70.1363 149.302 69.9445C149.278 69.909 149.258 69.877 149.239 69.8476C149.233 69.8386 149.227 69.8298 149.222 69.8212C149.252 70.1653 149.207 70.5133 149.157 70.854C149.151 70.8929 149.146 70.9318 149.14 70.9705C149.075 71.4059 149.012 71.8321 149.065 72.2637L149.111 72.631L148.848 72.3706C148.563 72.0884 148.271 71.8554 148.054 71.6826C148.036 71.6683 148.018 71.6543 148.002 71.6408C147.976 71.7299 147.941 71.8257 147.903 71.9232C147.828 72.1126 147.731 72.3245 147.636 72.5319L147.633 72.5389C147.537 72.7502 147.443 72.9566 147.372 73.1376C147.299 73.3231 147.257 73.4643 147.254 73.5505L147.246 73.7679L147.059 73.6554C146.791 73.4933 146.659 73.2677 146.584 73.0712C146.338 73.3868 145.955 73.8921 145.599 74.4025C145.379 74.7188 145.17 75.0354 145.01 75.309C144.931 75.4459 144.864 75.5705 144.815 75.6779C144.765 75.787 144.737 75.8713 144.727 75.9294L144.69 76.1593L144.516 76.0052C144.407 75.9091 144.282 75.7998 144.145 75.6796C143.549 75.1591 142.718 74.4331 141.952 73.6826C141.481 73.2205 141.031 72.7468 140.674 72.3035C140.407 71.9715 140.186 71.6496 140.049 71.3579C139.707 71.9355 139.22 72.2078 138.435 72.647C138.393 72.6706 138.35 72.6946 138.306 72.7191L138.15 72.8068L138.117 72.6305C138.022 72.1127 137.861 71.5764 137.683 71.031C137.631 70.8718 137.577 70.7115 137.524 70.5508C137.394 70.1637 137.264 69.7739 137.153 69.3902C136.876 68.437 136.702 67.4849 136.941 66.6246C136.525 66.8874 136.148 67.1602 135.704 67.484L135.449 67.6703L135.502 67.3589C136.029 64.2718 138.699 60.675 142.532 58.8815L142.549 58.8518ZM142.314 59.2726C138.854 61.0163 136.431 64.2502 135.816 67.0851C136.255 66.7677 136.651 66.4922 137.115 66.2167L137.454 66.016L137.299 66.3777C136.93 67.236 137.085 68.2403 137.399 69.3186C137.509 69.6972 137.637 70.0793 137.765 70.4643C137.819 70.6261 137.873 70.7885 137.927 70.9514C138.086 71.4393 138.235 71.929 138.335 72.4089C139.219 71.9134 139.643 71.6658 139.949 70.9941L140.092 70.6798L140.189 71.0113C140.278 71.3179 140.524 71.7072 140.874 72.1426C141.222 72.5748 141.664 73.0407 142.132 73.4994C142.892 74.2441 143.715 74.9638 144.311 75.4845C144.39 75.5535 144.465 75.619 144.535 75.6806C144.549 75.6451 144.565 75.6086 144.582 75.5713C144.636 75.4535 144.706 75.321 144.789 75.1799C144.953 74.8977 145.167 74.5747 145.389 74.2558C145.834 73.6176 146.32 72.9885 146.533 72.72L146.693 72.5198L146.758 72.7673C146.803 72.9383 146.865 73.1489 147.038 73.3176C147.062 73.2312 147.096 73.1382 147.133 73.0437C147.207 72.8552 147.304 72.6422 147.4 72.4325L147.401 72.4292C147.497 72.219 147.591 72.0121 147.664 71.8287C147.739 71.6406 147.784 71.4928 147.79 71.3981L147.807 71.1422L148.002 71.3094C148.049 71.3505 148.117 71.4045 148.198 71.4695C148.358 71.5969 148.571 71.7664 148.789 71.9631C148.785 71.61 148.837 71.2646 148.886 70.9371C148.892 70.8967 148.898 70.8566 148.903 70.8168C148.972 70.3453 149.021 69.9148 148.906 69.5075L148.843 69.2806L149.068 69.3504C149.191 69.3884 149.275 69.4641 149.342 69.5467C149.384 69.5994 149.426 69.6639 149.465 69.7243C149.482 69.7511 149.499 69.7771 149.515 69.801C149.59 69.9119 149.678 70.0225 149.823 70.1093C149.783 69.9491 149.756 69.7684 149.737 69.5786C149.706 69.2645 149.697 68.914 149.698 68.568C149.699 68.3055 149.704 68.0433 149.71 67.8006C149.711 67.7237 149.713 67.6487 149.714 67.5763C149.72 67.2727 149.722 67.0175 149.708 66.843L149.952 66.7771C150.014 66.9066 150.06 67.0203 150.1 67.1194C150.108 67.1389 150.116 67.1578 150.123 67.1762C150.17 67.2894 150.21 67.3809 150.266 67.4676C150.351 67.6011 150.48 67.7338 150.742 67.9021C150.707 67.7459 150.661 67.5705 150.61 67.3831C150.581 67.2794 150.551 67.172 150.52 67.0629C150.46 66.8545 150.4 66.6399 150.346 66.4332C150.265 66.1181 150.197 65.8101 150.177 65.5523C150.167 65.4233 150.169 65.3014 150.188 65.1946C150.208 65.0884 150.248 64.9868 150.323 64.9111L150.408 64.8259L150.499 64.9053C150.642 65.0312 150.763 65.1873 150.871 65.3267C150.881 65.3392 150.89 65.3517 150.9 65.3639C150.941 65.4165 150.98 65.4657 151.018 65.5106C150.959 64.9615 150.759 64.3335 150.466 63.7502C150.115 63.0516 149.641 62.4361 149.147 62.1033C146.371 60.2366 144.423 60.0507 143.334 60.0482C143.197 60.0479 143.073 60.0505 142.961 60.0532C142.948 60.0535 142.934 60.0538 142.921 60.0542C142.826 60.0565 142.739 60.0586 142.663 60.0584C142.577 60.0582 142.498 60.0551 142.43 60.0447C142.365 60.0345 142.295 60.0153 142.24 59.9716C142.177 59.9227 142.146 59.8543 142.142 59.778C142.138 59.7086 142.156 59.6338 142.184 59.5575C142.212 59.4782 142.256 59.3839 142.314 59.2726Z" fill="black"/>
<path d="M137.782 70.1161C138.321 69.0385 138.818 68.6969 139.166 68.0029C139.782 66.7833 139.869 65.8131 140.406 65.9553C140.942 66.0975 140.941 66.5971 140.247 67.7961C139.552 68.9953 139.222 69.2515 137.782 70.1161ZM141.427 72.6841C141.358 71.8635 141.596 71.5209 141.553 70.9927C141.479 70.0629 141.099 69.4249 141.593 69.3795C142.087 69.3343 142.318 69.6515 142.32 70.5883C142.321 71.5253 142.176 71.7713 141.428 72.6843L141.427 72.6841ZM144.193 74.2921C143.977 73.1467 144.139 72.6387 144.001 71.9007C143.76 70.6023 143.284 69.7477 143.742 69.6289C144.2 69.5101 144.477 69.9301 144.65 71.2469C144.824 72.5635 144.732 72.9253 144.193 74.2921ZM147.07 66.2671C146.395 65.7543 146.001 65.7199 145.565 65.3905C144.798 64.8125 144.409 64.1935 144.162 64.5007C143.916 64.8079 144.091 65.1439 144.895 65.6773C145.699 66.2107 145.971 66.2527 147.07 66.2671ZM146.593 70.0681C146.237 69.3287 145.863 69.1411 145.632 68.6653C145.225 67.8293 145.225 67.1059 144.783 67.2913C144.341 67.4767 144.306 67.8553 144.778 68.6647C145.25 69.4739 145.498 69.6205 146.593 70.0681Z" fill="#CCCCCC"/>
<path d="M13.4531 61.1459C13.3805 60.4911 13.5207 60.4127 13.1177 59.9189C13.7043 60.1643 13.7265 60.8165 14.4397 60.3537C14.7015 60.2181 14.8157 60.2137 14.4975 59.4863C15.2411 59.5209 17.6763 60.3559 18.0663 60.3751C19.0903 60.4223 20.9595 59.2995 22.2569 60.6801C23.5023 61.9389 23.0865 63.2453 23.0865 64.9887C22.5861 64.7489 22.8273 64.6307 22.2963 64.0073C22.6943 65.5311 22.2751 68.2785 22.2751 69.8945C22.0707 69.5049 22.1007 69.6739 21.9009 69.2705C21.3699 70.7455 20.7335 71.0491 20.7335 72.7925C20.5419 72.1089 20.7269 72.2533 20.5137 71.8937C19.9977 73.0137 16.5357 73.9707 17.8697 75.0995C16.6657 74.3935 16.1377 74.4677 15.5917 73.8327C15.3563 73.9845 15.1695 74.2719 14.9507 74.6657C12.8337 73.6917 13.5907 71.5907 11.9321 70.1873C11.6451 70.7757 11.7759 70.6905 11.4657 71.6481C11.1299 70.3179 11.0381 69.4727 10.6605 68.4947C10.3347 69.0367 10.3637 68.8289 9.77207 69.6483C9.52727 68.0279 9.12887 67.6455 9.28647 66.5733C8.65767 67.0169 9.06927 66.8373 8.44067 67.3833C9.03627 63.2313 11.6081 60.1631 13.4537 61.1457L13.4531 61.1459Z" fill="#333333"/>
<path fill-rule="evenodd" clip-rule="evenodd" d="M14.2476 59.3145L14.5049 59.3264C14.7083 59.3359 15.014 59.3984 15.3522 59.4817C15.6943 59.5659 16.0831 59.6748 16.4586 59.7826C16.5816 59.818 16.703 59.8531 16.8209 59.8872C17.0645 59.9577 17.2934 60.024 17.4913 60.0787C17.638 60.1193 17.7657 60.153 17.868 60.177C17.9739 60.2019 18.0414 60.2136 18.0739 60.2152C18.3048 60.2258 18.5929 60.1701 18.9351 60.0924C18.99 60.08 19.0461 60.067 19.1032 60.0538C19.3946 59.9864 19.7133 59.9127 20.0376 59.869C20.8181 59.7636 21.6727 59.8259 22.3721 60.569C23.0253 61.23 23.2443 61.9092 23.2983 62.6409C23.3249 63.0027 23.3113 63.3776 23.2918 63.7651C23.2886 63.8289 23.2852 63.8931 23.2818 63.9578C23.2644 64.2878 23.2465 64.6286 23.2465 64.9887V65.2429L23.0173 65.133C22.884 65.0692 22.7882 65.0079 22.7149 64.9366C22.6559 64.8791 22.6167 64.8202 22.5845 64.7611C22.6482 65.4178 22.633 66.1744 22.5947 66.9245C22.5744 67.3239 22.5475 67.7211 22.5217 68.1037C22.4769 68.7665 22.4351 69.3851 22.4351 69.8945L22.1333 69.9689C22.0409 69.7926 22.0013 69.7405 21.9647 69.6923C21.9626 69.6896 21.9606 69.6869 21.9586 69.6842C21.9485 69.671 21.9386 69.6577 21.9283 69.6432C21.7792 70.0042 21.6247 70.2974 21.4851 70.5623C21.4047 70.7148 21.3293 70.8579 21.2628 70.9991C21.0469 71.4569 20.8935 71.9455 20.8935 72.7925L20.5793 72.8357C20.4852 72.4999 20.4772 72.3497 20.4726 72.2472C20.2958 72.4588 20.0482 72.6557 19.7874 72.8392C19.5959 72.974 19.3891 73.107 19.1847 73.2375C19.1646 73.2503 19.1445 73.2631 19.1245 73.2759C18.9397 73.3938 18.758 73.5097 18.588 73.6255C18.2038 73.8875 17.9121 74.1288 17.7879 74.3565C17.7294 74.4639 17.714 74.5579 17.7349 74.647C17.7565 74.7391 17.8224 74.8499 17.973 74.9773L17.7887 75.2376C17.2975 74.9495 16.9238 74.7951 16.6072 74.6643C16.5431 74.6378 16.4813 74.6123 16.4213 74.5868C16.103 74.4515 15.8356 74.3169 15.573 74.0491C15.418 74.1905 15.2715 74.4177 15.0905 74.7434L15.0185 74.8731L14.8837 74.8111C13.7641 74.296 13.4049 73.4739 13.1181 72.6396C13.089 72.5549 13.0606 72.4703 13.0323 72.3859C12.8009 71.6955 12.5753 71.0224 11.9856 70.4515C11.9182 70.6062 11.8917 70.6996 11.863 70.8172C11.8571 70.8414 11.8511 70.8667 11.8447 70.8936C11.806 71.0568 11.7529 71.2808 11.6179 71.6974L11.4465 72.2264L11.3105 71.6873C11.1917 71.2168 11.1028 70.8045 11.0218 70.4289C10.9879 70.2715 10.9553 70.1205 10.9225 69.9744C10.8346 69.5824 10.7443 69.2215 10.6194 68.8518C10.5534 68.9431 10.4993 69.0037 10.4344 69.0751L10.4265 69.0837C10.3232 69.1974 10.1861 69.3482 9.9018 69.742L9.67233 70.0598L9.61378 69.6722C9.51811 69.039 9.39954 68.601 9.29855 68.228C9.272 68.1299 9.24666 68.0363 9.22327 67.9449C9.13642 67.6052 9.07822 67.2993 9.09275 66.9218C9.03497 66.973 9.01556 67.0012 8.99594 67.0297L8.99527 67.0307C8.99221 67.0351 8.98907 67.0397 8.9858 67.0445C8.96095 67.081 8.92856 67.1285 8.86901 67.1953C8.80318 67.2691 8.70555 67.3652 8.54559 67.5041L8.22119 67.7859L8.2822 67.3606C8.58343 65.2607 9.38498 63.4272 10.3543 62.2379C10.8387 61.6436 11.3717 61.2021 11.9135 60.9744C12.3693 60.7828 12.8337 60.7423 13.2722 60.8927C13.2696 60.8416 13.268 60.7951 13.2667 60.7524C13.2665 60.7454 13.2663 60.7386 13.2661 60.7319C13.263 60.6318 13.2608 60.5614 13.2509 60.4957C13.2325 60.3723 13.1859 60.2556 12.9936 60.0201L13.1794 59.7713C13.3498 59.8426 13.4769 59.9427 13.58 60.0379C13.6205 60.0753 13.6588 60.1135 13.6934 60.1479C13.7019 60.1564 13.7102 60.1646 13.7183 60.1726C13.7605 60.2144 13.7966 60.2489 13.8318 60.2774C13.9 60.3325 13.9532 60.3555 14.0145 60.3555C14.082 60.3554 14.1862 60.3274 14.3525 60.2194L14.3591 60.2152L14.366 60.2116C14.3866 60.201 14.4043 60.192 14.4197 60.1841C14.4623 60.1625 14.4881 60.1495 14.5099 60.1337C14.5272 60.1211 14.528 60.1168 14.5288 60.1121C14.5289 60.1117 14.5289 60.1114 14.529 60.1109C14.5323 60.0941 14.5333 60.0507 14.5056 59.9536C14.4786 59.8592 14.4295 59.7304 14.3508 59.5504L14.2476 59.3145ZM13.3035 61.2498L13.3158 61.3608L13.8569 61.1791L13.6037 61.0443C13.593 60.926 13.5893 60.8285 13.5866 60.7424C13.5864 60.7337 13.5861 60.7251 13.5858 60.7165C13.5833 60.6325 13.5808 60.5522 13.5712 60.475C13.5905 60.4927 13.6102 60.5099 13.6305 60.5263C13.7304 60.6071 13.8531 60.6757 14.0148 60.6756C14.1686 60.6754 14.3325 60.613 14.5199 60.4924C14.5287 60.4879 14.5379 60.4832 14.5475 60.4784C14.5962 60.4539 14.6534 60.425 14.6978 60.3928C14.7641 60.3447 14.8226 60.2767 14.8431 60.1729C14.8612 60.0808 14.8455 59.9782 14.8134 59.8657C14.7975 59.8103 14.7764 59.7483 14.7499 59.6784C14.8972 59.704 15.0757 59.7432 15.2757 59.7925C15.6114 59.8751 15.9952 59.9826 16.3703 60.0903C16.4915 60.1251 16.6119 60.16 16.7294 60.194C16.9742 60.2648 17.2062 60.332 17.406 60.3873C17.554 60.4282 17.6864 60.4632 17.7948 60.4886C17.8994 60.5132 17.9932 60.5318 18.0584 60.535L18.0589 60.535C18.3399 60.5479 18.6694 60.481 19.006 60.4046C19.0633 60.3916 19.1211 60.3783 19.1792 60.3648C19.4706 60.2975 19.7723 60.2278 20.0804 60.1862C20.8144 60.0871 21.5425 60.1536 22.1402 60.7897L22.1416 60.7912L22.1431 60.7927C22.7341 61.39 22.9296 61.993 22.979 62.6644C23.0041 63.0045 22.9916 63.3618 22.9721 63.7489C22.9689 63.8115 22.9656 63.8748 22.9622 63.9389C22.9495 64.1814 22.9361 64.435 22.9299 64.6989C22.8974 64.6651 22.8749 64.6282 22.846 64.5704C22.8376 64.5535 22.829 64.5357 22.8199 64.5167C22.7552 64.3824 22.6633 64.1914 22.4181 63.9035L22.1414 64.0477C22.3333 64.7826 22.3302 65.8271 22.275 66.9082C22.2554 67.2937 22.229 67.6845 22.2034 68.0646C22.1727 68.5199 22.143 68.9601 22.127 69.3581C22.1052 69.3192 22.0784 69.2684 22.0443 69.1995L21.8775 68.8628L21.7502 69.2163C21.5727 69.7095 21.3883 70.0589 21.2144 70.3882C21.131 70.5464 21.0499 70.6999 20.9732 70.8626C20.8382 71.149 20.7264 71.4474 20.6556 71.8194C20.6542 71.817 20.6528 71.8145 20.6513 71.8121L20.4958 71.5498L20.3683 71.8267C20.2593 72.0633 19.9807 72.3117 19.6031 72.5775C19.4183 72.7076 19.2172 72.837 19.0124 72.9677C18.9923 72.9805 18.9722 72.9934 18.952 73.0062C18.7679 73.1237 18.582 73.2423 18.4077 73.3611C18.0288 73.6194 17.6728 73.899 17.5069 74.2033C17.428 74.3479 17.3876 74.506 17.4138 74.672C17.1489 74.5416 16.9229 74.4483 16.7265 74.3672C16.6635 74.3412 16.6037 74.3165 16.5465 74.2922C16.2049 74.147 15.9626 74.0186 15.713 73.7284L15.6221 73.6226L15.5049 73.6982C15.2625 73.8545 15.075 74.1259 14.8852 74.4559C13.991 73.996 13.6867 73.309 13.4208 72.5355C13.3923 72.4525 13.3642 72.3683 13.3358 72.2832C13.0875 71.5391 12.8162 70.7257 12.0354 70.0651L11.8784 69.9322L11.7882 70.1171C11.6402 70.4206 11.597 70.5571 11.552 70.7413C11.546 70.7662 11.5399 70.7918 11.5335 70.819C11.5191 70.8794 11.5031 70.947 11.4817 71.0292C11.4283 70.7955 11.3812 70.5767 11.336 70.3673C11.3018 70.2084 11.2687 70.0549 11.2349 69.9043C11.1221 69.4015 11.0027 68.9368 10.8097 68.4371L10.6919 68.1318L10.5233 68.4122C10.3664 68.6732 10.2987 68.7484 10.1975 68.8598L10.1915 68.8664C10.1142 68.9514 10.0197 69.0554 9.86781 69.2518C9.78241 68.7896 9.68698 68.4374 9.60608 68.1388C9.58008 68.0428 9.55558 67.9523 9.53339 67.8656C9.42595 67.4454 9.37014 67.1044 9.44478 66.5966L9.49904 66.2274L9.19417 66.4425C8.8755 66.6673 8.80233 66.7465 8.73165 66.8491C8.72812 66.8542 8.7247 66.8593 8.7213 66.8642C8.70786 66.8839 8.69486 66.903 8.67777 66.9251C9.01789 65.0773 9.74879 63.4875 10.6024 62.4401C11.0662 61.8712 11.5594 61.4704 12.0375 61.2695C12.483 61.0822 12.912 61.0689 13.3035 61.2498Z" fill="black"/>
<path d="M10.8481 67.9238C11.3937 66.587 11.8853 66.1672 12.2379 65.3066C12.8603 63.794 12.9617 62.5846 13.4845 62.7692C14.0075 62.9536 13.9991 63.5766 13.2995 65.0626C12.5999 66.5492 12.2725 66.8642 10.8481 67.9234V67.9238ZM12.9133 71.2688C13.1321 70.0704 13.4771 69.6338 13.6189 68.862C13.8707 67.5048 13.7303 66.494 14.2163 66.5474C14.7023 66.6006 14.8121 67.113 14.4887 68.463C14.1653 69.8132 13.9423 70.1328 12.9133 71.2688ZM15.3835 73.5938C15.4451 72.4318 15.7175 71.9784 15.7583 71.2298C15.8321 69.9134 15.5787 68.9712 16.0421 68.9658C16.5055 68.9604 16.6707 69.4338 16.5287 70.7516C16.3867 72.0696 16.2153 72.3984 15.3835 73.5938ZM20.6879 65.9948C19.6737 64.9844 19.0605 64.7956 18.4061 64.1458C17.2535 63.0046 16.6967 61.933 16.2863 62.3128C15.8759 62.6928 16.1229 63.262 17.3363 64.348C18.5499 65.434 18.9719 65.5924 20.6879 65.9948ZM20.0699 69.9008C19.4093 68.8862 18.9245 68.6234 18.4979 67.9706C17.7459 66.8234 17.4871 65.8376 17.0609 66.0818C16.6343 66.326 16.7297 66.841 17.5449 67.9532C18.3599 69.065 18.6877 69.2696 20.0699 69.9012V69.9008Z" fill="#CCCCCC"/>
<path d="M122.074 59.9999C113.503 68.5705 102.074 85.7139 79.2164 85.7139C59.2164 85.7139 44.9324 68.5715 36.3584 59.9999C44.9298 51.4277 59.2144 34.2859 79.2164 34.2859C102.072 34.2859 113.5 51.4285 122.074 59.9999Z" fill="white"/>
<path d="M76.2244 43.2298C78.5048 45.7944 76.6006 46.8286 79.0144 46.9968C81.5598 47.1838 80.1168 49.707 82.258 49.7948C83.755 49.8602 82.1086 55.84 83.5494 57.8134C85.0174 59.8706 86.2468 58.4162 86.2726 59.9022C86.298 61.4394 82.2774 61.2844 82.207 66.0192C82.089 68.748 78.814 68.9226 78.6576 70.6786C78.4632 72.3301 85.1098 73.257 85.021 74.7355C84.9298 76.2094 77.8444 75.9786 77.536 77.6596C77.378 79.1697 87.2698 80.407 88.0654 84.7736C86.5894 85.2562 82.3896 85.7107 79.2156 85.7131C59.2186 85.7275 44.9316 68.569 36.3606 59.9982C44.932 51.4262 59.217 34.2834 79.2186 34.2834C79.2186 34.2834 73.282 39.708 76.2274 43.228L76.2244 43.2298Z" fill="black"/>
<path fill-rule="evenodd" clip-rule="evenodd" d="M36.5721 59.9999C37.4362 60.8662 38.3568 61.8164 39.3338 62.8249C43.1987 66.8141 47.9481 71.7164 53.5933 75.9504C60.7219 81.2967 69.2614 85.5628 79.2164 85.5628C98.4646 85.5628 109.569 73.3727 117.737 64.4062C119.196 62.8055 120.56 61.3075 121.861 60C120.559 58.6916 119.193 57.1926 117.734 55.5908C109.564 46.6242 98.461 34.4372 79.2164 34.4372C69.2604 34.4372 60.7202 38.7031 53.5916 44.0494C47.9432 48.2855 43.192 53.1908 39.3268 57.1814C38.3523 58.1875 37.4341 59.1355 36.5721 59.9999ZM53.4102 43.8074C60.5672 38.4398 69.1704 34.1348 79.2164 34.1348C98.6073 34.1348 109.812 46.4396 117.977 55.4061C119.47 57.0451 120.86 58.5726 122.181 59.893L122.288 60L122.181 60.1069C120.862 61.4264 119.472 62.9529 117.981 64.5909C109.817 73.5573 98.611 85.8652 79.2164 85.8652C69.1713 85.8652 60.5689 81.56 53.4119 76.1923C47.7453 71.9423 42.9739 67.0171 39.1083 63.0269C38.0935 61.9794 37.1412 60.9964 36.2515 60.1069L36.1445 60L36.2515 59.8931C37.1391 59.0053 38.0891 58.0245 39.1013 56.9794C42.9673 52.9878 47.7405 48.0596 53.4102 43.8074Z" fill="black"/>
<path d="M54.4365 57.714V50.8569H52.3584V57.714H54.4365Z" fill="white"/>
<path d="M56.5134 50.8569V57.714H58.5915V50.8569H56.5134Z" fill="white"/>
<path d="M60.6714 50.8569V57.714H62.7495V50.8569H60.6714Z" fill="white"/>
<path d="M54.4365 69.1441V62.287H52.3584V69.1441H54.4365Z" fill="white"/>
<path d="M56.5134 62.287V69.1441H58.5915V62.287H56.5134Z" fill="white"/>
<path d="M60.6714 62.287V69.1441H62.7495V62.287H60.6714Z" fill="white"/>
<path d="M66.9045 50.8569V57.714H64.8264V50.8569H66.9045Z" fill="white"/>
<path d="M68.9814 57.714V50.8569H71.0595V57.714H68.9814Z" fill="white"/>
<path d="M73.1394 57.714V50.8569H75.2175V57.714H73.1394Z" fill="white"/>
<path d="M66.9045 69.1441V62.287H64.8264V69.1441H66.9045Z" fill="white"/>
<path d="M68.9814 62.287V69.1441H71.0595V62.287H68.9814Z" fill="white"/>
<path d="M73.1394 62.287V69.1441H75.2175V62.287H73.1394Z" fill="white"/>
<path d="M85.8645 57.714V50.8569H83.7864V57.714H85.8645Z" fill="black"/>
<path d="M87.9414 50.8569V57.714H90.0195V50.8569H87.9414Z" fill="black"/>
<path d="M92.0994 50.8569V57.714H94.1775V50.8569H92.0994Z" fill="black"/>
<path d="M85.8645 69.1441V62.287H83.7864V69.1441H85.8645Z" fill="black"/>
<path d="M87.9414 62.287V69.1441H90.0195V62.287H87.9414Z" fill="black"/>
<path d="M92.0994 62.287V69.1441H94.1775V62.287H92.0994Z" fill="black"/>
<path d="M98.3324 50.8569V57.714H96.2543V50.8569H98.3324Z" fill="black"/>
<path d="M100.409 57.714V50.8569H102.487V57.714H100.409Z" fill="black"/>
<path d="M104.567 57.714V50.8569H106.645V57.714H104.567Z" fill="black"/>
<path d="M98.3324 69.1441V62.287H96.2543V69.1441H98.3324Z" fill="black"/>
<path d="M100.409 62.287V69.1441H102.487V62.287H100.409Z" fill="black"/>
<path d="M104.567 62.287V69.1441H106.645V62.287H104.567Z" fill="black"/>
<path d="M65.3584 38.8499C64.171 41.1463 67.4374 38.0861 72.5578 41.9307C73.5068 42.6449 74.867 45.4667 74.867 46.7747C73.7768 46.5427 71.8462 45.4667 71.8462 45.4667C71.8462 45.4667 74.1118 47.7359 74.1118 50.3519C73.3114 49.8515 72.911 49.9265 72.6448 49.3121C72.6448 50.1589 73.3568 50.6987 73.3568 52.0067C72.8698 51.6154 72.3491 51.2681 71.8008 50.9687C72.556 52.2767 70.4248 54.8141 71.4914 55.6611C69.626 55.3913 67.7174 54.1995 66.9622 52.8915C66.562 53.1611 66.5186 53.5847 66.503 54.0361C66.5618 54.0851 63.6634 51.8849 63.9298 51.0397C63.541 51.5851 63.4864 51.8849 63.3976 52.4997C62.333 51.4497 61.357 50.3997 61.0018 49.0421C60.5288 49.6567 60.499 49.6567 60.0258 50.2715C59.671 48.1201 59.671 48.1969 60.3808 46.3531C59.878 46.6861 59.464 47.0191 58.9612 47.4291C59.4372 44.3135 61.8658 40.6601 65.3588 38.8507L65.3584 38.8499Z" fill="#333333"/>
<path fill-rule="evenodd" clip-rule="evenodd" d="M65.3606 38.5757L65.5238 38.9047L65.4498 38.943C65.3143 39.2094 65.2513 39.3834 65.24 39.4961C65.2344 39.5521 65.2429 39.5818 65.2518 39.5982C65.26 39.6133 65.2756 39.63 65.312 39.6459C65.3943 39.682 65.5375 39.6958 65.7646 39.6962C65.864 39.6964 65.9746 39.6942 66.0975 39.6917C66.1106 39.6914 66.1238 39.6912 66.1372 39.6909C66.2755 39.6882 66.4279 39.6854 66.5928 39.6858C67.9198 39.6884 70.0449 39.889 72.6321 41.8316C72.8857 42.0224 73.1579 42.3462 73.4215 42.7354C73.6865 43.1268 73.9485 43.5929 74.1799 44.0765C74.64 45.0376 74.9908 46.0913 74.9908 46.7746V46.9277L74.8411 46.8958C74.2799 46.7764 73.5126 46.4431 72.8939 46.1453C72.7097 46.0566 72.5375 45.9704 72.3863 45.8931C72.5879 46.1411 72.8357 46.4706 73.0836 46.862C73.6555 47.765 74.2356 49.01 74.2356 50.3518V50.5754L74.046 50.4569C73.7776 50.2891 73.5642 50.1918 73.3762 50.1061C73.2864 50.0651 73.2024 50.0268 73.121 49.9848C73.0259 49.9356 72.9371 49.8821 72.8554 49.8141C72.9075 49.9729 72.9787 50.1325 73.0568 50.3073C73.0755 50.3494 73.0947 50.3924 73.1141 50.4365C73.2947 50.8467 73.4806 51.3273 73.4806 52.0066V52.2651L73.2791 52.1032C72.8883 51.7893 72.4755 51.5039 72.0439 51.2492C72.1132 51.5325 72.0984 51.8427 72.043 52.1561C71.969 52.5743 71.8187 53.0188 71.6755 53.4421C71.6658 53.4706 71.6562 53.499 71.6466 53.5274C71.4931 53.9822 71.3555 54.406 71.3192 54.7669C71.2831 55.1254 71.3495 55.3902 71.5684 55.564L71.9277 55.8493L71.4736 55.7837C70.5223 55.6461 69.5629 55.2741 68.7455 54.7711C67.9782 54.299 67.3284 53.7067 66.9285 53.0752C66.6785 53.3058 66.6407 53.6356 66.6267 54.0403L66.6125 54.0398C66.582 54.1137 66.4952 54.1598 66.4646 54.1544C66.4567 54.1515 66.4459 54.1464 66.4427 54.1447C66.4418 54.1441 66.4406 54.1434 66.4395 54.1428C66.4385 54.1422 66.4376 54.1416 66.4371 54.1413C66.4326 54.1385 66.428 54.1351 66.4269 54.1342L66.4267 54.1341C66.422 54.1307 66.4149 54.1253 66.4058 54.1184C66.3873 54.1044 66.3589 54.0825 66.322 54.0537C66.2482 53.996 66.1401 53.9102 66.0096 53.8032C65.7489 53.5894 65.398 53.2905 65.0531 52.963C64.7092 52.6363 64.3672 52.2774 64.1271 51.9437C64.0072 51.777 63.9094 51.6121 63.8504 51.4571C63.845 51.4429 63.8398 51.4285 63.835 51.4142C63.7608 51.5447 63.7086 51.6629 63.6687 51.7828C63.5993 51.9907 63.5647 52.2086 63.5201 52.5174L63.4851 52.76L63.3105 52.5879C62.3084 51.5995 61.3616 50.5906 60.9507 49.31C60.8035 49.4982 60.7065 49.6168 60.6097 49.7351L60.6094 49.7354C60.4842 49.8885 60.3593 50.0412 60.1239 50.347L59.9499 50.5731L59.9035 50.2916C59.898 50.2584 59.8926 50.2257 59.8873 50.1936C59.7217 49.1902 59.6358 48.67 59.6806 48.1855C59.7202 47.7573 59.8617 47.3585 60.1213 46.6821C59.7607 46.9397 59.4278 47.2083 59.0394 47.5251L58.79 47.7284L58.8386 47.4103C59.319 44.2658 61.7573 40.5932 65.2656 38.7594L65.3606 38.5757ZM65.0864 39.1385C61.9234 40.9172 59.703 44.2215 59.1397 47.1243C59.5346 46.8053 59.8927 46.5276 60.3123 46.2497L60.6357 46.0356L60.4963 46.3976C60.481 46.4374 60.466 46.4764 60.4513 46.5144C60.1243 47.3634 59.9679 47.7691 59.9274 48.2083C59.8887 48.627 59.9551 49.0779 60.1018 49.9714C60.2353 49.8014 60.3267 49.6897 60.4179 49.5782C60.5432 49.4251 60.6681 49.2724 60.9035 48.9665L61.0576 48.7662L61.1216 49.0107C61.4483 50.2594 62.3164 51.2469 63.3113 52.2397C63.343 52.0427 63.3778 51.8716 63.4336 51.7044C63.5118 51.4698 63.6294 51.2475 63.8288 50.9677L64.0479 51.0769C64.0265 51.1447 64.0331 51.2404 64.082 51.369C64.1303 51.496 64.2148 51.6413 64.3282 51.7989C64.5549 52.114 64.8838 52.4604 65.2238 52.7833C65.5629 53.1054 65.9089 53.4002 66.1668 53.6116C66.2529 53.6822 66.3291 53.7434 66.3917 53.7931C66.4218 53.4181 66.5159 53.0426 66.8929 52.7887L67.003 52.7145L67.0694 52.8295C67.4338 53.4606 68.0823 54.0721 68.8753 54.5601C69.5731 54.9894 70.376 55.319 71.1823 55.4817C71.0676 55.2667 71.0456 55.0104 71.0726 54.7421C71.1123 54.3481 71.2603 53.8969 71.4118 53.4481C71.4209 53.4214 71.4299 53.3946 71.439 53.3679C71.5838 52.9394 71.7284 52.5118 71.799 52.113C71.874 51.6886 71.8605 51.3201 71.6934 51.0306L71.4727 50.6484L71.8601 50.8599C72.3361 51.1199 72.7916 51.4155 73.2226 51.7443C73.1833 51.2503 73.0372 50.8769 72.8873 50.5363C72.8683 50.4931 72.849 50.4501 72.8298 50.4072C72.6739 50.0593 72.5208 49.7178 72.5208 49.312L72.7584 49.2628C72.8198 49.4046 72.8866 49.5013 72.9611 49.5756C73.0362 49.6504 73.124 49.7074 73.2348 49.7646C73.2998 49.7982 73.3748 49.8325 73.459 49.871C73.6066 49.9385 73.7826 50.019 73.9824 50.1312C73.9237 48.9399 73.4026 47.8288 72.8742 46.9945C72.5946 46.553 72.3148 46.192 72.1051 45.9416C72.0003 45.8165 71.9131 45.7191 71.8524 45.6533C71.822 45.6203 71.7983 45.5953 71.7822 45.5786C71.7742 45.5703 71.7681 45.5641 71.7641 45.56L71.7597 45.5554L71.7584 45.5542C71.7584 45.5542 71.7584 45.5542 71.7586 45.554L71.9064 45.3584L71.9067 45.3586L71.9077 45.3591L71.9117 45.3614L71.9279 45.3703C71.9421 45.3781 71.9632 45.3897 71.9904 45.4045C72.0449 45.4341 72.1241 45.4768 72.2226 45.5288C72.4197 45.6328 72.6937 45.7738 73.0014 45.922C73.5619 46.1919 74.2239 46.4802 74.7367 46.616C74.689 45.9871 74.3768 45.0616 73.9564 44.1835C73.7292 43.7088 73.4732 43.2538 73.2163 42.8744C72.9579 42.4927 72.7041 42.1959 72.4832 42.0296C69.9501 40.1277 67.8818 39.9361 66.5923 39.9336C66.4303 39.9333 66.2802 39.9359 66.1421 39.9387C66.1286 39.9389 66.1153 39.9392 66.1021 39.9395C65.9798 39.9419 65.8664 39.9442 65.7641 39.944C65.5443 39.9436 65.3494 39.9329 65.2125 39.8728C65.1392 39.8407 65.0749 39.7915 65.0342 39.7167C64.9942 39.6432 64.9847 39.5592 64.9934 39.4716C65.0028 39.3775 65.0346 39.2672 65.0864 39.1385Z" fill="black"/>
<path d="M62.4304 50.0698C62.6204 48.4874 63.034 47.8912 63.1576 46.8722C63.3782 45.08 63.1164 43.7698 63.7516 43.8032C64.3868 43.8362 64.5696 44.4972 64.2556 46.286C63.9418 48.0742 63.677 48.5084 62.4304 50.0698ZM65.7454 52.9678C65.6168 51.6328 65.8634 51.0644 65.7814 50.2042C65.6404 48.691 65.173 47.666 65.7266 47.5718C66.28 47.4776 66.56 47.9852 66.6196 49.513C66.6794 51.041 66.5314 51.448 65.7452 52.9678H65.7454ZM70.9204 55.3318C70.3576 54.1764 69.874 53.832 69.5108 53.0884C68.869 51.7816 68.7348 50.7144 68.24 50.9076C67.745 51.1012 67.7722 51.6532 68.4872 52.9324C69.202 54.2116 69.5252 54.4726 70.9204 55.3318ZM72.7114 44.9848C71.278 44.2302 70.5418 44.2208 69.6182 43.7358C67.9916 42.8858 67.0448 41.9254 66.7088 42.454C66.3724 42.9826 66.8212 43.5082 68.4982 44.281C70.1752 45.0538 70.6902 45.0904 72.7116 44.9848H72.7114ZM73.2364 49.3078C72.1928 48.4396 71.5756 48.3118 70.9024 47.7532C69.7164 46.7732 69.1264 45.8104 68.7302 46.2008C68.3342 46.591 68.5988 47.1064 69.8434 48.0298C71.0882 48.9532 71.5138 49.0678 73.2364 49.3078Z" fill="#CCCCCC"/>
</g>
<defs>
<clipPath id="clip0_909_309483">
<rect width="160" height="120" fill="white"/>
</clipPath>
</defs>
</svg>
