<svg width="160" height="120" viewBox="0 0 160 120" fill="none" xmlns="http://www.w3.org/2000/svg">
<g clip-path="url(#clip0_307_59675)">
<path d="M160 0H0V120H160V0Z" fill="#1E9A1C"/>
<path d="M67.9241 16.604L68.5703 14.6153H70.6613L68.9696 13.3862L69.6158 11.3975L67.9241 12.6265L66.2324 11.3975L66.8786 13.3861L65.1868 14.6153H67.2779L67.9241 16.604Z" fill="white"/>
<path d="M91.2124 27.0341C91.2124 20.8787 87.4851 15.5926 82.1651 13.3085C85.5468 16.1913 87.613 20.5467 87.4042 25.3289C87.0446 33.5658 80.0732 39.9539 71.8362 39.5943C69.9802 39.5133 68.2185 39.0955 66.6062 38.4041C69.2124 40.6242 72.5904 41.9651 76.2815 41.9651C84.5262 41.9651 91.2124 35.2789 91.2124 27.0341Z" fill="white"/>
<path d="M68.5703 22.2953L67.9241 24.284L67.2779 22.2953H65.1868L66.8786 21.0662L66.2324 19.0775L67.9241 20.3065L69.6158 19.0775L68.9696 21.0662L70.6613 22.2953H68.5703Z" fill="white"/>
<path d="M76.1577 18.5509L75.5115 20.5396L74.8653 18.5509H72.7742L74.466 17.3217L73.8198 15.3331L75.5115 16.5621L77.2032 15.3331L76.557 17.3218L78.2487 18.5509H76.1577Z" fill="white"/>
<path d="M60.3369 28.0284L60.9831 26.0396H63.0741L61.3824 24.8106L62.0286 22.8218L60.3369 24.0509L58.6452 22.8218L59.2913 24.8105L57.5996 26.0396H59.6907L60.3369 28.0284Z" fill="white"/>
<path d="M68.5703 29.9752L67.9241 31.964L67.2779 29.9752H65.1868L66.8786 28.7461L66.2324 26.7574L67.9241 27.9865L69.6158 26.7574L68.9696 28.7462L70.6613 29.9752H68.5703Z" fill="white"/>
<path d="M51.5992 0H19.1992V120H51.5992V0Z" fill="#D91C16"/>
<path d="M27.1229 0H25.9999L24.0085 1.82194L23.214 1.08041H23.945L23.8072 0.24355H22.5361L20.0255 2.59527V3.49569H21.1378V2.74358L21.7098 3.26264L20.4068 4.47027L21.0213 5.05288L19.1992 6.7478V7.92366L22.2818 5.05288L21.6674 4.47027L22.9598 3.26264L21.8475 2.22451L22.589 1.54654L24.0085 2.8601L27.1229 0Z" fill="black"/>
<path d="M24.3548 0H25.0648L24.4535 0.571948L24.3548 0Z" fill="black"/>
<path d="M19.1992 0H21.2966L20.6823 0.624923H19.9196V1.48296L19.1992 2.21389V0Z" fill="black"/>
<path d="M26.9851 0.00012207H26.1273L24.0088 1.93854L22.9919 0.995746H23.8393L23.7225 0.328373H22.5784L20.1102 2.62709V3.41099H21.053V2.53175L21.8369 3.26268L20.5339 4.47031L21.1484 5.05292L19.1992 6.86438V7.79659L22.1547 5.05293L21.5403 4.47031L22.8327 3.26269L21.7204 2.22455L22.589 1.41947L24.0085 2.74362L26.9851 0.00012207Z" fill="#FDD406"/>
<path d="M19.1995 0.00012207V2.08686L19.8351 1.45127V0.52967H20.6508L21.1803 0.00012207H19.1995Z" fill="#FDD406"/>
<path d="M24.4504 0.00012207L24.5173 0.391953L24.9378 0.00012207H24.4504Z" fill="#FDD406"/>
<path d="M19.1992 13.9175V15.0933L21.0213 16.7988L20.4068 17.3709L21.7098 18.5785L21.1378 19.0976V18.3454H20.0255V19.2459L22.5361 21.5976H23.8072L23.945 20.7713H23.214L24.0085 20.0298L26 21.8412L24.0085 23.6632L23.214 22.9217H23.945L23.8072 22.0849H22.5361L20.0255 24.4366V25.337H21.1378V24.5849L21.7098 25.104L20.4068 26.3116L21.0213 26.8942L19.1992 28.5891V29.765L22.2818 26.8942L21.6674 26.3116L22.9598 25.104L21.8475 24.0658L22.589 23.3879L24.0085 24.7014L27.1229 21.8413L24.0085 18.9811L22.589 20.3052L21.8475 19.6167L22.9598 18.5785L21.6674 17.3709L22.2818 16.7989L19.1992 13.9175ZM19.1992 19.6272V24.0552L19.9196 23.3243V22.4662H20.6823L21.2966 21.8412L20.6823 21.2268H19.9196V20.3582L19.1992 19.6272ZM24.4535 21.195L24.3475 21.7989L24.4535 22.4133L25.1102 21.7989L24.4535 21.195Z" fill="black"/>
<path d="M19.1995 14.0446V14.9768L21.1487 16.7988L20.5342 17.3708L21.8372 18.5785L21.0533 19.3094V18.4302H20.1105V19.2141L22.5787 21.5128H23.7228L23.8393 20.856H22.9919L24.0088 19.9026L26.1274 21.8412L24.0088 23.7797L22.9919 22.8369H23.8393L23.7225 22.1696H22.5784L20.1102 24.4683V25.2522H21.053V24.3729L21.8369 25.1039L20.5339 26.3115L21.1484 26.8941L19.1992 28.7056V29.6378L22.1547 26.8941L21.5403 26.3115L22.8327 25.1039L21.7204 24.0657L22.589 23.2607L24.0085 24.5848L26.9852 21.8412L24.0085 19.0975L22.589 20.4217L21.7204 19.6166L22.8327 18.5785L21.5403 17.3708L22.1547 16.7988L19.1992 14.0446L19.1995 14.0446ZM19.1995 19.7543V23.928L19.8351 23.2925V22.3709H20.6508L21.1804 21.8412L20.6508 21.3115H19.8351V20.3899L19.1995 19.7543ZM24.5173 21.3645L24.4431 21.7988L24.5173 22.2331L24.9834 21.7988L24.5173 21.3645Z" fill="#FDD406"/>
<path d="M19.1992 36.4772V37.653L21.0213 39.3585L20.4068 39.9306L21.7098 41.1382L21.1378 41.6573V40.9051H20.0255V41.8056L22.5361 44.1573H23.8072L23.945 43.331H23.214L24.0085 42.5895L26 44.4009L24.0085 46.2229L23.214 45.4814H23.945L23.8072 44.6446H22.5361L20.0255 46.9963V47.8967H21.1378V47.1446L21.7098 47.6636L20.4068 48.8713L21.0213 49.4539L19.1992 51.1488V52.3247L22.2818 49.4539L21.6674 48.8713L22.9598 47.6636L21.8475 46.6255L22.589 45.9475L24.0085 47.2611L27.1229 44.4009L24.0085 41.5408L22.589 42.8649L21.8475 42.1764L22.9598 41.1382L21.6674 39.9306L22.2818 39.3586L19.1992 36.4772ZM19.1992 42.1869V46.6149L19.9196 45.884V45.0259H20.6823L21.2966 44.4009L20.6823 43.7865H19.9196V42.9179L19.1992 42.1869ZM24.4535 43.7547L24.3475 44.3585L24.4535 44.9729L25.1102 44.3585L24.4535 43.7547Z" fill="black"/>
<path d="M19.1995 36.6043V37.5365L21.1487 39.3585L20.5342 39.9305L21.8372 41.1382L21.0533 41.8691V40.9899H20.1105V41.7737L22.5787 44.0725H23.7228L23.8393 43.4157H22.9919L24.0088 42.4623L26.1274 44.4009L24.0088 46.3394L22.9919 45.3966H23.8393L23.7225 44.7293H22.5784L20.1102 47.028V47.8119H21.053V46.9326L21.8369 47.6636L20.5339 48.8712L21.1484 49.4538L19.1992 51.2653V52.1975L22.1547 49.4538L21.5403 48.8712L22.8327 47.6636L21.7204 46.6254L22.589 45.8203L24.0085 47.1445L26.9852 44.4009L24.0085 41.6572L22.589 42.9814L21.7204 42.1763L22.8327 41.1381L21.5403 39.9305L22.1547 39.3585L19.1992 36.6042L19.1995 36.6043ZM19.1995 42.314V46.4877L19.8351 45.8521V44.9305H20.6508L21.1804 44.4009L20.6508 43.8712H19.8351V42.9496L19.1995 42.314ZM24.5173 43.9242L24.4431 44.3585L24.5173 44.7928L24.9834 44.3585L24.5173 43.9242Z" fill="#FDD406"/>
<path d="M19.1992 59.0365V60.2124L21.0213 61.9179L20.4068 62.4899L21.7098 63.6975L21.1378 64.2166V63.4645H20.0255V64.3649L22.5361 66.7166H23.8072L23.945 65.8903H23.214L24.0085 65.1488L26 66.9602L24.0085 68.7823L23.214 68.0407H23.945L23.8072 67.2039H22.5361L20.0255 69.5556V70.456H21.1378V69.7039L21.7098 70.223L20.4068 71.4306L21.0213 72.0132L19.1992 73.7081V74.884L22.2818 72.0132L21.6674 71.4306L22.9598 70.223L21.8475 69.1848L22.589 68.5069L24.0085 69.8204L27.1229 66.9603L24.0085 64.1001L22.589 65.4243L21.8475 64.7357L22.9598 63.6976L21.6674 62.4899L22.2818 61.9179L19.1992 59.0365ZM19.1992 64.7463V69.1742L19.9196 68.4433V67.5852H20.6823L21.2966 66.9602L20.6823 66.3458H19.9196V65.4772L19.1992 64.7463ZM24.4535 66.3141L24.3475 66.9179L24.4535 67.5323L25.1102 66.9179L24.4535 66.3141Z" fill="black"/>
<path d="M19.1995 59.1636V60.0958L21.1487 61.9178L20.5342 62.4899L21.8372 63.6975L21.0533 64.4284V63.5492H20.1105V64.3331L22.5787 66.6318H23.7228L23.8393 65.975H22.9919L24.0088 65.0216L26.1274 66.9602L24.0088 68.8987L22.9919 67.956H23.8393L23.7225 67.2886H22.5784L20.1102 69.5873V70.3712H21.053V69.492L21.8369 70.2229L20.5339 71.4305L21.1484 72.0131L19.1992 73.8246V74.7568L22.1547 72.0131L21.5403 71.4305L22.8327 70.2229L21.7204 69.1848L22.589 68.3797L24.0085 69.7038L26.9852 66.9602L24.0085 64.2165L22.589 65.5407L21.7204 64.7356L22.8327 63.6975L21.5403 62.4898L22.1547 61.9178L19.1992 59.1636L19.1995 59.1636ZM19.1995 64.8733V69.0471L19.8351 68.4115V67.4899H20.6508L21.1804 66.9602L20.6508 66.4305H19.8351V65.5089L19.1995 64.8733ZM24.5173 66.4835L24.4431 66.9178L24.5173 67.3522L24.9834 66.9178L24.5173 66.4835Z" fill="#FDD406"/>
<path d="M19.1992 81.5958V82.7717L21.0213 84.4772L20.4068 85.0492L21.7098 86.2568L21.1378 86.7759V86.0238H20.0255V86.9242L22.5361 89.2759H23.8072L23.945 88.4496H23.214L24.0085 87.7081L26 89.5196L24.0085 91.3416L23.214 90.6001H23.945L23.8072 89.7632H22.5361L20.0255 92.1149V93.0153H21.1378V92.2632L21.7098 92.7823L20.4068 93.9899L21.0213 94.5725L19.1992 96.2675V97.4433L22.2818 94.5725L21.6674 93.9899L22.9598 92.7823L21.8475 91.7442L22.589 91.0662L24.0085 92.3798L27.1229 89.5196L24.0085 86.6594L22.589 87.9836L21.8475 87.295L22.9598 86.2569L21.6674 85.0493L22.2818 84.4772L19.1992 81.5958ZM19.1992 87.3056V91.7335L19.9196 91.0026V90.1446H20.6823L21.2966 89.5196L20.6823 88.9052H19.9196V88.0365L19.1992 87.3056ZM24.4535 88.8734L24.3475 89.4772L24.4535 90.0916L25.1102 89.4772L24.4535 88.8734Z" fill="black"/>
<path d="M19.1995 81.7229V82.6551L21.1487 84.4771L20.5342 85.0492L21.8372 86.2568L21.0533 86.9877V86.1085H20.1105V86.8924L22.5787 89.1911H23.7228L23.8393 88.5343H22.9919L24.0088 87.581L26.1274 89.5195L24.0088 91.4581L22.9919 90.5153H23.8393L23.7225 89.8479H22.5784L20.1102 92.1466V92.9305H21.053V92.0513L21.8369 92.7822L20.5339 93.9898L21.1484 94.5725L19.1992 96.3839V97.3161L22.1547 94.5725L21.5403 93.9898L22.8327 92.7822L21.7204 91.7441L22.589 90.939L24.0085 92.2632L26.9852 89.5195L24.0085 86.7759L22.589 88.1L21.7204 87.2949L22.8327 86.2568L21.5403 85.0492L22.1547 84.4771L19.1992 81.7229L19.1995 81.7229ZM19.1995 87.4327V91.6064L19.8351 90.9708V90.0492H20.6508L21.1804 89.5195L20.6508 88.9899H19.8351V88.0683L19.1995 87.4327ZM24.5173 89.0428L24.4431 89.4772L24.5173 89.9115L24.9834 89.4772L24.5173 89.0428Z" fill="#FDD406"/>
<path d="M43.6758 0H44.7987L46.7902 1.82194L47.5846 1.08041H46.8537L46.9914 0.24355H48.2626L50.7732 2.59527V3.49569H49.6609V2.74358L49.0889 3.26264L50.3918 4.47027L49.7774 5.05288L51.5994 6.7478V7.92366L48.5168 5.05288L49.1312 4.47027L47.8389 3.26264L48.9512 2.22451L48.2096 1.54654L46.7902 2.8601L43.6758 0Z" fill="black"/>
<path d="M46.4438 0H45.7338L46.3452 0.571948L46.4438 0Z" fill="black"/>
<path d="M51.5994 0H49.5021L50.1164 0.624923H50.8791V1.48296L51.5994 2.21389V0Z" fill="black"/>
<path d="M46.3491 0.00012207H45.8617L46.2822 0.391953L46.3491 0.00012207Z" fill="#FDD406"/>
<path d="M51.5999 2.08676V0.00012207H49.6192L50.1487 0.52967H50.9644V1.45127L51.5999 2.08676Z" fill="#FDD406"/>
<path d="M51.5999 6.86401L49.6511 5.05292L50.2656 4.47031L48.9626 3.26268L49.7465 2.53175V3.41099H50.6893V2.62709L48.2211 0.328373H47.077L46.9602 0.995746H47.8077L46.7907 1.93854L44.6722 0.00012207H43.8145L46.791 2.74362L48.2105 1.41947L49.0792 2.22455L47.9668 3.26269L49.2592 4.47031L48.6448 5.05293L51.5999 7.79622V6.86401Z" fill="#FDD406"/>
<path d="M51.5996 13.9176V15.0935L49.7776 16.799L50.392 17.371L49.089 18.5786L49.6611 19.0977V18.3456H50.7734V19.246L48.2628 21.5977H46.9916L46.8539 20.7714H47.5848L46.7903 20.0299L44.7988 21.8413L46.7903 23.6634L47.5848 22.9218H46.8539L46.9916 22.085H48.2628L50.7734 24.4367V25.3371H49.6611V24.585L49.089 25.1041L50.392 26.3117L49.7776 26.8943L51.5996 28.5892V29.7651L48.517 26.8943L49.1314 26.3117L47.839 25.1041L48.9513 24.0659L48.2098 23.388L46.7903 24.7015L43.6759 21.8414L46.7903 18.9812L48.2098 20.3054L48.9513 19.6168L47.839 18.5787L49.1314 17.371L48.517 16.799L51.5996 13.9176ZM51.5996 19.6274V24.0553L50.8793 23.3244V22.4664H50.1166L49.5022 21.8414L50.1166 21.2269H50.8793V20.3583L51.5996 19.6274ZM46.3454 21.1952L46.4513 21.799L46.3454 22.4134L45.6886 21.799L46.3454 21.1952Z" fill="black"/>
<path d="M51.5993 14.0447V14.9769L49.6502 16.7989L50.2646 17.371L48.9616 18.5786L49.7455 19.3095V18.4303H50.6883V19.2142L48.2201 21.5129H47.076L46.9595 20.8561H47.807L46.79 19.9027L44.6714 21.8413L46.79 23.7798L47.807 22.8371H46.9595L47.0763 22.1697H48.2204L50.6886 24.4684V25.2523H49.7458V24.3731L48.9619 25.104L50.2649 26.3116L49.6505 26.8942L51.5996 28.7057V29.6379L48.6441 26.8942L49.2585 26.3116L47.9662 25.104L49.0785 24.0659L48.2098 23.2608L46.7903 24.5849L43.8136 21.8413L46.7903 19.0976L48.2098 20.4218L49.0785 19.6167L47.9662 18.5786L49.2585 17.371L48.6441 16.7989L51.5996 14.0447L51.5993 14.0447ZM51.5993 19.7544V23.9282L50.9637 23.2926V22.371H50.1481L49.6184 21.8413L50.1481 21.3117H50.9637V20.39L51.5993 19.7544ZM46.2816 21.3646L46.3557 21.7989L46.2816 22.2333L45.8155 21.7989L46.2816 21.3646Z" fill="#FDD406"/>
<path d="M51.5996 36.4772V37.653L49.7776 39.3585L50.392 39.9306L49.089 41.1382L49.6611 41.6573V40.9051H50.7734V41.8056L48.2628 44.1573H46.9916L46.8539 43.331H47.5848L46.7903 42.5895L44.7988 44.4009L46.7903 46.2229L47.5848 45.4814H46.8539L46.9916 44.6446H48.2628L50.7734 46.9963V47.8967H49.6611V47.1446L49.089 47.6636L50.392 48.8713L49.7776 49.4539L51.5996 51.1488V52.3247L48.517 49.4539L49.1314 48.8713L47.839 47.6636L48.9513 46.6255L48.2098 45.9475L46.7903 47.2611L43.6759 44.4009L46.7903 41.5408L48.2098 42.8649L48.9513 42.1764L47.839 41.1382L49.1314 39.9306L48.517 39.3586L51.5996 36.4772ZM51.5996 42.1869V46.6149L50.8793 45.884V45.0259H50.1166L49.5022 44.4009L50.1166 43.7865H50.8793V42.9179L51.5996 42.1869ZM46.3454 43.7547L46.4513 44.3585L46.3454 44.9729L45.6886 44.3585L46.3454 43.7547Z" fill="black"/>
<path d="M51.5993 36.6043V37.5365L49.6502 39.3585L50.2646 39.9305L48.9616 41.1382L49.7455 41.8691V40.9899H50.6883V41.7737L48.2201 44.0725H47.076L46.9595 43.4157H47.807L46.79 42.4623L44.6714 44.4009L46.79 46.3394L47.807 45.3966H46.9595L47.0763 44.7293H48.2204L50.6886 47.028V47.8119H49.7458V46.9326L48.9619 47.6636L50.2649 48.8712L49.6505 49.4538L51.5996 51.2653V52.1975L48.6441 49.4538L49.2585 48.8712L47.9662 47.6636L49.0785 46.6254L48.2098 45.8203L46.7903 47.1445L43.8136 44.4009L46.7903 41.6572L48.2098 42.9814L49.0785 42.1763L47.9662 41.1381L49.2585 39.9305L48.6441 39.3585L51.5996 36.6042L51.5993 36.6043ZM51.5993 42.314V46.4877L50.9637 45.8521V44.9305H50.1481L49.6184 44.4009L50.1481 43.8712H50.9637V42.9496L51.5993 42.314ZM46.2816 43.9242L46.3557 44.3585L46.2816 44.7928L45.8155 44.3585L46.2816 43.9242Z" fill="#FDD406"/>
<path d="M51.5996 59.0365V60.2124L49.7776 61.9179L50.392 62.4899L49.089 63.6975L49.6611 64.2166V63.4645H50.7734V64.3649L48.2628 66.7166H46.9916L46.8539 65.8903H47.5848L46.7903 65.1488L44.7988 66.9602L46.7903 68.7823L47.5848 68.0407H46.8539L46.9916 67.2039H48.2628L50.7734 69.5556V70.456H49.6611V69.7039L49.089 70.223L50.392 71.4306L49.7776 72.0132L51.5996 73.7081V74.884L48.517 72.0132L49.1314 71.4306L47.839 70.223L48.9513 69.1848L48.2098 68.5069L46.7903 69.8204L43.6759 66.9603L46.7903 64.1001L48.2098 65.4243L48.9513 64.7357L47.839 63.6976L49.1314 62.4899L48.517 61.9179L51.5996 59.0365ZM51.5996 64.7463V69.1742L50.8793 68.4433V67.5852H50.1166L49.5022 66.9602L50.1166 66.3458H50.8793V65.4772L51.5996 64.7463ZM46.3454 66.3141L46.4513 66.9179L46.3454 67.5323L45.6886 66.9179L46.3454 66.3141Z" fill="black"/>
<path d="M51.5993 59.1636V60.0958L49.6502 61.9178L50.2646 62.4899L48.9616 63.6975L49.7455 64.4284V63.5492H50.6883V64.3331L48.2201 66.6318H47.076L46.9595 65.975H47.807L46.79 65.0216L44.6714 66.9602L46.79 68.8987L47.807 67.956H46.9595L47.0763 67.2886H48.2204L50.6886 69.5873V70.3712H49.7458V69.492L48.9619 70.2229L50.2649 71.4305L49.6505 72.0131L51.5996 73.8246V74.7568L48.6441 72.0131L49.2585 71.4305L47.9662 70.2229L49.0785 69.1848L48.2098 68.3797L46.7903 69.7038L43.8136 66.9602L46.7903 64.2165L48.2098 65.5407L49.0785 64.7356L47.9662 63.6975L49.2585 62.4898L48.6441 61.9178L51.5996 59.1636L51.5993 59.1636ZM51.5993 64.8733V69.0471L50.9637 68.4115V67.4899H50.1481L49.6184 66.9602L50.1481 66.4305H50.9637V65.5089L51.5993 64.8733ZM46.2816 66.4835L46.3557 66.9178L46.2816 67.3522L45.8155 66.9178L46.2816 66.4835Z" fill="#FDD406"/>
<path d="M51.5996 81.5958V82.7717L49.7776 84.4772L50.392 85.0492L49.089 86.2568L49.6611 86.7759V86.0238H50.7734V86.9242L48.2628 89.2759H46.9916L46.8539 88.4496H47.5848L46.7903 87.7081L44.7988 89.5196L46.7903 91.3416L47.5848 90.6001H46.8539L46.9916 89.7632H48.2628L50.7734 92.1149V93.0153H49.6611V92.2632L49.089 92.7823L50.392 93.9899L49.7776 94.5725L51.5996 96.2675V97.4433L48.517 94.5725L49.1314 93.9899L47.839 92.7823L48.9513 91.7442L48.2098 91.0662L46.7903 92.3798L43.6759 89.5196L46.7903 86.6594L48.2098 87.9836L48.9513 87.295L47.839 86.2569L49.1314 85.0493L48.517 84.4772L51.5996 81.5958ZM51.5996 87.3056V91.7335L50.8793 91.0026V90.1446H50.1166L49.5022 89.5196L50.1166 88.9052H50.8793V88.0365L51.5996 87.3056ZM46.3454 88.8734L46.4513 89.4772L46.3454 90.0916L45.6886 89.4772L46.3454 88.8734Z" fill="black"/>
<path d="M51.5993 81.7229V82.6551L49.6502 84.4771L50.2646 85.0492L48.9616 86.2568L49.7455 86.9877V86.1085H50.6883V86.8924L48.2201 89.1911H47.076L46.9595 88.5343H47.807L46.79 87.581L44.6714 89.5195L46.79 91.4581L47.807 90.5153H46.9595L47.0763 89.8479H48.2204L50.6886 92.1466V92.9305H49.7458V92.0513L48.9619 92.7822L50.2649 93.9898L49.6505 94.5725L51.5996 96.3839V97.3161L48.6441 94.5725L49.2585 93.9898L47.9662 92.7822L49.0785 91.7441L48.2098 90.939L46.7903 92.2632L43.8136 89.5195L46.7903 86.7759L48.2098 88.1L49.0785 87.2949L47.9662 86.2568L49.2585 85.0492L48.6441 84.4771L51.5996 81.7229L51.5993 81.7229ZM51.5993 87.4327V91.6064L50.9637 90.9708V90.0492H50.1481L49.6184 89.5195L50.1481 88.9899H50.9637V88.0683L51.5993 87.4327ZM46.2816 89.0428L46.3557 89.4772L46.2816 89.9115L45.8155 89.4772L46.2816 89.0428Z" fill="#FDD406"/>
<path d="M23.2525 14.0678L20.6562 12.4758V8.64874L23.2525 7.0567V5.0317L25.7059 3.55426H27.6659L31.3954 1.45654H39.4021L43.1317 3.55426H45.0917L47.5451 5.0317V7.0567L50.1413 8.64874L50.1412 12.4758L47.5451 14.0678V16.0928L45.0917 17.5703H43.1317L39.4021 19.668H31.3954L27.6659 17.5703H25.7059L23.2525 16.0928V14.0678Z" fill="black"/>
<path d="M31.4135 1.54651L27.6847 3.64397H25.7355L23.3414 5.08464V7.10794L20.7461 8.69693V12.4257L23.3414 14.0147V16.0486L25.7249 17.4893H27.6847L31.4135 19.5868H39.3796L43.1084 17.4893H45.0681L47.4622 16.0486V14.0147L50.0575 12.4257V8.69693L47.4622 7.10794V5.08464L45.0681 3.64397H43.1084L39.3796 1.54651H31.4135ZM31.6359 2.31981H39.1677L42.8965 4.41727H44.8457L46.6571 5.50838V7.53168L49.263 9.12067V12.002L46.6571 13.591V15.6143L44.8457 16.7054H42.8965L39.1677 18.8029H31.6359L27.9071 16.7054H25.958L24.1359 15.6143V13.591L21.5406 12.002V9.12067L24.1359 7.53168V5.50838L25.958 4.41727H27.9071L31.6359 2.31981Z" fill="#1E9A1C"/>
<path d="M35.3553 10.605V2.40332H31.6541L27.9244 4.50104H25.98L24.2211 5.56028V7.58036L21.625 9.17228V10.5194L35.4411 10.5193V18.7212H39.1423L42.8719 16.6234H44.8164L46.5752 15.5642V13.5442L49.1714 11.9522V10.6051L35.3553 10.605Z" fill="#FDD406"/>
<path d="M21.6251 10.6051L21.625 11.9522L24.2212 13.5442V15.5642L25.98 16.6234H27.9245L31.6541 18.7212H35.3554V10.5193L49.1715 10.5194V9.17228L46.5753 7.58036V5.56028L44.8165 4.50104H42.872L39.1424 2.40332H35.4413V10.605L21.6251 10.6051Z" fill="white"/>
<path d="M27.2901 5.25608L26.651 4.6604L26.0177 5.05088L26.6579 5.64776L25.8359 6.15704H27.6297L29.1755 7.61516L29.6701 7.09292L28.1671 5.67512V4.71272L27.2901 5.25608Z" fill="black"/>
<path d="M30.3135 4.99436L29.6744 4.39868L29.0412 4.78916L29.6814 5.38604L28.8594 5.89532H30.6531L32.199 7.35345L32.6935 6.83121L31.1905 5.4134V4.451L30.3135 4.99436Z" fill="black"/>
<path d="M27.0673 6.96714L26.4282 6.37146L25.7951 6.76194L26.4352 7.35882L25.6133 7.8681H27.407L28.9528 9.32622L29.4473 8.80398L27.9443 7.38618V6.42378L27.0673 6.96714Z" fill="black"/>
<path d="M35.3992 2.31775H33.7806L32.9336 3.13399H31.2825L30.0625 3.76723L30.347 4.46047L31.4351 3.88903H31.9116L33.5798 5.81839L35.3993 4.71043L35.3992 2.31775Z" fill="black"/>
<path d="M26.6384 4.76758L27.2127 5.3029L26.7315 5.60098L26.1564 5.06482L26.6384 4.76758ZM28.0795 4.86658V5.71198L29.547 7.09629L29.1702 7.49421L27.6619 6.07138H26.1348L28.0795 4.86658Z" fill="#D91C16"/>
<path d="M29.6638 4.50586L30.2381 5.04118L29.7569 5.33926L29.1819 4.8031L29.6638 4.50586ZM31.1049 4.60486V5.45026L32.5724 6.83457L32.1956 7.2325L30.6873 5.80978H29.1602L31.1049 4.60486Z" fill="#D91C16"/>
<path d="M26.4178 6.47864L26.992 7.01396L26.5108 7.31204L25.9358 6.77588L26.4178 6.47864ZM27.8588 6.57764V7.42304L29.3263 8.80735L28.9496 9.20527L27.4413 7.78256H25.9141L27.8588 6.57764Z" fill="#D91C16"/>
<path d="M35.3569 2.40332H33.8157L32.9687 3.21956H31.304L30.1719 3.80708L30.3909 4.34084L31.4142 3.80348H31.9512L33.5976 5.70764L35.3569 4.6364L35.3569 2.40332Z" fill="#D91C16"/>
<path d="M27.2901 15.8683L26.651 16.464L26.0177 16.0735L26.6579 15.4766L25.8359 14.9673H27.6297L29.1755 13.5092L29.6701 14.0315L28.1671 15.4493V16.4117L27.2901 15.8683Z" fill="black"/>
<path d="M30.3135 16.13L29.6744 16.7257L29.0412 16.3352L29.6814 15.7383L28.8594 15.2291H30.6531L32.199 13.7709L32.6935 14.2932L31.1905 15.711V16.6734L30.3135 16.13Z" fill="black"/>
<path d="M27.0673 14.1572L26.4282 14.7529L25.7951 14.3625L26.4352 13.7656L25.6133 13.2563H27.407L28.9528 11.7982L29.4473 12.3204L27.9443 13.7382V14.7006L27.0673 14.1572Z" fill="black"/>
<path d="M35.3992 18.8066H33.7806L32.9336 17.9904H31.2825L30.0625 17.3572L30.347 16.6639L31.4351 17.2354H31.9116L33.5798 15.306L35.3993 16.414L35.3992 18.8066Z" fill="black"/>
<path d="M26.6384 16.3568L27.2127 15.8215L26.7315 15.5234L26.1564 16.0596L26.6384 16.3568ZM28.0795 16.2578V15.4124L29.547 14.0281L29.1702 13.6302L27.6619 15.053H26.1348L28.0795 16.2578Z" fill="#D91C16"/>
<path d="M29.6638 16.6185L30.2381 16.0832L29.7569 15.7851L29.1819 16.3213L29.6638 16.6185ZM31.1049 16.5195V15.6741L32.5724 14.2898L32.1956 13.8919L30.6873 15.3146H29.1602L31.1049 16.5195Z" fill="#D91C16"/>
<path d="M26.4178 14.6458L26.992 14.1104L26.5108 13.8124L25.9358 14.3485L26.4178 14.6458ZM27.8588 14.5468V13.7014L29.3263 12.317L28.9496 11.9191L27.4413 13.3418H25.9141L27.8588 14.5468Z" fill="#D91C16"/>
<path d="M35.3569 18.7211H33.8157L32.9687 17.9048H31.304L30.1719 17.3173L30.3909 16.7835L31.4142 17.3209H31.9512L33.5976 15.4167L35.3569 16.488L35.3569 18.7211Z" fill="#D91C16"/>
<path d="M26.2108 7.94217L25.4391 7.65381L25.4206 7.66665L24.4241 8.35809V8.54397L22.8281 10.5622L24.4241 12.5805V12.7665L25.4391 13.4707L26.2108 13.1823L25.7398 12.8704V12.277L25.927 12.0531H26.7633V9.07137H25.927L25.7398 8.84745V8.25405L26.2108 7.94217Z" fill="black"/>
<path d="M24.51 8.40267L25.4513 7.74963L26.0237 7.96347L25.6543 8.20803V8.87847L25.8871 9.15687H26.6777V11.9675H25.8871L25.6543 12.2459V12.9164L26.0237 13.1609L25.4513 13.3748L24.51 12.7217L24.5101 12.5507L22.9375 10.5622L24.5101 8.57356L24.51 8.40267Z" fill="#D91C16"/>
<path d="M43.5087 5.25608L44.1479 4.6604L44.7811 5.05088L44.1409 5.64776L44.9629 6.15704H43.1691L41.6233 7.61516L41.1288 7.09292L42.6318 5.67512V4.71272L43.5087 5.25608Z" fill="black"/>
<path d="M40.4833 4.99436L41.1225 4.39868L41.7557 4.78916L41.1155 5.38604L41.9375 5.89532H40.1437L38.5979 7.35345L38.1034 6.83121L39.6064 5.4134V4.451L40.4833 4.99436Z" fill="black"/>
<path d="M43.7296 6.96714L44.3687 6.37146L45.0018 6.76194L44.3617 7.35882L45.1836 7.8681H43.3898L41.8441 9.32622L41.3496 8.80398L42.8526 7.38618V6.42378L43.7296 6.96714Z" fill="black"/>
<path d="M35.3977 2.31775H37.0163L37.8633 3.13399H39.5143L40.7344 3.76723L40.4499 4.46047L39.3618 3.88903H38.8853L37.2171 5.81839L35.3976 4.71043L35.3977 2.31775Z" fill="black"/>
<path d="M44.1585 4.76758L43.5842 5.3029L44.0654 5.60098L44.6405 5.06482L44.1585 4.76758ZM42.7174 4.86658V5.71198L41.2499 7.09629L41.6267 7.49421L43.135 6.07138H44.6621L42.7174 4.86658Z" fill="#D91C16"/>
<path d="M41.1331 4.50586L40.5588 5.04118L41.04 5.33926L41.615 4.8031L41.1331 4.50586ZM39.692 4.60486V5.45026L38.2245 6.83457L38.6013 7.2325L40.1096 5.80978H41.6367L39.692 4.60486Z" fill="#D91C16"/>
<path d="M44.3791 6.47864L43.8049 7.01396L44.2861 7.31204L44.8611 6.77588L44.3791 6.47864ZM42.9381 6.57764V7.42304L41.4706 8.80735L41.8473 9.20527L43.3556 7.78256H44.8828L42.9381 6.57764Z" fill="#D91C16"/>
<path d="M35.44 2.40332H36.9812L37.8282 3.21956H39.4929L40.625 3.80708L40.406 4.34084L39.3826 3.80348H38.8456L37.1992 5.70764L35.44 4.6364L35.44 2.40332Z" fill="#D91C16"/>
<path d="M43.5087 15.8683L44.1479 16.464L44.7811 16.0735L44.1409 15.4766L44.9629 14.9673H43.1691L41.6233 13.5092L41.1288 14.0315L42.6318 15.4493V16.4117L43.5087 15.8683Z" fill="black"/>
<path d="M40.4833 16.13L41.1225 16.7257L41.7557 16.3352L41.1155 15.7383L41.9375 15.2291H40.1437L38.5979 13.7709L38.1034 14.2932L39.6064 15.711V16.6734L40.4833 16.13Z" fill="black"/>
<path d="M43.7296 14.1572L44.3687 14.7529L45.0018 14.3625L44.3617 13.7656L45.1836 13.2563H43.3898L41.8441 11.7982L41.3496 12.3204L42.8526 13.7382V14.7006L43.7296 14.1572Z" fill="black"/>
<path d="M35.3977 18.8066H37.0163L37.8633 17.9904H39.5143L40.7344 17.3572L40.4499 16.6639L39.3618 17.2354H38.8853L37.2171 15.306L35.3976 16.414L35.3977 18.8066Z" fill="black"/>
<path d="M44.1585 16.3568L43.5842 15.8215L44.0654 15.5234L44.6405 16.0596L44.1585 16.3568ZM42.7174 16.2578V15.4124L41.2499 14.0281L41.6267 13.6302L43.135 15.053H44.6621L42.7174 16.2578Z" fill="#D91C16"/>
<path d="M41.1331 16.6185L40.5588 16.0832L41.04 15.7851L41.615 16.3213L41.1331 16.6185ZM39.692 16.5195V15.6741L38.2245 14.2898L38.6013 13.8919L40.1096 15.3146H41.6367L39.692 16.5195Z" fill="#D91C16"/>
<path d="M44.3791 14.6458L43.8049 14.1104L44.2861 13.8124L44.8611 14.3485L44.3791 14.6458ZM42.9381 14.5468V13.7014L41.4706 12.317L41.8473 11.9191L43.3556 13.3418H44.8828L42.9381 14.5468Z" fill="#D91C16"/>
<path d="M35.44 18.7211H36.9812L37.8282 17.9048H39.4929L40.625 17.3173L40.406 16.7835L39.3826 17.3209H38.8456L37.1992 15.4167L35.44 16.488L35.44 18.7211Z" fill="#D91C16"/>
<path d="M44.5861 7.94217L45.3578 7.65381L45.3763 7.66665L46.3727 8.35809V8.54397L47.9688 10.5622L46.3727 12.5805V12.7665L45.3578 13.4707L44.5861 13.1823L45.0571 12.8704V12.277L44.8699 12.0531H44.0336V9.07137H44.8699L45.0571 8.84745V8.25405L44.5861 7.94217Z" fill="black"/>
<path d="M46.2869 8.40267L45.3456 7.74963L44.7732 7.96347L45.1426 8.20803V8.87847L44.9098 9.15687H44.1192V11.9675H44.9098L45.1426 12.2459V12.9164L44.7732 13.1609L45.3456 13.3748L46.2869 12.7217L46.2868 12.5507L47.8594 10.5622L46.2868 8.57356L46.2869 8.40267Z" fill="#D91C16"/>
<path d="M24.8393 12.2564L24.4048 11.8804V11.6992L23.4727 10.5622L24.4049 9.42511V9.24403L24.8395 8.86807L25.6199 9.50275L25.1695 9.49927L25.8351 10.1749H27.3561L28.5523 9.23947V6.77263H31.544L35.0185 4.64047V4.08127L34.4871 3.72715H34.3187L33.7401 4.11439L33.6505 4.40323L33.1978 3.78523L34.0775 3.04615H34.2182L35.2109 2.31775H35.5852L36.5779 3.04615H36.7186L37.5983 3.78523L37.1457 4.40323L37.0561 4.11439L36.4774 3.72715H36.3091L35.7777 4.08127V4.64047L39.2522 6.77263H42.2439V9.23947L43.4401 10.1749H44.9611L45.6267 9.49927L45.1762 9.50275L45.9567 8.86807L46.3912 9.24403V9.42511L47.3235 10.5622L46.3912 11.6992V11.8804L45.9567 12.2564L45.1762 11.6217L45.6267 11.6252L44.9611 10.9495H43.4401L42.2439 11.885V14.3518H39.2522L35.7777 16.484V17.0432L36.3091 17.3973H36.4774L37.0561 17.0101L37.1457 16.7212L37.5983 17.3391L36.7186 18.0783H36.5779L35.5852 18.8067H35.2109L34.2182 18.0783H34.0775L33.1977 17.3391L33.6505 16.7212L33.7401 17.0101L34.3186 17.3973H34.487L35.0185 17.0432V16.484L31.544 14.3518H28.5523V11.885L27.356 10.9495H25.8351L25.1695 11.6252L25.6199 11.6217L24.8393 12.2564Z" fill="black"/>
<path d="M35.4417 17.4638L35.8219 17.7546L35.4417 18.0453V17.4638ZM34.2329 17.9926H34.2469L35.2397 18.7212H35.3556V18.1528L34.8348 17.7546L35.3557 17.3563V16.2888L31.6379 14.0072H28.8895V11.7147L27.4705 10.605H25.3302L24.7923 11.2132L24.2543 10.605L23.6191 10.6051L24.4911 11.6685V11.8412L24.8364 12.1412L25.3913 11.7092L25.0656 11.7117V11.6037L25.7914 10.8639H27.3862L28.6386 11.8434V14.2663H31.5689L35.1047 16.4361V17.0889L34.5136 17.4829H34.2931L33.6678 17.0643L33.6197 16.909L33.3148 17.3252L34.1094 17.9926L34.2329 17.9926ZM24.7927 10.0406L25.2163 10.5194H24.369L24.7927 10.0406ZM35.3559 3.07916L34.9758 3.36992L35.3559 3.66056V3.07916ZM45.5813 10.6051L46.0049 11.0839L46.4285 10.6051H45.5813ZM36.5505 3.13172L35.5577 2.40332H35.4418V2.9714L35.9628 3.36992L35.4417 3.76844V4.83572L39.1595 7.11728H41.9079V9.40976L43.3269 10.5195H45.4668L46.0049 9.91136L46.543 10.5194H47.1783L46.3064 9.45596V9.28328L45.961 8.98328L45.4061 9.41528L45.7318 9.41264V9.52076L45.006 10.2604H43.4112L42.1589 9.281V6.8582H39.2285L35.6927 4.68836V4.03544L36.2838 3.6416H36.5043L37.1296 4.06016L37.1777 4.21544L37.4826 3.79928L36.688 3.13172L36.5505 3.13172Z" fill="#FDD406"/>
<path d="M35.3556 18.0452L34.9756 17.7546L35.3556 17.4639V18.0452ZM25.2161 10.6051L24.7925 11.0839L24.3689 10.6051H25.2161ZM36.5643 17.9926H36.5502L35.5575 18.7212H35.4415V18.5724V18.1531L35.9626 17.7546L35.4414 17.356V16.2888L39.1593 14.0072H41.9076V11.7147L43.3266 10.605H45.4667L46.0047 11.2132L46.5426 10.605L47.178 10.6051L46.3061 11.6685V11.8412L45.9607 12.1412L45.4059 11.7092L45.7316 11.7117V11.6037L45.0058 10.8639H43.411L42.1587 11.8434V14.2663H39.2283L35.6925 16.4361V17.0889L36.2836 17.4829H36.504L37.1293 17.0643L37.1775 16.909L37.4824 17.3252L36.6877 17.9926L36.5643 17.9926ZM46.0047 10.0406L45.5811 10.5194H46.4284L46.0047 10.0406ZM34.2469 3.13172L35.2397 2.40332H35.3557V2.9714L34.8346 3.36992L35.3557 3.76844L35.3559 4.83572L31.6379 7.11728H28.8897V9.40976L27.4705 10.5195H25.33L24.792 9.91136L24.2539 10.5194H23.6191L24.4912 9.45596V9.28328L24.8365 8.98328L25.3913 9.41528L25.0656 9.41264V9.52076L25.7915 10.2604H27.3862L28.6386 9.281V6.8582H31.5689L35.1048 4.68836V4.03544L34.5137 3.6416H34.2931L33.6678 4.06016L33.6197 4.21544L33.3149 3.79928L34.1095 3.13172L34.2469 3.13172ZM35.4414 3.66068L35.8217 3.36992L35.4414 3.07916V3.66068Z" fill="white"/>
<path d="M35.3556 10.605V4.93604L31.6619 7.20284H28.975V9.4514L27.6094 10.5194L35.4414 10.5193V16.1883L39.1349 13.9216H41.8218V11.6731L43.1874 10.6051L35.3556 10.605Z" fill="#1E9A1C"/>
<path d="M27.6094 10.605L28.9751 11.673V13.9215H31.6619L35.3557 16.1883V10.5191L43.1875 10.5193L41.8219 9.45127V7.20271H39.135L35.4415 4.93604V10.6049L27.6094 10.605Z" fill="#D91C16"/>
<path d="M31.4228 7.81272L30.7838 7.21704L30.1505 7.6074L30.7908 8.20428L29.9688 8.71356H31.7625L33.3083 10.1718L33.8029 9.64945L32.2999 8.23164V7.26936L31.4228 7.81272Z" fill="black"/>
<path d="M39.3741 13.3118L40.0132 13.9075L40.6463 13.517L40.0063 12.9202L40.8283 12.411H39.0344L37.4887 10.9528L36.9941 11.475L38.4971 12.8929V13.8552L39.3741 13.3118Z" fill="black"/>
<path d="M31.4228 13.3118L30.7837 13.9075L30.1505 13.517L30.7906 12.9202L29.9688 12.411H31.7625L33.3082 10.9528L33.8027 11.475L32.2997 12.8929V13.8552L31.4228 13.3118Z" fill="black"/>
<path d="M39.3741 7.81272L40.0132 7.21704L40.6463 7.6074L40.0063 8.20428L40.8283 8.71356H39.0344L37.4887 10.1718L36.9941 9.64945L38.4971 8.23164V7.26936L39.3741 7.81272Z" fill="black"/>
<path d="M40.0235 13.8003L39.4493 13.265L39.9305 12.9669L40.5055 13.503L40.0235 13.8003ZM38.5825 13.7013V12.856L37.115 11.4717L37.4918 11.0736L39.0001 12.4965H40.5272L38.5825 13.7013ZM30.7732 7.32397L31.3475 7.85929L30.8662 8.15749L30.2911 7.62133L30.7732 7.32397ZM32.2143 7.42309V8.26837L33.6817 9.65269L33.3049 10.0507L31.7966 8.62789H30.2695L32.2143 7.42309Z" fill="#D91C16"/>
<path d="M40.0236 7.32397L39.4494 7.85929L39.9306 8.15749L40.5056 7.62133L40.0236 7.32397ZM38.5827 7.42309V8.26837L37.1152 9.65269L37.492 10.0507L39.0003 8.62789H40.5274L38.5827 7.42309ZM30.7733 13.8003L31.3475 13.265L30.8663 12.9669L30.2913 13.503L30.7733 13.8003ZM32.2143 13.7013V12.856L33.6817 11.4717L33.3051 11.0736L31.7968 12.4965H30.2695L32.2143 13.7013Z" fill="#1E9A1C"/>
<path d="M39.3694 10.5624L35.3976 13.2094L31.4258 10.5624L35.3976 7.91516L39.3694 10.5624Z" fill="black"/>
<path d="M35.3549 8.04651L31.6447 10.5193H39.151L35.4407 8.04651V13.0779L39.1511 10.605H31.6445L35.3549 13.0779V8.04651Z" fill="white"/>
<path d="M36.4598 11.4725V12.2003H34.3357V11.4725H32.9609V9.65187H34.3357V8.92407H36.4598V9.65187H37.8344V11.4725H36.4598Z" fill="black"/>
<path d="M34.4215 9.00965V9.73745H33.0469V10.5194H35.355V9.00964L34.4215 9.00965ZM35.4408 10.5194H37.7488V9.73745H36.3742V9.00965H35.4408L35.4408 10.5194ZM33.0469 10.6051V11.387H34.4215V12.1148H35.355V10.605L33.0469 10.6051ZM35.4408 12.1148H36.3742V11.387H37.7488V10.6051H35.4408V12.1148Z" fill="#D91C16"/>
<path d="M42.1756 40.722V39.556H45.3733V38.39H48.5709V27.8537H45.3733V26.6877H42.1756V25.5216H38.978V24.3556H31.8216V25.5216H28.6239V26.6877H25.4262V27.8537H22.2285V38.39H25.4262V39.556H28.6239V40.722H31.8216V41.8881H38.978V40.722H42.1756Z" fill="black"/>
<path d="M31.912 24.4386V25.6038H28.7128V26.7691H25.5136V27.9343H22.3145V38.3051H25.5136V39.4705H28.7128V40.6356H31.912V41.8007H38.8927V40.6356H42.092V39.4705H45.2913V38.3051H48.4903V27.9343H45.2913V26.7691H42.092V25.6038H38.8927V24.4386H31.912ZM32.7595 25.2861H38.0452V26.4513H41.2446V27.6166H44.4439V28.7818H47.6429V37.4576H44.4439V38.6231H41.2446V39.7882H38.0452V40.9532H32.7595V39.7882H29.5602V38.6231H26.3611V37.4576H23.1619V28.7818H26.3611V27.6166H29.5602V26.4513H32.7595V25.2861Z" fill="#FDD406"/>
<path d="M29.6415 39.7038V38.5377H26.4439V37.3717H23.2461V28.8717H26.4439V27.7056H29.6415V26.5396H32.8391V25.3737H37.9593V26.5396H41.1571V27.7056H44.3546V28.8717H47.5523V37.3717H44.3546V38.5377H41.1571V39.7038H37.9593V40.8697H32.8391V39.7038H29.6415Z" fill="#D91C16"/>
<path d="M30.3845 27.4028L29.5562 26.7767V27.9789L28.7632 28.4829L28.7611 27.7304L28.0004 28.4136L27.2398 27.7304L27.2377 28.4829L26.3588 27.9244V29.039L25.6486 29.5532L25.6466 28.8698L24.8027 29.4809L23.9589 28.8698L23.9569 29.5532L23.1609 28.9769V32.3532H22.2285V33.8901H23.1609V37.2664L23.9569 36.69L23.9589 37.3736L24.8027 36.7624L25.6464 37.3736L25.6485 36.69L26.3588 37.2042V38.3189L27.2376 37.7604L27.2397 38.513L28.0004 37.8297L28.761 38.513L28.7631 37.7604L29.5562 38.2643V39.4666L30.3844 38.8406L30.3862 39.6802L31.1979 38.9543L32.0097 39.6802L32.0115 38.8406L32.754 39.4018V40.684L33.8643 39.672V40.8612L35.3998 39.874L36.9354 40.8612V39.672L38.0457 40.684V39.4018L38.7881 38.8406L38.7899 39.6802L39.6017 38.9543L40.4135 39.6802L40.4153 38.8406L41.2433 39.4666V38.2643L42.0366 37.7604L42.0386 38.513L42.7994 37.8297L43.5601 38.513L43.5621 37.7604L44.4411 38.3189V37.2042L45.1514 36.69L45.1534 37.3736L45.9971 36.7624L46.841 37.3736L46.843 36.69L47.6389 37.2663V33.8901H48.5713V32.3532H47.6389V28.9769L46.843 29.5532L46.841 28.8698L45.9971 29.4809L45.1533 28.8698L45.1515 29.5532L44.4412 29.039V27.9244L43.5622 28.4829L43.5602 27.7304L42.7995 28.4136L42.0387 27.7304L42.0367 28.4829L41.2434 27.9788V26.7767L40.4154 27.4026L40.4136 26.563L39.6018 27.289L38.79 26.563L38.7882 27.4028L38.0458 26.8413V25.5593L36.9355 26.5713V25.3821L35.3999 26.3693L33.8644 25.3821V26.5713L32.7541 25.5593V26.8414L32.0116 27.4028L32.0098 26.563L31.198 27.289L30.3863 26.563L30.3845 27.4028Z" fill="black"/>
<path d="M24.0425 29.7208L24.0445 29.0372L24.803 29.5867L24.8285 29.5681L25.5615 29.0372L25.5635 29.7208L26.3591 29.1449V37.0985L25.5635 36.5226L25.5615 37.2061L24.803 36.6566L24.0445 37.2061L24.0425 36.5226L23.2469 37.0985V33.8044H22.3145V32.439H23.2469V29.1449L24.0425 29.7208Z" fill="#1E9A1C"/>
<path d="M30.4719 26.7544L31.1984 27.4041L31.9249 26.7544L31.9267 27.5748L32.7545 26.949V39.2945L31.9267 38.6687L31.9249 39.4892L31.1984 38.8395L30.4719 39.4892L30.4703 38.6687L29.6426 39.2945V26.949L30.4703 27.5748L30.4719 26.7544Z" fill="#1E9A1C"/>
<path d="M40.3293 26.7544L39.6028 27.4041L38.8763 26.7544L38.8745 27.5748L38.0469 26.949V39.2945L38.8745 38.6687L38.8763 39.4892L39.6028 38.8395L40.3293 39.4892L40.3311 38.6687L41.1588 39.2945V26.949L40.3311 27.5748L40.3293 26.7544Z" fill="#1E9A1C"/>
<path d="M46.758 29.7208L46.756 29.0372L45.9975 29.5867L45.9718 29.5681L45.2389 29.0372L45.2369 29.7208L44.4414 29.1449V37.0985L45.2369 36.5226L45.2389 37.2061L45.9975 36.6566L46.756 37.2061L46.758 36.5226L47.5535 37.0985V33.8044H48.4859V32.439H47.5535V29.1449L46.758 29.7208Z" fill="#1E9A1C"/>
<path d="M27.3258 27.9221L28.0013 28.529L28.6768 27.9221L28.6788 28.6388L29.5573 28.0804V38.1629L28.6788 37.6047L28.6768 38.3212L28.0013 37.7145L27.3258 38.3212L27.3238 37.6047L26.4453 38.1629V28.0804L27.3238 28.6388L27.3258 27.9221Z" fill="#FDD406"/>
<path d="M33.9501 26.7653L32.8398 25.7534V40.4899L33.9501 39.4779V40.7042L35.3998 39.7721H35.4L36.8498 40.7042V39.4779L37.96 40.4899V25.7534L36.8498 26.7653V25.5391L35.4 26.4711H35.3998L33.9501 25.5391V26.7653Z" fill="#FDD406"/>
<path d="M43.4757 27.9221L42.8002 28.529L42.1246 27.9221L42.1228 28.6388L41.2441 28.0804V38.1629L42.1228 37.6047L42.1246 38.3212L42.8002 37.7145L43.4757 38.3212L43.4777 37.6047L44.3562 38.1629V28.0804L43.4777 28.6388L43.4757 27.9221Z" fill="#FDD406"/>
<path d="M24.4579 31.6732C24.5549 31.7712 24.671 31.8207 24.8027 31.8207C24.9344 31.8207 25.0504 31.7712 25.1476 31.6732C25.4513 31.3672 25.4615 30.8138 25.4585 30.4155C25.4585 30.4155 25.1074 30.7866 25.0441 30.8535C24.9999 30.7772 24.8027 30.4368 24.8027 30.4368C24.8027 30.4368 24.6056 30.7772 24.5613 30.8535C24.4979 30.7866 24.1468 30.4155 24.1468 30.4155C24.1438 30.8138 24.1541 31.3672 24.4579 31.6732Z" fill="black"/>
<path d="M27.7945 30.816L27.5387 30.5604V30.0511L26.9512 30.5956L28.0014 31.6459L29.0517 30.5956L28.4641 30.0511V30.5604L28.2084 30.816V29.9137L28.6614 29.5248L28.0014 28.958L27.3414 29.5248L27.7945 29.9137V30.816Z" fill="black"/>
<path d="M30.9917 29.804L30.736 29.5483V29.039L30.1484 29.5836L31.1987 30.6338L32.2489 29.5836L31.6614 29.039V29.5483L31.4056 29.804V28.9016L31.8587 28.5127L31.1987 27.946L30.5387 28.5127L30.9917 28.9016V29.804Z" fill="black"/>
<path d="M24.8027 30.6078C24.8552 30.6983 25.0274 30.9957 25.0274 30.9957C25.0274 30.9957 25.27 30.7392 25.3691 30.6347C25.3572 31.0844 25.2585 31.4397 25.0868 31.6127C25.0063 31.6938 24.9107 31.7349 24.8027 31.7349C24.6946 31.7349 24.5991 31.6938 24.5187 31.6128C24.347 31.4397 24.2482 31.0844 24.2363 30.6347C24.3353 30.7393 24.578 30.9957 24.578 30.9957C24.6529 30.8664 24.7279 30.737 24.8027 30.6078Z" fill="white"/>
<path d="M31.3194 28.8624V30.011L31.7466 29.5839V29.2354L32.1249 29.5861L31.1982 30.5127L30.2715 29.5861L30.6497 29.2354V29.5839L31.0769 30.011V28.8624L30.6698 28.5128L31.1982 28.0591L31.7266 28.5128L31.3194 28.8624Z" fill="white"/>
<path d="M28.1222 29.8744V31.0231L28.5494 30.5959V30.2475L28.9276 30.598L28.0009 31.5248L27.0742 30.598L27.4525 30.2475V30.5959L27.8797 31.0231V29.8744L27.4725 29.5249L28.0009 29.0712L28.5293 29.5249L28.1222 29.8744Z" fill="#D91C16"/>
<path d="M46.341 31.6732C46.2439 31.7712 46.1278 31.8207 45.9961 31.8207C45.8644 31.8207 45.7484 31.7712 45.6512 31.6732C45.3475 31.3672 45.3373 30.8138 45.3403 30.4155C45.3403 30.4155 45.6914 30.7866 45.7548 30.8535C45.7989 30.7772 45.9961 30.4368 45.9961 30.4368C45.9961 30.4368 46.1932 30.7772 46.2375 30.8535C46.3009 30.7866 46.652 30.4155 46.652 30.4155C46.655 30.8138 46.6447 31.3672 46.341 31.6732Z" fill="black"/>
<path d="M43.0062 30.816L43.2621 30.5604V30.0511L43.8496 30.5956L42.7994 31.6459L41.7491 30.5956L42.3367 30.0511V30.5604L42.5924 30.816V29.9137L42.1394 29.5248L42.7994 28.958L43.4594 29.5248L43.0062 29.9137V30.816Z" fill="black"/>
<path d="M39.8072 29.804L40.0629 29.5483V29.039L40.6504 29.5836L39.6001 30.6338L38.5499 29.5836L39.1374 29.039V29.5483L39.3933 29.804V28.9016L38.9402 28.5127L39.6001 27.946L40.2602 28.5127L39.8072 28.9016V29.804Z" fill="black"/>
<path d="M45.9961 30.6078C45.9437 30.6983 45.7715 30.9957 45.7715 30.9957C45.7715 30.9957 45.5288 30.7392 45.4297 30.6347C45.4416 31.0844 45.5403 31.4397 45.7121 31.6127C45.7926 31.6938 45.8881 31.7349 45.9961 31.7349C46.1042 31.7349 46.1997 31.6938 46.2801 31.6128C46.4519 31.4397 46.5506 31.0844 46.5625 30.6347C46.4635 30.7393 46.2209 30.9957 46.2209 30.9957C46.146 30.8664 46.071 30.737 45.9961 30.6078Z" fill="white"/>
<path d="M39.4794 28.8624V30.011L39.0522 29.5839V29.2354L38.6739 29.5861L39.6006 30.5127L40.5273 29.5861L40.1491 29.2354V29.5839L39.7219 30.011V28.8624L40.1291 28.5128L39.6006 28.0591L39.0722 28.5128L39.4794 28.8624Z" fill="white"/>
<path d="M42.6766 29.8744V31.0231L42.2494 30.5959V30.2475L41.8712 30.598L42.798 31.5248L43.7246 30.598L43.3464 30.2475V30.5959L42.9192 31.0231V29.8744L43.3263 29.5249L42.798 29.0712L42.2695 29.5249L42.6766 29.8744Z" fill="#D91C16"/>
<path d="M36.656 30.1874L36.3119 29.712L37.1942 28.8975L36.3716 28.2217V28.7005L36.0275 28.9949V28.1264L36.8046 27.5537L35.3988 26.5175L33.993 27.5537L34.7703 28.1264V28.9949L34.4262 28.7005V28.2217L33.6035 28.8975L34.4859 29.712L34.1418 30.1874H36.656Z" fill="black"/>
<path d="M34.31 30.1017L34.6002 29.7006L33.7344 28.9014L34.3407 28.4031V28.74L34.8563 29.1811V28.0831L34.1378 27.5537L35.3991 26.624L36.6605 27.5537L35.9421 28.0831V29.1811L36.4575 28.74V28.4031L37.064 28.9014L36.1982 29.7006L36.4885 30.1017H34.31Z" fill="#D91C16"/>
<path d="M34.7578 27.5538L35.4002 28.0272L36.0427 27.5538L35.4002 27.0803L35.3747 27.0992L34.7578 27.5538Z" fill="black"/>
<path d="M35.4002 27.1868C35.4427 27.218 35.8231 27.4984 35.8982 27.5537C35.8231 27.609 35.4427 27.8895 35.4002 27.9207C35.3579 27.8895 34.9773 27.609 34.9023 27.5537C34.9773 27.4984 35.3579 27.218 35.4002 27.1868Z" fill="#1E9A1C"/>
<path d="M24.4579 34.57C24.5549 34.4721 24.671 34.4226 24.8027 34.4226C24.9344 34.4226 25.0504 34.4721 25.1476 34.57C25.4513 34.876 25.4615 35.4295 25.4585 35.8278C25.4585 35.8278 25.1074 35.4567 25.0441 35.3898C24.9999 35.4661 24.8027 35.8065 24.8027 35.8065C24.8027 35.8065 24.6056 35.4661 24.5613 35.3898C24.4979 35.4567 24.1468 35.8278 24.1468 35.8278C24.1438 35.4295 24.1541 34.876 24.4579 34.57Z" fill="black"/>
<path d="M27.7945 35.4272L27.5387 35.6828V36.1921L26.9512 35.6475L28.0014 34.5973L29.0517 35.6475L28.4641 36.1921V35.6828L28.2084 35.4272V36.3295L28.6614 36.7184L28.0014 37.2852L27.3414 36.7184L27.7945 36.3295V35.4272Z" fill="black"/>
<path d="M30.9917 36.4393L30.736 36.695V37.2043L30.1484 36.6597L31.1987 35.6095L32.2489 36.6597L31.6614 37.2043V36.695L31.4056 36.4393V37.3417L31.8587 37.7306L31.1987 38.2972L30.5387 37.7306L30.9917 37.3417V36.4393Z" fill="black"/>
<path d="M24.8027 35.6355C24.8552 35.545 25.0274 35.2475 25.0274 35.2475C25.0274 35.2475 25.27 35.5041 25.3691 35.6086C25.3572 35.1589 25.2585 34.8035 25.0868 34.6306C25.0063 34.5495 24.9107 34.5083 24.8027 34.5083C24.6946 34.5083 24.5991 34.5495 24.5187 34.6305C24.347 34.8035 24.2482 35.1589 24.2363 35.6086C24.3353 35.504 24.578 35.2475 24.578 35.2475C24.6529 35.3769 24.7279 35.5063 24.8027 35.6355Z" fill="white"/>
<path d="M31.3194 37.3809V36.2323L31.7466 36.6594V37.0078L32.1249 36.6572L31.1982 35.7306L30.2715 36.6572L30.6497 37.0078V36.6594L31.0769 36.2323V37.3809L30.6698 37.7305L31.1982 38.1842L31.7266 37.7305L31.3194 37.3809Z" fill="white"/>
<path d="M28.1222 36.3688V35.2202L28.5494 35.6474V35.9958L28.9276 35.6452L28.0009 34.7185L27.0742 35.6452L27.4525 35.9958V35.6474L27.8797 35.2202V36.3688L27.4725 36.7184L28.0009 37.1721L28.5293 36.7184L28.1222 36.3688Z" fill="#D91C16"/>
<path d="M46.341 34.57C46.2439 34.4721 46.1278 34.4226 45.9961 34.4226C45.8644 34.4226 45.7484 34.4721 45.6512 34.57C45.3475 34.876 45.3373 35.4295 45.3403 35.8278C45.3403 35.8278 45.6914 35.4567 45.7548 35.3898C45.7989 35.4661 45.9961 35.8065 45.9961 35.8065C45.9961 35.8065 46.1932 35.4661 46.2375 35.3898C46.3009 35.4567 46.652 35.8278 46.652 35.8278C46.655 35.4295 46.6447 34.876 46.341 34.57Z" fill="black"/>
<path d="M43.0062 35.4273L43.2621 35.6829V36.1922L43.8496 35.6476L42.7994 34.5974L41.7491 35.6476L42.3367 36.1922V35.6829L42.5924 35.4273V36.3296L42.1394 36.7185L42.7994 37.2853L43.4594 36.7185L43.0062 36.3296V35.4273Z" fill="black"/>
<path d="M39.8072 36.4393L40.0629 36.695V37.2043L40.6504 36.6597L39.6001 35.6095L38.5499 36.6597L39.1374 37.2043V36.695L39.3933 36.4393V37.3417L38.9402 37.7306L39.6001 38.2972L40.2602 37.7306L39.8072 37.3417V36.4393Z" fill="black"/>
<path d="M45.9961 35.6355C45.9437 35.545 45.7715 35.2475 45.7715 35.2475C45.7715 35.2475 45.5288 35.5041 45.4297 35.6086C45.4416 35.1589 45.5403 34.8035 45.7121 34.6306C45.7926 34.5495 45.8881 34.5083 45.9961 34.5083C46.1042 34.5083 46.1997 34.5495 46.2801 34.6305C46.4519 34.8035 46.5506 35.1589 46.5625 35.6086C46.4635 35.504 46.2209 35.2475 46.2209 35.2475C46.146 35.3769 46.071 35.5063 45.9961 35.6355Z" fill="white"/>
<path d="M39.4794 37.3809V36.2323L39.0522 36.6594V37.0078L38.6739 36.6572L39.6006 35.7306L40.5273 36.6572L40.1491 37.0078V36.6594L39.7219 36.2323V37.3809L40.1291 37.7305L39.6006 38.1842L39.0722 37.7305L39.4794 37.3809Z" fill="white"/>
<path d="M42.6766 36.3688V35.2202L42.2494 35.6474V35.9958L41.8712 35.6452L42.798 34.7185L43.7246 35.6452L43.3464 35.9958V35.6474L42.9192 35.2202V36.3688L43.3263 36.7184L42.798 37.1721L42.2695 36.7184L42.6766 36.3688Z" fill="#D91C16"/>
<path d="M36.656 36.0559L36.3119 36.5313L37.1942 37.3458L36.3716 38.0216V37.5428L36.0275 37.2484V38.1169L36.8046 38.6896L35.3988 39.7258L33.993 38.6896L34.7703 38.1169V37.2484L34.4262 37.5428V38.0216L33.6035 37.3458L34.4859 36.5313L34.1418 36.0559H36.656Z" fill="black"/>
<path d="M34.31 36.1414L34.6002 36.5426L33.7344 37.3418L34.3407 37.84V37.5032L34.8563 37.0621V38.1601L34.1378 38.6895L35.3991 39.6191L36.6605 38.6895L35.9421 38.1601V37.0621L36.4575 37.5032V37.84L37.064 37.3418L36.1982 36.5426L36.4885 36.1414H34.31Z" fill="#D91C16"/>
<path d="M34.7578 38.6894L35.4002 38.216L36.0427 38.6894L35.4002 39.163L35.3747 39.1441L34.7578 38.6894Z" fill="black"/>
<path d="M35.4002 39.0564C35.4427 39.0252 35.8231 38.7448 35.8982 38.6894C35.8231 38.6341 35.4427 38.3537 35.4002 38.3225C35.3579 38.3537 34.9773 38.6341 34.9023 38.6894C34.9773 38.7448 35.3579 39.0252 35.4002 39.0564Z" fill="#1E9A1C"/>
<path d="M46.7814 32.63H45.3739V32.069H41.0718L38.0769 30.1018H38.0642H32.724L29.7293 32.069H25.427V32.63H24.0195V33.6135H25.427V34.1745H29.7293L32.724 36.1418H38.0769L41.0718 34.1745H45.3739V33.6135H46.7814V32.63Z" fill="black"/>
<path d="M32.7495 30.1907L29.7516 32.1504H25.5144V32.7119H24.1055V33.5275H25.5144V34.089H29.7516L32.7495 36.0593H38.0567L41.044 34.089H45.2918V33.5275H46.7007V32.7119H45.2918V32.1504H41.044L38.0567 30.1907H32.7495ZM32.8131 30.4767H37.9826L40.7262 32.2775V32.553H43.7877V33.697H40.7262V33.9725L37.9826 35.7627H32.8131L30.08 33.9725V33.697H27.008V32.553H30.08V32.2775L32.8131 30.4767Z" fill="#D91C16"/>
<path d="M37.9607 30.5652L40.6364 32.3219V32.6336H43.7028V33.6097H40.6364V33.9216L37.9607 35.6783H32.8398L30.164 33.9216V33.6097H27.0977V32.6336H30.164V32.3219L32.8398 30.5652H37.9607Z" fill="#D91C16"/>
<path d="M31.5098 34.1196L32.6684 34.9894L33.4305 34.4171L32.9875 34.0845L32.6684 34.3241L32.396 34.1196L36.759 30.8439H35.873L31.5098 34.1196ZM34.0388 35.3998H34.9249L39.288 32.124L38.1296 31.2544L37.3673 31.8265L37.8104 32.1591L38.1296 31.9194L38.402 32.124L34.0388 35.3998ZM35.873 35.3998H36.7589L32.396 32.124L32.6684 31.9194L32.9874 32.1591L33.4305 31.8265L32.6684 31.2544L31.5098 32.124L35.873 35.3998ZM38.402 34.1196L38.1296 34.3241L37.8104 34.0845L37.3673 34.4171L38.1296 34.9894L39.288 34.1196L34.9248 30.8439H34.0388L38.402 34.1196Z" fill="black"/>
<path d="M30.6328 33.1218L31.4115 33.639L32.1902 33.1218L31.4115 32.6046L30.6328 33.1218Z" fill="black"/>
<path d="M34.6211 33.1218L35.3998 33.639L36.1785 33.1218L35.3998 32.6046L34.6211 33.1218Z" fill="black"/>
<path d="M40.1667 33.1218L39.3881 33.639L38.6094 33.1218L39.3881 32.6046L40.1667 33.1218Z" fill="black"/>
<path d="M39.145 34.1197L38.1293 34.8822L37.5098 34.4171L37.8101 34.1916L38.1293 34.4313L38.5444 34.1197L34.2955 30.9297H34.8961L39.145 34.1197ZM36.5018 35.314H35.9013L31.6523 32.124L32.6681 31.3614L33.2875 31.8266L32.9872 32.0519L32.6681 31.8123L32.2529 32.124L36.5018 35.314ZM34.8961 35.314H34.2955L38.5444 32.124L38.1293 31.8123L37.8101 32.0519L37.5098 31.8266L38.1293 31.3614L39.145 32.124L34.8961 35.314ZM35.9013 30.9297H36.5018L32.2529 34.1196L32.6681 34.4313L32.9872 34.1916L33.2875 34.4171L32.6681 34.8822L31.6523 34.1196L35.9013 30.9297Z" fill="#FDD406"/>
<path d="M31.4109 32.7076L32.0346 33.1219L31.4109 33.5361L30.7871 33.1219L31.4109 32.7076Z" fill="#1E9A1C"/>
<path d="M35.399 32.7076L36.0228 33.1219L35.399 33.5361L34.7754 33.1219L35.399 32.7076Z" fill="#1E9A1C"/>
<path d="M39.3874 32.7076L38.7637 33.1219L39.3874 33.5361L40.0111 33.1219L39.3874 32.7076Z" fill="#1E9A1C"/>
<path d="M21.7021 54.8302L21.3966 55.2623L21.9443 55.6811L21.3965 56.1L21.702 56.5321L22.3384 56.6061L22.9546 56.1299L24.4909 57.1059V56.2954L23.524 55.6811L24.4909 55.0669V54.2565L22.9546 55.2324L22.3384 54.7564L21.7021 54.8302Z" fill="black"/>
<path d="M21.7021 52.0145L21.3966 52.4468L21.9443 52.8656L21.3965 53.2844L21.702 53.7166L22.3384 53.7904L22.9546 53.3142L24.4909 54.2903V53.4797L23.524 52.8656L24.4909 52.2513V51.4408L22.9546 52.4168L22.3384 51.9407L21.7021 52.0145Z" fill="black"/>
<path d="M21.7021 59.3477L21.3966 58.9156L21.9443 58.4968L21.3965 58.0779L21.702 57.6457L22.3384 57.5719L22.9546 58.048L24.4909 57.072V57.8825L23.524 58.4968L24.4909 59.1109V59.9214L22.9546 58.9455L22.3384 59.4216L21.7021 59.3477Z" fill="black"/>
<path d="M49.0956 54.8301L49.4011 55.2622L48.8534 55.681L49.4011 56.0999L49.0956 56.532L48.4593 56.6059L47.8431 56.1298L46.3066 57.1057V56.2953L47.2737 55.681L46.3066 55.0668V54.2563L47.8431 55.2323L48.4593 54.7563L49.0956 54.8301Z" fill="black"/>
<path d="M49.0956 52.0146L49.4011 52.4469L48.8534 52.8657L49.4011 53.2845L49.0956 53.7167L48.4593 53.7905L47.8431 53.3144L46.3066 54.2904V53.4798L47.2737 52.8657L46.3066 52.2514V51.4409L47.8431 52.4169L48.4593 51.9408L49.0956 52.0146Z" fill="black"/>
<path d="M49.0956 59.3477L49.4011 58.9156L48.8534 58.4968L49.4011 58.0779L49.0956 57.6457L48.4593 57.5719L47.8431 58.048L46.3066 57.072V57.8825L47.2737 58.4968L46.3066 59.1109V59.9214L47.8431 58.9455L48.4593 59.4216L49.0956 59.3477Z" fill="black"/>
<path d="M42.9453 47.146V48.3172H43.7972V48.8348H44.6341V47.8923H43.8877V47.146H42.9453Z" fill="black"/>
<path d="M45.4551 48.9929V50.164H46.3061V50.6817H47.1438V49.7392H46.3976V48.9929H45.4551Z" fill="black"/>
<path d="M27.8528 47.146V48.3172H27.0007V48.8348H26.1641V47.8923H26.9103V47.146H27.8528Z" fill="black"/>
<path d="M42.9453 64.2166V63.0454H43.7972V62.5278H44.6341V63.4702H43.8877V64.2166H42.9453Z" fill="black"/>
<path d="M27.8528 64.2166V63.0454H27.0007V62.5278H26.1641V63.4702H26.9103V64.2166H27.8528Z" fill="black"/>
<path d="M45.4551 62.3695V61.1985H46.3061V60.6808H47.1438V61.6231H46.3976V62.3695H45.4551Z" fill="black"/>
<path d="M25.3431 48.9929V50.164H24.4918V50.6817H23.6543V49.7392H24.4006V48.9929H25.3431Z" fill="black"/>
<path d="M25.3431 62.3695V61.1985H24.4918V60.6808H23.6543V61.6231H24.4006V62.3695H25.3431Z" fill="black"/>
<path d="M38.5503 47.1187C38.4959 47.0659 37.9001 46.4875 37.9001 46.4875L37.2615 47.0793C37.2615 47.0793 37.7619 47.5649 37.8182 47.6196L37.0996 48.3172H38.1664L38.5503 47.9445L38.9342 48.3172H40.0009L39.2823 47.6196C39.3386 47.5649 39.8389 47.0793 39.8389 47.0793L39.2003 46.4875C38.9834 46.6977 38.7669 46.9083 38.5503 47.1187Z" fill="black"/>
<path d="M35.3998 47.1187C35.3455 47.0659 34.7497 46.4875 34.7497 46.4875L34.1111 47.0793C34.1111 47.0793 34.6114 47.5649 34.6678 47.6196L33.9492 48.3172H35.0159L35.3998 47.9445L35.7837 48.3172H36.8503L36.1319 47.6196C36.1882 47.5649 36.6885 47.0793 36.6885 47.0793L36.0499 46.4875C35.833 46.6977 35.6165 46.9083 35.3998 47.1187Z" fill="black"/>
<path d="M32.2474 47.1187C32.3018 47.0659 32.8976 46.4875 32.8976 46.4875L33.5362 47.0793C33.5362 47.0793 33.0358 47.5649 32.9796 47.6196L33.6981 48.3172H32.6313L32.2474 47.9445L31.8636 48.3172H30.7969L31.5154 47.6196C31.4592 47.5649 30.9588 47.0793 30.9588 47.0793L31.5974 46.4875C31.8144 46.6977 32.0308 46.9083 32.2474 47.1187Z" fill="black"/>
<path d="M38.5503 64.2437C38.4959 64.2964 37.9001 64.8748 37.9001 64.8748L37.2615 64.2831C37.2615 64.2831 37.7619 63.7976 37.8182 63.7428L37.0996 63.0453H38.1664L38.5503 63.418L38.9342 63.0453H40.0009L39.2823 63.7428C39.3386 63.7976 39.8389 64.2831 39.8389 64.2831L39.2003 64.8748C38.9834 64.6647 38.7669 64.4541 38.5503 64.2437Z" fill="black"/>
<path d="M35.3998 64.2437C35.3455 64.2964 34.7497 64.8748 34.7497 64.8748L34.1111 64.2831C34.1111 64.2831 34.6114 63.7976 34.6678 63.7428L33.9492 63.0453H35.0159L35.3998 63.418L35.7837 63.0453H36.8503L36.1319 63.7428C36.1882 63.7976 36.6885 64.2831 36.6885 64.2831L36.0499 64.8748C35.833 64.6647 35.6165 64.4541 35.3998 64.2437Z" fill="black"/>
<path d="M32.2474 64.2437C32.3018 64.2964 32.8976 64.8748 32.8976 64.8748L33.5362 64.2831C33.5362 64.2831 33.0358 63.7976 32.9796 63.7428L33.6981 63.0453H32.6313L32.2474 63.418L31.8636 63.0453H30.7969L31.5154 63.7428C31.4592 63.7976 30.9588 64.2831 30.9588 64.2831L31.5974 64.8748C31.8144 64.6647 32.0308 64.4541 32.2474 64.2437Z" fill="black"/>
<path d="M24.4047 56.3426V56.9499L22.9491 56.0253L22.313 56.5169L21.7494 56.4515L21.5137 56.118L22.0849 55.6812L21.5137 55.2444L21.7495 54.911L22.313 54.8456L22.9491 55.3371L24.4047 54.4125V55.0198L23.3635 55.6812L24.4047 56.3426Z" fill="#1E9A1C"/>
<path d="M24.4047 53.5269V54.1343L22.9491 53.2097L22.313 53.7012L21.7494 53.6358L21.5137 53.3024L22.0849 52.8656L21.5137 52.4289L21.7495 52.0954L22.313 52.0299L22.9491 52.5214L24.4047 51.5969V52.2042L23.3635 52.8656L24.4047 53.5269Z" fill="#1E9A1C"/>
<path d="M24.4047 57.8355V57.2281L22.9491 58.1528L22.313 57.6611L21.7494 57.7265L21.5137 58.06L22.0849 58.4968L21.5137 58.9336L21.7495 59.2671L22.313 59.3325L22.9491 58.841L24.4047 59.7656V59.1582L23.3635 58.4968L24.4047 57.8355Z" fill="#1E9A1C"/>
<path d="M46.3926 56.3426V56.9499L47.8482 56.0253L48.4842 56.5169L49.0478 56.4515L49.2835 56.118L48.7123 55.6812L49.2835 55.2444L49.0478 54.911L48.4842 54.8456L47.8482 55.3371L46.3926 54.4125V55.0198L47.4337 55.6812L46.3926 56.3426Z" fill="#1E9A1C"/>
<path d="M46.3926 53.5269V54.1343L47.8482 53.2097L48.4842 53.7012L49.0478 53.6358L49.2835 53.3024L48.7123 52.8656L49.2835 52.4289L49.0478 52.0954L48.4842 52.0299L47.8482 52.5214L46.3926 51.5969V52.2042L47.4337 52.8656L46.3926 53.5269Z" fill="#1E9A1C"/>
<path d="M46.3926 57.8355V57.2281L47.8482 58.1528L48.4842 57.6611L49.0478 57.7265L49.2835 58.06L48.7123 58.4968L49.2835 58.9336L49.0478 59.2671L48.4842 59.3325L47.8482 58.841L46.3926 59.7656V59.1582L47.4337 58.4968L46.3926 57.8355Z" fill="#1E9A1C"/>
<path d="M43.8003 47.2317V47.9781H44.5466V48.7491H43.8813V48.2315H43.0293V47.2317H43.8003Z" fill="#1E9A1C"/>
<path d="M46.312 49.0785V49.8248H47.0583V50.5959H46.3929V50.0783H45.541V49.0785H46.312Z" fill="#1E9A1C"/>
<path d="M26.9963 47.2317V47.9781H26.25V48.7491H26.9154V48.2315H27.7673V47.2317H26.9963Z" fill="#1E9A1C"/>
<path d="M43.8003 64.1306V63.3843H44.5466V62.6133H43.8813V63.1308H43.0293V64.1306H43.8003Z" fill="#1E9A1C"/>
<path d="M26.9964 64.1306V63.3843H26.25V62.6133H26.9154V63.1308H27.7674V64.1306H26.9964Z" fill="#1E9A1C"/>
<path d="M46.312 62.2838V61.5375H47.0583V60.7665H46.3929V61.284H45.541V62.2838H46.312Z" fill="#1E9A1C"/>
<path d="M24.4846 49.0785V49.8248H23.7383V50.5959H24.4037V50.0783H25.2556V49.0785H24.4846Z" fill="#1E9A1C"/>
<path d="M24.4847 62.2838V61.5375H23.7383V60.7665H24.4037V61.284H25.2557V62.2838H24.4847Z" fill="#1E9A1C"/>
<path d="M37.8983 46.6057C37.9515 46.6573 38.5498 47.2381 38.5498 47.2381C38.5498 47.2381 39.148 46.6573 39.2011 46.6057C39.2515 46.6523 39.6582 47.0291 39.7139 47.0807C39.6563 47.1365 39.1587 47.6196 39.1587 47.6196L39.7889 48.2315H38.9685L38.5498 47.8249L38.131 48.2315H37.3105L37.9408 47.6196C37.9408 47.6196 37.4431 47.1365 37.3855 47.0807C37.4412 47.0291 37.8479 46.6523 37.8983 46.6057Z" fill="#1E9A1C"/>
<path d="M34.748 46.6057C34.8012 46.6573 35.3994 47.2381 35.3994 47.2381C35.3994 47.2381 35.9976 46.6573 36.0509 46.6057C36.1013 46.6523 36.5078 47.0291 36.5635 47.0807C36.506 47.1365 36.0084 47.6196 36.0084 47.6196L36.6386 48.2315H35.8181L35.3994 47.8249L34.9807 48.2315H34.1602L34.7904 47.6196C34.7904 47.6196 34.2928 47.1365 34.2353 47.0807C34.291 47.0291 34.6976 46.6523 34.748 46.6057Z" fill="#1E9A1C"/>
<path d="M32.9004 46.6057C32.8471 46.6573 32.2489 47.2381 32.2489 47.2381C32.2489 47.2381 31.6507 46.6573 31.5975 46.6057C31.5471 46.6523 31.1404 47.0291 31.0848 47.0807C31.1424 47.1365 31.64 47.6196 31.64 47.6196L31.0098 48.2315H31.8302L32.2489 47.8249L32.6677 48.2315H33.4881L32.8579 47.6196C32.8579 47.6196 33.3555 47.1365 33.4131 47.0807C33.3574 47.0291 32.9508 46.6523 32.9004 46.6057Z" fill="#1E9A1C"/>
<path d="M37.8983 64.7567C37.9515 64.705 38.5498 64.1242 38.5498 64.1242C38.5498 64.1242 39.148 64.705 39.2011 64.7567C39.2515 64.7101 39.6582 64.3333 39.7139 64.2818C39.6563 64.2259 39.1587 63.7429 39.1587 63.7429L39.7889 63.131H38.9685L38.5498 63.5374L38.131 63.131H37.3105L37.9408 63.7429C37.9408 63.7429 37.4431 64.2259 37.3855 64.2818C37.4412 64.3333 37.8479 64.7101 37.8983 64.7567Z" fill="#1E9A1C"/>
<path d="M34.748 64.7567C34.8012 64.705 35.3994 64.1242 35.3994 64.1242C35.3994 64.1242 35.9976 64.705 36.0509 64.7567C36.1013 64.7101 36.5078 64.3333 36.5635 64.2818C36.506 64.2259 36.0084 63.7429 36.0084 63.7429L36.6386 63.131H35.8181L35.3994 63.5374L34.9807 63.131H34.1602L34.7904 63.7429C34.7904 63.7429 34.2928 64.2259 34.2353 64.2818C34.291 64.3333 34.6976 64.7101 34.748 64.7567Z" fill="#1E9A1C"/>
<path d="M32.9004 64.7567C32.8471 64.705 32.2489 64.1242 32.2489 64.1242C32.2489 64.1242 31.6507 64.705 31.5975 64.7567C31.5471 64.7101 31.1404 64.3333 31.0848 64.2818C31.1424 64.2259 31.64 63.7429 31.64 63.7429L31.0098 63.131H31.8302L32.2489 63.5374L32.6677 63.131H33.4881L32.8579 63.7429C32.8579 63.7429 33.3555 64.2259 33.4131 64.2818C33.3574 64.3333 32.9508 64.7101 32.9004 64.7567Z" fill="#1E9A1C"/>
<path d="M26.9164 61.2841V63.1309H43.8836V61.2841H46.3937V50.0782H43.8836V48.2314H26.9164V50.0782H24.4062V61.2841H26.9164Z" fill="black"/>
<path d="M27.0067 48.3155V50.1589H24.4961V61.1969H27.0067V63.0403H43.7969V61.1969H46.3077V50.1588H43.7968V48.3154L27.0067 48.3155ZM28.0872 49.0254H42.7165V50.805L43.3203 51.2501H45.5979V60.1165H43.3097L42.7165 60.5508V62.341H28.0872V60.5613L27.4834 60.1165H25.1952V51.2501H27.4728L28.0872 50.805L28.0872 49.0254Z" fill="#FDD406"/>
<path d="M28.1705 49.1101V50.7416L30.3739 49.1101H28.1705ZM40.4161 49.1101L42.6195 50.7416V49.1101H40.4161ZM25.2891 51.3349V52.8603L27.3654 51.3349H25.2891ZM43.4249 51.3349L45.5117 52.8708V51.3349H43.4249ZM45.5117 58.485L43.4249 60.0318H45.5117V58.485ZM25.2891 58.4955V60.0318H27.3653L25.2891 58.4955ZM28.1704 60.625V62.2457H30.3632L28.1704 60.625ZM42.6194 60.625L40.4269 62.2457H42.6194V60.625Z" fill="#D91C16"/>
<path d="M40.2745 49.1118C40.297 49.1284 45.4776 52.9547 45.512 52.9801V58.3822C45.4776 58.4077 40.297 62.2339 40.2745 62.2506H30.5226C30.5001 62.2339 25.3196 58.4077 25.2852 58.3822V52.9801C25.3196 52.9547 30.5001 49.1284 30.5226 49.1118H40.2745Z" fill="#1E9A1C"/>
<path d="M26.5318 59.0042L25.9297 58.3053L26.495 57.6493L25.9297 56.9932L26.495 56.3373L25.9297 55.6813L26.495 55.0252L25.9297 54.3692L26.4949 53.7131L25.9297 53.0571L26.5318 52.3583H44.2641L44.8663 53.0571L44.301 53.7131L44.8663 54.3692L44.301 55.0252L44.8663 55.6813L44.301 56.3373L44.8663 56.9932L44.301 57.6493L44.8663 58.3053L44.2641 59.0042H26.5318ZM38.721 49.9569L38.0221 49.3547L37.3659 49.9201L36.71 49.3547L36.054 49.9201L35.3979 49.3547L34.7419 49.9201L34.0858 49.3547L33.4299 49.9201L32.7739 49.3547L32.075 49.9569V61.4055L32.7739 62.0078L33.4299 61.4425L34.0858 62.0077L34.7419 61.4423L35.3979 62.0077L36.054 61.4423L36.71 62.0077L37.3659 61.4425L38.0221 62.0078L38.721 61.4055V49.9569Z" fill="black"/>
<path d="M37.3239 49.9961L36.7109 49.4678L36.0977 49.9961V61.3661L36.7109 61.8944L37.3239 61.3661V49.9961Z" fill="#FDD406"/>
<path d="M34.6989 49.9961L34.0857 49.4678L33.4727 49.9961V61.3661L34.0857 61.8944L34.6989 61.3661V49.9961Z" fill="#FDD406"/>
<path d="M26.5712 58.9185L26.043 58.3053L26.5712 57.6921H44.225L44.7532 58.3053L44.225 58.9185H26.5712Z" fill="#FDD406"/>
<path d="M44.2249 55.0679L44.7533 55.6811L44.2249 56.2942H26.5713L26.043 55.6811L26.5713 55.0679H44.2249Z" fill="#FDD406"/>
<path d="M44.225 53.6704L44.7532 53.0572L44.225 52.4441H26.5712L26.043 53.0572L26.5712 53.6704H44.225Z" fill="#FDD406"/>
<path d="M38.6345 49.9961L38.0214 49.4678L37.4082 49.9961V61.3661L38.0214 61.8944L38.6343 61.3662L38.6345 49.9961Z" fill="#D91C16"/>
<path d="M33.3866 49.9961L32.7734 49.4678L32.1602 49.9961V61.3661L32.7734 61.8944L33.3866 61.3661V49.9961Z" fill="#D91C16"/>
<path d="M26.5713 57.6063L26.043 56.9931L26.5713 56.3799H44.2249L44.7533 56.9931L44.2249 57.6063H26.5713Z" fill="#D91C16"/>
<path d="M26.5713 54.9824L26.043 54.3692L26.5713 53.756H44.2249L44.7533 54.3692L44.2249 54.9824H26.5713Z" fill="#D91C16"/>
<path d="M36.0116 61.3661L35.3984 61.8944L34.7852 61.3661V49.9961L35.3984 49.4678L36.0116 49.9961V61.3661Z" fill="#D91C16"/>
<path d="M41.3265 50.218H29.4304V51.1628H27.9102V60.1997H29.4304V61.1444H41.3694V60.1997H42.8896V51.1628H41.3694V50.218H41.3265Z" fill="black"/>
<path d="M29.5176 50.3069V51.2499H27.9922V60.1164H29.5176V61.0591H30.7676L28.2782 58.9723V52.3937L30.7676 50.3069H29.5176ZM40.0369 50.3069L42.5155 52.3937V58.9723L40.0369 61.0591H41.2867V60.1164H42.8016V51.2499H41.2867V50.3069L40.0369 50.3069Z" fill="#D91C16"/>
<path d="M30.9037 50.3069C30.8802 50.3267 28.3914 52.4109 28.3613 52.4361V58.9297C28.3914 58.9551 30.8802 61.0392 30.9037 61.059H39.8973C39.921 61.0392 42.399 58.9549 42.4291 58.9297V52.4361C42.399 52.4109 39.921 50.3267 39.8973 50.3069H30.9037ZM31.0308 50.6671H39.7596L42.069 52.6056V58.7603L39.7596 60.6882H31.0308L28.7321 58.7603V52.6056L31.0308 50.6671Z" fill="#1E9A1C"/>
<path d="M33.3428 58.8577L33.7336 59.0265L33.8054 59.4829L33.3136 59.9156L34.028 60.6064H33.3406L32.849 60.1333L32.3574 60.6064H31.6699L32.3845 59.9156L31.8925 59.4829L31.9645 59.0265L32.3551 58.8577L32.849 59.2526L32.8758 59.2312L33.3428 58.8577Z" fill="#1E9A1C"/>
<path d="M35.8918 58.8577L36.2824 59.0265L36.3544 59.4829L35.8625 59.9156L36.577 60.6064H35.8895L35.3979 60.1333L34.9064 60.6064H34.2188L34.9333 59.9156L34.4415 59.4829L34.5135 59.0265L34.9041 58.8577L35.3979 59.2526L35.4246 59.2312L35.8918 58.8577Z" fill="#1E9A1C"/>
<path d="M37.4547 58.8577L37.0641 59.0265L36.9921 59.4829L37.484 59.9156L36.7695 60.6064H37.457L37.9487 60.1333L38.4402 60.6064H39.1277L38.4132 59.9156L38.9051 59.4829L38.8331 59.0265L38.4425 58.8577L37.9487 59.2526L37.9218 59.2312L37.4547 58.8577Z" fill="#1E9A1C"/>
<path d="M33.3428 52.5045L33.7336 52.3357L33.8054 51.8794L33.3136 51.4467L34.028 50.7559H33.3406L32.849 51.2289L32.3574 50.7559H31.6699L32.3845 51.4467L31.8925 51.8793L31.9645 52.3357L32.3551 52.5045L32.849 52.1097L32.8758 52.1311L33.3428 52.5045Z" fill="#1E9A1C"/>
<path d="M35.8918 52.5045L36.2824 52.3357L36.3544 51.8794L35.8625 51.4467L36.577 50.7559H35.8895L35.3979 51.2289L34.9064 50.7559H34.2188L34.9333 51.4467L34.4415 51.8793L34.5135 52.3357L34.9041 52.5045L35.3979 52.1097L35.4246 52.1311L35.8918 52.5045Z" fill="#1E9A1C"/>
<path d="M37.4547 52.5045L37.0641 52.3357L36.9921 51.8794L37.484 51.4467L36.7695 50.7559H37.457L37.9487 51.2289L38.4402 50.7559H39.1277L38.4132 51.4467L38.9051 51.8793L38.8331 52.3357L38.4425 52.5045L37.9487 52.1097L37.9218 52.1311L37.4547 52.5045Z" fill="#1E9A1C"/>
<path d="M41.9785 53.2332L41.5885 53.5561L41.9785 53.8789V54.4142L41.3788 53.92C41.3788 53.92 40.9755 54.2854 40.9483 54.31C40.9138 54.3056 40.5252 54.2568 40.4868 54.252C40.4697 54.2204 40.3483 53.9968 40.3242 53.952C40.3644 53.9119 40.7214 53.5561 40.7214 53.5561C40.7214 53.5561 40.3644 53.2002 40.3242 53.1601C40.3483 53.1154 40.4697 52.8916 40.4868 52.8601C40.5252 52.8553 40.9138 52.8064 40.9483 52.802C40.9755 52.8266 41.3788 53.1922 41.3788 53.1922L41.9785 52.698V53.2332Z" fill="#1E9A1C"/>
<path d="M41.9785 55.3582L41.5885 55.6811L41.9785 56.0038V56.5392L41.3788 56.045C41.3788 56.045 40.9755 56.4104 40.9483 56.435C40.9138 56.4306 40.5252 56.3817 40.4868 56.377C40.4697 56.3454 40.3483 56.1216 40.3242 56.077C40.3644 56.0369 40.7214 55.6811 40.7214 55.6811C40.7214 55.6811 40.3644 55.3251 40.3242 55.285C40.3483 55.2404 40.4697 55.0166 40.4868 54.985C40.5252 54.9803 40.9138 54.9314 40.9483 54.927C40.9755 54.9516 41.3788 55.317 41.3788 55.317L41.9785 54.823V55.3582Z" fill="#1E9A1C"/>
<path d="M41.9785 58.129L41.5885 57.8061L41.9785 57.4833V56.948L41.3788 57.4423C41.3788 57.4423 40.9755 57.0768 40.9483 57.0522C40.9138 57.0565 40.5252 57.1054 40.4868 57.1101C40.4697 57.1417 40.3483 57.3655 40.3242 57.4101C40.3644 57.4503 40.7214 57.8061 40.7214 57.8061C40.7214 57.8061 40.3644 58.162 40.3242 58.2021C40.3483 58.2468 40.4697 58.4706 40.4868 58.5021C40.5252 58.5069 40.9138 58.5558 40.9483 58.5601C40.9755 58.5355 41.3788 58.1701 41.3788 58.1701L41.9785 58.6642V58.129Z" fill="#1E9A1C"/>
<path d="M28.8184 53.2333L29.2082 53.5562L28.8184 53.879V54.4144L29.4181 53.9201C29.4181 53.9201 29.8214 54.2855 29.8486 54.3101C29.883 54.3058 30.2717 54.2569 30.3101 54.2521C30.3272 54.2206 30.4484 53.9969 30.4727 53.9521C30.4325 53.912 30.0755 53.5562 30.0755 53.5562C30.0755 53.5562 30.4325 53.2003 30.4727 53.1602C30.4484 53.1155 30.3272 52.8917 30.3101 52.8602C30.2717 52.8554 29.883 52.8065 29.8486 52.8022C29.8214 52.8268 29.4181 53.1923 29.4181 53.1923L28.8184 52.6981V53.2333Z" fill="#1E9A1C"/>
<path d="M28.8184 55.3583L29.2082 55.6812L28.8184 56.0039V56.5394L29.4181 56.0451C29.4181 56.0451 29.8214 56.4105 29.8486 56.4351C29.883 56.4308 30.2717 56.3818 30.3101 56.3771C30.3272 56.3456 30.4484 56.1218 30.4727 56.0771C30.4325 56.037 30.0755 55.6812 30.0755 55.6812C30.0755 55.6812 30.4325 55.3252 30.4727 55.2851C30.4484 55.2405 30.3272 55.0167 30.3101 54.9851C30.2717 54.9804 29.883 54.9315 29.8486 54.9272C29.8214 54.9518 29.4181 55.3172 29.4181 55.3172L28.8184 54.8231V55.3583Z" fill="#1E9A1C"/>
<path d="M28.8184 58.129L29.2082 57.8061L28.8184 57.4833V56.948L29.4181 57.4423C29.4181 57.4423 29.8214 57.0768 29.8486 57.0522C29.883 57.0565 30.2717 57.1054 30.3101 57.1101C30.3272 57.1417 30.4484 57.3655 30.4727 57.4101C30.4325 57.4503 30.0755 57.8061 30.0755 57.8061C30.0755 57.8061 30.4325 58.162 30.4727 58.2021C30.4484 58.2468 30.3272 58.4706 30.3101 58.5021C30.2717 58.5069 29.883 58.5558 29.8486 58.5601C29.8214 58.5355 29.4181 58.1701 29.4181 58.1701L28.8184 58.6642V58.129Z" fill="#1E9A1C"/>
<path d="M31.0641 50.7522C31.041 50.7716 28.9437 52.5274 28.8502 52.606C29.0392 52.7627 29.222 52.9266 29.4116 53.0827C29.4596 53.0393 29.8247 52.7118 29.8247 52.7118L30.365 52.786L30.5768 53.1779C30.5768 53.1779 30.2473 53.5077 30.1955 53.5593C30.2473 53.6108 30.5768 53.9406 30.5768 53.9406L30.365 54.3326L29.8247 54.3961C29.8247 54.3961 29.4596 54.0794 29.4116 54.036L28.8184 54.5339V54.7033C29.0179 54.8685 29.2113 55.0362 29.4116 55.2012C29.4596 55.1579 29.8247 54.8411 29.8247 54.8411L30.365 54.9046L30.5768 55.2966C30.5768 55.2966 30.2473 55.6263 30.1955 55.6779C30.2473 55.7294 30.5768 56.0593 30.5768 56.0593L30.365 56.4618L29.8247 56.5254C29.8247 56.5254 29.4596 56.1981 29.4116 56.1546L28.8184 56.6525V56.8326L29.4116 57.3305C29.4596 57.2871 29.8247 56.9597 29.8247 56.9597L30.365 57.0339L30.5768 57.4258C30.5768 57.4258 30.2473 57.7556 30.1955 57.8072C30.2473 57.8588 30.5768 58.1885 30.5768 58.1885L30.365 58.5805L29.8247 58.6546C29.8247 58.6546 29.4596 58.3273 29.4116 58.2839C29.2228 58.4393 29.0385 58.5946 28.8501 58.75C28.9437 58.8286 31.041 60.5843 31.0641 60.6038H31.5514L32.2612 59.9152L31.8056 59.5127L31.8904 58.9618L32.3671 58.7606L32.8544 59.1419L33.3311 58.7606L33.8078 58.9618L33.9031 59.5127L33.437 59.9152L34.1256 60.572L34.8141 59.9152L34.348 59.5127L34.4328 58.9618L34.92 58.7606L35.3967 59.1419L35.884 58.7606L36.3607 58.9618L36.4455 59.5127L35.99 59.9152L36.6679 60.5826L37.3565 59.9152L36.901 59.5127L36.9857 58.9618L37.473 58.7606L37.9497 59.1419L38.4264 58.7606L38.9137 58.9618L38.9984 59.5127L38.5429 59.9152L39.2527 60.6038H39.7294C39.7525 60.5843 41.8497 58.8286 41.9434 58.75C41.7546 58.5946 41.5709 58.4397 41.3819 58.2839C41.3339 58.3273 40.9794 58.6546 40.9794 58.6546L40.4391 58.5805L40.2167 58.1885C40.2167 58.1885 40.5463 57.8588 40.598 57.8072C40.5463 57.7556 40.2167 57.4258 40.2167 57.4258L40.4391 57.0339L40.9794 56.9597C40.9794 56.9597 41.3339 57.2871 41.3819 57.3305L41.9751 56.8326V56.6525L41.3819 56.1546C41.3339 56.1981 40.9794 56.5254 40.9794 56.5254L40.4391 56.4618L40.2167 56.0593C40.2167 56.0593 40.5463 55.7294 40.598 55.6779C40.5463 55.6263 40.2167 55.2966 40.2167 55.2966L40.4391 54.9046L40.9794 54.8411C40.9794 54.8411 41.3339 55.1579 41.3819 55.2012C41.5808 55.0374 41.7767 54.8772 41.9751 54.7139V54.5233L41.3819 54.036C41.3339 54.0794 40.9794 54.3961 40.9794 54.3961L40.4391 54.3326L40.2167 53.9406C40.2167 53.9406 40.5463 53.6108 40.598 53.5593C40.5463 53.5077 40.2167 53.1779 40.2167 53.1779L40.4391 52.786L40.9794 52.7118C40.9794 52.7118 41.3339 53.0393 41.3819 53.0826C41.5718 52.9262 41.7641 52.7729 41.9539 52.6165C41.881 52.5553 39.7526 50.7716 39.7294 50.7521H39.2527L38.5429 51.4406L38.9984 51.8432L38.9137 52.394L38.4264 52.6059L37.9497 52.2245L37.473 52.6059L36.9857 52.394L36.901 51.8432L37.3565 51.4406L36.6785 50.7839L35.99 51.4406L36.4455 51.8432L36.3607 52.394L35.884 52.6059L35.3967 52.2245L34.92 52.6059L34.4328 52.394L34.348 51.8432L34.8141 51.4406L34.1255 50.7839L33.437 51.4406L33.9031 51.8432L33.8078 52.394L33.3311 52.6059L32.8544 52.2245L32.3671 52.6059L31.8904 52.394L31.8056 51.8432L32.2611 51.4406L31.5408 50.7521L31.0641 50.7522ZM28.8184 55.4661V55.9004L29.0726 55.678L28.8184 55.4661Z" fill="#D91C16"/>
<path d="M32.8552 60.2542L32.4844 60.6036H33.2152L32.8552 60.2542Z" fill="white"/>
<path d="M35.3971 60.2542L35.0371 60.6036H35.768L35.3971 60.2542Z" fill="white"/>
<path d="M37.9486 60.2542L37.5781 60.6036H38.3195L37.9486 60.2542Z" fill="white"/>
<path d="M32.4727 50.7522L32.854 51.1122L33.2249 50.7522H32.4727Z" fill="white"/>
<path d="M35.0254 50.7522L35.3962 51.1122L35.7776 50.7522H35.0254Z" fill="white"/>
<path d="M37.5801 50.7522L37.9506 51.1122L38.3214 50.7522H37.5801Z" fill="white"/>
<path d="M41.9749 53.3474L41.7207 53.5593L41.9749 53.7606V53.3474Z" fill="white"/>
<path d="M41.9749 55.4659L41.7207 55.6778L41.9749 55.8897V55.4659Z" fill="white"/>
<path d="M41.9749 57.5952L41.7207 57.8071L41.9749 58.0189V57.5952Z" fill="white"/>
<path d="M28.8184 53.337V53.7713L29.0726 53.5594L28.8184 53.337Z" fill="white"/>
<path d="M28.8184 55.4659V55.9002L29.0726 55.6778L28.8184 55.4659Z" fill="white"/>
<path d="M28.8184 57.5848V58.0191L29.0726 57.8072L28.8184 57.5848Z" fill="white"/>
<path d="M37.5792 54.9714V54.2131H36.8118V53.3818H33.9854V54.2131H33.218V54.9714H32.1582V56.391H33.218V57.1491H33.9854V57.9805H36.8118V57.1491H37.5792V56.391H38.6389V54.9714H37.5792Z" fill="black"/>
<path d="M35.3559 53.4675V54.3244L34.141 55.015V55.6383H32.2441V55.057H33.3039V54.2989H34.0713V53.4675H35.3559Z" fill="#FDD406"/>
<path d="M35.4414 57.8949V57.038L36.6562 56.3473V55.7241H38.5531V56.3053H37.4934V57.0636H36.726V57.8949H35.4414Z" fill="#FDD406"/>
<path d="M36.6562 55.6383V55.015L35.4414 54.3244V53.4675H36.726V54.2989H37.4934V55.057H38.5531V55.6383H36.6562Z" fill="white"/>
<path d="M32.2441 55.7241H34.141V56.3473L35.3559 57.038V57.8949H34.0713V57.0636H33.3039V56.3053H32.2441V55.7241Z" fill="white"/>
<path d="M34.2266 55.7241V56.3018L35.3556 56.9438V55.7241H34.2266Z" fill="#D91C16"/>
<path d="M35.3556 54.4187L34.2266 55.0606V55.6383H35.3556V54.4187Z" fill="#1E9A1C"/>
<path d="M36.5705 55.6384V55.0607L35.4414 54.4188V55.6384H36.5705Z" fill="#D91C16"/>
<path d="M35.4414 56.9438L36.5705 56.3018V55.7241H35.4414V56.9438Z" fill="#1E9A1C"/>
<path d="M25.1292 70.746V73.0894H22.8961V75.2148H20.6328V81.2665H22.8961V83.392H25.1292V85.7353H33.2488L34.6767 86.5933L33.9905 87.0055H31.0953L30.8455 86.7239H33.4693L32.7301 85.9795H28.9769L30.6774 87.7499H34.197L35.3993 87.0275L36.6016 87.7499H40.1214L41.8218 85.9795H38.0687L37.3294 86.7239H39.9533L39.7035 87.0055H36.8081L36.1219 86.5933L37.5499 85.7353H45.6695V83.392H47.9026V81.2665H50.1658V75.2148H47.9026V73.0894H45.6695V70.746H37.5499L36.1219 69.8881L36.8081 69.4758H39.7035L39.9533 69.7574H37.3294L38.0687 70.5018H41.8218L40.1214 68.7314H36.6016L35.3993 69.4538L34.197 68.7314H30.6774L28.9769 70.5018H32.7301L33.4693 69.7574H30.8455L31.0953 69.4758H33.9905L34.6767 69.8881L33.2488 70.746H25.1292Z" fill="#D91C16"/>
<path d="M37.5263 85.646H45.5877V83.3049H47.8123V81.1757H50.0792V75.2964H47.8123V73.1778H45.5877V70.8367H37.5263L34.1788 68.8134H30.7148L29.1788 70.4129H32.6957L33.2678 69.8409H30.6513L31.0538 69.3854H34.0199L37.8123 71.6735H44.7402V74.0146H46.9754V76.1439H49.2424V80.3388H46.9754V82.468H44.7402V84.8091H37.8123L34.0199 87.0867H31.0538L30.6513 86.6418H33.2678L32.6957 86.0697H29.1788L30.7148 87.6693H34.1788L37.5263 85.646ZM32.9818 84.8091H26.0538V82.468H23.8292V80.3388H21.5623V76.1439H23.8292V74.0146H26.0538V71.6735H32.9818L36.7848 69.3854H39.7403L40.1428 69.8409H37.5369L38.1089 70.4129H41.6259L40.0898 68.8134H36.6258L33.2784 70.8367H25.217V73.1778H22.9818V75.2964H20.7148V81.1757H22.9818V83.3049H25.217V85.646H33.2784L36.6258 87.6693H40.0898L41.6259 86.0697H38.1089L37.5369 86.6418H40.1428L39.7403 87.0867H36.7848L32.9818 84.8091Z" fill="#FDD406"/>
<path d="M44.0685 81.7908V84.1341H37.6285L35.3996 85.4733L33.1707 84.1341H26.7308V81.7908H24.4976V79.6652H22.2344V76.8161H24.4976V74.6905H26.7308V72.3473H33.1588H33.1707L35.3996 71.0081L37.6285 72.3473H44.0685V74.6905H46.3016V76.8161H48.5648V79.6652H46.3016V81.7908H44.0685Z" fill="#1E9A1C"/>
<path d="M27.5742 80.9698V83.2378H31.1142L27.5742 80.8899V80.9698Z" fill="black"/>
<path d="M27.5742 75.5117V73.2435H31.1142L27.5742 75.5914V75.5117Z" fill="black"/>
<path d="M43.2255 80.9698V83.2378H39.6855L43.2255 80.8899V80.9698Z" fill="black"/>
<path d="M43.2255 75.5117V73.2435H39.6855L43.2255 75.5914V75.5117Z" fill="black"/>
<path d="M27.6602 81.0497L30.8301 83.1522H27.6602V81.0497Z" fill="#D91C16"/>
<path d="M27.6602 75.4319C27.7834 75.35 30.6141 73.4725 30.8301 73.3293H27.6602V75.4319Z" fill="#D91C16"/>
<path d="M43.1406 81.0496C43.0173 81.1314 40.1866 83.0088 39.9707 83.1521H43.1406V81.0496Z" fill="#D91C16"/>
<path d="M43.1406 75.4319C43.0173 75.3501 40.1866 73.4726 39.9707 73.3293H43.1406V75.4319Z" fill="#D91C16"/>
<path d="M32.0887 77.6189V76.4606H31.6937L29.7984 75.2756L29.7757 75.2899L27.9032 76.4606H27.5082V77.6189H26.6172V78.8628H27.5082V80.0209H27.9032L29.7984 81.2059L31.6937 80.0209H32.0887V78.8628H33.4451V77.6189H32.0887Z" fill="black"/>
<path d="M29.7979 75.377L31.5315 76.4608H28.0645L29.7979 75.377ZM31.5313 80.0211L29.7979 81.1049L28.0646 80.0211H31.5313Z" fill="#D91C16"/>
<path d="M31.113 77.7047V78.7773H28.9512V77.7047H31.113Z" fill="#D91C16"/>
<path d="M32.0036 78.8627V79.9352H29.8418V78.8627H32.0036Z" fill="#FDD406"/>
<path d="M29.7556 78.8628V79.9354H27.5938V78.8628H29.7556Z" fill="#FDD406"/>
<path d="M33.3591 77.7047V78.7773H31.1973V77.7047H33.3591Z" fill="#FDD406"/>
<path d="M28.8649 77.7047V78.7773H26.7031V77.7047H28.8649Z" fill="#FDD406"/>
<path d="M32.0036 76.5465V77.619H29.8418V76.5465H32.0036Z" fill="#FDD406"/>
<path d="M29.7556 76.5465V77.619H27.5938V76.5465H29.7556Z" fill="#FDD406"/>
<path d="M28.2699 77.9429V78.5388H27.2988V77.9429H28.2699Z" fill="black"/>
<path d="M29.1605 76.7847V77.3806H28.1895V76.7847H29.1605Z" fill="black"/>
<path d="M31.4085 76.7847V77.3806H30.4375V76.7847H31.4085Z" fill="black"/>
<path d="M30.5179 77.9429V78.5388H29.5469V77.9429H30.5179Z" fill="black"/>
<path d="M32.764 77.9429V78.5388H31.793V77.9429H32.764Z" fill="black"/>
<path d="M31.4085 79.1011V79.697H30.4375V79.1011H31.4085Z" fill="black"/>
<path d="M29.1605 79.1011V79.697H28.1895V79.1011H29.1605Z" fill="black"/>
<path d="M28.1788 78.0343H27.3906V78.4473H28.1788V78.0343Z" fill="white"/>
<path d="M29.0694 76.8761H28.2812V77.2891H29.0694V76.8761Z" fill="white"/>
<path d="M31.3175 76.8761H30.5293V77.2891H31.3175V76.8761Z" fill="white"/>
<path d="M30.4268 78.0343H29.6387V78.4473H30.4268V78.0343Z" fill="white"/>
<path d="M32.6729 78.0343H31.8848V78.4473H32.6729V78.0343Z" fill="white"/>
<path d="M31.3175 79.1925H30.5293V79.6055H31.3175V79.1925Z" fill="white"/>
<path d="M29.0694 79.1925H28.2812V79.6055H29.0694V79.1925Z" fill="white"/>
<path d="M38.7101 77.6189V76.4606H39.1052L41.0004 75.2756L41.0231 75.2899L42.8956 76.4606H43.2906V77.6189H44.1816V78.8628H43.2906V80.0209H42.8956L41.0004 81.2059L39.1052 80.0209H38.7101V78.8628H37.3538V77.6189H38.7101Z" fill="black"/>
<path d="M41.001 75.3768L39.2673 76.4607H42.7344L41.001 75.3768ZM39.2676 80.021L41.001 81.1048L42.7343 80.021H39.2676Z" fill="#D91C16"/>
<path d="M39.6878 77.7046V78.7771H41.8496V77.7046H39.6878Z" fill="#D91C16"/>
<path d="M38.7952 78.8627V79.9352H40.957V78.8627H38.7952Z" fill="#FDD406"/>
<path d="M41.0433 78.8627V79.9352H43.2051V78.8627H41.0433Z" fill="#FDD406"/>
<path d="M37.4398 77.7047V78.7773H39.6016V77.7047H37.4398Z" fill="#FDD406"/>
<path d="M41.9339 77.7047V78.7773H44.0957V77.7047H41.9339Z" fill="#FDD406"/>
<path d="M38.7952 76.5465V77.619H40.957V76.5465H38.7952Z" fill="#FDD406"/>
<path d="M41.0433 76.5465V77.619H43.2051V76.5465H41.0433Z" fill="#FDD406"/>
<path d="M42.529 77.9429V78.5388H43.5V77.9429H42.529Z" fill="black"/>
<path d="M41.6383 76.7847V77.3806H42.6094V76.7847H41.6383Z" fill="black"/>
<path d="M39.3903 76.7847V77.3806H40.3613V76.7847H39.3903Z" fill="black"/>
<path d="M40.2809 77.9429V78.5388H41.252V77.9429H40.2809Z" fill="black"/>
<path d="M38.0348 77.9429V78.5388H39.0059V77.9429H38.0348Z" fill="black"/>
<path d="M39.3903 79.1011V79.697H40.3613V79.1011H39.3903Z" fill="black"/>
<path d="M41.6383 79.1011V79.697H42.6094V79.1011H41.6383Z" fill="black"/>
<path d="M42.622 78.0343H43.4102V78.4473H42.622V78.0343Z" fill="white"/>
<path d="M41.7314 76.8761H42.5195V77.2891H41.7314V76.8761Z" fill="white"/>
<path d="M39.4833 76.8761H40.2715V77.2891H39.4833V76.8761Z" fill="white"/>
<path d="M40.3739 78.0343H41.1621V78.4473H40.3739V78.0343Z" fill="white"/>
<path d="M38.1279 78.0343H38.916V78.4473H38.1279V78.0343Z" fill="white"/>
<path d="M39.4833 79.1925H40.2715V79.6055H39.4833V79.1925Z" fill="white"/>
<path d="M41.7314 79.1925H42.5195V79.6055H41.7314V79.1925Z" fill="white"/>
<path d="M37.6905 75.6841V76.8422H37.2955L35.4002 78.0272L35.3775 78.013L33.5051 76.8422H33.11V75.6841H31.9863V74.4402H33.11V73.282H33.5051L35.4002 72.0969L37.2955 73.282H37.6905V74.4402H38.8142V75.6841H37.6905Z" fill="black"/>
<path d="M35.3994 77.9261L37.1329 76.8421H33.666L35.3994 77.9261ZM37.1328 73.282L35.3994 72.198L33.6661 73.282H37.1328Z" fill="#FDD406"/>
<path d="M37.6052 74.4401V73.3677H35.4434V74.4401H37.6052Z" fill="#D91C16"/>
<path d="M35.3571 74.4401V73.3677H33.1953V74.4401H35.3571Z" fill="#D91C16"/>
<path d="M38.7282 75.5983V74.5258H36.5664V75.5983H38.7282Z" fill="#D91C16"/>
<path d="M36.4821 75.5983V74.5258H34.3203V75.5983H36.4821Z" fill="#D91C16"/>
<path d="M34.2339 75.5983V74.5258H32.0723V75.5983H34.2339Z" fill="#D91C16"/>
<path d="M37.6052 76.7565V75.684H35.4434V76.7565H37.6052Z" fill="#D91C16"/>
<path d="M35.3571 76.7565V75.684H33.1953V76.7565H35.3571Z" fill="#D91C16"/>
<path d="M34.7621 73.6058V74.2018H33.791V73.6058H34.7621Z" fill="black"/>
<path d="M37.0101 73.6058V74.2018H36.0391V73.6058H37.0101Z" fill="black"/>
<path d="M33.639 74.764V75.36H32.668V74.764H33.639Z" fill="black"/>
<path d="M35.8871 74.764V75.36H34.916V74.764H35.8871Z" fill="black"/>
<path d="M38.1351 74.764V75.36H37.1641V74.764H38.1351Z" fill="black"/>
<path d="M34.7621 75.9222V76.5182H33.791V75.9222H34.7621Z" fill="black"/>
<path d="M37.0101 75.9222V76.5182H36.0391V75.9222H37.0101Z" fill="black"/>
<path d="M34.669 73.6973H33.8809V74.1103H34.669V73.6973Z" fill="white"/>
<path d="M36.9171 73.6973H36.1289V74.1103H36.9171V73.6973Z" fill="white"/>
<path d="M33.546 74.8555H32.7578V75.2685H33.546V74.8555Z" fill="white"/>
<path d="M35.794 74.8555H35.0059V75.2685H35.794V74.8555Z" fill="white"/>
<path d="M38.0401 74.8555H37.252V75.2685H38.0401V74.8555Z" fill="white"/>
<path d="M34.669 76.0137H33.8809V76.4267H34.669V76.0137Z" fill="white"/>
<path d="M36.9171 76.0137H36.1289V76.4267H36.9171V76.0137Z" fill="white"/>
<path d="M37.6905 82.0416V83.1997H37.2955L35.4002 84.3847L35.3775 84.3706L33.5051 83.1997H33.11V82.0416H31.9863V80.7977H33.11V79.6396H33.5051L35.4002 78.4545L37.2955 79.6396H37.6905V80.7977H38.8142V82.0416H37.6905Z" fill="black"/>
<path d="M35.3994 84.2836L37.1329 83.1997H33.666L35.3994 84.2836ZM37.1328 79.6395L35.3994 78.5555L33.6661 79.6395H37.1328Z" fill="#FDD406"/>
<path d="M37.6052 80.7977V79.7252H35.4434V80.7977H37.6052Z" fill="#D91C16"/>
<path d="M35.3571 80.7977V79.7252H33.1953V80.7977H35.3571Z" fill="#D91C16"/>
<path d="M38.7282 81.9559V80.8833H36.5664V81.9559H38.7282Z" fill="#D91C16"/>
<path d="M36.4821 81.9559V80.8833H34.3203V81.9559H36.4821Z" fill="#D91C16"/>
<path d="M34.2339 81.9559V80.8833H32.0723V81.9559H34.2339Z" fill="#D91C16"/>
<path d="M37.6052 83.1141V82.0415H35.4434V83.1141H37.6052Z" fill="#D91C16"/>
<path d="M35.3571 83.1141V82.0415H33.1953V83.1141H35.3571Z" fill="#D91C16"/>
<path d="M34.7621 79.9634V80.5593H33.791V79.9634H34.7621Z" fill="black"/>
<path d="M37.0101 79.9634V80.5593H36.0391V79.9634H37.0101Z" fill="black"/>
<path d="M33.639 81.1216V81.7175H32.668V81.1216H33.639Z" fill="black"/>
<path d="M35.8871 81.1216V81.7175H34.916V81.1216H35.8871Z" fill="black"/>
<path d="M38.1351 81.1216V81.7175H37.1641V81.1216H38.1351Z" fill="black"/>
<path d="M34.7621 82.2798V82.8757H33.791V82.2798H34.7621Z" fill="black"/>
<path d="M37.0101 82.2798V82.8757H36.0391V82.2798H37.0101Z" fill="black"/>
<path d="M34.669 80.0548H33.8809V80.4678H34.669V80.0548Z" fill="white"/>
<path d="M36.9171 80.0548H36.1289V80.4678H36.9171V80.0548Z" fill="white"/>
<path d="M33.546 81.213H32.7578V81.626H33.546V81.213Z" fill="white"/>
<path d="M35.794 81.213H35.0059V81.626H35.794V81.213Z" fill="white"/>
<path d="M38.0401 81.213H37.252V81.626H38.0401V81.213Z" fill="white"/>
<path d="M34.669 82.3712H33.8809V82.7843H34.669V82.3712Z" fill="white"/>
<path d="M36.9171 82.3712H36.1289V82.7843H36.9171V82.3712Z" fill="white"/>
<path d="M23.1348 95.8708L31.5451 91.3445H31.5559H39.2529L47.6632 95.8708V103.329L39.2529 107.855H31.5451L23.1348 103.329V95.8708Z" fill="black"/>
<path d="M31.5721 91.4302L23.2246 95.9217V103.273L31.5721 107.765H39.2308L47.5786 103.273V95.9217L39.2308 91.4302H31.5721ZM31.7203 92.0339H39.0826L46.9853 96.2817V102.924L39.0826 107.172H31.7158L23.8134 102.924V96.2817L31.7203 92.0339Z" fill="#1E9A1C"/>
<path d="M35.4418 99.5567V107.085H39.0608L46.8974 102.867V99.6425L35.3561 99.6425V92.1145H31.7371L23.9004 96.3318V99.5567L35.4418 99.5567Z" fill="#FDD406"/>
<path d="M35.3561 99.5567V107.085H31.7371L23.9004 102.867V99.6425L35.4418 99.6425V92.1145H39.0608L46.8974 96.3318V99.5567L35.3561 99.5567Z" fill="white"/>
<path d="M36.1024 106.663V104.488L35.399 104.934L34.6954 104.488V106.663H32.5071L33.9837 105.58V104.036L31.7318 102.607H30.1582V96.5926H31.7318L33.9837 95.1638V93.6193L32.5071 92.5364H32.638H34.6954V94.7123L35.399 94.2659L36.1024 94.7123V92.5364H38.2908L36.8141 93.6193V95.1638L39.066 96.5926H40.6396V102.607H39.066L36.8141 104.036V105.58L38.2908 106.663H36.1024Z" fill="black"/>
<path d="M36.1909 92.627V94.8727L35.4387 94.3961V95.0317L38.8815 97.2242H40.015V99.5551H40.5553V96.6737H39.0404L36.7313 95.2117V93.5802L38.034 92.627H36.1909ZM30.2481 99.6398V102.521H31.7523L34.0723 103.993V105.625L32.7692 106.578H34.6126V104.332L35.354 104.809V104.152L31.9113 101.981H30.7883V99.6398L30.2481 99.6398Z" fill="#FDD406"/>
<path d="M32.7692 92.627L34.0723 93.5802V95.2117L31.7523 96.6737H30.248V99.5551H30.7883V97.2242H31.9113L35.354 95.0422V94.3961L34.6126 94.8727V92.627L32.7692 92.627ZM40.015 99.6398V101.981H38.8814L35.4387 104.152V104.809L36.1909 104.332V106.578H38.034L36.7313 105.625V103.993L39.0404 102.521H40.5553V99.6398L40.015 99.6398Z" fill="white"/>
<path d="M30.8711 101.892H31.9386L35.4001 104.088L38.8615 101.892H39.9292V97.3083H38.874H38.8615L35.4001 95.1122L31.9386 97.3083H30.8711V101.892Z" fill="#D91C16"/>
<path d="M37.7944 100.689H38.5335V100.339H37.9775V99.7036H39.1658V101.325H38.0266L38.0267 102.431H35.6818V100.842H36.7138V101.477H36.3141V101.795H37.3945V101.187L33.0022 98.5108H32.2631V98.8604H32.8192V99.496H31.6309V97.8751H32.77V96.7692H32.8129H35.1148V98.3582H34.0828V97.7226H34.4825V97.4048H33.4023V98.0124L37.7944 100.689ZM37.3945 98.0124V97.4048H36.3141V97.7226H36.7138V98.3582H35.6818V96.7692H38.0267V97.8751H39.1658V99.496H37.9775V98.8604H38.5336V98.5108H37.7944L33.4023 101.187V101.795H34.4825V101.477H34.0828V100.841H35.1148V102.431H32.77V101.325H31.6309V99.7036H32.8192V100.339H32.2631V100.689H33.0022L37.3945 98.0124Z" fill="black"/>
<path d="M37.4803 101.139V101.881H36.2284V101.392H36.6283V100.927H35.7676V102.345H37.9411V101.239H39.0802V99.7896H38.0634V100.254H38.6193V100.775H37.7706L33.3166 98.0606V97.3193H34.5685V97.8084H34.1688V98.2727H35.0293V96.855H32.8558V97.9609H31.7168V99.4105H32.7336V98.9462H32.1776V98.4252H33.0264L37.4803 101.139ZM37.7706 98.4252H38.6194V98.9462H38.0634V99.4105H39.0802V97.9609H37.9412V96.855H35.7678V98.2727H36.6283V97.8084H36.2286V97.3193H37.4803V98.0606L33.0264 100.775H32.1776V100.254H32.7336V99.7895H31.7168V101.239H32.8558V102.345H35.0293V100.927H34.1688V101.392H34.5685V101.881H33.3166V101.139L37.7706 98.4252Z" fill="white"/>
<path d="M45.2084 99.9767V102.329H44.2074V101.498H43.1983V102.329H42.1973V99.9767H43.1983V100.807H44.2074V99.9767H45.2084Z" fill="black"/>
<path d="M41.6264 103.1V105.452H40.6254V104.621H39.6163V105.452H38.6152V103.1H39.6163V103.93H40.6254V103.1H41.6264Z" fill="black"/>
<path d="M45.2084 99.2225V96.8701H44.2074V97.7009H43.1983V96.8701H42.1973V99.2225H43.1983V98.3917H44.2074V99.2225H45.2084Z" fill="black"/>
<path d="M25.5898 99.9767V102.329H26.5909V101.498H27.6V102.329H28.601V99.9767H27.6V100.807H26.5909V99.9767H25.5898Z" fill="black"/>
<path d="M25.5898 99.2225V96.8701H26.5909V97.7009H27.6V96.8701H28.601V99.2225H27.6V98.3917H26.5909V99.2225H25.5898Z" fill="black"/>
<path d="M41.6264 96.0997V93.7473H40.6254V94.5781H39.6163V93.7473H38.6152V96.0997H39.6163V95.2689H40.6254V96.0997H41.6264Z" fill="black"/>
<path d="M29.1719 103.1V105.452H30.1729V104.621H31.182V105.452H32.183V103.1H31.182V103.931H30.1729V103.1H29.1719Z" fill="black"/>
<path d="M29.1719 96.0997V93.7473H30.1729V94.5781H31.182V93.7473H32.183V96.0997H31.182V95.2689H30.1729V96.0997H29.1719Z" fill="black"/>
<path d="M42.2227 94.451V96.2375H45.5421L42.2227 94.451Z" fill="black"/>
<path d="M28.5753 104.748V102.962H25.2559L28.5753 104.748Z" fill="black"/>
<path d="M28.5753 94.451V96.2375H25.2559L28.5753 94.451Z" fill="black"/>
<path d="M42.2227 104.748V102.962H45.5421L42.2227 104.748Z" fill="black"/>
<path d="M44.2914 101.413V102.244H45.1211V100.063H44.2914V100.893H43.1108V100.063H42.2812V102.244H43.1108V101.413H44.2914Z" fill="#D91C16"/>
<path d="M40.7113 104.536V105.366H41.5409V103.185H40.7113V104.016H39.5307V103.185H38.7012V105.366H39.5307V104.536H40.7113Z" fill="#D91C16"/>
<path d="M44.2914 97.7867V96.9559H45.1211V99.1368H44.2914V98.3059H43.1108V99.1368H42.2812V96.9559H43.1108V97.7867H44.2914Z" fill="#D91C16"/>
<path d="M26.5053 101.413V102.244H25.6758V100.063H26.5053V100.893H27.6859V100.063H28.5155V102.244H27.6859V101.413H26.5053Z" fill="#D91C16"/>
<path d="M26.5053 97.7867V96.9559H25.6758V99.1368H26.5053V98.3059H27.6859V99.1368H28.5155V96.9559H27.6859V97.7867H26.5053Z" fill="#D91C16"/>
<path d="M40.7113 94.6639V93.833H41.5409V96.014H40.7113V95.1831H39.5307V96.014H38.7012V93.833H39.5307V94.6639H40.7113Z" fill="#D91C16"/>
<path d="M30.0874 104.536V105.366H29.2578V103.185H30.0874V104.016H31.2679V103.185H32.0976V105.366H31.2679V104.536H30.0874Z" fill="#D91C16"/>
<path d="M30.0874 94.6639V93.833H29.2578V96.014H30.0874V95.1831H31.2679V96.014H32.0976V93.833H31.2679V94.6639H30.0874Z" fill="#D91C16"/>
<path d="M42.3138 94.5972V96.1545H45.206L42.3138 94.5972ZM25.5978 103.051L28.4898 104.608V103.051H25.5978Z" fill="#FDD406"/>
<path d="M28.4896 94.5972L25.5977 96.1545H28.4896V94.5972ZM42.3137 103.051V104.608L45.2059 103.051H42.3137Z" fill="white"/>
<path d="M48.9802 106.165C48.8204 106.846 48.2786 107.361 48.1495 108.067C47.891 107.33 47.6527 106.713 47.8306 105.907C47.9579 105.33 48.443 104.919 48.4992 104.326C49.028 104.802 49.1419 105.476 48.9802 106.165ZM49.1143 109.02C48.6657 109.635 48.0422 110.107 47.3536 110.421C47.4892 109.883 47.2348 109.477 46.9525 109.049C46.6123 108.535 46.4464 108.029 46.7238 107.436C46.853 107.744 47.0266 108 47.2304 108.264C47.5317 108.675 47.7298 109.04 47.7763 109.568C48.1248 109.309 48.2779 108.924 48.4642 108.551C48.7483 108.016 49.2067 107.569 49.7332 107.277C49.5933 107.877 49.4855 108.511 49.1143 109.02ZM46.5986 110.853C46.6945 111.195 46.7772 111.533 46.7587 111.89C47.0551 111.571 47.4487 111.331 47.7998 111.073C48.278 110.687 48.8354 110.414 49.2264 109.921C49.168 110.646 48.8578 111.237 48.2689 111.678C47.6463 112.144 46.8955 112.395 46.2823 112.884C46.3741 112.225 46.1319 111.697 45.9254 111.091C45.7533 110.512 45.9199 109.924 46.3125 109.483C46.3066 109.972 46.461 110.392 46.5986 110.853ZM45.2014 113.08C45.0724 113.58 44.7141 113.987 44.4694 114.433C45.1292 114.228 45.7113 113.87 46.3077 113.534C47.0181 113.147 47.7895 112.901 48.4326 112.39C48.1125 113.575 47.3193 114.262 46.1589 114.612C45.3655 114.851 44.6968 114.732 43.7341 115.121C43.8445 114.469 44.039 113.766 44.3472 113.178C44.5863 112.753 44.8515 112.334 44.9992 111.866C45.2132 112.25 45.3145 112.642 45.2014 113.08ZM42.7737 114.893C42.5466 115.282 42.2467 115.61 41.8748 115.868C42.8114 115.928 43.5651 115.334 44.4782 115.308C45.0422 115.292 45.5776 115.467 46.1528 115.415C45.4702 115.875 44.7556 116.278 43.9246 116.385C42.8444 116.525 41.8482 116.253 40.6564 116.359C41.2134 115.966 41.492 115.44 41.8392 114.875C42.2912 114.168 42.7178 113.665 43.597 113.551C43.2441 113.948 43.0387 114.439 42.7737 114.893ZM39.4474 116.447C41.0974 116.728 42.6786 117.091 44.3637 117.108C42.4774 117.765 40.7001 117.884 38.8293 117.205C37.8183 116.838 37.0431 116.642 36.2796 116.696C35.1637 116.777 33.8076 117.217 32.3067 118.8L31.7168 118.328C33.8679 116.411 36.6824 115.977 39.4473 116.447L39.4474 116.447Z" fill="#FDD406"/>
<path d="M21.8272 106.165C21.9871 106.846 22.5289 107.361 22.658 108.067C22.9165 107.33 23.1548 106.713 22.9768 105.907C22.8495 105.33 22.3645 104.919 22.3083 104.326C21.7795 104.802 21.6656 105.476 21.8272 106.165ZM21.6932 109.02C22.1417 109.635 22.7653 110.107 23.4538 110.421C23.3182 109.883 23.5726 109.477 23.855 109.049C24.1952 108.535 24.361 108.029 24.0837 107.436C23.9545 107.744 23.7808 108 23.5771 108.264C23.2757 108.675 23.0776 109.04 23.0312 109.568C22.6827 109.309 22.5296 108.924 22.3432 108.551C22.0592 108.016 21.6008 107.569 21.0742 107.277C21.2141 107.877 21.3219 108.511 21.6932 109.02ZM24.2089 110.853C24.113 111.195 24.0303 111.533 24.0488 111.89C23.7524 111.571 23.3588 111.331 23.0077 111.073C22.5295 110.687 21.9721 110.414 21.5811 109.921C21.6394 110.646 21.9496 111.237 22.5386 111.678C23.1611 112.144 23.912 112.395 24.5252 112.884C24.4334 112.225 24.6755 111.697 24.8821 111.091C25.0541 110.512 24.8876 109.924 24.4949 109.483C24.5008 109.972 24.3465 110.392 24.2089 110.853ZM25.606 113.08C25.735 113.58 26.0933 113.987 26.338 114.433C25.6783 114.228 25.0961 113.87 24.4997 113.534C23.7893 113.147 23.018 112.901 22.3749 112.39C22.6949 113.575 23.4881 114.262 24.6485 114.612C25.442 114.851 26.1106 114.732 27.0734 115.121C26.963 114.469 26.7685 113.766 26.4603 113.178C26.2211 112.753 25.9559 112.334 25.8082 111.866C25.5943 112.25 25.493 112.642 25.606 113.08ZM28.0337 114.893C28.2609 115.282 28.5608 115.61 28.9327 115.868C27.9961 115.928 27.2423 115.334 26.3293 115.308C25.7653 115.292 25.2298 115.467 24.6546 115.415C25.3372 115.875 26.0518 116.278 26.8828 116.385C27.963 116.525 28.9593 116.253 30.151 116.359C29.5941 115.966 29.3155 115.44 28.9683 114.875C28.5163 114.168 28.0897 113.665 27.2104 113.551C27.5633 113.948 27.7688 114.439 28.0337 114.893ZM31.36 116.447C29.71 116.728 28.1289 117.091 26.4437 117.108C28.33 117.765 30.1073 117.884 31.9781 117.205C32.9891 116.838 33.7643 116.642 34.5279 116.696C35.6438 116.777 36.9999 117.217 38.5007 118.8L39.0907 118.328C36.9396 116.411 34.1251 115.977 31.3601 116.447L31.36 116.447Z" fill="#FDD406"/>
</g>
<defs>
<clipPath id="clip0_307_59675">
<rect width="160" height="120" fill="white"/>
</clipPath>
</defs>
</svg>
