<svg width="160" height="120" viewBox="0 0 160 120" fill="none" xmlns="http://www.w3.org/2000/svg">
<g clip-path="url(#clip0_909_226574)">
<path d="M160 0H0V120H160V0Z" fill="#1E9A1C"/>
<path d="M67.9245 16.604L68.5707 14.6153H70.6617L68.97 13.3862L69.6161 11.3975L67.9244 12.6265L66.2327 11.3975L66.8789 13.3861L65.1872 14.6153H67.2783L67.9245 16.604Z" fill="white"/>
<path d="M91.2128 27.0341C91.2128 20.8787 87.4855 15.5926 82.1655 13.3085C85.5472 16.1913 87.6134 20.5467 87.4046 25.3289C87.045 33.5658 80.0735 39.9539 71.8366 39.5943C69.9806 39.5133 68.2188 39.0955 66.6065 38.4041C69.2128 40.6242 72.5908 41.9651 76.2819 41.9651C84.5266 41.9651 91.2128 35.2789 91.2128 27.0341Z" fill="white"/>
<path d="M68.5707 22.2953L67.9245 24.284L67.2783 22.2953H65.1872L66.8789 21.0662L66.2327 19.0775L67.9244 20.3065L69.6161 19.0775L68.97 21.0662L70.6617 22.2953H68.5707Z" fill="white"/>
<path d="M76.1581 18.5509L75.5119 20.5396L74.8657 18.5509H72.7746L74.4663 17.3217L73.8201 15.3331L75.5118 16.5621L77.2035 15.3331L76.5574 17.3218L78.2491 18.5509H76.1581Z" fill="white"/>
<path d="M60.3373 28.0284L60.9835 26.0396H63.0745L61.3828 24.8106L62.0289 22.8218L60.3372 24.0509L58.6455 22.8218L59.2917 24.8105L57.6 26.0396H59.6911L60.3373 28.0284Z" fill="white"/>
<path d="M68.5707 29.9752L67.9245 31.964L67.2783 29.9752H65.1872L66.8789 28.7461L66.2327 26.7574L67.9244 27.9865L69.6161 26.7574L68.97 28.7462L70.6617 29.9752H68.5707Z" fill="white"/>
<path d="M51.6 0H19.2V120H51.6V0Z" fill="#D91C16"/>
<path d="M27.124 0H26.001L24.0096 1.82194L23.2151 1.08041H23.9461L23.8083 0.24355H22.5372L20.0266 2.59527V3.49569H21.1389V2.74358L21.7109 3.26264L20.4079 4.47027L21.0224 5.05288L19.2003 6.7478V7.92366L22.2829 5.05288L21.6685 4.47027L22.9609 3.26264L21.8486 2.22451L22.5901 1.54654L24.0096 2.8601L27.124 0Z" fill="black"/>
<path d="M24.3559 0H25.0659L24.4546 0.571948L24.3559 0Z" fill="black"/>
<path d="M19.2003 0H21.2977L20.6834 0.624923H19.9207V1.48296L19.2003 2.21389V0Z" fill="black"/>
<path d="M26.9857 0H26.1279L24.0094 1.93842L22.9925 0.995624H23.8399L23.7231 0.328251H22.5791L20.1108 2.62697V3.41087H21.0536V2.53163L21.8375 3.26256L20.5345 4.47019L21.149 5.0528L19.1998 6.86426V7.79646L22.1553 5.0528L21.5409 4.47019L22.8333 3.26256L21.721 2.22443L22.5897 1.41934L24.0091 2.7435L26.9857 0Z" fill="#FDD406"/>
<path d="M19.2001 0V2.08674L19.8357 1.45114V0.529548H20.6514L21.1809 0H19.2001Z" fill="#FDD406"/>
<path d="M24.451 0L24.5179 0.391831L24.9384 0H24.451Z" fill="#FDD406"/>
<path d="M19.2003 13.9175V15.0933L21.0224 16.7988L20.4079 17.3709L21.7109 18.5785L21.1389 19.0976V18.3454H20.0266V19.2459L22.5372 21.5976H23.8083L23.9461 20.7713H23.2151L24.0096 20.0298L26.0011 21.8412L24.0096 23.6632L23.2151 22.9217H23.9461L23.8083 22.0849H22.5372L20.0266 24.4366V25.337H21.1389V24.5849L21.7109 25.104L20.4079 26.3116L21.0224 26.8942L19.2003 28.5891V29.765L22.2829 26.8942L21.6685 26.3116L22.9609 25.104L21.8486 24.0658L22.5901 23.3879L24.0096 24.7014L27.124 21.8413L24.0096 18.9811L22.5901 20.3052L21.8486 19.6167L22.9609 18.5785L21.6685 17.3709L22.2829 16.7989L19.2003 13.9175ZM19.2003 19.6272V24.0552L19.9207 23.3243V22.4662H20.6834L21.2977 21.8412L20.6834 21.2268H19.9207V20.3582L19.2003 19.6272ZM24.4546 21.195L24.3486 21.7989L24.4546 22.4133L25.1113 21.7989L24.4546 21.195Z" fill="black"/>
<path d="M19.2003 14.0447V14.9769L21.1495 16.7989L20.535 17.371L21.838 18.5786L21.0541 19.3095V18.4303H20.1113V19.2142L22.5795 21.5129H23.7236L23.8401 20.8561H22.9926L24.0096 19.9027L26.1282 21.8413L24.0096 23.7798L22.9926 22.8371H23.8401L23.7233 22.1697H22.5792L20.111 24.4684V25.2523H21.0538V24.3731L21.8377 25.104L20.5347 26.3116L21.1492 26.8942L19.2 28.7057V29.6379L22.1555 26.8942L21.5411 26.3116L22.8335 25.104L21.7212 24.0659L22.5898 23.2608L24.0093 24.5849L26.986 21.8413L24.0093 19.0976L22.5898 20.4218L21.7212 19.6167L22.8335 18.5786L21.5411 17.371L22.1555 16.7989L19.2 14.0447L19.2003 14.0447ZM19.2003 19.7544V23.9282L19.8359 23.2926V22.371H20.6516L21.1812 21.8413L20.6516 21.3117H19.8359V20.39L19.2003 19.7544ZM24.5181 21.3646L24.4439 21.7989L24.5181 22.2333L24.9842 21.7989L24.5181 21.3646Z" fill="#FDD406"/>
<path d="M19.2003 36.4771V37.6529L21.0224 39.3584L20.4079 39.9304L21.7109 41.1381L21.1389 41.6571V40.905H20.0266V41.8054L22.5372 44.1571H23.8083L23.9461 43.3309H23.2151L24.0096 42.5893L26.0011 44.4008L24.0096 46.2228L23.2151 45.4813H23.9461L23.8083 44.6444H22.5372L20.0266 46.9961V47.8966H21.1389V47.1445L21.7109 47.6635L20.4079 48.8712L21.0224 49.4538L19.2003 51.1487V52.3245L22.2829 49.4538L21.6685 48.8712L22.9609 47.6635L21.8486 46.6254L22.5901 45.9474L24.0096 47.261L27.124 44.4008L24.0096 41.5407L22.5901 42.8648L21.8486 42.1763L22.9609 41.1381L21.6685 39.9305L22.2829 39.3585L19.2003 36.4771ZM19.2003 42.1868V46.6148L19.9207 45.8838V45.0258H20.6834L21.2977 44.4008L20.6834 43.7864H19.9207V42.9178L19.2003 42.1868ZM24.4546 43.7546L24.3486 44.3584L24.4546 44.9728L25.1113 44.3584L24.4546 43.7546Z" fill="black"/>
<path d="M19.2003 36.6043V37.5365L21.1495 39.3585L20.535 39.9305L21.838 41.1382L21.0541 41.8691V40.9899H20.1113V41.7737L22.5795 44.0725H23.7236L23.8401 43.4157H22.9926L24.0096 42.4623L26.1282 44.4009L24.0096 46.3394L22.9926 45.3966H23.8401L23.7233 44.7293H22.5792L20.111 47.028V47.8119H21.0538V46.9326L21.8377 47.6636L20.5347 48.8712L21.1492 49.4538L19.2 51.2653V52.1975L22.1555 49.4538L21.5411 48.8712L22.8335 47.6636L21.7212 46.6254L22.5898 45.8203L24.0093 47.1445L26.986 44.4009L24.0093 41.6572L22.5898 42.9814L21.7212 42.1763L22.8335 41.1381L21.5411 39.9305L22.1555 39.3585L19.2 36.6042L19.2003 36.6043ZM19.2003 42.314V46.4877L19.8359 45.8521V44.9305H20.6516L21.1812 44.4009L20.6516 43.8712H19.8359V42.9496L19.2003 42.314ZM24.5181 43.9242L24.4439 44.3585L24.5181 44.7928L24.9842 44.3585L24.5181 43.9242Z" fill="#FDD406"/>
<path d="M19.2003 59.0366V60.2125L21.0224 61.918L20.4079 62.49L21.7109 63.6976L21.1389 64.2167V63.4646H20.0266V64.365L22.5372 66.7167H23.8083L23.9461 65.8904H23.2151L24.0096 65.1489L26.0011 66.9604L24.0096 68.7824L23.2151 68.0409H23.9461L23.8083 67.204H22.5372L20.0266 69.5557V70.4561H21.1389V69.704L21.7109 70.2231L20.4079 71.4307L21.0224 72.0133L19.2003 73.7082V74.8841L22.2829 72.0133L21.6685 71.4307L22.9609 70.2231L21.8486 69.185L22.5901 68.507L24.0096 69.8206L27.124 66.9604L24.0096 64.1002L22.5901 65.4244L21.8486 64.7358L22.9609 63.6977L21.6685 62.4901L22.2829 61.918L19.2003 59.0366ZM19.2003 64.7464V69.1743L19.9207 68.4434V67.5854H20.6834L21.2977 66.9604L20.6834 66.346H19.9207V65.4773L19.2003 64.7464ZM24.4546 66.3142L24.3486 66.918L24.4546 67.5324L25.1113 66.918L24.4546 66.3142Z" fill="black"/>
<path d="M19.2003 59.1638V60.096L21.1495 61.9181L20.535 62.4901L21.838 63.6977L21.0541 64.4287V63.5494H20.1113V64.3333L22.5795 66.632H23.7236L23.8401 65.9753H22.9926L24.0096 65.0219L26.1282 66.9604L24.0096 68.899L22.9926 67.9562H23.8401L23.7233 67.2888H22.5792L20.111 69.5875V70.3714H21.0538V69.4922L21.8377 70.2231L20.5347 71.4308L21.1492 72.0134L19.2 73.8248V74.757L22.1555 72.0134L21.5411 71.4308L22.8335 70.2231L21.7212 69.185L22.5898 68.3799L24.0093 69.7041L26.986 66.9604L24.0093 64.2168L22.5898 65.5409L21.7212 64.7359L22.8335 63.6977L21.5411 62.4901L22.1555 61.9181L19.2 59.1638L19.2003 59.1638ZM19.2003 64.8736V69.0473L19.8359 68.4117V67.4901H20.6516L21.1812 66.9605L20.6516 66.4308H19.8359V65.5092L19.2003 64.8736ZM24.5181 66.4838L24.4439 66.9181L24.5181 67.3524L24.9842 66.9181L24.5181 66.4838Z" fill="#FDD406"/>
<path d="M19.2003 81.5959V82.7718L21.0224 84.4773L20.4079 85.0493L21.7109 86.257L21.1389 86.776V86.0239H20.0266V86.9243L22.5372 89.276H23.8083L23.9461 88.4498H23.2151L24.0096 87.7082L26.0011 89.5197L24.0096 91.3417L23.2151 90.6002H23.9461L23.8083 89.7633H22.5372L20.0266 92.115V93.0155H21.1389V92.2634L21.7109 92.7824L20.4079 93.99L21.0224 94.5727L19.2003 96.2676V97.4434L22.2829 94.5727L21.6685 93.99L22.9609 92.7824L21.8486 91.7443L22.5901 91.0663L24.0096 92.3799L27.124 89.5197L24.0096 86.6596L22.5901 87.9837L21.8486 87.2951L22.9609 86.257L21.6685 85.0494L22.2829 84.4774L19.2003 81.5959ZM19.2003 87.3057V91.7337L19.9207 91.0027V90.1447H20.6834L21.2977 89.5197L20.6834 88.9053H19.9207V88.0366L19.2003 87.3057ZM24.4546 88.8735L24.3486 89.4773L24.4546 90.0917L25.1113 89.4773L24.4546 88.8735Z" fill="black"/>
<path d="M19.2003 81.7232V82.6554L21.1495 84.4774L20.535 85.0494L21.838 86.2571L21.0541 86.988V86.1087H20.1113V86.8926L22.5795 89.1914H23.7236L23.8401 88.5346H22.9926L24.0096 87.5812L26.1282 89.5198L24.0096 91.4583L22.9926 90.5155H23.8401L23.7233 89.8481H22.5792L20.111 92.1469V92.9308H21.0538V92.0515L21.8377 92.7825L20.5347 93.9901L21.1492 94.5727L19.2 96.3842V97.3164L22.1555 94.5727L21.5411 93.9901L22.8335 92.7825L21.7212 91.7443L22.5898 90.9392L24.0093 92.2634L26.986 89.5198L24.0093 86.7761L22.5898 88.1003L21.7212 87.2952L22.8335 86.257L21.5411 85.0494L22.1555 84.4774L19.2 81.7231L19.2003 81.7232ZM19.2003 87.4329V91.6066L19.8359 90.971V90.0494H20.6516L21.1812 89.5198L20.6516 88.9901H19.8359V88.0685L19.2003 87.4329ZM24.5181 89.0431L24.4439 89.4774L24.5181 89.9117L24.9842 89.4774L24.5181 89.0431Z" fill="#FDD406"/>
<path d="M43.6765 0H44.7994L46.7908 1.82194L47.5853 1.08041H46.8544L46.9921 0.24355H48.2633L50.7739 2.59527V3.49569H49.6616V2.74358L49.0895 3.26264L50.3925 4.47027L49.7781 5.05288L51.6001 6.7478V7.92366L48.5175 5.05288L49.1319 4.47027L47.8395 3.26264L48.9518 2.22451L48.2103 1.54654L46.7908 2.8601L43.6765 0Z" fill="black"/>
<path d="M46.4445 0H45.7345L46.3459 0.571948L46.4445 0Z" fill="black"/>
<path d="M51.6001 0H49.5028L50.1171 0.624923H50.8798V1.48296L51.6001 2.21389V0Z" fill="black"/>
<path d="M46.3495 0H45.8621L46.2826 0.391831L46.3495 0Z" fill="#FDD406"/>
<path d="M51.6003 2.08664V0H49.6196L50.1491 0.529548H50.9648V1.45114L51.6003 2.08664Z" fill="#FDD406"/>
<path d="M51.6003 6.86389L49.6515 5.0528L50.2659 4.47019L48.963 3.26256L49.7469 2.53163V3.41087H50.6897V2.62697L48.2214 0.328251H47.0774L46.9606 0.995624H47.808L46.7911 1.93842L44.6726 0H43.8148L46.7914 2.7435L48.2108 1.41934L49.0795 2.22443L47.9672 3.26256L49.2596 4.47019L48.6452 5.0528L51.6003 7.7961V6.86389Z" fill="#FDD406"/>
<path d="M51.6003 13.9175V15.0933L49.7782 16.7988L50.3927 17.3709L49.0897 18.5785L49.6617 19.0976V18.3454H50.774V19.2459L48.2634 21.5976H46.9923L46.8545 20.7713H47.5855L46.791 20.0298L44.7995 21.8412L46.791 23.6632L47.5855 22.9217H46.8545L46.9923 22.0849H48.2634L50.774 24.4366V25.337H49.6617V24.5849L49.0897 25.104L50.3927 26.3116L49.7782 26.8942L51.6003 28.5891V29.765L48.5177 26.8942L49.1321 26.3116L47.8397 25.104L48.952 24.0658L48.2105 23.3879L46.791 24.7014L43.6766 21.8413L46.791 18.9811L48.2105 20.3052L48.952 19.6167L47.8397 18.5785L49.1321 17.3709L48.5177 16.7989L51.6003 13.9175ZM51.6003 19.6272V24.0552L50.8799 23.3243V22.4662H50.1172L49.5029 21.8412L50.1172 21.2268H50.8799V20.3582L51.6003 19.6272ZM46.346 21.195L46.452 21.7989L46.346 22.4133L45.6893 21.7989L46.346 21.195Z" fill="black"/>
<path d="M51.6003 14.0447V14.9769L49.6511 16.7989L50.2656 17.371L48.9626 18.5786L49.7465 19.3095V18.4303H50.6893V19.2142L48.2211 21.5129H47.077L46.9605 20.8561H47.808L46.791 19.9027L44.6724 21.8413L46.791 23.7798L47.808 22.8371H46.9605L47.0773 22.1697H48.2214L50.6896 24.4684V25.2523H49.7468V24.3731L48.9629 25.104L50.2659 26.3116L49.6514 26.8942L51.6006 28.7057V29.6379L48.6451 26.8942L49.2595 26.3116L47.9671 25.104L49.0794 24.0659L48.2108 23.2608L46.7913 24.5849L43.8146 21.8413L46.7913 19.0976L48.2108 20.4218L49.0794 19.6167L47.9671 18.5786L49.2595 17.371L48.6451 16.7989L51.6006 14.0447L51.6003 14.0447ZM51.6003 19.7544V23.9282L50.9647 23.2926V22.371H50.149L49.6194 21.8413L50.149 21.3117H50.9647V20.39L51.6003 19.7544ZM46.2825 21.3646L46.3567 21.7989L46.2825 22.2333L45.8164 21.7989L46.2825 21.3646Z" fill="#FDD406"/>
<path d="M51.6003 36.4773V37.6532L49.7782 39.3587L50.3927 39.9307L49.0897 41.1383L49.6617 41.6574V40.9053H50.774V41.8057L48.2634 44.1574H46.9923L46.8545 43.3311H47.5855L46.791 42.5896L44.7995 44.401L46.791 46.2231L47.5855 45.4815H46.8545L46.9923 44.6447H48.2634L50.774 46.9964V47.8968H49.6617V47.1447L49.0897 47.6638L50.3927 48.8714L49.7782 49.454L51.6003 51.1489V52.3248L48.5177 49.454L49.1321 48.8714L47.8397 47.6638L48.952 46.6256L48.2105 45.9477L46.791 47.2612L43.6766 44.4011L46.791 41.5409L48.2105 42.8651L48.952 42.1765L47.8397 41.1384L49.1321 39.9307L48.5177 39.3587L51.6003 36.4773ZM51.6003 42.1871V46.615L50.8799 45.8841V45.026H50.1172L49.5029 44.401L50.1172 43.7866H50.8799V42.918L51.6003 42.1871ZM46.346 43.7549L46.452 44.3587L46.346 44.9731L45.6893 44.3587L46.346 43.7549Z" fill="black"/>
<path d="M51.6003 36.6045V37.5367L49.6511 39.3587L50.2656 39.9308L48.9626 41.1384L49.7465 41.8693V40.9901H50.6893V41.774L48.2211 44.0727H47.077L46.9605 43.4159H47.808L46.791 42.4625L44.6724 44.4011L46.791 46.3397L47.808 45.3969H46.9605L47.0773 44.7295H48.2214L50.6896 47.0282V47.8121H49.7468V46.9329L48.9629 47.6638L50.2659 48.8714L49.6514 49.454L51.6006 51.2655V52.1977L48.6451 49.454L49.2595 48.8714L47.9671 47.6638L49.0794 46.6257L48.2108 45.8206L46.7913 47.1447L43.8146 44.4011L46.7913 41.6575L48.2108 42.9816L49.0794 42.1765L47.9671 41.1384L49.2595 39.9308L48.6451 39.3587L51.6006 36.6045L51.6003 36.6045ZM51.6003 42.3143V46.488L50.9647 45.8524V44.9308H50.149L49.6194 44.4011L50.149 43.8715H50.9647V42.9499L51.6003 42.3143ZM46.2825 43.9244L46.3567 44.3588L46.2825 44.7931L45.8164 44.3588L46.2825 43.9244Z" fill="#FDD406"/>
<path d="M51.6003 59.0366V60.2125L49.7782 61.918L50.3927 62.49L49.0897 63.6976L49.6617 64.2167V63.4646H50.774V64.365L48.2634 66.7167H46.9923L46.8545 65.8904H47.5855L46.791 65.1489L44.7995 66.9604L46.791 68.7824L47.5855 68.0409H46.8545L46.9923 67.204H48.2634L50.774 69.5557V70.4561H49.6617V69.704L49.0897 70.2231L50.3927 71.4307L49.7782 72.0133L51.6003 73.7082V74.8841L48.5177 72.0133L49.1321 71.4307L47.8397 70.2231L48.952 69.185L48.2105 68.507L46.791 69.8206L43.6766 66.9604L46.791 64.1002L48.2105 65.4244L48.952 64.7358L47.8397 63.6977L49.1321 62.4901L48.5177 61.918L51.6003 59.0366ZM51.6003 64.7464V69.1743L50.8799 68.4434V67.5854H50.1172L49.5029 66.9604L50.1172 66.346H50.8799V65.4773L51.6003 64.7464ZM46.346 66.3142L46.452 66.918L46.346 67.5324L45.6893 66.918L46.346 66.3142Z" fill="black"/>
<path d="M51.6003 59.1638V60.096L49.6511 61.9181L50.2656 62.4901L48.9626 63.6977L49.7465 64.4287V63.5494H50.6893V64.3333L48.2211 66.632H47.077L46.9605 65.9753H47.808L46.791 65.0219L44.6724 66.9604L46.791 68.899L47.808 67.9562H46.9605L47.0773 67.2888H48.2214L50.6896 69.5875V70.3714H49.7468V69.4922L48.9629 70.2231L50.2659 71.4308L49.6514 72.0134L51.6006 73.8248V74.757L48.6451 72.0134L49.2595 71.4308L47.9671 70.2231L49.0794 69.185L48.2108 68.3799L46.7913 69.7041L43.8146 66.9604L46.7913 64.2168L48.2108 65.5409L49.0794 64.7359L47.9671 63.6977L49.2595 62.4901L48.6451 61.9181L51.6006 59.1638L51.6003 59.1638ZM51.6003 64.8736V69.0473L50.9647 68.4117V67.4901H50.149L49.6194 66.9605L50.149 66.4308H50.9647V65.5092L51.6003 64.8736ZM46.2825 66.4838L46.3567 66.9181L46.2825 67.3524L45.8164 66.9181L46.2825 66.4838Z" fill="#FDD406"/>
<path d="M51.6003 81.5959V82.7718L49.7782 84.4773L50.3927 85.0493L49.0897 86.257L49.6617 86.776V86.0239H50.774V86.9243L48.2634 89.276H46.9923L46.8545 88.4498H47.5855L46.791 87.7082L44.7995 89.5197L46.791 91.3417L47.5855 90.6002H46.8545L46.9923 89.7633H48.2634L50.774 92.115V93.0155H49.6617V92.2634L49.0897 92.7824L50.3927 93.99L49.7782 94.5727L51.6003 96.2676V97.4434L48.5177 94.5727L49.1321 93.99L47.8397 92.7824L48.952 91.7443L48.2105 91.0663L46.791 92.3799L43.6766 89.5197L46.791 86.6596L48.2105 87.9837L48.952 87.2951L47.8397 86.257L49.1321 85.0494L48.5177 84.4774L51.6003 81.5959ZM51.6003 87.3057V91.7337L50.8799 91.0027V90.1447H50.1172L49.5029 89.5197L50.1172 88.9053H50.8799V88.0366L51.6003 87.3057ZM46.346 88.8735L46.452 89.4773L46.346 90.0917L45.6893 89.4773L46.346 88.8735Z" fill="black"/>
<path d="M51.6003 81.7232V82.6554L49.6511 84.4774L50.2656 85.0494L48.9626 86.2571L49.7465 86.988V86.1087H50.6893V86.8926L48.2211 89.1914H47.077L46.9605 88.5346H47.808L46.791 87.5812L44.6724 89.5198L46.791 91.4583L47.808 90.5155H46.9605L47.0773 89.8481H48.2214L50.6896 92.1469V92.9308H49.7468V92.0515L48.9629 92.7825L50.2659 93.9901L49.6514 94.5727L51.6006 96.3842V97.3164L48.6451 94.5727L49.2595 93.9901L47.9671 92.7825L49.0794 91.7443L48.2108 90.9392L46.7913 92.2634L43.8146 89.5198L46.7913 86.7761L48.2108 88.1003L49.0794 87.2952L47.9671 86.257L49.2595 85.0494L48.6451 84.4774L51.6006 81.7231L51.6003 81.7232ZM51.6003 87.4329V91.6066L50.9647 90.971V90.0494H50.149L49.6194 89.5198L50.149 88.9901H50.9647V88.0685L51.6003 87.4329ZM46.2825 89.0431L46.3567 89.4774L46.2825 89.9117L45.8164 89.4774L46.2825 89.0431Z" fill="#FDD406"/>
<path d="M23.254 14.0678L20.6578 12.4758V8.64874L23.254 7.0567V5.0317L25.7074 3.55426H27.6675L31.3969 1.45654H39.4036L43.1332 3.55426H45.0933L47.5467 5.0317V7.0567L50.1429 8.64874L50.1427 12.4758L47.5467 14.0678V16.0928L45.0933 17.5703H43.1332L39.4036 19.668H31.3969L27.6675 17.5703H25.7074L23.254 16.0928V14.0678Z" fill="black"/>
<path d="M31.4143 1.54639L27.6855 3.64385H25.7363L23.3422 5.08452V7.10782L20.7469 8.69681V12.4256L23.3422 14.0146V16.0485L25.7257 17.4892H27.6855L31.4143 19.5866H39.3804L43.1092 17.4892H45.0689L47.463 16.0485V14.0146L50.0583 12.4256V8.69681L47.463 7.10782V5.08452L45.0689 3.64385H43.1092L39.3804 1.54639H31.4143ZM31.6367 2.31969H39.1685L42.8973 4.41715H44.8465L46.6579 5.50825V7.53155L49.2638 9.12054V12.0019L46.6579 13.5909V15.6142L44.8465 16.7053H42.8973L39.1685 18.8028H31.6367L27.9079 16.7053H25.9588L24.1367 15.6142V13.5909L21.5414 12.0019V9.12054L24.1367 7.53155V5.50825L25.9588 4.41715H27.9079L31.6367 2.31969Z" fill="#1E9A1C"/>
<path d="M35.3573 10.605V2.40332H31.6561L27.9264 4.50104H25.9821L24.2231 5.56028V7.58036L21.627 9.17228V10.5194L35.4432 10.5193V18.7212H39.1443L42.8739 16.6234H44.8184L46.5772 15.5642V13.5442L49.1734 11.9522V10.6051L35.3573 10.605Z" fill="#FDD406"/>
<path d="M21.6269 10.6051L21.6268 11.9522L24.223 13.5442V15.5642L25.9818 16.6234H27.9263L31.6559 18.7212H35.3572V10.5193L49.1733 10.5194V9.17228L46.5771 7.58036V5.56028L44.8183 4.50104H42.8738L39.1442 2.40332H35.443V10.605L21.6269 10.6051Z" fill="white"/>
<path d="M27.2904 5.25608L26.6513 4.6604L26.018 5.05088L26.6582 5.64776L25.8362 6.15704H27.63L29.1758 7.61516L29.6704 7.09292L28.1674 5.67512V4.71272L27.2904 5.25608Z" fill="black"/>
<path d="M30.3154 4.99436L29.6763 4.39868L29.0431 4.78916L29.6833 5.38604L28.8613 5.89532H30.655L32.2009 7.35345L32.6954 6.83121L31.1924 5.4134V4.451L30.3154 4.99436Z" fill="black"/>
<path d="M27.0686 6.96726L26.4295 6.37158L25.7964 6.76206L26.4364 7.35894L25.6146 7.86822H27.4083L28.954 9.32635L29.4486 8.80411L27.9456 7.3863V6.4239L27.0686 6.96726Z" fill="black"/>
<path d="M35.4002 2.31787H33.7816L32.9346 3.13411H31.2835L30.0635 3.76735L30.348 4.46059L31.436 3.88915H31.9126L33.5808 5.81851L35.4002 4.71055L35.4002 2.31787Z" fill="black"/>
<path d="M26.6406 4.76758L27.2149 5.3029L26.7337 5.60098L26.1586 5.06482L26.6406 4.76758ZM28.0817 4.86658V5.71198L29.5492 7.09629L29.1724 7.49421L27.6641 6.07138H26.137L28.0817 4.86658Z" fill="#D91C16"/>
<path d="M29.6656 4.50586L30.2399 5.04118L29.7587 5.33926L29.1837 4.8031L29.6656 4.50586ZM31.1067 4.60486V5.45026L32.5742 6.83457L32.1974 7.2325L30.6891 5.80978H29.162L31.1067 4.60486Z" fill="#D91C16"/>
<path d="M26.4192 6.47876L26.9934 7.01408L26.5122 7.31216L25.9371 6.776L26.4192 6.47876ZM27.8601 6.57776V7.42316L29.3276 8.80748L28.9509 9.2054L27.4426 7.78268H25.9154L27.8601 6.57776Z" fill="#D91C16"/>
<path d="M35.3574 2.40332H33.8162L32.9693 3.21956H31.3045L30.1724 3.80708L30.3914 4.34084L31.4148 3.80348H31.9518L33.5982 5.70764L35.3574 4.6364L35.3574 2.40332Z" fill="#D91C16"/>
<path d="M27.2904 15.8687L26.6513 16.4644L26.018 16.0739L26.6582 15.477L25.8362 14.9677H27.63L29.1758 13.5096L29.6704 14.0318L28.1674 15.4496V16.412L27.2904 15.8687Z" fill="black"/>
<path d="M30.3154 16.1304L29.6763 16.7261L29.0431 16.3356L29.6833 15.7387L28.8613 15.2294H30.655L32.2009 13.7713L32.6954 14.2936L31.1924 15.7114V16.6738L30.3154 16.1304Z" fill="black"/>
<path d="M27.0686 14.1575L26.4295 14.7532L25.7964 14.3627L26.4364 13.7658L25.6146 13.2565H27.4083L28.954 11.7984L29.4486 12.3207L27.9456 13.7385V14.7009L27.0686 14.1575Z" fill="black"/>
<path d="M35.4002 18.8069H33.7816L32.9346 17.9906H31.2835L30.0635 17.3574L30.348 16.6642L31.436 17.2356H31.9126L33.5808 15.3062L35.4002 16.4142L35.4002 18.8069Z" fill="black"/>
<path d="M26.6406 16.3572L27.2149 15.8219L26.7337 15.5238L26.1586 16.0599L26.6406 16.3572ZM28.0817 16.2582V15.4128L29.5492 14.0285L29.1724 13.6305L27.6641 15.0534H26.137L28.0817 16.2582Z" fill="#D91C16"/>
<path d="M29.6656 16.6189L30.2399 16.0836L29.7587 15.7855L29.1837 16.3217L29.6656 16.6189ZM31.1067 16.5199V15.6745L32.5742 14.2902L32.1974 13.8923L30.6891 15.315H29.162L31.1067 16.5199Z" fill="#D91C16"/>
<path d="M26.4192 14.646L26.9934 14.1107L26.5122 13.8126L25.9371 14.3488L26.4192 14.646ZM27.8601 14.547V13.7016L29.3276 12.3173L28.9509 11.9194L27.4426 13.3421H25.9154L27.8601 14.547Z" fill="#D91C16"/>
<path d="M35.3574 18.7214H33.8162L32.9693 17.9052H31.3045L30.1724 17.3177L30.3914 16.7839L31.4148 17.3213H31.9518L33.5982 15.4171L35.3574 16.4884L35.3574 18.7214Z" fill="#D91C16"/>
<path d="M26.2116 7.94217L25.4399 7.65381L25.4214 7.66665L24.4249 8.35809V8.54397L22.8289 10.5622L24.4249 12.5805V12.7665L25.4399 13.4707L26.2116 13.1823L25.7406 12.8704V12.277L25.9278 12.0531H26.7641V9.07137H25.9278L25.7406 8.84745V8.25405L26.2116 7.94217Z" fill="black"/>
<path d="M24.5106 8.4028L25.4519 7.74976L26.0243 7.9636L25.6549 8.20816V8.8786L25.8877 9.157H26.6783V11.9676H25.8877L25.6549 12.246V12.9165L26.0243 13.161L25.4519 13.3749L24.5106 12.7218L24.5107 12.5508L22.9381 10.5623L24.5107 8.57368L24.5106 8.4028Z" fill="#D91C16"/>
<path d="M43.5098 5.25608L44.1489 4.6604L44.7821 5.05088L44.1419 5.64776L44.9639 6.15704H43.1702L41.6243 7.61516L41.1298 7.09292L42.6328 5.67512V4.71272L43.5098 5.25608Z" fill="black"/>
<path d="M40.4849 4.99461L41.124 4.39893L41.7573 4.78941L41.1171 5.38629L41.9391 5.89557H40.1453L38.5995 7.35369L38.105 6.83145L39.608 5.41365V4.45125L40.4849 4.99461Z" fill="black"/>
<path d="M43.7316 6.96726L44.3707 6.37158L45.0038 6.76206L44.3637 7.35894L45.1856 7.86822H43.3919L41.8461 9.32635L41.3516 8.80411L42.8546 7.3863V6.4239L43.7316 6.96726Z" fill="black"/>
<path d="M35.4 2.31787H37.0186L37.8656 3.13411H39.5167L40.7367 3.76735L40.4522 4.46059L39.3641 3.88915H38.8876L37.2194 5.81851L35.3999 4.71055L35.4 2.31787Z" fill="black"/>
<path d="M44.1596 4.76758L43.5853 5.3029L44.0665 5.60098L44.6416 5.06482L44.1596 4.76758ZM42.7185 4.86658V5.71198L41.251 7.09629L41.6278 7.49421L43.1361 6.07138H44.6632L42.7185 4.86658Z" fill="#D91C16"/>
<path d="M41.1345 4.50586L40.5602 5.04118L41.0414 5.33926L41.6165 4.8031L41.1345 4.50586ZM39.6935 4.60486V5.45026L38.226 6.83457L38.6028 7.2325L40.1111 5.80978H41.6382L39.6935 4.60486Z" fill="#D91C16"/>
<path d="M44.3812 6.47876L43.807 7.01408L44.2882 7.31216L44.8632 6.776L44.3812 6.47876ZM42.9402 6.57776V7.42316L41.4727 8.80748L41.8494 9.2054L43.3577 7.78268H44.8849L42.9402 6.57776Z" fill="#D91C16"/>
<path d="M35.4427 2.40332H36.984L37.8309 3.21956H39.4957L40.6277 3.80708L40.4087 4.34084L39.3854 3.80348H38.8484L37.202 5.70764L35.4427 4.6364L35.4427 2.40332Z" fill="#D91C16"/>
<path d="M43.5098 15.8687L44.1489 16.4644L44.7821 16.0739L44.1419 15.477L44.9639 14.9677H43.1702L41.6243 13.5096L41.1298 14.0318L42.6328 15.4496V16.412L43.5098 15.8687Z" fill="black"/>
<path d="M40.4849 16.1304L41.124 16.7261L41.7573 16.3356L41.1171 15.7387L41.9391 15.2294H40.1453L38.5995 13.7713L38.105 14.2936L39.608 15.7114V16.6738L40.4849 16.1304Z" fill="black"/>
<path d="M43.7316 14.1575L44.3707 14.7532L45.0038 14.3627L44.3637 13.7658L45.1856 13.2565H43.3919L41.8461 11.7984L41.3516 12.3207L42.8546 13.7385V14.7009L43.7316 14.1575Z" fill="black"/>
<path d="M35.4 18.8069H37.0186L37.8656 17.9906H39.5167L40.7367 17.3574L40.4522 16.6642L39.3641 17.2356H38.8876L37.2194 15.3062L35.3999 16.4142L35.4 18.8069Z" fill="black"/>
<path d="M44.1596 16.3572L43.5853 15.8219L44.0665 15.5238L44.6416 16.0599L44.1596 16.3572ZM42.7185 16.2582V15.4128L41.251 14.0285L41.6278 13.6305L43.1361 15.0534H44.6632L42.7185 16.2582Z" fill="#D91C16"/>
<path d="M41.1345 16.6189L40.5602 16.0836L41.0414 15.7855L41.6165 16.3217L41.1345 16.6189ZM39.6935 16.5199V15.6745L38.226 14.2902L38.6028 13.8923L40.1111 15.315H41.6382L39.6935 16.5199Z" fill="#D91C16"/>
<path d="M44.3812 14.646L43.807 14.1107L44.2882 13.8126L44.8632 14.3488L44.3812 14.646ZM42.9402 14.547V13.7016L41.4727 12.3173L41.8494 11.9194L43.3577 13.3421H44.8849L42.9402 14.547Z" fill="#D91C16"/>
<path d="M35.4427 18.7214H36.984L37.8309 17.9052H39.4957L40.6277 17.3177L40.4087 16.7839L39.3854 17.3213H38.8484L37.202 15.4171L35.4427 16.4884L35.4427 18.7214Z" fill="#D91C16"/>
<path d="M44.5886 7.94217L45.3603 7.65381L45.3788 7.66665L46.3753 8.35809V8.54397L47.9713 10.5622L46.3753 12.5805V12.7665L45.3603 13.4707L44.5886 13.1823L45.0596 12.8704V12.277L44.8724 12.0531H44.0361V9.07137H44.8724L45.0596 8.84745V8.25405L44.5886 7.94217Z" fill="black"/>
<path d="M46.2896 8.4028L45.3483 7.74976L44.7759 7.9636L45.1453 8.20816V8.8786L44.9125 9.157H44.1219V11.9676H44.9125L45.1453 12.246V12.9165L44.7759 13.161L45.3483 13.3749L46.2896 12.7218L46.2895 12.5508L47.8621 10.5623L46.2895 8.57368L46.2896 8.4028Z" fill="#D91C16"/>
<path d="M24.8414 12.2565L24.4068 11.8806V11.6994L23.4747 10.5624L24.407 9.42523V9.24415L24.8415 8.86819L25.622 9.50287L25.1715 9.49939L25.8371 10.175H27.3581L28.5543 9.23959V6.77275H31.546L35.0205 4.64059V4.08139L34.4891 3.72727H34.3208L33.7421 4.11451L33.6525 4.40335L33.1998 3.78535L34.0796 3.04627H34.2202L35.213 2.31787H35.5872L36.5799 3.04627H36.7206L37.6004 3.78535L37.1477 4.40335L37.0581 4.11451L36.4794 3.72727H36.3111L35.7797 4.08139V4.64059L39.2542 6.77275H42.2459V9.23959L43.4421 10.175H44.9631L45.6287 9.49939L45.1782 9.50287L45.9587 8.86819L46.3932 9.24415V9.42523L47.3255 10.5624L46.3932 11.6994V11.8806L45.9587 12.2565L45.1782 11.6218L45.6287 11.6253L44.9631 10.9496H43.4421L42.2459 11.8851V14.352H39.2542L35.7797 16.4841V17.0433L36.3111 17.3974H36.4794L37.0581 17.0102L37.1477 16.7214L37.6004 17.3392L36.7206 18.0784H36.5799L35.5872 18.8068H35.213L34.2202 18.0784H34.0796L33.1997 17.3392L33.6525 16.7214L33.7421 17.0102L34.3206 17.3974H34.489L35.0205 17.0433V16.4841L31.546 14.352H28.5543V11.8851L27.358 10.9496H25.8371L25.1715 11.6253L25.622 11.6218L24.8414 12.2565Z" fill="black"/>
<path d="M35.4429 17.4638L35.8232 17.7546L35.4429 18.0453V17.4638ZM34.2342 17.9926H34.2482L35.241 18.7212H35.3569V18.1528L34.8361 17.7546L35.357 17.3563V16.2888L31.6392 14.0072H28.8908V11.7147L27.4718 10.605H25.3315L24.7935 11.2132L24.2556 10.605L23.6204 10.6051L24.4923 11.6685V11.8412L24.8377 12.1412L25.3926 11.7092L25.0669 11.7117V11.6037L25.7927 10.8639H27.3875L28.6399 11.8434V14.2663H31.5702L35.106 16.4361V17.0889L34.5149 17.4829H34.2944L33.6691 17.0643L33.621 16.909L33.3161 17.3252L34.1107 17.9926L34.2342 17.9926ZM24.794 10.0406L25.2176 10.5194H24.3703L24.794 10.0406ZM35.3571 3.07916L34.9771 3.36992L35.3571 3.66056V3.07916ZM45.5826 10.6051L46.0062 11.0839L46.4298 10.6051H45.5826ZM36.5517 3.13172L35.559 2.40332H35.4431V2.9714L35.9641 3.36992L35.4429 3.76844V4.83572L39.1608 7.11728H41.9091V9.40976L43.3282 10.5195H45.4681L46.0062 9.91136L46.5443 10.5194H47.1796L46.3076 9.45596V9.28328L45.9623 8.98328L45.4074 9.41528L45.7331 9.41264V9.52076L45.0073 10.2604H43.4125L42.1602 9.281V6.8582H39.2298L35.694 4.68836V4.03544L36.2851 3.6416H36.5055L37.1309 4.06016L37.179 4.21544L37.4839 3.79928L36.6893 3.13172L36.5517 3.13172Z" fill="#FDD406"/>
<path d="M35.3571 18.0452L34.9771 17.7546L35.3571 17.4639V18.0452ZM25.2176 10.6051L24.794 11.0839L24.3704 10.6051H25.2176ZM36.5658 17.9926H36.5517L35.559 18.7212H35.4431V18.5724V18.1531L35.9641 17.7546L35.4429 17.356V16.2888L39.1608 14.0072H41.9091V11.7147L43.3282 10.605H45.4682L46.0062 11.2132L46.5442 10.605L47.1796 10.6051L46.3076 11.6685V11.8412L45.9623 12.1412L45.4074 11.7092L45.7331 11.7117V11.6037L45.0073 10.8639H43.4125L42.1602 11.8434V14.2663H39.2298L35.694 16.4361V17.0889L36.2851 17.4829H36.5055L37.1309 17.0643L37.179 16.909L37.4839 17.3252L36.6893 17.9926L36.5658 17.9926ZM46.0062 10.0406L45.5826 10.5194H46.4299L46.0062 10.0406ZM34.2485 3.13172L35.2412 2.40332H35.3573V2.9714L34.8361 3.36992L35.3573 3.76844L35.3574 4.83572L31.6394 7.11728H28.8912V9.40976L27.4721 10.5195H25.3315L24.7935 9.91136L24.2555 10.5194H23.6207L24.4927 9.45596V9.28328L24.8381 8.98328L25.3928 9.41528L25.0671 9.41264V9.52076L25.793 10.2604H27.3877L28.6402 9.281V6.8582H31.5704L35.1064 4.68836V4.03544L34.5152 3.6416H34.2947L33.6694 4.06016L33.6212 4.21544L33.3164 3.79928L34.1111 3.13172L34.2485 3.13172ZM35.443 3.66068L35.8232 3.36992L35.443 3.07916V3.66068Z" fill="white"/>
<path d="M35.3574 10.605V4.93604L31.6637 7.20284H28.9767V9.4514L27.6111 10.5194L35.4432 10.5193V16.1883L39.1367 13.9216H41.8236V11.6731L43.1892 10.6051L35.3574 10.605Z" fill="#1E9A1C"/>
<path d="M27.6109 10.605L28.9766 11.673V13.9215H31.6634L35.3573 16.1883V10.5191L43.1891 10.5193L41.8235 9.45127V7.20271H39.1365L35.4431 4.93604V10.6049L27.6109 10.605Z" fill="#D91C16"/>
<path d="M31.4243 7.81272L30.7853 7.21704L30.1521 7.6074L30.7923 8.20428L29.9703 8.71356H31.764L33.3099 10.1718L33.8044 9.64945L32.3014 8.23164V7.26936L31.4243 7.81272Z" fill="black"/>
<path d="M39.3754 13.3117L40.0145 13.9074L40.6476 13.5169L40.0075 12.92L40.8295 12.4109H39.0357L37.4899 10.9526L36.9954 11.4749L38.4984 12.8928V13.8551L39.3754 13.3117Z" fill="black"/>
<path d="M31.4243 13.3117L30.7852 13.9074L30.1521 13.5169L30.7922 12.92L29.9703 12.4109H31.764L33.3098 10.9526L33.8043 11.4749L32.3013 12.8928V13.8551L31.4243 13.3117Z" fill="black"/>
<path d="M39.3754 7.81272L40.0145 7.21704L40.6476 7.6074L40.0075 8.20428L40.8295 8.71356H39.0357L37.4899 10.1718L36.9954 9.64945L38.4984 8.23164V7.26936L39.3754 7.81272Z" fill="black"/>
<path d="M40.025 13.8003L39.4508 13.265L39.932 12.9669L40.5071 13.503L40.025 13.8003ZM38.5841 13.7013V12.856L37.1166 11.4717L37.4934 11.0736L39.0017 12.4965H40.5288L38.5841 13.7013ZM30.7747 7.32397L31.349 7.85929L30.8677 8.15749L30.2927 7.62133L30.7747 7.32397ZM32.2158 7.42309V8.26837L33.6833 9.65269L33.3065 10.0507L31.7982 8.62789H30.2711L32.2158 7.42309Z" fill="#D91C16"/>
<path d="M40.0251 7.32397L39.4509 7.85929L39.9321 8.15749L40.5072 7.62133L40.0251 7.32397ZM38.5842 7.42309V8.26837L37.1167 9.65269L37.4935 10.0507L39.0018 8.62789H40.5289L38.5842 7.42309ZM30.7748 13.8003L31.349 13.265L30.8678 12.9669L30.2928 13.503L30.7748 13.8003ZM32.2158 13.7013V12.856L33.6833 11.4717L33.3066 11.0736L31.7983 12.4965H30.2711L32.2158 13.7013Z" fill="#1E9A1C"/>
<path d="M39.3719 10.5622L35.4001 13.2093L31.4283 10.5622L35.4001 7.91504L39.3719 10.5622Z" fill="black"/>
<path d="M35.3572 8.04639L31.6469 10.5192H39.1533L35.443 8.04639V13.0777L39.1534 10.6049H31.6468L35.3572 13.0777V8.04639Z" fill="white"/>
<path d="M36.4623 11.4725V12.2003H34.3382V11.4725H32.9634V9.65187H34.3382V8.92407H36.4623V9.65187H37.8369V11.4725H36.4623Z" fill="black"/>
<path d="M34.424 9.00977V9.73757H33.0494V10.5195H35.3575V9.00977L34.424 9.00977ZM35.4433 10.5195H37.7513V9.73757H36.3767V9.00977H35.4433L35.4433 10.5195ZM33.0494 10.6052V11.3871H34.424V12.1149H35.3575V10.6052L33.0494 10.6052ZM35.4433 12.1149H36.3767V11.3871H37.7513V10.6052H35.4433V12.1149Z" fill="#D91C16"/>
<path d="M42.1762 40.7219V39.5559H45.3738V38.3898H48.5715V27.8536H45.3738V26.6875H42.1762V25.5215H38.9785V24.3555H31.8221V25.5215H28.6245V26.6875H25.4267V27.8536H22.2291V38.3898H25.4267V39.5559H28.6245V40.7219H31.8221V41.8879H38.9785V40.7219H42.1762Z" fill="black"/>
<path d="M31.9123 24.4385V25.6037H28.7131V26.769H25.5139V27.9342H22.3148V38.305H25.5139V39.4704H28.7131V40.6355H31.9123V41.8006H38.893V40.6355H42.0923V39.4704H45.2916V38.305H48.4906V27.9342H45.2916V26.769H42.0923V25.6037H38.893V24.4385H31.9123ZM32.7598 25.2859H38.0455V26.4512H41.2449V27.6164H44.4442V28.7817H47.6432V37.4575H44.4442V38.6229H41.2449V39.788H38.0455V40.9531H32.7598V39.788H29.5605V38.6229H26.3614V37.4575H23.1622V28.7817H26.3614V27.6164H29.5605V26.4512H32.7598V25.2859Z" fill="#FDD406"/>
<path d="M29.6425 39.7037V38.5375H26.4449V37.3716H23.2471V28.8715H26.4449V27.7055H29.6425V26.5395H32.8402V25.3735H37.9603V26.5395H41.1581V27.7055H44.3556V28.8715H47.5534V37.3716H44.3556V38.5375H41.1581V39.7037H37.9603V40.8696H32.8402V39.7037H29.6425Z" fill="#D91C16"/>
<path d="M30.3848 27.4028L29.5565 26.7767V27.9789L28.7635 28.4829L28.7614 27.7304L28.0007 28.4136L27.2401 27.7304L27.238 28.4829L26.3591 27.9244V29.039L25.6489 29.5532L25.6469 28.8698L24.803 29.4809L23.9592 28.8698L23.9572 29.5532L23.1612 28.9769V32.3532H22.2288V33.8901H23.1612V37.2664L23.9572 36.69L23.9592 37.3736L24.803 36.7624L25.6467 37.3736L25.6488 36.69L26.3591 37.2042V38.3189L27.2379 37.7604L27.24 38.513L28.0007 37.8297L28.7613 38.513L28.7634 37.7604L29.5565 38.2643V39.4666L30.3847 38.8406L30.3865 39.6802L31.1982 38.9543L32.01 39.6802L32.0118 38.8406L32.7543 39.4018V40.684L33.8646 39.672V40.8612L35.4001 39.874L36.9357 40.8612V39.672L38.046 40.684V39.4018L38.7884 38.8406L38.7902 39.6802L39.602 38.9543L40.4138 39.6802L40.4156 38.8406L41.2436 39.4666V38.2643L42.0369 37.7604L42.0389 38.513L42.7997 37.8297L43.5604 38.513L43.5624 37.7604L44.4414 38.3189V37.2042L45.1517 36.69L45.1537 37.3736L45.9974 36.7624L46.8413 37.3736L46.8433 36.69L47.6392 37.2663V33.8901H48.5716V32.3532H47.6392V28.9769L46.8433 29.5532L46.8413 28.8698L45.9974 29.4809L45.1536 28.8698L45.1518 29.5532L44.4415 29.039V27.9244L43.5625 28.4829L43.5605 27.7304L42.7998 28.4136L42.039 27.7304L42.037 28.4829L41.2437 27.9788V26.7767L40.4157 27.4026L40.4139 26.563L39.6021 27.289L38.7903 26.563L38.7885 27.4028L38.0461 26.8413V25.5593L36.9358 26.5713V25.3821L35.4002 26.3693L33.8647 25.3821V26.5713L32.7544 25.5593V26.8414L32.0119 27.4028L32.0101 26.563L31.1983 27.289L30.3866 26.563L30.3848 27.4028Z" fill="black"/>
<path d="M24.0428 29.7209L24.0448 29.0374L24.8033 29.5868L24.8288 29.5682L25.5618 29.0374L25.5638 29.7209L26.3594 29.145V37.0986L25.5638 36.5227L25.5618 37.2062L24.8033 36.6568L24.0448 37.2062L24.0428 36.5227L23.2472 37.0986V33.8045H22.3148V32.4391H23.2472V29.145L24.0428 29.7209Z" fill="#1E9A1C"/>
<path d="M30.4719 26.7544L31.1984 27.4041L31.9249 26.7544L31.9267 27.5748L32.7545 26.949V39.2945L31.9267 38.6687L31.9249 39.4892L31.1984 38.8395L30.4719 39.4892L30.4703 38.6687L29.6426 39.2945V26.949L30.4703 27.5748L30.4719 26.7544Z" fill="#1E9A1C"/>
<path d="M40.3289 26.7544L39.6024 27.4041L38.8759 26.7544L38.8741 27.5748L38.0465 26.949V39.2945L38.8741 38.6687L38.8759 39.4892L39.6024 38.8395L40.3289 39.4892L40.3307 38.6687L41.1585 39.2945V26.949L40.3307 27.5748L40.3289 26.7544Z" fill="#1E9A1C"/>
<path d="M46.758 29.7209L46.756 29.0374L45.9975 29.5868L45.9718 29.5682L45.2388 29.0374L45.2368 29.7209L44.4413 29.145V37.0986L45.2368 36.5227L45.2388 37.2062L45.9975 36.6568L46.756 37.2062L46.758 36.5227L47.5535 37.0986V33.8045H48.4859V32.4391H47.5535V29.145L46.758 29.7209Z" fill="#1E9A1C"/>
<path d="M27.3252 27.9221L28.0006 28.529L28.6761 27.9221L28.6781 28.6388L29.5566 28.0804V38.1629L28.6781 37.6047L28.6761 38.3212L28.0006 37.7145L27.3252 38.3212L27.3232 37.6047L26.4446 38.1629V28.0804L27.3232 28.6388L27.3252 27.9221Z" fill="#FDD406"/>
<path d="M33.9501 26.7653L32.8399 25.7534V40.4899L33.9501 39.4779V40.7042L35.3999 39.7721H35.4001L36.8498 40.7042V39.4779L37.9601 40.4899V25.7534L36.8498 26.7653V25.5391L35.4001 26.4711H35.3999L33.9501 25.5391V26.7653Z" fill="#FDD406"/>
<path d="M43.4753 27.9221L42.7998 28.529L42.1242 27.9221L42.1224 28.6388L41.2438 28.0804V38.1629L42.1224 37.6047L42.1242 38.3212L42.7998 37.7145L43.4753 38.3212L43.4773 37.6047L44.3558 38.1629V28.0804L43.4773 28.6388L43.4753 27.9221Z" fill="#FDD406"/>
<path d="M24.4582 31.6732C24.5552 31.7712 24.6713 31.8207 24.803 31.8207C24.9347 31.8207 25.0507 31.7712 25.1479 31.6732C25.4516 31.3672 25.4618 30.8138 25.4588 30.4155C25.4588 30.4155 25.1077 30.7866 25.0444 30.8535C25.0002 30.7772 24.803 30.4368 24.803 30.4368C24.803 30.4368 24.6059 30.7772 24.5616 30.8535C24.4982 30.7866 24.1471 30.4155 24.1471 30.4155C24.1441 30.8138 24.1544 31.3672 24.4582 31.6732Z" fill="black"/>
<path d="M27.7939 30.816L27.5381 30.5604V30.0511L26.9506 30.5956L28.0008 31.6459L29.051 30.5956L28.4635 30.0511V30.5604L28.2078 30.816V29.9137L28.6608 29.5248L28.0008 28.958L27.3408 29.5248L27.7939 29.9137V30.816Z" fill="black"/>
<path d="M30.9913 29.804L30.7356 29.5483V29.039L30.1481 29.5836L31.1983 30.6338L32.2486 29.5836L31.661 29.039V29.5483L31.4052 29.804V28.9016L31.8583 28.5127L31.1983 27.946L30.5383 28.5127L30.9913 28.9016V29.804Z" fill="black"/>
<path d="M24.8033 30.6079C24.8558 30.6984 25.028 30.9959 25.028 30.9959C25.028 30.9959 25.2706 30.7393 25.3697 30.6348C25.3579 31.0846 25.2591 31.4399 25.0874 31.6128C25.0069 31.6939 24.9113 31.7351 24.8033 31.7351C24.6952 31.7351 24.5997 31.6939 24.5193 31.6129C24.3476 31.4399 24.2488 31.0846 24.2369 30.6348C24.3359 30.7394 24.5786 30.9959 24.5786 30.9959C24.6535 30.8665 24.7285 30.7372 24.8033 30.6079Z" fill="white"/>
<path d="M31.3196 28.8624V30.011L31.7468 29.5839V29.2354L32.125 29.5861L31.1984 30.5127L30.2716 29.5861L30.6498 29.2354V29.5839L31.077 30.011V28.8624L30.6699 28.5128L31.1984 28.0591L31.7267 28.5128L31.3196 28.8624Z" fill="white"/>
<path d="M28.1219 29.8743V31.023L28.5491 30.5958V30.2474L28.9274 30.5979L28.0006 31.5247L27.074 30.5979L27.4522 30.2474V30.5958L27.8794 31.023V29.8743L27.4723 29.5248L28.0006 29.071L28.5291 29.5248L28.1219 29.8743Z" fill="#D91C16"/>
<path d="M46.342 31.673C46.2449 31.7709 46.1289 31.8205 45.9971 31.8205C45.8655 31.8205 45.7494 31.7709 45.6522 31.673C45.3485 31.367 45.3383 30.8136 45.3413 30.4153C45.3413 30.4153 45.6924 30.7863 45.7558 30.8533C45.8 30.777 45.9971 30.4365 45.9971 30.4365C45.9971 30.4365 46.1943 30.777 46.2386 30.8533C46.3019 30.7863 46.653 30.4153 46.653 30.4153C46.656 30.8136 46.6457 31.367 46.342 31.673Z" fill="black"/>
<path d="M43.0064 30.8157L43.2622 30.5601V30.0508L43.8497 30.5954L42.7995 31.6456L41.7493 30.5954L42.3368 30.0508V30.5601L42.5925 30.8157V29.9134L42.1395 29.5245L42.7995 28.9578L43.4595 29.5245L43.0064 29.9134V30.8157Z" fill="black"/>
<path d="M39.809 29.8038L40.0647 29.548V29.0388L40.6522 29.5833L39.602 30.6336L38.5517 29.5833L39.1393 29.0388V29.548L39.3951 29.8038V28.9014L38.942 28.5124L39.602 27.9458L40.262 28.5124L39.809 28.9014V29.8038Z" fill="black"/>
<path d="M45.997 30.6077C45.9446 30.6981 45.7724 30.9956 45.7724 30.9956C45.7724 30.9956 45.5297 30.7391 45.4306 30.6345C45.4425 31.0843 45.5413 31.4396 45.713 31.6125C45.7935 31.6937 45.889 31.7348 45.997 31.7348C46.1051 31.7348 46.2007 31.6937 46.2811 31.6127C46.4528 31.4396 46.5515 31.0843 46.5634 30.6345C46.4644 30.7392 46.2218 30.9956 46.2218 30.9956C46.1469 30.8663 46.0719 30.7369 45.997 30.6077Z" fill="white"/>
<path d="M39.4806 28.8621V30.0108L39.0534 29.5837V29.2352L38.6752 29.5858L39.6018 30.5125L40.5286 29.5858L40.1503 29.2352V29.5837L39.7231 30.0108V28.8621L40.1303 28.5126L39.6018 28.0588L39.0734 28.5126L39.4806 28.8621Z" fill="white"/>
<path d="M42.6782 29.8741V31.0227L42.251 30.5955V30.2472L41.8727 30.5977L42.7995 31.5244L43.7261 30.5977L43.3479 30.2472V30.5955L42.9207 31.0227V29.8741L43.3279 29.5245L42.7995 29.0708L42.271 29.5245L42.6782 29.8741Z" fill="#D91C16"/>
<path d="M36.6569 30.1873L36.3129 29.7119L37.1951 28.8974L36.3725 28.2216V28.7004L36.0285 28.9947V28.1263L36.8056 27.5535L35.3998 26.5173L33.994 27.5535L34.7713 28.1263V28.9947L34.4272 28.7004V28.2216L33.6045 28.8974L34.4869 29.7119L34.1428 30.1873H36.6569Z" fill="black"/>
<path d="M34.3111 30.1017L34.6013 29.7006L33.7355 28.9014L34.3418 28.4031V28.74L34.8574 29.1811V28.0831L34.1389 27.5537L35.4002 26.624L36.6616 27.5537L35.9432 28.0831V29.1811L36.4586 28.74V28.4031L37.0651 28.9014L36.1993 29.7006L36.4896 30.1017H34.3111Z" fill="#D91C16"/>
<path d="M34.7576 27.5536L35.3999 28.027L36.0424 27.5536L35.3999 27.0801L35.3745 27.0989L34.7576 27.5536Z" fill="black"/>
<path d="M35.4001 27.1868C35.4426 27.218 35.823 27.4984 35.8981 27.5537C35.823 27.609 35.4426 27.8895 35.4001 27.9207C35.3577 27.8895 34.9772 27.609 34.9022 27.5537C34.9772 27.4984 35.3577 27.218 35.4001 27.1868Z" fill="#1E9A1C"/>
<path d="M24.4582 34.5699C24.5552 34.472 24.6713 34.4224 24.803 34.4224C24.9347 34.4224 25.0507 34.472 25.1479 34.5699C25.4516 34.8759 25.4618 35.4294 25.4588 35.8276C25.4588 35.8276 25.1077 35.4566 25.0444 35.3896C25.0002 35.466 24.803 35.8064 24.803 35.8064C24.803 35.8064 24.6059 35.466 24.5616 35.3896C24.4982 35.4566 24.1471 35.8276 24.1471 35.8276C24.1441 35.4294 24.1544 34.8759 24.4582 34.5699Z" fill="black"/>
<path d="M27.7939 35.4272L27.5381 35.6828V36.1921L26.9506 35.6475L28.0008 34.5973L29.051 35.6475L28.4635 36.1921V35.6828L28.2078 35.4272V36.3295L28.6608 36.7184L28.0008 37.2852L27.3408 36.7184L27.7939 36.3295V35.4272Z" fill="black"/>
<path d="M30.9913 36.4392L30.7356 36.6949V37.2042L30.1481 36.6596L31.1983 35.6094L32.2486 36.6596L31.661 37.2042V36.6949L31.4052 36.4392V37.3416L31.8583 37.7305L31.1983 38.2971L30.5383 37.7305L30.9913 37.3416V36.4392Z" fill="black"/>
<path d="M24.8033 35.6353C24.8558 35.5448 25.028 35.2473 25.028 35.2473C25.028 35.2473 25.2706 35.5039 25.3697 35.6084C25.3579 35.1586 25.2591 34.8033 25.0874 34.6304C25.0069 34.5493 24.9113 34.5081 24.8033 34.5081C24.6952 34.5081 24.5997 34.5493 24.5193 34.6303C24.3476 34.8033 24.2488 35.1586 24.2369 35.6084C24.3359 35.5037 24.5786 35.2473 24.5786 35.2473C24.6535 35.3767 24.7285 35.506 24.8033 35.6353Z" fill="white"/>
<path d="M31.3196 37.3808V36.2322L31.7468 36.6592V37.0077L32.125 36.6571L31.1984 35.7304L30.2716 36.6571L30.6498 37.0077V36.6592L31.077 36.2322V37.3808L30.6699 37.7304L31.1984 38.1841L31.7267 37.7304L31.3196 37.3808Z" fill="white"/>
<path d="M28.1219 36.3688V35.2202L28.5491 35.6474V35.9958L28.9274 35.6452L28.0006 34.7185L27.074 35.6452L27.4522 35.9958V35.6474L27.8794 35.2202V36.3688L27.4723 36.7184L28.0006 37.1721L28.5291 36.7184L28.1219 36.3688Z" fill="#D91C16"/>
<path d="M46.342 34.5702C46.2449 34.4722 46.1289 34.4227 45.9971 34.4227C45.8655 34.4227 45.7494 34.4722 45.6522 34.5702C45.3485 34.8762 45.3383 35.4296 45.3413 35.8279C45.3413 35.8279 45.6924 35.4568 45.7558 35.3899C45.8 35.4662 45.9971 35.8066 45.9971 35.8066C45.9971 35.8066 46.1943 35.4662 46.2386 35.3899C46.3019 35.4568 46.653 35.8279 46.653 35.8279C46.656 35.4296 46.6457 34.8762 46.342 34.5702Z" fill="black"/>
<path d="M43.0064 35.4274L43.2622 35.683V36.1923L43.8497 35.6478L42.7995 34.5975L41.7493 35.6478L42.3368 36.1923V35.683L42.5925 35.4274V36.3297L42.1395 36.7186L42.7995 37.2854L43.4595 36.7186L43.0064 36.3297V35.4274Z" fill="black"/>
<path d="M39.809 36.4394L40.0647 36.6951V37.2044L40.6522 36.6598L39.602 35.6096L38.5517 36.6598L39.1393 37.2044V36.6951L39.3951 36.4394V37.3418L38.942 37.7307L39.602 38.2974L40.262 37.7307L39.809 37.3418V36.4394Z" fill="black"/>
<path d="M45.997 35.6355C45.9446 35.545 45.7724 35.2475 45.7724 35.2475C45.7724 35.2475 45.5297 35.5041 45.4306 35.6086C45.4425 35.1589 45.5413 34.8035 45.713 34.6306C45.7935 34.5495 45.889 34.5083 45.997 34.5083C46.1051 34.5083 46.2007 34.5495 46.2811 34.6305C46.4528 34.8035 46.5515 35.1589 46.5634 35.6086C46.4644 35.504 46.2218 35.2475 46.2218 35.2475C46.1469 35.3769 46.0719 35.5063 45.997 35.6355Z" fill="white"/>
<path d="M39.4806 37.381V36.2324L39.0534 36.6595V37.008L38.6752 36.6573L39.6018 35.7307L40.5286 36.6573L40.1503 37.008V36.6595L39.7231 36.2324V37.381L40.1303 37.7306L39.6018 38.1843L39.0734 37.7306L39.4806 37.381Z" fill="white"/>
<path d="M42.6782 36.3691V35.2204L42.251 35.6476V35.996L41.8727 35.6455L42.7995 34.7187L43.7261 35.6455L43.3479 35.996V35.6476L42.9207 35.2204V36.3691L43.3279 36.7186L42.7995 37.1724L42.271 36.7186L42.6782 36.3691Z" fill="#D91C16"/>
<path d="M36.6569 36.0559L36.3129 36.5313L37.1951 37.3458L36.3725 38.0216V37.5428L36.0285 37.2484V38.1169L36.8056 38.6896L35.3998 39.7258L33.994 38.6896L34.7713 38.1169V37.2484L34.4272 37.5428V38.0216L33.6045 37.3458L34.4869 36.5313L34.1428 36.0559H36.6569Z" fill="black"/>
<path d="M34.3111 36.1414L34.6013 36.5426L33.7355 37.3418L34.3418 37.84V37.5032L34.8574 37.0621V38.1601L34.1389 38.6895L35.4002 39.6191L36.6616 38.6895L35.9432 38.1601V37.0621L36.4586 37.5032V37.84L37.0651 37.3418L36.1993 36.5426L36.4896 36.1414H34.3111Z" fill="#D91C16"/>
<path d="M34.7576 38.6896L35.3999 38.2162L36.0424 38.6896L35.3999 39.1631L35.3745 39.1442L34.7576 38.6896Z" fill="black"/>
<path d="M35.4001 39.0564C35.4426 39.0252 35.823 38.7448 35.8981 38.6894C35.823 38.6341 35.4426 38.3537 35.4001 38.3225C35.3577 38.3537 34.9772 38.6341 34.9022 38.6894C34.9772 38.7448 35.3577 39.0252 35.4001 39.0564Z" fill="#1E9A1C"/>
<path d="M46.7812 32.63H45.3737V32.069H41.0716L38.0767 30.1018H38.064H32.7238L29.7291 32.069H25.4268V32.63H24.0193V33.6135H25.4268V34.1745H29.7291L32.7238 36.1418H38.0767L41.0716 34.1745H45.3737V33.6135H46.7812V32.63Z" fill="black"/>
<path d="M32.7491 30.1904L29.7512 32.1502H25.5139V32.7116H24.105V33.5273H25.5139V34.0887H29.7512L32.7491 36.0591H38.0563L41.0436 34.0887H45.2914V33.5273H46.7003V32.7116H45.2914V32.1502H41.0436L38.0563 30.1904H32.7491ZM32.8127 30.4764H37.9822L40.7258 32.2773V32.5527H43.7872V33.6968H40.7258V33.9722L37.9822 35.7625H32.8127L30.0796 33.9722V33.6968H27.0076V32.5527H30.0796V32.2773L32.8127 30.4764Z" fill="#D91C16"/>
<path d="M37.9605 30.5652L40.6362 32.3219V32.6336H43.7026V33.6097H40.6362V33.9216L37.9605 35.6783H32.8396L30.1638 33.9216V33.6097H27.0975V32.6336H30.1638V32.3219L32.8396 30.5652H37.9605Z" fill="#D91C16"/>
<path d="M31.511 34.1195L32.6696 34.9893L33.4317 34.417L32.9887 34.0844L32.6696 34.324L32.3972 34.1195L36.7603 30.8438H35.8742L31.511 34.1195ZM34.04 35.3997H34.9261L39.2893 32.1239L38.1308 31.2543L37.3686 31.8264L37.8116 32.1589L38.1308 31.9193L38.4032 32.1239L34.04 35.3997ZM35.8742 35.3997H36.7601L32.3972 32.1239L32.6696 31.9193L32.9887 32.1589L33.4317 31.8264L32.6696 31.2543L31.511 32.1239L35.8742 35.3997ZM38.4032 34.1195L38.1308 34.324L37.8116 34.0844L37.3685 34.417L38.1308 34.9893L39.2893 34.1195L34.9261 30.8438H34.04L38.4032 34.1195Z" fill="black"/>
<path d="M30.6336 33.1217L31.4123 33.6389L32.191 33.1217L31.4123 32.6045L30.6336 33.1217Z" fill="black"/>
<path d="M34.6216 33.1217L35.4003 33.6389L36.1789 33.1217L35.4003 32.6045L34.6216 33.1217Z" fill="black"/>
<path d="M40.1673 33.1217L39.3887 33.6389L38.61 33.1217L39.3887 32.6045L40.1673 33.1217Z" fill="black"/>
<path d="M39.1466 34.1194L38.1309 34.882L37.5114 34.4169L37.8117 34.1914L38.1309 34.431L38.546 34.1194L34.2971 30.9294H34.8977L39.1466 34.1194ZM36.5034 35.3138H35.9029L31.6539 32.1238L32.6697 31.3612L33.2891 31.8263L32.9888 32.0517L32.6697 31.812L32.2545 32.1238L36.5034 35.3138ZM34.8977 35.3138H34.2971L38.546 32.1238L38.1309 31.812L37.8117 32.0517L37.5114 31.8263L38.1309 31.3612L39.1466 32.1238L34.8977 35.3138ZM35.9029 30.9294H36.5034L32.2545 34.1194L32.6697 34.431L32.9888 34.1914L33.2891 34.4169L32.6697 34.882L31.6539 34.1194L35.9029 30.9294Z" fill="#FDD406"/>
<path d="M31.4122 32.7075L32.036 33.1218L31.4122 33.536L30.7885 33.1218L31.4122 32.7075Z" fill="#1E9A1C"/>
<path d="M35.4004 32.7075L36.0242 33.1218L35.4004 33.536L34.7768 33.1218L35.4004 32.7075Z" fill="#1E9A1C"/>
<path d="M39.3888 32.7075L38.765 33.1218L39.3888 33.536L40.0124 33.1218L39.3888 32.7075Z" fill="#1E9A1C"/>
<path d="M21.7034 54.8301L21.3979 55.2622L21.9456 55.681L21.3978 56.0999L21.7033 56.532L22.3396 56.6059L22.9558 56.1298L24.4922 57.1057V56.2953L23.5252 55.681L24.4922 55.0668V54.2563L22.9558 55.2323L22.3396 54.7563L21.7034 54.8301Z" fill="black"/>
<path d="M21.7034 52.0146L21.3979 52.4469L21.9456 52.8657L21.3978 53.2845L21.7033 53.7167L22.3396 53.7905L22.9558 53.3144L24.4922 54.2904V53.4798L23.5252 52.8657L24.4922 52.2514V51.4409L22.9558 52.4169L22.3396 51.9408L21.7034 52.0146Z" fill="black"/>
<path d="M21.7034 59.3477L21.3979 58.9156L21.9456 58.4968L21.3978 58.0779L21.7033 57.6457L22.3396 57.5719L22.9558 58.048L24.4922 57.072V57.8825L23.5252 58.4968L24.4922 59.1109V59.9214L22.9558 58.9455L22.3396 59.4216L21.7034 59.3477Z" fill="black"/>
<path d="M49.0971 54.8301L49.4027 55.2622L48.855 55.681L49.4027 56.0999L49.0971 56.532L48.4609 56.6059L47.8447 56.1298L46.3082 57.1057V56.2953L47.2753 55.681L46.3082 55.0668V54.2563L47.8447 55.2323L48.4609 54.7563L49.0971 54.8301Z" fill="black"/>
<path d="M49.0971 52.0146L49.4027 52.4469L48.855 52.8657L49.4027 53.2845L49.0971 53.7167L48.4609 53.7905L47.8447 53.3144L46.3082 54.2904V53.4798L47.2753 52.8657L46.3082 52.2514V51.4409L47.8447 52.4169L48.4609 51.9408L49.0971 52.0146Z" fill="black"/>
<path d="M49.0971 59.3477L49.4027 58.9156L48.855 58.4968L49.4027 58.0779L49.0971 57.6457L48.4609 57.5719L47.8447 58.048L46.3082 57.072V57.8825L47.2753 58.4968L46.3082 59.1109V59.9214L47.8447 58.9455L48.4609 59.4216L49.0971 59.3477Z" fill="black"/>
<path d="M42.9462 47.146V48.3172H43.798V48.8348H44.6349V47.8923H43.8885V47.146H42.9462Z" fill="black"/>
<path d="M45.4572 48.9929V50.164H46.3083V50.6817H47.146V49.7392H46.3997V48.9929H45.4572Z" fill="black"/>
<path d="M27.8544 47.146V48.3172H27.0023V48.8348H26.1656V47.8923H26.9119V47.146H27.8544Z" fill="black"/>
<path d="M42.9462 64.2166V63.0454H43.798V62.5278H44.6349V63.4702H43.8885V64.2166H42.9462Z" fill="black"/>
<path d="M27.8544 64.2166V63.0454H27.0023V62.5278H26.1656V63.4702H26.9119V64.2166H27.8544Z" fill="black"/>
<path d="M45.4572 62.3697V61.1986H46.3083V60.6809H47.146V61.6233H46.3997V62.3697H45.4572Z" fill="black"/>
<path d="M25.3434 48.9929V50.164H24.4921V50.6817H23.6547V49.7392H24.4009V48.9929H25.3434Z" fill="black"/>
<path d="M25.3434 62.3697V61.1986H24.4921V60.6809H23.6547V61.6233H24.4009V62.3697H25.3434Z" fill="black"/>
<path d="M38.5512 47.1187C38.4968 47.0659 37.901 46.4875 37.901 46.4875L37.2624 47.0793C37.2624 47.0793 37.7628 47.5649 37.8191 47.6196L37.1005 48.3172H38.1673L38.5512 47.9445L38.9351 48.3172H40.0018L39.2832 47.6196C39.3395 47.5649 39.8398 47.0793 39.8398 47.0793L39.2012 46.4875C38.9843 46.6977 38.7678 46.9083 38.5512 47.1187Z" fill="black"/>
<path d="M35.4002 47.1187C35.346 47.0659 34.7502 46.4875 34.7502 46.4875L34.1115 47.0793C34.1115 47.0793 34.6118 47.5649 34.6682 47.6196L33.9496 48.3172H35.0163L35.4002 47.9445L35.7841 48.3172H36.8508L36.1323 47.6196C36.1886 47.5649 36.6889 47.0793 36.6889 47.0793L36.0504 46.4875C35.8334 46.6977 35.6169 46.9083 35.4002 47.1187Z" fill="black"/>
<path d="M32.2494 47.1187C32.3037 47.0659 32.8995 46.4875 32.8995 46.4875L33.5382 47.0793C33.5382 47.0793 33.0378 47.5649 32.9815 47.6196L33.7001 48.3172H32.6333L32.2494 47.9445L31.8655 48.3172H30.7988L31.5174 47.6196C31.4611 47.5649 30.9607 47.0793 30.9607 47.0793L31.5993 46.4875C31.8163 46.6977 32.0328 46.9083 32.2494 47.1187Z" fill="black"/>
<path d="M38.5512 64.2438C38.4968 64.2965 37.901 64.8749 37.901 64.8749L37.2624 64.2832C37.2624 64.2832 37.7628 63.7977 37.8191 63.743L37.1005 63.0454H38.1673L38.5512 63.4181L38.9351 63.0454H40.0018L39.2832 63.743C39.3395 63.7977 39.8398 64.2832 39.8398 64.2832L39.2012 64.8749C38.9843 64.6648 38.7678 64.4542 38.5512 64.2438Z" fill="black"/>
<path d="M35.4002 64.2438C35.346 64.2965 34.7502 64.8749 34.7502 64.8749L34.1115 64.2832C34.1115 64.2832 34.6118 63.7977 34.6682 63.743L33.9496 63.0454H35.0163L35.4002 63.4181L35.7841 63.0454H36.8508L36.1323 63.743C36.1886 63.7977 36.6889 64.2832 36.6889 64.2832L36.0504 64.8749C35.8334 64.6648 35.6169 64.4542 35.4002 64.2438Z" fill="black"/>
<path d="M32.2494 64.2438C32.3037 64.2965 32.8995 64.8749 32.8995 64.8749L33.5382 64.2832C33.5382 64.2832 33.0378 63.7977 32.9815 63.743L33.7001 63.0454H32.6333L32.2494 63.4181L31.8655 63.0454H30.7988L31.5174 63.743C31.4611 63.7977 30.9607 64.2832 30.9607 64.2832L31.5993 64.8749C31.8163 64.6648 32.0328 64.4542 32.2494 64.2438Z" fill="black"/>
<path d="M24.4065 56.3424V56.9498L22.9509 56.0252L22.3148 56.5168L21.7511 56.4514L21.5154 56.1179L22.0866 55.6811L21.5154 55.2443L21.7512 54.9108L22.3148 54.8454L22.9509 55.337L24.4065 54.4124V55.0197L23.3652 55.6811L24.4065 56.3424Z" fill="#1E9A1C"/>
<path d="M24.4065 53.5269V54.1343L22.9509 53.2097L22.3148 53.7012L21.7511 53.6358L21.5154 53.3024L22.0866 52.8656L21.5154 52.4289L21.7512 52.0954L22.3148 52.0299L22.9509 52.5214L24.4065 51.5969V52.2042L23.3652 52.8656L24.4065 53.5269Z" fill="#1E9A1C"/>
<path d="M24.4065 57.8356V57.2283L22.9509 58.1529L22.3148 57.6612L21.7511 57.7266L21.5154 58.0601L22.0866 58.4969L21.5154 58.9337L21.7512 59.2672L22.3148 59.3326L22.9509 58.8411L24.4065 59.7657V59.1584L23.3652 58.4969L24.4065 57.8356Z" fill="#1E9A1C"/>
<path d="M46.3941 56.3424V56.9498L47.8497 56.0252L48.4857 56.5168L49.0493 56.4514L49.285 56.1179L48.7138 55.6811L49.285 55.2443L49.0493 54.9108L48.4857 54.8454L47.8497 55.337L46.3941 54.4124V55.0197L47.4352 55.6811L46.3941 56.3424Z" fill="#1E9A1C"/>
<path d="M46.3941 53.5269V54.1343L47.8497 53.2097L48.4857 53.7012L49.0493 53.6358L49.285 53.3024L48.7138 52.8656L49.285 52.4289L49.0493 52.0954L48.4857 52.0299L47.8497 52.5214L46.3941 51.5969V52.2042L47.4352 52.8656L46.3941 53.5269Z" fill="#1E9A1C"/>
<path d="M46.3941 57.8356V57.2283L47.8497 58.1529L48.4857 57.6612L49.0493 57.7266L49.285 58.0601L48.7138 58.4969L49.285 58.9337L49.0493 59.2672L48.4857 59.3326L47.8497 58.8411L46.3941 59.7657V59.1584L47.4352 58.4969L46.3941 57.8356Z" fill="#1E9A1C"/>
<path d="M43.8029 47.2317V47.9781H44.5491V48.7491H43.8839V48.2315H43.0319V47.2317H43.8029Z" fill="#1E9A1C"/>
<path d="M46.3139 49.0786V49.8249H47.0602V50.596H46.3948V50.0785H45.5429V49.0786H46.3139Z" fill="#1E9A1C"/>
<path d="M26.9979 47.2317V47.9781H26.2516V48.7491H26.917V48.2315H27.7689V47.2317H26.9979Z" fill="#1E9A1C"/>
<path d="M43.8029 64.1306V63.3843H44.5491V62.6133H43.8839V63.1308H43.0319V64.1306H43.8029Z" fill="#1E9A1C"/>
<path d="M26.9977 64.1306V63.3843H26.2513V62.6133H26.9167V63.1308H27.7687V64.1306H26.9977Z" fill="#1E9A1C"/>
<path d="M46.3139 62.2836V61.5374H47.0602V60.7664H46.3948V61.2839H45.5429V62.2836H46.3139Z" fill="#1E9A1C"/>
<path d="M24.4867 49.0786V49.8249H23.7404V50.596H24.4058V50.0785H25.2577V49.0786H24.4867Z" fill="#1E9A1C"/>
<path d="M24.4869 62.2836V61.5374H23.7405V60.7664H24.4059V61.2839H25.2579V62.2836H24.4869Z" fill="#1E9A1C"/>
<path d="M37.8999 46.6057C37.9531 46.6573 38.5514 47.2381 38.5514 47.2381C38.5514 47.2381 39.1496 46.6573 39.2027 46.6057C39.2531 46.6523 39.6598 47.0291 39.7155 47.0807C39.6579 47.1365 39.1603 47.6196 39.1603 47.6196L39.7905 48.2315H38.9701L38.5514 47.8249L38.1326 48.2315H37.3121L37.9424 47.6196C37.9424 47.6196 37.4447 47.1365 37.3871 47.0807C37.4428 47.0291 37.8495 46.6523 37.8999 46.6057Z" fill="#1E9A1C"/>
<path d="M34.7489 46.6057C34.802 46.6573 35.4003 47.2381 35.4003 47.2381C35.4003 47.2381 35.9985 46.6573 36.0517 46.6057C36.1021 46.6523 36.5087 47.0291 36.5644 47.0807C36.5069 47.1365 36.0092 47.6196 36.0092 47.6196L36.6395 48.2315H35.8189L35.4003 47.8249L34.9816 48.2315H34.161L34.7913 47.6196C34.7913 47.6196 34.2936 47.1365 34.2361 47.0807C34.2918 47.0291 34.6985 46.6523 34.7489 46.6057Z" fill="#1E9A1C"/>
<path d="M32.9012 46.6057C32.8479 46.6573 32.2497 47.2381 32.2497 47.2381C32.2497 47.2381 31.6515 46.6573 31.5984 46.6057C31.548 46.6523 31.1413 47.0291 31.0856 47.0807C31.1432 47.1365 31.6409 47.6196 31.6409 47.6196L31.0106 48.2315H31.8311L32.2497 47.8249L32.6685 48.2315H33.489L32.8587 47.6196C32.8587 47.6196 33.3564 47.1365 33.414 47.0807C33.3583 47.0291 32.9516 46.6523 32.9012 46.6057Z" fill="#1E9A1C"/>
<path d="M37.8999 64.7566C37.9531 64.7049 38.5514 64.1241 38.5514 64.1241C38.5514 64.1241 39.1496 64.7049 39.2027 64.7566C39.2531 64.7099 39.6598 64.3331 39.7155 64.2817C39.6579 64.2257 39.1603 63.7427 39.1603 63.7427L39.7905 63.1309H38.9701L38.5514 63.5373L38.1326 63.1309H37.3121L37.9424 63.7427C37.9424 63.7427 37.4447 64.2257 37.3871 64.2817C37.4428 64.3331 37.8495 64.7099 37.8999 64.7566Z" fill="#1E9A1C"/>
<path d="M34.7489 64.7566C34.802 64.7049 35.4003 64.1241 35.4003 64.1241C35.4003 64.1241 35.9985 64.7049 36.0517 64.7566C36.1021 64.7099 36.5087 64.3331 36.5644 64.2817C36.5069 64.2257 36.0092 63.7427 36.0092 63.7427L36.6395 63.1309H35.8189L35.4003 63.5373L34.9816 63.1309H34.161L34.7913 63.7427C34.7913 63.7427 34.2936 64.2257 34.2361 64.2817C34.2918 64.3331 34.6985 64.7099 34.7489 64.7566Z" fill="#1E9A1C"/>
<path d="M32.9012 64.7566C32.8479 64.7049 32.2497 64.1241 32.2497 64.1241C32.2497 64.1241 31.6515 64.7049 31.5984 64.7566C31.548 64.7099 31.1413 64.3331 31.0856 64.2817C31.1432 64.2257 31.6409 63.7427 31.6409 63.7427L31.0106 63.1309H31.8311L32.2497 63.5373L32.6685 63.1309H33.489L32.8587 63.7427C32.8587 63.7427 33.3564 64.2257 33.414 64.2817C33.3583 64.3331 32.9516 64.7099 32.9012 64.7566Z" fill="#1E9A1C"/>
<path d="M26.9167 61.2841V63.1309H43.8839V61.2841H46.394V50.0782H43.8839V48.2314H26.9167V50.0782H24.4066V61.2841H26.9167Z" fill="black"/>
<path d="M27.0075 48.3155V50.1589H24.4969V61.1969H27.0075V63.0403H43.7976V61.1969H46.3084V50.1588H43.7976V48.3154L27.0075 48.3155ZM28.088 49.0254H42.7173V50.805L43.321 51.2501H45.5987V60.1165H43.3105L42.7173 60.5508V62.341H28.088V60.5613L27.4842 60.1165H25.196V51.2501H27.4736L28.088 50.805L28.088 49.0254Z" fill="#FDD406"/>
<path d="M28.1727 49.1101V50.7416L30.3761 49.1101H28.1727ZM40.4183 49.1101L42.6217 50.7416V49.1101H40.4183ZM25.2914 51.3349V52.8603L27.3677 51.3349H25.2914ZM43.4271 51.3349L45.5139 52.8708V51.3349H43.4271ZM45.5139 58.485L43.4271 60.0318H45.5139V58.485ZM25.2913 58.4955V60.0318H27.3676L25.2913 58.4955ZM28.1727 60.625V62.2457H30.3655L28.1727 60.625ZM42.6217 60.625L40.4291 62.2457H42.6217V60.625Z" fill="#D91C16"/>
<path d="M40.276 49.1118C40.2986 49.1284 45.4791 52.9547 45.5135 52.9801V58.3822C45.4791 58.4077 40.2986 62.2339 40.276 62.2506H30.5241C30.5016 62.2339 25.3211 58.4077 25.2867 58.3822V52.9801C25.3211 52.9547 30.5016 49.1284 30.5241 49.1118H40.276Z" fill="#1E9A1C"/>
<path d="M26.5341 59.0042L25.9319 58.3053L26.4973 57.6493L25.9319 56.9932L26.4973 56.3373L25.9319 55.6813L26.4973 55.0252L25.9319 54.3692L26.4971 53.7131L25.9319 53.0571L26.5341 52.3583H44.2664L44.8685 53.0571L44.3032 53.7131L44.8685 54.3692L44.3032 55.0252L44.8685 55.6813L44.3032 56.3373L44.8685 56.9932L44.3032 57.6493L44.8685 58.3053L44.2664 59.0042H26.5341ZM38.7232 49.9569L38.0243 49.3547L37.3682 49.9201L36.7123 49.3547L36.0562 49.9201L35.4002 49.3547L34.7441 49.9201L34.0881 49.3547L33.4322 49.9201L32.7761 49.3547L32.0773 49.9569V61.4055L32.7761 62.0078L33.4322 61.4425L34.0881 62.0077L34.7441 61.4423L35.4002 62.0077L36.0562 61.4423L36.7123 62.0077L37.3682 61.4425L38.0243 62.0078L38.7232 61.4055V49.9569Z" fill="black"/>
<path d="M37.3252 49.9961L36.7121 49.4678L36.0989 49.9961V61.3661L36.7121 61.8944L37.3252 61.3661V49.9961Z" fill="#FDD406"/>
<path d="M34.7012 49.9961L34.088 49.4678L33.4749 49.9961V61.3661L34.088 61.8944L34.7012 61.3661V49.9961Z" fill="#FDD406"/>
<path d="M26.5732 58.9185L26.045 58.3053L26.5732 57.6921H44.227L44.7553 58.3053L44.227 58.9185H26.5732Z" fill="#FDD406"/>
<path d="M44.227 55.0679L44.7554 55.6811L44.227 56.2942H26.5735L26.0451 55.6811L26.5735 55.0679H44.227Z" fill="#FDD406"/>
<path d="M44.227 53.6704L44.7553 53.0572L44.227 52.4441H26.5732L26.045 53.0572L26.5732 53.6704H44.227Z" fill="#FDD406"/>
<path d="M38.6376 49.9961L38.0245 49.4678L37.4113 49.9961V61.3661L38.0245 61.8944L38.6374 61.3662L38.6376 49.9961Z" fill="#D91C16"/>
<path d="M33.3894 49.9961L32.7762 49.4678L32.163 49.9961V61.3661L32.7762 61.8944L33.3894 61.3661V49.9961Z" fill="#D91C16"/>
<path d="M26.5736 57.6063L26.0452 56.9931L26.5736 56.3799H44.2271L44.7555 56.9931L44.2271 57.6063H26.5736Z" fill="#D91C16"/>
<path d="M26.5736 54.9823L26.0452 54.3691L26.5736 53.7559H44.2271L44.7555 54.3691L44.2271 54.9823H26.5736Z" fill="#D91C16"/>
<path d="M36.0136 61.3661L35.4004 61.8944L34.7872 61.3661V49.9961L35.4004 49.4678L36.0136 49.9961V61.3661Z" fill="#D91C16"/>
<path d="M41.3268 50.218H29.4307V51.1628H27.9105V60.1997H29.4307V61.1444H41.3697V60.1997H42.8899V51.1628H41.3697V50.218H41.3268Z" fill="black"/>
<path d="M29.5182 50.3069V51.2499H27.9927V60.1164H29.5182V61.0591H30.7682L28.2788 58.9723V52.3937L30.7682 50.3069H29.5182ZM40.0374 50.3069L42.5161 52.3937V58.9723L40.0374 61.0591H41.2872V60.1164H42.8022V51.2499H41.2872V50.3069L40.0374 50.3069Z" fill="#D91C16"/>
<path d="M30.9057 50.3069C30.8822 50.3267 28.3935 52.4109 28.3633 52.4361V58.9297C28.3935 58.9551 30.8822 61.0392 30.9057 61.059H39.8993C39.923 61.0392 42.401 58.9549 42.4311 58.9297V52.4361C42.401 52.4109 39.923 50.3267 39.8993 50.3069H30.9057ZM31.0328 50.6671H39.7617L42.071 52.6056V58.7603L39.7617 60.6882H31.0328L28.7341 58.7603V52.6056L31.0328 50.6671Z" fill="#1E9A1C"/>
<path d="M33.3447 58.8577L33.7355 59.0265L33.8073 59.4829L33.3155 59.9156L34.0299 60.6064H33.3425L32.8509 60.1333L32.3593 60.6064H31.6718L32.3864 59.9156L31.8944 59.4829L31.9664 59.0265L32.357 58.8577L32.8509 59.2526L32.8777 59.2312L33.3447 58.8577Z" fill="#1E9A1C"/>
<path d="M35.8943 58.8577L36.2849 59.0265L36.3569 59.4829L35.865 59.9156L36.5795 60.6064H35.892L35.4004 60.1333L34.9089 60.6064H34.2213L34.9359 59.9156L34.444 59.4829L34.516 59.0265L34.9066 58.8577L35.4004 59.2526L35.4271 59.2312L35.8943 58.8577Z" fill="#1E9A1C"/>
<path d="M37.4561 58.8577L37.0655 59.0265L36.9935 59.4829L37.4854 59.9156L36.7709 60.6064H37.4584L37.9501 60.1333L38.4416 60.6064H39.1291L38.4146 59.9156L38.9065 59.4829L38.8345 59.0265L38.4439 58.8577L37.9501 59.2526L37.9232 59.2312L37.4561 58.8577Z" fill="#1E9A1C"/>
<path d="M33.3447 52.5045L33.7355 52.3357L33.8073 51.8794L33.3155 51.4467L34.0299 50.7559H33.3425L32.8509 51.2289L32.3593 50.7559H31.6718L32.3864 51.4467L31.8944 51.8793L31.9664 52.3357L32.357 52.5045L32.8509 52.1097L32.8777 52.1311L33.3447 52.5045Z" fill="#1E9A1C"/>
<path d="M35.8943 52.5045L36.2849 52.3357L36.3569 51.8794L35.865 51.4467L36.5795 50.7559H35.892L35.4004 51.2289L34.9089 50.7559H34.2213L34.9359 51.4467L34.444 51.8793L34.516 52.3357L34.9066 52.5045L35.4004 52.1097L35.4271 52.1311L35.8943 52.5045Z" fill="#1E9A1C"/>
<path d="M37.4561 52.5045L37.0655 52.3357L36.9935 51.8794L37.4854 51.4467L36.7709 50.7559H37.4584L37.9501 51.2289L38.4416 50.7559H39.1291L38.4146 51.4467L38.9065 51.8793L38.8345 52.3357L38.4439 52.5045L37.9501 52.1097L37.9232 52.1311L37.4561 52.5045Z" fill="#1E9A1C"/>
<path d="M41.9811 53.2332L41.5911 53.5561L41.9811 53.8789V54.4142L41.3813 53.92C41.3813 53.92 40.978 54.2854 40.9509 54.31C40.9163 54.3056 40.5278 54.2568 40.4894 54.252C40.4722 54.2204 40.3509 53.9968 40.3268 53.952C40.367 53.9119 40.724 53.5561 40.724 53.5561C40.724 53.5561 40.367 53.2002 40.3268 53.1601C40.3509 53.1154 40.4722 52.8916 40.4894 52.8601C40.5278 52.8553 40.9163 52.8064 40.9509 52.802C40.978 52.8266 41.3813 53.1922 41.3813 53.1922L41.9811 52.698V53.2332Z" fill="#1E9A1C"/>
<path d="M41.9811 55.3582L41.5911 55.6811L41.9811 56.0038V56.5392L41.3813 56.045C41.3813 56.045 40.978 56.4104 40.9509 56.435C40.9163 56.4306 40.5278 56.3817 40.4894 56.377C40.4722 56.3454 40.3509 56.1216 40.3268 56.077C40.367 56.0369 40.724 55.6811 40.724 55.6811C40.724 55.6811 40.367 55.3251 40.3268 55.285C40.3509 55.2404 40.4722 55.0166 40.4894 54.985C40.5278 54.9803 40.9163 54.9314 40.9509 54.927C40.978 54.9516 41.3813 55.317 41.3813 55.317L41.9811 54.823V55.3582Z" fill="#1E9A1C"/>
<path d="M41.9811 58.129L41.5911 57.8061L41.9811 57.4833V56.948L41.3813 57.4423C41.3813 57.4423 40.978 57.0768 40.9509 57.0522C40.9163 57.0565 40.5278 57.1054 40.4894 57.1101C40.4722 57.1417 40.3509 57.3655 40.3268 57.4101C40.367 57.4503 40.724 57.8061 40.724 57.8061C40.724 57.8061 40.367 58.162 40.3268 58.2021C40.3509 58.2468 40.4722 58.4706 40.4894 58.5021C40.5278 58.5069 40.9163 58.5558 40.9509 58.5601C40.978 58.5355 41.3813 58.1701 41.3813 58.1701L41.9811 58.6642V58.129Z" fill="#1E9A1C"/>
<path d="M28.8201 53.2332L29.21 53.5561L28.8201 53.8789V54.4142L29.4199 53.92C29.4199 53.92 29.8232 54.2854 29.8503 54.31C29.8848 54.3056 30.2734 54.2568 30.3118 54.252C30.329 54.2204 30.4502 53.9968 30.4745 53.952C30.4343 53.9119 30.0772 53.5561 30.0772 53.5561C30.0772 53.5561 30.4343 53.2002 30.4745 53.1601C30.4502 53.1154 30.329 52.8916 30.3118 52.8601C30.2734 52.8553 29.8848 52.8064 29.8503 52.802C29.8232 52.8266 29.4199 53.1922 29.4199 53.1922L28.8201 52.698V53.2332Z" fill="#1E9A1C"/>
<path d="M28.8201 55.3582L29.21 55.6811L28.8201 56.0038V56.5392L29.4199 56.045C29.4199 56.045 29.8232 56.4104 29.8503 56.435C29.8848 56.4306 30.2734 56.3817 30.3118 56.377C30.329 56.3454 30.4502 56.1216 30.4745 56.077C30.4343 56.0369 30.0772 55.6811 30.0772 55.6811C30.0772 55.6811 30.4343 55.3251 30.4745 55.285C30.4502 55.2404 30.329 55.0166 30.3118 54.985C30.2734 54.9803 29.8848 54.9314 29.8503 54.927C29.8232 54.9516 29.4199 55.317 29.4199 55.317L28.8201 54.823V55.3582Z" fill="#1E9A1C"/>
<path d="M28.8201 58.129L29.21 57.8061L28.8201 57.4833V56.948L29.4199 57.4423C29.4199 57.4423 29.8232 57.0768 29.8503 57.0522C29.8848 57.0565 30.2734 57.1054 30.3118 57.1101C30.329 57.1417 30.4502 57.3655 30.4745 57.4101C30.4343 57.4503 30.0772 57.8061 30.0772 57.8061C30.0772 57.8061 30.4343 58.162 30.4745 58.2021C30.4502 58.2468 30.329 58.4706 30.3118 58.5021C30.2734 58.5069 29.8848 58.5558 29.8503 58.5601C29.8232 58.5355 29.4199 58.1701 29.4199 58.1701L28.8201 58.6642V58.129Z" fill="#1E9A1C"/>
<path d="M31.0647 50.752C31.0415 50.7714 28.9443 52.5273 28.8507 52.6059C29.0397 52.7625 29.2226 52.9264 29.4121 53.0825C29.4601 53.0392 29.8253 52.7117 29.8253 52.7117L30.3655 52.7859L30.5774 53.1778C30.5774 53.1778 30.2479 53.5076 30.196 53.5592C30.2479 53.6106 30.5774 53.9405 30.5774 53.9405L30.3655 54.3325L29.8253 54.396C29.8253 54.396 29.4601 54.0793 29.4121 54.0359L28.8189 54.5337V54.7032C29.0185 54.8684 29.2118 55.0361 29.4121 55.2011C29.4601 55.1578 29.8253 54.8409 29.8253 54.8409L30.3655 54.9045L30.5774 55.2964C30.5774 55.2964 30.2479 55.6262 30.196 55.6778C30.2479 55.7293 30.5774 56.0592 30.5774 56.0592L30.3655 56.4617L29.8253 56.5253C29.8253 56.5253 29.4601 56.1979 29.4121 56.1545L28.8189 56.6524V56.8325L29.4121 57.3303C29.4601 57.287 29.8253 56.9596 29.8253 56.9596L30.3655 57.0337L30.5774 57.4257C30.5774 57.4257 30.2479 57.7554 30.196 57.807C30.2479 57.8586 30.5774 58.1884 30.5774 58.1884L30.3655 58.5803L29.8253 58.6545C29.8253 58.6545 29.4601 58.3272 29.4121 58.2837C29.2234 58.4392 29.039 58.5945 28.8507 58.7498C28.9443 58.8284 31.0415 60.5842 31.0647 60.6037H31.552L32.2617 59.9151L31.8062 59.5125L31.8909 58.9617L32.3676 58.7604L32.8549 59.1418L33.3316 58.7604L33.8083 58.9617L33.9036 59.5125L33.4375 59.9151L34.1261 60.5719L34.8147 59.9151L34.3486 59.5125L34.4333 58.9617L34.9206 58.7604L35.3973 59.1418L35.8846 58.7604L36.3613 58.9617L36.446 59.5125L35.9905 59.9151L36.6685 60.5825L37.357 59.9151L36.9015 59.5125L36.9863 58.9617L37.4736 58.7604L37.9503 59.1418L38.427 58.7604L38.9142 58.9617L38.999 59.5125L38.5435 59.9151L39.2532 60.6037H39.7299C39.7531 60.5842 41.8502 58.8284 41.9439 58.7498C41.7552 58.5944 41.5715 58.4395 41.3825 58.2837C41.3345 58.3272 40.9799 58.6545 40.9799 58.6545L40.4397 58.5803L40.2172 58.1884C40.2172 58.1884 40.5468 57.8586 40.5986 57.807C40.5468 57.7554 40.2172 57.4257 40.2172 57.4257L40.4397 57.0337L40.9799 56.9596C40.9799 56.9596 41.3345 57.287 41.3825 57.3303L41.9757 56.8325V56.6524L41.3825 56.1545C41.3345 56.1979 40.9799 56.5253 40.9799 56.5253L40.4397 56.4617L40.2172 56.0592C40.2172 56.0592 40.5468 55.7293 40.5986 55.6778C40.5468 55.6262 40.2172 55.2964 40.2172 55.2964L40.4397 54.9045L40.9799 54.8409C40.9799 54.8409 41.3345 55.1578 41.3825 55.2011C41.5814 55.0373 41.7772 54.8771 41.9757 54.7138V54.5231L41.3825 54.0359C41.3345 54.0793 40.9799 54.396 40.9799 54.396L40.4397 54.3325L40.2172 53.9405C40.2172 53.9405 40.5468 53.6106 40.5986 53.5592C40.5468 53.5076 40.2172 53.1778 40.2172 53.1778L40.4397 52.7859L40.9799 52.7117C40.9799 52.7117 41.3345 53.0391 41.3825 53.0825C41.5723 52.9261 41.7647 52.7728 41.9545 52.6164C41.8816 52.5552 39.7532 50.7714 39.7299 50.752H39.2532L38.5435 51.4405L38.999 51.8431L38.9142 52.3939L38.4269 52.6058L37.9503 52.2244L37.4736 52.6058L36.9863 52.3939L36.9015 51.8431L37.357 51.4405L36.6791 50.7837L35.9905 51.4405L36.446 51.8431L36.3613 52.3939L35.8846 52.6058L35.3973 52.2244L34.9206 52.6058L34.4333 52.3939L34.3486 51.8431L34.8147 51.4405L34.1261 50.7837L33.4375 51.4405L33.9036 51.8431L33.8083 52.3939L33.3316 52.6058L32.8549 52.2244L32.3676 52.6058L31.8909 52.3939L31.8062 51.8431L32.2617 51.4405L31.5414 50.752L31.0647 50.752ZM28.8189 55.466V55.9003L29.0732 55.6779L28.8189 55.466Z" fill="#D91C16"/>
<path d="M32.8549 60.2542L32.4841 60.6036H33.2149L32.8549 60.2542Z" fill="white"/>
<path d="M35.3975 60.2542L35.0375 60.6036H35.7683L35.3975 60.2542Z" fill="white"/>
<path d="M37.9501 60.2542L37.5796 60.6036H38.3209L37.9501 60.2542Z" fill="white"/>
<path d="M32.4735 50.7522L32.8549 51.1122L33.2257 50.7522H32.4735Z" fill="white"/>
<path d="M35.0265 50.7522L35.3973 51.1122L35.7787 50.7522H35.0265Z" fill="white"/>
<path d="M37.5797 50.7522L37.9502 51.1122L38.3211 50.7522H37.5797Z" fill="white"/>
<path d="M41.9757 53.3474L41.7215 53.5593L41.9757 53.7606V53.3474Z" fill="white"/>
<path d="M41.9757 55.4661L41.7215 55.6779L41.9757 55.8898V55.4661Z" fill="white"/>
<path d="M41.9757 57.5952L41.7215 57.8071L41.9757 58.0189V57.5952Z" fill="white"/>
<path d="M28.8189 53.3369V53.7712L29.0731 53.5593L28.8189 53.3369Z" fill="white"/>
<path d="M28.8189 55.4661V55.9003L29.0731 55.6779L28.8189 55.4661Z" fill="white"/>
<path d="M28.8189 57.5847V58.019L29.0731 57.8071L28.8189 57.5847Z" fill="white"/>
<path d="M37.581 54.9714V54.2131H36.8136V53.3818H33.9872V54.2131H33.2198V54.9714H32.16V56.391H33.2198V57.1491H33.9872V57.9805H36.8136V57.1491H37.581V56.391H38.6407V54.9714H37.581Z" fill="black"/>
<path d="M35.3574 53.4675V54.3244L34.1425 55.015V55.6383H32.2457V55.057H33.3054V54.2989H34.0728V53.4675H35.3574Z" fill="#FDD406"/>
<path d="M35.4432 57.8949V57.038L36.6579 56.3473V55.7241H38.5549V56.3053H37.4952V57.0636H36.7278V57.8949H35.4432Z" fill="#FDD406"/>
<path d="M36.658 55.6383V55.015L35.4432 54.3244V53.4675H36.7278V54.2989H37.4952V55.057H38.555V55.6383H36.658Z" fill="white"/>
<path d="M32.2458 55.7241H34.1426V56.3473L35.3575 57.038V57.8949H34.0729V57.0636H33.3055V56.3053H32.2458V55.7241Z" fill="white"/>
<path d="M34.2284 55.7241V56.3018L35.3575 56.9438V55.7241H34.2284Z" fill="#D91C16"/>
<path d="M35.3574 54.4187L34.2283 55.0606V55.6383H35.3574V54.4187Z" fill="#1E9A1C"/>
<path d="M36.5724 55.6383V55.0606L35.4433 54.4187V55.6383H36.5724Z" fill="#D91C16"/>
<path d="M35.4432 56.9438L36.5723 56.3018V55.7241H35.4432V56.9438Z" fill="#1E9A1C"/>
<path d="M25.13 70.746V73.0894H22.8969V75.2148H20.6336V81.2665H22.8969V83.392H25.13V85.7353H33.2496L34.6774 86.5933L33.9913 87.0055H31.096L30.8463 86.7239H33.4701L32.7309 85.9795H28.9777L30.6782 87.7499H34.1978L35.4001 87.0275L36.6024 87.7499H40.1222L41.8226 85.9795H38.0695L37.3302 86.7239H39.9541L39.7042 87.0055H36.8089L36.1227 86.5933L37.5507 85.7353H45.6703V83.392H47.9034V81.2665H50.1666V75.2148H47.9034V73.0894H45.6703V70.746H37.5507L36.1227 69.8881L36.8089 69.4758H39.7042L39.9541 69.7574H37.3302L38.0695 70.5018H41.8226L40.1222 68.7314H36.6024L35.4001 69.4538L34.1978 68.7314H30.6782L28.9777 70.5018H32.7309L33.4701 69.7574H30.8463L31.096 69.4758H33.9913L34.6774 69.8881L33.2496 70.746H25.13Z" fill="#D91C16"/>
<path d="M37.5266 85.6461H45.588V83.305H47.8126V81.1758H50.0795V75.2965H47.8126V73.1779H45.588V70.8368H37.5266L34.1791 68.8135H30.7151L29.1791 70.413H32.6961L33.2681 69.841H30.6516L31.0541 69.3855H34.0202L37.8126 71.6737H44.7405V74.0148H46.9757V76.144H49.2427V80.3389H46.9757V82.4682H44.7405V84.8093H37.8126L34.0202 87.0868H31.0541L30.6516 86.6419H33.2681L32.6961 86.0698H29.1791L30.7151 87.6694H34.1791L37.5266 85.6461ZM32.9821 84.8093H26.0541V82.4682H23.8295V80.3389H21.5626V76.144H23.8295V74.0148H26.0541V71.6737H32.9821L36.7851 69.3855H39.7406L40.1431 69.841H37.5372L38.1092 70.4131H41.6262L40.0901 68.8135H36.6261L33.2787 70.8368H25.2173V73.1779H22.9821V75.2965H20.7151V81.1758H22.9821V83.305H25.2173V85.6461H33.2787L36.6261 87.6694H40.0901L41.6262 86.0698H38.1092L37.5372 86.6419H40.1431L39.7406 87.0868H36.7851L32.9821 84.8093Z" fill="#FDD406"/>
<path d="M44.069 81.7908V84.1341H37.629L35.4001 85.4733L33.1712 84.1341H26.7313V81.7908H24.4981V79.6652H22.2349V76.8161H24.4981V74.6905H26.7313V72.3473H33.1594H33.1712L35.4001 71.0081L37.629 72.3473H44.069V74.6905H46.3021V76.8161H48.5653V79.6652H46.3021V81.7908H44.069Z" fill="#1E9A1C"/>
<path d="M27.5745 80.9701V83.2381H31.1145L27.5745 80.8901V80.9701Z" fill="black"/>
<path d="M27.5745 75.5118V73.2437H31.1145L27.5745 75.5916V75.5118Z" fill="black"/>
<path d="M43.2261 80.9701V83.2381H39.6861L43.2261 80.8901V80.9701Z" fill="black"/>
<path d="M43.2261 75.5118V73.2437H39.6861L43.2261 75.5916V75.5118Z" fill="black"/>
<path d="M27.6603 81.0498L30.8303 83.1523H27.6603V81.0498Z" fill="#D91C16"/>
<path d="M27.6603 75.4319C27.7836 75.35 30.6143 73.4725 30.8303 73.3293H27.6603V75.4319Z" fill="#D91C16"/>
<path d="M43.1405 81.0498C43.0171 81.1316 40.1865 83.009 39.9706 83.1523H43.1405V81.0498Z" fill="#D91C16"/>
<path d="M43.1405 75.4321C43.0171 75.3504 40.1865 73.4729 39.9706 73.3296H43.1405V75.4321Z" fill="#D91C16"/>
<path d="M32.0897 77.6189V76.4606H31.6947L29.7994 75.2756L29.7767 75.2899L27.9043 76.4606H27.5092V77.6189H26.6182V78.8628H27.5092V80.0209H27.9043L29.7994 81.2059L31.6947 80.0209H32.0897V78.8628H33.4461V77.6189H32.0897Z" fill="black"/>
<path d="M29.7997 75.377L31.5333 76.4608H28.0663L29.7997 75.377ZM31.5331 80.0211L29.7997 81.1049L28.0664 80.0211H31.5331Z" fill="#D91C16"/>
<path d="M31.1132 77.7046V78.7771H28.9514V77.7046H31.1132Z" fill="#D91C16"/>
<path d="M32.0041 78.8625V79.9351H29.8423V78.8625H32.0041Z" fill="#FDD406"/>
<path d="M29.7569 78.8625V79.9351H27.5951V78.8625H29.7569Z" fill="#FDD406"/>
<path d="M33.3607 77.7046V78.7771H31.1989V77.7046H33.3607Z" fill="#FDD406"/>
<path d="M28.8657 77.7046V78.7771H26.7039V77.7046H28.8657Z" fill="#FDD406"/>
<path d="M32.0041 76.5464V77.6188H29.8423V76.5464H32.0041Z" fill="#FDD406"/>
<path d="M29.7569 76.5464V77.6188H27.5951V76.5464H29.7569Z" fill="#FDD406"/>
<path d="M28.2707 77.9429V78.5388H27.2997V77.9429H28.2707Z" fill="black"/>
<path d="M29.1619 76.7847V77.3806H28.1909V76.7847H29.1619Z" fill="black"/>
<path d="M31.4089 76.7847V77.3806H30.4379V76.7847H31.4089Z" fill="black"/>
<path d="M30.5181 77.9429V78.5388H29.5471V77.9429H30.5181Z" fill="black"/>
<path d="M32.7654 77.9429V78.5388H31.7943V77.9429H32.7654Z" fill="black"/>
<path d="M31.4089 79.1011V79.697H30.4379V79.1011H31.4089Z" fill="black"/>
<path d="M29.1619 79.1011V79.697H28.1909V79.1011H29.1619Z" fill="black"/>
<path d="M28.179 78.0342H27.3908V78.4472H28.179V78.0342Z" fill="white"/>
<path d="M29.0701 76.876H28.282V77.289H29.0701V76.876Z" fill="white"/>
<path d="M31.3174 76.876H30.5292V77.289H31.3174V76.876Z" fill="white"/>
<path d="M30.4263 78.0342H29.6382V78.4472H30.4263V78.0342Z" fill="white"/>
<path d="M32.6739 78.0342H31.8857V78.4472H32.6739V78.0342Z" fill="white"/>
<path d="M31.3174 79.1924H30.5292V79.6054H31.3174V79.1924Z" fill="white"/>
<path d="M29.0701 79.1924H28.282V79.6054H29.0701V79.1924Z" fill="white"/>
<path d="M38.7107 77.6189V76.4606H39.1057L41.001 75.2756L41.0237 75.2899L42.8962 76.4606H43.2912V77.6189H44.1822V78.8628H43.2912V80.0209H42.8962L41.001 81.2059L39.1057 80.0209H38.7107V78.8628H37.3543V77.6189H38.7107Z" fill="black"/>
<path d="M41.0009 75.377L39.2672 76.4608H42.7343L41.0009 75.377ZM39.2675 80.0211L41.0009 81.1049L42.7341 80.0211H39.2675Z" fill="#D91C16"/>
<path d="M39.6874 77.7046V78.7771H41.8492V77.7046H39.6874Z" fill="#D91C16"/>
<path d="M38.7963 78.8625V79.9351H40.9581V78.8625H38.7963Z" fill="#FDD406"/>
<path d="M41.0437 78.8625V79.9351H43.2055V78.8625H41.0437Z" fill="#FDD406"/>
<path d="M37.4399 77.7046V78.7771H39.6017V77.7046H37.4399Z" fill="#FDD406"/>
<path d="M41.9347 77.7046V78.7771H44.0965V77.7046H41.9347Z" fill="#FDD406"/>
<path d="M38.7963 76.5464V77.6188H40.9581V76.5464H38.7963Z" fill="#FDD406"/>
<path d="M41.0437 76.5464V77.6188H43.2055V76.5464H41.0437Z" fill="#FDD406"/>
<path d="M42.5299 77.9429V78.5388H43.5009V77.9429H42.5299Z" fill="black"/>
<path d="M41.6389 76.7847V77.3806H42.6099V76.7847H41.6389Z" fill="black"/>
<path d="M39.3917 76.7847V77.3806H40.3627V76.7847H39.3917Z" fill="black"/>
<path d="M40.2827 77.9429V78.5388H41.2537V77.9429H40.2827Z" fill="black"/>
<path d="M38.0353 77.9429V78.5388H39.0063V77.9429H38.0353Z" fill="black"/>
<path d="M39.3917 79.1011V79.697H40.3627V79.1011H39.3917Z" fill="black"/>
<path d="M41.6389 79.1011V79.697H42.6099V79.1011H41.6389Z" fill="black"/>
<path d="M42.6216 78.0342H43.4098V78.4472H42.6216V78.0342Z" fill="white"/>
<path d="M41.7306 76.876H42.5188V77.289H41.7306V76.876Z" fill="white"/>
<path d="M39.4832 76.876H40.2714V77.289H39.4832V76.876Z" fill="white"/>
<path d="M40.3744 78.0342H41.1625V78.4472H40.3744V78.0342Z" fill="white"/>
<path d="M38.1268 78.0342H38.915V78.4472H38.1268V78.0342Z" fill="white"/>
<path d="M39.4832 79.1924H40.2714V79.6054H39.4832V79.1924Z" fill="white"/>
<path d="M41.7306 79.1924H42.5188V79.6054H41.7306V79.1924Z" fill="white"/>
<path d="M37.6906 75.6841V76.8422H37.2956L35.4003 78.0272L35.3776 78.013L33.5051 76.8422H33.1101V75.6841H31.9864V74.4402H33.1101V73.282H33.5051L35.4003 72.0969L37.2956 73.282H37.6906V74.4402H38.8143V75.6841H37.6906Z" fill="black"/>
<path d="M35.4004 77.9261L37.1339 76.8421H33.667L35.4004 77.9261ZM37.1338 73.282L35.4004 72.198L33.6671 73.282H37.1338Z" fill="#FDD406"/>
<path d="M37.605 74.4401V73.3677H35.4432V74.4401H37.605Z" fill="#D91C16"/>
<path d="M35.3577 74.4401V73.3677H33.1959V74.4401H35.3577Z" fill="#D91C16"/>
<path d="M38.7286 75.5984V74.5259H36.5668V75.5984H38.7286Z" fill="#D91C16"/>
<path d="M36.4811 75.5984V74.5259H34.3193V75.5984H36.4811Z" fill="#D91C16"/>
<path d="M34.2338 75.5984V74.5259H32.0721V75.5984H34.2338Z" fill="#D91C16"/>
<path d="M37.605 76.7564V75.6838H35.4432V76.7564H37.605Z" fill="#D91C16"/>
<path d="M35.3577 76.7566V75.6841H33.1959V76.7566H35.3577Z" fill="#D91C16"/>
<path d="M34.7622 73.606V74.2019H33.7911V73.606H34.7622Z" fill="black"/>
<path d="M37.0096 73.606V74.2019H36.0386V73.606H37.0096Z" fill="black"/>
<path d="M33.6384 74.7642V75.3601H32.6674V74.7642H33.6384Z" fill="black"/>
<path d="M35.886 74.7642V75.3601H34.915V74.7642H35.886Z" fill="black"/>
<path d="M38.1336 74.7642V75.3601H37.1625V74.7642H38.1336Z" fill="black"/>
<path d="M34.7622 75.9224V76.5183H33.7911V75.9224H34.7622Z" fill="black"/>
<path d="M37.0096 75.9224V76.5183H36.0386V75.9224H37.0096Z" fill="black"/>
<path d="M34.6708 73.6973H33.8826V74.1103H34.6708V73.6973Z" fill="white"/>
<path d="M36.9182 73.6973H36.1301V74.1103H36.9182V73.6973Z" fill="white"/>
<path d="M33.547 74.8555H32.7589V75.2685H33.547V74.8555Z" fill="white"/>
<path d="M35.7946 74.8555H35.0065V75.2685H35.7946V74.8555Z" fill="white"/>
<path d="M38.0419 74.8555H37.2538V75.2685H38.0419V74.8555Z" fill="white"/>
<path d="M34.6708 76.0137H33.8826V76.4267H34.6708V76.0137Z" fill="white"/>
<path d="M36.9182 76.0137H36.1301V76.4267H36.9182V76.0137Z" fill="white"/>
<path d="M37.6906 82.0417V83.1999H37.2956L35.4003 84.3849L35.3776 84.3707L33.5051 83.1999H33.1101V82.0417H31.9864V80.7978H33.1101V79.6397H33.5051L35.4003 78.4546L37.2956 79.6397H37.6906V80.7978H38.8143V82.0417H37.6906Z" fill="black"/>
<path d="M35.4004 84.2837L37.1339 83.1998H33.667L35.4004 84.2837ZM37.1338 79.6396L35.4004 78.5557L33.6671 79.6396H37.1338Z" fill="#FDD406"/>
<path d="M37.605 80.7978V79.7253H35.4432V80.7978H37.605Z" fill="#D91C16"/>
<path d="M35.3577 80.7978V79.7253H33.1959V80.7978H35.3577Z" fill="#D91C16"/>
<path d="M38.7286 81.9559V80.8833H36.5668V81.9559H38.7286Z" fill="#D91C16"/>
<path d="M36.4811 81.9559V80.8833H34.3193V81.9559H36.4811Z" fill="#D91C16"/>
<path d="M34.2338 81.9559V80.8833H32.0721V81.9559H34.2338Z" fill="#D91C16"/>
<path d="M37.605 83.1141V82.0415H35.4432V83.1141H37.605Z" fill="#D91C16"/>
<path d="M35.3577 83.1141V82.0415H33.1959V83.1141H35.3577Z" fill="#D91C16"/>
<path d="M34.7622 79.9636V80.5595H33.7911V79.9636H34.7622Z" fill="black"/>
<path d="M37.0096 79.9636V80.5595H36.0386V79.9636H37.0096Z" fill="black"/>
<path d="M33.6384 81.1218V81.7177H32.6674V81.1218H33.6384Z" fill="black"/>
<path d="M35.886 81.1218V81.7177H34.915V81.1218H35.886Z" fill="black"/>
<path d="M38.1336 81.1218V81.7177H37.1625V81.1218H38.1336Z" fill="black"/>
<path d="M34.7622 82.28V82.876H33.7911V82.28H34.7622Z" fill="black"/>
<path d="M37.0096 82.28V82.876H36.0386V82.28H37.0096Z" fill="black"/>
<path d="M34.6708 80.0549H33.8826V80.468H34.6708V80.0549Z" fill="white"/>
<path d="M36.9182 80.0549H36.1301V80.468H36.9182V80.0549Z" fill="white"/>
<path d="M33.547 81.2131H32.7589V81.6262H33.547V81.2131Z" fill="white"/>
<path d="M35.7946 81.2131H35.0065V81.6262H35.7946V81.2131Z" fill="white"/>
<path d="M38.0419 81.2131H37.2538V81.6262H38.0419V81.2131Z" fill="white"/>
<path d="M34.6708 82.3713H33.8826V82.7844H34.6708V82.3713Z" fill="white"/>
<path d="M36.9182 82.3713H36.1301V82.7844H36.9182V82.3713Z" fill="white"/>
<path d="M23.1358 95.8708L31.5461 91.3445H31.5569H39.254L47.6643 95.8708V103.329L39.254 107.855H31.5461L23.1358 103.329V95.8708Z" fill="black"/>
<path d="M31.5734 91.4302L23.2259 95.9217V103.273L31.5734 107.765H39.2321L47.5799 103.273V95.9217L39.2321 91.4302H31.5734ZM31.7215 92.0339H39.0839L46.9866 96.2817V102.924L39.0839 107.172H31.7171L23.8147 102.924V96.2817L31.7215 92.0339Z" fill="#1E9A1C"/>
<path d="M35.443 99.5567V107.085H39.0621L46.8987 102.867V99.6425L35.3574 99.6425V92.1145H31.7384L23.9017 96.3318V99.5567L35.443 99.5567Z" fill="#FDD406"/>
<path d="M35.3574 99.5567V107.085H31.7384L23.9017 102.867V99.6425L35.443 99.6425V92.1145H39.0621L46.8987 96.3318V99.5567L35.3574 99.5567Z" fill="white"/>
<path d="M36.1034 106.663V104.488L35.4 104.934L34.6964 104.488V106.663H32.5081L33.9847 105.58V104.036L31.7328 102.607H30.1592V96.5926H31.7328L33.9847 95.1638V93.6193L32.5081 92.5364H32.639H34.6964V94.7123L35.4 94.2659L36.1034 94.7123V92.5364H38.2919L36.8152 93.6193V95.1638L39.0671 96.5926H40.6406V102.607H39.0671L36.8152 104.036V105.58L38.2919 106.663H36.1034Z" fill="black"/>
<path d="M36.192 92.627V94.8727L35.4398 94.3961V95.0317L38.8825 97.2242H40.016V99.5551H40.5564V96.6737H39.0415L36.7323 95.2117V93.5802L38.035 92.627H36.192ZM30.2491 99.6398V102.521H31.7533L34.0733 103.993V105.625L32.7703 106.578H34.6137V104.332L35.355 104.809V104.152L31.9123 101.981H30.7893V99.6398L30.2491 99.6398Z" fill="#FDD406"/>
<path d="M32.77 92.627L34.0731 93.5802V95.2117L31.7531 96.6737H30.2488V99.5551H30.7891V97.2242H31.9121L35.3548 95.0422V94.3961L34.6134 94.8727V92.627L32.77 92.627ZM40.0158 99.6398V101.981H38.8822L35.4395 104.152V104.809L36.1917 104.332V106.578H38.0348L36.732 105.625V103.993L39.0412 102.521H40.5561V99.6398L40.0158 99.6398Z" fill="white"/>
<path d="M30.8712 101.892H31.9387L35.4002 104.088L38.8616 101.892H39.9292V97.3084H38.8741H38.8616L35.4002 95.1123L31.9387 97.3084H30.8712V101.892Z" fill="#D91C16"/>
<path d="M37.7962 100.689H38.5353V100.339H37.9793V99.7035H39.1676V101.325H38.0284L38.0285 102.431H35.6836V100.841H36.7156V101.477H36.3159V101.795H37.3962V101.187L33.004 98.5107H32.2649V98.8603H32.821V99.4959H31.6326V97.875H32.7718V96.769H32.8146H35.1166V98.3581H34.0846V97.7224H34.4843V97.4047H33.4041V98.0122L37.7962 100.689ZM37.3962 98.0122V97.4047H36.3159V97.7224H36.7156V98.3581H35.6836V96.769H38.0285V97.875H39.1676V99.4959H37.9793V98.8603H38.5354V98.5107H37.7962L33.4041 101.187V101.795H34.4843V101.477H34.0846V100.841H35.1166V102.431H32.7718V101.324H31.6326V99.7035H32.821V100.339H32.2649V100.689H33.004L37.3962 98.0122Z" fill="black"/>
<path d="M37.4818 101.139V101.881H36.23V101.392H36.6298V100.927H35.7692V102.345H37.9426V101.239H39.0818V99.7896H38.0649V100.254H38.6208V100.775H37.7721L33.3182 98.0606V97.3193H34.57V97.8084H34.1703V98.2727H35.0308V96.855H32.8574V97.9609H31.7183V99.4105H32.7351V98.9462H32.1791V98.4252H33.0279L37.4818 101.139ZM37.7721 98.4252H38.621V98.9462H38.0649V99.4105H39.0818V97.9609H37.9427V96.855H35.7693V98.2727H36.6298V97.8084H36.2301V97.3193H37.4818V98.0606L33.0279 100.775H32.1791V100.254H32.7351V99.7895H31.7183V101.239H32.8574V102.345H35.0308V100.927H34.1703V101.392H34.57V101.881H33.3182V101.139L37.7721 98.4252Z" fill="white"/>
<path d="M45.2091 99.9766V102.329H44.2081V101.498H43.199V102.329H42.1979V99.9766H43.199V100.807H44.2081V99.9766H45.2091Z" fill="black"/>
<path d="M41.6272 103.1V105.452H40.6262V104.621H39.6171V105.452H38.6161V103.1H39.6171V103.93H40.6262V103.1H41.6272Z" fill="black"/>
<path d="M45.2091 99.2225V96.8701H44.2081V97.7009H43.199V96.8701H42.1979V99.2225H43.199V98.3917H44.2081V99.2225H45.2091Z" fill="black"/>
<path d="M25.5914 99.9766V102.329H26.5925V101.498H27.6016V102.329H28.6026V99.9766H27.6016V100.807H26.5925V99.9766H25.5914Z" fill="black"/>
<path d="M25.5914 99.2225V96.8701H26.5925V97.7009H27.6016V96.8701H28.6026V99.2225H27.6016V98.3917H26.5925V99.2225H25.5914Z" fill="black"/>
<path d="M41.6272 96.0997V93.7473H40.6262V94.5781H39.6171V93.7473H38.6161V96.0997H39.6171V95.2689H40.6262V96.0997H41.6272Z" fill="black"/>
<path d="M29.1735 103.1V105.452H30.1746V104.621H31.1836V105.452H32.1847V103.1H31.1836V103.93H30.1746V103.1H29.1735Z" fill="black"/>
<path d="M29.1735 96.0997V93.7473H30.1746V94.5781H31.1836V93.7473H32.1847V96.0997H31.1836V95.2689H30.1746V96.0997H29.1735Z" fill="black"/>
<path d="M42.2243 94.4512V96.2376H45.5437L42.2243 94.4512Z" fill="black"/>
<path d="M28.5761 104.748V102.962H25.2567L28.5761 104.748Z" fill="black"/>
<path d="M28.5761 94.4512V96.2376H25.2567L28.5761 94.4512Z" fill="black"/>
<path d="M42.2243 104.748V102.962H45.5437L42.2243 104.748Z" fill="black"/>
<path d="M44.2936 101.413V102.243H45.1233V100.062H44.2936V100.893H43.1131V100.062H42.2835V102.243H43.1131V101.413H44.2936Z" fill="#D91C16"/>
<path d="M40.7116 104.535V105.366H41.5412V103.185H40.7116V104.016H39.531V103.185H38.7015V105.366H39.531V104.535H40.7116Z" fill="#D91C16"/>
<path d="M44.2936 97.7866V96.9558H45.1233V99.1367H44.2936V98.3058H43.1131V99.1367H42.2835V96.9558H43.1131V97.7866H44.2936Z" fill="#D91C16"/>
<path d="M26.5066 101.413V102.243H25.6771V100.062H26.5066V100.893H27.6872V100.062H28.5167V102.243H27.6872V101.413H26.5066Z" fill="#D91C16"/>
<path d="M26.5066 97.7866V96.9558H25.6771V99.1367H26.5066V98.3058H27.6872V99.1367H28.5167V96.9558H27.6872V97.7866H26.5066Z" fill="#D91C16"/>
<path d="M40.7116 94.6639V93.833H41.5412V96.014H40.7116V95.1831H39.531V96.014H38.7015V93.833H39.531V94.6639H40.7116Z" fill="#D91C16"/>
<path d="M30.0886 104.535V105.366H29.259V103.185H30.0886V104.016H31.2692V103.185H32.0988V105.366H31.2692V104.535H30.0886Z" fill="#D91C16"/>
<path d="M30.0886 94.6639V93.833H29.259V96.014H30.0886V95.1831H31.2692V96.014H32.0988V93.833H31.2692V94.6639H30.0886Z" fill="#D91C16"/>
<path d="M42.3146 94.5972V96.1545H45.2068L42.3146 94.5972ZM25.5986 103.051L28.4906 104.608V103.051H25.5986Z" fill="#FDD406"/>
<path d="M28.4904 94.5972L25.5984 96.1545H28.4904V94.5972ZM42.3145 103.051V104.608L45.2067 103.051H42.3145Z" fill="white"/>
<path d="M48.9801 106.165C48.8203 106.846 48.2785 107.361 48.1493 108.067C47.8909 107.33 47.6525 106.713 47.8305 105.907C47.9578 105.33 48.4429 104.919 48.499 104.326C49.0279 104.802 49.1417 105.476 48.9801 106.165ZM49.1141 109.02C48.6656 109.635 48.0421 110.107 47.3535 110.421C47.4891 109.883 47.2347 109.477 46.9523 109.049C46.6121 108.535 46.4463 108.029 46.7236 107.436C46.8529 107.744 47.0265 108 47.2303 108.264C47.5316 108.675 47.7297 109.04 47.7761 109.568C48.1246 109.309 48.2778 108.924 48.4641 108.551C48.7482 108.016 49.2065 107.569 49.7331 107.277C49.5932 107.877 49.4854 108.511 49.1141 109.02ZM46.5985 110.853C46.6943 111.195 46.777 111.533 46.7586 111.89C47.055 111.571 47.4485 111.331 47.7997 111.073C48.2779 110.687 48.8353 110.414 49.2262 109.921C49.1679 110.646 48.8577 111.237 48.2687 111.678C47.6462 112.144 46.8954 112.395 46.2821 112.884C46.3739 112.225 46.1318 111.697 45.9253 111.091C45.7532 110.512 45.9197 109.924 46.3124 109.483C46.3065 109.972 46.4608 110.392 46.5985 110.853ZM45.2013 113.08C45.0723 113.58 44.714 113.987 44.4693 114.433C45.1291 114.228 45.7112 113.87 46.3076 113.534C47.018 113.147 47.7894 112.901 48.4324 112.39C48.1124 113.575 47.3192 114.262 46.1588 114.612C45.3654 114.851 44.6967 114.732 43.734 115.121C43.8444 114.469 44.0389 113.766 44.347 113.178C44.5862 112.753 44.8514 112.334 44.9991 111.866C45.2131 112.25 45.3144 112.642 45.2013 113.08ZM42.7736 114.893C42.5464 115.282 42.2466 115.61 41.8747 115.868C42.8113 115.928 43.565 115.334 44.4781 115.308C45.0421 115.292 45.5775 115.467 46.1527 115.415C45.4701 115.875 44.7555 116.278 43.9245 116.385C42.8443 116.525 41.848 116.253 40.6563 116.359C41.2132 115.966 41.4919 115.44 41.839 114.875C42.2911 114.168 42.7177 113.665 43.5969 113.551C43.244 113.948 43.0386 114.439 42.7736 114.893ZM39.4473 116.447C41.0973 116.728 42.6784 117.091 44.3636 117.108C42.4773 117.765 40.7 117.884 38.8292 117.205C37.8182 116.838 37.043 116.642 36.2794 116.696C35.1636 116.777 33.8074 117.217 32.3066 118.8L31.7167 118.328C33.8678 116.411 36.6822 115.977 39.4472 116.447L39.4473 116.447Z" fill="#FDD406"/>
<path d="M21.8287 106.165C21.9886 106.846 22.5304 107.361 22.6595 108.067C22.918 107.33 23.1563 106.713 22.9783 105.907C22.851 105.33 22.366 104.919 22.3098 104.326C21.781 104.802 21.6671 105.476 21.8287 106.165ZM21.6947 109.02C22.1433 109.635 22.7668 110.107 23.4553 110.421C23.3197 109.883 23.5741 109.477 23.8565 109.049C24.1967 108.535 24.3625 108.029 24.0852 107.436C23.956 107.744 23.7823 108 23.5786 108.264C23.2773 108.675 23.0791 109.04 23.0327 109.568C22.6842 109.309 22.5311 108.924 22.3447 108.551C22.0607 108.016 21.6023 107.569 21.0757 107.277C21.2157 107.877 21.3234 108.511 21.6947 109.02ZM24.2104 110.853C24.1145 111.195 24.0318 111.533 24.0503 111.89C23.7539 111.571 23.3603 111.331 23.0092 111.073C22.531 110.687 21.9736 110.414 21.5826 109.921C21.6409 110.646 21.9511 111.237 22.5401 111.678C23.1627 112.144 23.9135 112.395 24.5267 112.884C24.4349 112.225 24.6771 111.697 24.8836 111.091C25.0557 110.512 24.8891 109.924 24.4965 109.483C24.5023 109.972 24.348 110.392 24.2104 110.853ZM25.6075 113.08C25.7365 113.58 26.0949 113.987 26.3395 114.433C25.6798 114.228 25.0977 113.87 24.5013 113.534C23.7909 113.147 23.0195 112.901 22.3764 112.39C22.6965 113.575 23.4897 114.262 24.6501 114.612C25.4435 114.851 26.1121 114.732 27.0749 115.121C26.9645 114.469 26.77 113.766 26.4618 113.178C26.2227 112.753 25.9575 112.334 25.8097 111.866C25.5958 112.25 25.4945 112.642 25.6075 113.08ZM28.0353 114.893C28.2624 115.282 28.5623 115.61 28.9342 115.868C27.9976 115.928 27.2439 115.334 26.3308 115.308C25.7668 115.292 25.2313 115.467 24.6562 115.415C25.3387 115.875 26.0533 116.278 26.8843 116.385C27.9646 116.525 28.9608 116.253 30.1525 116.359C29.5956 115.966 29.317 115.44 28.9698 114.875C28.5178 114.168 28.0912 113.665 27.2119 113.551C27.5649 113.948 27.7703 114.439 28.0353 114.893ZM31.3615 116.447C29.7115 116.728 28.1304 117.091 26.4453 117.108C28.3315 117.765 30.1089 117.884 31.9797 117.205C32.9907 116.838 33.7659 116.642 34.5294 116.696C35.6453 116.777 37.0014 117.217 38.5023 118.8L39.0922 118.328C36.9411 116.411 34.1266 115.977 31.3616 116.447L31.3615 116.447Z" fill="#FDD406"/>
</g>
<defs>
<clipPath id="clip0_909_226574">
<rect width="160" height="120" fill="white"/>
</clipPath>
</defs>
</svg>
