<svg width="160" height="120" viewBox="0 0 160 120" fill="none" xmlns="http://www.w3.org/2000/svg">
<path d="M160 0H0V120H160V0Z" fill="#1E9A1C"/>
<path d="M67.9246 16.604L68.5708 14.6153H70.6618L68.9701 13.3862L69.6163 11.3975L67.9246 12.6265L66.2329 11.3975L66.879 13.3861L65.1873 14.6153H67.2784L67.9246 16.604Z" fill="white"/>
<path d="M91.2129 27.0341C91.2129 20.8787 87.4856 15.5926 82.1656 13.3085C85.5473 16.1913 87.6135 20.5467 87.4047 25.3289C87.0451 33.5658 80.0736 39.9539 71.8367 39.5943C69.9807 39.5133 68.219 39.0955 66.6066 38.4041C69.2129 40.6242 72.5909 41.9651 76.282 41.9651C84.5267 41.9651 91.2129 35.2789 91.2129 27.0341Z" fill="white"/>
<path d="M68.5708 22.2953L67.9246 24.284L67.2784 22.2953H65.1873L66.879 21.0662L66.2329 19.0775L67.9246 20.3065L69.6163 19.0775L68.9701 21.0662L70.6618 22.2953H68.5708Z" fill="white"/>
<path d="M76.1582 18.5509L75.512 20.5396L74.8658 18.5509H72.7747L74.4664 17.3217L73.8203 15.3331L75.512 16.5621L77.2037 15.3331L76.5575 17.3218L78.2492 18.5509H76.1582Z" fill="white"/>
<path d="M60.3374 28.0284L60.9836 26.0396H63.0746L61.3829 24.8106L62.0291 22.8218L60.3374 24.0509L58.6457 22.8218L59.2918 24.8105L57.6001 26.0396H59.6912L60.3374 28.0284Z" fill="white"/>
<path d="M68.5708 29.9752L67.9246 31.964L67.2784 29.9752H65.1873L66.879 28.7461L66.2329 26.7574L67.9246 27.9865L69.6163 26.7574L68.9701 28.7462L70.6618 29.9752H68.5708Z" fill="white"/>
<path d="M51.6002 0H19.2002V120H51.6002V0Z" fill="#E23726"/>
<path d="M27.1243 0H26.0014L24.01 1.82194L23.2155 1.08041H23.9464L23.8087 0.24355H22.5375L20.0269 2.59527V3.49569H21.1392V2.74358L21.7113 3.26264L20.4083 4.47027L21.0227 5.05288L19.2007 6.7478V7.92366L22.2833 5.05288L21.6689 4.47027L22.9612 3.26264L21.8489 2.22451L22.5905 1.54654L24.01 2.8601L27.1243 0Z" fill="black"/>
<path d="M24.3563 0H25.0663L24.4549 0.571948L24.3563 0Z" fill="black"/>
<path d="M19.2007 0H21.298L20.6837 0.624923H19.921V1.48296L19.2007 2.21389V0Z" fill="black"/>
<path d="M26.986 0.00012207H26.1283L24.0098 1.93854L22.9928 0.995746H23.8403L23.7235 0.328373H22.5794L20.1112 2.62709V3.41099H21.054V2.53175L21.8379 3.26268L20.5349 4.47031L21.1493 5.05292L19.2002 6.86438V7.79659L22.1557 5.05293L21.5413 4.47031L22.8336 3.26269L21.7213 2.22455L22.59 1.41947L24.0095 2.74362L26.986 0.00012207Z" fill="#FDD406"/>
<path d="M19.2005 0.00012207V2.08686L19.8361 1.45127V0.52967H20.6517L21.1813 0.00012207H19.2005Z" fill="#FDD406"/>
<path d="M24.4514 0.00012207L24.5182 0.391953L24.9388 0.00012207H24.4514Z" fill="#FDD406"/>
<path d="M19.2007 13.9175V15.0933L21.0227 16.7988L20.4083 17.3709L21.7113 18.5785L21.1392 19.0976V18.3454H20.0269V19.2459L22.5375 21.5976H23.8087L23.9464 20.7713H23.2155L24.01 20.0298L26.0015 21.8412L24.01 23.6632L23.2155 22.9217H23.9464L23.8087 22.0849H22.5375L20.0269 24.4366V25.337H21.1392V24.5849L21.7113 25.104L20.4083 26.3116L21.0227 26.8942L19.2007 28.5891V29.765L22.2833 26.8942L21.6689 26.3116L22.9612 25.104L21.8489 24.0658L22.5905 23.3879L24.01 24.7014L27.1244 21.8413L24.01 18.9811L22.5905 20.3052L21.8489 19.6167L22.9612 18.5785L21.6689 17.3709L22.2833 16.7989L19.2007 13.9175ZM19.2007 19.6272V24.0552L19.921 23.3243V22.4662H20.6837L21.2981 21.8412L20.6837 21.2268H19.921V20.3582L19.2007 19.6272ZM24.4549 21.195L24.349 21.7989L24.4549 22.4133L25.1117 21.7989L24.4549 21.195Z" fill="black"/>
<path d="M19.2005 14.0446V14.9768L21.1496 16.7988L20.5352 17.3708L21.8382 18.5785L21.0543 19.3094V18.4302H20.1115V19.2141L22.5797 21.5128H23.7238L23.8403 20.856H22.9928L24.0098 19.9026L26.1284 21.8412L24.0098 23.7797L22.9928 22.8369H23.8403L23.7235 22.1696H22.5794L20.1112 24.4683V25.2522H21.054V24.3729L21.8379 25.1039L20.5349 26.3115L21.1493 26.8941L19.2002 28.7056V29.6378L22.1557 26.8941L21.5413 26.3115L22.8336 25.1039L21.7213 24.0657L22.59 23.2607L24.0095 24.5848L26.9862 21.8412L24.0095 19.0975L22.59 20.4217L21.7213 19.6166L22.8336 18.5785L21.5413 17.3708L22.1557 16.7988L19.2002 14.0446L19.2005 14.0446ZM19.2005 19.7543V23.928L19.8361 23.2925V22.3709H20.6517L21.1814 21.8412L20.6517 21.3115H19.8361V20.3899L19.2005 19.7543ZM24.5182 21.3645L24.4441 21.7988L24.5182 22.2331L24.9844 21.7988L24.5182 21.3645Z" fill="#FDD406"/>
<path d="M19.2007 36.4772V37.653L21.0227 39.3585L20.4083 39.9306L21.7113 41.1382L21.1392 41.6573V40.9051H20.0269V41.8056L22.5375 44.1573H23.8087L23.9464 43.331H23.2155L24.01 42.5895L26.0015 44.4009L24.01 46.2229L23.2155 45.4814H23.9464L23.8087 44.6446H22.5375L20.0269 46.9963V47.8967H21.1392V47.1446L21.7113 47.6636L20.4083 48.8713L21.0227 49.4539L19.2007 51.1488V52.3247L22.2833 49.4539L21.6689 48.8713L22.9612 47.6636L21.8489 46.6255L22.5905 45.9475L24.01 47.2611L27.1244 44.4009L24.01 41.5408L22.5905 42.8649L21.8489 42.1764L22.9612 41.1382L21.6689 39.9306L22.2833 39.3586L19.2007 36.4772ZM19.2007 42.1869V46.6149L19.921 45.884V45.0259H20.6837L21.2981 44.4009L20.6837 43.7865H19.921V42.9179L19.2007 42.1869ZM24.4549 43.7547L24.349 44.3585L24.4549 44.9729L25.1117 44.3585L24.4549 43.7547Z" fill="black"/>
<path d="M19.2005 36.6043V37.5365L21.1496 39.3585L20.5352 39.9305L21.8382 41.1382L21.0543 41.8691V40.9899H20.1115V41.7737L22.5797 44.0725H23.7238L23.8403 43.4157H22.9928L24.0098 42.4623L26.1284 44.4009L24.0098 46.3394L22.9928 45.3966H23.8403L23.7235 44.7293H22.5794L20.1112 47.028V47.8119H21.054V46.9326L21.8379 47.6636L20.5349 48.8712L21.1493 49.4538L19.2002 51.2653V52.1975L22.1557 49.4538L21.5413 48.8712L22.8336 47.6636L21.7213 46.6254L22.59 45.8203L24.0095 47.1445L26.9862 44.4009L24.0095 41.6572L22.59 42.9814L21.7213 42.1763L22.8336 41.1381L21.5413 39.9305L22.1557 39.3585L19.2002 36.6042L19.2005 36.6043ZM19.2005 42.314V46.4877L19.8361 45.8521V44.9305H20.6517L21.1814 44.4009L20.6517 43.8712H19.8361V42.9496L19.2005 42.314ZM24.5182 43.9242L24.4441 44.3585L24.5182 44.7928L24.9844 44.3585L24.5182 43.9242Z" fill="#FDD406"/>
<path d="M19.2007 59.0365V60.2124L21.0227 61.9179L20.4083 62.4899L21.7113 63.6975L21.1392 64.2166V63.4645H20.0269V64.3649L22.5375 66.7166H23.8087L23.9464 65.8903H23.2155L24.01 65.1488L26.0015 66.9602L24.01 68.7823L23.2155 68.0407H23.9464L23.8087 67.2039H22.5375L20.0269 69.5556V70.456H21.1392V69.7039L21.7113 70.223L20.4083 71.4306L21.0227 72.0132L19.2007 73.7081V74.884L22.2833 72.0132L21.6689 71.4306L22.9612 70.223L21.8489 69.1848L22.5905 68.5069L24.01 69.8204L27.1244 66.9603L24.01 64.1001L22.5905 65.4243L21.8489 64.7357L22.9612 63.6976L21.6689 62.4899L22.2833 61.9179L19.2007 59.0365ZM19.2007 64.7463V69.1742L19.921 68.4433V67.5852H20.6837L21.2981 66.9602L20.6837 66.3458H19.921V65.4772L19.2007 64.7463ZM24.4549 66.3141L24.349 66.9179L24.4549 67.5323L25.1117 66.9179L24.4549 66.3141Z" fill="black"/>
<path d="M19.2005 59.1636V60.0958L21.1496 61.9178L20.5352 62.4899L21.8382 63.6975L21.0543 64.4284V63.5492H20.1115V64.3331L22.5797 66.6318H23.7238L23.8403 65.975H22.9928L24.0098 65.0216L26.1284 66.9602L24.0098 68.8987L22.9928 67.956H23.8403L23.7235 67.2886H22.5794L20.1112 69.5873V70.3712H21.054V69.492L21.8379 70.2229L20.5349 71.4305L21.1493 72.0131L19.2002 73.8246V74.7568L22.1557 72.0131L21.5413 71.4305L22.8336 70.2229L21.7213 69.1848L22.59 68.3797L24.0095 69.7038L26.9862 66.9602L24.0095 64.2165L22.59 65.5407L21.7213 64.7356L22.8336 63.6975L21.5413 62.4898L22.1557 61.9178L19.2002 59.1636L19.2005 59.1636ZM19.2005 64.8733V69.0471L19.8361 68.4115V67.4899H20.6517L21.1814 66.9602L20.6517 66.4305H19.8361V65.5089L19.2005 64.8733ZM24.5182 66.4835L24.4441 66.9178L24.5182 67.3522L24.9844 66.9178L24.5182 66.4835Z" fill="#FDD406"/>
<path d="M19.2007 81.5958V82.7717L21.0227 84.4772L20.4083 85.0492L21.7113 86.2568L21.1392 86.7759V86.0238H20.0269V86.9242L22.5375 89.2759H23.8087L23.9464 88.4496H23.2155L24.01 87.7081L26.0015 89.5196L24.01 91.3416L23.2155 90.6001H23.9464L23.8087 89.7632H22.5375L20.0269 92.1149V93.0153H21.1392V92.2632L21.7113 92.7823L20.4083 93.9899L21.0227 94.5725L19.2007 96.2675V97.4433L22.2833 94.5725L21.6689 93.9899L22.9612 92.7823L21.8489 91.7442L22.5905 91.0662L24.01 92.3798L27.1244 89.5196L24.01 86.6594L22.5905 87.9836L21.8489 87.295L22.9612 86.2569L21.6689 85.0493L22.2833 84.4772L19.2007 81.5958ZM19.2007 87.3056V91.7335L19.921 91.0026V90.1446H20.6837L21.2981 89.5196L20.6837 88.9052H19.921V88.0365L19.2007 87.3056ZM24.4549 88.8734L24.349 89.4772L24.4549 90.0916L25.1117 89.4772L24.4549 88.8734Z" fill="black"/>
<path d="M19.2005 81.7229V82.6551L21.1496 84.4771L20.5352 85.0492L21.8382 86.2568L21.0543 86.9877V86.1085H20.1115V86.8924L22.5797 89.1911H23.7238L23.8403 88.5343H22.9928L24.0098 87.581L26.1284 89.5195L24.0098 91.4581L22.9928 90.5153H23.8403L23.7235 89.8479H22.5794L20.1112 92.1466V92.9305H21.054V92.0513L21.8379 92.7822L20.5349 93.9898L21.1493 94.5725L19.2002 96.3839V97.3161L22.1557 94.5725L21.5413 93.9898L22.8336 92.7822L21.7213 91.7441L22.59 90.939L24.0095 92.2632L26.9862 89.5195L24.0095 86.7759L22.59 88.1L21.7213 87.2949L22.8336 86.2568L21.5413 85.0492L22.1557 84.4771L19.2002 81.7229L19.2005 81.7229ZM19.2005 87.4327V91.6064L19.8361 90.9708V90.0492H20.6517L21.1814 89.5195L20.6517 88.9899H19.8361V88.0683L19.2005 87.4327ZM24.5182 89.0428L24.4441 89.4772L24.5182 89.9115L24.9844 89.4772L24.5182 89.0428Z" fill="#FDD406"/>
<path d="M43.6763 0H44.7992L46.7906 1.82194L47.5851 1.08041H46.8542L46.9919 0.24355H48.2631L50.7737 2.59527V3.49569H49.6614V2.74358L49.0893 3.26264L50.3923 4.47027L49.7779 5.05288L51.5999 6.7478V7.92366L48.5173 5.05288L49.1317 4.47027L47.8394 3.26264L48.9517 2.22451L48.2101 1.54654L46.7906 2.8601L43.6763 0Z" fill="black"/>
<path d="M46.4443 0H45.7343L46.3457 0.571948L46.4443 0Z" fill="black"/>
<path d="M51.5999 0H49.5026L50.1169 0.624923H50.8796V1.48296L51.5999 2.21389V0Z" fill="black"/>
<path d="M46.3496 0.00012207H45.8622L46.2827 0.391953L46.3496 0.00012207Z" fill="#FDD406"/>
<path d="M51.6004 2.08676V0.00012207H49.6197L50.1492 0.52967H50.9649V1.45127L51.6004 2.08676Z" fill="#FDD406"/>
<path d="M51.6004 6.86401L49.6516 5.05292L50.2661 4.47031L48.9631 3.26268L49.747 2.53175V3.41099H50.6898V2.62709L48.2216 0.328373H47.0775L46.9607 0.995746H47.8082L46.7912 1.93854L44.6727 0.00012207H43.8149L46.7915 2.74362L48.211 1.41947L49.0796 2.22455L47.9673 3.26269L49.2597 4.47031L48.6453 5.05293L51.6004 7.79622V6.86401Z" fill="#FDD406"/>
<path d="M51.6001 13.9176V15.0935L49.7781 16.799L50.3925 17.371L49.0895 18.5786L49.6616 19.0977V18.3456H50.7739V19.246L48.2633 21.5977H46.9921L46.8543 20.7714H47.5853L46.7908 20.0299L44.7993 21.8413L46.7908 23.6634L47.5853 22.9218H46.8543L46.9921 22.085H48.2633L50.7739 24.4367V25.3371H49.6616V24.585L49.0895 25.1041L50.3925 26.3117L49.7781 26.8943L51.6001 28.5892V29.7651L48.5175 26.8943L49.1319 26.3117L47.8395 25.1041L48.9518 24.0659L48.2103 23.388L46.7908 24.7015L43.6764 21.8414L46.7908 18.9812L48.2103 20.3054L48.9518 19.6168L47.8395 18.5787L49.1319 17.371L48.5175 16.799L51.6001 13.9176ZM51.6001 19.6274V24.0553L50.8798 23.3244V22.4664H50.117L49.5027 21.8414L50.117 21.2269H50.8798V20.3583L51.6001 19.6274ZM46.3459 21.1952L46.4518 21.799L46.3459 22.4134L45.6891 21.799L46.3459 21.1952Z" fill="black"/>
<path d="M51.6003 14.0447V14.9769L49.6511 16.7989L50.2656 17.371L48.9626 18.5786L49.7465 19.3095V18.4303H50.6893V19.2142L48.2211 21.5129H47.077L46.9605 20.8561H47.808L46.791 19.9027L44.6724 21.8413L46.791 23.7798L47.808 22.8371H46.9605L47.0773 22.1697H48.2214L50.6896 24.4684V25.2523H49.7468V24.3731L48.9629 25.104L50.2659 26.3116L49.6514 26.8942L51.6006 28.7057V29.6379L48.6451 26.8942L49.2595 26.3116L47.9671 25.104L49.0794 24.0659L48.2108 23.2608L46.7913 24.5849L43.8146 21.8413L46.7913 19.0976L48.2108 20.4218L49.0794 19.6167L47.9671 18.5786L49.2595 17.371L48.6451 16.7989L51.6006 14.0447L51.6003 14.0447ZM51.6003 19.7544V23.9282L50.9647 23.2926V22.371H50.149L49.6194 21.8413L50.149 21.3117H50.9647V20.39L51.6003 19.7544ZM46.2825 21.3646L46.3567 21.7989L46.2825 22.2333L45.8164 21.7989L46.2825 21.3646Z" fill="#FDD406"/>
<path d="M51.6001 36.4772V37.653L49.7781 39.3585L50.3925 39.9306L49.0895 41.1382L49.6616 41.6573V40.9051H50.7739V41.8056L48.2633 44.1573H46.9921L46.8543 43.331H47.5853L46.7908 42.5895L44.7993 44.4009L46.7908 46.2229L47.5853 45.4814H46.8543L46.9921 44.6446H48.2633L50.7739 46.9963V47.8967H49.6616V47.1446L49.0895 47.6636L50.3925 48.8713L49.7781 49.4539L51.6001 51.1488V52.3247L48.5175 49.4539L49.1319 48.8713L47.8395 47.6636L48.9518 46.6255L48.2103 45.9475L46.7908 47.2611L43.6764 44.4009L46.7908 41.5408L48.2103 42.8649L48.9518 42.1764L47.8395 41.1382L49.1319 39.9306L48.5175 39.3586L51.6001 36.4772ZM51.6001 42.1869V46.6149L50.8798 45.884V45.0259H50.117L49.5027 44.4009L50.117 43.7865H50.8798V42.9179L51.6001 42.1869ZM46.3459 43.7547L46.4518 44.3585L46.3459 44.9729L45.6891 44.3585L46.3459 43.7547Z" fill="black"/>
<path d="M51.6003 36.6043V37.5365L49.6511 39.3585L50.2656 39.9305L48.9626 41.1382L49.7465 41.8691V40.9899H50.6893V41.7737L48.2211 44.0725H47.077L46.9605 43.4157H47.808L46.791 42.4623L44.6724 44.4009L46.791 46.3394L47.808 45.3966H46.9605L47.0773 44.7293H48.2214L50.6896 47.028V47.8119H49.7468V46.9326L48.9629 47.6636L50.2659 48.8712L49.6514 49.4538L51.6006 51.2653V52.1975L48.6451 49.4538L49.2595 48.8712L47.9671 47.6636L49.0794 46.6254L48.2108 45.8203L46.7913 47.1445L43.8146 44.4009L46.7913 41.6572L48.2108 42.9814L49.0794 42.1763L47.9671 41.1381L49.2595 39.9305L48.6451 39.3585L51.6006 36.6042L51.6003 36.6043ZM51.6003 42.314V46.4877L50.9647 45.8521V44.9305H50.149L49.6194 44.4009L50.149 43.8712H50.9647V42.9496L51.6003 42.314ZM46.2825 43.9242L46.3567 44.3585L46.2825 44.7928L45.8164 44.3585L46.2825 43.9242Z" fill="#FDD406"/>
<path d="M51.6001 59.0365V60.2124L49.7781 61.9179L50.3925 62.4899L49.0895 63.6975L49.6616 64.2166V63.4645H50.7739V64.3649L48.2633 66.7166H46.9921L46.8543 65.8903H47.5853L46.7908 65.1488L44.7993 66.9602L46.7908 68.7823L47.5853 68.0407H46.8543L46.9921 67.2039H48.2633L50.7739 69.5556V70.456H49.6616V69.7039L49.0895 70.223L50.3925 71.4306L49.7781 72.0132L51.6001 73.7081V74.884L48.5175 72.0132L49.1319 71.4306L47.8395 70.223L48.9518 69.1848L48.2103 68.5069L46.7908 69.8204L43.6764 66.9603L46.7908 64.1001L48.2103 65.4243L48.9518 64.7357L47.8395 63.6976L49.1319 62.4899L48.5175 61.9179L51.6001 59.0365ZM51.6001 64.7463V69.1742L50.8798 68.4433V67.5852H50.117L49.5027 66.9602L50.117 66.3458H50.8798V65.4772L51.6001 64.7463ZM46.3459 66.3141L46.4518 66.9179L46.3459 67.5323L45.6891 66.9179L46.3459 66.3141Z" fill="black"/>
<path d="M51.6003 59.1636V60.0958L49.6511 61.9178L50.2656 62.4899L48.9626 63.6975L49.7465 64.4284V63.5492H50.6893V64.3331L48.2211 66.6318H47.077L46.9605 65.975H47.808L46.791 65.0216L44.6724 66.9602L46.791 68.8987L47.808 67.956H46.9605L47.0773 67.2886H48.2214L50.6896 69.5873V70.3712H49.7468V69.492L48.9629 70.2229L50.2659 71.4305L49.6514 72.0131L51.6006 73.8246V74.7568L48.6451 72.0131L49.2595 71.4305L47.9671 70.2229L49.0794 69.1848L48.2108 68.3797L46.7913 69.7038L43.8146 66.9602L46.7913 64.2165L48.2108 65.5407L49.0794 64.7356L47.9671 63.6975L49.2595 62.4898L48.6451 61.9178L51.6006 59.1636L51.6003 59.1636ZM51.6003 64.8733V69.0471L50.9647 68.4115V67.4899H50.149L49.6194 66.9602L50.149 66.4305H50.9647V65.5089L51.6003 64.8733ZM46.2825 66.4835L46.3567 66.9178L46.2825 67.3522L45.8164 66.9178L46.2825 66.4835Z" fill="#FDD406"/>
<path d="M51.6001 81.5958V82.7717L49.7781 84.4772L50.3925 85.0492L49.0895 86.2568L49.6616 86.7759V86.0238H50.7739V86.9242L48.2633 89.2759H46.9921L46.8543 88.4496H47.5853L46.7908 87.7081L44.7993 89.5196L46.7908 91.3416L47.5853 90.6001H46.8543L46.9921 89.7632H48.2633L50.7739 92.1149V93.0153H49.6616V92.2632L49.0895 92.7823L50.3925 93.9899L49.7781 94.5725L51.6001 96.2675V97.4433L48.5175 94.5725L49.1319 93.9899L47.8395 92.7823L48.9518 91.7442L48.2103 91.0662L46.7908 92.3798L43.6764 89.5196L46.7908 86.6594L48.2103 87.9836L48.9518 87.295L47.8395 86.2569L49.1319 85.0493L48.5175 84.4772L51.6001 81.5958ZM51.6001 87.3056V91.7335L50.8798 91.0026V90.1446H50.117L49.5027 89.5196L50.117 88.9052H50.8798V88.0365L51.6001 87.3056ZM46.3459 88.8734L46.4518 89.4772L46.3459 90.0916L45.6891 89.4772L46.3459 88.8734Z" fill="black"/>
<path d="M51.6003 81.7229V82.6551L49.6511 84.4771L50.2656 85.0492L48.9626 86.2568L49.7465 86.9877V86.1085H50.6893V86.8924L48.2211 89.1911H47.077L46.9605 88.5343H47.808L46.791 87.581L44.6724 89.5195L46.791 91.4581L47.808 90.5153H46.9605L47.0773 89.8479H48.2214L50.6896 92.1466V92.9305H49.7468V92.0513L48.9629 92.7822L50.2659 93.9898L49.6514 94.5725L51.6006 96.3839V97.3161L48.6451 94.5725L49.2595 93.9898L47.9671 92.7822L49.0794 91.7441L48.2108 90.939L46.7913 92.2632L43.8146 89.5195L46.7913 86.7759L48.2108 88.1L49.0794 87.2949L47.9671 86.2568L49.2595 85.0492L48.6451 84.4771L51.6006 81.7229L51.6003 81.7229ZM51.6003 87.4327V91.6064L50.9647 90.9708V90.0492H50.149L49.6194 89.5195L50.149 88.9899H50.9647V88.0683L51.6003 87.4327ZM46.2825 89.0428L46.3567 89.4772L46.2825 89.9115L45.8164 89.4772L46.2825 89.0428Z" fill="#FDD406"/>
<path d="M23.2544 14.0678L20.6582 12.4758V8.64874L23.2544 7.0567V5.0317L25.7078 3.55426H27.6679L31.3974 1.45654H39.404L43.1336 3.55426H45.0937L47.5471 5.0317V7.0567L50.1433 8.64874L50.1432 12.4758L47.5471 14.0678V16.0928L45.0937 17.5703H43.1336L39.404 19.668H31.3974L27.6679 17.5703H25.7078L23.2544 16.0928V14.0678Z" fill="black"/>
<path d="M31.4144 1.54651L27.6856 3.64397H25.7365L23.3424 5.08464V7.10794L20.7471 8.69693V12.4257L23.3424 14.0147V16.0486L25.7259 17.4893H27.6856L31.4144 19.5868H39.3805L43.1093 17.4893H45.0691L47.4632 16.0486V14.0147L50.0585 12.4257V8.69693L47.4632 7.10794V5.08464L45.0691 3.64397H43.1093L39.3805 1.54651H31.4144ZM31.6369 2.31981H39.1687L42.8975 4.41727H44.8466L46.6581 5.50838V7.53168L49.264 9.12067V12.002L46.6581 13.591V15.6143L44.8466 16.7054H42.8975L39.1687 18.8029H31.6369L27.9081 16.7054H25.9589L24.1369 15.6143V13.591L21.5416 12.002V9.12067L24.1369 7.53168V5.50838L25.9589 4.41727H27.9081L31.6369 2.31981Z" fill="#1E9A1C"/>
<path d="M35.3577 10.605V2.40332H31.6566L27.9268 4.50104H25.9825L24.2235 5.56028V7.58036L21.6274 9.17228V10.5194L35.4436 10.5193V18.7212H39.1447L42.8743 16.6234H44.8188L46.5777 15.5642V13.5442L49.1739 11.9522V10.6051L35.3577 10.605Z" fill="#FDD406"/>
<path d="M21.6271 10.6051L21.627 11.9522L24.2232 13.5442V15.5642L25.982 16.6234H27.9265L31.6561 18.7212H35.3574V10.5193L49.1735 10.5194V9.17228L46.5773 7.58036V5.56028L44.8185 4.50104H42.874L39.1444 2.40332H35.4432V10.605L21.6271 10.6051Z" fill="white"/>
<path d="M27.2906 5.25608L26.6515 4.6604L26.0182 5.05088L26.6584 5.64776L25.8364 6.15704H27.6302L29.176 7.61516L29.6705 7.09292L28.1675 5.67512V4.71272L27.2906 5.25608Z" fill="black"/>
<path d="M30.3155 4.99436L29.6764 4.39868L29.0431 4.78916L29.6833 5.38604L28.8613 5.89532H30.6551L32.2009 7.35345L32.6954 6.83121L31.1924 5.4134V4.451L30.3155 4.99436Z" fill="black"/>
<path d="M27.0688 6.96714L26.4297 6.37146L25.7965 6.76194L26.4366 7.35882L25.6147 7.8681H27.4085L28.9542 9.32622L29.4487 8.80398L27.9457 7.38618V6.42378L27.0688 6.96714Z" fill="black"/>
<path d="M35.4002 2.31775H33.7816L32.9346 3.13399H31.2835L30.0635 3.76723L30.348 4.46047L31.436 3.88903H31.9126L33.5808 5.81839L35.4002 4.71043L35.4002 2.31775Z" fill="black"/>
<path d="M26.6408 4.76758L27.2152 5.3029L26.734 5.60098L26.1588 5.06482L26.6408 4.76758ZM28.0819 4.86658V5.71198L29.5494 7.09629L29.1726 7.49421L27.6643 6.07138H26.1372L28.0819 4.86658Z" fill="#E23726"/>
<path d="M29.6657 4.50586L30.2401 5.04118L29.7589 5.33926L29.1838 4.8031L29.6657 4.50586ZM31.1068 4.60486V5.45026L32.5743 6.83457L32.1975 7.2325L30.6892 5.80978H29.1621L31.1068 4.60486Z" fill="#E23726"/>
<path d="M26.4193 6.47864L26.9935 7.01396L26.5123 7.31204L25.9372 6.77588L26.4193 6.47864ZM27.8602 6.57764V7.42304L29.3277 8.80735L28.951 9.20527L27.4428 7.78256H25.9155L27.8602 6.57764Z" fill="#E23726"/>
<path d="M35.3574 2.40332H33.8162L32.9692 3.21956H31.3044L30.1724 3.80708L30.3914 4.34084L31.4147 3.80348H31.9517L33.5981 5.70764L35.3574 4.6364L35.3574 2.40332Z" fill="#E23726"/>
<path d="M27.2906 15.8683L26.6515 16.464L26.0182 16.0735L26.6584 15.4766L25.8364 14.9673H27.6302L29.176 13.5092L29.6705 14.0315L28.1675 15.4493V16.4117L27.2906 15.8683Z" fill="black"/>
<path d="M30.3155 16.13L29.6764 16.7257L29.0431 16.3352L29.6833 15.7383L28.8613 15.2291H30.6551L32.2009 13.7709L32.6954 14.2932L31.1924 15.711V16.6734L30.3155 16.13Z" fill="black"/>
<path d="M27.0688 14.1572L26.4297 14.7529L25.7965 14.3625L26.4366 13.7656L25.6147 13.2563H27.4085L28.9542 11.7982L29.4487 12.3204L27.9457 13.7382V14.7006L27.0688 14.1572Z" fill="black"/>
<path d="M35.4002 18.8066H33.7816L32.9346 17.9904H31.2835L30.0635 17.3572L30.348 16.6639L31.436 17.2354H31.9126L33.5808 15.306L35.4002 16.414L35.4002 18.8066Z" fill="black"/>
<path d="M26.6408 16.3568L27.2152 15.8215L26.734 15.5234L26.1588 16.0596L26.6408 16.3568ZM28.0819 16.2578V15.4124L29.5494 14.0281L29.1726 13.6302L27.6643 15.053H26.1372L28.0819 16.2578Z" fill="#E23726"/>
<path d="M29.6657 16.6185L30.2401 16.0832L29.7589 15.7851L29.1838 16.3213L29.6657 16.6185ZM31.1068 16.5195V15.6741L32.5743 14.2898L32.1975 13.8919L30.6892 15.3146H29.1621L31.1068 16.5195Z" fill="#E23726"/>
<path d="M26.4193 14.6458L26.9935 14.1104L26.5123 13.8124L25.9372 14.3485L26.4193 14.6458ZM27.8602 14.5468V13.7014L29.3277 12.317L28.951 11.9191L27.4428 13.3418H25.9155L27.8602 14.5468Z" fill="#E23726"/>
<path d="M35.3574 18.7211H33.8162L32.9692 17.9048H31.3044L30.1724 17.3173L30.3914 16.7835L31.4147 17.3209H31.9517L33.5981 15.4167L35.3574 16.488L35.3574 18.7211Z" fill="#E23726"/>
<path d="M26.2118 7.94217L25.4401 7.65381L25.4216 7.66665L24.4251 8.35809V8.54397L22.8291 10.5622L24.4251 12.5805V12.7665L25.4401 13.4707L26.2118 13.1823L25.7408 12.8704V12.277L25.928 12.0531H26.7643V9.07137H25.928L25.7408 8.84745V8.25405L26.2118 7.94217Z" fill="black"/>
<path d="M24.511 8.40267L25.4522 7.74963L26.0246 7.96347L25.6553 8.20803V8.87847L25.8881 9.15687H26.6786V11.9675H25.8881L25.6553 12.2459V12.9164L26.0246 13.1609L25.4522 13.3748L24.511 12.7217L24.5111 12.5507L22.9385 10.5622L24.5111 8.57356L24.511 8.40267Z" fill="#E23726"/>
<path d="M43.5102 5.25608L44.1493 4.6604L44.7826 5.05088L44.1424 5.64776L44.9644 6.15704H43.1706L41.6248 7.61516L41.1302 7.09292L42.6332 5.67512V4.71272L43.5102 5.25608Z" fill="black"/>
<path d="M40.4853 4.99436L41.1244 4.39868L41.7577 4.78916L41.1175 5.38604L41.9395 5.89532H40.1457L38.5999 7.35345L38.1053 6.83121L39.6083 5.4134V4.451L40.4853 4.99436Z" fill="black"/>
<path d="M43.732 6.96714L44.3711 6.37146L45.0042 6.76194L44.3642 7.35882L45.186 7.8681H43.3923L41.8466 9.32622L41.352 8.80398L42.855 7.38618V6.42378L43.732 6.96714Z" fill="black"/>
<path d="M35.4006 2.31775H37.0192L37.8662 3.13399H39.5173L40.7373 3.76723L40.4528 4.46047L39.3647 3.88903H38.8882L37.22 5.81839L35.4006 4.71043L35.4006 2.31775Z" fill="black"/>
<path d="M44.1599 4.76758L43.5856 5.3029L44.0668 5.60098L44.642 5.06482L44.1599 4.76758ZM42.7189 4.86658V5.71198L41.2514 7.09629L41.6282 7.49421L43.1365 6.07138H44.6636L42.7189 4.86658Z" fill="#E23726"/>
<path d="M41.135 4.50586L40.5607 5.04118L41.0419 5.33926L41.617 4.8031L41.135 4.50586ZM39.694 4.60486V5.45026L38.2265 6.83457L38.6033 7.2325L40.1116 5.80978H41.6387L39.694 4.60486Z" fill="#E23726"/>
<path d="M44.3815 6.47864L43.8073 7.01396L44.2885 7.31204L44.8635 6.77588L44.3815 6.47864ZM42.9405 6.57764V7.42304L41.4731 8.80735L41.8497 9.20527L43.358 7.78256H44.8853L42.9405 6.57764Z" fill="#E23726"/>
<path d="M35.4434 2.40332H36.9846L37.8316 3.21956H39.4963L40.6284 3.80708L40.4094 4.34084L39.3861 3.80348H38.8491L37.2027 5.70764L35.4434 4.6364L35.4434 2.40332Z" fill="#E23726"/>
<path d="M43.5102 15.8683L44.1493 16.464L44.7826 16.0735L44.1424 15.4766L44.9644 14.9673H43.1706L41.6248 13.5092L41.1302 14.0315L42.6332 15.4493V16.4117L43.5102 15.8683Z" fill="black"/>
<path d="M40.4853 16.13L41.1244 16.7257L41.7577 16.3352L41.1175 15.7383L41.9395 15.2291H40.1457L38.5999 13.7709L38.1053 14.2932L39.6083 15.711V16.6734L40.4853 16.13Z" fill="black"/>
<path d="M43.732 14.1572L44.3711 14.7529L45.0042 14.3625L44.3642 13.7656L45.186 13.2563H43.3923L41.8466 11.7982L41.352 12.3204L42.855 13.7382V14.7006L43.732 14.1572Z" fill="black"/>
<path d="M35.4006 18.8066H37.0192L37.8662 17.9904H39.5173L40.7373 17.3572L40.4528 16.6639L39.3647 17.2354H38.8882L37.22 15.306L35.4006 16.414L35.4006 18.8066Z" fill="black"/>
<path d="M44.1599 16.3568L43.5856 15.8215L44.0668 15.5234L44.642 16.0596L44.1599 16.3568ZM42.7189 16.2578V15.4124L41.2514 14.0281L41.6282 13.6302L43.1365 15.053H44.6636L42.7189 16.2578Z" fill="#E23726"/>
<path d="M41.135 16.6185L40.5607 16.0832L41.0419 15.7851L41.617 16.3213L41.135 16.6185ZM39.694 16.5195V15.6741L38.2265 14.2898L38.6033 13.8919L40.1116 15.3146H41.6387L39.694 16.5195Z" fill="#E23726"/>
<path d="M44.3815 14.6458L43.8073 14.1104L44.2885 13.8124L44.8635 14.3485L44.3815 14.6458ZM42.9405 14.5468V13.7014L41.4731 12.317L41.8497 11.9191L43.358 13.3418H44.8853L42.9405 14.5468Z" fill="#E23726"/>
<path d="M35.4434 18.7211H36.9846L37.8316 17.9048H39.4963L40.6284 17.3173L40.4094 16.7835L39.3861 17.3209H38.8491L37.2027 15.4167L35.4434 16.488L35.4434 18.7211Z" fill="#E23726"/>
<path d="M44.589 7.94217L45.3607 7.65381L45.3792 7.66665L46.3757 8.35809V8.54397L47.9717 10.5622L46.3757 12.5805V12.7665L45.3607 13.4707L44.589 13.1823L45.06 12.8704V12.277L44.8728 12.0531H44.0365V9.07137H44.8728L45.06 8.84745V8.25405L44.589 7.94217Z" fill="black"/>
<path d="M46.2898 8.40267L45.3485 7.74963L44.7761 7.96347L45.1455 8.20803V8.87847L44.9127 9.15687H44.1221V11.9675H44.9127L45.1455 12.2459V12.9164L44.7761 13.1609L45.3485 13.3748L46.2898 12.7217L46.2897 12.5507L47.8623 10.5622L46.2897 8.57356L46.2898 8.40267Z" fill="#E23726"/>
<path d="M24.8418 12.2564L24.4073 11.8804V11.6992L23.4751 10.5622L24.4074 9.42511V9.24403L24.8419 8.86807L25.6224 9.50275L25.1719 9.49927L25.8375 10.1749H27.3585L28.5547 9.23947V6.77263H31.5464L35.0209 4.64047V4.08127L34.4895 3.72715H34.3212L33.7425 4.11439L33.6529 4.40323L33.2003 3.78523L34.08 3.04615H34.2206L35.2134 2.31775H35.5877L36.5803 3.04615H36.7211L37.6008 3.78523L37.1481 4.40323L37.0585 4.11439L36.4799 3.72715H36.3115L35.7801 4.08127V4.64047L39.2546 6.77263H42.2463V9.23947L43.4425 10.1749H44.9635L45.6292 9.49927L45.1787 9.50275L45.9592 8.86807L46.3937 9.24403V9.42511L47.3259 10.5622L46.3937 11.6992V11.8804L45.9592 12.2564L45.1787 11.6217L45.6292 11.6252L44.9635 10.9495H43.4425L42.2463 11.885V14.3518H39.2546L35.7801 16.484V17.0432L36.3115 17.3973H36.4799L37.0585 17.0101L37.1481 16.7212L37.6008 17.3391L36.7211 18.0783H36.5803L35.5877 18.8067H35.2134L34.2206 18.0783H34.08L33.2001 17.3391L33.6529 16.7212L33.7425 17.0101L34.3211 17.3973H34.4894L35.0209 17.0432V16.484L31.5464 14.3518H28.5547V11.885L27.3584 10.9495H25.8375L25.1719 11.6252L25.6224 11.6217L24.8418 12.2564Z" fill="black"/>
<path d="M35.4436 17.4638L35.8239 17.7546L35.4436 18.0453V17.4638ZM34.2349 17.9926H34.2489L35.2417 18.7212H35.3576V18.1528L34.8368 17.7546L35.3577 17.3563V16.2888L31.6399 14.0072H28.8915V11.7147L27.4725 10.605H25.3322L24.7942 11.2132L24.2563 10.605L23.6211 10.6051L24.493 11.6685V11.8412L24.8384 12.1412L25.3933 11.7092L25.0676 11.7117V11.6037L25.7933 10.8639H27.3881L28.6406 11.8434V14.2663H31.5709L35.1067 16.4361V17.0889L34.5155 17.4829H34.2951L33.6698 17.0643L33.6217 16.909L33.3167 17.3252L34.1114 17.9926L34.2349 17.9926ZM24.7947 10.0406L25.2183 10.5194H24.371L24.7947 10.0406ZM35.3578 3.07916L34.9778 3.36992L35.3578 3.66056V3.07916ZM45.5833 10.6051L46.0069 11.0839L46.4305 10.6051H45.5833ZM36.5524 3.13172L35.5597 2.40332H35.4437V2.9714L35.9648 3.36992L35.4436 3.76844V4.83572L39.1615 7.11728H41.9098V9.40976L43.3288 10.5195H45.4688L46.0069 9.91136L46.5449 10.5194H47.1802L46.3083 9.45596V9.28328L45.9629 8.98328L45.4081 9.41528L45.7337 9.41264V9.52076L45.008 10.2604H43.4132L42.1609 9.281V6.8582H39.2305L35.6947 4.68836V4.03544L36.2858 3.6416H36.5062L37.1315 4.06016L37.1797 4.21544L37.4846 3.79928L36.6899 3.13172L36.5524 3.13172Z" fill="#FDD406"/>
<path d="M35.3576 18.0452L34.9775 17.7546L35.3576 17.4639V18.0452ZM25.2181 10.6051L24.7945 11.0839L24.3709 10.6051H25.2181ZM36.5662 17.9926H36.5522L35.5594 18.7212H35.4435V18.5724V18.1531L35.9645 17.7546L35.4434 17.356V16.2888L39.1612 14.0072H41.9096V11.7147L43.3286 10.605H45.4687L46.0066 11.2132L46.5446 10.605L47.18 10.6051L46.3081 11.6685V11.8412L45.9627 12.1412L45.4078 11.7092L45.7335 11.7117V11.6037L45.0077 10.8639H43.4129L42.1606 11.8434V14.2663H39.2302L35.6944 16.4361V17.0889L36.2855 17.4829H36.506L37.1313 17.0643L37.1794 16.909L37.4843 17.3252L36.6897 17.9926L36.5662 17.9926ZM46.0066 10.0406L45.583 10.5194H46.4303L46.0066 10.0406ZM34.2489 3.13172L35.2417 2.40332H35.3577V2.9714L34.8365 3.36992L35.3577 3.76844L35.3578 4.83572L31.6399 7.11728H28.8916V9.40976L27.4725 10.5195H25.3319L24.794 9.91136L24.2559 10.5194H23.6211L24.4931 9.45596V9.28328L24.8385 8.98328L25.3933 9.41528L25.0676 9.41264V9.52076L25.7935 10.2604H27.3881L28.6406 9.281V6.8582H31.5709L35.1068 4.68836V4.03544L34.5157 3.6416H34.2951L33.6698 4.06016L33.6217 4.21544L33.3169 3.79928L34.1115 3.13172L34.2489 3.13172ZM35.4434 3.66068L35.8237 3.36992L35.4434 3.07916V3.66068Z" fill="white"/>
<path d="M35.3576 10.605V4.93604L31.6639 7.20284H28.9769V9.4514L27.6113 10.5194L35.4434 10.5193V16.1883L39.1369 13.9216H41.8238V11.6731L43.1894 10.6051L35.3576 10.605Z" fill="#1E9A1C"/>
<path d="M27.6113 10.605L28.9771 11.673V13.9215H31.6639L35.3577 16.1883V10.5191L43.1895 10.5193L41.8239 9.45127V7.20271H39.137L35.4435 4.93604V10.6049L27.6113 10.605Z" fill="#E23726"/>
<path d="M31.4247 7.81272L30.7857 7.21704L30.1525 7.6074L30.7927 8.20428L29.9707 8.71356H31.7645L33.3103 10.1718L33.8048 9.64945L32.3018 8.23164V7.26936L31.4247 7.81272Z" fill="black"/>
<path d="M39.376 13.3118L40.0152 13.9075L40.6483 13.517L40.0082 12.9202L40.8302 12.411H39.0363L37.4906 10.9528L36.9961 11.475L38.4991 12.8929V13.8552L39.376 13.3118Z" fill="black"/>
<path d="M31.4247 13.3118L30.7856 13.9075L30.1525 13.517L30.7926 12.9202L29.9707 12.411H31.7645L33.3102 10.9528L33.8047 11.475L32.3017 12.8929V13.8552L31.4247 13.3118Z" fill="black"/>
<path d="M39.376 7.81272L40.0152 7.21704L40.6483 7.6074L40.0082 8.20428L40.8302 8.71356H39.0363L37.4906 10.1718L36.9961 9.64945L38.4991 8.23164V7.26936L39.376 7.81272Z" fill="black"/>
<path d="M40.0254 13.8003L39.4512 13.265L39.9324 12.9669L40.5075 13.503L40.0254 13.8003ZM38.5845 13.7013V12.856L37.117 11.4717L37.4938 11.0736L39.0021 12.4965H40.5292L38.5845 13.7013ZM30.7751 7.32397L31.3494 7.85929L30.8681 8.15749L30.2931 7.62133L30.7751 7.32397ZM32.2162 7.42309V8.26837L33.6837 9.65269L33.3069 10.0507L31.7986 8.62789H30.2715L32.2162 7.42309Z" fill="#E23726"/>
<path d="M40.0256 7.32397L39.4514 7.85929L39.9326 8.15749L40.5076 7.62133L40.0256 7.32397ZM38.5846 7.42309V8.26837L37.1171 9.65269L37.4939 10.0507L39.0022 8.62789H40.5293L38.5846 7.42309ZM30.7752 13.8003L31.3494 13.265L30.8682 12.9669L30.2932 13.503L30.7752 13.8003ZM32.2162 13.7013V12.856L33.6837 11.4717L33.307 11.0736L31.7987 12.4965H30.2715L32.2162 13.7013Z" fill="#1E9A1C"/>
<path d="M39.3723 10.5624L35.4005 13.2094L31.4287 10.5624L35.4005 7.91516L39.3723 10.5624Z" fill="black"/>
<path d="M35.3579 8.04651L31.6476 10.5193H39.1539L35.4437 8.04651V13.0779L39.1541 10.605H31.6475L35.3579 13.0779V8.04651Z" fill="white"/>
<path d="M36.4627 11.4725V12.2003H34.3386V11.4725H32.9639V9.65187H34.3386V8.92407H36.4627V9.65187H37.8373V11.4725H36.4627Z" fill="black"/>
<path d="M34.4244 9.00965V9.73745H33.0498V10.5194H35.3579V9.00964L34.4244 9.00965ZM35.4437 10.5194H37.7518V9.73745H36.3772V9.00965H35.4437L35.4437 10.5194ZM33.0498 10.6051V11.387H34.4244V12.1148H35.3579V10.605L33.0498 10.6051ZM35.4437 12.1148H36.3772V11.387H37.7518V10.6051H35.4437V12.1148Z" fill="#E23726"/>
<path d="M42.1766 40.722V39.556H45.3743V38.39H48.5719V27.8537H45.3743V26.6877H42.1766V25.5216H38.979V24.3556H31.8225V25.5216H28.6249V26.6877H25.4271V27.8537H22.2295V38.39H25.4271V39.556H28.6249V40.722H31.8225V41.8881H38.979V40.722H42.1766Z" fill="black"/>
<path d="M31.9125 24.4386V25.6038H28.7132V26.7691H25.5141V27.9343H22.3149V38.3051H25.5141V39.4705H28.7132V40.6356H31.9125V41.8007H38.8932V40.6356H42.0925V39.4705H45.2918V38.3051H48.4908V27.9343H45.2918V26.7691H42.0925V25.6038H38.8932V24.4386H31.9125ZM32.76 25.2861H38.0457V26.4513H41.245V27.6166H44.4444V28.7818H47.6433V37.4576H44.4444V38.6231H41.245V39.7882H38.0457V40.9532H32.76V39.7882H29.5607V38.6231H26.3616V37.4576H23.1624V28.7818H26.3616V27.6166H29.5607V26.4513H32.76V25.2861Z" fill="#FDD406"/>
<path d="M29.6425 39.7038V38.5377H26.4448V37.3717H23.2471V28.8717H26.4448V27.7056H29.6425V26.5396H32.8401V25.3737H37.9603V26.5396H41.158V27.7056H44.3556V28.8717H47.5533V37.3717H44.3556V38.5377H41.158V39.7038H37.9603V40.8697H32.8401V39.7038H29.6425Z" fill="#E23726"/>
<path d="M30.385 27.4028L29.5567 26.7767V27.9789L28.7636 28.4829L28.7616 27.7304L28.0009 28.4136L27.2402 27.7304L27.2382 28.4829L26.3593 27.9244V29.039L25.649 29.5532L25.647 28.8698L24.8032 29.4809L23.9594 28.8698L23.9574 29.5532L23.1614 28.9769V32.3532H22.229V33.8901H23.1614V37.2664L23.9574 36.69L23.9594 37.3736L24.8032 36.7624L25.6469 37.3736L25.649 36.69L26.3592 37.2042V38.3189L27.2381 37.7604L27.2402 38.513L28.0008 37.8297L28.7615 38.513L28.7636 37.7604L29.5566 38.2643V39.4666L30.3849 38.8406L30.3867 39.6802L31.1984 38.9543L32.0102 39.6802L32.012 38.8406L32.7545 39.4018V40.684L33.8648 39.672V40.8612L35.4003 39.874L36.9359 40.8612V39.672L38.0462 40.684V39.4018L38.7886 38.8406L38.7904 39.6802L39.6022 38.9543L40.414 39.6802L40.4158 38.8406L41.2438 39.4666V38.2643L42.0371 37.7604L42.0391 38.513L42.7999 37.8297L43.5606 38.513L43.5626 37.7604L44.4416 38.3189V37.2042L45.1519 36.69L45.1539 37.3736L45.9976 36.7624L46.8414 37.3736L46.8434 36.69L47.6394 37.2663V33.8901H48.5718V32.3532H47.6394V28.9769L46.8434 29.5532L46.8414 28.8698L45.9976 29.4809L45.1538 28.8698L45.152 29.5532L44.4417 29.039V27.9244L43.5627 28.4829L43.5607 27.7304L42.8 28.4136L42.0392 27.7304L42.0372 28.4829L41.2439 27.9788V26.7767L40.4159 27.4026L40.4141 26.563L39.6023 27.289L38.7905 26.563L38.7887 27.4028L38.0462 26.8413V25.5593L36.936 26.5713V25.3821L35.4004 26.3693L33.8648 25.3821V26.5713L32.7546 25.5593V26.8414L32.012 27.4028L32.0102 26.563L31.1984 27.289L30.3868 26.563L30.385 27.4028Z" fill="black"/>
<path d="M24.0429 29.7208L24.0449 29.0372L24.8035 29.5867L24.829 29.5681L25.562 29.0372L25.564 29.7208L26.3596 29.1449V37.0985L25.564 36.5226L25.562 37.2061L24.8035 36.6566L24.0449 37.2061L24.0429 36.5226L23.2473 37.0985V33.8044H22.3149V32.439H23.2473V29.1449L24.0429 29.7208Z" fill="#1E9A1C"/>
<path d="M30.4719 26.7544L31.1984 27.4041L31.9249 26.7544L31.9267 27.5748L32.7545 26.949V39.2945L31.9267 38.6687L31.9249 39.4892L31.1984 38.8395L30.4719 39.4892L30.4703 38.6687L29.6426 39.2945V26.949L30.4703 27.5748L30.4719 26.7544Z" fill="#1E9A1C"/>
<path d="M40.3293 26.7544L39.6028 27.4041L38.8763 26.7544L38.8745 27.5748L38.0469 26.949V39.2945L38.8745 38.6687L38.8763 39.4892L39.6028 38.8395L40.3293 39.4892L40.3311 38.6687L41.1588 39.2945V26.949L40.3311 27.5748L40.3293 26.7544Z" fill="#1E9A1C"/>
<path d="M46.758 29.7208L46.756 29.0372L45.9975 29.5867L45.9718 29.5681L45.2389 29.0372L45.2369 29.7208L44.4414 29.1449V37.0985L45.2369 36.5226L45.2389 37.2061L45.9975 36.6566L46.756 37.2061L46.758 36.5226L47.5535 37.0985V33.8044H48.4859V32.439H47.5535V29.1449L46.758 29.7208Z" fill="#1E9A1C"/>
<path d="M27.3253 27.9221L28.0008 28.529L28.6763 27.9221L28.6783 28.6388L29.5568 28.0804V38.1629L28.6783 37.6047L28.6763 38.3212L28.0008 37.7145L27.3253 38.3212L27.3233 37.6047L26.4448 38.1629V28.0804L27.3233 28.6388L27.3253 27.9221Z" fill="#FDD406"/>
<path d="M33.9506 26.7653L32.8403 25.7534V40.4899L33.9506 39.4779V40.7042L35.4003 39.7721H35.4005L36.8503 40.7042V39.4779L37.9605 40.4899V25.7534L36.8503 26.7653V25.5391L35.4005 26.4711H35.4003L33.9506 25.5391V26.7653Z" fill="#FDD406"/>
<path d="M43.4757 27.9221L42.8002 28.529L42.1246 27.9221L42.1228 28.6388L41.2441 28.0804V38.1629L42.1228 37.6047L42.1246 38.3212L42.8002 37.7145L43.4757 38.3212L43.4777 37.6047L44.3562 38.1629V28.0804L43.4777 28.6388L43.4757 27.9221Z" fill="#FDD406"/>
<path d="M24.4584 31.6732C24.5554 31.7712 24.6715 31.8207 24.8032 31.8207C24.9349 31.8207 25.0509 31.7712 25.1481 31.6732C25.4518 31.3672 25.462 30.8138 25.459 30.4155C25.459 30.4155 25.1079 30.7866 25.0446 30.8535C25.0004 30.7772 24.8032 30.4368 24.8032 30.4368C24.8032 30.4368 24.6061 30.7772 24.5618 30.8535C24.4984 30.7866 24.1473 30.4155 24.1473 30.4155C24.1443 30.8138 24.1546 31.3672 24.4584 31.6732Z" fill="black"/>
<path d="M27.794 30.816L27.5382 30.5604V30.0511L26.9507 30.5956L28.0009 31.6459L29.0512 30.5956L28.4636 30.0511V30.5604L28.2079 30.816V29.9137L28.6609 29.5248L28.0009 28.958L27.3409 29.5248L27.794 29.9137V30.816Z" fill="black"/>
<path d="M30.9917 29.804L30.736 29.5483V29.039L30.1484 29.5836L31.1987 30.6338L32.2489 29.5836L31.6614 29.039V29.5483L31.4056 29.804V28.9016L31.8587 28.5127L31.1987 27.946L30.5387 28.5127L30.9917 28.9016V29.804Z" fill="black"/>
<path d="M24.8037 30.6078C24.8561 30.6983 25.0283 30.9957 25.0283 30.9957C25.0283 30.9957 25.271 30.7392 25.3701 30.6347C25.3582 31.0844 25.2595 31.4397 25.0877 31.6127C25.0072 31.6938 24.9117 31.7349 24.8037 31.7349C24.6956 31.7349 24.6001 31.6938 24.5197 31.6128C24.3479 31.4397 24.2492 31.0844 24.2373 30.6347C24.3363 30.7393 24.5789 30.9957 24.5789 30.9957C24.6538 30.8664 24.7288 30.737 24.8037 30.6078Z" fill="white"/>
<path d="M31.3199 28.8624V30.011L31.7471 29.5839V29.2354L32.1254 29.5861L31.1987 30.5127L30.272 29.5861L30.6502 29.2354V29.5839L31.0774 30.011V28.8624L30.6703 28.5128L31.1987 28.0591L31.7271 28.5128L31.3199 28.8624Z" fill="white"/>
<path d="M28.1222 29.8744V31.0231L28.5494 30.5959V30.2475L28.9276 30.598L28.0009 31.5248L27.0742 30.598L27.4525 30.2475V30.5959L27.8797 31.0231V29.8744L27.4725 29.5249L28.0009 29.0712L28.5293 29.5249L28.1222 29.8744Z" fill="#E23726"/>
<path d="M46.3419 31.6732C46.2449 31.7712 46.1288 31.8207 45.9971 31.8207C45.8654 31.8207 45.7494 31.7712 45.6522 31.6732C45.3485 31.3672 45.3383 30.8138 45.3413 30.4155C45.3413 30.4155 45.6924 30.7866 45.7557 30.8535C45.7999 30.7772 45.9971 30.4368 45.9971 30.4368C45.9971 30.4368 46.1942 30.7772 46.2385 30.8535C46.3019 30.7866 46.653 30.4155 46.653 30.4155C46.656 30.8138 46.6457 31.3672 46.3419 31.6732Z" fill="black"/>
<path d="M43.0062 30.816L43.2621 30.5604V30.0511L43.8496 30.5956L42.7994 31.6459L41.7491 30.5956L42.3367 30.0511V30.5604L42.5924 30.816V29.9137L42.1394 29.5248L42.7994 28.958L43.4594 29.5248L43.0062 29.9137V30.816Z" fill="black"/>
<path d="M39.8091 29.804L40.0648 29.5483V29.039L40.6523 29.5836L39.6021 30.6338L38.5519 29.5836L39.1394 29.039V29.5483L39.3952 29.804V28.9016L38.9421 28.5127L39.6021 27.946L40.2621 28.5127L39.8091 28.9016V29.804Z" fill="black"/>
<path d="M45.9971 30.6078C45.9446 30.6983 45.7724 30.9957 45.7724 30.9957C45.7724 30.9957 45.5298 30.7392 45.4307 30.6347C45.4426 31.0844 45.5413 31.4397 45.713 31.6127C45.7936 31.6938 45.8891 31.7349 45.9971 31.7349C46.1052 31.7349 46.2007 31.6938 46.2811 31.6128C46.4528 31.4397 46.5516 31.0844 46.5635 30.6347C46.4645 30.7393 46.2218 30.9957 46.2218 30.9957C46.147 30.8664 46.072 30.737 45.9971 30.6078Z" fill="white"/>
<path d="M39.4804 28.8624V30.011L39.0532 29.5839V29.2354L38.6749 29.5861L39.6016 30.5127L40.5283 29.5861L40.1501 29.2354V29.5839L39.7229 30.011V28.8624L40.13 28.5128L39.6016 28.0591L39.0732 28.5128L39.4804 28.8624Z" fill="white"/>
<path d="M42.6781 29.8744V31.0231L42.2509 30.5959V30.2475L41.8727 30.598L42.7994 31.5248L43.7261 30.598L43.3478 30.2475V30.5959L42.9206 31.0231V29.8744L43.3278 29.5249L42.7994 29.0712L42.271 29.5249L42.6781 29.8744Z" fill="#E23726"/>
<path d="M36.6569 30.1874L36.3129 29.712L37.1951 28.8975L36.3725 28.2217V28.7005L36.0285 28.9949V28.1264L36.8056 27.5537L35.3998 26.5175L33.994 27.5537L34.7713 28.1264V28.9949L34.4272 28.7005V28.2217L33.6045 28.8975L34.4869 29.712L34.1428 30.1874H36.6569Z" fill="black"/>
<path d="M34.3115 30.1017L34.6016 29.7006L33.7358 28.9014L34.3422 28.4031V28.74L34.8577 29.1811V28.0831L34.1393 27.5537L35.4006 26.624L36.6619 27.5537L35.9436 28.0831V29.1811L36.459 28.74V28.4031L37.0655 28.9014L36.1997 29.7006L36.49 30.1017H34.3115Z" fill="#E23726"/>
<path d="M34.7578 27.5538L35.4002 28.0272L36.0427 27.5538L35.4002 27.0803L35.3747 27.0992L34.7578 27.5538Z" fill="black"/>
<path d="M35.4002 27.1868C35.4427 27.218 35.8231 27.4984 35.8982 27.5537C35.8231 27.609 35.4427 27.8895 35.4002 27.9207C35.3579 27.8895 34.9773 27.609 34.9023 27.5537C34.9773 27.4984 35.3579 27.218 35.4002 27.1868Z" fill="#1E9A1C"/>
<path d="M24.4584 34.57C24.5554 34.4721 24.6715 34.4226 24.8032 34.4226C24.9349 34.4226 25.0509 34.4721 25.1481 34.57C25.4518 34.876 25.462 35.4295 25.459 35.8278C25.459 35.8278 25.1079 35.4567 25.0446 35.3898C25.0004 35.4661 24.8032 35.8065 24.8032 35.8065C24.8032 35.8065 24.6061 35.4661 24.5618 35.3898C24.4984 35.4567 24.1473 35.8278 24.1473 35.8278C24.1443 35.4295 24.1546 34.876 24.4584 34.57Z" fill="black"/>
<path d="M27.794 35.4272L27.5382 35.6828V36.1921L26.9507 35.6475L28.0009 34.5973L29.0512 35.6475L28.4636 36.1921V35.6828L28.2079 35.4272V36.3295L28.6609 36.7184L28.0009 37.2852L27.3409 36.7184L27.794 36.3295V35.4272Z" fill="black"/>
<path d="M30.9917 36.4393L30.736 36.695V37.2043L30.1484 36.6597L31.1987 35.6095L32.2489 36.6597L31.6614 37.2043V36.695L31.4056 36.4393V37.3417L31.8587 37.7306L31.1987 38.2972L30.5387 37.7306L30.9917 37.3417V36.4393Z" fill="black"/>
<path d="M24.8037 35.6355C24.8561 35.545 25.0283 35.2475 25.0283 35.2475C25.0283 35.2475 25.271 35.5041 25.3701 35.6086C25.3582 35.1589 25.2595 34.8035 25.0877 34.6306C25.0072 34.5495 24.9117 34.5083 24.8037 34.5083C24.6956 34.5083 24.6001 34.5495 24.5197 34.6305C24.3479 34.8035 24.2492 35.1589 24.2373 35.6086C24.3363 35.504 24.5789 35.2475 24.5789 35.2475C24.6538 35.3769 24.7288 35.5063 24.8037 35.6355Z" fill="white"/>
<path d="M31.3199 37.3809V36.2323L31.7471 36.6594V37.0078L32.1254 36.6572L31.1987 35.7306L30.272 36.6572L30.6502 37.0078V36.6594L31.0774 36.2323V37.3809L30.6703 37.7305L31.1987 38.1842L31.7271 37.7305L31.3199 37.3809Z" fill="white"/>
<path d="M28.1222 36.3688V35.2202L28.5494 35.6474V35.9958L28.9276 35.6452L28.0009 34.7185L27.0742 35.6452L27.4525 35.9958V35.6474L27.8797 35.2202V36.3688L27.4725 36.7184L28.0009 37.1721L28.5293 36.7184L28.1222 36.3688Z" fill="#E23726"/>
<path d="M46.3419 34.57C46.2449 34.4721 46.1288 34.4226 45.9971 34.4226C45.8654 34.4226 45.7494 34.4721 45.6522 34.57C45.3485 34.876 45.3383 35.4295 45.3413 35.8278C45.3413 35.8278 45.6924 35.4567 45.7557 35.3898C45.7999 35.4661 45.9971 35.8065 45.9971 35.8065C45.9971 35.8065 46.1942 35.4661 46.2385 35.3898C46.3019 35.4567 46.653 35.8278 46.653 35.8278C46.656 35.4295 46.6457 34.876 46.3419 34.57Z" fill="black"/>
<path d="M43.0062 35.4273L43.2621 35.6829V36.1922L43.8496 35.6476L42.7994 34.5974L41.7491 35.6476L42.3367 36.1922V35.6829L42.5924 35.4273V36.3296L42.1394 36.7185L42.7994 37.2853L43.4594 36.7185L43.0062 36.3296V35.4273Z" fill="black"/>
<path d="M39.8091 36.4393L40.0648 36.695V37.2043L40.6523 36.6597L39.6021 35.6095L38.5519 36.6597L39.1394 37.2043V36.695L39.3952 36.4393V37.3417L38.9421 37.7306L39.6021 38.2972L40.2621 37.7306L39.8091 37.3417V36.4393Z" fill="black"/>
<path d="M45.9971 35.6355C45.9446 35.545 45.7724 35.2475 45.7724 35.2475C45.7724 35.2475 45.5298 35.5041 45.4307 35.6086C45.4426 35.1589 45.5413 34.8035 45.713 34.6306C45.7936 34.5495 45.8891 34.5083 45.9971 34.5083C46.1052 34.5083 46.2007 34.5495 46.2811 34.6305C46.4528 34.8035 46.5516 35.1589 46.5635 35.6086C46.4645 35.504 46.2218 35.2475 46.2218 35.2475C46.147 35.3769 46.072 35.5063 45.9971 35.6355Z" fill="white"/>
<path d="M39.4804 37.3809V36.2323L39.0532 36.6594V37.0078L38.6749 36.6572L39.6016 35.7306L40.5283 36.6572L40.1501 37.0078V36.6594L39.7229 36.2323V37.3809L40.13 37.7305L39.6016 38.1842L39.0732 37.7305L39.4804 37.3809Z" fill="white"/>
<path d="M42.6781 36.3688V35.2202L42.2509 35.6474V35.9958L41.8727 35.6452L42.7994 34.7185L43.7261 35.6452L43.3478 35.9958V35.6474L42.9206 35.2202V36.3688L43.3278 36.7184L42.7994 37.1721L42.271 36.7184L42.6781 36.3688Z" fill="#E23726"/>
<path d="M36.6569 36.0559L36.3129 36.5313L37.1951 37.3458L36.3725 38.0216V37.5428L36.0285 37.2484V38.1169L36.8056 38.6896L35.3998 39.7258L33.994 38.6896L34.7713 38.1169V37.2484L34.4272 37.5428V38.0216L33.6045 37.3458L34.4869 36.5313L34.1428 36.0559H36.6569Z" fill="black"/>
<path d="M34.3115 36.1414L34.6016 36.5426L33.7358 37.3418L34.3422 37.84V37.5032L34.8577 37.0621V38.1601L34.1393 38.6895L35.4006 39.6191L36.6619 38.6895L35.9436 38.1601V37.0621L36.459 37.5032V37.84L37.0655 37.3418L36.1997 36.5426L36.49 36.1414H34.3115Z" fill="#E23726"/>
<path d="M34.7578 38.6894L35.4002 38.216L36.0427 38.6894L35.4002 39.163L35.3747 39.1441L34.7578 38.6894Z" fill="black"/>
<path d="M35.4002 39.0564C35.4427 39.0252 35.8231 38.7448 35.8982 38.6894C35.8231 38.6341 35.4427 38.3537 35.4002 38.3225C35.3579 38.3537 34.9773 38.6341 34.9023 38.6894C34.9773 38.7448 35.3579 39.0252 35.4002 39.0564Z" fill="#1E9A1C"/>
<path d="M46.7814 32.63H45.3739V32.069H41.0718L38.0769 30.1018H38.0642H32.724L29.7293 32.069H25.427V32.63H24.0195V33.6135H25.427V34.1745H29.7293L32.724 36.1418H38.0769L41.0718 34.1745H45.3739V33.6135H46.7814V32.63Z" fill="black"/>
<path d="M32.7495 30.1907L29.7516 32.1504H25.5144V32.7119H24.1055V33.5275H25.5144V34.089H29.7516L32.7495 36.0593H38.0567L41.044 34.089H45.2918V33.5275H46.7007V32.7119H45.2918V32.1504H41.044L38.0567 30.1907H32.7495ZM32.8131 30.4767H37.9826L40.7262 32.2775V32.553H43.7877V33.697H40.7262V33.9725L37.9826 35.7627H32.8131L30.08 33.9725V33.697H27.008V32.553H30.08V32.2775L32.8131 30.4767Z" fill="#E23726"/>
<path d="M37.9607 30.5652L40.6364 32.3219V32.6336H43.7028V33.6097H40.6364V33.9216L37.9607 35.6783H32.8398L30.164 33.9216V33.6097H27.0977V32.6336H30.164V32.3219L32.8398 30.5652H37.9607Z" fill="#E23726"/>
<path d="M31.5112 34.1196L32.6698 34.9894L33.432 34.4171L32.9889 34.0845L32.6698 34.3241L32.3974 34.1196L36.7605 30.8439H35.8744L31.5112 34.1196ZM34.0402 35.3998H34.9263L39.2895 32.124L38.131 31.2544L37.3688 31.8265L37.8118 32.1591L38.131 31.9194L38.4034 32.124L34.0402 35.3998ZM35.8744 35.3998H36.7604L32.3974 32.124L32.6698 31.9194L32.9889 32.1591L33.432 31.8265L32.6698 31.2544L31.5112 32.124L35.8744 35.3998ZM38.4034 34.1196L38.131 34.3241L37.8118 34.0845L37.3688 34.4171L38.131 34.9894L39.2895 34.1196L34.9263 30.8439H34.0402L38.4034 34.1196Z" fill="black"/>
<path d="M30.6338 33.1218L31.4125 33.639L32.1911 33.1218L31.4125 32.6046L30.6338 33.1218Z" fill="black"/>
<path d="M34.6216 33.1218L35.4003 33.639L36.1789 33.1218L35.4003 32.6046L34.6216 33.1218Z" fill="black"/>
<path d="M40.1677 33.1218L39.389 33.639L38.6104 33.1218L39.389 32.6046L40.1677 33.1218Z" fill="black"/>
<path d="M39.147 34.1197L38.1313 34.8822L37.5117 34.4171L37.8121 34.1916L38.1313 34.4313L38.5464 34.1197L34.2974 30.9297H34.898L39.147 34.1197ZM36.5037 35.314H35.9033L31.6543 32.124L32.6701 31.3614L33.2894 31.8266L32.9892 32.0519L32.6701 31.8123L32.2549 32.124L36.5037 35.314ZM34.898 35.314H34.2974L38.5464 32.124L38.1313 31.8123L37.8121 32.0519L37.5117 31.8266L38.1313 31.3614L39.147 32.124L34.898 35.314ZM35.9033 30.9297H36.5037L32.2549 34.1196L32.6701 34.4313L32.9892 34.1916L33.2894 34.4171L32.6701 34.8822L31.6543 34.1196L35.9033 30.9297Z" fill="#FDD406"/>
<path d="M31.4123 32.7076L32.0361 33.1219L31.4123 33.5361L30.7886 33.1219L31.4123 32.7076Z" fill="#1E9A1C"/>
<path d="M35.4005 32.7076L36.0243 33.1219L35.4005 33.5361L34.7769 33.1219L35.4005 32.7076Z" fill="#1E9A1C"/>
<path d="M39.3889 32.7076L38.7651 33.1219L39.3889 33.5361L40.0125 33.1219L39.3889 32.7076Z" fill="#1E9A1C"/>
<path d="M21.7036 54.8302L21.3981 55.2623L21.9457 55.6811L21.3979 56.1L21.7035 56.5321L22.3398 56.6061L22.956 56.1299L24.4924 57.1059V56.2954L23.5254 55.6811L24.4924 55.0669V54.2565L22.956 55.2324L22.3398 54.7564L21.7036 54.8302Z" fill="black"/>
<path d="M21.7036 52.0145L21.3981 52.4468L21.9457 52.8656L21.3979 53.2844L21.7035 53.7166L22.3398 53.7904L22.956 53.3142L24.4924 54.2903V53.4797L23.5254 52.8656L24.4924 52.2513V51.4408L22.956 52.4168L22.3398 51.9407L21.7036 52.0145Z" fill="black"/>
<path d="M21.7036 59.3477L21.3981 58.9156L21.9457 58.4968L21.3979 58.0779L21.7035 57.6457L22.3398 57.5719L22.956 58.048L24.4924 57.072V57.8825L23.5254 58.4968L24.4924 59.1109V59.9214L22.956 58.9455L22.3398 59.4216L21.7036 59.3477Z" fill="black"/>
<path d="M49.0975 54.8301L49.403 55.2622L48.8554 55.681L49.403 56.0999L49.0975 56.532L48.4613 56.6059L47.8451 56.1298L46.3086 57.1057V56.2953L47.2757 55.681L46.3086 55.0668V54.2563L47.8451 55.2323L48.4613 54.7563L49.0975 54.8301Z" fill="black"/>
<path d="M49.0975 52.0146L49.403 52.4469L48.8554 52.8657L49.403 53.2845L49.0975 53.7167L48.4613 53.7905L47.8451 53.3144L46.3086 54.2904V53.4798L47.2757 52.8657L46.3086 52.2514V51.4409L47.8451 52.4169L48.4613 51.9408L49.0975 52.0146Z" fill="black"/>
<path d="M49.0975 59.3477L49.403 58.9156L48.8554 58.4968L49.403 58.0779L49.0975 57.6457L48.4613 57.5719L47.8451 58.048L46.3086 57.072V57.8825L47.2757 58.4968L46.3086 59.1109V59.9214L47.8451 58.9455L48.4613 59.4216L49.0975 59.3477Z" fill="black"/>
<path d="M42.9463 47.146V48.3172H43.7982V48.8348H44.635V47.8923H43.8886V47.146H42.9463Z" fill="black"/>
<path d="M45.4575 48.9929V50.164H46.3086V50.6817H47.1463V49.7392H46.4V48.9929H45.4575Z" fill="black"/>
<path d="M27.8548 47.146V48.3172H27.0027V48.8348H26.166V47.8923H26.9123V47.146H27.8548Z" fill="black"/>
<path d="M42.9463 64.2166V63.0454H43.7982V62.5278H44.635V63.4702H43.8886V64.2166H42.9463Z" fill="black"/>
<path d="M27.8548 64.2166V63.0454H27.0027V62.5278H26.166V63.4702H26.9123V64.2166H27.8548Z" fill="black"/>
<path d="M45.4575 62.3695V61.1985H46.3086V60.6808H47.1463V61.6231H46.4V62.3695H45.4575Z" fill="black"/>
<path d="M25.3435 48.9929V50.164H24.4923V50.6817H23.6548V49.7392H24.4011V48.9929H25.3435Z" fill="black"/>
<path d="M25.3435 62.3695V61.1985H24.4923V60.6808H23.6548V61.6231H24.4011V62.3695H25.3435Z" fill="black"/>
<path d="M38.5513 47.1187C38.4969 47.0659 37.9011 46.4875 37.9011 46.4875L37.2625 47.0793C37.2625 47.0793 37.7629 47.5649 37.8191 47.6196L37.1006 48.3172H38.1674L38.5513 47.9445L38.9351 48.3172H40.0018L39.2833 47.6196C39.3395 47.5649 39.8398 47.0793 39.8398 47.0793L39.2013 46.4875C38.9843 46.6977 38.7679 46.9083 38.5513 47.1187Z" fill="black"/>
<path d="M35.4003 47.1187C35.346 47.0659 34.7502 46.4875 34.7502 46.4875L34.1116 47.0793C34.1116 47.0793 34.6119 47.5649 34.6683 47.6196L33.9497 48.3172H35.0164L35.4003 47.9445L35.7841 48.3172H36.8508L36.1324 47.6196C36.1887 47.5649 36.6889 47.0793 36.6889 47.0793L36.0504 46.4875C35.8335 46.6977 35.617 46.9083 35.4003 47.1187Z" fill="black"/>
<path d="M32.2494 47.1187C32.3037 47.0659 32.8995 46.4875 32.8995 46.4875L33.5382 47.0793C33.5382 47.0793 33.0378 47.5649 32.9815 47.6196L33.7001 48.3172H32.6333L32.2494 47.9445L31.8655 48.3172H30.7988L31.5174 47.6196C31.4611 47.5649 30.9607 47.0793 30.9607 47.0793L31.5993 46.4875C31.8163 46.6977 32.0328 46.9083 32.2494 47.1187Z" fill="black"/>
<path d="M38.5513 64.2437C38.4969 64.2964 37.9011 64.8748 37.9011 64.8748L37.2625 64.2831C37.2625 64.2831 37.7629 63.7976 37.8191 63.7428L37.1006 63.0453H38.1674L38.5513 63.418L38.9351 63.0453H40.0018L39.2833 63.7428C39.3395 63.7976 39.8398 64.2831 39.8398 64.2831L39.2013 64.8748C38.9843 64.6647 38.7679 64.4541 38.5513 64.2437Z" fill="black"/>
<path d="M35.4003 64.2437C35.346 64.2964 34.7502 64.8748 34.7502 64.8748L34.1116 64.2831C34.1116 64.2831 34.6119 63.7976 34.6683 63.7428L33.9497 63.0453H35.0164L35.4003 63.418L35.7841 63.0453H36.8508L36.1324 63.7428C36.1887 63.7976 36.6889 64.2831 36.6889 64.2831L36.0504 64.8748C35.8335 64.6647 35.617 64.4541 35.4003 64.2437Z" fill="black"/>
<path d="M32.2494 64.2437C32.3037 64.2964 32.8995 64.8748 32.8995 64.8748L33.5382 64.2831C33.5382 64.2831 33.0378 63.7976 32.9815 63.7428L33.7001 63.0453H32.6333L32.2494 63.418L31.8655 63.0453H30.7988L31.5174 63.7428C31.4611 63.7976 30.9607 64.2831 30.9607 64.2831L31.5993 64.8748C31.8163 64.6647 32.0328 64.4541 32.2494 64.2437Z" fill="black"/>
<path d="M24.4067 56.3426V56.9499L22.9511 56.0253L22.3149 56.5169L21.7513 56.4515L21.5156 56.118L22.0868 55.6812L21.5156 55.2444L21.7514 54.911L22.3149 54.8456L22.9511 55.3371L24.4067 54.4125V55.0198L23.3654 55.6812L24.4067 56.3426Z" fill="#1E9A1C"/>
<path d="M24.4067 53.5269V54.1343L22.9511 53.2097L22.3149 53.7012L21.7513 53.6358L21.5156 53.3024L22.0868 52.8656L21.5156 52.4289L21.7514 52.0954L22.3149 52.0299L22.9511 52.5214L24.4067 51.5969V52.2042L23.3654 52.8656L24.4067 53.5269Z" fill="#1E9A1C"/>
<path d="M24.4067 57.8355V57.2281L22.9511 58.1528L22.3149 57.6611L21.7513 57.7265L21.5156 58.06L22.0868 58.4968L21.5156 58.9336L21.7514 59.2671L22.3149 59.3325L22.9511 58.841L24.4067 59.7656V59.1582L23.3654 58.4968L24.4067 57.8355Z" fill="#1E9A1C"/>
<path d="M46.394 56.3426V56.9499L47.8496 56.0253L48.4856 56.5169L49.0493 56.4515L49.285 56.118L48.7138 55.6812L49.285 55.2444L49.0493 54.911L48.4856 54.8456L47.8496 55.3371L46.394 54.4125V55.0198L47.4352 55.6812L46.394 56.3426Z" fill="#1E9A1C"/>
<path d="M46.394 53.5269V54.1343L47.8496 53.2097L48.4856 53.7012L49.0493 53.6358L49.285 53.3024L48.7138 52.8656L49.285 52.4289L49.0493 52.0954L48.4856 52.0299L47.8496 52.5214L46.394 51.5969V52.2042L47.4352 52.8656L46.394 53.5269Z" fill="#1E9A1C"/>
<path d="M46.394 57.8355V57.2281L47.8496 58.1528L48.4856 57.6611L49.0493 57.7265L49.285 58.06L48.7138 58.4968L49.285 58.9336L49.0493 59.2671L48.4856 59.3325L47.8496 58.841L46.394 59.7656V59.1582L47.4352 58.4968L46.394 57.8355Z" fill="#1E9A1C"/>
<path d="M43.8032 47.2317V47.9781H44.5495V48.7491H43.8842V48.2315H43.0322V47.2317H43.8032Z" fill="#1E9A1C"/>
<path d="M46.314 49.0785V49.8248H47.0602V50.5959H46.3948V50.0783H45.543V49.0785H46.314Z" fill="#1E9A1C"/>
<path d="M26.9982 47.2317V47.9781H26.252V48.7491H26.9174V48.2315H27.7692V47.2317H26.9982Z" fill="#1E9A1C"/>
<path d="M43.8032 64.1306V63.3843H44.5495V62.6133H43.8842V63.1308H43.0322V64.1306H43.8032Z" fill="#1E9A1C"/>
<path d="M26.9979 64.1306V63.3843H26.2515V62.6133H26.9169V63.1308H27.7689V64.1306H26.9979Z" fill="#1E9A1C"/>
<path d="M46.314 62.2838V61.5375H47.0602V60.7665H46.3948V61.284H45.543V62.2838H46.314Z" fill="#1E9A1C"/>
<path d="M24.487 49.0785V49.8248H23.7407V50.5959H24.4061V50.0783H25.258V49.0785H24.487Z" fill="#1E9A1C"/>
<path d="M24.4871 62.2838V61.5375H23.7407V60.7665H24.4061V61.284H25.2581V62.2838H24.4871Z" fill="#1E9A1C"/>
<path d="M37.9003 46.6057C37.9534 46.6573 38.5517 47.2381 38.5517 47.2381C38.5517 47.2381 39.1499 46.6573 39.2031 46.6057C39.2535 46.6523 39.6602 47.0291 39.7159 47.0807C39.6583 47.1365 39.1606 47.6196 39.1606 47.6196L39.7909 48.2315H38.9704L38.5517 47.8249L38.1329 48.2315H37.3125L37.9427 47.6196C37.9427 47.6196 37.4451 47.1365 37.3875 47.0807C37.4432 47.0291 37.8499 46.6523 37.9003 46.6057Z" fill="#1E9A1C"/>
<path d="M34.749 46.6057C34.8022 46.6573 35.4004 47.2381 35.4004 47.2381C35.4004 47.2381 35.9986 46.6573 36.0519 46.6057C36.1023 46.6523 36.5088 47.0291 36.5645 47.0807C36.507 47.1365 36.0094 47.6196 36.0094 47.6196L36.6396 48.2315H35.8191L35.4004 47.8249L34.9817 48.2315H34.1611L34.7914 47.6196C34.7914 47.6196 34.2937 47.1365 34.2363 47.0807C34.2919 47.0291 34.6986 46.6523 34.749 46.6057Z" fill="#1E9A1C"/>
<path d="M32.9013 46.6057C32.8481 46.6573 32.2499 47.2381 32.2499 47.2381C32.2499 47.2381 31.6517 46.6573 31.5985 46.6057C31.5481 46.6523 31.1414 47.0291 31.0857 47.0807C31.1433 47.1365 31.641 47.6196 31.641 47.6196L31.0107 48.2315H31.8312L32.2499 47.8249L32.6687 48.2315H33.4891L32.8589 47.6196C32.8589 47.6196 33.3565 47.1365 33.4141 47.0807C33.3584 47.0291 32.9517 46.6523 32.9013 46.6057Z" fill="#1E9A1C"/>
<path d="M37.9003 64.7567C37.9534 64.705 38.5517 64.1242 38.5517 64.1242C38.5517 64.1242 39.1499 64.705 39.2031 64.7567C39.2535 64.7101 39.6602 64.3333 39.7159 64.2818C39.6583 64.2259 39.1606 63.7429 39.1606 63.7429L39.7909 63.131H38.9704L38.5517 63.5374L38.1329 63.131H37.3125L37.9427 63.7429C37.9427 63.7429 37.4451 64.2259 37.3875 64.2818C37.4432 64.3333 37.8499 64.7101 37.9003 64.7567Z" fill="#1E9A1C"/>
<path d="M34.749 64.7567C34.8022 64.705 35.4004 64.1242 35.4004 64.1242C35.4004 64.1242 35.9986 64.705 36.0519 64.7567C36.1023 64.7101 36.5088 64.3333 36.5645 64.2818C36.507 64.2259 36.0094 63.7429 36.0094 63.7429L36.6396 63.131H35.8191L35.4004 63.5374L34.9817 63.131H34.1611L34.7914 63.7429C34.7914 63.7429 34.2937 64.2259 34.2363 64.2818C34.2919 64.3333 34.6986 64.7101 34.749 64.7567Z" fill="#1E9A1C"/>
<path d="M32.9013 64.7567C32.8481 64.705 32.2499 64.1242 32.2499 64.1242C32.2499 64.1242 31.6517 64.705 31.5985 64.7567C31.5481 64.7101 31.1414 64.3333 31.0857 64.2818C31.1433 64.2259 31.641 63.7429 31.641 63.7429L31.0107 63.131H31.8312L32.2499 63.5374L32.6687 63.131H33.4891L32.8589 63.7429C32.8589 63.7429 33.3565 64.2259 33.4141 64.2818C33.3584 64.3333 32.9517 64.7101 32.9013 64.7567Z" fill="#1E9A1C"/>
<path d="M26.9169 61.2841V63.1309H43.8841V61.2841H46.3942V50.0782H43.8841V48.2314H26.9169V50.0782H24.4067V61.2841H26.9169Z" fill="black"/>
<path d="M27.0077 48.3155V50.1589H24.4971V61.1969H27.0077V63.0403H43.7978V61.1969H46.3086V50.1588H43.7978V48.3154L27.0077 48.3155ZM28.0882 49.0254H42.7175V50.805L43.3212 51.2501H45.5988V60.1165H43.3107L42.7175 60.5508V62.341H28.0882V60.5613L27.4844 60.1165H25.1962V51.2501H27.4738L28.0882 50.805L28.0882 49.0254Z" fill="#FDD406"/>
<path d="M28.1729 49.1101V50.7416L30.3763 49.1101H28.1729ZM40.4185 49.1101L42.6219 50.7416V49.1101H40.4185ZM25.2916 51.3349V52.8603L27.3678 51.3349H25.2916ZM43.4273 51.3349L45.5141 52.8708V51.3349H43.4273ZM45.5141 58.485L43.4273 60.0318H45.5141V58.485ZM25.2915 58.4955V60.0318H27.3678L25.2915 58.4955ZM28.1729 60.625V62.2457H30.3656L28.1729 60.625ZM42.6218 60.625L40.4293 62.2457H42.6218V60.625Z" fill="#E23726"/>
<path d="M40.2764 49.1118C40.299 49.1284 45.4795 52.9547 45.514 52.9801V58.3822C45.4795 58.4077 40.299 62.2339 40.2764 62.2506H30.5245C30.5021 62.2339 25.3215 58.4077 25.2871 58.3822V52.9801C25.3215 52.9547 30.5021 49.1284 30.5245 49.1118H40.2764Z" fill="#1E9A1C"/>
<path d="M26.5343 59.0042L25.9321 58.3053L26.4974 57.6493L25.9321 56.9932L26.4974 56.3373L25.9321 55.6813L26.4974 55.0252L25.9321 54.3692L26.4973 53.7131L25.9321 53.0571L26.5343 52.3583H44.2666L44.8687 53.0571L44.3034 53.7131L44.8687 54.3692L44.3034 55.0252L44.8687 55.6813L44.3034 56.3373L44.8687 56.9932L44.3034 57.6493L44.8687 58.3053L44.2666 59.0042H26.5343ZM38.7234 49.9569L38.0245 49.3547L37.3684 49.9201L36.7124 49.3547L36.0564 49.9201L35.4004 49.3547L34.7443 49.9201L34.0883 49.3547L33.4324 49.9201L32.7763 49.3547L32.0774 49.9569V61.4055L32.7763 62.0078L33.4324 61.4425L34.0883 62.0077L34.7443 61.4423L35.4004 62.0077L36.0564 61.4423L36.7124 62.0077L37.3684 61.4425L38.0245 62.0078L38.7234 61.4055V49.9569Z" fill="black"/>
<path d="M37.3254 49.9961L36.7123 49.4678L36.0991 49.9961V61.3661L36.7123 61.8944L37.3254 61.3661V49.9961Z" fill="#FDD406"/>
<path d="M34.7014 49.9961L34.0882 49.4678L33.4751 49.9961V61.3661L34.0882 61.8944L34.7014 61.3661V49.9961Z" fill="#FDD406"/>
<path d="M26.5732 58.9185L26.0449 58.3053L26.5732 57.6921H44.227L44.7552 58.3053L44.227 58.9185H26.5732Z" fill="#FDD406"/>
<path d="M44.2268 55.0679L44.7552 55.6811L44.2268 56.2942H26.5733L26.0449 55.6811L26.5733 55.0679H44.2268Z" fill="#FDD406"/>
<path d="M44.227 53.6704L44.7552 53.0572L44.227 52.4441H26.5732L26.0449 53.0572L26.5732 53.6704H44.227Z" fill="#FDD406"/>
<path d="M38.6379 49.9961L38.0248 49.4678L37.4116 49.9961V61.3661L38.0248 61.8944L38.6377 61.3662L38.6379 49.9961Z" fill="#E23726"/>
<path d="M33.3895 49.9961L32.7763 49.4678L32.1631 49.9961V61.3661L32.7763 61.8944L33.3895 61.3661V49.9961Z" fill="#E23726"/>
<path d="M26.5738 57.6063L26.0454 56.9931L26.5738 56.3799H44.2273L44.7557 56.9931L44.2273 57.6063H26.5738Z" fill="#E23726"/>
<path d="M26.5738 54.9824L26.0454 54.3692L26.5738 53.756H44.2273L44.7557 54.3692L44.2273 54.9824H26.5738Z" fill="#E23726"/>
<path d="M36.014 61.3661L35.4008 61.8944L34.7876 61.3661V49.9961L35.4008 49.4678L36.014 49.9961V61.3661Z" fill="#E23726"/>
<path d="M41.327 50.218H29.4309V51.1628H27.9106V60.1997H29.4309V61.1444H41.3698V60.1997H42.8901V51.1628H41.3698V50.218H41.327Z" fill="black"/>
<path d="M29.5186 50.3069V51.2499H27.9932V60.1164H29.5186V61.0591H30.7686L28.2792 58.9723V52.3937L30.7686 50.3069H29.5186ZM40.0378 50.3069L42.5165 52.3937V58.9723L40.0378 61.0591H41.2877V60.1164H42.8026V51.2499H41.2877V50.3069L40.0378 50.3069Z" fill="#E23726"/>
<path d="M30.9057 50.3069C30.8821 50.3267 28.3934 52.4109 28.3633 52.4361V58.9297C28.3934 58.9551 30.8821 61.0392 30.9057 61.059H39.8993C39.9229 61.0392 42.4009 58.9549 42.4311 58.9297V52.4361C42.4009 52.4109 39.9229 50.3267 39.8993 50.3069H30.9057ZM31.0328 50.6671H39.7616L42.0709 52.6056V58.7603L39.7616 60.6882H31.0328L28.7341 58.7603V52.6056L31.0328 50.6671Z" fill="#1E9A1C"/>
<path d="M33.3448 58.8577L33.7355 59.0265L33.8074 59.4829L33.3155 59.9156L34.03 60.6064H33.3425L32.851 60.1333L32.3594 60.6064H31.6719L32.3865 59.9156L31.8945 59.4829L31.9665 59.0265L32.3571 58.8577L32.851 59.2526L32.8778 59.2312L33.3448 58.8577Z" fill="#1E9A1C"/>
<path d="M35.8942 58.8577L36.2848 59.0265L36.3568 59.4829L35.865 59.9156L36.5794 60.6064H35.892L35.4003 60.1333L34.9088 60.6064H34.2212L34.9358 59.9156L34.4439 59.4829L34.5159 59.0265L34.9065 58.8577L35.4003 59.2526L35.4271 59.2312L35.8942 58.8577Z" fill="#1E9A1C"/>
<path d="M37.4562 58.8577L37.0656 59.0265L36.9936 59.4829L37.4855 59.9156L36.771 60.6064H37.4585L37.9501 60.1333L38.4416 60.6064H39.1291L38.4146 59.9156L38.9065 59.4829L38.8345 59.0265L38.4439 58.8577L37.9501 59.2526L37.9232 59.2312L37.4562 58.8577Z" fill="#1E9A1C"/>
<path d="M33.3448 52.5045L33.7355 52.3357L33.8074 51.8794L33.3155 51.4467L34.03 50.7559H33.3425L32.851 51.2289L32.3594 50.7559H31.6719L32.3865 51.4467L31.8945 51.8793L31.9665 52.3357L32.3571 52.5045L32.851 52.1097L32.8778 52.1311L33.3448 52.5045Z" fill="#1E9A1C"/>
<path d="M35.8942 52.5045L36.2848 52.3357L36.3568 51.8794L35.865 51.4467L36.5794 50.7559H35.892L35.4003 51.2289L34.9088 50.7559H34.2212L34.9358 51.4467L34.4439 51.8793L34.5159 52.3357L34.9065 52.5045L35.4003 52.1097L35.4271 52.1311L35.8942 52.5045Z" fill="#1E9A1C"/>
<path d="M37.4562 52.5045L37.0656 52.3357L36.9936 51.8794L37.4855 51.4467L36.771 50.7559H37.4585L37.9501 51.2289L38.4416 50.7559H39.1291L38.4146 51.4467L38.9065 51.8793L38.8345 52.3357L38.4439 52.5045L37.9501 52.1097L37.9232 52.1311L37.4562 52.5045Z" fill="#1E9A1C"/>
<path d="M41.981 53.2332L41.591 53.5561L41.981 53.8789V54.4142L41.3812 53.92C41.3812 53.92 40.9779 54.2854 40.9508 54.31C40.9162 54.3056 40.5277 54.2568 40.4893 54.252C40.4721 54.2204 40.3508 53.9968 40.3267 53.952C40.3669 53.9119 40.7239 53.5561 40.7239 53.5561C40.7239 53.5561 40.3669 53.2002 40.3267 53.1601C40.3508 53.1154 40.4721 52.8916 40.4893 52.8601C40.5277 52.8553 40.9162 52.8064 40.9508 52.802C40.9779 52.8266 41.3812 53.1922 41.3812 53.1922L41.981 52.698V53.2332Z" fill="#1E9A1C"/>
<path d="M41.981 55.3582L41.591 55.6811L41.981 56.0038V56.5392L41.3812 56.045C41.3812 56.045 40.9779 56.4104 40.9508 56.435C40.9162 56.4306 40.5277 56.3817 40.4893 56.377C40.4721 56.3454 40.3508 56.1216 40.3267 56.077C40.3669 56.0369 40.7239 55.6811 40.7239 55.6811C40.7239 55.6811 40.3669 55.3251 40.3267 55.285C40.3508 55.2404 40.4721 55.0166 40.4893 54.985C40.5277 54.9803 40.9162 54.9314 40.9508 54.927C40.9779 54.9516 41.3812 55.317 41.3812 55.317L41.981 54.823V55.3582Z" fill="#1E9A1C"/>
<path d="M41.981 58.129L41.591 57.8061L41.981 57.4833V56.948L41.3812 57.4423C41.3812 57.4423 40.9779 57.0768 40.9508 57.0522C40.9162 57.0565 40.5277 57.1054 40.4893 57.1101C40.4721 57.1417 40.3508 57.3655 40.3267 57.4101C40.3669 57.4503 40.7239 57.8061 40.7239 57.8061C40.7239 57.8061 40.3669 58.162 40.3267 58.2021C40.3508 58.2468 40.4721 58.4706 40.4893 58.5021C40.5277 58.5069 40.9162 58.5558 40.9508 58.5601C40.9779 58.5355 41.3812 58.1701 41.3812 58.1701L41.981 58.6642V58.129Z" fill="#1E9A1C"/>
<path d="M28.8198 53.2333L29.2097 53.5562L28.8198 53.879V54.4144L29.4196 53.9201C29.4196 53.9201 29.8229 54.2855 29.85 54.3101C29.8845 54.3058 30.2731 54.2569 30.3115 54.2521C30.3287 54.2206 30.4499 53.9969 30.4741 53.9521C30.4339 53.912 30.0769 53.5562 30.0769 53.5562C30.0769 53.5562 30.4339 53.2003 30.4741 53.1602C30.4499 53.1155 30.3287 52.8917 30.3115 52.8602C30.2731 52.8554 29.8845 52.8065 29.85 52.8022C29.8229 52.8268 29.4196 53.1923 29.4196 53.1923L28.8198 52.6981V53.2333Z" fill="#1E9A1C"/>
<path d="M28.8198 55.3583L29.2097 55.6812L28.8198 56.0039V56.5394L29.4196 56.0451C29.4196 56.0451 29.8229 56.4105 29.85 56.4351C29.8845 56.4308 30.2731 56.3818 30.3115 56.3771C30.3287 56.3456 30.4499 56.1218 30.4741 56.0771C30.4339 56.037 30.0769 55.6812 30.0769 55.6812C30.0769 55.6812 30.4339 55.3252 30.4741 55.2851C30.4499 55.2405 30.3287 55.0167 30.3115 54.9851C30.2731 54.9804 29.8845 54.9315 29.85 54.9272C29.8229 54.9518 29.4196 55.3172 29.4196 55.3172L28.8198 54.8231V55.3583Z" fill="#1E9A1C"/>
<path d="M28.8198 58.129L29.2097 57.8061L28.8198 57.4833V56.948L29.4196 57.4423C29.4196 57.4423 29.8229 57.0768 29.85 57.0522C29.8845 57.0565 30.2731 57.1054 30.3115 57.1101C30.3287 57.1417 30.4499 57.3655 30.4741 57.4101C30.4339 57.4503 30.0769 57.8061 30.0769 57.8061C30.0769 57.8061 30.4339 58.162 30.4741 58.2021C30.4499 58.2468 30.3287 58.4706 30.3115 58.5021C30.2731 58.5069 29.8845 58.5558 29.85 58.5601C29.8229 58.5355 29.4196 58.1701 29.4196 58.1701L28.8198 58.6642V58.129Z" fill="#1E9A1C"/>
<path d="M31.0651 50.7522C31.042 50.7716 28.9447 52.5274 28.8511 52.606C29.0402 52.7627 29.223 52.9266 29.4126 53.0827C29.4605 53.0393 29.8257 52.7118 29.8257 52.7118L30.3659 52.786L30.5778 53.1779C30.5778 53.1779 30.2483 53.5077 30.1965 53.5593C30.2483 53.6108 30.5778 53.9406 30.5778 53.9406L30.3659 54.3326L29.8257 54.3961C29.8257 54.3961 29.4606 54.0794 29.4126 54.036L28.8193 54.5339V54.7033C29.0189 54.8685 29.2123 55.0362 29.4126 55.2012C29.4606 55.1579 29.8257 54.8411 29.8257 54.8411L30.3659 54.9046L30.5778 55.2966C30.5778 55.2966 30.2483 55.6263 30.1965 55.6779C30.2483 55.7294 30.5778 56.0593 30.5778 56.0593L30.3659 56.4618L29.8257 56.5254C29.8257 56.5254 29.4606 56.1981 29.4126 56.1546L28.8193 56.6525V56.8326L29.4126 57.3305C29.4606 57.2871 29.8257 56.9597 29.8257 56.9597L30.3659 57.0339L30.5778 57.4258C30.5778 57.4258 30.2483 57.7556 30.1965 57.8072C30.2483 57.8588 30.5778 58.1885 30.5778 58.1885L30.3659 58.5805L29.8257 58.6546C29.8257 58.6546 29.4606 58.3273 29.4126 58.2839C29.2238 58.4393 29.0395 58.5946 28.8511 58.75C28.9447 58.8286 31.0419 60.5843 31.0651 60.6038H31.5524L32.2621 59.9152L31.8066 59.5127L31.8914 58.9618L32.3681 58.7606L32.8553 59.1419L33.332 58.7606L33.8087 58.9618L33.9041 59.5127L33.438 59.9152L34.1265 60.572L34.8151 59.9152L34.349 59.5127L34.4337 58.9618L34.921 58.7606L35.3977 59.1419L35.885 58.7606L36.3617 58.9618L36.4464 59.5127L35.9909 59.9152L36.6689 60.5826L37.3575 59.9152L36.902 59.5127L36.9867 58.9618L37.474 58.7606L37.9507 59.1419L38.4274 58.7606L38.9147 58.9618L38.9994 59.5127L38.5439 59.9152L39.2537 60.6038H39.7303C39.7535 60.5843 41.8506 58.8286 41.9443 58.75C41.7556 58.5946 41.5719 58.4397 41.3829 58.2839C41.3349 58.3273 40.9803 58.6546 40.9803 58.6546L40.4401 58.5805L40.2176 58.1885C40.2176 58.1885 40.5473 57.8588 40.599 57.8072C40.5473 57.7556 40.2176 57.4258 40.2176 57.4258L40.4401 57.0339L40.9803 56.9597C40.9803 56.9597 41.3349 57.2871 41.3829 57.3305L41.9761 56.8326V56.6525L41.3829 56.1546C41.3349 56.1981 40.9803 56.5254 40.9803 56.5254L40.4401 56.4618L40.2176 56.0593C40.2176 56.0593 40.5473 55.7294 40.599 55.6779C40.5473 55.6263 40.2176 55.2966 40.2176 55.2966L40.4401 54.9046L40.9803 54.8411C40.9803 54.8411 41.3349 55.1579 41.3829 55.2012C41.5818 55.0374 41.7776 54.8772 41.9761 54.7139V54.5233L41.3829 54.036C41.3349 54.0794 40.9803 54.3961 40.9803 54.3961L40.4401 54.3326L40.2176 53.9406C40.2176 53.9406 40.5473 53.6108 40.599 53.5593C40.5473 53.5077 40.2176 53.1779 40.2176 53.1779L40.4401 52.786L40.9803 52.7118C40.9803 52.7118 41.3349 53.0393 41.3829 53.0826C41.5727 52.9262 41.7651 52.7729 41.9549 52.6165C41.882 52.5553 39.7536 50.7716 39.7303 50.7521H39.2536L38.5439 51.4406L38.9994 51.8432L38.9147 52.394L38.4274 52.6059L37.9507 52.2245L37.474 52.6059L36.9867 52.394L36.9019 51.8432L37.3575 51.4406L36.6795 50.7839L35.9909 51.4406L36.4464 51.8432L36.3617 52.394L35.885 52.6059L35.3977 52.2245L34.921 52.6059L34.4337 52.394L34.349 51.8432L34.8151 51.4406L34.1265 50.7839L33.438 51.4406L33.9041 51.8432L33.8087 52.394L33.332 52.6059L32.8553 52.2245L32.3681 52.6059L31.8914 52.394L31.8066 51.8432L32.2621 51.4406L31.5418 50.7521L31.0651 50.7522ZM28.8194 55.4661V55.9004L29.0736 55.678L28.8194 55.4661Z" fill="#E23726"/>
<path d="M32.8552 60.2542L32.4844 60.6036H33.2152L32.8552 60.2542Z" fill="white"/>
<path d="M35.3981 60.2542L35.0381 60.6036H35.7689L35.3981 60.2542Z" fill="white"/>
<path d="M37.9506 60.2542L37.5801 60.6036H38.3214L37.9506 60.2542Z" fill="white"/>
<path d="M32.4741 50.7522L32.8555 51.1122L33.2263 50.7522H32.4741Z" fill="white"/>
<path d="M35.0269 50.7522L35.3977 51.1122L35.7791 50.7522H35.0269Z" fill="white"/>
<path d="M37.5801 50.7522L37.9506 51.1122L38.3214 50.7522H37.5801Z" fill="white"/>
<path d="M41.9759 53.3474L41.7217 53.5593L41.9759 53.7606V53.3474Z" fill="white"/>
<path d="M41.9759 55.4659L41.7217 55.6778L41.9759 55.8897V55.4659Z" fill="white"/>
<path d="M41.9759 57.5952L41.7217 57.8071L41.9759 58.0189V57.5952Z" fill="white"/>
<path d="M28.8193 53.337V53.7713L29.0736 53.5594L28.8193 53.337Z" fill="white"/>
<path d="M28.8193 55.4659V55.9002L29.0736 55.6778L28.8193 55.4659Z" fill="white"/>
<path d="M28.8193 57.5848V58.0191L29.0736 57.8072L28.8193 57.5848Z" fill="white"/>
<path d="M37.5812 54.9714V54.2131H36.8138V53.3818H33.9874V54.2131H33.22V54.9714H32.1602V56.391H33.22V57.1491H33.9874V57.9805H36.8138V57.1491H37.5812V56.391H38.6409V54.9714H37.5812Z" fill="black"/>
<path d="M35.3573 53.4675V54.3244L34.1424 55.015V55.6383H32.2456V55.057H33.3053V54.2989H34.0727V53.4675H35.3573Z" fill="#FDD406"/>
<path d="M35.4434 57.8949V57.038L36.6581 56.3473V55.7241H38.5551V56.3053H37.4954V57.0636H36.728V57.8949H35.4434Z" fill="#FDD406"/>
<path d="M36.6581 55.6383V55.015L35.4434 54.3244V53.4675H36.728V54.2989H37.4954V55.057H38.5551V55.6383H36.6581Z" fill="white"/>
<path d="M32.2461 55.7241H34.1429V56.3473L35.3578 57.038V57.8949H34.0732V57.0636H33.3058V56.3053H32.2461V55.7241Z" fill="white"/>
<path d="M34.2285 55.7241V56.3018L35.3576 56.9438V55.7241H34.2285Z" fill="#E23726"/>
<path d="M35.3576 54.4187L34.2285 55.0606V55.6383H35.3576V54.4187Z" fill="#1E9A1C"/>
<path d="M36.5724 55.6384V55.0607L35.4434 54.4188V55.6384H36.5724Z" fill="#E23726"/>
<path d="M35.4434 56.9438L36.5724 56.3018V55.7241H35.4434V56.9438Z" fill="#1E9A1C"/>
<path d="M25.1302 70.746V73.0894H22.8971V75.2148H20.6338V81.2665H22.8971V83.392H25.1302V85.7353H33.2497L34.6776 86.5933L33.9915 87.0055H31.0962L30.8465 86.7239H33.4703L32.7311 85.9795H28.9779L30.6784 87.7499H34.198L35.4003 87.0275L36.6025 87.7499H40.1224L41.8228 85.9795H38.0697L37.3304 86.7239H39.9543L39.7044 87.0055H36.8091L36.1229 86.5933L37.5509 85.7353H45.6705V83.392H47.9036V81.2665H50.1667V75.2148H47.9036V73.0894H45.6705V70.746H37.5509L36.1229 69.8881L36.8091 69.4758H39.7044L39.9543 69.7574H37.3304L38.0697 70.5018H41.8228L40.1224 68.7314H36.6025L35.4003 69.4538L34.198 68.7314H30.6784L28.9779 70.5018H32.7311L33.4703 69.7574H30.8465L31.0962 69.4758H33.9915L34.6776 69.8881L33.2497 70.746H25.1302Z" fill="#E23726"/>
<path d="M37.5268 85.646H45.5882V83.3049H47.8128V81.1757H50.0797V75.2964H47.8128V73.1778H45.5882V70.8367H37.5268L34.1793 68.8134H30.7153L29.1793 70.4129H32.6962L33.2683 69.8409H30.6517L31.0543 69.3854H34.0204L37.8128 71.6735H44.7407V74.0146H46.9759V76.1439H49.2429V80.3388H46.9759V82.468H44.7407V84.8091H37.8128L34.0204 87.0867H31.0543L30.6517 86.6418H33.2683L32.6962 86.0697H29.1793L30.7153 87.6693H34.1793L37.5268 85.646ZM32.9823 84.8091H26.0543V82.468H23.8297V80.3388H21.5628V76.1439H23.8297V74.0146H26.0543V71.6735H32.9823L36.7852 69.3854H39.7408L40.1433 69.8409H37.5374L38.1094 70.4129H41.6263L40.0903 68.8134H36.6263L33.2789 70.8367H25.2175V73.1778H22.9823V75.2964H20.7153V81.1757H22.9823V83.3049H25.2175V85.646H33.2789L36.6263 87.6693H40.0903L41.6263 86.0697H38.1094L37.5374 86.6418H40.1433L39.7408 87.0867H36.7852L32.9823 84.8091Z" fill="#FDD406"/>
<path d="M44.0695 81.7908V84.1341H37.6294L35.4006 85.4733L33.1717 84.1341H26.7318V81.7908H24.4986V79.6652H22.2354V76.8161H24.4986V74.6905H26.7318V72.3473H33.1598H33.1717L35.4006 71.0081L37.6294 72.3473H44.0695V74.6905H46.3026V76.8161H48.5658V79.6652H46.3026V81.7908H44.0695Z" fill="#1E9A1C"/>
<path d="M27.5747 80.9698V83.2378H31.1147L27.5747 80.8899V80.9698Z" fill="black"/>
<path d="M27.5747 75.5117V73.2435H31.1147L27.5747 75.5914V75.5117Z" fill="black"/>
<path d="M43.2265 80.9698V83.2378H39.6865L43.2265 80.8899V80.9698Z" fill="black"/>
<path d="M43.2265 75.5117V73.2435H39.6865L43.2265 75.5914V75.5117Z" fill="black"/>
<path d="M27.6606 81.0497L30.8306 83.1522H27.6606V81.0497Z" fill="#E23726"/>
<path d="M27.6606 75.4319C27.7839 75.35 30.6146 73.4725 30.8306 73.3293H27.6606V75.4319Z" fill="#E23726"/>
<path d="M43.1406 81.0496C43.0173 81.1314 40.1866 83.0088 39.9707 83.1521H43.1406V81.0496Z" fill="#E23726"/>
<path d="M43.1406 75.4319C43.0173 75.3501 40.1866 73.4726 39.9707 73.3293H43.1406V75.4319Z" fill="#E23726"/>
<path d="M32.0897 77.6189V76.4606H31.6946L29.7994 75.2756L29.7767 75.2899L27.9042 76.4606H27.5092V77.6189H26.6182V78.8628H27.5092V80.0209H27.9042L29.7994 81.2059L31.6946 80.0209H32.0897V78.8628H33.446V77.6189H32.0897Z" fill="black"/>
<path d="M29.7998 75.377L31.5334 76.4608H28.0664L29.7998 75.377ZM31.5332 80.0211L29.7998 81.1049L28.0665 80.0211H31.5332Z" fill="#E23726"/>
<path d="M31.113 77.7047V78.7773H28.9512V77.7047H31.113Z" fill="#E23726"/>
<path d="M32.0041 78.8627V79.9352H29.8423V78.8627H32.0041Z" fill="#FDD406"/>
<path d="M29.757 78.8628V79.9354H27.5952V78.8628H29.757Z" fill="#FDD406"/>
<path d="M33.361 77.7047V78.7773H31.1992V77.7047H33.361Z" fill="#FDD406"/>
<path d="M28.8659 77.7047V78.7773H26.7041V77.7047H28.8659Z" fill="#FDD406"/>
<path d="M32.0041 76.5465V77.619H29.8423V76.5465H32.0041Z" fill="#FDD406"/>
<path d="M29.757 76.5465V77.619H27.5952V76.5465H29.757Z" fill="#FDD406"/>
<path d="M28.2708 77.9429V78.5388H27.2998V77.9429H28.2708Z" fill="black"/>
<path d="M29.162 76.7847V77.3806H28.1909V76.7847H29.162Z" fill="black"/>
<path d="M31.409 76.7847V77.3806H30.438V76.7847H31.409Z" fill="black"/>
<path d="M30.5184 77.9429V78.5388H29.5474V77.9429H30.5184Z" fill="black"/>
<path d="M32.7655 77.9429V78.5388H31.7944V77.9429H32.7655Z" fill="black"/>
<path d="M31.409 79.1011V79.697H30.438V79.1011H31.409Z" fill="black"/>
<path d="M29.162 79.1011V79.697H28.1909V79.1011H29.162Z" fill="black"/>
<path d="M28.1788 78.0343H27.3906V78.4473H28.1788V78.0343Z" fill="white"/>
<path d="M29.0699 76.8761H28.2817V77.2891H29.0699V76.8761Z" fill="white"/>
<path d="M31.317 76.8761H30.5288V77.2891H31.317V76.8761Z" fill="white"/>
<path d="M30.4263 78.0343H29.6382V78.4473H30.4263V78.0343Z" fill="white"/>
<path d="M32.6739 78.0343H31.8857V78.4473H32.6739V78.0343Z" fill="white"/>
<path d="M31.317 79.1925H30.5288V79.6055H31.317V79.1925Z" fill="white"/>
<path d="M29.0699 79.1925H28.2817V79.6055H29.0699V79.1925Z" fill="white"/>
<path d="M38.7111 77.6189V76.4606H39.1061L41.0014 75.2756L41.0241 75.2899L42.8966 76.4606H43.2916V77.6189H44.1826V78.8628H43.2916V80.0209H42.8966L41.0014 81.2059L39.1061 80.0209H38.7111V78.8628H37.3547V77.6189H38.7111Z" fill="black"/>
<path d="M41.0015 75.3768L39.2678 76.4607H42.7349L41.0015 75.3768ZM39.2681 80.021L41.0015 81.1048L42.7347 80.021H39.2681Z" fill="#E23726"/>
<path d="M39.6878 77.7046V78.7771H41.8496V77.7046H39.6878Z" fill="#E23726"/>
<path d="M38.7967 78.8627V79.9352H40.9585V78.8627H38.7967Z" fill="#FDD406"/>
<path d="M41.0438 78.8627V79.9352H43.2056V78.8627H41.0438Z" fill="#FDD406"/>
<path d="M37.4403 77.7047V78.7773H39.6021V77.7047H37.4403Z" fill="#FDD406"/>
<path d="M41.9349 77.7047V78.7773H44.0967V77.7047H41.9349Z" fill="#FDD406"/>
<path d="M38.7967 76.5465V77.619H40.9585V76.5465H38.7967Z" fill="#FDD406"/>
<path d="M41.0438 76.5465V77.619H43.2056V76.5465H41.0438Z" fill="#FDD406"/>
<path d="M42.5304 77.9429V78.5388H43.5015V77.9429H42.5304Z" fill="black"/>
<path d="M41.6393 76.7847V77.3806H42.6104V76.7847H41.6393Z" fill="black"/>
<path d="M39.3922 76.7847V77.3806H40.3633V76.7847H39.3922Z" fill="black"/>
<path d="M40.2834 77.9429V78.5388H41.2544V77.9429H40.2834Z" fill="black"/>
<path d="M38.0358 77.9429V78.5388H39.0068V77.9429H38.0358Z" fill="black"/>
<path d="M39.3922 79.1011V79.697H40.3633V79.1011H39.3922Z" fill="black"/>
<path d="M41.6393 79.1011V79.697H42.6104V79.1011H41.6393Z" fill="black"/>
<path d="M42.622 78.0343H43.4102V78.4473H42.622V78.0343Z" fill="white"/>
<path d="M41.7309 76.8761H42.519V77.2891H41.7309V76.8761Z" fill="white"/>
<path d="M39.4838 76.8761H40.272V77.2891H39.4838V76.8761Z" fill="white"/>
<path d="M40.3749 78.0343H41.1631V78.4473H40.3749V78.0343Z" fill="white"/>
<path d="M38.1274 78.0343H38.9155V78.4473H38.1274V78.0343Z" fill="white"/>
<path d="M39.4838 79.1925H40.272V79.6055H39.4838V79.1925Z" fill="white"/>
<path d="M41.7309 79.1925H42.519V79.6055H41.7309V79.1925Z" fill="white"/>
<path d="M37.6905 75.6841V76.8422H37.2955L35.4002 78.0272L35.3775 78.013L33.5051 76.8422H33.11V75.6841H31.9863V74.4402H33.11V73.282H33.5051L35.4002 72.0969L37.2955 73.282H37.6905V74.4402H38.8142V75.6841H37.6905Z" fill="black"/>
<path d="M35.4004 77.9261L37.1339 76.8421H33.667L35.4004 77.9261ZM37.1338 73.282L35.4004 72.198L33.6671 73.282H37.1338Z" fill="#FDD406"/>
<path d="M37.6052 74.4401V73.3677H35.4434V74.4401H37.6052Z" fill="#E23726"/>
<path d="M35.3581 74.4401V73.3677H33.1963V74.4401H35.3581Z" fill="#E23726"/>
<path d="M38.7287 75.5983V74.5258H36.5669V75.5983H38.7287Z" fill="#E23726"/>
<path d="M36.4811 75.5983V74.5258H34.3193V75.5983H36.4811Z" fill="#E23726"/>
<path d="M34.2339 75.5983V74.5258H32.0723V75.5983H34.2339Z" fill="#E23726"/>
<path d="M37.6052 76.7565V75.684H35.4434V76.7565H37.6052Z" fill="#E23726"/>
<path d="M35.3581 76.7565V75.684H33.1963V76.7565H35.3581Z" fill="#E23726"/>
<path d="M34.7625 73.6058V74.2018H33.7915V73.6058H34.7625Z" fill="black"/>
<path d="M37.0096 73.6058V74.2018H36.0386V73.6058H37.0096Z" fill="black"/>
<path d="M33.6385 74.764V75.36H32.6675V74.764H33.6385Z" fill="black"/>
<path d="M35.8861 74.764V75.36H34.915V74.764H35.8861Z" fill="black"/>
<path d="M38.1336 74.764V75.36H37.1626V74.764H38.1336Z" fill="black"/>
<path d="M34.7625 75.9222V76.5182H33.7915V75.9222H34.7625Z" fill="black"/>
<path d="M37.0096 75.9222V76.5182H36.0386V75.9222H37.0096Z" fill="black"/>
<path d="M34.671 73.6973H33.8828V74.1103H34.671V73.6973Z" fill="white"/>
<path d="M36.918 73.6973H36.1299V74.1103H36.918V73.6973Z" fill="white"/>
<path d="M33.5469 74.8555H32.7588V75.2685H33.5469V74.8555Z" fill="white"/>
<path d="M35.7945 74.8555H35.0063V75.2685H35.7945V74.8555Z" fill="white"/>
<path d="M38.0421 74.8555H37.2539V75.2685H38.0421V74.8555Z" fill="white"/>
<path d="M34.671 76.0137H33.8828V76.4267H34.671V76.0137Z" fill="white"/>
<path d="M36.918 76.0137H36.1299V76.4267H36.918V76.0137Z" fill="white"/>
<path d="M37.6905 82.0416V83.1997H37.2955L35.4002 84.3847L35.3775 84.3706L33.5051 83.1997H33.11V82.0416H31.9863V80.7977H33.11V79.6396H33.5051L35.4002 78.4545L37.2955 79.6396H37.6905V80.7977H38.8142V82.0416H37.6905Z" fill="black"/>
<path d="M35.4004 84.2836L37.1339 83.1997H33.667L35.4004 84.2836ZM37.1338 79.6395L35.4004 78.5555L33.6671 79.6395H37.1338Z" fill="#FDD406"/>
<path d="M37.6052 80.7977V79.7252H35.4434V80.7977H37.6052Z" fill="#E23726"/>
<path d="M35.3581 80.7977V79.7252H33.1963V80.7977H35.3581Z" fill="#E23726"/>
<path d="M38.7287 81.9559V80.8833H36.5669V81.9559H38.7287Z" fill="#E23726"/>
<path d="M36.4811 81.9559V80.8833H34.3193V81.9559H36.4811Z" fill="#E23726"/>
<path d="M34.2339 81.9559V80.8833H32.0723V81.9559H34.2339Z" fill="#E23726"/>
<path d="M37.6052 83.1141V82.0415H35.4434V83.1141H37.6052Z" fill="#E23726"/>
<path d="M35.3581 83.1141V82.0415H33.1963V83.1141H35.3581Z" fill="#E23726"/>
<path d="M34.7625 79.9634V80.5593H33.7915V79.9634H34.7625Z" fill="black"/>
<path d="M37.0096 79.9634V80.5593H36.0386V79.9634H37.0096Z" fill="black"/>
<path d="M33.6385 81.1216V81.7175H32.6675V81.1216H33.6385Z" fill="black"/>
<path d="M35.8861 81.1216V81.7175H34.915V81.1216H35.8861Z" fill="black"/>
<path d="M38.1336 81.1216V81.7175H37.1626V81.1216H38.1336Z" fill="black"/>
<path d="M34.7625 82.2798V82.8757H33.7915V82.2798H34.7625Z" fill="black"/>
<path d="M37.0096 82.2798V82.8757H36.0386V82.2798H37.0096Z" fill="black"/>
<path d="M34.671 80.0548H33.8828V80.4678H34.671V80.0548Z" fill="white"/>
<path d="M36.918 80.0548H36.1299V80.4678H36.918V80.0548Z" fill="white"/>
<path d="M33.5469 81.213H32.7588V81.626H33.5469V81.213Z" fill="white"/>
<path d="M35.7945 81.213H35.0063V81.626H35.7945V81.213Z" fill="white"/>
<path d="M38.0421 81.213H37.2539V81.626H38.0421V81.213Z" fill="white"/>
<path d="M34.671 82.3712H33.8828V82.7843H34.671V82.3712Z" fill="white"/>
<path d="M36.918 82.3712H36.1299V82.7843H36.918V82.3712Z" fill="white"/>
<path d="M23.1357 95.8708L31.5461 91.3445H31.5569H39.2539L47.6642 95.8708V103.329L39.2539 107.855H31.5461L23.1357 103.329V95.8708Z" fill="black"/>
<path d="M31.5731 91.4302L23.2256 95.9217V103.273L31.5731 107.765H39.2317L47.5795 103.273V95.9217L39.2317 91.4302H31.5731ZM31.7212 92.0339H39.0836L46.9863 96.2817V102.924L39.0836 107.172H31.7168L23.8144 102.924V96.2817L31.7212 92.0339Z" fill="#1E9A1C"/>
<path d="M35.4427 99.5567V107.085H39.0618L46.8984 102.867V99.6425L35.357 99.6425V92.1145H31.7381L23.9014 96.3318V99.5567L35.4427 99.5567Z" fill="#FDD406"/>
<path d="M35.357 99.5567V107.085H31.7381L23.9014 102.867V99.6425L35.4427 99.6425V92.1145H39.0618L46.8984 96.3318V99.5567L35.357 99.5567Z" fill="white"/>
<path d="M36.1034 106.663V104.488L35.3999 104.934L34.6964 104.488V106.663H32.5081L33.9847 105.58V104.036L31.7327 102.607H30.1592V96.5926H31.7327L33.9847 95.1638V93.6193L32.5081 92.5364H32.639H34.6964V94.7123L35.3999 94.2659L36.1034 94.7123V92.5364H38.2918L36.8151 93.6193V95.1638L39.067 96.5926H40.6406V102.607H39.067L36.8151 104.036V105.58L38.2918 106.663H36.1034Z" fill="black"/>
<path d="M36.1919 92.627V94.8727L35.4397 94.3961V95.0317L38.8824 97.2242H40.016V99.5551H40.5563V96.6737H39.0414L36.7323 95.2117V93.5802L38.035 92.627H36.1919ZM30.249 99.6398V102.521H31.7533L34.0733 103.993V105.625L32.7702 106.578H34.6136V104.332L35.355 104.809V104.152L31.9122 101.981H30.7893V99.6398L30.249 99.6398Z" fill="#FDD406"/>
<path d="M32.7702 92.627L34.0733 93.5802V95.2117L31.7533 96.6737H30.249V99.5551H30.7893V97.2242H31.9122L35.355 95.0422V94.3961L34.6136 94.8727V92.627L32.7702 92.627ZM40.016 99.6398V101.981H38.8824L35.4397 104.152V104.809L36.1919 104.332V106.578H38.0349L36.7322 105.625V103.993L39.0414 102.521H40.5563V99.6398L40.016 99.6398Z" fill="white"/>
<path d="M30.8711 101.892H31.9386L35.4001 104.088L38.8615 101.892H39.9292V97.3083H38.874H38.8615L35.4001 95.1122L31.9386 97.3083H30.8711V101.892Z" fill="#E23726"/>
<path d="M37.7964 100.689H38.5355V100.339H37.9795V99.7036H39.1677V101.325H38.0286L38.0287 102.431H35.6838V100.842H36.7158V101.477H36.3161V101.795H37.3964V101.187L33.0042 98.5108H32.2651V98.8604H32.8212V99.496H31.6328V97.8751H32.772V96.7692H32.8148H35.1168V98.3582H34.0848V97.7226H34.4845V97.4048H33.4043V98.0124L37.7964 100.689ZM37.3964 98.0124V97.4048H36.3161V97.7226H36.7158V98.3582H35.6838V96.7692H38.0287V97.8751H39.1677V99.496H37.9795V98.8604H38.5356V98.5108H37.7964L33.4043 101.187V101.795H34.4845V101.477H34.0848V100.841H35.1168V102.431H32.772V101.325H31.6328V99.7036H32.8212V100.339H32.2651V100.689H33.0042L37.3964 98.0124Z" fill="black"/>
<path d="M37.4817 101.139V101.881H36.2299V101.392H36.6297V100.927H35.7691V102.345H37.9425V101.239H39.0817V99.7896H38.0648V100.254H38.6208V100.775H37.772L33.3181 98.0606V97.3193H34.5699V97.8084H34.1702V98.2727H35.0307V96.855H32.8573V97.9609H31.7183V99.4105H32.735V98.9462H32.1791V98.4252H33.0278L37.4817 101.139ZM37.772 98.4252H38.6209V98.9462H38.0648V99.4105H39.0817V97.9609H37.9427V96.855H35.7692V98.2727H36.6297V97.8084H36.23V97.3193H37.4817V98.0606L33.0278 100.775H32.1791V100.254H32.735V99.7895H31.7183V101.239H32.8573V102.345H35.0307V100.927H34.1702V101.392H34.5699V101.881H33.3181V101.139L37.772 98.4252Z" fill="white"/>
<path d="M45.2094 99.9767V102.329H44.2084V101.498H43.1993V102.329H42.1982V99.9767H43.1993V100.807H44.2084V99.9767H45.2094Z" fill="black"/>
<path d="M41.6274 103.1V105.452H40.6263V104.621H39.6173V105.452H38.6162V103.1H39.6173V103.93H40.6263V103.1H41.6274Z" fill="black"/>
<path d="M45.2094 99.2225V96.8701H44.2084V97.7009H43.1993V96.8701H42.1982V99.2225H43.1993V98.3917H44.2084V99.2225H45.2094Z" fill="black"/>
<path d="M25.5918 99.9767V102.329H26.5928V101.498H27.6019V102.329H28.603V99.9767H27.6019V100.807H26.5928V99.9767H25.5918Z" fill="black"/>
<path d="M25.5918 99.2225V96.8701H26.5928V97.7009H27.6019V96.8701H28.603V99.2225H27.6019V98.3917H26.5928V99.2225H25.5918Z" fill="black"/>
<path d="M41.6274 96.0997V93.7473H40.6263V94.5781H39.6173V93.7473H38.6162V96.0997H39.6173V95.2689H40.6263V96.0997H41.6274Z" fill="black"/>
<path d="M29.1738 103.1V105.452H30.1749V104.621H31.1839V105.452H32.185V103.1H31.1839V103.931H30.1749V103.1H29.1738Z" fill="black"/>
<path d="M29.1738 96.0997V93.7473H30.1749V94.5781H31.1839V93.7473H32.185V96.0997H31.1839V95.2689H30.1749V96.0997H29.1738Z" fill="black"/>
<path d="M42.2246 94.451V96.2375H45.544L42.2246 94.451Z" fill="black"/>
<path d="M28.5763 104.748V102.962H25.2568L28.5763 104.748Z" fill="black"/>
<path d="M28.5763 94.451V96.2375H25.2568L28.5763 94.451Z" fill="black"/>
<path d="M42.2246 104.748V102.962H45.544L42.2246 104.748Z" fill="black"/>
<path d="M44.2933 101.413V102.244H45.123V100.063H44.2933V100.893H43.1128V100.063H42.2832V102.244H43.1128V101.413H44.2933Z" fill="#E23726"/>
<path d="M40.7113 104.536V105.366H41.5409V103.185H40.7113V104.016H39.5307V103.185H38.7012V105.366H39.5307V104.536H40.7113Z" fill="#E23726"/>
<path d="M44.2933 97.7867V96.9559H45.123V99.1368H44.2933V98.3059H43.1128V99.1368H42.2832V96.9559H43.1128V97.7867H44.2933Z" fill="#E23726"/>
<path d="M26.5063 101.413V102.244H25.6768V100.063H26.5063V100.893H27.6869V100.063H28.5164V102.244H27.6869V101.413H26.5063Z" fill="#E23726"/>
<path d="M26.5063 97.7867V96.9559H25.6768V99.1368H26.5063V98.3059H27.6869V99.1368H28.5164V96.9559H27.6869V97.7867H26.5063Z" fill="#E23726"/>
<path d="M40.7113 94.6639V93.833H41.5409V96.014H40.7113V95.1831H39.5307V96.014H38.7012V93.833H39.5307V94.6639H40.7113Z" fill="#E23726"/>
<path d="M30.0883 104.536V105.366H29.2588V103.185H30.0883V104.016H31.2689V103.185H32.0986V105.366H31.2689V104.536H30.0883Z" fill="#E23726"/>
<path d="M30.0883 94.6639V93.833H29.2588V96.014H30.0883V95.1831H31.2689V96.014H32.0986V93.833H31.2689V94.6639H30.0883Z" fill="#E23726"/>
<path d="M42.3148 94.5972V96.1545H45.207L42.3148 94.5972ZM25.5988 103.051L28.4907 104.608V103.051H25.5988Z" fill="#FDD406"/>
<path d="M28.4906 94.5972L25.5986 96.1545H28.4906V94.5972ZM42.3146 103.051V104.608L45.2068 103.051H42.3146Z" fill="white"/>
<path d="M48.9802 106.165C48.8204 106.846 48.2786 107.361 48.1495 108.067C47.891 107.33 47.6527 106.713 47.8306 105.907C47.9579 105.33 48.443 104.919 48.4992 104.326C49.028 104.802 49.1419 105.476 48.9802 106.165ZM49.1143 109.02C48.6657 109.635 48.0422 110.107 47.3536 110.421C47.4892 109.883 47.2348 109.477 46.9525 109.049C46.6123 108.535 46.4464 108.029 46.7238 107.436C46.853 107.744 47.0266 108 47.2304 108.264C47.5317 108.675 47.7298 109.04 47.7763 109.568C48.1248 109.309 48.2779 108.924 48.4642 108.551C48.7483 108.016 49.2067 107.569 49.7332 107.277C49.5933 107.877 49.4855 108.511 49.1143 109.02ZM46.5986 110.853C46.6945 111.195 46.7772 111.533 46.7587 111.89C47.0551 111.571 47.4487 111.331 47.7998 111.073C48.278 110.687 48.8354 110.414 49.2264 109.921C49.168 110.646 48.8578 111.237 48.2689 111.678C47.6463 112.144 46.8955 112.395 46.2823 112.884C46.3741 112.225 46.1319 111.697 45.9254 111.091C45.7533 110.512 45.9199 109.924 46.3125 109.483C46.3066 109.972 46.461 110.392 46.5986 110.853ZM45.2014 113.08C45.0724 113.58 44.7141 113.987 44.4694 114.433C45.1292 114.228 45.7113 113.87 46.3077 113.534C47.0181 113.147 47.7895 112.901 48.4326 112.39C48.1125 113.575 47.3193 114.262 46.1589 114.612C45.3655 114.851 44.6968 114.732 43.7341 115.121C43.8445 114.469 44.039 113.766 44.3472 113.178C44.5863 112.753 44.8515 112.334 44.9992 111.866C45.2132 112.25 45.3145 112.642 45.2014 113.08ZM42.7737 114.893C42.5466 115.282 42.2467 115.61 41.8748 115.868C42.8114 115.928 43.5651 115.334 44.4782 115.308C45.0422 115.292 45.5776 115.467 46.1528 115.415C45.4702 115.875 44.7556 116.278 43.9246 116.385C42.8444 116.525 41.8482 116.253 40.6564 116.359C41.2134 115.966 41.492 115.44 41.8392 114.875C42.2912 114.168 42.7178 113.665 43.597 113.551C43.2441 113.948 43.0387 114.439 42.7737 114.893ZM39.4474 116.447C41.0974 116.728 42.6786 117.091 44.3637 117.108C42.4774 117.765 40.7001 117.884 38.8293 117.205C37.8183 116.838 37.0431 116.642 36.2796 116.696C35.1637 116.777 33.8076 117.217 32.3067 118.8L31.7168 118.328C33.8679 116.411 36.6824 115.977 39.4473 116.447L39.4474 116.447Z" fill="#FDD406"/>
<path d="M21.8292 106.165C21.989 106.846 22.5308 107.361 22.6599 108.067C22.9184 107.33 23.1567 106.713 22.9788 105.907C22.8515 105.33 22.3664 104.919 22.3103 104.326C21.7814 104.802 21.6675 105.476 21.8292 106.165ZM21.6951 109.02C22.1437 109.635 22.7672 110.107 23.4558 110.421C23.3202 109.883 23.5746 109.477 23.8569 109.049C24.1971 108.535 24.363 108.029 24.0856 107.436C23.9564 107.744 23.7828 108 23.579 108.264C23.2777 108.675 23.0796 109.04 23.0331 109.568C22.6846 109.309 22.5315 108.924 22.3452 108.551C22.0611 108.016 21.6027 107.569 21.0762 107.277C21.2161 107.877 21.3238 108.511 21.6951 109.02ZM24.2108 110.853C24.1149 111.195 24.0322 111.533 24.0507 111.89C23.7543 111.571 23.3607 111.331 23.0096 111.073C22.5314 110.687 21.974 110.414 21.583 109.921C21.6414 110.646 21.9516 111.237 22.5405 111.678C23.1631 112.144 23.9139 112.395 24.5271 112.884C24.4353 112.225 24.6775 111.697 24.884 111.091C25.0561 110.512 24.8895 109.924 24.4969 109.483C24.5028 109.972 24.3484 110.392 24.2108 110.853ZM25.608 113.08C25.737 113.58 26.0953 113.987 26.34 114.433C25.6802 114.228 25.0981 113.87 24.5017 113.534C23.7913 113.147 23.0199 112.901 22.3768 112.39C22.6969 113.575 23.4901 114.262 24.6505 114.612C25.4439 114.851 26.1126 114.732 27.0753 115.121C26.9649 114.469 26.7704 113.766 26.4622 113.178C26.2231 112.753 25.9579 112.334 25.8102 111.866C25.5962 112.25 25.4949 112.642 25.608 113.08ZM28.0357 114.893C28.2628 115.282 28.5627 115.61 28.9346 115.868C27.998 115.928 27.2443 115.334 26.3312 115.308C25.7672 115.292 25.2318 115.467 24.6566 115.415C25.3392 115.875 26.0538 116.278 26.8848 116.385C27.965 116.525 28.9612 116.253 30.153 116.359C29.596 115.966 29.3174 115.44 28.9702 114.875C28.5182 114.168 28.0916 113.665 27.2124 113.551C27.5653 113.948 27.7707 114.439 28.0357 114.893ZM31.362 116.447C29.712 116.728 28.1308 117.091 26.4457 117.108C28.332 117.765 30.1093 117.884 31.9801 117.205C32.9911 116.838 33.7663 116.642 34.5298 116.696C35.6457 116.777 37.0018 117.217 38.5027 118.8L39.0926 118.328C36.9415 116.411 34.127 115.977 31.3621 116.447L31.362 116.447Z" fill="#FDD406"/>
</svg>
