<svg width="160" height="120" viewBox="0 0 160 120" fill="none" xmlns="http://www.w3.org/2000/svg">
<path d="M0 0H160V120H0V0Z" fill="#54AEF2"/>
<path d="M143 5.48535L145.361 12.7508H153L146.82 17.241L149.18 24.5066L143 20.0162L136.82 24.5066L139.18 17.241L133 12.7508H140.639L143 5.48535Z" fill="#FDD406"/>
<path d="M122 45.5146L119.639 38.2492H112L118.18 33.7589L115.82 26.4934L122 30.9837L128.18 26.4934L125.82 33.7589L132 38.2492H124.361L122 45.5146Z" fill="#FDD406"/>
<path d="M101 53.5146L98.6393 46.2492H91L97.1803 41.7589L94.8196 34.4934L101 38.9837L107.18 34.4934L104.82 41.7589L111 46.2492H103.361L101 53.5146Z" fill="#FDD406"/>
<path d="M76 87.5146L73.6393 80.2492H66L72.1803 75.7589L69.8196 68.4934L76 72.9837L82.1804 68.4934L79.8197 75.7589L86 80.2492H78.3607L76 87.5146Z" fill="#FDD406"/>
<path d="M51 97.4854L53.3607 104.751H61L54.8197 109.241L57.1804 116.507L51 112.016L44.8196 116.507L47.1803 109.241L41 104.751H48.6393L51 97.4854Z" fill="#FDD406"/>
<path d="M73.6393 105.249L76 112.515L78.3607 105.249H86L79.8197 100.759L82.1804 93.4934L76 97.9837L69.8196 93.4934L72.1803 100.759L66 105.249H73.6393Z" fill="#FDD406"/>
<path d="M98.6393 98.2492L101 105.515L103.361 98.2492H111L104.82 93.7589L107.18 86.4934L101 90.9837L94.8196 86.4934L97.1803 93.7589L91 98.2492H98.6393Z" fill="#FDD406"/>
<path d="M124.361 73.7508L122 66.4854L119.639 73.7508H112L118.18 78.241L115.82 85.5066L122 81.0162L128.18 85.5066L125.82 78.241L132 73.7508H124.361Z" fill="#FDD406"/>
<path d="M145.361 60.7508L143 53.4854L140.639 60.7508H133L139.18 65.241L136.82 72.5066L143 68.0162L149.18 72.5066L146.82 65.241L153 60.7508H145.361Z" fill="#FDD406"/>
<path d="M0 0H80V50H0V0Z" fill="#021455"/>
<path d="M9.375 0L39.875 18.8542L70.25 0H80V6.45833L50 25.1042L80 43.6458V50H70L40 31.3542L10.125 50H0V43.75L29.875 25.2083L0 6.66667V0H9.375Z" fill="white"/>
<path d="M53 29.2708L80 45.8333V50L46.125 29.2708H53ZM30 31.3542L30.75 35L6.75 50H0L30 31.3542ZM80 0V0.3125L48.875 19.8958L49.125 15.3125L73.75 0H80ZM0 0L29.875 18.3333H22.375L0 4.375V0Z" fill="#E23726"/>
<path d="M30.125 0V50H50.125V0H30.125ZM0 16.6667V33.3333H80V16.6667H0Z" fill="white"/>
<path d="M0 30.1042V20.1042H34.125V0H46.125V20.1042H80V30.1042H46.125V50H34.125V30.1042H0Z" fill="#E23726"/>
</svg>
