<svg width="160" height="120" viewBox="0 0 160 120" fill="none" xmlns="http://www.w3.org/2000/svg">
<path d="M0 0H160V120H0V0Z" fill="black"/>
<path d="M0 20H160V50H0V20ZM0 80H160V120H0V80Z" fill="#FDD406"/>
<path d="M0 40H160V60H0V40ZM0 100H160V120H0V100Z" fill="#E23726"/>
<path d="M79.9998 78.7001C90.3275 78.7001 98.6998 70.3278 98.6998 60C98.6998 49.6723 90.3275 41.3 79.9998 41.3C69.6721 41.3 61.2998 49.6723 61.2998 60C61.2998 70.3278 69.6721 78.7001 79.9998 78.7001Z" fill="white"/>
<path d="M76.7046 45.6781L75.4917 43.4441C75.9597 42.976 76.7471 42.6143 78.0024 42.6143C78.0024 42.6994 77.8747 45.0611 77.8747 45.0611L76.7046 45.6781Z" fill="#E23726"/>
<path d="M77.8745 45.0824L78.0448 42.6142C78.0448 42.6142 80.5555 42.4654 81.9172 44.1036C81.9384 44.0823 80.5768 46.0184 80.5768 46.0184L77.8745 45.0824Z" fill="#FDD406"/>
<path d="M80.6191 45.9972L81.8531 44.0824C82.6829 44.9548 83.0233 45.5718 83.151 46.508C83.1723 46.5293 81.1936 46.9973 81.1936 46.976C81.1936 46.9547 80.6404 46.0185 80.6191 45.9972Z" fill="#E23726"/>
<path fill-rule="evenodd" clip-rule="evenodd" d="M82.0172 44.1103C82.0174 44.1086 82.0175 44.1068 82.0176 44.1053C82.0163 44.0919 82.0045 44.0674 81.9875 44.0454L81.9943 44.0397C81.2932 43.1962 80.3 42.8166 79.4911 42.6468C79.0858 42.5616 78.7238 42.5285 78.4631 42.5167C78.3327 42.5108 78.2274 42.5102 78.1543 42.5111C78.1178 42.5115 78.0894 42.5123 78.0699 42.5131C78.0601 42.5134 78.0526 42.5137 78.0474 42.514L78.0423 42.5143H78.0024C76.7276 42.5143 75.9122 42.8821 75.421 43.3734L75.3682 43.4262L76.6638 45.8127L77.8586 45.1827L80.5834 46.1265C80.5975 46.1494 80.6141 46.1768 80.6326 46.2077C80.6873 46.2984 80.7582 46.4178 80.8286 46.5373C80.899 46.6568 80.9686 46.7761 81.0205 46.8667C81.0465 46.9121 81.0678 46.9499 81.0825 46.9767C81.0899 46.9903 81.0952 47.0003 81.0985 47.0068L81.0986 47.007C81.1108 47.0454 81.1434 47.0631 81.1536 47.0677C81.1685 47.0743 81.1815 47.0757 81.1853 47.0761C81.1951 47.0771 81.2035 47.0765 81.2067 47.0763C81.2148 47.0757 81.2238 47.0745 81.2317 47.0732C81.2483 47.0706 81.2712 47.0664 81.2986 47.0609C81.3537 47.0499 81.4318 47.0331 81.5246 47.0124C81.7104 46.9711 81.9575 46.9138 82.2038 46.8552C82.4501 46.7966 82.696 46.7367 82.8792 46.6899C82.9707 46.6666 83.0473 46.6464 83.1007 46.6312C83.1271 46.6237 83.1495 46.617 83.1655 46.6115C83.1728 46.609 83.1824 46.6055 83.1912 46.6012L83.1914 46.6011C83.1944 46.5997 83.2055 46.5943 83.2166 46.5847C83.221 46.5808 83.2373 46.5664 83.2461 46.5411C83.2508 46.5274 83.2536 46.5096 83.2498 46.4898C83.1229 45.565 82.7901 44.9421 82.0172 44.1103ZM78.1385 42.7113L77.9798 45.013L80.5385 45.8993L80.7076 45.6588C80.7483 45.6009 80.7933 45.5369 80.8411 45.4687L81.7482 44.0612C81.0941 43.3399 80.201 43.0002 79.45 42.8425C79.0575 42.7601 78.7066 42.728 78.454 42.7165C78.3278 42.7108 78.2264 42.7102 78.1568 42.7111L78.1385 42.7113ZM81.0071 45.5804C81.1086 45.436 81.223 45.2731 81.337 45.1105C81.5059 44.8698 81.6742 44.6297 81.7989 44.4511C81.8421 44.3893 81.88 44.3348 81.9111 44.2902C82.6133 45.0546 82.9157 45.6244 83.0406 46.4404C82.9901 46.4546 82.9176 46.4737 82.8298 46.4961C82.648 46.5425 82.4033 46.6022 82.1575 46.6606C81.9118 46.7191 81.6657 46.7761 81.4811 46.8172C81.3887 46.8378 81.3124 46.8542 81.2594 46.8648L81.2502 46.8666C81.2353 46.8398 81.2161 46.8059 81.194 46.7673C81.1415 46.6757 81.0715 46.5557 81.0009 46.4358C80.9303 46.3159 80.859 46.196 80.804 46.1045C80.7781 46.0616 80.7557 46.0248 80.7386 45.9971L81.0071 45.5804ZM75.6158 43.4632L76.7453 45.5436L77.7779 44.9991L77.7948 44.6854C77.8068 44.4627 77.8227 44.1648 77.8387 43.8643C77.8546 43.5638 77.8706 43.2607 77.8826 43.0274C77.8886 42.9107 77.8935 42.8116 77.897 42.739L77.8982 42.7151C76.7708 42.7338 76.0538 43.0552 75.6158 43.4632ZM81.2882 46.9417C81.2876 46.9401 81.287 46.9385 81.2864 46.937C81.291 46.948 81.294 46.9609 81.294 46.976C81.294 46.9574 81.2885 46.9426 81.2882 46.9417Z" fill="black"/>
<path d="M77.3214 77.6147C77.3214 77.6147 79.6406 74.955 84.1512 75.5296C83.4704 74.4231 81.2789 74.5508 81.2789 74.5508C81.2789 74.5508 80.5981 69.3806 81.1299 69.1252C81.6618 68.8698 83.9171 69.1465 83.9171 69.1465C84.2149 69.1465 84.7257 68.3379 84.3215 67.8273C83.9171 67.3166 82.7257 65.3592 83.215 64.9761C83.7045 64.5932 86.364 65.1889 86.364 65.1889L78.8533 55.5719C78.8533 55.5719 78.0873 51.9548 79.6193 50.2101C81.4704 48.6782 81.2789 47.0185 81.215 47.0398C80.9597 45.3589 78.4066 44.146 76.6831 45.6994C75.6618 46.9334 76.3426 47.8696 76.3426 47.8696C76.3426 47.8696 73.6618 48.593 73.5554 49.0611C73.449 49.5293 76.5767 48.9761 76.5767 48.9761L76.2787 51.125C76.2787 51.125 70.1936 56.6569 74.8532 61.4442C74.8958 61.4229 75.0022 61.2314 75.0022 61.2314C75.0022 61.2314 76.6405 63.2528 78.3638 63.6996C79.9809 65.3592 79.8321 65.1038 79.8321 65.1038C79.8321 65.1038 80.1511 67.7209 79.8534 68.2315C79.449 68.1038 75.3214 67.955 74.7042 68.189C74.1511 68.3592 72.0234 68.2528 72.5553 71.721C72.9595 70.7848 73.3213 69.955 73.3213 69.955C73.3213 69.955 73.2574 71.2103 73.7682 71.6572C73.6831 70.3379 74.2575 69.4444 74.2575 69.4444C74.2575 69.4444 74.3639 70.8912 74.683 71.1039C75.0022 71.3167 75.0022 68.7634 76.7682 68.9762C78.5341 69.189 79.8108 69.1252 79.8108 69.1252C79.8108 69.1252 80.4065 74.1252 80.215 74.5934C78.9383 74.2954 75.8958 74.721 75.7043 75.487C77.4915 75.3806 78.3214 75.5933 78.3214 75.5933C78.3214 75.5933 76.8746 76.87 77.3214 77.6147Z" fill="black"/>
<path fill-rule="evenodd" clip-rule="evenodd" d="M77.9655 50.2655L78.134 50.3591C78.0167 50.7715 77.8732 51.1789 77.7313 51.5819C77.6995 51.6721 77.6678 51.7621 77.6365 51.8519C77.4648 52.3446 77.304 52.8326 77.2 53.327C76.9927 54.3121 77.0109 55.3205 77.6261 56.4246L77.7165 56.5868L77.5314 56.5714L77.4364 56.5637C77.3788 56.559 77.3009 56.5528 77.22 56.5465C77.112 56.5382 77.0021 56.5302 76.9264 56.5257L76.9271 56.5295C76.94 56.5984 76.9666 56.6936 76.9976 56.7928C77.0283 56.891 77.0622 56.9896 77.0885 57.0638C77.1016 57.1009 77.1128 57.1318 77.1207 57.1533C77.1246 57.1641 77.1277 57.1726 77.1299 57.1783L77.1323 57.1848L77.1329 57.1864L77.1901 57.339L77.0288 57.32C76.889 57.3035 76.7483 57.287 76.6075 57.2705L76.3689 57.2425L76.4545 57.4013C76.5122 57.5083 76.5699 57.6154 76.6283 57.724L76.7345 57.9213L76.0945 57.7613C76.1095 57.8076 76.1259 57.8605 76.1422 57.9167C76.1914 58.0865 76.2443 58.3034 76.2412 58.4567C76.2418 58.4597 76.2423 58.4628 76.2427 58.4661C76.245 58.4859 76.2431 58.5264 76.2076 58.5568C76.1772 58.5829 76.1433 58.5823 76.1318 58.5815C76.1175 58.5806 76.1056 58.577 76.0987 58.5747C76.0731 58.5661 76.0428 58.5483 76.0172 58.5323C75.9609 58.497 75.8843 58.4422 75.8116 58.3879C75.7719 58.3582 75.7325 58.3281 75.6973 58.3006L75.6949 58.337C75.6852 58.4819 75.6706 58.6992 75.6185 58.9661L75.5636 59.2472L75.4332 58.9922C74.455 57.0799 75.1043 54.887 75.9757 53.1938C76.413 52.3441 76.91 51.6126 77.2975 51.0937C77.4913 50.8342 77.6579 50.6276 77.7763 50.4856C77.8354 50.4147 77.8825 50.3599 77.915 50.3227C77.9312 50.3041 77.9437 50.2899 77.9522 50.2803L77.962 50.2694L77.9645 50.2666L77.9655 50.2655L78.0388 50.332C77.9722 50.2716 77.9661 50.266 77.9655 50.2655Z" fill="#CCCCCC"/>
<path d="M79.5767 46.1461C79.5767 46.1461 79.8108 47.827 78.8959 48.3163C78.7469 48.4227 78.1725 48.6143 78.2576 48.9548C78.364 49.4228 78.6192 49.3377 78.981 49.2525C79.9383 49.0823 81.0448 47.0398 79.5767 46.1461Z" fill="#CCCCCC"/>
<path d="M77.6002 47.96C77.7991 47.96 77.9602 47.7988 77.9602 47.6C77.9602 47.4012 77.7991 47.24 77.6002 47.24C77.4014 47.24 77.2402 47.4012 77.2402 47.6C77.2402 47.7988 77.4014 47.96 77.6002 47.96Z" fill="white"/>
<path d="M76.5128 48.9972C76.2787 49.1887 75.0447 50.4654 76.2574 50.9335C77.5129 50.593 77.1724 50.359 77.449 50.0824C77.4562 49.5079 76.8249 49.359 76.5128 48.9972Z" fill="#E23726"/>
<path fill-rule="evenodd" clip-rule="evenodd" d="M76.5248 48.8582L76.5885 48.9319C76.6585 49.0131 76.7485 49.0846 76.85 49.1574C76.8817 49.1802 76.9152 49.2035 76.9495 49.2273C77.0207 49.2767 77.0949 49.3283 77.1624 49.3815C77.3678 49.5432 77.5531 49.7503 77.549 50.0837L77.5485 50.1244L77.5197 50.1531C77.4646 50.2082 77.4401 50.2601 77.4154 50.3216C77.4126 50.3286 77.4097 50.3358 77.4068 50.3433C77.3839 50.4015 77.3555 50.4736 77.2989 50.5458C77.1705 50.7094 76.9123 50.8595 76.2835 51.03L76.2519 51.0386L76.2214 51.0268C75.8978 50.9019 75.7181 50.7144 75.6562 50.4867C75.5961 50.2653 75.6544 50.0297 75.7518 49.8196C75.9464 49.3997 76.3253 49.0214 76.4494 48.9199L76.5248 48.8582ZM76.2633 50.8282C76.8648 50.6623 77.0586 50.5281 77.1415 50.4223C77.1792 50.3743 77.1971 50.3293 77.2205 50.2702C77.2235 50.2627 77.2266 50.255 77.2298 50.2469C77.2547 50.1852 77.2857 50.1157 77.3484 50.0437C77.3384 49.8238 77.2153 49.6777 77.0387 49.5387C76.9756 49.489 76.9102 49.4436 76.8421 49.3962C76.8066 49.3716 76.7704 49.3465 76.7334 49.3199C76.6559 49.2643 76.5775 49.2044 76.5071 49.1364C76.3581 49.2779 76.0828 49.5811 75.9332 49.9038C75.8444 50.0953 75.807 50.2787 75.8492 50.4343C75.8883 50.5782 76.002 50.7204 76.2633 50.8282Z" fill="black"/>
<path d="M79.274 61.0016L79.1449 60.8284L79.0963 61.0389C79.0929 61.0539 79.0887 61.0713 79.0841 61.0909C79.0464 61.2491 78.9744 61.5513 78.9478 61.9049C78.918 62.3014 78.9439 62.7739 79.1464 63.1902L79.1878 63.2753L79.2751 63.2386C79.7998 63.0183 80.1737 62.9436 80.4554 62.9486C80.7337 62.9535 80.9286 63.0363 81.097 63.1453L81.214 62.9834C80.3463 62.2849 80.0124 61.9929 79.274 61.0016Z" fill="#CCCCCC"/>
<path fill-rule="evenodd" clip-rule="evenodd" d="M81.0736 65.8043L80.9189 65.7152L80.9897 68.3581L81.0699 68.3724L81.0701 68.3725L81.0707 68.3726L81.0727 68.3729L81.0801 68.3742C81.0866 68.3753 81.096 68.3769 81.108 68.3788C81.1321 68.3827 81.1667 68.3881 81.2094 68.394C81.2947 68.4059 81.4126 68.4201 81.543 68.4296C81.6732 68.4391 81.8173 68.444 81.9545 68.4367C82.0904 68.4295 82.2263 68.4101 82.3365 68.3672C82.4166 68.3361 82.469 68.2712 82.4995 68.1962C82.5295 68.1223 82.5409 68.0335 82.5389 67.9385C82.5349 67.7479 82.4766 67.5095 82.3682 67.2583C82.1509 66.755 81.7228 66.1784 81.0736 65.8043ZM81.0875 68.274L81.0699 68.3724C81.0699 68.3724 81.0699 68.3724 81.0875 68.274Z" fill="white"/>
<path d="M87.0449 66.189C87.0449 66.189 85.513 62.4869 81.598 61.5507C77.6831 60.6145 78.1936 56.4443 78.5129 56.1889C78.6831 55.8271 78.8108 55.274 79.9384 55.806C81.0661 56.3379 86.2577 58.9548 87.0023 59.0825C87.747 59.2102 87.1088 66.2742 87.0449 66.189Z" fill="#CCCCCC"/>
<path fill-rule="evenodd" clip-rule="evenodd" d="M78.647 56.1347C78.633 56.1662 78.6188 56.1984 78.6032 56.2315L78.5934 56.2525L78.5753 56.2669C78.5753 56.2669 78.5754 56.2669 78.5753 56.2669C78.5754 56.2669 78.5719 56.27 78.5658 56.2793C78.5593 56.2891 78.5515 56.3032 78.5429 56.3222C78.5256 56.3603 78.5073 56.4129 78.4898 56.4796C78.4549 56.6127 78.4248 56.7939 78.4094 57.0099C78.3785 57.4417 78.4065 58.0048 78.5641 58.5884C78.8781 59.7511 79.7055 60.9953 81.6212 61.4534C83.6058 61.928 84.9848 63.1034 85.8662 64.1567C86.307 64.6836 86.6242 65.1808 86.8313 65.5467C86.8981 65.6646 86.9534 65.7689 86.9979 65.8563C87.0188 65.6748 87.0439 65.4236 87.0702 65.1238C87.1273 64.4728 87.1897 63.5953 87.2268 62.7114C87.264 61.8267 87.2758 60.9387 87.2322 60.2652C87.2104 59.9277 87.175 59.6492 87.1238 59.4533C87.098 59.355 87.0698 59.2834 87.041 59.2368C87.0115 59.1889 86.991 59.182 86.9853 59.1811C86.8806 59.1631 86.7089 59.1043 86.4945 59.0199C86.2771 58.9343 86.0073 58.8189 85.7022 58.6828C85.0918 58.4106 84.3368 58.0544 83.5706 57.6859C82.7413 57.2871 81.9002 56.8747 81.2132 56.5377C80.6284 56.2509 80.1551 56.0188 79.8956 55.8964C79.3387 55.6337 79.067 55.6582 78.9181 55.7479C78.8415 55.7941 78.7848 55.8644 78.7358 55.9509C78.7016 56.0112 78.6748 56.0717 78.647 56.1347ZM86.9557 66.1509C86.9557 66.1508 86.9558 66.1503 86.9561 66.1497C86.9557 66.1509 86.9556 66.1512 86.9557 66.1509ZM79.981 55.7155C79.4103 55.4463 79.0544 55.4323 78.8149 55.5766C78.6975 55.6474 78.6198 55.75 78.5618 55.8523C78.5227 55.9212 78.4888 55.9977 78.4588 56.0653C78.4489 56.0879 78.4393 56.1094 78.4301 56.1294C78.4011 56.1598 78.3786 56.2001 78.3607 56.2396C78.3374 56.2911 78.3157 56.3552 78.2964 56.4288C78.2576 56.5763 78.226 56.7701 78.2099 56.9956C78.1776 57.4467 78.2068 58.0326 78.371 58.6405C78.7006 59.8607 79.5753 61.1698 81.5747 61.6479C83.505 62.1095 84.8494 63.2533 85.7128 64.2851C86.1443 64.8008 86.4548 65.2876 86.6573 65.6452C86.7584 65.8239 86.8325 65.9702 86.8812 66.0714C86.9055 66.122 86.9235 66.1614 86.9353 66.1879C86.9412 66.2011 86.9456 66.2112 86.9484 66.2178L86.9515 66.2252L86.9522 66.2269L86.9524 66.2272L86.9572 66.2389L86.9648 66.249C86.9713 66.2577 86.9843 66.2722 87.0059 66.2815C87.0304 66.292 87.0568 66.2921 87.0798 66.284C87.1147 66.2716 87.1308 66.2445 87.1336 66.2398L87.1338 66.2395C87.1427 66.2247 87.1471 66.2093 87.1487 66.2036C87.1533 66.1873 87.1575 66.1654 87.1616 66.1414C87.17 66.0918 87.18 66.0182 87.1911 65.9252C87.2134 65.7385 87.2408 65.4679 87.2694 65.1412C87.3267 64.4877 87.3893 63.6072 87.4266 62.7198C87.4639 61.8331 87.4761 60.9365 87.4318 60.2523C87.4098 59.9109 87.3734 59.6173 87.3172 59.4027C87.2893 59.2958 87.2549 59.2026 87.2113 59.1318C87.1683 59.0622 87.1066 58.9989 87.0191 58.9839C86.9377 58.97 86.7843 58.9191 86.5678 58.8338C86.3544 58.7498 86.0876 58.6357 85.7837 58.5001C85.1759 58.2291 84.423 57.8739 83.6573 57.5057C82.8322 57.1089 81.9909 56.6963 81.3027 56.3589C80.7158 56.071 80.2403 55.8378 79.981 55.7155Z" fill="black"/>
<path d="M83.3214 61.5294C83.2575 61.572 88.5555 64.6569 86.9597 67.3166C88.4705 66.3166 87.981 64.572 87.981 64.572C87.981 64.572 89.215 67.7848 86.215 69.3593C86.5342 69.636 86.747 69.572 86.747 69.572L86.2363 70.0827C86.2363 70.0827 86.0022 70.4656 88.0236 69.4868C87.4703 69.9337 87.4279 70.2528 87.4279 70.2528C87.4279 70.2528 87.5767 70.6784 88.896 69.5294C87.832 70.6784 87.598 71.2741 87.598 71.2529C90.4703 70.9975 96.7257 61.6571 85.6193 58.891C86.2152 59.5081 86.1299 59.423 86.1299 59.423L83.6003 59.9L83.3214 61.5294Z" fill="#E23726"/>
<path fill-rule="evenodd" clip-rule="evenodd" d="M85.3052 58.7097L85.6433 58.7939C88.4337 59.4889 90.1495 60.6007 91.0984 61.8944C92.0487 63.19 92.2202 64.6547 91.9487 66.0328C91.6775 67.4089 90.9642 68.7021 90.1383 69.6676C89.7251 70.1506 89.2819 70.5536 88.8488 70.8448C88.4214 71.1322 87.9975 71.3148 87.6182 71.3514C87.6052 71.3541 87.5895 71.3547 87.572 71.3499C87.5231 71.3367 87.5066 71.2962 87.5026 71.2835C87.498 71.2689 87.4979 71.2568 87.4979 71.2529V71.1614L87.5357 71.158C87.5431 71.1438 87.5522 71.1265 87.5632 71.1063C87.6031 71.0331 87.6671 70.9223 87.7645 70.7749C87.8659 70.6213 88.0035 70.4282 88.1878 70.1966C87.967 70.3342 87.8053 70.3982 87.6852 70.4203C87.5659 70.4423 87.4789 70.4244 87.418 70.3858C87.3885 70.367 87.3683 70.3453 87.3551 70.3266C87.3485 70.3173 87.3437 70.3088 87.3402 70.3019C87.3385 70.2984 87.3371 70.2952 87.336 70.2925C87.3354 70.2912 87.3349 70.2899 87.3345 70.2888L87.3339 70.2872L87.3336 70.2865L87.3335 70.2861C87.3335 70.2861 87.3334 70.2858 87.4278 70.2528C87.3286 70.2396 87.3287 70.2395 87.3287 70.2395L87.3287 70.239L87.3288 70.2382L87.3291 70.2363C87.3293 70.2353 87.3295 70.2342 87.3297 70.2329C87.3298 70.2323 87.3299 70.2318 87.33 70.2312C87.3307 70.2271 87.3318 70.2219 87.3333 70.2155C87.3363 70.2027 87.341 70.1852 87.3484 70.1636C87.3632 70.1203 87.3887 70.0603 87.4319 69.9867C87.4607 69.9378 87.4972 69.883 87.5437 69.8233C86.8904 70.1207 86.5569 70.2274 86.3854 70.2509C86.3314 70.2583 86.2845 70.2589 86.2454 70.2495C86.204 70.2396 86.1621 70.2157 86.1406 70.1696C86.1211 70.128 86.1284 70.089 86.1339 70.0697C86.137 70.0589 86.1408 70.05 86.1437 70.0438C86.1453 70.0406 86.1467 70.0378 86.1479 70.0357L86.1496 70.0327L86.1503 70.0315L86.1506 70.031L86.1507 70.0308C86.1507 70.0308 86.1509 70.0305 86.2362 70.0827L86.1509 70.0305L86.1571 70.0204L86.5241 69.6534C86.4206 69.6229 86.293 69.5593 86.1494 69.4349L86.0386 69.3389L86.1684 69.2708C87.6315 68.5029 88.0584 67.3413 88.1231 66.3686C88.1385 66.1382 88.1334 65.9183 88.1167 65.7167C88.0234 66.2718 87.7406 66.9196 87.0148 67.4L86.8738 67.2652C87.2527 66.6336 87.2252 65.9765 86.9628 65.3341C86.6988 64.6882 86.1989 64.0631 85.6444 63.5125C85.091 62.9631 84.4891 62.4937 84.0284 62.1584C83.8106 61.9999 83.6247 61.8717 83.4904 61.779C83.4827 61.7737 83.4752 61.7685 83.4679 61.7635C83.4005 61.717 83.3463 61.6794 83.31 61.6528C83.2924 61.6399 83.2762 61.6275 83.2644 61.6171C83.2595 61.6128 83.2499 61.6041 83.2416 61.5929C83.2385 61.5886 83.2276 61.5738 83.223 61.5518C83.2203 61.5394 83.2186 61.5201 83.2259 61.4983C83.2331 61.477 83.2464 61.4605 83.2615 61.4492L83.7002 60L85.9803 59.4101C85.9102 59.3369 85.7814 59.203 85.5472 58.9604L85.3052 58.7097ZM86.1638 59.5225L83.9002 60.1L83.4848 61.5318C83.5119 61.5508 83.5442 61.5731 83.5815 61.5989C83.5889 61.604 83.5964 61.6092 83.6042 61.6145C83.7385 61.7072 83.9262 61.8367 84.1461 61.9967C84.6109 62.335 85.2218 62.8111 85.7854 63.3706C86.3479 63.9291 86.8693 64.5766 87.1479 65.2585C87.3757 65.8161 87.4423 66.4004 87.2336 66.9749C87.7071 66.5339 87.8844 66.0056 87.9375 65.5575C87.9696 65.2868 87.9561 65.0458 87.9346 64.8725C87.9238 64.786 87.9111 64.7167 87.9011 64.6694C87.8962 64.6458 87.8919 64.6277 87.889 64.6158C87.8882 64.6126 87.8875 64.6098 87.8869 64.6075C87.8864 64.6055 87.8859 64.6038 87.8856 64.6025L87.8848 64.5995L87.8846 64.599C87.8846 64.599 87.8846 64.5989 87.8857 64.5986L88.0743 64.5361L87.9809 64.572C88.0743 64.5361 88.0743 64.5361 88.0743 64.5361L88.0744 64.5364L88.0746 64.5371L88.0754 64.5392L88.0783 64.5468C88.0807 64.5535 88.0842 64.5631 88.0885 64.5756C88.0972 64.6006 88.1094 64.6371 88.1237 64.6838C88.1523 64.7772 88.1896 64.9117 88.2247 65.0779C88.2948 65.4099 88.3567 65.8702 88.3227 66.3818C88.2564 67.378 87.8255 68.5668 86.398 69.3734C86.4912 69.4347 86.5669 69.4607 86.6202 69.4713C86.6576 69.4788 86.6854 69.479 86.702 69.4779C86.7103 69.4773 86.716 69.4764 86.7187 69.4759C86.7201 69.4756 86.7206 69.4755 86.7206 69.4755L86.72 69.4757L86.7192 69.4759L86.7187 69.4759L86.7184 69.4761C86.7184 69.4761 86.7182 69.4761 86.7184 69.4766L86.8176 69.6427L86.4184 70.0419C86.6257 69.9971 87.0675 69.8386 87.9799 69.3968L88.0863 69.5646C87.8178 69.7815 87.6773 69.9641 87.6043 70.0881C87.5697 70.1469 87.5502 70.1928 87.5394 70.2234C87.5569 70.2292 87.5904 70.2344 87.649 70.2236C87.8225 70.1917 88.172 70.0273 88.8302 69.454L88.9692 69.5973C88.4407 70.1682 88.1196 70.6001 87.9313 70.8851C87.8681 70.9808 87.8198 71.06 87.7836 71.1225C88.0737 71.0578 88.3985 70.9066 88.7372 70.6788C89.1527 70.3995 89.5827 70.0093 89.9863 69.5375C90.794 68.5934 91.489 67.3308 91.7524 65.9941C92.0155 64.6594 91.8479 63.2544 90.9372 62.0127C90.0634 60.8214 88.4966 59.7682 85.9374 59.0769C86.0666 59.2109 86.1349 59.2822 86.1704 59.3195C86.1943 59.3447 86.2072 59.3583 86.2122 59.3646C86.2129 59.3655 86.2156 59.3689 86.2184 59.3734C86.2195 59.375 86.2239 59.382 86.2275 59.3917C86.2291 59.3959 86.2337 59.4085 86.234 59.4254C86.2343 59.4432 86.229 59.4831 86.1904 59.5095C86.1814 59.5157 86.1723 59.5198 86.1638 59.5225ZM87.5267 70.2674C87.5267 70.2674 87.5267 70.2675 87.5268 70.267L87.5267 70.2674ZM87.4278 70.2528L87.3287 70.2395L87.3255 70.2633L87.3334 70.2858L87.4278 70.2528Z" fill="black"/>
<path d="M83.5555 60.6144C84.2789 61.125 84.5341 61.2952 84.6192 61.5506C83.9597 61.4018 83.364 61.4442 83.364 61.4442C83.364 61.4442 81.9384 60.0825 81.6831 59.9761C81.4915 59.9761 80.3852 59.274 80.3852 59.274C79.8321 58.9973 79.3215 57.0825 81.364 57.6357C83.4702 58.6356 83.7681 58.7208 83.7681 58.7208C84.6051 58.9832 85.4419 59.2457 86.2789 59.5081C86.7612 60.0471 87.2433 60.5861 87.7257 61.1251C87.7257 61.1251 85.1513 59.8484 84.832 59.8271C85.5342 60.4016 85.9385 61.1888 85.9385 61.1888C85.1228 60.9547 84.4137 60.7421 83.5555 60.6144Z" fill="white"/>
<path fill-rule="evenodd" clip-rule="evenodd" d="M80.1088 58.7827C80.1984 58.9834 80.3216 59.1304 80.4299 59.1846L80.4344 59.1869L80.4387 59.1896L80.451 59.1973C80.459 59.2024 80.4709 59.2099 80.4862 59.2195C80.5166 59.2385 80.5604 59.2658 80.6135 59.2986C80.7198 59.3642 80.8633 59.4515 81.0127 59.5387C81.1623 59.6261 81.3165 59.7127 81.4444 59.7771C81.5085 59.8094 81.5644 59.8353 81.609 59.853C81.6313 59.8618 81.6494 59.868 81.6634 59.8719C81.6756 59.8752 81.6816 59.8759 81.6829 59.8761C81.6831 59.8761 81.6832 59.8761 81.6829 59.8761L81.703 59.8761L81.7214 59.8838C81.7663 59.9025 81.8257 59.9428 81.8884 59.9897C81.954 60.0387 82.0323 60.102 82.1177 60.1739C82.2888 60.3178 82.492 60.499 82.6865 60.6762C82.8812 60.8535 83.0678 61.0274 83.2056 61.1569C83.2746 61.2217 83.3314 61.2754 83.3709 61.313C83.3827 61.3242 83.393 61.3339 83.4016 61.3421C83.4184 61.3414 83.4396 61.3406 83.4648 61.34C83.5326 61.3383 83.6297 61.3376 83.7476 61.3417C83.9318 61.3481 84.1679 61.366 84.4235 61.41C84.3839 61.3633 84.3317 61.313 84.2624 61.2548C84.1165 61.1325 83.9056 60.9838 83.596 60.7654C83.5643 60.7431 83.5315 60.72 83.4977 60.6961L83.5701 60.5155C84.3507 60.6316 85.0092 60.8175 85.7276 61.0242C85.6847 60.955 85.6309 60.8722 85.5667 60.7809C85.3809 60.5167 85.1103 60.1841 84.7686 59.9046L84.5267 59.7066L84.8386 59.7274C84.8953 59.7312 84.984 59.7592 85.0823 59.7951C85.1857 59.833 85.3143 59.8854 85.4581 59.947C85.746 60.0704 86.099 60.2326 86.4411 60.3937C86.7594 60.5435 87.0689 60.6928 87.309 60.8096C87.1805 60.6659 87.0519 60.5222 86.9233 60.3784C86.6897 60.1173 86.456 59.8562 86.2226 59.5953C85.8106 59.4661 85.3981 59.3368 84.9857 59.2075C84.5699 59.0771 84.1541 58.9467 83.7387 58.8165L83.7379 58.8162L83.7335 58.8148C83.7299 58.8137 83.7249 58.812 83.7181 58.8096C83.7046 58.8049 83.6836 58.7973 83.6524 58.7851C83.59 58.7609 83.4857 58.7185 83.3161 58.645C82.9777 58.4984 82.3777 58.2276 81.3292 57.7299C80.8333 57.5968 80.5121 57.6189 80.3133 57.7103C80.12 57.7991 80.026 57.9613 80.0003 58.1567C79.974 58.356 80.0205 58.5852 80.1088 58.7827ZM87.7256 61.1252L87.6811 61.2148L87.8001 61.0585C87.5575 60.7874 87.3152 60.5165 87.0728 60.2457C86.8331 59.9777 86.5933 59.7097 86.3533 59.4414L86.3349 59.4209L86.3087 59.4127C85.8876 59.2807 85.4671 59.1488 85.0465 59.0169C84.6305 58.8865 84.2145 58.756 83.798 58.6254L83.7964 58.6249L83.7949 58.6245C83.793 58.6239 83.7896 58.6228 83.7841 58.6208C83.7732 58.617 83.7544 58.6102 83.7248 58.5987C83.6655 58.5757 83.5637 58.5343 83.3956 58.4615C83.0593 58.3158 82.4594 58.045 81.4068 57.5453L81.3987 57.5415L81.39 57.5392C80.8695 57.3982 80.4912 57.4083 80.2297 57.5285C79.9616 57.6518 79.8348 57.8819 79.802 58.1306C79.7697 58.3755 79.827 58.6423 79.9262 58.8643C80.023 59.0811 80.1693 59.2756 80.3356 59.361L80.3442 59.3665C80.3525 59.3717 80.3645 59.3793 80.3799 59.3889C80.4107 59.4082 80.4549 59.4358 80.5085 59.4688C80.6156 59.5349 80.7606 59.6231 80.9118 59.7114C81.0627 59.7996 81.221 59.8885 81.3544 59.9557C81.4209 59.9893 81.4829 60.0182 81.5355 60.039C81.5743 60.0543 81.6176 60.0693 81.6566 60.0743C81.6787 60.0861 81.7159 60.1104 81.7686 60.1499C81.8299 60.1957 81.9049 60.2562 81.989 60.3269C82.157 60.4683 82.358 60.6475 82.5518 60.824C82.7455 61.0004 82.9313 61.1736 83.0687 61.3027C83.1373 61.3672 83.1939 61.4207 83.2333 61.4581C83.253 61.4767 83.2684 61.4914 83.2788 61.5013L83.2947 61.5165L83.3268 61.5471L83.3709 61.544L83.3711 61.544L83.3722 61.5439L83.3768 61.5436C83.3809 61.5434 83.3873 61.543 83.3957 61.5426C83.4125 61.5417 83.4375 61.5407 83.4697 61.5399C83.5342 61.5383 83.6273 61.5376 83.7407 61.5416C83.968 61.5494 84.2752 61.5756 84.5971 61.6482L84.7701 61.6872L84.714 61.519C84.6629 61.3657 84.5615 61.2448 84.3909 61.1016C84.2852 61.013 84.1481 60.9119 83.9723 60.7866C84.5851 60.9036 85.1389 61.0629 85.7488 61.2384C85.8023 61.2538 85.8563 61.2693 85.9108 61.285L86.133 61.3487L86.0274 61.1432L85.9384 61.1889C86.0274 61.1432 86.0274 61.1432 86.0274 61.1432L86.0269 61.1423L86.0259 61.1403L86.0221 61.133C86.0187 61.1267 86.0138 61.1175 86.0073 61.1058C85.9945 61.0823 85.9754 61.0484 85.9504 61.006C85.9004 60.9213 85.8265 60.8027 85.7303 60.6659C85.6057 60.4887 85.4429 60.2798 85.2454 60.0744C85.288 60.092 85.3327 60.1109 85.3794 60.1309C85.664 60.2529 86.0145 60.4139 86.3559 60.5746C86.6971 60.7353 87.0284 60.8953 87.2745 61.0152C87.3976 61.0752 87.4993 61.1251 87.5702 61.16C87.6056 61.1774 87.6334 61.1911 87.6523 61.2005L87.6811 61.2148C87.6812 61.2148 87.6811 61.2148 87.7256 61.1252Z" fill="black"/>
<path d="M73.8017 49.2282C73.8455 49.2179 73.8942 49.2066 73.9469 49.1944C74.1826 49.14 74.4998 49.0683 74.8261 48.9994C75.1527 48.9303 75.4873 48.8642 75.7581 48.8208C75.8937 48.799 76.0117 48.7831 76.1042 48.7753C76.1504 48.7714 76.1888 48.7696 76.219 48.7699C76.251 48.7701 76.2672 48.7728 76.2726 48.7743L76.3275 48.582C76.2957 48.5729 76.2577 48.5702 76.2208 48.5699C76.1821 48.5695 76.137 48.5718 76.0873 48.576C75.9877 48.5845 75.8641 48.6012 75.7264 48.6233C75.4507 48.6675 75.1124 48.7344 74.7847 48.8037C74.4568 48.873 74.1383 48.945 73.9019 48.9996C73.7837 49.0269 73.6859 49.0498 73.6177 49.066C73.5915 49.0722 73.5697 49.0774 73.5528 49.0814C73.5509 49.1581 73.6453 49.2042 73.8017 49.2282Z" fill="white"/>
</svg>
