<svg width="161" height="120" viewBox="0 0 161 120" fill="none" xmlns="http://www.w3.org/2000/svg">
<g clip-path="url(#clip0_458_75)">
<path d="M160.455 0H0.455078V120H160.455V0Z" fill="#54AEF2"/>
<path d="M102.706 65.8275L102.167 65.5338C101.032 67.875 99.5259 70.0179 97.7084 71.8801L94.5646 68.7361C96.1048 67.1491 97.3466 65.3476 98.2615 63.4006L97.726 63.1077C96.8262 65.0282 95.6134 66.7858 94.1372 68.3085L91.2893 65.4606C92.4945 64.2093 93.4734 62.7583 94.1822 61.1722L93.6508 60.8823C92.9695 62.4178 92.0262 63.8232 90.8632 65.0353L87.7159 61.888C88.5792 60.9747 89.2616 59.906 89.7268 58.7385L89.1952 58.4485C88.759 59.5658 88.1131 60.5893 87.2924 61.464L84.4358 58.6078C85.2468 57.7063 85.7241 56.554 85.7882 55.3431H89.8316C89.7983 56.407 89.5831 57.4573 89.1952 58.4485L89.7268 58.7385C90.157 57.6563 90.394 56.507 90.427 55.3429H94.8842C94.8461 57.2531 94.4266 59.1364 93.6506 60.8823L94.1822 61.1722C94.9927 59.3572 95.4406 57.3847 95.48 55.3426H99.5158C99.4764 58.0286 98.8661 60.6755 97.7255 63.1075L98.2613 63.4005C99.4331 60.9069 100.07 58.1737 100.112 55.3428H104.569C104.524 58.9905 103.665 62.4444 102.167 65.5338L102.706 65.8272C104.317 62.5081 105.172 58.8429 105.172 55.0447C105.172 51.8148 104.554 48.6813 103.378 45.7743L102.826 46.0117C103.933 48.7549 104.533 51.705 104.57 54.7468H100.112C100.076 52.3201 99.5995 49.9669 98.7271 47.7733L98.179 48.0082C99.0205 50.1289 99.481 52.4023 99.5165 54.7468H95.4803C95.4475 52.9862 95.105 51.2452 94.4684 49.6033L93.9202 49.8388C94.5254 51.4061 94.852 53.0671 94.8851 54.7468H90.4274C90.3972 53.672 90.1932 52.6092 89.8234 51.5995L89.2753 51.8347C89.6143 52.7697 89.8023 53.7527 89.8321 54.7468H85.7887C85.7246 53.5359 85.2472 52.3836 84.4361 51.4821L87.2956 48.6231C88.1786 49.5621 88.8466 50.6526 89.2756 51.8349L89.8235 51.5997C89.3645 50.3493 88.654 49.1956 87.7163 48.2019L90.8683 45.0502C92.2133 46.4502 93.2399 48.0756 93.9203 49.8388L94.4684 49.6033C93.758 47.7718 92.6888 46.0831 91.2896 44.629L94.1435 41.7745C95.911 43.5975 97.2689 45.7126 98.179 48.0084L98.7271 47.7733C97.7869 45.409 96.3863 43.2307 94.5647 41.3541L97.7162 38.202C99.9452 40.4853 101.664 43.1347 102.825 46.0119L103.378 45.7744C102.151 42.7386 100.317 39.9502 97.9318 37.5652C95.5379 35.1712 92.7373 33.333 89.6882 32.106L89.4686 32.665C92.3521 33.8265 95.0074 35.5477 97.2949 37.7808L94.1434 40.9327C92.2984 39.1447 90.1609 37.7587 87.8404 36.8197L87.6229 37.3741C89.8669 38.2845 91.9351 39.625 93.7223 41.3587L90.8686 44.2126C89.4812 42.8779 87.8815 41.8416 86.1473 41.1321L85.9295 41.6863C87.5888 42.3663 89.1191 43.3581 90.4475 44.6338L87.296 47.7853C86.4095 46.9498 85.3958 46.294 84.3005 45.8367L84.0826 46.3914C85.1144 46.8246 86.0602 47.4395 86.8748 48.2068L84.0158 51.0658C83.1071 50.2519 81.9682 49.7802 80.7503 49.7137V45.6705C81.8959 45.7044 83.0255 45.9488 84.0826 46.3915L84.3005 45.8367C83.1869 45.3715 81.9878 45.111 80.7505 45.0747V40.6171C82.5553 40.6534 84.304 41.0202 85.9297 41.6865L86.1473 41.1321C84.4532 40.4391 82.6306 40.0581 80.7505 40.0218V35.9838C83.1437 36.0204 85.4644 36.4977 87.6227 37.3728L87.8402 36.8184C85.6132 35.9163 83.2198 35.4249 80.7502 35.3883V30.9303C83.7862 30.9672 86.7308 31.5655 89.4689 32.668L89.6885 32.109C86.7914 30.9424 83.6696 30.3279 80.4527 30.3279C76.4785 30.3279 72.7234 31.276 69.3934 32.9494L69.665 33.4693C72.8873 31.8547 76.4525 30.9751 80.155 30.9304V35.3884C77.2317 35.4302 74.3551 36.1278 71.7374 37.4296L72.0082 37.948C74.5151 36.7071 77.2825 36.0271 80.155 35.9833V40.0198C77.9793 40.0609 75.8388 40.577 73.8835 41.532L74.1557 42.0528C76.0069 41.1543 78.0424 40.6578 80.155 40.6152V45.073C78.7949 45.1122 77.4574 45.4308 76.2257 46.009L76.4995 46.5319C77.6344 46.0045 78.8725 45.708 80.155 45.6682V49.7122C79.5435 49.7459 78.9424 49.8848 78.3781 50.1228L78.6514 50.6452C79.2232 50.4116 79.8352 50.2918 80.4529 50.2927C81.7228 50.2927 82.9166 50.7873 83.8148 51.6852C84.713 52.5832 85.2074 53.7777 85.2074 55.0477C85.2074 57.6694 83.0749 59.803 80.4527 59.803C79.1824 59.803 77.9882 59.3083 77.0902 58.4103C76.1921 57.5118 75.6976 56.3178 75.6976 55.0477C75.6976 53.7775 76.1921 52.5832 77.0902 51.6852C77.5362 51.2382 78.0671 50.8847 78.6514 50.6452L78.3779 50.1226C77.8337 50.3526 77.3314 50.6711 76.8914 51.0654L74.0309 48.2047C74.7591 47.5189 75.5924 46.9541 76.4992 46.5318L76.2254 46.0089C75.2658 46.4594 74.3838 47.0595 73.6124 47.7867L70.4576 44.6317C71.5476 43.5837 72.7955 42.7134 74.1556 42.0526L73.8833 41.5318C72.4709 42.2209 71.1747 43.1263 70.0417 44.2153L67.1827 41.3566C68.6042 39.9765 70.2321 38.8265 72.0079 37.9479L71.7371 37.4295C69.9091 38.3366 68.2328 39.5215 66.7676 40.942L63.6095 37.7838C65.393 36.0416 67.4357 34.5862 69.6647 33.4693L69.3932 32.9494C64.58 35.3682 60.6617 39.3099 58.2755 44.142L58.7935 44.4214C59.9205 42.1298 61.4039 40.0315 63.1885 38.2047L66.3469 41.3631C64.869 42.885 63.6463 44.6352 62.7257 46.5465L63.2417 46.825C64.1222 44.9856 65.3027 43.2819 66.7612 41.7778L69.6203 44.6367C68.4611 45.843 67.5106 47.2338 66.8078 48.7521L67.3249 49.0311C67.9993 47.5623 68.916 46.2175 70.0367 45.0529L73.1915 48.2079C72.3788 49.0696 71.7255 50.0688 71.2621 51.1588L71.7833 51.4408C72.2173 50.4 72.8359 49.4463 73.6093 48.6256L76.4698 51.4861C75.6845 52.3639 75.1859 53.4987 75.1168 54.7494H71.0725C71.1064 53.6124 71.3473 52.4911 71.7833 51.4405L71.2619 51.1585C70.7789 52.2961 70.5127 53.514 70.477 54.7494H66.0197C66.0599 52.7434 66.5098 50.8065 67.3247 49.0308L66.8075 48.7518C65.9351 50.6333 65.4642 52.6759 65.4248 54.7495H61.3879C61.4303 51.9619 62.0698 49.2727 63.2416 46.8247L62.7257 46.5462C61.5266 49.0362 60.8371 51.8155 60.7933 54.7495H56.3351C56.3789 51.1089 57.2297 47.6008 58.7932 44.4213L58.2752 44.1418C56.65 47.4337 55.7324 51.1347 55.7324 55.0474C55.7324 57.4408 56.0743 59.7799 56.7272 62.0146L57.311 61.8676C56.6896 59.7483 56.3612 57.5538 56.3351 55.3453H60.7925C60.8183 57.187 61.1022 59.0159 61.6358 60.7788L62.2138 60.6333C61.6969 58.9386 61.4158 57.1627 61.3879 55.3453H65.4241C65.4522 56.8054 65.6923 58.2536 66.1369 59.6446L66.7159 59.4985C66.2823 58.1555 66.0479 56.7563 66.0199 55.3453H70.4771C70.5069 56.3897 70.7005 57.4228 71.0507 58.4071L71.63 58.2609C71.2908 57.3248 71.1026 56.3407 71.0725 55.3455H75.1163C75.1803 56.5564 75.6575 57.7087 76.4684 58.6102L73.6093 61.4695C72.7273 60.5308 72.0595 59.4417 71.6299 58.261L71.0507 58.4071C71.5082 59.6902 72.2293 60.8742 73.1881 61.8904L70.0366 65.0422C68.5036 63.4462 67.3816 61.5547 66.7171 59.4997L66.1381 59.6458C66.8281 61.8037 68.0047 63.7888 69.6167 65.4643L66.7624 68.3188C64.6279 66.1177 63.0862 63.492 62.2151 60.634L61.6372 60.7797C62.5348 63.7402 64.1297 66.4612 66.3412 68.7397L63.1895 71.8915C60.4001 69.0334 58.4078 65.6031 57.3125 61.8687L56.7286 62.0157C57.8776 65.9472 59.9971 69.5512 62.9743 72.5277C64.9904 74.5444 67.2949 76.1676 69.7933 77.3637L70.0891 76.839C67.7246 75.7122 65.5375 74.1937 63.6106 72.3124L66.7621 69.1609C68.3742 70.728 70.2432 72.007 72.2876 72.9423L72.5816 72.4206C70.6081 71.5251 68.7829 70.2903 67.1837 68.74L70.0378 65.8858C71.3755 67.1728 72.9113 68.1816 74.5745 68.8882L74.8685 68.3674C73.253 67.6894 71.759 66.7144 70.46 65.4664L73.6118 62.3146C74.6246 63.2701 75.8036 63.9897 77.0818 64.4476L77.3797 63.9201C76.1337 63.4883 74.9932 62.7977 74.0332 61.8936L76.8923 59.0343C77.8004 59.8488 78.9392 60.3202 80.1571 60.387V64.4308C79.2108 64.4017 78.2744 64.2296 77.3797 63.9202L77.0818 64.4478C78.07 64.8014 79.1079 64.9966 80.1571 65.0262V69.4831C78.3127 69.4462 76.5256 69.0643 74.8697 68.3697L74.5759 68.8905C76.322 69.6327 78.2081 70.0413 80.1571 70.0789V74.1153C77.5012 74.0743 74.9362 73.4905 72.583 72.4228L72.289 72.9444C74.7317 74.0607 77.3974 74.6695 80.1572 74.7108V79.1676C76.6169 79.1251 73.2002 78.3225 70.0906 76.8411L69.7946 77.3658C73.0811 78.9388 76.7036 79.7704 80.4551 79.7704C84.3901 79.7704 88.1816 78.8509 91.5938 77.1244L91.3121 76.578C88.1299 78.1897 84.5474 79.1212 80.7524 79.1679V74.7109C83.7613 74.6664 86.6576 73.9452 89.2745 72.6289L88.9963 72.0895C86.437 73.3799 83.6183 74.0725 80.7524 74.115V70.0786C83.0099 70.0351 85.1827 69.4936 87.151 68.5117L86.8744 67.975C84.9709 68.9257 82.8797 69.4408 80.7524 69.483V65.026C82.1902 64.984 83.5742 64.638 84.8339 64.0213L84.5594 63.4878C83.3715 64.0681 82.0739 64.3894 80.7524 64.4304V60.387C81.9636 60.323 83.1161 59.8456 84.0176 59.0343L86.8738 61.8907C86.1864 62.5358 85.4063 63.0741 84.5593 63.4878L84.8339 64.0213C85.7364 63.5796 86.567 63.0043 87.2978 62.3148L90.4445 65.4616C89.3884 66.4752 88.1847 67.3226 86.8744 67.975L87.151 68.5117C88.5169 67.8309 89.7711 66.9462 90.8708 65.8879L93.7186 68.7355C92.3239 70.0868 90.7315 71.2178 88.9963 72.0897L89.2745 72.6291C91.0655 71.7288 92.7083 70.56 94.1459 69.1632L97.2898 72.307C95.5358 74.019 93.5192 75.4606 91.3121 76.578L91.5938 77.1244C93.9376 75.9388 96.0778 74.3879 97.9343 72.5299C99.9176 70.5471 101.518 68.2842 102.708 65.8332L102.706 65.8275Z" fill="white"/>
<path d="M81.7187 49.3305L81.7257 49.5094L81.8762 49.5022L81.8679 49.3245L81.7187 49.3305ZM81.4998 49.0866H81.699V49.2384H81.4998V49.0866ZM81.3156 49.0597L81.3366 48.9096L81.1616 48.8845L81.1406 49.0335L81.3156 49.0597ZM80.9928 48.9826L80.8188 48.9574L80.84 48.8068L81.014 48.832L80.9928 48.9826ZM79.5558 48.7821H79.755V48.934H79.5558V48.7821ZM79.2954 49.1098L79.3166 48.9595L79.1426 48.9345L79.1216 49.0848L79.2954 49.1098ZM79.1394 49.314L78.9396 49.2633L78.9759 49.116L79.1757 49.1668L79.1394 49.314ZM78.7824 49.501L78.7577 49.3491L78.9054 49.3243L78.9302 49.4761L78.7824 49.501ZM59.2089 65.3575H59.3594L59.3334 64.9783L59.1338 64.9018V64.7755H59.0093V65.0284H59.2089V65.3575ZM60.7554 66.4702L60.9294 66.5979L61.1045 66.9772L61.0046 67.1536L60.7308 66.9009L60.531 66.6229L60.4311 66.3952L60.2559 65.9395L60.6297 66.1161L60.7554 66.4702ZM66.69 74.0628L66.5148 74.1642L66.4151 74.0127L66.1659 73.9363L66.1412 73.7086L65.9414 73.4044L66.2411 73.4557L66.5643 73.7337L66.69 74.0628ZM79.6808 50.9583H79.4066L79.3566 50.4018L79.5063 50.3001V50.0218H78.6333L78.6086 49.7437L78.7335 49.6677L78.5339 49.5918L78.3842 49.794L78.3347 50.0218L78.0852 50.0727V50.199H77.9108V50.5278L77.2124 51.1098L75.8162 51.0595C75.716 51.2871 75.4667 51.034 75.4667 51.034C75.4172 50.8822 75.0681 51.034 75.0681 51.034C75.0681 51.3126 74.5944 50.9076 74.5944 50.9076L73.7214 50.2747C73.2228 49.8193 72.4749 50.4015 72.45 50.5278C72.4749 50.8822 71.8766 50.6038 71.8766 50.6038C71.8766 50.6038 71.378 50.4522 71.303 50.6547C71.2284 50.8569 70.9037 50.8066 70.9037 50.8066L70.8537 50.9077L70.6043 50.9583L70.5548 51.1099L70.2554 51.1609L71.0033 51.1354C71.2028 51.1101 70.9283 51.5658 70.8038 51.5404L70.4552 51.5658L70.3301 51.6921H70.0061L69.8565 51.8949L69.383 51.8694C69.383 51.8694 69.1085 52.0972 69.1337 52.173C69.1586 52.249 69.0837 52.4769 69.0087 52.4769C68.9339 52.4769 68.7843 52.7044 68.8343 52.7803C68.8844 52.8564 68.6847 53.1094 68.6847 53.1094L68.6351 53.3628L68.4855 53.413V54.0964L68.1861 54.2989V54.6025L67.737 55.0834L67.7871 55.4881L67.4133 55.8931L67.4628 56.2981L67.2384 56.374L67.1889 56.551L67.0892 57.0823L67.3385 57.1078C67.4628 57.0571 67.4381 57.4369 67.3385 57.4873C67.2384 57.538 66.9641 57.639 67.1141 57.7401C67.2638 57.8418 66.7151 57.8163 66.7151 57.6643C66.7151 57.5128 66.4157 57.3861 66.3411 57.4368C66.2661 57.4872 66.1413 57.2091 66.1413 57.2091C65.8671 56.9308 65.0193 57.2343 65.0193 57.2343L64.8942 57.6391C64.6203 57.69 64.4457 58.1454 64.4457 58.1454C64.2213 58.2214 64.0469 58.4994 64.1217 58.5754C64.1964 58.6515 63.9968 58.6767 63.9968 58.6767V59.2336L63.8723 59.4106L63.8969 60.0178C64.0469 60.0178 64.022 60.2965 64.022 60.2965C63.7725 60.3217 63.822 60.6508 63.822 60.6508L63.2987 60.8278L63.1991 60.9796L62.5508 60.9541L62.3763 61.1314L62.2013 60.9541H60.9546L60.9051 60.8277L60.6557 60.7767L60.6305 60.4987L60.2567 60.5238L60.182 60.6757L59.7828 60.7008C59.8077 60.954 59.3838 61.3338 59.3343 61.2328C59.2838 61.1314 59.0097 60.8527 59.1347 60.8026C59.2595 60.7516 59.5838 60.7008 59.5838 60.7008V60.5238L58.6608 60.4987L58.5614 60.6507L58.187 60.6757V61.0807L58.0127 61.1314C57.8877 61.207 58.0373 61.4857 58.0373 61.4857C58.2119 61.6627 58.0127 61.9408 58.0127 61.9408C57.8627 62.0928 58.137 62.3715 58.137 62.3715C58.3367 62.4217 58.0125 62.5737 58.0125 62.5737C58.062 62.8266 58.212 62.9026 58.212 62.9026C58.062 63.1555 58.3121 63.2818 58.3121 63.2818L58.3367 63.7126L58.5113 63.8139V64.0917L58.6109 64.269H59.0099L58.985 63.6364C58.6358 63.2314 59.2839 63.1302 59.3093 63.2817C59.3345 63.4336 59.6087 63.5097 59.6087 63.5097C59.6586 63.8895 60.0827 64.1169 60.2069 63.7377C60.3317 63.3576 60.4314 63.5857 60.5063 63.7626C60.5811 63.94 61.0542 64.3702 61.0542 64.3702H61.4286L61.4787 64.7247C61.9025 64.6992 62.0268 64.7505 62.2014 65.3319C62.3763 65.9136 62.8499 66.0655 62.8499 66.0655L63.1991 66.0403C63.1991 65.737 63.5483 66.0913 63.5483 66.2434C63.5483 66.3946 64.2213 66.9768 64.2213 66.9768L64.8944 67.1283L65.5184 67.6351L65.9918 67.5844H66.1916C66.3159 67.1538 66.9146 67.6093 66.9641 67.7614C67.0145 67.9132 67.4133 68.1664 67.4627 68.0395C67.5129 67.9132 67.7871 67.9893 67.8371 68.3685C67.8869 68.7486 68.0612 68.6725 68.0612 68.6725L69.4827 68.6472L69.9813 68.2165L71.2533 68.1916C71.9013 68.1663 71.5023 67.2804 71.3781 67.2804C71.1536 67.1034 71.4527 66.3696 71.4527 66.3696L69.6324 64.6741C69.2085 64.6741 69.5825 64.0665 69.5825 64.0665C69.9065 63.8638 69.5075 63.5355 69.5075 63.5355C69.5576 63.2313 69.3329 62.877 69.3329 62.877C68.8844 62.5734 69.0089 61.9911 69.0089 61.9911V61.5861C68.6351 61.2321 69.1586 61.1811 69.1586 61.1811C69.3329 60.8781 69.0336 60.6501 69.0336 60.6501L69.0089 60.321L68.6099 60.2701L68.5604 59.0806L67.6626 57.7905C67.4877 57.7395 67.6125 57.436 67.6125 57.436C67.8369 57.3094 67.5623 57.0061 67.5623 57.0061L67.5375 56.4492L68.061 56.3982L68.1858 56.1961H68.4351L68.4104 55.5381C68.5349 55.2091 68.834 55.3861 68.834 55.3861L69.183 55.4116L69.3828 55.0318L69.4323 54.7281L69.1583 54.703C68.859 54.5257 69.0086 53.868 69.0086 53.868C69.4824 53.1591 70.0307 53.5641 70.0307 53.5641L70.3802 53.539C70.9035 53.893 70.4297 54.5511 70.4297 54.5511C70.3299 54.703 70.3802 55.1838 70.3802 55.1838L70.5047 55.9933L70.1804 56.272C69.9063 56.424 69.9063 56.7781 70.2056 56.854C70.4049 56.8791 70.3301 57.3601 70.0307 57.031C69.5822 57.031 70.2806 57.436 70.0809 57.3343C70.5299 57.5623 70.4297 57.1321 70.4297 57.1321L71.0286 56.6512C71.2532 56.4742 71.6522 57.031 71.6522 57.1071C71.6522 57.1828 72.6494 57.132 72.6494 57.132C72.9236 57.3091 73.0232 57.765 73.0232 57.765C73.2978 57.4102 73.8711 57.7392 73.4474 57.942C73.8459 58.195 73.8459 58.4226 73.8459 58.4226C74.1705 58.3215 74.1705 58.5745 74.1705 58.6506C74.1705 58.7265 74.2701 58.2711 74.2701 58.2711C73.8962 57.9925 74.7687 57.8913 74.5197 58.3975L74.3697 58.6255L74.6193 58.8277L74.6439 59.41C75.1928 59.359 75.0431 58.6758 75.0431 58.6758L75.2924 58.6254C75.2924 58.3974 75.4667 58.524 75.4667 58.524C75.2924 57.6634 75.866 57.5119 75.866 57.5119C76.19 57.436 76.2149 56.7523 76.2149 56.7523C75.9908 56.6512 76.115 56.2971 76.3646 56.601C76.6136 56.9041 76.2149 55.9932 76.2149 55.9932L76.0154 55.8162L75.7413 55.791L75.7161 55.5126H75.2676L75.1926 55.867L75.0183 55.9176L74.9681 55.8162L74.8935 56.0946H74.4447L74.42 55.791L74.6942 55.7151L74.7939 55.5633L74.8685 55.1583H75.1929L75.6167 55.0318C75.6413 54.6016 75.866 54.703 75.866 54.703L76.0155 54.8293L76.2399 55.0065L76.265 55.158L76.1151 55.2339L76.0905 55.4367L76.1654 55.7149H76.3646C76.4394 55.3099 76.9634 55.3099 77.1128 55.5631L77.2626 55.2088C76.9136 55.0318 77.256 54.7531 77.3556 54.8799C77.4554 55.0065 77.6864 54.5509 77.6864 54.5509C77.6864 54.5509 77.8608 54.7786 77.6864 54.4749C77.5118 54.1711 77.8109 54.0195 77.8109 54.0195C77.7612 53.7159 78.1352 53.7664 78.1352 53.7664L78.1602 53.3617L77.8107 53.3361C77.7365 53.6904 77.4372 53.3869 77.5866 53.311C77.7366 53.235 77.8856 53.083 77.8856 53.083V52.83L78.0354 52.7794L78.0602 52.5264H78.4344L78.7584 52.3746L78.8334 52.248L79.1823 52.2228L79.6809 51.7671L79.6314 51.5649C79.3322 51.5649 79.6314 51.3369 79.6314 51.3369L79.6808 50.9583Z" fill="white"/>
<path d="M69.6323 55.968L69.1834 55.9174L69.2086 56.0944H69.3331C69.5323 56.4489 69.358 57.3091 69.358 57.3091C69.358 57.3091 69.059 57.3342 69.0089 57.1827C68.9594 57.0309 68.8343 57.5118 68.9339 57.5877C69.0337 57.6633 69.383 57.5877 69.4079 57.8662C69.4325 58.1443 69.6323 57.6889 69.6323 57.6889V55.968Z" fill="white"/>
<path d="M69.7313 58.8015L69.7819 58.5736L69.6068 58.4986L69.6314 58.1191L69.7819 58.093L69.8066 57.9153L69.4316 58.1694L69.1826 58.0179V58.6249L69.5821 59.1556L69.7313 58.8015ZM69.8312 59.4598L69.6572 59.4849L69.6314 59.6877L69.8312 59.7127V59.4598ZM69.6068 60.7503L69.3953 60.7753V60.9531L69.6068 60.928V60.7503ZM69.9008 60.1494C69.9593 60.1494 70.0063 60.1015 70.0063 60.0424C70.0064 60.0284 70.0039 60.0145 69.9986 60.0015C69.9934 59.9886 69.9857 59.9767 69.9759 59.9667C69.9661 59.9567 69.9544 59.9488 69.9415 59.9433C69.9287 59.9378 69.9148 59.935 69.9008 59.9349C69.8868 59.935 69.873 59.9378 69.8601 59.9433C69.8471 59.9488 69.8355 59.9567 69.8256 59.9667C69.8158 59.9767 69.808 59.9885 69.8028 60.0015C69.7976 60.0145 69.7949 60.0284 69.7951 60.0424C69.7951 60.1015 69.8425 60.1494 69.9008 60.1494Z" fill="white"/>
<path d="M70.0743 60.681C70.1331 60.681 70.1808 60.6333 70.1808 60.5745C70.1808 60.5157 70.1331 60.468 70.0743 60.468C70.0154 60.468 69.9678 60.5157 69.9678 60.5745C69.9678 60.6333 70.0154 60.681 70.0743 60.681Z" fill="white"/>
<path d="M70.0801 57.7905C70.139 57.7905 70.1866 57.7428 70.1866 57.684C70.1866 57.6252 70.139 57.5775 70.0801 57.5775C70.0213 57.5775 69.9736 57.6252 69.9736 57.684C69.9736 57.7428 70.0213 57.7905 70.0801 57.7905Z" fill="white"/>
<path d="M78.7321 54.6015V54.1209H78.5829L78.5581 53.9431L78.2832 53.9181L78.2337 54.0445H78.1092L78.0834 54.2473H78.2338L78.2584 54.3988L78.1587 54.5001L78.1092 54.6265L77.9095 54.6778L77.4606 55.1083L77.4358 55.3099L77.3113 55.4877L77.1621 55.8669L76.638 55.8919L76.5381 56.3476L76.612 56.7268L77.061 56.9046L77.1115 56.6517L77.2608 56.5753L77.2866 56.3226L77.3853 56.1448L77.5357 55.9683L77.5852 55.7655L77.8342 55.614L78.1339 55.5628L78.2584 55.4113L78.309 55.1083L78.3267 54.8806L78.4336 54.7279L78.7321 54.6015ZM79.2553 55.665V55.3107L79.2051 54.9816L78.8316 54.8046L78.5574 55.0576L78.5073 55.4121V55.6396L78.258 55.6903L78.2077 56.3736L78.0085 56.4496L78.0336 56.7027L77.4852 56.8545L77.4352 57.1834L77.236 57.3099L77.1357 57.6136L77.0112 58.3476C77.0112 58.3476 77.2359 58.7778 77.3604 58.5753C77.4852 58.3729 77.6844 58.3476 77.6844 58.3476L77.7594 58.1703L78.4326 58.1956C78.4825 57.9169 78.8067 58.0186 78.8067 58.1451C78.8067 58.2715 79.0561 58.1701 79.0561 58.1701L79.2304 57.8919H79.5045L79.5295 57.5884L79.6543 57.5124V57.0567C80.0535 56.9302 80.0032 56.5507 80.0032 56.5507L80.1036 56.4243L80.0535 56.2473C79.8537 56.1712 79.9533 55.9938 80.0781 56.0445C80.2032 56.095 79.9036 55.8166 79.9036 55.8166C79.7541 55.9435 79.6297 55.665 79.6297 55.665H79.2553ZM79.6543 58.7265C79.6296 59.0301 79.2553 59.1315 79.2553 59.1315L78.9811 59.0556L78.8316 58.929L78.8065 58.5745L79.0308 58.5495L79.0807 58.7014L79.6543 58.7265ZM81.0013 57.108C81.0553 57.3286 81.0508 56.7532 81.1506 56.7789C81.2502 56.8041 81.1758 56.4249 81.1758 56.4249L80.7268 56.7534C80.9512 56.7789 80.9758 57.0069 81.0013 57.108ZM82.3228 55.791C82.4224 56.019 82.3978 56.3479 82.7713 56.601C82.8976 56.6863 82.6965 56.8542 82.5715 56.778C82.447 56.7022 82.0984 56.1451 82.0984 56.1451V55.8163C82.1731 55.614 82.2796 55.6929 82.3228 55.791ZM82.6465 63.4081L82.4973 63.3568L82.3233 63.4843L82.3974 63.5596L82.4715 63.6861L82.6465 63.4081ZM81.6988 63.0795V63.384V63.0795ZM85.5045 62.5864L85.4247 62.4588L85.2261 62.584L85.3048 62.7129L85.5045 62.5864ZM92.5213 67.989L92.746 68.0899L92.7706 68.5201C93.0702 68.8237 94.0426 68.5708 94.0426 68.4948C94.0426 68.4187 93.9924 67.5586 93.9924 67.5586L93.8674 67.4319L93.8428 66.7989C93.9424 66.4699 93.3688 65.9889 93.3192 66.0909C93.2692 66.1917 92.9451 66.1155 92.9451 66.217C92.9451 66.318 92.7459 66.8242 92.8455 67.0015C92.9451 67.1788 92.7705 67.1788 92.7457 67.3558C92.721 67.5328 92.4714 67.837 92.5213 67.989ZM91.9723 66.9765C91.9251 67.1682 91.7484 67.2801 91.6486 67.204C91.5483 67.128 91.7727 67.3303 91.8229 67.432C91.8727 67.533 92.0221 67.533 92.0724 67.432C92.1219 67.3302 92.0971 67.1031 92.1474 67.0018C92.1969 66.9004 91.9974 66.8752 91.9723 66.9763V66.9765ZM90.8128 62.334H90.9871V62.815H90.8128V62.334ZM93.3943 57.462C93.2856 57.3145 93.8929 57.057 93.9927 57.3609C94.0923 57.6642 93.9927 57.6139 93.8929 57.5886C93.7929 57.5631 93.544 57.6643 93.3943 57.462ZM93.9046 54.2211L94.1784 54.2712L94.2054 54.1221L93.9304 54.072L93.9046 54.2211ZM93.2323 54.3331L93.0468 54.4381L92.8845 54.3355L92.8057 54.463L93.0055 54.5896L93.0432 54.6135L93.0807 54.5919L93.2313 54.5073L93.25 54.5538L93.3886 54.4977L93.3381 54.3714L93.3064 54.2914L93.2323 54.3331ZM94.1668 48.351H93.7926C93.7926 48.351 93.9174 48.4015 93.5686 48.0724C93.219 47.7436 92.995 48.1485 92.995 48.1485L92.596 48.199V48.604L92.3962 48.6798L92.4214 48.933L92.6956 48.9078C92.6956 48.9078 92.6956 49.2114 92.7706 49.0849C92.8456 48.9583 93.4689 49.11 93.4188 49.4139C93.3985 49.5387 94.0425 49.8691 93.9678 50.274C94.2918 50.3248 94.2169 50.6539 94.2169 50.6539L94.6407 50.7045L94.7656 50.4514L94.8901 50.4768V50.3248L94.6153 50.2489L94.5658 49.4389L94.3914 49.3125L94.441 49.11L94.2418 49.0339L94.3416 48.7051L94.1668 48.351ZM95.2633 50.9325L95.064 50.9074L94.6146 50.9833L94.3657 51.4641C94.3657 51.4641 94.4902 51.54 94.5897 51.7171C94.6894 51.8944 94.7395 52.9317 94.4403 53.1091C94.1413 53.2863 94.4655 53.1847 94.4655 53.1847L94.4152 53.7415C94.4902 53.9947 94.6146 53.8684 94.6894 53.7415C94.7649 53.6155 94.8397 53.59 94.9393 53.4634C95.0391 53.3367 95.1885 53.1091 95.2135 52.9318C95.2383 52.7548 95.3631 52.4766 95.2881 52.4005C95.2135 52.3246 95.3631 51.9705 95.3631 51.9705C95.3631 51.9705 95.4628 51.7677 95.3631 51.5655C95.2635 51.3628 95.388 51.135 95.4628 51.0337L95.2633 50.9325ZM95.5648 51.9649L95.5903 51.7624L95.7391 51.7816L95.7136 51.9841L95.5648 51.9649ZM95.5558 52.6642L95.4223 52.5963L95.4972 52.4446L95.6307 52.5124L95.5558 52.6642ZM95.3383 50.655L95.2383 50.427C95.2383 50.427 95.2383 50.2249 95.2881 50.1232C95.3383 50.0221 95.1885 49.9212 95.1139 49.8957C95.0389 49.8702 95.0641 49.668 95.0389 49.5666C95.0142 49.4655 94.8399 49.3896 94.8399 49.3896C94.8399 49.3896 94.7895 49.0101 94.7895 48.9342C94.7895 48.8583 94.5652 48.7572 94.6401 48.681C94.7151 48.6051 94.765 48.504 94.8399 48.4531C94.9147 48.4026 94.7649 48.0481 94.8894 48.1242C95.0142 48.2002 95.0142 48.3267 95.0641 48.4279C95.1139 48.529 95.0391 48.8835 95.1639 48.9595C95.2884 49.0351 95.1387 49.288 95.3383 49.288C95.5377 49.288 95.4133 49.7692 95.4133 49.7692C95.4133 49.7692 95.3631 50.1232 95.4876 50.1487C95.6125 50.1741 95.5378 50.7814 95.5378 50.7814L95.3383 50.655ZM93.7183 46.554C93.7929 46.6551 93.9426 46.731 93.9426 46.8325C93.9426 46.9338 93.8928 47.0095 94.0426 47.0349C94.1919 47.0601 94.2919 47.0094 94.3416 47.136C94.3915 47.2624 94.3915 47.4649 94.3668 47.5662C94.3416 47.6676 94.3915 47.8192 94.516 47.8192C94.641 47.8192 94.6657 47.8447 94.6657 47.9206C94.6657 47.9964 94.8154 47.6421 94.8154 47.6421C94.6905 47.541 94.5907 47.313 94.5907 47.313C94.5907 47.313 94.4662 46.9588 94.4662 46.9083C94.4662 46.8576 94.2919 46.8069 94.2172 46.7817C94.1422 46.7562 94.0173 46.5286 94.0173 46.5286L93.7183 46.5541V46.554ZM93.9673 46.3275C93.8923 46.2259 93.8175 46.1502 93.7179 46.0998C93.6184 46.0489 93.5436 45.9984 93.4434 45.9984C93.3438 45.9984 93.2443 45.897 93.2937 45.7707C93.3439 45.6441 93.2187 45.5935 93.2187 45.4921C93.2187 45.391 93.2937 45.391 93.4185 45.4669C93.5434 45.543 93.5182 45.568 93.6184 45.6949C93.7179 45.8212 93.7675 45.9478 93.8671 45.9225C93.9673 45.897 94.042 46.1502 94.1416 46.0743C94.2414 45.9984 94.2166 46.2513 94.2166 46.2513L93.9673 46.3275ZM91.0498 49.1865C91.1874 49.3263 90.3019 49.2874 90.3019 49.1865C90.3019 49.0854 90.3769 48.7312 90.6009 48.8067C90.8254 48.8829 90.85 48.3514 90.85 48.3514C90.85 48.3514 90.6508 48.3765 90.8254 48.2754C90.9999 48.1743 90.8254 48.0223 90.7504 47.9464C90.6757 47.8704 90.6009 47.7439 90.6009 47.7439H90.9504C91.1001 47.6425 91.1494 47.1619 91.1494 47.1619C91.4485 47.263 91.5982 47.0605 91.5982 47.0605C91.5982 47.0605 91.6488 47.2123 91.7482 47.3392C91.848 47.4655 91.4985 47.5162 91.6233 47.5923C91.7484 47.6682 91.7979 47.8957 91.7484 47.9715C91.6981 48.0475 91.4235 47.997 91.4235 47.8957C91.4235 47.7945 91.3239 48.0223 91.4235 48.1489C91.5232 48.2754 91.299 48.4524 91.249 48.4524C91.1991 48.4524 90.8755 48.5032 91.1494 48.6549C91.4235 48.8067 91.7233 48.7311 91.7233 48.7311C91.7233 48.7311 91.9476 48.7056 92.0223 48.8323C92.0973 48.9588 91.9975 48.9841 91.8729 48.9841C91.7484 48.9841 91.1496 48.9333 91.1496 48.9333C91.1496 48.9333 90.9751 49.1106 91.0498 49.1865ZM89.4538 49.4145C89.5789 49.3891 89.8774 49.3636 89.9277 49.4397C89.9778 49.5154 89.7531 49.6167 89.7531 49.6167L89.4538 49.6674C89.3542 49.5408 89.3293 49.4398 89.4538 49.4145ZM92.6713 47.289C92.8707 47.1879 93.2944 47.1879 93.2697 47.0359C93.2449 46.8841 93.5188 46.8334 93.5188 46.8334L93.5938 47.137L93.8182 47.2888L93.8433 47.5672C93.8433 47.5672 93.9178 47.5167 93.6438 47.5927C93.3693 47.6686 93.5442 47.7949 93.5442 47.7949L92.9455 47.8203L92.8705 47.5671L92.6713 47.289ZM91.6978 45.9225C91.8493 45.9225 91.6483 46.5045 92.0467 46.4539C92.4457 46.4031 92.0722 46.6309 92.371 46.6563C92.6704 46.6818 92.5956 46.4286 92.6952 46.2516C92.7952 46.0744 92.7454 45.973 92.5707 45.9225C92.3958 45.8719 92.3958 45.8719 92.3463 45.6691C92.2966 45.4669 92.097 45.4161 92.097 45.4161L92.022 45.1126L91.6978 45.315L91.3738 45.7452C91.3738 46.0744 91.5481 45.9225 91.6978 45.9225ZM92.3578 48.0609L92.4328 47.9091L92.5669 47.9772L92.4919 48.129L92.3578 48.0609ZM92.0968 47.82H92.2465V47.9971H92.0968V47.82ZM92.2227 44.448L92.2477 44.6757L92.0991 44.6925L92.0739 44.4651L92.2227 44.448ZM91.7983 46.8075H91.948V46.9342H91.7983V46.8075ZM91.4056 46.8049L91.3909 46.6536L91.6404 46.6287L91.6551 46.7799L91.4056 46.8049ZM89.3485 49.2387L89.2114 49.1788L89.2864 49.0018L89.4234 49.0615L89.3485 49.2387ZM88.5658 48.778L88.5513 48.6273L88.801 48.6022L88.8156 48.753L88.5658 48.778ZM83.6913 48.7563L83.6983 48.9078L84.2458 48.8827L84.2389 48.7312L83.6913 48.7563ZM83.3241 48.951L83.2744 48.7234L83.4207 48.6906L83.4703 48.918L83.3241 48.951ZM83.2192 49.1077L83.172 48.9637L83.2467 48.9384L83.2939 49.0825L83.2192 49.1077ZM84.4663 48.681L84.4416 48.858L84.7155 48.8835C84.7155 48.8835 84.84 48.9849 84.84 49.0605C84.84 49.1365 85.0149 49.2123 85.1145 49.2123C85.2142 49.2123 85.4884 49.0098 85.4884 49.0098C85.4884 49.0098 85.6132 48.6555 85.5136 48.6807C85.4136 48.7059 85.2142 48.8578 85.1896 48.7059C85.1641 48.5541 84.8655 48.63 84.8655 48.63L84.4663 48.681ZM85.7128 48.402C85.7128 48.4777 85.6633 48.579 85.8124 48.6045C85.9627 48.6295 86.2369 48.5034 86.2617 48.655C86.2869 48.8068 86.2869 48.9084 86.4861 48.9844C86.6853 49.06 86.8104 49.0855 86.9599 49.0855C87.1092 49.0855 87.4339 49.0345 87.4339 49.0345C87.4339 49.0345 87.7866 49.0897 87.8575 49.1613C88.1317 49.4395 88.306 49.5154 88.381 49.389C88.4557 49.2624 88.3561 48.9843 88.3314 48.883C88.3062 48.7815 87.957 48.3007 87.8323 48.402C87.7078 48.5034 87.6829 48.402 87.4584 48.4777C87.234 48.5536 86.7601 48.5032 86.7354 48.402C86.7106 48.3006 86.3616 48.2505 86.3616 48.1489C86.3616 48.0475 86.1124 47.9212 86.137 48.0729C86.1618 48.2247 85.9627 48.3006 85.912 48.2503C85.8625 48.1996 85.7128 48.402 85.7128 48.402ZM91.4488 45.162L91.6237 44.6055C91.3746 44.5548 91.4241 44.2767 91.4241 44.2767C91.3992 44.0487 91.0503 43.7958 90.9255 43.8717C90.801 43.9474 90.8505 43.3401 90.8505 43.3401C90.8505 43.3401 91.0752 43.1886 91.1748 43.2643C91.2745 43.3401 90.3273 41.9991 90.1275 42.1255C89.9281 42.2521 89.4796 41.9991 89.5044 41.7711C89.5293 41.5435 88.6068 40.7841 88.6068 40.7841C88.6068 40.7841 88.3074 40.582 88.2577 40.7338C88.2078 40.8855 88.1082 40.9869 88.2577 41.0625C88.4071 41.1387 88.3822 40.9362 88.5565 41.113C88.7311 41.2902 89.0556 41.518 88.9308 41.67C88.806 41.8221 88.6563 41.8725 88.6563 41.8725L88.8312 42.075H89.1054L89.1553 42.505C89.1553 42.505 89.4543 42.657 89.5293 42.8341C89.6041 43.0111 89.6041 43.1125 89.5293 43.2139C89.4543 43.315 89.3053 43.4922 89.3299 43.669C89.3547 43.8462 89.5543 43.9222 89.5543 43.9222L89.7535 43.9477L89.9035 44.0236V44.3529C90.1026 44.302 90.4267 44.5801 90.402 44.7576C90.3772 44.9346 90.4515 44.8333 90.7009 45.0106C90.9505 45.1876 90.8758 45.2131 91.0503 45.3397C91.2249 45.4657 91.3746 45.39 91.4488 45.162Z" fill="white"/>
<path d="M87.3349 41.721C87.3102 41.6196 87.2599 41.2651 87.4098 41.2905C87.5593 41.316 87.4597 41.2905 87.6342 41.3665C87.8088 41.4426 87.8337 41.2401 87.8337 41.2401H88.1082L88.4569 41.5182L88.407 41.7462L88.1577 41.7712C88.0332 41.569 87.7837 41.6449 87.8337 41.8222C87.8835 41.9992 87.7092 42.3282 87.6096 42.3532C87.5098 42.3787 87.1851 42.3787 87.2106 42.2271C87.2353 42.0751 87.3349 41.721 87.3349 41.721ZM87.1354 41.037V40.8346C87.1354 40.8346 87.1099 40.6323 86.9857 40.6323C86.8614 40.6323 86.6368 40.4806 86.6863 40.3792C86.7366 40.2778 86.2626 40.1767 86.2626 40.1767C86.2626 40.1767 85.839 39.7717 85.9885 39.8227C86.1382 39.8731 86.0635 39.6453 86.0635 39.6453C86.0635 39.6453 85.764 39.6958 85.6891 39.6708C85.6141 39.6453 85.639 39.4176 85.639 39.4176C85.639 39.4176 85.3402 39.3417 85.3402 39.4176C85.3402 39.4936 85.44 39.4936 85.4893 39.6451C85.5396 39.7969 85.5147 40.0501 85.7394 40.1007C85.9638 40.1514 86.0133 40.2018 86.0386 40.3032C86.0635 40.4046 86.3376 40.4296 86.3376 40.4296L86.5372 40.5309L87.1354 41.037ZM84.3688 38.2536L84.169 38.2035V38.4315L84.4428 38.4564L84.3688 38.2536ZM84.3679 37.3935C84.1072 37.1955 84.7167 37.5454 84.7167 37.5454C84.916 37.5454 85.0407 37.6972 85.0407 37.7734C85.0407 37.8492 85.3152 37.824 85.3152 37.824L85.3405 37.6465L85.1406 37.3935L84.9663 37.2673C84.9663 37.2673 84.6921 37.2418 84.6921 37.1659C84.6921 37.0902 84.4675 37.4695 84.3679 37.3935ZM88.9549 37.545C88.882 37.7664 88.8553 38.0766 88.7305 38.0766C88.606 38.0766 88.6555 38.4058 88.6555 38.4058C88.6555 38.4058 88.9803 38.4058 89.08 38.4309C89.1793 38.4559 89.1793 38.709 89.1793 38.709C89.5537 38.6839 89.7034 39.19 89.6533 39.3165C89.6032 39.4429 89.8029 39.4429 89.8029 39.4429C89.8029 39.4429 89.8029 39.8479 89.7528 39.949C89.7033 40.0504 90.0771 40.1263 90.1767 40.2781C90.2764 40.4301 90.1266 40.936 90.0522 40.9614C89.9772 40.9869 90.2512 41.0625 90.2265 41.1891C90.2013 41.3158 90.3015 41.1891 90.3262 41.3916C90.351 41.5941 90.4012 42.0241 90.4012 42.0241L90.75 42.0496C90.8001 41.7208 91.443 41.7081 91.548 41.7459C91.9719 41.8977 92.2965 42.5557 92.2965 42.7074C92.2965 42.8592 92.0218 42.8848 92.0218 42.8848L92.0719 43.6183C92.4957 43.7451 92.8447 44.3526 92.7951 44.4538C92.7451 44.5549 93.0939 44.5299 93.0939 44.5299C93.1441 44.0739 93.5679 44.226 93.5925 44.3779C93.618 44.5299 93.6924 44.8588 93.6924 44.8588L93.8172 45.0862L93.9916 45.2634L94.2658 45.2382L94.3408 45.3901L94.6648 45.441C94.6648 45.441 94.9395 45.7443 94.9642 45.8205C94.9894 45.8961 95.3632 45.871 95.4628 45.8961C95.5624 45.9216 95.7123 45.9975 95.737 46.1241C95.7622 46.2507 95.9119 46.453 95.9119 46.453C95.9119 46.453 96.2109 46.5291 96.2359 46.63C96.2608 46.7311 96.3858 46.959 96.3858 46.959L96.6345 47.1615L96.6597 47.3895L96.9339 47.4148L97.0089 47.7181L97.4574 47.6931L97.7071 47.5159C98.0311 47.3389 98.2557 47.1109 98.2807 47.0097C98.3053 46.9084 98.3553 46.5291 98.6047 46.605C98.8539 46.6809 98.6797 46.048 98.6797 46.048C98.6797 46.048 98.3307 45.795 98.3553 45.6682C98.3803 45.5419 98.0065 45.289 98.0313 45.1876C98.056 45.0862 97.7071 44.884 97.7319 44.7828C97.7566 44.6814 97.5574 44.403 97.5574 44.403L97.1832 44.049L97.1332 43.821L96.8343 43.7959L96.2359 43.062L96.2607 42.8593L96.0862 42.8341V42.5559L95.9119 42.4545L95.6374 42.4291L95.089 41.8221L95.0391 41.5435H94.7649L94.8145 41.0119C94.9893 40.7841 94.8894 40.354 94.8894 40.354C94.8894 40.354 94.5399 40.531 94.3659 40.4551C94.191 40.3795 94.4404 40.2021 94.4404 40.2021V39.9997L94.291 39.8479C94.291 39.8479 93.8668 39.8988 93.8421 39.8229C93.8172 39.7468 93.7425 39.4179 93.7425 39.4179L93.7174 38.9874L93.5431 38.9119L93.5178 38.7598L93.2439 38.785V38.4814L93.094 38.4309L92.9446 38.355L92.9197 38.0511L92.371 38.026L92.1966 37.773L91.9972 37.4692L91.3738 37.4187L91.2241 37.2672L90.9748 37.2162L90.8004 37.1403L90.7255 37.267L90.2515 37.2921L90.2269 37.444C89.9776 37.5705 88.9804 37.4691 88.9549 37.545ZM91.5739 36.888C91.5345 36.6882 92.073 36.5085 92.1975 36.66C92.3224 36.8119 92.6713 36.8376 92.7213 37.5967C92.7388 37.8685 92.2723 37.3185 92.2723 37.3185L91.8981 37.1919C91.6987 37.141 91.5985 37.0149 91.5739 36.888ZM84.2604 37.1971L84.1242 37.1356L84.2242 36.9076L84.3604 36.9693L84.2604 37.1971ZM82.9714 34.7115L82.6467 34.3824V34.1041L82.5469 34.0026L82.4473 33.6486L82.1233 33.5473L81.799 33.6736L81.45 33.9015L81.0762 33.9525L80.8764 34.1799L81.6744 34.2555L81.8238 34.509L82.3978 34.5595L82.7713 34.939C83.0962 35.0404 83.1708 34.8885 82.9714 34.7115ZM82.9219 33.471C82.867 33.2485 82.5477 33.7492 82.8724 33.8502C83.1964 33.952 83.5201 33.8502 83.5201 33.8502L83.5951 33.6985L84.8416 33.724C84.9418 33.6226 84.9913 33.4708 84.9913 33.4708C84.9913 33.4708 85.2907 33.3694 85.4151 33.42C85.5399 33.471 85.4404 33.066 85.3153 33.1165C85.1908 33.1671 84.9417 33.1417 84.9417 33.1417H84.4926C84.4678 32.9647 84.0688 33.0405 84.0441 33.1417C84.0186 33.243 83.8696 33.2682 83.8696 33.2682L83.296 33.319C83.2461 33.471 82.9471 33.5721 82.9219 33.471ZM80.4529 37.7415C80.8363 37.8631 80.9764 37.773 81.0018 37.6719C81.0265 37.5706 81.0513 37.5451 81.201 37.5201C81.3505 37.4946 81.1759 37.1911 81.0265 37.2163C80.8767 37.2417 80.7271 37.1658 80.7025 37.0393C80.677 36.9129 80.4277 36.5838 80.403 36.8368C80.3781 37.09 80.2285 37.09 80.2533 37.2672C80.2785 37.4439 80.3533 37.7095 80.4529 37.7415ZM77.5864 38.0265C77.5684 37.9369 78.085 37.9254 78.16 38.001C78.235 38.077 78.1848 38.2035 78.4093 38.2035C78.6334 38.2035 78.5338 38.3554 78.5089 38.4315C78.4842 38.5072 78.235 38.482 78.2095 38.4063C78.1848 38.3302 77.8105 38.3046 77.8105 38.3046C77.8105 38.3046 77.6112 38.1526 77.5864 38.0265ZM85.8589 32.9655L85.9105 32.9229L86.1609 32.7204L86.0668 32.6019L85.8694 32.7616L85.7425 32.6326L85.6368 32.7399L85.8108 32.917L85.8589 32.9655ZM84.7318 32.295L85.0069 32.1177L84.927 31.9897L84.6919 32.1412L84.532 32.0401L84.4534 32.1688L84.6531 32.2951L84.6919 32.3206L84.7318 32.295ZM83.9563 37.7373L84.082 37.6561L83.908 37.3782L83.8881 37.3473L83.8516 37.3437L83.6026 37.3174L83.5873 37.4689L83.8011 37.4904L83.9563 37.7373ZM75.6409 44.403L75.6664 44.6815H76.0399C76.1898 44.6815 75.9154 44.5044 75.9154 44.5044C75.9154 44.5044 75.6163 44.5299 75.6409 44.403ZM76.1164 44.4112L76.212 44.2942L76.3615 44.4202L76.266 44.5372L76.1164 44.4112ZM71.5732 39.6766L71.6793 39.5692L71.8288 39.7212L71.7228 39.8286L71.5732 39.6766ZM78.7114 72.4966L78.8361 72.3703L78.909 72.2964L78.8161 72.2487L78.5671 72.1222L78.5001 72.2581L78.6562 72.3369L78.6046 72.3894L78.7114 72.4966ZM76.8195 70.6827L76.9065 70.5597L76.8102 70.4895L76.8853 70.4262L76.7901 70.3093L76.6398 70.4358L76.5657 70.4989L76.6444 70.5562L76.8195 70.6827ZM95.427 65.6254C95.394 65.4964 95.2485 65.4436 95.2321 65.4382L95.1846 65.5825V65.5816C95.1964 65.5861 95.2137 65.5951 95.2311 65.6065L95.2615 65.7378C95.2514 65.753 95.2404 65.7676 95.2285 65.7816L95.3383 65.8843C95.4183 65.7952 95.4478 65.7088 95.427 65.6254ZM95.4136 65.1295L95.4324 64.9018L95.6757 64.9399L95.6569 65.1475L95.4136 65.1295ZM101.436 63.1744C101.542 63.1069 101.679 62.9844 101.66 63.2695C101.641 63.5541 101.529 63.4594 101.436 63.5541C101.343 63.6492 101.286 63.2695 101.436 63.1744ZM102.705 62.1004C102.703 62.0955 102.702 62.0779 102.7 62.0652C102.697 62.0233 102.692 61.9665 102.662 61.9068L102.529 61.9746C102.545 62.0085 102.548 62.0443 102.551 62.0787C102.555 62.1229 102.56 62.1736 102.602 62.2057C102.629 62.2261 102.663 62.232 102.703 62.2242L102.675 62.0772C102.686 62.0791 102.701 62.0896 102.705 62.1004ZM102.372 62.2249C102.399 62.3304 102.431 62.4344 102.468 62.5366L102.608 62.4832C102.607 62.4819 102.553 62.3335 102.517 62.1877L102.372 62.2249ZM101.827 62.8219L101.679 62.8069C101.667 62.9265 101.695 63.0739 101.813 63.0979L101.842 62.9491C101.844 62.9491 101.845 62.95 101.845 62.95C101.833 62.9392 101.822 62.878 101.827 62.8219ZM101.172 59.8024C101.169 59.7791 101.159 59.7571 101.145 59.7384C101.131 59.7198 101.112 59.7051 101.09 59.6959C100.98 59.6473 100.793 59.7279 100.701 59.79L100.784 59.9163C100.879 59.8522 101.003 59.8213 101.031 59.8354C101.028 59.8345 101.025 59.83 101.024 59.8272L101.172 59.8024ZM94.266 51.7174C94.1664 51.8188 93.942 51.8694 93.942 51.8694L93.867 52.1478L93.7425 52.2489C93.7425 52.2489 93.7672 52.3248 93.7425 52.5019C93.7176 52.6789 93.493 52.7803 93.493 52.7803L93.3934 52.9069C93.3934 52.9069 92.7924 52.9395 92.7202 52.9069C92.4957 52.8057 92.6455 52.5019 92.7952 52.5273C92.9445 52.5528 92.7699 52.0969 92.7699 52.0969L92.9697 52.0717C92.9697 52.0717 92.9943 51.616 93.0693 51.616C93.1443 51.616 93.0445 51.4644 92.9443 51.3883C92.8447 51.3127 92.7202 51.0597 92.62 51.0849C92.5204 51.1099 92.1214 51.0849 92.1214 51.0849L92.0466 51.2368L91.7721 51.2872C91.7721 51.2872 91.7958 51.483 91.7479 51.5404C91.5976 51.7174 91.0246 52.0969 91.2736 51.4645L91.3482 51.3129V51.0849L90.8998 51.0598C90.8998 51.0598 90.6754 50.9838 90.6754 50.8825C90.6754 50.7813 90.6504 50.655 90.6504 50.655L90.1266 50.073L89.5035 49.9971L89.4534 49.8703L89.0799 49.8198C88.6306 49.5922 88.2315 49.7944 88.3065 50.1741C88.3813 50.554 88.5057 50.7057 88.2568 50.7057C88.0071 50.7057 87.9574 50.5032 87.9574 50.5032C87.9574 50.5032 87.7582 50.4271 87.7582 50.5284C87.7582 50.6298 87.6832 50.8321 87.7582 50.9334C87.8326 51.0343 87.658 51.1863 87.5832 51.1104C87.5089 51.0343 87.3093 50.8071 87.3592 50.731C87.4089 50.6551 87.0097 50.1741 87.4089 50.0983C87.808 50.0223 87.384 49.7944 87.5338 49.7442L87.733 49.6428H87.9324L88.0572 49.5414L87.7332 49.4911L87.5338 49.4656L87.1596 49.4404C86.7858 49.6935 86.7111 49.9972 86.7111 49.9972C86.5113 50.3767 86.0379 49.8453 86.2125 49.6429C86.3868 49.4404 85.6638 49.6174 85.539 49.7187C85.414 49.8199 85.0401 49.7694 85.0401 49.7694C84.9655 49.9974 84.6165 49.7443 84.7161 49.5924C84.8158 49.4404 84.8158 49.3392 84.8158 49.3392L84.6913 49.3138L84.5418 49.5922C84.1927 49.5922 84.0927 49.7944 84.1674 49.9212C84.2422 50.0475 84.0678 49.8958 84.0177 50.073C83.9682 50.25 84.043 50.25 84.1927 50.326C84.3424 50.4021 84.1177 50.4021 84.2175 50.5284C84.3171 50.6551 84.6165 50.5284 84.442 50.7057C84.2676 50.8827 83.9181 50.8071 83.9181 50.8071C83.8933 51.0343 83.4195 50.9841 83.37 50.9082C83.3197 50.8323 82.9461 50.3766 82.9461 50.3766L82.4716 50.3514C82.4221 49.9974 82.6963 50.1744 82.7961 49.8958C82.8963 49.6174 82.9461 49.1622 82.9461 49.1622C82.9461 49.1622 82.5466 49.1368 82.5219 49.2633C82.4971 49.3899 82.2477 49.4658 82.2477 49.4658C82.2477 49.4658 82.048 49.5415 82.1229 49.6428C82.1979 49.7443 81.9732 49.7944 81.9732 49.7944C81.9732 49.7944 82.0122 49.9579 81.9484 50.0224C81.7492 50.2249 81.25 50.0475 81.1756 49.9717L80.8762 49.8451L80.5768 49.6428L80.2279 49.7943L80.1283 49.8958H79.7541L79.7293 50.1991L80.4025 50.2749L80.4525 50.9013L80.178 50.8068H80.0034L79.9288 50.6548L79.779 50.6293V51.186L79.9288 51.3127L80.0536 51.4389L80.3031 51.4644L80.353 51.7678L80.976 51.7935L81.051 51.9198L81.4252 51.9453L82.1482 52.6788L82.0983 52.9068L81.9733 52.9827C82.0236 53.1598 81.6496 53.0587 81.6496 53.0587V53.2102L81.8236 53.2357L81.9987 53.3367L82.2477 52.9066C82.522 52.7296 82.6464 52.9827 82.6717 53.1345C82.6965 53.2863 82.5468 53.2609 82.5468 53.2609V53.6155L82.6965 53.6658C82.9462 53.9695 82.5969 54.1468 82.5969 54.1468L82.5219 54.3997C82.4469 54.6276 82.1728 54.5767 82.1728 54.5767L82.0734 54.7287L81.7737 54.8047L82.3657 54.8805C82.4221 54.678 82.5712 54.6274 82.6462 54.7287C82.7212 54.8301 82.7212 55.0072 82.7212 55.0072L82.8712 55.0324L82.8459 55.3107L82.9957 55.3615V56.1712L83.1702 56.3737C83.4694 56.2474 83.4694 56.4498 83.3196 56.5507C83.1702 56.6517 83.2696 57.1075 83.2696 57.1075L83.1451 57.2338V57.4365L82.9956 57.5377V57.816C82.7461 57.6895 82.4467 57.7398 82.3717 57.816C82.1478 57.664 81.6739 57.7147 81.6739 57.8415C81.8233 58.044 81.4996 58.0945 81.4996 58.0945L81.3247 58.297C81.4497 58.5501 81.2004 58.5751 81.2004 58.5751V59.0562L80.901 59.3346L80.9262 59.9925C80.9262 60.1696 81.3 60.1948 81.3747 60.0937C81.4495 59.9925 81.7489 60.2962 81.7489 60.2962H81.9729L82.0231 59.8405L81.8733 59.7646V59.0307L82.1227 58.7521C82.4221 58.651 82.3224 59.4106 82.3224 59.4864C82.3473 59.7646 82.4715 59.7394 82.5966 59.6886C82.8459 59.5875 82.6461 59.9674 82.4469 59.9418C82.2475 59.9167 82.3719 60.1948 82.3719 60.1948L82.497 60.2457L82.2723 60.4227L82.0732 60.6507L81.8233 60.5745L81.5245 60.5496L81.4248 60.372L81.2499 60.3468L81.225 60.7008L81.1005 60.8527L80.8012 61.1568C81.2004 61.1568 80.7511 61.4346 80.6515 61.4346C80.8759 61.5106 80.6268 61.7386 80.0533 61.5616V61.7385L79.8535 61.764L80.0286 61.966L80.2276 61.9915L80.1528 62.4216C80.1528 62.7505 79.3302 62.5225 79.2552 62.4469L79.2303 62.9025L79.0806 62.9274L79.1055 63.2314L79.0806 63.6618L79.3548 63.6111V63.7884L80.0283 63.8137L81.0009 62.7757L81.5742 62.6496C81.6238 62.3961 81.873 62.7003 81.873 62.7003C82.1226 62.6743 82.1725 62.8518 82.1725 62.8518L82.4968 62.9025C82.7707 62.9787 82.6051 63.0052 82.6213 63.1053C82.6459 63.2568 82.7707 63.2062 82.7707 63.2062L82.821 62.8773L82.9707 62.9025L82.821 62.7253L82.5463 62.5986L82.2474 62.4723C82.0476 62.194 82.2972 62.2446 82.4968 62.2701H82.8208C82.8208 62.2701 83.1952 62.7759 83.1952 62.9025C83.1952 63.0294 83.3697 63.0546 83.3697 63.0546L83.5936 63.0291L83.6686 63.2061H83.893L83.968 63.3576H84.4168L84.4417 63.13L84.0174 63.0546L83.9928 62.8011L83.6938 62.7252C83.5936 62.2953 83.7682 62.1687 83.893 62.3713L84.0426 62.3961L83.9926 62.0166L84.1671 61.9659L84.1173 61.4343L83.9679 61.384V61.2067L84.5908 61.2325C84.5413 60.903 84.616 60.7513 84.616 60.7513H84.7905L84.8154 60.8782L85.5783 60.9502L86.1177 60.3315C86.0905 60.2842 86.1718 60.2553 86.1126 60.1947C86.0376 60.1188 85.9377 60.1947 85.8126 60.1188C85.6881 60.0433 85.8126 59.6127 85.7878 59.5116C85.7629 59.4105 86.2122 59.2581 86.1373 59.4862C86.0623 59.7142 86.1373 59.8153 86.1373 59.8153C86.4613 59.5116 86.7357 59.8404 86.7109 59.9164C86.6854 59.9923 86.8851 60.0684 87.0096 59.9923C87.1345 59.9164 87.2841 60.2203 87.2341 60.3718C87.184 60.5235 86.7357 60.4984 86.7109 60.3465C86.6854 60.1945 86.6104 60.2454 86.5612 60.3214C86.511 60.3973 86.287 60.4477 86.1622 60.3717C86.1367 60.3564 86.1247 60.3438 86.1177 60.3315L85.5783 60.9502L85.6132 60.9537C85.9122 61.1311 85.7629 61.3587 85.6635 61.4094C85.5633 61.4599 85.3888 61.4599 85.3888 61.4599L85.3393 61.5613L84.6909 61.6117L84.6408 61.8651C84.3166 61.8139 84.1923 62.1685 84.267 62.3454C84.342 62.5224 84.267 62.6743 84.267 62.6743L84.5413 62.8011L84.8901 62.7003C84.9403 62.4468 85.1643 62.3961 85.3641 62.2446C85.5633 62.0926 85.8877 62.5224 85.7877 62.7252C85.6881 62.9274 85.6881 63.0034 85.6881 63.0034L85.7127 63.2314L85.4637 63.3324L85.2642 63.4338L85.2388 63.5604H84.5659L84.4414 63.6867L84.1171 63.7126L84.0169 63.8641L83.793 63.8896C83.793 63.8896 83.4187 64.0668 83.5686 64.2691C83.7181 64.4718 82.9453 64.4464 82.7703 64.1679C82.7203 64.4206 82.4463 64.1931 82.4463 64.1931L82.1721 64.117L82.1473 63.7378C82.0974 63.4845 81.6235 63.4845 81.6487 63.6619C81.6735 63.8391 80.7507 63.7378 80.7507 63.7378L80.4516 63.8832L80.1771 64.0416L80.1523 64.1679L79.7032 64.2184L79.504 64.3198L79.4293 64.1679H79.2298L79.0303 64.4466C78.5068 64.4721 78.0081 64.7755 78.0579 64.9021C78.1078 65.0284 77.8587 65.1556 77.8587 65.1556L77.634 65.2306L77.4847 65.4586L77.1855 65.56L77.1352 66.0916L76.986 66.1926V66.4206L76.8111 66.4708V66.5976L76.5619 66.6229L76.7112 67.0026L76.9113 67.104C77.2603 67.1542 77.1105 67.5849 77.1105 67.5849L77.3097 67.6098L77.4099 67.888L77.6091 68.293C77.6841 68.5971 77.9085 68.521 78.0081 68.4957C78.1078 68.4708 78.2073 68.7993 78.2073 68.7993L79.2046 68.8248C79.2046 68.8248 79.1551 68.926 79.3296 68.9766C79.5039 69.0268 80.6511 69.078 80.7012 69.0021C80.6509 68.7741 81.3241 68.7234 81.5988 68.9259C81.8727 69.1281 82.2468 69.0021 82.2468 69.0021L82.6209 69.457L82.8706 70.014L83.2944 70.1403L83.5933 70.2165L83.6934 70.6467L83.9175 70.672L83.9925 70.9506C84.267 71.1529 83.9175 71.5833 83.9175 71.5833V72.1398L84.117 72.2412L84.0919 72.4438L84.4165 72.7723L84.7903 72.7981L85.738 73.8102L86.4858 74.0377L86.6103 74.4427L86.8102 74.4174L86.9596 74.2911L87.558 74.2657L87.8574 73.987L88.1814 73.9368L90.9492 71.5833L90.6996 71.4312V70.8747C91.1484 70.5459 91.1733 69.9634 90.7495 69.9129C90.4279 69.8745 90.5752 69.5332 90.8745 69.4827L91.0488 69.4071V69.1791L91.6222 68.6479V68.2429L90.3759 67.2049C89.827 67.0029 90.3759 65.7879 90.7494 65.8132C91.1238 65.8383 90.7248 63.9406 90.7248 63.9406L90.525 63.8397L90.5752 63.232H90.301L89.8521 63.8143L89.7276 64.2189C89.6776 64.7509 88.1316 64.6491 88.0566 64.5732C87.9816 64.4971 87.4582 64.2696 87.4582 64.2696C87.4582 64.2696 87.0592 63.9406 86.9845 64.042C86.9095 64.1434 86.5608 63.9153 86.5608 63.9913C86.5608 64.0674 86.2368 63.8145 86.2368 63.8145L85.7382 63.6372L86.1124 63.561L86.0374 63.2575L86.6851 63.5865C86.7601 63.6873 87.0841 63.6625 87.0841 63.6625L87.1839 63.7891C87.1839 63.7891 87.3837 63.7635 87.5088 63.9156C87.6333 64.0675 88.2813 63.9409 88.2813 63.9409L88.4557 64.0924L88.7299 64.1938L89.5032 64.2193L89.5279 63.7387L89.6776 63.5868L89.6527 63.2827L89.8272 63.1312V62.8783L89.9769 62.8276L90.0016 62.2711L90.1261 62.2458V61.0309L89.7522 60.6765C89.7276 60.8032 89.3286 60.8032 89.3286 60.8032C89.3286 60.8032 89.2288 60.9802 89.154 60.9802C89.0794 60.9802 89.2539 61.2076 89.2038 61.3597C89.154 61.5112 88.9543 61.5112 88.9543 61.5112L88.5801 61.6128L88.4805 61.7395H88.0815L88.032 61.4106L88.4805 61.2838L88.7296 61.1575L88.8546 60.904C88.8793 60.6514 89.1786 60.6765 89.1786 60.6765C89.1786 60.6765 89.7522 60.1956 89.7771 59.9682C89.8024 59.7403 90.0016 59.1076 90.3505 59.1076H90.999C91.2481 59.0061 91.1734 58.6773 91.1734 58.6773L91.4977 58.627L91.5477 58.804C91.5477 58.804 91.9966 58.8546 92.0463 58.7787C92.0964 58.7031 92.196 58.5256 92.3208 58.6017C92.4454 58.6774 92.8443 58.4244 92.8443 58.4244C92.8692 58.2472 93.4926 58.3231 93.4926 58.3231L93.5676 58.0956C93.5676 58.0956 93.1438 57.5136 93.069 57.5136C92.994 57.5136 92.5951 57.1588 92.545 57.2856C92.1466 57.1845 92.1712 56.6275 92.1712 56.6275L92.0215 56.2735C92.0215 56.0707 91.648 55.6405 91.5726 55.6915C91.1983 55.4131 91.473 55.084 91.5726 55.0587C91.6723 55.0336 91.9221 54.6792 91.9221 54.6792L92.0466 54.3247L92.4703 54.1987L92.5203 53.8695L92.2963 53.8441C92.2963 53.8441 92.5453 53.3886 92.6701 53.3886C92.7951 53.3886 93.6178 53.3886 93.6921 53.3377C93.7671 53.2875 93.9165 52.8825 93.9165 52.8066C93.9165 52.7305 94.1164 52.7052 94.1908 52.6797C94.2657 52.6546 94.4401 52.4521 94.4901 52.3509C94.54 52.2489 94.3659 51.6162 94.2658 51.7174H94.266Z" fill="white"/>
<path d="M80.4532 60.84C80.4907 60.8025 80.5283 60.954 80.603 60.9351C80.6772 60.916 80.715 61.068 80.6405 61.068C80.5655 61.068 80.5655 61.1631 80.5655 61.201C80.5655 61.239 80.5655 61.3336 80.5092 61.3906C80.4531 61.4476 80.3967 61.4095 80.3219 61.3717C80.2473 61.3338 80.2103 61.3338 80.1164 61.3338C80.0231 61.3338 80.0974 61.4857 80.0974 61.4857C80.0974 61.4857 79.7048 61.4667 79.7796 61.4095C79.8546 61.3531 79.9293 61.3336 79.8735 61.2955C79.8171 61.2576 79.8735 61.2199 79.8735 61.144C79.8735 61.0678 80.0605 61.1061 80.004 61.0489C79.9483 60.9919 80.0052 60.7717 80.0974 60.897L80.1539 60.7639C80.0975 60.7071 80.1352 60.6879 80.023 60.6505C79.9108 60.6126 80.004 60.3846 80.004 60.3846L80.023 60.2328C80.0604 60.0433 80.4342 60.0241 80.4531 60.1947C80.4716 60.3657 80.4531 60.4797 80.4531 60.4797L80.5656 60.5173C80.5656 60.5173 80.5466 60.6318 80.4531 60.6318C80.3592 60.6318 80.4531 60.688 80.3969 60.7453L80.4532 60.8398V60.84ZM79.2188 61.0305C79.275 60.9165 79.4056 60.423 79.5555 60.5749C79.7046 60.7269 79.7985 60.5749 79.7985 60.5749C79.7985 60.5749 79.8734 60.6511 79.8359 60.8029C79.7984 60.9544 79.7609 61.1065 79.6671 61.1254C79.574 61.1445 79.4989 61.2015 79.3872 61.2205C79.2751 61.2396 79.2188 61.0305 79.2188 61.0305Z" fill="white"/>
<path d="M89.8684 88.38C89.4643 88.8419 88.9414 89.2734 88.4485 89.6712C85.2636 86.3797 81.5245 82.7319 77.9704 82.7319C75.7669 82.7319 74.1799 84.4092 72.3285 85.5927C69.759 87.2351 66.2346 88.16 63.2143 86.9547C61.5898 86.3378 60.0159 85.4292 58.8396 83.9532C61.2168 85.5927 64.7766 85.8132 67.4604 84.6997C70.4268 83.469 73.446 81.8349 76.8264 81.8349C81.8098 81.8349 86.5459 85.2057 89.8684 88.38ZM53.0374 78.0279C56.3368 81.7837 61.7179 80.5753 66.1225 81.5135C66.7356 81.644 67.3114 81.8475 67.9695 81.7466C67.446 81.4145 66.7518 81.3771 66.147 81.1493C62.7295 79.8618 62.1967 76.2042 60.3264 73.6871C62.7153 75.2751 64.6944 77.4494 66.9282 79.4925C68.4828 80.9145 70.4197 81.523 72.4287 81.9318C71.946 82.1082 71.3145 82.0667 70.7946 82.1955C67.1862 83.0907 63.1855 84.5037 59.346 83.2367C56.868 82.419 54.2895 80.4825 53.0374 78.0279ZM47.7487 69.3354C49.8067 73.9949 54.9774 74.3598 58.4154 77.2182C59.0691 77.7618 59.7172 78.2621 60.4353 78.5969L60.4723 78.5594C59.679 77.8416 58.8205 76.9862 58.206 76.0934C56.241 73.2381 56.895 69.3356 55.3798 66.3086C56.7564 67.9568 58.0474 69.6539 58.84 71.541C60.1155 74.5779 60.5488 78.0423 63.4095 80.3499C60.3135 79.3284 56.7417 79.5318 53.9536 77.7057C51.0231 75.7862 48.307 72.7563 47.7487 69.3354ZM45.5442 59.9085C45.8418 64.0137 50.2122 66.2066 52.2963 69.5811C52.7413 70.3019 53.1993 71.0459 53.8458 71.6279C53.745 71.1909 53.3853 70.8036 53.1873 70.3748C52.519 68.9268 52.2165 67.2513 52.3833 65.5283C52.5864 63.432 53.4603 61.4853 53.1249 59.28C54.9211 63.1572 54.3417 68.0043 55.3798 72.1965C55.6095 73.124 56.1742 73.9356 56.5222 74.814C54.7573 73.4714 52.4445 72.2796 50.5072 70.7526C48.6337 69.2759 47.0074 67.545 46.1622 65.2928C45.5532 63.6699 45.3946 61.7342 45.5442 59.9085ZM45.6663 52.3446C45.877 51.4284 46.0383 50.4801 46.437 49.6397C45.6823 53.5122 48.2586 56.3096 49.1382 59.66C49.4697 60.9225 49.5831 62.264 50.0937 63.4422C50.1412 63.4677 50.1825 63.4182 50.2119 63.3801C48.9409 59.8145 50.8041 56.5191 52.6192 53.7086C53.0962 52.9698 53.326 52.1096 53.5488 51.2399C53.745 52.854 53.4015 54.7226 53.1028 56.3882C52.7184 58.5326 51.9855 60.5424 51.403 62.6114C51.0195 63.9039 51.1206 65.3627 51.3174 66.7169L51.1323 66.5693C49.7809 64.0745 47.1147 62.1255 46.3095 59.4026C45.666 57.2264 45.2208 54.7122 45.6663 52.3446ZM47.0916 48.179C47.0916 45.2484 48.2326 42.8579 49.9443 40.6754C49.9939 40.6506 50.0293 40.6008 50.0934 40.6124C48.2092 43.4787 49.9242 47.0967 49.6821 50.3477L49.4335 53.6842C49.4704 53.7086 49.4704 53.8088 49.558 53.7704C49.6693 53.3984 49.7031 53.0027 49.7679 52.6185C50.2215 49.9287 52.5834 48.0564 54.5866 46.1574C55.0448 45.7236 55.4013 45.1939 55.6308 44.6061C55.4643 45.9461 55.0905 47.3196 54.489 48.5373C52.9471 51.6588 49.9692 54.1785 49.4335 57.7259C49.1739 54.3261 47.0916 51.7988 47.0916 48.179ZM52.0584 38.2935C53.0058 37.2429 54.0678 36.4245 55.332 36.101C52.8771 37.7889 53.0104 40.8059 52.2588 43.3284C51.984 44.2508 51.58 45.1149 51.3652 46.0682L51.4275 46.1177C51.8358 45.0401 52.5366 44.0042 53.4496 43.1427C55.1763 41.5137 57.7723 40.5276 58.6267 38.1447C58.5877 41.4561 55.7649 43.9734 53.1868 45.9207C52.0303 46.7943 51.0478 47.967 50.4481 49.1964C50.5483 48.2814 50.5938 47.5202 50.5122 46.627C50.2476 43.7343 50.0758 40.4915 52.0584 38.2935ZM62.0226 32.726C60.2007 34.3247 58.9851 36.3825 57.5853 38.2323C56.4213 39.7709 54.8239 40.7241 53.4502 42.0152C54.1917 40.4768 54.3286 38.714 55.2703 37.2257C56.8806 34.6806 59.542 33.6929 62.0226 32.726Z" fill="white"/>
<path d="M71.0417 88.38C71.4458 88.8419 71.9688 89.2734 72.4616 89.6712C75.6466 86.3797 79.3857 82.7319 82.9398 82.7319C85.1432 82.7319 86.7302 84.4092 88.5817 85.5927C91.1512 87.2351 94.6756 88.16 97.6958 86.9547C99.3203 86.3378 100.894 85.4292 102.071 83.9532C99.6934 85.5927 96.1336 85.8132 93.4498 84.6997C90.4834 83.469 87.4642 81.8349 84.0838 81.8349C79.1004 81.8349 74.3642 85.2057 71.0417 88.38ZM107.873 78.0279C104.573 81.7837 99.1922 80.5753 94.7876 81.5135C94.1746 81.644 93.5987 81.8475 92.9407 81.7466C93.4642 81.4145 94.1584 81.3771 94.7632 81.1493C98.1807 79.8618 98.7134 76.2042 100.584 73.6871C98.1949 75.2751 96.2158 77.4494 93.982 79.4925C92.4274 80.9145 90.4904 81.523 88.4815 81.9318C88.9642 82.1082 89.5957 82.0667 90.1156 82.1955C93.724 83.0907 97.7246 84.5037 101.564 83.2367C104.042 82.419 106.621 80.4825 107.873 78.0279ZM113.161 69.3354C111.103 73.9949 105.933 74.3598 102.495 77.2182C101.841 77.7618 101.193 78.2621 100.475 78.5969L100.438 78.5594C101.231 77.8416 102.09 76.9862 102.704 76.0934C104.669 73.2381 104.015 69.3356 105.53 66.3086C104.154 67.9568 102.863 69.6539 102.07 71.541C100.795 74.5779 100.361 78.0423 97.5007 80.3499C100.597 79.3284 104.169 79.5318 106.957 77.7057C109.887 75.7862 112.603 72.7563 113.161 69.3354ZM115.366 59.9085C115.068 64.0137 110.698 66.2066 108.614 69.5811C108.169 70.3019 107.711 71.0459 107.064 71.6279C107.165 71.1909 107.525 70.8036 107.723 70.3748C108.391 68.9268 108.694 67.2513 108.527 65.5283C108.324 63.432 107.45 61.4853 107.785 59.28C105.989 63.1572 106.569 68.0043 105.53 72.1965C105.301 73.124 104.736 73.9356 104.388 74.814C106.153 73.4714 108.466 72.2796 110.403 70.7526C112.276 69.2759 113.903 67.545 114.748 65.2928C115.357 63.6699 115.516 61.7342 115.366 59.9085ZM115.244 52.3446C115.033 51.4284 114.872 50.4801 114.473 49.6397C115.228 53.5122 112.652 56.3096 111.772 59.66C111.441 60.9225 111.327 62.264 110.817 63.4422C110.769 63.4677 110.728 63.4182 110.698 63.3801C111.969 59.8145 110.106 56.5191 108.291 53.7086C107.814 52.9698 107.584 52.1096 107.361 51.2399C107.165 52.854 107.509 54.7226 107.807 56.3882C108.192 58.5326 108.925 60.5424 109.507 62.6114C109.891 63.9039 109.79 65.3627 109.593 66.7169L109.778 66.5693C111.129 64.0745 113.796 62.1255 114.601 59.4026C115.244 57.2264 115.689 54.7122 115.244 52.3446ZM113.819 48.179C113.819 45.2484 112.678 42.8579 110.966 40.6754C110.916 40.6506 110.881 40.6008 110.817 40.6124C112.701 43.4787 110.986 47.0967 111.228 50.3477L111.477 53.6842C111.44 53.7086 111.44 53.8088 111.352 53.7704C111.241 53.3984 111.207 53.0027 111.142 52.6185C110.689 49.9287 108.327 48.0564 106.324 46.1574C105.865 45.7236 105.509 45.1939 105.279 44.6061C105.446 45.9461 105.82 47.3196 106.421 48.5373C107.963 51.6588 110.941 54.1785 111.477 57.7259C111.736 54.3261 113.819 51.7988 113.819 48.179ZM108.852 38.2935C107.904 37.2429 106.842 36.4245 105.578 36.101C108.033 37.7889 107.9 40.8059 108.651 43.3284C108.926 44.2508 109.33 45.1149 109.545 46.0682L109.483 46.1177C109.074 45.0401 108.374 44.0042 107.461 43.1427C105.734 41.5137 103.138 40.5276 102.283 38.1447C102.322 41.4561 105.145 43.9734 107.723 45.9207C108.88 46.7943 109.862 47.967 110.462 49.1964C110.362 48.2814 110.316 47.5202 110.398 46.627C110.663 43.7343 110.834 40.4915 108.852 38.2935ZM98.8876 32.726C100.71 34.3247 101.925 36.3825 103.325 38.2323C104.489 39.7709 106.086 40.7241 107.46 42.0152C106.718 40.4768 106.582 38.714 105.64 37.2257C104.03 34.6806 101.368 33.6929 98.8876 32.726Z" fill="white"/>
</g>
<defs>
<clipPath id="clip0_458_75">
<rect width="160" height="120" fill="white" transform="translate(0.455078)"/>
</clipPath>
</defs>
</svg>
