<svg width="160" height="120" viewBox="0 0 160 120" fill="none" xmlns="http://www.w3.org/2000/svg">
<g clip-path="url(#clip0_307_60201)">
<path d="M0 0H160V120H0V0Z" fill="#1E9A1C"/>
<path d="M0 0H160V60H0V0Z" fill="#23748C"/>
<path d="M0 38.4H160V81.6H0V38.4Z" fill="#D91C16"/>
<path d="M0 40.8H160V79.2001H0V40.8Z" fill="white"/>
<path d="M29.5998 33.4009C28.8193 33.5319 28.0175 33.6 27.1998 33.6C19.2469 33.6 12.7998 27.1529 12.7998 19.2C12.7998 11.2471 19.2469 4.80005 27.1998 4.80005C28.0175 4.80005 28.8193 4.86821 29.5998 4.99915C22.7893 6.14174 17.5998 12.0649 17.5998 19.2C17.5998 26.3352 22.7893 32.2584 29.5998 33.4009Z" fill="white"/>
<path d="M57.8336 31.06L56.1408 29.8301H58.2332L58.8798 27.84L59.5264 29.8301H61.6189L59.926 31.06L60.5726 33.05L58.8798 31.8201L57.187 33.05L57.8336 31.06Z" fill="white"/>
<path d="M56.1408 18.3101H58.2332L58.8798 16.32L59.5264 18.3101H61.6189L59.926 19.54L60.5726 21.53L58.8798 20.3001L57.187 21.53L57.8336 19.54L56.1408 18.3101Z" fill="white"/>
<path d="M56.1408 6.79008H58.2332L58.8798 4.80005L59.5264 6.79008H61.6189L59.926 8.01999L60.5726 10.01L58.8798 8.78011L57.187 10.01L57.8336 8.01999L56.1408 6.79008Z" fill="white"/>
<path d="M69.3536 31.06L67.6608 29.8301H69.7532L70.3998 27.84L71.0464 29.8301H73.1389L71.446 31.06L72.0926 33.05L70.3998 31.8201L68.707 33.05L69.3536 31.06Z" fill="white"/>
<path d="M67.6608 18.3101H69.7532L70.3998 16.32L71.0464 18.3101H73.1389L71.446 19.54L72.0926 21.53L70.3998 20.3001L68.707 21.53L69.3536 19.54L67.6608 18.3101Z" fill="white"/>
<path d="M67.6608 6.79008H69.7532L70.3998 4.80005L71.0464 6.79008H73.1389L71.446 8.01999L72.0926 10.01L70.3998 8.78011L68.707 10.01L69.3536 8.01999L67.6608 6.79008Z" fill="white"/>
<path d="M80.8736 31.06L79.1808 29.8301H81.2732L81.9198 27.84L82.5664 29.8301H84.6589L82.966 31.06L83.6126 33.05L81.9198 31.8201L80.227 33.05L80.8736 31.06Z" fill="white"/>
<path d="M79.1808 18.3101H81.2732L81.9198 16.32L82.5664 18.3101H84.6589L82.966 19.54L83.6126 21.53L81.9198 20.3001L80.227 21.53L80.8736 19.54L79.1808 18.3101Z" fill="white"/>
<path d="M79.1808 6.79008H81.2732L81.9198 4.80005L82.5664 6.79008H84.6589L82.966 8.01999L83.6126 10.01L81.9198 8.78011L80.227 10.01L80.8736 8.01998L79.1808 6.79008Z" fill="white"/>
<path d="M34.7936 31.06L33.1008 29.8301H35.1932L35.8398 27.84L36.4864 29.8301H38.5789L36.886 31.06L37.5326 33.05L35.8398 31.8201L34.147 33.05L34.7936 31.06Z" fill="white"/>
<path d="M46.3136 31.06L44.6208 29.8301H46.7132L47.3598 27.84L48.0064 29.8301H50.0989L48.406 31.06L49.0526 33.05L47.3598 31.8201L45.667 33.05L46.3136 31.06Z" fill="white"/>
<path d="M44.6208 18.3101H46.7132L47.3598 16.32L48.0064 18.3101H50.0989L48.406 19.54L49.0526 21.53L47.3598 20.3001L45.667 21.53L46.3136 19.54L44.6208 18.3101Z" fill="white"/>
</g>
<defs>
<clipPath id="clip0_307_60201">
<rect width="160" height="120" fill="white"/>
</clipPath>
</defs>
</svg>
