<svg width="160" height="120" viewBox="0 0 160 120" fill="none" xmlns="http://www.w3.org/2000/svg">
<g clip-path="url(#clip0_307_59577)">
<path d="M0 0H160V120H0V0Z" fill="#D91C16"/>
<path d="M0 80H160V0H0V80Z" fill="#0F3296"/>
<path d="M0 0H160V40H0V0Z" fill="#FDD406"/>
<path d="M37 69.7234L41.5643 73.2861L43.704 70.5501L37 69.7234Z" fill="white"/>
<path d="M37 69.7234L42.7887 69.9254L42.6674 73.3953L37 69.7234Z" fill="white"/>
<path d="M42.645 65.9194L40.664 71.3571L43.9297 72.5446L42.645 65.9194Z" fill="white"/>
<path d="M42.645 65.9194L44.2416 71.4819L40.9009 72.4389L42.645 65.9194Z" fill="white"/>
<path d="M38.8769 76.2626L43.6788 73.0267L41.7354 70.1482L38.8769 76.2626Z" fill="white"/>
<path d="M38.8769 76.2626L40.8579 70.8248L44.1237 72.0123L38.8769 76.2626Z" fill="white"/>
<path d="M48.0107 70.1075L42.2221 69.9056L42.1008 73.3755L48.0107 70.1075Z" fill="white"/>
<path d="M48.0107 70.1075L43.2088 73.3434L41.2654 70.465L48.0107 70.1075Z" fill="white"/>
<path d="M45.6819 76.5L44.0853 70.9374L40.7446 71.8945L45.6819 76.5Z" fill="white"/>
<path d="M45.6819 76.5L41.1175 72.9373L43.2572 70.2013L45.6819 76.5Z" fill="white"/>
<path d="M45.2476 56.8404L48.317 61.7479L51.2643 59.908L45.2476 56.8404Z" fill="white"/>
<path d="M45.2476 56.8404L50.6181 59.0082L49.3162 62.2274L45.2476 56.8404Z" fill="white"/>
<path d="M51.8545 55.1947L48.1313 59.6276L50.7936 61.8594L51.8545 55.1947Z" fill="white"/>
<path d="M51.8545 55.1947L51.4505 60.9673L47.9836 60.7252L51.8545 55.1947Z" fill="white"/>
<path d="M44.7726 63.6266L50.3928 62.2266L49.552 58.8577L44.7726 63.6266Z" fill="white"/>
<path d="M44.7726 63.6266L48.4958 59.1937L51.1581 61.4255L44.7726 63.6266Z" fill="white"/>
<path d="M55.4628 60.9637L50.0924 58.796L48.7905 62.0152L55.4628 60.9637Z" fill="white"/>
<path d="M55.4628 60.9637L49.8427 62.3637L49.0019 58.9948L55.4628 60.9637Z" fill="white"/>
<path d="M51.086 66.1749L51.49 60.4023L48.0232 60.1601L51.086 66.1749Z" fill="white"/>
<path d="M51.086 66.1749L48.0166 61.2675L50.9638 59.4276L51.086 66.1749Z" fill="white"/>
<path d="M57.4203 47.1734L58.6246 52.8337L62.024 52.1118L57.4203 47.1734Z" fill="white"/>
<path d="M57.4203 47.1734L61.7248 51.0455L59.3994 53.6257L57.4203 47.1734Z" fill="white"/>
<path d="M64.1922 47.8845L59.176 50.7779L60.9137 53.7847L64.1922 47.8845Z" fill="white"/>
<path d="M64.1922 47.8845L61.8363 53.1709L58.6614 51.7587L64.1922 47.8845Z" fill="white"/>
<path d="M54.6508 53.388L60.4113 53.9929L60.7746 50.5399L54.6508 53.388Z" fill="white"/>
<path d="M54.6508 53.388L59.667 50.4946L61.4047 53.5015L54.6508 53.388Z" fill="white"/>
<path d="M65.6079 54.5385L61.3035 50.6665L58.978 53.2467L65.6079 54.5385Z" fill="white"/>
<path d="M65.6079 54.5385L59.8474 53.9337L60.2107 50.4807L65.6079 54.5385Z" fill="white"/>
<path d="M59.711 57.9399L62.0669 52.6535L58.892 51.2413L59.711 57.9399Z" fill="white"/>
<path d="M59.711 57.9399L58.5067 52.2796L61.9061 51.5577L59.711 57.9399Z" fill="white"/>
<path d="M71.9941 42L71.1879 47.7304L74.6295 48.2136L71.9941 42Z" fill="white"/>
<path d="M71.9941 42L74.7133 47.1094L71.6448 48.7394L71.9941 42Z" fill="white"/>
<path d="M78.1141 44.9821L72.4099 45.987L73.0134 49.4063L78.1141 44.9821Z" fill="white"/>
<path d="M78.1141 44.9821L74.0905 49.1447L71.5905 46.7329L78.1141 44.9821Z" fill="white"/>
<path d="M67.264 46.8935L72.47 49.4302L73.9935 46.3095L67.264 46.8935Z" fill="white"/>
<path d="M67.264 46.8935L72.9682 45.8886L73.5717 49.3079L67.264 46.8935Z" fill="white"/>
<path d="M77.1664 51.7186L74.4472 46.6092L71.3786 48.2393L77.1664 51.7186Z" fill="white"/>
<path d="M77.1664 51.7186L71.9604 49.1819L73.4839 46.0612L77.1664 51.7186Z" fill="white"/>
<path d="M70.4607 52.8999L74.4843 48.7373L71.9844 46.3254L70.4607 52.8999Z" fill="white"/>
<path d="M70.4607 52.8999L71.2668 47.1695L74.7084 47.6527L70.4607 52.8999Z" fill="white"/>
<path d="M123.02 69.7234L118.456 73.2861L116.316 70.5501L123.02 69.7234Z" fill="white"/>
<path d="M123.02 69.7234L117.231 69.9254L117.353 73.3953L123.02 69.7234Z" fill="white"/>
<path d="M117.375 65.9194L119.356 71.3571L116.09 72.5446L117.375 65.9194Z" fill="white"/>
<path d="M117.375 65.9194L115.778 71.4819L119.119 72.439L117.375 65.9194Z" fill="white"/>
<path d="M121.143 76.2626L116.341 73.0267L118.285 70.1482L121.143 76.2626Z" fill="white"/>
<path d="M121.143 76.2626L119.162 70.8248L115.896 72.0124L121.143 76.2626Z" fill="white"/>
<path d="M112.009 70.1075L117.798 69.9056L117.919 73.3755L112.009 70.1075Z" fill="white"/>
<path d="M112.009 70.1075L116.811 73.3434L118.755 70.465L112.009 70.1075Z" fill="white"/>
<path d="M114.338 76.5L115.935 70.9374L119.275 71.8945L114.338 76.5Z" fill="white"/>
<path d="M114.338 76.5L118.902 72.9373L116.763 70.2013L114.338 76.5Z" fill="white"/>
<path d="M114.772 56.8405L111.703 61.7479L108.756 59.908L114.772 56.8405Z" fill="white"/>
<path d="M114.772 56.8405L109.402 59.0082L110.704 62.2274L114.772 56.8405Z" fill="white"/>
<path d="M108.165 55.1947L111.889 59.6276L109.226 61.8594L108.165 55.1947Z" fill="white"/>
<path d="M108.165 55.1947L108.57 60.9674L112.036 60.7252L108.165 55.1947Z" fill="white"/>
<path d="M115.247 63.6266L109.627 62.2267L110.468 58.8578L115.247 63.6266Z" fill="white"/>
<path d="M115.247 63.6266L111.524 59.1937L108.862 61.4255L115.247 63.6266Z" fill="white"/>
<path d="M104.557 60.9638L109.928 58.796L111.23 62.0152L104.557 60.9638Z" fill="white"/>
<path d="M104.557 60.9638L110.177 62.3637L111.018 58.9948L104.557 60.9638Z" fill="white"/>
<path d="M108.934 66.1749L108.53 60.4023L111.997 60.1601L108.934 66.1749Z" fill="white"/>
<path d="M108.934 66.1749L112.003 61.2675L109.056 59.4276L108.934 66.1749Z" fill="white"/>
<path d="M102.6 47.1734L101.395 52.8337L97.996 52.1118L102.6 47.1734Z" fill="white"/>
<path d="M102.6 47.1734L98.2952 51.0455L100.621 53.6257L102.6 47.1734Z" fill="white"/>
<path d="M95.8278 47.8845L100.844 50.7779L99.1063 53.7847L95.8278 47.8845Z" fill="white"/>
<path d="M95.8278 47.8845L98.1837 53.1709L101.359 51.7587L95.8278 47.8845Z" fill="white"/>
<path d="M105.369 53.388L99.6087 53.9929L99.2454 50.5399L105.369 53.388Z" fill="white"/>
<path d="M105.369 53.388L100.353 50.4947L98.6153 53.5015L105.369 53.388Z" fill="white"/>
<path d="M94.4121 54.5386L98.7166 50.6665L101.042 53.2467L94.4121 54.5386Z" fill="white"/>
<path d="M94.4121 54.5386L100.173 53.9337L99.8093 50.4807L94.4121 54.5386Z" fill="white"/>
<path d="M100.309 57.9399L97.9531 52.6535L101.128 51.2413L100.309 57.9399Z" fill="white"/>
<path d="M100.309 57.9399L101.513 52.2796L98.1139 51.5578L100.309 57.9399Z" fill="white"/>
<path d="M88.0259 42L88.8321 47.7304L85.3906 48.2136L88.0259 42Z" fill="white"/>
<path d="M88.0259 42L85.3067 47.1094L88.3752 48.7394L88.0259 42Z" fill="white"/>
<path d="M81.9059 44.9821L87.6101 45.987L87.0066 49.4063L81.9059 44.9821Z" fill="white"/>
<path d="M81.9059 44.9821L85.9295 49.1447L88.4295 46.7329L81.9059 44.9821Z" fill="white"/>
<path d="M92.756 46.8935L87.55 49.4302L86.0265 46.3096L92.756 46.8935Z" fill="white"/>
<path d="M92.756 46.8935L87.0518 45.8886L86.4483 49.3079L92.756 46.8935Z" fill="white"/>
<path d="M82.8535 51.7186L85.5728 46.6092L88.6414 48.2393L82.8535 51.7186Z" fill="white"/>
<path d="M82.8535 51.7186L88.0596 49.1819L86.5361 46.0612L82.8535 51.7186Z" fill="white"/>
<path d="M89.5593 52.8999L85.5357 48.7373L88.0356 46.3254L89.5593 52.8999Z" fill="white"/>
<path d="M89.5593 52.8999L88.7532 47.1695L85.3116 47.6527L89.5593 52.8999Z" fill="white"/>
</g>
<defs>
<clipPath id="clip0_307_59577">
<rect width="160" height="120" fill="white"/>
</clipPath>
</defs>
</svg>
