<svg width="160" height="120" viewBox="0 0 160 120" fill="none" xmlns="http://www.w3.org/2000/svg">
<g clip-path="url(#clip0_909_304255)">
<path d="M0 0H160V120H0V0Z" fill="#0F3296"/>
<path d="M79.7461 38.0273C80.449 38.8476 80.9195 39.6673 80.9195 40.6643C80.3294 40.956 79.514 41.0752 79.0434 41.6025C81.9737 41.1913 82.5574 44.5892 85.8391 43.2998C85.9583 43.7704 86.4288 44.1811 87.0124 44.0035L87.3638 43.0677C88.6502 42.7162 88.2988 44.8245 89.7101 44.4136C90.4134 45.0003 89.9429 45.995 90.4134 46.7008C90.4134 47.5197 90.7651 48.2226 91.1161 48.9252C91.4678 48.5173 91.6999 47.9306 92.5217 48.1064C93.1054 48.7496 93.576 49.3364 93.6947 50.039C93.4566 51.3881 93.1052 52.5584 94.5108 53.2611V53.672C95.4519 54.0829 97.5604 53.2611 97.5604 54.9019C97.4408 55.4887 98.1439 54.9616 98.3822 55.3128C98.966 55.0775 99.7878 55.1969 100.49 55.1969C101.074 56.4268 99.7878 57.3051 99.4363 58.4189C100.02 59.0027 99.7878 60.0598 99.6686 60.7592L99.317 60.9351C100.252 61.1107 101.425 60.8221 102.247 61.3492L103.772 61.9327C104.475 61.525 105.291 61.4623 106.232 61.525C106.935 62.0523 105.994 62.9306 106.583 63.3385C107.406 63.3385 108.108 63.4578 108.221 64.1607L108.34 64.3928C108.924 63.3385 110.568 64.0412 111.271 63.2822C112.444 63.2822 112.676 64.5687 113.26 65.2715C113.498 67.091 111.271 67.9132 111.973 69.7265C111.503 70.6048 110.568 71.3079 109.865 72.1297C110.097 72.2489 109.978 72.5376 109.978 72.7133C109.275 73.1276 109.865 74.3573 108.924 74.4707C108.811 75.2358 107.405 74.9411 107.87 75.7629C108.811 76.9928 107.405 77.7522 107.405 78.869C106.815 79.5152 105.642 78.279 105.642 79.5152C104.939 79.6908 104.237 78.869 103.772 79.5719C103.534 80.3939 104.237 80.6824 104.124 81.5045C105.291 81.3851 105.642 82.5586 106.113 83.2615L107.286 84.4347C106.113 85.3697 104.588 84.3154 103.182 84.8424C102.831 84.6668 103.182 84.2024 102.831 84.0268C102.479 83.6125 101.777 83.6125 101.193 83.4993C101.306 84.0268 100.252 84.2022 100.723 84.8422C100.723 85.0178 100.955 85.5451 100.49 85.5451C99.5491 85.8401 99.6684 84.7295 98.8462 85.1372C97.7921 85.5451 98.6141 87.1265 97.0894 86.9507C97.3215 88.3627 94.7488 89.2976 96.5056 90.5276C96.7377 90.7599 96.6186 91.2303 96.6186 91.5817C95.5642 92.5229 93.6941 92.1716 92.521 91.82C91.5799 91.5817 92.1696 90.4082 91.8184 89.7682C91.4669 89.1785 90.4128 88.7706 90.4128 87.9485C89.7095 87.6596 89.1202 87.4784 88.6496 86.8942C87.0119 88.4756 85.0171 90.0003 82.6759 90.0568C81.6218 90.5838 81.0321 92.6987 79.3942 91.8198C78.751 92.8743 76.8152 91.8198 76.699 93.3387C75.9367 93.6335 76.2881 94.6311 75.8207 95.0955C75.6449 96.2688 75.8207 97.2664 76.8152 97.9695C77.2261 98.8478 75.9367 98.8478 76.4637 99.67C76.5831 99.9588 76.4637 100.373 76.2881 100.492C75.9367 100.667 75.8207 100.844 75.9367 101.195C75.6449 101.195 75.526 101.37 75.2934 101.602C74.9985 102.186 74.0635 102.481 73.4173 102.889C72.7741 103.064 72.3035 102.6 71.8956 102.186C71.7762 102.832 71.2494 103.184 70.6062 103.184C69.668 103.184 69.8438 102.362 69.1409 102.011C69.4327 100.956 68.4947 100.492 68.7895 99.5507C69.5516 98.9672 70.8383 98.553 70.4868 97.3233C69.668 96.3316 69.9598 94.8634 69.1409 93.6902C68.6139 93.2258 67.7354 92.5231 68.0271 91.4061C68.7895 90.5278 68.0271 89.4735 67.6162 88.5385C67.4406 87.7731 66.973 87.0705 66.973 86.1918C65.6836 85.4326 65.6239 83.4371 63.8075 83.2615C62.518 83.2615 62.2857 81.6236 60.9963 81.7366C60.8772 81.5045 60.5854 81.3289 60.3501 81.0966C59.4152 81.7366 58.2419 80.921 57.0714 81.2095C56.3091 79.9231 57.7146 78.1661 55.6629 77.4005V76.5849C55.8982 76.6976 56.0143 76.4653 56.0738 76.3464C56.1899 75.4679 54.6085 75.355 55.2549 74.3571C54.9035 74.0623 54.4926 73.943 54.7279 73.3595C53.8464 71.546 51.2109 71.7218 50.6241 69.9021C51.0947 69.4944 51.0947 69.0801 51.2706 68.7289C50.8594 68.026 50.7435 67.2666 50.8594 66.5075C51.2706 66.3881 51.5026 65.8613 51.7379 65.4469C51.2109 65.0957 50.5675 64.5687 49.9809 64.7443C48.9268 64.5687 48.1643 63.7528 47.2263 63.2822C46.991 63.0499 47.1103 62.636 47.1103 62.3473C48.3995 61.9329 46.9347 60.1165 48.5159 60.352C48.927 59.8249 49.8053 59.6491 50.4487 59.2382C51.0949 59.1222 51.622 59.3573 52.2652 59.5331C52.7923 60.2328 53.7305 59.9411 54.2573 60.5276C54.7844 60.4084 55.4308 60.1165 56.074 60.4084C56.074 59.4138 56.5416 58.8271 57.2472 58.1242C57.3634 57.7162 58.0066 57.4215 58.5337 57.1892C59.5315 57.4215 60.7018 57.4215 61.4077 56.7186C61.8753 57.0134 62.2862 56.4268 62.8132 56.4268C63.4562 56.3077 63.9835 56.4833 64.4541 56.7783C64.5106 55.6048 66.5623 56.6024 66.9734 55.1969C67.441 54.2587 65.684 53.9075 65.8 53.0854C65.5082 52.1473 66.2111 51.6799 66.5623 51.0367C66.9732 50.8608 67.4408 50.6258 67.9679 50.7417C69.317 50.2741 68.2626 47.5197 70.4308 48.5173C70.4308 48.8093 70.3116 49.1605 70.4872 49.2202C71.2496 49.2202 71.3666 48.3408 71.896 48.0469C72.1281 47.2281 71.6013 46.2305 72.3039 45.587C72.6554 45.5276 72.9501 45.4114 73.1824 45.1165C73.1824 44.4733 72.831 44.122 72.3039 43.7109C72.1283 44.0037 71.6607 43.7706 71.3666 43.8867C71.3666 43.1838 70.9578 42.7165 70.8387 42.07C70.4872 41.8944 70.3116 41.6027 70.4308 41.1915C70.9578 40.6645 70.4308 39.3751 71.6607 39.6675C72.1283 39.2589 72.9501 39.5507 73.4177 38.8478C74.6477 38.1451 76.2883 38.1451 77.2265 36.8557C77.6374 36.9152 78.105 36.5043 78.5159 36.8557C78.6323 37.6178 79.7461 37.3229 79.7461 38.0273Z" fill="#D3AE3B"/>
<path d="M71.6401 17.1602L73.2401 22.1402H78.4801L74.2401 25.2202L75.8601 30.2002L71.6401 27.1202L67.4001 30.2002L69.0201 25.2202L64.7801 22.1402H70.0201L71.6401 17.1602Z" fill="white"/>
<path d="M88.3601 17.1602L89.9801 22.1402H95.2201L90.9801 25.2202L92.6001 30.2002L88.3601 27.1202L84.1401 30.2002L85.7601 25.2202L81.5201 22.1402H86.7601L88.3601 17.1602Z" fill="white"/>
<path d="M104.84 20.0801L106.46 25.0401H111.7L107.46 28.1201L109.08 33.1001L104.84 30.0201L100.62 33.1001L102.24 28.1201L98.0001 25.0401H103.24L104.84 20.0801Z" fill="white"/>
<path d="M122.18 30.7601L120.58 25.8001L118.96 30.7601H113.72L117.96 33.8401L116.34 38.8201L120.58 35.7401L124.8 38.8201L123.18 33.8401L127.42 30.7601H122.18Z" fill="white"/>
<path d="M56.7601 25.0401L55.1601 20.0801L53.5401 25.0401H48.3001L52.5401 28.1201L50.9201 33.1001L55.1601 30.0201L59.3801 33.1001L57.7601 28.1201L62.0001 25.0401H56.7601Z" fill="white"/>
<path d="M39.4201 25.8001L41.0401 30.7601H46.2801L42.0401 33.8401L43.6601 38.8201L39.4201 35.7401L35.2001 38.8201L36.8201 33.8401L32.5801 30.7601H37.8201L39.4201 25.8001Z" fill="white"/>
</g>
<defs>
<clipPath id="clip0_909_304255">
<rect width="160" height="120" fill="white"/>
</clipPath>
</defs>
</svg>
