<svg width="160" height="120" viewBox="0 0 160 120" fill="none" xmlns="http://www.w3.org/2000/svg">
<path d="M0 0H160V60H80L0 0Z" fill="#E23726"/>
<path d="M0 120H160V60H80L0 120Z" fill="#0F3296"/>
<path fill-rule="evenodd" clip-rule="evenodd" d="M160 80V40H85.3827L32.0493 0H0V120H32.0493L85.3827 80H160ZM17.7778 37.3703L47.9507 60L17.7778 82.6297V37.3703Z" fill="white"/>
<path d="M0 -0.00012207L80 59.9999L0 120V-0.00012207Z" fill="black"/>
<path d="M47.9507 59.9999L0 24.0369V-0.00012207L80 59.9999L0 120V95.9629L47.9507 59.9999Z" fill="#FDD406"/>
<path d="M0 14.4221L60.7704 59.9999L0 105.578V120H19.2296L83.2296 71.9999H160V47.9999H83.2296L19.2296 -0.00012207H0V14.4221Z" fill="#1E9A1C"/>
</svg>
