<svg width="172" height="120" viewBox="0 0 172 120" fill="none" xmlns="http://www.w3.org/2000/svg">
<g clip-path="url(#clip0_909_237142)">
<path d="M0.00012207 0H171.429V120H0.00012207V0Z" fill="#1E9A1C"/>
<path d="M14.5698 59.9999L85.7127 105.428L156.856 59.9999L85.7127 14.5713L14.5698 59.9999Z" fill="#FDD406"/>
<path d="M85.5698 90C102.138 90 115.57 76.5685 115.57 60C115.57 43.4315 102.138 30 85.5698 30C69.0013 30 55.5698 43.4315 55.5698 60C55.5698 76.5685 69.0013 90 85.5698 90Z" fill="#0F3296"/>
<path d="M56.5229 52.4692C60.427 51.781 64.4089 51.4283 68.4271 51.4283C85.3689 51.4283 101.664 57.6979 114.211 68.9522C114.69 67.4186 115.049 65.832 115.278 64.2036C102.206 53.2268 85.6302 47.1426 68.4271 47.1426C64.9584 47.1426 61.5152 47.3899 58.1211 47.8749C57.4695 49.3478 56.933 50.8831 56.5229 52.4692Z" fill="white"/>
<path d="M68.7707 50.7114L71.3406 50.8011L71.3591 50.2708L69.2787 50.1982L69.3044 49.4639L70.936 49.5209L70.9531 49.0314L69.3215 48.9744L69.3414 48.4033L71.2994 48.4717L71.3179 47.9414L68.8704 47.856L68.7707 50.7114Z" fill="#1E9A1C"/>
<path fill-rule="evenodd" clip-rule="evenodd" d="M66.4897 50.7235L65.143 50.747L65.0931 47.8903L66.4398 47.8668C66.6006 47.864 66.7604 47.8929 66.91 47.9518C67.0596 48.0107 67.1961 48.0986 67.3118 48.2103C67.4275 48.322 67.52 48.4554 67.5841 48.6028C67.6483 48.7503 67.6827 48.9089 67.6855 49.0697L67.6926 49.4778C67.6954 49.6386 67.6665 49.7984 67.6076 49.948C67.5487 50.0976 67.4609 50.2341 67.3491 50.3498C67.2374 50.4655 67.1041 50.558 66.9566 50.6221C66.8091 50.6862 66.6505 50.7207 66.4897 50.7235ZM66.4396 50.1937L65.6642 50.2072L65.6329 48.4116L66.4083 48.398C66.6139 48.3944 66.8126 48.4727 66.9605 48.6156C67.1085 48.7584 67.1936 48.9542 67.1972 49.1599L67.2015 49.4047C67.2051 49.6104 67.1268 49.809 66.9839 49.957C66.8411 50.1049 66.6453 50.1901 66.4396 50.1937Z" fill="#1E9A1C"/>
<path fill-rule="evenodd" clip-rule="evenodd" d="M62.0512 50.9355L61.5219 50.9725L61.3633 48.1195L62.992 48.0056C63.2296 47.989 63.464 48.0674 63.6437 48.2237C63.8235 48.3799 63.9338 48.6011 63.9504 48.8387C63.967 49.0763 63.8886 49.3107 63.7323 49.4905C63.6844 49.5456 63.6303 49.5942 63.5715 49.6356C63.8793 49.8704 63.9223 50.4854 63.9446 50.8031L63.4559 50.8373C63.4369 50.5649 63.4026 50.0739 63.1138 49.7974L61.9772 49.8768L62.0512 50.9355ZM63.0395 49.2707L61.9402 49.3475L61.8889 48.6146L62.9883 48.5377C63.0855 48.5309 63.1814 48.563 63.2549 48.627C63.3284 48.6909 63.3736 48.7814 63.3804 48.8786C63.3872 48.9758 63.3551 49.0717 63.2911 49.1452C63.2272 49.2187 63.1367 49.2639 63.0395 49.2707Z" fill="#1E9A1C"/>
<path fill-rule="evenodd" clip-rule="evenodd" d="M60.0454 50.7044C59.8387 50.9997 59.5324 51.1889 59.194 51.2305C58.8555 51.272 58.5126 51.1625 58.2406 50.926C57.9687 50.6894 57.7899 50.3453 57.7438 49.9692C57.6976 49.5932 57.7878 49.216 57.9944 48.9207C58.2011 48.6254 58.5073 48.4362 58.8458 48.3946C59.1842 48.3531 59.5272 48.4626 59.7991 48.6991C60.0711 48.9356 60.2498 49.2798 60.296 49.6558C60.3422 50.0319 60.252 50.4091 60.0454 50.7044ZM59.6272 50.3777C59.5072 50.5621 59.3281 50.6794 59.1293 50.7038C58.9306 50.7282 58.7284 50.6577 58.5673 50.5078C58.4062 50.3579 58.2994 50.1409 58.2704 49.9046C58.2414 49.6682 58.2925 49.4318 58.4126 49.2474C58.5326 49.063 58.7117 48.9457 58.9105 48.9213C59.1092 48.8969 59.3114 48.9674 59.4725 49.1172C59.6335 49.2671 59.7403 49.4841 59.7694 49.7205C59.7984 49.9569 59.7473 50.1933 59.6272 50.3777Z" fill="#1E9A1C"/>
<path d="M72.8838 50.9083L72.3958 50.8656L72.6449 48.0193L73.3564 48.0816L73.7549 50.0831L74.4949 48.1812L75.2065 48.2435L74.9575 51.0897L74.4696 51.047L74.6403 49.0953L73.9003 50.9972L73.453 50.9581L73.0545 48.9566L72.8838 50.9083Z" fill="#1E9A1C"/>
<path d="M78.3158 51.5333L80.4277 51.8962L80.5107 51.4135L78.8815 51.1336L78.9921 50.4899L80.3196 50.718L80.4025 50.2353L79.075 50.0072L79.1511 49.5647L80.73 49.836L80.8129 49.3533L78.7513 48.9991L78.3158 51.5333Z" fill="#1E9A1C"/>
<path fill-rule="evenodd" clip-rule="evenodd" d="M84.2547 52.7319L83.741 52.599L84.4959 49.8431L86.0765 50.2519C86.3071 50.3115 86.5046 50.4603 86.6254 50.6655C86.7463 50.8707 86.7807 51.1155 86.7211 51.3461C86.6614 51.5766 86.5127 51.7741 86.3075 51.895C86.1023 52.0158 85.8575 52.0502 85.6269 51.9906L84.5204 51.7045L84.2547 52.7319ZM85.7202 51.4667L84.6533 51.1907L84.8372 50.4795L85.9042 50.7554C85.9985 50.7798 86.0793 50.8406 86.1287 50.9246C86.1782 51.0085 86.1922 51.1087 86.1678 51.203C86.1435 51.2973 86.0826 51.3781 85.9986 51.4275C85.9147 51.477 85.8145 51.4911 85.7202 51.4667Z" fill="#1E9A1C"/>
<path fill-rule="evenodd" clip-rule="evenodd" d="M87.2466 53.5341L87.7527 53.6937L88.0718 52.6816L89.1584 53.0242C89.3258 53.3873 89.1778 53.8567 89.0957 54.1171L89.5628 54.2644C89.6586 53.9607 89.8439 53.3728 89.6436 53.0415C89.7135 53.0245 89.7816 52.9991 89.8464 52.9654C90.0577 52.8554 90.2166 52.666 90.2882 52.4389C90.3598 52.2117 90.3383 51.9655 90.2283 51.7542C90.1183 51.543 89.9289 51.3841 89.7018 51.3125L88.1447 50.8215L87.2466 53.5341ZM88.2314 52.1755L89.2824 52.5069C89.3753 52.5362 89.4761 52.5274 89.5625 52.4824C89.6489 52.4374 89.7139 52.36 89.7432 52.267C89.7725 52.1741 89.7637 52.0734 89.7187 51.987C89.6737 51.9005 89.5962 51.8355 89.5033 51.8062L88.4523 51.4748L88.2314 52.1755Z" fill="#1E9A1C"/>
<path fill-rule="evenodd" clip-rule="evenodd" d="M91.9023 55.1017C92.2217 55.2211 92.5807 55.1947 92.9004 55.0282C93.22 54.8617 93.4742 54.5688 93.6069 54.2139C93.7395 53.859 93.7399 53.4712 93.6079 53.1358C93.4759 52.8004 93.2223 52.5449 92.9029 52.4255C92.5835 52.3061 92.2244 52.3326 91.9048 52.4991C91.5851 52.6656 91.331 52.9585 91.1983 53.3134C91.0656 53.6682 91.0652 54.056 91.1972 54.3914C91.3293 54.7268 91.5829 54.9823 91.9023 55.1017ZM92.0881 54.6047C92.2757 54.6748 92.4887 54.6535 92.6803 54.5454C92.8719 54.4372 93.0264 54.2511 93.1098 54.0281C93.1932 53.805 93.1987 53.5632 93.1251 53.3559C93.0514 53.1485 92.9046 52.9927 92.717 52.9225C92.5295 52.8524 92.3164 52.8737 92.1248 52.9819C91.9332 53.09 91.7787 53.2761 91.6953 53.4992C91.6119 53.7222 91.6064 53.964 91.6801 54.1714C91.7537 54.3787 91.9005 54.5346 92.0881 54.6047Z" fill="#1E9A1C"/>
<path d="M97.0723 54.5866C96.958 54.2448 96.7181 53.9763 96.4054 53.8404C96.0927 53.7044 95.7328 53.712 95.4048 53.8616C95.0769 54.0111 94.8078 54.2903 94.6567 54.6378C94.5056 54.9852 94.4849 55.3725 94.5992 55.7143C94.7135 56.0562 94.9534 56.3246 95.2661 56.4606C95.5652 56.5906 95.9075 56.5893 96.2237 56.4581L96.0705 56.8105L96.4448 56.9732L97.0011 55.694C97.0057 55.6838 97.0104 55.6734 97.0148 55.6631L96.0225 55.2319L95.8598 55.6062L96.2897 55.7931C96.2239 55.855 96.1507 55.9066 96.0722 55.9457C95.8752 56.0436 95.6614 56.0538 95.4777 55.9739C95.294 55.8941 95.1556 55.7307 95.0929 55.5198C95.0302 55.3089 95.0483 55.0678 95.1433 54.8494C95.2383 54.631 95.4023 54.4532 95.5993 54.3553C95.7963 54.2573 96.0102 54.2471 96.1938 54.327C96.3775 54.4068 96.5159 54.5702 96.5786 54.7811C96.5952 54.8368 96.6061 54.8947 96.6115 54.9537L97.1387 55.1829C97.1576 54.9799 97.1357 54.7762 97.0723 54.5866Z" fill="#1E9A1C"/>
<path fill-rule="evenodd" clip-rule="evenodd" d="M97.4022 57.4199L97.8771 57.6566L98.3506 56.7069L99.3703 57.2153C99.4788 57.6001 99.2591 58.0406 99.1373 58.2849L99.5756 58.5035C99.7177 58.2185 99.9928 57.6668 99.8468 57.3082C99.9184 57.3024 99.9897 57.288 100.059 57.2648C100.285 57.1892 100.471 57.027 100.578 56.8139C100.684 56.6008 100.701 56.3541 100.626 56.1283C100.55 55.9025 100.388 55.7159 100.175 55.6096L98.7136 54.8811L97.4022 57.4199ZM98.5874 56.232L99.5736 56.7238C99.6608 56.7672 99.7617 56.7743 99.8541 56.7434C99.9465 56.7125 100.023 56.6461 100.066 56.5589C100.11 56.4717 100.117 56.3708 100.086 56.2785C100.055 56.1861 99.9886 56.1097 99.9014 56.0663L98.9152 55.5745L98.5874 56.232Z" fill="#1E9A1C"/>
<path d="M100.636 59.0634L102.874 60.3297L103.136 59.8678L101.324 58.8428L101.686 58.2033L103.107 59.0073L103.348 58.581L101.927 57.777L102.208 57.2797L103.913 58.2444L104.175 57.7826L102.043 56.5767L100.636 59.0634Z" fill="#1E9A1C"/>
<path d="M105.151 61.1908C104.807 60.9715 104.652 60.703 104.805 60.462L104.263 60.1166C103.877 60.7179 104.469 61.3125 104.865 61.5647C105.33 61.8608 106.026 62.1351 106.426 61.5068C106.747 61.0028 106.259 60.5335 105.861 60.1516C105.587 59.8879 105.356 59.6658 105.465 59.5028C105.624 59.2533 105.84 59.3309 106.107 59.5008C106.382 59.6763 106.563 59.9244 106.399 60.1826L106.924 60.5171C107.311 59.9287 106.813 59.4182 106.503 59.2208L106.464 59.1954C106.128 58.9797 105.353 58.4812 104.892 59.1864C104.574 59.6739 105.025 60.1159 105.413 60.4968C105.706 60.7841 105.964 61.0366 105.829 61.2475C105.73 61.4022 105.496 61.4101 105.151 61.1908Z" fill="#1E9A1C"/>
<path d="M107.87 62.4888C107.704 62.7214 107.846 62.9977 108.178 63.2347C108.51 63.4718 108.745 63.4761 108.852 63.3268C108.997 63.1232 108.753 62.8576 108.476 62.5554C108.108 62.1547 107.681 61.6897 108.024 61.2195C108.521 60.5394 109.269 61.0778 109.593 61.3108L109.631 61.3382C109.93 61.5516 110.4 62.0874 109.983 62.6547L109.476 62.2932C109.654 62.044 109.487 61.7867 109.221 61.5971C108.963 61.4134 108.751 61.3246 108.579 61.5655C108.462 61.7225 108.681 61.9564 108.941 62.2341C109.318 62.6363 109.781 63.1306 109.434 63.6171C109.002 64.2235 108.321 63.9131 107.872 63.5932C107.49 63.3206 106.93 62.6958 107.347 62.1155L107.87 62.4888Z" fill="#1E9A1C"/>
<path fill-rule="evenodd" clip-rule="evenodd" d="M111.741 66.0147C111.385 66.0742 111.036 65.9884 110.769 65.7762C110.502 65.5639 110.34 65.2425 110.318 64.8828C110.296 64.523 110.416 64.1543 110.652 63.8578C110.888 63.5613 111.22 63.3612 111.576 63.3017C111.931 63.2421 112.281 63.3279 112.548 63.5402C112.814 63.7524 112.977 64.0738 112.999 64.4336C113.021 64.7933 112.9 65.162 112.664 65.4585C112.429 65.7551 112.096 65.9551 111.741 66.0147ZM111.681 65.4875C111.465 65.5311 111.256 65.4856 111.099 65.3609C110.943 65.2362 110.851 65.0426 110.845 64.8227C110.839 64.6028 110.919 64.3745 111.067 64.1881C111.216 64.0017 111.42 63.8725 111.636 63.8289C111.851 63.7852 112.061 63.8307 112.217 63.9554C112.374 64.0801 112.465 64.2737 112.471 64.4936C112.477 64.7136 112.397 64.9418 112.249 65.1282C112.101 65.3146 111.896 65.4438 111.681 65.4875Z" fill="#1E9A1C"/>
<path d="M61.6092 53.3266L61.2119 54.5494L61.8233 54.748" fill="white"/>
<path d="M61.6092 53.3266L62.0065 54.5494L61.3951 54.748" fill="white"/>
<path d="M62.832 54.215H61.5463V54.8578" fill="white"/>
<path d="M62.832 54.215L61.7918 54.9707L61.414 54.4506" fill="white"/>
<path d="M60.3864 54.215L61.4266 54.9707L61.8045 54.4506" fill="white"/>
<path d="M60.3864 54.215H61.6722V54.8578" fill="white"/>
<path d="M62.3649 55.6524L61.9676 54.4297L61.3562 54.6283" fill="white"/>
<path d="M62.3649 55.6524L61.3248 54.8967L61.7026 54.3766" fill="white"/>
<path d="M60.8535 55.6524L61.8937 54.8967L61.5158 54.3766" fill="white"/>
<path d="M60.8535 55.6524L61.2508 54.4297L61.8622 54.6283" fill="white"/>
<path d="M64.2623 65.9388L63.865 67.1616L64.4764 67.3603" fill="white"/>
<path d="M64.2623 65.9388L64.6596 67.1616L64.0482 67.3603" fill="white"/>
<path d="M65.4851 66.8272H64.1994V67.4701" fill="white"/>
<path d="M65.4851 66.8272L64.4449 67.5829L64.067 67.0629" fill="white"/>
<path d="M63.0395 66.8272L64.0797 67.5829L64.4575 67.0629" fill="white"/>
<path d="M63.0395 66.8272H64.3252V67.4701" fill="white"/>
<path d="M65.018 68.2647L64.6207 67.0419L64.0093 67.2406" fill="white"/>
<path d="M65.018 68.2647L63.9778 67.509L64.3557 66.9889" fill="white"/>
<path d="M63.5066 68.2647L64.5467 67.509L64.1689 66.9889" fill="white"/>
<path d="M63.5066 68.2647L63.9039 67.0419L64.5153 67.2406" fill="white"/>
<path d="M60.5888 68.847L60.2577 69.866L60.7672 70.0315" fill="white"/>
<path d="M60.5888 68.847L60.9199 69.866L60.4104 70.0315" fill="white"/>
<path d="M61.6078 69.5873H60.5364V70.123" fill="white"/>
<path d="M61.6078 69.5873L60.741 70.2171L60.4261 69.7837" fill="white"/>
<path d="M59.5698 69.5873L60.4366 70.2171L60.7515 69.7837" fill="white"/>
<path d="M59.5698 69.5873H60.6413V70.123" fill="white"/>
<path d="M61.2186 70.7852L60.8875 69.7662L60.378 69.9318" fill="white"/>
<path d="M61.2186 70.7852L60.3518 70.1554L60.6667 69.722" fill="white"/>
<path d="M59.959 70.7852L60.8258 70.1554L60.511 69.722" fill="white"/>
<path d="M59.959 70.7852L60.2901 69.7662L60.7996 69.9318" fill="white"/>
<path d="M67.2011 64.7756L67.0119 65.3578L67.303 65.4524" fill="white"/>
<path d="M67.2011 64.7756L67.3903 65.3578L67.0991 65.4524" fill="white"/>
<path d="M67.7833 65.1986H67.1711V65.5047" fill="white"/>
<path d="M67.7833 65.1986L67.288 65.5585L67.1081 65.3108" fill="white"/>
<path d="M66.6188 65.1986L67.1141 65.5585L67.294 65.3108" fill="white"/>
<path d="M66.6188 65.1986H67.231V65.5047" fill="white"/>
<path d="M67.5609 65.8831L67.3717 65.3008L67.0806 65.3954" fill="white"/>
<path d="M67.5609 65.8831L67.0656 65.5232L67.2455 65.2756" fill="white"/>
<path d="M66.8412 65.8831L67.3365 65.5232L67.1566 65.2756" fill="white"/>
<path d="M66.8412 65.8831L67.0304 65.3008L67.3215 65.3954" fill="white"/>
<path d="M70.5072 69.1327L70.1761 70.1517L70.6856 70.3172" fill="white"/>
<path d="M70.5072 69.1327L70.8383 70.1517L70.3288 70.3172" fill="white"/>
<path d="M71.5262 69.873H70.4547V70.4087" fill="white"/>
<path d="M71.5262 69.873L70.6594 70.5028L70.3445 70.0694" fill="white"/>
<path d="M69.4882 69.873L70.355 70.5028L70.6699 70.0694" fill="white"/>
<path d="M69.4882 69.873H70.5596V70.4087" fill="white"/>
<path d="M71.1369 71.0709L70.8059 70.0519L70.2964 70.2175" fill="white"/>
<path d="M71.1369 71.0709L70.2701 70.4412L70.585 70.0078" fill="white"/>
<path d="M69.8774 71.0709L70.7442 70.4412L70.4293 70.0078" fill="white"/>
<path d="M69.8774 71.0709L70.2085 70.0519L70.718 70.2175" fill="white"/>
<path d="M69.6092 72.3266L69.3443 73.1418L69.7519 73.2742" fill="white"/>
<path d="M69.6092 72.3266L69.8741 73.1418L69.4665 73.2742" fill="white"/>
<path d="M70.4244 72.9188H69.5673V73.3474" fill="white"/>
<path d="M70.4244 72.9188L69.731 73.4227L69.4791 73.0759" fill="white"/>
<path d="M68.794 72.9188L69.4875 73.4227L69.7394 73.0759" fill="white"/>
<path d="M68.794 72.9188H69.6512V73.3474" fill="white"/>
<path d="M70.113 73.8772L69.8482 73.062L69.4406 73.1944" fill="white"/>
<path d="M70.113 73.8772L69.4196 73.3733L69.6715 73.0266" fill="white"/>
<path d="M69.1054 73.8772L69.7988 73.3733L69.5469 73.0266" fill="white"/>
<path d="M69.1054 73.8772L69.3703 73.062L69.7779 73.1944" fill="white"/>
<path d="M95.4051 49.4082L95.0078 50.631L95.6192 50.8296" fill="white"/>
<path d="M95.4051 49.4082L95.8024 50.631L95.1911 50.8296" fill="white"/>
<path d="M96.6279 50.2966H95.3422V50.9395" fill="white"/>
<path d="M96.6279 50.2966L95.5878 51.0523L95.2099 50.5323" fill="white"/>
<path d="M94.1824 50.2966L95.2225 51.0523L95.6004 50.5323" fill="white"/>
<path d="M94.1824 50.2966H95.4681V50.9395" fill="white"/>
<path d="M96.1609 51.7341L95.7636 50.5113L95.1522 50.7099" fill="white"/>
<path d="M96.1609 51.7341L95.1207 50.9784L95.4986 50.4583" fill="white"/>
<path d="M94.6494 51.7341L95.6896 50.9784L95.3117 50.4583" fill="white"/>
<path d="M94.6494 51.7341L95.0467 50.5113L95.6581 50.7099" fill="white"/>
<path d="M107.119 69.2449L106.722 70.4677L107.334 70.6664" fill="white"/>
<path d="M107.119 69.2449L107.517 70.4677L106.905 70.6664" fill="white"/>
<path d="M108.342 70.1333H107.056V70.7762" fill="white"/>
<path d="M108.342 70.1333L107.302 70.8891L106.924 70.369" fill="white"/>
<path d="M105.897 70.1333L106.937 70.8891L107.315 70.369" fill="white"/>
<path d="M105.897 70.1333H107.182V70.7762" fill="white"/>
<path d="M107.875 71.5708L107.478 70.348L106.866 70.5467" fill="white"/>
<path d="M107.875 71.5708L106.835 70.8151L107.213 70.295" fill="white"/>
<path d="M106.364 71.5708L107.404 70.8151L107.026 70.295" fill="white"/>
<path d="M106.364 71.5708L106.761 70.348L107.372 70.5467" fill="white"/>
<path d="M111.283 69.9592L111.018 70.7744L111.425 70.9069" fill="white"/>
<path d="M111.283 69.9592L111.548 70.7744L111.14 70.9069" fill="white"/>
<path d="M112.098 70.5515H111.241V70.9801" fill="white"/>
<path d="M112.098 70.5515L111.404 71.0553L111.153 70.7086" fill="white"/>
<path d="M110.468 70.5515L111.161 71.0553L111.413 70.7086" fill="white"/>
<path d="M110.468 70.5515H111.325V70.9801" fill="white"/>
<path d="M111.787 71.5098L111.522 70.6946L111.114 70.8271" fill="white"/>
<path d="M111.787 71.5098L111.093 71.006L111.345 70.6593" fill="white"/>
<path d="M110.779 71.5098L111.472 71.006L111.22 70.6593" fill="white"/>
<path d="M110.779 71.5098L111.044 70.6946L111.451 70.8271" fill="white"/>
<path d="M108.344 72.1123L108.013 73.1313L108.522 73.2968" fill="white"/>
<path d="M108.344 72.1123L108.675 73.1313L108.166 73.2968" fill="white"/>
<path d="M109.363 72.8526H108.291V73.3883" fill="white"/>
<path d="M109.363 72.8526L108.496 73.4824L108.181 73.049" fill="white"/>
<path d="M107.325 72.8526L108.192 73.4824L108.507 73.049" fill="white"/>
<path d="M107.325 72.8526H108.396V73.3883" fill="white"/>
<path d="M108.974 74.0505L108.643 73.0315L108.133 73.1971" fill="white"/>
<path d="M108.974 74.0505L108.107 73.4207L108.422 72.9873" fill="white"/>
<path d="M107.714 74.0505L108.581 73.4207L108.266 72.9873" fill="white"/>
<path d="M107.714 74.0505L108.045 73.0315L108.555 73.1971" fill="white"/>
<path d="M101.119 78.398L100.788 79.417L101.298 79.5825" fill="white"/>
<path d="M101.119 78.398L101.451 79.417L100.941 79.5825" fill="white"/>
<path d="M102.138 79.1383H101.067V79.6741" fill="white"/>
<path d="M102.138 79.1383L101.272 79.7681L100.957 79.3347" fill="white"/>
<path d="M100.1 79.1383L100.967 79.7681L101.282 79.3347" fill="white"/>
<path d="M100.1 79.1383H101.172V79.6741" fill="white"/>
<path d="M101.749 80.3362L101.418 79.3172L100.909 79.4828" fill="white"/>
<path d="M101.749 80.3362L100.882 79.7065L101.197 79.2731" fill="white"/>
<path d="M100.49 80.3362L101.356 79.7065L101.042 79.2731" fill="white"/>
<path d="M100.49 80.3362L100.821 79.3172L101.33 79.4828" fill="white"/>
<path d="M101.079 81.6327L100.814 82.4479L101.221 82.5803" fill="white"/>
<path d="M101.079 81.6327L101.343 82.4479L100.936 82.5803" fill="white"/>
<path d="M101.894 82.225H101.037V82.6535" fill="white"/>
<path d="M101.894 82.225L101.2 82.7288L100.948 82.3821" fill="white"/>
<path d="M100.263 82.225L100.957 82.7288L101.209 82.3821" fill="white"/>
<path d="M100.263 82.225H101.121V82.6535" fill="white"/>
<path d="M101.582 83.1833L101.318 82.3681L100.91 82.5005" fill="white"/>
<path d="M101.582 83.1833L100.889 82.6795L101.141 82.3327" fill="white"/>
<path d="M100.575 83.1833L101.268 82.6795L101.016 82.3327" fill="white"/>
<path d="M100.575 83.1833L100.84 82.3681L101.247 82.5005" fill="white"/>
<path d="M104.099 76.2449L103.834 77.0601L104.242 77.1926" fill="white"/>
<path d="M104.099 76.2449L104.364 77.0601L103.956 77.1926" fill="white"/>
<path d="M104.914 76.8372H104.057V77.2658" fill="white"/>
<path d="M104.914 76.8372L104.221 77.341L103.969 76.9943" fill="white"/>
<path d="M103.284 76.8372L103.977 77.341L104.229 76.9943" fill="white"/>
<path d="M103.284 76.8372H104.141V77.2658" fill="white"/>
<path d="M104.603 77.7955L104.338 76.9803L103.93 77.1128" fill="white"/>
<path d="M104.603 77.7955L103.909 77.2917L104.161 76.945" fill="white"/>
<path d="M103.595 77.7955L104.289 77.2917L104.037 76.945" fill="white"/>
<path d="M103.595 77.7955L103.86 76.9803L104.268 77.1128" fill="white"/>
<path d="M106.507 74.5204L106.176 75.5394L106.686 75.705" fill="white"/>
<path d="M106.507 74.5204L106.838 75.5394L106.329 75.705" fill="white"/>
<path d="M107.526 75.2608H106.455V75.7965" fill="white"/>
<path d="M107.526 75.2608L106.659 75.8906L106.344 75.4572" fill="white"/>
<path d="M105.488 75.2608L106.355 75.8906L106.67 75.4572" fill="white"/>
<path d="M105.488 75.2608H106.56V75.7965" fill="white"/>
<path d="M107.137 76.4587L106.806 75.4397L106.296 75.6052" fill="white"/>
<path d="M107.137 76.4587L106.27 75.8289L106.585 75.3955" fill="white"/>
<path d="M105.877 76.4587L106.744 75.8289L106.429 75.3955" fill="white"/>
<path d="M105.877 76.4587L106.208 75.4397L106.718 75.6052" fill="white"/>
<path d="M100.997 75.6735L100.732 76.4887L101.14 76.6211" fill="white"/>
<path d="M100.997 75.6735L101.262 76.4887L100.854 76.6211" fill="white"/>
<path d="M101.812 76.2658H100.955V76.6944" fill="white"/>
<path d="M101.812 76.2658L101.119 76.7696L100.867 76.4229" fill="white"/>
<path d="M100.182 76.2658L100.875 76.7696L101.127 76.4229" fill="white"/>
<path d="M100.182 76.2658H101.039V76.6944" fill="white"/>
<path d="M101.501 77.2241L101.236 76.4089L100.828 76.5413" fill="white"/>
<path d="M101.501 77.2241L100.807 76.7203L101.059 76.3736" fill="white"/>
<path d="M100.493 77.2241L101.187 76.7203L100.935 76.3736" fill="white"/>
<path d="M100.493 77.2241L100.758 76.4089L101.166 76.5413" fill="white"/>
<path d="M74.6704 60.1531L74.3394 61.1721L74.8488 61.3376" fill="white"/>
<path d="M74.6704 60.1531L75.0015 61.1721L74.492 61.3376" fill="white"/>
<path d="M75.6894 60.8934H74.618V61.4292" fill="white"/>
<path d="M75.6894 60.8934L74.8226 61.5232L74.5077 61.0898" fill="white"/>
<path d="M73.6515 60.8934L74.5183 61.5232L74.8331 61.0898" fill="white"/>
<path d="M73.6515 60.8934H74.7229V61.4292" fill="white"/>
<path d="M75.3002 62.0913L74.9691 61.0723L74.4596 61.2379" fill="white"/>
<path d="M75.3002 62.0913L74.4334 61.4616L74.7483 61.0282" fill="white"/>
<path d="M74.0407 62.0913L74.9075 61.4616L74.5926 61.0282" fill="white"/>
<path d="M74.0407 62.0913L74.3718 61.0723L74.8813 61.2379" fill="white"/>
<path d="M94.2623 57.6327L93.9974 58.4479L94.405 58.5803" fill="white"/>
<path d="M94.2623 57.6327L94.5272 58.4479L94.1196 58.5803" fill="white"/>
<path d="M95.0775 58.225H94.2203V58.6535" fill="white"/>
<path d="M95.0775 58.225L94.384 58.7288L94.1321 58.3821" fill="white"/>
<path d="M93.4471 58.225L94.1405 58.7288L94.3924 58.3821" fill="white"/>
<path d="M93.4471 58.225H94.3042V58.6535" fill="white"/>
<path d="M94.7661 59.1833L94.5012 58.3681L94.0936 58.5005" fill="white"/>
<path d="M94.7661 59.1833L94.0727 58.6795L94.3246 58.3327" fill="white"/>
<path d="M93.7585 59.1833L94.4519 58.6795L94.2 58.3327" fill="white"/>
<path d="M93.7585 59.1833L94.0233 58.3681L94.4309 58.5005" fill="white"/>
<path d="M86.099 72.1837L85.7017 73.4065L86.3131 73.6052" fill="white"/>
<path d="M86.099 72.1837L86.4963 73.4065L85.8849 73.6052" fill="white"/>
<path d="M87.3218 73.0721H86.0361V73.715" fill="white"/>
<path d="M87.3218 73.0721L86.2816 73.8278L85.9038 73.3078" fill="white"/>
<path d="M84.8762 73.0721L85.9164 73.8278L86.2943 73.3078" fill="white"/>
<path d="M84.8762 73.0721H86.1619V73.715" fill="white"/>
<path d="M86.8547 74.5096L86.4574 73.2868L85.846 73.4855" fill="white"/>
<path d="M86.8547 74.5096L85.8146 73.7539L86.1924 73.2338" fill="white"/>
<path d="M85.3433 74.5096L86.3835 73.7539L86.0056 73.2338" fill="white"/>
<path d="M85.3433 74.5096L85.7406 73.2868L86.352 73.4855" fill="white"/>
<path d="M89.5684 66.4388L89.2373 67.4578L89.7468 67.6234" fill="white"/>
<path d="M89.5684 66.4388L89.8995 67.4578L89.39 67.6234" fill="white"/>
<path d="M90.5874 67.1792H89.516V67.7149" fill="white"/>
<path d="M90.5874 67.1792L89.7206 67.8089L89.4057 67.3755" fill="white"/>
<path d="M88.5494 67.1792L89.4162 67.8089L89.7311 67.3755" fill="white"/>
<path d="M88.5494 67.1792H89.6208V67.7149" fill="white"/>
<path d="M90.1982 68.3771L89.8671 67.3581L89.3576 67.5236" fill="white"/>
<path d="M90.1982 68.3771L89.3314 67.7473L89.6463 67.3139" fill="white"/>
<path d="M88.9386 68.3771L89.8054 67.7473L89.4906 67.3139" fill="white"/>
<path d="M88.9386 68.3771L89.2697 67.3581L89.7792 67.5236" fill="white"/>
<path d="M86.099 63.7449L85.7679 64.7639L86.2774 64.9295" fill="white"/>
<path d="M86.099 63.7449L86.4301 64.7639L85.9206 64.9295" fill="white"/>
<path d="M87.118 64.4853H86.0466V65.021" fill="white"/>
<path d="M87.118 64.4853L86.2512 65.115L85.9363 64.6816" fill="white"/>
<path d="M85.08 64.4853L85.9468 65.115L86.2617 64.6816" fill="white"/>
<path d="M85.08 64.4853H86.1515V65.021" fill="white"/>
<path d="M86.7288 65.6832L86.3977 64.6642L85.8882 64.8297" fill="white"/>
<path d="M86.7288 65.6832L85.862 65.0534L86.1769 64.62" fill="white"/>
<path d="M85.4692 65.6832L86.336 65.0534L86.0212 64.62" fill="white"/>
<path d="M85.4692 65.6832L85.8003 64.6642L86.3098 64.8297" fill="white"/>
<path d="M83.0786 66.6531L82.8137 67.4683L83.2213 67.6007" fill="white"/>
<path d="M83.0786 66.6531L83.3435 67.4683L82.9359 67.6007" fill="white"/>
<path d="M83.8938 67.2454H83.0367V67.6739" fill="white"/>
<path d="M83.8938 67.2454L83.2004 67.7492L82.9485 67.4025" fill="white"/>
<path d="M82.2634 67.2454L82.9569 67.7492L83.2088 67.4025" fill="white"/>
<path d="M82.2634 67.2454H83.1206V67.6739" fill="white"/>
<path d="M83.5824 68.2037L83.3176 67.3885L82.91 67.5209" fill="white"/>
<path d="M83.5824 68.2037L82.889 67.6999L83.1409 67.3531" fill="white"/>
<path d="M82.5748 68.2037L83.2682 67.6999L83.0163 67.3531" fill="white"/>
<path d="M82.5748 68.2037L82.8397 67.3885L83.2473 67.5209" fill="white"/>
<path d="M84.5888 68.9796L84.3996 69.5619L84.6908 69.6565" fill="white"/>
<path d="M84.5888 68.9796L84.778 69.5619L84.4869 69.6565" fill="white"/>
<path d="M85.1711 69.4027H84.5588V69.7088" fill="white"/>
<path d="M85.1711 69.4027L84.6758 69.7626L84.4958 69.5149" fill="white"/>
<path d="M84.0065 69.4027L84.5019 69.7626L84.6818 69.5149" fill="white"/>
<path d="M84.0065 69.4027H84.6188V69.7088" fill="white"/>
<path d="M84.9487 70.0872L84.7595 69.5049L84.4683 69.5995" fill="white"/>
<path d="M84.9487 70.0872L84.4534 69.7273L84.6333 69.4797" fill="white"/>
<path d="M84.2289 70.0872L84.7243 69.7273L84.5443 69.4797" fill="white"/>
<path d="M84.2289 70.0872L84.4181 69.5049L84.7093 69.5995" fill="white"/>
<path d="M95.0786 79.1327L94.7475 80.1517L95.257 80.3172" fill="white"/>
<path d="M95.0786 79.1327L95.4097 80.1517L94.9002 80.3172" fill="white"/>
<path d="M96.0976 79.873H95.0262V80.4087" fill="white"/>
<path d="M96.0976 79.873L95.2308 80.5028L94.9159 80.0694" fill="white"/>
<path d="M94.0596 79.873L94.9264 80.5028L95.2413 80.0694" fill="white"/>
<path d="M94.0596 79.873H95.131V80.4087" fill="white"/>
<path d="M95.7084 81.0709L95.3773 80.0519L94.8678 80.2175" fill="white"/>
<path d="M95.7084 81.0709L94.8416 80.4412L95.1565 80.0078" fill="white"/>
<path d="M94.4488 81.0709L95.3156 80.4412L95.0008 80.0078" fill="white"/>
<path d="M94.4488 81.0709L94.7799 80.0519L95.2894 80.2175" fill="white"/>
<path d="M97.65 76.6939L97.3852 77.5091L97.7928 77.6415" fill="white"/>
<path d="M97.65 76.6939L97.9149 77.5091L97.5073 77.6415" fill="white"/>
<path d="M98.4652 77.2862H97.6081V77.7148" fill="white"/>
<path d="M98.4652 77.2862L97.7718 77.79L97.5199 77.4433" fill="white"/>
<path d="M96.8348 77.2862L97.5283 77.79L97.7802 77.4433" fill="white"/>
<path d="M96.8348 77.2862H97.692V77.7148" fill="white"/>
<path d="M98.1539 78.2445L97.889 77.4293L97.4814 77.5617" fill="white"/>
<path d="M98.1539 78.2445L97.4604 77.7407L97.7123 77.394" fill="white"/>
<path d="M97.1462 78.2445L97.8397 77.7407L97.5878 77.394" fill="white"/>
<path d="M97.1462 78.2445L97.4111 77.4293L97.8187 77.5617" fill="white"/>
<path d="M92.7113 75.9592L92.4464 76.7744L92.854 76.9069" fill="white"/>
<path d="M92.7113 75.9592L92.9761 76.7744L92.5685 76.9069" fill="white"/>
<path d="M93.5265 76.5515H92.6693V76.9801" fill="white"/>
<path d="M93.5265 76.5515L92.833 77.0553L92.5811 76.7086" fill="white"/>
<path d="M91.8961 76.5515L92.5895 77.0553L92.8414 76.7086" fill="white"/>
<path d="M91.8961 76.5515H92.7532V76.9801" fill="white"/>
<path d="M93.2151 77.5098L92.9502 76.6946L92.5426 76.8271" fill="white"/>
<path d="M93.2151 77.5098L92.5216 77.006L92.7735 76.6593" fill="white"/>
<path d="M92.2074 77.5098L92.9009 77.006L92.649 76.6593" fill="white"/>
<path d="M92.2074 77.5098L92.4723 76.6946L92.8799 76.8271" fill="white"/>
<path d="M74.0582 74.6327L73.6609 75.8555L74.2723 76.0541" fill="white"/>
<path d="M74.0582 74.6327L74.4555 75.8555L73.8441 76.0541" fill="white"/>
<path d="M75.281 75.5211H73.9953V76.164" fill="white"/>
<path d="M75.281 75.5211L74.2408 76.2768L73.863 75.7567" fill="white"/>
<path d="M72.8354 75.5211L73.8756 76.2768L74.2534 75.7567" fill="white"/>
<path d="M72.8354 75.5211H74.1211V76.164" fill="white"/>
<path d="M74.8139 76.9586L74.4166 75.7358L73.8052 75.9344" fill="white"/>
<path d="M74.8139 76.9586L73.7738 76.2028L74.1516 75.6828" fill="white"/>
<path d="M73.3025 76.9586L74.3426 76.2028L73.9648 75.6828" fill="white"/>
<path d="M73.3025 76.9586L73.6998 75.7358L74.3112 75.9344" fill="white"/>
<path d="M86.099 83.0409L85.9666 83.4485L86.1704 83.5147" fill="white"/>
<path d="M86.099 83.0409L86.2315 83.4485L86.0277 83.5147" fill="white"/>
<path d="M86.5066 83.337H86.078V83.5513" fill="white"/>
<path d="M86.5066 83.337L86.1599 83.5889L86.0339 83.4155" fill="white"/>
<path d="M85.6914 83.337L86.0381 83.5889L86.1641 83.4155" fill="white"/>
<path d="M85.6914 83.337H86.12V83.5513" fill="white"/>
<path d="M86.3509 83.8162L86.2185 83.4086L86.0147 83.4748" fill="white"/>
<path d="M86.3509 83.8162L86.0042 83.5642L86.1302 83.3909" fill="white"/>
<path d="M85.8471 83.8162L86.1938 83.5642L86.0679 83.3909" fill="white"/>
<path d="M85.8471 83.8162L85.9795 83.4086L86.1833 83.4748" fill="white"/>
</g>
<defs>
<clipPath id="clip0_909_237142">
<rect width="171.43" height="120" fill="white"/>
</clipPath>
</defs>
</svg>
