<svg width="172" height="120" viewBox="0 0 172 120" fill="none" xmlns="http://www.w3.org/2000/svg">
<g clip-path="url(#clip0_909_237142)">
<path d="M0.00012207 0H171.429V120H0.00012207V0Z" fill="#1E9A1C"/>
<path d="M14.5698 59.9999L85.7127 105.428L156.856 59.9999L85.7127 14.5713L14.5698 59.9999Z" fill="#FDD406"/>
<path d="M85.7151 90C102.284 90 115.715 76.5685 115.715 60C115.715 43.4315 102.284 30 85.7151 30C69.1465 30 55.7151 43.4315 55.7151 60C55.7151 76.5685 69.1465 90 85.7151 90Z" fill="#0F3296"/>
<path d="M56.6682 52.4692C60.5723 51.781 64.5542 51.4283 68.5724 51.4283C85.5142 51.4283 101.81 57.6979 114.357 68.9522C114.836 67.4186 115.195 65.832 115.423 64.2036C102.351 53.2268 85.7755 47.1426 68.5724 47.1426C65.1037 47.1426 61.6605 47.3899 58.2664 47.8749C57.6148 49.3478 57.0782 50.8831 56.6682 52.4692Z" fill="white"/>
<path d="M68.916 50.7114L71.4859 50.8011L71.5044 50.2708L69.424 50.1982L69.4496 49.4639L71.0813 49.5209L71.0984 49.0314L69.4667 48.9744L69.4867 48.4033L71.4447 48.4717L71.4632 47.9414L69.0157 47.856L68.916 50.7114Z" fill="#1E9A1C"/>
<path fill-rule="evenodd" clip-rule="evenodd" d="M66.635 50.7235L65.2882 50.747L65.2384 47.8903L66.5851 47.8668C66.7459 47.864 66.9056 47.8929 67.0552 47.9518C67.2049 48.0107 67.3414 48.0986 67.4571 48.2103C67.5727 48.322 67.6653 48.4554 67.7294 48.6028C67.7935 48.7503 67.828 48.9089 67.8308 49.0697L67.8379 49.4778C67.8407 49.6386 67.8118 49.7984 67.7529 49.948C67.6939 50.0976 67.6061 50.2341 67.4944 50.3498C67.3827 50.4655 67.2493 50.558 67.1019 50.6221C66.9544 50.6862 66.7957 50.7207 66.635 50.7235ZM66.5849 50.1937L65.8095 50.2072L65.7782 48.4116L66.5535 48.398C66.7592 48.3944 66.9578 48.4727 67.1058 48.6156C67.2537 48.7584 67.3389 48.9542 67.3425 49.1599L67.3467 49.4047C67.3503 49.6104 67.2721 49.809 67.1292 49.957C66.9863 50.1049 66.7905 50.1901 66.5849 50.1937Z" fill="#1E9A1C"/>
<path fill-rule="evenodd" clip-rule="evenodd" d="M62.1965 50.9355L61.6672 50.9725L61.5086 48.1195L63.1372 48.0056C63.3748 47.989 63.6093 48.0674 63.789 48.2237C63.9687 48.3799 64.079 48.6011 64.0957 48.8387C64.1123 49.0763 64.0338 49.3107 63.8776 49.4905C63.8296 49.5456 63.7756 49.5942 63.7168 49.6356C64.0246 49.8704 64.0676 50.4854 64.0898 50.8031L63.6012 50.8373C63.5822 50.5649 63.5478 50.0739 63.259 49.7974L62.1225 49.8768L62.1965 50.9355ZM63.1848 49.2707L62.0854 49.3475L62.0342 48.6146L63.1335 48.5377C63.2307 48.5309 63.3266 48.563 63.4002 48.627C63.4737 48.6909 63.5188 48.7814 63.5256 48.8786C63.5324 48.9758 63.5003 49.0717 63.4364 49.1452C63.3725 49.2187 63.282 49.2639 63.1848 49.2707Z" fill="#1E9A1C"/>
<path fill-rule="evenodd" clip-rule="evenodd" d="M60.1906 50.7044C59.984 50.9997 59.6777 51.1889 59.3393 51.2305C59.0008 51.272 58.6579 51.1625 58.3859 50.926C58.1139 50.6894 57.9352 50.3453 57.889 49.9692C57.8428 49.5932 57.933 49.216 58.1397 48.9207C58.3464 48.6254 58.6526 48.4362 58.9911 48.3946C59.3295 48.3531 59.6724 48.4626 59.9444 48.6991C60.2164 48.9356 60.3951 49.2798 60.4413 49.6558C60.4875 50.0319 60.3973 50.4091 60.1906 50.7044ZM59.7725 50.3777C59.6525 50.5621 59.4734 50.6794 59.2746 50.7038C59.0758 50.7282 58.8737 50.6577 58.7126 50.5078C58.5515 50.3579 58.4447 50.1409 58.4157 49.9046C58.3867 49.6682 58.4378 49.4318 58.5578 49.2474C58.6778 49.063 58.8569 48.9457 59.0557 48.9213C59.2545 48.8969 59.4567 48.9674 59.6177 49.1172C59.7788 49.2671 59.8856 49.4841 59.9146 49.7205C59.9437 49.9569 59.8925 50.1933 59.7725 50.3777Z" fill="#1E9A1C"/>
<path d="M73.029 50.9083L72.5411 50.8656L72.7901 48.0193L73.5017 48.0816L73.9002 50.0831L74.6402 48.1812L75.3518 48.2435L75.1027 51.0897L74.6148 51.047L74.7856 49.0953L74.0456 50.9972L73.5983 50.9581L73.1998 48.9566L73.029 50.9083Z" fill="#1E9A1C"/>
<path d="M78.4611 51.5333L80.573 51.8962L80.6559 51.4135L79.0268 51.1336L79.1374 50.4899L80.4648 50.718L80.5478 50.2353L79.2203 50.0072L79.2963 49.5647L80.8752 49.836L80.9582 49.3533L78.8966 48.9991L78.4611 51.5333Z" fill="#1E9A1C"/>
<path fill-rule="evenodd" clip-rule="evenodd" d="M84.4 52.7319L83.8863 52.599L84.6412 49.8431L86.2218 50.2519C86.4524 50.3115 86.6498 50.4603 86.7707 50.6655C86.8916 50.8707 86.926 51.1155 86.8663 51.3461C86.8067 51.5766 86.6579 51.7741 86.4527 51.895C86.2475 52.0158 86.0027 52.0502 85.7721 51.9906L84.6657 51.7045L84.4 52.7319ZM85.8655 51.4667L84.7985 51.1907L84.9825 50.4795L86.0494 50.7554C86.1438 50.7798 86.2245 50.8406 86.274 50.9246C86.3234 51.0085 86.3375 51.1087 86.3131 51.203C86.2887 51.2973 86.2279 51.3781 86.1439 51.4275C86.06 51.477 85.9598 51.4911 85.8655 51.4667Z" fill="#1E9A1C"/>
<path fill-rule="evenodd" clip-rule="evenodd" d="M87.3919 53.5341L87.898 53.6937L88.2171 52.6816L89.3037 53.0242C89.4711 53.3873 89.323 53.8567 89.2409 54.1171L89.7081 54.2644C89.8038 53.9607 89.9892 53.3728 89.7889 53.0415C89.8587 53.0245 89.9269 52.9991 89.9917 52.9654C90.2029 52.8554 90.3618 52.666 90.4334 52.4389C90.5051 52.2117 90.4835 51.9655 90.3736 51.7542C90.2636 51.543 90.0742 51.3841 89.8471 51.3125L88.29 50.8215L87.3919 53.5341ZM88.3766 52.1755L89.4277 52.5069C89.5206 52.5362 89.6213 52.5274 89.7077 52.4824C89.7942 52.4374 89.8592 52.36 89.8885 52.267C89.9178 52.1741 89.909 52.0734 89.864 51.987C89.819 51.9005 89.7415 51.8355 89.6486 51.8062L88.5976 51.4748L88.3766 52.1755Z" fill="#1E9A1C"/>
<path fill-rule="evenodd" clip-rule="evenodd" d="M92.0475 55.1017C92.3669 55.2211 92.726 55.1947 93.0456 55.0282C93.3653 54.8617 93.6194 54.5688 93.7521 54.2139C93.8848 53.859 93.8852 53.4712 93.7532 53.1358C93.6211 52.8004 93.3675 52.5449 93.0481 52.4255C92.7287 52.3061 92.3697 52.3326 92.05 52.4991C91.7304 52.6656 91.4762 52.9585 91.3435 53.3134C91.2108 53.6682 91.2105 54.056 91.3425 54.3914C91.4745 54.7268 91.7281 54.9823 92.0475 55.1017ZM92.2334 54.6047C92.4209 54.6748 92.634 54.6535 92.8256 54.5454C93.0172 54.4372 93.1717 54.2511 93.2551 54.0281C93.3385 53.805 93.344 53.5632 93.2703 53.3559C93.1967 53.1485 93.0499 52.9927 92.8623 52.9225C92.6747 52.8524 92.4617 52.8737 92.2701 52.9819C92.0784 53.09 91.9239 53.2761 91.8405 53.4992C91.7571 53.7222 91.7517 53.964 91.8253 54.1714C91.899 54.3787 92.0458 54.5346 92.2334 54.6047Z" fill="#1E9A1C"/>
<path d="M97.2176 54.5866C97.1033 54.2448 96.8634 53.9763 96.5507 53.8404C96.238 53.7044 95.878 53.712 95.5501 53.8616C95.2221 54.0111 94.953 54.2903 94.802 54.6378C94.6509 54.9852 94.6302 55.3725 94.7445 55.7143C94.8588 56.0562 95.0987 56.3246 95.4114 56.4606C95.7105 56.5906 96.0528 56.5893 96.369 56.4581L96.2158 56.8105L96.5901 56.9732L97.1463 55.694C97.151 55.6838 97.1556 55.6734 97.1601 55.6631L96.1678 55.2319L96.005 55.6062L96.4349 55.7931C96.3692 55.855 96.296 55.9066 96.2175 55.9457C96.0205 56.0436 95.8066 56.0538 95.623 55.9739C95.4393 55.8941 95.3009 55.7307 95.2382 55.5198C95.1755 55.3089 95.1936 55.0678 95.2886 54.8494C95.3835 54.631 95.5476 54.4532 95.7446 54.3553C95.9416 54.2573 96.1554 54.2471 96.3391 54.327C96.5227 54.4068 96.6612 54.5702 96.7239 54.7811C96.7404 54.8368 96.7514 54.8947 96.7567 54.9537L97.2839 55.1829C97.3028 54.9799 97.281 54.7762 97.2176 54.5866Z" fill="#1E9A1C"/>
<path fill-rule="evenodd" clip-rule="evenodd" d="M97.5475 57.4199L98.0224 57.6566L98.4959 56.7069L99.5155 57.2153C99.624 57.6001 99.4044 58.0406 99.2826 58.2849L99.7209 58.5035C99.863 58.2185 100.138 57.6668 99.992 57.3082C100.064 57.3024 100.135 57.288 100.204 57.2648C100.43 57.1892 100.617 57.027 100.723 56.8139C100.829 56.6008 100.846 56.3541 100.771 56.1283C100.695 55.9025 100.533 55.7159 100.32 55.6096L98.8589 54.8811L97.5475 57.4199ZM98.7326 56.232L99.7189 56.7238C99.8061 56.7672 99.907 56.7743 99.9994 56.7434C100.092 56.7125 100.168 56.6461 100.212 56.5589C100.255 56.4717 100.262 56.3708 100.231 56.2785C100.2 56.1861 100.134 56.1097 100.047 56.0663L99.0605 55.5745L98.7326 56.232Z" fill="#1E9A1C"/>
<path d="M100.782 59.0634L103.02 60.3297L103.281 59.8678L101.469 58.8428L101.831 58.2033L103.252 59.0073L103.493 58.581L102.072 57.777L102.354 57.2797L104.059 58.2444L104.32 57.7826L102.189 56.5767L100.782 59.0634Z" fill="#1E9A1C"/>
<path d="M105.297 61.1908C104.952 60.9715 104.797 60.703 104.95 60.462L104.408 60.1166C104.023 60.7179 104.614 61.3125 105.01 61.5647C105.475 61.8608 106.171 62.1351 106.571 61.5068C106.893 61.0028 106.404 60.5335 106.007 60.1516C105.732 59.8879 105.501 59.6658 105.61 59.5028C105.769 59.2533 105.986 59.3309 106.252 59.5008C106.528 59.6763 106.708 59.9244 106.544 60.1826L107.069 60.5171C107.456 59.9287 106.958 59.4182 106.648 59.2208L106.609 59.1954C106.273 58.9797 105.498 58.4812 105.037 59.1864C104.72 59.6739 105.17 60.1159 105.559 60.4968C105.851 60.7841 106.109 61.0366 105.974 61.2475C105.875 61.4022 105.641 61.4101 105.297 61.1908Z" fill="#1E9A1C"/>
<path d="M108.015 62.4888C107.85 62.7214 107.991 62.9977 108.323 63.2347C108.655 63.4718 108.89 63.4761 108.997 63.3268C109.142 63.1232 108.898 62.8576 108.621 62.5554C108.253 62.1547 107.826 61.6897 108.169 61.2195C108.666 60.5394 109.414 61.0778 109.738 61.3108L109.776 61.3382C110.075 61.5516 110.545 62.0874 110.128 62.6547L109.621 62.2932C109.799 62.044 109.632 61.7867 109.366 61.5971C109.108 61.4134 108.896 61.3246 108.724 61.5655C108.607 61.7225 108.826 61.9564 109.086 62.2341C109.463 62.6363 109.927 63.1306 109.58 63.6171C109.147 64.2235 108.466 63.9131 108.017 63.5932C107.635 63.3206 107.076 62.6958 107.492 62.1155L108.015 62.4888Z" fill="#1E9A1C"/>
<path fill-rule="evenodd" clip-rule="evenodd" d="M111.886 66.0147C111.531 66.0742 111.181 65.9884 110.914 65.7762C110.647 65.5639 110.485 65.2425 110.463 64.8828C110.441 64.523 110.561 64.1543 110.797 63.8578C111.033 63.5613 111.365 63.3612 111.721 63.3017C112.076 63.2421 112.426 63.3279 112.693 63.5402C112.96 63.7524 113.122 64.0738 113.144 64.4336C113.166 64.7933 113.046 65.162 112.81 65.4585C112.574 65.7551 112.242 65.9551 111.886 66.0147ZM111.826 65.4875C111.61 65.5311 111.401 65.4856 111.245 65.3609C111.088 65.2362 110.996 65.0426 110.99 64.8227C110.984 64.6028 111.064 64.3745 111.213 64.1881C111.361 64.0017 111.565 63.8725 111.781 63.8289C111.997 63.7852 112.206 63.8307 112.362 63.9554C112.519 64.0801 112.611 64.2737 112.617 64.4936C112.623 64.7136 112.543 64.9418 112.394 65.1282C112.246 65.3146 112.042 65.4438 111.826 65.4875Z" fill="#1E9A1C"/>
<path d="M61.7545 53.3266L61.3572 54.5494L61.9686 54.748" fill="white"/>
<path d="M61.7545 53.3266L62.1518 54.5494L61.5404 54.748" fill="white"/>
<path d="M62.9773 54.215H61.6916V54.8578" fill="white"/>
<path d="M62.9773 54.215L61.9371 54.9707L61.5592 54.4506" fill="white"/>
<path d="M60.5317 54.215L61.5719 54.9707L61.9497 54.4506" fill="white"/>
<path d="M60.5317 54.215H61.8174V54.8578" fill="white"/>
<path d="M62.5102 55.6524L62.1129 54.4297L61.5015 54.6283" fill="white"/>
<path d="M62.5102 55.6524L61.47 54.8967L61.8479 54.3766" fill="white"/>
<path d="M60.9988 55.6524L62.0389 54.8967L61.6611 54.3766" fill="white"/>
<path d="M60.9988 55.6524L61.3961 54.4297L62.0075 54.6283" fill="white"/>
<path d="M64.4075 65.9388L64.0102 67.1616L64.6216 67.3603" fill="white"/>
<path d="M64.4075 65.9388L64.8049 67.1616L64.1935 67.3603" fill="white"/>
<path d="M65.6303 66.8272H64.3446V67.4701" fill="white"/>
<path d="M65.6303 66.8272L64.5902 67.5829L64.2123 67.0629" fill="white"/>
<path d="M63.1848 66.8272L64.2249 67.5829L64.6028 67.0629" fill="white"/>
<path d="M63.1848 66.8272H64.4705V67.4701" fill="white"/>
<path d="M65.1633 68.2647L64.766 67.0419L64.1546 67.2406" fill="white"/>
<path d="M65.1633 68.2647L64.1231 67.509L64.501 66.9889" fill="white"/>
<path d="M63.6518 68.2647L64.692 67.509L64.3141 66.9889" fill="white"/>
<path d="M63.6518 68.2647L64.0491 67.0419L64.6605 67.2406" fill="white"/>
<path d="M60.7341 68.847L60.403 69.866L60.9125 70.0315" fill="white"/>
<path d="M60.7341 68.847L61.0652 69.866L60.5557 70.0315" fill="white"/>
<path d="M61.7531 69.5873H60.6816V70.123" fill="white"/>
<path d="M61.7531 69.5873L60.8863 70.2171L60.5714 69.7837" fill="white"/>
<path d="M59.7151 69.5873L60.5819 70.2171L60.8968 69.7837" fill="white"/>
<path d="M59.7151 69.5873H60.7865V70.123" fill="white"/>
<path d="M61.3638 70.7852L61.0328 69.7662L60.5233 69.9318" fill="white"/>
<path d="M61.3638 70.7852L60.497 70.1554L60.8119 69.722" fill="white"/>
<path d="M60.1043 70.7852L60.9711 70.1554L60.6562 69.722" fill="white"/>
<path d="M60.1043 70.7852L60.4354 69.7662L60.9449 69.9318" fill="white"/>
<path d="M67.3463 64.7756L67.1571 65.3578L67.4483 65.4524" fill="white"/>
<path d="M67.3463 64.7756L67.5355 65.3578L67.2444 65.4524" fill="white"/>
<path d="M67.9286 65.1986H67.3164V65.5047" fill="white"/>
<path d="M67.9286 65.1986L67.4333 65.5585L67.2533 65.3108" fill="white"/>
<path d="M66.764 65.1986L67.2594 65.5585L67.4393 65.3108" fill="white"/>
<path d="M66.764 65.1986H67.3763V65.5047" fill="white"/>
<path d="M67.7062 65.8831L67.517 65.3008L67.2259 65.3954" fill="white"/>
<path d="M67.7062 65.8831L67.2109 65.5232L67.3908 65.2756" fill="white"/>
<path d="M66.9865 65.8831L67.4818 65.5232L67.3018 65.2756" fill="white"/>
<path d="M66.9865 65.8831L67.1756 65.3008L67.4668 65.3954" fill="white"/>
<path d="M70.6524 69.1327L70.3213 70.1517L70.8308 70.3172" fill="white"/>
<path d="M70.6524 69.1327L70.9835 70.1517L70.474 70.3172" fill="white"/>
<path d="M71.6714 69.873H70.6V70.4087" fill="white"/>
<path d="M71.6714 69.873L70.8046 70.5028L70.4897 70.0694" fill="white"/>
<path d="M69.6334 69.873L70.5003 70.5028L70.8151 70.0694" fill="white"/>
<path d="M69.6334 69.873H70.7049V70.4087" fill="white"/>
<path d="M71.2822 71.0709L70.9511 70.0519L70.4416 70.2175" fill="white"/>
<path d="M71.2822 71.0709L70.4154 70.4412L70.7303 70.0078" fill="white"/>
<path d="M70.0227 71.0709L70.8895 70.4412L70.5746 70.0078" fill="white"/>
<path d="M70.0227 71.0709L70.3538 70.0519L70.8633 70.2175" fill="white"/>
<path d="M69.7545 72.3266L69.4896 73.1418L69.8972 73.2742" fill="white"/>
<path d="M69.7545 72.3266L70.0194 73.1418L69.6118 73.2742" fill="white"/>
<path d="M70.5697 72.9188H69.7125V73.3474" fill="white"/>
<path d="M70.5697 72.9188L69.8762 73.4227L69.6243 73.0759" fill="white"/>
<path d="M68.9393 72.9188L69.6327 73.4227L69.8846 73.0759" fill="white"/>
<path d="M68.9393 72.9188H69.7964V73.3474" fill="white"/>
<path d="M70.2583 73.8772L69.9934 73.062L69.5858 73.1944" fill="white"/>
<path d="M70.2583 73.8772L69.5649 73.3733L69.8168 73.0266" fill="white"/>
<path d="M69.2507 73.8772L69.9441 73.3733L69.6922 73.0266" fill="white"/>
<path d="M69.2507 73.8772L69.5155 73.062L69.9231 73.1944" fill="white"/>
<path d="M95.5504 49.4082L95.1531 50.631L95.7645 50.8296" fill="white"/>
<path d="M95.5504 49.4082L95.9477 50.631L95.3363 50.8296" fill="white"/>
<path d="M96.7732 50.2966H95.4875V50.9395" fill="white"/>
<path d="M96.7732 50.2966L95.733 51.0523L95.3552 50.5323" fill="white"/>
<path d="M94.3276 50.2966L95.3678 51.0523L95.7456 50.5323" fill="white"/>
<path d="M94.3276 50.2966H95.6133V50.9395" fill="white"/>
<path d="M96.3061 51.7341L95.9088 50.5113L95.2974 50.7099" fill="white"/>
<path d="M96.3061 51.7341L95.266 50.9784L95.6438 50.4583" fill="white"/>
<path d="M94.7947 51.7341L95.8348 50.9784L95.457 50.4583" fill="white"/>
<path d="M94.7947 51.7341L95.192 50.5113L95.8034 50.7099" fill="white"/>
<path d="M107.265 69.2449L106.867 70.4677L107.479 70.6664" fill="white"/>
<path d="M107.265 69.2449L107.662 70.4677L107.051 70.6664" fill="white"/>
<path d="M108.487 70.1333H107.202V70.7762" fill="white"/>
<path d="M108.487 70.1333L107.447 70.8891L107.069 70.369" fill="white"/>
<path d="M106.042 70.1333L107.082 70.8891L107.46 70.369" fill="white"/>
<path d="M106.042 70.1333H107.328V70.7762" fill="white"/>
<path d="M108.02 71.5708L107.623 70.348L107.012 70.5467" fill="white"/>
<path d="M108.02 71.5708L106.98 70.8151L107.358 70.295" fill="white"/>
<path d="M106.509 71.5708L107.549 70.8151L107.171 70.295" fill="white"/>
<path d="M106.509 71.5708L106.906 70.348L107.518 70.5467" fill="white"/>
<path d="M111.428 69.9592L111.163 70.7744L111.571 70.9069" fill="white"/>
<path d="M111.428 69.9592L111.693 70.7744L111.285 70.9069" fill="white"/>
<path d="M112.243 70.5515H111.386V70.9801" fill="white"/>
<path d="M112.243 70.5515L111.55 71.0553L111.298 70.7086" fill="white"/>
<path d="M110.613 70.5515L111.306 71.0553L111.558 70.7086" fill="white"/>
<path d="M110.613 70.5515H111.47V70.9801" fill="white"/>
<path d="M111.932 71.5098L111.667 70.6946L111.259 70.8271" fill="white"/>
<path d="M111.932 71.5098L111.238 71.006L111.49 70.6593" fill="white"/>
<path d="M110.924 71.5098L111.618 71.006L111.366 70.6593" fill="white"/>
<path d="M110.924 71.5098L111.189 70.6946L111.597 70.8271" fill="white"/>
<path d="M108.489 72.1123L108.158 73.1313L108.668 73.2968" fill="white"/>
<path d="M108.489 72.1123L108.82 73.1313L108.311 73.2968" fill="white"/>
<path d="M109.508 72.8526H108.437V73.3883" fill="white"/>
<path d="M109.508 72.8526L108.641 73.4824L108.326 73.049" fill="white"/>
<path d="M107.47 72.8526L108.337 73.4824L108.652 73.049" fill="white"/>
<path d="M107.47 72.8526H108.542V73.3883" fill="white"/>
<path d="M109.119 74.0505L108.788 73.0315L108.278 73.1971" fill="white"/>
<path d="M109.119 74.0505L108.252 73.4207L108.567 72.9873" fill="white"/>
<path d="M107.859 74.0505L108.726 73.4207L108.411 72.9873" fill="white"/>
<path d="M107.859 74.0505L108.191 73.0315L108.7 73.1971" fill="white"/>
<path d="M101.265 78.398L100.934 79.417L101.443 79.5825" fill="white"/>
<path d="M101.265 78.398L101.596 79.417L101.086 79.5825" fill="white"/>
<path d="M102.284 79.1383H101.212V79.6741" fill="white"/>
<path d="M102.284 79.1383L101.417 79.7681L101.102 79.3347" fill="white"/>
<path d="M100.246 79.1383L101.113 79.7681L101.427 79.3347" fill="white"/>
<path d="M100.246 79.1383H101.317V79.6741" fill="white"/>
<path d="M101.894 80.3362L101.563 79.3172L101.054 79.4828" fill="white"/>
<path d="M101.894 80.3362L101.028 79.7065L101.343 79.2731" fill="white"/>
<path d="M100.635 80.3362L101.502 79.7065L101.187 79.2731" fill="white"/>
<path d="M100.635 80.3362L100.966 79.3172L101.476 79.4828" fill="white"/>
<path d="M101.224 81.6327L100.959 82.4479L101.367 82.5803" fill="white"/>
<path d="M101.224 81.6327L101.489 82.4479L101.081 82.5803" fill="white"/>
<path d="M102.039 82.225H101.182V82.6535" fill="white"/>
<path d="M102.039 82.225L101.346 82.7288L101.094 82.3821" fill="white"/>
<path d="M100.409 82.225L101.102 82.7288L101.354 82.3821" fill="white"/>
<path d="M100.409 82.225H101.266V82.6535" fill="white"/>
<path d="M101.728 83.1833L101.463 82.3681L101.055 82.5005" fill="white"/>
<path d="M101.728 83.1833L101.034 82.6795L101.286 82.3327" fill="white"/>
<path d="M100.72 83.1833L101.414 82.6795L101.162 82.3327" fill="white"/>
<path d="M100.72 83.1833L100.985 82.3681L101.393 82.5005" fill="white"/>
<path d="M104.244 76.2449L103.979 77.0601L104.387 77.1926" fill="white"/>
<path d="M104.244 76.2449L104.509 77.0601L104.102 77.1926" fill="white"/>
<path d="M105.059 76.8372H104.202V77.2658" fill="white"/>
<path d="M105.059 76.8372L104.366 77.341L104.114 76.9943" fill="white"/>
<path d="M103.429 76.8372L104.123 77.341L104.374 76.9943" fill="white"/>
<path d="M103.429 76.8372H104.286V77.2658" fill="white"/>
<path d="M104.748 77.7955L104.483 76.9803L104.076 77.1128" fill="white"/>
<path d="M104.748 77.7955L104.055 77.2917L104.307 76.945" fill="white"/>
<path d="M103.74 77.7955L104.434 77.2917L104.182 76.945" fill="white"/>
<path d="M103.74 77.7955L104.005 76.9803L104.413 77.1128" fill="white"/>
<path d="M106.652 74.5204L106.321 75.5394L106.831 75.705" fill="white"/>
<path d="M106.652 74.5204L106.984 75.5394L106.474 75.705" fill="white"/>
<path d="M107.671 75.2608H106.6V75.7965" fill="white"/>
<path d="M107.671 75.2608L106.805 75.8906L106.49 75.4572" fill="white"/>
<path d="M105.633 75.2608L106.5 75.8906L106.815 75.4572" fill="white"/>
<path d="M105.633 75.2608H106.705V75.7965" fill="white"/>
<path d="M107.282 76.4587L106.951 75.4397L106.442 75.6052" fill="white"/>
<path d="M107.282 76.4587L106.415 75.8289L106.73 75.3955" fill="white"/>
<path d="M106.023 76.4587L106.889 75.8289L106.575 75.3955" fill="white"/>
<path d="M106.023 76.4587L106.354 75.4397L106.863 75.6052" fill="white"/>
<path d="M101.142 75.6735L100.877 76.4887L101.285 76.6211" fill="white"/>
<path d="M101.142 75.6735L101.407 76.4887L101 76.6211" fill="white"/>
<path d="M101.957 76.2658H101.1V76.6944" fill="white"/>
<path d="M101.957 76.2658L101.264 76.7696L101.012 76.4229" fill="white"/>
<path d="M100.327 76.2658L101.02 76.7696L101.272 76.4229" fill="white"/>
<path d="M100.327 76.2658H101.184V76.6944" fill="white"/>
<path d="M101.646 77.2241L101.381 76.4089L100.974 76.5413" fill="white"/>
<path d="M101.646 77.2241L100.953 76.7203L101.205 76.3736" fill="white"/>
<path d="M100.638 77.2241L101.332 76.7203L101.08 76.3736" fill="white"/>
<path d="M100.638 77.2241L100.903 76.4089L101.311 76.5413" fill="white"/>
<path d="M74.8157 60.1531L74.4846 61.1721L74.9941 61.3376" fill="white"/>
<path d="M74.8157 60.1531L75.1468 61.1721L74.6373 61.3376" fill="white"/>
<path d="M75.8347 60.8934H74.7633V61.4292" fill="white"/>
<path d="M75.8347 60.8934L74.9679 61.5232L74.653 61.0898" fill="white"/>
<path d="M73.7967 60.8934L74.6635 61.5232L74.9784 61.0898" fill="white"/>
<path d="M73.7967 60.8934H74.8681V61.4292" fill="white"/>
<path d="M75.4455 62.0913L75.1144 61.0723L74.6049 61.2379" fill="white"/>
<path d="M75.4455 62.0913L74.5787 61.4616L74.8936 61.0282" fill="white"/>
<path d="M74.1859 62.0913L75.0527 61.4616L74.7379 61.0282" fill="white"/>
<path d="M74.1859 62.0913L74.517 61.0723L75.0265 61.2379" fill="white"/>
<path d="M94.4076 57.6327L94.1427 58.4479L94.5503 58.5803" fill="white"/>
<path d="M94.4076 57.6327L94.6724 58.4479L94.2648 58.5803" fill="white"/>
<path d="M95.2227 58.225H94.3656V58.6535" fill="white"/>
<path d="M95.2227 58.225L94.5293 58.7288L94.2774 58.3821" fill="white"/>
<path d="M93.5924 58.225L94.2858 58.7288L94.5377 58.3821" fill="white"/>
<path d="M93.5924 58.225H94.4495V58.6535" fill="white"/>
<path d="M94.9114 59.1833L94.6465 58.3681L94.2389 58.5005" fill="white"/>
<path d="M94.9114 59.1833L94.2179 58.6795L94.4698 58.3327" fill="white"/>
<path d="M93.9037 59.1833L94.5972 58.6795L94.3453 58.3327" fill="white"/>
<path d="M93.9037 59.1833L94.1686 58.3681L94.5762 58.5005" fill="white"/>
<path d="M86.2443 72.1837L85.847 73.4065L86.4584 73.6052" fill="white"/>
<path d="M86.2443 72.1837L86.6416 73.4065L86.0302 73.6052" fill="white"/>
<path d="M87.4671 73.0721H86.1814V73.715" fill="white"/>
<path d="M87.4671 73.0721L86.4269 73.8278L86.049 73.3078" fill="white"/>
<path d="M85.0215 73.0721L86.0617 73.8278L86.4395 73.3078" fill="white"/>
<path d="M85.0215 73.0721H86.3072V73.715" fill="white"/>
<path d="M87 74.5096L86.6027 73.2868L85.9913 73.4855" fill="white"/>
<path d="M87 74.5096L85.9598 73.7539L86.3377 73.2338" fill="white"/>
<path d="M85.4886 74.5096L86.5287 73.7539L86.1509 73.2338" fill="white"/>
<path d="M85.4886 74.5096L85.8859 73.2868L86.4973 73.4855" fill="white"/>
<path d="M89.7137 66.4388L89.3826 67.4578L89.8921 67.6234" fill="white"/>
<path d="M89.7137 66.4388L90.0448 67.4578L89.5353 67.6234" fill="white"/>
<path d="M90.7327 67.1792H89.6612V67.7149" fill="white"/>
<path d="M90.7327 67.1792L89.8659 67.8089L89.551 67.3755" fill="white"/>
<path d="M88.6947 67.1792L89.5615 67.8089L89.8764 67.3755" fill="white"/>
<path d="M88.6947 67.1792H89.7661V67.7149" fill="white"/>
<path d="M90.3434 68.3771L90.0123 67.3581L89.5029 67.5236" fill="white"/>
<path d="M90.3434 68.3771L89.4766 67.7473L89.7915 67.3139" fill="white"/>
<path d="M89.0839 68.3771L89.9507 67.7473L89.6358 67.3139" fill="white"/>
<path d="M89.0839 68.3771L89.415 67.3581L89.9245 67.5236" fill="white"/>
<path d="M86.2443 63.7449L85.9132 64.7639L86.4227 64.9295" fill="white"/>
<path d="M86.2443 63.7449L86.5754 64.7639L86.0659 64.9295" fill="white"/>
<path d="M87.2633 64.4853H86.1918V65.021" fill="white"/>
<path d="M87.2633 64.4853L86.3965 65.115L86.0816 64.6816" fill="white"/>
<path d="M85.2253 64.4853L86.0921 65.115L86.407 64.6816" fill="white"/>
<path d="M85.2253 64.4853H86.2967V65.021" fill="white"/>
<path d="M86.874 65.6832L86.543 64.6642L86.0335 64.8297" fill="white"/>
<path d="M86.874 65.6832L86.0072 65.0534L86.3221 64.62" fill="white"/>
<path d="M85.6145 65.6832L86.4813 65.0534L86.1664 64.62" fill="white"/>
<path d="M85.6145 65.6832L85.9456 64.6642L86.4551 64.8297" fill="white"/>
<path d="M83.2239 66.6531L82.959 67.4683L83.3666 67.6007" fill="white"/>
<path d="M83.2239 66.6531L83.4887 67.4683L83.0812 67.6007" fill="white"/>
<path d="M84.0391 67.2454H83.1819V67.6739" fill="white"/>
<path d="M84.0391 67.2454L83.3456 67.7492L83.0937 67.4025" fill="white"/>
<path d="M82.4087 67.2454L83.1021 67.7492L83.354 67.4025" fill="white"/>
<path d="M82.4087 67.2454H83.2658V67.6739" fill="white"/>
<path d="M83.7277 68.2037L83.4628 67.3885L83.0552 67.5209" fill="white"/>
<path d="M83.7277 68.2037L83.0342 67.6999L83.2862 67.3531" fill="white"/>
<path d="M82.7201 68.2037L83.4135 67.6999L83.1616 67.3531" fill="white"/>
<path d="M82.7201 68.2037L82.9849 67.3885L83.3925 67.5209" fill="white"/>
<path d="M84.7341 68.9796L84.5449 69.5619L84.836 69.6565" fill="white"/>
<path d="M84.7341 68.9796L84.9233 69.5619L84.6321 69.6565" fill="white"/>
<path d="M85.3164 69.4027H84.7041V69.7088" fill="white"/>
<path d="M85.3164 69.4027L84.821 69.7626L84.6411 69.5149" fill="white"/>
<path d="M84.1518 69.4027L84.6471 69.7626L84.8271 69.5149" fill="white"/>
<path d="M84.1518 69.4027H84.764V69.7088" fill="white"/>
<path d="M85.0939 70.0872L84.9048 69.5049L84.6136 69.5995" fill="white"/>
<path d="M85.0939 70.0872L84.5986 69.7273L84.7786 69.4797" fill="white"/>
<path d="M84.3742 70.0872L84.8695 69.7273L84.6896 69.4797" fill="white"/>
<path d="M84.3742 70.0872L84.5634 69.5049L84.8545 69.5995" fill="white"/>
<path d="M95.2239 79.1327L94.8928 80.1517L95.4023 80.3172" fill="white"/>
<path d="M95.2239 79.1327L95.555 80.1517L95.0455 80.3172" fill="white"/>
<path d="M96.2429 79.873H95.1714V80.4087" fill="white"/>
<path d="M96.2429 79.873L95.3761 80.5028L95.0612 80.0694" fill="white"/>
<path d="M94.2049 79.873L95.0717 80.5028L95.3866 80.0694" fill="white"/>
<path d="M94.2049 79.873H95.2763V80.4087" fill="white"/>
<path d="M95.8536 81.0709L95.5225 80.0519L95.0131 80.2175" fill="white"/>
<path d="M95.8536 81.0709L94.9868 80.4412L95.3017 80.0078" fill="white"/>
<path d="M94.5941 81.0709L95.4609 80.4412L95.146 80.0078" fill="white"/>
<path d="M94.5941 81.0709L94.9252 80.0519L95.4347 80.2175" fill="white"/>
<path d="M97.7953 76.6939L97.5304 77.5091L97.938 77.6415" fill="white"/>
<path d="M97.7953 76.6939L98.0602 77.5091L97.6526 77.6415" fill="white"/>
<path d="M98.6105 77.2862H97.7533V77.7148" fill="white"/>
<path d="M98.6105 77.2862L97.917 77.79L97.6651 77.4433" fill="white"/>
<path d="M96.9801 77.2862L97.6735 77.79L97.9255 77.4433" fill="white"/>
<path d="M96.9801 77.2862H97.8372V77.7148" fill="white"/>
<path d="M98.2991 78.2445L98.0342 77.4293L97.6266 77.5617" fill="white"/>
<path d="M98.2991 78.2445L97.6057 77.7407L97.8576 77.394" fill="white"/>
<path d="M97.2915 78.2445L97.9849 77.7407L97.733 77.394" fill="white"/>
<path d="M97.2915 78.2445L97.5564 77.4293L97.964 77.5617" fill="white"/>
<path d="M92.8565 75.9592L92.5917 76.7744L92.9992 76.9069" fill="white"/>
<path d="M92.8565 75.9592L93.1214 76.7744L92.7138 76.9069" fill="white"/>
<path d="M93.6717 76.5515H92.8146V76.9801" fill="white"/>
<path d="M93.6717 76.5515L92.9783 77.0553L92.7264 76.7086" fill="white"/>
<path d="M92.0413 76.5515L92.7348 77.0553L92.9867 76.7086" fill="white"/>
<path d="M92.0413 76.5515H92.8985V76.9801" fill="white"/>
<path d="M93.3603 77.5098L93.0955 76.6946L92.6879 76.8271" fill="white"/>
<path d="M93.3603 77.5098L92.6669 77.006L92.9188 76.6593" fill="white"/>
<path d="M92.3527 77.5098L93.0462 77.006L92.7942 76.6593" fill="white"/>
<path d="M92.3527 77.5098L92.6176 76.6946L93.0252 76.8271" fill="white"/>
<path d="M74.2035 74.6327L73.8062 75.8555L74.4175 76.0541" fill="white"/>
<path d="M74.2035 74.6327L74.6008 75.8555L73.9894 76.0541" fill="white"/>
<path d="M75.4263 75.5211H74.1405V76.164" fill="white"/>
<path d="M75.4263 75.5211L74.3861 76.2768L74.0082 75.7567" fill="white"/>
<path d="M72.9807 75.5211L74.0208 76.2768L74.3987 75.7567" fill="white"/>
<path d="M72.9807 75.5211H74.2664V76.164" fill="white"/>
<path d="M74.9592 76.9586L74.5619 75.7358L73.9505 75.9344" fill="white"/>
<path d="M74.9592 76.9586L73.919 76.2028L74.2969 75.6828" fill="white"/>
<path d="M73.4477 76.9586L74.4879 76.2028L74.11 75.6828" fill="white"/>
<path d="M73.4477 76.9586L73.845 75.7358L74.4564 75.9344" fill="white"/>
<path d="M86.2443 83.0409L86.1118 83.4485L86.3156 83.5147" fill="white"/>
<path d="M86.2443 83.0409L86.3767 83.4485L86.1729 83.5147" fill="white"/>
<path d="M86.6519 83.337H86.2233V83.5513" fill="white"/>
<path d="M86.6519 83.337L86.3052 83.5889L86.1792 83.4155" fill="white"/>
<path d="M85.8367 83.337L86.1834 83.5889L86.3094 83.4155" fill="white"/>
<path d="M85.8367 83.337H86.2653V83.5513" fill="white"/>
<path d="M86.4962 83.8162L86.3638 83.4086L86.16 83.4748" fill="white"/>
<path d="M86.4962 83.8162L86.1495 83.5642L86.2754 83.3909" fill="white"/>
<path d="M85.9924 83.8162L86.3391 83.5642L86.2131 83.3909" fill="white"/>
<path d="M85.9924 83.8162L86.1248 83.4086L86.3286 83.4748" fill="white"/>
</g>
<defs>
<clipPath id="clip0_909_237142">
<rect width="172" height="120" fill="white"/>
</clipPath>
</defs>
</svg>
