<svg width="172" height="120" viewBox="0 0 172 120" fill="none" xmlns="http://www.w3.org/2000/svg">
<g clip-path="url(#clip0_409_7802)">
<path d="M0 0H171.429V120H0V0Z" fill="#1E9A1C"/>
<path d="M14.5703 60L85.7132 105.429L156.856 60L85.7132 14.5714L14.5703 60Z" fill="#FDD406"/>
<path d="M85.5703 90C102.139 90 115.57 76.5685 115.57 60C115.57 43.4315 102.139 30 85.5703 30C69.0018 30 55.5703 43.4315 55.5703 60C55.5703 76.5685 69.0018 90 85.5703 90Z" fill="#0F3296"/>
<path d="M56.5234 52.4694C60.4275 51.7812 64.4094 51.4285 68.4276 51.4285C85.3694 51.4285 101.665 57.6981 114.212 68.9524C114.691 67.4188 115.05 65.8323 115.278 64.2038C102.207 53.227 85.6307 47.1428 68.4276 47.1428C64.9589 47.1428 61.5157 47.3902 58.1216 47.8751C57.47 49.3481 56.9335 50.8833 56.5234 52.4694Z" fill="white"/>
<path d="M68.7712 50.7116L71.3411 50.8013L71.3596 50.2711L69.2792 50.1984L69.3049 49.4642L70.9365 49.5211L70.9536 49.0316L69.322 48.9747L69.3419 48.4036L71.2999 48.472L71.3184 47.9417L68.8709 47.8562L68.7712 50.7116Z" fill="#1E9A1C"/>
<path fill-rule="evenodd" clip-rule="evenodd" d="M66.4902 50.7237L65.1435 50.7472L65.0936 47.8905L66.4403 47.867C66.6011 47.8642 66.7609 47.8931 66.9105 47.952C67.0601 48.011 67.1966 48.0988 67.3123 48.2105C67.428 48.3222 67.5205 48.4556 67.5846 48.6031C67.6487 48.7505 67.6832 48.9092 67.686 49.07L67.6931 49.4781C67.6959 49.6388 67.667 49.7986 67.6081 49.9482C67.5492 50.0978 67.4613 50.2344 67.3496 50.35C67.2379 50.4657 67.1045 50.5582 66.9571 50.6224C66.8096 50.6865 66.651 50.7209 66.4902 50.7237ZM66.4401 50.1939L65.6647 50.2074L65.6334 48.4118L66.4088 48.3983C66.6144 48.3947 66.8131 48.4729 66.961 48.6158C67.109 48.7587 67.1941 48.9545 67.1977 49.1601L67.202 49.405C67.2056 49.6106 67.1273 49.8093 66.9844 49.9572C66.8416 50.1052 66.6458 50.1903 66.4401 50.1939Z" fill="#1E9A1C"/>
<path fill-rule="evenodd" clip-rule="evenodd" d="M62.0517 50.9357L61.5224 50.9727L61.3638 48.1197L62.9925 48.0058C63.23 47.9892 63.4645 48.0677 63.6442 48.2239C63.824 48.3801 63.9343 48.6014 63.9509 48.839C63.9675 49.0765 63.8891 49.311 63.7328 49.4907C63.6849 49.5459 63.6308 49.5945 63.572 49.6359C63.8798 49.8707 63.9228 50.4857 63.945 50.8033L63.4564 50.8375C63.4374 50.5651 63.4031 50.0741 63.1143 49.7976L61.9777 49.8771L62.0517 50.9357ZM63.04 49.2709L61.9407 49.3478L61.8894 48.6149L62.9888 48.538C63.086 48.5312 63.1819 48.5633 63.2554 48.6272C63.3289 48.6911 63.374 48.7816 63.3808 48.8788C63.3876 48.976 63.3556 49.0719 63.2916 49.1454C63.2277 49.219 63.1372 49.2641 63.04 49.2709Z" fill="#1E9A1C"/>
<path fill-rule="evenodd" clip-rule="evenodd" d="M60.0458 50.7046C59.8392 50.9999 59.5329 51.1891 59.1945 51.2307C58.856 51.2723 58.5131 51.1627 58.2411 50.9262C57.9692 50.6897 57.7904 50.3455 57.7442 49.9695C57.6981 49.5934 57.7882 49.2162 57.9949 48.921C58.2016 48.6257 58.5078 48.4364 58.8463 48.3949C59.1847 48.3533 59.5277 48.4628 59.7996 48.6994C60.0716 48.9359 60.2503 49.28 60.2965 49.6561C60.3427 50.0321 60.2525 50.4093 60.0458 50.7046ZM59.6277 50.3779C59.5077 50.5623 59.3286 50.6796 59.1298 50.704C58.931 50.7285 58.7289 50.658 58.5678 50.5081C58.4067 50.3582 58.2999 50.1412 58.2709 49.9048C58.2419 49.6684 58.293 49.432 58.413 49.2476C58.5331 49.0632 58.7122 48.9459 58.9109 48.9215C59.1097 48.8971 59.3119 48.9676 59.473 49.1175C59.634 49.2674 59.7408 49.4844 59.7699 49.7208C59.7989 49.9571 59.7477 50.1935 59.6277 50.3779Z" fill="#1E9A1C"/>
<path d="M72.8843 50.9086L72.3963 50.8659L72.6453 48.0196L73.3569 48.0818L73.7554 50.0834L74.4954 48.1815L75.207 48.2437L74.958 51.09L74.47 51.0473L74.6408 49.0956L73.9008 50.9975L73.4535 50.9584L73.055 48.9568L72.8843 50.9086Z" fill="#1E9A1C"/>
<path d="M78.3163 51.5336L80.4282 51.8965L80.5112 51.4138L78.882 51.1338L78.9926 50.4902L80.3201 50.7183L80.403 50.2356L79.0755 50.0075L79.1516 49.565L80.7305 49.8363L80.8134 49.3535L78.7518 48.9993L78.3163 51.5336Z" fill="#1E9A1C"/>
<path fill-rule="evenodd" clip-rule="evenodd" d="M84.2552 52.7321L83.7415 52.5993L84.4964 49.8433L86.077 50.2521C86.3076 50.3118 86.505 50.4605 86.6259 50.6657C86.7468 50.8709 86.7812 51.1158 86.7216 51.3463C86.6619 51.5769 86.5132 51.7743 86.308 51.8952C86.1028 52.0161 85.8579 52.0505 85.6274 51.9908L84.5209 51.7047L84.2552 52.7321ZM85.7207 51.4669L84.6538 51.191L84.8377 50.4797L85.9047 50.7556C85.999 50.78 86.0798 50.8409 86.1292 50.9248C86.1787 51.0088 86.1927 51.1089 86.1683 51.2032C86.1439 51.2976 86.0831 51.3783 85.9991 51.4278C85.9152 51.4772 85.815 51.4913 85.7207 51.4669Z" fill="#1E9A1C"/>
<path fill-rule="evenodd" clip-rule="evenodd" d="M87.2471 53.5344L87.7532 53.6939L88.0723 52.6818L89.1589 53.0245C89.3263 53.3876 89.1783 53.857 89.0962 54.1174L89.5633 54.2647C89.659 53.961 89.8444 53.373 89.6441 53.0417C89.714 53.0248 89.7821 52.9993 89.8469 52.9656C90.0582 52.8556 90.2171 52.6663 90.2887 52.4391C90.3603 52.212 90.3387 51.9657 90.2288 51.7545C90.1188 51.5432 89.9294 51.3843 89.7023 51.3127L88.1452 50.8218L87.2471 53.5344ZM88.2319 52.1758L89.2829 52.5072C89.3758 52.5365 89.4766 52.5277 89.563 52.4827C89.6494 52.4377 89.7144 52.3602 89.7437 52.2673C89.773 52.1744 89.7642 52.0736 89.7192 51.9872C89.6742 51.9008 89.5967 51.8358 89.5038 51.8065L88.4528 51.4751L88.2319 52.1758Z" fill="#1E9A1C"/>
<path fill-rule="evenodd" clip-rule="evenodd" d="M91.9028 55.102C92.2222 55.2214 92.5812 55.1949 92.9009 55.0284C93.2205 54.8619 93.4747 54.569 93.6073 54.2141C93.74 53.8592 93.7404 53.4715 93.6084 53.1361C93.4764 52.8007 93.2227 52.5452 92.9033 52.4258C92.584 52.3063 92.2249 52.3328 91.9053 52.4993C91.5856 52.6658 91.3314 52.9587 91.1988 53.3136C91.0661 53.6685 91.0657 54.0563 91.1977 54.3917C91.3298 54.727 91.5834 54.9825 91.9028 55.102ZM92.0886 54.605C92.2762 54.6751 92.4892 54.6537 92.6808 54.5456C92.8724 54.4375 93.0269 54.2514 93.1103 54.0283C93.1937 53.8052 93.1992 53.5634 93.1255 53.3561C93.0519 53.1488 92.9051 52.9929 92.7175 52.9228C92.5299 52.8526 92.3169 52.874 92.1253 52.9821C91.9337 53.0903 91.7792 53.2764 91.6958 53.4994C91.6124 53.7225 91.6069 53.9643 91.6806 54.1716C91.7542 54.3789 91.901 54.5348 92.0886 54.605Z" fill="#1E9A1C"/>
<path d="M97.0728 54.5869C96.9585 54.245 96.7186 53.9766 96.4059 53.8406C96.0932 53.7047 95.7333 53.7123 95.4053 53.8618C95.0774 54.0114 94.8083 54.2906 94.6572 54.638C94.5061 54.9855 94.4854 55.3727 94.5997 55.7146C94.714 56.0564 94.9539 56.3248 95.2666 56.4608C95.5657 56.5909 95.908 56.5895 96.2242 56.4583L96.071 56.8107L96.4453 56.9735L97.0015 55.6942C97.0062 55.684 97.0108 55.6737 97.0153 55.6634L96.023 55.2321L95.8603 55.6064L96.2902 55.7933C96.2244 55.8552 96.1512 55.9069 96.0727 55.9459C95.8757 56.0439 95.6618 56.054 95.4782 55.9742C95.2945 55.8943 95.1561 55.731 95.0934 55.5201C95.0307 55.3092 95.0488 55.068 95.1438 54.8496C95.2387 54.6312 95.4028 54.4535 95.5998 54.3555C95.7968 54.2575 96.0107 54.2474 96.1943 54.3272C96.378 54.4071 96.5164 54.5704 96.5791 54.7813C96.5957 54.8371 96.6066 54.8949 96.612 54.9539L97.1392 55.1831C97.1581 54.9801 97.1362 54.7765 97.0728 54.5869Z" fill="#1E9A1C"/>
<path fill-rule="evenodd" clip-rule="evenodd" d="M97.4027 57.4201L97.8776 57.6569L98.3511 56.7071L99.3708 57.2155C99.4792 57.6003 99.2596 58.0408 99.1378 58.2852L99.5761 58.5037C99.7182 58.2188 99.9933 57.667 99.8472 57.3085C99.9189 57.3027 99.9902 57.2882 100.059 57.265C100.285 57.1895 100.472 57.0273 100.578 56.8141C100.684 56.601 100.702 56.3544 100.626 56.1285C100.551 55.9027 100.388 55.7161 100.175 55.6099L98.7141 54.8814L97.4027 57.4201ZM98.5879 56.2323L99.5741 56.724C99.6613 56.7675 99.7622 56.7745 99.8546 56.7436C99.947 56.7127 100.023 56.6464 100.067 56.5592C100.11 56.472 100.117 56.3711 100.086 56.2787C100.055 56.1863 99.9891 56.11 99.9019 56.0665L98.9157 55.5748L98.5879 56.2323Z" fill="#1E9A1C"/>
<path d="M100.637 59.0637L102.875 60.3299L103.136 59.8681L101.324 58.843L101.686 58.2036L103.107 59.0075L103.348 58.5812L101.927 57.7773L102.209 57.2799L103.914 58.2447L104.175 57.7829L102.044 56.5769L100.637 59.0637Z" fill="#1E9A1C"/>
<path d="M105.152 61.191C104.808 60.9717 104.652 60.7032 104.806 60.4623L104.263 60.1168C103.878 60.7182 104.469 61.3128 104.865 61.565C105.33 61.8611 106.026 62.1353 106.427 61.5071C106.748 61.0031 106.259 60.5337 105.862 60.1518C105.587 59.8881 105.356 59.6661 105.465 59.5031C105.624 59.2535 105.841 59.3311 106.108 59.5011C106.383 59.6765 106.564 59.9247 106.399 60.1829L106.924 60.5173C107.311 59.929 106.814 59.4185 106.504 59.2211L106.464 59.1957C106.129 58.98 105.353 58.4814 104.892 59.1866C104.575 59.6741 105.026 60.1162 105.414 60.4971C105.707 60.7844 105.964 61.0368 105.83 61.2477C105.731 61.4024 105.496 61.4103 105.152 61.191Z" fill="#1E9A1C"/>
<path d="M107.871 62.4891C107.705 62.7217 107.846 62.998 108.178 63.235C108.511 63.472 108.745 63.4764 108.852 63.3271C108.997 63.1235 108.754 62.8579 108.476 62.5557C108.108 62.155 107.682 61.6899 108.024 61.2197C108.521 60.5396 109.269 61.0781 109.593 61.311L109.631 61.3385C109.93 61.5518 110.401 62.0876 109.983 62.6549L109.477 62.2935C109.654 62.0442 109.487 61.787 109.221 61.5973C108.964 61.4136 108.751 61.3248 108.579 61.5657C108.462 61.7228 108.681 61.9566 108.942 62.2343C109.319 62.6365 109.782 63.1308 109.435 63.6173C109.002 64.2237 108.321 63.9134 107.873 63.5934C107.49 63.3208 106.931 62.6961 107.347 62.1158L107.871 62.4891Z" fill="#1E9A1C"/>
<path fill-rule="evenodd" clip-rule="evenodd" d="M111.741 66.0149C111.386 66.0745 111.036 65.9887 110.769 65.7764C110.503 65.5641 110.34 65.2428 110.318 64.883C110.296 64.5232 110.417 64.1545 110.653 63.858C110.888 63.5615 111.221 63.3615 111.576 63.3019C111.932 63.2423 112.281 63.3281 112.548 63.5404C112.815 63.7527 112.977 64.074 112.999 64.4338C113.021 64.7936 112.901 65.1623 112.665 65.4588C112.429 65.7553 112.097 65.9553 111.741 66.0149ZM111.681 65.4877C111.466 65.5313 111.256 65.4858 111.1 65.3612C110.943 65.2365 110.852 65.0429 110.846 64.8229C110.84 64.603 110.92 64.3747 111.068 64.1883C111.216 64.002 111.42 63.8727 111.636 63.8291C111.852 63.7855 112.061 63.831 112.218 63.9557C112.374 64.0803 112.466 64.2739 112.472 64.4939C112.478 64.7138 112.398 64.9421 112.25 65.1285C112.101 65.3149 111.897 65.4441 111.681 65.4877Z" fill="#1E9A1C"/>
<path d="M61.6097 53.3266L61.2124 54.5494L61.8238 54.748" fill="white"/>
<path d="M61.6097 53.3266L62.007 54.5494L61.3956 54.748" fill="white"/>
<path d="M62.8325 54.215H61.5468V54.8578" fill="white"/>
<path d="M62.8325 54.215L61.7923 54.9707L61.4145 54.4506" fill="white"/>
<path d="M60.3869 54.215L61.4271 54.9707L61.805 54.4506" fill="white"/>
<path d="M60.3869 54.215H61.6726V54.8578" fill="white"/>
<path d="M62.3654 55.6524L61.9681 54.4297L61.3567 54.6283" fill="white"/>
<path d="M62.3654 55.6524L61.3253 54.8967L61.7031 54.3766" fill="white"/>
<path d="M60.854 55.6524L61.8942 54.8967L61.5163 54.3766" fill="white"/>
<path d="M60.854 55.6524L61.2513 54.4297L61.8627 54.6283" fill="white"/>
<path d="M64.2628 65.9388L63.8655 67.1616L64.4769 67.3603" fill="white"/>
<path d="M64.2628 65.9388L64.6601 67.1616L64.0487 67.3603" fill="white"/>
<path d="M65.4856 66.8272H64.1998V67.4701" fill="white"/>
<path d="M65.4856 66.8272L64.4454 67.5829L64.0675 67.0629" fill="white"/>
<path d="M63.04 66.8272L64.0802 67.5829L64.458 67.0629" fill="white"/>
<path d="M63.04 66.8272H64.3257V67.4701" fill="white"/>
<path d="M65.0185 68.2647L64.6212 67.0419L64.0098 67.2406" fill="white"/>
<path d="M65.0185 68.2647L63.9783 67.509L64.3562 66.9889" fill="white"/>
<path d="M63.507 68.2647L64.5472 67.509L64.1693 66.9889" fill="white"/>
<path d="M63.507 68.2647L63.9044 67.0419L64.5157 67.2406" fill="white"/>
<path d="M60.5893 68.847L60.2582 69.866L60.7677 70.0315" fill="white"/>
<path d="M60.5893 68.847L60.9204 69.866L60.4109 70.0315" fill="white"/>
<path d="M61.6083 69.5873H60.5369V70.123" fill="white"/>
<path d="M61.6083 69.5873L60.7415 70.2171L60.4266 69.7837" fill="white"/>
<path d="M59.5703 69.5873L60.4371 70.2171L60.752 69.7837" fill="white"/>
<path d="M59.5703 69.5873H60.6417V70.123" fill="white"/>
<path d="M61.2191 70.7852L60.888 69.7662L60.3785 69.9318" fill="white"/>
<path d="M61.2191 70.7852L60.3523 70.1554L60.6672 69.722" fill="white"/>
<path d="M59.9595 70.7852L60.8263 70.1554L60.5114 69.722" fill="white"/>
<path d="M59.9595 70.7852L60.2906 69.7662L60.8001 69.9318" fill="white"/>
<path d="M67.2015 64.7756L67.0124 65.3578L67.3035 65.4524" fill="white"/>
<path d="M67.2015 64.7756L67.3907 65.3578L67.0996 65.4524" fill="white"/>
<path d="M67.7838 65.1986H67.1716V65.5047" fill="white"/>
<path d="M67.7838 65.1986L67.2885 65.5585L67.1086 65.3108" fill="white"/>
<path d="M66.6193 65.1986L67.1146 65.5585L67.2945 65.3108" fill="white"/>
<path d="M66.6193 65.1986H67.2315V65.5047" fill="white"/>
<path d="M67.5614 65.8831L67.3722 65.3008L67.0811 65.3954" fill="white"/>
<path d="M67.5614 65.8831L67.0661 65.5232L67.246 65.2756" fill="white"/>
<path d="M66.8417 65.8831L67.337 65.5232L67.1571 65.2756" fill="white"/>
<path d="M66.8417 65.8831L67.0309 65.3008L67.322 65.3954" fill="white"/>
<path d="M70.5077 69.1327L70.1766 70.1517L70.6861 70.3172" fill="white"/>
<path d="M70.5077 69.1327L70.8388 70.1517L70.3293 70.3172" fill="white"/>
<path d="M71.5267 69.873H70.4552V70.4087" fill="white"/>
<path d="M71.5267 69.873L70.6598 70.5028L70.345 70.0694" fill="white"/>
<path d="M69.4887 69.873L70.3555 70.5028L70.6704 70.0694" fill="white"/>
<path d="M69.4887 69.873H70.5601V70.4087" fill="white"/>
<path d="M71.1374 71.0709L70.8063 70.0519L70.2968 70.2175" fill="white"/>
<path d="M71.1374 71.0709L70.2706 70.4412L70.5855 70.0078" fill="white"/>
<path d="M69.8779 71.0709L70.7447 70.4412L70.4298 70.0078" fill="white"/>
<path d="M69.8779 71.0709L70.209 70.0519L70.7185 70.2175" fill="white"/>
<path d="M69.6097 72.3266L69.3448 73.1418L69.7524 73.2742" fill="white"/>
<path d="M69.6097 72.3266L69.8746 73.1418L69.467 73.2742" fill="white"/>
<path d="M70.4249 72.9188H69.5678V73.3474" fill="white"/>
<path d="M70.4249 72.9188L69.7315 73.4227L69.4795 73.0759" fill="white"/>
<path d="M68.7945 72.9188L69.488 73.4227L69.7399 73.0759" fill="white"/>
<path d="M68.7945 72.9188H69.6517V73.3474" fill="white"/>
<path d="M70.1135 73.8772L69.8487 73.062L69.4411 73.1944" fill="white"/>
<path d="M70.1135 73.8772L69.4201 73.3733L69.672 73.0266" fill="white"/>
<path d="M69.1059 73.8772L69.7993 73.3733L69.5474 73.0266" fill="white"/>
<path d="M69.1059 73.8772L69.3708 73.062L69.7784 73.1944" fill="white"/>
<path d="M95.4056 49.4082L95.0083 50.631L95.6197 50.8296" fill="white"/>
<path d="M95.4056 49.4082L95.8029 50.631L95.1915 50.8296" fill="white"/>
<path d="M96.6284 50.2966H95.3427V50.9395" fill="white"/>
<path d="M96.6284 50.2966L95.5882 51.0523L95.2104 50.5323" fill="white"/>
<path d="M94.1828 50.2966L95.223 51.0523L95.6009 50.5323" fill="white"/>
<path d="M94.1828 50.2966H95.4686V50.9395" fill="white"/>
<path d="M96.1614 51.7341L95.764 50.5113L95.1526 50.7099" fill="white"/>
<path d="M96.1614 51.7341L95.1212 50.9784L95.499 50.4583" fill="white"/>
<path d="M94.6499 51.7341L95.6901 50.9784L95.3122 50.4583" fill="white"/>
<path d="M94.6499 51.7341L95.0472 50.5113L95.6586 50.7099" fill="white"/>
<path d="M107.12 69.2449L106.723 70.4677L107.334 70.6664" fill="white"/>
<path d="M107.12 69.2449L107.517 70.4677L106.906 70.6664" fill="white"/>
<path d="M108.343 70.1333H107.057V70.7762" fill="white"/>
<path d="M108.343 70.1333L107.303 70.8891L106.925 70.369" fill="white"/>
<path d="M105.897 70.1333L106.937 70.8891L107.315 70.369" fill="white"/>
<path d="M105.897 70.1333H107.183V70.7762" fill="white"/>
<path d="M107.876 71.5708L107.478 70.348L106.867 70.5467" fill="white"/>
<path d="M107.876 71.5708L106.835 70.8151L107.213 70.295" fill="white"/>
<path d="M106.364 71.5708L107.404 70.8151L107.026 70.295" fill="white"/>
<path d="M106.364 71.5708L106.761 70.348L107.373 70.5467" fill="white"/>
<path d="M111.283 69.9592L111.018 70.7744L111.426 70.9069" fill="white"/>
<path d="M111.283 69.9592L111.548 70.7744L111.14 70.9069" fill="white"/>
<path d="M112.098 70.5515H111.241V70.9801" fill="white"/>
<path d="M112.098 70.5515L111.405 71.0553L111.153 70.7086" fill="white"/>
<path d="M110.468 70.5515L111.161 71.0553L111.413 70.7086" fill="white"/>
<path d="M110.468 70.5515H111.325V70.9801" fill="white"/>
<path d="M111.787 71.5098L111.522 70.6946L111.115 70.8271" fill="white"/>
<path d="M111.787 71.5098L111.094 71.006L111.345 70.6593" fill="white"/>
<path d="M110.779 71.5098L111.473 71.006L111.221 70.6593" fill="white"/>
<path d="M110.779 71.5098L111.044 70.6946L111.452 70.8271" fill="white"/>
<path d="M108.344 72.1123L108.013 73.1313L108.523 73.2968" fill="white"/>
<path d="M108.344 72.1123L108.675 73.1313L108.166 73.2968" fill="white"/>
<path d="M109.363 72.8526H108.292V73.3883" fill="white"/>
<path d="M109.363 72.8526L108.497 73.4824L108.182 73.049" fill="white"/>
<path d="M107.325 72.8526L108.192 73.4824L108.507 73.049" fill="white"/>
<path d="M107.325 72.8526H108.397V73.3883" fill="white"/>
<path d="M108.974 74.0505L108.643 73.0315L108.134 73.1971" fill="white"/>
<path d="M108.974 74.0505L108.107 73.4207L108.422 72.9873" fill="white"/>
<path d="M107.715 74.0505L108.581 73.4207L108.267 72.9873" fill="white"/>
<path d="M107.715 74.0505L108.046 73.0315L108.555 73.1971" fill="white"/>
<path d="M101.12 78.398L100.789 79.417L101.298 79.5825" fill="white"/>
<path d="M101.12 78.398L101.451 79.417L100.942 79.5825" fill="white"/>
<path d="M102.139 79.1383H101.067V79.6741" fill="white"/>
<path d="M102.139 79.1383L101.272 79.7681L100.957 79.3347" fill="white"/>
<path d="M100.101 79.1383L100.968 79.7681L101.283 79.3347" fill="white"/>
<path d="M100.101 79.1383H101.172V79.6741" fill="white"/>
<path d="M101.75 80.3362L101.419 79.3172L100.909 79.4828" fill="white"/>
<path d="M101.75 80.3362L100.883 79.7065L101.198 79.2731" fill="white"/>
<path d="M100.49 80.3362L101.357 79.7065L101.042 79.2731" fill="white"/>
<path d="M100.49 80.3362L100.821 79.3172L101.331 79.4828" fill="white"/>
<path d="M101.079 81.6327L100.814 82.4479L101.222 82.5803" fill="white"/>
<path d="M101.079 81.6327L101.344 82.4479L100.936 82.5803" fill="white"/>
<path d="M101.894 82.225H101.037V82.6535" fill="white"/>
<path d="M101.894 82.225L101.201 82.7288L100.949 82.3821" fill="white"/>
<path d="M100.264 82.225L100.957 82.7288L101.209 82.3821" fill="white"/>
<path d="M100.264 82.225H101.121V82.6535" fill="white"/>
<path d="M101.583 83.1833L101.318 82.3681L100.91 82.5005" fill="white"/>
<path d="M101.583 83.1833L100.889 82.6795L101.141 82.3327" fill="white"/>
<path d="M100.575 83.1833L101.269 82.6795L101.017 82.3327" fill="white"/>
<path d="M100.575 83.1833L100.84 82.3681L101.248 82.5005" fill="white"/>
<path d="M104.1 76.2449L103.835 77.0601L104.242 77.1926" fill="white"/>
<path d="M104.1 76.2449L104.364 77.0601L103.957 77.1926" fill="white"/>
<path d="M104.915 76.8372H104.058V77.2658" fill="white"/>
<path d="M104.915 76.8372L104.221 77.341L103.969 76.9943" fill="white"/>
<path d="M103.284 76.8372L103.978 77.341L104.23 76.9943" fill="white"/>
<path d="M103.284 76.8372H104.141V77.2658" fill="white"/>
<path d="M104.603 77.7955L104.338 76.9803L103.931 77.1128" fill="white"/>
<path d="M104.603 77.7955L103.91 77.2917L104.162 76.945" fill="white"/>
<path d="M103.596 77.7955L104.289 77.2917L104.037 76.945" fill="white"/>
<path d="M103.596 77.7955L103.861 76.9803L104.268 77.1128" fill="white"/>
<path d="M106.508 74.5204L106.177 75.5394L106.686 75.705" fill="white"/>
<path d="M106.508 74.5204L106.839 75.5394L106.329 75.705" fill="white"/>
<path d="M107.527 75.2608H106.455V75.7965" fill="white"/>
<path d="M107.527 75.2608L106.66 75.8906L106.345 75.4572" fill="white"/>
<path d="M105.489 75.2608L106.355 75.8906L106.67 75.4572" fill="white"/>
<path d="M105.489 75.2608H106.56V75.7965" fill="white"/>
<path d="M107.137 76.4587L106.806 75.4397L106.297 75.6052" fill="white"/>
<path d="M107.137 76.4587L106.271 75.8289L106.586 75.3955" fill="white"/>
<path d="M105.878 76.4587L106.745 75.8289L106.43 75.3955" fill="white"/>
<path d="M105.878 76.4587L106.209 75.4397L106.718 75.6052" fill="white"/>
<path d="M100.997 75.6735L100.733 76.4887L101.14 76.6211" fill="white"/>
<path d="M100.997 75.6735L101.262 76.4887L100.855 76.6211" fill="white"/>
<path d="M101.813 76.2658H100.956V76.6944" fill="white"/>
<path d="M101.813 76.2658L101.119 76.7696L100.867 76.4229" fill="white"/>
<path d="M100.182 76.2658L100.876 76.7696L101.128 76.4229" fill="white"/>
<path d="M100.182 76.2658H101.039V76.6944" fill="white"/>
<path d="M101.501 77.2241L101.236 76.4089L100.829 76.5413" fill="white"/>
<path d="M101.501 77.2241L100.808 76.7203L101.06 76.3736" fill="white"/>
<path d="M100.494 77.2241L101.187 76.7203L100.935 76.3736" fill="white"/>
<path d="M100.494 77.2241L100.759 76.4089L101.166 76.5413" fill="white"/>
<path d="M74.6709 60.1531L74.3398 61.1721L74.8493 61.3376" fill="white"/>
<path d="M74.6709 60.1531L75.002 61.1721L74.4925 61.3376" fill="white"/>
<path d="M75.6899 60.8934H74.6185V61.4292" fill="white"/>
<path d="M75.6899 60.8934L74.8231 61.5232L74.5082 61.0898" fill="white"/>
<path d="M73.6519 60.8934L74.5187 61.5232L74.8336 61.0898" fill="white"/>
<path d="M73.6519 60.8934H74.7234V61.4292" fill="white"/>
<path d="M75.3007 62.0913L74.9696 61.0723L74.4601 61.2379" fill="white"/>
<path d="M75.3007 62.0913L74.4339 61.4616L74.7488 61.0282" fill="white"/>
<path d="M74.0412 62.0913L74.908 61.4616L74.5931 61.0282" fill="white"/>
<path d="M74.0412 62.0913L74.3723 61.0723L74.8817 61.2379" fill="white"/>
<path d="M94.2628 57.6327L93.9979 58.4479L94.4055 58.5803" fill="white"/>
<path d="M94.2628 57.6327L94.5276 58.4479L94.1201 58.5803" fill="white"/>
<path d="M95.078 58.225H94.2208V58.6535" fill="white"/>
<path d="M95.078 58.225L94.3845 58.7288L94.1326 58.3821" fill="white"/>
<path d="M93.4476 58.225L94.141 58.7288L94.3929 58.3821" fill="white"/>
<path d="M93.4476 58.225H94.3047V58.6535" fill="white"/>
<path d="M94.7666 59.1833L94.5017 58.3681L94.0941 58.5005" fill="white"/>
<path d="M94.7666 59.1833L94.0731 58.6795L94.3251 58.3327" fill="white"/>
<path d="M93.759 59.1833L94.4524 58.6795L94.2005 58.3327" fill="white"/>
<path d="M93.759 59.1833L94.0238 58.3681L94.4314 58.5005" fill="white"/>
<path d="M86.0995 72.1837L85.7022 73.4065L86.3136 73.6052" fill="white"/>
<path d="M86.0995 72.1837L86.4968 73.4065L85.8854 73.6052" fill="white"/>
<path d="M87.3223 73.0721H86.0366V73.715" fill="white"/>
<path d="M87.3223 73.0721L86.2821 73.8278L85.9043 73.3078" fill="white"/>
<path d="M84.8767 73.0721L85.9169 73.8278L86.2947 73.3078" fill="white"/>
<path d="M84.8767 73.0721H86.1624V73.715" fill="white"/>
<path d="M86.8552 74.5096L86.4579 73.2868L85.8465 73.4855" fill="white"/>
<path d="M86.8552 74.5096L85.8151 73.7539L86.1929 73.2338" fill="white"/>
<path d="M85.3438 74.5096L86.3839 73.7539L86.0061 73.2338" fill="white"/>
<path d="M85.3438 74.5096L85.7411 73.2868L86.3525 73.4855" fill="white"/>
<path d="M89.5689 66.4388L89.2378 67.4578L89.7473 67.6234" fill="white"/>
<path d="M89.5689 66.4388L89.9 67.4578L89.3905 67.6234" fill="white"/>
<path d="M90.5879 67.1792H89.5165V67.7149" fill="white"/>
<path d="M90.5879 67.1792L89.7211 67.8089L89.4062 67.3755" fill="white"/>
<path d="M88.5499 67.1792L89.4167 67.8089L89.7316 67.3755" fill="white"/>
<path d="M88.5499 67.1792H89.6213V67.7149" fill="white"/>
<path d="M90.1987 68.3771L89.8676 67.3581L89.3581 67.5236" fill="white"/>
<path d="M90.1987 68.3771L89.3319 67.7473L89.6467 67.3139" fill="white"/>
<path d="M88.9391 68.3771L89.8059 67.7473L89.491 67.3139" fill="white"/>
<path d="M88.9391 68.3771L89.2702 67.3581L89.7797 67.5236" fill="white"/>
<path d="M86.0995 63.7449L85.7684 64.7639L86.2779 64.9295" fill="white"/>
<path d="M86.0995 63.7449L86.4306 64.7639L85.9211 64.9295" fill="white"/>
<path d="M87.1185 64.4853H86.0471V65.021" fill="white"/>
<path d="M87.1185 64.4853L86.2517 65.115L85.9368 64.6816" fill="white"/>
<path d="M85.0805 64.4853L85.9473 65.115L86.2622 64.6816" fill="white"/>
<path d="M85.0805 64.4853H86.1519V65.021" fill="white"/>
<path d="M86.7293 65.6832L86.3982 64.6642L85.8887 64.8297" fill="white"/>
<path d="M86.7293 65.6832L85.8625 65.0534L86.1774 64.62" fill="white"/>
<path d="M85.4697 65.6832L86.3365 65.0534L86.0217 64.62" fill="white"/>
<path d="M85.4697 65.6832L85.8008 64.6642L86.3103 64.8297" fill="white"/>
<path d="M83.0791 66.6531L82.8142 67.4683L83.2218 67.6007" fill="white"/>
<path d="M83.0791 66.6531L83.344 67.4683L82.9364 67.6007" fill="white"/>
<path d="M83.8943 67.2454H83.0371V67.6739" fill="white"/>
<path d="M83.8943 67.2454L83.2008 67.7492L82.9489 67.4025" fill="white"/>
<path d="M82.2639 67.2454L82.9573 67.7492L83.2093 67.4025" fill="white"/>
<path d="M82.2639 67.2454H83.121V67.6739" fill="white"/>
<path d="M83.5829 68.2037L83.318 67.3885L82.9104 67.5209" fill="white"/>
<path d="M83.5829 68.2037L82.8895 67.6999L83.1414 67.3531" fill="white"/>
<path d="M82.5753 68.2037L83.2687 67.6999L83.0168 67.3531" fill="white"/>
<path d="M82.5753 68.2037L82.8402 67.3885L83.2477 67.5209" fill="white"/>
<path d="M84.5893 68.9796L84.4001 69.5619L84.6912 69.6565" fill="white"/>
<path d="M84.5893 68.9796L84.7785 69.5619L84.4874 69.6565" fill="white"/>
<path d="M85.1716 69.4027H84.5593V69.7088" fill="white"/>
<path d="M85.1716 69.4027L84.6763 69.7626L84.4963 69.5149" fill="white"/>
<path d="M84.007 69.4027L84.5023 69.7626L84.6823 69.5149" fill="white"/>
<path d="M84.007 69.4027H84.6193V69.7088" fill="white"/>
<path d="M84.9492 70.0872L84.76 69.5049L84.4688 69.5995" fill="white"/>
<path d="M84.9492 70.0872L84.4539 69.7273L84.6338 69.4797" fill="white"/>
<path d="M84.2294 70.0872L84.7248 69.7273L84.5448 69.4797" fill="white"/>
<path d="M84.2294 70.0872L84.4186 69.5049L84.7098 69.5995" fill="white"/>
<path d="M95.0791 79.1327L94.748 80.1517L95.2575 80.3172" fill="white"/>
<path d="M95.0791 79.1327L95.4102 80.1517L94.9007 80.3172" fill="white"/>
<path d="M96.0981 79.873H95.0267V80.4087" fill="white"/>
<path d="M96.0981 79.873L95.2313 80.5028L94.9164 80.0694" fill="white"/>
<path d="M94.0601 79.873L94.9269 80.5028L95.2418 80.0694" fill="white"/>
<path d="M94.0601 79.873H95.1315V80.4087" fill="white"/>
<path d="M95.7089 81.0709L95.3778 80.0519L94.8683 80.2175" fill="white"/>
<path d="M95.7089 81.0709L94.8421 80.4412L95.1569 80.0078" fill="white"/>
<path d="M94.4493 81.0709L95.3161 80.4412L95.0012 80.0078" fill="white"/>
<path d="M94.4493 81.0709L94.7804 80.0519L95.2899 80.2175" fill="white"/>
<path d="M97.6505 76.6939L97.3857 77.5091L97.7932 77.6415" fill="white"/>
<path d="M97.6505 76.6939L97.9154 77.5091L97.5078 77.6415" fill="white"/>
<path d="M98.4657 77.2862H97.6086V77.7148" fill="white"/>
<path d="M98.4657 77.2862L97.7723 77.79L97.5204 77.4433" fill="white"/>
<path d="M96.8353 77.2862L97.5288 77.79L97.7807 77.4433" fill="white"/>
<path d="M96.8353 77.2862H97.6925V77.7148" fill="white"/>
<path d="M98.1543 78.2445L97.8895 77.4293L97.4819 77.5617" fill="white"/>
<path d="M98.1543 78.2445L97.4609 77.7407L97.7128 77.394" fill="white"/>
<path d="M97.1467 78.2445L97.8402 77.7407L97.5882 77.394" fill="white"/>
<path d="M97.1467 78.2445L97.4116 77.4293L97.8192 77.5617" fill="white"/>
<path d="M92.7118 75.9592L92.4469 76.7744L92.8545 76.9069" fill="white"/>
<path d="M92.7118 75.9592L92.9766 76.7744L92.569 76.9069" fill="white"/>
<path d="M93.5269 76.5515H92.6698V76.9801" fill="white"/>
<path d="M93.5269 76.5515L92.8335 77.0553L92.5816 76.7086" fill="white"/>
<path d="M91.8966 76.5515L92.59 77.0553L92.8419 76.7086" fill="white"/>
<path d="M91.8966 76.5515H92.7537V76.9801" fill="white"/>
<path d="M93.2156 77.5098L92.9507 76.6946L92.5431 76.8271" fill="white"/>
<path d="M93.2156 77.5098L92.5221 77.006L92.774 76.6593" fill="white"/>
<path d="M92.2079 77.5098L92.9014 77.006L92.6495 76.6593" fill="white"/>
<path d="M92.2079 77.5098L92.4728 76.6946L92.8804 76.8271" fill="white"/>
<path d="M74.0587 74.6327L73.6614 75.8555L74.2728 76.0541" fill="white"/>
<path d="M74.0587 74.6327L74.456 75.8555L73.8446 76.0541" fill="white"/>
<path d="M75.2815 75.5211H73.9958V76.164" fill="white"/>
<path d="M75.2815 75.5211L74.2413 76.2768L73.8634 75.7567" fill="white"/>
<path d="M72.8359 75.5211L73.8761 76.2768L74.2539 75.7567" fill="white"/>
<path d="M72.8359 75.5211H74.1216V76.164" fill="white"/>
<path d="M74.8144 76.9586L74.4171 75.7358L73.8057 75.9344" fill="white"/>
<path d="M74.8144 76.9586L73.7742 76.2028L74.1521 75.6828" fill="white"/>
<path d="M73.303 76.9586L74.3431 76.2028L73.9653 75.6828" fill="white"/>
<path d="M73.303 76.9586L73.7003 75.7358L74.3117 75.9344" fill="white"/>
<path d="M86.0995 83.0409L85.9671 83.4485L86.1709 83.5147" fill="white"/>
<path d="M86.0995 83.0409L86.2319 83.4485L86.0281 83.5147" fill="white"/>
<path d="M86.5071 83.337H86.0785V83.5513" fill="white"/>
<path d="M86.5071 83.337L86.1604 83.5889L86.0344 83.4155" fill="white"/>
<path d="M85.6919 83.337L86.0386 83.5889L86.1646 83.4155" fill="white"/>
<path d="M85.6919 83.337H86.1205V83.5513" fill="white"/>
<path d="M86.3514 83.8162L86.219 83.4086L86.0152 83.4748" fill="white"/>
<path d="M86.3514 83.8162L86.0047 83.5642L86.1306 83.3909" fill="white"/>
<path d="M85.8476 83.8162L86.1943 83.5642L86.0684 83.3909" fill="white"/>
<path d="M85.8476 83.8162L85.98 83.4086L86.1838 83.4748" fill="white"/>
</g>
<defs>
<clipPath id="clip0_409_7802">
<rect width="171.43" height="120" fill="white"/>
</clipPath>
</defs>
</svg>
