<svg width="204" height="120" viewBox="0 0 204 120" fill="none" xmlns="http://www.w3.org/2000/svg">
<g clip-path="url(#clip0_909_308274)">
<path d="M0 120H204V0H0V120Z" fill="#0F3296"/>
<path d="M0 90.6719H203.924V80.4639H0V90.6719Z" fill="white"/>
<path d="M0 85.1997H204V60.0461H0V85.1997Z" fill="white"/>
<path d="M0 80.459H204V70.251H0V80.459Z" fill="#D91C16"/>
<path d="M47.9899 80.459L49.2603 84.3619H53.3739L50.0467 86.7752L51.3179 90.679L47.9899 88.2664L44.6614 90.679L45.9331 86.7752L42.6051 84.3619H46.7179M47.6491 60.0312L48.9203 63.9334H53.0339L49.7059 66.3454L50.9771 70.2483L47.6491 67.8363L44.3211 70.2483L45.5923 66.3454L42.2651 63.9334H46.3779M105.811 60.044L107.082 63.9384H111.196L107.868 66.3462L109.139 70.2406L105.811 67.8336L102.483 70.2406L103.754 66.3462L100.426 63.9384H104.539" fill="#FDD406"/>
<path d="M105.431 80.4698L106.702 84.365H110.816L107.488 86.7728L108.759 90.668L105.431 88.261L102.104 90.668L103.374 86.7728L100.047 84.365H104.16" fill="#FDD406"/>
<path d="M76.7236 39.0254L77.9948 42.9377H82.1092L78.7806 45.3553L80.0524 49.2676L76.7238 46.85L73.3958 49.2676L74.667 45.3553L71.3398 42.9377H75.4521" fill="#FDD406"/>
<path d="M76.7383 100.321L78.0087 104.233H82.1223L78.7951 106.651L80.0663 110.563L76.7383 108.146L73.4098 110.563L74.6815 106.651L71.3535 104.233H75.4663" fill="#FDD406"/>
<path d="M58.7436 44.8592L60.0148 48.7715H64.1292L60.8007 51.1891L62.0724 55.1013L58.7439 52.6837L55.4159 55.1013L56.6871 51.1891L53.3599 48.7715H57.4721" fill="#FDD406"/>
<path d="M94.6814 94.5009L95.9518 98.4132H100.066L96.7382 100.831L98.0099 104.744L94.6814 102.326L91.3534 104.744L92.6246 100.831L89.2966 98.4132H93.4094M59.3721 94.9644L60.6433 98.8766H64.7569L61.4289 101.294L62.7001 105.207L59.3721 102.789L56.0441 105.207L57.3153 101.294L53.9873 98.8766H58.1009M94.1606 44.4108L95.4318 48.323H99.5454L96.2182 50.7406L97.4894 54.6529L94.1609 52.2353L90.8329 54.6529L92.1041 50.7406L88.7769 48.323H92.8897" fill="#FDD406"/>
</g>
<defs>
<clipPath id="clip0_909_308274">
<rect width="204" height="120" fill="white"/>
</clipPath>
</defs>
</svg>
