<svg width="204" height="120" viewBox="0 0 204 120" fill="none" xmlns="http://www.w3.org/2000/svg">
<g clip-path="url(#clip0_468_1094)">
<path d="M0 120H204V0H0V120Z" fill="#003893"/>
<path d="M0 90.6719H203.924V80.4639H0V90.6719Z" fill="white"/>
<path d="M0 85.1997H204V60.0461H0V85.1997Z" fill="white"/>
<path d="M0 80.459H204V70.251H0V80.459Z" fill="#CF2027"/>
<path d="M47.9904 80.459L49.2608 84.3619H53.3744L50.0472 86.7752L51.3184 90.679L47.9904 88.2664L44.6619 90.679L45.9336 86.7752L42.6056 84.3619H46.7184M47.6496 60.0312L48.9208 63.9334H53.0344L49.7064 66.3454L50.9776 70.2483L47.6496 67.8363L44.3216 70.2483L45.5928 66.3454L42.2656 63.9334H46.3784M105.811 60.044L107.082 63.9384H111.196L107.868 66.3462L109.139 70.2406L105.811 67.8336L102.483 70.2406L103.754 66.3462L100.426 63.9384H104.539" fill="#F7D116"/>
<path d="M105.431 80.4698L106.702 84.365H110.816L107.488 86.7728L108.759 90.668L105.431 88.261L102.104 90.668L103.374 86.7728L100.047 84.365H104.16" fill="#F7D116"/>
<path d="M76.7236 39.0254L77.9948 42.9377H82.1092L78.7806 45.3553L80.0524 49.2676L76.7238 46.85L73.3958 49.2676L74.667 45.3553L71.3398 42.9377H75.4521" fill="#F7D116"/>
<path d="M76.7393 100.321L78.0097 104.233H82.1233L78.7961 106.651L80.0673 110.563L76.7393 108.146L73.4108 110.563L74.6825 106.651L71.3545 104.233H75.4673" fill="#F7D116"/>
<path d="M58.7441 44.8592L60.0153 48.7715H64.1297L60.8012 51.1891L62.0729 55.1013L58.7444 52.6837L55.4164 55.1013L56.6875 51.1891L53.3604 48.7715H57.4726" fill="#F7D116"/>
<path d="M94.6824 94.5009L95.9528 98.4132H100.067L96.7392 100.831L98.0109 104.744L94.6824 102.326L91.3544 104.744L92.6256 100.831L89.2976 98.4132H93.4104M59.3731 94.9644L60.6443 98.8766H64.7579L61.4299 101.294L62.7011 105.207L59.3731 102.789L56.0451 105.207L57.3163 101.294L53.9883 98.8766H58.1019M94.1616 44.4108L95.4328 48.323H99.5464L96.2192 50.7406L97.4904 54.6529L94.1619 52.2353L90.8339 54.6529L92.1051 50.7406L88.7779 48.323H92.8907" fill="#F7D116"/>
</g>
<defs>
<clipPath id="clip0_468_1094">
<rect width="204" height="120" fill="white"/>
</clipPath>
</defs>
</svg>
