<svg width="165" height="120" viewBox="0 0 165 120" fill="none" xmlns="http://www.w3.org/2000/svg">
<g clip-path="url(#clip0_909_101771)">
<path d="M0 0H165V120H0V0Z" fill="white"/>
<path d="M0 11.25H165V30H0V11.25Z" fill="#0F3296"/>
<path d="M0 90H165V108.75H0V90Z" fill="#0F3296"/>
<path fill-rule="evenodd" clip-rule="evenodd" d="M82.5 34.0192L90 47.0096H105L97.5 60L105 72.9904H90L82.5 85.9808L75 72.9904H60L67.5 60L60 47.0096H75L82.5 34.0192ZM72.6184 51.1346H67.1447L69.8816 55.875L72.6184 51.1346ZM72.2631 60L77.3816 51.1346H87.6184L92.7369 60L87.6184 68.8654H77.3816L72.2631 60ZM69.8816 64.125L67.1447 68.8654H72.6184L69.8816 64.125ZM79.7631 72.9904L82.5 77.7308L85.2369 72.9904H79.7631ZM92.3816 68.8654H97.8553L95.1184 64.125L92.3816 68.8654ZM95.1184 55.875L97.8553 51.1346H92.3816L95.1184 55.875ZM85.2369 47.0096H79.7631L82.5 42.2692L85.2369 47.0096Z" fill="#0F3296"/>
</g>
<defs>
<clipPath id="clip0_909_101771">
<rect width="165" height="120" fill="white"/>
</clipPath>
</defs>
</svg>
