<svg width="228" height="120" viewBox="0 0 228 120" fill="none" xmlns="http://www.w3.org/2000/svg">
<g clip-path="url(#clip0_909_308852)">
<path d="M0 0H228V120H0V0Z" fill="#D91C16"/>
<path fill-rule="evenodd" clip-rule="evenodd" d="M228 21.8183H0V10.9092H228V21.8183ZM0 32.7274H228V43.6365H0V32.7274Z" fill="white"/>
<path d="M0 0H54.5454V60H0V0Z" fill="#021455"/>
<path fill-rule="evenodd" clip-rule="evenodd" d="M228 65.4545H0V54.5454H228V65.4545ZM0 76.3636H228V87.2727H0V76.3636ZM228 109.091H0V98.1818H228V109.091Z" fill="white"/>
<path d="M11.7095 22.2161L21.3284 29.2046L17.6546 40.5113L27.2726 33.5234L36.8905 40.5112L33.2168 29.2047L42.8357 22.2162H30.9464L27.2726 10.9092L23.5987 22.2161H11.7095Z" fill="white"/>
</g>
<defs>
<clipPath id="clip0_909_308852">
<rect width="228" height="120" fill="white"/>
</clipPath>
</defs>
</svg>
