<svg width="228" height="120" viewBox="0 0 228 120" fill="none" xmlns="http://www.w3.org/2000/svg">
<g clip-path="url(#clip0_342_91)">
<path d="M0 120V0H228V120H0Z" fill="#0F3296"/>
<path d="M0 116.258L228 0V24.0203L0 118.5V116.258Z" fill="#F4812F"/>
<path d="M0 118.08L228 23.5V47.0249L0 120V118.08Z" fill="white"/>
<path d="M44.9279 32.4L50.5279 18.4L48.1279 33.2L56.9279 21.2L50.5279 34.8L62.1279 25.2L52.9279 36.8L66.5279 30.8L54.5279 39.6L69.3279 37.2L54.9279 42.8L80.5279 44L54.9279 45.6L69.3279 51.2L54.5279 48.8L66.5279 57.6L52.9279 51.2L62.1279 62.8L50.5279 53.6L56.9279 67.2L48.1279 55.2L50.5279 70L44.9279 55.6L43.3279 81.2L42.1279 55.6L36.5279 70L38.9279 55.2L30.1279 67.2L36.1279 53.6L24.5279 62.8L34.1279 51.2L20.5279 57.6L32.5279 48.8L17.7279 51.2L31.7279 45.6L6.12793 44L31.7279 42.8L17.7279 37.2L32.5279 39.6L20.5279 30.8L34.1279 36.8L24.5279 25.2L36.1279 34.8L30.1279 21.2L38.9279 33.2L36.5279 18.4L42.1279 32.4L43.3279 6.80005L44.9279 32.4Z" fill="white"/>
</g>
<defs>
<clipPath id="clip0_342_91">
<rect width="228" height="120" fill="white"/>
</clipPath>
</defs>
</svg>
