<svg width="98" height="120" viewBox="0 0 98 120" fill="none" xmlns="http://www.w3.org/2000/svg">
<g clip-path="url(#clip0_909_225571)">
<path d="M3.53589 6.41504L85.6921 58.0943H27.5989L85.6921 116.448H3.53589V6.41504Z" fill="#D91C16"/>
<path fill-rule="evenodd" clip-rule="evenodd" d="M98.0009 61.6461H36.1356L94.2288 120H0V0L98.0009 61.6461ZM27.599 58.0943H85.6922L3.53598 6.41507V116.448H85.6922L27.599 58.0943Z" fill="#0F3296"/>
<path d="M26.9883 39.295L26.1381 35.9456L24.075 38.7152L22.0119 35.9456L21.1616 39.295L21.1589 39.2961L18.1998 37.5317L18.6906 40.9554L15.2822 40.4624L17.0387 43.4347L17.0376 43.4375L13.7031 44.2916L16.4604 46.3639L15.0597 47.4166C14.7597 47.2366 14.4644 47.0473 14.1744 46.8488C11.2557 44.8509 9.00374 42.0164 7.71182 38.7146C7.71182 43.0738 9.43579 47.2545 12.5045 50.337C15.5732 53.4194 19.7352 55.1511 24.075 55.1511C28.4148 55.1511 32.5768 53.4194 35.6455 50.337C38.7142 47.2545 40.4381 43.0738 40.4381 38.7146C39.1462 42.0164 36.8942 44.8509 33.9756 46.8488C33.6855 47.0473 33.3903 47.2366 33.0902 47.4166L31.6896 46.3639L34.4468 44.2916L31.1124 43.4375L31.1112 43.4347L32.8678 40.4624L29.4593 40.9554L29.9501 37.5317L26.9911 39.2961L26.9883 39.295Z" fill="white"/>
<path d="M41.6565 87.2715L34.8488 90.169L34.8476 90.1732L39.301 96.1017L31.9596 95.1914L32.8657 102.566L26.9637 98.0925C26.9623 98.0929 26.961 98.0932 26.9596 98.0936L24.075 104.932L21.1904 98.0936L21.1862 98.0925L15.2842 102.566L16.1904 95.1914L8.84889 96.1017L13.3023 90.1732L13.3012 90.169L6.49341 87.2715L13.3012 84.3739L13.3023 84.3697L8.84889 78.4412L16.1904 79.3515L15.2842 71.9771L21.1862 76.4505L21.1904 76.4493L24.075 69.611L26.9596 76.4493L26.9637 76.4505L32.8657 71.9771L31.9596 79.3515L39.301 78.4412L34.8476 84.3697L34.8488 84.3739L41.6565 87.2715Z" fill="white"/>
</g>
<defs>
<clipPath id="clip0_909_225571">
<rect width="98" height="120" fill="white"/>
</clipPath>
</defs>
</svg>
