<svg width="219" height="120" viewBox="0 0 219 120" fill="none" xmlns="http://www.w3.org/2000/svg">
<g clip-path="url(#clip0_909_261812)">
<path d="M0 0H218.18V120H0V0Z" fill="#0F3296"/>
<path d="M0 0H218.18V80H0V0Z" fill="white"/>
<path d="M0 0H218.182V40H0V0Z" fill="#D91C16"/>
<path d="M124.305 59.996C124.305 68.3992 117.497 75.2102 109.094 75.2102C100.695 75.2102 93.8844 68.3993 93.8844 59.996C93.8844 51.5963 100.696 44.7898 109.094 44.7898C117.497 44.7898 124.305 51.5963 124.305 59.996Z" fill="white"/>
<path d="M109.093 75.5454C100.522 75.5454 93.5485 68.5699 93.5485 59.996C93.5485 51.4264 100.522 44.4546 109.093 44.4546C117.665 44.4546 124.639 51.4264 124.639 59.996C124.639 68.5699 117.665 75.5454 109.093 75.5454ZM109.093 45.1249C100.892 45.1249 94.2187 51.796 94.2187 59.996C94.2187 68.2002 100.892 74.875 109.093 74.875C117.296 74.875 123.969 68.2002 123.969 59.996C123.969 51.796 117.296 45.1249 109.093 45.1249Z" fill="black"/>
<path d="M116.449 57.64C116.08 57.6255 116.078 58.0324 116.078 58.0324C116.078 58.0324 116.09 57.912 116.08 58.0488C116.073 58.1838 116.14 58.5133 116.413 58.5402C116.701 58.5655 116.797 58.2291 116.799 58.0658C116.799 58.0011 116.778 57.6484 116.449 57.6404" fill="#1E9A1C"/>
<path d="M116.442 58.6311C116.43 58.6311 116.418 58.6306 116.405 58.6295C116.07 58.5963 115.981 58.2208 115.99 58.0441C115.99 58.0399 115.991 58.0359 115.991 58.0321L115.988 58.032C115.988 58.0225 115.991 57.7999 116.137 57.6598C116.218 57.5823 116.324 57.5466 116.452 57.5506V57.5509C116.796 57.5601 116.888 57.8788 116.888 58.0659C116.887 58.1779 116.845 58.4006 116.698 58.5328C116.627 58.5976 116.539 58.6311 116.442 58.6311ZM116.171 57.9877C116.172 58.0097 116.171 58.0331 116.169 58.0557C116.164 58.1525 116.214 58.4307 116.422 58.4512C116.482 58.4568 116.534 58.4398 116.578 58.3999C116.672 58.3154 116.708 58.153 116.709 58.0646C116.709 58.0108 116.696 57.7361 116.447 57.7299L116.449 57.6396L116.445 57.7296C116.369 57.7258 116.307 57.7457 116.262 57.7887C116.201 57.8463 116.179 57.9346 116.171 57.9877Z" fill="black"/>
<path d="M99.553 66.0851L99.4227 65.8693C99.4096 65.8453 99.3756 65.8057 99.3212 65.7466C99.2954 65.7175 99.2593 65.6997 99.2205 65.697C99.1794 65.691 99.1375 65.6995 99.1019 65.721C99.0514 65.7519 99.0183 65.7931 99.0129 65.8437C99.0032 65.8951 99.0272 65.9659 99.0843 66.0613L99.2161 66.2859L99.553 66.0851ZM100.84 66.011L99.1858 66.995L98.6807 66.1462C98.587 65.987 98.5301 65.8604 98.5079 65.7604C98.4819 65.6588 98.4943 65.5635 98.5363 65.4688C98.5781 65.3731 98.6541 65.2935 98.7599 65.23C98.8413 65.1804 98.9338 65.1519 99.029 65.147C99.1217 65.147 99.2063 65.1699 99.2883 65.2133C99.3388 65.2424 99.3977 65.2875 99.4619 65.353C99.4467 65.2822 99.4379 65.2264 99.4414 65.1831C99.4469 65.1575 99.4585 65.1151 99.4816 65.0504C99.5039 64.9886 99.5252 64.9453 99.5385 64.9179L99.8728 64.3855L100.214 64.9637L99.8728 65.5377C99.8301 65.6102 99.8041 65.666 99.8007 65.705C99.7987 65.7588 99.8105 65.8057 99.8361 65.8517L99.8645 65.8986L100.535 65.4997L100.84 66.011ZM97.9276 64.6637L97.4225 63.1542L97.8119 63.0233L98.1283 63.9695L98.4203 63.8713L98.1228 62.9931L98.497 62.8711L98.7908 63.745L99.149 63.6291L98.8258 62.6555L99.239 62.5148L99.7521 64.0526L97.9276 64.6637ZM97.9814 61.591L97.961 61.4497C97.9478 61.3319 97.9192 61.2559 97.8756 61.2162C97.8313 61.1764 97.7718 61.1577 97.7127 61.165C97.6538 61.1746 97.6058 61.1995 97.569 61.2408C97.5309 61.287 97.5181 61.363 97.5341 61.4735L97.5503 61.6433L97.9814 61.591ZM97.233 62.2801L97.1183 61.2993C97.0952 61.0888 97.1256 60.9208 97.2136 60.8022C97.3045 60.6848 97.4436 60.614 97.6305 60.5928C97.823 60.5688 97.9825 60.6102 98.1036 60.7122C98.2232 60.8157 98.2997 60.988 98.3283 61.225L98.3647 61.5479L99.073 61.4655L99.1425 62.059L97.233 62.2801ZM97.1663 58.5273L97.2277 57.9364L98.3699 58.0593C98.4776 58.0716 98.5826 58.1012 98.6808 58.147C98.7783 58.1905 98.8634 58.2576 98.9285 58.3422C98.9945 58.4273 99.0408 58.5086 99.0623 58.5962C99.0914 58.7119 99.0996 58.8535 99.0808 59.0162C99.0701 59.1176 99.0523 59.2181 99.0274 59.317C99.0034 59.4255 98.9661 59.5151 98.9196 59.5841C98.8702 59.6576 98.8073 59.7212 98.7343 59.7713C98.6642 59.8209 98.5843 59.855 98.4999 59.8713C98.3734 59.8971 98.2648 59.9022 98.1705 59.8917L97.0336 59.7717L97.0948 59.1799L98.2614 59.3064C98.3665 59.317 98.4501 59.2975 98.515 59.2442C98.5803 59.192 98.6168 59.1162 98.6292 59.0162C98.6401 58.9108 98.6185 58.8297 98.5676 58.767C98.517 58.7022 98.4385 58.666 98.3325 58.6537L97.1663 58.5273ZM99.0796 56.9106L99.1821 56.6259C99.2132 56.5295 99.2221 56.455 99.2009 56.4011C99.1803 56.3499 99.1372 56.3111 99.0841 56.2961C99.0268 56.2764 98.9798 56.2801 98.9336 56.3084C98.8856 56.3375 98.8443 56.3993 98.8114 56.4957L98.7099 56.7822L99.0796 56.9106ZM98.3661 56.6604L98.4525 56.4188C98.4816 56.3304 98.4897 56.2633 98.4683 56.2181C98.4525 56.1746 98.4148 56.1402 98.357 56.1235C98.3115 56.1045 98.2599 56.1068 98.2163 56.1297C98.1745 56.1544 98.1396 56.2073 98.1112 56.2924L98.021 56.5408L98.3661 56.6604ZM97.4579 56.9795L97.8234 55.9264C97.8867 55.7511 97.9767 55.6344 98.0977 55.5682C98.2119 55.507 98.3467 55.4969 98.4687 55.5406C98.5736 55.5821 98.6536 55.6461 98.709 55.7397C98.7417 55.8015 98.7625 55.883 98.7625 55.9775C98.8381 55.8575 98.9254 55.7811 99.0225 55.7484C99.1214 55.7131 99.2292 55.715 99.3459 55.7557C99.4376 55.7873 99.5143 55.8395 99.575 55.9084C99.6328 55.9811 99.671 56.0608 99.6899 56.151C99.6987 56.2092 99.6943 56.287 99.6738 56.3835C99.6436 56.5188 99.6258 56.6044 99.6105 56.6444L99.2719 57.6135L97.4579 56.9795ZM98.4383 54.515L98.7492 54.0075L99.9876 54.7581L100.47 53.9661L100.873 54.2126L100.088 55.5117L98.4383 54.515ZM99.7085 52.623L100.091 52.1675L101.558 53.4081L101.175 53.8635L99.7085 52.623ZM102.373 51.5891L102.873 51.3753C102.938 51.5099 102.974 51.6379 102.979 51.7635C102.984 51.8839 102.96 52.0037 102.908 52.1126C102.851 52.2231 102.758 52.3302 102.629 52.4426C102.466 52.5753 102.316 52.6619 102.175 52.6999C102.035 52.7362 101.878 52.7273 101.704 52.6724C101.535 52.6168 101.375 52.4957 101.22 52.3142C101.018 52.0679 100.926 51.8262 100.946 51.5891C100.966 51.3479 101.096 51.1311 101.333 50.9313C101.521 50.7757 101.696 50.6944 101.867 50.6811C102.035 50.6651 102.213 50.7157 102.392 50.8279L102.064 51.2541C102.014 51.2213 101.972 51.1995 101.936 51.1922C101.884 51.1766 101.829 51.176 101.777 51.1904C101.723 51.2023 101.673 51.2272 101.63 51.263C101.526 51.3502 101.481 51.4582 101.496 51.5873C101.505 51.6837 101.566 51.7962 101.673 51.9297C101.811 52.0933 101.931 52.185 102.029 52.2037C102.132 52.225 102.227 52.1959 102.316 52.1215C102.403 52.0473 102.45 51.9695 102.452 51.8846C102.454 51.7942 102.43 51.6962 102.373 51.5891ZM104.319 50.4337L103.816 49.9137L103.943 50.6271L104.319 50.4337ZM104.618 50.7493L104.016 51.0555L104.078 51.3817L103.537 51.6566L103.308 49.6148L103.886 49.3193L105.403 50.7053L104.85 50.9882L104.618 50.7493ZM106.957 48.7448L107.105 49.783L107.249 49.7617C107.373 49.7464 107.46 49.7191 107.508 49.6846C107.556 49.6466 107.588 49.598 107.607 49.5219C107.629 49.4511 107.629 49.3408 107.607 49.1868C107.578 48.986 107.525 48.8517 107.45 48.7879C107.373 48.7242 107.258 48.7013 107.105 48.7242L106.957 48.7448ZM106.31 48.3971L107.183 48.2715C107.355 48.2486 107.495 48.2502 107.607 48.2822C107.723 48.315 107.818 48.3679 107.902 48.4459C107.984 48.5235 108.048 48.6182 108.095 48.7288C108.145 48.8446 108.178 48.9669 108.194 49.092C108.226 49.2937 108.226 49.4564 108.193 49.5722C108.165 49.6859 108.114 49.7923 108.041 49.8842C107.968 49.9702 107.887 50.0348 107.797 50.071C107.687 50.1215 107.571 50.1569 107.452 50.1762L106.577 50.2993L106.31 48.3971ZM108.927 48.0244L110.514 48.1421L110.484 48.5513L109.491 48.4771L109.468 48.7822L110.389 48.8502L110.356 49.2402L109.439 49.1748L109.412 49.5499L110.434 49.6257L110.402 50.059L108.785 49.9397L108.927 48.0244ZM111.372 48.2488L111.943 48.4081L111.548 49.8053L112.44 50.0573L112.31 50.51L110.846 50.0955L111.372 48.2488ZM114.615 50.3819L114.738 50.4615C114.833 50.5242 114.913 50.5508 114.971 50.5444C115.03 50.5403 115.083 50.5072 115.113 50.456C115.144 50.4075 115.156 50.3528 115.149 50.2933C115.137 50.237 115.085 50.1795 114.992 50.1184L114.85 50.0228L114.615 50.3819ZM114.568 49.3693L115.394 49.9142C115.573 50.0317 115.678 50.1644 115.71 50.3075C115.745 50.4526 115.71 50.6048 115.604 50.7622C115.501 50.9222 115.367 51.0161 115.209 51.0433C115.048 51.069 114.873 51.0195 114.672 50.8877L114.401 50.7073L114.01 51.3024L113.512 50.9726L114.568 49.3693ZM116.654 52.3006L116.989 51.6597L116.353 52.0037L116.654 52.3006ZM116.451 52.6826L115.968 52.2088L115.678 52.3681L115.246 51.9435L116.134 51.5333L117.113 51.0811L117.572 51.5359L116.737 53.415L116.295 52.9764L116.451 52.6826ZM118.236 53.5166L118.372 53.7306C118.388 53.7521 118.417 53.7935 118.478 53.8499C118.506 53.8772 118.542 53.8933 118.581 53.8951C118.621 53.8999 118.662 53.8898 118.695 53.8668C118.746 53.8341 118.774 53.7935 118.784 53.7413C118.79 53.6917 118.764 53.6173 118.704 53.5273L118.567 53.3081L118.236 53.5166ZM116.951 53.6306L118.571 52.5961L119.103 53.4299C119.202 53.5837 119.265 53.7102 119.295 53.8084C119.318 53.9059 119.309 54.0081 119.27 54.1002C119.23 54.1975 119.158 54.2781 119.057 54.3446C118.965 54.4028 118.877 54.4355 118.786 54.4355C118.7 54.4408 118.612 54.4188 118.525 54.3822C118.462 54.3433 118.403 54.2974 118.35 54.2453C118.366 54.3161 118.377 54.3735 118.375 54.4133C118.367 54.4583 118.356 54.5026 118.341 54.5461C118.327 54.5933 118.308 54.6389 118.284 54.6821L117.97 55.2252L117.606 54.6582L117.933 54.0764C117.976 53.9986 117.998 53.943 117.998 53.9041C117.999 53.8517 117.991 53.8022 117.957 53.7579L117.931 53.7139L117.272 54.1339L116.951 53.6306ZM119.223 56.2197L119.799 55.7846L119.079 55.8246L119.223 56.2197ZM118.873 56.4771L118.642 55.8413L118.314 55.8642L118.105 55.2939L120.159 55.3179L120.381 55.9244L118.821 57.2615L118.607 56.6742L118.873 56.4771ZM119.793 58.5219L120.189 58.4697L120.303 59.3861L119.49 59.4842C119.353 59.325 119.248 59.1824 119.192 59.0524C119.129 58.9235 119.089 58.767 119.066 58.5839C119.037 58.3575 119.052 58.1682 119.115 58.0161C119.172 57.8641 119.274 57.7375 119.416 57.6375C119.56 57.543 119.729 57.4802 119.926 57.4564C120.133 57.4292 120.321 57.4502 120.485 57.5182C120.649 57.5837 120.781 57.6942 120.884 57.8499C120.963 57.973 121.015 58.1419 121.04 58.3612C121.07 58.5706 121.07 58.7306 121.042 58.8395C121.021 58.9458 120.971 59.0442 120.897 59.1232C120.819 59.2085 120.722 59.2746 120.614 59.3161L120.442 58.7615C120.51 58.7272 120.561 58.6832 120.591 58.6201C120.622 58.5601 120.63 58.4839 120.622 58.4008C120.601 58.2699 120.548 58.1728 120.45 58.1073C120.349 58.0419 120.201 58.0213 120.007 58.0455C119.8 58.071 119.66 58.1302 119.579 58.2161C119.503 58.3062 119.474 58.4219 119.488 58.5601C119.496 58.6255 119.515 58.6866 119.54 58.7432C119.568 58.8032 119.608 58.8642 119.663 58.9404L119.844 58.9155L119.793 58.5219ZM121.01 61.4048L120.942 61.9935L119.806 61.8653C119.697 61.8535 119.591 61.8233 119.492 61.7759C119.396 61.7304 119.312 61.6636 119.246 61.5806C119.181 61.4977 119.136 61.4133 119.115 61.3286C119.087 61.2057 119.08 61.0677 119.099 60.9059C119.112 60.8139 119.13 60.7122 119.152 60.6035C119.178 60.4946 119.216 60.4062 119.264 60.3373C119.314 60.2655 119.376 60.2029 119.448 60.1524C119.531 60.1002 119.608 60.0675 119.684 60.0542C119.809 60.0304 119.92 60.0226 120.014 60.0368L121.153 60.1666L121.085 60.7539L119.92 60.6201C119.814 60.6088 119.731 60.6273 119.665 60.6795C119.601 60.7324 119.562 60.8068 119.552 60.9086C119.54 61.0128 119.56 61.0951 119.611 61.1579C119.661 61.2215 119.74 61.2597 119.844 61.2755L121.01 61.4048ZM119.241 63.5928L119.965 63.6186L119.38 63.1922L119.241 63.5928ZM118.811 63.571L119.03 62.9333L118.762 62.7413L118.962 62.1675L120.542 63.4808L120.325 64.0951L118.276 64.1455L118.478 63.5566L118.811 63.571ZM119.872 65.3408L119.538 65.9093L118.781 65.9119L119.143 66.577L118.811 67.1386L118.227 65.9277L117.534 65.5193L117.838 65.0055L118.53 65.4168L119.872 65.3408Z" fill="black"/>
<path d="M109.092 72.8702C101.997 72.8702 96.225 67.0971 96.225 60.0009C96.225 52.908 101.997 47.1375 109.092 47.1375C116.186 47.1375 121.958 52.9078 121.958 60.0006L121.958 60.0007C121.958 67.097 116.186 72.8702 109.092 72.8702ZM109.092 47.4056C102.145 47.4056 96.4931 53.0559 96.4931 60.0009C96.4931 66.9492 102.145 72.6021 109.092 72.6021C116.039 72.6021 121.69 66.9491 121.69 60.0007C121.689 53.0558 116.038 47.4056 109.092 47.4056Z" fill="black"/>
<path d="M109.093 69.5665C103.794 69.5665 99.4828 65.2548 99.4828 59.9553C99.4828 54.6579 103.794 50.3481 109.092 50.3481C114.391 50.3481 118.701 54.6579 118.701 59.9553C118.701 65.2548 114.391 69.5665 109.093 69.5665ZM109.092 50.6163C103.942 50.6163 99.7509 54.8058 99.7509 59.9553C99.7509 65.1071 103.942 69.2983 109.093 69.2983C114.243 69.2983 118.433 65.1071 118.433 59.9553C118.433 57.461 117.461 55.1159 115.698 53.352C113.933 51.5878 111.588 50.6163 109.092 50.6163Z" fill="black"/>
<path d="M109.091 56.5474L109.887 58.8255L112.295 58.8794L110.376 60.3386L111.074 62.6474L109.091 61.275L107.108 62.6474L107.802 60.3386L105.88 58.8794L108.293 58.8255L109.091 56.5474Z" fill="#FDD406"/>
<path d="M111.171 62.7817L109.091 61.3417L107.01 62.7813L107.739 60.3595L105.722 58.8283L108.254 58.7718L109.091 56.3818L109.926 58.7718L112.453 58.8283L110.439 60.3595L111.171 62.7817ZM106.038 58.9308L107.865 60.3183L107.205 62.5134L109.091 61.2085L110.976 62.5132L110.313 60.3183L112.137 58.9308L109.848 58.8796L109.091 56.7133L108.332 58.8796L106.038 58.9308Z" fill="black"/>
<path d="M113.466 66.4963C113.386 66.5635 113.062 66.5997 112.977 66.6141C112.89 66.6254 112.551 66.6288 112.407 66.6341C112.328 66.6395 112.176 66.6615 112.096 66.6615C111.4 66.5823 113.227 66.5934 113.466 66.4961M111.642 65.9579C111.688 65.8764 111.916 65.3688 111.998 65.2246C112.081 65.083 112.27 64.7054 112.383 64.5483C112.441 64.4632 112.668 64.2166 112.723 64.327C112.327 64.6688 112.015 65.2657 111.849 65.667C111.828 65.7103 111.698 65.9337 111.65 65.9923C111.603 66.0495 111.622 66.1581 111.549 66.1668C111.472 66.1764 111.526 66.1904 111.526 66.1904C111.526 66.1904 111.592 66.0435 111.642 65.9577V65.9579ZM114.266 66.3461C114.266 66.3461 113.951 66.299 113.756 66.2301C113.562 66.1646 113.236 66.1145 112.958 66.1214C112.683 66.125 112.431 66.2081 112.206 66.2937C111.982 66.3768 111.693 66.3839 111.693 66.3839C111.693 66.3839 111.529 66.4095 111.606 66.3717C111.678 66.3354 111.932 66.1372 111.932 66.1372L112.096 65.9126C112.144 65.8995 112.976 64.8077 112.885 64.5146C113.013 64.299 113.162 63.9141 113.106 63.847C113.079 63.8197 112.458 64.0441 112.322 64.1677C112.164 64.3041 112.053 64.5881 112.006 64.7517C111.959 64.9143 111.72 65.0486 111.72 65.0486C111.526 65.1883 111.386 65.6305 111.32 65.9923C111.253 66.3494 110.373 66.5474 110.373 66.5474C110.373 66.5474 110.128 66.6385 110.345 66.7074C110.382 66.7179 110.479 66.8814 110.557 66.8839C110.664 66.8965 111.211 66.6625 111.296 66.681C111.481 66.7231 111.665 66.7733 111.846 66.8316C112.055 66.9023 112.227 66.9385 112.372 66.8846C112.52 66.8314 112.732 66.8519 112.89 66.8828C113.046 66.9165 113.221 66.9023 113.321 66.8712C113.429 66.8385 113.713 66.681 113.713 66.681C113.713 66.681 114.019 66.5483 114.196 66.4652C114.374 66.3823 114.266 66.3461 114.266 66.3461Z" fill="#1E9A1C"/>
<path d="M112.218 66.9787C112.09 66.9787 111.955 66.9407 111.824 66.8965C111.647 66.8395 111.464 66.7893 111.281 66.7477C111.245 66.7511 111.075 66.8049 110.962 66.8436C110.749 66.9159 110.615 66.9619 110.549 66.9519C110.477 66.9498 110.411 66.874 110.357 66.8131C110.343 66.7966 110.323 66.7737 110.316 66.7683C110.291 66.7619 110.189 66.7296 110.187 66.6431C110.185 66.5538 110.3 66.5015 110.349 66.483C110.59 66.4279 111.205 66.2358 111.253 65.9796C111.286 65.7966 111.416 65.1836 111.681 64.9929C111.747 64.9551 111.908 64.8434 111.94 64.733C111.961 64.66 112.076 64.2898 112.277 64.1158C112.354 64.0466 113.062 63.7048 113.155 63.799C113.265 63.9303 113.02 64.4095 112.958 64.5245C112.971 64.6012 112.954 64.7412 112.787 65.0466C112.628 65.3381 112.282 65.8346 112.152 65.9533L111.975 66.1911C111.962 66.2016 111.896 66.2525 111.824 66.3056C111.926 66.2948 112.065 66.2731 112.183 66.2294C112.417 66.1401 112.673 66.0567 112.957 66.0528C113.224 66.0474 113.562 66.0924 113.778 66.165C113.966 66.2312 114.273 66.2779 114.276 66.2783L114.267 66.3431L114.288 66.2809C114.323 66.2927 114.364 66.3244 114.367 66.3752C114.371 66.4494 114.294 66.4954 114.226 66.5272C114.048 66.6105 113.74 66.7438 113.74 66.7438C113.716 66.7573 113.453 66.9029 113.341 66.9366C113.234 66.97 113.048 66.9873 112.876 66.9498C112.76 66.9272 112.541 66.8963 112.396 66.9491C112.339 66.97 112.28 66.9787 112.218 66.9787ZM111.285 66.6115C111.295 66.6115 111.303 66.6124 111.31 66.614C111.498 66.6565 111.685 66.7078 111.867 66.7662C112.038 66.8241 112.213 66.8702 112.349 66.8203C112.517 66.7596 112.743 66.7843 112.904 66.8156C113.052 66.8477 113.214 66.833 113.301 66.8056C113.384 66.7806 113.602 66.6639 113.68 66.6211C113.686 66.6179 113.991 66.4858 114.167 66.4029L114.173 66.4003C114.065 66.3813 113.872 66.3436 113.734 66.2946C113.532 66.2268 113.213 66.1852 112.96 66.1898C112.696 66.1934 112.454 66.2726 112.231 66.3578C111.998 66.4441 111.707 66.4521 111.695 66.4525C111.624 66.4638 111.542 66.477 111.52 66.4084C111.513 66.3855 111.51 66.3422 111.575 66.3102C111.623 66.2866 111.786 66.1646 111.883 66.089L112.066 65.8502C112.192 65.7317 112.889 64.7571 112.82 64.5348L112.811 64.5059L112.827 64.4798C112.937 64.2934 113.035 64.0316 113.049 63.9228C112.896 63.9636 112.472 64.1243 112.368 64.2184C112.233 64.3349 112.124 64.5885 112.072 64.7706C112.019 64.9549 111.781 65.0931 111.754 65.1083C111.583 65.2319 111.449 65.6691 111.387 66.0045C111.314 66.3949 110.482 66.5929 110.388 66.6142C110.376 66.619 110.36 66.627 110.347 66.6353C110.352 66.6373 110.359 66.6396 110.366 66.6419C110.398 66.651 110.423 66.6795 110.461 66.7229C110.484 66.7493 110.538 66.8111 110.56 66.8156C110.61 66.8179 110.794 66.7559 110.918 66.7138C111.121 66.6444 111.225 66.6115 111.285 66.6115ZM112.097 66.73C111.947 66.7133 111.868 66.7044 111.871 66.6275C111.874 66.5435 111.898 66.5423 112.51 66.5132C112.86 66.4963 113.34 66.4734 113.44 66.4326L113.466 66.4963L113.51 66.5487C113.434 66.6124 113.238 66.6451 113.044 66.6733L112.988 66.6817C112.923 66.6902 112.747 66.6943 112.591 66.6978C112.521 66.6994 112.455 66.7009 112.41 66.7026C112.382 66.7044 112.343 66.7088 112.3 66.7135C112.227 66.7215 112.148 66.73 112.097 66.73ZM111.565 66.2713L111.509 66.2568C111.455 66.2426 111.438 66.2053 111.44 66.1751C111.442 66.1403 111.464 66.1218 111.487 66.1117C111.511 66.0601 111.55 65.9798 111.583 65.9232C111.602 65.8884 111.652 65.7829 111.709 65.6614C111.794 65.4812 111.889 65.277 111.938 65.1907C111.967 65.1421 112.007 65.0675 112.052 64.9837C112.141 64.8196 112.251 64.6154 112.328 64.5082C112.329 64.5066 112.536 64.2229 112.689 64.2309C112.73 64.2339 112.765 64.2578 112.784 64.2967L112.808 64.3441L112.768 64.3788C112.319 64.7667 112 65.483 111.913 65.6932C111.891 65.7381 111.757 65.9691 111.703 66.0357C111.694 66.0469 111.688 66.0705 111.682 66.0933C111.67 66.1369 111.652 66.2071 111.584 66.2291L111.565 66.2713Z" fill="black"/>
<path d="M111.875 67.4083C111.875 67.4083 110.663 66.7743 110.598 66.7592C110.56 66.7539 110.048 66.4719 109.814 66.3992C109.645 66.3445 109.411 66.3301 109.328 66.3355C109.128 66.3495 108.802 66.4376 108.802 66.4376L109.103 66.5606C109.103 66.5606 109.386 66.6994 109.524 66.7737C109.722 66.8781 109.731 67.0052 109.731 67.0052L110.828 67.4879L111.051 67.6479C111.051 67.6479 111.253 67.3685 111.875 67.4083Z" fill="#1E9A1C"/>
<path d="M111.063 67.7231L110.797 67.5321L109.679 67.0418L109.677 67.0088C109.676 67.006 109.663 66.9087 109.499 66.822C109.361 66.7476 109.08 66.6096 109.08 66.6096L108.632 66.4268L108.789 66.3845C108.802 66.381 109.122 66.295 109.324 66.2808C109.413 66.2741 109.652 66.2888 109.832 66.347C109.985 66.3948 110.255 66.5305 110.434 66.6201C110.513 66.6597 110.594 66.7006 110.611 66.7057C110.678 66.7212 111.615 67.2101 111.901 67.3596L111.872 67.4628C111.293 67.4246 111.097 67.6776 111.095 67.6801L111.063 67.7231ZM109.779 66.9662L110.851 67.4376L111.044 67.5752C111.115 67.507 111.297 67.3751 111.651 67.3527C111.203 67.1198 110.637 66.8286 110.585 66.8119C110.57 66.8105 110.539 66.795 110.385 66.718C110.21 66.6299 109.944 66.4965 109.799 66.4513C109.642 66.4007 109.415 66.384 109.332 66.39C109.228 66.3973 109.088 66.4257 108.979 66.4504L109.125 66.5099C109.128 66.5113 109.412 66.6507 109.551 66.7254C109.713 66.811 109.763 66.9129 109.779 66.9662Z" fill="black"/>
<path d="M113.095 64.8912C113.476 64.5512 113.663 64.0679 113.976 63.8003C114.027 63.8366 114.027 63.8973 113.965 64.0044C113.906 64.1099 113.827 64.1463 113.792 64.2012C113.728 64.287 113.537 64.4455 113.486 64.5408C113.44 64.631 113.381 64.7572 113.214 64.8532C113.049 64.9521 113.101 65.1093 113.087 65.1753C113.074 65.2481 112.819 65.4306 112.696 65.6563C112.672 65.8915 112.662 65.7928 112.519 65.8764C112.779 65.485 112.915 65.2328 113.095 64.891M112.239 65.9668C112.214 66.0182 111.462 66.445 111.697 66.3817C111.931 66.3203 112.626 66.0695 112.823 65.9817C113.064 65.8764 113.209 65.6553 113.39 65.4757C113.575 65.2921 114.147 64.7453 114.246 64.5346C114.343 64.3175 114.431 64.0157 114.043 63.3379C114.043 63.3379 113.983 63.4675 113.838 63.5943C113.695 63.7239 113.482 63.8673 113.482 63.8673L113.233 64.1024C113.233 64.1024 112.355 65.7161 112.239 65.967" fill="#1E9A1C"/>
<path d="M111.663 66.4598C111.634 66.4598 111.603 66.4506 111.586 66.4138C111.553 66.338 111.607 66.3004 111.941 66.0857C112.03 66.0293 112.148 65.9527 112.177 65.9272C112.309 65.6498 113.134 64.1333 113.17 64.0681L113.184 64.0502L113.433 63.8151C113.444 63.8062 113.652 63.6654 113.79 63.5408C113.92 63.4261 113.977 63.3085 113.977 63.3075L114.037 63.1821L114.105 63.3022C114.485 63.966 114.429 64.3009 114.312 64.5641C114.218 64.7636 113.763 65.2105 113.518 65.4508L113.441 65.5271C113.393 65.5745 113.348 65.625 113.303 65.6752C113.175 65.8176 113.042 65.9648 112.852 66.0481C112.648 66.1384 111.946 66.3909 111.716 66.4515C111.705 66.4543 111.685 66.4598 111.663 66.4598ZM112.299 65.9952L112.304 65.998C112.288 66.031 112.252 66.058 112.03 66.2006C112.315 66.1031 112.661 65.9747 112.794 65.916C112.956 65.8449 113.072 65.7157 113.195 65.5786C113.242 65.5262 113.289 65.4739 113.339 65.4245L113.417 65.3476C113.639 65.1305 114.099 64.6788 114.181 64.504C114.269 64.3048 114.337 64.0443 114.039 63.4808C114.003 63.5298 113.953 63.5896 113.886 63.6486C113.742 63.7794 113.531 63.9215 113.522 63.9273L113.291 64.1472C113.217 64.2835 112.413 65.7617 112.304 65.9975L112.299 65.9952ZM112.555 65.9389L112.459 65.8366C112.715 65.4497 112.852 65.1978 113.031 64.8576L113.076 64.8813C113.078 64.8792 113.079 64.8773 113.081 64.8753L113.047 64.8375C113.237 64.6679 113.378 64.46 113.514 64.259C113.646 64.0648 113.77 63.8812 113.929 63.7455L113.972 63.7089L114.018 63.7416C114.104 63.8029 114.107 63.9035 114.027 64.0408C113.987 64.1131 113.939 64.1566 113.9 64.1915C113.879 64.21 113.862 64.226 113.853 64.2397C113.82 64.2844 113.77 64.3345 113.717 64.3874C113.653 64.4504 113.574 64.5289 113.549 64.5751C113.499 64.6748 113.429 64.8126 113.25 64.9158C113.159 64.9701 113.161 65.0443 113.162 65.1163C113.162 65.1425 113.162 65.1672 113.158 65.1901C113.148 65.2418 113.098 65.2929 113.015 65.3776C112.933 65.4612 112.831 65.5648 112.766 65.6786C112.751 65.8251 112.737 65.8783 112.636 65.9059C112.615 65.9115 112.591 65.9181 112.555 65.9389ZM113.888 63.9914C113.873 64.0099 113.857 64.0289 113.841 64.0484C113.858 64.0321 113.873 64.0138 113.888 63.9914Z" fill="black"/>
<path d="M115.292 65.3991C115.292 65.3991 114.811 65.3561 114.769 65.3561C114.723 65.3561 114.46 65.3197 114.077 65.3197C113.697 65.3197 113.554 65.4513 113.455 65.5573C113.347 65.6761 113.047 65.9501 113.047 65.9501L113.209 65.9359C113.594 65.6362 113.893 65.746 114.013 65.7373C114.137 65.733 114.287 65.7453 114.673 65.609C115.063 65.4719 115.041 65.6002 114.998 65.6133C114.811 65.6805 114.615 65.72 114.417 65.7304C114.127 65.7464 113.872 65.8026 113.758 65.8026C113.643 65.8026 112.797 66.0344 112.797 66.0344C112.797 66.0344 113.713 66.0881 113.812 66.1208C113.91 66.1608 114.064 66.1421 114.191 66.081C114.543 65.9191 114.701 65.8882 114.845 65.8555C114.991 65.8273 115.164 65.7291 115.164 65.7291C115.164 65.7291 115.256 65.6706 115.342 65.5153C115.43 65.3561 115.292 65.3991 115.292 65.3991ZM115.741 62.8882C115.799 62.7448 115.944 62.4079 116.097 62.2753C116.19 62.1939 116.352 62.1559 116.437 62.1197C116.474 62.1073 116.737 62.0946 116.408 62.185C116.272 62.2213 116.087 62.3019 116.006 62.4391C115.891 62.7581 115.79 63.0361 115.577 63.2399C115.42 63.4044 115.321 63.6186 115.321 63.6186L115.153 63.6768C115.461 63.4882 115.595 63.1384 115.741 62.8882ZM117.231 62.7086C117.056 62.7671 116.994 62.8155 116.994 62.8155C116.601 62.9333 116.44 63.1799 116.268 63.3806C116.181 63.4857 116.058 63.5642 115.644 63.7419C115.265 63.9046 114.973 64.1561 114.965 64.1561C114.965 64.1561 114.845 64.1806 114.868 64.239C114.877 64.2666 114.98 64.2444 114.98 64.2444C114.98 64.2444 115.76 64.1331 116.085 63.9353C116.292 63.8051 116.41 63.7104 116.607 63.4062C116.695 63.2719 116.794 63.019 116.798 63.1817C116.813 63.6131 116.143 64.0315 115.851 64.1606C115.695 64.227 115.487 64.2544 115.214 64.2993C114.945 64.349 114.781 64.3341 114.801 64.2748C114.828 64.189 114.86 64.1711 114.931 64.0864C115.059 63.9335 115.369 63.8793 115.597 63.7722C115.867 63.6513 116.123 63.4733 116.251 63.3213C116.382 63.1677 116.427 63.111 116.463 62.9811C116.563 62.6413 116.568 62.4531 116.662 62.3319C116.991 61.926 117.039 61.7951 117.056 61.614C117.059 61.5722 116.885 61.7102 116.794 61.7606C116.616 61.8657 116.551 61.8657 116.187 61.9606C115.818 62.0526 115.826 62.2904 115.769 62.4028C115.752 62.4477 115.603 62.6344 115.531 62.669C115.46 62.7051 115.284 62.9588 115.219 63.1075C115.171 63.216 115.086 63.294 115.017 63.2853C114.945 63.2719 115.155 62.4859 115.201 62.3559C115.251 62.2268 115.261 61.9746 115.261 61.8897C115.261 61.8084 115.264 61.5944 115.122 61.5704C114.98 61.5464 114.973 61.3506 114.973 61.3506C114.632 61.646 114.823 62.1666 114.859 62.4751C114.896 62.781 114.789 63.347 114.789 63.347C115.119 63.4877 114.859 63.888 114.757 64.0175C114.649 64.1489 114.445 64.173 114.353 64.289C114.256 64.4082 113.566 65.3695 113.566 65.3695L114.425 65.1262C114.425 65.1262 114.505 65.1404 114.377 65.0433C114.247 64.9502 114.418 64.5895 114.529 64.5011C114.74 64.3357 115.025 64.456 115.025 64.456C115.025 64.456 115.423 64.5171 115.912 64.3233C116.32 64.1624 116.495 63.9015 116.688 63.7051C116.794 63.5984 116.986 63.2435 117.107 63.0333C117.18 62.9119 117.311 62.6811 117.231 62.7086Z" fill="#1E9A1C"/>
<path d="M113.937 66.2105C113.882 66.2105 113.83 66.2018 113.787 66.1843C113.729 66.1653 113.17 66.125 112.793 66.1028L112.779 65.9684C112.816 65.9581 112.893 65.9373 112.988 65.9119L113.002 65.8993C113.005 65.8966 113.3 65.626 113.405 65.5111C113.415 65.5 113.426 65.4886 113.437 65.4772L113.396 65.4889L113.511 65.3295C113.539 65.2901 114.203 64.3652 114.301 64.2455C114.354 64.1775 114.436 64.1383 114.514 64.1001C114.588 64.0639 114.659 64.0298 114.705 63.9739C114.784 63.8728 114.912 63.664 114.877 63.5278C114.864 63.4756 114.826 63.4371 114.763 63.4099L114.712 63.3883L114.722 63.3341C114.723 63.3286 114.827 62.7748 114.792 62.4833C114.785 62.4263 114.773 62.3622 114.76 62.2935C114.702 61.9856 114.622 61.5642 114.929 61.2986L115.036 61.2056L115.042 61.348C115.042 61.3492 115.049 61.4884 115.134 61.5026C115.33 61.5358 115.33 61.7894 115.33 61.8849C115.33 61.9028 115.33 62.2162 115.266 62.3806C115.218 62.5152 115.09 63.0154 115.072 63.1967C115.099 63.1748 115.132 63.1361 115.157 63.0797C115.222 62.9323 115.405 62.6562 115.501 62.6077C115.554 62.582 115.689 62.4167 115.705 62.3782C115.718 62.3519 115.726 62.3279 115.734 62.3014C115.776 62.1722 115.839 61.9769 116.171 61.894C116.248 61.8739 116.312 61.8581 116.366 61.8444C116.567 61.7943 116.628 61.7791 116.759 61.7015C116.791 61.6839 116.83 61.6576 116.868 61.6317C116.988 61.5514 117.037 61.5182 117.088 61.5481L117.125 61.5697L117.124 61.6195C117.106 61.8283 117.041 61.9735 116.716 62.375C116.666 62.4387 116.645 62.5346 116.611 62.6798C116.591 62.7663 116.568 62.8684 116.532 62.9897C116.642 62.8952 116.778 62.8105 116.964 62.7532C116.991 62.735 117.064 62.6922 117.209 62.6438C117.265 62.6242 117.298 62.6571 117.306 62.6676C117.34 62.7095 117.35 62.7629 117.167 63.0685L117.1 63.185C116.974 63.4067 116.831 63.6582 116.738 63.7532C116.701 63.7901 116.666 63.8295 116.629 63.87C116.466 64.0486 116.282 64.251 115.937 64.387C115.438 64.5854 115.032 64.5261 115.015 64.5237C114.997 64.5181 114.747 64.4169 114.572 64.555C114.505 64.6084 114.396 64.8125 114.399 64.9343C114.399 64.9531 114.403 64.9776 114.417 64.9875C114.47 65.028 114.541 65.0818 114.512 65.1486C114.499 65.1788 114.469 65.2022 114.432 65.1954L114.23 65.2528C114.442 65.2581 114.604 65.273 114.699 65.2817C114.735 65.2849 114.759 65.2874 114.769 65.2874C114.81 65.2874 115.183 65.3206 115.286 65.3297C115.331 65.3197 115.385 65.324 115.417 65.3639C115.469 65.4275 115.419 65.5184 115.402 65.5484C115.309 65.7173 115.205 65.7842 115.201 65.7871C115.191 65.7929 115.013 65.8927 114.859 65.9227L114.837 65.9277C114.701 65.9582 114.546 65.993 114.221 66.1432C114.128 66.1875 114.028 66.2105 113.937 66.2105ZM113.245 65.9948C113.501 66.0131 113.776 66.0364 113.834 66.0555C113.916 66.0889 114.049 66.0731 114.162 66.0191C114.502 65.8625 114.664 65.8261 114.807 65.7938L114.831 65.7887C114.965 65.7626 115.127 65.6713 115.13 65.6693C115.13 65.6693 115.209 65.6159 115.282 65.4822C115.297 65.4549 115.301 65.4403 115.303 65.4346L115.292 65.4003L115.286 65.4675C115.102 65.4508 114.799 65.4247 114.769 65.4245C114.757 65.4245 114.729 65.4222 114.687 65.4183C114.572 65.4078 114.359 65.3881 114.077 65.3881C113.708 65.3881 113.586 65.5182 113.505 65.6042C113.467 65.6461 113.406 65.7063 113.343 65.7672C113.596 65.6331 113.806 65.6527 113.929 65.6644C113.961 65.6676 113.988 65.6708 114.008 65.6688L114.052 65.6676C114.17 65.6653 114.316 65.6624 114.65 65.5442C114.935 65.4438 115.018 65.4776 115.056 65.5111C115.083 65.5348 115.094 65.5692 115.087 65.6033C115.08 65.6386 115.052 65.6683 115.018 65.6788C114.828 65.7473 114.626 65.7881 114.421 65.7988C114.264 65.8075 114.115 65.8286 113.996 65.8455C113.894 65.8597 113.814 65.871 113.759 65.871C113.712 65.871 113.496 65.9224 113.261 65.9824C113.258 65.9849 113.255 65.9873 113.251 65.99L113.245 65.9948ZM114.866 63.3089C114.959 63.3636 114.995 63.4378 115.01 63.4941C115.066 63.715 114.872 63.9829 114.811 64.0598C114.746 64.1399 114.654 64.1843 114.574 64.2235C114.506 64.2562 114.443 64.2872 114.408 64.3313C114.336 64.4188 113.937 64.9717 113.737 65.25L114.32 65.0848C114.292 65.0589 114.264 65.0134 114.262 64.9378C114.258 64.7739 114.382 64.5312 114.487 64.4474C114.573 64.3799 114.668 64.3531 114.755 64.3465C114.755 64.3462 114.755 64.3457 114.754 64.3453C114.732 64.3196 114.725 64.286 114.736 64.2532C114.761 64.1747 114.792 64.1399 114.835 64.0919C114.848 64.0779 114.862 64.0619 114.879 64.0422C114.976 63.9261 115.155 63.8634 115.328 63.8027C115.367 63.7892 115.407 63.7753 115.445 63.761C115.5 63.7324 115.558 63.7045 115.618 63.6788C115.659 63.661 115.697 63.6443 115.733 63.6285C115.928 63.522 116.102 63.3925 116.199 63.2769C116.328 63.1264 116.366 63.0779 116.398 62.963C116.434 62.8389 116.458 62.7359 116.477 62.6491C116.513 62.4921 116.54 62.3787 116.608 62.2899C116.848 61.9939 116.933 61.8515 116.967 61.7306C116.959 61.7358 116.952 61.7409 116.945 61.7455C116.903 61.7737 116.86 61.8023 116.827 61.8204C116.681 61.9073 116.604 61.9264 116.399 61.9774C116.345 61.9909 116.282 62.0067 116.205 62.0269C115.946 62.0914 115.903 62.2253 115.865 62.3435C115.854 62.3776 115.843 62.4085 115.83 62.4337C115.812 62.4859 115.65 62.688 115.561 62.7306C115.517 62.7535 115.35 62.9806 115.283 63.1347C115.22 63.2761 115.109 63.3641 115.009 63.3533L114.975 63.349L114.95 63.3128C114.877 63.1857 115.134 62.3409 115.137 62.3329C115.183 62.2143 115.193 61.9728 115.193 61.8895C115.193 61.821 115.193 61.6518 115.111 61.6379C115.021 61.6226 114.967 61.5607 114.937 61.4932C114.789 61.7095 114.847 62.0156 114.895 62.2681C114.908 62.34 114.921 62.4074 114.928 62.4669C114.959 62.7285 114.892 63.1608 114.866 63.3089ZM115.053 64.3925C115.069 64.3924 115.441 64.4364 115.887 64.2595C116.143 64.1583 116.305 64.014 116.439 63.8734C116.232 64.0424 116.002 64.1686 115.879 64.2231C115.735 64.2846 115.555 64.3137 115.328 64.3503L115.226 64.367C115.161 64.3789 115.103 64.3872 115.051 64.3924C115.052 64.3924 115.052 64.3925 115.052 64.3927C115.052 64.3925 115.052 64.3925 115.053 64.3925ZM115.501 63.8865C115.312 63.9863 115.158 64.0969 115.075 64.1598C115.3 64.1214 115.81 64.0223 116.05 63.8766C116.25 63.7508 116.358 63.6647 116.55 63.3689C116.574 63.3311 116.6 63.284 116.624 63.2398C116.691 63.1143 116.73 63.0461 116.8 63.0623C116.864 63.0777 116.866 63.1518 116.867 63.1796C116.869 63.2416 116.859 63.3027 116.839 63.3625C116.888 63.28 116.938 63.1931 116.981 63.1171L117.048 62.9989C117.1 62.913 117.133 62.8524 117.153 62.8107C117.07 62.8449 117.037 62.8695 117.036 62.8698L117.014 62.8812C116.691 62.9779 116.537 63.1649 116.387 63.3457C116.365 63.3726 116.343 63.3993 116.321 63.425C116.231 63.5339 116.105 63.6136 115.792 63.7524C115.737 63.7819 115.682 63.8096 115.626 63.8347C115.586 63.8533 115.544 63.8703 115.501 63.8865ZM117.238 62.7279L117.253 62.7736C117.253 62.7736 117.253 62.7734 117.254 62.7734L117.238 62.7279ZM115.176 63.7414L115.118 63.6182C115.347 63.4776 115.477 63.2333 115.592 63.0177C115.622 62.962 115.651 62.908 115.68 62.8577C115.769 62.6376 115.906 62.3505 116.053 62.2233C116.131 62.1551 116.243 62.1164 116.333 62.0852C116.362 62.0749 116.389 62.0657 116.411 62.0564C116.417 62.0545 116.564 62.0191 116.616 62.0672L116.646 62.0944L116.638 62.1383C116.627 62.1851 116.586 62.2073 116.427 62.2508C116.363 62.2681 116.148 62.3343 116.065 62.4742C115.952 62.7906 115.85 63.0742 115.625 63.2894C115.48 63.441 115.385 63.6454 115.384 63.6473L115.371 63.6738L115.176 63.7414Z" fill="black"/>
<path d="M114.795 65.0172C114.861 64.9907 114.871 64.9788 114.991 64.8477C115.109 64.7168 115.005 64.4957 114.822 64.5047C114.732 64.5107 114.637 64.4899 114.461 64.7265C114.292 64.9632 114.543 65.0497 114.638 65.0596C114.679 65.0617 114.733 65.0439 114.795 65.0172Z" fill="#1E9A1C"/>
<path d="M114.645 65.136C114.641 65.136 114.638 65.136 114.634 65.1356C114.55 65.1273 114.4 65.0813 114.346 64.9613C114.321 64.9037 114.309 64.8084 114.4 64.6818C114.568 64.4558 114.677 64.4337 114.793 64.4295L114.817 64.4284C114.932 64.4203 115.038 64.4854 115.089 64.5925C115.139 64.6978 115.123 64.8151 115.047 64.8988C114.925 65.0326 114.904 65.0554 114.825 65.0875C114.746 65.1211 114.691 65.136 114.645 65.136ZM114.832 64.5808C114.83 64.5808 114.828 64.5808 114.826 64.5809L114.799 64.5822C114.727 64.5847 114.66 64.5873 114.523 64.772C114.497 64.8082 114.469 64.8606 114.486 64.8986C114.507 64.9455 114.592 64.978 114.646 64.9835C114.661 64.9833 114.706 64.9721 114.765 64.9469L114.767 64.9462C114.813 64.9275 114.814 64.9268 114.926 64.8048C114.974 64.7523 114.969 64.696 114.951 64.658C114.933 64.62 114.893 64.5808 114.832 64.5808Z" fill="black"/>
<path d="M114.352 63.5204C114.239 63.7107 114.178 63.9293 114.267 63.9967C114.287 64.0078 114.367 64.0775 114.433 64.0775C114.499 64.0775 114.686 63.9878 114.793 63.8235C114.899 63.6642 114.987 63.4893 114.768 63.3806C114.57 63.2826 114.435 63.3742 114.352 63.5202" fill="#1E9A1C"/>
<path d="M114.433 64.1556C114.355 64.1556 114.28 64.1023 114.241 64.0736L114.22 64.0594C114.077 63.9518 114.165 63.6817 114.284 63.4823C114.404 63.2694 114.592 63.2071 114.802 63.3108C114.895 63.3569 114.952 63.4194 114.973 63.4969C115.006 63.6211 114.936 63.7483 114.857 63.8672C114.741 64.0455 114.532 64.1556 114.433 64.1556ZM114.313 63.9342C114.313 63.9342 114.322 63.9397 114.332 63.947C114.352 63.9613 114.405 63.9997 114.433 63.9997C114.473 63.999 114.635 63.9226 114.726 63.7813C114.78 63.701 114.839 63.6018 114.822 63.5368C114.813 63.5043 114.784 63.4761 114.733 63.4505C114.684 63.4265 114.536 63.3527 114.42 63.5586L114.347 63.5176L114.419 63.5606C114.298 63.7628 114.286 63.9138 114.314 63.9347C114.313 63.9344 114.313 63.9342 114.313 63.9342Z" fill="black"/>
<path d="M115.001 61.1965C115.001 61.1965 115.019 61.1672 114.944 61.0896C114.826 60.9681 114.677 60.752 114.677 60.752C114.441 60.881 114.363 61.142 114.363 61.2456C114.363 61.3532 114.403 61.5876 114.366 61.8265C114.354 61.9078 114.34 62.0007 114.224 62.2961C114.104 62.5878 114.241 62.8558 114.267 62.9503C114.288 63.0441 114.385 63.3358 114.385 63.3358C114.385 63.3358 114.478 63.2765 114.509 63.2696C114.545 63.2598 114.671 63.2652 114.671 63.2652C114.671 63.2652 114.813 63.0081 114.818 62.8652C114.821 62.7598 114.804 62.5812 114.754 62.307C114.685 61.9081 114.689 61.7943 114.736 61.5712C114.784 61.3449 115.001 61.1961 115.001 61.1961" fill="#1E9A1C"/>
<path d="M114.348 63.4411L114.32 63.3574C114.316 63.3455 114.221 63.0613 114.2 62.9648C114.198 62.9558 114.191 62.9391 114.184 62.9192C114.14 62.7967 114.049 62.5421 114.16 62.2702C114.271 61.9892 114.285 61.9 114.298 61.8214C114.323 61.6523 114.311 61.4888 114.301 61.3691C114.297 61.3194 114.294 61.2772 114.294 61.2456C114.294 61.1273 114.38 60.8365 114.644 60.6918L114.699 60.6621L114.734 60.7132C114.735 60.7152 114.88 60.9261 114.993 61.0417C115.09 61.1428 115.076 61.2045 115.059 61.2324L115.002 61.1969L115.04 61.2527C115.038 61.2541 114.844 61.3896 114.804 61.5852C114.757 61.8036 114.755 61.91 114.822 62.2953C114.868 62.549 114.89 62.7417 114.887 62.867C114.881 63.0225 114.746 63.2706 114.731 63.2985L114.71 63.3356L114.668 63.3338C114.608 63.3311 114.542 63.3322 114.527 63.3359C114.511 63.3404 114.463 63.367 114.422 63.3935L114.348 63.4411ZM114.658 60.8445C114.49 60.9656 114.431 61.1653 114.431 61.2456C114.431 61.2745 114.434 61.313 114.438 61.3585C114.448 61.4847 114.461 61.6575 114.434 61.8368C114.42 61.924 114.404 62.0254 114.287 62.3214C114.196 62.5453 114.272 62.7583 114.313 62.8727C114.322 62.8963 114.329 62.916 114.333 62.9316C114.347 62.9936 114.393 63.1404 114.424 63.2331C114.45 63.2188 114.476 63.2067 114.494 63.2028C114.522 63.195 114.583 63.1944 114.63 63.1953C114.674 63.1094 114.747 62.9513 114.75 62.8627C114.752 62.7837 114.742 62.6246 114.687 62.3192C114.616 61.9135 114.62 61.7923 114.669 61.557C114.709 61.3667 114.852 61.2283 114.923 61.1701C114.917 61.1618 114.908 61.1507 114.895 61.1373C114.809 61.0499 114.711 60.9178 114.658 60.8445Z" fill="black"/>
<path d="M115.354 61.5946C115.354 61.5946 115.488 61.5626 115.555 61.4411C115.64 61.2946 115.618 61.1389 115.618 61.1389C115.41 60.7366 115.131 61.0613 115.131 61.0613C114.881 61.5722 115.353 61.5948 115.353 61.5948" fill="#1E9A1C"/>
<path d="M115.349 61.6701C115.34 61.6697 115.123 61.6575 115.026 61.4936C114.957 61.3762 114.969 61.2198 115.063 61.0284L115.073 61.0124C115.079 61.0055 115.22 60.8432 115.399 60.8642C115.513 60.8775 115.608 60.9583 115.684 61.1046L115.691 61.1284C115.693 61.1357 115.716 61.3118 115.619 61.479C115.537 61.6264 115.377 61.6662 115.37 61.6678L115.353 61.5946L115.349 61.6701ZM115.193 61.104C115.147 61.2012 115.106 61.3308 115.156 61.4164C115.201 61.4945 115.308 61.514 115.344 61.5186C115.371 61.5096 115.448 61.4782 115.488 61.4047C115.547 61.3038 115.546 61.1958 115.543 61.161C115.494 61.0703 115.44 61.0208 115.382 61.0139C115.305 61.0032 115.225 61.0705 115.193 61.104Z" fill="black"/>
<path d="M116.059 60.8569C115.749 60.8729 115.597 61.4296 115.597 61.4296C115.597 61.4296 115.547 61.5673 115.382 61.6736C115.206 61.7822 115.31 61.9382 115.31 62.2154C115.31 62.4925 115.117 62.9827 115.117 62.9827L115.045 63.1489C115.045 63.1489 115.051 63.2736 115.164 63.0471C115.356 62.666 115.567 62.7585 115.646 62.3484C115.696 62.0433 116.201 61.9462 116.201 61.9462L116.059 61.9196C115.534 61.6736 116.09 61.0602 116.179 60.9514C116.275 60.8431 116.365 60.8431 116.059 60.8569Z" fill="#1E9A1C"/>
<path d="M115.066 63.2731C115.059 63.2731 115.052 63.2722 115.044 63.2707C114.994 63.2603 114.959 63.2145 114.956 63.1539L114.955 63.133L115.035 62.9474C115.036 62.9453 115.221 62.4723 115.221 62.2155C115.221 62.1369 115.212 62.0671 115.204 62.0055C115.184 61.857 115.164 61.7036 115.335 61.5976C115.469 61.5115 115.513 61.3995 115.514 61.3984C115.529 61.3428 115.691 60.7866 116.055 60.7677L116.089 60.7661C116.28 60.7573 116.325 60.7553 116.353 60.8247C116.379 60.8897 116.328 60.9345 116.301 60.9586C116.286 60.9714 116.267 60.9884 116.247 61.0108L116.231 61.0294C116.001 61.3032 115.9 61.516 115.932 61.6616C115.948 61.7336 115.999 61.7901 116.088 61.834L116.218 61.8585L116.219 62.0342C116.095 62.0582 115.768 62.1642 115.735 62.3631C115.684 62.6246 115.578 62.7152 115.476 62.8027C115.4 62.8675 115.322 62.9346 115.244 63.0875C115.198 63.1818 115.145 63.2731 115.066 63.2731ZM116.064 60.9464C115.865 60.957 115.719 61.3253 115.684 61.4535C115.679 61.4673 115.619 61.6278 115.431 61.7491C115.362 61.7913 115.36 61.8256 115.381 61.9822C115.39 62.0493 115.4 62.1253 115.4 62.2155C115.4 62.3606 115.352 62.555 115.303 62.7159C115.323 62.6981 115.342 62.682 115.36 62.6667C115.453 62.587 115.52 62.5293 115.559 62.3315C115.591 62.1358 115.766 62.0144 115.923 61.9437C115.835 61.8799 115.779 61.7983 115.757 61.6999C115.695 61.4181 115.949 61.0889 116.068 60.9462L116.064 60.9464Z" fill="black"/>
<path d="M115.971 61.5176C115.829 61.8218 116.233 61.8365 116.326 61.7834C116.363 61.7616 116.449 61.6603 116.449 61.6603C116.612 61.4251 116.463 61.2658 116.377 61.2431C116.295 61.2158 116.12 61.1949 115.971 61.5176Z" fill="#1E9A1C"/>
<path d="M116.199 61.8837C116.106 61.8837 116.002 61.8586 115.936 61.7979C115.889 61.7546 115.822 61.6564 115.902 61.4854C116.069 61.1225 116.287 61.1328 116.401 61.1708C116.461 61.1866 116.543 61.2487 116.579 61.3489C116.607 61.4258 116.619 61.5497 116.511 61.7038C116.479 61.7429 116.408 61.8238 116.364 61.8494C116.326 61.8709 116.265 61.8837 116.199 61.8837ZM116.297 61.3063C116.2 61.3063 116.115 61.3879 116.04 61.5495L116.04 61.5497C115.995 61.6454 116.028 61.6759 116.039 61.6859C116.099 61.7407 116.252 61.7379 116.288 61.7171C116.303 61.7082 116.351 61.6585 116.391 61.6113C116.441 61.5374 116.459 61.4629 116.436 61.4014C116.417 61.3485 116.374 61.321 116.358 61.3167C116.337 61.3098 116.316 61.3063 116.297 61.3063Z" fill="black"/>
<path d="M115.205 60.337C115.311 60.5343 115.607 61.0832 115.676 61.049C115.72 61.0278 115.685 60.9154 115.685 60.9154C115.685 60.9154 115.676 60.7669 115.628 60.5872C115.581 60.4061 115.592 60.1743 115.498 60.0258C115.406 59.8774 115.186 59.7012 115.1 59.4669C115.014 59.2318 115.081 58.7869 115.089 58.7321C115.097 58.6809 115.123 58.7145 115.078 58.6614C115.031 58.6038 114.658 58.4049 114.658 58.4049C114.658 58.4049 114.679 58.55 114.67 58.8127C114.667 58.8763 114.649 58.9505 114.639 59.061C114.63 59.1663 114.694 59.2989 114.847 59.6014C115.025 59.9516 115.111 60.1665 115.205 60.337ZM117.448 57.7256C117.448 57.7256 117.34 57.9052 117.302 57.9449C117.262 57.9849 116.652 58.5083 116.618 58.5303C116.588 58.5534 116.27 58.655 115.981 59.4376C115.69 60.2176 115.816 60.947 115.816 60.947L115.957 60.9296L115.981 60.8532C115.981 60.8532 116.028 60.5943 116.064 60.3979C116.105 60.2043 116.322 59.9336 116.466 59.7338C116.603 59.5383 116.714 59.2574 116.714 59.2574C116.877 58.9283 116.956 58.6341 117.118 58.4047C117.124 58.6779 116.085 60.3578 115.974 60.9294L116.282 60.8825C116.527 60.6579 116.849 60.1865 117.067 59.8825C117.286 59.5774 117.379 59.1007 117.419 58.8894C117.457 58.6807 117.448 57.7258 117.448 57.7258" fill="#1E9A1C"/>
<path d="M115.666 61.1217C115.592 61.1219 115.483 60.999 115.145 60.3699C115.097 60.2824 115.052 60.186 114.995 60.0642C114.94 59.9462 114.874 59.8061 114.786 59.6326C114.629 59.3234 114.561 59.1815 114.571 59.0555C114.576 58.9962 114.584 58.9473 114.59 58.9047C114.596 58.8687 114.601 58.8377 114.602 58.809C114.611 58.5586 114.59 58.4165 114.59 58.4151L114.57 58.2808L114.69 58.3445C114.806 58.4062 115.082 58.5567 115.131 58.6188C115.158 58.6499 115.195 58.6926 115.155 58.7438C115.113 59.0648 115.116 59.3101 115.165 59.4435C115.215 59.5811 115.32 59.7016 115.413 59.8079C115.468 59.8714 115.521 59.9316 115.556 59.9899C115.625 60.0972 115.643 60.2359 115.66 60.3701C115.67 60.4417 115.679 60.5093 115.695 60.5702C115.706 60.613 115.715 60.654 115.723 60.692C115.71 60.4053 115.727 59.9225 115.916 59.4138C116.096 58.9292 116.315 58.6148 116.569 58.4796C116.62 58.4454 117.211 57.9387 117.253 57.8966C117.275 57.8738 117.346 57.7623 117.389 57.6904L117.448 57.7259L117.517 57.7252C117.517 57.7645 117.525 58.6892 117.486 58.9019C117.45 59.0927 117.355 59.5986 117.123 59.9226L117.035 60.0459C116.818 60.3517 116.548 60.7323 116.328 60.9332L116.313 60.9472L115.888 61.0122L115.889 61.0072L115.765 61.0225C115.76 61.0578 115.744 61.0924 115.706 61.1109C115.693 61.1173 115.68 61.1217 115.666 61.1217ZM114.737 58.5263C114.741 58.5964 114.743 58.6934 114.739 58.8153C114.737 58.8493 114.732 58.8845 114.726 58.9254C114.72 58.9656 114.712 59.0116 114.708 59.0672C114.7 59.1553 114.771 59.3004 114.908 59.5706C114.997 59.7456 115.063 59.8871 115.119 60.0061C115.175 60.1258 115.219 60.2203 115.265 60.3039L115.266 60.3046C115.45 60.6473 115.556 60.8186 115.616 60.9042C115.611 60.8501 115.597 60.7355 115.562 60.6052C115.544 60.5356 115.534 60.4605 115.525 60.3881C115.509 60.2686 115.493 60.1452 115.44 60.0627C115.41 60.0131 115.361 59.9572 115.309 59.8979C115.209 59.7828 115.095 59.6523 115.036 59.4907C114.964 59.293 114.987 58.9704 115.019 58.7346C115.021 58.7237 115.023 58.7145 115.025 58.7065C114.986 58.6706 114.864 58.5972 114.737 58.5263ZM116.655 58.5883C116.655 58.5883 116.646 58.5937 116.633 58.6005C116.356 58.7488 116.16 59.1505 116.045 59.4615C115.814 60.0827 115.853 60.678 115.875 60.8708L115.905 60.8671L115.915 60.8328L115.997 60.3856C116.035 60.2043 116.199 59.9817 116.343 59.7853L116.41 59.6938C116.541 59.5082 116.649 59.2351 116.65 59.2324C116.715 59.101 116.765 58.9807 116.813 58.8644C116.888 58.683 116.959 58.5116 117.062 58.3653L117.182 58.1956L117.186 58.4032C117.19 58.5427 117.002 58.9104 116.697 59.4989C116.444 59.9849 116.162 60.5294 116.066 60.8461L116.251 60.8179C116.458 60.6226 116.726 60.2444 116.923 59.9666L117.011 59.8428C117.226 59.5434 117.317 59.0591 117.351 58.8769C117.377 58.7394 117.381 58.2506 117.381 57.9562C117.369 57.9715 117.359 57.9843 117.351 57.9926C117.318 58.0261 116.699 58.5606 116.655 58.5883Z" fill="black"/>
<path d="M115.376 57.8986C115.219 57.7535 115.097 57.71 115.097 57.71C115.097 57.71 115.135 57.9948 115.135 58.1682C115.135 58.3422 115.15 58.6342 115.141 58.79C115.135 58.9453 115.057 59.2028 115.168 59.4548C115.281 59.7033 115.408 59.8298 115.498 59.9862C115.58 60.1393 115.73 60.9348 115.73 60.9348C115.73 60.9348 115.675 59.8591 115.723 59.5548C115.766 59.2558 115.781 58.7899 115.714 58.5564C115.644 58.3218 115.529 58.0471 115.376 57.8986ZM116.093 56.8484C116.14 56.7564 116.251 56.5662 116.297 56.2769C116.314 56.1542 116.325 55.9551 116.321 55.8173C116.318 55.7251 116.281 55.5653 116.321 55.5546C116.357 55.5458 116.327 55.6044 116.347 55.7408C116.357 55.7893 116.324 55.924 116.317 56.0964C116.309 56.2342 116.304 56.3495 116.242 56.536C116.189 56.7004 116.237 56.8829 116.204 56.9342C116.169 56.9862 116.074 57.1835 116.074 57.1835C116.074 57.1835 116.017 57.3428 116.026 57.4877C116.032 57.636 116.041 57.7964 116.041 57.7964C116.041 57.7964 116.109 57.6691 116.262 57.6478C116.262 57.6478 116.297 57.3991 116.297 57.3215C116.297 57.2435 116.397 56.7342 116.448 56.5786C116.517 56.3506 116.566 55.9535 116.456 55.4926C116.425 55.368 116.403 54.978 116.403 54.978C116.403 54.978 116.256 55.0957 116.169 55.5404C116.142 55.6757 116.199 56.0382 116.177 56.4248C116.168 56.6378 115.963 57.5017 115.936 57.5557" fill="#1E9A1C"/>
<path d="M115.664 60.9474C115.604 60.6317 115.495 60.124 115.438 60.0185C115.407 59.9647 115.37 59.9131 115.331 59.858C115.26 59.7587 115.18 59.6463 115.106 59.4831C115.013 59.2728 115.041 59.0619 115.06 58.9079C115.066 58.8631 115.072 58.8225 115.073 58.7873C115.079 58.6903 115.075 58.5413 115.071 58.3972C115.069 58.3133 115.067 58.2326 115.067 58.1681C115.067 58.0013 115.03 57.7216 115.03 57.7189L115.015 57.6077L115.121 57.6454C115.126 57.6473 115.258 57.6954 115.423 57.8481L115.424 57.8493C115.61 58.0291 115.727 58.3572 115.78 58.5368C115.849 58.7791 115.837 59.247 115.791 59.5646C115.745 59.8592 115.799 60.9204 115.799 60.9311L115.664 60.9474ZM115.181 57.832C115.192 57.9312 115.204 58.0668 115.204 58.1681C115.204 58.2317 115.206 58.311 115.208 58.3937C115.212 58.5407 115.216 58.6926 115.21 58.7941C115.208 58.8314 115.203 58.8761 115.196 58.9254C115.178 59.0712 115.154 59.2525 115.231 59.4272C115.299 59.5775 115.372 59.6796 115.443 59.7785C115.485 59.8373 115.524 59.8926 115.558 59.9519C115.581 59.9959 115.609 60.0828 115.637 60.1875C115.633 59.9291 115.635 59.6726 115.656 59.5442C115.7 59.2371 115.71 58.7903 115.649 58.5752C115.565 58.2925 115.448 58.0639 115.329 57.9482C115.274 57.8967 115.223 57.859 115.181 57.832ZM115.986 58.035L115.973 57.8001C115.973 57.8001 115.966 57.6905 115.961 57.5685L115.875 57.5244C115.892 57.4846 115.98 57.1276 116.043 56.8222L116.033 56.817L116.047 56.7886C116.049 56.7864 116.05 56.784 116.051 56.7817C116.082 56.6267 116.106 56.4898 116.109 56.4218C116.12 56.2204 116.11 56.0238 116.102 55.8659C116.094 55.7169 116.088 55.5992 116.102 55.5269C116.192 55.0709 116.344 54.9381 116.361 54.9244L116.464 54.8413L116.472 54.974C116.478 55.0807 116.499 55.379 116.523 55.4762C116.659 56.0436 116.55 56.4786 116.514 56.5985C116.462 56.7579 116.366 57.2557 116.366 57.3214C116.366 57.4015 116.334 57.6313 116.331 57.6573L116.323 57.7085L116.272 57.7157C116.157 57.7317 116.103 57.8253 116.101 57.8293L115.986 58.035ZM116.137 57.2128C116.137 57.2128 116.087 57.3568 116.095 57.483C116.097 57.5356 116.099 57.5894 116.102 57.6371C116.13 57.6187 116.163 57.6021 116.201 57.591C116.213 57.5061 116.229 57.3703 116.229 57.3214C116.229 57.2286 116.334 56.7072 116.383 56.5573C116.415 56.4533 116.506 56.0863 116.409 55.5967V55.6052C116.408 55.6335 116.407 55.675 116.416 55.7307C116.422 55.7625 116.416 55.8096 116.407 55.8809C116.399 55.9404 116.39 56.015 116.387 56.0988C116.378 56.2482 116.371 56.3671 116.308 56.5574C116.282 56.6388 116.284 56.73 116.285 56.8033C116.287 56.8775 116.288 56.9312 116.263 56.9711C116.238 57.0078 116.174 57.1354 116.137 57.2128ZM116.349 55.1846C116.312 55.2657 116.27 55.3845 116.237 55.5536C116.225 55.6092 116.232 55.7248 116.239 55.8587C116.242 55.9224 116.246 55.9921 116.248 56.0661C116.253 55.9785 116.255 55.8884 116.253 55.8195C116.252 55.7937 116.248 55.7619 116.244 55.73C116.23 55.6126 116.219 55.5111 116.304 55.4882L116.337 55.4793L116.377 55.5023C116.383 55.5069 116.388 55.5119 116.392 55.5171C116.391 55.5142 116.39 55.5113 116.39 55.5085C116.373 55.4406 116.359 55.3024 116.349 55.1846Z" fill="black"/>
<path d="M116.093 56.8481C116.086 56.8612 116.084 56.8667 116.084 56.8667C116.084 56.8667 116.09 56.8612 116.093 56.8481Z" fill="#1E9A1C"/>
<path d="M116.129 56.9182L116.021 56.8386C116.021 56.8386 116.024 56.8316 116.034 56.8149L116.037 56.8165C116.03 56.8233 116.028 56.8284 116.027 56.8303L116.059 56.8389L116.04 56.8175L116.16 56.8663C116.151 56.8959 116.135 56.9124 116.129 56.9182Z" fill="black"/>
<path d="M115.515 54.6061C115.593 54.6061 115.593 54.691 115.577 54.7581C115.565 54.8272 115.567 54.9554 115.567 54.9818C115.567 55.0119 115.599 55.195 115.626 55.2905C115.654 55.3887 115.703 55.4196 115.682 55.6167C115.667 55.7407 115.54 55.8863 115.585 56.0969C115.609 56.2076 115.688 56.3234 115.727 56.4187C115.76 56.485 115.742 56.6472 115.751 56.7798C115.755 56.9088 115.826 56.9961 115.826 56.9961C115.826 56.9961 115.738 57.1608 115.708 56.9549C115.676 56.7185 115.665 56.6134 115.62 56.5065C115.546 56.3312 115.478 56.0161 115.593 55.7732C115.613 55.7263 115.628 55.639 115.628 55.5354C115.628 55.4301 115.563 55.2503 115.551 55.139C115.54 55.0505 115.547 54.8639 115.547 54.7965M115.135 55.7856C115.154 55.919 115.197 55.995 115.347 56.2852C115.394 56.3808 115.499 56.6248 115.515 56.7027C115.534 56.7805 115.55 56.8743 115.55 56.8981C115.55 56.9238 115.567 57.1068 115.567 57.1068V57.1828C115.567 57.1828 115.15 56.9398 114.967 56.8098C114.785 56.6788 114.579 56.4992 114.447 56.3907C114.297 56.2676 113.941 55.8448 113.936 55.5063L113.772 55.3578C113.772 55.3578 113.647 56.1103 114.237 56.5974C114.407 56.737 114.593 56.891 114.989 57.0705C115.387 57.2538 115.335 57.4176 115.5 57.7696C115.663 58.1232 115.765 58.3267 115.786 58.4267C115.8 58.5336 115.741 60.037 115.741 60.037L115.755 60.1734C115.755 60.1734 116.118 58.7807 116.293 58.6252C116.293 58.6252 115.946 58.5719 115.974 58.0274L115.913 57.6683C115.913 57.6683 115.844 57.2367 115.974 56.9688C115.974 56.9688 116.128 56.4779 116.076 56.0536C116.043 55.7998 116.031 55.7238 116 55.4805C115.953 55.1019 115.801 54.5608 115.784 54.4954C115.732 54.3054 115.715 54.2761 115.654 54.1259C115.636 54.0728 115.602 53.8976 115.546 53.895C115.514 53.8932 115.465 54.1205 115.465 54.1205C115.465 54.1205 115.392 54.3681 115.377 54.4352C115.33 54.6352 115.219 54.803 115.169 55.2523C115.159 55.3338 115.151 55.553 115.141 55.5823C115.135 55.607 115.125 55.7361 115.135 55.7856Z" fill="#1E9A1C"/>
<path d="M115.822 60.1907L115.687 60.1805L115.673 60.0441C115.696 59.4554 115.729 58.5093 115.719 58.4356C115.705 58.3703 115.638 58.2271 115.537 58.0104L115.439 57.7983C115.396 57.7071 115.367 57.6284 115.342 57.5591C115.271 57.3648 115.233 57.2578 114.961 57.1328C114.562 56.952 114.37 56.7947 114.201 56.6558C113.581 56.1439 113.7 55.3789 113.706 55.3465L113.726 55.2224L114.005 55.4756L114.005 55.5055C114.01 55.8173 114.35 56.2216 114.491 56.3378L114.595 56.4243C114.718 56.5272 114.87 56.6553 115.008 56.7541C115.129 56.8403 115.359 56.9795 115.495 57.0602C115.49 57.0041 115.482 56.9156 115.482 56.8981C115.482 56.8822 115.468 56.7973 115.449 56.7187C115.435 56.6488 115.335 56.4156 115.287 56.315L115.26 56.2639C115.131 56.0167 115.088 55.9326 115.069 55.7972C115.056 55.7322 115.069 55.5948 115.074 55.5683C115.08 55.5447 115.086 55.4534 115.09 55.393C115.094 55.3353 115.097 55.2785 115.101 55.2448C115.137 54.9306 115.201 54.7493 115.253 54.6037C115.276 54.5389 115.296 54.4808 115.311 54.4195C115.326 54.3521 115.4 54.1012 115.4 54.1012C115.456 53.8433 115.497 53.8226 115.551 53.8266C115.645 53.8309 115.678 53.9546 115.708 54.0637C115.713 54.0801 115.716 54.0943 115.72 54.104L115.746 54.169C115.787 54.2672 115.807 54.3165 115.851 54.4774L115.859 54.5084C115.969 54.9172 116.04 55.2414 116.069 55.472C116.086 55.6077 116.097 55.6912 116.109 55.7827L116.144 56.0447C116.198 56.4793 116.046 56.9688 116.04 56.9894C115.917 57.2443 115.981 57.6533 115.981 57.6575L116.042 58.0159C116.019 58.5019 116.293 58.5555 116.305 58.5576L116.444 58.5822L116.339 58.6765C116.223 58.7796 115.96 59.66 115.822 60.1907ZM113.831 55.5032C113.828 55.733 113.875 56.2089 114.282 56.5446C114.459 56.6899 114.635 56.8347 115.018 57.0081C115.342 57.1573 115.396 57.3062 115.471 57.5123C115.495 57.5789 115.522 57.6544 115.563 57.7404L115.662 57.9525C115.771 58.186 115.836 58.3269 115.854 58.4129C115.865 58.4945 115.841 59.2077 115.824 59.6667C115.929 59.3043 116.072 58.8553 116.186 58.6575C116.068 58.596 115.885 58.4343 115.906 58.0239L115.846 57.6797C115.844 57.6632 115.792 57.3319 115.868 57.059C115.843 57.0942 115.802 57.1362 115.744 57.1256C115.662 57.111 115.647 57.0047 115.641 56.9645L115.632 56.8976C115.608 56.7135 115.595 56.6211 115.558 56.5333C115.471 56.3276 115.412 55.9975 115.532 55.7439C115.544 55.7142 115.56 55.6393 115.56 55.5354C115.56 55.484 115.54 55.404 115.521 55.3266C115.505 55.2612 115.489 55.1993 115.483 55.1468C115.475 55.0752 115.477 54.9514 115.479 54.8609L115.48 54.7965H115.504C115.506 54.7781 115.508 54.7611 115.511 54.746C115.521 54.701 115.518 54.6763 115.515 54.6708L115.516 54.5376C115.573 54.5376 115.605 54.5642 115.623 54.5865C115.665 54.6403 115.658 54.7183 115.645 54.7742C115.635 54.8272 115.636 54.9365 115.636 54.9724C115.637 55.0059 115.666 55.1763 115.692 55.2724C115.699 55.2941 115.707 55.3126 115.714 55.3308C115.741 55.3945 115.768 55.4604 115.751 55.6241C115.744 55.6765 115.724 55.7267 115.703 55.7799C115.666 55.8709 115.627 55.9651 115.652 56.0827C115.666 56.1446 115.701 56.2127 115.736 56.2785C115.756 56.3184 115.777 56.3569 115.791 56.3925C115.818 56.4461 115.818 56.5342 115.817 56.6362C115.817 56.6827 115.817 56.7306 115.82 56.7751C115.823 56.8805 115.879 56.9524 115.88 56.9531L115.897 56.9745C115.902 56.9624 115.907 56.9505 115.913 56.939C115.912 56.9391 116.058 56.4642 116.008 56.062L115.974 55.801C115.961 55.7092 115.95 55.6253 115.933 55.4891C115.905 55.2647 115.835 54.9468 115.727 54.5441L115.718 54.5127C115.677 54.3608 115.659 54.317 115.62 54.2211L115.591 54.1516C115.586 54.1363 115.581 54.1194 115.576 54.0998C115.572 54.0853 115.565 54.0607 115.557 54.0357C115.549 54.0663 115.54 54.1012 115.533 54.135C115.531 54.1401 115.459 54.3842 115.444 54.4504C115.429 54.5171 115.407 54.5798 115.382 54.6496C115.332 54.7886 115.271 54.9616 115.238 55.26C115.234 55.2922 115.23 55.3467 115.227 55.402C115.218 55.5387 115.214 55.5818 115.206 55.6044C115.204 55.618 115.196 55.7358 115.203 55.7711L115.204 55.7762C115.22 55.8894 115.254 55.9554 115.382 56.2007L115.409 56.2536C115.45 56.3385 115.564 56.5977 115.583 56.6891C115.6 56.7591 115.619 56.8638 115.619 56.8981C115.619 56.9242 115.636 57.1005 115.636 57.1005L115.636 57.3022L115.533 57.2421C115.516 57.2321 115.111 56.996 114.928 56.8656C114.786 56.7635 114.631 56.6338 114.507 56.5293L114.404 56.4436C114.272 56.3351 113.894 55.909 113.87 55.5379L113.831 55.5032Z" fill="black"/>
<path d="M115.446 57.6862C115.446 57.6862 115.386 57.5516 115.324 57.4827C115.2 57.3369 115.034 57.2131 114.56 56.9815C114.088 56.7462 113.963 56.3596 113.722 56.2005C113.612 56.1244 113.398 56.0882 113.398 56.0882C113.398 56.0882 113.608 56.3774 113.658 56.4773C113.722 56.6045 113.738 56.6913 113.998 56.9336C114.256 57.1769 114.571 57.2618 114.774 57.322C115.061 57.4111 115.446 57.6864 115.446 57.6864M113.958 55.4514C113.971 55.4896 114.093 55.9053 114.348 56.2282C114.739 56.7224 115.492 57.0755 115.492 57.0755C115.422 56.7678 115.299 56.4122 115.202 56.2547C114.86 55.702 113.956 55.4311 113.956 55.4311C113.956 55.4311 113.94 55.41 113.958 55.4514ZM115.037 55.6845C115.24 55.2409 114.635 54.8173 114.465 54.5082C114.528 54.458 114.603 54.5896 114.672 54.6773C114.771 54.8089 115.05 55.19 115.05 55.19L115.136 54.7842L114.416 54.1289C114.407 54.2242 114.185 54.3025 114.185 54.3025C114.077 54.9091 115.038 55.6844 115.038 55.6844" fill="#1E9A1C"/>
<path d="M115.406 57.7419C115.403 57.7393 115.027 57.472 114.754 57.3873L114.727 57.3792C114.52 57.3185 114.209 57.2268 113.95 56.9833C113.72 56.7681 113.672 56.6675 113.622 56.5609L113.597 56.508C113.558 56.43 113.4 56.2075 113.343 56.1283L113.244 55.9924L113.409 56.0204C113.419 56.022 113.64 56.0601 113.761 56.1439C113.863 56.211 113.944 56.3141 114.031 56.4234C114.164 56.5918 114.315 56.7827 114.59 56.9199C115.088 57.1628 115.25 57.2895 115.376 57.4382C115.443 57.5129 115.506 57.652 115.509 57.6579L115.446 57.6859L115.406 57.7419ZM113.562 56.2008C113.623 56.2887 113.692 56.3922 113.719 56.4466C113.729 56.4658 113.738 56.4843 113.746 56.5026C113.793 56.601 113.833 56.6859 114.044 56.8833C114.279 57.1045 114.56 57.1873 114.765 57.2476L114.794 57.2561C114.922 57.2958 115.066 57.3693 115.189 57.4407C115.076 57.336 114.902 57.2248 114.53 57.0429C114.227 56.8918 114.058 56.6793 113.923 56.5085C113.84 56.4037 113.769 56.3132 113.684 56.2576C113.652 56.2355 113.608 56.2163 113.562 56.2008ZM115.59 57.197L115.463 57.1374C115.432 57.1227 114.691 56.7717 114.294 56.2705C114.135 56.0689 113.993 55.7894 113.896 55.4833L113.906 55.4785L113.903 55.4756L113.895 55.4792C113.887 55.4594 113.86 55.3991 113.915 55.3666L113.967 55.3355L113.996 55.3718C114.139 55.4174 114.933 55.6909 115.26 56.2184C115.358 56.3772 115.484 56.7311 115.559 57.06L115.59 57.197ZM114.06 55.5395C114.15 55.7913 114.269 56.018 114.402 56.1855C114.682 56.5389 115.159 56.8219 115.389 56.9457C115.318 56.6786 115.219 56.4133 115.143 56.2905C114.893 55.8861 114.315 55.6344 114.06 55.5395ZM114.994 55.7376C114.954 55.7048 114.004 54.9294 114.117 54.2904L114.124 54.2511L114.162 54.2378C114.259 54.2034 114.343 54.1465 114.348 54.1223L114.36 53.9851L115.211 54.7598L115.102 55.2756C115.156 55.4151 115.169 55.5619 115.1 55.7129L115.037 55.6844L114.994 55.7376ZM114.247 54.3519C114.203 54.8083 114.789 55.374 115.004 55.5647C115.047 55.3186 114.832 55.0697 114.64 54.8473C114.546 54.739 114.457 54.6367 114.405 54.5411L114.377 54.4904L114.422 54.4544C114.448 54.4341 114.478 54.425 114.509 54.4294C114.581 54.4389 114.634 54.5105 114.689 54.5863C114.702 54.6029 114.714 54.6195 114.726 54.6346C114.789 54.7188 114.924 54.9023 115.015 55.0259L115.061 54.8083L114.433 54.2364C114.38 54.2907 114.301 54.3298 114.247 54.3519Z" fill="black"/>
<path d="M113.784 54.6564C113.61 54.7342 113.548 54.7342 113.548 54.7342L113.645 54.9913L113.702 55.0611C113.702 55.0611 113.928 55.3884 114.06 55.4291C114.115 55.4495 114.321 55.4855 114.528 55.574C114.788 55.6845 115.212 56.0558 115.212 56.0558C115.212 56.0558 114.506 55.2594 114.235 54.6624L114.144 54.3184L113.888 54.3353C113.888 54.3353 113.958 54.5767 113.784 54.6564Z" fill="#1E9A1C"/>
<path d="M115.166 56.1072C115.162 56.1036 114.747 55.7419 114.5 55.637C114.36 55.5768 114.22 55.5418 114.128 55.5186C114.085 55.5081 114.053 55.4997 114.035 55.4932C113.892 55.449 113.685 55.1578 113.645 55.0999L113.581 55.0153L113.449 54.6655H113.548C113.547 54.6655 113.605 54.661 113.755 54.5936C113.874 54.5389 113.822 54.356 113.822 54.3542L113.798 54.2723L114.195 54.2461L114.301 54.6446C114.56 55.2145 115.256 56.0023 115.263 56.0102L115.166 56.1072ZM113.705 54.9567L113.754 55.0178C113.846 55.1498 114.004 55.3402 114.079 55.3634C114.098 55.3701 114.125 55.3768 114.161 55.3857C114.258 55.4099 114.404 55.4465 114.554 55.5108C114.622 55.5399 114.701 55.5854 114.779 55.6373C114.565 55.3593 114.313 55.001 114.172 54.6905L114.092 54.3903L113.968 54.3984C113.978 54.5086 113.952 54.6545 113.812 54.7187L113.788 54.6665L113.811 54.7188C113.737 54.752 113.681 54.7721 113.64 54.7843L113.705 54.9567Z" fill="black"/>
<path d="M111.139 54.147C111.257 54.2539 111.386 54.3492 111.523 54.4318C111.679 54.5256 112.128 54.7898 112.464 54.8536C112.542 54.8659 112.964 54.919 112.964 54.919C112.981 54.7341 113.181 54.7181 113.181 54.7181L112.584 54.6527C112.102 54.617 111.735 54.4156 111.45 54.093C111.833 54.3252 112.383 54.6908 112.829 54.6712C114.661 54.4912 112.277 54.4458 112.071 54.3132C111.851 54.1779 111.664 53.9532 111.664 53.9532L111.127 53.9292C111.127 53.9292 110.863 53.9127 111.139 54.147Z" fill="#1E9A1C"/>
<path d="M113.026 54.9959L112.956 54.987C112.956 54.987 112.532 54.9337 112.453 54.9213C112.213 54.8756 111.88 54.7267 111.488 54.4904C111.348 54.4061 111.216 54.3079 111.094 54.1986C111.009 54.1263 110.917 54.032 110.953 53.942C110.988 53.8563 111.108 53.8596 111.132 53.8607L111.698 53.8861L111.717 53.9094C111.719 53.9115 111.9 54.1273 112.107 54.2549C112.167 54.2936 112.551 54.3336 112.831 54.3628C113.482 54.4306 113.586 54.4487 113.586 54.5491C113.586 54.6122 113.565 54.6511 113.189 54.7003L113.187 54.7865C113.173 54.7878 113.044 54.8033 113.033 54.9253L113.026 54.9959ZM111.091 53.9993C111.102 54.0165 111.127 54.0471 111.184 54.0948L111.185 54.0961C111.3 54.1998 111.426 54.2931 111.559 54.3731C111.937 54.601 112.255 54.744 112.477 54.7861C112.535 54.7953 112.791 54.828 112.911 54.8431C112.921 54.8118 112.937 54.785 112.956 54.7623L112.734 54.7379C112.706 54.7361 112.677 54.7329 112.649 54.7286L112.577 54.7207C112.101 54.6856 111.714 54.4951 111.399 54.1385L111.486 54.0345L111.59 54.0982C111.696 54.1631 111.813 54.235 111.936 54.3038C111.793 54.1971 111.677 54.0716 111.632 54.0203L111.125 53.9976C111.114 53.9973 111.101 53.9978 111.091 53.9993ZM112.754 54.6023C112.778 54.6035 112.803 54.6038 112.827 54.6027C113.031 54.5826 113.171 54.5651 113.267 54.5506C113.134 54.5321 112.961 54.5141 112.817 54.4991C112.494 54.4655 112.262 54.44 112.131 54.4071C112.306 54.4936 112.485 54.5639 112.652 54.5912L112.754 54.6023Z" fill="black"/>
<path d="M113.296 55.1898C113.414 55.1811 113.497 55.1589 113.524 55.0291C113.548 54.884 113.493 54.7787 113.318 54.7406C113.221 54.7166 113.051 54.7115 112.982 54.884C112.906 55.0607 113.181 55.1742 113.181 55.1742C113.181 55.1742 113.234 55.1971 113.296 55.1898ZM113.501 54.1397C113.346 54.1397 113.294 54.2662 113.327 54.5127C113.368 54.7615 113.748 54.6527 113.748 54.6527L113.818 54.6164C113.818 54.6164 113.87 54.5764 113.842 54.3786C113.815 54.176 113.657 54.1397 113.501 54.1397ZM114.124 54.3142H114.118C114.115 54.316 114.124 54.3142 114.124 54.3142Z" fill="#1E9A1C"/>
<path d="M113.271 55.2599C113.208 55.2599 113.16 55.2399 113.154 55.2372C113.136 55.2299 112.97 55.1582 112.916 55.0275C112.894 54.9722 112.895 54.9134 112.919 54.8572C112.996 54.6657 113.184 54.6367 113.335 54.6743C113.338 54.6748 113.34 54.6754 113.343 54.6761C113.298 54.6387 113.27 54.5866 113.259 54.524C113.235 54.343 113.254 54.2202 113.319 54.1467C113.362 54.0967 113.424 54.0713 113.501 54.0713C113.746 54.0713 113.883 54.1718 113.91 54.3698C113.94 54.5831 113.886 54.6514 113.861 54.6707L113.78 54.7138C113.751 54.723 113.615 54.76 113.486 54.7381C113.577 54.8034 113.614 54.9069 113.592 55.0405C113.554 55.2241 113.423 55.2493 113.302 55.2583C113.292 55.2594 113.281 55.2599 113.271 55.2599ZM113.22 54.7967C113.154 54.7967 113.081 54.8202 113.045 54.9097C113.035 54.9337 113.035 54.9541 113.043 54.9755C113.07 55.0417 113.171 55.0958 113.207 55.1111C113.208 55.1114 113.246 55.1269 113.288 55.1219L113.291 55.1216C113.41 55.1129 113.441 55.093 113.457 55.0154C113.476 54.8983 113.431 54.8355 113.304 54.8077C113.28 54.8018 113.25 54.7967 113.22 54.7967ZM113.502 54.2084C113.453 54.2084 113.433 54.2247 113.422 54.2369C113.397 54.2654 113.372 54.3347 113.395 54.5037C113.401 54.5376 113.416 54.5622 113.443 54.5793C113.522 54.6295 113.68 54.6009 113.729 54.587L113.771 54.5642C113.777 54.5487 113.79 54.5003 113.774 54.3885C113.757 54.2587 113.68 54.2084 113.502 54.2084ZM114.082 54.3928L114.033 54.2871L114.098 54.2458H114.118L114.128 54.3109L114.182 54.2906L114.128 54.3112L114.131 54.3348L114.138 54.3816L114.082 54.3928Z" fill="black"/>
<path d="M114.119 54.3145C114.123 54.3127 114.134 54.3073 114.174 54.296C114.253 54.266 114.334 54.0756 114.334 54.0756C114.374 53.8185 114.19 53.7549 114.19 53.7549C113.879 53.6931 113.871 53.9653 113.871 53.9653C113.786 54.3198 114.073 54.3164 114.119 54.3144M112.738 53.0967C112.755 53.2145 112.922 53.3851 112.948 53.4144C112.979 53.4407 113.193 53.6638 113.265 53.7634C113.337 53.8636 113.577 54.3167 113.577 54.3167C113.577 54.3167 113.619 54.3098 113.636 54.2753C113.678 54.2047 113.476 53.6556 113.455 53.6178C113.381 53.4511 113.26 53.3267 113.138 53.1967C113.11 53.1784 113.01 53.05 112.9 52.9122C113.117 53.1896 113.673 53.9785 113.837 54.3293C113.837 54.3293 113.817 53.9554 113.797 53.7547C113.727 53.1693 113.575 52.988 113.526 52.9033C113.439 52.7451 113.22 52.5913 113.063 52.5371C112.907 52.4804 112.721 52.4025 112.523 52.3389C112.318 52.2764 112.475 52.4611 112.551 52.6204C112.646 52.8087 112.721 52.9776 112.738 53.0969" fill="#1E9A1C"/>
<path d="M113.54 54.3924L113.517 54.3488C113.434 54.1935 113.264 53.8797 113.21 53.8034C113.142 53.7095 112.932 53.4905 112.904 53.466L112.888 53.449C112.802 53.3568 112.687 53.2211 112.671 53.1067L112.671 53.1066C112.654 52.9887 112.57 52.8101 112.49 52.6511C112.473 52.614 112.451 52.577 112.431 52.542C112.372 52.4383 112.324 52.3563 112.374 52.2944C112.421 52.2356 112.507 52.2621 112.543 52.2734C112.676 52.3158 112.802 52.3643 112.918 52.4088C112.977 52.4316 113.034 52.4533 113.087 52.4726C113.257 52.5313 113.491 52.6964 113.586 52.8704L113.604 52.8987C113.668 53 113.802 53.2105 113.865 53.7466C113.866 53.7584 113.867 53.7707 113.869 53.7835C113.881 53.7676 113.896 53.7523 113.913 53.7383C113.986 53.6807 114.083 53.6638 114.203 53.6876C114.295 53.7185 114.44 53.838 114.402 54.0862C114.376 54.1532 114.298 54.3225 114.199 54.36C114.164 54.3702 114.153 54.3745 114.149 54.3765L114.119 54.314L114.122 54.3828C114.079 54.385 113.982 54.3817 113.902 54.3265L113.775 54.3583C113.757 54.3196 113.734 54.276 113.708 54.2283C113.71 54.2639 113.706 54.2924 113.696 54.3101C113.665 54.37 113.596 54.383 113.588 54.3844L113.54 54.3924ZM114.107 53.8133C114.064 53.8133 114.027 53.8236 113.999 53.8449C113.944 53.8879 113.94 53.9669 113.94 53.9677C113.922 54.048 113.912 54.1386 113.956 54.1914C113.996 54.2399 114.069 54.2461 114.104 54.2461H114.106C114.115 54.2424 114.131 54.2372 114.156 54.2299C114.177 54.2216 114.235 54.1345 114.271 54.049C114.296 53.8742 114.18 53.8243 114.167 53.8193C114.146 53.8154 114.126 53.8133 114.107 53.8133ZM112.806 53.0872C112.812 53.1265 112.849 53.2049 112.988 53.356L113 53.3687C113.026 53.3903 113.244 53.6175 113.321 53.7232C113.367 53.7869 113.473 53.9793 113.55 54.1212C113.529 54.0336 113.493 53.9196 113.461 53.825C113.239 53.4847 112.973 53.1163 112.847 52.9543L112.954 52.8695L112.991 52.9152C113.064 53.0076 113.155 53.1226 113.177 53.1403L113.206 53.1685C113.323 53.2924 113.443 53.4206 113.519 53.5899C113.519 53.5902 113.549 53.6648 113.586 53.7666C113.645 53.8572 113.701 53.9458 113.75 54.0279C113.744 53.9337 113.736 53.8354 113.729 53.7616C113.669 53.2576 113.547 53.0648 113.488 52.9721L113.467 52.9376C113.391 52.7977 113.185 52.6516 113.041 52.6019C112.986 52.5819 112.929 52.5599 112.869 52.5367C112.758 52.4944 112.638 52.4482 112.513 52.4077C112.525 52.4298 112.539 52.4542 112.55 52.4738C112.572 52.5118 112.595 52.5522 112.613 52.5909C112.698 52.7586 112.787 52.9498 112.807 53.0872H112.806Z" fill="black"/>
<path d="M111.975 54.0598C112.177 54.2312 112.268 54.3507 112.687 54.4125C113.11 54.4789 113.146 54.4507 113.146 54.4507C113.146 54.4507 113.365 54.3447 113.254 54.2518C112.632 53.9783 112.043 53.6529 111.745 53.2869C111.745 53.2869 111.796 53.2365 112.012 53.4523C112.137 53.5789 112.221 53.6423 112.297 53.7018C112.523 53.86 112.621 53.905 112.847 54.028C112.967 54.0934 113.267 54.164 113.267 54.164C113.267 54.164 113.31 54.073 113.348 54.0623C113.385 54.0536 113.325 53.9109 113.064 53.6996C112.919 53.5795 112.791 53.4402 112.683 53.2856C112.683 53.2856 112.374 53.218 112.039 53.1621C111.789 53.1225 111.32 52.7581 111.328 52.857C111.336 52.9589 111.398 53.2745 111.525 53.4752C111.652 53.6769 111.773 53.883 111.975 54.06" fill="#1E9A1C"/>
<path d="M113.095 54.526C113.028 54.526 112.905 54.5161 112.676 54.4802C112.286 54.4227 112.158 54.3109 111.996 54.1693L111.93 54.112L111.97 54.0645L111.929 54.1114C111.736 53.942 111.614 53.7479 111.496 53.5601L111.466 53.5118C111.334 53.3025 111.269 52.9784 111.259 52.8626L111.255 52.8214L111.296 52.7848C111.355 52.747 111.43 52.79 111.611 52.8931C111.755 52.9747 111.934 53.0762 112.049 53.0944C112.382 53.1499 112.694 53.2178 112.697 53.2186L112.723 53.2242L112.738 53.2463C112.842 53.3957 112.966 53.5303 113.107 53.6467C113.275 53.7827 113.447 53.9649 113.423 54.0673L113.414 54.1089L113.363 54.1289C113.364 54.1321 113.342 54.1651 113.329 54.1931L113.317 54.2179C113.354 54.259 113.355 54.3013 113.352 54.3246C113.34 54.4253 113.214 54.4938 113.175 54.5123C113.171 54.5165 113.16 54.526 113.095 54.526ZM112.018 54.0074L112.086 54.066C112.243 54.2027 112.346 54.293 112.697 54.3446C113.032 54.3973 113.112 54.3877 113.122 54.3863C113.173 54.3573 113.213 54.3237 113.216 54.3077C112.458 53.9768 111.956 53.6549 111.691 53.3301L111.651 53.2815L111.696 53.2377C111.763 53.1726 111.885 53.2287 112.06 53.4038C112.176 53.522 112.254 53.5818 112.328 53.6398C112.52 53.7743 112.615 53.8255 112.773 53.9102L112.879 53.9677C112.956 54.0096 113.129 54.0586 113.232 54.0847C113.245 54.0638 113.261 54.0425 113.279 54.0257C113.256 53.9822 113.186 53.887 113.02 53.7528C112.876 53.6339 112.749 53.4975 112.642 53.3469C112.561 53.3296 112.301 53.2754 112.027 53.2297C111.888 53.2076 111.697 53.0993 111.544 53.0123C111.499 52.987 111.448 52.9583 111.408 52.9373C111.431 53.0689 111.488 53.2887 111.582 53.4386L111.613 53.4872C111.73 53.6746 111.841 53.8515 112.018 54.0074ZM113.329 53.9963C113.326 53.997 113.323 53.9979 113.32 53.9991C113.323 53.998 113.326 53.9971 113.329 53.9963Z" fill="black"/>
<path d="M108.477 66.7117C108.294 66.7657 106.919 67.2821 106.919 67.2821L106.535 67.4359C107.065 67.3166 107.471 67.5837 107.471 67.5837L109.003 66.8746C109.003 66.8746 108.999 66.8513 108.96 66.8239C108.92 66.7966 108.663 66.6559 108.477 66.7117Z" fill="#1E9A1C"/>
<path d="M107.467 67.6461L107.442 67.6296C107.438 67.6269 107.047 67.376 106.548 67.4895L106.515 67.3852L106.899 67.2313C106.957 67.2098 108.278 66.7137 108.462 66.6594C108.694 66.5903 108.989 66.7767 108.992 66.7787C109.045 66.8167 109.056 66.854 109.058 66.8645L109.065 66.9064L107.467 67.6461ZM106.891 67.3526C107.185 67.3696 107.402 67.4795 107.475 67.5218L108.911 66.8572C108.842 66.8185 108.636 66.7212 108.494 66.7641L108.494 66.7643C108.314 66.8171 106.953 67.3282 106.939 67.3334L106.891 67.3526Z" fill="black"/>
<path d="M106.477 67.4823C106.467 67.4911 106.457 67.5274 106.483 67.5391C106.56 67.5814 106.539 67.5981 106.886 67.6398C107.236 67.6778 107.464 67.6114 107.524 67.5452C107.594 67.4683 106.657 67.3251 106.477 67.4823" fill="#1E9A1C"/>
<path d="M107.083 67.7092C107.02 67.7092 106.952 67.7057 106.88 67.6979C106.582 67.6622 106.542 67.6439 106.481 67.6057C106.473 67.6009 106.465 67.5958 106.455 67.5901C106.432 67.5807 106.413 67.5562 106.409 67.5258C106.404 67.4937 106.416 67.4578 106.439 67.4383C106.632 67.2696 107.465 67.3832 107.564 67.4841C107.593 67.5134 107.594 67.5557 107.568 67.5846C107.508 67.6506 107.337 67.7092 107.083 67.7092ZM106.545 67.5077C106.585 67.5326 106.615 67.5482 106.893 67.5816C107.156 67.61 107.333 67.5764 107.421 67.5411C107.233 67.4839 106.711 67.4299 106.545 67.5077ZM106.484 67.4908L106.515 67.5269C106.516 67.526 106.517 67.5253 106.518 67.5246C106.517 67.5251 106.516 67.5258 106.515 67.5264L106.484 67.4908Z" fill="black"/>
<path d="M104.277 62.5354L104.213 62.1056C104.213 62.1056 104.133 60.9434 104.001 60.7103C103.976 60.6587 103.988 60.5379 103.904 60.5359C103.743 60.5239 103.743 60.9019 103.724 61.2445C103.463 62.9717 104.841 64.2907 104.841 64.2907L104.277 62.5354Z" fill="#1E9A1C"/>
<path d="M104.788 64.3454C104.774 64.3319 103.385 62.9791 103.648 61.233L103.653 61.1314C103.667 60.8442 103.68 60.5961 103.788 60.5008C103.822 60.4707 103.864 60.4562 103.909 60.4601C104.025 60.4628 104.048 60.5796 104.059 60.6359C104.062 60.6504 104.066 60.6703 104.069 60.6769C104.203 60.9138 104.28 61.9796 104.289 62.1004L104.351 62.518L104.913 64.2673L104.788 64.3454ZM103.893 60.6073C103.829 60.6677 103.815 60.9402 103.805 61.1391L103.799 61.2486C103.614 62.4782 104.284 63.5061 104.657 63.9702L104.201 62.5466L104.138 62.1167C104.105 61.6504 104.025 60.9075 103.935 60.7477C103.921 60.7193 103.915 60.692 103.91 60.6654C103.906 60.648 103.9 60.6155 103.893 60.6073Z" fill="black"/>
<path d="M111.095 67.6533C111.095 67.6533 110.95 67.6211 111.042 67.5082C111.129 67.401 111.39 67.3435 111.442 67.3435C111.493 67.3413 111.64 67.354 111.748 67.3844C111.858 67.4115 112.01 67.5082 111.965 67.5784C111.919 67.6451 111.771 67.7284 111.568 67.7284C111.394 67.7284 111.305 67.724 111.228 67.7022C111.154 67.674 111.095 67.6533 111.095 67.6533Z" fill="#1E9A1C"/>
<path d="M111.567 67.7982C111.389 67.7982 111.295 67.7941 111.208 67.7694C111.14 67.7435 111.086 67.7247 111.074 67.7203C111.049 67.7137 110.973 67.6886 110.948 67.6182C110.936 67.5842 110.933 67.5301 110.987 67.464C111.095 67.3323 111.381 67.2733 111.442 67.2733C111.501 67.2703 111.652 67.2847 111.767 67.3168C111.848 67.3367 111.994 67.4053 112.033 67.5024C112.049 67.5415 112.046 67.5818 112.024 67.6157C111.962 67.7048 111.794 67.7982 111.567 67.7982ZM111.118 67.5871C111.118 67.5871 111.177 67.6082 111.253 67.6368C111.317 67.6547 111.406 67.6583 111.567 67.6583C111.761 67.6583 111.88 67.5775 111.908 67.5383C111.896 67.5326 111.819 67.4738 111.731 67.4523C111.628 67.4234 111.489 67.4092 111.445 67.4133C111.397 67.4133 111.164 67.4688 111.096 67.5525C111.082 67.5688 111.081 67.5768 111.081 67.5768C111.084 67.5743 111.098 67.5821 111.11 67.585L111.096 67.6492L111.118 67.5871Z" fill="black"/>
<path d="M109.599 66.8313C109.599 66.8313 109.126 66.6138 108.678 66.3946C108.087 66.106 107.377 65.7055 106.882 64.9706C106.263 64.0608 105.725 63.5735 105.595 63.4755C105.461 63.3773 105.442 63.3409 105.393 63.41C105.348 63.47 105.379 63.5222 105.417 63.5858C105.544 63.7929 105.857 64.1819 105.969 64.3908C106.162 64.7638 106.563 65.1713 106.559 65.4129C106.559 65.4466 106.442 65.3889 106.442 65.3889C106.442 65.3889 105.506 65.0682 105.127 63.9337C104.85 63.1111 104.968 62.8695 104.904 62.4586C104.794 61.728 104.772 61.6688 104.41 60.8499C104.4 60.8295 104.189 60.4873 104.161 60.5633C104.121 60.6615 104.196 61.0277 104.196 61.0277L104.235 61.4495C104.235 61.4495 104.204 62.3859 104.204 62.4426C104.204 62.4993 103.968 63.0837 104.97 64.0662C104.97 64.0662 104.986 64.2331 104.851 64.0862C104.756 63.9811 104.038 63.4302 103.82 62.524C103.596 61.6175 103.563 60.7102 103.733 60.3335C103.887 59.9931 104.196 59.1608 104.064 58.4338C104.049 58.358 104.028 58.1349 103.98 58.1935C103.959 58.2219 103.869 58.5898 103.815 58.7171C103.739 58.8913 103.622 59.0626 103.585 59.1829C103.515 59.3871 103.169 59.7029 103.237 60.2839C103.313 60.9515 103.357 61.0559 103.437 61.2939C103.465 61.3804 103.532 61.6015 103.488 61.6237C103.448 61.6449 103.306 61.3593 103.306 61.3593C103.306 61.3593 102.672 60.1124 103.063 59.1008C103.459 58.0935 104.451 57.1384 104.451 57.1384C104.451 57.1384 105.257 56.4698 105.421 56.3142C105.486 56.2542 105.47 56.2091 105.449 56.216C105.248 56.2666 103.697 56.5875 103.152 58.4357C103.152 58.4357 103.124 58.5135 103.084 58.4942C103.034 58.4719 103.084 58.3851 103.084 58.3851C103.084 58.3851 103.425 57.0749 104.382 56.4806C105.427 55.8288 105.305 55.9242 105.65 55.7191C105.868 55.5839 106.064 55.4028 106.308 55.0002C106.333 54.9553 106.431 54.7209 106.418 54.6809C106.407 54.6413 106.36 54.696 106.338 54.7624C106.338 54.7624 106.042 55.2195 105.599 55.3733C105.155 55.5273 104.794 55.3078 104.348 55.8013C103.9 56.2975 103.545 56.9846 103.545 56.9846C103.545 56.9846 103.428 57.1624 103.402 57.1569C103.353 57.142 103.426 56.9678 103.426 56.9678C103.426 56.9678 104.023 55.7015 104.503 55.4442C104.983 55.1849 105.41 54.9364 105.683 54.726C106.015 54.466 106.586 53.8295 106.792 53.6102C106.835 53.5633 107.142 53.2527 107.209 53.152C107.25 53.0971 107.348 53.0175 107.332 53.0037C107.288 52.9709 106.997 53.1106 106.997 53.1106C106.997 53.1106 105.416 53.5462 104.433 55.0318C104.387 55.1007 104.279 55.2409 104.221 55.3002C104.116 55.4091 104.064 55.5906 104.064 55.5906C103.999 55.5375 104.62 54.7624 104.62 54.7624L104.728 54.2609C104.728 54.2609 104.912 53.5077 105.298 52.9758C105.336 52.9275 105.564 52.6975 105.602 52.6497C105.679 52.5668 105.457 52.7224 105.496 52.6877C105.496 52.6877 104.022 53.7462 104.022 55.0798C104.022 55.3193 103.873 55.538 103.667 55.8358C103.426 56.1817 103.346 56.394 103.242 56.9086C103.199 57.1249 103.154 57.3409 103.107 57.5566C103.107 57.5566 103.121 57.7469 103.059 57.7327C102.995 57.7186 103.018 57.5611 103.018 57.5611C103.018 57.5611 103.168 56.5671 103.275 56.2611C103.379 55.964 103.448 55.7617 103.448 55.7617C103.448 55.7617 103.386 55.0144 103.552 54.6047C103.693 54.2477 104.049 53.7773 104.104 53.6597C104.128 53.6084 104.293 53.2733 104.34 52.8913C104.346 52.84 104.306 52.8826 104.239 53.0317C104.077 53.3971 103.941 53.4926 103.675 53.8364C103.675 53.8364 102.992 54.3317 102.744 55.8047C102.744 55.8047 102.736 56.3538 102.652 57.2146C102.592 57.8451 102.643 58.4357 102.715 58.7913C102.76 59.0087 102.847 59.0106 102.793 59.0369C102.76 59.0538 102.814 59.0398 102.737 58.8755C102.642 58.6782 102.57 58.3747 102.57 57.9555C102.57 57.1869 102.637 56.57 102.637 56.57C102.637 56.57 102.687 55.3282 102.172 54.7684C102.147 54.7393 102.262 55.0197 102.314 55.2991C102.377 55.6458 102.262 56.1269 102.228 56.3142C102.195 56.5026 101.852 57.3233 101.973 58.0935C101.973 58.0935 102.264 59.3997 102.638 60.0328C102.638 60.0328 102.871 60.3055 102.665 60.0498C102.461 59.7942 102.042 58.7778 102.006 58.6913C101.973 58.6082 101.673 57.9757 101.391 57.7186C101.244 57.5822 100.843 57.3411 100.843 57.3411C100.843 57.3411 100.625 57.1748 100.79 57.3957C100.921 57.5702 101.097 57.8829 101.18 58.0193C101.354 58.3008 101.509 58.5938 101.644 58.8962C101.778 59.1918 102.091 60.0611 102.091 60.0611L102.291 60.6124C102.291 60.6124 102.626 60.7986 102.809 61.0018C102.959 61.1664 103.269 61.544 103.526 62.216C103.642 62.5133 103.873 62.7855 103.873 62.7855C103.873 62.7855 103.824 62.8798 103.618 62.5237C103.415 62.1626 103.216 61.4855 102.727 60.9588C102.356 60.5544 101.356 60.1469 101.356 60.1469C101.356 60.1469 101.998 61.2664 102.158 61.4662C102.428 61.7862 102.818 62.2355 102.919 62.3542C103.023 62.4753 103.627 63.2215 103.716 63.3411C103.857 63.5277 103.95 63.6099 104.023 63.6859C104.183 63.8555 104.655 64.1651 104.692 64.2139C104.698 64.2633 104.708 64.2226 104.668 64.1933C104.458 64.0684 104.208 63.8713 103.95 63.7033C103.693 63.5326 102.698 63.1082 102.029 62.1851C101.87 61.912 101.794 61.8033 101.741 61.8315C101.659 61.8749 102.192 63.638 103.288 64.1988C103.288 64.1988 104.496 64.7364 104.765 64.8982C104.912 64.9866 105.208 65.1175 105.346 65.228C105.424 65.2927 105.274 65.2891 105.264 65.2873C104.622 65.2371 103.7 65.152 103.134 64.8237C103.134 64.8237 102.891 64.6531 103.09 64.8929C103.249 65.0784 103.55 65.5357 104.131 65.7931C104.713 66.0484 105.558 66.1973 105.868 66.2131C106.171 66.23 107.255 66.2353 107.462 66.3026C107.665 66.3713 108.011 66.5928 108.209 66.6566C108.389 66.7147 108.931 66.9227 108.931 66.9227C108.931 66.9227 109.095 67.0122 109.182 67.0438C109.28 67.0829 109.686 67.0793 109.715 67.0033C109.742 66.9351 109.599 66.8313 109.599 66.8313Z" fill="#1E9A1C"/>
<path d="M109.403 67.123C109.303 67.123 109.208 67.1131 109.162 67.0946C109.073 67.0626 108.912 66.9744 108.906 66.9707C108.904 66.9707 108.369 66.7654 108.193 66.7086C108.088 66.6749 107.945 66.5998 107.807 66.527C107.677 66.4581 107.541 66.3869 107.445 66.3544C107.303 66.3082 106.674 66.2915 106.258 66.2805C106.091 66.2761 105.949 66.2723 105.865 66.2677C105.564 66.2523 104.713 66.1077 104.11 65.8432C103.601 65.6177 103.304 65.2459 103.127 65.0236C103.098 64.9872 103.072 64.955 103.049 64.9284C102.977 64.8421 102.93 64.7777 102.974 64.7303C103.009 64.6926 103.062 64.7061 103.166 64.7789C103.738 65.1108 104.72 65.1898 105.257 65.2317C105.167 65.1717 105.048 65.1104 104.941 65.0552C104.863 65.0149 104.79 64.9772 104.737 64.9451C104.475 64.7867 103.278 64.2541 103.266 64.2487C102.218 63.7129 101.68 62.1307 101.678 61.8641C101.678 61.849 101.678 61.8032 101.716 61.7832C101.82 61.7274 101.911 61.8736 102.076 62.1575C102.612 62.8954 103.362 63.3102 103.765 63.533C103.791 63.5472 103.815 63.5605 103.837 63.5731C103.79 63.5218 103.736 63.4584 103.673 63.3741C103.584 63.2542 102.978 62.5065 102.878 62.3899C102.842 62.3476 102.77 62.2647 102.681 62.1607C102.516 61.9698 102.291 61.7086 102.116 61.5016C101.955 61.2995 101.335 60.22 101.309 60.1742L101.23 60.0362L101.377 60.0962C101.403 60.1069 101.805 60.2716 102.191 60.495L102.04 60.0797C102.037 60.0709 101.726 59.209 101.594 58.9188C101.461 58.6194 101.306 58.3265 101.134 58.048C101.114 58.0144 101.088 57.9706 101.058 57.9208C100.968 57.7677 100.844 57.5581 100.747 57.4284C100.689 57.3509 100.648 57.2882 100.692 57.2443C100.728 57.2085 100.78 57.2237 100.876 57.2976C100.888 57.3041 101.28 57.5398 101.428 57.6785C101.726 57.9489 102.027 58.5943 102.057 58.6714L102.065 58.6903C102.07 58.7019 102.075 58.7135 102.079 58.725C101.984 58.3878 101.926 58.129 101.92 58.1054C101.822 57.4793 102.017 56.8365 102.123 56.4913C102.148 56.407 102.168 56.3405 102.175 56.3047C102.179 56.2794 102.185 56.2491 102.192 56.2145C102.234 55.9996 102.313 55.5994 102.26 55.3089C102.229 55.1414 102.175 54.9732 102.143 54.8728C102.109 54.7699 102.1 54.7422 102.143 54.7185L102.182 54.6967L102.214 54.7327C102.539 55.0862 102.645 55.6911 102.679 56.1107C102.688 55.9157 102.69 55.8063 102.69 55.8039C102.929 54.3777 103.561 53.8553 103.637 53.797C103.709 53.7032 103.773 53.6278 103.829 53.5603C103.978 53.383 104.076 53.266 104.189 53.0094C104.269 52.8304 104.305 52.8049 104.351 52.8179C104.363 52.8213 104.402 52.837 104.394 52.898C104.365 53.1428 104.283 53.4115 104.158 53.675C104.135 53.7248 104.086 53.7992 104.018 53.9019C103.89 54.0961 103.696 54.3897 103.603 54.6248C103.444 55.018 103.502 55.7498 103.503 55.7572L103.504 55.7684L103.5 55.7792C103.5 55.7792 103.431 55.9817 103.327 56.2792C103.274 56.4315 103.209 56.7632 103.158 57.0521C103.168 57.0006 103.179 56.9492 103.189 56.8977C103.297 56.3651 103.382 56.1505 103.622 55.8046C103.815 55.5259 103.967 55.3056 103.967 55.0798C103.967 53.7335 105.403 52.6871 105.465 52.6432L105.478 52.66L105.471 52.6426C105.476 52.6401 105.486 52.6334 105.499 52.6255C105.583 52.574 105.625 52.548 105.661 52.591C105.694 52.6314 105.655 52.673 105.643 52.6867C105.625 52.709 105.565 52.7718 105.495 52.8445C105.431 52.9113 105.359 52.9869 105.341 53.0097C104.967 53.5246 104.783 54.2664 104.782 54.2739L104.719 54.5622C105.692 53.4245 106.969 53.0617 106.983 53.0578C107.295 52.907 107.344 52.9442 107.365 52.9598L107.386 52.9755L107.388 53.0052C107.39 53.0409 107.363 53.0686 107.314 53.1189C107.292 53.141 107.269 53.1646 107.254 53.1847C107.205 53.258 107.045 53.4265 106.88 53.5973L106.832 53.6474C106.799 53.6821 106.758 53.727 106.71 53.7792C106.444 54.0665 106 54.5474 105.717 54.7691C105.476 54.9548 105.099 55.1845 104.529 55.4922C104.088 55.7288 103.527 56.8854 103.479 56.9844C103.486 56.9743 103.493 56.9643 103.5 56.9545C103.5 56.9525 103.861 56.2603 104.307 55.7646C104.616 55.4234 104.894 55.406 105.163 55.389C105.297 55.3806 105.437 55.3718 105.582 55.3215C105.977 55.1845 106.256 54.7874 106.289 54.7376C106.301 54.7048 106.342 54.608 106.408 54.6128C106.432 54.6134 106.461 54.6279 106.471 54.6663C106.496 54.7406 106.357 55.024 106.356 55.0266C106.085 55.4748 105.871 55.6465 105.68 55.7655C105.577 55.8261 105.516 55.8605 105.454 55.8953C105.305 55.9789 105.152 56.0655 104.412 56.527C104.058 56.7462 103.79 57.0677 103.593 57.3826C104.151 56.5946 104.924 56.2874 105.413 56.1684L105.436 56.1629C105.463 56.1537 105.495 56.1666 105.512 56.1943C105.532 56.2288 105.529 56.2889 105.459 56.3541C105.296 56.5089 104.519 57.1531 104.486 57.1805C104.48 57.1873 103.501 58.1365 103.114 59.1207C102.736 60.098 103.349 61.3221 103.355 61.3343C103.379 61.3815 103.406 61.4327 103.432 61.4756C103.423 61.4353 103.408 61.3815 103.385 61.3103L103.373 61.275C103.3 61.0589 103.256 60.9286 103.183 60.2899C103.131 59.8438 103.316 59.542 103.438 59.3422C103.481 59.2731 103.517 59.2133 103.534 59.165C103.555 59.0953 103.602 59.01 103.651 58.9195C103.691 58.8467 103.732 58.7713 103.765 58.6952C103.793 58.629 103.834 58.486 103.867 58.3712C103.91 58.2204 103.922 58.1801 103.936 58.1615C103.967 58.1234 104 58.1279 104.013 58.1314C104.069 58.1465 104.085 58.215 104.109 58.3677C104.113 58.3894 104.116 58.4089 104.118 58.423C104.262 59.2128 103.898 60.1022 103.783 60.356C103.617 60.7233 103.655 61.6296 103.874 62.5108C104.04 63.201 104.502 63.6816 104.745 63.9112C104.379 63.5067 104.042 62.9753 104.146 62.4593C104.148 62.4508 104.149 62.4446 104.15 62.4403C104.15 62.3856 104.179 61.4858 104.18 61.4476L104.142 61.0326C104.13 60.9748 104.067 60.6509 104.11 60.5429C104.12 60.5167 104.144 60.4989 104.171 60.4975H104.174C104.278 60.4975 104.458 60.8224 104.46 60.8258C104.831 61.6669 104.85 61.7276 104.958 62.4504C104.979 62.5845 104.981 62.6999 104.983 62.8222C104.988 63.0758 104.993 63.3631 105.179 63.9162C105.545 65.0124 106.451 65.334 106.46 65.337C106.473 65.343 106.485 65.3485 106.497 65.3533C106.464 65.2224 106.335 65.0397 106.209 64.862C106.105 64.7159 105.998 64.5646 105.921 64.416C105.86 64.3016 105.734 64.1285 105.612 63.9609C105.517 63.8299 105.427 63.7061 105.371 63.6143C105.331 63.5476 105.283 63.4662 105.349 63.3773C105.366 63.3544 105.39 63.3261 105.427 63.3206C105.474 63.3134 105.51 63.3416 105.57 63.3878C105.587 63.4005 105.606 63.4151 105.628 63.4313C105.785 63.5497 106.323 64.0504 106.928 64.9398C107.404 65.6475 108.092 66.0474 108.702 66.3453C109.145 66.5618 109.617 66.7794 109.622 66.7816L109.631 66.7869C109.673 66.8171 109.806 66.9234 109.766 67.0236C109.757 67.0474 109.736 67.0676 109.702 67.0822C109.64 67.1099 109.518 67.123 109.403 67.123ZM103.175 64.9082C103.186 64.9229 103.199 64.9387 103.212 64.9554C103.383 65.1697 103.67 65.5284 104.154 65.743C104.717 65.9898 105.558 66.1424 105.871 66.1584C105.954 66.163 106.096 66.1667 106.261 66.1711C106.841 66.1864 107.333 66.2031 107.48 66.2505C107.585 66.286 107.724 66.3593 107.858 66.4302C107.992 66.5007 108.131 66.5737 108.226 66.6046C108.405 66.6623 108.929 66.8631 108.951 66.8716C108.96 66.8757 109.119 66.9625 109.201 66.9923C109.292 67.0286 109.623 67.0168 109.669 66.9762C109.665 66.9659 109.619 66.9146 109.571 66.8787C109.519 66.8546 109.073 66.6486 108.654 66.4437C108.031 66.1394 107.328 65.7301 106.837 65.001C106.241 64.1241 105.715 63.634 105.562 63.5191C105.54 63.5028 105.52 63.4877 105.504 63.4748C105.481 63.4575 105.458 63.44 105.445 63.4323C105.443 63.4346 105.441 63.4376 105.438 63.4417C105.418 63.4685 105.422 63.4858 105.464 63.5571C105.518 63.6452 105.607 63.7674 105.701 63.8966C105.824 64.0671 105.953 64.2434 106.018 64.3648C106.092 64.5074 106.197 64.6555 106.298 64.7988C106.469 65.0401 106.617 65.2484 106.614 65.4139L106.614 65.4437L106.584 65.4677C106.57 65.476 106.537 65.4968 106.418 65.4378C106.386 65.4272 105.459 65.098 105.075 63.951C104.884 63.3819 104.879 63.0856 104.874 62.8242C104.872 62.7058 104.87 62.5939 104.85 62.4671C104.744 61.7578 104.725 61.6981 104.36 60.872C104.344 60.8414 104.261 60.7134 104.204 60.6456C104.203 60.7407 104.227 60.9043 104.25 61.0167L104.29 61.4444C104.279 61.7748 104.259 62.3984 104.259 62.4424C104.259 62.4495 104.257 62.4625 104.254 62.481C104.141 63.0364 104.602 63.6283 105.009 64.0271L105.023 64.0412L105.025 64.0612C105.027 64.0857 105.03 64.1681 104.97 64.1946C104.904 64.2244 104.836 64.1505 104.811 64.123C104.799 64.1093 104.776 64.0884 104.744 64.0598C104.559 63.8892 104.11 63.4748 103.866 62.8503C103.861 62.8512 103.857 62.8519 103.851 62.8515C103.801 62.8515 103.724 62.8153 103.571 62.5509C103.511 62.444 103.454 62.3151 103.387 62.1656C103.228 61.8086 103.03 61.3641 102.688 60.9961C102.414 60.6981 101.778 60.3929 101.486 60.2628C101.665 60.5706 102.08 61.2802 102.201 61.4321C102.374 61.6378 102.599 61.8986 102.763 62.0891C102.853 62.1935 102.925 62.2768 102.961 62.3189C103.065 62.44 103.667 63.1832 103.76 63.3084C103.873 63.4577 103.955 63.539 104.02 63.6044L104.063 63.6477C104.157 63.748 104.371 63.9036 104.527 64.0172C104.667 64.1195 104.718 64.1575 104.736 64.1807L104.746 64.2059C104.753 64.2232 104.755 64.2407 104.749 64.2567L104.734 64.296L104.691 64.2913C104.661 64.2878 104.649 64.2658 104.643 64.2459C104.521 64.169 104.393 64.0783 104.258 63.982C104.149 63.9046 104.036 63.824 103.921 63.7491C103.874 63.7185 103.803 63.6789 103.712 63.6289C103.302 63.402 102.538 62.9794 101.985 62.2171C101.939 62.1385 101.848 61.9827 101.791 61.9142C101.843 62.2514 102.378 63.6715 103.313 64.15C103.36 64.1706 104.525 64.6896 104.793 64.8514C104.845 64.8824 104.916 64.9188 104.991 64.9579C105.13 65.0296 105.288 65.1108 105.38 65.1853C105.434 65.2294 105.426 65.2693 105.417 65.289C105.385 65.3574 105.256 65.3414 105.255 65.3411C104.738 65.3009 103.783 65.2262 103.175 64.9082ZM102.336 60.5747C102.41 60.6172 102.686 60.7825 102.85 60.9652C103.144 61.2885 103.389 61.7029 103.578 62.1965C103.629 62.3288 103.706 62.4574 103.772 62.5571C103.771 62.5504 103.769 62.5435 103.767 62.5367C103.54 61.62 103.506 60.7047 103.683 60.3109C103.795 60.0643 104.148 59.2012 104.011 58.4436C104.008 58.4293 104.005 58.4083 104.001 58.3847C103.999 58.3704 103.996 58.3513 103.992 58.3311C103.986 58.3542 103.979 58.3786 103.972 58.4012C103.937 58.5252 103.897 58.6656 103.866 58.7385C103.83 58.8194 103.788 58.897 103.747 58.9721C103.7 59.0573 103.656 59.1379 103.638 59.1987C103.617 59.2603 103.577 59.3248 103.531 59.3995C103.41 59.5975 103.244 59.8688 103.291 60.2773C103.363 60.9044 103.406 61.0307 103.477 61.2399L103.489 61.2762C103.583 61.5705 103.569 61.6441 103.513 61.6724L103.493 61.6825L103.462 61.6759C103.445 61.6704 103.391 61.6532 103.258 61.3835C103.232 61.3322 102.617 60.1037 103.012 59.081C103.408 58.0739 104.403 57.1085 104.414 57.099C104.424 57.0899 105.163 56.4773 105.363 56.2944C104.711 56.4699 103.639 56.9794 103.205 58.4511C103.198 58.471 103.174 58.527 103.128 58.5457C103.106 58.5546 103.082 58.5539 103.06 58.5434C103.038 58.5334 103.02 58.5139 103.012 58.4892C102.997 58.4419 103.02 58.3878 103.033 58.3646C103.064 58.2503 103.414 57.0174 104.354 56.434C105.096 55.9713 105.251 55.8841 105.401 55.7999C105.462 55.7654 105.523 55.7314 105.623 55.672C105.801 55.5607 106.003 55.3984 106.261 54.9718C106.266 54.9625 106.274 54.9475 106.282 54.9292C106.156 55.0816 105.922 55.3194 105.618 55.4249C105.459 55.4801 105.312 55.4893 105.169 55.4983C104.9 55.5152 104.667 55.5299 104.389 55.8379C103.951 56.3232 103.597 57.0029 103.594 57.0096C103.454 57.2238 103.422 57.2167 103.391 57.2104C103.366 57.203 103.35 57.1885 103.341 57.1685C103.314 57.1124 103.352 57.0054 103.376 56.9466C103.402 56.892 103.988 55.6587 104.477 55.3959C105.042 55.0911 105.414 54.8644 105.65 54.6827C105.926 54.4667 106.366 53.9898 106.629 53.7049C106.678 53.6525 106.719 53.6074 106.752 53.5727L106.801 53.5213C106.894 53.425 107.112 53.1994 107.164 53.1214C107.173 53.1099 107.183 53.0979 107.194 53.0858C107.14 53.106 107.077 53.133 107.021 53.1599C106.997 53.1676 105.439 53.6117 104.479 55.0619C104.43 55.1359 104.32 55.278 104.261 55.3384C104.251 55.3489 104.241 55.3602 104.232 55.372C104.218 55.3931 104.204 55.4131 104.192 55.4316C104.143 55.5169 104.117 55.6046 104.116 55.6058L104.093 55.6857L104.029 55.6327C104.003 55.6112 103.969 55.5829 104.1 55.372C104.109 55.3575 104.118 55.343 104.128 55.3289C104.212 55.1999 104.35 55.0128 104.569 54.7382L104.675 54.2493C104.683 54.2176 104.856 53.5164 105.223 52.9863C104.798 53.3743 104.077 54.1663 104.077 55.0798C104.077 55.3398 103.916 55.5724 103.712 55.8669C103.482 56.1981 103.4 56.4046 103.296 56.9194C103.253 57.1334 103.209 57.3472 103.162 57.5605C103.166 57.6243 103.165 57.7283 103.117 57.769C103.098 57.7859 103.073 57.7919 103.047 57.786C102.942 57.7629 102.957 57.6021 102.964 57.5533C102.97 57.512 103.116 56.5503 103.224 56.243C103.314 55.9859 103.377 55.7998 103.393 55.7546C103.385 55.6547 103.342 54.978 103.502 54.5842C103.598 54.3389 103.796 54.0397 103.926 53.8416C103.987 53.7501 104.039 53.6712 104.055 53.6363C104.127 53.4852 104.183 53.3355 104.224 53.1908C104.128 53.3737 104.034 53.4858 103.913 53.6306C103.856 53.6986 103.792 53.7747 103.719 53.8698L103.708 53.8806C103.701 53.8854 103.039 54.3841 102.798 55.8137C102.799 55.8137 102.79 56.3688 102.707 57.2197C102.647 57.8443 102.7 58.4354 102.769 58.7805C102.775 58.811 102.782 58.8368 102.79 58.8587C102.799 58.8794 102.807 58.898 102.813 58.9147C102.824 58.9366 102.834 58.9517 102.842 58.9628C102.856 58.983 102.871 59.0059 102.863 59.0369C102.855 59.0677 102.828 59.0809 102.818 59.086L102.79 59.0997L102.752 59.0882L102.725 59.0707L102.727 59.0327C102.728 59.0122 102.722 58.9854 102.713 58.9586C102.704 58.942 102.696 58.9224 102.688 58.8992C102.688 58.8991 102.688 58.8989 102.688 58.8988C102.609 58.7351 102.516 58.4383 102.516 57.9554C102.516 57.1927 102.582 56.5702 102.583 56.5641C102.583 56.5569 102.613 55.6849 102.323 55.0923C102.34 55.155 102.355 55.2219 102.368 55.2891C102.425 55.6002 102.343 56.0136 102.3 56.2358C102.293 56.2696 102.287 56.2992 102.283 56.3239C102.275 56.366 102.255 56.4319 102.227 56.5231C102.125 56.8601 101.934 57.4871 102.028 58.0849C102.03 58.0938 102.277 59.197 102.603 59.8525C102.644 59.9248 102.679 59.9797 102.708 60.0157C102.819 60.1539 102.828 60.1653 102.785 60.2011C102.741 60.2381 102.736 60.231 102.597 60.0682C102.569 60.0224 102.543 59.9734 102.517 59.9218C102.341 59.6163 102.105 59.0698 101.964 58.7325L101.956 58.7124C101.93 58.6472 101.635 58.0141 101.354 57.759C101.249 57.6607 101.001 57.5028 100.882 57.4288C100.972 57.5603 101.075 57.7334 101.153 57.8651C101.182 57.9143 101.207 57.9577 101.227 57.9906C101.402 58.2731 101.559 58.5704 101.694 58.874C101.828 59.1679 102.13 60.007 102.143 60.0425L102.336 60.5747Z" fill="black"/>
<path d="M116.625 57.65C116.747 57.6949 116.802 58.0593 116.802 58.0593C116.802 58.0593 116.791 57.8507 116.791 57.748C116.791 57.6443 116.74 57.2563 116.74 57.2563L116.632 57.3342C116.501 57.4378 116.429 57.6207 116.429 57.6207C116.429 57.6207 116.504 57.6083 116.625 57.6498" fill="#1E9A1C"/>
<path d="M116.734 58.0696C116.709 57.8999 116.646 57.7307 116.602 57.7145L116.602 57.7144C116.502 57.6806 116.441 57.6886 116.44 57.6886L116.324 57.7048L116.366 57.5957C116.369 57.5875 116.447 57.3945 116.589 57.2807L116.794 57.1343L116.809 57.2476C116.811 57.2637 116.86 57.6413 116.86 57.7482C116.86 57.8497 116.871 58.0556 116.871 58.056L116.734 58.0696ZM116.538 57.5572C116.569 57.5623 116.606 57.5709 116.648 57.5852L116.624 57.6529L116.649 57.5858C116.673 57.5948 116.695 57.6108 116.715 57.6316C116.708 57.5546 116.697 57.4585 116.687 57.3791L116.672 57.39C116.614 57.4361 116.569 57.5032 116.538 57.5572Z" fill="black"/>
</g>
<defs>
<clipPath id="clip0_909_261812">
<rect width="218.18" height="120" fill="white"/>
</clipPath>
</defs>
</svg>
