<svg width="229" height="120" viewBox="0 0 229 120" fill="none" xmlns="http://www.w3.org/2000/svg">
<g clip-path="url(#clip0_406_3949)">
<path d="M228.699 0H0.699219V120H228.699V0Z" fill="#D91C16"/>
<path fill-rule="evenodd" clip-rule="evenodd" d="M228.699 18.4615H0.699219V9.23077H228.699V18.4615ZM0.699219 27.6923H228.699V36.9231H0.699219V27.6923ZM228.699 55.3846H0.699219V46.1539H228.699V55.3846ZM0.699219 64.6154H228.699V73.8462H0.699219V64.6154ZM228.699 92.3077H0.699219V83.0769H228.699V92.3077ZM0.699219 101.538H228.699V110.769H0.699219V101.538Z" fill="white"/>
<path d="M91.8992 0H0.699219V64.6154H91.8992V0Z" fill="#021455"/>
<path d="M9.12963 5.32036L8.30066 2.76904L7.47168 5.32036H4.78906L6.95935 6.89717L6.13037 9.44849L8.30066 7.87169L10.4709 9.44849L9.64197 6.89717L11.8122 5.32036H9.12963Z" fill="white"/>
<path d="M9.12963 18.2434L8.30066 15.6921L7.47168 18.2434H4.78906L6.95935 19.8202L6.13037 22.3716L8.30066 20.7948L10.4709 22.3716L9.64197 19.8202L11.8122 18.2434H9.12963Z" fill="white"/>
<path d="M8.30066 28.6152L9.12963 31.1665H11.8122L9.64197 32.7433L10.4709 35.2946L8.30066 33.7178L6.13037 35.2946L6.95935 32.7433L4.78906 31.1665H7.47168L8.30066 28.6152Z" fill="white"/>
<path d="M9.12963 44.0896L8.30066 41.5383L7.47168 44.0896H4.78906L6.95935 45.6664L6.13037 48.2177L8.30066 46.6409L10.4709 48.2177L9.64197 45.6664L11.8122 44.0896H9.12963Z" fill="white"/>
<path d="M8.30066 54.4614L9.12963 57.0127H11.8122L9.64197 58.5895L10.4709 61.1408L8.30066 59.564L6.13037 61.1408L6.95935 58.5895L4.78906 57.0127H7.47168L8.30066 54.4614Z" fill="white"/>
<path d="M16.7296 11.7819L15.9007 9.23058L15.0717 11.7819H12.3891L14.5593 13.3587L13.7304 15.91L15.9007 14.3332L18.0709 15.91L17.242 13.3587L19.4123 11.7819H16.7296Z" fill="white"/>
<path d="M15.9007 22.1537L16.7296 24.705H19.4123L17.242 26.2818L18.0709 28.8331L15.9007 27.2563L13.7304 28.8331L14.5593 26.2818L12.3891 24.705H15.0717L15.9007 22.1537Z" fill="white"/>
<path d="M16.7296 37.6281L15.9007 35.0767L15.0717 37.6281H12.3891L14.5593 39.2049L13.7304 41.7562L15.9007 40.1794L18.0709 41.7562L17.242 39.2049L19.4123 37.6281H16.7296Z" fill="white"/>
<path d="M15.9007 47.9998L16.7296 50.5511H19.4123L17.242 52.1279L18.0709 54.6793L15.9007 53.1025L13.7304 54.6793L14.5593 52.1279L12.3891 50.5511H15.0717L15.9007 47.9998Z" fill="white"/>
<path d="M24.3296 5.32036L23.5007 2.76904L22.6717 5.32036H19.9891L22.1593 6.89717L21.3304 9.44849L23.5007 7.87169L25.6709 9.44849L24.842 6.89717L27.0123 5.32036H24.3296Z" fill="white"/>
<path d="M23.5007 15.6921L24.3296 18.2434H27.0123L24.842 19.8202L25.6709 22.3716L23.5007 20.7948L21.3304 22.3716L22.1593 19.8202L19.9891 18.2434H22.6717L23.5007 15.6921Z" fill="white"/>
<path d="M24.3296 31.1665L23.5007 28.6152L22.6717 31.1665H19.9891L22.1593 32.7433L21.3304 35.2946L23.5007 33.7178L25.6709 35.2946L24.842 32.7433L27.0123 31.1665H24.3296Z" fill="white"/>
<path d="M23.5007 41.5383L24.3296 44.0896H27.0123L24.842 45.6664L25.6709 48.2177L23.5007 46.6409L21.3304 48.2177L22.1593 45.6664L19.9891 44.0896H22.6717L23.5007 41.5383Z" fill="white"/>
<path d="M24.3296 57.0127L23.5007 54.4614L22.6717 57.0127H19.9891L22.1593 58.5895L21.3304 61.1408L23.5007 59.564L25.6709 61.1408L24.842 58.5895L27.0123 57.0127H24.3296Z" fill="white"/>
<path d="M31.1007 9.23058L31.9296 11.7819H34.6123L32.442 13.3587L33.2709 15.91L31.1007 14.3332L28.9304 15.91L29.7593 13.3587L27.5891 11.7819H30.2717L31.1007 9.23058Z" fill="white"/>
<path d="M31.9296 24.705L31.1007 22.1537L30.2717 24.705H27.5891L29.7593 26.2818L28.9304 28.8331L31.1007 27.2563L33.2709 28.8331L32.442 26.2818L34.6123 24.705H31.9296Z" fill="white"/>
<path d="M31.1007 35.0767L31.9296 37.6281H34.6123L32.442 39.2049L33.2709 41.7562L31.1007 40.1794L28.9304 41.7562L29.7593 39.2049L27.5891 37.6281H30.2717L31.1007 35.0767Z" fill="white"/>
<path d="M31.9296 50.5511L31.1007 47.9998L30.2717 50.5511H27.5891L29.7593 52.1279L28.9304 54.6793L31.1007 53.1025L33.2709 54.6793L32.442 52.1279L34.6123 50.5511H31.9296Z" fill="white"/>
<path d="M38.7007 2.76904L39.5297 5.32036H42.2123L40.042 6.89717L40.871 9.44849L38.7007 7.87169L36.5304 9.44849L37.3594 6.89717L35.1891 5.32036H37.8717L38.7007 2.76904Z" fill="white"/>
<path d="M39.5297 18.2434L38.7007 15.6921L37.8717 18.2434H35.1891L37.3594 19.8202L36.5304 22.3716L38.7007 20.7948L40.871 22.3716L40.042 19.8202L42.2123 18.2434H39.5297Z" fill="white"/>
<path d="M38.7007 28.6152L39.5297 31.1665H42.2123L40.042 32.7433L40.871 35.2946L38.7007 33.7178L36.5304 35.2946L37.3594 32.7433L35.1891 31.1665H37.8717L38.7007 28.6152Z" fill="white"/>
<path d="M39.5297 44.0896L38.7007 41.5383L37.8717 44.0896H35.1891L37.3594 45.6664L36.5304 48.2177L38.7007 46.6409L40.871 48.2177L40.042 45.6664L42.2123 44.0896H39.5297Z" fill="white"/>
<path d="M38.7007 54.4614L39.5297 57.0127H42.2123L40.042 58.5895L40.871 61.1408L38.7007 59.564L36.5304 61.1408L37.3594 58.5895L35.1891 57.0127H37.8717L38.7007 54.4614Z" fill="white"/>
<path d="M47.1297 11.7819L46.3007 9.23058L45.4717 11.7819H42.7891L44.9594 13.3587L44.1304 15.91L46.3007 14.3332L48.471 15.91L47.642 13.3587L49.8123 11.7819H47.1297Z" fill="white"/>
<path d="M46.3007 22.1537L47.1297 24.705H49.8123L47.642 26.2818L48.471 28.8331L46.3007 27.2563L44.1304 28.8331L44.9594 26.2818L42.7891 24.705H45.4717L46.3007 22.1537Z" fill="white"/>
<path d="M47.1297 37.6281L46.3007 35.0767L45.4717 37.6281H42.7891L44.9594 39.2049L44.1304 41.7562L46.3007 40.1794L48.471 41.7562L47.642 39.2049L49.8123 37.6281H47.1297Z" fill="white"/>
<path d="M46.3007 47.9998L47.1297 50.5511H49.8123L47.642 52.1279L48.471 54.6793L46.3007 53.1025L44.1304 54.6793L44.9594 52.1279L42.7891 50.5511H45.4717L46.3007 47.9998Z" fill="white"/>
<path d="M54.7297 5.32036L53.9007 2.76904L53.0717 5.32036H50.3891L52.5594 6.89717L51.7304 9.44849L53.9007 7.87169L56.071 9.44849L55.242 6.89717L57.4123 5.32036H54.7297Z" fill="white"/>
<path d="M53.9007 15.6921L54.7297 18.2434H57.4123L55.242 19.8202L56.071 22.3716L53.9007 20.7948L51.7304 22.3716L52.5594 19.8202L50.3891 18.2434H53.0717L53.9007 15.6921Z" fill="white"/>
<path d="M54.7297 31.1665L53.9007 28.6152L53.0717 31.1665H50.3891L52.5594 32.7433L51.7304 35.2946L53.9007 33.7178L56.071 35.2946L55.242 32.7433L57.4123 31.1665H54.7297Z" fill="white"/>
<path d="M53.9007 41.5383L54.7297 44.0896H57.4123L55.242 45.6664L56.071 48.2177L53.9007 46.6409L51.7304 48.2177L52.5594 45.6664L50.3891 44.0896H53.0717L53.9007 41.5383Z" fill="white"/>
<path d="M54.7297 57.0127L53.9007 54.4614L53.0717 57.0127H50.3891L52.5594 58.5895L51.7304 61.1408L53.9007 59.564L56.071 61.1408L55.242 58.5895L57.4123 57.0127H54.7297Z" fill="white"/>
<path d="M61.5007 9.23058L62.3297 11.7819H65.0123L62.842 13.3587L63.671 15.91L61.5007 14.3332L59.3304 15.91L60.1594 13.3587L57.9891 11.7819H60.6717L61.5007 9.23058Z" fill="white"/>
<path d="M62.3297 24.705L61.5007 22.1537L60.6717 24.705H57.9891L60.1594 26.2818L59.3304 28.8331L61.5007 27.2563L63.671 28.8331L62.842 26.2818L65.0123 24.705H62.3297Z" fill="white"/>
<path d="M61.5007 35.0767L62.3297 37.6281H65.0123L62.842 39.2049L63.671 41.7562L61.5007 40.1794L59.3304 41.7562L60.1594 39.2049L57.9891 37.6281H60.6717L61.5007 35.0767Z" fill="white"/>
<path d="M62.3297 50.5511L61.5007 47.9998L60.6717 50.5511H57.9891L60.1594 52.1279L59.3304 54.6793L61.5007 53.1025L63.671 54.6793L62.842 52.1279L65.0123 50.5511H62.3297Z" fill="white"/>
<path d="M69.1006 2.76904L69.9296 5.32036H72.6122L70.4419 6.89717L71.2709 9.44849L69.1006 7.87169L66.9303 9.44849L67.7593 6.89717L65.589 5.32036H68.2716L69.1006 2.76904Z" fill="white"/>
<path d="M69.9296 18.2434L69.1006 15.6921L68.2716 18.2434H65.589L67.7593 19.8202L66.9303 22.3716L69.1006 20.7948L71.2709 22.3716L70.4419 19.8202L72.6122 18.2434H69.9296Z" fill="white"/>
<path d="M69.1006 28.6152L69.9296 31.1665H72.6122L70.4419 32.7433L71.2709 35.2946L69.1006 33.7178L66.9303 35.2946L67.7593 32.7433L65.589 31.1665H68.2716L69.1006 28.6152Z" fill="white"/>
<path d="M69.9296 44.0896L69.1006 41.5383L68.2716 44.0896H65.589L67.7593 45.6664L66.9303 48.2177L69.1006 46.6409L71.2709 48.2177L70.4419 45.6664L72.6122 44.0896H69.9296Z" fill="white"/>
<path d="M69.1006 54.4614L69.9296 57.0127H72.6122L70.4419 58.5895L71.2709 61.1408L69.1006 59.564L66.9303 61.1408L67.7593 58.5895L65.589 57.0127H68.2716L69.1006 54.4614Z" fill="white"/>
<path d="M77.5296 11.7819L76.7006 9.23058L75.8716 11.7819H73.189L75.3593 13.3587L74.5303 15.91L76.7006 14.3332L78.8709 15.91L78.0419 13.3587L80.2122 11.7819H77.5296Z" fill="white"/>
<path d="M76.7006 22.1537L77.5296 24.705H80.2122L78.0419 26.2818L78.8709 28.8331L76.7006 27.2563L74.5303 28.8331L75.3593 26.2818L73.189 24.705H75.8716L76.7006 22.1537Z" fill="white"/>
<path d="M77.5296 37.6281L76.7006 35.0767L75.8716 37.6281H73.189L75.3593 39.2049L74.5303 41.7562L76.7006 40.1794L78.8709 41.7562L78.0419 39.2049L80.2122 37.6281H77.5296Z" fill="white"/>
<path d="M76.7006 47.9998L77.5296 50.5511H80.2122L78.0419 52.1279L78.8709 54.6793L76.7006 53.1025L74.5303 54.6793L75.3593 52.1279L73.189 50.5511H75.8716L76.7006 47.9998Z" fill="white"/>
<path d="M85.1297 5.32036L84.3007 2.76904L83.4717 5.32036H80.7891L82.9594 6.89717L82.1304 9.44849L84.3007 7.87169L86.471 9.44849L85.642 6.89717L87.8123 5.32036H85.1297Z" fill="white"/>
<path d="M84.3007 15.6921L85.1297 18.2434H87.8123L85.642 19.8202L86.471 22.3716L84.3007 20.7948L82.1304 22.3716L82.9594 19.8202L80.7891 18.2434H83.4717L84.3007 15.6921Z" fill="white"/>
<path d="M85.1297 31.1665L84.3007 28.6152L83.4717 31.1665H80.7891L82.9594 32.7433L82.1304 35.2946L84.3007 33.7178L86.471 35.2946L85.642 32.7433L87.8123 31.1665H85.1297Z" fill="white"/>
<path d="M84.3007 41.5383L85.1297 44.0896H87.8123L85.642 45.6664L86.471 48.2177L84.3007 46.6409L82.1304 48.2177L82.9594 45.6664L80.7891 44.0896H83.4717L84.3007 41.5383Z" fill="white"/>
<path d="M85.1297 57.0127L84.3007 54.4614L83.4717 57.0127H80.7891L82.9594 58.5895L82.1304 61.1408L84.3007 59.564L86.471 61.1408L85.642 58.5895L87.8123 57.0127H85.1297Z" fill="white"/>
</g>
<defs>
<clipPath id="clip0_406_3949">
<rect width="228" height="120" fill="white" transform="translate(0.699219)"/>
</clipPath>
</defs>
</svg>
