<svg width="168" height="120" viewBox="0 0 168 120" fill="none" xmlns="http://www.w3.org/2000/svg">
<g clip-path="url(#clip0_909_304270)">
<path d="M0 0H168V120H0V0Z" fill="#0F3296"/>
<path d="M83.7461 38.0273C84.449 38.8476 84.9195 39.6673 84.9195 40.6643C84.3294 40.956 83.514 41.0752 83.0434 41.6025C85.9737 41.1913 86.5574 44.5892 89.8391 43.2998C89.9583 43.7704 90.4288 44.1811 91.0124 44.0035L91.3638 43.0677C92.6502 42.7162 92.2988 44.8245 93.7101 44.4136C94.4134 45.0003 93.9429 45.995 94.4134 46.7008C94.4134 47.5197 94.7651 48.2226 95.1161 48.9252C95.4678 48.5173 95.6999 47.9306 96.5217 48.1064C97.1054 48.7496 97.576 49.3364 97.6947 50.039C97.4566 51.3881 97.1052 52.5584 98.5108 53.2611V53.672C99.4519 54.0829 101.56 53.2611 101.56 54.9019C101.441 55.4887 102.144 54.9616 102.382 55.3128C102.966 55.0775 103.788 55.1969 104.49 55.1969C105.074 56.4268 103.788 57.3051 103.436 58.4189C104.02 59.0027 103.788 60.0598 103.669 60.7592L103.317 60.9351C104.252 61.1107 105.425 60.8221 106.247 61.3492L107.772 61.9327C108.475 61.525 109.291 61.4623 110.232 61.525C110.935 62.0523 109.994 62.9306 110.583 63.3385C111.406 63.3385 112.108 63.4578 112.221 64.1607L112.34 64.3928C112.924 63.3385 114.568 64.0412 115.271 63.2822C116.444 63.2822 116.676 64.5687 117.26 65.2715C117.498 67.091 115.271 67.9132 115.973 69.7265C115.503 70.6048 114.568 71.3079 113.865 72.1297C114.097 72.2489 113.978 72.5376 113.978 72.7133C113.275 73.1276 113.865 74.3573 112.924 74.4707C112.811 75.2358 111.405 74.9411 111.87 75.7629C112.811 76.9928 111.405 77.7522 111.405 78.869C110.815 79.5152 109.642 78.279 109.642 79.5152C108.939 79.6908 108.237 78.869 107.772 79.5719C107.534 80.3939 108.237 80.6824 108.124 81.5045C109.291 81.3851 109.642 82.5586 110.113 83.2615L111.286 84.4347C110.113 85.3697 108.588 84.3154 107.182 84.8424C106.831 84.6668 107.182 84.2024 106.831 84.0268C106.479 83.6125 105.777 83.6125 105.193 83.4993C105.306 84.0268 104.252 84.2022 104.723 84.8422C104.723 85.0178 104.955 85.5451 104.49 85.5451C103.549 85.8401 103.668 84.7295 102.846 85.1372C101.792 85.5451 102.614 87.1265 101.089 86.9507C101.321 88.3627 98.7488 89.2976 100.506 90.5276C100.738 90.7599 100.619 91.2303 100.619 91.5817C99.5642 92.5229 97.6941 92.1716 96.521 91.82C95.5799 91.5817 96.1696 90.4082 95.8184 89.7682C95.4669 89.1785 94.4128 88.7706 94.4128 87.9485C93.7095 87.6596 93.1202 87.4784 92.6496 86.8942C91.0119 88.4756 89.0171 90.0003 86.6759 90.0568C85.6218 90.5838 85.0321 92.6987 83.3942 91.8198C82.751 92.8743 80.8152 91.8198 80.699 93.3387C79.9367 93.6335 80.2881 94.6311 79.8207 95.0955C79.6449 96.2688 79.8207 97.2664 80.8152 97.9695C81.2261 98.8478 79.9367 98.8478 80.4637 99.67C80.5831 99.9588 80.4637 100.373 80.2881 100.492C79.9367 100.667 79.8207 100.844 79.9367 101.195C79.6449 101.195 79.526 101.37 79.2934 101.602C78.9985 102.186 78.0635 102.481 77.4173 102.889C76.7741 103.064 76.3035 102.6 75.8956 102.186C75.7762 102.832 75.2494 103.184 74.6062 103.184C73.668 103.184 73.8438 102.362 73.1409 102.011C73.4327 100.956 72.4947 100.492 72.7895 99.5507C73.5516 98.9672 74.8383 98.553 74.4868 97.3233C73.668 96.3316 73.9598 94.8634 73.1409 93.6902C72.6139 93.2258 71.7354 92.5231 72.0271 91.4061C72.7895 90.5278 72.0271 89.4735 71.6162 88.5385C71.4406 87.7731 70.973 87.0705 70.973 86.1918C69.6836 85.4326 69.6239 83.4371 67.8075 83.2615C66.518 83.2615 66.2857 81.6236 64.9963 81.7366C64.8772 81.5045 64.5854 81.3289 64.3501 81.0966C63.4152 81.7366 62.2419 80.921 61.0714 81.2095C60.3091 79.9231 61.7146 78.1661 59.6629 77.4005V76.5849C59.8982 76.6976 60.0143 76.4653 60.0738 76.3464C60.1899 75.4679 58.6085 75.355 59.2549 74.3571C58.9035 74.0623 58.4926 73.943 58.7279 73.3595C57.8464 71.546 55.2109 71.7218 54.6241 69.9021C55.0947 69.4944 55.0947 69.0801 55.2706 68.7289C54.8594 68.026 54.7435 67.2666 54.8594 66.5075C55.2706 66.3881 55.5026 65.8613 55.7379 65.4469C55.2109 65.0957 54.5675 64.5687 53.9809 64.7443C52.9268 64.5687 52.1643 63.7528 51.2263 63.2822C50.991 63.0499 51.1103 62.636 51.1103 62.3473C52.3995 61.9329 50.9347 60.1165 52.5159 60.352C52.927 59.8249 53.8053 59.6491 54.4487 59.2382C55.0949 59.1222 55.622 59.3573 56.2652 59.5331C56.7923 60.2328 57.7305 59.9411 58.2573 60.5276C58.7844 60.4084 59.4308 60.1165 60.074 60.4084C60.074 59.4138 60.5416 58.8271 61.2472 58.1242C61.3634 57.7162 62.0066 57.4215 62.5337 57.1892C63.5315 57.4215 64.7018 57.4215 65.4077 56.7186C65.8753 57.0134 66.2862 56.4268 66.8132 56.4268C67.4562 56.3077 67.9835 56.4833 68.4541 56.7783C68.5106 55.6048 70.5623 56.6024 70.9734 55.1969C71.441 54.2587 69.684 53.9075 69.8 53.0854C69.5082 52.1473 70.2111 51.6799 70.5623 51.0367C70.9732 50.8608 71.4408 50.6258 71.9679 50.7417C73.317 50.2741 72.2626 47.5197 74.4308 48.5173C74.4308 48.8093 74.3116 49.1605 74.4872 49.2202C75.2496 49.2202 75.3666 48.3408 75.896 48.0469C76.1281 47.2281 75.6013 46.2305 76.3039 45.587C76.6554 45.5276 76.9501 45.4114 77.1824 45.1165C77.1824 44.4733 76.831 44.122 76.3039 43.7109C76.1283 44.0037 75.6607 43.7706 75.3666 43.8867C75.3666 43.1838 74.9578 42.7165 74.8387 42.07C74.4872 41.8944 74.3116 41.6027 74.4308 41.1915C74.9578 40.6645 74.4308 39.3751 75.6607 39.6675C76.1283 39.2589 76.9501 39.5507 77.4177 38.8478C78.6477 38.1451 80.2883 38.1451 81.2265 36.8557C81.6374 36.9152 82.105 36.5043 82.5159 36.8557C82.6323 37.6178 83.7461 37.3229 83.7461 38.0273Z" fill="#D3AE3B"/>
<path d="M75.6401 17.1602L77.2401 22.1402H82.4801L78.2401 25.2202L79.8601 30.2002L75.6401 27.1202L71.4001 30.2002L73.0201 25.2202L68.7801 22.1402H74.0201L75.6401 17.1602Z" fill="white"/>
<path d="M92.3601 17.1602L93.9801 22.1402H99.2201L94.9801 25.2202L96.6001 30.2002L92.3601 27.1202L88.1401 30.2002L89.7601 25.2202L85.5201 22.1402H90.7601L92.3601 17.1602Z" fill="white"/>
<path d="M108.84 20.0801L110.46 25.0401H115.7L111.46 28.1201L113.08 33.1001L108.84 30.0201L104.62 33.1001L106.24 28.1201L102 25.0401H107.24L108.84 20.0801Z" fill="white"/>
<path d="M126.18 30.7601L124.58 25.8001L122.96 30.7601H117.72L121.96 33.8401L120.34 38.8201L124.58 35.7401L128.8 38.8201L127.18 33.8401L131.42 30.7601H126.18Z" fill="white"/>
<path d="M60.7601 25.0401L59.1601 20.0801L57.5401 25.0401H52.3001L56.5401 28.1201L54.9201 33.1001L59.1601 30.0201L63.3801 33.1001L61.7601 28.1201L66.0001 25.0401H60.7601Z" fill="white"/>
<path d="M43.4201 25.8001L45.0401 30.7601H50.2801L46.0401 33.8401L47.6601 38.8201L43.4201 35.7401L39.2001 38.8201L40.8201 33.8401L36.5801 30.7601H41.8201L43.4201 25.8001Z" fill="white"/>
</g>
<defs>
<clipPath id="clip0_909_304270">
<rect width="168" height="120" fill="white"/>
</clipPath>
</defs>
</svg>
