<svg width="168" height="120" viewBox="0 0 168 120" fill="none" xmlns="http://www.w3.org/2000/svg">
<g clip-path="url(#clip0_499_1417)">
<path d="M0 0H168V120H0V0Z" fill="#0F3296"/>
<path d="M83.7461 38.0271C84.449 38.8475 84.9195 39.6671 84.9195 40.6641C84.3294 40.9559 83.514 41.0751 83.0434 41.6023C85.9737 41.1912 86.5574 44.5891 89.8391 43.2997C89.9583 43.7702 90.4288 44.1809 91.0124 44.0034L91.3638 43.0676C92.6502 42.7161 92.2988 44.8244 93.7101 44.4135C94.4134 45.0002 93.9429 45.9948 94.4134 46.7007C94.4134 47.5195 94.7651 48.2224 95.1161 48.9251C95.4678 48.5172 95.6999 47.9305 96.5217 48.1063C97.1054 48.7495 97.576 49.3362 97.6947 50.0389C97.4566 51.388 97.1052 52.5583 98.5108 53.2609V53.6718C99.4519 54.0828 101.56 53.2609 101.56 54.9018C101.441 55.4885 102.144 54.9615 102.382 55.3127C102.966 55.0774 103.788 55.1968 104.49 55.1968C105.074 56.4267 103.788 57.305 103.436 58.4188C104.02 59.0025 103.788 60.0597 103.669 60.7591L103.317 60.9349C104.252 61.1106 105.425 60.822 106.247 61.3491L107.772 61.9326C108.475 61.5249 109.291 61.4622 110.232 61.5249C110.935 62.0522 109.994 62.9305 110.583 63.3384C111.406 63.3384 112.108 63.4577 112.221 64.1606L112.34 64.3927C112.924 63.3384 114.568 64.041 115.271 63.2821C116.444 63.2821 116.676 64.5685 117.26 65.2714C117.498 67.0909 115.271 67.9131 115.973 69.7264C115.503 70.6047 114.568 71.3078 113.865 72.1296C114.097 72.2487 113.978 72.5375 113.978 72.7131C113.275 73.1275 113.865 74.3572 112.924 74.4706C112.811 75.2357 111.405 74.9409 111.87 75.7628C112.811 76.9927 111.405 77.7521 111.405 78.8689C110.815 79.5151 109.642 78.2789 109.642 79.5151C108.939 79.6907 108.237 78.8689 107.772 79.5717C107.534 80.3938 108.237 80.6823 108.124 81.5044C109.291 81.385 109.642 82.5585 110.113 83.2614L111.286 84.4346C110.113 85.3696 108.588 84.3153 107.182 84.8423C106.831 84.6667 107.182 84.2023 106.831 84.0267C106.479 83.6124 105.777 83.6124 105.193 83.4992C105.306 84.0267 104.252 84.2021 104.723 84.8421C104.723 85.0177 104.955 85.545 104.49 85.545C103.549 85.84 103.668 84.7294 102.846 85.1371C101.792 85.545 102.614 87.1264 101.089 86.9506C101.321 88.3625 98.7488 89.2975 100.506 90.5275C100.738 90.7598 100.619 91.2301 100.619 91.5816C99.5642 92.5228 97.6941 92.1715 96.521 91.8199C95.5799 91.5816 96.1696 90.4081 95.8184 89.7681C95.4669 89.1784 94.4128 88.7705 94.4128 87.9484C93.7095 87.6594 93.1202 87.4783 92.6496 86.8941C91.0119 88.4755 89.0171 90.0002 86.6759 90.0567C85.6218 90.5837 85.0321 92.6986 83.3942 91.8197C82.751 92.8742 80.8152 91.8197 80.699 93.3386C79.9367 93.6333 80.2881 94.631 79.8207 95.0954C79.6449 96.2686 79.8207 97.2663 80.8152 97.9694C81.2261 98.8477 79.9367 98.8477 80.4637 99.6699C80.5831 99.9587 80.4637 100.373 80.2881 100.492C79.9367 100.667 79.8207 100.843 79.9367 101.195C79.6449 101.195 79.526 101.37 79.2934 101.602C78.9985 102.186 78.0635 102.481 77.4173 102.889C76.7741 103.064 76.3035 102.6 75.8956 102.186C75.7762 102.832 75.2494 103.184 74.6062 103.184C73.668 103.184 73.8438 102.362 73.1409 102.01C73.4327 100.956 72.4947 100.492 72.7895 99.5506C73.5516 98.967 74.8383 98.5529 74.4868 97.3232C73.668 96.3315 73.9598 94.8633 73.1409 93.69C72.6139 93.2256 71.7354 92.523 72.0271 91.406C72.7895 90.5277 72.0271 89.4733 71.6162 88.5384C71.4406 87.773 70.973 87.0704 70.973 86.1916C69.6836 85.4325 69.6239 83.437 67.8075 83.2614C66.518 83.2614 66.2857 81.6235 64.9963 81.7364C64.8772 81.5044 64.5854 81.3287 64.3501 81.0964C63.4152 81.7364 62.2419 80.9208 61.0714 81.2094C60.3091 79.923 61.7146 78.166 59.6629 77.4004V76.5848C59.8982 76.6975 60.0143 76.4652 60.0738 76.3463C60.1899 75.4678 58.6085 75.3548 59.2549 74.357C58.9035 74.0622 58.4926 73.9429 58.7279 73.3593C57.8464 71.5459 55.2109 71.7217 54.6241 69.902C55.0947 69.4943 55.0947 69.08 55.2706 68.7287C54.8594 68.0259 54.7435 67.2665 54.8594 66.5074C55.2706 66.388 55.5026 65.8612 55.7379 65.4468C55.2109 65.0956 54.5675 64.5685 53.9809 64.7441C52.9268 64.5685 52.1643 63.7527 51.2263 63.2821C50.991 63.0498 51.1103 62.6359 51.1103 62.3471C52.3995 61.9328 50.9347 60.1163 52.5159 60.3518C52.927 59.8248 53.8053 59.649 54.4487 59.2381C55.0949 59.1221 55.622 59.3572 56.2652 59.533C56.7923 60.2327 57.7305 59.9409 58.2573 60.5275C58.7844 60.4083 59.4308 60.1163 60.074 60.4083C60.074 59.4137 60.5416 58.8269 61.2472 58.124C61.3634 57.7161 62.0066 57.4214 62.5337 57.1891C63.5315 57.4214 64.7018 57.4214 65.4077 56.7185C65.8753 57.0132 66.2862 56.4267 66.8132 56.4267C67.4562 56.3076 67.9835 56.4832 68.4541 56.7782C68.5106 55.6047 70.5623 56.6023 70.9734 55.1968C71.441 54.2586 69.684 53.9074 69.8 53.0853C69.5082 52.1471 70.2111 51.6798 70.5623 51.0366C70.9732 50.8607 71.4408 50.6256 71.9679 50.7416C73.317 50.274 72.2626 47.5195 74.4308 48.5172C74.4308 48.8092 74.3116 49.1604 74.4872 49.2201C75.2496 49.2201 75.3666 48.3407 75.896 48.0468C76.1281 47.228 75.6013 46.2303 76.3039 45.5869C76.6554 45.5275 76.9501 45.4113 77.1824 45.1163C77.1824 44.4731 76.831 44.1219 76.3039 43.7108C76.1283 44.0036 75.6607 43.7705 75.3666 43.8866C75.3666 43.1837 74.9578 42.7163 74.8387 42.0699C74.4872 41.8943 74.3116 41.6025 74.4308 41.1914C74.9578 40.6644 74.4308 39.3749 75.6607 39.6674C76.1283 39.2588 76.9501 39.5506 77.4177 38.8477C78.6477 38.145 80.2883 38.145 81.2265 36.8556C81.6374 36.9151 82.105 36.5041 82.5159 36.8556C82.6323 37.6177 83.7461 37.3228 83.7461 38.0271Z" fill="#D3AE3B"/>
<path d="M75.6401 17.1602L77.2401 22.1402H82.4801L78.2401 25.2202L79.8601 30.2002L75.6401 27.1202L71.4001 30.2002L73.0201 25.2202L68.7801 22.1402H74.0201L75.6401 17.1602Z" fill="white"/>
<path d="M92.3601 17.1602L93.9801 22.1402H99.2201L94.9801 25.2202L96.6001 30.2002L92.3601 27.1202L88.1401 30.2002L89.7601 25.2202L85.5201 22.1402H90.7601L92.3601 17.1602Z" fill="white"/>
<path d="M108.84 20.0801L110.46 25.0401H115.7L111.46 28.1201L113.08 33.1001L108.84 30.0201L104.62 33.1001L106.24 28.1201L102 25.0401H107.24L108.84 20.0801Z" fill="white"/>
<path d="M126.18 30.7601L124.58 25.8001L122.96 30.7601H117.72L121.96 33.8401L120.34 38.8201L124.58 35.7401L128.8 38.8201L127.18 33.8401L131.42 30.7601H126.18Z" fill="white"/>
<path d="M60.7601 25.0401L59.1601 20.0801L57.5401 25.0401H52.3001L56.5401 28.1201L54.9201 33.1001L59.1601 30.0201L63.3801 33.1001L61.7601 28.1201L66.0001 25.0401H60.7601Z" fill="white"/>
<path d="M43.4201 25.8001L45.0401 30.7601H50.2801L46.0401 33.8401L47.6601 38.8201L43.4201 35.7401L39.2001 38.8201L40.8201 33.8401L36.5801 30.7601H41.8201L43.4201 25.8001Z" fill="white"/>
</g>
<defs>
<clipPath id="clip0_499_1417">
<rect width="168" height="120" fill="white"/>
</clipPath>
</defs>
</svg>
