<svg width="120" height="120" viewBox="0 0 120 120" fill="none" xmlns="http://www.w3.org/2000/svg">
<g clip-path="url(#clip0_323_2282)">
<path d="M0 0H120V120H0V0Z" fill="#005801"/>
<path d="M0 0H53.3333V45H0V0Z" fill="#FF5C26"/>
<path d="M120 53.5H0V61.7857H120V53.5Z" fill="white"/>
<path d="M120 70.0714H0V78.3571H120V70.0714Z" fill="white"/>
<path d="M0 86.6429H120V94.9286H0V86.6429Z" fill="white"/>
<path d="M120 103.214H0V111.5H120V103.214Z" fill="white"/>
<path d="M71.6431 10.923C74.0045 7.6967 77.3298 5.30386 81.1391 4.0896C79.0466 5.7011 77.3509 7.77037 76.1821 10.1387C75.0132 12.5071 74.4022 15.1117 74.3959 17.7528C74.3959 20.0244 74.8433 22.2737 75.7126 24.3723C76.5819 26.471 77.856 28.3779 79.4623 29.9841C81.0685 31.5903 82.9754 32.8645 85.074 33.7338C87.1727 34.603 89.422 35.0504 91.6936 35.0504C93.9967 35.0478 96.2761 34.5853 98.3981 33.69C100.52 32.7947 102.442 31.4846 104.051 29.8367C102.553 33.1377 100.136 35.9375 97.0896 37.9013C94.0428 39.8651 90.4948 40.9097 86.8699 40.9103C81.8653 40.9103 77.0657 38.9222 73.5269 35.3834C69.9881 31.8447 68 27.045 68 22.0404C68.0059 18.0423 69.2816 14.1493 71.6431 10.923Z" fill="white"/>
<path d="M96.9091 11.2273L93.873 7.81159L94.3215 12.3596L90.1349 14.1915L94.5988 15.1702L95.0474 19.7183L97.3578 15.7752L101.822 16.7539L98.7856 13.3384L101.096 9.39533L96.9091 11.2273Z" fill="white"/>
</g>
<defs>
<clipPath id="clip0_323_2282">
<rect width="120" height="120" fill="white"/>
</clipPath>
</defs>
</svg>
