<svg width="121" height="120" viewBox="0 0 121 120" fill="none" xmlns="http://www.w3.org/2000/svg">
<g clip-path="url(#clip0_307_87496)">
<path d="M0.428711 0H120.429V120H0.428711V0Z" fill="#D91C16"/>
<path fill-rule="evenodd" clip-rule="evenodd" d="M45.6787 24.5752C45.6537 23.7002 47.5787 23.3252 48.7287 23.3252H48.7537C49.7942 23.4386 50.8083 23.7259 51.7537 24.1752C53.3367 24.6785 54.9726 24.9972 56.6287 25.1252C55.931 25.7066 55.6086 25.9238 55.1627 26.2241C54.9376 26.3757 54.681 26.5486 54.3287 26.8002C55.6737 27.3112 56.8447 28.196 57.7037 29.3502C57.237 29.3669 56.8759 29.3669 56.5843 29.3669C56.0009 29.3669 55.6954 29.3669 55.3787 29.5002C57.3037 30.0502 58.2037 30.3752 59.2037 31.4002C58.8287 31.4502 58.3037 31.5502 58.0787 31.6502C57.8537 31.7502 57.9287 31.8502 58.1037 32.0002C58.3434 32.1694 58.9888 32.8795 59.5956 33.5472C60.0647 34.0632 60.5107 34.554 60.7287 34.7502C60.9468 34.554 61.3928 34.0632 61.8619 33.5472C62.4687 32.8795 63.1141 32.1694 63.3538 32.0002C63.5288 31.8502 63.6038 31.7502 63.3788 31.6502C63.1538 31.5502 62.6288 31.4502 62.2538 31.4002C63.2538 30.3752 64.1538 30.0502 66.0788 29.5002C65.7621 29.3669 65.4566 29.3669 64.8733 29.3669C64.5816 29.3669 64.2205 29.3669 63.7538 29.3502C64.6129 28.196 65.7838 27.3112 67.1288 26.8002C66.7765 26.5486 66.5199 26.3757 66.2948 26.2241C65.8489 25.9238 65.5265 25.7066 64.8288 25.1252C66.485 24.9972 68.1208 24.6785 69.7038 24.1752C70.6492 23.7259 71.6633 23.4386 72.7038 23.3252H72.7288C73.8788 23.3252 75.8038 23.7002 75.7788 24.5752C79.0288 24.0502 79.3538 25.3752 79.1538 26.5752C78.8538 26.1002 78.4788 25.8252 78.1788 25.8002C77.7538 25.7252 77.3038 25.8752 76.8288 26.1502C76.3808 26.4313 75.9765 26.7766 75.6288 27.1752C76.7232 27.4369 77.5912 27.2911 78.4482 27.1471C78.4918 27.1398 78.5353 27.1324 78.5788 27.1252C79.0874 27.0168 79.5709 26.8132 80.0038 26.5252C80.2322 26.3729 80.3679 26.2207 80.569 25.995C80.698 25.8501 80.854 25.675 81.0788 25.4502C81.7538 24.7502 82.4788 24.9502 82.2538 26.0252C81.7288 27.0252 80.8538 27.4752 79.7538 27.6752C79.6377 27.6918 79.5081 27.7133 79.367 27.7367C78.87 27.819 78.2297 27.9252 77.5288 27.9252C77.2189 27.9252 76.8972 27.9104 76.5861 27.896C75.9935 27.8688 75.4394 27.8432 75.0788 27.9252C75.1481 27.9678 75.2197 28.0185 75.2967 28.0729C75.5808 28.2738 75.9388 28.5269 76.5288 28.6252C77.0338 28.7262 77.7087 28.4872 78.3095 28.2745C78.601 28.1712 78.8751 28.0742 79.1038 28.0252C79.0288 28.6002 78.2788 29.1502 76.8288 29.4502L76.654 29.4866C74.3329 29.9699 72.4215 30.3679 71.1288 31.0752C70.081 31.6594 69.1557 32.4404 68.4038 33.3752C67.3375 34.623 67.1771 35.6237 67.1192 35.985C67.1133 36.0219 67.1084 36.0521 67.1038 36.0752C66.8538 38.2752 67.6288 39.5252 69.0788 39.9252C69.7788 40.1002 71.0788 39.7502 71.5288 39.2002C72.0288 38.6502 72.4538 37.7002 72.3288 36.2002C72.3023 36.0834 72.252 35.9226 72.1946 35.7389C71.9818 35.0576 71.6706 34.0615 72.1038 33.8252C74.7106 32.3927 77.408 31.1317 80.1788 30.0502C80.8038 29.8002 81.3038 30.6502 81.5038 31.0002C83.3498 30.7429 85.1153 30.0776 86.6721 29.0527C88.2288 28.0279 89.5378 26.6691 90.5038 25.0752C91.5538 23.1752 93.3288 25.0752 93.0288 26.9002C92.5538 28.9002 91.0288 30.3502 89.1788 31.4002C87.3038 32.4252 84.9288 33.4502 82.5538 33.4002C81.2538 33.6502 81.2788 35.3002 82.8038 35.6252C85.8288 35.6252 88.2538 35.5752 90.5288 33.3752C92.2538 31.8002 93.2038 33.6752 92.7288 34.7252C91.8788 38.0002 87.2038 38.9252 82.4788 37.8752C80.6288 37.5752 81.7288 39.5252 82.2288 39.5502C84.2288 40.9752 87.7538 42.3502 90.8788 39.5502C92.3038 38.4502 93.2788 39.3502 92.7288 40.9252C91.3538 45.0502 86.0538 44.1752 82.4288 42.1752C81.5038 41.6502 80.6538 42.8502 81.7788 43.7752C86.3038 46.9252 88.5538 46.9752 90.6038 45.7752C93.1538 44.7502 93.3538 47.5752 91.8538 48.5252C90.1788 49.5252 85.9038 48.7752 82.7538 46.7752C81.4038 45.7752 81.3538 47.3502 82.2038 47.9752C85.9288 51.2002 87.4038 52.0502 91.2788 51.5252C93.2038 51.3752 93.1788 53.7502 91.6788 54.6752C89.6038 55.9502 85.5538 53.8502 82.4288 51.2252C81.1038 50.5252 80.8788 51.6752 81.5288 53.0502C82.9127 55.0084 84.7941 56.5618 86.9788 57.5502C88.7288 58.2252 90.3788 58.1252 91.5538 57.7252C93.0038 57.2252 93.1788 58.7252 92.3788 60.0752C91.9038 60.9002 89.9288 61.1502 87.7788 60.4002C85.6288 59.6502 83.3288 57.8502 81.7538 55.7752C80.3788 54.5502 80.5288 56.1752 81.1788 57.3252C84.3288 62.3252 87.2288 64.1752 91.0538 63.8752C92.7288 63.5752 93.1288 64.8752 92.0538 66.1252C90.1538 67.6752 87.8038 67.6252 85.7038 66.0752C83.8788 64.3252 80.3538 60.4752 78.5038 58.4252C77.2038 57.4002 76.7788 58.4252 77.1788 60.5252C77.5288 61.7252 78.3788 63.0252 80.7538 63.9252C82.3788 64.8502 81.1538 66.1252 79.9538 66.1752C79.2788 66.1752 77.9288 65.3752 76.8788 64.2252C75.7765 62.9595 75.5076 62.0439 75.0377 60.4439C74.9321 60.0844 74.8164 59.6905 74.6788 59.2502C73.9788 58.1002 72.7038 58.6502 72.7038 59.8502C73.3288 62.2502 73.8288 62.6752 75.0788 63.6502C76.2538 64.7752 74.2538 65.1502 73.5788 64.6752C71.6464 63.3869 70.9415 61.7058 70.2964 60.1672L70.2788 60.1252C69.7788 59.0252 68.4288 59.5502 69.0788 61.3752C70.5788 65.7252 73.0788 67.4252 77.4038 68.3252C77.8288 68.4002 78.1038 68.6502 77.9538 69.1502L76.2038 70.9002C77.733 71.3575 79.0989 71.7005 80.4928 72.0505C81.5372 72.3127 82.5973 72.5789 83.7538 72.9002L87.4538 70.4502C87.4894 70.3625 87.5232 70.2694 87.5578 70.1744C87.8385 69.4017 88.1675 68.4961 89.9038 69.2752C91.2038 68.6752 91.8288 68.9002 92.5538 69.5252C91.5038 69.5252 91.0538 69.8252 90.6288 70.3002C90.0788 71.7252 88.8288 71.8752 87.5538 71.4752C87.1409 71.813 86.8282 72.1195 86.5123 72.4292C86.197 72.7383 85.8784 73.0505 85.4538 73.4002L89.6288 73.2752C91.1288 71.7002 92.2788 71.7752 93.3288 73.0252C93.3711 73.0316 93.412 73.0377 93.4517 73.0436C94.1877 73.1527 94.507 73.2001 95.0288 74.1252C94.1788 73.7752 93.6288 73.6752 93.2538 74.0502C91.6788 74.9752 90.6538 74.7752 89.8788 74.0502L85.5038 74.3252C85.8055 74.5995 86.1674 74.7985 86.5276 74.9966C86.824 75.1597 87.1192 75.3221 87.3788 75.5252C89.6288 74.8752 90.8288 75.7752 91.2288 77.6002C91.5448 78.3317 91.6488 79.1374 91.5288 79.9252C91.3288 79.1752 90.9538 78.5502 90.3038 78.1752C88.3038 78.6752 87.5538 77.8502 87.4288 76.6502C86.9319 76.2527 86.3239 76.0095 85.7182 75.7672C85.1051 75.5219 84.4943 75.2777 84.0038 74.8752C83.327 75.0812 82.8581 75.2439 82.3523 75.4193C81.9987 75.542 81.627 75.6709 81.1538 75.8252C80.7538 77.0752 79.8288 77.5502 78.3288 77.2252C76.8951 77.2662 76.8373 77.7769 76.7808 78.2764C76.7683 78.3866 76.7559 78.4963 76.7288 78.6002C76.2288 77.7752 76.2538 76.9502 77.3538 76.2002C77.7538 75.1252 78.6538 74.6252 79.8038 75.2502C80.3654 75.097 80.7119 74.9048 81.063 74.7101C81.3996 74.5233 81.7404 74.3343 82.2788 74.1752C80.9038 73.7377 79.7288 73.4689 78.5538 73.2002C77.3788 72.9314 76.2038 72.6627 74.8288 72.2252L72.9038 73.9252C72.5288 74.1502 72.1788 74.2002 71.9538 73.9252C71.2437 72.8961 70.6946 71.922 70.1844 71.017C69.4552 69.7235 68.8055 68.571 67.8788 67.6002C67.8538 67.5721 67.8285 67.5438 67.803 67.5151C67.1916 66.8291 66.4447 65.9912 65.6288 65.7752C65.2038 65.6502 64.6788 65.7252 64.3288 66.1002C64.0038 66.4502 63.7288 67.1252 63.8288 68.1502C63.9733 69.3267 64.2371 69.8557 64.5498 70.4828C64.6158 70.6152 64.6841 70.752 64.7538 70.9002C65.1047 71.6227 65.4897 72.1065 65.9088 72.6332C65.9973 72.7444 66.0873 72.8575 66.1788 72.9752C67.0618 74.1451 68.2176 74.8862 69.0267 75.4051C69.134 75.4739 69.2352 75.5387 69.3288 75.6002C70.5732 76.3974 71.2429 76.3024 72.0672 76.1855C72.3027 76.1521 72.551 76.1169 72.8288 76.1002C74.4288 76.2752 74.8288 77.0502 73.5288 78.1252C72.3288 78.7752 71.2288 78.8502 70.3288 78.6752C69.764 78.5622 69.1141 77.9814 68.55 77.4772C68.3651 77.3119 68.1893 77.1548 68.0288 77.0252C67.3288 76.2002 66.1288 77.1752 66.9538 78.1502C68.4288 79.9002 69.8788 81.0502 71.7038 81.0252C73.6288 81.2752 73.2538 82.3502 72.0038 82.8752C69.7038 83.8002 67.6538 82.0502 66.6038 80.8752C65.8038 80.0002 65.2288 79.9752 65.3538 81.3502C66.1788 83.8252 67.2538 84.7752 69.0538 84.9002C70.5038 84.7502 70.5288 85.9002 69.4538 86.6502C67.0538 88.3002 65.3038 85.4502 64.4788 83.7502C63.9038 82.2002 63.0038 82.9252 62.9038 84.2002C62.9038 85.9252 63.6538 87.3002 65.7288 89.0502C64.9413 90.3127 64.085 91.5877 63.2288 92.8628C62.3725 94.1377 61.5163 95.4127 60.7287 96.6752C59.9412 95.4127 59.085 94.1377 58.2288 92.8628C57.3725 91.5877 56.5162 90.3127 55.7287 89.0502C57.8037 87.3002 58.5537 85.9252 58.5537 84.2002C58.4537 82.9252 57.5537 82.2002 56.9787 83.7502C56.1537 85.4502 54.4037 88.3002 52.0037 86.6502C50.9287 85.9002 50.9537 84.7502 52.4037 84.9002C54.2037 84.7752 55.2787 83.8252 56.1037 81.3502C56.2287 79.9752 55.6537 80.0002 54.8537 80.8752C53.8037 82.0502 51.7537 83.8002 49.4537 82.8752C48.2037 82.3502 47.8287 81.2752 49.7537 81.0252C51.5787 81.0502 53.0287 79.9002 54.5037 78.1502C55.3287 77.1752 54.1287 76.2002 53.4287 77.0252C53.2682 77.1548 53.0925 77.3119 52.9075 77.4772C52.3434 77.9814 51.6935 78.5622 51.1287 78.6752C50.2287 78.8502 49.1287 78.7752 47.9287 78.1252C46.6287 77.0502 47.0287 76.2752 48.6287 76.1002C48.9066 76.1169 49.1548 76.1521 49.3904 76.1855C50.2146 76.3024 50.8844 76.3974 52.1287 75.6002C52.2224 75.5387 52.3235 75.4739 52.4308 75.4051C53.24 74.8862 54.3958 74.1451 55.2787 72.9752C55.3702 72.8575 55.4602 72.7444 55.5487 72.6332C55.9678 72.1065 56.3528 71.6227 56.7037 70.9002C56.7735 70.752 56.8417 70.6152 56.9077 70.4828C57.2204 69.8557 57.4842 69.3267 57.6287 68.1502C57.7287 67.1252 57.4537 66.4502 57.1287 66.1002C56.7787 65.7252 56.2537 65.6502 55.8287 65.7752C55.0128 65.9912 54.2659 66.8291 53.6546 67.5151C53.629 67.5438 53.6038 67.5721 53.5787 67.6002C52.652 68.571 52.0023 69.7235 51.2731 71.017C50.7629 71.922 50.2138 72.8961 49.5037 73.9252C49.2787 74.2002 48.9287 74.1502 48.5537 73.9252L46.6287 72.2252C45.2537 72.6627 44.0787 72.9314 42.9037 73.2002C41.7287 73.4689 40.5537 73.7377 39.1787 74.1752C39.7172 74.3343 40.0579 74.5233 40.3946 74.7101C40.7456 74.9048 41.0922 75.097 41.6537 75.2502C42.8037 74.6252 43.7037 75.1252 44.1037 76.2002C45.2037 76.9502 45.2287 77.7752 44.7287 78.6002C44.7016 78.4963 44.6892 78.3866 44.6767 78.2764C44.6202 77.7769 44.5624 77.2662 43.1287 77.2252C41.6287 77.5502 40.7037 77.0752 40.3037 75.8252C39.8305 75.6709 39.4589 75.542 39.1052 75.4193C38.5995 75.2439 38.1305 75.0812 37.4537 74.8752C36.9632 75.2777 36.3525 75.5219 35.7393 75.7672C35.1337 76.0095 34.5256 76.2527 34.0287 76.6502C33.9037 77.8502 33.1537 78.6752 31.1537 78.1752C30.5037 78.5502 30.1287 79.1752 29.9287 79.9252C29.8088 79.1374 29.9127 78.3317 30.2287 77.6002C30.6287 75.7752 31.8287 74.8752 34.0787 75.5252C34.3383 75.3221 34.6335 75.1597 34.9299 74.9966C35.2901 74.7985 35.652 74.5995 35.9537 74.3252L31.5787 74.0502C30.8037 74.7752 29.7787 74.9752 28.2037 74.0502C27.8287 73.6752 27.2787 73.7752 26.4287 74.1252C26.9505 73.2001 27.2698 73.1527 28.0058 73.0436C28.0455 73.0377 28.0865 73.0316 28.1287 73.0252C29.1787 71.7752 30.3287 71.7002 31.8287 73.2752L36.0037 73.4002C35.5791 73.0505 35.2605 72.7383 34.9452 72.4292C34.6293 72.1195 34.3166 71.813 33.9037 71.4752C32.6287 71.8752 31.3787 71.7252 30.8287 70.3002C30.4037 69.8252 29.9537 69.5252 28.9037 69.5252C29.6287 68.9002 30.2537 68.6752 31.5537 69.2752C33.29 68.4961 33.619 69.4017 33.8997 70.1743C33.9343 70.2694 33.9681 70.3625 34.0037 70.4502L37.7037 72.9002C38.8602 72.5789 39.9204 72.3127 40.9648 72.0505C42.3587 71.7005 43.7245 71.3575 45.2537 70.9002L43.5037 69.1502C43.3537 68.6502 43.6287 68.4002 44.0537 68.3252C48.3787 67.4252 50.8787 65.7252 52.3787 61.3752C53.0287 59.5502 51.6787 59.0252 51.1787 60.1252L51.1611 60.1672C50.516 61.7058 49.8111 63.3869 47.8787 64.6752C47.2037 65.1502 45.2037 64.7752 46.3787 63.6502C47.6287 62.6752 48.1287 62.2502 48.7537 59.8502C48.7537 58.6502 47.4787 58.1002 46.7787 59.2502C46.6411 59.6905 46.5254 60.0844 46.4199 60.4439C45.95 62.0439 45.6811 62.9595 44.5787 64.2252C43.5287 65.3752 42.1787 66.1752 41.5037 66.1752C40.3037 66.1252 39.0787 64.8502 40.7037 63.9252C43.0787 63.0252 43.9287 61.7252 44.2787 60.5252C44.6787 58.4252 44.2537 57.4002 42.9537 58.4252C41.1037 60.4752 37.5787 64.3252 35.7537 66.0752C33.6537 67.6252 31.3037 67.6752 29.4037 66.1252C28.3287 64.8752 28.7287 63.5752 30.4037 63.8752C34.2287 64.1752 37.1287 62.3252 40.2787 57.3252C40.9287 56.1752 41.0787 54.5502 39.7037 55.7752C38.1287 57.8502 35.8287 59.6502 33.6787 60.4002C31.5287 61.1502 29.5537 60.9002 29.0787 60.0752C28.2787 58.7252 28.4537 57.2252 29.9037 57.7252C31.0787 58.1252 32.7287 58.2252 34.4787 57.5502C36.6634 56.5618 38.5448 55.0084 39.9287 53.0502C40.5787 51.6752 40.3537 50.5252 39.0287 51.2252C35.9037 53.8502 31.8537 55.9502 29.7787 54.6752C28.2787 53.7502 28.2537 51.3752 30.1787 51.5252C34.0537 52.0502 35.5287 51.2002 39.2537 47.9752C40.1037 47.3502 40.0537 45.7752 38.7037 46.7752C35.5537 48.7752 31.2787 49.5252 29.6037 48.5252C28.1037 47.5752 28.3037 44.7502 30.8537 45.7752C32.9037 46.9752 35.1537 46.9252 39.6787 43.7752C40.8037 42.8502 39.9537 41.6502 39.0287 42.1752C35.4037 44.1752 30.1037 45.0502 28.7287 40.9252C28.1787 39.3502 29.1537 38.4502 30.5787 39.5502C33.7037 42.3502 37.2287 40.9752 39.2287 39.5502C39.7287 39.5252 40.8287 37.5752 38.9787 37.8752C34.2537 38.9252 29.5787 38.0002 28.7287 34.7252C28.2537 33.6752 29.2037 31.8002 30.9287 33.3752C33.2037 35.5752 35.6287 35.6252 38.6537 35.6252C40.1787 35.3002 40.2037 33.6502 38.9037 33.4002C36.5287 33.4502 34.1537 32.4252 32.2787 31.4002C30.4287 30.3502 28.9037 28.9002 28.4287 26.9002C28.1287 25.0752 29.9037 23.1752 30.9537 25.0752C31.9198 26.6691 33.2287 28.0279 34.7855 29.0527C36.3422 30.0776 38.1077 30.7429 39.9537 31.0002C40.1537 30.6502 40.6537 29.8002 41.2787 30.0502C44.0496 31.1317 46.747 32.3927 49.3537 33.8252C49.7869 34.0615 49.4757 35.0576 49.2629 35.7389C49.2055 35.9226 49.1553 36.0834 49.1287 36.2002C49.0037 37.7002 49.4287 38.6502 49.9287 39.2002C50.3787 39.7502 51.6787 40.1002 52.3787 39.9252C53.8287 39.5252 54.6037 38.2752 54.3537 36.0752C54.3491 36.0521 54.3442 36.0219 54.3383 35.985C54.2804 35.6237 54.12 34.623 53.0537 33.3752C52.3018 32.4404 51.3765 31.6594 50.3287 31.0752C49.036 30.3679 47.1247 29.9699 44.8036 29.4866L44.6287 29.4502C43.1787 29.1502 42.4287 28.6002 42.3537 28.0252C42.5824 28.0742 42.8565 28.1712 43.148 28.2745C43.7488 28.4872 44.4237 28.7262 44.9287 28.6252C45.5188 28.5269 45.8767 28.2738 46.1608 28.0729C46.2378 28.0185 46.3094 27.9678 46.3787 27.9252C46.0181 27.8432 45.464 27.8688 44.8715 27.896C44.5603 27.9104 44.2386 27.9252 43.9287 27.9252C43.2278 27.9252 42.5875 27.819 42.0905 27.7367C41.9494 27.7133 41.8198 27.6918 41.7037 27.6752C40.6037 27.4752 39.7287 27.0252 39.2037 26.0252C38.9787 24.9502 39.7037 24.7502 40.3787 25.4502C40.6035 25.675 40.7595 25.8501 40.8886 25.9949C41.0896 26.2207 41.2253 26.3729 41.4537 26.5252C41.8866 26.8132 42.3701 27.0168 42.8787 27.1252C42.9222 27.1324 42.9657 27.1398 43.0093 27.1471C43.8663 27.2911 44.7343 27.4369 45.8287 27.1752C45.4811 26.7766 45.0768 26.4313 44.6287 26.1502C44.1537 25.8752 43.7037 25.7252 43.2787 25.8002C42.9787 25.8252 42.6037 26.1002 42.3037 26.5752C42.1037 25.3752 42.4287 24.0502 45.6787 24.5752ZM50.4537 26.1502C50.4537 25.7502 49.8787 25.4252 48.9287 25.4252C47.9787 25.4252 47.3787 25.7252 47.3787 26.1252C47.3787 26.5002 47.9787 26.8752 48.9287 26.8752C49.8787 26.8752 50.4537 26.5502 50.4537 26.1502ZM71.0038 26.1502C71.0038 25.7502 71.5788 25.4252 72.5288 25.4252C73.4788 25.4252 74.0788 25.7252 74.0788 26.1252C74.0788 26.5002 73.4788 26.8752 72.5288 26.8752C71.5788 26.8752 71.0038 26.5502 71.0038 26.1502Z" fill="black"/>
</g>
<defs>
<clipPath id="clip0_307_87496">
<rect width="120" height="120" fill="white" transform="translate(0.428711)"/>
</clipPath>
</defs>
</svg>
