<svg width="120" height="120" viewBox="0 0 120 120" fill="none" xmlns="http://www.w3.org/2000/svg">
<path d="M0 0H120V120H0V0Z" fill="#E23726"/>
<path fill-rule="evenodd" clip-rule="evenodd" d="M45.25 24.575C45.225 23.7 47.15 23.325 48.3 23.325H48.325C49.3655 23.4384 50.3796 23.7258 51.325 24.175C52.908 24.6783 54.5438 24.9971 56.2 25.125C55.5023 25.7064 55.1799 25.9236 54.734 26.2239C54.5089 26.3755 54.2523 26.5484 53.9 26.8C55.245 27.3111 56.416 28.1958 57.275 29.35C56.8083 29.3667 56.4472 29.3667 56.1555 29.3667C55.5722 29.3667 55.2667 29.3667 54.95 29.5C56.875 30.05 57.775 30.375 58.775 31.4C58.4 31.45 57.875 31.55 57.65 31.65C57.425 31.75 57.5 31.85 57.675 32C57.9147 32.1692 58.5601 32.8793 59.1669 33.547C59.636 34.0631 60.082 34.5538 60.3 34.75C60.5181 34.5538 60.9641 34.0631 61.4332 33.547C62.04 32.8793 62.6854 32.1692 62.9251 32C63.1001 31.85 63.1751 31.75 62.9501 31.65C62.7251 31.55 62.2001 31.45 61.8251 31.4C62.8251 30.375 63.7251 30.05 65.6501 29.5C65.3334 29.3667 65.0279 29.3667 64.4445 29.3667C64.1529 29.3667 63.7918 29.3667 63.3251 29.35C64.1841 28.1958 65.3551 27.3111 66.7001 26.8C66.3478 26.5484 66.0912 26.3755 65.8661 26.2239C65.4202 25.9236 65.0978 25.7064 64.4001 25.125C66.0563 24.9971 67.6921 24.6783 69.2751 24.175C70.2205 23.7258 71.2346 23.4384 72.2751 23.325H72.3001C73.4501 23.325 75.3751 23.7 75.3501 24.575C78.6001 24.05 78.9251 25.375 78.7251 26.575C78.4251 26.1 78.0501 25.825 77.7501 25.8C77.3251 25.725 76.8751 25.875 76.4001 26.15C75.9521 26.4311 75.5477 26.7764 75.2001 27.175C76.2945 27.4367 77.1625 27.2909 78.0195 27.1469C78.0631 27.1396 78.1066 27.1323 78.1501 27.125C78.6587 27.0166 79.1422 26.813 79.5751 26.525C79.8035 26.3727 79.9392 26.2205 80.1402 25.9948C80.2693 25.8499 80.4253 25.6748 80.6501 25.45C81.3251 24.75 82.0501 24.95 81.8251 26.025C81.3001 27.025 80.4251 27.475 79.3251 27.675C79.209 27.6916 79.0794 27.7131 78.9383 27.7365C78.4413 27.8189 77.801 27.925 77.1001 27.925C76.7902 27.925 76.4685 27.9102 76.1573 27.8959C75.5648 27.8686 75.0107 27.8431 74.6501 27.925C74.7194 27.9677 74.791 28.0183 74.868 28.0727C75.1521 28.2736 75.51 28.5267 76.1001 28.625C76.6051 28.726 77.28 28.487 77.8808 28.2743C78.1723 28.1711 78.4464 28.074 78.6751 28.025C78.6001 28.6 77.8501 29.15 76.4001 29.45L76.2253 29.4864C73.9042 29.9697 71.9928 30.3677 70.7001 31.075C69.6523 31.6592 68.727 32.4402 67.9751 33.375C66.9088 34.6228 66.7484 35.6235 66.6905 35.9848C66.6846 36.0217 66.6797 36.0519 66.6751 36.075C66.4251 38.275 67.2001 39.525 68.6501 39.925C69.3501 40.1 70.6501 39.75 71.1001 39.2C71.6001 38.65 72.0251 37.7 71.9001 36.2C71.8736 36.0832 71.8233 35.9224 71.7659 35.7387C71.5531 35.0574 71.2419 34.0613 71.6751 33.825C74.2819 32.3925 76.9792 31.1315 79.7501 30.05C80.3751 29.8 80.8751 30.65 81.0751 31C82.9211 30.7427 84.6866 30.0774 86.2433 29.0526C87.8001 28.0277 89.1091 26.6689 90.0751 25.075C91.1251 23.175 92.9001 25.075 92.6001 26.9C92.1251 28.9 90.6001 30.35 88.7501 31.4C86.8751 32.425 84.5001 33.45 82.1251 33.4C80.8251 33.65 80.8501 35.3 82.3751 35.625C85.4001 35.625 87.8251 35.575 90.1001 33.375C91.8251 31.8 92.7751 33.675 92.3001 34.725C91.4501 38 86.7751 38.925 82.0501 37.875C80.2001 37.575 81.3001 39.525 81.8001 39.55C83.8001 40.975 87.3251 42.35 90.4501 39.55C91.8751 38.45 92.8501 39.35 92.3001 40.925C90.9251 45.05 85.6251 44.175 82.0001 42.175C81.0751 41.65 80.2251 42.85 81.3501 43.775C85.8751 46.925 88.1251 46.975 90.1751 45.775C92.7251 44.75 92.9251 47.575 91.4251 48.525C89.7501 49.525 85.4751 48.775 82.3251 46.775C80.9751 45.775 80.9251 47.35 81.7751 47.975C85.5001 51.2 86.9751 52.05 90.8501 51.525C92.7751 51.375 92.7501 53.75 91.2501 54.675C89.1751 55.95 85.1251 53.85 82.0001 51.225C80.6751 50.525 80.4501 51.675 81.1001 53.05C82.484 55.0082 84.3654 56.5616 86.5501 57.55C88.3001 58.225 89.9501 58.125 91.1251 57.725C92.5751 57.225 92.7501 58.725 91.9501 60.075C91.4751 60.9 89.5001 61.15 87.3501 60.4C85.2001 59.65 82.9001 57.85 81.3251 55.775C79.9501 54.55 80.1001 56.175 80.7501 57.325C83.9001 62.325 86.8001 64.175 90.6251 63.875C92.3001 63.575 92.7001 64.875 91.6251 66.125C89.7251 67.675 87.3751 67.625 85.2751 66.075C83.4501 64.325 79.9251 60.475 78.0751 58.425C76.7751 57.4 76.3501 58.425 76.7501 60.525C77.1001 61.725 77.9501 63.025 80.3251 63.925C81.9501 64.85 80.7251 66.125 79.5251 66.175C78.8501 66.175 77.5001 65.375 76.4501 64.225C75.3477 62.9593 75.0788 62.0437 74.6089 60.4437C74.5034 60.0843 74.3877 59.6903 74.2501 59.25C73.5501 58.1 72.2751 58.65 72.2751 59.85C72.9001 62.25 73.4001 62.675 74.6501 63.65C75.8251 64.775 73.8251 65.15 73.1501 64.675C71.2177 63.3867 70.5128 61.7056 69.8677 60.167L69.8501 60.125C69.3501 59.025 68.0001 59.55 68.6501 61.375C70.1501 65.725 72.6501 67.425 76.9751 68.325C77.4001 68.4 77.6751 68.65 77.5251 69.15L75.7751 70.9C77.3043 71.3574 78.6701 71.7003 80.0641 72.0503C81.1085 72.3126 82.1686 72.5788 83.3251 72.9L87.0251 70.45C87.0607 70.3623 87.0945 70.2693 87.1291 70.1742C87.4098 69.4016 87.7388 68.4959 89.4751 69.275C90.7751 68.675 91.4001 68.9 92.1251 69.525C91.0751 69.525 90.6251 69.825 90.2001 70.3C89.6501 71.725 88.4001 71.875 87.1251 71.475C86.7122 71.8128 86.3995 72.1193 86.0836 72.429C85.7683 72.7381 85.4497 73.0503 85.0251 73.4L89.2001 73.275C90.7001 71.7 91.8501 71.775 92.9001 73.025C92.9423 73.0314 92.9833 73.0375 93.023 73.0434C93.759 73.1526 94.0783 73.1999 94.6001 74.125C93.7501 73.775 93.2001 73.675 92.8251 74.05C91.2501 74.975 90.2251 74.775 89.4501 74.05L85.0751 74.325C85.3768 74.5993 85.7387 74.7984 86.0989 74.9965C86.3953 75.1595 86.6905 75.3219 86.9501 75.525C89.2001 74.875 90.4001 75.775 90.8001 77.6C91.1161 78.3316 91.22 79.1372 91.1001 79.925C90.9001 79.175 90.5251 78.55 89.8751 78.175C87.8751 78.675 87.1251 77.85 87.0001 76.65C86.5032 76.2525 85.8952 76.0093 85.2895 75.767C84.6763 75.5218 84.0656 75.2775 83.5751 74.875C82.8983 75.081 82.4293 75.2437 81.9236 75.4191C81.5699 75.5418 81.1983 75.6707 80.7251 75.825C80.3251 77.075 79.4001 77.55 77.9001 77.225C76.4664 77.266 76.4086 77.7767 76.3521 78.2762C76.3396 78.3864 76.3272 78.4961 76.3001 78.6C75.8001 77.775 75.8251 76.95 76.9251 76.2C77.3251 75.125 78.2251 74.625 79.3751 75.25C79.9366 75.0969 80.2832 74.9046 80.6343 74.7099C80.9709 74.5231 81.3116 74.3341 81.8501 74.175C80.4751 73.7375 79.3001 73.4688 78.1251 73.2C76.9501 72.9313 75.7751 72.6625 74.4001 72.225L72.4751 73.925C72.1001 74.15 71.7501 74.2 71.5251 73.925C70.815 72.8959 70.2659 71.9219 69.7557 71.0168C69.0265 69.7233 68.3768 68.5708 67.4501 67.6C67.4251 67.572 67.3998 67.5436 67.3743 67.5149C66.7629 66.829 66.016 65.991 65.2001 65.775C64.7751 65.65 64.2501 65.725 63.9001 66.1C63.5751 66.45 63.3001 67.125 63.4001 68.15C63.5446 69.3265 63.8084 69.8555 64.1211 70.4826C64.1871 70.615 64.2554 70.7518 64.3251 70.9C64.676 71.6225 65.061 72.1063 65.4801 72.633C65.5686 72.7442 65.6586 72.8573 65.7501 72.975C66.633 74.1449 67.7889 74.886 68.598 75.4049C68.7053 75.4737 68.8065 75.5386 68.9001 75.6C70.1444 76.3972 70.8142 76.3022 71.6385 76.1853C71.874 76.1519 72.1222 76.1167 72.4001 76.1C74.0001 76.275 74.4001 77.05 73.1001 78.125C71.9001 78.775 70.8001 78.85 69.9001 78.675C69.3353 78.562 68.6854 77.9812 68.1213 77.477C67.9363 77.3117 67.7606 77.1546 67.6001 77.025C66.9001 76.2 65.7001 77.175 66.5251 78.15C68.0001 79.9 69.4501 81.05 71.2751 81.025C73.2001 81.275 72.8251 82.35 71.5751 82.875C69.2751 83.8 67.2251 82.05 66.1751 80.875C65.3751 80 64.8001 79.975 64.9251 81.35C65.7501 83.825 66.8251 84.775 68.6251 84.9C70.0751 84.75 70.1001 85.9 69.0251 86.65C66.6251 88.3 64.8751 85.45 64.0501 83.75C63.4751 82.2 62.5751 82.925 62.4751 84.2C62.4751 85.925 63.2251 87.3 65.3001 89.05C64.5126 90.3125 63.6563 91.5876 62.8001 92.8626C61.9438 94.1376 61.0876 95.4125 60.3 96.675C59.5125 95.4125 58.6563 94.1376 57.8 92.8626C56.9438 91.5876 56.0875 90.3125 55.3 89.05C57.375 87.3 58.125 85.925 58.125 84.2C58.025 82.925 57.125 82.2 56.55 83.75C55.725 85.45 53.975 88.3 51.575 86.65C50.5 85.9 50.525 84.75 51.975 84.9C53.775 84.775 54.85 83.825 55.675 81.35C55.8 79.975 55.225 80 54.425 80.875C53.375 82.05 51.325 83.8 49.025 82.875C47.775 82.35 47.4 81.275 49.325 81.025C51.15 81.05 52.6 79.9 54.075 78.15C54.9 77.175 53.7 76.2 53 77.025C52.8395 77.1546 52.6638 77.3117 52.4788 77.477C51.9147 77.9812 51.2648 78.562 50.7 78.675C49.8 78.85 48.7 78.775 47.5 78.125C46.2 77.05 46.6 76.275 48.2 76.1C48.4779 76.1167 48.7261 76.1519 48.9616 76.1853C49.7859 76.3022 50.4557 76.3972 51.7 75.6C51.7936 75.5386 51.8948 75.4737 52.0021 75.4049C52.8112 74.886 53.9671 74.1449 54.85 72.975C54.9415 72.8573 55.0315 72.7442 55.12 72.633C55.5391 72.1063 55.9241 71.6225 56.275 70.9C56.3447 70.7518 56.413 70.615 56.479 70.4826C56.7917 69.8555 57.0555 69.3265 57.2 68.15C57.3 67.125 57.025 66.45 56.7 66.1C56.35 65.725 55.825 65.65 55.4 65.775C54.5841 65.991 53.8372 66.829 53.2258 67.5149C53.2003 67.5436 53.175 67.572 53.15 67.6C52.2233 68.5708 51.5736 69.7233 50.8444 71.0168C50.3342 71.9219 49.7851 72.8959 49.075 73.925C48.85 74.2 48.5 74.15 48.125 73.925L46.2 72.225C44.825 72.6625 43.65 72.9313 42.475 73.2C41.3 73.4688 40.125 73.7375 38.75 74.175C39.2885 74.3341 39.6292 74.5231 39.9658 74.7099C40.3169 74.9046 40.6635 75.0969 41.225 75.25C42.375 74.625 43.275 75.125 43.675 76.2C44.775 76.95 44.8 77.775 44.3 78.6C44.2729 78.4961 44.2605 78.3864 44.248 78.2762C44.1915 77.7767 44.1337 77.266 42.7 77.225C41.2 77.55 40.275 77.075 39.875 75.825C39.4018 75.6707 39.0301 75.5418 38.6765 75.4191C38.1707 75.2437 37.7018 75.081 37.025 74.875C36.5345 75.2775 35.9238 75.5218 35.3106 75.767C34.7049 76.0093 34.0969 76.2525 33.6 76.65C33.475 77.85 32.725 78.675 30.725 78.175C30.075 78.55 29.7 79.175 29.5 79.925C29.3801 79.1372 29.484 78.3316 29.8 77.6C30.2 75.775 31.4 74.875 33.65 75.525C33.9096 75.3219 34.2048 75.1595 34.5012 74.9965C34.8614 74.7984 35.2233 74.5993 35.525 74.325L31.15 74.05C30.375 74.775 29.35 74.975 27.775 74.05C27.4 73.675 26.85 73.775 26 74.125C26.5218 73.1999 26.8411 73.1526 27.5771 73.0434C27.6168 73.0375 27.6578 73.0314 27.7 73.025C28.75 71.775 29.9 71.7 31.4 73.275L35.575 73.4C35.1504 73.0503 34.8318 72.7381 34.5165 72.429C34.2006 72.1193 33.8879 71.8128 33.475 71.475C32.2 71.875 30.95 71.725 30.4 70.3C29.975 69.825 29.525 69.525 28.475 69.525C29.2 68.9 29.825 68.675 31.125 69.275C32.8613 68.4959 33.1903 69.4016 33.471 70.1742C33.5056 70.2693 33.5394 70.3623 33.575 70.45L37.275 72.9C38.4315 72.5788 39.4916 72.3126 40.536 72.0503C41.93 71.7003 43.2958 71.3573 44.825 70.9L43.075 69.15C42.925 68.65 43.2 68.4 43.625 68.325C47.95 67.425 50.45 65.725 51.95 61.375C52.6 59.55 51.25 59.025 50.75 60.125L50.7324 60.167C50.0873 61.7056 49.3824 63.3867 47.45 64.675C46.775 65.15 44.775 64.775 45.95 63.65C47.2 62.675 47.7 62.25 48.325 59.85C48.325 58.65 47.05 58.1 46.35 59.25C46.2124 59.6903 46.0967 60.0843 45.9911 60.4437C45.5212 62.0437 45.2523 62.9593 44.15 64.225C43.1 65.375 41.75 66.175 41.075 66.175C39.875 66.125 38.65 64.85 40.275 63.925C42.65 63.025 43.5 61.725 43.85 60.525C44.25 58.425 43.825 57.4 42.525 58.425C40.675 60.475 37.15 64.325 35.325 66.075C33.225 67.625 30.875 67.675 28.975 66.125C27.9 64.875 28.3 63.575 29.975 63.875C33.8 64.175 36.7 62.325 39.85 57.325C40.5 56.175 40.65 54.55 39.275 55.775C37.7 57.85 35.4 59.65 33.25 60.4C31.1 61.15 29.125 60.9 28.65 60.075C27.85 58.725 28.025 57.225 29.475 57.725C30.65 58.125 32.3 58.225 34.05 57.55C36.2347 56.5616 38.1161 55.0082 39.5 53.05C40.15 51.675 39.925 50.525 38.6 51.225C35.475 53.85 31.425 55.95 29.35 54.675C27.85 53.75 27.825 51.375 29.75 51.525C33.625 52.05 35.1 51.2 38.825 47.975C39.675 47.35 39.625 45.775 38.275 46.775C35.125 48.775 30.85 49.525 29.175 48.525C27.675 47.575 27.875 44.75 30.425 45.775C32.475 46.975 34.725 46.925 39.25 43.775C40.375 42.85 39.525 41.65 38.6 42.175C34.975 44.175 29.675 45.05 28.3 40.925C27.75 39.35 28.725 38.45 30.15 39.55C33.275 42.35 36.8 40.975 38.8 39.55C39.3 39.525 40.4 37.575 38.55 37.875C33.825 38.925 29.15 38 28.3 34.725C27.825 33.675 28.775 31.8 30.5 33.375C32.775 35.575 35.2 35.625 38.225 35.625C39.75 35.3 39.775 33.65 38.475 33.4C36.1 33.45 33.725 32.425 31.85 31.4C30 30.35 28.475 28.9 28 26.9C27.7 25.075 29.475 23.175 30.525 25.075C31.491 26.6689 32.8 28.0277 34.3568 29.0526C35.9135 30.0774 37.679 30.7427 39.525 31C39.725 30.65 40.225 29.8 40.85 30.05C43.6209 31.1315 46.3182 32.3925 48.925 33.825C49.3582 34.0613 49.047 35.0574 48.8342 35.7387C48.7768 35.9224 48.7265 36.0832 48.7 36.2C48.575 37.7 49 38.65 49.5 39.2C49.95 39.75 51.25 40.1 51.95 39.925C53.4 39.525 54.175 38.275 53.925 36.075C53.9204 36.0519 53.9155 36.0217 53.9096 35.9848C53.8517 35.6235 53.6913 34.6228 52.625 33.375C51.8731 32.4402 50.9478 31.6592 49.9 31.075C48.6073 30.3677 46.696 29.9697 44.3748 29.4864L44.2 29.45C42.75 29.15 42 28.6 41.925 28.025C42.1537 28.074 42.4278 28.1711 42.7193 28.2743C43.3201 28.487 43.995 28.726 44.5 28.625C45.09 28.5267 45.448 28.2736 45.7321 28.0727C45.8091 28.0183 45.8807 27.9677 45.95 27.925C45.5894 27.8431 45.0353 27.8686 44.4428 27.8959C44.1316 27.9102 43.8099 27.925 43.5 27.925C42.7991 27.925 42.1588 27.8189 41.6618 27.7365C41.5207 27.7131 41.3911 27.6916 41.275 27.675C40.175 27.475 39.3 27.025 38.775 26.025C38.55 24.95 39.275 24.75 39.95 25.45C40.1748 25.6748 40.3308 25.8499 40.4598 25.9948C40.6609 26.2205 40.7966 26.3727 41.025 26.525C41.4579 26.813 41.9414 27.0166 42.45 27.125C42.4935 27.1323 42.537 27.1396 42.5806 27.1469C43.4376 27.2909 44.3056 27.4367 45.4 27.175C45.0524 26.7764 44.648 26.4311 44.2 26.15C43.725 25.875 43.275 25.725 42.85 25.8C42.55 25.825 42.175 26.1 41.875 26.575C41.675 25.375 42 24.05 45.25 24.575ZM50.025 26.15C50.025 25.75 49.45 25.425 48.5 25.425C47.55 25.425 46.95 25.725 46.95 26.125C46.95 26.5 47.55 26.875 48.5 26.875C49.45 26.875 50.025 26.55 50.025 26.15ZM70.5751 26.15C70.5751 25.75 71.1501 25.425 72.1001 25.425C73.0501 25.425 73.6501 25.725 73.6501 26.125C73.6501 26.5 73.0501 26.875 72.1001 26.875C71.1501 26.875 70.5751 26.55 70.5751 26.15Z" fill="black"/>
</svg>
