<svg width="120" height="120" viewBox="0 0 120 120" fill="none" xmlns="http://www.w3.org/2000/svg">
<g clip-path="url(#clip0_354_30)">
<rect width="120" height="120" fill="#021455"/>
<path d="M0 60L120 0V120L0 60Z" fill="#A30904"/>
<path d="M13 60L120 6V114" fill="white"/>
<path d="M72.6403 65.4756C74.0345 65.5827 73.9868 66.965 73.9868 66.965L78.9239 67.075C79.5554 65.3536 80.2107 65.553 81.4102 66.4031C82.5498 67.2107 83.7934 67.5714 83.7934 67.5714C84.2701 65.1009 87.7733 65.6005 87.7733 65.6005C89.2668 62.0331 89.3938 62.0806 88.5042 61.6288C87.6145 61.1769 87.2516 60.4126 87.2516 60.4126C86.4071 59.3932 85.9622 57.9187 85.8668 57.0142C85.7714 56.1097 84.7228 57.4669 84.5322 57.1814C84.3417 56.896 82.7845 57.0625 82.7845 57.0625C83.1658 57.4669 81.8631 57.229 81.8631 57.229C81.9902 57.3242 81.8631 57.7047 81.8631 57.7047C81.7359 57.5382 80.7509 57.3717 80.7509 57.3717C80.6555 57.5857 80.4331 57.8235 80.4331 57.8235C79.893 57.5857 78.8126 57.6332 78.8126 57.6332C77.2239 57.6093 76.2706 58.1089 75.8257 58.3705C75.3808 58.6322 73.792 59.4407 72.4893 60.7012C71.1865 61.9618 70.4556 61.8191 70.4556 61.8191C70.0743 63.2223 66.9604 64.9347 66.9604 64.9347C66.4521 65.3865 64.8949 65.6005 64.1007 64.9347C63.3064 64.2688 64.1007 63.0796 64.1007 63.0796C64.3946 62.5236 64.686 62.5466 64.7184 60.6176C64.7403 59.3131 66.0869 58.2785 67.4689 56.7624C69.1587 54.9088 71.5203 51.8573 71.5203 51.8573C71.5322 52.7938 72.0445 52.9454 72.0445 52.9454C72.5093 51.9912 73.1766 51.2241 73.1766 51.2241C73.2124 51.3044 73.3078 51.358 73.3078 51.358C73.832 50.6444 74.1537 50.3591 74.1537 50.3591C73.9751 50.2878 72.5093 50.3591 71.139 51.5542C69.7686 52.7492 68.8273 52.348 68.8273 52.348C67.8741 52.0447 67.7906 51.3134 67.7906 51.3134C67.0947 48.3186 69.8283 46.1763 69.8283 46.1763C66.1582 45.3024 68.8035 40.6468 73.3553 38.6669C77.907 36.687 77.8594 35.7951 77.8594 35.7951C78.1215 36.0984 78.3361 36.6335 78.3361 36.6335C78.3838 36.5977 78.7174 36.0984 81.3389 34.9389C83.9603 33.7794 85.2234 32.7806 85.2234 32.7806C85.557 33.4228 85.4855 33.8865 85.4855 33.8865C92.6587 31.3715 99.7248 25.6013 99.7248 25.6013C99.9273 26.0828 99.8202 26.8141 99.8202 26.8141C100.988 25.735 105.206 23.22 105.206 23.22C105.278 24.8252 103.955 25.4406 103.955 25.4406C104.098 25.6726 104.181 26.0916 104.181 26.0916C104.873 25.717 108.09 23.4695 108.09 23.4695C109.269 24.4861 108.197 26.1539 108.197 26.1539C108.614 26.0916 108.924 25.726 108.924 25.726C109.222 27.4561 107.303 28.9812 107.303 28.9812C107.637 28.9902 108.197 28.6601 108.197 28.6601C107.84 30.5509 104.253 32.6467 104.253 32.6467C104.777 33.1105 104.277 33.7259 103.848 34.0024C103.419 34.279 102.656 34.8854 102.895 35.1351C103.133 35.3849 104.718 34.27 104.718 34.27C104.992 35.0638 102.954 36.6245 102.954 36.6245C104.372 36.8117 108.316 35.0192 108.316 35.0192C107.995 36.5444 106.505 37.7304 104.67 38.4172C102.835 39.1039 102.93 39.211 102.93 39.211C103.252 39.4696 105.79 38.7295 105.79 38.7295C105.027 40.4329 102.382 41.6013 102.382 41.6013C103.109 42.2167 104.098 41.5032 105.087 40.8255C106.076 40.1477 107.422 39.5679 108.912 39.0686C110.401 38.5691 111.45 38.9437 111.45 38.9437C112.689 38.5513 113.738 39.1041 113.738 39.1041C116.121 39.3003 116.359 40.1655 116.359 40.1655C116.621 40.2279 116.824 40.335 117.432 40.7809C118.039 41.2269 118.003 42.6092 117.98 43.2871C117.956 43.9649 117.765 43.9649 117.646 44.1523C117.527 44.3397 117.515 44.5537 117.515 44.8123C117.515 45.0708 116.919 46.6763 113.237 46.6941C109.555 46.7118 107.657 46.6941 107.657 46.6941C107.353 46.6941 106.989 46.8725 106.989 46.8725C105.44 47.6396 106.258 46.3493 104.416 47.8655C102.573 49.3816 101.635 49.1199 101.635 49.1199C101.333 49.4827 99.4029 51.2783 98.2986 51.9918C97.1944 52.7053 97.3931 52.6398 98.3543 53.0561C99.3155 53.4724 100.769 53.0561 100.769 53.0561C99.8399 53.6744 100.483 53.9598 100.483 53.9598C101.707 53.2165 102.445 53.4901 102.445 53.4901C102.835 54.5545 101.437 56.2371 101.437 56.2371C101.977 56.3084 102.993 56.2371 102.993 56.2371C102.747 56.9565 101.73 57.7474 100.984 57.9911C100.237 58.2348 100.372 58.33 100.594 58.7818C100.817 59.2336 100.626 59.6915 100.626 59.6915C99.3234 58.7879 99.2757 59.5964 99.2757 59.5964C99.1253 60.6674 99.1485 62.2006 99.1485 62.2006C98.2271 61.7369 98.1794 62.3552 98.1794 62.3552C97.9411 63.3302 96.813 64.46 96.813 64.46C96.7653 63.8536 96.2093 63.699 96.2093 63.699C95.6215 64.8286 94.5411 65.5066 94.5411 65.5066C94.398 66.4815 94.6683 67.8492 94.6683 67.8492C93.9692 67.7065 93.7151 67.7184 93.6038 67.8849C93.4925 68.0514 93.7628 68.1347 93.7628 68.1347L102.867 68.3606C102.994 68.3725 103.534 68.4319 103.55 69.4189C103.566 70.4058 102.755 70.4535 102.755 70.4535L92.7936 70.2156C92.7936 70.2156 92.8413 70.489 92.3169 70.7626C91.7925 71.0363 91.9674 70.4535 91.8243 71.6782C91.6812 72.903 89.6952 71.583 89.6952 71.583C89.3775 72.0587 88.5989 72.6771 88.5989 72.6771C88.154 71.3333 87.6934 70.9172 86.9784 72.0826C86.2634 73.2479 88.2653 73.0459 88.2653 73.0459C88.2653 73.0459 99.9587 71.3216 100.594 71.2622C101.23 71.2028 101.929 71.2383 102.215 72.1303C102.501 73.0222 100.801 73.1649 100.801 73.1649L88.8054 74.4729C88.5512 75.1864 87.5503 75.127 87.5503 75.127C87.6298 75.8047 86.9148 76.2329 86.5494 76.4827C86.1839 76.7325 85.0401 76.6134 85.0401 76.6134C83.642 77.5648 82.9588 76.8155 82.9588 76.8155C82.0532 77.2079 81.4811 77.0414 80.7345 76.7203C79.9878 76.3992 80.0514 75.4956 80.0514 75.4956L72.4809 76.2804C72.1234 76.4053 71.8772 76.6431 71.8772 76.6431C72.1472 76.9881 71.335 77.7892 71.335 77.7892C71.5613 77.9453 71.9962 78.3823 72.0558 79.3278C72.1188 80.3279 70.8344 80.496 71.4779 81.1918C72.1213 81.8875 73.295 81.3123 74.6057 80.6835C75.9165 80.0547 77.2033 80.135 77.7633 80.1394C78.3233 80.1438 79.8844 80.5362 80.8554 80.8797C81.8267 81.223 82.1603 81.018 82.2258 80.5184C82.2913 80.0189 82.7264 79.8762 82.7264 79.8762C82.6071 80.3668 82.8694 80.5854 82.8694 80.5854C83.2447 80.6121 83.9001 80.2465 83.9001 80.2465C83.8405 80.6077 83.3639 80.8351 83.3639 80.8351C82.4107 81.4727 83.7214 81.2365 83.7214 81.2365C86.331 80.7015 87.2604 80.755 87.9396 80.8263C88.6188 80.8977 91.8241 82.2622 91.8241 82.2622C91.9433 81.9411 91.8598 81.1474 91.8598 81.1474C92.6821 81.3704 93.0158 81.8432 93.0158 81.8432C93.3256 81.5043 93.1231 80.9334 93.1231 80.9334C95.7684 82.4138 92.575 83.0828 91.7289 83.3681C90.8829 83.6534 90.8949 84.0013 90.8949 84.0013C91.5979 83.7783 92.0864 83.698 92.6704 83.6534C93.2542 83.6089 93.0517 83.6444 94.4459 83.3681C95.8401 83.0916 96.5551 83.6802 96.5551 83.6802C95.3875 83.7425 95.0419 84.0904 95.0419 84.0904C95.7807 84.5987 95.0777 85.0269 95.0777 85.0269C94.0171 83.6892 93.1116 85.0805 93.1116 85.0805C93.4749 85.0269 94.5415 85.2499 94.8453 85.4417C95.0804 85.59 95.6318 85.8609 96.3169 86.1774C97.2843 86.6244 97.1034 86.3378 97.8539 86.6234C98.6045 86.9089 98.3187 87.6312 98.3187 87.6312C97.997 87.0426 97.3059 86.8374 97.3059 86.8374C97.2462 87.6312 96.448 87.7649 96.448 87.7649C97.4251 86.6767 95.3159 86.2042 94.3269 86.222C93.3379 86.2397 92.5991 86.8729 92.5991 86.8729C94.589 88.7369 95.9713 88.1305 95.9713 88.1305C95.7211 88.8083 94.0767 88.5407 94.0767 88.5407C94.8394 89.1204 94.7559 89.5308 94.7559 89.5308C94.3508 89.1384 93.6835 89.3346 92.2537 88.4071C90.824 87.4796 89.5488 87.7829 89.5488 87.7829C90.943 89.2722 89.0365 90.1552 89.0365 90.1552C88.3335 90.5566 89.3344 91.1005 89.3344 91.1005C88.4527 91.2609 88.3335 90.3782 88.3335 90.3782C87.8687 90.2891 87.2014 90.8509 87.2014 90.8509C87.2491 89.9412 88.4406 90.3962 88.4763 89.4507C88.5121 88.5052 87.3681 87.7741 83.9959 88.2378C80.6237 88.7016 79.6347 87.6224 79.6347 87.6224C79.3487 87.6314 79.2891 87.9167 79.2891 87.9167C79.8491 88.4518 80.0995 88.6748 80.0041 89.0495C79.9087 89.4241 80.1827 89.549 80.1827 89.549C79.5631 89.5132 79.5154 88.7731 79.5154 88.7731C79.5035 89.0764 79.3723 89.1032 79.1699 89.4241C78.9674 89.7452 79.1579 90.1554 79.1579 90.1554C78.8958 89.9234 78.4191 89.6471 78.872 88.9871C79.2207 88.4788 78.1451 87.8276 78.1451 87.8276C77.728 87.3997 76.6199 87.8009 76.6199 87.8009C74.3202 88.2556 72.9737 86.802 72.9737 86.802C72.7116 86.802 72.211 86.6594 72.211 86.6594C69.7801 87.7475 67.6473 85.393 67.6473 85.393C65.8124 85.7408 64.9782 84.8579 64.4182 83.9927C63.8582 83.1275 63.7509 83.0562 63.0121 82.6104C62.2733 82.1645 61.5828 80.9029 62.2613 80.2381C62.8531 79.6585 62.6785 79.5246 62.6785 79.5246C61.7252 77.9223 64.3785 77.4056 64.4262 77.0222C64.4956 76.4626 65.0497 76.1089 65.6455 76.0731C66.2412 76.0374 66.2412 76.0909 66.6345 75.6897C67.0277 75.2883 67.7785 75.7878 67.7785 75.7878C67.9335 75.6719 69.2442 74.6551 70.4119 75.1814C71.5797 75.7077 72.5449 75.333 72.5449 75.333C73.3672 75.1546 80.1949 74.2271 80.1949 74.2271C80.6358 73.5671 80.9456 72.7733 82.8282 72.3453C84.7109 71.9173 86.1408 70.7488 86.1408 70.7488C85.8072 70.3922 85.2472 70.41 84.9613 70.3742C84.6753 70.3384 84.0795 69.8301 84.0795 69.8301C83.734 69.9818 83.5568 69.9075 81.0887 71.4086C78.8843 72.7494 78.8207 70.0889 78.8207 70.0889L74.0108 70.0977C73.9274 71.1143 73.153 71.5157 73.153 71.5157L71.4013 71.6048C70.4242 71.0875 70.4123 69.3664 70.4123 69.3664C65.1217 69.4467 62.1785 71.3373 62.1785 71.3373C56.1848 68.2692 51.49 67.5737 51.49 67.5737C58.7705 66.7798 62.6193 64.7554 62.6193 64.7554C66.6349 67.1635 70.4123 67.2258 70.4123 67.2258C70.5554 65.772 71.5325 65.4153 71.5325 65.4153L72.6403 65.4756Z" fill="black"/>
<path d="M63.9836 77.5566C62.4622 78.4487 62.7373 78.9359 62.8697 79.2099C63.0048 79.4894 63.0205 79.7569 62.6076 80.1732C62.1945 80.5895 62.2342 80.734 62.2342 80.734C62.2978 82.2127 63.3451 82.5267 63.7819 82.8894C64.1478 83.1932 64.7682 84.1449 64.7682 84.1449C65.5468 85.2628 66.3728 85.2745 66.9845 85.2745C67.5961 85.2745 67.5417 85.2226 67.2307 84.9476C66.9382 84.6888 66.3251 84.1866 66.3251 84.1866C67.1433 84.4719 67.9218 85.3281 67.9218 85.3281C69.4677 87.0195 70.8928 86.7967 71.5204 86.7135C72.1479 86.6302 72.0366 86.2675 72.0366 86.2675C72.0036 86.2072 71.3932 86.1604 71.3932 86.1604C69.0736 85.9403 68.3745 84.4183 68.3745 84.4183C69.7727 85.7918 71.9651 86.0713 72.6403 86.046C73.3156 86.0207 73.2758 86.2139 73.1327 86.2497C72.9897 86.2855 72.7832 86.2497 72.4734 86.2259C72.1636 86.202 72.1636 86.2794 72.2351 86.4102C72.3067 86.5409 72.5985 86.5543 72.9679 86.5409C73.3373 86.5275 73.0394 86.5677 73.9985 87.3124C74.9578 88.057 77.3469 87.455 77.3469 87.455C75.8038 87.0716 75.5894 86.3759 75.5894 86.3759C73.4921 86.621 72.6401 85.3636 72.6401 85.3636C72.2648 84.989 71.1443 84.4098 71.1443 84.4098C69.959 83.901 69.7743 82.8283 69.7743 82.8283C70.108 83.3032 70.7575 83.8475 71.5796 84.0749C72.4016 84.3022 72.634 84.4227 72.634 84.4227C72.2408 84.4807 72.0084 84.3514 72.0084 84.3514C71.1861 84.1106 71.6509 84.4451 71.6509 84.4451C72.5564 85.1674 72.8068 85.1141 72.8068 85.1141C75.184 85.3592 74.0044 84.4096 74.0044 84.4096C75.6965 84.811 75.9765 84.1776 75.9765 84.1776C76.328 84.9223 77.609 84.6547 77.609 84.6547C75.905 85.4751 77.198 85.2408 77.198 85.2408C78.9197 84.9179 79.2573 85.3563 79.2573 85.3563C79.7234 85.7897 80.1947 85.7295 80.1947 85.7295C80.1947 85.7295 80.5045 85.7385 81.1599 85.8696C81.8152 86.0008 82.8161 86.5589 83.7694 86.4409C84.7226 86.3229 84.8776 86.6221 84.8776 86.6221C84.699 86.5603 84.2819 86.4965 83.543 86.8266C82.8042 87.1567 81.5293 87.2636 79.6705 86.8266C77.8117 86.3897 77.6686 86.4432 77.6686 86.4432C78.1096 86.7731 78.5026 87.237 78.5861 87.5579C78.6695 87.8788 78.9913 87.8968 78.9913 87.8968C79.1224 87.4866 79.6824 87.3082 79.6824 87.3082C80.0491 87.647 81.0289 88.093 81.0289 88.093C81.1362 87.87 81.0289 87.714 81.0289 87.714C81.7439 88.3963 82.5779 88.1911 82.5779 88.1911C82.804 88.0311 82.7329 87.647 82.7329 87.647C83.0188 87.638 83.0665 87.8165 83.269 87.9504C83.4715 88.0842 84.1149 87.9949 84.1149 87.9949C83.8767 87.8968 83.7098 87.5312 83.7098 87.5312C84.6511 86.8802 86.6887 87.1655 86.6887 87.1655C88.1603 87.4241 87.9756 88.3873 87.9756 88.3873C88.2735 88.53 88.6667 88.976 88.6667 88.976C88.7918 88.6371 88.6787 88.2936 88.6787 88.2936C89.352 88.6147 89.4949 89.3996 89.4949 89.3996C90.2753 88.5076 88.7502 87.5044 88.7502 87.5044C89.489 87.4107 90.3052 87.4776 90.7998 87.5489C91.2943 87.6203 92.0032 87.879 92.5811 88.3606C93.1591 88.8421 94.1958 89.0651 94.1958 89.0651C94.164 88.8661 93.612 88.53 93.4869 88.4587C93.3618 88.3873 93.3083 88.2135 93.3083 88.2135C93.8147 88.3026 94.1661 88.2581 94.1661 88.2581C92.3847 87.1699 91.9379 86.6528 91.9379 86.6528C92.6052 86.7375 92.9746 86.3227 92.9746 86.3227C91.5685 86.3539 91.5208 85.9882 91.5208 85.9882C91.6936 86.0372 92.3312 86.1934 93.1712 86.0284C94.0113 85.8634 95.179 86.0328 95.179 86.0328C94.5713 85.0561 92.2178 85.2212 91.4672 85.2613C90.7167 85.3015 90.4247 85.2034 90.4247 85.2034C90.5439 85.1454 90.669 85.0206 91.2587 85.0162C91.8486 85.0118 92.4263 85.0607 93.0936 84.6014C93.7609 84.142 94.6765 84.2937 94.6765 84.2937C94.4541 83.8538 93.3976 83.6992 92.4682 84.2937C91.5388 84.8882 90.6966 84.698 90.6966 84.698C92.1663 84.4899 92.5952 83.9726 92.5952 83.9726C92.1502 83.8655 91.904 84.0083 91.0223 84.1807C90.1406 84.3531 89.9022 84.05 89.9022 84.05C90.8713 83.4733 91.5465 83.2413 91.5465 83.2413C90.7205 83.0689 89.9578 82.7162 89.9578 82.7162C89.0999 83.523 88.4327 83.9784 86.7883 83.1164C85.1439 82.2544 84.2861 82.3554 84.2861 82.3554C85.7319 81.4992 87.2173 81.8678 88.2977 82.5158C89.3782 83.1639 89.688 82.6346 89.688 82.6346C89.3464 82.4207 89.394 82.2364 89.394 82.2364C92.0155 83.5741 93.1516 82.7417 93.7314 82.3493C94.3113 81.9569 93.4693 81.4337 93.4693 81.4337C93.4137 82.2841 92.3412 82.6704 91.4993 82.3851C90.6573 82.0998 89.8787 81.737 88.6674 81.2317C87.456 80.7263 85.9386 80.988 84.5245 81.2852C83.1105 81.5825 82.9279 81.4398 82.8007 81.3268C82.6735 81.2139 82.6021 80.869 81.8792 81.1664C81.1563 81.4637 79.4722 80.6729 78.4235 80.4232C77.3749 80.1734 75.6584 80.31 74.1736 81.1248C72.6889 81.9395 71.9573 81.7373 71.5124 81.535C71.0675 81.3327 70.7895 80.774 71.2662 80.2745C71.7429 79.7749 71.7825 79.6383 71.7429 78.9188C71.7032 78.1994 70.9962 77.7712 70.9962 77.7712C71.6476 77.0993 71.8065 76.9508 71.584 76.6594C71.3616 76.368 71.7111 76.3741 72.0845 76.2076C72.4579 76.041 72.291 76.0172 72.2038 75.7974C72.1163 75.5773 71.9019 75.6131 71.9019 75.6131C71.0361 75.6488 70.5594 75.411 70.5594 75.411C69.1255 74.751 67.7949 76.0352 67.7949 76.0352C66.9803 75.4112 66.7939 75.8151 66.6508 75.9697C66.5078 76.1243 66.2218 76.2314 65.8405 76.267C65.4936 76.2994 64.9694 76.4352 64.7877 76.7592C64.7877 76.7592 64.627 77.0196 64.8274 77.3047C64.8274 77.3047 65.05 77.6404 64.645 78.046C64.2398 78.4519 64.0969 78.55 64.222 78.9334C64.3471 79.3168 64.3114 79.6111 64.1566 79.8609C64.1566 79.8609 63.9719 79.6469 64.0196 79.3838C64.0672 79.1206 64.0672 78.969 64.0076 78.8263C64.0076 78.8263 63.6085 79.2187 63.537 79.4996C63.537 79.4996 63.3702 79.0671 63.948 78.4874C64.5258 77.9078 64.7891 77.6191 64.6272 77.3949C64.508 77.2298 64.0852 77.4969 63.9836 77.5566Z" fill="#FDD406"/>
<path d="M65.6231 83.9498C65.6231 83.9498 64.9002 83.3969 64.9876 82.6298C65.075 81.8628 65.0604 81.7678 64.9803 81.6071C64.9803 81.6071 64.8485 81.6835 64.8525 81.9818C64.8562 82.2617 64.8165 82.5526 64.7889 82.606C64.7889 82.606 64.4155 81.9699 64.2647 81.8508C64.2647 81.8508 64.3918 81.185 64.1852 80.8995C63.9787 80.6142 63.7787 80.5962 63.5417 80.6855C63.2137 80.8089 62.9661 81.1137 64.0683 82.0173C64.0683 82.0173 64.4791 82.3443 64.7652 83.0697C65.0512 83.7952 65.5279 83.9081 65.6231 83.9498ZM69.2059 81.8272C69.2059 81.8272 69.1503 81.3932 69.5396 80.6261C69.9289 79.859 69.6954 79.2892 69.608 79.0988C69.5205 78.9085 69.468 78.9792 69.8607 78.6495C70.3439 78.2439 69.6745 77.7319 70.469 77.0206C70.469 77.0206 70.9932 76.5711 71.1124 76.3868C71.1124 76.3868 70.2705 76.8387 69.7222 77.0646C69.1742 77.2905 67.0769 78.319 67.5377 79.0087C67.9986 79.6984 67.9509 79.7341 67.8793 80.0195C67.8793 80.0195 66.6322 79.3595 67.0689 78.2893C67.0689 78.2893 67.267 77.8582 67.7919 77.3737C68.2686 76.9338 67.9824 77.4689 68.9516 76.9158C68.9516 76.9158 69.7222 76.4579 70.1272 75.8396C70.1272 75.8396 69.6189 76.1607 69.436 76.2142C69.436 76.2142 68.3159 76.4163 67.8632 76.892C67.4103 77.3677 66.4491 78.1941 66.7748 79.1156C66.7748 79.1156 65.6547 78.9788 65.4005 77.8134C65.4005 77.8134 63.3271 80.37 67.6804 81.5592C67.6806 81.5597 68.4751 81.7707 69.2059 81.8272Z" fill="black"/>
<path d="M88.355 73.2796C89.9808 73.0338 99.4029 71.6099 100.259 71.5231C101.196 71.4279 101.555 71.3029 101.864 72.0582C102.213 72.9144 100.577 72.9263 100.577 72.9263L89.344 74.1998C88.793 74.2634 88.6698 74.0532 88.6698 74.0532C88.5726 73.8737 88.3847 73.6348 88.2552 73.4783C88.2552 73.4781 88.1073 73.3171 88.355 73.2796Z" fill="#FDD406"/>
<path d="M65.3467 78.39C65.3467 78.39 64.1313 80.9496 68.9094 81.5828C68.9094 81.5828 68.9214 81.2975 69.1119 80.896C69.3025 80.4946 69.7196 79.6832 69.3263 79.1569C68.9331 78.6306 69.6481 78.9071 69.7554 78.2204C69.8627 77.5337 69.6838 77.6318 70.0175 77.1858C70.0175 77.1858 68.5162 77.7299 67.9441 78.3898C67.3722 79.0498 68.7187 79.5493 67.9202 80.2716C67.9202 80.2716 67.2529 80.0309 66.8597 79.3083C66.8601 79.3086 65.9307 79.3265 65.3467 78.39Z" fill="#784B26"/>
<path d="M70.0235 81.5325C70.0235 81.5325 71.2031 82.5537 72.6092 82.5091C74.0153 82.4646 74.6111 82.0899 74.9685 81.5325C74.9685 81.5325 75.2419 81.9644 75.2426 82.2504C75.2426 82.2504 76.4579 81.2425 78.5552 82.1165C80.6524 82.9905 80.009 82.7503 80.4736 82.8124C80.4736 82.8124 79.582 82.6539 77.5423 83.5881C75.4453 84.5487 69.9758 84.2213 70.0235 81.5325Z" fill="black"/>
<path d="M68.0644 77.0161C68.0644 77.0161 68.5946 77.0964 69.1249 76.4988C69.1249 76.4988 68.4099 76.6327 68.0644 77.0161ZM64.0575 81.7697C64.0575 81.7697 63.0716 80.9939 63.7032 80.8422C63.7032 80.8422 64.1529 80.7709 64.0575 81.7697Z" fill="#784B26"/>
<path d="M85.5232 86.6222C85.5232 86.6222 86.0474 85.6851 87.5608 85.6851C89.0742 85.6851 89.2529 86.3808 91.1594 86.5145C91.1594 86.5145 88.8701 87.1596 87.2749 86.568C86.4409 86.2588 85.6901 86.5159 85.5232 86.6222Z" fill="black"/>
<path d="M70.5466 82.2158C70.5466 82.2158 72.8106 83.5893 74.8244 82.0999C74.8244 82.0999 74.9913 82.2603 75.1342 82.626C75.1342 82.626 76.6593 81.1542 79.3881 82.7419C79.3881 82.7419 79.0528 82.7046 77.7676 83.2592C76.0933 83.9817 71.9051 84.4544 70.5466 82.2158Z" fill="#784B26"/>
<path d="M79.278 83.6064C79.278 83.6064 81.4466 83.8579 83.2817 83.7491C84.4092 83.6824 85.6292 83.4759 85.0215 83.8579C84.4138 84.2396 84.7117 84.2754 87.3093 84.0346C89.9069 83.7939 87.2855 84.5252 89.0729 84.7569C89.0729 84.7569 84.7408 86.9686 79.278 83.6064Z" fill="black"/>
<path d="M84.9731 82.2254C84.9731 82.2254 86.2481 81.7616 87.4279 82.3145C88.6074 82.8674 88.4288 82.9121 89.2153 82.9922C89.2153 82.9922 88.6673 83.7771 87.3685 83.1439C86.0694 82.5107 85.7253 82.3885 84.9731 82.2254ZM86.3912 86.1406C86.3912 86.1406 87.6421 85.5166 89.025 86.1653C89.198 86.2465 89.5753 86.4031 89.9301 86.4795C89.9301 86.4795 88.8706 86.8079 87.7851 86.4705C87.3339 86.3304 86.975 86.221 86.3912 86.1406ZM80.2067 83.902C80.2067 83.902 82.9951 84.1605 84.5083 83.8591C84.5083 83.8591 82.7566 84.7046 87.1536 84.3122C87.1536 84.3122 88.1307 84.2051 88.0115 84.3567C87.8922 84.5084 87.8209 84.6243 88.2974 84.7669C88.2976 84.7671 85.0327 86.2297 80.2067 83.902Z" fill="#784B26"/>
<path d="M66.2801 81.5325C66.2801 81.5325 66.3039 81.7465 66.9235 82.023C67.5431 82.2995 67.8768 82.7945 68.0079 83.062C68.1391 83.3295 68.4547 83.7299 68.9672 83.8575C68.9672 83.8575 66.7813 84.3137 65.8017 83.1766C65.8017 83.1766 65.0589 82.3575 66.2564 81.5325" fill="black"/>
<path d="M83.4827 86.5774C83.4827 86.5774 82.6129 86.5239 81.4331 86.1137C80.2535 85.7035 79.9435 86.0513 79.2765 85.5518C78.6092 85.0523 77.2627 85.3646 77.0125 85.4002C76.7623 85.4359 76.0473 85.4002 76.9409 84.8205C76.9409 84.8205 76.226 84.8027 75.9519 84.4459C75.9519 84.4459 75.6302 84.758 74.4268 84.6421C74.4268 84.6421 74.9629 85.4842 72.8063 85.2416C72.8063 85.2416 73.4497 85.9888 74.2243 86.1404C74.9989 86.2921 75.3219 86.2419 75.821 86.0959C75.821 86.0959 75.6779 86.7469 76.6788 86.9966C77.6798 87.2464 77.8823 87.4426 78.3948 87.6476C78.3948 87.6476 78.4663 87.2284 77.1317 86.2563C77.1317 86.2563 77.8467 86.2206 78.8715 86.4703C79.8958 86.7201 82.2194 87.3177 83.4827 86.5774ZM84.0228 87.5763C84.0228 87.5763 84.2372 88.0758 84.8965 87.9628C85.5559 87.8499 86.6403 87.6566 87.6889 88.1917C87.6889 88.1917 87.8675 87.2997 85.7625 87.2374C85.7625 87.2374 84.4439 87.3087 84.0228 87.5763ZM66.1968 81.8506C66.1968 81.8506 65.3864 82.5164 66.1213 83.2092C66.7925 83.842 67.8292 83.7859 68.3256 83.7681C68.3256 83.7681 68.0277 83.5987 67.7656 83.2063C67.5035 82.8138 67.4945 82.5486 66.9433 82.2965C66.3714 82.0351 66.3039 81.9667 66.1968 81.8506ZM65.3467 78.3903C65.3467 78.3903 64.1313 80.9498 68.9094 81.583C68.9094 81.583 68.9214 81.2977 69.1119 80.8963C69.3025 80.4949 69.7196 79.6834 69.3263 79.1571C68.9331 78.6308 69.6481 78.9074 69.7554 78.2206C69.8627 77.5339 69.6838 77.632 70.0175 77.186C70.0175 77.186 68.5162 77.7301 67.9441 78.3901C67.3722 79.05 68.7187 79.5496 67.9202 80.2719C67.9202 80.2719 67.2529 80.0311 66.8597 79.3086C66.8601 79.3088 65.9307 79.3268 65.3467 78.3903Z" fill="#784B26"/>
<path d="M77.9109 84.2934C77.9109 84.2934 78.9118 84.1329 81.4617 85.0872C84.0116 86.0415 85.0722 85.8007 85.4535 85.7739C85.4535 85.7739 84.0152 86.5253 81.7874 85.5445C79.8176 84.677 79.6864 85.0069 77.9109 84.2934Z" fill="black"/>
<path d="M93.8725 83.7233C93.8725 83.7233 94.4546 83.7034 94.7939 83.863C94.7939 83.863 95.0163 83.6727 95.5486 83.6162C95.5486 83.6162 95.1991 83.2654 93.8725 83.7233ZM92.129 82.3113C92.129 82.3113 92.7128 82.2846 92.8877 82.0051C92.8877 82.0051 92.5938 81.6304 92.1449 81.4522C92.1449 81.452 92.2361 81.8505 92.129 82.3113ZM72.5354 75.7947C72.5354 75.7947 72.4281 75.5094 73.0358 75.4201C73.6434 75.331 81.5873 74.1982 81.5873 74.1982C81.5873 74.1982 82.0084 74.1976 82.068 74.4748C82.1324 74.7743 82.0203 74.9984 80.1019 75.2226C78.1835 75.4468 73.1192 76.08 73.1192 76.08C73.1192 76.08 72.5829 76.1694 72.5354 75.7947Z" fill="#FDD406"/>
<path d="M80.2837 75.4522C80.2837 75.4522 80.2837 76.576 81.4277 76.7425C82.5376 76.904 82.9192 76.6732 83.2151 76.0888C83.2928 75.9352 83.6333 74.7619 83.1405 74.6724C82.9468 74.6373 82.6031 74.6574 82.3573 74.7624C81.9745 74.9259 81.6193 75.1175 81.7456 75.3094C82.0157 75.7196 82.0684 75.8148 81.968 75.8445C81.6936 75.9258 81.4917 75.6846 81.4359 75.5175C81.3662 75.3092 81.5871 75.1751 80.8401 75.2855C80.5347 75.3307 80.2837 75.3213 80.2837 75.4522Z" fill="#FDD406"/>
<path d="M85.0433 74.5895C85.6278 74.6569 85.5834 75.8933 84.8843 76.4523C84.1315 77.0541 83.4132 76.8388 83.4132 76.8388C83.0333 76.6784 83.081 76.7317 83.3749 76.286C83.6531 75.8638 83.7843 75.2957 83.6291 74.9006C83.5795 74.7742 83.7165 74.6717 83.9104 74.6301C83.9108 74.6299 84.4396 74.5199 85.0433 74.5895Z" fill="#FDD406"/>
<path d="M85.5519 74.6975C85.5519 74.6975 85.969 75.2223 85.4483 76.1898C85.4483 76.1898 85.2182 76.4751 85.7345 76.4335C86.2507 76.3918 87.4027 75.839 87.2835 75.1313C87.2835 75.1313 87.2437 74.959 86.9419 74.9767C86.64 74.9945 86.8862 74.8102 87.0134 74.7747C87.1406 74.7391 87.5336 74.5933 86.5131 73.9363C86.5131 73.9363 86.3447 73.7846 86.1476 73.8472C85.992 73.8965 85.4483 74.1195 85.4483 74.4358C85.4485 74.5655 85.5519 74.6975 85.5519 74.6975Z" fill="#FDD406"/>
<path d="M86.6654 73.808C86.6654 73.808 87.4798 74.3916 87.4758 74.565C87.4718 74.7384 87.4003 74.9733 87.6149 74.9526C87.8293 74.9319 88.7112 74.7445 88.4688 74.1619C88.2265 73.5791 87.9841 73.3741 87.5751 73.2315C87.166 73.0888 87.0629 73.2821 86.7133 73.5465C86.7131 73.5465 86.459 73.7011 86.6654 73.808ZM82.2605 74.6315C82.2605 74.6315 82.3956 74.1975 81.6647 74.037C81.6647 74.037 81.9745 73.7814 82.5941 73.9182C83.2095 74.054 83.1438 74.4594 83.139 74.5127C83.139 74.5127 82.6577 74.4947 82.2605 74.6315ZM83.8494 74.5305C83.8494 74.5305 84.6962 74.3822 85.0727 74.4294C85.0727 74.4294 84.6556 73.4961 83.5277 73.814C83.5277 73.814 83.9327 74.2719 83.8494 74.5305ZM85.299 74.2985C85.299 74.2985 85.299 74.0132 86.018 73.7276C86.018 73.7276 85.6691 73.3992 85.184 73.4304C84.628 73.4662 84.5167 73.6682 84.5167 73.6682C84.5167 73.6682 85.1204 73.8778 85.299 74.2985ZM85.581 73.3235C85.581 73.3235 86.0259 73.4365 86.3039 73.6743C86.3039 73.6743 86.7257 73.2141 87.0825 73.1154C87.0825 73.1154 86.3834 72.7407 85.581 73.3235Z" fill="#FDD406"/>
<path d="M62.1904 71.0769C62.1904 71.0769 64.1531 69.414 65.2528 69.6144C66.3523 69.8145 65.8009 69.6767 67.0045 69.4895C68.2079 69.3022 69.4473 69.1774 69.9477 69.2397C69.9477 69.2397 68.4939 68.1963 65.8962 68.2141C65.8962 68.2141 64.0613 68.8473 62.7981 69.6857C62.7981 69.6857 60.3672 68.33 57.853 69.1416C57.853 69.1416 60.5818 70.1314 62.1904 71.0769Z" fill="#784B26"/>
<path d="M83.0584 73.9569L83.386 73.9019C83.386 73.9019 83.9391 74.5867 83.5372 74.5945C83.2232 74.6007 83.3502 74.4978 83.2908 74.2987C83.2312 74.0995 83.1241 74.0104 83.0584 73.9569ZM80.592 74.0104C80.592 74.0104 80.3953 74.255 80.7647 74.1976C81.2147 74.128 81.1281 74.2127 81.6226 73.878C81.6226 73.878 81.9265 73.5555 82.4924 73.7563C82.4924 73.7563 82.9691 73.9123 83.3563 73.7251C83.7435 73.5379 83.833 73.5513 84.0413 73.5691C84.2499 73.5868 84.2359 73.6318 84.5141 73.4287C84.7921 73.2256 85.2747 73.3816 85.5786 73.1275C85.8826 72.8733 86.2637 73.0873 85.5786 72.5968C85.5786 72.5968 85.4355 72.4541 85.4475 72.3336C85.4475 72.3336 85.7096 72.4094 85.9181 72.5968C86.1267 72.784 86.4722 72.7261 86.5319 72.6949C86.5319 72.6949 86.5676 72.0839 87.1753 71.522C87.783 70.9602 87.789 70.9156 87.4316 70.911C87.0741 70.9066 86.4722 70.7683 86.2698 70.911C86.0673 71.0537 84.2857 72.2219 83.2492 72.4181C82.2125 72.6146 81.2592 72.9089 80.592 74.0104ZM52.9294 67.6189C52.9294 67.6189 56.1109 68.4393 56.8259 68.7843C56.8259 68.7843 56.9965 68.2521 55.5509 67.8358C55.5509 67.8358 59.062 67.7287 62.7798 69.4174C62.7798 69.4174 64.5718 67.8808 70.3389 68.3565C70.3389 68.3565 70.3502 67.8471 70.39 67.4553C70.39 67.4553 66.3386 67.3365 62.6208 65.0771C62.6208 65.0769 59.2925 66.715 52.9294 67.6189ZM70.6123 69.1558C70.39 65.9034 71.6371 65.6122 71.6371 65.6122C71.6371 65.6122 72.2245 65.6156 72.8604 65.7133C72.8604 65.7133 71.8754 66.8845 72.1375 69.2093C72.1375 69.2093 72.2408 69.5839 71.4066 69.5839C70.5858 69.5839 70.6123 69.1558 70.6123 69.1558Z" fill="#FDD406"/>
<path d="M71.4657 71.3093C71.4657 71.3093 70.862 70.6909 70.7984 69.9774C70.7984 69.9774 70.7825 69.7931 71.3942 69.8109C72.0058 69.8287 72.0857 69.7521 72.2362 70.1081C72.3826 70.4543 72.7683 71.1844 72.8637 71.2676L71.4657 71.3093Z" fill="#784B26"/>
<path d="M72.7723 69.6851C72.7168 69.2596 72.6955 68.8964 72.7051 68.4488C72.7449 66.6354 73.0459 66.7965 73.1651 67.0226L73.7855 67.0339C73.7855 67.0339 73.3327 64.9885 72.8005 66.1836C72.2776 67.3575 72.3158 68.1218 72.3794 69.0494C72.416 69.5836 72.4865 69.9162 72.5462 70.1162L72.7723 69.6851Z" fill="#FDD406"/>
<path d="M79.7756 69.6898C79.7756 69.6898 80.9731 69.8726 79.138 70.3096C79.138 70.3096 79.2273 72.5269 81.3961 70.9739C81.3961 70.9739 82.6771 70.155 83.5647 69.822C83.5647 69.822 84.0115 69.6674 83.9579 69.3329C83.9579 69.3329 83.9937 68.939 83.5289 69.0162C83.5289 69.0162 83.1628 69.0248 82.9271 68.9388C82.9271 68.9388 82.6708 68.6372 82.4981 68.7531C82.3253 68.869 81.9201 68.802 82.236 69.1857C82.5518 69.5691 82.647 69.471 82.802 69.3595C82.957 69.248 83.6421 68.9761 83.0106 69.5423C82.379 70.1086 81.8845 69.2302 81.6818 69.0696L79.7756 69.6898ZM73.7819 69.941L73.2498 69.9291C73.2498 69.9291 72.9638 70.3573 72.7686 69.685L72.5427 70.1159C72.5427 70.1159 73.2021 72.4968 73.7819 69.941Z" fill="#784B26"/>
<path d="M73.0318 67.193C73.0318 67.193 72.7617 68.7508 73.1033 69.7141L78.8627 69.8212C78.8627 69.8212 78.7911 68.7033 78.8786 67.1932H78.0605C78.0605 67.1932 77.9492 68.4477 78.0525 69.2206L77.9176 69.2233C77.9176 69.2233 77.8143 68.1385 77.9253 67.1932H77.2501C77.2501 67.1932 77.1388 68.3527 77.2262 69.2325H77.0991C77.0991 69.2325 77.0037 68.2159 77.115 67.1932H76.4477C76.4477 67.1932 76.3251 68.2433 76.4563 69.2181L76.2969 69.2147C76.2969 69.2147 76.1617 68.1504 76.3048 67.1932H75.566C75.566 67.1932 75.3834 68.1743 75.558 69.2267H75.407C75.407 69.2267 75.2403 68.2218 75.4229 67.1932H74.6841C74.6841 67.1932 74.5094 68.305 74.6602 69.2267H74.5171C74.5171 69.2267 74.3979 68.1504 74.5569 67.1932H73.8658C73.8658 67.1932 73.6831 68.1327 73.834 69.2267H73.6829C73.6829 69.2267 73.5716 68.4121 73.7147 67.1932L73.0318 67.193ZM79.1168 70.0351C79.1168 70.0351 78.9574 67.2166 79.4982 66.4916C80.0389 65.7666 80.1496 65.9088 81.071 66.4916C81.9924 67.0742 83.1841 67.7045 83.3747 67.7758C83.5653 67.8471 83.8355 67.9185 83.8355 68.4299C83.8355 68.9413 83.9309 69.0957 83.1365 68.4537C83.0174 68.3575 82.6459 68.0176 82.3778 67.932C81.6659 67.7049 82.5489 68.0914 82.8028 68.4537C83.0181 68.7608 83.1841 68.7271 82.6281 68.87C82.0721 69.0129 80.1496 69.6546 79.1168 70.0351Z" fill="#FDD406"/>
<path d="M81.1309 68.0173C81.1309 68.0173 80.7138 67.4904 81.2441 67.3699C81.7743 67.2494 81.816 68.2037 81.9053 68.7789C81.9948 69.3542 81.2382 68.1976 81.1309 68.0173ZM80.3565 70.4735C80.3565 70.4735 79.7369 70.7009 80.1421 70.9015C80.5473 71.1021 81.6911 70.1524 81.298 70.2148C80.9046 70.2773 80.3565 70.4735 80.3565 70.4735ZM81.1966 69.604C81.1966 69.604 81.7446 69.5504 81.6375 69.7868C81.5302 70.0232 81.3336 69.873 81.2503 69.8209C81.1667 69.769 80.7795 69.6351 81.1966 69.604Z" fill="black"/>
<path d="M84.1123 68.8674C84.1123 68.8674 84.2593 69.9405 85.1808 70.2126C85.1808 70.2126 85.7129 70.3448 85.6018 69.8752C85.6018 69.8752 85.5104 69.4828 85.4351 69.3192C85.3596 69.1556 84.9902 69.0517 84.9505 69.0339C84.9107 69.0161 84.863 68.9031 85.1174 68.9864C85.3715 69.0696 85.4113 69.0786 85.3914 68.9002C85.3715 68.7218 85.222 68.7935 84.9885 68.6795C84.8988 68.6356 84.9981 68.5762 85.0935 68.5971C85.1889 68.6178 85.4153 68.6862 85.4192 68.3176C85.4192 68.3176 85.4696 68.1126 85.1889 68.0976C84.8831 68.0813 84.907 67.9445 85.0023 67.9238C85.0977 67.903 85.4178 68.1248 85.5067 67.7602C85.5981 67.3855 85.0657 67.6012 85.1373 67.4079C85.2088 67.2146 85.586 67.5184 85.6173 67.2891C85.6477 67.0661 85.9524 66.969 85.4335 66.8971C85.1872 66.863 85.4148 66.7538 85.6914 66.7927C85.9874 66.8343 86.166 66.4687 86.3369 66.3497C86.5078 66.2309 87.473 65.6541 86.1861 65.8443C84.899 66.0344 84.5219 66.6588 84.4384 66.7837C84.3545 66.9084 83.997 67.6455 84.1123 68.8674Z" fill="#FDD406"/>
<path d="M87.1169 69.6998C87.2824 69.668 87.4386 69.7129 87.4949 69.8282C87.7068 70.2629 87.2209 70.1077 86.9508 70.4287C86.6808 70.7498 86.6728 70.6844 86.2915 70.572C85.9102 70.4597 85.7673 69.8817 85.7673 69.8817C85.7246 69.7044 85.8894 69.6893 86.0869 69.7119C86.0867 69.7121 86.7191 69.7765 87.1169 69.6998ZM85.7234 69.4686C85.7234 69.4686 85.7501 69.5987 85.9685 69.6165C86.1869 69.6343 86.8215 69.6893 87.1989 69.5675C87.1989 69.5675 87.338 69.5401 87.2755 69.2944C87.2755 69.2944 87.2704 69.135 86.9307 69.1996C86.591 69.2642 86.0997 69.1996 85.9359 69.1638C85.7721 69.1283 85.6388 69.167 85.7234 69.4686ZM85.6717 68.6898C85.6717 68.6898 85.6598 69.0287 86.0013 69.0733C86.3429 69.1178 86.7682 69.1161 86.9454 69.0812C87.0805 69.0544 87.324 69.0051 87.3439 68.8057C87.3637 68.6066 87.4194 68.4578 86.9983 68.562C86.5772 68.666 86.0689 68.5978 86.0172 68.5859C85.9656 68.5739 85.6796 68.4875 85.6717 68.6898ZM85.8267 68.006C85.8267 68.006 85.7432 68.1606 85.7551 68.3093C85.7671 68.4581 86.0133 68.5085 86.4582 68.5145C86.9031 68.5206 87.3001 68.4551 87.328 68.3064C87.3558 68.1577 87.4631 67.9853 87.1136 68.0389C86.764 68.0924 86.3231 68.1073 86.1484 68.0359C85.9735 67.9644 85.856 67.9397 85.8267 68.006Z" fill="#FDD406"/>
<path d="M102.158 69.729C102.158 69.729 102.152 70.039 102.396 70.3444L90.0486 69.9899C90.0486 69.9899 90.2289 69.8784 90.2749 69.3975L102.158 69.729Z" fill="#784B26"/>
<path d="M85.9209 67.4948C85.9209 67.4948 85.8136 67.8069 86.0361 67.8695C86.2585 67.9318 86.6398 68.0002 87.1444 67.9201C87.1444 67.9201 87.3985 67.9379 87.486 67.6674C87.5734 67.3969 87.5644 67.5486 86.8461 67.4057C86.8461 67.4057 86.62 67.3398 87.2755 67.3373C87.2755 67.3373 87.641 67.3493 87.6966 67.2867C87.7523 67.2244 88.2367 66.8407 87.6092 66.8646C86.9816 66.8884 87.2914 66.7545 87.6092 66.7545C87.9269 66.7545 88.0263 66.82 88.1294 66.7188C88.2328 66.6177 88.1374 66.6862 87.9665 66.5136C87.7958 66.3412 87.9148 66.3916 88.038 66.4868C88.1612 66.582 88.2365 66.6117 88.3756 66.4897C88.5147 66.3678 88.2683 66.1896 88.3756 66.2103C88.4829 66.231 88.5346 66.4347 88.9396 66.2385C89.3445 66.0423 89.8928 66.1448 90.0417 66.2563C90.1907 66.3678 90.6136 66.5104 90.8699 66.2473C91.1261 65.9841 90.566 65.7701 90.8044 65.7344C91.0429 65.6986 91.2096 65.7833 91.305 65.5917C91.4004 65.3999 90.9356 65.2171 91.3824 65.0968C91.8292 64.9763 91.4539 63.7233 91.2989 63.6074C91.2989 63.6074 90.7986 63.9017 90.2503 64.7891C89.702 65.6764 89.3805 66.1937 88.6356 65.9218C87.5613 65.5294 87.0122 66.0935 86.8459 66.1952C86.5882 66.3527 87.3845 66.4301 86.9199 66.4389C86.4551 66.4479 86.4551 66.4878 86.4076 66.5594C86.36 66.6307 86.4016 66.6933 86.485 66.6977C86.5685 66.702 86.7471 66.8805 86.4612 66.8715C86.1752 66.8625 85.9726 66.8179 86.0566 67.1219C86.0566 67.1219 86.0619 67.1882 86.2288 67.206C86.3955 67.2237 86.4551 67.3978 86.1453 67.3978C85.9466 67.3982 85.9267 67.4752 85.9209 67.4948ZM87.0628 70.5909C87.0628 70.5909 86.8423 70.747 87.1463 70.7648C87.4502 70.7825 87.6111 70.8405 87.7062 70.6777C87.8016 70.515 88.2127 70.5819 87.9386 70.3543C87.6646 70.1272 87.4799 70.2565 87.0628 70.5909Z" fill="#FDD406"/>
<path d="M88.3371 66.8756C88.3371 66.8756 89.3652 65.908 90.2246 66.5635C91.0839 67.2191 91.1671 67.3172 91.179 67.3306C91.191 67.344 91.2803 67.4153 91.0479 67.6205C90.8155 67.8257 91.0418 67.8211 91.2981 67.6962C91.5543 67.5714 91.5721 67.6873 91.6972 67.8255C91.8223 67.9638 91.9896 68.0441 91.5932 68.0485C91.1968 68.0529 90.3448 68.0485 90.3448 68.0485C90.3448 68.0485 89.7669 68.0975 90.0589 67.8613C90.3509 67.6249 90.3091 67.344 90.1601 67.3262C90.0112 67.3084 90.1482 67.4689 90.0589 67.5804C89.9696 67.6919 89.7669 67.7943 89.5644 67.79C89.3619 67.7856 89.183 67.9366 89.5048 68.0529C89.8265 68.169 89.469 68.2451 89.3023 68.2405C89.1355 68.2359 88.331 68.3029 89.1475 68.401C89.9637 68.4991 89.0738 68.4754 89.6717 68.817C90.3329 69.1948 89.8564 69.9974 89.6062 70.0688C89.6062 70.0688 89.3322 70.2179 89.6778 70.1767C90.0233 70.1357 90.2139 70.0866 89.9698 70.2738C89.7254 70.461 89.237 71.0854 88.5578 70.6083C88.5578 70.6083 88.248 70.4612 88.8021 70.4344C89.3562 70.4076 88.3492 70.2893 88.1825 70.1767C88.0158 70.0642 87.3782 69.4132 87.7773 69.4935C88.1765 69.5739 88.0336 69.3419 87.7951 69.2572C87.5567 69.1724 87.5092 68.8068 87.7773 68.8871C88.0455 68.9674 88.3612 69.1168 88.5758 69.1068C88.7902 69.0967 88.7308 69.0074 88.2718 68.8647C87.8131 68.7221 87.6223 68.6997 87.7297 68.3119C87.837 67.924 88.3373 68.4635 88.2183 68.1736C88.0993 67.8837 87.6642 68.0265 87.8966 67.6429C88.129 67.2595 88.1825 67.4243 88.2898 67.4735C88.3971 67.5226 88.5687 67.486 88.266 67.2595C88.075 67.1164 88.2831 66.9229 88.3371 66.8756Z" fill="#FDD406"/>
<path d="M89.0767 67.1441C89.0767 67.1441 89.0706 67.0149 89.2553 67.037C89.44 67.0594 89.3923 66.9701 89.4459 66.9433C89.4994 66.9165 89.9617 67.081 89.5294 67.2376C89.3695 67.2956 89.1185 67.2542 89.0767 67.1441Z" fill="black"/>
<path d="M90.0636 68.24C90.0636 68.24 89.7161 68.417 90.0307 68.7816C90.2989 69.0924 90.2974 69.1909 90.275 69.3976C90.2524 69.6043 102.158 69.7291 102.158 69.7291C102.158 69.7291 102.137 68.9644 102.647 68.5341C102.647 68.5343 96.1407 68.3827 90.0636 68.24Z" fill="#FDD406"/>
<path d="M102.359 69.5204C102.359 69.5204 102.407 68.8753 102.764 68.6615C102.96 68.5437 103.22 68.6123 103.333 69.1324C103.494 69.872 102.867 70.5012 102.576 70.2203C102.299 69.953 102.359 69.5204 102.359 69.5204Z" fill="#784B26"/>
<path d="M88.7172 72.302C88.7172 72.302 89.5096 71.6287 89.6288 71.3253C89.6288 71.3253 91.7737 72.8448 91.6426 71.4496C91.6426 71.4496 91.6487 71.0756 91.7081 70.7189C91.7081 70.7189 92.4835 70.7951 92.6017 70.1759L90.5998 70.1169C90.5998 70.1169 90.3913 70.0724 90.0815 70.4068C89.7717 70.7413 89.1341 71.1074 88.5383 70.7882C88.5383 70.7882 88.289 70.5717 88.0353 70.7545C87.7815 70.9373 87.7696 70.9909 87.9782 71.1871C88.1869 71.3835 88.6337 71.9855 88.7172 72.302ZM93.3227 68.1058L92.149 68.0613C92.149 68.0613 91.72 67.4593 90.886 66.7903C90.886 66.7903 90.6417 66.6832 91.1123 66.3088C91.583 65.9341 91.72 65.5329 91.738 65.3501C91.756 65.1673 91.7083 64.8819 91.8869 65.1003C92.0656 65.3189 93.2811 66.4159 93.4539 66.0904C93.6267 65.7649 93.6564 65.6132 93.6863 65.5151C93.7162 65.417 93.7578 65.1137 93.9306 65.4304C94.1034 65.7471 94.222 65.6662 94.2285 66.4872C94.2285 66.4872 94.2582 67.2988 94.3835 67.5931C94.3831 67.5931 92.846 67.1007 93.3227 68.1058ZM88.2285 65.6086C88.2285 65.6086 89.1222 66.1082 89.5631 65.4302C90.0041 64.7525 90.302 64.6454 89.9683 63.9944C89.6347 63.3434 89.9775 63.0401 90.2291 62.7726C90.4808 62.505 90.6952 62.5496 90.731 61.515C90.7668 60.4804 91.4817 60.1327 91.8034 59.8116C92.1252 59.4905 92.9355 59 91.7081 58.795C90.4808 58.5898 88.0499 57.9566 87.4184 57.0113C86.7869 56.066 86.5009 56.6279 86.489 56.6634C86.4771 56.6992 86.2746 57.3947 86.9061 58.6523C87.5376 59.9099 88.0738 60.7184 88.6816 61.1257C89.2893 61.533 89.8376 61.7559 89.5276 62.5943C89.2175 63.4325 88.6814 64.9309 88.2285 65.6086Z" fill="#AD7D5A"/>
<path d="M91.5276 62.9342C91.5276 62.9342 91.6826 65.0835 93.2554 65.8506C93.2554 65.8506 93.6129 65.0122 93.4698 64.1828C93.4698 64.1828 93.9821 64.2273 94.1252 64.4593C94.1252 64.4593 94.149 63.8351 93.4102 63.6075C92.6714 63.3802 93.0289 61.9799 93.291 61.8195C93.5531 61.659 93.4696 61.3796 93.291 61.1269C93.1123 60.8742 93.0646 60.4907 93.6842 60.6512C94.3038 60.8116 94.2084 60.4818 93.8392 60.1784C93.47 59.8751 93.4817 59.5007 94.0059 59.5007C94.5302 59.5007 95.4001 58.9924 94.8757 58.8317C94.3515 58.6713 94.1846 58.5019 94.8996 58.2966C95.6146 58.0914 95.9601 57.8329 95.4238 57.7706C94.8876 57.7082 94.5302 57.5208 95.0544 57.4317C95.5786 57.3426 94.959 56.8075 94.3513 56.7807C93.7436 56.7539 92.4329 57.0037 93.4696 56.1743C94.5063 55.3449 91.98 55.9513 93.0167 55.4072C94.0534 54.8631 92.6712 55.1039 92.4806 55.0951C92.29 55.0863 92.2921 55.0951 92.3624 54.8186C92.4329 54.5421 92.2183 54.4172 91.9204 54.5866C91.6225 54.756 91.6225 54.756 91.6345 54.3726C91.6464 53.9892 91.277 54.2745 91.0506 54.3726C90.8243 54.4707 90.2522 54.8987 90.0259 54.6669C89.7995 54.4352 89.6684 54.1942 88.9653 54.6224C88.2623 55.0504 88.4292 54.6669 88.4411 54.4797C88.453 54.2925 88.7151 53.5522 87.75 54.3458C86.7848 55.1397 87.5713 53.4897 86.8087 54.0515C86.046 54.6134 85.9627 54.7115 85.8435 54.4617C85.7243 54.212 85.5799 54.007 84.7405 54.5421C83.9011 55.0771 84.5209 54.221 84.6399 54.0337C84.7589 53.8465 85.1166 52.6335 84.3778 53.579C84.3778 53.579 84.0203 54.239 83.2218 53.0617C83.2218 53.0617 82.3759 54.2312 82.1613 53.7133C81.9469 53.1956 81.7323 53.142 81.4582 53.4809C81.1842 53.8198 81.3867 53.4631 81.2677 53.1776C81.1486 52.892 81.0771 52.3659 79.671 53.3916C78.2649 54.4172 80.1596 53.6681 79.0872 54.1318C78.0147 54.5956 75.429 56.0582 77.8003 55.7193C80.1716 55.3805 76.6444 56.6468 77.4666 56.8788C78.2889 57.1108 78.0266 57.8241 81.1129 56.9769C84.1991 56.1297 83.6986 56.843 85.2714 56.1653C86.8442 55.4876 84.9139 56.3973 87.0231 56.3525C89.1322 56.308 87.3806 56.3615 87.7857 56.7985C88.1909 57.2355 89.9782 58.2701 91.6464 58.4395C93.3146 58.609 93.7198 57.9848 93.2431 58.7071C92.7663 59.4294 92.5996 59.7059 92.3137 59.9557C92.0277 60.2054 91.2412 60.7761 91.2293 61.7751C91.2174 62.774 89.9186 62.9346 90.3953 64.0403C90.3957 64.0401 91.1345 63.3266 91.5276 62.9342Z" fill="#784B26"/>
<path d="M94.2739 65.3391C94.2739 65.3391 93.8926 65.0715 93.9005 64.5959C93.9005 64.5959 94.1706 64.6433 94.2739 64.8159C94.2739 64.8159 95.2351 63.7278 94.0871 63.3355C92.9393 62.9431 93.511 61.9026 93.9003 61.8966C94.2896 61.8905 94.3574 61.7836 94.0296 61.3496C93.7018 60.9155 93.7256 60.8977 94.377 60.7848C95.0284 60.6718 94.9399 60.535 94.6504 60.3746C94.3611 60.2141 94.1392 59.9525 94.1392 59.9525C94.1392 59.9525 95.9817 59.1498 95.3857 58.7813C94.7898 58.4127 95.3857 58.5079 95.9179 58.1271C96.45 57.7466 96.5216 57.6753 96.601 57.5266C96.601 57.5266 96.075 57.5801 95.6867 57.5027C95.6867 57.5027 96.1465 57.2768 95.6867 56.9022C95.2267 56.5275 95.0362 56.1887 94.3053 56.361C93.5744 56.5334 93.8127 56.2897 94.0988 55.9864C94.3848 55.6831 94.2496 55.5107 93.7334 55.4335C93.7334 55.4335 93.797 55.1243 94.1863 54.7378C94.1863 54.7378 93.1933 54.8091 92.8596 54.6367C92.8596 54.6367 93.2569 54.3633 93.2887 54.0362C93.2887 54.0362 92.7406 54.2146 92.0495 54.1491C92.0495 54.1491 92.4547 53.7984 92.4547 53.4892C92.4547 53.4892 91.2552 53.7567 90.699 54.1789C90.699 54.1789 90.5798 54.155 90.4846 54.0243C90.3892 53.8935 90.3177 53.7626 88.991 54.1847C88.991 54.1847 89.1421 53.5961 89.4598 53.3582C89.7776 53.1204 89.7299 52.6447 87.6644 53.9349C87.6644 53.9349 87.3864 53.7684 87.1561 53.1501C87.1561 53.1501 86.7112 53.7804 86.3696 53.9944C86.3696 53.9944 86.0836 54.1144 86.1194 53.7126C86.1552 53.3107 85.9169 53.5971 85.7023 53.7126C85.4879 53.8281 85.3448 54.1134 85.4521 53.3018C85.5594 52.4901 85.1662 52.3207 85.1662 52.3207C85.1662 52.3207 84.5227 53.2304 84.1533 53.3285C84.1533 53.3285 83.4741 52.6686 83.2358 52.2316C82.9976 51.7946 82.9976 51.634 82.7591 52.392C82.5209 53.1501 82.223 53.2124 82.223 53.2124C82.223 53.2124 81.8178 52.8646 81.7701 52.6774C81.7701 52.6774 81.6986 52.8826 81.5676 52.9717C81.5676 52.9717 81.2101 52.5525 81.2221 51.9461C81.2221 51.9461 79.0058 53.1679 78.7318 53.9082C78.7318 53.9082 76.6345 53.7833 75.7647 53.9439C75.7647 53.9439 75.9791 53.2662 76.5274 52.9273C76.5274 52.9273 75.9794 52.865 75.9555 52.3031C75.9555 52.3031 76.3965 52.3655 76.6705 52.2941C76.9445 52.2228 76.2891 51.429 76.9803 51.4112C77.6714 51.3934 78.1124 51.7411 77.8024 50.8225C77.4926 49.904 77.6357 49.904 77.6357 49.904C77.6357 49.904 78.8391 50.6175 79.0298 50.4391C79.2206 50.2607 78.8748 49.8773 79.9473 50.0557C81.0198 50.2341 80.7219 49.6187 81.1388 49.5919C81.5559 49.5652 81.7822 49.8595 81.5201 47.9153C81.258 45.9712 82.8189 48.8786 81.7584 45.9444C81.7584 45.9444 81.4902 45.0571 80.8528 44.6781C80.8528 44.6781 80.7098 45.3202 79.9889 44.7538C79.2681 44.1873 77.8501 43.9867 78.4458 43.541C79.0416 43.095 79.3216 42.4976 79.1489 42.1229C79.1489 42.1229 78.4462 42.8574 77.2244 42.3325C76.2592 41.9177 76.0568 42.6804 75.0678 42.4574C75.0678 42.4574 75.0855 42.2032 75.9197 41.5477C76.754 40.8921 75.4372 41.7663 74.9188 41.8821C74.4005 41.998 74.2515 41.9045 75.3478 41.0571C76.4442 40.21 78.6127 38.7116 78.3149 37.4808C78.3149 37.4808 78.8272 38.1317 80.1736 37.6592C81.5201 37.1867 82.5211 37.017 82.9263 36.3215C83.3314 35.6258 84.392 34.9212 84.666 34.7696C84.94 34.6179 85.3095 34.511 84.8924 35.171C84.4752 35.831 83.796 36.9637 81.9372 37.7305C80.0785 38.4976 79.3635 39.0595 79.0298 39.4607C78.6962 39.8621 77.0041 40.7628 78.1005 40.6112C79.1968 40.4595 81.1032 40.6379 80.2096 40.3792C79.316 40.1206 78.3031 40.5396 79.1252 39.7905C79.9473 39.0415 80.0904 38.7917 81.2819 38.2922C82.4734 37.7927 83.796 36.6512 83.6651 37.864C83.5339 39.0768 81.3177 40.3702 80.7696 40.7624C80.2216 41.1548 80.424 41.0925 80.436 41.2529C80.4479 41.4134 80.3525 41.7435 80.1262 41.8951C79.8998 42.0468 79.9712 42.2162 80.0308 42.5551C80.0904 42.894 79.9712 43.0278 80.1381 43.0812C80.305 43.1345 80.4717 43.1615 80.5194 43.4023C80.5671 43.643 80.6922 43.6742 81.0139 43.6474C81.3356 43.6207 81.5381 43.6518 81.562 43.8392C81.5858 44.0265 81.8896 44.2806 81.9253 43.71C81.9611 43.1391 82.1696 43.0276 81.5858 43.2908C81.002 43.5539 80.8769 43.4602 80.8888 43.1883C80.9008 42.9163 80.8353 42.9787 80.591 42.9563C80.3466 42.9339 80.2632 42.5906 80.6983 42.3633C81.1332 42.1359 81.1273 42.3677 81.6695 41.9173C82.2117 41.4669 82.2117 41.342 82.2952 41.1324C82.3786 40.9228 81.5206 41.7435 81.1095 41.9307C80.6985 42.1179 80.8056 41.8014 80.8771 41.333C80.9487 40.8647 81.9734 40.2539 82.4441 40.2449C82.9148 40.2359 83.9753 40.5124 83.5166 41.1546C83.0578 41.7968 81.759 42.5593 82.319 42.6172C82.879 42.6752 82.9685 42.4568 83.2902 42.7421C83.612 43.0274 83.3141 43.6073 83.1651 43.915C83.0162 44.2227 82.7064 44.6107 82.5694 44.682C82.5694 44.682 81.9795 43.6296 81.9975 44.4634C82.0155 45.2972 81.8724 45.5962 81.9975 45.6273C82.1226 45.6585 82.7779 46.0955 82.9865 46.1045C83.1951 46.1135 81.8544 46.7333 82.4146 46.7734C82.9746 46.8136 83.8623 46.5283 84.1721 45.9484C84.1721 45.9484 83.0342 45.6719 82.5755 45.2439C82.5755 45.2439 83.9042 44.9318 83.5348 43.652C83.5348 43.652 84.8574 44.0133 84.2855 44.6107C83.7136 45.2083 83.368 45.119 83.8625 45.2885C84.357 45.4579 84.6014 45.6005 84.6014 45.6005C84.6014 45.6005 84.9396 45.77 84.7436 46.0465C84.5476 46.3231 84.5418 46.7423 84.7085 46.7333C84.8752 46.7243 85.4354 46.4657 84.9647 46.1804C84.4941 45.8951 85.5009 45.944 85.072 45.7033C84.643 45.4625 84.5298 45.4045 84.4167 45.2885C84.3035 45.1726 89.8027 41.9485 87.0262 43.1569C87.0262 43.1569 87.6042 41.9039 88.4143 41.8993C89.2245 41.8947 89.2841 42.5369 88.8254 43.023C88.3666 43.5092 88.0688 44.2672 86.9904 44.4455C86.9904 44.4455 88.5315 45.2006 86.7103 46.4343C86.7103 46.4343 86.3152 46.6216 86.4581 46.7584C86.6011 46.8952 87.6814 46.2827 87.8324 45.938C87.9834 45.593 88.2137 45.3255 88.6269 45.1234C89.04 44.9213 91.0737 43.5359 91.6853 42.4894C92.2969 41.4429 92.4639 41.4073 93.6554 40.4501C94.8469 39.4929 94.6404 39.683 94.7914 39.4513C94.9425 39.2195 95.0058 38.8388 95.5541 38.5296C96.1024 38.2204 98.2312 37.0373 98.8985 36.5556C99.5658 36.074 100.932 35.1882 101.52 34.4389C102.108 33.6898 103.691 32.7328 104.086 32.9108C104.481 33.0888 104.046 33.6482 103.117 34.3556C102.187 35.0631 99.8835 36.9241 99.5101 37.2095C99.1367 37.4948 97.1826 38.9218 96.4517 39.017C95.7208 39.1122 95.8003 39.3678 95.3633 39.8435C94.9263 40.3191 93.9175 41.318 93.5759 41.5916C93.2343 41.865 92.4239 42.4239 92.3764 42.8164C92.3287 43.2088 92.5195 43.2563 91.8681 43.8687C91.2167 44.4812 89.3103 45.8664 88.6191 46.0865C88.6191 46.0865 89.8424 46.4908 89.1115 47.3173C88.3807 48.1438 88.4283 48.0247 88.3727 48.0783C88.3727 48.0783 90.2302 47.8049 88.9128 49.2495C88.9128 49.2495 88.6587 49.6658 89.2465 49.2317C89.8748 48.7678 89.6039 48.1318 89.5324 48.0425C89.5324 48.0425 90.5174 47.43 91.6535 47.4123C92.7896 47.3945 92.7498 47.3171 91.733 47.0257C91.733 47.0257 92.4559 46.1457 93.0676 46.5797C93.6792 47.0138 93.4807 47.2635 92.8373 47.6083C92.1938 47.9532 91.2406 48.0959 90.5335 48.4883C90.5335 48.4883 91.8761 48.75 92.599 48.203C93.3219 47.656 93.3537 47.9296 93.4489 48.0245C93.5443 48.1197 93.6238 48.2979 93.3058 48.7558C92.9879 49.2137 92.9563 49.2374 92.9722 49.3386C92.9881 49.4396 92.9483 49.7549 92.2969 49.8618C91.6456 49.9689 91.3517 50.2423 91.574 50.5514C91.7964 50.8606 91.8043 51.6277 91.2483 51.5563C90.6923 51.485 90.8431 51.0451 90.6287 50.8725C90.4143 50.7002 90.1125 50.4326 89.1431 50.938C88.174 51.4434 88.0945 50.8428 88.1422 50.5278C88.1422 50.5278 87.5146 51.0748 86.9902 50.5694C86.466 50.0641 86.9425 49.8678 87.2444 49.6122C87.5462 49.3566 88.7775 48.8215 88.0389 48.9165C87.3002 49.0115 86.196 49.0591 85.9416 48.4885C85.6874 47.9176 86.4897 47.9831 86.6168 48.0367C86.744 48.0902 87.2682 48.5123 87.2841 47.9593C87.3 47.4064 88.1181 47.3468 87.8401 47.2338C87.5621 47.1209 87.1728 47.4717 87.0616 47.6085C87.0616 47.6085 86.4897 46.8117 85.5682 47.0734C84.6468 47.3351 85.8621 47.228 86.1083 47.2696C86.3545 47.3112 86.2117 47.7691 85.3854 48.5123C84.5591 49.2556 84.9325 49.0297 85.5444 49.0297C86.156 49.0297 87.6575 49.0355 86.7836 49.749C85.9096 50.4625 85.5603 50.8192 85.1074 50.6943C84.6545 50.5694 85.163 50.2722 85.3615 50.1473C85.5601 50.0224 85.6793 49.8024 85.2503 49.963C84.8212 50.1237 84.6704 50.1534 84.3288 49.5467C83.9872 48.9403 84.1303 49.1188 84.2732 48.7203C84.4163 48.322 84.7499 47.8999 84.3527 48.0484C83.9554 48.1969 83.9952 48.2088 84.027 47.7511C84.0588 47.2932 83.5741 47.1922 83.5741 47.1922C83.5741 47.1922 83.7647 47.6501 83.59 47.9413C83.4153 48.2325 83.4074 48.3337 83.6933 48.4109C83.9793 48.4883 84.2493 48.732 83.86 48.9995C83.4708 49.2671 83.5185 49.2315 83.7647 49.392C84.0109 49.5524 84.3684 49.7369 83.987 50.1113C83.6057 50.4858 83.9234 50.373 84.1142 50.373C84.305 50.373 84.7363 50.5335 84.743 50.9022C84.7497 51.2708 84.7179 51.3601 85.3375 51.0152C85.9571 50.6703 87.1963 50.7119 87.1804 51.1936C87.1645 51.6752 87.0214 51.7942 87.6809 51.384C88.3405 50.9738 88.6342 51.7706 89.0871 51.384C89.5399 50.9974 89.8259 50.623 90.3501 51.283C90.8743 51.9429 90.7109 52.1425 90.0721 52.6087C89.4333 53.075 90.3819 52.7158 90.8666 52.4661C91.3512 52.2163 92.7094 52.0498 93.488 52.3947C94.2666 52.7397 94.489 52.6623 95.0609 52.4245C95.6328 52.1866 95.9267 52.1331 96.7927 52.7098C97.6585 53.2865 98.3337 53.3936 98.7866 53.3817C98.7866 53.3817 97.8254 53.7563 96.745 53.8276C95.6645 53.899 95.1244 54.101 94.91 54.2675C94.91 54.2675 95.5597 54.66 95.6878 55.1415C95.6878 55.1415 96.3956 55.0463 96.7452 55.189C96.7452 55.189 96.5626 55.7002 96.9993 55.9738C97.4363 56.2472 97.7382 56.3485 97.4125 56.7229C97.0868 57.0976 97.913 56.9369 97.4443 57.4661C96.9755 57.9954 96.8485 58.2629 96.8326 58.6909C96.8167 59.1191 96.936 59.1843 96.5149 59.226C96.0938 59.2676 96.5864 59.7372 96.3956 60.2961C96.2051 60.8551 95.0293 60.7957 95.077 62.2938C95.077 62.2938 95.4026 61.5625 96.1017 60.9203C96.8008 60.2782 96.8247 60.2187 96.8088 59.8322C96.7929 59.4456 96.7611 59.5349 97.1345 59.2435C97.5078 58.9522 96.9677 58.6788 97.3409 58.2625C97.7143 57.8462 97.3886 57.9295 97.8256 57.5073C98.2626 57.0852 97.4443 57.0317 97.8892 56.5976C98.3341 56.1636 96.8167 55.6701 97.2537 55.3906C97.6907 55.1112 98.4452 54.7248 95.9032 54.7664C95.9032 54.7664 96.5149 53.7557 98.6598 53.9757C98.6598 53.9757 98.0958 54.374 98.0482 54.7664C98.0482 54.7664 98.2944 54.8913 98.4454 54.9269C98.4454 54.9269 98.3624 55.2145 97.953 55.563C97.953 55.563 99.089 56.1991 99.2717 56.5738C99.2717 56.5738 98.5805 56.7878 98.4059 57.0911C98.4059 57.0911 98.7077 57.436 98.811 57.8818C98.811 57.8818 98.0404 57.7866 97.9373 58.3633C97.834 58.94 97.6036 58.5476 97.6036 58.8865C97.6036 59.2253 97.6275 59.3621 97.3574 59.4157C97.0874 59.4692 97.3097 59.7546 97.3574 59.9449C97.4051 60.1353 97.4926 60.5691 97.4528 60.7059C97.4528 60.7059 97.0636 60.7118 96.8809 60.7653C96.8809 60.7653 97.0002 61.5918 96.5393 61.7106C96.0785 61.8294 96.7856 61.9959 96.2931 62.0853C95.8005 62.1744 95.8641 62.2041 95.2604 63.2864C95.2604 63.2864 95.7767 62.995 96.309 62.6442C96.8412 62.2934 96.2693 62.4005 97.151 61.5324C98.0327 60.6643 97.8739 60.5988 97.8024 60.1589C97.7308 59.719 97.7149 59.3621 98.0327 58.9461C98.3504 58.5298 98.4538 58.0541 99.5817 58.1138C99.5817 58.1138 99.248 57.3632 98.8349 57.1678C98.8349 57.1678 99.375 56.7938 99.9471 56.7405C99.9471 56.7405 99.4465 56.1399 98.422 55.5574C98.422 55.5574 99.2639 54.8319 99.4626 54.4872C99.4626 54.4872 99.0734 54.5466 98.7636 54.4753C98.7636 54.4753 98.9096 54.1282 99.6691 53.631C99.6691 53.631 100.074 54.0234 100.058 54.4336C100.058 54.4336 101.361 53.6846 102.1 53.7678C102.1 53.7678 102.473 54.7072 100.662 56.4671C100.662 56.4671 101.782 56.5742 102.259 56.5087C102.259 56.5087 101.989 57.3768 100.63 57.888C99.2719 58.3993 100.924 58.9969 99.534 58.893C98.144 58.789 98.5728 59.2676 98.6125 59.975C98.6523 60.6825 98.7 61.4079 98.6682 61.6042C98.6682 61.6042 97.556 61.2414 97.5798 62.3177C97.6037 63.3939 97.0079 63.6198 96.8887 63.7208C96.8887 63.7208 96.5659 63.4324 96.0783 63.263C96.0773 63.264 95.3874 64.5739 94.2739 65.3391Z" fill="#784B26"/>
<path d="M92.679 51.8489C92.679 51.8489 93.0603 51.7865 93.7038 52.1877C94.3472 52.5889 94.9787 51.7597 94.2638 51.5455C93.5488 51.3313 94.2757 51.0818 94.9191 51.5991C95.5626 52.1164 95.8127 51.8576 96.0512 51.6794C96.2897 51.5012 96.5754 51.4029 96.1347 51.0998C95.6937 50.7965 96.4325 50.9393 96.7662 51.1533C97.0998 51.3673 96.9687 51.5903 96.9212 51.6529C96.8737 51.7154 96.8377 52.4109 97.4931 51.76C98.1485 51.109 98.4702 50.4578 98.4583 50.1367C98.4583 50.1367 98.8157 50.3597 98.8634 50.7699C98.9111 51.1801 99.4115 50.5469 99.5784 50.3239C99.7451 50.1009 100.031 49.5382 99.9955 49.1151C99.9955 49.1151 100.436 49.797 101.092 49.1151C101.747 48.4331 101.461 48.8613 102.248 48.6561C103.034 48.4509 104.023 47.8713 104.559 47.2203C105.096 46.5693 105.131 47.0063 105.822 46.8457C106.514 46.6852 107.908 45.7219 108.039 45.1956C108.17 44.6695 108.146 44.3485 107.943 44.5267C107.741 44.7049 107.824 44.5624 107.526 44.375C107.228 44.1878 106.787 44.6158 106.787 44.6158C106.787 44.6158 107.228 44.9547 106.895 45.0973C106.561 45.24 106.239 45.7127 105.608 45.5343C104.976 45.3559 104.321 46.1139 104.321 46.1139C104.321 46.1139 104.869 46.5687 104.13 46.8542C103.392 47.1396 103.511 47.2377 103.058 46.9256C103.058 46.9256 102.271 47.9244 101.819 48.1296C101.819 48.1296 101.604 48.1118 101.461 47.9244C101.461 47.9244 100.949 48.504 100.687 48.6201C100.687 48.6201 100.365 48.308 100.067 48.2099C100.067 48.2099 99.4475 48.977 98.923 49.2178C98.923 49.2178 98.768 48.9324 98.4344 48.7362C98.4344 48.7362 98.2696 49.7395 97.1714 50.3327C97.1714 50.3327 97.2429 50.0652 96.6946 49.6995C96.6946 49.6995 95.3362 50.8768 94.8001 50.9927C94.264 51.1086 94.7643 50.7429 94.8359 50.5913C94.9074 50.4396 95.241 49.9403 94.5857 49.7351C93.9303 49.5299 94.0376 49.8777 93.8945 49.9403C93.7515 50.0026 93.7395 49.8244 93.2988 49.8867C92.8578 49.9491 92.9294 50.1453 92.7388 50.2168C92.5483 50.2882 91.7856 50.0919 91.8213 50.6003C91.8571 51.1086 92.2146 51.4564 91.5473 51.7507C90.8796 52.0451 91.7973 51.9827 92.679 51.8489Z" fill="#AD7D5A"/>
<path d="M95.4313 50.414C95.4313 50.414 95.5863 49.7718 95.0261 49.4598C95.0261 49.4598 98.6247 48.9069 95.9078 47.5334C95.9078 47.5334 99.137 46.8644 98.3745 45.83C97.6118 44.7954 96.8705 45.0274 96.7586 45.0452C96.6466 45.063 97.4451 44.4476 97.6595 44.5279C97.8739 44.6082 100.472 45.6071 99.8044 44.7509C99.1372 43.8947 99.1968 43.9482 99.0895 43.6985C99.0895 43.6985 99.9473 43.6985 101.246 44.9649C101.246 44.9649 101.52 44.6795 101.485 44.1622C101.485 44.1622 102.414 44.4208 102.7 44.6973C102.7 44.6973 102.855 44.3762 102.795 44.1978C102.795 44.1978 103.594 44.6258 103.868 45.0808C103.868 45.0808 104.237 44.7597 104.297 44.394C104.297 44.394 105.095 44.7241 105.298 44.9737C105.298 44.9737 105.56 44.6258 105.464 44.1265C105.464 44.1265 106.787 44.5189 106.966 43.6985C106.966 43.6985 108.296 43.9869 107.432 44.5049C106.32 45.1707 107.319 44.3407 106.179 45.1343C105.295 45.7497 104.801 46.472 104.376 46.3235C104.064 46.2143 103.689 47.1232 103.26 46.6772C102.831 46.2313 102.831 46.4365 102.533 46.9002C102.235 47.364 101.77 47.8367 101.77 47.8367C101.77 47.8367 101.538 47.7028 101.362 47.5246C101.362 47.5246 101.103 47.9526 100.769 48.2737C100.769 48.2737 100.507 47.9258 100.09 47.7118C100.09 47.7118 99.4346 48.4699 99.0294 48.7285C99.0294 48.7285 98.6481 48.3538 98.2429 48.2289C98.2429 48.2289 98.1833 49.2545 97.3851 49.7808C97.3851 49.7808 97.2183 49.442 96.7059 49.2368C96.7063 49.2368 96.3011 49.8852 95.4313 50.414Z" fill="#784B26"/>
<path d="M93.5427 48.8427C93.5427 48.8427 93.1055 49.1787 93.3877 49.5385C93.6699 49.898 93.6856 49.4761 94.0431 49.4403C94.4006 49.4046 98.8095 48.6465 94.8177 47.4515C94.8177 47.4515 94.9844 47.2998 95.6755 47.2375C96.3667 47.1751 98.8689 46.4972 97.7012 45.6054C96.5336 44.7135 95.5624 45.9085 96.5453 44.8384C97.3318 43.9822 96.7003 43.563 96.7003 43.563C96.7003 43.563 94.3767 45.1149 93.8644 45.4002C93.3521 45.6855 92.6133 46.2296 93.4831 46.515C94.3529 46.8003 94.9488 45.5697 95.0321 45.846C95.1155 46.1225 93.2804 47.1391 93.5427 47.6119C93.8048 48.0846 93.7452 48.4771 94.1981 48.3877C94.651 48.2986 95.8782 48.6197 94.8773 48.584C93.8764 48.5482 93.5427 48.8427 93.5427 48.8427Z" fill="#784B26"/>
<path d="M95.1376 46.6224C95.1376 46.6224 94.7324 46.9071 95.2688 46.7644C95.8049 46.6218 96.8774 46.3898 96.6749 46.1135C96.472 45.8369 95.7572 46.1683 95.1376 46.6224Z" fill="black"/>
<path d="M102.214 42.0213C102.214 42.0213 104.264 41.9678 105.11 42.5386C105.956 43.1095 106.361 43.4839 106.611 43.5642C106.611 43.5642 106.575 44.3401 105.265 43.7872C105.265 43.7872 105.336 44.1619 105.193 44.5275C105.193 44.5275 104.704 44.2064 104.144 44.0638C104.144 44.0638 104.049 44.3581 103.87 44.5275C103.87 44.5275 103.287 43.9389 102.631 43.7604C102.631 43.7604 102.5 44.0548 102.381 44.1619C102.381 44.1619 101.678 43.7604 101.142 43.7694C101.142 43.7694 101.249 44.1976 101.142 44.3671C101.142 44.3671 99.6523 43.1988 98.3296 43.3504C98.3296 43.3504 98.9731 44.287 99.3902 44.7507C99.3902 44.7507 96.7091 44.5367 97.1501 43.0919C97.591 41.6471 97.1143 42.01 98.866 42.0203C100.618 42.0305 102.214 42.0213 102.214 42.0213Z" fill="#AD7D5A"/>
<path d="M89.6472 46.0132C89.6472 46.0132 89.3374 46.2657 89.6472 46.4799C89.957 46.6939 91.0176 45.927 91.1604 45.8199C91.3035 45.7128 91.6846 45.7308 91.1604 46.1232C90.6362 46.5157 90.0999 46.9436 89.7662 47.3718C89.7662 47.3718 91.5418 46.8903 92.6975 45.8915C93.8532 44.8926 92.6437 45.5396 94.6159 44.5893C96.588 43.639 97.6187 42.1099 96.5581 42.2705C95.4976 42.431 94.5443 43.644 93.7223 44.1078C92.9002 44.5715 92.4354 44.6339 92.5663 44.3663C92.6975 44.0988 93.3052 44.2059 94.437 43.2961C95.5691 42.3864 95.3187 42.449 95.3307 42.1279C95.3426 41.8068 94.9016 41.0131 96.6056 40.1212C98.3096 39.2292 103.612 36.1256 104.065 35.0645C104.065 35.0645 102.516 35.2339 100.478 36.741C98.4406 38.2482 97.3497 38.9529 96.787 39.1401C96.2243 39.3274 96.2958 39.2025 95.9264 39.6397C95.557 40.0766 93.5432 42.021 93.1738 42.3063C92.8044 42.5916 92.6971 42.7791 92.6655 43.3608C92.6517 43.6258 90.3503 45.3593 89.6472 46.0132Z" fill="#784B26"/>
<path d="M96.6519 41.9704C96.6519 41.9704 96.2586 42.153 95.8773 41.9704C95.496 41.7878 95.6152 40.9672 96.5327 40.4766C97.4501 39.9861 99.1184 39.2548 99.9645 39.1477C99.9645 39.1477 99.8453 40.2091 97.2119 41.1008C97.2119 41.1008 97.3788 41.6535 96.6519 41.9704Z" fill="#784B26"/>
<path d="M97.5817 41.2809C97.5817 41.2809 97.6582 41.5419 97.5817 41.7804C97.5817 41.7804 102.479 42.2531 105.005 39.2742C105.005 39.2742 101.538 39.5953 100.156 40.4247C100.156 40.4247 101.025 39.3365 103.623 38.4358C106.221 37.5351 107.281 36.4201 107.508 35.8049C107.508 35.8049 104.223 36.9554 102.658 36.9554C102.658 36.9554 102.348 36.9464 102.05 37.1159C101.753 37.2853 99.6553 38.8104 99.0953 39.069C99.0953 39.069 100.275 38.9709 100.692 38.5875C100.692 38.5875 99.872 40.792 97.5817 41.2809Z" fill="#AD7D5A"/>
<path d="M88.206 44.0784C88.206 44.0784 87.5745 44.5243 87.8366 44.7473C88.0987 44.9703 88.5501 45.0149 89.5101 44.2122C90.47 43.4096 92.7936 41.4117 91.3253 41.3316C91.3253 41.3316 89.4452 41.2157 89.5101 42.3662C89.5757 43.528 88.3004 44.0054 88.206 44.0784ZM83.8687 43.4004C83.8687 43.4004 85.1078 44.1227 84.6433 44.7203C84.6433 44.7203 88.4445 41.4918 87.372 40.7961C86.2995 40.1004 85.4536 41.4115 85.7157 41.5452C85.9778 41.6791 86.5378 41.4293 86.3353 41.6791C86.1328 41.9288 84.1071 43.2935 83.8687 43.4004ZM82.8796 42.357C82.8796 42.357 83.7136 42.6068 83.7494 42.9634C83.7852 43.3201 86.2636 41.2153 85.6082 40.3326C85.3076 39.9278 83.9281 39.7617 83.8684 40.5555C83.8088 41.3494 85.1076 40.4752 84.655 41.0461C84.0613 41.7945 83.0585 42.2321 82.8796 42.357ZM91.7995 40.5982C91.7995 40.5982 91.2684 40.9835 91.7452 41.2155C92.2219 41.4475 92.5317 41.0816 92.7699 40.8676C93.0082 40.6536 94.188 39.7885 94.462 39.2356C94.736 38.6827 95.1412 38.5133 95.5702 38.2278C95.9993 37.9425 99.0259 36.4351 100.885 34.7673C102.743 33.0995 101.969 33.5277 103.899 32.4573C105.83 31.3871 107.093 30.4061 107.498 29.2466C107.498 29.2466 106.604 29.5409 105.818 30.0492C105.031 30.5575 103.256 31.6725 102.898 31.8239C102.541 31.9753 102.041 32.0023 101.778 32.2787C101.516 32.5552 101.54 32.8851 100.61 33.6521C99.6811 34.4192 94.8789 37.8082 94.2951 38.2897C93.7112 38.7719 91.7995 40.5982 91.7995 40.5982Z" fill="#784B26"/>
<path d="M87.9294 41.7219C87.9294 41.7219 88.4536 41.4329 89.4387 41.5002C90.4237 41.5674 94.3162 37.7979 95.4443 37.0369C96.5724 36.2759 100.099 33.731 100.576 33.2673C101.053 32.8035 101.132 32.304 101.545 32.0306C101.958 31.7572 102.34 31.7928 103.293 31.2457C104.246 30.6987 108.822 27.9637 108.552 26.3704C108.552 26.3704 101.736 30.4609 100.163 31.7928C98.5901 33.1246 94.221 36.145 93.4424 36.6326C92.6638 37.1202 92.0442 37.9644 90.7415 39.0227C89.4387 40.0809 88.152 40.9727 87.9294 41.7219Z" fill="#AD7D5A"/>
<path d="M86.5027 40.273C86.5027 40.273 87.764 40.1439 87.9326 40.7606C87.9326 40.7606 90.6336 38.9056 91.2532 38.1446C91.8728 37.3836 91.0467 37.8235 92.5878 36.8127C94.1288 35.8019 99.2447 32.2226 99.9756 31.5805C100.706 30.9383 102.089 30.094 103.201 29.3449C104.313 28.5959 108.666 26.4672 108.174 24.7191C108.174 24.7191 104.98 26.8595 104.265 27.3234C103.55 27.7872 103.248 27.5255 102.518 28.0963C101.787 28.6672 100.182 29.8087 99.8961 30.1654C99.6102 30.522 97.1634 32.4009 95.9719 33.1976C94.7804 33.9944 92.1112 35.5403 90.8242 36.6581C89.5371 37.7758 87.0428 39.845 86.5027 40.273Z" fill="#AD7D5A"/>
<path d="M82.5691 39.9052C82.5691 39.9052 83.2073 39.9144 83.3979 40.1642C83.3979 40.1642 84.5776 39.1294 85.8327 40.1521C85.8327 40.1521 90.4402 37.0365 90.901 36.2517C91.3618 35.4668 92.1084 35.4549 93.9038 34.1469C95.6992 32.8389 96.8271 32.2919 98.0188 31.3644C99.2103 30.4369 100.211 29.3903 101.069 28.8316C101.927 28.2727 104.088 26.8576 103.723 25.6328C103.723 25.6328 101.975 26.6317 100.831 27.8803C99.6872 29.1289 99.7824 28.0587 98.6227 29.105C97.4628 30.1515 95.6676 31.5784 94.174 32.3157C92.6805 33.0531 93.5862 32.9698 92.5058 33.6595C91.4254 34.3492 91.5049 34.2423 91.1076 34.3373C90.7104 34.4324 90.1067 34.7178 89.7095 35.1815C89.3123 35.6453 88.2477 36.2755 87.088 36.9296C85.9281 37.5835 83.0764 39.281 82.5691 39.9052Z" fill="#AD7D5A"/>
<path d="M83.9582 37.5154C83.9582 37.5154 83.708 36.9981 84.1487 36.6325C84.5897 36.2668 85.3879 35.3035 85.5191 34.6971C85.6502 34.0907 85.5548 34.1888 86.8298 33.6625C88.1048 33.1364 91.0003 31.7807 92.6329 30.7729C94.2654 29.765 96.7439 28.142 97.2562 27.7496C97.7685 27.3572 99.0119 26.4832 99.5162 26.073C99.5162 26.073 99.7585 26.7597 99.2104 27.2325C98.6623 27.7052 96.5532 29.1856 96.2076 29.4176C95.862 29.6496 93.9198 30.9515 93.324 31.2816C92.7283 31.6117 91.2506 32.3608 90.7264 32.7978C90.2022 33.2347 90.2696 33.3686 87.9301 34.5101C85.5906 35.6516 85.4833 35.7677 85.5549 35.8568C85.6264 35.9459 86.675 35.4912 87.1754 35.1968C87.6759 34.9025 89.5943 34.0286 90.1662 33.5736C90.7381 33.1188 91.7033 32.4053 92.1204 32.1733C92.5375 31.9414 95.993 29.8724 96.982 29.1411C97.971 28.4098 98.245 28.169 98.4596 28.2939C98.6741 28.4188 99.0196 28.4277 98.5789 28.8467C98.1379 29.2659 96.732 30.4968 96.1957 30.8534C95.6595 31.2101 93.9794 32.2091 93.5146 32.4499C93.0498 32.6906 92.8712 33.1366 92.6091 33.3238C92.347 33.5111 91.5843 34.0551 90.6549 34.2691C89.7255 34.4831 89.5586 35.1789 88.9509 35.5713C88.3432 35.9637 84.0186 38.2915 83.8875 38.4074C83.8875 38.4074 84.149 38.1396 83.9582 37.5154Z" fill="#AD7D5A"/>
<path d="M98.9265 27.8042C98.9265 27.8042 98.6882 28.0153 98.8191 28.1343C98.9921 28.2912 99.5937 28.714 100.344 27.9693C101.095 27.2246 103.112 25.6014 103.766 25.2179C104.42 24.8345 104.729 24.4688 104.706 23.9425C104.706 23.9425 101.608 25.5926 98.9265 27.8042ZM103.192 27.5189C103.192 27.5189 103.669 26.7251 104.837 25.976C106.004 25.2269 107.757 24.1362 107.994 23.8712C107.994 23.8712 108.411 24.344 107.494 24.9236C106.576 25.5032 104.789 26.6895 104.575 26.8589C104.36 27.0284 104.003 27.2869 103.192 27.5189Z" fill="#AD7D5A"/>
<path d="M79.4445 36.1597C79.4445 36.1597 78.1457 36.8554 78.6105 37.2924C79.0753 37.7294 79.7664 37.5957 80.0524 37.4708C80.3383 37.3459 80.8864 37.2123 80.9698 37.1855C81.0533 37.1587 82.1852 36.8376 82.4711 36.3115C82.7571 35.7854 83.5198 35.1788 84.1274 34.7418C84.7351 34.3049 84.9495 33.8679 84.8663 33.5558C84.8661 33.5556 79.7512 35.9718 79.4445 36.1597ZM71.723 42.1619C71.723 42.1619 72.6204 41.6283 73.8799 41.9657C73.8799 41.9657 73.8203 41.6588 73.6297 41.5001C73.6297 41.5001 75.1548 41.1005 75.4885 40.4228C75.8221 39.745 75.8936 39.8877 76.1915 39.6915C76.4894 39.4953 78.5509 37.8365 78.3126 37.4796C78.0744 37.1227 78.0267 36.6592 77.8478 36.4718C77.8478 36.4718 77.4188 37.0604 75.4169 38.0325C73.4151 39.0045 71.1869 39.7358 69.5663 41.9209C67.9458 44.106 68.1125 45.3724 70.0906 45.9253C70.0906 45.9253 71.4847 45.0513 74.8808 45.3544C78.2768 45.6578 79.4326 46.9329 79.6472 47.1649C79.8616 47.3969 80.5527 48.2351 79.8854 49.6531C79.8854 49.6531 80.5647 49.9474 80.6243 49.2965C80.6839 48.6455 80.7197 48.7969 80.8745 48.895C81.0295 48.9931 81.22 49.0109 81.1485 48.5116C81.0769 48.0121 80.8387 46.8974 80.5289 46.5139C80.2191 46.1305 80.5647 46.2999 80.7671 46.3801C80.9696 46.4604 81.6846 47.04 81.2558 45.9698C80.8268 44.8997 80.7197 45.4258 80.7077 45.4793C80.6958 45.5329 80.6124 45.8004 79.683 45.1047C78.7536 44.4089 77.9074 44.0701 77.2759 43.8918C76.6444 43.7136 77.0854 43.7134 77.4546 43.5797C77.824 43.4459 78.3243 43.3658 78.4913 42.9556C78.4913 42.9556 78.1218 43.0447 77.4426 42.8039C76.7634 42.5631 75.405 42.5364 74.3087 43.3568C74.3087 43.3568 74.6543 42.0904 73.6533 42.1617C72.6524 42.233 71.9493 42.2063 70.8888 43.0447C70.8888 43.0447 70.8292 41.7693 71.8301 41.1093C72.831 40.4494 72.6999 40.8508 73.2601 40.6813C73.8202 40.5119 73.8677 39.95 73.6295 39.7716C73.6295 39.7716 74.9402 39.9946 77.1446 38.1663C77.1446 38.1663 75.9602 39.7183 74.5206 40.0304C74.5206 40.0304 74.2926 40.8564 72.9858 41.0382C71.6793 41.22 71.7111 41.9747 71.723 42.1619Z" fill="#AD7D5A"/>
<path d="M67.9599 49.7218C67.9599 49.7218 68.6029 45.8787 72.2019 45.6005C75.3555 45.3568 76.3565 45.7492 76.9842 45.9513C77.612 46.1534 79.1448 46.6054 78.5491 47.0989C77.9533 47.5923 77.6117 47.5032 77.6117 47.5032C77.6117 47.5032 78.3029 46.7361 77.6753 46.6054C77.0478 46.4747 76.9922 46.8552 76.9047 47.1763C76.8173 47.4973 76.7775 47.8837 76.4677 48.1335C76.4677 48.1335 76.15 47.7649 75.6971 48.086C75.2442 48.4071 75.6335 48.419 75.8163 48.3654C75.999 48.3119 76.2374 48.2167 76.1897 48.4962C76.142 48.7757 75.8879 49.2572 75.1411 49.6496C74.3943 50.042 74.4341 50.0182 73.5444 50.1608C72.6548 50.3035 71.8285 50.6543 70.6927 51.6295C69.5566 52.6045 68.3134 52.2792 68.0633 51.1896C67.8488 50.2552 67.9599 49.7218 67.9599 49.7218Z" fill="#784B26"/>
<path d="M72.084 49.6005C72.084 49.6005 72.4296 48.8425 71.81 48.4946C71.81 48.4946 69.9152 48.8195 69.3552 48.2448C69.3552 48.2448 71.4167 48.1377 72.6917 47.6384C73.9666 47.1389 73.5853 46.7912 73.1445 46.7109C72.7036 46.6306 71.8934 46.8268 71.81 47.2282C71.81 47.2282 71.5598 46.8002 71.8815 46.5147C72.2032 46.2292 72.7038 46.1758 73.1565 46.3095C73.6093 46.4434 74.0143 46.6396 75.5039 45.8635C75.5039 45.8635 76.3617 46.0597 76.3856 46.6394C76.4094 47.219 76.326 47.4598 76.2544 47.5491C76.1829 47.6382 76.0758 47.8077 75.8969 47.7899C75.7183 47.7721 75.4918 47.7275 75.2654 48.1287C75.0391 48.5302 74.9031 48.8778 74.5243 49.1454C74.5243 49.1454 74.9676 47.8968 73.8712 47.6024C73.8712 47.6024 72.9657 48.1375 72.2746 48.1643C72.2746 48.1647 73.1565 48.9851 72.084 49.6005Z" fill="black"/>
<path d="M74.0588 47.309C74.0588 47.309 73.6417 46.8497 74.19 46.8007C74.738 46.7518 75.4649 47.153 75.322 47.4918C75.179 47.8307 74.5355 47.8173 74.0588 47.309Z" fill="#784B26"/>
<path d="M105.031 41.2179C105.031 41.2179 104.03 41.5033 104.96 42.1187C105.889 42.7341 106.342 43.2692 107.021 43.4476C107.7 43.626 108.403 43.8756 108.391 44.5535C108.379 45.2313 108.248 45.4988 107.879 45.9626C107.51 46.4263 108.082 46.6316 108.57 46.364C109.059 46.0965 109.476 45.9538 109.797 45.7664C110.119 45.579 110.655 45.6059 110.167 45.8555C109.678 46.1053 109.166 46.2569 109.797 46.2747C110.429 46.2925 114.23 46.3638 115.028 46.1053C115.827 45.8467 116.863 45.7664 116.959 44.7318C116.959 44.7318 116.995 44.2724 117.292 44.0808C117.59 43.889 117.793 43.4476 117.358 43.7463C116.923 44.045 116.589 44.1967 116.506 44.1076C116.422 44.0185 116.399 43.9559 116.714 43.8089C117.03 43.6618 117.209 43.7999 117.501 43.3675C117.793 42.9349 117.764 43.0062 117.609 42.8414C117.453 42.6764 117.126 42.5561 117.287 42.3465C117.447 42.1369 117.608 41.5127 116.911 41.8783C116.214 42.244 114.842 43.1863 114.206 43.3351C113.571 43.4838 113.086 43.6771 112.228 43.8509C111.37 44.0247 110.838 44.209 109.925 44.7144C109.011 45.2198 109.075 44.4354 109.233 44.328C109.233 44.328 109.583 44.9403 110.512 44.1436C111.442 43.3468 111.139 44.0938 113.412 43.3468C115.684 42.5998 115.128 42.4787 116.017 42.0149C116.907 41.5512 117.749 41.5334 117.13 40.915C116.51 40.2967 116.439 40.2432 115.636 40.915C114.834 41.5869 112.618 42.669 111.291 42.6987C111.291 42.6987 116.415 40.4869 115.89 40.166C115.366 39.8449 114.802 39.5596 114.445 39.4822C114.087 39.4048 113.992 39.3157 113.166 39.6842C112.34 40.0528 112.204 40.1421 111.966 40.1658C111.728 40.1894 111.037 40.3262 110.06 40.8316C109.083 41.337 108.558 41.539 107.907 41.9375C107.907 41.9375 108.36 41.0219 110.378 40.4155C112.395 39.8091 113.428 39.2502 113.205 39.1491C112.983 39.0481 112.482 38.9649 112.101 39.0243C111.72 39.0837 111.831 38.9946 110.6 39.4822C109.369 39.9698 109.893 39.8627 108.9 40.0767C107.907 40.2906 107.502 40.5107 107.009 40.7188C107.009 40.7188 107.21 40.4511 107.879 40.2059C108.223 40.0802 107.503 39.9505 108.457 39.9118C108.535 39.9087 108.63 39.9313 108.725 39.9043C109.958 39.5506 111.307 39.0659 111.1 39.0303C110.894 38.9946 109.694 38.8699 108.479 39.4286C107.263 39.9875 107.819 39.7972 107.39 39.8865C106.961 39.9756 106.056 40.5465 105.754 40.7902C105.452 41.0337 105.031 41.2179 105.031 41.2179Z" fill="white"/>
<path d="M75.0163 46.7544C75.0163 46.7544 75.493 46.8971 75.6121 47.2315C75.7311 47.566 76.0292 47.0845 76.0173 46.9328C76.0053 46.7812 75.7133 46.1124 75.195 46.4245C74.6766 46.7366 74.9366 46.7255 75.0163 46.7544Z" fill="#784B26"/>
<path d="M73.6896 53.365C73.6896 53.365 74.7068 52.8866 75.5603 52.9458C75.5603 52.9458 75.2266 51.7417 75.8224 51.9469C76.4181 52.1521 76.2514 52.0718 76.3704 52.0628C76.3704 52.0628 76.4062 51.269 76.2512 50.9569C76.2512 50.9569 76.8589 51.0995 77.4784 51.1085C77.4784 51.1085 76.8946 49.967 77.5381 49.1822C77.5381 49.1822 77.8914 49.9312 78.6858 50.1187C78.6858 50.1187 78.6896 49.7976 78.6858 49.4587C78.6858 49.4587 79.1586 49.4052 79.528 49.6014C79.8974 49.7976 80.2072 47.5324 79.1109 47.0328C79.1109 47.0328 78.8488 47.4608 77.824 47.675C76.7992 47.889 76.8076 48.0949 76.3863 48.8661C75.965 49.6374 75.5958 49.6461 74.7378 50.199C73.8799 50.7519 73.3584 51.8756 73.3093 51.9737C73.3097 51.9737 73.7611 52.5266 73.6896 53.365Z" fill="#AD7D5A"/>
<path d="M107.878 40.2059C108.251 40.1407 107.502 39.9505 108.456 39.9118C108.534 39.9087 108.629 39.9313 108.724 39.9043C109.957 39.5506 111.306 39.0659 111.099 39.0303C110.893 38.9946 109.693 38.8699 108.478 39.4286C107.262 39.9875 107.818 39.7972 107.389 39.8865C106.96 39.9756 106.055 40.5465 105.753 40.7902C105.451 41.0339 105.03 41.2182 105.03 41.2182C105.03 41.2182 104.029 41.5035 104.959 42.1189C105.888 42.7343 106.341 43.2694 107.02 43.4478C107.699 43.6262 108.402 43.8758 108.39 44.5538C108.378 45.2315 108.247 45.499 107.878 45.9628C107.509 46.4266 108.081 46.6318 108.569 46.3642C109.058 46.0967 109.475 45.954 109.796 45.7666C110.118 45.5792 110.654 45.6061 110.166 45.8557C109.677 46.1055 109.165 46.2571 109.796 46.2749C110.428 46.2927 114.229 46.364 115.027 46.1055C115.826 45.8469 116.862 45.7666 116.958 44.732C116.958 44.732 116.994 44.2726 117.291 44.081C117.589 43.8892 117.792 43.4478 117.357 43.7465C116.922 44.0452 116.588 44.1969 116.505 44.1078C116.421 44.0187 116.398 43.9561 116.713 43.8091C117.029 43.662 117.208 43.8001 117.5 43.3677C117.792 42.9351 117.763 43.0064 117.608 42.8416C117.528 42.7569 117.403 42.6841 117.322 42.6048C117.322 42.6048 117.093 42.4046 116.827 42.5741C116.561 42.7435 115.393 43.237 114.924 43.2934C114.456 43.3499 113.971 43.5491 113.129 43.9593C112.287 44.3695 110.889 45.2049 110.666 44.4289C110.666 44.4289 110.056 44.6464 109.923 44.7142C108.984 45.1928 109.066 44.5136 109.232 44.3278C109.232 44.3278 108.74 44.8807 108.76 44.3783C108.779 43.8758 109.097 43.962 109.645 43.8015C110.193 43.6411 111.059 43.2842 110.702 42.987C110.344 42.6897 109.967 43.2821 109.57 43.4631C109.172 43.644 108.378 43.8045 108.255 43.2278C108.132 42.651 108.136 42.2496 107.06 42.1873C105.983 42.125 106.023 41.4531 106.317 41.1646C106.611 40.8761 106.869 40.3827 107.878 40.2059Z" fill="#CCCCCC"/>
<path d="M111.296 45.4203C111.296 45.4203 112.972 44.6474 114.513 44.2847C116.054 43.9219 114.846 44.3322 114.584 44.4154C114.322 44.4987 111.923 45.2894 111.359 45.5511C110.795 45.8127 110.911 45.5889 111.296 45.4203ZM111.685 45.7592C111.685 45.7592 113.567 45.135 113.917 45.3965C114.267 45.6582 113.981 45.5272 113.567 45.5868C113.154 45.6462 112.018 45.8366 111.717 45.8305C111.415 45.8247 111.685 45.7592 111.685 45.7592ZM114.703 45.1053C114.703 45.1053 115.061 45.0398 115.101 45.1708C115.14 45.3015 114.942 45.3195 114.743 45.2956C114.545 45.2718 114.37 45.1586 114.703 45.1053Z" fill="black"/>
<path d="M64.9807 61.5092C64.9807 61.5092 64.9104 59.8563 65.7444 59.0179C66.5784 58.1795 70.6299 53.9634 71.2495 52.7849C71.2495 52.7849 71.7737 53.1493 71.7975 53.8182C71.7975 53.8182 72.4767 52.6485 73.0128 52.2078C73.0128 52.2078 73.4896 52.6945 73.4061 53.6666C73.4061 53.6666 74.3832 53.1493 75.8966 53.1405C75.8966 53.1405 75.3366 53.8005 75.3128 54.1839C75.3128 54.1839 77.41 53.9519 78.5061 54.1303C78.5061 54.1303 75.6226 55.7446 76.4327 55.8873C77.2429 56.0299 78.089 55.8783 78.089 55.8783C78.089 55.8783 77.1716 56.8148 75.7058 57.002C75.7058 57.002 77.5646 56.9752 77.934 57.3944C77.934 57.3944 76.1227 57.6709 74.6691 58.7767C74.6691 58.7767 74.5334 58.7143 74.5238 58.3039C74.5238 58.3039 74.4786 58.6696 74.0615 59.0174C73.6444 59.3653 72.6434 60.1056 72.274 60.48C71.9046 60.8547 71.2135 61.5948 70.4746 61.5592C70.4746 61.5592 70.6414 60.9883 70.0933 60.8101C69.5452 60.6317 68.9137 60.7566 68.4728 61.2293C68.4728 61.2293 66.5186 61.2561 65.899 61.3452C65.899 61.3452 66.34 60.6407 66.7449 60.6585C67.1501 60.6762 68.7826 60.8992 68.9254 59.7845C69.0685 58.6698 67.8768 58.9641 68.3297 58.3041C68.7826 57.6442 68.6753 57.6709 68.6872 57.6084C68.6872 57.6084 68.3178 57.8136 68.1034 58.4022C67.889 58.9909 67.7339 59.4456 66.9594 60.0343C66.1848 60.6229 65.8641 60.9793 65.6497 61.3896C65.6501 61.39 65.2968 61.4391 64.9807 61.5092Z" fill="white"/>
<path d="M66.8533 60.5097C66.8533 60.5097 66.9169 60.2838 67.4888 60.1886C68.0607 60.0934 68.0845 59.82 68.013 59.701C67.9414 59.582 67.5998 59.5822 68.156 58.9519C68.156 58.9519 68.3546 59.0055 68.4897 59.16C68.6248 59.3146 69.2522 60.6584 66.8533 60.5097Z" fill="white"/>
<path d="M65.4857 59.3428C65.5154 60.4441 66.9587 60.0349 66.9587 60.0349C66.4445 60.4257 66.1302 60.7141 65.9143 60.984C66.0097 60.4489 65.1003 60.315 65.1003 60.315C65.1752 59.9879 65.2949 59.6417 65.4857 59.3428ZM70.7928 53.4568C71.0018 53.1834 71.1601 52.9535 71.2486 52.7851C71.2486 52.7851 71.7728 53.1495 71.7966 53.8185C71.7966 53.8185 72.4759 52.6488 73.012 52.208C73.012 52.208 73.4887 52.6948 73.4053 53.6668C73.4053 53.6668 74.3823 53.1495 75.8955 53.1407C75.8955 53.1407 75.3356 53.8007 75.3117 54.1841C75.3117 54.1841 77.409 53.9522 78.5051 54.1306C78.5051 54.1306 75.6215 55.7448 76.4317 55.8875C77.2421 56.0302 78.088 55.8785 78.088 55.8785C78.088 55.8785 77.1705 56.815 75.7048 57.0022C75.7048 57.0022 77.5636 56.9755 77.933 57.3947C77.933 57.3947 77.4037 57.4754 76.6879 57.7243C76.6879 57.7243 76.1535 57.2223 74.6045 57.2936C74.6045 57.2936 75.8094 56.6194 76.7651 56.4017C76.7651 56.4017 76.344 55.8488 75.6847 56.3542C75.6847 56.3542 74.374 55.4505 75.4544 54.6835C75.4544 54.6835 74.6917 54.523 74.1914 54.8797C74.1914 54.8797 74.2152 54.2613 74.7712 53.9819C74.7712 53.9819 73.3015 53.744 72.9363 54.8261C72.9363 54.8261 72.6583 54.3801 72.7852 53.8748C72.7852 53.8748 71.8956 54.3864 71.4904 54.9661C71.4908 54.9663 71.3567 53.867 70.7928 53.4568ZM67.9446 60.4468C67.6808 60.5117 67.3277 60.5395 66.8596 60.5104C66.8596 60.5104 66.8997 60.368 67.2024 60.2617C67.2024 60.2617 67.2892 60.4424 67.9446 60.4468Z" fill="#CCCCCC"/>
<path d="M70.6179 56.2808C70.6179 56.2808 71.2852 56.8069 71.5235 57.128C71.5235 57.128 72.1311 56.6998 72.3575 56.3521C72.3575 56.3521 72.8342 56.6642 73.0009 57.128C73.0009 57.128 73.3346 56.896 73.4061 56.5751C73.4061 56.5751 74.2474 56.7535 74.5237 57.0299C74.5237 57.0299 74.6524 56.2183 74.5237 55.7099C74.5237 55.7099 75.1101 55.7545 75.4676 55.9062C75.4676 55.9062 75.1352 55.3711 76.8325 54.6843C76.8325 54.6843 75.5489 54.9598 75.0624 55.5227C75.0624 55.5227 74.5143 55.5495 74.2759 55.3801C74.2759 55.3801 74.3116 56.2005 74.2878 56.5929C74.2878 56.5929 73.9571 56.459 73.3122 56.3076C73.3122 56.3076 73.1559 56.5751 73.0486 56.6374C73.0486 56.6374 72.6434 56.3164 72.4648 55.9062C72.4648 55.9062 71.845 56.4691 71.6069 56.7088C71.6069 56.7088 71.0231 56.2986 70.6179 56.2808Z" fill="black"/>
<path d="M66.7742 64.6285C66.7742 64.6285 67.0363 64.7534 67.6559 64.2539C68.2755 63.7544 70.0271 62.6396 70.1939 61.7477C70.3606 60.8557 69.6339 60.8024 69.0618 61.061C68.4899 61.3195 68.7281 61.819 68.752 61.9795C68.7758 62.1399 68.7877 62.7643 67.8584 63.6295C66.929 64.4949 66.7742 64.6285 66.7742 64.6285Z" fill="#FDD406"/>
<path d="M66.5761 64.9131C66.5761 64.9131 65.17 64.3245 66.433 63.6913C67.696 63.0581 68.2562 62.8887 68.3991 62.3624C68.5422 61.8361 68.4587 61.9254 67.9939 62.1484C67.5291 62.3714 65.7419 63.174 65.4678 62.4249C65.4678 62.4249 66.2067 62.7102 67.1241 62.2645C68.0416 61.8187 68.7924 61.6848 68.2085 61.4974C67.6247 61.3102 65.5155 61.542 65.17 61.6401C64.8244 61.7382 64.9079 61.7204 64.8482 62.0681C64.7886 62.4159 64.3954 63.1472 64.2525 63.3612C64.1094 63.5752 63.7638 64.4672 64.4075 64.8596C65.0507 65.252 66.0707 65.225 66.5761 64.9131Z" fill="#FDD406"/>
<path d="M66.0292 61.8452C66.0292 61.8452 65.7071 61.8898 65.7667 62.0147C65.8263 62.1396 65.9104 62.1218 66.0292 62.1306C66.148 62.1394 66.3269 62.0682 66.3505 61.9879C66.3744 61.9078 66.1487 61.8187 66.0292 61.8452Z" fill="black"/>
<path d="M66.4927 64.6009C66.4927 64.6009 65.8254 64.2799 66.5761 63.8696C67.3269 63.4594 68.137 63.067 68.2444 62.8976C68.2444 62.8974 67.8869 63.4057 66.4927 64.6009Z" fill="white"/>
</g>
<defs>
<clipPath id="clip0_354_30">
<rect width="120" height="120" fill="white"/>
</clipPath>
</defs>
</svg>
