<svg width="120" height="120" viewBox="0 0 120 120" fill="none" xmlns="http://www.w3.org/2000/svg">
<g clip-path="url(#clip0_307_87519)">
<path d="M0 0H120V120H0V0Z" fill="#021455"/>
<path fill-rule="evenodd" clip-rule="evenodd" d="M35.9498 95.125L25.0248 96.075L26.5248 106.925L18.9998 99L11.4748 106.925L12.9748 96.075L2.0498 95.125L11.4748 89.55L5.39981 80.425L15.6498 84.3L18.9998 73.875L22.3748 84.3L32.6248 80.425L26.5498 89.55M82.6498 105.125L79.9998 101.175L84.4498 102.85L85.8998 98.325L87.3498 102.85L91.7998 101.175L89.1748 105.125L93.2748 107.55L88.5248 107.975L89.1748 112.7L85.9248 109.225L82.6248 112.7L83.2748 107.975L78.5248 107.575M82.6248 34.6L79.9998 30.65L84.4498 32.325L85.8998 27.8L87.3498 32.325L91.7998 30.65L89.1748 34.6L93.2748 37.05L88.5248 37.45L89.1748 42.175L85.9248 38.725L82.6248 42.15L83.2748 37.45L78.5248 37.05M56.1998 63.25L53.5748 59.3L58.0248 60.975L59.4748 56.45L60.9498 60.975L65.3998 59.3L62.7498 63.25L66.8498 65.675L62.0998 66.1L62.7748 70.825L59.4748 67.35L56.2248 70.825L56.8498 66.1L52.0998 65.7M106.175 56.2L103.5 52.25L107.95 53.925L109.4 49.4L110.875 53.925L115.325 52.25L112.7 56.2L116.775 58.625L112.025 59.05L112.675 63.75L109.425 60.3L106.125 63.75L106.775 59.05L102.025 58.625M96.4998 77L93.9248 78.625L94.6498 75.65L92.3248 73.7L95.3498 73.45L96.4998 70.65L97.6748 73.475L100.7 73.7L98.3748 75.65L99.0998 78.625" fill="white"/>
<path d="M0 0H60V40H0V0Z" fill="#021455"/>
<path d="M7.03125 0L29.9062 15.0833L52.6875 0H60V5.16667L37.5 20.0833L60 34.9167V40H52.5L30 25.0833L7.59375 40H0V35L22.4062 20.1667L0 5.33333V0H7.03125Z" fill="white"/>
<path d="M39.75 23.4167L60 36.6667V40L34.5938 23.4167H39.75ZM22.5 25.0833L23.0625 28L5.0625 40H0L22.5 25.0833ZM60 0V0.25L36.6562 15.9167L36.8438 12.25L55.3125 0H60ZM0 0L22.4062 14.6667H16.7812L0 3.5V0Z" fill="#D91C16"/>
<path d="M22.5938 0V40H37.5938V0H22.5938ZM0 13.3333V26.6667H60V13.3333H0Z" fill="white"/>
<path d="M0 16.0833V24.0833H60V16.0833H0ZM25.5938 0V40H34.5938V0H25.5938Z" fill="#D91C16"/>
</g>
<defs>
<clipPath id="clip0_307_87519">
<rect width="120" height="120" fill="white"/>
</clipPath>
</defs>
</svg>
