<svg width="120" height="120" viewBox="0 0 120 120" fill="none" xmlns="http://www.w3.org/2000/svg">
<g clip-path="url(#clip0_909_216896)">
<path d="M0 0H120V120H0V0Z" fill="#0F3296"/>
<path d="M40 0H80V120H40V0Z" fill="#FDD406"/>
<path d="M60.0253 38.1798C60.0473 38.1198 60.0693 38.0599 60.0912 38C60.1132 38.0599 60.1352 38.1198 60.1572 38.1798C61.5833 42.07 63.0608 46.1003 66.1683 49.1968C65.1888 48.874 63.4748 48.5847 62.3729 48.6125V65.2074L67.0587 65.903C67.2256 65.8863 67.2813 65.6247 67.2813 65.2686C67.732 60.1154 68.9508 55.7858 70.3532 51.306C70.3842 51.1165 70.5755 50.762 70.7845 50.3748C71.2509 49.5106 71.805 48.4839 70.8596 48.7683C70.8135 48.7745 70.6405 48.8358 70.4203 48.9138C69.8431 49.1184 68.9417 49.4379 69.1511 49.1801C71.6443 46.5979 75.2893 44.7392 78.8287 44.1883C79.1403 44.1104 79.324 44.2662 79.0457 44.6279C74.3489 51.8569 70.42 60.3881 70.4533 70.5108C69.5414 70.5108 67.9807 70.2413 66.4188 69.9716C64.8545 69.7015 63.2891 69.4312 62.3729 69.4312V81.14H57.8096V69.4312C56.8934 69.4312 55.328 69.7015 53.7637 69.9716C52.2018 70.2413 50.6411 70.5108 49.7292 70.5108C49.7625 60.3881 45.8336 51.8569 41.1368 44.6279C40.8585 44.2662 41.0422 44.1104 41.3538 44.1883C44.8932 44.7392 48.5382 46.5979 51.0314 49.1801C51.2408 49.4379 50.3394 49.1184 49.7622 48.9138C49.542 48.8358 49.369 48.7745 49.3229 48.7683C48.3775 48.4839 48.9316 49.5106 49.398 50.3748C49.607 50.762 49.7983 51.1165 49.8293 51.306C51.2317 55.7858 52.4504 60.1154 52.9012 65.2686C52.9012 65.6247 52.9569 65.8863 53.1238 65.903L57.8096 65.2074V48.6125C56.7077 48.5847 54.9937 48.874 54.0142 49.1968C57.1217 46.1003 58.5992 42.07 60.0253 38.1798Z" fill="black"/>
</g>
<defs>
<clipPath id="clip0_909_216896">
<rect width="120" height="120" fill="white"/>
</clipPath>
</defs>
</svg>
