<svg width="120" height="120" viewBox="0 0 120 120" fill="none" xmlns="http://www.w3.org/2000/svg">
<g clip-path="url(#clip0_307_85371)">
<path d="M0 0H120V120H0V0Z" fill="#D91C16"/>
<path d="M0 0V120L120 0V120L0 0Z" fill="#1E9A1C"/>
<path d="M110.67 120L60 69.3295L9.32954 120H0V110.67L50.6705 60L0 9.32953V0H9.32952L60 50.6705L110.67 0H120V9.32953L69.3295 60L120 110.67V120H110.67Z" fill="white"/>
<path d="M60 94C78.7777 94 94 78.7777 94 60C94 41.2223 78.7777 26 60 26C41.2223 26 26 41.2223 26 60C26 78.7777 41.2223 94 60 94Z" fill="white"/>
<path d="M59.9998 35.1201L62.1018 38.7601H66.3038L64.2038 42.4001L66.3038 46.0401H62.1018L59.9998 49.6801L57.8978 46.0401H53.6958L55.7958 42.4001L53.6958 38.7601H57.8978L59.9998 35.1201Z" fill="#D91C16"/>
<path d="M81.5465 72.4401L77.3432 72.4405L75.2422 76.0795L73.1399 72.4409L68.9375 72.4395L71.0385 68.8005L68.9372 65.1601L73.1405 65.1597L75.2415 61.5207L77.3439 65.1593L81.5462 65.1607L79.4452 68.7997L81.5465 72.4401Z" fill="#D91C16"/>
<path d="M38.4531 72.4401L40.5545 68.7997L38.4535 65.1607L42.6558 65.1593L44.7581 61.5207L46.8591 65.1597L51.0625 65.1601L48.9611 68.8005L51.0621 72.4395L46.8598 72.4409L44.7575 76.0795L42.6565 72.4405L38.4531 72.4401Z" fill="#D91C16"/>
<path fill-rule="evenodd" clip-rule="evenodd" d="M60.0002 34.4004L62.31 38.4003H66.9275L64.6198 42.4003L66.9275 46.4003H62.31L60.0002 50.4002L57.6904 46.4003H53.0729L55.3806 42.4003L53.0729 38.4003H57.6904L60.0002 34.4004ZM60.0002 35.8402L58.106 39.1203H54.3195L56.2118 42.4003L54.3195 45.6803H58.106L60.0002 48.9604L61.8944 45.6803H65.6809L63.7886 42.4003L65.6809 39.1203H61.8944L60.0002 35.8402Z" fill="#1E9A1C"/>
<path fill-rule="evenodd" clip-rule="evenodd" d="M82.1704 72.8002L77.5515 72.8006L75.2427 76.7995L72.9325 72.801L68.3145 72.7995L70.6233 68.8006L68.3142 64.8003L72.9331 64.7999L75.2418 60.8011L77.5521 64.7996L82.17 64.8011L79.8613 68.7999L82.1704 72.8002ZM80.9235 72.0803L79.0299 68.7999L80.9232 65.5207L77.1365 65.5194L75.2421 62.2407L73.3488 65.5199L69.561 65.5202L71.4546 68.8007L69.5614 72.0799L73.3481 72.0811L75.2425 75.3599L77.1357 72.0807L80.9235 72.0803Z" fill="#1E9A1C"/>
<path fill-rule="evenodd" clip-rule="evenodd" d="M37.8301 72.8002L40.1392 68.7999L37.8304 64.8011L42.4484 64.7996L44.7586 60.8011L47.0674 64.7999L51.6863 64.8003L49.3772 68.8006L51.6859 72.7995L47.068 72.801L44.7577 76.7995L42.449 72.8006L37.8301 72.8002ZM39.077 72.0803L42.8647 72.0807L44.758 75.3599L46.6524 72.0811L50.4391 72.0799L48.5458 68.8007L50.4394 65.5202L46.6517 65.5199L44.7584 62.2407L42.864 65.5194L39.0773 65.5207L40.9705 68.7999L39.077 72.0803Z" fill="#1E9A1C"/>
</g>
<defs>
<clipPath id="clip0_307_85371">
<rect width="120" height="120" fill="white"/>
</clipPath>
</defs>
</svg>
