<svg width="120" height="120" viewBox="0 0 120 120" fill="none" xmlns="http://www.w3.org/2000/svg">
<path d="M0 -1.52588e-05H120V120H0V-1.52588e-05Z" fill="#1E9A1C"/>
<path d="M4 60L60.145 105.429L116.29 60L60.145 14.5714L4 60Z" fill="#FDD406"/>
<path d="M60 90C76.5685 90 90 76.5685 90 60C90 43.4315 76.5685 30 60 30C43.4315 30 30 43.4315 30 60C30 76.5685 43.4315 90 60 90Z" fill="#0F3296"/>
<path d="M30.9531 52.4695C34.8572 51.7812 38.8391 51.4286 42.8573 51.4286C59.7991 51.4286 76.0945 57.6982 88.6416 68.9525C89.1205 67.4188 89.4796 65.8323 89.7079 64.2039C76.6362 53.2271 60.0604 47.1429 42.8573 47.1429C39.3886 47.1429 35.9454 47.3902 32.5513 47.8752C31.8997 49.3481 31.3632 50.8833 30.9531 52.4695Z" fill="white"/>
<path d="M43.9902 50.7116L46.5601 50.8014L46.5786 50.2711L44.4982 50.1984L44.5239 49.4642L46.1555 49.5212L46.1726 49.0317L44.541 48.9747L44.5609 48.4036L46.5189 48.472L46.5374 47.9417L44.0899 47.8562L43.9902 50.7116Z" fill="#1E9A1C"/>
<path fill-rule="evenodd" clip-rule="evenodd" d="M41.7089 50.7238L40.3622 50.7473L40.3123 47.8906L41.6591 47.8671C41.8198 47.8643 41.9796 47.8931 42.1292 47.9521C42.2788 48.011 42.4154 48.0988 42.531 48.2105C42.6467 48.3222 42.7393 48.4556 42.8034 48.6031C42.8675 48.7506 42.9019 48.9092 42.9047 49.07L42.9119 49.4781C42.9147 49.6389 42.8858 49.7986 42.8269 49.9482C42.7679 50.0979 42.6801 50.2344 42.5684 50.3501C42.4567 50.4657 42.3233 50.5583 42.1758 50.6224C42.0284 50.6865 41.8697 50.721 41.7089 50.7238ZM41.6589 50.1939L40.8835 50.2075L40.8521 48.4118L41.6275 48.3983C41.8332 48.3947 42.0318 48.473 42.1798 48.6158C42.3277 48.7587 42.4129 48.9545 42.4164 49.1602L42.4207 49.405C42.4243 49.6107 42.3461 49.8093 42.2032 49.9573C42.0603 50.1052 41.8645 50.1904 41.6589 50.1939Z" fill="#1E9A1C"/>
<path fill-rule="evenodd" clip-rule="evenodd" d="M37.2707 50.9358L36.7414 50.9728L36.5828 48.1197L38.2115 48.0059C38.449 47.9892 38.6835 48.0677 38.8632 48.2239C39.043 48.3802 39.1533 48.6014 39.1699 48.839C39.1865 49.0766 39.108 49.311 38.9518 49.4907C38.9039 49.5459 38.8498 49.5945 38.791 49.6359C39.0988 49.8707 39.1418 50.4857 39.164 50.8034L38.6754 50.8375C38.6564 50.5652 38.622 50.0741 38.3333 49.7976L37.1967 49.8771L37.2707 50.9358ZM38.259 49.2709L37.1597 49.3478L37.1084 48.6149L38.2078 48.538C38.305 48.5312 38.4009 48.5633 38.4744 48.6272C38.5479 48.6912 38.593 48.7817 38.5998 48.8788C38.6066 48.976 38.5745 49.0719 38.5106 49.1455C38.4467 49.219 38.3562 49.2641 38.259 49.2709Z" fill="#1E9A1C"/>
<path fill-rule="evenodd" clip-rule="evenodd" d="M35.2646 50.7046C35.0579 50.9999 34.7517 51.1892 34.4132 51.2307C34.0748 51.2723 33.7318 51.1628 33.4599 50.9262C33.1879 50.6897 33.0092 50.3456 32.963 49.9695C32.9168 49.5934 33.007 49.2163 33.2137 48.921C33.4203 48.6257 33.7266 48.4364 34.065 48.3949C34.4035 48.3533 34.7464 48.4629 35.0184 48.6994C35.2904 48.9359 35.4691 49.2801 35.5153 49.6561C35.5614 50.0322 35.4713 50.4093 35.2646 50.7046ZM34.8465 50.378C34.7264 50.5624 34.5473 50.6797 34.3486 50.7041C34.1498 50.7285 33.9476 50.658 33.7866 50.5081C33.6255 50.3582 33.5187 50.1412 33.4897 49.9048C33.4606 49.6685 33.5118 49.4321 33.6318 49.2477C33.7518 49.0633 33.9309 48.9459 34.1297 48.9215C34.3285 48.8971 34.5306 48.9676 34.6917 49.1175C34.8528 49.2674 34.9596 49.4844 34.9886 49.7208C35.0176 49.9572 34.9665 50.1936 34.8465 50.378Z" fill="#1E9A1C"/>
<path d="M48.1028 50.9086L47.6148 50.8659L47.8639 48.0196L48.5754 48.0819L48.9739 50.0834L49.7139 48.1815L50.4255 48.2437L50.1765 51.09L49.6885 51.0473L49.8593 49.0956L49.1193 50.9975L48.672 50.9584L48.2735 48.9569L48.1028 50.9086Z" fill="#1E9A1C"/>
<path d="M53.5346 51.5336L55.6465 51.8965L55.7294 51.4138L54.1002 51.1338L54.2108 50.4902L55.5383 50.7183L55.6213 50.2356L54.2938 50.0075L54.3698 49.565L55.9487 49.8363L56.0317 49.3536L53.9701 48.9993L53.5346 51.5336Z" fill="#1E9A1C"/>
<path fill-rule="evenodd" clip-rule="evenodd" d="M59.4737 52.7322L58.96 52.5993L59.7149 49.8434L61.2955 50.2522C61.5261 50.3118 61.7235 50.4606 61.8444 50.6658C61.9653 50.871 61.9997 51.1158 61.9401 51.3464C61.8804 51.5769 61.7317 51.7744 61.5265 51.8952C61.3213 52.0161 61.0764 52.0505 60.8459 51.9909L59.7394 51.7047L59.4737 52.7322ZM60.9392 51.4669L59.8723 51.191L60.0562 50.4797L61.1232 50.7557C61.2175 50.78 61.2983 50.8409 61.3477 50.9249C61.3972 51.0088 61.4112 51.109 61.3868 51.2033C61.3624 51.2976 61.3016 51.3784 61.2176 51.4278C61.1337 51.4773 61.0335 51.4913 60.9392 51.4669Z" fill="#1E9A1C"/>
<path fill-rule="evenodd" clip-rule="evenodd" d="M62.4654 53.5344L62.9714 53.694L63.2906 52.6819L64.3772 53.0245C64.5445 53.3876 64.3965 53.857 64.3144 54.1174L64.7816 54.2647C64.8773 53.961 65.0627 53.373 64.8623 53.0418C64.9322 53.0248 65.0003 52.9994 65.0652 52.9656C65.2764 52.8557 65.4353 52.6663 65.5069 52.4392C65.5786 52.212 65.557 51.9657 65.447 51.7545C65.3371 51.5433 65.1477 51.3843 64.9206 51.3127L63.3635 50.8218L62.4654 53.5344ZM63.4501 52.1758L64.5011 52.5072C64.5941 52.5365 64.6948 52.5277 64.7812 52.4827C64.8677 52.4377 64.9327 52.3602 64.962 52.2673C64.9913 52.1744 64.9824 52.0737 64.9375 51.9872C64.8925 51.9008 64.815 51.8358 64.7221 51.8065L63.671 51.4751L63.4501 52.1758Z" fill="#1E9A1C"/>
<path fill-rule="evenodd" clip-rule="evenodd" d="M67.1215 55.102C67.4409 55.2214 67.7999 55.195 68.1196 55.0285C68.4393 54.862 68.6934 54.569 68.8261 54.2142C68.9588 53.8593 68.9592 53.4715 68.8271 53.1361C68.6951 52.8007 68.4415 52.5452 68.1221 52.4258C67.8027 52.3064 67.4437 52.3328 67.124 52.4993C66.8043 52.6658 66.5502 52.9587 66.4175 53.3136C66.2848 53.6685 66.2845 54.0563 66.4165 54.3917C66.5485 54.7271 66.8021 54.9826 67.1215 55.102ZM67.3073 54.605C67.4949 54.6751 67.7079 54.6538 67.8996 54.5456C68.0912 54.4375 68.2457 54.2514 68.3291 54.0283C68.4125 53.8053 68.418 53.5635 68.3443 53.3561C68.2706 53.1488 68.1239 52.9929 67.9363 52.9228C67.7487 52.8527 67.5357 52.874 67.344 52.9822C67.1524 53.0903 66.9979 53.2764 66.9145 53.4995C66.8311 53.7225 66.8256 53.9643 66.8993 54.1716C66.973 54.379 67.1197 54.5349 67.3073 54.605Z" fill="#1E9A1C"/>
<path d="M72.2908 54.5869C72.1765 54.245 71.9366 53.9766 71.6239 53.8406C71.3112 53.7047 70.9513 53.7123 70.6233 53.8618C70.2954 54.0114 70.0263 54.2906 69.8752 54.638C69.7241 54.9855 69.7034 55.3727 69.8177 55.7146C69.932 56.0564 70.1719 56.3248 70.4846 56.4608C70.7839 56.5909 71.1265 56.5895 71.4429 56.458L71.2895 56.8108L71.6638 56.9735L72.2334 55.6634L71.2415 55.2321L71.0788 55.6064L71.5083 55.7932C71.4426 55.8551 71.3693 55.9069 71.2907 55.9459C71.0937 56.0439 70.8799 56.054 70.6962 55.9742C70.5126 55.8943 70.3741 55.731 70.3114 55.5201C70.2487 55.3092 70.2668 55.068 70.3618 54.8496C70.4568 54.6312 70.6208 54.4535 70.8178 54.3555C71.0148 54.2575 71.2287 54.2474 71.4123 54.3272C71.596 54.4071 71.7344 54.5704 71.7971 54.7813C71.8137 54.8371 71.8246 54.8949 71.83 54.9539L72.3572 55.1831C72.3761 54.9801 72.3542 54.7765 72.2908 54.5869Z" fill="#1E9A1C"/>
<path fill-rule="evenodd" clip-rule="evenodd" d="M72.6215 57.4201L73.0963 57.6569L73.5698 56.7072L74.5895 57.2156C74.698 57.6004 74.4784 58.0409 74.3565 58.2852L74.7949 58.5038C74.937 58.2188 75.212 57.6671 75.066 57.3085C75.1376 57.3027 75.2089 57.2882 75.2782 57.2651C75.5041 57.1895 75.6907 57.0273 75.7969 56.8142C75.9032 56.601 75.9204 56.3544 75.8449 56.1286C75.7693 55.9027 75.6071 55.7162 75.394 55.6099L73.9328 54.8814L72.6215 57.4201ZM73.8066 56.2323L74.7929 56.724C74.8801 56.7675 74.9809 56.7746 75.0733 56.7437C75.1657 56.7127 75.2421 56.6464 75.2855 56.5592C75.329 56.472 75.336 56.3711 75.3051 56.2787C75.2742 56.1863 75.2079 56.11 75.1207 56.0665L74.1344 55.5748L73.8066 56.2323Z" fill="#1E9A1C"/>
<path d="M75.8559 59.0637L78.0939 60.3299L78.3552 59.8681L76.5434 58.8431L76.9052 58.2036L78.3262 59.0076L78.5674 58.5813L77.1464 57.7773L77.4278 57.28L79.133 58.2447L79.3943 57.7829L77.2628 56.577L75.8559 59.0637Z" fill="#1E9A1C"/>
<path d="M80.3709 61.1911C80.0267 60.9718 79.8711 60.7032 80.0246 60.4623L79.4824 60.1169C79.0969 60.7182 79.6884 61.3128 80.0843 61.565C80.549 61.8611 81.2454 62.1353 81.6456 61.5071C81.9667 61.0031 81.4783 60.5338 81.0808 60.1518C80.8063 59.8881 80.5753 59.6661 80.684 59.5031C80.843 59.2535 81.0598 59.3311 81.3266 59.5011C81.602 59.6765 81.7826 59.9247 81.6181 60.1829L82.1431 60.5173C82.53 59.929 82.0325 59.4185 81.7227 59.2211L81.683 59.1957C81.3476 58.98 80.5722 58.4815 80.1113 59.1867C79.7939 59.6741 80.2445 60.1162 80.6328 60.4971C80.9256 60.7844 81.183 61.0369 81.0486 61.2478C80.9496 61.4025 80.7152 61.4104 80.3709 61.1911Z" fill="#1E9A1C"/>
<path d="M83.0894 62.4891C82.9235 62.7217 83.0648 62.998 83.3971 63.235C83.7294 63.472 83.964 63.4764 84.071 63.3271C84.2162 63.1235 83.9724 62.8579 83.695 62.5557C83.3272 62.155 82.9003 61.6899 83.2428 61.2198C83.7399 60.5397 84.4882 61.0781 84.8119 61.311L84.8502 61.3385C85.1492 61.5518 85.6193 62.0877 85.2022 62.655L84.6954 62.2935C84.8732 62.0443 84.7058 61.787 84.4399 61.5974C84.1824 61.4137 83.97 61.3249 83.7982 61.5658C83.681 61.7228 83.9002 61.9566 84.1604 62.2344C84.5374 62.6366 85.0006 63.1308 84.6536 63.6173C84.221 64.2238 83.5399 63.9134 83.0913 63.5934C82.7092 63.3209 82.1496 62.6961 82.5661 62.1158L83.0894 62.4891Z" fill="#1E9A1C"/>
<path fill-rule="evenodd" clip-rule="evenodd" d="M86.9604 66.0149C86.6049 66.0745 86.2553 65.9887 85.9884 65.7765C85.7216 65.5642 85.5593 65.2428 85.5374 64.883C85.5155 64.5233 85.6357 64.1546 85.8715 63.8581C86.1074 63.5615 86.4396 63.3615 86.7951 63.3019C87.1505 63.2424 87.5002 63.3282 87.767 63.5404C88.0339 63.7527 88.1961 64.0741 88.2181 64.4338C88.24 64.7936 88.1198 65.1623 87.8839 65.4588C87.6481 65.7553 87.3159 65.9554 86.9604 66.0149ZM86.9003 65.4877C86.6847 65.5314 86.4755 65.4859 86.3187 65.3612C86.162 65.2365 86.0706 65.0429 86.0646 64.823C86.0586 64.603 86.1385 64.3748 86.2868 64.1884C86.435 64.002 86.6395 63.8728 86.8551 63.8291C87.0708 63.7855 87.28 63.831 87.4367 63.9557C87.5934 64.0804 87.6849 64.274 87.6909 64.4939C87.6968 64.7138 87.6169 64.9421 87.4687 65.1285C87.3204 65.3149 87.116 65.4441 86.9003 65.4877Z" fill="#1E9A1C"/>
<path d="M35.5101 53.3265L35.1128 54.5493L35.7242 54.748" fill="white"/>
<path d="M35.5101 53.3265L35.9074 54.5493L35.296 54.748" fill="white"/>
<path d="M36.7329 54.2149H35.4472V54.8578" fill="white"/>
<path d="M36.7329 54.2149L35.6927 54.9706L35.3149 54.4506" fill="white"/>
<path d="M34.2873 54.2149L35.3275 54.9706L35.7053 54.4506" fill="white"/>
<path d="M34.2873 54.2149H35.573V54.8578" fill="white"/>
<path d="M36.2658 55.6524L35.8685 54.4296L35.2571 54.6283" fill="white"/>
<path d="M36.2658 55.6524L35.2257 54.8967L35.6035 54.3766" fill="white"/>
<path d="M34.7544 55.6524L35.7945 54.8967L35.4167 54.3766" fill="white"/>
<path d="M34.7544 55.6524L35.1517 54.4296L35.7631 54.6283" fill="white"/>
<path d="M38.1632 65.9388L37.7659 67.1615L38.3772 67.3602" fill="white"/>
<path d="M38.1632 65.9388L38.5605 67.1615L37.9491 67.3602" fill="white"/>
<path d="M39.3859 66.8272H38.1002V67.47" fill="white"/>
<path d="M39.3859 66.8272L38.3458 67.5829L37.9679 67.0628" fill="white"/>
<path d="M36.9404 66.8272L37.9805 67.5829L38.3584 67.0628" fill="white"/>
<path d="M36.9404 66.8272H38.2261V67.47" fill="white"/>
<path d="M38.9189 68.2646L38.5216 67.0418L37.9102 67.2405" fill="white"/>
<path d="M38.9189 68.2646L37.8787 67.5089L38.2566 66.9888" fill="white"/>
<path d="M37.4074 68.2646L38.4476 67.5089L38.0697 66.9888" fill="white"/>
<path d="M37.4074 68.2646L37.8047 67.0418L38.4161 67.2405" fill="white"/>
<path d="M34.4897 68.8469L34.1586 69.8659L34.6681 70.0315" fill="white"/>
<path d="M34.4897 68.8469L34.8208 69.8659L34.3113 70.0315" fill="white"/>
<path d="M35.5087 69.5873H34.4373V70.123" fill="white"/>
<path d="M35.5087 69.5873L34.6419 70.217L34.327 69.7836" fill="white"/>
<path d="M33.4707 69.5873L34.3375 70.217L34.6524 69.7836" fill="white"/>
<path d="M33.4707 69.5873H34.5421V70.123" fill="white"/>
<path d="M35.1195 70.7852L34.7884 69.7662L34.2789 69.9317" fill="white"/>
<path d="M35.1195 70.7852L34.2527 70.1554L34.5675 69.722" fill="white"/>
<path d="M33.8599 70.7852L34.7267 70.1554L34.4118 69.722" fill="white"/>
<path d="M33.8599 70.7852L34.191 69.7662L34.7005 69.9317" fill="white"/>
<path d="M41.1019 64.7755L40.9127 65.3578L41.2039 65.4524" fill="white"/>
<path d="M41.1019 64.7755L41.2911 65.3578L41 65.4524" fill="white"/>
<path d="M41.6842 65.1985H41.072V65.5047" fill="white"/>
<path d="M41.6842 65.1985L41.1889 65.5584L41.009 65.3108" fill="white"/>
<path d="M40.5197 65.1985L41.015 65.5584L41.1949 65.3108" fill="white"/>
<path d="M40.5197 65.1985H41.1319V65.5047" fill="white"/>
<path d="M41.4618 65.8831L41.2726 65.3008L40.9815 65.3954" fill="white"/>
<path d="M41.4618 65.8831L40.9665 65.5232L41.1464 65.2755" fill="white"/>
<path d="M40.7421 65.8831L41.2374 65.5232L41.0575 65.2755" fill="white"/>
<path d="M40.7421 65.8831L40.9313 65.3008L41.2224 65.3954" fill="white"/>
<path d="M44.4081 69.1326L44.077 70.1516L44.5865 70.3172" fill="white"/>
<path d="M44.4081 69.1326L44.7391 70.1516L44.2296 70.3172" fill="white"/>
<path d="M45.427 69.873H44.3556V70.4087" fill="white"/>
<path d="M45.427 69.873L44.5602 70.5027L44.2454 70.0693" fill="white"/>
<path d="M43.3891 69.873L44.2559 70.5027L44.5708 70.0693" fill="white"/>
<path d="M43.3891 69.873H44.4605V70.4087" fill="white"/>
<path d="M45.0378 71.0709L44.7067 70.0519L44.1972 70.2174" fill="white"/>
<path d="M45.0378 71.0709L44.171 70.4411L44.4859 70.0077" fill="white"/>
<path d="M43.7783 71.0709L44.6451 70.4411L44.3302 70.0077" fill="white"/>
<path d="M43.7783 71.0709L44.1094 70.0519L44.6189 70.2174" fill="white"/>
<path d="M43.5101 72.3265L43.2452 73.1417L43.6528 73.2741" fill="white"/>
<path d="M43.5101 72.3265L43.775 73.1417L43.3674 73.2741" fill="white"/>
<path d="M44.3253 72.9188H43.4681V73.3474" fill="white"/>
<path d="M44.3253 72.9188L43.6318 73.4226L43.3799 73.0759" fill="white"/>
<path d="M42.6949 72.9188L43.3883 73.4226L43.6403 73.0759" fill="white"/>
<path d="M42.6949 72.9188H43.552V73.3474" fill="white"/>
<path d="M44.0139 73.8771L43.749 73.0619L43.3414 73.1943" fill="white"/>
<path d="M44.0139 73.8771L43.3205 73.3733L43.5724 73.0266" fill="white"/>
<path d="M43.0063 73.8771L43.6997 73.3733L43.4478 73.0266" fill="white"/>
<path d="M43.0063 73.8771L43.2712 73.0619L43.6788 73.1943" fill="white"/>
<path d="M69.306 49.4081L68.9087 50.6309L69.5201 50.8296" fill="white"/>
<path d="M69.306 49.4081L69.7033 50.6309L69.0919 50.8296" fill="white"/>
<path d="M70.5288 50.2965H69.2431V50.9394" fill="white"/>
<path d="M70.5288 50.2965L69.4886 51.0523L69.1108 50.5322" fill="white"/>
<path d="M68.0832 50.2965L69.1234 51.0523L69.5013 50.5322" fill="white"/>
<path d="M68.0832 50.2965H69.3689V50.9394" fill="white"/>
<path d="M70.0617 51.734L69.6644 50.5112L69.053 50.7099" fill="white"/>
<path d="M70.0617 51.734L69.0216 50.9783L69.3994 50.4582" fill="white"/>
<path d="M68.5503 51.734L69.5905 50.9783L69.2126 50.4582" fill="white"/>
<path d="M68.5503 51.734L68.9476 50.5112L69.559 50.7099" fill="white"/>
<path d="M81.0203 69.2449L80.623 70.4677L81.2344 70.6663" fill="white"/>
<path d="M81.0203 69.2449L81.4176 70.4677L80.8062 70.6663" fill="white"/>
<path d="M82.2431 70.1333H80.9574V70.7761" fill="white"/>
<path d="M82.2431 70.1333L81.2029 70.889L80.8251 70.3689" fill="white"/>
<path d="M79.7975 70.1333L80.8377 70.889L81.2155 70.3689" fill="white"/>
<path d="M79.7975 70.1333H81.0832V70.7761" fill="white"/>
<path d="M81.776 71.5708L81.3787 70.348L80.7673 70.5466" fill="white"/>
<path d="M81.776 71.5708L80.7359 70.815L81.1137 70.2949" fill="white"/>
<path d="M80.2646 71.5708L81.3047 70.815L80.9269 70.2949" fill="white"/>
<path d="M80.2646 71.5708L80.6619 70.348L81.2733 70.5466" fill="white"/>
<path d="M85.1836 69.9592L84.9187 70.7744L85.3263 70.9068" fill="white"/>
<path d="M85.1836 69.9592L85.4484 70.7744L85.0409 70.9068" fill="white"/>
<path d="M85.9988 70.5514H85.1416V70.98" fill="white"/>
<path d="M85.9988 70.5514L85.3053 71.0553L85.0534 70.7085" fill="white"/>
<path d="M84.3684 70.5514L85.0618 71.0553L85.3137 70.7085" fill="white"/>
<path d="M84.3684 70.5514H85.2255V70.98" fill="white"/>
<path d="M85.6874 71.5098L85.4225 70.6946L85.0149 70.827" fill="white"/>
<path d="M85.6874 71.5098L84.9939 71.0059L85.2459 70.6592" fill="white"/>
<path d="M84.6798 71.5098L85.3732 71.0059L85.1213 70.6592" fill="white"/>
<path d="M84.6798 71.5098L84.9446 70.6946L85.3522 70.827" fill="white"/>
<path d="M82.2448 72.1122L81.9137 73.1312L82.4232 73.2968" fill="white"/>
<path d="M82.2448 72.1122L82.5759 73.1312L82.0664 73.2968" fill="white"/>
<path d="M83.2638 72.8526H82.1924V73.3883" fill="white"/>
<path d="M83.2638 72.8526L82.397 73.4823L82.0821 73.0489" fill="white"/>
<path d="M81.2258 72.8526L82.0926 73.4823L82.4075 73.0489" fill="white"/>
<path d="M81.2258 72.8526H82.2972V73.3883" fill="white"/>
<path d="M82.8746 74.0505L82.5435 73.0315L82.034 73.197" fill="white"/>
<path d="M82.8746 74.0505L82.0078 73.4207L82.3227 72.9873" fill="white"/>
<path d="M81.615 74.0505L82.4818 73.4207L82.1669 72.9873" fill="white"/>
<path d="M81.615 74.0505L81.9461 73.0315L82.4556 73.197" fill="white"/>
<path d="M75.0203 78.3979L74.6892 79.4169L75.1987 79.5825" fill="white"/>
<path d="M75.0203 78.3979L75.3514 79.4169L74.8419 79.5825" fill="white"/>
<path d="M76.0393 79.1383H74.9679V79.674" fill="white"/>
<path d="M76.0393 79.1383L75.1725 79.768L74.8576 79.3346" fill="white"/>
<path d="M74.0013 79.1383L74.8681 79.768L75.183 79.3346" fill="white"/>
<path d="M74.0013 79.1383H75.0727V79.674" fill="white"/>
<path d="M75.6501 80.3362L75.319 79.3172L74.8095 79.4827" fill="white"/>
<path d="M75.6501 80.3362L74.7833 79.7064L75.0982 79.273" fill="white"/>
<path d="M74.3905 80.3362L75.2573 79.7064L74.9425 79.273" fill="white"/>
<path d="M74.3905 80.3362L74.7216 79.3172L75.2311 79.4827" fill="white"/>
<path d="M74.9795 81.6326L74.7146 82.4478L75.1222 82.5803" fill="white"/>
<path d="M74.9795 81.6326L75.2444 82.4478L74.8368 82.5803" fill="white"/>
<path d="M75.7947 82.2249H74.9375V82.6535" fill="white"/>
<path d="M75.7947 82.2249L75.1012 82.7287L74.8493 82.382" fill="white"/>
<path d="M74.1643 82.2249L74.8577 82.7287L75.1096 82.382" fill="white"/>
<path d="M74.1643 82.2249H75.0214V82.6535" fill="white"/>
<path d="M75.4833 83.1832L75.2184 82.368L74.8108 82.5005" fill="white"/>
<path d="M75.4833 83.1832L74.7899 82.6794L75.0418 82.3327" fill="white"/>
<path d="M74.4757 83.1832L75.1691 82.6794L74.9172 82.3327" fill="white"/>
<path d="M74.4757 83.1832L74.7405 82.368L75.1481 82.5005" fill="white"/>
<path d="M77.9999 76.2449L77.735 77.0601L78.1426 77.1925" fill="white"/>
<path d="M77.9999 76.2449L78.2648 77.0601L77.8572 77.1925" fill="white"/>
<path d="M78.8151 76.8372H77.9579V77.2657" fill="white"/>
<path d="M78.8151 76.8372L78.1216 77.341L77.8697 76.9942" fill="white"/>
<path d="M77.1847 76.8372L77.8782 77.341L78.1301 76.9942" fill="white"/>
<path d="M77.1847 76.8372H78.0419V77.2657" fill="white"/>
<path d="M78.5037 77.7955L78.2388 76.9803L77.8312 77.1127" fill="white"/>
<path d="M78.5037 77.7955L77.8103 77.2916L78.0622 76.9449" fill="white"/>
<path d="M77.4961 77.7955L78.1895 77.2916L77.9376 76.9449" fill="white"/>
<path d="M77.4961 77.7955L77.761 76.9803L78.1686 77.1127" fill="white"/>
<path d="M80.4081 74.5204L80.077 75.5394L80.5865 75.7049" fill="white"/>
<path d="M80.4081 74.5204L80.7391 75.5394L80.2297 75.7049" fill="white"/>
<path d="M81.427 75.2607H80.3556V75.7964" fill="white"/>
<path d="M81.427 75.2607L80.5602 75.8905L80.2454 75.4571" fill="white"/>
<path d="M79.3891 75.2607L80.2559 75.8905L80.5708 75.4571" fill="white"/>
<path d="M79.3891 75.2607H80.4605V75.7964" fill="white"/>
<path d="M81.0378 76.4586L80.7067 75.4396L80.1972 75.6052" fill="white"/>
<path d="M81.0378 76.4586L80.171 75.8288L80.4859 75.3954" fill="white"/>
<path d="M79.7783 76.4586L80.6451 75.8288L80.3302 75.3954" fill="white"/>
<path d="M79.7783 76.4586L80.1094 75.4396L80.6189 75.6052" fill="white"/>
<path d="M74.8979 75.6735L74.633 76.4886L75.0406 76.6211" fill="white"/>
<path d="M74.8979 75.6735L75.1627 76.4886L74.7551 76.6211" fill="white"/>
<path d="M75.713 76.2657H74.8559V76.6943" fill="white"/>
<path d="M75.713 76.2657L75.0196 76.7695L74.7677 76.4228" fill="white"/>
<path d="M74.0827 76.2657L74.7761 76.7695L75.028 76.4228" fill="white"/>
<path d="M74.0827 76.2657H74.9398V76.6943" fill="white"/>
<path d="M75.4017 77.224L75.1368 76.4088L74.7292 76.5413" fill="white"/>
<path d="M75.4017 77.224L74.7082 76.7202L74.9601 76.3735" fill="white"/>
<path d="M74.394 77.224L75.0875 76.7202L74.8356 76.3735" fill="white"/>
<path d="M74.394 77.224L74.6589 76.4088L75.0665 76.5413" fill="white"/>
<path d="M48.5713 60.153L48.2402 61.172L48.7497 61.3376" fill="white"/>
<path d="M48.5713 60.153L48.9024 61.172L48.3929 61.3376" fill="white"/>
<path d="M49.5903 60.8934H48.5189V61.4291" fill="white"/>
<path d="M49.5903 60.8934L48.7235 61.5232L48.4086 61.0897" fill="white"/>
<path d="M47.5523 60.8934L48.4191 61.5232L48.734 61.0897" fill="white"/>
<path d="M47.5523 60.8934H48.6238V61.4291" fill="white"/>
<path d="M49.2011 62.0913L48.87 61.0723L48.3605 61.2378" fill="white"/>
<path d="M49.2011 62.0913L48.3343 61.4615L48.6492 61.0281" fill="white"/>
<path d="M47.9416 62.0913L48.8084 61.4615L48.4935 61.0281" fill="white"/>
<path d="M47.9416 62.0913L48.2726 61.0723L48.7821 61.2378" fill="white"/>
<path d="M68.1632 57.6326L67.8983 58.4478L68.3059 58.5803" fill="white"/>
<path d="M68.1632 57.6326L68.428 58.4478L68.0204 58.5803" fill="white"/>
<path d="M68.9784 58.2249H68.1212V58.6535" fill="white"/>
<path d="M68.9784 58.2249L68.2849 58.7287L68.033 58.382" fill="white"/>
<path d="M67.348 58.2249L68.0414 58.7287L68.2933 58.382" fill="white"/>
<path d="M67.348 58.2249H68.2051V58.6535" fill="white"/>
<path d="M68.667 59.1832L68.4021 58.368L67.9945 58.5005" fill="white"/>
<path d="M68.667 59.1832L67.9735 58.6794L68.2254 58.3327" fill="white"/>
<path d="M67.6594 59.1832L68.3528 58.6794L68.1009 58.3327" fill="white"/>
<path d="M67.6594 59.1832L67.9242 58.368L68.3318 58.5005" fill="white"/>
<path d="M59.9999 72.1837L59.6026 73.4064L60.214 73.6051" fill="white"/>
<path d="M59.9999 72.1837L60.3972 73.4064L59.7858 73.6051" fill="white"/>
<path d="M61.2227 73.0721H59.937V73.7149" fill="white"/>
<path d="M61.2227 73.0721L60.1825 73.8278L59.8047 73.3077" fill="white"/>
<path d="M58.7771 73.0721L59.8173 73.8278L60.1951 73.3077" fill="white"/>
<path d="M58.7771 73.0721H60.0628V73.7149" fill="white"/>
<path d="M60.7556 74.5095L60.3583 73.2867L59.7469 73.4854" fill="white"/>
<path d="M60.7556 74.5095L59.7155 73.7538L60.0933 73.2337" fill="white"/>
<path d="M59.2442 74.5095L60.2843 73.7538L59.9065 73.2337" fill="white"/>
<path d="M59.2442 74.5095L59.6415 73.2867L60.2529 73.4854" fill="white"/>
<path d="M63.4693 66.4388L63.1382 67.4577L63.6477 67.6233" fill="white"/>
<path d="M63.4693 66.4388L63.8004 67.4577L63.2909 67.6233" fill="white"/>
<path d="M64.4883 67.1791H63.4168V67.7148" fill="white"/>
<path d="M64.4883 67.1791L63.6215 67.8089L63.3066 67.3755" fill="white"/>
<path d="M62.4503 67.1791L63.3171 67.8089L63.632 67.3755" fill="white"/>
<path d="M62.4503 67.1791H63.5217V67.7148" fill="white"/>
<path d="M64.0991 68.377L63.768 67.358L63.2585 67.5235" fill="white"/>
<path d="M64.0991 68.377L63.2322 67.7472L63.5471 67.3138" fill="white"/>
<path d="M62.8395 68.377L63.7063 67.7472L63.3914 67.3138" fill="white"/>
<path d="M62.8395 68.377L63.1706 67.358L63.6801 67.5235" fill="white"/>
<path d="M59.9999 63.7449L59.6688 64.7639L60.1783 64.9294" fill="white"/>
<path d="M59.9999 63.7449L60.331 64.7639L59.8215 64.9294" fill="white"/>
<path d="M61.0189 64.4852H59.9475V65.0209" fill="white"/>
<path d="M61.0189 64.4852L60.1521 65.115L59.8372 64.6816" fill="white"/>
<path d="M58.9809 64.4852L59.8477 65.115L60.1626 64.6816" fill="white"/>
<path d="M58.9809 64.4852H60.0523V65.0209" fill="white"/>
<path d="M60.6297 65.6831L60.2986 64.6641L59.7891 64.8297" fill="white"/>
<path d="M60.6297 65.6831L59.7629 65.0533L60.0777 64.6199" fill="white"/>
<path d="M59.3701 65.6831L60.2369 65.0533L59.922 64.6199" fill="white"/>
<path d="M59.3701 65.6831L59.7012 64.6641L60.2107 64.8297" fill="white"/>
<path d="M56.9795 66.653L56.7146 67.4682L57.1222 67.6007" fill="white"/>
<path d="M56.9795 66.653L57.2444 67.4682L56.8368 67.6007" fill="white"/>
<path d="M57.7947 67.2453H56.9375V67.6739" fill="white"/>
<path d="M57.7947 67.2453L57.1012 67.7491L56.8493 67.4024" fill="white"/>
<path d="M56.1643 67.2453L56.8577 67.7491L57.1096 67.4024" fill="white"/>
<path d="M56.1643 67.2453H57.0214V67.6739" fill="white"/>
<path d="M57.4833 68.2036L57.2184 67.3884L56.8108 67.5209" fill="white"/>
<path d="M57.4833 68.2036L56.7899 67.6998L57.0418 67.3531" fill="white"/>
<path d="M56.4757 68.2036L57.1691 67.6998L56.9172 67.3531" fill="white"/>
<path d="M56.4757 68.2036L56.7405 67.3884L57.1481 67.5209" fill="white"/>
<path d="M58.4897 68.9796L58.3005 69.5618L58.5916 69.6564" fill="white"/>
<path d="M58.4897 68.9796L58.6789 69.5618L58.3877 69.6564" fill="white"/>
<path d="M59.072 69.4026H58.4597V69.7087" fill="white"/>
<path d="M59.072 69.4026L58.5767 69.7625L58.3967 69.5148" fill="white"/>
<path d="M57.9074 69.4026L58.4027 69.7625L58.5827 69.5148" fill="white"/>
<path d="M57.9074 69.4026H58.5197V69.7087" fill="white"/>
<path d="M58.8496 70.0871L58.6604 69.5049L58.3692 69.5994" fill="white"/>
<path d="M58.8496 70.0871L58.3542 69.7273L58.5342 69.4796" fill="white"/>
<path d="M58.1298 70.0871L58.6251 69.7273L58.4452 69.4796" fill="white"/>
<path d="M58.1298 70.0871L58.319 69.5049L58.6102 69.5994" fill="white"/>
<path d="M68.9795 79.1326L68.6484 80.1516L69.1579 80.3172" fill="white"/>
<path d="M68.9795 79.1326L69.3106 80.1516L68.8011 80.3172" fill="white"/>
<path d="M69.9985 79.873H68.927V80.4087" fill="white"/>
<path d="M69.9985 79.873L69.1317 80.5027L68.8168 80.0693" fill="white"/>
<path d="M67.9605 79.873L68.8273 80.5027L69.1422 80.0693" fill="white"/>
<path d="M67.9605 79.873H69.0319V80.4087" fill="white"/>
<path d="M69.6093 81.0709L69.2782 80.0519L68.7687 80.2174" fill="white"/>
<path d="M69.6093 81.0709L68.7425 80.4411L69.0573 80.0077" fill="white"/>
<path d="M68.3497 81.0709L69.2165 80.4411L68.9016 80.0077" fill="white"/>
<path d="M68.3497 81.0709L68.6808 80.0519L69.1903 80.2174" fill="white"/>
<path d="M71.5509 76.6939L71.286 77.509L71.6936 77.6415" fill="white"/>
<path d="M71.5509 76.6939L71.8158 77.509L71.4082 77.6415" fill="white"/>
<path d="M72.3661 77.2861H71.509V77.7147" fill="white"/>
<path d="M72.3661 77.2861L71.6727 77.7899L71.4208 77.4432" fill="white"/>
<path d="M70.7357 77.2861L71.4292 77.7899L71.6811 77.4432" fill="white"/>
<path d="M70.7357 77.2861H71.5929V77.7147" fill="white"/>
<path d="M72.0547 78.2444L71.7899 77.4293L71.3823 77.5617" fill="white"/>
<path d="M72.0547 78.2444L71.3613 77.7406L71.6132 77.3939" fill="white"/>
<path d="M71.0471 78.2444L71.7405 77.7406L71.4886 77.3939" fill="white"/>
<path d="M71.0471 78.2444L71.312 77.4293L71.7196 77.5617" fill="white"/>
<path d="M66.6121 75.9592L66.3473 76.7744L66.7549 76.9068" fill="white"/>
<path d="M66.6121 75.9592L66.877 76.7744L66.4694 76.9068" fill="white"/>
<path d="M67.4273 76.5514H66.5702V76.98" fill="white"/>
<path d="M67.4273 76.5514L66.7339 77.0553L66.482 76.7085" fill="white"/>
<path d="M65.7969 76.5514L66.4904 77.0553L66.7423 76.7085" fill="white"/>
<path d="M65.7969 76.5514H66.6541V76.98" fill="white"/>
<path d="M67.116 77.5098L66.8511 76.6946L66.4435 76.827" fill="white"/>
<path d="M67.116 77.5098L66.4225 77.0059L66.6744 76.6592" fill="white"/>
<path d="M66.1083 77.5098L66.8018 77.0059L66.5499 76.6592" fill="white"/>
<path d="M66.1083 77.5098L66.3732 76.6946L66.7808 76.827" fill="white"/>
<path d="M47.9591 74.6326L47.5618 75.8554L48.1732 76.0541" fill="white"/>
<path d="M47.9591 74.6326L48.3564 75.8554L47.745 76.0541" fill="white"/>
<path d="M49.1819 75.521H47.8962V76.1639" fill="white"/>
<path d="M49.1819 75.521L48.1417 76.2768L47.7638 75.7567" fill="white"/>
<path d="M46.7363 75.521L47.7765 76.2768L48.1543 75.7567" fill="white"/>
<path d="M46.7363 75.521H48.022V76.1639" fill="white"/>
<path d="M48.7148 76.9585L48.3175 75.7357L47.7061 75.9344" fill="white"/>
<path d="M48.7148 76.9585L47.6746 76.2028L48.0525 75.6827" fill="white"/>
<path d="M47.2034 76.9585L48.2435 76.2028L47.8657 75.6827" fill="white"/>
<path d="M47.2034 76.9585L47.6007 75.7357L48.2121 75.9344" fill="white"/>
<path d="M59.9999 83.0408L59.8675 83.4484L60.0713 83.5146" fill="white"/>
<path d="M59.9999 83.0408L60.1323 83.4484L59.9285 83.5146" fill="white"/>
<path d="M60.4075 83.3369H59.9789V83.5512" fill="white"/>
<path d="M60.4075 83.3369L60.0608 83.5888L59.9348 83.4155" fill="white"/>
<path d="M59.5923 83.3369L59.939 83.5888L60.065 83.4155" fill="white"/>
<path d="M59.5923 83.3369H60.0209V83.5512" fill="white"/>
<path d="M60.2518 83.8161L60.1194 83.4085L59.9156 83.4747" fill="white"/>
<path d="M60.2518 83.8161L59.9051 83.5642L60.031 83.3908" fill="white"/>
<path d="M59.748 83.8161L60.0947 83.5642L59.9688 83.3908" fill="white"/>
<path d="M59.748 83.8161L59.8804 83.4085L60.0842 83.4747" fill="white"/>
</svg>
