<svg width="120" height="120" viewBox="0 0 120 120" fill="none" xmlns="http://www.w3.org/2000/svg">
<g clip-path="url(#clip0_307_86900)">
<path d="M0 0H120V120H0V0Z" fill="#1E9A1C"/>
<path d="M3.85547 60L60.0005 105.429L116.145 60L60.0005 14.5714L3.85547 60Z" fill="#FDD406"/>
<path d="M59.8555 90C76.424 90 89.8555 76.5685 89.8555 60C89.8555 43.4315 76.424 30 59.8555 30C43.2869 30 29.8555 43.4315 29.8555 60C29.8555 76.5685 43.2869 90 59.8555 90Z" fill="#0F3296"/>
<path d="M30.8086 52.4694C34.7127 51.7812 38.6945 51.4285 42.7127 51.4285C59.6546 51.4285 75.95 57.6981 88.4971 68.9524C88.9759 67.4188 89.335 65.8323 89.5634 64.2038C76.4917 53.227 59.9159 47.1428 42.7127 47.1428C39.244 47.1428 35.8008 47.3902 32.4067 47.8751C31.7551 49.3481 31.2186 50.8833 30.8086 52.4694Z" fill="white"/>
<path d="M43.8457 50.7116L46.4155 50.8013L46.4341 50.2711L44.3537 50.1984L44.3793 49.4642L46.011 49.5211L46.0281 49.0316L44.3964 48.9747L44.4164 48.4036L46.3744 48.472L46.3929 47.9417L43.9454 47.8562L43.8457 50.7116Z" fill="#1E9A1C"/>
<path fill-rule="evenodd" clip-rule="evenodd" d="M41.5644 50.7237L40.2177 50.7472L40.1678 47.8905L41.5145 47.867C41.6753 47.8642 41.8351 47.8931 41.9847 47.952C42.1343 48.011 42.2708 48.0988 42.3865 48.2105C42.5022 48.3222 42.5947 48.4556 42.6588 48.6031C42.723 48.7505 42.7574 48.9092 42.7602 49.07L42.7673 49.4781C42.7701 49.6388 42.7413 49.7986 42.6823 49.9482C42.6234 50.0978 42.5356 50.2344 42.4239 50.35C42.3122 50.4657 42.1788 50.5582 42.0313 50.6224C41.8838 50.6865 41.7252 50.7209 41.5644 50.7237ZM41.5143 50.1939L40.7389 50.2074L40.7076 48.4118L41.483 48.3983C41.6886 48.3947 41.8873 48.4729 42.0352 48.6158C42.1832 48.7587 42.2683 48.9545 42.2719 49.1601L42.2762 49.405C42.2798 49.6106 42.2015 49.8093 42.0587 49.9572C41.9158 50.1052 41.72 50.1903 41.5143 50.1939Z" fill="#1E9A1C"/>
<path fill-rule="evenodd" clip-rule="evenodd" d="M37.1262 50.9357L36.5968 50.9727L36.4383 48.1197L38.0669 48.0058C38.3045 47.9892 38.539 48.0677 38.7187 48.2239C38.8984 48.3801 39.0087 48.6014 39.0253 48.839C39.042 49.0765 38.9635 49.311 38.8073 49.4907C38.7593 49.5459 38.7053 49.5945 38.6465 49.6359C38.9543 49.8707 38.9973 50.4857 39.0195 50.8033L38.5309 50.8375C38.5119 50.5651 38.4775 50.0741 38.1887 49.7976L37.0521 49.8771L37.1262 50.9357ZM38.1145 49.2709L37.0151 49.3478L36.9639 48.6149L38.0632 48.538C38.1604 48.5312 38.2563 48.5633 38.3299 48.6272C38.4034 48.6911 38.4485 48.7816 38.4553 48.8788C38.4621 48.976 38.43 49.0719 38.3661 49.1454C38.3022 49.219 38.2117 49.2641 38.1145 49.2709Z" fill="#1E9A1C"/>
<path fill-rule="evenodd" clip-rule="evenodd" d="M35.1201 50.7046C34.9134 50.9999 34.6071 51.1891 34.2687 51.2307C33.9302 51.2723 33.5873 51.1627 33.3153 50.9262C33.0434 50.6897 32.8646 50.3455 32.8185 49.9695C32.7723 49.5934 32.8625 49.2162 33.0691 48.921C33.2758 48.6257 33.582 48.4364 33.9205 48.3949C34.2589 48.3533 34.6019 48.4628 34.8739 48.6994C35.1458 48.9359 35.3246 49.28 35.3707 49.6561C35.4169 50.0321 35.3267 50.4093 35.1201 50.7046ZM34.7019 50.3779C34.5819 50.5623 34.4028 50.6796 34.204 50.704C34.0053 50.7285 33.8031 50.658 33.642 50.5081C33.4809 50.3582 33.3741 50.1412 33.3451 49.9048C33.3161 49.6684 33.3672 49.432 33.4873 49.2476C33.6073 49.0632 33.7864 48.9459 33.9852 48.9215C34.1839 48.8971 34.3861 48.9676 34.5472 49.1175C34.7083 49.2674 34.815 49.4844 34.8441 49.7208C34.8731 49.9571 34.822 50.1935 34.7019 50.3779Z" fill="#1E9A1C"/>
<path d="M47.9582 50.9086L47.4703 50.8659L47.7193 48.0196L48.4309 48.0818L48.8294 50.0834L49.5694 48.1815L50.281 48.2437L50.0319 51.09L49.544 51.0473L49.7148 49.0956L48.9748 50.9975L48.5275 50.9584L48.129 48.9568L47.9582 50.9086Z" fill="#1E9A1C"/>
<path d="M53.39 51.5336L55.502 51.8965L55.5849 51.4138L53.9557 51.1338L54.0663 50.4902L55.3938 50.7183L55.4767 50.2356L54.1493 50.0075L54.2253 49.565L55.8042 49.8363L55.8871 49.3535L53.8255 48.9993L53.39 51.5336Z" fill="#1E9A1C"/>
<path fill-rule="evenodd" clip-rule="evenodd" d="M59.3292 52.7321L58.8155 52.5993L59.5704 49.8433L61.151 50.2521C61.3816 50.3118 61.579 50.4605 61.6999 50.6657C61.8208 50.8709 61.8552 51.1158 61.7955 51.3463C61.7359 51.5769 61.5871 51.7743 61.3819 51.8952C61.1767 52.0161 60.9319 52.0505 60.7013 51.9908L59.5949 51.7047L59.3292 52.7321ZM60.7947 51.4669L59.7277 51.191L59.9117 50.4797L60.9786 50.7556C61.073 50.78 61.1537 50.8409 61.2032 50.9248C61.2526 51.0088 61.2667 51.1089 61.2423 51.2032C61.2179 51.2976 61.157 51.3783 61.0731 51.4278C60.9892 51.4772 60.889 51.4913 60.7947 51.4669Z" fill="#1E9A1C"/>
<path fill-rule="evenodd" clip-rule="evenodd" d="M62.3209 53.5344L62.8269 53.6939L63.146 52.6818L64.2327 53.0245C64.4 53.3876 64.252 53.857 64.1699 54.1174L64.637 54.2647C64.7328 53.961 64.9182 53.373 64.7178 53.0417C64.7877 53.0248 64.8558 52.9993 64.9206 52.9656C65.1319 52.8556 65.2908 52.6663 65.3624 52.4391C65.434 52.212 65.4125 51.9657 65.3025 51.7545C65.1925 51.5432 65.0032 51.3843 64.776 51.3127L63.2189 50.8218L62.3209 53.5344ZM63.3056 52.1758L64.3566 52.5072C64.4495 52.5365 64.5503 52.5277 64.6367 52.4827C64.7231 52.4377 64.7881 52.3602 64.8174 52.2673C64.8467 52.1744 64.8379 52.0736 64.7929 51.9872C64.7479 51.9008 64.6705 51.8358 64.5775 51.8065L63.5265 51.4751L63.3056 52.1758Z" fill="#1E9A1C"/>
<path fill-rule="evenodd" clip-rule="evenodd" d="M66.977 55.102C67.2964 55.2214 67.6554 55.1949 67.9751 55.0284C68.2947 54.8619 68.5489 54.569 68.6816 54.2141C68.8143 53.8592 68.8146 53.4715 68.6826 53.1361C68.5506 52.8007 68.297 52.5452 67.9776 52.4258C67.6582 52.3063 67.2991 52.3328 66.9795 52.4993C66.6598 52.6658 66.4057 52.9587 66.273 53.3136C66.1403 53.6685 66.1399 54.0563 66.2719 54.3917C66.404 54.727 66.6576 54.9825 66.977 55.102ZM67.1628 54.605C67.3504 54.6751 67.5634 54.6537 67.755 54.5456C67.9466 54.4375 68.1012 54.2514 68.1846 54.0283C68.268 53.8052 68.2734 53.5634 68.1998 53.3561C68.1261 53.1488 67.9793 52.9929 67.7917 52.9228C67.6042 52.8526 67.3911 52.874 67.1995 52.9821C67.0079 53.0903 66.8534 53.2764 66.77 53.4994C66.6866 53.7225 66.6811 53.9643 66.7548 54.1716C66.8284 54.3789 66.9752 54.5348 67.1628 54.605Z" fill="#1E9A1C"/>
<path d="M72.1463 54.5868C72.032 54.245 71.7921 53.9766 71.4794 53.8406C71.1667 53.7046 70.8068 53.7122 70.4788 53.8618C70.1509 54.0113 69.8817 54.2905 69.7307 54.638C69.5796 54.9855 69.5589 55.3727 69.6732 55.7145C69.7875 56.0564 70.0274 56.3248 70.3401 56.4608C70.6394 56.5909 70.9819 56.5895 71.2983 56.458L71.145 56.8107L71.5193 56.9735L72.0889 55.6634L71.097 55.2321L70.9342 55.6064L71.3638 55.7932C71.298 55.8551 71.2247 55.9068 71.1462 55.9459C70.9492 56.0438 70.7353 56.054 70.5517 55.9742C70.368 55.8943 70.2296 55.731 70.1669 55.5201C70.1042 55.3092 70.1223 55.068 70.2173 54.8496C70.3122 54.6312 70.4763 54.4534 70.6733 54.3555C70.8703 54.2575 71.0841 54.2473 71.2678 54.3272C71.4515 54.4071 71.5899 54.5704 71.6526 54.7813C71.6692 54.837 71.6801 54.8949 71.6854 54.9539L72.2127 55.1831C72.2315 54.9801 72.2097 54.7765 72.1463 54.5868Z" fill="#1E9A1C"/>
<path fill-rule="evenodd" clip-rule="evenodd" d="M72.4769 57.4201L72.9518 57.6569L73.4253 56.7071L74.445 57.2155C74.5535 57.6003 74.3338 58.0408 74.212 58.2852L74.6504 58.5037C74.7924 58.2188 75.0675 57.667 74.9215 57.3085C74.9931 57.3027 75.0644 57.2882 75.1337 57.265C75.3595 57.1895 75.5461 57.0273 75.6524 56.8141C75.7586 56.601 75.7759 56.3544 75.7003 56.1285C75.6248 55.9027 75.4626 55.7161 75.2494 55.6099L73.7883 54.8814L72.4769 57.4201ZM73.6621 56.2323L74.6483 56.724C74.7355 56.7675 74.8364 56.7745 74.9288 56.7436C75.0212 56.7127 75.0975 56.6464 75.141 56.5592C75.1845 56.472 75.1915 56.3711 75.1606 56.2787C75.1297 56.1863 75.0633 56.11 74.9761 56.0665L73.9899 55.5748L73.6621 56.2323Z" fill="#1E9A1C"/>
<path d="M75.7113 59.0637L77.9494 60.3299L78.2107 59.8681L76.3989 58.843L76.7607 58.2036L78.1817 59.0075L78.4229 58.5812L77.0019 57.7773L77.2833 57.2799L78.9884 58.2447L79.2497 57.7829L77.1182 56.5769L75.7113 59.0637Z" fill="#1E9A1C"/>
<path d="M80.2264 61.191C79.8822 60.9717 79.7265 60.7032 79.8801 60.4623L79.3379 60.1168C78.9524 60.7182 79.5439 61.3128 79.9398 61.565C80.4045 61.8611 81.1009 62.1353 81.5011 61.5071C81.8222 61.0031 81.3337 60.5337 80.9363 60.1518C80.6618 59.8881 80.4307 59.6661 80.5395 59.5031C80.6985 59.2535 80.9152 59.3311 81.182 59.5011C81.4574 59.6765 81.6381 59.9247 81.4736 60.1829L81.9986 60.5173C82.3855 59.929 81.888 59.4185 81.5782 59.2211L81.5385 59.1957C81.203 58.98 80.4277 58.4814 79.9668 59.1866C79.6493 59.6741 80.1 60.1162 80.4883 60.4971C80.7811 60.7844 81.0385 61.0368 80.9041 61.2477C80.8051 61.4024 80.5706 61.4103 80.2264 61.191Z" fill="#1E9A1C"/>
<path d="M82.9449 62.4891C82.779 62.7217 82.9203 62.998 83.2526 63.235C83.5849 63.472 83.8194 63.4764 83.9264 63.3271C84.0716 63.1235 83.8278 62.8579 83.5504 62.5557C83.1826 62.155 82.7557 61.6899 83.0983 61.2197C83.5954 60.5396 84.3436 61.0781 84.6674 61.311L84.7056 61.3385C85.0047 61.5518 85.4748 62.0876 85.0576 62.6549L84.5509 62.2935C84.7286 62.0442 84.5612 61.787 84.2954 61.5973C84.0379 61.4136 83.8255 61.3248 83.6536 61.5657C83.5365 61.7228 83.7556 61.9566 84.0159 62.2343C84.3928 62.6365 84.8561 63.1308 84.509 63.6173C84.0765 64.2237 83.3954 63.9134 82.9468 63.5934C82.5647 63.3208 82.0051 62.6961 82.4215 62.1158L82.9449 62.4891Z" fill="#1E9A1C"/>
<path fill-rule="evenodd" clip-rule="evenodd" d="M86.8159 66.0149C86.4604 66.0745 86.1108 65.9887 85.8439 65.7764C85.577 65.5641 85.4148 65.2428 85.3929 64.883C85.3709 64.5232 85.4911 64.1545 85.727 63.858C85.9628 63.5615 86.2951 63.3615 86.6505 63.3019C87.006 63.2423 87.3556 63.3281 87.6225 63.5404C87.8894 63.7527 88.0516 64.074 88.0735 64.4338C88.0955 64.7936 87.9753 65.1623 87.7394 65.4588C87.5035 65.7553 87.1713 65.9553 86.8159 66.0149ZM86.7558 65.4877C86.5401 65.5313 86.3309 65.4858 86.1742 65.3612C86.0175 65.2365 85.9261 65.0429 85.9201 64.8229C85.9141 64.603 85.994 64.3747 86.1422 64.1883C86.2905 64.002 86.4949 63.8727 86.7106 63.8291C86.9263 63.7855 87.1355 63.831 87.2922 63.9557C87.4489 64.0803 87.5403 64.2739 87.5463 64.4939C87.5523 64.7138 87.4724 64.9421 87.3241 65.1285C87.1759 65.3149 86.9714 65.4441 86.7558 65.4877Z" fill="#1E9A1C"/>
<path d="M35.3656 53.3266L34.9683 54.5494L35.5797 54.748" fill="white"/>
<path d="M35.3656 53.3266L35.7629 54.5494L35.1515 54.748" fill="white"/>
<path d="M36.5884 54.215H35.3026V54.8578" fill="white"/>
<path d="M36.5884 54.215L35.5482 54.9707L35.1703 54.4506" fill="white"/>
<path d="M34.1428 54.215L35.1829 54.9707L35.5608 54.4506" fill="white"/>
<path d="M34.1428 54.215H35.4285V54.8578" fill="white"/>
<path d="M36.1213 55.6524L35.724 54.4297L35.1126 54.6283" fill="white"/>
<path d="M36.1213 55.6524L35.0811 54.8967L35.459 54.3766" fill="white"/>
<path d="M34.6098 55.6524L35.65 54.8967L35.2721 54.3766" fill="white"/>
<path d="M34.6098 55.6524L35.0072 54.4297L35.6185 54.6283" fill="white"/>
<path d="M38.0186 65.9388L37.6213 67.1616L38.2327 67.3603" fill="white"/>
<path d="M38.0186 65.9388L38.4159 67.1616L37.8045 67.3603" fill="white"/>
<path d="M39.2414 66.8272H37.9557V67.4701" fill="white"/>
<path d="M39.2414 66.8272L38.2013 67.5829L37.8234 67.0629" fill="white"/>
<path d="M36.7958 66.8272L37.836 67.5829L38.2139 67.0629" fill="white"/>
<path d="M36.7958 66.8272H38.0816V67.4701" fill="white"/>
<path d="M38.7744 68.2647L38.377 67.0419L37.7657 67.2406" fill="white"/>
<path d="M38.7744 68.2647L37.7342 67.509L38.1121 66.9889" fill="white"/>
<path d="M37.2629 68.2647L38.3031 67.509L37.9252 66.9889" fill="white"/>
<path d="M37.2629 68.2647L37.6602 67.0419L38.2716 67.2406" fill="white"/>
<path d="M34.3452 68.847L34.0141 69.866L34.5236 70.0315" fill="white"/>
<path d="M34.3452 68.847L34.6762 69.866L34.1668 70.0315" fill="white"/>
<path d="M35.3641 69.5873H34.2927V70.123" fill="white"/>
<path d="M35.3641 69.5873L34.4973 70.2171L34.1825 69.7837" fill="white"/>
<path d="M33.3262 69.5873L34.193 70.2171L34.5079 69.7837" fill="white"/>
<path d="M33.3262 69.5873H34.3976V70.123" fill="white"/>
<path d="M34.9749 70.7852L34.6438 69.7662L34.1343 69.9318" fill="white"/>
<path d="M34.9749 70.7852L34.1081 70.1554L34.423 69.722" fill="white"/>
<path d="M33.7154 70.7852L34.5822 70.1554L34.2673 69.722" fill="white"/>
<path d="M33.7154 70.7852L34.0465 69.7662L34.556 69.9318" fill="white"/>
<path d="M40.9574 64.7756L40.7682 65.3578L41.0594 65.4524" fill="white"/>
<path d="M40.9574 64.7756L41.1466 65.3578L40.8555 65.4524" fill="white"/>
<path d="M41.5397 65.1986H40.9274V65.5047" fill="white"/>
<path d="M41.5397 65.1986L41.0444 65.5585L40.8644 65.3108" fill="white"/>
<path d="M40.3751 65.1986L40.8704 65.5585L41.0504 65.3108" fill="white"/>
<path d="M40.3751 65.1986H40.9874V65.5047" fill="white"/>
<path d="M41.3173 65.8831L41.1281 65.3008L40.8369 65.3954" fill="white"/>
<path d="M41.3173 65.8831L40.822 65.5232L41.0019 65.2756" fill="white"/>
<path d="M40.5975 65.8831L41.0929 65.5232L40.9129 65.2756" fill="white"/>
<path d="M40.5975 65.8831L40.7867 65.3008L41.0779 65.3954" fill="white"/>
<path d="M44.2635 69.1327L43.9324 70.1517L44.4419 70.3172" fill="white"/>
<path d="M44.2635 69.1327L44.5946 70.1517L44.0851 70.3172" fill="white"/>
<path d="M45.2825 69.873H44.2111V70.4087" fill="white"/>
<path d="M45.2825 69.873L44.4157 70.5028L44.1008 70.0694" fill="white"/>
<path d="M43.2445 69.873L44.1113 70.5028L44.4262 70.0694" fill="white"/>
<path d="M43.2445 69.873H44.316V70.4087" fill="white"/>
<path d="M44.8933 71.0709L44.5622 70.0519L44.0527 70.2175" fill="white"/>
<path d="M44.8933 71.0709L44.0265 70.4412L44.3414 70.0078" fill="white"/>
<path d="M43.6338 71.0709L44.5006 70.4412L44.1857 70.0078" fill="white"/>
<path d="M43.6338 71.0709L43.9648 70.0519L44.4743 70.2175" fill="white"/>
<path d="M43.3656 72.3266L43.1007 73.1418L43.5083 73.2742" fill="white"/>
<path d="M43.3656 72.3266L43.6304 73.1418L43.2228 73.2742" fill="white"/>
<path d="M44.1808 72.9188H43.3236V73.3474" fill="white"/>
<path d="M44.1808 72.9188L43.4873 73.4227L43.2354 73.0759" fill="white"/>
<path d="M42.5504 72.9188L43.2438 73.4227L43.4957 73.0759" fill="white"/>
<path d="M42.5504 72.9188H43.4075V73.3474" fill="white"/>
<path d="M43.8694 73.8772L43.6045 73.062L43.1969 73.1944" fill="white"/>
<path d="M43.8694 73.8772L43.1759 73.3733L43.4278 73.0266" fill="white"/>
<path d="M42.8618 73.8772L43.5552 73.3733L43.3033 73.0266" fill="white"/>
<path d="M42.8618 73.8772L43.1266 73.062L43.5342 73.1944" fill="white"/>
<path d="M69.1615 49.4082L68.7642 50.631L69.3756 50.8296" fill="white"/>
<path d="M69.1615 49.4082L69.5588 50.631L68.9474 50.8296" fill="white"/>
<path d="M70.3843 50.2966H69.0986V50.9395" fill="white"/>
<path d="M70.3843 50.2966L69.3441 51.0523L68.9662 50.5323" fill="white"/>
<path d="M67.9387 50.2966L68.9789 51.0523L69.3567 50.5323" fill="white"/>
<path d="M67.9387 50.2966H69.2244V50.9395" fill="white"/>
<path d="M69.9172 51.7341L69.5199 50.5113L68.9085 50.7099" fill="white"/>
<path d="M69.9172 51.7341L68.877 50.9784L69.2549 50.4583" fill="white"/>
<path d="M68.4058 51.7341L69.4459 50.9784L69.0681 50.4583" fill="white"/>
<path d="M68.4058 51.7341L68.8031 50.5113L69.4145 50.7099" fill="white"/>
<path d="M80.8758 69.2449L80.4785 70.4677L81.0899 70.6664" fill="white"/>
<path d="M80.8758 69.2449L81.2731 70.4677L80.6617 70.6664" fill="white"/>
<path d="M82.0986 70.1333H80.8128V70.7762" fill="white"/>
<path d="M82.0986 70.1333L81.0584 70.8891L80.6805 70.369" fill="white"/>
<path d="M79.653 70.1333L80.6932 70.8891L81.071 70.369" fill="white"/>
<path d="M79.653 70.1333H80.9387V70.7762" fill="white"/>
<path d="M81.6315 71.5708L81.2342 70.348L80.6228 70.5467" fill="white"/>
<path d="M81.6315 71.5708L80.5913 70.8151L80.9692 70.295" fill="white"/>
<path d="M80.1201 71.5708L81.1602 70.8151L80.7824 70.295" fill="white"/>
<path d="M80.1201 71.5708L80.5174 70.348L81.1288 70.5467" fill="white"/>
<path d="M85.039 69.9592L84.7742 70.7744L85.1818 70.9069" fill="white"/>
<path d="M85.039 69.9592L85.3039 70.7744L84.8963 70.9069" fill="white"/>
<path d="M85.8542 70.5515H84.9971V70.9801" fill="white"/>
<path d="M85.8542 70.5515L85.1608 71.0553L84.9089 70.7086" fill="white"/>
<path d="M84.2239 70.5515L84.9173 71.0553L85.1692 70.7086" fill="white"/>
<path d="M84.2239 70.5515H85.081V70.9801" fill="white"/>
<path d="M85.5429 71.5098L85.278 70.6946L84.8704 70.8271" fill="white"/>
<path d="M85.5429 71.5098L84.8494 71.006L85.1013 70.6593" fill="white"/>
<path d="M84.5352 71.5098L85.2287 71.006L84.9768 70.6593" fill="white"/>
<path d="M84.5352 71.5098L84.8001 70.6946L85.2077 70.8271" fill="white"/>
<path d="M82.1003 72.1123L81.7692 73.1313L82.2787 73.2968" fill="white"/>
<path d="M82.1003 72.1123L82.4314 73.1313L81.9219 73.2968" fill="white"/>
<path d="M83.1193 72.8526H82.0478V73.3883" fill="white"/>
<path d="M83.1193 72.8526L82.2525 73.4824L81.9376 73.049" fill="white"/>
<path d="M81.0813 72.8526L81.9481 73.4824L82.263 73.049" fill="white"/>
<path d="M81.0813 72.8526H82.1527V73.3883" fill="white"/>
<path d="M82.73 74.0505L82.3989 73.0315L81.8895 73.1971" fill="white"/>
<path d="M82.73 74.0505L81.8632 73.4207L82.1781 72.9873" fill="white"/>
<path d="M81.4705 74.0505L82.3373 73.4207L82.0224 72.9873" fill="white"/>
<path d="M81.4705 74.0505L81.8016 73.0315L82.3111 73.1971" fill="white"/>
<path d="M74.8758 78.398L74.5447 79.417L75.0542 79.5825" fill="white"/>
<path d="M74.8758 78.398L75.2069 79.417L74.6974 79.5825" fill="white"/>
<path d="M75.8948 79.1383H74.8233V79.6741" fill="white"/>
<path d="M75.8948 79.1383L75.028 79.7681L74.7131 79.3347" fill="white"/>
<path d="M73.8568 79.1383L74.7236 79.7681L75.0385 79.3347" fill="white"/>
<path d="M73.8568 79.1383H74.9282V79.6741" fill="white"/>
<path d="M75.5055 80.3362L75.1745 79.3172L74.665 79.4828" fill="white"/>
<path d="M75.5055 80.3362L74.6387 79.7065L74.9536 79.2731" fill="white"/>
<path d="M74.246 80.3362L75.1128 79.7065L74.7979 79.2731" fill="white"/>
<path d="M74.246 80.3362L74.5771 79.3172L75.0866 79.4828" fill="white"/>
<path d="M74.835 81.6327L74.5701 82.4479L74.9777 82.5803" fill="white"/>
<path d="M74.835 81.6327L75.0998 82.4479L74.6922 82.5803" fill="white"/>
<path d="M75.6501 82.225H74.793V82.6535" fill="white"/>
<path d="M75.6501 82.225L74.9567 82.7288L74.7048 82.3821" fill="white"/>
<path d="M74.0198 82.225L74.7132 82.7288L74.9651 82.3821" fill="white"/>
<path d="M74.0198 82.225H74.8769V82.6535" fill="white"/>
<path d="M75.3388 83.1833L75.0739 82.3681L74.6663 82.5005" fill="white"/>
<path d="M75.3388 83.1833L74.6453 82.6795L74.8972 82.3327" fill="white"/>
<path d="M74.3311 83.1833L75.0246 82.6795L74.7727 82.3327" fill="white"/>
<path d="M74.3311 83.1833L74.596 82.3681L75.0036 82.5005" fill="white"/>
<path d="M77.8554 76.2449L77.5905 77.0601L77.9981 77.1926" fill="white"/>
<path d="M77.8554 76.2449L78.1202 77.0601L77.7126 77.1926" fill="white"/>
<path d="M78.6706 76.8372H77.8134V77.2658" fill="white"/>
<path d="M78.6706 76.8372L77.9771 77.341L77.7252 76.9943" fill="white"/>
<path d="M77.0402 76.8372L77.7336 77.341L77.9855 76.9943" fill="white"/>
<path d="M77.0402 76.8372H77.8973V77.2658" fill="white"/>
<path d="M78.3592 77.7955L78.0943 76.9803L77.6867 77.1128" fill="white"/>
<path d="M78.3592 77.7955L77.6657 77.2917L77.9176 76.945" fill="white"/>
<path d="M77.3516 77.7955L78.045 77.2917L77.7931 76.945" fill="white"/>
<path d="M77.3516 77.7955L77.6164 76.9803L78.024 77.1128" fill="white"/>
<path d="M80.2635 74.5204L79.9324 75.5394L80.4419 75.705" fill="white"/>
<path d="M80.2635 74.5204L80.5946 75.5394L80.0851 75.705" fill="white"/>
<path d="M81.2825 75.2608H80.2111V75.7965" fill="white"/>
<path d="M81.2825 75.2608L80.4157 75.8906L80.1008 75.4572" fill="white"/>
<path d="M79.2445 75.2608L80.1113 75.8906L80.4262 75.4572" fill="white"/>
<path d="M79.2445 75.2608H80.316V75.7965" fill="white"/>
<path d="M80.8933 76.4587L80.5622 75.4397L80.0527 75.6052" fill="white"/>
<path d="M80.8933 76.4587L80.0265 75.8289L80.3414 75.3955" fill="white"/>
<path d="M79.6338 76.4587L80.5006 75.8289L80.1857 75.3955" fill="white"/>
<path d="M79.6338 76.4587L79.9648 75.4397L80.4743 75.6052" fill="white"/>
<path d="M74.7533 75.6735L74.4885 76.4887L74.896 76.6211" fill="white"/>
<path d="M74.7533 75.6735L75.0182 76.4887L74.6106 76.6211" fill="white"/>
<path d="M75.5685 76.2658H74.7114V76.6944" fill="white"/>
<path d="M75.5685 76.2658L74.8751 76.7696L74.6232 76.4229" fill="white"/>
<path d="M73.9381 76.2658L74.6316 76.7696L74.8835 76.4229" fill="white"/>
<path d="M73.9381 76.2658H74.7953V76.6944" fill="white"/>
<path d="M75.2571 77.2241L74.9923 76.4089L74.5847 76.5413" fill="white"/>
<path d="M75.2571 77.2241L74.5637 76.7203L74.8156 76.3736" fill="white"/>
<path d="M74.2495 77.2241L74.943 76.7203L74.691 76.3736" fill="white"/>
<path d="M74.2495 77.2241L74.5144 76.4089L74.922 76.5413" fill="white"/>
<path d="M48.4268 60.1531L48.0957 61.1721L48.6052 61.3376" fill="white"/>
<path d="M48.4268 60.1531L48.7579 61.1721L48.2484 61.3376" fill="white"/>
<path d="M49.4458 60.8934H48.3744V61.4292" fill="white"/>
<path d="M49.4458 60.8934L48.579 61.5232L48.2641 61.0898" fill="white"/>
<path d="M47.4078 60.8934L48.2746 61.5232L48.5895 61.0898" fill="white"/>
<path d="M47.4078 60.8934H48.4792V61.4292" fill="white"/>
<path d="M49.0566 62.0913L48.7255 61.0723L48.216 61.2379" fill="white"/>
<path d="M49.0566 62.0913L48.1898 61.4616L48.5046 61.0282" fill="white"/>
<path d="M47.797 62.0913L48.6638 61.4616L48.3489 61.0282" fill="white"/>
<path d="M47.797 62.0913L48.1281 61.0723L48.6376 61.2379" fill="white"/>
<path d="M68.0186 57.6327L67.7538 58.4479L68.1614 58.5803" fill="white"/>
<path d="M68.0186 57.6327L68.2835 58.4479L67.8759 58.5803" fill="white"/>
<path d="M68.8338 58.225H67.9767V58.6535" fill="white"/>
<path d="M68.8338 58.225L68.1404 58.7288L67.8885 58.3821" fill="white"/>
<path d="M67.2034 58.225L67.8969 58.7288L68.1488 58.3821" fill="white"/>
<path d="M67.2034 58.225H68.0606V58.6535" fill="white"/>
<path d="M68.5224 59.1833L68.2576 58.3681L67.85 58.5005" fill="white"/>
<path d="M68.5224 59.1833L67.829 58.6795L68.0809 58.3327" fill="white"/>
<path d="M67.5148 59.1833L68.2083 58.6795L67.9564 58.3327" fill="white"/>
<path d="M67.5148 59.1833L67.7797 58.3681L68.1873 58.5005" fill="white"/>
<path d="M59.8554 72.1837L59.4581 73.4065L60.0695 73.6052" fill="white"/>
<path d="M59.8554 72.1837L60.2527 73.4065L59.6413 73.6052" fill="white"/>
<path d="M61.0782 73.0721H59.7924V73.715" fill="white"/>
<path d="M61.0782 73.0721L60.038 73.8278L59.6601 73.3078" fill="white"/>
<path d="M58.6326 73.0721L59.6727 73.8278L60.0506 73.3078" fill="white"/>
<path d="M58.6326 73.0721H59.9183V73.715" fill="white"/>
<path d="M60.6111 74.5096L60.2138 73.2868L59.6024 73.4855" fill="white"/>
<path d="M60.6111 74.5096L59.5709 73.7539L59.9488 73.2338" fill="white"/>
<path d="M59.0996 74.5096L60.1398 73.7539L59.7619 73.2338" fill="white"/>
<path d="M59.0996 74.5096L59.4969 73.2868L60.1083 73.4855" fill="white"/>
<path d="M63.3248 66.4388L62.9937 67.4578L63.5032 67.6234" fill="white"/>
<path d="M63.3248 66.4388L63.6558 67.4578L63.1463 67.6234" fill="white"/>
<path d="M64.3437 67.1792H63.2723V67.7149" fill="white"/>
<path d="M64.3437 67.1792L63.4769 67.8089L63.1621 67.3755" fill="white"/>
<path d="M62.3058 67.1792L63.1726 67.8089L63.4875 67.3755" fill="white"/>
<path d="M62.3058 67.1792H63.3772V67.7149" fill="white"/>
<path d="M63.9545 68.3771L63.6234 67.3581L63.1139 67.5236" fill="white"/>
<path d="M63.9545 68.3771L63.0877 67.7473L63.4026 67.3139" fill="white"/>
<path d="M62.695 68.3771L63.5618 67.7473L63.2469 67.3139" fill="white"/>
<path d="M62.695 68.3771L63.0261 67.3581L63.5356 67.5236" fill="white"/>
<path d="M59.8554 63.7449L59.5243 64.7639L60.0338 64.9295" fill="white"/>
<path d="M59.8554 63.7449L60.1865 64.7639L59.677 64.9295" fill="white"/>
<path d="M60.8744 64.4853H59.8029V65.021" fill="white"/>
<path d="M60.8744 64.4853L60.0075 65.115L59.6927 64.6816" fill="white"/>
<path d="M58.8364 64.4853L59.7032 65.115L60.0181 64.6816" fill="white"/>
<path d="M58.8364 64.4853H59.9078V65.021" fill="white"/>
<path d="M60.4851 65.6832L60.154 64.6642L59.6445 64.8297" fill="white"/>
<path d="M60.4851 65.6832L59.6183 65.0534L59.9332 64.62" fill="white"/>
<path d="M59.2256 65.6832L60.0924 65.0534L59.7775 64.62" fill="white"/>
<path d="M59.2256 65.6832L59.5567 64.6642L60.0662 64.8297" fill="white"/>
<path d="M56.835 66.6531L56.5701 67.4683L56.9777 67.6007" fill="white"/>
<path d="M56.835 66.6531L57.0998 67.4683L56.6922 67.6007" fill="white"/>
<path d="M57.6501 67.2454H56.793V67.6739" fill="white"/>
<path d="M57.6501 67.2454L56.9567 67.7492L56.7048 67.4025" fill="white"/>
<path d="M56.0198 67.2454L56.7132 67.7492L56.9651 67.4025" fill="white"/>
<path d="M56.0198 67.2454H56.8769V67.6739" fill="white"/>
<path d="M57.3388 68.2037L57.0739 67.3885L56.6663 67.5209" fill="white"/>
<path d="M57.3388 68.2037L56.6453 67.6999L56.8972 67.3531" fill="white"/>
<path d="M56.3311 68.2037L57.0246 67.6999L56.7727 67.3531" fill="white"/>
<path d="M56.3311 68.2037L56.596 67.3885L57.0036 67.5209" fill="white"/>
<path d="M58.3452 68.9796L58.156 69.5619L58.4471 69.6565" fill="white"/>
<path d="M58.3452 68.9796L58.5344 69.5619L58.2432 69.6565" fill="white"/>
<path d="M58.9274 69.4027H58.3152V69.7088" fill="white"/>
<path d="M58.9274 69.4027L58.4321 69.7626L58.2522 69.5149" fill="white"/>
<path d="M57.7629 69.4027L58.2582 69.7626L58.4381 69.5149" fill="white"/>
<path d="M57.7629 69.4027H58.3751V69.7088" fill="white"/>
<path d="M58.705 70.0872L58.5158 69.5049L58.2247 69.5995" fill="white"/>
<path d="M58.705 70.0872L58.2097 69.7273L58.3896 69.4797" fill="white"/>
<path d="M57.9853 70.0872L58.4806 69.7273L58.3007 69.4797" fill="white"/>
<path d="M57.9853 70.0872L58.1745 69.5049L58.4656 69.5995" fill="white"/>
<path d="M68.835 79.1327L68.5039 80.1517L69.0134 80.3172" fill="white"/>
<path d="M68.835 79.1327L69.166 80.1517L68.6565 80.3172" fill="white"/>
<path d="M69.8539 79.873H68.7825V80.4087" fill="white"/>
<path d="M69.8539 79.873L68.9871 80.5028L68.6723 80.0694" fill="white"/>
<path d="M67.816 79.873L68.6828 80.5028L68.9977 80.0694" fill="white"/>
<path d="M67.816 79.873H68.8874V80.4087" fill="white"/>
<path d="M69.4647 81.0709L69.1336 80.0519L68.6241 80.2175" fill="white"/>
<path d="M69.4647 81.0709L68.5979 80.4412L68.9128 80.0078" fill="white"/>
<path d="M68.2052 81.0709L69.072 80.4412L68.7571 80.0078" fill="white"/>
<path d="M68.2052 81.0709L68.5363 80.0519L69.0458 80.2175" fill="white"/>
<path d="M71.4064 76.6939L71.1415 77.5091L71.5491 77.6415" fill="white"/>
<path d="M71.4064 76.6939L71.6713 77.5091L71.2637 77.6415" fill="white"/>
<path d="M72.2216 77.2862H71.3644V77.7148" fill="white"/>
<path d="M72.2216 77.2862L71.5281 77.79L71.2762 77.4433" fill="white"/>
<path d="M70.5912 77.2862L71.2846 77.79L71.5365 77.4433" fill="white"/>
<path d="M70.5912 77.2862H71.4483V77.7148" fill="white"/>
<path d="M71.9102 78.2445L71.6453 77.4293L71.2377 77.5617" fill="white"/>
<path d="M71.9102 78.2445L71.2168 77.7407L71.4687 77.394" fill="white"/>
<path d="M70.9026 78.2445L71.596 77.7407L71.3441 77.394" fill="white"/>
<path d="M70.9026 78.2445L71.1674 77.4293L71.575 77.5617" fill="white"/>
<path d="M66.4676 75.9592L66.2027 76.7744L66.6103 76.9069" fill="white"/>
<path d="M66.4676 75.9592L66.7325 76.7744L66.3249 76.9069" fill="white"/>
<path d="M67.2828 76.5515H66.4257V76.9801" fill="white"/>
<path d="M67.2828 76.5515L66.5894 77.0553L66.3374 76.7086" fill="white"/>
<path d="M65.6524 76.5515L66.3459 77.0553L66.5978 76.7086" fill="white"/>
<path d="M65.6524 76.5515H66.5096V76.9801" fill="white"/>
<path d="M66.9714 77.5098L66.7066 76.6946L66.299 76.8271" fill="white"/>
<path d="M66.9714 77.5098L66.278 77.006L66.5299 76.6593" fill="white"/>
<path d="M65.9638 77.5098L66.6572 77.006L66.4053 76.6593" fill="white"/>
<path d="M65.9638 77.5098L66.2287 76.6946L66.6363 76.8271" fill="white"/>
<path d="M47.8145 74.6327L47.4172 75.8555L48.0286 76.0541" fill="white"/>
<path d="M47.8145 74.6327L48.2119 75.8555L47.6005 76.0541" fill="white"/>
<path d="M49.0373 75.5211H47.7516V76.164" fill="white"/>
<path d="M49.0373 75.5211L47.9972 76.2768L47.6193 75.7567" fill="white"/>
<path d="M46.5918 75.5211L47.6319 76.2768L48.0098 75.7567" fill="white"/>
<path d="M46.5918 75.5211H47.8775V76.164" fill="white"/>
<path d="M48.5703 76.9586L48.173 75.7358L47.5616 75.9344" fill="white"/>
<path d="M48.5703 76.9586L47.5301 76.2028L47.908 75.6828" fill="white"/>
<path d="M47.0588 76.9586L48.099 76.2028L47.7211 75.6828" fill="white"/>
<path d="M47.0588 76.9586L47.4561 75.7358L48.0675 75.9344" fill="white"/>
<path d="M59.8554 83.0409L59.7229 83.4485L59.9267 83.5147" fill="white"/>
<path d="M59.8554 83.0409L59.9878 83.4485L59.784 83.5147" fill="white"/>
<path d="M60.263 83.337H59.8344V83.5513" fill="white"/>
<path d="M60.263 83.337L59.9162 83.5889L59.7903 83.4155" fill="white"/>
<path d="M59.4478 83.337L59.7945 83.5889L59.9204 83.4155" fill="white"/>
<path d="M59.4478 83.337H59.8763V83.5513" fill="white"/>
<path d="M60.1073 83.8162L59.9748 83.4086L59.771 83.4748" fill="white"/>
<path d="M60.1073 83.8162L59.7605 83.5642L59.8865 83.3909" fill="white"/>
<path d="M59.6035 83.8162L59.9502 83.5642L59.8242 83.3909" fill="white"/>
<path d="M59.6035 83.8162L59.7359 83.4086L59.9397 83.4748" fill="white"/>
</g>
<defs>
<clipPath id="clip0_307_86900">
<rect width="120" height="120" fill="white"/>
</clipPath>
</defs>
</svg>
