<svg width="120" height="120" viewBox="0 0 120 120" fill="none" xmlns="http://www.w3.org/2000/svg">
<g clip-path="url(#clip0_909_237126)">
<path d="M0 0H120V120H0V0Z" fill="#1E9A1C"/>
<path d="M3.85461 59.9999L59.9996 105.428L116.145 59.9999L59.9996 14.5713L3.85461 59.9999Z" fill="#FDD406"/>
<path d="M59.8546 90C76.4232 90 89.8546 76.5685 89.8546 60C89.8546 43.4315 76.4232 30 59.8546 30C43.2861 30 29.8546 43.4315 29.8546 60C29.8546 76.5685 43.2861 90 59.8546 90Z" fill="#0F3296"/>
<path d="M30.8077 52.4692C34.7118 51.781 38.6937 51.4283 42.7119 51.4283C59.6537 51.4283 75.9491 57.6979 88.4962 68.9522C88.9751 67.4186 89.3342 65.832 89.5625 64.2036C76.4908 53.2268 59.915 47.1426 42.7119 47.1426C39.2432 47.1426 35.8 47.3899 32.4059 47.8749C31.7543 49.3478 31.2178 50.8831 30.8077 52.4692Z" fill="white"/>
<path d="M43.8448 50.7114L46.4147 50.8011L46.4332 50.2708L44.3528 50.1982L44.3785 49.4639L46.0101 49.5209L46.0272 49.0314L44.3956 48.9744L44.4155 48.4033L46.3735 48.4717L46.392 47.9414L43.9445 47.856L43.8448 50.7114Z" fill="#1E9A1C"/>
<path fill-rule="evenodd" clip-rule="evenodd" d="M41.5635 50.7235L40.2168 50.747L40.167 47.8903L41.5137 47.8668C41.6745 47.864 41.8342 47.8929 41.9838 47.9518C42.1334 48.0107 42.27 48.0986 42.3857 48.2103C42.5013 48.322 42.5939 48.4554 42.658 48.6028C42.7221 48.7503 42.7566 48.9089 42.7594 49.0697L42.7665 49.4778C42.7693 49.6386 42.7404 49.7984 42.6815 49.948C42.6225 50.0976 42.5347 50.2341 42.423 50.3498C42.3113 50.4655 42.1779 50.558 42.0304 50.6221C41.883 50.6862 41.7243 50.7207 41.5635 50.7235ZM41.5135 50.1937L40.7381 50.2072L40.7067 48.4116L41.4821 48.398C41.6878 48.3944 41.8864 48.4727 42.0344 48.6156C42.1823 48.7584 42.2675 48.9542 42.2711 49.1599L42.2753 49.4047C42.2789 49.6104 42.2007 49.809 42.0578 49.957C41.9149 50.1049 41.7191 50.1901 41.5135 50.1937Z" fill="#1E9A1C"/>
<path fill-rule="evenodd" clip-rule="evenodd" d="M37.1253 50.9355L36.596 50.9725L36.4374 48.1195L38.0661 48.0056C38.3037 47.989 38.5381 48.0674 38.7178 48.2237C38.8976 48.3799 39.0079 48.6011 39.0245 48.8387C39.0411 49.0763 38.9627 49.3107 38.8064 49.4905C38.7585 49.5456 38.7044 49.5942 38.6456 49.6356C38.9534 49.8704 38.9964 50.4854 39.0186 50.8031L38.53 50.8373C38.511 50.5649 38.4767 50.0739 38.1879 49.7974L37.0513 49.8768L37.1253 50.9355ZM38.1136 49.2707L37.0143 49.3475L36.963 48.6146L38.0624 48.5377C38.1596 48.5309 38.2555 48.563 38.329 48.627C38.4025 48.6909 38.4477 48.7814 38.4545 48.8786C38.4612 48.9758 38.4292 49.0717 38.3652 49.1452C38.3013 49.2187 38.2108 49.2639 38.1136 49.2707Z" fill="#1E9A1C"/>
<path fill-rule="evenodd" clip-rule="evenodd" d="M35.1192 50.7044C34.9125 50.9997 34.6063 51.1889 34.2678 51.2305C33.9294 51.272 33.5865 51.1625 33.3145 50.926C33.0425 50.6894 32.8638 50.3453 32.8176 49.9692C32.7714 49.5932 32.8616 49.216 33.0683 48.9207C33.2749 48.6254 33.5812 48.4362 33.9196 48.3946C34.2581 48.3531 34.601 48.4626 34.873 48.6991C35.145 48.9356 35.3237 49.2798 35.3699 49.6558C35.416 50.0319 35.3259 50.4091 35.1192 50.7044ZM34.7011 50.3777C34.5811 50.5621 34.4019 50.6794 34.2032 50.7038C34.0044 50.7282 33.8022 50.6577 33.6412 50.5078C33.4801 50.3579 33.3733 50.1409 33.3443 49.9046C33.3152 49.6682 33.3664 49.4318 33.4864 49.2474C33.6064 49.063 33.7855 48.9457 33.9843 48.9213C34.1831 48.8969 34.3852 48.9674 34.5463 49.1172C34.7074 49.2671 34.8142 49.4841 34.8432 49.7205C34.8722 49.9569 34.8211 50.1933 34.7011 50.3777Z" fill="#1E9A1C"/>
<path d="M47.9574 50.9083L47.4694 50.8656L47.7185 48.0193L48.43 48.0816L48.8285 50.0831L49.5685 48.1812L50.2801 48.2435L50.0311 51.0897L49.5432 51.047L49.7139 49.0953L48.9739 50.9972L48.5266 50.9581L48.1281 48.9566L47.9574 50.9083Z" fill="#1E9A1C"/>
<path d="M53.3892 51.5333L55.5011 51.8962L55.584 51.4135L53.9549 51.1336L54.0655 50.4899L55.3929 50.718L55.4759 50.2353L54.1484 50.0072L54.2244 49.5647L55.8033 49.836L55.8863 49.3533L53.8247 48.9991L53.3892 51.5333Z" fill="#1E9A1C"/>
<path fill-rule="evenodd" clip-rule="evenodd" d="M59.3283 52.7319L58.8146 52.599L59.5695 49.8431L61.1502 50.2519C61.3807 50.3115 61.5782 50.4603 61.699 50.6655C61.8199 50.8707 61.8543 51.1155 61.7947 51.3461C61.7351 51.5766 61.5863 51.7741 61.3811 51.895C61.1759 52.0158 60.9311 52.0502 60.7005 51.9906L59.594 51.7045L59.3283 52.7319ZM60.7938 51.4667L59.7269 51.1907L59.9108 50.4795L60.9778 50.7554C61.0721 50.7798 61.1529 50.8406 61.2023 50.9246C61.2518 51.0085 61.2658 51.1087 61.2415 51.203C61.2171 51.2973 61.1562 51.3781 61.0722 51.4275C60.9883 51.477 60.8882 51.4911 60.7938 51.4667Z" fill="#1E9A1C"/>
<path fill-rule="evenodd" clip-rule="evenodd" d="M62.32 53.5341L62.8261 53.6937L63.1452 52.6816L64.2318 53.0242C64.3992 53.3873 64.2511 53.8567 64.169 54.1171L64.6362 54.2644C64.7319 53.9607 64.9173 53.3728 64.717 53.0415C64.7868 53.0245 64.855 52.9991 64.9198 52.9654C65.131 52.8554 65.2899 52.666 65.3615 52.4389C65.4332 52.2117 65.4116 51.9655 65.3017 51.7542C65.1917 51.543 65.0023 51.3841 64.7752 51.3125L63.2181 50.8215L62.32 53.5341ZM63.3047 52.1755L64.3558 52.5069C64.4487 52.5362 64.5494 52.5274 64.6358 52.4824C64.7223 52.4374 64.7873 52.36 64.8166 52.267C64.8459 52.1741 64.8371 52.0734 64.7921 51.987C64.7471 51.9005 64.6696 51.8355 64.5767 51.8062L63.5257 51.4748L63.3047 52.1755Z" fill="#1E9A1C"/>
<path fill-rule="evenodd" clip-rule="evenodd" d="M66.9761 55.1017C67.2955 55.2211 67.6545 55.1947 67.9742 55.0282C68.2939 54.8617 68.548 54.5688 68.6807 54.2139C68.8134 53.859 68.8138 53.4712 68.6817 53.1358C68.5497 52.8004 68.2961 52.5449 67.9767 52.4255C67.6573 52.3061 67.2983 52.3326 66.9786 52.4991C66.6589 52.6656 66.4048 52.9585 66.2721 53.3134C66.1394 53.6682 66.1391 54.056 66.2711 54.3914C66.4031 54.7268 66.6567 54.9823 66.9761 55.1017ZM67.1619 54.6047C67.3495 54.6748 67.5626 54.6535 67.7542 54.5454C67.9458 54.4372 68.1003 54.2511 68.1837 54.0281C68.2671 53.805 68.2726 53.5632 68.1989 53.3559C68.1252 53.1485 67.9785 52.9927 67.7909 52.9225C67.6033 52.8524 67.3903 52.8737 67.1987 52.9819C67.007 53.09 66.8525 53.2761 66.7691 53.4992C66.6857 53.7222 66.6803 53.964 66.7539 54.1714C66.8276 54.3787 66.9744 54.5346 67.1619 54.6047Z" fill="#1E9A1C"/>
<path d="M72.1454 54.5866C72.0311 54.2447 71.7912 53.9763 71.4785 53.8403C71.1658 53.7044 70.8059 53.712 70.4779 53.8615C70.15 54.0111 69.8809 54.2903 69.7298 54.6378C69.5787 54.9852 69.5581 55.3725 69.6724 55.7143C69.7866 56.0561 70.0265 56.3245 70.3392 56.4605C70.6385 56.5907 70.9811 56.5893 71.2975 56.4578L71.1441 56.8105L71.5184 56.9732L72.0881 55.6632L71.0961 55.2319L70.9334 55.6062L71.3629 55.7929C71.2972 55.8549 71.2239 55.9066 71.1454 55.9456C70.9483 56.0436 70.7345 56.0538 70.5508 55.9739C70.3672 55.8941 70.2288 55.7307 70.166 55.5198C70.1033 55.3089 70.1214 55.0677 70.2164 54.8493C70.3114 54.6309 70.4754 54.4532 70.6724 54.3552C70.8694 54.2573 71.0833 54.2471 71.2669 54.327C71.4506 54.4068 71.589 54.5702 71.6517 54.7811C71.6683 54.8368 71.6792 54.8946 71.6846 54.9536L72.2118 55.1829C72.2307 54.9798 72.2088 54.7762 72.1454 54.5866Z" fill="#1E9A1C"/>
<path fill-rule="evenodd" clip-rule="evenodd" d="M72.4761 57.4199L72.9509 57.6566L73.4245 56.7069L74.4441 57.2153C74.5526 57.6001 74.333 58.0406 74.2112 58.2849L74.6495 58.5035C74.7916 58.2185 75.0667 57.6668 74.9206 57.3082C74.9923 57.3024 75.0635 57.288 75.1328 57.2648C75.3587 57.1892 75.5453 57.027 75.6515 56.8139C75.7578 56.6008 75.775 56.3541 75.6995 56.1283C75.6239 55.9025 75.4617 55.7159 75.2486 55.6096L73.7875 54.8811L72.4761 57.4199ZM73.6612 56.232L74.6475 56.7238C74.7347 56.7672 74.8356 56.7743 74.9279 56.7434C75.0203 56.7125 75.0967 56.6461 75.1401 56.5589C75.1836 56.4717 75.1907 56.3708 75.1597 56.2785C75.1288 56.1861 75.0625 56.1097 74.9753 56.0663L73.989 55.5745L73.6612 56.232Z" fill="#1E9A1C"/>
<path d="M75.7105 59.0634L77.9485 60.3297L78.2098 59.8678L76.398 58.8428L76.7598 58.2033L78.1808 59.0073L78.422 58.581L77.001 57.777L77.2824 57.2797L78.9876 58.2444L79.2489 57.7826L77.1174 56.5767L75.7105 59.0634Z" fill="#1E9A1C"/>
<path d="M80.2255 61.1908C79.8813 60.9715 79.7257 60.703 79.8792 60.462L79.337 60.1166C78.9515 60.7179 79.543 61.3125 79.9389 61.5647C80.4036 61.8608 81.1 62.1351 81.5003 61.5068C81.8213 61.0028 81.3329 60.5335 80.9354 60.1516C80.661 59.8879 80.4299 59.6658 80.5387 59.5028C80.6977 59.2533 80.9144 59.3309 81.1812 59.5008C81.4566 59.6763 81.6372 59.9244 81.4728 60.1826L81.9977 60.5171C82.3846 59.9287 81.8871 59.4182 81.5773 59.2208L81.5377 59.1954C81.2022 58.9797 80.4268 58.4812 79.9659 59.1864C79.6485 59.6739 80.0991 60.1159 80.4874 60.4968C80.7803 60.7841 81.0376 61.0366 80.9033 61.2475C80.8042 61.4022 80.5698 61.4101 80.2255 61.1908Z" fill="#1E9A1C"/>
<path d="M82.944 62.4888C82.7781 62.7214 82.9195 62.9977 83.2518 63.2347C83.584 63.4718 83.8186 63.4761 83.9256 63.3268C84.0708 63.1232 83.827 62.8576 83.5496 62.5554C83.1818 62.1547 82.7549 61.6897 83.0974 61.2195C83.5946 60.5394 84.3428 61.0778 84.6665 61.3108L84.7048 61.3382C85.0039 61.5516 85.4739 62.0874 85.0568 62.6547L84.55 62.2932C84.7278 62.044 84.5604 61.7867 84.2945 61.5971C84.037 61.4134 83.8246 61.3246 83.6528 61.5655C83.5356 61.7225 83.7548 61.9564 84.015 62.2341C84.392 62.6363 84.8552 63.1306 84.5082 63.6171C84.0756 64.2235 83.3945 63.9131 82.946 63.5932C82.5638 63.3206 82.0042 62.6958 82.4207 62.1155L82.944 62.4888Z" fill="#1E9A1C"/>
<path fill-rule="evenodd" clip-rule="evenodd" d="M86.815 66.0147C86.4595 66.0742 86.1099 65.9884 85.843 65.7762C85.5762 65.5639 85.4139 65.2425 85.392 64.8828C85.3701 64.523 85.4903 64.1543 85.7261 63.8578C85.962 63.5613 86.2942 63.3612 86.6497 63.3017C87.0052 63.2421 87.3548 63.3279 87.6216 63.5402C87.8885 63.7524 88.0508 64.0738 88.0727 64.4336C88.0946 64.7933 87.9744 65.162 87.7386 65.4585C87.5027 65.7551 87.1705 65.9551 86.815 66.0147ZM86.7549 65.4875C86.5393 65.5311 86.3301 65.4856 86.1733 65.3609C86.0166 65.2362 85.9252 65.0426 85.9192 64.8227C85.9132 64.6028 85.9931 64.3745 86.1414 64.1881C86.2896 64.0017 86.4941 63.8725 86.7097 63.8289C86.9254 63.7852 87.1346 63.8307 87.2913 63.9554C87.4481 64.0801 87.5395 64.2737 87.5455 64.4936C87.5515 64.7136 87.4715 64.9418 87.3233 65.1282C87.175 65.3146 86.9706 65.4438 86.7549 65.4875Z" fill="#1E9A1C"/>
<path d="M35.3647 53.3266L34.9674 54.5494L35.5788 54.748" fill="white"/>
<path d="M35.3647 53.3266L35.762 54.5494L35.1506 54.748" fill="white"/>
<path d="M36.5875 54.215H35.3018V54.8578" fill="white"/>
<path d="M36.5875 54.215L35.5473 54.9707L35.1695 54.4506" fill="white"/>
<path d="M34.1419 54.215L35.1821 54.9707L35.56 54.4506" fill="white"/>
<path d="M34.1419 54.215H35.4276V54.8578" fill="white"/>
<path d="M36.1204 55.6524L35.7231 54.4297L35.1117 54.6283" fill="white"/>
<path d="M36.1204 55.6524L35.0803 54.8967L35.4581 54.3766" fill="white"/>
<path d="M34.609 55.6524L35.6492 54.8967L35.2713 54.3766" fill="white"/>
<path d="M34.609 55.6524L35.0063 54.4297L35.6177 54.6283" fill="white"/>
<path d="M38.0178 65.9388L37.6205 67.1616L38.2319 67.3603" fill="white"/>
<path d="M38.0178 65.9388L38.4151 67.1616L37.8037 67.3603" fill="white"/>
<path d="M39.2406 66.8272H37.9548V67.4701" fill="white"/>
<path d="M39.2406 66.8272L38.2004 67.5829L37.8225 67.0629" fill="white"/>
<path d="M36.795 66.8272L37.8352 67.5829L38.213 67.0629" fill="white"/>
<path d="M36.795 66.8272H38.0807V67.4701" fill="white"/>
<path d="M38.7735 68.2647L38.3762 67.0419L37.7648 67.2406" fill="white"/>
<path d="M38.7735 68.2647L37.7333 67.509L38.1112 66.9889" fill="white"/>
<path d="M37.2621 68.2647L38.3022 67.509L37.9244 66.9889" fill="white"/>
<path d="M37.2621 68.2647L37.6594 67.0419L38.2708 67.2406" fill="white"/>
<path d="M34.3443 68.847L34.0132 69.866L34.5227 70.0315" fill="white"/>
<path d="M34.3443 68.847L34.6754 69.866L34.1659 70.0315" fill="white"/>
<path d="M35.3633 69.5873H34.2919V70.123" fill="white"/>
<path d="M35.3633 69.5873L34.4965 70.2171L34.1816 69.7837" fill="white"/>
<path d="M33.3253 69.5873L34.1921 70.2171L34.507 69.7837" fill="white"/>
<path d="M33.3253 69.5873H34.3967V70.123" fill="white"/>
<path d="M34.9741 70.7852L34.643 69.7662L34.1335 69.9318" fill="white"/>
<path d="M34.9741 70.7852L34.1073 70.1554L34.4222 69.722" fill="white"/>
<path d="M33.7145 70.7852L34.5813 70.1554L34.2665 69.722" fill="white"/>
<path d="M33.7145 70.7852L34.0456 69.7662L34.5551 69.9318" fill="white"/>
<path d="M40.9566 64.7756L40.7674 65.3578L41.0585 65.4524" fill="white"/>
<path d="M40.9566 64.7756L41.1457 65.3578L40.8546 65.4524" fill="white"/>
<path d="M41.5388 65.1986H40.9266V65.5047" fill="white"/>
<path d="M41.5388 65.1986L41.0435 65.5585L40.8636 65.3108" fill="white"/>
<path d="M40.3743 65.1986L40.8696 65.5585L41.0495 65.3108" fill="white"/>
<path d="M40.3743 65.1986H40.9865V65.5047" fill="white"/>
<path d="M41.3164 65.8831L41.1272 65.3008L40.8361 65.3954" fill="white"/>
<path d="M41.3164 65.8831L40.8211 65.5232L41.001 65.2756" fill="white"/>
<path d="M40.5967 65.8831L41.092 65.5232L40.9121 65.2756" fill="white"/>
<path d="M40.5967 65.8831L40.7859 65.3008L41.077 65.3954" fill="white"/>
<path d="M44.2627 69.1327L43.9316 70.1517L44.4411 70.3172" fill="white"/>
<path d="M44.2627 69.1327L44.5938 70.1517L44.0843 70.3172" fill="white"/>
<path d="M45.2817 69.873H44.2102V70.4087" fill="white"/>
<path d="M45.2817 69.873L44.4149 70.5028L44.1 70.0694" fill="white"/>
<path d="M43.2437 69.873L44.1105 70.5028L44.4254 70.0694" fill="white"/>
<path d="M43.2437 69.873H44.3151V70.4087" fill="white"/>
<path d="M44.8924 71.0709L44.5613 70.0519L44.0519 70.2175" fill="white"/>
<path d="M44.8924 71.0709L44.0256 70.4412L44.3405 70.0078" fill="white"/>
<path d="M43.6329 71.0709L44.4997 70.4412L44.1848 70.0078" fill="white"/>
<path d="M43.6329 71.0709L43.964 70.0519L44.4735 70.2175" fill="white"/>
<path d="M43.3647 72.3266L43.0998 73.1418L43.5074 73.2742" fill="white"/>
<path d="M43.3647 72.3266L43.6296 73.1418L43.222 73.2742" fill="white"/>
<path d="M44.1799 72.9188H43.3228V73.3474" fill="white"/>
<path d="M44.1799 72.9188L43.4865 73.4227L43.2346 73.0759" fill="white"/>
<path d="M42.5495 72.9188L43.243 73.4227L43.4949 73.0759" fill="white"/>
<path d="M42.5495 72.9188H43.4067V73.3474" fill="white"/>
<path d="M43.8685 73.8772L43.6037 73.062L43.1961 73.1944" fill="white"/>
<path d="M43.8685 73.8772L43.1751 73.3733L43.427 73.0266" fill="white"/>
<path d="M42.8609 73.8772L43.5543 73.3733L43.3024 73.0266" fill="white"/>
<path d="M42.8609 73.8772L43.1258 73.062L43.5334 73.1944" fill="white"/>
<path d="M69.1606 49.4082L68.7633 50.631L69.3747 50.8296" fill="white"/>
<path d="M69.1606 49.4082L69.5579 50.631L68.9465 50.8296" fill="white"/>
<path d="M70.3834 50.2966H69.0977V50.9395" fill="white"/>
<path d="M70.3834 50.2966L69.3433 51.0523L68.9654 50.5323" fill="white"/>
<path d="M67.9378 50.2966L68.978 51.0523L69.3559 50.5323" fill="white"/>
<path d="M67.9378 50.2966H69.2236V50.9395" fill="white"/>
<path d="M69.9164 51.7341L69.519 50.5113L68.9077 50.7099" fill="white"/>
<path d="M69.9164 51.7341L68.8762 50.9784L69.2541 50.4583" fill="white"/>
<path d="M68.4049 51.7341L69.4451 50.9784L69.0672 50.4583" fill="white"/>
<path d="M68.4049 51.7341L68.8022 50.5113L69.4136 50.7099" fill="white"/>
<path d="M80.8749 69.2449L80.4776 70.4677L81.089 70.6664" fill="white"/>
<path d="M80.8749 69.2449L81.2722 70.4677L80.6608 70.6664" fill="white"/>
<path d="M82.0977 70.1333H80.812V70.7762" fill="white"/>
<path d="M82.0977 70.1333L81.0575 70.8891L80.6797 70.369" fill="white"/>
<path d="M79.6521 70.1333L80.6923 70.8891L81.0702 70.369" fill="white"/>
<path d="M79.6521 70.1333H80.9378V70.7762" fill="white"/>
<path d="M81.6306 71.5708L81.2333 70.348L80.6219 70.5467" fill="white"/>
<path d="M81.6306 71.5708L80.5905 70.8151L80.9683 70.295" fill="white"/>
<path d="M80.1192 71.5708L81.1594 70.8151L80.7815 70.295" fill="white"/>
<path d="M80.1192 71.5708L80.5165 70.348L81.1279 70.5467" fill="white"/>
<path d="M85.0382 69.9592L84.7733 70.7744L85.1809 70.9069" fill="white"/>
<path d="M85.0382 69.9592L85.3031 70.7744L84.8955 70.9069" fill="white"/>
<path d="M85.8534 70.5515H84.9962V70.9801" fill="white"/>
<path d="M85.8534 70.5515L85.1599 71.0553L84.908 70.7086" fill="white"/>
<path d="M84.223 70.5515L84.9164 71.0553L85.1684 70.7086" fill="white"/>
<path d="M84.223 70.5515H85.0801V70.9801" fill="white"/>
<path d="M85.542 71.5098L85.2771 70.6946L84.8695 70.8271" fill="white"/>
<path d="M85.542 71.5098L84.8486 71.006L85.1005 70.6593" fill="white"/>
<path d="M84.5344 71.5098L85.2278 71.006L84.9759 70.6593" fill="white"/>
<path d="M84.5344 71.5098L84.7992 70.6946L85.2068 70.8271" fill="white"/>
<path d="M82.0994 72.1123L81.7683 73.1313L82.2778 73.2968" fill="white"/>
<path d="M82.0994 72.1123L82.4305 73.1313L81.921 73.2968" fill="white"/>
<path d="M83.1184 72.8526H82.047V73.3883" fill="white"/>
<path d="M83.1184 72.8526L82.2516 73.4824L81.9367 73.049" fill="white"/>
<path d="M81.0804 72.8526L81.9472 73.4824L82.2621 73.049" fill="white"/>
<path d="M81.0804 72.8526H82.1519V73.3883" fill="white"/>
<path d="M82.7292 74.0505L82.3981 73.0315L81.8886 73.1971" fill="white"/>
<path d="M82.7292 74.0505L81.8624 73.4207L82.1773 72.9873" fill="white"/>
<path d="M81.4696 74.0505L82.3364 73.4207L82.0216 72.9873" fill="white"/>
<path d="M81.4696 74.0505L81.8007 73.0315L82.3102 73.1971" fill="white"/>
<path d="M74.8749 78.398L74.5438 79.417L75.0533 79.5825" fill="white"/>
<path d="M74.8749 78.398L75.206 79.417L74.6965 79.5825" fill="white"/>
<path d="M75.8939 79.1383H74.8225V79.6741" fill="white"/>
<path d="M75.8939 79.1383L75.0271 79.7681L74.7122 79.3347" fill="white"/>
<path d="M73.8559 79.1383L74.7227 79.7681L75.0376 79.3347" fill="white"/>
<path d="M73.8559 79.1383H74.9274V79.6741" fill="white"/>
<path d="M75.5047 80.3362L75.1736 79.3172L74.6641 79.4828" fill="white"/>
<path d="M75.5047 80.3362L74.6379 79.7065L74.9528 79.2731" fill="white"/>
<path d="M74.2452 80.3362L75.112 79.7065L74.7971 79.2731" fill="white"/>
<path d="M74.2452 80.3362L74.5762 79.3172L75.0857 79.4828" fill="white"/>
<path d="M74.8341 81.6327L74.5692 82.4479L74.9768 82.5803" fill="white"/>
<path d="M74.8341 81.6327L75.099 82.4479L74.6914 82.5803" fill="white"/>
<path d="M75.6493 82.225H74.7922V82.6535" fill="white"/>
<path d="M75.6493 82.225L74.9558 82.7288L74.7039 82.3821" fill="white"/>
<path d="M74.0189 82.225L74.7124 82.7288L74.9643 82.3821" fill="white"/>
<path d="M74.0189 82.225H74.8761V82.6535" fill="white"/>
<path d="M75.3379 83.1833L75.073 82.3681L74.6655 82.5005" fill="white"/>
<path d="M75.3379 83.1833L74.6445 82.6795L74.8964 82.3327" fill="white"/>
<path d="M74.3303 83.1833L75.0237 82.6795L74.7718 82.3327" fill="white"/>
<path d="M74.3303 83.1833L74.5952 82.3681L75.0028 82.5005" fill="white"/>
<path d="M77.8545 76.2449L77.5896 77.0601L77.9972 77.1926" fill="white"/>
<path d="M77.8545 76.2449L78.1194 77.0601L77.7118 77.1926" fill="white"/>
<path d="M78.6697 76.8372H77.8126V77.2658" fill="white"/>
<path d="M78.6697 76.8372L77.9763 77.341L77.7244 76.9943" fill="white"/>
<path d="M77.0393 76.8372L77.7328 77.341L77.9847 76.9943" fill="white"/>
<path d="M77.0393 76.8372H77.8965V77.2658" fill="white"/>
<path d="M78.3583 77.7955L78.0935 76.9803L77.6859 77.1128" fill="white"/>
<path d="M78.3583 77.7955L77.6649 77.2917L77.9168 76.945" fill="white"/>
<path d="M77.3507 77.7955L78.0441 77.2917L77.7922 76.945" fill="white"/>
<path d="M77.3507 77.7955L77.6156 76.9803L78.0232 77.1128" fill="white"/>
<path d="M80.2627 74.5204L79.9316 75.5394L80.4411 75.705" fill="white"/>
<path d="M80.2627 74.5204L80.5938 75.5394L80.0843 75.705" fill="white"/>
<path d="M81.2817 75.2608H80.2102V75.7965" fill="white"/>
<path d="M81.2817 75.2608L80.4149 75.8906L80.1 75.4572" fill="white"/>
<path d="M79.2437 75.2608L80.1105 75.8906L80.4254 75.4572" fill="white"/>
<path d="M79.2437 75.2608H80.3151V75.7965" fill="white"/>
<path d="M80.8924 76.4587L80.5614 75.4397L80.0519 75.6052" fill="white"/>
<path d="M80.8924 76.4587L80.0256 75.8289L80.3405 75.3955" fill="white"/>
<path d="M79.6329 76.4587L80.4997 75.8289L80.1848 75.3955" fill="white"/>
<path d="M79.6329 76.4587L79.964 75.4397L80.4735 75.6052" fill="white"/>
<path d="M74.7525 75.6735L74.4876 76.4887L74.8952 76.6211" fill="white"/>
<path d="M74.7525 75.6735L75.0173 76.4887L74.6097 76.6211" fill="white"/>
<path d="M75.5677 76.2658H74.7105V76.6944" fill="white"/>
<path d="M75.5677 76.2658L74.8742 76.7696L74.6223 76.4229" fill="white"/>
<path d="M73.9373 76.2658L74.6307 76.7696L74.8826 76.4229" fill="white"/>
<path d="M73.9373 76.2658H74.7944V76.6944" fill="white"/>
<path d="M75.2563 77.2241L74.9914 76.4089L74.5838 76.5413" fill="white"/>
<path d="M75.2563 77.2241L74.5628 76.7203L74.8148 76.3736" fill="white"/>
<path d="M74.2487 77.2241L74.9421 76.7203L74.6902 76.3736" fill="white"/>
<path d="M74.2487 77.2241L74.5135 76.4089L74.9211 76.5413" fill="white"/>
<path d="M48.4259 60.1531L48.0948 61.1721L48.6043 61.3376" fill="white"/>
<path d="M48.4259 60.1531L48.757 61.1721L48.2475 61.3376" fill="white"/>
<path d="M49.4449 60.8934H48.3735V61.4292" fill="white"/>
<path d="M49.4449 60.8934L48.5781 61.5232L48.2632 61.0898" fill="white"/>
<path d="M47.4069 60.8934L48.2738 61.5232L48.5886 61.0898" fill="white"/>
<path d="M47.4069 60.8934H48.4784V61.4292" fill="white"/>
<path d="M49.0557 62.0913L48.7246 61.0723L48.2151 61.2379" fill="white"/>
<path d="M49.0557 62.0913L48.1889 61.4616L48.5038 61.0282" fill="white"/>
<path d="M47.7962 62.0913L48.663 61.4616L48.3481 61.0282" fill="white"/>
<path d="M47.7962 62.0913L48.1273 61.0723L48.6368 61.2379" fill="white"/>
<path d="M68.0178 57.6327L67.7529 58.4479L68.1605 58.5803" fill="white"/>
<path d="M68.0178 57.6327L68.2827 58.4479L67.8751 58.5803" fill="white"/>
<path d="M68.833 58.225H67.9758V58.6535" fill="white"/>
<path d="M68.833 58.225L68.1395 58.7288L67.8876 58.3821" fill="white"/>
<path d="M67.2026 58.225L67.896 58.7288L68.1479 58.3821" fill="white"/>
<path d="M67.2026 58.225H68.0597V58.6535" fill="white"/>
<path d="M68.5216 59.1833L68.2567 58.3681L67.8491 58.5005" fill="white"/>
<path d="M68.5216 59.1833L67.8282 58.6795L68.0801 58.3327" fill="white"/>
<path d="M67.514 59.1833L68.2074 58.6795L67.9555 58.3327" fill="white"/>
<path d="M67.514 59.1833L67.7788 58.3681L68.1864 58.5005" fill="white"/>
<path d="M59.8545 72.1837L59.4572 73.4065L60.0686 73.6052" fill="white"/>
<path d="M59.8545 72.1837L60.2518 73.4065L59.6404 73.6052" fill="white"/>
<path d="M61.0773 73.0721H59.7916V73.715" fill="white"/>
<path d="M61.0773 73.0721L60.0371 73.8278L59.6593 73.3078" fill="white"/>
<path d="M58.6317 73.0721L59.6719 73.8278L60.0498 73.3078" fill="white"/>
<path d="M58.6317 73.0721H59.9174V73.715" fill="white"/>
<path d="M60.6102 74.5096L60.2129 73.2868L59.6015 73.4855" fill="white"/>
<path d="M60.6102 74.5096L59.5701 73.7539L59.9479 73.2338" fill="white"/>
<path d="M59.0988 74.5096L60.139 73.7539L59.7611 73.2338" fill="white"/>
<path d="M59.0988 74.5096L59.4961 73.2868L60.1075 73.4855" fill="white"/>
<path d="M63.3239 66.4388L62.9928 67.4578L63.5023 67.6234" fill="white"/>
<path d="M63.3239 66.4388L63.655 67.4578L63.1455 67.6234" fill="white"/>
<path d="M64.3429 67.1792H63.2715V67.7149" fill="white"/>
<path d="M64.3429 67.1792L63.4761 67.8089L63.1612 67.3755" fill="white"/>
<path d="M62.3049 67.1792L63.1717 67.8089L63.4866 67.3755" fill="white"/>
<path d="M62.3049 67.1792H63.3763V67.7149" fill="white"/>
<path d="M63.9537 68.3771L63.6226 67.3581L63.1131 67.5236" fill="white"/>
<path d="M63.9537 68.3771L63.0869 67.7473L63.4017 67.3139" fill="white"/>
<path d="M62.6941 68.3771L63.5609 67.7473L63.246 67.3139" fill="white"/>
<path d="M62.6941 68.3771L63.0252 67.3581L63.5347 67.5236" fill="white"/>
<path d="M59.8545 63.7449L59.5234 64.7639L60.0329 64.9295" fill="white"/>
<path d="M59.8545 63.7449L60.1856 64.7639L59.6761 64.9295" fill="white"/>
<path d="M60.8735 64.4853H59.8021V65.021" fill="white"/>
<path d="M60.8735 64.4853L60.0067 65.115L59.6918 64.6816" fill="white"/>
<path d="M58.8355 64.4853L59.7023 65.115L60.0172 64.6816" fill="white"/>
<path d="M58.8355 64.4853H59.9069V65.021" fill="white"/>
<path d="M60.4843 65.6832L60.1532 64.6642L59.6437 64.8297" fill="white"/>
<path d="M60.4843 65.6832L59.6175 65.0534L59.9324 64.62" fill="white"/>
<path d="M59.2247 65.6832L60.0915 65.0534L59.7767 64.62" fill="white"/>
<path d="M59.2247 65.6832L59.5558 64.6642L60.0653 64.8297" fill="white"/>
<path d="M56.8341 66.6531L56.5692 67.4683L56.9768 67.6007" fill="white"/>
<path d="M56.8341 66.6531L57.099 67.4683L56.6914 67.6007" fill="white"/>
<path d="M57.6493 67.2454H56.7922V67.6739" fill="white"/>
<path d="M57.6493 67.2454L56.9559 67.7492L56.7039 67.4025" fill="white"/>
<path d="M56.0189 67.2454L56.7124 67.7492L56.9643 67.4025" fill="white"/>
<path d="M56.0189 67.2454H56.8761V67.6739" fill="white"/>
<path d="M57.3379 68.2037L57.073 67.3885L56.6655 67.5209" fill="white"/>
<path d="M57.3379 68.2037L56.6445 67.6999L56.8964 67.3531" fill="white"/>
<path d="M56.3303 68.2037L57.0237 67.6999L56.7718 67.3531" fill="white"/>
<path d="M56.3303 68.2037L56.5952 67.3885L57.0028 67.5209" fill="white"/>
<path d="M58.3443 68.9796L58.1551 69.5619L58.4463 69.6565" fill="white"/>
<path d="M58.3443 68.9796L58.5335 69.5619L58.2424 69.6565" fill="white"/>
<path d="M58.9266 69.4027H58.3143V69.7088" fill="white"/>
<path d="M58.9266 69.4027L58.4313 69.7626L58.2513 69.5149" fill="white"/>
<path d="M57.762 69.4027L58.2573 69.7626L58.4373 69.5149" fill="white"/>
<path d="M57.762 69.4027H58.3743V69.7088" fill="white"/>
<path d="M58.7042 70.0872L58.515 69.5049L58.2238 69.5995" fill="white"/>
<path d="M58.7042 70.0872L58.2089 69.7273L58.3888 69.4797" fill="white"/>
<path d="M57.9844 70.0872L58.4798 69.7273L58.2998 69.4797" fill="white"/>
<path d="M57.9844 70.0872L58.1736 69.5049L58.4648 69.5995" fill="white"/>
<path d="M68.8341 79.1327L68.503 80.1517L69.0125 80.3172" fill="white"/>
<path d="M68.8341 79.1327L69.1652 80.1517L68.6557 80.3172" fill="white"/>
<path d="M69.8531 79.873H68.7817V80.4087" fill="white"/>
<path d="M69.8531 79.873L68.9863 80.5028L68.6714 80.0694" fill="white"/>
<path d="M67.8151 79.873L68.6819 80.5028L68.9968 80.0694" fill="white"/>
<path d="M67.8151 79.873H68.8865V80.4087" fill="white"/>
<path d="M69.4639 81.0709L69.1328 80.0519L68.6233 80.2175" fill="white"/>
<path d="M69.4639 81.0709L68.5971 80.4412L68.9119 80.0078" fill="white"/>
<path d="M68.2043 81.0709L69.0711 80.4412L68.7562 80.0078" fill="white"/>
<path d="M68.2043 81.0709L68.5354 80.0519L69.0449 80.2175" fill="white"/>
<path d="M71.4055 76.6939L71.1407 77.5091L71.5483 77.6415" fill="white"/>
<path d="M71.4055 76.6939L71.6704 77.5091L71.2628 77.6415" fill="white"/>
<path d="M72.2207 77.2862H71.3636V77.7148" fill="white"/>
<path d="M72.2207 77.2862L71.5273 77.79L71.2754 77.4433" fill="white"/>
<path d="M70.5903 77.2862L71.2838 77.79L71.5357 77.4433" fill="white"/>
<path d="M70.5903 77.2862H71.4475V77.7148" fill="white"/>
<path d="M71.9093 78.2445L71.6445 77.4293L71.2369 77.5617" fill="white"/>
<path d="M71.9093 78.2445L71.2159 77.7407L71.4678 77.394" fill="white"/>
<path d="M70.9017 78.2445L71.5952 77.7407L71.3432 77.394" fill="white"/>
<path d="M70.9017 78.2445L71.1666 77.4293L71.5742 77.5617" fill="white"/>
<path d="M66.4668 75.9592L66.2019 76.7744L66.6095 76.9069" fill="white"/>
<path d="M66.4668 75.9592L66.7316 76.7744L66.324 76.9069" fill="white"/>
<path d="M67.2819 76.5515H66.4248V76.9801" fill="white"/>
<path d="M67.2819 76.5515L66.5885 77.0553L66.3366 76.7086" fill="white"/>
<path d="M65.6516 76.5515L66.345 77.0553L66.5969 76.7086" fill="white"/>
<path d="M65.6516 76.5515H66.5087V76.9801" fill="white"/>
<path d="M66.9706 77.5098L66.7057 76.6946L66.2981 76.8271" fill="white"/>
<path d="M66.9706 77.5098L66.2771 77.006L66.529 76.6593" fill="white"/>
<path d="M65.9629 77.5098L66.6564 77.006L66.4045 76.6593" fill="white"/>
<path d="M65.9629 77.5098L66.2278 76.6946L66.6354 76.8271" fill="white"/>
<path d="M47.8137 74.6327L47.4164 75.8555L48.0278 76.0541" fill="white"/>
<path d="M47.8137 74.6327L48.211 75.8555L47.5996 76.0541" fill="white"/>
<path d="M49.0365 75.5211H47.7508V76.164" fill="white"/>
<path d="M49.0365 75.5211L47.9963 76.2768L47.6185 75.7567" fill="white"/>
<path d="M46.5909 75.5211L47.6311 76.2768L48.0089 75.7567" fill="white"/>
<path d="M46.5909 75.5211H47.8766V76.164" fill="white"/>
<path d="M48.5694 76.9586L48.1721 75.7358L47.5607 75.9344" fill="white"/>
<path d="M48.5694 76.9586L47.5293 76.2028L47.9071 75.6828" fill="white"/>
<path d="M47.058 76.9586L48.0981 76.2028L47.7203 75.6828" fill="white"/>
<path d="M47.058 76.9586L47.4553 75.7358L48.0667 75.9344" fill="white"/>
<path d="M59.8545 83.0409L59.7221 83.4485L59.9259 83.5147" fill="white"/>
<path d="M59.8545 83.0409L59.9869 83.4485L59.7831 83.5147" fill="white"/>
<path d="M60.2621 83.337H59.8335V83.5513" fill="white"/>
<path d="M60.2621 83.337L59.9154 83.5889L59.7894 83.4155" fill="white"/>
<path d="M59.4469 83.337L59.7936 83.5889L59.9196 83.4155" fill="white"/>
<path d="M59.4469 83.337H59.8755V83.5513" fill="white"/>
<path d="M60.1064 83.8162L59.974 83.4086L59.7702 83.4748" fill="white"/>
<path d="M60.1064 83.8162L59.7597 83.5642L59.8856 83.3909" fill="white"/>
<path d="M59.6026 83.8162L59.9493 83.5642L59.8234 83.3909" fill="white"/>
<path d="M59.6026 83.8162L59.735 83.4086L59.9388 83.4748" fill="white"/>
</g>
<defs>
<clipPath id="clip0_909_237126">
<rect width="120" height="120" fill="white"/>
</clipPath>
</defs>
</svg>
