<svg width="120" height="120" viewBox="0 0 120 120" fill="none" xmlns="http://www.w3.org/2000/svg">
<path d="M0 120H120V0H0V120Z" fill="#0F3296"/>
<path d="M120 60L120 90.5H0V60H120Z" fill="white"/>
<path d="M0 80.5H120V70.5H0V80.5Z" fill="#D91C16"/>
<path d="M21.7065 80.4585L22.9767 84.361H27.0898L23.7631 86.774L25.0341 90.6772L21.7065 88.265L18.3784 90.6772L19.65 86.774L16.3224 84.361H20.4347M21.3658 60.0333L22.6368 63.935H26.7499L23.4223 66.3467L24.6933 70.2491L21.3658 67.8374L18.0382 70.2491L19.3092 66.3467L15.9824 63.935H20.0947M79.5201 60.0461L80.7912 63.94H84.9042L81.5767 66.3475L82.8477 70.2414L79.5201 67.8348L76.1925 70.2414L77.4636 66.3475L74.136 63.94H78.2483" fill="#FDD406"/>
<path d="M79.1409 80.4696L80.4119 84.3644H84.5258L81.1982 86.7718L82.4693 90.6665L79.1411 88.2599L75.8144 90.6665L77.0846 86.7718L73.7578 84.3644H77.8701" fill="#FDD406"/>
<path d="M50.4358 39.0301L51.7068 42.9419H55.8207L52.4926 45.3592L53.7642 49.271L50.4361 46.8537L47.1085 49.271L48.3795 45.3592L45.0527 42.9419H49.1645" fill="#FDD406"/>
<path d="M50.4505 100.318L51.7208 104.23H55.8339L52.5071 106.647L53.7781 110.559L50.4505 108.142L47.1224 110.559L48.394 106.647L45.0664 104.23H49.1787" fill="#FDD406"/>
<path d="M32.4592 44.8631L33.7303 48.7749H37.8442L34.516 51.1922L35.7876 55.104L32.4595 52.6867L29.1319 55.104L30.403 51.1922L27.0762 48.7749H31.1879" fill="#FDD406"/>
<path d="M68.3922 94.4988L69.6624 98.4106H73.7763L70.4487 100.828L71.7203 104.74L68.3922 102.323L65.0646 104.74L66.3357 100.828L63.0081 98.4106H67.1204M33.0873 94.9622L34.3583 98.874H38.4714L35.1438 101.291L36.4148 105.204L33.0873 102.786L29.7597 105.204L31.0307 101.291L27.7031 98.874H31.8162M67.8714 44.4149L69.1425 48.3267H73.2556L69.9288 50.744L71.1998 54.6558L67.8717 52.2385L64.5441 54.6558L65.8152 50.744L62.4884 48.3267H66.6007" fill="#FDD406"/>
</svg>
