<svg width="120" height="120" viewBox="0 0 120 120" fill="none" xmlns="http://www.w3.org/2000/svg">
<g clip-path="url(#clip0_354_144)">
<path d="M0 0H120V120H0V0Z" fill="#021455"/>
<path d="M0 0H120V120L0 0Z" fill="#1E9A1C"/>
<path d="M59.672 81.6719C71.6411 81.6719 81.344 71.969 81.344 59.9999C81.344 48.0308 71.6411 38.3279 59.672 38.3279C47.7029 38.3279 38 48.0308 38 59.9999C38 71.969 47.7029 81.6719 59.672 81.6719Z" fill="#FDD406"/>
<path d="M46.4239 50.2559C47.9119 52.2959 50.1439 55.7039 51.9679 54.8159C53.3839 54.8159 54.1039 54.9119 54.2959 55.8479C57.6319 56.4239 63.2239 55.0079 66.6799 50.4719C66.6799 50.4719 66.9679 50.5199 66.8719 48.7919C66.8959 48.0479 67.9039 48.1919 67.9279 48.4319C68.0719 48.8159 68.0479 49.0799 68.2399 49.1039C68.6719 48.9599 69.2479 47.9999 69.7519 47.3999C69.8959 47.1359 69.8239 46.8479 69.8479 46.5119C70.1119 45.8639 70.7599 46.0079 70.8799 46.3439C70.9999 46.5599 70.9999 46.7279 71.1199 46.9439C71.7679 47.3759 72.9679 46.9679 73.0399 46.9679C73.1599 46.4399 73.4959 46.4879 73.4959 46.4879C73.9279 46.3919 73.7599 46.4399 74.0479 46.5839C73.7839 49.4639 74.6239 49.5839 74.5519 51.0719C74.5759 52.7279 74.0479 53.1839 74.0479 53.8079C74.2159 54.5759 76.6399 54.5999 75.7999 55.2479C75.0559 55.6559 75.7999 56.3999 74.6719 56.6879C71.3839 58.3679 70.7359 59.7839 70.7359 59.7839C70.7359 59.7839 69.9199 61.3439 69.8239 61.3439C69.2719 62.3759 68.5759 61.8239 68.1919 62.3279C67.9999 62.9759 67.7839 64.3919 68.1679 65.1119C68.3599 66.1199 68.1439 66.6719 67.9039 67.6799C67.6879 69.7919 66.8479 70.1039 66.7519 70.8479C66.3679 71.6399 66.8239 75.3599 66.4639 75.3599C64.0159 75.4079 62.1199 74.8799 61.1599 74.6879C62.0959 70.6079 61.7359 67.0319 61.7359 66.6719C61.4959 63.7679 57.3679 64.4639 56.7439 64.0799C56.2159 63.9599 55.9039 63.5519 55.7119 63.3599C55.1359 63.2879 54.9199 63.1679 54.3199 63.0959C54.0319 63.2399 54.1999 63.3839 53.5519 63.5999C51.8959 63.7919 51.1759 62.1599 51.1759 62.1599C51.2479 61.6079 47.4799 62.2799 45.4159 61.7999C44.5759 62.2799 44.2159 63.6479 43.5199 63.8159C43.4959 64.2479 42.3919 63.4559 42.1519 63.0479C42.1039 61.8239 43.2319 61.2719 43.2319 61.2719C44.1199 60.6479 44.6479 60.5519 45.0799 60.1199C45.2959 59.0399 45.1759 58.2479 45.6319 57.4559C46.0159 56.8319 46.5919 57.1199 46.9759 56.8559C47.3839 56.5919 47.5759 54.7679 47.1919 54.2879L45.4399 52.7039C44.9119 51.1439 46.0879 50.1599 46.4239 50.2559Z" fill="#1E9A1C"/>
<path d="M28.0086 73.6261L26.1165 71.8671L24.2096 73.6113L24.4166 71.0393L21.8741 70.6254L24.0175 69.1768L22.7462 66.93L25.2148 67.6986L26.1756 65.304L27.1069 67.7134L29.5754 66.9743L28.2746 69.2064L30.3884 70.6845L27.8312 71.0541L28.0086 73.6261ZM34.6899 95.0006L32.6501 93.6407L30.6693 95.0745L31.364 92.7686L29.3537 91.3791L31.8223 91.3199L32.5614 89.0288L33.3891 91.2904L35.8577 91.2608L33.9065 92.7242L34.6899 95.0006ZM28.3781 113.404L26.486 111.645L24.5792 113.374L24.7861 110.802L22.2437 110.388L24.387 108.94L23.1158 106.693L25.5844 107.462L26.5452 105.067L27.4764 107.476L29.945 106.737L28.6442 108.969L30.758 110.448L28.2007 110.817L28.3781 113.404ZM11.4382 91.8521L9.54609 90.093L7.63924 91.8225L7.84618 89.2505L5.30371 88.8366L7.44707 87.388L6.17584 85.1411L8.6444 85.9098L9.60522 83.5151L10.5365 85.9246L13.005 85.1855L11.7042 87.4175L13.818 88.8957L11.2608 89.2653L11.4382 91.8521ZM44.032 86.2054L42.14 84.4316L40.2331 86.1759L40.4401 83.6038L37.8976 83.1899L40.041 81.7413L38.7697 79.4945L41.2383 80.2631L42.1991 77.8685L43.1304 80.2779L45.5989 79.5388L44.2981 81.7709L46.4119 83.2491L43.8547 83.6186L44.032 86.2054Z" fill="white"/>
<path d="M116.321 27.4907C115.843 27.2177 115.515 27.4361 114.874 27.2177C114.342 27.0403 114.437 26.8492 113.973 26.6991C113.427 26.5217 113.168 26.7537 112.226 26.8492C111.899 26.8765 111.38 26.9175 111.08 26.8765C109.865 26.7127 108.91 24.8293 108.514 23.3963C107.982 21.5401 108.35 20.2709 108.104 17.5958C108.05 16.9953 107.913 16.1219 107.586 15.1528C107.354 14.4568 106.89 13.3649 104.638 10.7445C102.14 7.85113 100.148 6.24066 99.6153 5.81757C98.7692 5.13517 98.0185 4.61654 97.4726 4.24805C97.5545 5.09423 97.7456 6.34985 98.2096 7.78289C98.7419 9.44796 99.397 10.6353 100.025 11.7681C101.076 13.6516 103.723 18.3328 103.355 19.6976C103.328 19.7795 103.246 20.0661 103.164 20.4892C103.055 21.0488 103.027 21.5128 103.014 21.8267C102.673 21.7176 102.154 21.5265 101.54 21.2262C100.407 20.6667 99.6699 20.0798 99.3014 19.7932C98.2915 19.0289 97.3088 18.6877 95.3572 17.978C92.764 17.0363 90.3347 16.6678 88.383 16.5449C89.6113 18.3328 90.8124 19.5339 91.6995 20.2845C93.3509 21.7039 95.0978 22.6729 95.9577 23.1506C97.0086 23.7375 97.4453 23.9012 98.5372 24.5973C100.216 25.6755 100.857 26.3715 101.267 26.9175C101.772 27.5862 102.236 28.2004 102.345 29.1012C102.454 29.9746 102.208 30.9163 101.471 32.0901C99.3424 35.4611 95.2616 37.3173 94.0196 37.8496C92.4638 38.5183 90.0208 39.5556 86.3767 40.0742C83.6198 40.47 79.2388 40.6884 73.8888 39.2417C74.4483 39.4873 75.0762 39.733 75.7586 39.9514C76.4955 40.1834 77.178 40.3472 77.8058 40.47C77.8467 40.4836 76.9323 40.5109 76.0042 40.3062C74.8851 40.0605 73.998 39.6238 73.3838 39.2553C73.8478 39.6238 74.5712 40.1288 75.4992 40.5382C76.7003 41.0705 77.9286 41.3162 81.559 41.3298C83.7427 41.3435 84.8345 41.3435 85.9127 41.2343C88.9972 40.9204 91.3037 40.1697 93.4874 39.4191C95.3299 38.7913 96.8994 38.259 98.9329 37.2081C101.867 35.6795 103.259 34.3693 106.521 33.0454C107.545 32.636 108.063 32.4176 108.719 32.2266C110.657 31.6533 111.394 31.8035 112.731 31.0528C113.932 30.3841 114.314 29.7017 114.423 29.497C114.601 29.1694 114.628 28.9647 114.819 28.719C115.324 28.0776 116.211 28.0503 116.894 28.1321C116.812 27.9547 116.621 27.6818 116.321 27.4907ZM113.7 28.1185C113.618 28.2277 113.468 28.2686 113.345 28.2413C113.168 28.1867 113.045 27.9957 113.059 27.7636L112.649 27.5453H113.7C113.823 27.7227 113.809 27.9684 113.7 28.1185Z" fill="#FDD406"/>
</g>
<defs>
<clipPath id="clip0_354_144">
<rect width="120" height="120" fill="white"/>
</clipPath>
</defs>
</svg>
