<svg width="120" height="120" viewBox="0 0 120 120" fill="none" xmlns="http://www.w3.org/2000/svg">
<g clip-path="url(#clip0_909_280937)">
<path d="M120 0H0V120H120V0Z" fill="white"/>
<path d="M62.6199 101.348C62.5935 101.337 62.5699 101.32 62.5505 101.299L62.5255 101.276C62.4143 101.172 62.3087 101.062 62.2091 100.947C61.9427 100.645 61.5853 100.202 61.2711 99.8103C60.6481 99.0337 60.1333 98.3647 60.0363 98.2387L59.8777 98.0323L58.3243 97.5533L57.1901 97.0245L57.7961 96.3433L59.8777 97.2345L61.4311 97.5533L64.3037 99.6661L64.3015 99.6679C64.2957 99.6727 63.8837 100.015 63.4743 100.388C63.2917 100.554 63.0615 100.768 62.8989 100.944C62.8319 101.016 62.7697 101.092 62.7129 101.172C62.6787 101.229 62.6477 101.288 62.6199 101.348M51.9519 98.1445C50.5505 98.1317 49.1775 97.7475 47.9729 97.0311H47.9715V97.0295C48.1181 96.7851 48.3141 96.5739 48.5471 96.4095C48.9353 96.1245 49.6355 95.7839 50.7671 95.7795H50.7905C52.1305 95.7795 53.7705 96.2351 55.6651 97.1337C54.5419 97.8011 53.2583 98.1505 51.9519 98.1445ZM46.0779 96.8425C45.8383 96.8471 45.6081 96.7503 45.4439 96.5759C45.3021 96.4111 45.2045 96.2129 45.1599 96.0001C45.0959 95.7239 45.0721 95.4397 45.0897 95.1567C45.1885 95.1139 45.2945 95.0899 45.4021 95.0859H45.4245C45.9267 95.0859 46.3225 95.5215 46.4921 95.9533C46.5845 96.1443 46.6041 96.3623 46.5469 96.5667C46.4617 96.7451 46.2763 96.8537 46.0789 96.8407L46.0779 96.8425ZM56.4139 95.6445C52.9421 95.1487 51.4705 93.8935 50.8473 92.9279C50.4527 92.3419 50.2671 91.6403 50.3205 90.9359V90.9331H50.3231C50.4975 90.8931 50.6759 90.8733 50.8547 90.8745C51.7783 90.8745 54.1407 91.3391 56.4147 95.6429L56.4161 95.6457L56.4121 95.6437L56.4139 95.6445ZM49.2979 94.9565C47.8147 94.9565 46.6855 94.7005 45.9415 94.1965C45.6251 93.9939 45.3703 93.7085 45.2043 93.3715C45.1437 93.2437 45.1037 93.1071 45.0855 92.9669C45.5797 92.7665 46.1055 92.6549 46.6385 92.6369C46.7151 92.6333 46.7923 92.6311 46.8733 92.6309C48.0197 92.6309 49.7629 93.0049 51.6025 94.7869L51.6043 94.7887H51.6021C50.8379 94.8941 50.0675 94.9501 49.2961 94.9567L49.2979 94.9565ZM42.1159 94.6805C40.5519 94.6805 38.4033 94.2029 37.0633 92.8631L37.0619 92.8615H37.0659C38.0845 92.6209 39.1245 92.4827 40.1705 92.4491C40.2681 92.4467 40.3665 92.4455 40.4655 92.4453C41.9319 92.4453 43.0543 92.7297 43.8019 93.2903C44.0107 93.4157 44.1659 93.6141 44.2375 93.8469C44.2541 94.0187 44.1723 94.1851 44.0263 94.2769C43.6897 94.5311 43.0879 94.6667 42.2373 94.6803L42.1173 94.6843L42.1159 94.6805ZM37.0479 92.0805C36.8561 92.0809 36.6741 91.9951 36.5521 91.8471C36.4393 91.6989 36.3633 91.5261 36.3305 91.3427C36.2795 91.1013 36.2599 90.8543 36.2723 90.6079V90.6043C36.3487 90.5691 36.4317 90.5503 36.5157 90.5493C36.7119 90.5565 36.8975 90.6395 37.0335 90.7809C37.1849 90.9293 37.3003 91.1101 37.3711 91.3099C37.4419 91.4765 37.4547 91.6621 37.4071 91.8369C37.3487 91.9843 37.2057 92.0805 37.0471 92.0789L37.0479 92.0805ZM48.7539 91.8165C48.5143 91.8211 48.2841 91.7243 48.1199 91.5499C47.9781 91.3851 47.8803 91.1871 47.8355 90.9743C47.7715 90.6981 47.7477 90.4139 47.7653 90.1309C47.8641 90.0881 47.9701 90.0641 48.0777 90.0601H48.1001C48.6023 90.0601 48.9981 90.4957 49.1677 90.9275C49.2601 91.1185 49.2797 91.3365 49.2225 91.5409C49.1375 91.7195 48.9519 91.8281 48.7545 91.8149L48.7539 91.8165ZM43.0519 91.5805C39.9045 91.4697 38.2719 90.5751 37.4551 89.8439C37.1059 89.5379 36.8181 89.1681 36.6071 88.7545C36.5285 88.5993 36.4677 88.4357 36.4255 88.2669L36.4297 88.2651C36.6817 88.1887 36.9435 88.1497 37.2067 88.1493H37.2803C38.3417 88.1493 40.5025 88.5951 43.0507 91.5799V91.5819L43.0519 91.5805ZM46.4699 91.2625C43.9377 90.8769 42.5031 89.7899 41.7455 88.9455C41.2779 88.4435 40.9225 87.8477 40.7029 87.1979C40.9589 87.1393 41.2203 87.1077 41.4829 87.1041C41.5167 87.1041 41.5519 87.1027 41.5877 87.1027C41.6235 87.1027 41.6607 87.1027 41.6983 87.1041C42.9719 87.1319 45.2851 87.7087 46.4693 91.2611H46.4713L46.4699 91.2625ZM33.4699 90.0465C32.6639 90.0491 31.8605 89.9529 31.0779 89.7601C29.7521 89.4285 29.1833 88.9223 28.9397 88.5559C28.8347 88.4041 28.7645 88.2311 28.7335 88.0491C28.7225 87.9781 28.7203 87.9061 28.7273 87.8345L28.7335 87.8323C29.4183 87.6625 30.1207 87.5733 30.8263 87.5667C30.8741 87.5667 30.9223 87.5655 30.9713 87.5655C31.5463 87.5645 32.1201 87.6201 32.6841 87.7315C33.9635 87.9989 35.1035 88.7191 35.8947 89.7595V89.7613H35.8921C35.0989 89.9553 34.2847 90.0507 33.4681 90.0453L33.4699 90.0465ZM39.3479 87.9105C39.1093 87.9169 38.8789 87.8225 38.7135 87.6505C38.5713 87.4837 38.4735 87.2837 38.4295 87.0689C38.3653 86.7949 38.3417 86.5129 38.3593 86.2319C38.4581 86.1891 38.5641 86.1651 38.6717 86.1611H38.6941C39.1953 86.1611 39.5917 86.5969 39.7619 87.0287C39.8525 87.2181 39.8697 87.4341 39.8105 87.6355C39.7293 87.8151 39.5451 87.9251 39.3485 87.9115L39.3479 87.9105ZM34.9279 87.3045C34.0863 87.0663 33.2813 86.7147 32.5345 86.2595C31.4257 85.5769 30.0693 84.3695 29.9039 82.4935H29.9067C29.9909 82.4755 30.0763 82.4653 30.1623 82.4627C30.1823 82.4627 30.2057 82.4615 30.2291 82.4615C30.5603 82.4615 31.2383 82.5547 32.0585 83.1783C33.1025 83.9743 34.0665 85.3623 34.9285 87.3083L34.9279 87.3045ZM37.8139 87.1985C37.1271 86.8865 36.4893 86.4767 35.9201 85.9817C34.4491 84.7157 33.3027 83.1157 32.5769 81.3157C32.7581 81.2307 32.9541 81.1821 33.1541 81.1721C33.1741 81.1707 33.1941 81.1703 33.2153 81.1703C33.2453 81.1703 33.2763 81.1703 33.3079 81.1721C33.7901 81.1857 34.5245 81.3861 35.3387 82.2647C36.2739 83.2741 37.1087 84.9327 37.8187 87.1949L37.8207 87.2013L37.8147 87.1993L37.8139 87.1985ZM30.3359 86.9805C29.3717 86.9805 29.0417 86.4575 28.9445 86.2325C28.8477 85.9981 28.8097 85.7435 28.8337 85.4911V85.4871C28.9907 85.4479 29.1519 85.4269 29.3137 85.4243H29.3467C29.9771 85.4089 30.5773 85.6939 30.9635 86.1925C31.0145 86.2683 31.1709 86.5313 31.0415 86.7367C30.9375 86.8987 30.7015 86.9807 30.3355 86.9807L30.3359 86.9805ZM28.1999 84.2863C27.4531 84.2881 26.7075 84.2243 25.9717 84.0959C25.1129 83.9397 24.6261 83.2095 24.3691 82.6247C24.1963 82.2249 24.0753 81.8045 24.0091 81.3739H24.0115C26.6679 81.4519 27.9225 82.2281 28.5071 82.8653C28.8693 83.2423 29.0951 83.7297 29.1483 84.2497H29.1465C29.1425 84.2497 28.7685 84.2857 28.1985 84.2857L28.1999 84.2863ZM30.9659 81.5223C30.9623 81.5179 30.6589 81.1423 30.3593 80.6767C30.0447 80.1877 29.7537 79.6767 29.7537 79.2599C29.7537 78.8567 29.6589 78.0067 29.6023 77.5361C29.5307 76.9391 29.4583 76.4281 29.4523 76.3847H29.4549C29.5223 76.4093 31.1165 77.0075 31.1165 78.5029C31.1165 79.9983 30.9689 81.5057 30.9675 81.5207V81.5229H30.9655L30.9659 81.5223ZM28.8999 81.3803C28.8831 81.3803 28.8665 81.3787 28.8499 81.3761C28.3787 81.2975 27.5499 80.9373 26.6353 80.4125C25.6189 79.8297 24.7935 79.2053 24.3113 78.6543C23.8713 78.1519 23.6113 77.3629 23.5353 76.3091C23.5017 75.8319 23.5077 75.3527 23.5527 74.8765C23.6377 74.8491 23.7265 74.8355 23.8157 74.8365C24.1685 74.8423 24.5451 75.0011 25.0535 75.3513C25.5169 75.6811 25.9511 76.0501 26.3515 76.4541C26.8599 76.9591 27.3405 77.4913 27.7915 78.0483L27.7979 78.0563C27.8509 78.1513 28.3053 78.9705 28.6593 79.7679C28.8363 80.1349 28.9721 80.5203 29.0641 80.9171C29.0989 81.0333 29.0989 81.1571 29.0641 81.2733C29.0493 81.3109 29.0221 81.3425 28.9871 81.3629C28.9593 81.3749 28.9293 81.3811 28.8991 81.3809L28.8999 81.3803Z" fill="#005801"/>
<path d="M57.3801 101.348C57.4065 101.337 57.4301 101.32 57.4495 101.299L57.4745 101.276C57.5857 101.172 57.6913 101.062 57.7909 100.947C58.0573 100.645 58.4147 100.202 58.7289 99.8103C59.3519 99.0337 59.8667 98.3647 59.9637 98.2387L60.1223 98.0323L61.6757 97.5533L62.8099 97.0245L62.2039 96.3433L60.1223 97.2345L58.5689 97.5533L55.6963 99.6661L55.6985 99.6679C55.7043 99.6727 56.1163 100.015 56.5257 100.388C56.7083 100.554 56.9385 100.768 57.1011 100.944C57.1681 101.016 57.2303 101.092 57.2871 101.172C57.3213 101.229 57.3523 101.288 57.3801 101.348M68.0481 98.1445C69.4495 98.1317 70.8225 97.7475 72.0271 97.0311H72.0285V97.0295C71.8819 96.7851 71.6859 96.5739 71.4529 96.4095C71.0647 96.1245 70.3645 95.7839 69.2329 95.7795H69.2095C67.8695 95.7795 66.2295 96.2351 64.3349 97.1337C65.4581 97.8011 66.7417 98.1505 68.0481 98.1445ZM73.9221 96.8425C74.1617 96.8471 74.3919 96.7503 74.5561 96.5759C74.6979 96.4111 74.7955 96.2129 74.8401 96.0001C74.9041 95.7239 74.9279 95.4397 74.9103 95.1567C74.8115 95.1139 74.7055 95.0899 74.5979 95.0859H74.5755C74.0733 95.0859 73.6775 95.5215 73.5079 95.9533C73.4155 96.1443 73.3959 96.3623 73.4531 96.5667C73.5383 96.7451 73.7237 96.8537 73.9211 96.8407L73.9221 96.8425ZM63.5861 95.6445C67.0579 95.1487 68.5295 93.8935 69.1527 92.9279C69.5473 92.3419 69.7329 91.6403 69.6795 90.9359V90.9331H69.6769C69.5025 90.8931 69.3241 90.8733 69.1453 90.8745C68.2217 90.8745 65.8593 91.3391 63.5853 95.6429L63.5839 95.6457L63.5879 95.6437L63.5861 95.6445ZM70.7021 94.9565C72.1853 94.9565 73.3145 94.7005 74.0585 94.1965C74.3749 93.9939 74.6297 93.7085 74.7957 93.3715C74.8563 93.2437 74.8963 93.1071 74.9145 92.9669C74.4203 92.7665 73.8945 92.6549 73.3615 92.6369C73.2849 92.6333 73.2077 92.6311 73.1267 92.6309C71.9803 92.6309 70.2371 93.0049 68.3975 94.7869L68.3957 94.7887H68.3979C69.1621 94.8941 69.9325 94.9501 70.7039 94.9567L70.7021 94.9565ZM77.8841 94.6805C79.4481 94.6805 81.5967 94.2029 82.9367 92.8631L82.9381 92.8615H82.9341C81.9155 92.6209 80.8755 92.4827 79.8295 92.4491C79.7319 92.4467 79.6335 92.4455 79.5345 92.4453C78.0681 92.4453 76.9457 92.7297 76.1981 93.2903C75.9893 93.4157 75.8341 93.6141 75.7625 93.8469C75.7459 94.0187 75.8277 94.1851 75.9737 94.2769C76.3103 94.5311 76.9121 94.6667 77.7627 94.6803L77.8827 94.6843L77.8841 94.6805ZM82.9521 92.0805C83.1439 92.0809 83.3259 91.9951 83.4479 91.8471C83.5607 91.6989 83.6367 91.5261 83.6695 91.3427C83.7205 91.1013 83.7401 90.8543 83.7277 90.6079V90.6043C83.6513 90.5691 83.5683 90.5503 83.4843 90.5493C83.2881 90.5565 83.1025 90.6395 82.9665 90.7809C82.8151 90.9293 82.6997 91.1101 82.6289 91.3099C82.5581 91.4765 82.5453 91.6621 82.5929 91.8369C82.6513 91.9843 82.7943 92.0805 82.9529 92.0789L82.9521 92.0805ZM71.2461 91.8165C71.4857 91.8211 71.7159 91.7243 71.8801 91.5499C72.0219 91.3851 72.1197 91.1871 72.1645 90.9743C72.2285 90.6981 72.2523 90.4139 72.2347 90.1309C72.1359 90.0881 72.0299 90.0641 71.9223 90.0601H71.8999C71.3977 90.0601 71.0019 90.4957 70.8323 90.9275C70.7399 91.1185 70.7203 91.3365 70.7775 91.5409C70.8625 91.7195 71.0481 91.8281 71.2455 91.8149L71.2461 91.8165ZM76.9481 91.5805C80.0955 91.4697 81.7281 90.5751 82.5449 89.8439C82.8941 89.5379 83.1819 89.1681 83.3929 88.7545C83.4715 88.5993 83.5323 88.4357 83.5745 88.2669L83.5703 88.2651C83.3183 88.1887 83.0565 88.1497 82.7933 88.1493H82.7197C81.6583 88.1493 79.4975 88.5951 76.9493 91.5799V91.5819L76.9481 91.5805ZM73.5301 91.2625C76.0623 90.8769 77.4969 89.7899 78.2545 88.9455C78.7221 88.4435 79.0775 87.8477 79.2971 87.1979C79.0411 87.1393 78.7797 87.1077 78.5171 87.1041C78.4833 87.1041 78.4481 87.1027 78.4123 87.1027C78.3765 87.1027 78.3393 87.1027 78.3017 87.1041C77.0281 87.1319 74.7149 87.7087 73.5307 91.2611H73.5287L73.5301 91.2625ZM86.5301 90.0465C87.3361 90.0491 88.1395 89.9529 88.9221 89.7601C90.2479 89.4285 90.8167 88.9223 91.0603 88.5559C91.1653 88.4041 91.2355 88.2311 91.2665 88.0491C91.2775 87.9781 91.2797 87.9061 91.2727 87.8345L91.2665 87.8323C90.5817 87.6625 89.8793 87.5733 89.1737 87.5667C89.1259 87.5667 89.0777 87.5655 89.0287 87.5655C88.4537 87.5645 87.8799 87.6201 87.3159 87.7315C86.0365 87.9989 84.8965 88.7191 84.1053 89.7595V89.7613H84.1079C84.9011 89.9553 85.7153 90.0507 86.5319 90.0453L86.5301 90.0465ZM80.6521 87.9105C80.8907 87.9169 81.1211 87.8225 81.2865 87.6505C81.4287 87.4837 81.5265 87.2837 81.5705 87.0689C81.6347 86.7949 81.6583 86.5129 81.6407 86.2319C81.5419 86.1891 81.4359 86.1651 81.3283 86.1611H81.3059C80.8047 86.1611 80.4083 86.5969 80.2381 87.0287C80.1475 87.2181 80.1303 87.4341 80.1895 87.6355C80.2707 87.8151 80.4549 87.9251 80.6515 87.9115L80.6521 87.9105ZM85.0721 87.3045C85.9137 87.0663 86.7187 86.7147 87.4655 86.2595C88.5743 85.5769 89.9307 84.3695 90.0961 82.4935H90.0933C90.0091 82.4755 89.9237 82.4653 89.8377 82.4627C89.8177 82.4627 89.7943 82.4615 89.7709 82.4615C89.4397 82.4615 88.7617 82.5547 87.9415 83.1783C86.8975 83.9743 85.9335 85.3623 85.0715 87.3083L85.0721 87.3045ZM82.1861 87.1985C82.8729 86.8865 83.5107 86.4767 84.0799 85.9817C85.5509 84.7157 86.6973 83.1157 87.4231 81.3157C87.2419 81.2307 87.0459 81.1821 86.8459 81.1721C86.8259 81.1707 86.8059 81.1703 86.7847 81.1703C86.7547 81.1703 86.7237 81.1703 86.6921 81.1721C86.2099 81.1857 85.4755 81.3861 84.6613 82.2647C83.7261 83.2741 82.8913 84.9327 82.1813 87.1949L82.1793 87.2013L82.1853 87.1993L82.1861 87.1985ZM89.6641 86.9805C90.6283 86.9805 90.9583 86.4575 91.0555 86.2325C91.1523 85.9981 91.1903 85.7435 91.1663 85.4911V85.4871C91.0093 85.4479 90.8481 85.4269 90.6863 85.4243H90.6533C90.0229 85.4089 89.4227 85.6939 89.0365 86.1925C88.9855 86.2683 88.8291 86.5313 88.9585 86.7367C89.0625 86.8987 89.2985 86.9807 89.6645 86.9807L89.6641 86.9805ZM91.8001 84.2863C92.5469 84.2881 93.2925 84.2243 94.0283 84.0959C94.8871 83.9397 95.3739 83.2095 95.6309 82.6247C95.8037 82.2249 95.9247 81.8045 95.9909 81.3739H95.9885C93.3321 81.4519 92.0775 82.2281 91.4929 82.8653C91.1307 83.2423 90.9049 83.7297 90.8517 84.2497H90.8535C90.8575 84.2497 91.2315 84.2857 91.8015 84.2857L91.8001 84.2863ZM89.0341 81.5223C89.0377 81.5179 89.3411 81.1423 89.6407 80.6767C89.9553 80.1877 90.2463 79.6767 90.2463 79.2599C90.2463 78.8567 90.3411 78.0067 90.3977 77.5361C90.4693 76.9391 90.5417 76.4281 90.5477 76.3847H90.5451C90.4777 76.4093 88.8835 77.0075 88.8835 78.5029C88.8835 79.9983 89.0311 81.5057 89.0325 81.5207V81.5229H89.0345L89.0341 81.5223ZM91.1001 81.3803C91.1169 81.3803 91.1335 81.3787 91.1501 81.3761C91.6213 81.2975 92.4501 80.9373 93.3647 80.4125C94.3811 79.8297 95.2065 79.2053 95.6887 78.6543C96.1287 78.1519 96.3887 77.3629 96.4647 76.3091C96.4983 75.8319 96.4923 75.3527 96.4473 74.8765C96.3623 74.8491 96.2735 74.8355 96.1843 74.8365C95.8315 74.8423 95.4549 75.0011 94.9465 75.3513C94.4831 75.6811 94.0489 76.0501 93.6485 76.4541C93.1401 76.9591 92.6595 77.4913 92.2085 78.0483L92.2021 78.0563C92.1491 78.1513 91.6947 78.9705 91.3407 79.7679C91.1637 80.1349 91.0279 80.5203 90.9359 80.9171C90.9011 81.0333 90.9011 81.1571 90.9359 81.2733C90.9507 81.3109 90.9779 81.3425 91.0129 81.3629C91.0407 81.3749 91.0707 81.3811 91.1009 81.3809L91.1001 81.3803Z" fill="#005801"/>
<path d="M115.426 20.7933L114.955 20.9809L114.771 21.0545L114.2 21.0231L113.665 21.2797L112.717 21.9275L112.676 21.9575L112.322 22.0497L111.994 21.9081L111.808 21.9929L111.743 22.3769L111.566 22.6527L111.348 22.8061L110.591 22.8835L109.953 23.2125L109.123 22.9903L108.737 23.1413L107.917 23.8797L107.498 24.0781L107.352 24.0697L106.796 24.0411L106.562 24.1179L106.211 24.4565L105.548 24.5081L105.342 24.6511L105.018 25.3031L104.668 25.6647L104.468 25.7071L104.25 25.6271L104.087 25.6559L104.013 26.0731L103.854 26.2479L103.41 26.4007L103.056 26.6961L102.745 26.8561L102.328 26.8457H102.232L101.817 27.0749L101.037 27.1433L100.712 27.4531L100.64 27.5193L100.489 27.6109L100.241 27.7589L100.181 27.7957L99.8808 27.7423L99.5308 27.8809L99.3892 27.6631L99.147 27.8085L98.827 27.8223L98.427 27.6445L98.1226 27.5089L97.9 27.5411L97.8226 27.9291L97.8148 27.9703L97.5808 28.2817L97.144 28.5463L97.084 28.6237L96.587 29.2653L95.6426 30.2585L94.844 30.6641L94.0162 30.9159L93.4362 31.3919L91.9162 32.1453L89.5172 33.3399L89.0266 33.4971L88.3226 33.6095L87.067 34.0719L85.9592 34.4061L85.8976 34.4249L85.6776 34.4913L84.1156 34.9639L83.3886 34.8871L82.958 35.0435L81.837 34.9191L81.057 34.9345L80.5636 35.0371L79.6362 35.4819L78.0708 36.2343L77.5536 36.7075L76.7482 37.1275L75.8052 37.4261L75.8074 37.0299L75.8018 37.0131L75.4746 37.1165L75.2384 37.1911L74.4734 37.3091H74.0478L73.7836 37.2323L73.7436 37.2461L72.18 37.7599L70.4362 37.9283L69.5636 38.2083L68.9116 38.1979L68.504 38.3191L67.704 38.4169L67.4184 38.3407L67.354 38.3231L65.004 38.4251L63.9296 38.3037L63.4168 38.4203L62.5568 38.1311L61.303 37.9857L61.01 37.8979L60.35 37.7023L60.0518 37.8741L59.8286 37.8979L59.2952 37.7045L59.1032 37.6997L58.6632 37.8597L58.4098 37.7947L58.1744 37.6071L57.6222 37.5249L57.2858 37.2421L55.4058 37.4913L54.8956 37.3413L53.1848 36.8429L52.9126 36.8567L52.5726 37.1109L52.063 37.2967L51.6206 37.4117L51.0182 37.4317L50.3182 37.2481L49.597 36.8985L49.3304 36.8351L48.7356 36.8951L48.5536 36.9115L47.4604 36.3251L46.052 35.4451L45.0964 34.9851L44.7376 34.9269L44.6894 35.0975L44.8674 35.6575L44.9274 36.2123L44.9092 36.7249L44.8994 37.0423L44.9886 37.3273L45.3336 37.7097L45.4774 38.0937L45.5826 39.1505L45.5814 40.2229L45.4136 41.9331L45.357 42.1931L45.157 43.0791L44.9742 43.8929L44.265 46.0595L44.0702 46.3281L43.592 46.6543L42.5082 47.3919L41.7102 47.8519L41.4576 47.9565L40.8098 48.0055L40.4062 47.9855L39.9036 47.7133L39.4102 47.5863L38.7638 47.1215L38.0438 46.9727L37.2556 46.5171L37.0504 46.2705L36.6212 46.2305L36.026 46.0519V46.0509L35.8074 45.9855L35.6564 45.9415L34.8964 45.9215L34.1884 45.5947L33.8156 45.5047L33.3062 45.4789L32.773 45.7267L32.5028 45.8525L32.1614 45.7169L31.9144 45.7323L31.6344 46.1553L31.6 46.2199L31.4072 46.3219L31.1672 46.3185L30.9794 46.3135L30.7762 46.4023L30.5026 46.5209L30.261 46.6263L30.143 46.6773L30.141 46.6753L30.0684 46.6899L29.9394 46.7123L29.7794 46.7429L29.4974 46.5781L29.3474 46.4897L29.096 46.4385L28.9606 46.5363L28.934 46.9963L28.8104 47.2719L28.4182 47.6187L28.0196 47.9697L27.7418 48.3791L27.0066 50.0571L26.5466 50.7341L26.4036 50.8919L25.92 51.4239L25.4928 51.7553L24.5084 52.5183L23.5766 52.8665L22.774 53.0305L22.3838 53.0321L21.6438 52.9337L20.9792 52.7297L20.2492 52.2733L19.4492 51.6299L18.2904 50.4851L18.1264 50.3865L18.0922 50.3637L17.7272 50.1303L17.4564 50.1373L17.3504 50.3121L17.2924 50.5647L17.2434 50.7887L17.1106 52.0621L17.1204 52.1359L17.1902 52.6603L18.0702 53.8903L18.3418 54.5437L18.3864 54.6183L18.568 54.9233L18.7062 55.1559L18.72 55.1795L19.02 56.0771L18.8086 56.5839L18.9154 56.9239L18.6482 57.1313L18.5992 57.4243L19.3894 58.4149L19.5618 58.8519L19.3692 59.4577L19.062 59.7919L18.9762 59.8833L19.0194 60.1393L19.383 60.4663L20.0008 61.0163L20.3302 61.8335L20.5808 62.0535L20.872 61.9915L21.034 62.1151L21.2796 62.1109L21.5212 62.3525L21.6776 62.4283L21.9248 62.5515L22.1202 62.8059L22.1634 63.5881L22.5278 64.5601L22.5334 65.0871L22.5354 65.1619L22.7622 65.5515L22.8334 65.8591L22.7134 66.6729L23.0024 66.9341L23.3158 66.8701L23.5182 66.9021L23.8434 67.1729L24.2372 67.7729L24.6224 67.7165L24.8668 67.8343L26.0468 68.9011L26.3146 69.0363L26.3294 69.0447L26.522 69.1413L26.762 69.3829L27.1332 69.1365L27.1744 69.1323L27.578 69.0967L27.7552 69.2167L28.0952 69.4465L28.542 69.4407L29.5108 69.7377L29.9346 69.8463L30.7868 70.3759L31.149 70.5999L31.3634 70.7741L31.6482 71.0063L32.2172 71.2511L32.7052 71.3679L32.9696 71.4307L33.1696 71.5075L33.1746 71.4951H33.1774L33.1726 71.5077L34.2294 71.9123L34.8018 72.0459L35.3314 72.2409L35.7168 72.3809L35.9996 72.3855L36.3996 72.0491L36.787 72.0267L37.1088 72.1067L37.4228 72.0541L37.9198 71.7479L38.0168 71.6041L38.3692 71.4363L39.558 71.2887L39.9054 71.4015L40.7974 71.0135L41.395 71.1797L41.924 70.9921L43.0798 71.2489L43.387 71.4651L43.7304 71.8581L43.7724 71.8599L44.1548 71.8673L43.9948 72.1335L44.4994 72.6629L44.9552 73.3519L44.986 73.4429L45.3174 74.4157L45.5638 74.7603L45.7362 75.2413L45.7446 75.5549L45.4766 75.7593L45.4326 75.8759L45.4174 75.9191L45.4718 76.0501L45.573 75.9949L45.7656 75.8883L46 75.8519L46.4132 75.8959L46.686 75.9245L47.1168 75.7107L47.4022 75.5687L47.8608 75.7661L48.3648 75.7605L48.5764 75.8547L49.1764 76.1263L49.4822 76.1551L49.5952 76.0809L49.6672 75.9097L49.6302 75.7097L49.4 75.4459L48.8938 74.8583L48.6866 74.5563L48.5288 74.1191L48.48 73.5599L48.4452 73.1829L48.508 72.6875L48.644 72.5107L48.744 72.1171H48.7458L48.7716 72.0141L49.0528 71.6409L49.7976 71.1623L50.5976 70.4459L51.23 70.0289L51.882 69.7465L51.8994 69.6665L51.972 69.6957L53.6304 69.1319L53.6578 69.1287L54.3962 69.0001L59.3802 69.3511L59.565 69.2953V69.2941L59.731 68.8281L59.8204 68.7417L59.8804 68.6853L60.4284 68.4441L60.6846 68.4075L61.3958 68.5831L61.687 68.6549L62.1534 68.3935L62.4842 68.3991L63.1676 68.0259L63.5898 68.0365L63.7498 67.9723L64.5722 67.3813L65.3644 67.1543L65.5704 67.0447L65.643 67.0047L66.455 66.5759L66.9708 66.1797L67.416 65.9431L67.9036 65.8173L69.1796 65.7275L69.4362 65.2999L69.985 65.2267L70.3164 64.8527L70.6964 64.6985L70.9682 64.3069L71.196 63.9787L71.5142 63.7945L72.5342 63.7305L73.7432 63.8803L73.9032 63.7833L74.1764 62.8083L74.4624 62.6253L75.2326 61.5029L75.2352 61.0939V60.7523L75.3618 60.2659L75.2758 59.3877L75.3778 58.4985L75.8566 57.3685L76.2784 56.9127L76.9584 56.4527L77.3042 56.3021L77.794 56.2197V56.2199L77.866 56.2077L77.9908 56.1863L79.6774 56.1631C79.7008 56.1457 80.2908 56.1547 80.2908 56.1547L80.8532 56.1471L82.2764 56.3999L82.3776 56.4175L82.8576 56.5733L83.4124 57.0047L84 57.5785L84.1102 57.6855L84.4902 57.8455L84.6052 57.8957L84.9194 57.8455L85.3668 57.6125L85.7044 57.3271L86.1644 57.0757L86.1756 57.0597L86.4346 56.6701L86.4424 56.6621L86.448 56.6635V56.6613H86.4436L86.5458 56.5063L87.4352 56.1597L88.4812 56.0997L88.5988 56.0361L88.6642 56.0011L88.9406 55.6765L89.1996 55.6745L89.8266 55.9013L90.2666 55.8137L90.6166 55.9537L90.8886 55.9215L91.4016 55.8615L91.9524 56.2489L92.2734 56.2889L93.405 56.9509L93.4638 56.9605L93.4942 56.9661L93.559 56.9769L93.6932 56.9369L93.8932 56.8791L93.9196 56.8713L93.9448 56.9063L94.0734 57.0877L94.2498 57.1129L94.4586 56.8343L94.3756 56.7079L94.3442 56.6619L93.94 56.5797L93.577 55.9597L93.9226 55.5875L93.3804 54.9223L93.2904 54.8121L93.2598 54.7653L93.0724 54.4807L92.1232 53.0337L90.8868 52.0467L90.4538 51.7003L90.451 51.6983L90.2994 51.5783L89.6394 50.9067L89.1678 50.2807L89.106 50.1459L89.0086 49.9335L88.726 49.3179L88.2336 48.9379L87.8324 48.4997L87.8124 48.4739L86.9844 47.3487L86.8484 47.1601L86.6528 47.0471L86.2396 47.0443L86.1996 47.0043L86.1764 46.9801L86.1904 46.9653L86.3886 46.7683L86.6096 46.7127L86.7048 46.4949L86.2832 45.2749L86.2804 45.2323L86.249 44.8423L86.5926 43.0713L86.6366 42.8555L87.2222 41.6639L87.585 41.3667L87.981 40.5883L88.321 40.0907L88.646 39.7743L88.7028 39.7407L89.2896 39.3855L89.7826 39.3161L90.2522 39.2499L91.0722 39.5027L91.8522 39.4875L92.0044 39.4713L92.3584 39.4313L92.9406 39.2479L93.2154 39.0783L93.358 38.8597L93.6554 37.8623L93.751 37.5449L93.9344 37.2001L94.9956 35.9785L95.7978 35.2365L97.6016 33.9139L98.4846 33.3861L98.9354 33.1167L102.961 31.3275L104.007 30.2675L104.552 29.7159L105.516 29.0689L106.644 28.6067L107.615 27.8383L107.827 27.5715L108.094 26.7115L108.317 26.6577L108.517 26.2229L108.574 26.0993L109.366 25.5409L109.456 25.4963L112.533 23.9543L112.98 24.0157L113.22 23.6571L114.116 23.5069L114.281 23.4789L114.501 23.3687L114.688 23.0487V22.9855L114.714 22.1309L114.905 21.8999L115.01 21.3367L115.108 21.2067L115.21 21.0715L115.464 20.8933L115.42 20.7871L115.426 20.7933Z" fill="#F4812F"/>
</g>
<defs>
<clipPath id="clip0_909_280937">
<rect width="120" height="120" fill="white"/>
</clipPath>
</defs>
</svg>
