<svg width="120" height="120" viewBox="0 0 120 120" fill="none" xmlns="http://www.w3.org/2000/svg">
<path d="M120 3.05176e-05H0V120H120V3.05176e-05Z" fill="white"/>
<path d="M62.6197 101.348C62.5933 101.337 62.5697 101.32 62.5503 101.299L62.5253 101.276C62.4141 101.172 62.3085 101.062 62.2089 100.947C61.9425 100.645 61.5851 100.202 61.2709 99.8102C60.6479 99.0336 60.1331 98.3646 60.0361 98.2386L59.8775 98.0322L58.3241 97.5532L57.1899 97.0244L57.7959 96.3432L59.8775 97.2344L61.4309 97.5532L64.3035 99.666L64.3013 99.6678C64.2955 99.6726 63.8835 100.015 63.4741 100.388C63.2915 100.554 63.0613 100.768 62.8987 100.944C62.8317 101.016 62.7695 101.092 62.7127 101.172C62.6785 101.229 62.6475 101.288 62.6197 101.348M51.9517 98.1444C50.5503 98.1316 49.1773 97.7474 47.9727 97.031H47.9713V97.0294C48.1179 96.785 48.3139 96.5738 48.5469 96.4094C48.9351 96.1244 49.6353 95.7838 50.7669 95.7794H50.7903C52.1303 95.7794 53.7703 96.235 55.6649 97.1336C54.5417 97.801 53.2581 98.1504 51.9517 98.1444ZM46.0777 96.8424C45.8381 96.847 45.6079 96.7502 45.4437 96.5758C45.3019 96.411 45.2043 96.2128 45.1597 96C45.0957 95.7238 45.0719 95.4396 45.0895 95.1566C45.1883 95.1138 45.2943 95.0898 45.4019 95.0858H45.4243C45.9265 95.0858 46.3223 95.5214 46.4919 95.9532C46.5843 96.1442 46.6039 96.3622 46.5467 96.5666C46.4615 96.745 46.2761 96.8536 46.0787 96.8406L46.0777 96.8424ZM56.4137 95.6444C52.9419 95.1486 51.4703 93.8934 50.8471 92.9278C50.4525 92.3418 50.2669 91.6402 50.3203 90.9358V90.933H50.3229C50.4973 90.893 50.6757 90.8732 50.8545 90.8744C51.7781 90.8744 54.1405 91.339 56.4145 95.6428L56.4159 95.6456L56.4119 95.6436L56.4137 95.6444ZM49.2977 94.9564C47.8145 94.9564 46.6853 94.7004 45.9413 94.1964C45.6249 93.9938 45.3701 93.7084 45.2041 93.3714C45.1435 93.2436 45.1035 93.107 45.0853 92.9668C45.5795 92.7664 46.1053 92.6548 46.6383 92.6368C46.7149 92.6332 46.7921 92.631 46.8731 92.6308C48.0195 92.6308 49.7627 93.0048 51.6023 94.7868L51.6041 94.7886H51.6019C50.8377 94.894 50.0673 94.95 49.2959 94.9566L49.2977 94.9564ZM42.1157 94.6804C40.5517 94.6804 38.4031 94.2028 37.0631 92.863L37.0617 92.8614H37.0657C38.0843 92.6208 39.1243 92.4826 40.1703 92.449C40.2679 92.4466 40.3663 92.4454 40.4653 92.4452C41.9317 92.4452 43.0541 92.7296 43.8017 93.2902C44.0105 93.4156 44.1657 93.614 44.2373 93.8468C44.2539 94.0186 44.1721 94.185 44.0261 94.2768C43.6895 94.531 43.0877 94.6666 42.2371 94.6802L42.1171 94.6842L42.1157 94.6804ZM37.0477 92.0804C36.8559 92.0808 36.6739 91.995 36.5519 91.847C36.4391 91.6988 36.3631 91.526 36.3303 91.3426C36.2793 91.1012 36.2597 90.8542 36.2721 90.6078V90.6042C36.3485 90.569 36.4315 90.5502 36.5155 90.5492C36.7117 90.5564 36.8973 90.6394 37.0333 90.7808C37.1847 90.9292 37.3001 91.11 37.3709 91.3098C37.4417 91.4764 37.4545 91.662 37.4069 91.8368C37.3485 91.9842 37.2055 92.0804 37.0469 92.0788L37.0477 92.0804ZM48.7537 91.8164C48.5141 91.821 48.2839 91.7242 48.1197 91.5498C47.9779 91.385 47.8801 91.187 47.8353 90.9742C47.7713 90.698 47.7475 90.4138 47.7651 90.1308C47.8639 90.088 47.9699 90.064 48.0775 90.06H48.0999C48.6021 90.06 48.9979 90.4956 49.1675 90.9274C49.2599 91.1184 49.2795 91.3364 49.2223 91.5408C49.1373 91.7194 48.9517 91.828 48.7543 91.8148L48.7537 91.8164ZM43.0517 91.5804C39.9043 91.4696 38.2717 90.575 37.4549 89.8438C37.1057 89.5378 36.8179 89.168 36.6069 88.7544C36.5283 88.5992 36.4675 88.4356 36.4253 88.2668L36.4295 88.265C36.6815 88.1886 36.9433 88.1496 37.2065 88.1492H37.2801C38.3415 88.1492 40.5023 88.595 43.0505 91.5798V91.5818L43.0517 91.5804ZM46.4697 91.2624C43.9375 90.8768 42.5029 89.7898 41.7453 88.9454C41.2777 88.4434 40.9223 87.8476 40.7027 87.1978C40.9587 87.1392 41.2201 87.1076 41.4827 87.104C41.5165 87.104 41.5517 87.1026 41.5875 87.1026C41.6233 87.1026 41.6605 87.1026 41.6981 87.104C42.9717 87.1318 45.2849 87.7086 46.4691 91.261H46.4711L46.4697 91.2624ZM33.4697 90.0464C32.6637 90.049 31.8603 89.9528 31.0777 89.76C29.7519 89.4284 29.1831 88.9222 28.9395 88.5558C28.8345 88.404 28.7643 88.231 28.7333 88.049C28.7223 87.978 28.7201 87.906 28.7271 87.8344L28.7333 87.8322C29.4181 87.6624 30.1205 87.5732 30.8261 87.5666C30.8739 87.5666 30.9221 87.5654 30.9711 87.5654C31.5461 87.5644 32.1199 87.62 32.6839 87.7314C33.9633 87.9988 35.1033 88.719 35.8945 89.7594V89.7612H35.8919C35.0987 89.9552 34.2845 90.0506 33.4679 90.0452L33.4697 90.0464ZM39.3477 87.9104C39.1091 87.9168 38.8787 87.8224 38.7133 87.6504C38.5711 87.4836 38.4733 87.2836 38.4293 87.0688C38.3651 86.7948 38.3415 86.5128 38.3591 86.2318C38.4579 86.189 38.5639 86.165 38.6715 86.161H38.6939C39.1951 86.161 39.5915 86.5968 39.7617 87.0286C39.8523 87.218 39.8695 87.434 39.8103 87.6354C39.7291 87.815 39.5449 87.925 39.3483 87.9114L39.3477 87.9104ZM34.9277 87.3044C34.0861 87.0662 33.2811 86.7146 32.5343 86.2594C31.4255 85.5768 30.0691 84.3694 29.9037 82.4934H29.9065C29.9907 82.4754 30.0761 82.4652 30.1621 82.4626C30.1821 82.4626 30.2055 82.4614 30.2289 82.4614C30.5601 82.4614 31.2381 82.5546 32.0583 83.1782C33.1023 83.9742 34.0663 85.3622 34.9283 87.3082L34.9277 87.3044ZM37.8137 87.1984C37.1269 86.8864 36.4891 86.4766 35.9199 85.9816C34.4489 84.7156 33.3025 83.1156 32.5767 81.3156C32.7579 81.2306 32.9539 81.182 33.1539 81.172C33.1739 81.1706 33.1939 81.1702 33.2151 81.1702C33.2451 81.1702 33.2761 81.1702 33.3077 81.172C33.7899 81.1856 34.5243 81.386 35.3385 82.2646C36.2737 83.274 37.1085 84.9326 37.8185 87.1948L37.8205 87.2012L37.8145 87.1992L37.8137 87.1984ZM30.3357 86.9804C29.3715 86.9804 29.0415 86.4574 28.9443 86.2324C28.8475 85.998 28.8095 85.7434 28.8335 85.491V85.487C28.9905 85.4478 29.1517 85.4268 29.3135 85.4242H29.3465C29.9769 85.4088 30.5771 85.6938 30.9633 86.1924C31.0143 86.2682 31.1707 86.5312 31.0413 86.7366C30.9373 86.8986 30.7013 86.9806 30.3353 86.9806L30.3357 86.9804ZM28.1997 84.2862C27.4529 84.288 26.7073 84.2242 25.9715 84.0958C25.1127 83.9396 24.6259 83.2094 24.3689 82.6246C24.1961 82.2248 24.0751 81.8044 24.0089 81.3738H24.0113C26.6677 81.4518 27.9223 82.228 28.5069 82.8652C28.8691 83.2422 29.0949 83.7296 29.1481 84.2496H29.1463C29.1423 84.2496 28.7683 84.2856 28.1983 84.2856L28.1997 84.2862ZM30.9657 81.5222C30.9621 81.5178 30.6587 81.1422 30.3591 80.6766C30.0445 80.1876 29.7535 79.6766 29.7535 79.2598C29.7535 78.8566 29.6587 78.0066 29.6021 77.536C29.5305 76.939 29.4581 76.428 29.4521 76.3846H29.4547C29.5221 76.4092 31.1163 77.0074 31.1163 78.5028C31.1163 79.9982 30.9687 81.5056 30.9673 81.5206V81.5228H30.9653L30.9657 81.5222ZM28.8997 81.3802C28.8829 81.3802 28.8663 81.3786 28.8497 81.376C28.3785 81.2974 27.5497 80.9372 26.6351 80.4124C25.6187 79.8296 24.7933 79.2052 24.3111 78.6542C23.8711 78.1518 23.6111 77.3628 23.5351 76.309C23.5015 75.8318 23.5075 75.3526 23.5525 74.8764C23.6375 74.849 23.7263 74.8354 23.8155 74.8364C24.1683 74.8422 24.5449 75.001 25.0533 75.3512C25.5167 75.681 25.9509 76.05 26.3513 76.454C26.8597 76.959 27.3403 77.4912 27.7913 78.0482L27.7977 78.0562C27.8507 78.1512 28.3051 78.9704 28.6591 79.7678C28.8361 80.1348 28.9719 80.5202 29.0639 80.917C29.0987 81.0332 29.0987 81.157 29.0639 81.2732C29.0491 81.3108 29.0219 81.3424 28.9869 81.3628C28.9591 81.3748 28.9291 81.381 28.8989 81.3808L28.8997 81.3802Z" fill="#005801"/>
<path d="M57.3798 101.348C57.4062 101.337 57.4298 101.32 57.4492 101.299L57.4742 101.276C57.5854 101.172 57.691 101.062 57.7906 100.947C58.057 100.645 58.4144 100.202 58.7286 99.8102C59.3516 99.0336 59.8664 98.3646 59.9634 98.2386L60.122 98.0322L61.6754 97.5532L62.8096 97.0244L62.2036 96.3432L60.122 97.2344L58.5686 97.5532L55.696 99.666L55.6982 99.6678C55.704 99.6726 56.116 100.015 56.5254 100.388C56.708 100.554 56.9382 100.768 57.1008 100.944C57.1678 101.016 57.23 101.092 57.2868 101.172C57.321 101.229 57.352 101.288 57.3798 101.348M68.0478 98.1444C69.4492 98.1316 70.8222 97.7474 72.0268 97.031H72.0282V97.0294C71.8816 96.785 71.6856 96.5738 71.4526 96.4094C71.0644 96.1244 70.3642 95.7838 69.2326 95.7794H69.2092C67.8692 95.7794 66.2292 96.235 64.3346 97.1336C65.4578 97.801 66.7414 98.1504 68.0478 98.1444ZM73.9218 96.8424C74.1614 96.847 74.3916 96.7502 74.5558 96.5758C74.6976 96.411 74.7952 96.2128 74.8398 96C74.9038 95.7238 74.9276 95.4396 74.91 95.1566C74.8112 95.1138 74.7052 95.0898 74.5976 95.0858H74.5752C74.073 95.0858 73.6772 95.5214 73.5076 95.9532C73.4152 96.1442 73.3956 96.3622 73.4528 96.5666C73.538 96.745 73.7234 96.8536 73.9208 96.8406L73.9218 96.8424ZM63.5858 95.6444C67.0576 95.1486 68.5292 93.8934 69.1524 92.9278C69.547 92.3418 69.7326 91.6402 69.6792 90.9358V90.933H69.6766C69.5022 90.893 69.3238 90.8732 69.145 90.8744C68.2214 90.8744 65.859 91.339 63.585 95.6428L63.5836 95.6456L63.5876 95.6436L63.5858 95.6444ZM70.7018 94.9564C72.185 94.9564 73.3142 94.7004 74.0582 94.1964C74.3746 93.9938 74.6294 93.7084 74.7954 93.3714C74.856 93.2436 74.896 93.107 74.9142 92.9668C74.42 92.7664 73.8942 92.6548 73.3612 92.6368C73.2846 92.6332 73.2074 92.631 73.1264 92.6308C71.98 92.6308 70.2368 93.0048 68.3972 94.7868L68.3954 94.7886H68.3976C69.1618 94.894 69.9322 94.95 70.7036 94.9566L70.7018 94.9564ZM77.8838 94.6804C79.4478 94.6804 81.5964 94.2028 82.9364 92.863L82.9378 92.8614H82.9338C81.9152 92.6208 80.8752 92.4826 79.8292 92.449C79.7316 92.4466 79.6332 92.4454 79.5342 92.4452C78.0678 92.4452 76.9454 92.7296 76.1978 93.2902C75.989 93.4156 75.8338 93.614 75.7622 93.8468C75.7456 94.0186 75.8274 94.185 75.9734 94.2768C76.31 94.531 76.9118 94.6666 77.7624 94.6802L77.8824 94.6842L77.8838 94.6804ZM82.9518 92.0804C83.1436 92.0808 83.3256 91.995 83.4476 91.847C83.5604 91.6988 83.6364 91.526 83.6692 91.3426C83.7202 91.1012 83.7398 90.8542 83.7274 90.6078V90.6042C83.651 90.569 83.568 90.5502 83.484 90.5492C83.2878 90.5564 83.1022 90.6394 82.9662 90.7808C82.8148 90.9292 82.6994 91.11 82.6286 91.3098C82.5578 91.4764 82.545 91.662 82.5926 91.8368C82.651 91.9842 82.794 92.0804 82.9526 92.0788L82.9518 92.0804ZM71.2458 91.8164C71.4854 91.821 71.7156 91.7242 71.8798 91.5498C72.0216 91.385 72.1194 91.187 72.1642 90.9742C72.2282 90.698 72.252 90.4138 72.2344 90.1308C72.1356 90.088 72.0296 90.064 71.922 90.06H71.8996C71.3974 90.06 71.0016 90.4956 70.832 90.9274C70.7396 91.1184 70.72 91.3364 70.7772 91.5408C70.8622 91.7194 71.0478 91.828 71.2452 91.8148L71.2458 91.8164ZM76.9478 91.5804C80.0952 91.4696 81.7278 90.575 82.5446 89.8438C82.8938 89.5378 83.1816 89.168 83.3926 88.7544C83.4712 88.5992 83.532 88.4356 83.5742 88.2668L83.57 88.265C83.318 88.1886 83.0562 88.1496 82.793 88.1492H82.7194C81.658 88.1492 79.4972 88.595 76.949 91.5798V91.5818L76.9478 91.5804ZM73.5298 91.2624C76.062 90.8768 77.4966 89.7898 78.2542 88.9454C78.7218 88.4434 79.0772 87.8476 79.2968 87.1978C79.0408 87.1392 78.7794 87.1076 78.5168 87.104C78.483 87.104 78.4478 87.1026 78.412 87.1026C78.3762 87.1026 78.339 87.1026 78.3014 87.104C77.0278 87.1318 74.7146 87.7086 73.5304 91.261H73.5284L73.5298 91.2624ZM86.5298 90.0464C87.3358 90.049 88.1392 89.9528 88.9218 89.76C90.2476 89.4284 90.8164 88.9222 91.06 88.5558C91.165 88.404 91.2352 88.231 91.2662 88.049C91.2772 87.978 91.2794 87.906 91.2724 87.8344L91.2662 87.8322C90.5814 87.6624 89.879 87.5732 89.1734 87.5666C89.1256 87.5666 89.0774 87.5654 89.0284 87.5654C88.4534 87.5644 87.8796 87.62 87.3156 87.7314C86.0362 87.9988 84.8962 88.719 84.105 89.7594V89.7612H84.1076C84.9008 89.9552 85.715 90.0506 86.5316 90.0452L86.5298 90.0464ZM80.6518 87.9104C80.8904 87.9168 81.1208 87.8224 81.2862 87.6504C81.4284 87.4836 81.5262 87.2836 81.5702 87.0688C81.6344 86.7948 81.658 86.5128 81.6404 86.2318C81.5416 86.189 81.4356 86.165 81.328 86.161H81.3056C80.8044 86.161 80.408 86.5968 80.2378 87.0286C80.1472 87.218 80.13 87.434 80.1892 87.6354C80.2704 87.815 80.4546 87.925 80.6512 87.9114L80.6518 87.9104ZM85.0718 87.3044C85.9134 87.0662 86.7184 86.7146 87.4652 86.2594C88.574 85.5768 89.9304 84.3694 90.0958 82.4934H90.093C90.0088 82.4754 89.9234 82.4652 89.8374 82.4626C89.8174 82.4626 89.794 82.4614 89.7706 82.4614C89.4394 82.4614 88.7614 82.5546 87.9412 83.1782C86.8972 83.9742 85.9332 85.3622 85.0712 87.3082L85.0718 87.3044ZM82.1858 87.1984C82.8726 86.8864 83.5104 86.4766 84.0796 85.9816C85.5506 84.7156 86.697 83.1156 87.4228 81.3156C87.2416 81.2306 87.0456 81.182 86.8456 81.172C86.8256 81.1706 86.8056 81.1702 86.7844 81.1702C86.7544 81.1702 86.7234 81.1702 86.6918 81.172C86.2096 81.1856 85.4752 81.386 84.661 82.2646C83.7258 83.274 82.891 84.9326 82.181 87.1948L82.179 87.2012L82.185 87.1992L82.1858 87.1984ZM89.6638 86.9804C90.628 86.9804 90.958 86.4574 91.0552 86.2324C91.152 85.998 91.19 85.7434 91.166 85.491V85.487C91.009 85.4478 90.8478 85.4268 90.686 85.4242H90.653C90.0226 85.4088 89.4224 85.6938 89.0362 86.1924C88.9852 86.2682 88.8288 86.5312 88.9582 86.7366C89.0622 86.8986 89.2982 86.9806 89.6642 86.9806L89.6638 86.9804ZM91.7998 84.2862C92.5466 84.288 93.2922 84.2242 94.028 84.0958C94.8868 83.9396 95.3736 83.2094 95.6306 82.6246C95.8034 82.2248 95.9244 81.8044 95.9906 81.3738H95.9882C93.3318 81.4518 92.0772 82.228 91.4926 82.8652C91.1304 83.2422 90.9046 83.7296 90.8514 84.2496H90.8532C90.8572 84.2496 91.2312 84.2856 91.8012 84.2856L91.7998 84.2862ZM89.0338 81.5222C89.0374 81.5178 89.3408 81.1422 89.6404 80.6766C89.955 80.1876 90.246 79.6766 90.246 79.2598C90.246 78.8566 90.3408 78.0066 90.3974 77.536C90.469 76.939 90.5414 76.428 90.5474 76.3846H90.5448C90.4774 76.4092 88.8832 77.0074 88.8832 78.5028C88.8832 79.9982 89.0308 81.5056 89.0322 81.5206V81.5228H89.0342L89.0338 81.5222ZM91.0998 81.3802C91.1166 81.3802 91.1332 81.3786 91.1498 81.376C91.621 81.2974 92.4498 80.9372 93.3644 80.4124C94.3808 79.8296 95.2062 79.2052 95.6884 78.6542C96.1284 78.1518 96.3884 77.3628 96.4644 76.309C96.498 75.8318 96.492 75.3526 96.447 74.8764C96.362 74.849 96.2732 74.8354 96.184 74.8364C95.8312 74.8422 95.4546 75.001 94.9462 75.3512C94.4828 75.681 94.0486 76.05 93.6482 76.454C93.1398 76.959 92.6592 77.4912 92.2082 78.0482L92.2018 78.0562C92.1488 78.1512 91.6944 78.9704 91.3404 79.7678C91.1634 80.1348 91.0276 80.5202 90.9356 80.917C90.9008 81.0332 90.9008 81.157 90.9356 81.2732C90.9504 81.3108 90.9776 81.3424 91.0126 81.3628C91.0404 81.3748 91.0704 81.381 91.1006 81.3808L91.0998 81.3802Z" fill="#005801"/>
<path d="M115.426 20.7934L114.955 20.981L114.771 21.0546L114.2 21.0232L113.665 21.2798L112.717 21.9276L112.675 21.9576L112.322 22.0498L111.994 21.9082L111.807 21.993L111.743 22.377L111.566 22.6528L111.347 22.8062L110.591 22.8836L109.953 23.2126L109.123 22.9904L108.737 23.1414L107.917 23.8798L107.498 24.0782L107.352 24.0698L106.796 24.0412L106.562 24.118L106.211 24.4566L105.548 24.5082L105.342 24.6512L105.018 25.3032L104.667 25.6648L104.467 25.7072L104.25 25.6272L104.087 25.656L104.013 26.0732L103.854 26.248L103.41 26.4008L103.056 26.6962L102.744 26.8562L102.328 26.8458H102.232L101.817 27.075L101.037 27.1434L100.712 27.4532L100.64 27.5194L100.489 27.611L100.241 27.759L100.181 27.7958L99.8806 27.7424L99.5306 27.881L99.389 27.6632L99.1468 27.8086L98.8268 27.8224L98.4268 27.6446L98.1224 27.509L97.8998 27.5412L97.8223 27.9292L97.8146 27.9704L97.5806 28.2818L97.1438 28.5464L97.0838 28.6238L96.5868 29.2654L95.6424 30.2586L94.8438 30.6642L94.016 30.916L93.436 31.392L91.916 32.1454L89.517 33.34L89.0264 33.4972L88.3223 33.6096L87.0668 34.072L85.959 34.4062L85.8974 34.425L85.6774 34.4914L84.1154 34.964L83.3884 34.8872L82.9578 35.0436L81.8368 34.9192L81.0568 34.9346L80.5634 35.0372L79.636 35.482L78.0706 36.2344L77.5534 36.7076L76.748 37.1276L75.805 37.4262L75.8072 37.03L75.8016 37.0132L75.4744 37.1166L75.2382 37.1912L74.4732 37.3092H74.0476L73.7834 37.2324L73.7434 37.2462L72.1797 37.76L70.436 37.9284L69.5634 38.2084L68.9114 38.198L68.5037 38.3192L67.7038 38.417L67.4182 38.3408L67.3538 38.3232L65.0037 38.4252L63.9294 38.3038L63.4166 38.4204L62.5566 38.1312L61.3028 37.9858L61.0098 37.898L60.3498 37.7024L60.0516 37.8742L59.8284 37.898L59.295 37.7046L59.103 37.6998L58.663 37.8598L58.4096 37.7948L58.1742 37.6072L57.622 37.525L57.2855 37.2422L55.4056 37.4914L54.8954 37.3414L53.1846 36.843L52.9123 36.8568L52.5724 37.111L52.0628 37.2968L51.6204 37.4118L51.018 37.4318L50.318 37.2482L49.5968 36.8986L49.3302 36.8352L48.7354 36.8952L48.5534 36.9116L47.4602 36.3252L46.0518 35.4452L45.0962 34.9852L44.7374 34.927L44.6892 35.0976L44.8672 35.6576L44.9272 36.2124L44.909 36.725L44.8992 37.0424L44.9884 37.3274L45.3334 37.7098L45.4772 38.0938L45.5824 39.1506L45.5812 40.223L45.4134 41.9332L45.3568 42.1932L45.1568 43.0792L44.974 43.893L44.2648 46.0596L44.07 46.3282L43.5918 46.6544L42.5079 47.392L41.71 47.852L41.4574 47.9566L40.8096 48.0056L40.406 47.9856L39.9034 47.7134L39.41 47.5864L38.7636 47.1216L38.0436 46.9728L37.2554 46.5172L37.0502 46.2706L36.621 46.2306L36.0258 46.052V46.051L35.8071 45.9856L35.6562 45.9416L34.8962 45.9216L34.1882 45.5948L33.8154 45.5048L33.306 45.479L32.7728 45.7268L32.5026 45.8526L32.1612 45.717L31.9142 45.7324L31.6342 46.1554L31.5998 46.22L31.407 46.322L31.167 46.3186L30.9792 46.3136L30.776 46.4024L30.5024 46.521L30.2608 46.6264L30.1428 46.6774L30.1407 46.6754L30.0682 46.69L29.9392 46.7124L29.7792 46.743L29.4972 46.5782L29.3472 46.4898L29.0958 46.4386L28.9604 46.5364L28.9338 46.9964L28.8102 47.272L28.418 47.6188L28.0194 47.9698L27.7416 48.3792L27.0064 50.0572L26.5464 50.7342L26.4034 50.892L25.9198 51.424L25.4926 51.7554L24.5082 52.5184L23.5764 52.8666L22.7738 53.0306L22.3836 53.0322L21.6436 52.9338L20.979 52.7298L20.249 52.2734L19.449 51.63L18.2902 50.4852L18.1262 50.3866L18.092 50.3638L17.727 50.1304L17.4562 50.1374L17.3502 50.3122L17.2922 50.5648L17.2432 50.7888L17.1104 52.0622L17.1202 52.136L17.19 52.6604L18.07 53.8904L18.3416 54.5438L18.3862 54.6184L18.5678 54.9234L18.706 55.156L18.7198 55.1796L19.0198 56.0772L18.8084 56.584L18.9152 56.924L18.648 57.1314L18.599 57.4244L19.3892 58.415L19.5616 58.852L19.369 59.4578L19.0618 59.792L18.976 59.8834L19.0192 60.1394L19.3828 60.4664L20.0006 61.0164L20.33 61.8336L20.5806 62.0536L20.8718 61.9916L21.0338 62.1152L21.2794 62.111L21.521 62.3526L21.6774 62.4284L21.9246 62.5516L22.12 62.806L22.1632 63.5882L22.5276 64.5602L22.5332 65.0872L22.5352 65.162L22.762 65.5516L22.8332 65.8592L22.7132 66.673L23.0022 66.9342L23.3156 66.8702L23.518 66.9022L23.8432 67.173L24.237 67.773L24.6222 67.7166L24.8666 67.8344L26.0466 68.9012L26.3144 69.0364L26.3292 69.0448L26.5218 69.1414L26.7618 69.383L27.1329 69.1366L27.1742 69.1324L27.5778 69.0968L27.755 69.2168L28.095 69.4466L28.5418 69.4408L29.5106 69.7378L29.9344 69.8464L30.7866 70.376L31.1488 70.6L31.3632 70.7742L31.648 71.0064L32.217 71.2512L32.705 71.368L32.9694 71.4308L33.1694 71.5076L33.1744 71.4952H33.1772L33.1724 71.5078L34.2292 71.9124L34.8016 72.046L35.3312 72.241L35.7166 72.381L35.9993 72.3856L36.3994 72.0492L36.7868 72.0268L37.1086 72.1068L37.4226 72.0542L37.9196 71.748L38.0166 71.6042L38.369 71.4364L39.5578 71.2888L39.9052 71.4016L40.7972 71.0136L41.3948 71.1798L41.9238 70.9922L43.0795 71.249L43.3868 71.4652L43.7302 71.8582L43.7722 71.86L44.1546 71.8674L43.9946 72.1336L44.4992 72.663L44.955 73.352L44.9858 73.443L45.3172 74.4158L45.5636 74.7604L45.736 75.2414L45.7444 75.555L45.4764 75.7594L45.4324 75.876L45.4172 75.9192L45.4716 76.0502L45.5728 75.995L45.7654 75.8884L45.9998 75.852L46.413 75.896L46.6858 75.9246L47.1166 75.7108L47.402 75.5688L47.8605 75.7662L48.3646 75.7606L48.5762 75.8548L49.1762 76.1264L49.482 76.1552L49.595 76.081L49.667 75.9098L49.63 75.7098L49.3998 75.446L48.8936 74.8584L48.6864 74.5564L48.5286 74.1192L48.4798 73.56L48.445 73.183L48.5078 72.6876L48.6438 72.5108L48.7438 72.1172H48.7456L48.7714 72.0142L49.0526 71.641L49.7974 71.1624L50.5974 70.446L51.2298 70.029L51.8818 69.7466L51.8992 69.6666L51.9718 69.6958L53.6302 69.132L53.6576 69.1288L54.396 69.0002L59.38 69.3512L59.5648 69.2954V69.2942L59.7308 68.8282L59.8202 68.7418L59.8802 68.6854L60.4282 68.4442L60.6844 68.4076L61.3956 68.5832L61.6868 68.655L62.1532 68.3936L62.484 68.3992L63.1674 68.026L63.5896 68.0366L63.7496 67.9724L64.572 67.3814L65.3642 67.1544L65.5702 67.0448L65.6428 67.0048L66.4548 66.576L66.9706 66.1798L67.4158 65.9432L67.9034 65.8174L69.1794 65.7276L69.436 65.3L69.9848 65.2268L70.3162 64.8528L70.6962 64.6986L70.968 64.307L71.1958 63.9788L71.514 63.7946L72.534 63.7306L73.743 63.8804L73.903 63.7834L74.1762 62.8084L74.4622 62.6254L75.2324 61.503L75.235 61.094V60.7524L75.3616 60.266L75.2756 59.3878L75.3776 58.4986L75.8564 57.3686L76.2782 56.9128L76.9582 56.4528L77.304 56.3022L77.7938 56.2198V56.22L77.8658 56.2078L77.9906 56.1864L79.6772 56.1632C79.7006 56.1458 80.2906 56.1548 80.2906 56.1548L80.853 56.1472L82.2762 56.4L82.3774 56.4176L82.8574 56.5734L83.4122 57.0048L83.9998 57.5786L84.11 57.6856L84.49 57.8456L84.605 57.8958L84.9192 57.8456L85.3666 57.6126L85.7042 57.3272L86.1642 57.0758L86.1754 57.0598L86.4343 56.6702L86.4422 56.6622L86.4478 56.6636V56.6614H86.4434L86.5456 56.5064L87.435 56.1598L88.481 56.0998L88.5986 56.0362L88.664 56.0012L88.9404 55.6766L89.1994 55.6746L89.8264 55.9014L90.2664 55.8138L90.6164 55.9538L90.8884 55.9216L91.4014 55.8616L91.9522 56.249L92.2732 56.289L93.4048 56.951L93.4636 56.9606L93.494 56.9662L93.5588 56.977L93.693 56.937L93.893 56.8792L93.9194 56.8714L93.9446 56.9064L94.0732 57.0878L94.2496 57.113L94.4584 56.8344L94.3754 56.708L94.344 56.662L93.9398 56.5798L93.5768 55.9598L93.9224 55.5876L93.3801 54.9224L93.2902 54.8122L93.2596 54.7654L93.0722 54.4808L92.123 53.0338L90.8866 52.0468L90.4536 51.7004L90.4508 51.6984L90.2992 51.5784L89.6392 50.9068L89.1676 50.2808L89.1058 50.146L89.0084 49.9336L88.7258 49.318L88.2334 48.938L87.8322 48.4998L87.8122 48.474L86.9842 47.3488L86.8482 47.1602L86.6525 47.0472L86.2394 47.0444L86.1994 47.0044L86.1762 46.9802L86.1902 46.9654L86.3884 46.7684L86.6094 46.7128L86.7046 46.495L86.283 45.275L86.2802 45.2324L86.2488 44.8424L86.5924 43.0714L86.6364 42.8556L87.222 41.664L87.5848 41.3668L87.9808 40.5884L88.3208 40.0908L88.6458 39.7744L88.7026 39.7408L89.2894 39.3856L89.7824 39.3162L90.252 39.25L91.072 39.5028L91.852 39.4876L92.0042 39.4714L92.3582 39.4314L92.9404 39.248L93.2152 39.0784L93.3577 38.8598L93.6552 37.8624L93.7508 37.545L93.9342 37.2002L94.9954 35.9786L95.7976 35.2366L97.6014 33.914L98.4844 33.3862L98.9352 33.1168L102.96 31.3276L104.006 30.2676L104.551 29.716L105.516 29.069L106.644 28.6068L107.615 27.8384L107.827 27.5716L108.094 26.7116L108.316 26.6578L108.516 26.223L108.574 26.0994L109.366 25.541L109.455 25.4964L112.533 23.9544L112.98 24.0158L113.22 23.6572L114.116 23.507L114.28 23.479L114.5 23.3688L114.688 23.0488V22.9856L114.714 22.131L114.905 21.9L115.009 21.3368L115.108 21.2068L115.21 21.0716L115.464 20.8934L115.42 20.7872L115.426 20.7934Z" fill="#FF7E3D"/>
</svg>
