<svg width="120" height="120" viewBox="0 0 120 120" fill="none" xmlns="http://www.w3.org/2000/svg">
<g clip-path="url(#clip0_909_101656)">
<path d="M0 80H120V120H0V80Z" fill="black"/>
<path d="M0 40H120V80H0V40Z" fill="white"/>
<path d="M0 0H120V40H0V0Z" fill="#D91C16"/>
<path d="M60.15 60.48L73.85 73.2L72.87 50.1C72.73 46.6 69.69 47.4 67.47 48.66C65.25 50.1 62.67 50.1 59.99 49.16C57.29 50.1 54.73 50.1 52.51 48.66C50.31 47.4 47.25 46.6 47.11 50.1L46.13 73.2L60.15 60.48Z" fill="white"/>
<path fill-rule="evenodd" clip-rule="evenodd" d="M49.0277 47.4654C50.1258 47.3823 51.4696 47.9143 52.5746 48.5472C52.5767 48.5484 52.5787 48.5496 52.5807 48.5509C54.7565 49.9622 57.2714 49.9688 59.9473 49.0372C59.975 49.0276 60.0053 49.0276 60.033 49.0373C62.6886 49.9687 65.2235 49.9623 67.3993 48.5509C67.4014 48.5495 67.4036 48.5482 67.4058 48.5469C68.5204 47.9143 69.8642 47.3823 70.9598 47.4654C71.5134 47.5073 72.0114 47.7072 72.3782 48.1368C72.743 48.5641 72.9642 49.2025 72.9999 50.0948L73.9799 73.1945C73.9821 73.2471 73.9523 73.2959 73.9045 73.318C73.8566 73.3401 73.8002 73.3311 73.7615 73.2953L60.149 60.6564L46.2174 73.2963C46.1785 73.3315 46.1223 73.34 46.0748 73.3177C46.0274 73.2955 45.9979 73.2469 46.0001 73.1945L46.9801 50.0948C46.9801 50.0948 46.9801 50.0947 46.9801 50.0947C47.0158 49.2022 47.2383 48.5638 47.6048 48.1366C47.9732 47.7071 48.473 47.5073 49.0277 47.4654ZM47.8021 48.3059C47.4867 48.6737 47.2742 49.2477 47.2399 50.1052L47.2399 50.1055L46.2731 72.8947L60.0626 60.3837C60.1126 60.3384 60.189 60.3388 60.2385 60.3847L73.7067 72.8896L72.7401 50.1055L72.7401 50.1052C72.7058 49.2475 72.4945 48.6734 72.1805 48.3057C71.8686 47.9403 71.4416 47.7626 70.9402 47.7246C69.9268 47.6478 68.6422 48.1446 67.5375 48.7712C65.286 50.23 62.6779 50.2308 59.9898 49.2976C57.2824 50.2308 54.694 50.2301 52.4423 48.771C51.348 48.1447 50.0632 47.6478 49.0473 47.7246C48.5445 47.7627 48.1156 47.9404 47.8021 48.3059Z" fill="#D3AE3B"/>
<path d="M48.69 49.3L47.73 71.76L46.13 73.2L47.11 50.1C47.5825 49.7377 48.1183 49.4664 48.69 49.3ZM50.61 50.9L49.81 69.7L48.21 71.3401L49.17 49.64C49.49 49.96 50.43 50.74 50.61 50.9ZM52.35 52.3401L51.73 68.0201L50.43 69.28L51.23 51.4C51.55 51.7 52.19 52.1601 52.35 52.3401ZM54.25 53.1401L53.63 66.5L52.37 67.5201L52.99 52.66C53.31 52.8 53.93 53.1401 54.25 53.1401ZM56.01 53.1401L55.55 64.28L54.25 65.5401L54.75 53.28C55.05 53.28 55.87 53.2801 56.01 53.1401Z" fill="#D3AE3B"/>
<path d="M71.29 49.3L72.25 71.76L73.85 73.2L72.87 50.1C72.3975 49.7377 71.8617 49.4664 71.29 49.3ZM69.37 50.9L70.17 69.7L71.77 71.3401L70.81 49.64C70.49 49.96 69.55 50.74 69.37 50.9ZM67.63 52.3401L68.25 68.0201L69.55 69.28L68.75 51.4C68.43 51.7 67.79 52.1601 67.63 52.3401ZM65.73 53.1401L66.35 66.5L67.61 67.5201L66.99 52.66C66.67 52.8 66.05 53.1401 65.73 53.1401ZM63.97 53.1401L64.43 64.28L65.73 65.5401L65.23 53.28C64.93 53.28 64.11 53.2801 63.97 53.1401Z" fill="#D3AE3B"/>
<path d="M60.63 63L62.55 71.76L61.91 72.4L61.25 71.9L60.17 64.1L60.63 71.9L59.99 72.7L59.37 71.9L59.83 64.1L58.73 71.9L58.07 72.4L57.43 71.76L59.35 63.02H60.63V63Z" fill="#D3AE3B"/>
<path fill-rule="evenodd" clip-rule="evenodd" d="M59.2615 62.91H60.63V62.9881L60.7374 62.9765L62.6703 71.7953L61.92 72.5456L61.1473 71.9602L60.4443 66.8834L60.7423 71.9357L59.9886 72.8778L59.2577 71.9348L59.5608 66.7969L58.8326 71.9603L58.06 72.5456L57.3096 71.7952L59.2615 62.91ZM60.5459 63.13H59.4384L57.5503 71.7248L58.08 72.2545L58.6274 71.8397L59.7211 64.0847L59.9398 64.1065L59.4822 71.8653L59.9914 72.5222L60.5177 71.8643L60.0602 64.1065L60.2789 64.0849L61.3527 71.8398L61.9 72.2545L62.4297 71.7248L60.5459 63.13Z" fill="#D3AE3B"/>
<path d="M55.69 59.16L51.87 72.7L57.13 73.5L59.35 63.32L55.69 59.16Z" fill="white"/>
<path fill-rule="evenodd" clip-rule="evenodd" d="M55.6634 59.043C55.7063 59.0333 55.7511 59.0478 55.7801 59.0808L59.4401 63.2408C59.4653 63.2694 59.4754 63.3083 59.4672 63.3456L57.2472 73.5256C57.2338 73.5875 57.1745 73.6282 57.112 73.6187L51.852 72.8187C51.8179 72.8135 51.7878 72.794 51.7691 72.765C51.7505 72.7361 51.7452 72.7006 51.7545 72.6675L55.5745 59.1275C55.5864 59.0852 55.6206 59.0528 55.6634 59.043ZM55.7456 59.4049L52.0224 72.6018L57.0367 73.3645L59.2198 63.3538L55.7456 59.4049Z" fill="#D3AE3B"/>
<path fill-rule="evenodd" clip-rule="evenodd" d="M57.4596 62.6342L54.9796 64.9942C54.9486 65.0237 54.9051 65.036 54.8633 65.0273C54.8214 65.0185 54.7866 64.9896 54.7701 64.9502L54.3101 63.8502L54.5499 63.7499L54.9371 64.6757L57.2804 62.4459L57.4596 62.6342Z" fill="#D3AE3B"/>
<path fill-rule="evenodd" clip-rule="evenodd" d="M56.5407 65.8739L56.0207 61.0139L56.2793 60.9862L56.7644 65.5208L58.1465 63.7014L58.3535 63.8587L57.7618 64.6377L58.4004 66.8653L58.7015 66.4085L58.9185 66.5516L58.4947 67.1946L58.595 67.5442L58.345 67.6159L58.3063 67.4806L57.1933 69.1692L57.7372 71.7331L57.4828 71.787L56.9878 69.4534L55.9589 71.031C55.9315 71.073 55.8825 71.0955 55.8328 71.0889C55.7831 71.0823 55.7417 71.0477 55.7263 71L55.1928 69.3479L54.1806 70.9883C54.1534 71.0324 54.1026 71.0562 54.0513 71.0487C53.9999 71.0412 53.958 71.004 53.9445 70.9539L53.1245 67.9139C53.1125 67.8695 53.1249 67.8221 53.157 67.7892L54.797 66.1092C54.8295 66.0759 54.8774 66.0625 54.9225 66.0742C54.9676 66.0858 55.003 66.1207 55.0154 66.1656L55.4449 67.7292L56.4658 66.3623C56.4968 66.3208 56.5495 66.3016 56.5999 66.3135C56.6503 66.3254 56.6888 66.3661 56.698 66.4171L57.1249 68.8006L58.2119 67.1513L57.5654 64.8962L56.7735 65.9387C56.7413 65.9811 56.6865 65.9996 56.6351 65.9853C56.5838 65.971 56.5464 65.9268 56.5407 65.8739ZM56.9129 69.0922L56.4949 66.7579L55.4942 68.0978C55.4644 68.1376 55.4147 68.157 55.3659 68.1478C55.3171 68.1386 55.2778 68.1024 55.2646 68.0545L54.8247 66.453L53.3948 67.9178L54.1172 70.5959L55.1194 68.9718C55.146 68.9286 55.1953 68.9049 55.2456 68.911C55.2959 68.9171 55.3381 68.9518 55.3537 69.0001L55.89 70.6608L56.9129 69.0922Z" fill="#D3AE3B"/>
<path fill-rule="evenodd" clip-rule="evenodd" d="M54.0712 70.7718C54.1204 70.7799 54.1606 70.8154 54.1747 70.8632L54.7708 72.8794L55.5785 71.5331C55.6048 71.4894 55.6542 71.4651 55.7048 71.4709C55.7555 71.4767 55.7981 71.5116 55.8137 71.5601L56.4337 73.4801L56.1863 73.56L55.6542 71.9123L54.8415 73.2669C54.815 73.3111 54.7648 73.3355 54.7136 73.329C54.6625 73.3225 54.62 73.2863 54.6054 73.2369L54.0014 71.1941L53.0962 72.475L52.8839 72.325L53.9438 70.825C53.9726 70.7843 54.0221 70.7636 54.0712 70.7718Z" fill="#D3AE3B"/>
<path d="M64.29 59.16L68.11 72.7L62.85 73.5L60.63 63.32L64.29 59.16Z" fill="white"/>
<path fill-rule="evenodd" clip-rule="evenodd" d="M64.3166 59.043C64.2737 59.0333 64.2289 59.0478 64.1999 59.0808L60.5399 63.2408C60.5147 63.2694 60.5046 63.3083 60.5127 63.3456L62.7327 73.5256C62.7462 73.5875 62.8054 73.6282 62.868 73.6187L68.128 72.8187C68.162 72.8135 68.1922 72.794 68.2108 72.765C68.2295 72.7361 68.2348 72.7006 68.2255 72.6675L64.4055 59.1275C64.3935 59.0852 64.3594 59.0528 64.3166 59.043ZM64.2344 59.4049L67.9576 72.6018L62.9432 73.3645L60.7602 63.3538L64.2344 59.4049Z" fill="#D3AE3B"/>
<path fill-rule="evenodd" clip-rule="evenodd" d="M62.5204 62.6342L65.0004 64.9942C65.0314 65.0237 65.0749 65.036 65.1167 65.0273C65.1586 65.0185 65.1934 64.9896 65.2099 64.9502L65.6699 63.8502L65.4301 63.7499L65.0429 64.6757L62.6996 62.4459L62.5204 62.6342Z" fill="#D3AE3B"/>
<path fill-rule="evenodd" clip-rule="evenodd" d="M63.4392 65.8739L63.9592 61.0139L63.7007 60.9862L63.2155 65.5208L61.8335 63.7014L61.6265 63.8587L62.2182 64.6377L61.5796 66.8653L61.2785 66.4085L61.0614 66.5516L61.4852 67.1946L61.385 67.5442L61.6349 67.6159L61.6737 67.4806L62.7867 69.1692L62.2428 71.7331L62.4971 71.787L62.9922 69.4534L64.0211 71.031C64.0485 71.073 64.0975 71.0955 64.1472 71.0889C64.1969 71.0823 64.2383 71.0477 64.2537 71L64.7872 69.3479L65.7993 70.9883C65.8266 71.0324 65.8774 71.0562 65.9287 71.0487C65.98 71.0412 66.022 71.004 66.0355 70.9539L66.8555 67.9139C66.8675 67.8695 66.8551 67.8221 66.823 67.7892L65.183 66.1092C65.1505 66.0759 65.1026 66.0625 65.0575 66.0742C65.0124 66.0858 64.977 66.1207 64.9646 66.1656L64.5351 67.7292L63.5141 66.3623C63.4831 66.3208 63.4305 66.3016 63.3801 66.3135C63.3297 66.3254 63.2911 66.3661 63.282 66.4171L62.8551 68.8006L61.7681 67.1513L62.4146 64.8962L63.2065 65.9387C63.2387 65.9811 63.2935 65.9996 63.3448 65.9853C63.3962 65.971 63.4336 65.9268 63.4392 65.8739ZM63.067 69.0922L63.4851 66.7579L64.4858 68.0978C64.5155 68.1376 64.5653 68.157 64.6141 68.1478C64.6629 68.1386 64.7022 68.1024 64.7153 68.0545L65.1553 66.453L66.5852 67.9178L65.8628 70.5959L64.8606 68.9718C64.834 68.9286 64.7847 68.9049 64.7344 68.911C64.6841 68.9171 64.6418 68.9518 64.6263 69.0001L64.09 70.6608L63.067 69.0922Z" fill="#D3AE3B"/>
<path fill-rule="evenodd" clip-rule="evenodd" d="M65.9088 70.7718C65.8596 70.7799 65.8194 70.8154 65.8053 70.8632L65.2092 72.8794L64.4014 71.5331C64.3752 71.4894 64.3258 71.4651 64.2752 71.4709C64.2245 71.4767 64.1819 71.5116 64.1663 71.5601L63.5463 73.4801L63.7937 73.56L64.3257 71.9123L65.1385 73.2669C65.165 73.3111 65.2152 73.3355 65.2664 73.329C65.3175 73.3225 65.36 73.2863 65.3746 73.2369L65.9786 71.1941L66.8838 72.475L67.0961 72.325L66.0361 70.825C66.0074 70.7843 65.9579 70.7636 65.9088 70.7718Z" fill="#D3AE3B"/>
<path d="M59.99 78.76C63.99 78.76 67.79 78.44 70.03 77.82C70.97 77.64 70.97 77.16 70.97 76.52C71.93 76.2 71.45 75.08 72.11 75.08C71.43 75.28 71.31 73.98 70.51 74.14C70.51 73.02 69.37 72.88 68.43 73.2C66.53 73.82 63.17 73.98 59.99 73.98C56.79 73.82 53.47 73.82 51.55 73.18C50.61 72.88 49.49 73.02 49.49 74.14C48.69 73.98 48.55 75.26 47.89 75.08C48.55 75.08 48.05 76.22 49.01 76.52C49.01 77.16 49.01 77.64 49.97 77.82C52.17 78.44 56.01 78.76 59.99 78.76Z" fill="white"/>
<path fill-rule="evenodd" clip-rule="evenodd" d="M50.089 72.9007C50.5531 72.7402 51.1249 72.7925 51.6229 72.9514L51.6259 72.9524L51.6259 72.9524C52.5544 73.2619 53.8376 73.4207 55.3063 73.5206C56.2111 73.5822 57.1723 73.6207 58.1536 73.6601C58.7629 73.6845 59.38 73.7093 59.996 73.7401C63.1796 73.7399 66.4972 73.5778 68.3541 72.9724C68.8535 72.8026 69.43 72.7453 69.8988 72.9025C70.1375 72.9826 70.3544 73.1208 70.5107 73.3337C70.6252 73.4897 70.7001 73.6763 70.7322 73.8911C70.8884 73.9079 71.0243 73.9684 71.1416 74.0524C71.3095 74.1727 71.4411 74.3431 71.5453 74.4789L71.549 74.4837C71.6622 74.631 71.744 74.7376 71.8314 74.8044C71.8713 74.8349 71.9067 74.8531 71.9446 74.8589C71.9974 74.8461 72.0527 74.8401 72.11 74.8401C72.2293 74.8401 72.3305 74.9277 72.3475 75.0458C72.3645 75.164 72.2922 75.2766 72.1777 75.3103C72.1262 75.3255 72.0764 75.3347 72.0284 75.3387C72.0204 75.345 72.0097 75.3565 71.9968 75.3791C71.9606 75.4425 71.9386 75.5289 71.9036 75.6669C71.8977 75.6898 71.8916 75.7141 71.8849 75.74C71.843 75.9025 71.7844 76.1071 71.6598 76.2935C71.5562 76.4484 71.412 76.5839 71.2096 76.6816C71.2072 76.941 71.1893 77.2187 71.0647 77.4546C70.9006 77.7654 70.586 77.9563 70.0848 78.0539C67.8113 78.6812 63.9896 79.0001 59.99 79.0001C56.0116 79.0001 52.1499 78.6814 49.9151 78.0539C49.406 77.9567 49.0862 77.767 48.9187 77.4565C48.7916 77.2207 48.773 76.9431 48.7704 76.6843C48.5686 76.5898 48.4249 76.4558 48.3225 76.3007C48.1992 76.1139 48.1435 75.9074 48.1041 75.7436C48.0974 75.7158 48.0913 75.6897 48.0855 75.6652C48.0531 75.5283 48.0327 75.4419 47.9978 75.3779C47.9836 75.352 47.9724 75.341 47.965 75.3357C47.9205 75.3324 47.8745 75.3246 47.8268 75.3116C47.7108 75.28 47.6361 75.1674 47.6521 75.0482C47.6681 74.929 47.7697 74.8401 47.89 74.8401C47.9415 74.8401 47.9916 74.845 48.0396 74.8555C48.078 74.8498 48.1151 74.831 48.1585 74.7972C48.244 74.7307 48.3243 74.6282 48.4331 74.4892C48.4382 74.4827 48.4434 74.4762 48.4486 74.4695C48.5548 74.334 48.6884 74.1661 48.8581 74.0478C48.9761 73.9657 49.112 73.9068 49.2676 73.8906C49.2991 73.6768 49.3726 73.4909 49.485 73.335C49.6388 73.1217 49.8528 72.9825 50.089 72.9007ZM48.4389 75.187C48.4957 75.3068 48.5288 75.4504 48.5561 75.5686C48.5612 75.5905 48.5661 75.6116 48.5708 75.6315C48.609 75.7902 48.6496 75.9249 48.7231 76.0362C48.7912 76.1393 48.8945 76.2325 49.0816 76.291C49.1818 76.3223 49.25 76.4151 49.25 76.5201C49.25 76.8586 49.2558 77.0703 49.3412 77.2286C49.4126 77.3609 49.5695 77.5008 50.0142 77.5842C50.0212 77.5855 50.0282 77.5871 50.0351 77.5891C52.2018 78.1997 56.0144 78.5201 59.99 78.5201C63.9849 78.5201 67.7583 78.1998 69.966 77.5888C69.9722 77.587 69.9785 77.5856 69.9848 77.5843C70.418 77.5014 70.5704 77.3627 70.6403 77.2305C70.7243 77.0713 70.73 76.8584 70.73 76.5201C70.73 76.4168 70.7961 76.325 70.8941 76.2924C71.083 76.2294 71.1898 76.1328 71.2608 76.0266C71.3368 75.913 71.3795 75.7776 71.4201 75.6201C71.425 75.6009 71.4301 75.5806 71.4354 75.5595C71.4634 75.4467 71.4973 75.3108 71.5521 75.1949C71.548 75.1919 71.5439 75.1888 71.5399 75.1857C71.4 75.0788 71.2823 74.9249 71.1861 74.7992C71.1788 74.7897 71.1716 74.7804 71.1646 74.7712C71.0539 74.627 70.963 74.5149 70.8621 74.4427C70.7737 74.3793 70.6827 74.3503 70.5571 74.3754C70.4865 74.3895 70.4134 74.3712 70.3578 74.3257C70.3022 74.2801 70.27 74.212 70.27 74.1401C70.27 73.902 70.2101 73.7354 70.1237 73.6177C70.0368 73.4993 69.9099 73.4125 69.7462 73.3576C69.4105 73.245 68.9476 73.2774 68.5073 73.4273L68.5044 73.4282L68.5044 73.4282C66.5623 74.062 63.1637 74.2201 59.99 74.2201C59.986 74.2201 59.982 74.22 59.978 74.2198C59.3709 74.1894 58.7561 74.1647 58.1461 74.1402C57.1584 74.1005 56.1833 74.0614 55.2737 73.9995C53.8031 73.8995 52.4669 73.7384 51.4756 73.4082C51.0341 73.2676 50.5765 73.24 50.2459 73.3544C50.0847 73.4102 49.9599 73.4972 49.8743 73.6158C49.7891 73.7339 49.73 73.9012 49.73 74.1401C49.73 74.212 49.6977 74.2801 49.6421 74.3257C49.5865 74.3712 49.5134 74.3895 49.4429 74.3754C49.3159 74.35 49.2227 74.3788 49.1325 74.4417C49.0304 74.5128 48.9377 74.6236 48.8264 74.7656C48.8178 74.7766 48.809 74.7879 48.8 74.7994C48.7041 74.9223 48.5881 75.0711 48.4533 75.176C48.4486 75.1797 48.4438 75.1834 48.4389 75.187Z" fill="#D3AE3B"/>
<path d="M54.57 72.7C55.85 72.88 57.29 73.02 58.41 72.88C59.05 72.88 59.51 73.98 58.23 74.14C57.13 74.28 55.37 74.14 54.43 73.98C53.193 73.7635 51.9653 73.4966 50.75 73.18C49.63 72.7 50.43 71.78 51.07 71.9C52.2118 72.2658 53.3827 72.5335 54.57 72.7ZM65.41 72.7C64.13 72.88 62.69 73.02 61.61 72.88C60.93 72.88 60.47 73.98 61.75 74.14C62.87 74.28 64.61 74.14 65.55 73.98C66.35 73.82 68.11 73.52 69.23 73.18C70.35 72.7 69.55 71.78 68.91 71.9C67.7683 72.2659 66.5973 72.5336 65.41 72.7Z" fill="white"/>
<path fill-rule="evenodd" clip-rule="evenodd" d="M50.7923 73.0567C50.5353 72.9449 50.4083 72.8169 50.3548 72.7047C50.3023 72.5948 50.3112 72.4814 50.3658 72.374C50.4218 72.264 50.5254 72.1635 50.6525 72.0972C50.777 72.0323 50.9144 72.0053 51.0385 72.0265C52.1847 72.3932 53.3601 72.6616 54.5518 72.8288M50.7923 73.0567C52.001 73.3713 53.2219 73.6366 54.4521 73.8519C55.3858 74.0108 57.1315 74.1488 58.2135 74.0111L58.2138 74.011C58.5165 73.9732 58.6969 73.882 58.7966 73.7833C58.8934 73.6874 58.9239 73.5754 58.9109 73.4654C58.8832 73.2324 58.6629 73.0145 58.4175 73.0101C57.28 73.1507 55.829 73.0084 54.5519 72.8288M50.5324 71.8666C50.7004 71.779 50.8999 71.7359 51.0939 71.7723C51.0992 71.7733 51.1045 71.7746 51.1096 71.7762C52.2443 72.1398 53.408 72.4058 54.588 72.5713L54.5881 72.5713C55.8677 72.7513 57.2925 72.8887 58.3938 72.751C58.3992 72.7504 58.4046 72.75 58.41 72.75C58.8015 72.75 59.127 73.0801 59.169 73.4347C59.191 73.6197 59.1365 73.8127 58.9795 73.968C58.8256 74.1205 58.5835 74.2268 58.2463 74.269C57.1285 74.4113 55.3544 74.2693 54.4081 74.1082L54.4075 74.1081C53.167 73.8909 51.9359 73.6233 50.7172 73.3058C50.7109 73.3042 50.7047 73.3021 50.6987 73.2995C50.4017 73.1722 50.211 73.0069 50.1201 72.8167C50.0276 72.6228 50.0487 72.4237 50.1341 72.2561C50.2181 72.091 50.3645 71.9541 50.5324 71.8666ZM69.8598 72.8167C69.769 73.0069 69.5782 73.1722 69.2812 73.2995C69.2768 73.3014 69.2723 73.303 69.2677 73.3044C68.3703 73.5769 67.0656 73.8238 66.1706 73.9931C65.9405 74.0367 65.7375 74.0751 65.5754 74.1075L65.5718 74.1082C64.6253 74.2693 62.8714 74.4112 61.7338 74.269C61.3966 74.2269 61.1543 74.1206 61.0008 73.9678C60.8442 73.812 60.7909 73.6183 60.8161 73.4326C60.8646 73.0752 61.2029 72.75 61.61 72.75C61.6155 72.75 61.6211 72.7504 61.6267 72.7511C62.6875 72.8886 64.1118 72.7513 65.3919 72.5713L65.3919 72.5713C66.5719 72.4059 67.7356 72.1399 68.8703 71.7762C68.8754 71.7746 68.8807 71.7733 68.886 71.7723C69.08 71.7359 69.2795 71.779 69.4475 71.8666C69.6154 71.9541 69.7618 72.091 69.8458 72.2561C69.9312 72.4237 69.9523 72.6228 69.8598 72.8167ZM68.9414 72.0265C69.0655 72.0053 69.2029 72.0323 69.3274 72.0972C69.4545 72.1635 69.5581 72.264 69.6141 72.374C69.6687 72.4814 69.6776 72.5948 69.6251 72.7047C69.5714 72.8172 69.4438 72.9457 69.1852 73.0578C68.3034 73.3247 67.0253 73.5666 66.132 73.7358C65.8994 73.7798 65.6929 73.8189 65.5263 73.8522C64.5923 74.011 62.8678 74.1488 61.7661 74.011C61.4633 73.9732 61.2831 73.882 61.1841 73.7835C61.0882 73.6881 61.059 73.5768 61.0738 73.4675C61.105 73.2371 61.3326 73.0144 61.6021 73.0101C62.7003 73.1507 64.1515 73.0083 65.428 72.8288M65.4281 72.8288C66.6199 72.6617 67.7952 72.3933 68.9414 72.0265L65.4281 72.8288Z" fill="#D3AE3B"/>
<path d="M50.59 72.0801C49.63 71.9001 49.19 73.0201 49.49 73.6601C49.63 73.3401 50.29 73.3401 50.43 73.0201C50.61 72.5401 50.29 72.5401 50.61 72.0801H50.59ZM54.43 75.0201C54.43 74.3801 55.05 74.4601 55.05 73.8201C55.05 73.5201 54.89 73.0201 54.57 73.0201C54.4034 73.0296 54.2461 73.1001 54.128 73.2181C54.01 73.3361 53.9395 73.4934 53.93 73.6601C53.79 74.2801 54.43 74.3801 54.43 75.0201ZM58.97 73.2001C59.91 73.2001 59.81 74.4601 59.37 75.1001C59.37 74.6401 58.57 74.4601 58.57 74.1401C58.57 73.6601 59.29 73.6601 58.97 73.2001ZM69.37 72.0801C70.35 71.9001 70.81 73.0201 70.49 73.6601C70.35 73.3401 69.69 73.3401 69.55 73.0201C69.37 72.5401 69.69 72.5401 69.37 72.0801ZM65.59 75.0001C65.59 74.3601 64.95 74.4401 64.95 73.8001C64.95 73.5001 65.11 73.0001 65.43 73.0001C65.5966 73.0096 65.7539 73.0801 65.8719 73.1981C65.99 73.3161 66.0604 73.4734 66.07 73.6401C66.21 74.2601 65.57 74.3601 65.57 75.0001H65.59ZM60.99 73.2001C60.05 73.2001 60.15 74.4601 60.59 75.1001C60.59 74.6401 61.39 74.4601 61.39 74.1401C61.39 73.6601 60.67 73.6601 60.99 73.2001Z" fill="white"/>
<path fill-rule="evenodd" clip-rule="evenodd" d="M50.6017 71.95C50.0637 71.8543 49.6676 72.1245 49.4545 72.4981C49.2444 72.8665 49.2017 73.3513 49.3722 73.7152C49.3939 73.7614 49.4406 73.7907 49.4916 73.79C49.5427 73.7893 49.5886 73.7589 49.609 73.7121C49.6286 73.6674 49.6702 73.625 49.7428 73.5816C49.8161 73.5379 49.9059 73.5017 50.0082 73.4607L50.0133 73.4587C50.1097 73.4201 50.2177 73.3769 50.3103 73.3216C50.4052 73.265 50.4986 73.1874 50.5491 73.0721C50.55 73.07 50.5509 73.0678 50.5517 73.0657C50.6014 72.933 50.6186 72.8278 50.619 72.7359C50.6193 72.6648 50.6089 72.6019 50.601 72.5543C50.5991 72.5431 50.5974 72.5328 50.596 72.5234C50.5884 72.4725 50.5863 72.4334 50.5984 72.3846C50.611 72.3332 50.642 72.2616 50.7167 72.1543C50.7443 72.1145 50.7476 72.0627 50.7252 72.0198C50.7028 71.9769 50.6584 71.95 50.61 71.95H50.6017ZM50.3937 72.1908C50.0666 72.1891 49.8261 72.3714 49.6804 72.6269C49.545 72.8642 49.4981 73.1546 49.5438 73.4018C49.5653 73.386 49.5874 73.3716 49.6096 73.3584C49.7022 73.3031 49.8102 73.2599 49.9066 73.2213L49.9117 73.2193C50.014 73.1784 50.1038 73.1421 50.1771 73.0984C50.2482 73.0559 50.2895 73.0144 50.3096 72.9707C50.3487 72.8653 50.3588 72.7916 50.359 72.7348C50.3592 72.6877 50.3533 72.6512 50.3459 72.6062C50.3437 72.5924 50.3413 72.5777 50.3389 72.5617C50.329 72.4951 50.3223 72.4179 50.3459 72.3223C50.3562 72.2805 50.3718 72.2371 50.3937 72.1908ZM69.5863 72.1908C69.6081 72.2371 69.6237 72.2805 69.634 72.3223C69.6576 72.4179 69.6509 72.4951 69.641 72.5617C69.6386 72.5777 69.6362 72.5924 69.634 72.6062C69.6266 72.6512 69.6207 72.6877 69.6209 72.7348C69.6211 72.7916 69.6312 72.8653 69.6703 72.9707C69.6904 73.0144 69.7317 73.0559 69.8028 73.0984C69.8761 73.1421 69.9659 73.1784 70.0682 73.2193L70.0733 73.2213C70.1697 73.2599 70.2777 73.3031 70.3703 73.3584C70.3941 73.3726 70.4178 73.3881 70.4407 73.4052C70.4918 73.1582 70.4448 72.8667 70.3052 72.6282C70.1582 72.3769 69.9152 72.1948 69.5863 72.1908ZM70.5296 72.4969C70.7455 72.8658 70.789 73.3526 70.6062 73.7182C70.5837 73.7633 70.537 73.7913 70.4866 73.79C70.4362 73.7887 70.3911 73.7583 70.3708 73.7121C70.3513 73.6674 70.3097 73.625 70.2371 73.5816C70.1638 73.5379 70.074 73.5017 69.9717 73.4607L69.9666 73.4587C69.8702 73.4202 69.7622 73.3769 69.6696 73.3216C69.5747 73.265 69.4813 73.1874 69.4308 73.0721C69.4299 73.07 69.429 73.0678 69.4282 73.0657C69.3785 72.933 69.3613 72.8278 69.3609 72.7359C69.3606 72.6648 69.371 72.6019 69.3789 72.5543C69.3808 72.5431 69.3825 72.5328 69.3839 72.5234C69.3914 72.4725 69.3936 72.4334 69.3815 72.3846C69.3689 72.3332 69.3379 72.2616 69.2632 72.1543C69.238 72.118 69.2329 72.0714 69.2497 72.0305C69.2666 71.9897 69.303 71.9601 69.3465 71.9522C69.8987 71.8507 70.3091 72.12 70.5296 72.4969ZM65.1866 73.3449C65.116 73.4884 65.0799 73.6685 65.0799 73.8C65.0799 73.9359 65.1132 74.0261 65.159 74.0968C65.2076 74.1717 65.2735 74.2304 65.3556 74.3022L65.3604 74.3065C65.4264 74.3641 65.503 74.4312 65.5676 74.5169C65.6219 74.4206 65.6861 74.3391 65.7441 74.2654C65.7529 74.2543 65.7615 74.2433 65.77 74.2325C65.8412 74.1413 65.8967 74.0643 65.9293 73.9781C65.9603 73.8962 65.9727 73.7997 65.9431 73.6687C65.9416 73.6617 65.9406 73.6546 65.9402 73.6475C65.9324 73.5127 65.8754 73.3855 65.78 73.29C65.6855 73.1955 65.5599 73.1387 65.4266 73.1301C65.3445 73.1318 65.2592 73.1975 65.1866 73.3449ZM65.7113 74.8683C65.7438 74.6876 65.8424 74.5617 65.9547 74.4184C65.9614 74.4098 65.9681 74.4012 65.9749 74.3925C66.0462 74.3013 66.1245 74.197 66.1725 74.0701C66.2212 73.9414 66.2366 73.7961 66.199 73.6218C66.1853 73.4273 66.1018 73.2442 65.9638 73.1062C65.8232 72.9656 65.6359 72.8816 65.4374 72.8702C65.436 72.8702 65.4346 72.8701 65.4333 72.8701C65.4322 72.87 65.4311 72.87 65.43 72.87C65.1931 72.87 65.0397 73.0546 64.9533 73.2301C64.8639 73.4117 64.8199 73.6315 64.8199 73.8C64.8199 73.9842 64.8667 74.1239 64.9409 74.2383C65.0108 74.3461 65.1025 74.4262 65.1795 74.4936L65.1843 74.4979C65.2664 74.5696 65.3323 74.6283 65.3809 74.7033C65.4103 74.7486 65.4345 74.802 65.4481 74.8704C65.4428 74.9114 65.4399 74.9546 65.4399 75C65.4399 75.0718 65.4982 75.13 65.5699 75.13H65.5899C65.6617 75.13 65.7199 75.0718 65.7199 75C65.7199 74.9534 65.7169 74.9096 65.7113 74.8683ZM54.5625 72.8902C54.565 72.8901 54.5675 72.89 54.5699 72.89C54.8068 72.89 54.9602 73.0746 55.0466 73.2501C55.136 73.4317 55.1799 73.6515 55.1799 73.82C55.1799 74.0033 55.1349 74.1425 55.0631 74.2567C54.9954 74.3645 54.9064 74.4448 54.8318 74.5123L54.8271 74.5165C54.7477 74.5882 54.684 74.6468 54.6369 74.7217C54.5924 74.7925 54.56 74.8833 54.56 75.02C54.56 75.0918 54.5017 75.15 54.43 75.15C54.3582 75.15 54.3 75.0918 54.3 75.02C54.3 74.7635 54.1828 74.614 54.0452 74.4384C54.0385 74.4298 54.0318 74.4212 54.025 74.4125C53.9537 74.3213 53.8754 74.217 53.8274 74.0901C53.7787 73.9614 53.7633 73.8161 53.8009 73.6418C53.8146 73.4473 53.8981 73.2642 54.0361 73.1262C54.1767 72.9856 54.364 72.9016 54.5625 72.8902ZM54.4393 74.5495C54.3835 74.4476 54.3163 74.3623 54.2558 74.2854C54.247 74.2743 54.2384 74.2633 54.2299 74.2525C54.1587 74.1613 54.1032 74.0843 54.0706 73.9981C54.0396 73.9162 54.0272 73.8197 54.0568 73.6887C54.0583 73.6817 54.0593 73.6746 54.0597 73.6675C54.0675 73.5327 54.1245 73.4055 54.2199 73.31C54.3144 73.2155 54.44 73.1587 54.5733 73.1501C54.6554 73.1518 54.7407 73.2175 54.8133 73.3649C54.8839 73.5084 54.9199 73.6885 54.9199 73.82C54.9199 73.9567 54.8875 74.0476 54.843 74.1184C54.7959 74.1932 54.7322 74.2518 54.6528 74.3236L54.6481 74.3278C54.5815 74.388 54.5035 74.4584 54.4393 74.5495ZM58.8547 73.1398C58.8771 73.0969 58.9215 73.07 58.9699 73.07C59.2367 73.07 59.4435 73.1608 59.5873 73.3197C59.7279 73.4751 59.7964 73.6826 59.8169 73.8977C59.8574 74.3252 59.7131 74.8303 59.4771 75.1737C59.4448 75.2206 59.3858 75.2411 59.3314 75.2242C59.277 75.2073 59.2399 75.157 59.2399 75.1C59.2399 75.0263 59.2089 74.9579 59.1467 74.8861C59.0829 74.8124 58.9944 74.7446 58.8945 74.6734C58.878 74.6616 58.861 74.6496 58.8437 74.6375C58.7623 74.5802 58.6752 74.5189 58.6069 74.456C58.5254 74.3809 58.4399 74.2769 58.4399 74.14C58.4399 73.8584 58.6374 73.6994 58.7655 73.5963C58.7802 73.5845 58.7939 73.5734 58.8064 73.5629C58.8778 73.503 58.9084 73.4665 58.9183 73.4348C58.9244 73.4153 58.9306 73.3711 58.8632 73.2743C58.8356 73.2345 58.8323 73.1827 58.8547 73.1398ZM59.1781 73.3586C59.2707 73.387 59.3409 73.4349 59.3945 73.4941C59.4857 73.595 59.541 73.7425 59.558 73.9223C59.584 74.1962 59.5187 74.517 59.3972 74.7855C59.3804 74.761 59.3623 74.7378 59.3432 74.7158C59.257 74.6164 59.1455 74.533 59.0454 74.4617C59.0256 74.4476 59.0064 74.434 58.9878 74.4209C58.907 74.3639 58.8376 74.315 58.783 74.2647C58.7145 74.2016 58.6999 74.1632 58.6999 74.14C58.6999 73.989 58.7947 73.9105 58.9313 73.7973C58.945 73.7859 58.9591 73.7742 58.9735 73.7621C59.0421 73.7045 59.1315 73.6248 59.1666 73.5121C59.1823 73.4616 59.1858 73.4104 59.1781 73.3586ZM60.3726 73.3197C60.5164 73.1608 60.7232 73.07 60.9899 73.07C61.0384 73.07 61.0828 73.0969 61.1052 73.1398C61.1276 73.1827 61.1243 73.2345 61.0967 73.2743C61.0293 73.3711 61.0355 73.4153 61.0416 73.4348C61.0515 73.4665 61.0821 73.503 61.1535 73.5629C61.166 73.5734 61.1797 73.5845 61.1944 73.5963C61.3225 73.6994 61.5199 73.8584 61.5199 74.14C61.5199 74.2769 61.4345 74.3809 61.353 74.456C61.2847 74.5189 61.1976 74.5802 61.1162 74.6375C61.0989 74.6496 61.0819 74.6616 61.0654 74.6734C60.9655 74.7446 60.877 74.8124 60.8132 74.8861C60.751 74.9579 60.7199 75.0263 60.7199 75.1C60.7199 75.157 60.6829 75.2073 60.6285 75.2242C60.5741 75.2411 60.5151 75.2206 60.4828 75.1737C60.2468 74.8303 60.1024 74.3252 60.143 73.8977C60.1635 73.6826 60.232 73.4751 60.3726 73.3197ZM60.5627 74.7855C60.4412 74.517 60.3759 74.1962 60.4019 73.9223C60.4189 73.7425 60.4742 73.595 60.5654 73.4941C60.619 73.4349 60.6892 73.387 60.7818 73.3586C60.7741 73.4104 60.7776 73.4616 60.7933 73.5121C60.8284 73.6248 60.9178 73.7045 60.9864 73.7621C61.0008 73.7742 61.0149 73.7859 61.0286 73.7973C61.1652 73.9105 61.2599 73.989 61.2599 74.14C61.2599 74.1632 61.2454 74.2016 61.1769 74.2647C61.1223 74.315 61.0529 74.3639 60.9721 74.4209C60.9535 74.434 60.9343 74.4476 60.9145 74.4617C60.8144 74.533 60.7029 74.6164 60.6167 74.7158C60.5976 74.7378 60.5794 74.761 60.5627 74.7855Z" fill="#D3AE3B"/>
<path d="M50.93 72.4C51.25 72.4 51.73 72.54 51.87 72.72L50.93 72.4ZM52.51 72.88C52.67 72.88 53.31 73.02 53.61 73.2L52.51 72.88ZM58.23 73.52C57.93 73.52 57.29 73.52 57.13 73.66L58.23 73.5V73.52ZM56.49 73.52C56.31 73.34 55.69 73.34 55.37 73.52H56.49ZM69.05 72.4C68.7106 72.4043 68.3815 72.5164 68.11 72.72L69.05 72.4ZM67.49 72.88C67.29 72.88 66.69 73.02 66.37 73.2L67.49 72.88ZM61.75 73.52C62.05 73.52 62.69 73.52 62.87 73.66L61.75 73.5V73.52ZM63.49 73.52C63.67 73.34 64.29 73.34 64.61 73.52H63.49Z" fill="white"/>
<path fill-rule="evenodd" clip-rule="evenodd" d="M69.1387 72.3848C69.1462 72.4284 69.1209 72.471 69.079 72.4853L68.139 72.8053C68.0971 72.8195 68.0511 72.8012 68.0304 72.7621C68.0097 72.723 68.0206 72.6746 68.056 72.6481C68.3427 72.433 68.6904 72.3146 69.0488 72.3101C69.0931 72.3095 69.1312 72.3412 69.1387 72.3848ZM50.8412 72.3854C50.8484 72.3419 50.8859 72.3101 50.93 72.3101C51.1011 72.3101 51.3105 72.3471 51.4952 72.4069C51.5879 72.437 51.6766 72.4734 51.7525 72.5153C51.8272 72.5565 51.8954 72.6061 51.941 72.6648C51.9654 72.6962 51.9663 72.7399 51.9433 72.7723C51.9202 72.8047 51.8786 72.8181 51.841 72.8053L50.901 72.4853C50.8593 72.4711 50.834 72.4288 50.8412 72.3854ZM52.4209 72.8674C52.4272 72.823 52.4652 72.7901 52.51 72.7901C52.6027 72.7901 52.8127 72.828 53.0305 72.8855C53.2497 72.9435 53.4949 73.0261 53.6563 73.1229C53.6951 73.1462 53.7106 73.1946 53.6925 73.2361C53.6743 73.2775 53.6283 73.2991 53.5848 73.2865L52.4848 72.9665C52.4418 72.954 52.4146 72.9117 52.4209 72.8674ZM66.9517 72.8856C67.168 72.8278 67.3775 72.7901 67.49 72.7901C67.5349 72.7901 67.5729 72.8231 67.5791 72.8676C67.5853 72.912 67.5579 72.9543 67.5147 72.9666L66.3947 73.2866C66.3508 73.2991 66.3045 73.2768 66.2869 73.2347C66.2693 73.1926 66.2861 73.144 66.3258 73.1216C66.4955 73.0262 66.7339 72.9439 66.9517 72.8856ZM56.3062 73.3316C56.4015 73.3558 56.4921 73.3949 56.5536 73.4564C56.5794 73.4822 56.5871 73.5209 56.5731 73.5545C56.5592 73.5881 56.5264 73.6101 56.49 73.6101H55.37C55.329 73.6101 55.2933 73.5825 55.2829 73.5429C55.2725 73.5033 55.2902 73.4617 55.3258 73.4416C55.5039 73.3414 55.7559 73.2951 55.9825 73.2951C56.0969 73.2951 56.209 73.3068 56.3062 73.3316ZM63.9975 73.2951C64.2241 73.2951 64.476 73.3414 64.6541 73.4416C64.6898 73.4617 64.7074 73.5033 64.697 73.5429C64.6867 73.5825 64.6509 73.6101 64.61 73.6101H63.49C63.4536 73.6101 63.4208 73.5881 63.4068 73.5545C63.3929 73.5209 63.4006 73.4822 63.4263 73.4564C63.4879 73.3949 63.5785 73.3558 63.6737 73.3316C63.771 73.3068 63.883 73.2951 63.9975 73.2951ZM58.2889 73.432C58.3086 73.4491 58.32 73.4739 58.32 73.5001V73.5201C58.32 73.5698 58.2797 73.6101 58.23 73.6101C58.1906 73.6101 58.1456 73.6101 58.0968 73.6104L57.1429 73.7491C57.1035 73.7549 57.0649 73.7339 57.0482 73.6977C57.0315 73.6615 57.0407 73.6186 57.0707 73.5923C57.1288 73.5415 57.2181 73.5115 57.3073 73.4913C57.4004 73.4703 57.5095 73.4568 57.6203 73.4478C57.7789 73.4351 57.9461 73.4315 58.0832 73.4305L58.217 73.411C58.2429 73.4072 58.2691 73.4149 58.2889 73.432ZM61.691 73.4321C61.7107 73.415 61.7369 73.4073 61.7627 73.411L61.8993 73.4305C62.0361 73.4315 62.2027 73.4352 62.3621 73.4478C62.4741 73.4567 62.5848 73.4703 62.6805 73.4912C62.773 73.5114 62.8635 73.541 62.9252 73.589C62.9574 73.6141 62.9688 73.6577 62.9528 73.6952C62.9369 73.7328 62.8976 73.7549 62.8572 73.7492L61.8859 73.6104C61.8361 73.6101 61.7901 73.6101 61.75 73.6101C61.7003 73.6101 61.66 73.5698 61.66 73.5201V73.5001C61.66 73.474 61.6713 73.4492 61.691 73.4321Z" fill="#D3AE3B"/>
<path d="M50.65 74.9201C50.55 74.9001 50.49 74.8001 50.53 74.7201C50.55 74.5801 50.65 74.5201 50.73 74.5601C50.81 74.5601 50.91 74.6801 50.91 74.7201L50.83 74.8601L50.79 74.8801C50.79 74.9201 50.71 74.9201 50.65 74.9201ZM61.65 75.7001C61.61 75.7001 61.53 75.6001 61.53 75.5601C61.53 75.4801 61.65 75.3601 61.73 75.3601L61.89 75.4401C61.95 75.5001 61.95 75.6201 61.87 75.6801C61.83 75.7201 61.71 75.7201 61.65 75.6801V75.7001ZM61.71 76.2001C61.63 76.1601 61.61 76.1201 61.59 76.0401C61.59 75.9401 61.59 75.9201 61.69 75.8601L61.77 75.8201L61.85 75.8601C61.93 75.9001 61.99 75.9401 61.99 76.0201C61.99 76.0801 61.93 76.1401 61.85 76.1801C61.79 76.2201 61.77 76.2201 61.71 76.1801V76.2001Z" fill="#D3AE3B"/>
<path d="M51.55 74.0001C51.47 74.0001 51.37 74.0801 51.31 74.1201C51.19 74.1401 51.03 74.2201 50.91 74.1201C50.79 74.1001 50.63 74.1201 50.61 74.2801C50.63 74.4201 50.81 74.4801 50.93 74.4001C51.01 74.3001 51.23 74.2201 51.27 74.4001C51.17 74.5601 51.19 74.7401 51.11 74.8801C51.11 74.9801 51.05 75.0601 51.01 75.1401C50.91 75.1401 50.81 75.1401 50.73 75.2001C50.6679 75.2001 50.6066 75.2145 50.5511 75.2423C50.4956 75.2701 50.4472 75.3104 50.41 75.3601C50.33 75.4801 50.25 75.6001 50.23 75.7601C50.25 75.8801 50.43 75.9201 50.55 75.9401L50.95 76.0601L51.59 76.2401C51.91 76.3401 52.23 76.3801 52.55 76.4601L52.65 76.4801C52.79 76.5201 52.85 76.3801 52.85 76.2801L53.05 75.5601C53.09 75.4601 53.15 75.2601 52.97 75.3001C52.87 75.3601 52.77 75.4601 52.65 75.4601C52.47 75.4601 52.57 75.6601 52.65 75.7201C52.65 75.8401 52.61 75.9801 52.55 76.0801C52.43 76.1401 52.31 76.0801 52.19 76.0401C52.09 76.0401 51.85 75.9801 51.95 75.8401L52.05 75.4801C52.11 75.3601 52.11 75.2201 52.15 75.0801C52.07 74.9401 51.95 75.1401 51.85 75.1601C51.77 75.2001 51.53 75.2201 51.65 75.3601C51.77 75.4401 51.69 75.5801 51.65 75.7001C51.65 75.8401 51.49 75.9001 51.37 75.8401C51.25 75.8401 51.07 75.7401 51.17 75.6201L51.27 75.2601L51.41 74.8601C51.41 74.7201 51.47 74.6201 51.53 74.5001C51.53 74.3601 51.63 74.2401 51.63 74.1001C51.63 74.0401 51.59 74.0201 51.55 74.0201V74.0001ZM50.81 75.4601C50.8191 75.4548 50.8294 75.452 50.84 75.452C50.8505 75.452 50.8609 75.4548 50.87 75.4601C50.91 75.5001 50.91 75.5401 50.87 75.5801L50.81 75.6201C50.71 75.6201 50.69 75.6001 50.69 75.5601C50.69 75.5401 50.69 75.5201 50.75 75.5001C50.7743 75.4825 50.8013 75.469 50.83 75.4601H50.81ZM50.61 76.4601C50.51 76.3801 50.53 76.3201 50.67 76.2001C50.75 76.1601 50.77 76.1601 50.85 76.2201C50.97 76.3201 50.97 76.3801 50.85 76.4801C50.81 76.5201 50.79 76.5201 50.75 76.5201C50.69 76.5201 50.67 76.5201 50.61 76.4801V76.4601ZM51.21 76.6601C51.1653 76.6462 51.1278 76.6154 51.1054 76.5744C51.083 76.5333 51.0775 76.4851 51.09 76.4401C51.13 76.3601 51.15 76.3401 51.27 76.3401C51.41 76.3401 51.43 76.3601 51.45 76.4801C51.45 76.5601 51.45 76.5801 51.39 76.6201C51.3677 76.6377 51.3419 76.6504 51.3143 76.6573C51.2867 76.6642 51.258 76.6652 51.23 76.6601H51.21ZM69.05 76.6601C69.01 76.6401 68.99 76.6201 68.99 76.5601C68.99 76.4801 69.03 76.4201 69.15 76.3801C69.27 76.3201 69.35 76.3201 69.39 76.4201C69.45 76.5401 69.45 76.5801 69.37 76.6601C69.33 76.7201 69.31 76.7201 69.21 76.7201C69.11 76.7201 69.09 76.7201 69.05 76.6801V76.6601ZM52.05 76.9001C51.97 76.9001 51.93 76.8201 51.93 76.7401C51.93 76.6801 51.93 76.6601 51.97 76.6201L52.09 76.5801L52.21 76.6001C52.31 76.6801 52.33 76.7601 52.27 76.8401C52.21 76.9201 52.15 76.9201 52.03 76.9001H52.05ZM56.41 77.1001L56.37 77.0401C56.37 76.9201 56.37 76.8201 56.41 76.7001C56.43 76.6001 56.41 76.5001 56.45 76.4001L56.53 75.8401C56.53 75.7401 56.53 75.6401 56.57 75.5601C56.59 75.4001 56.57 75.2601 56.61 75.1201C56.61 75.0601 56.67 74.9201 56.73 75.0001C56.81 75.1201 56.91 75.2001 57.01 75.3001C57.09 75.3601 57.01 75.4401 56.95 75.4601C56.87 75.4801 56.85 75.5801 56.85 75.6601L56.81 75.9001C56.81 76.0401 56.81 76.1601 56.77 76.3001L56.75 76.6601L56.71 76.9001C56.71 76.9801 56.71 77.0801 56.63 77.1201C56.57 77.1601 56.47 77.1601 56.43 77.1001H56.41ZM62.35 75.1401L62.09 75.3801C61.97 75.4801 62.19 75.5201 62.21 75.6001C62.25 75.7201 62.25 75.8401 62.25 75.9601C62.29 76.0801 62.31 76.1801 62.29 76.3001C62.29 76.4401 62.13 76.4001 62.05 76.4801C61.95 76.5201 61.91 76.6201 61.85 76.6801C61.8024 76.7804 61.7752 76.8892 61.77 77.0001C61.77 77.1001 61.71 77.2001 61.77 77.2801L61.79 77.3201H61.89L62.19 77.3001C62.43 77.2601 62.69 77.2601 62.93 77.2401L63.37 77.2001C63.49 77.2201 63.55 77.1001 63.55 77.0001C63.47 76.8601 63.53 76.7201 63.47 76.6001C63.43 76.4401 63.45 76.3001 63.43 76.1601C63.43 76.0401 63.29 76.0001 63.23 76.0801C63.15 76.1601 63.03 76.1801 62.99 76.2601C62.93 76.3801 63.11 76.3801 63.15 76.4601L63.17 76.7601C63.19 76.8801 63.07 76.8801 62.97 76.9001C62.87 76.9401 62.73 76.9601 62.67 76.8401C62.63 76.7401 62.63 76.6401 62.63 76.5401C62.63 76.3401 62.57 76.1801 62.57 76.0001C62.57 75.8001 62.51 75.5801 62.51 75.3601C62.51 75.2601 62.49 75.1201 62.35 75.1401ZM62.23 76.7801H62.29V76.9401L62.23 76.9601C62.2038 76.9684 62.177 76.9751 62.15 76.9801C62.1366 76.9806 62.1233 76.9806 62.11 76.9801C62.07 76.9401 62.07 76.8801 62.13 76.8201L62.23 76.7801ZM56.23 74.9401C56.17 74.9401 56.07 75.0801 55.99 75.0601C55.81 75.0801 55.83 75.2601 55.97 75.3201V75.4801C55.99 75.6401 55.89 75.7801 55.91 75.9401C55.91 76.1001 55.85 76.2801 55.85 76.4601C55.79 76.6401 55.79 76.8201 55.77 77.0001C55.75 77.1601 55.63 77.1001 55.53 77.0601V76.8601C55.55 76.6801 55.43 76.6401 55.29 76.6201C55.15 76.6201 55.09 76.5201 55.13 76.4001C55.19 76.3201 55.33 76.3401 55.43 76.3401C55.63 76.3801 55.61 76.1201 55.51 76.0201C55.43 75.9001 55.27 75.8201 55.23 75.7001C55.23 75.5401 55.13 75.3601 54.99 75.2801C54.77 75.2601 54.59 75.4401 54.53 75.6401C54.43 75.6401 54.33 75.6801 54.25 75.7201C54.11 75.7601 53.91 76.0001 54.11 76.1001C54.21 76.1201 54.55 76.2001 54.39 76.3401C54.31 76.5001 54.15 76.5001 54.01 76.4601C53.87 76.4601 53.71 76.3801 53.71 76.2201C53.69 76.0601 53.69 75.9001 53.63 75.7601C53.59 75.6001 53.41 75.6401 53.39 75.8001C53.25 75.9001 53.27 76.0801 53.37 76.2001C53.43 76.3401 53.37 76.5201 53.31 76.6401C53.27 76.8401 53.07 76.8401 52.93 76.8801C52.87 76.9201 52.61 76.8801 52.71 77.0201C52.86 77.0891 53.0276 77.1101 53.19 77.0801C53.35 77.0801 53.49 76.9401 53.59 76.8001C53.69 76.7001 53.87 76.7601 54.03 76.7601C54.17 76.7601 54.33 76.8601 54.49 76.7801C54.53 76.6801 54.73 76.4801 54.79 76.6801C54.79 76.8601 54.93 76.9401 55.09 76.9201C55.27 76.9201 55.19 77.0401 55.19 77.1601C55.19 77.3401 55.33 77.4401 55.49 77.5201H55.65C55.79 77.4601 55.95 77.4001 56.01 77.2401C56.07 77.1001 56.07 76.9401 56.11 76.8001C56.15 76.5801 56.19 76.3401 56.19 76.1201C56.25 75.9201 56.23 75.7001 56.27 75.4801L56.33 75.0201C56.33 74.9201 56.29 74.9201 56.23 74.9401ZM54.89 75.7601C54.91 75.7601 54.93 75.8001 54.93 75.8601C54.93 75.9401 54.97 76.0001 55.03 76.0201V76.0801L54.87 76.1201C54.77 76.1201 54.69 76.0801 54.63 76.0201L54.59 75.9801L54.65 75.9401L54.75 75.8401C54.81 75.7801 54.85 75.7601 54.89 75.7601ZM68.09 74.1801C67.9749 74.1883 67.8609 74.2084 67.75 74.2401C67.55 74.2401 67.45 74.4401 67.65 74.5601C67.77 74.8601 67.95 74.4801 68.15 74.5201C68.43 74.5601 68.45 74.8801 68.51 75.1201C68.51 75.3401 68.59 75.5601 68.65 75.7801C68.85 76.0001 68.51 76.1401 68.37 75.9801C68.25 75.8401 67.97 75.6801 67.83 75.8601C67.65 75.9401 67.63 76.1801 67.49 76.2601C67.25 76.3201 67.23 76.0201 67.09 75.9001C66.97 75.7201 66.75 75.7001 66.57 75.6601C66.49 75.4801 66.53 75.1801 66.37 75.0601C66.21 75.1201 65.93 75.4001 66.17 75.5401C66.37 75.7401 66.07 75.8201 65.97 75.9401C65.81 76.1201 65.77 76.3401 65.77 76.5401C65.51 76.6801 65.47 76.3801 65.43 76.2001C65.43 75.9801 65.23 76.0401 65.09 76.1201C64.89 76.2001 64.81 76.3801 64.69 76.5201V76.9201C64.73 77.1001 64.93 77.0201 65.05 77.0001C65.25 76.9201 65.33 77.1401 65.17 77.2601C65.05 77.3801 64.73 77.3201 64.77 77.5401H65.09C65.29 77.4801 65.53 77.3201 65.55 77.0801C65.59 76.8801 65.89 76.9001 66.05 76.8601C66.25 76.8001 66.51 76.7801 66.57 77.0601C66.71 77.2001 67.01 77.3601 67.17 77.1601C67.2462 77.1118 67.3072 77.043 67.3461 76.9617C67.385 76.8803 67.4002 76.7897 67.39 76.7001C67.37 76.5401 67.65 76.5401 67.73 76.6401C67.83 76.8001 68.15 76.7601 68.31 76.6401C68.47 76.5401 68.51 76.3201 68.75 76.3201L69.83 76.0201C70.11 75.9601 69.79 75.7801 69.71 75.6601C69.51 75.5601 69.31 76.0001 69.07 75.7801C68.87 75.6401 68.89 75.3801 68.83 75.1601C68.77 74.8801 68.79 74.5601 68.59 74.3601C68.47 74.2201 68.27 74.1801 68.09 74.1801ZM66.73 76.0801C66.75 76.0801 66.79 76.0801 66.83 76.1201C66.91 76.1601 66.97 76.2401 66.97 76.3201C66.97 76.3601 66.97 76.3601 66.91 76.3801L66.81 76.4201C66.77 76.4201 66.67 76.3601 66.67 76.3201V76.2401C66.63 76.1601 66.63 76.1601 66.67 76.1201L66.73 76.0801ZM68.03 76.1601C68.11 76.1601 68.15 76.1601 68.19 76.2201C68.21 76.3001 68.19 76.3401 68.11 76.3801L68.01 76.4201L67.93 76.3601C67.89 76.3401 67.87 76.3201 67.87 76.2801C67.87 76.2201 67.95 76.1601 68.03 76.1401V76.1601ZM66.23 76.1601C66.27 76.1601 66.29 76.1601 66.31 76.2001C66.35 76.2401 66.37 76.2601 66.37 76.3201V76.4401C66.37 76.5001 66.37 76.4801 66.25 76.4801C66.13 76.4801 66.11 76.4801 66.11 76.3601C66.11 76.2801 66.11 76.2601 66.17 76.2201C66.19 76.1801 66.23 76.1801 66.25 76.1801L66.23 76.1601ZM65.15 76.4601C65.1689 76.4658 65.186 76.4761 65.2 76.49C65.214 76.504 65.2243 76.5212 65.23 76.5401C65.23 76.6001 65.23 76.6401 65.19 76.6601C65.13 76.6801 65.03 76.7001 64.99 76.6601C64.9894 76.6534 64.9894 76.6467 64.99 76.6401C64.95 76.6201 64.95 76.6001 64.99 76.5801V76.5601L65.03 76.5001C65.0423 76.4806 65.061 76.466 65.0828 76.4587C65.1047 76.4514 65.1284 76.4519 65.15 76.4601ZM66.99 76.7001L67.09 76.7201V76.8401H66.85L66.83 76.8001C66.83 76.7601 66.83 76.7401 66.87 76.7201L66.99 76.7001ZM63.57 77.6601C63.55 77.6601 63.51 77.6401 63.55 77.6201C63.57 77.5601 63.65 77.5401 63.71 77.5001C63.8189 77.4585 63.9153 77.3896 63.99 77.3001C63.99 77.2201 64.07 77.1801 64.07 77.1001L64.05 76.8201C64.023 76.736 63.966 76.6649 63.89 76.6201C63.83 76.6001 63.75 76.5801 63.73 76.5001C63.73 76.4401 63.79 76.3801 63.81 76.3201L63.93 76.0801C63.99 76.0201 64.07 76.0801 64.09 76.1201L64.19 76.3201C64.25 76.3801 64.29 76.4401 64.31 76.5201C64.35 76.6001 64.39 76.6601 64.39 76.7201L64.43 76.9801C64.43 77.0801 64.43 77.2001 64.39 77.3001L64.27 77.4601C64.21 77.5201 64.15 77.5801 64.07 77.6001C64.01 77.6201 63.97 77.6801 63.89 77.6801H63.59L63.57 77.6601ZM62.19 77.7401C62.15 77.7001 62.13 77.6801 62.13 77.6201C62.13 77.5601 62.13 77.5601 62.19 77.5001C62.27 77.4201 62.31 77.4201 62.47 77.5001C62.61 77.5801 62.67 77.5801 62.67 77.5201C62.69 77.4801 62.77 77.4201 62.87 77.4201C62.9069 77.4214 62.9423 77.4356 62.97 77.4601C63.01 77.5001 63.03 77.5201 63.03 77.6001C63.03 77.7001 63.03 77.7001 62.97 77.7601C62.91 77.8001 62.91 77.8001 62.83 77.8001C62.7944 77.7981 62.7603 77.7857 62.7318 77.7643C62.7033 77.743 62.6818 77.7136 62.67 77.6801C62.67 77.6401 62.67 77.6201 62.63 77.6601L62.59 77.6801C62.55 77.6801 62.47 77.7401 62.43 77.7801L62.33 77.8001C62.25 77.8001 62.25 77.8001 62.19 77.7401ZM58.23 75.9601C58.09 75.9601 57.95 76.0801 57.93 76.2201C57.97 76.3601 58.09 76.5201 58.01 76.6601C58.07 76.8601 57.85 76.9401 57.71 76.8401C57.63 76.6401 57.59 76.4401 57.45 76.2401C57.29 76.2001 57.23 76.4601 57.11 76.5601C57.17 76.7001 57.33 76.8401 57.35 77.0201C57.39 77.2201 57.27 77.4201 57.13 77.5001C56.99 77.6401 56.79 77.6001 56.63 77.6201C56.43 77.7401 56.77 77.7801 56.87 77.7801C57.07 77.8001 57.29 77.7801 57.47 77.6201C57.61 77.5601 57.59 77.2801 57.77 77.2601L58.73 77.3201C58.89 77.3601 59.15 77.3001 59.27 77.4201C59.27 77.6201 59.47 77.7801 59.65 77.8601C59.75 77.9001 59.85 77.7601 59.95 77.7401C60.15 77.6801 60.09 77.4401 60.21 77.3401H61.21C61.25 77.3401 61.27 77.2401 61.33 77.2001L61.29 76.8201C61.23 76.6601 61.29 76.4601 61.19 76.3201C61.01 76.2801 60.87 76.4201 60.71 76.4401C60.51 76.5201 60.37 76.7001 60.35 76.9001C60.25 77.0801 60.07 76.8601 60.15 76.7001L60.13 76.5001C60.03 76.4001 59.85 76.4401 59.71 76.4201L59.11 76.3801C58.91 76.3801 58.73 76.4001 58.57 76.3601C58.37 76.3601 58.37 76.1601 58.37 76.0001C58.33 75.9696 58.28 75.9553 58.23 75.9601ZM58.63 76.7001L58.83 76.7201H59.09C59.29 76.7601 59.49 76.7601 59.69 76.7601C59.73 76.7601 59.77 76.8001 59.81 76.8401V77.2401C59.81 77.3001 59.81 77.3801 59.77 77.4001C59.7595 77.416 59.7459 77.4296 59.73 77.4401C59.7007 77.4349 59.6729 77.4232 59.6487 77.4059C59.6245 77.3886 59.6044 77.3661 59.59 77.3401V77.0601C59.5503 77.0265 59.5016 77.0056 59.45 77.0001L58.93 76.9801L58.53 76.9601C58.47 76.9401 58.39 76.9601 58.35 76.8801C58.31 76.8401 58.37 76.7601 58.43 76.7401C58.4928 76.7119 58.5612 76.6983 58.63 76.7001ZM60.89 76.7601C60.91 76.7601 60.93 76.7601 60.93 76.8201L60.97 76.9201C60.97 76.9401 60.97 76.9601 60.93 76.9601C60.83 77.0001 60.73 77.0001 60.69 76.9601C60.69 76.9401 60.69 76.8601 60.73 76.8401L60.89 76.7601Z" fill="#D3AE3B"/>
<path d="M59.99 65.44C66.51 60.44 65.95 53.08 65.95 53.08L65.45 53.12C64.07 53.12 60.81 52.32 60.05 51.34C59.25 52.24 55.89 53.14 54.53 53.14L54.03 53.08C54.03 53.08 53.45 60.42 59.99 65.44Z" fill="white"/>
<path fill-rule="evenodd" clip-rule="evenodd" d="M60.0558 51.168L60.1369 51.2726C60.3111 51.4972 60.6387 51.722 61.0688 51.9328C61.4957 52.1421 62.0114 52.332 62.5489 52.4921C63.6236 52.8123 64.7697 53.0092 65.4457 53.01L66.0513 52.9616L66.0597 53.0717L65.95 53.08C66.0597 53.0717 66.0597 53.0716 66.0597 53.0717L66.0598 53.0734L66.0601 53.0778L66.0612 53.0946C66.0621 53.1092 66.0633 53.1308 66.0646 53.1589C66.0672 53.2152 66.07 53.2979 66.0713 53.4047C66.0739 53.6183 66.0703 53.9281 66.0454 54.3152C65.9957 55.0893 65.8609 56.1731 65.5211 57.4141C64.8413 59.8965 63.3403 63.0094 60.057 65.5273L59.99 65.5787L59.923 65.5273C56.6298 62.9995 55.1287 59.8865 54.4514 57.4065C54.1128 56.1667 53.98 55.0848 53.9318 54.3122C53.9077 53.9258 53.9048 53.6167 53.9079 53.4036C53.9094 53.2971 53.9125 53.2145 53.9152 53.1584C53.9166 53.1303 53.9179 53.1088 53.9188 53.0942L53.9199 53.0775L53.9202 53.0731L53.9203 53.0719L53.9204 53.0715C53.9204 53.0714 53.9204 53.0714 54.03 53.08L53.9204 53.0715L53.9294 52.9572L54.5365 53.03C55.2017 53.0286 56.3656 52.8075 57.468 52.4723C58.0196 52.3046 58.5519 52.1095 58.9945 51.9014C59.4404 51.6918 59.7833 51.4745 59.9678 51.2669L60.0558 51.168ZM54.1334 53.2032C54.1313 53.2547 54.1291 53.323 54.1279 53.4068C54.1248 53.6148 54.1277 53.9183 54.1514 54.2985C54.1988 55.059 54.3297 56.1258 54.6636 57.3485C55.3267 59.7766 56.7899 62.8183 59.9901 65.3011C63.1802 62.8282 64.6433 59.7866 65.3089 57.356C65.6441 56.1319 65.7769 55.0632 65.8259 54.3011C65.8504 53.9201 65.8539 53.6159 65.8514 53.4074C65.8503 53.3209 65.8482 53.2509 65.8461 53.1987L65.4544 53.23H65.45C64.7454 53.23 63.5741 53.0271 62.4861 52.7029C61.9411 52.5406 61.4131 52.3467 60.9719 52.1304C60.5869 51.9416 60.2584 51.7312 60.0447 51.5029C59.822 51.713 59.4836 51.9146 59.0881 52.1005C58.6332 52.3143 58.0904 52.513 57.532 52.6828C56.4181 53.0215 55.226 53.25 54.53 53.25H54.5234L54.1334 53.2032Z" fill="#D3AE3B"/>
<path d="M65.43 53.6H65.27C64.03 53.6 61.15 52.98 60.03 52.02C58.87 52.9 55.93 53.62 54.71 53.62C54.6562 53.6179 54.6026 53.6113 54.55 53.6C54.5609 54.8639 54.7357 56.1211 55.07 57.34C55.8722 60.2768 57.597 62.878 59.99 64.76C62.3844 62.8709 64.1091 60.2629 64.91 57.32C65.2426 56.1075 65.4173 54.8572 65.43 53.6Z" fill="white"/>
<path fill-rule="evenodd" clip-rule="evenodd" d="M60.0335 51.9044L60.0886 51.9517C60.6324 52.4178 61.6155 52.8087 62.6286 53.0831C63.639 53.3569 64.6607 53.51 65.27 53.51H65.5209L65.52 53.6009C65.5073 54.8658 65.3314 56.1239 64.9968 57.3438C64.1908 60.3052 62.4553 62.9296 60.0458 64.8307L59.9901 64.8746L59.9344 64.8307C57.5262 62.9368 55.7905 60.3191 54.9832 57.3637C54.6469 56.1373 54.471 54.8724 54.46 53.6008L54.459 53.4886L54.5688 53.512C54.6159 53.522 54.6637 53.5281 54.7118 53.53C55.31 53.5297 56.3399 53.3522 57.3682 53.0634C58.3989 52.7739 59.4099 52.3775 59.9756 51.9483L60.0335 51.9044ZM57.4169 53.2366C56.3812 53.5275 55.332 53.71 54.71 53.71H54.7066C54.6848 53.7092 54.663 53.7076 54.6413 53.7053C54.6608 54.9257 54.834 56.1389 55.1568 57.3162C55.9477 60.2115 57.641 62.7787 59.9899 64.6452C62.3403 62.7716 64.0335 60.1978 64.8232 57.2964C65.1457 56.1206 65.3189 54.9088 65.3388 53.69H65.27C64.6393 53.69 63.601 53.5331 62.5815 53.2569C61.5963 52.9899 60.6112 52.607 60.0267 52.1343C59.4244 52.5679 58.4185 52.9553 57.4169 53.2366Z" fill="#D3AE3B"/>
<path d="M57.87 53C56.7957 53.3499 55.6788 53.5517 54.55 53.6L54.57 54.42C54.6383 55.4011 54.8058 56.3727 55.07 57.32C55.6076 59.287 56.5626 61.1151 57.87 62.68V53ZM61.99 53V62.84C63.3603 61.2391 64.3577 59.3537 64.91 57.32C65.1739 56.3727 65.3414 55.4011 65.41 54.42L65.43 53.62H65.27C64.51 53.62 63.19 53.38 61.99 52.98V53Z" fill="#D3AE3B"/>
<path d="M62.45 50.6C62.59 50.62 62.27 49.9 62.27 49.9C62.63 50.26 63.95 50.36 63.95 50.36C63.15 50 62.35 47.34 62.45 45.2C62.53 43.08 62.15 42.24 61.85 41.92C61.45 41.52 60.15 41.16 59.31 41.12C58.81 41.1 58.91 41.48 58.91 41.48C58.01 41.26 57.11 41.16 56.71 41.44C56.35 41.68 56.27 42.94 56.55 42.72C57.21 42.18 57.79 42.68 58.19 43.26C58.55 43.76 58.53 45.2 58.01 46.9C57.5496 48.1852 56.8732 49.3824 56.01 50.44C56.81 50.44 57.93 49.74 57.93 49.74L57.67 50.84C58.51 50.44 59.17 49.82 59.17 49.82L59.97 50.66C60.23 50.3 60.77 49.82 60.77 49.82C60.77 49.82 61.43 50.52 62.45 50.62V50.6Z" fill="white"/>
<path fill-rule="evenodd" clip-rule="evenodd" d="M58.9761 41.0556C59.0631 41.0088 59.1751 40.987 59.3151 40.9926L59.3161 40.9927C59.7486 41.0133 60.2941 41.1156 60.7819 41.263C61.0262 41.3368 61.2587 41.4227 61.4571 41.5167C61.6535 41.6098 61.825 41.7147 61.9402 41.8299L61.9416 41.8313L61.943 41.8328C62.2796 42.1918 62.6577 43.077 62.5774 45.2048L62.5774 45.206C62.5281 46.2599 62.7008 47.4456 62.9848 48.4115C63.1268 48.8944 63.2955 49.318 63.4754 49.6407C63.6587 49.9693 63.8418 50.1715 64.0023 50.2438L63.9404 50.4872L63.95 50.36C63.9404 50.4872 63.9404 50.4872 63.9404 50.4872L63.94 50.4871L63.9361 50.4868L63.9244 50.4859C63.9143 50.485 63.8996 50.4837 63.8807 50.482C63.8431 50.4785 63.7892 50.473 63.7235 50.4654C63.5921 50.4502 63.4128 50.426 63.2216 50.3904C63.0309 50.3548 62.8255 50.3072 62.6429 50.2443C62.6041 50.231 62.5656 50.2167 62.5279 50.2014C62.5295 50.206 62.5312 50.2106 62.5328 50.2152C62.5644 50.3049 62.5946 50.4022 62.6069 50.479C62.6124 50.514 62.6176 50.5629 62.6058 50.6079C62.6015 50.6244 62.5934 50.6464 62.5775 50.6675V50.7606L62.4376 50.7469C61.9017 50.6944 61.4624 50.4846 61.1587 50.2899C61.0065 50.1923 60.8873 50.0979 60.8058 50.0275C60.7922 50.0157 60.7796 50.0046 60.7681 49.9943C60.7141 50.0443 60.6395 50.1145 60.557 50.1959C60.3903 50.3601 60.1967 50.5639 60.0734 50.7347L59.9835 50.8591L59.1629 49.9974C59.1547 50.0045 59.146 50.012 59.1368 50.0199C59.0602 50.0857 58.9494 50.1773 58.8121 50.2816C58.538 50.4897 58.1554 50.7501 57.7248 50.9551L57.4848 51.0694L57.7382 49.9974C57.626 50.0584 57.4835 50.1321 57.3234 50.2058C56.941 50.3819 56.4395 50.5675 56.01 50.5675H55.7414L55.9112 50.3594C56.7646 49.3138 57.4334 48.1303 57.889 46.8598C58.1458 46.0195 58.2782 45.2464 58.3026 44.625C58.3149 44.3139 58.3 44.0433 58.2613 43.8226C58.2223 43.6001 58.1608 43.4376 58.0866 43.3345L58.085 43.3324C57.8888 43.0479 57.6597 42.8009 57.4134 42.6855C57.2928 42.629 57.1704 42.6051 57.0449 42.6215C56.9193 42.6378 56.7809 42.6958 56.6308 42.8187L56.6288 42.8203C56.5734 42.8638 56.4859 42.8994 56.3978 42.8483C56.3288 42.8083 56.2988 42.7339 56.2838 42.6819C56.2509 42.5679 56.2476 42.4046 56.2631 42.2405C56.2789 42.0731 56.3158 41.8891 56.3739 41.7288C56.4297 41.5747 56.5134 41.4185 56.638 41.3348C56.8749 41.1696 57.2368 41.1275 57.6283 41.1451C57.9811 41.1611 58.3808 41.227 58.7825 41.3188C58.7871 41.295 58.7941 41.2699 58.8044 41.2446C58.8333 41.1733 58.8869 41.1036 58.9761 41.0556ZM57.8624 49.6319L57.8619 49.6322L57.8598 49.6336L57.8508 49.6391C57.8428 49.6439 57.8308 49.6512 57.8152 49.6605C57.7839 49.6791 57.738 49.7059 57.6804 49.7381C57.565 49.8025 57.403 49.8884 57.2167 49.9742C56.9317 50.1054 56.6007 50.2313 56.2962 50.2851C57.0795 49.2752 57.6986 48.1474 58.1301 46.943L58.1311 46.9402L58.1319 46.9373C58.3945 46.0788 58.5319 45.2829 58.5574 44.635C58.5702 44.3112 58.5551 44.0217 58.5125 43.7786C58.4703 43.538 58.3996 43.3335 58.2943 43.1866C58.0906 42.8914 57.83 42.599 57.5216 42.4546C57.3647 42.3811 57.1934 42.3449 57.012 42.3686C56.8483 42.3899 56.6842 42.4589 56.5215 42.5805C56.5077 42.5088 56.5044 42.3971 56.517 42.2645C56.5311 42.1144 56.5642 41.9521 56.6137 41.8156C56.6652 41.6733 56.7261 41.5826 56.7807 41.5461L56.7831 41.5445C56.9463 41.4303 57.2338 41.3826 57.6168 41.3999C57.9927 41.4169 58.4338 41.4949 58.8797 41.6039L59.0878 41.6547L59.0336 41.4486C59.0336 41.4486 59.0336 41.4487 59.0336 41.4486C59.0334 41.4477 59.0329 41.4454 59.0324 41.4424C59.0314 41.4363 59.0301 41.4268 59.0296 41.4153C59.0285 41.3912 59.0311 41.3642 59.0407 41.3404C59.0493 41.3193 59.0644 41.2976 59.097 41.2801C59.1319 41.2613 59.1947 41.2431 59.3045 41.2474C59.7119 41.2669 60.2362 41.3645 60.7082 41.5071C60.9438 41.5783 61.1638 41.6599 61.3479 41.7471C61.533 41.8348 61.6734 41.9243 61.7584 42.0087C62.0218 42.2911 62.4021 43.0867 62.3226 45.1946C62.272 46.2806 62.4493 47.4946 62.7402 48.4835C62.8857 48.9782 63.0608 49.4208 63.2527 49.7649C63.3412 49.9235 63.4358 50.0661 63.5361 50.1839C63.4527 50.1718 63.3619 50.1571 63.2684 50.1397C63.0841 50.1053 62.8921 50.0604 62.7259 50.0032C62.5558 49.9447 62.4289 49.8786 62.3602 49.8099L62.1536 49.9518L62.1537 49.9522L62.1543 49.9536L62.1568 49.9593C62.1578 49.9615 62.1589 49.9641 62.1603 49.9672C62.162 49.9712 62.1641 49.976 62.1664 49.9814C62.1747 50.0006 62.1864 50.0281 62.2 50.061C62.2274 50.127 62.2621 50.2141 62.2923 50.2999C62.3125 50.3572 62.3295 50.4108 62.3412 50.4557L62.3225 50.453V50.4752C61.9009 50.4085 61.55 50.2378 61.2963 50.0752C61.156 49.9852 61.0464 49.8984 60.9724 49.8345C60.9354 49.8025 60.9074 49.7764 60.8889 49.7585C60.8797 49.7496 60.8728 49.7428 60.8684 49.7384L60.8637 49.7335L60.8628 49.7326L60.7779 49.6425L60.6853 49.7247L60.6848 49.7252L60.6836 49.7263L60.6788 49.7306L60.6607 49.7468C60.6452 49.7609 60.6227 49.7814 60.595 49.8071C60.5396 49.8584 60.4629 49.9306 60.378 50.0142C60.2448 50.1455 60.0875 50.3085 59.96 50.4646L59.175 49.6404L59.0827 49.7271L59.0825 49.7273L59.0813 49.7285L59.0761 49.7333C59.0713 49.7376 59.0642 49.7442 59.0547 49.7527C59.0357 49.7698 59.0074 49.7949 58.9707 49.8264C58.8974 49.8894 58.7906 49.9777 58.6579 50.0785C58.4457 50.2396 58.1688 50.4311 57.8575 50.601L58.1254 49.4675" fill="#D3AE3B"/>
<path fill-rule="evenodd" clip-rule="evenodd" d="M59.8003 45.4123L59.93 45.42C60.0598 45.4278 60.0598 45.4278 60.0598 45.4279L60.0592 45.4377L60.0574 45.4662C60.0558 45.4912 60.0533 45.5278 60.05 45.5747C60.0434 45.6686 60.0334 45.8038 60.0196 45.9693C59.992 46.3001 59.9493 46.7526 59.8891 47.2385C59.8288 47.7242 59.7508 48.245 59.6522 48.7122C59.5544 49.1762 59.434 49.5988 59.285 49.8808L59.0551 49.7593C59.1861 49.5113 59.3007 49.1189 59.3978 48.6585C59.4943 48.2013 59.5713 47.6884 59.631 47.2065C59.6908 46.725 59.7331 46.2762 59.7605 45.9477C59.7742 45.7835 59.7842 45.6494 59.7907 45.5565C59.7939 45.5101 59.7964 45.4739 59.7979 45.4494L59.7997 45.4216L59.8003 45.4123ZM59.0812 45.5028L59.21 45.52C59.3389 45.5373 59.3389 45.5374 59.3389 45.5374L59.3385 45.5399L59.3375 45.5472L59.3336 45.5753C59.3301 45.5999 59.325 45.6359 59.3181 45.682C59.3043 45.7742 59.2837 45.9067 59.2564 46.0686C59.2017 46.3921 59.12 46.8335 59.0117 47.3042C58.9036 47.7744 58.7685 48.2764 58.6066 48.7202C58.446 49.1604 58.254 49.5581 58.0261 49.8077L57.834 49.6324C58.0261 49.422 58.2041 49.0647 58.3623 48.6311C58.5191 48.2012 58.6515 47.7107 58.7584 47.2459C58.8651 46.7816 58.9459 46.3455 59 46.0253C59.027 45.8652 59.0474 45.7343 59.0609 45.6436C59.0677 45.5982 59.0728 45.5628 59.0762 45.5389L59.08 45.5118L59.0809 45.5049L59.0812 45.5028ZM60.42 45.5601C60.42 45.5601 60.42 45.56 60.55 45.56C60.68 45.56 60.68 45.5601 60.68 45.5601L60.6801 45.6008C60.6801 45.6276 60.6802 45.6669 60.6804 45.7172C60.6808 45.8177 60.6816 45.9621 60.6832 46.1373C60.6863 46.4878 60.6925 46.9614 60.705 47.4543C60.7175 47.9473 60.7362 48.4584 60.7641 48.8843C60.7781 49.0974 60.7943 49.2878 60.8131 49.4434C60.8322 49.6016 60.8529 49.7155 60.8738 49.7801L60.6263 49.86C60.5972 49.7696 60.5742 49.6341 60.555 49.4745C60.5354 49.3124 60.5188 49.1168 60.5047 48.9014C60.4764 48.4704 60.4576 47.9553 60.4451 47.4608C60.4326 46.9661 60.4263 46.491 60.4232 46.1396C60.4216 45.9639 60.4208 45.8191 60.4204 45.7182C60.4202 45.6677 60.4201 45.6282 60.4201 45.6013L60.42 45.5601ZM61.2202 45.7469C61.2202 45.7469 61.2202 45.7468 61.35 45.74L61.4799 45.7333L61.48 45.7352L61.4803 45.7416L61.4818 45.7669C61.4831 45.7892 61.4852 45.8223 61.4881 45.8648C61.4939 45.9499 61.5031 46.0728 61.5164 46.2239C61.5431 46.5262 61.5866 46.9403 61.6536 47.3883C61.7207 47.8366 61.811 48.3167 61.931 48.7514C62.0516 49.1885 62.1995 49.5692 62.377 49.8261L62.1631 49.9739C61.9606 49.6808 61.8035 49.2666 61.6804 48.8206C61.5566 48.3721 61.4644 47.8809 61.3965 47.4268C61.3285 46.9722 61.2845 46.5527 61.2574 46.2468C61.2439 46.0938 61.2346 45.9691 61.2287 45.8825C61.2257 45.8392 61.2236 45.8055 61.2223 45.7824L61.2207 45.7561L61.2204 45.7493L61.2202 45.7469Z" fill="#D3AE3B"/>
<path d="M58.39 43.92C58.3721 43.6881 58.3038 43.4628 58.19 43.26C57.79 42.66 57.21 42.18 56.55 42.72C56.55 42.72 56.77 42.02 57.27 42C57.63 41.98 58.49 42.28 59.25 43.56C59.25 43.56 58.69 43.44 58.55 43.56C58.31 43.76 58.41 43.92 58.41 43.92H58.39Z" fill="#D3AE3B"/>
<path d="M56.47 41.86C56.53 41.66 56.61 41.5 56.73 41.44C57.13 41.16 58.01 41.24 58.91 41.48C58.91 41.48 58.83 41.1 59.31 41.12C60.15 41.16 61.43 41.52 61.83 41.92C61.9581 42.0607 62.0597 42.2233 62.13 42.4C61.93 42.12 61.37 42.14 61.23 42.16C61.03 42.18 60.89 42.16 60.61 42.24C60.47 42.28 60.27 42.32 60.15 42.4C60.07 42.48 59.99 42.72 59.87 42.72C59.67 42.72 59.67 42.68 59.61 42.62C59.55 42.52 59.51 42.4 59.43 42.42C59.23 42.44 58.87 42.28 58.43 41.92C57.97 41.56 57.79 41.48 57.23 41.52C56.63 41.56 56.47 41.9 56.47 41.9V41.86Z" fill="#D3AE3B"/>
<path d="M59.75 42.38C59.8826 42.38 59.99 42.2726 59.99 42.14C59.99 42.0075 59.8826 41.9 59.75 41.9C59.6175 41.9 59.51 42.0075 59.51 42.14C59.51 42.2726 59.6175 42.38 59.75 42.38Z" fill="white"/>
</g>
<defs>
<clipPath id="clip0_909_101656">
<rect width="120" height="120" fill="white"/>
</clipPath>
</defs>
</svg>
