<svg width="120" height="120" viewBox="0 0 120 120" fill="none" xmlns="http://www.w3.org/2000/svg">
<path d="M0 0H120V120H0V0Z" fill="#E23726"/>
<path d="M0 0H120V80H0V0Z" fill="#FDD406"/>
<path d="M0 0H120V40H0V0Z" fill="#1E9A1C"/>
<path d="M60 100C82.0914 100 100 82.0914 100 60C100 37.9086 82.0914 20 60 20C37.9086 20 20 37.9086 20 60C20 82.0914 37.9086 100 60 100Z" fill="#0F3296"/>
<path d="M58.598 32.3148L59.9999 28L67.1844 50.1115H84.1956L80.5253 52.7781H55.8044L56.6709 50.1115H64.3805L58.598 32.3148Z" fill="#FDD406"/>
<path d="M69.1601 48.5263L79.3484 34.5033L78.2697 33.7196L68.0814 47.7426L69.1601 48.5263Z" fill="#FDD406"/>
<path d="M90.4337 50.1114H85.8969L70.7581 61.1104L68.3757 53.7781H65.5718L73.211 77.2891L76.8813 79.9557L71.6246 63.7771L90.4337 50.1114Z" fill="#FDD406"/>
<path d="M73.7427 65.1663L90.2277 70.5226L90.6397 69.2545L74.1547 63.8982L73.7427 65.1663Z" fill="#FDD406"/>
<path d="M78.8091 85.8885L77.4071 81.5738L62.2683 70.5748L68.5056 66.0432L67.6391 63.3765L47.6395 77.9071L46.2375 82.2219L59.9999 72.2229L78.8091 85.8885Z" fill="#FDD406"/>
<path d="M59.3333 74.6667V92H60.6666V74.6667H59.3333Z" fill="#FDD406"/>
<path d="M41.1908 85.8886L44.8612 83.2219L50.6436 65.4252L56.8809 69.9568L59.1493 68.3087L39.1497 53.7781H34.6129L48.3752 63.7771L41.1908 85.8886Z" fill="#FDD406"/>
<path d="M45.8451 63.8982L29.3601 69.2545L29.7721 70.5226L46.2571 65.1663L45.8451 63.8982Z" fill="#FDD406"/>
<path d="M29.5661 50.1115L33.2364 52.7781L51.949 52.7781L49.5666 60.1104L51.835 61.7585L59.4742 38.2476L58.0722 33.9328L52.8154 50.1115H29.5661Z" fill="#FDD406"/>
<path d="M51.9184 47.7426L41.7301 33.7196L40.6514 34.5033L50.8397 48.5263L51.9184 47.7426Z" fill="#FDD406"/>
</svg>
