<svg width="121" height="120" viewBox="0 0 121 120" fill="none" xmlns="http://www.w3.org/2000/svg">
<g clip-path="url(#clip0_307_80549)">
<path d="M0.935547 0H120.936V120H0.935547V0Z" fill="#021455"/>
<path d="M14.998 0L60.748 45.25L106.311 0H120.936V15.5L75.9355 60.25L120.936 104.75V120H105.936L60.9355 75.25L16.123 120H0.935547V105L45.748 60.5L0.935547 16V0H14.998Z" fill="white"/>
<path d="M80.4355 70.25L120.936 110V120L70.123 70.25H80.4355ZM45.9355 75.25L47.0605 84L11.0605 120H0.935547L45.9355 75.25ZM120.936 0V0.75L74.248 47.75L74.623 36.75L111.561 0H120.936ZM0.935547 0L45.748 44H34.498L0.935547 10.5V0Z" fill="#D91C16"/>
<path d="M46.123 0V120H76.123V0H46.123ZM0.935547 40V80H120.936V40H0.935547Z" fill="white"/>
<path d="M0.935547 48.25V72.25H120.936V48.25H0.935547ZM52.123 0V120H70.123V0H52.123Z" fill="#D91C16"/>
</g>
<defs>
<clipPath id="clip0_307_80549">
<rect width="120" height="120" fill="white" transform="translate(0.935547)"/>
</clipPath>
</defs>
</svg>
