<svg width="120" height="120" viewBox="0 0 120 120" fill="none" xmlns="http://www.w3.org/2000/svg">
<path d="M0 0H120V120H0V0Z" fill="#E23726"/>
<path d="M10 17H110V103H10V17Z" fill="#005801"/>
<path d="M10 17H110L10 103H110L10 17Z" fill="#FDD406"/>
<path d="M19.342 60.0452C21.0468 63.4512 24.4448 67.2024 27.4672 68.5736C27.614 65.1684 26.5308 60.7676 24.9776 57.2416L19.342 60.0452Z" fill="#E23726"/>
<path d="M16.2781 48.5948C18.8181 54.0728 9.26491 66.9372 24.8593 70.1852C22.9649 67.528 21.9273 63.0844 22.4433 59.6028C25.6813 60.982 28.9281 64.1884 30.2041 67.1916C35.5817 52.198 19.6217 53.6228 16.2781 48.5948Z" fill="#FDD406"/>
<path fill-rule="evenodd" clip-rule="evenodd" d="M18.6672 5.8896L20.4184 0.5L22.1695 5.8896H27.8364L23.2517 9.22067L25.0028 14.6104L20.4182 11.2794L15.8336 14.6104L17.5848 9.22076L13 5.8896H18.6672ZM60.2548 0.5L58.5036 5.8896H52.8364L57.4212 9.22076L55.67 14.6104L60.2546 11.2794L64.8392 14.6104L63.0881 9.22067L67.6728 5.8896H62.0059L60.2548 0.5ZM98.34 5.8896L100.091 0.5L101.842 5.8896H107.509L102.925 9.22067L104.676 14.6104L100.091 11.2794L95.5065 14.6104L97.2577 9.22077L92.6729 5.8896H98.34ZM20.4184 103.61L18.6672 109H13L17.5848 112.331L15.8336 117.721L20.4182 114.39L25.0028 117.721L23.2517 112.331L27.8364 109H22.1695L20.4184 103.61ZM60.2548 103.61L58.5036 109H52.8364L57.4212 112.331L55.67 117.721L60.2546 114.39L64.8392 117.721L63.0881 112.331L67.6728 109H62.0059L60.2548 103.61ZM100.091 103.61L98.34 109H92.6729L97.2577 112.331L95.5065 117.721L100.091 114.39L104.676 117.721L102.925 112.331L107.509 109H101.842L100.091 103.61Z" fill="#FDD406"/>
<path d="M60.0001 74.4C67.953 74.4 74.4001 67.9529 74.4001 60C74.4001 52.0471 67.953 45.6 60.0001 45.6C52.0472 45.6 45.6001 52.0471 45.6001 60C45.6001 67.9529 52.0472 74.4 60.0001 74.4Z" fill="#E23726"/>
<path d="M59.9999 46.7999L52.2411 70.6787L72.5539 55.9207H47.4463L67.7591 70.6787L59.9999 46.7999Z" fill="#FDD406"/>
</svg>
