<svg width="120" height="120" viewBox="0 0 120 120" fill="none" xmlns="http://www.w3.org/2000/svg">
<path d="M0 0H120V120H0V0Z" fill="white"/>
<path d="M70.6667 0H49.3333V48H0V72H49.3333V120H70.6667V72H120V48H70.6667V0Z" fill="#E23726"/>
<path d="M27.4952 11.724C24.6944 12.0919 21.8576 12.0919 19.0568 11.724C19.667 14.7652 20.0482 17.8406 20.2004 20.9244C17.1166 20.7722 14.0412 20.391 11 19.7808C11.3679 22.5816 11.3679 25.4184 11 28.2192C14.0412 27.609 17.1166 27.2278 20.2004 27.0756C20.0482 30.1594 19.667 33.2348 19.0568 36.276C21.8576 35.9081 24.6944 35.9081 27.4952 36.276C26.885 33.2348 26.5038 30.1594 26.3516 27.0756C29.4354 27.2278 32.5108 27.609 35.552 28.2192C35.1841 25.4184 35.1841 22.5816 35.552 19.7808C32.5108 20.391 29.4354 20.7722 26.3516 20.9244C26.5038 17.8406 26.885 14.7652 27.4952 11.724Z" fill="#E23726"/>
<path d="M19.0568 83.724C21.8576 84.0919 24.6944 84.0919 27.4952 83.724C26.885 86.7652 26.5038 89.8406 26.3516 92.9244C29.4354 92.7722 32.5108 92.391 35.552 91.7808C35.1841 94.5816 35.1841 97.4184 35.552 100.219C32.5108 99.609 29.4354 99.2278 26.3516 99.0756C26.5038 102.159 26.885 105.235 27.4952 108.276C24.6944 107.908 21.8576 107.908 19.0568 108.276C19.667 105.235 20.0482 102.159 20.2004 99.0756C17.1166 99.2278 14.0412 99.609 11 100.219C11.3679 97.4184 11.3679 94.5816 11 91.7808C14.0412 92.391 17.1166 92.7722 20.2004 92.9244C20.0482 89.8406 19.667 86.7652 19.0568 83.724Z" fill="#E23726"/>
<path d="M91.6088 11.724C94.4096 12.0919 97.2464 12.0919 100.047 11.724C99.437 14.7652 99.0558 17.8406 98.9036 20.9244C101.987 20.7722 105.063 20.391 108.104 19.7808C107.736 22.5816 107.736 25.4184 108.104 28.2192C105.063 27.609 101.987 27.2278 98.9036 27.0756C99.0558 30.1594 99.437 33.2348 100.047 36.276C97.2464 35.9081 94.4096 35.9081 91.6088 36.276C92.219 33.2348 92.6002 30.1594 92.7524 27.0756C89.6686 27.2278 86.5932 27.609 83.552 28.2192C83.9199 25.4184 83.9199 22.5816 83.552 19.7808C86.5932 20.391 89.6686 20.7722 92.7524 20.9244C92.6002 17.8406 92.219 14.7652 91.6088 11.724Z" fill="#E23726"/>
<path d="M91.6088 83.724C94.4096 84.0919 97.2464 84.0919 100.047 83.724C99.437 86.7652 99.0558 89.8406 98.9036 92.9244C101.987 92.7722 105.063 92.391 108.104 91.7808C107.736 94.5816 107.736 97.4184 108.104 100.219C105.063 99.609 101.987 99.2278 98.9036 99.0756C99.0558 102.159 99.437 105.235 100.047 108.276C97.2464 107.908 94.4096 107.908 91.6088 108.276C92.219 105.235 92.6002 102.159 92.7524 99.0756C89.6686 99.2278 86.5932 99.609 83.552 100.219C83.9199 97.4184 83.9199 94.5816 83.552 91.7808C86.5932 92.391 89.6686 92.7722 92.7524 92.9244C92.6002 89.8406 92.219 86.7652 91.6088 83.724Z" fill="#E23726"/>
</svg>
