<svg width="120" height="120" viewBox="0 0 120 120" fill="none" xmlns="http://www.w3.org/2000/svg">
<path d="M59.5052 69.9725H59.5035C59.2161 69.9342 58.9686 69.8734 58.7876 69.7969C58.7811 69.7941 58.7781 69.7867 58.7808 69.7801C58.7836 69.7738 58.7909 69.7701 58.7976 69.7734C58.9765 69.849 59.2218 69.9092 59.5069 69.9471C59.5139 69.9481 59.5188 69.9545 59.5179 69.9615C59.517 69.968 59.5116 69.9725 59.5052 69.9725ZM59.5052 69.8225H59.5035C59.2161 69.7844 58.9686 69.7236 58.7876 69.6469C58.7811 69.6441 58.7781 69.6367 58.7809 69.6301C58.7836 69.6238 58.7909 69.6201 58.7976 69.6234C58.9765 69.6992 59.2218 69.7594 59.5069 69.7971C59.5139 69.798 59.5188 69.8045 59.5179 69.8115C59.517 69.818 59.5116 69.8225 59.5052 69.8225ZM59.5052 69.6727H59.5035C59.2155 69.6344 58.9679 69.5736 58.7876 69.4971C58.7811 69.4943 58.7781 69.4869 58.7809 69.4803C58.7836 69.474 58.7909 69.4705 58.7976 69.4736C58.9758 69.5492 59.2211 69.6094 59.5069 69.6473C59.5139 69.6482 59.5188 69.6547 59.5179 69.6617C59.517 69.6682 59.5116 69.6727 59.5052 69.6727ZM59.5052 69.5229H59.5035C59.2161 69.4846 58.9686 69.4238 58.7876 69.3473C58.7811 69.3445 58.7781 69.3371 58.7808 69.3305C58.7836 69.3242 58.7909 69.3209 58.7976 69.3238C58.9765 69.3994 59.2218 69.4596 59.5069 69.4975C59.5139 69.4984 59.5188 69.5049 59.5179 69.5119C59.517 69.5184 59.5116 69.5229 59.5052 69.5229ZM59.5052 69.373H59.5035C59.2161 69.3348 58.9686 69.274 58.7876 69.1975C58.7811 69.1947 58.7781 69.1873 58.7808 69.1807C58.7836 69.1744 58.7909 69.1709 58.7976 69.174C58.9765 69.2496 59.2218 69.3098 59.5069 69.3477C59.5139 69.3486 59.5188 69.3551 59.5179 69.3621C59.517 69.3686 59.5116 69.373 59.5052 69.373ZM59.5052 69.223H59.5035C59.2168 69.1854 58.9693 69.1246 58.7876 69.0475C58.7811 69.0447 58.7781 69.0373 58.7809 69.0307C58.7836 69.0244 58.7909 69.0209 58.7976 69.024C58.9772 69.1002 59.2224 69.1602 59.5069 69.1977C59.5139 69.1986 59.5188 69.2051 59.5179 69.2121C59.517 69.2184 59.5116 69.223 59.5052 69.223ZM59.5052 69.0732H59.5035C59.2161 69.0352 58.9686 68.9744 58.7876 68.8977C58.7811 68.8949 58.7781 68.8875 58.7809 68.8809C58.7836 68.8746 58.7909 68.8709 58.7976 68.8742C58.9765 68.95 59.2218 69.0102 59.5069 69.0479C59.5139 69.0488 59.5188 69.0553 59.5179 69.0623C59.517 69.0686 59.5116 69.0732 59.5052 69.0732ZM59.5052 68.9234H59.5035C59.2168 68.8855 58.9693 68.8248 58.7876 68.7479C58.7811 68.7451 58.7781 68.7377 58.7808 68.7311C58.7836 68.7248 58.7909 68.7213 58.7976 68.7244C58.9772 68.8004 59.2225 68.8604 59.5069 68.898C59.5139 68.899 59.5188 68.9055 59.5179 68.9125C59.517 68.9189 59.5116 68.9234 59.5052 68.9234ZM59.5052 68.7736H59.5035C59.2168 68.7357 58.9693 68.675 58.7876 68.598C58.7811 68.5953 58.7781 68.5879 58.7808 68.5813C58.7836 68.575 58.7909 68.5717 58.7976 68.5746C58.9772 68.6506 59.2225 68.7105 59.5069 68.7482C59.5139 68.7492 59.5188 68.7557 59.5179 68.7627C59.517 68.7691 59.5116 68.7736 59.5052 68.7736ZM59.5052 68.6236H59.5035C59.2168 68.5859 58.9693 68.5252 58.7876 68.448C58.7811 68.4453 58.7781 68.4379 58.7809 68.4313C58.7836 68.425 58.7909 68.4217 58.7976 68.4246C58.9772 68.5008 59.2224 68.5607 59.5069 68.5982C59.5139 68.5992 59.5188 68.6057 59.5179 68.6127C59.517 68.6189 59.5116 68.6236 59.5052 68.6236ZM59.5052 68.4738H59.5035C59.2161 68.4357 58.9686 68.375 58.7876 68.2982C58.7811 68.2955 58.7781 68.2881 58.7809 68.2814C58.7836 68.2752 58.7909 68.2717 58.7976 68.2748C58.9765 68.3506 59.2218 68.4107 59.5069 68.4484C59.5139 68.4494 59.5188 68.4559 59.5179 68.4629C59.517 68.4691 59.5116 68.4738 59.5052 68.4738ZM59.5052 68.324H59.5035C59.2168 68.2861 58.9693 68.2254 58.7876 68.1484C58.7811 68.1457 58.7781 68.1383 58.7808 68.1316C58.7836 68.1254 58.7909 68.1217 58.7976 68.125C58.9772 68.201 59.2225 68.2609 59.5069 68.2986C59.5139 68.2996 59.5188 68.3061 59.5179 68.3131C59.517 68.3195 59.5116 68.324 59.5052 68.324ZM59.5052 68.1742H59.5035C59.2168 68.1363 58.9693 68.0756 58.7876 67.9986C58.7811 67.9959 58.7781 67.9885 58.7808 67.9818C58.7836 67.9756 58.7909 67.9721 58.7976 67.9752C58.9772 68.0512 59.2225 68.1111 59.5069 68.1488C59.5139 68.1498 59.5188 68.1563 59.5179 68.1633C59.517 68.1695 59.5116 68.1742 59.5052 68.1742ZM59.5052 68.0242H59.5035C59.2168 67.9865 58.9693 67.9258 58.7876 67.8486C58.7811 67.8459 58.7781 67.8385 58.7809 67.8318C58.7836 67.8256 58.7909 67.8221 58.7976 67.8252C58.9772 67.9014 59.2224 67.9613 59.5069 67.9988C59.5139 67.9998 59.5188 68.0063 59.5179 68.0133C59.517 68.0195 59.5116 68.0242 59.5052 68.0242ZM59.5052 67.8744H59.5035C59.2161 67.8363 58.9686 67.7756 58.7876 67.6988C58.7811 67.6961 58.7781 67.6887 58.7809 67.682C58.7836 67.6758 58.7909 67.6725 58.7976 67.6754C58.9765 67.7512 59.2218 67.8113 59.5069 67.849C59.5139 67.85 59.5188 67.8564 59.5179 67.8635C59.517 67.8697 59.5116 67.8744 59.5052 67.8744Z" fill="black"/>
</g>
<path d="M60.2079 66.4946C60.0021 66.4946 59.7983 66.505 59.6083 66.525C59.4181 66.5448 59.2455 66.5742 59.0999 66.611C58.9545 66.648 58.8391 66.6918 58.7603 66.74C58.6817 66.7882 58.6411 66.8398 58.6411 66.892C58.6419 66.9146 58.6503 66.937 58.6661 66.9592V67.3396C58.6503 67.3618 58.6419 67.3842 58.6411 67.4068C58.6413 67.4302 58.6497 67.4536 58.6661 67.4768V67.5494H58.7459C58.8597 67.6244 59.0601 67.6888 59.3211 67.7344C59.5821 67.7798 59.8913 67.8042 60.2079 67.8042C60.5243 67.804 60.8331 67.7796 61.0937 67.7342C61.3543 67.6888 61.5547 67.6244 61.6683 67.5494H61.7651V67.4492C61.7711 67.4352 61.7743 67.421 61.7745 67.4068C61.7737 67.3942 61.7705 67.3818 61.7651 67.3692V66.9296C61.7705 66.9172 61.7737 66.9046 61.7745 66.892C61.7745 66.8398 61.7341 66.7882 61.6553 66.74C61.5765 66.6918 61.4611 66.648 61.3157 66.611C61.1703 66.5742 60.9975 66.5448 60.8075 66.525C60.6173 66.505 60.4137 66.4946 60.2079 66.4946ZM60.2079 66.7634C60.2405 66.7636 60.2729 66.764 60.3055 66.7646C60.3319 66.765 60.3583 66.7654 60.3847 66.7662C60.4081 66.7668 60.4313 66.7678 60.4543 66.7688C60.4829 66.7698 60.5113 66.7712 60.5395 66.7726C60.5635 66.774 60.5873 66.7756 60.6111 66.7774C60.6369 66.779 60.6627 66.7808 60.6881 66.7828C60.7143 66.7852 60.7405 66.7876 60.7661 66.7902C60.7887 66.7922 60.8109 66.7944 60.8329 66.7968C60.8595 66.7998 60.8859 66.803 60.9119 66.8064C60.9325 66.809 60.9527 66.8116 60.9727 66.8144C60.9993 66.8182 61.0255 66.8224 61.0511 66.8266C61.0691 66.8294 61.0869 66.8324 61.1045 66.8354C61.1271 66.8396 61.1491 66.8438 61.1707 66.8482C61.1851 66.8508 61.1991 66.8536 61.2133 66.8564H61.2109C61.4239 66.9014 61.5859 66.96 61.6805 67.0262C61.5715 67.103 61.3717 67.1696 61.1083 67.2168C60.8447 67.2638 60.5303 67.2892 60.2079 67.2894C59.8857 67.2892 59.5713 67.264 59.3079 67.217C59.0443 67.17 58.8445 67.1034 58.7353 67.0266C58.8267 66.962 58.9823 66.9046 59.1871 66.8598C59.3919 66.815 59.6387 66.7844 59.9039 66.771C59.9551 66.7686 60.0069 66.7666 60.0587 66.7652C60.1083 66.764 60.1581 66.7634 60.2079 66.7634Z" fill="#E23726"/>
<path d="M60.208 67.8169C59.8898 67.8169 59.5824 67.7929 59.319 67.747C59.0573 67.7013 58.858 67.6374 58.7422 67.5622H58.6534V67.4808C58.637 67.4565 58.6286 67.4317 58.6284 67.4071C58.6293 67.3825 58.6377 67.3589 58.6534 67.3356V66.9632C58.6377 66.9399 58.6293 66.9163 58.6284 66.8925C58.6284 66.8349 58.6706 66.78 58.7537 66.7292C58.8336 66.6804 58.9491 66.6364 59.0969 66.5987C59.2459 66.561 59.4176 66.5321 59.6071 66.5124C59.7983 66.4921 60.0006 66.4819 60.208 66.4819C60.4153 66.4819 60.6175 66.4921 60.8089 66.5124C60.9987 66.5321 61.1704 66.561 61.3188 66.5987C61.4667 66.6364 61.5821 66.6804 61.662 66.7292C61.7452 66.7798 61.7872 66.8347 61.7872 66.8921C61.7864 66.9062 61.7833 66.9194 61.7778 66.9323V67.3667C61.7833 67.38 61.7864 67.3929 61.7872 67.4062C61.787 67.422 61.7839 67.4372 61.7778 67.4519V67.5622H61.6722C61.5565 67.6374 61.3573 67.7013 61.096 67.7468C60.8333 67.7925 60.5261 67.8167 60.208 67.8169ZM58.679 67.5368H58.7498L58.753 67.5388C58.8654 67.613 59.0627 67.6763 59.3234 67.722C59.5854 67.7673 59.8912 67.7915 60.208 67.7915C60.5247 67.7913 60.8304 67.7671 61.0917 67.7218C61.3521 67.6763 61.5491 67.613 61.6614 67.5388L61.6646 67.5368H61.7524L61.7534 67.4442C61.7587 67.4317 61.7616 67.4192 61.7618 67.4067C61.761 67.3968 61.7583 67.3858 61.7534 67.3743L61.7524 67.3692L61.7534 66.9243C61.7583 66.9136 61.761 66.9024 61.7618 66.8913C61.7618 66.8448 61.7226 66.796 61.6487 66.7511C61.571 66.7034 61.4579 66.6604 61.3126 66.6233C61.1653 66.5862 60.9948 66.5573 60.8062 66.5378C60.6157 66.5177 60.4144 66.5073 60.208 66.5073C60.0015 66.5073 59.8002 66.5177 59.6098 66.5378C59.4214 66.5573 59.251 66.5862 59.1031 66.6233C58.9579 66.6604 58.8448 66.7034 58.767 66.7511C58.6931 66.7962 58.654 66.845 58.654 66.8921C58.6547 66.9116 58.6621 66.9313 58.6767 66.9519L58.679 66.9552V67.3438L58.6766 67.3472C58.6623 67.3671 58.6547 67.3874 58.654 67.4073C58.6542 67.4274 58.6618 67.4483 58.6767 67.4694L58.679 67.4728V67.5368ZM60.208 67.3022C59.8837 67.3021 59.5718 67.2771 59.3058 67.2296C59.0395 67.1821 58.8396 67.1155 58.728 67.0372L58.7132 67.0267L58.7279 67.0163C58.8205 66.9509 58.9783 66.8925 59.1845 66.8474C59.3898 66.8024 59.6385 66.7718 59.9033 66.7583C59.9547 66.756 60.0065 66.754 60.0585 66.7526C60.1082 66.7513 60.1581 66.7507 60.208 66.7507C60.2406 66.7509 60.2731 66.7513 60.306 66.7521C60.3321 66.7524 60.3587 66.7528 60.3853 66.7536C60.4085 66.7542 60.4317 66.7552 60.455 66.7562C60.4835 66.7571 60.512 66.7585 60.5403 66.7601C60.5644 66.7614 60.5882 66.763 60.6122 66.7647C60.6378 66.7663 60.6638 66.7681 60.6894 66.7702C60.7155 66.7726 60.7419 66.7749 60.7675 66.7776C60.7899 66.7796 60.8124 66.7817 60.8343 66.7841C60.8612 66.7872 60.8876 66.7903 60.9138 66.7938C60.9343 66.7964 60.9546 66.7989 60.9747 66.8019C60.9966 66.805 61.0185 66.8085 61.0401 66.812L61.0532 66.814C61.0663 66.8159 61.0792 66.8183 61.0921 66.8204L61.1138 66.8241C61.1341 66.828 61.1538 66.8317 61.1733 66.8358C61.1876 66.8384 61.2017 66.8411 61.2159 66.844V66.8444C61.4292 66.8897 61.5925 66.9489 61.688 67.0157L61.7028 67.0263L61.688 67.0368C61.5769 67.1149 61.3771 67.1817 61.1106 67.2294C60.8437 67.2769 60.5317 67.3021 60.208 67.3022ZM58.7582 67.0267C58.8694 67.0983 59.0597 67.1599 59.3103 67.2046C59.5748 67.2517 59.8853 67.2767 60.208 67.2769C60.5302 67.2767 60.8407 67.2515 61.1062 67.2044C61.3567 67.1593 61.5468 67.0979 61.6577 67.0263C61.5628 66.9653 61.4081 66.9112 61.2083 66.869L61.2085 66.8687C61.1952 66.8659 61.1821 66.8634 61.1687 66.8608C61.1487 66.8567 61.1292 66.853 61.1089 66.8493L61.0878 66.8456C61.0751 66.8435 61.0622 66.8413 61.0493 66.8394L61.036 66.8372C61.0146 66.8337 60.9929 66.8304 60.971 66.8272C60.9511 66.8243 60.9308 66.8218 60.9104 66.8192C60.8845 66.8157 60.8581 66.8126 60.8313 66.8095C60.8097 66.8071 60.7876 66.805 60.7649 66.803C60.7392 66.8003 60.7132 66.7979 60.687 66.7956C60.6618 66.7935 60.6362 66.7917 60.6104 66.7901C60.5866 66.7884 60.5628 66.7868 60.5388 66.7854C60.5108 66.7839 60.4823 66.7825 60.454 66.7815C60.431 66.7806 60.4077 66.7796 60.3845 66.779C60.3579 66.7782 60.3317 66.7778 60.3054 66.7774C60.2227 66.7753 60.1408 66.7759 60.0592 66.778C60.0073 66.7794 59.9557 66.7813 59.9046 66.7837C59.6411 66.7972 59.3939 66.8278 59.1899 66.8724C58.9983 66.9142 58.8497 66.9673 58.7582 67.0267Z" fill="black"/>
<path d="M60.208 66.7634C59.8856 66.7636 59.5711 66.7888 59.3076 66.836C59.044 66.883 58.8442 66.9496 58.7354 67.0266C58.8445 67.1036 59.0443 67.17 59.308 67.217C59.5714 67.264 59.8857 67.2892 60.208 67.2894C60.5304 67.2892 60.8448 67.264 61.1081 67.2168C61.3718 67.1698 61.5716 67.1032 61.6804 67.0262C61.5713 66.9492 61.3714 66.8828 61.1078 66.8358C60.8443 66.7888 60.5302 66.7636 60.208 66.7634Z" fill="white"/>
<path d="M60.2082 67.3022C59.8839 67.302 59.572 67.277 59.306 67.2295C59.0393 67.1821 58.8395 67.1155 58.7282 67.0371L58.7134 67.0266L58.7281 67.0162C58.8392 66.9377 59.0388 66.8709 59.3056 66.8235C59.5702 66.776 59.8824 66.7508 60.2082 66.7506C60.5335 66.7508 60.8454 66.7758 61.1103 66.8233C61.3772 66.8709 61.5771 66.9375 61.688 67.0158L61.7026 67.0262L61.688 67.0365C61.5771 67.1151 61.3772 67.1819 61.1106 67.2293C60.845 67.2768 60.5331 67.302 60.2082 67.3022ZM58.7584 67.0266C58.8693 67.0983 59.0595 67.1596 59.3104 67.2045C59.575 67.2516 59.8854 67.2766 60.2082 67.2768C60.5315 67.2766 60.8421 67.2514 61.106 67.2043C61.3571 67.1594 61.5472 67.0981 61.6577 67.0262C61.5472 66.9545 61.3569 66.8932 61.1056 66.8483C60.8423 66.8012 60.5319 66.7762 60.2082 66.776C59.8839 66.7762 59.5733 66.8014 59.3101 66.8485C59.0591 66.8934 58.869 66.9547 58.7584 67.0266Z" fill="black"/>
<path d="M60.1737 66.4952C60.1317 66.4952 60.0897 66.4958 60.0479 66.4968V66.7658C60.0897 66.7646 60.1317 66.764 60.1737 66.7636V66.4952ZM61.0321 66.5544V66.8236C61.0753 66.8304 61.1173 66.8378 61.1577 66.8458V66.5764C61.1173 66.5686 61.0753 66.5612 61.0321 66.5544ZM59.2941 66.5696C59.2507 66.5776 59.2087 66.5862 59.1685 66.5952V66.8638C59.2087 66.8548 59.2507 66.8464 59.2941 66.8384V66.5696ZM61.1997 67.199C61.1529 67.2086 61.1039 67.2176 61.0531 67.2258V67.7406C61.1039 67.7322 61.1529 67.7234 61.1997 67.7136V67.199ZM59.7549 67.2718V67.787C59.8031 67.7906 59.8519 67.7938 59.9015 67.7964V67.2812C59.8519 67.2786 59.8031 67.2756 59.7549 67.2718Z" fill="white"/>
<path d="M59.9144 67.8098L59.9009 67.809C59.8512 67.8064 59.8023 67.8033 59.754 67.7996L59.7422 67.7988V67.2578L59.7561 67.259C59.8041 67.2629 59.8527 67.2658 59.9022 67.2686L59.9144 67.2691V67.8098ZM59.7678 67.775C59.8077 67.7781 59.8479 67.7807 59.8888 67.7828V67.2934C59.8479 67.291 59.8077 67.2887 59.7678 67.2855V67.775ZM61.0405 67.7557V67.2148L61.0513 67.2131C61.1011 67.2051 61.1501 67.1961 61.1972 67.1865L61.2124 67.1834V67.7238L61.2024 67.726C61.1606 67.735 61.114 67.7436 61.0554 67.7533L61.0405 67.7557ZM61.0659 67.2367V67.7256C61.1128 67.7176 61.1519 67.7104 61.187 67.7031V67.2146C61.1476 67.2225 61.1071 67.2299 61.0659 67.2367ZM59.1558 66.8797V66.585L59.1657 66.5826C59.207 66.5734 59.2494 66.5648 59.2918 66.557L59.3069 66.5541V66.8488L59.2965 66.8508C59.2504 66.8594 59.2095 66.8676 59.1714 66.8762L59.1558 66.8797ZM59.1813 66.6055V66.8479C59.2123 66.841 59.2453 66.8344 59.2813 66.8277V66.585C59.2478 66.5912 59.2142 66.598 59.1813 66.6055ZM61.1704 66.8613L61.1552 66.8582C61.1149 66.8502 61.0729 66.8428 61.0302 66.8363L61.0194 66.8346V66.5393L61.0341 66.5416C61.0772 66.5484 61.1196 66.5559 61.1601 66.5639L61.1704 66.5658V66.8613ZM61.0448 66.8127C61.079 66.818 61.1124 66.8238 61.145 66.8301V66.5869C61.1124 66.5807 61.079 66.5748 61.0448 66.5693V66.8127ZM60.0352 66.7789V66.4842L60.0477 66.484C60.0896 66.483 60.1316 66.4824 60.1737 66.4824H60.1865V66.7762H60.1738C60.1319 66.7766 60.09 66.7773 60.0483 66.7785L60.0352 66.7789ZM60.0607 66.5092V66.7527C60.094 66.7518 60.1275 66.7512 60.1609 66.7508V66.508C60.1275 66.508 60.094 66.5084 60.0607 66.5092Z" fill="black"/>
<path d="M61.7651 69.8281C61.7071 69.8625 61.6289 69.8949 61.5329 69.9241C61.3923 69.9811 61.1971 70.0283 60.9653 70.0609C60.7337 70.0935 60.4731 70.1107 60.2079 70.1109C59.9441 70.1107 59.6845 70.0937 59.4535 70.0615C59.2223 70.0291 59.0273 69.9825 58.8861 69.9261C58.7967 69.8987 58.7227 69.8689 58.6661 69.8371V70.1613C58.6503 70.1833 58.6419 70.2059 58.6411 70.2283C58.6413 70.2519 58.6497 70.2751 58.6661 70.2983V70.3711H58.7459C58.8597 70.4459 59.0603 70.5105 59.3211 70.5559C59.5821 70.6013 59.8913 70.6257 60.2079 70.6257C60.5241 70.6255 60.8329 70.6011 61.0937 70.5557C61.3543 70.5103 61.5547 70.4459 61.6683 70.3711H61.7651V70.2709C61.7711 70.2567 61.7743 70.2425 61.7745 70.2283C61.7737 70.2159 61.7705 70.2033 61.7651 70.1909V69.8281Z" fill="#E23726"/>
<path d="M60.208 70.6384C59.8895 70.6384 59.582 70.6141 59.319 70.5682C59.0581 70.5229 58.8589 70.4593 58.7422 70.3837H58.6534V70.3022C58.637 70.278 58.6286 70.2532 58.6284 70.2284C58.6293 70.204 58.6377 70.1802 58.6534 70.1571V69.8151L58.6725 69.8259C58.7279 69.8571 58.8011 69.8866 58.8899 69.9137C59.0306 69.97 59.2257 70.0165 59.4554 70.0487C59.6851 70.0807 59.9453 70.0979 60.208 70.0981C60.472 70.0979 60.7333 70.0805 60.9636 70.0481C61.1937 70.0157 61.389 69.9688 61.528 69.9122C61.6239 69.8829 61.7011 69.851 61.7587 69.8171L61.7778 69.8055V70.1882C61.7833 70.201 61.7864 70.2141 61.7872 70.2274C61.787 70.2434 61.7839 70.2587 61.7778 70.2733V70.3837H61.6722C61.5562 70.4589 61.3569 70.5227 61.096 70.5682C60.8331 70.6139 60.5259 70.6382 60.208 70.6384ZM58.679 70.3583H58.7498L58.753 70.3602C58.8663 70.4348 59.0635 70.4979 59.3233 70.5432C59.585 70.5887 59.8908 70.613 60.208 70.613C60.5245 70.6128 60.8302 70.5885 61.0917 70.5432C61.3517 70.4977 61.5487 70.4344 61.6614 70.3602L61.6646 70.3583H61.7524L61.7534 70.2657C61.7587 70.2532 61.7616 70.2405 61.7618 70.228C61.761 70.218 61.7583 70.2069 61.7534 70.1962L61.7524 70.1909V69.8499C61.6956 69.8809 61.6231 69.9098 61.5366 69.9364C61.3966 69.9932 61.1993 70.0409 60.9671 70.0735C60.7356 70.1061 60.4731 70.1233 60.208 70.1235C59.9441 70.1233 59.6827 70.1063 59.4519 70.0741C59.2202 70.0417 59.0229 69.9944 58.8814 69.938C58.8015 69.9135 58.7333 69.8868 58.679 69.8585V70.1653L58.6766 70.1686C58.6623 70.1885 58.6547 70.2089 58.654 70.2286C58.6542 70.2491 58.6616 70.2696 58.6767 70.2909L58.679 70.2942V70.3583Z" fill="black"/>
<path d="M58.6973 67.5861V68.0315L59.2581 70.0285C59.3003 70.0367 59.3443 70.0443 59.3895 70.0515L58.6973 67.5861Z" fill="#E23726"/>
<path d="M59.4072 70.0673L59.3875 70.0642C59.3385 70.0562 59.2953 70.0487 59.2558 70.0409L59.248 70.0396L59.2459 70.0319L58.6846 68.0315V67.586L58.7097 67.5825L59.4072 70.0673ZM59.2684 70.0173C59.3001 70.0235 59.3342 70.0294 59.3719 70.0356L58.7102 67.6788V68.0298L59.2684 70.0173Z" fill="black"/>
<path d="M59.7606 67.7874L59.2656 70.0298C59.304 70.0372 59.3436 70.044 59.3844 70.0504L59.8828 67.7952C59.8416 67.793 59.8008 67.7904 59.7606 67.7874ZM61.1558 67.7222C61.1138 67.7304 61.0702 67.738 61.0252 67.7448L60.419 70.1066C60.4612 70.1052 60.5032 70.1034 60.5448 70.1012L61.1558 67.7222Z" fill="#E23726"/>
<path d="M60.4022 70.1201L60.4065 70.1035L61.0146 67.7334L61.0229 67.7321C61.0663 67.7256 61.1101 67.718 61.153 67.7096L61.1729 67.7057L61.1679 67.7252L60.5546 70.1135L60.5452 70.1139C60.5036 70.116 60.4616 70.1178 60.4192 70.1194L60.4022 70.1201ZM61.0353 67.7561L60.4354 70.0932C60.4687 70.092 60.5017 70.0906 60.5347 70.0889L61.1382 67.7385C61.104 67.7449 61.0694 67.7508 61.0353 67.7561ZM59.394 70.0649L59.3822 70.0631C59.3412 70.0567 59.3016 70.0496 59.2629 70.0422L59.25 70.0399L59.2528 70.027L59.7503 67.7737L59.7613 67.7746C59.8015 67.7778 59.8422 67.7803 59.8833 67.7824L59.8983 67.7832L59.8951 67.7979L59.394 70.0649ZM59.2807 70.0196C59.3111 70.0254 59.3423 70.0307 59.3743 70.036L59.8669 67.8071C59.8345 67.8053 59.8022 67.8033 59.7704 67.801L59.2807 70.0196Z" fill="black"/>
<path d="M59.7588 67.7872L60.3778 70.1082C60.4192 70.107 60.4606 70.1052 60.5014 70.1032L59.8862 67.7956C59.8432 67.7932 59.8008 67.7904 59.7588 67.7872Z" fill="#E23726"/>
<path d="M60.368 70.1214L60.3654 70.1116L59.7417 67.7729L59.7597 67.7745C59.8016 67.7778 59.8438 67.7806 59.8868 67.7829L59.8961 67.7833L59.8984 67.7923L60.5178 70.1151L60.502 70.1159C60.4611 70.1179 60.4195 70.1198 60.3781 70.121L60.368 70.1214ZM59.7757 67.8013L60.3875 70.0952C60.4201 70.0942 60.4527 70.0927 60.485 70.0911L59.8762 67.8079C59.8423 67.806 59.8089 67.8038 59.7757 67.8013Z" fill="black"/>
<path d="M61.1893 67.7156C61.1511 67.7236 61.1113 67.731 61.0703 67.7378L61.6769 69.8268L61.7529 69.8056V69.6572L61.1893 67.7156Z" fill="#E23726"/>
<path d="M61.6683 69.8425L61.0542 67.7274L61.0685 67.7251C61.1085 67.7187 61.1483 67.7112 61.1868 67.7032L61.1983 67.7007L61.2017 67.7122L61.7657 69.6573V69.8155L61.6683 69.8425ZM61.0866 67.7481L61.6858 69.8112L61.7403 69.796V69.6591L61.1804 67.7306C61.1497 67.737 61.1185 67.7427 61.0866 67.7481Z" fill="black"/>
<path d="M61.7634 69.829C61.7258 69.8508 61.68 69.872 61.6266 69.892V70.3948C61.6416 70.387 61.6554 70.379 61.6684 70.371H61.7634V69.829ZM59.2432 70.0256V70.5406C59.2872 70.5494 59.3328 70.5574 59.3802 70.565V70.0498C59.3328 70.0424 59.2872 70.0342 59.2432 70.0256ZM60.5158 70.1026C60.4706 70.105 60.4248 70.1068 60.379 70.1082V70.623C60.4248 70.6216 60.4706 70.62 60.5158 70.6178V70.1026Z" fill="white"/>
<path d="M60.3678 70.6361L60.3664 70.623V70.0957L60.3787 70.0955C60.4244 70.0941 60.4701 70.0922 60.5152 70.0898L60.5285 70.0891V70.6299L60.5164 70.6305C60.4717 70.6326 60.4264 70.6342 60.3811 70.6357L60.3678 70.6361ZM60.3918 70.1205V70.6098C60.4297 70.6086 60.4666 70.6072 60.5031 70.6057V70.116C60.4662 70.1178 60.4291 70.1193 60.3918 70.1205ZM59.3931 70.5801L59.3782 70.5777C59.3272 70.5695 59.2822 70.5615 59.2407 70.5531L59.2305 70.5512V70.0102L59.2457 70.0131C59.2937 70.0225 59.3384 70.0303 59.3822 70.0371L59.3931 70.0389V70.5801ZM59.2561 70.5301C59.2902 70.5369 59.327 70.5434 59.3675 70.55V70.0607C59.3314 70.0549 59.2947 70.0484 59.2561 70.041V70.5301ZM61.6141 70.4158V69.8832L61.6223 69.8801C61.6748 69.8602 61.7201 69.8393 61.757 69.8178L61.7762 69.8066V70.3836H61.6721C61.6598 70.3912 61.6467 70.3986 61.6326 70.4061L61.6141 70.4158ZM61.6395 69.9008V70.3732C61.6473 70.3688 61.6547 70.3645 61.6619 70.36L61.665 70.3582H61.7508V69.8506C61.7186 69.868 61.6813 69.8848 61.6395 69.9008Z" fill="black"/>
<path d="M60.6701 53.8133H60.4002V53.7621H60.6701V53.8133ZM60.6635 53.6631H60.3937V53.6119H60.6635V53.6631ZM60.6566 53.5131H60.3869V53.4619H60.6566V53.5131ZM60.65 53.3629H60.3803V53.3117H60.65V53.3629ZM60.6434 53.2126H60.3734V53.1614H60.6434V53.2126ZM60.6367 53.0626H60.3668V53.0114H60.6367V53.0626ZM60.6299 52.9124H60.3602V52.8612H60.6299V52.9124ZM60.6232 52.7624H60.3533V52.7112H60.6232V52.7624ZM60.6164 52.6122H60.3467V52.561H60.6164V52.6122ZM60.61 52.4622H60.3398V52.411H60.61V52.4622ZM60.6031 52.312H60.3332V52.2608H60.6031V52.312ZM60.5965 52.1618H60.3266V52.1106H60.5965V52.1618ZM60.5896 52.0118H60.3199V51.9606H60.5896V52.0118ZM60.583 51.8616H60.3131V51.8104H60.583V51.8616ZM60.5764 51.7116H60.3064V51.6604H60.5764V51.7116ZM60.5697 51.5614H60.2996V51.5102H60.5697V51.5614ZM60.5629 51.4114H60.2932V51.3602H60.5629V51.4114ZM60.5563 51.2612H60.2863V51.21H60.5563V51.2612ZM60.5494 51.111H60.2797V51.0598H60.5494V51.111ZM60.543 50.961H60.2729V50.9098H60.543V50.961ZM60.5361 50.8108H60.2662V50.7596H60.5361V50.8108ZM60.5293 50.6608H60.2596V50.6096H60.5293V50.6608ZM60.5227 50.5106H60.2529V50.4594H60.5227V50.5106ZM60.5158 50.3606H60.2461V50.3094H60.5158V50.3606Z" fill="black"/>
<path d="M59.7426 49.0888C57.189 48.7602 56.3818 49.003 56.2644 49.0458C56.147 49.0888 54.5032 49.5316 53.8574 50.5888C53.2118 51.646 53.7108 52.046 53.7108 52.046C53.5934 51.8032 54.019 50.903 54.019 50.903C53.8134 51.2746 54.0776 51.9032 54.0776 51.9032C53.9896 51.7174 54.1804 51.1602 54.1804 51.1602L54.3272 51.6032C54.3272 51.346 54.4592 50.7316 54.4592 50.7316C54.4738 51.5316 54.6354 51.6746 54.6354 51.6746C54.4886 51.4746 54.738 50.246 54.738 50.246C54.5912 50.9746 54.8262 51.1316 54.8262 51.1316C54.8262 50.2744 55.2518 49.8316 55.2518 49.8316C54.7968 50.3316 55.1196 51.0602 55.1196 51.0602C55.1636 50.2174 55.824 49.5458 55.824 49.5458C55.2076 50.1888 55.5746 50.6174 55.5746 50.6174C55.5892 50.0744 56.5432 49.2888 56.5432 49.2888C56.1322 49.6744 56.147 50.1458 56.147 50.1458C56.3084 49.8458 56.9248 49.2602 56.9248 49.2602C56.778 49.4602 56.646 49.9888 56.646 49.9888L56.8368 49.8744L57.365 49.2458L57.0422 49.7316L57.365 49.5888L57.732 49.2602L57.5706 49.4744L57.8348 49.403L58.0988 49.103L57.9374 49.3172H58.319L58.4804 49.1602L58.407 49.3316L58.686 49.3458L58.774 49.1888L58.7592 49.3458H58.8914L59.0088 49.1172L58.9648 49.3458C58.9648 49.3458 59.273 49.3458 59.3316 49.4172C59.3904 49.4888 57.4532 50.003 57.4532 50.003C57.4532 50.003 57.8788 50.003 57.908 50.1174C57.9374 50.2316 56.9394 50.3888 56.9394 50.3888L57.4238 50.5888L56.4552 50.7174L57.1596 50.803L55.9414 51.0888H57.0568L55.8828 51.3174L56.6312 51.4174L55.648 51.5602L56.5872 51.646L55.5746 52.0602L56.1176 51.9746C55.0462 52.9746 55.4278 53.689 55.4278 53.689C55.5012 53.3746 55.9856 52.646 55.9856 52.646C55.8682 53.5746 56.1322 53.9032 56.1322 53.9032C56.1616 53.646 56.4992 52.3318 56.4992 52.3318C56.5578 52.6318 56.5872 53.4888 56.5872 53.4888C56.8368 53.2888 56.734 52.2888 56.734 52.2888L57.1302 52.6602C56.9394 52.346 56.9834 51.6174 56.9834 51.6174C57.1008 51.746 57.2476 52.246 57.2476 52.246C57.2624 52.1316 57.3798 51.2888 57.3798 51.2888C57.3798 51.5888 57.6146 52.1746 57.6146 52.1746L57.7026 51.1746C57.7174 51.4174 57.9962 51.9032 57.9962 51.9032V50.8174L58.187 51.303L58.2162 50.546L58.3044 51.4316L58.4658 51.246L58.3336 51.2316L58.3924 51.203L58.5538 50.3316L58.8034 50.7316L58.8914 50.4744L58.8326 50.0602C58.9208 50.0888 59.0528 50.346 59.0528 50.346V49.8174L59.2876 49.9174L59.6398 49.4172L59.4198 49.8174L59.7572 49.6174L59.361 49.9174L59.6106 50.0174L59.0528 50.0744V50.2174L59.5518 50.2602C58.8474 50.3744 58.8326 50.5744 58.8326 50.5744L59.5078 50.546C58.9794 50.5316 58.5978 50.903 58.5978 50.903L59.405 50.8744C58.6566 50.9316 58.3484 51.2174 58.3484 51.2174L59.2876 51.2746C58.818 51.2316 58.3044 51.7316 58.3044 51.7316L58.9208 51.746C58.3484 51.8032 58.2162 52.1174 58.2162 52.1174L58.7152 52.1316C58.2016 52.4174 58.1722 52.9032 58.1722 52.9032L58.7446 52.4602C58.143 52.9746 58.3484 53.4032 58.3484 53.4032L58.7152 52.9888C58.2016 53.4746 58.319 53.8174 58.319 53.8174L58.7006 53.4174C58.5098 54.6318 58.774 54.6604 58.774 54.6604L58.862 53.4318C59.185 53.5888 59.3904 54.3032 59.3904 54.3032L59.1116 53.1746C59.4198 53.3888 59.5078 53.8318 59.5078 53.8318C59.6252 53.3174 59.1408 52.646 59.1408 52.646L59.7426 53.3888L59.2876 52.2602L59.816 53.0318C59.8306 52.3032 59.405 51.846 59.405 51.846L60.0508 52.3888C60.0214 52.1602 59.6838 51.5602 59.6838 51.5602C59.816 51.6602 60.0654 51.9602 60.0654 51.9602C59.9774 51.6032 59.6106 51.1888 59.6106 51.1888C59.7866 51.2316 60.0802 51.5888 60.0802 51.5888C60.0802 51.3888 59.8746 50.646 59.8746 50.646L60.0948 51.103L60.0068 50.3602L60.1976 50.646L60.1536 50.1316L60.2856 50.1602L60.3736 49.5458L60.3296 50.1744L60.1828 50.1174L60.227 50.6174L60.6818 50.1316L60.4176 51.003L60.8726 50.5888L60.5058 51.346L61.0342 50.746L60.6378 51.7316L61.0634 51.3746L60.6672 52.0888C60.8874 52.0888 61.3276 51.6174 61.3276 51.6174C61.1074 51.746 60.7846 52.5318 60.7846 52.5318C61.0634 52.5318 61.2542 52.046 61.2542 52.046L60.7992 52.8602C61.0782 52.7746 61.3864 52.2602 61.3864 52.2602C61.445 52.546 60.902 53.4746 60.902 53.4746C61.0782 53.4746 61.357 53.246 61.357 53.246C61.357 53.246 61.401 53.0604 61.2102 53.4032C61.0194 53.746 60.5792 54.1604 60.5792 54.1604C60.9608 54.1746 61.3276 53.6746 61.3276 53.6746C61.3864 53.9032 60.8726 54.8032 60.8726 54.8032C61.2396 54.7746 61.5478 53.7746 61.5478 53.7746C61.6652 53.9032 61.7386 55.0604 61.7678 54.9176C61.7972 54.7746 61.7826 53.346 61.7826 53.346C61.856 53.446 62.156 54.1 62.156 54.1C62.1778 53.7806 61.8278 52.5456 61.8278 52.5456L62.2434 53.291L61.7404 51.8642L62.3528 52.5882L61.5872 51.1404L61.981 51.7152C61.8498 50.7358 61.1936 50.7358 61.1936 50.7358C61.981 50.6292 62.0466 51.5874 62.0466 51.5874C62.2216 51.5448 62.1998 51.0552 62.1998 51.0552L62.2434 51.2894L62.3748 52.0984L62.4622 51.3958V52.2688C62.4622 52.354 62.7248 51.7578 62.7248 51.7578C62.7904 51.8642 62.7904 52.5882 62.7904 52.5882L63.009 52.0134C63.1404 52.354 63.0528 52.929 63.0528 52.929C63.2716 52.929 63.3372 52.4178 63.3372 52.4178L63.5996 53.1632L63.5778 52.6096C63.556 52.056 62.7904 50.97 62.5934 50.8634C62.3966 50.757 61.631 50.5228 61.631 50.5228C61.7186 50.4164 61.5436 49.884 61.5436 49.884L62.1122 50.608C62.2434 50.3524 61.981 49.9266 61.981 49.9266C62.156 50.1182 62.659 50.821 62.659 50.821C62.7248 50.5654 62.5278 49.9904 62.5278 49.9904C62.681 50.1396 63.2278 51.0126 63.2278 51.0126C63.206 50.9274 62.8998 50.0544 62.8998 50.0544C63.2716 50.3738 63.6434 51.3958 63.6434 51.3958C63.7528 51.0552 63.4904 50.1608 63.4904 50.1608L64.1246 51.63C64.1902 51.332 64.081 50.7358 64.081 50.7358C64.2778 50.906 64.6058 51.6726 64.6058 51.6726C64.5622 51.2254 64.4308 50.6718 64.4308 50.6718L64.9996 51.694L64.8902 51.0126L65.2402 51.7578L65.0652 51.0978L65.5464 51.7578L65.1528 51.0552L65.7214 51.6088C65.7214 51.6088 64.8902 50.608 64.7152 50.459C64.5402 50.3098 62.9872 49.7562 62.6372 49.586C62.2872 49.4156 60.756 49.5008 60.756 49.5008L61.2154 49.4794L61.128 49.2878L61.2154 49.4582H61.5216L61.3466 49.2878L61.4778 49.4794H62.0028L61.6528 49.1814C61.8278 49.2666 62.0028 49.4582 62.0028 49.4582L62.2654 49.4794L62.0904 49.1174L62.3528 49.522L62.7904 49.6072C62.7248 49.4156 62.4622 49.1174 62.4622 49.1174C62.6372 49.2878 62.856 49.6284 62.856 49.6284L63.2278 49.7562C63.2278 49.5646 62.9216 49.1388 62.9216 49.1388C63.184 49.3516 63.4028 49.7988 63.4028 49.7988C63.4246 49.6284 63.2716 49.1174 63.2716 49.1174C63.4466 49.224 63.731 49.884 63.731 49.884C63.7528 49.6924 63.709 49.1174 63.6654 49.1388C63.7966 49.2878 64.081 50.0544 64.081 50.0544V49.309C64.1684 49.309 64.409 50.1182 64.409 50.1182C64.5402 49.8202 64.3872 49.2026 64.3872 49.2026C64.4966 49.4156 64.7372 50.097 64.7372 50.097L64.7808 49.7988L64.8464 50.3524L64.9122 49.884L65.109 50.395C65.0872 50.097 64.8464 49.2878 64.8464 49.2878C65.0214 49.4582 65.4808 50.459 65.4808 50.459V50.097L65.612 50.6718C65.809 50.097 65.3934 49.4582 65.3934 49.4582C65.6996 49.884 65.809 50.4376 65.809 50.4376L65.9402 50.1396C66.0714 50.3524 66.0714 50.906 66.0714 50.906C66.2464 50.3098 65.8964 49.7776 65.8964 49.7776C66.2684 50.0544 66.487 51.1828 66.487 51.1828L66.5526 50.3098C66.662 50.5228 66.8696 51.1862 66.8696 51.1862C66.9196 50.8168 66.7598 50.1946 66.55 49.9222C66.3402 49.65 66.1706 49.3682 64.8522 49.096C63.5338 48.8236 60.3478 49.057 60.3478 49.057L60.8572 48.95C61.1868 48.6974 61.9458 48.9112 61.9458 48.9112L62.1356 48.921C62.1356 48.921 62.1056 48.707 62.0956 48.6292C62.0856 48.5514 62.4552 48.882 62.4552 48.882L62.585 48.8918V48.5222L63.1244 48.921L63.324 48.95L62.9746 48.4932C63.1742 48.6778 63.7736 48.9112 63.7736 48.9112C63.7336 48.746 63.2842 48.396 63.2842 48.396C63.434 48.396 64.0532 48.9404 64.0532 48.9404L63.6836 48.5222L64.5726 48.9306C64.5126 48.8236 64.213 48.5222 64.213 48.5222C64.5626 48.8334 65.2816 49.0182 65.2816 49.0182L64.4326 48.357L65.4914 49.164C65.3216 48.6584 64.8022 48.2112 64.8022 48.2112C65.062 48.25 66.0506 49.2028 66.0506 49.2028C66.0506 48.8236 65.6812 48.3764 65.6812 48.3764C65.9408 48.464 66.6 49.339 66.6 49.339C66.63 49.1056 66.2504 48.4932 66.2504 48.4932C66.4502 48.5904 66.9894 49.3486 66.9894 49.3486C67.1094 48.9112 66.6 48.5222 66.6 48.5222L67.6224 49.069C67.0894 48.2906 66.0132 48.031 65.8848 47.983C65.7564 47.935 64.8088 47.935 63.9892 47.9638C63.1698 47.9926 62.1234 48.454 62.074 48.4636C62.0246 48.4732 61.1854 48.723 61.1854 48.723L60.9584 48.6366L61.2446 48.7038L61.6396 48.5982L61.2446 48.3578L61.758 48.55L62.0246 48.454L61.6396 48.233L62.0542 48.4156L62.6664 48.1944L61.9654 47.935L63.0712 47.9446L62.232 47.6562L63.5944 47.8774C63.4758 47.7332 63.0908 47.6082 63.0908 47.6082C63.3672 47.6082 63.9992 47.7524 63.9992 47.7524C63.8806 47.6178 63.3376 47.3776 63.3376 47.3776C63.6338 47.4352 64.4236 47.666 64.4236 47.666L63.8412 47.2718C63.9202 47.3008 64.404 47.4834 64.404 47.4834C64.3052 47.3104 63.9892 47.1662 63.9892 47.1662C64.1176 47.1662 65.0654 47.6178 65.0654 47.6178C64.858 47.291 64.404 46.8298 64.404 46.8298L64.9864 47.1854L64.6508 46.8106L65.5196 47.2046C65.2234 46.801 64.5618 46.5704 64.3644 46.5414C64.167 46.5126 62.775 46.6664 61.679 47.4256C60.5832 48.1848 60.4548 48.8864 60.4548 48.8864C60.4548 48.8864 59.3316 46.5172 57.365 46.3744C57.365 46.3744 57.6732 46.66 58.275 46.7886C58.275 46.7886 57.6146 46.9314 57.4532 47.16C57.4532 47.16 58.187 47.103 58.6566 47.2314C58.6566 47.2314 57.8788 47.3886 57.7614 47.5886C57.7614 47.5886 58.5978 47.503 59.0382 47.5744C59.0382 47.5744 58.2896 47.6744 58.2604 47.8458C58.2604 47.8458 59.4198 47.8458 59.4638 48.06C59.4638 48.06 58.6712 48.0316 58.4658 48.1602C58.4658 48.1602 59.5078 48.303 59.7132 48.4458L59.0674 48.5458C59.0674 48.5458 59.904 48.7172 60.0068 48.9458C60.0068 48.9458 58.1576 48.1602 56.646 48.003C55.1342 47.8458 54.6794 48.2316 54.4152 48.4458C54.151 48.6602 53.5492 49.2172 53.652 49.6744C53.652 49.6744 53.9748 49.0602 54.7528 48.5744L54.0482 49.403L54.8408 48.7744C54.8408 48.7744 54.3564 49.4172 54.3564 49.6316C54.3564 49.6316 55.105 48.4458 55.4278 48.2316C55.4278 48.2316 54.8848 48.903 54.8994 49.1602C54.8994 49.1602 55.9414 48.1602 56.0442 48.1744C56.0442 48.1744 55.2518 48.8744 55.2664 49.3316C55.2664 49.3316 56.1764 48.3886 56.4552 48.303C56.4552 48.303 55.7654 48.6886 55.8974 49.0172L56.646 48.3458L56.191 49.0602L56.4112 48.9888C56.4112 48.9888 56.734 48.3886 57.189 48.403L56.5872 48.9602L56.8954 48.9316C56.8954 48.9316 57.2476 48.503 57.6732 48.3602C57.6732 48.3602 57.0568 48.8458 57.0276 48.9316L57.2184 48.9458C57.2184 48.9458 57.5852 48.5744 57.864 48.503L57.5998 48.9172H57.732L58.0842 48.5886L57.8348 48.903L58.1576 48.9316L58.3924 48.7316L58.2016 48.9602H58.4364L58.5832 48.8458L58.5686 48.9888L58.95 49.003L59.0528 48.803L59.0382 48.9744L59.7426 49.0888Z" fill="#1E9A1C"/>
<path d="M61.7624 54.9554C61.7618 54.9554 61.7615 54.9553 61.7611 54.9553C61.73 54.9542 61.7275 54.954 61.6851 54.61C61.6552 54.3671 61.6077 53.9818 61.5536 53.8388C61.481 54.055 61.2064 54.8029 60.8743 54.8287L60.8263 54.8324L60.8501 54.7905C60.9784 54.5658 61.2839 53.984 61.3056 53.7436C61.1988 53.8727 60.907 54.1863 60.5952 54.1863C60.5896 54.1863 60.5839 54.1862 60.5781 54.186L60.5171 54.1837L60.5615 54.1418C60.5659 54.1377 60.9954 53.7315 61.1841 53.3973C61.0941 53.4509 60.9878 53.5003 60.9019 53.5003H60.8574L60.8798 53.4618C60.8847 53.4533 61.3347 52.6801 61.3638 52.3431C61.2675 52.4889 61.0312 52.8158 60.8064 52.8846L60.7456 52.9033L60.9792 52.4854C60.921 52.5289 60.8558 52.5574 60.7845 52.5574H60.7464L60.7609 52.5221C60.7697 52.5008 60.9093 52.1626 61.0681 51.8966C60.9329 52.0088 60.7765 52.1144 60.6669 52.1144H60.6236L60.974 51.483L60.654 51.7512L60.614 51.722L60.9548 50.8749L60.5247 51.363L60.4825 51.3349L60.7917 50.6969L60.3659 51.0844L60.6253 50.2292L60.2064 50.6767L60.204 50.6505L60.1761 50.6602L60.0446 50.4631L60.12 51.1L60.0716 51.1141L59.9677 50.8985C60.0279 51.1341 60.1056 51.4629 60.1056 51.5888V51.6602L60.0603 51.6051C60.0579 51.6022 59.8654 51.3692 59.7046 51.2624C59.8179 51.4051 60.0254 51.6921 60.09 51.9541L60.0455 51.9765C60.0437 51.9743 59.9022 51.8046 59.7779 51.68C59.8795 51.8713 60.0546 52.2194 60.076 52.3856L60.0843 52.4506L59.5512 52.0025C59.6776 52.2021 59.8508 52.5632 59.8414 53.0323L59.8398 53.1121L59.3988 52.468L59.7661 53.3793L59.7226 53.405L59.3466 52.9409C59.4715 53.1858 59.6016 53.5352 59.5325 53.8375L59.4825 53.8368C59.4818 53.8328 59.4043 53.4575 59.1539 53.2402L59.415 54.297L59.3656 54.3102C59.3636 54.3035 59.1744 53.6556 58.8845 53.4736L58.7975 54.6886L58.7711 54.6858C58.7653 54.6852 58.7344 54.6799 58.7011 54.6363C58.6213 54.5321 58.5519 54.2488 58.6629 53.4937L58.3082 53.8655L58.2946 53.8258C58.2914 53.8166 58.246 53.6748 58.3423 53.4484L58.3417 53.449L58.3251 53.4142C58.3178 53.3991 58.1791 53.0953 58.4856 52.6929L58.1431 52.9579L58.1465 52.9016C58.1468 52.8969 58.1792 52.4477 58.6273 52.1547L58.1781 52.142L58.1925 52.1076C58.1972 52.0963 58.2962 51.8717 58.6724 51.7658L58.2428 51.7557L58.2864 51.7133C58.3033 51.6969 58.6235 51.3887 58.9921 51.2823L58.4944 51.2519L58.2847 51.493L58.2604 51.2494L58.2426 51.2474L58.2594 51.2392L58.2273 50.9172L58.2124 51.304L58.163 51.3124L58.0216 50.9524V51.9991L57.9739 51.9159C57.9647 51.8999 57.7904 51.5947 57.7128 51.3471L57.6399 52.1769L57.5907 52.1842C57.5829 52.1648 57.4351 51.7938 57.3772 51.4923C57.3414 51.7492 57.2828 52.1714 57.2728 52.2494L57.2229 52.2533C57.2216 52.2489 57.1092 51.8685 57.0059 51.6935C57.0009 51.8859 57.0028 52.4015 57.1519 52.6469L57.1125 52.6789L56.7653 52.3533C56.7836 52.5844 56.8246 53.3312 56.6031 53.5088L56.5632 53.5407L56.5615 53.4897C56.5613 53.4822 56.538 52.8173 56.4929 52.4595C56.4088 52.791 56.1811 53.6997 56.1574 53.9061L56.1504 53.967L56.112 53.9192C56.1014 53.906 55.8628 53.5976 55.9478 52.751C55.8167 52.9557 55.5088 53.4538 55.4526 53.6948L55.4371 53.761L55.4051 53.701C55.3895 53.6718 55.0403 52.9846 56.0405 52.0127L55.5784 52.0855L55.5648 52.0366L56.4806 51.662L55.6454 51.5857L55.6441 51.5349L56.4458 51.4185L55.8792 51.3427L55.8778 51.2924L56.7915 51.1144H55.9412L55.9354 51.0639L57.0133 50.811L56.4519 50.7428L56.4517 50.6922L57.3256 50.576L56.8453 50.3777L56.9352 50.3635C57.375 50.2943 57.8624 50.182 57.883 50.1213C57.8663 50.0582 57.6215 50.0286 57.4531 50.0286L57.4465 49.9783C58.1055 49.8034 59.1547 49.5068 59.2965 49.4211C59.2373 49.3852 59.068 49.3715 58.9646 49.3715H58.9336L58.9497 49.288L58.9069 49.3715H58.7309L58.737 49.3067L58.7003 49.3722L58.3688 49.3552L58.4063 49.2677L58.3291 49.3428H57.9216L57.8487 49.4257L57.5052 49.5185L57.554 49.4537L57.3751 49.6122L56.9723 49.7904L57.0919 49.6103L56.8498 49.8963L56.6061 50.0425L56.621 49.9827C56.6253 49.9653 56.7079 49.6377 56.8159 49.4024C56.6273 49.5903 56.2823 49.948 56.1694 50.158L56.1242 50.2418L56.1212 50.1467C56.1207 50.1314 56.1148 49.8474 56.3046 49.5395C56.0236 49.8115 55.6093 50.27 55.6 50.6181L55.5982 50.6845L55.555 50.6341C55.5524 50.631 55.3737 50.4147 55.4715 50.0654C55.3155 50.3302 55.165 50.6792 55.145 51.0616L55.0961 51.0706C55.0938 51.0654 54.9396 50.7089 54.9971 50.3219C54.9175 50.5272 54.8516 50.798 54.8516 51.1316V51.1795L54.8118 51.1529C54.805 51.1483 54.6955 51.0709 54.6696 50.7969C54.6174 51.1629 54.5835 51.561 54.6558 51.6595L54.6182 51.6938C54.6119 51.6883 54.4783 51.5626 54.4416 50.9483C54.4033 51.1503 54.3526 51.4463 54.3526 51.6032L54.3028 51.6112L54.1807 51.243C54.1354 51.3921 54.045 51.7253 54.0928 51.8727C54.0977 51.8854 54.1007 51.8927 54.1009 51.8933L54.0542 51.9141C54.0514 51.9081 54.0488 51.9016 54.0464 51.8949C54.0154 51.8159 53.9014 51.5038 53.9157 51.2059C53.7951 51.5071 53.6676 51.8983 53.7336 52.0349L53.6946 52.066C53.6735 52.0491 53.1856 51.6397 53.8355 50.5756C54.2185 49.9484 55.0457 49.4074 56.1669 49.0502L56.5242 48.4893L55.887 49.0606L55.8735 49.0268C55.8344 48.9296 55.8601 48.8292 55.9179 48.7349C55.605 49.0181 55.29 49.3438 55.2846 49.3494L55.2426 49.3929L55.2407 49.3324C55.2307 49.0197 55.5766 48.6068 55.8132 48.3621C55.5885 48.5493 55.2376 48.871 54.9169 49.1787L54.8769 49.2172L54.8738 49.1617C54.8646 49.001 55.0559 48.696 55.2122 48.4754C54.8609 48.8823 54.3837 49.6358 54.3778 49.6453L54.3306 49.72V49.6316C54.3306 49.4754 54.5666 49.1155 54.7112 48.9097L54.0639 49.423L54.0285 49.3864L54.6167 48.6947C53.9602 49.1524 53.6774 49.6806 53.6744 49.6863L53.6421 49.7478L53.6269 49.68C53.5161 49.1876 54.1898 48.5957 54.3989 48.426L54.4083 48.4183C54.6835 48.195 55.1446 47.8207 56.6485 47.9776C57.4662 48.0627 58.3895 48.3341 59.0622 48.5642L59.0633 48.5206L59.6327 48.4324C59.3363 48.3064 58.4717 48.1869 58.4621 48.1855L58.3923 48.176L58.4521 48.1385C58.6353 48.0238 59.2457 48.0298 59.4193 48.0332C59.2987 47.916 58.6655 47.8715 58.2602 47.8715H58.2299L58.235 47.8416C58.2575 47.7089 58.6085 47.6226 58.8445 47.5794C58.3968 47.5503 57.7711 47.6134 57.7639 47.614L57.7137 47.6192L57.7392 47.5758C57.8345 47.4133 58.32 47.2828 58.5417 47.2306C58.0845 47.1384 57.4617 47.185 57.455 47.1855L57.4008 47.1897L57.4322 47.1453C57.5591 46.9654 57.9693 46.8401 58.1648 46.789C57.632 46.6525 57.3594 46.4043 57.3474 46.3931L57.294 46.3436L57.3666 46.3489C59.1478 46.4783 60.2527 48.4417 60.447 48.8147C60.5072 48.6201 60.7544 48.0349 61.6642 47.4047C62.7771 46.6337 64.1691 46.4881 64.3679 46.5162C64.5915 46.549 65.2464 46.7894 65.5402 47.1895L65.598 47.2683L64.7507 46.8841L65.0052 47.1683L64.973 47.2072L64.5554 46.9523C64.707 47.1155 64.9505 47.3895 65.0868 47.6042L65.1343 47.6791L65.0542 47.6409C64.7995 47.5196 64.4466 47.3585 64.2154 47.2659C64.2974 47.3219 64.3816 47.393 64.4261 47.4708L64.4613 47.5325L64.3949 47.5074C64.3949 47.5074 64.1966 47.4326 64.0333 47.3712L64.4376 47.6448L64.4161 47.6905C64.4099 47.6887 63.9148 47.5442 63.565 47.4563C63.7324 47.5388 63.9466 47.6543 64.0181 47.7355L64.0704 47.795L63.9933 47.7773C63.988 47.7761 63.5636 47.6799 63.2628 47.6457C63.3853 47.6969 63.5429 47.7749 63.614 47.8612L63.6572 47.9135L62.5238 47.7296L63.0794 47.9204L63.0708 47.9702L62.1113 47.9619L62.7406 48.1947C63.1115 48.0746 63.5773 47.9527 63.988 47.9383C64.8193 47.9093 65.7591 47.9089 65.8937 47.9592C65.9068 47.964 65.9302 47.9713 65.962 47.981C66.7577 48.2261 67.3234 48.5873 67.6433 49.0546L67.6101 49.0916L66.7626 48.6384C66.9072 48.7927 67.0945 49.061 67.0138 49.3553L66.9995 49.4073L66.9683 49.3635C66.9638 49.3569 66.5695 48.804 66.3372 48.59C66.4456 48.7795 66.6484 49.1621 66.6251 49.3423L66.6171 49.4046L66.5792 49.3545C66.5736 49.3468 66.0669 48.6765 65.7763 48.4604C65.8863 48.6155 66.0761 48.924 66.0761 49.2028V49.263L66.0327 49.2213C65.746 48.9448 65.206 48.4551 64.9247 48.2908C65.0872 48.451 65.3909 48.7854 65.5154 49.1559L65.5419 49.2348L65.2792 49.0345L65.2749 49.043C65.2509 49.0368 64.7794 48.9139 64.4167 48.6991C64.4917 48.781 64.5669 48.8686 64.5947 48.9181L64.6331 48.9866L63.7827 48.596L64.0722 48.9235L64.0363 48.9596C63.865 48.8092 63.6175 48.6076 63.4484 48.4989C63.5855 48.618 63.7718 48.7961 63.7982 48.9052L63.8097 48.9528L63.7642 48.935C63.7441 48.9272 63.3542 48.7746 63.1019 48.6179L63.3511 48.9437C63.9296 48.9554 64.4736 48.9918 64.8572 49.0711C66.1327 49.3344 66.3425 49.6089 66.5452 49.8744L66.57 49.9066C66.7839 50.1843 66.9449 50.8197 66.8949 51.1896L66.845 51.1938C66.8433 51.188 66.682 50.6738 66.5706 50.4105L66.5124 51.1848L66.4618 51.1878C66.4599 51.1779 66.2892 50.3111 66.0015 49.9238C66.0939 50.1296 66.2146 50.5085 66.0958 50.9133L66.0456 50.906C66.0456 50.901 66.0443 50.4278 65.9419 50.1985L65.7993 50.5222L65.7837 50.4427C65.7829 50.4393 65.7431 50.2423 65.6472 49.9954C65.6984 50.2029 65.7163 50.4456 65.6361 50.6802L65.607 50.7651L65.5062 50.3238V50.4591L65.4574 50.4697C65.4534 50.4611 65.1095 49.7137 64.9081 49.4095C64.9771 49.651 65.1177 50.1649 65.1343 50.3931L65.0849 50.4042L64.9236 49.9853L64.8716 50.3559L64.8208 50.3554L64.7781 49.9937L64.7624 50.1008L64.713 50.1055C64.7111 50.1004 64.57 49.7015 64.456 49.4218C64.489 49.6316 64.5156 49.9391 64.4322 50.1286L64.404 50.1923L64.3843 50.1256C64.2904 49.8094 64.1712 49.4741 64.1064 49.3677V50.0545L64.0568 50.0634C64.0546 50.0572 63.8718 49.5661 63.7345 49.2997C63.7597 49.4967 63.7669 49.7936 63.7562 49.887L63.7452 49.9823L63.7074 49.8942C63.7048 49.8885 63.4857 49.3825 63.3202 49.195C63.3628 49.3491 63.4449 49.6695 63.4281 49.802L63.4185 49.8766C63.4314 49.8817 63.4443 49.8867 63.4572 49.8918C64.0298 50.1151 64.6218 50.3461 64.7316 50.4396C64.9062 50.5884 65.707 51.5516 65.7409 51.5926L65.7034 51.6272L65.2611 51.1965L65.5685 51.7454L65.5255 51.7729L65.1245 51.223L65.2648 51.7513L65.2169 51.7687L64.9439 51.1878L65.0245 51.69L64.9771 51.7064L64.4935 50.8376C64.5361 51.0376 64.6027 51.378 64.631 51.6702L64.5822 51.6827C64.5792 51.6758 64.3115 51.0529 64.1199 50.8148C64.1474 50.9908 64.2011 51.3999 64.1493 51.6355L64.1324 51.713L63.596 50.4707C63.6632 50.7647 63.737 51.1877 63.6677 51.4037L63.6449 51.4748L63.6193 51.4047C63.6158 51.3952 63.2962 50.5235 62.9601 50.1502C63.0423 50.3853 63.2349 50.938 63.2525 51.0063L63.206 51.0262C63.2013 51.0187 62.7962 50.373 62.59 50.1039C62.6445 50.2888 62.7322 50.6381 62.6835 50.8274L62.6699 50.8805L62.638 50.8359C62.6339 50.8303 62.3169 50.3877 62.1009 50.1124C62.1613 50.2623 62.2132 50.4671 62.1347 50.6198L62.1177 50.6528C62.314 50.7192 62.5159 50.7926 62.6054 50.841C62.8243 50.9594 63.5812 52.0508 63.6033 52.6087L63.6249 53.1623L63.5753 53.1718L63.3454 52.5185C63.313 52.6727 63.2296 52.9547 63.0527 52.9547H63.023L63.0275 52.9253C63.0283 52.9199 63.1017 52.4241 63.0072 52.0897L62.814 52.5973L62.7646 52.5883C62.7646 52.3434 62.7527 51.9778 62.7212 51.8284C62.5068 52.3111 62.4818 52.3065 62.4597 52.3021C62.4542 52.301 62.4365 52.2952 62.4365 52.2688V51.808L62.3999 52.1015L62.3493 52.1025L62.2171 51.2885C62.2011 51.4299 62.1591 51.5863 62.0525 51.6123L62.023 51.6195L62.0208 51.5892C62.0206 51.5845 61.9851 51.1176 61.6993 50.8847C61.6138 50.815 61.5138 50.7729 61.4007 50.7587C61.612 50.8431 61.9208 51.0752 62.0062 51.7118L61.9597 51.7297L61.8187 51.5239L62.3753 52.5763L62.3331 52.6048L61.8107 51.9871L62.2673 53.2825L62.221 53.3034L61.9085 52.743C62.007 53.1093 62.198 53.8581 62.1814 54.1018L62.1325 54.1107C62.13 54.1052 61.9173 53.642 61.8087 53.4407C61.8115 53.765 61.8181 54.799 61.7927 54.9228C61.7872 54.9495 61.7736 54.9554 61.7624 54.9554ZM61.3388 53.6161L61.3523 53.6683C61.4054 53.8751 61.0298 54.5728 60.9222 54.7668C61.2458 54.6553 61.5202 53.7765 61.5232 53.7672L61.5363 53.7245L61.5665 53.7574C61.6363 53.8338 61.6845 54.1859 61.7359 54.6038C61.7417 54.6512 61.7476 54.6994 61.7533 54.743C61.7665 54.328 61.757 53.3582 61.7568 53.3464L61.756 53.267L61.8029 53.3309C61.8587 53.4067 62.0359 53.7815 62.1259 53.9747C62.0839 53.5469 61.8062 52.5636 61.8031 52.5526L61.8499 52.5333L62.1193 53.016L61.7161 51.8727L61.7597 51.8477L62.2197 52.3915L61.5644 51.1523L61.6081 51.126L61.9374 51.6067C61.7798 50.7735 61.2183 50.7615 61.1935 50.7614L61.19 50.7105C61.4054 50.6812 61.5867 50.7269 61.7318 50.8453C61.9904 51.056 62.0542 51.4314 62.0683 51.5497C62.1689 51.4785 62.1794 51.1764 62.174 51.0564L62.2247 51.0506L62.2685 51.2847L62.3712 51.9183L62.4367 51.3927L62.4876 51.3959V52.2003C62.5368 52.1089 62.6243 51.922 62.7011 51.7476L62.7208 51.7031L62.7462 51.7445C62.7978 51.828 62.8111 52.2323 62.8146 52.4521L63.0085 51.942L63.0325 52.0043C63.1482 52.3037 63.0993 52.7698 63.0825 52.8993C63.2236 52.8593 63.2952 52.5419 63.3117 52.4146L63.3611 52.4094L63.5671 52.9948L63.5521 52.6106C63.5302 52.0548 62.7613 50.9835 62.5812 50.8859C62.3888 50.7819 61.631 50.5496 61.6234 50.5472L61.5867 50.5361L61.5956 50.5253L60.8919 49.8817L60.9263 49.844L61.6234 50.4813C61.6534 50.376 61.5792 50.0746 61.5193 49.8921L61.5636 49.8682L62.1054 50.5582C62.1872 50.3153 61.9615 49.944 61.9591 49.94L61.9997 49.9094C62.1486 50.0724 62.5253 50.5919 62.6439 50.7565C62.6702 50.4903 62.5052 50.004 62.5034 49.9987L62.5454 49.9721C62.6581 50.0818 62.9718 50.5634 63.1402 50.8267C63.045 50.5468 62.8777 50.0694 62.8753 50.063L62.8439 49.9729L62.9161 50.035C63.2316 50.3058 63.54 51.0562 63.6368 51.3062C63.688 50.9327 63.4681 50.1762 63.4656 50.168L63.5136 50.1507L64.1128 51.5387C64.1447 51.2326 64.0566 50.7458 64.0556 50.7404L64.0425 50.669L64.0976 50.7165C64.2433 50.8426 64.4534 51.2746 64.5609 51.5092C64.5072 51.1076 64.407 50.6826 64.4058 50.6777L64.4529 50.6594L64.9511 51.5548L64.8648 51.0167L64.913 51.0018L65.1427 51.4905L65.0402 51.1044L65.0857 51.0828L65.315 51.3973L65.1304 51.0677L65.1704 51.0369L65.3724 51.2335C65.1199 50.9358 64.7984 50.5635 64.6984 50.4785C64.5952 50.3906 63.954 50.1404 63.4386 49.9394C63.0917 49.8041 62.764 49.6761 62.6259 49.609C62.6156 49.604 62.6042 49.5992 62.5919 49.5946L62.337 49.5451L62.3341 49.5405C61.9011 49.4864 61.1937 49.5077 60.8962 49.5199L60.757 49.5263L60.7544 49.4754C60.7665 49.4747 60.8327 49.4711 60.9339 49.467L61.1763 49.4557L61.1046 49.2985L61.1505 49.2762L61.2308 49.4327H61.4146L61.3253 49.3023L61.3642 49.2695L61.5533 49.4536C61.5849 49.454 61.62 49.4537 61.654 49.4539H61.9331L61.6361 49.2009L61.6638 49.1585C61.8236 49.2362 61.9798 49.3967 62.0146 49.4336L62.2228 49.4504L62.0671 49.1286L62.1117 49.1036L62.3644 49.4931C62.4607 49.5062 62.5433 49.5232 62.6048 49.5451L62.7492 49.5731C62.6663 49.3893 62.4452 49.1371 62.4429 49.1344L62.4798 49.0991C62.6427 49.2577 62.8384 49.5549 62.8724 49.6071L63.1988 49.7192C63.1656 49.5239 62.9034 49.1577 62.9007 49.1538L62.9374 49.119C63.129 49.2744 63.2952 49.5472 63.3751 49.6919C63.3531 49.4813 63.2482 49.129 63.247 49.1248L63.2279 49.061L63.2847 49.0956C63.4245 49.1807 63.6238 49.5876 63.7109 49.7772C63.7138 49.5748 63.6861 49.2556 63.6609 49.1745C63.6558 49.1674 63.6507 49.1611 63.646 49.1557L63.624 49.1306L63.6675 49.1093L63.6859 49.1186C63.6917 49.1228 63.6974 49.1319 63.7027 49.1451C63.8058 49.2879 63.9724 49.7016 64.0552 49.9154V49.2835H64.0808C64.1661 49.2835 64.3156 49.7237 64.4103 50.0346C64.4892 49.7295 64.3636 49.2143 64.3622 49.2088L64.4097 49.1909C64.495 49.3568 64.6558 49.7953 64.7265 49.9918L64.7552 49.7951L64.806 49.7958L64.8484 50.1534L64.9005 49.7828L65.046 50.1611C64.9734 49.8066 64.8236 49.3015 64.8218 49.2952L64.7937 49.201L64.864 49.2695C65.0081 49.4099 65.3314 50.0806 65.455 50.3436V50.097L65.5056 50.0914L65.6146 50.5685C65.7339 50.0383 65.3757 49.4781 65.3718 49.4722L65.414 49.4433C65.6531 49.7759 65.7742 50.1896 65.8163 50.3571L65.9363 50.0848L65.9617 50.1262C66.0423 50.2569 66.0749 50.5056 66.088 50.6874C66.1374 50.1993 65.8779 49.7963 65.8749 49.7917L65.9115 49.7571C66.2021 49.9733 66.3968 50.6769 66.4745 51.0064L66.5337 50.2175L66.5751 50.2981C66.656 50.4552 66.7868 50.8465 66.8531 51.0508C66.8566 50.6875 66.7132 50.1762 66.5294 49.9379L66.5046 49.9054C66.3075 49.6474 66.1038 49.3805 64.847 49.1211C63.547 48.8527 60.3812 49.0802 60.3495 49.0825L60.3423 49.032L60.846 48.9262C61.1843 48.6742 61.9212 48.8778 61.9525 48.8866L62.1058 48.894C62.0972 48.832 62.0777 48.6922 62.07 48.6325C62.0669 48.6085 62.0824 48.5983 62.0872 48.5958C62.1023 48.5883 62.1423 48.5686 62.4656 48.8572L62.5593 48.8643V48.4716L63.1341 48.8967L63.2654 48.9158L62.954 48.5088L62.9917 48.4745C63.1493 48.6203 63.5702 48.8007 63.7247 48.864C63.6408 48.7239 63.3763 48.5004 63.2685 48.4162L63.2097 48.3705H63.2841C63.3763 48.3705 63.6148 48.546 63.8062 48.6998L63.6642 48.5391L63.6941 48.499L64.4954 48.8672C64.3913 48.7384 64.1972 48.5427 64.1947 48.5403L64.2298 48.5031C64.4829 48.7285 64.9396 48.8885 65.1609 48.9567L64.4167 48.3772L64.4478 48.3367L65.4361 49.0898C65.2456 48.6306 64.7902 48.2347 64.7855 48.2305L64.7183 48.1728L64.8058 48.1859C65.0408 48.2211 65.8199 48.9484 66.0216 49.1398C65.9851 48.7886 65.6648 48.3969 65.6613 48.3927L65.6042 48.3235L65.6892 48.3522C65.9146 48.4283 66.414 49.0563 66.572 49.2608C66.5339 49.0021 66.2318 48.5122 66.2284 48.5067L66.1818 48.4316L66.2613 48.4703C66.4374 48.5559 66.8536 49.1178 66.9763 49.2868C67.0361 48.893 66.589 48.5462 66.5843 48.5426L66.6118 48.4997L67.5355 48.9936C67.2128 48.5794 66.6792 48.2554 65.947 48.03C65.9138 48.0197 65.8894 48.0122 65.8757 48.007C65.7531 47.9613 64.8011 47.9606 63.99 47.9894C63.3015 48.0135 62.4519 48.345 62.1728 48.454C62.1103 48.4784 62.088 48.4869 62.0786 48.4887C62.0583 48.4927 61.8857 48.5427 61.6913 48.5999L61.7038 48.6075L61.3036 48.7145C61.2615 48.727 61.2236 48.7383 61.1925 48.7475L61.1843 48.75L60.949 48.6605L60.964 48.6117L61.2441 48.6775L61.2898 48.6653C61.3622 48.6437 61.462 48.6142 61.5661 48.5835L61.2312 48.3798L61.2534 48.334L61.7579 48.5228L61.9638 48.4487L61.6267 48.2552L61.6497 48.2096L62.055 48.3881L62.5917 48.1941L61.9564 47.959L61.9654 47.9094L62.914 47.9177L62.2234 47.6804L62.2359 47.631L63.5154 47.8387C63.3663 47.7256 63.0859 47.6337 63.0827 47.6326L63.0906 47.5827C63.3027 47.5827 63.7132 47.6647 63.9038 47.7053C63.7183 47.5748 63.3316 47.403 63.3271 47.401L63.3423 47.3525C63.5558 47.3941 64.0296 47.5266 64.2755 47.5969L63.8267 47.293L63.8497 47.2478C63.9083 47.2693 64.1894 47.3753 64.331 47.4287C64.2077 47.2952 63.981 47.1908 63.9784 47.1895L63.989 47.1407C64.1007 47.1407 64.7486 47.4404 64.9923 47.5552C64.7734 47.2427 64.3898 46.852 64.3857 46.8478L64.4171 46.8081L64.8513 47.0731L64.6316 46.8277L64.6611 46.7874L65.4302 47.1361C65.1038 46.7766 64.512 46.589 64.3605 46.5668C64.1878 46.5418 62.7892 46.6876 61.6935 47.4467C60.6187 48.1912 60.481 48.8841 60.4798 48.891L60.4656 48.969L60.4316 48.8973C60.4204 48.8741 59.3248 46.6079 57.4473 46.4075C57.5664 46.4949 57.8475 46.6712 58.2802 46.7636V46.8136C58.2742 46.8149 57.7139 46.938 57.5125 47.1307C57.6995 47.1206 58.2738 47.1002 58.6631 47.2068L58.6615 47.2565C58.4686 47.2955 57.981 47.4187 57.8219 47.5573C58.0259 47.5391 58.6738 47.4892 59.0421 47.5492L59.0414 47.5997C58.7845 47.6341 58.3846 47.7211 58.3006 47.8205C58.5651 47.8222 59.4454 47.8442 59.4886 48.0549L59.4951 48.0868L59.4627 48.0856C59.4554 48.0853 58.8312 48.064 58.559 48.1478C58.8187 48.1863 59.5534 48.3037 59.7276 48.4249L59.78 48.4614L59.2034 48.5507C59.4465 48.61 59.9478 48.7526 60.0299 48.9354L60.0567 48.9949L59.9966 48.9694C59.9782 48.9616 58.1335 48.1835 56.6432 48.0284C55.1592 47.8741 54.7095 48.2397 54.4406 48.458L54.4311 48.4657C54.2379 48.6225 53.6366 49.1489 53.6666 49.5988C53.773 49.4279 54.11 48.9456 54.7391 48.5527L54.7721 48.591L54.2363 49.2211L54.8247 48.7544L54.8611 48.7898C54.8573 48.7949 54.5493 49.2051 54.4291 49.4711C54.6416 49.145 55.1552 48.3817 55.4135 48.2103L55.4476 48.2477C55.4426 48.2538 54.9906 48.8153 54.931 49.0945C55.2188 48.8196 55.9325 48.1489 56.0443 48.1489C56.0454 48.1489 56.0464 48.1489 56.0475 48.1491L56.1027 48.1567L56.0609 48.1935C56.0534 48.2002 55.3509 48.8257 55.2951 49.2653C55.4876 49.0689 56.1994 48.3548 56.4475 48.2786L56.4675 48.3253C56.4611 48.3289 55.85 48.6747 55.91 48.9715L56.6287 48.3268L56.6674 48.3596L56.2506 49.0139L56.3936 48.9677C56.4374 48.8896 56.7417 48.3772 57.1725 48.3772C57.1782 48.3772 57.1839 48.3773 57.1896 48.3774L57.2519 48.3794L56.6597 48.9278L56.8824 48.9071C56.9352 48.8448 57.2648 48.4702 57.6649 48.336L57.6888 48.3803C57.4374 48.5783 57.1659 48.8068 57.0791 48.9024C57.1275 48.9001 57.1784 48.8981 57.2319 48.8967C57.3281 48.8044 57.62 48.539 57.8575 48.4782L57.9201 48.4622L57.6462 48.8917H57.7217L58.0665 48.57L58.104 48.6046L57.8841 48.8817L58.1491 48.9052L58.3756 48.7122L58.4118 48.748L58.2691 48.919C58.3226 48.9222 58.3776 48.9259 58.4337 48.9298L58.6146 48.7889L58.5989 48.9422C58.707 48.9508 58.8197 48.9607 58.937 48.9719L59.0299 48.7913L59.0782 48.8052L59.0655 48.953L59.7465 49.0636L59.7392 49.1142C59.4613 49.0784 59.2043 49.0494 58.9666 49.0261L58.9652 49.0292L58.5402 49.0134L58.5427 48.9889C58.5114 48.9865 58.4804 48.9843 58.4498 48.982L58.445 48.9858H58.1468L58.165 48.9639C57.8004 48.9442 57.5001 48.9408 57.2538 48.9467C57.2429 48.9572 57.2368 48.9634 57.2364 48.9638L57.2281 48.9722L57.0156 48.9563C56.5479 48.9833 56.3367 49.0466 56.273 49.0699C56.2636 49.0733 56.2447 49.0793 56.2174 49.0878C55.0902 49.4413 54.2597 49.9791 53.879 50.6021C53.403 51.3818 53.5614 51.798 53.6657 51.9536C53.6545 51.682 53.8742 51.1616 53.9615 50.9669C53.9712 50.9406 53.9828 50.9151 53.9964 50.8906L54.0419 50.9139C54.0323 50.9344 54.0215 50.9577 54.0099 50.9836C53.9264 51.2057 53.979 51.4964 54.0325 51.6886C54.0526 51.4567 54.1503 51.1686 54.156 51.1519L54.1806 51.0802L54.3091 51.468C54.3367 51.1809 54.4294 50.7476 54.434 50.7262L54.4846 50.7311C54.491 51.0869 54.5271 51.311 54.5641 51.4493C54.552 51.05 54.6924 50.3415 54.7127 50.2412L54.7629 50.2511C54.6615 50.7545 54.7458 50.9782 54.8013 51.0642C54.816 50.5087 55.0099 50.131 55.1328 49.9459C55.159 49.904 55.1895 49.863 55.2246 49.8234C55.2298 49.8175 55.2328 49.8142 55.2331 49.8139L55.2705 49.8488C55.267 49.8526 55.2636 49.8564 55.2603 49.8603C55.2457 49.8771 55.216 49.9133 55.1791 49.9682C54.9553 50.3202 55.0436 50.7452 55.1041 50.9413C55.1693 50.3981 55.4751 49.935 55.6608 49.6978C55.7002 49.6449 55.7462 49.5904 55.7995 49.5344C55.8032 49.5304 55.8053 49.5283 55.8056 49.5279L55.8423 49.5635C55.8401 49.5659 55.8379 49.5682 55.8357 49.5705C55.8179 49.5894 55.7647 49.6474 55.6952 49.7367C55.3986 50.1374 55.4921 50.4257 55.556 50.5431C55.6433 50.0022 56.4892 49.3001 56.5268 49.2691L56.5605 49.3075C56.2756 49.5747 56.1996 49.8872 56.1795 50.0442C56.3912 49.7332 56.8841 49.2635 56.9071 49.2417L56.9452 49.2754C56.8322 49.4295 56.726 49.7908 56.6867 49.9345L56.8199 49.8547L57.3452 49.2295L57.3861 49.26L57.1118 49.6728L57.3507 49.5671L57.7147 49.2412L57.7522 49.2756L57.6357 49.4302L57.8205 49.3803L58.0793 49.0861L58.119 49.1183L57.9885 49.2917H58.3084L58.4623 49.1419L58.5037 49.1703L58.4448 49.308L58.6712 49.3195L58.7516 49.1763L58.7993 49.1913L58.7871 49.3203H58.8756L58.9859 49.1055L59.0337 49.1221L58.9954 49.3207C59.0847 49.3225 59.2962 49.3342 59.3511 49.401L59.36 49.4118L59.3567 49.4306C59.3301 49.5132 58.3206 49.797 57.6189 49.9852C57.7511 49.9976 57.9118 50.0296 57.9326 50.1111C57.935 50.1203 57.9356 50.1346 57.925 50.1508C57.8593 50.2508 57.2825 50.3575 57.0322 50.3996L57.5215 50.6016L56.6577 50.7163L57.1625 50.7776L57.1653 50.8279L56.162 51.0633H57.0566L57.0615 51.1139L56.0405 51.3128L56.6344 51.3922L56.6347 51.4427L55.8655 51.5545L56.5894 51.6206L56.5967 51.6697L55.7872 52.0009L56.1958 51.9364L56.1349 51.9933C55.2786 52.7926 55.3646 53.4099 55.4246 53.609C55.5417 53.2692 55.9456 52.6596 55.9641 52.6319L56.0108 52.6493C55.923 53.3433 56.0518 53.6997 56.1175 53.8291C56.1816 53.4663 56.4615 52.3753 56.4742 52.3255L56.5242 52.3269C56.574 52.582 56.6024 53.2232 56.6103 53.4263C56.7956 53.165 56.7093 52.3008 56.7084 52.2915L56.7014 52.2234L57.0508 52.551C56.9242 52.2028 56.9561 51.6426 56.9577 51.6159L56.9614 51.5555L57.0021 51.6003C57.0882 51.6946 57.1866 51.9719 57.2375 52.1285C57.2733 51.867 57.3534 51.2923 57.3543 51.2853L57.4052 51.2888C57.4052 51.5053 57.5323 51.8802 57.5987 52.0613L57.6769 51.1724L57.7279 51.1731C57.7385 51.3463 57.8909 51.6533 57.9704 51.8032V50.8175L58.0199 50.8081L58.166 51.1801L58.1905 50.5451L58.2414 50.5435L58.3084 51.2154L58.3177 51.2108L58.3308 51.1987C58.3333 51.1964 58.3471 51.1839 58.3733 51.1647L58.5405 50.2623L58.7965 50.6724L58.8211 50.6005L58.8048 50.6011L58.807 50.5725C58.8076 50.5636 58.8133 50.5275 58.8623 50.48L58.8651 50.4719L58.8014 50.0233L58.8404 50.0359C58.903 50.0562 58.9785 50.1666 59.0271 50.2478V49.7788L59.2784 49.8858L59.6187 49.4025L59.6619 49.4296L59.4871 49.7477L59.744 49.5955L59.7724 49.6379L59.4122 49.9105L59.6199 49.9937L59.613 50.0428L59.0783 50.0974V50.194L59.5537 50.2347L59.5557 50.2854C59.1451 50.352 58.9756 50.447 58.906 50.5103L58.8937 50.5463L59.3501 50.5271C59.4012 50.5215 59.4543 50.519 59.5083 50.5205L59.5087 50.5717L59.3574 50.578C59.1358 50.6026 58.9479 50.6908 58.8165 50.7717L58.81 50.7908L58.8033 50.78C58.7467 50.8156 58.7014 50.8493 58.6696 50.8749L59.4039 50.8488L59.4068 50.8999C58.8487 50.9426 58.5367 51.1153 58.4197 51.1953L58.4195 51.1962L59.2501 51.2468C59.2634 51.2472 59.2766 51.248 59.2898 51.2492L59.2859 51.3002L59.2485 51.2979C58.8856 51.2877 58.5003 51.5931 58.3689 51.7076L58.9212 51.7205L58.9232 51.7715C58.487 51.815 58.313 52.0126 58.2595 52.0931L58.8087 52.1087L58.7274 52.154C58.3379 52.3707 58.2335 52.7075 58.2066 52.8441L58.7288 52.44L58.7611 52.4797C58.2781 52.8927 58.3245 53.241 58.3575 53.3541L58.4666 53.2308C58.5245 53.1499 58.5998 53.0626 58.6974 52.9703L58.7341 53.0057L58.5104 53.2586C58.3374 53.5009 58.3278 53.6826 58.3351 53.7633L58.7384 53.3407L58.7257 53.4215C58.5834 54.3265 58.6958 54.5585 58.7514 54.6164L58.8391 53.3923L58.873 53.4089C59.0382 53.4891 59.1718 53.7046 59.2651 53.9032L59.0703 53.115L59.126 53.1537C59.3405 53.3026 59.4501 53.5546 59.4992 53.7046C59.5241 53.2276 59.1243 52.6672 59.12 52.661L59.1605 52.63L59.655 53.2403L59.2637 52.2698L59.3085 52.2458L59.7901 52.9489C59.7725 52.2872 59.3901 51.8678 59.3861 51.8635L59.4212 51.8265L60.0099 52.3212C59.9376 52.0655 59.6644 51.5782 59.6614 51.5727L59.6991 51.5398C59.7849 51.6048 59.9163 51.7491 60.0016 51.8466C59.8778 51.5318 59.5945 51.2094 59.5912 51.2057L59.5372 51.1448L59.6164 51.164C59.7549 51.1976 59.955 51.4075 60.0485 51.5129C60.0148 51.2509 59.8517 50.6595 59.8498 50.6529L59.8975 50.6349L60.0513 50.9541L59.9812 50.3633L60.0279 50.3461L60.1635 50.5492L60.125 50.0993L60.156 50.106L60.1535 50.0788L60.2652 50.122L60.348 49.5423L60.399 49.5476L60.3525 50.2107L60.28 50.1852L60.213 50.1707L60.2472 50.5582L60.6628 50.1141L60.706 50.139L60.4687 50.9217L60.8552 50.5699L60.8954 50.6L60.6103 51.1885L61.015 50.7292L61.0577 50.7556L60.6995 51.6464L61.0468 51.3551L61.0855 51.3871L60.7142 52.0564C60.8456 52.0215 61.04 51.8604 61.1792 51.7292C61.2259 51.668 61.2718 51.6203 61.3146 51.5954L61.3462 51.6349C61.3402 51.6414 61.2888 51.6961 61.2144 51.7664C61.0531 51.9818 60.8783 52.3773 60.8245 52.5025C60.923 52.4844 61.0091 52.4018 61.0765 52.3112L61.2318 52.0336L61.2779 52.0554C61.2736 52.0664 61.2159 52.2104 61.1183 52.3414L60.8575 52.8077C61.1056 52.6751 61.3615 52.2517 61.3644 52.247L61.3982 52.1907L61.4113 52.2551C61.4644 52.5143 61.057 53.2542 60.949 53.444C61.0439 53.425 61.1587 53.3562 61.2394 53.301C61.3193 53.168 61.3417 53.1635 61.3648 53.1724C61.3868 53.181 61.3923 53.207 61.3816 53.252L61.3796 53.2603L61.373 53.2658C61.3689 53.2692 61.3318 53.2994 61.2775 53.3371C61.2646 53.359 61.2495 53.3848 61.2324 53.4156C61.0773 53.6943 60.7656 54.0137 60.645 54.1322C60.9853 54.0924 61.3034 53.6641 61.3068 53.6595L61.3388 53.6161ZM58.3123 51.2551L58.3238 51.3702L58.4143 51.2662L58.3123 51.2551ZM58.5668 50.401L58.4326 51.1249C58.5309 51.0637 58.7031 50.9774 58.9635 50.9156L58.5323 50.9309L58.5797 50.8846C58.5865 50.8782 58.6569 50.8107 58.7756 50.7356L58.5668 50.401ZM58.8759 50.5981L58.8426 50.6956C58.9097 50.6577 58.9881 50.6203 59.0759 50.5897L58.8759 50.5981ZM61.6675 50.5074C61.7384 50.5293 61.923 50.587 62.1136 50.6514L61.6072 50.0064C61.6497 50.1591 61.7052 50.3999 61.6675 50.5074ZM58.8658 50.1135L58.912 50.4393C58.9903 50.3845 59.1265 50.322 59.3638 50.2698L59.0783 50.2453V50.3461L59.0299 50.3578C58.9912 50.2824 58.9215 50.1679 58.8658 50.1135ZM59.0783 49.8561V50.0461L59.5045 50.0026L59.3128 49.9258L59.2964 49.9491L59.0783 49.8561ZM59.3954 49.8085L59.319 49.9171L59.3809 49.8702L59.3522 49.8872L59.3954 49.8085ZM62.8839 49.6651C63.0302 49.725 63.2161 49.7977 63.4109 49.8736L63.3796 49.81C63.3781 49.8067 63.257 49.5614 63.0898 49.351C63.1702 49.4866 63.2533 49.652 63.2533 49.7562V49.7921L62.8839 49.6651ZM62.8216 49.6393C62.8265 49.6414 62.8314 49.6434 62.8365 49.6456L62.8343 49.6422C62.8339 49.6418 62.8302 49.6359 62.8236 49.6258L62.8286 49.6407L62.8216 49.6393ZM62.2962 49.4847C62.2968 49.4848 62.2974 49.4849 62.2982 49.485L62.2906 49.4734L62.2962 49.4847ZM61.3396 48.8526C61.1644 48.8526 60.9892 48.8809 60.8726 48.9704L60.8622 48.9751L60.7017 49.0088C61.0357 48.9892 61.5714 48.9621 62.164 48.9481L61.9443 48.9367C61.9361 48.9348 61.6378 48.8526 61.3396 48.8526ZM58.9918 48.9773C58.9986 48.978 59.0051 48.9786 59.0119 48.9793L59.0161 48.9299L58.9918 48.9773ZM57.1208 48.4311C56.7779 48.4679 56.5191 48.8583 56.4511 48.9708C56.4828 48.9645 56.5186 48.9581 56.5584 48.9518L57.1208 48.4311ZM62.1242 48.6515C62.1363 48.7424 62.1609 48.9175 62.1609 48.9176L62.1652 48.9481C62.4704 48.941 62.7913 48.9374 63.107 48.9402L62.6105 48.5729V48.9194L62.4445 48.9068L62.438 48.901C62.3212 48.7966 62.1814 48.6832 62.1242 48.6515ZM58.5098 48.9353C58.5225 48.9363 58.5351 48.9373 58.5479 48.9383L58.5515 48.9028L58.5098 48.9353ZM57.5075 48.4597C57.2436 48.599 57.0279 48.8217 56.9481 48.9099C56.969 48.9086 56.9905 48.9072 57.0124 48.9059C57.0681 48.8222 57.3301 48.6034 57.5075 48.4597ZM57.7903 48.8976C57.7955 48.8977 57.8006 48.8979 57.8059 48.898L57.8517 48.8404L57.7903 48.8976ZM57.8036 48.5498C57.6214 48.6225 57.4155 48.7972 57.3088 48.8949C57.3945 48.8932 57.4861 48.8927 57.5843 48.8938L57.8036 48.5498ZM59.114 48.5821C59.4883 48.7114 59.779 48.8257 59.921 48.8831C59.754 48.7476 59.3334 48.6312 59.114 48.5821ZM61.4888 48.4767L61.6324 48.564C61.6492 48.5591 61.6659 48.5541 61.6825 48.5492L61.4888 48.4767ZM62.145 48.4098L62.0599 48.4406C62.064 48.4396 62.0669 48.4389 62.0689 48.4385C62.0751 48.4371 62.107 48.4248 62.145 48.4098Z" fill="black"/>
<path d="M58.0924 49.1032L57.8284 49.403L57.799 49.411V49.446C57.799 49.446 56.7716 49.8174 56.0086 50.4602C55.2454 51.1032 54.7758 51.8174 54.6878 52.1604C54.5998 52.5032 54.585 53.4604 54.585 53.4604C54.585 53.4604 54.7318 52.6604 54.8198 52.546C54.8198 52.546 54.8198 53.0462 54.8932 53.1604C54.8932 53.1604 54.952 52.289 54.9812 52.1604C55.0106 52.0318 55.0106 52.8746 55.172 52.9462C55.172 52.9462 55.128 52.046 55.2454 51.7604C55.2454 51.7604 55.2014 52.246 55.2896 52.3746C55.2896 52.3746 55.4216 51.246 55.7298 50.946C55.7298 50.946 55.3628 51.5318 55.5976 52.3604L55.6684 52.0446L55.5684 52.0604L55.6746 52.017L55.7738 51.5746L55.9208 51.9162L55.9802 51.8918L56.0172 51.5946L55.6418 51.5604L56.0914 51.495L56.0964 51.3468L55.8764 51.3174L56.0988 51.2742L56.1048 51.089H55.9352L56.1062 51.0488L56.1112 50.889L56.1304 51.0432L56.3714 50.9866L56.4048 50.8318L56.4378 50.971L56.4574 50.9664L56.4978 50.7234L56.4488 50.7174L56.5 50.7106L56.5368 50.4888L56.5658 50.702L56.6796 50.6868L56.7424 50.3746L56.8158 50.6602C56.8158 50.6602 57.0066 50.046 57.1532 49.9746L57.1648 50.3484C57.1878 50.3442 57.2086 50.3404 57.2334 50.3358L57.5496 49.8032L57.5438 49.977C57.5732 49.9692 57.6084 49.9594 57.668 49.9434L57.799 49.646L57.887 49.8746L58.0338 49.7032L58.1032 49.8234C58.6594 49.6676 59.361 49.4608 59.3252 49.4174C59.2666 49.346 58.9584 49.346 58.9584 49.346L59.0024 49.1174L58.885 49.346H58.7528L58.7676 49.1888L58.6796 49.346L58.4006 49.3316L58.474 49.1602L58.3126 49.3174H57.931L58.0924 49.1032ZM57.5428 50.0068L57.5348 50.246L57.6366 50.0146C57.6026 50.011 57.5712 50.0084 57.5428 50.0068ZM56.5698 50.7322L56.597 50.9336L56.6316 50.9256L56.668 50.7442L56.5698 50.7322ZM56.1362 51.089L56.1576 51.2628L56.3188 51.2314L56.3494 51.089H56.1362ZM56.1694 51.3566L56.1848 51.4814L56.2674 51.4694L56.2882 51.3724L56.1694 51.3566ZM56.0354 51.5962L56.082 51.789L56.088 51.601L56.0354 51.5962ZM56.201 51.6114L56.214 51.7174L56.2362 51.6146L56.201 51.6114ZM55.967 51.9974L55.9566 51.999L55.9646 52.0176L55.967 51.9974Z" fill="#1E9A1C"/>
<path d="M54.6072 53.4645L54.5625 53.46C54.5631 53.4209 54.5784 52.4963 54.666 52.1549C54.7602 51.7882 55.2576 51.0635 55.9941 50.4429C56.7017 49.8469 57.647 49.4792 57.7766 49.4304V49.3938L57.8161 49.383L58.0756 49.0883L58.1104 49.1168L57.9763 49.2949H58.3035L58.4584 49.1441L58.4948 49.1691L58.4342 49.3108L58.6669 49.3228L58.748 49.1778L58.7901 49.191L58.7777 49.3235H58.8713L58.9824 49.1072L59.0246 49.1218L58.9857 49.3238C59.0671 49.3256 59.2881 49.3365 59.3427 49.4032L59.3505 49.4126L59.3478 49.4297C59.3401 49.4541 59.3242 49.5049 58.1094 49.8451L58.0926 49.8499L58.0303 49.7421L57.8797 49.918L57.7978 49.7052L57.6844 49.9624L57.591 49.9877C57.6063 49.9889 57.6224 49.9904 57.6391 49.9922L57.6698 49.9955L57.5555 50.2552L57.5123 50.2453L57.5242 49.8903L57.2477 50.3561L57.1432 50.3753L57.1321 50.0184C57.0225 50.1273 56.8851 50.5135 56.8374 50.6669L56.8139 50.7428L56.7452 50.4757L56.6986 50.707L56.6274 50.7166L56.6949 50.7248L56.6509 50.9443L56.578 50.9612L56.5437 50.7063L56.5347 50.6398L56.4773 50.985L56.4211 50.9981L56.406 50.934L56.3905 51.0052L56.1301 51.0665H56.3774L56.3378 51.2507L56.1383 51.2896L56.1245 51.1778L56.1208 51.2928L56.0157 51.3134L56.1197 51.3272L56.1134 51.5146L55.8339 51.5552L56.1113 51.5805L56.1046 51.7897L56.0602 51.7943L56.0305 51.6715L56.001 51.9077L55.909 51.9456L55.7807 51.6474L55.6196 52.3654L55.576 52.3666C55.4344 51.8669 55.5112 51.451 55.5954 51.1984C55.4016 51.6302 55.3131 52.3681 55.312 52.3773L55.3051 52.437L55.2711 52.3875C55.2243 52.3192 55.2123 52.1623 55.2119 52.0222C55.1686 52.3926 55.1942 52.9382 55.1946 52.9452L55.1964 52.9817L55.1629 52.9669C55.0537 52.9184 55.0158 52.6116 54.9862 52.3014C54.986 52.2991 54.9858 52.2968 54.9855 52.2944C54.9557 52.572 54.9162 53.1548 54.9157 53.162L54.9111 53.23L54.8743 53.1726C54.8183 53.0854 54.803 52.7977 54.7989 52.6441C54.7299 52.8395 54.6409 53.2807 54.6072 53.4645ZM57.8217 49.4282V49.4619L57.8067 49.4673C57.7966 49.471 56.7742 49.8448 56.0232 50.4775C55.2937 51.092 54.8021 51.8061 54.7098 52.166C54.6524 52.3892 54.6263 52.8821 54.6151 53.1914C54.6663 52.9453 54.7447 52.6067 54.8021 52.5323L54.8425 52.4799V52.5461C54.8425 52.651 54.8498 52.8949 54.8787 53.044C54.8958 52.802 54.9361 52.2572 54.9593 52.1554C54.9613 52.1466 54.9685 52.123 54.9887 52.1246C55.0148 52.1263 55.0161 52.1392 55.0312 52.2971C55.0469 52.4629 55.0775 52.7844 55.1473 52.8927C55.1397 52.6911 55.1223 52.001 55.2246 51.7518L55.268 51.7625C55.2581 51.8712 55.2454 52.1364 55.2787 52.2841C55.3169 52.0099 55.4512 51.1859 55.7142 50.93L55.749 50.958C55.7455 50.9635 55.4163 51.503 55.5961 52.2645L55.6392 52.072L55.572 52.0827L55.56 52.0395L55.6553 52.0007L55.7467 51.5927L55.6398 51.5829L55.6387 51.5382L55.763 51.52L55.767 51.5019L55.7741 51.5184L56.0696 51.4754L56.0732 51.3665L55.8734 51.3398L55.8722 51.2953L56.0769 51.2555L56.0815 51.1116H55.9353L55.9301 51.0671L56.0843 51.0308L56.0888 50.8884L56.1337 50.8863L56.1497 51.0155L56.3524 50.9679L56.3828 50.827L56.4269 50.8266L56.4451 50.9037L56.4718 50.7429L56.4461 50.7398L56.4458 50.6951L56.4806 50.6905L56.5146 50.4851L56.5593 50.4858L56.5853 50.6767L56.6607 50.6666L56.7204 50.3702L56.7644 50.3691L56.8184 50.5794C56.8759 50.4078 57.0188 50.015 57.1435 49.9544L57.1748 49.9391L57.1865 50.3215L57.2193 50.3155L57.5303 49.7917L57.5723 49.804L57.5674 49.9473L57.6518 49.9245L57.8005 49.587L57.8945 49.8313L58.0375 49.6643L58.1141 49.7969C59.0326 49.5394 59.2489 49.451 59.2958 49.4213C59.2391 49.3832 59.0643 49.3686 58.9585 49.3686H58.9313L58.9506 49.2678L58.8988 49.3686H58.7281L58.7353 49.2929L58.6925 49.3693L58.3672 49.3524L58.4089 49.2552L58.3219 49.34H57.9141L57.841 49.423L57.8217 49.4282ZM55.8085 51.5982L55.9328 51.887L55.9596 51.876L55.992 51.6149L55.8085 51.5982ZM56.1618 51.1116L56.1771 51.2361L56.2999 51.2122L56.3216 51.1116H56.1618ZM56.5962 50.7581L56.6146 50.8956L56.6412 50.7636L56.5962 50.7581ZM57.5646 50.0308L57.5613 50.1301L57.6035 50.034C57.59 50.0328 57.5771 50.0317 57.5646 50.0308ZM55.977 52.1035L55.9244 51.981L55.9931 51.9708L55.977 52.1035ZM56.2361 51.7222L56.1917 51.7202L56.1753 51.5864L56.2638 51.5945L56.2361 51.7222ZM56.1653 51.507L56.1435 51.3304L56.3154 51.3533L56.2862 51.4894L56.1653 51.507ZM56.1954 51.3828L56.2044 51.4558L56.2487 51.4494L56.2611 51.3916L56.1954 51.3828Z" fill="black"/>
<path d="M60.3676 46.7736L60.2388 48.4988C60.3806 48.731 60.4548 48.8864 60.4548 48.8864C60.4548 48.8864 60.479 48.7554 60.5942 48.546L60.5378 46.8416C60.481 46.8146 60.424 46.7922 60.3676 46.7736ZM60.6092 49.002L60.5448 49.0156L60.6102 49.033L60.6092 49.002Z" fill="#D3AE3B"/>
<path d="M60.637 49.0666L60.5384 49.0403L60.5397 48.9906L60.6341 48.9708L60.637 49.0666ZM60.4657 48.9679L60.4319 48.8974C60.4312 48.8958 60.3565 48.7403 60.2172 48.5121L60.2129 48.505L60.2135 48.4969L60.3448 46.739L60.3759 46.7494C60.4362 46.7694 60.4944 46.7926 60.5489 46.8186L60.563 46.8252L60.5636 46.8408L60.6202 48.5522L60.6169 48.5583C60.5054 48.7609 60.4804 48.8898 60.4802 48.8911L60.4657 48.9679ZM60.2651 48.4925C60.3522 48.6356 60.4138 48.75 60.4478 48.8152C60.4663 48.7566 60.5022 48.6617 60.5687 48.5399L60.513 46.8582C60.4739 46.8401 60.4331 46.8235 60.3909 46.8084L60.2651 48.4925Z" fill="black"/>
<path d="M54.7866 64.6308C54.7866 64.6308 55.3978 64.2908 55.7472 64.6166L55.6306 64.8574L55.034 64.9L54.7866 64.6308Z" fill="white"/>
<path d="M55.0245 64.9233L54.7505 64.6248L54.7755 64.611C54.8009 64.5967 55.405 64.2668 55.7623 64.6002L55.7745 64.6115L55.645 64.8789L55.0245 64.9233ZM54.823 64.6371L55.0431 64.8768L55.6157 64.836L55.7193 64.6221C55.4236 64.3647 54.9393 64.5795 54.823 64.6371Z" fill="black"/>
<path d="M55.2236 63.8912L55.2114 64.8136L55.3324 64.8146L55.3446 63.892L55.2236 63.8912Z" fill="#1E9A1C"/>
<path d="M55.3452 64.8276L55.1987 64.8263L55.1988 64.8134L55.2112 63.8784L55.3577 63.8794L55.3576 63.8923L55.3452 64.8276ZM55.2245 64.8009L55.32 64.8019L55.3319 63.9048L55.2364 63.9042L55.2245 64.8009Z" fill="black"/>
<path d="M54.8047 64.9332C54.8047 64.9332 54.9277 64.9828 54.9031 65.1614C54.8785 65.3398 54.8293 65.9846 55.2971 65.9846C55.7647 65.9846 55.7031 65.3598 55.7031 65.2606C55.7031 65.1614 55.7401 64.9728 55.7401 64.9728V64.6158C55.7401 64.6158 55.2723 64.953 54.8047 64.6058V64.9332Z" fill="#1E9A1C"/>
<path d="M55.2972 66.0053C55.1764 66.0053 55.0789 65.9637 55.0076 65.8819C54.8277 65.6754 54.8666 65.276 54.8828 65.1586C54.9047 64.9993 54.8014 64.9542 54.797 64.9524L54.7843 64.9471L54.7842 64.5647L54.8171 64.5891C55.2671 64.9233 55.7236 64.6024 55.7281 64.5991L55.7607 64.5756V64.9729C55.76 64.9788 55.7238 65.1645 55.7238 65.2606C55.7238 65.2682 55.7242 65.2792 55.7247 65.2926C55.7288 65.4114 55.7396 65.727 55.5766 65.8958C55.5064 65.9684 55.4124 66.0053 55.2972 66.0053ZM54.8254 64.9209C54.859 64.9407 54.9451 65.0079 54.9236 65.1641C54.9125 65.2448 54.8659 65.6565 55.0387 65.8547C55.1019 65.9272 55.1888 65.9639 55.2972 65.9639C55.4008 65.9639 55.4849 65.9315 55.5469 65.8672C55.6979 65.711 55.6874 65.4081 55.6835 65.294C55.683 65.2799 55.6826 65.2686 55.6826 65.2606C55.6826 65.1606 55.7184 64.9768 55.7199 64.969L55.7195 64.6532C55.6067 64.7204 55.2176 64.9108 54.8254 64.6456V64.9209Z" fill="black"/>
<path d="M55.2081 65.0768C55.2081 65.0768 55.1709 65.2994 55.1709 65.5226C55.1709 65.6344 55.1795 65.7462 55.2095 65.8344C55.2245 65.8786 55.2447 65.9174 55.2765 65.9478C55.2837 65.9548 55.2919 65.9608 55.3005 65.9666C55.3405 65.9662 55.3759 65.9614 55.4073 65.9524L55.4055 65.9136C55.3845 65.9142 55.3727 65.9098 55.3561 65.8938C55.3395 65.878 55.3227 65.8492 55.3101 65.812C55.2847 65.7376 55.2747 65.6306 55.2747 65.5226C55.2747 65.307 55.3113 65.0882 55.3113 65.0882L55.2081 65.0768Z" fill="white"/>
<path d="M55.7347 64.889C55.3115 65.0236 55.0045 64.9796 54.8047 64.9048V64.9336C54.8047 64.9336 54.8629 64.9572 54.8913 65.0302C55.2833 65.2156 55.5899 65.0652 55.7389 64.958L55.7347 64.889Z" fill="white"/>
<path d="M55.2606 65.1293C55.1479 65.1293 55.0221 65.1049 54.8862 65.0407L54.882 65.0387L54.8804 65.0344C54.8542 64.9674 54.8007 64.9446 54.8002 64.9444L54.793 64.9415V64.8879L54.8087 64.8938C54.9916 64.9622 55.3001 65.0149 55.7311 64.8778L55.7453 64.8733L55.7508 64.9637L55.7456 64.9674C55.6467 65.0387 55.4779 65.1293 55.2606 65.1293ZM54.9003 65.0215C55.2805 65.1995 55.5792 65.0569 55.7268 64.9524L55.7238 64.9045C55.3062 65.0348 55.0022 64.9877 54.8162 64.9213V64.9262C54.8333 64.9352 54.8759 64.9625 54.9003 65.0215Z" fill="black"/>
<path d="M53.7729 72.7686L53.6625 72.7479L53.5049 73.5453L54.0309 73.6438L54.0497 73.5484L53.6341 73.4704L53.7729 72.7686ZM54.2081 73.1386L54.2917 73.1518L54.3393 72.8672L54.2559 72.854L54.2081 73.1386ZM55.0153 72.9622L54.9441 73.4706C54.9379 73.5141 54.9269 73.5488 54.9105 73.5748C54.8937 73.6024 54.8733 73.6229 54.8493 73.6365C54.8013 73.662 54.7501 73.6708 54.6955 73.6628C54.6711 73.6596 54.6471 73.6524 54.6235 73.6417C54.6001 73.631 54.5791 73.6162 54.5603 73.5969C54.5429 73.5779 54.5299 73.5529 54.5217 73.522C54.5125 73.4919 54.5109 73.455 54.5171 73.4117L54.5881 72.9055L54.4767 72.8906L54.4015 73.4274C54.3897 73.505 54.4057 73.5753 54.4493 73.6378C54.4925 73.7024 54.5689 73.7427 54.6785 73.7586C54.7923 73.7724 54.8805 73.7532 54.9431 73.7014C55.0053 73.6508 55.0423 73.5834 55.0541 73.4992L55.1273 72.9771L55.0153 72.9622ZM55.7595 73.7018L55.7573 73.7016L55.4123 73.0074L55.2797 72.994L55.1933 73.8016L55.3015 73.8126L55.3715 73.1599L55.3737 73.16L55.7261 73.8557L55.8519 73.8685L55.9383 73.0608L55.8295 73.0496L55.7595 73.7018ZM56.2307 73.0844L56.1183 73.0748L56.0463 73.8838L56.1587 73.8935L56.2307 73.0844ZM57.0329 73.5505C57.0251 73.6466 56.9937 73.7234 56.9387 73.781C56.8833 73.8393 56.8101 73.8654 56.7191 73.8599C56.6277 73.8529 56.5593 73.8167 56.5137 73.7514C56.4663 73.6868 56.4463 73.6065 56.4533 73.5102C56.4605 73.4126 56.4921 73.3354 56.5483 73.2786C56.6029 73.2212 56.6759 73.1953 56.7673 73.2008C56.8581 73.2078 56.9269 73.2436 56.9733 73.3082C57.0195 73.372 57.0393 73.4526 57.0329 73.5505ZM57.1485 73.5584C57.1517 73.5133 57.1491 73.4654 57.1407 73.4151C57.1303 73.3646 57.1113 73.317 57.0835 73.2727C57.0557 73.2268 57.0169 73.1884 56.9673 73.1576C56.9157 73.1279 56.8513 73.11 56.7743 73.1039C56.7363 73.1013 56.7007 73.1021 56.6679 73.1065C56.6349 73.1112 56.6049 73.1193 56.5779 73.1307C56.5237 73.1542 56.4793 73.1868 56.4445 73.2282C56.4107 73.2685 56.3855 73.3128 56.3687 73.3615C56.3511 73.4102 56.3407 73.457 56.3373 73.5022C56.3341 73.5458 56.3377 73.5927 56.3481 73.6424C56.3577 73.6922 56.3763 73.7401 56.4035 73.7858C56.4321 73.8315 56.4715 73.8696 56.5215 73.9005C56.5711 73.932 56.6347 73.9508 56.7119 73.9568C56.7511 73.9596 56.7873 73.9578 56.8203 73.9516C56.8533 73.9472 56.8835 73.9393 56.9109 73.9274C56.9645 73.9039 57.0085 73.8714 57.0427 73.8302C57.0767 73.7886 57.1027 73.744 57.1201 73.6961C57.1357 73.648 57.1453 73.6022 57.1485 73.5584ZM57.8127 73.8427L57.8105 73.8424L57.4293 73.1664L57.2961 73.1596L57.2523 73.9704L57.3611 73.976L57.3965 73.3206L57.3987 73.3208L57.7873 73.9979L57.9137 74.0042L57.9573 73.1935L57.8479 73.1878L57.8127 73.8427ZM58.5505 73.6591L58.9593 73.672L58.9625 73.5748L58.5537 73.5618L58.5619 73.3134L59.0265 73.3281L59.0297 73.2308L58.4523 73.2126L58.4253 74.0242L58.5381 74.0279L58.5505 73.6591ZM59.5105 73.8159L59.5881 74.0539L59.7111 74.056L59.4255 73.2386L59.2979 73.236L58.9679 74.042L59.0837 74.0443L59.1757 73.8094L59.5105 73.8159ZM59.2123 73.713L59.3533 73.3582H59.3555L59.4715 73.7178L59.2123 73.713ZM59.9569 73.2451L59.8441 73.2443L59.8375 74.0562L59.9503 74.057L59.9569 73.2451ZM60.0365 73.3438L60.3185 73.3404L60.3281 74.055L60.4409 74.0539L60.4315 73.3391L60.7141 73.3354L60.7127 73.2383L60.0351 73.2469L60.0365 73.3438ZM61.2457 73.2246L61.1335 73.2281L61.1593 74.0396L61.6949 74.0234L61.6917 73.9263L61.2685 73.9391L61.2457 73.2246ZM62.2615 73.7634L62.3543 73.9962L62.4773 73.9909L62.1395 73.1924L62.0119 73.1979L61.7347 74.0224L61.8503 74.0174L61.9271 73.7776L62.2615 73.7634ZM61.9573 73.679L62.0751 73.3162H62.0775L62.2163 73.668L61.9573 73.679ZM63.0047 73.5919L63.4129 73.5664L63.4067 73.4694L62.9983 73.4948L62.9819 73.2469L63.4457 73.2178L63.4393 73.1208L62.8629 73.1568L62.9163 73.9672L63.0289 73.96L63.0047 73.5919ZM64.2315 73.4659C64.2389 73.562 64.2201 73.6427 64.1747 73.7076C64.1291 73.7734 64.0609 73.8104 63.9701 73.8185C63.8787 73.825 63.8053 73.7996 63.7499 73.742C63.6931 73.6852 63.6605 73.6089 63.6523 73.5126C63.6441 73.4151 63.6631 73.3341 63.7097 73.2696C63.7545 73.2047 63.8227 73.1682 63.9139 73.16C64.0047 73.1534 64.0783 73.1784 64.1343 73.2352C64.1899 73.2914 64.2223 73.3682 64.2315 73.4659ZM64.3469 73.4565C64.3429 73.4112 64.3329 73.3644 64.3165 73.3159C64.2985 73.2674 64.2721 73.2234 64.2375 73.1836C64.2029 73.1427 64.1587 73.1104 64.1047 73.0875C64.0489 73.0659 63.9825 73.0576 63.9055 73.0633C63.8675 73.0662 63.8325 73.0724 63.8007 73.0816C63.7687 73.0912 63.7405 73.1036 63.7155 73.119C63.6659 73.1505 63.6271 73.1893 63.5991 73.2354C63.5721 73.28 63.5543 73.3276 63.5453 73.3782C63.5355 73.429 63.5327 73.4768 63.5365 73.522C63.5401 73.5656 63.5511 73.6115 63.5693 73.6591C63.5865 73.7068 63.6125 73.7513 63.6467 73.7924C63.6821 73.8332 63.7269 73.8651 63.7813 73.888C63.8353 73.9118 63.9009 73.9208 63.9783 73.9152C64.0175 73.9122 64.0529 73.905 64.0847 73.894C64.1165 73.8846 64.1451 73.8722 64.1703 73.8566C64.2197 73.8253 64.2579 73.7867 64.2851 73.7409C64.3123 73.6946 64.3309 73.6466 64.3405 73.5966C64.3485 73.5469 64.3505 73.5003 64.3469 73.4565ZM64.6015 73.4886L64.8729 73.4599C64.9059 73.4562 64.9333 73.4576 64.9549 73.4638C64.9753 73.4698 64.9913 73.4794 65.0027 73.4928C65.0143 73.5052 65.0227 73.5198 65.0275 73.5368C65.0317 73.5539 65.0347 73.5708 65.0367 73.588C65.0387 73.6065 65.0437 73.6372 65.0517 73.6808C65.0559 73.7013 65.0601 73.7211 65.0645 73.7401C65.0691 73.7592 65.0739 73.7755 65.0791 73.7886L65.2167 73.774L65.2147 73.7558C65.1975 73.748 65.1855 73.7388 65.1785 73.7281C65.1721 73.7172 65.1671 73.701 65.1639 73.6797L65.1409 73.5342C65.1363 73.5066 65.1305 73.4836 65.1235 73.4654C65.1155 73.4479 65.1061 73.4346 65.0957 73.4263C65.0855 73.4159 65.0745 73.4082 65.0629 73.4036C65.0507 73.3992 65.0379 73.3956 65.0245 73.3927C65.0373 73.3839 65.0499 73.373 65.0627 73.3602C65.0747 73.349 65.0857 73.3357 65.0959 73.3201C65.1057 73.3039 65.1129 73.2849 65.1175 73.2633C65.1211 73.2419 65.1213 73.2164 65.1181 73.187C65.1073 73.1034 65.0727 73.0488 65.0147 73.023C64.9569 72.9988 64.8923 72.9909 64.8213 72.999L64.4377 73.0398L64.5281 73.847L64.6403 73.835L64.6015 73.4886ZM64.5603 73.1212L64.8397 73.0917C64.8703 73.0876 64.9031 73.0909 64.9377 73.1013C64.9541 73.1081 64.9683 73.1198 64.9805 73.1367C64.9927 73.1542 65.0007 73.1789 65.0041 73.2102C65.0075 73.2396 65.0053 73.2636 64.9979 73.2826C64.9907 73.3026 64.9795 73.3182 64.9645 73.3294C64.9493 73.341 64.9321 73.3495 64.9125 73.3544C64.8929 73.361 64.8725 73.3654 64.8511 73.3677L64.5911 73.3953L64.5603 73.1212ZM65.9545 73.1005C65.9367 73.0312 65.8959 72.9746 65.8321 72.931C65.7687 72.8867 65.6835 72.8712 65.5767 72.8846C65.4559 72.9029 65.3675 72.9544 65.3115 73.0393C65.2545 73.1248 65.2349 73.2308 65.2527 73.357C65.2765 73.5096 65.3315 73.6138 65.4173 73.67C65.4997 73.7263 65.5897 73.7472 65.6873 73.7331C65.7041 73.7307 65.7295 73.7245 65.7631 73.7146C65.7967 73.7044 65.8317 73.6868 65.8677 73.6622C65.9041 73.6367 65.9353 73.5996 65.9609 73.551C65.9867 73.5031 66.0005 73.4414 66.0019 73.3656L65.8935 73.3807C65.8913 73.4274 65.8833 73.4669 65.8695 73.4984C65.8555 73.53 65.8377 73.5555 65.8165 73.5745C65.7955 73.5927 65.7741 73.6066 65.7521 73.6162C65.7299 73.6256 65.7091 73.6318 65.6901 73.6344C65.5895 73.6477 65.5139 73.625 65.4629 73.5667C65.4125 73.5104 65.3807 73.4339 65.3673 73.3372C65.3525 73.2315 65.3675 73.1479 65.4125 73.0865C65.4545 73.0266 65.5139 72.9914 65.5907 72.9808C65.6121 72.9779 65.6345 72.9763 65.6583 72.9758C65.6817 72.9771 65.7055 72.9823 65.7297 72.991C65.7537 73 65.7761 73.0144 65.7969 73.0342C65.8177 73.0536 65.8343 73.0807 65.8467 73.1154L65.9545 73.1005ZM66.7775 73.4298L66.2835 73.5216L66.2311 73.2548L66.6799 73.1712L66.6611 73.0758L66.2125 73.1592L66.1645 72.9151L66.6505 72.8246L66.6319 72.7292L66.0349 72.8402L66.1915 73.6378L66.7961 73.5253L66.7775 73.4298Z" fill="black"/>
</svg>
