<svg width="120" height="120" viewBox="0 0 120 120" fill="none" xmlns="http://www.w3.org/2000/svg">
<path fill-rule="evenodd" clip-rule="evenodd" d="M120 120H0V0H120V120Z" fill="white"/>
<path fill-rule="evenodd" clip-rule="evenodd" d="M120 27.2663H0V11.5H120V27.2663ZM120 109.5H0V93.7337H120V109.5Z" fill="#0F3296"/>
<path d="M42.8218 60.0029L34 75.341L51.5993 75.2778L59.9676 89.8405L68.5946 75.2167L86.311 75.153L77.4778 60.1586L86.4051 45.026L68.5254 44.9617L59.897 30.315L51.508 44.9006L34.1076 44.838L34.0941 44.8145V44.838L34.1076 44.838L42.8218 60.0029Z" fill="#0F3296"/>
<path d="M55.3925 45.026L65.333 45.0025L60.304 36.6835L55.3925 45.026Z" fill="white"/>
<path d="M40 72.1685L45.0995 63.7085V63.685L49.635 72.145L40 72.1685Z" fill="white"/>
<path d="M49.776 48.1515L40.094 48.081L45.123 56.682L49.776 48.1515Z" fill="white"/>
<path d="M80.5375 72.1685L75.626 63.826L70.738 72.051L80.5375 72.1685Z" fill="white"/>
<path d="M70.7615 48.1515L80.4435 48.081L75.4145 56.682L70.7615 48.1515Z" fill="white"/>
<path d="M46.909 60.16L53.583 48.081V48.0575L66.649 47.94L73.605 60.16L66.085 72.2625L53.677 71.9805L46.909 60.16Z" fill="white"/>
<path d="M55.3925 74.683L60.304 83.0255L65.333 74.73L55.3925 74.683Z" fill="white"/>
</svg>
