<svg width="120" height="120" viewBox="0 0 120 120" fill="none" xmlns="http://www.w3.org/2000/svg">
<g clip-path="url(#clip0_330_54)">
<path d="M0 0H120V120H0V0Z" fill="#D91C16"/>
<path d="M60.0001 97.714L58.7141 84.86C58.6701 84.428 58.8221 83.988 59.1541 83.708C59.3521 83.542 59.6261 83.414 60.0001 83.42C60.5521 83.43 60.8861 83.726 61.0801 84.016C61.2541 84.274 61.3221 84.588 61.2921 84.898L60.0001 97.712V97.714Z" fill="#FDD406"/>
<path d="M97.7141 60L84.8601 58.714C84.4281 58.67 83.9881 58.822 83.7081 59.154C83.5421 59.352 83.4141 59.626 83.4201 60C83.4301 60.552 83.7261 60.886 84.0161 61.08C84.2741 61.254 84.5881 61.322 84.8981 61.292L97.7121 60H97.7141Z" fill="#FDD406"/>
<path d="M97.2501 65.9L84.7561 62.62C84.3361 62.51 83.8781 62.59 83.5501 62.874C83.3541 63.044 83.1861 63.296 83.1341 63.664C83.0561 64.212 83.2981 64.586 83.5521 64.824C83.7801 65.036 84.0801 65.154 84.3901 65.17L97.2501 65.9Z" fill="#FDD406"/>
<path d="M95.8681 71.654L84.0401 66.46C83.6421 66.286 83.1781 66.294 82.8101 66.522C82.5901 66.66 82.3841 66.88 82.2761 67.238C82.1141 67.766 82.2941 68.174 82.5081 68.448C82.7001 68.692 82.9781 68.856 83.2821 68.922L95.8681 71.654Z" fill="#FDD406"/>
<path d="M93.6041 77.122L82.7341 70.142C82.3701 69.908 81.9081 69.842 81.5081 70.012C81.2681 70.114 81.0321 70.3 80.8681 70.634C80.6261 71.13 80.7381 71.562 80.9081 71.866C81.0601 72.138 81.3081 72.342 81.5981 72.454L93.6021 77.122H93.6041Z" fill="#FDD406"/>
<path d="M90.5121 82.168L80.8681 73.574C80.5441 73.286 80.1001 73.148 79.6781 73.254C79.4261 73.316 79.1621 73.464 78.9481 73.77C78.6301 74.222 78.6741 74.666 78.7941 74.994C78.9021 75.286 79.1141 75.526 79.3841 75.684L90.5101 82.172L90.5121 82.168Z" fill="#FDD406"/>
<path d="M86.6681 86.668L78.4881 76.67C78.2141 76.334 77.7961 76.13 77.3621 76.168C77.1041 76.19 76.8201 76.294 76.5621 76.562C76.1781 76.96 76.1521 77.404 76.2201 77.746C76.2801 78.052 76.4541 78.322 76.6941 78.52L86.6681 86.668Z" fill="#FDD406"/>
<path d="M82.1681 90.512L75.6521 79.358C75.4341 78.984 75.0521 78.716 74.6201 78.686C74.3621 78.668 74.0661 78.726 73.7681 78.95C73.3261 79.282 73.2321 79.718 73.2441 80.066C73.2561 80.376 73.3841 80.672 73.5921 80.904L82.1681 90.512Z" fill="#FDD406"/>
<path d="M77.1221 93.604L72.4321 81.568C72.2741 81.164 71.9401 80.84 71.5181 80.742C71.2661 80.684 70.9641 80.696 70.6341 80.87C70.1461 81.128 69.9841 81.544 69.9421 81.89C69.9041 82.198 69.9861 82.51 70.1541 82.772L77.1221 93.604Z" fill="#FDD406"/>
<path d="M71.6541 95.868L71.6522 95.859L71.6561 95.868H71.6541Z" fill="#FDD406"/>
<path d="M71.6522 95.859L66.4681 84.08C66.3421 83.796 66.3101 83.476 66.3961 83.176C66.4901 82.84 66.7161 82.456 67.2381 82.276C67.5901 82.156 67.8901 82.19 68.1301 82.288C68.5321 82.45 68.8121 82.822 68.9041 83.246L71.6522 95.859Z" fill="#FDD406"/>
<path d="M65.9001 97.25L65.1581 84.354C65.1341 83.92 64.9161 83.51 64.5441 83.286C64.3221 83.152 64.0321 83.07 63.6641 83.134C63.1201 83.23 62.8381 83.574 62.6901 83.89C62.5601 84.172 62.5401 84.494 62.6201 84.794L65.9001 97.25Z" fill="#FDD406"/>
<path d="M22.2861 60L35.1401 58.714C35.5721 58.67 36.0121 58.822 36.2921 59.154C36.4581 59.352 36.5861 59.626 36.5801 60C36.5701 60.552 36.2741 60.886 35.9841 61.08C35.7261 61.254 35.4121 61.322 35.1021 61.292L22.2881 60H22.2861Z" fill="#FDD406"/>
<path d="M22.7501 54.1L35.6461 54.842C36.0801 54.866 36.4901 55.084 36.7141 55.456C36.8481 55.678 36.9301 55.968 36.8661 56.336C36.7701 56.88 36.4261 57.162 36.1101 57.31C35.8281 57.44 35.5061 57.46 35.2061 57.38L22.7501 54.1Z" fill="#FDD406"/>
<path d="M24.1321 48.346L24.1411 48.348L35.9201 53.532C36.2041 53.658 36.5241 53.69 36.8241 53.604C37.1601 53.51 37.5441 53.284 37.7241 52.762C37.8441 52.41 37.8101 52.11 37.7121 51.87C37.5501 51.468 37.1781 51.188 36.7541 51.096L24.1411 48.348L24.1321 48.344V48.346Z" fill="#FDD406"/>
<path d="M26.3961 42.878L38.4321 47.568C38.8361 47.726 39.1601 48.06 39.2581 48.482C39.3161 48.734 39.3041 49.036 39.1301 49.366C38.8721 49.854 38.4561 50.016 38.1101 50.058C37.8021 50.096 37.4901 50.014 37.2281 49.846L26.3961 42.878Z" fill="#FDD406"/>
<path d="M29.4881 37.832L40.6421 44.348C41.0161 44.566 41.2841 44.948 41.3141 45.38C41.3321 45.638 41.2741 45.934 41.0501 46.232C40.7181 46.674 40.2821 46.768 39.9341 46.756C39.6241 46.744 39.3281 46.616 39.0961 46.408L29.4881 37.832Z" fill="#FDD406"/>
<path d="M33.3321 33.332L43.3301 41.512C43.6661 41.786 43.8701 42.204 43.8321 42.638C43.8101 42.896 43.7061 43.18 43.4381 43.438C43.0401 43.822 42.5961 43.848 42.2541 43.78C41.9481 43.72 41.6781 43.546 41.4801 43.306L33.3321 33.332Z" fill="#FDD406"/>
<path d="M37.8321 29.488L46.4261 39.132C46.7141 39.456 46.8521 39.9 46.7461 40.322C46.6841 40.574 46.5361 40.838 46.2301 41.052C45.7781 41.37 45.3341 41.326 45.0061 41.206C44.7141 41.098 44.4741 40.886 44.3161 40.616L37.8281 29.49L37.8321 29.488Z" fill="#FDD406"/>
<path d="M42.8781 26.396L49.8581 37.266C50.0921 37.63 50.1581 38.092 49.9881 38.492C49.8861 38.732 49.7001 38.968 49.3661 39.132C48.8701 39.374 48.4381 39.262 48.1341 39.092C47.8621 38.94 47.6581 38.692 47.5461 38.402L42.8781 26.398V26.396Z" fill="#FDD406"/>
<path d="M48.3461 24.132L53.5401 35.96C53.7141 36.358 53.7061 36.822 53.4781 37.19C53.3401 37.41 53.1201 37.616 52.7621 37.724C52.2341 37.886 51.8261 37.706 51.5521 37.492C51.3081 37.3 51.1441 37.022 51.0781 36.718L48.3461 24.132Z" fill="#FDD406"/>
<path d="M54.1001 22.75L57.3801 35.244C57.4901 35.664 57.4101 36.122 57.1261 36.45C56.9561 36.646 56.7041 36.814 56.3361 36.866C55.7881 36.944 55.4141 36.702 55.1761 36.448C54.9641 36.22 54.8461 35.92 54.8301 35.61L54.1001 22.75Z" fill="#FDD406"/>
<path d="M60.0001 22.286L61.2861 35.14C61.3301 35.572 61.1781 36.012 60.8461 36.292C60.6481 36.458 60.3741 36.586 60.0001 36.58C59.4481 36.57 59.1141 36.274 58.9201 35.984C58.7461 35.726 58.6781 35.412 58.7081 35.102L60.0001 22.288V22.286Z" fill="#FDD406"/>
<path d="M54.1001 97.25L57.3801 84.756C57.4901 84.336 57.4101 83.878 57.1261 83.55C56.9561 83.354 56.7041 83.186 56.3361 83.134C55.7881 83.056 55.4141 83.298 55.1761 83.552C54.9641 83.78 54.8461 84.08 54.8301 84.39L54.1001 97.25Z" fill="#FDD406"/>
<path d="M48.3461 95.868L53.5401 84.04C53.7141 83.642 53.7061 83.178 53.4781 82.81C53.3401 82.59 53.1201 82.384 52.7621 82.276C52.2341 82.114 51.8261 82.294 51.5521 82.508C51.3081 82.7 51.1441 82.978 51.0781 83.282L48.3461 95.868Z" fill="#FDD406"/>
<path d="M42.8781 93.604L49.8581 82.734C50.0921 82.37 50.1581 81.908 49.9881 81.508C49.8861 81.268 49.7001 81.032 49.3661 80.868C48.8701 80.626 48.4381 80.738 48.1341 80.908C47.8621 81.06 47.6581 81.308 47.5461 81.598L42.8781 93.602V93.604Z" fill="#FDD406"/>
<path d="M37.8321 90.512L46.4261 80.868C46.7141 80.544 46.8521 80.1 46.7461 79.678C46.6841 79.426 46.5361 79.162 46.2301 78.948C45.7781 78.63 45.3341 78.674 45.0061 78.794C44.7141 78.902 44.4741 79.114 44.3161 79.384L37.8281 90.51L37.8321 90.512Z" fill="#FDD406"/>
<path d="M33.3321 86.668L43.3301 78.488C43.6661 78.214 43.8701 77.796 43.8321 77.362C43.8101 77.104 43.7061 76.82 43.4381 76.562C43.0401 76.178 42.5961 76.152 42.2541 76.22C41.9481 76.28 41.6781 76.454 41.4801 76.694L33.3321 86.668Z" fill="#FDD406"/>
<path d="M29.4881 82.168L40.6421 75.652C41.0161 75.434 41.2841 75.052 41.3141 74.62C41.3321 74.362 41.2741 74.066 41.0501 73.768C40.7181 73.326 40.2821 73.232 39.9341 73.244C39.6241 73.256 39.3281 73.384 39.0961 73.592L29.4881 82.168Z" fill="#FDD406"/>
<path d="M26.3961 77.122L38.4321 72.432C38.8361 72.274 39.1601 71.94 39.2581 71.518C39.3161 71.266 39.3041 70.964 39.1301 70.634C38.8721 70.146 38.4561 69.984 38.1101 69.942C37.8021 69.904 37.4901 69.986 37.2281 70.154L26.3961 77.122Z" fill="#FDD406"/>
<path d="M24.1321 71.654L24.1411 71.652L24.1321 71.656V71.654Z" fill="#FDD406"/>
<path d="M24.1411 71.652L36.7541 68.904C37.1781 68.812 37.5501 68.532 37.7121 68.13C37.8101 67.89 37.8441 67.59 37.7241 67.238C37.5441 66.716 37.1601 66.49 36.8241 66.396C36.5241 66.31 36.2041 66.342 35.9201 66.468L24.1411 71.652Z" fill="#FDD406"/>
<path d="M22.7501 65.9L35.6461 65.158C36.0801 65.134 36.4901 64.916 36.7141 64.544C36.8481 64.322 36.9301 64.032 36.8661 63.664C36.7701 63.12 36.4261 62.838 36.1101 62.69C35.8281 62.56 35.5061 62.54 35.2061 62.62L22.7501 65.9Z" fill="#FDD406"/>
<path d="M65.9001 22.75L65.1581 35.646C65.1341 36.08 64.9161 36.49 64.5441 36.714C64.3221 36.848 64.0321 36.93 63.6641 36.866C63.1201 36.77 62.8381 36.426 62.6901 36.11C62.5601 35.828 62.5401 35.506 62.6201 35.206L65.9001 22.75Z" fill="#FDD406"/>
<path d="M71.6541 24.132L71.6522 24.141L66.4681 35.92C66.3421 36.204 66.3101 36.524 66.3961 36.824C66.4901 37.16 66.7161 37.544 67.2381 37.724C67.5901 37.844 67.8901 37.81 68.1301 37.712C68.5321 37.55 68.8121 37.178 68.9041 36.754L71.6522 24.141L71.6561 24.132H71.6541Z" fill="#FDD406"/>
<path d="M77.1221 26.396L72.4321 38.432C72.2741 38.836 71.9401 39.16 71.5181 39.258C71.2661 39.316 70.9641 39.304 70.6341 39.13C70.1461 38.872 69.9841 38.456 69.9421 38.11C69.9041 37.802 69.9861 37.49 70.1541 37.228L77.1221 26.396Z" fill="#FDD406"/>
<path d="M82.1681 29.488L75.6521 40.642C75.4341 41.016 75.0521 41.284 74.6201 41.314C74.3621 41.332 74.0661 41.274 73.7681 41.05C73.3261 40.718 73.2321 40.282 73.2441 39.934C73.2561 39.624 73.3841 39.328 73.5921 39.096L82.1681 29.488Z" fill="#FDD406"/>
<path d="M86.6681 33.332L78.4881 43.33C78.2141 43.666 77.7961 43.87 77.3621 43.832C77.1041 43.81 76.8201 43.706 76.5621 43.438C76.1781 43.04 76.1521 42.596 76.2201 42.254C76.2801 41.948 76.4541 41.678 76.6941 41.48L86.6681 33.332Z" fill="#FDD406"/>
<path d="M90.5121 37.832L80.8681 46.426C80.5441 46.714 80.1001 46.852 79.6781 46.746C79.4261 46.684 79.1621 46.536 78.9481 46.23C78.6301 45.778 78.6741 45.334 78.7941 45.006C78.9021 44.714 79.1141 44.474 79.3841 44.316L90.5101 37.828L90.5121 37.832Z" fill="#FDD406"/>
<path d="M93.6041 42.878L82.7341 49.858C82.3701 50.092 81.9081 50.158 81.5081 49.988C81.2681 49.886 81.0321 49.7 80.8681 49.366C80.6261 48.87 80.7381 48.438 80.9081 48.134C81.0601 47.862 81.3081 47.658 81.5981 47.546L93.6021 42.878H93.6041Z" fill="#FDD406"/>
<path d="M95.8681 48.346L84.0401 53.54C83.6421 53.714 83.1781 53.706 82.8101 53.478C82.5901 53.34 82.3841 53.12 82.2761 52.762C82.1141 52.234 82.2941 51.826 82.5081 51.552C82.7001 51.308 82.9781 51.144 83.2821 51.078L95.8681 48.346Z" fill="#FDD406"/>
<path d="M97.2501 54.1L84.7561 57.38C84.3361 57.49 83.8781 57.41 83.5501 57.126C83.3541 56.956 83.1861 56.704 83.1341 56.336C83.0561 55.788 83.2981 55.414 83.5521 55.176C83.7801 54.964 84.0801 54.846 84.3901 54.83L97.2501 54.1Z" fill="#FDD406"/>
<path d="M60.0002 47.528C65.2582 45.424 69.6662 45.146 70.2682 45.118C67.3922 43.036 63.8422 41.806 60.0002 41.806C56.1582 41.806 52.6062 43.036 49.7322 45.118C50.3342 45.146 54.7422 45.424 60.0002 47.528Z" fill="#FDD406"/>
<path d="M57.7601 48.52C52.7921 46.52 48.6621 46.31 48.2781 46.294H48.2801C48.4681 46.124 48.6601 45.958 48.8561 45.796C52.6341 46.124 55.9141 46.938 58.7541 48.056C58.4241 48.204 58.0941 48.358 57.7601 48.52Z" fill="#FDD406"/>
<path d="M63.3842 49.104C63.7482 49.3 64.1122 49.504 64.4782 49.718C68.8502 47.95 72.5202 47.656 73.0442 47.622C72.8362 47.388 72.6222 47.16 72.4002 46.938C68.9582 47.324 65.9742 48.086 63.3842 49.102V49.104Z" fill="#FDD406"/>
<path d="M73.6182 48.3C73.7762 48.498 73.9322 48.7 74.0822 48.906C73.9282 48.916 70.4682 49.16 66.3242 50.892C66.0542 50.706 65.7822 50.524 65.5102 50.35C67.8402 49.42 70.5242 48.706 73.6182 48.3Z" fill="#FDD406"/>
<path d="M56.7742 50.258C57.1102 50.412 57.4462 50.574 57.7862 50.746C58.1542 50.522 58.5222 50.31 58.8902 50.108C58.5582 49.944 58.2202 49.784 57.8742 49.63C57.4982 49.834 57.1322 50.044 56.7742 50.258Z" fill="#FDD406"/>
<path d="M61.1123 51.334C60.7523 51.112 60.3823 50.896 60.0003 50.686C59.6183 50.896 59.2483 51.112 58.8883 51.334C59.2583 51.544 59.6303 51.764 60.0003 51.998C60.3703 51.764 60.7423 51.544 61.1123 51.334Z" fill="#FDD406"/>
<path d="M60.0001 49.526C60.3381 49.358 60.6721 49.2 61.0061 49.05C60.6781 48.89 60.3421 48.734 60.0001 48.582C59.6581 48.734 59.3221 48.89 58.9941 49.05C59.3261 49.2 59.6621 49.358 60.0001 49.526Z" fill="#FDD406"/>
<path d="M62.1262 49.63C61.7802 49.784 61.4422 49.944 61.1102 50.108C61.4782 50.31 61.8462 50.522 62.2142 50.746C62.5542 50.574 62.8922 50.412 63.2262 50.258C62.8682 50.044 62.5022 49.834 62.1262 49.63Z" fill="#FDD406"/>
<path d="M60.0003 54.704C59.7143 54.464 59.4283 54.234 59.1383 54.014C59.4163 53.792 59.7043 53.572 60.0003 53.358C60.2963 53.574 60.5843 53.792 60.8623 54.014C60.5723 54.236 60.2843 54.464 60.0003 54.704Z" fill="#FDD406"/>
<path d="M59.1334 55.3734L59.135 55.3747L59.1354 55.375C59.1535 55.3907 59.1716 55.4064 59.1902 55.422V55.424C55.2022 59.134 51.9722 64.938 51.9562 74.016C51.3442 73.7 50.7522 73.35 50.1862 72.966C50.1762 72.248 50.1762 61.878 58.3182 54.706C58.5762 54.912 58.8302 55.118 59.0782 55.326C59.097 55.3418 59.1152 55.3576 59.1334 55.3734Z" fill="#FDD406"/>
<path d="M60.9222 55.326C61.1702 55.12 61.4242 54.912 61.6822 54.706V54.704C69.8242 61.876 69.8242 72.246 69.8142 72.964C69.2482 73.348 68.6562 73.698 68.0442 74.014C68.0281 64.936 64.7982 59.132 60.8102 55.422C60.8292 55.406 60.8477 55.39 60.8662 55.374L60.8891 55.3542C60.9 55.3448 60.911 55.3354 60.9222 55.326Z" fill="#FDD406"/>
<path d="M44.1182 65.764C44.4542 66.512 44.8422 67.232 45.2782 67.92C47.2322 60.584 51.0502 55.734 55.1922 52.53C54.8742 52.344 54.5462 52.162 54.2082 51.986C46.9102 57.49 44.4402 64.728 44.1182 65.764Z" fill="#FDD406"/>
<path d="M55.7601 50.892C55.4781 51.076 55.2061 51.266 54.9361 51.456C55.2701 51.616 55.6081 51.786 55.9461 51.968C56.2241 51.768 56.5021 51.574 56.7821 51.388C56.4501 51.218 56.1081 51.054 55.7601 50.894V50.892Z" fill="#FDD406"/>
<path d="M61.2482 48.056C61.5782 48.204 61.9082 48.358 62.2422 48.52C67.2102 46.52 71.3402 46.31 71.7242 46.294C71.5362 46.124 71.3442 45.958 71.1482 45.796C67.3702 46.126 64.0902 46.938 61.2502 48.056H61.2482Z" fill="#FDD406"/>
<path d="M74.4782 49.47C71.4602 49.81 69.0482 50.504 67.0322 51.392C70.7662 54.118 74.2982 58.028 76.6722 63.63C77.1142 62.122 77.3522 60.53 77.3522 58.882C77.3522 55.404 76.2942 52.168 74.4782 49.47Z" fill="#FDD406"/>
<path d="M56.2483 53.19C56.6183 53.434 56.9723 53.684 57.3163 53.936V53.938C53.0443 57.47 49.3223 62.97 48.3323 71.522C47.7303 70.982 47.1663 70.402 46.6463 69.786C46.8063 68.57 48.2363 59.596 56.2483 53.19Z" fill="#FDD406"/>
<path d="M45.5222 49.47C48.5402 49.81 50.9522 50.504 52.9682 51.392C49.2342 54.118 45.7022 58.028 43.3282 63.63C42.8862 62.122 42.6482 60.53 42.6482 58.882C42.6482 55.404 43.7062 52.168 45.5222 49.47Z" fill="#FDD406"/>
<path d="M54.1823 74.974C54.0083 74.112 52.0723 63.626 60.0003 56.146C67.9282 63.626 65.9943 74.112 65.8183 74.974C63.9983 75.61 62.0423 75.958 60.0003 75.958C57.9583 75.958 56.0003 75.61 54.1823 74.974Z" fill="#FDD406"/>
<path d="M56.6162 49.104C56.2522 49.298 55.8882 49.504 55.5222 49.718V49.72C51.1502 47.952 47.4802 47.658 46.9563 47.624C47.1643 47.39 47.3802 47.162 47.6003 46.94C51.0422 47.326 54.0262 48.088 56.6162 49.104Z" fill="#FDD406"/>
<path d="M62.6842 53.936C63.0282 53.684 63.3822 53.434 63.7522 53.19V53.188C71.7642 59.594 73.1942 68.568 73.3542 69.784C72.8342 70.4 72.2702 70.982 71.6682 71.52C70.6782 62.968 66.9562 57.468 62.6842 53.936Z" fill="#FDD406"/>
<path d="M57.8802 51.986C58.2622 52.206 58.6342 52.434 58.9922 52.666H58.9902C58.7042 52.866 58.4162 53.076 58.1322 53.292C57.7682 53.042 57.4002 52.808 57.0322 52.586C57.3082 52.382 57.5902 52.182 57.8802 51.986Z" fill="#FDD406"/>
<path d="M75.8822 65.766C75.5482 66.514 75.1582 67.234 74.7222 67.922C72.7702 60.586 68.9502 55.738 64.8082 52.532C65.1242 52.346 65.4522 52.164 65.7922 51.988C73.0902 57.492 75.5582 64.73 75.8822 65.766Z" fill="#FDD406"/>
<path d="M54.4902 50.35C54.2182 50.524 53.9462 50.706 53.6762 50.892C49.5342 49.16 46.0722 48.916 45.9182 48.906C46.0682 48.7 46.2222 48.498 46.3822 48.3C49.4762 48.706 52.1582 49.42 54.4902 50.35Z" fill="#FDD406"/>
<path d="M63.2182 51.386C63.5502 51.216 63.8902 51.052 64.2402 50.892V50.89C64.5222 51.076 64.7962 51.264 65.0642 51.454C64.7282 51.614 64.3922 51.784 64.0542 51.966C63.7762 51.766 63.4982 51.572 63.2182 51.386Z" fill="#FDD406"/>
<path d="M62.1191 51.9866L62.1202 51.986H62.1182L62.1191 51.9866Z" fill="#FDD406"/>
<path d="M62.1191 51.9866C61.7375 52.2064 61.3659 52.4322 61.0082 52.666C61.2962 52.866 61.5822 53.076 61.8662 53.292C62.2322 53.044 62.6002 52.808 62.9662 52.586C62.6905 52.3822 62.4088 52.1824 62.1191 51.9866Z" fill="#FDD406"/>
<path fill-rule="evenodd" clip-rule="evenodd" d="M82.8002 60C82.8002 72.5921 72.5923 82.8 60.0002 82.8C47.4081 82.8 37.2002 72.5921 37.2002 60C37.2002 47.4079 47.4081 37.2 60.0002 37.2C72.5923 37.2 82.8002 47.4079 82.8002 60ZM79.2002 60C79.2002 70.6039 70.6041 79.2 60.0002 79.2C49.3963 79.2 40.8002 70.6039 40.8002 60C40.8002 49.3961 49.3963 40.8 60.0002 40.8C70.6041 40.8 79.2002 49.3961 79.2002 60Z" fill="#FDD406"/>
</g>
<defs>
<clipPath id="clip0_330_54">
<rect width="120" height="120" fill="white"/>
</clipPath>
</defs>
</svg>
