<svg width="121" height="120" viewBox="0 0 121 120" fill="none" xmlns="http://www.w3.org/2000/svg">
<g clip-path="url(#clip0_307_80309)">
<path d="M0.455078 120L0.455078 0L120.455 0L0.455078 120Z" fill="#1E9A1C"/>
<path d="M120.455 0V120H0.455078L120.455 0Z" fill="#D91C16"/>
<path d="M90.1685 0L120.455 0V30.2866L30.7417 120H0.455078L0.455078 89.7134L90.1685 0Z" fill="#FDD406"/>
<path d="M98.8218 0L120.455 0V21.6333L22.0884 120H0.455078L0.455078 98.3667L98.8218 0Z" fill="black"/>
<path d="M77.3045 23.5598L87.2538 28.5861L95.1069 20.6782L93.4017 31.6919L103.351 36.718L92.3476 38.5001L90.6422 49.5151L85.5478 39.6014L74.5453 41.3833L82.3993 33.4744L77.3045 23.5598Z" fill="white"/>
<path d="M23.7635 77.4708L33.7129 82.4971L41.5659 74.5892L39.8607 85.6029L49.8098 90.629L38.8066 92.4111L37.1012 103.426L32.0068 93.5124L21.0043 95.2944L28.8584 87.3855L23.7635 77.4708Z" fill="white"/>
</g>
<defs>
<clipPath id="clip0_307_80309">
<rect x="0.455078" width="120" height="120" fill="white"/>
</clipPath>
</defs>
</svg>
