<svg width="120" height="120" viewBox="0 0 120 120" fill="none" xmlns="http://www.w3.org/2000/svg">
<g clip-path="url(#clip0_307_80321)">
<path d="M0 0H120V120H0V0Z" fill="white"/>
<path d="M60.4055 60.6483C56.1783 66.989 47.6113 68.7024 41.2705 64.4753C34.944 60.2576 33.2241 51.7195 37.4151 45.383C33.3768 51.465 31.9126 58.9002 33.3446 66.0605C34.78 73.2375 39.0077 79.5503 45.0976 83.6102C51.1875 87.6702 58.6407 89.1446 65.8178 87.7092C72.9948 86.2738 79.3076 82.0462 83.3676 75.9563C85.3975 72.9113 86.1347 69.1847 85.417 65.5962C84.6993 62.0077 82.5855 58.8512 79.5406 56.8213C76.4956 54.7913 72.769 54.0541 69.1805 54.7718C65.592 55.4895 62.4355 57.6033 60.4055 60.6483Z" fill="#0F3296"/>
<path d="M54.9928 33.5873C47.8318 35.0195 41.5039 39.2723 37.443 45.3402C33.2267 51.6883 34.9292 60.248 41.27 64.4752C47.6108 68.7024 56.1778 66.989 60.405 60.6482C60.4127 60.6367 60.4203 60.6252 60.4279 60.6137C62.4587 57.5873 65.6048 55.4867 69.1798 54.7717C72.7683 54.054 76.4949 54.7913 79.5398 56.8212C82.5848 58.8512 84.6986 62.0076 85.4163 65.5961C86.134 69.1846 85.3969 72.9113 83.3669 75.9562C87.4269 69.8663 88.9013 62.4131 87.4659 55.236C86.0305 48.059 81.8028 41.7462 75.7129 37.6863C69.623 33.6263 62.1698 32.1519 54.9928 33.5873Z" fill="#D91C16"/>
<path d="M3 38.962L18.308 16L22.135 18.5513L6.827 41.5133L3 38.962Z" fill="black"/>
<path d="M29.7891 97.6426L14.4811 74.6806L18.3081 72.1293L33.6161 95.0913L29.7891 97.6426Z" fill="black"/>
<path d="M17.0324 90.9453L24.0486 101.47L27.8756 98.9183L20.8594 88.394L17.0324 90.9453Z" fill="black"/>
<path d="M15.7567 89.0318L8.74059 78.5076L12.5676 75.9563L19.5837 86.4805L15.7567 89.0318Z" fill="black"/>
<path d="M3.00009 82.3346L18.3081 105.297L22.1351 102.745L6.82709 79.7833L3.00009 82.3346Z" fill="black"/>
<path d="M24.0485 19.827L8.74049 42.789L12.5675 45.3403L27.8755 22.3783L24.0485 19.827Z" fill="black"/>
<path d="M14.481 46.616L29.789 23.654L33.616 26.2053L18.308 49.1673L14.481 46.616Z" fill="black"/>
<path d="M94.21 84.5671L87.1939 95.0913L91.0209 97.6426L98.037 87.1184L94.21 84.5671Z" fill="black"/>
<path d="M95.4857 82.6536L99.3127 85.2049L106.329 74.6806L102.502 72.1293L95.4857 82.6536Z" fill="black"/>
<path d="M99.9505 88.3941L92.9344 98.9183L96.7614 101.47L103.778 90.9454L99.9505 88.3941Z" fill="black"/>
<path d="M105.053 89.032L101.226 86.4806L108.242 75.9563L112.069 78.5076L105.053 89.032Z" fill="black"/>
<path d="M105.691 92.2211L98.6749 102.745L102.502 105.297L109.518 94.7724L105.691 92.2211Z" fill="black"/>
<path d="M110.794 92.8589L106.967 90.3076L113.983 79.7833L117.81 82.3346L110.794 92.8589Z" fill="black"/>
<path d="M94.2102 36.7295L87.194 26.2053L91.021 23.654L98.0371 34.1782L94.2102 36.7295Z" fill="black"/>
<path d="M95.4858 38.643L102.502 49.1673L106.329 46.616L99.3128 36.0917L95.4858 38.643Z" fill="black"/>
<path d="M92.9345 22.3783L108.243 45.3403L112.07 42.789L96.7615 19.827L92.9345 22.3783Z" fill="black"/>
<path d="M105.691 29.0755L98.675 18.5513L102.502 16L109.518 26.5242L105.691 29.0755Z" fill="black"/>
<path d="M106.967 30.989L113.983 41.5133L117.81 38.962L110.794 28.4377L106.967 30.989Z" fill="black"/>
</g>
<defs>
<clipPath id="clip0_307_80321">
<rect width="120" height="120" fill="white"/>
</clipPath>
</defs>
</svg>
