<svg width="120" height="120" viewBox="0 0 120 120" fill="none" xmlns="http://www.w3.org/2000/svg">
<path d="M0 0H120V120H0V0Z" fill="#E23726"/>
<path fill-rule="evenodd" clip-rule="evenodd" d="M120 22H0V11H120V22ZM0 33H120V44H0V33Z" fill="white"/>
<path d="M0 0H54.5454V60H0V0Z" fill="#021455"/>
<path fill-rule="evenodd" clip-rule="evenodd" d="M120 65.8H0V55H120V65.8ZM0 76.6H120V87.4H0V76.6ZM120 109H0V98.2H120V109Z" fill="white"/>
<path d="M11.71 22.2161L21.3283 29.2042L17.6544 40.5112L27.2727 33.5231L36.891 40.5112L33.2171 29.2042L42.8355 22.2161H30.9466L27.2727 10.9091L23.5989 22.2161L11.71 22.2161Z" fill="white"/>
</svg>
