<svg width="120" height="120" viewBox="0 0 120 120" fill="none" xmlns="http://www.w3.org/2000/svg">
<g clip-path="url(#clip0_307_79419)">
<path d="M0 120V0H120V120H0Z" fill="#0F3296"/>
<path d="M0 116.258L120 0V24.0203L0 118.5V116.258Z" fill="#F4812F"/>
<path d="M0 118.08L120 23.5V47.0249L0 120V118.08Z" fill="white"/>
<path d="M36.4512 28.9592L41.2985 16.8409L39.2211 29.6517L46.8383 19.2646L41.2985 31.0366L51.3393 22.7269L43.3759 32.7678L55.1479 27.5742L44.7608 35.1915L57.5716 33.114L45.1071 37.9613L67.2662 39.0001L45.1071 40.385L57.5716 45.2323L44.7608 43.1549L55.1479 50.7721L43.3759 45.2323L51.3393 55.2732L41.2985 47.3097L46.8383 59.0818L39.2211 48.6947L41.2985 61.5054L36.4512 49.0409L35.0662 71.2001L34.0275 49.0409L29.1802 61.5054L31.2576 48.6947L23.6404 59.0818L28.8339 47.3097L18.7931 55.2732L27.1028 45.2323L15.3307 50.7721L25.7178 43.1549L12.9071 45.2323L25.0254 40.385L2.86621 39.0001L25.0254 37.9613L12.9071 33.114L25.7178 35.1915L15.3307 27.5742L27.1028 32.7678L18.7931 22.7269L28.8339 31.0366L23.6404 19.2646L31.2576 29.6517L29.1802 16.8409L34.0275 28.9592L35.0662 6.80005L36.4512 28.9592Z" fill="white"/>
</g>
<defs>
<clipPath id="clip0_307_79419">
<rect width="120" height="120" fill="white"/>
</clipPath>
</defs>
</svg>
