<svg width="120" height="120" viewBox="0 0 120 120" fill="none" xmlns="http://www.w3.org/2000/svg">
<path d="M0 0H120V120H0V0Z" fill="#D91C16"/>
<path d="M10 120H0V105L60 60L10 120Z" fill="#FDD406"/>
<path d="M72 120H48L60 60L72 120Z" fill="#FDD406"/>
<path d="M120 105V120H110L60 60L120 105Z" fill="#FDD406"/>
<path d="M60 60L48 0H72L60 60L0 69V51L60 60L0 15V0H10L60 60Z" fill="#FDD406"/>
<path d="M120 69L60 60L120 51V69Z" fill="#FDD406"/>
<path d="M120 0V15L60 60L110 0H120Z" fill="#FDD406"/>
<path d="M59.9998 77.1417C69.4675 77.1417 77.1426 69.4666 77.1426 59.9988C77.1426 50.5311 69.4675 42.856 59.9998 42.856C50.5321 42.856 42.8569 50.5311 42.8569 59.9988C42.8569 69.4666 50.5321 77.1417 59.9998 77.1417Z" fill="#FDD406"/>
<path d="M77.1431 59.9985C77.1429 50.5309 69.4672 42.856 59.9995 42.856C50.532 42.8561 42.8571 50.531 42.8569 59.9985C42.8569 69.3183 50.294 76.9014 59.5571 77.1362L59.9995 77.1421C69.3194 77.1421 76.9027 69.7043 77.1372 60.4409L77.1431 59.9985ZM81.4282 59.9985C81.4282 71.8332 71.8342 81.4272 59.9995 81.4272C48.165 81.4271 38.5708 71.8331 38.5708 59.9985C38.571 48.1641 48.1651 38.57 59.9995 38.5698C71.8341 38.5698 81.4281 48.164 81.4282 59.9985Z" fill="#D91C16"/>
</svg>
