<svg width="120" height="120" viewBox="0 0 120 120" fill="none" xmlns="http://www.w3.org/2000/svg">
<g clip-path="url(#clip0_307_79424)">
<path d="M0 0H120V120H0V0Z" fill="#D91C16"/>
<path d="M0 72V48L120 72V48L0 72ZM54 0H66L60 47.1429L54 0ZM66 120H54L60 72.8571L66 120ZM0 0H18L65.5114 66.6171L0 0ZM0 120H18L65.5114 53.3829L0 120ZM120 0H102L54.4886 66.6171L120 0ZM120 120H102L54.4886 53.3829L120 120Z" fill="#FDD406"/>
<path d="M60.4957 81.8571C72.3675 81.8571 81.9915 72.2632 81.9915 60.4286C81.9915 48.5939 72.3675 39 60.4957 39C48.624 39 39 48.5939 39 60.4286C39 72.2632 48.624 81.8571 60.4957 81.8571Z" fill="#D91C16"/>
<path d="M60.2093 77.7857C69.7067 77.7857 77.4059 70.1106 77.4059 60.6429C77.4059 51.1751 69.7067 43.5 60.2093 43.5C50.7119 43.5 43.0127 51.1751 43.0127 60.6429C43.0127 70.1106 50.7119 77.7857 60.2093 77.7857Z" fill="#FDD406"/>
</g>
<defs>
<clipPath id="clip0_307_79424">
<rect width="120" height="120" fill="white"/>
</clipPath>
</defs>
</svg>
