<svg width="120" height="120" viewBox="0 0 120 120" fill="none" xmlns="http://www.w3.org/2000/svg">
<g clip-path="url(#clip0_909_274919)">
<path d="M0 0H120V120H0V0Z" fill="#021455"/>
<path d="M63.8934 29.5054H115.269L115.208 66.0628C115.635 80.7587 106.476 89.878 89.6218 93.9896C77.655 91.0176 63.8544 84.8704 63.834 66.4798L63.8951 29.5054L63.8934 29.5054Z" fill="white"/>
<path d="M65.0306 30.6074H114.129L114.071 65.6384C114.479 79.7204 105.725 88.4588 89.6188 92.3988C78.1812 89.5514 64.9924 83.6604 64.973 66.0378L65.0313 30.6074H65.0306Z" fill="#54AEF2"/>
<path d="M89.6184 92.5857L89.575 92.575C78.9455 89.9287 64.8119 84.2988 64.7916 66.0381L64.85 30.6072L65.0307 30.6075V30.4263H114.311L114.31 30.6078L114.252 65.6389C114.652 79.4213 106.379 88.4857 89.6617 92.575L89.6184 92.5857ZM65.2121 30.7888L65.1541 66.0383C65.174 84.0193 79.1127 89.5908 89.6192 92.2123C106.119 88.1643 114.284 79.2258 113.89 65.6437L113.947 30.7888H65.2121Z" fill="black"/>
<path d="M113.748 69.7876C111.962 83.2296 101.61 89.1027 89.6172 92.22C79.0026 89.3724 67.5824 84.8264 65.3686 69.8552L113.749 69.7876L113.748 69.7876Z" fill="#AD7D5A"/>
<path d="M87.6732 37.1328L87.6047 32.7178L91.0958 32.752L91.13 37.1328H100.679L100.713 40.5554L91.13 40.5896L91.0535 80.9526L87.6482 80.974L87.6047 40.5554L78.0883 40.5897L78.0903 37.0987L87.6732 37.1328Z" fill="#784B26"/>
<path fill-rule="evenodd" clip-rule="evenodd" d="M79.943 71.4536L88.6836 80.5212C91.706 77.1992 89.6096 64.7821 85.6342 62.4951C85.1577 63.9654 84.3474 65.7283 83.4861 66.2967C81.5913 67.5881 76.9477 69.0979 78.4998 70.0648C78.8538 69.5747 79.7796 69.1118 80.2153 70.2011C80.7326 71.9164 78.282 72.0255 78.282 72.0255C78.282 72.0255 76.7299 71.8347 76.4576 70.2553C76.1853 68.6762 78.7694 67.2343 78.99 67.1241C79.2078 67.0423 82.5842 66.1439 83.1561 63.1484C83.864 60.2075 84.5992 60.6434 84.7355 60.5889C89.1464 61.0245 92.0329 68.9213 92.1964 74.476C92.3597 80.0308 89.9364 83.7068 89.5005 83.9519C89.065 84.1969 78.9899 71.9982 78.9899 71.9982L79.943 71.4536Z" fill="#F4812F"/>
<path d="M89.4894 84.0545C89.2955 84.0545 88.5978 83.5145 84.0084 78.1297C81.4641 75.1445 78.9406 72.0904 78.9154 72.0598L78.8947 72.0348C78.5678 72.108 78.3103 72.1209 78.2863 72.1221C78.2539 72.1193 76.6435 71.9029 76.3623 70.2717C76.0668 68.5584 78.918 67.052 78.9469 67.0375C78.9701 67.0281 78.9971 67.0195 79.035 67.0072C80.3422 66.5883 82.6033 65.5275 83.0609 63.1303C83.6287 60.7719 84.2174 60.4807 84.6619 60.4973C84.6799 60.4975 84.6943 60.499 84.7059 60.4971L84.7277 60.4883L84.7451 60.4926C86.7672 60.6922 88.6853 62.4959 90.1461 65.5713C91.4043 68.2201 92.207 71.548 92.2932 74.473C92.4582 80.0891 89.9725 83.7977 89.548 84.0361C89.532 84.0451 89.5152 84.0545 89.4894 84.0545ZM79.1379 72.0252C83.0029 76.7027 88.8512 83.5994 89.4744 83.8537C89.9396 83.5197 92.2598 79.9223 92.0998 74.4789C91.9387 69.0145 89.0631 61.1338 84.7435 60.6869C84.7164 60.6924 84.6885 60.6916 84.6564 60.6906C84.4596 60.6861 83.8527 60.6686 83.2502 63.1711C82.7746 65.6621 80.442 66.7596 79.0939 67.1916C79.0603 67.2023 79.0367 67.21 79.024 67.2146C78.4492 67.5021 76.317 68.8701 76.5529 70.2389C76.81 71.7301 78.2791 71.9275 78.2937 71.9293C78.2916 71.9285 78.8021 71.9021 79.2939 71.7131L79.8371 71.4025C79.9055 71.3436 79.9668 71.2779 80.0184 71.2051C80.2039 70.9432 80.2389 70.6146 80.1226 70.2289C79.9791 69.8711 79.7695 69.6687 79.5023 69.6359C79.158 69.5936 78.7758 69.8479 78.5783 70.1213L78.5254 70.1945L78.4486 70.1469C78.2016 69.993 78.0814 69.8117 78.0914 69.6082C78.1238 68.949 79.59 68.2246 81.1422 67.4576C81.9803 67.0436 82.8469 66.6152 83.4316 66.2168C84.2709 65.6629 85.0721 63.9158 85.5422 62.4652L85.5789 62.3518L85.6824 62.4113C87.5766 63.501 89.2432 67.0326 89.9281 71.4088C90.4373 74.6625 90.3967 78.782 88.7551 80.5861L88.6855 80.6627L79.9289 71.5783C79.7633 71.7133 79.5685 71.8148 79.3721 71.8914L79.1379 72.0252ZM80.0705 71.4465L88.6803 80.3783C89.9613 78.8695 90.3668 75.4631 89.7369 71.4387C89.0732 67.1984 87.4914 63.7699 85.6883 62.6404C85.2031 64.0984 84.3965 65.8119 83.5394 66.3773C82.9447 66.7828 82.0719 67.2141 81.2279 67.6311C79.8609 68.3064 78.3115 69.0721 78.2848 69.6176C78.2793 69.7295 78.343 69.8334 78.4791 69.934C78.7154 69.6514 79.1201 69.3951 79.526 69.4438C79.7615 69.4729 80.0877 69.6215 80.3051 70.165C80.4424 70.6191 80.398 71.0041 80.176 71.3174C80.1435 71.3629 80.1084 71.4059 80.0705 71.4465Z" fill="black"/>
<path d="M86.3148 63.0127L86.369 79.3776L86.3148 63.0127Z" fill="#F4812F"/>
<path d="M86.4115 63.0121L86.2181 63.0127L86.2722 79.3777L86.4656 79.3771L86.4115 63.0121Z" fill="black"/>
<path d="M85.3345 63.3115C85.3345 63.3388 85.3888 78.1792 85.3888 78.1792L85.3345 63.3115Z" fill="#F4812F"/>
<path d="M85.2922 78.1797C85.2898 77.5736 85.2379 63.3387 85.2379 63.3115H85.4312C85.4314 63.3564 85.4851 78.0307 85.4855 78.1789L85.2922 78.1797Z" fill="black"/>
<path d="M84.2726 65.4629L84.3268 77.2806L84.2726 65.4629Z" fill="#F4812F"/>
<path d="M84.3693 65.4625L84.176 65.4634L84.2301 77.2811L84.4234 77.2803L84.3693 65.4625Z" fill="black"/>
<path d="M83.4012 66.3071L83.4557 76.0829L83.4012 66.3071Z" fill="#F4812F"/>
<path d="M83.4979 66.3065L83.3045 66.3076L83.359 76.0834L83.5524 76.0823L83.4979 66.3065Z" fill="black"/>
<path d="M82.5721 66.7427H82.3787V74.9933H82.5721V66.7427Z" fill="black"/>
<path d="M81.5645 67.3965H81.3711V73.9314H81.5645V67.3965Z" fill="black"/>
<path d="M80.6934 67.9136H80.5V72.9237H80.6934V67.9136Z" fill="black"/>
<path d="M88.8199 82.9047C88.793 82.9047 88.7662 82.8935 88.7471 82.8717L79.734 72.5515C79.6988 72.5113 79.7029 72.4502 79.7432 72.415C79.7834 72.3799 79.8445 72.384 79.8797 72.4242L88.8928 82.7443C88.9279 82.7845 88.9238 82.8457 88.8836 82.8808C88.8652 82.8968 88.8426 82.9047 88.8199 82.9047Z" fill="#FDD406"/>
<path d="M89.5547 82.4449C89.5267 82.4449 89.4984 82.4384 89.4719 82.4248C89.383 82.3789 89.3478 82.2697 89.3937 82.1806C93.0957 74.9902 89.131 66.1439 89.0906 66.0554C89.049 65.9644 89.089 65.8568 89.1801 65.8152C89.2709 65.7738 89.3787 65.8136 89.4203 65.9046C89.4615 65.9947 93.4976 75.0013 89.716 82.3466C89.6838 82.4091 89.6205 82.4449 89.5547 82.4449Z" fill="#FDD406"/>
<path d="M78.7447 70.7905C78.7232 70.7905 78.7014 70.7866 78.6803 70.7786C78.5867 70.7429 78.5398 70.6384 78.5752 70.545C78.6105 70.4519 78.8035 69.9835 79.1342 69.8991C79.2326 69.8735 79.384 69.8724 79.5436 70.0087C79.6195 70.0739 79.6283 70.1884 79.5633 70.2644C79.4979 70.3405 79.3834 70.3491 79.3076 70.2841C79.2584 70.2417 79.2342 70.2476 79.2238 70.2503C79.1172 70.2773 78.9754 70.5136 78.9141 70.6737C78.8865 70.746 78.8176 70.7905 78.7447 70.7905Z" fill="#FDD406"/>
<path d="M77.3018 70.8721C77.2545 70.8721 77.2072 70.8538 77.1717 70.817C76.9471 70.5858 76.8395 70.3081 76.8516 69.9918C76.8856 69.1067 77.8748 68.2231 77.917 68.1858C77.992 68.12 78.1061 68.1268 78.1727 68.2016C78.2389 68.2766 78.2318 68.3913 78.157 68.4575C78.1479 68.4657 77.2414 69.2764 77.2139 70.0065C77.2057 70.2225 77.277 70.4051 77.4318 70.5647C77.5016 70.6366 77.4998 70.7512 77.4279 70.8209C77.3928 70.8551 77.3473 70.8721 77.3018 70.8721Z" fill="#FDD406"/>
<path d="M91.1559 45.6088C91.761 45.0898 92.0749 44.7726 92.4496 44.8303C92.8243 44.8879 93.3345 44.859 93.7092 44.7437C94.0851 44.6283 95.9446 44.3976 96.7092 44.6571C96.9687 44.686 97.3143 44.8303 97.8472 45.2773C98.3814 45.7241 99.1599 46.5028 98.9004 48.6656C98.6409 50.8283 98.7257 51.7533 98.6118 52.9622C98.4105 55.0962 97.9371 56.8533 97.0839 56.711C98.2371 58.7296 98.3523 60.4598 99.1017 61.844C99.8523 63.2282 100.313 66.0542 100.024 69.111C99.7371 72.1678 98.9295 79.0308 101.351 83.6448C100.947 83.9332 99.9675 83.6448 99.1017 82.722C98.2371 81.7992 97.8574 81.8295 97.1409 82.376C94.9497 84.0485 92.8978 86.0644 89.8749 84.0485C89.1825 83.5871 88.9635 83.0337 89.4711 81.6262C90.7395 78.1082 91.356 73.2812 91.156 71.0142L91.1559 45.6088Z" fill="#1E9A1C"/>
<path d="M92.3421 84.9255C91.5773 84.9255 90.7558 84.6837 89.8529 84.0815C89.1839 83.6358 88.9009 83.089 89.4336 81.6126C90.6916 78.1241 91.3193 73.3179 91.1164 71.0177L91.1162 45.5903L91.13 45.5784C91.1939 45.5236 91.2546 45.4711 91.3125 45.421C91.8048 44.994 92.1013 44.7353 92.4556 44.7908C92.8402 44.8496 93.3394 44.8158 93.6974 44.7055C94.042 44.5996 95.9238 44.3481 96.722 44.6192C97.0351 44.6531 97.4035 44.853 97.8728 45.2466C98.3088 45.6113 99.216 46.3702 98.94 48.6702C98.7806 49.9988 98.7515 50.8532 98.7259 51.607C98.7103 52.0659 98.6955 52.4994 98.6515 52.9658C98.5207 54.3523 98.2265 56.1114 97.5675 56.6183C97.4392 56.7171 97.3 56.7637 97.1566 56.7584C97.7814 57.8707 98.0988 58.9042 98.3793 59.8182C98.6009 60.5399 98.8103 61.2218 99.1369 61.8249C99.8216 63.088 100.374 65.8317 100.064 69.1145C100.05 69.2622 100.035 69.4188 100.019 69.5837C99.7168 72.7198 99.0873 79.2456 101.386 83.6263L101.403 83.6571L101.374 83.6772C100.962 83.9718 99.965 83.7005 99.0726 82.7493C98.2263 81.8462 97.8711 81.8686 97.1652 82.4075C96.9763 82.5518 96.7882 82.6985 96.6007 82.845C95.2841 83.8733 93.9371 84.9255 92.3421 84.9255ZM91.1959 45.627V71.0142C91.3994 73.3192 90.7701 78.1411 89.5086 81.6395C88.9912 83.0743 89.2459 83.5813 89.897 84.0151C92.6351 85.8411 94.5377 84.3554 96.5517 82.7821C96.7394 82.6354 96.9277 82.4886 97.1168 82.3442C97.8546 81.7813 98.2488 81.7534 99.1308 82.6946C99.9728 83.5921 100.897 83.8733 101.299 83.6313C99.0088 79.23 99.6375 72.7122 99.94 69.5761C99.9558 69.4112 99.9711 69.2548 99.9849 69.1071C100.293 65.8409 99.7459 63.1153 99.0668 61.8628C98.7365 61.2528 98.5259 60.5673 98.3031 59.8416C98.0181 58.9132 97.6951 57.8609 97.0494 56.7308L97.0076 56.6578L97.0906 56.6716C97.241 56.6972 97.3857 56.6575 97.5189 56.5551C98.0154 56.1732 98.3894 54.8959 98.5722 52.9584C98.616 52.4943 98.6306 52.062 98.6463 51.6043C98.6718 50.8489 98.7009 49.9927 98.8607 48.6606C99.1316 46.4036 98.2468 45.6635 97.8216 45.3077C97.3648 44.9247 97.0099 44.7306 96.7046 44.6967C95.9627 44.4458 94.1183 44.6596 93.7209 44.7816C93.3523 44.8951 92.8392 44.9305 92.4435 44.8696C92.1259 44.8202 91.8398 45.0693 91.3646 45.4812C91.3109 45.5277 91.2548 45.5764 91.1959 45.627Z" fill="black"/>
<path d="M93.2344 43.4462C93.3926 43.9364 93.4787 44.5707 93.2192 45.1475C92.9597 45.7242 92.9027 46.4163 93.3344 47.2526C94.0268 46.2722 95.0078 46.4741 95.5838 45.8973C96.161 45.3205 96.2762 44.7726 96.7091 44.6572C96.2762 44.2824 95.6129 43.8787 95.7572 42.7828C95.9015 41.687 97.4294 40.7932 96.0458 39.1205C95.1521 38.0408 93.8534 38.342 93.2913 38.7601C93.0268 38.9566 92.8015 39.2358 92.7154 39.4233C92.628 39.6108 92.7369 40.0373 92.5268 40.2885C92.3837 40.4614 92.209 40.6334 92.0078 40.7786C91.8786 40.8724 91.7976 41.009 91.9356 41.168C91.9913 41.2315 92.0926 41.2451 92.204 41.2837C92.1394 41.4134 92.066 41.5428 91.9938 41.6366C91.9255 41.7246 91.9546 41.8085 92.0369 41.8802C91.928 42.2261 92.1381 42.2637 91.9938 42.5233C91.8685 42.7478 91.6989 43.0134 92.1673 43.2731C92.2964 43.3451 92.9103 43.4876 93.2344 43.4462Z" fill="#FFE2BD"/>
<path d="M93.3291 47.329L93.299 47.2706C92.9111 46.5193 92.8732 45.8194 93.1828 45.1309C93.443 44.5527 93.3422 43.9246 93.2062 43.489C92.8752 43.5177 92.2877 43.3856 92.148 43.3078C91.9697 43.2089 91.866 43.101 91.8312 42.9783C91.7848 42.8143 91.8709 42.6607 91.9471 42.5253L91.9592 42.5037C92.0248 42.3853 92.0098 42.3239 91.9889 42.2388C91.9689 42.158 91.9445 42.0581 91.9916 41.8923C91.9029 41.8039 91.8918 41.7028 91.9625 41.612C92.0187 41.5386 92.0824 41.4338 92.1474 41.307C92.1346 41.3031 92.1219 41.2993 92.1096 41.2957C92.0299 41.2721 91.9547 41.25 91.9057 41.194C91.8439 41.1229 91.817 41.0499 91.8254 40.9766C91.8348 40.8946 91.8896 40.8149 91.9844 40.7462C92.1689 40.613 92.341 40.4504 92.4961 40.2629C92.6162 40.1191 92.625 39.9084 92.6324 39.7224C92.6377 39.5956 92.6422 39.486 92.6793 39.4062C92.7603 39.2297 92.9791 38.942 93.2676 38.7278C93.9117 38.2489 95.2086 38.0465 96.0766 39.0949C97.0498 40.2715 96.5961 41.0914 96.1957 41.8147C96.0129 42.1448 95.8404 42.4566 95.7967 42.7878C95.6707 43.7454 96.1805 44.1666 96.59 44.5051C96.6402 44.5466 96.6891 44.5869 96.7353 44.6268L96.7922 44.6761L96.7195 44.6955C96.4826 44.7587 96.3461 44.9597 96.1572 45.2381C96.0166 45.4454 95.857 45.6804 95.6119 45.9254C95.3652 46.1724 95.0494 46.2793 94.715 46.3924C94.2471 46.5507 93.7631 46.7144 93.367 47.2754L93.3291 47.329ZM93.2621 43.4021L93.2723 43.4338C93.4174 43.8834 93.5322 44.5485 93.2555 45.1636C92.9644 45.8108 92.9922 46.4697 93.3406 47.176C93.7451 46.6363 94.2459 46.4669 94.6894 46.3169C95.0146 46.2068 95.3221 46.1028 95.5557 45.8689C95.7953 45.6294 95.9525 45.3977 96.0914 45.1932C96.265 44.9372 96.4057 44.7301 96.6295 44.6414C96.6 44.6168 96.5699 44.5919 96.5392 44.5666C96.1144 44.2156 95.5857 43.7788 95.7178 42.7774C95.7633 42.4312 95.9394 42.113 96.126 41.776C96.533 41.0408 96.9537 40.2804 96.0152 39.1457C95.1008 38.0409 93.8012 38.4302 93.3152 38.7919C93.0504 38.9885 92.8312 39.2666 92.7516 39.4396C92.7211 39.5052 92.7168 39.6123 92.7121 39.7257C92.7041 39.9243 92.6949 40.1495 92.5574 40.3138C92.3982 40.5064 92.2211 40.6736 92.031 40.8107C91.9781 40.8492 91.9131 40.9109 91.9047 40.9856C91.8988 41.0358 91.9195 41.0883 91.9658 41.1416C91.9994 41.1801 92.0609 41.1981 92.132 41.2192C92.1594 41.2272 92.1879 41.2357 92.2172 41.2458L92.2599 41.2606L92.2398 41.3012C92.1641 41.4532 92.092 41.5742 92.0256 41.6607C91.9943 41.7009 91.9644 41.7639 92.0631 41.8499L92.0828 41.8671L92.075 41.8919C92.0248 42.0511 92.0459 42.1369 92.0662 42.2198C92.0887 42.3108 92.1098 42.3967 92.0287 42.5425L92.0166 42.5643C91.9447 42.6922 91.8705 42.8245 91.9078 42.9565C91.9365 43.0579 92.0277 43.1499 92.1867 43.2381C92.3101 43.3069 92.9135 43.4476 93.2293 43.4063L93.2621 43.4021Z" fill="black"/>
<path d="M87.6254 49.1844C86.8178 49.3863 85.5203 49.0403 84.5392 49.1555C84.1063 49.2066 83.7608 48.9826 83.819 48.5501C83.8759 48.1174 83.9342 47.4542 83.8468 46.8486C83.7126 45.9049 84.1646 44.5993 84.7987 43.1574C85.4329 41.7156 85.7507 40.9082 85.7507 40.2305C85.7507 39.7835 85.7937 39.2788 86.1975 39.0193C86.4963 38.8276 86.5532 38.6414 86.6595 38.4859C86.9039 38.1254 87.1342 38.0389 87.1634 38.2553C87.1811 38.3839 87.1342 38.5003 87.019 38.6734C87.2785 38.4571 87.7191 38.2046 87.8191 38.1326C87.9203 38.0606 88.433 37.7001 88.4608 38.0389C88.6634 37.9381 88.8001 37.9451 88.8507 38.0532C88.9052 38.1702 88.8722 38.2192 88.771 38.3057C88.9153 38.2768 89.0811 38.5292 88.7925 38.7526C88.9444 38.7021 89.095 38.9545 88.8292 39.1852C88.5532 39.4233 88.238 39.589 88.1368 39.7763C88.0355 39.9638 87.3507 40.4901 87.0773 40.6054C86.8026 40.7208 86.7887 40.879 86.7887 41.2831C86.7887 45.7239 86.2557 45.3631 86.2557 46.4305C86.2557 46.7189 86.1975 46.9784 86.4861 46.8918C86.7747 46.8053 87.1925 46.6756 87.6254 46.6756V49.1844Z" fill="#FFE2BD"/>
<path d="M86.9855 49.2894C86.6848 49.2894 86.3566 49.2609 86.0182 49.2315C85.5139 49.1878 84.9922 49.1427 84.5439 49.1952C84.2851 49.2256 84.0584 49.1617 83.9187 49.0199C83.8017 48.9011 83.7537 48.7368 83.7795 48.545C83.8656 47.8917 83.875 47.323 83.8074 46.8545C83.6613 45.8279 84.2082 44.4015 84.7623 43.1416C85.431 41.6211 85.7107 40.8806 85.7107 40.2307C85.7107 39.7395 85.767 39.2488 86.176 38.9861C86.4008 38.8417 86.481 38.7052 86.5588 38.5732C86.581 38.5353 86.6027 38.4988 86.6267 38.4636C86.7994 38.209 86.974 38.0744 87.0934 38.102C87.1277 38.1102 87.1881 38.1402 87.2027 38.2502C87.2156 38.3433 87.1967 38.4288 87.1549 38.5189C87.3162 38.4028 87.4996 38.2882 87.633 38.205C87.7078 38.1582 87.7666 38.1216 87.7959 38.1005C87.9939 37.9594 88.2594 37.8065 88.4045 37.873C88.4476 37.8931 88.4766 37.9293 88.491 37.981C88.6109 37.9284 88.708 37.9145 88.7814 37.9403C88.8291 37.9569 88.8646 37.9893 88.8869 38.0364C88.9392 38.1495 88.9172 38.2151 88.86 38.2772C88.9057 38.2964 88.9453 38.3349 88.9691 38.3869C89.0076 38.4711 89.0021 38.5959 88.8906 38.7174C88.9283 38.732 88.9615 38.7606 88.9846 38.8009C89.0377 38.8944 89.0357 39.0589 88.8553 39.2155C88.7539 39.303 88.6498 39.3789 88.5492 39.4525C88.3791 39.5767 88.232 39.684 88.1719 39.7955C88.0644 39.9945 87.3631 40.5283 87.0928 40.6424C86.8406 40.7483 86.8285 40.8807 86.8285 41.2832C86.8285 44.269 86.5881 45.0883 86.4291 45.6305C86.3516 45.8946 86.2955 46.0853 86.2955 46.4307C86.2955 46.4742 86.2941 46.5171 86.293 46.5582C86.2889 46.6909 86.2851 46.8163 86.3344 46.8542C86.3607 46.8743 86.408 46.8738 86.4746 46.8538L86.5029 46.8453C86.7973 46.757 87.2004 46.636 87.6254 46.636H87.6652V49.2157L87.635 49.2233C87.441 49.2718 87.2217 49.2894 86.9855 49.2894ZM84.9967 49.0917C85.3297 49.0917 85.6812 49.1223 86.025 49.1521C86.6092 49.2029 87.1615 49.2507 87.5855 49.1531V46.716C87.1867 46.7234 86.806 46.8375 86.5258 46.9217L86.4976 46.9302C86.4029 46.9585 86.3336 46.9544 86.2859 46.9175C86.2041 46.8547 86.2084 46.7161 86.2133 46.5558C86.2144 46.5155 86.2158 46.4734 86.2158 46.4307C86.2158 46.0738 86.2762 45.8683 86.3525 45.608C86.5103 45.0702 86.7488 44.2575 86.7488 41.2832C86.7488 40.879 86.7615 40.695 87.0619 40.569C87.3387 40.4521 88.0092 39.9289 88.1016 39.7576C88.1705 39.6302 88.3242 39.518 88.5021 39.3881C88.6016 39.3155 88.7043 39.2405 88.8031 39.1552C88.9471 39.0304 88.9535 38.9075 88.9152 38.8404C88.89 38.7962 88.8469 38.7775 88.8051 38.7906L88.7682 38.7213C88.9504 38.5801 88.9125 38.455 88.8965 38.42C88.8726 38.3676 88.823 38.3356 88.7787 38.3449L88.6283 38.3751L88.7451 38.2755C88.8392 38.1952 88.8584 38.1646 88.8146 38.0702C88.8017 38.0429 88.7824 38.025 88.7553 38.0155C88.7125 38.0008 88.6305 37.9992 88.4785 38.0749L88.4258 38.1011L88.4211 38.0424C88.4146 37.9657 88.3816 37.9504 88.3709 37.9453C88.2863 37.9061 88.0898 37.9887 87.8422 38.1654C87.8125 38.1868 87.7521 38.2245 87.6752 38.2726C87.4959 38.3846 87.225 38.5537 87.0445 38.7042L86.9857 38.6515C87.1017 38.4775 87.1391 38.3716 87.1238 38.261C87.1174 38.213 87.101 38.1858 87.075 38.1796C87.0086 38.1635 86.8607 38.2604 86.6926 38.5085C86.6695 38.5423 86.6488 38.5774 86.6275 38.6136C86.5488 38.7472 86.4598 38.8986 86.2189 39.0531C85.8424 39.2951 85.7904 39.7621 85.7904 40.2307C85.7904 40.895 85.5088 41.6424 84.8353 43.1737C84.2857 44.4233 83.7432 45.8364 83.8863 46.8433C83.9549 47.3188 83.9455 47.8949 83.8584 48.5555C83.8361 48.7221 83.8766 48.8634 83.9756 48.964C84.0976 49.0881 84.301 49.143 84.5346 49.1161C84.6824 49.0988 84.8375 49.0917 84.9967 49.0917Z" fill="black"/>
<path d="M87.7976 58.7584C89.1014 58.1067 90.5951 57.8644 91.3736 57.6627C92.1521 57.4608 93.3926 56.8553 93.9977 56.5381C94.6041 56.2207 95.094 55.7882 95.4395 55.6729C95.7864 55.5576 96.1737 55.319 96.3914 54.8944C97.5155 52.7027 98.1219 50.9439 98.1219 49.4153C98.1219 48.406 97.8624 47.2813 96.8813 48.0888C95.9598 48.8478 94.956 50.3109 94.6902 51.3762C94.2864 52.991 93.9408 53.3371 93.8534 53.6542C93.7673 53.9716 93.4408 53.9712 93.0458 54.058C91.3445 54.433 90.9407 54.6923 89.6723 55.644C88.404 56.5957 87.0191 57.432 86.0963 57.951C85.1735 58.4701 85.0014 58.5277 84.7988 58.9458C84.5976 59.364 84.4102 59.6812 84.2368 59.8688C84.0634 60.0561 84.014 60.2752 84.0494 60.5031C84.0786 60.6906 83.9912 61.5556 83.9773 61.844C83.9621 62.1324 84.0343 62.2045 84.1507 62.2188C84.2659 62.2334 84.4241 62.1757 84.4824 61.8296C84.4241 62.1757 84.9001 62.0602 84.9292 61.8008C84.914 62.1757 85.4191 61.9594 85.4482 61.6134C85.4482 61.8584 85.8305 61.6889 85.8659 61.5701C85.952 61.2817 86.0242 60.9645 86.1394 60.7339C86.3077 60.399 86.4875 59.9654 86.8178 59.7245C87.1925 59.4505 87.0191 59.1478 87.7976 58.7584Z" fill="#FFE2BD"/>
<path d="M84.1807 62.2604C84.1678 62.2604 84.1559 62.2595 84.1457 62.2581C83.9834 62.2384 83.923 62.1177 83.9375 61.8417C83.9418 61.7526 83.9531 61.6085 83.9658 61.446C83.9926 61.1034 84.0295 60.6343 84.01 60.5091C83.9699 60.2509 84.0363 60.0263 84.2074 59.8416C84.3699 59.6658 84.5516 59.3671 84.7629 58.9284C84.9484 58.5455 85.1109 58.4549 85.7951 58.0735C85.8805 58.0261 85.974 57.9739 86.0768 57.9161C86.8232 57.4964 88.2799 56.6388 89.6482 55.6119C90.9141 54.6623 91.3162 54.3982 93.0373 54.0189C93.1049 54.0041 93.1705 53.9918 93.2332 53.98C93.5332 53.9236 93.75 53.8829 93.8148 53.6436C93.8418 53.5459 93.8904 53.4491 93.9578 53.3152C94.1113 53.0101 94.3682 52.4994 94.6516 51.3664C94.9102 50.3303 95.899 48.8461 96.8559 48.0579C97.1748 47.7955 97.4457 47.7137 97.6598 47.8151C98.0965 48.0213 98.1617 48.906 98.1617 49.4151C98.1617 50.8775 97.6268 52.5729 96.4269 54.9124C96.1719 55.4097 95.7066 55.626 95.4519 55.7105C95.2734 55.7702 95.0502 55.9203 94.7918 56.0941C94.5621 56.2486 94.3019 56.4237 94.0162 56.5733C93.7355 56.7204 92.2898 57.4661 91.3836 57.7012C91.2184 57.744 91.0252 57.7877 90.8014 57.8384C89.9732 58.0257 88.8393 58.2823 87.8154 58.7939C87.3475 59.028 87.2353 59.223 87.1271 59.4117C87.0578 59.5322 86.9924 59.6461 86.8412 59.7565C86.5621 59.9601 86.3922 60.3083 86.242 60.6153C86.2193 60.662 86.1969 60.7077 86.1748 60.7517C86.0898 60.922 86.0269 61.1466 85.9662 61.364C85.9457 61.437 85.9254 61.5101 85.9041 61.5813C85.873 61.6858 85.6686 61.7944 85.5385 61.7763C85.5059 61.7714 85.4787 61.7593 85.458 61.7409C85.3861 61.9188 85.2074 62.0433 85.0619 62.0368C84.9932 62.0325 84.9424 61.9983 84.9143 61.9407C84.8727 61.9962 84.8144 62.0358 84.7602 62.0585C84.6637 62.0981 84.566 62.0925 84.5055 62.0444C84.4953 62.0362 84.485 62.0261 84.4754 62.0134C84.3955 62.2235 84.2633 62.2604 84.1807 62.2604ZM97.468 47.8528C97.3102 47.8528 97.1223 47.942 96.9066 48.1194C95.9609 48.8984 94.984 50.3637 94.7289 51.3857C94.4434 52.5273 94.184 53.043 94.0291 53.3511C93.9639 53.4809 93.9166 53.5747 93.8918 53.6647C93.8139 53.952 93.5516 54.0014 93.248 54.0584C93.1859 54.07 93.1213 54.0822 93.0545 54.0969C91.3496 54.4726 90.951 54.7343 89.6963 55.6758C88.3242 56.7053 86.8641 57.5648 86.1158 57.9856C86.0129 58.0435 85.9193 58.0957 85.834 58.1433C85.1512 58.5237 85.0092 58.6029 84.8348 58.9631C84.6199 59.4089 84.434 59.7141 84.266 59.8957C84.1123 60.0617 84.0527 60.264 84.0889 60.497C84.1096 60.6311 84.074 61.0864 84.0453 61.4522C84.0326 61.6138 84.0215 61.7571 84.0172 61.8458C84.0018 62.1358 84.0771 62.1694 84.1557 62.179C84.2961 62.1974 84.4014 62.0708 84.4432 61.8227L84.5217 61.836C84.5137 61.8841 84.5129 61.9483 84.5551 61.9819C84.5928 62.0116 84.6609 62.0132 84.7295 61.9849C84.7967 61.9569 84.8789 61.8907 84.8894 61.7962L84.9689 61.8022C84.9662 61.87 84.9811 61.9518 85.067 61.9571C85.1891 61.9686 85.3916 61.8124 85.4086 61.6099L85.4881 61.6132C85.4881 61.6798 85.5211 61.6931 85.5498 61.6974C85.6533 61.7118 85.8107 61.6153 85.8275 61.5587C85.8488 61.4878 85.8691 61.4151 85.8894 61.3425C85.9512 61.1216 86.0152 60.8931 86.1035 60.7159C86.1256 60.6722 86.1477 60.6268 86.1703 60.5804C86.3246 60.2649 86.4992 59.9073 86.7943 59.6921C86.9316 59.5917 86.9902 59.4898 87.058 59.372C87.1668 59.1823 87.2902 58.9675 87.7799 58.7227C88.8123 58.2065 89.9518 57.9488 90.7838 57.7605C91.0068 57.7101 91.1996 57.6665 91.3637 57.624C92.0598 57.4435 93.2076 56.9071 93.9791 56.5026C94.2609 56.3552 94.5193 56.1813 94.7473 56.028C95.0105 55.851 95.2379 55.698 95.4268 55.635C95.6699 55.5541 96.1139 55.348 96.3559 54.8761C97.5496 52.5484 98.082 50.8643 98.082 49.4151C98.082 48.581 97.9158 48.0241 97.6258 47.8873C97.5771 47.8643 97.5244 47.8528 97.468 47.8528Z" fill="black"/>
<path d="M97.1408 82.3759C97.2281 82.6931 97.3864 83.0536 97.4433 83.2699C97.5016 83.4862 97.4003 83.5536 97.3433 83.6736C97.0408 84.3081 96.7155 85.3194 96.6648 85.8652C96.637 86.1824 96.4205 86.4852 96.3193 86.6727C96.2079 86.8794 96.2509 87.0389 96.5066 87.235C96.6294 87.3286 97.0256 87.2061 97.0686 87.0043C97.2129 87.1484 97.4724 87.0908 97.5876 86.8744C97.718 87.0043 97.9345 86.9177 98.0788 86.7015C98.2079 86.788 98.3952 86.615 98.4674 86.4995C98.6699 86.6005 98.8864 86.478 98.8927 86.0815C98.8939 86.0019 98.9434 85.8652 99.0016 85.7715C99.0585 85.6777 99.0801 85.4976 99.0737 85.3389C99.0661 85.1802 99.1674 84.8631 99.3041 84.6396C99.4408 84.416 99.6788 84.0196 99.5775 83.6448C99.4839 83.2955 99.3332 83.3275 99.2028 82.823C98.8864 82.4912 98.4535 82.0298 98.0066 82.0009C97.5598 81.9722 97.3003 82.275 97.1408 82.3759Z" fill="#FFE2BD"/>
<path d="M96.6287 87.3068C96.5728 87.3068 96.5205 87.2956 96.4824 87.2665C96.2168 87.0628 96.1594 86.8853 96.2842 86.6538C96.3041 86.6171 96.3283 86.5761 96.3545 86.5314C96.4596 86.3529 96.6033 86.1085 96.6252 85.8616C96.6785 85.2866 97.0209 84.2572 97.3074 83.6564C97.3213 83.6269 97.3379 83.6003 97.3543 83.5741C97.4029 83.4964 97.4449 83.4292 97.4049 83.2804C97.3787 83.181 97.3295 83.047 97.2773 82.9052C97.2174 82.7421 97.1494 82.5572 97.1023 82.3865L97.0945 82.3579L97.1195 82.3423C97.1502 82.3228 97.1855 82.2949 97.2266 82.2624C97.3904 82.1327 97.6375 81.9366 98.0092 81.9611C98.4641 81.9906 98.8984 82.446 99.2158 82.7786L99.2416 82.813C99.3113 83.0833 99.385 83.1925 99.456 83.2984C99.5156 83.3868 99.5721 83.4704 99.616 83.6345C99.7232 84.031 99.4726 84.4404 99.3381 84.6605C99.209 84.8716 99.1062 85.1814 99.1137 85.3368C99.1195 85.4855 99.1021 85.6829 99.0355 85.7923C98.9797 85.8822 98.9336 86.012 98.9326 86.0822C98.9291 86.3013 98.8619 86.4615 98.7434 86.5335C98.666 86.5808 98.574 86.5859 98.4816 86.5495C98.4232 86.6298 98.315 86.7357 98.2025 86.7597C98.1627 86.7685 98.1252 86.7661 98.0914 86.7529C97.9975 86.8808 97.8762 86.9626 97.7619 86.974C97.7002 86.9804 97.6455 86.9665 97.598 86.9345C97.5307 87.0349 97.4281 87.1029 97.3164 87.1195C97.2336 87.1327 97.1521 87.1146 97.0865 87.0704C97.0449 87.1513 96.9541 87.2224 96.8324 87.2675C96.7725 87.2896 96.6978 87.3068 96.6287 87.3068ZM97.1869 82.3929C97.2326 82.5527 97.2959 82.7249 97.3521 82.8777C97.4049 83.0214 97.4549 83.157 97.4818 83.2599C97.5309 83.4419 97.4754 83.5306 97.4219 83.6163C97.407 83.6402 97.392 83.664 97.3793 83.6906C97.0611 84.3581 96.7521 85.3556 96.7045 85.8689C96.6812 86.1333 96.5322 86.3866 96.4232 86.5718C96.3975 86.6156 96.3738 86.6558 96.3545 86.6917C96.2658 86.856 96.2644 86.9988 96.5309 87.2033C96.5777 87.2388 96.6924 87.2345 96.8047 87.1927C96.9271 87.1474 97.0135 87.072 97.0295 86.996L97.0447 86.9245L97.0967 86.9761C97.1506 87.03 97.2252 87.0521 97.3047 87.0408C97.4062 87.0255 97.4988 86.9564 97.5525 86.8558L97.5777 86.8083L97.6158 86.8462C97.6535 86.8837 97.7002 86.9011 97.7539 86.8947C97.8533 86.8847 97.9623 86.8042 98.0455 86.6794L98.0678 86.6462L98.101 86.6683C98.125 86.6843 98.1527 86.6886 98.1857 86.6818C98.273 86.663 98.3803 86.5636 98.4336 86.4784L98.4527 86.4478L98.4851 86.4638C98.5627 86.5029 98.6398 86.5031 98.7019 86.4654C98.7961 86.4081 98.8498 86.2716 98.8529 86.081C98.8541 85.9958 98.9035 85.8536 98.9678 85.7505C99.0146 85.6732 99.0408 85.512 99.034 85.3404C99.0258 85.1691 99.1316 84.8452 99.2701 84.6189C99.3984 84.4091 99.6373 84.0187 99.5391 83.6552C99.4984 83.504 99.4482 83.4292 99.39 83.3429C99.3193 83.238 99.2394 83.1193 99.167 82.8431L99.158 82.8337C98.8498 82.5107 98.4279 82.0681 98.0041 82.0408C97.6623 82.0169 97.4396 82.1956 97.2762 82.3249C97.2435 82.3507 97.2142 82.3738 97.1869 82.3929Z" fill="black"/>
<path d="M88.9368 84.8563C89.3406 85.2599 90.2495 85.2744 90.8836 84.5966C90.6533 84.4957 90.1482 84.265 89.9178 84.0776C89.6001 84.3949 89.2393 84.7552 88.9368 84.8563Z" fill="#FFE2BD"/>
<path d="M89.7017 85.1769C89.3832 85.1769 89.0953 85.071 88.9086 84.8843L88.8629 84.8388L88.924 84.8183C89.2179 84.72 89.5748 84.3638 89.8896 84.0493L89.915 84.0239L89.9429 84.0466C90.1625 84.2249 90.6365 84.4448 90.8996 84.5599L90.9511 84.5825L90.9127 84.6235C90.5859 84.9729 90.1644 85.1692 89.7259 85.1767C89.7177 85.1769 89.7097 85.1769 89.7017 85.1769ZM89.0109 84.8704C89.1826 85.0155 89.4297 85.0972 89.7015 85.0972C89.7091 85.0972 89.7168 85.0972 89.7246 85.097C90.124 85.0901 90.5091 84.9177 90.8152 84.6099C90.5533 84.4937 90.1422 84.2987 89.9209 84.1306C89.6271 84.4239 89.3 84.746 89.0109 84.8704Z" fill="black"/>
<path d="M93.018 39.005C93.1762 37.9813 93.9016 38.0055 94.3585 38.111C94.5459 38.1543 95.0079 38.1975 95.4396 38.0822C96.2953 37.8542 96.9396 38.1543 96.8535 38.9762C97.0839 39.1492 97.3282 39.5528 97.2852 39.899C97.2421 40.245 97.3143 40.3892 97.632 40.4324C97.9485 40.4758 98.627 40.865 98.1789 41.4129C98.6118 41.6725 98.9434 42.3357 98.7131 42.7827C98.4827 43.2296 97.7903 43.3018 97.5016 42.898C97.1852 43.0421 96.6649 43.071 96.3485 42.7395C96.132 42.9989 95.5839 42.9701 95.4826 42.7395C95.3826 42.5087 95.2117 42.3853 95.0079 42.3212C94.7763 42.2492 94.7623 41.6148 95.1079 41.5426C95.0649 41.3551 95.0801 41.1389 95.1661 41.0381C95.2522 40.9372 95.1801 40.7497 94.9788 40.591C94.7763 40.4324 94.6041 39.8268 94.8054 39.4952C94.4598 39.6106 93.6952 39.2789 93.537 39.0483C93.3775 38.8175 93.1623 38.8032 93.018 39.005Z" fill="#D3AE3B"/>
<path d="M98.0502 43.2032C97.823 43.2032 97.6184 43.1103 97.4887 42.9472C97.1418 43.0927 96.6553 43.0856 96.3496 42.797C96.2029 42.9416 95.9619 42.9817 95.7787 42.9558C95.6129 42.9322 95.4916 42.8593 95.4461 42.7556C95.3602 42.557 95.2129 42.4275 94.9961 42.3593C94.8506 42.3142 94.793 42.1097 94.8012 41.9388C94.8092 41.7686 94.8824 41.5738 95.0613 41.5141C95.0299 41.3433 95.0398 41.1249 95.1359 41.0123C95.1564 40.9882 95.1648 40.9569 95.1611 40.9192C95.1521 40.8285 95.0746 40.7175 94.9541 40.6224C94.7508 40.4632 94.5871 39.907 94.7322 39.5525C94.3404 39.6061 93.6584 39.2955 93.5041 39.0709C93.4301 38.9638 93.3416 38.9044 93.2551 38.9037H93.2535C93.1789 38.9037 93.1088 38.9467 93.0504 39.0283L92.9785 38.999C93.0389 38.609 93.1869 38.3316 93.4186 38.1748C93.6535 38.0155 93.9729 37.981 94.3676 38.0723C94.5732 38.1197 95.026 38.1515 95.4293 38.0438C95.9426 37.907 96.3697 37.956 96.6332 38.1813C96.8352 38.3539 96.9256 38.6223 96.8953 38.9583C97.1381 39.1515 97.3674 39.5599 97.3248 39.904C97.2824 40.2445 97.3525 40.3542 97.6373 40.3929C97.8521 40.4225 98.2223 40.5993 98.3348 40.8855C98.3807 41.0024 98.3988 41.1849 98.2375 41.4027C98.6709 41.6886 98.984 42.3441 98.7484 42.801C98.6316 43.0277 98.3875 43.181 98.1113 43.201C98.0908 43.2024 98.0703 43.2032 98.0502 43.2032ZM97.5148 42.8482L97.534 42.8749C97.6564 43.0463 97.8701 43.1397 98.1055 43.1214C98.3541 43.1034 98.5734 42.9666 98.6777 42.7645C98.8969 42.3388 98.5729 41.6958 98.1584 41.4472L98.1188 41.4234L98.148 41.3878C98.2818 41.2242 98.3195 41.065 98.2605 40.9147C98.1641 40.6693 97.8305 40.4999 97.6266 40.4719C97.2543 40.4214 97.2049 40.2218 97.2455 39.8942C97.2859 39.5699 97.0609 39.1818 96.8297 39.0083L96.8115 38.9947L96.8139 38.9722C96.8473 38.653 96.767 38.4005 96.5812 38.2418C96.3418 38.0369 95.9295 37.9927 95.45 38.1208C94.9998 38.2411 94.5334 38.1924 94.3496 38.15C93.9771 38.0641 93.6791 38.0945 93.4633 38.2408C93.2764 38.3674 93.148 38.5832 93.0814 38.8831C93.1344 38.8444 93.1932 38.8239 93.2535 38.8239H93.2559C93.3689 38.8249 93.4805 38.8965 93.5697 39.0257C93.717 39.2401 94.4686 39.5651 94.7926 39.4575L94.8957 39.4231L94.8395 39.516C94.6527 39.8237 94.8096 40.4079 95.0033 40.5597C95.1428 40.6696 95.2293 40.7978 95.2404 40.9113C95.2463 40.9706 95.2313 41.0233 95.1965 41.0641C95.1244 41.1484 95.1035 41.346 95.1469 41.5337L95.1561 41.5733L95.1162 41.5817C94.9537 41.6156 94.8881 41.7903 94.8809 41.9426C94.8729 42.1097 94.9326 42.2562 95.0199 42.2832C95.2602 42.3588 95.4234 42.5028 95.5191 42.7237C95.5527 42.8002 95.6539 42.8575 95.7898 42.8769C95.9648 42.9015 96.1953 42.8608 96.3178 42.714L96.3465 42.6797L96.3773 42.712C96.6967 43.0469 97.2146 42.985 97.485 42.8618L97.5148 42.8482Z" fill="black"/>
<path d="M93.2394 43.4855L93.2292 43.4064C93.4964 43.3721 93.6796 43.2725 93.8414 43.1847C94.015 43.0904 94.1777 43.0019 94.4042 43.0168L94.3988 43.0963C94.1968 43.082 94.0498 43.1624 93.8794 43.2548C93.7117 43.346 93.5214 43.4493 93.2394 43.4855Z" fill="black"/>
<path d="M92.522 42.091L92.4779 42.0858C92.3712 42.0736 92.2609 42.0609 92.1546 42.0036C92.0966 41.9718 92.0496 41.9448 92.0105 41.9104L92.0632 41.8506C92.0962 41.8796 92.1396 41.9043 92.1927 41.9336C92.2853 41.9835 92.3878 41.9952 92.4869 42.0066L92.5318 42.0119L92.522 42.091Z" fill="black"/>
<path d="M92.4119 41.4553C92.3379 41.3787 92.2548 41.3436 92.191 41.3215L92.2168 41.2461C92.2892 41.271 92.3834 41.311 92.4693 41.3998L92.4119 41.4553Z" fill="black"/>
<path d="M95.5447 39.1557C95.3518 39.1557 95.1047 39.1137 94.9799 38.9905C94.6 38.617 94.1588 38.4542 93.7975 38.5557C93.633 38.602 93.5094 38.7019 93.4824 38.8102C93.4672 38.8713 93.4855 38.9288 93.5353 38.9765L93.4803 39.0342C93.4096 38.9665 93.3828 38.8801 93.4049 38.791C93.4393 38.6533 93.5814 38.5338 93.7758 38.479C94.1654 38.3692 94.6353 38.5395 95.0357 38.9337C95.192 39.0876 95.6143 39.0976 95.7445 39.054L95.7699 39.1296C95.7223 39.1455 95.64 39.1557 95.5447 39.1557Z" fill="black"/>
<path d="M97.857 41.6017C97.8341 41.6017 97.8113 41.5998 97.788 41.5961C97.5062 41.551 97.2089 41.2337 96.9043 40.653C96.7564 40.371 96.5949 40.3149 96.4386 40.2606C96.2826 40.2062 96.1349 40.1549 96.0365 39.8988C95.8199 39.331 94.9806 39.4956 94.8144 39.5343L94.7964 39.4566C95.3099 39.3368 95.9246 39.3825 96.1111 39.8703C96.1961 40.0917 96.3148 40.133 96.4648 40.1852C96.6277 40.2418 96.8125 40.3061 96.975 40.6159C97.263 41.1652 97.5486 41.477 97.8007 41.5173C97.9242 41.5378 98.0386 41.4936 98.1511 41.3844L98.2066 41.4416C98.097 41.548 97.9797 41.6016 97.857 41.6017Z" fill="black"/>
<path d="M96.3166 42.7636C96.1771 42.5787 96.1259 42.2 96.2027 41.9403C96.0392 41.7243 96.1004 41.3138 96.2113 41.0923L96.2828 41.128C96.1812 41.3306 96.1209 41.7241 96.2773 41.906L96.292 41.923L96.2849 41.9444C96.2 42.2009 96.2652 42.563 96.3802 42.7155L96.3166 42.7636Z" fill="black"/>
<path d="M95.708 42.1303C95.3383 42.0713 95.0863 41.7505 95.0684 41.5466L95.1477 41.5396C95.1607 41.6884 95.3691 41.9954 95.7205 42.0516L95.708 42.1303Z" fill="black"/>
<path d="M97.4701 42.9228C97.2547 42.6451 97.2893 42.3981 97.333 42.0854L97.4119 42.0964C97.3693 42.4021 97.3385 42.6229 97.533 42.8739L97.4701 42.9228Z" fill="black"/>
<path d="M96.6258 41.2856C96.1225 41.2857 95.8563 40.9405 95.7838 40.7801C95.5014 40.651 95.3426 40.2918 95.3568 40.0269L95.4365 40.0312C95.4232 40.2738 95.5699 40.6036 95.8297 40.7132L95.8449 40.7196L95.8512 40.735C95.907 40.8731 96.1889 41.2551 96.7332 41.2005L96.741 41.2798C96.7014 41.2838 96.6629 41.2856 96.6258 41.2856Z" fill="black"/>
<path d="M96.8291 39.008C96.4709 38.73 96.0664 38.4631 95.5355 38.3931L95.5461 38.314C96.0955 38.3864 96.5109 38.6601 96.8779 38.9449L96.8291 39.008Z" fill="black"/>
<path d="M92.4383 54.232L92.3848 54.173C93.2912 53.3492 92.973 51.5663 92.7406 50.2645L92.7191 50.1434C92.5164 49.008 92.7127 48.0274 93.3023 47.229L93.3664 47.2765C92.7904 48.0565 92.599 49.0164 92.7977 50.1294L92.8191 50.2505C93.0547 51.5706 93.3773 53.3786 92.4383 54.232Z" fill="black"/>
<path d="M93.8709 57.2912C93.5547 57.2912 93.2369 57.2261 92.9711 57.0929L93.0066 57.0217C93.591 57.3139 94.4338 57.2652 94.9261 56.9096C95.4467 56.5337 96.3888 56.5194 97.0922 56.6722L97.0754 56.7502C96.4113 56.606 95.4705 56.6148 94.973 56.9743C94.6836 57.1833 94.2783 57.2912 93.8709 57.2912Z" fill="black"/>
<path d="M94.766 62.3975C94.6281 61.3521 94.6908 60.3094 94.7461 59.3894C94.7711 58.9723 94.7947 58.5784 94.7947 58.2397C94.7947 57.2053 95.0508 56.7386 95.6783 56.6289L95.692 56.7074C95.1037 56.8103 94.8744 57.2399 94.8744 58.2397C94.8744 58.5808 94.8508 58.9759 94.8256 59.3941C94.7707 60.3105 94.7082 61.3492 94.8449 62.3869L94.766 62.3975Z" fill="black"/>
<path d="M93.901 58.2426C93.832 57.2755 94.191 57.1854 94.5381 57.0981C94.5658 57.0911 94.5937 57.0842 94.6217 57.0767L94.6424 57.1536C94.6141 57.1612 94.5857 57.1684 94.5574 57.1755C94.2135 57.2619 93.9162 57.3365 93.9807 58.2369L93.901 58.2426Z" fill="black"/>
<path d="M92.7262 58.2694L92.6465 58.2676C92.6578 57.7685 92.7943 57.3597 93.0029 57.2007C93.1 57.1265 93.2098 57.1039 93.3303 57.134L93.3107 57.2114C93.2164 57.1877 93.1285 57.2053 93.0512 57.2641C92.8615 57.4088 92.7369 57.794 92.7262 58.2694Z" fill="black"/>
<path d="M99.2367 73.0436C99.0209 72.2764 98.9836 70.9311 98.9404 69.3735C98.8808 67.2198 98.8066 64.5393 98.199 62.5479C98.0933 62.2014 97.9923 61.9086 97.8947 61.6256C97.6306 60.86 97.4025 60.1989 97.2746 58.9644C97.1027 57.3018 96.8472 56.8555 96.5285 56.7306C96.5334 56.7351 96.5382 56.7397 96.5431 56.7444C96.7869 56.9848 96.8966 57.5213 96.8783 58.3845L96.7986 58.3828C96.8162 57.5544 96.7113 57.0223 96.4871 56.8012C96.4158 56.731 96.3328 56.6913 96.2351 56.6812C96.2103 56.6802 96.1853 56.6795 96.1601 56.6788L96.1597 56.5992C96.1896 56.5978 96.2195 56.5992 96.2484 56.6025C96.7882 56.632 97.1357 56.847 97.3539 58.9562C97.481 60.1815 97.7076 60.8387 97.9701 61.5996C98.0679 61.8834 98.1691 62.1768 98.2752 62.5245C98.8859 64.5264 98.9603 67.2127 99.0203 69.3713C99.0632 70.9237 99.1004 72.2643 99.3136 73.0221L99.2367 73.0436Z" fill="black"/>
<path d="M98.5434 78.2879C98.4064 77.4658 97.9152 76.2596 97.2934 74.7324C96.8658 73.6824 96.3812 72.4924 95.8932 71.1432L95.8887 71.1305L95.8926 71.1176C97.7277 65.3146 97.0326 61.7684 96.0082 58.8004L96.0836 58.7744C97.1117 61.7531 97.8098 65.3113 95.9727 71.1289C96.4588 72.4713 96.9414 73.6564 97.3674 74.7025C97.991 76.2342 98.4836 77.4439 98.6219 78.2746L98.5434 78.2879Z" fill="black"/>
<path d="M92.6234 66.2956L92.5465 66.2741C92.615 66.029 92.5728 65.8618 92.5144 65.6304C92.409 65.2116 92.2494 64.5788 92.6615 62.9304C92.9312 61.8503 92.9781 61.1901 92.8088 60.8524L92.8803 60.8169C93.0607 61.1772 93.0172 61.8351 92.7389 62.9495C92.3316 64.5788 92.4883 65.1999 92.5918 65.6108C92.651 65.8452 92.6975 66.0302 92.6234 66.2956Z" fill="black"/>
<path d="M93.1707 67.1062L93.0957 67.0792C93.4041 66.219 93.1812 65.1542 92.9846 64.2147C92.8342 63.4966 92.6922 62.8181 92.8057 62.3257L92.8834 62.3437C92.7738 62.8188 92.9141 63.489 93.0625 64.1983C93.2613 65.1483 93.4867 66.2249 93.1707 67.1062Z" fill="black"/>
<path d="M94.9984 84.0256L94.959 83.9564C95.4148 83.6957 95.3912 82.8873 95.3738 82.2969C95.3691 82.1336 95.3646 81.9793 95.3705 81.8553C95.5254 78.7717 94.4652 76.4789 92.7226 72.9932C92.6273 72.8025 92.5359 72.6348 92.4476 72.4723C92.1088 71.849 91.8641 71.3986 91.9109 70.6084C91.9428 70.0611 91.884 69.4162 91.8269 68.7928C91.7808 68.2889 91.7375 67.8129 91.7375 67.3809H91.8172C91.8172 67.8092 91.8605 68.2834 91.9064 68.7855C91.9637 69.4119 92.0228 70.0598 91.9906 70.6131C91.9451 71.3805 92.1853 71.8225 92.5178 72.4342C92.6064 72.5973 92.6978 72.7656 92.7941 72.9576C94.5424 76.4549 95.606 78.7559 95.4502 81.8592C95.4443 81.9799 95.4488 82.1328 95.4535 82.2945C95.4715 82.9051 95.4959 83.7412 94.9984 84.0256Z" fill="black"/>
<path d="M91.8527 84.8831C91.841 84.8831 91.8291 84.8827 91.817 84.8815L91.8236 84.8022C91.9654 84.8128 92.1437 84.756 92.3609 84.2353C92.5619 83.753 93.2687 80.6358 92.9785 78.4886L93.0574 78.478C93.3496 80.6396 92.6371 83.7798 92.4343 84.2661C92.2554 84.6956 92.0797 84.8831 91.8527 84.8831Z" fill="black"/>
<path d="M93.0548 84.0061L92.981 83.976C93.4246 82.8797 93.3994 81.4914 93.3242 80.9105L93.4031 80.9004C93.4795 81.4885 93.5047 82.8943 93.0548 84.0061Z" fill="black"/>
<path d="M94.5277 82.5005L94.45 82.4829C94.6685 81.5124 94.6578 80.2149 94.4205 78.9231L94.499 78.9087C94.738 80.2108 94.7486 81.5198 94.5277 82.5005Z" fill="black"/>
<path d="M93.7486 84.6637L93.7279 84.5867C94.0398 84.5035 93.9447 83.5609 93.8816 82.9373C93.864 82.7627 93.8488 82.6119 93.8427 82.4932L93.9224 82.4893C93.9283 82.6059 93.9435 82.7557 93.9609 82.9293C94.0345 83.6572 94.1261 84.5631 93.7486 84.6637Z" fill="black"/>
<path d="M98.8142 82.4913C98.3404 82.0325 97.888 80.6882 97.4093 79.2647C96.9713 77.9632 96.5185 76.6171 96.0123 75.8228L96.0795 75.7798C96.591 76.5825 97.0455 77.9331 97.4847 79.2394C97.9605 80.6532 98.4097 81.9888 98.8697 82.4339L98.8142 82.4913Z" fill="black"/>
<path d="M96.9287 81.8021L96.9252 81.7447C96.898 81.3074 96.8607 80.7084 96.6211 80.4422L96.6805 80.3887C96.9387 80.6758 96.9754 81.2658 97.0047 81.7398L97.0084 81.7971L96.9287 81.8021Z" fill="black"/>
<path d="M85.4881 61.6154L85.4084 61.6119C85.4105 61.5648 85.4109 61.518 85.4115 61.4707C85.4142 61.1937 85.4172 60.9072 85.7182 60.4805L85.7834 60.5266C85.4967 60.9328 85.4939 61.2066 85.4912 61.4717C85.4906 61.5197 85.4902 61.5674 85.4881 61.6154Z" fill="black"/>
<path d="M84.9689 61.8023L84.8892 61.7992L84.8963 61.6145C84.9318 60.6748 84.9363 60.5541 85.2472 60.2578L85.3023 60.3156C85.0148 60.5895 85.0111 60.6867 84.9759 61.6174L84.9689 61.8023Z" fill="black"/>
<path d="M84.5222 61.8306L84.4426 61.829C84.4457 61.6495 84.4429 61.4964 84.4404 61.3612C84.432 60.8942 84.4273 60.6368 84.6789 60.2368L84.7465 60.2794C84.5074 60.6593 84.5119 60.9081 84.5201 61.3599C84.5226 61.4956 84.5254 61.6495 84.5222 61.8306Z" fill="black"/>
<path d="M87.3396 38.929L87.2912 38.8655C87.5953 38.6336 88.316 38.0854 88.4392 38.0059L88.4826 38.0729C88.3617 38.1509 87.643 38.6976 87.3396 38.929Z" fill="black"/>
<path d="M87.556 39.2314L87.5072 39.1684L87.8146 38.9291C88.3465 38.5146 88.6392 38.2863 88.7646 38.2666L88.7771 38.3453C88.672 38.3619 88.3504 38.6126 87.8636 38.992L87.556 39.2314Z" fill="black"/>
<path d="M87.7775 39.5716L87.7318 39.5063C87.8976 39.3897 88.0676 39.2503 88.2316 39.1153C88.4529 38.9336 88.6441 38.7766 88.7761 38.7168L88.809 38.7895C88.6865 38.8449 88.4902 39.0062 88.2822 39.177C88.117 39.3128 87.9461 39.4532 87.7775 39.5716Z" fill="black"/>
<path d="M86.6259 39.0944L86.5767 39.0315C86.6224 38.9959 86.6918 38.9273 86.765 38.8547C86.849 38.7716 86.9359 38.6855 86.9955 38.6416L87.0427 38.7059C86.9879 38.7463 86.9031 38.8302 86.8211 38.9114C86.7461 38.9856 86.6752 39.0559 86.6259 39.0944Z" fill="black"/>
<path d="M97.039 87.0309C96.9539 86.9355 96.9728 86.6514 97.0824 86.3838L97.1562 86.4139C97.0426 86.6914 97.05 86.9234 97.0984 86.9777L97.039 87.0309Z" fill="black"/>
<path d="M97.5593 86.9028C97.4316 86.7737 97.6216 86.2353 97.6299 86.2124L97.7049 86.2394C97.6076 86.5124 97.566 86.7962 97.616 86.8466L97.5593 86.9028Z" fill="black"/>
<path d="M98.0619 86.7381C98.0236 86.7203 97.9943 86.685 97.9769 86.6357C97.9365 86.5199 97.9656 86.3482 98.057 86.165L98.1285 86.2006C98.0478 86.3623 98.0193 86.515 98.0523 86.6094C98.0623 86.6377 98.0771 86.6572 98.0955 86.6658L98.0619 86.7381Z" fill="black"/>
<path d="M98.4547 86.5375C98.426 86.5277 98.4031 86.5072 98.389 86.4779C98.3517 86.4008 98.372 86.2572 98.4513 86.0391L98.5263 86.0664C98.4338 86.3209 98.4455 86.4117 98.4609 86.4434C98.467 86.4561 98.4744 86.46 98.4801 86.4617L98.4547 86.5375Z" fill="black"/>
<path d="M92.794 39.9133C93.0029 40.1872 93.2193 40.1583 93.2573 40.3348C93.2953 40.5117 93.3231 40.5242 93.3636 40.5766C93.4041 40.6289 93.2649 40.6184 93.1965 40.5902C93.1295 40.5619 92.9598 40.5648 92.856 40.5664C92.7535 40.568 92.6307 40.4466 92.7079 40.4323C92.7839 40.4181 92.7737 40.3942 92.7624 40.3404C92.7509 40.2867 92.8054 40.2018 92.837 40.1862C92.8699 40.1706 92.8472 40.1736 92.8181 40.1015C92.7877 40.0294 92.7497 39.8543 92.794 39.9133Z" fill="black"/>
<path d="M92.9206 39.6625C93.1548 39.69 93.5586 39.8165 93.7776 40.0589C93.9497 40.2495 93.8092 40.199 93.7219 40.2061C93.6345 40.2134 93.4636 40.1515 93.3776 40.0432C93.2927 39.935 93.0383 39.7977 92.9029 39.762C92.8206 39.7408 92.7434 39.6417 92.9206 39.6625Z" fill="black"/>
<g clip-path="url(#clip1_909_274919)">
<mask id="mask0_909_274919" style="mask-type:luminance" maskUnits="userSpaceOnUse" x="0" y="0" width="60" height="40">
<path d="M60 0H0V40H60V0Z" fill="white"/>
</mask>
<g mask="url(#mask0_909_274919)">
<path d="M0 0H60V40H0V0Z" fill="#021455"/>
<path d="M60 4.8073L37.211 20L60 35.1927V40H52.789L30 24.8073L7.21093 40H0V35.1927L22.7891 20L0 4.8073V0H7.21093L30 15.1927L52.789 0H60V4.8073Z" fill="white"/>
<path fill-rule="evenodd" clip-rule="evenodd" d="M25.1927 20L0 3.20475V0L30 19.9998L25.1927 20Z" fill="#D91C16"/>
<path fill-rule="evenodd" clip-rule="evenodd" d="M30 23.2049L4.8073 40.0002H0L30 20V23.2049Z" fill="#D91C16"/>
<path fill-rule="evenodd" clip-rule="evenodd" d="M34.8073 20.0002L60 36.7952V40.0002L30 20L34.8073 20.0002Z" fill="#D91C16"/>
<path d="M30 16.7949L55.1927 0H60L30 19.9998V16.7949Z" fill="#D91C16"/>
<path d="M36.6667 0V13.3333H60V26.6667H36.6667V40H23.3333V26.6667H0V13.3333H23.3333V0H36.6667Z" fill="white"/>
<path d="M34 0V16H60V24H34V40H26V24H0V16H26V0H34Z" fill="#D91C16"/>
</g>
</g>
</g>
<defs>
<clipPath id="clip0_909_274919">
<rect width="120" height="120" fill="white"/>
</clipPath>
<clipPath id="clip1_909_274919">
<rect width="60" height="40" fill="white"/>
</clipPath>
</defs>
</svg>
