<svg width="120" height="120" viewBox="0 0 120 120" fill="none" xmlns="http://www.w3.org/2000/svg">
<g clip-path="url(#clip0_307_76979)">
<path d="M0 0H120V120H0V0Z" fill="#021455"/>
<path d="M0 55H120V65H0V55Z" fill="#FDD406"/>
<path d="M37.7803 105L35.1921 94.6592L27.7803 102.32L30.7092 92.0711L20.4598 95L28.121 87.5882L17.7803 85L28.121 82.4118L20.4598 75L30.7092 77.9289L27.7803 67.6795L35.1921 75.3408L37.7803 65L40.3685 75.3408L47.7803 67.6795L44.8514 77.9289L55.1008 75L47.4395 82.4118L57.7803 85L47.4395 87.5882L55.1008 95L44.8514 92.0711L47.7803 102.32L40.3685 94.6592L37.7803 105Z" fill="white"/>
</g>
<defs>
<clipPath id="clip0_307_76979">
<rect width="120" height="120" fill="white"/>
</clipPath>
</defs>
</svg>
