<svg width="120" height="120" viewBox="0 0 120 120" fill="none" xmlns="http://www.w3.org/2000/svg">
<g clip-path="url(#clip0_307_76983)">
<path d="M120 0H0.000976562V120H120V0Z" fill="#021455"/>
<path d="M92.114 21.4527L93.9452 27.0884H99.871L95.077 30.5714L96.9082 36.2072L92.1141 32.7241L87.32 36.2072L89.1512 30.5715L84.3572 27.0884H90.2829L92.114 21.4527Z" fill="white"/>
<path d="M116.683 53.13L115.054 48.1149L119.32 45.0154H114.047L112.417 40.0004L110.788 45.0154L105.515 45.0154L109.781 48.1149L108.151 53.13L112.417 50.0305L116.683 53.13Z" fill="white"/>
<path d="M68.4269 45.2846L70.258 50.9203H76.1838L71.3898 54.4033L73.221 60.0391L68.4269 56.556L63.6328 60.0391L65.464 54.4034L60.67 50.9203H66.5957L68.4269 45.2846Z" fill="white"/>
<path d="M92.1141 82.0631L94.1469 88.3195H100.725L95.4033 92.1861L97.4362 98.4426L92.1141 94.5759L86.792 98.4426L88.8249 92.1861L83.5029 88.3195H90.0812L92.1141 82.0631Z" fill="white"/>
<path d="M92.1141 24.2193L93.3241 27.9433L97.2399 27.9433L94.072 30.2449L95.2821 33.969L92.1142 31.6674L88.9463 33.969L90.1563 30.2449L86.9885 27.9433H90.9041L92.1141 24.2193Z" fill="#D91C16"/>
<path d="M112.417 42.767L113.426 45.8703H116.689L114.049 47.7883L115.057 50.8917L112.417 48.9737L109.778 50.8917L110.786 47.7883L108.146 45.8703H111.409L112.417 42.767Z" fill="#D91C16"/>
<path d="M73.5526 51.7752L70.3848 54.0768L71.5948 57.8009L68.4269 55.4993L65.259 57.8009L66.4691 54.0768L63.3012 51.7752H67.2169L68.4269 48.0512L69.6369 51.7752H73.5526Z" fill="#D91C16"/>
<path d="M92.1141 84.8297L93.5258 89.1744H98.0941L94.3983 91.8596L95.81 96.2043L92.1142 93.5191L88.4183 96.2043L89.83 91.8596L86.1342 89.1744H90.7025L92.1141 84.8297Z" fill="#D91C16"/>
<g clip-path="url(#clip1_307_76983)">
<path d="M0 0H60V60H0V0Z" fill="#021455"/>
<path d="M60 8.48535L38.4854 30L60 51.5146V60H51.5146L30 38.4854L8.48535 60H0V51.5146L21.5146 30L0 8.48535V0H8.48535L30 21.5146L51.5146 0H60V8.48535Z" fill="white"/>
<path d="M30 35.6572L5.65723 60H0L30 30V35.6572Z" fill="#D91C16"/>
<path d="M60 54.3428V60L30 30H35.6572L60 54.3428Z" fill="#D91C16"/>
<path d="M30 30H24.3428L0 5.65723V0L30 30Z" fill="#D91C16"/>
<path d="M60 0L30 30V24.3428L54.3428 0H60Z" fill="#D91C16"/>
<path d="M40 0V20H60V40H40V60H20V40H0V20H20V0H40Z" fill="white"/>
<path d="M36 0V24H60V36H36V60H24V36H0V24H24V0H36Z" fill="#D91C16"/>
</g>
</g>
<defs>
<clipPath id="clip0_307_76983">
<rect width="120" height="120" fill="white"/>
</clipPath>
<clipPath id="clip1_307_76983">
<rect width="60" height="60" fill="white"/>
</clipPath>
</defs>
</svg>
