<svg width="120" height="120" viewBox="0 0 120 120" fill="none" xmlns="http://www.w3.org/2000/svg">
<path d="M0 0H120V120H0V0Z" fill="#FDD406"/>
<path d="M0 0H120V60H0V0Z" fill="#54AEF2"/>
<path d="M0 90H120V120H0V90Z" fill="#1E9A1C"/>
<path d="M87.3846 12L88.1681 25.4354L92.4015 12.66L89.6808 25.8415L97.0769 14.5973L91.0377 26.625L101.091 17.6781L92.1442 27.7315L104.172 21.6923L92.9277 29.0885L106.109 26.3677L93.3338 30.6012L106.769 31.3846L93.3338 32.1681L106.109 36.4015L92.9277 33.6808L104.172 41.0769L92.1442 35.0377L101.091 45.0912L91.0377 36.1442L97.0769 48.1719L89.6808 36.9277L92.4015 50.1092L88.1681 37.3338L87.3846 50.7692L86.6012 37.3338L82.3677 50.1092L85.0885 36.9277L77.6923 48.1719L83.7315 36.1442L73.6781 45.0912L82.625 35.0377L70.5973 41.0769L81.8415 33.6808L68.66 36.4015L81.4354 32.1681L68 31.3846L81.4354 30.6012L68.66 26.3677L81.8415 29.0885L70.5973 21.6923L82.625 27.7315L73.6781 17.6781L83.7315 26.625L77.6923 14.5973L85.0885 25.8415L82.3677 12.66L86.6012 25.4354L87.3846 12Z" fill="#FDD406"/>
<path fill-rule="evenodd" clip-rule="evenodd" d="M87.3845 26.077C84.4532 26.077 82.0768 28.4533 82.0768 31.3846C82.0768 34.316 84.4532 36.6923 87.3845 36.6923C90.3159 36.6923 92.6922 34.316 92.6922 31.3846C92.6922 28.4533 90.3159 26.077 87.3845 26.077ZM81.3845 31.3846C81.3845 28.0709 84.0708 25.3846 87.3845 25.3846C90.6982 25.3846 93.3845 28.0709 93.3845 31.3846C93.3845 34.6984 90.6982 37.3846 87.3845 37.3846C84.0708 37.3846 81.3845 34.6984 81.3845 31.3846Z" fill="#54AEF2"/>
</svg>
