<svg width="120" height="120" viewBox="0 0 120 120" fill="none" xmlns="http://www.w3.org/2000/svg">
<g clip-path="url(#clip0_307_75570)">
<path d="M0 0H120V120H0V0Z" fill="#FDD406"/>
<path d="M0 0H120V60H0V0Z" fill="#54AEF2"/>
<path d="M0 90H120V120H0V90Z" fill="#005801"/>
<path d="M87.3846 12L88.1681 25.4354L92.4015 12.66L89.6808 25.8415L97.0769 14.5973L91.0377 26.625L101.091 17.6781L92.1442 27.7315L104.172 21.6923L92.9277 29.0885L106.109 26.3677L93.3338 30.6012L106.769 31.3846L93.3338 32.1681L106.109 36.4015L92.9277 33.6808L104.172 41.0769L92.1442 35.0377L101.091 45.0912L91.0377 36.1442L97.0769 48.1719L89.6808 36.9277L92.4015 50.1092L88.1681 37.3338L87.3846 50.7692L86.6012 37.3338L82.3677 50.1092L85.0885 36.9277L77.6923 48.1719L83.7315 36.1442L73.6781 45.0912L82.625 35.0377L70.5973 41.0769L81.8415 33.6808L68.66 36.4015L81.4354 32.1681L68 31.3846L81.4354 30.6012L68.66 26.3677L81.8415 29.0885L70.5973 21.6923L82.625 27.7315L73.6781 17.6781L83.7315 26.625L77.6923 14.5973L85.0885 25.8415L82.3677 12.66L86.6012 25.4354L87.3846 12Z" fill="#FDD406"/>
<path fill-rule="evenodd" clip-rule="evenodd" d="M87.3848 26.0771C84.4534 26.0771 82.0771 28.4534 82.0771 31.3848C82.0771 34.3161 84.4534 36.6925 87.3848 36.6925C90.3161 36.6925 92.6925 34.3161 92.6925 31.3848C92.6925 28.4534 90.3161 26.0771 87.3848 26.0771ZM81.3848 31.3848C81.3848 28.0711 84.0711 25.3848 87.3848 25.3848C90.6985 25.3848 93.3848 28.0711 93.3848 31.3848C93.3848 34.6985 90.6985 37.3848 87.3848 37.3848C84.0711 37.3848 81.3848 34.6985 81.3848 31.3848Z" fill="#54AEF2"/>
</g>
<defs>
<clipPath id="clip0_307_75570">
<rect width="120" height="120" fill="white"/>
</clipPath>
</defs>
</svg>
