<svg width="120" height="120" viewBox="0 0 120 120" fill="none" xmlns="http://www.w3.org/2000/svg">
<g clip-path="url(#clip0_909_102887)">
<path d="M0 120H120V0H0V120Z" fill="#005801"/>
<path d="M105 47.6645C104.988 45.5566 104.17 39.8784 103.962 37.9735C103.755 36.0686 103.546 34.3405 103.597 33.9358C103.646 33.5453 104.247 34.4788 104.565 34.5542C104.729 34.5213 104.656 33.9318 104.357 33.4283C104.155 33.0865 103.466 31.8081 103.048 31.059C102.851 30.7045 102.807 30.4988 102.713 30.4553C102.618 30.4117 101.857 31.9469 101.941 32.1171C102.148 32.429 102.291 32.578 102.323 33.129C102.356 33.6801 102.641 37.6144 103.004 40.5966C103.277 42.8464 103.877 47.6934 103.899 50.707C103.905 51.6901 103.796 52.6271 103.665 53.0186C103.329 53.6334 102.804 54.188 100.849 55.3317C98.6522 56.6176 95.7208 57.6878 94.4608 58.404C93.6774 58.8507 93.9371 58.9105 94.6191 58.715C95.2995 58.5195 98.8176 57.893 100.527 57.1707C102.131 56.491 103.173 55.354 103.963 53.6952C104.939 51.6445 105.014 49.9042 105 47.6645Z" fill="white"/>
<path d="M98.1977 31.6523C98.3675 31.5864 99.7738 31.514 100.152 31.592C99.9036 31.9475 98.2174 32.7346 98.2103 32.879C98.2563 32.9762 99.375 32.6992 99.7278 32.5452C99.9584 32.4064 100.112 32.1917 100.283 32.0134C100.686 31.5494 101.165 30.6889 101.044 30.581C100.849 30.4068 98.9318 30.5152 98.6792 30.5512C98.51 30.5755 98.0805 31.3453 98.0016 31.5429C97.9243 31.7404 98.0279 31.7181 98.1977 31.6523Z" fill="white"/>
<path d="M101.07 44.1464C101.363 43.1537 101.436 41.9493 101.037 40.6815C100.627 39.3763 99.6092 38.5807 98.8751 38.1729L98.7442 39.4295C98.7442 39.4295 99.7735 39.9411 100.477 41.2291C100.923 42.046 101.109 43.2013 100.757 44.4893C100.698 44.8089 100.927 44.6326 101.07 44.1464Z" fill="white"/>
<path d="M90.1802 50.448C90.4443 49.554 90.5089 48.4696 90.1507 47.328C89.7814 46.1525 88.8649 45.4358 88.2037 45.0701L88.0854 46.2011C88.0854 46.2011 89.0123 46.662 89.6461 47.8208C90.0482 48.5557 90.2147 49.5976 89.8987 50.7569C89.8461 51.0436 90.0515 50.8856 90.1802 50.448Z" fill="white"/>
<path d="M52.3727 33.3382C52.7968 34.1136 52.9726 35.2116 52.639 36.4348C52.5831 36.7382 52.7989 36.5715 52.9364 36.1096C53.2136 35.1676 53.2827 34.0229 52.9036 32.818C52.5141 31.5776 51.5472 30.8225 50.8498 30.436L50.7266 31.6293C50.7266 31.6293 51.7044 32.115 52.3727 33.3382Z" fill="white"/>
<path d="M26.8503 33.7393C27.2063 34.574 27.2304 35.7009 26.6552 36.8881C26.5435 37.1864 26.8157 37.0451 27.0442 36.5989C27.5109 35.6867 27.7728 34.5451 27.5361 33.284C27.2934 31.9874 26.3194 31.1036 25.5903 30.6249L25.2594 31.8096C25.2594 31.8096 26.2887 32.4235 26.8503 33.7393Z" fill="white"/>
<path d="M33.9055 52.3965C34.358 51.5567 34.5464 50.9915 34.7475 49.9967C34.9233 49.1215 34.9348 48.1106 34.8713 47.0814C36.2255 46.5294 37.8394 45.6131 38.3817 45.5458C38.0108 46.8191 38.8961 48.1932 40.6842 48.0139C40.8211 49.4538 40.9383 50.7185 41.0096 51.4686C41.1553 53.0063 41.1334 54.9441 41.129 55.2809C41.123 55.6192 41.3678 55.5554 41.6193 54.8017C41.9545 53.7928 42.0581 51.1581 41.9365 49.4158C41.9074 48.9802 41.8581 48.3922 41.7984 47.7221C42.9576 47.1858 43.1504 46.1505 43.5837 45.7094C43.9749 47.0794 46.1278 47.2653 46.7923 46.972C47.6162 46.6079 47.8863 45.953 48.0983 44.433C48.3108 42.9136 47.6918 42.3018 47.4705 42.1361C47.4486 42.32 46.9095 44.1059 46.9095 44.1059C46.9095 44.1059 47.4206 44.6458 47.4464 44.9112C47.03 45.288 46.1519 45.3113 45.4145 45.0712C44.6766 44.8311 44.4504 44.3895 44.4942 44.0932C44.5369 43.7959 44.8147 43.5254 44.824 43.1633C44.8322 42.8012 44.6586 42.906 44.3633 43.2266C44.068 43.5477 43.8774 43.8364 43.4687 44.5257C43.1345 45.0894 42.5922 45.7772 41.6357 45.9738C41.4779 44.3186 41.2977 42.5575 41.1772 41.4514C41.1142 40.8674 40.4847 35.8208 40.4398 35.2561C40.4009 34.7643 40.3281 34.1844 40.3401 33.9119C40.3522 33.6951 40.488 33.7812 40.6984 34.0081C40.9093 34.2345 41.278 34.6296 41.3415 34.5987C41.5563 34.4933 41.3366 33.8374 41.0556 33.2499C40.7751 32.6609 39.8175 30.3371 39.6165 30.2414C39.5129 30.1928 38.8665 31.6231 38.8282 31.9047C38.9284 32.0809 39.1903 32.358 39.1996 33.1461C39.2029 33.3659 39.3442 35.4384 39.5403 37.398C39.7118 39.1286 39.9391 40.7707 39.961 40.9616C40.1172 42.2825 40.3067 44.1443 40.4869 45.9748C39.4488 45.7772 39.1727 45.0925 39.1957 44.702C39.222 44.2613 39.4209 43.764 39.3256 43.6515C39.1256 43.5315 37.9358 44.1965 36.2764 44.9112C35.8097 45.1117 35.2838 45.327 34.7289 45.5311C34.5842 44.2836 34.3936 43.0974 34.3169 42.1903L34.3076 42.0895C35.3988 42.0191 36.2923 41.4681 36.6988 40.9434C37.2066 40.2875 37.5616 38.9377 37.5961 37.9035C37.6306 36.8682 36.7952 34.9755 36.5964 34.3738C36.3959 33.7716 36.2923 33.3542 36.2748 33.1461C36.2567 32.9379 36.7262 33.3872 37.0215 33.4753C37.2214 33.5153 37.1524 33.0823 36.9081 32.785C36.6654 32.4887 35.3528 30.4967 35.2608 30.6365C35.2044 30.7185 34.6785 32.1838 34.6439 32.4081C34.851 32.5449 35.0932 32.9217 35.1101 33.2828C35.1277 33.6439 35.4169 35.2318 35.7374 36.1141C36.059 36.9964 36.7437 38.689 36.787 39.1545C36.2978 39.4994 35.1841 40.0834 34.0824 40.0484C33.894 38.5047 33.6551 36.7117 33.5275 35.442C33.4782 34.9512 33.4749 34.4275 33.4826 34.154C33.4886 33.9372 33.6447 33.9671 33.8595 34.1899C34.0753 34.4128 34.4062 34.7369 34.4741 34.7136C34.622 34.6645 34.4938 34.1727 34.2008 33.5887C33.9077 33.0048 32.743 30.5347 32.5387 30.4425C32.4352 30.3954 31.9136 31.7826 31.8808 32.0658C31.9849 32.241 32.2516 32.512 32.2779 33.3C32.2987 33.9276 32.6044 37.0029 32.8663 39.7116C31.7761 39.1479 31.4042 38.3421 31.2694 36.9893C31.1752 36.0462 31.1659 34.309 30.8295 32.8559C30.64 32.0343 30.2406 31.1997 29.7673 30.7565C29.6544 31.0295 29.1505 32.7054 29.1505 32.7054C29.3148 33.1866 29.8259 34.8068 29.8084 36.2108C29.7914 37.6148 29.6807 38.9873 28.1074 39.9329C26.5352 40.8791 24.1768 40.5027 23.5945 39.0268C23.0122 37.5499 24.3067 33.847 24.2897 32.9729C24.2722 32.0987 24.116 31.9781 23.7506 32.1225C23.3858 32.2668 22.6391 33.1096 21.996 34.4807C21.3529 35.8527 21.0669 37.552 20.7015 38.7073C20.3372 39.8625 19.7538 41.033 18.851 40.9682C17.9482 40.9044 17.4623 40.0783 17.1845 38.8835C16.9062 37.6877 17.0766 36.1131 17.1522 35.7094C17.3407 34.6984 16.9041 34.9056 16.6367 36.4929C16.4713 37.4719 16.3069 39.0355 16.8893 40.6719C17.4705 42.3083 18.4615 42.9187 19.3298 42.7095C20.1986 42.5013 20.9623 40.4637 21.2318 39.5485C21.5008 38.6348 22.7043 34.5764 23.3858 34.3768C23.4811 34.8342 22.8561 36.3086 22.6561 38.0331C22.4567 39.7577 22.9218 42.0744 25.1109 42.475C27.2999 42.8761 28.7851 41.4564 29.3236 40.4708C29.8626 39.4837 30.1141 38.4489 30.1749 37.9278C30.245 39.2507 31.1478 41.3167 32.9013 41.9057L33.0821 41.9579C33.19 43.0407 33.3659 44.4543 33.5275 45.9388C33.1862 46.0442 32.8416 46.1394 32.4987 46.2214C32.4549 46.0791 32.4067 45.9398 32.3481 45.8117C31.8128 44.6604 30.927 43.5994 29.6994 43.6728C28.4454 43.7473 27.0781 45.4207 27.1378 46.6428C27.1772 47.4648 27.6297 48.1395 29.2754 48.3122C30.027 48.3917 30.8251 48.3081 31.6496 48.1283C31.7657 48.4682 31.8391 48.806 31.8473 49.1139C31.3258 49.7238 27.0107 52.9784 23.7797 53.2914C20.5487 53.6039 19.5631 51.9102 19.5308 50.21C19.5067 48.9164 20.2846 47.6254 20.8313 46.732C21.6136 46.1596 22.2557 45.444 22.661 44.8919C22.7712 44.9598 22.8758 45.0226 22.9755 45.0808C23.3617 45.3052 23.5156 45.6405 23.5156 45.6405C23.5868 45.5311 23.9188 44.9334 23.789 44.6412C23.7293 44.5693 23.4373 44.3895 23.0861 44.1763C23.4548 43.2575 23.4499 42.3403 22.9722 42.1361C22.4381 41.9087 21.7407 42.5408 21.44 42.9263C21.2838 43.1268 21.2241 43.3542 21.223 43.5452C21.2208 43.7908 21.3364 44.0127 21.6224 44.2102C21.9072 44.4047 22.1718 44.5809 22.4205 44.74C21.7144 45.4815 20.0458 46.5679 19.0246 47.206C18.9868 47.1123 18.8373 47.2111 18.6362 47.4481L18.3596 47.6188C17.545 48.1172 15.5915 49.2117 15.2075 49.4796C14.8229 49.7481 15.0639 49.6994 15.2075 49.6397C15.4786 49.4933 15.8347 49.316 16.2346 49.1205C16.8011 48.8435 17.4601 48.53 18.1043 48.2155C17.9137 48.5386 17.7165 48.9164 17.5417 49.3287C16.7731 51.1434 15.5307 54.9046 18.2183 57.1675C20.7897 59.3338 25.2095 58.5097 28.8749 56.2584C32.5409 54.0066 33.3325 53.2149 33.9055 52.3965ZM21.9544 43.45C21.8273 43.3563 21.8097 43.2312 21.9133 43.144C22.0453 43.0316 22.214 42.9252 22.4058 42.8893C22.8122 42.8138 22.9744 43.2808 22.8111 44.0081C22.5022 43.8192 22.1844 43.6206 21.9544 43.45ZM30.3622 46.5177C28.4958 46.5263 28.4098 46.1875 28.4449 45.9707C28.4794 45.755 29.0606 45.1629 29.798 45.5534C30.1097 45.719 30.4608 46.0654 30.7857 46.5005C30.6422 46.5111 30.5008 46.5167 30.3622 46.5177ZM24.6458 56.3328C21.1195 57.2952 17.6798 55.8041 17.4716 52.8518C17.3122 50.5974 18.1344 48.8987 18.6647 47.9414C19.1704 47.6912 19.6481 47.4481 20.043 47.2303C19.12 48.7169 18.5798 50.7079 18.9408 52.3944C19.3495 54.3049 21.0116 55.4632 23.8257 55.0894C26.6119 54.7202 30.3792 52.0703 31.4474 51.071C31.7728 50.7104 31.9876 50.3852 32.2801 49.7227C32.4006 49.4508 32.5699 49.0917 32.6329 48.686C32.674 48.4216 32.6959 48.139 32.7008 47.8513C33.0279 47.7535 33.3566 47.6441 33.6875 47.5266C33.7998 48.7361 33.8825 49.9284 33.8874 50.9596C32.1514 52.9956 28.1721 55.37 24.6458 56.3328Z" fill="white"/>
<path d="M86.3253 48.5908C86.2058 46.6155 85.9177 43.0403 85.7566 41.2266C85.6142 39.6124 85.3343 37.4001 85.1294 35.4527C85.0779 34.9624 85.0724 34.4929 85.0779 34.2199C85.0839 34.0041 85.2998 34.0872 85.5156 34.309C85.7314 34.5309 86.0689 34.8094 86.1324 34.7755C86.3433 34.6661 86.0908 34.1252 85.7944 33.5432C85.4981 32.9603 84.323 30.5489 84.1187 30.4572C84.0146 30.4106 83.464 31.8551 83.4323 32.1382C83.5374 32.3125 83.8064 32.5824 83.8354 33.3705C83.865 34.1591 84.2633 37.7845 84.5509 40.7165C84.7503 42.7546 85.0078 46.0802 85.1951 48.5878C85.1858 48.5918 85.3721 50.9718 85.3923 51.2392C85.5074 52.7789 85.4477 54.7162 85.4362 55.0525C85.4236 55.3903 85.6706 55.3316 85.9358 54.582C86.2058 53.8167 86.3598 52.1078 86.3806 50.5651L86.3253 48.5908Z" fill="white"/>
<path d="M76.3127 41.676C75.9512 41.7864 75.3836 41.404 75.4269 40.6022C75.4664 39.8779 75.7764 39.1998 75.8958 38.7718C76.0602 38.1812 76.0613 37.6119 75.9221 37.9346C75.6088 38.6558 75.0254 40.0501 74.9048 40.9963C74.7838 41.9424 75.0906 42.5522 75.5074 42.7603C76.0268 43.0212 76.4009 42.6074 76.654 41.9976C76.8973 41.4136 76.8512 40.7319 76.6825 40.8924C76.5412 41.0601 76.4886 41.6218 76.3127 41.676Z" fill="white"/>
<path d="M71.1152 44.5905C71.307 44.081 71.3519 43.5816 71.2045 43.8556C70.872 44.4695 70.2491 45.6556 70.0667 46.4797C69.8848 47.3037 70.1056 47.8614 70.4562 48.0726C70.8934 48.337 71.2533 47.9981 71.5255 47.479C71.7858 46.9821 71.7989 46.3789 71.6389 46.5096C71.5009 46.6473 71.4094 47.1371 71.2516 47.1731C70.9235 47.2455 70.4557 46.8707 70.557 46.1677C70.649 45.5346 70.9761 44.9587 71.1152 44.5905Z" fill="white"/>
<path d="M55.9802 55.3395C56.3007 54.8193 56.4601 54.2799 56.2377 54.5524C55.7414 55.1612 54.8019 56.3428 54.4228 57.2094C54.0448 58.076 54.1653 58.7268 54.5022 59.0231C54.9224 59.3928 55.3908 59.089 55.8 58.5729C56.1928 58.078 56.3396 57.4216 56.1342 57.5335C55.9539 57.6597 55.748 58.1778 55.5666 58.1874C55.1936 58.2057 54.763 57.7088 55.027 56.9602C55.2659 56.2846 55.7485 55.7163 55.9802 55.3395Z" fill="white"/>
<path d="M82.5152 40.1594C82.1476 40.2516 81.6042 39.8398 81.6951 39.0411C81.7779 38.3203 82.129 37.6594 82.2731 37.239C82.4736 36.657 82.5081 36.0893 82.3498 36.4033C81.9948 37.1083 81.3286 38.4697 81.1506 39.4088C80.9726 40.3473 81.2415 40.9718 81.6458 41.2012C82.1498 41.4869 82.5464 41.0938 82.8368 40.4972C83.1145 39.9269 83.1101 39.2442 82.931 39.3961C82.7804 39.5572 82.6944 40.1148 82.5152 40.1594Z" fill="white"/>
<path d="M82.4027 49.958C82.9056 50.2437 83.3044 49.8507 83.5937 49.254C83.8709 48.6837 83.867 48.001 83.689 48.1529C83.5373 48.313 83.4512 48.8716 83.2721 48.9162C82.9045 49.0079 82.36 48.5966 82.452 47.7979C82.5348 47.0772 82.8854 46.4157 83.03 45.9958C83.2299 45.4139 83.2644 44.8451 83.1067 45.1601C82.7506 45.8652 82.0855 47.2266 81.9075 48.1646C81.7295 49.1041 81.9984 49.7286 82.4027 49.958Z" fill="white"/>
<path d="M88.8302 37.4414C89.0724 36.7374 89.114 36.0501 88.9222 36.4304C88.4917 37.2834 87.6864 38.9304 87.4705 40.0675C87.2558 41.2035 87.5817 41.9587 88.0709 42.2368C88.6796 42.5822 89.1611 42.1066 89.5122 41.3854C89.847 40.695 89.842 39.8679 89.6262 40.0528C89.4438 40.2468 89.3391 40.9214 89.1222 40.9756C88.6785 41.087 88.0195 40.5892 88.1307 39.6228C88.2309 38.7506 88.6555 37.9509 88.8302 37.4414Z" fill="white"/>
<path d="M37.4642 49.6185C37.8603 48.7605 38.0038 47.9015 37.7124 48.3588C37.06 49.3824 35.8312 51.3643 35.4116 52.7683C34.9914 54.1728 35.3026 55.1594 35.8805 55.5641C36.6014 56.0665 37.2692 55.5215 37.8044 54.6549C38.3166 53.8238 38.4185 52.783 38.1233 52.9911C37.8685 53.214 37.6483 54.0517 37.3689 54.0958C36.7948 54.1859 36.0322 53.486 36.2985 52.2831C36.5395 51.1977 37.1783 50.2394 37.4642 49.6185Z" fill="white"/>
<path d="M92.9253 58.125C93.2288 57.8763 95.8681 56.4546 96.354 56.1659C96.354 56.1659 96.8509 55.3556 96.7019 55.2695C96.5523 55.1833 95.5887 56.0596 94.9894 56.0839C94.3896 56.1082 93.5684 55.6675 93.5421 55.3064C93.6199 55.0339 94.3414 54.6247 94.6021 54.608C94.8629 54.5928 94.8207 55.1864 94.9078 55.2588C94.9949 55.3302 95.3417 54.8491 95.3855 54.6485C95.4282 54.4484 95.3926 53.6107 94.9155 53.7308C94.16 53.9217 93.0206 55.3226 92.8908 55.7633C92.7598 56.2049 93.4638 56.5893 93.9776 56.7985C93.9338 56.8147 93.5503 56.9991 93.3076 57.2392C93.3076 57.2392 93.0469 57.5314 92.9253 58.125Z" fill="white"/>
<path d="M83.9253 59.886C84.2288 59.6373 86.8681 58.2166 87.354 57.9269C87.354 57.9269 87.852 57.1165 87.7019 57.0304C87.5523 56.9443 86.5887 57.8206 85.9894 57.8449C85.3896 57.8692 84.5684 57.4285 84.5421 57.0674C84.6199 56.7949 85.3414 56.3857 85.6021 56.37C85.8629 56.3538 85.8207 56.9469 85.9078 57.0188C85.9949 57.0912 86.3417 56.6101 86.3855 56.4095C86.4282 56.2094 86.3915 55.3717 85.9155 55.4917C85.16 55.6837 84.0206 57.0836 83.8908 57.5253C83.7598 57.9659 84.4638 58.3503 84.9765 58.5595C84.9338 58.5757 84.5503 58.7596 84.3076 59.0001C84.3076 59.0001 84.0469 59.2924 83.9253 59.886Z" fill="white"/>
<path d="M63.6527 34.404C63.8894 34.679 65.4397 36.6487 66.6542 37.8871C67.8682 39.1265 69.9493 41.1321 71.4783 42.5067C71.7741 42.7731 72.088 43.0618 72.4074 43.3622C72.793 46.3231 73.2389 50.0908 73.4263 51.6487C73.6109 53.1829 73.6383 55.1202 73.6421 55.4575C73.6454 55.7953 73.8886 55.7264 74.1198 54.9682C74.4299 53.9507 74.4655 51.316 74.3012 49.5757C74.1993 48.5009 73.9588 46.4877 73.7259 44.6314C74.6287 45.5233 75.4817 46.4082 76.0564 47.0706C77.1131 48.2867 78.0022 49.2039 78.544 50.5112C78.9275 51.436 78.8886 52.1719 79.0458 52.3173C79.1816 52.4429 79.3317 51.3362 79.1641 50.263C78.8924 48.5202 78.5199 47.7812 76.2826 45.2929C75.4291 44.3417 74.4244 43.3475 73.4422 42.4181C73.4044 42.1314 73.3699 41.866 73.3386 41.6305C73.2609 41.0486 72.5027 36.0172 72.443 35.4535C72.392 34.9627 72.3027 34.3848 72.3098 34.1118C72.3153 33.8945 72.4534 33.9791 72.6703 34.2009C72.8861 34.4223 73.2641 34.8097 73.3282 34.7758C73.5397 34.6664 73.3041 34.0166 73.0078 33.4336C72.7125 32.8517 71.6952 30.5492 71.4909 30.458C71.3873 30.4114 70.7776 31.8554 70.7464 32.138C70.8521 32.3122 71.1205 32.5837 71.1496 33.3708C71.1578 33.5906 71.3528 35.6601 71.5977 37.6141C71.8146 39.3407 72.0831 40.9782 72.111 41.1676L72.1121 41.1823C71.0992 40.2584 70.2068 39.4739 69.6655 38.9811C68.4001 37.8309 65.6051 35.1014 65.4928 34.6927C65.4676 34.5636 65.6846 34.6431 66.0834 34.7069C66.4838 34.7712 66.8399 34.9075 66.7758 34.7109C66.7468 34.6183 66.5934 34.3893 66.2116 34.1533C65.8292 33.9168 64.8497 33.3039 64.1211 32.8704C63.3909 32.4373 63.0293 32.0742 62.8787 32.178C62.8042 32.2292 62.8704 33.7127 62.9143 33.8975C63.0967 33.9132 63.4172 34.128 63.6527 34.404Z" fill="white"/>
<path d="M65.6477 31.7363C65.9474 31.6704 67.3673 31.7064 67.8828 31.8148C67.667 31.9647 66.2142 32.6986 65.9271 32.8733C65.6417 33.0486 65.5694 33.1498 65.7129 33.1326C66.1293 33.0171 67.0677 32.8733 67.5174 32.6388C67.9415 32.4403 68.664 31.4719 68.945 31.1107C69.2244 30.7496 69.2244 30.5693 69.1532 30.4726C68.8662 30.3166 67.0156 30.1601 66.1233 30.3814C65.8762 30.5491 65.393 31.442 65.3218 31.6279C65.2506 31.8148 65.3481 31.8021 65.6477 31.7363Z" fill="white"/>
<path d="M73.5453 31.6198C73.7874 31.5667 74.9318 31.5955 75.3465 31.6826C75.1728 31.8037 74.0027 32.3953 73.7715 32.5371C73.5398 32.6774 73.4823 32.7594 73.5978 32.7452C73.9337 32.6531 74.6902 32.5371 75.0523 32.3471C75.3936 32.1871 75.9759 31.4066 76.2022 31.1164C76.4273 30.8247 76.4273 30.6798 76.3698 30.6023C76.1397 30.4752 74.648 30.3496 73.9287 30.5284C73.7293 30.6631 73.3409 31.3828 73.2834 31.5327C73.2248 31.6826 73.3042 31.673 73.5453 31.6198Z" fill="white"/>
<path d="M79.9652 31.5373C80.2063 31.4841 81.3506 31.513 81.7653 31.6001C81.5928 31.7212 80.4221 32.3127 80.1904 32.4535C79.9597 32.5949 79.9022 32.6769 80.0178 32.6627C80.3536 32.5705 81.1688 32.4535 81.5309 32.2646C81.8727 32.1046 82.2776 31.3241 82.5038 31.0329C82.73 30.7421 82.73 30.5963 82.6714 30.5198C82.4413 30.3927 81.0669 30.2671 80.3487 30.4448C80.1493 30.5806 79.7598 31.3003 79.7023 31.4502C79.6448 31.6001 79.7231 31.5905 79.9652 31.5373Z" fill="white"/>
<path d="M75.9603 34.6642C75.5801 35.2629 76.0567 35.7461 76.2303 36.2298C75.9959 36.444 75.6354 36.2485 75.5149 36.0606C75.2585 35.6752 75.3445 34.8896 75.0427 34.7686C74.9654 34.9808 74.915 35.2163 74.915 35.2163C74.915 35.2163 75.1446 35.7537 75.087 36.1092C75.0503 36.324 74.8608 36.5747 74.6104 36.5797C73.9432 36.5959 74.2719 35.6083 74.0144 35.0486C73.9618 35.1854 73.924 35.3323 73.8627 35.4604C73.9098 35.6063 73.9355 35.8109 73.9432 35.9289C73.9585 36.1634 73.9399 36.4161 73.9799 36.6162C74.0352 36.8993 74.1925 37.0872 74.4324 37.1055C74.9309 37.145 75.1583 36.7413 75.2333 36.4101C75.3193 36.7479 75.9783 37.1202 76.3026 36.7053C76.7321 36.1583 76.3886 35.6898 76.1684 35.1753C76.0096 34.7949 76.0556 34.5452 75.9603 34.6642Z" fill="white"/>
<path d="M57.2327 33.0763C57.2672 33.3225 57.3938 33.4906 57.6003 33.516C58.0265 33.5702 58.2423 33.2313 58.3229 32.9497C58.3793 33.244 58.9304 33.5904 59.2301 33.247C59.6261 32.7927 59.3517 32.3754 59.1862 31.9231C59.0679 31.5878 59.1188 31.3751 59.0312 31.4738C58.6751 31.9732 59.0635 32.4103 59.1901 32.8342C58.9775 33.0085 58.6768 32.8256 58.5814 32.66C58.3787 32.3171 58.4894 31.644 58.2363 31.527C58.1596 31.7073 58.1054 31.9074 58.1054 31.9074C58.1054 31.9074 58.2769 32.3799 58.21 32.6833C58.1689 32.8672 57.9942 33.0753 57.7772 33.0698C57.2026 33.0571 57.5324 32.2194 57.3363 31.7276C57.2853 31.8425 57.2453 31.9687 57.1856 32.075C57.2201 32.2037 57.2327 32.3799 57.2327 32.4827C57.2371 32.6853 57.2086 32.9011 57.2327 33.0763Z" fill="white"/>
<path d="M70.8302 56.2724C70.8943 56.1706 71.0357 55.8911 71 55.7001C70.9644 55.5092 70.7305 54.7125 70.2764 54.5129C69.825 54.3134 69.4832 54.7317 69.2668 55.3137L69.1167 55.3101C69.0811 55.3962 69.0361 55.5249 69.0005 55.7573C68.9501 56.0931 68.8548 56.3094 68.2791 56.8321C67.7948 57.2697 66.2258 58.3207 65.2091 58.8145C64.1913 59.3093 63.4588 59.7363 63.1888 59.8659C62.9198 59.9936 62.9981 60.0412 63.2671 59.9606C63.5355 59.8806 64.8864 59.4456 65.4249 59.2237C65.9623 59.0004 66.6197 58.6332 67.4119 58.1191C68.2927 57.5478 68.8192 56.9764 68.9961 56.47C69.1221 56.1088 69.1545 55.9645 69.1545 55.9645C69.1545 55.9645 69.4853 56.16 70.0469 56.2881C70.6062 56.4168 70.765 56.3753 70.8302 56.2724ZM70.071 55.1404C70.3202 55.2352 70.472 55.5066 70.5169 55.6712C70.2309 55.6778 69.7045 55.5325 69.4804 55.4312C69.6152 55.1703 69.8496 55.0574 70.071 55.1404Z" fill="white"/>
<path d="M64.8677 56.8328C64.0865 56.7244 62.1182 56.4251 61.6367 55.2824C62.041 54.6929 63.903 53.9463 66.2356 53.2479C68.5682 52.551 71.0054 51.6464 71.6606 51.2098C71.8041 51.1612 72.0819 51.1759 72.0819 51.1759C72.1991 50.838 72.7847 49.6519 72.8214 49.4037C72.1695 49.4407 68.1513 49.7359 66.3665 49.8317C64.5807 49.9279 61.1415 49.9046 59.9954 49.8919C60.6983 49.3865 62.3664 48.3998 64.7505 47.5581C65.0595 47.4487 65.3454 47.3499 65.6122 47.2608C65.8105 47.6143 65.9579 47.9638 65.9885 48.2682C66.1403 48.1122 66.2542 47.595 66.2159 47.0642C67.6057 46.6206 68.3217 46.4737 68.6307 46.3901C68.8257 46.1374 69.1714 45.1153 69.2228 44.3723C69.0152 43.994 68.365 43.5229 67.7865 43.1182C66.9894 42.5616 66.1299 42.0764 65.272 42.2886C64.0991 42.5763 63.8641 44.7309 64.1375 45.1877C64.2246 45.3321 64.4311 45.5879 64.6749 45.9034C63.8181 46.2402 62.9219 46.6363 62.1319 47.0526C60.3723 47.9795 58.4079 48.9934 57.8349 49.9684L57.6705 50.0484C57.6245 50.1406 57.2619 51.6494 57.2093 51.812C57.5752 51.7994 60.3077 51.8044 62.2108 51.7452C64.1128 51.6844 65.776 51.6241 66.4273 51.6241C65.4626 51.8525 62.9345 52.7921 62.2075 53.3446C61.4806 53.8987 61.0237 54.741 61.0116 56.185C60.334 55.9196 59.0746 55.3133 58.0014 53.8617C56.805 52.244 57.0526 50.5802 56.5738 48.3968C55.8781 45.2282 54.3924 42.553 53.4671 41.7345C53.1554 42.8528 53.1154 43.6956 53.1154 43.6956C53.1154 43.6956 54.2746 46.2584 54.8613 47.8944C55.448 49.5308 55.9493 51.143 55.9246 51.5041C55.4415 52.5636 52.5813 54.783 50.1978 56.0822C47.9375 57.3139 45.9462 57.4466 45.2406 56.5694C45.102 56.3982 45.0078 56.1956 44.9546 55.9662C45.2614 55.8228 45.5693 55.6785 45.8848 55.5342C47.9172 54.6083 51.5268 52.6594 52.3726 51.6368C53.2853 50.3974 53.2727 48.6526 52.7374 47.6538C52.2044 46.6555 51.3685 45.4997 51.3033 45.091C51.2523 44.898 51.8462 45.1695 52.1968 45.1877C52.3666 45.1751 52.2817 44.9466 51.9174 44.5855C51.6259 44.2978 50.4991 43.3644 50.0685 43.0002C49.9606 42.9075 49.88 42.945 49.8581 43.0428C49.7743 43.4155 49.6028 44.2138 49.5366 44.6078L49.5826 44.8063C49.7064 44.8798 49.8488 44.9623 49.9178 45.1685C50.0154 45.4607 50.3566 46.2762 50.916 47.3053C51.4764 48.334 52.286 49.4695 52.3655 50.0429C51.707 50.8826 48.3867 52.671 45.1524 54.1449C45.3524 53.5249 45.6679 52.824 46.0864 52.0455C46.2053 51.9138 46.3138 51.7512 46.4146 51.5679C46.7372 50.9783 46.7685 50.2576 46.5729 50.4101C46.4053 50.5716 46.2847 51.1566 46.093 51.1961C45.7002 51.2767 45.1491 50.8183 45.2877 49.9801C45.4132 49.2239 45.8174 48.5412 45.9922 48.1041C46.2343 47.4993 46.3006 46.9017 46.1171 47.2268C45.7046 47.9531 44.9305 49.3601 44.6928 50.3432C44.4561 51.3248 44.7076 51.9959 45.1223 52.2557C45.2773 52.3545 45.4258 52.3854 45.5671 52.3661C45.2833 52.906 44.9327 53.5685 44.6769 54.3586C43.3764 54.9406 42.1109 55.4607 41.0635 55.8355C37.2984 57.1833 34.6152 57.9774 32.7384 58.567L32.665 58.5999C32.803 58.1537 32.7844 57.7728 32.6365 57.8873C32.4688 58.0499 32.3489 58.6348 32.1571 58.6733C31.7644 58.7539 31.2133 58.296 31.3513 57.4573C31.4773 56.7011 31.8816 56.0194 32.0563 55.5818C32.2974 54.9775 32.3642 54.3789 32.1812 54.7045C31.7682 55.4308 30.9947 56.8378 30.7569 57.8204C30.5197 58.8025 30.7712 59.4736 31.1853 59.7339C31.7014 60.0581 32.1412 59.6605 32.4787 59.0456L32.597 58.7929C32.7143 58.7929 32.912 58.7655 33.2073 58.6997C34.0674 58.5062 36.2175 58.1942 39.1741 57.8088C41.3632 57.5241 42.8746 56.9229 44.3356 56.2539C44.329 56.4154 44.3274 56.58 44.3345 56.7497C44.4139 58.7559 45.7287 59.3221 47.5266 58.9468C49.261 58.5827 51.6796 56.9923 53.1291 55.9196C54.6406 54.8013 55.5127 53.802 55.7351 53.4535C56.1383 52.5991 56.2489 51.655 56.2763 51.2098C56.4084 52.4365 56.5152 54.1342 57.6755 55.5904C58.7437 56.9305 60.9328 58.8005 65.0501 58.8516C65.0638 58.3618 64.8677 56.8328 64.8677 56.8328ZM64.5955 44.4017C65.1849 43.7402 66.4427 44.1727 67.3866 45.0115C66.9028 45.1249 66.246 45.327 65.5213 45.5858C65.0907 45.0667 64.6102 44.5663 64.5955 44.4017Z" fill="white"/>
<path d="M41.4475 35.3323C41.7148 35.2102 42.5327 34.8425 43.4141 34.3289C44.2939 33.8189 45.1206 33.201 45.5249 32.7903C45.6799 32.6327 45.818 32.5097 45.9062 32.3633C46.1702 32.4727 46.3521 32.5861 46.4655 32.6307C46.6358 32.6966 46.8632 32.7913 47.0111 32.3061C47.1585 31.8214 46.9629 31.5083 46.6747 31.1346C46.431 30.8211 46.0442 30.35 45.7303 30.233C45.4641 30.1332 45.3375 30.7279 45.3781 30.7132H45.5561L45.5906 30.7299C45.2241 30.9147 44.9404 31.4901 44.9119 31.6922C44.8828 31.912 44.9245 32.0741 45.4504 32.2093L45.6618 32.2716C45.223 32.7913 44.4051 33.3286 43.848 33.7095C43.0575 34.2515 41.9356 34.9286 41.6162 35.1241C41.2968 35.3186 41.3237 35.3799 41.4475 35.3323ZM46.1981 31.5144L46.2266 31.2546C46.5964 31.676 46.8709 32.1774 46.8435 32.2483C46.6736 32.262 46.4622 32.105 46.0924 31.947C46.1335 31.8214 46.168 31.6826 46.1981 31.5144ZM45.1365 31.5149C45.1343 31.4359 45.2767 31.2161 45.578 31.0961C45.8788 30.975 46.0119 31.3128 46.0382 31.7241L45.9489 31.8887L45.6777 31.795C45.3907 31.7109 45.1967 31.6633 45.1365 31.5149Z" fill="white"/>
<path d="M61.1627 43.2651C61.5966 42.9784 62.7892 42.1174 63.4658 41.5532C63.9363 41.1612 64.4891 40.5838 64.8643 40.0955C65.0999 40.248 65.3196 40.3832 65.5195 40.5007C65.9052 40.7261 66.0602 41.0604 66.0602 41.0604C66.1314 40.951 66.4634 40.3523 66.3336 40.0611C66.2558 39.9659 65.7814 39.6888 65.2966 39.392C65.5425 38.84 65.8811 37.8852 65.3963 37.551C64.9816 37.2673 64.282 37.7368 63.9582 38.3461C63.6909 38.8506 63.6564 39.2786 64.1664 39.6291C64.3099 39.7278 64.4474 39.821 64.5822 39.9097C64.0678 40.4724 63.1201 41.305 62.4457 41.8718C61.6081 42.5727 60.816 43.26 60.6779 43.4241L60.6379 43.488C60.455 42.9784 60.5048 42.6639 60.369 42.8331C59.7822 43.7533 60.5174 44.4989 60.7847 45.2434C60.4232 45.5716 59.8693 45.2703 59.6836 44.9831C59.2881 44.3885 59.4201 43.181 58.9572 42.9941C58.8378 43.3203 58.76 43.6835 58.76 43.6835C58.76 43.6835 59.1123 44.5105 59.023 45.0565C58.9676 45.3868 58.6751 45.7732 58.2911 45.7798C57.2634 45.8061 57.7701 44.2857 57.3735 43.4246C57.293 43.6358 57.2355 43.8617 57.139 44.0572C57.2119 44.2836 57.2519 44.5977 57.2623 44.7795C57.2886 45.1406 57.259 45.5281 57.3198 45.838C57.4047 46.2736 57.6469 46.5633 58.0166 46.5902C58.783 46.6525 59.1331 46.0295 59.2492 45.5215C59.3812 46.0411 60.3963 46.6124 60.8954 45.9753C61.5566 45.133 61.0274 44.4118 60.6894 43.6196L60.6494 43.5168C60.6965 43.5335 60.8735 43.456 61.1627 43.2651ZM64.1604 38.5224C64.4146 38.0509 64.9498 38.0108 65.1103 38.258C65.2379 38.4545 65.2483 38.8379 65.0566 39.2426C64.5844 38.9463 64.1631 38.6561 64.1604 38.5224Z" fill="white"/>
<path d="M44.4325 40.2667C43.5297 40.2029 43.0438 39.3758 42.7661 38.181C42.4878 36.9862 42.6581 35.4106 42.7337 35.0069C42.8093 34.6037 42.3837 34.8119 42.2182 35.7909C42.0539 36.769 41.8885 38.333 42.4708 39.9704C43.052 41.6059 44.043 42.2162 44.9113 42.007C45.7796 41.7988 46.5438 39.7613 46.8133 38.8471C47.0823 37.9324 48.2858 34.2021 48.9673 34.0015C49.0626 34.4589 48.4376 35.6061 48.2376 37.3307C48.0388 39.0552 48.385 41.3172 50.5741 41.7183C52.7631 42.1199 54.2483 40.6998 54.7868 39.7126C55.3258 38.727 55.5773 37.6908 55.6381 37.1701C55.7082 38.4935 56.611 40.56 58.3645 41.149C60.0589 41.7183 61.3534 41.1971 61.9253 40.4592C62.4332 39.8038 62.8468 38.454 62.8824 37.4188C62.9169 36.3845 62.0228 34.4918 61.8229 33.8891C61.6224 33.2879 61.5189 32.8706 61.5013 32.6624C61.4843 32.4542 61.9538 32.9035 62.2491 32.9916C62.449 33.0316 62.3789 32.5986 62.1357 32.3013C61.893 32.005 60.5794 30.013 60.4873 30.1518C60.4309 30.2348 59.905 31.7001 59.8705 31.9245C60.0787 32.0612 60.3197 32.438 60.3378 32.7992C60.3542 33.1603 60.7021 34.7481 61.0236 35.6304C61.3452 36.5127 61.9703 38.2053 62.0141 38.6708C61.389 39.1114 59.9811 39.6721 58.6439 39.1038C57.3067 38.5335 56.88 37.7075 56.7326 36.2316C56.6384 35.2885 56.6291 33.5513 56.2927 32.0987C56.1032 31.2777 55.7038 30.443 55.2294 29.9998C55.1176 30.2718 54.6136 31.9488 54.6136 31.9488C54.778 32.4299 55.2891 34.0502 55.2727 35.4541C55.2546 36.8571 55.1439 38.2302 53.5706 39.1763C51.9984 40.1224 49.7584 39.7456 49.176 38.2692C48.5937 36.7933 49.8882 33.4728 49.8712 32.5986C49.8537 31.7244 49.6965 31.6033 49.3322 31.7482C48.9673 31.8925 48.2196 32.7353 47.5775 34.1064C46.9344 35.4784 46.649 36.8495 46.283 38.0048C45.9187 39.1601 45.3353 40.3305 44.4325 40.2667Z" fill="white"/>
<path d="M18.2192 35.1494C19.3302 35.0688 20.2691 34.2266 20.5118 34.0027C20.755 33.7773 20.886 33.4415 20.7118 33.5692C19.4266 34.7163 17.707 34.7488 17.6106 34.5558C17.6544 34.3633 18.1069 34.0503 18.767 33.6097C19.168 33.3417 19.5252 33.0905 19.7925 32.7345L19.8654 32.7471C20.3546 32.8545 20.9194 33.0682 21.092 32.8971C21.373 32.62 21.4102 32.1662 21.1056 31.6769C20.8482 31.2616 20.2478 30.8752 19.7262 30.5961C19.2058 30.3186 19.105 30.7617 19.0382 30.9197C18.9741 31.0671 19.0004 31.1927 19.1105 31.1958C18.9429 31.4242 18.8235 31.7185 18.7796 31.9616C18.7511 32.1186 18.7741 32.2472 18.8382 32.3531C18.8569 32.383 18.9533 32.501 19.1357 32.5709L19.362 32.6413C18.9725 33.0009 18.5238 33.2825 18.2882 33.4248C17.8631 33.6816 17.3591 34.1308 17.203 34.5953C17.0463 35.0613 17.1071 35.2299 18.2192 35.1494ZM20.1831 31.8724L20.2259 31.6354V31.4835C20.5781 31.7397 21.1413 32.225 21.1067 32.5157C20.8838 32.465 20.4587 32.3754 20.0549 32.2715C20.1064 32.1505 20.1486 32.0178 20.1831 31.8724ZM19.139 31.9464C18.8799 31.7397 19.1324 31.5336 19.362 31.4009C19.6583 31.2297 19.832 31.371 19.9837 31.8203C19.9306 31.9489 19.8561 32.074 19.7684 32.1941C19.5378 32.1226 19.2129 32.0082 19.139 31.9464Z" fill="white"/>
<path d="M21.5522 47.6962C21.2329 47.9732 21.1091 48.8748 21.1742 48.929C21.2389 48.9831 22.237 49.32 22.3931 49.3929L22.4643 49.1214C22.9398 49.5484 23.4668 51.6786 23.5841 51.6847C23.7013 51.6903 23.8711 51.4436 23.9823 50.8779C24.0848 50.3532 24.1872 49.5681 24.294 48.929C24.3937 48.344 24.5488 48.0092 24.9005 47.9423C25.2527 47.8765 25.5135 48.3278 25.6044 48.6347C25.6044 48.6347 25.8515 48.0446 25.9041 47.6779C25.8455 47.485 25.2976 46.7577 24.8484 46.9982C24.3987 47.2393 24.1171 48.2599 24.0262 48.8981C23.9347 49.5352 23.8646 50.3253 23.7539 50.4519C23.6378 49.908 23.2658 48.9345 22.8166 48.3875C22.3115 47.7747 21.721 47.5498 21.5522 47.6962Z" fill="white"/>
<path d="M17.2945 46.6073C17.7114 46.4928 18.6498 46.349 19.099 46.1145C19.5225 45.9159 20.245 44.9475 20.5255 44.5864C20.8054 44.2253 20.806 44.044 20.7348 43.9483C20.4483 43.7912 18.5972 43.6358 17.7043 43.8571C17.4577 44.0237 16.9751 44.9166 16.9039 45.1035C16.8316 45.2894 16.9302 45.2778 17.2293 45.2119C17.529 45.1451 18.9494 45.181 19.4633 45.2894C19.2491 45.4403 17.7963 46.1742 17.5092 46.349C17.2233 46.5232 17.151 46.6255 17.2945 46.6073Z" fill="white"/>
<path d="M103.358 51.777C103.315 50.6946 102.785 49.0328 100.769 46.4832C100.073 45.6029 99.0941 44.4573 98.0614 43.2838C98.0329 42.8836 98.0045 42.518 97.9787 42.2039C97.8434 40.5888 97.3849 37.2936 97.1877 35.3457C97.1395 34.8544 97.1356 34.3317 97.1427 34.0587C97.1499 33.8419 97.306 33.8708 97.5207 34.0936C97.7355 34.316 98.0664 34.6406 98.1354 34.6184C98.2822 34.5677 98.1546 34.0759 97.8615 33.4929C97.5689 32.909 96.4629 30.5472 96.2597 30.4556C96.155 30.409 95.6335 31.7957 95.6012 32.0794C95.7047 32.2536 95.9721 32.5245 95.9978 33.3131C96.0252 34.1012 96.5007 38.7558 96.7741 41.6888L96.7889 41.8524C95.2451 40.1289 93.7912 38.5573 93.193 37.9201C93.0895 37.8097 92.9755 37.6841 92.8528 37.5494C92.7553 36.7648 92.6655 36.0173 92.6036 35.3999C92.5532 34.9096 92.5499 34.3859 92.5586 34.1129C92.5636 33.8966 92.7208 33.926 92.9355 34.1488C93.1514 34.3712 93.4812 34.6958 93.5502 34.6725C93.697 34.6229 93.5693 34.1311 93.2757 33.5471C92.9837 32.9632 91.8306 30.5472 91.6262 30.4556C91.5227 30.409 90.9771 31.9061 90.9448 32.1877C91.0494 32.363 91.3162 32.634 91.3425 33.4225C91.3529 33.7573 91.44 34.7723 91.5561 36.0532C90.5328 34.8372 89.5309 33.5639 89.4596 33.305C89.4344 33.1774 89.6508 33.2559 90.0513 33.3207C90.4501 33.3846 90.8242 33.5046 90.7602 33.3071C90.73 33.2154 90.5777 32.9865 90.1959 32.7494C89.8135 32.5129 88.834 31.9001 88.1054 31.4675C87.3752 31.0345 87.0136 30.6703 86.863 30.7741C86.7885 30.8253 86.8548 32.3098 86.8975 32.4937C87.081 32.5104 87.4201 32.6466 87.636 32.9353C87.854 33.224 89.2498 35.1811 90.3537 36.5045C90.6714 36.8854 91.1688 37.4759 91.7512 38.1576C91.8651 39.3768 91.9845 40.6364 92.0831 41.6888C92.3072 44.0896 93.1125 50.4211 93.1201 52.479C92.5258 53.0366 91.3102 53.8145 90.0595 53.8308C88.8088 53.8465 88.123 53.5172 87.619 52.5873C87.4634 52.2991 87.3188 52.0094 87.1753 51.7471C86.8345 51.1236 86.0741 50.7736 85.3412 50.9453L85.2294 50.9752L85.03 51.0709C84.5337 51.3308 84.0204 51.7663 83.5186 52.442C82.6509 53.614 82.0965 54.8852 81.4544 55.9863C80.7855 57.133 80.2722 57.9024 79.0988 57.7185C78.2727 57.5889 77.6455 56.8803 77.2587 56.0086C78.345 55.257 79.1339 54.2765 79.7107 52.9176C80.4618 51.1515 80.7297 49.1605 80.6628 46.9218C80.5987 44.8149 79.6384 39.8579 79.3848 37.9581C79.1317 36.0573 78.7679 34.4973 78.8101 34.0916C78.8496 33.7001 79.473 34.6219 79.7924 34.6908C79.9556 34.6543 79.868 34.0663 79.5579 33.5694C79.3475 33.2316 78.6814 31.6949 78.2453 30.9539C78.0404 30.6035 77.9911 30.4004 77.8958 30.3588C77.8016 30.3158 77.0757 31.8661 77.1634 32.0348C77.3781 32.3417 77.5249 32.4881 77.5699 33.0381C77.6159 33.5882 78.1133 37.6258 78.5483 40.5994C78.8759 42.8431 79.5995 46.9188 79.6926 49.9313C79.7233 50.9144 79.5831 51.62 79.4615 52.014C79.1492 52.6177 78.6403 53.2883 76.8522 54.5611C76.5761 52.7626 76.8763 51.3014 76.6145 51.1661C76.3192 51.1981 76.2721 52.0363 76.2387 53.0705C76.2222 53.5481 76.2431 54.2096 76.3329 54.9202C74.1367 56.388 71.2355 57.7246 69.8731 58.4382C69.0738 58.8576 69.362 58.9553 70.0385 58.7462C70.7151 58.536 74.4331 57.561 76.4178 56.5171L76.6315 56.3986C76.7323 56.7486 76.8544 57.0874 77.0045 57.3999C77.6723 58.7877 78.6266 59.6117 79.6603 59.5312C80.5297 59.4644 81.1602 58.5339 81.7103 57.4242C82.2663 56.3009 83.2058 54.1676 84.1272 53.3739C84.4811 53.068 84.847 52.8259 85.2031 52.6805C85.2031 52.6805 85.8326 52.4703 86.4116 52.8487C86.6192 52.9854 86.7743 53.1799 86.8723 53.3977C87.1008 53.8976 87.3708 54.5338 87.923 55.0666C88.8959 56.0036 90.4605 55.8101 91.6339 55.2651C92.8057 54.7196 93.4039 53.8687 93.6647 52.8578C94.1095 51.1282 94.0383 49.356 93.9534 47.7818C93.8553 45.9853 93.5683 44.1493 93.405 42.2039C93.3524 41.5784 93.25 40.7083 93.1322 39.7647C94.2749 41.0836 95.4615 42.4222 96.1813 43.1541C96.4295 43.4068 96.6913 43.6874 96.9603 43.9837C97.1751 46.9284 97.3816 50.6131 97.4906 52.1594C97.5985 53.7001 97.529 55.6369 97.5164 55.9737C97.5032 56.3105 97.6906 56.2528 97.9595 55.5052C98.32 54.5018 98.5462 51.8707 98.4674 50.1258C98.4203 49.0891 98.3167 47.1989 98.205 45.411C99.0919 46.465 99.9339 47.5291 100.482 48.2473C101.456 49.5226 102.35 51.039 102.663 51.9851C102.975 52.9323 103.01 53.2128 103.071 53.3815C103.131 53.5502 103.4 52.8593 103.358 51.777Z" fill="white"/>
<path d="M86.9102 87.8023C86.8223 87.5507 86.5529 87.3661 86.2307 87.3661C85.9085 87.3661 85.6396 87.5507 85.5511 87.8023H82.5003C82.4695 87.4639 82.4995 87.1238 82.5954 86.7925L88.894 86.7886L89.0693 87.0842C89.2277 87.3507 89.4278 87.5914 89.6598 87.8024L86.9102 87.8023ZM91.0799 84.8754H83.5109C84.0926 84.4556 84.3977 83.8429 84.3158 83.2232C84.2636 82.8325 83.8765 82.5408 83.4048 82.5012H83.1678C82.5938 82.5573 82.1776 82.971 82.2381 83.4254L82.2612 83.6001L82.2893 83.8688C82.3201 84.2061 82.2904 84.5452 82.1952 84.8754H26.2475C27.0783 86.0841 28.593 86.8254 30.2286 86.8242L81.2819 86.7929C80.698 87.2132 80.3918 87.827 80.4742 88.4478C80.5347 88.9022 81.0482 89.2259 81.6222 89.1698C82.1957 89.1138 82.6119 88.7 82.5519 88.2451L82.5289 88.0709H85.5292C85.5819 88.3638 85.8744 88.5885 86.2307 88.5885C86.587 88.5885 86.8795 88.3638 86.9328 88.0709H89.9848V88.0638C90.622 88.516 91.4318 88.7759 92.2885 88.7759C93.0945 88.7759 93.7477 88.216 93.7477 87.5248V87.1633C93.7477 85.9001 92.5535 84.8753 91.08 84.8753" fill="white"/>
</g>
<defs>
<clipPath id="clip0_909_102887">
<rect width="120" height="120" fill="white"/>
</clipPath>
</defs>
</svg>
