<svg width="120" height="120" viewBox="0 0 120 120" fill="none" xmlns="http://www.w3.org/2000/svg">
<g clip-path="url(#clip0_307_75577)">
<path d="M0 120H120V0H0V120Z" fill="#005801"/>
<path d="M105 47.6647C104.988 45.5567 104.17 39.8785 103.962 37.9736C103.755 36.0688 103.546 34.3406 103.597 33.936C103.646 33.5455 104.247 34.4789 104.565 34.5544C104.729 34.5214 104.656 33.9319 104.357 33.4285C104.155 33.0866 103.466 31.8082 103.048 31.0591C102.851 30.7046 102.807 30.499 102.713 30.4554C102.618 30.4118 101.857 31.947 101.941 32.1172C102.148 32.4292 102.291 32.5781 102.323 33.1291C102.356 33.6802 102.641 37.6145 103.004 40.5967C103.277 42.8465 103.877 47.6935 103.899 50.7071C103.905 51.6902 103.796 52.6272 103.665 53.0187C103.329 53.6336 102.804 54.1882 100.849 55.3318C98.6522 56.6178 95.7208 57.688 94.4608 58.4041C93.6774 58.8508 93.9371 58.9106 94.6191 58.7151C95.2995 58.5196 98.8176 57.8931 100.527 57.1708C102.131 56.4911 103.173 55.3541 103.963 53.6954C104.939 51.6446 105.014 49.9043 105 47.6647Z" fill="white"/>
<path d="M98.1977 31.6521C98.3675 31.5863 99.7738 31.5139 100.152 31.5919C99.9036 31.9474 98.2174 32.7345 98.2103 32.8788C98.2563 32.9761 99.375 32.699 99.7278 32.5451C99.9584 32.4063 100.112 32.1915 100.283 32.0133C100.686 31.5493 101.165 30.6888 101.044 30.5809C100.849 30.4067 98.9318 30.5151 98.6792 30.551C98.51 30.5754 98.0805 31.3452 98.0016 31.5427C97.9243 31.7403 98.0279 31.718 98.1977 31.6521Z" fill="white"/>
<path d="M101.07 44.1464C101.363 43.1537 101.436 41.9493 101.037 40.6815C100.627 39.3763 99.6091 38.5807 98.8751 38.1729L98.7441 39.4295C98.7441 39.4295 99.7735 39.9411 100.477 41.2291C100.923 42.046 101.109 43.2013 100.757 44.4893C100.698 44.8089 100.927 44.6326 101.07 44.1464Z" fill="white"/>
<path d="M90.1798 50.448C90.4439 49.554 90.5085 48.4696 90.1502 47.328C89.781 46.1525 88.8645 45.4358 88.2033 45.0701L88.085 46.2011C88.085 46.2011 89.0119 46.662 89.6457 47.8208C90.0478 48.5557 90.2143 49.5976 89.8982 50.7569C89.8456 51.0436 90.0511 50.8856 90.1798 50.448Z" fill="white"/>
<path d="M52.3727 33.3382C52.7968 34.1136 52.9726 35.2116 52.639 36.4348C52.5831 36.7382 52.7989 36.5715 52.9364 36.1096C53.2136 35.1676 53.2827 34.0229 52.9036 32.818C52.5141 31.5776 51.5472 30.8225 50.8498 30.436L50.7266 31.6293C50.7266 31.6293 51.7044 32.115 52.3727 33.3382Z" fill="white"/>
<path d="M26.8506 33.7394C27.2067 34.5741 27.2308 35.701 26.6556 36.8882C26.5438 37.1866 26.8161 37.0452 27.0445 36.599C27.5113 35.6869 27.7731 34.5452 27.5365 33.2841C27.2938 31.9875 26.3198 31.1037 25.5906 30.6251L25.2598 31.8097C25.2598 31.8097 26.2891 32.4236 26.8506 33.7394Z" fill="white"/>
<path d="M33.9055 52.3965C34.358 51.5567 34.5464 50.9915 34.7475 49.9967C34.9233 49.1215 34.9348 48.1106 34.8713 47.0814C36.2255 46.5294 37.8394 45.6131 38.3817 45.5458C38.0108 46.8191 38.8961 48.1932 40.6842 48.0139C40.8211 49.4538 40.9383 50.7185 41.0096 51.4686C41.1553 53.0063 41.1334 54.9441 41.129 55.2809C41.123 55.6192 41.3678 55.5554 41.6193 54.8017C41.9545 53.7928 42.0581 51.1581 41.9365 49.4158C41.9074 48.9802 41.8581 48.3922 41.7984 47.7221C42.9576 47.1858 43.1504 46.1505 43.5837 45.7094C43.9749 47.0794 46.1278 47.2653 46.7923 46.972C47.6162 46.6079 47.8863 45.953 48.0983 44.433C48.3108 42.9136 47.6918 42.3018 47.4705 42.1361C47.4486 42.32 46.9095 44.1059 46.9095 44.1059C46.9095 44.1059 47.4206 44.6458 47.4464 44.9112C47.03 45.288 46.1519 45.3113 45.4145 45.0712C44.6766 44.8311 44.4504 44.3895 44.4942 44.0932C44.5369 43.7959 44.8147 43.5254 44.824 43.1633C44.8322 42.8012 44.6586 42.906 44.3633 43.2266C44.068 43.5477 43.8774 43.8364 43.4687 44.5257C43.1345 45.0894 42.5922 45.7772 41.6357 45.9738C41.4779 44.3186 41.2977 42.5575 41.1772 41.4514C41.1142 40.8674 40.4847 35.8208 40.4398 35.2561C40.4009 34.7643 40.3281 34.1844 40.3401 33.9119C40.3522 33.6951 40.488 33.7812 40.6984 34.0081C40.9093 34.2345 41.278 34.6296 41.3415 34.5987C41.5563 34.4933 41.3366 33.8374 41.0556 33.2499C40.7751 32.6609 39.8175 30.3371 39.6165 30.2414C39.5129 30.1928 38.8665 31.6231 38.8282 31.9047C38.9284 32.0809 39.1903 32.358 39.1996 33.1461C39.2029 33.3659 39.3442 35.4384 39.5403 37.398C39.7118 39.1286 39.9391 40.7707 39.961 40.9616C40.1172 42.2825 40.3067 44.1443 40.4869 45.9748C39.4488 45.7772 39.1727 45.0925 39.1957 44.702C39.222 44.2613 39.4209 43.764 39.3256 43.6515C39.1256 43.5315 37.9358 44.1965 36.2764 44.9112C35.8097 45.1117 35.2838 45.327 34.7289 45.5311C34.5842 44.2836 34.3936 43.0974 34.3169 42.1903L34.3076 42.0895C35.3988 42.0191 36.2923 41.4681 36.6988 40.9434C37.2066 40.2875 37.5616 38.9377 37.5961 37.9035C37.6306 36.8682 36.7952 34.9755 36.5964 34.3738C36.3959 33.7716 36.2923 33.3542 36.2748 33.1461C36.2567 32.9379 36.7262 33.3872 37.0215 33.4753C37.2214 33.5153 37.1524 33.0823 36.9081 32.785C36.6654 32.4887 35.3528 30.4967 35.2608 30.6365C35.2044 30.7185 34.6785 32.1838 34.6439 32.4081C34.851 32.5449 35.0932 32.9217 35.1101 33.2828C35.1277 33.6439 35.4169 35.2318 35.7374 36.1141C36.059 36.9964 36.7437 38.689 36.787 39.1545C36.2978 39.4994 35.1841 40.0834 34.0824 40.0484C33.894 38.5047 33.6551 36.7117 33.5275 35.442C33.4782 34.9512 33.4749 34.4275 33.4826 34.154C33.4886 33.9372 33.6447 33.9671 33.8595 34.1899C34.0753 34.4128 34.4062 34.7369 34.4741 34.7136C34.622 34.6645 34.4938 34.1727 34.2008 33.5887C33.9077 33.0048 32.743 30.5347 32.5387 30.4425C32.4352 30.3954 31.9136 31.7826 31.8808 32.0658C31.9849 32.241 32.2516 32.512 32.2779 33.3C32.2987 33.9276 32.6044 37.0029 32.8663 39.7116C31.7761 39.1479 31.4042 38.3421 31.2694 36.9893C31.1752 36.0462 31.1659 34.309 30.8295 32.8559C30.64 32.0343 30.2406 31.1997 29.7673 30.7565C29.6544 31.0295 29.1505 32.7054 29.1505 32.7054C29.3148 33.1866 29.8259 34.8068 29.8084 36.2108C29.7914 37.6148 29.6807 38.9873 28.1074 39.9329C26.5352 40.8791 24.1768 40.5027 23.5945 39.0268C23.0122 37.5499 24.3067 33.847 24.2897 32.9729C24.2722 32.0987 24.116 31.9781 23.7506 32.1225C23.3858 32.2668 22.6391 33.1096 21.996 34.4807C21.3529 35.8527 21.0669 37.552 20.7015 38.7073C20.3372 39.8625 19.7538 41.033 18.851 40.9682C17.9482 40.9044 17.4623 40.0783 17.1845 38.8835C16.9062 37.6877 17.0766 36.1131 17.1522 35.7094C17.3407 34.6984 16.9041 34.9056 16.6367 36.4929C16.4713 37.4719 16.3069 39.0355 16.8893 40.6719C17.4705 42.3083 18.4615 42.9187 19.3298 42.7095C20.1986 42.5013 20.9623 40.4637 21.2318 39.5485C21.5008 38.6348 22.7043 34.5764 23.3858 34.3768C23.4811 34.8342 22.8561 36.3086 22.6561 38.0331C22.4567 39.7577 22.9218 42.0744 25.1109 42.475C27.2999 42.8761 28.7851 41.4564 29.3236 40.4708C29.8626 39.4837 30.1141 38.4489 30.1749 37.9278C30.245 39.2507 31.1478 41.3167 32.9013 41.9057L33.0821 41.9579C33.19 43.0407 33.3659 44.4543 33.5275 45.9388C33.1862 46.0442 32.8416 46.1394 32.4987 46.2214C32.4549 46.0791 32.4067 45.9398 32.3481 45.8117C31.8128 44.6604 30.927 43.5994 29.6994 43.6728C28.4454 43.7473 27.0781 45.4207 27.1378 46.6428C27.1772 47.4648 27.6297 48.1395 29.2754 48.3122C30.027 48.3917 30.8251 48.3081 31.6496 48.1283C31.7657 48.4682 31.8391 48.806 31.8473 49.1139C31.3258 49.7238 27.0107 52.9784 23.7797 53.2914C20.5487 53.6039 19.5631 51.9102 19.5308 50.21C19.5067 48.9164 20.2846 47.6254 20.8313 46.732C21.6136 46.1596 22.2557 45.444 22.661 44.8919C22.7712 44.9598 22.8758 45.0226 22.9755 45.0808C23.3617 45.3052 23.5156 45.6405 23.5156 45.6405C23.5868 45.5311 23.9188 44.9334 23.789 44.6412C23.7293 44.5693 23.4373 44.3895 23.0861 44.1763C23.4548 43.2575 23.4499 42.3403 22.9722 42.1361C22.4381 41.9087 21.7407 42.5408 21.44 42.9263C21.2838 43.1268 21.2241 43.3542 21.223 43.5452C21.2208 43.7908 21.3364 44.0127 21.6224 44.2102C21.9072 44.4047 22.1718 44.5809 22.4205 44.74C21.7144 45.4815 20.0458 46.5679 19.0246 47.206C18.9868 47.1123 18.8373 47.2111 18.6362 47.4481L18.3596 47.6188C17.545 48.1172 15.5915 49.2117 15.2075 49.4796C14.8229 49.7481 15.0639 49.6994 15.2075 49.6397C15.4786 49.4933 15.8347 49.316 16.2346 49.1205C16.8011 48.8435 17.4601 48.53 18.1043 48.2155C17.9137 48.5386 17.7165 48.9164 17.5417 49.3287C16.7731 51.1434 15.5307 54.9046 18.2183 57.1675C20.7897 59.3338 25.2095 58.5097 28.8749 56.2584C32.5409 54.0066 33.3325 53.2149 33.9055 52.3965ZM21.9544 43.45C21.8273 43.3563 21.8097 43.2312 21.9133 43.144C22.0453 43.0316 22.214 42.9252 22.4058 42.8893C22.8122 42.8138 22.9744 43.2808 22.8111 44.0081C22.5022 43.8192 22.1844 43.6206 21.9544 43.45ZM30.3622 46.5177C28.4958 46.5263 28.4098 46.1875 28.4449 45.9707C28.4794 45.755 29.0606 45.1629 29.798 45.5534C30.1097 45.719 30.4608 46.0654 30.7857 46.5005C30.6422 46.5111 30.5008 46.5167 30.3622 46.5177ZM24.6458 56.3328C21.1195 57.2952 17.6798 55.8041 17.4716 52.8518C17.3122 50.5974 18.1344 48.8987 18.6647 47.9414C19.1704 47.6912 19.6481 47.4481 20.043 47.2303C19.12 48.7169 18.5798 50.7079 18.9408 52.3944C19.3495 54.3049 21.0116 55.4632 23.8257 55.0894C26.6119 54.7202 30.3792 52.0703 31.4474 51.071C31.7728 50.7104 31.9876 50.3852 32.2801 49.7227C32.4006 49.4508 32.5699 49.0917 32.6329 48.686C32.674 48.4216 32.6959 48.139 32.7008 47.8513C33.0279 47.7535 33.3566 47.6441 33.6875 47.5266C33.7998 48.7361 33.8825 49.9284 33.8874 50.9596C32.1514 52.9956 28.1721 55.37 24.6458 56.3328Z" fill="white"/>
<path d="M86.3256 48.5909C86.2062 46.6157 85.9181 43.0404 85.757 41.2267C85.6146 39.6125 85.3346 37.4002 85.1297 35.4528C85.0783 34.9625 85.0728 34.493 85.0783 34.22C85.0843 34.0042 85.3001 34.0873 85.516 34.3092C85.7318 34.531 86.0693 34.8096 86.1328 34.7756C86.3437 34.6662 86.0912 34.1253 85.7948 33.5434C85.4984 32.9604 84.3234 30.549 84.119 30.4574C84.0149 30.4108 83.4644 31.8552 83.4326 32.1384C83.5378 32.3126 83.8068 32.5826 83.8358 33.3706C83.8654 34.1592 84.2637 37.7846 84.5513 40.7167C84.7507 42.7547 85.0081 46.0803 85.1955 48.5879C85.1862 48.592 85.3724 50.9719 85.3927 51.2393C85.5077 52.779 85.448 54.7163 85.4365 55.0526C85.4239 55.3905 85.671 55.3317 85.9361 54.5821C86.2062 53.8168 86.3601 52.108 86.381 50.5652L86.3256 48.5909Z" fill="white"/>
<path d="M76.3125 41.676C75.9509 41.7864 75.3834 41.404 75.4267 40.6022C75.4661 39.8779 75.7762 39.1998 75.8956 38.7718C76.0599 38.1812 76.061 37.6119 75.9219 37.9346C75.6085 38.6558 75.0251 40.0501 74.9046 40.9963C74.7835 41.9424 75.0903 42.5522 75.5072 42.7603C76.0265 43.0212 76.4007 42.6074 76.6538 41.9976C76.897 41.4136 76.851 40.7319 76.6823 40.8924C76.5409 41.0601 76.4883 41.6218 76.3125 41.676Z" fill="white"/>
<path d="M71.1157 44.5904C71.3074 44.0809 71.3523 43.5815 71.205 43.8555C70.8724 44.4693 70.2496 45.6555 70.0671 46.4796C69.8853 47.3036 70.106 47.8613 70.4566 48.0725C70.8938 48.3368 71.2537 47.998 71.526 47.4789C71.7862 46.982 71.7993 46.3788 71.6394 46.5095C71.5013 46.6472 71.4098 47.137 71.2521 47.1729C70.9239 47.2454 70.4561 46.8706 70.5574 46.1676C70.6495 45.5345 70.9765 44.9586 71.1157 44.5904Z" fill="white"/>
<path d="M55.9804 55.3395C56.3009 54.8193 56.4603 54.2799 56.2379 54.5524C55.7416 55.1612 54.8021 56.3428 54.423 57.2094C54.045 58.076 54.1655 58.7268 54.5024 59.0231C54.9226 59.3928 55.391 59.089 55.8002 58.5729C56.193 58.078 56.3398 57.4216 56.1343 57.5335C55.9541 57.6597 55.7481 58.1778 55.5668 58.1874C55.1937 58.2057 54.7632 57.7088 55.0272 56.9602C55.2661 56.2846 55.7487 55.7163 55.9804 55.3395Z" fill="white"/>
<path d="M82.5153 40.1594C82.1477 40.2516 81.6043 39.8398 81.6952 39.0411C81.7779 38.3203 82.1291 37.6594 82.2731 37.239C82.4736 36.657 82.5082 36.0893 82.3498 36.4033C81.9949 37.1083 81.3287 38.4697 81.1507 39.4088C80.9726 40.3473 81.2416 40.9718 81.6459 41.2012C82.1499 41.4869 82.5465 41.0938 82.8368 40.4972C83.1146 39.9269 83.1102 39.2442 82.9311 39.3961C82.7804 39.5572 82.6944 40.1148 82.5153 40.1594Z" fill="white"/>
<path d="M82.4027 49.9582C82.9056 50.2438 83.3044 49.8508 83.5937 49.2542C83.8709 48.6839 83.867 48.0011 83.689 48.1531C83.5373 48.3131 83.4512 48.8718 83.2721 48.9163C82.9045 49.008 82.36 48.5967 82.452 47.798C82.5348 47.0773 82.8854 46.4158 83.03 45.996C83.2299 45.414 83.2644 44.8452 83.1067 45.1603C82.7506 45.8653 82.0855 47.2267 81.9075 48.1647C81.7295 49.1042 81.9984 49.7287 82.4027 49.9582Z" fill="white"/>
<path d="M88.8303 37.4414C89.0724 36.7374 89.114 36.0501 88.9223 36.4304C88.4917 37.2834 87.6864 38.9304 87.4706 40.0675C87.2559 41.2035 87.5818 41.9587 88.071 42.2368C88.6796 42.5822 89.1612 42.1066 89.5123 41.3854C89.847 40.695 89.8421 39.8679 89.6263 40.0528C89.4438 40.2468 89.3392 40.9214 89.1223 40.9756C88.6785 41.087 88.0195 40.5892 88.1307 39.6228C88.231 38.7506 88.6555 37.9509 88.8303 37.4414Z" fill="white"/>
<path d="M37.4644 49.6185C37.8604 48.7605 38.004 47.9015 37.7125 48.3588C37.0601 49.3824 35.8313 51.3643 35.4117 52.7683C34.9915 54.1728 35.3027 55.1594 35.8806 55.5641C36.6016 56.0665 37.2693 55.5215 37.8046 54.6549C38.3168 53.8238 38.4187 52.783 38.1234 52.9911C37.8686 53.214 37.6484 54.0517 37.369 54.0958C36.7949 54.1859 36.0324 53.486 36.2986 52.2831C36.5396 51.1977 37.1784 50.2394 37.4644 49.6185Z" fill="white"/>
<path d="M92.9254 58.1249C93.2289 57.8762 95.8683 56.4545 96.3542 56.1658C96.3542 56.1658 96.8511 55.3554 96.7021 55.2693C96.5525 55.1832 95.5889 56.0594 94.9896 56.0838C94.3898 56.1081 93.5686 55.6674 93.5423 55.3063C93.6201 55.0338 94.3415 54.6246 94.6023 54.6079C94.8631 54.5927 94.8209 55.1863 94.908 55.2587C94.9951 55.3301 95.3419 54.8489 95.3857 54.6484C95.4284 54.4483 95.3928 53.6106 94.9157 53.7306C94.1602 53.9216 93.0208 55.3225 92.8909 55.7631C92.76 56.2048 93.4639 56.5892 93.9778 56.7984C93.934 56.8146 93.5505 56.999 93.3078 57.239C93.3078 57.239 93.0471 57.5313 92.9254 58.1249Z" fill="white"/>
<path d="M83.9254 59.8859C84.2289 59.6372 86.8683 58.2165 87.3542 57.9268C87.3542 57.9268 87.8522 57.1164 87.7021 57.0303C87.5525 56.9442 86.5889 57.8204 85.9896 57.8447C85.3898 57.8691 84.5686 57.4284 84.5423 57.0673C84.6201 56.7948 85.3415 56.3856 85.6023 56.3699C85.8631 56.3537 85.8209 56.9467 85.908 57.0187C85.9951 57.0911 86.3419 56.6099 86.3857 56.4094C86.4284 56.2093 86.3917 55.3716 85.9157 55.4916C85.1602 55.6836 84.0208 57.0835 83.8909 57.5251C83.76 57.9658 84.4639 58.3502 84.9767 58.5594C84.934 58.5756 84.5505 58.7594 84.3078 59C84.3078 59 84.0471 59.2923 83.9254 59.8859Z" fill="white"/>
<path d="M63.6524 34.4039C63.8891 34.6789 65.4394 36.6486 66.6539 37.887C67.8679 39.1263 69.949 41.132 71.478 42.5066C71.7738 42.773 72.0877 43.0617 72.4071 43.3621C72.7927 46.3229 73.2386 50.0907 73.426 51.6486C73.6106 53.1827 73.638 55.12 73.6418 55.4574C73.6451 55.7952 73.8883 55.7263 74.1195 54.9681C74.4296 53.9506 74.4652 51.3159 74.3008 49.5756C74.199 48.5008 73.9585 46.4876 73.7256 44.6313C74.6284 45.5232 75.4814 46.408 76.056 47.0705C77.1128 48.2866 78.0019 49.2038 78.5437 50.5111C78.9271 51.4359 78.8883 52.1718 79.0455 52.3172C79.1813 52.4428 79.3314 51.3361 79.1638 50.2629C78.8921 48.5201 78.5196 47.7811 76.2823 45.2928C75.4288 44.3416 74.4241 43.3474 73.4419 42.418C73.4041 42.1313 73.3696 41.8659 73.3383 41.6304C73.2605 41.0484 72.5024 36.017 72.4427 35.4533C72.3917 34.9625 72.3024 34.3846 72.3095 34.1117C72.315 33.8944 72.4531 33.979 72.67 34.2008C72.8858 34.4221 73.2638 34.8096 73.3279 34.7757C73.5394 34.6663 73.3038 34.0164 73.0075 33.4335C72.7122 32.8515 71.6949 30.5491 71.4906 30.4579C71.387 30.4113 70.7773 31.8553 70.7461 32.1379C70.8518 32.3121 71.1202 32.5836 71.1493 33.3707C71.1575 33.5905 71.3525 35.66 71.5974 37.614C71.8143 39.3406 72.0827 40.978 72.1107 41.1675L72.1118 41.1822C71.0989 40.2583 70.2065 39.4738 69.6652 38.981C68.3998 37.8308 65.6048 35.1013 65.4925 34.6926C65.4673 34.5634 65.6843 34.643 66.0831 34.7068C66.4835 34.7711 66.8396 34.9073 66.7755 34.7108C66.7465 34.6181 66.5931 34.3892 66.2113 34.1532C65.8289 33.9167 64.8494 33.3038 64.1208 32.8703C63.3906 32.4372 63.029 32.0741 62.8784 32.1779C62.8039 32.2291 62.8701 33.7125 62.914 33.8974C63.0964 33.9131 63.4169 34.1279 63.6524 34.4039Z" fill="white"/>
<path d="M65.648 31.7361C65.9476 31.6703 67.3676 31.7063 67.8831 31.8146C67.6672 31.9646 66.2144 32.6984 65.9274 32.8732C65.642 33.0484 65.5697 33.1497 65.7132 33.1325C66.1295 33.017 67.0679 32.8732 67.5177 32.6387C67.9417 32.4401 68.6643 31.4717 68.9453 31.1106C69.2247 30.7495 69.2247 30.5692 69.1535 30.4725C68.8664 30.3165 67.0159 30.16 66.1235 30.3813C65.8764 30.5489 65.3933 31.4419 65.322 31.6277C65.2508 31.8146 65.3483 31.802 65.648 31.7361Z" fill="white"/>
<path d="M73.545 31.62C73.7871 31.5668 74.9315 31.5957 75.3462 31.6828C75.1725 31.8038 74.0024 32.3954 73.7712 32.5372C73.5395 32.6775 73.482 32.7595 73.5975 32.7454C73.9334 32.6532 74.6899 32.5372 75.052 32.3473C75.3933 32.1872 75.9756 31.4067 76.2019 31.1165C76.427 30.8248 76.427 30.6799 76.3695 30.6024C76.1394 30.4753 74.6477 30.3497 73.9284 30.5285C73.729 30.6632 73.3406 31.3829 73.2831 31.5328C73.2245 31.6828 73.3039 31.6731 73.545 31.62Z" fill="white"/>
<path d="M79.9655 31.5374C80.2066 31.4843 81.351 31.5131 81.7656 31.6002C81.5931 31.7213 80.4224 32.3129 80.1907 32.4537C79.9601 32.595 79.9025 32.677 80.0181 32.6628C80.3539 32.5707 81.1691 32.4537 81.5312 32.2648C81.873 32.1047 82.2779 31.3242 82.5041 31.033C82.7304 30.7423 82.7304 30.5964 82.6717 30.5199C82.4417 30.3928 81.0672 30.2672 80.349 30.445C80.1496 30.5807 79.7601 31.3004 79.7026 31.4503C79.6451 31.6002 79.7234 31.5906 79.9655 31.5374Z" fill="white"/>
<path d="M75.9599 34.6642C75.5797 35.2629 76.0563 35.7461 76.23 36.2298C75.9955 36.444 75.635 36.2485 75.5145 36.0606C75.2581 35.6752 75.3441 34.8896 75.0423 34.7686C74.9651 34.9808 74.9147 35.2163 74.9147 35.2163C74.9147 35.2163 75.1442 35.7537 75.0867 36.1092C75.05 36.324 74.8604 36.5747 74.6101 36.5797C73.9428 36.5959 74.2715 35.6083 74.014 35.0486C73.9615 35.1854 73.9237 35.3323 73.8623 35.4604C73.9094 35.6063 73.9352 35.8109 73.9428 35.9289C73.9582 36.1634 73.9395 36.4161 73.9795 36.6162C74.0349 36.8993 74.1921 37.0872 74.432 37.1055C74.9305 37.145 75.1579 36.7413 75.2329 36.4101C75.3189 36.7479 75.978 37.1202 76.3023 36.7053C76.7318 36.1583 76.3883 35.6898 76.1681 35.1753C76.0092 34.7949 76.0552 34.5452 75.9599 34.6642Z" fill="white"/>
<path d="M57.2327 33.0765C57.2672 33.3226 57.3937 33.4908 57.6002 33.5161C58.0264 33.5703 58.2423 33.2314 58.3228 32.9498C58.3792 33.2441 58.9303 33.5905 59.23 33.2471C59.6261 32.7928 59.3516 32.3755 59.1862 31.9232C59.0678 31.5879 59.1188 31.3752 59.0311 31.474C58.6751 31.9733 59.0635 32.4104 59.19 32.8344C58.9774 33.0086 58.6767 32.8258 58.5814 32.6601C58.3787 32.3172 58.4893 31.6441 58.2363 31.5271C58.1596 31.7074 58.1053 31.9075 58.1053 31.9075C58.1053 31.9075 58.2768 32.38 58.21 32.6834C58.1689 32.8673 57.9941 33.0754 57.7772 33.0699C57.2025 33.0572 57.5323 32.2195 57.3362 31.7277C57.2852 31.8427 57.2453 31.9688 57.1855 32.0751C57.2201 32.2038 57.2327 32.38 57.2327 32.4829C57.237 32.6855 57.2086 32.9012 57.2327 33.0765Z" fill="white"/>
<path d="M70.8307 56.2724C70.8948 56.1706 71.0361 55.8911 71.0005 55.7001C70.9649 55.5092 70.731 54.7125 70.2769 54.5129C69.8255 54.3134 69.4836 54.7317 69.2673 55.3137L69.1171 55.3101C69.0815 55.3962 69.0366 55.5249 69.001 55.7573C68.9506 56.0931 68.8553 56.3094 68.2795 56.8321C67.7953 57.2697 66.2263 58.3207 65.2096 58.8145C64.1917 59.3093 63.4593 59.7363 63.1892 59.8659C62.9203 59.9936 62.9986 60.0412 63.2676 59.9606C63.536 59.8806 64.8869 59.4456 65.4254 59.2237C65.9628 59.0004 66.6202 58.6332 67.4124 58.1191C68.2932 57.5478 68.8197 56.9764 68.9966 56.47C69.1226 56.1088 69.1549 55.9645 69.1549 55.9645C69.1549 55.9645 69.4858 56.16 70.0473 56.2881C70.6067 56.4168 70.7655 56.3753 70.8307 56.2724ZM70.0714 55.1404C70.3207 55.2352 70.4724 55.5066 70.5174 55.6712C70.2314 55.6778 69.705 55.5325 69.4809 55.4312C69.6157 55.1703 69.8501 55.0574 70.0714 55.1404Z" fill="white"/>
<path d="M64.8675 56.8327C64.0863 56.7243 62.118 56.4249 61.6365 55.2823C62.0408 54.6928 63.9028 53.9462 66.2354 53.2478C68.568 52.5509 71.0052 51.6463 71.6604 51.2097C71.804 51.1611 72.0817 51.1758 72.0817 51.1758C72.1989 50.8379 72.7846 49.6517 72.8213 49.4036C72.1694 49.4405 68.1511 49.7358 66.3664 49.8315C64.5805 49.9278 61.1413 49.9045 59.9953 49.8918C60.6981 49.3863 62.3662 48.3997 64.7503 47.5579C65.0593 47.4485 65.3452 47.3498 65.612 47.2606C65.8103 47.6142 65.9577 47.9636 65.9884 48.268C66.1401 48.112 66.2541 47.5949 66.2157 47.0641C67.6055 46.6204 68.3215 46.4736 68.6305 46.39C68.8255 46.1373 69.1712 45.1152 69.2227 44.3722C69.015 43.9938 68.3648 43.5228 67.7863 43.1181C66.9892 42.5615 66.1297 42.0763 65.2718 42.2885C64.0989 42.5762 63.8639 44.7308 64.1373 45.1876C64.2244 45.332 64.4309 45.5877 64.6747 45.9033C63.8179 46.2401 62.9217 46.6361 62.1317 47.0525C60.3722 47.9793 58.4077 48.9933 57.8347 49.9683L57.6703 50.0483C57.6243 50.1405 57.2617 51.6493 57.2091 51.8119C57.575 51.7992 60.3075 51.8043 62.2106 51.745C64.1126 51.6843 65.7758 51.624 66.4272 51.624C65.4625 51.8524 62.9343 52.7919 62.2073 53.3445C61.4804 53.8986 61.0235 54.7409 61.0115 56.1849C60.3338 55.9195 59.0744 55.3132 58.0012 53.8616C56.8048 52.2439 57.0524 50.5801 56.5736 48.3967C55.8779 45.2281 54.3922 42.5529 53.467 41.7344C53.1552 42.8527 53.1153 43.6955 53.1153 43.6955C53.1153 43.6955 54.2744 46.2583 54.8611 47.8943C55.4479 49.5307 55.9491 51.1428 55.9245 51.504C55.4413 52.5635 52.5811 54.7829 50.1976 56.082C47.9373 57.3138 45.946 57.4465 45.2404 56.5693C45.1018 56.3981 45.0076 56.1955 44.9545 55.9661C45.2612 55.8227 45.5691 55.6784 45.8846 55.534C47.917 54.6082 51.5266 52.6592 52.3724 51.6367C53.2851 50.3973 53.2725 48.6525 52.7373 47.6537C52.2042 46.6554 51.3683 45.4996 51.3031 45.0909C51.2521 44.8979 51.846 45.1694 52.1966 45.1876C52.3664 45.1749 52.2815 44.9465 51.9172 44.5854C51.6257 44.2977 50.4989 43.3643 50.0683 43.0001C49.9604 42.9074 49.8799 42.9449 49.858 43.0427C49.7741 43.4154 49.6027 44.2136 49.5364 44.6077L49.5824 44.8062C49.7062 44.8797 49.8486 44.9622 49.9177 45.1684C50.0152 45.4606 50.3565 46.276 50.9158 47.3052C51.4762 48.3339 52.2859 49.4694 52.3653 50.0427C51.7068 50.8825 48.3865 52.6709 45.1522 54.1448C45.3522 53.5248 45.6677 52.8238 46.0862 52.0454C46.2051 51.9137 46.3136 51.7511 46.4144 51.5678C46.737 50.9782 46.7683 50.2575 46.5727 50.4099C46.4051 50.5715 46.2846 51.1565 46.0928 51.196C45.7 51.2765 45.1489 50.8182 45.2875 49.9799C45.413 49.2238 45.8173 48.541 45.992 48.1039C46.2342 47.4992 46.3004 46.9015 46.1169 47.2267C45.7044 47.953 44.9304 49.36 44.6926 50.3431C44.4559 51.3247 44.7074 51.9957 45.1221 52.2556C45.2771 52.3543 45.4256 52.3852 45.5669 52.366C45.2831 52.9059 44.9325 53.5684 44.6767 54.3585C43.3762 54.9404 42.1108 55.4606 41.0633 55.8354C37.2982 57.1831 34.615 57.9773 32.7382 58.5668L32.6648 58.5998C32.8028 58.1536 32.7842 57.7727 32.6363 57.8872C32.4687 58.0497 32.3487 58.6347 32.157 58.6732C31.7642 58.7537 31.2131 58.2959 31.3511 57.4571C31.4771 56.701 31.8814 56.0192 32.0562 55.5816C32.2972 54.9774 32.364 54.3787 32.1811 54.7044C31.768 55.4307 30.9945 56.8377 30.7567 57.8203C30.5195 58.8024 30.771 59.4735 31.1851 59.7338C31.7012 60.0579 32.1411 59.6603 32.4785 59.0455L32.5968 58.7927C32.7141 58.7927 32.9118 58.7654 33.2071 58.6995C34.0672 58.5061 36.2174 58.1941 39.1739 57.8086C41.363 57.524 42.8744 56.9228 44.3354 56.2537C44.3289 56.4153 44.3272 56.5799 44.3343 56.7496C44.4138 58.7558 45.7285 59.322 47.5264 58.9467C49.2608 58.5826 51.6794 56.9922 53.129 55.9195C54.6404 54.8012 55.5125 53.8019 55.7349 53.4534C56.1381 52.599 56.2488 51.6549 56.2761 51.2097C56.4082 52.4364 56.515 54.1341 57.6753 55.5903C58.7435 56.9304 60.9326 58.8003 65.05 58.8515C65.0636 58.3617 64.8675 56.8327 64.8675 56.8327ZM64.5953 44.4015C65.1847 43.7401 66.4425 44.1726 67.3864 45.0114C66.9027 45.1248 66.2458 45.3269 65.5211 45.5857C65.0905 45.0666 64.6101 44.5662 64.5953 44.4015Z" fill="white"/>
<path d="M41.4476 35.3324C41.7149 35.2103 42.5328 34.8426 43.4142 34.3291C44.294 33.819 45.1207 33.2011 45.5249 32.7904C45.68 32.6329 45.818 32.5098 45.9062 32.3634C46.1703 32.4728 46.3521 32.5863 46.4655 32.6308C46.6359 32.6967 46.8633 32.7914 47.0112 32.3062C47.1585 31.8215 46.963 31.5085 46.6748 31.1347C46.431 30.8212 46.0443 30.3501 45.7304 30.2331C45.4641 30.1334 45.3376 30.728 45.3781 30.7133H45.5562L45.5907 30.73C45.2242 30.9149 44.9404 31.4902 44.9119 31.6923C44.8829 31.9121 44.9245 32.0742 45.4504 32.2094L45.6619 32.2717C45.2231 32.7914 44.4052 33.3288 43.8481 33.7096C43.0576 34.2516 41.9357 34.9287 41.6163 35.1242C41.2969 35.3187 41.3237 35.38 41.4476 35.3324ZM46.1982 31.5145L46.2267 31.2547C46.5965 31.6761 46.8709 32.1775 46.8435 32.2484C46.6737 32.2621 46.4623 32.1051 46.0925 31.9471C46.1336 31.8215 46.1681 31.6827 46.1982 31.5145ZM45.1365 31.5151C45.1343 31.436 45.2768 31.2162 45.5781 31.0962C45.8788 30.9751 46.0119 31.313 46.0382 31.7242L45.9489 31.8888L45.6778 31.7951C45.3907 31.7111 45.1968 31.6635 45.1365 31.5151Z" fill="white"/>
<path d="M61.1624 43.2652C61.5962 42.9786 62.7888 42.1175 63.4654 41.5533C63.936 41.1613 64.4887 40.5839 64.864 40.0957C65.0995 40.2481 65.3192 40.3833 65.5191 40.5008C65.9048 40.7262 66.0598 41.0605 66.0598 41.0605C66.1311 40.9511 66.463 40.3524 66.3332 40.0612C66.2554 39.966 65.781 39.6889 65.2962 39.3921C65.5422 38.8401 65.8807 37.8854 65.3959 37.5511C64.9812 37.2675 64.2816 37.737 63.9579 38.3463C63.6905 38.8507 63.656 39.2787 64.166 39.6292C64.3096 39.7279 64.4471 39.8211 64.5818 39.9098C64.0674 40.4725 63.1197 41.3051 62.4454 41.8719C61.6077 42.5729 60.8156 43.2602 60.6776 43.4243L60.6376 43.4881C60.4546 42.9786 60.5044 42.664 60.3686 42.8332C59.7819 43.7535 60.517 44.499 60.7844 45.2435C60.4228 45.5717 59.869 45.2704 59.6833 44.9832C59.2878 44.3886 59.4198 43.1811 58.9569 42.9943C58.8374 43.3204 58.7597 43.6836 58.7597 43.6836C58.7597 43.6836 59.1119 44.5107 59.0226 45.0566C58.9673 45.3869 58.6747 45.7733 58.2907 45.7799C57.263 45.8062 57.7698 44.2858 57.3731 43.4248C57.2926 43.636 57.2351 43.8619 57.1387 44.0574C57.2115 44.2838 57.2515 44.5978 57.2619 44.7796C57.2882 45.1407 57.2586 45.5282 57.3195 45.8382C57.4044 46.2737 57.6465 46.5634 58.0163 46.5903C58.7827 46.6526 59.1327 46.0296 59.2489 45.5216C59.3809 46.0413 60.396 46.6126 60.895 45.9754C61.5563 45.1331 61.0271 44.4119 60.6891 43.6198L60.6491 43.5169C60.6962 43.5337 60.8731 43.4562 61.1624 43.2652ZM64.16 38.5225C64.4142 38.051 64.9494 38.011 65.1099 38.2581C65.2376 38.4546 65.248 38.8381 65.0562 39.2427C64.584 38.9464 64.1628 38.6562 64.16 38.5225Z" fill="white"/>
<path d="M44.4324 40.2666C43.5296 40.2028 43.0437 39.3757 42.766 38.1809C42.4877 36.9861 42.6581 35.4105 42.7337 35.0068C42.8093 34.6036 42.3836 34.8118 42.2182 35.7908C42.0538 36.7688 41.8884 38.3329 42.4707 39.9703C43.052 41.6057 44.043 42.2161 44.9112 42.0069C45.7795 41.7987 46.5437 39.7611 46.8133 38.8469C47.0822 37.9322 48.2858 34.202 48.9673 34.0014C49.0626 34.4588 48.4375 35.606 48.2376 37.3305C48.0387 39.0551 48.3849 41.3171 50.574 41.7182C52.7631 42.1198 54.2482 40.6996 54.7867 39.7125C55.3257 38.7269 55.5772 37.6906 55.638 37.17C55.7081 38.4934 56.6109 40.5599 58.3645 41.1489C60.0589 41.7182 61.3534 41.197 61.9253 40.4591C62.4331 39.8037 62.8467 38.4539 62.8823 37.4187C62.9168 36.3844 62.0228 34.4917 61.8228 33.889C61.6223 33.2878 61.5188 32.8704 61.5013 32.6623C61.4843 32.4541 61.9538 32.9034 62.249 32.9915C62.449 33.0315 62.3789 32.5985 62.1356 32.3012C61.893 32.0049 60.5793 30.0129 60.4873 30.1516C60.4308 30.2347 59.9049 31.7 59.8704 31.9243C60.0786 32.0611 60.3196 32.4379 60.3377 32.799C60.3541 33.1602 60.702 34.748 61.0236 35.6303C61.3451 36.5126 61.9702 38.2052 62.014 38.6707C61.389 39.1113 59.9811 39.672 58.6439 39.1037C57.3066 38.5334 56.8799 37.7074 56.7325 36.2315C56.6383 35.2884 56.629 33.5512 56.2926 32.0986C56.1031 31.2776 55.7037 30.4429 55.2293 29.9997C55.1176 30.2717 54.6136 31.9486 54.6136 31.9486C54.7779 32.4298 55.289 34.05 55.2726 35.454C55.2545 36.857 55.1439 38.23 53.5705 39.1762C51.9983 40.1223 49.7583 39.7454 49.176 38.269C48.5936 36.7931 49.8881 33.4726 49.8712 32.5985C49.8536 31.7243 49.6964 31.6032 49.3321 31.7481C48.9673 31.8924 48.2195 32.7352 47.5775 34.1063C46.9343 35.4783 46.6489 36.8494 46.283 38.0047C45.9187 39.1599 45.3352 40.3304 44.4324 40.2666Z" fill="white"/>
<path d="M18.2196 35.1494C19.3305 35.0688 20.2695 34.2266 20.5122 34.0027C20.7554 33.7773 20.8863 33.4415 20.7121 33.5692C19.427 34.7163 17.7074 34.7488 17.611 34.5558C17.6548 34.3633 18.1073 34.0503 18.7674 33.6097C19.1684 33.3417 19.5256 33.0905 19.7929 32.7345L19.8658 32.7471C20.355 32.8545 20.9198 33.0682 21.0923 32.8971C21.3733 32.62 21.4106 32.1662 21.106 31.6769C20.8485 31.2616 20.2481 30.8752 19.7266 30.5961C19.2062 30.3186 19.1054 30.7617 19.0386 30.9197C18.9745 31.0671 19.0008 31.1927 19.1109 31.1958C18.9432 31.4242 18.8238 31.7185 18.78 31.9616C18.7515 32.1186 18.7745 32.2472 18.8386 32.3531C18.8572 32.383 18.9536 32.501 19.1361 32.5709L19.3623 32.6413C18.9728 33.0009 18.5242 33.2825 18.2886 33.4248C17.8635 33.6816 17.3595 34.1308 17.2034 34.5953C17.0467 35.0613 17.1075 35.2299 18.2196 35.1494ZM20.1835 31.8724L20.2262 31.6354V31.4835C20.5785 31.7397 21.1416 32.225 21.1071 32.5157C20.8841 32.465 20.459 32.3754 20.0553 32.2715C20.1068 32.1505 20.149 32.0178 20.1835 31.8724ZM19.1394 31.9464C18.8802 31.7397 19.1328 31.5336 19.3623 31.4009C19.6587 31.2297 19.8323 31.371 19.9841 31.8203C19.931 31.9489 19.8564 32.074 19.7688 32.1941C19.5382 32.1226 19.2133 32.0082 19.1394 31.9464Z" fill="white"/>
<path d="M21.552 47.6962C21.2327 47.9732 21.1089 48.8748 21.1741 48.929C21.2387 48.9831 22.2368 49.32 22.3929 49.3929L22.4642 49.1214C22.9397 49.5484 23.4667 51.6786 23.5839 51.6847C23.7011 51.6903 23.871 51.4436 23.9822 50.8779C24.0846 50.3532 24.187 49.5681 24.2939 48.929C24.3936 48.344 24.5486 48.0092 24.9003 47.9423C25.2525 47.8765 25.5133 48.3278 25.6042 48.6347C25.6042 48.6347 25.8513 48.0446 25.9039 47.6779C25.8453 47.485 25.2975 46.7577 24.8483 46.9982C24.3985 47.2393 24.1169 48.2599 24.026 48.8981C23.9345 49.5352 23.8644 50.3253 23.7537 50.4519C23.6376 49.908 23.2656 48.9345 22.8164 48.3875C22.3113 47.7747 21.7208 47.5498 21.552 47.6962Z" fill="white"/>
<path d="M17.2941 46.6072C17.711 46.4927 18.6494 46.3489 19.0986 46.1144C19.5221 45.9158 20.2447 44.9474 20.5251 44.5863C20.8051 44.2252 20.8056 44.0439 20.7344 43.9481C20.4479 43.7911 18.5968 43.6356 17.7039 43.857C17.4574 44.0236 16.9747 44.9165 16.9035 45.1034C16.8312 45.2893 16.9298 45.2776 17.2289 45.2118C17.5286 45.1449 18.9491 45.1809 19.4629 45.2893C19.2487 45.4402 17.7959 46.1741 17.5089 46.3489C17.2229 46.5231 17.1506 46.6254 17.2941 46.6072Z" fill="white"/>
<path d="M103.358 51.777C103.315 50.6946 102.785 49.0328 100.769 46.4832C100.073 45.6029 99.0941 44.4573 98.0615 43.2838C98.033 42.8836 98.0045 42.518 97.9788 42.2039C97.8435 40.5888 97.3849 37.2936 97.1877 35.3457C97.1395 34.8544 97.1357 34.3317 97.1428 34.0587C97.1499 33.8419 97.3061 33.8708 97.5208 34.0936C97.7355 34.316 98.0664 34.6406 98.1355 34.6184C98.2823 34.5677 98.1546 34.0759 97.8615 33.4929C97.569 32.909 96.463 30.5472 96.2597 30.4556C96.1551 30.409 95.6336 31.7957 95.6013 32.0794C95.7048 32.2536 95.9721 32.5245 95.9979 33.3131C96.0253 34.1012 96.5008 38.7558 96.7741 41.6888L96.7889 41.8524C95.2452 40.1289 93.7913 38.5573 93.1931 37.9201C93.0895 37.8097 92.9756 37.6841 92.8529 37.5494C92.7554 36.7648 92.6655 36.0173 92.6036 35.3999C92.5532 34.9096 92.5499 34.3859 92.5587 34.1129C92.5636 33.8966 92.7208 33.926 92.9356 34.1488C93.1514 34.3712 93.4812 34.6958 93.5502 34.6725C93.6971 34.6229 93.5694 34.1311 93.2758 33.5471C92.9838 32.9632 91.8306 30.5472 91.6263 30.4556C91.5228 30.409 90.9771 31.9061 90.9448 32.1877C91.0495 32.363 91.3162 32.634 91.3425 33.4225C91.353 33.7573 91.4401 34.7723 91.5562 36.0532C90.5329 34.8372 89.5309 33.5639 89.4597 33.305C89.4345 33.1774 89.6509 33.2559 90.0513 33.3207C90.4502 33.3846 90.8243 33.5046 90.7602 33.3071C90.7301 33.2154 90.5778 32.9865 90.196 32.7494C89.8136 32.5129 88.8341 31.9001 88.1055 31.4675C87.3753 31.0345 87.0137 30.6703 86.8631 30.7741C86.7886 30.8253 86.8548 32.3098 86.8976 32.4937C87.0811 32.5104 87.4202 32.6466 87.636 32.9353C87.8541 33.224 89.2499 35.1811 90.3537 36.5045C90.6715 36.8854 91.1689 37.4759 91.7512 38.1576C91.8652 39.3768 91.9846 40.6364 92.0832 41.6888C92.3072 44.0896 93.1125 50.4211 93.1202 52.479C92.5258 53.0366 91.3102 53.8145 90.0596 53.8308C88.8089 53.8465 88.123 53.5172 87.619 52.5873C87.4635 52.2991 87.3188 52.0094 87.1753 51.7471C86.8346 51.1236 86.0742 50.7736 85.3412 50.9453L85.2295 50.9752L85.0301 51.0709C84.5338 51.3308 84.0204 51.7663 83.5187 52.442C82.6509 53.614 82.0965 54.8852 81.4545 55.9863C80.7856 57.133 80.2723 57.9024 79.0989 57.7185C78.2728 57.5889 77.6455 56.8803 77.2588 56.0086C78.3451 55.257 79.1339 54.2765 79.7108 52.9176C80.4618 51.1515 80.7297 49.1605 80.6629 46.9218C80.5988 44.8149 79.6385 39.8579 79.3848 37.9581C79.1317 36.0573 78.768 34.4973 78.8102 34.0916C78.8496 33.7001 79.473 34.6219 79.7924 34.6908C79.9557 34.6543 79.868 34.0663 79.5579 33.5694C79.3476 33.2316 78.6814 31.6949 78.2454 30.9539C78.0405 30.6035 77.9912 30.4004 77.8959 30.3588C77.8017 30.3158 77.0758 31.8661 77.1634 32.0348C77.3782 32.3417 77.525 32.4881 77.5699 33.0381C77.6159 33.5882 78.1134 37.6258 78.5483 40.5994C78.8759 42.8431 79.5996 46.9188 79.6927 49.9313C79.7234 50.9144 79.5831 51.62 79.4615 52.014C79.1493 52.6177 78.6404 53.2883 76.8523 54.5611C76.5762 52.7626 76.8764 51.3014 76.6145 51.1661C76.3193 51.1981 76.2722 52.0363 76.2387 53.0705C76.2223 53.5481 76.2431 54.2096 76.333 54.9202C74.1368 56.388 71.2355 57.7246 69.8731 58.4382C69.0739 58.8576 69.362 58.9553 70.0386 58.7462C70.7151 58.536 74.4331 57.561 76.4179 56.5171L76.6315 56.3986C76.7323 56.7486 76.8545 57.0874 77.0046 57.3999C77.6724 58.7877 78.6267 59.6117 79.6604 59.5312C80.5298 59.4644 81.1603 58.5339 81.7103 57.4242C82.2663 56.3009 83.2058 54.1676 84.1273 53.3739C84.4812 53.068 84.8471 52.8259 85.2032 52.6805C85.2032 52.6805 85.8326 52.4703 86.4117 52.8487C86.6193 52.9854 86.7743 53.1799 86.8724 53.3977C87.1008 53.8976 87.3709 54.5338 87.9231 55.0666C88.896 56.0036 90.4606 55.8101 91.634 55.2651C92.8058 54.7196 93.404 53.8687 93.6647 52.8578C94.1096 51.1282 94.0383 49.356 93.9534 47.7818C93.8554 45.9853 93.5683 44.1493 93.4051 42.2039C93.3525 41.5784 93.25 40.7083 93.1323 39.7647C94.275 41.0836 95.4616 42.4222 96.1814 43.1541C96.4296 43.4068 96.6914 43.6874 96.9604 43.9837C97.1751 46.9284 97.3817 50.6131 97.4907 52.1594C97.5986 53.7001 97.529 55.6369 97.5164 55.9737C97.5033 56.3105 97.6906 56.2528 97.9596 55.5052C98.3201 54.5018 98.5463 51.8707 98.4674 50.1258C98.4203 49.0891 98.3168 47.1989 98.205 45.411C99.0919 46.465 99.9339 47.5291 100.482 48.2473C101.456 49.5226 102.35 51.039 102.663 51.9851C102.975 52.9323 103.01 53.2128 103.071 53.3815C103.132 53.5502 103.4 52.8593 103.358 51.777Z" fill="white"/>
<path d="M86.9098 87.8024C86.8218 87.5508 86.5524 87.3662 86.2302 87.3662C85.9081 87.3662 85.6392 87.5508 85.5507 87.8024H82.4998C82.469 87.464 82.4991 87.1239 82.595 86.7926L88.8935 86.7887L89.0689 87.0844C89.2273 87.3508 89.4274 87.5915 89.6594 87.8025L86.9098 87.8024ZM91.0795 84.8755H83.5105C84.0922 84.4557 84.3973 83.8431 84.3154 83.2233C84.2632 82.8327 83.8761 82.5409 83.4044 82.5013H83.1674C82.5934 82.5574 82.1772 82.9711 82.2377 83.4255L82.2608 83.6002L82.2888 83.8689C82.3196 84.2063 82.29 84.5453 82.1948 84.8755H26.2471C27.0778 86.0843 28.5925 86.8255 30.2282 86.8244L81.2815 86.793C80.6976 87.2133 80.3914 87.8271 80.4738 88.448C80.5343 88.9024 81.0478 89.226 81.6218 89.1699C82.1953 89.1139 82.6114 88.7002 82.5515 88.2452L82.5284 88.071H85.5287C85.5815 88.3639 85.874 88.5886 86.2303 88.5886C86.5865 88.5886 86.879 88.3639 86.9324 88.071H89.9843V88.0639C90.6216 88.5161 91.4314 88.776 92.288 88.776C93.0941 88.776 93.7472 88.2161 93.7472 87.5249V87.1634C93.7472 85.9002 92.5531 84.8754 91.0796 84.8754" fill="white"/>
</g>
<defs>
<clipPath id="clip0_307_75577">
<rect width="120" height="120" fill="white"/>
</clipPath>
</defs>
</svg>
