<svg width="120" height="120" viewBox="0 0 120 120" fill="none" xmlns="http://www.w3.org/2000/svg">
<path d="M0 0H120V120H0V0Z" fill="#005801"/>
<path d="M0 120V0H120" fill="#0F3296"/>
<path d="M6.03739 120H0V113.963L113.963 0H120V6.03738L6.03739 120Z" fill="#FDD406"/>
<path d="M45.4683 13.769L40.1725 9.92139L46.7185 9.92138L48.7413 3.6958L50.7641 9.92138L57.3101 9.92139L52.0143 13.769L54.0371 19.9946L48.7413 16.147L43.4455 19.9946L45.4683 13.769Z" fill="white"/>
<path d="M27.6821 29.0136L22.3863 25.166L28.9323 25.166L30.9551 18.9404L32.9779 25.166L39.5239 25.166L34.2281 29.0136L36.2509 35.2392L30.9551 31.3916L25.6593 35.2392L27.6821 29.0136Z" fill="white"/>
<path d="M45.4683 44.2583L40.1725 40.4106L46.7185 40.4106L48.7413 34.185L50.7641 40.4106L57.3101 40.4106L52.0143 44.2583L54.0371 50.4838L48.7413 46.6362L43.4455 50.4838L45.4683 44.2583Z" fill="white"/>
<path d="M9.89589 44.2583L4.6001 40.4106L11.1461 40.4106L13.1689 34.185L15.1917 40.4106L21.7377 40.4106L16.4419 44.2583L18.4647 50.4838L13.1689 46.6362L7.87308 50.4838L9.89589 44.2583Z" fill="white"/>
<path d="M4.6001 9.92139L11.1461 9.92138L13.1689 3.6958L15.1917 9.92138L21.7377 9.92139L16.4419 13.769L18.4647 19.9946L13.1689 16.147L7.87308 19.9946L9.89589 13.769L4.6001 9.92139Z" fill="white"/>
</svg>
