<svg width="120" height="120" viewBox="0 0 120 120" fill="none" xmlns="http://www.w3.org/2000/svg">
<g clip-path="url(#clip0_307_75682)">
<path d="M0 0H120V120H0V0Z" fill="#D91C16"/>
<path d="M0 0H120V80H0V0Z" fill="#0F3296"/>
<path d="M0 0H120V40H0V0Z" fill="white"/>
<path d="M47.5504 92.7C36.8004 87.525 21.4004 77.2251 21.4004 56.9001C21.4004 36.5501 22.4004 27.3 22.4004 27.3H72.7254C72.7254 27.3 73.7004 36.5501 73.7004 56.9001C73.7004 77.2501 58.3004 87.5 47.5504 92.7Z" fill="white"/>
<path d="M47.5508 90C37.6758 85.25 23.5508 75.8 23.5508 57.15C23.5508 38.5 24.4508 30 24.4508 30H70.6508C70.6508 30 71.5258 38.5 71.5258 57.15C71.5508 75.825 57.4258 85.25 47.5508 90Z" fill="#D91C16"/>
<path d="M49.6508 52.25C52.3258 52.3 57.5508 52.4 62.1758 50.85C62.1758 50.85 62.0758 52.5251 62.0758 54.4501C62.0758 56.375 62.2008 58.05 62.2008 58.05C57.9508 56.625 52.6758 56.6 49.6508 56.625V66.9251H45.4508V56.625C42.4508 56.6 37.1758 56.625 32.9258 58.05C32.9258 58.05 33.0508 56.375 33.0508 54.4501C33.0508 52.5 32.9258 50.85 32.9258 50.85C37.5508 52.4 42.7758 52.3 45.4258 52.25V45.7751C43.0008 45.7751 39.5008 45.8751 35.5258 47.2001C35.5258 47.2001 35.6508 45.55 35.6508 43.6C35.6508 41.675 35.5258 40 35.5258 40C39.5008 41.325 43.0008 41.45 45.4258 41.425C45.3008 37.325 44.1008 32.175 44.1008 32.175C44.1008 32.175 46.5758 32.35 47.5508 32.35C48.5508 32.35 51.0008 32.175 51.0008 32.175C51.0008 32.175 49.8008 37.325 49.6758 41.425C52.1008 41.45 55.6008 41.325 59.5758 40C59.5758 40 59.4508 41.675 59.4508 43.6C59.4508 45.55 59.5758 47.2001 59.5758 47.2001C56.3719 46.1669 53.0159 45.6851 49.6508 45.7751V52.2751V52.25Z" fill="white"/>
<path d="M47.5502 65.825C42.5752 65.825 39.9252 72.7 39.9252 72.7C39.9252 72.7 38.4252 69.45 34.3752 69.45C31.6252 69.45 29.6252 71.875 28.3252 74.15C33.3252 82.075 41.3002 86.975 47.5502 90C53.8002 87 61.8002 82.075 66.7752 74.15C65.4752 71.9 63.4752 69.45 60.7252 69.45C56.6752 69.45 55.1752 72.7 55.1752 72.7C55.1752 72.7 52.5502 65.825 47.5502 65.825Z" fill="#0F3296"/>
</g>
<defs>
<clipPath id="clip0_307_75682">
<rect width="120" height="120" fill="white"/>
</clipPath>
</defs>
</svg>
