<svg width="120" height="120" viewBox="0 0 120 120" fill="none" xmlns="http://www.w3.org/2000/svg">
<g clip-path="url(#clip0_354_632)">
<path d="M120 0H0V120H120V0Z" fill="#021455"/>
<path d="M11.4073 93.2127C10.0256 93.2012 24.3988 85.5521 36.4289 75.7545C52.1955 62.9139 86.1528 42.3552 96.1358 39.0145C97.1792 38.6653 93.9958 40.7922 93.5826 41.4811C82.9242 54.0963 91.4311 77.9017 104.752 89.8685C108.757 92.932 108.552 93.0929 115.978 93.393V94.0864L11.4073 93.2127Z" fill="#FDD406"/>
<path d="M10.5405 94.6041C10.5405 94.6041 9.52634 95.3285 9.5293 95.8681C9.53262 96.4669 10.6669 97.2585 10.6669 97.2585L113.809 98.3961L115.705 97.1321L113.051 95.4889L10.5405 94.6041Z" fill="#FDD406"/>
<path d="M24.0615 25.4404L23.1852 28.1373H20.3496L22.6437 29.8041L21.7675 32.501L24.0616 30.8342L26.3557 32.5009L25.4794 29.804L27.7735 28.1373H24.9378L24.0615 25.4404Z" fill="white"/>
<path d="M38.7642 38.8726L38.0339 41.12H35.6709L37.5827 42.509L36.8524 44.7564L38.7642 43.3674L40.6759 44.7563L39.9457 42.5089L41.8574 41.12H39.4944L38.7642 38.8726Z" fill="white"/>
<path d="M7.78348 45.3961L6.90721 42.6992L6.03094 45.3961L3.19531 45.3961L5.48943 47.0629L4.61316 49.7598L6.90728 48.093L9.20136 49.7597L8.32509 47.0628L10.6192 45.3961L7.78348 45.3961Z" fill="white"/>
<path d="M25.0834 72.4794L24.061 69.333L23.0387 72.4794H19.7305L22.4069 74.424L21.3846 77.5703L24.0611 75.6257L26.7375 77.5703L25.7152 74.4239L28.3917 72.4794L25.0834 72.4794Z" fill="white"/>
</g>
<defs>
<clipPath id="clip0_354_632">
<rect width="120" height="120" fill="white"/>
</clipPath>
</defs>
</svg>
