<svg width="120" height="120" viewBox="0 0 120 120" fill="none" xmlns="http://www.w3.org/2000/svg">
<g clip-path="url(#clip0_909_226996)">
<path d="M120 0H0V120H120V0Z" fill="#1E9A1C"/>
<path d="M61.5245 16.604L62.1707 14.6153H64.2617L62.57 13.3862L63.2162 11.3975L61.5245 12.6265L59.8328 11.3975L60.479 13.3861L58.7872 14.6153H60.8783L61.5245 16.604Z" fill="white"/>
<path d="M84.8128 27.0341C84.8128 20.8787 81.0855 15.5926 75.7655 13.3085C79.1473 16.1913 81.2134 20.5467 81.0046 25.3289C80.645 33.5658 73.6736 39.9539 65.4366 39.5943C63.5806 39.5133 61.8189 39.0955 60.2066 38.4041C62.8128 40.6242 66.1908 41.9651 69.8819 41.9651C78.1267 41.9651 84.8128 35.2789 84.8128 27.0341Z" fill="white"/>
<path d="M62.1707 22.2953L61.5245 24.284L60.8783 22.2953H58.7872L60.479 21.0662L59.8328 19.0775L61.5245 20.3065L63.2162 19.0775L62.57 21.0662L64.2617 22.2953H62.1707Z" fill="white"/>
<path d="M69.7581 18.5509L69.1119 20.5396L68.4657 18.5509H66.3746L68.0664 17.3217L67.4202 15.3331L69.1119 16.5621L70.8036 15.3331L70.1574 17.3218L71.8491 18.5509H69.7581Z" fill="white"/>
<path d="M53.9373 28.0284L54.5835 26.0396H56.6745L54.9828 24.8106L55.629 22.8218L53.9373 24.0509L52.2456 22.8218L52.8917 24.8105L51.2 26.0396H53.2911L53.9373 28.0284Z" fill="white"/>
<path d="M62.1707 29.9752L61.5245 31.964L60.8783 29.9752H58.7872L60.479 28.7461L59.8328 26.7574L61.5245 27.9865L63.2162 26.7574L62.57 28.7462L64.2617 29.9752H62.1707Z" fill="white"/>
<path d="M45.2 0H12.8V120H45.2V0Z" fill="#D91C16"/>
<path d="M20.7238 0H19.6008L17.6094 1.82194L16.8149 1.08041H17.5459L17.4081 0.24355H16.1369L13.6263 2.59527V3.49569H14.7387V2.74358L15.3107 3.26264L14.0077 4.47027L14.6221 5.05288L12.8001 6.7478V7.92366L15.8827 5.05288L15.2683 4.47027L16.5607 3.26264L15.4484 2.22451L16.1899 1.54654L17.6094 2.8601L20.7238 0Z" fill="black"/>
<path d="M17.9557 0H18.6657L18.0543 0.571948L17.9557 0Z" fill="black"/>
<path d="M12.8001 0H14.8975L14.2832 0.624923H13.5204V1.48296L12.8001 2.21389V0Z" fill="black"/>
<path d="M18.0511 0H18.5385L18.118 0.391831L18.0511 0Z" fill="#FDD406"/>
<path d="M12.8002 0H14.781L14.2515 0.529548H13.4358V1.45114L12.8002 2.08674V0Z" fill="#FDD406"/>
<path d="M12.7999 6.86426L14.7491 5.0528L14.1346 4.47019L15.4376 3.26256L14.6537 2.53163V3.41087H13.7109V2.62697L16.1791 0.328251H17.3232L17.44 0.995624H16.5926L17.6095 1.93842L19.728 0H20.5858L17.6092 2.7435L16.1897 1.41934L15.3211 2.22443L16.4334 3.26256L15.141 4.47019L15.7554 5.0528L12.7999 7.79646V6.86426Z" fill="#FDD406"/>
<path d="M12.8003 13.9175V15.0933L14.6223 16.7988L14.0079 17.3709L15.3109 18.5785L14.7388 19.0976V18.3454H13.6265V19.2459L16.1371 21.5976H17.4083L17.546 20.7713H16.8151L17.6096 20.0298L19.6011 21.8412L17.6096 23.6632L16.8151 22.9217H17.546L17.4083 22.0849H16.1371L13.6265 24.4366V25.337H14.7388V24.5849L15.3109 25.104L14.0079 26.3116L14.6223 26.8942L12.8003 28.5891V29.765L15.8829 26.8942L15.2685 26.3116L16.5609 25.104L15.4486 24.0658L16.1901 23.3879L17.6096 24.7014L20.724 21.8413L17.6096 18.9811L16.1901 20.3052L15.4486 19.6167L16.5609 18.5785L15.2685 17.3709L15.8829 16.7989L12.8003 13.9175ZM12.8003 19.6272V24.0552L13.5206 23.3243V22.4662H14.2833L14.8977 21.8412L14.2833 21.2268H13.5206V20.3582L12.8003 19.6272ZM18.0545 21.195L17.9486 21.7989L18.0545 22.4133L18.7113 21.7989L18.0545 21.195Z" fill="black"/>
<path d="M12.8003 14.0447V14.9769L14.7494 16.7989L14.135 17.371L15.438 18.5786L14.6541 19.3095V18.4303H13.7113V19.2142L16.1795 21.5129H17.3236L17.4401 20.8561H16.5926L17.6096 19.9027L19.7282 21.8413L17.6096 23.7798L16.5926 22.8371H17.4401L17.3233 22.1697H16.1792L13.711 24.4684V25.2523H14.6538V24.3731L15.4377 25.104L14.1347 26.3116L14.7491 26.8942L12.8 28.7057V29.6379L15.7555 26.8942L15.1411 26.3116L16.4334 25.104L15.3211 24.0659L16.1898 23.2608L17.6093 24.5849L20.586 21.8413L17.6093 19.0976L16.1898 20.4218L15.3211 19.6167L16.4334 18.5786L15.1411 17.371L15.7555 16.7989L12.8 14.0447L12.8003 14.0447ZM12.8003 19.7544V23.9282L13.4359 23.2926V22.371H14.2515L14.7812 21.8413L14.2515 21.3117H13.4359V20.39L12.8003 19.7544ZM18.118 21.3646L18.0439 21.7989L18.118 22.2333L18.5841 21.7989L18.118 21.3646Z" fill="#FDD406"/>
<path d="M12.8003 36.4771V37.6529L14.6223 39.3584L14.0079 39.9304L15.3109 41.1381L14.7388 41.6571V40.905H13.6265V41.8054L16.1371 44.1571H17.4083L17.546 43.3309H16.8151L17.6096 42.5893L19.6011 44.4008L17.6096 46.2228L16.8151 45.4813H17.546L17.4083 44.6444H16.1371L13.6265 46.9961V47.8966H14.7388V47.1445L15.3109 47.6635L14.0079 48.8712L14.6223 49.4538L12.8003 51.1487V52.3245L15.8829 49.4538L15.2685 48.8712L16.5609 47.6635L15.4486 46.6254L16.1901 45.9474L17.6096 47.261L20.724 44.4008L17.6096 41.5407L16.1901 42.8648L15.4486 42.1763L16.5609 41.1381L15.2685 39.9305L15.8829 39.3585L12.8003 36.4771ZM12.8003 42.1868V46.6148L13.5206 45.8838V45.0258H14.2833L14.8977 44.4008L14.2833 43.7864H13.5206V42.9178L12.8003 42.1868ZM18.0545 43.7546L17.9486 44.3584L18.0545 44.9728L18.7113 44.3584L18.0545 43.7546Z" fill="black"/>
<path d="M12.8003 36.6043V37.5365L14.7494 39.3585L14.135 39.9305L15.438 41.1382L14.6541 41.8691V40.9899H13.7113V41.7737L16.1795 44.0725H17.3236L17.4401 43.4157H16.5926L17.6096 42.4623L19.7282 44.4009L17.6096 46.3394L16.5926 45.3966H17.4401L17.3233 44.7293H16.1792L13.711 47.028V47.8119H14.6538V46.9326L15.4377 47.6636L14.1347 48.8712L14.7491 49.4538L12.8 51.2653V52.1975L15.7555 49.4538L15.1411 48.8712L16.4334 47.6636L15.3211 46.6254L16.1898 45.8203L17.6093 47.1445L20.586 44.4009L17.6093 41.6572L16.1898 42.9814L15.3211 42.1763L16.4334 41.1381L15.1411 39.9305L15.7555 39.3585L12.8 36.6042L12.8003 36.6043ZM12.8003 42.314V46.4877L13.4359 45.8521V44.9305H14.2515L14.7812 44.4009L14.2515 43.8712H13.4359V42.9496L12.8003 42.314ZM18.118 43.9242L18.0439 44.3585L18.118 44.7928L18.5841 44.3585L18.118 43.9242Z" fill="#FDD406"/>
<path d="M12.8003 59.0366V60.2125L14.6223 61.918L14.0079 62.49L15.3109 63.6976L14.7388 64.2167V63.4646H13.6265V64.365L16.1371 66.7167H17.4083L17.546 65.8904H16.8151L17.6096 65.1489L19.6011 66.9604L17.6096 68.7824L16.8151 68.0409H17.546L17.4083 67.204H16.1371L13.6265 69.5557V70.4561H14.7388V69.704L15.3109 70.2231L14.0079 71.4307L14.6223 72.0133L12.8003 73.7082V74.8841L15.8829 72.0133L15.2685 71.4307L16.5609 70.2231L15.4486 69.185L16.1901 68.507L17.6096 69.8206L20.724 66.9604L17.6096 64.1002L16.1901 65.4244L15.4486 64.7358L16.5609 63.6977L15.2685 62.4901L15.8829 61.918L12.8003 59.0366ZM12.8003 64.7464V69.1743L13.5206 68.4434V67.5854H14.2833L14.8977 66.9604L14.2833 66.346H13.5206V65.4773L12.8003 64.7464ZM18.0545 66.3142L17.9486 66.918L18.0545 67.5324L18.7113 66.918L18.0545 66.3142Z" fill="black"/>
<path d="M12.8003 59.1638V60.096L14.7494 61.9181L14.135 62.4901L15.438 63.6977L14.6541 64.4287V63.5494H13.7113V64.3333L16.1795 66.632H17.3236L17.4401 65.9753H16.5926L17.6096 65.0219L19.7282 66.9604L17.6096 68.899L16.5926 67.9562H17.4401L17.3233 67.2888H16.1792L13.711 69.5875V70.3714H14.6538V69.4922L15.4377 70.2231L14.1347 71.4308L14.7491 72.0134L12.8 73.8248V74.757L15.7555 72.0134L15.1411 71.4308L16.4334 70.2231L15.3211 69.185L16.1898 68.3799L17.6093 69.7041L20.586 66.9604L17.6093 64.2168L16.1898 65.5409L15.3211 64.7359L16.4334 63.6977L15.1411 62.4901L15.7555 61.9181L12.8 59.1638L12.8003 59.1638ZM12.8003 64.8736V69.0473L13.4359 68.4117V67.4901H14.2515L14.7812 66.9605L14.2515 66.4308H13.4359V65.5092L12.8003 64.8736ZM18.118 66.4838L18.0439 66.9181L18.118 67.3524L18.5841 66.9181L18.118 66.4838Z" fill="#FDD406"/>
<path d="M12.8003 81.5959V82.7718L14.6223 84.4773L14.0079 85.0493L15.3109 86.257L14.7388 86.776V86.0239H13.6265V86.9243L16.1371 89.276H17.4083L17.546 88.4498H16.8151L17.6096 87.7082L19.6011 89.5197L17.6096 91.3417L16.8151 90.6002H17.546L17.4083 89.7633H16.1371L13.6265 92.115V93.0155H14.7388V92.2634L15.3109 92.7824L14.0079 93.99L14.6223 94.5727L12.8003 96.2676V97.4434L15.8829 94.5727L15.2685 93.99L16.5609 92.7824L15.4486 91.7443L16.1901 91.0663L17.6096 92.3799L20.724 89.5197L17.6096 86.6596L16.1901 87.9837L15.4486 87.2951L16.5609 86.257L15.2685 85.0494L15.8829 84.4774L12.8003 81.5959ZM12.8003 87.3057V91.7337L13.5206 91.0027V90.1447H14.2833L14.8977 89.5197L14.2833 88.9053H13.5206V88.0366L12.8003 87.3057ZM18.0545 88.8735L17.9486 89.4773L18.0545 90.0917L18.7113 89.4773L18.0545 88.8735Z" fill="black"/>
<path d="M12.8003 81.7232V82.6554L14.7494 84.4774L14.135 85.0494L15.438 86.2571L14.6541 86.988V86.1087H13.7113V86.8926L16.1795 89.1914H17.3236L17.4401 88.5346H16.5926L17.6096 87.5812L19.7282 89.5198L17.6096 91.4583L16.5926 90.5155H17.4401L17.3233 89.8481H16.1792L13.711 92.1469V92.9308H14.6538V92.0515L15.4377 92.7825L14.1347 93.9901L14.7491 94.5727L12.8 96.3842V97.3164L15.7555 94.5727L15.1411 93.9901L16.4334 92.7825L15.3211 91.7443L16.1898 90.9392L17.6093 92.2634L20.586 89.5198L17.6093 86.7761L16.1898 88.1003L15.3211 87.2952L16.4334 86.257L15.1411 85.0494L15.7555 84.4774L12.8 81.7231L12.8003 81.7232ZM12.8003 87.4329V91.6066L13.4359 90.971V90.0494H14.2515L14.7812 89.5198L14.2515 88.9901H13.4359V88.0685L12.8003 87.4329ZM18.118 89.0431L18.0439 89.4774L18.118 89.9117L18.5841 89.4774L18.118 89.0431Z" fill="#FDD406"/>
<path d="M37.2766 0H38.3995L40.3909 1.82194L41.1854 1.08041H40.4545L40.5922 0.24355H41.8634L44.374 2.59527V3.49569H43.2617V2.74358L42.6896 3.26264L43.9926 4.47027L43.3782 5.05288L45.1998 6.74743V7.9233L42.1176 5.05288L42.732 4.47027L41.4396 3.26264L42.5519 2.22451L41.8104 1.54654L40.3909 2.8601L37.2766 0Z" fill="black"/>
<path d="M45.1998 2.21349L44.4799 1.48296V0.624923H43.7172L43.1029 0H45.1998V2.21349Z" fill="black"/>
<path d="M40.0446 0L39.946 0.571948L39.3346 0H40.0446Z" fill="black"/>
<path d="M39.9492 0H39.4618L39.8823 0.391831L39.9492 0Z" fill="#FDD406"/>
<path d="M45.1998 2.08639V0H43.2193L43.7488 0.529548H44.5645V1.45114L45.1998 2.08639Z" fill="#FDD406"/>
<path d="M45.1998 6.86367L43.2512 5.0528L43.8657 4.47019L42.5627 3.26256L43.3466 2.53163V3.41087H44.2894V2.62697L41.8212 0.328251H40.6771L40.5603 0.995624H41.4078L40.3908 1.93842L38.2723 0H37.4146L40.3911 2.7435L41.8106 1.41934L42.6793 2.22443L41.5669 3.26256L42.8593 4.47019L42.2449 5.0528L45.1998 7.79587V6.86367Z" fill="#FDD406"/>
<path d="M45.2003 13.9175V15.0933L43.3782 16.7988L43.9927 17.3709L42.6897 18.5785L43.2617 19.0976V18.3454H44.374V19.2459L41.8634 21.5976H40.5922L40.4545 20.7713H41.1855L40.391 20.0298L38.3995 21.8412L40.391 23.6632L41.1855 22.9217H40.4545L40.5922 22.0849H41.8634L44.374 24.4366V25.337H43.2617V24.5849L42.6897 25.104L43.9927 26.3116L43.3782 26.8942L45.2003 28.5891V29.765L42.1177 26.8942L42.7321 26.3116L41.4397 25.104L42.552 24.0658L41.8104 23.3879L40.391 24.7014L37.2765 21.8413L40.391 18.9811L41.8104 20.3052L42.552 19.6167L41.4397 18.5785L42.7321 17.3709L42.1177 16.7989L45.2003 13.9175ZM45.2003 19.6272V24.0552L44.4799 23.3243V22.4662H43.7172L43.1028 21.8412L43.7172 21.2268H44.4799V20.3582L45.2003 19.6272ZM39.946 21.195L40.052 21.7989L39.946 22.4133L39.2893 21.7989L39.946 21.195Z" fill="black"/>
<path d="M45.2003 14.0447V14.9769L43.2511 16.7989L43.8656 17.371L42.5626 18.5786L43.3465 19.3095V18.4303H44.2893V19.2142L41.821 21.5129H40.677L40.5605 20.8561H41.4079L40.391 19.9027L38.2723 21.8413L40.391 23.7798L41.4079 22.8371H40.5605L40.6773 22.1697H41.8213L44.2896 24.4684V25.2523H43.3468V24.3731L42.5629 25.104L43.8658 26.3116L43.2514 26.8942L45.2006 28.7057V29.6379L42.2451 26.8942L42.8595 26.3116L41.5671 25.104L42.6794 24.0659L41.8107 23.2608L40.3913 24.5849L37.4146 21.8413L40.3913 19.0976L41.8107 20.4218L42.6794 19.6167L41.5671 18.5786L42.8595 17.371L42.2451 16.7989L45.2006 14.0447L45.2003 14.0447ZM45.2003 19.7544V23.9282L44.5647 23.2926V22.371H43.749L43.2194 21.8413L43.749 21.3117H44.5647V20.39L45.2003 19.7544ZM39.8825 21.3646L39.9566 21.7989L39.8825 22.2333L39.4164 21.7989L39.8825 21.3646Z" fill="#FDD406"/>
<path d="M45.2003 36.4773V37.6532L43.3782 39.3587L43.9927 39.9307L42.6897 41.1383L43.2617 41.6574V40.9053H44.374V41.8057L41.8634 44.1574H40.5922L40.4545 43.3311H41.1855L40.391 42.5896L38.3995 44.401L40.391 46.2231L41.1855 45.4815H40.4545L40.5922 44.6447H41.8634L44.374 46.9964V47.8968H43.2617V47.1447L42.6897 47.6638L43.9927 48.8714L43.3782 49.454L45.2003 51.1489V52.3248L42.1177 49.454L42.7321 48.8714L41.4397 47.6638L42.552 46.6256L41.8104 45.9477L40.391 47.2612L37.2765 44.4011L40.391 41.5409L41.8104 42.8651L42.552 42.1765L41.4397 41.1384L42.7321 39.9307L42.1177 39.3587L45.2003 36.4773ZM45.2003 42.1871V46.615L44.4799 45.8841V45.026H43.7172L43.1028 44.401L43.7172 43.7866H44.4799V42.918L45.2003 42.1871ZM39.946 43.7549L40.052 44.3587L39.946 44.9731L39.2893 44.3587L39.946 43.7549Z" fill="black"/>
<path d="M45.2003 36.6045V37.5367L43.2511 39.3587L43.8656 39.9308L42.5626 41.1384L43.3465 41.8693V40.9901H44.2893V41.774L41.821 44.0727H40.677L40.5605 43.4159H41.4079L40.391 42.4625L38.2723 44.4011L40.391 46.3397L41.4079 45.3969H40.5605L40.6773 44.7295H41.8213L44.2896 47.0282V47.8121H43.3468V46.9329L42.5629 47.6638L43.8658 48.8714L43.2514 49.454L45.2006 51.2655V52.1977L42.2451 49.454L42.8595 48.8714L41.5671 47.6638L42.6794 46.6257L41.8107 45.8206L40.3913 47.1447L37.4146 44.4011L40.3913 41.6575L41.8107 42.9816L42.6794 42.1765L41.5671 41.1384L42.8595 39.9308L42.2451 39.3587L45.2006 36.6045L45.2003 36.6045ZM45.2003 42.3143V46.488L44.5647 45.8524V44.9308H43.749L43.2194 44.4011L43.749 43.8715H44.5647V42.9499L45.2003 42.3143ZM39.8825 43.9244L39.9566 44.3588L39.8825 44.7931L39.4164 44.3588L39.8825 43.9244Z" fill="#FDD406"/>
<path d="M45.2003 59.0366V60.2125L43.3782 61.918L43.9927 62.49L42.6897 63.6976L43.2617 64.2167V63.4646H44.374V64.365L41.8634 66.7167H40.5922L40.4545 65.8904H41.1855L40.391 65.1489L38.3995 66.9604L40.391 68.7824L41.1855 68.0409H40.4545L40.5922 67.204H41.8634L44.374 69.5557V70.4561H43.2617V69.704L42.6897 70.2231L43.9927 71.4307L43.3782 72.0133L45.2003 73.7082V74.8841L42.1177 72.0133L42.7321 71.4307L41.4397 70.2231L42.552 69.185L41.8104 68.507L40.391 69.8206L37.2765 66.9604L40.391 64.1002L41.8104 65.4244L42.552 64.7358L41.4397 63.6977L42.7321 62.4901L42.1177 61.918L45.2003 59.0366ZM45.2003 64.7464V69.1743L44.4799 68.4434V67.5854H43.7172L43.1028 66.9604L43.7172 66.346H44.4799V65.4773L45.2003 64.7464ZM39.946 66.3142L40.052 66.918L39.946 67.5324L39.2893 66.918L39.946 66.3142Z" fill="black"/>
<path d="M45.2003 59.1638V60.096L43.2511 61.9181L43.8656 62.4901L42.5626 63.6977L43.3465 64.4287V63.5494H44.2893V64.3333L41.821 66.632H40.677L40.5605 65.9753H41.4079L40.391 65.0219L38.2723 66.9604L40.391 68.899L41.4079 67.9562H40.5605L40.6773 67.2888H41.8213L44.2896 69.5875V70.3714H43.3468V69.4922L42.5629 70.2231L43.8658 71.4308L43.2514 72.0134L45.2006 73.8248V74.757L42.2451 72.0134L42.8595 71.4308L41.5671 70.2231L42.6794 69.185L41.8107 68.3799L40.3913 69.7041L37.4146 66.9604L40.3913 64.2168L41.8107 65.5409L42.6794 64.7359L41.5671 63.6977L42.8595 62.4901L42.2451 61.9181L45.2006 59.1638L45.2003 59.1638ZM45.2003 64.8736V69.0473L44.5647 68.4117V67.4901H43.749L43.2194 66.9605L43.749 66.4308H44.5647V65.5092L45.2003 64.8736ZM39.8825 66.4838L39.9566 66.9181L39.8825 67.3524L39.4164 66.9181L39.8825 66.4838Z" fill="#FDD406"/>
<path d="M45.2003 81.5959V82.7718L43.3782 84.4773L43.9927 85.0493L42.6897 86.257L43.2617 86.776V86.0239H44.374V86.9243L41.8634 89.276H40.5922L40.4545 88.4498H41.1855L40.391 87.7082L38.3995 89.5197L40.391 91.3417L41.1855 90.6002H40.4545L40.5922 89.7633H41.8634L44.374 92.115V93.0155H43.2617V92.2634L42.6897 92.7824L43.9927 93.99L43.3782 94.5727L45.2003 96.2676V97.4434L42.1177 94.5727L42.7321 93.99L41.4397 92.7824L42.552 91.7443L41.8104 91.0663L40.391 92.3799L37.2765 89.5197L40.391 86.6596L41.8104 87.9837L42.552 87.2951L41.4397 86.257L42.7321 85.0494L42.1177 84.4774L45.2003 81.5959ZM45.2003 87.3057V91.7337L44.4799 91.0027V90.1447H43.7172L43.1028 89.5197L43.7172 88.9053H44.4799V88.0366L45.2003 87.3057ZM39.946 88.8735L40.052 89.4773L39.946 90.0917L39.2893 89.4773L39.946 88.8735Z" fill="black"/>
<path d="M45.2003 81.7232V82.6554L43.2511 84.4774L43.8656 85.0494L42.5626 86.2571L43.3465 86.988V86.1087H44.2893V86.8926L41.821 89.1914H40.677L40.5605 88.5346H41.4079L40.391 87.5812L38.2723 89.5198L40.391 91.4583L41.4079 90.5155H40.5605L40.6773 89.8481H41.8213L44.2896 92.1469V92.9308H43.3468V92.0515L42.5629 92.7825L43.8658 93.9901L43.2514 94.5727L45.2006 96.3842V97.3164L42.2451 94.5727L42.8595 93.9901L41.5671 92.7825L42.6794 91.7443L41.8107 90.9392L40.3913 92.2634L37.4146 89.5198L40.3913 86.7761L41.8107 88.1003L42.6794 87.2952L41.5671 86.257L42.8595 85.0494L42.2451 84.4774L45.2006 81.7231L45.2003 81.7232ZM45.2003 87.4329V91.6066L44.5647 90.971V90.0494H43.749L43.2194 89.5198L43.749 88.9901H44.5647V88.0685L45.2003 87.4329ZM39.8825 89.0431L39.9566 89.4774L39.8825 89.9117L39.4164 89.4774L39.8825 89.0431Z" fill="#FDD406"/>
<path d="M16.854 14.0678L14.2578 12.4758V8.64874L16.854 7.0567V5.0317L19.3074 3.55426H21.2674L24.9969 1.45654H33.0036L36.7332 3.55426H38.6932L41.1466 5.0317V7.0567L43.7428 8.64874L43.7427 12.4758L41.1466 14.0678V16.0928L38.6932 17.5703H36.7332L33.0036 19.668H24.9969L21.2674 17.5703H19.3074L16.854 16.0928V14.0678Z" fill="black"/>
<path d="M25.0142 1.54639L21.2854 3.64385H19.3363L16.9422 5.08452V7.10782L14.3469 8.69681V12.4256L16.9422 14.0146V16.0485L19.3257 17.4892H21.2854L25.0142 19.5866H32.9803L36.7091 17.4892H38.6689L41.063 16.0485V14.0146L43.6583 12.4256V8.69681L41.063 7.10782V5.08452L38.6689 3.64385H36.7091L32.9803 1.54639H25.0142ZM25.2367 2.31969H32.7685L36.4973 4.41715H38.4464L40.2579 5.50825V7.53155L42.8638 9.12054V12.0019L40.2579 13.5909V15.6142L38.4464 16.7053H36.4973L32.7685 18.8028H25.2367L21.5079 16.7053H19.5587L17.7367 15.6142V13.5909L15.1414 12.0019V9.12054L17.7367 7.53155V5.50825L19.5587 4.41715H21.5079L25.2367 2.31969Z" fill="#1E9A1C"/>
<path d="M28.9573 10.605V2.40332H25.2561L21.5264 4.50104H19.582L17.8231 5.56028V7.58036L15.227 9.17228V10.5194L29.0431 10.5193V18.7212H32.7443L36.4739 16.6234H38.4184L40.1772 15.5642V13.5442L42.7734 11.9522V10.6051L28.9573 10.605Z" fill="#FDD406"/>
<path d="M15.2269 10.6051L15.2267 11.9522L17.8229 13.5442V15.5642L19.5818 16.6234H21.5263L25.2559 18.7212H28.9571V10.5193L42.7733 10.5194V9.17228L40.1771 7.58036V5.56028L38.4182 4.50104H36.4738L32.7442 2.40332H29.043V10.605L15.2269 10.6051Z" fill="white"/>
<path d="M20.8904 5.25608L20.2513 4.6604L19.618 5.05088L20.2582 5.64776L19.4362 6.15704H21.23L22.7758 7.61516L23.2703 7.09292L21.7673 5.67512V4.71272L20.8904 5.25608Z" fill="black"/>
<path d="M23.9154 4.99436L23.2763 4.39868L22.643 4.78916L23.2832 5.38604L22.4612 5.89532H24.255L25.8008 7.35345L26.2954 6.83121L24.7924 5.4134V4.451L23.9154 4.99436Z" fill="black"/>
<path d="M20.6686 6.96726L20.0295 6.37158L19.3963 6.76206L20.0364 7.35894L19.2145 7.86822H21.0083L22.554 9.32635L23.0485 8.80411L21.5455 7.3863V6.4239L20.6686 6.96726Z" fill="black"/>
<path d="M29.0002 2.31787H27.3815L26.5346 3.13411H24.8835L23.6635 3.76735L23.948 4.46059L25.036 3.88915H25.5125L27.1808 5.81851L29.0002 4.71055L29.0002 2.31787Z" fill="black"/>
<path d="M20.2406 4.76758L20.8149 5.3029L20.3337 5.60098L19.7585 5.06482L20.2406 4.76758ZM21.6817 4.86658V5.71198L23.1491 7.09629L22.7723 7.49421L21.2641 6.07138H19.7369L21.6817 4.86658Z" fill="#D91C16"/>
<path d="M23.2656 4.50586L23.8399 5.04118L23.3587 5.33926L22.7837 4.8031L23.2656 4.50586ZM24.7067 4.60486V5.45026L26.1742 6.83457L25.7974 7.2325L24.2891 5.80978H22.762L24.7067 4.60486Z" fill="#D91C16"/>
<path d="M20.0191 6.47876L20.5933 7.01408L20.1121 7.31216L19.5371 6.776L20.0191 6.47876ZM21.4601 6.57776V7.42316L22.9276 8.80748L22.5509 9.2054L21.0426 7.78268H19.5154L21.4601 6.57776Z" fill="#D91C16"/>
<path d="M28.9574 2.40332H27.4162L26.5692 3.21956H24.9045L23.7724 3.80708L23.9914 4.34084L25.0148 3.80348H25.5518L27.1982 5.70764L28.9574 4.6364L28.9574 2.40332Z" fill="#D91C16"/>
<path d="M20.8904 15.8687L20.2513 16.4644L19.618 16.0739L20.2582 15.477L19.4362 14.9677H21.23L22.7758 13.5096L23.2703 14.0318L21.7673 15.4496V16.412L20.8904 15.8687Z" fill="black"/>
<path d="M23.9154 16.1304L23.2763 16.7261L22.643 16.3356L23.2832 15.7387L22.4612 15.2294H24.255L25.8008 13.7713L26.2954 14.2936L24.7924 15.7114V16.6738L23.9154 16.1304Z" fill="black"/>
<path d="M20.6686 14.1575L20.0295 14.7532L19.3963 14.3627L20.0364 13.7658L19.2145 13.2565H21.0083L22.554 11.7984L23.0485 12.3207L21.5455 13.7385V14.7009L20.6686 14.1575Z" fill="black"/>
<path d="M29.0002 18.8069H27.3815L26.5346 17.9906H24.8835L23.6635 17.3574L23.948 16.6642L25.036 17.2356H25.5125L27.1808 15.3062L29.0002 16.4142L29.0002 18.8069Z" fill="black"/>
<path d="M20.2406 16.3572L20.8149 15.8219L20.3337 15.5238L19.7585 16.0599L20.2406 16.3572ZM21.6817 16.2582V15.4128L23.1491 14.0285L22.7723 13.6305L21.2641 15.0534H19.7369L21.6817 16.2582Z" fill="#D91C16"/>
<path d="M23.2656 16.6189L23.8399 16.0836L23.3587 15.7855L22.7837 16.3217L23.2656 16.6189ZM24.7067 16.5199V15.6745L26.1742 14.2902L25.7974 13.8923L24.2891 15.315H22.762L24.7067 16.5199Z" fill="#D91C16"/>
<path d="M20.0191 14.646L20.5933 14.1107L20.1121 13.8126L19.5371 14.3488L20.0191 14.646ZM21.4601 14.547V13.7016L22.9276 12.3173L22.5509 11.9194L21.0426 13.3421H19.5154L21.4601 14.547Z" fill="#D91C16"/>
<path d="M28.9574 18.7214H27.4162L26.5692 17.9052H24.9045L23.7724 17.3177L23.9914 16.7839L25.0148 17.3213H25.5518L27.1982 15.4171L28.9574 16.4884L28.9574 18.7214Z" fill="#D91C16"/>
<path d="M19.8116 7.94217L19.0399 7.65381L19.0214 7.66665L18.0249 8.35809V8.54397L16.4289 10.5622L18.0249 12.5805V12.7665L19.0399 13.4707L19.8116 13.1823L19.3406 12.8704V12.277L19.5278 12.0531H20.3641V9.07137H19.5278L19.3406 8.84745V8.25405L19.8116 7.94217Z" fill="black"/>
<path d="M18.1106 8.4028L19.0519 7.74976L19.6243 7.9636L19.2549 8.20816V8.8786L19.4877 9.157H20.2783V11.9676H19.4877L19.2549 12.246V12.9165L19.6243 13.161L19.0519 13.3749L18.1106 12.7218L18.1107 12.5508L16.5381 10.5623L18.1107 8.57368L18.1106 8.4028Z" fill="#D91C16"/>
<path d="M37.1097 5.25608L37.7489 4.6604L38.3821 5.05088L37.7419 5.64776L38.5639 6.15704H36.7702L35.2243 7.61516L34.7298 7.09292L36.2328 5.67512V4.71272L37.1097 5.25608Z" fill="black"/>
<path d="M34.0849 4.99461L34.724 4.39893L35.3573 4.78941L34.7171 5.38629L35.5391 5.89557H33.7453L32.1995 7.35369L31.7049 6.83145L33.2079 5.41365V4.45125L34.0849 4.99461Z" fill="black"/>
<path d="M37.3315 6.96726L37.9707 6.37158L38.6038 6.76206L37.9637 7.35894L38.7856 7.86822H36.9918L35.4461 9.32635L34.9516 8.80411L36.4546 7.3863V6.4239L37.3315 6.96726Z" fill="black"/>
<path d="M29 2.31787H30.6186L31.4655 3.13411H33.1166L34.3367 3.76735L34.0521 4.46059L32.9641 3.88915H32.4876L30.8194 5.81851L28.9999 4.71055L29 2.31787Z" fill="black"/>
<path d="M37.7595 4.76758L37.1852 5.3029L37.6664 5.60098L38.2416 5.06482L37.7595 4.76758ZM36.3185 4.86658V5.71198L34.851 7.09629L35.2278 7.49421L36.7361 6.07138H38.2632L36.3185 4.86658Z" fill="#D91C16"/>
<path d="M34.7345 4.50586L34.1602 5.04118L34.6414 5.33926L35.2164 4.8031L34.7345 4.50586ZM33.2934 4.60486V5.45026L31.826 6.83457L32.2028 7.2325L33.711 5.80978H35.2382L33.2934 4.60486Z" fill="#D91C16"/>
<path d="M37.9812 6.47876L37.407 7.01408L37.8882 7.31216L38.4632 6.776L37.9812 6.47876ZM36.5402 6.57776V7.42316L35.0727 8.80748L35.4494 9.2054L36.9577 7.78268H38.4849L36.5402 6.57776Z" fill="#D91C16"/>
<path d="M29.0427 2.40332H30.5839L31.4309 3.21956H33.0956L34.2277 3.80708L34.0087 4.34084L32.9854 3.80348H32.4484L30.802 5.70764L29.0427 4.6364L29.0427 2.40332Z" fill="#D91C16"/>
<path d="M37.1097 15.8687L37.7489 16.4644L38.3821 16.0739L37.7419 15.477L38.5639 14.9677H36.7702L35.2243 13.5096L34.7298 14.0318L36.2328 15.4496V16.412L37.1097 15.8687Z" fill="black"/>
<path d="M34.0849 16.1304L34.724 16.7261L35.3573 16.3356L34.7171 15.7387L35.5391 15.2294H33.7453L32.1995 13.7713L31.7049 14.2936L33.2079 15.7114V16.6738L34.0849 16.1304Z" fill="black"/>
<path d="M37.3315 14.1575L37.9707 14.7532L38.6038 14.3627L37.9637 13.7658L38.7856 13.2565H36.9918L35.4461 11.7984L34.9516 12.3207L36.4546 13.7385V14.7009L37.3315 14.1575Z" fill="black"/>
<path d="M29 18.8069H30.6186L31.4655 17.9906H33.1166L34.3367 17.3574L34.0521 16.6642L32.9641 17.2356H32.4876L30.8194 15.3062L28.9999 16.4142L29 18.8069Z" fill="black"/>
<path d="M37.7595 16.3572L37.1852 15.8219L37.6664 15.5238L38.2416 16.0599L37.7595 16.3572ZM36.3185 16.2582V15.4128L34.851 14.0285L35.2278 13.6305L36.7361 15.0534H38.2632L36.3185 16.2582Z" fill="#D91C16"/>
<path d="M34.7345 16.6189L34.1602 16.0836L34.6414 15.7855L35.2164 16.3217L34.7345 16.6189ZM33.2934 16.5199V15.6745L31.826 14.2902L32.2028 13.8923L33.711 15.315H35.2382L33.2934 16.5199Z" fill="#D91C16"/>
<path d="M37.9812 14.646L37.407 14.1107L37.8882 13.8126L38.4632 14.3488L37.9812 14.646ZM36.5402 14.547V13.7016L35.0727 12.3173L35.4494 11.9194L36.9577 13.3421H38.4849L36.5402 14.547Z" fill="#D91C16"/>
<path d="M29.0427 18.7214H30.5839L31.4309 17.9052H33.0956L34.2277 17.3177L34.0087 16.7839L32.9854 17.3213H32.4484L30.802 15.4171L29.0427 16.4884L29.0427 18.7214Z" fill="#D91C16"/>
<path d="M38.1885 7.94217L38.9603 7.65381L38.9787 7.66665L39.9752 8.35809V8.54397L41.5712 10.5622L39.9752 12.5805V12.7665L38.9603 13.4707L38.1885 13.1823L38.6595 12.8704V12.277L38.4723 12.0531H37.6361V9.07137H38.4723L38.6595 8.84745V8.25405L38.1885 7.94217Z" fill="black"/>
<path d="M39.8896 8.4028L38.9483 7.74976L38.3759 7.9636L38.7452 8.20816V8.8786L38.5124 9.157H37.7219V11.9676H38.5124L38.7452 12.246V12.9165L38.3759 13.161L38.9483 13.3749L39.8896 12.7218L39.8894 12.5508L41.462 10.5623L39.8894 8.57368L39.8896 8.4028Z" fill="#D91C16"/>
<path d="M18.4413 12.2565L18.0068 11.8806V11.6994L17.0746 10.5624L18.0069 9.42523V9.24415L18.4414 8.86819L19.2219 9.50287L18.7714 9.49939L19.4371 10.175H20.9581L22.1543 9.23959V6.77275H25.146L28.6205 4.64059V4.08139L28.0891 3.72727H27.9207L27.3421 4.11451L27.2525 4.40335L26.7998 3.78535L27.6795 3.04627H27.8202L28.8129 2.31787H29.1872L30.1799 3.04627H30.3206L31.2003 3.78535L30.7477 4.40335L30.6581 4.11451L30.0794 3.72727H29.9111L29.3797 4.08139V4.64059L32.8542 6.77275H35.8459V9.23959L37.0421 10.175H38.5631L39.2287 9.49939L38.7782 9.50287L39.5587 8.86819L39.9932 9.24415V9.42523L40.9255 10.5624L39.9932 11.6994V11.8806L39.5587 12.2565L38.7782 11.6218L39.2287 11.6253L38.5631 10.9496H37.0421L35.8459 11.8851V14.352H32.8542L29.3797 16.4841V17.0433L29.9111 17.3974H30.0794L30.6581 17.0102L30.7477 16.7214L31.2003 17.3392L30.3206 18.0784H30.1799L29.1872 18.8068H28.8129L27.8202 18.0784H27.6795L26.7997 17.3392L27.2525 16.7214L27.3421 17.0102L27.9206 17.3974H28.089L28.6205 17.0433V16.4841L25.146 14.352H22.1543V11.8851L20.958 10.9496H19.4371L18.7714 11.6253L19.2219 11.6218L18.4413 12.2565Z" fill="black"/>
<path d="M29.0429 17.4638L29.4232 17.7546L29.0429 18.0453V17.4638ZM27.8342 17.9926H27.8482L28.841 18.7212H28.9569V18.1528L28.4361 17.7546L28.957 17.3563V16.2888L25.2392 14.0072H22.4908V11.7147L21.0718 10.605H18.9315L18.3935 11.2132L17.8556 10.605L17.2204 10.6051L18.0923 11.6685V11.8412L18.4377 12.1412L18.9926 11.7092L18.6669 11.7117V11.6037L19.3926 10.8639H20.9874L22.2399 11.8434V14.2663H25.1702L28.706 16.4361V17.0889L28.1148 17.4829H27.8944L27.2691 17.0643L27.221 16.909L26.916 17.3252L27.7107 17.9926L27.8342 17.9926ZM18.394 10.0406L18.8176 10.5194H17.9703L18.394 10.0406ZM28.9571 3.07916L28.5771 3.36992L28.9571 3.66056V3.07916ZM39.1826 10.6051L39.6062 11.0839L40.0298 10.6051H39.1826ZM30.1517 3.13172L29.159 2.40332H29.043V2.9714L29.5641 3.36992L29.0429 3.76844V4.83572L32.7608 7.11728H35.5091V9.40976L36.9281 10.5195H39.0681L39.6062 9.91136L40.1442 10.5194H40.7795L39.9076 9.45596V9.28328L39.5622 8.98328L39.0074 9.41528L39.333 9.41264V9.52076L38.6073 10.2604H37.0125L35.7602 9.281V6.8582H32.8298L29.294 4.68836V4.03544L29.8851 3.6416H30.1055L30.7308 4.06016L30.779 4.21544L31.0839 3.79928L30.2892 3.13172L30.1517 3.13172Z" fill="#FDD406"/>
<path d="M28.9571 18.0452L28.5771 17.7546L28.9571 17.4639V18.0452ZM18.8176 10.6051L18.394 11.0839L17.9704 10.6051H18.8176ZM30.1658 17.9926H30.1517L29.159 18.7212H29.043V18.5724V18.1531L29.5641 17.7546L29.0429 17.356V16.2888L32.7608 14.0072H35.5091V11.7147L36.9281 10.605H39.0682L39.6062 11.2132L40.1441 10.605L40.7795 10.6051L39.9076 11.6685V11.8412L39.5623 12.1412L39.0074 11.7092L39.3331 11.7117V11.6037L38.6073 10.8639H37.0125L35.7602 11.8434V14.2663H32.8298L29.294 16.4361V17.0889L29.8851 17.4829H30.1055L30.7308 17.0643L30.779 16.909L31.0839 17.3252L30.2892 17.9926L30.1658 17.9926ZM39.6062 10.0406L39.1826 10.5194H40.0299L39.6062 10.0406ZM27.8484 3.13172L28.8412 2.40332H28.9572V2.9714L28.4361 3.36992L28.9572 3.76844L28.9574 4.83572L25.2394 7.11728H22.4912V9.40976L21.072 10.5195H18.9315L18.3935 9.91136L17.8554 10.5194H17.2206L18.0927 9.45596V9.28328L18.438 8.98328L18.9928 9.41528L18.6671 9.41264V9.52076L19.393 10.2604H20.9877L22.2401 9.281V6.8582H25.1704L28.7063 4.68836V4.03544L28.1152 3.6416H27.8946L27.2693 4.06016L27.2212 4.21544L26.9164 3.79928L27.711 3.13172L27.8484 3.13172ZM29.0429 3.66068L29.4232 3.36992L29.0429 3.07916V3.66068Z" fill="white"/>
<path d="M28.9574 10.605V4.93604L25.2636 7.20284H22.5767V9.4514L21.2111 10.5194L29.0432 10.5193V16.1883L32.7366 13.9216H35.4236V11.6731L36.7892 10.6051L28.9574 10.605Z" fill="#1E9A1C"/>
<path d="M21.2109 10.605L22.5766 11.673V13.9215H25.2634L28.9572 16.1883V10.5191L36.789 10.5193L35.4234 9.45127V7.20271H32.7365L29.043 4.93604V10.6049L21.2109 10.605Z" fill="#D91C16"/>
<path d="M25.0243 7.81272L24.3853 7.21704L23.7521 7.6074L24.3923 8.20428L23.5703 8.71356H25.364L26.9098 10.1718L27.4044 9.64945L25.9014 8.23164V7.26936L25.0243 7.81272Z" fill="black"/>
<path d="M32.9754 13.3117L33.6145 13.9074L34.2476 13.5169L33.6075 12.92L34.4295 12.4109H32.6356L31.0899 10.9526L30.5954 11.4749L32.0984 12.8928V13.8551L32.9754 13.3117Z" fill="black"/>
<path d="M25.0243 13.3117L24.3852 13.9074L23.7521 13.5169L24.3921 12.92L23.5703 12.4109H25.364L26.9097 10.9526L27.4042 11.4749L25.9012 12.8928V13.8551L25.0243 13.3117Z" fill="black"/>
<path d="M32.9754 7.81272L33.6145 7.21704L34.2476 7.6074L33.6075 8.20428L34.4295 8.71356H32.6356L31.0899 10.1718L30.5954 9.64945L32.0984 8.23164V7.26936L32.9754 7.81272Z" fill="black"/>
<path d="M33.625 13.8003L33.0508 13.265L33.532 12.9669L34.107 13.503L33.625 13.8003ZM32.184 13.7013V12.856L30.7165 11.4717L31.0934 11.0736L32.6016 12.4965H34.1288L32.184 13.7013ZM24.3747 7.32397L24.949 7.85929L24.4677 8.15749L23.8926 7.62133L24.3747 7.32397ZM25.8158 7.42309V8.26837L27.2832 9.65269L26.9064 10.0507L25.3982 8.62789H23.871L25.8158 7.42309Z" fill="#D91C16"/>
<path d="M33.6251 7.32397L33.0509 7.85929L33.5321 8.15749L34.1072 7.62133L33.6251 7.32397ZM32.1842 7.42309V8.26837L30.7167 9.65269L31.0935 10.0507L32.6018 8.62789H34.1289L32.1842 7.42309ZM24.3748 13.8003L24.949 13.265L24.4678 12.9669L23.8928 13.503L24.3748 13.8003ZM25.8158 13.7013V12.856L27.2832 11.4717L26.9066 11.0736L25.3983 12.4965H23.871L25.8158 13.7013Z" fill="#1E9A1C"/>
<path d="M32.9719 10.5622L29.0001 13.2093L25.0283 10.5622L29.0001 7.91504L32.9719 10.5622Z" fill="black"/>
<path d="M28.9572 8.04639L25.2469 10.5192H32.7532L29.043 8.04639V13.0777L32.7534 10.6049H25.2468L28.9572 13.0777V8.04639Z" fill="white"/>
<path d="M30.0623 11.4725V12.2003H27.9381V11.4725H26.5634V9.65187H27.9381V8.92407H30.0623V9.65187H31.4369V11.4725H30.0623Z" fill="black"/>
<path d="M28.024 9.00977V9.73757H26.6494V10.5195H28.9574V9.00977L28.024 9.00977ZM29.0432 10.5195H31.3513V9.73757H29.9767V9.00977H29.0432L29.0432 10.5195ZM26.6494 10.6052V11.3871H28.024V12.1149H28.9574V10.6052L26.6494 10.6052ZM29.0432 12.1149H29.9767V11.3871H31.3513V10.6052H29.0432V12.1149Z" fill="#D91C16"/>
<path d="M35.7762 40.7219V39.5559H38.9738V38.3898H42.1714V27.8536H38.9738V26.6875H35.7762V25.5215H32.5785V24.3555H25.4221V25.5215H22.2244V26.6875H19.0267V27.8536H15.829V38.3898H19.0267V39.5559H22.2244V40.7219H25.4221V41.8879H32.5785V40.7219H35.7762Z" fill="black"/>
<path d="M25.5123 24.4385V25.6037H22.313V26.769H19.1139V27.9342H15.9147V38.305H19.1139V39.4704H22.313V40.6355H25.5123V41.8006H32.493V40.6355H35.6923V39.4704H38.8916V38.305H42.0906V27.9342H38.8916V26.769H35.6923V25.6037H32.493V24.4385H25.5123ZM26.3598 25.2859H31.6455V26.4512H34.8448V27.6164H38.0442V28.7817H41.2431V37.4575H38.0442V38.6229H34.8448V39.788H31.6455V40.9531H26.3598V39.788H23.1605V38.6229H19.9614V37.4575H16.7622V28.7817H19.9614V27.6164H23.1605V26.4512H26.3598V25.2859Z" fill="#FDD406"/>
<path d="M23.2425 39.7037V38.5375H20.0449V37.3716H16.8471V28.8715H20.0449V27.7055H23.2425V26.5395H26.4401V25.3735H31.5603V26.5395H34.7581V27.7055H37.9556V28.8715H41.1533V37.3716H37.9556V38.5375H34.7581V39.7037H31.5603V40.8696H26.4401V39.7037H23.2425Z" fill="#D91C16"/>
<path d="M23.9848 27.4028L23.1565 26.7767V27.9789L22.3634 28.4829L22.3614 27.7304L21.6007 28.4136L20.84 27.7304L20.838 28.4829L19.9591 27.9244V29.039L19.2488 29.5532L19.2468 28.8698L18.403 29.4809L17.5592 28.8698L17.5572 29.5532L16.7612 28.9769V32.3532H15.8288V33.8901H16.7612V37.2664L17.5572 36.69L17.5592 37.3736L18.403 36.7624L19.2467 37.3736L19.2488 36.69L19.959 37.2042V38.3189L20.8379 37.7604L20.84 38.513L21.6006 37.8297L22.3613 38.513L22.3634 37.7604L23.1564 38.2643V39.4666L23.9847 38.8406L23.9865 39.6802L24.7982 38.9543L25.61 39.6802L25.6118 38.8406L26.3543 39.4018V40.684L27.4646 39.672V40.8612L29.0001 39.874L30.5357 40.8612V39.672L31.646 40.684V39.4018L32.3884 38.8406L32.3902 39.6802L33.202 38.9543L34.0138 39.6802L34.0156 38.8406L34.8436 39.4666V38.2643L35.6369 37.7604L35.6389 38.513L36.3997 37.8297L37.1604 38.513L37.1624 37.7604L38.0414 38.3189V37.2042L38.7517 36.69L38.7537 37.3736L39.5974 36.7624L40.4412 37.3736L40.4432 36.69L41.2392 37.2663V33.8901H42.1716V32.3532H41.2392V28.9769L40.4432 29.5532L40.4412 28.8698L39.5974 29.4809L38.7536 28.8698L38.7518 29.5532L38.0415 29.039V27.9244L37.1625 28.4829L37.1605 27.7304L36.3998 28.4136L35.639 27.7304L35.637 28.4829L34.8437 27.9788V26.7767L34.0157 27.4026L34.0139 26.563L33.2021 27.289L32.3903 26.563L32.3885 27.4028L31.646 26.8413V25.5593L30.5358 26.5713V25.3821L29.0002 26.3693L27.4646 25.3821V26.5713L26.3544 25.5593V26.8414L25.6118 27.4028L25.61 26.563L24.7982 27.289L23.9866 26.563L23.9848 27.4028Z" fill="black"/>
<path d="M17.6427 29.7209L17.6447 29.0374L18.4033 29.5868L18.4288 29.5682L19.1618 29.0374L19.1638 29.7209L19.9594 29.145V37.0986L19.1638 36.5227L19.1618 37.2062L18.4033 36.6568L17.6447 37.2062L17.6427 36.5227L16.8471 37.0986V33.8045H15.9147V32.4391H16.8471V29.145L17.6427 29.7209Z" fill="#1E9A1C"/>
<path d="M24.0719 26.7544L24.7984 27.4041L25.5249 26.7544L25.5267 27.5748L26.3544 26.949V39.2945L25.5267 38.6687L25.5249 39.4892L24.7984 38.8395L24.0719 39.4892L24.0703 38.6687L23.2426 39.2945V26.949L24.0703 27.5748L24.0719 26.7544Z" fill="#1E9A1C"/>
<path d="M33.9289 26.7544L33.2024 27.4041L32.4759 26.7544L32.4741 27.5748L31.6465 26.949V39.2945L32.4741 38.6687L32.4759 39.4892L33.2024 38.8395L33.9289 39.4892L33.9307 38.6687L34.7584 39.2945V26.949L33.9307 27.5748L33.9289 26.7544Z" fill="#1E9A1C"/>
<path d="M40.358 29.7209L40.356 29.0374L39.5974 29.5868L39.5718 29.5682L38.8388 29.0374L38.8368 29.7209L38.0413 29.145V37.0986L38.8368 36.5227L38.8388 37.2062L39.5974 36.6568L40.356 37.2062L40.358 36.5227L41.1534 37.0986V33.8045H42.0858V32.4391H41.1534V29.145L40.358 29.7209Z" fill="#1E9A1C"/>
<path d="M20.9251 27.9221L21.6006 28.529L22.2761 27.9221L22.2781 28.6388L23.1566 28.0804V38.1629L22.2781 37.6047L22.2761 38.3212L21.6006 37.7145L20.9251 38.3212L20.9231 37.6047L20.0446 38.1629V28.0804L20.9231 28.6388L20.9251 27.9221Z" fill="#FDD406"/>
<path d="M27.5501 26.7653L26.4399 25.7534V40.4899L27.5501 39.4779V40.7042L28.9998 39.7721H29.0001L30.4498 40.7042V39.4779L31.56 40.4899V25.7534L30.4498 26.7653V25.5391L29.0001 26.4711H28.9998L27.5501 25.5391V26.7653Z" fill="#FDD406"/>
<path d="M37.0753 27.9221L36.3998 28.529L35.7242 27.9221L35.7224 28.6388L34.8438 28.0804V38.1629L35.7224 37.6047L35.7242 38.3212L36.3998 37.7145L37.0753 38.3212L37.0773 37.6047L37.9558 38.1629V28.0804L37.0773 28.6388L37.0753 27.9221Z" fill="#FDD406"/>
<path d="M18.0581 31.6732C18.1552 31.7712 18.2713 31.8207 18.403 31.8207C18.5347 31.8207 18.6507 31.7712 18.7479 31.6732C19.0516 31.3672 19.0618 30.8138 19.0588 30.4155C19.0588 30.4155 18.7077 30.7866 18.6443 30.8535C18.6002 30.7772 18.403 30.4368 18.403 30.4368C18.403 30.4368 18.2059 30.7772 18.1616 30.8535C18.0982 30.7866 17.7471 30.4155 17.7471 30.4155C17.7441 30.8138 17.7544 31.3672 18.0581 31.6732Z" fill="black"/>
<path d="M21.3939 30.816L21.1381 30.5604V30.0511L20.5505 30.5956L21.6008 31.6459L22.651 30.5956L22.0635 30.0511V30.5604L21.8078 30.816V29.9137L22.2608 29.5248L21.6008 28.958L20.9408 29.5248L21.3939 29.9137V30.816Z" fill="black"/>
<path d="M24.5913 29.804L24.3356 29.5483V29.039L23.748 29.5836L24.7983 30.6338L25.8485 29.5836L25.261 29.039V29.5483L25.0052 29.804V28.9016L25.4583 28.5127L24.7983 27.946L24.1383 28.5127L24.5913 28.9016V29.804Z" fill="black"/>
<path d="M18.4033 30.6079C18.4558 30.6984 18.628 30.9959 18.628 30.9959C18.628 30.9959 18.8706 30.7393 18.9697 30.6348C18.9578 31.0846 18.8591 31.4399 18.6874 31.6128C18.6068 31.6939 18.5113 31.7351 18.4033 31.7351C18.2952 31.7351 18.1997 31.6939 18.1193 31.6129C17.9476 31.4399 17.8488 31.0846 17.8369 30.6348C17.9359 30.7394 18.1786 30.9959 18.1786 30.9959C18.2534 30.8665 18.3284 30.7372 18.4033 30.6079Z" fill="white"/>
<path d="M24.9195 28.8624V30.011L25.3467 29.5839V29.2354L25.725 29.5861L24.7983 30.5127L23.8716 29.5861L24.2498 29.2354V29.5839L24.677 30.011V28.8624L24.2699 28.5128L24.7983 28.0591L25.3267 28.5128L24.9195 28.8624Z" fill="white"/>
<path d="M21.7219 29.8743V31.023L22.1491 30.5958V30.2474L22.5273 30.5979L21.6006 31.5247L20.674 30.5979L21.0522 30.2474V30.5958L21.4794 31.023V29.8743L21.0722 29.5248L21.6006 29.071L22.1291 29.5248L21.7219 29.8743Z" fill="#D91C16"/>
<path d="M39.942 31.673C39.8449 31.7709 39.7289 31.8205 39.5971 31.8205C39.4655 31.8205 39.3494 31.7709 39.2522 31.673C38.9485 31.367 38.9383 30.8136 38.9413 30.4153C38.9413 30.4153 39.2924 30.7863 39.3558 30.8533C39.3999 30.777 39.5971 30.4365 39.5971 30.4365C39.5971 30.4365 39.7943 30.777 39.8385 30.8533C39.9019 30.7863 40.253 30.4153 40.253 30.4153C40.256 30.8136 40.2457 31.367 39.942 31.673Z" fill="black"/>
<path d="M36.6063 30.8157L36.8622 30.5601V30.0508L37.4497 30.5954L36.3995 31.6456L35.3492 30.5954L35.9367 30.0508V30.5601L36.1925 30.8157V29.9134L35.7395 29.5245L36.3995 28.9578L37.0595 29.5245L36.6063 29.9134V30.8157Z" fill="black"/>
<path d="M33.409 29.8038L33.6647 29.548V29.0388L34.2522 29.5833L33.202 30.6336L32.1517 29.5833L32.7392 29.0388V29.548L32.9951 29.8038V28.9014L32.542 28.5124L33.202 27.9458L33.862 28.5124L33.409 28.9014V29.8038Z" fill="black"/>
<path d="M39.597 30.6077C39.5445 30.6981 39.3724 30.9956 39.3724 30.9956C39.3724 30.9956 39.1297 30.7391 39.0306 30.6345C39.0425 31.0843 39.1412 31.4396 39.3129 31.6125C39.3935 31.6937 39.489 31.7348 39.597 31.7348C39.7051 31.7348 39.8006 31.6937 39.881 31.6127C40.0527 31.4396 40.1515 31.0843 40.1634 30.6345C40.0644 30.7392 39.8217 30.9956 39.8217 30.9956C39.7469 30.8663 39.6719 30.7369 39.597 30.6077Z" fill="white"/>
<path d="M33.0806 28.8621V30.0108L32.6534 29.5837V29.2352L32.2751 29.5858L33.2018 30.5125L34.1285 29.5858L33.7503 29.2352V29.5837L33.3231 30.0108V28.8621L33.7303 28.5126L33.2018 28.0588L32.6734 28.5126L33.0806 28.8621Z" fill="white"/>
<path d="M36.2781 29.8741V31.0227L35.8509 30.5955V30.2472L35.4727 30.5977L36.3995 31.5244L37.3261 30.5977L36.9479 30.2472V30.5955L36.5207 31.0227V29.8741L36.9278 29.5245L36.3995 29.0708L35.871 29.5245L36.2781 29.8741Z" fill="#D91C16"/>
<path d="M30.2569 30.1873L29.9129 29.7119L30.7951 28.8974L29.9725 28.2216V28.7004L29.6285 28.9947V28.1263L30.4056 27.5535L28.9998 26.5173L27.594 27.5535L28.3712 28.1263V28.9947L28.0272 28.7004V28.2216L27.2045 28.8974L28.0868 29.7119L27.7428 30.1873H30.2569Z" fill="black"/>
<path d="M27.9111 30.1017L28.2013 29.7006L27.3354 28.9014L27.9418 28.4031V28.74L28.4573 29.1811V28.0831L27.7389 27.5537L29.0002 26.624L30.2615 27.5537L29.5432 28.0831V29.1811L30.0586 28.74V28.4031L30.6651 28.9014L29.7993 29.7006L30.0896 30.1017H27.9111Z" fill="#D91C16"/>
<path d="M28.3575 27.5536L28.9999 28.027L29.6424 27.5536L28.9999 27.0801L28.9745 27.0989L28.3575 27.5536Z" fill="black"/>
<path d="M29.0001 27.1868C29.0426 27.218 29.423 27.4984 29.4981 27.5537C29.423 27.609 29.0426 27.8895 29.0001 27.9207C28.9577 27.8895 28.5772 27.609 28.5022 27.5537C28.5772 27.4984 28.9577 27.218 29.0001 27.1868Z" fill="#1E9A1C"/>
<path d="M18.0581 34.5699C18.1552 34.472 18.2713 34.4224 18.403 34.4224C18.5347 34.4224 18.6507 34.472 18.7479 34.5699C19.0516 34.8759 19.0618 35.4294 19.0588 35.8276C19.0588 35.8276 18.7077 35.4566 18.6443 35.3896C18.6002 35.466 18.403 35.8064 18.403 35.8064C18.403 35.8064 18.2059 35.466 18.1616 35.3896C18.0982 35.4566 17.7471 35.8276 17.7471 35.8276C17.7441 35.4294 17.7544 34.8759 18.0581 34.5699Z" fill="black"/>
<path d="M21.3939 35.4272L21.1381 35.6828V36.1921L20.5505 35.6475L21.6008 34.5973L22.651 35.6475L22.0635 36.1921V35.6828L21.8078 35.4272V36.3295L22.2608 36.7184L21.6008 37.2852L20.9408 36.7184L21.3939 36.3295V35.4272Z" fill="black"/>
<path d="M24.5913 36.4392L24.3356 36.6949V37.2042L23.748 36.6596L24.7983 35.6094L25.8485 36.6596L25.261 37.2042V36.6949L25.0052 36.4392V37.3416L25.4583 37.7305L24.7983 38.2971L24.1383 37.7305L24.5913 37.3416V36.4392Z" fill="black"/>
<path d="M18.4033 35.6353C18.4558 35.5448 18.628 35.2473 18.628 35.2473C18.628 35.2473 18.8706 35.5039 18.9697 35.6084C18.9578 35.1586 18.8591 34.8033 18.6874 34.6304C18.6068 34.5493 18.5113 34.5081 18.4033 34.5081C18.2952 34.5081 18.1997 34.5493 18.1193 34.6303C17.9476 34.8033 17.8488 35.1586 17.8369 35.6084C17.9359 35.5037 18.1786 35.2473 18.1786 35.2473C18.2534 35.3767 18.3284 35.506 18.4033 35.6353Z" fill="white"/>
<path d="M24.9195 37.3808V36.2322L25.3467 36.6592V37.0077L25.725 36.6571L24.7983 35.7304L23.8716 36.6571L24.2498 37.0077V36.6592L24.677 36.2322V37.3808L24.2699 37.7304L24.7983 38.1841L25.3267 37.7304L24.9195 37.3808Z" fill="white"/>
<path d="M21.7219 36.3688V35.2202L22.1491 35.6474V35.9958L22.5273 35.6452L21.6006 34.7185L20.674 35.6452L21.0522 35.9958V35.6474L21.4794 35.2202V36.3688L21.0722 36.7184L21.6006 37.1721L22.1291 36.7184L21.7219 36.3688Z" fill="#D91C16"/>
<path d="M39.942 34.5702C39.8449 34.4722 39.7289 34.4227 39.5971 34.4227C39.4655 34.4227 39.3494 34.4722 39.2522 34.5702C38.9485 34.8762 38.9383 35.4296 38.9413 35.8279C38.9413 35.8279 39.2924 35.4568 39.3558 35.3899C39.3999 35.4662 39.5971 35.8066 39.5971 35.8066C39.5971 35.8066 39.7943 35.4662 39.8385 35.3899C39.9019 35.4568 40.253 35.8279 40.253 35.8279C40.256 35.4296 40.2457 34.8762 39.942 34.5702Z" fill="black"/>
<path d="M36.6063 35.4274L36.8622 35.683V36.1923L37.4497 35.6478L36.3995 34.5975L35.3492 35.6478L35.9367 36.1923V35.683L36.1925 35.4274V36.3297L35.7395 36.7186L36.3995 37.2854L37.0595 36.7186L36.6063 36.3297V35.4274Z" fill="black"/>
<path d="M33.409 36.4394L33.6647 36.6951V37.2044L34.2522 36.6598L33.202 35.6096L32.1517 36.6598L32.7392 37.2044V36.6951L32.9951 36.4394V37.3418L32.542 37.7307L33.202 38.2974L33.862 37.7307L33.409 37.3418V36.4394Z" fill="black"/>
<path d="M39.597 35.6355C39.5445 35.545 39.3724 35.2475 39.3724 35.2475C39.3724 35.2475 39.1297 35.5041 39.0306 35.6086C39.0425 35.1589 39.1412 34.8035 39.3129 34.6306C39.3935 34.5495 39.489 34.5083 39.597 34.5083C39.7051 34.5083 39.8006 34.5495 39.881 34.6305C40.0527 34.8035 40.1515 35.1589 40.1634 35.6086C40.0644 35.504 39.8217 35.2475 39.8217 35.2475C39.7469 35.3769 39.6719 35.5063 39.597 35.6355Z" fill="white"/>
<path d="M33.0806 37.381V36.2324L32.6534 36.6595V37.008L32.2751 36.6573L33.2018 35.7307L34.1285 36.6573L33.7503 37.008V36.6595L33.3231 36.2324V37.381L33.7303 37.7306L33.2018 38.1843L32.6734 37.7306L33.0806 37.381Z" fill="white"/>
<path d="M36.2781 36.3691V35.2204L35.8509 35.6476V35.996L35.4727 35.6455L36.3995 34.7187L37.3261 35.6455L36.9479 35.996V35.6476L36.5207 35.2204V36.3691L36.9278 36.7186L36.3995 37.1724L35.871 36.7186L36.2781 36.3691Z" fill="#D91C16"/>
<path d="M30.2569 36.0559L29.9129 36.5313L30.7951 37.3458L29.9725 38.0216V37.5428L29.6285 37.2484V38.1169L30.4056 38.6896L28.9998 39.7258L27.594 38.6896L28.3712 38.1169V37.2484L28.0272 37.5428V38.0216L27.2045 37.3458L28.0868 36.5313L27.7428 36.0559H30.2569Z" fill="black"/>
<path d="M27.9111 36.1414L28.2013 36.5426L27.3354 37.3418L27.9418 37.84V37.5032L28.4573 37.0621V38.1601L27.7389 38.6895L29.0002 39.6191L30.2615 38.6895L29.5432 38.1601V37.0621L30.0586 37.5032V37.84L30.6651 37.3418L29.7993 36.5426L30.0896 36.1414H27.9111Z" fill="#D91C16"/>
<path d="M28.3575 38.6896L28.9999 38.2162L29.6424 38.6896L28.9999 39.1631L28.9745 39.1442L28.3575 38.6896Z" fill="black"/>
<path d="M29.0001 39.0564C29.0426 39.0252 29.423 38.7448 29.4981 38.6894C29.423 38.6341 29.0426 38.3537 29.0001 38.3225C28.9577 38.3537 28.5772 38.6341 28.5022 38.6894C28.5772 38.7448 28.9577 39.0252 29.0001 39.0564Z" fill="#1E9A1C"/>
<path d="M40.3812 32.63H38.9737V32.069H34.6716L31.6767 30.1018H31.664H26.3238L23.329 32.069H19.0268V32.63H17.6193V33.6135H19.0268V34.1745H23.329L26.3238 36.1418H31.6767L34.6716 34.1745H38.9737V33.6135H40.3812V32.63Z" fill="black"/>
<path d="M26.3491 30.1904L23.3512 32.1502H19.1139V32.7116H17.705V33.5273H19.1139V34.0887H23.3512L26.3491 36.0591H31.6563L34.6435 34.0887H38.8914V33.5273H40.3003V32.7116H38.8914V32.1502H34.6435L31.6563 30.1904H26.3491ZM26.4126 30.4764H31.5821L34.3258 32.2773V32.5527H37.3872V33.6968H34.3258V33.9722L31.5821 35.7625H26.4126L23.6796 33.9722V33.6968H20.6076V32.5527H23.6796V32.2773L26.4126 30.4764Z" fill="#D91C16"/>
<path d="M31.5604 30.5652L34.2362 32.3219V32.6336H37.3026V33.6097H34.2362V33.9216L31.5604 35.6783H26.4396L23.7638 33.9216V33.6097H20.6974V32.6336H23.7638V32.3219L26.4396 30.5652H31.5604Z" fill="#D91C16"/>
<path d="M25.111 34.1195L26.2696 34.9893L27.0317 34.417L26.5886 34.0844L26.2696 34.324L25.9972 34.1195L30.3602 30.8438H29.4742L25.111 34.1195ZM27.64 35.3997H28.526L32.8892 32.1239L31.7308 31.2543L30.9685 31.8264L31.4116 32.1589L31.7308 31.9193L32.0032 32.1239L27.64 35.3997ZM29.4742 35.3997H30.3601L25.9972 32.1239L26.2696 31.9193L26.5886 32.1589L27.0317 31.8264L26.2696 31.2543L25.111 32.1239L29.4742 35.3997ZM32.0032 34.1195L31.7308 34.324L31.4116 34.0844L30.9685 34.417L31.7308 34.9893L32.8892 34.1195L28.526 30.8438H27.64L32.0032 34.1195Z" fill="black"/>
<path d="M24.2336 33.1217L25.0123 33.6389L25.7909 33.1217L25.0123 32.6045L24.2336 33.1217Z" fill="black"/>
<path d="M28.2216 33.1217L29.0002 33.6389L29.7789 33.1217L29.0002 32.6045L28.2216 33.1217Z" fill="black"/>
<path d="M33.7673 33.1217L32.9886 33.6389L32.21 33.1217L32.9886 32.6045L33.7673 33.1217Z" fill="black"/>
<path d="M32.7466 34.1194L31.7309 34.882L31.1113 34.4169L31.4117 34.1914L31.7309 34.431L32.146 34.1194L27.897 30.9294H28.4976L32.7466 34.1194ZM30.1033 35.3138H29.5029L25.2539 32.1238L26.2697 31.3612L26.889 31.8263L26.5888 32.0517L26.2697 31.812L25.8545 32.1238L30.1033 35.3138ZM28.4976 35.3138H27.897L32.146 32.1238L31.7309 31.812L31.4117 32.0517L31.1113 31.8263L31.7309 31.3612L32.7466 32.1238L28.4976 35.3138ZM29.5029 30.9294H30.1033L25.8545 34.1194L26.2697 34.431L26.5888 34.1914L26.889 34.4169L26.2697 34.882L25.2539 34.1194L29.5029 30.9294Z" fill="#FDD406"/>
<path d="M25.0122 32.7075L25.6359 33.1218L25.0122 33.536L24.3884 33.1218L25.0122 32.7075Z" fill="#1E9A1C"/>
<path d="M29.0004 32.7075L29.6242 33.1218L29.0004 33.536L28.3768 33.1218L29.0004 32.7075Z" fill="#1E9A1C"/>
<path d="M32.9887 32.7075L32.365 33.1218L32.9887 33.536L33.6124 33.1218L32.9887 32.7075Z" fill="#1E9A1C"/>
<path d="M15.3034 54.8301L14.9979 55.2622L15.5455 55.681L14.9977 56.0999L15.3033 56.532L15.9396 56.6059L16.5558 56.1298L18.0922 57.1057V56.2953L17.1252 55.681L18.0922 55.0668V54.2563L16.5558 55.2323L15.9396 54.7563L15.3034 54.8301Z" fill="black"/>
<path d="M15.3034 52.0146L14.9979 52.4469L15.5455 52.8657L14.9977 53.2845L15.3033 53.7167L15.9396 53.7905L16.5558 53.3144L18.0922 54.2904V53.4798L17.1252 52.8657L18.0922 52.2514V51.4409L16.5558 52.4169L15.9396 51.9408L15.3034 52.0146Z" fill="black"/>
<path d="M15.3034 59.3477L14.9979 58.9156L15.5455 58.4968L14.9977 58.0779L15.3033 57.6457L15.9396 57.5719L16.5558 58.048L18.0922 57.072V57.8825L17.1252 58.4968L18.0922 59.1109V59.9214L16.5558 58.9455L15.9396 59.4216L15.3034 59.3477Z" fill="black"/>
<path d="M42.6971 54.8301L43.0026 55.2622L42.455 55.681L43.0026 56.0999L42.6971 56.532L42.0609 56.6059L41.4447 56.1298L39.9082 57.1057V56.2953L40.8753 55.681L39.9082 55.0668V54.2563L41.4447 55.2323L42.0609 54.7563L42.6971 54.8301Z" fill="black"/>
<path d="M42.6971 52.0146L43.0026 52.4469L42.455 52.8657L43.0026 53.2845L42.6971 53.7167L42.0609 53.7905L41.4447 53.3144L39.9082 54.2904V53.4798L40.8753 52.8657L39.9082 52.2514V51.4409L41.4447 52.4169L42.0609 51.9408L42.6971 52.0146Z" fill="black"/>
<path d="M42.6971 59.3477L43.0026 58.9156L42.455 58.4968L43.0026 58.0779L42.6971 57.6457L42.0609 57.5719L41.4447 58.048L39.9082 57.072V57.8825L40.8753 58.4968L39.9082 59.1109V59.9214L41.4447 58.9455L42.0609 59.4216L42.6971 59.3477Z" fill="black"/>
<path d="M36.5461 47.146V48.3172H37.398V48.8348H38.2349V47.8923H37.4885V47.146H36.5461Z" fill="black"/>
<path d="M39.0572 48.9929V50.164H39.9082V50.6817H40.746V49.7392H39.9997V48.9929H39.0572Z" fill="black"/>
<path d="M21.4544 47.146V48.3172H20.6023V48.8348H19.7656V47.8923H20.5119V47.146H21.4544Z" fill="black"/>
<path d="M36.5461 64.2166V63.0454H37.398V62.5278H38.2349V63.4702H37.4885V64.2166H36.5461Z" fill="black"/>
<path d="M21.4544 64.2166V63.0454H20.6023V62.5278H19.7656V63.4702H20.5119V64.2166H21.4544Z" fill="black"/>
<path d="M39.0572 62.3697V61.1986H39.9082V60.6809H40.746V61.6233H39.9997V62.3697H39.0572Z" fill="black"/>
<path d="M18.9434 48.9929V50.164H18.0921V50.6817H17.2546V49.7392H18.0009V48.9929H18.9434Z" fill="black"/>
<path d="M18.9434 62.3697V61.1986H18.0921V60.6809H17.2546V61.6233H18.0009V62.3697H18.9434Z" fill="black"/>
<path d="M32.1512 47.1187C32.0968 47.0659 31.501 46.4875 31.501 46.4875L30.8624 47.0793C30.8624 47.0793 31.3628 47.5649 31.4191 47.6196L30.7005 48.3172H31.7673L32.1512 47.9445L32.5351 48.3172H33.6017L32.8832 47.6196C32.9395 47.5649 33.4397 47.0793 33.4397 47.0793L32.8012 46.4875C32.5843 46.6977 32.3678 46.9083 32.1512 47.1187Z" fill="black"/>
<path d="M29.0002 47.1187C28.9459 47.0659 28.3501 46.4875 28.3501 46.4875L27.7115 47.0793C27.7115 47.0793 28.2118 47.5649 28.2682 47.6196L27.5496 48.3172H28.6163L29.0002 47.9445L29.3841 48.3172H30.4507L29.7323 47.6196C29.7886 47.5649 30.2889 47.0793 30.2889 47.0793L29.6503 46.4875C29.4334 46.6977 29.2169 46.9083 29.0002 47.1187Z" fill="black"/>
<path d="M25.8494 47.1187C25.9037 47.0659 26.4995 46.4875 26.4995 46.4875L27.1382 47.0793C27.1382 47.0793 26.6378 47.5649 26.5815 47.6196L27.3 48.3172H26.2332L25.8494 47.9445L25.4655 48.3172H24.3988L25.1174 47.6196C25.0611 47.5649 24.5607 47.0793 24.5607 47.0793L25.1993 46.4875C25.4163 46.6977 25.6328 46.9083 25.8494 47.1187Z" fill="black"/>
<path d="M32.1512 64.2438C32.0968 64.2965 31.501 64.8749 31.501 64.8749L30.8624 64.2832C30.8624 64.2832 31.3628 63.7977 31.4191 63.743L30.7005 63.0454H31.7673L32.1512 63.4181L32.5351 63.0454H33.6017L32.8832 63.743C32.9395 63.7977 33.4397 64.2832 33.4397 64.2832L32.8012 64.8749C32.5843 64.6648 32.3678 64.4542 32.1512 64.2438Z" fill="black"/>
<path d="M29.0002 64.2438C28.9459 64.2965 28.3501 64.8749 28.3501 64.8749L27.7115 64.2832C27.7115 64.2832 28.2118 63.7977 28.2682 63.743L27.5496 63.0454H28.6163L29.0002 63.4181L29.3841 63.0454H30.4507L29.7323 63.743C29.7886 63.7977 30.2889 64.2832 30.2889 64.2832L29.6503 64.8749C29.4334 64.6648 29.2169 64.4542 29.0002 64.2438Z" fill="black"/>
<path d="M25.8494 64.2438C25.9037 64.2965 26.4995 64.8749 26.4995 64.8749L27.1382 64.2832C27.1382 64.2832 26.6378 63.7977 26.5815 63.743L27.3 63.0454H26.2332L25.8494 63.4181L25.4655 63.0454H24.3988L25.1174 63.743C25.0611 63.7977 24.5607 64.2832 24.5607 64.2832L25.1993 64.8749C25.4163 64.6648 25.6328 64.4542 25.8494 64.2438Z" fill="black"/>
<path d="M18.0065 56.3424V56.9498L16.5509 56.0252L15.9147 56.5168L15.3511 56.4514L15.1154 56.1179L15.6866 55.6811L15.1154 55.2443L15.3512 54.9108L15.9147 54.8454L16.5509 55.337L18.0065 54.4124V55.0197L16.9652 55.6811L18.0065 56.3424Z" fill="#1E9A1C"/>
<path d="M18.0065 53.5269V54.1343L16.5509 53.2097L15.9147 53.7012L15.3511 53.6358L15.1154 53.3024L15.6866 52.8656L15.1154 52.4289L15.3512 52.0954L15.9147 52.0299L16.5509 52.5214L18.0065 51.5969V52.2042L16.9652 52.8656L18.0065 53.5269Z" fill="#1E9A1C"/>
<path d="M18.0065 57.8356V57.2283L16.5509 58.1529L15.9147 57.6612L15.3511 57.7266L15.1154 58.0601L15.6866 58.4969L15.1154 58.9337L15.3512 59.2672L15.9147 59.3326L16.5509 58.8411L18.0065 59.7657V59.1584L16.9652 58.4969L18.0065 57.8356Z" fill="#1E9A1C"/>
<path d="M39.9941 56.3424V56.9498L41.4497 56.0252L42.0857 56.5168L42.6493 56.4514L42.885 56.1179L42.3138 55.6811L42.885 55.2443L42.6493 54.9108L42.0857 54.8454L41.4497 55.337L39.9941 54.4124V55.0197L41.0352 55.6811L39.9941 56.3424Z" fill="#1E9A1C"/>
<path d="M39.9941 53.5269V54.1343L41.4497 53.2097L42.0857 53.7012L42.6493 53.6358L42.885 53.3024L42.3138 52.8656L42.885 52.4289L42.6493 52.0954L42.0857 52.0299L41.4497 52.5214L39.9941 51.5969V52.2042L41.0352 52.8656L39.9941 53.5269Z" fill="#1E9A1C"/>
<path d="M39.9941 57.8356V57.2283L41.4497 58.1529L42.0857 57.6612L42.6493 57.7266L42.885 58.0601L42.3138 58.4969L42.885 58.9337L42.6493 59.2672L42.0857 59.3326L41.4497 58.8411L39.9941 59.7657V59.1584L41.0352 58.4969L39.9941 57.8356Z" fill="#1E9A1C"/>
<path d="M37.4028 47.2317V47.9781H38.1491V48.7491H37.4838V48.2315H36.6318V47.2317H37.4028Z" fill="#1E9A1C"/>
<path d="M39.9139 49.0786V49.8249H40.6602V50.596H39.9948V50.0785H39.1429V49.0786H39.9139Z" fill="#1E9A1C"/>
<path d="M20.5978 47.2317V47.9781H19.8516V48.7491H20.517V48.2315H21.3688V47.2317H20.5978Z" fill="#1E9A1C"/>
<path d="M37.4028 64.1306V63.3843H38.1491V62.6133H37.4838V63.1308H36.6318V64.1306H37.4028Z" fill="#1E9A1C"/>
<path d="M20.5977 64.1306V63.3843H19.8513V62.6133H20.5167V63.1308H21.3687V64.1306H20.5977Z" fill="#1E9A1C"/>
<path d="M39.9139 62.2836V61.5374H40.6602V60.7664H39.9948V61.2839H39.1429V62.2836H39.9139Z" fill="#1E9A1C"/>
<path d="M18.0867 49.0786V49.8249H17.3404V50.596H18.0058V50.0785H18.8577V49.0786H18.0867Z" fill="#1E9A1C"/>
<path d="M18.0869 62.2836V61.5374H17.3405V60.7664H18.0059V61.2839H18.8579V62.2836H18.0869Z" fill="#1E9A1C"/>
<path d="M31.4999 46.6057C31.553 46.6573 32.1513 47.2381 32.1513 47.2381C32.1513 47.2381 32.7495 46.6573 32.8027 46.6057C32.8531 46.6523 33.2598 47.0291 33.3155 47.0807C33.2579 47.1365 32.7602 47.6196 32.7602 47.6196L33.3905 48.2315H32.57L32.1513 47.8249L31.7326 48.2315H30.9121L31.5424 47.6196C31.5424 47.6196 31.0447 47.1365 30.9871 47.0807C31.0428 47.0291 31.4495 46.6523 31.4999 46.6057Z" fill="#1E9A1C"/>
<path d="M28.3489 46.6057C28.402 46.6573 29.0002 47.2381 29.0002 47.2381C29.0002 47.2381 29.5984 46.6573 29.6517 46.6057C29.7021 46.6523 30.1087 47.0291 30.1643 47.0807C30.1069 47.1365 29.6092 47.6196 29.6092 47.6196L30.2395 48.2315H29.4189L29.0002 47.8249L28.5815 48.2315H27.761L28.3912 47.6196C28.3912 47.6196 27.8936 47.1365 27.8361 47.0807C27.8918 47.0291 28.2985 46.6523 28.3489 46.6057Z" fill="#1E9A1C"/>
<path d="M26.5012 46.6057C26.4479 46.6573 25.8497 47.2381 25.8497 47.2381C25.8497 47.2381 25.2515 46.6573 25.1984 46.6057C25.148 46.6523 24.7413 47.0291 24.6856 47.0807C24.7432 47.1365 25.2408 47.6196 25.2408 47.6196L24.6106 48.2315H25.431L25.8497 47.8249L26.2685 48.2315H27.089L26.4587 47.6196C26.4587 47.6196 26.9564 47.1365 27.014 47.0807C26.9583 47.0291 26.5516 46.6523 26.5012 46.6057Z" fill="#1E9A1C"/>
<path d="M31.4999 64.7566C31.553 64.7049 32.1513 64.1241 32.1513 64.1241C32.1513 64.1241 32.7495 64.7049 32.8027 64.7566C32.8531 64.7099 33.2598 64.3331 33.3155 64.2817C33.2579 64.2257 32.7602 63.7427 32.7602 63.7427L33.3905 63.1309H32.57L32.1513 63.5373L31.7326 63.1309H30.9121L31.5424 63.7427C31.5424 63.7427 31.0447 64.2257 30.9871 64.2817C31.0428 64.3331 31.4495 64.7099 31.4999 64.7566Z" fill="#1E9A1C"/>
<path d="M28.3489 64.7566C28.402 64.7049 29.0002 64.1241 29.0002 64.1241C29.0002 64.1241 29.5984 64.7049 29.6517 64.7566C29.7021 64.7099 30.1087 64.3331 30.1643 64.2817C30.1069 64.2257 29.6092 63.7427 29.6092 63.7427L30.2395 63.1309H29.4189L29.0002 63.5373L28.5815 63.1309H27.761L28.3912 63.7427C28.3912 63.7427 27.8936 64.2257 27.8361 64.2817C27.8918 64.3331 28.2985 64.7099 28.3489 64.7566Z" fill="#1E9A1C"/>
<path d="M26.5012 64.7566C26.4479 64.7049 25.8497 64.1241 25.8497 64.1241C25.8497 64.1241 25.2515 64.7049 25.1984 64.7566C25.148 64.7099 24.7413 64.3331 24.6856 64.2817C24.7432 64.2257 25.2408 63.7427 25.2408 63.7427L24.6106 63.1309H25.431L25.8497 63.5373L26.2685 63.1309H27.089L26.4587 63.7427C26.4587 63.7427 26.9564 64.2257 27.014 64.2817C26.9583 64.3331 26.5516 64.7099 26.5012 64.7566Z" fill="#1E9A1C"/>
<path d="M20.5167 61.2841V63.1309H37.4839V61.2841H39.994V50.0782H37.4839V48.2314H20.5167V50.0782H18.0065V61.2841H20.5167Z" fill="black"/>
<path d="M20.6074 48.3155V50.1589H18.0969V61.1969H20.6074V63.0403H37.3976V61.1969H39.9084V50.1588H37.3976V48.3154L20.6074 48.3155ZM21.688 49.0254H36.3173V50.805L36.921 51.2501H39.1986V60.1165H36.9105L36.3173 60.5508V62.341H21.688V60.5613L21.0841 60.1165H18.796V51.2501H21.0736L21.688 50.805L21.688 49.0254Z" fill="#FDD406"/>
<path d="M21.7727 49.1101V50.7416L23.9761 49.1101H21.7727ZM34.0183 49.1101L36.2217 50.7416V49.1101H34.0183ZM18.8914 51.3349V52.8603L20.9676 51.3349H18.8914ZM37.0271 51.3349L39.1139 52.8708V51.3349H37.0271ZM39.1139 58.485L37.0271 60.0318H39.1139V58.485ZM18.8913 58.4955V60.0318H20.9676L18.8913 58.4955ZM21.7727 60.625V62.2457H23.9654L21.7727 60.625ZM36.2216 60.625L34.0291 62.2457H36.2216V60.625Z" fill="#D91C16"/>
<path d="M33.876 49.1118C33.8985 49.1284 39.0791 52.9547 39.1135 52.9801V58.3822C39.0791 58.4077 33.8985 62.2339 33.876 62.2506H24.1241C24.1016 62.2339 18.9211 58.4077 18.8867 58.3822V52.9801C18.9211 52.9547 24.1016 49.1284 24.1241 49.1118H33.876Z" fill="#1E9A1C"/>
<path d="M20.1341 59.0042L19.5319 58.3053L20.0972 57.6493L19.5319 56.9932L20.0972 56.3373L19.5319 55.6813L20.0972 55.0252L19.5319 54.3692L20.0971 53.7131L19.5319 53.0571L20.1341 52.3583H37.8664L38.4685 53.0571L37.9032 53.7131L38.4685 54.3692L37.9032 55.0252L38.4685 55.6813L37.9032 56.3373L38.4685 56.9932L37.9032 57.6493L38.4685 58.3053L37.8664 59.0042H20.1341ZM32.3232 49.9569L31.6243 49.3547L30.9682 49.9201L30.3122 49.3547L29.6562 49.9201L29.0002 49.3547L28.3441 49.9201L27.6881 49.3547L27.0322 49.9201L26.3761 49.3547L25.6772 49.9569V61.4055L26.3761 62.0078L27.0322 61.4425L27.6881 62.0077L28.3441 61.4423L29.0002 62.0077L29.6562 61.4423L30.3122 62.0077L30.9682 61.4425L31.6243 62.0078L32.3232 61.4055V49.9569Z" fill="black"/>
<path d="M30.9252 49.9961L30.3121 49.4678L29.6989 49.9961V61.3661L30.3121 61.8944L30.9252 61.3661V49.9961Z" fill="#FDD406"/>
<path d="M28.3012 49.9961L27.688 49.4678L27.0749 49.9961V61.3661L27.688 61.8944L28.3012 61.3661V49.9961Z" fill="#FDD406"/>
<path d="M20.1732 58.9185L19.645 58.3053L20.1732 57.6921H37.827L38.3552 58.3053L37.827 58.9185H20.1732Z" fill="#FDD406"/>
<path d="M37.827 55.0679L38.3554 55.6811L37.827 56.2942H20.1734L19.6451 55.6811L20.1734 55.0679H37.827Z" fill="#FDD406"/>
<path d="M37.827 53.6704L38.3552 53.0572L37.827 52.4441H20.1732L19.645 53.0572L20.1732 53.6704H37.827Z" fill="#FDD406"/>
<path d="M32.2376 49.9961L31.6245 49.4678L31.0113 49.9961V61.3661L31.6245 61.8944L32.2374 61.3662L32.2376 49.9961Z" fill="#D91C16"/>
<path d="M26.9893 49.9961L26.3761 49.4678L25.7629 49.9961V61.3661L26.3761 61.8944L26.9893 61.3661V49.9961Z" fill="#D91C16"/>
<path d="M20.1736 57.6063L19.6452 56.9931L20.1736 56.3799H37.8271L38.3555 56.9931L37.8271 57.6063H20.1736Z" fill="#D91C16"/>
<path d="M20.1736 54.9823L19.6452 54.3691L20.1736 53.7559H37.8271L38.3555 54.3691L37.8271 54.9823H20.1736Z" fill="#D91C16"/>
<path d="M29.6135 61.3661L29.0003 61.8944L28.3871 61.3661V49.9961L29.0003 49.4678L29.6135 49.9961V61.3661Z" fill="#D91C16"/>
<path d="M34.9268 50.218H23.0307V51.1628H21.5104V60.1997H23.0307V61.1444H34.9696V60.1997H36.4899V51.1628H34.9696V50.218H34.9268Z" fill="black"/>
<path d="M23.1181 50.3069V51.2499H21.5927V60.1164H23.1181V61.0591H24.3682L21.8788 58.9723V52.3937L24.3682 50.3069H23.1181ZM33.6374 50.3069L36.116 52.3937V58.9723L33.6374 61.0591H34.8872V60.1164H36.4021V51.2499H34.8872V50.3069L33.6374 50.3069Z" fill="#D91C16"/>
<path d="M24.5057 50.3069C24.4822 50.3267 21.9934 52.4109 21.9633 52.4361V58.9297C21.9934 58.9551 24.4822 61.0392 24.5057 61.059H33.4993C33.5229 61.0392 36.001 58.9549 36.0311 58.9297V52.4361C36.001 52.4109 33.523 50.3267 33.4993 50.3069H24.5057ZM24.6328 50.6671H33.3616L35.671 52.6056V58.7603L33.3616 60.6882H24.6328L22.3341 58.7603V52.6056L24.6328 50.6671Z" fill="#1E9A1C"/>
<path d="M26.9447 58.8577L27.3354 59.0265L27.4073 59.4829L26.9154 59.9156L27.6299 60.6064H26.9424L26.4509 60.1333L25.9593 60.6064H25.2718L25.9864 59.9156L25.4944 59.4829L25.5664 59.0265L25.957 58.8577L26.4509 59.2526L26.4777 59.2312L26.9447 58.8577Z" fill="#1E9A1C"/>
<path d="M29.4943 58.8577L29.8849 59.0265L29.9569 59.4829L29.465 59.9156L30.1795 60.6064H29.492L29.0003 60.1333L28.5088 60.6064H27.8212L28.5358 59.9156L28.0439 59.4829L28.1159 59.0265L28.5065 58.8577L29.0003 59.2526L29.0271 59.2312L29.4943 58.8577Z" fill="#1E9A1C"/>
<path d="M31.0561 58.8577L30.6655 59.0265L30.5935 59.4829L31.0854 59.9156L30.3709 60.6064H31.0584L31.55 60.1333L32.0415 60.6064H32.729L32.0146 59.9156L32.5064 59.4829L32.4344 59.0265L32.0438 58.8577L31.55 59.2526L31.5232 59.2312L31.0561 58.8577Z" fill="#1E9A1C"/>
<path d="M26.9447 52.5045L27.3354 52.3357L27.4073 51.8794L26.9154 51.4467L27.6299 50.7559H26.9424L26.4509 51.2289L25.9593 50.7559H25.2718L25.9864 51.4467L25.4944 51.8793L25.5664 52.3357L25.957 52.5045L26.4509 52.1097L26.4777 52.1311L26.9447 52.5045Z" fill="#1E9A1C"/>
<path d="M29.4943 52.5045L29.8849 52.3357L29.9569 51.8794L29.465 51.4467L30.1795 50.7559H29.492L29.0003 51.2289L28.5088 50.7559H27.8212L28.5358 51.4467L28.0439 51.8793L28.1159 52.3357L28.5065 52.5045L29.0003 52.1097L29.0271 52.1311L29.4943 52.5045Z" fill="#1E9A1C"/>
<path d="M31.0561 52.5045L30.6655 52.3357L30.5935 51.8794L31.0854 51.4467L30.3709 50.7559H31.0584L31.55 51.2289L32.0415 50.7559H32.729L32.0146 51.4467L32.5064 51.8793L32.4344 52.3357L32.0438 52.5045L31.55 52.1097L31.5232 52.1311L31.0561 52.5045Z" fill="#1E9A1C"/>
<path d="M35.5811 53.2332L35.1911 53.5561L35.5811 53.8789V54.4142L34.9813 53.92C34.9813 53.92 34.578 54.2854 34.5509 54.31C34.5163 54.3056 34.1278 54.2568 34.0894 54.252C34.0722 54.2204 33.9509 53.9968 33.9268 53.952C33.967 53.9119 34.324 53.5561 34.324 53.5561C34.324 53.5561 33.967 53.2002 33.9268 53.1601C33.9509 53.1154 34.0722 52.8916 34.0894 52.8601C34.1278 52.8553 34.5163 52.8064 34.5509 52.802C34.578 52.8266 34.9813 53.1922 34.9813 53.1922L35.5811 52.698V53.2332Z" fill="#1E9A1C"/>
<path d="M35.5811 55.3582L35.1911 55.6811L35.5811 56.0038V56.5392L34.9813 56.045C34.9813 56.045 34.578 56.4104 34.5509 56.435C34.5163 56.4306 34.1278 56.3817 34.0894 56.377C34.0722 56.3454 33.9509 56.1216 33.9268 56.077C33.967 56.0369 34.324 55.6811 34.324 55.6811C34.324 55.6811 33.967 55.3251 33.9268 55.285C33.9509 55.2404 34.0722 55.0166 34.0894 54.985C34.1278 54.9803 34.5163 54.9314 34.5509 54.927C34.578 54.9516 34.9813 55.317 34.9813 55.317L35.5811 54.823V55.3582Z" fill="#1E9A1C"/>
<path d="M35.5811 58.129L35.1911 57.8061L35.5811 57.4833V56.948L34.9813 57.4423C34.9813 57.4423 34.578 57.0768 34.5509 57.0522C34.5163 57.0565 34.1278 57.1054 34.0894 57.1101C34.0722 57.1417 33.9509 57.3655 33.9268 57.4101C33.967 57.4503 34.324 57.8061 34.324 57.8061C34.324 57.8061 33.967 58.162 33.9268 58.2021C33.9509 58.2468 34.0722 58.4706 34.0894 58.5021C34.1278 58.5069 34.5163 58.5558 34.5509 58.5601C34.578 58.5355 34.9813 58.1701 34.9813 58.1701L35.5811 58.6642V58.129Z" fill="#1E9A1C"/>
<path d="M22.4201 53.2332L22.81 53.5561L22.4201 53.8789V54.4142L23.0199 53.92C23.0199 53.92 23.4232 54.2854 23.4503 54.31C23.4847 54.3056 23.8734 54.2568 23.9118 54.252C23.929 54.2204 24.0502 53.9968 24.0744 53.952C24.0342 53.9119 23.6772 53.5561 23.6772 53.5561C23.6772 53.5561 24.0342 53.2002 24.0744 53.1601C24.0502 53.1154 23.929 52.8916 23.9118 52.8601C23.8734 52.8553 23.4847 52.8064 23.4503 52.802C23.4232 52.8266 23.0199 53.1922 23.0199 53.1922L22.4201 52.698V53.2332Z" fill="#1E9A1C"/>
<path d="M22.4201 55.3582L22.81 55.6811L22.4201 56.0038V56.5392L23.0199 56.045C23.0199 56.045 23.4232 56.4104 23.4503 56.435C23.4847 56.4306 23.8734 56.3817 23.9118 56.377C23.929 56.3454 24.0502 56.1216 24.0744 56.077C24.0342 56.0369 23.6772 55.6811 23.6772 55.6811C23.6772 55.6811 24.0342 55.3251 24.0744 55.285C24.0502 55.2404 23.929 55.0166 23.9118 54.985C23.8734 54.9803 23.4847 54.9314 23.4503 54.927C23.4232 54.9516 23.0199 55.317 23.0199 55.317L22.4201 54.823V55.3582Z" fill="#1E9A1C"/>
<path d="M22.4201 58.129L22.81 57.8061L22.4201 57.4833V56.948L23.0199 57.4423C23.0199 57.4423 23.4232 57.0768 23.4503 57.0522C23.4847 57.0565 23.8734 57.1054 23.9118 57.1101C23.929 57.1417 24.0502 57.3655 24.0744 57.4101C24.0342 57.4503 23.6772 57.8061 23.6772 57.8061C23.6772 57.8061 24.0342 58.162 24.0744 58.2021C24.0502 58.2468 23.929 58.4706 23.9118 58.5021C23.8734 58.5069 23.4847 58.5558 23.4503 58.5601C23.4232 58.5355 23.0199 58.1701 23.0199 58.1701L22.4201 58.6642V58.129Z" fill="#1E9A1C"/>
<path d="M24.6647 50.752C24.6415 50.7714 22.5442 52.5273 22.4507 52.6059C22.6397 52.7625 22.8226 52.9264 23.0121 53.0825C23.0601 53.0392 23.4252 52.7117 23.4252 52.7117L23.9655 52.7859L24.1774 53.1778C24.1774 53.1778 23.8478 53.5076 23.796 53.5592C23.8478 53.6106 24.1774 53.9405 24.1774 53.9405L23.9655 54.3325L23.4252 54.396C23.4252 54.396 23.0601 54.0793 23.0121 54.0359L22.4189 54.5337V54.7032C22.6185 54.8684 22.8118 55.0361 23.0121 55.2011C23.0601 55.1578 23.4252 54.8409 23.4252 54.8409L23.9655 54.9045L24.1774 55.2964C24.1774 55.2964 23.8478 55.6262 23.796 55.6778C23.8478 55.7293 24.1774 56.0592 24.1774 56.0592L23.9655 56.4617L23.4252 56.5253C23.4252 56.5253 23.0601 56.1979 23.0121 56.1545L22.4189 56.6524V56.8325L23.0121 57.3303C23.0601 57.287 23.4252 56.9596 23.4252 56.9596L23.9655 57.0337L24.1774 57.4257C24.1774 57.4257 23.8478 57.7554 23.796 57.807C23.8478 57.8586 24.1774 58.1884 24.1774 58.1884L23.9655 58.5803L23.4252 58.6545C23.4252 58.6545 23.0601 58.3272 23.0121 58.2837C22.8233 58.4392 22.639 58.5945 22.4507 58.7498C22.5442 58.8284 24.6415 60.5842 24.6646 60.6037H25.1519L25.8617 59.9151L25.4062 59.5125L25.4909 58.9617L25.9676 58.7604L26.4549 59.1418L26.9316 58.7604L27.4083 58.9617L27.5036 59.5125L27.0375 59.9151L27.7261 60.5719L28.4146 59.9151L27.9485 59.5125L28.0333 58.9617L28.5206 58.7604L28.9973 59.1418L29.4846 58.7604L29.9613 58.9617L30.046 59.5125L29.5905 59.9151L30.2685 60.5825L30.957 59.9151L30.5015 59.5125L30.5863 58.9617L31.0735 58.7604L31.5502 59.1418L32.0269 58.7604L32.5142 58.9617L32.599 59.5125L32.1435 59.9151L32.8532 60.6037H33.3299C33.353 60.5842 35.4502 58.8284 35.5439 58.7498C35.3552 58.5944 35.1714 58.4395 34.9824 58.2837C34.9344 58.3272 34.5799 58.6545 34.5799 58.6545L34.0396 58.5803L33.8172 58.1884C33.8172 58.1884 34.1468 57.8586 34.1985 57.807C34.1468 57.7554 33.8172 57.4257 33.8172 57.4257L34.0396 57.0337L34.5799 56.9596C34.5799 56.9596 34.9344 57.287 34.9824 57.3303L35.5757 56.8325V56.6524L34.9824 56.1545C34.9344 56.1979 34.5799 56.5253 34.5799 56.5253L34.0396 56.4617L33.8172 56.0592C33.8172 56.0592 34.1468 55.7293 34.1985 55.6778C34.1468 55.6262 33.8172 55.2964 33.8172 55.2964L34.0396 54.9045L34.5799 54.8409C34.5799 54.8409 34.9344 55.1578 34.9824 55.2011C35.1813 55.0373 35.3772 54.8771 35.5757 54.7138V54.5231L34.9824 54.0359C34.9344 54.0793 34.5799 54.396 34.5799 54.396L34.0396 54.3325L33.8172 53.9405C33.8172 53.9405 34.1468 53.6106 34.1985 53.5592C34.1468 53.5076 33.8172 53.1778 33.8172 53.1778L34.0396 52.7859L34.5799 52.7117C34.5799 52.7117 34.9344 53.0391 34.9824 53.0825C35.1723 52.9261 35.3647 52.7728 35.5545 52.6164C35.4815 52.5552 33.3532 50.7714 33.3299 50.752H32.8532L32.1434 51.4405L32.599 51.8431L32.5142 52.3939L32.0269 52.6058L31.5502 52.2244L31.0735 52.6058L30.5862 52.3939L30.5015 51.8431L30.957 51.4405L30.279 50.7837L29.5905 51.4405L30.046 51.8431L29.9612 52.3939L29.4846 52.6058L28.9973 52.2244L28.5206 52.6058L28.0333 52.3939L27.9485 51.8431L28.4146 51.4405L27.7261 50.7837L27.0375 51.4405L27.5036 51.8431L27.4083 52.3939L26.9316 52.6058L26.4549 52.2244L25.9676 52.6058L25.4909 52.3939L25.4062 51.8431L25.8617 51.4405L25.1413 50.752L24.6647 50.752ZM22.4189 55.466V55.9003L22.6731 55.6779L22.4189 55.466Z" fill="#D91C16"/>
<path d="M26.4549 60.2542L26.084 60.6036H26.8149L26.4549 60.2542Z" fill="white"/>
<path d="M28.9975 60.2542L28.6375 60.6036H29.3683L28.9975 60.2542Z" fill="white"/>
<path d="M31.5501 60.2542L31.1796 60.6036H31.9209L31.5501 60.2542Z" fill="white"/>
<path d="M26.0735 50.7522L26.4548 51.1122L26.8257 50.7522H26.0735Z" fill="white"/>
<path d="M28.6265 50.7522L28.9973 51.1122L29.3787 50.7522H28.6265Z" fill="white"/>
<path d="M31.1797 50.7522L31.5502 51.1122L31.921 50.7522H31.1797Z" fill="white"/>
<path d="M35.5757 53.3474L35.3215 53.5593L35.5757 53.7606V53.3474Z" fill="white"/>
<path d="M35.5757 55.4661L35.3215 55.6779L35.5757 55.8898V55.4661Z" fill="white"/>
<path d="M35.5757 57.5952L35.3215 57.8071L35.5757 58.0189V57.5952Z" fill="white"/>
<path d="M22.4189 53.3369V53.7712L22.6731 53.5593L22.4189 53.3369Z" fill="white"/>
<path d="M22.4189 55.4661V55.9003L22.6731 55.6779L22.4189 55.4661Z" fill="white"/>
<path d="M22.4189 57.5847V58.019L22.6731 57.8071L22.4189 57.5847Z" fill="white"/>
<path d="M31.1809 54.9714V54.2131H30.4135V53.3818H27.5872V54.2131H26.8198V54.9714H25.7599V56.391H26.8198V57.1491H27.5872V57.9805H30.4135V57.1491H31.1809V56.391H32.2407V54.9714H31.1809Z" fill="black"/>
<path d="M28.9574 53.4675V54.3244L27.7425 55.015V55.6383H25.8456V55.057H26.9054V54.2989H27.6728V53.4675H28.9574Z" fill="#FDD406"/>
<path d="M29.0432 57.8949V57.038L30.2579 56.3473V55.7241H32.1549V56.3053H31.0952V57.0636H30.3277V57.8949H29.0432Z" fill="#FDD406"/>
<path d="M30.258 55.6383V55.015L29.0432 54.3244V53.4675H30.3278V54.2989H31.0952V55.057H32.1549V55.6383H30.258Z" fill="white"/>
<path d="M25.8458 55.7241H27.7426V56.3473L28.9575 57.038V57.8949H27.6729V57.0636H26.9055V56.3053H25.8458V55.7241Z" fill="white"/>
<path d="M27.8284 55.7241V56.3018L28.9574 56.9438V55.7241H27.8284Z" fill="#D91C16"/>
<path d="M28.9573 54.4187L27.8282 55.0606V55.6383H28.9573V54.4187Z" fill="#1E9A1C"/>
<path d="M30.1724 55.6383V55.0606L29.0433 54.4187V55.6383H30.1724Z" fill="#D91C16"/>
<path d="M29.0432 56.9438L30.1722 56.3018V55.7241H29.0432V56.9438Z" fill="#1E9A1C"/>
<path d="M18.73 70.746V73.0894H16.4969V75.2148H14.2336V81.2665H16.4969V83.392H18.73V85.7353H26.8495L28.2774 86.5933L27.5913 87.0055H24.696L24.4463 86.7239H27.0701L26.3309 85.9795H22.5777L24.2782 87.7499H27.7978L29.0001 87.0275L30.2023 87.7499H33.7222L35.4226 85.9795H31.6695L30.9301 86.7239H33.5541L33.3042 87.0055H30.4089L29.7227 86.5933L31.1507 85.7353H39.2703V83.392H41.5033V81.2665H43.7665V75.2148H41.5033V73.0894H39.2703V70.746H31.1507L29.7227 69.8881L30.4089 69.4758H33.3042L33.5541 69.7574H30.9301L31.6695 70.5018H35.4226L33.7222 68.7314H30.2023L29.0001 69.4538L27.7978 68.7314H24.2782L22.5777 70.5018H26.3309L27.0701 69.7574H24.4463L24.696 69.4758H27.5913L28.2774 69.8881L26.8495 70.746H18.73Z" fill="#D91C16"/>
<path d="M31.1265 85.6461H39.188V83.305H41.4125V81.1758H43.6795V75.2965H41.4125V73.1779H39.188V70.8368H31.1265L27.7791 68.8135H24.3151L22.7791 70.413H26.296L26.8681 69.841H24.2515L24.6541 69.3855H27.6202L31.4126 71.6737H38.3405V74.0148H40.5757V76.144H42.8426V80.3389H40.5757V82.4682H38.3405V84.8093H31.4126L27.6202 87.0868H24.6541L24.2515 86.6419H26.8681L26.296 86.0698H22.7791L24.3151 87.6694H27.7791L31.1265 85.6461ZM26.5821 84.8093H19.6541V82.4682H17.4295V80.3389H15.1626V76.144H17.4295V74.0148H19.6541V71.6737H26.5821L30.385 69.3855H33.3406L33.7431 69.841H31.1372L31.7092 70.4131H35.2261L33.6901 68.8135H30.2261L26.8787 70.8368H18.8172V73.1779H16.5821V75.2965H14.3151V81.1758H16.5821V83.305H18.8172V85.6461H26.8787L30.2261 87.6694H33.6901L35.2261 86.0698H31.7092L31.1372 86.6419H33.7431L33.3406 87.0868H30.385L26.5821 84.8093Z" fill="#FDD406"/>
<path d="M37.669 81.7908V84.1341H31.229L29.0001 85.4733L26.7712 84.1341H20.3313V81.7908H18.0981V79.6652H15.8349V76.8161H18.0981V74.6905H20.3313V72.3473H26.7593H26.7712L29.0001 71.0081L31.229 72.3473H37.669V74.6905H39.9021V76.8161H42.1653V79.6652H39.9021V81.7908H37.669Z" fill="#1E9A1C"/>
<path d="M21.1745 80.9701V83.2381H24.7145L21.1745 80.8901V80.9701Z" fill="black"/>
<path d="M21.1745 75.5118V73.2437H24.7145L21.1745 75.5916V75.5118Z" fill="black"/>
<path d="M36.8261 80.9701V83.2381H33.2861L36.8261 80.8901V80.9701Z" fill="black"/>
<path d="M36.8261 75.5118V73.2437H33.2861L36.8261 75.5916V75.5118Z" fill="black"/>
<path d="M21.2603 81.0498L24.4302 83.1523H21.2603V81.0498Z" fill="#D91C16"/>
<path d="M21.2603 75.4319C21.3836 75.35 24.2142 73.4725 24.4302 73.3293H21.2603V75.4319Z" fill="#D91C16"/>
<path d="M36.7405 81.0498C36.6171 81.1316 33.7864 83.009 33.5706 83.1523H36.7405V81.0498Z" fill="#D91C16"/>
<path d="M36.7405 75.4321C36.6171 75.3504 33.7864 73.4729 33.5706 73.3296H36.7405V75.4321Z" fill="#D91C16"/>
<path d="M25.6897 77.6189V76.4606H25.2947L23.3994 75.2756L23.3767 75.2899L21.5042 76.4606H21.1092V77.6189H20.2182V78.8628H21.1092V80.0209H21.5042L23.3994 81.2059L25.2947 80.0209H25.6897V78.8628H27.0461V77.6189H25.6897Z" fill="black"/>
<path d="M23.3997 75.377L25.1333 76.4608H21.6663L23.3997 75.377ZM25.1331 80.0211L23.3997 81.1049L21.6664 80.0211H25.1331Z" fill="#D91C16"/>
<path d="M24.7131 77.7046V78.7771H22.5513V77.7046H24.7131Z" fill="#D91C16"/>
<path d="M25.6041 78.8625V79.9351H23.4423V78.8625H25.6041Z" fill="#FDD406"/>
<path d="M23.3569 78.8625V79.9351H21.1951V78.8625H23.3569Z" fill="#FDD406"/>
<path d="M26.9606 77.7046V78.7771H24.7988V77.7046H26.9606Z" fill="#FDD406"/>
<path d="M22.4657 77.7046V78.7771H20.3039V77.7046H22.4657Z" fill="#FDD406"/>
<path d="M25.6041 76.5464V77.6188H23.4423V76.5464H25.6041Z" fill="#FDD406"/>
<path d="M23.3569 76.5464V77.6188H21.1951V76.5464H23.3569Z" fill="#FDD406"/>
<path d="M21.8707 77.9429V78.5388H20.8997V77.9429H21.8707Z" fill="black"/>
<path d="M22.7619 76.7847V77.3806H21.7908V76.7847H22.7619Z" fill="black"/>
<path d="M25.0089 76.7847V77.3806H24.0378V76.7847H25.0089Z" fill="black"/>
<path d="M24.1181 77.9429V78.5388H23.147V77.9429H24.1181Z" fill="black"/>
<path d="M26.3653 77.9429V78.5388H25.3943V77.9429H26.3653Z" fill="black"/>
<path d="M25.0089 79.1011V79.697H24.0378V79.1011H25.0089Z" fill="black"/>
<path d="M22.7619 79.1011V79.697H21.7908V79.1011H22.7619Z" fill="black"/>
<path d="M21.7789 78.0342H20.9908V78.4472H21.7789V78.0342Z" fill="white"/>
<path d="M22.6701 76.876H21.882V77.289H22.6701V76.876Z" fill="white"/>
<path d="M24.9174 76.876H24.1292V77.289H24.9174V76.876Z" fill="white"/>
<path d="M24.0263 78.0342H23.2382V78.4472H24.0263V78.0342Z" fill="white"/>
<path d="M26.2739 78.0342H25.4857V78.4472H26.2739V78.0342Z" fill="white"/>
<path d="M24.9174 79.1924H24.1292V79.6054H24.9174V79.1924Z" fill="white"/>
<path d="M22.6701 79.1924H21.882V79.6054H22.6701V79.1924Z" fill="white"/>
<path d="M32.3106 77.6189V76.4606H32.7057L34.601 75.2756L34.6236 75.2899L36.4961 76.4606H36.8912V77.6189H37.7822V78.8628H36.8912V80.0209H36.4961L34.601 81.2059L32.7057 80.0209H32.3106V78.8628H30.9543V77.6189H32.3106Z" fill="black"/>
<path d="M34.6008 75.377L32.8672 76.4608H36.3342L34.6008 75.377ZM32.8674 80.0211L34.6008 81.1049L36.3341 80.0211H32.8674Z" fill="#D91C16"/>
<path d="M33.2874 77.7046V78.7771H35.4492V77.7046H33.2874Z" fill="#D91C16"/>
<path d="M32.3963 78.8625V79.9351H34.5581V78.8625H32.3963Z" fill="#FDD406"/>
<path d="M34.6437 78.8625V79.9351H36.8055V78.8625H34.6437Z" fill="#FDD406"/>
<path d="M31.0399 77.7046V78.7771H33.2017V77.7046H31.0399Z" fill="#FDD406"/>
<path d="M35.5347 77.7046V78.7771H37.6965V77.7046H35.5347Z" fill="#FDD406"/>
<path d="M32.3963 76.5464V77.6188H34.5581V76.5464H32.3963Z" fill="#FDD406"/>
<path d="M34.6437 76.5464V77.6188H36.8055V76.5464H34.6437Z" fill="#FDD406"/>
<path d="M36.1299 77.9429V78.5388H37.1009V77.9429H36.1299Z" fill="black"/>
<path d="M35.2389 76.7847V77.3806H36.2099V76.7847H35.2389Z" fill="black"/>
<path d="M32.9917 76.7847V77.3806H33.9627V76.7847H32.9917Z" fill="black"/>
<path d="M33.8827 77.9429V78.5388H34.8537V77.9429H33.8827Z" fill="black"/>
<path d="M31.6353 77.9429V78.5388H32.6063V77.9429H31.6353Z" fill="black"/>
<path d="M32.9917 79.1011V79.697H33.9627V79.1011H32.9917Z" fill="black"/>
<path d="M35.2389 79.1011V79.697H36.2099V79.1011H35.2389Z" fill="black"/>
<path d="M36.2216 78.0342H37.0098V78.4472H36.2216V78.0342Z" fill="white"/>
<path d="M35.3306 76.876H36.1188V77.289H35.3306V76.876Z" fill="white"/>
<path d="M33.0832 76.876H33.8713V77.289H33.0832V76.876Z" fill="white"/>
<path d="M33.9743 78.0342H34.7625V78.4472H33.9743V78.0342Z" fill="white"/>
<path d="M31.7268 78.0342H32.515V78.4472H31.7268V78.0342Z" fill="white"/>
<path d="M33.0832 79.1924H33.8713V79.6054H33.0832V79.1924Z" fill="white"/>
<path d="M35.3306 79.1924H36.1188V79.6054H35.3306V79.1924Z" fill="white"/>
<path d="M31.2906 75.6841V76.8422H30.8955L29.0002 78.0272L28.9776 78.013L27.1051 76.8422H26.71V75.6841H25.5864V74.4402H26.71V73.282H27.1051L29.0002 72.0969L30.8955 73.282H31.2906V74.4402H32.4142V75.6841H31.2906Z" fill="black"/>
<path d="M29.0004 77.9261L30.7339 76.8421H27.267L29.0004 77.9261ZM30.7338 73.282L29.0004 72.198L27.2671 73.282H30.7338Z" fill="#FDD406"/>
<path d="M31.2049 74.4401V73.3677H29.0432V74.4401H31.2049Z" fill="#D91C16"/>
<path d="M28.9577 74.4401V73.3677H26.7959V74.4401H28.9577Z" fill="#D91C16"/>
<path d="M32.3285 75.5984V74.5259H30.1667V75.5984H32.3285Z" fill="#D91C16"/>
<path d="M30.0811 75.5984V74.5259H27.9193V75.5984H30.0811Z" fill="#D91C16"/>
<path d="M27.8337 75.5984V74.5259H25.6721V75.5984H27.8337Z" fill="#D91C16"/>
<path d="M31.2049 76.7564V75.6838H29.0432V76.7564H31.2049Z" fill="#D91C16"/>
<path d="M28.9577 76.7566V75.6841H26.7959V76.7566H28.9577Z" fill="#D91C16"/>
<path d="M28.3622 73.606V74.2019H27.3911V73.606H28.3622Z" fill="black"/>
<path d="M30.6096 73.606V74.2019H29.6385V73.606H30.6096Z" fill="black"/>
<path d="M27.2384 74.7642V75.3601H26.2673V74.7642H27.2384Z" fill="black"/>
<path d="M29.486 74.7642V75.3601H28.515V74.7642H29.486Z" fill="black"/>
<path d="M31.7336 74.7642V75.3601H30.7625V74.7642H31.7336Z" fill="black"/>
<path d="M28.3622 75.9224V76.5183H27.3911V75.9224H28.3622Z" fill="black"/>
<path d="M30.6096 75.9224V76.5183H29.6385V75.9224H30.6096Z" fill="black"/>
<path d="M28.2708 73.6973H27.4826V74.1103H28.2708V73.6973Z" fill="white"/>
<path d="M30.5182 73.6973H29.73V74.1103H30.5182V73.6973Z" fill="white"/>
<path d="M27.147 74.8555H26.3588V75.2685H27.147V74.8555Z" fill="white"/>
<path d="M29.3946 74.8555H28.6064V75.2685H29.3946V74.8555Z" fill="white"/>
<path d="M31.6419 74.8555H30.8538V75.2685H31.6419V74.8555Z" fill="white"/>
<path d="M28.2708 76.0137H27.4826V76.4267H28.2708V76.0137Z" fill="white"/>
<path d="M30.5182 76.0137H29.73V76.4267H30.5182V76.0137Z" fill="white"/>
<path d="M31.2906 82.0417V83.1999H30.8955L29.0002 84.3849L28.9776 84.3707L27.1051 83.1999H26.71V82.0417H25.5864V80.7978H26.71V79.6397H27.1051L29.0002 78.4546L30.8955 79.6397H31.2906V80.7978H32.4142V82.0417H31.2906Z" fill="black"/>
<path d="M29.0004 84.2837L30.7339 83.1998H27.267L29.0004 84.2837ZM30.7338 79.6396L29.0004 78.5557L27.2671 79.6396H30.7338Z" fill="#FDD406"/>
<path d="M31.2049 80.7978V79.7253H29.0432V80.7978H31.2049Z" fill="#D91C16"/>
<path d="M28.9577 80.7978V79.7253H26.7959V80.7978H28.9577Z" fill="#D91C16"/>
<path d="M32.3285 81.9559V80.8833H30.1667V81.9559H32.3285Z" fill="#D91C16"/>
<path d="M30.0811 81.9559V80.8833H27.9193V81.9559H30.0811Z" fill="#D91C16"/>
<path d="M27.8337 81.9559V80.8833H25.6721V81.9559H27.8337Z" fill="#D91C16"/>
<path d="M31.2049 83.1141V82.0415H29.0432V83.1141H31.2049Z" fill="#D91C16"/>
<path d="M28.9577 83.1141V82.0415H26.7959V83.1141H28.9577Z" fill="#D91C16"/>
<path d="M28.3622 79.9636V80.5595H27.3911V79.9636H28.3622Z" fill="black"/>
<path d="M30.6096 79.9636V80.5595H29.6385V79.9636H30.6096Z" fill="black"/>
<path d="M27.2384 81.1218V81.7177H26.2673V81.1218H27.2384Z" fill="black"/>
<path d="M29.486 81.1218V81.7177H28.515V81.1218H29.486Z" fill="black"/>
<path d="M31.7336 81.1218V81.7177H30.7625V81.1218H31.7336Z" fill="black"/>
<path d="M28.3622 82.28V82.876H27.3911V82.28H28.3622Z" fill="black"/>
<path d="M30.6096 82.28V82.876H29.6385V82.28H30.6096Z" fill="black"/>
<path d="M28.2708 80.0549H27.4826V80.468H28.2708V80.0549Z" fill="white"/>
<path d="M30.5182 80.0549H29.73V80.468H30.5182V80.0549Z" fill="white"/>
<path d="M27.147 81.2131H26.3588V81.6262H27.147V81.2131Z" fill="white"/>
<path d="M29.3946 81.2131H28.6064V81.6262H29.3946V81.2131Z" fill="white"/>
<path d="M31.6419 81.2131H30.8538V81.6262H31.6419V81.2131Z" fill="white"/>
<path d="M28.2708 82.3713H27.4826V82.7844H28.2708V82.3713Z" fill="white"/>
<path d="M30.5182 82.3713H29.73V82.7844H30.5182V82.3713Z" fill="white"/>
<path d="M16.7358 95.8708L25.1461 91.3445H25.1569H32.8539L41.2643 95.8708V103.329L32.8539 107.855H25.1461L16.7358 103.329V95.8708Z" fill="black"/>
<path d="M25.1734 91.4302L16.8259 95.9217V103.273L25.1734 107.765H32.832L41.1798 103.273V95.9217L32.832 91.4302H25.1734ZM25.3215 92.0339H32.6839L40.5866 96.2817V102.924L32.6839 107.172H25.3171L17.4146 102.924V96.2817L25.3215 92.0339Z" fill="#1E9A1C"/>
<path d="M29.043 99.5567V107.085H32.6621L40.4987 102.867V99.6425L28.9573 99.6425V92.1145H25.3384L17.5016 96.3318V99.5567L29.043 99.5567Z" fill="#FDD406"/>
<path d="M28.9573 99.5567V107.085H25.3384L17.5016 102.867V99.6425L29.043 99.6425V92.1145H32.6621L40.4987 96.3318V99.5567L28.9573 99.5567Z" fill="white"/>
<path d="M29.7034 106.663V104.488L29 104.934L28.2964 104.488V106.663H26.1081L27.5847 105.58V104.036L25.3328 102.607H23.7592V96.5926H25.3328L27.5847 95.1638V93.6193L26.1081 92.5364H26.239H28.2964V94.7123L29 94.2659L29.7034 94.7123V92.5364H31.8919L30.4151 93.6193V95.1638L32.6671 96.5926H34.2406V102.607H32.6671L30.4151 104.036V105.58L31.8919 106.663H29.7034Z" fill="black"/>
<path d="M29.7919 92.627V94.8727L29.0397 94.3961V95.0317L32.4825 97.2242H33.616V99.5551H34.1564V96.6737H32.6414L30.3323 95.2117V93.5802L31.635 92.627H29.7919ZM23.8491 99.6398V102.521H25.3533L27.6733 103.993V105.625L26.3703 106.578H28.2136V104.332L28.955 104.809V104.152L25.5123 101.981H24.3893V99.6398L23.8491 99.6398Z" fill="#FDD406"/>
<path d="M26.37 92.627L27.6731 93.5802V95.2117L25.3531 96.6737H23.8488V99.5551H24.3891V97.2242H25.512L28.9548 95.0422V94.3961L28.2134 94.8727V92.627L26.37 92.627ZM33.6158 99.6398V101.981H32.4822L29.0395 104.152V104.809L29.7917 104.332V106.578H31.6347L30.332 105.625V103.993L32.6412 102.521H34.1561V99.6398L33.6158 99.6398Z" fill="white"/>
<path d="M24.4711 101.892H25.5387L29.0002 104.088L32.4616 101.892H33.5292V97.3084H32.474H32.4616L29.0002 95.1123L25.5387 97.3084H24.4711V101.892Z" fill="#D91C16"/>
<path d="M31.3962 100.689H32.1352V100.339H31.5793V99.7035H32.7675V101.325H31.6284L31.6285 102.431H29.2836V100.841H30.3156V101.477H29.9158V101.795H30.9962V101.187L26.604 98.5107H25.8649V98.8603H26.421V99.4959H25.2326V97.875H26.3718V96.769H26.4146H28.7166V98.3581H27.6846V97.7224H28.0843V97.4047H27.004V98.0122L31.3962 100.689ZM30.9962 98.0122V97.4047H29.9158V97.7224H30.3156V98.3581H29.2836V96.769H31.6285V97.875H32.7675V99.4959H31.5793V98.8603H32.1354V98.5107H31.3962L27.004 101.187V101.795H28.0843V101.477H27.6846V100.841H28.7166V102.431H26.3718V101.324H25.2326V99.7035H26.421V100.339H25.8649V100.689H26.604L30.9962 98.0122Z" fill="black"/>
<path d="M31.0818 101.139V101.881H29.8299V101.392H30.2298V100.927H29.3691V102.345H31.5426V101.239H32.6817V99.7896H31.6649V100.254H32.2208V100.775H31.3721L26.9181 98.0606V97.3193H28.17V97.8084H27.7703V98.2727H28.6308V96.855H26.4573V97.9609H25.3183V99.4105H26.3351V98.9462H25.7791V98.4252H26.6279L31.0818 101.139ZM31.3721 98.4252H32.2209V98.9462H31.6649V99.4105H32.6817V97.9609H31.5427V96.855H29.3693V98.2727H30.2298V97.8084H29.8301V97.3193H31.0818V98.0606L26.6279 100.775H25.7791V100.254H26.3351V99.7895H25.3183V101.239H26.4573V102.345H28.6308V100.927H27.7703V101.392H28.17V101.881H26.9181V101.139L31.3721 98.4252Z" fill="white"/>
<path d="M38.8091 99.9766V102.329H37.808V101.498H36.799V102.329H35.7979V99.9766H36.799V100.807H37.808V99.9766H38.8091Z" fill="black"/>
<path d="M35.2272 103.1V105.452H34.2262V104.621H33.2171V105.452H32.2161V103.1H33.2171V103.93H34.2262V103.1H35.2272Z" fill="black"/>
<path d="M38.8091 99.2225V96.8701H37.808V97.7009H36.799V96.8701H35.7979V99.2225H36.799V98.3917H37.808V99.2225H38.8091Z" fill="black"/>
<path d="M19.1914 99.9766V102.329H20.1924V101.498H21.2015V102.329H22.2026V99.9766H21.2015V100.807H20.1924V99.9766H19.1914Z" fill="black"/>
<path d="M19.1914 99.2225V96.8701H20.1924V97.7009H21.2015V96.8701H22.2026V99.2225H21.2015V98.3917H20.1924V99.2225H19.1914Z" fill="black"/>
<path d="M35.2272 96.0997V93.7473H34.2262V94.5781H33.2171V93.7473H32.2161V96.0997H33.2171V95.2689H34.2262V96.0997H35.2272Z" fill="black"/>
<path d="M22.7735 103.1V105.452H23.7745V104.621H24.7836V105.452H25.7847V103.1H24.7836V103.93H23.7745V103.1H22.7735Z" fill="black"/>
<path d="M22.7735 96.0997V93.7473H23.7745V94.5781H24.7836V93.7473H25.7847V96.0997H24.7836V95.2689H23.7745V96.0997H22.7735Z" fill="black"/>
<path d="M35.8243 94.4512V96.2376H39.1437L35.8243 94.4512Z" fill="black"/>
<path d="M22.1761 104.748V102.962H18.8566L22.1761 104.748Z" fill="black"/>
<path d="M22.1761 94.4512V96.2376H18.8566L22.1761 94.4512Z" fill="black"/>
<path d="M35.8243 104.748V102.962H39.1437L35.8243 104.748Z" fill="black"/>
<path d="M37.8936 101.413V102.243H38.7233V100.062H37.8936V100.893H36.713V100.062H35.8835V102.243H36.713V101.413H37.8936Z" fill="#D91C16"/>
<path d="M34.3116 104.535V105.366H35.1411V103.185H34.3116V104.016H33.131V103.185H32.3015V105.366H33.131V104.535H34.3116Z" fill="#D91C16"/>
<path d="M37.8936 97.7866V96.9558H38.7233V99.1367H37.8936V98.3058H36.713V99.1367H35.8835V96.9558H36.713V97.7866H37.8936Z" fill="#D91C16"/>
<path d="M20.1066 101.413V102.243H19.277V100.062H20.1066V100.893H21.2872V100.062H22.1167V102.243H21.2872V101.413H20.1066Z" fill="#D91C16"/>
<path d="M20.1066 97.7866V96.9558H19.277V99.1367H20.1066V98.3058H21.2872V99.1367H22.1167V96.9558H21.2872V97.7866H20.1066Z" fill="#D91C16"/>
<path d="M34.3116 94.6639V93.833H35.1411V96.014H34.3116V95.1831H33.131V96.014H32.3015V93.833H33.131V94.6639H34.3116Z" fill="#D91C16"/>
<path d="M23.6886 104.535V105.366H22.859V103.185H23.6886V104.016H24.8691V103.185H25.6988V105.366H24.8691V104.535H23.6886Z" fill="#D91C16"/>
<path d="M23.6886 94.6639V93.833H22.859V96.014H23.6886V95.1831H24.8691V96.014H25.6988V93.833H24.8691V94.6639H23.6886Z" fill="#D91C16"/>
<path d="M35.9146 94.5972V96.1545H38.8068L35.9146 94.5972ZM19.1986 103.051L22.0905 104.608V103.051H19.1986Z" fill="#FDD406"/>
<path d="M22.0904 94.5972L19.1984 96.1545H22.0904V94.5972ZM35.9144 103.051V104.608L38.8066 103.051H35.9144Z" fill="white"/>
<path d="M42.5801 106.165C42.4202 106.846 41.8784 107.361 41.7493 108.067C41.4908 107.33 41.2525 106.713 41.4305 105.907C41.5578 105.33 42.0428 104.919 42.099 104.326C42.6278 104.802 42.7417 105.476 42.5801 106.165ZM42.7141 109.02C42.2656 109.635 41.642 110.107 40.9535 110.421C41.0891 109.883 40.8347 109.477 40.5523 109.049C40.2121 108.535 40.0463 108.029 40.3236 107.436C40.4528 107.744 40.6265 108 40.8302 108.264C41.1316 108.675 41.3297 109.04 41.3761 109.568C41.7246 109.309 41.8777 108.924 42.0641 108.551C42.3481 108.016 42.8065 107.569 43.3331 107.277C43.1932 107.877 43.0854 108.511 42.7141 109.02ZM40.1984 110.853C40.2943 111.195 40.377 111.533 40.3585 111.89C40.6549 111.571 41.0485 111.331 41.3996 111.073C41.8778 110.687 42.4352 110.414 42.8262 109.921C42.7679 110.646 42.4577 111.237 41.8687 111.678C41.2462 112.144 40.4953 112.395 39.8821 112.884C39.9739 112.225 39.7318 111.697 39.5252 111.091C39.3532 110.512 39.5197 109.924 39.9124 109.483C39.9065 109.972 40.0608 110.392 40.1984 110.853ZM38.8013 113.08C38.6723 113.58 38.314 113.987 38.0693 114.433C38.729 114.228 39.3112 113.87 39.9076 113.534C40.618 113.147 41.3893 112.901 42.0324 112.39C41.7124 113.575 40.9192 114.262 39.7588 114.612C38.9653 114.851 38.2967 114.732 37.3339 115.121C37.4443 114.469 37.6388 113.766 37.947 113.178C38.1862 112.753 38.4514 112.334 38.5991 111.866C38.813 112.25 38.9143 112.642 38.8013 113.08ZM36.3736 114.893C36.1464 115.282 35.8465 115.61 35.4746 115.868C36.4112 115.928 37.165 115.334 38.078 115.308C38.642 115.292 39.1775 115.467 39.7527 115.415C39.0701 115.875 38.3555 116.278 37.5245 116.385C36.4442 116.525 35.448 116.253 34.2563 116.359C34.8132 115.966 35.0919 115.44 35.439 114.875C35.891 114.168 36.3177 113.665 37.1969 113.551C36.844 113.948 36.6385 114.439 36.3736 114.893ZM33.0473 116.447C34.6973 116.728 36.2784 117.091 37.9636 117.108C36.0773 117.765 34.3 117.884 32.4292 117.205C31.4182 116.838 30.643 116.642 29.8794 116.696C28.7635 116.777 27.4074 117.217 25.9066 118.8L25.3167 118.328C27.4677 116.411 30.2822 115.977 33.0472 116.447L33.0473 116.447Z" fill="#FDD406"/>
<path d="M15.4287 106.165C15.5886 106.846 16.1304 107.361 16.2595 108.067C16.518 107.33 16.7563 106.713 16.5783 105.907C16.451 105.33 15.966 104.919 15.9098 104.326C15.381 104.802 15.2671 105.476 15.4287 106.165ZM15.2947 109.02C15.7432 109.635 16.3668 110.107 17.0553 110.421C16.9197 109.883 17.1741 109.477 17.4565 109.049C17.7967 108.535 17.9625 108.029 17.6852 107.436C17.556 107.744 17.3823 108 17.1786 108.264C16.8772 108.675 16.6791 109.04 16.6327 109.568C16.2842 109.309 16.1311 108.924 15.9447 108.551C15.6607 108.016 15.2023 107.569 14.6757 107.277C14.8156 107.877 14.9234 108.511 15.2947 109.02ZM17.8104 110.853C17.7145 111.195 17.6318 111.533 17.6503 111.89C17.3539 111.571 16.9603 111.331 16.6092 111.073C16.131 110.687 15.5736 110.414 15.1826 109.921C15.2409 110.646 15.5511 111.237 16.1401 111.678C16.7626 112.144 17.5135 112.395 18.1267 112.884C18.0349 112.225 18.277 111.697 18.4836 111.091C18.6556 110.512 18.4891 109.924 18.0964 109.483C18.1023 109.972 17.948 110.392 17.8104 110.853ZM19.2075 113.08C19.3365 113.58 19.6948 113.987 19.9395 114.433C19.2798 114.228 18.6976 113.87 18.1012 113.534C17.3908 113.147 16.6195 112.901 15.9764 112.39C16.2964 113.575 17.0896 114.262 18.25 114.612C19.0435 114.851 19.7121 114.732 20.6749 115.121C20.5645 114.469 20.37 113.766 20.0618 113.178C19.8226 112.753 19.5574 112.334 19.4097 111.866C19.1958 112.25 19.0945 112.642 19.2075 113.08ZM21.6352 114.893C21.8624 115.282 22.1623 115.61 22.5342 115.868C21.5976 115.928 20.8438 115.334 19.9308 115.308C19.3668 115.292 18.8313 115.467 18.2562 115.415C18.9387 115.875 19.6533 116.278 20.4843 116.385C21.5645 116.525 22.5608 116.253 23.7525 116.359C23.1956 115.966 22.917 115.44 22.5698 114.875C22.1178 114.168 21.6912 113.665 20.8119 113.551C21.1648 113.948 21.3703 114.439 21.6352 114.893ZM24.9615 116.447C23.3115 116.728 21.7304 117.091 20.0452 117.108C21.9315 117.765 23.7088 117.884 25.5796 117.205C26.5906 116.838 27.3658 116.642 28.1294 116.696C29.2453 116.777 30.6014 117.217 32.1022 118.8L32.6922 118.328C30.5411 116.411 27.7266 115.977 24.9616 116.447L24.9615 116.447Z" fill="#FDD406"/>
</g>
<defs>
<clipPath id="clip0_909_226996">
<rect width="120" height="120" fill="white"/>
</clipPath>
</defs>
</svg>
