<svg width="120" height="120" viewBox="0 0 120 120" fill="none" xmlns="http://www.w3.org/2000/svg">
<path d="M120 0H0V120H120V0Z" fill="#1E9A1C"/>
<path d="M61.5245 16.604L62.1706 14.6153H64.2617L62.57 13.3862L63.2161 11.3975L61.5244 12.6265L59.8327 11.3975L60.4789 13.3861L58.7872 14.6153H60.8783L61.5245 16.604Z" fill="white"/>
<path d="M84.8128 27.0341C84.8128 20.8787 81.0854 15.5926 75.7655 13.3085C79.1472 16.1913 81.2133 20.5467 81.0045 25.3289C80.6449 33.5658 73.6735 39.9539 65.4366 39.5943C63.5805 39.5133 61.8188 39.0955 60.2065 38.4041C62.8128 40.6242 66.1908 41.9651 69.8819 41.9651C78.1266 41.9651 84.8128 35.2789 84.8128 27.0341Z" fill="white"/>
<path d="M62.1706 22.2953L61.5245 24.284L60.8783 22.2953H58.7872L60.4789 21.0662L59.8327 19.0775L61.5244 20.3065L63.2161 19.0775L62.57 21.0662L64.2617 22.2953H62.1706Z" fill="white"/>
<path d="M69.758 18.5509L69.1119 20.5396L68.4657 18.5509H66.3746L68.0663 17.3217L67.4201 15.3331L69.1118 16.5621L70.8035 15.3331L70.1574 17.3218L71.8491 18.5509H69.758Z" fill="white"/>
<path d="M53.9373 28.0284L54.5834 26.0396H56.6745L54.9828 24.8106L55.6289 22.8218L53.9372 24.0509L52.2455 22.8218L52.8917 24.8105L51.2 26.0396H53.2911L53.9373 28.0284Z" fill="white"/>
<path d="M62.1706 29.9752L61.5245 31.964L60.8783 29.9752H58.7872L60.4789 28.7461L59.8327 26.7574L61.5244 27.9865L63.2161 26.7574L62.57 28.7462L64.2617 29.9752H62.1706Z" fill="white"/>
<path d="M45.2 0H12.8V120H45.2V0Z" fill="#E23726"/>
<path d="M20.7239 0H19.601L17.6096 1.82194L16.8151 1.08041H17.546L17.4083 0.24355H16.1371L13.6265 2.59527V3.49569H14.7388V2.74358L15.3109 3.26264L14.0079 4.47027L14.6223 5.05288L12.8003 6.7478V7.92366L15.8829 5.05288L15.2685 4.47027L16.5609 3.26264L15.4486 2.22451L16.1901 1.54654L17.6096 2.8601L20.7239 0Z" fill="black"/>
<path d="M17.9559 0H18.6659L18.0545 0.571948L17.9559 0Z" fill="black"/>
<path d="M12.8003 0H14.8976L14.2833 0.624923H13.5206V1.48296L12.8003 2.21389V0Z" fill="black"/>
<path d="M18.0512 0H18.5386L18.1181 0.391831L18.0512 0Z" fill="#FDD406"/>
<path d="M12.8003 0H14.7811L14.2516 0.529548H13.4359V1.45114L12.8003 2.08674V0Z" fill="#FDD406"/>
<path d="M12.8 6.86426L14.7492 5.0528L14.1348 4.47019L15.4377 3.26256L14.6538 2.53163V3.41087H13.711V2.62697L16.1793 0.328251H17.3233L17.4401 0.995624H16.5927L17.6096 1.93842L19.7281 0H20.5859L17.6093 2.7435L16.1899 1.41934L15.3212 2.22443L16.4335 3.26256L15.1411 4.47019L15.7555 5.0528L12.8 7.79646V6.86426Z" fill="#FDD406"/>
<path d="M12.8003 13.9175V15.0933L14.6223 16.7988L14.0079 17.3709L15.3109 18.5785L14.7388 19.0976V18.3454H13.6265V19.2459L16.1371 21.5976H17.4083L17.546 20.7713H16.8151L17.6096 20.0298L19.6011 21.8412L17.6096 23.6632L16.8151 22.9217H17.546L17.4083 22.0849H16.1371L13.6265 24.4366V25.337H14.7388V24.5849L15.3109 25.104L14.0079 26.3116L14.6223 26.8942L12.8003 28.5891V29.765L15.8829 26.8942L15.2685 26.3116L16.5609 25.104L15.4486 24.0658L16.1901 23.3879L17.6096 24.7014L20.724 21.8413L17.6096 18.9811L16.1901 20.3052L15.4486 19.6167L16.5609 18.5785L15.2685 17.3709L15.8829 16.7989L12.8003 13.9175ZM12.8003 19.6272V24.0552L13.5206 23.3243V22.4662H14.2833L14.8977 21.8412L14.2833 21.2268H13.5206V20.3582L12.8003 19.6272ZM18.0545 21.195L17.9486 21.7989L18.0545 22.4133L18.7113 21.7989L18.0545 21.195Z" fill="black"/>
<path d="M12.8003 14.0446V14.9768L14.7495 16.7988L14.1351 17.3708L15.438 18.5785L14.6541 19.3094V18.4302H13.7113V19.2141L16.1796 21.5128H17.3236L17.4401 20.856H16.5927L17.6096 19.9026L19.7283 21.8412L17.6096 23.7797L16.5927 22.8369H17.4401L17.3233 22.1696H16.1793L13.711 24.4683V25.2522H14.6538V24.3729L15.4377 25.1039L14.1348 26.3115L14.7492 26.8941L12.8 28.7056V29.6378L15.7555 26.8941L15.1411 26.3115L16.4335 25.1039L15.3212 24.0657L16.1899 23.2607L17.6093 24.5848L20.586 21.8412L17.6093 19.0975L16.1899 20.4217L15.3212 19.6166L16.4335 18.5785L15.1411 17.3708L15.7555 16.7988L12.8 14.0446L12.8003 14.0446ZM12.8003 19.7543V23.928L13.4359 23.2925V22.3709H14.2516L14.7813 21.8412L14.2516 21.3115H13.4359V20.3899L12.8003 19.7543ZM18.1181 21.3645L18.044 21.7988L18.1181 22.2331L18.5842 21.7988L18.1181 21.3645Z" fill="#FDD406"/>
<path d="M12.8003 36.4772V37.653L14.6223 39.3585L14.0079 39.9306L15.3109 41.1382L14.7388 41.6573V40.9051H13.6265V41.8056L16.1371 44.1573H17.4083L17.546 43.331H16.8151L17.6096 42.5895L19.6011 44.4009L17.6096 46.2229L16.8151 45.4814H17.546L17.4083 44.6446H16.1371L13.6265 46.9963V47.8967H14.7388V47.1446L15.3109 47.6636L14.0079 48.8713L14.6223 49.4539L12.8003 51.1488V52.3247L15.8829 49.4539L15.2685 48.8713L16.5609 47.6636L15.4486 46.6255L16.1901 45.9475L17.6096 47.2611L20.724 44.4009L17.6096 41.5408L16.1901 42.8649L15.4486 42.1764L16.5609 41.1382L15.2685 39.9306L15.8829 39.3586L12.8003 36.4772ZM12.8003 42.1869V46.6149L13.5206 45.884V45.0259H14.2833L14.8977 44.4009L14.2833 43.7865H13.5206V42.9179L12.8003 42.1869ZM18.0545 43.7547L17.9486 44.3585L18.0545 44.9729L18.7113 44.3585L18.0545 43.7547Z" fill="black"/>
<path d="M12.8003 36.6043V37.5365L14.7495 39.3585L14.1351 39.9305L15.438 41.1382L14.6541 41.8691V40.9899H13.7113V41.7737L16.1796 44.0725H17.3236L17.4401 43.4157H16.5927L17.6096 42.4623L19.7283 44.4009L17.6096 46.3394L16.5927 45.3966H17.4401L17.3233 44.7293H16.1793L13.711 47.028V47.8119H14.6538V46.9326L15.4377 47.6636L14.1348 48.8712L14.7492 49.4538L12.8 51.2653V52.1975L15.7555 49.4538L15.1411 48.8712L16.4335 47.6636L15.3212 46.6254L16.1899 45.8203L17.6093 47.1445L20.586 44.4009L17.6093 41.6572L16.1899 42.9814L15.3212 42.1763L16.4335 41.1381L15.1411 39.9305L15.7555 39.3585L12.8 36.6042L12.8003 36.6043ZM12.8003 42.314V46.4877L13.4359 45.8521V44.9305H14.2516L14.7813 44.4009L14.2516 43.8712H13.4359V42.9496L12.8003 42.314ZM18.1181 43.9242L18.044 44.3585L18.1181 44.7928L18.5842 44.3585L18.1181 43.9242Z" fill="#FDD406"/>
<path d="M12.8003 59.0366V60.2125L14.6223 61.918L14.0079 62.49L15.3109 63.6976L14.7388 64.2167V63.4646H13.6265V64.365L16.1371 66.7167H17.4083L17.546 65.8904H16.8151L17.6096 65.1489L19.6011 66.9604L17.6096 68.7824L16.8151 68.0409H17.546L17.4083 67.204H16.1371L13.6265 69.5557V70.4561H14.7388V69.704L15.3109 70.2231L14.0079 71.4307L14.6223 72.0133L12.8003 73.7082V74.8841L15.8829 72.0133L15.2685 71.4307L16.5609 70.2231L15.4486 69.185L16.1901 68.507L17.6096 69.8206L20.724 66.9604L17.6096 64.1002L16.1901 65.4244L15.4486 64.7358L16.5609 63.6977L15.2685 62.4901L15.8829 61.918L12.8003 59.0366ZM12.8003 64.7464V69.1743L13.5206 68.4434V67.5854H14.2833L14.8977 66.9604L14.2833 66.346H13.5206V65.4773L12.8003 64.7464ZM18.0545 66.3142L17.9486 66.918L18.0545 67.5324L18.7113 66.918L18.0545 66.3142Z" fill="black"/>
<path d="M12.8003 59.1637V60.0959L14.7495 61.9179L14.1351 62.49L15.438 63.6976L14.6541 64.4285V63.5493H13.7113V64.3332L16.1796 66.6319H17.3236L17.4401 65.9751H16.5927L17.6096 65.0217L19.7283 66.9603L17.6096 68.8989L16.5927 67.9561H17.4401L17.3233 67.2887H16.1793L13.711 69.5874V70.3713H14.6538V69.4921L15.4377 70.223L14.1348 71.4306L14.7492 72.0133L12.8 73.8247V74.7569L15.7555 72.0133L15.1411 71.4306L16.4335 70.223L15.3212 69.1849L16.1899 68.3798L17.6093 69.7039L20.586 66.9603L17.6093 64.2167L16.1899 65.5408L15.3212 64.7357L16.4335 63.6976L15.1411 62.49L15.7555 61.9179L12.8 59.1637L12.8003 59.1637ZM12.8003 64.8735V69.0472L13.4359 68.4116V67.49H14.2516L14.7813 66.9603L14.2516 66.4307H13.4359V65.5091L12.8003 64.8735ZM18.1181 66.4836L18.044 66.918L18.1181 67.3523L18.5842 66.918L18.1181 66.4836Z" fill="#FDD406"/>
<path d="M12.8003 81.5959V82.7718L14.6223 84.4773L14.0079 85.0493L15.3109 86.257L14.7388 86.776V86.0239H13.6265V86.9243L16.1371 89.276H17.4083L17.546 88.4498H16.8151L17.6096 87.7082L19.6011 89.5197L17.6096 91.3417L16.8151 90.6002H17.546L17.4083 89.7633H16.1371L13.6265 92.115V93.0155H14.7388V92.2634L15.3109 92.7824L14.0079 93.99L14.6223 94.5727L12.8003 96.2676V97.4434L15.8829 94.5727L15.2685 93.99L16.5609 92.7824L15.4486 91.7443L16.1901 91.0663L17.6096 92.3799L20.724 89.5197L17.6096 86.6596L16.1901 87.9837L15.4486 87.2951L16.5609 86.257L15.2685 85.0494L15.8829 84.4774L12.8003 81.5959ZM12.8003 87.3057V91.7337L13.5206 91.0027V90.1447H14.2833L14.8977 89.5197L14.2833 88.9053H13.5206V88.0366L12.8003 87.3057ZM18.0545 88.8735L17.9486 89.4773L18.0545 90.0917L18.7113 89.4773L18.0545 88.8735Z" fill="black"/>
<path d="M12.8003 81.723V82.6552L14.7495 84.4773L14.1351 85.0493L15.438 86.2569L14.6541 86.9879V86.1086H13.7113V86.8925L16.1796 89.1912H17.3236L17.4401 88.5345H16.5927L17.6096 87.5811L19.7283 89.5196L17.6096 91.4582L16.5927 90.5154H17.4401L17.3233 89.848H16.1793L13.711 92.1467V92.9306H14.6538V92.0514L15.4377 92.7823L14.1348 93.99L14.7492 94.5726L12.8 96.384V97.3162L15.7555 94.5726L15.1411 93.99L16.4335 92.7823L15.3212 91.7442L16.1899 90.9391L17.6093 92.2633L20.586 89.5196L17.6093 86.776L16.1899 88.1001L15.3212 87.2951L16.4335 86.2569L15.1411 85.0493L15.7555 84.4773L12.8 81.723L12.8003 81.723ZM12.8003 87.4328V91.6065L13.4359 90.9709V90.0493H14.2516L14.7813 89.5197L14.2516 88.99H13.4359V88.0684L12.8003 87.4328ZM18.1181 89.043L18.044 89.4773L18.1181 89.9116L18.5842 89.4773L18.1181 89.043Z" fill="#FDD406"/>
<path d="M37.2766 0H38.3996L40.391 1.82194L41.1855 1.08041H40.4545L40.5922 0.24355H41.8634L44.374 2.59527V3.49569H43.2617V2.74358L42.6897 3.26264L43.9927 4.47027L43.3782 5.05288L45.1999 6.74743V7.9233L42.1177 5.05288L42.7321 4.47027L41.4397 3.26264L42.552 2.22451L41.8104 1.54654L40.391 2.8601L37.2766 0Z" fill="black"/>
<path d="M45.1999 2.21349L44.4799 1.48296V0.624923H43.7172L43.1029 0H45.1999V2.21349Z" fill="black"/>
<path d="M40.0447 0L39.946 0.571948L39.3347 0H40.0447Z" fill="black"/>
<path d="M39.9492 0H39.4618L39.8823 0.391831L39.9492 0Z" fill="#FDD406"/>
<path d="M45.1998 2.08639V0H43.2193L43.7488 0.529548H44.5645V1.45114L45.1998 2.08639Z" fill="#FDD406"/>
<path d="M45.1998 6.86367L43.2512 5.0528L43.8657 4.47019L42.5627 3.26256L43.3466 2.53163V3.41087H44.2894V2.62697L41.8212 0.328251H40.6771L40.5603 0.995624H41.4078L40.3908 1.93842L38.2723 0H37.4146L40.3911 2.7435L41.8106 1.41934L42.6793 2.22443L41.5669 3.26256L42.8593 4.47019L42.2449 5.0528L45.1998 7.79587V6.86367Z" fill="#FDD406"/>
<path d="M45.2004 13.9175V15.0933L43.3784 16.7988L43.9928 17.3709L42.6899 18.5785L43.2619 19.0976V18.3454H44.3742V19.2459L41.8636 21.5976H40.5924L40.4547 20.7713H41.1856L40.3912 20.0298L38.3996 21.8412L40.3912 23.6632L41.1856 22.9217H40.4547L40.5924 22.0849H41.8636L44.3742 24.4366V25.337H43.2619V24.5849L42.6899 25.104L43.9928 26.3116L43.3784 26.8942L45.2004 28.5891V29.765L42.1178 26.8942L42.7322 26.3116L41.4399 25.104L42.5522 24.0658L41.8106 23.3879L40.3912 24.7014L37.2767 21.8413L40.3912 18.9811L41.8106 20.3052L42.5522 19.6167L41.4399 18.5785L42.7322 17.3709L42.1178 16.7989L45.2004 13.9175ZM45.2004 19.6272V24.0552L44.4801 23.3243V22.4662H43.7174L43.103 21.8412L43.7174 21.2268H44.4801V20.3582L45.2004 19.6272ZM39.9462 21.195L40.0522 21.7989L39.9462 22.4133L39.2895 21.7989L39.9462 21.195Z" fill="black"/>
<path d="M45.2004 14.0446V14.9768L43.2512 16.7988L43.8657 17.3708L42.5627 18.5785L43.3466 19.3094V18.4302H44.2894V19.2141L41.8212 21.5128H40.6771L40.5606 20.856H41.4081L40.3911 19.9026L38.2725 21.8412L40.3911 23.7797L41.4081 22.8369H40.5606L40.6774 22.1696H41.8215L44.2897 24.4683V25.2522H43.3469V24.3729L42.563 25.1039L43.866 26.3115L43.2515 26.8941L45.2007 28.7056V29.6378L42.2452 26.8941L42.8596 26.3115L41.5672 25.1039L42.6795 24.0657L41.8109 23.2607L40.3914 24.5848L37.4147 21.8412L40.3914 19.0975L41.8109 20.4217L42.6795 19.6166L41.5672 18.5785L42.8596 17.3708L42.2452 16.7988L45.2007 14.0446L45.2004 14.0446ZM45.2004 19.7543V23.928L44.5648 23.2925V22.3709H43.7491L43.2195 21.8412L43.7491 21.3115H44.5648V20.3899L45.2004 19.7543ZM39.8826 21.3645L39.9568 21.7988L39.8826 22.2331L39.4165 21.7988L39.8826 21.3645Z" fill="#FDD406"/>
<path d="M45.2004 36.4772V37.653L43.3784 39.3585L43.9928 39.9306L42.6899 41.1382L43.2619 41.6573V40.9051H44.3742V41.8056L41.8636 44.1573H40.5924L40.4547 43.331H41.1856L40.3912 42.5895L38.3996 44.4009L40.3912 46.2229L41.1856 45.4814H40.4547L40.5924 44.6446H41.8636L44.3742 46.9963V47.8967H43.2619V47.1446L42.6899 47.6636L43.9928 48.8713L43.3784 49.4539L45.2004 51.1488V52.3247L42.1178 49.4539L42.7322 48.8713L41.4399 47.6636L42.5522 46.6255L41.8106 45.9475L40.3912 47.2611L37.2767 44.4009L40.3912 41.5408L41.8106 42.8649L42.5522 42.1764L41.4399 41.1382L42.7322 39.9306L42.1178 39.3586L45.2004 36.4772ZM45.2004 42.1869V46.6149L44.4801 45.884V45.0259H43.7174L43.103 44.4009L43.7174 43.7865H44.4801V42.9179L45.2004 42.1869ZM39.9462 43.7547L40.0522 44.3585L39.9462 44.9729L39.2895 44.3585L39.9462 43.7547Z" fill="black"/>
<path d="M45.2004 36.6043V37.5365L43.2512 39.3585L43.8657 39.9305L42.5627 41.1382L43.3466 41.8691V40.9899H44.2894V41.7737L41.8212 44.0725H40.6771L40.5606 43.4157H41.4081L40.3911 42.4623L38.2725 44.4009L40.3911 46.3394L41.4081 45.3966H40.5606L40.6774 44.7293H41.8215L44.2897 47.028V47.8119H43.3469V46.9326L42.563 47.6636L43.866 48.8712L43.2515 49.4538L45.2007 51.2653V52.1975L42.2452 49.4538L42.8596 48.8712L41.5672 47.6636L42.6795 46.6254L41.8109 45.8203L40.3914 47.1445L37.4147 44.4009L40.3914 41.6572L41.8109 42.9814L42.6795 42.1763L41.5672 41.1381L42.8596 39.9305L42.2452 39.3585L45.2007 36.6042L45.2004 36.6043ZM45.2004 42.314V46.4877L44.5648 45.8521V44.9305H43.7491L43.2195 44.4009L43.7491 43.8712H44.5648V42.9496L45.2004 42.314ZM39.8826 43.9242L39.9568 44.3585L39.8826 44.7928L39.4165 44.3585L39.8826 43.9242Z" fill="#FDD406"/>
<path d="M45.2004 59.0365V60.2124L43.3784 61.9179L43.9928 62.4899L42.6899 63.6975L43.2619 64.2166V63.4645H44.3742V64.3649L41.8636 66.7166H40.5924L40.4547 65.8903H41.1856L40.3912 65.1488L38.3996 66.9602L40.3912 68.7823L41.1856 68.0407H40.4547L40.5924 67.2039H41.8636L44.3742 69.5556V70.456H43.2619V69.7039L42.6899 70.223L43.9928 71.4306L43.3784 72.0132L45.2004 73.7081V74.884L42.1178 72.0132L42.7322 71.4306L41.4399 70.223L42.5522 69.1848L41.8106 68.5069L40.3912 69.8204L37.2767 66.9603L40.3912 64.1001L41.8106 65.4243L42.5522 64.7357L41.4399 63.6976L42.7322 62.4899L42.1178 61.9179L45.2004 59.0365ZM45.2004 64.7463V69.1742L44.4801 68.4433V67.5852H43.7174L43.103 66.9602L43.7174 66.3458H44.4801V65.4772L45.2004 64.7463ZM39.9462 66.3141L40.0522 66.9179L39.9462 67.5323L39.2895 66.9179L39.9462 66.3141Z" fill="black"/>
<path d="M45.2004 59.1636V60.0958L43.2512 61.9178L43.8657 62.4899L42.5627 63.6975L43.3466 64.4284V63.5492H44.2894V64.3331L41.8212 66.6318H40.6771L40.5606 65.975H41.4081L40.3911 65.0216L38.2725 66.9602L40.3911 68.8987L41.4081 67.956H40.5606L40.6774 67.2886H41.8215L44.2897 69.5873V70.3712H43.3469V69.492L42.563 70.2229L43.866 71.4305L43.2515 72.0131L45.2007 73.8246V74.7568L42.2452 72.0131L42.8596 71.4305L41.5672 70.2229L42.6795 69.1848L41.8109 68.3797L40.3914 69.7038L37.4147 66.9602L40.3914 64.2165L41.8109 65.5407L42.6795 64.7356L41.5672 63.6975L42.8596 62.4898L42.2452 61.9178L45.2007 59.1636L45.2004 59.1636ZM45.2004 64.8733V69.0471L44.5648 68.4115V67.4899H43.7491L43.2195 66.9602L43.7491 66.4305H44.5648V65.5089L45.2004 64.8733ZM39.8826 66.4835L39.9568 66.9178L39.8826 67.3522L39.4165 66.9178L39.8826 66.4835Z" fill="#FDD406"/>
<path d="M45.2004 81.5958V82.7717L43.3784 84.4772L43.9928 85.0492L42.6899 86.2568L43.2619 86.7759V86.0238H44.3742V86.9242L41.8636 89.2759H40.5924L40.4547 88.4496H41.1856L40.3912 87.7081L38.3996 89.5196L40.3912 91.3416L41.1856 90.6001H40.4547L40.5924 89.7632H41.8636L44.3742 92.1149V93.0153H43.2619V92.2632L42.6899 92.7823L43.9928 93.9899L43.3784 94.5725L45.2004 96.2675V97.4433L42.1178 94.5725L42.7322 93.9899L41.4399 92.7823L42.5522 91.7442L41.8106 91.0662L40.3912 92.3798L37.2767 89.5196L40.3912 86.6594L41.8106 87.9836L42.5522 87.295L41.4399 86.2569L42.7322 85.0493L42.1178 84.4772L45.2004 81.5958ZM45.2004 87.3056V91.7335L44.4801 91.0026V90.1446H43.7174L43.103 89.5196L43.7174 88.9052H44.4801V88.0365L45.2004 87.3056ZM39.9462 88.8734L40.0522 89.4772L39.9462 90.0916L39.2895 89.4772L39.9462 88.8734Z" fill="black"/>
<path d="M45.2004 81.7229V82.6551L43.2512 84.4771L43.8657 85.0492L42.5627 86.2568L43.3466 86.9877V86.1085H44.2894V86.8924L41.8212 89.1911H40.6771L40.5606 88.5343H41.4081L40.3911 87.581L38.2725 89.5195L40.3911 91.4581L41.4081 90.5153H40.5606L40.6774 89.8479H41.8215L44.2897 92.1466V92.9305H43.3469V92.0513L42.563 92.7822L43.866 93.9898L43.2515 94.5725L45.2007 96.3839V97.3161L42.2452 94.5725L42.8596 93.9898L41.5672 92.7822L42.6795 91.7441L41.8109 90.939L40.3914 92.2632L37.4147 89.5195L40.3914 86.7759L41.8109 88.1L42.6795 87.2949L41.5672 86.2568L42.8596 85.0492L42.2452 84.4771L45.2007 81.7229L45.2004 81.7229ZM45.2004 87.4327V91.6064L44.5648 90.9708V90.0492H43.7491L43.2195 89.5195L43.7491 88.9899H44.5648V88.0683L45.2004 87.4327ZM39.8826 89.0428L39.9568 89.4772L39.8826 89.9115L39.4165 89.4772L39.8826 89.0428Z" fill="#FDD406"/>
<path d="M16.854 14.0678L14.2578 12.4758V8.64874L16.854 7.0567V5.0317L19.3074 3.55426H21.2675L24.997 1.45654H33.0036L36.7332 3.55426H38.6933L41.1467 5.0317V7.0567L43.7429 8.64874L43.7428 12.4758L41.1467 14.0678V16.0928L38.6933 17.5703H36.7332L33.0036 19.668H24.997L21.2675 17.5703H19.3074L16.854 16.0928V14.0678Z" fill="black"/>
<path d="M25.0143 1.54651L21.2855 3.64397H19.3363L16.9423 5.08464V7.10794L14.3469 8.69693V12.4257L16.9423 14.0147V16.0486L19.3257 17.4893H21.2855L25.0143 19.5868H32.9804L36.7092 17.4893H38.6689L41.063 16.0486V14.0147L43.6584 12.4257V8.69693L41.063 7.10794V5.08464L38.6689 3.64397H36.7092L32.9804 1.54651H25.0143ZM25.2368 2.31981H32.7685L36.4973 4.41727H38.4465L40.2579 5.50838V7.53168L42.8638 9.12067V12.002L40.2579 13.591V15.6143L38.4465 16.7054H36.4973L32.7685 18.8029H25.2368L21.508 16.7054H19.5588L17.7368 15.6143V13.591L15.1414 12.002V9.12067L17.7368 7.53168V5.50838L19.5588 4.41727H21.508L25.2368 2.31981Z" fill="#1E9A1C"/>
<path d="M28.9573 10.605V2.40332H25.2562L21.5265 4.50104H19.5821L17.8231 5.56028V7.58036L15.2271 9.17228V10.5194L29.0432 10.5193V18.7212H32.7444L36.474 16.6234H38.4184L40.1773 15.5642V13.5442L42.7735 11.9522V10.6051L28.9573 10.605Z" fill="#FDD406"/>
<path d="M15.2269 10.6051L15.2268 11.9522L17.823 13.5442V15.5642L19.5818 16.6234H21.5263L25.2559 18.7212H28.9572V10.5193L42.7733 10.5194V9.17228L40.1771 7.58036V5.56028L38.4183 4.50104H36.4738L32.7442 2.40332H29.0431V10.605L15.2269 10.6051Z" fill="white"/>
<path d="M20.8904 5.25608L20.2513 4.6604L19.6181 5.05088L20.2583 5.64776L19.4363 6.15704H21.23L22.7759 7.61516L23.2704 7.09292L21.7674 5.67512V4.71272L20.8904 5.25608Z" fill="black"/>
<path d="M23.9153 4.99436L23.2762 4.39868L22.643 4.78916L23.2832 5.38604L22.4612 5.89532H24.2549L25.8008 7.35345L26.2953 6.83121L24.7923 5.4134V4.451L23.9153 4.99436Z" fill="black"/>
<path d="M20.6686 6.96714L20.0295 6.37146L19.3964 6.76194L20.0365 7.35882L19.2146 7.8681H21.0084L22.5541 9.32622L23.0486 8.80398L21.5456 7.38618V6.42378L20.6686 6.96714Z" fill="black"/>
<path d="M29.0003 2.31775H27.3817L26.5347 3.13399H24.8836L23.6636 3.76723L23.9481 4.46047L25.0361 3.88903H25.5127L27.1809 5.81839L29.0003 4.71043L29.0003 2.31775Z" fill="black"/>
<path d="M20.2407 4.76758L20.815 5.3029L20.3338 5.60098L19.7587 5.06482L20.2407 4.76758ZM21.6818 4.86658V5.71198L23.1493 7.09629L22.7725 7.49421L21.2642 6.07138H19.7371L21.6818 4.86658Z" fill="#E23726"/>
<path d="M23.2656 4.50586L23.8399 5.04118L23.3587 5.33926L22.7837 4.8031L23.2656 4.50586ZM24.7067 4.60486V5.45026L26.1742 6.83457L25.7974 7.2325L24.2891 5.80978H22.762L24.7067 4.60486Z" fill="#E23726"/>
<path d="M20.0191 6.47864L20.5933 7.01396L20.1121 7.31204L19.5371 6.77588L20.0191 6.47864ZM21.4601 6.57764V7.42304L22.9276 8.80735L22.5509 9.20527L21.0426 7.78256H19.5154L21.4601 6.57764Z" fill="#E23726"/>
<path d="M28.9575 2.40332H27.4163L26.5693 3.21956H24.9045L23.7725 3.80708L23.9915 4.34084L25.0148 3.80348H25.5518L27.1982 5.70764L28.9575 4.6364L28.9575 2.40332Z" fill="#E23726"/>
<path d="M20.8904 15.8683L20.2513 16.464L19.6181 16.0735L20.2583 15.4766L19.4363 14.9673H21.23L22.7759 13.5092L23.2704 14.0315L21.7674 15.4493V16.4117L20.8904 15.8683Z" fill="black"/>
<path d="M23.9153 16.13L23.2762 16.7257L22.643 16.3352L23.2832 15.7383L22.4612 15.2291H24.2549L25.8008 13.7709L26.2953 14.2932L24.7923 15.711V16.6734L23.9153 16.13Z" fill="black"/>
<path d="M20.6686 14.1572L20.0295 14.7529L19.3964 14.3625L20.0365 13.7656L19.2146 13.2563H21.0084L22.5541 11.7982L23.0486 12.3204L21.5456 13.7382V14.7006L20.6686 14.1572Z" fill="black"/>
<path d="M29.0003 18.8066H27.3817L26.5347 17.9904H24.8836L23.6636 17.3572L23.9481 16.6639L25.0361 17.2354H25.5127L27.1809 15.306L29.0003 16.414L29.0003 18.8066Z" fill="black"/>
<path d="M20.2407 16.3568L20.815 15.8215L20.3338 15.5234L19.7587 16.0596L20.2407 16.3568ZM21.6818 16.2578V15.4124L23.1493 14.0281L22.7725 13.6302L21.2642 15.053H19.7371L21.6818 16.2578Z" fill="#E23726"/>
<path d="M23.2656 16.6185L23.8399 16.0832L23.3587 15.7851L22.7837 16.3213L23.2656 16.6185ZM24.7067 16.5195V15.6741L26.1742 14.2898L25.7974 13.8919L24.2891 15.3146H22.762L24.7067 16.5195Z" fill="#E23726"/>
<path d="M20.0191 14.6458L20.5933 14.1104L20.1121 13.8124L19.5371 14.3485L20.0191 14.6458ZM21.4601 14.5468V13.7014L22.9276 12.317L22.5509 11.9191L21.0426 13.3418H19.5154L21.4601 14.5468Z" fill="#E23726"/>
<path d="M28.9575 18.7211H27.4163L26.5693 17.9048H24.9045L23.7725 17.3173L23.9915 16.7835L25.0148 17.3209H25.5518L27.1982 15.4167L28.9575 16.488L28.9575 18.7211Z" fill="#E23726"/>
<path d="M19.8116 7.94217L19.0399 7.65381L19.0214 7.66665L18.025 8.35809V8.54397L16.429 10.5622L18.025 12.5805V12.7665L19.0399 13.4707L19.8116 13.1823L19.3406 12.8704V12.277L19.5278 12.0531H20.3641V9.07137H19.5278L19.3406 8.84745V8.25405L19.8116 7.94217Z" fill="black"/>
<path d="M18.1106 8.40267L19.0519 7.74963L19.6243 7.96347L19.2549 8.20803V8.87847L19.4877 9.15687H20.2783V11.9675H19.4877L19.2549 12.2459V12.9164L19.6243 13.1609L19.0519 13.3748L18.1106 12.7217L18.1107 12.5507L16.5381 10.5622L18.1107 8.57356L18.1106 8.40267Z" fill="#E23726"/>
<path d="M37.1098 5.25608L37.7489 4.6604L38.3822 5.05088L37.742 5.64776L38.564 6.15704H36.7702L35.2244 7.61516L34.7298 7.09292L36.2328 5.67512V4.71272L37.1098 5.25608Z" fill="black"/>
<path d="M34.0849 4.99436L34.724 4.39868L35.3573 4.78916L34.7171 5.38604L35.5391 5.89532H33.7453L32.1995 7.35345L31.7049 6.83121L33.2079 5.4134V4.451L34.0849 4.99436Z" fill="black"/>
<path d="M37.3316 6.96714L37.9707 6.37146L38.6038 6.76194L37.9638 7.35882L38.7856 7.8681H36.9919L35.4462 9.32622L34.9516 8.80398L36.4546 7.38618V6.42378L37.3316 6.96714Z" fill="black"/>
<path d="M29 2.31775H30.6186L31.4655 3.13399H33.1166L34.3367 3.76723L34.0521 4.46047L32.9641 3.88903H32.4876L30.8194 5.81839L28.9999 4.71043L29 2.31775Z" fill="black"/>
<path d="M37.7595 4.76758L37.1852 5.3029L37.6664 5.60098L38.2416 5.06482L37.7595 4.76758ZM36.3185 4.86658V5.71198L34.851 7.09629L35.2278 7.49421L36.7361 6.07138H38.2632L36.3185 4.86658Z" fill="#E23726"/>
<path d="M34.7346 4.50586L34.1603 5.04118L34.6415 5.33926L35.2166 4.8031L34.7346 4.50586ZM33.2936 4.60486V5.45026L31.8261 6.83457L32.2029 7.2325L33.7112 5.80978H35.2383L33.2936 4.60486Z" fill="#E23726"/>
<path d="M37.9811 6.47864L37.4069 7.01396L37.8881 7.31204L38.4631 6.77588L37.9811 6.47864ZM36.5401 6.57764V7.42304L35.0727 8.80735L35.4493 9.20527L36.9576 7.78256H38.4849L36.5401 6.57764Z" fill="#E23726"/>
<path d="M29.0428 2.40332H30.584L31.4309 3.21956H33.0957L34.2278 3.80708L34.0088 4.34084L32.9854 3.80348H32.4484L30.802 5.70764L29.0428 4.6364L29.0428 2.40332Z" fill="#E23726"/>
<path d="M37.1098 15.8683L37.7489 16.464L38.3822 16.0735L37.742 15.4766L38.564 14.9673H36.7702L35.2244 13.5092L34.7298 14.0315L36.2328 15.4493V16.4117L37.1098 15.8683Z" fill="black"/>
<path d="M34.0849 16.13L34.724 16.7257L35.3573 16.3352L34.7171 15.7383L35.5391 15.2291H33.7453L32.1995 13.7709L31.7049 14.2932L33.2079 15.711V16.6734L34.0849 16.13Z" fill="black"/>
<path d="M37.3316 14.1572L37.9707 14.7529L38.6038 14.3625L37.9638 13.7656L38.7856 13.2563H36.9919L35.4462 11.7982L34.9516 12.3204L36.4546 13.7382V14.7006L37.3316 14.1572Z" fill="black"/>
<path d="M29 18.8066H30.6186L31.4655 17.9904H33.1166L34.3367 17.3572L34.0521 16.6639L32.9641 17.2354H32.4876L30.8194 15.306L28.9999 16.414L29 18.8066Z" fill="black"/>
<path d="M37.7595 16.3568L37.1852 15.8215L37.6664 15.5234L38.2416 16.0596L37.7595 16.3568ZM36.3185 16.2578V15.4124L34.851 14.0281L35.2278 13.6302L36.7361 15.053H38.2632L36.3185 16.2578Z" fill="#E23726"/>
<path d="M34.7346 16.6185L34.1603 16.0832L34.6415 15.7851L35.2166 16.3213L34.7346 16.6185ZM33.2936 16.5195V15.6741L31.8261 14.2898L32.2029 13.8919L33.7112 15.3146H35.2383L33.2936 16.5195Z" fill="#E23726"/>
<path d="M37.9811 14.6458L37.4069 14.1104L37.8881 13.8124L38.4631 14.3485L37.9811 14.6458ZM36.5401 14.5468V13.7014L35.0727 12.317L35.4493 11.9191L36.9576 13.3418H38.4849L36.5401 14.5468Z" fill="#E23726"/>
<path d="M29.0428 18.7211H30.584L31.4309 17.9048H33.0957L34.2278 17.3173L34.0088 16.7835L32.9854 17.3209H32.4484L30.802 15.4167L29.0428 16.488L29.0428 18.7211Z" fill="#E23726"/>
<path d="M38.1886 7.94217L38.9603 7.65381L38.9788 7.66665L39.9753 8.35809V8.54397L41.5713 10.5622L39.9753 12.5805V12.7665L38.9603 13.4707L38.1886 13.1823L38.6596 12.8704V12.277L38.4724 12.0531H37.6361V9.07137H38.4724L38.6596 8.84745V8.25405L38.1886 7.94217Z" fill="black"/>
<path d="M39.8897 8.40267L38.9484 7.74963L38.376 7.96347L38.7454 8.20803V8.87847L38.5126 9.15687H37.722V11.9675H38.5126L38.7454 12.2459V12.9164L38.376 13.1609L38.9484 13.3748L39.8897 12.7217L39.8896 12.5507L41.4622 10.5622L39.8896 8.57356L39.8897 8.40267Z" fill="#E23726"/>
<path d="M18.4414 12.2564L18.0069 11.8804V11.6992L17.0747 10.5622L18.007 9.42511V9.24403L18.4415 8.86807L19.222 9.50275L18.7715 9.49927L19.4371 10.1749H20.9582L22.1543 9.23947V6.77263H25.146L28.6205 4.64047V4.08127L28.0892 3.72715H27.9208L27.3422 4.11439L27.2525 4.40323L26.7999 3.78523L27.6796 3.04615H27.8202L28.813 2.31775H29.1873L30.1799 3.04615H30.3207L31.2004 3.78523L30.7478 4.40323L30.6581 4.11439L30.0795 3.72715H29.9111L29.3798 4.08127V4.64047L32.8542 6.77263H35.846V9.23947L37.0421 10.1749H38.5631L39.2288 9.49927L38.7783 9.50275L39.5588 8.86807L39.9933 9.24403V9.42511L40.9256 10.5622L39.9933 11.6992V11.8804L39.5588 12.2564L38.7783 11.6217L39.2288 11.6252L38.5631 10.9495H37.0421L35.846 11.885V14.3518H32.8542L29.3798 16.484V17.0432L29.9111 17.3973H30.0795L30.6581 17.0101L30.7478 16.7212L31.2004 17.3391L30.3207 18.0783H30.1799L29.1873 18.8067H28.813L27.8202 18.0783H27.6796L26.7998 17.3391L27.2525 16.7212L27.3422 17.0101L27.9207 17.3973H28.089L28.6205 17.0432V16.484L25.146 14.3518H22.1543V11.885L20.958 10.9495H19.4371L18.7715 11.6252L19.222 11.6217L18.4414 12.2564Z" fill="black"/>
<path d="M29.043 17.4638L29.4233 17.7546L29.043 18.0453V17.4638ZM27.8342 17.9926H27.8483L28.841 18.7212H28.9569V18.1528L28.4361 17.7546L28.9571 17.3563V16.2888L25.2392 14.0072H22.4909V11.7147L21.0719 10.605H18.9315L18.3936 11.2132L17.8556 10.605L17.2205 10.6051L18.0924 11.6685V11.8412L18.4377 12.1412L18.9926 11.7092L18.6669 11.7117V11.6037L19.3927 10.8639H20.9875L22.2399 11.8434V14.2663H25.1702L28.706 16.4361V17.0889L28.1149 17.4829H27.8945L27.2691 17.0643L27.221 16.909L26.9161 17.3252L27.7107 17.9926L27.8342 17.9926ZM18.3941 10.0406L18.8177 10.5194H17.9703L18.3941 10.0406ZM28.9572 3.07916L28.5771 3.36992L28.9572 3.66056V3.07916ZM39.1826 10.6051L39.6062 11.0839L40.0298 10.6051H39.1826ZM30.1518 3.13172L29.159 2.40332H29.0431V2.9714L29.5641 3.36992L29.043 3.76844V4.83572L32.7608 7.11728H35.5092V9.40976L36.9282 10.5195H39.0681L39.6062 9.91136L40.1443 10.5194H40.7796L39.9077 9.45596V9.28328L39.5623 8.98328L39.0074 9.41528L39.3331 9.41264V9.52076L38.6073 10.2604H37.0125L35.7602 9.281V6.8582H32.8298L29.294 4.68836V4.03544L29.8851 3.6416H30.1056L30.7309 4.06016L30.779 4.21544L31.0839 3.79928L30.2893 3.13172L30.1518 3.13172Z" fill="#FDD406"/>
<path d="M28.9572 18.0452L28.5771 17.7546L28.9572 17.4639V18.0452ZM18.8177 10.6051L18.3941 11.0839L17.9705 10.6051H18.8177ZM30.1658 17.9926H30.1518L29.159 18.7212H29.0431V18.5724V18.1531L29.5641 17.7546L29.043 17.356V16.2888L32.7608 14.0072H35.5092V11.7147L36.9282 10.605H39.0683L39.6062 11.2132L40.1442 10.605L40.7796 10.6051L39.9077 11.6685V11.8412L39.5623 12.1412L39.0074 11.7092L39.3331 11.7117V11.6037L38.6074 10.8639H37.0125L35.7602 11.8434V14.2663H32.8298L29.294 16.4361V17.0889L29.8851 17.4829H30.1056L30.7309 17.0643L30.779 16.909L31.0839 17.3252L30.2893 17.9926L30.1658 17.9926ZM39.6062 10.0406L39.1826 10.5194H40.0299L39.6062 10.0406ZM27.8485 3.13172L28.8413 2.40332H28.9573V2.9714L28.4361 3.36992L28.9573 3.76844L28.9574 4.83572L25.2395 7.11728H22.4912V9.40976L21.0721 10.5195H18.9315L18.3936 9.91136L17.8555 10.5194H17.2207L18.0927 9.45596V9.28328L18.4381 8.98328L18.9929 9.41528L18.6672 9.41264V9.52076L19.3931 10.2604H20.9877L22.2402 9.281V6.8582H25.1705L28.7064 4.68836V4.03544L28.1153 3.6416H27.8947L27.2694 4.06016L27.2213 4.21544L26.9165 3.79928L27.7111 3.13172L27.8485 3.13172ZM29.043 3.66068L29.4233 3.36992L29.043 3.07916V3.66068Z" fill="white"/>
<path d="M28.9574 10.605V4.93604L25.2637 7.20284H22.5768V9.4514L21.2112 10.5194L29.0432 10.5193V16.1883L32.7367 13.9216H35.4236V11.6731L36.7892 10.6051L28.9574 10.605Z" fill="#1E9A1C"/>
<path d="M21.2109 10.605L22.5767 11.673V13.9215H25.2635L28.9573 16.1883V10.5191L36.7891 10.5193L35.4235 9.45127V7.20271H32.7366L29.0431 4.93604V10.6049L21.2109 10.605Z" fill="#E23726"/>
<path d="M25.0244 7.81272L24.3854 7.21704L23.7521 7.6074L24.3923 8.20428L23.5703 8.71356H25.3641L26.9099 10.1718L27.4044 9.64945L25.9014 8.23164V7.26936L25.0244 7.81272Z" fill="black"/>
<path d="M32.9754 13.3118L33.6145 13.9075L34.2477 13.517L33.6076 12.9202L34.4296 12.411H32.6357L31.09 10.9528L30.5955 11.475L32.0985 12.8929V13.8552L32.9754 13.3118Z" fill="black"/>
<path d="M25.0244 13.3118L24.3852 13.9075L23.7521 13.517L24.3922 12.9202L23.5703 12.411H25.3641L26.9098 10.9528L27.4043 11.475L25.9013 12.8929V13.8552L25.0244 13.3118Z" fill="black"/>
<path d="M32.9754 7.81272L33.6145 7.21704L34.2477 7.6074L33.6076 8.20428L34.4296 8.71356H32.6357L31.09 10.1718L30.5955 9.64945L32.0985 8.23164V7.26936L32.9754 7.81272Z" fill="black"/>
<path d="M33.6251 13.8003L33.0509 13.265L33.5321 12.9669L34.1071 13.503L33.6251 13.8003ZM32.1841 13.7013V12.856L30.7166 11.4717L31.0934 11.0736L32.6017 12.4965H34.1288L32.1841 13.7013ZM24.3747 7.32397L24.9491 7.85929L24.4677 8.15749L23.8927 7.62133L24.3747 7.32397ZM25.8158 7.42309V8.26837L27.2833 9.65269L26.9065 10.0507L25.3982 8.62789H23.8711L25.8158 7.42309Z" fill="#E23726"/>
<path d="M33.6252 7.32397L33.051 7.85929L33.5322 8.15749L34.1072 7.62133L33.6252 7.32397ZM32.1842 7.42309V8.26837L30.7167 9.65269L31.0935 10.0507L32.6018 8.62789H34.1289L32.1842 7.42309ZM24.3749 13.8003L24.9491 13.265L24.4679 12.9669L23.8928 13.503L24.3749 13.8003ZM25.8158 13.7013V12.856L27.2833 11.4717L26.9066 11.0736L25.3983 12.4965H23.8711L25.8158 13.7013Z" fill="#1E9A1C"/>
<path d="M32.9719 10.5624L29.0001 13.2094L25.0283 10.5624L29.0001 7.91516L32.9719 10.5624Z" fill="black"/>
<path d="M28.9572 8.04651L25.2469 10.5193H32.7533L29.043 8.04651V13.0779L32.7534 10.605H25.2468L28.9572 13.0779V8.04651Z" fill="white"/>
<path d="M30.0623 11.4725V12.2003H27.9382V11.4725H26.5635V9.65187H27.9382V8.92407H30.0623V9.65187H31.4369V11.4725H30.0623Z" fill="black"/>
<path d="M28.024 9.00965V9.73745H26.6494V10.5194H28.9575V9.00964L28.024 9.00965ZM29.0433 10.5194H31.3514V9.73745H29.9768V9.00965H29.0433L29.0433 10.5194ZM26.6494 10.6051V11.387H28.024V12.1148H28.9575V10.605L26.6494 10.6051ZM29.0433 12.1148H29.9768V11.387H31.3514V10.6051H29.0433V12.1148Z" fill="#E23726"/>
<path d="M35.7762 40.7219V39.5559H38.9739V38.3898H42.1715V27.8536H38.9739V26.6875H35.7762V25.5215H32.5786V24.3555H25.4221V25.5215H22.2245V26.6875H19.0267V27.8536H15.8291V38.3898H19.0267V39.5559H22.2245V40.7219H25.4221V41.8879H32.5786V40.7219H35.7762Z" fill="black"/>
<path d="M25.5124 24.4385V25.6037H22.3131V26.769H19.114V27.9342H15.9148V38.305H19.114V39.4704H22.3131V40.6355H25.5124V41.8006H32.493V40.6355H35.6924V39.4704H38.8917V38.305H42.0907V27.9342H38.8917V26.769H35.6924V25.6037H32.493V24.4385H25.5124ZM26.3598 25.2859H31.6456V26.4512H34.8449V27.6164H38.0442V28.7817H41.2432V37.4575H38.0442V38.6229H34.8449V39.788H31.6456V40.9531H26.3598V39.788H23.1606V38.6229H19.9614V37.4575H16.7623V28.7817H19.9614V27.6164H23.1606V26.4512H26.3598V25.2859Z" fill="#FDD406"/>
<path d="M23.2426 39.7037V38.5375H20.0449V37.3716H16.8472V28.8715H20.0449V27.7055H23.2426V26.5395H26.4402V25.3735H31.5604V26.5395H34.7581V27.7055H37.9556V28.8715H41.1534V37.3716H37.9556V38.5375H34.7581V39.7037H31.5604V40.8696H26.4402V39.7037H23.2426Z" fill="#E23726"/>
<path d="M23.9848 27.4028L23.1566 26.7767V27.9789L22.3635 28.4829L22.3615 27.7304L21.6008 28.4136L20.8401 27.7304L20.8381 28.4829L19.9592 27.9244V29.039L19.2489 29.5532L19.2469 28.8698L18.4031 29.4809L17.5592 28.8698L17.5572 29.5532L16.7613 28.9769V32.3532H15.8289V33.8901H16.7613V37.2664L17.5572 36.69L17.5592 37.3736L18.4031 36.7624L19.2468 37.3736L19.2488 36.69L19.9591 37.2042V38.3189L20.838 37.7604L20.84 38.513L21.6007 37.8297L22.3614 38.513L22.3634 37.7604L23.1565 38.2643V39.4666L23.9847 38.8406L23.9865 39.6802L24.7982 38.9543L25.61 39.6802L25.6118 38.8406L26.3544 39.4018V40.684L27.4646 39.672V40.8612L29.0001 39.874L30.5358 40.8612V39.672L31.646 40.684V39.4018L32.3885 38.8406L32.3903 39.6802L33.2021 38.9543L34.0139 39.6802L34.0157 38.8406L34.8437 39.4666V38.2643L35.637 37.7604L35.639 38.513L36.3998 37.8297L37.1605 38.513L37.1625 37.7604L38.0415 38.3189V37.2042L38.7517 36.69L38.7537 37.3736L39.5975 36.7624L40.4413 37.3736L40.4433 36.69L41.2393 37.2663V33.8901H42.1717V32.3532H41.2393V28.9769L40.4433 29.5532L40.4413 28.8698L39.5975 29.4809L38.7536 28.8698L38.7518 29.5532L38.0415 29.039V27.9244L37.1625 28.4829L37.1605 27.7304L36.3999 28.4136L35.6391 27.7304L35.6371 28.4829L34.8437 27.9788V26.7767L34.0157 27.4026L34.0139 26.563L33.2021 27.289L32.3903 26.563L32.3885 27.4028L31.6461 26.8413V25.5593L30.5359 26.5713V25.3821L29.0002 26.3693L27.4647 25.3821V26.5713L26.3545 25.5593V26.8414L25.6119 27.4028L25.6101 26.563L24.7983 27.289L23.9866 26.563L23.9848 27.4028Z" fill="black"/>
<path d="M17.6428 29.7206L17.6448 29.0371L18.4033 29.5866L18.4289 29.568L19.1618 29.0371L19.1638 29.7206L19.9594 29.1447V37.0983L19.1638 36.5225L19.1618 37.206L18.4033 36.6565L17.6448 37.206L17.6428 36.5225L16.8472 37.0983V33.8042H15.9148V32.4389H16.8472V29.1447L17.6428 29.7206Z" fill="#1E9A1C"/>
<path d="M24.072 26.7543L24.7985 27.404L25.525 26.7543L25.5268 27.5747L26.3546 26.9489V39.2944L25.5268 38.6686L25.525 39.489L24.7985 38.8394L24.072 39.489L24.0704 38.6686L23.2427 39.2944V26.9489L24.0704 27.5747L24.072 26.7543Z" fill="#1E9A1C"/>
<path d="M33.9289 26.7543L33.2024 27.404L32.4759 26.7543L32.4741 27.5747L31.6465 26.9489V39.2944L32.4741 38.6686L32.4759 39.489L33.2024 38.8394L33.9289 39.489L33.9307 38.6686L34.7584 39.2944V26.9489L33.9307 27.5747L33.9289 26.7543Z" fill="#1E9A1C"/>
<path d="M40.3579 29.7206L40.3559 29.0371L39.5974 29.5866L39.5717 29.568L38.8387 29.0371L38.8367 29.7206L38.0413 29.1447V37.0983L38.8367 36.5225L38.8387 37.206L39.5974 36.6565L40.3559 37.206L40.3579 36.5225L41.1534 37.0983V33.8042H42.0858V32.4389H41.1534V29.1447L40.3579 29.7206Z" fill="#1E9A1C"/>
<path d="M20.9252 27.9221L21.6007 28.529L22.2762 27.9221L22.2782 28.6388L23.1567 28.0804V38.1629L22.2782 37.6047L22.2762 38.3212L21.6007 37.7145L20.9252 38.3212L20.9232 37.6047L20.0447 38.1629V28.0804L20.9232 28.6388L20.9252 27.9221Z" fill="#FDD406"/>
<path d="M27.5502 26.7653L26.4399 25.7534V40.4899L27.5502 39.4779V40.7042L28.9999 39.7721H29.0001L30.4499 40.7042V39.4779L31.5601 40.4899V25.7534L30.4499 26.7653V25.5391L29.0001 26.4711H28.9999L27.5502 25.5391V26.7653Z" fill="#FDD406"/>
<path d="M37.0753 27.9221L36.3998 28.529L35.7242 27.9221L35.7224 28.6388L34.8438 28.0804V38.1629L35.7224 37.6047L35.7242 38.3212L36.3998 37.7145L37.0753 38.3212L37.0773 37.6047L37.9558 38.1629V28.0804L37.0773 28.6388L37.0753 27.9221Z" fill="#FDD406"/>
<path d="M18.0582 31.6731C18.1553 31.771 18.2713 31.8206 18.4031 31.8206C18.5347 31.8206 18.6508 31.771 18.748 31.6731C19.0517 31.3671 19.0619 30.8137 19.0589 30.4154C19.0589 30.4154 18.7078 30.7864 18.6444 30.8534C18.6002 30.7771 18.4031 30.4366 18.4031 30.4366C18.4031 30.4366 18.2059 30.7771 18.1616 30.8534C18.0983 30.7864 17.7472 30.4154 17.7472 30.4154C17.7442 30.8137 17.7545 31.3671 18.0582 31.6731Z" fill="black"/>
<path d="M21.3939 30.816L21.1381 30.5604V30.0511L20.5505 30.5956L21.6008 31.6459L22.651 30.5956L22.0635 30.0511V30.5604L21.8078 30.816V29.9137L22.2608 29.5248L21.6008 28.958L20.9408 29.5248L21.3939 29.9137V30.816Z" fill="black"/>
<path d="M24.5913 29.8039L24.3356 29.5482V29.0389L23.748 29.5834L24.7983 30.6337L25.8485 29.5834L25.261 29.0389V29.5482L25.0052 29.8039V28.9015L25.4583 28.5126L24.7983 27.9459L24.1383 28.5126L24.5913 28.9015V29.8039Z" fill="black"/>
<path d="M18.4033 30.6077C18.4558 30.6981 18.628 30.9956 18.628 30.9956C18.628 30.9956 18.8706 30.7391 18.9697 30.6345C18.9578 31.0843 18.8591 31.4396 18.6874 31.6125C18.6068 31.6937 18.5113 31.7348 18.4033 31.7348C18.2952 31.7348 18.1997 31.6937 18.1193 31.6127C17.9476 31.4396 17.8488 31.0843 17.8369 30.6345C17.9359 30.7392 18.1786 30.9956 18.1786 30.9956C18.2534 30.8663 18.3284 30.7369 18.4033 30.6077Z" fill="white"/>
<path d="M24.9195 28.8622V30.0109L25.3467 29.5838V29.2353L25.725 29.586L24.7983 30.5126L23.8716 29.586L24.2498 29.2353V29.5838L24.677 30.0109V28.8622L24.2699 28.5127L24.7983 28.059L25.3267 28.5127L24.9195 28.8622Z" fill="white"/>
<path d="M21.722 29.8743V31.023L22.1492 30.5958V30.2474L22.5275 30.5979L21.6007 31.5247L20.6741 30.5979L21.0523 30.2474V30.5958L21.4795 31.023V29.8743L21.0724 29.5248L21.6007 29.071L22.1292 29.5248L21.722 29.8743Z" fill="#E23726"/>
<path d="M39.942 31.6731C39.845 31.771 39.7289 31.8206 39.5972 31.8206C39.4655 31.8206 39.3495 31.771 39.2523 31.6731C38.9486 31.3671 38.9384 30.8137 38.9414 30.4154C38.9414 30.4154 39.2925 30.7864 39.3558 30.8534C39.4 30.7771 39.5972 30.4366 39.5972 30.4366C39.5972 30.4366 39.7943 30.7771 39.8386 30.8534C39.902 30.7864 40.2531 30.4154 40.2531 30.4154C40.2561 30.8137 40.2458 31.3671 39.942 31.6731Z" fill="black"/>
<path d="M36.6063 30.8158L36.8622 30.5602V30.051L37.4497 30.5955L36.3995 31.6458L35.3492 30.5955L35.9367 30.051V30.5602L36.1925 30.8158V29.9136L35.7395 29.5246L36.3995 28.9579L37.0595 29.5246L36.6063 29.9136V30.8158Z" fill="black"/>
<path d="M33.409 29.8039L33.6647 29.5482V29.0389L34.2522 29.5834L33.202 30.6337L32.1517 29.5834L32.7392 29.0389V29.5482L32.9951 29.8039V28.9015L32.542 28.5126L33.202 27.9459L33.862 28.5126L33.409 28.9015V29.8039Z" fill="black"/>
<path d="M39.5969 30.6077C39.5445 30.6981 39.3723 30.9956 39.3723 30.9956C39.3723 30.9956 39.1296 30.7391 39.0305 30.6345C39.0424 31.0843 39.1412 31.4396 39.3129 31.6125C39.3934 31.6937 39.4889 31.7348 39.5969 31.7348C39.705 31.7348 39.8006 31.6937 39.881 31.6127C40.0527 31.4396 40.1515 31.0843 40.1633 30.6345C40.0643 30.7392 39.8217 30.9956 39.8217 30.9956C39.7468 30.8663 39.6718 30.7369 39.5969 30.6077Z" fill="white"/>
<path d="M33.0807 28.8622V30.0109L32.6535 29.5838V29.2353L32.2753 29.586L33.2019 30.5126L34.1287 29.586L33.7504 29.2353V29.5838L33.3232 30.0109V28.8622L33.7304 28.5127L33.2019 28.059L32.6735 28.5127L33.0807 28.8622Z" fill="white"/>
<path d="M36.2782 29.8743V31.023L35.851 30.5958V30.2474L35.4728 30.5979L36.3995 31.5247L37.3262 30.5979L36.9479 30.2474V30.5958L36.5207 31.023V29.8743L36.9279 29.5248L36.3995 29.071L35.8711 29.5248L36.2782 29.8743Z" fill="#E23726"/>
<path d="M30.257 30.1873L29.913 29.7119L30.7952 28.8974L29.9726 28.2216V28.7004L29.6286 28.9947V28.1263L30.4057 27.5535L28.9999 26.5173L27.5941 27.5535L28.3714 28.1263V28.9947L28.0273 28.7004V28.2216L27.2046 28.8974L28.087 29.7119L27.7429 30.1873H30.257Z" fill="black"/>
<path d="M27.9111 30.1017L28.2013 29.7006L27.3354 28.9014L27.9418 28.4031V28.74L28.4573 29.1811V28.0831L27.7389 27.5537L29.0002 26.624L30.2615 27.5537L29.5432 28.0831V29.1811L30.0586 28.74V28.4031L30.6651 28.9014L29.7993 29.7006L30.0896 30.1017H27.9111Z" fill="#E23726"/>
<path d="M28.3577 27.5537L29 28.0271L29.6425 27.5537L29 27.0802L28.9746 27.099L28.3577 27.5537Z" fill="black"/>
<path d="M29.0001 27.1868C29.0426 27.218 29.423 27.4984 29.4981 27.5537C29.423 27.609 29.0426 27.8895 29.0001 27.9207C28.9577 27.8895 28.5772 27.609 28.5022 27.5537C28.5772 27.4984 28.9577 27.218 29.0001 27.1868Z" fill="#1E9A1C"/>
<path d="M18.0582 34.57C18.1553 34.4721 18.2713 34.4226 18.4031 34.4226C18.5347 34.4226 18.6508 34.4721 18.748 34.57C19.0517 34.876 19.0619 35.4295 19.0589 35.8278C19.0589 35.8278 18.7078 35.4567 18.6444 35.3898C18.6002 35.4661 18.4031 35.8065 18.4031 35.8065C18.4031 35.8065 18.2059 35.4661 18.1616 35.3898C18.0983 35.4567 17.7472 35.8278 17.7472 35.8278C17.7442 35.4295 17.7545 34.876 18.0582 34.57Z" fill="black"/>
<path d="M21.3939 35.4272L21.1381 35.6828V36.1921L20.5505 35.6475L21.6008 34.5973L22.651 35.6475L22.0635 36.1921V35.6828L21.8078 35.4272V36.3295L22.2608 36.7184L21.6008 37.2852L20.9408 36.7184L21.3939 36.3295V35.4272Z" fill="black"/>
<path d="M24.5913 36.4393L24.3356 36.695V37.2043L23.748 36.6597L24.7983 35.6095L25.8485 36.6597L25.261 37.2043V36.695L25.0052 36.4393V37.3417L25.4583 37.7306L24.7983 38.2972L24.1383 37.7306L24.5913 37.3417V36.4393Z" fill="black"/>
<path d="M18.4033 35.6355C18.4558 35.545 18.628 35.2475 18.628 35.2475C18.628 35.2475 18.8706 35.5041 18.9697 35.6086C18.9578 35.1589 18.8591 34.8035 18.6874 34.6306C18.6068 34.5495 18.5113 34.5083 18.4033 34.5083C18.2952 34.5083 18.1997 34.5495 18.1193 34.6305C17.9476 34.8035 17.8488 35.1589 17.8369 35.6086C17.9359 35.504 18.1786 35.2475 18.1786 35.2475C18.2534 35.3769 18.3284 35.5063 18.4033 35.6355Z" fill="white"/>
<path d="M24.9195 37.3809V36.2323L25.3467 36.6594V37.0078L25.725 36.6572L24.7983 35.7306L23.8716 36.6572L24.2498 37.0078V36.6594L24.677 36.2323V37.3809L24.2699 37.7305L24.7983 38.1842L25.3267 37.7305L24.9195 37.3809Z" fill="white"/>
<path d="M21.722 36.3688V35.2202L22.1492 35.6474V35.9958L22.5275 35.6452L21.6007 34.7185L20.6741 35.6452L21.0523 35.9958V35.6474L21.4795 35.2202V36.3688L21.0724 36.7184L21.6007 37.1721L22.1292 36.7184L21.722 36.3688Z" fill="#E23726"/>
<path d="M39.942 34.57C39.845 34.4721 39.7289 34.4226 39.5972 34.4226C39.4655 34.4226 39.3495 34.4721 39.2523 34.57C38.9486 34.876 38.9384 35.4295 38.9414 35.8278C38.9414 35.8278 39.2925 35.4567 39.3558 35.3898C39.4 35.4661 39.5972 35.8065 39.5972 35.8065C39.5972 35.8065 39.7943 35.4661 39.8386 35.3898C39.902 35.4567 40.2531 35.8278 40.2531 35.8278C40.2561 35.4295 40.2458 34.876 39.942 34.57Z" fill="black"/>
<path d="M36.6063 35.4273L36.8622 35.6829V36.1922L37.4497 35.6476L36.3995 34.5974L35.3492 35.6476L35.9367 36.1922V35.6829L36.1925 35.4273V36.3296L35.7395 36.7185L36.3995 37.2853L37.0595 36.7185L36.6063 36.3296V35.4273Z" fill="black"/>
<path d="M33.409 36.4393L33.6647 36.695V37.2043L34.2522 36.6597L33.202 35.6095L32.1517 36.6597L32.7392 37.2043V36.695L32.9951 36.4393V37.3417L32.542 37.7306L33.202 38.2972L33.862 37.7306L33.409 37.3417V36.4393Z" fill="black"/>
<path d="M39.5969 35.6355C39.5445 35.545 39.3723 35.2475 39.3723 35.2475C39.3723 35.2475 39.1296 35.5041 39.0305 35.6086C39.0424 35.1589 39.1412 34.8035 39.3129 34.6306C39.3934 34.5495 39.4889 34.5083 39.5969 34.5083C39.705 34.5083 39.8006 34.5495 39.881 34.6305C40.0527 34.8035 40.1515 35.1589 40.1633 35.6086C40.0643 35.504 39.8217 35.2475 39.8217 35.2475C39.7468 35.3769 39.6718 35.5063 39.5969 35.6355Z" fill="white"/>
<path d="M33.0807 37.3809V36.2323L32.6535 36.6594V37.0078L32.2753 36.6572L33.2019 35.7306L34.1287 36.6572L33.7504 37.0078V36.6594L33.3232 36.2323V37.3809L33.7304 37.7305L33.2019 38.1842L32.6735 37.7305L33.0807 37.3809Z" fill="white"/>
<path d="M36.2782 36.3688V35.2202L35.851 35.6474V35.9958L35.4728 35.6452L36.3995 34.7185L37.3262 35.6452L36.9479 35.9958V35.6474L36.5207 35.2202V36.3688L36.9279 36.7184L36.3995 37.1721L35.8711 36.7184L36.2782 36.3688Z" fill="#E23726"/>
<path d="M30.257 36.0559L29.913 36.5313L30.7952 37.3458L29.9726 38.0216V37.5428L29.6286 37.2484V38.1169L30.4057 38.6896L28.9999 39.7258L27.5941 38.6896L28.3714 38.1169V37.2484L28.0273 37.5428V38.0216L27.2046 37.3458L28.087 36.5313L27.7429 36.0559H30.257Z" fill="black"/>
<path d="M27.9111 36.1414L28.2013 36.5426L27.3354 37.3418L27.9418 37.84V37.5032L28.4573 37.0621V38.1601L27.7389 38.6895L29.0002 39.6191L30.2615 38.6895L29.5432 38.1601V37.0621L30.0586 37.5032V37.84L30.6651 37.3418L29.7993 36.5426L30.0896 36.1414H27.9111Z" fill="#E23726"/>
<path d="M28.3577 38.6894L29 38.216L29.6425 38.6894L29 39.163L28.9746 39.1441L28.3577 38.6894Z" fill="black"/>
<path d="M29.0001 39.0564C29.0426 39.0252 29.423 38.7448 29.4981 38.6894C29.423 38.6341 29.0426 38.3537 29.0001 38.3225C28.9577 38.3537 28.5772 38.6341 28.5022 38.6894C28.5772 38.7448 28.9577 39.0252 29.0001 39.0564Z" fill="#1E9A1C"/>
<path d="M40.3812 32.63H38.9737V32.069H34.6716L31.6768 30.1018H31.6641H26.3238L23.3291 32.069H19.0269V32.63H17.6194V33.6135H19.0269V34.1745H23.3291L26.3238 36.1418H31.6768L34.6716 34.1745H38.9737V33.6135H40.3812V32.63Z" fill="black"/>
<path d="M26.3491 30.1904L23.3513 32.1502H19.114V32.7116H17.7051V33.5273H19.114V34.0887H23.3513L26.3491 36.0591H31.6563L34.6436 34.0887H38.8915V33.5273H40.3004V32.7116H38.8915V32.1502H34.6436L31.6563 30.1904H26.3491ZM26.4127 30.4764H31.5822L34.3258 32.2773V32.5527H37.3873V33.6968H34.3258V33.9722L31.5822 35.7625H26.4127L23.6797 33.9722V33.6968H20.6076V32.5527H23.6797V32.2773L26.4127 30.4764Z" fill="#E23726"/>
<path d="M31.5605 30.5652L34.2363 32.3219V32.6336H37.3026V33.6097H34.2363V33.9216L31.5605 35.6783H26.4396L23.7639 33.9216V33.6097H20.6975V32.6336H23.7639V32.3219L26.4396 30.5652H31.5605Z" fill="#E23726"/>
<path d="M25.1111 34.1195L26.2697 34.9893L27.0318 34.417L26.5888 34.0844L26.2697 34.324L25.9973 34.1195L30.3604 30.8438H29.4743L25.1111 34.1195ZM27.6401 35.3997H28.5262L32.8894 32.1239L31.7309 31.2543L30.9686 31.8264L31.4117 32.1589L31.7309 31.9193L32.0033 32.1239L27.6401 35.3997ZM29.4743 35.3997H30.3602L25.9973 32.1239L26.2697 31.9193L26.5888 32.1589L27.0318 31.8264L26.2697 31.2543L25.1111 32.1239L29.4743 35.3997ZM32.0033 34.1195L31.7309 34.324L31.4117 34.0844L30.9686 34.417L31.7309 34.9893L32.8894 34.1195L28.5262 30.8438H27.6401L32.0033 34.1195Z" fill="black"/>
<path d="M24.2336 33.1217L25.0123 33.6389L25.791 33.1217L25.0123 32.6045L24.2336 33.1217Z" fill="black"/>
<path d="M28.2217 33.1217L29.0004 33.6389L29.779 33.1217L29.0004 32.6045L28.2217 33.1217Z" fill="black"/>
<path d="M33.7673 33.1217L32.9886 33.6389L32.21 33.1217L32.9886 32.6045L33.7673 33.1217Z" fill="black"/>
<path d="M32.7466 34.1195L31.7309 34.8821L31.1113 34.417L31.4117 34.1915L31.7309 34.4312L32.146 34.1195L27.897 30.9296H28.4976L32.7466 34.1195ZM30.1033 35.3139H29.5029L25.2539 32.1239L26.2697 31.3613L26.889 31.8264L26.5888 32.0518L26.2697 31.8122L25.8545 32.1239L30.1033 35.3139ZM28.4976 35.3139H27.897L32.146 32.1239L31.7309 31.8122L31.4117 32.0518L31.1113 31.8264L31.7309 31.3613L32.7466 32.1239L28.4976 35.3139ZM29.5029 30.9296H30.1033L25.8545 34.1195L26.2697 34.4312L26.5888 34.1915L26.889 34.417L26.2697 34.8821L25.2539 34.1195L29.5029 30.9296Z" fill="#FDD406"/>
<path d="M25.0122 32.7075L25.6359 33.1218L25.0122 33.536L24.3884 33.1218L25.0122 32.7075Z" fill="#1E9A1C"/>
<path d="M29.0003 32.7075L29.6241 33.1218L29.0003 33.536L28.3767 33.1218L29.0003 32.7075Z" fill="#1E9A1C"/>
<path d="M32.9887 32.7075L32.365 33.1218L32.9887 33.536L33.6124 33.1218L32.9887 32.7075Z" fill="#1E9A1C"/>
<path d="M15.3034 54.8302L14.9979 55.2623L15.5456 55.6811L14.9978 56.1L15.3033 56.5321L15.9397 56.6061L16.5559 56.1299L18.0922 57.1059V56.2954L17.1253 55.6811L18.0922 55.0669V54.2565L16.5559 55.2324L15.9397 54.7564L15.3034 54.8302Z" fill="black"/>
<path d="M15.3034 52.0145L14.9979 52.4468L15.5456 52.8656L14.9978 53.2844L15.3033 53.7166L15.9397 53.7904L16.5559 53.3142L18.0922 54.2903V53.4797L17.1253 52.8656L18.0922 52.2513V51.4408L16.5559 52.4168L15.9397 51.9407L15.3034 52.0145Z" fill="black"/>
<path d="M15.3034 59.3477L14.9979 58.9156L15.5456 58.4968L14.9978 58.0779L15.3033 57.6457L15.9397 57.5719L16.5559 58.048L18.0922 57.072V57.8825L17.1253 58.4968L18.0922 59.1109V59.9214L16.5559 58.9455L15.9397 59.4216L15.3034 59.3477Z" fill="black"/>
<path d="M42.6971 54.8301L43.0026 55.2622L42.455 55.681L43.0026 56.0999L42.6971 56.532L42.0609 56.6059L41.4447 56.1298L39.9082 57.1057V56.2953L40.8753 55.681L39.9082 55.0668V54.2563L41.4447 55.2323L42.0609 54.7563L42.6971 54.8301Z" fill="black"/>
<path d="M42.6971 52.0146L43.0026 52.4469L42.455 52.8657L43.0026 53.2845L42.6971 53.7167L42.0609 53.7905L41.4447 53.3144L39.9082 54.2904V53.4798L40.8753 52.8657L39.9082 52.2514V51.4409L41.4447 52.4169L42.0609 51.9408L42.6971 52.0146Z" fill="black"/>
<path d="M42.6971 59.3477L43.0026 58.9156L42.455 58.4968L43.0026 58.0779L42.6971 57.6457L42.0609 57.5719L41.4447 58.048L39.9082 57.072V57.8825L40.8753 58.4968L39.9082 59.1109V59.9214L41.4447 58.9455L42.0609 59.4216L42.6971 59.3477Z" fill="black"/>
<path d="M36.5461 47.146V48.3172H37.398V48.8348H38.2349V47.8923H37.4885V47.146H36.5461Z" fill="black"/>
<path d="M39.0571 48.9929V50.164H39.9082V50.6817H40.7459V49.7392H39.9996V48.9929H39.0571Z" fill="black"/>
<path d="M21.4544 47.146V48.3172H20.6023V48.8348H19.7656V47.8923H20.5119V47.146H21.4544Z" fill="black"/>
<path d="M36.5461 64.2166V63.0454H37.398V62.5278H38.2349V63.4702H37.4885V64.2166H36.5461Z" fill="black"/>
<path d="M21.4544 64.2166V63.0454H20.6023V62.5278H19.7656V63.4702H20.5119V64.2166H21.4544Z" fill="black"/>
<path d="M39.0571 62.3695V61.1985H39.9082V60.6808H40.7459V61.6231H39.9996V62.3695H39.0571Z" fill="black"/>
<path d="M18.9434 48.9929V50.164H18.0921V50.6817H17.2546V49.7392H18.0009V48.9929H18.9434Z" fill="black"/>
<path d="M18.9434 62.3695V61.1985H18.0921V60.6808H17.2546V61.6231H18.0009V62.3695H18.9434Z" fill="black"/>
<path d="M32.1511 47.1187C32.0968 47.0659 31.501 46.4875 31.501 46.4875L30.8623 47.0793C30.8623 47.0793 31.3627 47.5649 31.419 47.6196L30.7004 48.3172H31.7672L32.1511 47.9445L32.535 48.3172H33.6017L32.8831 47.6196C32.9394 47.5649 33.4397 47.0793 33.4397 47.0793L32.8012 46.4875C32.5842 46.6977 32.3677 46.9083 32.1511 47.1187Z" fill="black"/>
<path d="M29.0001 47.1187C28.9459 47.0659 28.3501 46.4875 28.3501 46.4875L27.7114 47.0793C27.7114 47.0793 28.2117 47.5649 28.2681 47.6196L27.5496 48.3172H28.6162L29.0001 47.9445L29.384 48.3172H30.4507L29.7322 47.6196C29.7885 47.5649 30.2888 47.0793 30.2888 47.0793L29.6503 46.4875C29.4333 46.6977 29.2168 46.9083 29.0001 47.1187Z" fill="black"/>
<path d="M25.8495 47.1187C25.9038 47.0659 26.4996 46.4875 26.4996 46.4875L27.1383 47.0793C27.1383 47.0793 26.6379 47.5649 26.5816 47.6196L27.3002 48.3172H26.2334L25.8495 47.9445L25.4656 48.3172H24.3989L25.1175 47.6196C25.0612 47.5649 24.5608 47.0793 24.5608 47.0793L25.1994 46.4875C25.4164 46.6977 25.6329 46.9083 25.8495 47.1187Z" fill="black"/>
<path d="M32.1511 64.2437C32.0968 64.2964 31.501 64.8748 31.501 64.8748L30.8623 64.2831C30.8623 64.2831 31.3627 63.7976 31.419 63.7428L30.7004 63.0453H31.7672L32.1511 63.418L32.535 63.0453H33.6017L32.8831 63.7428C32.9394 63.7976 33.4397 64.2831 33.4397 64.2831L32.8012 64.8748C32.5842 64.6647 32.3677 64.4541 32.1511 64.2437Z" fill="black"/>
<path d="M29.0001 64.2437C28.9459 64.2964 28.3501 64.8748 28.3501 64.8748L27.7114 64.2831C27.7114 64.2831 28.2117 63.7976 28.2681 63.7428L27.5496 63.0453H28.6162L29.0001 63.418L29.384 63.0453H30.4507L29.7322 63.7428C29.7885 63.7976 30.2888 64.2831 30.2888 64.2831L29.6503 64.8748C29.4333 64.6647 29.2168 64.4541 29.0001 64.2437Z" fill="black"/>
<path d="M25.8495 64.2437C25.9038 64.2964 26.4996 64.8748 26.4996 64.8748L27.1383 64.2831C27.1383 64.2831 26.6379 63.7976 26.5816 63.7428L27.3002 63.0453H26.2334L25.8495 63.418L25.4656 63.0453H24.3989L25.1175 63.7428C25.0612 63.7976 24.5608 64.2831 24.5608 64.2831L25.1994 64.8748C25.4164 64.6647 25.6329 64.4541 25.8495 64.2437Z" fill="black"/>
<path d="M18.0065 56.3426V56.9499L16.5509 56.0253L15.9148 56.5169L15.3512 56.4515L15.1155 56.118L15.6867 55.6812L15.1155 55.2444L15.3513 54.911L15.9148 54.8456L16.5509 55.3371L18.0065 54.4125V55.0198L16.9653 55.6812L18.0065 56.3426Z" fill="#1E9A1C"/>
<path d="M18.0065 53.5269V54.1343L16.5509 53.2097L15.9148 53.7012L15.3512 53.6358L15.1155 53.3024L15.6867 52.8656L15.1155 52.4289L15.3513 52.0954L15.9148 52.0299L16.5509 52.5214L18.0065 51.5969V52.2042L16.9653 52.8656L18.0065 53.5269Z" fill="#1E9A1C"/>
<path d="M18.0065 57.8355V57.2281L16.5509 58.1528L15.9148 57.6611L15.3512 57.7265L15.1155 58.06L15.6867 58.4968L15.1155 58.9336L15.3513 59.2671L15.9148 59.3325L16.5509 58.841L18.0065 59.7656V59.1582L16.9653 58.4968L18.0065 57.8355Z" fill="#1E9A1C"/>
<path d="M39.9941 56.3426V56.9499L41.4497 56.0253L42.0857 56.5169L42.6494 56.4515L42.8851 56.118L42.3139 55.6812L42.8851 55.2444L42.6494 54.911L42.0857 54.8456L41.4497 55.3371L39.9941 54.4125V55.0198L41.0353 55.6812L39.9941 56.3426Z" fill="#1E9A1C"/>
<path d="M39.9941 53.5269V54.1343L41.4497 53.2097L42.0857 53.7012L42.6494 53.6358L42.8851 53.3024L42.3139 52.8656L42.8851 52.4289L42.6494 52.0954L42.0857 52.0299L41.4497 52.5214L39.9941 51.5969V52.2042L41.0353 52.8656L39.9941 53.5269Z" fill="#1E9A1C"/>
<path d="M39.9941 57.8355V57.2281L41.4497 58.1528L42.0857 57.6611L42.6494 57.7265L42.8851 58.06L42.3139 58.4968L42.8851 58.9336L42.6494 59.2671L42.0857 59.3325L41.4497 58.841L39.9941 59.7656V59.1582L41.0353 58.4968L39.9941 57.8355Z" fill="#1E9A1C"/>
<path d="M37.4028 47.2317V47.9781H38.1491V48.7491H37.4838V48.2315H36.6318V47.2317H37.4028Z" fill="#1E9A1C"/>
<path d="M39.9138 49.0785V49.8248H40.6601V50.5959H39.9947V50.0783H39.1428V49.0785H39.9138Z" fill="#1E9A1C"/>
<path d="M20.5978 47.2317V47.9781H19.8516V48.7491H20.517V48.2315H21.3688V47.2317H20.5978Z" fill="#1E9A1C"/>
<path d="M37.4028 64.1306V63.3843H38.1491V62.6133H37.4838V63.1308H36.6318V64.1306H37.4028Z" fill="#1E9A1C"/>
<path d="M20.5977 64.1306V63.3843H19.8513V62.6133H20.5167V63.1308H21.3687V64.1306H20.5977Z" fill="#1E9A1C"/>
<path d="M39.9138 62.2838V61.5375H40.6601V60.7665H39.9947V61.284H39.1428V62.2838H39.9138Z" fill="#1E9A1C"/>
<path d="M18.0866 49.0785V49.8248H17.3403V50.5959H18.0057V50.0783H18.8576V49.0785H18.0866Z" fill="#1E9A1C"/>
<path d="M18.087 62.2838V61.5375H17.3406V60.7665H18.006V61.284H18.858V62.2838H18.087Z" fill="#1E9A1C"/>
<path d="M31.4999 46.6057C31.553 46.6573 32.1513 47.2381 32.1513 47.2381C32.1513 47.2381 32.7495 46.6573 32.8027 46.6057C32.8531 46.6523 33.2598 47.0291 33.3155 47.0807C33.2579 47.1365 32.7602 47.6196 32.7602 47.6196L33.3905 48.2315H32.57L32.1513 47.8249L31.7326 48.2315H30.9121L31.5424 47.6196C31.5424 47.6196 31.0447 47.1365 30.9871 47.0807C31.0428 47.0291 31.4495 46.6523 31.4999 46.6057Z" fill="#1E9A1C"/>
<path d="M28.3489 46.6057C28.402 46.6573 29.0002 47.2381 29.0002 47.2381C29.0002 47.2381 29.5984 46.6573 29.6517 46.6057C29.7021 46.6523 30.1087 47.0291 30.1643 47.0807C30.1069 47.1365 29.6092 47.6196 29.6092 47.6196L30.2395 48.2315H29.4189L29.0002 47.8249L28.5815 48.2315H27.761L28.3912 47.6196C28.3912 47.6196 27.8936 47.1365 27.8361 47.0807C27.8918 47.0291 28.2985 46.6523 28.3489 46.6057Z" fill="#1E9A1C"/>
<path d="M26.5012 46.6057C26.4479 46.6573 25.8497 47.2381 25.8497 47.2381C25.8497 47.2381 25.2515 46.6573 25.1984 46.6057C25.148 46.6523 24.7413 47.0291 24.6856 47.0807C24.7432 47.1365 25.2408 47.6196 25.2408 47.6196L24.6106 48.2315H25.431L25.8497 47.8249L26.2685 48.2315H27.089L26.4587 47.6196C26.4587 47.6196 26.9564 47.1365 27.014 47.0807C26.9583 47.0291 26.5516 46.6523 26.5012 46.6057Z" fill="#1E9A1C"/>
<path d="M31.4999 64.7567C31.553 64.705 32.1513 64.1242 32.1513 64.1242C32.1513 64.1242 32.7495 64.705 32.8027 64.7567C32.8531 64.7101 33.2598 64.3333 33.3155 64.2818C33.2579 64.2259 32.7602 63.7429 32.7602 63.7429L33.3905 63.131H32.57L32.1513 63.5374L31.7326 63.131H30.9121L31.5424 63.7429C31.5424 63.7429 31.0447 64.2259 30.9871 64.2818C31.0428 64.3333 31.4495 64.7101 31.4999 64.7567Z" fill="#1E9A1C"/>
<path d="M28.3489 64.7567C28.402 64.705 29.0002 64.1242 29.0002 64.1242C29.0002 64.1242 29.5984 64.705 29.6517 64.7567C29.7021 64.7101 30.1087 64.3333 30.1643 64.2818C30.1069 64.2259 29.6092 63.7429 29.6092 63.7429L30.2395 63.131H29.4189L29.0002 63.5374L28.5815 63.131H27.761L28.3912 63.7429C28.3912 63.7429 27.8936 64.2259 27.8361 64.2818C27.8918 64.3333 28.2985 64.7101 28.3489 64.7567Z" fill="#1E9A1C"/>
<path d="M26.5012 64.7567C26.4479 64.705 25.8497 64.1242 25.8497 64.1242C25.8497 64.1242 25.2515 64.705 25.1984 64.7567C25.148 64.7101 24.7413 64.3333 24.6856 64.2818C24.7432 64.2259 25.2408 63.7429 25.2408 63.7429L24.6106 63.131H25.431L25.8497 63.5374L26.2685 63.131H27.089L26.4587 63.7429C26.4587 63.7429 26.9564 64.2259 27.014 64.2818C26.9583 64.3333 26.5516 64.7101 26.5012 64.7567Z" fill="#1E9A1C"/>
<path d="M20.5168 61.2841V63.1309H37.4839V61.2841H39.9941V50.0782H37.4839V48.2314H20.5168V50.0782H18.0066V61.2841H20.5168Z" fill="black"/>
<path d="M20.6075 48.3155V50.1589H18.0969V61.1969H20.6075V63.0403H37.3977V61.1969H39.9085V50.1588H37.3976V48.3154L20.6075 48.3155ZM21.688 49.0254H36.3174V50.805L36.9211 51.2501H39.1987V60.1165H36.9106L36.3173 60.5508V62.341H21.688V60.5613L21.0842 60.1165H18.7961V51.2501H21.0736L21.688 50.805L21.688 49.0254Z" fill="#FDD406"/>
<path d="M21.7728 49.1101V50.7416L23.9762 49.1101H21.7728ZM34.0184 49.1101L36.2218 50.7416V49.1101H34.0184ZM18.8914 51.3349V52.8603L20.9677 51.3349H18.8914ZM37.0272 51.3349L39.114 52.8708V51.3349H37.0272ZM39.114 58.485L37.0272 60.0318H39.114V58.485ZM18.8914 58.4955V60.0318H20.9676L18.8914 58.4955ZM21.7727 60.625V62.2457H23.9655L21.7727 60.625ZM36.2217 60.625L34.0292 62.2457H36.2217V60.625Z" fill="#E23726"/>
<path d="M33.876 49.1118C33.8986 49.1284 39.0791 52.9547 39.1136 52.9801V58.3822C39.0791 58.4077 33.8986 62.2339 33.876 62.2506H24.1241C24.1017 62.2339 18.9212 58.4077 18.8867 58.3822V52.9801C18.9212 52.9547 24.1017 49.1284 24.1241 49.1118H33.876Z" fill="#1E9A1C"/>
<path d="M20.1341 59.0042L19.532 58.3053L20.0973 57.6493L19.532 56.9932L20.0973 56.3373L19.532 55.6813L20.0973 55.0252L19.532 54.3692L20.0972 53.7131L19.532 53.0571L20.1341 52.3583H37.8664L38.4686 53.0571L37.9033 53.7131L38.4686 54.3692L37.9033 55.0252L38.4686 55.6813L37.9033 56.3373L38.4686 56.9932L37.9033 57.6493L38.4686 58.3053L37.8664 59.0042H20.1341ZM32.3233 49.9569L31.6244 49.3547L30.9682 49.9201L30.3123 49.3547L29.6563 49.9201L29.0002 49.3547L28.3442 49.9201L27.6881 49.3547L27.0322 49.9201L26.3762 49.3547L25.6773 49.9569V61.4055L26.3762 62.0078L27.0322 61.4425L27.6881 62.0077L28.3442 61.4423L29.0002 62.0077L29.6563 61.4423L30.3123 62.0077L30.9682 61.4425L31.6244 62.0078L32.3233 61.4055V49.9569Z" fill="black"/>
<path d="M30.9253 49.9961L30.3122 49.4678L29.699 49.9961V61.3661L30.3122 61.8944L30.9253 61.3661V49.9961Z" fill="#FDD406"/>
<path d="M28.3012 49.9961L27.688 49.4678L27.075 49.9961V61.3661L27.688 61.8944L28.3012 61.3661V49.9961Z" fill="#FDD406"/>
<path d="M20.1733 58.9185L19.645 58.3053L20.1733 57.6921H37.8271L38.3553 58.3053L37.8271 58.9185H20.1733Z" fill="#FDD406"/>
<path d="M37.8269 55.0679L38.3553 55.6811L37.8269 56.2942H20.1734L19.645 55.6811L20.1734 55.0679H37.8269Z" fill="#FDD406"/>
<path d="M37.8271 53.6704L38.3553 53.0572L37.8271 52.4441H20.1733L19.645 53.0572L20.1733 53.6704H37.8271Z" fill="#FDD406"/>
<path d="M32.2375 49.9961L31.6244 49.4678L31.0112 49.9961V61.3661L31.6244 61.8944L32.2374 61.3662L32.2375 49.9961Z" fill="#E23726"/>
<path d="M26.9893 49.9961L26.3761 49.4678L25.7629 49.9961V61.3661L26.3761 61.8944L26.9893 61.3661V49.9961Z" fill="#E23726"/>
<path d="M20.1736 57.6063L19.6453 56.9931L20.1736 56.3799H37.8272L38.3555 56.9931L37.8272 57.6063H20.1736Z" fill="#E23726"/>
<path d="M20.1736 54.9824L19.6453 54.3692L20.1736 53.756H37.8272L38.3555 54.3692L37.8272 54.9824H20.1736Z" fill="#E23726"/>
<path d="M29.6136 61.3661L29.0004 61.8944L28.3872 61.3661V49.9961L29.0004 49.4678L29.6136 49.9961V61.3661Z" fill="#E23726"/>
<path d="M34.9269 50.218H23.0308V51.1628H21.5105V60.1997H23.0308V61.1444H34.9697V60.1997H36.49V51.1628H34.9697V50.218H34.9269Z" fill="black"/>
<path d="M23.1182 50.3069V51.2499H21.5928V60.1164H23.1182V61.0591H24.3682L21.8788 58.9723V52.3937L24.3682 50.3069H23.1182ZM33.6375 50.3069L36.1161 52.3937V58.9723L33.6375 61.0591H34.8873V60.1164H36.4022V51.2499H34.8873V50.3069L33.6375 50.3069Z" fill="#E23726"/>
<path d="M24.5058 50.3069C24.4822 50.3267 21.9935 52.4109 21.9634 52.4361V58.9297C21.9935 58.9551 24.4822 61.0392 24.5058 61.059H33.4994C33.523 61.0392 36.001 58.9549 36.0312 58.9297V52.4361C36.001 52.4109 33.523 50.3267 33.4994 50.3069H24.5058ZM24.6329 50.6671H33.3617L35.671 52.6056V58.7603L33.3617 60.6882H24.6329L22.3342 58.7603V52.6056L24.6329 50.6671Z" fill="#1E9A1C"/>
<path d="M26.9447 58.8577L27.3354 59.0265L27.4073 59.4829L26.9154 59.9156L27.6298 60.6064H26.9424L26.4509 60.1333L25.9592 60.6064H25.2717L25.9863 59.9156L25.4943 59.4829L25.5663 59.0265L25.9569 58.8577L26.4509 59.2526L26.4776 59.2312L26.9447 58.8577Z" fill="#1E9A1C"/>
<path d="M29.4943 58.8577L29.8849 59.0265L29.9569 59.4829L29.465 59.9156L30.1795 60.6064H29.4921L29.0004 60.1333L28.5089 60.6064H27.8213L28.5359 59.9156L28.044 59.4829L28.116 59.0265L28.5066 58.8577L29.0004 59.2526L29.0272 59.2312L29.4943 58.8577Z" fill="#1E9A1C"/>
<path d="M31.056 58.8577L30.6655 59.0265L30.5935 59.4829L31.0853 59.9156L30.3708 60.6064H31.0583L31.55 60.1333L32.0415 60.6064H32.729L32.0145 59.9156L32.5064 59.4829L32.4344 59.0265L32.0438 58.8577L31.55 59.2526L31.5231 59.2312L31.056 58.8577Z" fill="#1E9A1C"/>
<path d="M26.9447 52.5045L27.3354 52.3357L27.4073 51.8794L26.9154 51.4467L27.6298 50.7559H26.9424L26.4509 51.2289L25.9592 50.7559H25.2717L25.9863 51.4467L25.4943 51.8793L25.5663 52.3357L25.9569 52.5045L26.4509 52.1097L26.4776 52.1311L26.9447 52.5045Z" fill="#1E9A1C"/>
<path d="M29.4943 52.5045L29.8849 52.3357L29.9569 51.8794L29.465 51.4467L30.1795 50.7559H29.4921L29.0004 51.2289L28.5089 50.7559H27.8213L28.5359 51.4467L28.044 51.8793L28.116 52.3357L28.5066 52.5045L29.0004 52.1097L29.0272 52.1311L29.4943 52.5045Z" fill="#1E9A1C"/>
<path d="M31.056 52.5045L30.6655 52.3357L30.5935 51.8794L31.0853 51.4467L30.3708 50.7559H31.0583L31.55 51.2289L32.0415 50.7559H32.729L32.0145 51.4467L32.5064 51.8793L32.4344 52.3357L32.0438 52.5045L31.55 52.1097L31.5231 52.1311L31.056 52.5045Z" fill="#1E9A1C"/>
<path d="M35.5811 53.2332L35.1911 53.5561L35.5811 53.8789V54.4142L34.9813 53.92C34.9813 53.92 34.578 54.2854 34.5509 54.31C34.5163 54.3056 34.1278 54.2568 34.0894 54.252C34.0722 54.2204 33.9509 53.9968 33.9268 53.952C33.967 53.9119 34.324 53.5561 34.324 53.5561C34.324 53.5561 33.967 53.2002 33.9268 53.1601C33.9509 53.1154 34.0722 52.8916 34.0894 52.8601C34.1278 52.8553 34.5163 52.8064 34.5509 52.802C34.578 52.8266 34.9813 53.1922 34.9813 53.1922L35.5811 52.698V53.2332Z" fill="#1E9A1C"/>
<path d="M35.5811 55.3582L35.1911 55.6811L35.5811 56.0038V56.5392L34.9813 56.045C34.9813 56.045 34.578 56.4104 34.5509 56.435C34.5163 56.4306 34.1278 56.3817 34.0894 56.377C34.0722 56.3454 33.9509 56.1216 33.9268 56.077C33.967 56.0369 34.324 55.6811 34.324 55.6811C34.324 55.6811 33.967 55.3251 33.9268 55.285C33.9509 55.2404 34.0722 55.0166 34.0894 54.985C34.1278 54.9803 34.5163 54.9314 34.5509 54.927C34.578 54.9516 34.9813 55.317 34.9813 55.317L35.5811 54.823V55.3582Z" fill="#1E9A1C"/>
<path d="M35.5811 58.129L35.1911 57.8061L35.5811 57.4833V56.948L34.9813 57.4423C34.9813 57.4423 34.578 57.0768 34.5509 57.0522C34.5163 57.0565 34.1278 57.1054 34.0894 57.1101C34.0722 57.1417 33.9509 57.3655 33.9268 57.4101C33.967 57.4503 34.324 57.8061 34.324 57.8061C34.324 57.8061 33.967 58.162 33.9268 58.2021C33.9509 58.2468 34.0722 58.4706 34.0894 58.5021C34.1278 58.5069 34.5163 58.5558 34.5509 58.5601C34.578 58.5355 34.9813 58.1701 34.9813 58.1701L35.5811 58.6642V58.129Z" fill="#1E9A1C"/>
<path d="M22.4202 53.2333L22.81 53.5562L22.4202 53.879V54.4144L23.0199 53.9201C23.0199 53.9201 23.4232 54.2855 23.4504 54.3101C23.4848 54.3058 23.8735 54.2569 23.9119 54.2521C23.929 54.2206 24.0502 53.9969 24.0745 53.9521C24.0343 53.912 23.6773 53.5562 23.6773 53.5562C23.6773 53.5562 24.0343 53.2003 24.0745 53.1602C24.0502 53.1155 23.929 52.8917 23.9119 52.8602C23.8735 52.8554 23.4848 52.8065 23.4504 52.8022C23.4232 52.8268 23.0199 53.1923 23.0199 53.1923L22.4202 52.6981V53.2333Z" fill="#1E9A1C"/>
<path d="M22.4202 55.3583L22.81 55.6812L22.4202 56.0039V56.5394L23.0199 56.0451C23.0199 56.0451 23.4232 56.4105 23.4504 56.4351C23.4848 56.4308 23.8735 56.3818 23.9119 56.3771C23.929 56.3456 24.0502 56.1218 24.0745 56.0771C24.0343 56.037 23.6773 55.6812 23.6773 55.6812C23.6773 55.6812 24.0343 55.3252 24.0745 55.2851C24.0502 55.2405 23.929 55.0167 23.9119 54.9851C23.8735 54.9804 23.4848 54.9315 23.4504 54.9272C23.4232 54.9518 23.0199 55.3172 23.0199 55.3172L22.4202 54.8231V55.3583Z" fill="#1E9A1C"/>
<path d="M22.4202 58.129L22.81 57.8061L22.4202 57.4833V56.948L23.0199 57.4423C23.0199 57.4423 23.4232 57.0768 23.4504 57.0522C23.4848 57.0565 23.8735 57.1054 23.9119 57.1101C23.929 57.1417 24.0502 57.3655 24.0745 57.4101C24.0343 57.4503 23.6773 57.8061 23.6773 57.8061C23.6773 57.8061 24.0343 58.162 24.0745 58.2021C24.0502 58.2468 23.929 58.4706 23.9119 58.5021C23.8735 58.5069 23.4848 58.5558 23.4504 58.5601C23.4232 58.5355 23.0199 58.1701 23.0199 58.1701L22.4202 58.6642V58.129Z" fill="#1E9A1C"/>
<path d="M24.6647 50.7522C24.6416 50.7716 22.5443 52.5274 22.4507 52.606C22.6398 52.7627 22.8226 52.9266 23.0122 53.0827C23.0601 53.0393 23.4253 52.7118 23.4253 52.7118L23.9656 52.786L24.1774 53.1779C24.1774 53.1779 23.8479 53.5077 23.7961 53.5593C23.8479 53.6108 24.1774 53.9406 24.1774 53.9406L23.9656 54.3326L23.4253 54.3961C23.4253 54.3961 23.0602 54.0794 23.0122 54.036L22.4189 54.5339V54.7033C22.6185 54.8685 22.8119 55.0362 23.0122 55.2012C23.0602 55.1579 23.4253 54.8411 23.4253 54.8411L23.9656 54.9046L24.1774 55.2966C24.1774 55.2966 23.8479 55.6263 23.7961 55.6779C23.8479 55.7294 24.1774 56.0593 24.1774 56.0593L23.9656 56.4618L23.4253 56.5254C23.4253 56.5254 23.0602 56.1981 23.0122 56.1546L22.4189 56.6525V56.8326L23.0122 57.3305C23.0602 57.2871 23.4253 56.9597 23.4253 56.9597L23.9656 57.0339L24.1774 57.4258C24.1774 57.4258 23.8479 57.7556 23.7961 57.8072C23.8479 57.8588 24.1774 58.1885 24.1774 58.1885L23.9656 58.5805L23.4253 58.6546C23.4253 58.6546 23.0602 58.3273 23.0122 58.2839C22.8234 58.4393 22.6391 58.5946 22.4507 58.75C22.5443 58.8286 24.6415 60.5843 24.6647 60.6038H25.152L25.8617 59.9152L25.4062 59.5127L25.491 58.9618L25.9677 58.7606L26.455 59.1419L26.9317 58.7606L27.4083 58.9618L27.5037 59.5127L27.0376 59.9152L27.7261 60.572L28.4147 59.9152L27.9486 59.5127L28.0333 58.9618L28.5206 58.7606L28.9973 59.1419L29.4846 58.7606L29.9613 58.9618L30.0461 59.5127L29.5905 59.9152L30.2685 60.5826L30.9571 59.9152L30.5016 59.5127L30.5863 58.9618L31.0736 58.7606L31.5503 59.1419L32.027 58.7606L32.5143 58.9618L32.599 59.5127L32.1435 59.9152L32.8533 60.6038H33.33C33.3531 60.5843 35.4503 58.8286 35.5439 58.75C35.3552 58.5946 35.1715 58.4397 34.9825 58.2839C34.9345 58.3273 34.58 58.6546 34.58 58.6546L34.0397 58.5805L33.8172 58.1885C33.8172 58.1885 34.1469 57.8588 34.1986 57.8072C34.1469 57.7556 33.8172 57.4258 33.8172 57.4258L34.0397 57.0339L34.58 56.9597C34.58 56.9597 34.9345 57.2871 34.9825 57.3305L35.5757 56.8326V56.6525L34.9825 56.1546C34.9345 56.1981 34.58 56.5254 34.58 56.5254L34.0397 56.4618L33.8172 56.0593C33.8172 56.0593 34.1469 55.7294 34.1986 55.6779C34.1469 55.6263 33.8172 55.2966 33.8172 55.2966L34.0397 54.9046L34.58 54.8411C34.58 54.8411 34.9345 55.1579 34.9825 55.2012C35.1814 55.0374 35.3773 54.8772 35.5757 54.7139V54.5233L34.9825 54.036C34.9345 54.0794 34.58 54.3961 34.58 54.3961L34.0397 54.3326L33.8172 53.9406C33.8172 53.9406 34.1469 53.6108 34.1986 53.5593C34.1469 53.5077 33.8172 53.1779 33.8172 53.1779L34.0397 52.786L34.58 52.7118C34.58 52.7118 34.9345 53.0393 34.9825 53.0826C35.1723 52.9262 35.3647 52.7729 35.5545 52.6165C35.4816 52.5553 33.3532 50.7716 33.33 50.7521H32.8533L32.1435 51.4406L32.599 51.8432L32.5143 52.394L32.027 52.6059L31.5503 52.2245L31.0736 52.6059L30.5863 52.394L30.5016 51.8432L30.9571 51.4406L30.2791 50.7839L29.5905 51.4406L30.0461 51.8432L29.9613 52.394L29.4846 52.6059L28.9973 52.2245L28.5206 52.6059L28.0333 52.394L27.9486 51.8432L28.4147 51.4406L27.7261 50.7839L27.0376 51.4406L27.5037 51.8432L27.4083 52.394L26.9316 52.6059L26.4549 52.2245L25.9677 52.6059L25.491 52.394L25.4062 51.8432L25.8617 51.4406L25.1414 50.7521L24.6647 50.7522ZM22.419 55.4661V55.9004L22.6732 55.678L22.419 55.4661Z" fill="#E23726"/>
<path d="M26.4548 60.2542L26.084 60.6036H26.8148L26.4548 60.2542Z" fill="white"/>
<path d="M28.9975 60.2542L28.6375 60.6036H29.3683L28.9975 60.2542Z" fill="white"/>
<path d="M31.5502 60.2542L31.1797 60.6036H31.921L31.5502 60.2542Z" fill="white"/>
<path d="M26.0735 50.7522L26.4548 51.1122L26.8257 50.7522H26.0735Z" fill="white"/>
<path d="M28.6265 50.7522L28.9973 51.1122L29.3787 50.7522H28.6265Z" fill="white"/>
<path d="M31.1797 50.7522L31.5502 51.1122L31.921 50.7522H31.1797Z" fill="white"/>
<path d="M35.5758 53.3474L35.3215 53.5593L35.5758 53.7606V53.3474Z" fill="white"/>
<path d="M35.5758 55.4659L35.3215 55.6778L35.5758 55.8897V55.4659Z" fill="white"/>
<path d="M35.5758 57.5952L35.3215 57.8071L35.5758 58.0189V57.5952Z" fill="white"/>
<path d="M22.4189 53.337V53.7713L22.6732 53.5594L22.4189 53.337Z" fill="white"/>
<path d="M22.4189 55.4659V55.9002L22.6732 55.6778L22.4189 55.4659Z" fill="white"/>
<path d="M22.4189 57.5848V58.0191L22.6732 57.8072L22.4189 57.5848Z" fill="white"/>
<path d="M31.181 54.9714V54.2131H30.4136V53.3818H27.5872V54.2131H26.8198V54.9714H25.76V56.391H26.8198V57.1491H27.5872V57.9805H30.4136V57.1491H31.181V56.391H32.2407V54.9714H31.181Z" fill="black"/>
<path d="M28.9574 53.4675V54.3244L27.7425 55.015V55.6383H25.8457V55.057H26.9054V54.2989H27.6728V53.4675H28.9574Z" fill="#FDD406"/>
<path d="M29.0432 57.8949V57.038L30.258 56.3473V55.7241H32.1549V56.3053H31.0952V57.0636H30.3278V57.8949H29.0432Z" fill="#FDD406"/>
<path d="M30.258 55.6383V55.015L29.0432 54.3244V53.4675H30.3278V54.2989H31.0952V55.057H32.1549V55.6383H30.258Z" fill="white"/>
<path d="M25.8457 55.7241H27.7425V56.3473L28.9574 57.038V57.8949H27.6728V57.0636H26.9054V56.3053H25.8457V55.7241Z" fill="white"/>
<path d="M27.8284 55.7241V56.3018L28.9574 56.9438V55.7241H27.8284Z" fill="#E23726"/>
<path d="M28.9574 54.4187L27.8284 55.0606V55.6383H28.9574V54.4187Z" fill="#1E9A1C"/>
<path d="M30.1723 55.6384V55.0607L29.0432 54.4188V55.6384H30.1723Z" fill="#E23726"/>
<path d="M29.0432 56.9438L30.1723 56.3018V55.7241H29.0432V56.9438Z" fill="#1E9A1C"/>
<path d="M18.73 70.746V73.0894H16.497V75.2148H14.2336V81.2665H16.497V83.392H18.73V85.7353H26.8496L28.2775 86.5933L27.5913 87.0055H24.6961L24.4464 86.7239H27.0702L26.331 85.9795H22.5777L24.2782 87.7499H27.7978L29.0001 87.0275L30.2024 87.7499H33.7222L35.4226 85.9795H31.6695L30.9302 86.7239H33.5541L33.3043 87.0055H30.4089L29.7228 86.5933L31.1508 85.7353H39.2703V83.392H41.5034V81.2665H43.7666V75.2148H41.5034V73.0894H39.2703V70.746H31.1508L29.7228 69.8881L30.4089 69.4758H33.3043L33.5541 69.7574H30.9302L31.6695 70.5018H35.4226L33.7222 68.7314H30.2024L29.0001 69.4538L27.7978 68.7314H24.2782L22.5777 70.5018H26.331L27.0702 69.7574H24.4464L24.6961 69.4758H27.5913L28.2775 69.8881L26.8496 70.746H18.73Z" fill="#E23726"/>
<path d="M31.1266 85.646H39.188V83.3049H41.4126V81.1757H43.6795V75.2964H41.4126V73.1778H39.188V70.8367H31.1266L27.7791 68.8134H24.3151L22.7791 70.4129H26.2961L26.8681 69.8409H24.2516L24.6541 69.3854H27.6202L31.4126 71.6735H38.3406V74.0146H40.5757V76.1439H42.8427V80.3388H40.5757V82.468H38.3406V84.8091H31.4126L27.6202 87.0867H24.6541L24.2516 86.6418H26.8681L26.2961 86.0697H22.7791L24.3151 87.6693H27.7791L31.1266 85.646ZM26.5821 84.8091H19.6542V82.468H17.4296V80.3388H15.1626V76.1439H17.4296V74.0146H19.6542V71.6735H26.5821L30.3851 69.3854H33.3406L33.7432 69.8409H31.1372L31.7093 70.4129H35.2262L33.6902 68.8134H30.2262L26.8787 70.8367H18.8173V73.1778H16.5821V75.2964H14.3152V81.1757H16.5821V83.3049H18.8173V85.646H26.8787L30.2262 87.6693H33.6902L35.2262 86.0697H31.7093L31.1372 86.6418H33.7432L33.3406 87.0867H30.3851L26.5821 84.8091Z" fill="#FDD406"/>
<path d="M37.6691 81.7908V84.1341H31.229L29.0002 85.4733L26.7713 84.1341H20.3314V81.7908H18.0982V79.6652H15.835V76.8161H18.0982V74.6905H20.3314V72.3473H26.7594H26.7713L29.0002 71.0081L31.229 72.3473H37.6691V74.6905H39.9022V76.8161H42.1654V79.6652H39.9022V81.7908H37.6691Z" fill="#1E9A1C"/>
<path d="M21.1746 80.9698V83.2378H24.7146L21.1746 80.8899V80.9698Z" fill="black"/>
<path d="M21.1746 75.5117V73.2435H24.7146L21.1746 75.5914V75.5117Z" fill="black"/>
<path d="M36.8261 80.9698V83.2378H33.2861L36.8261 80.8899V80.9698Z" fill="black"/>
<path d="M36.8261 75.5117V73.2435H33.2861L36.8261 75.5914V75.5117Z" fill="black"/>
<path d="M21.2603 81.0497L24.4302 83.1522H21.2603V81.0497Z" fill="#E23726"/>
<path d="M21.2603 75.4319C21.3835 75.35 24.2142 73.4725 24.4302 73.3293H21.2603V75.4319Z" fill="#E23726"/>
<path d="M36.7405 81.0496C36.6171 81.1314 33.7864 83.0088 33.5706 83.1521H36.7405V81.0496Z" fill="#E23726"/>
<path d="M36.7405 75.4319C36.6171 75.3501 33.7864 73.4726 33.5706 73.3293H36.7405V75.4319Z" fill="#E23726"/>
<path d="M25.6898 77.6189V76.4606H25.2947L23.3995 75.2756L23.3768 75.2899L21.5043 76.4606H21.1093V77.6189H20.2183V78.8628H21.1093V80.0209H21.5043L23.3995 81.2059L25.2947 80.0209H25.6898V78.8628H27.0461V77.6189H25.6898Z" fill="black"/>
<path d="M23.3997 75.377L25.1333 76.4608H21.6663L23.3997 75.377ZM25.1331 80.0211L23.3997 81.1049L21.6664 80.0211H25.1331Z" fill="#E23726"/>
<path d="M24.7131 77.7047V78.7773H22.5513V77.7047H24.7131Z" fill="#E23726"/>
<path d="M25.6042 78.8627V79.9352H23.4424V78.8627H25.6042Z" fill="#FDD406"/>
<path d="M23.3569 78.8628V79.9354H21.1951V78.8628H23.3569Z" fill="#FDD406"/>
<path d="M26.9606 77.7047V78.7773H24.7988V77.7047H26.9606Z" fill="#FDD406"/>
<path d="M22.4658 77.7047V78.7773H20.304V77.7047H22.4658Z" fill="#FDD406"/>
<path d="M25.6042 76.5465V77.619H23.4424V76.5465H25.6042Z" fill="#FDD406"/>
<path d="M23.3569 76.5465V77.619H21.1951V76.5465H23.3569Z" fill="#FDD406"/>
<path d="M21.8707 77.9429V78.5388H20.8997V77.9429H21.8707Z" fill="black"/>
<path d="M22.7618 76.7847V77.3806H21.7908V76.7847H22.7618Z" fill="black"/>
<path d="M25.0089 76.7847V77.3806H24.0378V76.7847H25.0089Z" fill="black"/>
<path d="M24.118 77.9429V78.5388H23.147V77.9429H24.118Z" fill="black"/>
<path d="M26.3653 77.9429V78.5388H25.3943V77.9429H26.3653Z" fill="black"/>
<path d="M25.0089 79.1011V79.697H24.0378V79.1011H25.0089Z" fill="black"/>
<path d="M22.7618 79.1011V79.697H21.7908V79.1011H22.7618Z" fill="black"/>
<path d="M21.7789 78.0343H20.9907V78.4473H21.7789V78.0343Z" fill="white"/>
<path d="M22.67 76.8761H21.8818V77.2891H22.67V76.8761Z" fill="white"/>
<path d="M24.9173 76.8761H24.1292V77.2891H24.9173V76.8761Z" fill="white"/>
<path d="M24.0262 78.0343H23.238V78.4473H24.0262V78.0343Z" fill="white"/>
<path d="M26.2738 78.0343H25.4856V78.4473H26.2738V78.0343Z" fill="white"/>
<path d="M24.9173 79.1925H24.1292V79.6055H24.9173V79.1925Z" fill="white"/>
<path d="M22.67 79.1925H21.8818V79.6055H22.67V79.1925Z" fill="white"/>
<path d="M32.3107 77.6189V76.4606H32.7057L34.601 75.2756L34.6237 75.2899L36.4962 76.4606H36.8912V77.6189H37.7822V78.8628H36.8912V80.0209H36.4962L34.601 81.2059L32.7057 80.0209H32.3107V78.8628H30.9543V77.6189H32.3107Z" fill="black"/>
<path d="M34.6008 75.3768L32.8672 76.4607H36.3342L34.6008 75.3768ZM32.8674 80.021L34.6008 81.1048L36.3341 80.021H32.8674Z" fill="#E23726"/>
<path d="M33.2874 77.7046V78.7771H35.4492V77.7046H33.2874Z" fill="#E23726"/>
<path d="M32.3963 78.8627V79.9352H34.5581V78.8627H32.3963Z" fill="#FDD406"/>
<path d="M34.6436 78.8627V79.9352H36.8054V78.8627H34.6436Z" fill="#FDD406"/>
<path d="M31.0399 77.7047V78.7773H33.2017V77.7047H31.0399Z" fill="#FDD406"/>
<path d="M35.5347 77.7047V78.7773H37.6965V77.7047H35.5347Z" fill="#FDD406"/>
<path d="M32.3963 76.5465V77.619H34.5581V76.5465H32.3963Z" fill="#FDD406"/>
<path d="M34.6436 76.5465V77.619H36.8054V76.5465H34.6436Z" fill="#FDD406"/>
<path d="M36.1298 77.9429V78.5388H37.1008V77.9429H36.1298Z" fill="black"/>
<path d="M35.2387 76.7847V77.3806H36.2097V76.7847H35.2387Z" fill="black"/>
<path d="M32.9916 76.7847V77.3806H33.9626V76.7847H32.9916Z" fill="black"/>
<path d="M33.8825 77.9429V78.5388H34.8535V77.9429H33.8825Z" fill="black"/>
<path d="M31.6352 77.9429V78.5388H32.6062V77.9429H31.6352Z" fill="black"/>
<path d="M32.9916 79.1011V79.697H33.9626V79.1011H32.9916Z" fill="black"/>
<path d="M35.2387 79.1011V79.697H36.2097V79.1011H35.2387Z" fill="black"/>
<path d="M36.2216 78.0343H37.0098V78.4473H36.2216V78.0343Z" fill="white"/>
<path d="M35.3305 76.8761H36.1187V77.2891H35.3305V76.8761Z" fill="white"/>
<path d="M33.0832 76.8761H33.8713V77.2891H33.0832V76.8761Z" fill="white"/>
<path d="M33.9743 78.0343H34.7625V78.4473H33.9743V78.0343Z" fill="white"/>
<path d="M31.7267 78.0343H32.5149V78.4473H31.7267V78.0343Z" fill="white"/>
<path d="M33.0832 79.1925H33.8713V79.6055H33.0832V79.1925Z" fill="white"/>
<path d="M35.3305 79.1925H36.1187V79.6055H35.3305V79.1925Z" fill="white"/>
<path d="M31.2906 75.6841V76.8422H30.8956L29.0003 78.0272L28.9776 78.013L27.1051 76.8422H26.7101V75.6841H25.5864V74.4402H26.7101V73.282H27.1051L29.0003 72.0969L30.8956 73.282H31.2906V74.4402H32.4143V75.6841H31.2906Z" fill="black"/>
<path d="M29.0005 77.9261L30.734 76.8421H27.2671L29.0005 77.9261ZM30.7339 73.282L29.0005 72.198L27.2672 73.282H30.7339Z" fill="#FDD406"/>
<path d="M31.205 74.4401V73.3677H29.0432V74.4401H31.205Z" fill="#E23726"/>
<path d="M28.9577 74.4401V73.3677H26.7959V74.4401H28.9577Z" fill="#E23726"/>
<path d="M32.3285 75.5983V74.5258H30.1667V75.5983H32.3285Z" fill="#E23726"/>
<path d="M30.0812 75.5983V74.5258H27.9194V75.5983H30.0812Z" fill="#E23726"/>
<path d="M27.8338 75.5983V74.5258H25.6721V75.5983H27.8338Z" fill="#E23726"/>
<path d="M31.205 76.7565V75.684H29.0432V76.7565H31.205Z" fill="#E23726"/>
<path d="M28.9577 76.7565V75.684H26.7959V76.7565H28.9577Z" fill="#E23726"/>
<path d="M28.3622 73.6058V74.2018H27.3911V73.6058H28.3622Z" fill="black"/>
<path d="M30.6095 73.6058V74.2018H29.6384V73.6058H30.6095Z" fill="black"/>
<path d="M27.2384 74.764V75.36H26.2673V74.764H27.2384Z" fill="black"/>
<path d="M29.4859 74.764V75.36H28.5149V74.764H29.4859Z" fill="black"/>
<path d="M31.7335 74.764V75.36H30.7625V74.764H31.7335Z" fill="black"/>
<path d="M28.3622 75.9222V76.5182H27.3911V75.9222H28.3622Z" fill="black"/>
<path d="M30.6095 75.9222V76.5182H29.6384V75.9222H30.6095Z" fill="black"/>
<path d="M28.2708 73.6973H27.4827V74.1103H28.2708V73.6973Z" fill="white"/>
<path d="M30.5181 73.6973H29.73V74.1103H30.5181V73.6973Z" fill="white"/>
<path d="M27.147 74.8555H26.3589V75.2685H27.147V74.8555Z" fill="white"/>
<path d="M29.3946 74.8555H28.6064V75.2685H29.3946V74.8555Z" fill="white"/>
<path d="M31.6419 74.8555H30.8538V75.2685H31.6419V74.8555Z" fill="white"/>
<path d="M28.2708 76.0137H27.4827V76.4267H28.2708V76.0137Z" fill="white"/>
<path d="M30.5181 76.0137H29.73V76.4267H30.5181V76.0137Z" fill="white"/>
<path d="M31.2906 82.0416V83.1997H30.8956L29.0003 84.3847L28.9776 84.3706L27.1051 83.1997H26.7101V82.0416H25.5864V80.7977H26.7101V79.6396H27.1051L29.0003 78.4545L30.8956 79.6396H31.2906V80.7977H32.4143V82.0416H31.2906Z" fill="black"/>
<path d="M29.0005 84.2836L30.734 83.1997H27.2671L29.0005 84.2836ZM30.7339 79.6395L29.0005 78.5555L27.2672 79.6395H30.7339Z" fill="#FDD406"/>
<path d="M31.205 80.7977V79.7252H29.0432V80.7977H31.205Z" fill="#E23726"/>
<path d="M28.9577 80.7977V79.7252H26.7959V80.7977H28.9577Z" fill="#E23726"/>
<path d="M32.3285 81.9559V80.8833H30.1667V81.9559H32.3285Z" fill="#E23726"/>
<path d="M30.0812 81.9559V80.8833H27.9194V81.9559H30.0812Z" fill="#E23726"/>
<path d="M27.8338 81.9559V80.8833H25.6721V81.9559H27.8338Z" fill="#E23726"/>
<path d="M31.205 83.1141V82.0415H29.0432V83.1141H31.205Z" fill="#E23726"/>
<path d="M28.9577 83.1141V82.0415H26.7959V83.1141H28.9577Z" fill="#E23726"/>
<path d="M28.3622 79.9634V80.5593H27.3911V79.9634H28.3622Z" fill="black"/>
<path d="M30.6095 79.9634V80.5593H29.6384V79.9634H30.6095Z" fill="black"/>
<path d="M27.2384 81.1216V81.7175H26.2673V81.1216H27.2384Z" fill="black"/>
<path d="M29.4859 81.1216V81.7175H28.5149V81.1216H29.4859Z" fill="black"/>
<path d="M31.7335 81.1216V81.7175H30.7625V81.1216H31.7335Z" fill="black"/>
<path d="M28.3622 82.2798V82.8757H27.3911V82.2798H28.3622Z" fill="black"/>
<path d="M30.6095 82.2798V82.8757H29.6384V82.2798H30.6095Z" fill="black"/>
<path d="M28.2708 80.0548H27.4827V80.4678H28.2708V80.0548Z" fill="white"/>
<path d="M30.5181 80.0548H29.73V80.4678H30.5181V80.0548Z" fill="white"/>
<path d="M27.147 81.213H26.3589V81.626H27.147V81.213Z" fill="white"/>
<path d="M29.3946 81.213H28.6064V81.626H29.3946V81.213Z" fill="white"/>
<path d="M31.6419 81.213H30.8538V81.626H31.6419V81.213Z" fill="white"/>
<path d="M28.2708 82.3712H27.4827V82.7843H28.2708V82.3712Z" fill="white"/>
<path d="M30.5181 82.3712H29.73V82.7843H30.5181V82.3712Z" fill="white"/>
<path d="M16.7358 95.8708L25.1462 91.3445H25.157H32.854L41.2643 95.8708V103.329L32.854 107.855H25.1462L16.7358 103.329V95.8708Z" fill="black"/>
<path d="M25.1734 91.4302L16.8259 95.9217V103.273L25.1734 107.765H32.8321L41.1799 103.273V95.9217L32.8321 91.4302H25.1734ZM25.3216 92.0339H32.6839L40.5867 96.2817V102.924L32.6839 107.172H25.3171L17.4147 102.924V96.2817L25.3216 92.0339Z" fill="#1E9A1C"/>
<path d="M29.0431 99.5567V107.085H32.6621L40.4987 102.867V99.6425L28.9574 99.6425V92.1145H25.3384L17.5017 96.3318V99.5567L29.0431 99.5567Z" fill="#FDD406"/>
<path d="M28.9574 99.5567V107.085H25.3384L17.5017 102.867V99.6425L29.0431 99.6425V92.1145H32.6621L40.4988 96.3318V99.5567L28.9574 99.5567Z" fill="white"/>
<path d="M29.7035 106.663V104.488L29 104.934L28.2965 104.488V106.663H26.1082L27.5848 105.58V104.036L25.3328 102.607H23.7593V96.5926H25.3328L27.5848 95.1638V93.6193L26.1082 92.5364H26.2391H28.2965V94.7123L29 94.2659L29.7035 94.7123V92.5364H31.8919L30.4152 93.6193V95.1638L32.6671 96.5926H34.2407V102.607H32.6671L30.4152 104.036V105.58L31.8919 106.663H29.7035Z" fill="black"/>
<path d="M29.792 92.627V94.8727L29.0398 94.3961V95.0317L32.4825 97.2242H33.6161V99.5551H34.1564V96.6737H32.6415L30.3323 95.2117V93.5802L31.6351 92.627H29.792ZM23.8491 99.6398V102.521H25.3534L27.6734 103.993V105.625L26.3703 106.578H28.2137V104.332L28.9551 104.809V104.152L25.5123 101.981H24.3894V99.6398L23.8491 99.6398Z" fill="#FDD406"/>
<path d="M26.3701 92.627L27.6731 93.5802V95.2117L25.3531 96.6737H23.8489V99.5551H24.3891V97.2242H25.5121L28.9548 95.0422V94.3961L28.2135 94.8727V92.627L26.3701 92.627ZM33.6158 99.6398V101.981H32.4823L29.0395 104.152V104.809L29.7917 104.332V106.578H31.6348L30.3321 105.625V103.993L32.6412 102.521H34.1562V99.6398L33.6158 99.6398Z" fill="white"/>
<path d="M24.4712 101.892H25.5387L29.0002 104.088L32.4616 101.892H33.5293V97.3083H32.4741H32.4616L29.0002 95.1122L25.5387 97.3083H24.4712V101.892Z" fill="#E23726"/>
<path d="M31.3962 100.689H32.1353V100.339H31.5793V99.7036H32.7676V101.325H31.6284L31.6285 102.431H29.2836V100.842H30.3156V101.477H29.9159V101.795H30.9963V101.187L26.604 98.5108H25.8649V98.8604H26.421V99.496H25.2327V97.8751H26.3718V96.7692H26.4147H28.7166V98.3582H27.6846V97.7226H28.0843V97.4048H27.0041V98.0124L31.3962 100.689ZM30.9963 98.0124V97.4048H29.9159V97.7226H30.3156V98.3582H29.2836V96.7692H31.6285V97.8751H32.7676V99.496H31.5793V98.8604H32.1354V98.5108H31.3962L27.0041 101.187V101.795H28.0843V101.477H27.6846V100.841H28.7166V102.431H26.3718V101.325H25.2327V99.7036H26.421V100.339H25.8649V100.689H26.604L30.9963 98.0124Z" fill="black"/>
<path d="M31.0818 101.139V101.881H29.83V101.392H30.2298V100.927H29.3692V102.345H31.5426V101.239H32.6818V99.7896H31.6649V100.254H32.2209V100.775H31.3721L26.9182 98.0606V97.3193H28.17V97.8084H27.7703V98.2727H28.6308V96.855H26.4574V97.9609H25.3184V99.4105H26.3351V98.9462H25.7792V98.4252H26.6279L31.0818 101.139ZM31.3721 98.4252H32.221V98.9462H31.6649V99.4105H32.6818V97.9609H31.5428V96.855H29.3693V98.2727H30.2298V97.8084H29.8301V97.3193H31.0818V98.0606L26.6279 100.775H25.7792V100.254H26.3351V99.7895H25.3184V101.239H26.4574V102.345H28.6308V100.927H27.7703V101.392H28.17V101.881H26.9182V101.139L31.3721 98.4252Z" fill="white"/>
<path d="M38.809 99.9767V102.329H37.808V101.498H36.7989V102.329H35.7979V99.9767H36.7989V100.807H37.808V99.9767H38.809Z" fill="black"/>
<path d="M35.2272 103.1V105.452H34.2262V104.621H33.2171V105.452H32.2161V103.1H33.2171V103.93H34.2262V103.1H35.2272Z" fill="black"/>
<path d="M38.809 99.2225V96.8701H37.808V97.7009H36.7989V96.8701H35.7979V99.2225H36.7989V98.3917H37.808V99.2225H38.809Z" fill="black"/>
<path d="M19.1914 99.9767V102.329H20.1924V101.498H21.2015V102.329H22.2026V99.9767H21.2015V100.807H20.1924V99.9767H19.1914Z" fill="black"/>
<path d="M19.1914 99.2225V96.8701H20.1924V97.7009H21.2015V96.8701H22.2026V99.2225H21.2015V98.3917H20.1924V99.2225H19.1914Z" fill="black"/>
<path d="M35.2272 96.0997V93.7473H34.2262V94.5781H33.2171V93.7473H32.2161V96.0997H33.2171V95.2689H34.2262V96.0997H35.2272Z" fill="black"/>
<path d="M22.7734 103.1V105.452H23.7745V104.621H24.7836V105.452H25.7846V103.1H24.7836V103.931H23.7745V103.1H22.7734Z" fill="black"/>
<path d="M22.7734 96.0997V93.7473H23.7745V94.5781H24.7836V93.7473H25.7846V96.0997H24.7836V95.2689H23.7745V96.0997H22.7734Z" fill="black"/>
<path d="M35.8242 94.451V96.2375H39.1437L35.8242 94.451Z" fill="black"/>
<path d="M22.1761 104.748V102.962H18.8567L22.1761 104.748Z" fill="black"/>
<path d="M22.1761 94.451V96.2375H18.8567L22.1761 94.451Z" fill="black"/>
<path d="M35.8242 104.748V102.962H39.1437L35.8242 104.748Z" fill="black"/>
<path d="M37.8937 101.413V102.244H38.7233V100.063H37.8937V100.893H36.7131V100.063H35.8835V102.244H36.7131V101.413H37.8937Z" fill="#E23726"/>
<path d="M34.3116 104.536V105.366H35.1412V103.185H34.3116V104.016H33.1311V103.185H32.3015V105.366H33.1311V104.536H34.3116Z" fill="#E23726"/>
<path d="M37.8937 97.7867V96.9559H38.7233V99.1368H37.8937V98.3059H36.7131V99.1368H35.8835V96.9559H36.7131V97.7867H37.8937Z" fill="#E23726"/>
<path d="M20.1067 101.413V102.244H19.2771V100.063H20.1067V100.893H21.2872V100.063H22.1168V102.244H21.2872V101.413H20.1067Z" fill="#E23726"/>
<path d="M20.1067 97.7867V96.9559H19.2771V99.1368H20.1067V98.3059H21.2872V99.1368H22.1168V96.9559H21.2872V97.7867H20.1067Z" fill="#E23726"/>
<path d="M34.3116 94.6639V93.833H35.1412V96.014H34.3116V95.1831H33.1311V96.014H32.3015V93.833H33.1311V94.6639H34.3116Z" fill="#E23726"/>
<path d="M23.6887 104.536V105.366H22.8591V103.185H23.6887V104.016H24.8693V103.185H25.6989V105.366H24.8693V104.536H23.6887Z" fill="#E23726"/>
<path d="M23.6887 94.6639V93.833H22.8591V96.014H23.6887V95.1831H24.8693V96.014H25.6989V93.833H24.8693V94.6639H23.6887Z" fill="#E23726"/>
<path d="M35.9146 94.5972V96.1545H38.8068L35.9146 94.5972ZM19.1986 103.051L22.0906 104.608V103.051H19.1986Z" fill="#FDD406"/>
<path d="M22.0904 94.5972L19.1985 96.1545H22.0904V94.5972ZM35.9145 103.051V104.608L38.8067 103.051H35.9145Z" fill="white"/>
<path d="M42.5801 106.165C42.4202 106.846 41.8784 107.361 41.7493 108.067C41.4908 107.33 41.2525 106.713 41.4305 105.907C41.5578 105.33 42.0428 104.919 42.099 104.326C42.6278 104.802 42.7417 105.476 42.5801 106.165ZM42.7141 109.02C42.2656 109.635 41.642 110.107 40.9535 110.421C41.0891 109.883 40.8347 109.477 40.5523 109.049C40.2121 108.535 40.0463 108.029 40.3236 107.436C40.4528 107.744 40.6265 108 40.8302 108.264C41.1316 108.675 41.3297 109.04 41.3761 109.568C41.7246 109.309 41.8777 108.924 42.0641 108.551C42.3481 108.016 42.8065 107.569 43.3331 107.277C43.1932 107.877 43.0854 108.511 42.7141 109.02ZM40.1984 110.853C40.2943 111.195 40.377 111.533 40.3585 111.89C40.6549 111.571 41.0485 111.331 41.3996 111.073C41.8778 110.687 42.4352 110.414 42.8262 109.921C42.7679 110.646 42.4577 111.237 41.8687 111.678C41.2462 112.144 40.4953 112.395 39.8821 112.884C39.9739 112.225 39.7318 111.697 39.5252 111.091C39.3532 110.512 39.5197 109.924 39.9124 109.483C39.9065 109.972 40.0608 110.392 40.1984 110.853ZM38.8013 113.08C38.6723 113.58 38.314 113.987 38.0693 114.433C38.729 114.228 39.3112 113.87 39.9076 113.534C40.618 113.147 41.3893 112.901 42.0324 112.39C41.7124 113.575 40.9192 114.262 39.7588 114.612C38.9653 114.851 38.2967 114.732 37.3339 115.121C37.4443 114.469 37.6388 113.766 37.947 113.178C38.1862 112.753 38.4514 112.334 38.5991 111.866C38.813 112.25 38.9143 112.642 38.8013 113.08ZM36.3736 114.893C36.1464 115.282 35.8465 115.61 35.4746 115.868C36.4112 115.928 37.165 115.334 38.078 115.308C38.642 115.292 39.1775 115.467 39.7527 115.415C39.0701 115.875 38.3555 116.278 37.5245 116.385C36.4443 116.525 35.448 116.253 34.2563 116.359C34.8132 115.966 35.0919 115.44 35.439 114.875C35.8911 114.168 36.3177 113.665 37.1969 113.551C36.844 113.948 36.6385 114.439 36.3736 114.893ZM33.0473 116.447C34.6973 116.728 36.2784 117.091 37.9636 117.108C36.0773 117.765 34.3 117.884 32.4292 117.205C31.4182 116.838 30.643 116.642 29.8794 116.696C28.7635 116.777 27.4074 117.217 25.9066 118.8L25.3167 118.328C27.4677 116.411 30.2822 115.977 33.0472 116.447L33.0473 116.447Z" fill="#FDD406"/>
<path d="M15.4288 106.165C15.5886 106.846 16.1304 107.361 16.2595 108.067C16.518 107.33 16.7563 106.713 16.5784 105.907C16.4511 105.33 15.966 104.919 15.9099 104.326C15.381 104.802 15.2671 105.476 15.4288 106.165ZM15.2947 109.02C15.7433 109.635 16.3668 110.107 17.0554 110.421C16.9198 109.883 17.1742 109.477 17.4565 109.049C17.7967 108.535 17.9626 108.029 17.6853 107.436C17.556 107.744 17.3824 108 17.1786 108.264C16.8773 108.675 16.6792 109.04 16.6327 109.568C16.2843 109.309 16.1311 108.924 15.9448 108.551C15.6607 108.016 15.2023 107.569 14.6758 107.277C14.8157 107.877 14.9235 108.511 15.2947 109.02ZM17.8104 110.853C17.7145 111.195 17.6319 111.533 17.6503 111.89C17.3539 111.571 16.9603 111.331 16.6092 111.073C16.131 110.687 15.5736 110.414 15.1827 109.921C15.241 110.646 15.5512 111.237 16.1401 111.678C16.7627 112.144 17.5135 112.395 18.1267 112.884C18.0349 112.225 18.2771 111.697 18.4836 111.091C18.6557 110.512 18.4891 109.924 18.0965 109.483C18.1024 109.972 17.9481 110.392 17.8104 110.853ZM19.2076 113.08C19.3366 113.58 19.6949 113.987 19.9396 114.433C19.2798 114.228 18.6977 113.87 18.1013 113.534C17.3909 113.147 16.6195 112.901 15.9765 112.39C16.2965 113.575 17.0897 114.262 18.2501 114.612C19.0435 114.851 19.7122 114.732 20.6749 115.121C20.5645 114.469 20.37 113.766 20.0619 113.178C19.8227 112.753 19.5575 112.334 19.4098 111.866C19.1958 112.25 19.0945 112.642 19.2076 113.08ZM21.6353 114.893C21.8625 115.282 22.1623 115.61 22.5342 115.868C21.5976 115.928 20.8439 115.334 19.9308 115.308C19.3668 115.292 18.8314 115.467 18.2562 115.415C18.9388 115.875 19.6534 116.278 20.4844 116.385C21.5646 116.525 22.5609 116.253 23.7526 116.359C23.1957 115.966 22.917 115.44 22.5699 114.875C22.1178 114.168 21.6912 113.665 20.812 113.551C21.1649 113.948 21.3703 114.439 21.6353 114.893ZM24.9616 116.447C23.3116 116.728 21.7305 117.091 20.0453 117.108C21.9316 117.765 23.7089 117.884 25.5797 117.205C26.5907 116.838 27.3659 116.642 28.1295 116.696C29.2453 116.777 30.6015 117.217 32.1023 118.8L32.6922 118.328C30.5411 116.411 27.7267 115.977 24.9617 116.447L24.9616 116.447Z" fill="#FDD406"/>
</svg>
