<svg width="120" height="120" viewBox="0 0 120 120" fill="none" xmlns="http://www.w3.org/2000/svg">
<g clip-path="url(#clip0_307_74200)">
<path d="M120 0H0V120H120V0Z" fill="#1E9A1C"/>
<path d="M61.5237 16.604L62.1699 14.6153H64.2609L62.5692 13.3862L63.2154 11.3975L61.5237 12.6265L59.832 11.3975L60.4782 13.3861L58.7864 14.6153H60.8775L61.5237 16.604Z" fill="white"/>
<path d="M84.812 27.0341C84.812 20.8787 81.0847 15.5926 75.7647 13.3085C79.1465 16.1913 81.2126 20.5467 81.0038 25.3289C80.6442 33.5658 73.6728 39.9539 65.4358 39.5943C63.5798 39.5133 61.8181 39.0955 60.2058 38.4041C62.812 40.6242 66.19 41.9651 69.8811 41.9651C78.1259 41.9651 84.812 35.2789 84.812 27.0341Z" fill="white"/>
<path d="M62.1699 22.2953L61.5237 24.284L60.8775 22.2953H58.7864L60.4782 21.0662L59.832 19.0775L61.5237 20.3065L63.2154 19.0775L62.5692 21.0662L64.2609 22.2953H62.1699Z" fill="white"/>
<path d="M69.7573 18.5509L69.1111 20.5396L68.4649 18.5509H66.3738L68.0656 17.3217L67.4194 15.3331L69.1111 16.5621L70.8028 15.3331L70.1566 17.3218L71.8483 18.5509H69.7573Z" fill="white"/>
<path d="M53.9365 28.0284L54.5827 26.0396H56.6737L54.982 24.8106L55.6282 22.8218L53.9365 24.0509L52.2448 22.8218L52.891 24.8105L51.1992 26.0396H53.2903L53.9365 28.0284Z" fill="white"/>
<path d="M62.1699 29.9752L61.5237 31.964L60.8775 29.9752H58.7864L60.4782 28.7461L59.832 26.7574L61.5237 27.9865L63.2154 26.7574L62.5692 28.7462L64.2609 29.9752H62.1699Z" fill="white"/>
<path d="M45.2008 0H12.8008V120H45.2008V0Z" fill="#D91C16"/>
<path d="M20.7244 0H19.6015L17.6101 1.82194L16.8156 1.08041H17.5465L17.4088 0.24355H16.1376L13.627 2.59527V3.49569H14.7393V2.74358L15.3114 3.26264L14.0084 4.47027L14.6228 5.05288L12.8008 6.7478V7.92366L15.8834 5.05288L15.269 4.47027L16.5613 3.26264L15.449 2.22451L16.1906 1.54654L17.6101 2.8601L20.7244 0Z" fill="black"/>
<path d="M17.9564 0H18.6664L18.055 0.571948L17.9564 0Z" fill="black"/>
<path d="M12.8008 0H14.8981L14.2838 0.624923H13.5211V1.48296L12.8008 2.21389V0Z" fill="black"/>
<path d="M18.052 0H18.5393L18.1188 0.391831L18.052 0Z" fill="#FDD406"/>
<path d="M12.8011 0H14.7819L14.2523 0.529548H13.4367V1.45114L12.8011 2.08674V0Z" fill="#FDD406"/>
<path d="M12.8008 6.86426L14.7499 5.0528L14.1355 4.47019L15.4385 3.26256L14.6546 2.53163V3.41087H13.7118V2.62697L16.18 0.328251H17.3241L17.4409 0.995624H16.5934L17.6104 1.93842L19.7288 0H20.5866L17.6101 2.7435L16.1906 1.41934L15.3219 2.22443L16.4342 3.26256L15.1419 4.47019L15.7563 5.0528L12.8008 7.79646V6.86426Z" fill="#FDD406"/>
<path d="M12.8008 13.9175V15.0933L14.6228 16.7988L14.0084 17.3709L15.3114 18.5785L14.7393 19.0976V18.3454H13.627V19.2459L16.1376 21.5976H17.4088L17.5465 20.7713H16.8156L17.6101 20.0298L19.6016 21.8412L17.6101 23.6632L16.8156 22.9217H17.5465L17.4088 22.0849H16.1376L13.627 24.4366V25.337H14.7393V24.5849L15.3114 25.104L14.0084 26.3116L14.6228 26.8942L12.8008 28.5891V29.765L15.8834 26.8942L15.269 26.3116L16.5613 25.104L15.449 24.0658L16.1906 23.3879L17.6101 24.7014L20.7245 21.8413L17.6101 18.9811L16.1906 20.3052L15.449 19.6167L16.5613 18.5785L15.269 17.3709L15.8834 16.7989L12.8008 13.9175ZM12.8008 19.6272V24.0552L13.5211 23.3243V22.4662H14.2838L14.8982 21.8412L14.2838 21.2268H13.5211V20.3582L12.8008 19.6272ZM18.055 21.195L17.9491 21.7989L18.055 22.4133L18.7118 21.7989L18.055 21.195Z" fill="black"/>
<path d="M12.8011 14.0446V14.9768L14.7502 16.7988L14.1358 17.3708L15.4388 18.5785L14.6549 19.3094V18.4302H13.7121V19.2141L16.1803 21.5128H17.3244L17.4409 20.856H16.5934L17.6104 19.9026L19.729 21.8412L17.6104 23.7797L16.5934 22.8369H17.4409L17.3241 22.1696H16.18L13.7118 24.4683V25.2522H14.6546V24.3729L15.4385 25.1039L14.1355 26.3115L14.7499 26.8941L12.8008 28.7056V29.6378L15.7563 26.8941L15.1419 26.3115L16.4342 25.1039L15.3219 24.0657L16.1906 23.2607L17.6101 24.5848L20.5868 21.8412L17.6101 19.0975L16.1906 20.4217L15.3219 19.6166L16.4342 18.5785L15.1419 17.3708L15.7563 16.7988L12.8008 14.0446L12.8011 14.0446ZM12.8011 19.7543V23.928L13.4367 23.2925V22.3709H14.2523L14.782 21.8412L14.2523 21.3115H13.4367V20.3899L12.8011 19.7543ZM18.1188 21.3645L18.0447 21.7988L18.1188 22.2331L18.5849 21.7988L18.1188 21.3645Z" fill="#FDD406"/>
<path d="M12.8008 36.4772V37.653L14.6228 39.3585L14.0084 39.9306L15.3114 41.1382L14.7393 41.6573V40.9051H13.627V41.8056L16.1376 44.1573H17.4088L17.5465 43.331H16.8156L17.6101 42.5895L19.6016 44.4009L17.6101 46.2229L16.8156 45.4814H17.5465L17.4088 44.6446H16.1376L13.627 46.9963V47.8967H14.7393V47.1446L15.3114 47.6636L14.0084 48.8713L14.6228 49.4539L12.8008 51.1488V52.3247L15.8834 49.4539L15.269 48.8713L16.5613 47.6636L15.449 46.6255L16.1906 45.9475L17.6101 47.2611L20.7245 44.4009L17.6101 41.5408L16.1906 42.8649L15.449 42.1764L16.5613 41.1382L15.269 39.9306L15.8834 39.3586L12.8008 36.4772ZM12.8008 42.1869V46.6149L13.5211 45.884V45.0259H14.2838L14.8982 44.4009L14.2838 43.7865H13.5211V42.9179L12.8008 42.1869ZM18.055 43.7547L17.9491 44.3585L18.055 44.9729L18.7118 44.3585L18.055 43.7547Z" fill="black"/>
<path d="M12.8011 36.6043V37.5365L14.7502 39.3585L14.1358 39.9305L15.4388 41.1382L14.6549 41.8691V40.9899H13.7121V41.7737L16.1803 44.0725H17.3244L17.4409 43.4157H16.5934L17.6104 42.4623L19.729 44.4009L17.6104 46.3394L16.5934 45.3966H17.4409L17.3241 44.7293H16.18L13.7118 47.028V47.8119H14.6546V46.9326L15.4385 47.6636L14.1355 48.8712L14.7499 49.4538L12.8008 51.2653V52.1975L15.7563 49.4538L15.1419 48.8712L16.4342 47.6636L15.3219 46.6254L16.1906 45.8203L17.6101 47.1445L20.5868 44.4009L17.6101 41.6572L16.1906 42.9814L15.3219 42.1763L16.4342 41.1381L15.1419 39.9305L15.7563 39.3585L12.8008 36.6042L12.8011 36.6043ZM12.8011 42.314V46.4877L13.4367 45.8521V44.9305H14.2523L14.782 44.4009L14.2523 43.8712H13.4367V42.9496L12.8011 42.314ZM18.1188 43.9242L18.0447 44.3585L18.1188 44.7928L18.5849 44.3585L18.1188 43.9242Z" fill="#FDD406"/>
<path d="M12.8008 59.0366V60.2125L14.6228 61.918L14.0084 62.49L15.3114 63.6976L14.7393 64.2167V63.4646H13.627V64.365L16.1376 66.7167H17.4088L17.5465 65.8904H16.8156L17.6101 65.1489L19.6016 66.9604L17.6101 68.7824L16.8156 68.0409H17.5465L17.4088 67.204H16.1376L13.627 69.5557V70.4561H14.7393V69.704L15.3114 70.2231L14.0084 71.4307L14.6228 72.0133L12.8008 73.7082V74.8841L15.8834 72.0133L15.269 71.4307L16.5613 70.2231L15.449 69.185L16.1906 68.507L17.6101 69.8206L20.7245 66.9604L17.6101 64.1002L16.1906 65.4244L15.449 64.7358L16.5613 63.6977L15.269 62.4901L15.8834 61.918L12.8008 59.0366ZM12.8008 64.7464V69.1743L13.5211 68.4434V67.5854H14.2838L14.8982 66.9604L14.2838 66.346H13.5211V65.4773L12.8008 64.7464ZM18.055 66.3142L17.9491 66.918L18.055 67.5324L18.7118 66.918L18.055 66.3142Z" fill="black"/>
<path d="M12.8011 59.1637V60.0959L14.7502 61.9179L14.1358 62.49L15.4388 63.6976L14.6549 64.4285V63.5493H13.7121V64.3332L16.1803 66.6319H17.3244L17.4409 65.9751H16.5934L17.6104 65.0217L19.729 66.9603L17.6104 68.8989L16.5934 67.9561H17.4409L17.3241 67.2887H16.18L13.7118 69.5874V70.3713H14.6546V69.4921L15.4385 70.223L14.1355 71.4306L14.7499 72.0133L12.8008 73.8247V74.7569L15.7563 72.0133L15.1419 71.4306L16.4342 70.223L15.3219 69.1849L16.1906 68.3798L17.6101 69.7039L20.5868 66.9603L17.6101 64.2167L16.1906 65.5408L15.3219 64.7357L16.4342 63.6976L15.1419 62.49L15.7563 61.9179L12.8008 59.1637L12.8011 59.1637ZM12.8011 64.8735V69.0472L13.4367 68.4116V67.49H14.2523L14.782 66.9603L14.2523 66.4307H13.4367V65.5091L12.8011 64.8735ZM18.1188 66.4836L18.0447 66.918L18.1188 67.3523L18.5849 66.918L18.1188 66.4836Z" fill="#FDD406"/>
<path d="M12.8008 81.5959V82.7718L14.6228 84.4773L14.0084 85.0493L15.3114 86.257L14.7393 86.776V86.0239H13.627V86.9243L16.1376 89.276H17.4088L17.5465 88.4498H16.8156L17.6101 87.7082L19.6016 89.5197L17.6101 91.3417L16.8156 90.6002H17.5465L17.4088 89.7633H16.1376L13.627 92.115V93.0155H14.7393V92.2634L15.3114 92.7824L14.0084 93.99L14.6228 94.5727L12.8008 96.2676V97.4434L15.8834 94.5727L15.269 93.99L16.5613 92.7824L15.449 91.7443L16.1906 91.0663L17.6101 92.3799L20.7245 89.5197L17.6101 86.6596L16.1906 87.9837L15.449 87.2951L16.5613 86.257L15.269 85.0494L15.8834 84.4774L12.8008 81.5959ZM12.8008 87.3057V91.7337L13.5211 91.0027V90.1447H14.2838L14.8982 89.5197L14.2838 88.9053H13.5211V88.0366L12.8008 87.3057ZM18.055 88.8735L17.9491 89.4773L18.055 90.0917L18.7118 89.4773L18.055 88.8735Z" fill="black"/>
<path d="M12.8011 81.723V82.6552L14.7502 84.4773L14.1358 85.0493L15.4388 86.2569L14.6549 86.9879V86.1086H13.7121V86.8925L16.1803 89.1912H17.3244L17.4409 88.5345H16.5934L17.6104 87.5811L19.729 89.5196L17.6104 91.4582L16.5934 90.5154H17.4409L17.3241 89.848H16.18L13.7118 92.1467V92.9306H14.6546V92.0514L15.4385 92.7823L14.1355 93.99L14.7499 94.5726L12.8008 96.384V97.3162L15.7563 94.5726L15.1419 93.99L16.4342 92.7823L15.3219 91.7442L16.1906 90.9391L17.6101 92.2633L20.5868 89.5196L17.6101 86.776L16.1906 88.1001L15.3219 87.2951L16.4342 86.2569L15.1419 85.0493L15.7563 84.4773L12.8008 81.723L12.8011 81.723ZM12.8011 87.4328V91.6065L13.4367 90.9709V90.0493H14.2523L14.782 89.5197L14.2523 88.99H13.4367V88.0684L12.8011 87.4328ZM18.1188 89.043L18.0447 89.4773L18.1188 89.9116L18.5849 89.4773L18.1188 89.043Z" fill="#FDD406"/>
<path d="M37.2773 0H38.4003L40.3917 1.82194L41.1862 1.08041H40.4552L40.593 0.24355H41.8642L44.3748 2.59527V3.49569H43.2625V2.74358L42.6904 3.26264L43.9934 4.47027L43.379 5.05288L45.2006 6.74743V7.9233L42.1184 5.05288L42.7328 4.47027L41.4404 3.26264L42.5527 2.22451L41.8112 1.54654L40.3917 2.8601L37.2773 0Z" fill="black"/>
<path d="M45.2006 2.21349L44.4807 1.48296V0.624923H43.7179L43.1037 0H45.2006V2.21349Z" fill="black"/>
<path d="M40.0454 0L39.9468 0.571948L39.3354 0H40.0454Z" fill="black"/>
<path d="M39.9507 0H39.4633L39.8838 0.391831L39.9507 0Z" fill="#FDD406"/>
<path d="M45.2012 2.08639V0H43.2208L43.7503 0.529548H44.566V1.45114L45.2012 2.08639Z" fill="#FDD406"/>
<path d="M45.2012 6.86367L43.2527 5.0528L43.8671 4.47019L42.5642 3.26256L43.3481 2.53163V3.41087H44.2909V2.62697L41.8226 0.328251H40.6786L40.5618 0.995624H41.4092L40.3923 1.93842L38.2738 0H37.416L40.3926 2.7435L41.812 1.41934L42.6807 2.22443L41.5684 3.26256L42.8608 4.47019L42.2464 5.0528L45.2012 7.79587V6.86367Z" fill="#FDD406"/>
<path d="M45.2012 13.9175V15.0933L43.3791 16.7988L43.9936 17.3709L42.6906 18.5785L43.2626 19.0976V18.3454H44.3749V19.2459L41.8643 21.5976H40.5931L40.4554 20.7713H41.1864L40.3919 20.0298L38.4004 21.8412L40.3919 23.6632L41.1864 22.9217H40.4554L40.5931 22.0849H41.8643L44.3749 24.4366V25.337H43.2626V24.5849L42.6906 25.104L43.9936 26.3116L43.3791 26.8942L45.2012 28.5891V29.765L42.1186 26.8942L42.733 26.3116L41.4406 25.104L42.5529 24.0658L41.8114 23.3879L40.3919 24.7014L37.2775 21.8413L40.3919 18.9811L41.8114 20.3052L42.5529 19.6167L41.4406 18.5785L42.733 17.3709L42.1186 16.7989L45.2012 13.9175ZM45.2012 19.6272V24.0552L44.4808 23.3243V22.4662H43.7181L43.1038 21.8412L43.7181 21.2268H44.4808V20.3582L45.2012 19.6272ZM39.9469 21.195L40.0529 21.7989L39.9469 22.4133L39.2902 21.7989L39.9469 21.195Z" fill="black"/>
<path d="M45.2009 14.0446V14.9768L43.2517 16.7988L43.8662 17.3708L42.5632 18.5785L43.3471 19.3094V18.4302H44.2899V19.2141L41.8217 21.5128H40.6776L40.5611 20.856H41.4085L40.3916 19.9026L38.2729 21.8412L40.3916 23.7797L41.4085 22.8369H40.5611L40.6779 22.1696H41.8219L44.2902 24.4683V25.2522H43.3474V24.3729L42.5635 25.1039L43.8665 26.3115L43.252 26.8941L45.2012 28.7056V29.6378L42.2457 26.8941L42.8601 26.3115L41.5677 25.1039L42.68 24.0657L41.8114 23.2607L40.3919 24.5848L37.4152 21.8412L40.3919 19.0975L41.8114 20.4217L42.68 19.6166L41.5677 18.5785L42.8601 17.3708L42.2457 16.7988L45.2012 14.0446L45.2009 14.0446ZM45.2009 19.7543V23.928L44.5653 23.2925V22.3709H43.7496L43.22 21.8412L43.7496 21.3115H44.5653V20.3899L45.2009 19.7543ZM39.8831 21.3645L39.9573 21.7988L39.8831 22.2331L39.417 21.7988L39.8831 21.3645Z" fill="#FDD406"/>
<path d="M45.2012 36.4772V37.653L43.3791 39.3585L43.9936 39.9306L42.6906 41.1382L43.2626 41.6573V40.9051H44.3749V41.8056L41.8643 44.1573H40.5931L40.4554 43.331H41.1864L40.3919 42.5895L38.4004 44.4009L40.3919 46.2229L41.1864 45.4814H40.4554L40.5931 44.6446H41.8643L44.3749 46.9963V47.8967H43.2626V47.1446L42.6906 47.6636L43.9936 48.8713L43.3791 49.4539L45.2012 51.1488V52.3247L42.1186 49.4539L42.733 48.8713L41.4406 47.6636L42.5529 46.6255L41.8114 45.9475L40.3919 47.2611L37.2775 44.4009L40.3919 41.5408L41.8114 42.8649L42.5529 42.1764L41.4406 41.1382L42.733 39.9306L42.1186 39.3586L45.2012 36.4772ZM45.2012 42.1869V46.6149L44.4808 45.884V45.0259H43.7181L43.1038 44.4009L43.7181 43.7865H44.4808V42.9179L45.2012 42.1869ZM39.9469 43.7547L40.0529 44.3585L39.9469 44.9729L39.2902 44.3585L39.9469 43.7547Z" fill="black"/>
<path d="M45.2009 36.6043V37.5365L43.2517 39.3585L43.8662 39.9305L42.5632 41.1382L43.3471 41.8691V40.9899H44.2899V41.7737L41.8217 44.0725H40.6776L40.5611 43.4157H41.4085L40.3916 42.4623L38.2729 44.4009L40.3916 46.3394L41.4085 45.3966H40.5611L40.6779 44.7293H41.8219L44.2902 47.028V47.8119H43.3474V46.9326L42.5635 47.6636L43.8665 48.8712L43.252 49.4538L45.2012 51.2653V52.1975L42.2457 49.4538L42.8601 48.8712L41.5677 47.6636L42.68 46.6254L41.8114 45.8203L40.3919 47.1445L37.4152 44.4009L40.3919 41.6572L41.8114 42.9814L42.68 42.1763L41.5677 41.1381L42.8601 39.9305L42.2457 39.3585L45.2012 36.6042L45.2009 36.6043ZM45.2009 42.314V46.4877L44.5653 45.8521V44.9305H43.7496L43.22 44.4009L43.7496 43.8712H44.5653V42.9496L45.2009 42.314ZM39.8831 43.9242L39.9573 44.3585L39.8831 44.7928L39.417 44.3585L39.8831 43.9242Z" fill="#FDD406"/>
<path d="M45.2012 59.0365V60.2124L43.3791 61.9179L43.9936 62.4899L42.6906 63.6975L43.2626 64.2166V63.4645H44.3749V64.3649L41.8643 66.7166H40.5931L40.4554 65.8903H41.1864L40.3919 65.1488L38.4004 66.9602L40.3919 68.7823L41.1864 68.0407H40.4554L40.5931 67.2039H41.8643L44.3749 69.5556V70.456H43.2626V69.7039L42.6906 70.223L43.9936 71.4306L43.3791 72.0132L45.2012 73.7081V74.884L42.1186 72.0132L42.733 71.4306L41.4406 70.223L42.5529 69.1848L41.8114 68.5069L40.3919 69.8204L37.2775 66.9603L40.3919 64.1001L41.8114 65.4243L42.5529 64.7357L41.4406 63.6976L42.733 62.4899L42.1186 61.9179L45.2012 59.0365ZM45.2012 64.7463V69.1742L44.4808 68.4433V67.5852H43.7181L43.1038 66.9602L43.7181 66.3458H44.4808V65.4772L45.2012 64.7463ZM39.9469 66.3141L40.0529 66.9179L39.9469 67.5323L39.2902 66.9179L39.9469 66.3141Z" fill="black"/>
<path d="M45.2009 59.1636V60.0958L43.2517 61.9178L43.8662 62.4899L42.5632 63.6975L43.3471 64.4284V63.5492H44.2899V64.3331L41.8217 66.6318H40.6776L40.5611 65.975H41.4085L40.3916 65.0216L38.2729 66.9602L40.3916 68.8987L41.4085 67.956H40.5611L40.6779 67.2886H41.8219L44.2902 69.5873V70.3712H43.3474V69.492L42.5635 70.2229L43.8665 71.4305L43.252 72.0131L45.2012 73.8246V74.7568L42.2457 72.0131L42.8601 71.4305L41.5677 70.2229L42.68 69.1848L41.8114 68.3797L40.3919 69.7038L37.4152 66.9602L40.3919 64.2165L41.8114 65.5407L42.68 64.7356L41.5677 63.6975L42.8601 62.4898L42.2457 61.9178L45.2012 59.1636L45.2009 59.1636ZM45.2009 64.8733V69.0471L44.5653 68.4115V67.4899H43.7496L43.22 66.9602L43.7496 66.4305H44.5653V65.5089L45.2009 64.8733ZM39.8831 66.4835L39.9573 66.9178L39.8831 67.3522L39.417 66.9178L39.8831 66.4835Z" fill="#FDD406"/>
<path d="M45.2012 81.5958V82.7717L43.3791 84.4772L43.9936 85.0492L42.6906 86.2568L43.2626 86.7759V86.0238H44.3749V86.9242L41.8643 89.2759H40.5931L40.4554 88.4496H41.1864L40.3919 87.7081L38.4004 89.5196L40.3919 91.3416L41.1864 90.6001H40.4554L40.5931 89.7632H41.8643L44.3749 92.1149V93.0153H43.2626V92.2632L42.6906 92.7823L43.9936 93.9899L43.3791 94.5725L45.2012 96.2675V97.4433L42.1186 94.5725L42.733 93.9899L41.4406 92.7823L42.5529 91.7442L41.8114 91.0662L40.3919 92.3798L37.2775 89.5196L40.3919 86.6594L41.8114 87.9836L42.5529 87.295L41.4406 86.2569L42.733 85.0493L42.1186 84.4772L45.2012 81.5958ZM45.2012 87.3056V91.7335L44.4808 91.0026V90.1446H43.7181L43.1038 89.5196L43.7181 88.9052H44.4808V88.0365L45.2012 87.3056ZM39.9469 88.8734L40.0529 89.4772L39.9469 90.0916L39.2902 89.4772L39.9469 88.8734Z" fill="black"/>
<path d="M45.2009 81.7229V82.6551L43.2517 84.4771L43.8662 85.0492L42.5632 86.2568L43.3471 86.9877V86.1085H44.2899V86.8924L41.8217 89.1911H40.6776L40.5611 88.5343H41.4085L40.3916 87.581L38.2729 89.5195L40.3916 91.4581L41.4085 90.5153H40.5611L40.6779 89.8479H41.8219L44.2902 92.1466V92.9305H43.3474V92.0513L42.5635 92.7822L43.8665 93.9898L43.252 94.5725L45.2012 96.3839V97.3161L42.2457 94.5725L42.8601 93.9898L41.5677 92.7822L42.68 91.7441L41.8114 90.939L40.3919 92.2632L37.4152 89.5195L40.3919 86.7759L41.8114 88.1L42.68 87.2949L41.5677 86.2568L42.8601 85.0492L42.2457 84.4771L45.2012 81.7229L45.2009 81.7229ZM45.2009 87.4327V91.6064L44.5653 90.9708V90.0492H43.7496L43.22 89.5195L43.7496 88.9899H44.5653V88.0683L45.2009 87.4327ZM39.8831 89.0428L39.9573 89.4772L39.8831 89.9115L39.417 89.4772L39.8831 89.0428Z" fill="#FDD406"/>
<path d="M16.854 14.0678L14.2578 12.4758V8.64874L16.854 7.0567V5.0317L19.3074 3.55426H21.2675L24.997 1.45654H33.0036L36.7332 3.55426H38.6933L41.1467 5.0317V7.0567L43.7429 8.64874L43.7428 12.4758L41.1467 14.0678V16.0928L38.6933 17.5703H36.7332L33.0036 19.668H24.997L21.2675 17.5703H19.3074L16.854 16.0928V14.0678Z" fill="black"/>
<path d="M25.015 1.54651L21.2862 3.64397H19.3371L16.943 5.08464V7.10794L14.3477 8.69693V12.4257L16.943 14.0147V16.0486L19.3265 17.4893H21.2862L25.015 19.5868H32.9811L36.7099 17.4893H38.6697L41.0638 16.0486V14.0147L43.6591 12.4257V8.69693L41.0638 7.10794V5.08464L38.6697 3.64397H36.7099L32.9811 1.54651H25.015ZM25.2375 2.31981H32.7693L36.4981 4.41727H38.4472L40.2587 5.50838V7.53168L42.8646 9.12067V12.002L40.2587 13.591V15.6143L38.4472 16.7054H36.4981L32.7693 18.8029H25.2375L21.5087 16.7054H19.5595L17.7375 15.6143V13.591L15.1422 12.002V9.12067L17.7375 7.53168V5.50838L19.5595 4.41727H21.5087L25.2375 2.31981Z" fill="#1E9A1C"/>
<path d="M28.9568 10.605V2.40332H25.2557L21.526 4.50104H19.5816L17.8226 5.56028V7.58036L15.2266 9.17228V10.5194L29.0427 10.5193V18.7212H32.7439L36.4735 16.6234H38.4179L40.1768 15.5642V13.5442L42.773 11.9522V10.6051L28.9568 10.605Z" fill="#FDD406"/>
<path d="M15.2267 10.6051L15.2266 11.9522L17.8228 13.5442V15.5642L19.5816 16.6234H21.5261L25.2557 18.7212H28.957V10.5193L42.7731 10.5194V9.17228L40.1769 7.58036V5.56028L38.4181 4.50104H36.4736L32.744 2.40332H29.0428V10.605L15.2267 10.6051Z" fill="white"/>
<path d="M20.8917 5.25608L20.2525 4.6604L19.6193 5.05088L20.2595 5.64776L19.4375 6.15704H21.2313L22.7771 7.61516L23.2716 7.09292L21.7686 5.67512V4.71272L20.8917 5.25608Z" fill="black"/>
<path d="M23.9151 4.99436L23.276 4.39868L22.6427 4.78916L23.2829 5.38604L22.4609 5.89532H24.2547L25.8005 7.35345L26.2951 6.83121L24.7921 5.4134V4.451L23.9151 4.99436Z" fill="black"/>
<path d="M20.6689 6.96714L20.0298 6.37146L19.3966 6.76194L20.0367 7.35882L19.2148 7.8681H21.0086L22.5543 9.32622L23.0488 8.80398L21.5458 7.38618V6.42378L20.6689 6.96714Z" fill="black"/>
<path d="M29.0008 2.31775H27.3822L26.5352 3.13399H24.8841L23.6641 3.76723L23.9486 4.46047L25.0366 3.88903H25.5131L27.1814 5.81839L29.0008 4.71043L29.0008 2.31775Z" fill="black"/>
<path d="M20.24 4.76758L20.8143 5.3029L20.3331 5.60098L19.7579 5.06482L20.24 4.76758ZM21.681 4.86658V5.71198L23.1485 7.09629L22.7717 7.49421L21.2634 6.07138H19.7363L21.681 4.86658Z" fill="#D91C16"/>
<path d="M23.2654 4.50586L23.8397 5.04118L23.3585 5.33926L22.7834 4.8031L23.2654 4.50586ZM24.7064 4.60486V5.45026L26.1739 6.83457L25.7971 7.2325L24.2888 5.80978H22.7617L24.7064 4.60486Z" fill="#D91C16"/>
<path d="M20.0194 6.47864L20.5936 7.01396L20.1124 7.31204L19.5373 6.77588L20.0194 6.47864ZM21.4603 6.57764V7.42304L22.9278 8.80735L22.5511 9.20527L21.0429 7.78256H19.5156L21.4603 6.57764Z" fill="#D91C16"/>
<path d="M28.9584 2.40332H27.4172L26.5703 3.21956H24.9055L23.7734 3.80708L23.9924 4.34084L25.0158 3.80348H25.5528L27.1992 5.70764L28.9584 4.6364L28.9584 2.40332Z" fill="#D91C16"/>
<path d="M20.8917 15.8683L20.2525 16.464L19.6193 16.0735L20.2595 15.4766L19.4375 14.9673H21.2313L22.7771 13.5092L23.2716 14.0315L21.7686 15.4493V16.4117L20.8917 15.8683Z" fill="black"/>
<path d="M23.9151 16.13L23.276 16.7257L22.6427 16.3352L23.2829 15.7383L22.4609 15.2291H24.2547L25.8005 13.7709L26.2951 14.2932L24.7921 15.711V16.6734L23.9151 16.13Z" fill="black"/>
<path d="M20.6689 14.1572L20.0298 14.7529L19.3966 14.3625L20.0367 13.7656L19.2148 13.2563H21.0086L22.5543 11.7982L23.0488 12.3204L21.5458 13.7382V14.7006L20.6689 14.1572Z" fill="black"/>
<path d="M29.0008 18.8066H27.3822L26.5352 17.9904H24.8841L23.6641 17.3572L23.9486 16.6639L25.0366 17.2354H25.5131L27.1814 15.306L29.0008 16.414L29.0008 18.8066Z" fill="black"/>
<path d="M20.24 16.3568L20.8143 15.8215L20.3331 15.5234L19.7579 16.0596L20.24 16.3568ZM21.681 16.2578V15.4124L23.1485 14.0281L22.7717 13.6302L21.2634 15.053H19.7363L21.681 16.2578Z" fill="#D91C16"/>
<path d="M23.2654 16.6185L23.8397 16.0832L23.3585 15.7851L22.7834 16.3213L23.2654 16.6185ZM24.7064 16.5195V15.6741L26.1739 14.2898L25.7971 13.8919L24.2888 15.3146H22.7617L24.7064 16.5195Z" fill="#D91C16"/>
<path d="M20.0194 14.6458L20.5936 14.1104L20.1124 13.8124L19.5373 14.3485L20.0194 14.6458ZM21.4603 14.5468V13.7014L22.9278 12.317L22.5511 11.9191L21.0429 13.3418H19.5156L21.4603 14.5468Z" fill="#D91C16"/>
<path d="M28.9584 18.7211H27.4172L26.5703 17.9048H24.9055L23.7734 17.3173L23.9924 16.7835L25.0158 17.3209H25.5528L27.1992 15.4167L28.9584 16.488L28.9584 18.7211Z" fill="#D91C16"/>
<path d="M19.8124 7.94217L19.0407 7.65381L19.0222 7.66665L18.0257 8.35809V8.54397L16.4297 10.5622L18.0257 12.5805V12.7665L19.0407 13.4707L19.8124 13.1823L19.3414 12.8704V12.277L19.5286 12.0531H20.3649V9.07137H19.5286L19.3414 8.84745V8.25405L19.8124 7.94217Z" fill="black"/>
<path d="M18.1115 8.40267L19.0528 7.74963L19.6252 7.96347L19.2559 8.20803V8.87847L19.4887 9.15687H20.2792V11.9675H19.4887L19.2559 12.2459V12.9164L19.6252 13.1609L19.0528 13.3748L18.1115 12.7217L18.1117 12.5507L16.5391 10.5622L18.1117 8.57356L18.1115 8.40267Z" fill="#D91C16"/>
<path d="M37.1103 5.25608L37.7494 4.6604L38.3827 5.05088L37.7425 5.64776L38.5645 6.15704H36.7707L35.2249 7.61516L34.7303 7.09292L36.2333 5.67512V4.71272L37.1103 5.25608Z" fill="black"/>
<path d="M34.0849 4.99436L34.724 4.39868L35.3573 4.78916L34.7171 5.38604L35.5391 5.89532H33.7453L32.1995 7.35345L31.7049 6.83121L33.2079 5.4134V4.451L34.0849 4.99436Z" fill="black"/>
<path d="M37.3311 6.96714L37.9702 6.37146L38.6034 6.76194L37.9633 7.35882L38.7852 7.8681H36.9914L35.4457 9.32622L34.9512 8.80398L36.4542 7.38618V6.42378L37.3311 6.96714Z" fill="black"/>
<path d="M28.9992 2.31775H30.6178L31.4648 3.13399H33.1159L34.3359 3.76723L34.0514 4.46047L32.9634 3.88903H32.4869L30.8186 5.81839L28.9992 4.71043L28.9992 2.31775Z" fill="black"/>
<path d="M37.76 4.76758L37.1857 5.3029L37.6669 5.60098L38.2421 5.06482L37.76 4.76758ZM36.319 4.86658V5.71198L34.8515 7.09629L35.2283 7.49421L36.7366 6.07138H38.2637L36.319 4.86658Z" fill="#D91C16"/>
<path d="M34.7346 4.50586L34.1603 5.04118L34.6415 5.33926L35.2166 4.8031L34.7346 4.50586ZM33.2936 4.60486V5.45026L31.8261 6.83457L32.2029 7.2325L33.7112 5.80978H35.2383L33.2936 4.60486Z" fill="#D91C16"/>
<path d="M37.9806 6.47864L37.4064 7.01396L37.8876 7.31204L38.4627 6.77588L37.9806 6.47864ZM36.5397 6.57764V7.42304L35.0722 8.80735L35.4489 9.20527L36.9571 7.78256H38.4844L36.5397 6.57764Z" fill="#D91C16"/>
<path d="M29.0416 2.40332H30.5828L31.4297 3.21956H33.0945L34.2266 3.80708L34.0076 4.34084L32.9842 3.80348H32.4472L30.8008 5.70764L29.0416 4.6364L29.0416 2.40332Z" fill="#D91C16"/>
<path d="M37.1103 15.8683L37.7494 16.464L38.3827 16.0735L37.7425 15.4766L38.5645 14.9673H36.7707L35.2249 13.5092L34.7303 14.0315L36.2333 15.4493V16.4117L37.1103 15.8683Z" fill="black"/>
<path d="M34.0849 16.13L34.724 16.7257L35.3573 16.3352L34.7171 15.7383L35.5391 15.2291H33.7453L32.1995 13.7709L31.7049 14.2932L33.2079 15.711V16.6734L34.0849 16.13Z" fill="black"/>
<path d="M37.3311 14.1572L37.9702 14.7529L38.6034 14.3625L37.9633 13.7656L38.7852 13.2563H36.9914L35.4457 11.7982L34.9512 12.3204L36.4542 13.7382V14.7006L37.3311 14.1572Z" fill="black"/>
<path d="M28.9992 18.8066H30.6178L31.4648 17.9904H33.1159L34.3359 17.3572L34.0514 16.6639L32.9634 17.2354H32.4869L30.8186 15.306L28.9992 16.414L28.9992 18.8066Z" fill="black"/>
<path d="M37.76 16.3568L37.1857 15.8215L37.6669 15.5234L38.2421 16.0596L37.76 16.3568ZM36.319 16.2578V15.4124L34.8515 14.0281L35.2283 13.6302L36.7366 15.053H38.2637L36.319 16.2578Z" fill="#D91C16"/>
<path d="M34.7346 16.6185L34.1603 16.0832L34.6415 15.7851L35.2166 16.3213L34.7346 16.6185ZM33.2936 16.5195V15.6741L31.8261 14.2898L32.2029 13.8919L33.7112 15.3146H35.2383L33.2936 16.5195Z" fill="#D91C16"/>
<path d="M37.9806 14.6458L37.4064 14.1104L37.8876 13.8124L38.4627 14.3485L37.9806 14.6458ZM36.5397 14.5468V13.7014L35.0722 12.317L35.4489 11.9191L36.9571 13.3418H38.4844L36.5397 14.5468Z" fill="#D91C16"/>
<path d="M29.0416 18.7211H30.5828L31.4297 17.9048H33.0945L34.2266 17.3173L34.0076 16.7835L32.9842 17.3209H32.4472L30.8008 15.4167L29.0416 16.488L29.0416 18.7211Z" fill="#D91C16"/>
<path d="M38.1876 7.94217L38.9593 7.65381L38.9778 7.66665L39.9743 8.35809V8.54397L41.5703 10.5622L39.9743 12.5805V12.7665L38.9593 13.4707L38.1876 13.1823L38.6586 12.8704V12.277L38.4714 12.0531H37.6351V9.07137H38.4714L38.6586 8.84745V8.25405L38.1876 7.94217Z" fill="black"/>
<path d="M39.8885 8.40267L38.9472 7.74963L38.3748 7.96347L38.7441 8.20803V8.87847L38.5113 9.15687H37.7208V11.9675H38.5113L38.7441 12.2459V12.9164L38.3748 13.1609L38.9472 13.3748L39.8885 12.7217L39.8883 12.5507L41.4609 10.5622L39.8883 8.57356L39.8885 8.40267Z" fill="#D91C16"/>
<path d="M18.4409 12.2564L18.0064 11.8804V11.6992L17.0742 10.5622L18.0065 9.42511V9.24403L18.441 8.86807L19.2215 9.50275L18.771 9.49927L19.4367 10.1749H20.9577L22.1538 9.23947V6.77263H25.1455L28.62 4.64047V4.08127L28.0887 3.72715H27.9203L27.3417 4.11439L27.252 4.40323L26.7994 3.78523L27.6791 3.04615H27.8197L28.8125 2.31775H29.1868L30.1794 3.04615H30.3202L31.1999 3.78523L30.7473 4.40323L30.6576 4.11439L30.079 3.72715H29.9106L29.3793 4.08127V4.64047L32.8537 6.77263H35.8455V9.23947L37.0416 10.1749H38.5626L39.2283 9.49927L38.7778 9.50275L39.5583 8.86807L39.9928 9.24403V9.42511L40.9251 10.5622L39.9928 11.6992V11.8804L39.5583 12.2564L38.7778 11.6217L39.2283 11.6252L38.5626 10.9495H37.0416L35.8455 11.885V14.3518H32.8537L29.3793 16.484V17.0432L29.9106 17.3973H30.079L30.6576 17.0101L30.7473 16.7212L31.1999 17.3391L30.3202 18.0783H30.1794L29.1868 18.8067H28.8125L27.8197 18.0783H27.6791L26.7993 17.3391L27.252 16.7212L27.3417 17.0101L27.9202 17.3973H28.0885L28.62 17.0432V16.484L25.1455 14.3518H22.1538V11.885L20.9575 10.9495H19.4367L18.771 11.6252L19.2215 11.6217L18.4409 12.2564Z" fill="black"/>
<path d="M29.0432 17.4638L29.4235 17.7546L29.0432 18.0453V17.4638ZM27.8345 17.9926H27.8485L28.8413 18.7212H28.9572V18.1528L28.4364 17.7546L28.9573 17.3563V16.2888L25.2395 14.0072H22.4911V11.7147L21.0721 10.605H18.9318L18.3938 11.2132L17.8559 10.605L17.2207 10.6051L18.0926 11.6685V11.8412L18.438 12.1412L18.9929 11.7092L18.6672 11.7117V11.6037L19.3929 10.8639H20.9877L22.2402 11.8434V14.2663H25.1705L28.7063 16.4361V17.0889L28.1152 17.4829H27.8947L27.2694 17.0643L27.2213 16.909L26.9164 17.3252L27.711 17.9926L27.8345 17.9926ZM18.3943 10.0406L18.8179 10.5194H17.9706L18.3943 10.0406ZM28.9574 3.07916L28.5774 3.36992L28.9574 3.66056V3.07916ZM39.1829 10.6051L39.6065 11.0839L40.0301 10.6051H39.1829ZM30.152 3.13172L29.1593 2.40332H29.0433V2.9714L29.5644 3.36992L29.0432 3.76844V4.83572L32.7611 7.11728H35.5094V9.40976L36.9284 10.5195H39.0684L39.6065 9.91136L40.1446 10.5194H40.7798L39.9079 9.45596V9.28328L39.5626 8.98328L39.0077 9.41528L39.3334 9.41264V9.52076L38.6076 10.2604H37.0128L35.7605 9.281V6.8582H32.8301L29.2943 4.68836V4.03544L29.8854 3.6416H30.1058L30.7311 4.06016L30.7793 4.21544L31.0842 3.79928L30.2895 3.13172L30.152 3.13172Z" fill="#FDD406"/>
<path d="M28.9572 18.0452L28.5771 17.7546L28.9572 17.4639V18.0452ZM18.8177 10.6051L18.3941 11.0839L17.9705 10.6051H18.8177ZM30.1658 17.9926H30.1518L29.159 18.7212H29.0431V18.5724V18.1531L29.5641 17.7546L29.043 17.356V16.2888L32.7608 14.0072H35.5092V11.7147L36.9282 10.605H39.0683L39.6062 11.2132L40.1442 10.605L40.7796 10.6051L39.9077 11.6685V11.8412L39.5623 12.1412L39.0074 11.7092L39.3331 11.7117V11.6037L38.6074 10.8639H37.0125L35.7602 11.8434V14.2663H32.8298L29.294 16.4361V17.0889L29.8851 17.4829H30.1056L30.7309 17.0643L30.779 16.909L31.0839 17.3252L30.2893 17.9926L30.1658 17.9926ZM39.6062 10.0406L39.1826 10.5194H40.0299L39.6062 10.0406ZM27.8485 3.13172L28.8413 2.40332H28.9573V2.9714L28.4361 3.36992L28.9573 3.76844L28.9574 4.83572L25.2395 7.11728H22.4912V9.40976L21.0721 10.5195H18.9315L18.3936 9.91136L17.8555 10.5194H17.2207L18.0927 9.45596V9.28328L18.4381 8.98328L18.9929 9.41528L18.6672 9.41264V9.52076L19.3931 10.2604H20.9877L22.2402 9.281V6.8582H25.1705L28.7064 4.68836V4.03544L28.1153 3.6416H27.8947L27.2694 4.06016L27.2213 4.21544L26.9165 3.79928L27.7111 3.13172L27.8485 3.13172ZM29.043 3.66068L29.4233 3.36992L29.043 3.07916V3.66068Z" fill="white"/>
<path d="M28.9572 10.605V4.93604L25.2635 7.20284H22.5765V9.4514L21.2109 10.5194L29.043 10.5193V16.1883L32.7365 13.9216H35.4234V11.6731L36.789 10.6051L28.9572 10.605Z" fill="#1E9A1C"/>
<path d="M21.2109 10.605L22.5767 11.673V13.9215H25.2635L28.9573 16.1883V10.5191L36.7891 10.5193L35.4235 9.45127V7.20271H32.7366L29.0431 4.93604V10.6049L21.2109 10.605Z" fill="#D91C16"/>
<path d="M25.0244 7.81272L24.3854 7.21704L23.7521 7.6074L24.3923 8.20428L23.5703 8.71356H25.3641L26.9099 10.1718L27.4044 9.64945L25.9014 8.23164V7.26936L25.0244 7.81272Z" fill="black"/>
<path d="M32.9757 13.3118L33.6148 13.9075L34.2479 13.517L33.6078 12.9202L34.4298 12.411H32.6359L31.0902 10.9528L30.5957 11.475L32.0987 12.8929V13.8552L32.9757 13.3118Z" fill="black"/>
<path d="M25.0244 13.3118L24.3852 13.9075L23.7521 13.517L24.3922 12.9202L23.5703 12.411H25.3641L26.9098 10.9528L27.4043 11.475L25.9013 12.8929V13.8552L25.0244 13.3118Z" fill="black"/>
<path d="M32.9757 7.81272L33.6148 7.21704L34.2479 7.6074L33.6078 8.20428L34.4298 8.71356H32.6359L31.0902 10.1718L30.5957 9.64945L32.0987 8.23164V7.26936L32.9757 7.81272Z" fill="black"/>
<path d="M33.6251 13.8003L33.0509 13.265L33.5321 12.9669L34.1071 13.503L33.6251 13.8003ZM32.1841 13.7013V12.856L30.7166 11.4717L31.0934 11.0736L32.6017 12.4965H34.1288L32.1841 13.7013ZM24.3747 7.32397L24.9491 7.85929L24.4677 8.15749L23.8927 7.62133L24.3747 7.32397ZM25.8158 7.42309V8.26837L27.2833 9.65269L26.9065 10.0507L25.3982 8.62789H23.8711L25.8158 7.42309Z" fill="#D91C16"/>
<path d="M33.6252 7.32397L33.051 7.85929L33.5322 8.15749L34.1072 7.62133L33.6252 7.32397ZM32.1842 7.42309V8.26837L30.7167 9.65269L31.0935 10.0507L32.6018 8.62789H34.1289L32.1842 7.42309ZM24.3749 13.8003L24.9491 13.265L24.4679 12.9669L23.8928 13.503L24.3749 13.8003ZM25.8158 13.7013V12.856L27.2833 11.4717L26.9066 11.0736L25.3983 12.4965H23.8711L25.8158 13.7013Z" fill="#1E9A1C"/>
<path d="M32.9709 10.5624L28.9991 13.2094L25.0273 10.5624L28.9991 7.91516L32.9709 10.5624Z" fill="black"/>
<path d="M28.9565 8.04651L25.2462 10.5193H32.7526L29.0423 8.04651V13.0779L32.7527 10.605H25.2461L28.9565 13.0779V8.04651Z" fill="white"/>
<path d="M30.0613 11.4725V12.2003H27.9372V11.4725H26.5625V9.65187H27.9372V8.92407H30.0613V9.65187H31.4359V11.4725H30.0613Z" fill="black"/>
<path d="M28.023 9.00965V9.73745H26.6484V10.5194H28.9565V9.00964L28.023 9.00965ZM29.0423 10.5194H31.3504V9.73745H29.9758V9.00965H29.0423L29.0423 10.5194ZM26.6484 10.6051V11.387H28.023V12.1148H28.9565V10.605L26.6484 10.6051ZM29.0423 12.1148H29.9758V11.387H31.3504V10.6051H29.0423V12.1148Z" fill="#D91C16"/>
<path d="M35.7772 40.7219V39.5559H38.9748V38.3898H42.1725V27.8536H38.9748V26.6875H35.7772V25.5215H32.5796V24.3555H25.4231V25.5215H22.2255V26.6875H19.0277V27.8536H15.8301V38.3898H19.0277V39.5559H22.2255V40.7219H25.4231V41.8879H32.5796V40.7219H35.7772Z" fill="black"/>
<path d="M25.5136 24.4385V25.6037H22.3143V26.769H19.1152V27.9342H15.916V38.305H19.1152V39.4704H22.3143V40.6355H25.5136V41.8006H32.4943V40.6355H35.6936V39.4704H38.8929V38.305H42.0919V27.9342H38.8929V26.769H35.6936V25.6037H32.4943V24.4385H25.5136ZM26.361 25.2859H31.6468V26.4512H34.8461V27.6164H38.0454V28.7817H41.2444V37.4575H38.0454V38.6229H34.8461V39.788H31.6468V40.9531H26.361V39.788H23.1618V38.6229H19.9627V37.4575H16.7635V28.7817H19.9627V27.6164H23.1618V26.4512H26.361V25.2859Z" fill="#FDD406"/>
<path d="M23.2431 39.7037V38.5375H20.0454V37.3716H16.8477V28.8715H20.0454V27.7055H23.2431V26.5395H26.4407V25.3735H31.5609V26.5395H34.7586V27.7055H37.9561V28.8715H41.1539V37.3716H37.9561V38.5375H34.7586V39.7037H31.5609V40.8696H26.4407V39.7037H23.2431Z" fill="#D91C16"/>
<path d="M23.986 27.4028L23.1578 26.7767V27.9789L22.3647 28.4829L22.3627 27.7304L21.602 28.4136L20.8413 27.7304L20.8393 28.4829L19.9604 27.9244V29.039L19.2501 29.5532L19.2481 28.8698L18.4043 29.4809L17.5604 28.8698L17.5584 29.5532L16.7625 28.9769V32.3532H15.8301V33.8901H16.7625V37.2664L17.5584 36.69L17.5604 37.3736L18.4043 36.7624L19.248 37.3736L19.25 36.69L19.9603 37.2042V38.3189L20.8392 37.7604L20.8412 38.513L21.6019 37.8297L22.3626 38.513L22.3646 37.7604L23.1577 38.2643V39.4666L23.986 38.8406L23.9878 39.6802L24.7994 38.9543L25.6112 39.6802L25.613 38.8406L26.3556 39.4018V40.684L27.4658 39.672V40.8612L29.0014 39.874L30.537 40.8612V39.672L31.6472 40.684V39.4018L32.3897 38.8406L32.3915 39.6802L33.2033 38.9543L34.0151 39.6802L34.0169 38.8406L34.8449 39.4666V38.2643L35.6382 37.7604L35.6402 38.513L36.401 37.8297L37.1617 38.513L37.1637 37.7604L38.0427 38.3189V37.2042L38.753 36.69L38.755 37.3736L39.5987 36.7624L40.4425 37.3736L40.4445 36.69L41.2405 37.2663V33.8901H42.1729V32.3532H41.2405V28.9769L40.4445 29.5532L40.4425 28.8698L39.5987 29.4809L38.7548 28.8698L38.753 29.5532L38.0428 29.039V27.9244L37.1638 28.4829L37.1618 27.7304L36.4011 28.4136L35.6403 27.7304L35.6383 28.4829L34.845 27.9788V26.7767L34.017 27.4026L34.0152 26.563L33.2034 27.289L32.3916 26.563L32.3898 27.4028L31.6473 26.8413V25.5593L30.5371 26.5713V25.3821L29.0014 26.3693L27.4659 25.3821V26.5713L26.3557 25.5593V26.8414L25.6131 27.4028L25.6113 26.563L24.7995 27.289L23.9878 26.563L23.986 27.4028Z" fill="black"/>
<path d="M17.644 29.7206L17.646 29.0371L18.4045 29.5866L18.4301 29.568L19.1631 29.0371L19.1651 29.7206L19.9607 29.1447V37.0983L19.1651 36.5225L19.1631 37.206L18.4045 36.6565L17.646 37.206L17.644 36.5225L16.8484 37.0983V33.8042H15.916V32.4389H16.8484V29.1447L17.644 29.7206Z" fill="#1E9A1C"/>
<path d="M24.0735 26.7543L24.8 27.404L25.5265 26.7543L25.5283 27.5747L26.356 26.9489V39.2944L25.5283 38.6686L25.5265 39.489L24.8 38.8394L24.0735 39.489L24.0719 38.6686L23.2441 39.2944V26.9489L24.0719 27.5747L24.0735 26.7543Z" fill="#1E9A1C"/>
<path d="M33.9308 26.7543L33.2044 27.404L32.4779 26.7543L32.4761 27.5747L31.6484 26.9489V39.2944L32.4761 38.6686L32.4779 39.489L33.2044 38.8394L33.9308 39.489L33.9326 38.6686L34.7604 39.2944V26.9489L33.9326 27.5747L33.9308 26.7543Z" fill="#1E9A1C"/>
<path d="M40.3596 29.7206L40.3576 29.0371L39.5991 29.5866L39.5734 29.568L38.8404 29.0371L38.8384 29.7206L38.043 29.1447V37.0983L38.8384 36.5225L38.8404 37.206L39.5991 36.6565L40.3576 37.206L40.3596 36.5225L41.1551 37.0983V33.8042H42.0875V32.4389H41.1551V29.1447L40.3596 29.7206Z" fill="#1E9A1C"/>
<path d="M20.9274 27.9221L21.6029 28.529L22.2784 27.9221L22.2804 28.6388L23.1589 28.0804V38.1629L22.2804 37.6047L22.2784 38.3212L21.6029 37.7145L20.9274 38.3212L20.9254 37.6047L20.0469 38.1629V28.0804L20.9254 28.6388L20.9274 27.9221Z" fill="#FDD406"/>
<path d="M27.5516 26.7653L26.4414 25.7534V40.4899L27.5516 39.4779V40.7042L29.0014 39.7721H29.0016L30.4513 40.7042V39.4779L31.5616 40.4899V25.7534L30.4513 26.7653V25.5391L29.0016 26.4711H29.0014L27.5516 25.5391V26.7653Z" fill="#FDD406"/>
<path d="M37.0772 27.9221L36.4017 28.529L35.7261 27.9221L35.7243 28.6388L34.8457 28.0804V38.1629L35.7243 37.6047L35.7261 38.3212L36.4017 37.7145L37.0772 38.3212L37.0792 37.6047L37.9577 38.1629V28.0804L37.0792 28.6388L37.0772 27.9221Z" fill="#FDD406"/>
<path d="M18.0594 31.6731C18.1565 31.771 18.2725 31.8206 18.4043 31.8206C18.5359 31.8206 18.652 31.771 18.7492 31.6731C19.0529 31.3671 19.0631 30.8137 19.0601 30.4154C19.0601 30.4154 18.709 30.7864 18.6456 30.8534C18.6015 30.7771 18.4043 30.4366 18.4043 30.4366C18.4043 30.4366 18.2071 30.7771 18.1629 30.8534C18.0995 30.7864 17.7484 30.4154 17.7484 30.4154C17.7454 30.8137 17.7557 31.3671 18.0594 31.6731Z" fill="black"/>
<path d="M21.3961 30.816L21.1403 30.5604V30.0511L20.5527 30.5956L21.603 31.6459L22.6532 30.5956L22.0657 30.0511V30.5604L21.81 30.816V29.9137L22.263 29.5248L21.603 28.958L20.943 29.5248L21.3961 29.9137V30.816Z" fill="black"/>
<path d="M24.5932 29.8039L24.3375 29.5482V29.0389L23.75 29.5834L24.8002 30.6337L25.8505 29.5834L25.263 29.0389V29.5482L25.0071 29.8039V28.9015L25.4602 28.5126L24.8002 27.9459L24.1402 28.5126L24.5932 28.9015V29.8039Z" fill="black"/>
<path d="M18.4043 30.6077C18.4567 30.6981 18.6289 30.9956 18.6289 30.9956C18.6289 30.9956 18.8716 30.7391 18.9707 30.6345C18.9588 31.0843 18.8601 31.4396 18.6883 31.6125C18.6078 31.6937 18.5123 31.7348 18.4043 31.7348C18.2962 31.7348 18.2007 31.6937 18.1203 31.6127C17.9485 31.4396 17.8498 31.0843 17.8379 30.6345C17.9369 30.7392 18.1795 30.9956 18.1795 30.9956C18.2544 30.8663 18.3294 30.7369 18.4043 30.6077Z" fill="white"/>
<path d="M24.921 28.8622V30.0109L25.3482 29.5838V29.2353L25.7264 29.586L24.7998 30.5126L23.873 29.586L24.2513 29.2353V29.5838L24.6785 30.0109V28.8622L24.2713 28.5127L24.7998 28.059L25.3282 28.5127L24.921 28.8622Z" fill="white"/>
<path d="M21.7237 29.8743V31.023L22.1509 30.5958V30.2474L22.5292 30.5979L21.6024 31.5247L20.6758 30.5979L21.054 30.2474V30.5958L21.4812 31.023V29.8743L21.0741 29.5248L21.6024 29.071L22.1309 29.5248L21.7237 29.8743Z" fill="#D91C16"/>
<path d="M39.9425 31.6731C39.8454 31.771 39.7294 31.8206 39.5976 31.8206C39.466 31.8206 39.35 31.771 39.2528 31.6731C38.949 31.3671 38.9388 30.8137 38.9418 30.4154C38.9418 30.4154 39.293 30.7864 39.3563 30.8534C39.4005 30.7771 39.5976 30.4366 39.5976 30.4366C39.5976 30.4366 39.7948 30.7771 39.8391 30.8534C39.9024 30.7864 40.2536 30.4154 40.2536 30.4154C40.2566 30.8137 40.2462 31.3671 39.9425 31.6731Z" fill="black"/>
<path d="M36.6078 30.8158L36.8637 30.5602V30.051L37.4512 30.5955L36.4009 31.6458L35.3507 30.5955L35.9382 30.051V30.5602L36.1939 30.8158V29.9136L35.7409 29.5246L36.4009 28.9579L37.0609 29.5246L36.6078 29.9136V30.8158Z" fill="black"/>
<path d="M33.4087 29.8039L33.6644 29.5482V29.0389L34.252 29.5834L33.2017 30.6337L32.1515 29.5834L32.739 29.0389V29.5482L32.9948 29.8039V28.9015L32.5417 28.5126L33.2017 27.9459L33.8617 28.5126L33.4087 28.9015V29.8039Z" fill="black"/>
<path d="M39.5977 30.6077C39.5452 30.6981 39.373 30.9956 39.373 30.9956C39.373 30.9956 39.1304 30.7391 39.0313 30.6345C39.0431 31.0843 39.1419 31.4396 39.3136 31.6125C39.3941 31.6937 39.4897 31.7348 39.5977 31.7348C39.7058 31.7348 39.8013 31.6937 39.8817 31.6127C40.0534 31.4396 40.1522 31.0843 40.1641 30.6345C40.0651 30.7392 39.8224 30.9956 39.8224 30.9956C39.7475 30.8663 39.6725 30.7369 39.5977 30.6077Z" fill="white"/>
<path d="M33.0809 28.8622V30.0109L32.6537 29.5838V29.2353L32.2755 29.586L33.2021 30.5126L34.1289 29.586L33.7507 29.2353V29.5838L33.3235 30.0109V28.8622L33.7306 28.5127L33.2021 28.059L32.6738 28.5127L33.0809 28.8622Z" fill="white"/>
<path d="M36.2782 29.8743V31.023L35.851 30.5958V30.2474L35.4728 30.5979L36.3995 31.5247L37.3262 30.5979L36.9479 30.2474V30.5958L36.5207 31.023V29.8743L36.9279 29.5248L36.3995 29.071L35.8711 29.5248L36.2782 29.8743Z" fill="#D91C16"/>
<path d="M30.2575 30.1873L29.9135 29.7119L30.7957 28.8974L29.9731 28.2216V28.7004L29.6291 28.9947V28.1263L30.4062 27.5535L29.0004 26.5173L27.5946 27.5535L28.3718 28.1263V28.9947L28.0278 28.7004V28.2216L27.2051 28.8974L28.0874 29.7119L27.7434 30.1873H30.2575Z" fill="black"/>
<path d="M27.9116 30.1017L28.2017 29.7006L27.3359 28.9014L27.9423 28.4031V28.74L28.4578 29.1811V28.0831L27.7394 27.5537L29.0007 26.624L30.262 27.5537L29.5437 28.0831V29.1811L30.0591 28.74V28.4031L30.6656 28.9014L29.7998 29.7006L30.0901 30.1017H27.9116Z" fill="#D91C16"/>
<path d="M28.3594 27.5537L29.0017 28.0271L29.6442 27.5537L29.0017 27.0802L28.9763 27.099L28.3594 27.5537Z" fill="black"/>
<path d="M29.0018 27.1868C29.0443 27.218 29.4247 27.4984 29.4998 27.5537C29.4247 27.609 29.0443 27.8895 29.0018 27.9207C28.9594 27.8895 28.5789 27.609 28.5039 27.5537C28.5789 27.4984 28.9594 27.218 29.0018 27.1868Z" fill="#1E9A1C"/>
<path d="M18.0594 34.57C18.1565 34.4721 18.2725 34.4226 18.4043 34.4226C18.5359 34.4226 18.652 34.4721 18.7492 34.57C19.0529 34.876 19.0631 35.4295 19.0601 35.8278C19.0601 35.8278 18.709 35.4567 18.6456 35.3898C18.6015 35.4661 18.4043 35.8065 18.4043 35.8065C18.4043 35.8065 18.2071 35.4661 18.1629 35.3898C18.0995 35.4567 17.7484 35.8278 17.7484 35.8278C17.7454 35.4295 17.7557 34.876 18.0594 34.57Z" fill="black"/>
<path d="M21.3961 35.4272L21.1403 35.6828V36.1921L20.5527 35.6475L21.603 34.5973L22.6532 35.6475L22.0657 36.1921V35.6828L21.81 35.4272V36.3295L22.263 36.7184L21.603 37.2852L20.943 36.7184L21.3961 36.3295V35.4272Z" fill="black"/>
<path d="M24.5932 36.4393L24.3375 36.695V37.2043L23.75 36.6597L24.8002 35.6095L25.8505 36.6597L25.263 37.2043V36.695L25.0071 36.4393V37.3417L25.4602 37.7306L24.8002 38.2972L24.1402 37.7306L24.5932 37.3417V36.4393Z" fill="black"/>
<path d="M18.4043 35.6355C18.4567 35.545 18.6289 35.2475 18.6289 35.2475C18.6289 35.2475 18.8716 35.5041 18.9707 35.6086C18.9588 35.1589 18.8601 34.8035 18.6883 34.6306C18.6078 34.5495 18.5123 34.5083 18.4043 34.5083C18.2962 34.5083 18.2007 34.5495 18.1203 34.6305C17.9485 34.8035 17.8498 35.1589 17.8379 35.6086C17.9369 35.504 18.1795 35.2475 18.1795 35.2475C18.2544 35.3769 18.3294 35.5063 18.4043 35.6355Z" fill="white"/>
<path d="M24.921 37.3809V36.2323L25.3482 36.6594V37.0078L25.7264 36.6572L24.7998 35.7306L23.873 36.6572L24.2513 37.0078V36.6594L24.6785 36.2323V37.3809L24.2713 37.7305L24.7998 38.1842L25.3282 37.7305L24.921 37.3809Z" fill="white"/>
<path d="M21.7237 36.3688V35.2202L22.1509 35.6474V35.9958L22.5292 35.6452L21.6024 34.7185L20.6758 35.6452L21.054 35.9958V35.6474L21.4812 35.2202V36.3688L21.0741 36.7184L21.6024 37.1721L22.1309 36.7184L21.7237 36.3688Z" fill="#D91C16"/>
<path d="M39.9425 34.57C39.8454 34.4721 39.7294 34.4226 39.5976 34.4226C39.466 34.4226 39.35 34.4721 39.2528 34.57C38.949 34.876 38.9388 35.4295 38.9418 35.8278C38.9418 35.8278 39.293 35.4567 39.3563 35.3898C39.4005 35.4661 39.5976 35.8065 39.5976 35.8065C39.5976 35.8065 39.7948 35.4661 39.8391 35.3898C39.9024 35.4567 40.2536 35.8278 40.2536 35.8278C40.2566 35.4295 40.2462 34.876 39.9425 34.57Z" fill="black"/>
<path d="M36.6078 35.4273L36.8637 35.6829V36.1922L37.4512 35.6476L36.4009 34.5974L35.3507 35.6476L35.9382 36.1922V35.6829L36.1939 35.4273V36.3296L35.7409 36.7185L36.4009 37.2853L37.0609 36.7185L36.6078 36.3296V35.4273Z" fill="black"/>
<path d="M33.4087 36.4393L33.6644 36.695V37.2043L34.252 36.6597L33.2017 35.6095L32.1515 36.6597L32.739 37.2043V36.695L32.9948 36.4393V37.3417L32.5417 37.7306L33.2017 38.2972L33.8617 37.7306L33.4087 37.3417V36.4393Z" fill="black"/>
<path d="M39.5977 35.6355C39.5452 35.545 39.373 35.2475 39.373 35.2475C39.373 35.2475 39.1304 35.5041 39.0313 35.6086C39.0431 35.1589 39.1419 34.8035 39.3136 34.6306C39.3941 34.5495 39.4897 34.5083 39.5977 34.5083C39.7058 34.5083 39.8013 34.5495 39.8817 34.6305C40.0534 34.8035 40.1522 35.1589 40.1641 35.6086C40.0651 35.504 39.8224 35.2475 39.8224 35.2475C39.7475 35.3769 39.6725 35.5063 39.5977 35.6355Z" fill="white"/>
<path d="M33.0809 37.3809V36.2323L32.6537 36.6594V37.0078L32.2755 36.6572L33.2021 35.7306L34.1289 36.6572L33.7507 37.0078V36.6594L33.3235 36.2323V37.3809L33.7306 37.7305L33.2021 38.1842L32.6738 37.7305L33.0809 37.3809Z" fill="white"/>
<path d="M36.2782 36.3688V35.2202L35.851 35.6474V35.9958L35.4728 35.6452L36.3995 34.7185L37.3262 35.6452L36.9479 35.9958V35.6474L36.5207 35.2202V36.3688L36.9279 36.7184L36.3995 37.1721L35.8711 36.7184L36.2782 36.3688Z" fill="#D91C16"/>
<path d="M30.2575 36.0559L29.9135 36.5313L30.7957 37.3458L29.9731 38.0216V37.5428L29.6291 37.2484V38.1169L30.4062 38.6896L29.0004 39.7258L27.5946 38.6896L28.3718 38.1169V37.2484L28.0278 37.5428V38.0216L27.2051 37.3458L28.0874 36.5313L27.7434 36.0559H30.2575Z" fill="black"/>
<path d="M27.9116 36.1414L28.2017 36.5426L27.3359 37.3418L27.9423 37.84V37.5032L28.4578 37.0621V38.1601L27.7394 38.6895L29.0007 39.6191L30.262 38.6895L29.5437 38.1601V37.0621L30.0591 37.5032V37.84L30.6656 37.3418L29.7998 36.5426L30.0901 36.1414H27.9116Z" fill="#D91C16"/>
<path d="M28.3594 38.6894L29.0017 38.216L29.6442 38.6894L29.0017 39.163L28.9763 39.1441L28.3594 38.6894Z" fill="black"/>
<path d="M29.0018 39.0564C29.0443 39.0252 29.4247 38.7448 29.4998 38.6894C29.4247 38.6341 29.0443 38.3537 29.0018 38.3225C28.9594 38.3537 28.5789 38.6341 28.5039 38.6894C28.5789 38.7448 28.9594 39.0252 29.0018 39.0564Z" fill="#1E9A1C"/>
<path d="M40.3829 32.63H38.9755V32.069H34.6733L31.6785 30.1018H31.6658H26.3255L23.3308 32.069H19.0286V32.63H17.6211V33.6135H19.0286V34.1745H23.3308L26.3255 36.1418H31.6785L34.6733 34.1745H38.9755V33.6135H40.3829V32.63Z" fill="black"/>
<path d="M26.3511 30.1904L23.3532 32.1502H19.1159V32.7116H17.707V33.5273H19.1159V34.0887H23.3532L26.3511 36.0591H31.6583L34.6455 34.0887H38.8934V33.5273H40.3023V32.7116H38.8934V32.1502H34.6455L31.6583 30.1904H26.3511ZM26.4146 30.4764H31.5841L34.3278 32.2773V32.5527H37.3892V33.6968H34.3278V33.9722L31.5841 35.7625H26.4146L23.6816 33.9722V33.6968H20.6096V32.5527H23.6816V32.2773L26.4146 30.4764Z" fill="#D91C16"/>
<path d="M31.5622 30.5652L34.238 32.3219V32.6336H37.3043V33.6097H34.238V33.9216L31.5622 35.6783H26.4413L23.7656 33.9216V33.6097H20.6992V32.6336H23.7656V32.3219L26.4413 30.5652H31.5622Z" fill="#D91C16"/>
<path d="M25.1113 34.1195L26.2699 34.9893L27.0321 34.417L26.589 34.0844L26.2699 34.324L25.9975 34.1195L30.3606 30.8438H29.4745L25.1113 34.1195ZM27.6403 35.3997H28.5264L32.8896 32.1239L31.7311 31.2543L30.9689 31.8264L31.4119 32.1589L31.7311 31.9193L32.0035 32.1239L27.6403 35.3997ZM29.4745 35.3997H30.3605L25.9975 32.1239L26.2699 31.9193L26.589 32.1589L27.032 31.8264L26.2699 31.2543L25.1113 32.1239L29.4745 35.3997ZM32.0035 34.1195L31.7311 34.324L31.4119 34.0844L30.9689 34.417L31.7311 34.9893L32.8896 34.1195L28.5264 30.8438H27.6403L32.0035 34.1195Z" fill="black"/>
<path d="M24.2344 33.1217L25.0131 33.6389L25.7917 33.1217L25.0131 32.6045L24.2344 33.1217Z" fill="black"/>
<path d="M28.2227 33.1217L29.0013 33.6389L29.78 33.1217L29.0013 32.6045L28.2227 33.1217Z" fill="black"/>
<path d="M33.7683 33.1217L32.9896 33.6389L32.2109 33.1217L32.9896 32.6045L33.7683 33.1217Z" fill="black"/>
<path d="M32.7466 34.1195L31.7309 34.8821L31.1113 34.417L31.4117 34.1915L31.7309 34.4312L32.146 34.1195L27.897 30.9296H28.4976L32.7466 34.1195ZM30.1033 35.3139H29.5029L25.2539 32.1239L26.2697 31.3613L26.889 31.8264L26.5888 32.0518L26.2697 31.8122L25.8545 32.1239L30.1033 35.3139ZM28.4976 35.3139H27.897L32.146 32.1239L31.7309 31.8122L31.4117 32.0518L31.1113 31.8264L31.7309 31.3613L32.7466 32.1239L28.4976 35.3139ZM29.5029 30.9296H30.1033L25.8545 34.1195L26.2697 34.4312L26.5888 34.1915L26.889 34.417L26.2697 34.8821L25.2539 34.1195L29.5029 30.9296Z" fill="#FDD406"/>
<path d="M25.0124 32.7075L25.6362 33.1218L25.0124 33.536L24.3887 33.1218L25.0124 32.7075Z" fill="#1E9A1C"/>
<path d="M29.0006 32.7075L29.6244 33.1218L29.0006 33.536L28.377 33.1218L29.0006 32.7075Z" fill="#1E9A1C"/>
<path d="M32.989 32.7075L32.3652 33.1218L32.989 33.536L33.6126 33.1218L32.989 32.7075Z" fill="#1E9A1C"/>
<path d="M15.3037 54.8302L14.9982 55.2623L15.5458 55.6811L14.998 56.1L15.3036 56.5321L15.9399 56.6061L16.5561 56.1299L18.0925 57.1059V56.2954L17.1255 55.6811L18.0925 55.0669V54.2565L16.5561 55.2324L15.9399 54.7564L15.3037 54.8302Z" fill="black"/>
<path d="M15.3037 52.0145L14.9982 52.4468L15.5458 52.8656L14.998 53.2844L15.3036 53.7166L15.9399 53.7904L16.5561 53.3142L18.0925 54.2903V53.4797L17.1255 52.8656L18.0925 52.2513V51.4408L16.5561 52.4168L15.9399 51.9407L15.3037 52.0145Z" fill="black"/>
<path d="M15.3037 59.3477L14.9982 58.9156L15.5458 58.4968L14.998 58.0779L15.3036 57.6457L15.9399 57.5719L16.5561 58.048L18.0925 57.072V57.8825L17.1255 58.4968L18.0925 59.1109V59.9214L16.5561 58.9455L15.9399 59.4216L15.3037 59.3477Z" fill="black"/>
<path d="M42.6971 54.8301L43.0026 55.2622L42.455 55.681L43.0026 56.0999L42.6971 56.532L42.0609 56.6059L41.4447 56.1298L39.9082 57.1057V56.2953L40.8753 55.681L39.9082 55.0668V54.2563L41.4447 55.2323L42.0609 54.7563L42.6971 54.8301Z" fill="black"/>
<path d="M42.6971 52.0146L43.0026 52.4469L42.455 52.8657L43.0026 53.2845L42.6971 53.7167L42.0609 53.7905L41.4447 53.3144L39.9082 54.2904V53.4798L40.8753 52.8657L39.9082 52.2514V51.4409L41.4447 52.4169L42.0609 51.9408L42.6971 52.0146Z" fill="black"/>
<path d="M42.6971 59.3477L43.0026 58.9156L42.455 58.4968L43.0026 58.0779L42.6971 57.6457L42.0609 57.5719L41.4447 58.048L39.9082 57.072V57.8825L40.8753 58.4968L39.9082 59.1109V59.9214L41.4447 58.9455L42.0609 59.4216L42.6971 59.3477Z" fill="black"/>
<path d="M36.5469 47.146V48.3172H37.3988V48.8348H38.2356V47.8923H37.4892V47.146H36.5469Z" fill="black"/>
<path d="M39.0566 48.9929V50.164H39.9077V50.6817H40.7454V49.7392H39.9991V48.9929H39.0566Z" fill="black"/>
<path d="M21.4544 47.146V48.3172H20.6023V48.8348H19.7656V47.8923H20.5119V47.146H21.4544Z" fill="black"/>
<path d="M36.5469 64.2166V63.0454H37.3988V62.5278H38.2356V63.4702H37.4892V64.2166H36.5469Z" fill="black"/>
<path d="M21.4544 64.2166V63.0454H20.6023V62.5278H19.7656V63.4702H20.5119V64.2166H21.4544Z" fill="black"/>
<path d="M39.0566 62.3695V61.1985H39.9077V60.6808H40.7454V61.6231H39.9991V62.3695H39.0566Z" fill="black"/>
<path d="M18.9446 48.9929V50.164H18.0933V50.6817H17.2559V49.7392H18.0021V48.9929H18.9446Z" fill="black"/>
<path d="M18.9446 62.3695V61.1985H18.0933V60.6808H17.2559V61.6231H18.0021V62.3695H18.9446Z" fill="black"/>
<path d="M32.1519 47.1187C32.0975 47.0659 31.5017 46.4875 31.5017 46.4875L30.8631 47.0793C30.8631 47.0793 31.3635 47.5649 31.4197 47.6196L30.7012 48.3172H31.768L32.1519 47.9445L32.5357 48.3172H33.6024L32.8839 47.6196C32.9401 47.5649 33.4404 47.0793 33.4404 47.0793L32.8019 46.4875C32.5849 46.6977 32.3685 46.9083 32.1519 47.1187Z" fill="black"/>
<path d="M29.0013 47.1187C28.9471 47.0659 28.3513 46.4875 28.3513 46.4875L27.7127 47.0793C27.7127 47.0793 28.2129 47.5649 28.2693 47.6196L27.5508 48.3172H28.6175L29.0013 47.9445L29.3852 48.3172H30.4519L29.7335 47.6196C29.7897 47.5649 30.29 47.0793 30.29 47.0793L29.6515 46.4875C29.4345 46.6977 29.2181 46.9083 29.0013 47.1187Z" fill="black"/>
<path d="M25.849 47.1187C25.9034 47.0659 26.4992 46.4875 26.4992 46.4875L27.1378 47.0793C27.1378 47.0793 26.6374 47.5649 26.5811 47.6196L27.2997 48.3172H26.2329L25.849 47.9445L25.4651 48.3172H24.3984L25.117 47.6196C25.0607 47.5649 24.5603 47.0793 24.5603 47.0793L25.199 46.4875C25.4159 46.6977 25.6324 46.9083 25.849 47.1187Z" fill="black"/>
<path d="M32.1519 64.2437C32.0975 64.2964 31.5017 64.8748 31.5017 64.8748L30.8631 64.2831C30.8631 64.2831 31.3635 63.7976 31.4197 63.7428L30.7012 63.0453H31.768L32.1519 63.418L32.5357 63.0453H33.6024L32.8839 63.7428C32.9401 63.7976 33.4404 64.2831 33.4404 64.2831L32.8019 64.8748C32.5849 64.6647 32.3685 64.4541 32.1519 64.2437Z" fill="black"/>
<path d="M29.0013 64.2437C28.9471 64.2964 28.3513 64.8748 28.3513 64.8748L27.7127 64.2831C27.7127 64.2831 28.2129 63.7976 28.2693 63.7428L27.5508 63.0453H28.6175L29.0013 63.418L29.3852 63.0453H30.4519L29.7335 63.7428C29.7897 63.7976 30.29 64.2831 30.29 64.2831L29.6515 64.8748C29.4345 64.6647 29.2181 64.4541 29.0013 64.2437Z" fill="black"/>
<path d="M25.849 64.2437C25.9034 64.2964 26.4992 64.8748 26.4992 64.8748L27.1378 64.2831C27.1378 64.2831 26.6374 63.7976 26.5811 63.7428L27.2997 63.0453H26.2329L25.849 63.418L25.4651 63.0453H24.3984L25.117 63.7428C25.0607 63.7976 24.5603 64.2831 24.5603 64.2831L25.199 64.8748C25.4159 64.6647 25.6324 64.4541 25.849 64.2437Z" fill="black"/>
<path d="M18.0063 56.3426V56.9499L16.5507 56.0253L15.9146 56.5169L15.3509 56.4515L15.1152 56.118L15.6864 55.6812L15.1152 55.2444L15.351 54.911L15.9146 54.8456L16.5507 55.3371L18.0063 54.4125V55.0198L16.965 55.6812L18.0063 56.3426Z" fill="#1E9A1C"/>
<path d="M18.0063 53.5269V54.1343L16.5507 53.2097L15.9146 53.7012L15.3509 53.6358L15.1152 53.3024L15.6864 52.8656L15.1152 52.4289L15.351 52.0954L15.9146 52.0299L16.5507 52.5214L18.0063 51.5969V52.2042L16.965 52.8656L18.0063 53.5269Z" fill="#1E9A1C"/>
<path d="M18.0063 57.8355V57.2281L16.5507 58.1528L15.9146 57.6611L15.3509 57.7265L15.1152 58.06L15.6864 58.4968L15.1152 58.9336L15.351 59.2671L15.9146 59.3325L16.5507 58.841L18.0063 59.7656V59.1582L16.965 58.4968L18.0063 57.8355Z" fill="#1E9A1C"/>
<path d="M39.9941 56.3426V56.9499L41.4497 56.0253L42.0857 56.5169L42.6494 56.4515L42.8851 56.118L42.3139 55.6812L42.8851 55.2444L42.6494 54.911L42.0857 54.8456L41.4497 55.3371L39.9941 54.4125V55.0198L41.0353 55.6812L39.9941 56.3426Z" fill="#1E9A1C"/>
<path d="M39.9941 53.5269V54.1343L41.4497 53.2097L42.0857 53.7012L42.6494 53.6358L42.8851 53.3024L42.3139 52.8656L42.8851 52.4289L42.6494 52.0954L42.0857 52.0299L41.4497 52.5214L39.9941 51.5969V52.2042L41.0353 52.8656L39.9941 53.5269Z" fill="#1E9A1C"/>
<path d="M39.9941 57.8355V57.2281L41.4497 58.1528L42.0857 57.6611L42.6494 57.7265L42.8851 58.06L42.3139 58.4968L42.8851 58.9336L42.6494 59.2671L42.0857 59.3325L41.4497 58.841L39.9941 59.7656V59.1582L41.0353 58.4968L39.9941 57.8355Z" fill="#1E9A1C"/>
<path d="M37.4019 47.2317V47.9781H38.1481V48.7491H37.4829V48.2315H36.6309V47.2317H37.4019Z" fill="#1E9A1C"/>
<path d="M39.9136 49.0785V49.8248H40.6599V50.5959H39.9945V50.0783H39.1426V49.0785H39.9136Z" fill="#1E9A1C"/>
<path d="M20.5978 47.2317V47.9781H19.8516V48.7491H20.517V48.2315H21.3688V47.2317H20.5978Z" fill="#1E9A1C"/>
<path d="M37.4019 64.1306V63.3843H38.1481V62.6133H37.4829V63.1308H36.6309V64.1306H37.4019Z" fill="#1E9A1C"/>
<path d="M20.598 64.1306V63.3843H19.8516V62.6133H20.517V63.1308H21.369V64.1306H20.598Z" fill="#1E9A1C"/>
<path d="M39.9136 62.2838V61.5375H40.6599V60.7665H39.9945V61.284H39.1426V62.2838H39.9136Z" fill="#1E9A1C"/>
<path d="M18.0861 49.0785V49.8248H17.3398V50.5959H18.0052V50.0783H18.8571V49.0785H18.0861Z" fill="#1E9A1C"/>
<path d="M18.0862 62.2838V61.5375H17.3398V60.7665H18.0052V61.284H18.8572V62.2838H18.0862Z" fill="#1E9A1C"/>
<path d="M31.4999 46.6057C31.553 46.6573 32.1513 47.2381 32.1513 47.2381C32.1513 47.2381 32.7495 46.6573 32.8027 46.6057C32.8531 46.6523 33.2598 47.0291 33.3155 47.0807C33.2579 47.1365 32.7602 47.6196 32.7602 47.6196L33.3905 48.2315H32.57L32.1513 47.8249L31.7326 48.2315H30.9121L31.5424 47.6196C31.5424 47.6196 31.0447 47.1365 30.9871 47.0807C31.0428 47.0291 31.4495 46.6523 31.4999 46.6057Z" fill="#1E9A1C"/>
<path d="M28.3496 46.6057C28.4028 46.6573 29.001 47.2381 29.001 47.2381C29.001 47.2381 29.5992 46.6573 29.6524 46.6057C29.7028 46.6523 30.1094 47.0291 30.1651 47.0807C30.1076 47.1365 29.61 47.6196 29.61 47.6196L30.2402 48.2315H29.4196L29.001 47.8249L28.5823 48.2315H27.7617L28.392 47.6196C28.392 47.6196 27.8943 47.1365 27.8368 47.0807C27.8925 47.0291 28.2992 46.6523 28.3496 46.6057Z" fill="#1E9A1C"/>
<path d="M26.5019 46.6057C26.4486 46.6573 25.8504 47.2381 25.8504 47.2381C25.8504 47.2381 25.2522 46.6573 25.1991 46.6057C25.1487 46.6523 24.742 47.0291 24.6863 47.0807C24.7439 47.1365 25.2416 47.6196 25.2416 47.6196L24.6113 48.2315H25.4318L25.8504 47.8249L26.2692 48.2315H27.0897L26.4594 47.6196C26.4594 47.6196 26.9571 47.1365 27.0147 47.0807C26.959 47.0291 26.5523 46.6523 26.5019 46.6057Z" fill="#1E9A1C"/>
<path d="M31.4999 64.7567C31.553 64.705 32.1513 64.1242 32.1513 64.1242C32.1513 64.1242 32.7495 64.705 32.8027 64.7567C32.8531 64.7101 33.2598 64.3333 33.3155 64.2818C33.2579 64.2259 32.7602 63.7429 32.7602 63.7429L33.3905 63.131H32.57L32.1513 63.5374L31.7326 63.131H30.9121L31.5424 63.7429C31.5424 63.7429 31.0447 64.2259 30.9871 64.2818C31.0428 64.3333 31.4495 64.7101 31.4999 64.7567Z" fill="#1E9A1C"/>
<path d="M28.3496 64.7567C28.4028 64.705 29.001 64.1242 29.001 64.1242C29.001 64.1242 29.5992 64.705 29.6524 64.7567C29.7028 64.7101 30.1094 64.3333 30.1651 64.2818C30.1076 64.2259 29.61 63.7429 29.61 63.7429L30.2402 63.131H29.4196L29.001 63.5374L28.5823 63.131H27.7617L28.392 63.7429C28.392 63.7429 27.8943 64.2259 27.8368 64.2818C27.8925 64.3333 28.2992 64.7101 28.3496 64.7567Z" fill="#1E9A1C"/>
<path d="M26.5019 64.7567C26.4486 64.705 25.8504 64.1242 25.8504 64.1242C25.8504 64.1242 25.2522 64.705 25.1991 64.7567C25.1487 64.7101 24.742 64.3333 24.6863 64.2818C24.7439 64.2259 25.2416 63.7429 25.2416 63.7429L24.6113 63.131H25.4318L25.8504 63.5374L26.2692 63.131H27.0897L26.4594 63.7429C26.4594 63.7429 26.9571 64.2259 27.0147 64.2818C26.959 64.3333 26.5523 64.7101 26.5019 64.7567Z" fill="#1E9A1C"/>
<path d="M20.518 61.2841V63.1309H37.4851V61.2841H39.9953V50.0782H37.4851V48.2314H20.518V50.0782H18.0078V61.2841H20.518Z" fill="black"/>
<path d="M20.6082 48.3155V50.1589H18.0977V61.1969H20.6082V63.0403H37.3984V61.1969H39.9092V50.1588H37.3984V48.3154L20.6082 48.3155ZM21.6887 49.0254H36.3181V50.805L36.9218 51.2501H39.1994V60.1165H36.9113L36.3181 60.5508V62.341H21.6888V60.5613L21.0849 60.1165H18.7968V51.2501H21.0744L21.6888 50.805L21.6887 49.0254Z" fill="#FDD406"/>
<path d="M21.772 49.1101V50.7416L23.9754 49.1101H21.772ZM34.0176 49.1101L36.221 50.7416V49.1101H34.0176ZM18.8907 51.3349V52.8603L20.967 51.3349H18.8907ZM37.0264 51.3349L39.1132 52.8708V51.3349H37.0264ZM39.1132 58.485L37.0264 60.0318H39.1132V58.485ZM18.8906 58.4955V60.0318H20.9669L18.8906 58.4955ZM21.772 60.625V62.2457H23.9648L21.772 60.625ZM36.221 60.625L34.0284 62.2457H36.221V60.625Z" fill="#D91C16"/>
<path d="M33.876 49.1118C33.8986 49.1284 39.0791 52.9547 39.1136 52.9801V58.3822C39.0791 58.4077 33.8986 62.2339 33.876 62.2506H24.1241C24.1017 62.2339 18.9212 58.4077 18.8867 58.3822V52.9801C18.9212 52.9547 24.1017 49.1284 24.1241 49.1118H33.876Z" fill="#1E9A1C"/>
<path d="M20.1334 59.0042L19.5312 58.3053L20.0966 57.6493L19.5312 56.9932L20.0966 56.3373L19.5312 55.6813L20.0966 55.0252L19.5312 54.3692L20.0964 53.7131L19.5312 53.0571L20.1334 52.3583H37.8657L38.4678 53.0571L37.9025 53.7131L38.4678 54.3692L37.9025 55.0252L38.4678 55.6813L37.9025 56.3373L38.4678 56.9932L37.9025 57.6493L38.4678 58.3053L37.8657 59.0042H20.1334ZM32.3225 49.9569L31.6236 49.3547L30.9675 49.9201L30.3116 49.3547L29.6555 49.9201L28.9995 49.3547L28.3434 49.9201L27.6874 49.3547L27.0315 49.9201L26.3754 49.3547L25.6766 49.9569V61.4055L26.3754 62.0078L27.0315 61.4425L27.6874 62.0077L28.3434 61.4423L28.9995 62.0077L29.6555 61.4423L30.3116 62.0077L30.9675 61.4425L31.6236 62.0078L32.3225 61.4055V49.9569Z" fill="black"/>
<path d="M30.9255 49.9961L30.3124 49.4678L29.6992 49.9961V61.3661L30.3124 61.8944L30.9255 61.3661V49.9961Z" fill="#FDD406"/>
<path d="M28.3005 49.9961L27.6873 49.4678L27.0742 49.9961V61.3661L27.6873 61.8944L28.3005 61.3661V49.9961Z" fill="#FDD406"/>
<path d="M20.1728 58.9185L19.6445 58.3053L20.1728 57.6921H37.8266L38.3548 58.3053L37.8266 58.9185H20.1728Z" fill="#FDD406"/>
<path d="M37.8265 55.0679L38.3548 55.6811L37.8265 56.2942H20.1729L19.6445 55.6811L20.1729 55.0679H37.8265Z" fill="#FDD406"/>
<path d="M37.8266 53.6704L38.3548 53.0572L37.8266 52.4441H20.1728L19.6445 53.0572L20.1728 53.6704H37.8266Z" fill="#FDD406"/>
<path d="M32.236 49.9961L31.623 49.4678L31.0098 49.9961V61.3661L31.623 61.8944L32.2359 61.3662L32.236 49.9961Z" fill="#D91C16"/>
<path d="M26.9881 49.9961L26.3749 49.4678L25.7617 49.9961V61.3661L26.3749 61.8944L26.9881 61.3661V49.9961Z" fill="#D91C16"/>
<path d="M20.1729 57.6063L19.6445 56.9931L20.1729 56.3799H37.8265L38.3548 56.9931L37.8265 57.6063H20.1729Z" fill="#D91C16"/>
<path d="M20.1729 54.9824L19.6445 54.3692L20.1729 53.756H37.8265L38.3548 54.3692L37.8265 54.9824H20.1729Z" fill="#D91C16"/>
<path d="M29.6131 61.3661L28.9999 61.8944L28.3867 61.3661V49.9961L28.9999 49.4678L29.6131 49.9961V61.3661Z" fill="#D91C16"/>
<path d="M34.9281 50.218H23.032V51.1628H21.5117V60.1997H23.032V61.1444H34.9709V60.1997H36.4912V51.1628H34.9709V50.218H34.9281Z" fill="black"/>
<path d="M23.1192 50.3069V51.2499H21.5938V60.1164H23.1192V61.0591H24.3692L21.8798 58.9723V52.3937L24.3692 50.3069H23.1192ZM33.6384 50.3069L36.1171 52.3937V58.9723L33.6384 61.0591H34.8883V60.1164H36.4032V51.2499H34.8883V50.3069L33.6384 50.3069Z" fill="#D91C16"/>
<path d="M24.5053 50.3069C24.4818 50.3267 21.993 52.4109 21.9629 52.4361V58.9297C21.993 58.9551 24.4818 61.0392 24.5053 61.059H33.4989C33.5225 61.0392 36.0006 58.9549 36.0307 58.9297V52.4361C36.0005 52.4109 33.5225 50.3267 33.4989 50.3069H24.5053ZM24.6324 50.6671H33.3612L35.6705 52.6056V58.7603L33.3612 60.6882H24.6324L22.3337 58.7603V52.6056L24.6324 50.6671Z" fill="#1E9A1C"/>
<path d="M26.9444 58.8577L27.3351 59.0265L27.407 59.4829L26.9151 59.9156L27.6296 60.6064H26.9421L26.4506 60.1333L25.959 60.6064H25.2715L25.9861 59.9156L25.4941 59.4829L25.5661 59.0265L25.9567 58.8577L26.4506 59.2526L26.4774 59.2312L26.9444 58.8577Z" fill="#1E9A1C"/>
<path d="M29.4934 58.8577L29.884 59.0265L29.956 59.4829L29.4641 59.9156L30.1786 60.6064H29.4911L28.9994 60.1333L28.5079 60.6064H27.8203L28.5349 59.9156L28.043 59.4829L28.115 59.0265L28.5056 58.8577L28.9994 59.2526L29.0262 59.2312L29.4934 58.8577Z" fill="#1E9A1C"/>
<path d="M31.0563 58.8577L30.6657 59.0265L30.5937 59.4829L31.0856 59.9156L30.3711 60.6064H31.0586L31.5502 60.1333L32.0417 60.6064H32.7292L32.0147 59.9156L32.5066 59.4829L32.4346 59.0265L32.044 58.8577L31.5502 59.2526L31.5233 59.2312L31.0563 58.8577Z" fill="#1E9A1C"/>
<path d="M26.9444 52.5045L27.3351 52.3357L27.407 51.8794L26.9151 51.4467L27.6296 50.7559H26.9421L26.4506 51.2289L25.959 50.7559H25.2715L25.9861 51.4467L25.4941 51.8793L25.5661 52.3357L25.9567 52.5045L26.4506 52.1097L26.4774 52.1311L26.9444 52.5045Z" fill="#1E9A1C"/>
<path d="M29.4934 52.5045L29.884 52.3357L29.956 51.8794L29.4641 51.4467L30.1786 50.7559H29.4911L28.9994 51.2289L28.5079 50.7559H27.8203L28.5349 51.4467L28.043 51.8793L28.115 52.3357L28.5056 52.5045L28.9994 52.1097L29.0262 52.1311L29.4934 52.5045Z" fill="#1E9A1C"/>
<path d="M31.0563 52.5045L30.6657 52.3357L30.5937 51.8794L31.0856 51.4467L30.3711 50.7559H31.0586L31.5502 51.2289L32.0417 50.7559H32.7292L32.0147 51.4467L32.5066 51.8793L32.4346 52.3357L32.044 52.5045L31.5502 52.1097L31.5233 52.1311L31.0563 52.5045Z" fill="#1E9A1C"/>
<path d="M35.5801 53.2332L35.1901 53.5561L35.5801 53.8789V54.4142L34.9803 53.92C34.9803 53.92 34.577 54.2854 34.5499 54.31C34.5153 54.3056 34.1268 54.2568 34.0884 54.252C34.0712 54.2204 33.9499 53.9968 33.9258 53.952C33.966 53.9119 34.323 53.5561 34.323 53.5561C34.323 53.5561 33.966 53.2002 33.9258 53.1601C33.9499 53.1154 34.0712 52.8916 34.0884 52.8601C34.1268 52.8553 34.5153 52.8064 34.5499 52.802C34.577 52.8266 34.9803 53.1922 34.9803 53.1922L35.5801 52.698V53.2332Z" fill="#1E9A1C"/>
<path d="M35.5801 55.3582L35.1901 55.6811L35.5801 56.0038V56.5392L34.9803 56.045C34.9803 56.045 34.577 56.4104 34.5499 56.435C34.5153 56.4306 34.1268 56.3817 34.0884 56.377C34.0712 56.3454 33.9499 56.1216 33.9258 56.077C33.966 56.0369 34.323 55.6811 34.323 55.6811C34.323 55.6811 33.966 55.3251 33.9258 55.285C33.9499 55.2404 34.0712 55.0166 34.0884 54.985C34.1268 54.9803 34.5153 54.9314 34.5499 54.927C34.577 54.9516 34.9803 55.317 34.9803 55.317L35.5801 54.823V55.3582Z" fill="#1E9A1C"/>
<path d="M35.5801 58.129L35.1901 57.8061L35.5801 57.4833V56.948L34.9803 57.4423C34.9803 57.4423 34.577 57.0768 34.5499 57.0522C34.5153 57.0565 34.1268 57.1054 34.0884 57.1101C34.0712 57.1417 33.9499 57.3655 33.9258 57.4101C33.966 57.4503 34.323 57.8061 34.323 57.8061C34.323 57.8061 33.966 58.162 33.9258 58.2021C33.9499 58.2468 34.0712 58.4706 34.0884 58.5021C34.1268 58.5069 34.5153 58.5558 34.5499 58.5601C34.577 58.5355 34.9803 58.1701 34.9803 58.1701L35.5801 58.6642V58.129Z" fill="#1E9A1C"/>
<path d="M22.4199 53.2333L22.8098 53.5562L22.4199 53.879V54.4144L23.0197 53.9201C23.0197 53.9201 23.423 54.2855 23.4501 54.3101C23.4846 54.3058 23.8732 54.2569 23.9116 54.2521C23.9288 54.2206 24.05 53.9969 24.0742 53.9521C24.034 53.912 23.677 53.5562 23.677 53.5562C23.677 53.5562 24.034 53.2003 24.0742 53.1602C24.05 53.1155 23.9288 52.8917 23.9116 52.8602C23.8732 52.8554 23.4846 52.8065 23.4501 52.8022C23.423 52.8268 23.0197 53.1923 23.0197 53.1923L22.4199 52.6981V53.2333Z" fill="#1E9A1C"/>
<path d="M22.4199 55.3583L22.8098 55.6812L22.4199 56.0039V56.5394L23.0197 56.0451C23.0197 56.0451 23.423 56.4105 23.4501 56.4351C23.4846 56.4308 23.8732 56.3818 23.9116 56.3771C23.9288 56.3456 24.05 56.1218 24.0742 56.0771C24.034 56.037 23.677 55.6812 23.677 55.6812C23.677 55.6812 24.034 55.3252 24.0742 55.2851C24.05 55.2405 23.9288 55.0167 23.9116 54.9851C23.8732 54.9804 23.4846 54.9315 23.4501 54.9272C23.423 54.9518 23.0197 55.3172 23.0197 55.3172L22.4199 54.8231V55.3583Z" fill="#1E9A1C"/>
<path d="M22.4199 58.129L22.8098 57.8061L22.4199 57.4833V56.948L23.0197 57.4423C23.0197 57.4423 23.423 57.0768 23.4501 57.0522C23.4846 57.0565 23.8732 57.1054 23.9116 57.1101C23.9288 57.1417 24.05 57.3655 24.0742 57.4101C24.034 57.4503 23.677 57.8061 23.677 57.8061C23.677 57.8061 24.034 58.162 24.0742 58.2021C24.05 58.2468 23.9288 58.4706 23.9116 58.5021C23.8732 58.5069 23.4846 58.5558 23.4501 58.5601C23.423 58.5355 23.0197 58.1701 23.0197 58.1701L22.4199 58.6642V58.129Z" fill="#1E9A1C"/>
<path d="M24.6657 50.7522C24.6425 50.7716 22.5453 52.5274 22.4517 52.606C22.6408 52.7627 22.8236 52.9266 23.0132 53.0827C23.0611 53.0393 23.4263 52.7118 23.4263 52.7118L23.9665 52.786L24.1784 53.1779C24.1784 53.1779 23.8489 53.5077 23.797 53.5593C23.8489 53.6108 24.1784 53.9406 24.1784 53.9406L23.9665 54.3326L23.4263 54.3961C23.4263 54.3961 23.0611 54.0794 23.0131 54.036L22.4199 54.5339V54.7033C22.6195 54.8685 22.8129 55.0362 23.0131 55.2012C23.0611 55.1579 23.4263 54.8411 23.4263 54.8411L23.9665 54.9046L24.1784 55.2966C24.1784 55.2966 23.8489 55.6263 23.797 55.6779C23.8489 55.7294 24.1784 56.0593 24.1784 56.0593L23.9665 56.4618L23.4263 56.5254C23.4263 56.5254 23.0611 56.1981 23.0131 56.1546L22.4199 56.6525V56.8326L23.0131 57.3305C23.0611 57.2871 23.4263 56.9597 23.4263 56.9597L23.9665 57.0339L24.1784 57.4258C24.1784 57.4258 23.8489 57.7556 23.797 57.8072C23.8489 57.8588 24.1784 58.1885 24.1784 58.1885L23.9665 58.5805L23.4263 58.6546C23.4263 58.6546 23.0611 58.3273 23.0131 58.2839C22.8244 58.4393 22.6401 58.5946 22.4517 58.75C22.5453 58.8286 24.6425 60.5843 24.6657 60.6038H25.153L25.8627 59.9152L25.4072 59.5127L25.4919 58.9618L25.9686 58.7606L26.4559 59.1419L26.9326 58.7606L27.4093 58.9618L27.5047 59.5127L27.0386 59.9152L27.7271 60.572L28.4157 59.9152L27.9496 59.5127L28.0343 58.9618L28.5216 58.7606L28.9983 59.1419L29.4856 58.7606L29.9623 58.9618L30.047 59.5127L29.5915 59.9152L30.2695 60.5826L30.9581 59.9152L30.5025 59.5127L30.5873 58.9618L31.0746 58.7606L31.5513 59.1419L32.028 58.7606L32.5153 58.9618L32.6 59.5127L32.1445 59.9152L32.8542 60.6038H33.3309C33.3541 60.5843 35.4512 58.8286 35.5449 58.75C35.3562 58.5946 35.1725 58.4397 34.9835 58.2839C34.9355 58.3273 34.5809 58.6546 34.5809 58.6546L34.0407 58.5805L33.8182 58.1885C33.8182 58.1885 34.1479 57.8588 34.1996 57.8072C34.1479 57.7556 33.8182 57.4258 33.8182 57.4258L34.0407 57.0339L34.5809 56.9597C34.5809 56.9597 34.9355 57.2871 34.9835 57.3305L35.5767 56.8326V56.6525L34.9835 56.1546C34.9355 56.1981 34.5809 56.5254 34.5809 56.5254L34.0407 56.4618L33.8182 56.0593C33.8182 56.0593 34.1479 55.7294 34.1996 55.6779C34.1479 55.6263 33.8182 55.2966 33.8182 55.2966L34.0407 54.9046L34.5809 54.8411C34.5809 54.8411 34.9355 55.1579 34.9835 55.2012C35.1824 55.0374 35.3782 54.8772 35.5767 54.7139V54.5233L34.9835 54.036C34.9355 54.0794 34.5809 54.3961 34.5809 54.3961L34.0407 54.3326L33.8182 53.9406C33.8182 53.9406 34.1479 53.6108 34.1996 53.5593C34.1479 53.5077 33.8182 53.1779 33.8182 53.1779L34.0407 52.786L34.5809 52.7118C34.5809 52.7118 34.9355 53.0393 34.9835 53.0826C35.1733 52.9262 35.3657 52.7729 35.5555 52.6165C35.4826 52.5553 33.3542 50.7716 33.3309 50.7521H32.8542L32.1445 51.4406L32.6 51.8432L32.5153 52.394L32.028 52.6059L31.5513 52.2245L31.0746 52.6059L30.5873 52.394L30.5025 51.8432L30.958 51.4406L30.2801 50.7839L29.5915 51.4406L30.047 51.8432L29.9623 52.394L29.4856 52.6059L28.9983 52.2245L28.5216 52.6059L28.0343 52.394L27.9496 51.8432L28.4157 51.4406L27.7271 50.7839L27.0386 51.4406L27.5047 51.8432L27.4093 52.394L26.9326 52.6059L26.4559 52.2245L25.9686 52.6059L25.4919 52.394L25.4072 51.8432L25.8627 51.4406L25.1424 50.7521L24.6657 50.7522ZM22.4199 55.4661V55.9004L22.6742 55.678L22.4199 55.4661Z" fill="#D91C16"/>
<path d="M26.4568 60.2542L26.0859 60.6036H26.8168L26.4568 60.2542Z" fill="white"/>
<path d="M28.9987 60.2542L28.6387 60.6036H29.3695L28.9987 60.2542Z" fill="white"/>
<path d="M31.5502 60.2542L31.1797 60.6036H31.921L31.5502 60.2542Z" fill="white"/>
<path d="M26.0742 50.7522L26.4556 51.1122L26.8264 50.7522H26.0742Z" fill="white"/>
<path d="M28.627 50.7522L28.9978 51.1122L29.3792 50.7522H28.627Z" fill="white"/>
<path d="M31.1816 50.7522L31.5521 51.1122L31.923 50.7522H31.1816Z" fill="white"/>
<path d="M35.5765 53.3474L35.3223 53.5593L35.5765 53.7606V53.3474Z" fill="white"/>
<path d="M35.5765 55.4659L35.3223 55.6778L35.5765 55.8897V55.4659Z" fill="white"/>
<path d="M35.5765 57.5952L35.3223 57.8071L35.5765 58.0189V57.5952Z" fill="white"/>
<path d="M22.4199 53.337V53.7713L22.6742 53.5594L22.4199 53.337Z" fill="white"/>
<path d="M22.4199 55.4659V55.9002L22.6742 55.6778L22.4199 55.4659Z" fill="white"/>
<path d="M22.4199 57.5848V58.0191L22.6742 57.8072L22.4199 57.5848Z" fill="white"/>
<path d="M31.1808 54.9714V54.2131H30.4134V53.3818H27.587V54.2131H26.8196V54.9714H25.7598V56.391H26.8196V57.1491H27.587V57.9805H30.4134V57.1491H31.1808V56.391H32.2405V54.9714H31.1808Z" fill="black"/>
<path d="M28.9574 53.4675V54.3244L27.7425 55.015V55.6383H25.8457V55.057H26.9054V54.2989H27.6728V53.4675H28.9574Z" fill="#FDD406"/>
<path d="M29.043 57.8949V57.038L30.2577 56.3473V55.7241H32.1547V56.3053H31.095V57.0636H30.3276V57.8949H29.043Z" fill="#FDD406"/>
<path d="M30.2577 55.6383V55.015L29.043 54.3244V53.4675H30.3276V54.2989H31.095V55.057H32.1547V55.6383H30.2577Z" fill="white"/>
<path d="M25.8457 55.7241H27.7425V56.3473L28.9574 57.038V57.8949H27.6728V57.0636H26.9054V56.3053H25.8457V55.7241Z" fill="white"/>
<path d="M27.8281 55.7241V56.3018L28.9572 56.9438V55.7241H27.8281Z" fill="#D91C16"/>
<path d="M28.9572 54.4187L27.8281 55.0606V55.6383H28.9572V54.4187Z" fill="#1E9A1C"/>
<path d="M30.172 55.6384V55.0607L29.043 54.4188V55.6384H30.172Z" fill="#D91C16"/>
<path d="M29.043 56.9438L30.172 56.3018V55.7241H29.043V56.9438Z" fill="#1E9A1C"/>
<path d="M18.7308 70.746V73.0894H16.4977V75.2148H14.2344V81.2665H16.4977V83.392H18.7308V85.7353H26.8503L28.2782 86.5933L27.5921 87.0055H24.6968L24.4471 86.7239H27.0709L26.3317 85.9795H22.5785L24.279 87.7499H27.7986L29.0009 87.0275L30.2031 87.7499H33.723L35.4234 85.9795H31.6703L30.9309 86.7239H33.5549L33.305 87.0055H30.4097L29.7235 86.5933L31.1515 85.7353H39.2711V83.392H41.5041V81.2665H43.7673V75.2148H41.5041V73.0894H39.2711V70.746H31.1515L29.7235 69.8881L30.4097 69.4758H33.305L33.5549 69.7574H30.9309L31.6703 70.5018H35.4234L33.723 68.7314H30.2031L29.0009 69.4538L27.7986 68.7314H24.279L22.5785 70.5018H26.3317L27.0709 69.7574H24.4471L24.6968 69.4758H27.5921L28.2782 69.8881L26.8503 70.746H18.7308Z" fill="#D91C16"/>
<path d="M31.1278 85.646H39.1892V83.3049H41.4138V81.1757H43.6808V75.2964H41.4138V73.1778H39.1892V70.8367H31.1278L27.7804 68.8134H24.3164L22.7803 70.4129H26.2973L26.8693 69.8409H24.2528L24.6554 69.3854H27.6215L31.4138 71.6735H38.3418V74.0146H40.577V76.1439H42.8439V80.3388H40.577V82.468H38.3418V84.8091H31.4138L27.6215 87.0867H24.6554L24.2528 86.6418H26.8693L26.2973 86.0697H22.7803L24.3164 87.6693H27.7804L31.1278 85.646ZM26.5833 84.8091H19.6554V82.468H17.4308V80.3388H15.1638V76.1439H17.4308V74.0146H19.6554V71.6735H26.5833L30.3863 69.3854H33.3418L33.7444 69.8409H31.1384L31.7105 70.4129H35.2274L33.6914 68.8134H30.2274L26.8799 70.8367H18.8185V73.1778H16.5834V75.2964H14.3164V81.1757H16.5834V83.3049H18.8185V85.646H26.8799L30.2274 87.6693H33.6914L35.2274 86.0697H31.7105L31.1384 86.6418H33.7444L33.3418 87.0867H30.3863L26.5833 84.8091Z" fill="#FDD406"/>
<path d="M37.6701 81.7908V84.1341H31.23L29.0011 85.4733L26.7723 84.1341H20.3323V81.7908H18.0991V79.6652H15.8359V76.8161H18.0991V74.6905H20.3323V72.3473H26.7604H26.7723L29.0011 71.0081L31.23 72.3473H37.6701V74.6905H39.9031V76.8161H42.1663V79.6652H39.9031V81.7908H37.6701Z" fill="#1E9A1C"/>
<path d="M21.1758 80.9698V83.2378H24.7158L21.1758 80.8899V80.9698Z" fill="black"/>
<path d="M21.1758 75.5117V73.2435H24.7158L21.1758 75.5914V75.5117Z" fill="black"/>
<path d="M36.8271 80.9698V83.2378H33.2871L36.8271 80.8899V80.9698Z" fill="black"/>
<path d="M36.8271 75.5117V73.2435H33.2871L36.8271 75.5914V75.5117Z" fill="black"/>
<path d="M21.2617 81.0497L24.4316 83.1522H21.2617V81.0497Z" fill="#D91C16"/>
<path d="M21.2617 75.4319C21.385 75.35 24.2156 73.4725 24.4316 73.3293H21.2617V75.4319Z" fill="#D91C16"/>
<path d="M36.7422 81.0496C36.6188 81.1314 33.7881 83.0088 33.5723 83.1521H36.7422V81.0496Z" fill="#D91C16"/>
<path d="M36.7422 75.4319C36.6188 75.3501 33.7881 73.4726 33.5723 73.3293H36.7422V75.4319Z" fill="#D91C16"/>
<path d="M25.6903 77.6189V76.4606H25.2952L23.3999 75.2756L23.3773 75.2899L21.5048 76.4606H21.1098V77.6189H20.2188V78.8628H21.1098V80.0209H21.5048L23.3999 81.2059L25.2952 80.0209H25.6903V78.8628H27.0466V77.6189H25.6903Z" fill="black"/>
<path d="M23.3994 75.377L25.1331 76.4608H21.666L23.3994 75.377ZM25.1328 80.0211L23.3994 81.1049L21.6661 80.0211H25.1328Z" fill="#D91C16"/>
<path d="M24.7145 77.7047V78.7773H22.5527V77.7047H24.7145Z" fill="#D91C16"/>
<path d="M25.6052 78.8627V79.9352H23.4434V78.8627H25.6052Z" fill="#FDD406"/>
<path d="M23.3571 78.8628V79.9354H21.1953V78.8628H23.3571Z" fill="#FDD406"/>
<path d="M26.9606 77.7047V78.7773H24.7988V77.7047H26.9606Z" fill="#FDD406"/>
<path d="M22.4665 77.7047V78.7773H20.3047V77.7047H22.4665Z" fill="#FDD406"/>
<path d="M25.6052 76.5465V77.619H23.4434V76.5465H25.6052Z" fill="#FDD406"/>
<path d="M23.3571 76.5465V77.619H21.1953V76.5465H23.3571Z" fill="#FDD406"/>
<path d="M21.8714 77.9429V78.5388H20.9004V77.9429H21.8714Z" fill="black"/>
<path d="M22.7621 76.7847V77.3806H21.791V76.7847H22.7621Z" fill="black"/>
<path d="M25.0101 76.7847V77.3806H24.0391V76.7847H25.0101Z" fill="black"/>
<path d="M24.1195 77.9429V78.5388H23.1484V77.9429H24.1195Z" fill="black"/>
<path d="M26.3656 77.9429V78.5388H25.3945V77.9429H26.3656Z" fill="black"/>
<path d="M25.0101 79.1011V79.697H24.0391V79.1011H25.0101Z" fill="black"/>
<path d="M22.7621 79.1011V79.697H21.791V79.1011H22.7621Z" fill="black"/>
<path d="M21.7803 78.0343H20.9922V78.4473H21.7803V78.0343Z" fill="white"/>
<path d="M22.671 76.8761H21.8828V77.2891H22.671V76.8761Z" fill="white"/>
<path d="M24.919 76.8761H24.1309V77.2891H24.919V76.8761Z" fill="white"/>
<path d="M24.0284 78.0343H23.2402V78.4473H24.0284V78.0343Z" fill="white"/>
<path d="M26.2745 78.0343H25.4863V78.4473H26.2745V78.0343Z" fill="white"/>
<path d="M24.919 79.1925H24.1309V79.6055H24.919V79.1925Z" fill="white"/>
<path d="M22.671 79.1925H21.8828V79.6055H22.671V79.1925Z" fill="white"/>
<path d="M32.3117 77.6189V76.4606H32.7067L34.602 75.2756L34.6247 75.2899L36.4972 76.4606H36.8922V77.6189H37.7832V78.8628H36.8922V80.0209H36.4972L34.602 81.2059L32.7067 80.0209H32.3117V78.8628H30.9553V77.6189H32.3117Z" fill="black"/>
<path d="M34.6025 75.3768L32.8689 76.4607H36.3359L34.6025 75.3768ZM32.8691 80.021L34.6025 81.1048L36.3358 80.021H32.8691Z" fill="#D91C16"/>
<path d="M33.2894 77.7046V78.7771H35.4512V77.7046H33.2894Z" fill="#D91C16"/>
<path d="M32.3968 78.8627V79.9352H34.5586V78.8627H32.3968Z" fill="#FDD406"/>
<path d="M34.6448 78.8627V79.9352H36.8066V78.8627H34.6448Z" fill="#FDD406"/>
<path d="M31.0413 77.7047V78.7773H33.2031V77.7047H31.0413Z" fill="#FDD406"/>
<path d="M35.5355 77.7047V78.7773H37.6973V77.7047H35.5355Z" fill="#FDD406"/>
<path d="M32.3968 76.5465V77.619H34.5586V76.5465H32.3968Z" fill="#FDD406"/>
<path d="M34.6448 76.5465V77.619H36.8066V76.5465H34.6448Z" fill="#FDD406"/>
<path d="M36.1305 77.9429V78.5388H37.1016V77.9429H36.1305Z" fill="black"/>
<path d="M35.2399 76.7847V77.3806H36.2109V76.7847H35.2399Z" fill="black"/>
<path d="M32.9919 76.7847V77.3806H33.9629V76.7847H32.9919Z" fill="black"/>
<path d="M33.8825 77.9429V78.5388H34.8535V77.9429H33.8825Z" fill="black"/>
<path d="M31.6364 77.9429V78.5388H32.6074V77.9429H31.6364Z" fill="black"/>
<path d="M32.9919 79.1011V79.697H33.9629V79.1011H32.9919Z" fill="black"/>
<path d="M35.2399 79.1011V79.697H36.2109V79.1011H35.2399Z" fill="black"/>
<path d="M36.2236 78.0343H37.0117V78.4473H36.2236V78.0343Z" fill="white"/>
<path d="M35.3329 76.8761H36.1211V77.2891H35.3329V76.8761Z" fill="white"/>
<path d="M33.0849 76.8761H33.873V77.2891H33.0849V76.8761Z" fill="white"/>
<path d="M33.9755 78.0343H34.7637V78.4473H33.9755V78.0343Z" fill="white"/>
<path d="M31.7294 78.0343H32.5176V78.4473H31.7294V78.0343Z" fill="white"/>
<path d="M33.0849 79.1925H33.873V79.6055H33.0849V79.1925Z" fill="white"/>
<path d="M35.3329 79.1925H36.1211V79.6055H35.3329V79.1925Z" fill="white"/>
<path d="M31.2921 75.6841V76.8422H30.8971L29.0018 78.0272L28.9791 78.013L27.1066 76.8422H26.7116V75.6841H25.5879V74.4402H26.7116V73.282H27.1066L29.0018 72.0969L30.8971 73.282H31.2921V74.4402H32.4158V75.6841H31.2921Z" fill="black"/>
<path d="M29.001 77.9261L30.7345 76.8421H27.2676L29.001 77.9261ZM30.7344 73.282L29.001 72.198L27.2677 73.282H30.7344Z" fill="#FDD406"/>
<path d="M31.2067 74.4401V73.3677H29.0449V74.4401H31.2067Z" fill="#D91C16"/>
<path d="M28.9587 74.4401V73.3677H26.7969V74.4401H28.9587Z" fill="#D91C16"/>
<path d="M32.3298 75.5983V74.5258H30.168V75.5983H32.3298Z" fill="#D91C16"/>
<path d="M30.0837 75.5983V74.5258H27.9219V75.5983H30.0837Z" fill="#D91C16"/>
<path d="M27.8355 75.5983V74.5258H25.6738V75.5983H27.8355Z" fill="#D91C16"/>
<path d="M31.2067 76.7565V75.684H29.0449V76.7565H31.2067Z" fill="#D91C16"/>
<path d="M28.9587 76.7565V75.684H26.7969V76.7565H28.9587Z" fill="#D91C16"/>
<path d="M28.3636 73.6058V74.2018H27.3926V73.6058H28.3636Z" fill="black"/>
<path d="M30.6117 73.6058V74.2018H29.6406V73.6058H30.6117Z" fill="black"/>
<path d="M27.2406 74.764V75.36H26.2695V74.764H27.2406Z" fill="black"/>
<path d="M29.4886 74.764V75.36H28.5176V74.764H29.4886Z" fill="black"/>
<path d="M31.7367 74.764V75.36H30.7656V74.764H31.7367Z" fill="black"/>
<path d="M28.3636 75.9222V76.5182H27.3926V75.9222H28.3636Z" fill="black"/>
<path d="M30.6117 75.9222V76.5182H29.6406V75.9222H30.6117Z" fill="black"/>
<path d="M28.2706 73.6973H27.4824V74.1103H28.2706V73.6973Z" fill="white"/>
<path d="M30.5186 73.6973H29.7305V74.1103H30.5186V73.6973Z" fill="white"/>
<path d="M27.1475 74.8555H26.3594V75.2685H27.1475V74.8555Z" fill="white"/>
<path d="M29.3956 74.8555H28.6074V75.2685H29.3956V74.8555Z" fill="white"/>
<path d="M31.6417 74.8555H30.8535V75.2685H31.6417V74.8555Z" fill="white"/>
<path d="M28.2706 76.0137H27.4824V76.4267H28.2706V76.0137Z" fill="white"/>
<path d="M30.5186 76.0137H29.7305V76.4267H30.5186V76.0137Z" fill="white"/>
<path d="M31.2921 82.0416V83.1997H30.8971L29.0018 84.3847L28.9791 84.3706L27.1066 83.1997H26.7116V82.0416H25.5879V80.7977H26.7116V79.6396H27.1066L29.0018 78.4545L30.8971 79.6396H31.2921V80.7977H32.4158V82.0416H31.2921Z" fill="black"/>
<path d="M29.001 84.2836L30.7345 83.1997H27.2676L29.001 84.2836ZM30.7344 79.6395L29.001 78.5555L27.2677 79.6395H30.7344Z" fill="#FDD406"/>
<path d="M31.2067 80.7977V79.7252H29.0449V80.7977H31.2067Z" fill="#D91C16"/>
<path d="M28.9587 80.7977V79.7252H26.7969V80.7977H28.9587Z" fill="#D91C16"/>
<path d="M32.3298 81.9559V80.8833H30.168V81.9559H32.3298Z" fill="#D91C16"/>
<path d="M30.0837 81.9559V80.8833H27.9219V81.9559H30.0837Z" fill="#D91C16"/>
<path d="M27.8355 81.9559V80.8833H25.6738V81.9559H27.8355Z" fill="#D91C16"/>
<path d="M31.2067 83.1141V82.0415H29.0449V83.1141H31.2067Z" fill="#D91C16"/>
<path d="M28.9587 83.1141V82.0415H26.7969V83.1141H28.9587Z" fill="#D91C16"/>
<path d="M28.3636 79.9634V80.5593H27.3926V79.9634H28.3636Z" fill="black"/>
<path d="M30.6117 79.9634V80.5593H29.6406V79.9634H30.6117Z" fill="black"/>
<path d="M27.2406 81.1216V81.7175H26.2695V81.1216H27.2406Z" fill="black"/>
<path d="M29.4886 81.1216V81.7175H28.5176V81.1216H29.4886Z" fill="black"/>
<path d="M31.7367 81.1216V81.7175H30.7656V81.1216H31.7367Z" fill="black"/>
<path d="M28.3636 82.2798V82.8757H27.3926V82.2798H28.3636Z" fill="black"/>
<path d="M30.6117 82.2798V82.8757H29.6406V82.2798H30.6117Z" fill="black"/>
<path d="M28.2706 80.0548H27.4824V80.4678H28.2706V80.0548Z" fill="white"/>
<path d="M30.5186 80.0548H29.7305V80.4678H30.5186V80.0548Z" fill="white"/>
<path d="M27.1475 81.213H26.3594V81.626H27.1475V81.213Z" fill="white"/>
<path d="M29.3956 81.213H28.6074V81.626H29.3956V81.213Z" fill="white"/>
<path d="M31.6417 81.213H30.8535V81.626H31.6417V81.213Z" fill="white"/>
<path d="M28.2706 82.3712H27.4824V82.7843H28.2706V82.3712Z" fill="white"/>
<path d="M30.5186 82.3712H29.7305V82.7843H30.5186V82.3712Z" fill="white"/>
<path d="M16.7363 95.8708L25.1466 91.3445H25.1574H32.8545L41.2648 95.8708V103.329L32.8545 107.855H25.1466L16.7363 103.329V95.8708Z" fill="black"/>
<path d="M25.1737 91.4302L16.8262 95.9217V103.273L25.1737 107.765H32.8323L41.1801 103.273V95.9217L32.8323 91.4302H25.1737ZM25.3218 92.0339H32.6842L40.5869 96.2817V102.924L32.6842 107.172H25.3174L17.4149 102.924V96.2817L25.3218 92.0339Z" fill="#1E9A1C"/>
<path d="M29.0433 99.5567V107.085H32.6624L40.499 102.867V99.6425L28.9576 99.6425V92.1145H25.3387L17.502 96.3318V99.5567L29.0433 99.5567Z" fill="#FDD406"/>
<path d="M28.9576 99.5567V107.085H25.3387L17.502 102.867V99.6425L29.0433 99.6425V92.1145H32.6624L40.499 96.3318V99.5567L28.9576 99.5567Z" fill="white"/>
<path d="M29.704 106.663V104.488L29.0005 104.934L28.297 104.488V106.663H26.1086L27.5852 105.58V104.036L25.3333 102.607H23.7598V96.5926H25.3333L27.5852 95.1638V93.6193L26.1086 92.5364H26.2396H28.297V94.7123L29.0005 94.2659L29.704 94.7123V92.5364H31.8924L30.4157 93.6193V95.1638L32.6676 96.5926H34.2412V102.607H32.6676L30.4157 104.036V105.58L31.8924 106.663H29.704Z" fill="black"/>
<path d="M29.7925 92.627V94.8727L29.0403 94.3961V95.0317L32.483 97.2242H33.6166V99.5551H34.1569V96.6737H32.642L30.3328 95.2117V93.5802L31.6355 92.627H29.7925ZM23.8496 99.6398V102.521H25.3539L27.6739 103.993V105.625L26.3708 106.578H28.2142V104.332L28.9555 104.809V104.152L25.5128 101.981H24.3898V99.6398L23.8496 99.6398Z" fill="#FDD406"/>
<path d="M26.3708 92.627L27.6738 93.5802V95.2117L25.3538 96.6737H23.8496V99.5551H24.3898V97.2242H25.5128L28.9555 95.0422V94.3961L28.2142 94.8727V92.627L26.3708 92.627ZM33.6166 99.6398V101.981H32.483L29.0403 104.152V104.809L29.7925 104.332V106.578H31.6355L30.3328 105.625V103.993L32.642 102.521H34.1569V99.6398L33.6166 99.6398Z" fill="white"/>
<path d="M24.4727 101.892H25.5402L29.0017 104.088L32.4631 101.892H33.5307V97.3083H32.4756H32.4631L29.0017 95.1122L25.5402 97.3083H24.4727V101.892Z" fill="#D91C16"/>
<path d="M31.396 100.689H32.1351V100.339H31.5791V99.7036H32.7673V101.325H31.6282L31.6283 102.431H29.2834V100.842H30.3154V101.477H29.9157V101.795H30.996V101.187L26.6038 98.5108H25.8647V98.8604H26.4208V99.496H25.2324V97.8751H26.3716V96.7692H26.4144H28.7164V98.3582H27.6844V97.7226H28.0841V97.4048H27.0039V98.0124L31.396 100.689ZM30.996 98.0124V97.4048H29.9157V97.7226H30.3154V98.3582H29.2834V96.7692H31.6283V97.8751H32.7673V99.496H31.5791V98.8604H32.1352V98.5108H31.396L27.0039 101.187V101.795H28.0841V101.477H27.6844V100.841H28.7164V102.431H26.3716V101.325H25.2324V99.7036H26.4208V100.339H25.8647V100.689H26.6038L30.996 98.0124Z" fill="black"/>
<path d="M31.0818 101.139V101.881H29.83V101.392H30.2298V100.927H29.3692V102.345H31.5426V101.239H32.6818V99.7896H31.6649V100.254H32.2209V100.775H31.3721L26.9182 98.0606V97.3193H28.17V97.8084H27.7703V98.2727H28.6308V96.855H26.4574V97.9609H25.3184V99.4105H26.3351V98.9462H25.7792V98.4252H26.6279L31.0818 101.139ZM31.3721 98.4252H32.221V98.9462H31.6649V99.4105H32.6818V97.9609H31.5428V96.855H29.3693V98.2727H30.2298V97.8084H29.8301V97.3193H31.0818V98.0606L26.6279 100.775H25.7792V100.254H26.3351V99.7895H25.3184V101.239H26.4574V102.345H28.6308V100.927H27.7703V101.392H28.17V101.881H26.9182V101.139L31.3721 98.4252Z" fill="white"/>
<path d="M38.81 99.9767V102.329H37.8089V101.498H36.7999V102.329H35.7988V99.9767H36.7999V100.807H37.8089V99.9767H38.81Z" fill="black"/>
<path d="M35.228 103.1V105.452H34.2269V104.621H33.2178V105.452H32.2168V103.1H33.2178V103.93H34.2269V103.1H35.228Z" fill="black"/>
<path d="M38.81 99.2225V96.8701H37.8089V97.7009H36.7999V96.8701H35.7988V99.2225H36.7999V98.3917H37.8089V99.2225H38.81Z" fill="black"/>
<path d="M19.1914 99.9767V102.329H20.1924V101.498H21.2015V102.329H22.2026V99.9767H21.2015V100.807H20.1924V99.9767H19.1914Z" fill="black"/>
<path d="M19.1914 99.2225V96.8701H20.1924V97.7009H21.2015V96.8701H22.2026V99.2225H21.2015V98.3917H20.1924V99.2225H19.1914Z" fill="black"/>
<path d="M35.228 96.0997V93.7473H34.2269V94.5781H33.2178V93.7473H32.2168V96.0997H33.2178V95.2689H34.2269V96.0997H35.228Z" fill="black"/>
<path d="M22.7734 103.1V105.452H23.7745V104.621H24.7836V105.452H25.7846V103.1H24.7836V103.931H23.7745V103.1H22.7734Z" fill="black"/>
<path d="M22.7734 96.0997V93.7473H23.7745V94.5781H24.7836V93.7473H25.7846V96.0997H24.7836V95.2689H23.7745V96.0997H22.7734Z" fill="black"/>
<path d="M35.8242 94.451V96.2375H39.1437L35.8242 94.451Z" fill="black"/>
<path d="M22.1769 104.748V102.962H18.8574L22.1769 104.748Z" fill="black"/>
<path d="M22.1769 94.451V96.2375H18.8574L22.1769 94.451Z" fill="black"/>
<path d="M35.8242 104.748V102.962H39.1437L35.8242 104.748Z" fill="black"/>
<path d="M37.8929 101.413V102.244H38.7226V100.063H37.8929V100.893H36.7124V100.063H35.8828V102.244H36.7124V101.413H37.8929Z" fill="#D91C16"/>
<path d="M34.3129 104.536V105.366H35.1424V103.185H34.3129V104.016H33.1323V103.185H32.3027V105.366H33.1323V104.536H34.3129Z" fill="#D91C16"/>
<path d="M37.8929 97.7867V96.9559H38.7226V99.1368H37.8929V98.3059H36.7124V99.1368H35.8828V96.9559H36.7124V97.7867H37.8929Z" fill="#D91C16"/>
<path d="M20.1069 101.413V102.244H19.2773V100.063H20.1069V100.893H21.2875V100.063H22.117V102.244H21.2875V101.413H20.1069Z" fill="#D91C16"/>
<path d="M20.1069 97.7867V96.9559H19.2773V99.1368H20.1069V98.3059H21.2875V99.1368H22.117V96.9559H21.2875V97.7867H20.1069Z" fill="#D91C16"/>
<path d="M34.3129 94.6639V93.833H35.1424V96.014H34.3129V95.1831H33.1323V96.014H32.3027V93.833H33.1323V94.6639H34.3129Z" fill="#D91C16"/>
<path d="M23.6889 104.536V105.366H22.8594V103.185H23.6889V104.016H24.8695V103.185H25.6992V105.366H24.8695V104.536H23.6889Z" fill="#D91C16"/>
<path d="M23.6889 94.6639V93.833H22.8594V96.014H23.6889V95.1831H24.8695V96.014H25.6992V93.833H24.8695V94.6639H23.6889Z" fill="#D91C16"/>
<path d="M35.9154 94.5972V96.1545H38.8076L35.9154 94.5972ZM19.1994 103.051L22.0913 104.608V103.051H19.1994Z" fill="#FDD406"/>
<path d="M22.0912 94.5972L19.1992 96.1545H22.0912V94.5972ZM35.9152 103.051V104.608L38.8074 103.051H35.9152Z" fill="white"/>
<path d="M42.5818 106.165C42.422 106.846 41.8801 107.361 41.751 108.067C41.4925 107.33 41.2542 106.713 41.4322 105.907C41.5595 105.33 42.0446 104.919 42.1007 104.326C42.6296 104.802 42.7434 105.476 42.5818 106.165ZM42.7158 109.02C42.2673 109.635 41.6438 110.107 40.9552 110.421C41.0908 109.883 40.8364 109.477 40.554 109.049C40.2138 108.535 40.048 108.029 40.3253 107.436C40.4546 107.744 40.6282 108 40.832 108.264C41.1333 108.675 41.3314 109.04 41.3778 109.568C41.7263 109.309 41.8794 108.924 42.0658 108.551C42.3498 108.016 42.8082 107.569 43.3348 107.277C43.1949 107.877 43.0871 108.511 42.7158 109.02ZM40.2002 110.853C40.296 111.195 40.3787 111.533 40.3602 111.89C40.6566 111.571 41.0502 111.331 41.4014 111.073C41.8796 110.687 42.437 110.414 42.8279 109.921C42.7696 110.646 42.4594 111.237 41.8704 111.678C41.2479 112.144 40.497 112.395 39.8838 112.884C39.9756 112.225 39.7335 111.697 39.5269 111.091C39.3549 110.512 39.5214 109.924 39.9141 109.483C39.9082 109.972 40.0625 110.392 40.2002 110.853ZM38.803 113.08C38.674 113.58 38.3157 113.987 38.071 114.433C38.7308 114.228 39.3129 113.87 39.9093 113.534C40.6197 113.147 41.391 112.901 42.0341 112.39C41.7141 113.575 40.9209 114.262 39.7605 114.612C38.967 114.851 38.2984 114.732 37.3356 115.121C37.446 114.469 37.6406 113.766 37.9487 113.178C38.1879 112.753 38.4531 112.334 38.6008 111.866C38.8148 112.25 38.916 112.642 38.803 113.08ZM36.3753 114.893C36.1481 115.282 35.8482 115.61 35.4764 115.868C36.413 115.928 37.1667 115.334 38.0798 115.308C38.6438 115.292 39.1792 115.467 39.7544 115.415C39.0718 115.875 38.3572 116.278 37.5262 116.385C36.446 116.525 35.4497 116.253 34.258 116.359C34.8149 115.966 35.0936 115.44 35.4407 114.875C35.8928 114.168 36.3194 113.665 37.1986 113.551C36.8457 113.948 36.6402 114.439 36.3753 114.893ZM33.049 116.447C34.699 116.728 36.2801 117.091 37.9653 117.108C36.079 117.765 34.3017 117.884 32.4309 117.205C31.4199 116.838 30.6447 116.642 29.8811 116.696C28.7652 116.777 27.4091 117.217 25.9083 118.8L25.3184 118.328C27.4694 116.411 30.2839 115.977 33.0489 116.447L33.049 116.447Z" fill="#FDD406"/>
<path d="M15.4288 106.165C15.5886 106.846 16.1304 107.361 16.2595 108.067C16.518 107.33 16.7563 106.713 16.5784 105.907C16.4511 105.33 15.966 104.919 15.9099 104.326C15.381 104.802 15.2671 105.476 15.4288 106.165ZM15.2947 109.02C15.7433 109.635 16.3668 110.107 17.0554 110.421C16.9198 109.883 17.1742 109.477 17.4565 109.049C17.7967 108.535 17.9626 108.029 17.6853 107.436C17.556 107.744 17.3824 108 17.1786 108.264C16.8773 108.675 16.6792 109.04 16.6327 109.568C16.2843 109.309 16.1311 108.924 15.9448 108.551C15.6607 108.016 15.2023 107.569 14.6758 107.277C14.8157 107.877 14.9235 108.511 15.2947 109.02ZM17.8104 110.853C17.7145 111.195 17.6319 111.533 17.6503 111.89C17.3539 111.571 16.9603 111.331 16.6092 111.073C16.131 110.687 15.5736 110.414 15.1827 109.921C15.241 110.646 15.5512 111.237 16.1401 111.678C16.7627 112.144 17.5135 112.395 18.1267 112.884C18.0349 112.225 18.2771 111.697 18.4836 111.091C18.6557 110.512 18.4891 109.924 18.0965 109.483C18.1024 109.972 17.9481 110.392 17.8104 110.853ZM19.2076 113.08C19.3366 113.58 19.6949 113.987 19.9396 114.433C19.2798 114.228 18.6977 113.87 18.1013 113.534C17.3909 113.147 16.6195 112.901 15.9765 112.39C16.2965 113.575 17.0897 114.262 18.2501 114.612C19.0435 114.851 19.7122 114.732 20.6749 115.121C20.5645 114.469 20.37 113.766 20.0619 113.178C19.8227 112.753 19.5575 112.334 19.4098 111.866C19.1958 112.25 19.0945 112.642 19.2076 113.08ZM21.6353 114.893C21.8625 115.282 22.1623 115.61 22.5342 115.868C21.5976 115.928 20.8439 115.334 19.9308 115.308C19.3668 115.292 18.8314 115.467 18.2562 115.415C18.9388 115.875 19.6534 116.278 20.4844 116.385C21.5646 116.525 22.5609 116.253 23.7526 116.359C23.1957 115.966 22.917 115.44 22.5699 114.875C22.1178 114.168 21.6912 113.665 20.812 113.551C21.1649 113.948 21.3703 114.439 21.6353 114.893ZM24.9616 116.447C23.3116 116.728 21.7305 117.091 20.0453 117.108C21.9316 117.765 23.7089 117.884 25.5797 117.205C26.5907 116.838 27.3659 116.642 28.1295 116.696C29.2453 116.777 30.6015 117.217 32.1023 118.8L32.6922 118.328C30.5411 116.411 27.7267 115.977 24.9617 116.447L24.9616 116.447Z" fill="#FDD406"/>
</g>
<defs>
<clipPath id="clip0_307_74200">
<rect width="120" height="120" fill="white"/>
</clipPath>
</defs>
</svg>
