<svg width="120" height="120" viewBox="0 0 120 120" fill="none" xmlns="http://www.w3.org/2000/svg">
<path d="M0 0H120V120H0V0Z" fill="white"/>
<path d="M120 13.5H66.666V26.7857H120V13.5Z" fill="#0F3296"/>
<path d="M120 40.0714H66.666V53.3571H120V40.0714Z" fill="#0F3296"/>
<path d="M0 66.6429H119.998V79.9286H0V66.6429Z" fill="#0F3296"/>
<path d="M119.998 93.2143H0V106.5H119.998V93.2143Z" fill="#0F3296"/>
<path d="M31.8238 39.8519L34.0307 43.1473C24.9623 49.7099 30.4987 53.5906 24.0723 55.6913C28.0692 51.7906 23.5439 51.189 26.9116 43.0588" fill="#FDD406"/>
<path d="M34.3313 43.2011L31.884 39.5468L31.5186 39.7915L31.5877 39.8947L30.2773 40.8049L30.0581 40.6719C27.5898 44.74 27.1181 47.9191 26.7596 50.3352L26.7348 50.5018C26.553 51.7236 26.3927 52.7142 26.012 53.5328C25.85 53.8811 25.6472 54.1997 25.3824 54.4904C25.6619 54.0648 25.8386 53.6654 25.9413 53.2705C26.1441 52.491 26.0506 51.754 25.946 50.9332L25.9432 50.9113C25.8386 50.0906 25.7197 49.1575 25.8283 47.9334C25.9378 46.6982 26.28 45.158 27.1147 43.1429L27.1988 42.9397L26.7924 42.7714L26.7083 42.9746C25.8592 45.0246 25.5042 46.6084 25.3901 47.8945C25.2774 49.1661 25.4013 50.1382 25.5061 50.9605L25.5097 50.9888C25.6159 51.8224 25.6937 52.4753 25.5156 53.1597C25.339 53.8387 24.9019 54.5742 23.9186 55.5338L23.2422 56.1939L24.1405 55.9003C25.7755 55.3658 26.6825 54.707 27.245 53.8929C27.7363 53.182 27.9515 52.3662 28.1836 51.4864C28.2129 51.3752 28.2425 51.2628 28.273 51.1496C28.5472 50.1314 28.8989 48.9912 29.737 47.7002C30.576 46.4079 31.9095 44.9537 34.1595 43.3254L34.3313 43.2011Z" fill="#784B26"/>
<path d="M27.6567 36.8754L26.8871 40.7661C15.8343 38.9942 17.005 45.6531 10.9755 42.5943C16.56 42.6624 13.9117 38.9877 22.0418 35.6201" fill="#FDD406"/>
<path d="M27.9151 36.7023L27.0616 41.0169L26.8521 40.9833C24.1098 40.5437 22.1385 40.6291 20.6315 40.9496C19.126 41.2699 18.071 41.8274 17.1572 42.3535C17.0557 42.412 16.9554 42.4704 16.856 42.5282L16.8558 42.5284C16.0696 42.9864 15.3406 43.411 14.4905 43.5664C13.5171 43.7442 12.4099 43.5688 10.8758 42.7906L10.0327 42.3629L10.978 42.3744C12.3511 42.3911 13.1887 42.1773 13.8062 41.8169C14.4288 41.4536 14.8515 40.9295 15.3813 40.2592L15.4074 40.2262C15.9283 39.567 16.5423 38.7903 17.5273 37.971C18.5289 37.1379 19.9075 36.266 21.9575 35.4168L22.1607 35.3326L22.3291 35.7391L22.1259 35.8233C20.1108 36.658 18.7717 37.5083 17.8087 38.3092C16.8592 39.099 16.2689 39.8458 15.7487 40.504L15.7265 40.532C15.2041 41.1929 14.7335 41.7852 14.028 42.1969C13.4908 42.5105 12.8307 42.7127 11.9274 42.7853C12.2942 42.9303 12.6285 43.0317 12.9372 43.0968C13.3074 43.0649 13.6728 42.9834 14.0235 42.8534C14.9483 42.5164 15.801 41.8941 16.7894 41.1624C16.8358 41.128 16.8825 41.0934 16.9295 41.0585C18.8848 39.6087 21.3968 37.746 25.9334 36.6343L25.9155 36.5623L27.4399 36.837L27.4835 36.6169L27.9151 36.7023Z" fill="#784B26"/>
<path d="M33.3332 33.3334L30.2219 30.2222L16.2212 50.4454L36.4444 36.4447L33.3332 33.3334L16.2212 50.4454L33.3332 33.3334Z" fill="#FDD406"/>
<path fill-rule="evenodd" clip-rule="evenodd" d="M30.1913 29.8802L36.7865 36.4755L15.3521 51.3147L30.1913 29.8802ZM30.253 30.564L17.7906 48.5651L33.0224 33.3334L30.253 30.564ZM33.3334 33.6444L18.1016 48.8762L36.1028 36.4138L33.3334 33.6444Z" fill="#784B26"/>
<path d="M26.8145 31.8239L23.5192 34.0308C16.9566 24.9625 13.0759 30.4988 10.9752 24.0724C14.8759 28.0694 15.5149 23.5516 23.645 26.9192" fill="#FDD406"/>
<path d="M23.4656 34.3317L27.12 31.8843L26.8752 31.5187L26.6888 31.6436L25.8052 30.3715L25.7669 30.435C21.7729 28.0133 18.6796 27.5541 16.2718 27.1967L16.0992 27.1711C14.883 26.9896 13.84 26.8266 12.9477 26.411C12.6078 26.2549 12.2917 26.0542 12.0075 25.815C11.8352 25.5507 11.6707 25.2428 11.5139 24.8811C12.2015 25.4668 12.8065 25.788 13.4021 25.9428C14.1849 26.1462 14.9263 26.0537 15.7517 25.9501L15.7761 25.947C16.601 25.8434 17.5382 25.7257 18.7648 25.8349C20.0035 25.9451 21.5461 26.2878 23.5611 27.1224L23.7643 27.2066L23.9327 26.8001L23.7295 26.7159C21.6794 25.8668 20.0933 25.5113 18.8038 25.3966C17.53 25.2833 16.554 25.4059 15.7277 25.5097L15.6969 25.5135C14.8588 25.6188 14.201 25.6958 13.5128 25.517C12.8301 25.3395 12.0923 24.9019 11.1329 23.9188L10.4727 23.2422L10.7664 24.1408C11.3008 25.7758 11.9597 26.6828 12.7738 27.2453C13.4847 27.7366 14.3005 27.9518 15.1803 28.1839C15.2915 28.2132 15.4038 28.2428 15.517 28.2733C16.5353 28.5475 17.6754 28.8992 18.9665 29.7374C20.2587 30.5763 21.713 31.9098 23.3412 34.1598L23.4656 34.3317Z" fill="#784B26"/>
<path d="M33.333 33.3333V28.9333L9.13301 33.3333L33.333 37.7333V33.3333H9.13301H33.333Z" fill="#FDD406"/>
<path fill-rule="evenodd" clip-rule="evenodd" d="M7.90332 33.3334L33.5532 37.997V28.6698L7.90332 33.3334ZM11.573 33.1134L33.1132 29.197V33.1134H11.573Z" fill="#784B26"/>
<path d="M29.7913 27.6568L25.9006 26.8871C27.6725 15.8344 21.0136 17.0051 24.0724 10.9756C24.0043 16.56 27.8676 14.3583 31.2353 22.4885" fill="#FDD406"/>
<path d="M29.9643 27.9152L25.6497 27.0617L25.6833 26.8522C26.1229 24.1099 26.0376 22.1386 25.717 20.6316C25.3968 19.1261 24.8393 18.0712 24.3131 17.1573C24.2546 17.0557 24.1962 16.9554 24.1383 16.8559C23.6803 16.0697 23.2556 15.3407 23.1003 14.4906C22.9224 13.5172 23.0978 12.41 23.8761 10.8759L24.3038 10.0328L24.2922 10.9782C24.2755 12.3487 24.5002 13.2159 24.88 13.8775C25.2631 14.5449 25.8146 15.0243 26.5073 15.6092L26.5708 15.6629C27.9545 16.8307 29.7615 18.3558 31.4384 22.4042L31.5226 22.6074L31.1161 22.7758L31.0319 22.5726C29.3957 18.6224 27.6496 17.149 26.2944 16.0053L26.2234 15.9454C25.5378 15.3664 24.9257 14.841 24.4984 14.0965C24.1717 13.5274 23.9589 12.8423 23.8827 11.9241C23.737 12.2922 23.6351 12.6275 23.5699 12.9372C23.6017 13.3074 23.6833 13.6729 23.8133 14.0236C24.1503 14.9485 24.7726 15.8012 25.5042 16.7895C25.5386 16.8359 25.5733 16.8826 25.6081 16.9297C27.058 18.885 28.9206 21.397 30.0324 25.9336L30.1044 25.9157L29.8297 27.4401L30.0497 27.4836L29.9643 27.9152Z" fill="#784B26"/>
<path d="M33.3331 33.3334L36.4443 30.2222L16.2211 16.2215L30.2218 36.4447L33.3331 33.3334L16.2211 16.2215L33.3331 33.3334Z" fill="#FDD406"/>
<path fill-rule="evenodd" clip-rule="evenodd" d="M30.1911 36.7866L36.7864 30.1913L15.3516 15.3518L30.1911 36.7866ZM18.102 17.7911L36.1025 30.253L33.3332 33.0223L18.102 17.7911Z" fill="#784B26"/>
<path d="M34.843 26.8148L32.6361 23.5194C41.7044 16.9569 36.1681 13.0761 42.5944 10.9755C38.5975 14.8762 43.0997 15.5194 39.732 23.6496" fill="#FDD406"/>
<path d="M34.7823 27.12L32.335 23.4656L32.5068 23.3412C34.7568 21.713 36.0903 20.2587 36.9293 18.9665C37.7674 17.6754 38.1192 16.5353 38.3933 15.517C38.4238 15.4038 38.4534 15.2915 38.4828 15.1803C38.7148 14.3005 38.9301 13.4847 39.4213 12.7738C39.9838 11.9597 40.8908 11.3008 42.5258 10.7664L43.4244 10.4727L42.7479 11.1329C41.7647 12.0924 41.326 12.8306 41.1471 13.5138C40.9668 14.2026 41.0421 14.8611 41.1453 15.6996L41.1495 15.7333C41.2513 16.5595 41.3715 17.5351 41.2568 18.8076C41.1406 20.0975 40.7842 21.6838 39.935 23.7338L39.8509 23.937L39.4443 23.7686L39.5285 23.5654C40.3632 21.5503 40.7069 20.0074 40.8186 18.7681C40.929 17.5425 40.8136 16.6055 40.712 15.7808L40.7086 15.7534C40.6069 14.9273 40.5165 14.1854 40.7215 13.4024C40.8774 12.8067 41.1994 12.2016 41.7854 11.514C41.4238 11.6707 41.1159 11.8353 40.8517 12.0075C40.6125 12.2917 40.4117 12.6078 40.2557 12.9477C39.8401 13.84 39.6771 14.8829 39.4956 16.0992C39.4871 16.1563 39.4786 16.2138 39.47 16.2717C39.1126 18.6796 38.6534 21.7729 36.2317 25.7669L36.2952 25.8051L35.0231 26.6888L35.1479 26.8752L34.7823 27.12Z" fill="#784B26"/>
<path d="M33.3334 33.3334H37.7334L33.3334 9.13338L28.9334 33.3334H33.3334V9.13338V33.3334Z" fill="#FDD406"/>
<path fill-rule="evenodd" clip-rule="evenodd" d="M33.333 7.90356L28.6694 33.5534H37.9966L33.333 7.90356ZM33.553 11.5732L37.4694 33.1134H33.553V11.5732Z" fill="#784B26"/>
<path d="M39.0097 29.7915L39.7793 25.9008C50.8321 27.6726 49.6614 21.0137 55.6909 24.0725C50.1064 24.0044 52.5943 27.6976 44.4642 31.0652" fill="#FDD406"/>
<path d="M38.7515 29.9646L39.605 25.65L39.8145 25.6835C42.5568 26.1231 44.5281 26.0378 46.035 25.7173C47.5406 25.397 48.5955 24.8395 49.5094 24.3134C49.611 24.2549 49.7113 24.1964 49.8108 24.1385C50.597 23.6805 51.326 23.2558 52.1761 23.1005C53.1495 22.9226 54.2567 23.0981 55.7907 23.8763L56.6338 24.304L55.6885 24.2925C54.316 24.2758 53.4673 24.4905 52.8338 24.8537C52.1951 25.2198 51.7523 25.7478 51.2028 26.4197L51.1617 26.47C50.6245 27.1272 49.9934 27.8992 49.0029 28.7123C47.9868 29.5465 46.5986 30.4193 44.5487 31.2684L44.3455 31.3526L44.1771 30.9461L44.3803 30.8619C46.3955 30.0272 47.7452 29.1756 48.7237 28.3723C49.6801 27.5871 50.288 26.8436 50.8248 26.1869L50.8622 26.1412C51.4051 25.4774 51.8954 24.8844 52.615 24.4719C53.1632 24.1577 53.8316 23.9545 54.7393 23.8817C54.3724 23.7366 54.0381 23.6352 53.7293 23.5701C53.3592 23.6019 52.9937 23.6835 52.643 23.8135C51.7182 24.1505 50.8655 24.7728 49.8771 25.5045C49.8307 25.5388 49.784 25.5735 49.737 25.6083C47.7817 27.0582 45.2697 28.9208 40.7331 30.0326L40.751 30.1046L39.2266 29.8299L39.1831 30.05L38.7515 29.9646Z" fill="#784B26"/>
<path d="M33.3331 33.3334L36.4443 36.4447L50.445 16.2214L30.2218 30.2222L33.3331 33.3334L50.445 16.2214L33.3331 33.3334Z" fill="#FDD406"/>
<path fill-rule="evenodd" clip-rule="evenodd" d="M51.3147 15.3518L29.8799 30.1913L36.4752 36.7866L51.3147 15.3518ZM48.8754 18.1022L36.4135 36.1027L33.6442 33.3334L48.8754 18.1022Z" fill="#784B26"/>
<path d="M39.8515 34.8429L43.1469 32.636C49.7095 41.7044 53.5902 36.168 55.6909 42.5944C51.7902 38.5974 51.058 43.07 42.9279 39.7024" fill="#FDD406"/>
<path d="M39.5464 34.7824L43.2008 32.3351L43.3252 32.5069C44.9535 34.7569 46.4077 36.0905 47.7 36.9294C48.991 37.7675 50.1312 38.1193 51.1494 38.3934C51.2626 38.4239 51.3749 38.4535 51.4861 38.4829C52.3659 38.715 53.1817 38.9302 53.8927 39.4214C54.7067 39.9839 55.3656 40.8909 55.9 42.526L56.1938 43.4246L55.5335 42.748C54.5744 41.7653 53.8306 41.3243 53.1385 41.1426C52.4407 40.9594 51.7705 41.0313 50.9211 41.1308L50.8794 41.1357C50.0441 41.2336 49.0599 41.3489 47.7834 41.2319C46.4855 41.1129 44.8938 40.7547 42.8437 39.9055L42.6405 39.8213L42.8088 39.4148L43.0121 39.499C45.0271 40.3337 46.5757 40.6793 47.8236 40.7937C49.0541 40.9066 50.0003 40.7957 50.8344 40.6979L50.8699 40.6938C51.7074 40.5957 52.4597 40.5094 53.2503 40.717C53.8524 40.8751 54.4625 41.1988 55.1528 41.7863C54.9959 41.4243 54.8313 41.1161 54.6589 40.8518C54.3747 40.6126 54.0586 40.4118 53.7187 40.2558C52.8265 39.8401 51.7835 39.6772 50.5672 39.4957C50.5101 39.4872 50.4526 39.4787 50.3947 39.4701C47.9869 39.1127 44.8935 38.6535 40.8995 36.2318L40.8613 36.2953L39.9776 35.0232L39.7912 35.148L39.5464 34.7824Z" fill="#784B26"/>
<path d="M33.333 33.3334V37.7334L57.533 33.3334L33.333 28.9334V33.3334H57.533H33.333Z" fill="#FDD406"/>
<path fill-rule="evenodd" clip-rule="evenodd" d="M58.7631 33.3334L33.1133 28.6698V37.997L58.7631 33.3334ZM55.0934 33.5534L33.5533 37.4698V33.5534H55.0934Z" fill="#784B26"/>
<path d="M36.8754 39.01L40.7661 39.7797C38.9943 50.8325 45.6531 49.6618 42.5944 55.6913C42.6625 50.1068 38.9856 52.6932 35.618 44.5631" fill="#FDD406"/>
<path d="M36.7023 38.7515L41.0169 39.605L40.9833 39.8145C40.5437 42.5568 40.629 44.5281 40.9496 46.035C41.2698 47.5406 41.8273 48.5955 42.3535 49.5094C42.412 49.611 42.4705 49.7113 42.5284 49.8108C42.9864 50.597 43.411 51.326 43.5664 52.1761C43.7442 53.1495 43.5688 54.2567 42.7906 55.7907L42.3629 56.6338L42.3744 55.6885C42.3911 54.3156 42.1772 53.4737 41.8162 52.85C41.4522 52.2212 40.9272 51.7908 40.257 51.2534L40.2169 51.2213C39.5592 50.6941 38.7851 50.0735 37.9688 49.0866C37.1358 48.0794 36.2639 46.6972 35.4148 44.6472L35.3306 44.4439L35.7371 44.2756L35.8213 44.4788C36.6559 46.4939 37.5065 47.8372 38.3079 48.8062C39.0953 49.7582 39.84 50.3552 40.4969 50.8818L40.5322 50.9101C41.1936 51.4404 41.7855 51.9186 42.197 52.6296C42.5104 53.171 42.7127 53.8342 42.7853 54.7391C42.9303 54.3723 43.0317 54.0381 43.0968 53.7293C43.0649 53.3592 42.9834 52.9937 42.8534 52.643C42.5164 51.7182 41.8941 50.8655 41.1624 49.8771C41.128 49.8307 41.0934 49.784 41.0585 49.737C39.6087 47.7817 37.746 45.2697 36.6343 40.7331L36.5623 40.751L36.837 39.2266L36.6169 39.1831L36.7023 38.7515Z" fill="#784B26"/>
<path d="M33.3334 33.3334L30.2222 36.4447L50.4454 50.4454L36.4447 30.2222L33.3334 33.3334L50.4454 50.4454L33.3334 33.3334Z" fill="#FDD406"/>
<path fill-rule="evenodd" clip-rule="evenodd" d="M36.4752 29.8801L29.8799 36.4755L51.3147 51.315L36.4752 29.8801ZM48.5643 48.8757L30.5638 36.4138L33.3331 33.6445L48.5643 48.8757Z" fill="#784B26"/>
<path d="M33.3331 33.3334H28.9331L33.3331 57.5334L37.7331 33.3334H33.3331V57.5334V33.3334Z" fill="#FDD406"/>
<path fill-rule="evenodd" clip-rule="evenodd" d="M33.333 58.7628L37.9965 33.1134H28.6694L33.333 58.7628ZM33.113 55.0942L29.1965 33.5533H33.113V55.0942Z" fill="#784B26"/>
<path d="M33.3332 33.3334L16.2212 50.4454L36.4444 36.4446" fill="#784B26"/>
<path d="M33.3332 41.3998C37.7882 41.3998 41.3998 37.7882 41.3998 33.3332C41.3998 28.8781 37.7882 25.2666 33.3332 25.2666C28.8781 25.2666 25.2666 28.8781 25.2666 33.3332C25.2666 37.7882 28.8781 41.3998 33.3332 41.3998Z" fill="#FDD406"/>
<path fill-rule="evenodd" clip-rule="evenodd" d="M33.3329 25.4865C28.9993 25.4865 25.4863 28.9996 25.4863 33.3331C25.4863 37.6667 28.9993 41.1798 33.3329 41.1798C37.6665 41.1798 41.1796 37.6667 41.1796 33.3331C41.1796 28.9996 37.6665 25.4865 33.3329 25.4865ZM25.0464 33.3331C25.0464 28.7566 28.7564 25.0466 33.3329 25.0466C37.9094 25.0466 41.6194 28.7566 41.6194 33.3331C41.6194 37.9097 37.9094 41.6197 33.3329 41.6197C28.7564 41.6197 25.0464 37.9097 25.0464 33.3331Z" fill="#784B26"/>
<path d="M27.3931 30.1067C27.6443 30.3938 27.8429 30.2945 28.1952 30.1181C28.5625 29.9342 29.0971 29.6667 30.0331 29.6667C31.2163 29.6667 31.758 30.1249 32.0723 30.3907C32.245 30.5367 32.349 30.6247 32.4531 30.5467C32.7464 30.3267 30.9131 29.0067 30.3264 28.9333C29.7397 28.86 28.0531 29.4467 27.3931 30.1067Z" fill="#784B26"/>
<path fill-rule="evenodd" clip-rule="evenodd" d="M28.7842 31.6947C28.6531 31.4613 28.7087 31.2232 28.8316 31.035C28.6955 31.1032 28.5743 31.1763 28.4622 31.2439C28.2302 31.3838 28.0374 31.5 27.8331 31.5C27.96 31.4366 28.093 31.3182 28.2462 31.1819C28.6241 30.8456 29.1248 30.4 29.9597 30.4C31.1331 30.4 31.8664 30.5467 31.9397 31.4267L31.9397 31.5C31.5495 31.1453 31.3481 30.9621 31.1112 30.8676C31.0979 30.8623 31.0844 30.8572 31.0708 30.8524C31.2271 31.3174 30.7088 31.887 30.2571 32.0867C30.6469 32.0853 30.9338 31.8784 31.1593 31.7158C31.3987 31.5432 31.5689 31.4204 31.7197 31.6467C31.9397 31.94 30.8397 32.38 30.0331 32.38C29.2264 32.38 27.9797 31.1333 28.4931 31.5C28.5918 31.5705 28.6878 31.6356 28.7842 31.6947ZM29.6365 32.0336C29.312 31.7715 29.1366 31.1639 29.4713 30.8126C29.31 30.8442 29.1657 30.8899 29.0345 30.9429C28.8991 31.1639 28.7811 31.4859 28.9454 31.7875C29.1555 31.9 29.3755 31.9838 29.6365 32.0336Z" fill="#784B26"/>
<path d="M38.471 30.1181C38.8232 30.2945 39.0218 30.3938 39.2731 30.1067C38.6131 29.4467 36.9264 28.86 36.3397 28.9333C35.7531 29.0067 33.9197 30.3267 34.2131 30.5467C34.3171 30.6247 34.4211 30.5367 34.5938 30.3907C34.9081 30.1249 35.4498 29.6667 36.6331 29.6667C37.569 29.6667 38.1036 29.9342 38.471 30.1181Z" fill="#784B26"/>
<path fill-rule="evenodd" clip-rule="evenodd" d="M34.7264 31.5C35.1386 31.1253 35.3402 30.9421 35.5953 30.8524C35.439 31.3174 35.9574 31.887 36.4091 32.0867C36.0192 32.0852 35.7324 31.8784 35.5069 31.7158C35.2675 31.5432 35.0973 31.4204 34.9464 31.6467C34.7264 31.94 35.8264 32.38 36.6331 32.38C37.4398 32.38 38.6864 31.1333 38.1731 31.5C38.0744 31.5705 37.9784 31.6356 37.882 31.6947C38.0131 31.4613 37.9575 31.2232 37.8346 31.035C37.9707 31.1032 38.0919 31.1763 38.204 31.2439C38.436 31.3838 38.6287 31.5 38.8331 31.5C38.7062 31.4366 38.5732 31.3182 38.42 31.1819C38.0421 30.8456 37.5414 30.4 36.7064 30.4C35.5331 30.4 34.7998 30.5467 34.7264 31.4267V31.5ZM37.6316 30.943C37.7671 31.1639 37.8851 31.4859 37.7208 31.7875C37.5106 31.9 37.2906 31.9838 37.0296 32.0336C37.3541 31.7715 37.5295 31.1639 37.1949 30.8126C37.3561 30.8442 37.5005 30.8899 37.6316 30.943Z" fill="#784B26"/>
<path d="M32.1598 33.8467C31.8233 33.9215 31.7155 34.2059 31.613 34.4765C31.5143 34.7367 31.4206 34.9842 31.133 35.0201C30.5463 35.0934 30.2531 35.7534 30.3264 35.6801C30.6931 35.3867 31.4998 35.1667 32.0865 35.1667C32.3896 35.1667 32.5752 35.2646 32.7547 35.3593C32.9226 35.4478 33.085 35.5335 33.3331 35.5335C33.5812 35.5335 33.7437 35.4478 33.9115 35.3593C34.091 35.2646 34.2767 35.1667 34.5798 35.1667C35.1664 35.1667 35.9732 35.3867 36.3398 35.6801C36.4132 35.7534 36.1199 35.0934 35.5333 35.0201C35.2457 34.9842 35.1519 34.7367 35.0533 34.4765C34.9507 34.2059 34.8429 33.9215 34.5065 33.8467C34.5065 33.9863 34.5562 34.0428 34.6163 34.1111C34.6824 34.1864 34.7612 34.276 34.7996 34.5067C34.7996 34.8734 34.1398 34.8734 33.9931 34.5067C34.1398 35.0934 33.6998 35.0934 33.3331 35.0934C32.9665 35.0934 32.5265 35.0934 32.6732 34.5067C32.5265 34.8734 31.8666 34.8734 31.8666 34.5067C31.9051 34.276 31.9838 34.1864 32.05 34.1111C32.11 34.0428 32.1598 33.9863 32.1598 33.8467Z" fill="#784B26"/>
<path fill-rule="evenodd" clip-rule="evenodd" d="M29.8863 36.34C29.2996 36.78 29.1531 37.0001 29.0798 37.5134C29.2556 37.2056 29.342 37.0791 29.4755 36.8981C30.2498 37.2313 30.7355 37.493 31.1076 37.6934L31.1078 37.6936C31.8425 38.0893 32.1345 38.2467 33.333 38.2467C34.5316 38.2467 34.8236 38.0893 35.5583 37.6935C35.9304 37.4931 36.4161 37.2314 37.1906 36.8981C37.3241 37.0791 37.4106 37.2056 37.5865 37.5134C37.5131 37 37.3666 36.78 36.7799 36.34C36.952 36.5766 37.0383 36.6926 37.1094 36.7881L37.1096 36.7884C37.1307 36.8168 37.1506 36.8434 37.1709 36.8709C37.073 36.8846 36.9789 36.8994 36.8893 36.9152C36.4355 36.9168 35.8968 36.7352 35.4236 36.5757C35.0542 36.4511 34.7247 36.34 34.5065 36.34C34.1921 36.34 34.004 36.3821 33.8295 36.4212C33.6783 36.4551 33.5373 36.4866 33.3331 36.4866C33.1289 36.4866 32.9879 36.4551 32.8367 36.4212C32.6622 36.3821 32.4741 36.34 32.1597 36.34C31.9416 36.34 31.6121 36.4511 31.2427 36.5757C30.7694 36.7352 30.2308 36.9168 29.7769 36.9152C29.6874 36.8994 29.5932 36.8846 29.4953 36.8709C29.5154 36.8438 29.535 36.8175 29.5558 36.7895L29.5569 36.7881C29.6279 36.6926 29.7142 36.5767 29.8863 36.34ZM35.7438 37.2078C35.6558 37.2013 35.5607 37.1912 35.4514 37.1797L35.4332 37.1778C35.0329 37.1355 34.4428 37.0733 33.3331 37.0733C32.2233 37.0733 31.6333 37.1355 31.233 37.1778L31.2164 37.1795C31.1064 37.1911 31.0107 37.2012 30.9223 37.2078C30.9872 37.2288 31.0511 37.2498 31.1144 37.2706L31.1146 37.2707C31.7296 37.4732 32.2976 37.6601 33.333 37.6601C34.3685 37.6601 34.9363 37.4732 35.5514 37.2707C35.6148 37.2498 35.6788 37.2288 35.7438 37.2078Z" fill="#784B26"/>
<path d="M33.3331 38.9067C32.9664 38.9067 32.0131 39.1267 33.3331 39.1267C34.6531 39.1267 33.6997 38.9067 33.3331 38.9067Z" fill="#784B26"/>
</svg>
