<svg width="120" height="120" viewBox="0 0 120 120" fill="none" xmlns="http://www.w3.org/2000/svg">
<path d="M0 0H120V120H0V0Z" fill="#E23726"/>
<path d="M0 80H120V0H0V80Z" fill="#0F3296"/>
<path d="M0 0H120V40H0V0Z" fill="#FDD406"/>
<path d="M17 69.7234L21.5643 73.2861L23.704 70.5501L17 69.7234Z" fill="white"/>
<path d="M17 69.7234L22.7887 69.9254L22.6674 73.3953L17 69.7234Z" fill="white"/>
<path d="M22.645 65.9194L20.664 71.3571L23.9297 72.5446L22.645 65.9194Z" fill="white"/>
<path d="M22.645 65.9194L24.2416 71.4819L20.9009 72.4389L22.645 65.9194Z" fill="white"/>
<path d="M18.8769 76.2626L23.6788 73.0267L21.7354 70.1482L18.8769 76.2626Z" fill="white"/>
<path d="M18.8769 76.2626L20.8579 70.8248L24.1237 72.0123L18.8769 76.2626Z" fill="white"/>
<path d="M28.0107 70.1075L22.2221 69.9056L22.1008 73.3755L28.0107 70.1075Z" fill="white"/>
<path d="M28.0107 70.1075L23.2088 73.3434L21.2654 70.465L28.0107 70.1075Z" fill="white"/>
<path d="M25.6819 76.5L24.0853 70.9374L20.7446 71.8945L25.6819 76.5Z" fill="white"/>
<path d="M25.6819 76.5L21.1175 72.9373L23.2572 70.2013L25.6819 76.5Z" fill="white"/>
<path d="M25.2476 56.8404L28.317 61.7479L31.2643 59.908L25.2476 56.8404Z" fill="white"/>
<path d="M25.2476 56.8404L30.6181 59.0082L29.3162 62.2274L25.2476 56.8404Z" fill="white"/>
<path d="M31.8545 55.1947L28.1313 59.6276L30.7936 61.8594L31.8545 55.1947Z" fill="white"/>
<path d="M31.8545 55.1947L31.4505 60.9673L27.9836 60.7252L31.8545 55.1947Z" fill="white"/>
<path d="M24.7726 63.6266L30.3928 62.2266L29.552 58.8577L24.7726 63.6266Z" fill="white"/>
<path d="M24.7726 63.6266L28.4958 59.1937L31.1581 61.4255L24.7726 63.6266Z" fill="white"/>
<path d="M35.4628 60.9637L30.0924 58.796L28.7905 62.0152L35.4628 60.9637Z" fill="white"/>
<path d="M35.4628 60.9637L29.8427 62.3637L29.0019 58.9948L35.4628 60.9637Z" fill="white"/>
<path d="M31.086 66.1749L31.49 60.4023L28.0232 60.1601L31.086 66.1749Z" fill="white"/>
<path d="M31.086 66.1749L28.0166 61.2675L30.9638 59.4276L31.086 66.1749Z" fill="white"/>
<path d="M37.4203 47.1734L38.6246 52.8337L42.024 52.1118L37.4203 47.1734Z" fill="white"/>
<path d="M37.4203 47.1734L41.7248 51.0455L39.3994 53.6257L37.4203 47.1734Z" fill="white"/>
<path d="M44.1922 47.8845L39.176 50.7779L40.9137 53.7847L44.1922 47.8845Z" fill="white"/>
<path d="M44.1922 47.8845L41.8363 53.1709L38.6614 51.7587L44.1922 47.8845Z" fill="white"/>
<path d="M34.6508 53.388L40.4113 53.9929L40.7746 50.5399L34.6508 53.388Z" fill="white"/>
<path d="M34.6508 53.388L39.667 50.4946L41.4047 53.5015L34.6508 53.388Z" fill="white"/>
<path d="M45.6079 54.5385L41.3035 50.6665L38.978 53.2467L45.6079 54.5385Z" fill="white"/>
<path d="M45.6079 54.5385L39.8474 53.9337L40.2107 50.4807L45.6079 54.5385Z" fill="white"/>
<path d="M39.711 57.9399L42.0669 52.6535L38.892 51.2413L39.711 57.9399Z" fill="white"/>
<path d="M39.711 57.9399L38.5067 52.2796L41.9061 51.5577L39.711 57.9399Z" fill="white"/>
<path d="M51.9941 42L51.1879 47.7304L54.6295 48.2136L51.9941 42Z" fill="white"/>
<path d="M51.9941 42L54.7133 47.1094L51.6448 48.7394L51.9941 42Z" fill="white"/>
<path d="M58.1141 44.9821L52.4099 45.987L53.0134 49.4063L58.1141 44.9821Z" fill="white"/>
<path d="M58.1141 44.9821L54.0905 49.1447L51.5905 46.7329L58.1141 44.9821Z" fill="white"/>
<path d="M47.264 46.8935L52.47 49.4302L53.9935 46.3095L47.264 46.8935Z" fill="white"/>
<path d="M47.264 46.8935L52.9682 45.8886L53.5717 49.3079L47.264 46.8935Z" fill="white"/>
<path d="M57.1664 51.7186L54.4472 46.6092L51.3786 48.2393L57.1664 51.7186Z" fill="white"/>
<path d="M57.1664 51.7186L51.9604 49.1819L53.4839 46.0612L57.1664 51.7186Z" fill="white"/>
<path d="M50.4607 52.8999L54.4843 48.7373L51.9844 46.3254L50.4607 52.8999Z" fill="white"/>
<path d="M50.4607 52.8999L51.2668 47.1695L54.7084 47.6527L50.4607 52.8999Z" fill="white"/>
<path d="M103.02 69.7234L98.4557 73.2861L96.316 70.5501L103.02 69.7234Z" fill="white"/>
<path d="M103.02 69.7234L97.2313 69.9254L97.3526 73.3953L103.02 69.7234Z" fill="white"/>
<path d="M97.375 65.9194L99.356 71.3571L96.0903 72.5446L97.375 65.9194Z" fill="white"/>
<path d="M97.375 65.9194L95.7784 71.4819L99.1191 72.439L97.375 65.9194Z" fill="white"/>
<path d="M101.143 76.2626L96.3412 73.0267L98.2846 70.1482L101.143 76.2626Z" fill="white"/>
<path d="M101.143 76.2626L99.1621 70.8248L95.8963 72.0124L101.143 76.2626Z" fill="white"/>
<path d="M92.0093 70.1075L97.798 69.9056L97.9192 73.3755L92.0093 70.1075Z" fill="white"/>
<path d="M92.0093 70.1075L96.8112 73.3434L98.7546 70.465L92.0093 70.1075Z" fill="white"/>
<path d="M94.3381 76.5L95.9347 70.9374L99.2754 71.8945L94.3381 76.5Z" fill="white"/>
<path d="M94.3381 76.5L98.9025 72.9373L96.7628 70.2013L94.3381 76.5Z" fill="white"/>
<path d="M94.7724 56.8405L91.703 61.7479L88.7557 59.908L94.7724 56.8405Z" fill="white"/>
<path d="M94.7724 56.8405L89.4019 59.0082L90.7038 62.2274L94.7724 56.8405Z" fill="white"/>
<path d="M88.1655 55.1947L91.8886 59.6276L89.2264 61.8594L88.1655 55.1947Z" fill="white"/>
<path d="M88.1655 55.1947L88.5695 60.9674L92.0364 60.7252L88.1655 55.1947Z" fill="white"/>
<path d="M95.2474 63.6266L89.6272 62.2267L90.468 58.8578L95.2474 63.6266Z" fill="white"/>
<path d="M95.2474 63.6266L91.5242 59.1937L88.8619 61.4255L95.2474 63.6266Z" fill="white"/>
<path d="M84.5572 60.9638L89.9276 58.796L91.2295 62.0152L84.5572 60.9638Z" fill="white"/>
<path d="M84.5572 60.9638L90.1773 62.3637L91.0181 58.9948L84.5572 60.9638Z" fill="white"/>
<path d="M88.934 66.1749L88.53 60.4023L91.9968 60.1601L88.934 66.1749Z" fill="white"/>
<path d="M88.934 66.1749L92.0034 61.2675L89.0562 59.4276L88.934 66.1749Z" fill="white"/>
<path d="M82.5997 47.1734L81.3954 52.8337L77.996 52.1118L82.5997 47.1734Z" fill="white"/>
<path d="M82.5997 47.1734L78.2952 51.0455L80.6207 53.6257L82.5997 47.1734Z" fill="white"/>
<path d="M75.8278 47.8845L80.844 50.7779L79.1063 53.7847L75.8278 47.8845Z" fill="white"/>
<path d="M75.8278 47.8845L78.1837 53.1709L81.3586 51.7587L75.8278 47.8845Z" fill="white"/>
<path d="M85.3692 53.388L79.6087 53.9929L79.2454 50.5399L85.3692 53.388Z" fill="white"/>
<path d="M85.3692 53.388L80.353 50.4947L78.6153 53.5015L85.3692 53.388Z" fill="white"/>
<path d="M74.4121 54.5386L78.7166 50.6665L81.042 53.2467L74.4121 54.5386Z" fill="white"/>
<path d="M74.4121 54.5386L80.1726 53.9337L79.8093 50.4807L74.4121 54.5386Z" fill="white"/>
<path d="M80.309 57.9399L77.9531 52.6535L81.128 51.2413L80.309 57.9399Z" fill="white"/>
<path d="M80.309 57.9399L81.5133 52.2796L78.1139 51.5578L80.309 57.9399Z" fill="white"/>
<path d="M68.0259 42L68.8321 47.7304L65.3906 48.2136L68.0259 42Z" fill="white"/>
<path d="M68.0259 42L65.3067 47.1094L68.3752 48.7394L68.0259 42Z" fill="white"/>
<path d="M61.9059 44.9821L67.6101 45.987L67.0066 49.4063L61.9059 44.9821Z" fill="white"/>
<path d="M61.9059 44.9821L65.9295 49.1447L68.4295 46.7329L61.9059 44.9821Z" fill="white"/>
<path d="M72.756 46.8935L67.55 49.4302L66.0265 46.3096L72.756 46.8935Z" fill="white"/>
<path d="M72.756 46.8935L67.0518 45.8886L66.4483 49.3079L72.756 46.8935Z" fill="white"/>
<path d="M62.8535 51.7186L65.5728 46.6092L68.6414 48.2393L62.8535 51.7186Z" fill="white"/>
<path d="M62.8535 51.7186L68.0596 49.1819L66.5361 46.0612L62.8535 51.7186Z" fill="white"/>
<path d="M69.5593 52.8999L65.5357 48.7373L68.0356 46.3254L69.5593 52.8999Z" fill="white"/>
<path d="M69.5593 52.8999L68.7532 47.1695L65.3116 47.6527L69.5593 52.8999Z" fill="white"/>
</svg>
