<svg width="120" height="120" viewBox="0 0 120 120" fill="none" xmlns="http://www.w3.org/2000/svg">
<g clip-path="url(#clip0_307_74119)">
<path d="M0 0H120V120H0V0Z" fill="#D91C16"/>
<path d="M0 0H60V60H0V0Z" fill="#021455"/>
<path d="M31.5738 7.34361L30 2.5L28.4263 7.34361H23.3334L27.4536 10.3371L25.8798 15.1808L30 12.1872L34.1203 15.1808L32.5465 10.3371L36.6667 7.34361H31.5738Z" fill="white"/>
<path d="M11.6667 17.5L13.2405 22.3436H18.3333L14.2131 25.3371L15.7869 30.1808L11.6667 27.1872L7.54644 30.1808L9.12023 25.3371L5 22.3436H10.0929L11.6667 17.5Z" fill="white"/>
<path d="M30 41.649L31.9672 47.7036H38.3333L33.183 51.4455L35.1502 57.5L30 53.7581L24.8497 57.5L26.8169 51.4455L21.6666 47.7036H28.0327L30 41.649Z" fill="white"/>
<path d="M48.75 15L50.2254 19.5409H55L51.1373 22.3473L52.6127 26.8882L48.75 24.0818L44.8873 26.8882L46.3627 22.3473L42.5 19.5409H47.2746L48.75 15Z" fill="white"/>
<path d="M40.1503 33.4351L39.1667 30.4078L38.183 33.4351H35L37.5751 35.3061L36.5915 38.3333L39.1667 36.4624L41.7418 38.3333L40.7582 35.3061L43.3333 33.4351H40.1503Z" fill="white"/>
</g>
<defs>
<clipPath id="clip0_307_74119">
<rect width="120" height="120" fill="white"/>
</clipPath>
</defs>
</svg>
