<svg width="120" height="120" viewBox="0 0 120 120" fill="none" xmlns="http://www.w3.org/2000/svg">
<g clip-path="url(#clip0_324_30609)">
<path d="M0 0H120V120H0V0Z" fill="#0F3296"/>
<path d="M59.7461 38.027C60.449 38.8473 60.9195 39.667 60.9195 40.664C60.3294 40.9558 59.514 41.0749 59.0434 41.6022C61.9737 41.1911 62.5574 44.5889 65.8391 43.2995C65.9583 43.7701 66.4288 44.1808 67.0124 44.0033L67.3638 43.0674C68.6502 42.716 68.2988 44.8242 69.7101 44.4133C70.4134 45.0001 69.9429 45.9947 70.4134 46.7006C70.4134 47.5194 70.7651 48.2223 71.1161 48.925C71.4678 48.5171 71.6999 47.9303 72.5217 48.1062C73.1054 48.7494 73.576 49.3361 73.6947 50.0388C73.4566 51.3879 73.1052 52.5581 74.5108 53.2608V53.6717C75.4519 54.0826 77.5604 53.2608 77.5604 54.9017C77.4408 55.4884 78.1439 54.9613 78.3822 55.3126C78.966 55.0773 79.7878 55.1966 80.4904 55.1966C81.0742 56.4266 79.7878 57.3049 79.4363 58.4187C80.0199 59.0024 79.7878 60.0595 79.6686 60.759L79.317 60.9348C80.2519 61.1104 81.4252 60.8219 82.2475 61.3489L83.7722 61.9325C84.4748 61.5248 85.2909 61.4621 86.2318 61.5248C86.9347 62.052 85.9936 62.9303 86.5835 63.3382C87.4055 63.3382 88.1082 63.4576 88.2211 64.1605L88.3403 64.3926C88.924 63.3382 90.5679 64.0409 91.2708 63.282C92.444 63.282 92.6761 64.5684 93.2597 65.2713C93.4982 67.0908 91.2708 67.913 91.9734 69.7263C91.5029 70.6046 90.5679 71.3077 89.8652 72.1295C90.0973 72.2486 89.9779 72.5374 89.9779 72.713C89.2753 73.1273 89.8652 74.3571 88.9238 74.4704C88.8109 75.2356 87.4053 74.9408 87.8697 75.7626C88.8107 76.9926 87.4053 77.7519 87.4053 78.8687C86.8154 79.5149 85.6421 78.2788 85.6421 79.5149C84.9392 79.6905 84.2365 78.8687 83.7722 79.5716C83.5339 80.3937 84.2365 80.6822 84.1236 81.5042C85.2909 81.3849 85.6423 82.5584 86.1129 83.2612L87.2862 84.4345C86.1129 85.3695 84.588 84.3151 83.1822 84.8422C82.8308 84.6666 83.1822 84.2022 82.8308 84.0266C82.4793 83.6123 81.7766 83.6123 81.1931 83.4991C81.3061 84.0266 80.2519 84.202 80.7225 84.842C80.7225 85.0176 80.9546 85.5449 80.4902 85.5449C79.5491 85.8399 79.6684 84.7293 78.8462 85.137C77.7921 85.5449 78.6141 87.1263 77.0894 86.9504C77.3215 88.3624 74.7488 89.2974 76.5056 90.5273C76.7377 90.7596 76.6186 91.23 76.6186 91.5815C75.5642 92.5226 73.6941 92.1714 72.521 91.8197C71.5799 91.5815 72.1696 90.408 71.8184 89.768C71.4669 89.1782 70.4128 88.7703 70.4128 87.9483C69.7095 87.6593 69.1202 87.4781 68.6496 86.894C67.0119 88.4754 65.0171 90.0001 62.6759 90.0565C61.6218 90.5836 61.0321 92.6985 59.3942 91.8195C58.751 92.8741 56.8152 91.8195 56.699 93.3385C55.9367 93.6332 56.2881 94.6309 55.8207 95.0953C55.6449 96.2685 55.8207 97.2662 56.8152 97.9693C57.2261 98.8476 55.9367 98.8476 56.4637 99.6698C56.5831 99.9586 56.4637 100.372 56.2881 100.492C55.9367 100.667 55.8207 100.843 55.9367 101.195C55.6449 101.195 55.526 101.37 55.2934 101.602C54.9985 102.186 54.0635 102.481 53.4173 102.889C52.7741 103.064 52.3035 102.6 51.8956 102.186C51.7762 102.832 51.2494 103.184 50.6062 103.184C49.668 103.184 49.8438 102.362 49.1409 102.01C49.4327 100.956 48.4947 100.492 48.7895 99.5504C49.5516 98.9669 50.8383 98.5528 50.4868 97.3231C49.668 96.3314 49.9598 94.8632 49.1409 93.6899C48.6139 93.2255 47.7354 92.5228 48.0271 91.4058C48.7895 90.5276 48.0271 89.4732 47.6162 88.5382C47.4406 87.7729 46.973 87.0702 46.973 86.1915C45.6836 85.4324 45.6239 83.4369 43.8075 83.2612C42.518 83.2612 42.2857 81.6234 40.9963 81.7363C40.8772 81.5042 40.5854 81.3286 40.3501 81.0963C39.4152 81.7363 38.2419 80.9207 37.0714 81.2093C36.3091 79.9229 37.7146 78.1658 35.6629 77.4003V76.5847C35.8982 76.6974 36.0143 76.4651 36.0738 76.3462C36.1899 75.4677 34.6085 75.3547 35.2549 74.3569C34.9035 74.0621 34.4926 73.9427 34.7279 73.3592C33.8464 71.5457 31.2109 71.7216 30.6241 69.9019C31.0947 69.4942 31.0947 69.0799 31.2706 68.7286C30.8594 68.0257 30.7435 67.2664 30.8594 66.5072C31.2706 66.3879 31.5026 65.861 31.7379 65.4467C31.2109 65.0955 30.5675 64.5684 29.9809 64.744C28.9268 64.5684 28.1643 63.7526 27.2263 63.282C26.991 63.0497 27.1103 62.6358 27.1103 62.347C28.3995 61.9327 26.9347 60.1162 28.5159 60.3517C28.927 59.8247 29.8053 59.6488 30.4487 59.2379C31.0949 59.122 31.622 59.3571 32.2652 59.5329C32.7923 60.2326 33.7305 59.9408 34.2573 60.5273C34.7844 60.4082 35.4308 60.1162 36.074 60.4082C36.074 59.4135 36.5416 58.8268 37.2472 58.1239C37.3634 57.716 38.0066 57.4212 38.5337 57.1889C39.5315 57.4212 40.7018 57.4212 41.4077 56.7184C41.8753 57.0131 42.2862 56.4266 42.8132 56.4266C43.4562 56.3074 43.9835 56.4831 44.4541 56.778C44.5106 55.6046 46.5623 56.6022 46.9734 55.1966C47.441 54.2585 45.684 53.9072 45.8 53.0852C45.5082 52.147 46.2111 51.6796 46.5623 51.0364C46.9732 50.8606 47.4408 50.6255 47.9679 50.7415C49.317 50.2739 48.2626 47.5194 50.4308 48.5171C50.4308 48.8091 50.3116 49.1603 50.4872 49.22C51.2496 49.22 51.3666 48.3406 51.896 48.0467C52.1281 47.2279 51.6013 46.2302 52.3039 45.5868C52.6554 45.5273 52.9501 45.4112 53.1824 45.1162C53.1824 44.473 52.831 44.1218 52.3039 43.7107C52.1283 44.0035 51.6607 43.7703 51.3666 43.8865C51.3666 43.1836 50.9578 42.7162 50.8387 42.0698C50.4872 41.8942 50.3116 41.6024 50.4308 41.1913C50.9578 40.6642 50.4308 39.3748 51.6607 39.6672C52.1283 39.2587 52.9501 39.5504 53.4177 38.8476C54.6477 38.1449 56.2883 38.1449 57.2265 36.8555C57.6374 36.9149 58.105 36.504 58.5159 36.8555C58.6323 37.6176 59.7461 37.3226 59.7461 38.027Z" fill="#D3AE3B"/>
<path d="M51.6401 17.1599L53.2401 22.1399H58.4801L54.2401 25.2199L55.8601 30.1999L51.6401 27.1199L47.4001 30.1999L49.0201 25.2199L44.7801 22.1399H50.0201L51.6401 17.1599Z" fill="white"/>
<path d="M68.3601 17.1599L69.9801 22.1399H75.2201L70.9801 25.2199L72.6001 30.1999L68.3601 27.1199L64.1401 30.1999L65.7601 25.2199L61.5201 22.1399H66.7601L68.3601 17.1599Z" fill="white"/>
<path d="M84.8401 20.0799L86.4601 25.0399H91.7001L87.4601 28.1199L89.0801 33.0999L84.8401 30.0199L80.6201 33.0999L82.2401 28.1199L78.0001 25.0399H83.2401L84.8401 20.0799Z" fill="white"/>
<path d="M102.18 30.7599L100.58 25.7999L98.9601 30.7599H93.7201L97.9601 33.8399L96.3401 38.8199L100.58 35.7399L104.8 38.8199L103.18 33.8399L107.42 30.7599H102.18Z" fill="white"/>
<path d="M36.7601 25.0399L35.1601 20.0799L33.5401 25.0399H28.3001L32.5401 28.1199L30.9201 33.0999L35.1601 30.0199L39.3801 33.0999L37.7601 28.1199L42.0001 25.0399H36.7601Z" fill="white"/>
<path d="M19.4201 25.7999L21.0401 30.7599H26.2801L22.0401 33.8399L23.6601 38.8199L19.4201 35.7399L15.2001 38.8199L16.8201 33.8399L12.5801 30.7599H17.8201L19.4201 25.7999Z" fill="white"/>
</g>
<defs>
<clipPath id="clip0_324_30609">
<rect width="120" height="120" fill="white"/>
</clipPath>
</defs>
</svg>
