<svg width="48" height="48" viewBox="0 0 48 48" fill="none" xmlns="http://www.w3.org/2000/svg">
<path fill-rule="evenodd" clip-rule="evenodd" d="M40.732 4.248C40.0759 2.584 37.7239 2.584 37.072 4.248L36.214 6.42799L34.0459 7.28599C32.386 7.942 32.386 10.294 34.0459 10.95L36.214 11.81L37.0699 13.988C37.7239 15.652 40.0759 15.652 40.7299 13.988L41.5879 11.808L43.756 10.95C45.4159 10.294 45.4159 7.942 43.756 7.28599L41.5879 6.426L40.732 4.248ZM38.8999 5.05999L39.73 7.17C39.93 7.678 40.33 8.08 40.8379 8.28199L42.952 9.118L40.8379 9.95599C40.5871 10.0552 40.3593 10.2049 40.1686 10.3959C39.978 10.5868 39.8287 10.8149 39.73 11.066L38.8999 13.176L38.0719 11.066C37.9732 10.8149 37.824 10.5868 37.6333 10.3959C37.4427 10.2049 37.2148 10.0552 36.964 9.95599L34.8499 9.118L36.964 8.28199C37.2151 8.18259 37.443 8.03256 37.6336 7.84125C37.8243 7.64995 37.9735 7.42146 38.0719 7.17L38.8999 5.05999ZM32.9959 15.894C32.3419 14.228 29.9899 14.228 29.3359 15.894L29.026 16.68L28.246 16.99C26.586 17.646 26.586 19.998 28.246 20.656L29.026 20.964L29.3359 21.7519C29.9899 23.416 32.3419 23.416 32.9959 21.7519L33.306 20.964L34.086 20.656C35.746 19.998 35.746 17.646 34.086 16.99L33.306 16.68L32.9959 15.894ZM31.1659 16.704L31.4479 17.424C31.648 17.9299 32.0479 18.334 32.556 18.534L33.2839 18.822L32.556 19.11C32.3049 19.2094 32.0769 19.3594 31.8864 19.5507C31.6957 19.7421 31.5465 19.9705 31.4479 20.2219L31.1659 20.9419L30.8839 20.2219C30.7855 19.9705 30.6363 19.7421 30.4456 19.5507C30.255 19.3594 30.0271 19.2094 29.776 19.11L29.0479 18.822L29.776 18.534C30.0268 18.4348 30.2547 18.2851 30.4453 18.0942C30.636 17.9032 30.7852 17.6751 30.8839 17.424L31.1659 16.704Z"/>
<path fill-rule="evenodd" clip-rule="evenodd" d="M22.034 5.60401C18.5625 5.97519 15.2669 7.32112 12.528 9.48625C9.78917 11.6514 7.71889 14.5473 6.55644 17.8393C5.39398 21.1315 5.1868 24.6853 5.95885 28.0902C6.7309 31.495 8.45065 34.6119 10.9194 37.0806C13.3881 39.5493 16.505 41.269 19.9098 42.0411C23.3147 42.8131 26.8685 42.606 30.1607 41.4435C33.4527 40.2811 36.3486 38.2108 38.5137 35.472C40.6788 32.7331 42.0248 29.4375 42.396 25.966C41.1288 27.5761 39.5348 28.8994 37.7189 29.8486C35.903 30.7978 33.9065 31.3513 31.8611 31.4728C29.8157 31.5943 27.7679 31.2808 25.8524 30.5532C23.9369 29.8255 22.1975 28.7002 20.7486 27.2514C19.2998 25.8025 18.1745 24.063 17.4468 22.1476C16.7192 20.2321 16.4057 18.1843 16.5272 16.1389C16.6485 14.0935 17.2022 12.097 18.1514 10.2812C19.1006 8.46531 20.4239 6.87123 22.034 5.60401ZM2.5 24C2.5 12.126 12.126 2.5 24 2.5C25.434 2.5 26.15 3.64201 26.274 4.552C26.3921 5.428 26.0681 6.54201 25.062 7.15C23.5679 8.05173 22.2986 9.28165 21.3503 10.7466C20.402 12.2116 19.7994 13.8732 19.5885 15.6055C19.3775 17.3377 19.5635 19.0954 20.1326 20.7451C20.7015 22.395 21.6384 23.8936 22.8725 25.1275C24.1064 26.3616 25.605 27.2985 27.2549 27.8674C28.9046 28.4364 30.6623 28.6225 32.3945 28.4115C34.1268 28.2004 35.7884 27.598 37.2534 26.6497C38.7183 25.7014 39.9483 24.4321 40.85 22.938C41.4581 21.9319 42.572 21.6079 43.448 21.726C44.358 21.85 45.5 22.566 45.5 24C45.5 35.874 35.874 45.4999 24 45.4999C12.126 45.4999 2.5 35.874 2.5 24Z" />
</svg>
