<svg width="48" height="48" viewBox="0 0 48 48" fill="none" xmlns="http://www.w3.org/2000/svg">
<path d="M25.5 4C25.5 3.17158 24.8284 2.5 24 2.5C23.1716 2.5 22.5 3.17158 22.5 4V6.00001C22.5 6.82843 23.1716 7.5 24 7.5C24.8284 7.5 25.5 6.82843 25.5 6.00001V4Z"/>
<path d="M10.9186 8.79735C10.3328 8.21155 9.3831 8.21155 8.79731 8.79735C8.21153 9.38313 8.21153 10.3329 8.79731 10.9187L9.58331 11.7047C10.1691 12.2905 11.1188 12.2905 11.7046 11.7047C12.2904 11.1189 12.2904 10.1691 11.7046 9.58335L10.9186 8.79735Z"/>
<path d="M39.2021 10.9193C39.7871 10.3328 39.7859 9.38305 39.1994 8.79801C38.6127 8.21296 37.6631 8.21418 37.0779 8.80071L36.294 9.58671C35.709 10.1732 35.7102 11.123 36.2967 11.708C36.8832 12.2931 37.833 12.2919 38.418 11.7053L39.2021 10.9193Z"/>
<path d="M4 22.5C3.17157 22.5 2.5 23.1716 2.5 24C2.5 24.8284 3.17157 25.5 4 25.5H6C6.82842 25.5 7.5 24.8284 7.5 24C7.5 23.1716 6.82842 22.5 6 22.5H4Z"/>
<path d="M42 22.5C41.1716 22.5 40.5 23.1716 40.5 24C40.5 24.8284 41.1716 25.5 42 25.5H43.9999C44.8284 25.5 45.4999 24.8284 45.4999 24C45.4999 23.1716 44.8284 22.5 43.9999 22.5H42Z"/>
<path d="M38.418 36.2948C37.833 35.7081 36.8832 35.7069 36.2967 36.292C35.7102 36.877 35.709 37.8268 36.294 38.4133L37.0779 39.1993C37.6631 39.7858 38.6127 39.7871 39.1994 39.2021C39.7859 38.6169 39.7871 37.6673 39.2021 37.0808L38.418 36.2948Z"/>
<path d="M11.7046 38.4167C12.2904 37.8309 12.2904 36.8811 11.7046 36.2954C11.1188 35.7096 10.1691 35.7096 9.58331 36.2954L8.79731 37.0814C8.21153 37.6671 8.21153 38.6169 8.79731 39.2027C9.3831 39.7884 10.3328 39.7884 10.9186 39.2027L11.7046 38.4167Z"/>
<path d="M25.5 42C25.5 41.1716 24.8284 40.5 24 40.5C23.1716 40.5 22.5 41.1716 22.5 42V43.9999C22.5 44.8284 23.1716 45.4999 24 45.4999C24.8284 45.4999 25.5 44.8284 25.5 43.9999V42Z"/>
<path fill-rule="evenodd" clip-rule="evenodd" d="M24 10.5C16.5441 10.5 10.5 16.5441 10.5 24C10.5 31.4559 16.5441 37.5 24 37.5C31.4559 37.5 37.5 31.4559 37.5 24C37.5 16.5441 31.4559 10.5 24 10.5ZM13.5 24C13.5 18.201 18.201 13.5 24 13.5C29.799 13.5 34.5 18.201 34.5 24C34.5 29.799 29.799 34.5 24 34.5C18.201 34.5 13.5 29.799 13.5 24Z"/>
</svg>
