<svg width="240" height="120" viewBox="0 0 240 120" fill="none" xmlns="http://www.w3.org/2000/svg">
<g clip-path="url(#clip0_909_264772)">
<rect width="240" height="120" fill="#021455"/>
<path d="M156.96 31.2002C156.96 61.4024 160.462 71.8092 167.473 78.82C171.654 82.9709 173.508 84.5329 180 88.8002C186.492 84.5329 188.346 82.9709 192.527 78.82C199.538 71.8092 203.04 61.4024 203.04 31.2002C197.941 33.3835 195.035 34.442 190.83 34.3772C187.068 34.3194 183.083 32.5723 180 31.2002C176.918 32.5723 172.932 34.3193 169.17 34.3772C164.965 34.442 162.059 33.3835 156.96 31.2002Z" fill="white"/>
<path d="M162.74 72.4111C164.084 74.962 165.66 77.0069 167.473 78.8199C171.655 82.9708 173.508 84.5327 180 88.8C186.492 84.5327 188.346 82.9708 192.527 78.8199C194.34 77.0069 195.917 74.962 197.26 72.4111H162.74Z" fill="#54AEF2"/>
<path d="M156 30C156 61.4607 159.648 72.3012 166.951 79.6041C171.306 83.9279 173.237 85.5548 180 90C186.763 85.5548 188.694 83.9279 193.049 79.6041C200.352 72.3012 204 61.4607 204 30C198.688 32.2743 195.661 33.3768 191.281 33.3094C187.363 33.249 183.211 31.4293 180 30C176.789 31.4293 172.637 33.249 168.719 33.3094C164.339 33.3769 161.312 32.2743 156 30ZM157.44 31.68C162.433 33.8269 165.278 34.8679 169.396 34.8042C173.079 34.7472 176.982 33.0292 180 31.68C183.018 33.0292 186.921 34.7473 190.604 34.8042C194.722 34.8679 197.567 33.8269 202.56 31.68C202.56 61.3789 199.131 71.6123 192.266 78.5062C188.172 82.588 186.357 84.1238 180 88.32C173.643 84.1238 171.828 82.588 167.734 78.5062C160.869 71.6123 157.44 61.3789 157.44 31.68Z" fill="#FDD406"/>
<path fill-rule="evenodd" clip-rule="evenodd" d="M184.551 50.9632C183.17 49.6109 181.436 47.9118 180.727 46.3213C180.201 45.0885 183.49 46.6084 184.573 47.4121C185.623 48.0949 185.965 48.1056 186.669 48.1275C187.13 48.1419 187.747 48.1611 188.822 48.3781C192.011 49.0218 193.536 51.3047 195.016 53.5209C195.195 53.789 195.373 54.0561 195.554 54.3193C195.782 54.6342 196.212 54.8434 196.717 55.0886C197.767 55.5987 199.137 56.2646 199.673 58.3628C198.08 57.5106 196.772 57.1078 195.462 57.6939C195.3 59.3986 193.58 60.8933 191.806 62.4346C190.13 63.8914 188.406 65.3898 187.904 67.1465C187.814 67.417 187.761 67.818 187.703 68.2602C187.549 69.4307 187.357 70.8902 186.331 70.9844C185.999 70.1572 186.139 69.305 186.264 68.5352C186.395 67.7342 186.512 67.0224 186.068 66.521C185.43 66.3526 184.735 66.5028 184.022 66.6566C182.949 66.8885 181.837 67.1288 180.821 66.3009C182.759 65.3712 183.555 65.3342 184.231 65.3028C184.841 65.2745 185.353 65.2507 186.519 64.5823C188.978 63.2604 191.421 57.1801 188.446 54.349C187.219 54.0605 187.069 54.2115 185.497 55.7942C185.328 55.9645 185.142 56.1513 184.937 56.3559C184.799 54.2355 184.964 54.065 185.806 53.1955C185.933 53.0641 186.076 52.9167 186.235 52.7442C185.906 52.291 185.277 51.6752 184.551 50.9632ZM188.532 49.0827C188.532 49.3805 188.279 49.6219 187.966 49.6219C187.654 49.6219 187.401 49.3805 187.401 49.0827C187.401 48.785 187.654 48.5436 187.966 48.5436C188.279 48.5436 188.532 48.785 188.532 49.0827Z" fill="#F4812F"/>
<path fill-rule="evenodd" clip-rule="evenodd" d="M174.569 51.2295C173.96 53.0248 173.195 55.2804 172.051 56.6213C171.153 57.6409 171.026 54.1579 171.266 52.8698C171.409 51.6657 171.259 51.3725 170.95 50.769C170.748 50.3732 170.477 49.8439 170.177 48.8365C169.284 45.8479 170.689 43.4963 172.053 41.2134C172.218 40.9373 172.382 40.6621 172.542 40.3869C172.727 40.0474 172.72 39.5867 172.712 39.0469C172.695 37.9237 172.672 36.4575 174.368 35.0259C174.321 36.7661 174.559 38.0574 175.714 38.8873C177.371 38.2278 179.561 38.9794 181.819 39.7545C183.953 40.487 186.148 41.2405 188.012 40.843C188.305 40.7926 188.701 40.6498 189.138 40.4922C190.296 40.0751 191.739 39.5551 192.306 40.3762C191.693 41.0417 190.838 41.3225 190.065 41.5762C189.261 41.84 188.547 42.0745 188.289 42.6825C188.431 43.2992 188.895 43.8151 189.371 44.3438C190.087 45.1402 190.83 45.9656 190.536 47.2085C188.768 46.0087 188.363 45.3555 188.017 44.8001C187.707 44.2996 187.445 43.8785 186.281 43.2084C183.906 41.7528 177.125 42.5337 175.89 46.3648C176.195 47.5334 176.406 47.5893 178.608 48.1752C178.845 48.2382 179.105 48.3073 179.39 48.3847C177.488 49.4919 177.253 49.4324 176.053 49.1288C175.872 49.083 175.669 49.0315 175.434 48.9777C175.168 49.4668 174.89 50.2844 174.569 51.2295ZM170.966 48.7522C171.242 48.6131 171.584 48.7137 171.73 48.977C171.876 49.2403 171.77 49.5665 171.494 49.7056C171.218 49.8447 170.876 49.7441 170.73 49.4808C170.584 49.2175 170.69 48.8913 170.966 48.7522Z" fill="#F4812F"/>
<path fill-rule="evenodd" clip-rule="evenodd" d="M180.092 58.7947C182.019 58.3632 184.44 57.821 186.235 58.0606C187.615 58.2654 184.554 60.1708 183.274 60.6417C182.119 61.148 181.933 61.422 181.551 61.9858C181.3 62.3556 180.965 62.8502 180.216 63.6168C177.995 65.891 175.158 65.9611 172.403 66.0292C172.07 66.0374 171.738 66.0457 171.408 66.0577C171.007 66.082 170.597 66.3261 170.117 66.6121C169.118 67.2073 167.813 67.9842 165.651 67.3411C167.237 66.479 168.273 65.617 168.421 64.2451C166.972 63.2345 166.514 61.059 166.042 58.8158C165.595 56.6955 165.136 54.5147 163.815 53.1998C163.618 52.9867 163.285 52.7371 162.917 52.4619C161.944 51.7332 160.731 50.8247 161.175 49.9375C162.089 50.0929 162.784 50.6456 163.411 51.1448C164.064 51.6643 164.644 52.1259 165.323 52.0219C165.803 51.587 166.026 50.9415 166.255 50.28C166.599 49.2835 166.956 48.2507 168.223 47.8472C168.061 49.9102 167.684 50.5792 167.364 51.148C167.076 51.6606 166.833 52.0919 166.834 53.3885C166.756 56.0792 170.964 61.2074 175.042 60.2336C175.933 59.3799 175.875 59.1795 175.261 57.0796C175.195 56.8538 175.123 56.6059 175.045 56.3329C177.023 57.3119 177.091 57.5346 177.439 58.6705C177.491 58.8422 177.55 59.0347 177.623 59.2539C178.2 59.2183 179.078 59.0218 180.092 58.7947ZM179.732 63.0165C179.465 62.8631 179.378 62.5319 179.539 62.2766C179.7 62.0214 180.047 61.9388 180.315 62.0922C180.583 62.2455 180.669 62.5768 180.509 62.832C180.348 63.0873 180 63.1699 179.732 63.0165Z" fill="#F4812F"/>
<g clip-path="url(#clip1_909_264772)">
<path d="M0 0V60H120V0H0Z" fill="#021455"/>
<path d="M13.4165 0L60 23.2915L106.583 0H120V6.70801L73.4165 30L120 53.2915V60H106.583L60 36.708L13.4165 60H0V53.2915L46.5835 30L0 6.70801V0H13.4165Z" fill="white"/>
<path d="M60 34.4722L8.94434 60H0L60 30V34.4722Z" fill="#D91C16"/>
<path d="M68.9443 30L120 55.5278V60L60 30H68.9443Z" fill="#D91C16"/>
<path d="M60 30V25.5278L111.056 0H120L60 30Z" fill="#D91C16"/>
<path d="M60 30H51.0557L0 4.47217V0L60 30Z" fill="#D91C16"/>
<path d="M70 0V20H120V40H70V60H50V40H0V20H50V0H70Z" fill="white"/>
<path d="M66 0V24H120V36H66V60H54V36H0V24H54V0H66Z" fill="#D91C16"/>
</g>
</g>
<defs>
<clipPath id="clip0_909_264772">
<rect width="240" height="120" fill="white"/>
</clipPath>
<clipPath id="clip1_909_264772">
<rect width="120" height="60" fill="white"/>
</clipPath>
</defs>
</svg>
