<svg width="240" height="120" viewBox="0 0 240 120" fill="none" xmlns="http://www.w3.org/2000/svg">
<path d="M0 0H240V120H0V0Z" fill="#005801"/>
<path d="M0 0H120V45H0V0Z" fill="#FF7E3D"/>
<path d="M240 53.5H0V61.7857H240V53.5Z" fill="white"/>
<path d="M240 70.0714H0V78.3571H240V70.0714Z" fill="white"/>
<path d="M0 86.6429H240V94.9286H0V86.6429Z" fill="white"/>
<path d="M240 103.214H0V111.5H240V103.214Z" fill="white"/>
<path d="M190.618 10.9232C192.979 7.69694 196.304 5.30411 200.114 4.08984C198.021 5.70135 196.326 7.77061 195.157 10.139C193.988 12.5074 193.377 15.1119 193.371 17.753C193.371 20.0246 193.818 22.2739 194.687 24.3726C195.556 26.4712 196.831 28.3781 198.437 29.9844C200.043 31.5906 201.95 32.8647 204.049 33.734C206.147 34.6033 208.397 35.0507 210.668 35.0507C212.971 35.0481 215.251 34.5855 217.373 33.6902C219.495 32.7949 221.417 31.4849 223.025 29.8369C221.528 33.1379 219.111 35.9378 216.064 37.9015C213.017 39.8653 209.469 40.91 205.845 40.9106C200.84 40.9106 196.04 38.9225 192.502 35.3837C188.963 31.8449 186.975 27.0453 186.975 22.0407C186.981 18.0425 188.256 14.1495 190.618 10.9232Z" fill="white"/>
<path d="M215.884 11.2276L212.848 7.81184L213.296 12.3598L209.109 14.1917L213.573 15.1705L214.022 19.7186L216.332 15.7754L220.796 16.7541L217.76 13.3386L220.071 9.39558L215.884 11.2276Z" fill="white"/>
</svg>
