<svg width="240" height="120" viewBox="0 0 240 120" fill="none" xmlns="http://www.w3.org/2000/svg">
<g clip-path="url(#clip0_909_280720)">
<path d="M0 0H240V120H0V0Z" fill="#D91C16"/>
<path fill-rule="evenodd" clip-rule="evenodd" d="M105.25 24.575C105.225 23.7 107.15 23.325 108.3 23.325H108.325C109.365 23.4384 110.379 23.7257 111.325 24.1749C112.908 24.6782 114.544 24.997 116.2 25.125C115.502 25.7064 115.18 25.9235 114.734 26.2238C114.509 26.3755 114.252 26.5483 113.9 26.7999C115.245 27.311 116.416 28.1957 117.275 29.35C116.808 29.3666 116.447 29.3666 116.155 29.3666C115.572 29.3666 115.266 29.3666 114.95 29.5C116.875 30.0499 117.775 30.375 118.775 31.4C118.4 31.45 117.875 31.5499 117.65 31.65C117.425 31.75 117.5 31.85 117.675 32C117.914 32.1692 118.56 32.8792 119.167 33.5469C119.636 34.063 120.082 34.5538 120.3 34.75C120.518 34.5538 120.964 34.063 121.433 33.5469C122.04 32.8792 122.685 32.1692 122.925 32C123.1 31.85 123.175 31.75 122.95 31.65C122.725 31.5499 122.2 31.45 121.825 31.4C122.825 30.375 123.725 30.0499 125.65 29.5C125.333 29.3666 125.028 29.3666 124.444 29.3666C124.153 29.3666 123.792 29.3666 123.325 29.35C124.184 28.1957 125.355 27.311 126.7 26.7999C126.348 26.5483 126.091 26.3755 125.866 26.2238C125.42 25.9235 125.098 25.7064 124.4 25.125C126.056 24.997 127.692 24.6782 129.275 24.1749C130.22 23.7257 131.234 23.4384 132.275 23.325H132.3C133.45 23.325 135.375 23.7 135.35 24.575C138.6 24.05 138.925 25.375 138.725 26.575C138.425 26.1 138.05 25.8249 137.75 25.7999C137.325 25.7249 136.875 25.875 136.4 26.15C135.952 26.431 135.548 26.7764 135.2 27.1749C136.294 27.4367 137.162 27.2908 138.019 27.1468C138.063 27.1395 138.106 27.1322 138.15 27.125C138.658 27.0166 139.142 26.813 139.575 26.525C139.803 26.3727 139.939 26.2204 140.14 25.9947C140.269 25.8498 140.425 25.6747 140.65 25.45C141.325 24.75 142.05 24.9499 141.825 26.025C141.3 27.025 140.425 27.4749 139.325 27.6749C139.209 27.6915 139.079 27.713 138.938 27.7364C138.441 27.8188 137.801 27.9249 137.1 27.9249C136.79 27.9249 136.468 27.9101 136.157 27.8958C135.565 27.8685 135.01 27.843 134.65 27.9249C134.719 27.9676 134.791 28.0182 134.868 28.0727C135.152 28.2735 135.51 28.5266 136.1 28.625C136.605 28.7259 137.28 28.487 137.881 28.2742C138.172 28.171 138.446 28.074 138.675 28.025C138.6 28.5999 137.85 29.15 136.4 29.45L136.225 29.4864C133.904 29.9697 131.993 30.3676 130.7 31.075C129.652 31.6592 128.727 32.4401 127.975 33.375C126.909 34.6227 126.748 35.6234 126.69 35.9848C126.684 36.0216 126.679 36.0518 126.675 36.075C126.425 38.275 127.2 39.5249 128.65 39.9249C129.35 40.0999 130.65 39.75 131.1 39.2C131.6 38.65 132.025 37.7 131.9 36.2C131.873 36.0831 131.823 35.9223 131.766 35.7386C131.553 35.0574 131.242 34.0612 131.675 33.825C134.282 32.3924 136.979 31.1314 139.75 30.0499C140.375 29.7999 140.875 30.65 141.075 31C142.921 30.7426 144.686 30.0774 146.243 29.0525C147.8 28.0276 149.109 26.6689 150.075 25.075C151.125 23.175 152.9 25.0749 152.6 26.9C152.125 28.9 150.6 30.3499 148.75 31.4C146.875 32.4249 144.5 33.45 142.125 33.4C140.825 33.65 140.85 35.2999 142.375 35.625C145.4 35.625 147.825 35.575 150.1 33.375C151.825 31.7999 152.775 33.6749 152.3 34.7249C151.45 37.9999 146.775 38.9249 142.05 37.875C140.2 37.575 141.3 39.5249 141.8 39.5499C143.8 40.9749 147.325 42.3499 150.45 39.5499C151.875 38.45 152.85 39.3499 152.3 40.9249C150.925 45.0499 145.625 44.1749 142 42.1749C141.075 41.6499 140.225 42.85 141.35 43.775C145.875 46.9249 148.125 46.975 150.175 45.775C152.725 44.75 152.925 47.575 151.425 48.525C149.75 49.525 145.475 48.775 142.325 46.775C140.975 45.775 140.925 47.3499 141.775 47.9749C145.5 51.2 146.975 52.0499 150.85 51.525C152.775 51.375 152.75 53.75 151.25 54.6749C149.175 55.95 145.125 53.8499 142 51.2249C140.675 50.5249 140.45 51.6749 141.1 53.0499C142.484 55.0081 144.365 56.5616 146.55 57.5499C148.3 58.2249 149.95 58.125 151.125 57.7249C152.575 57.2249 152.75 58.725 151.95 60.075C151.475 60.9 149.5 61.15 147.35 60.4C145.2 59.65 142.9 57.85 141.325 55.775C139.95 54.5499 140.1 56.1749 140.75 57.325C143.9 62.325 146.8 64.1749 150.625 63.875C152.3 63.575 152.7 64.875 151.625 66.125C149.725 67.6749 147.375 67.6249 145.275 66.075C143.45 64.325 139.925 60.4749 138.075 58.4249C136.775 57.3999 136.35 58.425 136.75 60.525C137.1 61.725 137.95 63.0249 140.325 63.9249C141.95 64.8499 140.725 66.125 139.525 66.175C138.85 66.175 137.5 65.375 136.45 64.2249C135.348 62.9593 135.079 62.0437 134.609 60.4436C134.503 60.0842 134.387 59.6902 134.25 59.25C133.55 58.0999 132.275 58.6499 132.275 59.8499C132.9 62.25 133.4 62.675 134.65 63.65C135.825 64.7749 133.825 65.1499 133.15 64.675C131.217 63.3867 130.513 61.7056 129.867 60.1669L129.85 60.125C129.35 59.025 128 59.5499 128.65 61.375C130.15 65.7249 132.65 67.4249 136.975 68.325C137.4 68.3999 137.675 68.6499 137.525 69.1499L135.775 70.8999C137.304 71.3573 138.67 71.7002 140.064 72.0503C141.108 72.3125 142.168 72.5787 143.325 72.8999L147.025 70.45C147.06 70.3623 147.094 70.2692 147.129 70.1741C147.41 69.4015 147.739 68.4958 149.475 69.2749C150.775 68.675 151.4 68.8999 152.125 69.5249C151.075 69.5249 150.625 69.825 150.2 70.3C149.65 71.725 148.4 71.875 147.125 71.4749C146.712 71.8128 146.399 72.1193 146.083 72.4289C145.768 72.738 145.449 73.0503 145.025 73.3999L149.2 73.2749C150.7 71.7 151.85 71.7749 152.9 73.0249C152.942 73.0313 152.983 73.0374 153.023 73.0433C153.759 73.1525 154.078 73.1999 154.6 74.125C153.75 73.7749 153.2 73.675 152.825 74.05C151.25 74.975 150.225 74.7749 149.45 74.05L145.075 74.325C145.377 74.5992 145.738 74.7983 146.099 74.9964C146.395 75.1594 146.69 75.3218 146.95 75.5249C149.2 74.875 150.4 75.7749 150.8 77.5999C151.116 78.3315 151.22 79.1372 151.1 79.925C150.9 79.175 150.525 78.55 149.875 78.175C147.875 78.675 147.125 77.85 147 76.6499C146.503 76.2524 145.895 76.0092 145.289 75.767C144.676 75.5217 144.065 75.2774 143.575 74.875C142.898 75.0809 142.429 75.2436 141.923 75.4191C141.57 75.5417 141.198 75.6706 140.725 75.825C140.325 77.075 139.4 77.5499 137.9 77.2249C136.466 77.2659 136.408 77.7767 136.352 78.2761C136.339 78.3864 136.327 78.496 136.3 78.5999C135.8 77.7749 135.825 76.95 136.925 76.2C137.325 75.1249 138.225 74.625 139.375 75.25C139.936 75.0968 140.283 74.9046 140.634 74.7098C140.971 74.5231 141.311 74.334 141.85 74.175C140.475 73.7375 139.3 73.4687 138.125 73.2C136.95 72.9312 135.775 72.6624 134.4 72.2249L132.475 73.925C132.1 74.1499 131.75 74.2 131.525 73.925C130.815 72.8958 130.266 71.9218 129.755 71.0168C129.026 69.7233 128.377 68.5707 127.45 67.5999C127.425 67.5719 127.4 67.5435 127.374 67.5149C126.763 66.8289 126.016 65.9909 125.2 65.7749C124.775 65.6499 124.25 65.7249 123.9 66.0999C123.575 66.45 123.3 67.125 123.4 68.1499C123.544 69.3265 123.808 69.8554 124.121 70.4825C124.187 70.6149 124.255 70.7517 124.325 70.8999C124.676 71.6224 125.061 72.1063 125.48 72.633C125.568 72.7442 125.658 72.8573 125.75 72.9749C126.633 74.1449 127.789 74.886 128.598 75.4048C128.705 75.4736 128.806 75.5385 128.9 75.5999C130.144 76.3971 130.814 76.3021 131.638 76.1852C131.874 76.1518 132.122 76.1166 132.4 76.0999C134 76.2749 134.4 77.0499 133.1 78.125C131.9 78.7749 130.8 78.85 129.9 78.675C129.335 78.562 128.685 77.9811 128.121 77.477C127.936 77.3117 127.76 77.1546 127.6 77.0249C126.9 76.2 125.7 77.175 126.525 78.1499C128 79.8999 129.45 81.05 131.275 81.0249C133.2 81.2749 132.825 82.3499 131.575 82.875C129.275 83.7999 127.225 82.0499 126.175 80.875C125.375 80 124.8 79.9749 124.925 81.3499C125.75 83.825 126.825 84.7749 128.625 84.8999C130.075 84.75 130.1 85.8999 129.025 86.6499C126.625 88.2999 124.875 85.45 124.05 83.75C123.475 82.2 122.575 82.9249 122.475 84.2C122.475 85.9249 123.225 87.3 125.3 89.05C124.512 90.3125 123.656 91.5875 122.8 92.8625C121.944 94.1375 121.087 95.4125 120.3 96.675C119.512 95.4125 118.656 94.1375 117.8 92.8625C116.944 91.5875 116.087 90.3125 115.3 89.05C117.375 87.3 118.125 85.9249 118.125 84.2C118.025 82.9249 117.125 82.2 116.55 83.75C115.725 85.45 113.975 88.2999 111.575 86.6499C110.5 85.8999 110.525 84.75 111.975 84.8999C113.775 84.7749 114.85 83.825 115.675 81.3499C115.8 79.9749 115.225 80 114.425 80.875C113.375 82.0499 111.325 83.7999 109.025 82.875C107.775 82.3499 107.4 81.2749 109.325 81.0249C111.15 81.05 112.6 79.8999 114.075 78.1499C114.9 77.175 113.7 76.2 113 77.0249C112.839 77.1546 112.664 77.3117 112.479 77.477C111.914 77.9811 111.265 78.562 110.7 78.675C109.8 78.85 108.7 78.7749 107.5 78.125C106.2 77.0499 106.6 76.2749 108.2 76.0999C108.478 76.1166 108.726 76.1518 108.961 76.1852C109.786 76.3021 110.455 76.3971 111.7 75.5999C111.793 75.5385 111.895 75.4736 112.002 75.4048C112.811 74.886 113.967 74.1449 114.85 72.9749C114.941 72.8573 115.031 72.7442 115.12 72.633C115.539 72.1063 115.924 71.6224 116.275 70.8999C116.344 70.7517 116.413 70.6149 116.479 70.4825C116.791 69.8554 117.055 69.3265 117.2 68.1499C117.3 67.125 117.025 66.45 116.7 66.0999C116.35 65.7249 115.825 65.6499 115.4 65.7749C114.584 65.9909 113.837 66.8289 113.226 67.5149C113.2 67.5435 113.175 67.5719 113.15 67.5999C112.223 68.5707 111.573 69.7233 110.844 71.0168C110.334 71.9218 109.785 72.8958 109.075 73.925C108.85 74.2 108.5 74.1499 108.125 73.925L106.2 72.2249C104.825 72.6624 103.65 72.9312 102.475 73.2C101.3 73.4687 100.125 73.7375 98.7498 74.175C99.2882 74.334 99.629 74.5231 99.9656 74.7098C100.317 74.9046 100.663 75.0968 101.225 75.25C102.375 74.625 103.275 75.1249 103.675 76.2C104.775 76.95 104.8 77.7749 104.3 78.5999C104.273 78.496 104.26 78.3864 104.248 78.2761C104.191 77.7767 104.133 77.2659 102.7 77.2249C101.2 77.5499 100.275 77.075 99.8748 75.825C99.4015 75.6706 99.0299 75.5417 98.6763 75.4191C98.1705 75.2436 97.7015 75.0809 97.0248 74.875C96.5342 75.2774 95.9235 75.5217 95.3103 75.767C94.7047 76.0092 94.0967 76.2524 93.5998 76.6499C93.4748 77.85 92.7248 78.675 90.7248 78.175C90.0748 78.55 89.6998 79.175 89.4998 79.925C89.3798 79.1372 89.4838 78.3315 89.7998 77.5999C90.1998 75.7749 91.3998 74.875 93.6498 75.5249C93.9093 75.3218 94.2046 75.1594 94.501 74.9964C94.8611 74.7983 95.223 74.5992 95.5248 74.325L91.1498 74.05C90.3748 74.7749 89.3498 74.975 87.7748 74.05C87.3998 73.675 86.8498 73.7749 85.9998 74.125C86.5216 73.1999 86.8409 73.1525 87.5769 73.0433C87.6166 73.0374 87.6575 73.0313 87.6998 73.0249C88.7498 71.7749 89.8998 71.7 91.3998 73.2749L95.5748 73.3999C95.1501 73.0503 94.8316 72.738 94.5162 72.4289C94.2003 72.1193 93.8876 71.8128 93.4748 71.4749C92.1998 71.875 90.9498 71.725 90.3998 70.3C89.9748 69.825 89.5248 69.5249 88.4748 69.5249C89.1998 68.8999 89.8248 68.675 91.1248 69.2749C92.8611 68.4958 93.1901 69.4015 93.4708 70.1741C93.5053 70.2692 93.5391 70.3623 93.5748 70.45L97.2748 72.8999C98.4312 72.5787 99.4914 72.3125 100.536 72.0503C101.93 71.7002 103.296 71.3573 104.825 70.8999L103.075 69.1499C102.925 68.6499 103.2 68.3999 103.625 68.325C107.95 67.4249 110.45 65.7249 111.95 61.375C112.6 59.5499 111.25 59.025 110.75 60.125L110.732 60.1669C110.087 61.7056 109.382 63.3867 107.45 64.675C106.775 65.1499 104.775 64.7749 105.95 63.65C107.2 62.675 107.7 62.25 108.325 59.8499C108.325 58.6499 107.05 58.0999 106.35 59.25C106.212 59.6902 106.096 60.0842 105.991 60.4437C105.521 62.0437 105.252 62.9593 104.15 64.2249C103.1 65.375 101.75 66.175 101.075 66.175C99.8748 66.125 98.6498 64.8499 100.275 63.9249C102.65 63.0249 103.5 61.725 103.85 60.525C104.25 58.425 103.825 57.3999 102.525 58.4249C100.675 60.4749 97.1498 64.325 95.3248 66.075C93.2248 67.6249 90.8748 67.6749 88.9748 66.125C87.8998 64.875 88.2998 63.575 89.9748 63.875C93.7998 64.1749 96.6998 62.325 99.8498 57.325C100.5 56.1749 100.65 54.5499 99.2748 55.775C97.6998 57.85 95.3998 59.65 93.2498 60.4C91.0998 61.15 89.1248 60.9 88.6498 60.075C87.8498 58.725 88.0248 57.2249 89.4748 57.7249C90.6498 58.125 92.2998 58.2249 94.0498 57.5499C96.2345 56.5616 98.1158 55.0081 99.4998 53.0499C100.15 51.6749 99.9248 50.5249 98.5998 51.2249C95.4748 53.8499 91.4248 55.95 89.3498 54.6749C87.8498 53.75 87.8248 51.375 89.7498 51.525C93.6248 52.0499 95.0998 51.2 98.8248 47.9749C99.6748 47.3499 99.6248 45.775 98.2748 46.775C95.1248 48.775 90.8498 49.525 89.1748 48.525C87.6748 47.575 87.8748 44.75 90.4248 45.775C92.4748 46.975 94.7248 46.9249 99.2498 43.775C100.375 42.85 99.5248 41.6499 98.5998 42.1749C94.9748 44.1749 89.6748 45.0499 88.2998 40.9249C87.7498 39.3499 88.7248 38.45 90.1498 39.5499C93.2748 42.3499 96.7998 40.9749 98.7998 39.5499C99.2998 39.5249 100.4 37.575 98.5498 37.875C93.8248 38.9249 89.1498 37.9999 88.2998 34.7249C87.8248 33.6749 88.7748 31.7999 90.4998 33.375C92.7748 35.575 95.1998 35.625 98.2248 35.625C99.7498 35.2999 99.7748 33.65 98.4748 33.4C96.0998 33.45 93.7248 32.4249 91.8498 31.4C89.9998 30.3499 88.4748 28.9 87.9998 26.9C87.6998 25.0749 89.4748 23.175 90.5248 25.075C91.4908 26.6689 92.7997 28.0276 94.3565 29.0525C95.9133 30.0774 97.6788 30.7426 99.5248 31C99.7248 30.65 100.225 29.7999 100.85 30.0499C103.621 31.1314 106.318 32.3924 108.925 33.825C109.358 34.0612 109.047 35.0574 108.834 35.7386C108.777 35.9223 108.726 36.0831 108.7 36.2C108.575 37.7 109 38.65 109.5 39.2C109.95 39.75 111.25 40.0999 111.95 39.9249C113.4 39.5249 114.175 38.275 113.925 36.075C113.92 36.0518 113.915 36.0216 113.909 35.9848C113.851 35.6234 113.691 34.6227 112.625 33.375C111.873 32.4401 110.948 31.6592 109.9 31.075C108.607 30.3676 106.696 29.9697 104.375 29.4864L104.2 29.45C102.75 29.15 102 28.5999 101.925 28.025C102.153 28.074 102.428 28.171 102.719 28.2742C103.32 28.487 103.995 28.7259 104.5 28.625C105.09 28.5266 105.448 28.2735 105.732 28.0727C105.809 28.0182 105.88 27.9676 105.95 27.9249C105.589 27.843 105.035 27.8685 104.443 27.8958C104.131 27.9101 103.81 27.9249 103.5 27.9249C102.799 27.9249 102.159 27.8188 101.662 27.7364C101.52 27.713 101.391 27.6915 101.275 27.6749C100.175 27.4749 99.2998 27.025 98.7748 26.025C98.5498 24.9499 99.2748 24.75 99.9498 25.45C100.175 25.6747 100.331 25.8498 100.46 25.9947C100.661 26.2204 100.796 26.3727 101.025 26.525C101.458 26.813 101.941 27.0166 102.45 27.125C102.493 27.1322 102.537 27.1395 102.58 27.1468C103.437 27.2908 104.305 27.4367 105.4 27.1749C105.052 26.7764 104.648 26.431 104.2 26.15C103.725 25.875 103.275 25.7249 102.85 25.7999C102.55 25.8249 102.175 26.1 101.875 26.575C101.675 25.375 102 24.05 105.25 24.575ZM110.025 26.15C110.025 25.75 109.45 25.4249 108.5 25.4249C107.55 25.4249 106.95 25.725 106.95 26.125C106.95 26.5 107.55 26.875 108.5 26.875C109.45 26.875 110.025 26.5499 110.025 26.15ZM130.575 26.15C130.575 25.75 131.15 25.4249 132.1 25.4249C133.05 25.4249 133.65 25.725 133.65 26.125C133.65 26.5 133.05 26.875 132.1 26.875C131.15 26.875 130.575 26.5499 130.575 26.15Z" fill="black"/>
</g>
<defs>
<clipPath id="clip0_909_280720">
<rect width="240" height="120" fill="white"/>
</clipPath>
</defs>
</svg>
