<svg width="241" height="120" viewBox="0 0 241 120" fill="none" xmlns="http://www.w3.org/2000/svg">
<g clip-path="url(#clip0_451_2097)">
<path d="M240.455 0H0.455078V120H240.455V0Z" fill="#54AEF2"/>
<path fill-rule="evenodd" clip-rule="evenodd" d="M117.295 10.2524C117.374 10.1832 117.492 10.1354 117.604 10.1543C117.774 10.1827 117.868 10.3041 117.948 10.436C118.029 10.5678 118.098 10.7328 118.167 10.9305C118.291 11.2887 118.411 11.7755 118.536 12.2969C120.671 12.3853 125.159 12.8242 127.136 13.3649L127.134 13.3641C127.827 13.5447 128.393 13.4565 128.985 13.2973C129.144 13.2546 129.304 13.2063 129.468 13.157C129.914 13.0226 130.386 12.8804 130.924 12.8219C130.954 12.8187 130.984 12.8222 131.012 12.8321C131.04 12.8421 131.066 12.8582 131.087 12.8793C131.429 13.2214 131.756 13.3444 132.09 13.47C132.226 13.5211 132.363 13.5726 132.503 13.6395C132.744 13.7551 132.987 13.9232 133.193 14.207C133.392 14.4814 133.559 14.8655 133.698 15.4063C133.868 15.6628 134.046 15.7834 134.232 15.8406C134.422 15.899 134.63 15.8905 134.838 15.8539C134.955 15.8335 135.07 15.8043 135.182 15.7759C135.27 15.7536 135.356 15.7318 135.439 15.7153C135.533 15.6965 135.624 15.6829 135.721 15.6926C135.819 15.7022 135.934 15.7467 136.007 15.8399C136.02 15.8565 136.03 15.8751 136.037 15.8949C136.432 16.9838 137.049 17.5901 137.768 17.9199C138.488 18.2497 139.323 18.2964 140.135 18.2051C140.946 18.1138 141.731 17.8857 142.339 17.6832C142.522 17.6224 142.689 17.5639 142.837 17.512C142.935 17.4776 143.025 17.4461 143.106 17.4188C143.207 17.3845 143.293 17.3569 143.368 17.3375L143.373 17.3362C143.438 17.319 143.49 17.3056 143.574 17.3164C143.839 17.3239 144.057 17.4848 144.26 17.6836C144.467 17.8871 144.665 18.1437 144.857 18.3942L144.896 18.4456C145.073 18.6778 145.243 18.9009 145.392 19.0578C145.551 19.2246 145.681 19.2814 145.703 19.2809C146.06 19.2176 146.177 19.1022 146.312 18.9679C146.328 18.9522 146.344 18.9362 146.361 18.9199C146.443 18.8416 146.549 18.7502 146.702 18.7121C146.854 18.674 147.028 18.6916 147.249 18.761C147.294 18.775 147.332 18.8042 147.357 18.8436C147.383 18.883 147.393 18.9301 147.387 18.9766C147.29 19.7489 147.659 20.6358 148.077 21.4918C148.131 21.6006 148.184 21.7085 148.238 21.8156C148.575 22.4926 148.894 23.1347 148.945 23.7297C149.04 23.7645 149.225 23.8071 149.472 23.577C149.604 23.454 149.76 23.2126 149.917 22.9685C149.953 22.9126 149.99 22.8564 150.026 22.8016C150.122 22.6546 150.219 22.5155 150.329 22.4035C150.439 22.2916 150.576 22.1885 150.757 22.2C150.762 22.2003 150.768 22.2008 150.773 22.2015C151.272 22.2728 151.6 22.3398 151.975 22.4166C152.252 22.4732 152.556 22.5352 152.973 22.6082C152.979 22.6092 152.986 22.6105 152.992 22.6121C152.996 22.6132 153 22.6143 153.004 22.6156C154.295 23.0569 155.277 23.3301 156.067 23.5502C156.898 23.7813 157.518 23.954 158.067 24.2015C158.107 24.2194 158.14 24.2497 158.161 24.2879C158.395 24.7162 158.618 25.0198 158.872 25.1922C159.126 25.3645 159.419 25.4282 159.872 25.3519C159.922 25.3434 159.974 25.3546 160.017 25.3832C160.471 25.6885 160.56 26.1007 160.575 26.3711C160.576 26.389 160.577 26.4061 160.577 26.4224C160.582 26.5188 160.586 26.5858 160.592 26.6179C160.764 26.5272 160.918 26.434 161.063 26.3461C161.272 26.2199 161.463 26.1045 161.663 26.0222C162.028 25.8718 162.446 25.8659 162.97 26.1281C163.999 26.6423 164.998 27.641 165.512 28.6695C165.526 28.6973 165.533 28.7279 165.533 28.759C165.533 28.8842 165.512 29.0432 165.484 29.2552C165.477 29.307 165.47 29.3619 165.462 29.4203C165.424 29.7177 165.379 30.0957 165.349 30.5496C165.288 31.4562 165.288 32.6642 165.53 34.1152C165.554 34.2124 165.577 34.3071 165.599 34.4004C165.805 35.2527 165.984 35.9929 166.92 37.4871C166.946 37.5283 166.956 37.5774 166.948 37.6254C166.82 38.4123 167.133 39.558 167.497 40.5843C167.603 40.8848 167.713 41.1756 167.815 41.4469C167.887 41.6388 167.956 41.821 168.017 41.9898C168.165 42.3971 168.276 42.7078 168.276 42.9644C168.276 43.5079 168.054 43.9278 167.788 44.3117C167.727 44.4009 167.663 44.4898 167.599 44.5795C167.413 44.8409 167.222 45.1091 167.056 45.4117C167.477 45.7791 167.738 46.2022 167.813 46.6554C167.898 47.1635 167.796 47.6879 167.604 48.1988C167.289 49.0388 166.741 49.8367 166.285 50.5013C166.237 50.5705 166.191 50.6384 166.145 50.7047C167.811 51.0636 168.954 51.4957 169.731 51.9394C170.455 52.3533 170.901 52.7724 171.264 53.1132C171.316 53.1615 171.366 53.2082 171.414 53.2531C171.806 53.6148 172.105 53.8528 172.679 53.9379C173.254 54.0229 174.122 53.9393 175.582 53.5742C175.618 53.5652 175.656 53.5664 175.692 53.5778C175.727 53.5891 175.759 53.6101 175.783 53.6385C175.807 53.6668 175.823 53.7013 175.828 53.7381C175.834 53.775 175.829 53.8126 175.815 53.8468C175.082 55.5571 174.865 56.3005 174.985 57.03C175.063 57.502 175.295 58.0006 175.65 58.7611C175.844 59.1762 176.074 59.6694 176.335 60.2789C176.354 60.3218 176.356 60.3698 176.343 60.4145C176.33 60.4593 176.301 60.4979 176.262 60.5238C175.543 61.0032 175.202 61.3866 175.051 61.7086C174.899 62.0305 174.918 62.3087 174.97 62.6488C174.976 62.6845 174.981 62.7207 174.987 62.7576C175.091 63.4101 175.225 64.2583 174.33 65.4211C174.331 65.4232 174.331 65.4242 174.331 65.4251C174.332 65.4263 174.332 65.4274 174.333 65.4308C174.353 65.4808 174.395 65.5628 174.456 65.6586C174.578 65.8502 174.775 66.1015 175.03 66.3468C175.539 66.8375 176.27 67.2984 177.102 67.2984C177.13 67.2984 177.158 67.3044 177.184 67.3161C177.21 67.3277 177.233 67.3448 177.252 67.366C177.27 67.3872 177.284 67.4122 177.293 67.4393C177.301 67.4663 177.304 67.4949 177.3 67.523C177.103 69.1005 176.739 69.8465 176.42 70.5021C176.336 70.673 176.256 70.8379 176.182 71.0097C175.826 71.8404 175.586 72.8912 175.83 75.8183C175.832 75.8462 175.829 75.8743 175.82 75.9007C175.81 75.9272 175.796 75.9514 175.777 75.9718C175.757 75.9922 175.734 76.0083 175.708 76.0192C175.682 76.03 175.655 76.0353 175.627 76.0347C174.7 76.0164 174.136 76.263 173.737 76.6297C173.337 76.9963 173.099 77.5016 172.893 78.0195C172.857 78.1106 172.822 78.202 172.787 78.2929C172.624 78.7187 172.464 79.1336 172.205 79.4589C171.933 79.801 171.513 80.0029 170.952 79.9715C171.041 81.039 171.3 81.7098 171.549 82.3524C171.584 82.4412 171.618 82.5293 171.651 82.6179C171.945 83.3961 172.163 84.229 171.905 85.6773C171.898 85.7153 171.88 85.7505 171.854 85.7787C171.828 85.807 171.794 85.8269 171.756 85.8363C170.776 86.0815 170.305 86.205 169.98 86.4218C169.655 86.6387 169.422 86.9792 168.932 87.7148C168.907 87.7513 168.872 87.7789 168.83 87.7931C168.789 87.8074 168.744 87.8076 168.702 87.7937L167.432 87.3703C167.308 87.9231 167.165 88.3829 167.039 88.7853C166.916 89.1822 166.809 89.5234 166.756 89.8433C166.64 90.5362 166.743 91.2005 167.466 92.4047C167.484 92.4345 167.493 92.4685 167.494 92.5033C167.495 92.5382 167.486 92.5726 167.47 92.6031C167.453 92.6337 167.429 92.6594 167.399 92.6777C167.37 92.696 167.336 92.7062 167.301 92.7074C167.301 92.7074 166.824 92.7228 166.278 92.7304C165.83 92.7367 165.413 92.7286 165.083 92.7105C165.125 92.9423 165.235 93.1301 165.416 93.3414C165.429 93.3563 165.441 93.3715 165.455 93.3868C165.678 93.6476 165.947 93.9602 166.021 94.4383C166.025 94.4626 166.024 94.4875 166.019 94.5117C165.99 94.6447 165.924 94.7025 165.841 94.7749C165.831 94.7835 165.821 94.7923 165.81 94.8015C165.713 94.8878 165.586 94.9814 165.432 95.0828C165.123 95.2856 164.703 95.5176 164.219 95.7406C163.295 96.1662 162.143 96.5509 161.08 96.614C161.012 96.8281 161.018 97.0408 161.102 97.2722C161.2 97.5398 161.386 97.8204 161.591 98.0886C161.681 98.2058 161.774 98.3204 161.865 98.4321C161.983 98.5763 162.096 98.7156 162.193 98.8496C162.366 99.0874 162.518 99.3107 162.464 99.5808C162.456 99.6197 162.437 99.6555 162.409 99.6834C162.381 99.7114 162.345 99.7303 162.306 99.7379C160.346 100.117 159.382 102.307 159.215 102.717C159.232 102.725 159.249 102.732 159.265 102.739C159.36 102.78 159.462 102.824 159.635 102.94C159.781 103.039 159.927 103.155 160.032 103.303C160.138 103.452 160.203 103.661 160.125 103.86C160.114 103.888 160.096 103.914 160.074 103.934C160.051 103.955 160.024 103.97 159.995 103.978C159.965 103.987 159.934 103.989 159.904 103.983C159.874 103.978 159.845 103.966 159.821 103.948C159.519 103.727 159.307 103.622 159.047 103.564C158.788 103.506 158.468 103.497 157.987 103.496C157.898 103.516 157.804 103.53 157.703 103.544C157.469 103.578 157.2 103.616 156.887 103.752C156.423 103.954 155.874 104.363 155.318 105.302C155.293 105.343 155.254 105.374 155.208 105.389C154.905 105.49 154.641 105.558 154.405 105.619C154.141 105.687 153.913 105.746 153.704 105.831C153.309 105.991 152.962 106.235 152.5 106.847C152.478 106.876 152.449 106.899 152.415 106.912C152.381 106.926 152.345 106.93 152.309 106.924C152.273 106.919 152.24 106.903 152.212 106.88C152.184 106.857 152.163 106.827 152.151 106.793C152.054 106.516 151.957 106.43 151.919 106.416C151.882 106.401 151.816 106.413 151.69 106.503C151.587 106.576 151.469 106.689 151.338 106.816C151.145 107.002 150.922 107.217 150.674 107.373C150.331 107.589 149.897 107.99 149.539 108.332C149.505 108.363 149.473 108.395 149.441 108.425C149.301 108.559 149.175 108.679 149.068 108.773C149.003 108.83 148.946 108.877 148.891 108.914C148.863 108.933 148.836 108.949 148.8 108.964L148.796 108.965C148.759 108.98 148.706 109.001 148.622 108.97C148.581 108.955 148.545 108.927 148.522 108.89C148.498 108.852 148.487 108.808 148.491 108.764C148.512 108.534 148.629 108.165 148.741 107.813C148.783 107.683 148.801 107.63 148.824 107.563C148.832 107.539 148.841 107.514 148.852 107.482L146.738 107.905C146.734 107.906 146.73 107.907 146.726 107.907C146.724 107.908 146.721 107.908 146.718 107.908C146.718 107.908 146.691 107.911 146.639 107.916C146.588 107.921 146.513 107.929 146.417 107.939H146.416C146.343 107.946 146.267 107.91 146.227 107.873C146.188 107.837 146.169 107.802 146.154 107.77C146.123 107.704 146.107 107.641 146.091 107.568C146.072 107.484 146.055 107.39 146.038 107.292C146.026 107.221 146.013 107.148 145.999 107.076C145.966 106.906 145.922 106.741 145.875 106.645C145.851 106.598 145.827 106.57 145.817 106.562C145.807 106.554 145.82 106.559 145.813 106.559C145.811 106.56 145.628 106.652 145.44 106.819C145.251 106.986 145.029 107.211 144.806 107.439L144.78 107.465C144.565 107.685 144.35 107.905 144.154 108.08C144.141 108.091 144.129 108.102 144.116 108.113C143.931 108.28 143.783 108.413 143.568 108.439C143.409 108.459 143.262 108.414 143.151 108.348C143.041 108.283 142.959 108.201 142.888 108.13L142.886 108.127C142.814 108.055 142.752 107.995 142.703 107.962C142.655 107.931 142.631 107.923 142.588 107.928C142.595 107.927 142.594 107.928 142.586 107.932C142.577 107.938 142.556 107.95 142.532 107.973C142.489 108.014 142.432 108.081 142.371 108.164C142.249 108.331 142.111 108.56 141.975 108.792C141.949 108.837 141.923 108.881 141.897 108.925C141.788 109.112 141.682 109.294 141.584 109.445C141.523 109.538 141.466 109.618 141.406 109.686C141.401 109.691 141.396 109.697 141.392 109.702C141.338 109.764 141.287 109.823 141.166 109.844C141.057 109.863 140.985 109.831 140.913 109.798L140.909 109.796C140.835 109.762 140.761 109.718 140.679 109.667C140.611 109.624 140.539 109.576 140.462 109.525C140.355 109.454 140.241 109.378 140.121 109.304C139.708 109.051 139.235 108.838 138.857 108.902C136.402 109.755 134.902 108.886 133.998 108.179C133.886 108.091 133.782 108.006 133.686 107.927C133.589 107.848 133.501 107.776 133.421 107.714C133.262 107.593 133.134 107.524 133.071 107.512L133.062 107.51C133.007 107.5 132.998 107.498 132.929 107.592C132.856 107.691 132.762 107.906 132.671 108.251C132.663 108.28 132.649 108.307 132.63 108.33C132.61 108.353 132.586 108.371 132.558 108.383C132.53 108.395 132.5 108.401 132.47 108.4C132.44 108.399 132.411 108.391 132.384 108.377C132.136 108.245 131.966 108.169 131.848 108.134C131.729 108.099 131.669 108.099 131.593 108.115C131.536 108.127 131.465 108.157 131.369 108.196C131.215 108.26 130.996 108.35 130.665 108.437L130.664 108.437C130.452 108.492 130.248 108.444 130.104 108.345C129.959 108.246 129.863 108.114 129.775 107.993C129.767 107.981 129.759 107.97 129.752 107.959C129.674 107.851 129.603 107.752 129.535 107.688C129.461 107.618 129.408 107.59 129.321 107.593C128.801 107.607 128.6 107.831 128.396 108.064C128.38 108.082 128.364 108.101 128.348 108.119C128.263 108.219 128.177 108.319 128.049 108.391C127.897 108.477 127.68 108.48 127.482 108.377C127.456 108.364 127.433 108.345 127.416 108.322C127.398 108.299 127.385 108.272 127.379 108.244C127.259 107.713 126.996 107.353 126.652 107.076C126.308 106.799 125.878 106.612 125.444 106.462C125.259 106.398 125.074 106.341 124.895 106.286C124.651 106.212 124.418 106.14 124.208 106.058C123.844 105.916 123.521 105.735 123.414 105.393C123.413 105.389 123.412 105.385 123.411 105.381C123.337 105.077 123.408 104.802 123.565 104.607C123.722 104.412 123.942 104.286 124.17 104.175C124.262 104.13 124.357 104.086 124.45 104.043C124.805 103.878 125.142 103.722 125.307 103.518C125.408 103.246 125.409 103.03 125.411 102.809C125.412 102.681 125.412 102.552 125.432 102.409C125.461 102.21 125.542 101.995 125.721 101.782C125.898 101.572 126.165 101.358 126.575 101.113C127.089 100.765 127.39 100.477 127.557 100.239C127.725 100.001 127.768 99.8173 127.771 99.6265C127.773 99.5041 127.751 99.374 127.727 99.2337C127.678 98.937 127.62 98.5945 127.763 98.1812C127.764 98.1768 127.766 98.1723 127.768 98.168C128.096 97.4004 128.249 96.9427 128.263 96.5285C128.276 96.1143 128.152 95.7102 127.879 95.0344C127.878 95.0327 127.878 95.031 127.877 95.0293C127.877 95.0293 127.468 93.928 127.019 92.8285C126.795 92.2787 126.56 91.7289 126.365 91.3223C126.267 91.1189 126.178 90.9506 126.11 90.8418C126.078 90.7908 126.052 90.7563 126.036 90.7379C125.859 90.6919 125.772 90.7261 125.649 90.839C125.522 90.9554 125.388 91.17 125.236 91.4226L125.227 91.4388C124.925 91.942 124.535 92.5952 123.75 92.8793C123.748 92.88 123.746 92.8806 123.745 92.8813C122.173 93.4051 120.113 92.7512 118.32 92.0024C117.596 91.7002 116.916 91.3788 116.335 91.104C116.196 91.0382 116.063 90.9752 115.936 90.9156C115.607 90.7615 115.321 90.6311 115.094 90.5414C114.868 90.4519 114.691 90.4092 114.641 90.409C114.516 90.4115 114.274 90.4416 113.971 90.4792C113.852 90.494 113.723 90.5099 113.589 90.5258C113.112 90.5822 112.553 90.6365 112.016 90.6293C111.478 90.6222 110.963 90.5589 110.561 90.3477C110.331 90.227 110.152 90.0372 110.041 89.8008C109.899 89.9976 109.736 90.1529 109.546 90.2395C109.212 90.3921 108.847 90.3829 108.515 90.3164C108.183 90.2499 107.877 90.124 107.645 90.0164C107.547 89.9714 107.463 89.9296 107.397 89.8969C107.385 89.8905 107.373 89.8845 107.361 89.8789C107.33 89.8636 107.307 89.8526 107.291 89.8449C106.844 89.8487 106.568 89.9328 106.384 90.0477C106.196 90.1652 106.088 90.3182 105.982 90.4953C105.962 90.5288 105.942 90.5633 105.922 90.5983C105.836 90.7482 105.745 90.9077 105.597 91.0434C105.415 91.2107 105.145 91.3144 104.778 91.2973C104.759 91.2964 104.741 91.293 104.724 91.2871C104.689 91.2754 104.523 91.2431 104.305 91.2149C104.086 91.1867 103.803 91.157 103.479 91.1266C102.832 91.0658 102.022 91.0029 101.231 90.9465C99.8043 90.8448 98.6164 90.775 98.3724 90.7606L98.3512 90.7594V91.527C98.3512 91.5611 98.3424 91.5946 98.3258 91.6244C98.3092 91.6542 98.2853 91.6792 98.2563 91.6971C98.2273 91.715 98.1942 91.7253 98.1601 91.7268C98.1261 91.7283 98.0922 91.7211 98.0617 91.7059L94.1555 89.7524L90.741 88.777C90.7381 88.7761 90.7352 88.7752 90.7324 88.7742C89.5919 88.394 89.064 87.7835 88.6343 87.2866C88.4883 87.1177 88.3536 86.962 88.2101 86.8328C87.9272 86.5782 87.6181 86.4065 87.0594 86.3707C86.5006 86.3349 85.6924 86.4507 84.4785 86.8149C84.4486 86.8238 84.4171 86.8257 84.3863 86.8202C84.3556 86.8148 84.3266 86.8023 84.3016 86.7837C84.2766 86.765 84.2563 86.7408 84.2423 86.7129C84.2283 86.685 84.221 86.6543 84.2211 86.6231V83.8813H81.9695C81.9405 83.8813 81.9118 83.8749 81.8854 83.8627C81.8591 83.8505 81.8357 83.8327 81.817 83.8106C81.7982 83.7884 81.7845 83.7624 81.7767 83.7344C81.769 83.7064 81.7675 83.6771 81.7722 83.6485C82.0169 82.18 82.1383 81.2645 82.1758 80.6426C82.2132 80.0207 82.1699 79.701 82.0828 79.3817C82.05 79.2615 82.01 79.1388 81.9649 79.0007C81.7786 78.4297 81.5065 77.5956 81.3078 75.5934L79.566 76.0289C79.5276 76.0386 79.4872 76.0366 79.4499 76.0232C79.4127 76.0099 79.3802 75.9857 79.3566 75.9539C78.8454 75.263 78.7405 74.7217 78.8578 74.2996C78.9587 73.9367 79.2014 73.6892 79.3889 73.4979C79.4195 73.4667 79.4486 73.4371 79.4754 73.4086C79.5709 73.3071 79.6333 73.2209 79.6504 73.1707L79.6509 73.1691C79.6676 73.1202 79.673 73.1041 79.6113 73.0211C79.4865 72.8533 79.0088 72.5366 77.9683 72.0961C77.9313 72.0804 77.8999 72.054 77.8782 72.0202C77.8565 71.9864 77.8454 71.9468 77.8465 71.9067C77.8465 71.9067 77.863 71.1845 77.7558 70.6055C77.7023 70.316 77.6021 70.0677 77.525 69.9922C77.4864 69.9545 77.4751 69.951 77.4359 69.9559C77.4016 69.9602 77.3223 70.0039 77.2293 70.0805C77.231 70.1041 77.2333 70.1342 77.2457 70.1836C77.2767 70.3078 77.3418 70.4826 77.4144 70.6539C77.5597 70.9965 77.7332 71.3285 77.7332 71.3285C77.7502 71.3609 77.7579 71.3973 77.7557 71.4337C77.7535 71.4702 77.7413 71.5054 77.7205 71.5354C77.6996 71.5654 77.671 71.5892 77.6376 71.6041C77.6043 71.619 77.5675 71.6245 77.5312 71.6199C75.5555 71.373 74.2758 71.0029 73.4859 70.1473C72.696 69.2916 72.4519 68.0055 72.4519 66.0274C72.4519 65.9987 72.4581 65.9704 72.47 65.9443C72.4818 65.9183 72.4992 65.8951 72.5208 65.8763C72.5425 65.8575 72.5679 65.8436 72.5953 65.8355C72.6228 65.8274 72.6517 65.8253 72.6801 65.8293C72.6801 65.8293 73.4846 65.9436 74.2472 66.0004C74.6286 66.0288 75.002 66.042 75.2414 66.0223C75.2957 66.0178 75.3193 66.0116 75.3452 66.0047C75.3529 66.0027 75.3609 66.0006 75.3699 65.9985C75.2452 65.7413 75.1457 65.3797 75.0414 64.8918C74.9209 64.3284 74.8062 63.6485 74.709 62.9817C74.6118 62.3148 74.5321 61.6618 74.4836 61.1524C74.4593 60.8977 74.4428 60.6793 74.4355 60.5106C74.432 60.4262 74.4308 60.3545 74.4324 60.2942C74.4326 60.2869 74.4327 60.2799 74.4329 60.2732C74.4336 60.2351 74.4342 60.2039 74.4437 60.1639C74.4454 60.0204 74.5135 59.9032 74.5961 59.7876C74.686 59.6616 74.8056 59.5337 74.9445 59.3966C75.0728 59.2698 75.2179 59.1355 75.37 58.9947C75.5471 58.8308 75.7337 58.6581 75.914 58.4786C76.2492 58.1449 76.5611 57.7869 76.7469 57.438C76.9326 57.089 76.994 56.7672 76.8711 56.4446C76.8616 56.4199 76.8572 56.3935 76.8581 56.367C76.8589 56.3406 76.865 56.3146 76.876 56.2905C76.8869 56.2664 76.9026 56.2447 76.922 56.2267C76.9414 56.2087 76.9642 56.1947 76.989 56.1856C77.234 56.0956 77.5965 56.0668 77.925 56.0454C78.0431 56.0377 78.0892 56.0365 78.1488 56.035C78.1706 56.0345 78.1942 56.0339 78.2238 56.0329C77.4432 54.4606 77.3628 54.1232 77.3594 52.5114C77.3234 52.5141 77.2851 52.5165 77.2473 52.5189C77.1809 52.523 77.116 52.5271 77.0676 52.5325C76.9703 52.5434 76.8561 52.53 76.7386 52.5114C76.7244 52.5355 76.7049 52.5704 76.6804 52.6313C76.6571 52.6895 76.6321 52.7589 76.6046 52.8351C76.5622 52.9529 76.5139 53.0869 76.457 53.2204C76.3634 53.4401 76.2492 53.6635 76.0629 53.8239C75.8765 53.9843 75.5909 54.0531 75.3051 53.9387C75.2742 53.9264 75.247 53.9065 75.2258 53.8809C75.1446 53.7835 75.154 53.6974 75.1619 53.6244C75.1624 53.6202 75.1628 53.616 75.1633 53.6118C75.1711 53.5362 75.189 53.4605 75.2101 53.3762C75.2197 53.3381 75.2301 53.2983 75.2408 53.2574C75.2772 53.1174 75.3175 52.9628 75.3441 52.8059C75.3785 52.6031 75.3882 52.3989 75.3476 52.2286C75.307 52.0583 75.227 51.9211 75.0492 51.8067L75.0484 51.8059C74.8842 51.699 74.8574 51.5237 74.8472 51.3618C74.837 51.1998 74.8524 51.0209 74.8714 50.836C74.9013 50.5449 74.9098 50.2957 74.9019 50.0942C74.7604 50.1164 74.5881 50.1308 74.3839 50.0719C73.9367 49.9429 73.4112 49.5184 72.9793 48.4938C72.9147 48.4122 72.8953 48.4129 72.8511 48.4211C72.8052 48.4297 72.7186 48.4807 72.6367 48.561C72.5004 48.6945 72.4104 48.8487 72.3778 48.9045C72.3759 48.9078 72.3741 48.9107 72.3726 48.9133C72.3759 48.9233 72.3793 48.933 72.3827 48.9429C72.4027 49 72.4242 49.0615 72.4285 49.1911C72.4321 49.3004 72.4203 49.425 72.3605 49.5469C72.3007 49.6689 72.1839 49.7809 72.0277 49.8348C71.9972 49.8453 71.9646 49.8483 71.9327 49.8434C71.9008 49.8386 71.8705 49.8261 71.8445 49.8071C71.5896 49.6205 71.3774 49.5664 71.1175 49.5002C71.0899 49.4932 71.0619 49.486 71.0332 49.4786C70.7334 49.4007 70.3762 49.2873 69.9535 48.952C69.7243 48.7702 69.6052 48.5581 69.5511 48.361C69.5142 48.2263 69.5025 48.1013 69.492 47.9892C69.4871 47.9372 69.4825 47.8879 69.4757 47.8418C69.4545 47.6964 69.4224 47.5866 69.3179 47.4684C69.2135 47.3502 69.0221 47.2186 68.6625 47.0915C68.637 47.0825 68.6137 47.0685 68.5938 47.0502C68.574 47.032 68.558 47.01 68.5469 46.9854C68.5357 46.9609 68.5297 46.9343 68.5291 46.9073C68.5285 46.8804 68.5333 46.8536 68.5433 46.8286C69.0354 45.5984 69.2955 45.0614 69.7773 44.7172C70.0899 44.494 70.4951 44.3499 71.0664 44.1468C71.2706 44.0742 71.496 43.9941 71.7461 43.9001C70.6982 43.1903 70.4125 42.9153 69.5839 41.6735C68.4496 41.2869 67.8753 40.8892 66.9809 40.2698C66.7387 40.1021 66.473 39.9181 66.1664 39.7137C66.1492 39.7023 66.1339 39.6884 66.1211 39.6723C64.0988 37.1441 63.1351 32.2297 63.1351 28.759C63.1351 28.7315 63.1408 28.7042 63.1518 28.6789C63.1628 28.6536 63.179 28.6309 63.1992 28.6122C63.3896 28.4358 63.6322 28.3618 63.8593 28.404C64.0865 28.4461 64.2898 28.5798 64.491 28.7618C64.8933 29.1258 65.2989 29.7048 65.7437 30.361C65.8007 30.4451 65.8584 30.5305 65.9167 30.6168C66.7661 31.8745 67.7468 33.3266 68.8273 33.9774L72.2402 35.4407C72.2439 35.4421 72.2475 35.4437 72.2511 35.4454C73.2497 35.9447 73.8826 36.4506 74.4398 36.9457C74.5494 37.0432 74.6561 37.14 74.7623 37.2363C75.1909 37.6252 75.6109 38.0063 76.1781 38.3868L80.5613 39.8481C80.5816 39.8549 80.6008 39.8649 80.6179 39.8778C81.4955 40.5359 82.176 41.2855 82.7822 41.9531C82.8681 42.0478 82.9526 42.1408 83.0359 42.2317C83.6959 42.9516 84.2836 43.524 84.9425 43.7559C85.6767 43.7489 86.0965 43.548 86.4089 43.3305C86.5054 43.2634 86.5917 43.1943 86.6749 43.1276C86.7289 43.0844 86.7815 43.0423 86.8347 43.0024C86.9701 42.9009 87.1164 42.8077 87.3007 42.7872C87.3048 42.7868 87.3088 42.7865 87.3128 42.7864C88.7475 42.7128 89.8253 42.5823 90.6 42.3696C91.3746 42.1568 91.834 41.8683 92.0851 41.4899C92.0893 41.4835 92.0939 41.4774 92.0988 41.4715C92.2864 41.2492 92.557 41.1687 92.8543 41.1492C93.0363 41.1373 93.2377 41.1427 93.4696 41.1489C93.6163 41.1528 93.7753 41.1571 93.9492 41.1574C94.8182 41.1594 96.0733 41.0615 97.9121 40.3957L97.4672 38.6149C97.4579 38.5782 97.4593 38.5396 97.4711 38.5036C97.4829 38.4677 97.5047 38.4358 97.5339 38.4117C97.5339 38.4117 98.535 37.6077 99.9093 37.8406C99.8923 37.3673 99.8797 36.6832 100.01 35.9278C100.151 35.1142 100.467 34.2689 101.12 33.6832C100.794 33.2712 100.68 32.8805 100.718 32.593C100.762 32.2659 100.944 32.0586 100.944 32.0586C100.948 32.0548 100.951 32.0512 100.955 32.0477C100.955 32.0477 101.145 31.8651 101.345 31.6352C101.542 31.4092 101.735 31.1179 101.765 31.0082C101.477 29.4157 101.851 28.8828 102.112 28.5111C102.199 28.3872 102.274 28.2812 102.307 28.1598C102.34 28.0377 102.325 28.0079 102.302 27.9699C102.279 27.9339 102.223 27.8863 102.144 27.819L102.131 27.8082C102.045 27.7352 101.934 27.632 101.873 27.4719C101.813 27.3117 101.809 27.1122 101.876 26.8664C102.019 26.3348 102.493 26.0406 102.905 25.7867C103.316 25.5329 103.658 25.3075 103.723 25.0606C103.803 24.7573 103.724 24.557 103.618 24.3801C103.581 24.318 103.54 24.2612 103.501 24.2061C103.484 24.1828 103.467 24.1597 103.452 24.1367C103.444 24.1265 103.437 24.1163 103.429 24.1058C103.379 24.0373 103.321 23.9595 103.35 23.8164C103.352 23.8019 103.357 23.7878 103.363 23.7742C103.484 23.502 103.51 22.9332 103.478 22.3727C103.458 22.0273 103.422 21.6839 103.391 21.3942C103.372 21.2137 103.355 21.054 103.346 20.9278C103.343 20.8813 103.356 20.8351 103.383 20.7972C103.41 20.7592 103.449 20.7319 103.494 20.7199C104.715 20.3934 105.54 19.7494 106.189 19.2423C106.218 19.2202 106.245 19.1985 106.273 19.177L106.273 19.1767C106.604 18.9189 106.886 18.6993 107.187 18.5949C107.393 18.5233 107.611 18.5613 107.819 18.6551C108.049 17.3396 108.292 16.3762 108.852 15.7531C109.432 15.1091 110.33 14.8554 111.725 14.8363C111.758 14.7057 111.756 14.5812 111.709 14.4485C111.649 14.2788 111.533 14.1025 111.412 13.9356C111.389 13.9041 111.366 13.8732 111.343 13.8427C111.245 13.7113 111.152 13.5859 111.095 13.4438C111.06 13.3562 111.036 13.2496 111.071 13.1379C111.107 13.0262 111.198 12.9401 111.302 12.8883C111.322 12.8781 111.344 12.8715 111.367 12.8688C111.867 12.8062 112.346 12.7873 112.844 12.9914C113.339 13.1939 113.837 13.6081 114.418 14.3551C114.421 14.3501 114.424 14.3454 114.427 14.3406C114.442 14.3172 114.458 14.2935 114.486 14.2285C114.5 14.1966 114.515 14.1624 114.529 14.1269C114.569 14.0327 114.612 13.9289 114.665 13.8305C114.737 13.6949 114.826 13.5503 115.006 13.4903C115.122 13.4516 115.255 13.4259 115.392 13.3996C115.525 13.3739 115.662 13.3477 115.788 13.3082C115.915 13.2683 116.027 13.217 116.105 13.1555C116.184 13.094 116.231 13.0291 116.253 12.9309V12.9301C116.392 12.3286 116.598 11.5251 117.098 10.5258L117.099 10.5231C117.157 10.4104 117.216 10.3216 117.295 10.2524ZM76.6389 52.5051C76.6385 52.5051 76.6381 52.5052 76.6375 52.5051L76.6378 52.5055C76.6384 52.5057 76.6392 52.5049 76.6398 52.5051L76.6389 52.5051Z" fill="white"/>
<path d="M63.1287 32.6209C63.1767 32.6213 63.2228 32.6216 63.2664 32.6199C63.301 32.6187 63.3353 32.6265 63.366 32.6425C63.3967 32.6585 63.4228 32.6823 63.4415 32.7114C63.4603 32.7405 63.4712 32.7739 63.4732 32.8085C63.4751 32.8431 63.4681 32.8776 63.4527 32.9086C63.4149 32.9848 63.385 32.9945 63.3658 33.0008C63.3619 33.0021 63.3584 33.0032 63.3555 33.0047C63.339 33.013 63.3282 33.0169 63.318 33.0206L63.3156 33.0215C63.3015 33.0266 63.2883 33.0311 63.2743 33.0359C63.2665 33.0385 63.2585 33.0412 63.25 33.0442C63.2024 33.0606 63.143 33.0829 63.0785 33.1172C62.9495 33.1857 62.8039 33.2965 62.7027 33.5051C62.6848 33.5419 62.656 33.5722 62.6202 33.5921C62.5845 33.612 62.5435 33.6205 62.5028 33.6163C62.4621 33.6122 62.4236 33.5957 62.3926 33.569C62.3616 33.5424 62.3395 33.5068 62.3293 33.4672C62.2814 33.2801 62.2729 33.1223 62.3222 32.982C62.3716 32.8418 62.488 32.7405 62.6035 32.6926C62.782 32.6186 62.9659 32.6198 63.1287 32.6209Z" fill="white"/>
<path d="M62.5129 34.2903C62.6788 34.166 62.8632 34.1515 62.9851 34.1485C63.0659 34.1465 63.1281 34.1535 63.1281 34.1535C63.16 34.1572 63.1905 34.1685 63.2171 34.1865C63.2437 34.2044 63.2656 34.2285 63.2809 34.2567C63.2962 34.2849 63.3045 34.3164 63.3051 34.3484C63.3057 34.3805 63.2986 34.4123 63.2844 34.441C63.2568 34.4966 63.2285 34.5135 63.2103 34.5244C63.2083 34.5255 63.2064 34.5267 63.2047 34.5277C63.1875 34.5385 63.1768 34.5432 63.1675 34.5474L63.1668 34.5477C63.155 34.5529 63.1453 34.5567 63.136 34.5604C63.1304 34.5626 63.1249 34.5648 63.1191 34.5672C63.0886 34.58 63.0532 34.5964 63.0105 34.6246C62.9252 34.681 62.8111 34.7832 62.7027 35.0067C62.6848 35.0434 62.656 35.0738 62.6202 35.0937C62.5845 35.1136 62.5435 35.122 62.5028 35.1179C62.4621 35.1138 62.4236 35.0972 62.3926 35.0706C62.3616 35.0439 62.3395 35.0084 62.3293 34.9688C62.2532 34.6715 62.347 34.4145 62.5129 34.2903Z" fill="white"/>
<path d="M65.9927 41.4319C66.0205 41.4143 66.0523 41.4039 66.0851 41.4016C66.0851 41.4016 66.2878 41.3789 66.4906 41.4817C66.592 41.533 66.6992 41.6257 66.7562 41.7633C66.8133 41.9009 66.8175 42.0695 66.768 42.2633C66.7578 42.3029 66.7356 42.3385 66.7046 42.3651C66.6736 42.3918 66.6351 42.4083 66.5944 42.4124C66.5537 42.4166 66.5128 42.4081 66.477 42.3882C66.4413 42.3683 66.4125 42.338 66.3945 42.3012C66.2801 42.0653 66.1787 41.9401 66.1094 41.8707C66.0747 41.836 66.0485 41.8155 66.0265 41.7992C66.0226 41.7963 66.0187 41.7935 66.0148 41.7906C66.0079 41.7856 66.0008 41.7805 65.9922 41.7738C65.9896 41.7719 65.9868 41.7703 65.9837 41.7685C65.97 41.7607 65.9501 41.7493 65.9207 41.691C65.9059 41.6616 65.8986 41.629 65.8994 41.5961C65.9002 41.5631 65.9092 41.5309 65.9254 41.5023C65.9417 41.4737 65.9648 41.4495 65.9927 41.4319Z" fill="white"/>
<path d="M178.165 70.3296C178.201 70.3085 178.242 70.2991 178.284 70.3028C178.325 70.3064 178.365 70.323 178.396 70.3501C178.428 70.3772 178.451 70.4135 178.461 70.4539C178.472 70.5012 178.493 70.5498 178.516 70.6042C178.545 70.6742 178.579 70.7538 178.602 70.852C178.644 71.0263 178.618 71.2543 178.463 71.4871C178.444 71.5147 178.419 71.5373 178.39 71.5528C178.361 71.5683 178.328 71.5763 178.295 71.576C178.262 71.5757 178.229 71.5672 178.2 71.5512C178.171 71.5352 178.146 71.5123 178.128 71.4844C177.94 71.1918 177.917 70.7962 178.084 70.4207C178.101 70.3826 178.129 70.3508 178.165 70.3296Z" fill="white"/>
</g>
<defs>
<clipPath id="clip0_451_2097">
<rect width="240" height="120" fill="white" transform="translate(0.455078)"/>
</clipPath>
</defs>
</svg>
