<svg width="240" height="120" viewBox="0 0 240 120" fill="none" xmlns="http://www.w3.org/2000/svg">
<g clip-path="url(#clip0_909_227986)">
<path d="M0 0H240V120H0V0Z" fill="#54AEF2"/>
<path d="M0 40H240V80H0V40Z" fill="white"/>
<path fill-rule="evenodd" clip-rule="evenodd" d="M125.271 57.1621C126.089 56.7728 126.671 56.2318 127.236 55.7063C127.893 55.0946 128.529 54.5037 129.488 54.1971C130.943 53.7486 131.659 52.8313 132.186 52.1562C132.368 51.9232 132.527 51.719 132.687 51.573C133.056 51.2702 133.423 51.2538 133.671 51.2426C133.852 51.2345 133.97 51.2292 133.978 51.116C133.997 50.8483 133.237 50.6437 132.25 51.2084C131.928 51.403 131.716 51.6346 131.486 51.8857C131.033 52.38 130.511 52.9496 128.948 53.4593C127.775 53.842 127.167 54.3636 126.585 54.8634C126.094 55.2851 125.621 55.6913 124.841 55.9857L131.706 48.5765C131.706 48.5765 131.926 48.3554 131.786 48.2055C131.623 48.0649 131.426 48.2768 131.426 48.2768L123.785 55.3573C124.39 54.685 124.721 53.9631 125.041 53.2617C125.415 52.4449 125.776 51.6559 126.544 51.0056C127.718 50.0342 128.028 48.9127 128.256 48.0874C128.335 47.8025 128.404 47.5529 128.496 47.3569C128.721 46.9359 129.054 46.7804 129.278 46.6753C129.443 46.5982 129.55 46.5482 129.514 46.4405C129.429 46.1859 128.649 46.2878 127.953 47.1872C127.73 47.4902 127.623 47.7854 127.506 48.1054C127.277 48.7354 127.013 49.4612 125.764 50.5304C124.826 51.3331 124.464 52.0474 124.118 52.732C123.825 53.3094 123.544 53.8657 122.936 54.4361L126.442 44.9641C126.442 44.9641 126.561 44.6756 126.375 44.5907C126.171 44.5228 126.069 44.7943 126.069 44.7943L121.719 54.2619C122.022 53.4083 122.05 52.6143 122.078 51.843C122.111 50.9454 122.142 50.0783 122.604 49.1834C123.316 47.837 123.173 46.6821 123.069 45.8321C123.033 45.5388 123.001 45.2817 123.01 45.0656C123.057 44.5905 123.305 44.3196 123.472 44.1364C123.595 44.0021 123.675 43.9151 123.6 43.8293C123.425 43.6266 122.742 44.0194 122.444 45.1167C122.354 45.4819 122.367 45.7957 122.382 46.1359C122.412 46.8057 122.445 47.5773 121.7 49.0431C121.141 50.1436 121.081 50.9419 121.022 51.707C120.973 52.3523 120.926 52.974 120.583 53.7335L120.197 43.6407C120.197 43.6407 120.197 43.3287 119.992 43.3218C119.778 43.337 119.788 43.6268 119.788 43.6268L119.391 54.0386C119.345 53.134 119.067 52.3894 118.798 51.6661C118.485 50.8243 118.182 50.0113 118.265 49.008C118.408 47.4915 117.835 46.479 117.413 45.7338C117.267 45.4766 117.139 45.2512 117.065 45.048C116.927 44.5911 117.052 44.246 117.137 44.0127C117.199 43.8417 117.239 43.7307 117.137 43.68C116.897 43.56 116.417 44.184 116.561 45.312C116.618 45.6838 116.751 45.9685 116.895 46.2771C117.178 46.8846 117.505 47.5846 117.377 49.224C117.282 50.4547 117.531 51.2154 117.77 51.9446C117.972 52.5595 118.166 53.152 118.14 53.985L113.921 44.808C113.921 44.808 113.801 44.52 113.609 44.592C113.417 44.688 113.537 44.952 113.537 44.952L117.155 54.7206C116.766 53.9039 116.225 53.3227 115.7 52.758C115.088 52.1002 114.497 51.4649 114.191 50.506C113.742 49.0503 112.825 48.3343 112.15 47.8074C111.917 47.6255 111.713 47.4661 111.567 47.3066C111.264 46.9375 111.247 46.5708 111.236 46.3229C111.228 46.1411 111.223 46.0233 111.11 46.0152C110.842 45.9962 110.637 46.7564 111.202 47.7434C111.397 48.0653 111.628 48.2775 111.879 48.5075C112.374 48.9603 112.943 49.4821 113.453 51.0454C113.836 52.219 114.357 52.8264 114.857 53.4085C115.279 53.8995 115.685 54.3725 115.979 55.1522L108.57 48.2881C108.57 48.2881 108.349 48.0679 108.199 48.2079C108.058 48.3701 108.27 48.568 108.27 48.568L115.352 56.2103C114.68 55.6038 113.957 55.2733 113.255 54.9523C112.438 54.5787 111.649 54.2179 110.999 53.4493C110.028 52.2761 108.906 51.9656 108.081 51.7372C107.796 51.6583 107.546 51.5892 107.35 51.4977C106.929 51.2725 106.774 50.94 106.669 50.7153C106.592 50.5505 106.542 50.4436 106.434 50.4795C106.179 50.5643 106.281 51.345 107.181 52.0408C107.484 52.2637 107.779 52.3711 108.099 52.4875C108.729 52.7167 109.455 52.9807 110.524 54.23C111.326 55.1678 112.041 55.5294 112.725 55.8759C113.303 56.1682 113.859 56.4497 114.429 57.0574L104.957 53.5512C104.957 53.5512 104.669 53.4324 104.584 53.619C104.516 53.8227 104.788 53.9245 104.788 53.9245L114.253 58.2739C113.4 57.9719 112.607 57.9431 111.837 57.9152C110.939 57.8826 110.072 57.8512 109.177 57.39C107.831 56.6778 106.676 56.8201 105.826 56.9249C105.533 56.961 105.275 56.9927 105.059 56.9832C104.584 56.9363 104.313 56.6886 104.13 56.5212C103.996 56.3984 103.909 56.3188 103.823 56.3932C103.62 56.569 104.013 57.2512 105.11 57.5499C105.476 57.6399 105.79 57.6261 106.13 57.6112C106.799 57.5819 107.571 57.5481 109.037 58.293C110.137 58.8523 110.936 58.913 111.701 58.9712C112.346 59.0202 112.968 59.0675 113.727 59.4106L103.635 59.796C103.635 59.796 103.323 59.7967 103.316 60.0016C103.331 60.2158 103.621 60.2059 103.621 60.2059L114.031 60.6022C113.127 60.6491 112.383 60.9262 111.66 61.1954C110.818 61.5088 110.005 61.8116 109.001 61.728C107.485 61.5852 106.472 62.1587 105.727 62.5807C105.47 62.7264 105.245 62.8541 105.041 62.928C104.584 63.0664 104.239 62.9413 104.006 62.8567C103.835 62.7947 103.724 62.7544 103.673 62.856C103.553 63.096 104.177 63.576 105.305 63.432C105.677 63.3754 105.962 63.2426 106.271 63.0986C106.878 62.8152 107.578 62.4886 109.217 62.616C110.448 62.7116 111.209 62.4621 111.938 62.2231C112.553 62.0214 113.145 61.8272 113.978 61.8535L104.801 66.072C104.801 66.072 104.513 66.192 104.585 66.384C104.681 66.576 104.945 66.456 104.945 66.456L114.718 62.837C113.9 63.2264 113.318 63.7677 112.752 64.2936C112.094 64.9053 111.459 65.4962 110.5 65.8029C109.044 66.2514 108.328 67.1686 107.802 67.8437C107.62 68.0767 107.46 68.2809 107.301 68.427C106.932 68.7297 106.565 68.7462 106.317 68.7573C106.135 68.7654 106.017 68.7707 106.009 68.884C105.99 69.1516 106.75 69.3563 107.738 68.7916C108.059 68.597 108.272 68.3653 108.502 68.1143C108.954 67.6199 109.476 67.0503 111.039 66.5406C112.213 66.158 112.82 65.6364 113.403 65.1365C113.894 64.7149 114.367 64.3087 115.146 64.0142L108.282 71.4235C108.282 71.4235 108.062 71.6446 108.202 71.7944C108.364 71.935 108.562 71.7232 108.562 71.7232L116.203 64.6427C115.597 65.3149 115.267 66.0368 114.946 66.7382C114.573 67.555 114.212 68.3441 113.443 68.9944C112.27 69.9658 111.96 71.0872 111.731 71.9125C111.652 72.1974 111.583 72.4471 111.492 72.643C111.267 73.064 110.934 73.2196 110.709 73.3247C110.544 73.4018 110.438 73.4517 110.474 73.5594C110.558 73.814 111.339 73.7122 112.035 72.8127C112.258 72.5098 112.365 72.2145 112.482 71.8945C112.711 71.2645 112.975 70.5387 114.224 69.4695C115.162 68.6669 115.523 67.9526 115.87 67.2679C116.162 66.6905 116.444 66.1342 117.051 65.5639L113.545 75.0359C113.545 75.0359 113.426 75.3244 113.613 75.4092C113.817 75.4771 113.919 75.2056 113.919 75.2056L118.269 65.7381C117.966 66.5917 117.937 67.3856 117.909 68.1569C117.877 69.0546 117.845 69.9216 117.384 70.8165C116.672 72.163 116.814 73.3179 116.919 74.1678C116.955 74.4612 116.987 74.7183 116.977 74.9343C116.93 75.4094 116.683 75.6804 116.515 75.8635C116.393 75.9978 116.313 76.0849 116.387 76.1706C116.563 76.3733 117.245 75.9805 117.544 74.8833C117.634 74.5181 117.62 74.2042 117.605 73.864C117.576 73.1943 117.542 72.4226 118.287 70.9568C118.846 69.8563 118.907 69.058 118.965 68.2929C119.014 67.6476 119.062 67.0259 119.405 66.2664L119.79 76.3592C119.79 76.3592 119.791 76.6712 119.996 76.6782C120.21 76.6629 120.2 76.3731 120.2 76.3731L120.596 65.9613C120.643 66.866 120.92 67.6105 121.19 68.3338C121.503 69.1756 121.806 69.9887 121.722 70.992C121.58 72.5085 122.153 73.521 122.575 74.2661C122.721 74.5233 122.848 74.7487 122.922 74.952C123.061 75.4089 122.936 75.754 122.851 75.9872C122.789 76.1583 122.749 76.2692 122.85 76.32C123.09 76.44 123.57 75.816 123.426 74.688C123.37 74.3161 123.237 74.0314 123.093 73.7228C122.809 73.1153 122.483 72.4153 122.61 70.776C122.706 69.5452 122.456 68.7845 122.217 68.0554C122.016 67.4404 121.821 66.8479 121.848 66.015L126.066 75.192C126.066 75.192 126.186 75.48 126.378 75.408C126.57 75.312 126.45 75.048 126.45 75.048L122.834 65.2839C123.224 66.0982 123.763 66.6783 124.287 67.242C124.899 67.8997 125.49 68.5351 125.797 69.494C126.245 70.9496 127.162 71.6656 127.837 72.1925C128.07 72.3744 128.275 72.5338 128.421 72.6933C128.723 73.0625 128.74 73.4292 128.751 73.6771C128.759 73.8588 128.764 73.9767 128.878 73.9847C129.145 74.0037 129.35 73.2436 128.785 72.2565C128.591 71.9346 128.359 71.7224 128.108 71.4924C127.614 71.0396 127.044 70.5179 126.534 68.9546C126.152 67.781 125.63 67.1736 125.13 66.5914C124.709 66.1004 124.302 65.6274 124.008 64.8478L131.417 71.7119C131.417 71.7119 131.638 71.932 131.788 71.792C131.929 71.6299 131.717 71.4319 131.717 71.4319L124.635 63.7896C125.308 64.3962 126.03 64.7266 126.732 65.0476C127.549 65.4212 128.338 65.7821 128.988 66.5506C129.96 67.7239 131.081 68.0343 131.906 68.2628C132.191 68.3417 132.441 68.4108 132.637 68.5022C133.058 68.7274 133.213 69.0599 133.319 69.2847C133.396 69.4495 133.446 69.5564 133.553 69.5205C133.808 69.4356 133.706 68.655 132.807 67.9592C132.504 67.7362 132.208 67.6288 131.888 67.5124C131.258 67.2832 130.533 67.0192 129.463 65.77C128.661 64.8321 127.946 64.4706 127.262 64.124C126.684 63.8318 126.128 63.5502 125.558 62.9426L135.03 66.4488C135.03 66.4488 135.318 66.5676 135.403 66.3809C135.471 66.1773 135.199 66.0754 135.199 66.0754L125.734 61.726C126.587 62.0281 127.38 62.0568 128.15 62.0848C129.048 62.1173 129.915 62.1488 130.81 62.61C132.156 63.3222 133.311 63.1798 134.161 63.0751C134.455 63.0389 134.712 63.0072 134.928 63.0167C135.403 63.0637 135.674 63.3113 135.857 63.4788C135.991 63.6015 136.078 63.6811 136.164 63.6068C136.367 63.431 135.974 62.7487 134.877 62.4501C134.512 62.36 134.198 62.3738 133.857 62.3887C133.188 62.4181 132.416 62.4519 130.95 61.7069C129.85 61.1476 129.052 61.0869 128.286 61.0288C127.641 60.9797 127.019 60.9325 126.26 60.5894L136.353 60.2039C136.353 60.2039 136.665 60.2032 136.672 59.9983C136.656 59.7842 136.367 59.794 136.367 59.794L125.956 59.3978C126.86 59.3509 127.605 59.0738 128.328 58.8045C129.169 58.4911 129.983 58.1884 130.986 58.272C132.502 58.4147 133.515 57.8412 134.26 57.4192C134.517 57.2735 134.743 57.1459 134.946 57.072C135.403 56.9335 135.748 57.0587 135.981 57.1432C136.152 57.2053 136.263 57.2455 136.314 57.144C136.434 56.904 135.81 56.424 134.682 56.568C134.31 56.6246 134.025 56.7574 133.717 56.9013C133.109 57.1848 132.409 57.5113 130.77 57.384C129.539 57.2884 128.778 57.5378 128.049 57.7769C127.434 57.9785 126.842 58.1728 126.009 58.1464L135.186 53.928C135.186 53.928 135.474 53.808 135.402 53.616C135.306 53.424 135.042 53.544 135.042 53.544L125.271 57.1621ZM122.958 58.0188L124.812 57.3322L124.449 56.409L122.958 58.0188ZM122.662 64.818L123.585 64.4557L121.976 62.9652L122.662 64.818ZM116.403 55.5443L117.326 55.1818L118.012 57.0354L116.403 55.5443ZM123.424 55.6913L122.736 54.9772L121.974 57.0349L123.424 55.6913ZM120.605 54.3101L121.514 54.7066L120.689 56.5031L120.605 54.3101ZM119.297 56.5033L119.373 54.5276L118.381 54.5092L119.297 56.5033ZM117.03 61.9809L115.176 62.6675L115.538 63.591L117.03 61.9809ZM114.971 57.2577L115.685 56.5693L117.029 58.0195L114.971 57.2577ZM114.7 58.4795L114.304 59.3886L116.496 59.3048L114.7 58.4795ZM114.521 60.6208L116.496 60.696L114.503 61.6125L114.521 60.6208ZM117.252 65.0228L116.563 64.3086L118.013 62.965L117.252 65.0228ZM118.473 65.2933L119.383 65.6899L119.299 63.4969L118.473 65.2933ZM120.615 65.4723L120.69 63.4967L121.607 65.4907L120.615 65.4723ZM125.017 62.7423L124.302 63.4306L122.958 61.9804L125.017 62.7423ZM125.287 61.5204L125.683 60.6114L123.491 60.6951L125.287 61.5204ZM125.466 59.3791L123.491 59.3039L125.485 58.3874L125.466 59.3791Z" fill="#D3AE3B"/>
<path d="M127.014 55.3136C126.472 55.8314 125.9 56.377 125.009 56.8055L124.866 56.3972C125.877 56.0152 126.555 55.4513 127.16 54.9487C127.845 54.3786 128.436 53.8872 129.31 53.8292C128.261 54.1227 127.658 54.6985 127.014 55.3136Z" fill="#784B26"/>
<path d="M123.188 65.0152C123.617 65.9063 124.162 66.4775 124.68 67.0196C125.295 67.6636 125.871 68.2665 126.165 69.3156C126.107 68.4423 125.615 67.8512 125.045 67.1654C124.543 66.5607 123.979 65.8824 123.597 64.872L123.188 65.0152Z" fill="#784B26"/>
<path d="M116.799 54.9846C116.371 54.0935 115.825 53.5223 115.307 52.9802C114.692 52.3362 114.116 51.7333 113.823 50.6842C113.881 51.5575 114.372 52.1486 114.942 52.8344C115.445 53.4391 116.009 54.1174 116.391 55.1277L116.799 54.9846Z" fill="#784B26"/>
<path d="M124.686 52.984C124.383 53.6698 124.064 54.3925 123.405 55.1293L123.117 54.8069C123.904 54.0674 124.315 53.2868 124.681 52.591C125.097 51.8019 125.455 51.1218 126.239 50.734C125.382 51.4066 125.046 52.1693 124.686 52.984Z" fill="#784B26"/>
<path d="M121.281 54.1947C121.609 53.2617 121.627 52.4719 121.644 51.7225C121.664 50.8322 121.684 49.9987 122.218 49.0494C121.641 49.7079 121.571 50.4733 121.489 51.3613C121.417 52.1444 121.336 53.0227 120.892 54.0072L121.281 54.1947Z" fill="#784B26"/>
<path d="M118.962 54.1439C118.907 53.1567 118.622 52.4201 118.351 51.7211C118.029 50.8908 117.728 50.1134 117.858 49.0319C117.577 49.8609 117.805 50.595 118.069 51.4468C118.302 52.1978 118.564 53.0403 118.53 54.1199L118.962 54.1439Z" fill="#784B26"/>
<path d="M114.978 63.1943C114.087 63.6228 113.516 64.1684 112.974 64.6862C112.33 65.3013 111.727 65.8771 110.678 66.1706C111.551 66.1126 112.142 65.6212 112.828 65.0511C113.433 64.5485 114.111 63.9846 115.121 63.6026L114.978 63.1943Z" fill="#784B26"/>
<path d="M115.123 56.5888C114.386 55.9295 113.663 55.6106 112.978 55.3079C112.163 54.9483 111.4 54.6117 110.728 53.7547C111.115 54.5394 111.796 54.8974 112.585 55.3129C113.28 55.6792 114.061 56.0901 114.801 56.8773L115.123 56.5888Z" fill="#784B26"/>
<path d="M111.716 58.3499C112.466 58.3671 113.255 58.3852 114.188 58.7124L114.001 59.1023C113.016 58.658 112.138 58.5771 111.355 58.5049C110.467 58.4231 109.702 58.3525 109.043 57.7761C109.992 58.3103 110.826 58.3295 111.716 58.3499Z" fill="#784B26"/>
<path d="M111.715 61.6431C112.414 61.3722 113.15 61.0867 114.137 61.0319L114.113 61.4639C113.034 61.4302 112.191 61.6915 111.44 61.9245C110.589 62.1887 109.854 62.4165 109.025 62.1359C110.107 62.2662 110.884 61.9649 111.715 61.6431Z" fill="#784B26"/>
<path d="M116.583 64.8704C115.923 65.6073 115.604 66.33 115.302 67.0158C114.942 67.8305 114.605 68.5932 113.748 69.2658C114.533 68.878 114.891 68.1979 115.307 67.4088C115.673 66.713 116.084 65.9324 116.871 65.1929L116.583 64.8704Z" fill="#784B26"/>
<path d="M118.344 68.2773C118.361 67.5279 118.379 66.7381 118.706 65.8051L119.096 65.9925C118.652 66.9771 118.571 67.8554 118.499 68.6384C118.417 69.5265 118.346 70.2919 117.77 70.9504C118.304 70.0011 118.323 69.1676 118.344 68.2773Z" fill="#784B26"/>
<path d="M121.637 68.2787C121.366 67.5797 121.08 66.8431 121.026 65.8559L121.458 65.8799C121.424 66.9595 121.685 67.802 121.918 68.553C122.182 69.4048 122.41 70.1389 122.13 70.9679C122.26 69.8864 121.959 69.109 121.637 68.2787Z" fill="#784B26"/>
<path d="M124.865 63.411C125.601 64.0703 126.324 64.3892 127.01 64.6919C127.825 65.0515 128.587 65.3881 129.26 66.2451C128.872 65.4604 128.192 65.1024 127.403 64.6869C126.707 64.3206 125.927 63.9097 125.187 63.1225L124.865 63.411Z" fill="#784B26"/>
<path d="M128.271 61.6499C127.522 61.6327 126.732 61.6145 125.799 61.2874L125.987 60.8975C126.971 61.3418 127.85 61.4227 128.633 61.4949C129.521 61.5767 130.286 61.6473 130.945 62.2237C129.995 61.6895 129.162 61.6703 128.271 61.6499Z" fill="#784B26"/>
<path d="M128.273 58.3567C127.574 58.6276 126.837 58.9131 125.85 58.9679L125.874 58.5359C126.954 58.5696 127.796 58.3083 128.547 58.0753C129.399 57.8111 130.133 57.5833 130.962 57.8639C129.881 57.7336 129.103 58.0349 128.273 58.3567Z" fill="#784B26"/>
<path fill-rule="evenodd" clip-rule="evenodd" d="M131.339 48.1874L124.601 54.4307C124.813 54.0604 124.984 53.6879 125.15 53.3252L125.151 53.3226C125.527 52.5004 125.878 51.7335 126.625 51.1013C127.434 50.4309 127.844 49.6897 128.095 49.0216C128.217 48.6982 128.302 48.3915 128.377 48.1221L128.383 48.0987C128.46 47.8216 128.525 47.5919 128.608 47.4128C128.785 47.0831 129.033 46.9332 129.238 46.8327C129.271 46.8166 129.301 46.8028 129.329 46.7894C129.348 46.7805 129.367 46.7718 129.386 46.7626C129.431 46.7411 129.477 46.7181 129.515 46.6922C129.553 46.667 129.596 46.6313 129.622 46.5795C129.652 46.5217 129.653 46.4598 129.633 46.4009C129.59 46.272 129.467 46.2143 129.348 46.1992C129.226 46.1837 129.078 46.2061 128.92 46.2635C128.601 46.379 128.214 46.6456 127.854 47.1106L127.852 47.113C127.678 47.3503 127.571 47.5822 127.48 47.817C127.447 47.9017 127.417 47.9848 127.387 48.0682C127.331 48.2204 127.276 48.3741 127.202 48.5412C126.981 49.0442 126.612 49.6402 125.683 50.4353C124.726 51.2542 124.355 51.9866 124.007 52.6746L124.002 52.6843C123.792 53.0985 123.59 53.4954 123.271 53.8928L126.559 45.0095L126.561 45.0058L126.565 44.9935C126.569 44.9834 126.573 44.9694 126.578 44.9524C126.588 44.9189 126.599 44.8713 126.603 44.8187C126.611 44.7206 126.594 44.5531 126.426 44.4768L126.414 44.472C126.243 44.4149 126.117 44.5084 126.051 44.5856C126.017 44.6248 125.993 44.6654 125.978 44.6951C125.97 44.7102 125.964 44.7232 125.959 44.7327L125.954 44.7452L122.12 53.0902C122.174 52.6673 122.189 52.2584 122.203 51.8601L122.203 51.8573C122.236 50.9538 122.267 50.111 122.715 49.2412C123.206 48.312 123.301 47.4705 123.278 46.7569C123.267 46.4115 123.228 46.0957 123.193 45.8182L123.19 45.7942C123.155 45.5088 123.127 45.2717 123.136 45.0745C123.173 44.7021 123.345 44.4686 123.496 44.2972C123.52 44.2698 123.542 44.2459 123.564 44.2224L123.582 44.2023L123.606 44.1759C123.639 44.1389 123.672 44.1001 123.698 44.0615C123.723 44.0237 123.749 43.9743 123.754 43.9163C123.759 43.8518 123.736 43.7943 123.695 43.7473C123.606 43.6447 123.471 43.6384 123.355 43.67C123.237 43.7023 123.109 43.7796 122.984 43.8931C122.734 44.1218 122.478 44.5164 122.324 45.0838L122.323 45.0867C122.252 45.3727 122.243 45.6277 122.248 45.8795C122.25 45.9703 122.254 46.0586 122.258 46.1472C122.265 46.3091 122.272 46.4725 122.269 46.6549C122.257 47.2041 122.144 47.8963 121.59 48.9864C121.019 50.1092 120.957 50.9276 120.898 51.6965L120.897 51.7073C120.862 52.1703 120.828 52.6142 120.684 53.1036L120.323 43.6382L120.323 43.6342L120.322 43.6211C120.322 43.6104 120.321 43.5956 120.319 43.578C120.315 43.5434 120.307 43.4951 120.291 43.445C120.26 43.3514 120.181 43.203 119.997 43.1968L119.984 43.197C119.803 43.2098 119.723 43.3444 119.691 43.4411C119.675 43.4901 119.668 43.5368 119.665 43.5702C119.664 43.5872 119.663 43.6015 119.663 43.6119L119.663 43.6254L119.314 52.8035C119.202 52.3917 119.059 52.0079 118.92 51.6343L118.919 51.6316C118.604 50.7843 118.309 49.994 118.391 49.0189C118.489 47.9725 118.254 47.1587 117.96 46.5083C117.817 46.1935 117.661 45.9167 117.523 45.6734L117.511 45.6523C117.369 45.4021 117.253 45.1938 117.185 45.0084C117.077 44.6499 117.146 44.3684 117.22 44.1524C117.232 44.1182 117.243 44.0879 117.254 44.0584L117.254 44.0574C117.261 44.0378 117.268 44.0184 117.275 43.9982C117.292 43.9513 117.308 43.9027 117.317 43.8572C117.326 43.8126 117.331 43.757 117.313 43.7018C117.293 43.6402 117.25 43.5959 117.194 43.5681C117.072 43.5073 116.945 43.5534 116.85 43.6268C116.753 43.702 116.664 43.8224 116.593 43.9749C116.449 44.2819 116.364 44.7445 116.438 45.3277L116.438 45.3307C116.483 45.6219 116.571 45.8613 116.673 46.0917C116.71 46.1749 116.747 46.255 116.785 46.3355C116.853 46.4823 116.922 46.6303 116.989 46.8003C117.188 47.3121 117.348 47.9951 117.253 49.2142C117.156 50.4698 117.412 51.2498 117.652 51.9825L117.655 51.9928C117.8 52.434 117.938 52.8574 117.993 53.3643L114.037 44.7578L114.035 44.7541L114.03 44.7422C114.025 44.7325 114.018 44.7192 114.01 44.7037C113.993 44.6732 113.967 44.6316 113.933 44.5915C113.869 44.5168 113.739 44.4101 113.566 44.4748L113.554 44.4801C113.392 44.5609 113.37 44.716 113.377 44.8175C113.381 44.8689 113.393 44.9147 113.403 44.9466C113.408 44.9629 113.413 44.9763 113.417 44.986L113.422 44.9985L116.612 53.6129C116.351 53.2747 116.072 52.9743 115.8 52.682L115.798 52.6799C115.182 52.0179 114.608 51.4004 114.31 50.4684C114 49.464 113.472 48.8019 112.951 48.3137C112.699 48.0775 112.448 47.8817 112.228 47.7096L112.209 47.6947C111.982 47.5178 111.795 47.37 111.661 47.2246C111.424 46.9347 111.381 46.6481 111.366 46.4201C111.364 46.3839 111.363 46.3512 111.361 46.3196C111.36 46.2988 111.359 46.278 111.358 46.2567C111.356 46.207 111.352 46.156 111.343 46.1104C111.334 46.0659 111.317 46.0126 111.279 45.9685C111.237 45.9193 111.18 45.8948 111.118 45.8904C110.983 45.8808 110.883 45.9723 110.823 46.0763C110.762 46.1829 110.726 46.3281 110.719 46.4963C110.703 46.835 110.801 47.295 111.093 47.8054L111.095 47.808C111.247 48.0601 111.421 48.2473 111.603 48.4213C111.669 48.484 111.734 48.5439 111.799 48.6038C111.919 48.7132 112.039 48.8235 112.166 48.9552C112.546 49.3517 112.955 49.9214 113.334 51.084C113.724 52.2814 114.259 52.9041 114.762 53.4891L114.769 53.4973C115.071 53.8496 115.361 54.188 115.605 54.6353L108.657 48.1978L108.654 48.1951L108.644 48.1862C108.636 48.179 108.625 48.1692 108.611 48.1581C108.584 48.1364 108.544 48.1078 108.497 48.0839C108.41 48.0394 108.248 47.9906 108.114 48.1165L108.105 48.1259C107.986 48.2625 108.024 48.4145 108.071 48.5052C108.094 48.5512 108.122 48.5891 108.144 48.6147C108.155 48.6278 108.164 48.6383 108.172 48.6458L108.181 48.6554L114.424 55.3922C114.054 55.1801 113.681 55.0097 113.319 54.8439L113.316 54.8427C112.494 54.4666 111.727 54.1159 111.095 53.369C110.425 52.5595 109.684 52.1499 109.015 51.8983C108.692 51.7765 108.385 51.6916 108.116 51.617L108.093 51.6105C107.815 51.5338 107.586 51.4689 107.407 51.3858C107.077 51.2085 106.927 50.9604 106.826 50.7553C106.81 50.7225 106.797 50.6931 106.783 50.6643C106.774 50.6454 106.766 50.6267 106.756 50.6074C106.735 50.5626 106.712 50.5169 106.686 50.4783C106.661 50.4406 106.625 50.3976 106.573 50.3713C106.516 50.342 106.454 50.3412 106.395 50.3608C106.266 50.4038 106.208 50.5267 106.193 50.6456C106.178 50.7673 106.2 50.9153 106.257 51.0735C106.373 51.3923 106.639 51.7798 107.104 52.1396L107.107 52.1414C107.344 52.316 107.576 52.4225 107.811 52.5136C107.895 52.5465 107.978 52.5766 108.062 52.6069C108.214 52.6623 108.368 52.7182 108.535 52.7916C109.038 53.0124 109.634 53.3822 110.429 54.3112C111.248 55.268 111.98 55.6387 112.668 55.9869L112.678 55.9918C113.092 56.2015 113.489 56.4034 113.887 56.7229L105.003 53.4347L105 53.4332L104.987 53.4287C104.977 53.425 104.963 53.4203 104.946 53.4154C104.913 53.4057 104.865 53.3944 104.813 53.3904C104.714 53.3828 104.547 53.3994 104.471 53.5672L104.466 53.5794C104.409 53.751 104.502 53.8767 104.579 53.943C104.619 53.9766 104.659 54.0007 104.689 54.0162C104.704 54.0241 104.717 54.0301 104.727 54.0342L104.739 54.0395L113.085 57.8745C112.662 57.8201 112.252 57.8051 111.854 57.7906L111.851 57.7905C110.948 57.7578 110.105 57.7272 109.235 57.2791C108.306 56.7878 107.464 56.693 106.751 56.7162C106.405 56.7274 106.089 56.7664 105.812 56.8006L105.788 56.8035C105.503 56.8387 105.266 56.8667 105.068 56.8584C104.696 56.8207 104.462 56.6489 104.291 56.4979C104.264 56.4738 104.24 56.4518 104.216 56.4304L104.198 56.4136L104.17 56.3881C104.133 56.3549 104.094 56.3215 104.055 56.2957C104.017 56.2705 103.968 56.2445 103.91 56.24C103.846 56.2351 103.788 56.258 103.741 56.2987C103.638 56.3877 103.632 56.5233 103.664 56.6389C103.696 56.7573 103.773 56.8854 103.887 57.0097C104.116 57.26 104.51 57.516 105.078 57.6704L105.08 57.6712C105.366 57.7417 105.621 57.7514 105.873 57.7457C105.964 57.7436 106.052 57.7397 106.141 57.7358C106.303 57.7287 106.466 57.7215 106.649 57.7253C107.198 57.7369 107.89 57.8504 108.98 58.4044C110.103 58.975 110.921 59.0372 111.69 59.0957L111.701 59.0965C112.164 59.1317 112.608 59.1663 113.097 59.3095L103.632 59.671L103.628 59.6711L103.615 59.6716C103.604 59.6721 103.589 59.6731 103.572 59.675C103.537 59.6789 103.489 59.6867 103.439 59.7031C103.345 59.7337 103.197 59.8131 103.191 59.9973L103.191 60.0104C103.204 60.1908 103.338 60.2712 103.435 60.3028C103.484 60.3188 103.531 60.3256 103.564 60.3286C103.581 60.3301 103.595 60.3306 103.606 60.3308L103.619 60.3309L112.797 60.6802C112.385 60.7919 112.001 60.9346 111.628 61.0738L111.625 61.0747C110.778 61.3902 109.988 61.6845 109.012 61.6034C107.966 61.505 107.152 61.7395 106.502 62.034C106.187 62.1766 105.91 62.3334 105.667 62.4712L105.646 62.4831C105.396 62.6248 105.187 62.7414 105.002 62.8093C104.643 62.917 104.362 62.8476 104.146 62.7736C104.112 62.7619 104.081 62.7508 104.051 62.7401C104.032 62.7329 104.012 62.7257 103.992 62.7186C103.945 62.7021 103.896 62.686 103.851 62.677C103.806 62.6682 103.751 62.663 103.695 62.6811C103.634 62.7013 103.589 62.7444 103.562 62.8C103.501 62.9215 103.547 63.0492 103.62 63.1439C103.695 63.241 103.816 63.3297 103.968 63.4011C104.275 63.5448 104.738 63.6303 105.321 63.5559L105.324 63.5555C105.615 63.5112 105.855 63.4225 106.085 63.3209C106.168 63.2842 106.249 63.2468 106.329 63.2093C106.476 63.1407 106.624 63.0716 106.794 63.0054C107.306 62.8058 107.989 62.6458 109.208 62.7405C110.463 62.838 111.243 62.5823 111.976 62.3421L111.986 62.3387C112.428 62.194 112.851 62.0562 113.358 62.0011L104.751 65.9574L104.748 65.959L104.736 65.9644C104.726 65.969 104.713 65.9756 104.697 65.9842C104.667 66.001 104.625 66.0266 104.585 66.061C104.51 66.1251 104.404 66.2552 104.468 66.4278L104.474 66.4398C104.554 66.6015 104.71 66.6243 104.811 66.6165C104.862 66.6126 104.908 66.6009 104.94 66.5909C104.956 66.5858 104.97 66.5808 104.98 66.577L104.992 66.5719L113.605 63.3823C113.268 63.6431 112.968 63.9218 112.676 64.1934L112.674 64.1953C112.012 64.811 111.394 65.3853 110.462 65.6836C109.458 65.9931 108.796 66.5212 108.307 67.0422C108.071 67.2943 107.875 67.5451 107.703 67.7655L107.688 67.7847C107.512 68.0113 107.364 68.1987 107.218 68.3324C106.928 68.5691 106.642 68.6127 106.414 68.6271C106.378 68.6294 106.345 68.6308 106.313 68.6322C106.292 68.6332 106.272 68.6341 106.25 68.6352C106.201 68.6379 106.15 68.6417 106.104 68.6508C106.06 68.6597 106.006 68.6762 105.962 68.714C105.913 68.7562 105.889 68.8131 105.884 68.875C105.874 69.0105 105.966 69.1109 106.07 69.1703C106.177 69.2312 106.322 69.2671 106.49 69.2747C106.829 69.29 107.289 69.192 107.799 68.9L107.802 68.8985C108.054 68.7461 108.241 68.5726 108.415 68.3905C108.478 68.3249 108.538 68.2595 108.597 68.1941C108.707 68.0746 108.817 67.9541 108.949 67.8278C109.345 67.4477 109.915 67.0385 111.078 66.6594C112.275 66.269 112.898 65.7342 113.483 65.2319L113.491 65.2248C113.843 64.9223 114.182 64.6329 114.629 64.3881L108.192 71.3368L108.189 71.3397L108.18 71.3492C108.173 71.3572 108.163 71.3684 108.152 71.3822C108.13 71.4094 108.101 71.449 108.078 71.4961C108.033 71.5839 107.984 71.745 108.11 71.8797L108.12 71.8888C108.256 72.0072 108.408 71.969 108.499 71.9229C108.545 71.8996 108.583 71.8713 108.608 71.8498C108.622 71.8389 108.632 71.8292 108.64 71.8219L108.649 71.8124L115.387 65.5691C115.174 65.9394 115.004 66.3119 114.838 66.6746L114.837 66.6772C114.461 67.4994 114.11 68.2663 113.363 68.8985C112.553 69.5689 112.144 70.3101 111.892 70.9782C111.77 71.3016 111.686 71.6082 111.611 71.8777L111.604 71.9011C111.528 72.1781 111.463 72.4079 111.38 72.587C111.202 72.9166 110.954 73.0666 110.749 73.1671C110.716 73.1832 110.687 73.197 110.658 73.2104C110.639 73.2193 110.621 73.228 110.601 73.2372C110.556 73.2587 110.511 73.2817 110.472 73.3075C110.434 73.3328 110.392 73.3685 110.365 73.4203C110.336 73.4781 110.335 73.54 110.355 73.5989C110.398 73.7278 110.521 73.7855 110.639 73.8006C110.761 73.8161 110.909 73.7936 111.067 73.7363C111.386 73.6208 111.774 73.3542 112.134 72.8892L112.135 72.8868C112.31 72.6495 112.416 72.4176 112.508 72.1828C112.54 72.0982 112.571 72.0152 112.601 71.932C112.656 71.7797 112.712 71.6257 112.785 71.4586C113.006 70.9556 113.376 70.3595 114.305 69.5644C115.262 68.7455 115.633 68.0132 115.981 67.3252L115.986 67.3155C116.195 66.9013 116.397 66.5044 116.717 66.107L113.429 74.9903L113.427 74.994L113.423 75.0062C113.419 75.0164 113.414 75.0304 113.409 75.0474C113.4 75.0809 113.388 75.1284 113.384 75.1811C113.377 75.2792 113.393 75.4467 113.561 75.523L113.573 75.5278C113.745 75.5849 113.871 75.4914 113.937 75.4142C113.97 75.375 113.995 75.3344 114.01 75.3047C114.018 75.2896 114.024 75.2766 114.028 75.2671L114.033 75.2546L117.868 66.9095C117.814 67.3325 117.799 67.7414 117.784 68.1397L117.784 68.1425C117.751 69.046 117.721 69.8888 117.273 70.7586C116.781 71.6878 116.687 72.5293 116.71 73.2429C116.721 73.5883 116.76 73.9041 116.794 74.1816L116.797 74.2056C116.832 74.4909 116.86 74.7281 116.852 74.9253C116.814 75.2977 116.643 75.5312 116.492 75.7026C116.467 75.73 116.446 75.7539 116.424 75.7774L116.406 75.7975L116.382 75.8239C116.349 75.8609 116.315 75.8997 116.289 75.9383C116.264 75.9761 116.238 76.0255 116.234 76.0835C116.229 76.148 116.252 76.2055 116.292 76.2524C116.381 76.3551 116.517 76.3614 116.633 76.3298C116.751 76.2975 116.879 76.2202 117.003 76.1066C117.254 75.878 117.51 75.4834 117.664 74.916L117.665 74.9131C117.735 74.6271 117.745 74.3721 117.739 74.1203C117.737 74.0294 117.733 73.9411 117.73 73.8524C117.722 73.6905 117.715 73.5273 117.719 73.3449C117.731 72.7957 117.844 72.1035 118.398 71.0134C118.969 69.8906 119.031 69.0722 119.089 68.3033L119.09 68.2925C119.125 67.8295 119.16 67.3856 119.303 66.8962L119.665 76.3616L119.665 76.3656L119.665 76.3786C119.666 76.3894 119.667 76.4042 119.669 76.4218C119.673 76.4564 119.68 76.5046 119.697 76.5548C119.727 76.6484 119.807 76.7968 119.991 76.803L120.004 76.8028C120.184 76.7899 120.265 76.6554 120.297 76.5587C120.313 76.5097 120.319 76.4629 120.322 76.4296C120.324 76.4126 120.324 76.3983 120.325 76.3879L120.325 76.3743L120.674 67.1963C120.786 67.6081 120.928 67.9919 121.067 68.3655L121.068 68.3682C121.384 69.2154 121.678 70.0058 121.597 70.9809C121.499 72.0273 121.733 72.8411 122.028 73.4915C122.17 73.8063 122.327 74.0831 122.465 74.3264L122.477 74.3475C122.618 74.5976 122.735 74.806 122.803 74.9914C122.911 75.3499 122.841 75.6313 122.767 75.8474C122.756 75.8814 122.745 75.9117 122.734 75.9411L122.734 75.9422L122.726 75.9635L122.712 76.0016C122.696 76.0485 122.68 76.0971 122.671 76.1426C122.662 76.1872 122.657 76.2427 122.675 76.298C122.695 76.3596 122.738 76.4039 122.794 76.4317C122.915 76.4925 123.043 76.4464 123.138 76.373C123.235 76.2978 123.323 76.1774 123.395 76.0249C123.539 75.7179 123.624 75.2553 123.55 74.6721L123.549 74.6691C123.505 74.3778 123.416 74.1385 123.315 73.9081C123.278 73.8249 123.24 73.7448 123.203 73.6643C123.134 73.5175 123.065 73.3695 122.999 73.1995C122.8 72.6877 122.64 72.0047 122.734 70.7856C122.832 69.53 122.576 68.75 122.336 68.0173L122.332 68.007C122.188 67.5658 122.05 67.1424 121.995 66.6355L125.951 75.242L125.953 75.2457L125.958 75.2576C125.963 75.2673 125.969 75.2806 125.978 75.2961C125.995 75.3266 126.02 75.3682 126.055 75.4082C126.119 75.483 126.249 75.5897 126.421 75.5249L126.433 75.5197C126.595 75.4389 126.618 75.2838 126.61 75.1823C126.606 75.1309 126.595 75.0851 126.585 75.0532C126.579 75.0369 126.575 75.0235 126.571 75.0138L126.566 75.0013L123.376 66.3869C123.637 66.7251 123.916 67.0255 124.188 67.3178L124.189 67.3199C124.805 67.9819 125.379 68.5994 125.678 69.5314C125.987 70.5358 126.515 71.1979 127.036 71.6861C127.289 71.9223 127.539 72.1181 127.76 72.2901L127.779 72.3051C128.005 72.482 128.193 72.6298 128.327 72.7752C128.563 73.0651 128.607 73.3517 128.621 73.5797C128.624 73.616 128.625 73.6487 128.626 73.6803C128.627 73.7012 128.628 73.7218 128.629 73.7431C128.632 73.7928 128.636 73.8438 128.645 73.8893C128.654 73.9339 128.67 73.9872 128.708 74.0313C128.75 74.0805 128.807 74.105 128.869 74.1094C129.005 74.119 129.105 74.0275 129.164 73.9235C129.225 73.8169 129.261 73.6717 129.269 73.5035C129.284 73.1648 129.186 72.7048 128.894 72.1944L128.893 72.1918C128.74 71.9397 128.567 71.7525 128.385 71.5785C128.319 71.5158 128.254 71.456 128.188 71.3961C128.069 71.2867 127.948 71.1763 127.822 71.0446C127.442 70.6481 127.033 70.0784 126.654 68.9158C126.263 67.7184 125.728 67.0957 125.226 66.5107L125.219 66.5024C124.917 66.1502 124.627 65.8118 124.382 65.3645L131.331 71.802L131.334 71.8047L131.343 71.8136C131.351 71.8208 131.363 71.8306 131.376 71.8417C131.404 71.8634 131.443 71.892 131.49 71.9159C131.578 71.9604 131.739 72.0092 131.874 71.8833L131.883 71.8739C132.001 71.7373 131.963 71.5853 131.917 71.4946C131.894 71.4485 131.865 71.4107 131.844 71.385C131.833 71.372 131.823 71.3615 131.816 71.3539L131.807 71.3444L125.564 64.6076C125.934 64.8197 126.306 64.9901 126.669 65.1559L126.671 65.1571C127.493 65.5332 128.26 65.8839 128.893 66.6308C129.563 67.4403 130.304 67.8499 130.972 68.1015C131.296 68.2233 131.602 68.3082 131.872 68.3828L131.895 68.3893C132.172 68.466 132.402 68.5309 132.581 68.614C132.911 68.7913 133.061 69.0394 133.161 69.2445C133.177 69.2773 133.191 69.3067 133.204 69.3355C133.213 69.3544 133.222 69.3731 133.231 69.3924C133.253 69.4372 133.276 69.4829 133.302 69.5215C133.327 69.5592 133.362 69.6022 133.414 69.6285C133.472 69.6578 133.534 69.6586 133.593 69.639C133.722 69.596 133.78 69.4731 133.795 69.3542C133.81 69.2325 133.788 69.0845 133.73 68.9263C133.615 68.6075 133.348 68.22 132.883 67.8602L132.881 67.8584C132.644 67.6838 132.412 67.5773 132.177 67.4862C132.092 67.4533 132.009 67.4232 131.926 67.3929C131.774 67.3375 131.62 67.2816 131.453 67.2082C130.95 66.9874 130.354 66.6176 129.558 65.6886C128.74 64.7318 128.007 64.3611 127.319 64.0129L127.31 64.008C126.895 63.7983 126.498 63.5964 126.101 63.2769L134.984 66.5651L134.988 66.5666L135 66.5711C135.01 66.5748 135.024 66.5795 135.041 66.5844C135.075 66.5941 135.122 66.6054 135.175 66.6094C135.273 66.617 135.441 66.6003 135.517 66.4326L135.522 66.4204C135.579 66.2488 135.485 66.1231 135.408 66.0568C135.369 66.0232 135.328 65.9991 135.299 65.9836C135.284 65.9757 135.271 65.9697 135.261 65.9656L135.249 65.9603L126.903 62.1253C127.326 62.1797 127.735 62.1947 128.134 62.2092L128.137 62.2093C129.04 62.242 129.883 62.2726 130.753 62.7207C131.682 63.212 132.523 63.3068 133.237 63.2836C133.582 63.2724 133.898 63.2334 134.176 63.1992L134.2 63.1963C134.485 63.1611 134.722 63.1331 134.919 63.1414C135.292 63.1791 135.525 63.3509 135.697 63.5019C135.724 63.526 135.748 63.548 135.771 63.5694L135.79 63.5862L135.818 63.6117C135.855 63.6449 135.894 63.6783 135.932 63.7041C135.97 63.7293 136.02 63.7553 136.078 63.7598C136.142 63.7647 136.2 63.7418 136.247 63.7011C136.349 63.6121 136.355 63.4765 136.324 63.3609C136.292 63.2425 136.214 63.1144 136.101 62.9901C135.872 62.7398 135.477 62.4838 134.91 62.3294L134.907 62.3286C134.621 62.2581 134.366 62.2484 134.114 62.2541C134.024 62.2562 133.935 62.2601 133.847 62.264C133.685 62.2711 133.521 62.2783 133.339 62.2745C132.79 62.2629 132.098 62.1494 131.007 61.5954C129.885 61.0248 129.066 60.9626 128.297 60.9041L128.287 60.9033C127.824 60.8681 127.38 60.8335 126.89 60.6903L136.356 60.3288L136.36 60.3287L136.373 60.3282L136.377 60.328C136.388 60.3274 136.401 60.3264 136.416 60.3247C136.45 60.3209 136.499 60.3131 136.549 60.2967C136.642 60.2661 136.791 60.1867 136.797 60.0025L136.797 59.9894C136.784 59.809 136.65 59.7286 136.553 59.697C136.504 59.6809 136.457 59.6742 136.424 59.6712C136.407 59.6697 136.392 59.6692 136.382 59.669L136.368 59.6689L127.191 59.3196C127.602 59.2079 127.986 59.0652 128.36 58.926L128.362 58.925C129.21 58.6096 130 58.3153 130.975 58.3964C132.022 58.4948 132.835 58.2603 133.486 57.9658C133.801 57.8232 134.077 57.6664 134.321 57.5286L134.342 57.5167C134.592 57.375 134.8 57.2584 134.986 57.1905C135.344 57.0828 135.626 57.1522 135.842 57.2262C135.876 57.2379 135.907 57.249 135.936 57.2598C135.956 57.267 135.976 57.2741 135.996 57.2812C136.043 57.2977 136.091 57.3138 136.137 57.3228C136.181 57.3316 136.237 57.3368 136.292 57.3187C136.354 57.2985 136.398 57.2554 136.426 57.1998C136.487 57.0783 136.441 56.9506 136.367 56.8559C136.292 56.7588 136.172 56.6701 136.019 56.5987C135.712 56.455 135.25 56.3694 134.666 56.4439L134.663 56.4443C134.372 56.4886 134.133 56.5773 133.902 56.6789C133.819 56.7156 133.739 56.753 133.659 56.7905C133.512 56.8591 133.364 56.9282 133.194 56.9944C132.682 57.194 131.999 57.354 130.78 57.2593C129.524 57.1617 128.744 57.4175 128.012 57.6577L128.001 57.6611C127.56 57.8058 127.137 57.9436 126.63 57.9987L135.236 54.0424L135.24 54.0408L135.252 54.0354C135.262 54.0308 135.275 54.0242 135.29 54.0156C135.321 53.9988 135.362 53.9732 135.403 53.9388C135.477 53.8747 135.584 53.7446 135.519 53.572L135.514 53.56C135.433 53.3983 135.278 53.3755 135.177 53.3833C135.125 53.3872 135.079 53.3989 135.047 53.4089C135.031 53.414 135.018 53.419 135.008 53.4228L134.996 53.4279L126.382 56.6175C126.72 56.3567 127.02 56.078 127.312 55.8064L127.314 55.8045C127.976 55.1888 128.594 54.6145 129.526 54.3162C130.53 54.0066 131.192 53.4786 131.68 52.9576C131.916 52.7054 132.112 52.4546 132.284 52.2342L132.299 52.2151C132.476 51.9885 132.624 51.8011 132.769 51.6674C133.059 51.4307 133.346 51.3871 133.574 51.3727C133.61 51.3704 133.643 51.369 133.674 51.3676C133.695 51.3666 133.716 51.3657 133.737 51.3646C133.787 51.3619 133.838 51.3581 133.884 51.349C133.928 51.3401 133.981 51.3236 134.025 51.2857C134.075 51.2436 134.099 51.1867 134.104 51.1248C134.113 50.9893 134.022 50.8889 133.918 50.8295C133.811 50.7686 133.666 50.7327 133.498 50.7251C133.159 50.7098 132.699 50.8078 132.189 51.0998L132.186 51.1013C131.934 51.2537 131.747 51.4272 131.573 51.6093C131.51 51.6748 131.45 51.7401 131.39 51.8055C131.281 51.925 131.17 52.0456 131.039 52.1719C130.642 52.5521 130.073 52.9613 128.91 53.3404C127.713 53.7308 127.09 54.2655 126.505 54.7679L126.497 54.775C126.144 55.0774 125.806 55.3668 125.359 55.6117L131.796 48.663L131.799 48.6601L131.808 48.6505C131.815 48.6426 131.825 48.6314 131.836 48.6176C131.858 48.5904 131.886 48.5507 131.91 48.5037C131.955 48.4159 132.003 48.2548 131.877 48.1201L131.868 48.111C131.731 47.9926 131.579 48.0308 131.489 48.0769C131.443 48.1002 131.405 48.1285 131.379 48.15C131.366 48.1609 131.356 48.1706 131.348 48.1778L131.339 48.1874ZM124.856 57.4494L124.863 57.4689C125.023 57.4103 125.175 57.3461 125.32 57.2773L135.086 53.6611L135.099 53.6555C135.105 53.6535 135.112 53.6505 135.122 53.6474C135.143 53.6409 135.169 53.6346 135.196 53.6325C135.246 53.6286 135.272 53.6397 135.287 53.6655C135.292 53.6843 135.286 53.7092 135.24 53.749C135.217 53.7686 135.191 53.7849 135.17 53.7967C135.159 53.8024 135.151 53.8066 135.145 53.8094L125.984 58.0204C125.833 58.0147 125.675 58.0017 125.506 57.9799L125.474 58.2279L125.52 58.2336L123.466 59.1778L122.848 59.1543L130.386 55.7039L122.592 58.5978L123.03 58.1255L124.856 57.4494ZM125.223 57.0466C126.014 56.6691 126.581 56.1452 127.142 55.6233L127.158 55.6085C127.811 55.0005 128.464 54.3931 129.45 54.0779L129.451 54.0775C130.405 53.7838 131.031 53.2845 131.498 52.7867C131.726 52.5429 131.916 52.2997 132.089 52.0781L132.102 52.0613C132.276 51.8381 132.438 51.6315 132.603 51.4807L132.608 51.4762C132.957 51.19 133.306 51.1391 133.558 51.1232C133.595 51.1208 133.633 51.1191 133.667 51.1176L133.724 51.1149C133.773 51.1123 133.808 51.1091 133.834 51.1038C133.842 51.1023 133.848 51.1008 133.853 51.0994L133.851 51.0963C133.85 51.0947 133.849 51.093 133.848 51.0911C133.84 51.0801 133.824 51.0639 133.794 51.0465C133.732 51.0114 133.629 50.9813 133.486 50.9748C133.203 50.9621 132.79 51.0439 132.314 51.316C132.089 51.4523 131.919 51.6083 131.753 51.782C131.698 51.84 131.642 51.9015 131.583 51.9652C131.47 52.0888 131.349 52.2212 131.212 52.3524C130.786 52.7611 130.182 53.1885 128.987 53.5781C127.838 53.953 127.246 54.4614 126.666 54.9589L126.659 54.9646C126.174 55.3815 125.694 55.7918 124.914 56.092L123.406 57.7197L125.223 57.0466ZM122.887 57.9118L124.423 56.2534L124.379 56.2656L124.313 56.0243C124.477 55.98 124.629 55.9313 124.77 55.879L131.623 48.4826C131.627 48.4779 131.633 48.4706 131.641 48.4614C131.656 48.4425 131.673 48.4175 131.687 48.3906C131.715 48.3361 131.71 48.3109 131.699 48.2954C131.675 48.2775 131.647 48.2769 131.602 48.2998C131.578 48.3119 131.556 48.3278 131.54 48.3416L131.531 48.3487L131.524 48.3555L131.522 48.3579L131.511 48.3684L123.872 55.4473C123.765 55.566 123.649 55.6831 123.523 55.7984L123.509 55.7832L122.081 57.1067L121.858 57.7104L127.951 52.0541L122.307 58.1265L122.887 57.9118ZM121.488 59.0077L121.93 58.533L122.511 58.3176L122.073 58.7907L121.488 59.0077ZM120.004 59.994L120 59.9905L119.996 59.9888L119.992 59.9888L119.987 59.9907L119.984 59.9937L119.983 59.9974L119.983 60.0026L119.984 60.0058L119.987 60.0093L119.991 60.011L119.996 60.011L120 60.0091L120.004 60.0061L120.005 60.0024L120.005 59.9972L120.004 59.994ZM121.396 62.5975L124.29 70.3919L120.839 62.8542L120.816 63.4718L121.76 65.5258L121.766 65.4799L122.014 65.5119C121.992 65.6803 121.979 65.839 121.973 65.9896L126.184 75.1507L126.19 75.1622L126.197 75.1755C126.209 75.1967 126.225 75.2226 126.244 75.2455C126.284 75.2919 126.309 75.2974 126.328 75.2927C126.354 75.2772 126.365 75.2521 126.361 75.2015C126.359 75.1749 126.353 75.1487 126.346 75.1281C126.344 75.1217 126.342 75.1161 126.34 75.1115L126.338 75.1051L126.332 75.0913L122.715 65.3221C122.647 65.1785 122.583 65.0277 122.525 64.8686L122.544 64.8616L121.868 63.035L121.396 62.5975ZM122.274 63.411L122.945 65.2254C123.323 66.0179 123.848 66.5854 124.371 67.1475L124.385 67.1634C124.993 67.8172 125.601 68.4702 125.916 69.4558L125.916 69.4571C126.21 70.4105 126.709 71.0372 127.207 71.5036C127.451 71.7321 127.694 71.9218 127.916 72.0949L127.933 72.108C128.156 72.2822 128.362 72.4442 128.513 72.6088L128.518 72.614C128.804 72.963 128.855 73.3115 128.871 73.5639C128.873 73.6012 128.875 73.6392 128.876 73.6733L128.879 73.7297C128.882 73.7785 128.885 73.8139 128.89 73.8403L128.892 73.8509L128.895 73.8584C128.896 73.8579 128.897 73.8572 128.899 73.8563L128.903 73.8537C128.914 73.846 128.93 73.8299 128.947 73.7995C128.983 73.738 129.013 73.6351 129.019 73.4922C129.032 73.209 128.95 72.796 128.678 72.3199C128.542 72.0948 128.386 71.9253 128.212 71.7592C128.154 71.7037 128.092 71.6473 128.028 71.5888C127.905 71.4755 127.773 71.3544 127.642 71.2176C127.233 70.7914 126.805 70.188 126.416 68.9933C126.041 67.8434 125.533 67.2514 125.035 66.6721L125.029 66.6653C124.612 66.1799 124.202 65.7003 123.902 64.9196L122.274 63.411ZM122.081 62.8922L121.867 62.3127L127.94 67.9568L122.284 61.8639L122.888 62.0874L124.211 63.5153L124.195 63.5295C124.311 63.6557 124.429 63.7721 124.549 63.8798L131.626 71.5168L131.636 71.5274C131.64 71.5313 131.646 71.5376 131.652 71.5456C131.666 71.5621 131.682 71.5839 131.694 71.6077C131.717 71.6529 131.716 71.6804 131.699 71.7045C131.683 71.7161 131.658 71.7206 131.603 71.6929C131.576 71.6793 131.551 71.6616 131.533 71.6464C131.523 71.639 131.516 71.6327 131.511 71.6284L124.115 64.7761C124.063 64.6348 124.014 64.4832 123.97 64.3193L123.728 64.3846L123.741 64.4292L122.081 62.8922ZM121.46 61.9349L121.676 62.5163L121.203 62.078L120.986 61.4937L121.46 61.9349ZM117.463 55.1312L117.443 55.1382L118.12 56.9648L118.592 57.4023L115.698 49.6079L119.148 57.1456L119.172 56.528L118.228 54.474L118.222 54.5199L117.974 54.4879C117.996 54.3195 118.009 54.1608 118.015 54.0102L113.804 44.8491L113.798 44.8376L113.791 44.8243C113.779 44.8031 113.763 44.7771 113.743 44.7542C113.703 44.7079 113.678 44.7024 113.66 44.7071C113.634 44.7226 113.623 44.7477 113.627 44.7983C113.629 44.8249 113.635 44.8511 113.642 44.8717C113.645 44.8816 113.648 44.8896 113.65 44.8947L113.655 44.9085L117.273 54.6777C117.341 54.8213 117.405 54.9721 117.463 55.1312ZM115.617 52.8523C116.14 53.4144 116.665 53.9819 117.042 54.7744L117.714 56.5888L116.086 55.0802C115.785 54.2995 115.375 53.8199 114.958 53.3345L114.953 53.3277C114.455 52.7484 113.947 52.1564 113.572 51.0065C113.182 49.8118 112.755 49.2084 112.346 48.7822C112.215 48.6454 112.083 48.5243 111.959 48.411C111.895 48.3525 111.834 48.296 111.776 48.2406C111.602 48.0745 111.446 47.905 111.31 47.6799C111.038 47.2038 110.956 46.7908 110.969 46.5076C110.975 46.3647 111.005 46.2618 111.04 46.2003C111.058 46.1699 111.074 46.1538 111.085 46.1461C111.088 46.1438 111.091 46.1423 111.093 46.1414C111.094 46.1458 111.096 46.1517 111.098 46.1595C111.103 46.1859 111.106 46.2213 111.109 46.2701L111.111 46.3265C111.113 46.3606 111.115 46.3986 111.117 46.4359C111.133 46.6883 111.184 47.0368 111.47 47.3858L111.474 47.391C111.625 47.5556 111.832 47.7175 112.055 47.8918L112.072 47.9049C112.293 48.078 112.537 48.2677 112.78 48.4962C113.278 48.9626 113.777 49.5893 114.071 50.5427L114.072 50.544C114.387 51.5296 114.994 52.1826 115.602 52.8364L115.617 52.8523ZM116.247 55.5706L117.906 57.1076L118.121 57.6871L112.048 52.043L117.704 58.1359L117.1 57.9124L115.777 56.4845L115.792 56.4703C115.676 56.3441 115.558 56.2277 115.439 56.12L108.362 48.483L108.352 48.4724C108.348 48.4685 108.342 48.4622 108.335 48.4542C108.321 48.4377 108.306 48.4159 108.293 48.3921C108.271 48.3469 108.271 48.3194 108.289 48.2953C108.305 48.2837 108.33 48.2792 108.384 48.3069C108.411 48.3205 108.436 48.3382 108.455 48.3534C108.464 48.3608 108.472 48.3671 108.476 48.3714L115.873 55.2237C115.925 55.365 115.974 55.5165 116.018 55.6805L116.259 55.6152L116.247 55.5706ZM118.527 58.0649L119.002 58.5061L118.785 57.9218L118.312 57.4835L118.527 58.0649ZM120.995 58.5113L121.451 58.0874L121.675 57.4827L121.221 57.9039L120.995 58.5113ZM121.414 57.3838L121.867 56.964L122.652 54.8435L122.616 54.8719L122.463 54.674C122.598 54.5702 122.719 54.4673 122.829 54.3649L126.33 44.9093C126.332 44.9033 126.335 44.8941 126.338 44.8828C126.345 44.8595 126.352 44.8296 126.354 44.7995C126.359 44.7386 126.345 44.7171 126.328 44.7072C126.299 44.6999 126.274 44.7098 126.241 44.7483C126.223 44.7686 126.209 44.7916 126.199 44.8107C126.194 44.82 126.191 44.8277 126.189 44.8327L126.183 44.8465L121.836 54.3056C121.782 54.4576 121.72 54.6116 121.647 54.7675L121.628 54.7586L120.815 56.5273L120.84 57.171L124.305 49.6139L121.414 57.3838ZM120.609 57.6747L120.584 57.03L120.325 57.5936L120.349 58.2416L120.609 57.6747ZM119.649 58.2392L119.672 57.6163L119.403 57.0306L119.379 57.6502L119.649 58.2392ZM120.002 48.7549L120.305 57.0391L120.563 56.4772L120.477 54.2187L120.454 54.2589L120.237 54.1345C120.322 53.9872 120.395 53.8456 120.457 53.7087L120.073 43.6334C120.072 43.627 120.072 43.6174 120.07 43.6056C120.068 43.5815 120.063 43.5513 120.053 43.5226C120.034 43.4646 120.013 43.4499 119.994 43.4472C119.964 43.4516 119.945 43.4705 119.929 43.5188C119.92 43.5441 119.916 43.5708 119.914 43.5922C119.913 43.6027 119.913 43.6111 119.913 43.6166L119.913 43.6315L119.517 54.0365C119.525 54.1968 119.526 54.3622 119.519 54.5332L119.498 54.5323L119.424 56.4778L119.693 57.0625L120.002 48.7549ZM124.923 53.2212C124.604 53.9184 124.28 54.6196 123.694 55.2712L122.273 56.588L123.043 54.5068C123.65 53.9307 123.936 53.368 124.225 52.7972L124.229 52.7893C124.574 52.108 124.926 51.4117 125.845 50.6253C126.8 49.8082 127.194 49.1824 127.431 48.6417C127.507 48.4683 127.568 48.3 127.626 48.1426L127.626 48.1416L127.627 48.1404C127.656 48.0597 127.684 47.9818 127.713 47.9074C127.8 47.6834 127.897 47.4744 128.053 47.2624C128.389 46.8288 128.739 46.5951 129.005 46.4985C129.14 46.4498 129.246 46.4383 129.317 46.4472C129.351 46.4516 129.373 46.4604 129.384 46.4677C129.386 46.4691 129.388 46.4704 129.389 46.4716L129.391 46.4735C129.388 46.4764 129.383 46.4801 129.376 46.4845C129.354 46.4995 129.322 46.516 129.278 46.5371L129.227 46.5611C129.196 46.5756 129.162 46.5917 129.128 46.6082C128.901 46.7195 128.599 46.8999 128.386 47.2979L128.383 47.304C128.288 47.5062 128.218 47.7591 128.142 48.032L128.137 48.0525C128.062 48.3235 127.979 48.6208 127.861 48.9334C127.621 49.5719 127.233 50.273 126.465 50.9092L126.464 50.9101C125.674 51.5785 125.303 52.3895 124.932 53.2014L124.923 53.2212ZM121.604 54.211C121.896 53.3862 121.926 52.616 121.953 51.8511L121.954 51.8293C121.987 50.9371 122.019 50.0459 122.493 49.1261L122.494 49.1249C122.96 48.243 123.05 47.4469 123.028 46.765C123.017 46.4311 122.979 46.125 122.945 45.8458L122.942 45.8247C122.908 45.5437 122.876 45.2831 122.886 45.0601L122.886 45.0533C122.931 44.6041 123.141 44.3217 123.308 44.1319C123.333 44.1038 123.359 44.0754 123.382 44.0502L123.42 44.0088C123.453 43.9725 123.475 43.9452 123.49 43.9228C123.495 43.9162 123.498 43.9109 123.5 43.9069C123.498 43.906 123.495 43.9051 123.491 43.9044C123.478 43.902 123.455 43.9019 123.421 43.9112C123.353 43.9298 123.258 43.9812 123.153 44.0777C122.944 44.2689 122.709 44.6189 122.565 45.1479C122.502 45.4035 122.493 45.6336 122.498 45.8739C122.5 45.9541 122.504 46.0376 122.507 46.1242C122.515 46.2917 122.523 46.4707 122.519 46.6602C122.506 47.2505 122.382 47.9795 121.812 49.0997C121.264 50.1779 121.205 50.956 121.147 51.7174L121.147 51.7263C121.098 52.3643 121.049 52.9936 120.709 53.7578L120.794 55.9746L121.604 54.211ZM118.266 53.9592L119.193 55.9752L119.267 54.0377C119.22 53.1632 118.953 52.4395 118.686 51.7215L118.678 51.7011C118.367 50.8644 118.056 50.0287 118.141 48.9975L118.142 48.9962C118.235 48.0029 118.014 47.2329 117.732 46.6115C117.594 46.3071 117.442 46.0387 117.304 45.794L117.293 45.7755C117.154 45.5291 117.025 45.3004 116.949 45.0906L116.946 45.0841C116.816 44.6522 116.902 44.3107 116.984 44.0714C116.996 44.0358 117.009 43.9999 117.021 43.9677L117.04 43.915C117.056 43.869 117.066 43.8351 117.072 43.8086C117.073 43.8009 117.074 43.7948 117.075 43.7902L117.072 43.7904C117.07 43.7906 117.068 43.7909 117.065 43.7914C117.052 43.7943 117.031 43.803 117.003 43.8245C116.947 43.8678 116.88 43.9514 116.819 44.0809C116.699 44.3376 116.617 44.7505 116.686 45.2946C116.726 45.5546 116.805 45.7709 116.902 45.9908C116.934 46.0643 116.97 46.14 117.006 46.2185C117.077 46.3705 117.153 46.5329 117.222 46.7095C117.436 47.2597 117.6 47.9807 117.503 49.2336C117.409 50.4394 117.652 51.1809 117.89 51.9065L117.893 51.9149C118.092 52.5229 118.288 53.1231 118.266 53.9592ZM115.132 62.5504L115.125 62.5308C114.964 62.5895 114.812 62.6537 114.667 62.7225L104.902 66.3387L104.888 66.3443C104.883 66.3463 104.875 66.3493 104.865 66.3524C104.845 66.3589 104.818 66.3652 104.792 66.3673C104.741 66.3712 104.716 66.3601 104.701 66.3343C104.696 66.3155 104.701 66.2906 104.748 66.2508C104.771 66.2312 104.797 66.2148 104.818 66.2031C104.828 66.1974 104.837 66.1932 104.843 66.1904L114.004 61.9794C114.154 61.9851 114.313 61.9981 114.481 62.0199L114.513 61.7719L114.468 61.7662L116.522 60.822L117.139 60.8455L109.601 64.2959L117.395 61.402L116.958 61.8743L115.132 62.5504ZM114.764 62.9532C113.974 63.3308 113.407 63.8546 112.846 64.3765L112.83 64.3913C112.176 64.9993 111.523 65.6066 110.538 65.9219L110.536 65.9223C109.583 66.216 108.956 66.7153 108.49 67.2131C108.261 67.4569 108.072 67.7 107.899 67.9217L107.885 67.9385C107.711 68.1617 107.549 68.3683 107.385 68.5191L107.38 68.5235C107.031 68.8098 106.682 68.8606 106.43 68.8766C106.392 68.8789 106.354 68.8806 106.32 68.8822L106.264 68.8849C106.215 68.8875 106.18 68.8907 106.153 68.8959C106.145 68.8975 106.139 68.899 106.135 68.9004C106.136 68.9026 106.138 68.9053 106.14 68.9087C106.147 68.9196 106.164 68.9358 106.194 68.9532C106.256 68.9884 106.358 69.0185 106.501 69.025C106.784 69.0377 107.197 68.9559 107.674 68.6838C107.899 68.5475 108.068 68.3915 108.234 68.2178C108.29 68.1597 108.346 68.0981 108.405 68.0343C108.518 67.9107 108.639 67.7786 108.776 67.6474C109.202 67.2387 109.805 66.8113 111 66.4217C112.15 66.0468 112.742 65.5384 113.321 65.0409L113.328 65.0351C113.814 64.6183 114.293 64.208 115.074 63.9078L116.582 62.2801L114.764 62.9532ZM117.101 62.088L115.564 63.7464L115.609 63.7341L115.674 63.9755C115.51 64.0198 115.359 64.0685 115.217 64.1208L108.365 71.5172C108.361 71.5219 108.354 71.5291 108.347 71.5384C108.332 71.5573 108.314 71.5823 108.301 71.6092C108.273 71.6637 108.277 71.6889 108.289 71.7044C108.313 71.7223 108.341 71.7229 108.386 71.7C108.41 71.6879 108.431 71.672 108.448 71.6582C108.456 71.6514 108.462 71.6457 108.466 71.6419L108.477 71.6314L116.116 64.5525C116.223 64.4338 116.339 64.3167 116.464 64.2014L116.478 64.2166L117.907 62.893L118.13 62.2894L112.037 67.9457L117.68 61.8733L117.101 62.088ZM118.499 60.9921L118.058 61.4668L117.477 61.6822L117.915 61.2092L118.499 60.9921ZM118.081 58.5421L118.505 58.9991L117.898 58.7731L117.476 58.3182L118.081 58.5421ZM116.957 58.1262L117.377 58.5796L109.608 55.6894L117.165 59.1541L116.522 59.1787L114.753 58.3657L114.761 58.3468C114.606 58.2747 114.453 58.2125 114.302 58.1587L104.84 53.8109L104.827 53.8051C104.821 53.8029 104.814 53.7994 104.805 53.7945C104.785 53.7846 104.762 53.7705 104.742 53.7532C104.704 53.7201 104.694 53.6945 104.701 53.6653C104.711 53.6487 104.732 53.635 104.793 53.6397C104.823 53.642 104.853 53.6488 104.877 53.6555C104.888 53.6588 104.897 53.6619 104.903 53.664L114.359 57.1643C114.461 57.2748 114.564 57.3962 114.668 57.5307L114.866 57.378L114.837 57.3415L116.957 58.1262ZM117.024 59.4097L117.668 59.3851L118.235 59.6449L117.588 59.6686L117.024 59.4097ZM117.61 60.3217L118.233 60.3448L117.644 60.6145L117.024 60.5909L117.61 60.3217ZM117.033 59.6889L108.749 59.9921L117.056 60.3011L116.471 60.5699L114.526 60.4959L114.527 60.475C114.356 60.4677 114.19 60.4688 114.03 60.477L103.625 60.0809L103.61 60.0809C103.605 60.0808 103.596 60.0805 103.586 60.0795C103.565 60.0776 103.538 60.0735 103.513 60.0652C103.464 60.0494 103.445 60.0296 103.441 59.9998C103.444 59.9806 103.458 59.9597 103.516 59.9407C103.545 59.9314 103.575 59.9262 103.599 59.9235C103.611 59.9222 103.621 59.9216 103.627 59.9213L113.702 59.5366C113.839 59.5994 113.981 59.6722 114.128 59.7568L114.253 59.5399L114.212 59.5171L116.472 59.4308L117.033 59.6889ZM115.263 56.2978C114.612 55.7126 113.912 55.3898 113.215 55.0712L113.195 55.0622C112.383 54.6908 111.572 54.3199 110.904 53.53L110.903 53.529C110.267 52.7606 109.566 52.3727 108.927 52.1322C108.615 52.0145 108.317 51.9322 108.046 51.8572L108.026 51.8515C107.753 51.7759 107.5 51.7053 107.298 51.6109L107.292 51.6079C106.894 51.395 106.713 51.0924 106.602 50.8654C106.586 50.8318 106.569 50.7974 106.555 50.7665L106.531 50.7153C106.51 50.6713 106.493 50.6398 106.478 50.6174C106.474 50.6108 106.47 50.6059 106.467 50.6024C106.466 50.6041 106.464 50.6065 106.461 50.6099C106.454 50.6212 106.445 50.6423 106.441 50.6771C106.432 50.7473 106.444 50.8539 106.492 50.9884C106.589 51.2549 106.823 51.6052 107.256 51.9409C107.468 52.0967 107.677 52.1936 107.901 52.2806C107.976 52.3096 108.055 52.3382 108.136 52.3678C108.293 52.4251 108.462 52.4865 108.635 52.5626C109.176 52.8 109.802 53.1939 110.619 54.1486C111.405 55.0675 112.102 55.4199 112.783 55.7648L112.791 55.7688C113.362 56.0577 113.924 56.3438 114.501 56.9502L116.581 57.7204L115.263 56.2978ZM111.845 58.0405C112.611 58.0683 113.381 58.0984 114.207 58.3903L115.969 59.1998L113.752 59.2845C112.987 58.9447 112.358 58.8957 111.72 58.8472L111.711 58.8465C110.95 58.7887 110.172 58.7295 109.093 58.1815C107.973 57.6122 107.244 57.4878 106.654 57.4754C106.464 57.4714 106.285 57.4792 106.118 57.4865C106.031 57.4903 105.948 57.4939 105.868 57.4957C105.627 57.5012 105.397 57.4916 105.142 57.4288C104.613 57.2845 104.263 57.0504 104.071 56.8411C103.975 56.7355 103.924 56.6414 103.905 56.5731C103.896 56.5393 103.896 56.5164 103.898 56.5033C103.899 56.4993 103.9 56.4963 103.901 56.4941L103.906 56.4969L103.912 56.501L103.917 56.5037C103.939 56.5187 103.966 56.5414 104.003 56.5741L104.044 56.6117C104.069 56.6348 104.098 56.6607 104.126 56.6855C104.315 56.8527 104.598 57.0632 105.047 57.1075L105.054 57.108C105.277 57.1178 105.537 57.0863 105.818 57.0517L105.84 57.0491C106.119 57.0147 106.425 56.9769 106.759 56.9661C107.441 56.9439 108.237 57.034 109.119 57.5004L109.12 57.501C110.04 57.9751 110.931 58.0074 111.823 58.0397L111.845 58.0405ZM115.969 60.801L113.953 61.7277C113.117 61.7062 112.516 61.9018 111.908 62.1011L111.9 62.1039C111.174 62.3418 110.433 62.5849 109.227 62.4913C107.974 62.394 107.253 62.558 106.703 62.7724C106.526 62.8413 106.364 62.917 106.212 62.9878C106.134 63.0244 106.058 63.0597 105.984 63.0921C105.764 63.1891 105.548 63.2683 105.288 63.3081C104.744 63.3773 104.331 63.2949 104.074 63.1747C103.945 63.1141 103.861 63.0468 103.818 62.9909C103.797 62.9631 103.788 62.942 103.785 62.9289C103.784 62.925 103.784 62.9219 103.784 62.9195C103.788 62.9199 103.794 62.9207 103.802 62.9223C103.829 62.9275 103.863 62.9381 103.909 62.9544L103.961 62.9733C103.993 62.985 104.029 62.998 104.065 63.0102C104.304 63.092 104.646 63.1784 105.078 63.0475L105.084 63.0454C105.294 62.9691 105.523 62.8402 105.769 62.7007L105.788 62.6902C106.032 62.5516 106.301 62.3996 106.605 62.2618C107.226 61.9804 107.996 61.7589 108.99 61.8524L108.991 61.8525C110.022 61.9384 110.858 61.6272 111.695 61.3156L111.715 61.308C112.433 61.0407 113.157 60.7736 114.031 60.7272L115.969 60.801ZM118.536 61.9124L118.993 61.4885L118.767 62.0959L118.312 62.517L118.536 61.9124ZM118.12 63.0358L118.573 62.616L115.683 70.3859L119.148 62.8288L119.172 63.4724L118.36 65.2412L118.341 65.2323C118.268 65.3882 118.205 65.5422 118.151 65.6942L113.805 75.1533L113.799 75.1671L113.796 75.1745C113.794 75.1786 113.791 75.1836 113.788 75.1891C113.778 75.2082 113.764 75.2312 113.747 75.2515C113.714 75.29 113.688 75.2999 113.659 75.2926C113.643 75.2827 113.629 75.2612 113.634 75.2003C113.636 75.1702 113.643 75.1403 113.649 75.117C113.653 75.1056 113.656 75.0965 113.658 75.0905L117.158 65.6349C117.269 65.5325 117.39 65.4295 117.525 65.3258L117.372 65.1279L117.335 65.1562L118.12 63.0358ZM119.403 62.9698L119.379 62.3251L119.639 61.7581L119.662 62.4061L119.403 62.9698ZM120.315 62.3835L120.339 61.7606L120.608 62.3496L120.585 62.9692L120.315 62.3835ZM119.683 62.9607L119.986 71.2449L120.295 62.9373L120.564 63.522L120.49 65.4675L120.469 65.4666C120.461 65.6376 120.463 65.803 120.471 65.9633L120.075 76.3683L120.075 76.3832C120.074 76.3887 120.074 76.3971 120.073 76.4076C120.071 76.429 120.067 76.4557 120.059 76.481C120.043 76.5293 120.023 76.5482 119.993 76.5526C119.974 76.5498 119.953 76.5352 119.934 76.4772C119.925 76.4485 119.92 76.4183 119.917 76.3942C119.916 76.3824 119.915 76.3728 119.915 76.3664L119.53 66.2911C119.593 66.1542 119.666 66.0126 119.75 65.8653L119.534 65.7409L119.511 65.7811L119.424 63.5226L119.683 62.9607ZM116.294 64.7286C115.707 65.3801 115.384 66.0813 115.065 66.7786L115.056 66.7984C114.685 67.6103 114.314 68.4213 113.524 69.0897L113.523 69.0906C112.754 69.7268 112.367 70.4279 112.126 71.0663C112.008 71.379 111.926 71.6763 111.851 71.9473L111.845 71.9678C111.77 72.2407 111.699 72.4935 111.605 72.6958L111.602 72.7019C111.389 73.0999 111.086 73.2803 110.859 73.3916C110.826 73.408 110.792 73.424 110.761 73.4384L110.709 73.4627C110.665 73.4838 110.634 73.5003 110.611 73.5153C110.605 73.5197 110.6 73.5234 110.596 73.5263C110.598 73.528 110.6 73.5299 110.604 73.5321C110.615 73.5394 110.636 73.5482 110.671 73.5526C110.741 73.5615 110.848 73.55 110.982 73.5013C111.249 73.4047 111.599 73.171 111.935 72.7374C112.091 72.5254 112.188 72.3164 112.274 72.0924C112.304 72.0175 112.332 71.939 112.362 71.8577C112.419 71.7001 112.48 71.5316 112.557 71.3581C112.794 70.8174 113.188 70.1916 114.143 69.3745C115.061 68.5881 115.414 67.8918 115.759 67.2105L115.763 67.2026C116.052 66.6317 116.338 66.0691 116.944 65.493L117.715 63.4118L116.294 64.7286ZM118.034 68.1487C118.062 67.3838 118.092 66.6136 118.383 65.7888L119.194 64.0252L119.278 66.2419C118.938 67.0062 118.889 67.6355 118.841 68.2735L118.84 68.2824C118.782 69.0438 118.723 69.8219 118.175 70.9001C117.606 72.0203 117.481 72.7492 117.469 73.3396C117.465 73.5291 117.473 73.7081 117.48 73.8756C117.484 73.9621 117.488 74.0456 117.489 74.1259C117.495 74.3662 117.485 74.5963 117.422 74.8518C117.278 75.3809 117.044 75.7309 116.835 75.9221C116.729 76.0185 116.635 76.07 116.567 76.0886C116.533 76.0979 116.51 76.0978 116.497 76.0954L116.493 76.0946L116.491 76.094L116.488 76.0929C116.49 76.0889 116.493 76.0836 116.497 76.077C116.512 76.0546 116.535 76.0273 116.568 75.991L116.605 75.9496C116.628 75.9244 116.654 75.896 116.679 75.8679C116.846 75.6781 117.057 75.3957 117.101 74.9465L117.102 74.9397C117.112 74.7167 117.08 74.4561 117.045 74.1751L117.043 74.1539C117.008 73.8748 116.971 73.5687 116.96 73.2348C116.938 72.5529 117.028 71.7567 117.494 70.8749L117.495 70.8737C117.969 69.9539 118.001 69.0627 118.033 68.1705L118.034 68.1487ZM120.795 64.0246L121.721 66.0406C121.7 66.8767 121.895 67.4769 122.095 68.0848L122.098 68.0933C122.335 68.8189 122.579 69.5604 122.485 70.7662C122.388 72.0191 122.552 72.7401 122.766 73.2903C122.835 73.4669 122.911 73.6293 122.982 73.7813C123.018 73.8598 123.053 73.9355 123.086 74.009C123.183 74.2289 123.262 74.4451 123.302 74.7052C123.371 75.2492 123.289 75.6622 123.168 75.9189C123.108 76.0484 123.041 76.132 122.985 76.1753C122.957 76.1968 122.936 76.2055 122.923 76.2083C122.92 76.2089 122.918 76.2092 122.916 76.2094L122.913 76.2095C122.914 76.205 122.914 76.1989 122.916 76.1912C122.921 76.1647 122.932 76.1308 122.948 76.0847L122.967 76.0321C122.979 75.9999 122.992 75.964 123.004 75.9284C123.086 75.6891 123.172 75.3476 123.041 74.9156L123.039 74.9092C122.963 74.6994 122.834 74.4707 122.694 74.2243L122.684 74.2058C122.545 73.9611 122.393 73.6927 122.255 73.3883C121.974 72.7669 121.753 71.9968 121.846 71.0036L121.846 71.0023C121.932 69.9711 121.621 69.1354 121.309 68.2986L121.302 68.2783C121.034 67.5603 120.767 66.8366 120.721 65.9621L120.795 64.0246ZM121.907 61.4577L121.483 61.0007L122.09 61.2267L122.512 61.6816L121.907 61.4577ZM123.03 61.8736L122.61 61.4202L130.38 64.3104L122.823 60.8457L123.466 60.8211L125.235 61.634L125.226 61.6529C125.381 61.7251 125.535 61.7873 125.686 61.8411L135.147 66.1889L135.161 66.1947C135.166 66.1969 135.174 66.2004 135.183 66.2053C135.202 66.2152 135.225 66.2293 135.246 66.2466C135.284 66.2797 135.294 66.3053 135.287 66.3344C135.277 66.3511 135.255 66.3648 135.194 66.3601C135.164 66.3578 135.134 66.351 135.111 66.3443C135.1 66.341 135.091 66.3379 135.085 66.3358L125.629 62.8355C125.527 62.725 125.424 62.6036 125.32 62.4691L125.122 62.6218L125.15 62.6583L123.03 61.8736ZM122.963 60.5901L122.319 60.6147L121.752 60.3549L122.4 60.3312L122.963 60.5901ZM122.378 59.6781L121.755 59.655L122.344 59.3853L122.963 59.4088L122.378 59.6781ZM122.954 60.3109L131.239 60.0077L122.931 59.6987L123.516 59.4299L125.462 59.5039L125.461 59.5248C125.632 59.5321 125.797 59.531 125.958 59.5228L136.362 59.9189L136.377 59.9189C136.383 59.919 136.391 59.9193 136.402 59.9203C136.423 59.9222 136.45 59.9263 136.475 59.9346C136.523 59.9504 136.542 59.9702 136.547 60C136.544 60.0192 136.529 60.0401 136.471 60.0591C136.443 60.0684 136.412 60.0736 136.388 60.0763C136.376 60.0776 136.367 60.0782 136.361 60.0785L126.285 60.4632C126.148 60.4004 126.007 60.3276 125.859 60.243L125.735 60.4599L125.775 60.4827L123.516 60.569L122.954 60.3109ZM124.725 63.702C125.376 64.2872 126.076 64.61 126.773 64.9286L126.792 64.9376C127.604 65.309 128.415 65.6799 129.084 66.4698L129.085 66.4708C129.721 67.2392 130.422 67.6271 131.06 67.8676C131.373 67.9853 131.67 68.0676 131.941 68.1426L131.962 68.1483C132.235 68.2239 132.488 68.2945 132.69 68.3889L132.696 68.3919C133.094 68.6048 133.274 68.9074 133.386 69.1344C133.402 69.168 133.418 69.2024 133.433 69.2333L133.457 69.2845C133.478 69.3285 133.494 69.36 133.509 69.3824C133.514 69.389 133.517 69.3939 133.52 69.3974C133.522 69.3957 133.524 69.3933 133.526 69.3899C133.533 69.3786 133.542 69.3575 133.547 69.3227C133.556 69.2525 133.544 69.1459 133.495 69.0114C133.399 68.7449 133.165 68.3946 132.731 68.0589C132.519 67.9031 132.31 67.8062 132.086 67.7192C132.012 67.6902 131.933 67.6616 131.852 67.632C131.694 67.5747 131.526 67.5133 131.352 67.4371C130.811 67.1998 130.186 66.8059 129.369 65.8512C128.582 64.9323 127.886 64.5799 127.205 64.235L127.197 64.231C126.626 63.9421 126.063 63.656 125.487 63.0496L123.406 62.2794L124.725 63.702ZM128.143 61.9593C127.377 61.9315 126.606 61.9014 125.78 61.6095L124.019 60.8L126.236 60.7153C127 61.0551 127.63 61.1041 128.268 61.1526L128.276 61.1533C129.038 61.2111 129.816 61.2703 130.894 61.8182C132.014 62.3876 132.743 62.512 133.334 62.5244C133.523 62.5284 133.702 62.5206 133.87 62.5133C133.956 62.5095 134.04 62.5059 134.12 62.5041C134.36 62.4986 134.59 62.5082 134.846 62.571C135.375 62.7153 135.725 62.9494 135.916 63.1587C136.013 63.2643 136.064 63.3584 136.083 63.4267C136.092 63.4605 136.092 63.4834 136.09 63.4965C136.089 63.5005 136.088 63.5035 136.087 63.5057L136.082 63.5029L136.075 63.4988L136.071 63.4961C136.049 63.4811 136.021 63.4584 135.985 63.4257L135.944 63.3881L135.909 63.3563C135.893 63.3424 135.878 63.3282 135.862 63.3143C135.672 63.1471 135.39 62.9366 134.941 62.8923L134.934 62.8918C134.711 62.882 134.45 62.9135 134.169 62.9481L134.148 62.9507C133.869 62.9851 133.563 63.0229 133.229 63.0337C132.547 63.0559 131.751 62.9658 130.869 62.4994L130.868 62.4988C129.948 62.0247 129.057 61.9924 128.165 61.9601L128.143 61.9593ZM124.019 59.1988L126.035 58.2721C126.871 58.2936 127.471 58.098 128.079 57.8987L128.088 57.8959C128.813 57.658 129.555 57.4149 130.761 57.5085C132.013 57.6058 132.734 57.4418 133.285 57.2274C133.461 57.1585 133.624 57.0828 133.776 57.012C133.854 56.9754 133.93 56.94 134.003 56.9076C134.223 56.8107 134.439 56.7315 134.7 56.6917C135.244 56.6225 135.656 56.7049 135.913 56.8251C136.043 56.8857 136.126 56.953 136.17 57.0089C136.191 57.0367 136.2 57.0578 136.203 57.0709C136.204 57.0748 136.204 57.0779 136.204 57.0803C136.199 57.0799 136.193 57.0791 136.185 57.0775C136.159 57.0723 136.125 57.0617 136.079 57.0454L136.026 57.0265C135.994 57.0148 135.958 57.0018 135.923 56.9896C135.683 56.9078 135.342 56.8214 134.91 56.9523L134.903 56.9544C134.694 57.0307 134.465 57.1596 134.219 57.2991L134.2 57.3096C133.955 57.4482 133.687 57.6002 133.383 57.738C132.761 58.0194 131.991 58.2409 130.998 58.1474L130.997 58.1473C129.965 58.0614 129.13 58.3726 128.293 58.6842L128.273 58.6918C127.555 58.9591 126.831 59.2262 125.956 59.2726L124.019 59.1988Z" fill="#784B26"/>
<path d="M119.994 66.6747C123.681 66.6747 126.669 63.6862 126.669 59.9997C126.669 56.3132 123.681 53.3247 119.994 53.3247C116.308 53.3247 113.319 56.3132 113.319 59.9997C113.319 63.6862 116.308 66.6747 119.994 66.6747Z" fill="#D3AE3B"/>
<path fill-rule="evenodd" clip-rule="evenodd" d="M119.994 53.4999C116.404 53.4999 113.494 56.4101 113.494 59.9999C113.494 63.5898 116.404 66.4999 119.994 66.4999C123.584 66.4999 126.494 63.5898 126.494 59.9999C126.494 56.4101 123.584 53.4999 119.994 53.4999ZM113.144 59.9999C113.144 56.2168 116.211 53.1499 119.994 53.1499C123.777 53.1499 126.844 56.2168 126.844 59.9999C126.844 63.7831 123.777 66.8499 119.994 66.8499C116.211 66.8499 113.144 63.7831 113.144 59.9999Z" fill="#784B26"/>
<path d="M119.343 58.1497C118.518 57.3747 117.018 57.5497 115.843 58.5747V58.5497C116.968 57.0497 118.518 57.1247 119.643 58.0497C119.71 58.2365 119.76 58.429 119.793 58.6247C119.926 59.4307 119.785 60.2582 119.393 60.9747L119.193 60.8747C119.643 60.2247 119.818 59.5997 119.718 59.0247C119.665 58.7071 119.536 58.407 119.343 58.1497Z" fill="#784B26"/>
<path d="M120.693 58.1497C121.518 57.3747 123.018 57.5497 124.193 58.5747V58.5497C123.068 57.0497 121.518 57.1247 120.393 58.0497C120.326 58.2365 120.276 58.429 120.243 58.6247C120.11 59.4307 120.25 60.2582 120.643 60.9747L120.843 60.8747C120.393 60.2247 120.218 59.5997 120.318 59.0247C120.371 58.7071 120.499 58.407 120.693 58.1497Z" fill="#784B26"/>
<path d="M122.343 58.2497C121.72 58.2497 121.544 58.3987 121.285 58.618C121.263 58.6364 121.241 58.6554 121.218 58.6747C121.017 58.8421 120.872 58.875 120.791 58.8935C120.751 58.9026 120.726 58.9082 120.718 58.9247C120.643 58.9747 120.718 59.1247 120.793 59.0747C120.918 59.0247 121.118 58.9247 121.418 58.6747C121.718 58.4247 122.043 58.4247 122.343 58.4247C122.981 58.4247 123.417 58.7822 123.667 58.9871C123.779 59.079 123.854 59.1402 123.893 59.1247C123.968 59.0747 123.368 58.2497 122.343 58.2497Z" fill="#784B26"/>
<path fill-rule="evenodd" clip-rule="evenodd" d="M122.268 58.5747C121.818 58.5747 121.368 58.7747 121.118 59.1747C121.347 59.3921 121.711 59.5152 122.114 59.5321C122.155 59.5436 122.198 59.5497 122.243 59.5497C122.293 59.5497 122.341 59.542 122.386 59.5276C122.786 59.4981 123.201 59.3673 123.543 59.1247C123.379 58.9509 123.181 58.8124 122.962 58.7179C122.743 58.6233 122.507 58.5746 122.268 58.5747ZM123.168 59.0747C122.985 59.2849 122.759 59.4082 122.52 59.4606C122.64 59.3744 122.718 59.2337 122.718 59.0747C122.718 58.9223 122.646 58.7867 122.534 58.6997C122.856 58.7594 123.128 58.9171 123.168 59.0747ZM121.768 59.0747C121.768 58.9309 121.832 58.802 121.933 58.7149C121.861 58.7352 121.792 58.7628 121.726 58.7976C121.559 58.8854 121.418 59.0154 121.318 59.1747C121.507 59.3187 121.735 59.4205 121.972 59.4652C121.849 59.3794 121.768 59.2365 121.768 59.0747Z" fill="#784B26"/>
<path d="M121.318 59.6997C121.818 59.9997 122.693 60.0497 123.568 59.3747C122.543 59.7997 121.943 59.7997 121.518 59.5997C121.366 59.5143 121.258 59.447 121.176 59.3962C121.042 59.3132 120.98 59.2747 120.918 59.2747C120.818 59.2747 120.818 59.3747 121.318 59.6997Z" fill="#784B26"/>
<path d="M118.993 60.9247C118.98 60.926 118.967 60.9278 118.955 60.9301L118.968 60.9247H118.993Z" fill="#784B26"/>
<path d="M118.955 60.9301C118.838 60.9817 118.768 61.0799 118.768 61.2247C118.768 61.3747 118.918 61.5247 119.068 61.5247C119.109 61.5282 119.151 61.523 119.19 61.5095C119.229 61.496 119.266 61.4744 119.296 61.4462C119.327 61.418 119.351 61.3837 119.368 61.3456C119.384 61.3075 119.393 61.2663 119.393 61.2247C119.45 61.3445 119.538 61.447 119.648 61.5217C119.757 61.5964 119.885 61.6406 120.018 61.6497C120.154 61.6449 120.287 61.6028 120.402 61.5279C120.516 61.453 120.608 61.3481 120.668 61.2247C120.668 61.3043 120.699 61.3806 120.755 61.4369C120.812 61.4931 120.888 61.5247 120.968 61.5247C121.143 61.5247 121.268 61.3747 121.268 61.2247C121.268 61.0747 121.193 60.9747 121.068 60.8997C121.145 60.9106 121.219 60.9406 121.282 60.987C121.346 61.0333 121.396 61.0946 121.43 61.1654C121.464 61.2362 121.48 61.3143 121.476 61.3927C121.472 61.471 121.449 61.5472 121.409 61.6145C121.369 61.6818 121.312 61.738 121.245 61.7781C121.177 61.8183 121.101 61.8411 121.023 61.8446C120.944 61.8481 120.866 61.8322 120.796 61.7981C120.725 61.7641 120.664 61.7131 120.618 61.6497C120.446 61.7583 120.245 61.8108 120.043 61.7997H119.993C119.799 61.8041 119.607 61.752 119.443 61.6497C119.4 61.718 119.34 61.7743 119.27 61.8132C119.199 61.8522 119.12 61.8725 119.039 61.8723C118.958 61.8721 118.879 61.8514 118.809 61.8122C118.738 61.7729 118.679 61.7163 118.637 61.6478C118.594 61.5793 118.57 61.5011 118.566 61.4206C118.562 61.3401 118.578 61.2599 118.614 61.1875C118.65 61.1152 118.703 61.0531 118.769 61.0071C118.825 60.9684 118.888 60.9422 118.955 60.9301Z" fill="#784B26"/>
<path d="M119.493 62.2997C119.141 62.2997 118.924 62.5016 118.684 62.7251C118.565 62.8353 118.441 62.9507 118.293 63.0497C118.438 62.9915 118.575 62.8995 118.733 62.7934C118.847 62.717 118.971 62.6334 119.118 62.5497C119.358 62.4124 119.586 62.4872 119.771 62.5476C119.855 62.5752 119.93 62.5997 119.993 62.5997C120.055 62.5997 120.127 62.5753 120.209 62.5478C120.388 62.4874 120.61 62.4122 120.868 62.5497C121.014 62.6334 121.139 62.717 121.252 62.7934C121.41 62.8995 121.547 62.9915 121.693 63.0497C121.526 62.9446 121.393 62.821 121.269 62.7049C121.038 62.4896 120.834 62.2997 120.493 62.2997C120.318 62.3173 120.148 62.3682 119.993 62.4497C119.839 62.3595 119.669 62.3001 119.493 62.2747V62.2997Z" fill="#784B26"/>
<path fill-rule="evenodd" clip-rule="evenodd" d="M118.443 63.0497C118.843 62.9497 119.093 62.8997 119.293 62.8997C119.508 62.8844 119.647 62.9067 119.769 62.9263C119.846 62.9385 119.916 62.9497 119.993 62.9497C120.068 62.9497 120.139 62.9372 120.218 62.9231C120.451 62.8815 120.759 62.8266 121.484 63.0396C121.547 63.0397 121.617 63.043 121.693 63.0497C121.175 63.1098 121.023 63.2857 120.878 63.452C120.723 63.6314 120.576 63.7997 119.993 63.7997C119.409 63.7997 119.263 63.6314 119.107 63.452C118.962 63.2857 118.81 63.1098 118.293 63.0497L118.443 63.0497ZM118.443 63.0497C119.05 62.9185 119.345 63.0133 119.596 63.094C119.727 63.1363 119.847 63.1747 119.993 63.1747C120.128 63.1747 120.241 63.1375 120.366 63.096C120.605 63.017 120.89 62.9226 121.47 63.0396C121.041 63.0419 120.886 63.1878 120.732 63.3333C120.577 63.4792 120.422 63.6247 119.993 63.6247C119.558 63.6247 119.407 63.483 119.255 63.3403C119.101 63.1955 118.946 63.0497 118.493 63.0497L118.443 63.0497Z" fill="#784B26"/>
<path d="M119.993 63.7997C120.238 63.7997 120.473 63.8972 120.647 64.0706C120.82 64.2441 120.918 64.4794 120.918 64.7247C120.869 64.516 120.751 64.33 120.583 64.1969C120.415 64.0637 120.207 63.9912 119.993 63.9912C119.778 63.9912 119.57 64.0637 119.402 64.1969C119.234 64.33 119.116 64.516 119.068 64.7247C119.068 64.4794 119.165 64.2441 119.339 64.0706C119.512 63.8972 119.747 63.7997 119.993 63.7997Z" fill="#784B26"/>
<path d="M117.693 58.2497C118.315 58.2497 118.491 58.3987 118.75 58.618C118.772 58.6364 118.794 58.6554 118.818 58.6747C119.018 58.8421 119.163 58.875 119.245 58.8935C119.285 58.9026 119.309 58.9082 119.318 58.9247C119.393 58.9747 119.318 59.1247 119.243 59.0747C119.118 59.0247 118.918 58.9247 118.618 58.6747C118.318 58.4247 117.993 58.4247 117.693 58.4247C117.054 58.4247 116.618 58.7822 116.368 58.9871C116.256 59.079 116.181 59.1402 116.143 59.1247C116.068 59.0747 116.668 58.2497 117.693 58.2497Z" fill="#784B26"/>
<path fill-rule="evenodd" clip-rule="evenodd" d="M116.518 59.1747C116.768 58.7747 117.218 58.5747 117.668 58.5747C117.907 58.5746 118.143 58.6233 118.362 58.7179C118.581 58.8124 118.779 58.9509 118.943 59.1247C118.63 59.3465 118.257 59.4748 117.889 59.5178C117.836 59.5384 117.778 59.5497 117.718 59.5497C117.676 59.5497 117.635 59.5443 117.597 59.5341C117.161 59.5315 116.762 59.4068 116.518 59.1747ZM118.568 59.0747C118.414 59.2513 118.23 59.3666 118.033 59.43C118.131 59.343 118.193 59.2161 118.193 59.0747C118.193 58.9349 118.132 58.8093 118.036 58.7223C118.312 58.7934 118.533 58.9341 118.568 59.0747ZM117.243 59.0747C117.243 59.2464 117.334 59.3968 117.47 59.4803C117.198 59.4477 116.933 59.3385 116.718 59.1747C116.818 59.0154 116.959 58.8854 117.126 58.7976C117.224 58.7458 117.33 58.7098 117.438 58.6905C117.32 58.7769 117.243 58.9168 117.243 59.0747Z" fill="#784B26"/>
<path d="M118.718 59.6997C118.218 59.9997 117.343 60.0497 116.468 59.3747C117.493 59.7997 118.093 59.7997 118.518 59.5997C118.67 59.5143 118.778 59.447 118.86 59.3962C118.994 59.3132 119.056 59.2747 119.118 59.2747C119.218 59.2747 119.218 59.3747 118.718 59.6997Z" fill="#784B26"/>
</g>
<defs>
<clipPath id="clip0_909_227986">
<rect width="240" height="120" fill="white"/>
</clipPath>
</defs>
</svg>
