<svg width="240" height="120" viewBox="0 0 240 120" fill="none" xmlns="http://www.w3.org/2000/svg">
<rect width="240" height="120" fill="#021455"/>
<path d="M181.653 16.5676L180 11.4285L178.347 16.5676L173.298 14.6557L176.286 19.1522L171.643 21.9072L177.021 22.3751L176.281 27.7225L180 23.8094L183.719 27.7225L182.978 22.3751L188.356 21.9072L183.714 19.1522L186.701 14.6557L181.653 16.5676Z" fill="white"/>
<path d="M150 43.9285L151.653 49.0676L156.701 47.1557L153.714 51.6522L158.356 54.4072L152.978 54.8751L153.719 60.2225L150 56.3094L146.281 60.2225L147.021 54.8751L141.643 54.4072L146.286 51.6522L143.298 47.1557L148.347 49.0676L150 43.9285Z" fill="white"/>
<path d="M63.4709 82.7921L59.9999 71.9999L56.5288 82.7921L45.9269 78.7771L52.2005 88.2197L42.4512 94.0053L53.7452 94.9878L52.19 106.217L59.9999 97.9999L67.8098 106.217L66.2545 94.9878L77.5486 94.0053L67.7993 88.2197L74.0728 78.7771L63.4709 82.7921Z" fill="white"/>
<path d="M181.653 96.5676L180 91.4285L178.347 96.5676L173.298 94.6557L176.286 99.1522L171.643 101.907L177.021 102.375L176.281 107.722L180 103.809L183.719 107.722L182.978 102.375L188.356 101.907L183.714 99.1522L186.701 94.6557L181.653 96.5676Z" fill="white"/>
<path d="M206.667 35.9285L208.319 41.0676L213.368 39.1557L210.381 43.6522L215.023 46.4072L209.645 46.8751L210.386 52.2225L206.667 48.3094L202.948 52.2225L203.688 46.8751L198.31 46.4072L202.953 43.6522L199.965 39.1557L205.014 41.0676L206.667 35.9285Z" fill="white"/>
<path d="M193.306 63.2021L192 59.9999L190.694 63.2021L187.245 63.4548L189.886 65.6866L189.061 69.045L192 67.2221L194.939 69.045L194.113 65.6866L196.755 63.4548L193.306 63.2021Z" fill="white"/>
<path d="M0 0H120V60H0V0Z" fill="#021455"/>
<path d="M14.0625 0L59.8125 22.625L105.375 0H120V7.75L75 30.125L120 52.375V60H105L60 37.625L15.1875 60H0V52.5L44.8125 30.25L0 8V0H14.0625Z" fill="white"/>
<path d="M79.5 35.125L120 55V60L69.1875 35.125H79.5ZM45 37.625L46.125 42L10.125 60H0L45 37.625ZM120 0V0.375L73.3125 23.875L73.6875 18.375L110.625 0H120ZM0 0L44.8125 22H33.5625L0 5.25V0Z" fill="#E23726"/>
<path d="M45.1875 0V60H75.1875V0H45.1875ZM0 20V40H120V20H0Z" fill="white"/>
<path d="M0 24.125V36.125H120V24.125H0ZM51.1875 0V60H69.1875V0H51.1875Z" fill="#E23726"/>
</svg>
