<svg width="240" height="120" viewBox="0 0 240 120" fill="none" xmlns="http://www.w3.org/2000/svg">
<g clip-path="url(#clip0_307_43936)">
<rect width="240" height="120" fill="#021455"/>
<path d="M181.653 16.5678L180 11.4286L178.347 16.5678L173.298 14.6558L176.286 19.1523L171.643 21.9073L177.021 22.3752L176.281 27.7226L180 23.8095L183.719 27.7226L182.978 22.3752L188.356 21.9073L183.714 19.1523L186.701 14.6558L181.653 16.5678Z" fill="white"/>
<path d="M150 43.9286L151.653 49.0678L156.701 47.1558L153.714 51.6523L158.356 54.4073L152.978 54.8752L153.719 60.2226L150 56.3095L146.281 60.2226L147.021 54.8752L141.643 54.4073L146.286 51.6523L143.298 47.1558L148.347 49.0678L150 43.9286Z" fill="white"/>
<path d="M63.4709 82.7923L59.9999 72L56.5288 82.7923L45.9269 78.7772L52.2005 88.2198L42.4512 94.0054L53.7452 94.9879L52.19 106.217L59.9999 98L67.8098 106.217L66.2545 94.9879L77.5486 94.0054L67.7993 88.2198L74.0728 78.7772L63.4709 82.7923Z" fill="white"/>
<path d="M181.653 96.5677L180 91.4286L178.347 96.5677L173.298 94.6558L176.286 99.1523L171.643 101.907L177.021 102.375L176.281 107.723L180 103.81L183.719 107.723L182.978 102.375L188.356 101.907L183.714 99.1523L186.701 94.6558L181.653 96.5677Z" fill="white"/>
<path d="M206.667 35.9286L208.319 41.0678L213.368 39.1558L210.381 43.6523L215.023 46.4073L209.645 46.8752L210.386 52.2226L206.667 48.3095L202.948 52.2226L203.688 46.8752L198.31 46.4073L202.953 43.6523L199.965 39.1558L205.014 41.0678L206.667 35.9286Z" fill="white"/>
<path d="M193.306 63.2022L192 60L190.694 63.2022L187.245 63.4549L189.886 65.6867L189.061 69.0451L192 67.2222L194.939 69.0451L194.113 65.6867L196.755 63.4549L193.306 63.2022Z" fill="white"/>
<g clip-path="url(#clip1_307_43936)">
<path d="M0 0H120V60H0V0Z" fill="#021455"/>
<path d="M14.0625 0L59.8125 22.625L105.375 0H120V7.75L75 30.125L120 52.375V60H105L60 37.625L15.1875 60H0V52.5L44.8125 30.25L0 8V0H14.0625Z" fill="white"/>
<path d="M79.5 35.125L120 55V60L69.1875 35.125H79.5ZM45 37.625L46.125 42L10.125 60H0L45 37.625ZM120 0V0.375L73.3125 23.875L73.6875 18.375L110.625 0H120ZM0 0L44.8125 22H33.5625L0 5.25V0Z" fill="#D91C16"/>
<path d="M45.1875 0V60H75.1875V0H45.1875ZM0 20V40H120V20H0Z" fill="white"/>
<path d="M0 24.125V36.125H120V24.125H0ZM51.1875 0V60H69.1875V0H51.1875Z" fill="#D91C16"/>
</g>
</g>
<defs>
<clipPath id="clip0_307_43936">
<rect width="240" height="120" fill="white"/>
</clipPath>
<clipPath id="clip1_307_43936">
<rect width="120" height="60" fill="white"/>
</clipPath>
</defs>
</svg>
