<svg width="240" height="120" viewBox="0 0 240 120" fill="none" xmlns="http://www.w3.org/2000/svg">
<g clip-path="url(#clip0_307_43936)">
<rect width="240" height="120" fill="#021455"/>
<path d="M181.653 16.5677L180 11.4286L178.347 16.5677L173.299 14.6558L176.286 19.1523L171.643 21.9073L177.022 22.3752L176.281 27.7226L180 23.8095L183.719 27.7226L182.978 22.3752L188.356 21.9073L183.714 19.1523L186.701 14.6558L181.653 16.5677Z" fill="white"/>
<path d="M150 43.9286L151.653 49.0677L156.701 47.1558L153.714 51.6523L158.356 54.4073L152.978 54.8752L153.719 60.2226L150 56.3095L146.281 60.2226L147.022 54.8752L141.643 54.4073L146.286 51.6523L143.299 47.1558L148.347 49.0677L150 43.9286Z" fill="white"/>
<path d="M63.4711 82.7922L60.0001 72L56.529 82.7922L45.9271 78.7772L52.2006 88.2198L42.4514 94.0054L53.7454 94.9879L52.1902 106.217L60.0001 98L67.81 106.217L66.2547 94.9879L77.5488 94.0054L67.7995 88.2198L74.073 78.7772L63.4711 82.7922Z" fill="white"/>
<path d="M181.653 96.5677L180 91.4286L178.347 96.5677L173.299 94.6558L176.286 99.1523L171.643 101.907L177.022 102.375L176.281 107.723L180 103.81L183.719 107.723L182.978 102.375L188.356 101.907L183.714 99.1523L186.701 94.6558L181.653 96.5677Z" fill="white"/>
<path d="M206.667 35.9286L208.32 41.0677L213.368 39.1558L210.381 43.6523L215.023 46.4073L209.645 46.8752L210.386 52.2226L206.667 48.3095L202.948 52.2226L203.688 46.8752L198.31 46.4073L202.953 43.6523L199.965 39.1558L205.014 41.0677L206.667 35.9286Z" fill="white"/>
<path d="M193.306 63.2022L192 60L190.694 63.2022L187.245 63.4549L189.887 65.6867L189.061 69.0451L192 67.2222L194.939 69.0451L194.113 65.6867L196.755 63.4549L193.306 63.2022Z" fill="white"/>
<g clip-path="url(#clip1_307_43936)">
<mask id="mask0_307_43936" style="mask-type:luminance" maskUnits="userSpaceOnUse" x="0" y="0" width="120" height="60">
<path d="M120 0H0V60H120V0Z" fill="white"/>
</mask>
<g mask="url(#mask0_307_43936)">
<path d="M0 0V60H120V0H0Z" fill="#021455"/>
<path d="M13.4165 0L60 23.2915L106.584 0H120V6.708L73.4165 30L120 53.2915V60H106.584L60 36.708L13.4165 60H0V53.2915L46.5835 30L0 6.708V0H13.4165Z" fill="white"/>
<path d="M60 34.4721L8.94435 60H0L60 30V34.4721Z" fill="#D91C16"/>
<path d="M68.9445 30L120 55.528V60L60 30H68.9445Z" fill="#D91C16"/>
<path d="M60 30V25.5278L111.055 0H120L60 30Z" fill="#D91C16"/>
<path d="M60 30H51.0555L0 4.47217V0L60 30Z" fill="#D91C16"/>
<path d="M70 0V20H120V40H70V60H50V40H0V20H50V0H70Z" fill="white"/>
<path d="M66 0V24H120V36H66V60H54V36H0V24H54V0H66Z" fill="#D91C16"/>
</g>
</g>
</g>
<defs>
<clipPath id="clip0_307_43936">
<rect width="240" height="120" fill="white"/>
</clipPath>
<clipPath id="clip1_307_43936">
<rect width="120" height="60" fill="white"/>
</clipPath>
</defs>
</svg>
