<svg width="240" height="120" viewBox="0 0 240 120" fill="none" xmlns="http://www.w3.org/2000/svg">
<g clip-path="url(#clip0_307_43936)">
<rect width="240" height="120" fill="#021455"/>
<path d="M181.667 91.4286L183.319 96.5677L188.368 94.6558L185.381 99.1523L190.023 101.907L184.645 102.375L185.386 107.723L181.667 103.81L177.948 107.723L178.688 102.375L173.31 101.907L177.953 99.1523L174.965 94.6558L180.014 96.5677L181.667 91.4286Z" fill="white"/>
<path d="M151.667 43.9286L153.319 49.0677L158.368 47.1558L155.381 51.6523L160.023 54.4073L154.645 54.8752L155.386 60.2226L151.667 56.3095L147.948 60.2226L148.688 54.8752L143.31 54.4073L147.953 51.6523L144.965 47.1558L150.014 49.0677L151.667 43.9286Z" fill="white"/>
<path d="M181.667 11.4286L183.319 16.5677L188.368 14.6558L185.381 19.1523L190.023 21.9073L184.645 22.3752L185.386 27.7226L181.667 23.8095L177.948 27.7226L178.688 22.3752L173.31 21.9073L177.953 19.1523L174.965 14.6558L180.014 16.5677L181.667 11.4286Z" fill="white"/>
<path d="M208.333 35.9286L209.986 41.0677L215.035 39.1558L212.047 43.6523L216.69 46.4073L211.312 46.8752L212.052 52.2226L208.333 48.3095L204.614 52.2226L205.355 46.8752L199.977 46.4073L204.619 43.6523L201.632 39.1558L206.68 41.0677L208.333 35.9286Z" fill="white"/>
<path d="M193.667 60L194.973 63.2022L198.422 63.4549L195.78 65.6867L196.605 69.0451L193.667 67.2222L190.728 69.0451L191.553 65.6867L188.911 63.4549L192.36 63.2022L193.667 60Z" fill="white"/>
<path d="M60 72L63.4711 82.7922L74.073 78.7772L67.7994 88.2198L77.5487 94.0054L66.2547 94.9879L67.8099 106.217L60 98L52.1901 106.217L53.7453 94.9879L42.4513 94.0054L52.2006 88.2198L45.927 78.7772L56.5289 82.7922L60 72Z" fill="white"/>
<g clip-path="url(#clip1_307_43936)">
<path d="M0 0V60H120V0H0Z" fill="#021455"/>
<path d="M13.4165 0L60 23.2915L106.583 0H120V6.70801L73.4165 30L120 53.2915V60H106.583L60 36.708L13.4165 60H0V53.2915L46.5835 30L0 6.70801V0H13.4165Z" fill="white"/>
<path d="M60 34.4722L8.94434 60H0L60 30V34.4722Z" fill="#D91C16"/>
<path d="M68.9443 30L120 55.5278V60L60 30H68.9443Z" fill="#D91C16"/>
<path d="M60 30V25.5278L111.056 0H120L60 30Z" fill="#D91C16"/>
<path d="M60 30H51.0557L0 4.47217V0L60 30Z" fill="#D91C16"/>
<path d="M70 0V20H120V40H70V60H50V40H0V20H50V0H70Z" fill="white"/>
<path d="M66 0V24H120V36H66V60H54V36H0V24H54V0H66Z" fill="#D91C16"/>
</g>
</g>
<defs>
<clipPath id="clip0_307_43936">
<rect width="240" height="120" fill="white"/>
</clipPath>
<clipPath id="clip1_307_43936">
<rect width="120" height="60" fill="white"/>
</clipPath>
</defs>
</svg>
