<svg width="240" height="120" viewBox="0 0 240 120" fill="none" xmlns="http://www.w3.org/2000/svg">
<g clip-path="url(#clip0_909_237102)">
<path d="M-3.05176e-05 0H240V120H-3.05176e-05V0Z" fill="#1E9A1C"/>
<path d="M48.8545 59.9999L119.997 105.428L191.14 59.9999L119.997 14.5713L48.8545 59.9999Z" fill="#FDD406"/>
<path d="M119.855 90C136.423 90 149.855 76.5685 149.855 60C149.855 43.4315 136.423 30 119.855 30C103.286 30 89.8545 43.4315 89.8545 60C89.8545 76.5685 103.286 90 119.855 90Z" fill="#0F3296"/>
<path d="M90.8076 52.4692C94.7117 51.781 98.6936 51.4283 102.712 51.4283C119.654 51.4283 135.949 57.6979 148.496 68.9522C148.975 67.4186 149.334 65.832 149.562 64.2036C136.491 53.2268 119.915 47.1426 102.712 47.1426C99.2431 47.1426 95.7999 47.3899 92.4058 47.8749C91.7542 49.3478 91.2177 50.8831 90.8076 52.4692Z" fill="white"/>
<path d="M103.055 50.7114L105.625 50.8011L105.644 50.2708L103.563 50.1982L103.589 49.4639L105.221 49.5209L105.238 49.0314L103.606 48.9744L103.626 48.4033L105.584 48.4717L105.603 47.9414L103.155 47.856L103.055 50.7114Z" fill="#1E9A1C"/>
<path fill-rule="evenodd" clip-rule="evenodd" d="M100.774 50.7235L99.4277 50.747L99.3778 47.8903L100.725 47.8668C100.885 47.864 101.045 47.8929 101.195 47.9518C101.344 48.0107 101.481 48.0986 101.597 48.2103C101.712 48.322 101.805 48.4554 101.869 48.6028C101.933 48.7503 101.967 48.9089 101.97 49.0697L101.977 49.4778C101.98 49.6386 101.951 49.7984 101.892 49.948C101.833 50.0976 101.746 50.2341 101.634 50.3498C101.522 50.4655 101.389 50.558 101.241 50.6221C101.094 50.6862 100.935 50.7207 100.774 50.7235ZM100.724 50.1937L99.9489 50.2072L99.9176 48.4116L100.693 48.398C100.899 48.3944 101.097 48.4727 101.245 48.6156C101.393 48.7584 101.478 48.9542 101.482 49.1599L101.486 49.4047C101.49 49.6104 101.412 49.809 101.269 49.957C101.126 50.1049 100.93 50.1901 100.724 50.1937Z" fill="#1E9A1C"/>
<path fill-rule="evenodd" clip-rule="evenodd" d="M96.3359 50.9355L95.8066 50.9725L95.648 48.1195L97.2767 48.0056C97.5143 47.989 97.7487 48.0674 97.9284 48.2237C98.1082 48.3799 98.2185 48.6011 98.2351 48.8387C98.2517 49.0763 98.1733 49.3107 98.017 49.4905C97.9691 49.5456 97.915 49.5942 97.8562 49.6356C98.164 49.8704 98.207 50.4854 98.2292 50.8031L97.7406 50.8373C97.7216 50.5649 97.6873 50.0739 97.3985 49.7974L96.2619 49.8768L96.3359 50.9355ZM97.3242 49.2707L96.2249 49.3475L96.1736 48.6146L97.273 48.5377C97.3702 48.5309 97.4661 48.563 97.5396 48.627C97.6131 48.6909 97.6583 48.7814 97.6651 48.8786C97.6719 48.9758 97.6398 49.0717 97.5758 49.1452C97.5119 49.2187 97.4214 49.2639 97.3242 49.2707Z" fill="#1E9A1C"/>
<path fill-rule="evenodd" clip-rule="evenodd" d="M94.3301 50.7044C94.1234 50.9997 93.8171 51.1889 93.4787 51.2305C93.1402 51.272 92.7973 51.1625 92.5253 50.926C92.2534 50.6894 92.0746 50.3453 92.0285 49.9692C91.9823 49.5932 92.0725 49.216 92.2791 48.9207C92.4858 48.6254 92.792 48.4362 93.1305 48.3946C93.4689 48.3531 93.8119 48.4626 94.0838 48.6991C94.3558 48.9356 94.5345 49.2798 94.5807 49.6558C94.6269 50.0319 94.5367 50.4091 94.3301 50.7044ZM93.9119 50.3777C93.7919 50.5621 93.6128 50.6794 93.414 50.7038C93.2153 50.7282 93.0131 50.6577 92.852 50.5078C92.6909 50.3579 92.5841 50.1409 92.5551 49.9046C92.5261 49.6682 92.5772 49.4318 92.6973 49.2474C92.8173 49.063 92.9964 48.9457 93.1952 48.9213C93.3939 48.8969 93.5961 48.9674 93.7572 49.1172C93.9182 49.2671 94.025 49.4841 94.0541 49.7205C94.0831 49.9569 94.032 50.1933 93.9119 50.3777Z" fill="#1E9A1C"/>
<path d="M107.168 50.9083L106.681 50.8656L106.93 48.0193L107.641 48.0816L108.04 50.0831L108.78 48.1812L109.491 48.2435L109.242 51.0897L108.754 51.047L108.925 49.0953L108.185 50.9972L107.738 50.9581L107.339 48.9566L107.168 50.9083Z" fill="#1E9A1C"/>
<path d="M112.601 51.5333L114.712 51.8962L114.795 51.4135L113.166 51.1336L113.277 50.4899L114.604 50.718L114.687 50.2353L113.36 50.0072L113.436 49.5647L115.015 49.836L115.098 49.3533L113.036 48.9991L112.601 51.5333Z" fill="#1E9A1C"/>
<path fill-rule="evenodd" clip-rule="evenodd" d="M118.539 52.7319L118.026 52.599L118.781 49.8431L120.361 50.2519C120.592 50.3115 120.789 50.4603 120.91 50.6655C121.031 50.8707 121.065 51.1155 121.006 51.3461C120.946 51.5766 120.797 51.7741 120.592 51.895C120.387 52.0158 120.142 52.0502 119.912 51.9906L118.805 51.7045L118.539 52.7319ZM120.005 51.4667L118.938 51.1907L119.122 50.4795L120.189 50.7554C120.283 50.7798 120.364 50.8406 120.413 50.9246C120.463 51.0085 120.477 51.1087 120.453 51.203C120.428 51.2973 120.367 51.3781 120.283 51.4275C120.199 51.477 120.099 51.4911 120.005 51.4667Z" fill="#1E9A1C"/>
<path fill-rule="evenodd" clip-rule="evenodd" d="M121.531 53.5341L122.037 53.6937L122.357 52.6816L123.443 53.0242C123.61 53.3873 123.462 53.8567 123.38 54.1171L123.848 54.2644C123.943 53.9607 124.129 53.3728 123.928 53.0415C123.998 53.0245 124.066 52.9991 124.131 52.9654C124.342 52.8554 124.501 52.666 124.573 52.4389C124.645 52.2117 124.623 51.9655 124.513 51.7542C124.403 51.543 124.214 51.3841 123.987 51.3125L122.429 50.8215L121.531 53.5341ZM122.516 52.1755L123.567 52.5069C123.66 52.5362 123.761 52.5274 123.847 52.4824C123.934 52.4374 123.999 52.36 124.028 52.267C124.057 52.1741 124.048 52.0734 124.003 51.987C123.958 51.9005 123.881 51.8355 123.788 51.8062L122.737 51.4748L122.516 52.1755Z" fill="#1E9A1C"/>
<path fill-rule="evenodd" clip-rule="evenodd" d="M126.187 55.1017C126.506 55.2211 126.865 55.1947 127.185 55.0282C127.505 54.8617 127.759 54.5688 127.892 54.2139C128.024 53.859 128.025 53.4712 127.893 53.1358C127.761 52.8004 127.507 52.5449 127.188 52.4255C126.868 52.3061 126.509 52.3326 126.189 52.4991C125.87 52.6656 125.616 52.9585 125.483 53.3134C125.35 53.6682 125.35 54.056 125.482 54.3914C125.614 54.7268 125.868 54.9823 126.187 55.1017ZM126.373 54.6047C126.56 54.6748 126.773 54.6535 126.965 54.5454C127.157 54.4372 127.311 54.2511 127.395 54.0281C127.478 53.805 127.483 53.5632 127.41 53.3559C127.336 53.1485 127.189 52.9927 127.002 52.9225C126.814 52.8524 126.601 52.8737 126.41 52.9819C126.218 53.09 126.063 53.2761 125.98 53.4992C125.897 53.7222 125.891 53.964 125.965 54.1714C126.038 54.3787 126.185 54.5346 126.373 54.6047Z" fill="#1E9A1C"/>
<path d="M131.357 54.5866C131.243 54.2448 131.003 53.9763 130.69 53.8404C130.377 53.7044 130.017 53.712 129.69 53.8616C129.362 54.0111 129.092 54.2903 128.941 54.6378C128.79 54.9852 128.77 55.3725 128.884 55.7143C128.998 56.0562 129.238 56.3246 129.551 56.4606C129.85 56.5906 130.192 56.5893 130.508 56.4581L130.355 56.8105L130.729 56.9732L131.286 55.694C131.29 55.6838 131.295 55.6734 131.3 55.6631L130.307 55.2319L130.144 55.6062L130.574 55.7931C130.509 55.855 130.435 55.9066 130.357 55.9457C130.16 56.0436 129.946 56.0538 129.762 55.9739C129.579 55.8941 129.44 55.7307 129.378 55.5198C129.315 55.3089 129.333 55.0678 129.428 54.8494C129.523 54.631 129.687 54.4532 129.884 54.3553C130.081 54.2573 130.295 54.2471 130.479 54.327C130.662 54.4068 130.801 54.5702 130.863 54.7811C130.88 54.8368 130.891 54.8947 130.896 54.9537L131.423 55.1829C131.442 54.9799 131.42 54.7762 131.357 54.5866Z" fill="#1E9A1C"/>
<path fill-rule="evenodd" clip-rule="evenodd" d="M131.687 57.4199L132.162 57.6566L132.635 56.7069L133.655 57.2153C133.763 57.6001 133.544 58.0406 133.422 58.2849L133.86 58.5035C134.002 58.2185 134.278 57.6668 134.131 57.3082C134.203 57.3024 134.274 57.288 134.344 57.2648C134.57 57.1892 134.756 57.027 134.862 56.8139C134.969 56.6008 134.986 56.3541 134.91 56.1283C134.835 55.9025 134.673 55.7159 134.459 55.6096L132.998 54.8811L131.687 57.4199ZM132.872 56.232L133.858 56.7238C133.946 56.7672 134.046 56.7743 134.139 56.7434C134.231 56.7125 134.308 56.6461 134.351 56.5589C134.394 56.4717 134.402 56.3708 134.371 56.2785C134.34 56.1861 134.273 56.1097 134.186 56.0663L133.2 55.5745L132.872 56.232Z" fill="#1E9A1C"/>
<path d="M134.921 59.0634L137.159 60.3297L137.42 59.8678L135.609 58.8428L135.97 58.2033L137.391 59.0073L137.633 58.581L136.212 57.777L136.493 57.2797L138.198 58.2444L138.459 57.7826L136.328 56.5767L134.921 59.0634Z" fill="#1E9A1C"/>
<path d="M139.436 61.1908C139.092 60.9715 138.936 60.703 139.09 60.462L138.548 60.1166C138.162 60.7179 138.754 61.3125 139.15 61.5647C139.614 61.8608 140.311 62.1351 140.711 61.5068C141.032 61.0028 140.543 60.5335 140.146 60.1516C139.872 59.8879 139.64 59.6658 139.749 59.5028C139.908 59.2533 140.125 59.3309 140.392 59.5008C140.667 59.6763 140.848 59.9244 140.683 60.1826L141.208 60.5171C141.595 59.9287 141.098 59.4182 140.788 59.2208L140.748 59.1954C140.413 58.9797 139.637 58.4812 139.177 59.1864C138.859 59.6739 139.31 60.1159 139.698 60.4968C139.991 60.7841 140.248 61.0366 140.114 61.2475C140.015 61.4022 139.78 61.4101 139.436 61.1908Z" fill="#1E9A1C"/>
<path d="M142.155 62.4888C141.989 62.7214 142.13 62.9977 142.463 63.2347C142.795 63.4718 143.029 63.4761 143.136 63.3268C143.282 63.1232 143.038 62.8576 142.76 62.5554C142.393 62.1547 141.966 61.6897 142.308 61.2195C142.805 60.5394 143.554 61.0778 143.877 61.3108L143.916 61.3382C144.215 61.5516 144.685 62.0874 144.268 62.6547L143.761 62.2932C143.939 62.044 143.771 61.7867 143.505 61.5971C143.248 61.4134 143.035 61.3246 142.864 61.5655C142.746 61.7225 142.966 61.9564 143.226 62.2341C143.603 62.6363 144.066 63.1306 143.719 63.6171C143.286 64.2235 142.605 63.9131 142.157 63.5932C141.775 63.3206 141.215 62.6958 141.632 62.1155L142.155 62.4888Z" fill="#1E9A1C"/>
<path fill-rule="evenodd" clip-rule="evenodd" d="M146.026 66.0147C145.67 66.0742 145.32 65.9884 145.054 65.7762C144.787 65.5639 144.625 65.2425 144.603 64.8828C144.581 64.523 144.701 64.1543 144.937 63.8578C145.173 63.5613 145.505 63.3612 145.86 63.3017C146.216 63.2421 146.565 63.3279 146.832 63.5402C147.099 63.7524 147.261 64.0738 147.283 64.4336C147.305 64.7933 147.185 65.162 146.949 65.4585C146.713 65.7551 146.381 65.9551 146.026 66.0147ZM145.966 65.4875C145.75 65.5311 145.541 65.4856 145.384 65.3609C145.227 65.2362 145.136 65.0426 145.13 64.8227C145.124 64.6028 145.204 64.3745 145.352 64.1881C145.5 64.0017 145.705 63.8725 145.92 63.8289C146.136 63.7852 146.345 63.8307 146.502 63.9554C146.659 64.0801 146.75 64.2737 146.756 64.4936C146.762 64.7136 146.682 64.9418 146.534 65.1282C146.386 65.3146 146.181 65.4438 145.966 65.4875Z" fill="#1E9A1C"/>
<path d="M95.8939 53.3266L95.4966 54.5494L96.108 54.748" fill="white"/>
<path d="M95.8939 53.3266L96.2912 54.5494L95.6798 54.748" fill="white"/>
<path d="M97.1167 54.215H95.831V54.8578" fill="white"/>
<path d="M97.1167 54.215L96.0765 54.9707L95.6987 54.4506" fill="white"/>
<path d="M94.6711 54.215L95.7113 54.9707L96.0892 54.4506" fill="white"/>
<path d="M94.6711 54.215H95.9568V54.8578" fill="white"/>
<path d="M96.6496 55.6524L96.2523 54.4297L95.6409 54.6283" fill="white"/>
<path d="M96.6496 55.6524L95.6095 54.8967L95.9873 54.3766" fill="white"/>
<path d="M95.1382 55.6524L96.1784 54.8967L95.8005 54.3766" fill="white"/>
<path d="M95.1382 55.6524L95.5355 54.4297L96.1469 54.6283" fill="white"/>
<path d="M98.547 65.9388L98.1497 67.1616L98.7611 67.3603" fill="white"/>
<path d="M98.547 65.9388L98.9443 67.1616L98.3329 67.3603" fill="white"/>
<path d="M99.7698 66.8272H98.4841V67.4701" fill="white"/>
<path d="M99.7698 66.8272L98.7296 67.5829L98.3517 67.0629" fill="white"/>
<path d="M97.3242 66.8272L98.3644 67.5829L98.7422 67.0629" fill="white"/>
<path d="M97.3242 66.8272H98.6099V67.4701" fill="white"/>
<path d="M99.3027 68.2647L98.9054 67.0419L98.294 67.2406" fill="white"/>
<path d="M99.3027 68.2647L98.2625 67.509L98.6404 66.9889" fill="white"/>
<path d="M97.7913 68.2647L98.8314 67.509L98.4536 66.9889" fill="white"/>
<path d="M97.7913 68.2647L98.1886 67.0419L98.8 67.2406" fill="white"/>
<path d="M94.8735 68.847L94.5424 69.866L95.0519 70.0315" fill="white"/>
<path d="M94.8735 68.847L95.2046 69.866L94.6951 70.0315" fill="white"/>
<path d="M95.8925 69.5873H94.8211V70.123" fill="white"/>
<path d="M95.8925 69.5873L95.0257 70.2171L94.7108 69.7837" fill="white"/>
<path d="M93.8545 69.5873L94.7213 70.2171L95.0362 69.7837" fill="white"/>
<path d="M93.8545 69.5873H94.926V70.123" fill="white"/>
<path d="M95.5033 70.7852L95.1722 69.7662L94.6627 69.9318" fill="white"/>
<path d="M95.5033 70.7852L94.6365 70.1554L94.9514 69.722" fill="white"/>
<path d="M94.2437 70.7852L95.1105 70.1554L94.7957 69.722" fill="white"/>
<path d="M94.2437 70.7852L94.5748 69.7662L95.0843 69.9318" fill="white"/>
<path d="M101.486 64.7756L101.297 65.3578L101.588 65.4524" fill="white"/>
<path d="M101.486 64.7756L101.675 65.3578L101.384 65.4524" fill="white"/>
<path d="M102.068 65.1986H101.456V65.5047" fill="white"/>
<path d="M102.068 65.1986L101.573 65.5585L101.393 65.3108" fill="white"/>
<path d="M100.903 65.1986L101.399 65.5585L101.579 65.3108" fill="white"/>
<path d="M100.903 65.1986H101.516V65.5047" fill="white"/>
<path d="M101.846 65.8831L101.656 65.3008L101.365 65.3954" fill="white"/>
<path d="M101.846 65.8831L101.35 65.5232L101.53 65.2756" fill="white"/>
<path d="M101.126 65.8831L101.621 65.5232L101.441 65.2756" fill="white"/>
<path d="M101.126 65.8831L101.315 65.3008L101.606 65.3954" fill="white"/>
<path d="M104.792 69.1327L104.461 70.1517L104.97 70.3172" fill="white"/>
<path d="M104.792 69.1327L105.123 70.1517L104.613 70.3172" fill="white"/>
<path d="M105.811 69.873H104.739V70.4087" fill="white"/>
<path d="M105.811 69.873L104.944 70.5028L104.629 70.0694" fill="white"/>
<path d="M103.773 69.873L104.64 70.5028L104.955 70.0694" fill="white"/>
<path d="M103.773 69.873H104.844V70.4087" fill="white"/>
<path d="M105.422 71.0709L105.091 70.0519L104.581 70.2175" fill="white"/>
<path d="M105.422 71.0709L104.555 70.4412L104.87 70.0078" fill="white"/>
<path d="M104.162 71.0709L105.029 70.4412L104.714 70.0078" fill="white"/>
<path d="M104.162 71.0709L104.493 70.0519L105.003 70.2175" fill="white"/>
<path d="M103.894 72.3266L103.629 73.1418L104.037 73.2742" fill="white"/>
<path d="M103.894 72.3266L104.159 73.1418L103.751 73.2742" fill="white"/>
<path d="M104.709 72.9188H103.852V73.3474" fill="white"/>
<path d="M104.709 72.9188L104.016 73.4227L103.764 73.0759" fill="white"/>
<path d="M103.079 72.9188L103.772 73.4227L104.024 73.0759" fill="white"/>
<path d="M103.079 72.9188H103.936V73.3474" fill="white"/>
<path d="M104.398 73.8772L104.133 73.062L103.725 73.1944" fill="white"/>
<path d="M104.398 73.8772L103.704 73.3733L103.956 73.0266" fill="white"/>
<path d="M103.39 73.8772L104.084 73.3733L103.832 73.0266" fill="white"/>
<path d="M103.39 73.8772L103.655 73.062L104.063 73.1944" fill="white"/>
<path d="M129.69 49.4082L129.293 50.631L129.904 50.8296" fill="white"/>
<path d="M129.69 49.4082L130.087 50.631L129.476 50.8296" fill="white"/>
<path d="M130.913 50.2966H129.627V50.9395" fill="white"/>
<path d="M130.913 50.2966L129.872 51.0523L129.495 50.5323" fill="white"/>
<path d="M128.467 50.2966L129.507 51.0523L129.885 50.5323" fill="white"/>
<path d="M128.467 50.2966H129.753V50.9395" fill="white"/>
<path d="M130.446 51.7341L130.048 50.5113L129.437 50.7099" fill="white"/>
<path d="M130.446 51.7341L129.405 50.9784L129.783 50.4583" fill="white"/>
<path d="M128.934 51.7341L129.974 50.9784L129.596 50.4583" fill="white"/>
<path d="M128.934 51.7341L129.331 50.5113L129.943 50.7099" fill="white"/>
<path d="M141.404 69.2449L141.007 70.4677L141.618 70.6664" fill="white"/>
<path d="M141.404 69.2449L141.801 70.4677L141.19 70.6664" fill="white"/>
<path d="M142.627 70.1333H141.341V70.7762" fill="white"/>
<path d="M142.627 70.1333L141.587 70.8891L141.209 70.369" fill="white"/>
<path d="M140.181 70.1333L141.222 70.8891L141.599 70.369" fill="white"/>
<path d="M140.181 70.1333H141.467V70.7762" fill="white"/>
<path d="M142.16 71.5708L141.763 70.348L141.151 70.5467" fill="white"/>
<path d="M142.16 71.5708L141.12 70.8151L141.498 70.295" fill="white"/>
<path d="M140.648 71.5708L141.689 70.8151L141.311 70.295" fill="white"/>
<path d="M140.648 71.5708L141.046 70.348L141.657 70.5467" fill="white"/>
<path d="M145.567 69.9592L145.303 70.7744L145.71 70.9069" fill="white"/>
<path d="M145.567 69.9592L145.832 70.7744L145.425 70.9069" fill="white"/>
<path d="M146.383 70.5515H145.525V70.9801" fill="white"/>
<path d="M146.383 70.5515L145.689 71.0553L145.437 70.7086" fill="white"/>
<path d="M144.752 70.5515L145.446 71.0553L145.698 70.7086" fill="white"/>
<path d="M144.752 70.5515H145.609V70.9801" fill="white"/>
<path d="M146.071 71.5098L145.806 70.6946L145.399 70.8271" fill="white"/>
<path d="M146.071 71.5098L145.378 71.006L145.63 70.6593" fill="white"/>
<path d="M145.064 71.5098L145.757 71.006L145.505 70.6593" fill="white"/>
<path d="M145.064 71.5098L145.328 70.6946L145.736 70.8271" fill="white"/>
<path d="M142.629 72.1123L142.298 73.1313L142.807 73.2968" fill="white"/>
<path d="M142.629 72.1123L142.96 73.1313L142.45 73.2968" fill="white"/>
<path d="M143.648 72.8526H142.576V73.3883" fill="white"/>
<path d="M143.648 72.8526L142.781 73.4824L142.466 73.049" fill="white"/>
<path d="M141.61 72.8526L142.476 73.4824L142.791 73.049" fill="white"/>
<path d="M141.61 72.8526H142.681V73.3883" fill="white"/>
<path d="M143.258 74.0505L142.927 73.0315L142.418 73.1971" fill="white"/>
<path d="M143.258 74.0505L142.392 73.4207L142.706 72.9873" fill="white"/>
<path d="M141.999 74.0505L142.866 73.4207L142.551 72.9873" fill="white"/>
<path d="M141.999 74.0505L142.33 73.0315L142.839 73.1971" fill="white"/>
<path d="M135.404 78.398L135.073 79.417L135.583 79.5825" fill="white"/>
<path d="M135.404 78.398L135.735 79.417L135.226 79.5825" fill="white"/>
<path d="M136.423 79.1383H135.352V79.6741" fill="white"/>
<path d="M136.423 79.1383L135.556 79.7681L135.241 79.3347" fill="white"/>
<path d="M134.385 79.1383L135.252 79.7681L135.567 79.3347" fill="white"/>
<path d="M134.385 79.1383H135.457V79.6741" fill="white"/>
<path d="M136.034 80.3362L135.703 79.3172L135.193 79.4828" fill="white"/>
<path d="M136.034 80.3362L135.167 79.7065L135.482 79.2731" fill="white"/>
<path d="M134.774 80.3362L135.641 79.7065L135.326 79.2731" fill="white"/>
<path d="M134.774 80.3362L135.105 79.3172L135.615 79.4828" fill="white"/>
<path d="M135.363 81.6327L135.098 82.4479L135.506 82.5803" fill="white"/>
<path d="M135.363 81.6327L135.628 82.4479L135.221 82.5803" fill="white"/>
<path d="M136.178 82.225H135.321V82.6535" fill="white"/>
<path d="M136.178 82.225L135.485 82.7288L135.233 82.3821" fill="white"/>
<path d="M134.548 82.225L135.242 82.7288L135.493 82.3821" fill="white"/>
<path d="M134.548 82.225H135.405V82.6535" fill="white"/>
<path d="M135.867 83.1833L135.602 82.3681L135.195 82.5005" fill="white"/>
<path d="M135.867 83.1833L135.174 82.6795L135.426 82.3327" fill="white"/>
<path d="M134.859 83.1833L135.553 82.6795L135.301 82.3327" fill="white"/>
<path d="M134.859 83.1833L135.124 82.3681L135.532 82.5005" fill="white"/>
<path d="M138.384 76.2449L138.119 77.0601L138.526 77.1926" fill="white"/>
<path d="M138.384 76.2449L138.649 77.0601L138.241 77.1926" fill="white"/>
<path d="M139.199 76.8372H138.342V77.2658" fill="white"/>
<path d="M139.199 76.8372L138.505 77.341L138.254 76.9943" fill="white"/>
<path d="M137.569 76.8372L138.262 77.341L138.514 76.9943" fill="white"/>
<path d="M137.569 76.8372H138.426V77.2658" fill="white"/>
<path d="M138.888 77.7955L138.623 76.9803L138.215 77.1128" fill="white"/>
<path d="M138.888 77.7955L138.194 77.2917L138.446 76.945" fill="white"/>
<path d="M137.88 77.7955L138.573 77.2917L138.321 76.945" fill="white"/>
<path d="M137.88 77.7955L138.145 76.9803L138.552 77.1128" fill="white"/>
<path d="M140.792 74.5204L140.461 75.5394L140.97 75.705" fill="white"/>
<path d="M140.792 74.5204L141.123 75.5394L140.613 75.705" fill="white"/>
<path d="M141.811 75.2608H140.739V75.7965" fill="white"/>
<path d="M141.811 75.2608L140.944 75.8906L140.629 75.4572" fill="white"/>
<path d="M139.773 75.2608L140.64 75.8906L140.955 75.4572" fill="white"/>
<path d="M139.773 75.2608H140.844V75.7965" fill="white"/>
<path d="M141.422 76.4587L141.091 75.4397L140.581 75.6052" fill="white"/>
<path d="M141.422 76.4587L140.555 75.8289L140.87 75.3955" fill="white"/>
<path d="M140.162 76.4587L141.029 75.8289L140.714 75.3955" fill="white"/>
<path d="M140.162 76.4587L140.493 75.4397L141.003 75.6052" fill="white"/>
<path d="M135.282 75.6735L135.017 76.4887L135.424 76.6211" fill="white"/>
<path d="M135.282 75.6735L135.547 76.4887L135.139 76.6211" fill="white"/>
<path d="M136.097 76.2658H135.24V76.6944" fill="white"/>
<path d="M136.097 76.2658L135.403 76.7696L135.152 76.4229" fill="white"/>
<path d="M134.466 76.2658L135.16 76.7696L135.412 76.4229" fill="white"/>
<path d="M134.466 76.2658H135.324V76.6944" fill="white"/>
<path d="M135.785 77.2241L135.521 76.4089L135.113 76.5413" fill="white"/>
<path d="M135.785 77.2241L135.092 76.7203L135.344 76.3736" fill="white"/>
<path d="M134.778 77.2241L135.471 76.7203L135.219 76.3736" fill="white"/>
<path d="M134.778 77.2241L135.043 76.4089L135.45 76.5413" fill="white"/>
<path d="M108.955 60.1531L108.624 61.1721L109.134 61.3376" fill="white"/>
<path d="M108.955 60.1531L109.286 61.1721L108.777 61.3376" fill="white"/>
<path d="M109.974 60.8934H108.903V61.4292" fill="white"/>
<path d="M109.974 60.8934L109.107 61.5232L108.792 61.0898" fill="white"/>
<path d="M107.936 60.8934L108.803 61.5232L109.118 61.0898" fill="white"/>
<path d="M107.936 60.8934H109.008V61.4292" fill="white"/>
<path d="M109.585 62.0913L109.254 61.0723L108.744 61.2379" fill="white"/>
<path d="M109.585 62.0913L108.718 61.4616L109.033 61.0282" fill="white"/>
<path d="M108.325 62.0913L109.192 61.4616L108.877 61.0282" fill="white"/>
<path d="M108.325 62.0913L108.656 61.0723L109.166 61.2379" fill="white"/>
<path d="M128.547 57.6327L128.282 58.4479L128.69 58.5803" fill="white"/>
<path d="M128.547 57.6327L128.812 58.4479L128.404 58.5803" fill="white"/>
<path d="M129.362 58.225H128.505V58.6535" fill="white"/>
<path d="M129.362 58.225L128.669 58.7288L128.417 58.3821" fill="white"/>
<path d="M127.732 58.225L128.425 58.7288L128.677 58.3821" fill="white"/>
<path d="M127.732 58.225H128.589V58.6535" fill="white"/>
<path d="M129.051 59.1833L128.786 58.3681L128.378 58.5005" fill="white"/>
<path d="M129.051 59.1833L128.357 58.6795L128.609 58.3327" fill="white"/>
<path d="M128.043 59.1833L128.737 58.6795L128.485 58.3327" fill="white"/>
<path d="M128.043 59.1833L128.308 58.3681L128.716 58.5005" fill="white"/>
<path d="M120.384 72.1837L119.986 73.4065L120.598 73.6052" fill="white"/>
<path d="M120.384 72.1837L120.781 73.4065L120.17 73.6052" fill="white"/>
<path d="M121.607 73.0721H120.321V73.715" fill="white"/>
<path d="M121.607 73.0721L120.566 73.8278L120.188 73.3078" fill="white"/>
<path d="M119.161 73.0721L120.201 73.8278L120.579 73.3078" fill="white"/>
<path d="M119.161 73.0721H120.447V73.715" fill="white"/>
<path d="M121.139 74.5096L120.742 73.2868L120.131 73.4855" fill="white"/>
<path d="M121.139 74.5096L120.099 73.7539L120.477 73.2338" fill="white"/>
<path d="M119.628 74.5096L120.668 73.7539L120.29 73.2338" fill="white"/>
<path d="M119.628 74.5096L120.025 73.2868L120.637 73.4855" fill="white"/>
<path d="M123.853 66.4388L123.522 67.4578L124.032 67.6234" fill="white"/>
<path d="M123.853 66.4388L124.184 67.4578L123.675 67.6234" fill="white"/>
<path d="M124.872 67.1792H123.801V67.7149" fill="white"/>
<path d="M124.872 67.1792L124.005 67.8089L123.69 67.3755" fill="white"/>
<path d="M122.834 67.1792L123.701 67.8089L124.016 67.3755" fill="white"/>
<path d="M122.834 67.1792H123.906V67.7149" fill="white"/>
<path d="M124.483 68.3771L124.152 67.3581L123.642 67.5236" fill="white"/>
<path d="M124.483 68.3771L123.616 67.7473L123.931 67.3139" fill="white"/>
<path d="M123.223 68.3771L124.09 67.7473L123.775 67.3139" fill="white"/>
<path d="M123.223 68.3771L123.554 67.3581L124.064 67.5236" fill="white"/>
<path d="M120.384 63.7449L120.053 64.7639L120.562 64.9295" fill="white"/>
<path d="M120.384 63.7449L120.715 64.7639L120.205 64.9295" fill="white"/>
<path d="M121.403 64.4853H120.331V65.021" fill="white"/>
<path d="M121.403 64.4853L120.536 65.115L120.221 64.6816" fill="white"/>
<path d="M119.365 64.4853L120.232 65.115L120.546 64.6816" fill="white"/>
<path d="M119.365 64.4853H120.436V65.021" fill="white"/>
<path d="M121.013 65.6832L120.682 64.6642L120.173 64.8297" fill="white"/>
<path d="M121.013 65.6832L120.147 65.0534L120.462 64.62" fill="white"/>
<path d="M119.754 65.6832L120.621 65.0534L120.306 64.62" fill="white"/>
<path d="M119.754 65.6832L120.085 64.6642L120.595 64.8297" fill="white"/>
<path d="M117.363 66.6531L117.098 67.4683L117.506 67.6007" fill="white"/>
<path d="M117.363 66.6531L117.628 67.4683L117.221 67.6007" fill="white"/>
<path d="M118.178 67.2454H117.321V67.6739" fill="white"/>
<path d="M118.178 67.2454L117.485 67.7492L117.233 67.4025" fill="white"/>
<path d="M116.548 67.2454L117.242 67.7492L117.493 67.4025" fill="white"/>
<path d="M116.548 67.2454H117.405V67.6739" fill="white"/>
<path d="M117.867 68.2037L117.602 67.3885L117.195 67.5209" fill="white"/>
<path d="M117.867 68.2037L117.174 67.6999L117.426 67.3531" fill="white"/>
<path d="M116.859 68.2037L117.553 67.6999L117.301 67.3531" fill="white"/>
<path d="M116.859 68.2037L117.124 67.3885L117.532 67.5209" fill="white"/>
<path d="M118.874 68.9796L118.684 69.5619L118.975 69.6565" fill="white"/>
<path d="M118.874 68.9796L119.063 69.5619L118.772 69.6565" fill="white"/>
<path d="M119.456 69.4027H118.844V69.7088" fill="white"/>
<path d="M119.456 69.4027L118.96 69.7626L118.781 69.5149" fill="white"/>
<path d="M118.291 69.4027L118.787 69.7626L118.966 69.5149" fill="white"/>
<path d="M118.291 69.4027H118.903V69.7088" fill="white"/>
<path d="M119.233 70.0872L119.044 69.5049L118.753 69.5995" fill="white"/>
<path d="M119.233 70.0872L118.738 69.7273L118.918 69.4797" fill="white"/>
<path d="M118.514 70.0872L119.009 69.7273L118.829 69.4797" fill="white"/>
<path d="M118.514 70.0872L118.703 69.5049L118.994 69.5995" fill="white"/>
<path d="M129.363 79.1327L129.032 80.1517L129.542 80.3172" fill="white"/>
<path d="M129.363 79.1327L129.694 80.1517L129.185 80.3172" fill="white"/>
<path d="M130.382 79.873H129.311V80.4087" fill="white"/>
<path d="M130.382 79.873L129.515 80.5028L129.201 80.0694" fill="white"/>
<path d="M128.344 79.873L129.211 80.5028L129.526 80.0694" fill="white"/>
<path d="M128.344 79.873H129.416V80.4087" fill="white"/>
<path d="M129.993 81.0709L129.662 80.0519L129.152 80.2175" fill="white"/>
<path d="M129.993 81.0709L129.126 80.4412L129.441 80.0078" fill="white"/>
<path d="M128.734 81.0709L129.6 80.4412L129.285 80.0078" fill="white"/>
<path d="M128.734 81.0709L129.065 80.0519L129.574 80.2175" fill="white"/>
<path d="M131.935 76.6939L131.67 77.5091L132.077 77.6415" fill="white"/>
<path d="M131.935 76.6939L132.2 77.5091L131.792 77.6415" fill="white"/>
<path d="M132.75 77.2862H131.893V77.7148" fill="white"/>
<path d="M132.75 77.2862L132.056 77.79L131.805 77.4433" fill="white"/>
<path d="M131.12 77.2862L131.813 77.79L132.065 77.4433" fill="white"/>
<path d="M131.12 77.2862H131.977V77.7148" fill="white"/>
<path d="M132.439 78.2445L132.174 77.4293L131.766 77.5617" fill="white"/>
<path d="M132.439 78.2445L131.745 77.7407L131.997 77.394" fill="white"/>
<path d="M131.431 78.2445L132.124 77.7407L131.872 77.394" fill="white"/>
<path d="M131.431 78.2445L131.696 77.4293L132.103 77.5617" fill="white"/>
<path d="M126.996 75.9592L126.731 76.7744L127.139 76.9069" fill="white"/>
<path d="M126.996 75.9592L127.261 76.7744L126.853 76.9069" fill="white"/>
<path d="M127.811 76.5515H126.954V76.9801" fill="white"/>
<path d="M127.811 76.5515L127.118 77.0553L126.866 76.7086" fill="white"/>
<path d="M126.181 76.5515L126.874 77.0553L127.126 76.7086" fill="white"/>
<path d="M126.181 76.5515H127.038V76.9801" fill="white"/>
<path d="M127.5 77.5098L127.235 76.6946L126.827 76.8271" fill="white"/>
<path d="M127.5 77.5098L126.806 77.006L127.058 76.6593" fill="white"/>
<path d="M126.492 77.5098L127.186 77.006L126.934 76.6593" fill="white"/>
<path d="M126.492 77.5098L126.757 76.6946L127.165 76.8271" fill="white"/>
<path d="M108.343 74.6327L107.946 75.8555L108.557 76.0541" fill="white"/>
<path d="M108.343 74.6327L108.74 75.8555L108.129 76.0541" fill="white"/>
<path d="M109.566 75.5211H108.28V76.164" fill="white"/>
<path d="M109.566 75.5211L108.526 76.2768L108.148 75.7567" fill="white"/>
<path d="M107.12 75.5211L108.16 76.2768L108.538 75.7567" fill="white"/>
<path d="M107.12 75.5211H108.406V76.164" fill="white"/>
<path d="M109.099 76.9586L108.701 75.7358L108.09 75.9344" fill="white"/>
<path d="M109.099 76.9586L108.058 76.2028L108.436 75.6828" fill="white"/>
<path d="M107.587 76.9586L108.627 76.2028L108.249 75.6828" fill="white"/>
<path d="M107.587 76.9586L107.984 75.7358L108.596 75.9344" fill="white"/>
<path d="M120.384 83.0409L120.251 83.4485L120.455 83.5147" fill="white"/>
<path d="M120.384 83.0409L120.516 83.4485L120.312 83.5147" fill="white"/>
<path d="M120.791 83.337H120.363V83.5513" fill="white"/>
<path d="M120.791 83.337L120.445 83.5889L120.319 83.4155" fill="white"/>
<path d="M119.976 83.337L120.323 83.5889L120.449 83.4155" fill="white"/>
<path d="M119.976 83.337H120.405V83.5513" fill="white"/>
<path d="M120.636 83.8162L120.503 83.4086L120.299 83.4748" fill="white"/>
<path d="M120.636 83.8162L120.289 83.5642L120.415 83.3909" fill="white"/>
<path d="M120.132 83.8162L120.479 83.5642L120.353 83.3909" fill="white"/>
<path d="M120.132 83.8162L120.264 83.4086L120.468 83.4748" fill="white"/>
</g>
<defs>
<clipPath id="clip0_909_237102">
<rect width="240" height="120" fill="white"/>
</clipPath>
</defs>
</svg>
