<svg width="240" height="120" viewBox="0 0 240 120" fill="none" xmlns="http://www.w3.org/2000/svg">
<g clip-path="url(#clip0_307_43317)">
<path d="M0 0H240V120H0V0Z" fill="#1E9A1C"/>
<path d="M48.8555 60L119.998 105.429L191.141 60L119.998 14.5714L48.8555 60Z" fill="#FDD406"/>
<path d="M119.855 90C136.424 90 149.855 76.5685 149.855 60C149.855 43.4315 136.424 30 119.855 30C103.287 30 89.8555 43.4315 89.8555 60C89.8555 76.5685 103.287 90 119.855 90Z" fill="#0F3296"/>
<path d="M90.8086 52.4694C94.7127 51.7812 98.6945 51.4285 102.713 51.4285C119.655 51.4285 135.95 57.6981 148.497 68.9524C148.976 67.4188 149.335 65.8323 149.563 64.2038C136.492 53.227 119.916 47.1428 102.713 47.1428C99.244 47.1428 95.8008 47.3902 92.4067 47.8751C91.7551 49.3481 91.2186 50.8833 90.8086 52.4694Z" fill="white"/>
<path d="M103.056 50.7116L105.626 50.8013L105.645 50.2711L103.564 50.1984L103.59 49.4642L105.222 49.5211L105.239 49.0316L103.607 48.9747L103.627 48.4036L105.585 48.472L105.604 47.9417L103.156 47.8562L103.056 50.7116Z" fill="#1E9A1C"/>
<path fill-rule="evenodd" clip-rule="evenodd" d="M100.775 50.7237L99.4286 50.7472L99.3787 47.8905L100.725 47.867C100.886 47.8642 101.046 47.8931 101.196 47.952C101.345 48.011 101.482 48.0988 101.597 48.2105C101.713 48.3222 101.806 48.4556 101.87 48.6031C101.934 48.7505 101.968 48.9092 101.971 49.07L101.978 49.4781C101.981 49.6388 101.952 49.7986 101.893 49.9482C101.834 50.0978 101.746 50.2344 101.635 50.35C101.523 50.4657 101.39 50.5582 101.242 50.6224C101.095 50.6865 100.936 50.7209 100.775 50.7237ZM100.725 50.1939L99.9499 50.2074L99.9185 48.4118L100.694 48.3983C100.9 48.3947 101.098 48.4729 101.246 48.6158C101.394 48.7587 101.479 48.9545 101.483 49.1601L101.487 49.405C101.491 49.6106 101.412 49.8093 101.27 49.9572C101.127 50.1052 100.931 50.1903 100.725 50.1939Z" fill="#1E9A1C"/>
<path fill-rule="evenodd" clip-rule="evenodd" d="M96.3369 50.9357L95.8075 50.9727L95.649 48.1197L97.2776 48.0058C97.5152 47.9892 97.7496 48.0677 97.9294 48.2239C98.1091 48.3801 98.2194 48.6014 98.236 48.839C98.2527 49.0765 98.1742 49.311 98.018 49.4907C97.97 49.5459 97.9159 49.5945 97.8572 49.6359C98.165 49.8707 98.208 50.4857 98.2302 50.8033L97.7416 50.8375C97.7225 50.5651 97.6882 50.0741 97.3994 49.7976L96.2628 49.8771L96.3369 50.9357ZM97.3252 49.2709L96.2258 49.3478L96.1746 48.6149L97.2739 48.538C97.3711 48.5312 97.467 48.5633 97.5406 48.6272C97.6141 48.6911 97.6592 48.7816 97.666 48.8788C97.6728 48.976 97.6407 49.0719 97.5768 49.1454C97.5129 49.219 97.4224 49.2641 97.3252 49.2709Z" fill="#1E9A1C"/>
<path fill-rule="evenodd" clip-rule="evenodd" d="M94.331 50.7046C94.1243 50.9999 93.8181 51.1891 93.4796 51.2307C93.1412 51.2723 92.7983 51.1627 92.5263 50.9262C92.2543 50.6897 92.0756 50.3455 92.0294 49.9695C91.9832 49.5934 92.0734 49.2162 92.2801 48.921C92.4867 48.6257 92.793 48.4364 93.1314 48.3949C93.4699 48.3533 93.8128 48.4628 94.0848 48.6994C94.3568 48.9359 94.5355 49.28 94.5817 49.6561C94.6278 50.0321 94.5377 50.4093 94.331 50.7046ZM93.9129 50.3779C93.7928 50.5623 93.6137 50.6796 93.415 50.704C93.2162 50.7285 93.014 50.658 92.853 50.5081C92.6919 50.3582 92.5851 50.1412 92.5561 49.9048C92.527 49.6684 92.5782 49.432 92.6982 49.2476C92.8182 49.0632 92.9973 48.9459 93.1961 48.9215C93.3949 48.8971 93.597 48.9676 93.7581 49.1175C93.9192 49.2674 94.026 49.4844 94.055 49.7208C94.084 49.9571 94.0329 50.1935 93.9129 50.3779Z" fill="#1E9A1C"/>
<path d="M107.169 50.9086L106.681 50.8659L106.931 48.0196L107.642 48.0818L108.041 50.0834L108.781 48.1815L109.492 48.2437L109.243 51.09L108.755 51.0473L108.926 49.0956L108.186 50.9975L107.739 50.9584L107.34 48.9568L107.169 50.9086Z" fill="#1E9A1C"/>
<path d="M112.601 51.5336L114.713 51.8965L114.796 51.4138L113.167 51.1338L113.278 50.4902L114.605 50.7183L114.688 50.2356L113.361 50.0075L113.437 49.565L115.016 49.8363L115.099 49.3535L113.037 48.9993L112.601 51.5336Z" fill="#1E9A1C"/>
<path fill-rule="evenodd" clip-rule="evenodd" d="M118.54 52.7321L118.027 52.5993L118.782 49.8433L120.362 50.2521C120.593 50.3118 120.79 50.4605 120.911 50.6657C121.032 50.8709 121.066 51.1158 121.007 51.3463C120.947 51.5769 120.798 51.7743 120.593 51.8952C120.388 52.0161 120.143 52.0505 119.913 51.9908L118.806 51.7047L118.54 52.7321ZM120.006 51.4669L118.939 51.191L119.123 50.4797L120.19 50.7556C120.284 50.78 120.365 50.8409 120.414 50.9248C120.464 51.0088 120.478 51.1089 120.453 51.2032C120.429 51.2976 120.368 51.3783 120.284 51.4278C120.2 51.4772 120.1 51.4913 120.006 51.4669Z" fill="#1E9A1C"/>
<path fill-rule="evenodd" clip-rule="evenodd" d="M121.532 53.5344L122.038 53.6939L122.357 52.6818L123.444 53.0245C123.611 53.3876 123.463 53.857 123.381 54.1174L123.848 54.2647C123.944 53.961 124.13 53.373 123.929 53.0417C123.999 53.0248 124.067 52.9993 124.132 52.9656C124.343 52.8556 124.502 52.6663 124.574 52.4391C124.645 52.212 124.624 51.9657 124.514 51.7545C124.404 51.5432 124.215 51.3843 123.987 51.3127L122.43 50.8218L121.532 53.5344ZM122.517 52.1758L123.568 52.5072C123.661 52.5365 123.762 52.5277 123.848 52.4827C123.935 52.4377 124 52.3602 124.029 52.2673C124.058 52.1744 124.049 52.0736 124.004 51.9872C123.959 51.9008 123.882 51.8358 123.789 51.8065L122.738 51.4751L122.517 52.1758Z" fill="#1E9A1C"/>
<path fill-rule="evenodd" clip-rule="evenodd" d="M126.188 55.102C126.507 55.2214 126.866 55.1949 127.186 55.0284C127.506 54.8619 127.76 54.569 127.893 54.2141C128.025 53.8592 128.026 53.4715 127.894 53.1361C127.762 52.8007 127.508 52.5452 127.189 52.4258C126.869 52.3063 126.51 52.3328 126.19 52.4993C125.871 52.6658 125.617 52.9587 125.484 53.3136C125.351 53.6685 125.351 54.0563 125.483 54.3917C125.615 54.727 125.869 54.9825 126.188 55.102ZM126.374 54.605C126.561 54.6751 126.774 54.6537 126.966 54.5456C127.158 54.4375 127.312 54.2514 127.395 54.0283C127.479 53.8052 127.484 53.5634 127.411 53.3561C127.337 53.1488 127.19 52.9929 127.003 52.9228C126.815 52.8526 126.602 52.874 126.41 52.9821C126.219 53.0903 126.064 53.2764 125.981 53.4994C125.898 53.7225 125.892 53.9643 125.966 54.1716C126.039 54.3789 126.186 54.5348 126.374 54.605Z" fill="#1E9A1C"/>
<path d="M131.358 54.5869C131.244 54.245 131.004 53.9766 130.691 53.8406C130.378 53.7047 130.018 53.7123 129.69 53.8618C129.363 54.0114 129.093 54.2906 128.942 54.638C128.791 54.9855 128.771 55.3727 128.885 55.7146C128.999 56.0564 129.239 56.3248 129.552 56.4608C129.851 56.5909 130.193 56.5895 130.509 56.4583L130.356 56.8107L130.73 56.9735L131.287 55.6942C131.291 55.684 131.296 55.6737 131.3 55.6634L130.308 55.2321L130.145 55.6064L130.575 55.7933C130.51 55.8552 130.436 55.9069 130.358 55.9459C130.161 56.0439 129.947 56.054 129.763 55.9742C129.58 55.8943 129.441 55.731 129.379 55.5201C129.316 55.3092 129.334 55.068 129.429 54.8496C129.524 54.6312 129.688 54.4535 129.885 54.3555C130.082 54.2575 130.296 54.2474 130.479 54.3272C130.663 54.4071 130.802 54.5704 130.864 54.7813C130.881 54.8371 130.892 54.8949 130.897 54.9539L131.424 55.1831C131.443 54.9801 131.421 54.7765 131.358 54.5869Z" fill="#1E9A1C"/>
<path fill-rule="evenodd" clip-rule="evenodd" d="M131.688 57.4201L132.163 57.6569L132.636 56.7071L133.656 57.2155C133.764 57.6003 133.545 58.0408 133.423 58.2852L133.861 58.5037C134.003 58.2188 134.278 57.667 134.132 57.3085C134.204 57.3027 134.275 57.2882 134.345 57.265C134.57 57.1895 134.757 57.0273 134.863 56.8141C134.97 56.601 134.987 56.3544 134.911 56.1285C134.836 55.9027 134.674 55.7161 134.46 55.6099L132.999 54.8814L131.688 57.4201ZM132.873 56.2323L133.859 56.724C133.946 56.7675 134.047 56.7745 134.14 56.7436C134.232 56.7127 134.308 56.6464 134.352 56.5592C134.395 56.472 134.402 56.3711 134.372 56.2787C134.341 56.1863 134.274 56.11 134.187 56.0665L133.201 55.5748L132.873 56.2323Z" fill="#1E9A1C"/>
<path d="M134.922 59.0637L137.16 60.3299L137.421 59.8681L135.61 58.843L135.971 58.2036L137.392 59.0075L137.634 58.5812L136.213 57.7773L136.494 57.2799L138.199 58.2447L138.46 57.7829L136.329 56.5769L134.922 59.0637Z" fill="#1E9A1C"/>
<path d="M139.437 61.191C139.093 60.9717 138.937 60.7032 139.091 60.4623L138.549 60.1168C138.163 60.7182 138.755 61.3128 139.15 61.565C139.615 61.8611 140.312 62.1353 140.712 61.5071C141.033 61.0031 140.544 60.5337 140.147 60.1518C139.873 59.8881 139.641 59.6661 139.75 59.5031C139.909 59.2535 140.126 59.3311 140.393 59.5011C140.668 59.6765 140.849 59.9247 140.684 60.1829L141.209 60.5173C141.596 59.929 141.099 59.4185 140.789 59.2211L140.749 59.1957C140.414 58.98 139.638 58.4814 139.177 59.1866C138.86 59.6741 139.311 60.1162 139.699 60.4971C139.992 60.7844 140.249 61.0368 140.115 61.2477C140.016 61.4024 139.781 61.4103 139.437 61.191Z" fill="#1E9A1C"/>
<path d="M142.156 62.4891C141.99 62.7217 142.131 62.998 142.464 63.235C142.796 63.472 143.03 63.4764 143.137 63.3271C143.283 63.1235 143.039 62.8579 142.761 62.5557C142.394 62.155 141.967 61.6899 142.309 61.2197C142.806 60.5396 143.555 61.0781 143.878 61.311L143.917 61.3385C144.216 61.5518 144.686 62.0876 144.269 62.6549L143.762 62.2935C143.94 62.0442 143.772 61.787 143.506 61.5973C143.249 61.4136 143.036 61.3248 142.865 61.5657C142.747 61.7228 142.967 61.9566 143.227 62.2343C143.604 62.6365 144.067 63.1308 143.72 63.6173C143.287 64.2237 142.606 63.9134 142.158 63.5934C141.776 63.3208 141.216 62.6961 141.632 62.1158L142.156 62.4891Z" fill="#1E9A1C"/>
<path fill-rule="evenodd" clip-rule="evenodd" d="M146.027 66.0149C145.671 66.0745 145.321 65.9887 145.055 65.7764C144.788 65.5641 144.625 65.2428 144.604 64.883C144.582 64.5232 144.702 64.1545 144.938 63.858C145.174 63.5615 145.506 63.3615 145.861 63.3019C146.217 63.2423 146.566 63.3281 146.833 63.5404C147.1 63.7527 147.262 64.074 147.284 64.4338C147.306 64.7936 147.186 65.1623 146.95 65.4588C146.714 65.7553 146.382 65.9553 146.027 66.0149ZM145.966 65.4877C145.751 65.5313 145.542 65.4858 145.385 65.3612C145.228 65.2365 145.137 65.0429 145.131 64.8229C145.125 64.603 145.205 64.3747 145.353 64.1883C145.501 64.002 145.706 63.8727 145.921 63.8291C146.137 63.7855 146.346 63.831 146.503 63.9557C146.66 64.0803 146.751 64.2739 146.757 64.4939C146.763 64.7138 146.683 64.9421 146.535 65.1285C146.387 65.3149 146.182 65.4441 145.966 65.4877Z" fill="#1E9A1C"/>
<path d="M95.8949 53.3266L95.4976 54.5494L96.109 54.748" fill="white"/>
<path d="M95.8949 53.3266L96.2922 54.5494L95.6808 54.748" fill="white"/>
<path d="M97.1177 54.215H95.8319V54.8578" fill="white"/>
<path d="M97.1177 54.215L96.0775 54.9707L95.6996 54.4506" fill="white"/>
<path d="M94.6721 54.215L95.7122 54.9707L96.0901 54.4506" fill="white"/>
<path d="M94.6721 54.215H95.9578V54.8578" fill="white"/>
<path d="M96.6506 55.6524L96.2533 54.4297L95.6419 54.6283" fill="white"/>
<path d="M96.6506 55.6524L95.6104 54.8967L95.9883 54.3766" fill="white"/>
<path d="M95.1391 55.6524L96.1793 54.8967L95.8014 54.3766" fill="white"/>
<path d="M95.1391 55.6524L95.5364 54.4297L96.1478 54.6283" fill="white"/>
<path d="M98.5479 65.9388L98.1506 67.1616L98.762 67.3603" fill="white"/>
<path d="M98.5479 65.9388L98.9452 67.1616L98.3338 67.3603" fill="white"/>
<path d="M99.7707 66.8272H98.485V67.4701" fill="white"/>
<path d="M99.7707 66.8272L98.7305 67.5829L98.3527 67.0629" fill="white"/>
<path d="M97.3251 66.8272L98.3653 67.5829L98.7432 67.0629" fill="white"/>
<path d="M97.3251 66.8272H98.6109V67.4701" fill="white"/>
<path d="M99.3037 68.2647L98.9063 67.0419L98.295 67.2406" fill="white"/>
<path d="M99.3037 68.2647L98.2635 67.509L98.6414 66.9889" fill="white"/>
<path d="M97.7922 68.2647L98.8324 67.509L98.4545 66.9889" fill="white"/>
<path d="M97.7922 68.2647L98.1895 67.0419L98.8009 67.2406" fill="white"/>
<path d="M94.8745 68.847L94.5434 69.866L95.0529 70.0315" fill="white"/>
<path d="M94.8745 68.847L95.2055 69.866L94.6961 70.0315" fill="white"/>
<path d="M95.8934 69.5873H94.822V70.123" fill="white"/>
<path d="M95.8934 69.5873L95.0266 70.2171L94.7118 69.7837" fill="white"/>
<path d="M93.8555 69.5873L94.7223 70.2171L95.0372 69.7837" fill="white"/>
<path d="M93.8555 69.5873H94.9269V70.123" fill="white"/>
<path d="M95.5042 70.7852L95.1731 69.7662L94.6636 69.9318" fill="white"/>
<path d="M95.5042 70.7852L94.6374 70.1554L94.9523 69.722" fill="white"/>
<path d="M94.2447 70.7852L95.1115 70.1554L94.7966 69.722" fill="white"/>
<path d="M94.2447 70.7852L94.5758 69.7662L95.0853 69.9318" fill="white"/>
<path d="M101.487 64.7756L101.298 65.3578L101.589 65.4524" fill="white"/>
<path d="M101.487 64.7756L101.676 65.3578L101.385 65.4524" fill="white"/>
<path d="M102.069 65.1986H101.457V65.5047" fill="white"/>
<path d="M102.069 65.1986L101.574 65.5585L101.394 65.3108" fill="white"/>
<path d="M100.904 65.1986L101.4 65.5585L101.58 65.3108" fill="white"/>
<path d="M100.904 65.1986H101.517V65.5047" fill="white"/>
<path d="M101.847 65.8831L101.657 65.3008L101.366 65.3954" fill="white"/>
<path d="M101.847 65.8831L101.351 65.5232L101.531 65.2756" fill="white"/>
<path d="M101.127 65.8831L101.622 65.5232L101.442 65.2756" fill="white"/>
<path d="M101.127 65.8831L101.316 65.3008L101.607 65.3954" fill="white"/>
<path d="M104.793 69.1327L104.462 70.1517L104.971 70.3172" fill="white"/>
<path d="M104.793 69.1327L105.124 70.1517L104.614 70.3172" fill="white"/>
<path d="M105.812 69.873H104.74V70.4087" fill="white"/>
<path d="M105.812 69.873L104.945 70.5028L104.63 70.0694" fill="white"/>
<path d="M103.774 69.873L104.641 70.5028L104.956 70.0694" fill="white"/>
<path d="M103.774 69.873H104.845V70.4087" fill="white"/>
<path d="M105.423 71.0709L105.091 70.0519L104.582 70.2175" fill="white"/>
<path d="M105.423 71.0709L104.556 70.4412L104.871 70.0078" fill="white"/>
<path d="M104.163 71.0709L105.03 70.4412L104.715 70.0078" fill="white"/>
<path d="M104.163 71.0709L104.494 70.0519L105.004 70.2175" fill="white"/>
<path d="M103.895 72.3266L103.63 73.1418L104.038 73.2742" fill="white"/>
<path d="M103.895 72.3266L104.16 73.1418L103.752 73.2742" fill="white"/>
<path d="M104.71 72.9188H103.853V73.3474" fill="white"/>
<path d="M104.71 72.9188L104.017 73.4227L103.765 73.0759" fill="white"/>
<path d="M103.08 72.9188L103.773 73.4227L104.025 73.0759" fill="white"/>
<path d="M103.08 72.9188H103.937V73.3474" fill="white"/>
<path d="M104.399 73.8772L104.134 73.062L103.726 73.1944" fill="white"/>
<path d="M104.399 73.8772L103.705 73.3733L103.957 73.0266" fill="white"/>
<path d="M103.391 73.8772L104.084 73.3733L103.833 73.0266" fill="white"/>
<path d="M103.391 73.8772L103.656 73.062L104.064 73.1944" fill="white"/>
<path d="M129.691 49.4082L129.293 50.631L129.905 50.8296" fill="white"/>
<path d="M129.691 49.4082L130.088 50.631L129.477 50.8296" fill="white"/>
<path d="M130.914 50.2966H129.628V50.9395" fill="white"/>
<path d="M130.914 50.2966L129.873 51.0523L129.496 50.5323" fill="white"/>
<path d="M128.468 50.2966L129.508 51.0523L129.886 50.5323" fill="white"/>
<path d="M128.468 50.2966H129.754V50.9395" fill="white"/>
<path d="M130.447 51.7341L130.049 50.5113L129.438 50.7099" fill="white"/>
<path d="M130.447 51.7341L129.406 50.9784L129.784 50.4583" fill="white"/>
<path d="M128.935 51.7341L129.975 50.9784L129.597 50.4583" fill="white"/>
<path d="M128.935 51.7341L129.332 50.5113L129.944 50.7099" fill="white"/>
<path d="M141.405 69.2449L141.008 70.4677L141.619 70.6664" fill="white"/>
<path d="M141.405 69.2449L141.802 70.4677L141.191 70.6664" fill="white"/>
<path d="M142.628 70.1333H141.342V70.7762" fill="white"/>
<path d="M142.628 70.1333L141.588 70.8891L141.21 70.369" fill="white"/>
<path d="M140.182 70.1333L141.222 70.8891L141.6 70.369" fill="white"/>
<path d="M140.182 70.1333H141.468V70.7762" fill="white"/>
<path d="M142.161 71.5708L141.763 70.348L141.152 70.5467" fill="white"/>
<path d="M142.161 71.5708L141.121 70.8151L141.498 70.295" fill="white"/>
<path d="M140.649 71.5708L141.69 70.8151L141.312 70.295" fill="white"/>
<path d="M140.649 71.5708L141.047 70.348L141.658 70.5467" fill="white"/>
<path d="M145.568 69.9592L145.303 70.7744L145.711 70.9069" fill="white"/>
<path d="M145.568 69.9592L145.833 70.7744L145.426 70.9069" fill="white"/>
<path d="M146.384 70.5515H145.526V70.9801" fill="white"/>
<path d="M146.384 70.5515L145.69 71.0553L145.438 70.7086" fill="white"/>
<path d="M144.753 70.5515L145.447 71.0553L145.699 70.7086" fill="white"/>
<path d="M144.753 70.5515H145.61V70.9801" fill="white"/>
<path d="M146.072 71.5098L145.807 70.6946L145.4 70.8271" fill="white"/>
<path d="M146.072 71.5098L145.379 71.006L145.631 70.6593" fill="white"/>
<path d="M145.065 71.5098L145.758 71.006L145.506 70.6593" fill="white"/>
<path d="M145.065 71.5098L145.329 70.6946L145.737 70.8271" fill="white"/>
<path d="M142.63 72.1123L142.298 73.1313L142.808 73.2968" fill="white"/>
<path d="M142.63 72.1123L142.961 73.1313L142.451 73.2968" fill="white"/>
<path d="M143.649 72.8526H142.577V73.3883" fill="white"/>
<path d="M143.649 72.8526L142.782 73.4824L142.467 73.049" fill="white"/>
<path d="M141.611 72.8526L142.477 73.4824L142.792 73.049" fill="white"/>
<path d="M141.611 72.8526H142.682V73.3883" fill="white"/>
<path d="M143.259 74.0505L142.928 73.0315L142.419 73.1971" fill="white"/>
<path d="M143.259 74.0505L142.393 73.4207L142.707 72.9873" fill="white"/>
<path d="M142 74.0505L142.867 73.4207L142.552 72.9873" fill="white"/>
<path d="M142 74.0505L142.331 73.0315L142.84 73.1971" fill="white"/>
<path d="M135.405 78.398L135.074 79.417L135.583 79.5825" fill="white"/>
<path d="M135.405 78.398L135.736 79.417L135.227 79.5825" fill="white"/>
<path d="M136.424 79.1383H135.353V79.6741" fill="white"/>
<path d="M136.424 79.1383L135.557 79.7681L135.242 79.3347" fill="white"/>
<path d="M134.386 79.1383L135.253 79.7681L135.568 79.3347" fill="white"/>
<path d="M134.386 79.1383H135.458V79.6741" fill="white"/>
<path d="M136.035 80.3362L135.704 79.3172L135.194 79.4828" fill="white"/>
<path d="M136.035 80.3362L135.168 79.7065L135.483 79.2731" fill="white"/>
<path d="M134.775 80.3362L135.642 79.7065L135.327 79.2731" fill="white"/>
<path d="M134.775 80.3362L135.106 79.3172L135.616 79.4828" fill="white"/>
<path d="M135.364 81.6327L135.099 82.4479L135.507 82.5803" fill="white"/>
<path d="M135.364 81.6327L135.629 82.4479L135.222 82.5803" fill="white"/>
<path d="M136.179 82.225H135.322V82.6535" fill="white"/>
<path d="M136.179 82.225L135.486 82.7288L135.234 82.3821" fill="white"/>
<path d="M134.549 82.225L135.243 82.7288L135.494 82.3821" fill="white"/>
<path d="M134.549 82.225H135.406V82.6535" fill="white"/>
<path d="M135.868 83.1833L135.603 82.3681L135.196 82.5005" fill="white"/>
<path d="M135.868 83.1833L135.175 82.6795L135.427 82.3327" fill="white"/>
<path d="M134.86 83.1833L135.554 82.6795L135.302 82.3327" fill="white"/>
<path d="M134.86 83.1833L135.125 82.3681L135.533 82.5005" fill="white"/>
<path d="M138.385 76.2449L138.12 77.0601L138.527 77.1926" fill="white"/>
<path d="M138.385 76.2449L138.65 77.0601L138.242 77.1926" fill="white"/>
<path d="M139.2 76.8372H138.343V77.2658" fill="white"/>
<path d="M139.2 76.8372L138.506 77.341L138.255 76.9943" fill="white"/>
<path d="M137.569 76.8372L138.263 77.341L138.515 76.9943" fill="white"/>
<path d="M137.569 76.8372H138.427V77.2658" fill="white"/>
<path d="M138.888 77.7955L138.624 76.9803L138.216 77.1128" fill="white"/>
<path d="M138.888 77.7955L138.195 77.2917L138.447 76.945" fill="white"/>
<path d="M137.881 77.7955L138.574 77.2917L138.322 76.945" fill="white"/>
<path d="M137.881 77.7955L138.146 76.9803L138.553 77.1128" fill="white"/>
<path d="M140.793 74.5204L140.462 75.5394L140.971 75.705" fill="white"/>
<path d="M140.793 74.5204L141.124 75.5394L140.614 75.705" fill="white"/>
<path d="M141.812 75.2608H140.74V75.7965" fill="white"/>
<path d="M141.812 75.2608L140.945 75.8906L140.63 75.4572" fill="white"/>
<path d="M139.774 75.2608L140.641 75.8906L140.956 75.4572" fill="white"/>
<path d="M139.774 75.2608H140.845V75.7965" fill="white"/>
<path d="M141.423 76.4587L141.092 75.4397L140.582 75.6052" fill="white"/>
<path d="M141.423 76.4587L140.556 75.8289L140.871 75.3955" fill="white"/>
<path d="M140.163 76.4587L141.03 75.8289L140.715 75.3955" fill="white"/>
<path d="M140.163 76.4587L140.494 75.4397L141.004 75.6052" fill="white"/>
<path d="M135.283 75.6735L135.018 76.4887L135.425 76.6211" fill="white"/>
<path d="M135.283 75.6735L135.547 76.4887L135.14 76.6211" fill="white"/>
<path d="M136.098 76.2658H135.241V76.6944" fill="white"/>
<path d="M136.098 76.2658L135.404 76.7696L135.152 76.4229" fill="white"/>
<path d="M134.467 76.2658L135.161 76.7696L135.413 76.4229" fill="white"/>
<path d="M134.467 76.2658H135.325V76.6944" fill="white"/>
<path d="M135.786 77.2241L135.522 76.4089L135.114 76.5413" fill="white"/>
<path d="M135.786 77.2241L135.093 76.7203L135.345 76.3736" fill="white"/>
<path d="M134.779 77.2241L135.472 76.7203L135.22 76.3736" fill="white"/>
<path d="M134.779 77.2241L135.044 76.4089L135.451 76.5413" fill="white"/>
<path d="M108.956 60.1531L108.625 61.1721L109.134 61.3376" fill="white"/>
<path d="M108.956 60.1531L109.287 61.1721L108.778 61.3376" fill="white"/>
<path d="M109.975 60.8934H108.904V61.4292" fill="white"/>
<path d="M109.975 60.8934L109.108 61.5232L108.793 61.0898" fill="white"/>
<path d="M107.937 60.8934L108.804 61.5232L109.119 61.0898" fill="white"/>
<path d="M107.937 60.8934H109.009V61.4292" fill="white"/>
<path d="M109.586 62.0913L109.255 61.0723L108.745 61.2379" fill="white"/>
<path d="M109.586 62.0913L108.719 61.4616L109.034 61.0282" fill="white"/>
<path d="M108.326 62.0913L109.193 61.4616L108.878 61.0282" fill="white"/>
<path d="M108.326 62.0913L108.657 61.0723L109.167 61.2379" fill="white"/>
<path d="M128.548 57.6327L128.283 58.4479L128.691 58.5803" fill="white"/>
<path d="M128.548 57.6327L128.813 58.4479L128.405 58.5803" fill="white"/>
<path d="M129.363 58.225H128.506V58.6535" fill="white"/>
<path d="M129.363 58.225L128.67 58.7288L128.418 58.3821" fill="white"/>
<path d="M127.733 58.225L128.426 58.7288L128.678 58.3821" fill="white"/>
<path d="M127.733 58.225H128.59V58.6535" fill="white"/>
<path d="M129.052 59.1833L128.787 58.3681L128.379 58.5005" fill="white"/>
<path d="M129.052 59.1833L128.358 58.6795L128.61 58.3327" fill="white"/>
<path d="M128.044 59.1833L128.738 58.6795L128.486 58.3327" fill="white"/>
<path d="M128.044 59.1833L128.309 58.3681L128.717 58.5005" fill="white"/>
<path d="M120.385 72.1837L119.987 73.4065L120.599 73.6052" fill="white"/>
<path d="M120.385 72.1837L120.782 73.4065L120.171 73.6052" fill="white"/>
<path d="M121.607 73.0721H120.322V73.715" fill="white"/>
<path d="M121.607 73.0721L120.567 73.8278L120.189 73.3078" fill="white"/>
<path d="M119.162 73.0721L120.202 73.8278L120.58 73.3078" fill="white"/>
<path d="M119.162 73.0721H120.448V73.715" fill="white"/>
<path d="M121.14 74.5096L120.743 73.2868L120.132 73.4855" fill="white"/>
<path d="M121.14 74.5096L120.1 73.7539L120.478 73.2338" fill="white"/>
<path d="M119.629 74.5096L120.669 73.7539L120.291 73.2338" fill="white"/>
<path d="M119.629 74.5096L120.026 73.2868L120.638 73.4855" fill="white"/>
<path d="M123.854 66.4388L123.523 67.4578L124.032 67.6234" fill="white"/>
<path d="M123.854 66.4388L124.185 67.4578L123.676 67.6234" fill="white"/>
<path d="M124.873 67.1792H123.802V67.7149" fill="white"/>
<path d="M124.873 67.1792L124.006 67.8089L123.691 67.3755" fill="white"/>
<path d="M122.835 67.1792L123.702 67.8089L124.017 67.3755" fill="white"/>
<path d="M122.835 67.1792H123.906V67.7149" fill="white"/>
<path d="M124.484 68.3771L124.153 67.3581L123.643 67.5236" fill="white"/>
<path d="M124.484 68.3771L123.617 67.7473L123.932 67.3139" fill="white"/>
<path d="M123.224 68.3771L124.091 67.7473L123.776 67.3139" fill="white"/>
<path d="M123.224 68.3771L123.555 67.3581L124.065 67.5236" fill="white"/>
<path d="M120.385 63.7449L120.054 64.7639L120.563 64.9295" fill="white"/>
<path d="M120.385 63.7449L120.716 64.7639L120.206 64.9295" fill="white"/>
<path d="M121.404 64.4853H120.332V65.021" fill="white"/>
<path d="M121.404 64.4853L120.537 65.115L120.222 64.6816" fill="white"/>
<path d="M119.366 64.4853L120.232 65.115L120.547 64.6816" fill="white"/>
<path d="M119.366 64.4853H120.437V65.021" fill="white"/>
<path d="M121.014 65.6832L120.683 64.6642L120.174 64.8297" fill="white"/>
<path d="M121.014 65.6832L120.148 65.0534L120.463 64.62" fill="white"/>
<path d="M119.755 65.6832L120.622 65.0534L120.307 64.62" fill="white"/>
<path d="M119.755 65.6832L120.086 64.6642L120.595 64.8297" fill="white"/>
<path d="M117.364 66.6531L117.099 67.4683L117.507 67.6007" fill="white"/>
<path d="M117.364 66.6531L117.629 67.4683L117.222 67.6007" fill="white"/>
<path d="M118.179 67.2454H117.322V67.6739" fill="white"/>
<path d="M118.179 67.2454L117.486 67.7492L117.234 67.4025" fill="white"/>
<path d="M116.549 67.2454L117.243 67.7492L117.494 67.4025" fill="white"/>
<path d="M116.549 67.2454H117.406V67.6739" fill="white"/>
<path d="M117.868 68.2037L117.603 67.3885L117.196 67.5209" fill="white"/>
<path d="M117.868 68.2037L117.175 67.6999L117.427 67.3531" fill="white"/>
<path d="M116.86 68.2037L117.554 67.6999L117.302 67.3531" fill="white"/>
<path d="M116.86 68.2037L117.125 67.3885L117.533 67.5209" fill="white"/>
<path d="M118.874 68.9796L118.685 69.5619L118.976 69.6565" fill="white"/>
<path d="M118.874 68.9796L119.064 69.5619L118.773 69.6565" fill="white"/>
<path d="M119.457 69.4027H118.844V69.7088" fill="white"/>
<path d="M119.457 69.4027L118.961 69.7626L118.781 69.5149" fill="white"/>
<path d="M118.292 69.4027L118.787 69.7626L118.967 69.5149" fill="white"/>
<path d="M118.292 69.4027H118.904V69.7088" fill="white"/>
<path d="M119.234 70.0872L119.045 69.5049L118.754 69.5995" fill="white"/>
<path d="M119.234 70.0872L118.739 69.7273L118.919 69.4797" fill="white"/>
<path d="M118.515 70.0872L119.01 69.7273L118.83 69.4797" fill="white"/>
<path d="M118.515 70.0872L118.704 69.5049L118.995 69.5995" fill="white"/>
<path d="M129.364 79.1327L129.033 80.1517L129.543 80.3172" fill="white"/>
<path d="M129.364 79.1327L129.695 80.1517L129.186 80.3172" fill="white"/>
<path d="M130.383 79.873H129.312V80.4087" fill="white"/>
<path d="M130.383 79.873L129.516 80.5028L129.202 80.0694" fill="white"/>
<path d="M128.345 79.873L129.212 80.5028L129.527 80.0694" fill="white"/>
<path d="M128.345 79.873H129.417V80.4087" fill="white"/>
<path d="M129.994 81.0709L129.663 80.0519L129.153 80.2175" fill="white"/>
<path d="M129.994 81.0709L129.127 80.4412L129.442 80.0078" fill="white"/>
<path d="M128.734 81.0709L129.601 80.4412L129.286 80.0078" fill="white"/>
<path d="M128.734 81.0709L129.066 80.0519L129.575 80.2175" fill="white"/>
<path d="M131.936 76.6939L131.671 77.5091L132.078 77.6415" fill="white"/>
<path d="M131.936 76.6939L132.201 77.5091L131.793 77.6415" fill="white"/>
<path d="M132.751 77.2862H131.894V77.7148" fill="white"/>
<path d="M132.751 77.2862L132.057 77.79L131.806 77.4433" fill="white"/>
<path d="M131.12 77.2862L131.814 77.79L132.066 77.4433" fill="white"/>
<path d="M131.12 77.2862H131.978V77.7148" fill="white"/>
<path d="M132.439 78.2445L132.175 77.4293L131.767 77.5617" fill="white"/>
<path d="M132.439 78.2445L131.746 77.7407L131.998 77.394" fill="white"/>
<path d="M131.432 78.2445L132.125 77.7407L131.873 77.394" fill="white"/>
<path d="M131.432 78.2445L131.697 77.4293L132.104 77.5617" fill="white"/>
<path d="M126.997 75.9592L126.732 76.7744L127.14 76.9069" fill="white"/>
<path d="M126.997 75.9592L127.262 76.7744L126.854 76.9069" fill="white"/>
<path d="M127.812 76.5515H126.955V76.9801" fill="white"/>
<path d="M127.812 76.5515L127.119 77.0553L126.867 76.7086" fill="white"/>
<path d="M126.182 76.5515L126.875 77.0553L127.127 76.7086" fill="white"/>
<path d="M126.182 76.5515H127.039V76.9801" fill="white"/>
<path d="M127.501 77.5098L127.236 76.6946L126.828 76.8271" fill="white"/>
<path d="M127.501 77.5098L126.807 77.006L127.059 76.6593" fill="white"/>
<path d="M126.493 77.5098L127.187 77.006L126.935 76.6593" fill="white"/>
<path d="M126.493 77.5098L126.758 76.6946L127.166 76.8271" fill="white"/>
<path d="M108.344 74.6327L107.947 75.8555L108.558 76.0541" fill="white"/>
<path d="M108.344 74.6327L108.741 75.8555L108.13 76.0541" fill="white"/>
<path d="M109.567 75.5211H108.281V76.164" fill="white"/>
<path d="M109.567 75.5211L108.526 76.2768L108.149 75.7567" fill="white"/>
<path d="M107.121 75.5211L108.161 76.2768L108.539 75.7567" fill="white"/>
<path d="M107.121 75.5211H108.407V76.164" fill="white"/>
<path d="M109.1 76.9586L108.702 75.7358L108.091 75.9344" fill="white"/>
<path d="M109.1 76.9586L108.059 76.2028L108.437 75.6828" fill="white"/>
<path d="M107.588 76.9586L108.628 76.2028L108.25 75.6828" fill="white"/>
<path d="M107.588 76.9586L107.985 75.7358L108.597 75.9344" fill="white"/>
<path d="M120.385 83.0409L120.252 83.4485L120.456 83.5147" fill="white"/>
<path d="M120.385 83.0409L120.517 83.4485L120.313 83.5147" fill="white"/>
<path d="M120.792 83.337H120.364V83.5513" fill="white"/>
<path d="M120.792 83.337L120.446 83.5889L120.32 83.4155" fill="white"/>
<path d="M119.977 83.337L120.324 83.5889L120.45 83.4155" fill="white"/>
<path d="M119.977 83.337H120.406V83.5513" fill="white"/>
<path d="M120.637 83.8162L120.504 83.4086L120.3 83.4748" fill="white"/>
<path d="M120.637 83.8162L120.29 83.5642L120.416 83.3909" fill="white"/>
<path d="M120.133 83.8162L120.479 83.5642L120.354 83.3909" fill="white"/>
<path d="M120.133 83.8162L120.265 83.4086L120.469 83.4748" fill="white"/>
</g>
<defs>
<clipPath id="clip0_307_43317">
<rect width="240" height="120" fill="white"/>
</clipPath>
</defs>
</svg>
