<svg width="240" height="120" viewBox="0 0 240 120" fill="none" xmlns="http://www.w3.org/2000/svg">
<path d="M0 0H240V120H0V0Z" fill="#1E9A1C"/>
<path d="M49 59.9999L120.143 105.428L191.286 59.9999L120.143 14.5713L49 59.9999Z" fill="#FDD406"/>
<path d="M120 90C136.569 90 150 76.5685 150 60C150 43.4315 136.569 30 120 30C103.431 30 90 43.4315 90 60C90 76.5685 103.431 90 120 90Z" fill="#0F3296"/>
<path d="M90.9531 52.4694C94.8572 51.7812 98.8391 51.4285 102.857 51.4285C119.799 51.4285 136.095 57.6981 148.642 68.9524C149.12 67.4188 149.48 65.8323 149.708 64.2038C136.636 53.227 120.06 47.1428 102.857 47.1428C99.3886 47.1428 95.9454 47.3902 92.5513 47.8751C91.8997 49.3481 91.3632 50.8833 90.9531 52.4694Z" fill="white"/>
<path d="M103.201 50.7116L105.771 50.8013L105.789 50.2711L103.709 50.1984L103.735 49.4642L105.366 49.5211L105.383 49.0316L103.752 48.9747L103.772 48.4036L105.73 48.472L105.748 47.9417L103.301 47.8562L103.201 50.7116Z" fill="#1E9A1C"/>
<path fill-rule="evenodd" clip-rule="evenodd" d="M100.92 50.7237L99.5731 50.7472L99.5233 47.8905L100.87 47.867C101.031 47.8642 101.191 47.8931 101.34 47.952C101.49 48.011 101.626 48.0988 101.742 48.2105C101.858 48.3222 101.95 48.4556 102.014 48.6031C102.078 48.7505 102.113 48.9092 102.116 49.07L102.123 49.4781C102.126 49.6388 102.097 49.7986 102.038 49.9482C101.979 50.0978 101.891 50.2344 101.779 50.35C101.668 50.4657 101.534 50.5582 101.387 50.6224C101.239 50.6865 101.081 50.7209 100.92 50.7237ZM100.87 50.1939L100.094 50.2074L100.063 48.4118L100.838 48.3983C101.044 48.3947 101.243 48.4729 101.391 48.6158C101.539 48.7587 101.624 48.9545 101.627 49.1601L101.632 49.405C101.635 49.6106 101.557 49.8093 101.414 49.9572C101.271 50.1052 101.075 50.1903 100.87 50.1939Z" fill="#1E9A1C"/>
<path fill-rule="evenodd" clip-rule="evenodd" d="M96.4814 50.9357L95.9521 50.9727L95.7935 48.1197L97.4222 48.0058C97.6597 47.9892 97.8942 48.0677 98.0739 48.2239C98.2536 48.3801 98.364 48.6014 98.3806 48.839C98.3972 49.0765 98.3187 49.311 98.1625 49.4907C98.1145 49.5459 98.0605 49.5945 98.0017 49.6359C98.3095 49.8707 98.3525 50.4857 98.3747 50.8033L97.8861 50.8375C97.8671 50.5651 97.8327 50.0741 97.544 49.7976L96.4074 49.8771L96.4814 50.9357ZM97.4697 49.2709L96.3703 49.3478L96.3191 48.6149L97.4185 48.538C97.5156 48.5312 97.6116 48.5633 97.6851 48.6272C97.7586 48.6911 97.8037 48.7816 97.8105 48.8788C97.8173 48.976 97.7852 49.0719 97.7213 49.1454C97.6574 49.219 97.5669 49.2641 97.4697 49.2709Z" fill="#1E9A1C"/>
<path fill-rule="evenodd" clip-rule="evenodd" d="M94.4755 50.7046C94.2689 50.9999 93.9626 51.1891 93.6242 51.2307C93.2857 51.2723 92.9428 51.1627 92.6708 50.9262C92.3988 50.6897 92.2201 50.3455 92.1739 49.9695C92.1278 49.5934 92.2179 49.2162 92.4246 48.921C92.6313 48.6257 92.9375 48.4364 93.276 48.3949C93.6144 48.3533 93.9573 48.4628 94.2293 48.6994C94.5013 48.9359 94.68 49.28 94.7262 49.6561C94.7724 50.0321 94.6822 50.4093 94.4755 50.7046ZM94.0574 50.3779C93.9374 50.5623 93.7583 50.6796 93.5595 50.704C93.3607 50.7285 93.1586 50.658 92.9975 50.5081C92.8364 50.3582 92.7296 50.1412 92.7006 49.9048C92.6716 49.6684 92.7227 49.432 92.8427 49.2476C92.9628 49.0632 93.1419 48.9459 93.3406 48.9215C93.5394 48.8971 93.7416 48.9676 93.9026 49.1175C94.0637 49.2674 94.1705 49.4844 94.1995 49.7208C94.2286 49.9571 94.1774 50.1935 94.0574 50.3779Z" fill="#1E9A1C"/>
<path d="M107.314 50.9086L106.826 50.8659L107.075 48.0196L107.787 48.0818L108.185 50.0834L108.925 48.1815L109.637 48.2437L109.388 51.09L108.9 51.0473L109.07 49.0956L108.33 50.9975L107.883 50.9584L107.485 48.9568L107.314 50.9086Z" fill="#1E9A1C"/>
<path d="M112.746 51.5336L114.858 51.8965L114.941 51.4138L113.312 51.1338L113.422 50.4902L114.75 50.7183L114.833 50.2356L113.505 50.0075L113.581 49.565L115.16 49.8363L115.243 49.3535L113.181 48.9993L112.746 51.5336Z" fill="#1E9A1C"/>
<path fill-rule="evenodd" clip-rule="evenodd" d="M118.685 52.7321L118.171 52.5993L118.926 49.8433L120.507 50.2521C120.737 50.3118 120.935 50.4605 121.056 50.6657C121.176 50.8709 121.211 51.1158 121.151 51.3463C121.092 51.5769 120.943 51.7743 120.738 51.8952C120.532 52.0161 120.288 52.0505 120.057 51.9908L118.951 51.7047L118.685 52.7321ZM120.15 51.4669L119.083 51.191L119.267 50.4797L120.334 50.7556C120.429 50.78 120.509 50.8409 120.559 50.9248C120.608 51.0088 120.622 51.1089 120.598 51.2032C120.574 51.2976 120.513 51.3783 120.429 51.4278C120.345 51.4772 120.245 51.4913 120.15 51.4669Z" fill="#1E9A1C"/>
<path fill-rule="evenodd" clip-rule="evenodd" d="M121.677 53.5344L122.183 53.6939L122.502 52.6818L123.589 53.0245C123.756 53.3876 123.608 53.857 123.526 54.1174L123.993 54.2647C124.089 53.961 124.274 53.373 124.074 53.0417C124.144 53.0248 124.212 52.9993 124.277 52.9656C124.488 52.8556 124.647 52.6663 124.718 52.4391C124.79 52.212 124.768 51.9657 124.658 51.7545C124.548 51.5432 124.359 51.3843 124.132 51.3127L122.575 50.8218L121.677 53.5344ZM122.662 52.1758L123.713 52.5072C123.805 52.5365 123.906 52.5277 123.993 52.4827C124.079 52.4377 124.144 52.3602 124.173 52.2673C124.203 52.1744 124.194 52.0736 124.149 51.9872C124.104 51.9008 124.026 51.8358 123.934 51.8065L122.882 51.4751L122.662 52.1758Z" fill="#1E9A1C"/>
<path fill-rule="evenodd" clip-rule="evenodd" d="M126.332 55.102C126.652 55.2214 127.011 55.1949 127.331 55.0284C127.65 54.8619 127.904 54.569 128.037 54.2141C128.17 53.8592 128.17 53.4715 128.038 53.1361C127.906 52.8007 127.652 52.5452 127.333 52.4258C127.014 52.3063 126.655 52.3328 126.335 52.4993C126.015 52.6658 125.761 52.9587 125.628 53.3136C125.496 53.6685 125.495 54.0563 125.627 54.3917C125.759 54.727 126.013 54.9825 126.332 55.102ZM126.518 54.605C126.706 54.6751 126.919 54.6537 127.11 54.5456C127.302 54.4375 127.457 54.2514 127.54 54.0283C127.623 53.8052 127.629 53.5634 127.555 53.3561C127.482 53.1488 127.335 52.9929 127.147 52.9228C126.96 52.8526 126.747 52.874 126.555 52.9821C126.363 53.0903 126.209 53.2764 126.125 53.4994C126.042 53.7225 126.037 53.9643 126.11 54.1716C126.184 54.3789 126.331 54.5348 126.518 54.605Z" fill="#1E9A1C"/>
<path d="M131.502 54.5869C131.388 54.245 131.148 53.9766 130.836 53.8406C130.523 53.7047 130.163 53.7123 129.835 53.8618C129.507 54.0114 129.238 54.2906 129.087 54.638C128.936 54.9855 128.915 55.3727 129.029 55.7146C129.144 56.0564 129.384 56.3248 129.696 56.4608C129.995 56.5909 130.338 56.5895 130.654 56.4583L130.501 56.8107L130.875 56.9735L131.431 55.6942C131.436 55.684 131.441 55.6737 131.445 55.6634L130.453 55.2321L130.29 55.6064L130.72 55.7933C130.654 55.8552 130.581 55.9069 130.502 55.9459C130.305 56.0439 130.092 56.054 129.908 55.9742C129.724 55.8943 129.586 55.731 129.523 55.5201C129.46 55.3092 129.479 55.068 129.573 54.8496C129.668 54.6312 129.832 54.4535 130.029 54.3555C130.226 54.2575 130.44 54.2474 130.624 54.3272C130.808 54.4071 130.946 54.5704 131.009 54.7813C131.025 54.8371 131.036 54.8949 131.042 54.9539L131.569 55.1831C131.588 54.9801 131.566 54.7765 131.502 54.5869Z" fill="#1E9A1C"/>
<path fill-rule="evenodd" clip-rule="evenodd" d="M131.832 57.4201L132.307 57.6569L132.781 56.7071L133.8 57.2155C133.909 57.6003 133.689 58.0408 133.567 58.2852L134.006 58.5037C134.148 58.2188 134.423 57.667 134.277 57.3085C134.349 57.3027 134.42 57.2882 134.489 57.265C134.715 57.1895 134.902 57.0273 135.008 56.8141C135.114 56.601 135.131 56.3544 135.056 56.1285C134.98 55.9027 134.818 55.7161 134.605 55.6099L133.144 54.8814L131.832 57.4201ZM133.018 56.2323L134.004 56.724C134.091 56.7675 134.192 56.7745 134.284 56.7436C134.377 56.7127 134.453 56.6464 134.496 56.5592C134.54 56.472 134.547 56.3711 134.516 56.2787C134.485 56.1863 134.419 56.11 134.332 56.0665L133.345 55.5748L133.018 56.2323Z" fill="#1E9A1C"/>
<path d="M135.067 59.0637L137.305 60.3299L137.566 59.8681L135.754 58.843L136.116 58.2036L137.537 59.0075L137.778 58.5812L136.357 57.7773L136.638 57.2799L138.344 58.2447L138.605 57.7829L136.473 56.5769L135.067 59.0637Z" fill="#1E9A1C"/>
<path d="M139.582 61.191C139.237 60.9717 139.082 60.7032 139.235 60.4623L138.693 60.1168C138.308 60.7182 138.899 61.3128 139.295 61.565C139.76 61.8611 140.456 62.1353 140.856 61.5071C141.177 61.0031 140.689 60.5337 140.291 60.1518C140.017 59.8881 139.786 59.6661 139.895 59.5031C140.054 59.2535 140.27 59.3311 140.537 59.5011C140.813 59.6765 140.993 59.9247 140.829 60.1829L141.354 60.5173C141.741 59.929 141.243 59.4185 140.933 59.2211L140.894 59.1957C140.558 58.98 139.783 58.4814 139.322 59.1866C139.005 59.6741 139.455 60.1162 139.843 60.4971C140.136 60.7844 140.394 61.0368 140.259 61.2477C140.16 61.4024 139.926 61.4103 139.582 61.191Z" fill="#1E9A1C"/>
<path d="M142.3 62.4891C142.134 62.7217 142.276 62.998 142.608 63.235C142.94 63.472 143.175 63.4764 143.282 63.3271C143.427 63.1235 143.183 62.8579 142.906 62.5557C142.538 62.155 142.111 61.6899 142.454 61.2197C142.951 60.5396 143.699 61.0781 144.023 61.311L144.061 61.3385C144.36 61.5518 144.83 62.0876 144.413 62.6549L143.906 62.2935C144.084 62.0442 143.917 61.787 143.651 61.5973C143.393 61.4136 143.181 61.3248 143.009 61.5657C142.892 61.7228 143.111 61.9566 143.371 62.2343C143.748 62.6365 144.212 63.1308 143.865 63.6173C143.432 64.2237 142.751 63.9134 142.302 63.5934C141.92 63.3208 141.361 62.6961 141.777 62.1158L142.3 62.4891Z" fill="#1E9A1C"/>
<path fill-rule="evenodd" clip-rule="evenodd" d="M146.171 66.0149C145.816 66.0745 145.466 65.9887 145.199 65.7764C144.932 65.5641 144.77 65.2428 144.748 64.883C144.726 64.5232 144.846 64.1545 145.082 63.858C145.318 63.5615 145.65 63.3615 146.006 63.3019C146.361 63.2423 146.711 63.3281 146.978 63.5404C147.245 63.7527 147.407 64.074 147.429 64.4338C147.451 64.7936 147.33 65.1623 147.095 65.4588C146.859 65.7553 146.527 65.9553 146.171 66.0149ZM146.111 65.4877C145.895 65.5313 145.686 65.4858 145.529 65.3612C145.373 65.2365 145.281 65.0429 145.275 64.8229C145.269 64.603 145.349 64.3747 145.497 64.1883C145.646 64.002 145.85 63.8727 146.066 63.8291C146.281 63.7855 146.491 63.831 146.647 63.9557C146.804 64.0803 146.896 64.2739 146.902 64.4939C146.908 64.7138 146.828 64.9421 146.679 65.1285C146.531 65.3149 146.327 65.4441 146.111 65.4877Z" fill="#1E9A1C"/>
<path d="M96.0394 53.3266L95.6421 54.5494L96.2535 54.748" fill="white"/>
<path d="M96.0394 53.3266L96.4367 54.5494L95.8253 54.748" fill="white"/>
<path d="M97.2622 54.215H95.9765V54.8578" fill="white"/>
<path d="M97.2622 54.215L96.222 54.9707L95.8442 54.4506" fill="white"/>
<path d="M94.8166 54.215L95.8568 54.9707L96.2346 54.4506" fill="white"/>
<path d="M94.8166 54.215H96.1023V54.8578" fill="white"/>
<path d="M96.7951 55.6524L96.3978 54.4297L95.7864 54.6283" fill="white"/>
<path d="M96.7951 55.6524L95.755 54.8967L96.1328 54.3766" fill="white"/>
<path d="M95.2837 55.6524L96.3238 54.8967L95.946 54.3766" fill="white"/>
<path d="M95.2837 55.6524L95.681 54.4297L96.2924 54.6283" fill="white"/>
<path d="M98.6925 65.9388L98.2952 67.1616L98.9065 67.3603" fill="white"/>
<path d="M98.6925 65.9388L99.0898 67.1616L98.4784 67.3603" fill="white"/>
<path d="M99.9152 66.8272H98.6295V67.4701" fill="white"/>
<path d="M99.9152 66.8272L98.8751 67.5829L98.4972 67.0629" fill="white"/>
<path d="M97.4697 66.8272L98.5098 67.5829L98.8877 67.0629" fill="white"/>
<path d="M97.4697 66.8272H98.7554V67.4701" fill="white"/>
<path d="M99.4482 68.2647L99.0509 67.0419L98.4395 67.2406" fill="white"/>
<path d="M99.4482 68.2647L98.408 67.509L98.7859 66.9889" fill="white"/>
<path d="M97.9367 68.2647L98.9769 67.509L98.599 66.9889" fill="white"/>
<path d="M97.9367 68.2647L98.334 67.0419L98.9454 67.2406" fill="white"/>
<path d="M95.019 68.847L94.6879 69.866L95.1974 70.0315" fill="white"/>
<path d="M95.019 68.847L95.3501 69.866L94.8406 70.0315" fill="white"/>
<path d="M96.038 69.5873H94.9665V70.123" fill="white"/>
<path d="M96.038 69.5873L95.1712 70.2171L94.8563 69.7837" fill="white"/>
<path d="M94 69.5873L94.8668 70.2171L95.1817 69.7837" fill="white"/>
<path d="M94 69.5873H95.0714V70.123" fill="white"/>
<path d="M95.6488 70.7852L95.3177 69.7662L94.8082 69.9318" fill="white"/>
<path d="M95.6488 70.7852L94.782 70.1554L95.0968 69.722" fill="white"/>
<path d="M94.3892 70.7852L95.256 70.1554L94.9411 69.722" fill="white"/>
<path d="M94.3892 70.7852L94.7203 69.7662L95.2298 69.9318" fill="white"/>
<path d="M101.631 64.7756L101.442 65.3578L101.733 65.4524" fill="white"/>
<path d="M101.631 64.7756L101.82 65.3578L101.529 65.4524" fill="white"/>
<path d="M102.214 65.1986H101.601V65.5047" fill="white"/>
<path d="M102.214 65.1986L101.718 65.5585L101.538 65.3108" fill="white"/>
<path d="M101.049 65.1986L101.544 65.5585L101.724 65.3108" fill="white"/>
<path d="M101.049 65.1986H101.661V65.5047" fill="white"/>
<path d="M101.991 65.8831L101.802 65.3008L101.511 65.3954" fill="white"/>
<path d="M101.991 65.8831L101.496 65.5232L101.676 65.2756" fill="white"/>
<path d="M101.271 65.8831L101.767 65.5232L101.587 65.2756" fill="white"/>
<path d="M101.271 65.8831L101.461 65.3008L101.752 65.3954" fill="white"/>
<path d="M104.937 69.1327L104.606 70.1517L105.116 70.3172" fill="white"/>
<path d="M104.937 69.1327L105.268 70.1517L104.759 70.3172" fill="white"/>
<path d="M105.956 69.873H104.885V70.4087" fill="white"/>
<path d="M105.956 69.873L105.09 70.5028L104.775 70.0694" fill="white"/>
<path d="M103.918 69.873L104.785 70.5028L105.1 70.0694" fill="white"/>
<path d="M103.918 69.873H104.99V70.4087" fill="white"/>
<path d="M105.567 71.0709L105.236 70.0519L104.727 70.2175" fill="white"/>
<path d="M105.567 71.0709L104.7 70.4412L105.015 70.0078" fill="white"/>
<path d="M104.308 71.0709L105.174 70.4412L104.86 70.0078" fill="white"/>
<path d="M104.308 71.0709L104.639 70.0519L105.148 70.2175" fill="white"/>
<path d="M104.039 72.3266L103.775 73.1418L104.182 73.2742" fill="white"/>
<path d="M104.039 72.3266L104.304 73.1418L103.897 73.2742" fill="white"/>
<path d="M104.855 72.9188H103.997V73.3474" fill="white"/>
<path d="M104.855 72.9188L104.161 73.4227L103.909 73.0759" fill="white"/>
<path d="M103.224 72.9188L103.918 73.4227L104.17 73.0759" fill="white"/>
<path d="M103.224 72.9188H104.081V73.3474" fill="white"/>
<path d="M104.543 73.8772L104.278 73.062L103.871 73.1944" fill="white"/>
<path d="M104.543 73.8772L103.85 73.3733L104.102 73.0266" fill="white"/>
<path d="M103.536 73.8772L104.229 73.3733L103.977 73.0266" fill="white"/>
<path d="M103.536 73.8772L103.8 73.062L104.208 73.1944" fill="white"/>
<path d="M129.835 49.4082L129.438 50.631L130.049 50.8296" fill="white"/>
<path d="M129.835 49.4082L130.233 50.631L129.621 50.8296" fill="white"/>
<path d="M131.058 50.2966H129.772V50.9395" fill="white"/>
<path d="M131.058 50.2966L130.018 51.0523L129.64 50.5323" fill="white"/>
<path d="M128.613 50.2966L129.653 51.0523L130.031 50.5323" fill="white"/>
<path d="M128.613 50.2966H129.898V50.9395" fill="white"/>
<path d="M130.591 51.7341L130.194 50.5113L129.582 50.7099" fill="white"/>
<path d="M130.591 51.7341L129.551 50.9784L129.929 50.4583" fill="white"/>
<path d="M129.08 51.7341L130.12 50.9784L129.742 50.4583" fill="white"/>
<path d="M129.08 51.7341L129.477 50.5113L130.088 50.7099" fill="white"/>
<path d="M141.55 69.2449L141.152 70.4677L141.764 70.6664" fill="white"/>
<path d="M141.55 69.2449L141.947 70.4677L141.336 70.6664" fill="white"/>
<path d="M142.772 70.1333H141.487V70.7762" fill="white"/>
<path d="M142.772 70.1333L141.732 70.8891L141.354 70.369" fill="white"/>
<path d="M140.327 70.1333L141.367 70.8891L141.745 70.369" fill="white"/>
<path d="M140.327 70.1333H141.613V70.7762" fill="white"/>
<path d="M142.305 71.5708L141.908 70.348L141.297 70.5467" fill="white"/>
<path d="M142.305 71.5708L141.265 70.8151L141.643 70.295" fill="white"/>
<path d="M140.794 71.5708L141.834 70.8151L141.456 70.295" fill="white"/>
<path d="M140.794 71.5708L141.191 70.348L141.803 70.5467" fill="white"/>
<path d="M145.713 69.9592L145.448 70.7744L145.856 70.9069" fill="white"/>
<path d="M145.713 69.9592L145.978 70.7744L145.57 70.9069" fill="white"/>
<path d="M146.528 70.5515H145.671V70.9801" fill="white"/>
<path d="M146.528 70.5515L145.835 71.0553L145.583 70.7086" fill="white"/>
<path d="M144.898 70.5515L145.591 71.0553L145.843 70.7086" fill="white"/>
<path d="M144.898 70.5515H145.755V70.9801" fill="white"/>
<path d="M146.217 71.5098L145.952 70.6946L145.544 70.8271" fill="white"/>
<path d="M146.217 71.5098L145.523 71.006L145.775 70.6593" fill="white"/>
<path d="M145.209 71.5098L145.902 71.006L145.651 70.6593" fill="white"/>
<path d="M145.209 71.5098L145.474 70.6946L145.882 70.8271" fill="white"/>
<path d="M142.774 72.1123L142.443 73.1313L142.952 73.2968" fill="white"/>
<path d="M142.774 72.1123L143.105 73.1313L142.596 73.2968" fill="white"/>
<path d="M143.793 72.8526H142.722V73.3883" fill="white"/>
<path d="M143.793 72.8526L142.926 73.4824L142.611 73.049" fill="white"/>
<path d="M141.755 72.8526L142.622 73.4824L142.937 73.049" fill="white"/>
<path d="M141.755 72.8526H142.827V73.3883" fill="white"/>
<path d="M143.404 74.0505L143.073 73.0315L142.563 73.1971" fill="white"/>
<path d="M143.404 74.0505L142.537 73.4207L142.852 72.9873" fill="white"/>
<path d="M142.144 74.0505L143.011 73.4207L142.696 72.9873" fill="white"/>
<path d="M142.144 74.0505L142.475 73.0315L142.985 73.1971" fill="white"/>
<path d="M135.55 78.398L135.219 79.417L135.728 79.5825" fill="white"/>
<path d="M135.55 78.398L135.881 79.417L135.371 79.5825" fill="white"/>
<path d="M136.569 79.1383H135.497V79.6741" fill="white"/>
<path d="M136.569 79.1383L135.702 79.7681L135.387 79.3347" fill="white"/>
<path d="M134.531 79.1383L135.397 79.7681L135.712 79.3347" fill="white"/>
<path d="M134.531 79.1383H135.602V79.6741" fill="white"/>
<path d="M136.179 80.3362L135.848 79.3172L135.339 79.4828" fill="white"/>
<path d="M136.179 80.3362L135.313 79.7065L135.627 79.2731" fill="white"/>
<path d="M134.92 80.3362L135.787 79.7065L135.472 79.2731" fill="white"/>
<path d="M134.92 80.3362L135.251 79.3172L135.76 79.4828" fill="white"/>
<path d="M135.509 81.6327L135.244 82.4479L135.652 82.5803" fill="white"/>
<path d="M135.509 81.6327L135.774 82.4479L135.366 82.5803" fill="white"/>
<path d="M136.324 82.225H135.467V82.6535" fill="white"/>
<path d="M136.324 82.225L135.631 82.7288L135.379 82.3821" fill="white"/>
<path d="M134.694 82.225L135.387 82.7288L135.639 82.3821" fill="white"/>
<path d="M134.694 82.225H135.551V82.6535" fill="white"/>
<path d="M136.013 83.1833L135.748 82.3681L135.34 82.5005" fill="white"/>
<path d="M136.013 83.1833L135.319 82.6795L135.571 82.3327" fill="white"/>
<path d="M135.005 83.1833L135.698 82.6795L135.447 82.3327" fill="white"/>
<path d="M135.005 83.1833L135.27 82.3681L135.677 82.5005" fill="white"/>
<path d="M138.529 76.2449L138.264 77.0601L138.672 77.1926" fill="white"/>
<path d="M138.529 76.2449L138.794 77.0601L138.386 77.1926" fill="white"/>
<path d="M139.344 76.8372H138.487V77.2658" fill="white"/>
<path d="M139.344 76.8372L138.651 77.341L138.399 76.9943" fill="white"/>
<path d="M137.714 76.8372L138.407 77.341L138.659 76.9943" fill="white"/>
<path d="M137.714 76.8372H138.571V77.2658" fill="white"/>
<path d="M139.033 77.7955L138.768 76.9803L138.361 77.1128" fill="white"/>
<path d="M139.033 77.7955L138.34 77.2917L138.591 76.945" fill="white"/>
<path d="M138.025 77.7955L138.719 77.2917L138.467 76.945" fill="white"/>
<path d="M138.025 77.7955L138.29 76.9803L138.698 77.1128" fill="white"/>
<path d="M140.937 74.5204L140.606 75.5394L141.116 75.705" fill="white"/>
<path d="M140.937 74.5204L141.268 75.5394L140.759 75.705" fill="white"/>
<path d="M141.956 75.2608H140.885V75.7965" fill="white"/>
<path d="M141.956 75.2608L141.09 75.8906L140.775 75.4572" fill="white"/>
<path d="M139.918 75.2608L140.785 75.8906L141.1 75.4572" fill="white"/>
<path d="M139.918 75.2608H140.99V75.7965" fill="white"/>
<path d="M141.567 76.4587L141.236 75.4397L140.727 75.6052" fill="white"/>
<path d="M141.567 76.4587L140.7 75.8289L141.015 75.3955" fill="white"/>
<path d="M140.308 76.4587L141.174 75.8289L140.86 75.3955" fill="white"/>
<path d="M140.308 76.4587L140.639 75.4397L141.148 75.6052" fill="white"/>
<path d="M135.427 75.6735L135.162 76.4887L135.57 76.6211" fill="white"/>
<path d="M135.427 75.6735L135.692 76.4887L135.284 76.6211" fill="white"/>
<path d="M136.242 76.2658H135.385V76.6944" fill="white"/>
<path d="M136.242 76.2658L135.549 76.7696L135.297 76.4229" fill="white"/>
<path d="M134.612 76.2658L135.305 76.7696L135.557 76.4229" fill="white"/>
<path d="M134.612 76.2658H135.469V76.6944" fill="white"/>
<path d="M135.931 77.2241L135.666 76.4089L135.258 76.5413" fill="white"/>
<path d="M135.931 77.2241L135.238 76.7203L135.489 76.3736" fill="white"/>
<path d="M134.923 77.2241L135.617 76.7203L135.365 76.3736" fill="white"/>
<path d="M134.923 77.2241L135.188 76.4089L135.596 76.5413" fill="white"/>
<path d="M109.101 60.1531L108.77 61.1721L109.279 61.3376" fill="white"/>
<path d="M109.101 60.1531L109.432 61.1721L108.922 61.3376" fill="white"/>
<path d="M110.12 60.8934H109.048V61.4292" fill="white"/>
<path d="M110.12 60.8934L109.253 61.5232L108.938 61.0898" fill="white"/>
<path d="M108.082 60.8934L108.948 61.5232L109.263 61.0898" fill="white"/>
<path d="M108.082 60.8934H109.153V61.4292" fill="white"/>
<path d="M109.73 62.0913L109.399 61.0723L108.89 61.2379" fill="white"/>
<path d="M109.73 62.0913L108.864 61.4616L109.178 61.0282" fill="white"/>
<path d="M108.471 62.0913L109.338 61.4616L109.023 61.0282" fill="white"/>
<path d="M108.471 62.0913L108.802 61.0723L109.311 61.2379" fill="white"/>
<path d="M128.692 57.6327L128.428 58.4479L128.835 58.5803" fill="white"/>
<path d="M128.692 57.6327L128.957 58.4479L128.55 58.5803" fill="white"/>
<path d="M129.508 58.225H128.651V58.6535" fill="white"/>
<path d="M129.508 58.225L128.814 58.7288L128.562 58.3821" fill="white"/>
<path d="M127.877 58.225L128.571 58.7288L128.823 58.3821" fill="white"/>
<path d="M127.877 58.225H128.734V58.6535" fill="white"/>
<path d="M129.196 59.1833L128.931 58.3681L128.524 58.5005" fill="white"/>
<path d="M129.196 59.1833L128.503 58.6795L128.755 58.3327" fill="white"/>
<path d="M128.189 59.1833L128.882 58.6795L128.63 58.3327" fill="white"/>
<path d="M128.189 59.1833L128.454 58.3681L128.861 58.5005" fill="white"/>
<path d="M120.529 72.1837L120.132 73.4065L120.743 73.6052" fill="white"/>
<path d="M120.529 72.1837L120.927 73.4065L120.315 73.6052" fill="white"/>
<path d="M121.752 73.0721H120.466V73.715" fill="white"/>
<path d="M121.752 73.0721L120.712 73.8278L120.334 73.3078" fill="white"/>
<path d="M119.306 73.0721L120.347 73.8278L120.724 73.3078" fill="white"/>
<path d="M119.306 73.0721H120.592V73.715" fill="white"/>
<path d="M121.285 74.5096L120.888 73.2868L120.276 73.4855" fill="white"/>
<path d="M121.285 74.5096L120.245 73.7539L120.623 73.2338" fill="white"/>
<path d="M119.773 74.5096L120.814 73.7539L120.436 73.2338" fill="white"/>
<path d="M119.773 74.5096L120.171 73.2868L120.782 73.4855" fill="white"/>
<path d="M123.999 66.4388L123.667 67.4578L124.177 67.6234" fill="white"/>
<path d="M123.999 66.4388L124.33 67.4578L123.82 67.6234" fill="white"/>
<path d="M125.018 67.1792H123.946V67.7149" fill="white"/>
<path d="M125.018 67.1792L124.151 67.8089L123.836 67.3755" fill="white"/>
<path d="M122.98 67.1792L123.846 67.8089L124.161 67.3755" fill="white"/>
<path d="M122.98 67.1792H124.051V67.7149" fill="white"/>
<path d="M124.628 68.3771L124.297 67.3581L123.788 67.5236" fill="white"/>
<path d="M124.628 68.3771L123.762 67.7473L124.076 67.3139" fill="white"/>
<path d="M123.369 68.3771L124.236 67.7473L123.921 67.3139" fill="white"/>
<path d="M123.369 68.3771L123.7 67.3581L124.209 67.5236" fill="white"/>
<path d="M120.529 63.7449L120.198 64.7639L120.708 64.9295" fill="white"/>
<path d="M120.529 63.7449L120.86 64.7639L120.351 64.9295" fill="white"/>
<path d="M121.548 64.4853H120.477V65.021" fill="white"/>
<path d="M121.548 64.4853L120.681 65.115L120.366 64.6816" fill="white"/>
<path d="M119.51 64.4853L120.377 65.115L120.692 64.6816" fill="white"/>
<path d="M119.51 64.4853H120.582V65.021" fill="white"/>
<path d="M121.159 65.6832L120.828 64.6642L120.318 64.8297" fill="white"/>
<path d="M121.159 65.6832L120.292 65.0534L120.607 64.62" fill="white"/>
<path d="M119.899 65.6832L120.766 65.0534L120.451 64.62" fill="white"/>
<path d="M119.899 65.6832L120.231 64.6642L120.74 64.8297" fill="white"/>
<path d="M117.509 66.6531L117.244 67.4683L117.652 67.6007" fill="white"/>
<path d="M117.509 66.6531L117.774 67.4683L117.366 67.6007" fill="white"/>
<path d="M118.324 67.2454H117.467V67.6739" fill="white"/>
<path d="M118.324 67.2454L117.631 67.7492L117.379 67.4025" fill="white"/>
<path d="M116.694 67.2454L117.387 67.7492L117.639 67.4025" fill="white"/>
<path d="M116.694 67.2454H117.551V67.6739" fill="white"/>
<path d="M118.013 68.2037L117.748 67.3885L117.34 67.5209" fill="white"/>
<path d="M118.013 68.2037L117.319 67.6999L117.571 67.3531" fill="white"/>
<path d="M117.005 68.2037L117.698 67.6999L117.447 67.3531" fill="white"/>
<path d="M117.005 68.2037L117.27 67.3885L117.677 67.5209" fill="white"/>
<path d="M119.019 68.9796L118.83 69.5619L119.121 69.6565" fill="white"/>
<path d="M119.019 68.9796L119.208 69.5619L118.917 69.6565" fill="white"/>
<path d="M119.601 69.4027H118.989V69.7088" fill="white"/>
<path d="M119.601 69.4027L119.106 69.7626L118.926 69.5149" fill="white"/>
<path d="M118.437 69.4027L118.932 69.7626L119.112 69.5149" fill="white"/>
<path d="M118.437 69.4027H119.049V69.7088" fill="white"/>
<path d="M119.379 70.0872L119.19 69.5049L118.899 69.5995" fill="white"/>
<path d="M119.379 70.0872L118.884 69.7273L119.063 69.4797" fill="white"/>
<path d="M118.659 70.0872L119.154 69.7273L118.975 69.4797" fill="white"/>
<path d="M118.659 70.0872L118.848 69.5049L119.139 69.5995" fill="white"/>
<path d="M129.509 79.1327L129.178 80.1517L129.687 80.3172" fill="white"/>
<path d="M129.509 79.1327L129.84 80.1517L129.33 80.3172" fill="white"/>
<path d="M130.528 79.873H129.456V80.4087" fill="white"/>
<path d="M130.528 79.873L129.661 80.5028L129.346 80.0694" fill="white"/>
<path d="M128.49 79.873L129.357 80.5028L129.671 80.0694" fill="white"/>
<path d="M128.49 79.873H129.561V80.4087" fill="white"/>
<path d="M130.139 81.0709L129.807 80.0519L129.298 80.2175" fill="white"/>
<path d="M130.139 81.0709L129.272 80.4412L129.587 80.0078" fill="white"/>
<path d="M128.879 81.0709L129.746 80.4412L129.431 80.0078" fill="white"/>
<path d="M128.879 81.0709L129.21 80.0519L129.72 80.2175" fill="white"/>
<path d="M132.08 76.6939L131.815 77.5091L132.223 77.6415" fill="white"/>
<path d="M132.08 76.6939L132.345 77.5091L131.937 77.6415" fill="white"/>
<path d="M132.895 77.2862H132.038V77.7148" fill="white"/>
<path d="M132.895 77.2862L132.202 77.79L131.95 77.4433" fill="white"/>
<path d="M131.265 77.2862L131.958 77.79L132.21 77.4433" fill="white"/>
<path d="M131.265 77.2862H132.122V77.7148" fill="white"/>
<path d="M132.584 78.2445L132.319 77.4293L131.912 77.5617" fill="white"/>
<path d="M132.584 78.2445L131.891 77.7407L132.142 77.394" fill="white"/>
<path d="M131.576 78.2445L132.27 77.7407L132.018 77.394" fill="white"/>
<path d="M131.576 78.2445L131.841 77.4293L132.249 77.5617" fill="white"/>
<path d="M127.141 75.9592L126.877 76.7744L127.284 76.9069" fill="white"/>
<path d="M127.141 75.9592L127.406 76.7744L126.999 76.9069" fill="white"/>
<path d="M127.957 76.5515H127.099V76.9801" fill="white"/>
<path d="M127.957 76.5515L127.263 77.0553L127.011 76.7086" fill="white"/>
<path d="M126.326 76.5515L127.02 77.0553L127.272 76.7086" fill="white"/>
<path d="M126.326 76.5515H127.183V76.9801" fill="white"/>
<path d="M127.645 77.5098L127.38 76.6946L126.973 76.8271" fill="white"/>
<path d="M127.645 77.5098L126.952 77.006L127.204 76.6593" fill="white"/>
<path d="M126.638 77.5098L127.331 77.006L127.079 76.6593" fill="white"/>
<path d="M126.638 77.5098L126.902 76.6946L127.31 76.8271" fill="white"/>
<path d="M108.488 74.6327L108.091 75.8555L108.702 76.0541" fill="white"/>
<path d="M108.488 74.6327L108.886 75.8555L108.274 76.0541" fill="white"/>
<path d="M109.711 75.5211H108.425V76.164" fill="white"/>
<path d="M109.711 75.5211L108.671 76.2768L108.293 75.7567" fill="white"/>
<path d="M107.266 75.5211L108.306 76.2768L108.684 75.7567" fill="white"/>
<path d="M107.266 75.5211H108.551V76.164" fill="white"/>
<path d="M109.244 76.9586L108.847 75.7358L108.235 75.9344" fill="white"/>
<path d="M109.244 76.9586L108.204 76.2028L108.582 75.6828" fill="white"/>
<path d="M107.733 76.9586L108.773 76.2028L108.395 75.6828" fill="white"/>
<path d="M107.733 76.9586L108.13 75.7358L108.741 75.9344" fill="white"/>
<path d="M120.529 83.0409L120.397 83.4485L120.601 83.5147" fill="white"/>
<path d="M120.529 83.0409L120.662 83.4485L120.458 83.5147" fill="white"/>
<path d="M120.937 83.337H120.508V83.5513" fill="white"/>
<path d="M120.937 83.337L120.59 83.5889L120.464 83.4155" fill="white"/>
<path d="M120.122 83.337L120.468 83.5889L120.594 83.4155" fill="white"/>
<path d="M120.122 83.337H120.55V83.5513" fill="white"/>
<path d="M120.781 83.8162L120.649 83.4086L120.445 83.4748" fill="white"/>
<path d="M120.781 83.8162L120.434 83.5642L120.56 83.3909" fill="white"/>
<path d="M120.277 83.8162L120.624 83.5642L120.498 83.3909" fill="white"/>
<path d="M120.277 83.8162L120.41 83.4086L120.614 83.4748" fill="white"/>
</svg>
