<svg width="240" height="120" viewBox="0 0 240 120" fill="none" xmlns="http://www.w3.org/2000/svg">
<g clip-path="url(#clip0_909_280883)">
<path d="M0 0H240V120H0V0Z" fill="#D91C16"/>
<path d="M6.07004 0V1.86667H4.87004V3.73333H3.40337V5.86667H2.3367V7.6H1.27002V3.2H2.3367V0.8H1.27002V0H6.07004Z" fill="white"/>
<path d="M9.80337 0V1.86667H10.87V3.73333H12.47V5.86667H13.5367V7.6H15.67V5.86667H16.7367V3.73333H18.3367V1.86667H19.4034V0H15.1367V4.26667H14.07V0H9.80337Z" fill="white"/>
<path d="M23.1367 0V1.86667H24.3367V3.73333H25.8034V5.86667H26.87V7.6H27.9367V3.2H26.87V0.8H27.9367V0H23.1367Z" fill="white"/>
<path d="M11.0034 24.4H12.07V22H11.0034V24.4Z" fill="white"/>
<path d="M17.1367 24.4H18.2034V22H17.1367V24.4Z" fill="white"/>
<path fill-rule="evenodd" clip-rule="evenodd" d="M27.9367 10.2667H26.87V12H25.8034V14.1333H24.3367V15.8667H23.1367V17.8667H22.2034V19.4667H20.3367V17.8667H19.4034V15.8667H18.2034V14.1333H16.7367V12H15.67V10.2667H13.5367V12H12.47V14.1333H11.0034V15.8667H9.80337V17.8667H8.87004V19.4667H7.00337V17.8667H6.07004V15.8667H4.87004V14.1333H3.40337V12H2.3367V10.2667H1.27002V14H2.3367V16.5333H1.27002V22H2.3367V20.1333H3.67004V18.2667H5.00337V20.1333H6.3367V22H7.40337V24.4H6.3367V26.2667H5.00337V28.1333H3.67004V26.2667H2.3367V24.4H1.27002V28.8H2.3367V31.4667H1.27002V37.3333H2.3367V35.0667H3.1367V33.3333H3.9367V31.4667H5.00337V29.6H5.9367V28.2667H7.1367V26.4H8.7367V28.2667H9.9367V29.6H11.0034V31.4667H12.07V33.3333H13.0034V35.0667H13.8034V36.5333H15.4034V35.0667H16.2034V33.3333H17.1367V31.4667H18.2034V29.6H19.27V28.2667H20.47V26.4H22.07V28.2667H23.27V29.6H24.2034V31.4667H25.27V33.3333H26.07V35.0667H26.87V37.3333H27.9367V31.4667H26.87V28.8H27.9367V24.4H26.87V26.2667H25.5367V28.1333H24.2034V26.2667H22.87V24.4H21.8034V22H22.87V20.1333H24.2034V18.2667H25.5367V20.1333H26.87V22H27.9367V16.5333H26.87V14H27.9367V10.2667ZM14.07 17.8667V14.2667H15.1367V17.8667H14.07ZM13.5367 20.1333V22H15.67V20.1333H17.0034V18.2667H18.3367V20.1333H19.67V22H20.7367V24.4H19.67V26.2667H18.3367V28.1333H17.0034V26.2667H15.67V24.4H13.5367V26.2667H12.2034V28.1333H10.87V26.2667H9.5367V24.4H8.47004V22H9.5367V20.1333H10.87V18.2667H12.2034V20.1333H13.5367ZM14.07 31.7333V28.1333H15.1367V31.7333H14.07Z" fill="white"/>
<path d="M27.9367 40.6667H27.1367V42.4H26.3367V44.5333H25.1367V46.5333H23.5367V44.5333H22.3367V42.4H21.27V40.6667H22.87V38.6667H20.07V40H18.3367V42.2667H16.87V44.8H17.9367V46.6667H18.87V48.4H19.67V50.2667H20.87V51.8667H21.8034V53.3333H23.0034V55.2H24.7367V53.2H25.9367V51.3333H26.87V50.1333H27.9367V47.0667H26.87V44.4H27.9367V40.6667Z" fill="white"/>
<path d="M27.9367 54.4H26.87V56.2667H25.9367V57.3333H24.87V59.2H23.9367V60.8H24.87V62.6667H25.9367V63.7333H26.87V65.6H27.9367V54.4Z" fill="white"/>
<path d="M27.9367 69.8667H26.87V68.6667H25.9367V66.8H24.7367V64.8H23.0034V66.6667H21.8034V68.1333H20.87V69.7333H19.67V71.6H18.87V73.3333H17.9367V75.2H16.87V77.7333H18.3367V80H20.07V81.3333H22.87V79.3333H21.27V77.6H22.3367V75.4667H23.5367V73.4667H25.1367V75.4667H26.3367V77.6H27.1367V79.3333H27.9367V75.6H26.87V72.9333H27.9367V69.8667Z" fill="white"/>
<path d="M11.0034 95.6H12.07V98H11.0034V95.6Z" fill="white"/>
<path d="M18.2034 95.6H17.1367V98H18.2034V95.6Z" fill="white"/>
<path fill-rule="evenodd" clip-rule="evenodd" d="M29.0034 82.6667H26.87V84.9333H26.07V86.6667H25.27V88.5333H24.2034V90.4H23.27V91.7333H22.07V93.6H20.47V91.7333H19.27V90.4H18.2034V88.5333H17.1367V86.6667H16.2034V84.9333H15.4034V83.4667H13.8034V84.9333H13.0034V86.6667H12.07V88.5333H11.0034V90.4H9.9367V91.7333H8.7367V93.6H7.1367V91.7333H5.9367V90.4H5.00337V88.5333H3.9367V86.6667H3.1367V84.9333H2.3367V82.6667H1.27002V88.5333H2.3367V91.2H1.27002V95.6H2.3367V93.7333H3.67004V91.8667H5.00337V93.7333H6.3367V95.6H7.40337V98H6.3367V99.8667H5.00337V101.733H3.67004V99.8667H2.3367V98H1.27002V103.467H2.3367V106H1.27002V109.733H2.3367V108H3.40337V105.867H4.87004V104.133H6.07004V102.133H7.00337V100.533H8.87004V102.133H9.80337V104.133H11.0034V105.867H12.47V108H13.5367V109.733H15.67V108H16.7367V105.867H18.2034V104.133H19.4034V102.133H20.3367V100.533H22.2034V102.133H23.1367V104.133H24.3367V105.867H25.8034V108H26.87V109.733H29.0034V106H26.87V103.467H29.0034V98H26.87V99.8667H25.5367V101.733H24.2034V99.8667H22.87V98H21.8034V95.6H22.87V93.7333H24.2034V91.8667H25.5367V93.7333H26.87V95.6H29.0034V91.2H26.87V88.5333H29.0034V82.6667ZM14.07 105.733V102.133H15.1367V105.733H14.07ZM13.5367 98V99.8667H12.2034V101.733H10.87V99.8667H9.5367V98H8.47004V95.6H9.5367V93.7333H10.87V91.8667H12.2034V93.7333H13.5367V95.6H15.67V93.7333H17.0034V91.8667H18.3367V93.7333H19.67V95.6H20.7367V98H19.67V99.8667H18.3367V101.733H17.0034V99.8667H15.67V98H13.5367ZM14.07 91.8667V88.2667H15.1367V91.8667H14.07Z" fill="white"/>
<path d="M29.0034 112.4H26.87V114.133H25.8034V116.267H24.3367V118.133H23.1367V120H27.9367L28.7367 119.2H26.87V116.8H29.0034V112.4Z" fill="white"/>
<path d="M19.4034 120V118.133H18.3367V116.267H16.7367V114.133H15.67V112.4H13.5367V114.133H12.47V116.267H10.87V118.133H9.80337V120H14.07V115.733H15.1367V120H19.4034Z" fill="white"/>
<path d="M6.07004 120V118.133H4.87004V116.267H3.40337V114.133H2.3367V112.4H1.27002V116.8H2.3367V119.2H1.27002V120H6.07004Z" fill="white"/>
<path d="M1.27002 79.3333H2.07004V77.6H2.87004V75.4667H4.07004V73.4667H5.67004V75.4667H6.87004V77.6H7.9367V79.3333H6.3367V81.3333H9.1367V80H10.87V77.7333H12.3367V75.2H11.27V73.3333H10.3367V71.6H9.5367V69.7333H8.3367V68.1333H7.40337V66.6667H6.20337V64.8H4.47004V66.8H3.27004V68.6667H2.3367V69.8667H1.27002V72.9333H2.3367V75.6H1.27002V79.3333Z" fill="white"/>
<path d="M1.27002 65.6H2.3367V63.7333H3.27004V62.6667H4.3367V60.8H5.27004V59.2H4.3367V57.3333H3.27004V56.2667H2.3367V54.4H1.27002V65.6Z" fill="white"/>
<path d="M1.27002 50.1333H2.3367V51.3333H3.27004V53.2H4.47004V55.2H6.20337V53.3333H7.40337V51.8667H8.3367V50.2667H9.5367V48.4H10.3367V46.6667H11.27V44.8H12.3367V42.2667H10.87V40H9.1367V38.6667H6.3367V40.6667H7.9367V42.4H6.87004V44.5333H5.67004V46.5333H4.07004V44.5333H2.87004V42.4H2.07004V40.6667H1.27002V44.4H2.3367V47.0667H1.27002V50.1333Z" fill="white"/>
<path fill-rule="evenodd" clip-rule="evenodd" d="M9.5367 10.2667V12.2667H8.47004V13.8667H7.40337V12.2667H6.3367V10.2667H5.27004V7.6H6.3367V5.6H7.40337V4H8.47004V5.6H9.5367V7.6H10.6034V10.2667H9.5367ZM7.27004 10.1333H8.60337V7.73333H7.27004V10.1333Z" fill="white"/>
<path d="M4.87004 24.4H3.80337V22H4.87004V24.4Z" fill="white"/>
<path fill-rule="evenodd" clip-rule="evenodd" d="M19.67 10.2667V12.2667H20.7367V13.8667H21.8034V12.2667H22.87V10.2667H23.9367V7.6H22.87V5.6H21.8034V4H20.7367V5.6H19.67V7.6H18.6034V10.2667H19.67ZM21.9367 10.1333H20.6034V7.73333H21.9367V10.1333Z" fill="white"/>
<path d="M24.3367 24.4H25.4034V22H24.3367V24.4Z" fill="white"/>
<path fill-rule="evenodd" clip-rule="evenodd" d="M9.5367 109.733V107.733H8.47004V106.133H7.40337V107.733H6.3367V109.733H5.27004V112.4H6.3367V114.4H7.40337V116H8.47004V114.4H9.5367V112.4H10.6034V109.733H9.5367ZM8.60337 109.867V112.267H7.27004V109.867H8.60337Z" fill="white"/>
<path d="M3.80337 95.6V98H4.87004V95.6H3.80337Z" fill="white"/>
<path fill-rule="evenodd" clip-rule="evenodd" d="M19.67 107.733V109.733H18.6034V112.4H19.67V114.4H20.7367V116H21.8034V114.4H22.87V112.4H23.9367V109.733H22.87V107.733H21.8034V106.133H20.7367V107.733H19.67ZM20.6034 109.867H21.9367V112.267H20.6034V109.867Z" fill="white"/>
<path d="M25.4034 95.6H24.3367V98H25.4034V95.6Z" fill="white"/>
<path fill-rule="evenodd" clip-rule="evenodd" d="M7.40337 56.6667H9.27004V55.2H10.6034V53.8667H11.27V52.5333H12.07V50.6667H13.1367V48.8H13.67V47.0667H15.5367V48.8H16.07V50.6667H17.1367V52.5333H17.9367V53.8667H18.6034V55.2H19.9367V56.6667H21.8034V63.3333H19.9367V64.8H18.6034V66.1333H17.9367V67.4667H17.1367V69.3333H16.07V71.2H15.5367V72.9333H13.67V71.2H13.1367V69.3333H12.07V67.4667H11.27V66.1333H10.6034V64.8H9.27004V63.3333H7.40337V56.6667ZM9.5367 61.2H10.6034V58.8H9.5367V61.2ZM19.67 61.2V58.8H18.6034V61.2H19.67ZM14.07 53.3333H15.1367V50.9333H14.07V53.3333ZM14.07 66.6667V69.0667H15.1367V66.6667H14.07ZM14.07 57.8667V55.8667H13.0034V54.5333H11.9367V57.8667H13.0034V59.0667H13.67V60.9333H13.0034V62.1333H11.9367V65.4667H13.0034V64.1333H14.07V62.1333H15.1367V64.1333H16.2034V65.4667H17.27V62.1333H16.2034V60.9333H15.5367V59.0667H16.2034V57.8667H17.27V54.5333H16.2034V55.8667H15.1367V57.8667H14.07Z" fill="white"/>
<path d="M27.9365 80H240V120H27.9365V80Z" fill="#1E9A1C"/>
</g>
<defs>
<clipPath id="clip0_909_280883">
<rect width="240" height="120" fill="white"/>
</clipPath>
</defs>
</svg>
