<svg width="240" height="120" viewBox="0 0 240 120" fill="none" xmlns="http://www.w3.org/2000/svg">
<g clip-path="url(#clip0_324_32307)">
<rect width="240" height="120" fill="#021455"/>
<path d="M180 10.2L182.025 16.425H188.55L183.275 20.25L185.3 26.475L180 22.65L174.7 26.475L176.725 20.25L171.45 16.425H177.975L180 10.2Z" fill="white"/>
<path d="M200.255 14.5054L199.573 21.0158L205.534 23.6698L199.16 25.0186L198.478 31.529L195.192 25.879L188.794 27.2176L193.176 22.3545L189.913 16.7146L195.874 19.3686L200.255 14.5054Z" fill="white"/>
<path d="M213.737 32.3475L217.009 26.6772L211.027 29.3377L206.661 24.4887L207.349 30.9682L201.367 33.6287L207.756 35.0079L208.46 41.506L211.731 35.8358L218.104 37.1965L213.737 32.3475Z" fill="white"/>
<path d="M227.363 44.6109L222.068 48.4604L224.084 54.666L218.816 50.8312L213.522 54.6807L215.522 48.4581L210.246 44.5995L216.792 44.6018L218.8 38.403L220.816 44.6086L227.363 44.6109Z" fill="white"/>
<path d="M223.125 66.5687L229.527 65.2054L223.548 62.5409L224.23 56.0516L219.874 60.8979L213.895 58.2333L217.145 63.9041L212.787 68.7752L219.19 67.412L222.442 73.0579L223.125 66.5687Z" fill="white"/>
<path d="M223.128 84.8999L216.724 83.5411L213.462 89.1919L212.787 82.7112L206.383 81.3524L212.346 78.6749L211.683 72.1725L216.062 77.0387L222.012 74.3829L218.749 80.0337L223.128 84.8999Z" fill="white"/>
<path d="M203.974 96.4431L209.272 100.289L207.251 94.0626L212.53 90.2273L206.014 90.2334L203.993 84.007L201.954 90.2167L195.418 90.2375L200.715 94.0834L198.696 100.278L203.974 96.4431Z" fill="white"/>
<path d="M190.354 108.712L187.079 103.044L180.697 104.4L185.061 99.5622L181.786 93.8943L187.765 96.5338L192.154 91.6904L191.468 98.2004L197.423 100.845L191.04 102.202L190.354 108.712Z" fill="white"/>
<path d="M168.959 102.202L169.646 108.712L172.921 103.044L179.303 104.4L174.939 99.5622L178.214 93.8943L172.234 96.5338L167.846 91.6904L168.532 98.2004L162.577 100.845L168.959 102.202Z" fill="white"/>
<path d="M150.728 100.289L152.749 94.0626L147.47 90.2273L153.986 90.2334L156.007 84.007L158.046 90.2167L164.582 90.2375L159.285 94.0834L161.304 100.278L156.025 96.4431L150.728 100.289Z" fill="white"/>
<path d="M141.25 80.0337L136.872 84.8999L143.275 83.5411L146.538 89.192L147.213 82.7112L153.616 81.3524L147.654 78.6749L148.316 72.1725L143.938 77.0387L137.988 74.3829L141.25 80.0337Z" fill="white"/>
<path d="M130.473 65.2055L136.452 62.5409L135.77 56.0516L140.125 60.8979L146.104 58.2333L142.854 63.9041L147.213 68.7752L140.81 67.412L137.557 73.0579L136.875 66.5687L130.473 65.2055Z" fill="white"/>
<path d="M139.183 44.6086L132.637 44.6109L137.932 48.4604L135.916 54.6661L141.183 50.8312L146.478 54.6808L144.478 48.4582L149.754 44.5996L143.207 44.6018L141.2 38.403L139.183 44.6086Z" fill="white"/>
<path d="M142.991 26.6772L148.972 29.3377L153.338 24.4887L152.651 30.9682L158.632 33.6287L152.243 35.0079L151.54 41.506L148.269 35.8358L141.896 37.1965L146.262 32.3474L142.991 26.6772Z" fill="white"/>
<path d="M164.126 19.3686L159.744 14.5054L160.426 21.0158L154.466 23.6698L160.84 25.0186L161.522 31.529L164.808 25.879L171.206 27.2176L166.824 22.3544L170.087 16.7146L164.126 19.3686Z" fill="white"/>
<rect width="120" height="60" fill="#021455"/>
<path d="M0 6.70821L46.5836 30L0 53.2918V60H13.4164L60 36.7082L106.584 60H120V53.2918L73.4164 30L120 6.70819V0H106.584L60 23.2918L13.4164 0H0V6.70821Z" fill="white"/>
<path d="M0 4.47214L51.0557 30H60L0 60H8.94426L60 34.4721L60 30L120 60V55.5279L68.9443 30H60L120 0H111.056L60 25.5279L60 30L0 0V4.47214Z" fill="#D91C16"/>
<path d="M0 20V40H50V60H70V40H120V20H70V0H50V20H0Z" fill="white"/>
<path d="M0 24V36H54V60H66V36H120V24H66V0H54V24H0Z" fill="#D91C16"/>
</g>
<defs>
<clipPath id="clip0_324_32307">
<rect width="240" height="120" fill="white"/>
</clipPath>
</defs>
</svg>
