<svg width="240" height="120" viewBox="0 0 240 120" fill="none" xmlns="http://www.w3.org/2000/svg">
<g clip-path="url(#clip0_307_41723)">
<path d="M0 0H240V120H0" fill="#D91C16"/>
<path d="M61.2872 6.47845L60.9046 10.8209L64.9162 12.5267L60.6681 13.5046L60.2854 17.8471L58.0426 14.109L53.7944 15.087L56.6564 11.7988L54.4136 8.06078L58.4252 9.76662L61.2872 6.47845Z" fill="#FDD406"/>
<path d="M28.9393 12L32.9806 24.4377H46.0584L35.4782 32.1246L39.5195 44.5623L28.9393 36.8754L18.3592 44.5623L22.4005 32.1246L11.8203 24.4377H24.8981L28.9393 12Z" fill="#FDD406"/>
<path d="M73.2081 23.6759L75.2459 19.8223L71.3322 21.7421L68.2969 18.6132L68.9134 22.9287L64.9997 24.8485L69.2944 25.5958L69.9109 29.9112L71.9487 26.0576L76.2434 26.8048L73.2081 23.6759Z" fill="#FDD406"/>
<path d="M76.5755 39.9425L73.143 42.6296L74.6378 46.7245L71.0215 44.2903L67.5889 46.9774L68.7865 42.7859L65.1702 40.3517L69.5266 40.1954L70.7242 36.0039L72.2191 40.0988L76.5755 39.9425Z" fill="#FDD406"/>
<path d="M60.854 52.7404L61.0563 48.3858L58.3331 51.7899L54.2541 50.2518L56.65 53.8937L53.9268 57.2977L58.1308 56.1444L60.5267 59.7862L60.729 55.4317L64.9329 54.2784L60.854 52.7404Z" fill="#FDD406"/>
</g>
<defs>
<clipPath id="clip0_307_41723">
<rect width="240" height="120" fill="white"/>
</clipPath>
</defs>
</svg>
