<svg width="240" height="120" viewBox="0 0 240 120" fill="none" xmlns="http://www.w3.org/2000/svg">
<g clip-path="url(#clip0_909_223941)">
<path d="M0 0H240V120H0" fill="#D91C16"/>
<path d="M61.2869 6.47845L60.9042 10.8209L64.9158 12.5267L60.6677 13.5046L60.285 17.8471L58.0422 14.109L53.794 15.087L56.656 11.7988L54.4132 8.06078L58.4249 9.76662L61.2869 6.47845Z" fill="#FDD406"/>
<path d="M28.939 12L32.9802 24.4377H46.058L35.4779 32.1246L39.5191 44.5623L28.939 36.8754L18.3588 44.5623L22.4001 32.1246L11.8199 24.4377H24.8977L28.939 12Z" fill="#FDD406"/>
<path d="M73.2078 23.6759L75.2456 19.8223L71.3318 21.7421L68.2965 18.6132L68.913 22.9287L64.9993 24.8485L69.294 25.5958L69.9105 29.9112L71.9483 26.0576L76.2431 26.8048L73.2078 23.6759Z" fill="#FDD406"/>
<path d="M76.5752 39.9425L73.1426 42.6296L74.6375 46.7245L71.0211 44.2903L67.5886 46.9774L68.7861 42.7859L65.1698 40.3517L69.5263 40.1954L70.7239 36.0039L72.2187 40.0988L76.5752 39.9425Z" fill="#FDD406"/>
<path d="M60.8536 52.7404L61.0559 48.3858L58.3327 51.7899L54.2538 50.2518L56.6497 53.8937L53.9265 57.2977L58.1304 56.1444L60.5263 59.7862L60.7286 55.4317L64.9325 54.2784L60.8536 52.7404Z" fill="#FDD406"/>
</g>
<defs>
<clipPath id="clip0_909_223941">
<rect width="240" height="120" fill="white"/>
</clipPath>
</defs>
</svg>
