<svg width="240" height="120" viewBox="0 0 240 120" fill="none" xmlns="http://www.w3.org/2000/svg">
<path d="M0 0H240V120H0" fill="#E23726"/>
<path d="M61.2868 6.47852L60.9041 10.8209L64.9157 12.5268L60.6676 13.5047L60.2849 17.8471L58.0421 14.1091L53.7939 15.087L56.6559 11.7989L54.4131 8.06084L58.4247 9.76668L61.2868 6.47852Z" fill="#FDD406"/>
<path d="M28.9388 12.0001L32.9801 24.4378H46.0579L35.4777 32.1247L39.519 44.5624L28.9388 36.8755L18.3587 44.5624L22.4 32.1247L11.8198 24.4378H24.8976L28.9388 12.0001Z" fill="#FDD406"/>
<path d="M73.2076 23.676L75.2454 19.8223L71.3317 21.7422L68.2964 18.6133L68.9129 22.9287L64.9992 24.8486L69.2939 25.5958L69.9104 29.9113L71.9482 26.0576L76.2429 26.8049L73.2076 23.676Z" fill="#FDD406"/>
<path d="M76.5751 39.9426L73.1425 42.6297L74.6373 46.7246L71.021 44.2904L67.5884 46.9775L68.786 42.786L65.1697 40.3517L69.5262 40.1954L70.7237 36.0039L72.2186 40.0989L76.5751 39.9426Z" fill="#FDD406"/>
<path d="M60.8535 52.7405L61.0558 48.3859L58.3326 51.7899L54.2537 50.2519L56.6495 53.8937L53.9263 57.2977L58.1303 56.1445L60.5262 59.7863L60.7285 55.4317L64.9324 54.2785L60.8535 52.7405Z" fill="#FDD406"/>
</svg>
