<svg width="240" height="120" viewBox="0 0 240 120" fill="none" xmlns="http://www.w3.org/2000/svg">
<g clip-path="url(#clip0_307_40409)">
<path d="M0 80H240V120H0V80Z" fill="black"/>
<path d="M0 40H240V80H0V40Z" fill="white"/>
<path d="M0 0H240V40H0V0Z" fill="#D91C16"/>
<path d="M120.15 60.48L133.85 73.2L132.87 50.1C132.73 46.6 129.69 47.4 127.47 48.66C125.25 50.1 122.67 50.1 119.99 49.16C117.29 50.1 114.73 50.1 112.51 48.66C110.31 47.4 107.25 46.6 107.11 50.1L106.13 73.2L120.15 60.48Z" fill="white"/>
<path fill-rule="evenodd" clip-rule="evenodd" d="M109.028 47.4654C110.126 47.3823 111.47 47.9143 112.575 48.5472C112.577 48.5484 112.579 48.5496 112.581 48.5509C114.756 49.9622 117.271 49.9688 119.947 49.0372C119.975 49.0276 120.005 49.0276 120.033 49.0373C122.689 49.9687 125.223 49.9623 127.399 48.5509C127.401 48.5495 127.404 48.5482 127.406 48.5469C128.52 47.9143 129.864 47.3823 130.96 47.4654C131.513 47.5073 132.011 47.7072 132.378 48.1368C132.743 48.5641 132.964 49.2025 133 50.0948L133.98 73.1945C133.982 73.2471 133.952 73.2959 133.904 73.318C133.857 73.3401 133.8 73.3311 133.762 73.2953L120.149 60.6564L106.217 73.2963C106.179 73.3315 106.122 73.34 106.075 73.3177C106.027 73.2955 105.998 73.2469 106 73.1945L106.98 50.0948C106.98 50.0948 106.98 50.0947 106.98 50.0947C107.016 49.2022 107.238 48.5638 107.605 48.1366C107.973 47.7071 108.473 47.5073 109.028 47.4654ZM107.802 48.3059C107.487 48.6737 107.274 49.2477 107.24 50.1052L107.24 50.1055L106.273 72.8947L120.063 60.3837C120.113 60.3384 120.189 60.3388 120.238 60.3847L133.707 72.8896L132.74 50.1055L132.74 50.1052C132.706 49.2475 132.494 48.6734 132.181 48.3057C131.869 47.9403 131.442 47.7626 130.94 47.7246C129.927 47.6478 128.642 48.1446 127.537 48.7712C125.286 50.23 122.678 50.2308 119.99 49.2976C117.282 50.2308 114.694 50.2301 112.442 48.771C111.348 48.1447 110.063 47.6478 109.047 47.7246C108.544 47.7627 108.116 47.9404 107.802 48.3059Z" fill="#D3AE3B"/>
<path d="M108.69 49.3L107.73 71.76L106.13 73.2L107.11 50.1C107.582 49.7377 108.118 49.4664 108.69 49.3ZM110.61 50.9L109.81 69.7L108.21 71.34L109.17 49.64C109.49 49.96 110.43 50.74 110.61 50.9ZM112.35 52.34L111.73 68.02L110.43 69.28L111.23 51.4C111.55 51.7 112.19 52.16 112.35 52.34ZM114.25 53.14L113.63 66.5L112.37 67.52L112.99 52.66C113.31 52.8 113.93 53.14 114.25 53.14ZM116.01 53.14L115.55 64.28L114.25 65.54L114.75 53.28C115.05 53.28 115.87 53.28 116.01 53.14Z" fill="#D3AE3B"/>
<path d="M131.29 49.3L132.25 71.76L133.85 73.2L132.87 50.1C132.397 49.7377 131.861 49.4664 131.29 49.3ZM129.37 50.9L130.17 69.7L131.77 71.34L130.81 49.64C130.49 49.96 129.55 50.74 129.37 50.9ZM127.63 52.34L128.25 68.02L129.55 69.28L128.75 51.4C128.43 51.7 127.79 52.16 127.63 52.34ZM125.73 53.14L126.35 66.5L127.61 67.52L126.99 52.66C126.67 52.8 126.05 53.14 125.73 53.14ZM123.97 53.14L124.43 64.28L125.73 65.54L125.23 53.28C124.93 53.28 124.11 53.28 123.97 53.14Z" fill="#D3AE3B"/>
<path d="M120.63 63L122.55 71.76L121.91 72.4L121.25 71.9L120.17 64.1L120.63 71.9L119.99 72.7L119.37 71.9L119.83 64.1L118.73 71.9L118.07 72.4L117.43 71.76L119.35 63.02H120.63V63Z" fill="#D3AE3B"/>
<path fill-rule="evenodd" clip-rule="evenodd" d="M119.261 62.91H120.63V62.9881L120.737 62.9765L122.67 71.7953L121.92 72.5456L121.147 71.9602L120.444 66.8834L120.742 71.9357L119.989 72.8778L119.258 71.9348L119.561 66.7969L118.833 71.9603L118.06 72.5456L117.31 71.7952L119.261 62.91ZM120.546 63.13H119.438L117.55 71.7248L118.08 72.2545L118.627 71.8397L119.721 64.0847L119.94 64.1065L119.482 71.8653L119.991 72.5222L120.518 71.8643L120.06 64.1065L120.279 64.0849L121.353 71.8398L121.9 72.2545L122.43 71.7248L120.546 63.13Z" fill="#D3AE3B"/>
<path d="M115.69 59.16L111.87 72.7L117.13 73.5L119.35 63.32L115.69 59.16Z" fill="white"/>
<path fill-rule="evenodd" clip-rule="evenodd" d="M115.663 59.043C115.706 59.0333 115.751 59.0477 115.78 59.0807L119.44 63.2407C119.465 63.2694 119.475 63.3083 119.467 63.3456L117.247 73.5256C117.234 73.5874 117.175 73.6282 117.112 73.6186L111.852 72.8186C111.818 72.8135 111.788 72.7939 111.769 72.765C111.75 72.7361 111.745 72.7006 111.755 72.6674L115.575 59.1274C115.586 59.0851 115.621 59.0527 115.663 59.043ZM115.746 59.4049L112.022 72.6018L117.037 73.3645L119.22 63.3537L115.746 59.4049Z" fill="#D3AE3B"/>
<path fill-rule="evenodd" clip-rule="evenodd" d="M117.46 62.6342L114.98 64.9942C114.949 65.0237 114.906 65.036 114.864 65.0272C114.822 65.0184 114.787 64.9896 114.771 64.9502L114.311 63.8502L114.55 63.7498L114.938 64.6757L117.281 62.4458L117.46 62.6342Z" fill="#D3AE3B"/>
<path fill-rule="evenodd" clip-rule="evenodd" d="M116.541 65.8738L116.021 61.0138L116.279 60.9862L116.765 65.5208L118.147 63.7014L118.354 63.8586L117.762 64.6377L118.4 66.8653L118.702 66.4085L118.919 66.5515L118.495 67.1946L118.595 67.5442L118.345 67.6158L118.306 67.4805L117.193 69.1691L117.737 71.733L117.483 71.787L116.988 69.4533L115.959 71.031C115.932 71.073 115.883 71.0955 115.833 71.0889C115.783 71.0822 115.742 71.0476 115.726 71L115.193 69.3479L114.181 70.9883C114.154 71.0324 114.103 71.0561 114.051 71.0486C114 71.0412 113.958 71.0039 113.945 70.9539L113.125 67.9139C113.113 67.8695 113.125 67.8221 113.157 67.7892L114.797 66.1092C114.83 66.0759 114.878 66.0625 114.923 66.0741C114.968 66.0858 115.003 66.1207 115.015 66.1656L115.445 67.7292L116.466 66.3622C116.497 66.3207 116.55 66.3016 116.6 66.3135C116.65 66.3254 116.689 66.3661 116.698 66.4171L117.125 68.8006L118.212 67.1513L117.566 64.8962L116.774 65.9386C116.741 65.9811 116.687 65.9995 116.635 65.9852C116.584 65.971 116.547 65.9268 116.541 65.8738ZM116.913 69.0922L116.495 66.7579L115.494 68.0978C115.465 68.1376 115.415 68.157 115.366 68.1477C115.317 68.1385 115.278 68.1023 115.265 68.0544L114.825 66.453L113.395 67.9177L114.117 70.5959L115.119 68.9717C115.146 68.9286 115.195 68.9049 115.246 68.9109C115.296 68.917 115.338 68.9518 115.354 69.0001L115.89 70.6607L116.913 69.0922Z" fill="#D3AE3B"/>
<path fill-rule="evenodd" clip-rule="evenodd" d="M114.071 70.7718C114.12 70.7799 114.16 70.8154 114.175 70.8632L114.771 72.8794L115.578 71.5331C115.605 71.4894 115.654 71.4651 115.705 71.4709C115.755 71.4767 115.798 71.5116 115.814 71.5601L116.434 73.4801L116.186 73.56L115.654 71.9123L114.841 73.2669C114.815 73.3111 114.765 73.3355 114.714 73.329C114.662 73.3225 114.62 73.2863 114.605 73.2369L114.001 71.1941L113.096 72.475L112.884 72.325L113.944 70.825C113.973 70.7843 114.022 70.7636 114.071 70.7718Z" fill="#D3AE3B"/>
<path d="M124.29 59.16L128.11 72.7L122.85 73.5L120.63 63.32L124.29 59.16Z" fill="white"/>
<path fill-rule="evenodd" clip-rule="evenodd" d="M124.317 59.043C124.274 59.0333 124.229 59.0477 124.2 59.0807L120.54 63.2407C120.515 63.2694 120.505 63.3083 120.513 63.3456L122.733 73.5256C122.747 73.5874 122.806 73.6282 122.869 73.6186L128.129 72.8186C128.163 72.8135 128.193 72.7939 128.211 72.765C128.23 72.7361 128.235 72.7006 128.226 72.6674L124.406 59.1274C124.394 59.0851 124.36 59.0527 124.317 59.043ZM124.235 59.4049L127.958 72.6018L122.944 73.3645L120.761 63.3537L124.235 59.4049Z" fill="#D3AE3B"/>
<path fill-rule="evenodd" clip-rule="evenodd" d="M122.52 62.6342L125 64.9942C125.031 65.0237 125.075 65.036 125.117 65.0272C125.159 65.0184 125.193 64.9896 125.21 64.9502L125.67 63.8502L125.43 63.7498L125.043 64.6757L122.7 62.4458L122.52 62.6342Z" fill="#D3AE3B"/>
<path fill-rule="evenodd" clip-rule="evenodd" d="M123.44 65.8738L123.96 61.0138L123.701 60.9862L123.216 65.5208L121.834 63.7014L121.627 63.8586L122.219 64.6377L121.58 66.8653L121.279 66.4085L121.062 66.5515L121.486 67.1946L121.385 67.5442L121.635 67.6158L121.674 67.4805L122.787 69.1691L122.243 71.733L122.498 71.787L122.993 69.4533L124.021 71.031C124.049 71.073 124.098 71.0955 124.148 71.0889C124.197 71.0822 124.239 71.0476 124.254 71L124.788 69.3479L125.8 70.9883C125.827 71.0324 125.878 71.0561 125.929 71.0486C125.98 71.0412 126.022 71.0039 126.036 70.9539L126.856 67.9139C126.868 67.8695 126.855 67.8221 126.823 67.7892L125.183 66.1092C125.151 66.0759 125.103 66.0625 125.058 66.0741C125.013 66.0858 124.977 66.1207 124.965 66.1656L124.535 67.7292L123.515 66.3622C123.484 66.3207 123.431 66.3016 123.38 66.3135C123.33 66.3254 123.292 66.3661 123.282 66.4171L122.855 68.8006L121.768 67.1513L122.415 64.8962L123.207 65.9386C123.239 65.9811 123.294 65.9995 123.345 65.9852C123.397 65.971 123.434 65.9268 123.44 65.8738ZM123.067 69.0922L123.485 66.7579L124.486 68.0978C124.516 68.1376 124.566 68.157 124.614 68.1477C124.663 68.1385 124.703 68.1023 124.716 68.0544L125.156 66.453L126.586 67.9177L125.863 70.5959L124.861 68.9717C124.834 68.9286 124.785 68.9049 124.735 68.9109C124.684 68.917 124.642 68.9518 124.627 69.0001L124.09 70.6607L123.067 69.0922Z" fill="#D3AE3B"/>
<path fill-rule="evenodd" clip-rule="evenodd" d="M125.909 70.7718C125.86 70.7799 125.82 70.8154 125.806 70.8632L125.21 72.8794L124.402 71.5331C124.376 71.4894 124.326 71.4651 124.276 71.4709C124.225 71.4767 124.182 71.5116 124.167 71.5601L123.547 73.4801L123.794 73.56L124.326 71.9123L125.139 73.2669C125.166 73.3111 125.216 73.3355 125.267 73.329C125.318 73.3225 125.361 73.2863 125.375 73.2369L125.979 71.1941L126.884 72.475L127.097 72.325L126.037 70.825C126.008 70.7843 125.958 70.7636 125.909 70.7718Z" fill="#D3AE3B"/>
<path d="M119.991 78.76C123.991 78.76 127.791 78.44 130.031 77.82C130.971 77.64 130.971 77.16 130.971 76.52C131.931 76.2 131.451 75.08 132.111 75.08C131.431 75.28 131.311 73.98 130.511 74.14C130.511 73.02 129.371 72.88 128.431 73.2C126.531 73.82 123.171 73.98 119.991 73.98C116.791 73.82 113.471 73.82 111.551 73.18C110.611 72.88 109.491 73.02 109.491 74.14C108.691 73.98 108.551 75.26 107.891 75.08C108.551 75.08 108.051 76.22 109.011 76.52C109.011 77.16 109.011 77.64 109.971 77.82C112.171 78.44 116.011 78.76 119.991 78.76Z" fill="white"/>
<path fill-rule="evenodd" clip-rule="evenodd" d="M110.089 72.9007C110.553 72.7402 111.125 72.7924 111.623 72.9514L111.626 72.9523L111.626 72.9523C112.555 73.2619 113.838 73.4207 115.307 73.5206C116.212 73.5821 117.173 73.6207 118.154 73.6601C118.763 73.6845 119.38 73.7093 119.996 73.74C123.18 73.7398 126.498 73.5778 128.355 72.9723C128.854 72.8026 129.43 72.7452 129.899 72.9025C130.138 72.9826 130.355 73.1207 130.511 73.3336C130.626 73.4897 130.701 73.6763 130.733 73.8911C130.889 73.9079 131.025 73.9684 131.142 74.0524C131.31 74.1727 131.441 74.343 131.546 74.4789L131.549 74.4837C131.663 74.631 131.744 74.7376 131.832 74.8044C131.872 74.8349 131.907 74.853 131.945 74.8589C131.998 74.846 132.053 74.84 132.11 74.84C132.23 74.84 132.331 74.9277 132.348 75.0458C132.365 75.1639 132.293 75.2766 132.178 75.3103C132.127 75.3254 132.077 75.3347 132.029 75.3387C132.021 75.345 132.01 75.3564 131.997 75.379C131.961 75.4425 131.939 75.5289 131.904 75.6668C131.898 75.6897 131.892 75.7141 131.885 75.7399C131.843 75.9025 131.785 76.1071 131.66 76.2934C131.557 76.4483 131.412 76.5838 131.21 76.6815C131.208 76.941 131.19 77.2187 131.065 77.4546C130.901 77.7654 130.586 77.9562 130.085 78.0539C127.812 78.6812 123.99 79 119.99 79C116.012 79 112.15 78.6814 109.915 78.0539C109.406 77.9567 109.087 77.767 108.919 77.4565C108.792 77.2206 108.773 76.9431 108.771 76.6842C108.569 76.5898 108.425 76.4558 108.323 76.3007C108.2 76.1139 108.144 75.9074 108.105 75.7436C108.098 75.7157 108.092 75.6896 108.086 75.6652C108.054 75.5283 108.033 75.4418 107.998 75.3779C107.984 75.352 107.973 75.341 107.965 75.3357C107.921 75.3324 107.875 75.3246 107.827 75.3116C107.711 75.2799 107.637 75.1673 107.653 75.0482C107.668 74.929 107.77 74.84 107.89 74.84C107.942 74.84 107.992 74.845 108.04 74.8555C108.078 74.8498 108.116 74.8309 108.159 74.7972C108.244 74.7306 108.325 74.6281 108.434 74.4892C108.439 74.4827 108.444 74.4761 108.449 74.4695C108.555 74.334 108.689 74.166 108.859 74.0478C108.976 73.9656 109.112 73.9068 109.268 73.8906C109.3 73.6768 109.373 73.4908 109.485 73.3349C109.639 73.1217 109.853 72.9824 110.089 72.9007ZM108.439 75.187C108.496 75.3068 108.529 75.4504 108.557 75.5685C108.562 75.5905 108.566 75.6116 108.571 75.6314C108.609 75.7902 108.65 75.9249 108.723 76.0362C108.792 76.1393 108.895 76.2325 109.082 76.291C109.182 76.3223 109.25 76.4151 109.25 76.52C109.25 76.8585 109.256 77.0702 109.342 77.2286C109.413 77.3609 109.57 77.5007 110.015 77.5841C110.022 77.5855 110.029 77.5871 110.036 77.589C112.202 78.1997 116.015 78.52 119.99 78.52C123.985 78.52 127.759 78.1998 129.966 77.5887C129.973 77.587 129.979 77.5855 129.985 77.5843C130.418 77.5014 130.571 77.3627 130.641 77.2305C130.725 77.0713 130.73 76.8583 130.73 76.52C130.73 76.4167 130.797 76.325 130.895 76.2923C131.083 76.2294 131.19 76.1328 131.261 76.0266C131.337 75.913 131.38 75.7775 131.421 75.6201C131.425 75.6009 131.431 75.5806 131.436 75.5594C131.464 75.4467 131.498 75.3108 131.552 75.1949C131.548 75.1918 131.544 75.1888 131.54 75.1857C131.4 75.0788 131.283 74.9249 131.186 74.7992C131.179 74.7897 131.172 74.7803 131.165 74.7712C131.054 74.627 130.963 74.5149 130.863 74.4426C130.774 74.3793 130.683 74.3502 130.557 74.3754C130.487 74.3895 130.414 74.3712 130.358 74.3256C130.303 74.28 130.27 74.2119 130.27 74.14C130.27 73.902 130.21 73.7353 130.124 73.6177C130.037 73.4993 129.91 73.4125 129.747 73.3576C129.411 73.245 128.948 73.2773 128.508 73.4272L128.505 73.4282L128.505 73.4282C126.563 74.062 123.164 74.22 119.99 74.22C119.986 74.22 119.982 74.2199 119.978 74.2197C119.371 74.1894 118.757 74.1647 118.146 74.1402C117.159 74.1005 116.184 74.0613 115.274 73.9995C113.804 73.8994 112.467 73.7384 111.476 73.4082C111.035 73.2676 110.577 73.24 110.246 73.3543C110.085 73.4101 109.96 73.4971 109.875 73.6157C109.79 73.7339 109.73 73.9011 109.73 74.14C109.73 74.2119 109.698 74.28 109.643 74.3256C109.587 74.3712 109.514 74.3895 109.443 74.3754C109.316 74.35 109.223 74.3788 109.133 74.4416C109.031 74.5128 108.938 74.6236 108.827 74.7656C108.818 74.7766 108.809 74.7879 108.8 74.7994C108.705 74.9223 108.588 75.0711 108.454 75.176C108.449 75.1797 108.444 75.1833 108.439 75.187Z" fill="#D3AE3B"/>
<path d="M114.571 72.7C115.851 72.88 117.291 73.02 118.411 72.88C119.051 72.88 119.511 73.98 118.231 74.14C117.131 74.28 115.371 74.14 114.431 73.98C113.194 73.7635 111.966 73.4966 110.751 73.18C109.631 72.7 110.431 71.78 111.071 71.9C112.212 72.2658 113.383 72.5334 114.571 72.7ZM125.411 72.7C124.131 72.88 122.691 73.02 121.611 72.88C120.931 72.88 120.471 73.98 121.751 74.14C122.871 74.28 124.611 74.14 125.551 73.98C126.351 73.82 128.111 73.52 129.231 73.18C130.351 72.7 129.551 71.78 128.911 71.9C127.769 72.2659 126.598 72.5335 125.411 72.7Z" fill="white"/>
<path fill-rule="evenodd" clip-rule="evenodd" d="M110.793 73.0567C110.536 72.9449 110.409 72.8169 110.356 72.7046C110.303 72.5948 110.312 72.4813 110.367 72.374C110.423 72.264 110.526 72.1634 110.653 72.0972C110.778 72.0323 110.915 72.0052 111.039 72.0264C112.185 72.3932 113.361 72.6616 114.553 72.8287M110.793 73.0567C112.002 73.3713 113.223 73.6366 114.453 73.8519C115.387 74.0108 117.132 74.1488 118.214 74.0111L118.215 74.011C118.517 73.9732 118.698 73.882 118.797 73.7833C118.894 73.6874 118.925 73.5753 118.912 73.4653C118.884 73.2323 118.664 73.0144 118.418 73.0101C117.281 73.1506 115.83 73.0083 114.553 72.8288M110.533 71.8666C110.701 71.779 110.901 71.7359 111.095 71.7722C111.1 71.7732 111.105 71.7746 111.11 71.7762C112.245 72.1398 113.409 72.4057 114.589 72.5713L114.589 72.5713C115.868 72.7512 117.293 72.8887 118.395 72.751C118.4 72.7503 118.405 72.75 118.411 72.75C118.802 72.75 119.128 73.0801 119.17 73.4347C119.192 73.6197 119.137 73.8126 118.98 73.968C118.826 74.1205 118.584 74.2268 118.247 74.269C117.129 74.4112 115.355 74.2692 114.409 74.1082L114.408 74.1081C113.168 73.8909 111.937 73.6233 110.718 73.3058C110.712 73.3042 110.706 73.3021 110.7 73.2995C110.402 73.1722 110.212 73.0069 110.121 72.8166C110.028 72.6227 110.05 72.4237 110.135 72.256C110.219 72.091 110.365 71.9541 110.533 71.8666ZM129.861 72.8166C129.77 73.0069 129.579 73.1722 129.282 73.2995C129.278 73.3014 129.273 73.303 129.269 73.3044C128.371 73.5768 127.066 73.8237 126.171 73.9931C125.941 74.0367 125.738 74.0751 125.576 74.1075L125.573 74.1082C124.626 74.2693 122.872 74.4112 121.735 74.269C121.397 74.2269 121.155 74.1206 121.002 73.9678C120.845 73.812 120.792 73.6183 120.817 73.4325C120.865 73.0751 121.204 72.75 121.611 72.75C121.616 72.75 121.622 72.7504 121.627 72.7511C122.688 72.8886 124.113 72.7513 125.393 72.5713L125.393 72.5713C126.573 72.4058 127.736 72.1399 128.871 71.7762C128.876 71.7746 128.881 71.7732 128.887 71.7722C129.081 71.7359 129.28 71.779 129.448 71.8666C129.616 71.9541 129.763 72.091 129.847 72.256C129.932 72.4237 129.953 72.6227 129.861 72.8166ZM128.942 72.0264C129.066 72.0052 129.204 72.0323 129.328 72.0972C129.455 72.1634 129.559 72.264 129.615 72.374C129.67 72.4813 129.678 72.5948 129.626 72.7046C129.572 72.8172 129.445 72.9457 129.186 73.0577C128.304 73.3247 127.026 73.5666 126.133 73.7357C125.9 73.7798 125.694 73.8189 125.527 73.8522C124.593 74.0109 122.869 74.1487 121.767 74.011C121.464 73.9732 121.284 73.882 121.185 73.7835C121.089 73.6881 121.06 73.5768 121.075 73.4675C121.106 73.2371 121.333 73.0143 121.603 73.0101C122.701 73.1507 124.152 73.0083 125.429 72.8288M125.429 72.8287C126.621 72.6617 127.796 72.3932 128.942 72.0264L125.429 72.8287Z" fill="#D3AE3B"/>
<path d="M110.591 72.08C109.631 71.9 109.191 73.02 109.491 73.66C109.631 73.34 110.291 73.34 110.431 73.02C110.611 72.54 110.291 72.54 110.611 72.08H110.591ZM114.431 75.02C114.431 74.38 115.051 74.46 115.051 73.82C115.051 73.52 114.891 73.02 114.571 73.02C114.404 73.0295 114.247 73.1 114.129 73.2181C114.011 73.3361 113.94 73.4934 113.931 73.66C113.791 74.28 114.431 74.38 114.431 75.02ZM118.971 73.2C119.911 73.2 119.811 74.46 119.371 75.1C119.371 74.64 118.571 74.46 118.571 74.14C118.571 73.66 119.291 73.66 118.971 73.2ZM129.371 72.08C130.351 71.9 130.811 73.02 130.491 73.66C130.351 73.34 129.691 73.34 129.551 73.02C129.371 72.54 129.691 72.54 129.371 72.08ZM125.591 75C125.591 74.36 124.951 74.44 124.951 73.8C124.951 73.5 125.111 73 125.431 73C125.597 73.0095 125.755 73.08 125.873 73.1981C125.991 73.3161 126.061 73.4734 126.071 73.64C126.211 74.26 125.571 74.36 125.571 75H125.591ZM120.991 73.2C120.051 73.2 120.151 74.46 120.591 75.1C120.591 74.64 121.391 74.46 121.391 74.14C121.391 73.66 120.671 73.66 120.991 73.2Z" fill="white"/>
<path fill-rule="evenodd" clip-rule="evenodd" d="M110.603 71.95C110.065 71.8543 109.668 72.1245 109.455 72.4981C109.245 72.8665 109.202 73.3513 109.373 73.7152C109.395 73.7614 109.441 73.7907 109.492 73.79C109.543 73.7893 109.589 73.7589 109.61 73.7121C109.629 73.6674 109.671 73.625 109.744 73.5816C109.817 73.5379 109.907 73.5017 110.009 73.4607L110.014 73.4587C110.11 73.4201 110.219 73.3769 110.311 73.3216C110.406 73.265 110.499 73.1874 110.55 73.0721C110.551 73.07 110.552 73.0678 110.552 73.0657C110.602 72.933 110.619 72.8278 110.62 72.7359C110.62 72.6648 110.61 72.6019 110.602 72.5543C110.6 72.5431 110.598 72.5328 110.597 72.5234C110.589 72.4725 110.587 72.4334 110.599 72.3846C110.612 72.3332 110.643 72.2616 110.717 72.1543C110.745 72.1145 110.748 72.0627 110.726 72.0198C110.704 71.9769 110.659 71.95 110.611 71.95H110.603ZM110.394 72.1908C110.067 72.1891 109.827 72.3714 109.681 72.6269C109.546 72.8642 109.499 73.1546 109.545 73.4018C109.566 73.386 109.588 73.3716 109.61 73.3584C109.703 73.3031 109.811 73.2599 109.907 73.2213L109.912 73.2193C110.015 73.1784 110.105 73.1421 110.178 73.0984C110.249 73.0559 110.29 73.0144 110.31 72.9707C110.35 72.8653 110.36 72.7916 110.36 72.7348C110.36 72.6877 110.354 72.6512 110.347 72.6062C110.344 72.5924 110.342 72.5777 110.34 72.5617C110.33 72.4951 110.323 72.4179 110.347 72.3223C110.357 72.2805 110.373 72.2371 110.394 72.1908ZM129.587 72.1908C129.609 72.2371 129.624 72.2805 129.635 72.3223C129.658 72.4179 129.652 72.4951 129.642 72.5617C129.639 72.5777 129.637 72.5924 129.635 72.6062C129.627 72.6512 129.621 72.6877 129.622 72.7348C129.622 72.7916 129.632 72.8653 129.671 72.9707C129.691 73.0144 129.732 73.0559 129.804 73.0984C129.877 73.1421 129.967 73.1784 130.069 73.2193L130.074 73.2213C130.17 73.2599 130.279 73.3031 130.371 73.3584C130.395 73.3726 130.419 73.3881 130.441 73.4052C130.493 73.1582 130.446 72.8667 130.306 72.6282C130.159 72.3769 129.916 72.1948 129.587 72.1908ZM130.53 72.4969C130.746 72.8658 130.79 73.3526 130.607 73.7182C130.584 73.7633 130.538 73.7913 130.487 73.79C130.437 73.7887 130.392 73.7583 130.372 73.7121C130.352 73.6674 130.311 73.625 130.238 73.5816C130.165 73.5379 130.075 73.5017 129.972 73.4607L129.967 73.4587C129.871 73.4202 129.763 73.3769 129.67 73.3216C129.576 73.265 129.482 73.1874 129.432 73.0721C129.431 73.07 129.43 73.0678 129.429 73.0657C129.379 72.933 129.362 72.8278 129.362 72.7359C129.361 72.6648 129.372 72.6019 129.38 72.5543C129.382 72.5431 129.383 72.5328 129.385 72.5234C129.392 72.4725 129.394 72.4334 129.382 72.3846C129.37 72.3332 129.339 72.2616 129.264 72.1543C129.239 72.118 129.234 72.0714 129.251 72.0305C129.267 71.9897 129.304 71.9601 129.347 71.9522C129.899 71.8507 130.31 72.12 130.53 72.4969ZM125.187 73.3449C125.117 73.4884 125.081 73.6685 125.081 73.8C125.081 73.9359 125.114 74.0261 125.16 74.0968C125.208 74.1717 125.274 74.2304 125.356 74.3022L125.361 74.3065C125.427 74.3641 125.504 74.4312 125.568 74.5169C125.623 74.4206 125.687 74.3391 125.745 74.2654C125.754 74.2543 125.762 74.2433 125.771 74.2325C125.842 74.1413 125.897 74.0643 125.93 73.9781C125.961 73.8962 125.974 73.7997 125.944 73.6687C125.942 73.6617 125.941 73.6546 125.941 73.6475C125.933 73.5127 125.876 73.3855 125.781 73.29C125.686 73.1955 125.561 73.1387 125.427 73.1301C125.345 73.1318 125.26 73.1975 125.187 73.3449ZM125.712 74.8683C125.745 74.6876 125.843 74.5617 125.955 74.4184C125.962 74.4098 125.969 74.4012 125.976 74.3925C126.047 74.3013 126.125 74.197 126.173 74.0701C126.222 73.9414 126.237 73.7961 126.2 73.6218C126.186 73.4273 126.103 73.2442 125.965 73.1062C125.824 72.9656 125.637 72.8816 125.438 72.8702C125.437 72.8702 125.435 72.8701 125.434 72.8701C125.433 72.87 125.432 72.87 125.431 72.87C125.194 72.87 125.041 73.0546 124.954 73.2301C124.865 73.4117 124.821 73.6315 124.821 73.8C124.821 73.9842 124.867 74.1239 124.942 74.2383C125.012 74.3461 125.103 74.4262 125.18 74.4936L125.185 74.4979C125.267 74.5696 125.333 74.6283 125.382 74.7033C125.411 74.7486 125.435 74.802 125.449 74.8704C125.444 74.9114 125.441 74.9546 125.441 75C125.441 75.0718 125.499 75.13 125.571 75.13H125.591C125.663 75.13 125.721 75.0718 125.721 75C125.721 74.9534 125.718 74.9096 125.712 74.8683ZM114.563 72.8902C114.566 72.8901 114.568 72.89 114.571 72.89C114.808 72.89 114.961 73.0746 115.047 73.2501C115.137 73.4317 115.181 73.6515 115.181 73.82C115.181 74.0033 115.136 74.1425 115.064 74.2567C114.996 74.3645 114.907 74.4448 114.833 74.5123L114.828 74.5165C114.748 74.5882 114.685 74.6468 114.638 74.7217C114.593 74.7925 114.561 74.8833 114.561 75.02C114.561 75.0918 114.503 75.15 114.431 75.15C114.359 75.15 114.301 75.0918 114.301 75.02C114.301 74.7635 114.184 74.614 114.046 74.4384C114.039 74.4298 114.033 74.4212 114.026 74.4125C113.955 74.3213 113.876 74.217 113.828 74.0901C113.78 73.9614 113.764 73.8161 113.802 73.6418C113.815 73.4473 113.899 73.2642 114.037 73.1262C114.177 72.9856 114.365 72.9016 114.563 72.8902ZM114.44 74.5495C114.384 74.4476 114.317 74.3623 114.257 74.2854C114.248 74.2743 114.239 74.2633 114.231 74.2525C114.159 74.1613 114.104 74.0843 114.071 73.9981C114.04 73.9162 114.028 73.8197 114.058 73.6887C114.059 73.6817 114.06 73.6746 114.061 73.6675C114.068 73.5327 114.125 73.4055 114.221 73.31C114.315 73.2155 114.441 73.1587 114.574 73.1501C114.656 73.1518 114.742 73.2175 114.814 73.3649C114.885 73.5084 114.921 73.6885 114.921 73.82C114.921 73.9567 114.888 74.0476 114.844 74.1184C114.797 74.1932 114.733 74.2518 114.654 74.3236L114.649 74.3278C114.582 74.388 114.504 74.4584 114.44 74.5495ZM118.856 73.1398C118.878 73.0969 118.922 73.07 118.971 73.07C119.237 73.07 119.444 73.1608 119.588 73.3197C119.729 73.4751 119.797 73.6826 119.818 73.8977C119.858 74.3252 119.714 74.8303 119.478 75.1737C119.446 75.2206 119.387 75.2411 119.332 75.2242C119.278 75.2073 119.241 75.157 119.241 75.1C119.241 75.0263 119.21 74.9579 119.147 74.8861C119.084 74.8124 118.995 74.7446 118.895 74.6734C118.879 74.6616 118.862 74.6496 118.844 74.6375C118.763 74.5802 118.676 74.5189 118.608 74.456C118.526 74.3809 118.441 74.2769 118.441 74.14C118.441 73.8584 118.638 73.6994 118.766 73.5963C118.781 73.5845 118.795 73.5734 118.807 73.5629C118.879 73.503 118.909 73.4665 118.919 73.4348C118.925 73.4153 118.931 73.3711 118.864 73.2743C118.836 73.2345 118.833 73.1827 118.856 73.1398ZM119.179 73.3586C119.271 73.387 119.342 73.4349 119.395 73.4941C119.487 73.595 119.542 73.7425 119.559 73.9223C119.585 74.1962 119.519 74.517 119.398 74.7855C119.381 74.761 119.363 74.7378 119.344 74.7158C119.258 74.6164 119.146 74.533 119.046 74.4617C119.026 74.4476 119.007 74.434 118.989 74.4209C118.908 74.3639 118.838 74.315 118.784 74.2647C118.715 74.2016 118.701 74.1632 118.701 74.14C118.701 73.989 118.795 73.9105 118.932 73.7973C118.946 73.7859 118.96 73.7742 118.974 73.7621C119.043 73.7045 119.132 73.6248 119.167 73.5121C119.183 73.4616 119.187 73.4104 119.179 73.3586ZM120.373 73.3197C120.517 73.1608 120.724 73.07 120.991 73.07C121.039 73.07 121.084 73.0969 121.106 73.1398C121.128 73.1827 121.125 73.2345 121.097 73.2743C121.03 73.3711 121.036 73.4153 121.042 73.4348C121.052 73.4665 121.083 73.503 121.154 73.5629C121.167 73.5734 121.181 73.5845 121.195 73.5963C121.323 73.6994 121.521 73.8584 121.521 74.14C121.521 74.2769 121.435 74.3809 121.354 74.456C121.285 74.5189 121.198 74.5802 121.117 74.6375C121.1 74.6496 121.083 74.6616 121.066 74.6734C120.966 74.7446 120.878 74.8124 120.814 74.8861C120.752 74.9579 120.721 75.0263 120.721 75.1C120.721 75.157 120.684 75.2073 120.629 75.2242C120.575 75.2411 120.516 75.2206 120.484 75.1737C120.248 74.8303 120.103 74.3252 120.144 73.8977C120.164 73.6826 120.233 73.4751 120.373 73.3197ZM120.563 74.7855C120.442 74.517 120.377 74.1962 120.403 73.9223C120.42 73.7425 120.475 73.595 120.566 73.4941C120.62 73.4349 120.69 73.387 120.783 73.3586C120.775 73.4104 120.778 73.4616 120.794 73.5121C120.829 73.6248 120.919 73.7045 120.987 73.7621C121.002 73.7742 121.016 73.7859 121.029 73.7973C121.166 73.9105 121.261 73.989 121.261 74.14C121.261 74.1632 121.246 74.2016 121.178 74.2647C121.123 74.315 121.054 74.3639 120.973 74.4209C120.954 74.434 120.935 74.4476 120.915 74.4617C120.815 74.533 120.704 74.6164 120.617 74.7158C120.598 74.7378 120.58 74.761 120.563 74.7855Z" fill="#D3AE3B"/>
<path d="M110.931 72.4C111.251 72.4 111.731 72.54 111.871 72.72L110.931 72.4ZM112.511 72.88C112.671 72.88 113.311 73.02 113.611 73.2L112.511 72.88ZM118.231 73.52C117.931 73.52 117.291 73.52 117.131 73.66L118.231 73.5V73.52ZM116.491 73.52C116.311 73.34 115.691 73.34 115.371 73.52H116.491ZM129.051 72.4C128.711 72.4043 128.382 72.5164 128.111 72.72L129.051 72.4ZM127.491 72.88C127.291 72.88 126.691 73.02 126.371 73.2L127.491 72.88ZM121.751 73.52C122.051 73.52 122.691 73.52 122.871 73.66L121.751 73.5V73.52ZM123.491 73.52C123.671 73.34 124.291 73.34 124.611 73.52H123.491Z" fill="white"/>
<path fill-rule="evenodd" clip-rule="evenodd" d="M129.14 72.3847C129.147 72.4283 129.122 72.4709 129.08 72.4852L128.14 72.8052C128.098 72.8195 128.052 72.8012 128.031 72.762C128.011 72.7229 128.021 72.6746 128.057 72.648C128.344 72.4329 128.691 72.3145 129.05 72.31C129.094 72.3094 129.132 72.3411 129.14 72.3847ZM110.842 72.3853C110.849 72.3419 110.887 72.31 110.931 72.31C111.102 72.31 111.311 72.347 111.496 72.4069C111.589 72.4369 111.677 72.4734 111.753 72.5153C111.828 72.5565 111.896 72.6061 111.942 72.6647C111.966 72.6961 111.967 72.7398 111.944 72.7722C111.921 72.8046 111.879 72.818 111.842 72.8052L110.902 72.4852C110.86 72.471 110.835 72.4287 110.842 72.3853ZM112.422 72.8673C112.428 72.8229 112.466 72.79 112.511 72.79C112.604 72.79 112.814 72.8279 113.031 72.8855C113.251 72.9434 113.496 73.026 113.657 73.1228C113.696 73.1461 113.711 73.1946 113.693 73.236C113.675 73.2775 113.629 73.2991 113.586 73.2864L112.486 72.9664C112.443 72.9539 112.415 72.9117 112.422 72.8673ZM126.953 72.8856C127.169 72.8277 127.378 72.79 127.491 72.79C127.536 72.79 127.574 72.8231 127.58 72.8675C127.586 72.912 127.559 72.9542 127.516 72.9665L126.396 73.2865C126.352 73.2991 126.305 73.2768 126.288 73.2347C126.27 73.1925 126.287 73.1439 126.327 73.1216C126.496 73.0261 126.735 72.9438 126.953 72.8856ZM116.307 73.3315C116.402 73.3558 116.493 73.3948 116.554 73.4564C116.58 73.4821 116.588 73.5208 116.574 73.5544C116.56 73.5881 116.527 73.61 116.491 73.61H115.371C115.33 73.61 115.294 73.5824 115.284 73.5428C115.273 73.5032 115.291 73.4616 115.327 73.4416C115.505 73.3414 115.757 73.295 115.983 73.295C116.098 73.295 116.21 73.3068 116.307 73.3315ZM123.998 73.295C124.225 73.295 124.477 73.3414 124.655 73.4416C124.691 73.4616 124.708 73.5032 124.698 73.5428C124.688 73.5824 124.652 73.61 124.611 73.61H123.491C123.454 73.61 123.422 73.5881 123.408 73.5544C123.394 73.5208 123.401 73.4821 123.427 73.4564C123.489 73.3948 123.579 73.3558 123.675 73.3315C123.772 73.3068 123.884 73.295 123.998 73.295ZM118.29 73.4319C118.309 73.449 118.321 73.4739 118.321 73.5V73.52C118.321 73.5697 118.281 73.61 118.231 73.61C118.191 73.61 118.146 73.61 118.098 73.6103L117.144 73.7491C117.104 73.7548 117.066 73.7339 117.049 73.6976C117.032 73.6614 117.042 73.6185 117.072 73.5923C117.13 73.5414 117.219 73.5114 117.308 73.4913C117.401 73.4703 117.51 73.4567 117.621 73.4478C117.78 73.435 117.947 73.4314 118.084 73.4304L118.218 73.4109C118.244 73.4072 118.27 73.4148 118.29 73.4319ZM121.692 73.432C121.712 73.4149 121.738 73.4072 121.764 73.4109L121.9 73.4304C122.037 73.4315 122.204 73.4351 122.363 73.4478C122.475 73.4567 122.586 73.4702 122.681 73.4911C122.774 73.5114 122.864 73.541 122.926 73.589C122.958 73.614 122.97 73.6576 122.954 73.6952C122.938 73.7327 122.898 73.7549 122.858 73.7491L121.887 73.6103C121.837 73.61 121.791 73.61 121.751 73.61C121.701 73.61 121.661 73.5697 121.661 73.52V73.5C121.661 73.4739 121.672 73.4491 121.692 73.432Z" fill="#D3AE3B"/>
<path d="M110.65 74.92C110.55 74.9 110.49 74.8 110.53 74.72C110.55 74.58 110.65 74.52 110.73 74.56C110.81 74.56 110.91 74.68 110.91 74.72L110.83 74.86L110.79 74.88C110.79 74.92 110.71 74.92 110.65 74.92ZM121.65 75.7C121.61 75.7 121.53 75.6 121.53 75.56C121.53 75.48 121.65 75.36 121.73 75.36L121.89 75.44C121.95 75.5 121.95 75.62 121.87 75.68C121.83 75.72 121.71 75.72 121.65 75.68V75.7ZM121.71 76.2C121.63 76.16 121.61 76.12 121.59 76.04C121.59 75.94 121.59 75.92 121.69 75.86L121.77 75.82L121.85 75.86C121.93 75.9 121.99 75.94 121.99 76.02C121.99 76.08 121.93 76.14 121.85 76.18C121.79 76.22 121.77 76.22 121.71 76.18V76.2Z" fill="#D3AE3B"/>
<path d="M111.55 74C111.47 74 111.37 74.08 111.31 74.12C111.19 74.14 111.03 74.22 110.91 74.12C110.79 74.1 110.63 74.12 110.61 74.28C110.63 74.42 110.81 74.48 110.93 74.4C111.01 74.3 111.23 74.22 111.27 74.4C111.17 74.56 111.19 74.74 111.11 74.88C111.11 74.98 111.05 75.06 111.01 75.14C110.91 75.14 110.81 75.14 110.73 75.2C110.668 75.2 110.607 75.2145 110.552 75.2422C110.496 75.27 110.448 75.3103 110.41 75.36C110.33 75.48 110.25 75.6 110.23 75.76C110.25 75.88 110.43 75.92 110.55 75.94L110.95 76.06L111.59 76.24C111.91 76.34 112.23 76.38 112.55 76.46L112.65 76.48C112.79 76.52 112.85 76.38 112.85 76.28L113.05 75.56C113.09 75.46 113.15 75.26 112.97 75.3C112.87 75.36 112.77 75.46 112.65 75.46C112.47 75.46 112.57 75.66 112.65 75.72C112.65 75.84 112.61 75.98 112.55 76.08C112.43 76.14 112.31 76.08 112.19 76.04C112.09 76.04 111.85 75.98 111.95 75.84L112.05 75.48C112.11 75.36 112.11 75.22 112.15 75.08C112.07 74.94 111.95 75.14 111.85 75.16C111.77 75.2 111.53 75.22 111.65 75.36C111.77 75.44 111.69 75.58 111.65 75.7C111.65 75.84 111.49 75.9 111.37 75.84C111.25 75.84 111.07 75.74 111.17 75.62L111.27 75.26L111.41 74.86C111.41 74.72 111.47 74.62 111.53 74.5C111.53 74.36 111.63 74.24 111.63 74.1C111.63 74.04 111.59 74.02 111.55 74.02V74ZM110.81 75.46C110.82 75.4547 110.83 75.452 110.84 75.452C110.851 75.452 110.861 75.4547 110.87 75.46C110.91 75.5 110.91 75.54 110.87 75.58L110.81 75.62C110.71 75.62 110.69 75.6 110.69 75.56C110.69 75.54 110.69 75.52 110.75 75.5C110.775 75.4825 110.802 75.469 110.83 75.46H110.81ZM110.61 76.46C110.51 76.38 110.53 76.32 110.67 76.2C110.75 76.16 110.77 76.16 110.85 76.22C110.97 76.32 110.97 76.38 110.85 76.48C110.81 76.52 110.79 76.52 110.75 76.52C110.69 76.52 110.67 76.52 110.61 76.48V76.46ZM111.21 76.66C111.166 76.6461 111.128 76.6154 111.106 76.5743C111.083 76.5332 111.078 76.4851 111.09 76.44C111.13 76.36 111.15 76.34 111.27 76.34C111.41 76.34 111.43 76.36 111.45 76.48C111.45 76.56 111.45 76.58 111.39 76.62C111.368 76.6377 111.342 76.6504 111.315 76.6573C111.287 76.6642 111.258 76.6651 111.23 76.66H111.21ZM129.05 76.66C129.01 76.64 128.99 76.62 128.99 76.56C128.99 76.48 129.03 76.42 129.15 76.38C129.27 76.32 129.35 76.32 129.39 76.42C129.45 76.54 129.45 76.58 129.37 76.66C129.33 76.72 129.31 76.72 129.21 76.72C129.11 76.72 129.09 76.72 129.05 76.68V76.66ZM112.05 76.9C111.97 76.9 111.93 76.82 111.93 76.74C111.93 76.68 111.93 76.66 111.97 76.62L112.09 76.58L112.21 76.6C112.31 76.68 112.33 76.76 112.27 76.84C112.21 76.92 112.15 76.92 112.03 76.9H112.05ZM116.41 77.1L116.37 77.04C116.37 76.92 116.37 76.82 116.41 76.7C116.43 76.6 116.41 76.5 116.45 76.4L116.53 75.84C116.53 75.74 116.53 75.64 116.57 75.56C116.59 75.4 116.57 75.26 116.61 75.12C116.61 75.06 116.67 74.92 116.73 75C116.81 75.12 116.91 75.2 117.01 75.3C117.09 75.36 117.01 75.44 116.95 75.46C116.87 75.48 116.85 75.58 116.85 75.66L116.81 75.9C116.81 76.04 116.81 76.16 116.77 76.3L116.75 76.66L116.71 76.9C116.71 76.98 116.71 77.08 116.63 77.12C116.57 77.16 116.47 77.16 116.43 77.1H116.41ZM122.35 75.14L122.09 75.38C121.97 75.48 122.19 75.52 122.21 75.6C122.25 75.72 122.25 75.84 122.25 75.96C122.29 76.08 122.31 76.18 122.29 76.3C122.29 76.44 122.13 76.4 122.05 76.48C121.95 76.52 121.91 76.62 121.85 76.68C121.803 76.7803 121.776 76.8891 121.77 77C121.77 77.1 121.71 77.2 121.77 77.28L121.79 77.32H121.89L122.19 77.3C122.43 77.26 122.69 77.26 122.93 77.24L123.37 77.2C123.49 77.22 123.55 77.1 123.55 77C123.47 76.86 123.53 76.72 123.47 76.6C123.43 76.44 123.45 76.3 123.43 76.16C123.43 76.04 123.29 76 123.23 76.08C123.15 76.16 123.03 76.18 122.99 76.26C122.93 76.38 123.11 76.38 123.15 76.46L123.17 76.76C123.19 76.88 123.07 76.88 122.97 76.9C122.87 76.94 122.73 76.96 122.67 76.84C122.63 76.74 122.63 76.64 122.63 76.54C122.63 76.34 122.57 76.18 122.57 76C122.57 75.8 122.51 75.58 122.51 75.36C122.51 75.26 122.49 75.12 122.35 75.14ZM122.23 76.78H122.29V76.94L122.23 76.96C122.204 76.9683 122.178 76.975 122.15 76.98C122.137 76.9805 122.124 76.9805 122.11 76.98C122.07 76.94 122.07 76.88 122.13 76.82L122.23 76.78ZM116.23 74.94C116.17 74.94 116.07 75.08 115.99 75.06C115.81 75.08 115.83 75.26 115.97 75.32V75.48C115.99 75.64 115.89 75.78 115.91 75.94C115.91 76.1 115.85 76.28 115.85 76.46C115.79 76.64 115.79 76.82 115.77 77C115.75 77.16 115.63 77.1 115.53 77.06V76.86C115.55 76.68 115.43 76.64 115.29 76.62C115.15 76.62 115.09 76.52 115.13 76.4C115.19 76.32 115.33 76.34 115.43 76.34C115.63 76.38 115.61 76.12 115.51 76.02C115.43 75.9 115.27 75.82 115.23 75.7C115.23 75.54 115.13 75.36 114.99 75.28C114.77 75.26 114.59 75.44 114.53 75.64C114.43 75.64 114.33 75.68 114.25 75.72C114.11 75.76 113.91 76 114.11 76.1C114.21 76.12 114.55 76.2 114.39 76.34C114.31 76.5 114.15 76.5 114.01 76.46C113.87 76.46 113.71 76.38 113.71 76.22C113.69 76.06 113.69 75.9 113.63 75.76C113.59 75.6 113.41 75.64 113.39 75.8C113.25 75.9 113.27 76.08 113.37 76.2C113.43 76.34 113.37 76.52 113.31 76.64C113.27 76.84 113.07 76.84 112.93 76.88C112.87 76.92 112.61 76.88 112.71 77.02C112.86 77.0891 113.028 77.11 113.19 77.08C113.35 77.08 113.49 76.94 113.59 76.8C113.69 76.7 113.87 76.76 114.03 76.76C114.17 76.76 114.33 76.86 114.49 76.78C114.53 76.68 114.73 76.48 114.79 76.68C114.79 76.86 114.93 76.94 115.09 76.92C115.27 76.92 115.19 77.04 115.19 77.16C115.19 77.34 115.33 77.44 115.49 77.52H115.65C115.79 77.46 115.95 77.4 116.01 77.24C116.07 77.1 116.07 76.94 116.11 76.8C116.15 76.58 116.19 76.34 116.19 76.12C116.25 75.92 116.23 75.7 116.27 75.48L116.33 75.02C116.33 74.92 116.29 74.92 116.23 74.94ZM114.89 75.76C114.91 75.76 114.93 75.8 114.93 75.86C114.93 75.94 114.97 76 115.03 76.02V76.08L114.87 76.12C114.77 76.12 114.69 76.08 114.63 76.02L114.59 75.98L114.65 75.94L114.75 75.84C114.81 75.78 114.85 75.76 114.89 75.76ZM128.09 74.18C127.975 74.1883 127.861 74.2084 127.75 74.24C127.55 74.24 127.45 74.44 127.65 74.56C127.77 74.86 127.95 74.48 128.15 74.52C128.43 74.56 128.45 74.88 128.51 75.12C128.51 75.34 128.59 75.56 128.65 75.78C128.85 76 128.51 76.14 128.37 75.98C128.25 75.84 127.97 75.68 127.83 75.86C127.65 75.94 127.63 76.18 127.49 76.26C127.25 76.32 127.23 76.02 127.09 75.9C126.97 75.72 126.75 75.7 126.57 75.66C126.49 75.48 126.53 75.18 126.37 75.06C126.21 75.12 125.93 75.4 126.17 75.54C126.37 75.74 126.07 75.82 125.97 75.94C125.81 76.12 125.77 76.34 125.77 76.54C125.51 76.68 125.47 76.38 125.43 76.2C125.43 75.98 125.23 76.04 125.09 76.12C124.89 76.2 124.81 76.38 124.69 76.52V76.92C124.73 77.1 124.93 77.02 125.05 77C125.25 76.92 125.33 77.14 125.17 77.26C125.05 77.38 124.73 77.32 124.77 77.54H125.09C125.29 77.48 125.53 77.32 125.55 77.08C125.59 76.88 125.89 76.9 126.05 76.86C126.25 76.8 126.51 76.78 126.57 77.06C126.71 77.2 127.01 77.36 127.17 77.16C127.247 77.1117 127.308 77.043 127.347 76.9616C127.386 76.8803 127.401 76.7896 127.39 76.7C127.37 76.54 127.65 76.54 127.73 76.64C127.83 76.8 128.15 76.76 128.31 76.64C128.47 76.54 128.51 76.32 128.75 76.32L129.83 76.02C130.11 75.96 129.79 75.78 129.71 75.66C129.51 75.56 129.31 76 129.07 75.78C128.87 75.64 128.89 75.38 128.83 75.16C128.77 74.88 128.79 74.56 128.59 74.36C128.47 74.22 128.27 74.18 128.09 74.18ZM126.73 76.08C126.75 76.08 126.79 76.08 126.83 76.12C126.91 76.16 126.97 76.24 126.97 76.32C126.97 76.36 126.97 76.36 126.91 76.38L126.81 76.42C126.77 76.42 126.67 76.36 126.67 76.32V76.24C126.63 76.16 126.63 76.16 126.67 76.12L126.73 76.08ZM128.03 76.16C128.11 76.16 128.15 76.16 128.19 76.22C128.21 76.3 128.19 76.34 128.11 76.38L128.01 76.42L127.93 76.36C127.89 76.34 127.87 76.32 127.87 76.28C127.87 76.22 127.95 76.16 128.03 76.14V76.16ZM126.23 76.16C126.27 76.16 126.29 76.16 126.31 76.2C126.35 76.24 126.37 76.26 126.37 76.32V76.44C126.37 76.5 126.37 76.48 126.25 76.48C126.13 76.48 126.11 76.48 126.11 76.36C126.11 76.28 126.11 76.26 126.17 76.22C126.19 76.18 126.23 76.18 126.25 76.18L126.23 76.16ZM125.15 76.46C125.169 76.4657 125.187 76.476 125.2 76.49C125.214 76.5039 125.225 76.5211 125.23 76.54C125.23 76.6 125.23 76.64 125.19 76.66C125.13 76.68 125.03 76.7 124.99 76.66C124.99 76.6533 124.99 76.6467 124.99 76.64C124.95 76.62 124.95 76.6 124.99 76.58V76.56L125.03 76.5C125.043 76.4805 125.061 76.4659 125.083 76.4586C125.105 76.4513 125.129 76.4518 125.15 76.46ZM126.99 76.7L127.09 76.72V76.84H126.85L126.83 76.8C126.83 76.76 126.83 76.74 126.87 76.72L126.99 76.7ZM123.57 77.66C123.55 77.66 123.51 77.64 123.55 77.62C123.57 77.56 123.65 77.54 123.71 77.5C123.819 77.4584 123.916 77.3896 123.99 77.3C123.99 77.22 124.07 77.18 124.07 77.1L124.05 76.82C124.023 76.736 123.967 76.6648 123.89 76.62C123.83 76.6 123.75 76.58 123.73 76.5C123.73 76.44 123.79 76.38 123.81 76.32L123.93 76.08C123.99 76.02 124.07 76.08 124.09 76.12L124.19 76.32C124.25 76.38 124.29 76.44 124.31 76.52C124.35 76.6 124.39 76.66 124.39 76.72L124.43 76.98C124.43 77.08 124.43 77.2 124.39 77.3L124.27 77.46C124.21 77.52 124.15 77.58 124.07 77.6C124.01 77.62 123.97 77.68 123.89 77.68H123.59L123.57 77.66ZM122.19 77.74C122.15 77.7 122.13 77.68 122.13 77.62C122.13 77.56 122.13 77.56 122.19 77.5C122.27 77.42 122.31 77.42 122.47 77.5C122.61 77.58 122.67 77.58 122.67 77.52C122.69 77.48 122.77 77.42 122.87 77.42C122.907 77.4214 122.943 77.4355 122.97 77.46C123.01 77.5 123.03 77.52 123.03 77.6C123.03 77.7 123.03 77.7 122.97 77.76C122.91 77.8 122.91 77.8 122.83 77.8C122.795 77.7981 122.761 77.7856 122.732 77.7643C122.704 77.7429 122.682 77.7136 122.67 77.68C122.67 77.64 122.67 77.62 122.63 77.66L122.59 77.68C122.55 77.68 122.47 77.74 122.43 77.78L122.33 77.8C122.25 77.8 122.25 77.8 122.19 77.74ZM118.23 75.96C118.09 75.96 117.95 76.08 117.93 76.22C117.97 76.36 118.09 76.52 118.01 76.66C118.07 76.86 117.85 76.94 117.71 76.84C117.63 76.64 117.59 76.44 117.45 76.24C117.29 76.2 117.23 76.46 117.11 76.56C117.17 76.7 117.33 76.84 117.35 77.02C117.39 77.22 117.27 77.42 117.13 77.5C116.99 77.64 116.79 77.6 116.63 77.62C116.43 77.74 116.77 77.78 116.87 77.78C117.07 77.8 117.29 77.78 117.47 77.62C117.61 77.56 117.59 77.28 117.77 77.26L118.73 77.32C118.89 77.36 119.15 77.3 119.27 77.42C119.27 77.62 119.47 77.78 119.65 77.86C119.75 77.9 119.85 77.76 119.95 77.74C120.15 77.68 120.09 77.44 120.21 77.34H121.21C121.25 77.34 121.27 77.24 121.33 77.2L121.29 76.82C121.23 76.66 121.29 76.46 121.19 76.32C121.01 76.28 120.87 76.42 120.71 76.44C120.51 76.52 120.37 76.7 120.35 76.9C120.25 77.08 120.07 76.86 120.15 76.7L120.13 76.5C120.03 76.4 119.85 76.44 119.71 76.42L119.11 76.38C118.91 76.38 118.73 76.4 118.57 76.36C118.37 76.36 118.37 76.16 118.37 76C118.33 75.9696 118.281 75.9553 118.23 75.96ZM118.63 76.7L118.83 76.72H119.09C119.29 76.76 119.49 76.76 119.69 76.76C119.73 76.76 119.77 76.8 119.81 76.84V77.24C119.81 77.3 119.81 77.38 119.77 77.4C119.76 77.4159 119.746 77.4295 119.73 77.44C119.701 77.4348 119.673 77.4231 119.649 77.4058C119.625 77.3885 119.605 77.366 119.59 77.34V77.06C119.551 77.0265 119.502 77.0056 119.45 77L118.93 76.98L118.53 76.96C118.47 76.94 118.39 76.96 118.35 76.88C118.31 76.84 118.37 76.76 118.43 76.74C118.493 76.7119 118.562 76.6982 118.63 76.7ZM120.89 76.76C120.91 76.76 120.93 76.76 120.93 76.82L120.97 76.92C120.97 76.94 120.97 76.96 120.93 76.96C120.83 77 120.73 77 120.69 76.96C120.69 76.94 120.69 76.86 120.73 76.84L120.89 76.76Z" fill="#D3AE3B"/>
<path d="M119.99 65.44C126.51 60.44 125.95 53.08 125.95 53.08L125.45 53.12C124.07 53.12 120.81 52.32 120.05 51.34C119.25 52.24 115.89 53.14 114.53 53.14L114.03 53.08C114.03 53.08 113.45 60.42 119.99 65.44Z" fill="white"/>
<path fill-rule="evenodd" clip-rule="evenodd" d="M120.056 51.168L120.137 51.2726C120.311 51.4972 120.639 51.722 121.069 51.9328C121.496 52.1421 122.012 52.332 122.549 52.4921C123.624 52.8123 124.77 53.0092 125.446 53.01L126.052 52.9616L126.06 53.0717L125.95 53.08C126.06 53.0717 126.06 53.0716 126.06 53.0717L126.06 53.0734L126.061 53.0778L126.062 53.0946C126.062 53.1092 126.064 53.1308 126.065 53.1589C126.068 53.2152 126.07 53.2979 126.072 53.4047C126.074 53.6183 126.071 53.9281 126.046 54.3152C125.996 55.0893 125.861 56.1731 125.521 57.4141C124.842 59.8965 123.341 63.0094 120.057 65.5273L119.99 65.5787L119.923 65.5273C116.63 62.9995 115.129 59.8865 114.452 57.4065C114.113 56.1667 113.98 55.0848 113.932 54.3122C113.908 53.9258 113.905 53.6167 113.908 53.4036C113.91 53.2971 113.913 53.2145 113.916 53.1584C113.917 53.1303 113.918 53.1088 113.919 53.0942L113.92 53.0775L113.921 53.0731L113.921 53.0719L113.921 53.0715C113.921 53.0714 113.921 53.0714 114.03 53.08L113.921 53.0715L113.93 52.9572L114.537 53.03C115.202 53.0286 116.366 52.8075 117.468 52.4723C118.02 52.3046 118.552 52.1095 118.995 51.9014C119.441 51.6918 119.784 51.4745 119.968 51.2669L120.056 51.168ZM114.134 53.2032C114.132 53.2547 114.129 53.323 114.128 53.4068C114.125 53.6148 114.128 53.9183 114.152 54.2985C114.199 55.059 114.33 56.1258 114.664 57.3485C115.327 59.7766 116.79 62.8183 119.99 65.3011C123.181 62.8282 124.644 59.7866 125.309 57.356C125.644 56.1319 125.777 55.0632 125.826 54.3011C125.851 53.9201 125.854 53.6159 125.852 53.4074C125.851 53.3209 125.849 53.2509 125.846 53.1987L125.455 53.23H125.45C124.746 53.23 123.574 53.0271 122.486 52.7029C121.941 52.5406 121.413 52.3467 120.972 52.1304C120.587 51.9416 120.259 51.7312 120.045 51.5029C119.822 51.713 119.484 51.9146 119.088 52.1005C118.634 52.3143 118.091 52.513 117.532 52.6828C116.418 53.0215 115.226 53.25 114.53 53.25H114.524L114.134 53.2032Z" fill="#D3AE3B"/>
<path d="M125.43 53.6H125.27C124.03 53.6 121.15 52.98 120.03 52.02C118.87 52.9 115.93 53.62 114.71 53.62C114.656 53.6179 114.602 53.6113 114.55 53.6C114.561 54.8639 114.736 56.1211 115.07 57.34C115.872 60.2768 117.597 62.878 119.99 64.76C122.384 62.8709 124.109 60.2629 124.91 57.32C125.242 56.1075 125.417 54.8572 125.43 53.6Z" fill="white"/>
<path fill-rule="evenodd" clip-rule="evenodd" d="M120.033 51.9044L120.089 51.9517C120.632 52.4178 121.615 52.8087 122.628 53.0832C123.639 53.3569 124.661 53.51 125.27 53.51H125.521L125.52 53.6009C125.507 54.8659 125.331 56.1239 124.997 57.3438C124.191 60.3053 122.455 62.9297 120.046 64.8307L119.99 64.8746L119.934 64.8308C117.526 62.9369 115.79 60.3192 114.983 57.3637C114.647 56.1373 114.471 54.8725 114.46 53.6008L114.459 53.4886L114.569 53.512C114.616 53.5221 114.664 53.5281 114.712 53.53C115.31 53.5297 116.34 53.3522 117.368 53.0634C118.399 52.7739 119.41 52.3775 119.976 51.9483L120.033 51.9044ZM117.417 53.2367C116.381 53.5276 115.332 53.71 114.71 53.71H114.706C114.685 53.7092 114.663 53.7076 114.641 53.7054C114.661 54.9257 114.834 56.1389 115.157 57.3162C115.948 60.2116 117.641 62.7787 119.99 64.6452C122.34 62.7717 124.033 60.1978 124.823 57.2964C125.146 56.1206 125.319 54.9088 125.339 53.69H125.27C124.639 53.69 123.601 53.5331 122.581 53.2569C121.596 52.99 120.611 52.6071 120.027 52.1344C119.424 52.568 118.418 52.9554 117.417 53.2367Z" fill="#D3AE3B"/>
<path d="M117.87 53C116.796 53.3498 115.679 53.5517 114.55 53.6L114.57 54.42C114.638 55.4011 114.806 56.3727 115.07 57.32C115.607 59.287 116.562 61.1151 117.87 62.68V53ZM121.99 53V62.84C123.36 61.2391 124.358 59.3536 124.91 57.32C125.174 56.3727 125.341 55.4011 125.41 54.42L125.43 53.62H125.27C124.51 53.62 123.19 53.38 121.99 52.98V53Z" fill="#D3AE3B"/>
<path d="M122.45 50.6C122.59 50.62 122.27 49.9 122.27 49.9C122.63 50.26 123.95 50.36 123.95 50.36C123.15 50 122.35 47.34 122.45 45.2C122.53 43.08 122.15 42.24 121.85 41.92C121.45 41.52 120.15 41.16 119.31 41.12C118.81 41.1 118.91 41.48 118.91 41.48C118.01 41.26 117.11 41.16 116.71 41.44C116.35 41.68 116.27 42.94 116.55 42.72C117.21 42.18 117.79 42.68 118.19 43.26C118.55 43.76 118.53 45.2 118.01 46.9C117.549 48.1852 116.873 49.3824 116.01 50.44C116.81 50.44 117.93 49.74 117.93 49.74L117.67 50.84C118.51 50.44 119.17 49.82 119.17 49.82L119.97 50.66C120.23 50.3 120.77 49.82 120.77 49.82C120.77 49.82 121.43 50.52 122.45 50.62V50.6Z" fill="white"/>
<path fill-rule="evenodd" clip-rule="evenodd" d="M118.976 41.0556C119.063 41.0088 119.175 40.987 119.315 40.9926L119.316 40.9927C119.748 41.0133 120.294 41.1156 120.782 41.263C121.026 41.3368 121.259 41.4227 121.457 41.5167C121.653 41.6098 121.825 41.7147 121.94 41.8299L121.941 41.8313L121.943 41.8328C122.279 42.1918 122.658 43.077 122.577 45.2048L122.577 45.206C122.528 46.2599 122.701 47.4456 122.985 48.4115C123.127 48.8944 123.295 49.318 123.475 49.6407C123.658 49.9693 123.842 50.1715 124.002 50.2438L123.94 50.4872L123.95 50.36C123.94 50.4872 123.94 50.4872 123.94 50.4872L123.94 50.4871L123.936 50.4868L123.924 50.4859C123.914 50.485 123.899 50.4837 123.881 50.482C123.843 50.4785 123.789 50.473 123.723 50.4654C123.592 50.4502 123.413 50.426 123.221 50.3904C123.031 50.3548 122.825 50.3072 122.643 50.2443C122.604 50.231 122.565 50.2167 122.528 50.2014C122.529 50.206 122.531 50.2106 122.533 50.2152C122.564 50.3049 122.594 50.4022 122.607 50.479C122.612 50.514 122.617 50.5629 122.606 50.6079C122.601 50.6244 122.593 50.6464 122.577 50.6675V50.7606L122.437 50.7469C121.901 50.6944 121.462 50.4846 121.159 50.2899C121.006 50.1923 120.887 50.0979 120.806 50.0275C120.792 50.0157 120.779 50.0046 120.768 49.9943C120.714 50.0443 120.639 50.1145 120.557 50.1959C120.39 50.3601 120.197 50.5639 120.073 50.7347L119.983 50.8591L119.163 49.9974C119.154 50.0045 119.146 50.012 119.137 50.0199C119.06 50.0857 118.949 50.1773 118.812 50.2816C118.538 50.4897 118.155 50.7501 117.725 50.9551L117.485 51.0694L117.738 49.9974C117.626 50.0584 117.483 50.1321 117.323 50.2058C116.941 50.3819 116.439 50.5675 116.01 50.5675H115.741L115.911 50.3594C116.764 49.3138 117.433 48.1303 117.889 46.8598C118.146 46.0195 118.278 45.2464 118.302 44.625C118.315 44.3139 118.3 44.0433 118.261 43.8226C118.222 43.6001 118.161 43.4376 118.086 43.3345L118.085 43.3324C117.889 43.0479 117.66 42.8009 117.413 42.6855C117.293 42.629 117.17 42.6051 117.045 42.6215C116.919 42.6378 116.781 42.6958 116.631 42.8187L116.629 42.8203C116.573 42.8638 116.486 42.8994 116.398 42.8483C116.329 42.8083 116.299 42.7339 116.284 42.6819C116.251 42.5679 116.247 42.4046 116.263 42.2405C116.279 42.0731 116.316 41.8891 116.374 41.7288C116.429 41.5747 116.513 41.4185 116.638 41.3348C116.875 41.1696 117.237 41.1275 117.628 41.1451C117.981 41.1611 118.381 41.227 118.782 41.3188C118.787 41.295 118.794 41.2699 118.804 41.2446C118.833 41.1733 118.887 41.1036 118.976 41.0556ZM117.862 49.6319L117.862 49.6322L117.86 49.6336L117.851 49.6391C117.843 49.6439 117.831 49.6512 117.815 49.6605C117.784 49.6791 117.738 49.7059 117.68 49.7381C117.565 49.8025 117.403 49.8884 117.217 49.9742C116.932 50.1054 116.601 50.2313 116.296 50.2851C117.079 49.2752 117.698 48.1474 118.13 46.943L118.131 46.9402L118.132 46.9373C118.394 46.0788 118.532 45.2829 118.557 44.635C118.57 44.3112 118.555 44.0217 118.512 43.7786C118.47 43.538 118.399 43.3335 118.294 43.1866C118.09 42.8914 117.83 42.599 117.521 42.4546C117.365 42.3811 117.193 42.3449 117.012 42.3686C116.848 42.3899 116.684 42.4589 116.521 42.5805C116.508 42.5088 116.504 42.3971 116.517 42.2645C116.531 42.1144 116.564 41.9521 116.613 41.8156C116.665 41.6733 116.726 41.5826 116.781 41.5461L116.783 41.5445C116.946 41.4303 117.234 41.3826 117.617 41.3999C117.993 41.4169 118.434 41.4949 118.88 41.6039L119.088 41.6547L119.033 41.4486C119.033 41.4486 119.033 41.4487 119.033 41.4486C119.033 41.4477 119.033 41.4454 119.032 41.4424C119.031 41.4363 119.03 41.4268 119.029 41.4153C119.028 41.3912 119.031 41.3642 119.04 41.3404C119.049 41.3193 119.064 41.2976 119.097 41.2801C119.132 41.2613 119.195 41.2431 119.304 41.2474C119.712 41.2669 120.236 41.3645 120.708 41.5071C120.944 41.5783 121.164 41.6599 121.348 41.7471C121.533 41.8348 121.673 41.9243 121.758 42.0087C122.022 42.2911 122.402 43.0867 122.322 45.1946C122.272 46.2806 122.449 47.4946 122.74 48.4835C122.886 48.9782 123.061 49.4208 123.253 49.7649C123.341 49.9235 123.436 50.0661 123.536 50.1839C123.452 50.1718 123.362 50.1571 123.268 50.1397C123.084 50.1053 122.892 50.0604 122.726 50.0032C122.556 49.9447 122.429 49.8786 122.36 49.8099L122.153 49.9518L122.153 49.9522L122.154 49.9536L122.157 49.9593C122.158 49.9615 122.159 49.9641 122.16 49.9672C122.162 49.9712 122.164 49.976 122.166 49.9814C122.175 50.0006 122.186 50.0281 122.2 50.061C122.227 50.127 122.262 50.2141 122.292 50.2999C122.312 50.3572 122.329 50.4108 122.341 50.4557L122.322 50.453V50.4752C121.901 50.4085 121.55 50.2378 121.296 50.0752C121.156 49.9852 121.046 49.8984 120.972 49.8345C120.935 49.8025 120.907 49.7764 120.889 49.7585C120.879 49.7496 120.873 49.7428 120.868 49.7384L120.864 49.7335L120.863 49.7326L120.778 49.6425L120.685 49.7247L120.685 49.7252L120.683 49.7263L120.679 49.7306L120.661 49.7468C120.645 49.7609 120.623 49.7814 120.595 49.8071C120.539 49.8584 120.463 49.9306 120.378 50.0142C120.245 50.1455 120.087 50.3085 119.96 50.4646L119.175 49.6404L119.083 49.7271L119.082 49.7273L119.081 49.7285L119.076 49.7333C119.071 49.7376 119.064 49.7442 119.055 49.7527C119.036 49.7698 119.007 49.7949 118.971 49.8264C118.897 49.8894 118.79 49.9777 118.658 50.0785C118.446 50.2396 118.169 50.4311 117.857 50.601L118.125 49.4675" fill="#D3AE3B"/>
<path fill-rule="evenodd" clip-rule="evenodd" d="M119.8 45.4123L119.93 45.42C120.06 45.4278 120.06 45.4278 120.06 45.4279L120.059 45.4377L120.057 45.4662C120.056 45.4912 120.053 45.5278 120.05 45.5747C120.043 45.6686 120.033 45.8038 120.02 45.9693C119.992 46.3001 119.949 46.7526 119.889 47.2385C119.829 47.7242 119.751 48.245 119.652 48.7122C119.554 49.1762 119.434 49.5988 119.285 49.8808L119.055 49.7593C119.186 49.5113 119.301 49.1189 119.398 48.6585C119.494 48.2013 119.571 47.6884 119.631 47.2065C119.691 46.725 119.733 46.2762 119.76 45.9477C119.774 45.7835 119.784 45.6494 119.791 45.5565C119.794 45.5101 119.796 45.4739 119.798 45.4494L119.8 45.4216L119.8 45.4123ZM119.081 45.5028L119.21 45.52C119.339 45.5373 119.339 45.5374 119.339 45.5374L119.338 45.5399L119.337 45.5472L119.334 45.5753C119.33 45.5999 119.325 45.6359 119.318 45.682C119.304 45.7742 119.284 45.9067 119.256 46.0686C119.202 46.3921 119.12 46.8335 119.012 47.3042C118.904 47.7744 118.768 48.2764 118.606 48.7202C118.446 49.1604 118.254 49.5581 118.026 49.8077L117.834 49.6324C118.026 49.422 118.204 49.0647 118.362 48.6311C118.519 48.2012 118.651 47.7107 118.758 47.2459C118.865 46.7816 118.946 46.3455 119 46.0253C119.027 45.8652 119.047 45.7343 119.061 45.6436C119.068 45.5982 119.073 45.5628 119.076 45.5389L119.08 45.5118L119.081 45.5049L119.081 45.5028ZM120.42 45.5601C120.42 45.5601 120.42 45.56 120.55 45.56C120.68 45.56 120.68 45.5601 120.68 45.5601L120.68 45.6008C120.68 45.6276 120.68 45.6669 120.68 45.7172C120.681 45.8177 120.682 45.9621 120.683 46.1373C120.686 46.4878 120.692 46.9614 120.705 47.4543C120.717 47.9473 120.736 48.4584 120.764 48.8843C120.778 49.0974 120.794 49.2878 120.813 49.4434C120.832 49.6016 120.853 49.7155 120.874 49.7801L120.626 49.86C120.597 49.7696 120.574 49.6341 120.555 49.4745C120.535 49.3124 120.519 49.1168 120.505 48.9014C120.476 48.4704 120.458 47.9553 120.445 47.4608C120.433 46.9661 120.426 46.491 120.423 46.1396C120.422 45.9639 120.421 45.8191 120.42 45.7182C120.42 45.6677 120.42 45.6282 120.42 45.6013L120.42 45.5601ZM121.22 45.7469C121.22 45.7469 121.22 45.7468 121.35 45.74L121.48 45.7333L121.48 45.7352L121.48 45.7416L121.482 45.7669C121.483 45.7892 121.485 45.8223 121.488 45.8648C121.494 45.9499 121.503 46.0728 121.516 46.2239C121.543 46.5262 121.587 46.9403 121.654 47.3883C121.721 47.8366 121.811 48.3167 121.931 48.7514C122.052 49.1885 122.199 49.5692 122.377 49.8261L122.163 49.9739C121.961 49.6808 121.803 49.2666 121.68 48.8206C121.557 48.3721 121.464 47.8809 121.396 47.4268C121.328 46.9722 121.284 46.5527 121.257 46.2468C121.244 46.0938 121.235 45.9691 121.229 45.8825C121.226 45.8392 121.224 45.8055 121.222 45.7824L121.221 45.7561L121.22 45.7493L121.22 45.7469Z" fill="#D3AE3B"/>
<path d="M118.39 43.92C118.372 43.6881 118.304 43.4628 118.19 43.26C117.79 42.66 117.21 42.18 116.55 42.72C116.55 42.72 116.77 42.02 117.27 42C117.63 41.98 118.49 42.28 119.25 43.56C119.25 43.56 118.69 43.44 118.55 43.56C118.31 43.76 118.41 43.92 118.41 43.92H118.39Z" fill="#D3AE3B"/>
<path d="M116.47 41.86C116.53 41.66 116.61 41.5 116.73 41.44C117.13 41.16 118.01 41.24 118.91 41.48C118.91 41.48 118.83 41.1 119.31 41.12C120.15 41.16 121.43 41.52 121.83 41.92C121.958 42.0607 122.059 42.2233 122.13 42.4C121.93 42.12 121.37 42.14 121.23 42.16C121.03 42.18 120.89 42.16 120.61 42.24C120.47 42.28 120.27 42.32 120.15 42.4C120.07 42.48 119.99 42.72 119.87 42.72C119.67 42.72 119.67 42.68 119.61 42.62C119.55 42.52 119.51 42.4 119.43 42.42C119.23 42.44 118.87 42.28 118.43 41.92C117.97 41.56 117.79 41.48 117.23 41.52C116.63 41.56 116.47 41.9 116.47 41.9V41.86Z" fill="#D3AE3B"/>
<path d="M119.75 42.38C119.882 42.38 119.99 42.2726 119.99 42.14C119.99 42.0075 119.882 41.9 119.75 41.9C119.617 41.9 119.51 42.0075 119.51 42.14C119.51 42.2726 119.617 42.38 119.75 42.38Z" fill="white"/>
</g>
<defs>
<clipPath id="clip0_307_40409">
<rect width="240" height="120" fill="white"/>
</clipPath>
</defs>
</svg>
