<svg width="240" height="120" viewBox="0 0 240 120" fill="none" xmlns="http://www.w3.org/2000/svg">
<g clip-path="url(#clip0_909_308335)">
<path d="M0 0H240V120H0V0Z" fill="#D91C16"/>
<path d="M0 0H240V60L0 0Z" fill="#1E9A1C"/>
<path d="M240 60V120H0L240 60Z" fill="#54AEF2"/>
<path d="M52.0001 35.6333C52.1 35.6976 52.3651 35.4469 52.7416 35.0907C53.2441 34.6155 53.945 33.9525 54.7167 33.6C55.8667 33.0667 57.1501 33.0833 58.3501 33.2833C58.127 34.5308 55.7871 35.1611 53.9817 35.6474C52.8201 35.9603 51.8798 36.2136 51.8667 36.5333C52.1841 36.5968 52.8221 36.4482 53.7484 36.2323C54.5249 36.0514 55.504 35.8233 56.6667 35.6333C53.9307 39.3402 50.8037 38.917 48.8297 38.6499C48.1943 38.5639 47.6784 38.494 47.3334 38.5833C46.5334 38.7833 45.5501 39.5167 45.5501 39.9C46.4961 39.5232 47.1838 39.7172 47.8561 39.9068C48.5814 40.1114 49.2887 40.3109 50.2834 39.7833C49.6501 43.4833 43.1167 45.0833 41.7501 42.9167C40.8983 43.7817 40.7799 44.2217 40.7073 44.4912C40.689 44.5592 40.6736 44.6163 40.6501 44.6667C41.6183 44.2092 42.3983 44.4493 43.1015 44.6658C43.9357 44.9225 44.662 45.1461 45.4667 44.1333C45.2501 47.8333 40.3501 50.3167 37.7001 50.05C37.5167 50.3833 36.6334 52.2833 36.7001 52.6333C36.7796 52.6024 36.8252 52.5433 36.8822 52.4695C37.04 52.2649 37.2852 51.947 38.5834 51.8C41.0538 51.5255 41.2918 51.0417 41.9655 49.672C42.0281 49.5447 42.0945 49.4098 42.1667 49.2667C43.2001 51.1667 39.1667 57.3667 35.8167 59.1667C35.7667 59.6167 35.8334 60.8333 36.2667 61.3333C36.4862 60.4701 36.9754 60.172 37.6102 59.7851L37.6104 59.785C37.6987 59.7312 37.7898 59.6757 37.8834 59.6167C37.9743 59.5607 38.0635 59.5067 38.1511 59.4538L38.1514 59.4536C39.2368 58.7975 40.0658 58.2965 40.4667 55.9833C41.9334 58.3 40.3167 65.9167 37.7667 68.8667C37.8069 68.952 37.8561 69.0573 37.9114 69.1758C38.2239 69.8445 38.7327 70.9335 38.9167 71.2167C38.6972 70.3386 39.0849 69.887 39.6418 69.2382C39.9305 68.9019 40.2647 68.5126 40.5834 67.9833C41.5167 66.4167 41.5001 63.6667 41.4667 63.2667C44.0001 66.6333 44.1501 76.7 43.7501 77.7833C43.9334 78.1333 45.6334 79.5833 46.3667 80.0667C46.4286 79.906 46.417 79.8828 46.2573 79.562C46.2017 79.4502 46.1281 79.3024 46.0334 79.1C45.7694 78.5786 45.6857 77.6494 45.5868 76.5506C45.4359 74.8747 45.2495 72.8041 44.3334 71.1833C46.8167 71.45 51.0167 77.9 52.4167 80.4C53.9667 82.9 55.7334 84.8333 58.9167 86L58.9349 86.0066C59.0402 81.7425 58.7228 76.058 57.6166 72.2667C57.1615 71.8651 56.2382 70.8377 55.3686 69.87C54.6139 69.0302 53.8996 68.2353 53.5666 67.9333C52.0166 69.2 46.0833 69.2333 44.8499 64.4333C45.7833 65.0667 48.3166 66 49.6666 65.75C47.6166 65.0167 44.4333 62.6167 44.7666 59.5333C44.9599 59.66 45.1933 59.9067 45.4453 60.1731C45.8233 60.5727 46.2433 61.0167 46.6333 61.1667C46.9749 61.2832 47.5337 61.2766 48.0887 61.2701C48.7249 61.2627 49.3562 61.2553 49.6499 61.4333C50.2666 61.7833 50.8499 62.8667 50.9833 63.15C51.1833 62.6167 51.1166 60.0167 49.2499 59.3667C49.7999 58.9 51.6833 59.2833 52.9499 60.9333C54.2501 62.702 54.2578 64.4213 54.2633 65.6342C54.2656 66.1471 54.2675 66.5695 54.3666 66.8667C54.6333 67.6833 56.5833 69.55 57.0833 69.9333C57.0875 69.5767 57.0219 69.1714 56.9436 68.6869C56.7108 67.2472 56.3649 65.108 57.3999 61.4667C57.6749 60.4994 58.3115 59.2623 58.8736 58.1699C59.2993 57.3425 59.6824 56.598 59.8333 56.1167C59.0999 55.3333 57.1833 53.4667 56.7999 53.2333C56.7204 53.2302 56.522 53.2519 56.2422 53.2825C55.0555 53.4122 52.4042 53.7021 51.1499 52.9333C50.3166 52.45 49.5833 51.8667 49.2666 51.05L49.3312 51.0581C49.9957 51.1417 52.6344 51.4734 52.6666 51.2C52.6854 51.0307 52.6352 51.0047 52.3811 50.8733C52.185 50.772 51.8675 50.6078 51.3666 50.2667C50.5166 49.4833 49.4999 48.5 49.5833 45.7333C49.6611 45.8455 49.7367 45.9639 49.8134 46.084C50.2949 46.8382 50.8174 47.6565 52.1833 47.3833C53.2333 47.2333 54.3666 48.5 54.6333 49.1167C54.6666 48.4833 54.3666 46.6 53.3333 45.4333C53.6499 44.9833 57.0666 47.6667 57.2166 49.9833C57.2456 50.6508 57.1862 51.1792 57.1264 51.7117C57.1175 51.7909 57.1086 51.8702 57.0999 51.95C57.0666 52.4 59.7833 55.0333 60.5666 54.8333C60.8833 54.7833 61.6666 51.3833 61.9666 49.8L61.9886 49.6841C62.3619 47.72 63.0548 44.0738 61.6333 41.9333C61.2833 42.15 59.5666 42.8167 57.3999 40.5C56.4999 39.4667 56.4166 38.4 56.7666 38.0833C57.0833 38.65 58.7499 40.0667 59.1499 39.8C59.189 39.634 59.0263 39.4951 58.7977 39.3C58.2461 38.8293 57.3108 38.031 57.8999 35.7333C58.0333 35.3167 58.3499 35.15 58.5999 35.1167C58.7295 35.8683 59.1233 36.2885 59.6002 36.7974C60.0434 37.2704 60.5584 37.82 60.9999 38.7833C61.2088 38.3954 61.1446 37.9184 61.0837 37.4658C61.0426 37.16 61.0029 36.8653 61.0499 36.6167C61.1833 35.95 61.1666 35.1833 60.7999 34.9C61.1666 34.7833 61.8333 34.9 62.8833 37.3833C63.4666 38.85 62.8333 40.9667 62.5166 41.4167C62.5105 41.6245 62.6187 41.8391 62.7714 42.1417C63.035 42.6643 63.4311 43.4496 63.5999 44.9167C63.8958 46.8892 63.1866 49.8019 63.0231 50.4732L63.0166 50.5C63.1059 50.4436 63.1981 50.3879 63.2914 50.3316C63.8601 49.9881 64.4685 49.6206 64.6833 48.9333C64.7715 48.6245 64.8068 48.2154 64.8466 47.7547C64.927 46.8232 65.0255 45.6813 65.6166 44.7333C66.2333 43.6667 67.2833 42.9 68.9999 43.4333C68.8996 43.7176 68.728 43.7796 68.5019 43.8612C68.2773 43.9423 67.9989 44.0429 67.6833 44.4C67.1833 45.2 66.9499 45.7833 67.1666 46.3833C67.347 46.3533 67.4223 46.1943 67.521 45.9861C67.6411 45.7326 67.7958 45.4062 68.2166 45.15C68.9392 44.7784 69.406 44.8863 69.8231 44.9827C70.0794 45.0419 70.3168 45.0968 70.5833 45.0333C71.2333 44.8333 71.6333 44.3833 71.8166 44.1333C72.0166 44.65 71.7333 46.2667 69.7166 47.5167C69.6916 47.5333 69.6624 47.55 69.6333 47.5667C69.6041 47.5833 69.5749 47.6 69.5499 47.6167C69.0934 47.8667 68.9275 47.8473 68.8304 47.8359C68.7786 47.8299 68.7463 47.8261 68.6999 47.8667C68.4999 48.0833 69.0333 48.3333 69.8999 48.2167C70.7666 48.1 71.5499 47.8167 71.7333 47.25C71.9333 47.3833 72.1833 48.4167 70.0999 49.8C68.7166 50.6333 66.3999 50.3333 65.6999 49.9667C65.3666 50.15 63.1333 51.5333 62.9166 52C62.4999 53.8833 60.6499 58.3333 58.9499 61.3833C58.9833 61.6667 60.3166 61.2667 61.7499 59.9833C62.0111 59.7635 62.326 58.9769 62.6948 58.056C63.2205 56.7432 63.8555 55.1573 64.5999 54.55C65.6311 53.7568 66.8284 53.8394 67.8037 53.9067C67.853 53.9101 67.9018 53.9135 67.9499 53.9167C67.4666 54.0833 65.9499 54.9167 65.9499 56.35C66.0357 56.4286 66.1491 56.3295 66.3229 56.1774C66.5544 55.9748 66.8931 55.6785 67.4166 55.5833C67.921 55.5262 68.3819 55.6811 68.8086 55.8244C69.1293 55.9321 69.4306 56.0333 69.7166 56.0333C70.3833 56.0667 71.4833 55.45 71.6333 55.25C71.0166 58.2 68.2666 58.9833 66.4333 59.1167C66.7999 59.7 68.8833 60.1833 70.7666 58.8667C70.8499 59.15 70.1333 60.9667 67.5666 61.75C65.7846 62.2867 64.9983 61.8279 64.3526 61.451C63.9957 61.2428 63.6818 61.0596 63.2666 61.0833C62.4452 61.1196 61.6938 61.6899 61.1585 62.0962C60.9551 62.2505 60.783 62.3812 60.6499 62.45C60.2779 62.6529 59.8158 62.7443 59.4225 62.8221C59.0405 62.8977 58.7233 62.9604 58.6166 63.1C58.3166 63.4833 58.3666 66.8167 58.8666 69.15C59.1162 70.2911 59.5777 71.8729 59.9791 73.2487L59.9794 73.2496C60.1407 73.8026 60.2924 74.3223 60.4166 74.7667C60.5969 74.5864 60.8636 74.4342 61.18 74.2537C62.0337 73.7665 63.2487 73.0731 64.0999 71.0667C63.6833 69.8167 62.9333 64.8333 68.9666 63.6333C69.0214 63.7508 68.8002 63.9235 68.5106 64.1496C68.1838 64.4048 67.7698 64.7279 67.5666 65.1167C67.0333 65.9167 66.9833 67.4333 67.1666 67.9667C67.2132 67.9081 67.26 67.8476 67.3077 67.786C67.8574 67.0756 68.5277 66.2093 70.3833 66.3167C71.6499 66.4 72.5166 65.95 73.2333 65.0833C73.4499 65.1667 73.0166 67.35 71.8499 68.6667C71.3214 69.2833 70.6997 69.723 70.2064 70.072C69.7664 70.3832 69.4285 70.6222 69.3499 70.85C70.1666 70.8 71.4833 70.6833 73.5333 68.8C73.6166 69.25 72.4499 71.8667 70.0833 73.0833C68.5833 73.7667 65.9333 73.7667 64.3833 72.9C63.9833 73.5667 62.5999 75.4333 60.8333 76.3333C61.3459 81.0721 61.4271 83.7191 61.3301 85.9069C64.3588 84.7319 66.0738 82.8346 67.5833 80.4C68.9833 77.9 73.1833 71.45 75.6666 71.1833C74.7505 72.8041 74.5641 74.8747 74.4132 76.5506C74.3143 77.6494 74.2306 78.5786 73.9666 79.1C73.8719 79.3024 73.7983 79.4502 73.7427 79.562C73.583 79.8828 73.5715 79.906 73.6333 80.0667C74.3666 79.5833 76.0666 78.1333 76.2499 77.7833C75.8499 76.7 75.9999 66.6333 78.5333 63.2667C78.4999 63.6667 78.4833 66.4167 79.4166 67.9833C79.7353 68.5126 80.0695 68.9019 80.3582 69.2382C80.9151 69.887 81.3028 70.3386 81.0833 71.2167C81.2673 70.9335 81.7762 69.8443 82.0887 69.1755C82.144 69.0571 82.1931 68.9519 82.2333 68.8667C79.6833 65.9167 78.0666 58.3 79.5333 55.9833C79.9342 58.2965 80.7632 58.7975 81.8486 59.4536C81.9363 59.5066 82.0256 59.5606 82.1166 59.6167C82.2103 59.6757 82.3014 59.7313 82.3898 59.7851C83.0246 60.172 83.5138 60.4701 83.7333 61.3333C84.1666 60.8333 84.2333 59.6167 84.1833 59.1667C80.8333 57.3667 76.7999 51.1667 77.8333 49.2667C77.9055 49.4098 77.9719 49.5447 78.0345 49.672C78.7082 51.0417 78.9462 51.5255 81.4166 51.8C82.7148 51.947 82.96 52.2649 83.1178 52.4695C83.1748 52.5433 83.2204 52.6024 83.2999 52.6333C83.3666 52.2833 82.4833 50.3833 82.2999 50.05C79.6499 50.3167 74.7499 47.8333 74.5333 44.1333C75.338 45.1461 76.0643 44.9225 76.8985 44.6658C77.6017 44.4493 78.3817 44.2092 79.3499 44.6667C79.3264 44.6163 79.311 44.5592 79.2927 44.4912C79.2201 44.2217 79.1017 43.7817 78.2499 42.9167C76.8833 45.0833 70.3499 43.4833 69.7166 39.7833C70.7113 40.3109 71.4186 40.1114 72.1439 39.9068C72.8162 39.7172 73.5039 39.5232 74.4499 39.9C74.4499 39.5167 73.4666 38.7833 72.6666 38.5833C72.3216 38.494 71.8057 38.5639 71.1703 38.6499C69.1963 38.917 66.0693 39.3402 63.3333 35.6333C64.496 35.8233 65.4751 36.0514 66.2516 36.2323C67.1779 36.4482 67.8159 36.5968 68.1333 36.5333C68.1202 36.2136 67.1799 35.9603 66.0183 35.6474C64.2129 35.1611 61.873 34.5308 61.6499 33.2833C62.8499 33.0833 64.1333 33.0667 65.2833 33.6C66.055 33.9525 66.7559 34.6155 67.2584 35.0907C67.6349 35.4469 67.9 35.6976 67.9999 35.6333C68.2666 35.25 65.2666 32.6833 65.1166 32.5833C65.1833 32.55 65.3999 32.5 65.7499 32.5C68.5333 32.5 71.9499 34.4333 72.5666 37.2C73.0833 37.35 73.9999 37.8833 74.1833 38.1C74.2092 35.6576 72.2403 34.4203 71.1339 33.725C70.8208 33.5283 70.5768 33.375 70.4666 33.25C70.4833 33.0333 72.0166 33.0667 73.1166 33.4C74.9166 34.0167 79.7999 36.95 79.0999 42.1333L79.1225 42.1575C79.3367 42.3869 79.3893 42.4433 79.5666 42.7333C79.8333 41.9833 80.2333 38.8833 78.4666 37.25C81.7833 37.1 86.2499 44.5333 83.3999 49.6333L83.7333 50.4167C84.4499 48.9333 85.2166 47.1333 84.3999 43.0667C84.9166 43.3333 88.6833 47.4667 88.2833 51.1333C88.0166 53.1833 87.2166 56.8167 84.8833 58.7833L85.0999 59.5C86.2499 58.6333 88.7999 55.2 88.5333 52.85C88.9166 52.9333 89.9999 54.65 89.9999 57.8333C89.9999 57.845 89.9999 57.8577 90 57.8715C90.0013 58.9252 90.0109 66.2223 83.2166 69.2L83.0833 70.1333C83.2074 70.069 83.336 70.0034 83.4685 69.9359C85.2567 69.0241 87.7534 67.7511 89.5999 64.1667C89.7833 64.4333 90.1666 68.35 87.0666 73.4667C85.2499 76.3667 79.4166 79.4 77.2499 78.7667L76.2833 79.7C78.2833 79.85 84.6333 78.6167 86.3166 77.05C86.5499 77.3833 83.7333 82.7167 78.0999 85.0333C73.8686 86.7621 69.9301 87.9541 61.6572 87.3401C63.7385 88.5775 65.7027 90.1882 66.7334 91.3L65.3334 92.5C65.16 92.3518 64.8578 92.0713 64.4733 91.7143C63.6015 90.9049 62.3065 89.7027 61.1299 88.7595C61.0835 89.836 61.1878 90.5179 61.2601 90.9908C61.3322 91.4626 61.3726 91.7265 61.1999 91.9667C60.9051 91.662 60.0308 91.6877 59.3117 91.7088C58.8112 91.7235 58.3859 91.7359 58.2833 91.6334C58.4911 91.2343 58.6678 90.2205 58.7876 88.8259C57.6333 89.7586 56.3781 90.9238 55.5267 91.7143C55.1422 92.0713 54.84 92.3518 54.6666 92.5L53.2666 91.3C54.2973 90.1882 56.2615 88.5775 58.3428 87.3401C50.0699 87.9541 46.1314 86.7621 41.9001 85.0333C36.2667 82.7167 33.4501 77.3833 33.6834 77.05C35.3667 78.6167 41.7167 79.85 43.7167 79.7L42.7501 78.7667C40.5834 79.4 34.7501 76.3667 32.9334 73.4667C29.8334 68.35 30.2167 64.4333 30.4001 64.1667C32.2466 67.7511 34.7433 69.0241 36.5315 69.9359L36.532 69.9361C36.6643 70.0036 36.7928 70.069 36.9167 70.1333L36.7834 69.2C29.9891 66.2223 29.9987 58.9252 30 57.8715L30.0001 57.8333C30.0001 54.65 31.0834 52.9333 31.4667 52.85C31.2001 55.2 33.7501 58.6333 34.9001 59.5L35.1167 58.7833C32.7834 56.8167 31.9834 53.1833 31.7167 51.1333C31.3167 47.4667 35.0834 43.3333 35.6001 43.0667C34.7834 47.1333 35.5501 48.9333 36.2667 50.4167L36.6001 49.6333C33.7501 44.5333 38.2167 37.1 41.5334 37.25C39.7667 38.8833 40.1667 41.9833 40.4334 42.7333C40.6107 42.4433 40.6633 42.3869 40.8775 42.1575L40.9001 42.1333C40.2001 36.95 45.0834 34.0167 46.8834 33.4C47.9834 33.0667 49.5167 33.0333 49.5334 33.25C49.4232 33.375 49.1792 33.5283 48.8661 33.725C47.7597 34.4203 45.7908 35.6576 45.8167 38.1C46.0001 37.8833 46.9167 37.35 47.4334 37.2C48.0501 34.4333 51.4667 32.5 54.2501 32.5C54.6001 32.5 54.8167 32.55 54.8834 32.5833C54.7334 32.6833 51.7334 35.25 52.0001 35.6333Z" fill="#FDD406"/>
</g>
<defs>
<clipPath id="clip0_909_308335">
<rect width="240" height="120" fill="white"/>
</clipPath>
</defs>
</svg>
