<svg width="240" height="120" viewBox="0 0 240 120" fill="none" xmlns="http://www.w3.org/2000/svg">
<g clip-path="url(#clip0_307_41468)">
<path d="M0 0H240V120H0V0Z" fill="#D91C16"/>
<path d="M0 0H240V80H0V0Z" fill="#FDD406"/>
<path d="M0 0H240V40H0V0Z" fill="#1E9A1C"/>
<path d="M120 100C142.091 100 160 82.0914 160 60C160 37.9086 142.091 20 120 20C97.9086 20 80 37.9086 80 60C80 82.0914 97.9086 100 120 100Z" fill="#0F3296"/>
<path d="M118.597 32.3148L119.999 28L127.184 50.1115H144.195L140.525 52.7781H115.804L116.67 50.1115H124.38L118.597 32.3148Z" fill="#FDD406"/>
<path d="M129.159 48.5263L139.348 34.5033L138.269 33.7196L128.081 47.7426L129.159 48.5263Z" fill="#FDD406"/>
<path d="M150.433 50.1114H145.896L130.757 61.1104L128.375 53.7781H125.571L133.21 77.2891L136.881 79.9557L131.624 63.7771L150.433 50.1114Z" fill="#FDD406"/>
<path d="M133.742 65.1663L150.227 70.5226L150.639 69.2545L134.154 63.8982L133.742 65.1663Z" fill="#FDD406"/>
<path d="M138.808 85.8885L137.406 81.5738L122.268 70.5748L128.505 66.0432L127.638 63.3765L107.639 77.9071L106.237 82.2219L119.999 72.2229L138.808 85.8885Z" fill="#FDD406"/>
<path d="M119.333 74.6667V92H120.666V74.6667H119.333Z" fill="#FDD406"/>
<path d="M101.19 85.8886L104.86 83.2219L110.643 65.4252L116.88 69.9568L119.149 68.3087L99.1489 53.7781H94.6121L108.375 63.7771L101.19 85.8886Z" fill="#FDD406"/>
<path d="M105.844 63.8982L89.3594 69.2545L89.7714 70.5226L106.256 65.1663L105.844 63.8982Z" fill="#FDD406"/>
<path d="M89.5653 50.1115L93.2357 52.7781L111.948 52.7781L109.566 60.1104L111.834 61.7585L119.473 38.2476L118.071 33.9328L112.815 50.1115H89.5653Z" fill="#FDD406"/>
<path d="M111.918 47.7426L101.729 33.7196L100.651 34.5033L110.839 48.5263L111.918 47.7426Z" fill="#FDD406"/>
</g>
<defs>
<clipPath id="clip0_307_41468">
<rect width="240" height="120" fill="white"/>
</clipPath>
</defs>
</svg>
