<svg width="240" height="120" viewBox="0 0 240 120" fill="none" xmlns="http://www.w3.org/2000/svg">
<g clip-path="url(#clip0_909_222932)">
<path d="M0 0H240V120H0V0Z" fill="#0F3296"/>
<path d="M113.659 17.9399L117.578 20.7869L116.081 25.3935L120 22.5465L123.918 25.3935L122.421 20.7869L126.34 17.9399H121.496L120 13.3334L118.503 17.9399H113.659Z" fill="#FDD406"/>
<path d="M120 93.3334L118.503 97.9399H113.659L117.578 100.787L116.081 105.393L120 102.546L123.918 105.393L122.421 100.787L126.34 97.9399H121.496L120 93.3334Z" fill="#FDD406"/>
<path d="M79.9996 53.3334L78.5028 57.9399H73.6592L77.5777 60.7869L76.081 65.3935L79.9996 62.5465L83.9181 65.3935L82.4214 60.7869L86.3399 57.9399H81.4963L79.9996 53.3334Z" fill="#FDD406"/>
<path d="M96.081 30.7525L99.9996 27.9055L103.918 30.7525L102.421 26.1459L106.34 23.2989H101.496L99.9996 18.6924L98.5028 23.2989H93.6592L97.5777 26.1459L96.081 30.7525Z" fill="#FDD406"/>
<path d="M89.2771 45.3935L87.7803 40.7869L91.6989 37.9399H86.8553L85.3585 33.3334L83.8618 37.9399H79.0182L82.9367 40.7869L81.44 45.3935L85.3585 42.5465L89.2771 45.3935Z" fill="#FDD406"/>
<path d="M85.3585 73.3334L86.8553 77.9399H91.6989L87.7803 80.7869L89.2771 85.3935L85.3585 82.5465L81.44 85.3935L82.9367 80.7869L79.0182 77.9399H83.8618L85.3585 73.3334Z" fill="#FDD406"/>
<path d="M106.34 92.5809H101.496L99.9996 87.9744L98.5028 92.5809H93.6592L97.5777 95.4279L96.081 100.035L99.9996 97.1875L103.918 100.035L102.421 95.4279L106.34 92.5809Z" fill="#FDD406"/>
<path d="M160 53.3334L161.496 57.9399H166.34L162.422 60.7869L163.918 65.3935L160 62.5465L156.081 65.3935L157.578 60.7869L153.659 57.9399H158.503L160 53.3334Z" fill="#FDD406"/>
<path d="M143.918 30.7525L140 27.9055L136.081 30.7525L137.578 26.1459L133.659 23.2989H138.503L140 18.6924L141.496 23.2989H146.34L142.422 26.1459L143.918 30.7525Z" fill="#FDD406"/>
<path d="M150.722 45.3935L152.219 40.7869L148.3 37.9399H153.144L154.641 33.3334L156.137 37.9399H160.981L157.063 40.7869L158.559 45.3935L154.641 42.5465L150.722 45.3935Z" fill="#FDD406"/>
<path d="M154.641 73.3334L153.144 77.9399H148.3L152.219 80.7869L150.722 85.3935L154.641 82.5465L158.559 85.3935L157.063 80.7869L160.981 77.9399H156.137L154.641 73.3334Z" fill="#FDD406"/>
<path d="M140 87.9744L138.503 92.5809H133.659L137.578 95.4279L136.081 100.035L140 97.1875L143.918 100.035L142.422 95.4279L146.34 92.5809H141.496L140 87.9744Z" fill="#FDD406"/>
</g>
<defs>
<clipPath id="clip0_909_222932">
<rect width="240" height="120" fill="white"/>
</clipPath>
</defs>
</svg>
