<svg width="240" height="120" viewBox="0 0 240 120" fill="none" xmlns="http://www.w3.org/2000/svg">
<g clip-path="url(#clip0_307_41677)">
<path d="M240 0H0V120H240V0Z" fill="#54AEF2"/>
<path d="M108.587 20.2918L115.641 25.4164L112.947 33.7082L120 28.5836L127.053 33.7082L124.359 25.4164L131.413 20.2918H122.694L120 12L117.306 20.2918H108.587Z" fill="white"/>
<path d="M159.708 57.3058L168 60L159.708 62.6942V71.4127L154.584 64.3593L146.292 67.0534L151.416 60L146.292 52.9466L154.584 55.6408L159.708 48.5873V57.3058Z" fill="white"/>
<path d="M127.053 86.2918L124.359 94.5836L131.413 99.7082H122.694L120 108L117.306 99.7082H108.587L115.641 94.5836L112.947 86.2918L120 91.4164L127.053 86.2918Z" fill="white"/>
<path d="M93.7082 67.0534L85.4164 64.3592L80.2918 71.4127V62.6942L72 60L80.2918 57.3058V48.5873L85.4164 55.6407L93.7082 52.9466L88.5836 60L93.7082 67.0534Z" fill="white"/>
</g>
<defs>
<clipPath id="clip0_307_41677">
<rect width="240" height="120" fill="white"/>
</clipPath>
</defs>
</svg>
