<svg width="240" height="120" viewBox="0 0 240 120" fill="none" xmlns="http://www.w3.org/2000/svg">
<g clip-path="url(#clip0_909_318255)">
<path d="M0 0V120H240V0H0Z" fill="#021455"/>
<path d="M26.833 0L120 46.583L213.167 0H240V13.416L146.833 60L240 106.583V120H213.167L120 73.416L26.833 120H0V106.583L93.167 60L0 13.416V0H26.833Z" fill="white"/>
<path d="M120 68.9443L17.8887 120H0L120 60V68.9443Z" fill="#D91C16"/>
<path d="M137.889 60L240 111.056V120L120 60H137.889Z" fill="#D91C16"/>
<path d="M120 60V51.0557L222.111 0H240L120 60Z" fill="#D91C16"/>
<path d="M120 60H102.111L0 8.94434V0L120 60Z" fill="#D91C16"/>
<path d="M140 0V40H240V80H140V120H100V80H0V40H100V0H140Z" fill="white"/>
<path d="M132 0V48H240V72H132V120H108V72H0V48H108V0H132Z" fill="#D91C16"/>
</g>
<defs>
<clipPath id="clip0_909_318255">
<rect width="240" height="120" fill="white"/>
</clipPath>
</defs>
</svg>
