<svg width="240" height="120" viewBox="0 0 240 120" fill="none" xmlns="http://www.w3.org/2000/svg">
<g clip-path="url(#clip0_909_218523)">
<path d="M0 0H240V120H0V0Z" fill="#D91C16"/>
<path d="M16.7998 16.8H223.2V103.2H16.7998V16.8Z" fill="#005801"/>
<path d="M16.7998 16.8H223.2L16.7998 103.2H223.2L16.7998 16.8Z" fill="#FDD406"/>
<path d="M29.6965 60.0453C31.4013 63.4513 34.7993 67.2025 37.8217 68.5737C37.9685 65.1685 36.8853 60.7677 35.3321 57.2417L29.6965 60.0453Z" fill="#D91C16"/>
<path d="M26.6321 48.5948C29.1721 54.0728 19.6189 66.9372 35.2133 70.1852C33.3189 67.528 32.2813 63.0845 32.7973 59.6029C36.0353 60.9821 39.2821 64.1885 40.5581 67.1917C45.9357 52.198 29.9757 53.6228 26.6321 48.5948Z" fill="#FDD406"/>
<path d="M158.34 5.8896L160.091 0.5L161.842 5.8896H167.509L162.925 9.22067L164.676 14.6104L160.091 11.2794L155.506 14.6104L157.258 9.22077L152.673 5.8896H158.34Z" fill="#FDD406"/>
<path d="M78.6672 109L80.4184 103.61L82.1695 109H87.8364L83.2517 112.331L85.0028 117.721L80.4182 114.39L75.8336 117.721L77.5848 112.331L73 109H78.6672Z" fill="#FDD406"/>
<path d="M118.503 109L120.254 103.61L122.005 109H127.672L123.088 112.331L124.839 117.721L120.254 114.39L115.67 117.721L117.421 112.331L112.836 109H118.503Z" fill="#FDD406"/>
<path d="M160.091 103.61L158.34 109H152.673L157.258 112.331L155.506 117.721L160.091 114.39L164.676 117.721L162.925 112.331L167.509 109H161.842L160.091 103.61Z" fill="#FDD406"/>
<path d="M120.254 0.5L118.503 5.8896H112.836L117.421 9.22076L115.67 14.6104L120.254 11.2794L124.839 14.6104L123.088 9.22067L127.672 5.8896H122.005L120.254 0.5Z" fill="#FDD406"/>
<path d="M78.6672 5.8896L80.4184 0.5L82.1695 5.8896H87.8364L83.2517 9.22067L85.0028 14.6104L80.4182 11.2794L75.8336 14.6104L77.5848 9.22076L73 5.8896H78.6672Z" fill="#FDD406"/>
<path d="M120.001 74.4C127.953 74.4 134.401 67.9529 134.401 60C134.401 52.0471 127.953 45.6 120.001 45.6C112.048 45.6 105.601 52.0471 105.601 60C105.601 67.9529 112.048 74.4 120.001 74.4Z" fill="#D91C16"/>
<path d="M120 46.7999L112.241 70.6787L132.554 55.9207H107.446L127.759 70.6787L120 46.7999Z" fill="#FDD406"/>
</g>
<defs>
<clipPath id="clip0_909_218523">
<rect width="240" height="120" fill="white"/>
</clipPath>
</defs>
</svg>
