<svg width="240" height="120" viewBox="0 0 240 120" fill="none" xmlns="http://www.w3.org/2000/svg">
<g clip-path="url(#clip0_504_392)">
<path d="M240 0H0V120H240V0Z" fill="#D91C16"/>
<path d="M240 0H0V80.3906H240V0Z" fill="white"/>
<path d="M122.143 54.5172H92.1426V75.1389H122.143V54.5172Z" fill="black"/>
<path d="M107.727 72.124H89.4139L85.3545 74.7958V77.6269H107.727" fill="#D91C16"/>
<path fill-rule="evenodd" clip-rule="evenodd" d="M89.3437 71.8896H107.962V72.3584H89.4841L85.5889 74.9221V77.3925H107.962V77.8613H85.1201V74.6695L89.3437 71.8896Z" fill="black"/>
<path d="M100.063 60.2783C102.7 60.2783 104.854 62.4764 104.854 65.1855V72.1143H108.296V45.8643H89.4141V72.1143H95.2734V65.1855C95.2734 62.5822 97.3898 60.2783 100.063 60.2783Z" fill="#D91C16"/>
<path fill-rule="evenodd" clip-rule="evenodd" d="M89.1797 45.6299H108.53V72.3486H104.619V65.1855C104.619 62.6007 102.566 60.5127 100.063 60.5127C97.5287 60.5127 95.5078 62.702 95.5078 65.1855V72.3486H89.1797V45.6299ZM89.6484 46.0986V71.8799H95.0391V65.1855C95.0391 62.4624 97.2509 60.0439 100.063 60.0439C102.835 60.0439 105.088 62.3521 105.088 65.1855V71.8799H108.062V46.0986H89.6484Z" fill="black"/>
<path d="M104.556 28.1071H95.873V44.0255H104.556V28.1071Z" fill="black"/>
<path d="M104.531 41.5576H96.9333V38.8623H91.3623V41.5576H87.583V38.8623H85.3271V43.7549H104.531M87.583 43.7372H103.975V45.8643H87.583V43.7372Z" fill="#D91C16"/>
<path fill-rule="evenodd" clip-rule="evenodd" d="M85.0928 38.6279H87.8174V41.3232H91.1279V38.6279H97.1677V41.3232H104.766V41.792H96.6989V39.0967H91.5967V41.792H87.3486V39.0967H85.5615V43.5205H87.3486V43.5028H104.21V43.5205H104.766V43.9893H104.21V46.0986H87.3486V43.9893H85.0928V38.6279ZM87.8174 43.9893V45.6299H103.741V43.9893H87.8174Z" fill="black"/>
<path d="M94.0869 22.3242V38.8623H96.9333V34.3213C96.9333 32.6201 98.1343 31.2278 99.8145 31.1426C99.8686 31.1398 99.9207 31.1426 99.9756 31.1426C101.732 31.1426 103.154 32.5652 103.154 34.3213V38.8623H105.864V22.3242H94.0869Z" fill="#D91C16"/>
<path fill-rule="evenodd" clip-rule="evenodd" d="M93.8525 22.0898H106.099V39.0967H102.92V34.3213C102.92 32.6946 101.602 31.377 99.9756 31.377C99.9474 31.377 99.9257 31.3765 99.9068 31.3762C99.8775 31.3756 99.8551 31.3752 99.8263 31.3767C98.284 31.4549 97.1677 32.7313 97.1677 34.3213V39.0967H93.8525V22.0898ZM94.3213 22.5586V38.6279H96.6989V34.3213C96.6989 32.5088 97.9846 31.0008 99.8026 30.9085C99.8466 30.9063 99.8973 30.9071 99.9364 30.9077C99.9516 30.908 99.965 30.9082 99.9756 30.9082C101.861 30.9082 103.389 32.4357 103.389 34.3213V38.6279H105.63V22.5586H94.3213Z" fill="black"/>
<path d="M93.0615 20.083V22.3242H106.772V20.083H93.0615Z" fill="#D91C16"/>
<path fill-rule="evenodd" clip-rule="evenodd" d="M92.8271 19.8486H107.007V22.5586H92.8271V19.8486ZM93.2959 20.3174V22.0898H106.538V20.3174H93.2959Z" fill="black"/>
<path d="M91.3037 15.791V20.083H107.754V15.791H105.22V17.9736H102.158V15.791H97.4854V17.9736H94.4238V15.791H91.3037Z" fill="#D91C16"/>
<path fill-rule="evenodd" clip-rule="evenodd" d="M91.0693 15.5566H94.6582V17.7393H97.251V15.5566H102.393V17.7393H104.985V15.5566H107.988V20.3174H91.0693V15.5566ZM91.5381 16.0254V19.8486H107.52V16.0254H105.454V18.208H101.924V16.0254H97.7197V18.208H94.1895V16.0254H91.5381Z" fill="black"/>
<path fill-rule="evenodd" clip-rule="evenodd" d="M85.1201 74.5614H108.047V75.0302H85.1201V74.5614Z" fill="black"/>
<path d="M122.344 73.5059H107.139L102.554 75.7178V79.0137H122.344" fill="#D91C16"/>
<path fill-rule="evenodd" clip-rule="evenodd" d="M107.085 73.2715H122.578V73.7402H107.192L102.788 75.8649V78.7793H122.578V79.248H102.319V75.5706L107.085 73.2715Z" fill="black"/>
<path fill-rule="evenodd" clip-rule="evenodd" d="M122.812 75.9465H102.549V75.4778H122.812V75.9465Z" fill="black"/>
<path d="M117.857 54.5172H147.857V75.1389H117.857V54.5172Z" fill="black"/>
<path d="M132.273 72.124H150.586L154.646 74.7958V77.6269H132.273" fill="#D91C16"/>
<path fill-rule="evenodd" clip-rule="evenodd" d="M150.656 71.8896H132.038V72.3584H150.516L154.411 74.9221V77.3925H132.038V77.8613H154.88V74.6695L150.656 71.8896Z" fill="black"/>
<path d="M139.937 60.2783C137.3 60.2783 135.146 62.4764 135.146 65.1855V72.1143H131.704V45.8643H150.586V72.1143H144.727V65.1855C144.727 62.5822 142.61 60.2783 139.937 60.2783Z" fill="#D91C16"/>
<path fill-rule="evenodd" clip-rule="evenodd" d="M150.82 45.6299H131.47V72.3486H135.381V65.1855C135.381 62.6007 137.434 60.5127 139.937 60.5127C142.471 60.5127 144.492 62.702 144.492 65.1855V72.3486H150.82V45.6299ZM150.352 46.0986V71.8799H144.961V65.1855C144.961 62.4624 142.749 60.0439 139.937 60.0439C137.165 60.0439 134.912 62.3521 134.912 65.1855V71.8799H131.938V46.0986H150.352Z" fill="black"/>
<path d="M135.444 28.1071H144.127V44.0255H135.444V28.1071Z" fill="black"/>
<path d="M135.469 41.5576H143.067V38.8623H148.638V41.5576H152.417V38.8623H154.673V43.7549H135.469M152.417 43.7372H136.025V45.8643H152.417V43.7372Z" fill="#D91C16"/>
<path fill-rule="evenodd" clip-rule="evenodd" d="M154.907 38.6279H152.183V41.3232H148.872V38.6279H142.832V41.3232H135.234V41.792H143.301V39.0967H148.403V41.792H152.651V39.0967H154.438V43.5205H152.651V43.5028H135.79V43.5205H135.234V43.9893H135.79V46.0986H152.651V43.9893H154.907V38.6279ZM152.183 43.9893V45.6299H136.259V43.9893H152.183Z" fill="black"/>
<path d="M145.913 22.3242V38.8623H143.067V34.3213C143.067 32.6201 141.866 31.2278 140.186 31.1426C140.131 31.1398 140.079 31.1426 140.024 31.1426C138.268 31.1426 136.846 32.5652 136.846 34.3213V38.8623H134.136V22.3242H145.913Z" fill="#D91C16"/>
<path fill-rule="evenodd" clip-rule="evenodd" d="M146.147 22.0898H133.901V39.0967H137.08V34.3213C137.08 32.6946 138.398 31.377 140.024 31.377C140.053 31.377 140.074 31.3765 140.093 31.3762C140.123 31.3756 140.145 31.3752 140.174 31.3767C141.716 31.4549 142.832 32.7313 142.832 34.3213V39.0967H146.147V22.0898ZM145.679 22.5586V38.6279H143.301V34.3213C143.301 32.5088 142.015 31.0008 140.197 30.9085C140.153 30.9063 140.103 30.9071 140.064 30.9077C140.048 30.908 140.035 30.9082 140.024 30.9082C138.139 30.9082 136.611 32.4357 136.611 34.3213V38.6279H134.37V22.5586H145.679Z" fill="black"/>
<path d="M146.938 20.083V22.3242H133.228V20.083H146.938Z" fill="#D91C16"/>
<path fill-rule="evenodd" clip-rule="evenodd" d="M147.173 19.8486H132.993V22.5586H147.173V19.8486ZM146.704 20.3174V22.0898H133.462V20.3174H146.704Z" fill="black"/>
<path d="M148.696 15.791V20.083H132.246V15.791H134.78V17.9736H137.842V15.791H142.515V17.9736H145.576V15.791H148.696Z" fill="#D91C16"/>
<path fill-rule="evenodd" clip-rule="evenodd" d="M148.931 15.5566H145.342V17.7393H142.749V15.5566H137.607V17.7393H135.015V15.5566H132.012V20.3174H148.931V15.5566ZM148.462 16.0254V19.8486H132.48V16.0254H134.546V18.208H138.076V16.0254H142.28V18.208H145.811V16.0254H148.462Z" fill="black"/>
<path fill-rule="evenodd" clip-rule="evenodd" d="M154.88 74.5614H131.953V75.0302H154.88V74.5614Z" fill="black"/>
<path d="M117.656 73.5059H132.861L137.446 75.7178V79.0137H117.656" fill="#D91C16"/>
<path fill-rule="evenodd" clip-rule="evenodd" d="M132.915 73.2715H117.422V73.7402H132.808L137.212 75.8649V78.7793H117.422V79.248H137.681V75.5706L132.915 73.2715Z" fill="black"/>
<path fill-rule="evenodd" clip-rule="evenodd" d="M117.188 75.9465H137.451V75.4778H117.188V75.9465Z" fill="black"/>
<path d="M128.108 70.3271C126.864 70.7412 125.739 71.4376 124.607 72.0863C123.154 72.9449 121.744 73.8803 120.433 74.9451C119.971 75.2494 119.529 75.5829 119.172 76.0107C118.692 76.4221 118.205 76.9739 118.296 77.6574C118.321 77.9589 118.706 77.3034 118.959 77.2717C119.401 77.0181 119.936 76.9363 120.432 77.0508C121.028 76.4233 121.796 76.0028 122.459 75.4542C123.868 74.4031 125.383 73.5005 126.924 72.66C127.462 72.3842 128.003 72.1042 128.577 71.9092C128.42 71.3818 128.264 70.8545 128.108 70.3271Z" fill="#FDD406"/>
<path fill-rule="evenodd" clip-rule="evenodd" d="M128.227 70.0975L128.798 72.0238L128.634 72.0795C128.089 72.2647 127.574 72.5289 127.048 72.7987C127.034 72.8055 127.021 72.8123 127.008 72.8191C125.472 73.6566 123.967 74.5534 122.57 75.5957C122.313 75.8082 122.039 76.003 121.771 76.1933C121.688 76.2521 121.606 76.3105 121.525 76.3688C121.178 76.6196 120.848 76.8736 120.562 77.1746L120.491 77.2492L120.391 77.2261C119.94 77.122 119.451 77.1964 119.048 77.4277L119.017 77.4457L118.981 77.4502C118.981 77.4502 118.981 77.4502 118.981 77.4502C118.98 77.4506 118.969 77.4533 118.949 77.465C118.927 77.4782 118.9 77.498 118.868 77.5249C118.816 77.5691 118.764 77.6213 118.709 77.676C118.696 77.6896 118.682 77.7033 118.668 77.7172C118.635 77.7501 118.6 77.7839 118.567 77.8127C118.536 77.8394 118.494 77.8721 118.448 77.8929C118.405 77.9122 118.301 77.9446 118.207 77.8683C118.135 77.8095 118.121 77.723 118.117 77.6769C118.015 76.899 118.566 76.2944 119.043 75.8838C119.413 75.4438 119.866 75.1033 120.326 74.7997C121.644 73.7301 123.059 72.7914 124.515 71.9312L124.517 71.93C124.662 71.8468 124.808 71.7625 124.954 71.6779C125.939 71.1078 126.948 70.5231 128.051 70.1563L128.227 70.0975ZM124.697 72.2418C123.249 73.0971 121.848 74.0274 120.546 75.0848L120.539 75.0904L120.531 75.0953C120.075 75.3963 119.649 75.7183 119.31 76.1258L119.3 76.1376L119.289 76.1475C118.872 76.5044 118.506 76.9238 118.468 77.4082C118.519 77.3571 118.577 77.2995 118.635 77.2504C118.699 77.1959 118.791 77.1264 118.895 77.1006C119.341 76.8531 119.869 76.7641 120.371 76.8546C120.664 76.5601 120.99 76.3115 121.315 76.0769C121.4 76.0151 121.485 75.9545 121.57 75.8944C121.837 75.7049 122.097 75.5198 122.344 75.3154L122.348 75.3125L122.351 75.3098C123.769 74.2516 125.293 73.3444 126.838 72.5019L126.84 72.5008L126.842 72.4998C126.859 72.4911 126.875 72.4824 126.892 72.4738C127.362 72.2329 127.845 71.9851 128.355 71.7966L127.988 70.5586C126.992 70.9147 126.07 71.4482 125.137 71.988C124.991 72.0727 124.844 72.1575 124.697 72.2418ZM118.477 77.6531C118.477 77.6532 118.476 77.6517 118.476 77.6482C118.477 77.6512 118.477 77.653 118.477 77.6531Z" fill="black"/>
<path fill-rule="evenodd" clip-rule="evenodd" d="M122.062 73.5428C122.192 73.5428 122.297 73.6478 122.297 73.7772V75.6109C122.297 75.7404 122.192 75.8453 122.062 75.8453C121.933 75.8453 121.828 75.7404 121.828 75.6109V73.7772C121.828 73.6478 121.933 73.5428 122.062 73.5428Z" fill="black"/>
<path fill-rule="evenodd" clip-rule="evenodd" d="M123.195 72.7433C123.325 72.7433 123.43 72.8482 123.43 72.9777V74.7977C123.43 74.9271 123.325 75.0321 123.195 75.0321C123.066 75.0321 122.961 74.9271 122.961 74.7977V72.9777C122.961 72.8482 123.066 72.7433 123.195 72.7433Z" fill="black"/>
<path fill-rule="evenodd" clip-rule="evenodd" d="M124.328 72.0375C124.458 72.0375 124.562 72.1424 124.562 72.2719V74.0803C124.562 74.2098 124.458 74.3147 124.328 74.3147C124.199 74.3147 124.094 74.2098 124.094 74.0803V72.2719C124.094 72.1424 124.199 72.0375 124.328 72.0375Z" fill="black"/>
<path fill-rule="evenodd" clip-rule="evenodd" d="M125.461 71.3408C125.59 71.3408 125.695 71.4458 125.695 71.5752V73.4414C125.695 73.5709 125.59 73.6758 125.461 73.6758C125.331 73.6758 125.227 73.5709 125.227 73.4414V71.5752C125.227 71.4458 125.331 71.3408 125.461 71.3408Z" fill="black"/>
<path d="M111.98 70.3857C111.795 70.9033 111.609 71.4209 111.424 71.9385C114.019 72.923 116.49 74.2254 118.829 75.7168C119.622 76.2562 120.454 76.7791 121.077 77.5195C121.214 77.8997 120.836 78.2175 120.461 78.1027C120.118 77.9861 119.78 77.8534 119.418 78.1008C118.899 78.3366 118.43 79.1047 119.218 79.3623C120.303 80.0911 122.069 79.7744 122.59 78.4973C122.863 77.8404 122.88 76.9995 122.353 76.4608C121.386 75.3527 120.104 74.582 118.874 73.8021C116.676 72.4801 114.386 71.283 111.98 70.3857Z" fill="#FDD406"/>
<path fill-rule="evenodd" clip-rule="evenodd" d="M111.872 70.1533L112.043 70.217C114.463 71.1194 116.762 72.3223 118.966 73.6478L118.968 73.6489L118.97 73.65C119.06 73.7073 119.151 73.7646 119.242 73.8221C120.382 74.542 121.57 75.292 122.484 76.3386C123.08 76.9502 123.042 77.8768 122.756 78.5658C122.469 79.2693 121.842 79.6995 121.155 79.8573C120.478 80.0131 119.723 79.9094 119.138 79.5252C118.924 79.4507 118.768 79.3332 118.684 79.1732C118.597 79.0069 118.604 78.8265 118.657 78.667C118.757 78.3626 119.037 78.081 119.329 77.9434C119.747 77.6662 120.149 77.8047 120.463 77.913C120.481 77.9192 120.498 77.9253 120.516 77.9312C120.641 77.9686 120.762 77.9336 120.84 77.8633C120.908 77.8012 120.943 77.7125 120.916 77.6083C120.381 76.9823 119.691 76.5162 118.986 76.0407C118.901 75.983 118.815 75.9252 118.73 75.867C116.4 74.3815 113.941 73.0858 111.36 72.1067L111.194 72.044L111.872 70.1533ZM112.088 70.6185L111.652 71.8332C114.201 72.8152 116.628 74.0999 118.925 75.5649L118.928 75.5664L118.93 75.5679C119.015 75.626 119.101 75.6841 119.188 75.7427C119.898 76.2209 120.642 76.7228 121.214 77.4036L121.235 77.4282L121.246 77.4584C121.341 77.7224 121.256 77.9723 121.082 78.13C120.911 78.2845 120.657 78.351 120.408 78.2747L120.405 78.2739L120.403 78.273C120.396 78.2706 120.388 78.2681 120.381 78.2656C120.031 78.1466 119.789 78.0645 119.519 78.2494L119.506 78.2581L119.492 78.2646C119.27 78.3654 119.064 78.5815 118.999 78.7796C118.967 78.8738 118.973 78.9484 119.003 79.0059C119.033 79.0638 119.106 79.1362 119.274 79.1911L119.297 79.1989L119.318 79.2128C119.815 79.5463 120.475 79.6444 121.075 79.5065C121.673 79.369 122.189 79.0025 122.423 78.4292L122.424 78.4283C122.682 77.805 122.68 77.0525 122.224 76.5867L122.22 76.583L122.216 76.5791C121.338 75.5721 120.192 74.8482 119.041 74.1213C118.954 74.066 118.866 74.0107 118.779 73.9552C116.639 72.6686 114.417 71.503 112.088 70.6185Z" fill="black"/>
<path d="M119.086 74.0791L118.939 75.6445L119.086 74.0791Z" fill="#FDD406"/>
<path fill-rule="evenodd" clip-rule="evenodd" d="M119.108 73.8458C119.237 73.8578 119.331 73.9721 119.319 74.1009L119.173 75.6663C119.161 75.7952 119.047 75.8899 118.918 75.8779C118.789 75.8658 118.694 75.7515 118.706 75.6227L118.853 74.0573C118.865 73.9284 118.979 73.8337 119.108 73.8458Z" fill="black"/>
<path d="M120.389 74.8778L119.985 76.4105L120.389 74.8778Z" fill="#FDD406"/>
<path fill-rule="evenodd" clip-rule="evenodd" d="M120.449 74.6511C120.574 74.6841 120.649 74.8123 120.616 74.9375L120.212 76.4702C120.179 76.5953 120.051 76.67 119.926 76.637C119.8 76.604 119.726 76.4758 119.759 76.3507L120.163 74.818C120.196 74.6928 120.324 74.6181 120.449 74.6511Z" fill="black"/>
<path d="M121.783 75.943L120.936 77.1324L121.783 75.943Z" fill="#FDD406"/>
<path fill-rule="evenodd" clip-rule="evenodd" d="M121.92 75.7522C122.025 75.8273 122.049 75.9737 121.974 76.0791L121.126 77.2684C121.051 77.3738 120.905 77.3984 120.8 77.3232C120.694 77.2481 120.67 77.1017 120.745 76.9963L121.593 75.807C121.668 75.7016 121.814 75.677 121.92 75.7522Z" fill="black"/>
<path d="M122.21 78.8348L120.986 78.1783L122.21 78.8348Z" fill="#FDD406"/>
<path fill-rule="evenodd" clip-rule="evenodd" d="M120.78 78.0675C120.841 77.9534 120.983 77.9105 121.097 77.9717L122.321 78.6282C122.435 78.6894 122.478 78.8315 122.416 78.9455C122.355 79.0596 122.213 79.1025 122.099 79.0413L120.876 78.3848C120.762 78.3236 120.719 78.1815 120.78 78.0675Z" fill="black"/>
<path d="M122.591 77.5449L121.187 77.6764L122.591 77.5449Z" fill="#FDD406"/>
<path fill-rule="evenodd" clip-rule="evenodd" d="M122.824 77.5231C122.836 77.652 122.741 77.7662 122.612 77.7783L121.208 77.9097C121.08 77.9218 120.965 77.8271 120.953 77.6982C120.941 77.5694 121.036 77.4551 121.165 77.443L122.569 77.3116C122.698 77.2995 122.812 77.3942 122.824 77.5231Z" fill="black"/>
<path d="M120.781 79.5772L120.685 78.3433L120.781 79.5772Z" fill="#FDD406"/>
<path fill-rule="evenodd" clip-rule="evenodd" d="M120.666 78.1096C120.795 78.0996 120.908 78.196 120.918 78.3251L121.014 79.559C121.024 79.688 120.928 79.8008 120.799 79.8108C120.67 79.8209 120.557 79.7244 120.547 79.5954L120.451 78.3615C120.441 78.2324 120.537 78.1197 120.666 78.1096Z" fill="black"/>
<path d="M120.267 78.1667L119.107 79.0209L120.267 78.1667Z" fill="#FDD406"/>
<path fill-rule="evenodd" clip-rule="evenodd" d="M120.455 78.0277C120.532 78.1319 120.51 78.2787 120.406 78.3554L119.246 79.2096C119.142 79.2864 118.996 79.2642 118.919 79.16C118.842 79.0557 118.864 78.909 118.968 78.8322L120.128 77.9781C120.232 77.9013 120.379 77.9235 120.455 78.0277Z" fill="black"/>
<path fill-rule="evenodd" clip-rule="evenodd" d="M114.692 71.4548C114.822 71.4548 114.927 71.5598 114.927 71.6892V73.1494C114.927 73.2788 114.822 73.3838 114.692 73.3838C114.563 73.3838 114.458 73.2788 114.458 73.1494V71.6892C114.458 71.5598 114.563 71.4548 114.692 71.4548Z" fill="black"/>
<path fill-rule="evenodd" clip-rule="evenodd" d="M117.639 73.005C117.768 73.005 117.873 73.1099 117.873 73.2394V74.896C117.873 75.0255 117.768 75.1304 117.639 75.1304C117.509 75.1304 117.404 75.0255 117.404 74.896V73.2394C117.404 73.1099 117.509 73.005 117.639 73.005Z" fill="black"/>
<path fill-rule="evenodd" clip-rule="evenodd" d="M116.166 72.2312C116.295 72.2312 116.4 72.3361 116.4 72.4656V74.0213C116.4 74.1508 116.295 74.2557 116.166 74.2557C116.037 74.2557 115.932 74.1508 115.932 74.0213V72.4656C115.932 72.3361 116.037 72.2312 116.166 72.2312Z" fill="black"/>
<path d="M110.522 106.67V110.435H112.881V108.545H116.089V110.435H118.623V106.67H110.522ZM110.522 111.855V115.635H118.623V111.855H116.089V113.745H112.881V111.855H110.522Z" fill="#FDD406"/>
<path fill-rule="evenodd" clip-rule="evenodd" d="M110.288 106.436H118.857V110.669H115.854V108.779H113.115V110.669H110.288V106.436ZM110.757 106.904V110.2H112.646V108.311H116.323V110.2H118.389V106.904H110.757ZM110.288 111.621H113.115V113.511H115.854V111.621H118.857V115.869H110.288V111.621ZM110.757 112.09V115.4H118.389V112.09H116.323V113.979H112.646V112.09H110.757Z" fill="black"/>
<path d="M120.957 90.7742H118.618V118.016H120.957V90.7742Z" fill="#FDD406"/>
<path fill-rule="evenodd" clip-rule="evenodd" d="M118.384 90.5398H121.192V118.25H118.384V90.5398ZM118.853 91.0085V117.781H120.723V91.0085H118.853Z" fill="black"/>
<path d="M120.957 93.1307H118.618V116.597H120.957V93.1307Z" fill="#FDD406"/>
<path fill-rule="evenodd" clip-rule="evenodd" d="M118.384 92.8964H121.192V116.831H118.384V92.8964ZM118.853 93.3651V116.362H120.723V93.3651H118.853Z" fill="black"/>
<path d="M119.787 84.0967L124.768 86.9971L119.787 89.8828L114.807 86.9971L119.787 84.0967ZM113.122 85.957H111.818V88.0371H113.122L119.787 91.9043L126.452 88.0371H127.756V85.957H126.452L119.787 82.0898L113.122 85.957Z" fill="#FDD406"/>
<path fill-rule="evenodd" clip-rule="evenodd" d="M119.788 81.8124L126.517 85.717H127.997V88.2771H126.517L119.788 92.1818L113.058 88.2771H111.579V85.717H113.058L119.788 81.8124ZM119.788 82.3673L113.187 86.197H112.059V87.7971H113.187L119.788 91.6268L126.388 87.7971H127.517V86.197H126.388L119.788 82.3673ZM119.788 83.819L125.246 86.9976L119.788 90.1602L114.33 86.9976L119.788 83.819ZM115.285 86.9966L119.788 89.6054L124.291 86.9966L119.788 84.3744L115.285 86.9966Z" fill="black"/>
<path d="M119.693 77.0067C118.559 77.1657 117.712 78.2865 117.774 79.4134C117.778 81.1654 117.765 82.9179 117.78 84.6697C117.84 85.7986 118.827 86.8101 119.971 86.8204C120.902 86.9086 121.837 86.3646 122.227 85.5175C121.958 85.3563 121.69 85.1952 121.421 85.0341C121.213 85.589 120.613 85.933 120.03 85.869C119.263 85.8906 118.642 85.1453 118.711 84.3999C118.716 82.6592 118.702 80.918 118.718 79.1777C118.76 78.4675 119.438 77.8864 120.147 77.9589C120.44 77.8746 120.844 78.2763 121.026 77.9297C121.299 77.5409 120.831 77.2372 120.571 77.0215C120.284 76.9821 119.984 77.0178 119.693 77.0067ZM122.403 78.8378C122.217 79.1874 121.832 79.3952 121.524 79.5786V83.1005C121.836 83.2812 122.149 83.4618 122.461 83.6425C122.457 82.1407 122.468 80.6387 122.456 79.1371C122.441 79.0446 122.452 78.9035 122.403 78.8378Z" fill="#FDD406"/>
<path fill-rule="evenodd" clip-rule="evenodd" d="M120.129 76.7636C120.278 76.7609 120.441 76.7614 120.604 76.7838L120.672 76.7931L120.724 76.8369C120.745 76.8535 120.768 76.8725 120.795 76.8936C120.911 76.9861 121.078 77.1185 121.189 77.2654C121.262 77.3612 121.329 77.483 121.345 77.6281C121.361 77.7751 121.322 77.92 121.23 78.0553C121.154 78.1919 121.039 78.2786 120.896 78.3047C120.769 78.3279 120.646 78.2977 120.561 78.2732C120.525 78.2626 120.487 78.2504 120.454 78.2396C120.446 78.2371 120.439 78.2347 120.432 78.2324C120.391 78.2192 120.357 78.2085 120.324 78.2004C120.256 78.1834 120.225 78.186 120.213 78.1896L120.168 78.2024L120.122 78.1977C119.552 78.1393 118.995 78.6138 118.958 79.1863C118.948 80.2561 118.95 81.3245 118.951 82.3943C118.952 83.0622 118.953 83.7308 118.951 84.4006L118.951 84.4113L118.95 84.422C118.893 85.0407 119.416 85.6462 120.023 85.6291L120.039 85.6287L120.055 85.6305C120.537 85.6832 121.029 85.3957 121.196 84.9499L121.297 84.6801L122.535 85.4224L122.445 85.6179C122.013 86.5537 120.988 87.1533 119.959 87.0603C118.683 87.0429 117.607 85.9259 117.54 84.6825L117.54 84.6771L117.54 84.6718C117.531 83.5811 117.532 82.4884 117.533 81.3971C117.534 80.7374 117.535 80.0781 117.533 79.4201C117.469 78.1811 118.394 76.9465 119.659 76.7691L119.68 76.7661L119.702 76.7669C119.805 76.7709 119.908 76.7685 120.019 76.7659C120.055 76.7651 120.091 76.7642 120.129 76.7636ZM119.706 77.2474C118.715 77.3981 117.958 78.3944 118.013 79.4002L118.013 79.4065L118.013 79.4128C118.015 80.0768 118.014 80.7396 118.013 81.4019C118.012 82.4891 118.011 83.5749 118.02 84.6621C118.077 85.6711 118.966 86.5713 119.973 86.5804L119.984 86.5805L119.994 86.5815C120.75 86.6532 121.516 86.2523 121.908 85.6062L121.52 85.3735C121.208 85.8776 120.607 86.1672 120.02 86.1093C119.105 86.1244 118.398 85.2522 118.471 84.3891C118.473 83.727 118.472 83.0635 118.471 82.3994C118.47 81.325 118.468 80.2492 118.478 79.1755L118.478 79.1695L118.478 79.1635C118.528 78.3318 119.299 77.6558 120.13 77.7166C120.246 77.695 120.356 77.7138 120.44 77.7346C120.49 77.747 120.538 77.7622 120.58 77.7757C120.589 77.7787 120.598 77.7816 120.606 77.7844C120.639 77.7949 120.667 77.8041 120.695 77.8122C120.759 77.8308 120.79 77.8337 120.804 77.8331C120.806 77.8301 120.809 77.8254 120.813 77.8184L120.82 77.8044L120.829 77.7916C120.868 77.736 120.87 77.7016 120.868 77.6801C120.865 77.6522 120.85 77.6117 120.807 77.556C120.736 77.4618 120.634 77.3803 120.522 77.2903C120.506 77.2777 120.49 77.2649 120.474 77.2519C120.368 77.2419 120.258 77.2413 120.137 77.2435C120.106 77.244 120.074 77.2448 120.04 77.2456C119.933 77.2481 119.818 77.2508 119.706 77.2474ZM122.367 78.392L122.594 78.6936C122.664 78.7866 122.676 78.9029 122.681 78.9546C122.683 78.98 122.685 79.0071 122.686 79.0288C122.687 79.0345 122.687 79.0398 122.687 79.0446C122.689 79.0717 122.691 79.0881 122.692 79.0992L122.695 79.117L122.695 79.1351C122.703 80.0614 122.702 80.9896 122.701 81.9165C122.7 82.4924 122.7 83.0678 122.701 83.6419L122.702 84.0591L121.283 83.239V79.442L121.401 79.3723C121.424 79.3583 121.448 79.3445 121.471 79.3307C121.608 79.2502 121.741 79.1714 121.865 79.0787C122.008 78.9714 122.12 78.8572 122.19 78.7252L122.367 78.392ZM122.218 79.4124C122.223 80.2458 122.222 81.0782 122.221 81.9118C122.22 82.3495 122.22 82.7875 122.22 83.2261L121.763 82.962V79.7157C121.887 79.6428 122.025 79.5589 122.153 79.4625C122.175 79.4463 122.196 79.4296 122.218 79.4124Z" fill="black"/>
<path d="M126.624 17.9771H112.876V42.9401H126.624V17.9771Z" fill="black"/>
<path d="M111.914 17.9883V38.877H116.279V32.6807C116.279 31.2515 117.195 29.2676 120 29.2676C122.805 29.2676 123.721 31.2515 123.721 32.6807V38.877H128.086V17.9883H111.914ZM119.326 20.332H120.674V27.4805H119.326V20.332ZM115.459 21.7383H116.821V26.9678H115.459V21.7383ZM123.179 21.7383H124.541V26.9678H123.179V21.7383Z" fill="#D91C16"/>
<path fill-rule="evenodd" clip-rule="evenodd" d="M111.68 17.7539H128.32V39.1113H123.486V32.6807C123.486 32.0111 123.271 31.2154 122.735 30.5909C122.204 29.9735 121.342 29.502 120 29.502C118.658 29.502 117.796 29.9735 117.265 30.5909C116.729 31.2154 116.514 32.0111 116.514 32.6807V39.1113H111.68V17.7539ZM112.148 18.2227V38.6426H116.045V32.6807C116.045 31.921 116.287 31.0102 116.91 30.2855C117.538 29.5536 118.536 29.0332 120 29.0332C121.464 29.0332 122.462 29.5536 123.09 30.2855C123.713 31.0102 123.955 31.921 123.955 32.6807V38.6426H127.852V18.2227H112.148ZM119.092 20.0977H120.908V27.7148H119.092V20.0977ZM119.561 20.5664V27.2461H120.439V20.5664H119.561ZM115.225 21.5039H117.056V27.2021H115.225V21.5039ZM115.693 21.9727V26.7334H116.587V21.9727H115.693ZM122.944 21.5039H124.775V27.2021H122.944V21.5039ZM123.413 21.9727V26.7334H124.307V21.9727H123.413Z" fill="black"/>
<path d="M110.435 14.9854V17.959H129.565V14.9854H110.435Z" fill="#D91C16"/>
<path fill-rule="evenodd" clip-rule="evenodd" d="M110.2 14.751H129.8V18.1934H110.2V14.751ZM110.669 15.2197V17.7246H129.331V15.2197H110.669Z" fill="black"/>
<path d="M108.633 11.5283V14.9854H131.367V11.5283H128.511V13.4326H125.288V11.5283H121.611V13.4326H118.389V11.5283H114.712V13.4326H111.489V11.5283H108.633Z" fill="#D91C16"/>
<path fill-rule="evenodd" clip-rule="evenodd" d="M108.398 11.2939H111.724V13.1982H114.478V11.2939H118.623V13.1982H121.377V11.2939H125.522V13.1982H128.276V11.2939H131.602V15.2197H108.398V11.2939ZM108.867 11.7627V14.751H131.133V11.7627H128.745V13.667H125.054V11.7627H121.846V13.667H118.154V11.7627H114.946V13.667H111.255V11.7627H108.867Z" fill="black"/>
<path d="M104.414 45.8643V48.0176H135.586V45.8643H104.414Z" fill="#D91C16"/>
<path fill-rule="evenodd" clip-rule="evenodd" d="M104.18 45.6299H135.82V48.252H104.18V45.6299ZM104.648 46.0986V47.7832H135.352V46.0986H104.648Z" fill="black"/>
<path d="M103.14 38.8623V45.8643H136.86V38.8623H133.667V41.5576H129.419V38.8623H123.721V41.5576H116.279V38.8623H110.581V41.5576H106.333V38.8623H103.14Z" fill="#D91C16"/>
<path fill-rule="evenodd" clip-rule="evenodd" d="M102.905 38.6279H106.567V41.3232H110.347V38.6279H116.514V41.3232H123.486V38.6279H129.653V41.3232H133.433V38.6279H137.095V46.0986H102.905V38.6279ZM103.374 39.0967V45.6299H136.626V39.0967H133.901V41.792H129.185V39.0967H123.955V41.792H116.045V39.0967H110.815V41.792H106.099V39.0967H103.374Z" fill="black"/>
<path d="M107.197 48.0176V73.4912H113.218V63.9551C113.218 59.4632 116.216 57.3486 120 57.3486C123.637 57.3486 126.782 59.4632 126.782 63.9551V73.4912H132.803V48.0176H107.197Z" fill="#D91C16"/>
<path fill-rule="evenodd" clip-rule="evenodd" d="M106.963 48.0176C106.963 47.8881 107.068 47.7832 107.197 47.7832H132.803C132.932 47.7832 133.037 47.8881 133.037 48.0176V73.4912C133.037 73.6207 132.932 73.7256 132.803 73.7256H126.782C126.653 73.7256 126.548 73.6207 126.548 73.4912V63.9551C126.548 61.768 125.785 60.1838 124.6 59.1435C123.411 58.0991 121.775 57.583 120 57.583C118.15 57.583 116.515 58.1 115.346 59.1423C114.181 60.1809 113.452 61.7645 113.452 63.9551V73.4912C113.452 73.6207 113.347 73.7256 113.218 73.7256H107.197C107.068 73.7256 106.963 73.6207 106.963 73.4912V48.0176ZM107.432 48.252V73.2568H112.983V63.9551C112.983 61.6537 113.754 59.9341 115.034 58.7925C116.31 57.6546 118.067 57.1143 120 57.1143C121.862 57.1143 123.617 57.6555 124.91 58.7913C126.207 59.9313 127.017 61.6502 127.017 63.9551V73.2568H132.568V48.252H107.432Z" fill="black"/>
</g>
<defs>
<clipPath id="clip0_504_392">
<rect width="240" height="120" fill="white"/>
</clipPath>
</defs>
</svg>
