<svg width="240" height="120" viewBox="0 0 240 120" fill="none" xmlns="http://www.w3.org/2000/svg">
<g clip-path="url(#clip0_909_305211)">
<path d="M240 0H0V120H240V0Z" fill="#D91C16"/>
<path d="M240 0H0V80.3906H240V0Z" fill="white"/>
<path d="M122.143 54.5171H92.1427V75.1387H122.143V54.5171Z" fill="black"/>
<path d="M107.728 72.124H89.4141L85.3546 74.7958V77.6269H107.728" fill="#D91C16"/>
<path fill-rule="evenodd" clip-rule="evenodd" d="M89.3438 71.8896H107.962V72.3584H89.4843L85.589 74.9221V77.3925H107.962V77.8613H85.1203V74.6695L89.3438 71.8896Z" fill="black"/>
<path d="M100.063 60.2783C102.7 60.2783 104.854 62.4764 104.854 65.1855V72.1143H108.296V45.8643H89.4141V72.1143H95.2734V65.1855C95.2734 62.5822 97.3898 60.2783 100.063 60.2783Z" fill="#D91C16"/>
<path fill-rule="evenodd" clip-rule="evenodd" d="M89.1797 45.6299H108.53V72.3486H104.619V65.1855C104.619 62.6007 102.566 60.5127 100.063 60.5127C97.5287 60.5127 95.5078 62.702 95.5078 65.1855V72.3486H89.1797V45.6299ZM89.6484 46.0986V71.8799H95.0391V65.1855C95.0391 62.4624 97.2509 60.0439 100.063 60.0439C102.835 60.0439 105.088 62.3521 105.088 65.1855V71.8799H108.062V46.0986H89.6484Z" fill="black"/>
<path d="M104.555 28.1069H95.8726V44.0254H104.555V28.1069Z" fill="black"/>
<path d="M104.531 41.5576H96.9333V38.8623H91.3623V41.5576H87.583V38.8623H85.3271V43.7549H104.531M87.583 43.7372H103.975V45.8643H87.583V43.7372Z" fill="#D91C16"/>
<path fill-rule="evenodd" clip-rule="evenodd" d="M85.0928 38.6279H87.8174V41.3232H91.1279V38.6279H97.1677V41.3232H104.766V41.792H96.6989V39.0967H91.5967V41.792H87.3486V39.0967H85.5615V43.5205H87.3486V43.5028H104.21V43.5205H104.766V43.9893H104.21V46.0986H87.3486V43.9893H85.0928V38.6279ZM87.8174 43.9893V45.6299H103.741V43.9893H87.8174Z" fill="black"/>
<path d="M94.0869 22.3242V38.8623H96.9333V34.3213C96.9333 32.6201 98.1343 31.2278 99.8145 31.1426C99.8686 31.1398 99.9207 31.1426 99.9756 31.1426C101.732 31.1426 103.154 32.5652 103.154 34.3213V38.8623H105.864V22.3242H94.0869Z" fill="#D91C16"/>
<path fill-rule="evenodd" clip-rule="evenodd" d="M93.8525 22.0898H106.099V39.0967H102.92V34.3213C102.92 32.6946 101.602 31.377 99.9756 31.377C99.9474 31.377 99.9257 31.3765 99.9068 31.3762C99.8775 31.3756 99.8551 31.3752 99.8263 31.3767C98.284 31.4549 97.1677 32.7313 97.1677 34.3213V39.0967H93.8525V22.0898ZM94.3213 22.5586V38.6279H96.6989V34.3213C96.6989 32.5088 97.9846 31.0008 99.8026 30.9085C99.8466 30.9063 99.8973 30.9071 99.9364 30.9077C99.9516 30.908 99.965 30.9082 99.9756 30.9082C101.861 30.9082 103.389 32.4357 103.389 34.3213V38.6279H105.63V22.5586H94.3213Z" fill="black"/>
<path d="M93.0615 20.083V22.3242H106.772V20.083H93.0615Z" fill="#D91C16"/>
<path fill-rule="evenodd" clip-rule="evenodd" d="M92.8271 19.8486H107.007V22.5586H92.8271V19.8486ZM93.2959 20.3174V22.0898H106.538V20.3174H93.2959Z" fill="black"/>
<path d="M91.3037 15.791V20.083H107.754V15.791H105.22V17.9736H102.158V15.791H97.4854V17.9736H94.4238V15.791H91.3037Z" fill="#D91C16"/>
<path fill-rule="evenodd" clip-rule="evenodd" d="M91.0693 15.5566H94.6582V17.7393H97.251V15.5566H102.393V17.7393H104.985V15.5566H107.988V20.3174H91.0693V15.5566ZM91.5381 16.0254V19.8486H107.52V16.0254H105.454V18.208H101.924V16.0254H97.7197V18.208H94.1895V16.0254H91.5381Z" fill="black"/>
<path fill-rule="evenodd" clip-rule="evenodd" d="M85.1203 74.5615H108.047V75.0303H85.1203V74.5615Z" fill="black"/>
<path d="M122.344 73.5059H107.139L102.554 75.7178V79.0137H122.344" fill="#D91C16"/>
<path fill-rule="evenodd" clip-rule="evenodd" d="M107.085 73.2715H122.578V73.7402H107.192L102.788 75.8649V78.7793H122.578V79.248H102.319V75.5706L107.085 73.2715Z" fill="black"/>
<path fill-rule="evenodd" clip-rule="evenodd" d="M122.812 75.9463H102.549V75.4775H122.812V75.9463Z" fill="black"/>
<path d="M117.857 54.5171H147.857V75.1387H117.857V54.5171Z" fill="black"/>
<path d="M132.272 72.124H150.586L154.645 74.7958V77.6269H132.272" fill="#D91C16"/>
<path fill-rule="evenodd" clip-rule="evenodd" d="M150.656 71.8896H132.038V72.3584H150.516L154.411 74.9221V77.3925H132.038V77.8613H154.88V74.6695L150.656 71.8896Z" fill="black"/>
<path d="M139.937 60.2783C137.3 60.2783 135.146 62.4764 135.146 65.1855V72.1143H131.704V45.8643H150.586V72.1143H144.727V65.1855C144.727 62.5822 142.61 60.2783 139.937 60.2783Z" fill="#D91C16"/>
<path fill-rule="evenodd" clip-rule="evenodd" d="M150.82 45.6299H131.47V72.3486H135.381V65.1855C135.381 62.6007 137.434 60.5127 139.937 60.5127C142.471 60.5127 144.492 62.702 144.492 65.1855V72.3486H150.82V45.6299ZM150.352 46.0986V71.8799H144.961V65.1855C144.961 62.4624 142.749 60.0439 139.937 60.0439C137.165 60.0439 134.912 62.3521 134.912 65.1855V71.8799H131.938V46.0986H150.352Z" fill="black"/>
<path d="M135.445 28.1069H144.127V44.0254H135.445V28.1069Z" fill="black"/>
<path d="M135.469 41.5576H143.067V38.8623H148.638V41.5576H152.417V38.8623H154.673V43.7549H135.469M152.417 43.7372H136.025V45.8643H152.417V43.7372Z" fill="#D91C16"/>
<path fill-rule="evenodd" clip-rule="evenodd" d="M154.907 38.6279H152.183V41.3232H148.872V38.6279H142.832V41.3232H135.234V41.792H143.301V39.0967H148.403V41.792H152.651V39.0967H154.438V43.5205H152.651V43.5028H135.79V43.5205H135.234V43.9893H135.79V46.0986H152.651V43.9893H154.907V38.6279ZM152.183 43.9893V45.6299H136.259V43.9893H152.183Z" fill="black"/>
<path d="M145.913 22.3242V38.8623H143.067V34.3213C143.067 32.6201 141.866 31.2278 140.186 31.1426C140.131 31.1398 140.079 31.1426 140.024 31.1426C138.268 31.1426 136.846 32.5652 136.846 34.3213V38.8623H134.136V22.3242H145.913Z" fill="#D91C16"/>
<path fill-rule="evenodd" clip-rule="evenodd" d="M146.147 22.0898H133.901V39.0967H137.08V34.3213C137.08 32.6946 138.398 31.377 140.024 31.377C140.053 31.377 140.074 31.3765 140.093 31.3762C140.123 31.3756 140.145 31.3752 140.174 31.3767C141.716 31.4549 142.832 32.7313 142.832 34.3213V39.0967H146.147V22.0898ZM145.679 22.5586V38.6279H143.301V34.3213C143.301 32.5088 142.015 31.0008 140.197 30.9085C140.153 30.9063 140.103 30.9071 140.064 30.9077C140.048 30.908 140.035 30.9082 140.024 30.9082C138.139 30.9082 136.611 32.4357 136.611 34.3213V38.6279H134.37V22.5586H145.679Z" fill="black"/>
<path d="M146.938 20.083V22.3242H133.228V20.083H146.938Z" fill="#D91C16"/>
<path fill-rule="evenodd" clip-rule="evenodd" d="M147.173 19.8486H132.993V22.5586H147.173V19.8486ZM146.704 20.3174V22.0898H133.462V20.3174H146.704Z" fill="black"/>
<path d="M148.696 15.791V20.083H132.246V15.791H134.78V17.9736H137.842V15.791H142.515V17.9736H145.576V15.791H148.696Z" fill="#D91C16"/>
<path fill-rule="evenodd" clip-rule="evenodd" d="M148.931 15.5566H145.342V17.7393H142.749V15.5566H137.607V17.7393H135.015V15.5566H132.012V20.3174H148.931V15.5566ZM148.462 16.0254V19.8486H132.48V16.0254H134.546V18.208H138.076V16.0254H142.28V18.208H145.811V16.0254H148.462Z" fill="black"/>
<path fill-rule="evenodd" clip-rule="evenodd" d="M154.88 74.5615H131.953V75.0303H154.88V74.5615Z" fill="black"/>
<path d="M117.656 73.5059H132.861L137.446 75.7178V79.0137H117.656" fill="#D91C16"/>
<path fill-rule="evenodd" clip-rule="evenodd" d="M132.915 73.2715H117.422V73.7402H132.808L137.212 75.8649V78.7793H117.422V79.248H137.681V75.5706L132.915 73.2715Z" fill="black"/>
<path fill-rule="evenodd" clip-rule="evenodd" d="M117.188 75.9463H137.451V75.4775H117.188V75.9463Z" fill="black"/>
<path d="M128.108 70.3271C126.864 70.7412 125.739 71.4376 124.607 72.0863C123.154 72.9449 121.744 73.8803 120.433 74.9451C119.971 75.2494 119.529 75.5829 119.172 76.0107C118.692 76.4221 118.205 76.9739 118.296 77.6574C118.321 77.9589 118.706 77.3034 118.959 77.2717C119.401 77.0181 119.936 76.9363 120.432 77.0508C121.028 76.4233 121.796 76.0028 122.459 75.4542C123.868 74.4031 125.383 73.5005 126.924 72.66C127.462 72.3842 128.003 72.1042 128.577 71.9092C128.42 71.3818 128.264 70.8545 128.108 70.3271Z" fill="#FDD406"/>
<path fill-rule="evenodd" clip-rule="evenodd" d="M128.228 70.0977L128.798 72.0239L128.635 72.0796C128.09 72.2648 127.575 72.529 127.048 72.7988C127.035 72.8056 127.022 72.8124 127.008 72.8192C125.473 73.6568 123.968 74.5535 122.571 75.5958C122.313 75.8083 122.039 76.0031 121.772 76.1934C121.689 76.2522 121.607 76.3106 121.526 76.3689C121.178 76.6197 120.849 76.8737 120.563 77.1748L120.492 77.2493L120.392 77.2262C119.94 77.1221 119.452 77.1966 119.049 77.4278L119.017 77.4458L118.982 77.4503C118.982 77.4503 118.982 77.4503 118.982 77.4503C118.98 77.4507 118.97 77.4534 118.95 77.4652C118.927 77.4783 118.9 77.4981 118.869 77.525C118.817 77.5693 118.765 77.6214 118.71 77.6761C118.696 77.6897 118.683 77.7034 118.669 77.7173C118.636 77.7502 118.601 77.784 118.567 77.8128C118.536 77.8395 118.495 77.8722 118.448 77.8931C118.405 77.9123 118.302 77.9447 118.208 77.8684C118.136 77.8096 118.122 77.7231 118.117 77.677C118.015 76.8992 118.566 76.2946 119.044 75.8839C119.413 75.4439 119.866 75.1035 120.326 74.7998C121.645 73.7302 123.059 72.7915 124.515 71.9314L124.517 71.9301C124.663 71.8469 124.808 71.7626 124.954 71.678C125.939 71.1079 126.949 70.5232 128.051 70.1564L128.228 70.0977ZM124.697 72.2419C123.25 73.0972 121.849 74.0275 120.546 75.0849L120.539 75.0905L120.532 75.0955C120.075 75.3964 119.65 75.7184 119.311 76.126L119.301 76.1377L119.289 76.1476C118.872 76.5045 118.507 76.924 118.469 77.4084C118.52 77.3572 118.578 77.2996 118.636 77.2506C118.7 77.196 118.792 77.1265 118.896 77.1008C119.341 76.8533 119.87 76.7642 120.372 76.8547C120.664 76.5603 120.99 76.3116 121.315 76.077C121.401 76.0152 121.486 75.9547 121.571 75.8945C121.837 75.7051 122.098 75.5199 122.345 75.3155L122.348 75.3126L122.352 75.31C123.77 74.2517 125.293 73.3445 126.838 72.502L126.84 72.5009L126.842 72.4999C126.859 72.4912 126.876 72.4826 126.893 72.4739C127.363 72.233 127.846 71.9852 128.356 71.7967L127.989 70.5587C126.992 70.9148 126.07 71.4483 125.138 71.9881C124.991 72.0728 124.845 72.1576 124.697 72.2419ZM118.477 77.6532C118.477 77.6534 118.477 77.6519 118.476 77.6483C118.477 77.6513 118.477 77.6531 118.477 77.6532Z" fill="black"/>
<path fill-rule="evenodd" clip-rule="evenodd" d="M122.063 73.543C122.192 73.543 122.297 73.6479 122.297 73.7773V75.6111C122.297 75.7405 122.192 75.8454 122.063 75.8454C121.933 75.8454 121.828 75.7405 121.828 75.6111V73.7773C121.828 73.6479 121.933 73.543 122.063 73.543Z" fill="black"/>
<path fill-rule="evenodd" clip-rule="evenodd" d="M123.195 72.7432C123.325 72.7432 123.43 72.8481 123.43 72.9775V74.7976C123.43 74.927 123.325 75.032 123.195 75.032C123.066 75.032 122.961 74.927 122.961 74.7976V72.9775C122.961 72.8481 123.066 72.7432 123.195 72.7432Z" fill="black"/>
<path fill-rule="evenodd" clip-rule="evenodd" d="M124.328 72.0376C124.458 72.0376 124.563 72.1425 124.563 72.272V74.0805C124.563 74.2099 124.458 74.3148 124.328 74.3148C124.199 74.3148 124.094 74.2099 124.094 74.0805V72.272C124.094 72.1425 124.199 72.0376 124.328 72.0376Z" fill="black"/>
<path fill-rule="evenodd" clip-rule="evenodd" d="M125.461 71.3408C125.59 71.3408 125.695 71.4458 125.695 71.5752V73.4414C125.695 73.5709 125.59 73.6758 125.461 73.6758C125.331 73.6758 125.227 73.5709 125.227 73.4414V71.5752C125.227 71.4458 125.331 71.3408 125.461 71.3408Z" fill="black"/>
<path d="M111.98 70.3857C111.795 70.9033 111.609 71.4209 111.424 71.9385C114.019 72.923 116.49 74.2254 118.829 75.7168C119.621 76.2562 120.454 76.7791 121.077 77.5195C121.214 77.8997 120.836 78.2175 120.461 78.1027C120.118 77.9861 119.779 77.8534 119.417 78.1008C118.899 78.3366 118.43 79.1047 119.218 79.3623C120.303 80.0911 122.068 79.7744 122.59 78.4973C122.863 77.8404 122.88 76.9995 122.352 76.4608C121.385 75.3527 120.104 74.582 118.873 73.8021C116.675 72.4801 114.386 71.283 111.98 70.3857Z" fill="#FDD406"/>
<path fill-rule="evenodd" clip-rule="evenodd" d="M111.872 70.1533L112.043 70.217C114.463 71.1194 116.762 72.3223 118.966 73.6478L118.968 73.6489L118.97 73.65C119.06 73.7073 119.151 73.7646 119.242 73.8221C120.382 74.542 121.57 75.292 122.485 76.3386C123.08 76.9502 123.042 77.8768 122.757 78.5658C122.469 79.2693 121.842 79.6995 121.156 79.8573C120.479 80.0131 119.724 79.9094 119.138 79.5252C118.924 79.4507 118.768 79.3332 118.684 79.1732C118.597 79.0069 118.604 78.8265 118.657 78.667C118.757 78.3626 119.037 78.081 119.329 77.9434C119.747 77.6662 120.149 77.8047 120.463 77.913C120.481 77.9192 120.498 77.9253 120.516 77.9312C120.641 77.9686 120.762 77.9336 120.84 77.8633C120.909 77.8012 120.944 77.7125 120.916 77.6083C120.381 76.9823 119.691 76.5162 118.986 76.0407C118.901 75.983 118.815 75.9252 118.73 75.867C116.4 74.3815 113.941 73.0858 111.36 72.1067L111.194 72.044L111.872 70.1533ZM112.088 70.6185L111.652 71.8332C114.201 72.8152 116.628 74.0999 118.926 75.5649L118.928 75.5664L118.93 75.5679C119.015 75.626 119.102 75.6841 119.188 75.7427C119.898 76.2209 120.642 76.7228 121.215 77.4036L121.235 77.4282L121.246 77.4584C121.341 77.7224 121.256 77.9723 121.082 78.13C120.911 78.2845 120.657 78.351 120.408 78.2747L120.406 78.2739L120.403 78.273C120.396 78.2706 120.388 78.2681 120.381 78.2656C120.031 78.1466 119.79 78.0645 119.519 78.2494L119.506 78.2581L119.492 78.2646C119.27 78.3654 119.064 78.5815 118.999 78.7796C118.968 78.8738 118.973 78.9484 119.003 79.0059C119.033 79.0638 119.106 79.1362 119.274 79.1911L119.297 79.1989L119.318 79.2128C119.815 79.5463 120.475 79.6444 121.075 79.5065C121.673 79.369 122.189 79.0025 122.423 78.4292L122.424 78.4283C122.682 77.805 122.68 77.0525 122.224 76.5867L122.22 76.583L122.217 76.5791C121.338 75.5721 120.192 74.8482 119.041 74.1213C118.954 74.066 118.866 74.0107 118.779 73.9552C116.639 72.6686 114.417 71.503 112.088 70.6185Z" fill="black"/>
<path d="M119.086 74.0791L118.939 75.6445L119.086 74.0791Z" fill="#FDD406"/>
<path fill-rule="evenodd" clip-rule="evenodd" d="M119.108 73.8458C119.237 73.8578 119.331 73.9721 119.319 74.1009L119.173 75.6663C119.161 75.7952 119.046 75.8899 118.918 75.8779C118.789 75.8658 118.694 75.7515 118.706 75.6227L118.853 74.0573C118.865 73.9284 118.979 73.8337 119.108 73.8458Z" fill="black"/>
<path d="M120.39 74.8779L119.986 76.4106L120.39 74.8779Z" fill="#FDD406"/>
<path fill-rule="evenodd" clip-rule="evenodd" d="M120.45 74.6514C120.575 74.6844 120.65 74.8126 120.617 74.9377L120.213 76.4704C120.18 76.5956 120.051 76.6703 119.926 76.6373C119.801 76.6043 119.726 76.4761 119.759 76.3509L120.163 74.8182C120.196 74.6931 120.325 74.6184 120.45 74.6514Z" fill="black"/>
<path d="M121.783 75.9429L120.935 77.1322L121.783 75.9429Z" fill="#FDD406"/>
<path fill-rule="evenodd" clip-rule="evenodd" d="M121.919 75.752C122.025 75.8272 122.049 75.9735 121.974 76.0789L121.126 77.2683C121.051 77.3737 120.905 77.3982 120.799 77.3231C120.694 77.248 120.669 77.1016 120.745 76.9962L121.592 75.8068C121.668 75.7014 121.814 75.6769 121.919 75.752Z" fill="black"/>
<path d="M122.21 78.8347L120.987 78.1782L122.21 78.8347Z" fill="#FDD406"/>
<path fill-rule="evenodd" clip-rule="evenodd" d="M120.78 78.0675C120.841 77.9534 120.984 77.9105 121.098 77.9717L122.321 78.6282C122.435 78.6894 122.478 78.8315 122.417 78.9455C122.356 79.0596 122.214 79.1025 122.099 79.0413L120.876 78.3848C120.762 78.3236 120.719 78.1815 120.78 78.0675Z" fill="black"/>
<path d="M122.591 77.5449L121.187 77.6764L122.591 77.5449Z" fill="#FDD406"/>
<path fill-rule="evenodd" clip-rule="evenodd" d="M122.825 77.5231C122.837 77.652 122.742 77.7662 122.613 77.7783L121.209 77.9097C121.08 77.9218 120.966 77.8271 120.954 77.6982C120.942 77.5694 121.036 77.4551 121.165 77.443L122.569 77.3116C122.698 77.2995 122.813 77.3942 122.825 77.5231Z" fill="black"/>
<path d="M120.78 79.5772L120.684 78.3433L120.78 79.5772Z" fill="#FDD406"/>
<path fill-rule="evenodd" clip-rule="evenodd" d="M120.666 78.1096C120.795 78.0996 120.908 78.196 120.918 78.3251L121.014 79.559C121.024 79.688 120.928 79.8008 120.799 79.8108C120.67 79.8209 120.557 79.7244 120.547 79.5954L120.451 78.3615C120.441 78.2324 120.537 78.1197 120.666 78.1096Z" fill="black"/>
<path d="M120.266 78.167L119.107 79.0212L120.266 78.167Z" fill="#FDD406"/>
<path fill-rule="evenodd" clip-rule="evenodd" d="M120.455 78.028C120.532 78.1322 120.51 78.2789 120.405 78.3557L119.246 79.2099C119.142 79.2866 118.995 79.2644 118.918 79.1602C118.842 79.056 118.864 78.9093 118.968 78.8325L120.127 77.9783C120.231 77.9015 120.378 77.9238 120.455 78.028Z" fill="black"/>
<path fill-rule="evenodd" clip-rule="evenodd" d="M114.692 71.4551C114.822 71.4551 114.927 71.56 114.927 71.6895V73.1496C114.927 73.2791 114.822 73.384 114.692 73.384C114.563 73.384 114.458 73.2791 114.458 73.1496V71.6895C114.458 71.56 114.563 71.4551 114.692 71.4551Z" fill="black"/>
<path fill-rule="evenodd" clip-rule="evenodd" d="M117.639 73.0049C117.769 73.0049 117.873 73.1098 117.873 73.2393V74.8959C117.873 75.0253 117.769 75.1303 117.639 75.1303C117.51 75.1303 117.405 75.0253 117.405 74.8959V73.2393C117.405 73.1098 117.51 73.0049 117.639 73.0049Z" fill="black"/>
<path fill-rule="evenodd" clip-rule="evenodd" d="M116.166 72.2314C116.295 72.2314 116.4 72.3364 116.4 72.4658V74.0216C116.4 74.151 116.295 74.2559 116.166 74.2559C116.036 74.2559 115.931 74.151 115.931 74.0216V72.4658C115.931 72.3364 116.036 72.2314 116.166 72.2314Z" fill="black"/>
<path d="M110.522 106.67V110.435H112.881V108.545H116.089V110.435H118.623V106.67H110.522ZM110.522 111.855V115.635H118.623V111.855H116.089V113.745H112.881V111.855H110.522Z" fill="#FDD406"/>
<path fill-rule="evenodd" clip-rule="evenodd" d="M110.288 106.436H118.857V110.669H115.854V108.779H113.115V110.669H110.288V106.436ZM110.757 106.904V110.2H112.646V108.311H116.323V110.2H118.389V106.904H110.757ZM110.288 111.621H113.115V113.511H115.854V111.621H118.857V115.869H110.288V111.621ZM110.757 112.09V115.4H118.389V112.09H116.323V113.979H112.646V112.09H110.757Z" fill="black"/>
<path d="M120.957 90.7744H118.618V118.016H120.957V90.7744Z" fill="#FDD406"/>
<path fill-rule="evenodd" clip-rule="evenodd" d="M118.384 90.54H121.192V118.25H118.384V90.54ZM118.852 91.0088V117.781H120.723V91.0088H118.852Z" fill="black"/>
<path d="M120.957 93.1309H118.618V116.597H120.957V93.1309Z" fill="#FDD406"/>
<path fill-rule="evenodd" clip-rule="evenodd" d="M118.384 92.8965H121.192V116.831H118.384V92.8965ZM118.852 93.3652V116.362H120.723V93.3652H118.852Z" fill="black"/>
<path d="M119.788 84.0967L124.768 86.9971L119.788 89.8828L114.807 86.9971L119.788 84.0967ZM113.123 85.957H111.819V88.0371H113.123L119.788 91.9043L126.453 88.0371H127.756V85.957H126.453L119.788 82.0898L113.123 85.957Z" fill="#FDD406"/>
<path fill-rule="evenodd" clip-rule="evenodd" d="M119.788 81.8125L126.517 85.7172H127.996V88.2772H126.517L119.788 92.1819L113.058 88.2772H111.579V85.7172H113.058L119.788 81.8125ZM119.788 82.3674L113.187 86.1972H112.059V87.7972H113.187L119.788 91.627L126.388 87.7972H127.516V86.1972H126.388L119.788 82.3674ZM119.788 83.8191L125.246 86.9977L119.788 90.1603L114.329 86.9977L119.788 83.8191ZM115.285 86.9967L119.788 89.6056L124.29 86.9967L119.788 84.3745L115.285 86.9967Z" fill="black"/>
<path d="M119.692 77.0067C118.559 77.1657 117.712 78.2865 117.774 79.4134C117.778 81.1654 117.765 82.9179 117.78 84.6697C117.84 85.7986 118.826 86.8101 119.971 86.8204C120.902 86.9086 121.836 86.3646 122.227 85.5175C121.958 85.3563 121.69 85.1952 121.421 85.0341C121.213 85.589 120.613 85.933 120.029 85.869C119.263 85.8906 118.642 85.1453 118.711 84.3999C118.716 82.6592 118.702 80.918 118.718 79.1777C118.76 78.4675 119.437 77.8864 120.147 77.9589C120.44 77.8746 120.844 78.2763 121.025 77.9297C121.299 77.5409 120.831 77.2372 120.571 77.0215C120.284 76.9821 119.983 77.0178 119.692 77.0067ZM122.402 78.8378C122.217 79.1874 121.832 79.3952 121.524 79.5786V83.1005C121.836 83.2812 122.149 83.4618 122.461 83.6425C122.457 82.1407 122.468 80.6387 122.456 79.1371C122.441 79.0446 122.452 78.9035 122.402 78.8378Z" fill="#FDD406"/>
<path fill-rule="evenodd" clip-rule="evenodd" d="M120.129 76.7638C120.278 76.7611 120.441 76.7617 120.604 76.784L120.672 76.7933L120.725 76.8371C120.745 76.8537 120.769 76.8728 120.795 76.8938C120.911 76.9863 121.078 77.1187 121.189 77.2656C121.262 77.3614 121.329 77.4832 121.345 77.6283C121.361 77.7753 121.322 77.9203 121.23 78.0556C121.154 78.1922 121.039 78.2788 120.896 78.305C120.769 78.3282 120.646 78.298 120.561 78.2734C120.525 78.2629 120.487 78.2507 120.454 78.2399C120.447 78.2374 120.439 78.2349 120.432 78.2326C120.391 78.2195 120.357 78.2087 120.324 78.2007C120.256 78.1837 120.225 78.1862 120.213 78.1898L120.168 78.2026L120.122 78.1979C119.552 78.1396 118.995 78.6141 118.958 79.1865C118.948 80.2564 118.95 81.3247 118.951 82.3945C118.952 83.0625 118.953 83.731 118.951 84.4008L118.951 84.4115L118.95 84.4222C118.893 85.041 119.416 85.6464 120.023 85.6294L120.039 85.6289L120.056 85.6307C120.537 85.6835 121.029 85.3959 121.196 84.9501L121.297 84.6803L122.535 85.4227L122.445 85.6182C122.014 86.5539 120.988 87.1535 119.959 87.0605C118.683 87.0431 117.607 85.9261 117.541 84.6827L117.54 84.6774L117.54 84.672C117.531 83.5813 117.532 82.4886 117.533 81.3974C117.534 80.7376 117.535 80.0783 117.534 79.4203C117.469 78.1813 118.394 76.9467 119.659 76.7693L119.68 76.7664L119.702 76.7672C119.805 76.7711 119.908 76.7687 120.019 76.7661C120.055 76.7653 120.091 76.7645 120.129 76.7638ZM119.706 77.2476C118.715 77.3984 117.958 78.3946 118.013 79.4004L118.014 79.4067L118.014 79.413C118.015 80.077 118.014 80.7399 118.013 81.4022C118.012 82.4894 118.011 83.5752 118.02 84.6623C118.077 85.6713 118.966 86.5716 119.973 86.5807L119.984 86.5808L119.994 86.5817C120.751 86.6534 121.516 86.2526 121.908 85.6065L121.52 85.3738C121.208 85.8779 120.607 86.1674 120.02 86.1096C119.105 86.1247 118.398 85.2525 118.471 84.3893C118.473 83.7272 118.472 83.0637 118.471 82.3997C118.47 81.3253 118.468 80.2494 118.478 79.1758L118.478 79.1698L118.478 79.1638C118.528 78.332 119.299 77.6561 120.13 77.7168C120.246 77.6952 120.357 77.7141 120.44 77.7349C120.49 77.7472 120.538 77.7624 120.58 77.7759C120.589 77.7789 120.598 77.7818 120.606 77.7846C120.639 77.7952 120.667 77.8043 120.695 77.8125C120.759 77.831 120.79 77.8339 120.804 77.8334C120.806 77.8303 120.809 77.8256 120.813 77.8186L120.82 77.8047L120.829 77.7918C120.868 77.7363 120.87 77.7018 120.868 77.6804C120.865 77.6524 120.85 77.6119 120.807 77.5563C120.736 77.4621 120.634 77.3805 120.522 77.2906C120.506 77.2779 120.49 77.2651 120.474 77.2521C120.369 77.2422 120.258 77.2416 120.137 77.2437C120.106 77.2443 120.074 77.245 120.041 77.2458C119.933 77.2483 119.818 77.251 119.706 77.2476ZM122.368 78.3922L122.594 78.6939C122.664 78.7869 122.676 78.9032 122.681 78.9548C122.683 78.9803 122.685 79.0073 122.686 79.0291C122.687 79.0347 122.687 79.04 122.687 79.0449C122.689 79.0719 122.691 79.0883 122.693 79.0995L122.695 79.1173L122.696 79.1353C122.703 80.0616 122.702 80.9899 122.701 81.9167C122.7 82.4927 122.7 83.0681 122.701 83.6421L122.702 84.0593L121.284 83.2392V79.4423L121.401 79.3725C121.425 79.3586 121.448 79.3447 121.471 79.331C121.608 79.2504 121.741 79.1717 121.865 79.0789C122.008 78.9717 122.12 78.8574 122.191 78.7254L122.368 78.3922ZM122.218 79.4126C122.223 80.2461 122.222 81.0785 122.221 81.912C122.221 82.3497 122.22 82.7877 122.22 83.2264L121.764 82.9623V79.7159C121.887 79.643 122.025 79.5591 122.153 79.4627C122.175 79.4466 122.196 79.4299 122.218 79.4126Z" fill="black"/>
<path d="M126.624 17.9771H112.876V42.9401H126.624V17.9771Z" fill="black"/>
<path d="M111.914 17.9883V38.877H116.279V32.6807C116.279 31.2515 117.195 29.2676 120 29.2676C122.805 29.2676 123.721 31.2515 123.721 32.6807V38.877H128.086V17.9883H111.914ZM119.326 20.332H120.674V27.4805H119.326V20.332ZM115.459 21.7383H116.821V26.9678H115.459V21.7383ZM123.179 21.7383H124.541V26.9678H123.179V21.7383Z" fill="#D91C16"/>
<path fill-rule="evenodd" clip-rule="evenodd" d="M111.68 17.7539H128.32V39.1113H123.486V32.6807C123.486 32.0111 123.271 31.2154 122.735 30.5909C122.204 29.9735 121.342 29.502 120 29.502C118.658 29.502 117.796 29.9735 117.265 30.5909C116.729 31.2154 116.514 32.0111 116.514 32.6807V39.1113H111.68V17.7539ZM112.148 18.2227V38.6426H116.045V32.6807C116.045 31.921 116.287 31.0102 116.91 30.2855C117.538 29.5536 118.536 29.0332 120 29.0332C121.464 29.0332 122.462 29.5536 123.09 30.2855C123.713 31.0102 123.955 31.921 123.955 32.6807V38.6426H127.852V18.2227H112.148ZM119.092 20.0977H120.908V27.7148H119.092V20.0977ZM119.561 20.5664V27.2461H120.439V20.5664H119.561ZM115.225 21.5039H117.056V27.2021H115.225V21.5039ZM115.693 21.9727V26.7334H116.587V21.9727H115.693ZM122.944 21.5039H124.775V27.2021H122.944V21.5039ZM123.413 21.9727V26.7334H124.307V21.9727H123.413Z" fill="black"/>
<path d="M110.435 14.9854V17.959H129.565V14.9854H110.435Z" fill="#D91C16"/>
<path fill-rule="evenodd" clip-rule="evenodd" d="M110.2 14.751H129.8V18.1934H110.2V14.751ZM110.669 15.2197V17.7246H129.331V15.2197H110.669Z" fill="black"/>
<path d="M108.633 11.5283V14.9854H131.367V11.5283H128.511V13.4326H125.288V11.5283H121.611V13.4326H118.389V11.5283H114.712V13.4326H111.489V11.5283H108.633Z" fill="#D91C16"/>
<path fill-rule="evenodd" clip-rule="evenodd" d="M108.398 11.2939H111.724V13.1982H114.478V11.2939H118.623V13.1982H121.377V11.2939H125.522V13.1982H128.276V11.2939H131.602V15.2197H108.398V11.2939ZM108.867 11.7627V14.751H131.133V11.7627H128.745V13.667H125.054V11.7627H121.846V13.667H118.154V11.7627H114.946V13.667H111.255V11.7627H108.867Z" fill="black"/>
<path d="M104.414 45.8643V48.0176H135.586V45.8643H104.414Z" fill="#D91C16"/>
<path fill-rule="evenodd" clip-rule="evenodd" d="M104.18 45.6299H135.82V48.252H104.18V45.6299ZM104.648 46.0986V47.7832H135.352V46.0986H104.648Z" fill="black"/>
<path d="M103.14 38.8623V45.8643H136.86V38.8623H133.667V41.5576H129.419V38.8623H123.721V41.5576H116.279V38.8623H110.581V41.5576H106.333V38.8623H103.14Z" fill="#D91C16"/>
<path fill-rule="evenodd" clip-rule="evenodd" d="M102.905 38.6279H106.567V41.3232H110.347V38.6279H116.514V41.3232H123.486V38.6279H129.653V41.3232H133.433V38.6279H137.095V46.0986H102.905V38.6279ZM103.374 39.0967V45.6299H136.626V39.0967H133.901V41.792H129.185V39.0967H123.955V41.792H116.045V39.0967H110.815V41.792H106.099V39.0967H103.374Z" fill="black"/>
<path d="M107.197 48.0176V73.4912H113.218V63.9551C113.218 59.4632 116.216 57.3486 120 57.3486C123.637 57.3486 126.782 59.4632 126.782 63.9551V73.4912H132.803V48.0176H107.197Z" fill="#D91C16"/>
<path fill-rule="evenodd" clip-rule="evenodd" d="M106.963 48.0176C106.963 47.8881 107.068 47.7832 107.197 47.7832H132.803C132.932 47.7832 133.037 47.8881 133.037 48.0176V73.4912C133.037 73.6207 132.932 73.7256 132.803 73.7256H126.782C126.653 73.7256 126.548 73.6207 126.548 73.4912V63.9551C126.548 61.768 125.785 60.1838 124.6 59.1435C123.411 58.0991 121.775 57.583 120 57.583C118.15 57.583 116.515 58.1 115.346 59.1423C114.181 60.1809 113.452 61.7645 113.452 63.9551V73.4912C113.452 73.6207 113.347 73.7256 113.218 73.7256H107.197C107.068 73.7256 106.963 73.6207 106.963 73.4912V48.0176ZM107.432 48.252V73.2568H112.983V63.9551C112.983 61.6537 113.754 59.9341 115.034 58.7925C116.31 57.6546 118.067 57.1143 120 57.1143C121.862 57.1143 123.617 57.6555 124.91 58.7913C126.207 59.9313 127.017 61.6502 127.017 63.9551V73.2568H132.568V48.252H107.432Z" fill="black"/>
</g>
<defs>
<clipPath id="clip0_909_305211">
<rect width="240" height="120" fill="white"/>
</clipPath>
</defs>
</svg>
