<svg width="240" height="120" viewBox="0 0 240 120" fill="none" xmlns="http://www.w3.org/2000/svg">
<g clip-path="url(#clip0_307_37330)">
<path d="M0 0H240V120H0V0Z" fill="white"/>
<path d="M0 0H240V40H0V0ZM0 80H240V120H0V80Z" fill="#54AEF2"/>
<path d="M86.3403 43.3333L87.8372 47.94H92.6807L88.7622 50.7868L90.259 55.3933L86.3403 52.5464L82.4217 55.3933L83.9185 50.7868L80 47.94H84.8435L86.3403 43.3333Z" fill="#54AEF2"/>
<path d="M86.3403 63.3333L87.8372 67.94H92.6807L88.7622 70.7868L90.259 75.3933L86.3403 72.5464L82.4217 75.3933L83.9185 70.7868L80 67.94H84.8435L86.3403 63.3333Z" fill="#54AEF2"/>
<path d="M121.17 57.94L119.674 53.3333L118.177 57.94H113.333L117.252 60.7868L115.755 65.3933L119.674 62.5464L123.592 65.3933L122.096 60.7868L126.014 57.94H121.17Z" fill="#54AEF2"/>
<path d="M153.007 43.3333L154.504 47.94H159.347L155.429 50.7868L156.926 55.3933L153.007 52.5464L149.088 55.3933L150.585 50.7868L146.667 47.94H151.51L153.007 43.3333Z" fill="#54AEF2"/>
<path d="M154.504 67.94L153.007 63.3333L151.51 67.94H146.667L150.585 70.7868L149.088 75.3933L153.007 72.5464L156.926 75.3933L155.429 70.7868L159.347 67.94H154.504Z" fill="#54AEF2"/>
</g>
<defs>
<clipPath id="clip0_307_37330">
<rect width="240" height="120" fill="white"/>
</clipPath>
</defs>
</svg>
