<svg width="240" height="120" viewBox="0 0 240 120" fill="none" xmlns="http://www.w3.org/2000/svg">
<g clip-path="url(#clip0_909_101751)">
<path fill-rule="evenodd" clip-rule="evenodd" d="M240 120H0V0H240V120Z" fill="white"/>
<path fill-rule="evenodd" clip-rule="evenodd" d="M240 27.2663H0V11.5H240V27.2663ZM240 109.5H0V93.7337H240V109.5Z" fill="#0F3296"/>
<path fill-rule="evenodd" clip-rule="evenodd" d="M120 34.0192L127.5 47.0096H142.5L135 60L142.5 72.9904H127.5L120 85.9808L112.5 72.9904H97.5L105 60L97.5 47.0096H112.5L120 34.0192ZM110.118 51.1346H104.645L107.382 55.875L110.118 51.1346ZM109.763 60L114.882 51.1346H125.118L130.237 60L125.118 68.8654H114.882L109.763 60ZM107.382 64.125L104.645 68.8654H110.118L107.382 64.125ZM117.263 72.9904L120 77.7308L122.737 72.9904H117.263ZM129.882 68.8654H135.355L132.618 64.125L129.882 68.8654ZM132.618 55.875L135.355 51.1346H129.882L132.618 55.875ZM122.737 47.0096H117.263L120 42.2692L122.737 47.0096Z" fill="#0F3296"/>
</g>
<defs>
<clipPath id="clip0_909_101751">
<rect width="240" height="120" fill="white"/>
</clipPath>
</defs>
</svg>
