<svg width="240" height="120" viewBox="0 0 240 120" fill="none" xmlns="http://www.w3.org/2000/svg">
<path d="M0 0H240V120H0V0Z" fill="white"/>
<path d="M0 0H240V40H0V0Z" fill="#E23726"/>
<path d="M0 80H240V120H0V80Z" fill="black"/>
<path d="M118.848 68.4091H89.5303C89.4693 68.957 89.2694 69.4866 88.9445 69.9606C88.6196 70.4346 88.1778 70.8413 87.6502 71.1521C87.1227 71.4628 86.5223 71.67 85.8916 71.7589C85.2608 71.8478 84.6151 71.8163 84 71.6667C88.1061 69.6515 87.8485 67.606 85.2576 63.0606C86.697 62.5454 86.9242 62.4091 88.3788 61.4242C87.3485 64.5454 91.0455 64.1667 93.7727 64.1667C93.7727 63.0757 93.8788 61.8333 93.0606 61.6667C94.1212 61.2879 94.2121 61.1667 95.8939 59.7424V63.9394H116.121V61.0606C116.121 60.8999 116.057 60.7457 115.944 60.632C115.83 60.5184 115.676 60.4545 115.515 60.4545C115.354 60.4545 115.2 60.5184 115.087 60.632C114.973 60.7457 114.909 60.8999 114.909 61.0606V62.7273C114.909 62.8478 114.861 62.9634 114.776 63.0487C114.691 63.1339 114.575 63.1818 114.455 63.1818H99V60.4545L110.606 49.2424C110.53 49.8182 111.727 51.3636 112.227 51.6212C111.848 51.6818 111.424 51.606 111.152 51.8788L101.652 61.0606H112.182C112.182 58.6212 114.455 58.6212 115.515 57.7576C116.576 58.6212 118.848 58.6212 118.848 61.0606V68.4091ZM121.045 68.4091V49.2424C122.121 49.8333 122.955 50.5151 124.288 50.8485C124.227 51.606 123.545 51.8485 123.545 52.3788V64.1667C125.03 64.5 125.364 63.6363 126.076 63.197C126.258 65.0757 127.455 66.9242 127.409 68.4091H121.045ZM141.076 55.606L143.424 53.6363V63.9394H145.091V52.2273C145.909 51.5454 146.97 50.803 147.439 49.9394V68.4091H132.667C132.455 64.5909 132.455 60.6667 136.909 61.5151V59.9545C136.909 59.5909 136.364 59.8788 136.364 59.5454L139.409 57V63.9394H141.076V55.606ZM140.303 50.3333C140.015 50.3485 139.576 48.7727 139.682 48.4697C139.788 48.1212 140.182 48.1212 140.348 48.2879C140.621 48.5454 140.591 50.3182 140.303 50.3333ZM137.561 52.4697C136.727 51.9848 136.864 51.7879 137.591 52C138.848 52.3788 139.485 52.0606 140.394 51.1363L141.076 51.4848C141.97 51.9394 142.515 51.7424 142.833 50.6515C142.924 50.3182 143.197 50.4091 143.273 50.7879C143.561 52.303 142.409 52.7727 141.242 52.3485C140.606 52.1363 140.5 52.1363 140.182 52.3788C139.485 52.9242 138.485 53.0151 137.561 52.4697ZM149.636 68.4091V49.2424C150.712 49.8333 151.545 50.5151 152.879 50.8485C152.818 51.606 152.136 51.8485 152.136 52.3788V64.1667C153.621 64.5 153.955 63.6363 154.667 63.197C154.848 65.0757 156.045 66.9242 156 68.4091H149.636ZM92.197 70.5303C92.197 70.2932 92.2912 70.0658 92.4588 69.8982C92.6264 69.7305 92.8538 69.6364 93.0909 69.6364C93.328 69.6364 93.5554 69.7305 93.723 69.8982C93.8907 70.0658 93.9848 70.2932 93.9848 70.5303C93.9848 70.7674 93.8907 70.9948 93.723 71.1624C93.5554 71.33 93.328 71.4242 93.0909 71.4242C92.8538 71.4242 92.6264 71.33 92.4588 71.1624C92.2912 70.9948 92.197 70.7674 92.197 70.5303ZM135.545 63.5606C135.545 63.6972 135.617 63.8282 135.745 63.9249C135.873 64.0215 136.046 64.0757 136.227 64.0757C136.408 64.0757 136.582 64.0215 136.709 63.9249C136.837 63.8282 136.909 63.6972 136.909 63.5606C136.909 63.424 136.837 63.2929 136.709 63.1963C136.582 63.0997 136.408 63.0454 136.227 63.0454C136.046 63.0454 135.873 63.0997 135.745 63.1963C135.617 63.2929 135.545 63.424 135.545 63.5606Z" fill="#005801"/>
</svg>
