<svg width="240" height="120" viewBox="0 0 240 120" fill="none" xmlns="http://www.w3.org/2000/svg">
<g clip-path="url(#clip0_322_823)">
<path d="M0 0H240V120H0V0Z" fill="#1E9A1C"/>
<path d="M0 40H240V120H0V40Z" fill="white"/>
<path d="M0 80H240V120H0V80Z" fill="#D91C16"/>
<path d="M108.5 58.2918L115.553 63.4164L112.859 71.7082L119.913 66.5836L126.966 71.7082L124.272 63.4164L131.325 58.2918H122.607L119.913 50L117.219 58.2918H108.5Z" fill="black"/>
<path d="M107.691 4.0815C107.255 4.37334 106.389 5.27094 106.363 6.3051C106.357 6.4259 106.348 6.52161 106.341 6.60075C106.312 6.90383 106.307 6.96373 106.61 7.25813C106.886 7.65605 107.164 7.62029 107.721 7.32845C108.041 7.09277 108.149 6.9363 108.257 6.54102C108.319 6.22831 108.167 6.2806 107.977 6.34566C107.765 6.41852 107.506 6.50739 107.45 6.11766C107.312 5.60952 107.571 5.32407 107.92 4.93993C108.041 4.80625 108.173 4.66062 108.303 4.4895C108.32 4.03542 108.31 3.71382 107.691 4.0815Z" fill="white"/>
<path d="M104.766 7.25478C103.313 11.4075 105.598 15.95 107.182 15.5077C108.325 15.9809 109.053 13.8063 109.521 11.4238C109.842 10.7552 110.083 10.6839 110.248 11.0276C110.206 14.1958 110.475 14.8976 111.29 15.8593C113.107 17.2611 114.61 16.0383 114.728 15.9202L116.143 14.5054C116.458 14.1742 116.877 14.1548 117.322 14.4466C117.481 14.5914 117.573 14.7751 117.673 14.9728C117.843 15.3115 118.034 15.6917 118.619 15.9889C119.397 16.3004 121.062 16.0609 121.448 15.3898C121.672 15.0055 121.823 14.7302 121.941 14.5142L121.941 14.5137L121.942 14.5135C122.097 14.2299 122.196 14.0487 122.332 13.8572C122.703 13.364 123.335 13.5833 123.335 13.7391C123.317 13.8203 123.273 13.9014 123.225 13.9883C123.111 14.1957 122.979 14.4356 123.158 14.7848C123.495 15.0381 123.634 14.9723 123.798 14.8947C123.848 14.8711 123.9 14.8463 123.961 14.8292C124.883 14.3885 125.575 12.3833 125.575 12.3833C125.616 11.6374 125.197 11.6991 124.926 11.8527C124.749 11.9608 124.655 12.0322 124.561 12.1035C124.467 12.1748 124.373 12.2462 124.196 12.3543C124.131 12.364 124.057 12.3785 123.977 12.3942C123.502 12.4874 122.808 12.6234 122.438 12.0507C122.192 11.6009 122.081 11.0518 121.972 10.5132C121.887 10.0881 121.802 9.66959 121.654 9.31158C121.654 9.30179 121.637 9.26007 121.613 9.19692L121.613 9.19671C121.49 8.87901 121.159 8.02015 121.613 7.9551C121.633 7.95877 121.654 7.96298 121.677 7.96745C121.97 8.02518 122.482 8.12601 122.568 7.66734C122.857 7.18566 121.95 5.82174 121.33 5.13246C120.792 4.54158 120.046 4.4703 119.326 5.07366C118.938 5.4307 118.892 5.82 118.846 6.20438C118.832 6.31942 118.818 6.4341 118.795 6.54726C118.667 7.1115 118.694 7.80558 119.267 8.5515C119.341 8.69744 119.424 8.84956 119.511 9.0086C120.014 9.931 120.644 11.0862 120.387 12.619C120.387 12.619 119.851 13.4684 118.916 13.3573C118.527 13.2723 117.895 13.1069 117.558 10.6148C117.471 9.97568 117.45 9.25015 117.429 8.522C117.388 7.10093 117.347 5.66986 116.817 4.85166C116.802 4.81332 116.788 4.77505 116.773 4.73711L116.773 4.73689C116.505 4.03564 116.28 3.4488 115.612 4.66086C115.574 4.76296 115.509 4.87581 115.436 5.00399C115.15 5.50587 114.73 6.24287 115.2 7.49046C115.682 8.48358 115.878 10.0997 115.659 11.8978C115.581 12.0177 115.517 12.119 115.459 12.2104L115.458 12.211C115.27 12.5088 115.148 12.702 114.813 13.0928C114.198 13.7545 113.53 13.5855 113.018 13.3385C112.979 13.3118 112.94 13.2862 112.902 13.261L112.901 13.2607C112.479 12.9828 112.148 12.7646 111.948 11.8268C111.951 11.7132 111.954 11.5947 111.957 11.4721L111.957 11.4687C111.998 9.83116 112.058 7.48666 111.78 6.96006C111.341 6.08286 110.616 6.40014 110.307 6.6651C108.819 8.02518 108.084 10.3201 107.635 12.1474C107.223 13.4792 106.784 13.0976 106.475 12.5602C106.146 12.2515 105.951 11.0198 105.76 9.81003C105.514 8.26025 105.275 6.74638 104.766 7.25478Z" fill="white"/>
<path fill-rule="evenodd" clip-rule="evenodd" d="M133.473 19.0138L133.473 19.0141C134.315 20.4249 135.54 22.4778 136.501 24.548C136.862 25.0352 136.997 28.4989 136.38 28.7917C134.678 25.3935 132.948 22.2987 131.159 19.38C131.218 20.3345 131.262 21.2304 131.283 21.9675C131.289 22.3224 131.317 22.8657 131.351 23.5153L131.351 23.5155C131.445 25.3347 131.582 27.9874 131.398 29.6713C131.015 31.3234 129.918 32.4534 129.236 32.4265C129.462 28.5937 129.386 24.6591 129.139 21.0198C129.01 19.1146 128.802 17.1979 128.504 15.2299C127.012 12.993 125.472 10.8301 123.869 8.67464C123.795 8.57471 123.705 8.45922 123.608 8.3347C123.252 7.87905 122.802 7.30255 122.715 6.92576C122.569 6.20624 122.516 5.73752 122.615 4.87328C122.812 3.89312 123.926 4.48448 124.382 4.80824C125.145 5.45182 125.31 5.59285 125.997 6.18281L125.997 6.18308C126.125 6.2922 126.27 6.4168 126.44 6.56264C126.687 6.86111 126.884 7.11531 127.039 7.33178C127.036 6.8674 127.12 6.36939 127.367 5.80927C127.949 5.03488 127.98 5.07933 128.305 5.54908C128.331 5.58611 128.358 5.62578 128.388 5.66791C128.525 5.86125 128.661 6.0491 128.793 6.23288C129.875 7.73387 130.761 8.963 131.072 10.687C131.136 11.1757 130.97 11.0476 130.785 10.9041C130.542 10.717 130.266 10.5036 130.424 11.6007C130.523 12.0108 130.665 13.2365 130.806 14.7642C131.704 16.0914 132.46 17.2447 132.68 17.6542C132.853 17.9735 133.131 18.4405 133.473 19.0135L133.473 19.0138ZM127.451 9.69847C127.48 9.82649 127.509 9.95419 127.537 10.0816C127.251 9.69096 127.035 9.4089 126.925 9.28688C126.318 8.56611 126.624 8.56831 126.985 8.57091C127.06 8.57145 127.138 8.57202 127.211 8.56596C127.23 8.65009 127.25 8.73395 127.27 8.81775C127.339 9.10895 127.407 9.39946 127.451 9.69847Z" fill="white"/>
<path d="M103.765 8.45262C103.765 8.45262 100.035 12.721 99.2475 13.0112C99.1649 13.1425 96.5952 13.1494 96.492 13.0112C96.2452 12.9618 97.2127 12.2055 98.4223 11.26C99.5828 10.3528 100.966 9.27145 101.713 8.47326C102.045 8.19702 101.548 7.69278 101.051 7.45782C100.539 6.83622 100.691 5.84166 101.34 5.22006C101.851 4.9575 102.549 4.84014 103.351 5.19942C103.834 5.73798 104.131 6.91926 103.205 7.45782C103.019 7.63758 102.998 7.8171 103.205 7.99662C103.302 8.07985 103.394 8.15263 103.486 8.22545C103.577 8.29769 103.669 8.37004 103.765 8.45262Z" fill="white"/>
<path d="M78.0509 17.7245C75.6877 17.2224 75.9351 12.3279 76.1413 9.54653C76.6417 8.96704 76.9219 10.5107 77.1907 11.9914C77.3085 12.6404 77.4241 13.2773 77.5551 13.718C78.0524 15.7071 78.7616 14.9468 78.9197 13.8694C79.0373 12.9161 79.3131 11.8424 79.3131 11.8424C79.6364 9.75629 80.7881 8.49869 81.2357 8.52605C81.7995 8.42645 82.0731 8.57573 82.3049 9.18077C82.5973 9.78581 82.6827 12.1729 82.3537 13.6894C82.2884 14.857 83.7152 16.1902 83.6501 13.8351C83.6167 13.5845 83.585 13.3389 83.5537 13.0971L83.5537 13.0968C83.3657 11.6421 83.1951 10.3224 82.7809 8.85029C82.6613 7.87133 82.6661 6.80933 82.7125 5.74709C82.9349 5.21309 83.5719 4.92773 84.0015 5.51285C84.6136 6.01689 84.7969 7.80638 84.916 8.96894C84.934 9.14433 84.9505 9.30545 84.9668 9.44573C84.9668 10.309 85.0498 12.2259 85.4641 13.5106C85.7542 14.1322 86.1531 14.2565 86.3461 13.718C86.4746 13.718 86.3833 13.538 86.2212 13.2181C86.0878 12.9549 85.9064 12.597 85.76 12.1669C85.3109 11.1308 85.021 8.81741 85.6426 7.73981C85.8701 7.36685 86.3461 7.36685 86.6979 7.73981C86.8046 7.9295 86.919 8.08865 87.0305 8.24391C87.2866 8.60036 87.528 8.93625 87.6286 9.57389C87.6568 9.6641 87.6865 9.74705 87.7158 9.82907C87.9022 10.3499 88.0751 10.833 87.7527 12.8974C87.7527 13.1319 89.1591 14.1867 89.1591 14.1867C89.5887 14.6403 90.1016 14.7622 90.6145 14.4697C90.7409 13.7201 90.4534 12.8878 90.2487 12.3869C89.2849 11.1049 88.6525 9.53237 88.8077 8.20877C89.1428 7.06013 90.0577 6.94757 90.6829 7.49837C91.4393 7.90925 91.9059 8.85869 92.2066 9.84965C92.0967 10.3057 91.6136 10.3469 91.2961 9.84965C91.2572 9.96685 91.3424 10.1772 91.4277 10.3876C91.513 10.5982 91.5983 10.8088 91.5593 10.9261C92.1181 12.2153 92.2625 13.5049 92.3657 14.7941C92.3396 16.1509 91.2776 17.0103 89.5107 17.497C88.6139 17.6981 88.2112 17.3556 87.73 16.9464C87.5882 16.8258 87.4396 16.6995 87.2696 16.5795C86.8006 16.3215 86.1245 16.3532 86.1113 16.8826C85.9178 17.1622 85.996 17.9208 86.1044 18.973C86.205 19.9487 86.3315 21.1769 86.2916 22.5094C86.2088 27.2264 84.4705 26.7289 84.4705 26.7289C84.412 25.4806 84.3535 24.2323 84.2949 22.984C84.2362 21.7317 84.1775 20.4794 84.1189 19.2272C83.8251 18.4978 83.3247 18.4729 82.5752 18.5307C81.8549 18.2393 80.9278 17.8239 80.954 16.4137V12.0769C80.9242 11.4989 80.5635 11.5013 80.3679 11.9595C79.9823 12.3051 79.9593 13.2321 79.9343 14.245C79.8921 15.9495 79.8439 17.8969 78.0509 17.7245Z" fill="white"/>
<path d="M78.9151 23.3605C80.5674 22.5717 82.2194 21.7831 83.9086 20.9573C83.7983 20.7927 83.7461 20.6323 83.6982 20.485C83.5693 20.0887 83.4714 19.7877 82.3556 19.7566C80.004 19.7996 76.556 22.8452 76.4652 24.5324C77.2844 24.139 78.099 23.7501 78.9135 23.3613L78.9151 23.3605Z" fill="white"/>
<path d="M82.6083 23.2896C78.6855 33.4016 91.7943 34.8106 93.2592 23.7039C93.3972 23.2481 93.95 22.7921 94.0467 23.538C93.7426 33.5945 83.9069 34.2855 82.2356 31.1218C81.8213 30.3761 81.6968 28.7184 81.6552 27.7236C81.4066 25.7484 80.3708 26.508 80.2049 28.4696C80.0693 29.3619 80.0724 29.728 80.078 30.4058C80.0792 30.5569 80.0806 30.7235 80.0806 30.9149C80.6055 38.858 93.2734 35.4459 95.3314 28.8843C96.0037 26.6458 95.7794 24.7693 95.647 23.6616C95.5644 22.9713 95.5176 22.5796 95.7456 22.5848C97.0028 23.9388 98.7569 22.7645 99.1438 22.2948C99.3096 22.0599 99.7244 21.9082 100.014 22.212C100.995 22.9169 102.722 22.5848 103.081 21.3416C103.288 20.126 103.454 18.8688 103.496 17.5707L103.366 17.6108C102.631 17.8382 102.097 18.0031 102.045 18.3166C102.017 18.4963 101.99 18.6759 101.962 18.8554C101.943 18.9804 101.924 19.1054 101.905 19.2304L101.879 19.394C101.81 19.7396 101.119 19.753 101.092 19.3109C100.788 17.9295 99.5309 17.75 98.7711 19.8915C98.2599 20.3057 97.3344 20.3888 97.2375 19.7672C97.3618 18.3305 96.7815 18.1368 95.6213 18.8139C95.4335 17.3808 95.2457 15.9792 95.0579 14.5774L95.0579 14.5768L95.0576 14.5749C94.8726 13.194 94.6876 11.8129 94.5024 10.4012C94.6451 10.3971 94.7842 10.4254 94.9207 10.4532C95.247 10.5197 95.5588 10.5833 95.8704 10.1938C95.3864 8.68828 94.3644 5.60764 93.7978 5.3866C93.5854 5.13177 93.3973 5.19531 93.1586 5.27593C93.0868 5.30016 93.0105 5.32594 92.9276 5.34508C92.3199 5.53852 91.7532 6.0634 91.9328 7.0858C92.292 9.26882 92.5891 11.1928 92.8862 13.1168C93.1832 15.04 93.4802 16.9633 93.8393 19.1456C93.9497 19.6568 93.5216 20.3331 92.9691 20.2642C92.6553 20.0519 92.4203 19.7673 92.1866 19.4844C91.7206 18.9201 91.2601 18.3626 90.1925 18.3992C89.0321 18.4131 87.7056 19.6702 87.5403 20.8863C87.3468 21.8528 87.2775 22.9025 87.5398 23.7454C88.3553 24.726 89.336 24.6298 90.1925 24.4085C90.5068 24.2792 90.7963 24.0673 91.0427 23.887C91.3486 23.6631 91.588 23.4878 91.7259 23.5796C91.8917 23.7869 91.7669 26.1072 88.4103 27.8895C86.3796 28.8012 84.7632 29.0086 83.8935 27.3507C83.6939 26.9669 83.6478 26.1851 83.6015 25.3992C83.5228 24.0633 83.4434 22.7155 82.6083 23.2896Z" fill="white"/>
<path d="M76.7216 28.1168C75.3226 30.3454 75.2009 33.6749 75.9728 34.6676C76.3829 35.1365 77.0569 35.342 77.5553 35.1951C78.4342 34.814 78.8189 33.0332 78.6104 32.3818C78.3171 31.9227 78.086 31.85 77.7932 32.2405C77.1747 33.4961 76.9179 32.6348 76.8637 31.933C76.7689 30.6022 76.8941 29.3765 77.0386 28.406C77.1755 27.5209 77.0667 27.664 76.8196 27.9891C76.789 28.0294 76.7562 28.0725 76.7216 28.1168Z" fill="white"/>
<path d="M130.564 34.2891C130.298 34.5876 131.221 35.8647 132.42 35.8635C134.425 35.6307 136.19 34.5044 137.825 31.5394C138.262 30.848 139.03 29.3691 139.053 28.2219C139.206 21.4959 138.716 16.2622 137.708 11.401C137.644 10.9275 137.683 10.3709 137.763 10.2288C137.813 10.1692 137.909 10.1556 138.021 10.1395C138.201 10.1139 138.423 10.0823 138.567 9.84651C138.91 9.49659 137.657 6.59811 136.943 5.48163C136.922 5.4411 136.902 5.40165 136.884 5.36387L136.883 5.36338C136.672 4.93693 136.566 4.72296 136.181 5.54019C135.739 6.26355 135.443 7.52571 135.477 8.70507C136.14 13.2957 136.485 17.4881 136.842 21.8344L136.842 21.8348L136.842 21.8352L136.842 21.8354L136.842 21.8357L136.842 21.8359L136.843 21.8362L136.843 21.8365C137.001 23.7598 137.161 25.7133 137.353 27.7448C137.404 28.3853 137.31 29.316 136.884 29.6871C135.309 31.3316 133.036 33.3557 130.564 34.2891Z" fill="white"/>
<path d="M157.375 36.0768C156.212 36.0423 156.213 35.0854 157.652 34.2536C157.867 34.0828 158.293 33.8887 158.751 33.68C159.258 33.4485 159.806 33.199 160.148 32.9434C160.673 32.5521 161.226 31.8242 161.749 31.1356C161.876 30.9686 162.001 30.8039 162.123 30.6468C162.372 29.9796 162.42 29.6465 162.49 29.168L162.49 29.1675L162.502 29.0861C162.508 29.0433 162.514 28.9991 162.521 28.9534C162.358 22.5792 161.567 17.1764 160.503 9.98476C160.327 8.84092 160.481 7.54324 160.922 6.81988C161.308 6.00265 161.414 6.21662 161.625 6.64306L161.627 6.64598L161.627 6.64649C161.645 6.68337 161.664 6.72183 161.684 6.76132C161.866 7.04603 162.134 7.42811 162.427 7.84521C163.282 9.06376 164.346 10.5811 164.091 10.8418C163.97 11.0402 163.736 11.0368 163.521 11.0337C163.321 11.0308 163.136 11.0281 163.074 11.1886C163.014 11.2951 163.116 11.9338 163.199 12.4466C163.226 12.618 163.251 12.7754 163.268 12.894C164.275 17.7552 164.516 22.7756 164.363 29.5016C164.341 30.6488 163.821 32.5186 163.384 33.21C161.82 35.5709 159.584 35.8253 157.637 36.0468L157.501 36.0623C157.459 36.0671 157.417 36.072 157.375 36.0768Z" fill="white"/>
<path d="M158.731 27.8067C158.725 27.1726 158.726 26.5711 158.728 26.0005V26.0002C158.729 25.7297 158.73 25.4659 158.73 25.2092C159.792 26.8083 160.818 28.4721 161.79 30.2177C162.393 29.8983 162.192 26.4819 161.811 26.0108C160.834 24.371 159.552 22.6479 158.557 21.3108C158.456 21.1756 158.359 21.0443 158.265 20.9175C158.184 20.6871 158.092 20.4656 157.988 20.2517C157.742 19.6801 157.735 19.1756 157.727 18.6446C157.722 18.2887 157.717 17.9209 157.639 17.5129C157.556 17.0723 157.517 16.5367 157.477 15.973C157.424 15.2359 157.368 14.4508 157.203 13.7672C157.123 13.2961 156.878 11.7872 156.954 11.6425C157.011 11.4801 157.146 11.4768 157.295 11.4731C157.455 11.4692 157.631 11.4648 157.746 11.2628C158.077 10.9021 156.598 7.0755 155.848 5.98278C155.578 5.49294 155.088 5.6607 154.484 6.45726C153.924 6.98142 154.132 8.17686 154.346 9.31422C154.875 12.0769 155.355 14.743 155.738 17.3658C155.005 16.3862 154.094 15.1967 153.229 14.0845C153.207 13.968 153.194 13.8997 153.194 13.8937C153.194 13.8416 153.07 11.5208 152.967 10.9678C152.964 10.9296 152.96 10.896 152.957 10.8667C152.939 10.7242 152.934 10.6838 153.129 10.7074C153.374 10.9132 153.411 10.9298 153.559 10.9956L153.568 10.9995C153.82 11.0456 154.045 10.6172 153.893 10.2229L151.557 5.91344C151.369 5.72888 151.127 5.52608 150.83 5.96552C150.546 6.21464 150.243 6.6656 150.253 7.2452C150.287 7.7558 150.349 8.2709 150.411 8.786C150.474 9.3011 150.536 9.8162 150.57 10.3268L150.667 10.8689C150.542 10.7209 150.446 10.6123 150.386 10.5512C149.324 9.43572 149.655 9.41346 149.998 9.39035C150.298 9.37013 150.608 9.34927 150.005 8.59566C149.919 8.5016 149.838 8.41258 149.761 8.32806C148.856 7.3328 148.518 6.96014 147.654 6.29406C147.546 6.2242 147.448 6.13971 147.359 6.06308C147.06 5.80671 146.864 5.63819 146.746 6.3987C146.684 7.26654 146.62 8.27046 146.678 9.00198C146.675 9.40854 147.098 10.1725 147.462 10.6227C148.075 11.3753 148.694 12.1299 149.318 12.8895L149.318 12.89C150.043 13.7723 150.773 14.6613 151.503 15.5615L151.505 15.5708C151.652 17.4399 151.744 19.1393 151.836 20.8387C151.928 22.5381 152.02 24.2374 152.167 26.1066C152.126 27.6894 151.634 29.0694 151.172 29.2686C151.172 29.2686 150.47 29.6756 149.999 29.2261C149.657 29.0886 148.286 26.9415 148.286 26.9415C147.585 26.299 147.123 26.4826 146.624 26.9415C145.716 27.8189 145.136 29.2011 144.577 30.5322C144.291 31.2157 144.009 31.8858 143.692 32.467C143.451 32.8494 142.77 33.1767 142.016 32.4392C140.472 30.3306 140.9 27.5043 141.001 26.9843C141.015 26.9261 141.02 26.8992 141.019 26.9003C141.018 26.9014 141.011 26.9305 141.001 26.9843L140.998 26.9983L140.992 27.0233C140.989 27.033 140.987 27.0432 140.984 27.0541C139.277 28.9777 140.03 32.1594 140.415 32.8448C140.978 33.9706 141.431 34.6928 142.526 35.2496C143.524 35.9838 144.301 35.5249 144.729 35.0108C145.327 34.3908 145.573 33.1971 145.774 32.2222C145.91 31.5615 146.026 31.0013 146.216 30.7887C146.546 29.822 147.379 29.9871 147.782 30.4155C148.174 30.9783 148.635 31.3412 149.21 31.6474C150.146 32.4733 151.264 32.6242 152.366 31.8716C153.118 31.4494 153.607 30.9039 154.048 29.821C154.47 28.6921 154.326 24.04 154.215 20.4811V20.4808L154.215 20.4791C154.198 19.9229 154.181 19.3935 154.168 18.9084C154.878 19.823 155.584 20.7538 156.28 21.7049C156.585 24.7167 156.724 27.7095 156.623 30.7666C156.552 31.3743 158.746 28.9539 158.731 27.8067Z" fill="white"/>
<path d="M144.745 15.7095C145.298 16.7317 147.194 18.4762 148.099 18.4928C148.113 17.7086 148.181 16.7063 148.231 15.9552L148.231 15.9547C148.24 15.8232 148.249 15.6994 148.256 15.5859C148.277 15.2981 148.344 14.9801 148.619 14.9079C148.733 14.8781 148.884 14.9209 149.021 14.96C149.214 15.0153 149.382 15.0632 149.385 14.8877C149.335 14.3014 149.214 13.4331 148.882 13.0244C148.43 12.3541 147.229 12.5175 147.019 13.5687C147.02 13.7523 147.061 13.896 147.1 14.0338C147.143 14.1869 147.185 14.3327 147.167 14.5179C147.117 14.719 146.907 14.8551 146.413 14.6185C146.49 14.5474 146.091 13.9882 146.091 13.9882C145.705 13.7535 145.19 13.9983 144.855 14.2162C144.67 14.5513 144.536 15.1232 144.745 15.7095Z" fill="white"/>
<path d="M109.482 15.983C109.404 16.0632 109.301 16.1686 109.14 16.2824C108.714 16.7669 108.635 17.1039 108.661 18.0752C108.661 18.1119 109.456 20.3357 110.131 21.8933C110.58 23.4869 111.002 25.3143 110.697 27.0377C109.648 29.316 107.535 31.3611 105.499 32.4713C104.446 32.8088 103.55 32.6888 103.327 32.455C102.681 32.0206 102.711 31.2173 102.757 31.201C102.988 31.0403 103.223 30.8837 103.461 30.7254L103.461 30.7252C104.995 29.7046 106.645 28.6067 107.974 25.8108C108.428 24.5765 108.565 23.8344 108.115 21.9257C107.939 21.2127 107.711 20.63 107.223 20.1248C107.347 20.044 107.578 20.1221 107.804 20.1989C108.079 20.292 108.347 20.3831 108.413 20.1855C108.234 19.2742 107.613 18.0509 106.914 17.425C106.302 16.8692 105.638 16.8063 105.078 17.3148C104.447 17.666 104.31 18.926 104.614 20.0297C104.752 20.3704 104.987 20.5953 105.26 20.8574C105.654 21.2344 106.127 21.6884 106.51 22.675C106.51 22.6789 106.513 22.6957 106.517 22.7234C106.553 22.9585 106.711 23.9728 106.409 24.4006C106.141 25.2344 102.682 27.9531 102.489 28.0757C102.421 28.1563 102.422 28.0963 102.424 27.9019C102.426 27.8153 102.427 27.7021 102.423 27.5628C102.41 27.2629 102.476 26.7391 102.529 26.3232L102.529 26.323C102.573 25.9754 102.607 25.7032 102.577 25.7007C101.641 26.3054 101.224 27.9514 100.992 28.8683C100.945 29.054 100.906 29.2099 100.871 29.3211C99.8698 30.0131 98.8216 30.643 97.8024 31.2555C95.9199 32.3867 94.1361 33.4588 92.9261 34.7537C91.9548 36.2705 99.618 33.0144 100.508 32.6206C100.586 32.6791 100.63 32.8216 100.688 33.0109C100.776 33.2971 100.896 33.6899 101.217 34.0596C102.014 35.1387 103.7 35.803 105.348 35.3914C108.111 34.3928 109.705 32.5114 111.326 30.4224C111.558 30.0855 111.919 29.8268 112.255 30.0869C113.368 32.58 116.585 34.3464 120.735 34.5291C121.696 33.361 121.235 32.791 120.846 32.5467C120.846 32.5395 120.768 32.5044 120.642 32.4468C120.115 32.2077 118.734 31.5805 118.483 30.9528C118.293 30.2506 118.752 29.6266 119.678 29.1584C122.343 28.836 124.965 28.4789 127.501 27.6636C127.526 26.8119 128.022 25.5363 128.357 24.9831C128.54 24.6819 128.676 24.5948 128.753 24.5453C128.817 24.5039 128.841 24.4887 128.817 24.3963L128.383 24.1455L119.874 24.1068C119.432 23.9369 119.562 23.7932 119.874 23.6753C121.905 23.3986 125.519 22.8104 125.759 19.3404C125.721 17.533 124.983 16.3488 122.765 16.021C121.136 16.147 119.973 17.7269 120.161 19.4624C120.137 19.6037 120.142 19.786 120.147 19.9745C120.158 20.4094 120.171 20.8771 119.837 20.9496C116.711 21.2352 113.302 23.1886 113.188 24.5904C112.995 24.7203 112.574 24.3423 112.626 23.7452C112.507 21.3219 111.713 18.5868 110.478 16.4748C109.732 15.7286 109.726 15.7339 109.482 15.983Z" fill="white"/>
<path d="M86.8616 7.29964C87.841 7.76668 89.6823 7.56796 89.6045 5.98876C89.6045 5.84908 89.569 5.37652 89.5551 5.2486C89.3552 4.783 88.8097 4.89796 88.6861 5.37868C88.6717 5.437 88.6774 5.50888 88.6832 5.5803C88.693 5.70171 88.7026 5.82178 88.6129 5.87164C88.531 5.9542 88.2181 5.90572 88.231 5.4694C88.231 5.33044 88.1285 5.18092 88.0669 5.09284C88.0049 5.05228 87.9656 5.041 87.8535 5.041C87.7378 5.04568 87.7217 5.07189 87.6739 5.14956C87.6653 5.16357 87.6557 5.17924 87.6442 5.19676C87.6376 5.22118 87.6305 5.24548 87.6233 5.26986C87.5961 5.36217 87.5686 5.45556 87.5686 5.56036C87.5516 5.71564 87.493 5.77108 87.3788 5.79388C87.356 5.79388 87.3382 5.79433 87.3238 5.7947C87.2966 5.79539 87.2812 5.79578 87.2668 5.79231C87.248 5.7878 87.2307 5.77675 87.191 5.75131L87.1765 5.74204C87.1604 5.72452 87.1434 5.70982 87.1269 5.69562C87.0802 5.65539 87.0382 5.61924 87.0382 5.53444C87.0382 5.41564 87.0113 5.2234 86.9756 5.14492C86.9213 5.0734 86.8342 5.04028 86.7361 5.01508C86.2011 5.017 86.1641 5.62708 86.1949 5.85868C86.1548 5.90236 86.132 6.99676 86.8616 7.29964Z" fill="white"/>
<path d="M118.315 18.141C118.882 19.6501 116.551 19.9189 115.572 19.4518C114.842 19.149 114.865 18.0546 114.905 18.0109C114.874 17.7793 114.911 17.1692 115.446 17.1673C115.544 17.1925 115.631 17.2256 115.686 17.2971C115.721 17.3756 115.748 17.5678 115.748 17.6866C115.748 17.7714 115.79 17.8076 115.837 17.8478C115.853 17.862 115.87 17.8767 115.886 17.8942L115.901 17.9035C115.941 17.9289 115.958 17.94 115.977 17.9445C115.991 17.948 116.007 17.9476 116.034 17.9469C116.04 17.9467 116.047 17.9466 116.055 17.9464C116.065 17.9462 116.076 17.9461 116.089 17.9461C116.203 17.9233 116.262 17.8678 116.279 17.7126C116.279 17.6078 116.306 17.5144 116.333 17.4221C116.34 17.3977 116.348 17.3734 116.354 17.349C116.366 17.3314 116.375 17.3158 116.384 17.3018C116.432 17.2241 116.448 17.1979 116.563 17.1932C116.676 17.1932 116.715 17.2045 116.777 17.245C116.839 17.3331 116.941 17.4826 116.941 17.6216C116.928 18.0579 117.241 18.1064 117.323 18.0238C117.413 17.974 117.403 17.8539 117.393 17.7325C117.387 17.6611 117.382 17.5892 117.396 17.5309C117.52 17.0502 118.065 16.9352 118.265 17.4008C118.279 17.5287 118.315 18.0013 118.315 18.141Z" fill="white"/>
<path d="M132.313 14.4222C133.292 14.8892 135.134 14.6905 135.056 13.1113C135.056 12.9716 135.02 12.499 135.007 12.3711C134.807 11.9055 134.261 12.0205 134.138 12.5012C134.123 12.5595 134.129 12.6314 134.135 12.7028C134.144 12.8242 134.154 12.9443 134.064 12.9942C133.982 13.0767 133.67 13.0282 133.682 12.5919C133.682 12.453 133.58 12.3034 133.518 12.2154C133.456 12.1748 133.417 12.1635 133.305 12.1635C133.189 12.1682 133.173 12.1944 133.125 12.2721C133.12 12.2805 133.115 12.2895 133.109 12.2992C133.105 12.3056 133.1 12.3123 133.096 12.3193C133.089 12.3437 133.082 12.368 133.075 12.3924C133.048 12.4847 133.02 12.5781 133.02 12.6829C133.003 12.8382 132.944 12.8936 132.83 12.9164C132.807 12.9164 132.79 12.9168 132.775 12.9172C132.748 12.9179 132.733 12.9183 132.718 12.9148C132.699 12.9103 132.682 12.8993 132.642 12.8738L132.628 12.8646C132.612 12.847 132.595 12.8323 132.578 12.8181C132.532 12.7779 132.49 12.7418 132.49 12.657C132.49 12.5382 132.463 12.3459 132.427 12.2674C132.373 12.1959 132.286 12.1628 132.188 12.1376C131.653 12.1395 131.616 12.7496 131.646 12.9812C131.606 13.0249 131.583 14.1193 132.313 14.4222Z" fill="white"/>
<path d="M132.752 5.25246C133.63 5.61966 134.249 7.3971 134.047 8.26494C133.872 9.33846 133.407 10.4979 133.072 10.3469C132.904 10.2845 132.945 10.051 133.002 9.72113C133.069 9.33875 133.158 8.82684 132.971 8.30166C132.881 8.00757 132.577 7.60115 132.289 7.21512C131.953 6.76535 131.637 6.34326 131.705 6.1587C131.458 5.44014 132.214 5.12574 132.752 5.25246Z" fill="white"/>
<path d="M143.726 24.5853C143.825 25.5317 143.938 26.6166 143.809 28.1084C143.472 29.6578 142.686 31.2236 142.003 31.219C142.207 25.0105 141.12 19.4845 139.888 13.2188C139.702 12.271 139.512 11.3062 139.323 10.3196C139.109 9.18221 139.304 7.68532 139.864 5.85389C140.326 5.24434 140.368 5.3563 140.484 5.66196C140.519 5.75574 140.561 5.86776 140.624 5.98276C140.853 6.56529 141.336 7.34857 141.831 8.15087C142.307 8.92289 142.794 9.71268 143.076 10.358C143.154 10.8098 142.888 10.7748 142.587 10.7354C142.194 10.6838 141.742 10.6246 141.931 11.6424C142.208 12.5916 143.571 22.1636 143.627 23.418C143.643 23.7957 143.683 24.1777 143.726 24.5853Z" fill="white"/>
<path d="M158.801 8.27743C159.601 8.67511 160.069 10.9025 159.981 11.5388C159.822 12.7011 159.398 13.9563 159.093 13.7929C158.905 13.7102 158.951 13.1677 158.998 12.6238C159.033 12.2079 159.069 11.7912 159 11.5786C158.918 11.2602 158.641 10.8201 158.378 10.4021C158.072 9.91519 157.785 9.45831 157.846 9.25855C157.621 8.48071 158.311 8.14039 158.801 8.27743Z" fill="white"/>
<path d="M100.48 26.4687C100.564 26.0009 100.116 24.3641 99.3505 24.0721C98.8808 23.971 98.2383 24.0987 98.4365 24.793C98.4273 24.9487 98.6023 25.1171 98.8158 25.3225C99.1202 25.6155 99.5028 25.9838 99.5408 26.4977C99.6068 26.654 99.5727 26.9602 99.5387 27.2658C99.4942 27.6655 99.4498 28.0642 99.6296 28.1249C99.9209 28.2449 100.327 27.3226 100.48 26.4687Z" fill="white"/>
<path d="M78.8989 4.72279C80.0278 5.06311 80.0945 6.72247 80.0113 7.20751C79.8608 8.09287 79.4609 9.04904 79.1737 8.92448C78.9933 8.86032 79.0171 8.43262 79.0406 8.01056C79.0578 7.70155 79.0748 7.39556 79.0114 7.23751C78.9358 7.00006 78.6993 6.67382 78.4728 6.36151C78.1986 5.98317 77.9391 5.62527 77.9984 5.4704C77.786 4.8776 78.4361 4.61815 78.8989 4.72279Z" fill="white"/>
<path d="M100.531 15.2245C99.992 14.4114 100.328 13.0148 101.194 12.5463C101.68 12.2547 102.007 12.4405 101.857 12.8646C101.654 13.3066 101.636 13.7485 101.725 14.1903L101.736 14.2159C101.835 14.4403 101.899 14.5854 102.308 14.5088C103.315 13.6071 103.289 14.0842 103.289 14.0842C103.289 14.0842 102.785 15.7813 101.937 15.6752C101.923 15.6752 101.896 15.6799 101.86 15.6863C101.624 15.7284 100.968 15.8455 100.531 15.2245Z" fill="white"/>
<path d="M112.55 7.59078C112.513 7.59078 112.737 5.42574 112.925 5.01126C113.363 3.92118 114.025 3.89046 114.2 4.87278C114.198 4.91677 114.195 4.96076 114.193 5.00503C114.16 5.60972 114.124 6.26624 113.6 7.6827C113.225 8.5119 112.4 8.2359 112.55 7.59078Z" fill="white"/>
<path d="M145.925 21.8036C146.038 21.691 150.575 18.4661 150.575 18.4661C151.038 18.3037 150.938 20.1286 150.725 20.1161C150.813 20.4785 146.25 23.5786 145.925 23.4536C145.7 23.6161 145.475 22.2037 145.925 21.8036Z" fill="white"/>
<path d="M151.093 25.1514C151.182 24.5151 150.863 22.1751 150.063 21.7774C149.573 21.6404 148.921 22.0558 149.146 22.8337C149.075 23.064 149.309 23.6506 149.54 24.2273C149.681 24.5802 149.82 24.9295 149.887 25.1912C149.956 25.4023 149.928 25.7799 149.901 26.1533C149.864 26.6478 149.829 27.1349 150.018 27.218C150.323 27.3814 151.122 26.3888 151.093 25.1514Z" fill="white"/>
<path d="M123.072 31.8538C123.388 31.3925 124.363 30.7287 124.385 30.7287C124.795 30.5235 125.196 30.8388 125.244 30.8764C125.248 30.88 125.25 30.881 125.247 30.8787C125.281 31.0849 125.225 31.2847 125.164 31.4983C125.092 31.7507 125.014 32.0226 125.075 32.3477C125.078 32.3537 125.08 32.3597 125.082 32.3657C125.086 32.3759 125.09 32.3861 125.095 32.3963C125.185 32.6238 125.275 32.8514 125.689 32.7557C126.409 32.1888 127.077 32.1524 127.797 32.1161C128.349 32.1495 128.371 33.0843 128.022 33.0912C127.058 33.3009 126.479 33.5458 125.872 33.8028C125.641 33.9003 125.407 33.9995 125.146 34.0992C124.696 34.3616 124.309 34.0287 124.309 33.9912C124.309 33.9848 124.302 33.9731 124.29 33.9551C124.232 33.868 124.078 33.6337 124.23 33.1397C124.263 32.6616 124.07 32.3996 123.672 32.4538C123.372 32.616 123.108 32.7236 122.958 32.3787C122.899 32.124 122.88 32.0002 123.072 31.8538Z" fill="white"/>
<path d="M154.822 33.997C155.157 33.5905 155.032 33.3615 154.837 33.1141C154.752 33.0604 154.668 33.0223 154.589 32.9866C154.356 32.8811 154.17 32.7969 154.154 32.3962C154.207 32.0427 154.307 31.9124 154.599 31.8505C154.688 31.8431 154.768 31.8358 154.841 31.8291C155.21 31.7953 155.413 31.7768 155.818 31.8505C156.296 32.0096 156.409 32.2042 156.277 32.4958C156.159 32.7939 156.096 32.942 155.922 33.1839C155.713 33.5727 156.152 33.6392 156.286 33.6392C156.376 33.6501 156.48 33.6447 156.586 33.6392C156.811 33.6275 157.045 33.6153 157.171 33.7597C157.197 33.7597 157.303 34.2104 156.985 34.4489C156.985 34.4756 155.023 35.7483 154.174 35.5097C153.715 35.3859 153.811 34.9971 153.961 34.7408C154.12 34.595 154.256 34.4819 154.391 34.3689C154.527 34.2559 154.663 34.1428 154.822 33.997Z" fill="white"/>
<path d="M102.534 7.45754C102.299 7.51527 101.991 7.30515 101.846 6.98822C101.702 6.6713 101.776 6.36757 102.012 6.30984C102.247 6.2521 102.556 6.46222 102.7 6.77915C102.844 7.09607 102.77 7.3998 102.534 7.45754Z" fill="#1E9A1C"/>
<path d="M122.306 19.8952C122.701 20.1233 123.122 20.1339 123.246 19.9187C123.37 19.7036 123.152 19.3442 122.757 19.1161C122.363 18.888 121.942 18.8775 121.818 19.0926C121.693 19.3077 121.912 19.6671 122.306 19.8952Z" fill="#1E9A1C"/>
<path d="M89.3148 21.2137C89.3492 21.1633 89.3819 21.1153 89.4076 21.0703C89.5485 20.8303 90.3018 20.579 90.5716 21.2532C90.6878 21.5491 90.5817 21.8626 90.4422 22.0162C90.3815 22.1355 90.1476 22.1244 89.9246 22.1138C89.8621 22.1108 89.8003 22.1078 89.7436 22.1078C89.445 22.0946 89.302 22.0454 89.1227 21.8026C89.0562 21.5929 89.1954 21.3888 89.3148 21.2137Z" fill="#1E9A1C"/>
<path d="M118.394 27.6912C119.319 27.3662 118.825 26.5913 117.837 26.5286C117.466 26.4903 117.078 26.462 116.69 26.4338C115.811 26.3697 114.937 26.306 114.279 26.1273C113.65 26.1245 113.26 26.5461 113.294 27.0473C113.504 29.011 114.898 29.9888 115.538 30.4377C115.582 30.4688 115.623 30.4974 115.66 30.5237C115.707 30.5481 115.756 30.5763 115.808 30.6054C116.283 30.8732 116.904 31.2234 116.6 29.5663C116.604 28.2998 117.413 28.0246 118.286 27.7279C118.322 27.7157 118.358 27.7035 118.394 27.6912Z" fill="#1E9A1C"/>
</g>
<defs>
<clipPath id="clip0_322_823">
<rect width="240" height="120" fill="white"/>
</clipPath>
</defs>
</svg>
