<svg width="240" height="120" viewBox="0 0 240 120" fill="none" xmlns="http://www.w3.org/2000/svg">
<g clip-path="url(#clip0_909_308779)">
<path d="M0 0H240V120H0V0Z" fill="white"/>
<path d="M0 0H240V30H0V0Z" fill="#FDD406"/>
<path d="M0 60H240V120H0V60Z" fill="#D91C16"/>
<path d="M0 90H240V120H0V90Z" fill="#0F3296"/>
<path d="M120 60L0 120V0L120 60Z" fill="#1E9A1C"/>
<path d="M40.7295 34.9391C34.642 35.6711 29.0337 38.6083 24.9652 43.1953C20.8967 47.7823 18.65 53.7011 18.65 59.8325C18.65 65.9639 20.8967 71.8827 24.9652 76.4697C29.0337 81.0567 34.642 83.9939 40.7295 84.7259C36.893 85.7896 32.8624 85.9522 28.9527 85.2008C25.0429 84.4495 21.3598 82.8047 18.1907 80.3947C15.0217 77.9848 12.4526 74.875 10.684 71.3081C8.91535 67.7412 7.99512 63.8138 7.99512 59.8325C7.99512 55.8512 8.91535 51.9238 10.684 48.3569C12.4526 44.79 15.0217 41.6802 18.1907 39.2703C21.3598 36.8603 25.0429 35.2155 28.9527 34.4642C32.8624 33.7128 36.893 33.8754 40.7295 34.9391Z" fill="white"/>
<path d="M40.7294 37.7989L41.9236 41.4732H45.7896L42.6623 43.7458L43.8567 47.4207L40.7309 45.1493L37.6052 47.4207L38.7987 43.7451L35.6723 41.4732H39.5364L40.7294 37.7989Z" fill="white"/>
<path d="M41.9236 52.8699L40.7294 49.1956L39.5364 52.8699H35.6723L38.7987 55.1418L37.6052 58.8174L40.7309 56.546L43.8567 58.8174L42.6623 55.1425L45.7896 52.8699H41.9236Z" fill="white"/>
<path d="M40.7294 60.5923L41.9236 64.2666H45.7896L42.6623 66.5392L43.8567 70.2141L40.7309 67.9427L37.6052 70.2141L38.7987 66.5385L35.6723 64.2666H39.5364L40.7294 60.5923Z" fill="white"/>
<path d="M41.9236 75.6633L40.7294 71.989L39.5364 75.6633H35.6723L38.7987 77.9352L37.6052 81.6108L40.7309 79.3393L43.8567 81.6108L42.6623 77.9359L45.7896 75.6633H41.9236Z" fill="white"/>
</g>
<defs>
<clipPath id="clip0_909_308779">
<rect width="240" height="120" fill="white"/>
</clipPath>
</defs>
</svg>
