<svg width="240" height="120" viewBox="0 0 240 120" fill="none" xmlns="http://www.w3.org/2000/svg">
<g clip-path="url(#clip0_909_222435)">
<path d="M0 120L0 0L240 0L0 120Z" fill="#1E9A1C"/>
<path d="M240 0V120L0 120L240 0Z" fill="#D91C16"/>
<path d="M179.427 0L240 0V30.2866L60.5733 120H0L0 89.7134L179.427 0Z" fill="#FDD406"/>
<path d="M196.733 0L240 0V21.6333L43.2667 120H0L0 98.3667L196.733 0Z" fill="black"/>
<path d="M150.259 27.6265L158.869 36.2794L169.757 30.7655L164.19 41.6262L172.8 50.2788L160.748 48.3398L155.18 59.2019L153.3 47.1415L141.25 45.2026L152.139 39.688L150.259 27.6265Z" fill="white"/>
<path d="M76.0293 65.2161L84.6394 73.869L95.5272 68.355L89.9596 79.2158L98.5695 87.8684L86.5181 85.9294L80.9499 96.7914L79.0704 84.7311L67.0197 82.7922L77.9089 77.2775L76.0293 65.2161Z" fill="white"/>
</g>
<defs>
<clipPath id="clip0_909_222435">
<rect width="240" height="120" fill="white"/>
</clipPath>
</defs>
</svg>
