<svg width="240" height="120" viewBox="0 0 240 120" fill="none" xmlns="http://www.w3.org/2000/svg">
<path d="M240 0H0V120H240V0Z" fill="#0F3296"/>
<path d="M240 20H0V100H240V20Z" fill="white"/>
<path d="M240 23.3333H0V96.6666H240V23.3333Z" fill="#E23726"/>
<path d="M61.6618 86.6666C76.3894 86.6666 88.3284 74.7275 88.3284 59.9999C88.3284 45.2723 76.3894 33.3333 61.6618 33.3333C46.9342 33.3333 34.9951 45.2723 34.9951 59.9999C34.9951 74.7275 46.9342 86.6666 61.6618 86.6666Z" fill="white"/>
<path d="M52.2782 63.049L37.0938 52.0169H55.8628L61.6627 34.1665L67.4627 52.0169H86.2316L71.0472 63.049L76.8472 80.8994L61.6627 69.8673L46.4783 80.8994L52.2782 63.049Z" fill="#E23726"/>
</svg>
