<svg width="240" height="120" viewBox="0 0 240 120" fill="none" xmlns="http://www.w3.org/2000/svg">
<g clip-path="url(#clip0_307_36876)">
<path d="M0 0H240V120H0V0Z" fill="white"/>
<path d="M0 0H240V36H0V0Z" fill="#0F3296"/>
<path d="M0 84H240V120H0V84Z" fill="#1E9A1C"/>
<path d="M120.032 38C120.341 37.9996 120.644 38.0844 120.908 38.2451C121.172 38.4057 121.386 38.6361 121.528 38.9107C125.085 39.335 126.956 41.9107 127.607 44.9064C128.368 48.4079 127.562 53.1693 125.091 58.1686L134.582 70.7621C135.086 70.5264 135.584 70.2785 136.076 70.0186L139.564 77.4029C133.528 80.5283 126.83 82.1596 120.032 82.1596C113.235 82.1596 106.536 80.5283 100.5 77.4029L103.989 70.0186C104.48 70.2785 104.978 70.5264 105.482 70.7621L114.973 58.1686C112.502 53.1693 111.696 48.4079 112.457 44.9064C113.109 41.9107 114.979 39.335 118.536 38.9107C118.678 38.6361 118.892 38.4057 119.156 38.2451C119.42 38.0844 119.723 37.9996 120.032 38ZM123.791 56.4414C125.715 52.145 126.341 48.0714 125.732 45.3779C125.194 42.995 123.988 41.225 121.592 40.8479V47L124.592 50H122.192V54.32L123.791 56.4414ZM118.472 40.8479C116.076 41.225 114.87 42.995 114.332 45.3779C113.724 48.0714 114.349 52.145 116.274 56.4414L117.872 54.32V50H115.472L118.472 47V40.8479ZM105.152 73.1771L104.126 75.3457L105.786 74.9L105.152 73.1771ZM104.316 76.2886C105.078 76.6162 105.85 76.9199 106.631 77.1993L106.119 75.8064L104.316 76.2886ZM108.094 75.9629L110.248 75.2814L109.629 73.8929C108.74 73.6229 107.862 73.3183 106.997 72.98L108.094 75.9629ZM110.64 76.1643L108.426 76.865L108.81 77.9064C109.779 78.1907 110.758 78.438 111.746 78.6479L110.64 76.1643ZM113.031 77.1071L115.404 76.1343L114.836 75.0607C113.839 74.914 112.849 74.7253 111.868 74.495L113.031 77.1071ZM115.856 76.9871L113.421 77.9836L113.893 79.0443C114.97 79.2123 116.054 79.3359 117.141 79.415L115.856 76.9871ZM118.247 77.66L121.206 76.1129L120.778 75.4314C119.519 75.4579 118.259 75.4179 117.004 75.3114L118.247 77.66ZM121.723 76.9271L118.697 78.5086L119.229 79.5114C120.58 79.5387 121.932 79.4972 123.279 79.3871L121.723 76.9271ZM124.206 77.4886L126.534 75.89L125.859 74.9621C124.859 75.127 123.852 75.2492 122.841 75.3286L124.206 77.4886ZM127.099 76.6657L124.721 78.3007L125.271 79.1729C126.36 79.0291 127.443 78.8404 128.516 78.6071L127.099 76.6657ZM129.264 76.5779L131.201 74.8593L130.41 73.9014C129.552 74.1618 128.684 74.3899 127.809 74.585L129.264 76.5779ZM131.814 75.5986L129.831 77.3579L130.406 78.1464C131.349 77.8916 132.282 77.6021 133.204 77.2786L131.814 75.5986ZM133.789 75.1636L135.103 73.58L134.531 72.3693C133.778 72.7027 133.014 73.01 132.24 73.2907L133.789 75.1636ZM135.557 74.5379L134.413 75.9157L134.985 76.6079C135.418 76.4326 135.848 76.2497 136.275 76.0593L135.557 74.5379Z" fill="black"/>
</g>
<defs>
<clipPath id="clip0_307_36876">
<rect width="240" height="120" fill="white"/>
</clipPath>
</defs>
</svg>
