<svg width="240" height="120" viewBox="0 0 240 120" fill="none" xmlns="http://www.w3.org/2000/svg">
<path d="M240 0H0V120H240V0Z" fill="#1E9A1C"/>
<path d="M240 0H0V90H240V0Z" fill="black"/>
<path d="M240 0H0V30H240V0Z" fill="#E23726"/>
<path d="M114 75C118.14 75 121.888 73.3229 124.602 70.6109C122.469 72.1358 119.856 73.033 117.033 73.033C109.835 73.033 104 67.1979 104 60C104 52.8021 109.835 46.967 117.033 46.967C119.856 46.967 122.469 47.8642 124.602 49.3891C121.888 46.6771 118.14 45 114 45C105.716 45 99 51.7157 99 60C99 68.2843 105.716 75 114 75Z" fill="white"/>
<path d="M129 57.4961L121.294 60L129 62.5039V70.6066L133.763 64.0514L141.469 66.5552L136.706 60L141.469 53.4448L133.763 55.9486L129 49.3934V57.4961Z" fill="white"/>
</svg>
