<svg width="240" height="120" viewBox="0 0 240 120" fill="none" xmlns="http://www.w3.org/2000/svg">
<g clip-path="url(#clip0_307_35547)">
<path fill-rule="evenodd" clip-rule="evenodd" d="M0 0H80V120H0V0Z" fill="#0F3296"/>
<path fill-rule="evenodd" clip-rule="evenodd" d="M80 0H160V120H80V0Z" fill="#FDD406"/>
<path fill-rule="evenodd" clip-rule="evenodd" d="M160 0H240V120H160V0Z" fill="#D91C16"/>
<g clip-path="url(#clip1_307_35547)">
<path d="M110.819 15.2525C110.336 15.2307 109.857 15.3612 109.452 15.6254C109.932 15.7667 110.259 16.2083 110.254 16.7072V18.0254H108.933C108.436 18.0305 107.994 17.7086 107.848 17.2344C107.35 18.0756 107.35 19.1205 107.848 19.9616C107.99 19.4831 108.433 19.1564 108.933 19.1615H110.254V25.4975C110.258 25.9747 109.958 26.4018 109.507 26.561C110.137 26.6466 110.68 27.4904 110.828 27.9519C110.977 27.4915 111.52 26.6466 112.15 26.561C111.694 26.4059 111.39 25.9775 111.393 25.4975V19.1611H112.715C113.212 19.1559 113.654 19.478 113.799 19.9524C114.297 19.1111 114.297 18.0663 113.799 17.225C113.658 17.7034 113.215 18.0299 112.715 18.0248H111.393V16.7069C111.388 16.2107 111.711 15.7704 112.186 15.6249C111.781 15.3609 111.303 15.2306 110.819 15.2523V15.2525Z" fill="black"/>
<path d="M110.82 15.5261C110.554 15.5272 110.289 15.5701 110.037 15.6532C110.347 15.9164 110.527 16.3015 110.529 16.7078V18.0259C110.528 18.0444 110.524 18.0628 110.52 18.0806V18.2896H110.31C110.292 18.2945 110.274 18.2976 110.255 18.2989H108.934C108.531 18.2962 108.149 18.1207 107.886 17.8171C107.798 18.0685 107.751 18.3327 107.749 18.599C107.75 18.8646 107.793 19.1284 107.876 19.3807C108.14 19.0712 108.526 18.8921 108.934 18.89H110.528C110.527 18.9174 110.519 18.9438 110.519 18.9715V19.1079C110.524 19.1257 110.527 19.144 110.528 19.1624V25.4985C110.515 25.8841 110.336 26.2453 110.036 26.4893C110.233 26.6117 110.408 26.7653 110.556 26.9441C110.663 27.0917 110.755 27.2501 110.829 27.4166C110.904 27.2502 110.995 27.0918 111.103 26.9441C111.248 26.7695 111.42 26.6191 111.613 26.4986C111.312 26.2519 111.132 25.8872 111.121 25.4986V18.8985H111.339C111.357 18.8938 111.376 18.8908 111.394 18.8897H112.716C113.118 18.8924 113.5 19.0679 113.763 19.3713C113.852 19.1199 113.898 18.8558 113.9 18.5896C113.899 18.3239 113.856 18.0602 113.773 17.8079C113.509 18.1173 113.123 18.2965 112.716 18.2985H111.394C111.376 18.2973 111.357 18.2942 111.339 18.2893H111.13V18.0803C111.125 18.0624 111.122 18.0441 111.121 18.0256V16.7076C111.123 16.3061 111.299 15.9252 111.603 15.6623C111.351 15.5745 111.087 15.5285 110.82 15.5259" fill="#FDD406"/>
<path d="M127.361 38.47C126.589 37.9476 125.929 37.2769 125.42 36.4971C124.285 34.6818 123.807 32.4532 123.807 30.1884C123.807 29.2311 124.882 28.1534 124.882 27.3792C124.889 26.7533 124.853 26.1277 124.773 25.5068C125.154 25.5587 125.821 26.234 125.821 26.234C125.821 26.234 125.798 24.2917 125.182 23.9523C125.182 23.9523 125.431 23.697 126.331 23.6705C126.078 23.032 124.827 22.2524 124.827 22.2524C124.908 22.1273 125.021 22.0267 125.155 21.9616C125.501 21.7924 125.869 21.673 126.249 21.6069C125.833 21.5171 125.422 21.4048 125.019 21.2704C123.854 20.8823 122.716 20.4209 121.61 19.8889C120.196 19.1816 118.635 18.8172 117.054 18.8253C116.417 18.8254 115.48 18.8428 114.93 19.2074C114.427 19.5403 114.468 19.9734 114.292 20.1254C113.878 20.4834 113.167 20.4708 112.825 20.4708C110.61 20.4708 110.528 22.8345 110.528 22.8345C110.528 22.8345 111.095 21.9798 112.096 21.9798C113.76 21.9798 115.021 22.8844 115.021 23.2252C115.021 23.3631 114.85 23.3887 114.839 23.3887C113.752 23.3887 112.111 22.7644 111.239 22.7342V23.1614C113.185 23.8368 115.158 24.7928 115.158 29.0067C115.158 31.6601 114.839 34.3676 113.508 36.4973C112.995 37.277 112.332 37.9475 111.558 38.4701L119.46 39.8906L127.361 38.47Z" fill="black"/>
<path d="M119.459 36.6943L111.558 38.4701C111.199 38.3618 109.509 37.8379 108.323 37.1793C106.236 36.0194 105.153 34.8653 102.673 34.7521V32.8701C102.673 31.8647 103.037 30.9589 103.037 29.9975C101.992 29.7178 99.0893 26.1779 96.4119 24.6067C92.4724 27.152 89.422 31.3305 89.422 33.2521C89.422 33.2521 89.5404 74.5399 89.422 88.9235C89.422 89.7524 88.9209 90.9235 88.9209 90.9235C90.3591 90.3165 92.9954 86.7185 93.5505 85.3508V86.0056C95.7225 85.0175 97.3129 82.4214 98.0251 81.0784C98.0378 81.2725 98.0709 81.7599 98.0709 81.7599C100.011 80.0632 102.481 70.0333 102.481 70.0333L106.598 74.0687C106.598 74.0687 105.109 77.0832 104.529 77.623C104.805 77.6546 105.081 77.6698 105.358 77.6684C105.088 78.057 103.018 81.029 102.369 82.1501C101.762 83.1988 101.334 82.732 100.401 82.732C99.627 82.732 97.8729 83.9617 97.5849 84.4592C97.2733 84.9682 97.0919 85.5457 97.0566 86.141C97.0566 86.7164 97.6672 87.5046 97.6672 87.5046C97.6896 87.3652 97.753 87.2355 97.8493 87.1319C97.8493 87.1319 99.4538 89.1257 99.6902 89.3862C99.8742 89.5892 100.695 89.7211 100.984 89.4592C101.708 88.8027 102.409 88.3437 103.053 87.3956C103.385 86.9071 103.41 86.3472 103.791 85.8227C105.066 84.0682 107.603 80.7087 108.184 79.9412C108.223 80.1548 108.256 80.3328 108.293 80.5503C108.95 79.2261 112.111 76.6959 112.111 76.6959L115.419 78.2141C115.419 78.2141 109.244 92.373 103.763 94.5501C103.763 94.5501 106.147 95.5607 109.076 97.0773C109.503 97.2986 109.943 97.5362 110.388 97.7775C110.757 97.3346 111.145 96.8426 111.527 96.3319C113.278 93.995 114.991 91.2866 114.991 91.2866C115.11 91.99 114.185 94.1623 112.621 96.8413C112.313 97.3677 111.993 97.9182 111.637 98.4773C112.034 98.7034 112.427 98.9318 112.822 99.1685C115.722 100.91 118.447 102.911 119.456 104.75L120.168 102.973L119.456 101.195V39.0519L119.812 38.164L119.459 36.6943Z" fill="black"/>
<path d="M119.456 101.195C118.433 100.088 116.293 98.735 113.888 97.4865C116.796 92.2807 118.237 84.0521 117.561 82.4139C117.561 82.4139 116.367 86.6816 114.909 89.1136C113.558 91.366 111.896 93.8993 110.288 95.7773C109.08 95.2567 107.845 94.8015 106.588 94.4135C111.405 90.7123 116.33 78.4776 116.33 78.4776L111.237 76.123C111.237 76.123 109.331 78.3389 108.713 78.7504C108.713 78.7504 108.448 77.6484 108.293 77.2595C108.293 77.2595 107.563 77.8103 107.164 77.8235C107.164 77.8235 107.044 77.0755 106.954 76.5868C106.451 76.9212 105.614 76.8505 105.614 76.8505C106.349 76.5035 107.218 74.3778 107.218 74.3778L102.355 67.9242C102.355 67.9242 100.646 76.1132 98.7002 77.7966V42.5339L100.24 43.9609L102.573 41.7883V40.1338L100.505 42.0608V37.0701C100.816 36.5997 101.023 36.2486 101.179 35.9702C101.514 36.5525 102.596 38.3371 103.867 39.4338C104.076 38.5854 105.453 37.7792 105.453 37.7792C105.453 37.7792 105.946 39.1124 106.701 39.4427C106.967 38.976 108.552 37.9429 108.552 37.9429C108.552 37.9429 107.196 38.1483 106.647 38.6612C106.175 38.5559 106.054 36.6976 106.054 36.6976C106.054 36.6976 104.059 37.6669 103.712 38.3611C103.332 38.2584 102.74 36.765 102.509 36.1521C103.002 36.0972 103.498 36.0699 103.995 36.0704C104.564 36.0704 105.292 36.3392 106.054 36.6976C106.892 37.0911 107.769 37.5893 108.551 37.9431C109.554 38.3959 111.071 38.4879 111.513 38.5067C110.982 38.8744 110.425 39.2026 109.846 39.4885C109.846 39.4885 112.233 39.4665 113.91 38.6338C114.52 38.2669 115.104 37.86 115.66 37.4157C115.405 38.1585 115.015 38.8486 114.511 39.4519C116.974 39.244 118.201 37.841 118.549 37.3702C118.77 37.9714 119.077 38.5377 119.46 39.0519H120.35V99.4272L119.456 101.195Z" fill="#AD7D5A"/>
<path d="M101.306 30.1791L101.351 31.3064V34.6247C100.458 34.318 99.3348 32.8538 98.7905 32.0794V31.6248C98.8025 31.2741 98.9611 30.9445 99.2278 30.7158L98.6902 30.525C98.426 30.8034 98.2735 31.1689 98.2619 31.5521V31.8158L96.6581 33.534L95.0816 31.1522V30.5705C95.0816 30.1784 95.3839 29.7412 95.6375 29.4433L95.1088 29.2524C94.842 29.5972 94.562 30.0619 94.562 30.4977V30.9702C94.1911 31.3531 92.7485 32.834 92.7485 32.834C92.7485 32.834 92.0247 31.2826 91.8281 30.8614C92.9327 29.3351 94.7238 27.6261 96.4119 26.3999C96.4119 26.3999 100.073 29.7526 101.306 30.1791Z" fill="#AD7D5A"/>
<path d="M92.0278 33.3972V36.1338L90.752 37.3154V33.252C90.7884 32.7666 90.9381 32.2965 91.1893 31.8792L92.0278 33.3972Z" fill="#AD7D5A"/>
<path d="M96.0012 34.4518V36.1427L94.5342 37.5155V32.2249L96.0012 34.4518Z" fill="#AD7D5A"/>
<path d="M94.0143 37.5063L92.5469 36.1427V34.1611L94.0143 32.6248V37.5063Z" fill="#AD7D5A"/>
<path d="M100.713 35.4519C100.372 35.9322 99.4797 37.1071 98.5166 37.6247V32.9792C98.7375 33.3459 99.751 34.9813 100.713 35.4519Z" fill="#AD7D5A"/>
<path d="M97.9967 33.2156V37.5063L96.5293 36.1427V34.6246L97.9967 33.2156Z" fill="#AD7D5A"/>
<path d="M92.0278 37.7881V42.0699L90.752 40.8789V38.9789L92.0278 37.7881Z" fill="#AD7D5A"/>
<path d="M94.0135 39.1608V40.697L92.5459 42.0604V37.7971L94.0135 39.1608Z" fill="#AD7D5A"/>
<path d="M95.9993 37.7974V42.0609L94.5322 40.6881V39.17L95.9993 37.7974Z" fill="#AD7D5A"/>
<path d="M97.9957 39.1701V40.6882L96.5283 42.0608V37.7974L97.9957 39.1701Z" fill="#AD7D5A"/>
<path d="M99.9822 42.0699L98.5146 40.6971V39.2701C99.0208 38.962 99.5297 38.3957 99.9821 37.7974L99.9822 42.0699Z" fill="#AD7D5A"/>
<path d="M96.264 43.9607L97.8133 42.5243V77.7959C97.8133 77.7959 97.9213 79.5461 97.9956 80.6867C97.3066 81.3813 94.7148 83.9956 94.7148 83.9956V42.5149L96.264 43.9607Z" fill="#AD7D5A"/>
<path d="M93.8303 82.6775C93.8303 83.8114 91.7547 86.4551 90.75 87.0592V42.5342L92.281 43.9612L93.8303 42.5247V82.6775Z" fill="#AD7D5A"/>
<path d="M106.698 78.8505L107.828 78.0777C107.828 78.0777 107.903 78.4506 108.001 78.9597C107.517 79.6196 104.738 83.4033 103.363 85.2503C103.021 85.7091 102.733 86.8774 102.733 86.8774C102.733 86.8774 102.233 86.6411 102.233 86.214C102.233 85.7946 102.287 85.2958 102.287 85.2958C102.018 85.5691 101.65 85.723 101.266 85.723C101.266 85.2075 102.266 84.6483 102.305 83.9142C101.543 84.4778 100.881 84.1886 99.9998 84.4597C99.0397 84.7547 98.7724 85.1571 98.4779 85.1416C98.3045 85.1322 98.1475 84.8339 98.2137 84.6506C98.3284 84.3333 99.5158 83.455 100.346 83.2963C100.545 83.2583 102.109 83.6358 102.424 83.1508C103.722 81.1528 105.829 77.9092 106.033 77.5967C106.157 77.5733 106.277 77.5302 106.388 77.469C106.388 77.469 106.376 78.4902 106.698 78.8505Z" fill="#D91C16"/>
<path d="M99.4327 85.0771C99.4951 85.145 99.4909 85.2505 99.4232 85.3133L98.913 85.7586C98.8399 85.8156 98.7344 85.8034 98.6763 85.7313C98.6136 85.6634 98.6177 85.5578 98.6855 85.4949L99.1957 85.0496C99.2282 85.0212 99.2713 85.008 99.3142 85.0134C99.3602 85.0194 99.4023 85.0421 99.4327 85.0771Z" fill="#D91C16"/>
<path d="M100.206 85.6133C100.358 85.7722 100.351 86.0232 100.192 86.1739L100.188 86.1771L98.9488 87.2587C98.7606 87.3981 98.4949 87.359 98.3552 87.1713C98.2307 87.0041 98.2466 86.7714 98.3928 86.6227L99.6322 85.5499C99.694 85.4978 99.7704 85.466 99.851 85.4589C99.9873 85.4514 100.119 85.5087 100.206 85.6133Z" fill="#D91C16"/>
<path d="M100.918 86.4495C101.069 86.6082 101.062 86.8589 100.903 87.0096L100.899 87.0132L99.651 88.0949C99.4781 88.2332 99.2256 88.2054 99.087 88.033L99.0858 88.0314C98.9332 87.8679 98.9415 87.6122 99.1043 87.4589L100.343 86.3862C100.402 86.3344 100.475 86.3025 100.553 86.2951C100.692 86.2873 100.827 86.3444 100.918 86.4495Z" fill="#D91C16"/>
<path d="M101.345 87.1133C101.48 87.102 101.612 87.1561 101.7 87.2587C101.853 87.4223 101.845 87.6778 101.682 87.8314L100.443 88.9043C100.254 89.0406 99.9904 88.9987 99.8537 88.8106C99.7353 88.6476 99.7492 88.4239 99.8868 88.2767L101.135 87.1951C101.194 87.1457 101.268 87.117 101.345 87.1133Z" fill="#D91C16"/>
<path d="M119.452 36.6943L127.353 38.4701C127.712 38.3618 129.402 37.8379 130.588 37.1793C132.675 36.0194 133.758 34.8653 136.238 34.7521V32.8701C136.238 31.8647 135.874 30.9589 135.874 29.9975C136.919 29.7178 139.822 26.1779 142.499 24.6067C146.439 27.152 149.489 31.3305 149.489 33.2521C149.489 33.2521 149.371 74.5399 149.489 88.9235C149.489 89.7524 149.99 90.9235 149.99 90.9235C148.552 90.3165 145.916 86.7185 145.361 85.3508V86.0056C143.189 85.0175 141.598 82.4214 140.886 81.0784C140.873 81.2725 140.84 81.7599 140.84 81.7599C138.9 80.0632 136.43 70.0333 136.43 70.0333L132.313 74.0687C132.313 74.0687 133.802 77.0832 134.382 77.623C134.107 77.6546 133.83 77.6698 133.553 77.6684C133.823 78.057 135.893 81.029 136.542 82.1501C137.149 83.1988 137.577 82.732 138.51 82.732C139.284 82.732 141.038 83.9617 141.326 84.4592C141.638 84.9682 141.819 85.5457 141.854 86.141C141.854 86.7164 141.244 87.5046 141.244 87.5046C141.221 87.3652 141.158 87.2355 141.062 87.1319C141.062 87.1319 139.457 89.1257 139.221 89.3862C139.037 89.5892 138.216 89.7211 137.927 89.4592C137.203 88.8027 136.502 88.3437 135.858 87.3956C135.526 86.9071 135.501 86.3472 135.12 85.8227C133.845 84.0682 131.308 80.7087 130.727 79.9412C130.688 80.1548 130.655 80.3328 130.618 80.5503C129.961 79.2261 126.8 76.6959 126.8 76.6959L123.492 78.2141C123.492 78.2141 129.667 92.373 135.148 94.5501C135.148 94.5501 132.764 95.5607 129.835 97.0773C129.408 97.2986 128.968 97.5362 128.523 97.7775C128.154 97.3346 127.766 96.8426 127.384 96.3319C125.633 93.995 123.92 91.2866 123.92 91.2866C123.801 91.99 124.726 94.1623 126.29 96.8413C126.598 97.3677 126.918 97.9182 127.274 98.4773C126.877 98.7034 126.484 98.9318 126.089 99.1685C123.189 100.91 120.464 102.911 119.455 104.75L118.743 102.973L119.455 101.195V39.0519L119.099 38.164L119.452 36.6943Z" fill="black"/>
<path d="M119.455 101.195C120.479 100.088 122.618 98.735 125.023 97.4865C122.116 92.2807 120.675 84.0521 121.351 82.4139C121.351 82.4139 122.544 86.6816 124.003 89.1136C125.353 91.366 127.016 93.8993 128.623 95.7773C129.831 95.2567 131.066 94.8015 132.323 94.4135C127.506 90.7123 122.581 78.4776 122.581 78.4776L127.675 76.123C127.675 76.123 129.58 78.3389 130.199 78.7504C130.199 78.7504 130.463 77.6484 130.618 77.2595C130.618 77.2595 131.348 77.8103 131.748 77.8235C131.748 77.8235 131.867 77.0755 131.957 76.5868C132.46 76.9212 133.297 76.8505 133.297 76.8505C132.562 76.5035 131.693 74.3778 131.693 74.3778L136.557 67.9242C136.557 67.9242 138.265 76.1132 140.211 77.7966V42.5339L138.671 43.9609L136.338 41.7883V40.1338L138.407 42.0608V37.0701C138.095 36.5997 137.889 36.2486 137.733 35.9702C137.398 36.5525 136.316 38.3371 135.044 39.4338C134.835 38.5854 133.459 37.7792 133.459 37.7792C133.459 37.7792 132.965 39.1124 132.21 39.4427C131.945 38.976 130.36 37.9429 130.36 37.9429C130.36 37.9429 131.716 38.1483 132.265 38.6612C132.736 38.5559 132.857 36.6976 132.857 36.6976C132.857 36.6976 134.852 37.6669 135.199 38.3611C135.58 38.2584 136.172 36.765 136.402 36.1521C135.909 36.0972 135.413 36.0699 134.917 36.0704C134.348 36.0704 133.62 36.3392 132.857 36.6976C132.019 37.0911 131.143 37.5893 130.36 37.9431C129.357 38.3959 127.841 38.4879 127.398 38.5067C127.929 38.8744 128.487 39.2026 129.066 39.4885C129.066 39.4885 126.678 39.4665 125.001 38.6338C124.392 38.2669 123.807 37.86 123.252 37.4157C123.507 38.1585 123.896 38.8486 124.4 39.4519C121.937 39.244 120.711 37.841 120.363 37.3702C120.141 37.9714 119.835 38.5377 119.452 39.0519H118.562V99.4272L119.455 101.195Z" fill="#AD7D5A"/>
<path d="M137.605 30.1791L137.56 31.3064V34.6247C138.453 34.3181 139.576 32.8538 140.12 32.0794V31.6248C140.108 31.2741 139.95 30.9445 139.683 30.7158L140.22 30.5251C140.485 30.8034 140.637 31.169 140.649 31.5521V31.8158L142.253 33.5341L143.829 31.1522V30.5705C143.829 30.1784 143.527 29.7412 143.273 29.4433L143.802 29.2524C144.069 29.5972 144.349 30.0619 144.349 30.4977V30.9702C144.719 31.3531 146.162 32.834 146.162 32.834C146.162 32.834 146.886 31.2826 147.083 30.8614C145.978 29.3351 144.187 27.6261 142.499 26.3999C142.499 26.3999 138.838 29.7526 137.605 30.1791Z" fill="#AD7D5A"/>
<path d="M146.884 33.3972V36.1338L148.16 37.3154V33.252C148.123 32.7666 147.973 32.2965 147.722 31.8792L146.884 33.3972Z" fill="#AD7D5A"/>
<path d="M142.91 34.4518V36.1427L144.377 37.5155V32.2249L142.91 34.4518Z" fill="#AD7D5A"/>
<path d="M144.896 37.5063L146.364 36.1427V34.1611L144.896 32.6248V37.5063Z" fill="#AD7D5A"/>
<path d="M138.198 35.4519C138.539 35.9322 139.431 37.1071 140.394 37.6247V32.9792C140.174 33.3459 139.16 34.9813 138.198 35.4519Z" fill="#AD7D5A"/>
<path d="M140.915 33.2156V37.5063L142.382 36.1427V34.6246L140.915 33.2156Z" fill="#AD7D5A"/>
<path d="M146.884 37.7881V42.0699L148.16 40.8789V38.9789L146.884 37.7881Z" fill="#AD7D5A"/>
<path d="M144.898 39.1608V40.697L146.366 42.0604V37.7971L144.898 39.1608Z" fill="#AD7D5A"/>
<path d="M142.912 37.7974V42.0609L144.379 40.6881V39.17L142.912 37.7974Z" fill="#AD7D5A"/>
<path d="M140.916 39.1701V40.6882L142.383 42.0608V37.7974L140.916 39.1701Z" fill="#AD7D5A"/>
<path d="M138.929 42.0699L140.396 40.6971V39.2701C139.89 38.962 139.381 38.3957 138.929 37.7974L138.929 42.0699Z" fill="#AD7D5A"/>
<path d="M142.647 43.9607L141.097 42.5243V77.7959C141.097 77.7959 140.989 79.5461 140.915 80.6867C141.604 81.3813 144.196 83.9956 144.196 83.9956V42.5149L142.647 43.9607Z" fill="#AD7D5A"/>
<path d="M145.081 82.6775C145.081 83.8114 147.157 86.4551 148.161 87.0592V42.5342L146.63 43.9612L145.081 42.5247V82.6775Z" fill="#AD7D5A"/>
<path d="M132.213 78.8505L131.083 78.0777C131.083 78.0777 131.008 78.4506 130.91 78.9597C131.394 79.6196 134.173 83.4033 135.549 85.2503C135.891 85.7091 136.178 86.8774 136.178 86.8774C136.178 86.8774 136.679 86.6411 136.679 86.214C136.679 85.7946 136.624 85.2958 136.624 85.2958C136.893 85.5691 137.261 85.723 137.645 85.723C137.645 85.2075 136.646 84.6483 136.606 83.9142C137.368 84.4778 138.03 84.1886 138.912 84.4597C139.872 84.7547 140.139 85.1571 140.433 85.1416C140.607 85.1322 140.764 84.8339 140.698 84.6506C140.583 84.3333 139.396 83.455 138.566 83.2963C138.367 83.2583 136.803 83.6358 136.488 83.1508C135.189 81.1528 133.082 77.9092 132.879 77.5967C132.754 77.5733 132.634 77.5302 132.523 77.469C132.523 77.469 132.535 78.4902 132.213 78.8505Z" fill="#D91C16"/>
<path d="M139.479 85.0771C139.416 85.145 139.421 85.2505 139.488 85.3133L139.998 85.7586C140.072 85.8156 140.177 85.8034 140.235 85.7313C140.298 85.6634 140.294 85.5578 140.226 85.4949L139.716 85.0496C139.683 85.0212 139.64 85.008 139.597 85.0134C139.551 85.0194 139.509 85.0421 139.479 85.0771Z" fill="#D91C16"/>
<path d="M138.705 85.6133C138.554 85.7722 138.56 86.0232 138.72 86.1739L138.723 86.1771L139.962 87.2587C140.151 87.3981 140.416 87.359 140.556 87.1713C140.681 87.0041 140.665 86.7714 140.518 86.6227L139.279 85.5499C139.217 85.4978 139.141 85.466 139.06 85.4589C138.924 85.4514 138.792 85.5087 138.705 85.6133Z" fill="#D91C16"/>
<path d="M137.994 86.4495C137.843 86.6082 137.849 86.8589 138.008 87.0096L138.012 87.0132L139.261 88.0949C139.433 88.2332 139.686 88.2054 139.824 88.033L139.826 88.0314C139.978 87.8679 139.97 87.6122 139.807 87.4589L138.568 86.3862C138.51 86.3344 138.436 86.3025 138.358 86.2951C138.219 86.2873 138.085 86.3444 137.994 86.4495Z" fill="#D91C16"/>
<path d="M137.566 87.1133C137.431 87.102 137.299 87.1561 137.211 87.2587C137.058 87.4223 137.066 87.6778 137.229 87.8314L138.469 88.9043C138.657 89.0407 138.921 88.9987 139.058 88.8106C139.176 88.6476 139.162 88.4239 139.024 88.2767L137.776 87.1951C137.717 87.1457 137.643 87.117 137.566 87.1133Z" fill="#D91C16"/>
<path d="M117.628 19.4072C119.668 19.4072 121.103 20.3349 123.033 21.1888C123.538 21.4126 124.003 21.5939 124.417 21.7342C124.192 21.9059 124.014 22.131 123.898 22.3889C123.898 22.3889 124.763 22.5487 125.155 23.2709C125.155 23.2709 124.333 23.3639 124.199 23.8434C124.659 23.878 125.117 24.4573 125.119 25.0163L123.953 24.6524C124.132 25.5506 124.227 26.4637 124.235 27.3796C124.235 28.1052 123.187 28.9589 123.187 30.1886C123.187 34.048 124.162 35.5315 124.855 36.7246C125.126 37.1915 125.347 37.7286 125.803 38.1337C123.806 37.073 122.322 35.7473 122.322 34.5158V29.8523H121.802V34.5158C121.802 35.4088 122.021 35.8249 122.021 35.8249C122.334 36.8129 122.968 38.3379 123.361 38.952C121.523 37.9614 120.59 36.7211 120.59 36.2612V29.8521H120.07V36.3519L120.171 36.7973C119.948 37.1311 119.658 37.5264 119.46 37.6608C119.262 37.5266 118.981 37.1306 118.758 36.7973L118.858 36.3519V29.8521H118.339V36.2612C118.339 36.7209 117.405 37.9614 115.568 38.952C115.961 38.3377 116.594 36.8129 116.908 35.8249C116.908 35.8249 117.126 35.409 117.126 34.5158V29.8523H116.607V34.5158C116.607 35.7458 115.128 37.0737 113.135 38.1337C113.586 37.7283 113.804 37.1888 114.073 36.7246C114.831 35.4198 115.768 33.7622 115.768 29.0431C115.768 27.272 115.506 26.0679 115.048 25.2251C114.909 24.947 114.722 24.2069 115.787 24.2069C116.338 24.2069 117.6 25.1796 117.6 25.1796C117.55 24.695 117.299 24.2534 116.908 23.9615C116.746 23.8346 116.644 23.6472 116.625 23.4431C116.698 23.1699 116.875 22.9354 117.117 22.7886C117.265 22.7215 114.948 22.3187 114.948 21.2705C114.948 21.0523 115.086 20.9068 115.568 20.9068C116.199 20.9068 117.225 21.6613 118.138 21.6613C118.812 21.6613 119.078 21.4976 119.769 21.4976C120.613 21.4976 122.374 23.0921 122.977 23.0338C122.303 22.6121 121.215 21.0157 119.569 21.0157C118.997 21.0157 118.48 21.143 117.946 21.143C117.262 21.143 116.589 20.5156 115.85 20.5156C115.355 20.5156 114.802 20.5432 114.72 20.4155C114.577 20.1926 114.706 20.0633 114.838 19.8792C115.089 19.5317 115.794 19.4308 116.488 19.4067C116.696 19.3994 116.904 19.3958 117.099 19.3977C117.293 19.3997 117.473 19.4072 117.628 19.4072Z" fill="#AD7D5A"/>
<path d="M111.005 21.9028C111.33 21.3804 111.909 21.0703 112.524 21.0893C112.979 21.0893 114.481 21.0579 114.481 21.0579C114.681 21.5766 115.594 22.4433 115.594 23.3447C115.594 23.3447 114.668 21.6796 112.083 21.6796C111.711 21.6738 111.343 21.75 111.005 21.9026L111.005 21.9028Z" fill="#D91C16"/>
<path d="M115.207 23.6624C115.207 23.6624 114.657 24.241 114.537 24.5498C113.992 24.3438 113.042 23.3669 113.042 23.3669C113.042 23.3669 113.848 23.8361 115.207 23.6624L115.207 23.6624Z" fill="#D91C16"/>
<path d="M114.335 22.13C114.335 22.13 113.7 21.9268 113.7 21.7141C113.7 21.4431 114.009 21.4431 114.193 21.6543C114.281 21.798 114.33 21.9619 114.335 22.1302L114.335 22.13Z" fill="black"/>
<path d="M117.298 23.4712C118.023 23.4712 118.61 23.0262 118.61 22.4774C118.61 21.9286 118.023 21.4836 117.298 21.4836C116.573 21.4836 115.985 21.9286 115.985 22.4774C115.985 23.0262 116.573 23.4712 117.298 23.4712Z" fill="black"/>
<path d="M117.296 23.3867C117.8 23.3867 118.208 22.9796 118.208 22.4774C118.208 21.9752 117.8 21.5681 117.296 21.5681C116.793 21.5681 116.385 21.9752 116.385 22.4774C116.385 22.9796 116.793 23.3867 117.296 23.3867Z" fill="#FDD406"/>
<path d="M117.297 22.8943C117.527 22.8943 117.714 22.7078 117.714 22.4777C117.714 22.2476 117.527 22.061 117.297 22.061C117.066 22.061 116.879 22.2476 116.879 22.4777C116.879 22.7078 117.066 22.8943 117.297 22.8943Z" fill="black"/>
<path d="M102.571 87.8293L105.455 89.3989L104.755 92.6003L101.871 91.0306L102.571 87.8293Z" fill="black"/>
<path d="M89.1346 57.0696L88.0957 57.5425L99.8336 83.1878H101.082L89.1346 57.0696ZM102.978 87.3141L102.13 88.1868L102.659 89.3505L103.689 88.8778L102.978 87.3141Z" fill="black"/>
<path d="M92.7824 77.29C92.7824 77.29 93.7711 79.3272 94.5226 79.6065C94.1339 79.5008 92.8721 79.9627 92.8721 79.9627C92.8721 79.9627 95.0972 81.9453 96.9844 82.0755C98.5848 82.1854 99.3618 81.3886 99.3618 81.3886L99.0412 79.6974C98.347 78.9233 97.4727 78.3314 96.4952 77.9737C94.9119 77.4236 92.7822 77.2904 92.7822 77.2904L92.7824 77.29Z" fill="black"/>
<path d="M100.236 73.6409C100.236 73.6409 98.8708 74.8066 98.4972 76.1569C98.1233 77.5074 98.7407 79.042 98.7407 79.042L99.8879 81.1766C99.8879 81.1766 101.478 80.3326 102.154 79.0706C102.83 77.8084 102.582 76.1054 102.582 76.1054C102.582 76.1054 101.323 76.5732 101.163 76.7802C101.428 75.3802 100.236 73.6409 100.236 73.6409L100.236 73.6409Z" fill="black"/>
<path d="M95.8473 73.0957C95.8473 73.0957 94.2946 73.6192 92.7868 73.5286C91.3506 73.4421 90.1562 72.2391 90.1562 72.2391C90.1562 72.2391 91.3468 71.4354 91.9345 71.5425C91.2881 71.3068 90.3508 69.6916 90.3508 69.6916C90.3508 69.6916 91.6828 69.2901 92.8637 69.7342C94.0447 70.1787 95.0746 71.4691 95.0746 71.4691L95.8475 73.0957H95.8473Z" fill="black"/>
<path d="M96.3811 65.5309C96.3811 65.5309 97.1576 67.1348 96.9735 67.6922C97.2144 67.3211 98.126 66.7431 98.126 66.7431C98.126 66.7431 98.6772 69.3399 98.15 70.9438C97.6231 72.5474 96.0185 73.1581 96.0185 73.1581L94.2484 69.7244C94.2484 69.7244 93.9849 68.4522 94.5368 67.4448C95.0888 66.4375 96.3811 65.5308 96.3811 65.5308L96.3811 65.5309Z" fill="black"/>
<path d="M86.2785 61.2853C86.2785 61.2853 87.9567 61.1095 89.4919 61.744C90.7755 62.2754 91.1689 63.2415 91.1689 63.2415L91.801 64.932C91.801 64.932 89.9744 65.6153 88.5312 65.0928C87.0878 64.5699 86.0273 62.8412 86.0273 62.8412C86.0273 62.8412 87.036 62.4596 87.42 62.6027C86.8606 62.3559 86.2789 61.2853 86.2789 61.2853V61.2855L86.2785 61.2853Z" fill="black"/>
<path d="M91.5569 58.1476C91.5569 58.1476 92.2934 59.091 92.3154 60.1762C92.5118 59.5992 93.4313 58.9616 93.4313 58.9616C93.4313 58.9616 94.3769 61.2443 94.1693 62.865C93.9617 64.4859 92.6011 65.4446 92.6011 65.4446L90.9044 62.232C90.9044 62.232 90.3515 60.9152 90.5144 59.8938C90.6775 58.8728 91.5569 58.1472 91.5569 58.1472L91.5569 58.1476Z" fill="black"/>
<path d="M85.7449 52.0034C85.7449 52.0034 85.4407 53.7532 85.9583 54.7612C86.4208 55.6606 86.7153 55.8579 86.7153 55.8579C85.8334 55.2774 84.5 55.2273 84.5 55.2273C84.5 55.2273 84.9746 57.1311 86.1088 57.9996C87.2429 58.8681 88.9918 58.6651 88.9918 58.6651C88.9918 58.6651 90.1418 57.138 90.0617 55.4928C89.9817 53.8475 88.6717 52.0839 88.6717 52.0839C88.6717 52.0839 88.1551 53.1529 88.1095 53.9509C87.7752 53.1282 85.7445 52.0036 85.7445 52.0036L85.7449 52.0034Z" fill="black"/>
<path d="M99.4525 81.3157L99.4997 81.9438C100.546 81.9536 100.701 81.8497 100.969 82.1786C101.228 82.4683 101.646 82.5558 102 82.3943C102.428 82.1965 102.617 81.6916 102.423 81.2621C102.228 80.8361 101.831 80.7436 101.449 80.8189C101.214 80.8651 101.059 81.052 100.86 81.1547C100.481 81.3504 99.4521 81.3159 99.4521 81.3159L99.4525 81.3157Z" fill="black"/>
<path d="M99.3618 80.8361L99.8707 81.2081C99.3247 82.0985 99.1544 82.1752 99.292 82.5763C99.4013 82.9487 99.2544 83.3487 98.9297 83.5624C98.5346 83.82 98.0052 83.7125 97.7425 83.3213C97.4837 82.9306 97.6152 82.546 97.8819 82.262C98.0457 82.0877 98.286 82.0561 98.4788 81.9419C98.8459 81.7247 99.3616 80.8359 99.3616 80.8359L99.3618 80.8361Z" fill="black"/>
<path d="M95.8187 73.378L95.8657 74.0061C96.9117 74.0157 97.0673 73.912 97.3354 74.2407C97.5941 74.5303 98.012 74.6178 98.3656 74.4564C98.7942 74.2589 98.9832 73.7537 98.7891 73.3244C98.5942 72.8982 98.1972 72.8059 97.8147 72.8812C97.5797 72.9275 97.4253 73.1143 97.2263 73.217C96.8473 73.4125 95.8184 73.3782 95.8184 73.3782L95.8187 73.378Z" fill="black"/>
<path d="M96.0308 73.6001L96.4758 74.0471C95.7978 74.8415 95.6171 74.8911 95.6906 75.3085C95.7408 75.6935 95.5332 76.0659 95.179 76.2266C94.7485 76.4198 94.2423 76.2314 94.0439 75.8041C93.849 75.3781 94.0389 75.0184 94.3467 74.7794C94.5356 74.6329 94.7784 74.6385 94.9864 74.556C95.3828 74.3985 96.0308 73.6003 96.0308 73.6003L96.0308 73.6001Z" fill="black"/>
<path d="M92.298 65.9466L92.3452 66.5746C93.3912 66.5842 93.5468 66.4805 93.8151 66.8096C94.074 67.099 94.4918 67.1863 94.8455 67.025C95.2738 66.827 95.4627 66.322 95.269 65.8926C95.0737 65.4666 94.6769 65.3742 94.2942 65.4495C94.0592 65.4959 93.9048 65.6827 93.7056 65.7853C93.3268 65.981 92.2979 65.9464 92.2979 65.9464L92.298 65.9466Z" fill="black"/>
<path d="M92.5883 65.8152L93.0332 66.262C92.3551 67.0566 92.1748 67.1062 92.2479 67.5236C92.298 67.9084 92.0906 68.2808 91.7365 68.4415C91.306 68.6346 90.7999 68.4462 90.6014 68.0191C90.4067 67.5929 90.5966 67.2331 90.9042 66.9943C91.0931 66.8474 91.3358 66.8535 91.544 66.7705C91.9405 66.613 92.5883 65.8152 92.5883 65.8152Z" fill="black"/>
<path d="M88.5472 58.1014L88.5942 58.7293C89.6403 58.7391 89.796 58.6352 90.0639 58.9639C90.3227 59.2536 90.7405 59.3412 91.0943 59.18C91.5227 58.9821 91.7117 58.4771 91.518 58.0476C91.3231 57.6214 90.9259 57.5289 90.5432 57.6044C90.3085 57.6507 90.154 57.8377 89.9548 57.9402C89.576 58.1357 88.5469 58.1014 88.5469 58.1014H88.5472Z" fill="black"/>
<path d="M88.8373 57.97L89.282 58.4169C88.6041 59.2116 88.4234 59.2609 88.497 59.6786C88.547 60.0634 88.3395 60.4357 87.9855 60.5965C87.5551 60.7898 87.0489 60.6014 86.8507 60.174C86.6555 59.748 86.8457 59.3879 87.1531 59.1492C87.3422 59.0027 87.5848 59.0084 87.7929 58.9255C88.1892 58.7682 88.8372 57.9701 88.8372 57.9701L88.8373 57.97Z" fill="black"/>
<path d="M102.986 88.7368L104.775 89.7102L104.341 91.6961L102.552 90.7227L102.986 88.7368Z" fill="#FDD406"/>
<path d="M95.1548 71.5171C94.7799 71.6723 94.2238 70.0441 93.8154 69.1521C93.3965 68.2367 92.546 66.8259 92.7875 66.7158C93.0526 66.5951 93.4019 67.3359 93.8306 68.2726C94.2592 69.209 95.5061 71.3711 95.1548 71.5167L95.1548 71.5171Z" fill="#FDD406"/>
<path d="M91.3039 62.9419C90.9292 63.0976 90.5188 62.0315 90.1106 61.1393C89.6917 60.2241 89.2837 59.5776 89.5253 59.4675C89.7906 59.3467 90.1822 60.1488 90.5251 60.8978C90.8573 61.6237 91.6551 62.7961 91.3037 62.9421L91.3039 62.9419Z" fill="#FDD406"/>
<path d="M100.212 82.3845C99.9182 82.463 98.6336 79.7809 97.5951 77.5115C96.5567 75.2423 95.7834 73.4062 96.0249 73.2966C96.2902 73.1757 97.131 75.3194 98.1699 77.589C99.2086 79.8586 100.433 82.3254 100.213 82.3845L100.212 82.3845Z" fill="#FDD406"/>
<path d="M101.647 82.0827C101.904 82.0827 102.111 81.8755 102.111 81.62C102.111 81.3644 101.904 81.1572 101.647 81.1572C101.391 81.1572 101.184 81.3644 101.184 81.62C101.184 81.8755 101.391 82.0827 101.647 82.0827Z" fill="#FDD406"/>
<path d="M98.457 83.3167C98.7132 83.3167 98.9209 83.1096 98.9209 82.8541C98.9209 82.5985 98.7132 82.3914 98.457 82.3914C98.2008 82.3914 97.9932 82.5985 97.9932 82.8541C97.9932 83.1096 98.2008 83.3167 98.457 83.3167Z" fill="#FDD406"/>
<path d="M98.0128 74.1392C98.269 74.1392 98.4767 73.932 98.4767 73.6764C98.4767 73.4208 98.269 73.2136 98.0128 73.2136C97.7565 73.2136 97.5488 73.4208 97.5488 73.6764C97.5488 73.932 97.7565 74.1392 98.0128 74.1392Z" fill="#FDD406"/>
<path d="M94.8203 75.913C95.0765 75.913 95.2842 75.7058 95.2842 75.4503C95.2842 75.1947 95.0765 74.9875 94.8203 74.9875C94.5641 74.9875 94.3564 75.1947 94.3564 75.4503C94.3564 75.7058 94.5641 75.913 94.8203 75.913Z" fill="#FDD406"/>
<path d="M94.4922 66.7101C94.7484 66.7101 94.9561 66.503 94.9561 66.2474C94.9561 65.9918 94.7484 65.7847 94.4922 65.7847C94.236 65.7847 94.0283 65.9918 94.0283 66.2474C94.0283 66.503 94.236 66.7101 94.4922 66.7101Z" fill="#FDD406"/>
<path d="M91.377 68.1286C91.6332 68.1286 91.8409 67.9214 91.8409 67.6659C91.8409 67.4103 91.6332 67.2031 91.377 67.2031C91.1208 67.2031 90.9131 67.4103 90.9131 67.6659C90.9131 67.9214 91.1208 68.1286 91.377 68.1286Z" fill="#FDD406"/>
<path d="M90.7413 58.8658C90.9976 58.8658 91.2053 58.6586 91.2053 58.403C91.2053 58.1474 90.9976 57.9402 90.7413 57.9402C90.4851 57.9402 90.2773 58.1474 90.2773 58.403C90.2773 58.6586 90.4851 58.8658 90.7413 58.8658Z" fill="#FDD406"/>
<path d="M87.6271 60.2836C87.8833 60.2836 88.0911 60.0763 88.0911 59.8207C88.0911 59.5651 87.8833 59.3579 87.6271 59.3579C87.3708 59.3579 87.1631 59.5651 87.1631 59.8207C87.1631 60.0763 87.3708 60.2836 87.6271 60.2836Z" fill="#FDD406"/>
<path d="M86.2612 53.0671C86.2612 53.0671 86.2158 54.3458 86.6398 55.0711C87.064 55.7966 88.0113 56.0859 88.0113 56.0859C88.0113 56.0859 88.0565 54.8075 87.6325 54.0823C87.2082 53.3568 86.2612 53.0671 86.2612 53.0671Z" fill="#005801"/>
<path d="M85.375 55.9597C85.375 55.9597 86.4885 56.0251 87.1317 56.5166C87.7743 57.0081 88.0234 58.0322 88.0234 58.0322C87.5285 58.0581 87.0401 57.9107 86.6427 57.6154C85.9998 57.1237 85.375 55.9597 85.375 55.9597Z" fill="#005801"/>
<path d="M88.8693 53.3779C88.6421 53.9365 88.5306 54.5353 88.5418 55.138C88.5843 56.0513 89.1186 57.0802 89.1186 57.0802C89.1186 57.0802 89.6015 55.9838 89.559 55.0704C89.5166 54.1571 88.9988 53.6365 88.8693 53.3779Z" fill="#005801"/>
<path d="M86.9951 61.6103C87.3668 62.0985 87.8405 62.5 88.3835 62.787C89.2252 63.2019 90.4793 63.2174 90.4793 63.2174C90.0761 62.7161 89.5772 62.2997 89.0115 61.9921C88.1699 61.5771 86.9951 61.61 86.9951 61.61L86.9951 61.6103Z" fill="#005801"/>
<path d="M87.2658 63.3789C87.2658 63.3789 87.6676 64.164 88.4023 64.5005C89.1373 64.8372 90.6407 64.8094 90.6407 64.8094C90.2814 64.3671 89.835 64.0028 89.329 63.7392C88.5942 63.4023 87.2656 63.3789 87.2656 63.3789L87.2658 63.3789Z" fill="#005801"/>
<path d="M91.4975 59.1917C91.2299 59.6602 91.0916 60.1912 91.0968 60.7305C91.1404 61.5376 91.6713 62.4194 91.6713 62.4194C91.6713 62.4194 92.0446 61.4085 92.001 60.6016C91.9637 60.0949 91.7897 59.6077 91.4974 59.1917H91.4975Z" fill="#005801"/>
<path d="M93.1326 60.2271C93.1326 60.2271 92.3727 61.2446 92.2636 62.2906C92.1544 63.3366 92.6958 64.4112 92.6958 64.4112C92.6958 64.4112 93.6138 63.4918 93.723 62.4458C93.8321 61.3996 93.1326 60.2274 93.1326 60.2274L93.1326 60.2271Z" fill="#005801"/>
<path d="M91.0381 69.8869C91.1218 70.1698 91.2608 70.4333 91.447 70.6624C91.7064 70.9639 91.9947 71.2394 92.3079 71.4849C92.6926 71.382 93.0964 71.3726 93.4855 71.4574C94.1379 71.5986 95.0058 72.1784 95.0058 72.1784C95.0058 72.1784 94.0717 70.7878 93.1019 70.2471C92.4666 69.9209 91.747 69.7952 91.0384 69.8868L91.0381 69.8869Z" fill="#005801"/>
<path d="M90.9416 72.2771C90.9416 72.2771 92.1509 71.7617 93.1467 71.8947C94.1427 72.0277 95.0407 72.813 95.0407 72.813C95.0407 72.813 93.6947 73.2775 92.6988 73.1447C92.0426 73.027 91.4332 72.7261 90.9414 72.2771H90.9416Z" fill="#005801"/>
<path d="M96.0527 66.6694C96.0527 66.6694 94.9833 67.7995 94.8936 68.7803C94.8041 69.7608 95.7607 70.6748 95.7607 70.6748C95.7354 70.3229 95.7753 69.9693 95.8784 69.6317C96.0147 69.3266 96.1876 69.039 96.3934 68.7755C96.4781 68.4801 96.5091 68.172 96.4849 67.8658C96.4031 67.4473 96.2573 67.0438 96.0527 66.6694Z" fill="#005801"/>
<path d="M97.5869 67.978C97.5869 67.978 96.579 68.9954 96.3126 70.0848C96.0462 71.1742 96.5209 72.3357 96.5209 72.3357C96.5209 72.3357 97.4375 71.6144 97.704 70.5252C97.9705 69.4357 97.5867 67.978 97.5867 67.978L97.5869 67.978Z" fill="#005801"/>
<path d="M100.112 74.5449C100.375 75.1008 100.567 75.6874 100.684 76.291C100.8 77.086 100.693 77.3612 100.693 77.3612C100.693 77.3612 100.221 77.8241 100.009 78.0964C99.7369 78.4462 99.697 79.0865 99.697 79.0865C99.697 79.0865 98.749 77.6808 98.8952 76.6532C99.0412 75.6258 100.112 74.5447 100.112 74.5447L100.112 74.5449Z" fill="#005801"/>
<path d="M102.108 76.7448C102.108 76.7448 100.895 77.5444 100.413 78.3648C100.127 78.8685 100.044 79.4623 100.181 80.025C100.743 79.9453 101.238 79.6157 101.528 79.1289C102.01 78.3089 102.108 76.7446 102.108 76.7446L102.108 76.7448Z" fill="#005801"/>
<path d="M94.134 80.1223C94.134 80.1223 95.8832 80.0747 96.9524 80.337C98.0215 80.5989 98.4107 81.1707 98.4107 81.1707C98.4107 81.1707 97.2085 81.7322 96.1393 81.4701C95.0702 81.2081 94.1338 80.1221 94.1338 80.1221L94.134 80.1223Z" fill="#005801"/>
<path d="M93.8379 78.0519C93.8379 78.0519 94.6271 79.2723 95.6473 79.7152C97.0533 80.3252 98.6813 80.0295 98.6813 80.0295C98.6813 80.0295 97.7968 78.9483 96.5799 78.4709C95.3626 77.9938 93.8379 78.052 93.8379 78.052L93.8379 78.0519Z" fill="#005801"/>
<path d="M153.727 54.0888L153.955 54.5704C153.728 54.6552 153.538 54.8158 153.417 55.0248C153.25 55.3527 153.526 55.8159 153.526 55.8159C153.526 55.8159 151.603 55.6484 151.303 55.8432C151.031 56.019 151.418 57.348 151.239 58.4704C150.989 60.0348 150.371 59.9034 150.346 60.2066C150.321 60.5012 150.583 60.9611 150.583 60.9611C150.583 60.9611 150.222 61.0744 150.145 61.2248C150.021 61.4666 150.231 61.9129 150.081 62.2064C149.245 63.8442 148.009 66.2615 147.193 67.8609C147.078 68.0841 146.772 68.1693 146.618 68.47C146.537 68.6887 146.528 68.9273 146.591 69.1517C146.591 69.1517 146.05 69.184 145.862 69.5518C145.744 69.8428 145.715 70.1625 145.78 70.4698C145.561 70.5087 145.373 70.6463 145.269 70.8425C145.09 71.1943 145.394 71.3788 145.315 71.5335C144.217 73.6825 142.924 76.2158 142.135 77.7607C141.844 78.3287 140.828 78.4426 140.239 79.597C139.901 80.2323 140 81.0105 140.485 81.5423C140.485 81.5423 139.635 81.619 139.41 82.0606C139.18 82.5108 139.362 83.1943 139.975 83.5059C140.588 83.8174 141.258 83.5652 141.488 83.1151C141.713 82.6735 141.26 81.9424 141.26 81.9424C141.978 82.0147 142.665 81.6339 142.982 80.9877C143.572 79.8333 143.075 78.9561 143.365 78.3879C144.154 76.843 145.448 74.3099 146.546 72.1607C146.625 72.006 146.949 72.1399 147.129 71.7882C147.227 71.5907 147.227 71.3585 147.129 71.161C147.418 71.0316 147.662 70.8196 147.831 70.5517C148.019 70.1839 147.73 69.7246 147.73 69.7246C147.95 69.6462 148.138 69.4997 148.268 69.3066C148.421 69.0059 148.309 68.7117 148.423 68.4881C149.24 66.8889 150.475 64.4714 151.312 62.834C151.462 62.5401 151.945 62.4396 152.068 62.1974C152.145 62.0471 152.023 61.6884 152.023 61.6884C152.023 61.6884 152.555 61.6359 152.779 61.4428C153.01 61.2443 152.541 60.8185 153.663 59.6975C154.468 58.8934 155.767 58.4203 155.75 58.0975C155.731 57.7406 154.465 56.2886 154.465 56.2886C154.465 56.2886 154.999 56.2436 155.167 55.916C155.265 55.6927 155.285 55.4425 155.222 55.2068L155.75 55.1159L155.75 52.616L153.727 54.0888ZM136.257 88.9065C136.17 89.081 136.17 89.2862 136.257 89.4607C136.257 89.4607 135.619 89.2618 135.4 89.3698C135.194 89.4715 135.4 92.4699 135.4 92.4699C135.4 92.4699 137.945 90.8685 137.906 90.6427C137.865 90.4026 137.332 89.9972 137.332 89.9972C137.523 89.9679 137.689 89.8498 137.779 89.6791C137.862 89.5149 137.874 89.0455 137.296 88.7517C137.123 88.6561 136.927 88.612 136.73 88.6245C136.536 88.6369 136.36 88.7419 136.257 88.9065Z" fill="black"/>
<path d="M154.19 54.1893L155.393 54.7986L155.375 53.353L154.19 54.1893Z" fill="#FDD406"/>
<path d="M153.725 55.0621C153.513 55.3815 153.601 55.8119 153.921 56.0234C154.241 56.2349 154.672 56.1475 154.885 55.8281C155.097 55.5088 155.009 55.0784 154.689 54.8668C154.666 54.8518 154.643 54.8382 154.618 54.8259C154.497 54.7636 154.362 54.7352 154.226 54.744C154.014 54.7537 153.824 54.8748 153.725 55.0621Z" fill="#FDD406"/>
<path d="M151.656 56.1623C151.53 56.2439 151.702 57.3245 151.665 58.2438C151.631 59.1107 151.353 59.3549 151.201 59.6528C151.06 59.9279 150.554 60.2529 150.554 60.2529L150.973 60.671C150.973 60.671 151.245 60.2474 151.675 59.4071C152.181 58.4164 152.164 56.6213 152.313 56.5256C152.701 56.3893 153.097 56.2739 153.497 56.18C153.497 56.18 152.529 56.1278 151.994 56.1348C151.881 56.1279 151.767 56.1371 151.656 56.1623Z" fill="#FDD406"/>
<path d="M151.768 61.1529C151.953 60.6935 152.163 60.2444 152.397 59.8075C152.986 58.6534 154.244 57.8163 154.274 57.6075C154.304 57.3923 153.836 56.3804 153.836 56.3804C153.836 56.3804 152.726 56.5927 152.569 56.7441C152.417 56.8903 152.484 58.3897 151.895 59.544C151.676 59.9931 151.433 60.4301 151.166 60.853L151.768 61.1529Z" fill="#FDD406"/>
<path d="M154.601 57.6893C154.611 57.8649 153.148 58.9076 152.642 59.8981C152.213 60.7382 152.031 61.2074 152.031 61.2074L152.615 61.2983C152.615 61.2983 152.574 60.7004 152.715 60.4255C152.867 60.1277 152.907 59.763 153.59 59.2257C154.314 58.6558 155.293 58.1577 155.285 58.0073C155.278 57.8685 154.191 56.5256 154.191 56.5256C154.348 56.9061 154.485 57.2945 154.601 57.6893Z" fill="#FDD406"/>
<path d="M150.318 64.1708C151.196 62.4505 151.465 62.3333 151.575 62.1165C151.694 61.8835 151.666 61.5699 151.275 61.3708C151.158 61.3063 151.025 61.2779 150.892 61.2893C150.721 61.3095 150.573 61.416 150.5 61.5709C150.389 61.7879 150.449 62.0779 149.57 63.7984L147.574 67.6982C147.46 67.8961 147.527 68.1493 147.726 68.2638C147.726 68.2638 147.726 68.2638 147.726 68.2638C147.736 68.2696 147.746 68.2749 147.757 68.2799C147.949 68.3871 148.192 68.3188 148.299 68.1272C148.308 68.1119 148.315 68.0961 148.322 68.0798L150.318 64.1708Z" fill="#FDD406"/>
<path d="M146.792 68.6436C146.683 68.8569 146.869 69.17 147.211 69.3438C147.553 69.5171 147.922 69.4843 148.031 69.271C148.14 69.0579 147.945 68.7447 147.603 68.5708C147.452 68.4898 147.282 68.4522 147.111 68.462C146.98 68.4628 146.859 68.5317 146.792 68.6436Z" fill="#FDD406"/>
<path d="M146.052 69.7524C145.911 70.0281 146.131 70.4241 146.545 70.6345C146.958 70.8446 147.406 70.7919 147.547 70.5161C147.688 70.2402 147.468 69.8445 147.055 69.6341C146.914 69.56 146.758 69.5166 146.599 69.5069C146.385 69.4753 146.171 69.5711 146.052 69.7524Z" fill="#FDD406"/>
<path d="M145.588 70.9892C145.479 71.2021 145.665 71.5153 146.007 71.689C146.348 71.8627 146.718 71.8295 146.827 71.6164C146.936 71.4033 146.749 71.09 146.408 70.9164C146.254 70.8352 146.081 70.7974 145.907 70.8072C145.776 70.8082 145.655 70.8771 145.588 70.9892Z" fill="#FDD406"/>
<path d="M145.287 72.1708C145.287 72.1708 143.071 76.5214 142.289 78.0523C142.039 78.5413 140.988 78.846 140.576 79.6524C140.161 80.4635 140.454 81.2228 140.995 81.4977C141.536 81.7728 142.33 81.5728 142.745 80.7615C143.157 79.9553 142.787 78.9231 143.036 78.4342C143.818 76.9028 146.035 72.5526 146.035 72.5526C146.153 72.3603 146.092 72.109 145.899 71.9913C145.887 71.9838 145.874 71.977 145.861 71.9709C145.783 71.9294 145.694 71.9136 145.606 71.9255C145.468 71.9538 145.35 72.0443 145.287 72.1708Z" fill="#FDD406"/>
<path d="M139.681 82.2702C139.515 82.5951 139.705 83.0282 140.109 83.2337C140.514 83.4393 140.982 83.3404 141.148 83.0156C141.314 82.6907 141.115 82.2574 140.711 82.0519C140.571 81.9779 140.414 81.9404 140.255 81.943C140.018 81.9386 139.798 82.0642 139.681 82.2702Z" fill="#FDD406"/>
<path d="M136.729 88.9155C136.622 88.9059 136.518 88.9545 136.456 89.0428C136.371 89.2089 136.546 89.4713 136.848 89.6246C137.149 89.7776 137.464 89.7634 137.55 89.5972C137.634 89.4308 137.459 89.1685 137.158 89.0155C137.026 88.9467 136.878 88.9123 136.729 88.9153L136.729 88.9155Z" fill="#FDD406"/>
<path d="M135.69 89.7336V91.879L137.44 90.6245C137.06 90.0353 136.392 89.6951 135.69 89.7334V89.7336Z" fill="#FDD406"/>
<path d="M136.798 41.9521C136.798 40.7755 138.347 39.6157 138.347 39.6157H100.563C100.563 39.6157 102.113 40.7753 102.113 41.9521V70.0064C102.099 70.6228 102.31 71.2233 102.705 71.697C103.069 72.2037 103.843 72.9037 104.646 73.4243C107.128 75.0319 111.277 76.727 114.416 78.1515C117.032 79.3384 118.096 79.8173 119.455 81.4968C120.815 79.8173 121.888 79.3386 124.504 78.1515C127.643 76.7272 131.792 75.0319 134.274 73.4243C135.077 72.9036 135.852 72.2038 136.215 71.697C136.607 71.2222 136.815 70.6217 136.798 70.0063L136.798 41.9521Z" fill="#FDD406"/>
<path d="M103.006 57.8244V41.9519C103.014 41.4337 102.854 40.9266 102.55 40.5066H136.361C136.056 40.9266 135.896 41.4337 135.905 41.9519L135.914 57.8244L119.46 62.7965L103.006 57.8244Z" fill="#D91C16"/>
<path d="M135.915 57.8244L125.726 57.6335H113.195L103.006 57.8244V70.0062C103.006 70.6185 103.643 72.0528 107.317 73.8786C113.389 76.897 118.056 78.3062 119.456 80.0239C120.854 78.3062 125.522 76.8968 131.594 73.8786C135.268 72.0528 135.905 70.6185 135.905 70.0062L135.915 57.8244Z" fill="#0F3296"/>
<path d="M125.479 57.1887C125.479 57.1887 131.357 55.7102 131.357 49.4434C131.357 44.5489 125.464 42.1208 125.297 40.9529C124.721 42.9739 127.265 45.7652 127.265 49.0707C127.265 53.3478 124.103 53.5525 124.103 53.5525C123.363 53.5525 123.063 54.0795 122.772 54.0795C122.15 54.0147 121.857 53.2249 121.241 53.2249C120.663 53.2249 120.219 54.1158 119.455 54.1158C118.691 54.1158 118.256 53.2249 117.678 53.2249C117.063 53.2249 116.769 54.0147 116.147 54.0795C115.856 54.0795 115.556 53.5525 114.816 53.5525C114.816 53.5525 111.654 53.3478 111.654 49.0707C111.654 45.7651 114.199 42.9735 113.622 40.9529C113.455 42.1208 107.562 44.5488 107.562 49.4434C107.562 55.7102 113.441 57.1887 113.441 57.1887L111.764 60.2339C111.764 60.2339 114.193 60.3552 115.482 61.4522C117.036 62.7748 116.885 65.5771 116.885 67.6157C116.885 69.2218 116.682 70.9168 115.856 71.6154C114.746 72.5537 113.996 72.6231 113.996 73.7246C113.996 74.6434 114.704 74.8275 115.856 75.4338C117.331 76.2103 117.262 77.2518 119.455 77.2518C121.648 77.2518 121.589 76.2105 123.064 75.4338C124.215 74.8275 124.923 74.6434 124.923 73.7246C124.923 72.6231 124.173 72.5537 123.064 71.6154C122.238 70.9164 122.034 69.2217 122.034 67.6157C122.034 65.5771 121.883 62.7748 123.438 61.4523C124.727 60.3554 127.156 60.2339 127.156 60.2339L125.479 57.1887Z" fill="black"/>
<path d="M119.454 41.3879L118.433 44.279L115.654 42.9607L116.975 45.7335L114.077 46.7606L116.975 47.7879L115.654 50.5515L118.433 49.2334L119.454 52.1241L120.484 49.2333L123.264 50.5515L121.942 47.7879L124.84 46.7606L121.942 45.7335L123.264 42.9607L120.484 44.279L119.454 41.3879Z" fill="black"/>
<path d="M113.194 57.6343C113.194 57.6343 109.564 56.7493 108.209 54.9617C106.7 56.277 104.925 57.2536 103.005 57.8252C103.005 57.8252 105.961 59.1567 108.209 60.8525C109.244 59.3723 113.194 57.6343 113.194 57.6343Z" fill="black"/>
<path d="M125.725 57.6343C125.725 57.6343 129.674 59.3721 130.71 60.8525C132.957 59.1567 135.913 57.8252 135.913 57.8252C133.993 57.2534 132.219 56.2769 130.71 54.9617C129.354 56.7491 125.725 57.6343 125.725 57.6343Z" fill="black"/>
<path d="M114.68 61.4875L113.268 62.8964L114.68 64.3055L116.093 62.8964L114.68 61.4875Z" fill="black"/>
<path d="M124.24 61.4875L122.827 62.8964L124.24 64.3055L125.652 62.8964L124.24 61.4875Z" fill="black"/>
<path d="M114.324 69.7146C114.341 70.6238 114.283 71.5329 114.151 72.4327C114.151 72.4327 116.143 71.848 116.539 69.8328C116.725 68.8881 116.932 65.408 115.974 64.8148L113.377 64.3057C114.005 66.0401 114.326 67.8704 114.324 69.7146Z" fill="black"/>
<path d="M122.945 64.8151C121.987 65.4082 122.194 68.8883 122.38 69.8332C122.777 71.8483 124.768 72.4331 124.768 72.4331C124.636 71.5332 124.578 70.6241 124.595 69.7149C124.593 67.8707 124.914 66.0403 125.543 64.3059L122.945 64.8151Z" fill="black"/>
<path d="M108.201 64.9156C107.313 65.1286 106.766 66.0194 106.98 66.9053C107.015 67.0519 107.07 67.193 107.144 67.3245C107.011 67.28 106.874 67.2525 106.734 67.2427C106.676 67.2397 106.619 67.2397 106.561 67.2427C105.639 67.2812 104.923 68.0581 104.961 68.9778C105 69.8975 105.779 70.6118 106.701 70.5733C106.77 70.5704 106.839 70.5632 106.907 70.5518C106.826 70.6612 106.759 70.7802 106.707 70.9062C106.358 71.7604 106.769 72.7353 107.625 73.0836C108.482 73.432 109.459 73.0218 109.808 72.1676L109.814 72.1519C109.864 72.0263 109.898 71.8949 109.915 71.7609C109.996 71.8722 110.091 71.973 110.197 72.0608C110.897 72.6621 111.953 72.5838 112.555 71.8859C113.158 71.188 113.08 70.1348 112.38 69.5335C112.266 69.4351 112.138 69.3526 112.002 69.2883C112.133 69.2465 112.258 69.1885 112.375 69.1157C113.158 68.622 113.394 67.5903 112.904 66.8066C112.578 66.2885 111.993 65.9915 111.382 66.0339C111.103 66.0528 110.834 66.1403 110.598 66.2886C110.481 66.36 110.374 66.4455 110.279 66.543C110.275 65.6145 109.517 64.8652 108.586 64.8694C108.456 64.87 108.327 64.8855 108.201 64.9156Z" fill="black"/>
<path d="M125.971 69.7697C126.152 71.4721 127.539 72.8983 129.252 73.3059C128.954 72.8287 128.768 72.2915 128.705 71.7333C128.49 69.7143 130.056 68.0786 132.195 68.0786C132.527 68.0791 132.857 68.1188 133.179 68.1971C132.382 66.9096 130.978 66.1203 129.461 66.1062C127.322 66.1063 125.756 67.751 125.971 69.7697Z" fill="black"/>
<path d="M110.797 49.0705C110.797 52.2896 112.518 54.1884 114.816 54.1884C115.255 54.1884 115.734 54.7794 116.147 54.7794C116.82 54.7794 117.268 54.0339 117.678 54.0339C118.199 54.0339 118.551 54.852 119.455 54.852C120.36 54.852 120.72 54.0339 121.241 54.0339C121.651 54.0339 122.099 54.7794 122.772 54.7794C123.186 54.7794 123.665 54.1884 124.103 54.1884C126.401 54.1884 128.122 52.2896 128.122 49.0705C128.122 46.4453 125.912 43.2443 126.154 42.7251C126.154 42.7251 130.464 45.8094 130.464 49.4431C130.464 55.2965 124.513 56.743 124.513 56.743L125.853 59.7518C125.853 59.7518 124.008 60.0278 122.882 60.9338C121.38 62.1422 121.36 65.407 121.36 67.6152C121.36 70.2163 121.457 71.3185 122.399 72.0242C123.392 72.7688 124.139 72.9291 124.139 73.6879C124.139 74.349 123.366 74.6194 122.362 75.0605C121.221 75.5625 121.107 76.4334 119.455 76.4334C117.803 76.4334 117.699 75.5625 116.557 75.0605C115.554 74.6194 114.78 74.3492 114.78 73.6879C114.78 72.9291 115.527 72.7688 116.52 72.0242C117.462 71.3185 117.559 70.2163 117.559 67.6152C117.559 65.407 117.54 62.1422 116.037 60.9338C114.911 60.0274 113.066 59.7518 113.066 59.7518L114.406 56.743C114.406 56.743 108.455 55.2967 108.455 49.4431C108.455 45.8094 112.766 42.7251 112.766 42.7251C113.008 43.2443 110.797 46.4453 110.797 49.0705ZM117.204 73.243C116.035 73.243 115.29 73.4892 115.29 73.8431C115.29 74.1972 116.035 74.434 117.204 74.434C117.516 74.434 117.869 74.2531 117.869 73.8431C117.861 73.5028 117.578 73.2335 117.237 73.2414C117.226 73.2416 117.215 73.2422 117.204 73.243ZM121.715 73.243C121.375 73.2168 121.078 73.4706 121.051 73.8099C121.051 73.821 121.05 73.832 121.05 73.8431C121.05 74.2531 121.403 74.434 121.715 74.434C122.884 74.434 123.629 74.1973 123.629 73.8431C123.629 73.489 122.884 73.243 121.715 73.243Z" fill="#FDD406"/>
<path d="M119.465 43.3342L120.121 45.1799L121.889 44.3345L121.05 46.1071L122.892 46.7618L121.05 47.4163L121.889 49.1798L120.121 48.3434L119.456 50.1797L118.8 48.3434L117.032 49.1798L117.87 47.4163L116.029 46.7618L117.87 46.1071L117.032 44.3345L118.8 45.1799L119.465 43.3342Z" fill="#FDD406"/>
<path d="M104.735 57.8774C104.735 57.8774 106.98 58.9925 108.108 59.9864L108.171 60.0409L108.207 59.9956C109.273 58.7755 111.251 57.7412 111.251 57.7412C111.251 57.7412 109.351 57.2182 108.153 55.8503C106.887 57.1374 104.735 57.8774 104.735 57.8774Z" fill="#FDD406"/>
<path d="M134.182 57.8803C134.182 57.8803 131.937 58.9955 130.81 59.9893L130.746 60.0439L130.71 59.9986C129.644 58.7785 127.666 57.7441 127.666 57.7441C127.666 57.7441 129.567 57.2211 130.764 55.8533C132.03 57.1403 134.182 57.8803 134.182 57.8803Z" fill="#FDD406"/>
<path d="M114.68 62.1606L115.418 62.8967L114.68 63.6423L113.933 62.8967L114.68 62.1606Z" fill="#FDD406"/>
<path d="M124.24 62.1606L124.988 62.8967L124.24 63.6423L123.502 62.8967L124.24 62.1606Z" fill="#FDD406"/>
<path d="M115.683 65.3781C116.198 66.0881 116.111 67.2359 116.111 68.8328C116.142 69.7396 115.678 70.592 114.899 71.0598C114.899 67.1897 114.499 66.2592 114.288 65.0872L115.683 65.3781Z" fill="#FDD406"/>
<path d="M124.631 65.0872C124.42 66.2595 124.02 67.1898 124.02 71.0597C123.241 70.592 122.777 69.7395 122.808 68.8327C122.808 67.2358 122.721 66.0883 123.237 65.3782L124.631 65.0872Z" fill="#FDD406"/>
<path d="M109.951 66.5517C109.984 66.6916 109.993 66.8362 109.978 66.9792C109.966 67.0914 109.938 67.2015 109.896 67.3062C109.166 67.048 108.352 67.2565 107.836 67.8336C107.745 67.7542 107.665 67.6624 107.6 67.5609C107.521 67.444 107.463 67.315 107.426 67.1791C107.253 66.4836 107.678 65.7798 108.375 65.6072C109.072 65.4346 109.777 65.8573 109.951 66.5517Z" fill="#FDD406"/>
<path d="M111.893 68.977C111.77 69.0519 111.635 69.1053 111.494 69.1349C111.383 69.1582 111.27 69.1661 111.157 69.1583C111.177 68.3858 110.727 67.6778 110.018 67.3673C110.065 67.2561 110.128 67.1522 110.204 67.0584C110.292 66.9478 110.397 66.8524 110.515 66.7761C111.124 66.3964 111.927 66.5814 112.307 67.1891C112.688 67.7969 112.502 68.5973 111.893 68.977Z" fill="#FDD406"/>
<path d="M110.182 71.5697C110.072 71.4762 109.98 71.3646 109.908 71.2399C109.851 71.142 109.809 71.0368 109.781 70.9273C110.524 70.708 111.06 70.062 111.137 69.293C111.257 69.3038 111.376 69.3313 111.489 69.3748C111.621 69.4233 111.745 69.4934 111.854 69.5821C112.403 70.0442 112.473 70.8628 112.009 71.4105C111.548 71.9562 110.731 72.0274 110.182 71.5697Z" fill="#FDD406"/>
<path d="M107.18 70.7468C107.235 70.6141 107.313 70.4917 107.41 70.3851C107.486 70.3013 107.573 70.2284 107.669 70.1685C108.108 70.8055 108.889 71.1142 109.646 70.9494C109.673 71.0672 109.683 71.1882 109.677 71.3089C109.671 71.4494 109.643 71.5881 109.592 71.7193C109.323 72.3837 108.565 72.7046 107.899 72.436C107.233 72.1675 106.911 71.4112 107.18 70.7468Z" fill="#FDD406"/>
<path d="M107.037 67.6456C107.181 67.6571 107.322 67.693 107.453 67.7518C107.557 67.7979 107.653 67.858 107.74 67.9306C107.268 68.5435 107.215 69.3804 107.606 70.0475C107.502 70.1096 107.39 70.1568 107.273 70.1879C107.137 70.2262 106.996 70.2419 106.855 70.2342C106.139 70.1841 105.599 69.564 105.649 68.8492C105.699 68.1343 106.321 67.5955 107.037 67.6456Z" fill="#FDD406"/>
<path d="M109.249 70.3526C109.944 70.3526 110.507 69.7909 110.507 69.0981C110.507 68.4052 109.944 67.8435 109.249 67.8435C108.554 67.8435 107.991 68.4052 107.991 69.0981C107.991 69.7909 108.554 70.3526 109.249 70.3526Z" fill="#FDD406"/>
<path d="M131.329 67.4066C129.241 67.8093 127.738 69.649 127.957 71.7975C127.291 71.2477 126.805 70.5072 126.718 69.6884C126.548 68.094 127.709 66.8611 129.461 66.8611C130.122 66.867 130.769 67.0559 131.329 67.4066Z" fill="#FDD406"/>
<path d="M137.608 39.8959H101.302C101.783 40.3795 102.394 41.1508 102.394 41.9502V66.3136H102.393V70.0047H102.394C102.389 70.2937 102.436 70.5814 102.532 70.854C102.625 71.0957 102.756 71.3216 102.918 71.5238L102.925 71.5326C103.279 71.9825 103.69 72.3846 104.148 72.7287C104.251 72.8096 104.357 72.889 104.464 72.9654C104.567 73.0396 104.676 73.1136 104.787 73.1858L104.79 73.1876C106.722 74.4388 109.699 75.7544 112.403 76.9493C113.157 77.2825 113.893 77.6074 114.521 77.8925L114.522 77.8937L114.582 77.9207H114.583C117.058 79.0439 118.162 79.5451 119.455 81.0551C120.751 79.5395 121.851 79.0402 124.349 77.9068L124.349 77.9064L124.378 77.8935C125.007 77.6078 125.741 77.2835 126.495 76.9504C129.2 75.7554 132.177 74.4398 134.109 73.1884L134.111 73.1873C134.653 72.8355 135.155 72.4256 135.608 71.9649C135.681 71.8884 135.751 71.8123 135.814 71.7385C135.872 71.6693 135.927 71.6001 135.975 71.5328L135.98 71.5285L135.98 71.5272L135.983 71.5238C136.146 71.3206 136.278 71.0941 136.374 70.8518C136.473 70.5804 136.521 70.2933 136.515 70.0047H136.517V66.3137H136.515V41.9502C136.515 41.1508 137.127 40.3795 137.608 39.8959ZM137.081 41.9502V66.3137H137.08V70.0047H137.081C137.086 70.3611 137.025 70.7154 136.902 71.0499C136.787 71.3419 136.629 71.6152 136.434 71.8606L136.434 71.861C136.381 71.9354 136.317 72.0164 136.244 72.1019C136.175 72.1828 136.098 72.2678 136.014 72.3549C135.531 72.8463 134.996 73.2835 134.418 73.6587L134.416 73.6598C132.442 74.9386 129.445 76.2629 126.723 77.4657C126.01 77.7803 125.317 78.0869 124.612 78.4069L124.583 78.4198H124.582C122.03 79.5777 120.986 80.0512 119.675 81.6718L119.455 81.943L119.235 81.6718C117.929 80.0586 116.879 79.5822 114.349 78.434L114.349 78.4337L114.29 78.4068L114.288 78.4057L114.287 78.4054L114.287 78.4059C113.58 78.0851 112.888 77.7794 112.176 77.4645C109.453 76.2617 106.457 74.9374 104.483 73.6587L104.476 73.6542L104.474 73.6528L104.474 73.6526C104.363 73.5806 104.249 73.503 104.135 73.4212C104.021 73.3399 103.909 73.2561 103.801 73.1714C103.3 72.7938 102.851 72.3525 102.465 71.8586C102.27 71.6136 102.114 71.3401 102.002 71.0477C101.882 70.7132 101.824 70.3599 101.829 70.0047H101.83V66.3137H101.829V41.9502C101.829 40.913 100.398 39.8417 100.394 39.8387V39.332H138.516V39.8387C138.512 39.8417 137.081 40.913 137.081 41.9502ZM136.226 40.224L136.227 40.2229H136.361L136.946 40.2226L136.58 40.68C136.315 41.0497 136.177 41.4955 136.188 41.9502V66.3137H136.187V70.0047H136.188C136.188 70.5039 135.837 71.4677 134.188 72.6691L134.188 72.6696C133.88 72.8943 133.524 73.1294 133.114 73.3733C132.702 73.6188 132.24 73.8708 131.726 74.1267L131.725 74.1257L131.72 74.1284V74.1296C129.517 75.2248 127.482 76.1152 125.725 76.8838C122.707 78.2037 120.522 79.16 119.674 80.1989L119.67 80.2045L119.669 80.2057L119.449 80.4614L119.236 80.2001C118.39 79.1604 116.203 78.2037 113.184 76.8833C111.429 76.1154 109.395 75.2256 107.194 74.1317V74.1305L107.19 74.1286L107.19 74.1296C105.627 73.3533 104.6 72.6413 103.933 72.0298C103.801 71.9085 103.682 71.7914 103.577 71.6785C102.899 70.9517 102.724 70.3645 102.723 70.0057H102.722V70.0047H102.723V66.3137H102.722V41.9502C102.733 41.4955 102.595 41.0497 102.33 40.68L101.964 40.224H103.178V40.2229H135.732V40.224L136.226 40.224ZM135.732 40.7856V40.7867H103.178V40.7856H103.037C103.203 41.1517 103.288 41.5487 103.287 41.9502V66.3137H103.286V70.0047H103.287V70.0057H103.286C103.286 70.2592 103.431 70.6961 103.99 71.2953C104.086 71.3982 104.194 71.5054 104.314 71.6159C104.946 72.1948 105.93 72.8742 107.441 73.6252V73.6263L107.445 73.6282L107.446 73.6272C109.66 74.7278 111.672 75.6081 113.41 76.368C116.282 77.6244 118.418 78.5588 119.455 79.6036C120.492 78.559 122.628 77.6247 125.499 76.3685C127.238 75.6079 129.252 74.7268 131.468 73.6252L131.469 73.6261L131.474 73.6234V73.6223C131.987 73.3674 132.435 73.1232 132.825 72.8909C133.218 72.6571 133.559 72.4315 133.855 72.216H133.856C135.313 71.1551 135.622 70.3867 135.622 70.0047H135.623V66.3137H135.622V41.9502C135.622 41.5487 135.707 41.1517 135.872 40.7856L135.732 40.7856Z" fill="black"/>
</g>
</g>
<defs>
<clipPath id="clip0_307_35547">
<rect width="240" height="120" fill="white"/>
</clipPath>
<clipPath id="clip1_307_35547">
<rect width="71.25" height="89.5" fill="white" transform="translate(84.5 15.25)"/>
</clipPath>
</defs>
</svg>
