<svg width="240" height="120" viewBox="0 0 240 120" fill="none" xmlns="http://www.w3.org/2000/svg">
<g clip-path="url(#clip0_909_308969)">
<path d="M0 0H240V120H0V0Z" fill="#D91C16"/>
<path d="M0 24H240V96H0V24Z" fill="#1E9A1C"/>
<path d="M107.94 44.64H117.12L120 36L122.88 44.64H132.06L124.5 50.16L127.56 58.92L120 53.52L112.44 58.92L115.5 50.16L107.94 44.64ZM75 40.2C76.756 49.0138 82.2446 57.0256 90.4868 62.8062C98.729 68.5867 109.189 71.76 120 71.76C130.811 71.76 141.271 68.5867 149.513 62.8062C157.755 57.0256 163.244 49.0138 165 40.2C165 51.8165 160.259 62.9572 151.82 71.1713C143.381 79.3854 131.935 84 120 84C108.065 84 96.6193 79.3854 88.1802 71.1713C79.7411 62.9572 75 51.8165 75 40.2Z" fill="#FDD406"/>
</g>
<defs>
<clipPath id="clip0_909_308969">
<rect width="240" height="120" fill="white"/>
</clipPath>
</defs>
</svg>
