<svg width="240" height="120" viewBox="0 0 240 120" fill="none" xmlns="http://www.w3.org/2000/svg">
<rect width="240" height="120" fill="#021455"/>
<path d="M154.339 29.5054H205.715L205.654 66.0628C206.081 80.7587 196.922 89.878 180.068 93.9896C168.101 91.0176 154.3 84.8704 154.28 66.4798L154.341 29.5054L154.339 29.5054Z" fill="white"/>
<path d="M155.477 30.6074H204.575L204.517 65.6384C204.925 79.7204 196.171 88.4588 180.065 92.3988C168.627 89.5514 155.438 83.6604 155.419 66.0378L155.477 30.6074H155.477Z" fill="#54AEF2"/>
<path d="M180.064 92.5857L180.021 92.575C169.392 89.9287 155.258 84.2988 155.238 66.0381L155.296 30.6072L155.477 30.6075V30.4263H204.757L204.756 30.6078L204.698 65.6389C205.098 79.4213 196.825 88.4857 180.108 92.575L180.064 92.5857ZM155.658 30.7888L155.6 66.0383C155.62 84.0193 169.559 89.5908 180.065 92.2123C196.565 88.1643 204.73 79.2258 204.336 65.6437L204.393 30.7888H155.658Z" fill="black"/>
<path d="M204.194 69.7876C202.408 83.2296 192.056 89.1027 180.063 92.22C169.449 89.3724 158.028 84.8264 155.815 69.8552L204.195 69.7876L204.194 69.7876Z" fill="#AD7D5A"/>
<path d="M178.119 37.1328L178.051 32.7178L181.542 32.752L181.576 37.1328H191.125L191.159 40.5554L181.576 40.5896L181.499 80.9526L178.094 80.974L178.051 40.5554L168.534 40.5897L168.536 37.0987L178.119 37.1328Z" fill="#784B26"/>
<path fill-rule="evenodd" clip-rule="evenodd" d="M170.389 71.4536L179.13 80.5212C182.152 77.1992 180.056 64.7821 176.08 62.4951C175.604 63.9654 174.793 65.7283 173.932 66.2967C172.037 67.5881 167.394 69.0979 168.946 70.0648C169.3 69.5747 170.226 69.1118 170.661 70.2011C171.179 71.9164 168.728 72.0255 168.728 72.0255C168.728 72.0255 167.176 71.8347 166.904 70.2553C166.631 68.6762 169.215 67.2343 169.436 67.1241C169.654 67.0423 173.03 66.1439 173.602 63.1484C174.31 60.2075 175.045 60.6434 175.182 60.5889C179.592 61.0245 182.479 68.9213 182.642 74.476C182.806 80.0308 180.382 83.7068 179.947 83.9519C179.511 84.1969 169.436 71.9982 169.436 71.9982L170.389 71.4536Z" fill="#F4812F"/>
<path d="M179.935 84.0545C179.742 84.0545 179.044 83.5145 174.454 78.1297C171.91 75.1445 169.387 72.0904 169.361 72.0598L169.341 72.0348C169.014 72.108 168.756 72.1209 168.732 72.1221C168.7 72.1193 167.09 71.9029 166.808 70.2717C166.513 68.5584 169.364 67.052 169.393 67.0375C169.416 67.0281 169.443 67.0195 169.481 67.0072C170.788 66.5883 173.049 65.5275 173.507 63.1303C174.075 60.7719 174.663 60.4807 175.108 60.4973C175.126 60.4975 175.14 60.499 175.152 60.4971L175.174 60.4883L175.191 60.4926C177.213 60.6922 179.131 62.4959 180.592 65.5713C181.85 68.2201 182.653 71.548 182.739 74.473C182.904 80.0891 180.418 83.7977 179.994 84.0361C179.978 84.0451 179.961 84.0545 179.935 84.0545ZM169.584 72.0252C173.449 76.7027 179.297 83.5994 179.92 83.8537C180.386 83.5197 182.706 79.9223 182.546 74.4789C182.385 69.0145 179.509 61.1338 175.19 60.6869C175.162 60.6924 175.135 60.6916 175.102 60.6906C174.906 60.6861 174.299 60.6686 173.696 63.1711C173.221 65.6621 170.888 66.7596 169.54 67.1916C169.506 67.2023 169.483 67.21 169.47 67.2146C168.895 67.5021 166.763 68.8701 166.999 70.2389C167.256 71.7301 168.725 71.9275 168.74 71.9293C168.738 71.9285 169.248 71.9021 169.74 71.7131L170.283 71.4025C170.352 71.3436 170.413 71.2779 170.464 71.2051C170.65 70.9432 170.685 70.6146 170.569 70.2289C170.425 69.8711 170.216 69.6687 169.948 69.6359C169.604 69.5936 169.222 69.8479 169.024 70.1213L168.971 70.1945L168.895 70.1469C168.648 69.993 168.527 69.8117 168.537 69.6082C168.57 68.949 170.036 68.2246 171.588 67.4576C172.426 67.0436 173.293 66.6152 173.878 66.2168C174.717 65.6629 175.518 63.9158 175.988 62.4652L176.025 62.3518L176.128 62.4113C178.023 63.501 179.689 67.0326 180.374 71.4088C180.883 74.6625 180.843 78.782 179.201 80.5861L179.132 80.6627L170.375 71.5783C170.209 71.7133 170.015 71.8148 169.818 71.8914L169.584 72.0252ZM170.517 71.4465L179.126 80.3783C180.407 78.8695 180.813 75.4631 180.183 71.4387C179.519 67.1984 177.937 63.7699 176.134 62.6404C175.649 64.0984 174.843 65.8119 173.985 66.3773C173.391 66.7828 172.518 67.2141 171.674 67.6311C170.307 68.3064 168.758 69.0721 168.731 69.6176C168.725 69.7295 168.789 69.8334 168.925 69.934C169.161 69.6514 169.566 69.3951 169.972 69.4438C170.208 69.4729 170.534 69.6215 170.751 70.165C170.888 70.6191 170.844 71.0041 170.622 71.3174C170.59 71.3629 170.554 71.4059 170.517 71.4465Z" fill="black"/>
<path d="M176.761 63.0127L176.815 79.3776L176.761 63.0127Z" fill="#F4812F"/>
<path d="M176.858 63.0121L176.664 63.0127L176.718 79.3777L176.912 79.3771L176.858 63.0121Z" fill="black"/>
<path d="M175.781 63.3115C175.781 63.3388 175.835 78.1792 175.835 78.1792L175.781 63.3115Z" fill="#F4812F"/>
<path d="M175.738 78.1797C175.736 77.5736 175.684 63.3387 175.684 63.3115H175.877C175.877 63.3564 175.931 78.0307 175.932 78.1789L175.738 78.1797Z" fill="black"/>
<path d="M174.719 65.4629L174.773 77.2806L174.719 65.4629Z" fill="#F4812F"/>
<path d="M174.815 65.4625L174.622 65.4634L174.676 77.2811L174.869 77.2803L174.815 65.4625Z" fill="black"/>
<path d="M173.847 66.3071L173.902 76.0829L173.847 66.3071Z" fill="#F4812F"/>
<path d="M173.944 66.3065L173.751 66.3076L173.805 76.0834L173.998 76.0823L173.944 66.3065Z" fill="black"/>
<path d="M173.018 66.7427H172.825V74.9933H173.018V66.7427Z" fill="black"/>
<path d="M172.01 67.3965H171.817V73.9314H172.01V67.3965Z" fill="black"/>
<path d="M171.139 67.9136H170.946V72.9237H171.139V67.9136Z" fill="black"/>
<path d="M179.266 82.9047C179.239 82.9047 179.212 82.8935 179.193 82.8717L170.18 72.5515C170.145 72.5113 170.149 72.4502 170.189 72.415C170.229 72.3799 170.291 72.384 170.326 72.4242L179.339 82.7443C179.374 82.7845 179.37 82.8457 179.33 82.8808C179.311 82.8968 179.289 82.9047 179.266 82.9047Z" fill="#FDD406"/>
<path d="M180.001 82.4449C179.973 82.4449 179.944 82.4384 179.918 82.4248C179.829 82.3789 179.794 82.2697 179.84 82.1806C183.542 74.9902 179.577 66.1439 179.537 66.0554C179.495 65.9644 179.535 65.8568 179.626 65.8152C179.717 65.7738 179.825 65.8136 179.866 65.9046C179.908 65.9947 183.944 75.0013 180.162 82.3466C180.13 82.4091 180.067 82.4449 180.001 82.4449Z" fill="#FDD406"/>
<path d="M169.191 70.7905C169.169 70.7905 169.147 70.7866 169.126 70.7786C169.033 70.7429 168.986 70.6384 169.021 70.545C169.057 70.4519 169.25 69.9835 169.58 69.8991C169.679 69.8735 169.83 69.8724 169.99 70.0087C170.066 70.0739 170.074 70.1884 170.009 70.2644C169.944 70.3405 169.829 70.3491 169.754 70.2841C169.704 70.2417 169.68 70.2476 169.67 70.2503C169.563 70.2773 169.421 70.5136 169.36 70.6737C169.333 70.746 169.264 70.7905 169.191 70.7905Z" fill="#FDD406"/>
<path d="M167.748 70.8721C167.701 70.8721 167.653 70.8538 167.618 70.817C167.393 70.5858 167.286 70.3081 167.298 69.9918C167.332 69.1067 168.321 68.2231 168.363 68.1858C168.438 68.12 168.552 68.1268 168.619 68.2016C168.685 68.2766 168.678 68.3913 168.603 68.4575C168.594 68.4657 167.687 69.2764 167.66 70.0065C167.652 70.2225 167.723 70.4051 167.878 70.5647C167.948 70.6366 167.946 70.7512 167.874 70.8209C167.839 70.8551 167.793 70.8721 167.748 70.8721Z" fill="#FDD406"/>
<path d="M181.602 45.6088C182.207 45.0898 182.521 44.7726 182.896 44.8303C183.27 44.8879 183.781 44.859 184.155 44.7437C184.531 44.6283 186.391 44.3976 187.155 44.6571C187.415 44.686 187.76 44.8303 188.293 45.2773C188.827 45.7241 189.606 46.5028 189.346 48.6656C189.087 50.8283 189.172 51.7533 189.058 52.9622C188.857 55.0962 188.383 56.8533 187.53 56.711C188.683 58.7296 188.798 60.4598 189.548 61.844C190.298 63.2282 190.759 66.0542 190.471 69.111C190.183 72.1678 189.376 79.0308 191.797 83.6448C191.393 83.9332 190.414 83.6448 189.548 82.722C188.683 81.7992 188.303 81.8295 187.587 82.376C185.396 84.0485 183.344 86.0644 180.321 84.0485C179.629 83.5871 179.41 83.0337 179.917 81.6262C181.186 78.1082 181.802 73.2812 181.602 71.0142L181.602 45.6088Z" fill="#1E9A1C"/>
<path d="M182.788 84.9255C182.023 84.9255 181.202 84.6837 180.299 84.0815C179.63 83.6358 179.347 83.089 179.88 81.6126C181.138 78.1241 181.765 73.3179 181.562 71.0177L181.562 45.5903L181.576 45.5784C181.64 45.5236 181.701 45.4711 181.759 45.421C182.251 44.994 182.547 44.7353 182.902 44.7908C183.286 44.8496 183.785 44.8158 184.143 44.7055C184.488 44.5996 186.37 44.3481 187.168 44.6192C187.481 44.6531 187.85 44.853 188.319 45.2466C188.755 45.6113 189.662 46.3702 189.386 48.6702C189.227 49.9988 189.198 50.8532 189.172 51.607C189.156 52.0659 189.142 52.4994 189.098 52.9658C188.967 54.3523 188.673 56.1114 188.014 56.6183C187.885 56.7171 187.746 56.7637 187.603 56.7584C188.227 57.8707 188.545 58.9042 188.825 59.8182C189.047 60.5399 189.256 61.2218 189.583 61.8249C190.268 63.088 190.82 65.8317 190.51 69.1145C190.496 69.2622 190.481 69.4188 190.465 69.5837C190.163 72.7198 189.533 79.2456 191.833 83.6263L191.849 83.6571L191.82 83.6772C191.408 83.9718 190.411 83.7005 189.519 82.7493C188.672 81.8462 188.317 81.8686 187.611 82.4075C187.422 82.5518 187.234 82.6985 187.047 82.845C185.73 83.8733 184.383 84.9255 182.788 84.9255ZM181.642 45.627V71.0142C181.845 73.3192 181.216 78.1411 179.955 81.6395C179.437 83.0743 179.692 83.5813 180.343 84.0151C183.081 85.8411 184.984 84.3554 186.998 82.7821C187.185 82.6354 187.374 82.4886 187.563 82.3442C188.301 81.7813 188.695 81.7534 189.577 82.6946C190.419 83.5921 191.343 83.8733 191.745 83.6313C189.455 79.23 190.084 72.7122 190.386 69.5761C190.402 69.4112 190.417 69.2548 190.431 69.1071C190.739 65.8409 190.192 63.1153 189.513 61.8628C189.183 61.2528 188.972 60.5673 188.749 59.8416C188.464 58.9132 188.141 57.8609 187.495 56.7308L187.454 56.6578L187.537 56.6716C187.687 56.6972 187.832 56.6575 187.965 56.5551C188.461 56.1732 188.835 54.8959 189.018 52.9584C189.062 52.4943 189.077 52.062 189.092 51.6043C189.118 50.8489 189.147 49.9927 189.307 48.6606C189.578 46.4036 188.693 45.6635 188.268 45.3077C187.811 44.9247 187.456 44.7306 187.151 44.6967C186.409 44.4458 184.564 44.6596 184.167 44.7816C183.798 44.8951 183.285 44.9305 182.89 44.8696C182.572 44.8202 182.286 45.0693 181.811 45.4812C181.757 45.5277 181.701 45.5764 181.642 45.627Z" fill="black"/>
<path d="M183.68 43.4462C183.839 43.9364 183.925 44.5707 183.665 45.1475C183.406 45.7242 183.349 46.4163 183.78 47.2526C184.473 46.2722 185.454 46.4741 186.03 45.8973C186.607 45.3205 186.722 44.7726 187.155 44.6572C186.722 44.2824 186.059 43.8787 186.203 42.7828C186.348 41.687 187.875 40.7932 186.492 39.1205C185.598 38.0408 184.299 38.342 183.737 38.7601C183.473 38.9566 183.248 39.2358 183.161 39.4233C183.074 39.6108 183.183 40.0373 182.973 40.2885C182.83 40.4614 182.655 40.6334 182.454 40.7786C182.325 40.8724 182.244 41.009 182.382 41.168C182.437 41.2315 182.539 41.2451 182.65 41.2837C182.585 41.4134 182.512 41.5428 182.44 41.6366C182.372 41.7246 182.401 41.8085 182.483 41.8802C182.374 42.2261 182.584 42.2637 182.44 42.5233C182.315 42.7478 182.145 43.0134 182.613 43.2731C182.742 43.3451 183.356 43.4876 183.68 43.4462Z" fill="#FFE2BD"/>
<path d="M183.775 47.329L183.745 47.2706C183.357 46.5193 183.319 45.8194 183.629 45.1309C183.889 44.5527 183.788 43.9246 183.652 43.489C183.321 43.5177 182.734 43.3856 182.594 43.3078C182.416 43.2089 182.312 43.101 182.277 42.9783C182.231 42.8143 182.317 42.6607 182.393 42.5253L182.405 42.5037C182.471 42.3853 182.456 42.3239 182.435 42.2388C182.415 42.158 182.391 42.0581 182.438 41.8923C182.349 41.8039 182.338 41.7028 182.409 41.612C182.465 41.5386 182.528 41.4338 182.593 41.307C182.581 41.3031 182.568 41.2993 182.556 41.2957C182.476 41.2721 182.401 41.25 182.352 41.194C182.29 41.1229 182.263 41.0499 182.271 40.9766C182.281 40.8946 182.336 40.8149 182.43 40.7462C182.615 40.613 182.787 40.4504 182.942 40.2629C183.062 40.1191 183.071 39.9084 183.078 39.7224C183.084 39.5956 183.088 39.486 183.125 39.4062C183.206 39.2297 183.425 38.942 183.714 38.7278C184.358 38.2489 185.655 38.0465 186.523 39.0949C187.496 40.2715 187.042 41.0914 186.642 41.8147C186.459 42.1448 186.286 42.4566 186.243 42.7878C186.117 43.7454 186.627 44.1666 187.036 44.5051C187.086 44.5466 187.135 44.5869 187.181 44.6268L187.238 44.6761L187.166 44.6955C186.929 44.7587 186.792 44.9597 186.603 45.2381C186.463 45.4454 186.303 45.6804 186.058 45.9254C185.811 46.1724 185.495 46.2793 185.161 46.3924C184.693 46.5507 184.209 46.7144 183.813 47.2754L183.775 47.329ZM183.708 43.4021L183.718 43.4338C183.863 43.8834 183.978 44.5485 183.702 45.1636C183.41 45.8108 183.438 46.4697 183.787 47.176C184.191 46.6363 184.692 46.4669 185.135 46.3169C185.461 46.2068 185.768 46.1028 186.002 45.8689C186.241 45.6294 186.399 45.3977 186.537 45.1932C186.711 44.9372 186.852 44.7301 187.076 44.6414C187.046 44.6168 187.016 44.5919 186.985 44.5666C186.56 44.2156 186.032 43.7788 186.164 42.7774C186.209 42.4312 186.385 42.113 186.572 41.776C186.979 41.0408 187.4 40.2804 186.461 39.1457C185.547 38.0409 184.247 38.4302 183.761 38.7919C183.496 38.9885 183.277 39.2666 183.198 39.4396C183.167 39.5052 183.163 39.6123 183.158 39.7257C183.15 39.9243 183.141 40.1495 183.003 40.3138C182.844 40.5064 182.667 40.6736 182.477 40.8107C182.424 40.8492 182.359 40.9109 182.351 40.9856C182.345 41.0358 182.366 41.0883 182.412 41.1416C182.445 41.1801 182.507 41.1981 182.578 41.2192C182.605 41.2272 182.634 41.2357 182.663 41.2458L182.706 41.2606L182.686 41.3012C182.61 41.4532 182.538 41.5742 182.472 41.6607C182.44 41.7009 182.41 41.7639 182.509 41.8499L182.529 41.8671L182.521 41.8919C182.471 42.0511 182.492 42.1369 182.512 42.2198C182.535 42.3108 182.556 42.3967 182.475 42.5425L182.463 42.5643C182.391 42.6922 182.317 42.8245 182.354 42.9565C182.383 43.0579 182.474 43.1499 182.633 43.2381C182.756 43.3069 183.36 43.4476 183.675 43.4063L183.708 43.4021Z" fill="black"/>
<path d="M178.071 49.1844C177.264 49.3863 175.966 49.0403 174.985 49.1555C174.552 49.2066 174.207 48.9826 174.265 48.5501C174.322 48.1174 174.38 47.4542 174.293 46.8486C174.159 45.9049 174.611 44.5993 175.245 43.1574C175.879 41.7156 176.197 40.9082 176.197 40.2305C176.197 39.7835 176.24 39.2788 176.644 39.0193C176.942 38.8276 176.999 38.6414 177.106 38.4859C177.35 38.1254 177.58 38.0389 177.609 38.2553C177.627 38.3839 177.58 38.5003 177.465 38.6734C177.725 38.4571 178.165 38.2046 178.265 38.1326C178.366 38.0606 178.879 37.7001 178.907 38.0389C179.109 37.9381 179.246 37.9451 179.297 38.0532C179.351 38.1702 179.318 38.2192 179.217 38.3057C179.361 38.2768 179.527 38.5292 179.239 38.7526C179.39 38.7021 179.541 38.9545 179.275 39.1852C178.999 39.4233 178.684 39.589 178.583 39.7763C178.482 39.9638 177.797 40.4901 177.523 40.6054C177.249 40.7208 177.235 40.879 177.235 41.2831C177.235 45.7239 176.702 45.3631 176.702 46.4305C176.702 46.7189 176.644 46.9784 176.932 46.8918C177.221 46.8053 177.639 46.6756 178.071 46.6756V49.1844Z" fill="#FFE2BD"/>
<path d="M177.432 49.2894C177.131 49.2894 176.803 49.2609 176.464 49.2315C175.96 49.1878 175.438 49.1427 174.99 49.1952C174.731 49.2256 174.504 49.1617 174.365 49.0199C174.248 48.9011 174.2 48.7368 174.226 48.545C174.312 47.8917 174.321 47.323 174.253 46.8545C174.107 45.8279 174.654 44.4015 175.208 43.1416C175.877 41.6211 176.157 40.8806 176.157 40.2307C176.157 39.7395 176.213 39.2488 176.622 38.9861C176.847 38.8417 176.927 38.7052 177.005 38.5732C177.027 38.5353 177.049 38.4988 177.073 38.4636C177.245 38.209 177.42 38.0744 177.539 38.102C177.574 38.1102 177.634 38.1402 177.649 38.2502C177.662 38.3433 177.643 38.4288 177.601 38.5189C177.762 38.4028 177.946 38.2882 178.079 38.205C178.154 38.1582 178.213 38.1216 178.242 38.1005C178.44 37.9594 178.705 37.8065 178.851 37.873C178.894 37.8931 178.923 37.9293 178.937 37.981C179.057 37.9284 179.154 37.9145 179.227 37.9403C179.275 37.9569 179.311 37.9893 179.333 38.0364C179.385 38.1495 179.363 38.2151 179.306 38.2772C179.352 38.2964 179.391 38.3349 179.415 38.3869C179.454 38.4711 179.448 38.5959 179.337 38.7174C179.374 38.732 179.408 38.7606 179.431 38.8009C179.484 38.8944 179.482 39.0589 179.301 39.2155C179.2 39.303 179.096 39.3789 178.995 39.4525C178.825 39.5767 178.678 39.684 178.618 39.7955C178.51 39.9945 177.809 40.5283 177.539 40.6424C177.287 40.7483 177.275 40.8807 177.275 41.2832C177.275 44.269 177.034 45.0883 176.875 45.6305C176.798 45.8946 176.742 46.0853 176.742 46.4307C176.742 46.4742 176.74 46.5171 176.739 46.5582C176.735 46.6909 176.731 46.8163 176.78 46.8542C176.807 46.8743 176.854 46.8738 176.921 46.8538L176.949 46.8453C177.243 46.757 177.646 46.636 178.071 46.636H178.111V49.2157L178.081 49.2233C177.887 49.2718 177.668 49.2894 177.432 49.2894ZM175.443 49.0917C175.776 49.0917 176.127 49.1223 176.471 49.1521C177.055 49.2029 177.608 49.2507 178.032 49.1531V46.716C177.633 46.7234 177.252 46.8375 176.972 46.9217L176.944 46.9302C176.849 46.9585 176.78 46.9544 176.732 46.9175C176.65 46.8547 176.654 46.7161 176.659 46.5558C176.66 46.5155 176.662 46.4734 176.662 46.4307C176.662 46.0738 176.722 45.8683 176.799 45.608C176.956 45.0702 177.195 44.2575 177.195 41.2832C177.195 40.879 177.208 40.695 177.508 40.569C177.785 40.4521 178.455 39.9289 178.548 39.7576C178.617 39.6302 178.77 39.518 178.948 39.3881C179.048 39.3155 179.15 39.2405 179.249 39.1552C179.393 39.0304 179.4 38.9075 179.361 38.8404C179.336 38.7962 179.293 38.7775 179.251 38.7906L179.214 38.7213C179.396 38.5801 179.359 38.455 179.343 38.42C179.319 38.3676 179.269 38.3356 179.225 38.3449L179.074 38.3751L179.191 38.2755C179.285 38.1952 179.304 38.1646 179.261 38.0702C179.248 38.0429 179.228 38.025 179.201 38.0155C179.159 38.0008 179.077 37.9992 178.925 38.0749L178.872 38.1011L178.867 38.0424C178.861 37.9657 178.828 37.9504 178.817 37.9453C178.732 37.9061 178.536 37.9887 178.288 38.1654C178.259 38.1868 178.198 38.2245 178.121 38.2726C177.942 38.3846 177.671 38.5537 177.491 38.7042L177.432 38.6515C177.548 38.4775 177.585 38.3716 177.57 38.261C177.563 38.213 177.547 38.1858 177.521 38.1796C177.455 38.1635 177.307 38.2604 177.139 38.5085C177.116 38.5423 177.095 38.5774 177.074 38.6136C176.995 38.7472 176.906 38.8986 176.665 39.0531C176.288 39.2951 176.236 39.7621 176.236 40.2307C176.236 40.895 175.955 41.6424 175.281 43.1737C174.732 44.4233 174.189 45.8364 174.332 46.8433C174.401 47.3188 174.392 47.8949 174.304 48.5555C174.282 48.7221 174.323 48.8634 174.422 48.964C174.544 49.0881 174.747 49.143 174.981 49.1161C175.128 49.0988 175.284 49.0917 175.443 49.0917Z" fill="black"/>
<path d="M178.244 58.7584C179.547 58.1067 181.041 57.8644 181.82 57.6627C182.598 57.4608 183.839 56.8553 184.444 56.5381C185.05 56.2207 185.54 55.7882 185.886 55.6729C186.232 55.5576 186.62 55.319 186.837 54.8944C187.962 52.7027 188.568 50.9439 188.568 49.4153C188.568 48.406 188.308 47.2813 187.327 48.0888C186.406 48.8478 185.402 50.3109 185.136 51.3762C184.732 52.991 184.387 53.3371 184.299 53.6542C184.213 53.9716 183.887 53.9712 183.492 54.058C181.791 54.433 181.387 54.6923 180.118 55.644C178.85 56.5957 177.465 57.432 176.542 57.951C175.62 58.4701 175.447 58.5277 175.245 58.9458C175.044 59.364 174.856 59.6812 174.683 59.8688C174.509 60.0561 174.46 60.2752 174.495 60.5031C174.525 60.6906 174.437 61.5556 174.423 61.844C174.408 62.1324 174.48 62.2045 174.597 62.2188C174.712 62.2334 174.87 62.1757 174.928 61.8296C174.87 62.1757 175.346 62.0602 175.375 61.8008C175.36 62.1757 175.865 61.9594 175.894 61.6134C175.894 61.8584 176.277 61.6889 176.312 61.5701C176.398 61.2817 176.47 60.9645 176.585 60.7339C176.754 60.399 176.934 59.9654 177.264 59.7245C177.639 59.4505 177.465 59.1478 178.244 58.7584Z" fill="#FFE2BD"/>
<path d="M174.627 62.2604C174.614 62.2604 174.602 62.2595 174.592 62.2581C174.429 62.2384 174.369 62.1177 174.384 61.8417C174.388 61.7526 174.399 61.6085 174.412 61.446C174.439 61.1034 174.476 60.6343 174.456 60.5091C174.416 60.2509 174.482 60.0263 174.653 59.8416C174.816 59.6658 174.998 59.3671 175.209 58.9284C175.394 58.5455 175.557 58.4549 176.241 58.0735C176.327 58.0261 176.42 57.9739 176.523 57.9161C177.269 57.4964 178.726 56.6388 180.094 55.6119C181.36 54.6623 181.762 54.3982 183.483 54.0189C183.551 54.0041 183.617 53.9918 183.679 53.98C183.979 53.9236 184.196 53.8829 184.261 53.6436C184.288 53.5459 184.336 53.4491 184.404 53.3152C184.557 53.0101 184.814 52.4994 185.098 51.3664C185.356 50.3303 186.345 48.8461 187.302 48.0579C187.621 47.7955 187.892 47.7137 188.106 47.8151C188.543 48.0213 188.608 48.906 188.608 49.4151C188.608 50.8775 188.073 52.5729 186.873 54.9124C186.618 55.4097 186.153 55.626 185.898 55.7105C185.719 55.7702 185.496 55.9203 185.238 56.0941C185.008 56.2486 184.748 56.4237 184.462 56.5733C184.182 56.7204 182.736 57.4661 181.83 57.7012C181.664 57.744 181.471 57.7877 181.247 57.8384C180.419 58.0257 179.285 58.2823 178.261 58.7939C177.794 59.028 177.681 59.223 177.573 59.4117C177.504 59.5322 177.438 59.6461 177.287 59.7565C177.008 59.9601 176.838 60.3083 176.688 60.6153C176.665 60.662 176.643 60.7077 176.621 60.7517C176.536 60.922 176.473 61.1466 176.412 61.364C176.392 61.437 176.371 61.5101 176.35 61.5813C176.319 61.6858 176.115 61.7944 175.985 61.7763C175.952 61.7714 175.925 61.7593 175.904 61.7409C175.832 61.9188 175.653 62.0433 175.508 62.0368C175.439 62.0325 175.388 61.9983 175.36 61.9407C175.319 61.9962 175.26 62.0358 175.206 62.0585C175.11 62.0981 175.012 62.0925 174.952 62.0444C174.941 62.0362 174.931 62.0261 174.921 62.0134C174.842 62.2235 174.709 62.2604 174.627 62.2604ZM187.914 47.8528C187.756 47.8528 187.568 47.942 187.353 48.1194C186.407 48.8984 185.43 50.3637 185.175 51.3857C184.889 52.5273 184.63 53.043 184.475 53.3511C184.41 53.4809 184.363 53.5747 184.338 53.6647C184.26 53.952 183.998 54.0014 183.694 54.0584C183.632 54.07 183.567 54.0822 183.501 54.0969C181.796 54.4726 181.397 54.7343 180.142 55.6758C178.77 56.7053 177.31 57.5648 176.562 57.9856C176.459 58.0435 176.365 58.0957 176.28 58.1433C175.597 58.5237 175.455 58.6029 175.281 58.9631C175.066 59.4089 174.88 59.7141 174.712 59.8957C174.558 60.0617 174.499 60.264 174.535 60.497C174.556 60.6311 174.52 61.0864 174.491 61.4522C174.479 61.6138 174.468 61.7571 174.463 61.8458C174.448 62.1358 174.523 62.1694 174.602 62.179C174.742 62.1974 174.847 62.0708 174.889 61.8227L174.968 61.836C174.96 61.8841 174.959 61.9483 175.001 61.9819C175.039 62.0116 175.107 62.0132 175.176 61.9849C175.243 61.9569 175.325 61.8907 175.335 61.7962L175.415 61.8022C175.412 61.87 175.427 61.9518 175.513 61.9571C175.635 61.9686 175.838 61.8124 175.855 61.6099L175.934 61.6132C175.934 61.6798 175.967 61.6931 175.996 61.6974C176.099 61.7118 176.257 61.6153 176.274 61.5587C176.295 61.4878 176.315 61.4151 176.335 61.3425C176.397 61.1216 176.461 60.8931 176.55 60.7159C176.572 60.6722 176.594 60.6268 176.616 60.5804C176.771 60.2649 176.945 59.9073 177.24 59.6921C177.378 59.5917 177.436 59.4898 177.504 59.372C177.613 59.1823 177.736 58.9675 178.226 58.7227C179.258 58.2065 180.398 57.9488 181.23 57.7605C181.453 57.7101 181.646 57.6665 181.81 57.624C182.506 57.4435 183.654 56.9071 184.425 56.5026C184.707 56.3552 184.965 56.1813 185.193 56.028C185.457 55.851 185.684 55.698 185.873 55.635C186.116 55.5541 186.56 55.348 186.802 54.8761C187.996 52.5484 188.528 50.8643 188.528 49.4151C188.528 48.581 188.362 48.0241 188.072 47.8873C188.023 47.8643 187.97 47.8528 187.914 47.8528Z" fill="black"/>
<path d="M187.587 82.3759C187.674 82.6931 187.832 83.0536 187.889 83.2699C187.948 83.4862 187.846 83.5536 187.789 83.6736C187.487 84.3081 187.162 85.3194 187.111 85.8652C187.083 86.1824 186.867 86.4852 186.765 86.6727C186.654 86.8794 186.697 87.0389 186.953 87.235C187.075 87.3286 187.472 87.2061 187.515 87.0043C187.659 87.1484 187.918 87.0908 188.034 86.8744C188.164 87.0043 188.381 86.9177 188.525 86.7015C188.654 86.788 188.841 86.615 188.913 86.4995C189.116 86.6005 189.332 86.478 189.339 86.0815C189.34 86.0019 189.389 85.8652 189.448 85.7715C189.505 85.6777 189.526 85.4976 189.52 85.3389C189.512 85.1802 189.613 84.8631 189.75 84.6396C189.887 84.416 190.125 84.0196 190.024 83.6448C189.93 83.2955 189.779 83.3275 189.649 82.823C189.332 82.4912 188.9 82.0298 188.453 82.0009C188.006 81.9722 187.746 82.275 187.587 82.3759Z" fill="#FFE2BD"/>
<path d="M187.075 87.3068C187.019 87.3068 186.967 87.2956 186.928 87.2665C186.663 87.0628 186.605 86.8853 186.73 86.6538C186.75 86.6171 186.774 86.5761 186.801 86.5314C186.906 86.3529 187.049 86.1085 187.071 85.8616C187.125 85.2866 187.467 84.2572 187.753 83.6564C187.767 83.6269 187.784 83.6003 187.8 83.5741C187.849 83.4964 187.891 83.4292 187.851 83.2804C187.825 83.181 187.776 83.047 187.723 82.9052C187.663 82.7421 187.595 82.5572 187.548 82.3865L187.541 82.3579L187.566 82.3423C187.596 82.3228 187.632 82.2949 187.673 82.2624C187.836 82.1327 188.084 81.9366 188.455 81.9611C188.91 81.9906 189.344 82.446 189.662 82.7786L189.688 82.813C189.757 83.0833 189.831 83.1925 189.902 83.2984C189.962 83.3868 190.018 83.4704 190.062 83.6345C190.169 84.031 189.919 84.4404 189.784 84.6605C189.655 84.8716 189.552 85.1814 189.56 85.3368C189.566 85.4855 189.548 85.6829 189.482 85.7923C189.426 85.8822 189.38 86.012 189.379 86.0822C189.375 86.3013 189.308 86.4615 189.189 86.5335C189.112 86.5808 189.02 86.5859 188.928 86.5495C188.869 86.6298 188.761 86.7357 188.649 86.7597C188.609 86.7685 188.571 86.7661 188.537 86.7529C188.443 86.8808 188.322 86.9626 188.208 86.974C188.146 86.9804 188.092 86.9665 188.044 86.9345C187.977 87.0349 187.874 87.1029 187.762 87.1195C187.68 87.1327 187.598 87.1146 187.533 87.0704C187.491 87.1513 187.4 87.2224 187.278 87.2675C187.218 87.2896 187.144 87.3068 187.075 87.3068ZM187.633 82.3929C187.679 82.5527 187.742 82.7249 187.798 82.8777C187.851 83.0214 187.901 83.157 187.928 83.2599C187.977 83.4419 187.921 83.5306 187.868 83.6163C187.853 83.6402 187.838 83.664 187.825 83.6906C187.507 84.3581 187.198 85.3556 187.151 85.8689C187.127 86.1333 186.978 86.3866 186.869 86.5718C186.843 86.6156 186.82 86.6558 186.801 86.6917C186.712 86.856 186.71 86.9988 186.977 87.2033C187.024 87.2388 187.138 87.2345 187.251 87.1927C187.373 87.1474 187.46 87.072 187.476 86.996L187.491 86.9245L187.543 86.9761C187.597 87.03 187.671 87.0521 187.751 87.0408C187.852 87.0255 187.945 86.9564 187.999 86.8558L188.024 86.8083L188.062 86.8462C188.1 86.8837 188.146 86.9011 188.2 86.8947C188.299 86.8847 188.408 86.8042 188.492 86.6794L188.514 86.6462L188.547 86.6683C188.571 86.6843 188.599 86.6886 188.632 86.6818C188.719 86.663 188.826 86.5636 188.88 86.4784L188.899 86.4478L188.931 86.4638C189.009 86.5029 189.086 86.5031 189.148 86.4654C189.242 86.4081 189.296 86.2716 189.299 86.081C189.3 85.9958 189.35 85.8536 189.414 85.7505C189.461 85.6732 189.487 85.512 189.48 85.3404C189.472 85.1691 189.578 84.8452 189.716 84.6189C189.844 84.4091 190.083 84.0187 189.985 83.6552C189.944 83.504 189.894 83.4292 189.836 83.3429C189.765 83.238 189.685 83.1193 189.613 82.8431L189.604 82.8337C189.296 82.5107 188.874 82.0681 188.45 82.0408C188.108 82.0169 187.886 82.1956 187.722 82.3249C187.69 82.3507 187.66 82.3738 187.633 82.3929Z" fill="black"/>
<path d="M179.383 84.8563C179.787 85.2599 180.696 85.2744 181.33 84.5966C181.099 84.4957 180.594 84.265 180.364 84.0776C180.046 84.3949 179.685 84.7552 179.383 84.8563Z" fill="#FFE2BD"/>
<path d="M180.148 85.1769C179.829 85.1769 179.541 85.071 179.355 84.8843L179.309 84.8388L179.37 84.8183C179.664 84.72 180.021 84.3638 180.336 84.0493L180.361 84.0239L180.389 84.0466C180.609 84.2249 181.083 84.4448 181.346 84.5599L181.397 84.5825L181.359 84.6235C181.032 84.9729 180.61 85.1692 180.172 85.1767C180.164 85.1769 180.156 85.1769 180.148 85.1769ZM179.457 84.8704C179.629 85.0155 179.876 85.0972 180.148 85.0972C180.155 85.0972 180.163 85.0972 180.171 85.097C180.57 85.0901 180.955 84.9177 181.261 84.6099C180.999 84.4937 180.588 84.2987 180.367 84.1306C180.073 84.4239 179.746 84.746 179.457 84.8704Z" fill="black"/>
<path d="M183.464 39.005C183.622 37.9813 184.348 38.0055 184.805 38.111C184.992 38.1543 185.454 38.1975 185.886 38.0822C186.741 37.8542 187.386 38.1543 187.3 38.9762C187.53 39.1492 187.774 39.5528 187.731 39.899C187.688 40.245 187.76 40.3892 188.078 40.4324C188.395 40.4758 189.073 40.865 188.625 41.4129C189.058 41.6725 189.389 42.3357 189.159 42.7827C188.929 43.2296 188.236 43.3018 187.948 42.898C187.631 43.0421 187.111 43.071 186.795 42.7395C186.578 42.9989 186.03 42.9701 185.929 42.7395C185.829 42.5087 185.658 42.3853 185.454 42.3212C185.222 42.2492 185.208 41.6148 185.554 41.5426C185.511 41.3551 185.526 41.1389 185.612 41.0381C185.698 40.9372 185.626 40.7497 185.425 40.591C185.222 40.4324 185.05 39.8268 185.251 39.4952C184.906 39.6106 184.141 39.2789 183.983 39.0483C183.824 38.8175 183.608 38.8032 183.464 39.005Z" fill="#D3AE3B"/>
<path d="M188.496 43.2032C188.269 43.2032 188.064 43.1103 187.935 42.9472C187.588 43.0927 187.101 43.0856 186.796 42.797C186.649 42.9416 186.408 42.9817 186.225 42.9558C186.059 42.9322 185.938 42.8593 185.892 42.7556C185.806 42.557 185.659 42.4275 185.442 42.3593C185.297 42.3142 185.239 42.1097 185.247 41.9388C185.255 41.7686 185.328 41.5738 185.507 41.5141C185.476 41.3433 185.486 41.1249 185.582 41.0123C185.602 40.9882 185.611 40.9569 185.607 40.9192C185.598 40.8285 185.521 40.7175 185.4 40.6224C185.197 40.4632 185.033 39.907 185.178 39.5525C184.786 39.6061 184.104 39.2955 183.95 39.0709C183.876 38.9638 183.788 38.9044 183.701 38.9037H183.7C183.625 38.9037 183.555 38.9467 183.496 39.0283L183.425 38.999C183.485 38.609 183.633 38.3316 183.865 38.1748C184.1 38.0155 184.419 37.981 184.814 38.0723C185.019 38.1197 185.472 38.1515 185.875 38.0438C186.389 37.907 186.816 37.956 187.079 38.1813C187.281 38.3539 187.372 38.6223 187.341 38.9583C187.584 39.1515 187.813 39.5599 187.771 39.904C187.728 40.2445 187.799 40.3542 188.083 40.3929C188.298 40.4225 188.668 40.5993 188.781 40.8855C188.827 41.0024 188.845 41.1849 188.684 41.4027C189.117 41.6886 189.43 42.3441 189.194 42.801C189.078 43.0277 188.834 43.181 188.557 43.201C188.537 43.2024 188.516 43.2032 188.496 43.2032ZM187.961 42.8482L187.98 42.8749C188.102 43.0463 188.316 43.1397 188.552 43.1214C188.8 43.1034 189.019 42.9666 189.124 42.7645C189.343 42.3388 189.019 41.6958 188.604 41.4472L188.565 41.4234L188.594 41.3878C188.728 41.2242 188.766 41.065 188.707 40.9147C188.61 40.6693 188.277 40.4999 188.073 40.4719C187.7 40.4214 187.651 40.2218 187.692 39.8942C187.732 39.5699 187.507 39.1818 187.276 39.0083L187.258 38.9947L187.26 38.9722C187.293 38.653 187.213 38.4005 187.027 38.2418C186.788 38.0369 186.376 37.9927 185.896 38.1208C185.446 38.2411 184.979 38.1924 184.796 38.15C184.423 38.0641 184.125 38.0945 183.909 38.2408C183.722 38.3674 183.594 38.5832 183.527 38.8831C183.58 38.8444 183.639 38.8239 183.7 38.8239H183.702C183.815 38.8249 183.927 38.8965 184.016 39.0257C184.163 39.2401 184.915 39.5651 185.239 39.4575L185.342 39.4231L185.285 39.516C185.099 39.8237 185.256 40.4079 185.449 40.5597C185.589 40.6696 185.675 40.7978 185.686 40.9113C185.692 40.9706 185.677 41.0233 185.643 41.0641C185.57 41.1484 185.55 41.346 185.593 41.5337L185.602 41.5733L185.562 41.5817C185.4 41.6156 185.334 41.7903 185.327 41.9426C185.319 42.1097 185.379 42.2562 185.466 42.2832C185.706 42.3588 185.869 42.5028 185.965 42.7237C185.999 42.8002 186.1 42.8575 186.236 42.8769C186.411 42.9015 186.641 42.8608 186.764 42.714L186.793 42.6797L186.823 42.712C187.143 43.0469 187.661 42.985 187.931 42.8618L187.961 42.8482Z" fill="black"/>
<path d="M183.685 43.4855L183.675 43.4064C183.943 43.3721 184.126 43.2725 184.287 43.1847C184.461 43.0904 184.624 43.0019 184.85 43.0168L184.845 43.0963C184.643 43.082 184.496 43.1624 184.326 43.2548C184.158 43.346 183.968 43.4493 183.685 43.4855Z" fill="black"/>
<path d="M182.968 42.091L182.924 42.0858C182.817 42.0736 182.707 42.0609 182.601 42.0036C182.543 41.9718 182.496 41.9448 182.457 41.9104L182.509 41.8506C182.542 41.8796 182.586 41.9043 182.639 41.9336C182.731 41.9835 182.834 41.9952 182.933 42.0066L182.978 42.0119L182.968 42.091Z" fill="black"/>
<path d="M182.858 41.4553C182.784 41.3787 182.701 41.3436 182.637 41.3215L182.663 41.2461C182.735 41.271 182.829 41.311 182.915 41.3998L182.858 41.4553Z" fill="black"/>
<path d="M185.991 39.1557C185.798 39.1557 185.551 39.1137 185.426 38.9905C185.046 38.617 184.605 38.4542 184.243 38.5557C184.079 38.602 183.955 38.7019 183.928 38.8102C183.913 38.8713 183.932 38.9288 183.981 38.9765L183.926 39.0342C183.856 38.9665 183.829 38.8801 183.851 38.791C183.885 38.6533 184.027 38.5338 184.222 38.479C184.611 38.3692 185.081 38.5395 185.482 38.9337C185.638 39.0876 186.06 39.0976 186.191 39.054L186.216 39.1296C186.168 39.1455 186.086 39.1557 185.991 39.1557Z" fill="black"/>
<path d="M188.303 41.6017C188.28 41.6017 188.257 41.5998 188.234 41.5961C187.952 41.551 187.655 41.2337 187.35 40.653C187.202 40.371 187.041 40.3149 186.885 40.2606C186.729 40.2062 186.581 40.1549 186.483 39.8988C186.266 39.331 185.427 39.4956 185.26 39.5343L185.242 39.4566C185.756 39.3368 186.371 39.3825 186.557 39.8703C186.642 40.0917 186.761 40.133 186.911 40.1852C187.074 40.2418 187.259 40.3061 187.421 40.6159C187.709 41.1652 187.995 41.477 188.247 41.5173C188.37 41.5378 188.485 41.4936 188.597 41.3844L188.653 41.4416C188.543 41.548 188.426 41.6016 188.303 41.6017Z" fill="black"/>
<path d="M186.763 42.7636C186.623 42.5787 186.572 42.2 186.649 41.9403C186.485 41.7243 186.546 41.3138 186.657 41.0923L186.729 41.128C186.627 41.3306 186.567 41.7241 186.723 41.906L186.738 41.923L186.731 41.9444C186.646 42.2009 186.711 42.563 186.826 42.7155L186.763 42.7636Z" fill="black"/>
<path d="M186.154 42.1303C185.784 42.0713 185.532 41.7505 185.514 41.5466L185.594 41.5396C185.607 41.6884 185.815 41.9954 186.167 42.0516L186.154 42.1303Z" fill="black"/>
<path d="M187.916 42.9228C187.701 42.6451 187.735 42.3981 187.779 42.0854L187.858 42.0964C187.815 42.4021 187.784 42.6229 187.979 42.8739L187.916 42.9228Z" fill="black"/>
<path d="M187.072 41.2856C186.568 41.2857 186.302 40.9405 186.23 40.7801C185.947 40.651 185.789 40.2918 185.803 40.0269L185.883 40.0312C185.869 40.2738 186.016 40.6036 186.276 40.7132L186.291 40.7196L186.297 40.735C186.353 40.8731 186.635 41.2551 187.179 41.2005L187.187 41.2798C187.147 41.2838 187.109 41.2856 187.072 41.2856Z" fill="black"/>
<path d="M187.275 39.008C186.917 38.73 186.512 38.4631 185.982 38.3931L185.992 38.314C186.542 38.3864 186.957 38.6601 187.324 38.9449L187.275 39.008Z" fill="black"/>
<path d="M182.884 54.232L182.831 54.173C183.737 53.3492 183.419 51.5663 183.187 50.2645L183.165 50.1434C182.962 49.008 183.159 48.0274 183.748 47.229L183.812 47.2765C183.236 48.0565 183.045 49.0164 183.244 50.1294L183.265 50.2505C183.501 51.5706 183.823 53.3786 182.884 54.232Z" fill="black"/>
<path d="M184.317 57.2912C184.001 57.2912 183.683 57.2261 183.417 57.0929L183.453 57.0217C184.037 57.3139 184.88 57.2652 185.372 56.9096C185.893 56.5337 186.835 56.5194 187.538 56.6722L187.521 56.7502C186.857 56.606 185.917 56.6148 185.419 56.9743C185.13 57.1833 184.724 57.2912 184.317 57.2912Z" fill="black"/>
<path d="M185.212 62.3975C185.074 61.3521 185.137 60.3094 185.192 59.3894C185.217 58.9723 185.241 58.5784 185.241 58.2397C185.241 57.2053 185.497 56.7386 186.124 56.6289L186.138 56.7074C185.55 56.8103 185.32 57.2399 185.32 58.2397C185.32 58.5808 185.297 58.9759 185.272 59.3941C185.217 60.3105 185.154 61.3492 185.291 62.3869L185.212 62.3975Z" fill="black"/>
<path d="M184.347 58.2426C184.278 57.2755 184.637 57.1854 184.984 57.0981C185.012 57.0911 185.04 57.0842 185.068 57.0767L185.088 57.1536C185.06 57.1612 185.032 57.1684 185.003 57.1755C184.659 57.2619 184.362 57.3365 184.427 58.2369L184.347 58.2426Z" fill="black"/>
<path d="M183.172 58.2694L183.092 58.2676C183.104 57.7685 183.24 57.3597 183.449 57.2007C183.546 57.1265 183.656 57.1039 183.776 57.134L183.757 57.2114C183.662 57.1877 183.575 57.2053 183.497 57.2641C183.308 57.4088 183.183 57.794 183.172 58.2694Z" fill="black"/>
<path d="M189.683 73.0436C189.467 72.2764 189.43 70.9311 189.386 69.3735C189.327 67.2198 189.253 64.5393 188.645 62.5479C188.539 62.2014 188.438 61.9086 188.341 61.6256C188.077 60.86 187.849 60.1989 187.721 58.9644C187.549 57.3018 187.293 56.8555 186.975 56.7306C186.979 56.7351 186.984 56.7397 186.989 56.7444C187.233 56.9848 187.343 57.5213 187.324 58.3845L187.245 58.3828C187.262 57.5544 187.157 57.0223 186.933 56.8012C186.862 56.731 186.779 56.6913 186.681 56.6812C186.656 56.6802 186.631 56.6795 186.606 56.6788L186.606 56.5992C186.636 56.5978 186.666 56.5992 186.694 56.6025C187.234 56.632 187.582 56.847 187.8 58.9562C187.927 60.1815 188.154 60.8387 188.416 61.5996C188.514 61.8834 188.615 62.1768 188.721 62.5245C189.332 64.5264 189.406 67.2127 189.466 69.3713C189.509 70.9237 189.546 72.2643 189.76 73.0221L189.683 73.0436Z" fill="black"/>
<path d="M188.989 78.2879C188.852 77.4658 188.361 76.2596 187.739 74.7324C187.312 73.6824 186.827 72.4924 186.339 71.1432L186.335 71.1305L186.339 71.1176C188.174 65.3146 187.479 61.7684 186.454 58.8004L186.53 58.7744C187.558 61.7531 188.256 65.3113 186.419 71.1289C186.905 72.4713 187.387 73.6564 187.813 74.7025C188.437 76.2342 188.93 77.4439 189.068 78.2746L188.989 78.2879Z" fill="black"/>
<path d="M183.069 66.2956L182.993 66.2741C183.061 66.029 183.019 65.8618 182.96 65.6304C182.855 65.2116 182.695 64.5788 183.108 62.9304C183.377 61.8503 183.424 61.1901 183.255 60.8524L183.326 60.8169C183.507 61.1772 183.463 61.8351 183.185 62.9495C182.778 64.5788 182.934 65.1999 183.038 65.6108C183.097 65.8452 183.143 66.0302 183.069 66.2956Z" fill="black"/>
<path d="M183.617 67.1062L183.542 67.0792C183.85 66.219 183.627 65.1542 183.431 64.2147C183.28 63.4966 183.138 62.8181 183.252 62.3257L183.329 62.3437C183.22 62.8188 183.36 63.489 183.509 64.1983C183.707 65.1483 183.933 66.2249 183.617 67.1062Z" fill="black"/>
<path d="M185.444 84.0256L185.405 83.9564C185.861 83.6957 185.837 82.8873 185.82 82.2969C185.815 82.1336 185.811 81.9793 185.817 81.8553C185.971 78.7717 184.911 76.4789 183.169 72.9932C183.073 72.8025 182.982 72.6348 182.894 72.4723C182.555 71.849 182.31 71.3986 182.357 70.6084C182.389 70.0611 182.33 69.4162 182.273 68.7928C182.227 68.2889 182.184 67.8129 182.184 67.3809H182.263C182.263 67.8092 182.307 68.2834 182.352 68.7855C182.41 69.4119 182.469 70.0598 182.437 70.6131C182.391 71.3805 182.631 71.8225 182.964 72.4342C183.052 72.5973 183.144 72.7656 183.24 72.9576C184.988 76.4549 186.052 78.7559 185.896 81.8592C185.89 81.9799 185.895 82.1328 185.9 82.2945C185.918 82.9051 185.942 83.7412 185.444 84.0256Z" fill="black"/>
<path d="M182.299 84.8831C182.287 84.8831 182.275 84.8827 182.263 84.8815L182.27 84.8022C182.411 84.8128 182.59 84.756 182.807 84.2353C183.008 83.753 183.715 80.6358 183.425 78.4886L183.503 78.478C183.796 80.6396 183.083 83.7798 182.88 84.2661C182.701 84.6956 182.526 84.8831 182.299 84.8831Z" fill="black"/>
<path d="M183.501 84.0061L183.427 83.976C183.871 82.8797 183.845 81.4914 183.77 80.9105L183.849 80.9004C183.926 81.4885 183.951 82.8943 183.501 84.0061Z" fill="black"/>
<path d="M184.974 82.5005L184.896 82.4829C185.115 81.5124 185.104 80.2149 184.867 78.9231L184.945 78.9087C185.184 80.2108 185.195 81.5198 184.974 82.5005Z" fill="black"/>
<path d="M184.195 84.6637L184.174 84.5867C184.486 84.5035 184.391 83.5609 184.328 82.9373C184.31 82.7627 184.295 82.6119 184.289 82.4932L184.368 82.4893C184.374 82.6059 184.39 82.7557 184.407 82.9293C184.481 83.6572 184.572 84.5631 184.195 84.6637Z" fill="black"/>
<path d="M189.26 82.4913C188.786 82.0325 188.334 80.6882 187.855 79.2647C187.417 77.9632 186.965 76.6171 186.458 75.8228L186.526 75.7798C187.037 76.5825 187.492 77.9331 187.931 79.2394C188.407 80.6532 188.856 81.9888 189.316 82.4339L189.26 82.4913Z" fill="black"/>
<path d="M187.375 81.8021L187.371 81.7447C187.344 81.3074 187.307 80.7084 187.067 80.4422L187.126 80.3887C187.385 80.6758 187.421 81.2658 187.451 81.7398L187.454 81.7971L187.375 81.8021Z" fill="black"/>
<path d="M175.934 61.6154L175.854 61.6119C175.857 61.5648 175.857 61.518 175.858 61.4707C175.86 61.1937 175.863 60.9072 176.164 60.4805L176.229 60.5266C175.943 60.9328 175.94 61.2066 175.937 61.4717C175.937 61.5197 175.936 61.5674 175.934 61.6154Z" fill="black"/>
<path d="M175.415 61.8023L175.335 61.7992L175.342 61.6145C175.378 60.6748 175.382 60.5541 175.693 60.2578L175.748 60.3156C175.461 60.5895 175.457 60.6867 175.422 61.6174L175.415 61.8023Z" fill="black"/>
<path d="M174.968 61.8306L174.889 61.829C174.892 61.6495 174.889 61.4964 174.886 61.3612C174.878 60.8942 174.873 60.6368 175.125 60.2368L175.193 60.2794C174.953 60.6593 174.958 60.9081 174.966 61.3599C174.969 61.4956 174.971 61.6495 174.968 61.8306Z" fill="black"/>
<path d="M177.786 38.929L177.737 38.8655C178.041 38.6336 178.762 38.0854 178.885 38.0059L178.929 38.0729C178.808 38.1509 178.089 38.6976 177.786 38.929Z" fill="black"/>
<path d="M178.002 39.2314L177.953 39.1684L178.261 38.9291C178.793 38.5146 179.085 38.2863 179.211 38.2666L179.223 38.3453C179.118 38.3619 178.796 38.6126 178.31 38.992L178.002 39.2314Z" fill="black"/>
<path d="M178.224 39.5716L178.178 39.5063C178.344 39.3897 178.514 39.2503 178.678 39.1153C178.899 38.9336 179.09 38.7766 179.222 38.7168L179.255 38.7895C179.133 38.8449 178.936 39.0062 178.728 39.177C178.563 39.3128 178.392 39.4532 178.224 39.5716Z" fill="black"/>
<path d="M177.072 39.0944L177.023 39.0315C177.068 38.9959 177.138 38.9273 177.211 38.8547C177.295 38.7716 177.382 38.6855 177.442 38.6416L177.489 38.7059C177.434 38.7463 177.349 38.8302 177.267 38.9114C177.192 38.9856 177.121 39.0559 177.072 39.0944Z" fill="black"/>
<path d="M187.485 87.0309C187.4 86.9355 187.419 86.6514 187.528 86.3838L187.602 86.4139C187.489 86.6914 187.496 86.9234 187.544 86.9777L187.485 87.0309Z" fill="black"/>
<path d="M188.005 86.9028C187.878 86.7737 188.068 86.2353 188.076 86.2124L188.151 86.2394C188.054 86.5124 188.012 86.7962 188.062 86.8466L188.005 86.9028Z" fill="black"/>
<path d="M188.508 86.7381C188.47 86.7203 188.44 86.685 188.423 86.6357C188.383 86.5199 188.412 86.3482 188.503 86.165L188.575 86.2006C188.494 86.3623 188.465 86.515 188.498 86.6094C188.508 86.6377 188.523 86.6572 188.542 86.6658L188.508 86.7381Z" fill="black"/>
<path d="M188.901 86.5375C188.872 86.5277 188.849 86.5072 188.835 86.4779C188.798 86.4008 188.818 86.2572 188.897 86.0391L188.972 86.0664C188.88 86.3209 188.892 86.4117 188.907 86.4434C188.913 86.4561 188.92 86.46 188.926 86.4617L188.901 86.5375Z" fill="black"/>
<path d="M183.24 39.9133C183.449 40.1872 183.665 40.1583 183.703 40.3348C183.741 40.5117 183.769 40.5242 183.81 40.5766C183.85 40.6289 183.711 40.6184 183.643 40.5902C183.575 40.5619 183.406 40.5648 183.302 40.5664C183.2 40.568 183.077 40.4466 183.154 40.4323C183.23 40.4181 183.22 40.3942 183.208 40.3404C183.197 40.2867 183.251 40.2018 183.283 40.1862C183.316 40.1706 183.293 40.1736 183.264 40.1015C183.234 40.0294 183.196 39.8543 183.24 39.9133Z" fill="black"/>
<path d="M183.367 39.6625C183.601 39.69 184.005 39.8165 184.224 40.0589C184.396 40.2495 184.255 40.199 184.168 40.2061C184.081 40.2134 183.91 40.1515 183.824 40.0432C183.739 39.935 183.484 39.7977 183.349 39.762C183.267 39.7408 183.189 39.6417 183.367 39.6625Z" fill="black"/>
<g clip-path="url(#clip0_909_274610)">
<path d="M0 0V60H120V0H0Z" fill="#021455"/>
<path d="M13.4165 0L60 23.2915L106.583 0H120V6.70801L73.4165 30L120 53.2915V60H106.583L60 36.708L13.4165 60H0V53.2915L46.5835 30L0 6.70801V0H13.4165Z" fill="white"/>
<path d="M60 34.4722L8.94434 60H0L60 30V34.4722Z" fill="#D91C16"/>
<path d="M68.9443 30L120 55.5278V60L60 30H68.9443Z" fill="#D91C16"/>
<path d="M60 30V25.5278L111.056 0H120L60 30Z" fill="#D91C16"/>
<path d="M60 30H51.0557L0 4.47217V0L60 30Z" fill="#D91C16"/>
<path d="M70 0V20H120V40H70V60H50V40H0V20H50V0H70Z" fill="white"/>
<path d="M66 0V24H120V36H66V60H54V36H0V24H54V0H66Z" fill="#D91C16"/>
</g>
<defs>
<clipPath id="clip0_909_274610">
<rect width="120" height="60" fill="white"/>
</clipPath>
</defs>
</svg>
