<svg width="240" height="120" viewBox="0 0 240 120" fill="none" xmlns="http://www.w3.org/2000/svg">
<rect width="240" height="120" fill="#021455"/>
<path d="M153.893 29.5054H205.269L205.208 66.0628C205.635 80.7587 196.476 89.878 179.622 93.9896C167.655 91.0176 153.854 84.8704 153.834 66.4798L153.895 29.5054L153.893 29.5054Z" fill="white"/>
<path d="M155.031 30.6074H204.129L204.071 65.6384C204.479 79.7204 195.725 88.4588 179.619 92.3988C168.181 89.5514 154.992 83.6604 154.973 66.0378L155.031 30.6074H155.031Z" fill="#54AEF2"/>
<path d="M179.618 92.5857L179.575 92.575C168.946 89.9287 154.812 84.2988 154.792 66.0381L154.85 30.6072L155.031 30.6075V30.4263H204.311L204.31 30.6078L204.252 65.6389C204.652 79.4213 196.379 88.4857 179.662 92.575L179.618 92.5857ZM155.212 30.7888L155.154 66.0383C155.174 84.0193 169.113 89.5908 179.619 92.2123C196.119 88.1643 204.284 79.2258 203.89 65.6437L203.947 30.7888H155.212Z" fill="black"/>
<path d="M203.748 69.7876C201.962 83.2296 191.61 89.1027 179.617 92.22C169.003 89.3724 157.582 84.8264 155.369 69.8552L203.749 69.7876L203.748 69.7876Z" fill="#AD7D5A"/>
<path d="M177.673 37.1328L177.605 32.7178L181.096 32.752L181.13 37.1328H190.679L190.713 40.5554L181.13 40.5896L181.053 80.9526L177.648 80.974L177.605 40.5554L168.088 40.5897L168.09 37.0987L177.673 37.1328Z" fill="#784B26"/>
<path fill-rule="evenodd" clip-rule="evenodd" d="M169.943 71.4536L178.684 80.5212C181.706 77.1992 179.61 64.7821 175.634 62.4951C175.158 63.9654 174.347 65.7283 173.486 66.2967C171.591 67.5881 166.948 69.0979 168.5 70.0648C168.854 69.5747 169.78 69.1118 170.215 70.2011C170.733 71.9164 168.282 72.0255 168.282 72.0255C168.282 72.0255 166.73 71.8347 166.458 70.2553C166.185 68.6762 168.769 67.2343 168.99 67.1241C169.208 67.0423 172.584 66.1439 173.156 63.1484C173.864 60.2075 174.599 60.6434 174.735 60.5889C179.146 61.0245 182.033 68.9213 182.196 74.476C182.36 80.0308 179.936 83.7068 179.501 83.9519C179.065 84.1969 168.99 71.9982 168.99 71.9982L169.943 71.4536Z" fill="#F4812F"/>
<path d="M179.489 84.0545C179.296 84.0545 178.598 83.5145 174.008 78.1297C171.464 75.1445 168.941 72.0904 168.915 72.0598L168.895 72.0348C168.568 72.108 168.31 72.1209 168.286 72.1221C168.254 72.1193 166.644 71.9029 166.362 70.2717C166.067 68.5584 168.918 67.052 168.947 67.0375C168.97 67.0281 168.997 67.0195 169.035 67.0072C170.342 66.5883 172.603 65.5275 173.061 63.1303C173.629 60.7719 174.217 60.4807 174.662 60.4973C174.68 60.4975 174.694 60.499 174.706 60.4971L174.728 60.4883L174.745 60.4926C176.767 60.6922 178.685 62.4959 180.146 65.5713C181.404 68.2201 182.207 71.548 182.293 74.473C182.458 80.0891 179.972 83.7977 179.548 84.0361C179.532 84.0451 179.515 84.0545 179.489 84.0545ZM169.138 72.0252C173.003 76.7027 178.851 83.5994 179.474 83.8537C179.94 83.5197 182.26 79.9223 182.1 74.4789C181.939 69.0145 179.063 61.1338 174.744 60.6869C174.716 60.6924 174.688 60.6916 174.656 60.6906C174.46 60.6861 173.853 60.6686 173.25 63.1711C172.775 65.6621 170.442 66.7596 169.094 67.1916C169.06 67.2023 169.037 67.21 169.024 67.2146C168.449 67.5021 166.317 68.8701 166.553 70.2389C166.81 71.7301 168.279 71.9275 168.294 71.9293C168.292 71.9285 168.802 71.9021 169.294 71.7131L169.837 71.4025C169.905 71.3436 169.967 71.2779 170.018 71.2051C170.204 70.9432 170.239 70.6146 170.123 70.2289C169.979 69.8711 169.77 69.6687 169.502 69.6359C169.158 69.5936 168.776 69.8479 168.578 70.1213L168.525 70.1945L168.449 70.1469C168.202 69.993 168.081 69.8117 168.091 69.6082C168.124 68.949 169.59 68.2246 171.142 67.4576C171.98 67.0436 172.847 66.6152 173.432 66.2168C174.271 65.6629 175.072 63.9158 175.542 62.4652L175.579 62.3518L175.682 62.4113C177.577 63.501 179.243 67.0326 179.928 71.4088C180.437 74.6625 180.397 78.782 178.755 80.5861L178.686 80.6627L169.929 71.5783C169.763 71.7133 169.569 71.8148 169.372 71.8914L169.138 72.0252ZM170.071 71.4465L178.68 80.3783C179.961 78.8695 180.367 75.4631 179.737 71.4387C179.073 67.1984 177.491 63.7699 175.688 62.6404C175.203 64.0984 174.396 65.8119 173.539 66.3773C172.945 66.7828 172.072 67.2141 171.228 67.6311C169.861 68.3064 168.312 69.0721 168.285 69.6176C168.279 69.7295 168.343 69.8334 168.479 69.934C168.715 69.6514 169.12 69.3951 169.526 69.4438C169.762 69.4729 170.088 69.6215 170.305 70.165C170.442 70.6191 170.398 71.0041 170.176 71.3174C170.144 71.3629 170.108 71.4059 170.071 71.4465Z" fill="black"/>
<path d="M176.315 63.0127L176.369 79.3776L176.315 63.0127Z" fill="#F4812F"/>
<path d="M176.411 63.0121L176.218 63.0127L176.272 79.3777L176.466 79.3771L176.411 63.0121Z" fill="black"/>
<path d="M175.335 63.3115C175.335 63.3388 175.389 78.1792 175.389 78.1792L175.335 63.3115Z" fill="#F4812F"/>
<path d="M175.292 78.1797C175.29 77.5736 175.238 63.3387 175.238 63.3115H175.431C175.431 63.3564 175.485 78.0307 175.486 78.1789L175.292 78.1797Z" fill="black"/>
<path d="M174.273 65.4629L174.327 77.2806L174.273 65.4629Z" fill="#F4812F"/>
<path d="M174.369 65.4625L174.176 65.4634L174.23 77.2811L174.423 77.2803L174.369 65.4625Z" fill="black"/>
<path d="M173.401 66.3071L173.456 76.0829L173.401 66.3071Z" fill="#F4812F"/>
<path d="M173.498 66.3065L173.304 66.3076L173.359 76.0834L173.552 76.0823L173.498 66.3065Z" fill="black"/>
<path d="M172.572 66.7427H172.379V74.9933H172.572V66.7427Z" fill="black"/>
<path d="M171.564 67.3965H171.371V73.9314H171.564V67.3965Z" fill="black"/>
<path d="M170.693 67.9136H170.5V72.9237H170.693V67.9136Z" fill="black"/>
<path d="M178.82 82.9047C178.793 82.9047 178.766 82.8935 178.747 82.8717L169.734 72.5515C169.699 72.5113 169.703 72.4502 169.743 72.415C169.783 72.3799 169.845 72.384 169.88 72.4242L178.893 82.7443C178.928 82.7845 178.924 82.8457 178.884 82.8808C178.865 82.8968 178.843 82.9047 178.82 82.9047Z" fill="#FDD406"/>
<path d="M179.555 82.4449C179.527 82.4449 179.498 82.4384 179.472 82.4248C179.383 82.3789 179.348 82.2697 179.394 82.1806C183.096 74.9902 179.131 66.1439 179.091 66.0554C179.049 65.9644 179.089 65.8568 179.18 65.8152C179.271 65.7738 179.379 65.8136 179.42 65.9046C179.462 65.9947 183.498 75.0013 179.716 82.3466C179.684 82.4091 179.621 82.4449 179.555 82.4449Z" fill="#FDD406"/>
<path d="M168.745 70.7905C168.723 70.7905 168.701 70.7866 168.68 70.7786C168.587 70.7429 168.54 70.6384 168.575 70.545C168.611 70.4519 168.804 69.9835 169.134 69.8991C169.233 69.8735 169.384 69.8724 169.544 70.0087C169.62 70.0739 169.628 70.1884 169.563 70.2644C169.498 70.3405 169.383 70.3491 169.308 70.2841C169.258 70.2417 169.234 70.2476 169.224 70.2503C169.117 70.2773 168.975 70.5136 168.914 70.6737C168.887 70.746 168.818 70.7905 168.745 70.7905Z" fill="#FDD406"/>
<path d="M167.302 70.8721C167.254 70.8721 167.207 70.8538 167.172 70.817C166.947 70.5858 166.839 70.3081 166.852 69.9918C166.886 69.1067 167.875 68.2231 167.917 68.1858C167.992 68.12 168.106 68.1268 168.173 68.2016C168.239 68.2766 168.232 68.3913 168.157 68.4575C168.148 68.4657 167.241 69.2764 167.214 70.0065C167.206 70.2225 167.277 70.4051 167.432 70.5647C167.502 70.6366 167.5 70.7512 167.428 70.8209C167.393 70.8551 167.347 70.8721 167.302 70.8721Z" fill="#FDD406"/>
<path d="M181.156 45.6088C181.761 45.0898 182.075 44.7726 182.45 44.8303C182.824 44.8879 183.334 44.859 183.709 44.7437C184.085 44.6283 185.945 44.3976 186.709 44.6571C186.969 44.686 187.314 44.8303 187.847 45.2773C188.381 45.7241 189.16 46.5028 188.9 48.6656C188.641 50.8283 188.726 51.7533 188.612 52.9622C188.411 55.0962 187.937 56.8533 187.084 56.711C188.237 58.7296 188.352 60.4598 189.102 61.844C189.852 63.2282 190.313 66.0542 190.025 69.111C189.737 72.1678 188.93 79.0308 191.351 83.6448C190.947 83.9332 189.968 83.6448 189.102 82.722C188.237 81.7992 187.857 81.8295 187.141 82.376C184.95 84.0485 182.898 86.0644 179.875 84.0485C179.183 83.5871 178.964 83.0337 179.471 81.6262C180.74 78.1082 181.356 73.2812 181.156 71.0142L181.156 45.6088Z" fill="#1E9A1C"/>
<path d="M182.342 84.9255C181.577 84.9255 180.756 84.6837 179.853 84.0815C179.184 83.6358 178.901 83.089 179.434 81.6126C180.692 78.1241 181.319 73.3179 181.116 71.0177L181.116 45.5903L181.13 45.5784C181.194 45.5236 181.255 45.4711 181.312 45.421C181.805 44.994 182.101 44.7353 182.456 44.7908C182.84 44.8496 183.339 44.8158 183.697 44.7055C184.042 44.5996 185.924 44.3481 186.722 44.6192C187.035 44.6531 187.404 44.853 187.873 45.2466C188.309 45.6113 189.216 46.3702 188.94 48.6702C188.781 49.9988 188.752 50.8532 188.726 51.607C188.71 52.0659 188.696 52.4994 188.652 52.9658C188.521 54.3523 188.227 56.1114 187.568 56.6183C187.439 56.7171 187.3 56.7637 187.157 56.7584C187.781 57.8707 188.099 58.9042 188.379 59.8182C188.601 60.5399 188.81 61.2218 189.137 61.8249C189.822 63.088 190.374 65.8317 190.064 69.1145C190.05 69.2622 190.035 69.4188 190.019 69.5837C189.717 72.7198 189.087 79.2456 191.387 83.6263L191.403 83.6571L191.374 83.6772C190.962 83.9718 189.965 83.7005 189.073 82.7493C188.226 81.8462 187.871 81.8686 187.165 82.4075C186.976 82.5518 186.788 82.6985 186.601 82.845C185.284 83.8733 183.937 84.9255 182.342 84.9255ZM181.196 45.627V71.0142C181.399 73.3192 180.77 78.1411 179.509 81.6395C178.991 83.0743 179.246 83.5813 179.897 84.0151C182.635 85.8411 184.538 84.3554 186.552 82.7821C186.739 82.6354 186.928 82.4886 187.117 82.3442C187.855 81.7813 188.249 81.7534 189.131 82.6946C189.973 83.5921 190.897 83.8733 191.299 83.6313C189.009 79.23 189.637 72.7122 189.94 69.5761C189.956 69.4112 189.971 69.2548 189.985 69.1071C190.293 65.8409 189.746 63.1153 189.067 61.8628C188.737 61.2528 188.526 60.5673 188.303 59.8416C188.018 58.9132 187.695 57.8609 187.049 56.7308L187.008 56.6578L187.091 56.6716C187.241 56.6972 187.386 56.6575 187.519 56.5551C188.015 56.1732 188.389 54.8959 188.572 52.9584C188.616 52.4943 188.631 52.062 188.646 51.6043C188.672 50.8489 188.701 49.9927 188.861 48.6606C189.132 46.4036 188.247 45.6635 187.822 45.3077C187.365 44.9247 187.01 44.7306 186.705 44.6967C185.963 44.4458 184.118 44.6596 183.721 44.7816C183.352 44.8951 182.839 44.9305 182.444 44.8696C182.126 44.8202 181.84 45.0693 181.365 45.4812C181.311 45.5277 181.255 45.5764 181.196 45.627Z" fill="black"/>
<path d="M183.234 43.4462C183.393 43.9364 183.479 44.5707 183.219 45.1475C182.96 45.7242 182.903 46.4163 183.334 47.2526C184.027 46.2722 185.008 46.4741 185.584 45.8973C186.161 45.3205 186.276 44.7726 186.709 44.6572C186.276 44.2824 185.613 43.8787 185.757 42.7828C185.902 41.687 187.429 40.7932 186.046 39.1205C185.152 38.0408 183.853 38.342 183.291 38.7601C183.027 38.9566 182.801 39.2358 182.715 39.4233C182.628 39.6108 182.737 40.0373 182.527 40.2885C182.384 40.4614 182.209 40.6334 182.008 40.7786C181.879 40.8724 181.798 41.009 181.936 41.168C181.991 41.2315 182.093 41.2451 182.204 41.2837C182.139 41.4134 182.066 41.5428 181.994 41.6366C181.926 41.7246 181.955 41.8085 182.037 41.8802C181.928 42.2261 182.138 42.2637 181.994 42.5233C181.869 42.7478 181.699 43.0134 182.167 43.2731C182.296 43.3451 182.91 43.4876 183.234 43.4462Z" fill="#FFE2BD"/>
<path d="M183.329 47.329L183.299 47.2706C182.911 46.5193 182.873 45.8194 183.183 45.1309C183.443 44.5527 183.342 43.9246 183.206 43.489C182.875 43.5177 182.288 43.3856 182.148 43.3078C181.97 43.2089 181.866 43.101 181.831 42.9783C181.785 42.8143 181.871 42.6607 181.947 42.5253L181.959 42.5037C182.025 42.3853 182.01 42.3239 181.989 42.2388C181.969 42.158 181.945 42.0581 181.992 41.8923C181.903 41.8039 181.892 41.7028 181.962 41.612C182.019 41.5386 182.082 41.4338 182.147 41.307C182.135 41.3031 182.122 41.2993 182.11 41.2957C182.03 41.2721 181.955 41.25 181.906 41.194C181.844 41.1229 181.817 41.0499 181.825 40.9766C181.835 40.8946 181.89 40.8149 181.984 40.7462C182.169 40.613 182.341 40.4504 182.496 40.2629C182.616 40.1191 182.625 39.9084 182.632 39.7224C182.638 39.5956 182.642 39.486 182.679 39.4062C182.76 39.2297 182.979 38.942 183.268 38.7278C183.912 38.2489 185.209 38.0465 186.077 39.0949C187.05 40.2715 186.596 41.0914 186.196 41.8147C186.013 42.1448 185.84 42.4566 185.797 42.7878C185.671 43.7454 186.18 44.1666 186.59 44.5051C186.64 44.5466 186.689 44.5869 186.735 44.6268L186.792 44.6761L186.72 44.6955C186.483 44.7587 186.346 44.9597 186.157 45.2381C186.017 45.4454 185.857 45.6804 185.612 45.9254C185.365 46.1724 185.049 46.2793 184.715 46.3924C184.247 46.5507 183.763 46.7144 183.367 47.2754L183.329 47.329ZM183.262 43.4021L183.272 43.4338C183.417 43.8834 183.532 44.5485 183.255 45.1636C182.964 45.8108 182.992 46.4697 183.341 47.176C183.745 46.6363 184.246 46.4669 184.689 46.3169C185.015 46.2068 185.322 46.1028 185.556 45.8689C185.795 45.6294 185.953 45.3977 186.091 45.1932C186.265 44.9372 186.406 44.7301 186.629 44.6414C186.6 44.6168 186.57 44.5919 186.539 44.5666C186.114 44.2156 185.586 43.7788 185.718 42.7774C185.763 42.4312 185.939 42.113 186.126 41.776C186.533 41.0408 186.954 40.2804 186.015 39.1457C185.101 38.0409 183.801 38.4302 183.315 38.7919C183.05 38.9885 182.831 39.2666 182.752 39.4396C182.721 39.5052 182.717 39.6123 182.712 39.7257C182.704 39.9243 182.695 40.1495 182.557 40.3138C182.398 40.5064 182.221 40.6736 182.031 40.8107C181.978 40.8492 181.913 40.9109 181.905 40.9856C181.899 41.0358 181.92 41.0883 181.966 41.1416C181.999 41.1801 182.061 41.1981 182.132 41.2192C182.159 41.2272 182.188 41.2357 182.217 41.2458L182.26 41.2606L182.24 41.3012C182.164 41.4532 182.092 41.5742 182.026 41.6607C181.994 41.7009 181.964 41.7639 182.063 41.8499L182.083 41.8671L182.075 41.8919C182.025 42.0511 182.046 42.1369 182.066 42.2198C182.089 42.3108 182.11 42.3967 182.029 42.5425L182.017 42.5643C181.945 42.6922 181.87 42.8245 181.908 42.9565C181.937 43.0579 182.028 43.1499 182.187 43.2381C182.31 43.3069 182.913 43.4476 183.229 43.4063L183.262 43.4021Z" fill="black"/>
<path d="M177.625 49.1844C176.818 49.3863 175.52 49.0403 174.539 49.1555C174.106 49.2066 173.761 48.9826 173.819 48.5501C173.876 48.1174 173.934 47.4542 173.847 46.8486C173.713 45.9049 174.165 44.5993 174.799 43.1574C175.433 41.7156 175.751 40.9082 175.751 40.2305C175.751 39.7835 175.794 39.2788 176.198 39.0193C176.496 38.8276 176.553 38.6414 176.66 38.4859C176.904 38.1254 177.134 38.0389 177.163 38.2553C177.181 38.3839 177.134 38.5003 177.019 38.6734C177.279 38.4571 177.719 38.2046 177.819 38.1326C177.92 38.0606 178.433 37.7001 178.461 38.0389C178.663 37.9381 178.8 37.9451 178.851 38.0532C178.905 38.1702 178.872 38.2192 178.771 38.3057C178.915 38.2768 179.081 38.5292 178.792 38.7526C178.944 38.7021 179.095 38.9545 178.829 39.1852C178.553 39.4233 178.238 39.589 178.137 39.7763C178.036 39.9638 177.351 40.4901 177.077 40.6054C176.803 40.7208 176.789 40.879 176.789 41.2831C176.789 45.7239 176.256 45.3631 176.256 46.4305C176.256 46.7189 176.198 46.9784 176.486 46.8918C176.775 46.8053 177.192 46.6756 177.625 46.6756V49.1844Z" fill="#FFE2BD"/>
<path d="M176.986 49.2894C176.685 49.2894 176.357 49.2609 176.018 49.2315C175.514 49.1878 174.992 49.1427 174.544 49.1952C174.285 49.2256 174.058 49.1617 173.919 49.0199C173.802 48.9011 173.754 48.7368 173.779 48.545C173.866 47.8917 173.875 47.323 173.807 46.8545C173.661 45.8279 174.208 44.4015 174.762 43.1416C175.431 41.6211 175.711 40.8806 175.711 40.2307C175.711 39.7395 175.767 39.2488 176.176 38.9861C176.401 38.8417 176.481 38.7052 176.559 38.5732C176.581 38.5353 176.603 38.4988 176.627 38.4636C176.799 38.209 176.974 38.0744 177.093 38.102C177.128 38.1102 177.188 38.1402 177.203 38.2502C177.216 38.3433 177.197 38.4288 177.155 38.5189C177.316 38.4028 177.5 38.2882 177.633 38.205C177.708 38.1582 177.767 38.1216 177.796 38.1005C177.994 37.9594 178.259 37.8065 178.404 37.873C178.448 37.8931 178.477 37.9293 178.491 37.981C178.611 37.9284 178.708 37.9145 178.781 37.9403C178.829 37.9569 178.865 37.9893 178.887 38.0364C178.939 38.1495 178.917 38.2151 178.86 38.2772C178.906 38.2964 178.945 38.3349 178.969 38.3869C179.008 38.4711 179.002 38.5959 178.891 38.7174C178.928 38.732 178.962 38.7606 178.985 38.8009C179.038 38.8944 179.036 39.0589 178.855 39.2155C178.754 39.303 178.65 39.3789 178.549 39.4525C178.379 39.5767 178.232 39.684 178.172 39.7955C178.064 39.9945 177.363 40.5283 177.093 40.6424C176.841 40.7483 176.829 40.8807 176.829 41.2832C176.829 44.269 176.588 45.0883 176.429 45.6305C176.352 45.8946 176.295 46.0853 176.295 46.4307C176.295 46.4742 176.294 46.5171 176.293 46.5582C176.289 46.6909 176.285 46.8163 176.334 46.8542C176.361 46.8743 176.408 46.8738 176.475 46.8538L176.503 46.8453C176.797 46.757 177.2 46.636 177.625 46.636H177.665V49.2157L177.635 49.2233C177.441 49.2718 177.222 49.2894 176.986 49.2894ZM174.997 49.0917C175.33 49.0917 175.681 49.1223 176.025 49.1521C176.609 49.2029 177.162 49.2507 177.586 49.1531V46.716C177.187 46.7234 176.806 46.8375 176.526 46.9217L176.498 46.9302C176.403 46.9585 176.334 46.9544 176.286 46.9175C176.204 46.8547 176.208 46.7161 176.213 46.5558C176.214 46.5155 176.216 46.4734 176.216 46.4307C176.216 46.0738 176.276 45.8683 176.353 45.608C176.51 45.0702 176.749 44.2575 176.749 41.2832C176.749 40.879 176.762 40.695 177.062 40.569C177.339 40.4521 178.009 39.9289 178.102 39.7576C178.17 39.6302 178.324 39.518 178.502 39.3881C178.602 39.3155 178.704 39.2405 178.803 39.1552C178.947 39.0304 178.954 38.9075 178.915 38.8404C178.89 38.7962 178.847 38.7775 178.805 38.7906L178.768 38.7213C178.95 38.5801 178.912 38.455 178.896 38.42C178.873 38.3676 178.823 38.3356 178.779 38.3449L178.628 38.3751L178.745 38.2755C178.839 38.1952 178.858 38.1646 178.815 38.0702C178.802 38.0429 178.782 38.025 178.755 38.0155C178.712 38.0008 178.63 37.9992 178.479 38.0749L178.426 38.1011L178.421 38.0424C178.415 37.9657 178.382 37.9504 178.371 37.9453C178.286 37.9061 178.09 37.9887 177.842 38.1654C177.812 38.1868 177.752 38.2245 177.675 38.2726C177.496 38.3846 177.225 38.5537 177.045 38.7042L176.986 38.6515C177.102 38.4775 177.139 38.3716 177.124 38.261C177.117 38.213 177.101 38.1858 177.075 38.1796C177.009 38.1635 176.861 38.2604 176.693 38.5085C176.67 38.5423 176.649 38.5774 176.628 38.6136C176.549 38.7472 176.46 38.8986 176.219 39.0531C175.842 39.2951 175.79 39.7621 175.79 40.2307C175.79 40.895 175.509 41.6424 174.835 43.1737C174.286 44.4233 173.743 45.8364 173.886 46.8433C173.955 47.3188 173.945 47.8949 173.858 48.5555C173.836 48.7221 173.877 48.8634 173.976 48.964C174.098 49.0881 174.301 49.143 174.535 49.1161C174.682 49.0988 174.837 49.0917 174.997 49.0917Z" fill="black"/>
<path d="M177.798 58.7584C179.101 58.1067 180.595 57.8644 181.374 57.6627C182.152 57.4608 183.393 56.8553 183.998 56.5381C184.604 56.2207 185.094 55.7882 185.44 55.6729C185.786 55.5576 186.174 55.319 186.391 54.8944C187.516 52.7027 188.122 50.9439 188.122 49.4153C188.122 48.406 187.862 47.2813 186.881 48.0888C185.96 48.8478 184.956 50.3109 184.69 51.3762C184.286 52.991 183.941 53.3371 183.853 53.6542C183.767 53.9716 183.441 53.9712 183.046 54.058C181.345 54.433 180.941 54.6923 179.672 55.644C178.404 56.5957 177.019 57.432 176.096 57.951C175.174 58.4701 175.001 58.5277 174.799 58.9458C174.598 59.364 174.41 59.6812 174.237 59.8688C174.063 60.0561 174.014 60.2752 174.049 60.5031C174.079 60.6906 173.991 61.5556 173.977 61.844C173.962 62.1324 174.034 62.2045 174.151 62.2188C174.266 62.2334 174.424 62.1757 174.482 61.8296C174.424 62.1757 174.9 62.0602 174.929 61.8008C174.914 62.1757 175.419 61.9594 175.448 61.6134C175.448 61.8584 175.83 61.6889 175.866 61.5701C175.952 61.2817 176.024 60.9645 176.139 60.7339C176.308 60.399 176.487 59.9654 176.818 59.7245C177.193 59.4505 177.019 59.1478 177.798 58.7584Z" fill="#FFE2BD"/>
<path d="M174.181 62.2604C174.168 62.2604 174.156 62.2595 174.146 62.2581C173.983 62.2384 173.923 62.1177 173.937 61.8417C173.942 61.7526 173.953 61.6085 173.966 61.446C173.993 61.1034 174.029 60.6343 174.01 60.5091C173.97 60.2509 174.036 60.0263 174.207 59.8416C174.37 59.6658 174.552 59.3671 174.763 58.9284C174.948 58.5455 175.111 58.4549 175.795 58.0735C175.88 58.0261 175.974 57.9739 176.077 57.9161C176.823 57.4964 178.28 56.6388 179.648 55.6119C180.914 54.6623 181.316 54.3982 183.037 54.0189C183.105 54.0041 183.171 53.9918 183.233 53.98C183.533 53.9236 183.75 53.8829 183.815 53.6436C183.842 53.5459 183.89 53.4491 183.958 53.3152C184.111 53.0101 184.368 52.4994 184.652 51.3664C184.91 50.3303 185.899 48.8461 186.856 48.0579C187.175 47.7955 187.446 47.7137 187.66 47.8151C188.096 48.0213 188.162 48.906 188.162 49.4151C188.162 50.8775 187.627 52.5729 186.427 54.9124C186.172 55.4097 185.707 55.626 185.452 55.7105C185.273 55.7702 185.05 55.9203 184.792 56.0941C184.562 56.2486 184.302 56.4237 184.016 56.5733C183.736 56.7204 182.29 57.4661 181.384 57.7012C181.218 57.744 181.025 57.7877 180.801 57.8384C179.973 58.0257 178.839 58.2823 177.815 58.7939C177.347 59.028 177.235 59.223 177.127 59.4117C177.058 59.5322 176.992 59.6461 176.841 59.7565C176.562 59.9601 176.392 60.3083 176.242 60.6153C176.219 60.662 176.197 60.7077 176.175 60.7517C176.09 60.922 176.027 61.1466 175.966 61.364C175.946 61.437 175.925 61.5101 175.904 61.5813C175.873 61.6858 175.669 61.7944 175.538 61.7763C175.506 61.7714 175.479 61.7593 175.458 61.7409C175.386 61.9188 175.207 62.0433 175.062 62.0368C174.993 62.0325 174.942 61.9983 174.914 61.9407C174.873 61.9962 174.814 62.0358 174.76 62.0585C174.664 62.0981 174.566 62.0925 174.505 62.0444C174.495 62.0362 174.485 62.0261 174.475 62.0134C174.396 62.2235 174.263 62.2604 174.181 62.2604ZM187.468 47.8528C187.31 47.8528 187.122 47.942 186.907 48.1194C185.961 48.8984 184.984 50.3637 184.729 51.3857C184.443 52.5273 184.184 53.043 184.029 53.3511C183.964 53.4809 183.917 53.5747 183.892 53.6647C183.814 53.952 183.552 54.0014 183.248 54.0584C183.186 54.07 183.121 54.0822 183.054 54.0969C181.35 54.4726 180.951 54.7343 179.696 55.6758C178.324 56.7053 176.864 57.5648 176.116 57.9856C176.013 58.0435 175.919 58.0957 175.834 58.1433C175.151 58.5237 175.009 58.6029 174.835 58.9631C174.62 59.4089 174.434 59.7141 174.266 59.8957C174.112 60.0617 174.053 60.264 174.089 60.497C174.11 60.6311 174.074 61.0864 174.045 61.4522C174.033 61.6138 174.021 61.7571 174.017 61.8458C174.002 62.1358 174.077 62.1694 174.156 62.179C174.296 62.1974 174.401 62.0708 174.443 61.8227L174.522 61.836C174.514 61.8841 174.513 61.9483 174.555 61.9819C174.593 62.0116 174.661 62.0132 174.729 61.9849C174.797 61.9569 174.879 61.8907 174.889 61.7962L174.969 61.8022C174.966 61.87 174.981 61.9518 175.067 61.9571C175.189 61.9686 175.392 61.8124 175.409 61.6099L175.488 61.6132C175.488 61.6798 175.521 61.6931 175.55 61.6974C175.653 61.7118 175.811 61.6153 175.828 61.5587C175.849 61.4878 175.869 61.4151 175.889 61.3425C175.951 61.1216 176.015 60.8931 176.104 60.7159C176.126 60.6722 176.148 60.6268 176.17 60.5804C176.325 60.2649 176.499 59.9073 176.794 59.6921C176.932 59.5917 176.99 59.4898 177.058 59.372C177.167 59.1823 177.29 58.9675 177.78 58.7227C178.812 58.2065 179.952 57.9488 180.784 57.7605C181.007 57.7101 181.2 57.6665 181.364 57.624C182.06 57.4435 183.208 56.9071 183.979 56.5026C184.261 56.3552 184.519 56.1813 184.747 56.028C185.011 55.851 185.238 55.698 185.427 55.635C185.67 55.5541 186.114 55.348 186.356 54.8761C187.55 52.5484 188.082 50.8643 188.082 49.4151C188.082 48.581 187.916 48.0241 187.626 47.8873C187.577 47.8643 187.524 47.8528 187.468 47.8528Z" fill="black"/>
<path d="M187.141 82.3759C187.228 82.6931 187.386 83.0536 187.443 83.2699C187.502 83.4862 187.4 83.5536 187.343 83.6736C187.041 84.3081 186.715 85.3194 186.665 85.8652C186.637 86.1824 186.421 86.4852 186.319 86.6727C186.208 86.8794 186.251 87.0389 186.507 87.235C186.629 87.3286 187.026 87.2061 187.069 87.0043C187.213 87.1484 187.472 87.0908 187.588 86.8744C187.718 87.0043 187.934 86.9177 188.079 86.7015C188.208 86.788 188.395 86.615 188.467 86.4995C188.67 86.6005 188.886 86.478 188.893 86.0815C188.894 86.0019 188.943 85.8652 189.002 85.7715C189.059 85.6777 189.08 85.4976 189.074 85.3389C189.066 85.1802 189.167 84.8631 189.304 84.6396C189.441 84.416 189.679 84.0196 189.578 83.6448C189.484 83.2955 189.333 83.3275 189.203 82.823C188.886 82.4912 188.453 82.0298 188.007 82.0009C187.56 81.9722 187.3 82.275 187.141 82.3759Z" fill="#FFE2BD"/>
<path d="M186.629 87.3068C186.573 87.3068 186.52 87.2956 186.482 87.2665C186.217 87.0628 186.159 86.8853 186.284 86.6538C186.304 86.6171 186.328 86.5761 186.354 86.5314C186.46 86.3529 186.603 86.1085 186.625 85.8616C186.679 85.2866 187.021 84.2572 187.307 83.6564C187.321 83.6269 187.338 83.6003 187.354 83.5741C187.403 83.4964 187.445 83.4292 187.405 83.2804C187.379 83.181 187.329 83.047 187.277 82.9052C187.217 82.7421 187.149 82.5572 187.102 82.3865L187.095 82.3579L187.12 82.3423C187.15 82.3228 187.186 82.2949 187.227 82.2624C187.39 82.1327 187.637 81.9366 188.009 81.9611C188.464 81.9906 188.898 82.446 189.216 82.7786L189.242 82.813C189.311 83.0833 189.385 83.1925 189.456 83.2984C189.516 83.3868 189.572 83.4704 189.616 83.6345C189.723 84.031 189.473 84.4404 189.338 84.6605C189.209 84.8716 189.106 85.1814 189.114 85.3368C189.12 85.4855 189.102 85.6829 189.036 85.7923C188.98 85.8822 188.934 86.012 188.933 86.0822C188.929 86.3013 188.862 86.4615 188.743 86.5335C188.666 86.5808 188.574 86.5859 188.482 86.5495C188.423 86.6298 188.315 86.7357 188.203 86.7597C188.163 86.7685 188.125 86.7661 188.091 86.7529C187.997 86.8808 187.876 86.9626 187.762 86.974C187.7 86.9804 187.645 86.9665 187.598 86.9345C187.531 87.0349 187.428 87.1029 187.316 87.1195C187.234 87.1327 187.152 87.1146 187.087 87.0704C187.045 87.1513 186.954 87.2224 186.832 87.2675C186.772 87.2896 186.698 87.3068 186.629 87.3068ZM187.187 82.3929C187.233 82.5527 187.296 82.7249 187.352 82.8777C187.405 83.0214 187.455 83.157 187.482 83.2599C187.531 83.4419 187.475 83.5306 187.422 83.6163C187.407 83.6402 187.392 83.664 187.379 83.6906C187.061 84.3581 186.752 85.3556 186.704 85.8689C186.681 86.1333 186.532 86.3866 186.423 86.5718C186.397 86.6156 186.374 86.6558 186.354 86.6917C186.266 86.856 186.264 86.9988 186.531 87.2033C186.578 87.2388 186.692 87.2345 186.805 87.1927C186.927 87.1474 187.013 87.072 187.029 86.996L187.045 86.9245L187.097 86.9761C187.151 87.03 187.225 87.0521 187.305 87.0408C187.406 87.0255 187.499 86.9564 187.553 86.8558L187.578 86.8083L187.616 86.8462C187.654 86.8837 187.7 86.9011 187.754 86.8947C187.853 86.8847 187.962 86.8042 188.045 86.6794L188.068 86.6462L188.101 86.6683C188.125 86.6843 188.153 86.6886 188.186 86.6818C188.273 86.663 188.38 86.5636 188.434 86.4784L188.453 86.4478L188.485 86.4638C188.563 86.5029 188.64 86.5031 188.702 86.4654C188.796 86.4081 188.85 86.2716 188.853 86.081C188.854 85.9958 188.904 85.8536 188.968 85.7505C189.015 85.6732 189.041 85.512 189.034 85.3404C189.026 85.1691 189.132 84.8452 189.27 84.6189C189.398 84.4091 189.637 84.0187 189.539 83.6552C189.498 83.504 189.448 83.4292 189.39 83.3429C189.319 83.238 189.239 83.1193 189.167 82.8431L189.158 82.8337C188.85 82.5107 188.428 82.0681 188.004 82.0408C187.662 82.0169 187.44 82.1956 187.276 82.3249C187.244 82.3507 187.214 82.3738 187.187 82.3929Z" fill="black"/>
<path d="M178.937 84.8563C179.341 85.2599 180.249 85.2744 180.884 84.5966C180.653 84.4957 180.148 84.265 179.918 84.0776C179.6 84.3949 179.239 84.7552 178.937 84.8563Z" fill="#FFE2BD"/>
<path d="M179.702 85.1769C179.383 85.1769 179.095 85.071 178.909 84.8843L178.863 84.8388L178.924 84.8183C179.218 84.72 179.575 84.3638 179.89 84.0493L179.915 84.0239L179.943 84.0466C180.162 84.2249 180.637 84.4448 180.9 84.5599L180.951 84.5825L180.913 84.6235C180.586 84.9729 180.164 85.1692 179.726 85.1767C179.718 85.1769 179.71 85.1769 179.702 85.1769ZM179.011 84.8704C179.183 85.0155 179.43 85.0972 179.702 85.0972C179.709 85.0972 179.717 85.0972 179.725 85.097C180.124 85.0901 180.509 84.9177 180.815 84.6099C180.553 84.4937 180.142 84.2987 179.921 84.1306C179.627 84.4239 179.3 84.746 179.011 84.8704Z" fill="black"/>
<path d="M183.018 39.005C183.176 37.9813 183.902 38.0055 184.359 38.111C184.546 38.1543 185.008 38.1975 185.44 38.0822C186.295 37.8542 186.94 38.1543 186.854 38.9762C187.084 39.1492 187.328 39.5528 187.285 39.899C187.242 40.245 187.314 40.3892 187.632 40.4324C187.948 40.4758 188.627 40.865 188.179 41.4129C188.612 41.6725 188.943 42.3357 188.713 42.7827C188.483 43.2296 187.79 43.3018 187.502 42.898C187.185 43.0421 186.665 43.071 186.348 42.7395C186.132 42.9989 185.584 42.9701 185.483 42.7395C185.383 42.5087 185.212 42.3853 185.008 42.3212C184.776 42.2492 184.762 41.6148 185.108 41.5426C185.065 41.3551 185.08 41.1389 185.166 41.0381C185.252 40.9372 185.18 40.7497 184.979 40.591C184.776 40.4324 184.604 39.8268 184.805 39.4952C184.46 39.6106 183.695 39.2789 183.537 39.0483C183.378 38.8175 183.162 38.8032 183.018 39.005Z" fill="#D3AE3B"/>
<path d="M188.05 43.2032C187.823 43.2032 187.618 43.1103 187.489 42.9472C187.142 43.0927 186.655 43.0856 186.35 42.797C186.203 42.9416 185.962 42.9817 185.779 42.9558C185.613 42.9322 185.492 42.8593 185.446 42.7556C185.36 42.557 185.213 42.4275 184.996 42.3593C184.851 42.3142 184.793 42.1097 184.801 41.9388C184.809 41.7686 184.882 41.5738 185.061 41.5141C185.03 41.3433 185.04 41.1249 185.136 41.0123C185.156 40.9882 185.165 40.9569 185.161 40.9192C185.152 40.8285 185.075 40.7175 184.954 40.6224C184.751 40.4632 184.587 39.907 184.732 39.5525C184.34 39.6061 183.658 39.2955 183.504 39.0709C183.43 38.9638 183.342 38.9044 183.255 38.9037H183.254C183.179 38.9037 183.109 38.9467 183.05 39.0283L182.979 38.999C183.039 38.609 183.187 38.3316 183.419 38.1748C183.654 38.0155 183.973 37.981 184.368 38.0723C184.573 38.1197 185.026 38.1515 185.429 38.0438C185.943 37.907 186.37 37.956 186.633 38.1813C186.835 38.3539 186.926 38.6223 186.895 38.9583C187.138 39.1515 187.367 39.5599 187.325 39.904C187.282 40.2445 187.353 40.3542 187.637 40.3929C187.852 40.4225 188.222 40.5993 188.335 40.8855C188.381 41.0024 188.399 41.1849 188.238 41.4027C188.671 41.6886 188.984 42.3441 188.748 42.801C188.632 43.0277 188.388 43.181 188.111 43.201C188.091 43.2024 188.07 43.2032 188.05 43.2032ZM187.515 42.8482L187.534 42.8749C187.656 43.0463 187.87 43.1397 188.105 43.1214C188.354 43.1034 188.573 42.9666 188.678 42.7645C188.897 42.3388 188.573 41.6958 188.158 41.4472L188.119 41.4234L188.148 41.3878C188.282 41.2242 188.32 41.065 188.261 40.9147C188.164 40.6693 187.83 40.4999 187.627 40.4719C187.254 40.4214 187.205 40.2218 187.246 39.8942C187.286 39.5699 187.061 39.1818 186.83 39.0083L186.812 38.9947L186.814 38.9722C186.847 38.653 186.767 38.4005 186.581 38.2418C186.342 38.0369 185.929 37.9927 185.45 38.1208C185 38.2411 184.533 38.1924 184.35 38.15C183.977 38.0641 183.679 38.0945 183.463 38.2408C183.276 38.3674 183.148 38.5832 183.081 38.8831C183.134 38.8444 183.193 38.8239 183.254 38.8239H183.256C183.369 38.8249 183.48 38.8965 183.57 39.0257C183.717 39.2401 184.469 39.5651 184.793 39.4575L184.896 39.4231L184.839 39.516C184.653 39.8237 184.81 40.4079 185.003 40.5597C185.143 40.6696 185.229 40.7978 185.24 40.9113C185.246 40.9706 185.231 41.0233 185.196 41.0641C185.124 41.1484 185.104 41.346 185.147 41.5337L185.156 41.5733L185.116 41.5817C184.954 41.6156 184.888 41.7903 184.881 41.9426C184.873 42.1097 184.933 42.2562 185.02 42.2832C185.26 42.3588 185.423 42.5028 185.519 42.7237C185.553 42.8002 185.654 42.8575 185.79 42.8769C185.965 42.9015 186.195 42.8608 186.318 42.714L186.346 42.6797L186.377 42.712C186.697 43.0469 187.215 42.985 187.485 42.8618L187.515 42.8482Z" fill="black"/>
<path d="M183.239 43.4855L183.229 43.4064C183.496 43.3721 183.68 43.2725 183.841 43.1847C184.015 43.0904 184.178 43.0019 184.404 43.0168L184.399 43.0963C184.197 43.082 184.05 43.1624 183.879 43.2548C183.712 43.346 183.521 43.4493 183.239 43.4855Z" fill="black"/>
<path d="M182.522 42.091L182.478 42.0858C182.371 42.0736 182.261 42.0609 182.155 42.0036C182.097 41.9718 182.05 41.9448 182.011 41.9104L182.063 41.8506C182.096 41.8796 182.14 41.9043 182.193 41.9336C182.285 41.9835 182.388 41.9952 182.487 42.0066L182.532 42.0119L182.522 42.091Z" fill="black"/>
<path d="M182.412 41.4553C182.338 41.3787 182.255 41.3436 182.191 41.3215L182.217 41.2461C182.289 41.271 182.383 41.311 182.469 41.3998L182.412 41.4553Z" fill="black"/>
<path d="M185.545 39.1557C185.352 39.1557 185.105 39.1137 184.98 38.9905C184.6 38.617 184.159 38.4542 183.797 38.5557C183.633 38.602 183.509 38.7019 183.482 38.8102C183.467 38.8713 183.486 38.9288 183.535 38.9765L183.48 39.0342C183.41 38.9665 183.383 38.8801 183.405 38.791C183.439 38.6533 183.581 38.5338 183.776 38.479C184.165 38.3692 184.635 38.5395 185.036 38.9337C185.192 39.0876 185.614 39.0976 185.744 39.054L185.77 39.1296C185.722 39.1455 185.64 39.1557 185.545 39.1557Z" fill="black"/>
<path d="M187.857 41.6017C187.834 41.6017 187.811 41.5998 187.788 41.5961C187.506 41.551 187.209 41.2337 186.904 40.653C186.756 40.371 186.595 40.3149 186.439 40.2606C186.283 40.2062 186.135 40.1549 186.036 39.8988C185.82 39.331 184.981 39.4956 184.814 39.5343L184.796 39.4566C185.31 39.3368 185.925 39.3825 186.111 39.8703C186.196 40.0917 186.315 40.133 186.465 40.1852C186.628 40.2418 186.812 40.3061 186.975 40.6159C187.263 41.1652 187.549 41.477 187.801 41.5173C187.924 41.5378 188.039 41.4936 188.151 41.3844L188.207 41.4416C188.097 41.548 187.98 41.6016 187.857 41.6017Z" fill="black"/>
<path d="M186.317 42.7636C186.177 42.5787 186.126 42.2 186.203 41.9403C186.039 41.7243 186.1 41.3138 186.211 41.0923L186.283 41.128C186.181 41.3306 186.121 41.7241 186.277 41.906L186.292 41.923L186.285 41.9444C186.2 42.2009 186.265 42.563 186.38 42.7155L186.317 42.7636Z" fill="black"/>
<path d="M185.708 42.1303C185.338 42.0713 185.086 41.7505 185.068 41.5466L185.148 41.5396C185.161 41.6884 185.369 41.9954 185.72 42.0516L185.708 42.1303Z" fill="black"/>
<path d="M187.47 42.9228C187.255 42.6451 187.289 42.3981 187.333 42.0854L187.412 42.0964C187.369 42.4021 187.338 42.6229 187.533 42.8739L187.47 42.9228Z" fill="black"/>
<path d="M186.626 41.2856C186.122 41.2857 185.856 40.9405 185.784 40.7801C185.501 40.651 185.343 40.2918 185.357 40.0269L185.436 40.0312C185.423 40.2738 185.57 40.6036 185.83 40.7132L185.845 40.7196L185.851 40.735C185.907 40.8731 186.189 41.2551 186.733 41.2005L186.741 41.2798C186.701 41.2838 186.663 41.2856 186.626 41.2856Z" fill="black"/>
<path d="M186.829 39.008C186.471 38.73 186.066 38.4631 185.536 38.3931L185.546 38.314C186.095 38.3864 186.511 38.6601 186.878 38.9449L186.829 39.008Z" fill="black"/>
<path d="M182.438 54.232L182.385 54.173C183.291 53.3492 182.973 51.5663 182.741 50.2645L182.719 50.1434C182.516 49.008 182.713 48.0274 183.302 47.229L183.366 47.2765C182.79 48.0565 182.599 49.0164 182.798 50.1294L182.819 50.2505C183.055 51.5706 183.377 53.3786 182.438 54.232Z" fill="black"/>
<path d="M183.871 57.2912C183.555 57.2912 183.237 57.2261 182.971 57.0929L183.007 57.0217C183.591 57.3139 184.434 57.2652 184.926 56.9096C185.447 56.5337 186.389 56.5194 187.092 56.6722L187.075 56.7502C186.411 56.606 185.47 56.6148 184.973 56.9743C184.684 57.1833 184.278 57.2912 183.871 57.2912Z" fill="black"/>
<path d="M184.766 62.3975C184.628 61.3521 184.691 60.3094 184.746 59.3894C184.771 58.9723 184.795 58.5784 184.795 58.2397C184.795 57.2053 185.051 56.7386 185.678 56.6289L185.692 56.7074C185.104 56.8103 184.874 57.2399 184.874 58.2397C184.874 58.5808 184.851 58.9759 184.826 59.3941C184.771 60.3105 184.708 61.3492 184.845 62.3869L184.766 62.3975Z" fill="black"/>
<path d="M183.901 58.2426C183.832 57.2755 184.191 57.1854 184.538 57.0981C184.566 57.0911 184.594 57.0842 184.622 57.0767L184.642 57.1536C184.614 57.1612 184.586 57.1684 184.557 57.1755C184.213 57.2619 183.916 57.3365 183.981 58.2369L183.901 58.2426Z" fill="black"/>
<path d="M182.726 58.2694L182.646 58.2676C182.658 57.7685 182.794 57.3597 183.003 57.2007C183.1 57.1265 183.21 57.1039 183.33 57.134L183.311 57.2114C183.216 57.1877 183.128 57.2053 183.051 57.2641C182.861 57.4088 182.737 57.794 182.726 58.2694Z" fill="black"/>
<path d="M189.237 73.0436C189.021 72.2764 188.984 70.9311 188.94 69.3735C188.881 67.2198 188.807 64.5393 188.199 62.5479C188.093 62.2014 187.992 61.9086 187.895 61.6256C187.631 60.86 187.403 60.1989 187.275 58.9644C187.103 57.3018 186.847 56.8555 186.528 56.7306C186.533 56.7351 186.538 56.7397 186.543 56.7444C186.787 56.9848 186.897 57.5213 186.878 58.3845L186.799 58.3828C186.816 57.5544 186.711 57.0223 186.487 56.8012C186.416 56.731 186.333 56.6913 186.235 56.6812C186.21 56.6802 186.185 56.6795 186.16 56.6788L186.16 56.5992C186.19 56.5978 186.219 56.5992 186.248 56.6025C186.788 56.632 187.136 56.847 187.354 58.9562C187.481 60.1815 187.708 60.8387 187.97 61.5996C188.068 61.8834 188.169 62.1768 188.275 62.5245C188.886 64.5264 188.96 67.2127 189.02 69.3713C189.063 70.9237 189.1 72.2643 189.314 73.0221L189.237 73.0436Z" fill="black"/>
<path d="M188.543 78.2879C188.406 77.4658 187.915 76.2596 187.293 74.7324C186.866 73.6824 186.381 72.4924 185.893 71.1432L185.889 71.1305L185.893 71.1176C187.728 65.3146 187.033 61.7684 186.008 58.8004L186.084 58.7744C187.112 61.7531 187.81 65.3113 185.973 71.1289C186.459 72.4713 186.941 73.6564 187.367 74.7025C187.991 76.2342 188.484 77.4439 188.622 78.2746L188.543 78.2879Z" fill="black"/>
<path d="M182.623 66.2956L182.546 66.2741C182.615 66.029 182.573 65.8618 182.514 65.6304C182.409 65.2116 182.249 64.5788 182.662 62.9304C182.931 61.8503 182.978 61.1901 182.809 60.8524L182.88 60.8169C183.061 61.1772 183.017 61.8351 182.739 62.9495C182.332 64.5788 182.488 65.1999 182.592 65.6108C182.651 65.8452 182.697 66.0302 182.623 66.2956Z" fill="black"/>
<path d="M183.171 67.1062L183.096 67.0792C183.404 66.219 183.181 65.1542 182.985 64.2147C182.834 63.4966 182.692 62.8181 182.806 62.3257L182.883 62.3437C182.774 62.8188 182.914 63.489 183.062 64.1983C183.261 65.1483 183.487 66.2249 183.171 67.1062Z" fill="black"/>
<path d="M184.998 84.0256L184.959 83.9564C185.415 83.6957 185.391 82.8873 185.374 82.2969C185.369 82.1336 185.365 81.9793 185.37 81.8553C185.525 78.7717 184.465 76.4789 182.723 72.9932C182.627 72.8025 182.536 72.6348 182.448 72.4723C182.109 71.849 181.864 71.3986 181.911 70.6084C181.943 70.0611 181.884 69.4162 181.827 68.7928C181.781 68.2889 181.737 67.8129 181.737 67.3809H181.817C181.817 67.8092 181.861 68.2834 181.906 68.7855C181.964 69.4119 182.023 70.0598 181.991 70.6131C181.945 71.3805 182.185 71.8225 182.518 72.4342C182.606 72.5973 182.698 72.7656 182.794 72.9576C184.542 76.4549 185.606 78.7559 185.45 81.8592C185.444 81.9799 185.449 82.1328 185.454 82.2945C185.471 82.9051 185.496 83.7412 184.998 84.0256Z" fill="black"/>
<path d="M181.853 84.8831C181.841 84.8831 181.829 84.8827 181.817 84.8815L181.824 84.8022C181.965 84.8128 182.144 84.756 182.361 84.2353C182.562 83.753 183.269 80.6358 182.978 78.4886L183.057 78.478C183.35 80.6396 182.637 83.7798 182.434 84.2661C182.255 84.6956 182.08 84.8831 181.853 84.8831Z" fill="black"/>
<path d="M183.055 84.0061L182.981 83.976C183.425 82.8797 183.399 81.4914 183.324 80.9105L183.403 80.9004C183.479 81.4885 183.505 82.8943 183.055 84.0061Z" fill="black"/>
<path d="M184.528 82.5005L184.45 82.4829C184.669 81.5124 184.658 80.2149 184.42 78.9231L184.499 78.9087C184.738 80.2108 184.749 81.5198 184.528 82.5005Z" fill="black"/>
<path d="M183.749 84.6637L183.728 84.5867C184.04 84.5035 183.945 83.5609 183.882 82.9373C183.864 82.7627 183.849 82.6119 183.843 82.4932L183.922 82.4893C183.928 82.6059 183.944 82.7557 183.961 82.9293C184.035 83.6572 184.126 84.5631 183.749 84.6637Z" fill="black"/>
<path d="M188.814 82.4913C188.34 82.0325 187.888 80.6882 187.409 79.2647C186.971 77.9632 186.519 76.6171 186.012 75.8228L186.079 75.7798C186.591 76.5825 187.045 77.9331 187.485 79.2394C187.961 80.6532 188.41 81.9888 188.87 82.4339L188.814 82.4913Z" fill="black"/>
<path d="M186.929 81.8021L186.925 81.7447C186.898 81.3074 186.861 80.7084 186.621 80.4422L186.68 80.3887C186.939 80.6758 186.975 81.2658 187.005 81.7398L187.008 81.7971L186.929 81.8021Z" fill="black"/>
<path d="M175.488 61.6154L175.408 61.6119C175.411 61.5648 175.411 61.518 175.412 61.4707C175.414 61.1937 175.417 60.9072 175.718 60.4805L175.783 60.5266C175.497 60.9328 175.494 61.2066 175.491 61.4717C175.491 61.5197 175.49 61.5674 175.488 61.6154Z" fill="black"/>
<path d="M174.969 61.8023L174.889 61.7992L174.896 61.6145C174.932 60.6748 174.936 60.5541 175.247 60.2578L175.302 60.3156C175.015 60.5895 175.011 60.6867 174.976 61.6174L174.969 61.8023Z" fill="black"/>
<path d="M174.522 61.8306L174.443 61.829C174.446 61.6495 174.443 61.4964 174.44 61.3612C174.432 60.8942 174.427 60.6368 174.679 60.2368L174.746 60.2794C174.507 60.6593 174.512 60.9081 174.52 61.3599C174.523 61.4956 174.525 61.6495 174.522 61.8306Z" fill="black"/>
<path d="M177.34 38.929L177.291 38.8655C177.595 38.6336 178.316 38.0854 178.439 38.0059L178.483 38.0729C178.362 38.1509 177.643 38.6976 177.34 38.929Z" fill="black"/>
<path d="M177.556 39.2314L177.507 39.1684L177.815 38.9291C178.346 38.5146 178.639 38.2863 178.765 38.2666L178.777 38.3453C178.672 38.3619 178.35 38.6126 177.864 38.992L177.556 39.2314Z" fill="black"/>
<path d="M177.778 39.5716L177.732 39.5063C177.898 39.3897 178.068 39.2503 178.232 39.1153C178.453 38.9336 178.644 38.7766 178.776 38.7168L178.809 38.7895C178.686 38.8449 178.49 39.0062 178.282 39.177C178.117 39.3128 177.946 39.4532 177.778 39.5716Z" fill="black"/>
<path d="M176.626 39.0944L176.577 39.0315C176.622 38.9959 176.692 38.9273 176.765 38.8547C176.849 38.7716 176.936 38.6855 176.995 38.6416L177.043 38.7059C176.988 38.7463 176.903 38.8302 176.821 38.9114C176.746 38.9856 176.675 39.0559 176.626 39.0944Z" fill="black"/>
<path d="M187.039 87.0309C186.954 86.9355 186.973 86.6514 187.082 86.3838L187.156 86.4139C187.043 86.6914 187.05 86.9234 187.098 86.9777L187.039 87.0309Z" fill="black"/>
<path d="M187.559 86.9028C187.432 86.7737 187.622 86.2353 187.63 86.2124L187.705 86.2394C187.608 86.5124 187.566 86.7962 187.616 86.8466L187.559 86.9028Z" fill="black"/>
<path d="M188.062 86.7381C188.024 86.7203 187.994 86.685 187.977 86.6357C187.936 86.5199 187.966 86.3482 188.057 86.165L188.128 86.2006C188.048 86.3623 188.019 86.515 188.052 86.6094C188.062 86.6377 188.077 86.6572 188.095 86.6658L188.062 86.7381Z" fill="black"/>
<path d="M188.455 86.5375C188.426 86.5277 188.403 86.5072 188.389 86.4779C188.352 86.4008 188.372 86.2572 188.451 86.0391L188.526 86.0664C188.434 86.3209 188.445 86.4117 188.461 86.4434C188.467 86.4561 188.474 86.46 188.48 86.4617L188.455 86.5375Z" fill="black"/>
<path d="M182.794 39.9133C183.003 40.1872 183.219 40.1583 183.257 40.3348C183.295 40.5117 183.323 40.5242 183.364 40.5766C183.404 40.6289 183.265 40.6184 183.197 40.5902C183.129 40.5619 182.96 40.5648 182.856 40.5664C182.753 40.568 182.631 40.4466 182.708 40.4323C182.784 40.4181 182.774 40.3942 182.762 40.3404C182.751 40.2867 182.805 40.2018 182.837 40.1862C182.87 40.1706 182.847 40.1736 182.818 40.1015C182.788 40.0294 182.75 39.8543 182.794 39.9133Z" fill="black"/>
<path d="M182.921 39.6625C183.155 39.69 183.559 39.8165 183.778 40.0589C183.95 40.2495 183.809 40.199 183.722 40.2061C183.635 40.2134 183.464 40.1515 183.378 40.0432C183.293 39.935 183.038 39.7977 182.903 39.762C182.821 39.7408 182.743 39.6417 182.921 39.6625Z" fill="black"/>
<g clip-path="url(#clip0_909_274610)">
<mask id="mask0_909_274610" style="mask-type:luminance" maskUnits="userSpaceOnUse" x="0" y="0" width="120" height="60">
<path d="M120 0H0V60H120V0Z" fill="white"/>
</mask>
<g mask="url(#mask0_909_274610)">
<path d="M0 0V60H120V0H0Z" fill="#021455"/>
<path d="M13.4165 0L60 23.2915L106.584 0H120V6.708L73.4165 30L120 53.2915V60H106.584L60 36.708L13.4165 60H0V53.2915L46.5835 30L0 6.708V0H13.4165Z" fill="white"/>
<path d="M60 34.4721L8.94435 60H0L60 30V34.4721Z" fill="#D91C16"/>
<path d="M68.9445 30L120 55.528V60L60 30H68.9445Z" fill="#D91C16"/>
<path d="M60 30V25.5278L111.055 0H120L60 30Z" fill="#D91C16"/>
<path d="M60 30H51.0555L0 4.47217V0L60 30Z" fill="#D91C16"/>
<path d="M70 0V20H120V40H70V60H50V40H0V20H50V0H70Z" fill="white"/>
<path d="M66 0V24H120V36H66V60H54V36H0V24H54V0H66Z" fill="#D91C16"/>
</g>
</g>
<defs>
<clipPath id="clip0_909_274610">
<rect width="120" height="60" fill="white"/>
</clipPath>
</defs>
</svg>
