<svg width="240" height="120" viewBox="0 0 240 120" fill="none" xmlns="http://www.w3.org/2000/svg">
<g clip-path="url(#clip0_307_36474)">
<path d="M0 0H240V120H0V0Z" fill="white"/>
<path fill-rule="evenodd" clip-rule="evenodd" d="M240 8.57143H8V0H240V8.57143ZM8 17.1429H240V25.7143H8V17.1429ZM240 42.8571H8V34.2857H240V42.8571ZM8 51.4286H240V60H8V51.4286Z" fill="#D91C16"/>
<path d="M0 0H100V72.8571H0V0Z" fill="#021455"/>
<path fill-rule="evenodd" clip-rule="evenodd" d="M240 76.6H0V68H240V76.6ZM0 85.2H240V93.8H0V85.2ZM240 111H0V102.4H240V111Z" fill="#D91C16"/>
<path d="M65.001 12.8571L66.9118 25.9286L74.3046 14.9821L70.3403 27.5893L81.751 20.9286L72.7153 30.5714L85.8939 29.5179L73.5725 34.2857L85.8939 39.0536L72.7153 38L81.751 47.6428L70.3403 40.9821L74.3046 53.5893L66.9118 42.6429L65.001 55.7143L63.0903 42.6429L55.6975 53.5893L59.6618 40.9821L48.251 47.6428L57.2868 38L44.1082 39.0536L56.4296 34.2857L44.1082 29.5179L57.2868 30.5714L48.251 20.9286L59.6618 27.5893L55.6975 14.9821L63.0903 25.9286L65.001 12.8571ZM54.2868 13.3928C50.8069 11.8488 46.9964 11.1984 43.2014 11.5007C39.4064 11.8031 35.747 13.0485 32.5554 15.124C29.3639 17.1995 26.7413 20.0393 24.9258 23.3856C23.1103 26.7319 22.1594 30.4787 22.1594 34.2857C22.1594 38.0928 23.1103 41.8395 24.9258 45.1858C26.7413 48.5321 29.3639 51.3719 32.5554 53.4474C35.747 55.5229 39.4064 56.7683 43.2014 57.0707C46.9964 57.373 50.8069 56.7226 54.2868 55.1786C50.4442 57.9356 45.9157 59.5795 41.1994 59.9295C36.4831 60.2795 31.7616 59.3221 27.5542 57.1625C23.3467 55.0029 19.8164 51.7248 17.3513 47.6888C14.8863 43.6527 13.582 39.015 13.582 34.2857C13.582 29.5564 14.8863 24.9187 17.3513 20.8827C19.8164 16.8466 23.3467 13.5685 27.5542 11.4089C31.7616 9.24936 36.4831 8.29193 41.1994 8.64194C45.9157 8.99195 50.4442 10.6359 54.2868 13.3928Z" fill="#FDD406"/>
</g>
<defs>
<clipPath id="clip0_307_36474">
<rect width="240" height="120" fill="white"/>
</clipPath>
</defs>
</svg>
