<svg width="240" height="120" viewBox="0 0 240 120" fill="none" xmlns="http://www.w3.org/2000/svg">
<path d="M240 0H0V120H240V0Z" fill="#1E9A1C"/>
<path d="M240 0H0V80H240V0Z" fill="#D91C16"/>
<path d="M240 0H0V40H240V0Z" fill="#0F3296"/>
<path d="M79.9999 99.3281C101.72 99.3281 119.328 81.7204 119.328 60.0001C119.328 38.2799 101.72 20.6721 79.9999 20.6721C58.2796 20.6721 40.6719 38.2799 40.6719 60.0001C40.6719 81.7204 58.2796 99.3281 79.9999 99.3281Z" fill="#FDD406"/>
<path fill-rule="evenodd" clip-rule="evenodd" d="M79.9995 21.3387C58.6475 21.3387 41.3382 38.648 41.3382 60C41.3382 81.3521 58.6475 98.6614 79.9995 98.6614C101.352 98.6614 118.661 81.3521 118.661 60C118.661 38.648 101.352 21.3387 79.9995 21.3387ZM40.0049 60C40.0049 37.9116 57.9111 20.0054 79.9995 20.0054C102.088 20.0054 119.994 37.9116 119.994 60C119.994 82.0885 102.088 99.9947 79.9995 99.9947C57.9111 99.9947 40.0049 82.0885 40.0049 60Z" fill="black"/>
<path d="M79.2003 40.0596C76.6343 40.4456 74.667 42.6598 74.667 45.3334C74.667 48.007 76.6343 50.2211 79.2003 50.6071V51.7153C77.1721 51.6113 75.3892 50.9794 73.867 47.8667C73.0189 46.1325 70.8003 43.4667 70.8003 43.4667C70.8003 43.4667 71.8442 46.4613 72.0003 49.4667C72.2293 53.8729 76.1246 54.3468 79.2003 54.3949V55.2001H73.3337V56.8H79.2003V57.5951C76.6343 57.8395 74.667 59.241 74.667 60.9334C74.667 62.6258 76.6343 64.0274 79.2003 64.2717V65.0667H73.3337V66.6667H79.2003V67.4831C74.6696 67.6727 72.4797 69.4967 72.2369 72.0969C71.7096 77.7443 70.667 82.1334 70.667 82.1334C70.667 82.1334 72.346 80.0626 74.3102 75.2068C75.2136 72.9733 77.208 71.5638 79.2003 71.2613V71.8389C77.1522 72.3861 75.6003 74.9961 75.6003 78.1334C75.6003 81.2706 77.1522 83.8806 79.2003 84.4279V86.2545C76.5531 86.3235 73.9708 86.9047 72.6213 87.9686C70.2416 89.8454 63.416 96.7606 64.1656 96.1118C80.2165 102.666 95.261 96.5145 95.261 96.5145C95.261 96.5145 89.5819 90.3683 86.6707 87.9686C85.4453 86.9589 83.1937 86.402 80.8003 86.2755V84.4279C82.8484 83.8806 84.4003 81.2706 84.4003 78.1334C84.4003 74.9961 82.8484 72.3861 80.8003 71.8389V71.2613C82.7927 71.5638 84.7871 72.9733 85.6905 75.2068C87.6546 80.0626 89.3337 82.1334 89.3337 82.1334C89.3337 82.1334 88.2911 77.7443 87.7637 72.0969C87.5209 69.4967 85.3311 67.6727 80.8003 67.4831V66.6667H86.667V65.0667H80.8003V64.2717C83.3663 64.0274 85.3337 62.6258 85.3337 60.9334C85.3337 59.241 83.3663 57.8395 80.8003 57.5951V56.8H86.667V55.2001H80.8003V54.3949C83.876 54.3468 87.7714 53.8729 88.0003 49.4667C88.1565 46.4613 89.2003 43.4667 89.2003 43.4667C89.2003 43.4667 86.9818 46.1325 86.1337 47.8667C84.6114 50.9794 82.8286 51.6113 80.8003 51.7153V50.6071C83.3663 50.2211 85.3337 48.007 85.3337 45.3334C85.3337 42.6598 83.3663 40.4456 80.8003 40.0596V34.45C82.3611 33.1555 84.1268 31.1588 85.8903 27.983C86.8625 26.2323 86.3988 25.4631 86.4004 25.4667L86.3988 25.4631C86.3988 25.4631 86.4505 25.5774 85.7284 26.2028C84.1494 27.5704 82.4205 28.4646 80.8003 29.2051V20.8H79.2003V29.9174C76.7905 30.9866 74.876 31.9411 74.4932 34.063C74.4682 34.2018 74.4398 34.9802 74.4091 35.8212L74.4091 35.8227C74.3774 36.6925 74.3433 37.6288 74.3079 37.9931C74.3079 37.9931 74.7196 38.0475 75.6951 37.2534C75.8671 37.1133 76.1818 36.9936 76.6114 36.8302C77.2507 36.5871 78.1442 36.2473 79.2003 35.5996V40.0596Z" fill="black"/>
</svg>
