<svg width="240" height="120" viewBox="0 0 240 120" fill="none" xmlns="http://www.w3.org/2000/svg">
<g clip-path="url(#clip0_307_33304)">
<path d="M0 0H240V120H0V0Z" fill="#0F3296"/>
<path d="M0 40H240V80H0V40Z" fill="white"/>
<path d="M102 59.8656L103.996 59.999L104.015 59.7074L103.23 59.655L103.291 58.693L104.123 58.0896L104.148 57.72L103.271 58.3572C103.241 58.1496 103.126 57.9358 102.918 57.8636C102.735 57.7976 102.511 57.786 102.353 57.9166C102.152 58.0642 102.116 58.3282 102.09 58.558L102 59.8656ZM102.304 59.5932L102.374 58.6104C102.399 58.4488 102.428 58.262 102.57 58.159C102.698 58.0742 102.887 58.1374 102.939 58.2818C103.044 58.5312 102.997 58.8062 102.984 59.0678L102.946 59.636L102.304 59.5932ZM102.26 56.801L104.207 57.2558L104.65 55.3602L104.373 55.2954L103.997 56.908L103.404 56.7696L103.743 55.3164L103.468 55.2522L103.129 56.7054L102.604 56.5828L102.966 55.0308L102.688 54.9658L102.26 56.801ZM102.961 54.1856L104.85 54.8426L104.946 54.5666L104.203 54.3082L104.496 53.4514C104.56 53.216 104.609 52.941 104.471 52.722C104.358 52.5602 104.158 52.4566 103.961 52.4628C103.743 52.472 103.566 52.6322 103.469 52.8178C103.326 53.0862 103.246 53.3814 103.142 53.6658L102.961 54.1856ZM103.326 54.0032L103.628 53.1524C103.696 53.0026 103.779 52.825 103.952 52.7774C104.093 52.7448 104.242 52.8538 104.254 52.999C104.289 53.2662 104.172 53.5184 104.09 53.7664L103.934 54.2146L103.326 54.0032ZM104.005 51.7664L105.072 52.3878C105.274 52.4964 105.53 52.5586 105.742 52.437C106.03 52.2774 106.21 51.9828 106.352 51.6954C106.464 51.4534 106.544 51.1528 106.402 50.9054C106.249 50.6584 105.971 50.5448 105.734 50.3974L105.042 49.993L104.895 50.2438L105.913 50.841C106.074 50.9392 106.208 51.117 106.18 51.3148C106.148 51.5504 106.013 51.757 105.879 51.9476C105.768 52.1016 105.583 52.2262 105.385 52.1846C105.179 52.1452 105.012 52.0106 104.831 51.9132L104.151 51.5154L104.005 51.7664ZM105.445 49.4122L107.034 50.6276L107.774 49.6628C107.916 49.4584 108.048 49.1928 107.951 48.942C107.863 48.7424 107.658 48.588 107.438 48.578C107.338 48.564 107.209 48.6394 107.155 48.6726C107.211 48.4594 107.037 48.259 106.84 48.2026C106.604 48.1186 106.364 48.2702 106.208 48.4382C106.024 48.6384 105.87 48.864 105.702 49.0772L105.445 49.4122ZM105.848 49.3526L106.405 48.6374C106.495 48.5366 106.641 48.4224 106.781 48.4964C106.909 48.5518 106.941 48.7134 106.88 48.8296C106.783 49.0376 106.622 49.2062 106.489 49.3906L106.271 49.6758L105.848 49.3526ZM106.495 49.8478L107.073 49.1072C107.177 48.9984 107.308 48.8614 107.473 48.8928C107.614 48.9252 107.716 49.078 107.668 49.22C107.588 49.4818 107.392 49.6822 107.235 49.8992L106.987 50.2236L106.495 49.8478ZM107.246 47.2908L108.62 48.7446L109.796 47.633L109.601 47.4264L108.66 48.3156L108.636 48.3384L108.618 48.32L107.457 47.0912L107.246 47.2908ZM109.007 45.7502L110.226 47.3358L110.464 47.1528L109.245 45.5674L109.007 45.7502ZM110.798 44.5338C110.601 44.6568 110.441 44.8008 110.319 44.969C110.196 45.1372 110.13 45.311 110.121 45.4934C110.111 45.6758 110.16 45.8522 110.267 46.0248C110.364 46.1808 110.5 46.3081 110.663 46.3936C110.827 46.4814 111.004 46.5138 111.198 46.4922C111.392 46.4706 111.609 46.3852 111.852 46.2338C112.085 46.0886 112.25 45.9214 112.352 45.729C112.449 45.5486 112.478 45.3396 112.435 45.1394L112.158 45.248C112.231 45.6476 111.973 45.8396 111.684 46.0228C111.233 46.2976 110.792 46.2778 110.523 45.8648C110.243 45.3994 110.549 45.0148 110.933 44.7648C111.206 44.5948 111.475 44.4784 111.731 44.6412L111.947 44.4484C111.798 44.3456 111.629 44.298 111.436 44.3084C111.234 44.3196 111.022 44.3942 110.798 44.5338ZM113.162 43.3544L112.952 45.5956L113.264 45.47L113.327 44.7752L113.328 44.7746L114.339 44.3666L114.867 44.8234L115.178 44.698L113.473 43.2288L113.161 43.3544H113.162ZM113.435 43.5842L114.1 44.1596L113.356 44.46L113.435 43.5842ZM117.545 42.118L117.67 44.114L118.753 44.043C119.036 44.0104 119.341 43.9368 119.534 43.711C119.785 43.4336 119.82 43.0188 119.711 42.6734C119.619 42.3694 119.345 42.1392 119.036 42.0808C118.731 42.0222 118.42 42.0686 118.113 42.0824L117.545 42.118ZM117.853 42.3834L118.715 42.3386C118.879 42.333 119.04 42.3823 119.173 42.4788C119.373 42.6156 119.49 42.862 119.464 43.1038C119.45 43.3818 119.245 43.6376 118.975 43.7078C118.821 43.7478 118.66 43.7592 118.502 43.7766L117.942 43.8116L117.853 42.3836L117.853 42.3834ZM120.333 41.9998L120.219 43.9966L122.162 44.1076L122.178 43.824L120.525 43.7296L120.56 43.1216L122.05 43.2068L122.066 42.9246L120.576 42.8394L120.607 42.3016L122.198 42.3924L122.214 42.1074L120.333 41.9998ZM125.555 42.833L124.832 44.6976L125.089 44.7976L125.662 43.319L125.692 43.2422L125.724 43.3276L126.414 45.3112L126.75 45.4418L127.474 43.5772L127.216 43.4772L126.643 44.955L126.613 45.0304L126.582 44.946L125.891 42.9634L125.555 42.833ZM128.242 43.9872L127.332 45.7686L127.065 45.6322L127.974 43.8508L128.242 43.9872ZM129.75 44.871C129.556 44.743 129.359 44.658 129.155 44.6168C128.951 44.5756 128.765 44.5884 128.596 44.6558C128.426 44.7232 128.286 44.841 128.174 45.0108C128.072 45.1636 128.013 45.3407 128.003 45.5238C127.992 45.7094 128.036 45.8838 128.137 46.0512C128.238 46.2186 128.406 46.3802 128.645 46.5376C128.874 46.689 129.095 46.7692 129.312 46.7816C129.521 46.7932 129.71 46.7364 129.883 46.6112L129.669 46.4052C129.336 46.6378 129.054 46.4836 128.767 46.2976C128.329 46.0016 128.163 45.5934 128.426 45.176C128.732 44.7276 129.209 44.845 129.596 45.09C129.865 45.267 130.083 45.4626 130.042 45.7632L130.307 45.8794C130.338 45.701 130.311 45.5274 130.221 45.3566C130.126 45.1774 129.971 45.0164 129.75 44.871ZM131.654 46.3074L129.564 47.1414L129.817 47.3614L130.465 47.1012L130.466 47.1022L131.289 47.8172L131.123 48.4946L131.376 48.7148L131.908 46.5276L131.654 46.3076V46.3074ZM131.574 46.6556L131.365 47.5096L130.758 46.9834L131.574 46.6556ZM133.165 47.697L131.622 48.9696L131.808 49.195L132.415 48.6944L133.031 49.4358L132.839 50.4458L133.075 50.7318L133.276 49.6658C133.449 49.8074 133.701 49.8786 133.908 49.7664C134.086 49.6824 134.242 49.5208 134.251 49.315C134.273 49.0392 134.076 48.8158 133.919 48.6112L133.165 47.697ZM133.131 48.1038L133.78 48.9034C133.875 49.045 133.994 49.2438 133.885 49.409C133.795 49.5504 133.598 49.538 133.477 49.4464C133.232 49.2816 133.07 49.029 132.879 48.8096L132.634 48.513L133.131 48.1038ZM135.505 50.88L133.256 50.983L133.424 51.2742L134.12 51.2402L134.121 51.2414L134.665 52.1868L134.286 52.7724L134.453 53.0634L135.672 51.171L135.505 50.88ZM135.315 51.1828L134.837 51.921L134.437 51.225L135.315 51.183V51.1828ZM136.788 53.5274C136.663 53.188 136.466 52.8406 136.132 52.671C135.761 52.4844 135.266 52.575 135.003 52.902C134.774 53.174 134.762 53.5582 134.823 53.8924C134.895 54.276 135.071 54.6412 135.336 54.9296L135.186 54.9832L135.282 55.2494L136.219 54.9128L135.854 53.901L135.638 53.979L135.906 54.7246L135.589 54.8386C135.309 54.598 135.153 54.2426 135.071 53.889C135.011 53.6236 135.009 53.3056 135.21 53.097C135.441 52.8566 135.85 52.782 136.127 52.987C136.401 53.187 136.555 53.5112 136.633 53.8336C136.686 54.0456 136.678 54.2976 136.517 54.463C136.472 54.4966 136.543 54.5436 136.555 54.584L136.632 54.7104C136.716 54.6438 136.784 54.5588 136.831 54.4618C136.878 54.3649 136.901 54.2586 136.901 54.151C136.906 53.9382 136.859 53.727 136.788 53.5274ZM137.362 55.0892L136.244 55.3068C136.036 55.3472 135.881 55.4128 135.777 55.5004C135.673 55.588 135.607 55.7108 135.575 55.8746C135.543 56.0366 135.548 56.2352 135.594 56.4766C135.595 56.4785 135.595 56.4805 135.595 56.4824C135.643 56.7238 135.713 56.9094 135.803 57.0478C135.894 57.1878 136.002 57.277 136.13 57.319C136.259 57.361 136.428 57.364 136.636 57.3236L137.754 57.106L137.699 56.8206L136.607 57.033C136.117 57.1282 135.952 56.8704 135.868 56.4292L135.867 56.4236C135.78 55.9832 135.836 55.6822 136.326 55.5868L137.418 55.3746L137.362 55.0892ZM137.976 58.4932L135.906 57.6082L135.93 57.9432L136.573 58.2156V58.217L136.652 59.305L136.055 59.6672L136.08 60.0022L138 58.8282L137.976 58.4932ZM137.673 58.6834L136.922 59.1404L136.864 58.3396L137.673 58.6836V58.6834ZM103.55 63.6668L103.26 63.7432L103.581 64.9616L103.871 64.8854L103.55 63.6668ZM136.457 63.6668L136.747 63.7432L136.426 64.9616L136.136 64.8852L136.457 63.6668ZM106.643 68.7976L104.407 69.0548L104.594 69.3338L105.287 69.252L105.288 69.2532L105.896 70.1592L105.557 70.7692L105.745 71.0482L106.831 69.0766L106.643 68.7976ZM106.475 69.1128L106.049 69.882L105.602 69.2154L106.475 69.1128ZM107.499 70.0194L106.074 71.3524L106.264 71.556L107.466 70.4326L106.835 72.1666L107.054 72.4L108.776 71.8772L107.596 72.9804L107.787 73.1838L109.212 71.851L108.923 71.5418L107.173 72.0646L107.828 70.3708L107.499 70.0194ZM109.576 72.1376L108.372 73.7352L109.928 74.9062L110.098 74.6792L108.776 73.6832L109.142 73.1968L110.334 74.0944L110.504 73.8686L109.312 72.971L109.636 72.5406L110.909 73.4994L111.081 73.2714L109.576 72.1376ZM111.532 73.5698L110.59 75.3344L110.848 75.472L111.219 74.778L112.071 75.2288L112.278 76.2356L112.605 76.41L112.385 75.348C112.599 75.413 112.86 75.3824 113.008 75.2C113.134 75.059 113.219 74.8614 113.159 74.672C113.089 74.4114 112.832 74.275 112.616 74.1486L111.532 73.5698ZM111.656 73.9588L112.561 74.4508C112.698 74.5434 112.871 74.6698 112.854 74.8562C112.839 75.0198 112.663 75.107 112.514 75.0722C112.222 75.024 111.976 74.85 111.716 74.7202L111.353 74.5264L111.656 73.9588ZM113.791 74.751L113.036 76.6028L113.314 76.716L114.069 74.8644L113.791 74.751ZM115.595 75.374C115.374 75.3006 115.162 75.27 114.954 75.283C114.747 75.296 114.57 75.3568 114.424 75.466C114.278 75.5752 114.173 75.7254 114.109 75.9182C114.05 76.0922 114.04 76.2785 114.078 76.458C114.115 76.64 114.203 76.7972 114.344 76.9326C114.484 77.068 114.689 77.1806 114.96 77.2706C115.221 77.357 115.455 77.3774 115.668 77.3326C115.872 77.2898 116.041 77.1858 116.175 77.0202L115.915 76.8766C115.653 77.1878 115.341 77.1122 115.016 77.007C114.516 76.835 114.25 76.4838 114.395 76.0124C114.574 75.5 115.066 75.4894 115.503 75.6254C115.809 75.7266 116.07 75.859 116.108 76.16L116.395 76.2032C116.379 76.0228 116.307 75.8622 116.176 75.7208C116.038 75.5722 115.846 75.4572 115.595 75.374ZM117.606 75.8242L116.298 77.6562L116.63 77.7042L117.034 77.1352H117.035L118.115 77.2916L118.341 77.9516L118.673 77.9996L117.938 75.8722L117.606 75.8242ZM117.727 76.1602L118.012 76.9922L117.217 76.8772L117.727 76.1604V76.1602ZM122.294 75.8384C122.065 75.8824 121.865 75.9598 121.69 76.0728C121.516 76.1858 121.392 76.3248 121.318 76.4916C121.244 76.6584 121.226 76.8408 121.264 77.0404C121.299 77.2206 121.38 77.3884 121.501 77.5264C121.623 77.6669 121.785 77.766 121.966 77.81C122.154 77.859 122.388 77.8572 122.669 77.803C122.938 77.751 123.152 77.654 123.316 77.5108C123.474 77.3732 123.57 77.2 123.605 76.9902L123.308 76.9922C123.233 77.3916 122.923 77.4784 122.588 77.5462C122.068 77.6408 121.664 77.4646 121.56 76.9824C121.466 76.4476 121.889 76.198 122.337 76.1024C122.653 76.0414 122.945 76.029 123.126 76.2728L123.397 76.1702C123.295 76.02 123.144 75.9093 122.97 75.8566C122.777 75.7946 122.553 75.7884 122.294 75.8384ZM123.63 75.6018L124.198 77.5192L126.065 76.9654L125.984 76.693L124.396 77.164L124.223 76.5804L125.654 76.156L125.573 75.885L124.143 76.3094L123.99 75.793L125.518 75.3396L125.436 75.0656L123.63 75.6018ZM125.793 74.9218L126.633 76.737L126.883 76.621L126.183 75.1072L128.12 76C128.163 76.0374 128.206 76.0124 128.249 75.9894L128.501 75.873L127.661 74.0578L127.41 74.1738L128.11 75.6858L126.12 74.7704L125.793 74.9218ZM127.989 73.8902L128.146 74.1282L128.86 73.6582L128.888 73.6402L128.901 73.6608L129.83 75.0728L130.073 74.913L129.144 73.501L129.13 73.4804L129.158 73.4624L129.876 72.9898L129.719 72.7518L127.989 73.8902ZM130.002 72.5122L131.357 73.9832L131.572 73.7852L131.039 73.2068L131.745 72.551L132.764 72.6866L133.037 72.4356L131.962 72.2932C132.094 72.1128 132.151 71.8566 132.027 71.6566C131.934 71.484 131.764 71.3366 131.558 71.3386C131.281 71.3324 131.069 71.541 130.873 71.7094L130.002 72.5122ZM130.41 72.5238L131.173 71.8318C131.309 71.729 131.501 71.5998 131.672 71.6994C131.818 71.7814 131.816 71.979 131.731 72.1046C131.58 72.3586 131.336 72.534 131.128 72.7372L130.846 72.9972L130.41 72.5238ZM132.329 70.1834L133.223 72.2488L133.436 71.9888L133.157 71.3494L133.158 71.3484L133.848 70.5042L134.53 70.651L134.743 70.391L132.541 69.9236L132.329 70.1836V70.1834ZM132.679 70.2532L133.539 70.4378L133.03 71.0592L132.679 70.2532ZM133.2 69.0504L134.878 70.1384L135.758 68.7804L135.52 68.626L134.815 69.7122L134.797 69.7402L134.776 69.7262L133.358 68.8066L133.2 69.0504Z" fill="#D3AE3B"/>
<path d="M120 45.2751L107.26 67.3415H132.74L120 45.2751Z" fill="white"/>
<path opacity="0.62" d="M120.485 46.1133L120.001 45.2751L119.517 46.1125L119.967 56.616L119.03 46.9567L118.338 48.1543L119.901 56.6256L118.001 48.7381L117.493 49.6187L119.837 56.644L117.238 50.0602L116.834 50.759L119.776 56.6712L116.628 51.1166L116.288 51.7052L119.72 56.7064L116.111 52.0115L115.811 52.5324L119.669 56.7494L115.651 52.808L115.373 53.2895L119.624 56.799L115.224 53.5485L114.956 54.0119L119.587 56.8543L114.81 54.2656L114.542 54.729L119.557 56.9143L114.393 54.988L114.115 55.4695L119.537 56.9778L113.956 55.7451L113.655 56.266L119.525 57.0435L113.478 56.5724L113.138 57.1609L119.523 57.1102L112.932 57.5186L112.528 58.2174L119.53 57.1766L112.273 58.6589L111.765 59.5396L119.546 57.2414L111.428 60.1233L110.736 61.321L119.571 57.3033L110.249 62.1653L109.76 63.0123L110.718 63.0124L119.604 57.361L111.036 63.4832L110.673 64.3815L111.632 64.2467L119.645 57.4137L112.012 64.6687L111.778 65.6088L112.709 65.3418L119.693 57.46L113.144 65.7068L113.043 66.6703L113.928 66.2763L119.747 57.4992L114.41 66.5773L114.436 67.3415H114.77L115.265 67.0321L119.806 57.5307L115.784 67.2631L115.798 67.3415H116.774L119.869 57.5534L117.346 67.3415H118.291L119.934 57.5674L118.828 67.3415H119.737L120.001 57.5719L120.264 67.3415H121.173L120.067 57.5673L121.711 67.3415H122.656L120.133 57.5534L123.227 67.3415H124.204L124.218 67.2631L120.195 57.5306L124.737 67.0321L125.232 67.3415H125.565L125.592 66.5773L120.254 57.4992L126.074 66.2763L126.959 66.6703L126.858 65.7068L120.308 57.46L127.293 65.3418L128.224 65.6088L127.99 64.6687L120.356 57.4137L128.37 64.2467L129.329 64.3815L128.966 63.4832L120.398 57.3611L129.284 63.0124L130.241 63.0123L129.752 62.1648L120.431 57.3033L129.264 61.3206L128.573 60.123L120.456 57.2413L128.236 59.5393L127.728 58.6587L120.472 57.1766L127.473 58.2172L127.069 57.5185L120.479 57.1102L126.863 57.1609L126.523 56.5724L120.477 57.0435L126.346 56.2661L126.046 55.7452L120.465 56.9778L125.886 55.4697L125.608 54.9882L120.444 56.9143L125.459 54.7292L125.191 54.2659L120.415 56.8544L125.045 54.0122L124.777 53.5488L120.378 56.7989L124.628 53.2899L124.35 52.8084L120.333 56.7494L124.191 52.5328L123.89 52.012L120.282 56.7064L123.713 51.7056L123.374 51.1172L120.225 56.6712L123.167 50.7595L122.764 50.0608L120.165 56.6439L122.509 49.6193L122 48.7388L120.1 56.6256L121.663 48.1551L120.972 46.9575L120.034 56.6162L120.485 46.1133Z" fill="#54AEF2"/>
<path d="M120 55.495L119.973 55.4956L120 56.1178L120.027 55.4956L120 55.495Z" fill="white"/>
<path d="M121.52 56.5995L121.511 56.5742L120.928 56.792L121.528 56.6252L121.52 56.5995Z" fill="white"/>
<path d="M120.961 58.3703L120.94 58.3866L120.918 58.4018L120.574 57.8827L120.961 58.3703Z" fill="white"/>
<path d="M119.061 58.3866L119.083 58.4018L119.427 57.8827L119.039 58.3703L119.061 58.3866Z" fill="white"/>
<path d="M118.472 56.6252L118.48 56.5995L118.489 56.5742L119.072 56.7919L118.472 56.6252Z" fill="white"/>
<path d="M120.222 55.5106L120.196 55.5074L120.136 56.1273L120.249 55.5149L120.222 55.5106Z" fill="white"/>
<path d="M121.569 56.7896L121.574 56.8159L121.578 56.8424L120.961 56.924L121.569 56.7896Z" fill="white"/>
<path d="M120.75 58.5047L120.774 58.4916L120.458 57.9548L120.726 58.5168L120.75 58.5047Z" fill="white"/>
<path d="M118.909 58.2614L118.89 58.2432L118.871 58.2242L119.322 57.7952L118.909 58.2614Z" fill="white"/>
<path d="M118.563 56.3927L118.552 56.4171L119.123 56.6657L118.576 56.3689L118.563 56.3927Z" fill="white"/>
<path d="M120.415 55.5501L120.441 55.5569L120.466 55.5649L120.269 56.1556L120.415 55.5501Z" fill="white"/>
<path d="M121.598 57.0376L121.596 57.0109L120.975 57.0594L121.598 57.0645L121.598 57.0376Z" fill="white"/>
<path d="M120.572 58.5857L120.547 58.5954L120.521 58.604L120.334 58.0102L120.572 58.5857Z" fill="white"/>
<path d="M118.741 58.0775L118.757 58.0983L119.231 57.6941L118.724 58.056L118.741 58.0775Z" fill="white"/>
<path d="M118.66 56.2222L118.675 56.1996L118.69 56.1777L119.191 56.5479L118.66 56.2222Z" fill="white"/>
<path d="M120.65 55.6332L120.625 55.6229L120.397 56.2022L120.674 55.6447L120.65 55.6332Z" fill="white"/>
<path d="M121.592 57.2338L121.59 57.2605L121.586 57.2871L120.97 57.1954L121.592 57.2338Z" fill="white"/>
<path d="M120.332 58.6569L120.358 58.6507L120.203 58.0477L120.306 58.6619L120.332 58.6569Z" fill="white"/>
<path d="M118.63 57.9155L118.616 57.8926L118.603 57.8691L119.155 57.5812L118.63 57.9155Z" fill="white"/>
<path d="M118.812 56.0239L118.795 56.0442L119.275 56.4406L118.831 56.0044L118.812 56.0239Z" fill="white"/>
<path d="M120.824 55.7242L120.847 55.7379L120.87 55.7526L120.517 56.2661L120.824 55.7242Z" fill="white"/>
<path d="M121.551 57.4801L121.557 57.454L120.947 57.3294L121.544 57.506L121.551 57.4801Z" fill="white"/>
<path d="M120.138 58.6855L120.112 58.6879L120.085 58.6892L120.068 58.0666L120.138 58.6855Z" fill="white"/>
<path d="M118.518 57.6922L118.529 57.7168L119.096 57.4589L118.509 57.6671L118.518 57.6922Z" fill="white"/>
<path d="M118.953 55.8867L118.973 55.869L118.994 55.8522L119.373 56.3461L118.953 55.8867Z" fill="white"/>
<path d="M121.028 55.869L121.007 55.8522L120.627 56.3461L121.048 55.8867L121.028 55.869Z" fill="white"/>
<path d="M121.492 57.6671L121.482 57.6922L121.472 57.7168L120.905 57.4589L121.492 57.6671Z" fill="white"/>
<path d="M119.889 58.6879L119.915 58.6892L119.932 58.0667L119.862 58.6855L119.889 58.6879Z" fill="white"/>
<path d="M118.456 57.506L118.449 57.4801L118.443 57.454L119.053 57.3294L118.456 57.506Z" fill="white"/>
<path d="M119.153 55.7379L119.131 55.7526L119.483 56.2661L119.176 55.7242L119.153 55.7379Z" fill="white"/>
<path d="M121.17 56.0044L121.188 56.0239L121.205 56.0442L120.725 56.4406L121.17 56.0044Z" fill="white"/>
<path d="M121.384 57.8926L121.397 57.8691L120.845 57.5812L121.37 57.9155L121.384 57.8926Z" fill="white"/>
<path d="M119.694 58.6619L119.668 58.6569L119.642 58.6507L119.797 58.0477L119.694 58.6619Z" fill="white"/>
<path d="M118.41 57.2605L118.414 57.2871L119.03 57.1954L118.408 57.2338L118.41 57.2605Z" fill="white"/>
<path d="M119.326 55.6447L119.35 55.6332L119.375 55.6229L119.603 56.2022L119.326 55.6447Z" fill="white"/>
<path d="M121.325 56.1996L121.31 56.1777L120.809 56.5479L121.34 56.2222L121.325 56.1996Z" fill="white"/>
<path d="M121.276 58.056L121.26 58.0775L121.243 58.0982L120.769 57.6941L121.276 58.056Z" fill="white"/>
<path d="M119.453 58.5954L119.479 58.604L119.666 58.0102L119.428 58.5857L119.453 58.5954Z" fill="white"/>
<path d="M118.402 57.0644L118.403 57.0376L118.404 57.0109L119.025 57.0594L118.402 57.0644Z" fill="white"/>
<path d="M119.56 55.5569L119.534 55.5649L119.731 56.1556L119.585 55.5501L119.56 55.5569Z" fill="white"/>
<path d="M121.424 56.3689L121.437 56.3927L121.448 56.4171L120.877 56.6657L121.424 56.3689Z" fill="white"/>
<path d="M121.11 58.2432L121.129 58.2242L120.678 57.7952L121.091 58.2614L121.11 58.2432Z" fill="white"/>
<path d="M119.274 58.5168L119.25 58.5047L119.226 58.4916L119.542 57.9548L119.274 58.5168Z" fill="white"/>
<path d="M118.426 56.8159L118.422 56.8424L119.039 56.924L118.431 56.7896L118.426 56.8159Z" fill="white"/>
<path d="M119.751 55.5149L119.778 55.5106L119.804 55.5074L119.864 56.1273L119.751 55.5149Z" fill="white"/>
<path d="M114.206 55.3188C115.816 53.929 117.873 53.1657 120 53.1688C122.127 53.166 124.184 53.9292 125.794 55.3188L128.725 60.4C128.826 60.9442 128.876 61.4966 128.875 62.05H127.869C127.869 57.7048 124.345 54.1812 120 54.1812C115.655 54.1812 112.131 57.7048 112.131 62.05H111.125C111.124 61.4965 111.174 60.9442 111.275 60.4L114.206 55.3188Z" fill="#D91C16"/>
<path d="M113.944 55.7813C115.512 54.2663 117.647 53.3313 120 53.3313C122.353 53.3313 124.488 54.2665 126.056 55.7813L128.462 59.9439C128.629 60.6173 128.719 61.3251 128.719 62.0501H127.869C127.869 57.7049 124.345 54.1813 120 54.1813C115.655 54.1813 112.131 57.7049 112.131 62.0501H111.281C111.281 61.3423 111.367 60.6371 111.537 59.9501L113.944 55.7813Z" fill="#FF5C26"/>
<path d="M113.612 56.3566C115.18 54.5984 117.459 53.494 120 53.494L119.999 53.4938C122.54 53.4938 124.82 54.5986 126.387 56.3562L128.131 59.3752C128.408 60.2172 128.556 61.1156 128.556 62.0502H127.868C127.868 57.705 124.345 54.1814 120 54.1814C115.654 54.1814 112.131 57.705 112.131 62.0502H111.443C111.442 61.1416 111.585 60.2386 111.868 59.3752L113.612 56.3566Z" fill="#FDD406"/>
<path d="M113.019 57.3811C114.525 55.1327 117.09 53.6499 120 53.6499V53.6501C122.907 53.6501 125.468 55.1297 126.975 57.3751L127.544 58.3625C128.107 59.5101 128.4 60.7715 128.4 62.0499H127.868C127.868 57.7047 124.345 54.1811 120 54.1811C115.654 54.1811 112.131 57.7047 112.131 62.0501H111.6C111.598 60.7694 111.891 59.5056 112.456 58.3561L113.019 57.3811Z" fill="#1E9A1C"/>
<path d="M111.762 62.05C111.762 57.5004 115.45 53.8124 119.999 53.8124C124.549 53.8124 128.237 57.5004 128.237 62.05H127.868C127.868 57.7046 124.345 54.1812 119.999 54.1812C115.654 54.1812 112.131 57.7046 112.131 62.05H111.762Z" fill="#54AEF2"/>
<path d="M111.926 62.0502C111.926 57.589 115.54 53.969 120.001 53.969C124.462 53.969 128.082 57.589 128.082 62.0502H127.807C127.807 57.7384 124.313 54.244 120.001 54.244C115.689 54.244 112.195 57.7382 112.195 62.0502H111.926Z" fill="#0F3296"/>
<path d="M112.082 62.0493C112.082 57.6765 115.627 54.1315 120 54.1315C124.373 54.1315 127.917 57.6765 127.917 62.0493L127.915 62.1959H127.756L127.757 62.0493C127.757 57.7649 124.284 54.2917 120 54.2917C115.715 54.2917 112.242 57.7649 112.242 62.0493C112.242 62.0981 112.243 62.147 112.244 62.1959H112.083L112.082 62.0493Z" fill="#9063CD"/>
<path d="M120.079 57.6267C119.95 57.6019 119.834 57.5299 119.724 57.5047C119.573 57.6497 119.557 57.7961 119.578 57.9207C119.63 57.9487 119.64 57.9913 119.753 58.0927C119.867 58.1941 119.852 58.2473 119.846 58.4857C119.843 58.5863 119.86 58.8019 119.961 58.8221C120.071 58.8441 120.148 58.7529 120.179 58.5901C120.21 58.4321 120.263 58.3469 120.319 58.2497C120.38 57.8793 120.28 57.7481 120.079 57.6267Z" fill="#8A1538"/>
<path d="M119.434 56.7048C119.315 56.7078 119.129 56.9072 119.046 56.7998C118.998 56.7382 118.99 56.6194 119.038 56.5198C119.15 56.2896 119.263 56.1766 119.472 56.0538C119.947 55.7736 120.25 55.8638 120.487 56.2664C120.706 56.6208 120.917 57.0124 120.936 57.3406C120.942 57.4408 120.992 57.6222 120.905 57.7126C120.635 57.9906 119.985 57.4256 119.605 57.515C119.477 57.545 119.33 57.6384 119.209 57.5586C119.115 57.4966 119.194 57.3592 119.264 57.2998C119.386 57.1958 119.564 56.8268 119.54 56.6668C119.526 56.5776 119.524 56.7026 119.434 56.7048Z" fill="#D91C16"/>
<path d="M119.386 56.5098C119.169 56.5988 119.193 56.725 119.084 56.8278C119.115 56.8394 119.237 56.8898 119.357 56.7676C119.408 56.7248 119.466 56.709 119.492 56.6952C119.431 56.7394 119.388 56.806 119.355 56.832C119.275 56.8978 119.149 57.0486 119.087 57.2012C119.026 57.3538 119.001 57.5358 119.012 57.5576C119.023 57.5794 119.097 57.7136 119.325 57.804C119.731 57.9654 119.809 58.2918 120.221 58.2918C120.544 58.2918 120.492 58.0806 120.75 58.1254C120.974 58.1642 121.093 57.9862 120.877 57.879C120.603 57.7854 120.059 57.8406 119.803 57.8856C119.72 57.069 119.792 57.3556 119.772 57.0046C119.753 56.6536 119.648 56.6326 119.787 56.3484C119.671 56.5228 119.531 56.4952 119.386 56.5098Z" fill="#8A1538"/>
<path d="M120.188 55.9589C120.18 56.0035 120.173 56.0621 120.177 56.0789L120.233 56.2777C120.256 56.3449 120.265 56.3937 120.281 56.4633C120.297 56.5353 120.361 56.5633 120.419 56.6077C120.493 56.6637 120.436 56.8151 120.482 56.8215C120.519 56.8265 120.58 56.6071 120.58 56.5721C120.582 56.5288 120.579 56.4855 120.573 56.4427C120.546 56.3836 120.518 56.3255 120.488 56.2683C120.475 56.2451 120.462 56.2226 120.447 56.2009C120.403 56.1363 120.35 56.0782 120.29 56.0283L120.279 56.0189L120.227 55.9815L120.188 55.9589Z" fill="#D91C16"/>
<path d="M120.249 57.4798C120.106 57.4422 119.964 57.3712 119.842 57.3348C119.602 57.263 119.346 57.108 119.169 57.172C119.105 57.2 119.111 57.2632 119.091 57.354C119.082 57.4606 118.972 57.618 119.064 57.5664C119.201 57.4898 119.562 57.713 119.683 57.7876C119.74 57.823 119.861 57.8924 119.899 57.992C119.937 58.0916 119.917 58.3432 119.907 58.4512C119.897 58.5644 119.931 58.8182 120.044 58.8486C120.167 58.8812 120.26 58.784 120.308 58.6026C120.354 58.4264 120.389 58.3252 120.459 58.2196C120.529 58.114 120.61 58.0684 120.723 58.047C120.836 58.0256 120.999 58.1394 120.999 58.0064C120.999 57.919 120.923 57.8354 120.955 57.7156C120.981 57.6212 120.875 57.64 120.787 57.6012C120.58 57.5374 120.393 57.5172 120.249 57.4798Z" fill="#D91C16"/>
<path d="M119.673 57.7806C119.607 57.745 119.21 57.485 119.064 57.5664C119.018 57.592 119.001 57.5632 119 57.515C118.999 57.4668 119.022 57.3962 119.037 57.3418C119.052 57.2874 119.076 57.1834 119.14 57.1294C119.277 57.0134 119.594 57.2444 119.762 57.3066L119.673 57.7806Z" fill="#8A1538"/>
<path d="M120.354 58.2723C120.537 57.9517 120.655 57.9929 120.876 57.9975C120.95 57.9991 120.972 57.9317 120.955 57.8641C120.899 57.9889 120.622 57.8501 120.472 57.9167C120.157 58.0551 120.216 58.6707 120.066 58.7307C120.222 58.8609 120.291 58.3815 120.354 58.2723Z" fill="#D91C16"/>
<path d="M110.62 61.529L108.629 64.9764H131.371L129.379 61.529H110.62Z" fill="white"/>
<path d="M129.936 62.4877C129.856 62.4878 129.776 62.4885 129.697 62.4891C129.535 62.4905 129.374 62.4918 129.213 62.4886C128.839 62.4886 128.494 62.5315 128.154 62.5738C127.859 62.6106 127.566 62.6469 127.26 62.6544C126.954 62.647 126.66 62.6106 126.364 62.5738C126.023 62.5315 125.678 62.4886 125.303 62.4886C125.163 62.4868 125.022 62.488 124.882 62.4892H124.881C124.719 62.4906 124.558 62.492 124.398 62.4886C124.024 62.4886 123.678 62.5315 123.337 62.5738C123.041 62.6106 122.747 62.647 122.441 62.6544C122.134 62.647 121.841 62.6106 121.544 62.5738C121.203 62.5315 120.858 62.4886 120.484 62.4886C120.342 62.4868 120.2 62.488 120.059 62.4891H120.058C119.896 62.4905 119.735 62.4918 119.575 62.4886C119.2 62.4886 118.856 62.5315 118.516 62.5738C118.22 62.6106 117.928 62.647 117.622 62.6544C117.315 62.647 117.022 62.6106 116.726 62.5738C116.386 62.5315 116.042 62.4886 115.668 62.4886C115.525 62.4867 115.384 62.4879 115.242 62.4891H115.242C115.082 62.4905 114.922 62.4919 114.763 62.4886C114.388 62.4886 114.043 62.5315 113.702 62.5738C113.406 62.6106 113.112 62.647 112.806 62.6544C112.499 62.647 112.206 62.6106 111.909 62.5738C111.568 62.5315 111.223 62.4886 110.849 62.4886C110.708 62.4868 110.567 62.488 110.426 62.4892H110.425C110.303 62.4902 110.181 62.4913 110.059 62.4903L109.984 62.6209L110.328 62.5866C110.635 62.5941 110.928 62.6305 111.224 62.6674C111.565 62.7097 111.911 62.7526 112.286 62.7526H113.191C113.565 62.7526 113.91 62.7098 114.251 62.6674L114.251 62.6674C114.548 62.6305 114.841 62.5941 115.147 62.5866C115.454 62.5941 115.748 62.6305 116.046 62.6674C116.388 62.7097 116.734 62.7526 117.108 62.7526H118.014C118.388 62.7526 118.733 62.7097 119.073 62.6674C119.368 62.6305 119.661 62.5941 119.967 62.5866C120.273 62.5941 120.566 62.6305 120.862 62.6674C121.202 62.7098 121.547 62.7526 121.921 62.7526H122.829C123.204 62.7526 123.549 62.7098 123.89 62.6674C124.186 62.6306 124.48 62.5941 124.787 62.5866C125.094 62.5941 125.387 62.6305 125.683 62.6674C126.024 62.7098 126.369 62.7526 126.743 62.7526H127.649C128.023 62.7526 128.368 62.7097 128.708 62.6674C129.004 62.6305 129.296 62.5941 129.602 62.5866C129.739 62.59 129.874 62.599 130.008 62.6113L129.936 62.4877Z" fill="#021455"/>
<path d="M130.065 62.7114C129.942 62.7105 129.819 62.7115 129.697 62.7125C129.535 62.7139 129.374 62.7152 129.213 62.712C128.839 62.712 128.494 62.7549 128.154 62.7972C127.859 62.834 127.566 62.8703 127.26 62.8778C126.954 62.8704 126.66 62.834 126.364 62.7972C126.023 62.7549 125.678 62.712 125.303 62.712C125.163 62.7102 125.022 62.7114 124.882 62.7126H124.881C124.719 62.714 124.558 62.7154 124.398 62.712C124.024 62.712 123.678 62.7549 123.337 62.7972C123.041 62.834 122.747 62.8704 122.441 62.8778C122.134 62.8704 121.841 62.834 121.544 62.7972C121.203 62.7549 120.858 62.712 120.484 62.712C120.342 62.7102 120.2 62.7114 120.058 62.7125H120.058C119.896 62.7139 119.735 62.7152 119.575 62.712C119.2 62.712 118.856 62.7549 118.516 62.7972C118.22 62.834 117.928 62.8704 117.622 62.8778C117.315 62.8704 117.022 62.834 116.726 62.7972C116.386 62.7549 116.042 62.712 115.668 62.712C115.525 62.7101 115.384 62.7113 115.242 62.7125H115.242C115.082 62.7139 114.922 62.7153 114.763 62.712C114.388 62.712 114.043 62.7549 113.702 62.7972C113.406 62.834 113.112 62.8704 112.806 62.8778C112.499 62.8704 112.206 62.834 111.909 62.7972C111.568 62.7549 111.223 62.712 110.849 62.712C110.708 62.7102 110.567 62.7114 110.426 62.7126H110.425C110.263 62.714 110.101 62.7154 109.94 62.712C109.937 62.712 109.934 62.712 109.931 62.712L109.847 62.8579L110.328 62.81C110.635 62.8175 110.928 62.8539 111.224 62.8908C111.565 62.9331 111.911 62.976 112.286 62.976H113.191C113.565 62.976 113.91 62.9332 114.251 62.8908C114.547 62.8539 114.841 62.8175 115.147 62.81C115.454 62.8175 115.748 62.8539 116.046 62.8908C116.388 62.9331 116.734 62.976 117.108 62.976H118.014C118.388 62.976 118.733 62.9331 119.073 62.8908C119.368 62.8539 119.661 62.8175 119.967 62.81C120.273 62.8175 120.566 62.8539 120.862 62.8908C121.202 62.9332 121.547 62.976 121.921 62.976H122.829C123.204 62.976 123.549 62.9332 123.89 62.8908C124.186 62.854 124.48 62.8175 124.787 62.81C125.094 62.8175 125.387 62.8539 125.683 62.8908C126.024 62.9332 126.369 62.976 126.743 62.976H127.649C128.023 62.976 128.368 62.9331 128.708 62.8908C129.004 62.8539 129.296 62.8175 129.602 62.81C129.786 62.8145 129.966 62.8293 130.144 62.8483L130.065 62.7114Z" fill="#021455"/>
<path d="M130.197 62.9401L130.123 62.9346C129.98 62.9328 129.838 62.934 129.697 62.9351C129.535 62.9365 129.374 62.9378 129.213 62.9346C128.839 62.9346 128.494 62.9775 128.154 63.0198C127.859 63.0566 127.566 63.0929 127.26 63.1004C126.954 63.093 126.66 63.0566 126.364 63.0198C126.023 62.9775 125.678 62.9346 125.303 62.9346C125.163 62.9328 125.022 62.934 124.882 62.9352H124.881C124.719 62.9366 124.558 62.938 124.398 62.9346C124.024 62.9346 123.678 62.9775 123.337 63.0198C123.041 63.0566 122.747 63.093 122.441 63.1004C122.134 63.093 121.841 63.0566 121.544 63.0198C121.203 62.9775 120.858 62.9346 120.484 62.9346C120.342 62.9328 120.2 62.934 120.059 62.9351H120.058C119.896 62.9365 119.735 62.9378 119.575 62.9346C119.2 62.9346 118.856 62.9775 118.516 63.0198C118.22 63.0566 117.928 63.093 117.622 63.1004C117.315 63.093 117.022 63.0566 116.726 63.0198C116.386 62.9775 116.042 62.9346 115.668 62.9346C115.525 62.9327 115.384 62.9339 115.242 62.9351H115.242C115.082 62.9365 114.922 62.9379 114.763 62.9346C114.388 62.9346 114.043 62.9775 113.702 63.0198C113.406 63.0566 113.112 63.093 112.806 63.1004C112.499 63.093 112.206 63.0566 111.909 63.0198C111.568 62.9775 111.223 62.9346 110.849 62.9346C110.708 62.9328 110.567 62.934 110.426 62.9352H110.425C110.263 62.9366 110.101 62.938 109.94 62.9346C109.893 62.9346 109.847 62.9353 109.801 62.9365L109.71 63.094L110.328 63.0326C110.635 63.0401 110.928 63.0765 111.224 63.1134C111.565 63.1557 111.911 63.1986 112.286 63.1986H113.191C113.565 63.1986 113.91 63.1558 114.251 63.1134L114.251 63.1134C114.548 63.0765 114.841 63.0401 115.147 63.0326C115.454 63.0401 115.748 63.0765 116.046 63.1134C116.388 63.1558 116.734 63.1986 117.108 63.1986H118.014C118.388 63.1986 118.733 63.1557 119.073 63.1134C119.368 63.0765 119.661 63.0401 119.967 63.0326C120.273 63.0401 120.566 63.0765 120.862 63.1134C121.202 63.1558 121.547 63.1986 121.921 63.1986H122.829C123.204 63.1986 123.549 63.1558 123.89 63.1134C124.186 63.0766 124.48 63.0401 124.787 63.0326C125.094 63.0401 125.387 63.0765 125.683 63.1134C126.024 63.1558 126.369 63.1986 126.743 63.1986H127.649C128.023 63.1986 128.368 63.1557 128.708 63.1134C129.004 63.0765 129.296 63.0401 129.602 63.0326C129.834 63.0383 130.058 63.0602 130.282 63.0862L130.197 62.9401Z" fill="#021455"/>
<path d="M130.332 63.1734L130.123 63.1581C129.98 63.1562 129.838 63.1574 129.697 63.1586C129.535 63.1599 129.374 63.1612 129.213 63.1581C128.839 63.1581 128.494 63.2009 128.154 63.2432C127.859 63.28 127.566 63.3163 127.26 63.3238C126.954 63.3164 126.66 63.28 126.364 63.2432C126.023 63.2009 125.678 63.1581 125.303 63.1581C125.163 63.1562 125.022 63.1574 124.882 63.1586H124.881C124.719 63.16 124.558 63.1614 124.398 63.1581C124.024 63.1581 123.678 63.2009 123.337 63.2432C123.041 63.28 122.747 63.3164 122.441 63.3238C122.134 63.3164 121.841 63.28 121.544 63.2432C121.203 63.2009 120.858 63.1581 120.484 63.1581C120.342 63.1562 120.201 63.1574 120.059 63.1586H120.058C119.896 63.1599 119.735 63.1612 119.575 63.1581C119.2 63.1581 118.856 63.2009 118.516 63.2432C118.22 63.28 117.928 63.3164 117.622 63.3238C117.315 63.3164 117.022 63.28 116.726 63.2432C116.386 63.2009 116.042 63.1581 115.668 63.1581C115.525 63.1561 115.383 63.1573 115.242 63.1586C115.082 63.16 114.922 63.1613 114.763 63.1581C114.388 63.1581 114.043 63.2009 113.702 63.2432C113.406 63.28 113.112 63.3164 112.806 63.3238C112.499 63.3164 112.206 63.28 111.909 63.2432C111.568 63.2009 111.223 63.1581 110.849 63.1581C110.708 63.1562 110.567 63.1574 110.426 63.1586H110.425C110.263 63.16 110.101 63.1614 109.94 63.1581C109.848 63.1581 109.758 63.1606 109.669 63.1651L109.574 63.331L110.328 63.256C110.635 63.2635 110.928 63.2999 111.224 63.3368C111.565 63.3791 111.911 63.422 112.286 63.422H113.191C113.565 63.422 113.91 63.3792 114.251 63.3368C114.547 63.3 114.841 63.2635 115.147 63.256C115.454 63.2635 115.748 63.2999 116.046 63.3368C116.388 63.3791 116.734 63.422 117.108 63.422H118.014C118.388 63.422 118.733 63.3792 119.073 63.3368C119.368 63.2999 119.661 63.2635 119.967 63.256C120.273 63.2635 120.566 63.3 120.862 63.3368C121.202 63.3792 121.547 63.422 121.921 63.422H122.829C123.204 63.422 123.549 63.3792 123.89 63.3368C124.186 63.3 124.48 63.2635 124.787 63.256C125.094 63.2635 125.387 63.3 125.683 63.3368C126.024 63.3792 126.369 63.422 126.743 63.422H127.649C128.023 63.422 128.368 63.3791 128.708 63.3368C129.004 63.2999 129.296 63.2635 129.602 63.256C129.882 63.2628 130.15 63.2933 130.42 63.3262L130.332 63.1734Z" fill="#021455"/>
<path d="M130.467 63.4067L130.123 63.3815C129.98 63.3796 129.838 63.3808 129.697 63.382C129.535 63.3833 129.374 63.3846 129.213 63.3815C128.839 63.3815 128.494 63.4243 128.154 63.4666C127.859 63.5034 127.566 63.5397 127.26 63.5472C126.954 63.5398 126.66 63.5034 126.364 63.4666C126.023 63.4243 125.678 63.3815 125.303 63.3815C125.163 63.3796 125.022 63.3808 124.882 63.382H124.881C124.719 63.3834 124.558 63.3848 124.398 63.3815C124.024 63.3815 123.678 63.4243 123.337 63.4666C123.041 63.5034 122.747 63.5398 122.441 63.5472C122.134 63.5398 121.841 63.5034 121.544 63.4666C121.203 63.4243 120.858 63.3815 120.484 63.3815C120.342 63.3796 120.2 63.3808 120.059 63.382H120.058C119.897 63.3833 119.735 63.3846 119.575 63.3815C119.2 63.3815 118.856 63.4243 118.516 63.4666C118.22 63.5034 117.928 63.5398 117.622 63.5472C117.315 63.5398 117.022 63.5034 116.726 63.4666C116.386 63.4243 116.042 63.3815 115.668 63.3815C115.525 63.3795 115.384 63.3807 115.242 63.382C115.082 63.3834 114.922 63.3847 114.763 63.3815C114.388 63.3815 114.043 63.4243 113.702 63.4666C113.406 63.5034 113.112 63.5398 112.806 63.5472C112.499 63.5398 112.206 63.5034 111.909 63.4666C111.568 63.4243 111.223 63.3815 110.849 63.3815C110.708 63.3796 110.567 63.3808 110.426 63.382H110.425C110.263 63.3834 110.101 63.3848 109.94 63.3815C109.801 63.3815 109.667 63.3873 109.536 63.3967L109.437 63.568L110.328 63.4794C110.635 63.4869 110.928 63.5233 111.224 63.5602C111.565 63.6025 111.911 63.6454 112.286 63.6454H113.191C113.565 63.6454 113.91 63.6026 114.251 63.5602L114.251 63.5602C114.548 63.5233 114.841 63.4869 115.147 63.4794C115.454 63.4869 115.748 63.5233 116.046 63.5602C116.388 63.6026 116.734 63.6454 117.108 63.6454H118.014C118.388 63.6454 118.733 63.6026 119.073 63.5602C119.368 63.5233 119.661 63.4869 119.967 63.4794C120.273 63.4869 120.566 63.5234 120.862 63.5602C121.202 63.6026 121.547 63.6454 121.921 63.6454H122.829C123.204 63.6454 123.549 63.6026 123.89 63.5602C124.186 63.5234 124.48 63.4869 124.787 63.4794C125.094 63.4869 125.387 63.5234 125.683 63.5602C126.024 63.6026 126.369 63.6454 126.743 63.6454H127.649C128.023 63.6454 128.368 63.6025 128.708 63.5602C129.004 63.5233 129.296 63.4869 129.602 63.4794C129.91 63.4869 130.204 63.523 130.502 63.5596C130.521 63.5619 130.54 63.5643 130.559 63.5666L130.467 63.4067Z" fill="#021455"/>
<path d="M130.601 63.6392L130.123 63.6041C129.98 63.6022 129.838 63.6034 129.697 63.6046C129.535 63.6059 129.374 63.6072 129.213 63.6041C128.839 63.6041 128.494 63.6469 128.154 63.6892C127.859 63.726 127.566 63.7623 127.26 63.7698C126.954 63.7624 126.66 63.726 126.364 63.6892C126.023 63.6469 125.678 63.6041 125.303 63.6041C125.163 63.6022 125.022 63.6034 124.882 63.6046H124.881C124.72 63.606 124.558 63.6074 124.398 63.6041C124.024 63.6041 123.678 63.6469 123.337 63.6892C123.041 63.726 122.747 63.7624 122.441 63.7698C122.134 63.7624 121.841 63.726 121.544 63.6892C121.203 63.6469 120.858 63.6041 120.484 63.6041C120.342 63.6022 120.2 63.6034 120.059 63.6046H120.058C119.896 63.6059 119.735 63.6072 119.575 63.6041C119.2 63.6041 118.856 63.6469 118.516 63.6892C118.22 63.726 117.928 63.7624 117.622 63.7698C117.315 63.7624 117.022 63.726 116.726 63.6892C116.386 63.6469 116.042 63.6041 115.668 63.6041C115.525 63.6021 115.383 63.6033 115.242 63.6046C115.082 63.606 114.922 63.6073 114.763 63.6041C114.388 63.6041 114.043 63.6469 113.702 63.6892C113.406 63.726 113.112 63.7624 112.806 63.7698C112.499 63.7624 112.206 63.726 111.909 63.6892C111.568 63.6469 111.223 63.6041 110.849 63.6041C110.708 63.6022 110.567 63.6034 110.426 63.6046H110.425C110.263 63.606 110.101 63.6074 109.94 63.6041C109.754 63.6041 109.575 63.6146 109.401 63.6304L109.3 63.8041L110.328 63.7021C110.635 63.7095 110.928 63.7459 111.224 63.7828C111.565 63.8251 111.911 63.868 112.286 63.868H113.191C113.565 63.868 113.91 63.8252 114.251 63.7828C114.547 63.746 114.841 63.7095 115.147 63.7021C115.454 63.7095 115.748 63.7459 116.046 63.7828C116.388 63.8252 116.734 63.868 117.108 63.868H118.014C118.388 63.868 118.733 63.8252 119.073 63.7828C119.368 63.7459 119.661 63.7095 119.967 63.7021C120.273 63.7095 120.566 63.746 120.862 63.7828C121.202 63.8252 121.547 63.868 121.921 63.868H122.829C123.204 63.868 123.549 63.8252 123.89 63.7828C124.186 63.746 124.48 63.7095 124.787 63.7021C125.094 63.7095 125.387 63.746 125.683 63.7828C126.024 63.8252 126.369 63.868 126.743 63.868H127.649C128.023 63.868 128.368 63.8251 128.708 63.7828C129.004 63.7459 129.296 63.7095 129.602 63.7021C129.91 63.7095 130.204 63.7456 130.502 63.7822C130.567 63.7901 130.632 63.7981 130.697 63.8058L130.601 63.6392Z" fill="#021455"/>
<path d="M130.735 63.8719L130.123 63.8268C129.98 63.825 129.838 63.8262 129.697 63.8274C129.535 63.8287 129.374 63.83 129.213 63.8268C128.839 63.8268 128.494 63.8697 128.154 63.912C127.859 63.9488 127.566 63.9851 127.26 63.9926C126.954 63.9852 126.66 63.9488 126.364 63.912C126.023 63.8697 125.678 63.8268 125.303 63.8268C125.163 63.825 125.022 63.8262 124.882 63.8274H124.881C124.719 63.8288 124.558 63.8302 124.398 63.8268C124.024 63.8268 123.678 63.8697 123.337 63.912C123.041 63.9488 122.747 63.9852 122.441 63.9926C122.134 63.9852 121.841 63.9488 121.544 63.912C121.203 63.8697 120.858 63.8268 120.484 63.8268C120.342 63.825 120.2 63.8262 120.059 63.8273H120.058C119.897 63.8287 119.735 63.83 119.575 63.8268C119.2 63.8268 118.856 63.8697 118.516 63.912C118.22 63.9488 117.928 63.9852 117.622 63.9926C117.315 63.9852 117.022 63.9488 116.726 63.912C116.386 63.8697 116.042 63.8268 115.668 63.8268C115.525 63.8249 115.384 63.8261 115.242 63.8274C115.082 63.8288 114.922 63.8301 114.763 63.8268C114.388 63.8268 114.043 63.8697 113.702 63.912C113.406 63.9488 113.112 63.9852 112.806 63.9926C112.499 63.9852 112.206 63.9488 111.909 63.912C111.568 63.8697 111.223 63.8268 110.849 63.8268C110.708 63.825 110.567 63.8262 110.426 63.8274H110.425C110.263 63.8288 110.101 63.8302 109.94 63.8268C109.705 63.8268 109.482 63.8436 109.264 63.8666L109.164 64.0405L110.328 63.9248C110.635 63.9323 110.928 63.9687 111.224 64.0056C111.565 64.0479 111.911 64.0908 112.286 64.0908H113.191C113.565 64.0908 113.91 64.048 114.251 64.0056L114.251 64.0056C114.548 63.9687 114.841 63.9323 115.147 63.9248C115.454 63.9323 115.748 63.9687 116.046 64.0056C116.388 64.048 116.734 64.0908 117.108 64.0908H118.014C118.388 64.0908 118.733 64.0479 119.073 64.0056C119.368 63.9687 119.661 63.9323 119.967 63.9248C120.273 63.9323 120.566 63.9688 120.862 64.0056C121.202 64.048 121.547 64.0908 121.921 64.0908H122.829C123.204 64.0908 123.549 64.048 123.89 64.0056C124.186 63.9688 124.48 63.9323 124.787 63.9248C125.094 63.9323 125.387 63.9688 125.683 64.0056C126.024 64.048 126.369 64.0908 126.743 64.0908H127.649C128.023 64.0908 128.368 64.0479 128.708 64.0056C129.004 63.9687 129.296 63.9323 129.602 63.9248C129.91 63.9323 130.204 63.9684 130.502 64.005C130.612 64.0185 130.723 64.0321 130.835 64.0443L130.735 63.8719Z" fill="#021455"/>
<path d="M130.87 64.1052L130.123 64.0503C129.98 64.0484 129.838 64.0496 129.697 64.0508C129.535 64.0521 129.374 64.0534 129.213 64.0503C128.839 64.0503 128.494 64.0931 128.154 64.1354C127.859 64.1722 127.566 64.2085 127.26 64.216C126.954 64.2086 126.66 64.1722 126.364 64.1354C126.023 64.0931 125.678 64.0503 125.303 64.0503C125.163 64.0484 125.022 64.0496 124.882 64.0508H124.881C124.719 64.0522 124.558 64.0536 124.398 64.0503C124.024 64.0503 123.678 64.0931 123.337 64.1354C123.041 64.1722 122.747 64.2086 122.441 64.216C122.134 64.2086 121.841 64.1722 121.544 64.1354C121.203 64.0931 120.858 64.0503 120.484 64.0503C120.342 64.0484 120.2 64.0496 120.058 64.0508H120.058C119.897 64.0521 119.735 64.0534 119.575 64.0503C119.2 64.0503 118.856 64.0931 118.516 64.1354C118.22 64.1722 117.928 64.2086 117.622 64.216C117.315 64.2086 117.022 64.1722 116.726 64.1354C116.386 64.0931 116.042 64.0503 115.668 64.0503C115.525 64.0483 115.383 64.0495 115.242 64.0508C115.082 64.0522 114.922 64.0535 114.763 64.0503C114.388 64.0503 114.043 64.0931 113.702 64.1354C113.406 64.1722 113.112 64.2086 112.806 64.216C112.499 64.2086 112.206 64.1722 111.909 64.1354C111.568 64.0931 111.223 64.0503 110.849 64.0503C110.708 64.0484 110.567 64.0496 110.426 64.0508H110.425C110.263 64.0522 110.101 64.0536 109.94 64.0503C109.655 64.0503 109.388 64.0749 109.127 64.1054L109.027 64.2775L110.328 64.1482C110.635 64.1557 110.928 64.1921 111.224 64.229C111.565 64.2713 111.911 64.3142 112.286 64.3142H113.191C113.565 64.3142 113.91 64.2714 114.251 64.229C114.547 64.1922 114.841 64.1557 115.147 64.1482C115.454 64.1557 115.748 64.1921 116.046 64.229C116.388 64.2713 116.734 64.3142 117.108 64.3142H118.014C118.388 64.3142 118.733 64.2714 119.073 64.229C119.368 64.1921 119.661 64.1557 119.967 64.1482C120.273 64.1557 120.566 64.1922 120.862 64.229C121.202 64.2714 121.547 64.3142 121.921 64.3142H122.829C123.204 64.3142 123.549 64.2714 123.89 64.229C124.186 64.1922 124.48 64.1557 124.787 64.1482C125.094 64.1557 125.387 64.1922 125.683 64.229C126.024 64.2714 126.369 64.3142 126.743 64.3142H127.649C128.023 64.3142 128.368 64.2713 128.708 64.229C129.004 64.1921 129.296 64.1557 129.602 64.1482C129.91 64.1557 130.204 64.1918 130.502 64.2284C130.657 64.2474 130.813 64.2665 130.972 64.2818L130.87 64.1052Z" fill="#021455"/>
<path d="M110.62 61.5346L110.645 61.4916H129.353L129.378 61.5346H110.62Z" fill="#021455"/>
<path d="M110.575 61.611L110.601 61.567H129.397L129.422 61.611H110.575Z" fill="#021455"/>
<path d="M110.561 61.6362L110.52 61.7074H129.478L129.437 61.6362H110.561Z" fill="#021455"/>
<path d="M110.447 61.833L110.497 61.7462V61.7464H129.501L129.551 61.833H110.447Z" fill="#021455"/>
<path d="M110.417 61.8846L110.367 61.9714H129.631L129.581 61.8846H110.417Z" fill="#021455"/>
<path d="M110.288 62.1088L110.338 62.0228H129.66L129.71 62.1088H110.288Z" fill="#021455"/>
<path d="M110.258 62.1612L110.208 62.2472H129.79L129.74 62.1612H110.258Z" fill="#021455"/>
<path d="M110.111 62.416L110.172 62.31H129.826L129.887 62.416H110.111Z" fill="#021455"/>
<path d="M111.47 62.4574C112.16 62.5898 112.226 62.4574 112.226 62.4574H111.47Z" fill="#021455"/>
<path d="M127.771 62.4574C127.771 62.4574 127.837 62.5898 128.527 62.4574H127.771Z" fill="#021455"/>
<path d="M109.94 64.2729C109.608 64.2729 109.3 64.3063 108.998 64.3435L108.9 64.5126L110.328 64.3708C110.635 64.3783 110.928 64.4147 111.224 64.4516C111.565 64.4939 111.911 64.5368 112.286 64.5368H113.191C113.565 64.5368 113.91 64.494 114.251 64.4516C114.548 64.4148 114.841 64.3783 115.147 64.3708C115.454 64.3783 115.748 64.4147 116.046 64.4516C116.388 64.4939 116.734 64.5368 117.108 64.5368H118.014C118.388 64.5368 118.733 64.494 119.073 64.4516C119.368 64.4147 119.661 64.3783 119.967 64.3708C120.273 64.3783 120.566 64.4148 120.862 64.4516C121.202 64.494 121.547 64.5368 121.921 64.5368H122.829C123.204 64.5368 123.549 64.494 123.89 64.4516C124.186 64.4148 124.48 64.3783 124.787 64.3708C125.094 64.3783 125.387 64.4148 125.683 64.4516C126.024 64.494 126.369 64.5368 126.743 64.5368H127.649C128.023 64.5368 128.368 64.4939 128.708 64.4516C129.004 64.4147 129.296 64.3783 129.602 64.3708C129.91 64.3783 130.204 64.4144 130.502 64.451C130.698 64.475 130.896 64.4993 131.099 64.5156L130.996 64.337L130.123 64.2729C129.98 64.271 129.838 64.2722 129.697 64.2734C129.535 64.2747 129.374 64.276 129.213 64.2729C128.839 64.2729 128.494 64.3157 128.154 64.358C127.859 64.3948 127.566 64.4311 127.26 64.4386C126.954 64.4312 126.66 64.3948 126.364 64.358C126.023 64.3157 125.678 64.2729 125.303 64.2729C125.163 64.271 125.022 64.2722 124.882 64.2734H124.881C124.72 64.2748 124.558 64.2762 124.398 64.2729C124.024 64.2729 123.678 64.3157 123.337 64.358C123.041 64.3948 122.747 64.4312 122.441 64.4386C122.134 64.4312 121.841 64.3948 121.544 64.358C121.203 64.3157 120.858 64.2729 120.484 64.2729C120.342 64.271 120.2 64.2722 120.058 64.2734H120.058C119.896 64.2747 119.735 64.276 119.575 64.2729C119.2 64.2729 118.856 64.3157 118.516 64.358C118.22 64.3948 117.928 64.4312 117.622 64.4386C117.315 64.4312 117.022 64.3948 116.726 64.358C116.386 64.3157 116.042 64.2729 115.668 64.2729C115.525 64.2709 115.383 64.2721 115.242 64.2734C115.082 64.2748 114.922 64.2761 114.763 64.2729C114.388 64.2729 114.043 64.3157 113.702 64.358C113.406 64.3948 113.112 64.4312 112.806 64.4386C112.499 64.4312 112.206 64.3948 111.909 64.358C111.568 64.3157 111.223 64.2729 110.849 64.2729C110.708 64.271 110.567 64.2722 110.426 64.2734H110.425C110.263 64.2748 110.101 64.2762 109.94 64.2729Z" fill="#021455"/>
<path d="M126.125 59.4086C125.784 59.4086 125.679 59.581 125.679 59.581C125.132 61.6962 123.318 63.8476 121.159 63.8476H119.543V66.0012H131.846L130.608 63.8104C128.667 63.5206 127.08 61.5358 126.575 59.581C126.575 59.581 126.467 59.4086 126.125 59.4086Z" fill="#B1EB50"/>
<path d="M126.125 59.493C125.968 59.493 125.873 59.529 125.817 59.564C125.765 59.597 125.754 59.6192 125.753 59.6216C125.753 59.623 125.75 59.6236 125.75 59.6248C125.47 60.6894 124.879 61.7586 124.083 62.5662C123.28 63.3802 122.269 63.9322 121.162 63.9322H119.627V65.9166H131.798L130.662 63.905C129.725 63.7826 128.867 63.2724 128.17 62.5662C127.373 61.7586 126.784 60.6894 126.504 59.6248L126.5 59.6216C126.499 59.6192 126.486 59.6006 126.433 59.5674C126.376 59.5322 126.282 59.493 126.125 59.493Z" fill="#B1EB50"/>
<path d="M126.125 59.493C126.155 59.493 126.181 59.4972 126.206 59.4998V61.66C126.201 62.128 126.04 62.5046 125.804 62.9482C125.695 63.259 125.607 63.1408 125.334 63.5196C124.968 63.6504 124.697 63.7014 124.306 63.7628C123.803 63.8424 122.682 63.9128 122.129 63.79C122.857 63.5764 123.521 63.136 124.083 62.566C124.233 62.4136 124.376 62.2534 124.509 62.086C124.733 61.804 124.935 61.5043 125.111 61.19C125.182 61.0648 125.248 60.9404 125.311 60.8114C125.404 60.6182 125.487 60.4214 125.561 60.2234C125.585 60.1572 125.61 60.09 125.632 60.0238C125.676 59.891 125.715 59.7578 125.75 59.6248C125.751 59.6236 125.753 59.6228 125.753 59.6214C125.754 59.62 125.765 59.597 125.818 59.564C125.853 59.543 125.892 59.527 125.933 59.5166H125.936C125.986 59.5032 126.047 59.493 126.125 59.493Z" fill="#FDD406"/>
<path d="M125.987 59.7804C125.905 60.9872 125.532 62.4188 124.658 63.3424C124.337 63.6098 123.926 63.8524 123.529 63.7934C124.883 62.6914 125.706 61.004 125.987 59.7804Z" fill="#D3AE3B"/>
<path d="M124.897 61.8562C124.697 62.4004 123.94 63.2054 123.129 63.8652C122.899 63.8722 122.777 63.8854 122.568 63.8728C123.062 63.8278 124.213 62.8562 124.897 61.8562Z" fill="#D3AE3B"/>
<path d="M123.057 59.4086C122.715 59.4086 122.611 59.581 122.611 59.581C122.063 61.6962 120.249 63.8476 118.091 63.8476H116.475V66.0012H128.777L127.54 63.8104C125.599 63.5206 124.012 61.5358 123.507 59.581C123.507 59.581 123.399 59.4086 123.057 59.4086Z" fill="#B1EB50"/>
<path d="M123.057 59.493C122.9 59.493 122.805 59.529 122.749 59.564C122.696 59.597 122.686 59.6192 122.685 59.6216C122.685 59.623 122.682 59.6236 122.681 59.6248C122.401 60.6894 121.811 61.7586 121.014 62.5662C120.212 63.3802 119.2 63.9322 118.093 63.9322H116.559V65.9166H128.73L127.594 63.905C126.656 63.7826 125.799 63.2724 125.102 62.5662C124.305 61.7586 123.716 60.6894 123.435 59.6248L123.432 59.6216C123.43 59.6192 123.418 59.6006 123.364 59.5674C123.308 59.5322 123.213 59.493 123.057 59.493Z" fill="#B1EB50"/>
<path d="M123.057 59.493C123.086 59.493 123.113 59.4972 123.138 59.4998V61.66C123.132 62.128 122.972 62.5046 122.736 62.9482C122.626 63.259 122.538 63.1408 122.266 63.5196C121.9 63.6504 121.628 63.7014 121.238 63.7628C120.735 63.8424 119.614 63.9128 119.061 63.79C119.789 63.5764 120.453 63.136 121.015 62.566C121.165 62.4136 121.307 62.2534 121.441 62.086C121.665 61.804 121.866 61.5043 122.043 61.19C122.113 61.0648 122.18 60.9404 122.242 60.8114C122.336 60.6182 122.419 60.4214 122.492 60.2234C122.517 60.1572 122.541 60.09 122.563 60.0238C122.608 59.891 122.647 59.7578 122.682 59.6248C122.682 59.6236 122.685 59.6228 122.685 59.6214C122.685 59.62 122.697 59.597 122.749 59.564C122.785 59.543 122.824 59.527 122.864 59.5166H122.868C122.918 59.5032 122.978 59.493 123.057 59.493Z" fill="#FDD406"/>
<path d="M122.919 59.7804C122.837 60.9872 122.464 62.4188 121.59 63.3424C121.269 63.6098 120.858 63.8524 120.461 63.7934C121.815 62.6914 122.638 61.004 122.919 59.7804Z" fill="#D3AE3B"/>
<path d="M121.829 61.8562C121.628 62.4004 120.871 63.2054 120.061 63.8652C119.831 63.8722 119.709 63.8854 119.5 63.8728C119.994 63.8278 121.144 62.8562 121.829 61.8562Z" fill="#D3AE3B"/>
<path d="M120.444 59.5818C120.991 61.6968 122.802 63.8484 124.96 63.8484H126.578V66.002H113.416L113.412 63.8484H115.027C117.185 63.8484 118.999 61.6968 119.547 59.5818C119.547 59.5818 119.653 59.4086 119.995 59.4086C120.337 59.4086 120.444 59.5818 120.444 59.5818H120.444Z" fill="#B1EB50"/>
<path d="M119.994 59.493C120.151 59.493 120.245 59.5322 120.302 59.5674C120.355 59.6006 120.368 59.6192 120.369 59.6214L120.373 59.6248C120.653 60.6894 121.242 61.7586 122.039 62.5662C122.843 63.3802 123.857 63.9322 124.964 63.9322H126.492V65.9166H113.496V63.932H115.031C116.138 63.932 117.15 63.38 117.952 62.566C118.748 61.7586 119.339 60.6894 119.619 59.6248C119.619 59.6234 119.622 59.6228 119.622 59.6216C119.623 59.6192 119.634 59.597 119.686 59.564C119.742 59.5292 119.837 59.493 119.994 59.493Z" fill="#B1EB50"/>
<path d="M119.853 59.506C119.837 59.5091 119.821 59.5128 119.805 59.517H119.801C119.761 59.5272 119.722 59.5431 119.687 59.5642C119.634 59.5972 119.624 59.619 119.623 59.6214C119.622 59.6226 119.619 59.6234 119.619 59.6248L119.5 60.0242L119.429 60.2232L119.179 60.8116C119.117 60.9399 119.05 61.0663 118.98 61.1904C118.803 61.5045 118.602 61.8039 118.378 62.0858C118.244 62.2533 118.102 62.4137 117.952 62.5664C117.39 63.1364 116.726 63.5764 115.998 63.7898C116.551 63.9128 116.804 63.7786 117.308 63.699C117.698 63.6374 118.15 63.5864 118.516 63.4556C118.789 63.0768 118.696 63.1956 118.806 62.8848C119.042 62.4412 119.387 62.0404 119.472 61.5486C119.796 60.9442 119.853 59.8258 119.853 59.506Z" fill="#FDD406"/>
<path d="M119.854 59.7804C119.772 60.9872 119.399 62.4188 118.526 63.3424C118.204 63.6098 117.794 63.8524 117.396 63.7934C118.75 62.6914 119.573 61.004 119.854 59.7804Z" fill="#D3AE3B"/>
<path d="M118.766 61.8562C118.566 62.4004 117.809 63.2056 116.998 63.8652C116.768 63.8722 116.646 63.8854 116.438 63.8728C116.931 63.8278 118.082 62.8562 118.766 61.8562Z" fill="#D3AE3B"/>
<path d="M120.19 59.5168H120.193C120.233 59.5271 120.272 59.543 120.308 59.564C120.36 59.597 120.371 59.6188 120.372 59.6212C120.372 59.6224 120.375 59.6234 120.375 59.6248L120.494 60.024L120.565 60.223L120.815 60.8114L121.015 61.1904C121.191 61.5045 121.392 61.8039 121.617 62.0858C121.75 62.2533 121.892 62.4136 122.043 62.5662C122.605 63.1362 123.268 63.6552 123.996 63.8686C122.547 63.8742 121.918 63.7426 121.392 63.0654C120.865 62.3882 120.671 62.0918 120.564 61.678C120.457 61.2642 120.159 60.364 120.19 59.5168Z" fill="#FDD406"/>
<path d="M120.295 59.7804C120.377 60.9872 120.739 62.1816 121.612 63.1054C121.934 63.3728 122.344 63.6154 122.742 63.5564C121.275 62.556 120.576 61.004 120.295 59.7804Z" fill="#D3AE3B"/>
<path d="M116.949 59.4086C116.607 59.4086 116.5 59.581 116.5 59.581C115.995 61.5304 114.135 64.0446 112.2 64.3432L111.242 66.0012H121.045V63.7316C119.28 63.2574 117.867 61.4056 117.396 59.581C117.396 59.581 117.291 59.4086 116.949 59.4086Z" fill="#B1EB50"/>
<path d="M116.948 59.493C116.792 59.493 116.697 59.5322 116.641 59.5674C116.587 59.6006 116.574 59.6192 116.573 59.6214L116.57 59.6248C116.289 60.6894 115.634 61.7658 114.954 62.6228C114.273 63.4798 113.01 64.3462 112.145 64.438L111.289 65.9166H120.901V63.778C120.19 63.5598 119.541 63.1246 118.991 62.566C118.194 61.7586 117.604 60.6894 117.324 59.6248C117.323 59.6234 117.321 59.6228 117.32 59.6216C117.319 59.6192 117.309 59.597 117.256 59.564C117.2 59.5292 117.105 59.493 116.948 59.493Z" fill="#B1EB50"/>
<path d="M116.689 59.7806C116.566 61.5892 115.559 63.8714 114.421 64.2646C114.05 64.3926 113.401 64.4374 113.176 64.4662C115.165 63.52 116.341 61.2956 116.689 59.7806Z" fill="#FDD406"/>
<path d="M116.948 59.493C116.919 59.493 116.892 59.4972 116.867 59.4998V61.66C116.873 62.128 117.033 62.5046 117.27 62.9482C117.283 62.987 117.297 63.019 117.31 63.0462C117.392 63.2634 117.453 63.3388 117.767 63.577C118.764 64.3344 120.001 64.4476 120.728 64.385C120.5 64.2054 120.257 64.042 120.042 63.8916C120.384 63.8804 120.712 63.8416 120.945 63.79C120.217 63.5766 119.553 63.136 118.991 62.566C118.894 62.4657 118.8 62.362 118.71 62.2552L118.592 62.0928C118.368 61.8128 118.139 61.5034 117.963 61.1902C117.892 61.0661 117.826 60.9398 117.763 60.8114C117.64 60.5559 117.533 60.2928 117.442 60.0238C117.398 59.8922 117.359 59.7591 117.324 59.6248C117.323 59.6236 117.321 59.6228 117.32 59.6214C117.32 59.62 117.309 59.597 117.256 59.564C117.22 59.5429 117.181 59.5269 117.141 59.5166H117.138C117.076 59.5005 117.012 59.4925 116.948 59.493Z" fill="#FDD406"/>
<path d="M117.088 59.7804C117.17 60.9872 117.543 62.4188 118.417 63.3424C118.738 63.6098 119.149 63.8524 119.546 63.7934C118.192 62.6914 117.369 61.004 117.088 59.7804Z" fill="#D3AE3B"/>
<path d="M117.922 61.4494C118.396 62.6168 119.596 63.7074 120.83 64.4402C121.06 64.4472 121.129 64.4408 121.338 64.4282C120.454 63.954 119.03 63.2774 117.922 61.4494Z" fill="#FDD406"/>
<path d="M113.863 59.4086C113.521 59.4086 113.414 59.581 113.414 59.581C112.909 61.5304 111.049 64.0446 109.114 64.3432L108.156 66.0012H117.959V63.7316C116.194 63.2574 114.781 61.4056 114.31 59.581C114.31 59.581 114.205 59.4086 113.863 59.4086Z" fill="#B1EB50"/>
<path d="M113.863 59.493C113.706 59.493 113.612 59.5322 113.555 59.5674C113.501 59.6006 113.489 59.6192 113.487 59.6214L113.484 59.6248C113.204 60.6894 112.548 61.7658 111.868 62.6228C111.188 63.4798 109.924 64.3462 109.06 64.438L108.203 65.9166H117.815V63.778C117.104 63.5598 116.455 63.1246 115.905 62.566C115.108 61.7586 114.518 60.6894 114.238 59.6248C114.238 59.6234 114.235 59.6228 114.235 59.6216C114.233 59.6192 114.223 59.597 114.17 59.564C114.114 59.5292 114.019 59.493 113.863 59.493Z" fill="#B1EB50"/>
<path d="M113.603 59.7806C113.48 61.5892 112.473 63.8714 111.335 64.2646C110.964 64.3926 110.315 64.4374 110.09 64.4662C112.079 63.52 113.255 61.2956 113.603 59.7806Z" fill="#FDD406"/>
<path d="M113.862 59.493C113.833 59.493 113.806 59.4972 113.781 59.4998V61.66C113.787 62.128 113.947 62.5046 114.184 62.9482C114.197 62.987 114.211 63.019 114.224 63.0462C114.306 63.2634 114.367 63.3388 114.681 63.577C115.678 64.3344 116.915 64.4476 117.642 64.385C117.414 64.2054 117.171 64.042 116.956 63.8916C117.298 63.8804 117.626 63.8416 117.859 63.79C117.131 63.5766 116.467 63.136 115.905 62.566C115.808 62.4657 115.714 62.362 115.624 62.2552L115.506 62.0928C115.282 61.8128 115.053 61.5034 114.877 61.1902C114.806 61.0661 114.74 60.9398 114.677 60.8114C114.554 60.5559 114.447 60.2928 114.356 60.0238C114.312 59.8922 114.273 59.7591 114.238 59.6248C114.237 59.6236 114.235 59.6228 114.234 59.6214C114.234 59.62 114.223 59.597 114.17 59.564C114.134 59.5429 114.095 59.5269 114.055 59.5166H114.052C113.99 59.5005 113.926 59.4925 113.862 59.493Z" fill="#FDD406"/>
<path d="M114.002 59.7804C114.084 60.9872 114.457 62.4188 115.331 63.3424C115.652 63.6098 116.063 63.8524 116.46 63.7934C115.106 62.6914 114.283 61.004 114.002 59.7804Z" fill="#D3AE3B"/>
<path d="M114.836 61.4494C115.31 62.6168 116.51 63.7074 117.745 64.4402C117.975 64.4472 118.043 64.4408 118.252 64.4282C117.368 63.954 115.944 63.2774 114.836 61.4494Z" fill="#FDD406"/>
<path d="M130.768 64.9384C131.024 64.9493 131.243 64.9586 131.3 64.9384L132.735 67.3384H107.266L108.52 65.1668C108.706 65.1502 108.907 65.125 109.114 65.0991C109.51 65.0493 109.929 64.9968 110.307 64.9968L110.463 65.0002C110.477 64.9999 110.492 64.9993 110.506 64.9986C110.528 64.9977 110.549 64.9968 110.571 64.9968C110.579 64.9968 110.587 64.9967 110.594 64.9967C110.61 64.9965 110.626 64.9964 110.642 64.9968C110.658 64.9964 110.675 64.9965 110.692 64.9967C110.7 64.9967 110.708 64.9968 110.717 64.9968C110.738 64.9968 110.758 64.9977 110.778 64.9986C110.792 64.9992 110.806 64.9999 110.821 65.0002C110.832 64.9999 110.843 64.9996 110.855 64.9992C110.895 64.998 110.935 64.9968 110.976 64.9968C111.341 64.9968 111.677 65.0454 112.009 65.0933C112.332 65.1401 112.652 65.1863 112.991 65.1864C113.331 65.1865 113.65 65.1402 113.974 65.0934C114.306 65.0454 114.642 64.9968 115.006 64.9968L115.162 65.0002C115.177 64.9999 115.191 64.9992 115.205 64.9986C115.225 64.9977 115.246 64.9968 115.267 64.9968C115.275 64.9968 115.283 64.9967 115.291 64.9967C115.307 64.9965 115.322 64.9964 115.338 64.9968C115.353 64.9964 115.368 64.9965 115.382 64.9967C115.39 64.9967 115.398 64.9968 115.406 64.9968L115.517 65.0002C115.524 65 115.53 64.9998 115.536 64.9996C115.582 64.9982 115.626 64.9968 115.672 64.9968C116.037 64.9968 116.373 65.0454 116.704 65.0934C117.027 65.1402 117.346 65.1864 117.684 65.1864C118.022 65.1864 118.341 65.1402 118.664 65.0934C118.996 65.0454 119.331 64.9968 119.696 64.9968C119.826 64.9995 119.956 64.9986 120.087 64.9976C120.179 64.9969 120.272 64.9962 120.365 64.9968C120.73 64.9968 121.066 65.0454 121.398 65.0934C121.722 65.1402 122.042 65.1864 122.38 65.1864C122.719 65.1864 123.039 65.1402 123.363 65.0934C123.695 65.0454 124.031 64.9968 124.395 64.9968C124.524 64.9997 124.653 64.9987 124.783 64.9976C124.876 64.9969 124.968 64.9961 125.061 64.9968C125.426 64.9968 125.762 65.0454 126.094 65.0934C126.418 65.1402 126.737 65.1864 127.076 65.1864C127.415 65.1864 127.735 65.1402 128.058 65.0934C128.39 65.0454 128.727 64.9968 129.091 64.9968C129.219 64.9996 129.347 64.9986 129.477 64.9976C129.57 64.9969 129.664 64.9961 129.757 64.9968L130.013 64.9296C130.216 64.9149 130.51 64.9275 130.768 64.9384Z" fill="white"/>
<path d="M131.409 65.0351C131.407 65.0347 131.404 65.0343 131.401 65.034L131.236 64.7492C131.029 64.7426 130.802 64.7179 130.564 64.692C130.254 64.6581 129.925 64.6222 129.6 64.6222L129.48 64.6236C129.216 64.6314 128.983 64.6698 128.723 64.7126C128.344 64.775 127.908 64.8466 127.24 64.8466C126.714 64.8466 126.408 64.8021 126.101 64.7576C125.752 64.7068 125.402 64.6559 124.724 64.6708C124.071 64.6852 123.626 64.7598 123.251 64.8227C122.942 64.8744 122.681 64.9183 122.39 64.9142C122.18 64.9113 121.928 64.8956 121.655 64.8785L121.654 64.8785C121.088 64.8431 120.433 64.8023 119.888 64.8592C119.8 64.8684 119.711 64.8786 119.62 64.8895L119.602 64.8892L119.583 64.8888C119.213 64.8888 118.872 64.9377 118.536 64.9859C118.244 65.0278 117.955 65.0693 117.653 65.0778C117.351 65.0693 117.062 65.0278 116.769 64.9859C116.433 64.9377 116.093 64.8888 115.723 64.8888C115.582 64.887 115.443 64.8881 115.303 64.8893H115.303C115.144 64.8907 114.986 64.892 114.828 64.8888C114.458 64.8888 114.117 64.9376 113.781 64.9859C113.488 65.0278 113.198 65.0694 112.895 65.0778C112.592 65.0693 112.303 65.0278 112.01 64.9859C111.673 64.9377 111.332 64.8888 110.962 64.8888C110.821 64.887 110.681 64.8881 110.541 64.8893H110.541C110.381 64.8907 110.222 64.892 110.064 64.8888C109.694 64.8888 109.353 64.9377 109.016 64.9859C108.873 65.0064 108.731 65.0269 108.587 65.0434L108.502 65.1914H108.521C108.891 65.1914 109.23 65.1426 109.566 65.0944C109.857 65.0525 110.145 65.0111 110.447 65.0024C110.75 65.011 111.039 65.0524 111.332 65.0943C111.669 65.1426 112.01 65.1914 112.381 65.1914H113.275C113.645 65.1914 113.986 65.1426 114.323 65.0944C114.616 65.0524 114.906 65.011 115.209 65.0024C115.335 65.006 115.459 65.0153 115.583 65.028C115.427 65.0296 115.27 65.0369 115.112 65.0526C114.841 65.0795 114.618 65.1216 114.404 65.1657C114.191 65.1843 113.985 65.2138 113.781 65.2431C113.488 65.285 113.198 65.3266 112.895 65.335C112.592 65.3265 112.303 65.285 112.01 65.2431C111.673 65.1949 111.332 65.146 110.962 65.146C110.821 65.1442 110.681 65.1453 110.541 65.1465H110.541C110.381 65.1479 110.222 65.1492 110.064 65.146C109.694 65.146 109.353 65.1949 109.016 65.2431C108.821 65.2712 108.627 65.299 108.43 65.3169L108.353 65.4486H108.521C108.551 65.4486 108.582 65.4483 108.612 65.4476C108.515 65.4664 108.421 65.484 108.333 65.4992L108.283 65.586C108.28 65.5862 108.277 65.5864 108.274 65.5865L108.205 65.7064H108.214L108.164 65.792C108.298 65.7765 108.504 65.7486 108.739 65.7168C108.823 65.7055 108.91 65.6937 108.999 65.6818C109.192 65.6631 109.379 65.6361 109.566 65.6094L109.609 65.6032C109.901 65.5678 110.164 65.5408 110.325 65.5366C110.437 65.5337 110.617 65.5377 110.84 65.545C111.005 65.5625 111.168 65.5859 111.332 65.6093C111.669 65.6576 112.01 65.7064 112.381 65.7064H113.275C113.645 65.7064 113.986 65.6576 114.323 65.6094C114.616 65.5674 114.906 65.526 115.209 65.5174C115.511 65.526 115.802 65.5674 116.096 65.6094C116.434 65.6576 116.776 65.7064 117.146 65.7064H118.04C118.41 65.7064 118.75 65.6576 119.087 65.6093C119.379 65.5674 119.668 65.526 119.97 65.5174C120.273 65.526 120.562 65.5674 120.854 65.6094C121.19 65.6576 121.53 65.7064 121.9 65.7064H122.798C123.168 65.7064 123.509 65.6576 123.846 65.6094C124.139 65.5675 124.429 65.526 124.732 65.5174C125.034 65.526 125.324 65.5675 125.617 65.6094C125.954 65.6576 126.295 65.7064 126.666 65.7064H127.56C127.929 65.7064 128.27 65.6576 128.606 65.6094C128.898 65.5674 129.187 65.526 129.49 65.5174C129.792 65.526 130.082 65.5674 130.375 65.6094C130.712 65.6576 131.053 65.7064 131.423 65.7064H131.797L131.725 65.582C131.497 65.565 131.274 65.5331 131.05 65.5009C130.714 65.4526 130.373 65.4038 130.003 65.4038C129.862 65.402 129.722 65.4031 129.582 65.4043C129.423 65.4057 129.264 65.407 129.105 65.4038C128.735 65.4038 128.395 65.4527 128.059 65.5009C127.767 65.5428 127.478 65.5843 127.176 65.5928C126.872 65.5844 126.583 65.5428 126.29 65.5009C125.953 65.4526 125.612 65.4038 125.242 65.4038C125.103 65.402 124.963 65.4031 124.823 65.4043C124.664 65.4057 124.505 65.407 124.348 65.4038C123.978 65.4038 123.636 65.4527 123.299 65.5009C123.007 65.5428 122.717 65.5843 122.414 65.5928C122.112 65.5843 121.822 65.5428 121.529 65.5009C121.192 65.4527 120.851 65.4038 120.481 65.4038C120.341 65.402 120.201 65.4031 120.061 65.4043H120.06C119.901 65.4057 119.742 65.407 119.583 65.4038C119.213 65.4038 118.872 65.4527 118.536 65.5009C118.244 65.5428 117.955 65.5843 117.653 65.5928C117.351 65.5843 117.062 65.5428 116.769 65.5009C116.433 65.4527 116.093 65.4038 115.723 65.4038C115.582 65.402 115.442 65.4031 115.303 65.4043C115.144 65.4057 114.986 65.407 114.828 65.4038L114.814 65.4039C115 65.3818 115.222 65.3672 115.515 65.3672C115.855 65.3672 116.157 65.3831 116.457 65.4007C116.679 65.4282 116.907 65.4486 117.146 65.4486H118.04C118.41 65.4486 118.75 65.3998 119.087 65.3515C119.379 65.3096 119.668 65.2682 119.97 65.2596C120.273 65.2682 120.562 65.3096 120.854 65.3516C121.19 65.3998 121.53 65.4486 121.9 65.4486H122.798C123.168 65.4486 123.509 65.3998 123.846 65.3516C124.139 65.3097 124.429 65.2682 124.732 65.2596C125.034 65.2682 125.324 65.3097 125.617 65.3516C125.954 65.3998 126.295 65.4486 126.666 65.4486H127.56C127.929 65.4486 128.27 65.3998 128.606 65.3516C128.898 65.3096 129.187 65.2682 129.49 65.2596C129.792 65.2682 130.082 65.3096 130.375 65.3516C130.712 65.3998 131.053 65.4486 131.423 65.4486H131.648L131.568 65.3103C131.394 65.2925 131.223 65.2679 131.05 65.2431C130.714 65.1948 130.373 65.146 130.003 65.146C129.862 65.1442 129.722 65.1453 129.582 65.1465C129.423 65.1479 129.264 65.1492 129.105 65.146C128.735 65.146 128.395 65.1949 128.059 65.2431C127.767 65.285 127.478 65.3265 127.176 65.335C126.872 65.3266 126.583 65.285 126.29 65.2431C125.953 65.1948 125.612 65.146 125.242 65.146C125.103 65.1442 124.963 65.1453 124.823 65.1465C124.664 65.1479 124.505 65.1492 124.348 65.146C123.978 65.146 123.636 65.1949 123.299 65.2431C123.007 65.285 122.717 65.3265 122.414 65.335C122.112 65.3265 121.822 65.285 121.529 65.2431C121.192 65.1949 120.851 65.146 120.481 65.146C120.388 65.1448 120.294 65.1449 120.201 65.1455C120.657 65.1215 121.227 65.1597 121.739 65.1941C121.924 65.2066 122.103 65.2185 122.265 65.2268C122.581 65.2433 122.844 65.2162 123.107 65.1807C123.362 65.1637 123.605 65.1289 123.846 65.0944L123.884 65.089C123.937 65.0855 123.992 65.0827 124.048 65.0808L124.943 65.0512C125.077 65.0468 125.207 65.0488 125.334 65.055C125.428 65.0673 125.523 65.0808 125.617 65.0944C125.954 65.1426 126.295 65.1914 126.666 65.1914H127.56C127.929 65.1914 128.27 65.1426 128.606 65.0943C128.898 65.0524 129.187 65.011 129.49 65.0024C129.792 65.011 130.082 65.0524 130.375 65.0944C130.712 65.1426 131.053 65.1914 131.423 65.1914H131.5L131.409 65.0351Z" fill="#021455"/>
<path d="M131.879 65.8483C131.596 65.8366 131.324 65.7976 131.05 65.7583C130.714 65.71 130.373 65.6612 130.003 65.6612C129.862 65.6593 129.722 65.6605 129.582 65.6617C129.423 65.6631 129.264 65.6644 129.105 65.6612C128.735 65.6612 128.395 65.7101 128.059 65.7583C127.767 65.8002 127.478 65.8417 127.176 65.8502C126.872 65.8417 126.583 65.8002 126.29 65.7583C125.953 65.71 125.612 65.6612 125.242 65.6612C125.103 65.6593 124.963 65.6605 124.823 65.6617C124.664 65.6631 124.505 65.6644 124.348 65.6612C123.978 65.6612 123.636 65.7101 123.299 65.7583C123.007 65.8002 122.717 65.8417 122.414 65.8502C122.112 65.8417 121.822 65.8002 121.529 65.7583C121.192 65.71 120.851 65.6612 120.481 65.6612C120.341 65.6593 120.201 65.6605 120.061 65.6617H120.06C119.901 65.6631 119.742 65.6644 119.583 65.6612C119.213 65.6612 118.872 65.7101 118.536 65.7583C118.244 65.8002 117.955 65.8417 117.653 65.8502C117.351 65.8417 117.062 65.8002 116.769 65.7583C116.433 65.71 116.093 65.6612 115.723 65.6612C115.582 65.6593 115.442 65.6605 115.303 65.6617C115.144 65.6631 114.986 65.6644 114.828 65.6612C114.458 65.6612 114.117 65.71 113.781 65.7582C113.488 65.8002 113.198 65.8417 112.895 65.8502C112.592 65.8417 112.303 65.8002 112.01 65.7583C111.673 65.7101 111.332 65.6612 110.962 65.6612C110.821 65.6593 110.681 65.6605 110.541 65.6617H110.541C110.381 65.6631 110.222 65.6644 110.064 65.6612C109.694 65.6612 109.353 65.7101 109.016 65.7583C108.724 65.8002 108.435 65.8417 108.133 65.8502C108.129 65.8501 108.126 65.85 108.122 65.8499L108.056 65.9638H108.521C108.891 65.9638 109.23 65.915 109.566 65.8668C109.857 65.8249 110.145 65.7835 110.447 65.7748C110.75 65.7834 111.039 65.8248 111.332 65.8667C111.669 65.915 112.01 65.9638 112.381 65.9638H113.275C113.645 65.9638 113.986 65.915 114.323 65.8667C114.616 65.8248 114.906 65.7834 115.209 65.7748C115.511 65.7834 115.802 65.8248 116.096 65.8667C116.434 65.915 116.776 65.9638 117.146 65.9638H118.04C118.41 65.9638 118.75 65.915 119.087 65.8667C119.379 65.8248 119.668 65.7834 119.97 65.7748C120.273 65.7834 120.562 65.8248 120.854 65.8667C121.19 65.915 121.53 65.9638 121.9 65.9638H122.798C123.168 65.9638 123.509 65.915 123.846 65.8668C124.139 65.8249 124.429 65.7834 124.732 65.7748C125.034 65.7834 125.324 65.8248 125.617 65.8668C125.954 65.915 126.295 65.9638 126.666 65.9638H127.56C127.929 65.9638 128.27 65.915 128.606 65.8667C128.898 65.8248 129.187 65.7834 129.49 65.7748C129.792 65.7834 130.082 65.8248 130.375 65.8667C130.712 65.915 131.053 65.9638 131.423 65.9638H131.946L131.879 65.8483Z" fill="#021455"/>
<path d="M132.024 66.0989L131.934 66.1074C131.631 66.0989 131.342 66.0574 131.05 66.0155C130.714 65.9672 130.373 65.9184 130.003 65.9184C129.862 65.9165 129.722 65.9177 129.582 65.9189C129.423 65.9203 129.264 65.9216 129.105 65.9184C128.735 65.9184 128.395 65.9673 128.059 66.0155C127.767 66.0574 127.478 66.0989 127.176 66.1074C126.872 66.0989 126.583 66.0574 126.29 66.0154C125.953 65.9672 125.612 65.9184 125.242 65.9184C125.103 65.9165 124.963 65.9177 124.823 65.9189C124.664 65.9203 124.505 65.9216 124.348 65.9184C123.978 65.9184 123.636 65.9673 123.299 66.0155C123.007 66.0574 122.717 66.0989 122.414 66.1074C122.112 66.0989 121.822 66.0574 121.529 66.0155C121.192 65.9672 120.851 65.9184 120.481 65.9184C120.341 65.9165 120.201 65.9177 120.061 65.9189H120.06C119.901 65.9203 119.742 65.9216 119.583 65.9184C119.213 65.9184 118.872 65.9673 118.536 66.0155C118.244 66.0574 117.955 66.0989 117.653 66.1074C117.351 66.0989 117.062 66.0574 116.769 66.0155C116.433 65.9672 116.093 65.9184 115.723 65.9184C115.582 65.9165 115.442 65.9177 115.303 65.9189C115.144 65.9203 114.986 65.9216 114.828 65.9184C114.458 65.9184 114.117 65.9672 113.781 66.0154C113.488 66.0574 113.198 66.0989 112.895 66.1074C112.592 66.0989 112.303 66.0574 112.01 66.0155C111.673 65.9673 111.332 65.9184 110.962 65.9184C110.821 65.9165 110.681 65.9177 110.541 65.9189H110.541C110.381 65.9203 110.222 65.9216 110.064 65.9184C109.694 65.9184 109.353 65.9673 109.016 66.0155C108.724 66.0574 108.435 66.0989 108.133 66.1074C108.081 66.106 108.029 66.1035 107.977 66.1001L107.908 66.221H108.521C108.891 66.221 109.23 66.1722 109.566 66.1239C109.857 66.0821 110.145 66.0407 110.447 66.032C110.75 66.0406 111.039 66.082 111.332 66.1239C111.669 66.1722 112.01 66.221 112.381 66.221H113.275C113.645 66.221 113.986 66.1722 114.323 66.124C114.616 66.082 114.906 66.0406 115.209 66.032C115.511 66.0406 115.802 66.082 116.096 66.124C116.434 66.1722 116.776 66.221 117.146 66.221H118.04C118.41 66.221 118.75 66.1722 119.087 66.1239C119.379 66.082 119.668 66.0406 119.97 66.032C120.273 66.0406 120.562 66.082 120.854 66.124C121.19 66.1722 121.53 66.221 121.9 66.221H122.798C123.168 66.221 123.509 66.1722 123.846 66.124C124.139 66.0821 124.429 66.0406 124.732 66.032C125.034 66.0406 125.324 66.082 125.617 66.124C125.954 66.1722 126.295 66.221 126.666 66.221H127.56C127.929 66.221 128.27 66.1722 128.606 66.1239C128.898 66.082 129.187 66.0406 129.49 66.032C129.792 66.0406 130.082 66.082 130.375 66.1239C130.712 66.1722 131.053 66.221 131.423 66.221H132.094L132.024 66.0989Z" fill="#021455"/>
<path d="M132.165 66.3434L131.934 66.3652C131.631 66.3567 131.342 66.3152 131.05 66.2733C130.714 66.225 130.373 66.1762 130.003 66.1762C129.862 66.1743 129.722 66.1755 129.582 66.1767C129.423 66.1781 129.264 66.1794 129.105 66.1762C128.735 66.1762 128.395 66.2251 128.059 66.2733C127.767 66.3152 127.478 66.3567 127.176 66.3652C126.872 66.3567 126.583 66.3152 126.29 66.2733C125.953 66.225 125.612 66.1762 125.242 66.1762C125.103 66.1743 124.963 66.1755 124.823 66.1767C124.664 66.1781 124.505 66.1794 124.348 66.1762C123.978 66.1762 123.636 66.2251 123.299 66.2733C123.007 66.3152 122.717 66.3567 122.414 66.3652C122.112 66.3567 121.822 66.3152 121.529 66.2733C121.192 66.2251 120.851 66.1762 120.481 66.1762C120.341 66.1743 120.201 66.1755 120.061 66.1767H120.06C119.901 66.1781 119.742 66.1794 119.583 66.1762C119.213 66.1762 118.872 66.2251 118.536 66.2733C118.244 66.3152 117.955 66.3567 117.653 66.3652C117.351 66.3567 117.062 66.3152 116.769 66.2733C116.433 66.225 116.093 66.1762 115.723 66.1762C115.582 66.1743 115.443 66.1755 115.303 66.1767C115.145 66.1781 114.986 66.1794 114.828 66.1762C114.458 66.1762 114.117 66.225 113.781 66.2732C113.488 66.3152 113.198 66.3567 112.895 66.3652C112.592 66.3567 112.303 66.3152 112.01 66.2733C111.673 66.2251 111.332 66.1762 110.962 66.1762C110.821 66.1743 110.681 66.1755 110.541 66.1767H110.541C110.381 66.1781 110.222 66.1794 110.064 66.1762C109.694 66.1762 109.353 66.2251 109.016 66.2733C108.724 66.3152 108.435 66.3567 108.133 66.3652C108.032 66.3625 107.933 66.3557 107.835 66.3463L107.759 66.4788H108.521C108.891 66.4788 109.23 66.43 109.566 66.3818C109.857 66.3399 110.145 66.2985 110.447 66.2898C110.75 66.2984 111.039 66.3398 111.332 66.3817C111.669 66.43 112.01 66.4788 112.381 66.4788H113.275C113.645 66.4788 113.986 66.43 114.323 66.3818C114.616 66.3398 114.906 66.2984 115.209 66.2898C115.511 66.2984 115.802 66.3398 116.096 66.3818C116.434 66.43 116.776 66.4788 117.146 66.4788H118.04C118.41 66.4788 118.75 66.43 119.087 66.3817C119.379 66.3398 119.668 66.2984 119.97 66.2898C120.273 66.2984 120.562 66.3398 120.854 66.3818C121.19 66.43 121.53 66.4788 121.9 66.4788H122.798C123.168 66.4788 123.509 66.43 123.846 66.3818C124.139 66.3399 124.429 66.2984 124.732 66.2898C125.034 66.2984 125.324 66.3398 125.617 66.3818C125.954 66.43 126.295 66.4788 126.666 66.4788H127.56C127.929 66.4788 128.27 66.43 128.606 66.3817C128.898 66.3398 129.187 66.2984 129.49 66.2898C129.792 66.2984 130.082 66.3398 130.375 66.3817C130.712 66.43 131.053 66.4788 131.423 66.4788H132.243L132.165 66.3434Z" fill="#021455"/>
<path d="M132.306 66.5884L131.934 66.6236C131.631 66.6151 131.342 66.5736 131.05 66.5317C130.714 66.4834 130.373 66.4346 130.003 66.4346C129.862 66.4328 129.722 66.4339 129.582 66.4351C129.423 66.4365 129.264 66.4378 129.105 66.4346C128.735 66.4346 128.395 66.4835 128.059 66.5317C127.767 66.5736 127.478 66.6151 127.176 66.6236C126.872 66.6152 126.583 66.5736 126.29 66.5317C125.953 66.4834 125.612 66.4346 125.242 66.4346C125.103 66.4328 124.963 66.4339 124.823 66.4351C124.664 66.4365 124.505 66.4378 124.348 66.4346C123.978 66.4346 123.636 66.4835 123.299 66.5317C123.007 66.5736 122.717 66.6151 122.414 66.6236C122.112 66.6151 121.822 66.5736 121.529 66.5317C121.192 66.4835 120.851 66.4346 120.481 66.4346C120.341 66.4328 120.201 66.4339 120.061 66.4351H120.06C119.901 66.4365 119.742 66.4378 119.583 66.4346C119.213 66.4346 118.872 66.4835 118.536 66.5317C118.244 66.5736 117.955 66.6151 117.653 66.6236C117.351 66.6151 117.062 66.5736 116.769 66.5317C116.433 66.4835 116.093 66.4346 115.723 66.4346C115.582 66.4328 115.442 66.4339 115.303 66.4351C115.144 66.4365 114.986 66.4378 114.828 66.4346C114.458 66.4346 114.117 66.4834 113.781 66.5317C113.488 66.5736 113.198 66.6152 112.895 66.6236C112.592 66.6151 112.303 66.5736 112.01 66.5317C111.673 66.4835 111.332 66.4346 110.962 66.4346C110.821 66.4328 110.681 66.4339 110.541 66.4351H110.541C110.381 66.4365 110.222 66.4378 110.064 66.4346C109.694 66.4346 109.353 66.4835 109.016 66.5317C108.724 66.5736 108.435 66.6151 108.133 66.6236C107.984 66.6196 107.839 66.6066 107.695 66.5897L107.61 66.7366L107.626 66.7372H108.521C108.891 66.7372 109.23 66.6884 109.566 66.6402C109.857 66.5983 110.145 66.5569 110.447 66.5482C110.75 66.5568 111.039 66.5982 111.332 66.6401C111.669 66.6884 112.01 66.7372 112.381 66.7372H113.275C113.645 66.7372 113.986 66.6884 114.323 66.6402C114.616 66.5982 114.906 66.5568 115.209 66.5482C115.511 66.5568 115.802 66.5982 116.096 66.6402C116.434 66.6884 116.776 66.7372 117.146 66.7372H118.04C118.41 66.7372 118.75 66.6884 119.087 66.6401C119.379 66.5982 119.668 66.5568 119.97 66.5482C120.273 66.5568 120.562 66.5982 120.854 66.6402C121.19 66.6884 121.53 66.7372 121.9 66.7372H122.798C123.168 66.7372 123.509 66.6884 123.846 66.6402C124.139 66.5983 124.429 66.5568 124.732 66.5482C125.034 66.5568 125.324 66.5983 125.617 66.6402C125.954 66.6884 126.295 66.7372 126.666 66.7372H127.56C127.929 66.7372 128.27 66.6884 128.606 66.6402C128.898 66.5982 129.187 66.5568 129.49 66.5482C129.792 66.5568 130.082 66.5982 130.375 66.6402C130.712 66.6884 131.053 66.7372 131.423 66.7372H132.318L132.39 66.7341L132.306 66.5884Z" fill="#021455"/>
<path d="M132.447 66.8323L131.934 66.8808C131.631 66.8723 131.342 66.8308 131.05 66.7889C130.714 66.7406 130.373 66.6918 130.003 66.6918C129.862 66.69 129.722 66.6911 129.582 66.6923C129.423 66.6937 129.264 66.695 129.105 66.6918C128.735 66.6918 128.395 66.7407 128.059 66.7889C127.767 66.8308 127.478 66.8723 127.176 66.8808C126.872 66.8724 126.583 66.8308 126.29 66.7889C125.953 66.7406 125.612 66.6918 125.242 66.6918C125.103 66.69 124.963 66.6911 124.823 66.6923C124.664 66.6937 124.505 66.695 124.348 66.6918C123.978 66.6918 123.636 66.7407 123.299 66.7889C123.007 66.8308 122.717 66.8723 122.414 66.8808C122.112 66.8723 121.822 66.8308 121.529 66.7889C121.192 66.7407 120.851 66.6918 120.481 66.6918C120.341 66.69 120.201 66.6911 120.061 66.6923H120.06C119.901 66.6937 119.742 66.695 119.583 66.6918C119.213 66.6918 118.872 66.7407 118.536 66.7889C118.244 66.8308 117.955 66.8723 117.653 66.8808C117.351 66.8723 117.062 66.8308 116.769 66.7889C116.433 66.7407 116.093 66.6918 115.723 66.6918C115.582 66.69 115.443 66.6911 115.303 66.6923H115.303C115.144 66.6937 114.986 66.695 114.828 66.6918C114.458 66.6918 114.117 66.7406 113.781 66.7889C113.488 66.8308 113.198 66.8724 112.895 66.8808C112.592 66.8723 112.303 66.8308 112.01 66.7889C111.673 66.7407 111.332 66.6918 110.962 66.6918C110.821 66.69 110.681 66.6911 110.541 66.6923H110.541C110.381 66.6937 110.222 66.695 110.064 66.6918C109.694 66.6918 109.353 66.7407 109.016 66.7889C108.724 66.8308 108.435 66.8723 108.133 66.8808C107.936 66.8755 107.746 66.8546 107.556 66.8295L107.465 66.9876L107.626 66.9944H108.521C108.891 66.9944 109.23 66.9456 109.566 66.8974C109.857 66.8555 110.145 66.8141 110.447 66.8054C110.75 66.814 111.039 66.8554 111.332 66.8973C111.669 66.9456 112.01 66.9944 112.381 66.9944H113.275C113.645 66.9944 113.986 66.9456 114.323 66.8974C114.616 66.8554 114.906 66.814 115.209 66.8054C115.511 66.814 115.802 66.8554 116.096 66.8974C116.434 66.9456 116.776 66.9944 117.146 66.9944H118.04C118.41 66.9944 118.75 66.9456 119.087 66.8973C119.379 66.8554 119.668 66.814 119.97 66.8054C120.273 66.814 120.562 66.8554 120.854 66.8974C121.19 66.9456 121.53 66.9944 121.9 66.9944H122.798C123.168 66.9944 123.509 66.9456 123.846 66.8974C124.139 66.8555 124.429 66.814 124.732 66.8054C125.034 66.814 125.324 66.8555 125.617 66.8974C125.954 66.9456 126.295 66.9944 126.666 66.9944H127.56C127.929 66.9944 128.27 66.9456 128.606 66.8974C128.898 66.8554 129.187 66.814 129.49 66.8054C129.792 66.814 130.082 66.8554 130.375 66.8974C130.712 66.9456 131.053 66.9944 131.423 66.9944H132.318L132.535 66.985L132.447 66.8323Z" fill="#021455"/>
<path d="M109.016 67.0467C109.353 66.9985 109.694 66.9496 110.064 66.9496C110.222 66.9528 110.381 66.9515 110.541 66.9501H110.541C110.681 66.9489 110.821 66.9478 110.962 66.9496C111.332 66.9496 111.673 66.9985 112.01 67.0467C112.303 67.0886 112.592 67.1301 112.895 67.1386C113.198 67.1302 113.488 67.0886 113.781 67.0467C114.117 66.9984 114.458 66.9496 114.828 66.9496C114.986 66.9528 115.144 66.9515 115.303 66.9501H115.303C115.442 66.9489 115.582 66.9478 115.723 66.9496C116.093 66.9496 116.433 66.9985 116.769 67.0467C117.062 67.0886 117.351 67.1301 117.653 67.1386C117.955 67.1301 118.244 67.0886 118.536 67.0467C118.872 66.9985 119.213 66.9496 119.583 66.9496C119.742 66.9528 119.901 66.9515 120.06 66.9501H120.061C120.201 66.9489 120.341 66.9478 120.481 66.9496C120.851 66.9496 121.192 66.9985 121.529 67.0467C121.822 67.0886 122.112 67.1301 122.414 67.1386C122.717 67.1301 123.007 67.0886 123.299 67.0467C123.636 66.9985 123.978 66.9496 124.348 66.9496C124.505 66.9528 124.664 66.9515 124.823 66.9501C124.963 66.9489 125.103 66.9478 125.242 66.9496C125.612 66.9496 125.953 66.9984 126.29 67.0467C126.583 67.0886 126.872 67.1302 127.176 67.1386C127.478 67.1301 127.767 67.0886 128.059 67.0467C128.395 66.9985 128.735 66.9496 129.105 66.9496C129.264 66.9528 129.423 66.9515 129.582 66.9501C129.722 66.9489 129.862 66.9478 130.003 66.9496C130.373 66.9496 130.714 66.9984 131.05 67.0467C131.342 67.0886 131.631 67.1301 131.934 67.1386L132.581 67.0774L132.673 67.2368L132.318 67.2522H131.423C131.053 67.2522 130.712 67.2034 130.375 67.1552C130.082 67.1132 129.792 67.0718 129.49 67.0632C129.187 67.0718 128.898 67.1132 128.606 67.1552C128.27 67.2034 127.929 67.2522 127.56 67.2522H126.666C126.295 67.2522 125.954 67.2034 125.617 67.1552C125.324 67.1133 125.034 67.0718 124.732 67.0632C124.429 67.0718 124.139 67.1133 123.846 67.1552C123.509 67.2034 123.168 67.2522 122.798 67.2522H121.9C121.53 67.2522 121.19 67.2034 120.854 67.1552C120.562 67.1132 120.273 67.0718 119.97 67.0632C119.668 67.0718 119.379 67.1132 119.087 67.1551C118.75 67.2034 118.41 67.2522 118.04 67.2522H117.146C116.776 67.2522 116.434 67.2034 116.096 67.1552C115.802 67.1132 115.511 67.0718 115.209 67.0632C114.906 67.0718 114.616 67.1132 114.323 67.1552C113.986 67.2034 113.645 67.2522 113.275 67.2522H112.381C112.01 67.2522 111.669 67.2034 111.332 67.1551C111.039 67.1132 110.75 67.0718 110.447 67.0632C110.145 67.0719 109.857 67.1133 109.566 67.1552C109.23 67.2034 108.891 67.2522 108.521 67.2522H107.626L107.328 67.2396L107.426 67.0696C107.66 67.102 107.891 67.132 108.133 67.1386C108.435 67.1301 108.724 67.0886 109.016 67.0467Z" fill="#021455"/>
<path d="M108.283 65.7792L108.769 64.941L110.598 64.711L130.847 64.2658C130.849 64.2657 130.852 64.2656 130.855 64.2654C130.858 64.2652 130.862 64.265 130.865 64.265L131.233 64.9156C131.065 64.9116 130.916 64.9031 130.768 64.8947C130.429 64.8754 130.099 64.8566 129.572 64.8938C129.289 64.9138 129.01 64.9565 128.728 64.9998C128.254 65.0725 127.77 65.1467 127.239 65.118C126.712 65.118 126.406 65.0736 126.1 65.0291C125.75 64.9784 125.4 64.9276 124.722 64.9426C124.125 64.9557 123.789 65.0255 123.479 65.0899C123.172 65.1537 122.891 65.2122 122.407 65.2046C122.033 65.1988 121.694 65.1741 121.372 65.1507C120.855 65.1131 120.383 65.0788 119.886 65.1308C119.564 65.1645 119.218 65.2192 118.878 65.2729C118.366 65.3538 117.869 65.4324 117.491 65.4332C117.177 65.4318 116.862 65.4006 116.544 65.3693C116.074 65.3227 115.598 65.2757 115.11 65.3242C114.789 65.3561 114.535 65.4092 114.284 65.4617C113.896 65.5429 113.513 65.6229 112.898 65.6212C112.447 65.6199 111.993 65.5707 111.558 65.5237C111.153 65.4798 110.764 65.4377 110.41 65.438C109.915 65.4384 109.348 65.5597 108.858 65.6645C108.649 65.7093 108.453 65.7511 108.283 65.7792Z" fill="#B1EB50"/>
<path d="M130.783 64.9843L130.014 64.9296C130.216 64.915 130.51 64.9274 130.768 64.9383C131.024 64.9491 131.243 64.9583 131.3 64.9383L131.374 65.0345C131.177 65.0209 130.98 65.0042 130.783 64.9843Z" fill="white"/>
<path d="M120 44.9748L113.572 56.112L107 67.4918L119.86 67.4904L133 67.4918L126.569 56.3552L120 44.9748ZM120 45.5752L126.31 56.5056L132.48 67.1912L119.86 67.1904L107.519 67.1912L113.831 56.2622L120 45.5752Z" fill="#D3AE3B"/>
</g>
<defs>
<clipPath id="clip0_307_33304">
<rect width="240" height="120" fill="white"/>
</clipPath>
</defs>
</svg>
