<svg width="240" height="120" viewBox="0 0 240 120" fill="none" xmlns="http://www.w3.org/2000/svg">
<path d="M0 0H240V120H0V0Z" fill="#0F3296"/>
<path d="M0 40H240V80H0V40Z" fill="white"/>
<path d="M102 59.8656L103.996 59.999L104.015 59.7074L103.23 59.655L103.291 58.693L104.123 58.0896L104.148 57.72L103.271 58.3572C103.241 58.1496 103.126 57.9358 102.918 57.8636C102.735 57.7976 102.511 57.786 102.353 57.9166C102.152 58.0642 102.116 58.3282 102.09 58.558L102 59.8656ZM102.304 59.5932L102.374 58.6104C102.399 58.4488 102.428 58.262 102.57 58.159C102.698 58.0742 102.887 58.1374 102.939 58.2818C103.044 58.5312 102.997 58.8062 102.984 59.0678L102.946 59.636L102.304 59.5932ZM102.26 56.801L104.207 57.2558L104.65 55.3602L104.373 55.2954L103.997 56.908L103.404 56.7696L103.743 55.3164L103.468 55.2522L103.129 56.7054L102.604 56.5828L102.966 55.0308L102.688 54.9658L102.26 56.801ZM102.961 54.1856L104.85 54.8426L104.946 54.5666L104.203 54.3082L104.496 53.4514C104.56 53.216 104.609 52.941 104.471 52.722C104.358 52.5602 104.158 52.4566 103.961 52.4628C103.743 52.472 103.566 52.6322 103.469 52.8178C103.326 53.0862 103.246 53.3814 103.142 53.6658L102.961 54.1856ZM103.326 54.0032L103.628 53.1524C103.696 53.0026 103.779 52.825 103.952 52.7774C104.093 52.7448 104.242 52.8538 104.254 52.999C104.289 53.2662 104.172 53.5184 104.09 53.7664L103.934 54.2146L103.326 54.0032ZM104.005 51.7664L105.072 52.3878C105.274 52.4964 105.53 52.5586 105.742 52.437C106.03 52.2774 106.21 51.9828 106.352 51.6954C106.464 51.4534 106.544 51.1528 106.402 50.9054C106.249 50.6584 105.971 50.5448 105.734 50.3974L105.042 49.993L104.895 50.2438L105.913 50.841C106.074 50.9392 106.208 51.117 106.18 51.3148C106.148 51.5504 106.013 51.757 105.879 51.9476C105.768 52.1016 105.583 52.2262 105.385 52.1846C105.179 52.1452 105.012 52.0106 104.831 51.9132L104.151 51.5154L104.005 51.7664ZM105.445 49.4122L107.034 50.6276L107.774 49.6628C107.916 49.4584 108.048 49.1928 107.951 48.942C107.863 48.7424 107.658 48.588 107.438 48.578C107.338 48.564 107.209 48.6394 107.155 48.6726C107.211 48.4594 107.037 48.259 106.84 48.2026C106.604 48.1186 106.364 48.2702 106.208 48.4382C106.024 48.6384 105.87 48.864 105.702 49.0772L105.445 49.4122ZM105.848 49.3526L106.405 48.6374C106.495 48.5366 106.641 48.4224 106.781 48.4964C106.909 48.5518 106.941 48.7134 106.88 48.8296C106.783 49.0376 106.622 49.2062 106.489 49.3906L106.271 49.6758L105.848 49.3526ZM106.495 49.8478L107.073 49.1072C107.177 48.9984 107.308 48.8614 107.473 48.8928C107.614 48.9252 107.716 49.078 107.668 49.22C107.588 49.4818 107.392 49.6822 107.235 49.8992L106.987 50.2236L106.495 49.8478ZM107.246 47.2908L108.62 48.7446L109.796 47.633L109.601 47.4264L108.66 48.3156L108.636 48.3384L108.618 48.32L107.457 47.0912L107.246 47.2908ZM109.007 45.7502L110.226 47.3358L110.464 47.1528L109.245 45.5674L109.007 45.7502ZM110.798 44.5338C110.601 44.6568 110.441 44.8008 110.319 44.969C110.196 45.1372 110.13 45.311 110.121 45.4934C110.111 45.6758 110.16 45.8522 110.267 46.0248C110.364 46.1807 110.5 46.308 110.663 46.3936C110.827 46.4814 111.004 46.5138 111.198 46.4922C111.392 46.4706 111.609 46.3852 111.852 46.2338C112.085 46.0886 112.25 45.9214 112.352 45.729C112.449 45.5485 112.478 45.3395 112.435 45.1394L112.158 45.248C112.231 45.6476 111.973 45.8396 111.684 46.0228C111.233 46.2976 110.792 46.2778 110.523 45.8648C110.243 45.3994 110.549 45.0148 110.933 44.7648C111.206 44.5948 111.475 44.4784 111.731 44.6412L111.947 44.4484C111.798 44.3456 111.629 44.298 111.436 44.3084C111.234 44.3196 111.022 44.3942 110.798 44.5338ZM113.162 43.3544L112.952 45.5956L113.264 45.47L113.327 44.7752L113.328 44.7746L114.339 44.3666L114.867 44.8234L115.178 44.698L113.473 43.2288L113.161 43.3544H113.162ZM113.435 43.5842L114.1 44.1596L113.356 44.46L113.435 43.5842ZM117.545 42.118L117.67 44.114L118.753 44.043C119.036 44.0104 119.341 43.9368 119.534 43.711C119.785 43.4336 119.82 43.0188 119.711 42.6734C119.619 42.3694 119.345 42.1392 119.036 42.0808C118.731 42.0222 118.42 42.0686 118.113 42.0824L117.545 42.118ZM117.853 42.3834L118.715 42.3386C118.879 42.3329 119.04 42.3823 119.173 42.4788C119.373 42.6156 119.49 42.862 119.464 43.1038C119.45 43.3818 119.245 43.6376 118.975 43.7078C118.821 43.7478 118.66 43.7592 118.502 43.7766L117.942 43.8116L117.853 42.3836L117.853 42.3834ZM120.333 41.9998L120.219 43.9966L122.162 44.1076L122.178 43.824L120.525 43.7296L120.56 43.1216L122.05 43.2068L122.066 42.9246L120.576 42.8394L120.607 42.3016L122.198 42.3924L122.214 42.1074L120.333 41.9998ZM125.555 42.833L124.832 44.6976L125.089 44.7976L125.662 43.319L125.692 43.2422L125.724 43.3276L126.414 45.3112L126.75 45.4418L127.474 43.5772L127.216 43.4772L126.643 44.955L126.613 45.0304L126.582 44.946L125.891 42.9634L125.555 42.833ZM128.242 43.9872L127.332 45.7686L127.065 45.6322L127.974 43.8508L128.242 43.9872ZM129.75 44.871C129.556 44.743 129.359 44.658 129.155 44.6168C128.951 44.5756 128.765 44.5884 128.596 44.6558C128.426 44.7232 128.286 44.841 128.174 45.0108C128.072 45.1635 128.013 45.3406 128.003 45.5238C127.992 45.7094 128.036 45.8838 128.137 46.0512C128.238 46.2186 128.406 46.3802 128.645 46.5376C128.874 46.689 129.095 46.7692 129.312 46.7816C129.521 46.7932 129.71 46.7364 129.883 46.6112L129.669 46.4052C129.336 46.6378 129.054 46.4836 128.767 46.2976C128.329 46.0016 128.163 45.5934 128.426 45.176C128.732 44.7276 129.209 44.845 129.596 45.09C129.865 45.267 130.083 45.4626 130.042 45.7632L130.307 45.8794C130.338 45.701 130.311 45.5274 130.221 45.3566C130.126 45.1774 129.971 45.0164 129.75 44.871ZM131.654 46.3074L129.564 47.1414L129.817 47.3614L130.465 47.1012L130.466 47.1022L131.289 47.8172L131.123 48.4946L131.376 48.7148L131.908 46.5276L131.654 46.3076V46.3074ZM131.574 46.6556L131.365 47.5096L130.758 46.9834L131.574 46.6556ZM133.165 47.697L131.622 48.9696L131.808 49.195L132.415 48.6944L133.031 49.4358L132.839 50.4458L133.075 50.7318L133.276 49.6658C133.449 49.8074 133.701 49.8786 133.908 49.7664C134.086 49.6824 134.242 49.5208 134.251 49.315C134.273 49.0392 134.076 48.8158 133.919 48.6112L133.165 47.697ZM133.131 48.1038L133.78 48.9034C133.875 49.045 133.994 49.2438 133.885 49.409C133.795 49.5504 133.598 49.538 133.477 49.4464C133.232 49.2816 133.07 49.029 132.879 48.8096L132.634 48.513L133.131 48.1038ZM135.505 50.88L133.256 50.983L133.424 51.2742L134.12 51.2402L134.121 51.2414L134.665 52.1868L134.286 52.7724L134.453 53.0634L135.672 51.171L135.505 50.88ZM135.315 51.1828L134.837 51.921L134.437 51.225L135.315 51.183V51.1828ZM136.788 53.5274C136.663 53.188 136.466 52.8406 136.132 52.671C135.761 52.4844 135.266 52.575 135.003 52.902C134.774 53.174 134.762 53.5582 134.823 53.8924C134.895 54.276 135.071 54.6412 135.336 54.9296L135.186 54.9832L135.282 55.2494L136.219 54.9128L135.854 53.901L135.638 53.979L135.906 54.7246L135.589 54.8386C135.309 54.598 135.153 54.2426 135.071 53.889C135.011 53.6236 135.009 53.3056 135.21 53.097C135.441 52.8566 135.85 52.782 136.127 52.987C136.401 53.187 136.555 53.5112 136.633 53.8336C136.686 54.0456 136.678 54.2976 136.517 54.463C136.472 54.4966 136.543 54.5436 136.555 54.584L136.632 54.7104C136.716 54.6438 136.784 54.5587 136.831 54.4618C136.878 54.3648 136.901 54.2585 136.901 54.151C136.906 53.9382 136.859 53.727 136.788 53.5274ZM137.362 55.0892L136.244 55.3068C136.036 55.3472 135.881 55.4128 135.777 55.5004C135.673 55.588 135.607 55.7108 135.575 55.8746C135.543 56.0366 135.548 56.2352 135.594 56.4766C135.595 56.4785 135.595 56.4804 135.595 56.4824C135.643 56.7238 135.713 56.9094 135.803 57.0478C135.894 57.1878 136.002 57.277 136.13 57.319C136.259 57.361 136.428 57.364 136.636 57.3236L137.754 57.106L137.699 56.8206L136.607 57.033C136.117 57.1282 135.952 56.8704 135.868 56.4292L135.867 56.4236C135.78 55.9832 135.836 55.6822 136.326 55.5868L137.418 55.3746L137.362 55.0892ZM137.976 58.4932L135.906 57.6082L135.93 57.9432L136.573 58.2156V58.217L136.652 59.305L136.055 59.6672L136.08 60.0022L138 58.8282L137.976 58.4932ZM137.673 58.6834L136.922 59.1404L136.864 58.3396L137.673 58.6836V58.6834ZM103.55 63.6668L103.26 63.7432L103.581 64.9616L103.871 64.8854L103.55 63.6668ZM136.457 63.6668L136.747 63.7432L136.426 64.9616L136.136 64.8852L136.457 63.6668ZM106.643 68.7976L104.407 69.0548L104.594 69.3338L105.287 69.252L105.288 69.2532L105.896 70.1592L105.557 70.7692L105.745 71.0482L106.831 69.0766L106.643 68.7976ZM106.475 69.1128L106.049 69.882L105.602 69.2154L106.475 69.1128ZM107.499 70.0194L106.074 71.3524L106.264 71.556L107.466 70.4326L106.835 72.1666L107.054 72.4L108.776 71.8772L107.596 72.9804L107.787 73.1838L109.212 71.851L108.923 71.5418L107.173 72.0646L107.828 70.3708L107.499 70.0194ZM109.576 72.1376L108.372 73.7352L109.928 74.9062L110.098 74.6792L108.776 73.6832L109.142 73.1968L110.334 74.0944L110.504 73.8686L109.312 72.971L109.636 72.5406L110.909 73.4994L111.081 73.2714L109.576 72.1376ZM111.532 73.5698L110.59 75.3344L110.848 75.472L111.219 74.778L112.071 75.2288L112.278 76.2356L112.605 76.41L112.385 75.348C112.599 75.413 112.86 75.3824 113.008 75.2C113.134 75.059 113.219 74.8614 113.159 74.672C113.089 74.4114 112.832 74.275 112.616 74.1486L111.532 73.5698ZM111.656 73.9588L112.561 74.4508C112.698 74.5434 112.871 74.6698 112.854 74.8562C112.839 75.0198 112.663 75.107 112.514 75.0722C112.222 75.024 111.976 74.85 111.716 74.7202L111.353 74.5264L111.656 73.9588ZM113.791 74.751L113.036 76.6028L113.314 76.716L114.069 74.8644L113.791 74.751ZM115.595 75.374C115.374 75.3006 115.162 75.27 114.954 75.283C114.747 75.296 114.57 75.3568 114.424 75.466C114.278 75.5752 114.173 75.7254 114.109 75.9182C114.05 76.0921 114.04 76.2785 114.078 76.458C114.115 76.64 114.203 76.7972 114.344 76.9326C114.484 77.068 114.689 77.1806 114.96 77.2706C115.221 77.357 115.455 77.3774 115.668 77.3326C115.872 77.2898 116.041 77.1858 116.175 77.0202L115.915 76.8766C115.653 77.1878 115.341 77.1122 115.016 77.007C114.516 76.835 114.25 76.4838 114.395 76.0124C114.574 75.5 115.066 75.4894 115.503 75.6254C115.809 75.7266 116.07 75.859 116.108 76.16L116.395 76.2032C116.379 76.0228 116.307 75.8622 116.176 75.7208C116.038 75.5722 115.846 75.4572 115.595 75.374ZM117.606 75.8242L116.298 77.6562L116.63 77.7042L117.034 77.1352H117.035L118.115 77.2916L118.341 77.9516L118.673 77.9996L117.938 75.8722L117.606 75.8242ZM117.727 76.1602L118.012 76.9922L117.217 76.8772L117.727 76.1604V76.1602ZM122.294 75.8384C122.065 75.8824 121.865 75.9598 121.69 76.0728C121.516 76.1858 121.392 76.3248 121.318 76.4916C121.244 76.6584 121.226 76.8408 121.264 77.0404C121.299 77.2206 121.38 77.3884 121.501 77.5264C121.623 77.6668 121.785 77.766 121.966 77.81C122.154 77.859 122.388 77.8572 122.669 77.803C122.938 77.751 123.152 77.654 123.316 77.5108C123.474 77.3732 123.57 77.2 123.605 76.9902L123.308 76.9922C123.233 77.3916 122.923 77.4784 122.588 77.5462C122.068 77.6408 121.664 77.4646 121.56 76.9824C121.466 76.4476 121.889 76.198 122.337 76.1024C122.653 76.0414 122.945 76.029 123.126 76.2728L123.397 76.1702C123.295 76.0199 123.144 75.9093 122.97 75.8566C122.777 75.7946 122.553 75.7884 122.294 75.8384ZM123.63 75.6018L124.198 77.5192L126.065 76.9654L125.984 76.693L124.396 77.164L124.223 76.5804L125.654 76.156L125.573 75.885L124.143 76.3094L123.99 75.793L125.518 75.3396L125.436 75.0656L123.63 75.6018ZM125.793 74.9218L126.633 76.737L126.883 76.621L126.183 75.1072L128.12 76C128.163 76.0374 128.206 76.0124 128.249 75.9894L128.501 75.873L127.661 74.0578L127.41 74.1738L128.11 75.6858L126.12 74.7704L125.793 74.9218ZM127.989 73.8902L128.146 74.1282L128.86 73.6582L128.888 73.6402L128.901 73.6608L129.83 75.0728L130.073 74.913L129.144 73.501L129.13 73.4804L129.158 73.4624L129.876 72.9898L129.719 72.7518L127.989 73.8902ZM130.002 72.5122L131.357 73.9832L131.572 73.7852L131.039 73.2068L131.745 72.551L132.764 72.6866L133.037 72.4356L131.962 72.2932C132.094 72.1128 132.151 71.8566 132.027 71.6566C131.934 71.484 131.764 71.3366 131.558 71.3386C131.281 71.3324 131.069 71.541 130.873 71.7094L130.002 72.5122ZM130.41 72.5238L131.173 71.8318C131.309 71.729 131.501 71.5998 131.672 71.6994C131.818 71.7814 131.816 71.979 131.731 72.1046C131.58 72.3586 131.336 72.534 131.128 72.7372L130.846 72.9972L130.41 72.5238ZM132.329 70.1834L133.223 72.2488L133.436 71.9888L133.157 71.3494L133.158 71.3484L133.848 70.5042L134.53 70.651L134.743 70.391L132.541 69.9236L132.329 70.1836V70.1834ZM132.679 70.2532L133.539 70.4378L133.03 71.0592L132.679 70.2532ZM133.2 69.0504L134.878 70.1384L135.758 68.7804L135.52 68.626L134.815 69.7122L134.797 69.7402L134.776 69.7262L133.358 68.8066L133.2 69.0504Z" fill="#D3AE3B"/>
<path d="M120 45.2751L107.26 67.3415H132.74L120 45.2751Z" fill="white"/>
<path opacity="0.62" d="M120.484 46.1133L120 45.2751L119.517 46.1125L119.967 56.6161L119.029 46.9568L118.338 48.1544L119.901 56.6256L118.001 48.7381L117.492 49.6187L119.837 56.644L117.237 50.0603L116.834 50.759L119.776 56.6712L116.627 51.1167L116.288 51.7052L119.719 56.7064L116.111 52.0116L115.81 52.5324L119.668 56.7494L115.651 52.808L115.373 53.2895L119.623 56.799L115.223 53.5485L114.956 54.0119L119.586 56.8543L114.809 54.2657L114.542 54.729L119.557 56.9143L114.392 54.988L114.114 55.4696L119.536 56.9779L113.955 55.7451L113.654 56.266L119.524 57.0435L113.477 56.5724L113.138 57.1609L119.522 57.1102L112.931 57.5186L112.528 58.2174L119.529 57.1766L112.273 58.6589L111.764 59.5396L119.545 57.2414L111.427 60.1234L110.736 61.321L119.57 57.3033L110.248 62.1654L109.759 63.0124L110.718 63.0124L119.604 57.3611L111.035 63.4832L110.672 64.3815L111.632 64.2467L119.645 57.4137L112.012 64.6688L111.777 65.6088L112.709 65.3418L119.693 57.46L113.144 65.7069L113.042 66.6704L113.927 66.2764L119.747 57.4993L114.409 66.5773L114.436 67.3415H114.769L115.265 67.0322L119.806 57.5308L115.783 67.2632L115.797 67.3415H116.774L119.869 57.5534L117.345 67.3415H118.29L119.934 57.5674L118.828 67.3415H119.737L120 57.5719L120.264 67.3415H121.173L120.067 57.5674L121.711 67.3415H122.655L120.132 57.5534L123.227 67.3415H124.204L124.217 67.2632L120.195 57.5306L124.736 67.0322L125.231 67.3415H125.565L125.592 66.5773L120.254 57.4993L126.073 66.2764L126.958 66.6704L126.857 65.7069L120.308 57.46L127.292 65.3418L128.223 65.6088L127.989 64.6688L120.356 57.4137L128.369 64.2467L129.329 64.3815L128.966 63.4832L120.397 57.3611L129.283 63.0124L130.241 63.0124L129.751 62.1648L120.43 57.3033L129.264 61.3206L128.573 60.123L120.455 57.2414L128.236 59.5393L127.727 58.6588L120.471 57.1766L127.472 58.2173L127.069 57.5185L120.479 57.1103L126.862 57.1609L126.523 56.5725L120.476 57.0436L126.346 56.2661L126.045 55.7453L120.465 56.9778L125.886 55.4697L125.608 54.9882L120.444 56.9143L125.458 54.7293L125.191 54.2659L120.415 56.8544L125.044 54.0122L124.777 53.5489L120.377 56.799L124.627 53.2899L124.349 52.8084L120.333 56.7494L124.19 52.5329L123.89 52.012L120.282 56.7065L123.713 51.7057L123.373 51.1172L120.225 56.6712L123.167 50.7596L122.763 50.0608L120.164 56.6439L122.508 49.6194L122 48.7388L120.1 56.6256L121.663 48.1551L120.971 46.9575L120.034 56.6163L120.484 46.1133Z" fill="#54AEF2"/>
<path d="M120.001 55.4951L119.974 55.4957L120.001 56.1179L120.027 55.4957L120.001 55.4951Z" fill="white"/>
<path d="M121.521 56.5996L121.512 56.5743L120.928 56.792L121.528 56.6253L121.521 56.5996Z" fill="white"/>
<path d="M120.961 58.3704L120.94 58.3866L120.918 58.4019L120.574 57.8828L120.961 58.3704Z" fill="white"/>
<path d="M119.061 58.3866L119.083 58.4019L119.427 57.8828L119.04 58.3704L119.061 58.3866Z" fill="white"/>
<path d="M118.473 56.6253L118.48 56.5996L118.489 56.5743L119.073 56.792L118.473 56.6253Z" fill="white"/>
<path d="M120.223 55.5107L120.196 55.5075L120.136 56.1274L120.249 55.515L120.223 55.5107Z" fill="white"/>
<path d="M121.569 56.7897L121.575 56.816L121.579 56.8425L120.961 56.9241L121.569 56.7897Z" fill="white"/>
<path d="M120.751 58.5048L120.774 58.4917L120.459 57.9549L120.727 58.5169L120.751 58.5048Z" fill="white"/>
<path d="M118.91 58.2615L118.89 58.2433L118.871 58.2243L119.323 57.7953L118.91 58.2615Z" fill="white"/>
<path d="M118.564 56.3928L118.553 56.4172L119.124 56.6658L118.576 56.369L118.564 56.3928Z" fill="white"/>
<path d="M120.415 55.5502L120.441 55.557L120.467 55.565L120.269 56.1557L120.415 55.5502Z" fill="white"/>
<path d="M121.598 57.0377L121.596 57.011L120.976 57.0595L121.598 57.0645L121.598 57.0377Z" fill="white"/>
<path d="M120.572 58.5858L120.547 58.5955L120.522 58.6041L120.334 58.0103L120.572 58.5858Z" fill="white"/>
<path d="M118.741 58.0776L118.758 58.0983L119.232 57.6942L118.725 58.0561L118.741 58.0776Z" fill="white"/>
<path d="M118.661 56.2223L118.675 56.1997L118.691 56.1778L119.192 56.548L118.661 56.2223Z" fill="white"/>
<path d="M120.651 55.6333L120.626 55.623L120.397 56.2023L120.675 55.6448L120.651 55.6333Z" fill="white"/>
<path d="M121.592 57.2339L121.59 57.2606L121.587 57.2872L120.971 57.1955L121.592 57.2339Z" fill="white"/>
<path d="M120.333 58.657L120.359 58.6508L120.203 58.0478L120.306 58.662L120.333 58.657Z" fill="white"/>
<path d="M118.63 57.9156L118.616 57.8927L118.603 57.8692L119.156 57.5813L118.63 57.9156Z" fill="white"/>
<path d="M118.813 56.024L118.795 56.0443L119.276 56.4407L118.831 56.0045L118.813 56.024Z" fill="white"/>
<path d="M120.825 55.7243L120.848 55.738L120.87 55.7527L120.518 56.2662L120.825 55.7243Z" fill="white"/>
<path d="M121.551 57.4802L121.557 57.4541L120.947 57.3295L121.544 57.5061L121.551 57.4802Z" fill="white"/>
<path d="M120.139 58.6855L120.112 58.688L120.085 58.6893L120.069 58.0667L120.139 58.6855Z" fill="white"/>
<path d="M118.519 57.6923L118.529 57.7169L119.096 57.459L118.509 57.6672L118.519 57.6923Z" fill="white"/>
<path d="M118.953 55.8867L118.973 55.8691L118.994 55.8523L119.373 56.3462L118.953 55.8867Z" fill="white"/>
<path d="M121.028 55.8691L121.007 55.8523L120.628 56.3462L121.048 55.8868L121.028 55.8691Z" fill="white"/>
<path d="M121.492 57.6672L121.483 57.6923L121.472 57.7169L120.905 57.459L121.492 57.6672Z" fill="white"/>
<path d="M119.889 58.688L119.916 58.6893L119.933 58.0667L119.862 58.6856L119.889 58.688Z" fill="white"/>
<path d="M118.457 57.5061L118.45 57.4802L118.444 57.4541L119.054 57.3295L118.457 57.5061Z" fill="white"/>
<path d="M119.154 55.738L119.131 55.7527L119.484 56.2662L119.177 55.7243L119.154 55.738Z" fill="white"/>
<path d="M121.17 56.0045L121.188 56.024L121.206 56.0443L120.726 56.4407L121.17 56.0045Z" fill="white"/>
<path d="M121.385 57.8927L121.398 57.8692L120.845 57.5813L121.371 57.9156L121.385 57.8927Z" fill="white"/>
<path d="M119.695 58.662L119.668 58.657L119.642 58.6508L119.798 58.0478L119.695 58.662Z" fill="white"/>
<path d="M118.411 57.2606L118.414 57.2872L119.03 57.1955L118.409 57.2339L118.411 57.2606Z" fill="white"/>
<path d="M119.326 55.6448L119.35 55.6333L119.375 55.623L119.604 56.2023L119.326 55.6448Z" fill="white"/>
<path d="M121.326 56.1997L121.31 56.1778L120.809 56.548L121.34 56.2222L121.326 56.1997Z" fill="white"/>
<path d="M121.276 58.0561L121.26 58.0776L121.243 58.0983L120.769 57.6942L121.276 58.0561Z" fill="white"/>
<path d="M119.454 58.5955L119.479 58.6041L119.667 58.0103L119.429 58.5858L119.454 58.5955Z" fill="white"/>
<path d="M118.403 57.0645L118.403 57.0377L118.405 57.011L119.026 57.0595L118.403 57.0645Z" fill="white"/>
<path d="M119.56 55.557L119.534 55.565L119.732 56.1557L119.586 55.5502L119.56 55.557Z" fill="white"/>
<path d="M121.425 56.369L121.437 56.3928L121.448 56.4172L120.877 56.6658L121.425 56.369Z" fill="white"/>
<path d="M121.111 58.2433L121.13 58.2243L120.678 57.7953L121.091 58.2615L121.111 58.2433Z" fill="white"/>
<path d="M119.274 58.5169L119.25 58.5048L119.227 58.4917L119.542 57.9549L119.274 58.5169Z" fill="white"/>
<path d="M118.426 56.816L118.422 56.8425L119.04 56.9241L118.432 56.7897L118.426 56.816Z" fill="white"/>
<path d="M119.752 55.515L119.778 55.5107L119.805 55.5075L119.865 56.1274L119.752 55.515Z" fill="white"/>
<path d="M114.206 55.319C115.817 53.9292 117.873 53.1659 120 53.169C122.127 53.1661 124.184 53.9294 125.794 55.319L128.725 60.4002C128.826 60.9443 128.876 61.4967 128.875 62.0502H127.869C127.869 57.705 124.345 54.1814 120 54.1814C115.655 54.1814 112.131 57.705 112.131 62.0502H111.125C111.124 61.4967 111.174 60.9443 111.275 60.4002L114.206 55.319Z" fill="#E23726"/>
<path d="M113.944 55.7815C115.512 54.2665 117.648 53.3315 120 53.3315C122.353 53.3315 124.489 54.2667 126.057 55.7815L128.463 59.9441C128.63 60.6175 128.719 61.3253 128.719 62.0503H127.869C127.869 57.7051 124.346 54.1815 120 54.1815C115.655 54.1815 112.132 57.7051 112.132 62.0503H111.282C111.282 61.3425 111.368 60.6373 111.538 59.9503L113.944 55.7815Z" fill="#FF7E3D"/>
<path d="M113.613 56.3567C115.18 54.5985 117.46 53.4941 120 53.4941L120 53.4939C122.54 53.4939 124.821 54.5987 126.388 56.3563L128.132 59.3753C128.409 60.2173 128.557 61.1157 128.557 62.0503H127.869C127.869 57.7051 124.346 54.1815 120 54.1815C115.655 54.1815 112.132 57.7051 112.132 62.0503H111.444C111.443 61.1417 111.586 60.2387 111.869 59.3753L113.613 56.3567Z" fill="#FDD406"/>
<path d="M113.019 57.3813C114.526 55.1329 117.09 53.6501 120 53.6501V53.6503C122.908 53.6503 125.468 55.1299 126.975 57.3753L127.544 58.3627C128.108 59.5103 128.4 60.7717 128.4 62.0501H127.869C127.869 57.7049 124.345 54.1813 120 54.1813C115.655 54.1813 112.132 57.7049 112.132 62.0503H111.6C111.599 60.7697 111.892 59.5059 112.457 58.3563L113.019 57.3813Z" fill="#1E9A1C"/>
<path d="M111.763 62.0501C111.763 57.5005 115.451 53.8125 120 53.8125C124.55 53.8125 128.238 57.5005 128.238 62.0501H127.869C127.869 57.7047 124.345 54.1813 120 54.1813C115.655 54.1813 112.131 57.7047 112.131 62.0501H111.763Z" fill="#54AEF2"/>
<path d="M111.925 62.0504C111.925 57.5892 115.539 53.9692 120 53.9692C124.461 53.9692 128.081 57.5892 128.081 62.0504H127.806C127.806 57.7386 124.312 54.2442 120 54.2442C115.688 54.2442 112.194 57.7384 112.194 62.0504H111.925Z" fill="#0F3296"/>
<path d="M112.083 62.0494C112.083 57.6766 115.628 54.1316 120.001 54.1316C124.373 54.1316 127.918 57.6766 127.918 62.0494L127.916 62.196H127.757L127.758 62.0494C127.758 57.765 124.285 54.2918 120.001 54.2918C115.716 54.2918 112.243 57.765 112.243 62.0494C112.243 62.0983 112.243 62.1471 112.244 62.196H112.084L112.083 62.0494Z" fill="#9063CD"/>
<path d="M120.079 57.6269C119.95 57.6021 119.834 57.5301 119.724 57.5049C119.573 57.6499 119.557 57.7963 119.578 57.9209C119.63 57.9489 119.64 57.9915 119.754 58.0929C119.867 58.1943 119.853 58.2475 119.846 58.4859C119.843 58.5865 119.86 58.8021 119.962 58.8223C120.071 58.8443 120.148 58.7531 120.18 58.5903C120.21 58.4323 120.263 58.3471 120.319 58.2499C120.381 57.8795 120.281 57.7483 120.079 57.6269Z" fill="#8A1538"/>
<path d="M119.433 56.7049C119.314 56.7079 119.128 56.9073 119.045 56.7999C118.997 56.7383 118.989 56.6195 119.037 56.5199C119.149 56.2897 119.262 56.1767 119.471 56.0539C119.946 55.7737 120.249 55.8639 120.486 56.2665C120.705 56.6209 120.916 57.0125 120.935 57.3407C120.941 57.4409 120.991 57.6223 120.904 57.7127C120.634 57.9907 119.984 57.4257 119.604 57.5151C119.476 57.5451 119.329 57.6385 119.208 57.5587C119.114 57.4967 119.193 57.3593 119.263 57.2999C119.385 57.1959 119.563 56.8269 119.539 56.6669C119.525 56.5777 119.523 56.7027 119.433 56.7049Z" fill="#E23726"/>
<path d="M119.386 56.5098C119.169 56.5988 119.192 56.725 119.084 56.8278C119.114 56.8394 119.237 56.8898 119.356 56.7676C119.408 56.7248 119.466 56.709 119.492 56.6952C119.431 56.7394 119.387 56.806 119.355 56.832C119.274 56.8978 119.148 57.0486 119.087 57.2012C119.026 57.3538 119.001 57.5358 119.012 57.5576C119.023 57.5794 119.097 57.7136 119.325 57.804C119.731 57.9654 119.808 58.2918 120.22 58.2918C120.543 58.2918 120.491 58.0806 120.75 58.1254C120.974 58.1642 121.092 57.9862 120.877 57.879C120.603 57.7854 120.058 57.8406 119.802 57.8856C119.72 57.069 119.791 57.3556 119.772 57.0046C119.753 56.6536 119.647 56.6326 119.786 56.3484C119.671 56.5228 119.531 56.4952 119.386 56.5098Z" fill="#8A1538"/>
<path d="M120.188 55.959C120.18 56.0036 120.172 56.0622 120.177 56.079L120.232 56.2778C120.255 56.345 120.265 56.3938 120.28 56.4634C120.297 56.5354 120.36 56.5634 120.419 56.6078C120.493 56.6638 120.436 56.8152 120.482 56.8216C120.519 56.8266 120.58 56.6072 120.58 56.5722C120.581 56.5289 120.579 56.4856 120.573 56.4428C120.546 56.3838 120.518 56.3256 120.487 56.2684C120.475 56.2452 120.461 56.2227 120.447 56.201C120.403 56.1364 120.35 56.0783 120.29 56.0284L120.278 56.019L120.227 55.9816L120.188 55.959Z" fill="#E23726"/>
<path d="M120.25 57.4797C120.106 57.4421 119.965 57.3711 119.843 57.3347C119.603 57.2629 119.347 57.1079 119.169 57.1719C119.106 57.1999 119.112 57.2631 119.091 57.3539C119.083 57.4605 118.972 57.6179 119.064 57.5663C119.201 57.4897 119.562 57.7129 119.683 57.7875C119.741 57.8229 119.862 57.8923 119.9 57.9919C119.938 58.0915 119.918 58.3431 119.908 58.4511C119.897 58.5643 119.932 58.8181 120.045 58.8485C120.167 58.8811 120.261 58.7839 120.308 58.6025C120.354 58.4263 120.389 58.3251 120.46 58.2195C120.53 58.1139 120.611 58.0683 120.724 58.0469C120.836 58.0255 121 58.1393 121 58.0063C121 57.9189 120.923 57.8353 120.956 57.7155C120.982 57.6211 120.876 57.6399 120.788 57.6011C120.58 57.5373 120.394 57.5171 120.25 57.4797Z" fill="#E23726"/>
<path d="M119.673 57.7807C119.607 57.7451 119.21 57.4851 119.064 57.5665C119.018 57.5921 119.001 57.5633 119 57.5151C118.999 57.4669 119.022 57.3963 119.037 57.3419C119.052 57.2875 119.076 57.1835 119.14 57.1295C119.277 57.0135 119.594 57.2445 119.762 57.3067L119.673 57.7807Z" fill="#8A1538"/>
<path d="M120.353 58.2722C120.536 57.9516 120.654 57.9928 120.875 57.9974C120.949 57.999 120.971 57.9316 120.954 57.864C120.898 57.9888 120.621 57.85 120.471 57.9166C120.156 58.055 120.215 58.6706 120.065 58.7306C120.221 58.8608 120.29 58.3814 120.353 58.2722Z" fill="#E23726"/>
<path d="M110.621 61.5291L108.63 64.9765H131.371L129.38 61.5291H110.621Z" fill="white"/>
<path d="M129.938 62.4877C129.858 62.4879 129.778 62.4885 129.698 62.4892C129.537 62.4906 129.376 62.4919 129.215 62.4887C128.84 62.4887 128.496 62.5316 128.156 62.5739C127.86 62.6106 127.568 62.647 127.262 62.6545C126.955 62.6471 126.662 62.6107 126.366 62.5738C126.025 62.5315 125.68 62.4887 125.305 62.4887C125.164 62.4868 125.024 62.488 124.884 62.4893H124.883C124.721 62.4906 124.56 62.492 124.4 62.4887C124.025 62.4887 123.68 62.5315 123.339 62.5739C123.042 62.6107 122.749 62.6471 122.442 62.6545C122.136 62.6471 121.843 62.6106 121.546 62.5738C121.205 62.5315 120.86 62.4887 120.486 62.4887C120.344 62.4868 120.202 62.488 120.06 62.4892H120.06C119.898 62.4906 119.737 62.4919 119.577 62.4887C119.202 62.4887 118.858 62.5316 118.518 62.5739C118.222 62.6107 117.929 62.6471 117.623 62.6545C117.317 62.6471 117.024 62.6106 116.728 62.5738C116.388 62.5315 116.044 62.4887 115.67 62.4887C115.527 62.4867 115.385 62.488 115.244 62.4892H115.244C115.084 62.4906 114.924 62.492 114.765 62.4887C114.39 62.4887 114.045 62.5315 113.704 62.5738C113.407 62.6106 113.114 62.6471 112.807 62.6545C112.501 62.6471 112.207 62.6106 111.911 62.5738C111.57 62.5315 111.225 62.4887 110.851 62.4887C110.71 62.4868 110.569 62.488 110.428 62.4893H110.427C110.305 62.4903 110.182 62.4913 110.061 62.4904L109.985 62.6209L110.33 62.5867C110.636 62.5941 110.93 62.6306 111.226 62.6674C111.567 62.7098 111.913 62.7527 112.287 62.7527H113.192C113.567 62.7527 113.912 62.7098 114.253 62.6675L114.253 62.6674C114.549 62.6306 114.843 62.5941 115.149 62.5867C115.456 62.5941 115.75 62.6306 116.047 62.6675C116.389 62.7098 116.736 62.7527 117.11 62.7527H118.016C118.39 62.7527 118.734 62.7098 119.074 62.6674C119.37 62.6306 119.662 62.5941 119.969 62.5867C120.275 62.5941 120.568 62.6306 120.864 62.6675C121.204 62.7098 121.548 62.7527 121.922 62.7527H122.831C123.205 62.7527 123.55 62.7098 123.891 62.6675C124.188 62.6306 124.482 62.5941 124.788 62.5867C125.095 62.5941 125.388 62.6306 125.685 62.6675C126.026 62.7098 126.37 62.7527 126.745 62.7527H127.651C128.025 62.7527 128.369 62.7098 128.709 62.6674C129.005 62.6306 129.298 62.5941 129.604 62.5867C129.741 62.59 129.876 62.5991 130.009 62.6113L129.938 62.4877Z" fill="#021455"/>
<path d="M130.067 62.7115C129.944 62.7106 129.821 62.7116 129.698 62.7126C129.537 62.714 129.376 62.7153 129.215 62.7121C128.84 62.7121 128.496 62.755 128.156 62.7973C127.86 62.834 127.568 62.8704 127.262 62.8779C126.955 62.8705 126.662 62.8341 126.366 62.7972C126.025 62.7549 125.68 62.7121 125.305 62.7121C125.164 62.7102 125.024 62.7115 124.884 62.7127H124.883C124.721 62.714 124.56 62.7154 124.4 62.7121C124.025 62.7121 123.68 62.7549 123.339 62.7973C123.042 62.8341 122.749 62.8705 122.442 62.8779C122.136 62.8705 121.843 62.834 121.546 62.7972C121.205 62.7549 120.86 62.7121 120.486 62.7121C120.344 62.7102 120.202 62.7114 120.06 62.7126H120.06C119.898 62.714 119.737 62.7153 119.577 62.7121C119.202 62.7121 118.858 62.755 118.518 62.7973C118.222 62.8341 117.929 62.8705 117.623 62.8779C117.317 62.8705 117.024 62.834 116.728 62.7972C116.388 62.7549 116.044 62.7121 115.67 62.7121C115.527 62.7101 115.385 62.7114 115.244 62.7126H115.244C115.084 62.714 114.924 62.7154 114.765 62.7121C114.39 62.7121 114.045 62.7549 113.704 62.7972C113.407 62.834 113.114 62.8705 112.807 62.8779C112.501 62.8705 112.207 62.834 111.911 62.7972C111.57 62.7549 111.225 62.7121 110.851 62.7121C110.71 62.7102 110.568 62.7115 110.428 62.7127H110.427C110.264 62.714 110.102 62.7154 109.941 62.7121C109.938 62.7121 109.936 62.7121 109.933 62.7121L109.848 62.8579L110.33 62.8101C110.636 62.8175 110.93 62.854 111.226 62.8908C111.567 62.9332 111.913 62.9761 112.287 62.9761H113.192C113.567 62.9761 113.912 62.9332 114.253 62.8909C114.549 62.854 114.843 62.8175 115.149 62.8101C115.456 62.8175 115.75 62.854 116.047 62.8909C116.389 62.9332 116.736 62.9761 117.11 62.9761H118.016C118.39 62.9761 118.734 62.9332 119.074 62.8908C119.37 62.854 119.662 62.8175 119.969 62.8101C120.275 62.8175 120.568 62.854 120.864 62.8909C121.204 62.9332 121.548 62.9761 121.922 62.9761H122.831C123.205 62.9761 123.55 62.9332 123.891 62.8909C124.188 62.854 124.482 62.8175 124.788 62.8101C125.095 62.8175 125.388 62.854 125.685 62.8909C126.026 62.9332 126.37 62.9761 126.745 62.9761H127.651C128.025 62.9761 128.369 62.9332 128.709 62.8908C129.005 62.854 129.298 62.8175 129.604 62.8101C129.788 62.8146 129.968 62.8293 130.146 62.8483L130.067 62.7115Z" fill="#021455"/>
<path d="M130.199 62.9402L130.124 62.9347C129.982 62.9328 129.84 62.934 129.698 62.9352C129.537 62.9366 129.376 62.9379 129.215 62.9347C128.84 62.9347 128.496 62.9776 128.156 63.0199C127.86 63.0566 127.568 63.093 127.262 63.1005C126.955 63.0931 126.662 63.0567 126.366 63.0198C126.025 62.9775 125.68 62.9347 125.305 62.9347C125.164 62.9328 125.024 62.9341 124.884 62.9353H124.883C124.721 62.9366 124.56 62.938 124.4 62.9347C124.025 62.9347 123.68 62.9775 123.339 63.0199C123.042 63.0567 122.749 63.0931 122.442 63.1005C122.136 63.0931 121.843 63.0566 121.546 63.0198C121.205 62.9775 120.86 62.9347 120.486 62.9347C120.344 62.9328 120.202 62.934 120.06 62.9352H120.06C119.898 62.9366 119.737 62.9379 119.577 62.9347C119.202 62.9347 118.858 62.9776 118.518 63.0199C118.222 63.0567 117.929 63.0931 117.623 63.1005C117.317 63.0931 117.024 63.0566 116.728 63.0198C116.388 62.9775 116.044 62.9347 115.67 62.9347C115.527 62.9327 115.385 62.934 115.244 62.9352H115.244C115.084 62.9366 114.924 62.938 114.765 62.9347C114.39 62.9347 114.045 62.9775 113.704 63.0198C113.407 63.0566 113.114 63.0931 112.807 63.1005C112.501 63.0931 112.207 63.0566 111.911 63.0198C111.57 62.9775 111.225 62.9347 110.851 62.9347C110.71 62.9328 110.569 62.9341 110.428 62.9353H110.427C110.265 62.9366 110.102 62.938 109.941 62.9347C109.895 62.9347 109.849 62.9354 109.803 62.9366L109.712 63.0941L110.33 63.0327C110.636 63.0401 110.93 63.0766 111.226 63.1134C111.567 63.1558 111.913 63.1987 112.287 63.1987H113.192C113.567 63.1987 113.912 63.1558 114.253 63.1135L114.253 63.1134C114.549 63.0766 114.843 63.0401 115.149 63.0327C115.456 63.0401 115.75 63.0766 116.047 63.1135C116.389 63.1558 116.736 63.1987 117.11 63.1987H118.016C118.39 63.1987 118.734 63.1558 119.074 63.1134C119.37 63.0766 119.662 63.0401 119.969 63.0327C120.275 63.0401 120.568 63.0766 120.864 63.1135C121.204 63.1558 121.548 63.1987 121.922 63.1987H122.831C123.205 63.1987 123.55 63.1558 123.891 63.1135C124.188 63.0766 124.482 63.0401 124.788 63.0327C125.095 63.0401 125.388 63.0766 125.685 63.1135C126.026 63.1558 126.37 63.1987 126.745 63.1987H127.651C128.025 63.1987 128.369 63.1558 128.709 63.1134C129.005 63.0766 129.298 63.0401 129.604 63.0327C129.836 63.0383 130.06 63.0602 130.283 63.0863L130.199 62.9402Z" fill="#021455"/>
<path d="M130.334 63.1735L130.124 63.1581C129.982 63.1562 129.84 63.1574 129.698 63.1586C129.537 63.16 129.376 63.1613 129.215 63.1581C128.84 63.1581 128.496 63.201 128.156 63.2433C127.86 63.28 127.568 63.3164 127.262 63.3239C126.955 63.3165 126.662 63.2801 126.366 63.2433C126.025 63.2009 125.68 63.1581 125.305 63.1581C125.164 63.1563 125.024 63.1575 124.883 63.1587H124.883C124.721 63.16 124.56 63.1614 124.4 63.1581C124.025 63.1581 123.68 63.201 123.339 63.2433C123.042 63.2801 122.749 63.3165 122.442 63.3239C122.136 63.3165 121.843 63.2801 121.546 63.2432C121.205 63.2009 120.86 63.1581 120.486 63.1581C120.344 63.1562 120.202 63.1574 120.061 63.1586H120.06C119.898 63.16 119.737 63.1613 119.577 63.1581C119.202 63.1581 118.858 63.201 118.518 63.2433C118.222 63.2801 117.929 63.3165 117.623 63.3239C117.317 63.3165 117.024 63.28 116.728 63.2432C116.388 63.2009 116.044 63.1581 115.67 63.1581C115.527 63.1561 115.385 63.1574 115.244 63.1586C115.084 63.16 114.924 63.1614 114.765 63.1581C114.39 63.1581 114.045 63.2009 113.704 63.2432C113.407 63.28 113.114 63.3165 112.807 63.3239C112.501 63.3165 112.207 63.2801 111.911 63.2432C111.57 63.2009 111.225 63.1581 110.851 63.1581C110.71 63.1563 110.568 63.1575 110.428 63.1587H110.427C110.264 63.16 110.102 63.1614 109.941 63.1581C109.85 63.1581 109.76 63.1607 109.671 63.1652L109.575 63.3311L110.33 63.2561C110.636 63.2636 110.93 63.3 111.226 63.3368C111.567 63.3792 111.913 63.4221 112.287 63.4221H113.192C113.567 63.4221 113.912 63.3792 114.253 63.3369C114.549 63.3 114.843 63.2636 115.149 63.2561C115.456 63.2636 115.75 63.3 116.047 63.3369C116.389 63.3792 116.736 63.4221 117.11 63.4221H118.016C118.39 63.4221 118.734 63.3792 119.074 63.3369C119.37 63.3 119.662 63.2636 119.969 63.2561C120.275 63.2636 120.568 63.3 120.864 63.3369C121.204 63.3792 121.548 63.4221 121.922 63.4221H122.831C123.205 63.4221 123.55 63.3792 123.891 63.3369C124.188 63.3 124.482 63.2636 124.788 63.2561C125.095 63.2636 125.388 63.3 125.685 63.3369C126.026 63.3792 126.37 63.4221 126.745 63.4221H127.651C128.025 63.4221 128.369 63.3792 128.709 63.3368C129.005 63.3 129.298 63.2636 129.604 63.2561C129.883 63.2629 130.152 63.2933 130.422 63.3263L130.334 63.1735Z" fill="#021455"/>
<path d="M130.469 63.4068L130.124 63.3815C129.982 63.3796 129.84 63.3808 129.698 63.382C129.537 63.3834 129.376 63.3847 129.215 63.3815C128.84 63.3815 128.496 63.4244 128.156 63.4667C127.86 63.5034 127.568 63.5398 127.262 63.5473C126.955 63.5399 126.662 63.5035 126.366 63.4667C126.025 63.4243 125.68 63.3815 125.305 63.3815C125.164 63.3797 125.024 63.3809 124.883 63.3821H124.883C124.721 63.3834 124.56 63.3848 124.4 63.3815C124.025 63.3815 123.68 63.4244 123.339 63.4667C123.042 63.5035 122.749 63.5399 122.442 63.5473C122.136 63.5399 121.843 63.5035 121.546 63.4666C121.205 63.4243 120.86 63.3815 120.486 63.3815C120.344 63.3796 120.202 63.3808 120.06 63.382H120.06C119.898 63.3834 119.737 63.3847 119.577 63.3815C119.202 63.3815 118.858 63.4244 118.518 63.4667C118.222 63.5035 117.929 63.5399 117.623 63.5473C117.317 63.5399 117.024 63.5034 116.728 63.4666C116.388 63.4243 116.044 63.3815 115.67 63.3815C115.527 63.3795 115.385 63.3808 115.244 63.382C115.084 63.3834 114.924 63.3848 114.765 63.3815C114.39 63.3815 114.045 63.4243 113.704 63.4666C113.407 63.5035 113.114 63.5399 112.807 63.5473C112.501 63.5399 112.207 63.5035 111.911 63.4667C111.57 63.4243 111.225 63.3815 110.851 63.3815C110.71 63.3797 110.568 63.3809 110.428 63.3821H110.427C110.264 63.3834 110.102 63.3848 109.941 63.3815C109.803 63.3815 109.669 63.3873 109.537 63.3968L109.438 63.568L110.33 63.4795C110.636 63.487 110.93 63.5234 111.226 63.5602C111.567 63.6026 111.913 63.6455 112.287 63.6455H113.192C113.567 63.6455 113.912 63.6026 114.253 63.5603L114.253 63.5602C114.549 63.5234 114.843 63.487 115.149 63.4795C115.456 63.487 115.75 63.5234 116.047 63.5603C116.389 63.6026 116.736 63.6455 117.11 63.6455H118.016C118.39 63.6455 118.734 63.6026 119.074 63.5603C119.37 63.5234 119.662 63.487 119.969 63.4795C120.275 63.487 120.568 63.5234 120.864 63.5603C121.204 63.6026 121.548 63.6455 121.922 63.6455H122.831C123.205 63.6455 123.55 63.6026 123.891 63.5603C124.188 63.5234 124.482 63.487 124.788 63.4795C125.095 63.487 125.388 63.5234 125.685 63.5603C126.026 63.6026 126.37 63.6455 126.745 63.6455H127.651C128.025 63.6455 128.369 63.6026 128.709 63.5602C129.005 63.5234 129.298 63.487 129.604 63.4795C129.911 63.487 130.206 63.5231 130.504 63.5596C130.523 63.562 130.542 63.5643 130.561 63.5667L130.469 63.4068Z" fill="#021455"/>
<path d="M130.603 63.6393L130.124 63.6041C129.982 63.6022 129.84 63.6034 129.698 63.6046C129.537 63.606 129.376 63.6073 129.215 63.6041C128.84 63.6041 128.496 63.647 128.156 63.6893C127.86 63.726 127.568 63.7624 127.262 63.7699C126.955 63.7625 126.662 63.7261 126.366 63.6893C126.025 63.6469 125.68 63.6041 125.305 63.6041C125.164 63.6023 125.024 63.6035 124.883 63.6047H124.883C124.721 63.6061 124.56 63.6074 124.4 63.6041C124.025 63.6041 123.68 63.647 123.339 63.6893C123.042 63.7261 122.749 63.7625 122.442 63.7699C122.136 63.7625 121.843 63.7261 121.546 63.6892C121.205 63.6469 120.86 63.6041 120.486 63.6041C120.344 63.6022 120.202 63.6034 120.061 63.6046H120.06C119.898 63.606 119.737 63.6073 119.577 63.6041C119.202 63.6041 118.858 63.647 118.518 63.6893C118.222 63.7261 117.929 63.7625 117.623 63.7699C117.317 63.7625 117.024 63.726 116.728 63.6892C116.388 63.6469 116.044 63.6041 115.67 63.6041C115.527 63.6021 115.385 63.6034 115.244 63.6046C115.084 63.606 114.924 63.6074 114.765 63.6041C114.39 63.6041 114.045 63.6469 113.704 63.6892C113.407 63.7261 113.114 63.7625 112.807 63.7699C112.501 63.7625 112.207 63.7261 111.911 63.6893C111.57 63.6469 111.225 63.6041 110.851 63.6041C110.71 63.6023 110.568 63.6035 110.427 63.6047H110.427C110.264 63.6061 110.102 63.6074 109.941 63.6041C109.755 63.6041 109.577 63.6146 109.402 63.6304L109.302 63.8042L110.33 63.7021C110.636 63.7096 110.93 63.746 111.226 63.7828C111.567 63.8252 111.913 63.8681 112.287 63.8681H113.192C113.567 63.8681 113.912 63.8252 114.253 63.7829C114.549 63.746 114.843 63.7096 115.149 63.7021C115.456 63.7096 115.75 63.746 116.047 63.7829C116.389 63.8252 116.736 63.8681 117.11 63.8681H118.016C118.39 63.8681 118.734 63.8252 119.074 63.7829C119.37 63.746 119.662 63.7096 119.969 63.7021C120.275 63.7096 120.568 63.746 120.864 63.7829C121.204 63.8252 121.548 63.8681 121.922 63.8681H122.831C123.205 63.8681 123.55 63.8252 123.891 63.7829C124.188 63.746 124.482 63.7096 124.788 63.7021C125.095 63.7096 125.388 63.746 125.685 63.7829C126.026 63.8252 126.37 63.8681 126.745 63.8681H127.651C128.025 63.8681 128.369 63.8252 128.709 63.7828C129.005 63.746 129.298 63.7096 129.604 63.7021C129.911 63.7096 130.206 63.7457 130.504 63.7822C130.568 63.7902 130.634 63.7982 130.699 63.8059L130.603 63.6393Z" fill="#021455"/>
<path d="M130.737 63.8719L130.124 63.8269C129.982 63.825 129.84 63.8262 129.698 63.8274C129.537 63.8288 129.376 63.8301 129.215 63.8269C128.84 63.8269 128.496 63.8698 128.156 63.9121C127.86 63.9488 127.568 63.9852 127.262 63.9927C126.955 63.9853 126.662 63.9489 126.366 63.9121C126.025 63.8697 125.68 63.8269 125.305 63.8269C125.164 63.8251 125.024 63.8263 124.883 63.8275H124.883C124.721 63.8288 124.56 63.8302 124.4 63.8269C124.025 63.8269 123.68 63.8698 123.339 63.9121C123.042 63.9489 122.749 63.9853 122.442 63.9927C122.136 63.9853 121.843 63.9489 121.546 63.912C121.205 63.8697 120.86 63.8269 120.486 63.8269C120.344 63.825 120.202 63.8262 120.06 63.8274H120.06C119.898 63.8288 119.737 63.8301 119.577 63.8269C119.202 63.8269 118.858 63.8698 118.518 63.9121C118.222 63.9489 117.929 63.9853 117.623 63.9927C117.317 63.9853 117.024 63.9488 116.728 63.912C116.388 63.8697 116.044 63.8269 115.67 63.8269C115.527 63.8249 115.385 63.8262 115.244 63.8274C115.084 63.8288 114.924 63.8302 114.765 63.8269C114.39 63.8269 114.045 63.8697 113.704 63.912C113.407 63.9488 113.114 63.9853 112.807 63.9927C112.501 63.9853 112.207 63.9489 111.911 63.912C111.57 63.8697 111.225 63.8269 110.851 63.8269C110.71 63.8251 110.568 63.8263 110.427 63.8275H110.427C110.264 63.8288 110.102 63.8302 109.941 63.8269C109.706 63.8269 109.484 63.8437 109.266 63.8666L109.166 64.0405L110.33 63.9249C110.636 63.9324 110.93 63.9688 111.226 64.0056C111.567 64.048 111.913 64.0909 112.287 64.0909H113.192C113.567 64.0909 113.912 64.048 114.253 64.0057L114.253 64.0056C114.549 63.9688 114.843 63.9324 115.149 63.9249C115.456 63.9324 115.75 63.9688 116.047 64.0057C116.389 64.048 116.736 64.0909 117.11 64.0909H118.016C118.39 64.0909 118.734 64.048 119.074 64.0057C119.37 63.9688 119.662 63.9324 119.969 63.9249C120.275 63.9324 120.568 63.9688 120.864 64.0057C121.204 64.048 121.548 64.0909 121.922 64.0909H122.831C123.205 64.0909 123.55 64.048 123.891 64.0057C124.188 63.9688 124.482 63.9324 124.788 63.9249C125.095 63.9324 125.388 63.9688 125.685 64.0057C126.026 64.048 126.37 64.0909 126.745 64.0909H127.651C128.025 64.0909 128.369 64.048 128.709 64.0056C129.005 63.9688 129.298 63.9324 129.604 63.9249C129.911 63.9324 130.206 63.9685 130.504 64.005C130.614 64.0186 130.725 64.0322 130.837 64.0444L130.737 63.8719Z" fill="#021455"/>
<path d="M130.872 64.1052L130.124 64.0503C129.982 64.0484 129.84 64.0496 129.698 64.0508C129.537 64.0522 129.376 64.0535 129.215 64.0503C128.84 64.0503 128.496 64.0932 128.156 64.1355C127.86 64.1722 127.568 64.2086 127.262 64.2161C126.955 64.2087 126.662 64.1723 126.366 64.1355C126.025 64.0931 125.68 64.0503 125.305 64.0503C125.164 64.0485 125.024 64.0497 124.883 64.0509H124.883C124.721 64.0522 124.56 64.0536 124.4 64.0503C124.025 64.0503 123.68 64.0932 123.339 64.1355C123.042 64.1723 122.749 64.2087 122.442 64.2161C122.136 64.2087 121.843 64.1723 121.546 64.1354C121.205 64.0931 120.86 64.0503 120.486 64.0503C120.344 64.0484 120.202 64.0496 120.06 64.0508H120.06C119.898 64.0522 119.737 64.0535 119.577 64.0503C119.202 64.0503 118.858 64.0932 118.518 64.1355C118.222 64.1723 117.929 64.2087 117.623 64.2161C117.317 64.2087 117.024 64.1722 116.728 64.1354C116.388 64.0931 116.044 64.0503 115.67 64.0503C115.527 64.0483 115.385 64.0496 115.244 64.0508C115.084 64.0522 114.924 64.0536 114.765 64.0503C114.39 64.0503 114.045 64.0931 113.704 64.1354C113.407 64.1722 113.114 64.2087 112.807 64.2161C112.501 64.2087 112.207 64.1723 111.911 64.1354C111.57 64.0931 111.225 64.0503 110.851 64.0503C110.71 64.0485 110.568 64.0497 110.427 64.0509H110.427C110.265 64.0522 110.102 64.0536 109.941 64.0503C109.657 64.0503 109.39 64.0749 109.128 64.1054L109.029 64.2775L110.33 64.1483C110.636 64.1558 110.93 64.1922 111.226 64.229C111.567 64.2714 111.913 64.3143 112.287 64.3143H113.192C113.567 64.3143 113.912 64.2714 114.253 64.2291C114.549 64.1922 114.843 64.1558 115.149 64.1483C115.456 64.1558 115.75 64.1922 116.047 64.2291C116.389 64.2714 116.736 64.3143 117.11 64.3143H118.016C118.39 64.3143 118.734 64.2714 119.074 64.2291C119.37 64.1922 119.662 64.1558 119.969 64.1483C120.275 64.1558 120.568 64.1922 120.864 64.2291C121.204 64.2714 121.548 64.3143 121.922 64.3143H122.831C123.205 64.3143 123.55 64.2714 123.891 64.2291C124.188 64.1922 124.482 64.1558 124.788 64.1483C125.095 64.1558 125.388 64.1922 125.685 64.2291C126.026 64.2714 126.37 64.3143 126.745 64.3143H127.651C128.025 64.3143 128.369 64.2714 128.709 64.229C129.005 64.1922 129.298 64.1558 129.604 64.1483C129.911 64.1558 130.206 64.1919 130.504 64.2284C130.659 64.2475 130.815 64.2666 130.974 64.2819L130.872 64.1052Z" fill="#021455"/>
<path d="M110.622 61.5347L110.646 61.4917H129.355L129.38 61.5347H110.622Z" fill="#021455"/>
<path d="M110.577 61.6111L110.603 61.5671H129.399L129.424 61.6111H110.577Z" fill="#021455"/>
<path d="M110.563 61.6363L110.522 61.7075H129.48L129.439 61.6363H110.563Z" fill="#021455"/>
<path d="M110.449 61.8331L110.499 61.7463V61.7465H129.503L129.553 61.8331H110.449Z" fill="#021455"/>
<path d="M110.419 61.8847L110.369 61.9715H129.632L129.582 61.8847H110.419Z" fill="#021455"/>
<path d="M110.29 62.1089L110.339 62.0229H129.662L129.711 62.1089H110.29Z" fill="#021455"/>
<path d="M110.26 62.1613L110.21 62.2473H129.792L129.742 62.1613H110.26Z" fill="#021455"/>
<path d="M110.113 62.4161L110.174 62.3101H129.828L129.888 62.4161H110.113Z" fill="#021455"/>
<path d="M111.472 62.4575C112.162 62.5899 112.228 62.4575 112.228 62.4575H111.472Z" fill="#021455"/>
<path d="M127.772 62.4575C127.772 62.4575 127.839 62.5899 128.529 62.4575H127.772Z" fill="#021455"/>
<path d="M109.941 64.2729C109.61 64.2729 109.302 64.3063 108.999 64.3435L108.902 64.5127L110.33 64.3709C110.636 64.3784 110.93 64.4148 111.226 64.4516C111.567 64.494 111.913 64.5369 112.287 64.5369H113.192C113.567 64.5369 113.912 64.494 114.253 64.4517C114.549 64.4148 114.843 64.3784 115.149 64.3709C115.456 64.3784 115.75 64.4148 116.047 64.4517C116.389 64.494 116.736 64.5369 117.11 64.5369H118.016C118.39 64.5369 118.734 64.494 119.074 64.4517C119.37 64.4148 119.662 64.3784 119.969 64.3709C120.275 64.3784 120.568 64.4148 120.864 64.4517C121.204 64.494 121.548 64.5369 121.922 64.5369H122.831C123.205 64.5369 123.55 64.494 123.891 64.4517C124.188 64.4148 124.482 64.3784 124.788 64.3709C125.095 64.3784 125.388 64.4148 125.685 64.4517C126.026 64.494 126.37 64.5369 126.745 64.5369H127.651C128.025 64.5369 128.369 64.494 128.709 64.4516C129.005 64.4148 129.298 64.3784 129.604 64.3709C129.911 64.3784 130.206 64.4145 130.504 64.451C130.7 64.4751 130.897 64.4994 131.101 64.5157L130.998 64.3371L130.124 64.2729C129.982 64.271 129.84 64.2722 129.698 64.2734C129.537 64.2748 129.376 64.2761 129.215 64.2729C128.84 64.2729 128.496 64.3158 128.156 64.3581C127.86 64.3948 127.568 64.4312 127.262 64.4387C126.955 64.4313 126.662 64.3949 126.366 64.3581C126.025 64.3157 125.68 64.2729 125.305 64.2729C125.164 64.2711 125.024 64.2723 124.883 64.2735H124.883C124.721 64.2748 124.56 64.2762 124.4 64.2729C124.025 64.2729 123.68 64.3158 123.339 64.3581C123.042 64.3949 122.749 64.4313 122.442 64.4387C122.136 64.4313 121.843 64.3949 121.546 64.358C121.205 64.3157 120.86 64.2729 120.486 64.2729C120.344 64.271 120.202 64.2722 120.06 64.2734H120.06C119.898 64.2748 119.737 64.2761 119.577 64.2729C119.202 64.2729 118.858 64.3158 118.518 64.3581C118.222 64.3949 117.929 64.4313 117.623 64.4387C117.317 64.4313 117.024 64.3948 116.728 64.358C116.388 64.3157 116.044 64.2729 115.67 64.2729C115.527 64.2709 115.385 64.2722 115.244 64.2734C115.084 64.2748 114.924 64.2762 114.765 64.2729C114.39 64.2729 114.045 64.3157 113.704 64.358C113.407 64.3949 113.114 64.4313 112.807 64.4387C112.501 64.4313 112.207 64.3949 111.911 64.3581C111.57 64.3157 111.225 64.2729 110.851 64.2729C110.71 64.2711 110.568 64.2723 110.427 64.2735H110.427C110.264 64.2748 110.102 64.2762 109.941 64.2729Z" fill="#021455"/>
<path d="M126.126 59.4087C125.785 59.4087 125.68 59.5811 125.68 59.5811C125.133 61.6963 123.319 63.8477 121.16 63.8477H119.544V66.0013H131.847L130.609 63.8105C128.668 63.5207 127.081 61.5359 126.576 59.5811C126.576 59.5811 126.468 59.4087 126.126 59.4087Z" fill="#B1EB50"/>
<path d="M126.126 59.4932C125.97 59.4932 125.874 59.5292 125.819 59.5642C125.766 59.5972 125.756 59.6194 125.755 59.6218C125.755 59.6232 125.752 59.6238 125.751 59.625C125.471 60.6896 124.881 61.7588 124.084 62.5664C123.282 63.3804 122.27 63.9324 121.163 63.9324H119.628V65.9168H131.799L130.663 63.9052C129.726 63.7828 128.869 63.2726 128.172 62.5664C127.375 61.7588 126.785 60.6896 126.505 59.625L126.502 59.6218C126.5 59.6194 126.488 59.6008 126.434 59.5676C126.377 59.5324 126.283 59.4932 126.126 59.4932Z" fill="#B1EB50"/>
<path d="M126.126 59.4932C126.155 59.4932 126.182 59.4974 126.207 59.5V61.6602C126.201 62.1282 126.041 62.5048 125.805 62.9484C125.695 63.2592 125.608 63.141 125.335 63.5198C124.969 63.6506 124.698 63.7016 124.307 63.763C123.804 63.8426 122.683 63.913 122.13 63.7902C122.858 63.5766 123.522 63.1362 124.084 62.5662C124.234 62.4137 124.377 62.2535 124.51 62.0862C124.734 61.8041 124.936 61.5045 125.112 61.1902C125.182 61.065 125.249 60.9406 125.311 60.8116C125.405 60.6184 125.488 60.4216 125.561 60.2236C125.586 60.1574 125.61 60.0902 125.633 60.024C125.677 59.8912 125.716 59.758 125.751 59.625C125.751 59.6238 125.754 59.623 125.754 59.6216C125.754 59.6202 125.766 59.5972 125.818 59.5642C125.854 59.5431 125.893 59.5271 125.933 59.5168H125.937C125.987 59.5034 126.048 59.4932 126.126 59.4932Z" fill="#FDD406"/>
<path d="M125.988 59.7805C125.905 60.9873 125.532 62.4189 124.659 63.3425C124.338 63.6099 123.927 63.8525 123.53 63.7935C124.884 62.6915 125.707 61.0041 125.988 59.7805Z" fill="#D3AE3B"/>
<path d="M124.899 61.8562C124.698 62.4004 123.941 63.2054 123.131 63.8652C122.901 63.8722 122.779 63.8854 122.57 63.8728C123.064 63.8278 124.214 62.8562 124.899 61.8562Z" fill="#D3AE3B"/>
<path d="M123.058 59.4087C122.716 59.4087 122.612 59.5811 122.612 59.5811C122.065 61.6963 120.25 63.8477 118.092 63.8477H116.476V66.0013H128.779L127.541 63.8105C125.6 63.5207 124.013 61.5359 123.508 59.5811C123.508 59.5811 123.4 59.4087 123.058 59.4087Z" fill="#B1EB50"/>
<path d="M123.058 59.4932C122.902 59.4932 122.806 59.5292 122.751 59.5642C122.698 59.5972 122.688 59.6194 122.686 59.6218C122.686 59.6232 122.684 59.6238 122.683 59.625C122.403 60.6896 121.813 61.7588 121.016 62.5664C120.214 63.3804 119.202 63.9324 118.095 63.9324H116.56V65.9168H128.731L127.595 63.9052C126.658 63.7828 125.801 63.2726 125.104 62.5664C124.306 61.7588 123.717 60.6896 123.437 59.625L123.434 59.6218C123.432 59.6194 123.42 59.6008 123.366 59.5676C123.309 59.5324 123.215 59.4932 123.058 59.4932Z" fill="#B1EB50"/>
<path d="M123.058 59.4932C123.087 59.4932 123.114 59.4974 123.139 59.5V61.6602C123.133 62.1282 122.973 62.5048 122.737 62.9484C122.627 63.2592 122.54 63.141 122.267 63.5198C121.901 63.6506 121.63 63.7016 121.239 63.763C120.736 63.8426 119.615 63.913 119.062 63.7902C119.79 63.5766 120.454 63.1362 121.016 62.5662C121.166 62.4137 121.308 62.2535 121.442 62.0862C121.666 61.8041 121.868 61.5045 122.044 61.1902C122.114 61.065 122.181 60.9406 122.243 60.8116C122.337 60.6184 122.42 60.4216 122.493 60.2236C122.518 60.1574 122.542 60.0902 122.565 60.024C122.609 59.8912 122.648 59.758 122.683 59.625C122.683 59.6238 122.686 59.623 122.686 59.6216C122.686 59.6202 122.698 59.5972 122.75 59.5642C122.786 59.5431 122.825 59.5271 122.865 59.5168H122.869C122.919 59.5034 122.98 59.4932 123.058 59.4932Z" fill="#FDD406"/>
<path d="M122.92 59.7805C122.837 60.9873 122.464 62.4189 121.591 63.3425C121.269 63.6099 120.859 63.8525 120.462 63.7935C121.816 62.6915 122.639 61.0041 122.92 59.7805Z" fill="#D3AE3B"/>
<path d="M121.831 61.8562C121.63 62.4004 120.873 63.2054 120.063 63.8652C119.833 63.8722 119.711 63.8854 119.502 63.8728C119.996 63.8278 121.146 62.8562 121.831 61.8562Z" fill="#D3AE3B"/>
<path d="M120.444 59.5819C120.991 61.6969 122.802 63.8485 124.96 63.8485H126.578V66.0021H113.416L113.412 63.8485H115.027C117.185 63.8485 118.999 61.6969 119.547 59.5819C119.547 59.5819 119.654 59.4087 119.995 59.4087C120.337 59.4087 120.444 59.5819 120.444 59.5819H120.444Z" fill="#B1EB50"/>
<path d="M119.995 59.4932C120.152 59.4932 120.246 59.5324 120.303 59.5676C120.356 59.6008 120.369 59.6194 120.37 59.6216L120.374 59.625C120.654 60.6896 121.243 61.7588 122.04 62.5664C122.844 63.3804 123.858 63.9324 124.965 63.9324H126.493V65.9168H113.497V63.9322H115.032C116.139 63.9322 117.151 63.3802 117.953 62.5662C118.749 61.7588 119.34 60.6896 119.62 59.625C119.62 59.6236 119.623 59.623 119.623 59.6218C119.624 59.6194 119.635 59.5972 119.687 59.5642C119.743 59.5294 119.838 59.4932 119.995 59.4932Z" fill="#B1EB50"/>
<path d="M119.853 59.5061C119.837 59.5092 119.82 59.5128 119.804 59.5171H119.801C119.761 59.5273 119.722 59.5432 119.686 59.5643C119.634 59.5973 119.624 59.6191 119.622 59.6215C119.622 59.6227 119.619 59.6235 119.619 59.6249L119.5 60.0243L119.429 60.2233L119.179 60.8117C119.117 60.94 119.05 61.0663 118.98 61.1905C118.803 61.5046 118.602 61.804 118.378 62.0859C118.244 62.2534 118.102 62.4138 117.952 62.5665C117.39 63.1365 116.726 63.5765 115.998 63.7899C116.551 63.9129 116.804 63.7787 117.308 63.6991C117.698 63.6375 118.15 63.5865 118.516 63.4557C118.789 63.0769 118.696 63.1957 118.805 62.8849C119.042 62.4413 119.387 62.0405 119.472 61.5487C119.796 60.9443 119.853 59.8259 119.853 59.5061Z" fill="#FDD406"/>
<path d="M119.855 59.7805C119.773 60.9873 119.4 62.4189 118.526 63.3425C118.205 63.6099 117.794 63.8525 117.397 63.7935C118.751 62.6915 119.574 61.0041 119.855 59.7805Z" fill="#D3AE3B"/>
<path d="M118.767 61.8562C118.566 62.4004 117.809 63.2056 116.999 63.8652C116.769 63.8722 116.647 63.8854 116.438 63.8728C116.931 63.8278 118.082 62.8562 118.767 61.8562Z" fill="#D3AE3B"/>
<path d="M120.19 59.5168H120.194C120.234 59.5272 120.272 59.543 120.308 59.564C120.361 59.597 120.371 59.6188 120.372 59.6212C120.373 59.6224 120.375 59.6234 120.376 59.6248L120.494 60.024L120.566 60.223L120.815 60.8114L121.015 61.1904C121.191 61.5045 121.393 61.804 121.617 62.0858C121.751 62.2533 121.893 62.4136 122.043 62.5662C122.605 63.1362 123.269 63.6552 123.997 63.8686C122.548 63.8742 121.919 63.7426 121.392 63.0654C120.866 62.3882 120.671 62.0918 120.564 61.678C120.457 61.2642 120.159 60.364 120.19 59.5168Z" fill="#FDD406"/>
<path d="M120.295 59.7805C120.378 60.9873 120.739 62.1817 121.613 63.1055C121.934 63.3729 122.345 63.6155 122.742 63.5565C121.275 62.5561 120.576 61.0041 120.295 59.7805Z" fill="#D3AE3B"/>
<path d="M116.95 59.4087C116.608 59.4087 116.5 59.5811 116.5 59.5811C115.996 61.5305 114.135 64.0447 112.201 64.3433L111.243 66.0013H121.046V63.7317C119.281 63.2575 117.868 61.4057 117.396 59.5811C117.396 59.5811 117.292 59.4087 116.95 59.4087Z" fill="#B1EB50"/>
<path d="M116.95 59.4932C116.793 59.4932 116.699 59.5324 116.642 59.5676C116.589 59.6008 116.576 59.6194 116.575 59.6216L116.571 59.625C116.291 60.6896 115.636 61.766 114.955 62.623C114.275 63.48 113.011 64.3464 112.147 64.4382L111.291 65.9168H120.903V63.7782C120.192 63.56 119.543 63.1248 118.992 62.5662C118.196 61.7588 117.605 60.6896 117.325 59.625C117.325 59.6236 117.322 59.623 117.322 59.6218C117.321 59.6194 117.31 59.5972 117.258 59.5642C117.202 59.5294 117.107 59.4932 116.95 59.4932Z" fill="#B1EB50"/>
<path d="M116.689 59.7808C116.566 61.5894 115.559 63.8716 114.421 64.2648C114.05 64.3928 113.401 64.4376 113.176 64.4664C115.165 63.5202 116.341 61.2958 116.689 59.7808Z" fill="#FDD406"/>
<path d="M116.949 59.4932C116.92 59.4932 116.893 59.4974 116.868 59.5V61.6602C116.874 62.1282 117.034 62.5048 117.271 62.9484C117.284 62.9872 117.298 63.0192 117.311 63.0464C117.393 63.2636 117.454 63.339 117.768 63.5772C118.765 64.3346 120.002 64.4478 120.729 64.3852C120.501 64.2056 120.258 64.0422 120.043 63.8918C120.385 63.8806 120.713 63.8418 120.946 63.7902C120.218 63.5768 119.554 63.1362 118.992 62.5662C118.895 62.4658 118.801 62.3622 118.711 62.2554L118.593 62.093C118.369 61.813 118.14 61.5036 117.964 61.1904C117.893 61.0662 117.827 60.9399 117.764 60.8116C117.641 60.556 117.534 60.293 117.443 60.024C117.399 59.8923 117.36 59.7592 117.325 59.625C117.324 59.6238 117.322 59.623 117.321 59.6216C117.321 59.6202 117.31 59.5972 117.257 59.5642C117.221 59.543 117.182 59.5271 117.142 59.5168H117.139C117.077 59.5006 117.013 59.4927 116.949 59.4932Z" fill="#FDD406"/>
<path d="M117.089 59.7805C117.172 60.9873 117.545 62.4189 118.418 63.3425C118.739 63.6099 119.15 63.8525 119.547 63.7935C118.193 62.6915 117.37 61.0041 117.089 59.7805Z" fill="#D3AE3B"/>
<path d="M117.923 61.4495C118.396 62.6169 119.597 63.7075 120.831 64.4403C121.061 64.4473 121.13 64.4409 121.339 64.4283C120.455 63.9541 119.031 63.2775 117.923 61.4495Z" fill="#FDD406"/>
<path d="M113.864 59.4087C113.522 59.4087 113.414 59.5811 113.414 59.5811C112.91 61.5305 111.049 64.0447 109.115 64.3433L108.157 66.0013H117.96V63.7317C116.195 63.2575 114.782 61.4057 114.31 59.5811C114.31 59.5811 114.206 59.4087 113.864 59.4087Z" fill="#B1EB50"/>
<path d="M113.864 59.4932C113.707 59.4932 113.613 59.5324 113.556 59.5676C113.503 59.6008 113.49 59.6194 113.489 59.6216L113.485 59.625C113.205 60.6896 112.55 61.766 111.869 62.623C111.189 63.48 109.925 64.3464 109.061 64.4382L108.205 65.9168H117.817V63.7782C117.106 63.56 116.457 63.1248 115.906 62.5662C115.11 61.7588 114.519 60.6896 114.239 59.625C114.239 59.6236 114.236 59.623 114.236 59.6218C114.235 59.6194 114.224 59.5972 114.172 59.5642C114.116 59.5294 114.021 59.4932 113.864 59.4932Z" fill="#B1EB50"/>
<path d="M113.603 59.7808C113.48 61.5894 112.473 63.8716 111.335 64.2648C110.964 64.3928 110.315 64.4376 110.09 64.4664C112.079 63.5202 113.255 61.2958 113.603 59.7808Z" fill="#FDD406"/>
<path d="M113.863 59.4932C113.834 59.4932 113.807 59.4974 113.782 59.5V61.6602C113.788 62.1282 113.948 62.5048 114.185 62.9484C114.198 62.9872 114.212 63.0192 114.225 63.0464C114.307 63.2636 114.368 63.339 114.682 63.5772C115.679 64.3346 116.916 64.4478 117.643 64.3852C117.415 64.2056 117.172 64.0422 116.957 63.8918C117.299 63.8806 117.627 63.8418 117.86 63.7902C117.132 63.5768 116.468 63.1362 115.906 62.5662C115.809 62.4658 115.715 62.3622 115.625 62.2554L115.507 62.093C115.283 61.813 115.054 61.5036 114.878 61.1904C114.807 61.0662 114.741 60.9399 114.678 60.8116C114.555 60.556 114.448 60.293 114.357 60.024C114.313 59.8923 114.274 59.7592 114.239 59.625C114.238 59.6238 114.236 59.623 114.235 59.6216C114.235 59.6202 114.224 59.5972 114.171 59.5642C114.135 59.543 114.096 59.5271 114.056 59.5168H114.053C113.991 59.5006 113.927 59.4927 113.863 59.4932Z" fill="#FDD406"/>
<path d="M114.003 59.7805C114.086 60.9873 114.459 62.4189 115.332 63.3425C115.653 63.6099 116.064 63.8525 116.461 63.7935C115.107 62.6915 114.284 61.0041 114.003 59.7805Z" fill="#D3AE3B"/>
<path d="M114.837 61.4495C115.31 62.6169 116.511 63.7075 117.745 64.4403C117.975 64.4473 118.044 64.4409 118.253 64.4283C117.369 63.9541 115.945 63.2775 114.837 61.4495Z" fill="#FDD406"/>
<path d="M130.768 64.9386C131.024 64.9494 131.243 64.9588 131.3 64.9386L132.735 67.3386H107.266L108.52 65.167C108.707 65.1503 108.907 65.1251 109.114 65.0992C109.511 65.0495 109.929 64.997 110.308 64.997L110.463 65.0004C110.477 65 110.492 64.9994 110.506 64.9988C110.528 64.9979 110.549 64.997 110.571 64.997C110.579 64.997 110.587 64.9969 110.595 64.9968C110.611 64.9967 110.626 64.9966 110.642 64.997C110.658 64.9966 110.675 64.9967 110.692 64.9968C110.7 64.9969 110.709 64.997 110.717 64.997C110.738 64.997 110.758 64.9979 110.778 64.9988C110.792 64.9994 110.806 65 110.821 65.0004C110.832 65.0001 110.844 64.9997 110.855 64.9994C110.895 64.9982 110.936 64.997 110.976 64.997C111.341 64.997 111.677 65.0455 112.009 65.0935C112.333 65.1402 112.652 65.1865 112.991 65.1866C113.331 65.1867 113.651 65.1404 113.975 65.0935C114.306 65.0455 114.642 64.997 115.006 64.997L115.162 65.0004C115.177 65 115.191 64.9994 115.205 64.9988C115.226 64.9979 115.246 64.997 115.267 64.997C115.275 64.997 115.283 64.9969 115.291 64.9968C115.307 64.9967 115.323 64.9966 115.338 64.997C115.354 64.9966 115.368 64.9967 115.383 64.9968C115.39 64.9969 115.398 64.997 115.406 64.997L115.517 65.0004C115.524 65.0002 115.53 65 115.537 64.9998C115.582 64.9983 115.626 64.997 115.673 64.997C116.037 64.997 116.373 65.0456 116.704 65.0935C117.027 65.1403 117.346 65.1866 117.684 65.1866C118.023 65.1866 118.342 65.1403 118.665 65.0935C118.996 65.0456 119.331 64.997 119.696 64.997C119.826 64.9997 119.956 64.9987 120.088 64.9977C120.18 64.9971 120.272 64.9964 120.365 64.997C120.73 64.997 121.066 65.0455 121.398 65.0935C121.722 65.1403 122.042 65.1866 122.38 65.1866C122.719 65.1866 123.039 65.1403 123.363 65.0935C123.695 65.0455 124.031 64.997 124.396 64.997C124.524 64.9999 124.653 64.9988 124.784 64.9978C124.876 64.9971 124.969 64.9963 125.062 64.997C125.427 64.997 125.762 65.0455 126.094 65.0935C126.418 65.1403 126.738 65.1866 127.077 65.1866C127.415 65.1866 127.735 65.1403 128.059 65.0935C128.391 65.0456 128.727 64.997 129.092 64.997C129.219 64.9998 129.348 64.9988 129.477 64.9977C129.57 64.997 129.664 64.9963 129.758 64.997L130.014 64.9298C130.216 64.9151 130.51 64.9276 130.768 64.9386Z" fill="white"/>
<path d="M131.409 65.0352C131.406 65.0348 131.403 65.0344 131.4 65.0341L131.235 64.7493C131.029 64.7427 130.801 64.718 130.564 64.692C130.253 64.6582 129.924 64.6223 129.599 64.6223L129.48 64.6237C129.216 64.6315 128.982 64.6699 128.722 64.7127C128.343 64.7751 127.908 64.8467 127.24 64.8467C126.713 64.8467 126.407 64.8022 126.101 64.7577C125.751 64.7069 125.401 64.656 124.723 64.6709C124.07 64.6853 123.625 64.7599 123.25 64.8228C122.942 64.8745 122.68 64.9184 122.389 64.9143C122.179 64.9114 121.927 64.8957 121.654 64.8786L121.654 64.8786C121.087 64.8432 120.432 64.8024 119.887 64.8593C119.799 64.8685 119.71 64.8787 119.619 64.8896L119.601 64.8893L119.582 64.8889C119.212 64.8889 118.872 64.9378 118.535 64.986C118.243 65.0279 117.955 65.0694 117.652 65.0779C117.35 65.0694 117.061 65.0279 116.769 64.986C116.432 64.9377 116.092 64.8889 115.722 64.8889C115.582 64.887 115.442 64.8882 115.303 64.8894H115.302C115.144 64.8908 114.985 64.8921 114.827 64.8889C114.457 64.8889 114.117 64.9377 113.78 64.986C113.487 65.0279 113.197 65.0694 112.894 65.0779C112.592 65.0694 112.302 65.0279 112.009 64.986C111.672 64.9378 111.331 64.8889 110.961 64.8889C110.821 64.887 110.68 64.8882 110.54 64.8894H110.54C110.38 64.8908 110.221 64.8921 110.063 64.8889C109.693 64.8889 109.352 64.9378 109.016 64.986C108.873 65.0065 108.73 65.027 108.587 65.0434L108.501 65.1915H108.52C108.89 65.1915 109.23 65.1427 109.565 65.0945C109.856 65.0526 110.144 65.0112 110.447 65.0025C110.749 65.0111 111.039 65.0525 111.331 65.0944C111.668 65.1427 112.009 65.1915 112.38 65.1915H113.275C113.644 65.1915 113.986 65.1427 114.323 65.0945C114.615 65.0525 114.905 65.0111 115.208 65.0025C115.334 65.0061 115.459 65.0154 115.582 65.0281C115.426 65.0297 115.269 65.037 115.111 65.0527C114.84 65.0796 114.617 65.1217 114.403 65.1658C114.19 65.1844 113.984 65.2139 113.78 65.2431C113.487 65.2851 113.197 65.3266 112.894 65.3351C112.592 65.3266 112.302 65.2851 112.009 65.2432C111.672 65.195 111.331 65.1461 110.961 65.1461C110.821 65.1442 110.68 65.1454 110.54 65.1466H110.54C110.38 65.148 110.221 65.1493 110.063 65.1461C109.693 65.1461 109.352 65.195 109.016 65.2432C108.82 65.2712 108.626 65.2991 108.429 65.317L108.353 65.4487H108.52C108.551 65.4487 108.581 65.4484 108.611 65.4477C108.514 65.4665 108.421 65.4841 108.332 65.4993L108.282 65.5861C108.279 65.5863 108.276 65.5864 108.273 65.5866L108.204 65.7065H108.213L108.164 65.7921C108.297 65.7766 108.503 65.7487 108.739 65.7169C108.822 65.7056 108.909 65.6938 108.998 65.6819C109.191 65.6632 109.379 65.6362 109.565 65.6095L109.608 65.6033C109.901 65.5679 110.164 65.5409 110.324 65.5367C110.436 65.5338 110.617 65.5378 110.839 65.5451C111.004 65.5626 111.167 65.5859 111.331 65.6094C111.668 65.6577 112.009 65.7065 112.38 65.7065H113.275C113.644 65.7065 113.986 65.6577 114.323 65.6095C114.615 65.5675 114.905 65.5261 115.208 65.5175C115.511 65.5261 115.801 65.5675 116.095 65.6095C116.433 65.6577 116.775 65.7065 117.145 65.7065H118.039C118.409 65.7065 118.75 65.6577 119.086 65.6094C119.378 65.5675 119.667 65.5261 119.97 65.5175C120.272 65.5261 120.561 65.5675 120.853 65.6095C121.189 65.6577 121.529 65.7065 121.899 65.7065H122.797C123.167 65.7065 123.508 65.6577 123.845 65.6095C124.138 65.5676 124.428 65.5261 124.731 65.5175C125.034 65.5261 125.323 65.5675 125.616 65.6095C125.953 65.6577 126.295 65.7065 126.665 65.7065H127.559C127.929 65.7065 128.269 65.6577 128.605 65.6094C128.898 65.5675 129.187 65.5261 129.489 65.5175C129.791 65.5261 130.081 65.5675 130.374 65.6095C130.711 65.6577 131.052 65.7065 131.422 65.7065H131.796L131.724 65.5821C131.496 65.5651 131.273 65.5332 131.049 65.501C130.713 65.4527 130.372 65.4039 130.003 65.4039C129.861 65.402 129.721 65.4032 129.582 65.4044C129.422 65.4058 129.264 65.4071 129.105 65.4039C128.735 65.4039 128.394 65.4528 128.058 65.501C127.766 65.5429 127.477 65.5844 127.175 65.5929C126.872 65.5844 126.582 65.5429 126.289 65.501C125.952 65.4527 125.612 65.4039 125.242 65.4039C125.102 65.402 124.962 65.4032 124.823 65.4044C124.663 65.4058 124.505 65.4071 124.347 65.4039C123.977 65.4039 123.636 65.4528 123.299 65.501C123.006 65.5429 122.716 65.5844 122.414 65.5929C122.111 65.5844 121.821 65.5429 121.528 65.501C121.191 65.4527 120.85 65.4039 120.48 65.4039C120.34 65.402 120.2 65.4032 120.06 65.4044H120.06C119.9 65.4058 119.741 65.4071 119.582 65.4039C119.212 65.4039 118.872 65.4528 118.535 65.501C118.243 65.5429 117.955 65.5844 117.652 65.5929C117.35 65.5844 117.061 65.5429 116.769 65.501C116.432 65.4527 116.092 65.4039 115.722 65.4039C115.581 65.402 115.442 65.4032 115.302 65.4044C115.144 65.4058 114.985 65.4071 114.827 65.4039L114.813 65.4039C114.999 65.3819 115.221 65.3673 115.515 65.3673C115.854 65.3673 116.156 65.3832 116.456 65.4008C116.678 65.4283 116.906 65.4487 117.145 65.4487H118.039C118.409 65.4487 118.75 65.3999 119.086 65.3516C119.378 65.3097 119.667 65.2683 119.97 65.2597C120.272 65.2683 120.561 65.3097 120.853 65.3517C121.189 65.3999 121.529 65.4487 121.899 65.4487H122.797C123.167 65.4487 123.508 65.3999 123.845 65.3517C124.138 65.3098 124.428 65.2683 124.731 65.2597C125.034 65.2683 125.323 65.3097 125.616 65.3517C125.953 65.3999 126.295 65.4487 126.665 65.4487H127.559C127.929 65.4487 128.269 65.3999 128.605 65.3516C128.898 65.3097 129.187 65.2683 129.489 65.2597C129.791 65.2683 130.081 65.3097 130.374 65.3517C130.711 65.3999 131.052 65.4487 131.422 65.4487H131.648L131.568 65.3104C131.394 65.2926 131.222 65.268 131.049 65.2432C130.713 65.1949 130.372 65.1461 130.003 65.1461C129.861 65.1442 129.721 65.1454 129.582 65.1466C129.422 65.148 129.264 65.1493 129.105 65.1461C128.735 65.1461 128.394 65.195 128.058 65.2432C127.766 65.2851 127.477 65.3266 127.175 65.3351C126.872 65.3266 126.582 65.2851 126.289 65.2432C125.952 65.1949 125.612 65.1461 125.242 65.1461C125.102 65.1442 124.962 65.1454 124.823 65.1466C124.663 65.148 124.505 65.1493 124.347 65.1461C123.977 65.1461 123.636 65.195 123.299 65.2432C123.006 65.2851 122.716 65.3266 122.414 65.3351C122.111 65.3266 121.821 65.2851 121.528 65.2432C121.191 65.1949 120.85 65.1461 120.48 65.1461C120.387 65.1449 120.294 65.145 120.2 65.1455C120.656 65.1216 121.226 65.1598 121.738 65.1942C121.924 65.2066 122.102 65.2186 122.265 65.2269C122.581 65.2434 122.843 65.2162 123.107 65.1808C123.361 65.1638 123.604 65.129 123.845 65.0945L123.883 65.0891C123.936 65.0856 123.991 65.0828 124.048 65.0809L124.942 65.0513C125.076 65.0469 125.206 65.0489 125.333 65.0551C125.428 65.0674 125.522 65.0809 125.616 65.0945C125.953 65.1427 126.295 65.1915 126.665 65.1915H127.559C127.929 65.1915 128.269 65.1427 128.605 65.0944C128.898 65.0525 129.187 65.0111 129.489 65.0025C129.791 65.0111 130.081 65.0525 130.374 65.0944C130.711 65.1427 131.052 65.1915 131.422 65.1915H131.499L131.409 65.0352Z" fill="#021455"/>
<path d="M131.878 65.8484C131.595 65.8367 131.324 65.7977 131.049 65.7583C130.713 65.7101 130.372 65.6613 130.003 65.6613C129.861 65.6594 129.721 65.6606 129.582 65.6618C129.422 65.6632 129.264 65.6645 129.105 65.6613C128.735 65.6613 128.394 65.7101 128.058 65.7584C127.766 65.8003 127.477 65.8417 127.175 65.8503C126.872 65.8418 126.582 65.8003 126.289 65.7583C125.952 65.7101 125.612 65.6613 125.242 65.6613C125.102 65.6594 124.962 65.6606 124.823 65.6618C124.663 65.6632 124.505 65.6645 124.347 65.6613C123.977 65.6613 123.636 65.7101 123.299 65.7584C123.006 65.8003 122.716 65.8417 122.414 65.8503C122.111 65.8417 121.821 65.8003 121.528 65.7584C121.192 65.7101 120.85 65.6613 120.48 65.6613C120.34 65.6594 120.2 65.6606 120.06 65.6618H120.06C119.9 65.6632 119.741 65.6645 119.582 65.6613C119.212 65.6613 118.872 65.7102 118.535 65.7584C118.243 65.8003 117.955 65.8418 117.652 65.8503C117.35 65.8417 117.061 65.8003 116.769 65.7584C116.432 65.7101 116.092 65.6613 115.722 65.6613C115.581 65.6594 115.442 65.6606 115.303 65.6618C115.144 65.6632 114.985 65.6645 114.827 65.6613C114.457 65.6613 114.117 65.7101 113.78 65.7583C113.487 65.8003 113.197 65.8418 112.894 65.8503C112.592 65.8417 112.302 65.8003 112.009 65.7584C111.672 65.7101 111.331 65.6613 110.961 65.6613C110.821 65.6594 110.68 65.6606 110.54 65.6618H110.54C110.38 65.6632 110.221 65.6645 110.063 65.6613C109.693 65.6613 109.352 65.7102 109.016 65.7584C108.724 65.8003 108.435 65.8417 108.132 65.8503C108.129 65.8502 108.125 65.8501 108.121 65.85L108.055 65.9639H108.52C108.89 65.9639 109.23 65.9151 109.565 65.8668C109.856 65.825 110.144 65.7835 110.447 65.7749C110.749 65.7835 111.039 65.8249 111.331 65.8668C111.668 65.9151 112.009 65.9639 112.38 65.9639H113.275C113.644 65.9639 113.986 65.9151 114.323 65.8668C114.615 65.8249 114.905 65.7835 115.208 65.7749C115.511 65.7835 115.801 65.8249 116.095 65.8668C116.433 65.9151 116.775 65.9639 117.145 65.9639H118.039C118.409 65.9639 118.75 65.9151 119.086 65.8668C119.378 65.8249 119.667 65.7835 119.97 65.7749C120.272 65.7835 120.561 65.8249 120.853 65.8668C121.189 65.9151 121.529 65.9639 121.899 65.9639H122.797C123.167 65.9639 123.508 65.9151 123.845 65.8669C124.138 65.8249 124.428 65.7835 124.731 65.7749C125.034 65.7835 125.323 65.8249 125.616 65.8669C125.953 65.9151 126.295 65.9639 126.665 65.9639H127.559C127.929 65.9639 128.269 65.9151 128.605 65.8668C128.898 65.8249 129.187 65.7835 129.489 65.7749C129.791 65.7835 130.081 65.8249 130.374 65.8668C130.711 65.9151 131.052 65.9639 131.422 65.9639H131.945L131.878 65.8484Z" fill="#021455"/>
<path d="M132.023 66.099L131.933 66.1075C131.63 66.0989 131.341 66.0575 131.049 66.0156C130.713 65.9673 130.372 65.9185 130.003 65.9185C129.861 65.9166 129.721 65.9178 129.582 65.919C129.422 65.9204 129.264 65.9217 129.105 65.9185C128.735 65.9185 128.394 65.9673 128.058 66.0156C127.766 66.0575 127.477 66.099 127.175 66.1075C126.872 66.099 126.582 66.0575 126.289 66.0155C125.952 65.9673 125.612 65.9185 125.242 65.9185C125.102 65.9166 124.962 65.9178 124.823 65.919C124.663 65.9204 124.505 65.9217 124.347 65.9185C123.977 65.9185 123.636 65.9673 123.299 66.0156C123.006 66.0575 122.716 66.099 122.414 66.1075C122.111 66.099 121.821 66.0575 121.528 66.0156C121.191 65.9673 120.85 65.9185 120.48 65.9185C120.34 65.9166 120.2 65.9178 120.06 65.919H120.06C119.9 65.9204 119.741 65.9217 119.582 65.9185C119.212 65.9185 118.872 65.9674 118.535 66.0156C118.243 66.0575 117.955 66.099 117.652 66.1075C117.35 66.0989 117.061 66.0575 116.769 66.0156C116.432 65.9673 116.092 65.9185 115.722 65.9185C115.581 65.9166 115.442 65.9178 115.302 65.919C115.144 65.9204 114.985 65.9217 114.827 65.9185C114.457 65.9185 114.117 65.9673 113.78 66.0155C113.487 66.0575 113.197 66.099 112.894 66.1075C112.592 66.099 112.302 66.0575 112.009 66.0156C111.672 65.9673 111.331 65.9185 110.961 65.9185C110.821 65.9166 110.68 65.9178 110.54 65.919H110.54C110.38 65.9204 110.221 65.9217 110.063 65.9185C109.693 65.9185 109.352 65.9674 109.016 66.0156C108.724 66.0575 108.435 66.099 108.132 66.1075C108.08 66.1061 108.028 66.1036 107.977 66.1001L107.907 66.2211H108.52C108.89 66.2211 109.23 66.1723 109.565 66.124C109.856 66.0822 110.144 66.0408 110.447 66.0321C110.749 66.0407 111.039 66.0821 111.331 66.124C111.668 66.1723 112.009 66.2211 112.38 66.2211H113.275C113.644 66.2211 113.986 66.1723 114.323 66.124C114.615 66.0821 114.905 66.0407 115.208 66.0321C115.511 66.0407 115.801 66.0821 116.095 66.124C116.433 66.1723 116.775 66.2211 117.145 66.2211H118.039C118.409 66.2211 118.75 66.1723 119.086 66.124C119.378 66.0821 119.667 66.0407 119.97 66.0321C120.272 66.0407 120.561 66.0821 120.853 66.124C121.189 66.1723 121.529 66.2211 121.899 66.2211H122.797C123.167 66.2211 123.508 66.1723 123.845 66.1241C124.138 66.0821 124.428 66.0407 124.731 66.0321C125.034 66.0407 125.323 66.0821 125.616 66.1241C125.953 66.1723 126.295 66.2211 126.665 66.2211H127.559C127.929 66.2211 128.269 66.1723 128.605 66.124C128.898 66.0821 129.187 66.0407 129.489 66.0321C129.791 66.0407 130.081 66.0821 130.374 66.124C130.711 66.1723 131.052 66.2211 131.422 66.2211H132.093L132.023 66.099Z" fill="#021455"/>
<path d="M132.164 66.3434L131.933 66.3653C131.63 66.3567 131.341 66.3153 131.049 66.2734C130.713 66.2251 130.372 66.1763 130.003 66.1763C129.861 66.1744 129.721 66.1756 129.582 66.1768C129.422 66.1782 129.264 66.1795 129.105 66.1763C128.735 66.1763 128.394 66.2251 128.058 66.2734C127.766 66.3153 127.477 66.3568 127.175 66.3653C126.872 66.3568 126.582 66.3153 126.289 66.2733C125.952 66.2251 125.612 66.1763 125.242 66.1763C125.102 66.1744 124.962 66.1756 124.823 66.1768C124.663 66.1782 124.505 66.1795 124.347 66.1763C123.977 66.1763 123.636 66.2251 123.299 66.2734C123.006 66.3153 122.716 66.3568 122.414 66.3653C122.111 66.3568 121.821 66.3153 121.528 66.2734C121.192 66.2251 120.85 66.1763 120.48 66.1763C120.34 66.1744 120.2 66.1756 120.06 66.1768H120.06C119.9 66.1782 119.741 66.1795 119.582 66.1763C119.212 66.1763 118.872 66.2252 118.535 66.2734C118.243 66.3153 117.955 66.3568 117.652 66.3653C117.35 66.3567 117.061 66.3153 116.769 66.2734C116.432 66.2251 116.092 66.1763 115.722 66.1763C115.582 66.1744 115.442 66.1756 115.303 66.1768C115.144 66.1782 114.985 66.1795 114.827 66.1763C114.457 66.1763 114.117 66.2251 113.78 66.2733C113.487 66.3153 113.197 66.3568 112.894 66.3653C112.592 66.3568 112.302 66.3153 112.009 66.2734C111.672 66.2251 111.331 66.1763 110.961 66.1763C110.821 66.1744 110.68 66.1756 110.54 66.1768H110.54C110.38 66.1782 110.221 66.1795 110.063 66.1763C109.693 66.1763 109.352 66.2252 109.016 66.2734C108.724 66.3153 108.435 66.3568 108.132 66.3653C108.032 66.3626 107.933 66.3557 107.834 66.3464L107.758 66.4789H108.52C108.89 66.4789 109.23 66.4301 109.565 66.3818C109.856 66.34 110.144 66.2986 110.447 66.2899C110.749 66.2985 111.039 66.3399 111.331 66.3818C111.668 66.4301 112.009 66.4789 112.38 66.4789H113.275C113.644 66.4789 113.986 66.4301 114.323 66.3818C114.615 66.3399 114.905 66.2985 115.208 66.2899C115.511 66.2985 115.801 66.3399 116.095 66.3818C116.433 66.4301 116.775 66.4789 117.145 66.4789H118.039C118.409 66.4789 118.75 66.4301 119.086 66.3818C119.378 66.3399 119.667 66.2985 119.97 66.2899C120.272 66.2985 120.561 66.3399 120.853 66.3818C121.189 66.4301 121.529 66.4789 121.899 66.4789H122.797C123.167 66.4789 123.508 66.4301 123.845 66.3819C124.138 66.3399 124.428 66.2985 124.731 66.2899C125.034 66.2985 125.323 66.3399 125.616 66.3819C125.953 66.4301 126.295 66.4789 126.665 66.4789H127.559C127.929 66.4789 128.269 66.4301 128.605 66.3818C128.898 66.3399 129.187 66.2985 129.489 66.2899C129.791 66.2985 130.081 66.3399 130.374 66.3818C130.711 66.4301 131.052 66.4789 131.422 66.4789H132.242L132.164 66.3434Z" fill="#021455"/>
<path d="M132.306 66.5885L131.933 66.6237C131.63 66.6152 131.341 66.5737 131.049 66.5318C130.713 66.4835 130.372 66.4347 130.003 66.4347C129.861 66.4328 129.721 66.434 129.582 66.4352C129.422 66.4366 129.264 66.4379 129.105 66.4347C128.735 66.4347 128.394 66.4836 128.058 66.5318C127.766 66.5737 127.477 66.6152 127.175 66.6237C126.872 66.6152 126.582 66.5737 126.289 66.5318C125.952 66.4835 125.612 66.4347 125.242 66.4347C125.102 66.4328 124.962 66.434 124.823 66.4352C124.663 66.4366 124.505 66.4379 124.347 66.4347C123.977 66.4347 123.636 66.4836 123.299 66.5318C123.006 66.5737 122.716 66.6152 122.414 66.6237C122.111 66.6152 121.821 66.5737 121.528 66.5318C121.191 66.4835 120.85 66.4347 120.48 66.4347C120.34 66.4328 120.2 66.434 120.06 66.4352H120.06C119.9 66.4366 119.741 66.4379 119.582 66.4347C119.212 66.4347 118.872 66.4836 118.535 66.5318C118.243 66.5737 117.955 66.6152 117.652 66.6237C117.35 66.6152 117.061 66.5737 116.769 66.5318C116.432 66.4835 116.092 66.4347 115.722 66.4347C115.581 66.4328 115.442 66.434 115.302 66.4352C115.144 66.4366 114.985 66.4379 114.827 66.4347C114.457 66.4347 114.117 66.4835 113.78 66.5318C113.487 66.5737 113.197 66.6152 112.894 66.6237C112.592 66.6152 112.302 66.5737 112.009 66.5318C111.672 66.4836 111.331 66.4347 110.961 66.4347C110.821 66.4328 110.68 66.434 110.54 66.4352H110.54C110.38 66.4366 110.221 66.4379 110.063 66.4347C109.693 66.4347 109.352 66.4836 109.016 66.5318C108.724 66.5737 108.435 66.6152 108.132 66.6237C107.983 66.6196 107.838 66.6067 107.694 66.5898L107.609 66.7366L107.625 66.7373H108.52C108.89 66.7373 109.23 66.6885 109.565 66.6403C109.856 66.5984 110.144 66.557 110.447 66.5483C110.749 66.5569 111.039 66.5983 111.331 66.6402C111.668 66.6885 112.009 66.7373 112.38 66.7373H113.275C113.644 66.7373 113.986 66.6885 114.323 66.6403C114.615 66.5983 114.905 66.5569 115.208 66.5483C115.511 66.5569 115.801 66.5983 116.095 66.6403C116.433 66.6885 116.775 66.7373 117.145 66.7373H118.039C118.409 66.7373 118.75 66.6885 119.086 66.6402C119.378 66.5983 119.667 66.5569 119.97 66.5483C120.272 66.5569 120.561 66.5983 120.853 66.6403C121.189 66.6885 121.529 66.7373 121.899 66.7373H122.797C123.167 66.7373 123.508 66.6885 123.845 66.6403C124.138 66.5984 124.428 66.5569 124.731 66.5483C125.034 66.5569 125.323 66.5983 125.616 66.6403C125.953 66.6885 126.295 66.7373 126.665 66.7373H127.559C127.929 66.7373 128.269 66.6885 128.605 66.6402C128.898 66.5983 129.187 66.5569 129.489 66.5483C129.791 66.5569 130.081 66.5983 130.374 66.6402C130.711 66.6885 131.052 66.7373 131.422 66.7373H132.317L132.39 66.7342L132.306 66.5885Z" fill="#021455"/>
<path d="M132.446 66.8324L131.933 66.8809C131.63 66.8724 131.341 66.8309 131.049 66.789C130.713 66.7407 130.372 66.6919 130.003 66.6919C129.861 66.69 129.721 66.6912 129.582 66.6924C129.422 66.6938 129.264 66.6951 129.105 66.6919C128.735 66.6919 128.394 66.7408 128.058 66.789C127.766 66.8309 127.477 66.8724 127.175 66.8809C126.872 66.8724 126.582 66.8309 126.289 66.789C125.952 66.7407 125.612 66.6919 125.242 66.6919C125.102 66.69 124.962 66.6912 124.823 66.6924C124.663 66.6938 124.505 66.6951 124.347 66.6919C123.977 66.6919 123.636 66.7408 123.299 66.789C123.006 66.8309 122.716 66.8724 122.414 66.8809C122.111 66.8724 121.821 66.8309 121.528 66.789C121.192 66.7408 120.85 66.6919 120.48 66.6919C120.34 66.69 120.2 66.6912 120.06 66.6924H120.06C119.9 66.6938 119.741 66.6951 119.582 66.6919C119.212 66.6919 118.872 66.7408 118.535 66.789C118.243 66.8309 117.955 66.8724 117.652 66.8809C117.35 66.8724 117.061 66.8309 116.769 66.789C116.432 66.7408 116.092 66.6919 115.722 66.6919C115.582 66.69 115.442 66.6912 115.303 66.6924H115.302C115.144 66.6938 114.985 66.6951 114.827 66.6919C114.457 66.6919 114.117 66.7407 113.78 66.789C113.487 66.8309 113.197 66.8724 112.894 66.8809C112.592 66.8724 112.302 66.8309 112.009 66.789C111.672 66.7408 111.331 66.6919 110.961 66.6919C110.821 66.69 110.68 66.6912 110.54 66.6924H110.54C110.38 66.6938 110.221 66.6951 110.063 66.6919C109.693 66.6919 109.352 66.7408 109.016 66.789C108.724 66.8309 108.435 66.8724 108.132 66.8809C107.935 66.8755 107.745 66.8547 107.555 66.8296L107.464 66.9877L107.625 66.9945H108.52C108.89 66.9945 109.23 66.9457 109.565 66.8975C109.856 66.8556 110.144 66.8142 110.447 66.8055C110.749 66.8141 111.039 66.8555 111.331 66.8974C111.668 66.9457 112.009 66.9945 112.38 66.9945H113.275C113.644 66.9945 113.986 66.9457 114.323 66.8975C114.615 66.8555 114.905 66.8141 115.208 66.8055C115.511 66.8141 115.801 66.8555 116.095 66.8975C116.433 66.9457 116.775 66.9945 117.145 66.9945H118.039C118.409 66.9945 118.75 66.9457 119.086 66.8974C119.378 66.8555 119.667 66.8141 119.97 66.8055C120.272 66.8141 120.561 66.8555 120.853 66.8975C121.189 66.9457 121.529 66.9945 121.899 66.9945H122.797C123.167 66.9945 123.508 66.9457 123.845 66.8975C124.138 66.8556 124.428 66.8141 124.731 66.8055C125.034 66.8141 125.323 66.8555 125.616 66.8975C125.953 66.9457 126.295 66.9945 126.665 66.9945H127.559C127.929 66.9945 128.269 66.9457 128.605 66.8974C128.898 66.8555 129.187 66.8141 129.489 66.8055C129.791 66.8141 130.081 66.8555 130.374 66.8974C130.711 66.9457 131.052 66.9945 131.422 66.9945H132.317L132.535 66.9851L132.446 66.8324Z" fill="#021455"/>
<path d="M109.016 67.0468C109.352 66.9986 109.693 66.9497 110.063 66.9497C110.221 66.9529 110.38 66.9516 110.54 66.9502H110.54C110.68 66.949 110.821 66.9478 110.961 66.9497C111.331 66.9497 111.672 66.9986 112.009 67.0468C112.302 67.0887 112.592 67.1302 112.894 67.1387C113.197 67.1302 113.487 67.0887 113.78 67.0468C114.117 66.9985 114.457 66.9497 114.827 66.9497C114.985 66.9529 115.144 66.9516 115.302 66.9502H115.303C115.442 66.949 115.582 66.9478 115.722 66.9497C116.092 66.9497 116.432 66.9985 116.769 67.0468C117.061 67.0887 117.35 67.1302 117.652 67.1387C117.955 67.1302 118.243 67.0887 118.535 67.0468C118.872 66.9986 119.212 66.9497 119.582 66.9497C119.741 66.9529 119.9 66.9516 120.06 66.9502H120.06C120.2 66.949 120.34 66.9478 120.48 66.9497C120.85 66.9497 121.191 66.9986 121.528 67.0468C121.821 67.0887 122.111 67.1302 122.414 67.1387C122.716 67.1302 123.006 67.0887 123.299 67.0468C123.636 66.9986 123.977 66.9497 124.347 66.9497C124.505 66.9529 124.663 66.9516 124.823 66.9502C124.962 66.949 125.102 66.9478 125.242 66.9497C125.612 66.9497 125.952 66.9985 126.289 67.0468C126.582 67.0887 126.872 67.1302 127.175 67.1387C127.477 67.1302 127.766 67.0887 128.058 67.0468C128.394 66.9986 128.735 66.9497 129.105 66.9497C129.264 66.9529 129.422 66.9516 129.582 66.9502C129.721 66.949 129.861 66.9478 130.003 66.9497C130.372 66.9497 130.713 66.9985 131.049 67.0468C131.341 67.0887 131.63 67.1302 131.933 67.1387L132.58 67.0775L132.673 67.2369L132.317 67.2523H131.422C131.052 67.2523 130.711 67.2035 130.374 67.1553C130.081 67.1133 129.791 67.0719 129.489 67.0633C129.187 67.0719 128.898 67.1133 128.605 67.1552C128.269 67.2035 127.929 67.2523 127.559 67.2523H126.665C126.295 67.2523 125.953 67.2035 125.616 67.1553C125.323 67.1133 125.034 67.0719 124.731 67.0633C124.428 67.0719 124.138 67.1134 123.845 67.1553C123.508 67.2035 123.167 67.2523 122.797 67.2523H121.899C121.529 67.2523 121.189 67.2035 120.853 67.1553C120.561 67.1133 120.272 67.0719 119.97 67.0633C119.667 67.0719 119.378 67.1133 119.086 67.1552C118.75 67.2035 118.409 67.2523 118.039 67.2523H117.145C116.775 67.2523 116.433 67.2035 116.095 67.1553C115.801 67.1133 115.511 67.0719 115.208 67.0633C114.905 67.0719 114.615 67.1133 114.323 67.1553C113.986 67.2035 113.644 67.2523 113.275 67.2523H112.38C112.009 67.2523 111.668 67.2035 111.331 67.1552C111.039 67.1133 110.749 67.0719 110.447 67.0633C110.144 67.072 109.856 67.1134 109.565 67.1553C109.23 67.2035 108.89 67.2523 108.52 67.2523H107.625L107.327 67.2397L107.425 67.0697C107.659 67.1021 107.89 67.1321 108.132 67.1387C108.435 67.1302 108.724 67.0887 109.016 67.0468Z" fill="#021455"/>
<path d="M108.284 65.7793L108.769 64.9411L110.598 64.7111L130.848 64.2659C130.85 64.2659 130.853 64.2657 130.855 64.2656C130.859 64.2653 130.862 64.2651 130.866 64.2651L131.234 64.9157C131.066 64.9117 130.916 64.9032 130.769 64.8948C130.43 64.8755 130.1 64.8567 129.573 64.8939C129.29 64.9139 129.011 64.9566 128.728 65C128.255 65.0726 127.771 65.1468 127.239 65.1181C126.713 65.1181 126.407 65.0737 126.1 65.0292C125.751 64.9785 125.401 64.9277 124.723 64.9427C124.125 64.9558 123.79 65.0256 123.48 65.09C123.173 65.1538 122.892 65.2123 122.407 65.2047C122.034 65.1989 121.694 65.1742 121.373 65.1508C120.856 65.1133 120.384 65.0789 119.887 65.1309C119.565 65.1646 119.218 65.2194 118.879 65.2731C118.367 65.3539 117.87 65.4325 117.492 65.4333C117.177 65.4319 116.862 65.4007 116.545 65.3694C116.075 65.3229 115.599 65.2758 115.111 65.3243C114.79 65.3562 114.536 65.4093 114.285 65.4618C113.896 65.5431 113.514 65.623 112.898 65.6213C112.448 65.62 111.994 65.5709 111.559 65.5238C111.153 65.4799 110.764 65.4378 110.411 65.4381C109.916 65.4386 109.349 65.5598 108.859 65.6646C108.649 65.7094 108.454 65.7512 108.284 65.7793Z" fill="#B1EB50"/>
<path d="M130.783 64.9845L130.014 64.9297C130.216 64.9152 130.51 64.9276 130.768 64.9385C131.024 64.9492 131.243 64.9585 131.3 64.9384L131.374 65.0346C131.177 65.0211 130.98 65.0044 130.783 64.9845Z" fill="white"/>
<path d="M120 44.9749L113.572 56.1121L107 67.4919L119.86 67.4905L133 67.4919L126.569 56.3553L120 44.9749ZM120 45.5753L126.31 56.5057L132.48 67.1912L119.86 67.1905L107.519 67.1912L113.831 56.2623L120 45.5753Z" fill="#D3AE3B"/>
</svg>
