<svg width="240" height="120" viewBox="0 0 240 120" fill="none" xmlns="http://www.w3.org/2000/svg">
<path d="M240 0H0V120H240V0Z" fill="#021455"/>
<path d="M120 0H0V60H120V0Z" fill="#021455"/>
<path d="M0 6.70821L46.5836 30L0 53.2918V60H13.4164L60 36.7082L106.584 60H120V53.2918L73.4164 30L120 6.70819V0H106.584L60 23.2918L13.4164 0H0V6.70821Z" fill="white"/>
<path d="M0 4.47214L51.0557 30H60L0 60H8.94426L60 34.4721L60 30L120 60V55.5279L68.9443 30H60L120 0H111.056L60 25.5279L60 30L0 0V4.47214Z" fill="#E23726"/>
<path d="M0 20V40H50V60H70V40H120V20H70V0H50V20H0Z" fill="white"/>
<path d="M0 24V36H54V60H66V36H120V24H66V0H54V24H0Z" fill="#E23726"/>
<path d="M182.144 21.0496L180.001 14.4526L177.857 21.0496H170.92L176.532 25.127L174.389 31.7239L180 27.6467L185.612 31.7239L183.469 25.127L189.081 21.0496H182.144Z" fill="white"/>
<path d="M206.854 45.6626L211.847 42.0343H205.675L203.768 36.1638L201.86 42.0343H195.688L200.681 45.6626L198.774 51.5329L203.767 47.9049L208.761 51.5328L206.854 45.6626Z" fill="white"/>
<path d="M161.353 48.9465L155.741 53.0239L157.884 59.6207L152.273 55.5436L146.661 59.6207L148.805 53.0233L143.193 48.9465H150.13L152.273 42.3495L154.417 48.9465H161.353Z" fill="white"/>
<path d="M182.38 92.7246L180 85.4011L177.62 92.7246H169.921L176.15 97.2506L173.771 104.574L180.001 100.048L186.231 104.574L183.851 97.2506L190.08 92.7246H182.38Z" fill="white"/>
<path d="M181.416 22.0506L180 17.6914L178.584 22.0506H174L177.708 24.7448L176.292 29.104L180 26.4101L183.708 29.104L182.291 24.7448L186 22.0506L181.416 22.0506Z" fill="#E23726"/>
<path d="M205.677 45.2802L208.767 43.0351H204.948L203.767 39.4025L202.587 43.0351H198.768L201.858 45.2802L200.677 48.913L203.767 46.6679L206.858 48.913L205.677 45.2802Z" fill="#E23726"/>
<path d="M146.273 49.9473L149.982 52.6416L148.565 57.0008L152.274 54.3066L155.982 57.0008L154.565 52.641L158.273 49.9473H153.69L152.273 45.5881L150.857 49.9473H146.273Z" fill="#E23726"/>
<path d="M181.654 93.7257L180.001 88.64L178.349 93.7257H173.001L177.328 96.8691L175.675 101.955L180.001 98.8117L184.327 101.955L182.675 96.8691L187.001 93.7257H181.654Z" fill="#E23726"/>
</svg>
