<svg width="240" height="120" viewBox="0 0 240 120" fill="none" xmlns="http://www.w3.org/2000/svg">
<g clip-path="url(#clip0_307_33389)">
<path d="M240 0H0V120H240V0Z" fill="#021455"/>
<path d="M182.144 21.0498L180.001 14.4528L177.857 21.0498H170.92L176.532 25.1272L174.389 31.724L180.001 27.6468L185.612 31.724L183.469 25.1272L189.081 21.0498H182.144Z" fill="white"/>
<path d="M206.854 45.6627L211.848 42.0344H205.676L203.768 36.1639L201.861 42.0344H195.688L200.682 45.6627L198.774 51.533L203.768 47.905L208.761 51.533L206.854 45.6627Z" fill="white"/>
<path d="M161.353 48.9466L155.741 53.024L157.885 59.6208L152.273 55.5437L146.661 59.6208L148.805 53.0234L143.194 48.9466H150.13L152.273 42.3496L154.417 48.9466H161.353Z" fill="white"/>
<path d="M182.38 92.7248L180 85.4012L177.621 92.7248H169.921L176.151 97.2507L173.771 104.575L180.001 100.048L186.231 104.575L183.851 97.2507L190.081 92.7248H182.38Z" fill="white"/>
<path d="M181.417 22.0505L180 17.6913L178.584 22.0505H174L177.709 24.7447L176.292 29.1039L180 26.41L183.708 29.1039L182.291 24.7447L186 22.0505L181.417 22.0505Z" fill="#D91C16"/>
<path d="M205.677 45.2801L208.768 43.035H204.948L203.767 39.4023L202.587 43.035H198.768L201.858 45.2801L200.678 48.9129L203.768 46.6678L206.858 48.9129L205.677 45.2801Z" fill="#D91C16"/>
<path d="M146.274 49.9472L149.982 52.6415L148.566 57.0007L152.274 54.3065L155.982 57.0007L154.566 52.6409L158.273 49.9472H153.69L152.274 45.588L150.857 49.9472H146.274Z" fill="#D91C16"/>
<path d="M181.654 93.7256L180.001 88.6399L178.349 93.7256H173.001L177.328 96.869L175.675 101.955L180.001 98.8116L184.327 101.955L182.675 96.869L187.002 93.7256H181.654Z" fill="#D91C16"/>
<g clip-path="url(#clip1_307_33389)">
<mask id="mask0_307_33389" style="mask-type:luminance" maskUnits="userSpaceOnUse" x="0" y="0" width="120" height="60">
<path d="M120 0H0V60H120V0Z" fill="white"/>
</mask>
<g mask="url(#mask0_307_33389)">
<path d="M0 0V60H120V0H0Z" fill="#021455"/>
<path d="M13.4165 0L60 23.2915L106.584 0H120V6.708L73.4165 30L120 53.2915V60H106.584L60 36.708L13.4165 60H0V53.2915L46.5835 30L0 6.708V0H13.4165Z" fill="white"/>
<path d="M60 34.4721L8.94435 60H0L60 30V34.4721Z" fill="#D91C16"/>
<path d="M68.9445 30L120 55.528V60L60 30H68.9445Z" fill="#D91C16"/>
<path d="M60 30V25.5278L111.055 0H120L60 30Z" fill="#D91C16"/>
<path d="M60 30H51.0555L0 4.47217V0L60 30Z" fill="#D91C16"/>
<path d="M70 0V20H120V40H70V60H50V40H0V20H50V0H70Z" fill="white"/>
<path d="M66 0V24H120V36H66V60H54V36H0V24H54V0H66Z" fill="#D91C16"/>
</g>
</g>
</g>
<defs>
<clipPath id="clip0_307_33389">
<rect width="240" height="120" fill="white"/>
</clipPath>
<clipPath id="clip1_307_33389">
<rect width="120" height="60" fill="white"/>
</clipPath>
</defs>
</svg>
