<svg width="240" height="120" viewBox="0 0 240 120" fill="none" xmlns="http://www.w3.org/2000/svg">
<g clip-path="url(#clip0_354_475)">
<path d="M0 0H240V120H0V0Z" fill="#D91C16"/>
<path d="M0 30H240V90H0V30Z" fill="white"/>
<path d="M107.776 36.7767L112.947 47.2276C112.947 47.2276 113.012 36.4348 113.987 35.8565L113.259 34.5325C111.333 35.0668 109.496 35.8244 107.776 36.7767Z" fill="#FF5C26"/>
<path d="M105.98 37.8705L113.176 49.0253L113.158 53.2642L109.015 49.2958C109.015 49.2958 108.426 49.2736 108.427 48.858C108.429 48.623 108.553 48.5267 108.684 48.4246C108.834 48.3082 108.994 48.1841 108.994 47.8384C108.994 47.4938 108.774 47.3443 108.569 47.204C108.387 47.0803 108.217 46.9638 108.217 46.727C108.217 46.4968 108.324 46.3928 108.441 46.2795C108.582 46.1442 108.735 45.9956 108.735 45.6029C108.735 45.0166 108.197 44.9989 107.447 44.9743C107.274 44.9686 107.09 44.9625 106.898 44.949C105.876 44.8768 104.873 44.9457 104.751 45.3984L101.415 41.7399C102.785 40.2789 104.316 38.9789 105.98 37.8705Z" fill="#FF5C26"/>
<path d="M125.833 34.2983L123.674 41.7606C124.347 41.8407 125.027 41.8623 125.704 41.8248C126.118 41.8603 126.031 42.1354 125.943 42.4139C125.902 42.5451 125.861 42.677 125.871 42.7851L125.862 47.3765C127.891 43.793 129.92 40.2092 131.949 36.6256C131.468 36.3671 130.979 36.1237 130.481 35.8961C129.53 35.4913 128.554 35.146 127.574 34.8204C127.079 34.6459 126.578 34.4915 126.072 34.3563C125.992 34.3366 125.912 34.3173 125.833 34.2983Z" fill="#FF5C26"/>
<path d="M133.397 37.4663L125.88 49.0213L125.871 53.4916C126.51 52.8838 127.15 52.2773 127.79 51.6707L127.792 51.6692L127.795 51.6663C128.838 50.678 129.88 49.6897 130.918 48.6961C131.06 48.4952 130.874 48.34 130.684 48.1809C130.448 47.9836 130.205 47.7803 130.572 47.4763C131.173 47.2867 131.275 46.3154 130.642 46.1288C130.121 45.3629 131.114 44.957 131.74 45.0408C132.057 45.0553 132.377 45.0342 132.698 45.0131C133.259 44.9761 133.82 44.9391 134.362 45.0932C134.663 45.3808 134.949 45.0212 135.236 44.6592C135.397 44.4564 135.559 44.2529 135.724 44.1619L135.954 43.9311C136.758 43.1226 137.561 42.314 138.357 41.4971C136.874 39.9553 135.209 38.5994 133.397 37.4663Z" fill="#FF5C26"/>
<path d="M139.616 42.9045L134.744 46.5885C134.749 46.7937 134.868 46.9719 134.987 47.151C135.077 47.2856 135.167 47.4207 135.21 47.5683C135.412 47.9932 135.083 48.3746 134.809 48.6925C134.771 48.7358 134.735 48.778 134.701 48.8189C134.536 49.0456 134.746 49.1922 134.937 49.326C135.012 49.3779 135.083 49.4279 135.129 49.4798C135.49 49.8501 135.176 50.4301 134.791 50.6455C135.254 50.9223 135.488 51.4405 135.59 51.9509L142.999 48.0967C142.07 46.2268 140.932 44.4852 139.616 42.9045Z" fill="#FF5C26"/>
<path d="M145.711 57.8861L135.367 58.6564L135.44 64.2116L145.149 64.2118L145.795 59.5312C145.783 58.9785 145.755 58.4299 145.711 57.8861Z" fill="#FF5C26"/>
<path d="M94.4962 64.1427L103.465 64.2118V58.512L94.2771 58.0734C94.2268 58.7494 94.2012 59.4325 94.2012 60.1217C94.2012 61.4887 94.3019 62.8315 94.4962 64.1427Z" fill="#FF5C26"/>
<path d="M94.4624 56.3357L103.611 57.2128L103.538 53.1725L96.0553 50.2371C95.2993 52.1679 94.7582 54.2111 94.4624 56.3357Z" fill="#FF5C26"/>
<path d="M100.073 43.2874C98.7635 44.9215 97.6406 46.7196 96.738 48.6471L103.318 51.8039L104.392 50.6961C104.392 50.6961 103.701 50.2252 103.735 49.792C103.741 49.5774 103.908 49.452 104.078 49.324C104.256 49.1906 104.437 49.0544 104.443 48.8116C104.45 48.5909 104.254 48.468 104.056 48.3443C103.862 48.2225 103.666 48.0999 103.662 47.8823C103.61 47.4071 104.267 46.8976 104.267 46.8976L100.073 43.2874Z" fill="#FF5C26"/>
<path d="M108.796 51.5129V54.3987L113.158 56.6175L113.194 54.3087C112.645 53.9359 111.919 53.3029 111.197 52.6735C109.778 51.4352 108.374 50.2105 108.358 51.0077C108.285 51.5849 108.796 51.5129 108.796 51.5129Z" fill="#FF5C26"/>
<path d="M108.796 56.9962V55.2645L113.176 57.1223L108.796 56.9962Z" fill="#FF5C26"/>
<path d="M145.386 56.1877C145.263 55.2859 145.135 54.3862 144.926 53.5018C144.646 52.3177 144.289 51.1526 143.855 50.0175C143.839 49.9745 143.818 49.9333 143.798 49.8921C143.778 49.853 143.758 49.8139 143.743 49.7733L135.44 53.248L135.516 57.3616L145.386 56.1877Z" fill="#FF5C26"/>
<path d="M130.04 57.068L130.113 55.4081L125.879 57.2482L130.04 57.068Z" fill="#FF5C26"/>
<path d="M125.858 54.471C125.858 54.471 129.8 50.954 130.639 50.3045C130.639 51.0261 130.184 51.5849 130.184 51.5849V54.3267L125.876 56.3467L125.858 54.471Z" fill="#FF5C26"/>
<path d="M130.583 84.3003C127.354 85.794 123.772 86.625 120.001 86.625C116.165 86.625 112.524 85.765 109.252 84.2223C110.162 83.525 111.997 82.2856 113.937 82.1761C114.01 82.172 114.074 82.1734 114.13 82.1745C114.154 82.175 114.177 82.1755 114.198 82.1755C115.592 82.1755 116.518 82.7348 117.271 83.276C117.36 83.3397 117.446 83.4028 117.531 83.4646C118.165 83.9278 118.702 84.3202 119.41 84.3836C120.191 84.4537 120.972 83.9973 121.865 83.4539L121.892 83.4376C122.779 82.8982 123.77 82.295 124.987 82.2512C126.209 82.2071 127.517 82.6793 128.536 83.1504C129.554 83.6214 130.287 84.1048 130.287 84.1048L130.583 84.3003Z" fill="#0F3296"/>
<path d="M135.413 81.379L104.418 81.2467C103.77 80.741 103.145 80.2045 102.546 79.6393C103.031 79.4403 103.87 79.1016 104.78 78.7592C105.49 78.492 106.245 78.2221 106.914 78.0131C107.583 77.8042 108.152 77.6529 108.563 77.6316C109.303 77.5928 110.122 77.9732 110.985 78.3739L110.987 78.3746C111.093 78.4241 111.201 78.4739 111.308 78.5232C112.29 78.9725 113.306 79.3951 114.115 79.3632C114.9 79.332 115.623 79.0183 116.435 78.6656L116.602 78.5931C117.484 78.2119 118.478 77.8131 119.738 77.7754C120.965 77.7388 121.789 78.171 122.551 78.5701L122.646 78.6201C123.435 79.032 124.171 79.3943 125.417 79.2916C126.523 79.2006 126.892 78.9083 127.333 78.5579L127.334 78.5572C127.394 78.5098 127.455 78.4614 127.519 78.4123C128.06 77.9994 128.8 77.5944 130.557 77.6316C133.269 77.6886 135.613 79.5097 136.606 80.407C136.218 80.7427 135.82 81.0669 135.413 81.379Z" fill="#0F3296"/>
<path d="M139.555 77.4125L100.334 77.2763C99.842 76.6819 99.3752 76.0648 98.9352 75.4269C99.1164 75.3168 99.3163 75.1906 99.529 75.0563C99.7118 74.9408 99.9043 74.8192 100.103 74.6968C101.133 74.0603 102.302 73.3732 103.321 73.3732C104.302 73.3732 105.169 73.9447 106.008 74.4976L106.044 74.5213C106.895 75.0814 107.721 75.6191 108.527 75.6829C109.295 75.7435 109.945 75.2907 110.726 74.7464L110.784 74.7056C111.592 74.1434 112.536 73.517 113.833 73.517C115.122 73.517 116.129 74.0772 117.02 74.6035L117.127 74.6672C117.973 75.1679 118.719 75.6095 119.527 75.6095C120.377 75.6095 121.313 75.154 122.279 74.6586L122.406 74.5931C123.332 74.1174 124.285 73.6278 125.283 73.5898C126.34 73.5495 127.323 74.1071 128.242 74.6289L128.257 74.6375C129.181 75.1618 130.046 75.6406 130.757 75.6101C131.471 75.5793 132.208 75.115 133.024 74.6007L133.07 74.5718C133.904 74.0461 134.828 73.4846 135.943 73.4454L135.96 73.4448L135.978 73.446C137.296 73.561 138.626 74.1958 139.571 74.9316C140.028 75.2875 140.396 75.6655 140.626 76.0471C140.283 76.5145 139.926 76.9699 139.555 77.4125Z" fill="#0F3296"/>
<path d="M95.7272 69.1233C95.3855 68.1513 95.0976 67.1528 94.8672 66.1317C95.0452 66.3022 95.3538 66.5796 95.7408 66.8543C96.3631 67.2961 97.1776 67.7072 97.9049 67.6761C98.4623 67.6521 99.1381 67.2611 99.8941 66.8238C100.087 66.7123 100.285 66.5979 100.487 66.4857C101.235 66.0714 102.075 65.6974 102.988 65.7197C103.292 65.7271 103.604 65.7784 103.924 65.887L104.111 65.951L104.12 66.1476C104.19 67.596 104.75 68.7784 104.75 68.7784L104.949 69.1963L95.7272 69.1233Z" fill="#0F3296"/>
<path d="M97.4842 73.0697C97.0462 72.2677 96.6476 71.4398 96.2912 70.589C96.8382 70.1806 97.4436 69.8593 98.0611 69.8302C98.927 69.7895 99.7158 70.2493 100.476 70.6922L100.585 70.7559C101.379 71.2171 102.141 71.6352 102.847 71.6035C103.643 71.5677 103.922 71.4543 104.124 71.3135C104.192 71.2663 104.258 71.2069 104.332 71.1394C104.48 71.0058 104.662 70.8408 104.966 70.6772L105.227 70.5363L105.362 70.8017C105.541 71.1553 106.039 71.6167 106.492 71.9568C106.945 72.2969 107.343 72.5297 107.343 72.5297L108.267 73.0697H97.4842Z" fill="#0F3296"/>
<path d="M143.461 71.167C143.171 71.8157 142.856 72.4504 142.518 73.0697H130.793L131.718 72.5297C131.718 72.5297 132.116 72.2969 132.569 71.9568C133.022 71.6167 133.521 71.1553 133.699 70.8017L133.834 70.5363L134.096 70.6772C134.399 70.8407 134.581 71.0057 134.728 71.1393C134.803 71.2067 134.868 71.2662 134.936 71.3135C135.139 71.4543 135.418 71.5677 136.214 71.6035C136.92 71.6352 137.683 71.2171 138.476 70.7559L138.585 70.6922C139.345 70.2493 140.134 69.7895 141 69.8302C141.892 69.8722 142.759 70.5241 143.461 71.167Z" fill="#0F3296"/>
<path d="M135.275 65.887C135.595 65.7784 135.907 65.7271 136.212 65.7197C137.125 65.6974 137.964 66.0714 138.712 66.4857C138.914 66.5977 139.111 66.712 139.304 66.8232C140.06 67.2608 140.737 67.6521 141.294 67.6761C142.022 67.7072 142.837 67.2961 143.459 66.8543C144.081 66.4125 144.501 65.9639 144.501 65.9639L144.986 66.2585L143.968 69.1194L134.25 69.1963L134.45 68.7784C134.45 68.7784 135.009 67.5959 135.079 66.1476L135.088 65.951L135.275 65.887Z" fill="#0F3296"/>
<path d="M119.582 69.7569C118.064 69.8 116.845 70.5809 116.012 71.337C115.595 71.716 115.271 72.0902 115.051 72.3718C114.83 72.6534 114.709 72.8496 114.709 72.8496L114.665 73.2922L124.78 73.2863L124.486 72.8379C124.486 72.8379 123.949 72.0172 123.079 71.2249C122.21 70.4337 120.986 69.6397 119.582 69.7569Z" fill="#0F3296"/>
<path d="M119.526 67.0985C118.261 67.0985 117.577 67.5168 117.253 67.9801C116.929 68.4434 116.974 68.931 116.974 68.931L117 69.1928L122.138 69.1958L122.151 68.9199C122.151 68.9199 122.171 68.4321 121.829 67.9737C121.487 67.5154 120.791 67.0985 119.526 67.0985Z" fill="#0F3296"/>
<path d="M113.276 64.7325L117.224 64.6421L116.908 65.266C116.346 66.3767 115.502 66.8834 114.689 67.3216L114.596 67.3715H110.349L110.875 66.6953C111.695 65.6426 113.181 64.7888 113.181 64.7888L113.276 64.7325Z" fill="#8A1538"/>
<path d="M122.218 65.266L121.902 64.6421L125.85 64.7325L125.944 64.7888C125.944 64.7888 127.431 65.6431 128.25 66.6959L128.777 67.3715H124.53L124.436 67.3216C123.624 66.8834 122.779 66.3767 122.218 65.266Z" fill="#8A1538"/>
<path d="M108.796 63.5044C108.741 63.5042 108.687 63.5148 108.636 63.5357C108.585 63.5566 108.539 63.5873 108.5 63.626C108.461 63.6648 108.43 63.7108 108.408 63.7616C108.387 63.8123 108.376 63.8667 108.376 63.9217C108.376 63.9767 108.386 64.0312 108.407 64.0821C108.428 64.133 108.459 64.1793 108.498 64.2183C108.536 64.2573 108.582 64.2884 108.633 64.3096C108.684 64.3308 108.738 64.3418 108.793 64.342L130.402 64.4142C130.457 64.4144 130.511 64.4038 130.562 64.3829C130.613 64.362 130.66 64.3313 130.699 64.2926C130.738 64.2538 130.769 64.2078 130.79 64.157C130.811 64.1063 130.822 64.0519 130.822 63.9969C130.822 63.9419 130.812 63.8874 130.791 63.8365C130.77 63.7856 130.739 63.7393 130.701 63.7003C130.662 63.6612 130.616 63.6302 130.565 63.609C130.514 63.5878 130.46 63.5768 130.405 63.5766L108.796 63.5044Z" fill="#8A1538"/>
<path d="M110.992 58.2772C111.073 58.2015 111.181 58.161 111.292 58.1648C111.347 58.1666 111.401 58.1793 111.451 58.202C111.501 58.2248 111.546 58.2572 111.584 58.2973C111.621 58.3375 111.65 58.3847 111.67 58.4362C111.689 58.4876 111.698 58.5424 111.696 58.5974L111.671 59.3224L112.27 58.6051C112.342 58.52 112.444 58.4667 112.554 58.4568C112.665 58.4468 112.775 58.4812 112.86 58.5522C112.902 58.5875 112.937 58.6307 112.962 58.6795C112.988 58.7282 113.003 58.7815 113.008 58.8362C113.013 58.891 113.007 58.9462 112.991 58.9987C112.975 59.0512 112.948 59.0999 112.913 59.1421L111.695 60.5989L112.706 61.9414C112.773 62.03 112.802 62.1416 112.787 62.2516C112.771 62.3615 112.713 62.4609 112.624 62.5277C112.536 62.5946 112.424 62.6235 112.314 62.6081C112.204 62.5927 112.105 62.5342 112.038 62.4456L111.144 61.2586L110.139 62.4609C110.103 62.5031 110.06 62.5379 110.011 62.5634C109.963 62.5889 109.909 62.6046 109.855 62.6095C109.8 62.6144 109.745 62.6084 109.692 62.592C109.64 62.5756 109.591 62.549 109.549 62.5137C109.507 62.4784 109.472 62.4352 109.446 62.3865C109.421 62.3377 109.405 62.2845 109.4 62.2297C109.395 62.1749 109.401 62.1197 109.418 62.0672C109.434 62.0147 109.461 61.966 109.496 61.9238L110.626 60.5719L109.483 59.0547C109.416 58.966 109.387 58.8544 109.402 58.7445C109.418 58.6345 109.476 58.5351 109.565 58.4683C109.609 58.4351 109.659 58.411 109.712 58.3972C109.766 58.3834 109.821 58.3802 109.876 58.3879C109.985 58.4034 110.085 58.4618 110.151 58.5505L110.829 59.4491L110.859 58.5686C110.863 58.4577 110.911 58.3529 110.992 58.2772Z" fill="#8A1538"/>
<path d="M115.081 58.2772C115.162 58.2015 115.27 58.161 115.381 58.1648C115.436 58.1666 115.49 58.1793 115.54 58.202C115.59 58.2248 115.635 58.2572 115.672 58.2973C115.71 58.3375 115.739 58.3847 115.759 58.4362C115.778 58.4876 115.787 58.5424 115.785 58.5974L115.76 59.3224L116.359 58.6051C116.431 58.52 116.533 58.4667 116.643 58.4568C116.754 58.4468 116.863 58.4812 116.949 58.5522C116.991 58.5875 117.026 58.6307 117.051 58.6795C117.077 58.7282 117.092 58.7815 117.097 58.8362C117.102 58.891 117.096 58.9462 117.08 58.9987C117.063 59.0512 117.037 59.0999 117.001 59.1421L115.784 60.5989L116.795 61.9414C116.862 62.03 116.891 62.1416 116.876 62.2516C116.86 62.3615 116.802 62.4609 116.713 62.5277C116.624 62.5946 116.513 62.6235 116.403 62.6081C116.293 62.5927 116.194 62.5342 116.127 62.4456L115.232 61.2586L114.227 62.4609C114.192 62.5031 114.149 62.5379 114.1 62.5634C114.052 62.5889 113.998 62.6046 113.943 62.6095C113.889 62.6144 113.833 62.6084 113.781 62.592C113.729 62.5756 113.68 62.549 113.638 62.5137C113.595 62.4784 113.561 62.4352 113.535 62.3865C113.51 62.3377 113.494 62.2845 113.489 62.2297C113.484 62.1749 113.49 62.1197 113.506 62.0672C113.523 62.0147 113.549 61.966 113.585 61.9238L114.715 60.5719L113.572 59.0547C113.505 58.966 113.476 58.8544 113.491 58.7445C113.507 58.6345 113.565 58.5351 113.654 58.4683C113.698 58.4351 113.748 58.411 113.801 58.3972C113.854 58.3834 113.91 58.3802 113.964 58.3879C114.074 58.4034 114.173 58.4618 114.24 58.5505L114.917 59.4491L114.948 58.5686C114.952 58.4577 115 58.3529 115.081 58.2772Z" fill="#8A1538"/>
<path d="M119.241 58.2772C119.322 58.2015 119.43 58.1611 119.541 58.1648C119.596 58.1667 119.65 58.1793 119.7 58.2021C119.75 58.2248 119.795 58.2572 119.833 58.2974C119.871 58.3375 119.9 58.3847 119.919 58.4362C119.938 58.4877 119.947 58.5425 119.946 58.5974L119.92 59.3224L120.52 58.6051C120.591 58.52 120.693 58.4667 120.804 58.4568C120.914 58.4469 121.024 58.4812 121.109 58.5523C121.151 58.5875 121.186 58.6308 121.212 58.6795C121.237 58.7282 121.253 58.7815 121.258 58.8363C121.263 58.8911 121.257 58.9463 121.24 58.9988C121.224 59.0513 121.197 59.1 121.162 59.1422L119.944 60.599L120.956 61.9414C121.023 62.0301 121.052 62.1417 121.036 62.2516C121.021 62.3616 120.962 62.4609 120.874 62.5278C120.785 62.5946 120.673 62.6235 120.564 62.6081C120.454 62.5927 120.354 62.5343 120.287 62.4456L119.393 61.2587L118.388 62.4609C118.353 62.5031 118.31 62.538 118.261 62.5635C118.212 62.589 118.159 62.6046 118.104 62.6095C118.049 62.6144 117.994 62.6085 117.942 62.5921C117.889 62.5756 117.84 62.549 117.798 62.5137C117.756 62.4785 117.721 62.4352 117.696 62.3865C117.67 62.3378 117.654 62.2845 117.65 62.2297C117.645 62.1749 117.651 62.1197 117.667 62.0672C117.683 62.0148 117.71 61.966 117.745 61.9238L118.876 60.572L117.732 59.0547C117.665 58.966 117.637 58.8545 117.652 58.7445C117.667 58.6345 117.726 58.5352 117.814 58.4683C117.858 58.4352 117.908 58.411 117.962 58.3972C118.015 58.3834 118.07 58.3803 118.125 58.3879C118.235 58.4034 118.334 58.4619 118.401 58.5505L119.078 59.4492L119.109 58.5687C119.113 58.4578 119.16 58.353 119.241 58.2772Z" fill="#8A1538"/>
<path d="M123.548 58.2772C123.629 58.2015 123.737 58.161 123.848 58.1648C123.903 58.1666 123.957 58.1793 124.007 58.202C124.057 58.2248 124.102 58.2572 124.14 58.2973C124.177 58.3375 124.207 58.3847 124.226 58.4362C124.245 58.4876 124.254 58.5424 124.252 58.5974L124.227 59.3224L124.827 58.6051C124.898 58.52 125 58.4667 125.11 58.4568C125.221 58.4468 125.331 58.4812 125.416 58.5522C125.458 58.5875 125.493 58.6307 125.519 58.6795C125.544 58.7282 125.56 58.7815 125.565 58.8362C125.569 58.891 125.564 58.9462 125.547 58.9987C125.531 59.0512 125.504 59.0999 125.469 59.1421L124.251 60.5989L125.263 61.9414C125.329 62.03 125.358 62.1416 125.343 62.2516C125.328 62.3615 125.269 62.4609 125.18 62.5277C125.092 62.5946 124.98 62.6235 124.87 62.6081C124.76 62.5927 124.661 62.5342 124.594 62.4456L123.7 61.2586L122.695 62.4609C122.66 62.5031 122.616 62.5379 122.568 62.5634C122.519 62.5889 122.466 62.6046 122.411 62.6095C122.356 62.6144 122.301 62.6084 122.248 62.592C122.196 62.5756 122.147 62.549 122.105 62.5137C122.063 62.4784 122.028 62.4352 122.002 62.3865C121.977 62.3377 121.961 62.2845 121.956 62.2297C121.951 62.1749 121.957 62.1197 121.974 62.0672C121.99 62.0147 122.017 61.966 122.052 61.9238L123.182 60.5719L122.039 59.0547C121.972 58.966 121.943 58.8544 121.959 58.7445C121.974 58.6345 122.033 58.5351 122.121 58.4683C122.165 58.4351 122.215 58.411 122.268 58.3972C122.322 58.3834 122.377 58.3802 122.432 58.3879C122.542 58.4034 122.641 58.4618 122.708 58.5505L123.385 59.4491L123.415 58.5686C123.419 58.4577 123.467 58.3529 123.548 58.2772Z" fill="#8A1538"/>
<path d="M127.709 58.2772C127.79 58.2015 127.898 58.161 128.009 58.1648C128.064 58.1666 128.118 58.1793 128.168 58.202C128.218 58.2248 128.263 58.2572 128.301 58.2973C128.338 58.3375 128.368 58.3847 128.387 58.4362C128.406 58.4876 128.415 58.5424 128.413 58.5974L128.388 59.3224L128.988 58.6051C129.059 58.52 129.161 58.4667 129.272 58.4568C129.382 58.4468 129.492 58.4812 129.577 58.5522C129.619 58.5875 129.654 58.6307 129.68 58.6795C129.705 58.7282 129.721 58.7815 129.726 58.8362C129.731 58.891 129.725 58.9462 129.708 58.9987C129.692 59.0512 129.665 59.0999 129.63 59.1421L128.412 60.5989L129.424 61.9414C129.491 62.03 129.52 62.1416 129.504 62.2516C129.489 62.3615 129.43 62.4609 129.342 62.5277C129.253 62.5946 129.141 62.6235 129.031 62.6081C128.921 62.5927 128.822 62.5342 128.755 62.4456L127.861 61.2586L126.856 62.4609C126.821 62.5031 126.777 62.5379 126.729 62.5634C126.68 62.5889 126.627 62.6046 126.572 62.6095C126.517 62.6144 126.462 62.6084 126.409 62.592C126.357 62.5756 126.308 62.549 126.266 62.5137C126.224 62.4784 126.189 62.4352 126.163 62.3865C126.138 62.3377 126.122 62.2845 126.117 62.2297C126.113 62.1749 126.118 62.1197 126.135 62.0672C126.151 62.0147 126.178 61.966 126.213 61.9238L127.343 60.5719L126.2 59.0547C126.133 58.966 126.104 58.8544 126.12 58.7445C126.135 58.6345 126.194 58.5351 126.282 58.4683C126.326 58.4351 126.376 58.411 126.43 58.3972C126.483 58.3834 126.538 58.3802 126.593 58.3879C126.703 58.4034 126.802 58.4618 126.869 58.5505L127.546 59.4491L127.576 58.5686C127.58 58.4577 127.628 58.3529 127.709 58.2772Z" fill="#8A1538"/>
<path d="M114.853 54.1112L124.417 56.6366V43.1444C120.036 43.3611 116.386 34.9196 124.125 34.3426C116.532 33.2603 115.656 35.2083 114.78 37.3006L114.853 54.1112Z" fill="#D91C16"/>
<path d="M119.566 33.7627C118.375 33.8274 117.491 34.0418 116.808 34.3697C115.442 35.0255 114.951 36.1405 114.513 37.1889C114.498 37.2246 114.49 37.2629 114.49 37.3016L114.563 54.1123L114.58 54.0953C114.575 54.1597 114.592 54.2237 114.628 54.2773C114.664 54.3309 114.717 54.371 114.778 54.3911L124.342 56.9169C124.385 56.9282 124.43 56.9295 124.474 56.9208C124.517 56.912 124.558 56.8934 124.593 56.8664C124.628 56.8393 124.657 56.8046 124.677 56.7648C124.696 56.725 124.706 56.6812 124.706 56.6369V43.1443C124.706 43.105 124.698 43.0661 124.683 43.03C124.667 42.9938 124.645 42.9613 124.616 42.9342C124.588 42.9071 124.554 42.8861 124.517 42.8725C124.48 42.8589 124.441 42.8529 124.402 42.8549C123.401 42.9043 122.424 42.458 121.631 41.7285C120.837 40.999 120.24 39.9907 120.008 38.9768C119.777 37.9629 119.902 36.9598 120.518 36.1699C121.134 35.3801 122.265 34.7717 124.146 34.6315C124.217 34.626 124.284 34.5945 124.333 34.543C124.382 34.4915 124.411 34.4236 124.413 34.3522C124.416 34.2809 124.392 34.2112 124.346 34.1565C124.3 34.1018 124.236 34.0659 124.165 34.0557C122.254 33.7832 120.757 33.6981 119.566 33.7627ZM119.603 34.345C120.318 34.3063 121.218 34.3483 122.214 34.4325C121.259 34.746 120.53 35.2126 120.061 35.8136C119.322 36.762 119.183 37.9644 119.444 39.1059C119.705 40.2475 120.357 41.3448 121.239 42.1552C122.043 42.8954 123.052 43.3755 124.126 43.4125V56.26L115.141 53.8881L115.07 37.3679C115.499 36.3445 115.888 35.4539 117.059 34.8921C117.653 34.6067 118.467 34.4066 119.603 34.345Z" fill="#8A1538"/>
<path d="M116.978 66.3066C114.898 69.7116 109.337 68.7017 108.036 66.3248C107.647 66.2156 107.877 51.659 107.877 51.659C107.877 51.659 107.256 51.3793 107.227 50.9317C107.199 50.4797 108.072 50.4387 108.072 49.8601C108.072 49.282 107.18 49.5086 107.162 48.9267C107.166 48.3703 108.115 48.447 108.072 47.9328C108.022 47.3532 107.01 47.439 106.967 46.9048C106.934 46.4804 107.691 46.1103 107.901 45.9194L107.195 45.9092L105.602 45.9413C104.47 45.9426 105.621 46.1851 105.605 46.8304C105.595 47.252 105.031 47.5325 104.981 47.899C104.963 48.2752 105.787 48.5395 105.797 48.9911C105.807 49.394 104.988 49.4214 105.017 49.7958C105.068 50.4294 105.743 50.5688 105.732 50.9525C105.722 51.3356 104.825 51.4817 104.822 51.7874C104.854 52.3789 104.952 66.7558 104.952 66.7558C106.382 74.0797 114.638 75.9429 116.978 66.3066Z" fill="#D91C16"/>
<path d="M107.188 45.6197L105.596 45.652L105.601 45.6514C105.455 45.6515 105.342 45.6556 105.247 45.6655C105.153 45.6753 105.08 45.6765 104.971 45.7465C104.916 45.7815 104.846 45.854 104.823 45.9484C104.799 46.0428 104.824 46.1255 104.847 46.1756C104.894 46.2757 104.939 46.3096 104.982 46.3517C105.154 46.52 105.319 46.6734 105.315 46.823C105.315 46.8232 105.315 46.8234 105.315 46.8236C105.313 46.9069 105.234 47.0307 105.09 47.194C104.946 47.3572 104.737 47.5418 104.693 47.8596C104.692 47.8681 104.691 47.8768 104.691 47.8854C104.681 48.0865 104.782 48.2444 104.882 48.3567C104.981 48.4691 105.092 48.5566 105.193 48.6402C105.294 48.7239 105.385 48.8031 105.44 48.8686C105.494 48.934 105.507 48.9722 105.507 48.9977C105.507 49.0004 105.522 48.9833 105.485 49.0153C105.448 49.0473 105.365 49.0958 105.265 49.1474C105.166 49.199 105.052 49.2534 104.94 49.3481C104.829 49.4429 104.712 49.6203 104.728 49.8189C104.761 50.2359 105.015 50.5082 105.2 50.68C105.292 50.7659 105.369 50.8347 105.407 50.8819C105.445 50.9291 105.442 50.9341 105.442 50.9447C105.443 50.928 105.452 50.9353 105.399 50.9805C105.345 51.0257 105.246 51.0844 105.136 51.1442C105.025 51.2041 104.905 51.2649 104.791 51.3491C104.677 51.4333 104.534 51.5672 104.532 51.7852C104.532 51.7911 104.532 51.797 104.532 51.8028C104.535 51.8498 104.541 52.1549 104.546 52.604C104.552 53.0532 104.559 53.6631 104.566 54.3784C104.579 55.8091 104.594 57.6616 104.609 59.4956C104.637 63.1636 104.662 66.7582 104.662 66.7582C104.662 66.7761 104.664 66.794 104.667 66.8116C105.402 70.5719 107.907 72.9928 110.603 73.1808C111.951 73.2748 113.334 72.7977 114.511 71.6828C115.688 70.5679 116.664 68.824 117.259 66.3749C117.275 66.3078 117.267 66.2372 117.235 66.1758C117.204 66.1144 117.152 66.0662 117.088 66.0398C117.024 66.0135 116.953 66.0107 116.888 66.0319C116.822 66.0532 116.766 66.0972 116.73 66.1559C115.757 67.7495 113.97 68.3138 112.234 68.1951C110.498 68.0764 108.865 67.2369 108.29 66.1859C108.285 66.1814 108.279 66.1771 108.274 66.1729C108.272 66.1681 108.264 66.1377 108.256 66.0919C108.239 65.9971 108.221 65.8411 108.206 65.6417C108.176 65.243 108.153 64.6681 108.136 63.9806C108.103 62.6057 108.096 60.7772 108.1 58.9521C108.109 55.3019 108.167 51.6637 108.167 51.6637C108.168 51.6071 108.152 51.5515 108.122 51.5037C108.091 51.4559 108.048 51.4181 107.996 51.3949C107.996 51.3949 107.87 51.3376 107.743 51.2364C107.615 51.1351 107.522 51.0079 107.516 50.9136C107.515 50.8936 107.507 50.9039 107.55 50.8619C107.593 50.8199 107.686 50.7589 107.797 50.687C107.908 50.6151 108.038 50.5305 108.153 50.4C108.269 50.2694 108.362 50.0781 108.362 49.8605C108.362 49.6415 108.251 49.44 108.116 49.3287C107.981 49.2175 107.842 49.1693 107.73 49.1251C107.617 49.0808 107.531 49.0412 107.494 49.0118C107.46 48.9843 107.457 48.9814 107.455 48.9237C107.456 48.8748 107.46 48.8654 107.505 48.8257C107.552 48.7838 107.647 48.7307 107.762 48.6737C107.878 48.6167 108.013 48.5571 108.14 48.4436C108.268 48.3301 108.378 48.125 108.361 47.9089C108.361 47.9085 108.361 47.9081 108.361 47.9077C108.341 47.6788 108.208 47.4908 108.065 47.3765C107.921 47.2621 107.768 47.1965 107.635 47.137C107.501 47.0774 107.385 47.0232 107.324 46.9773C107.263 46.9317 107.26 46.9238 107.257 46.8822C107.255 46.8646 107.261 46.8297 107.305 46.7672C107.35 46.7043 107.43 46.626 107.524 46.5506C107.712 46.3998 107.932 46.2829 108.096 46.1339C108.139 46.0947 108.169 46.0436 108.183 45.9871C108.196 45.9305 108.193 45.8713 108.172 45.8169C108.151 45.7625 108.115 45.7156 108.067 45.6822C108.02 45.6488 107.963 45.6305 107.905 45.6297L107.198 45.6197C107.195 45.6196 107.192 45.6197 107.188 45.6197ZM107.059 46.202C106.98 46.2727 106.899 46.3396 106.834 46.4303C106.74 46.5622 106.663 46.7328 106.678 46.9275C106.678 46.9277 106.678 46.9279 106.678 46.9281C106.696 47.1529 106.835 47.3353 106.977 47.4417C107.119 47.548 107.268 47.6082 107.399 47.6665C107.529 47.7247 107.641 47.7804 107.703 47.8297C107.765 47.8786 107.777 47.8975 107.782 47.9576C107.786 47.9965 107.793 47.9768 107.755 48.0104C107.717 48.0445 107.623 48.0966 107.506 48.1542C107.389 48.2119 107.25 48.2763 107.119 48.3926C106.989 48.5088 106.874 48.7035 106.873 48.9249C106.873 48.9285 106.873 48.932 106.873 48.9355C106.879 49.1555 106.994 49.3522 107.13 49.462C107.266 49.5719 107.405 49.6204 107.518 49.6645C107.63 49.7087 107.715 49.749 107.748 49.7761C107.781 49.8031 107.782 49.7906 107.782 49.8606C107.782 49.9323 107.766 49.9628 107.718 50.0167C107.671 50.0707 107.585 50.1332 107.481 50.2004C107.378 50.2676 107.257 50.3372 107.144 50.4481C107.031 50.5591 106.925 50.7439 106.938 50.95C106.938 50.9502 106.938 50.9504 106.938 50.9506C106.96 51.3038 107.193 51.5402 107.383 51.6908C107.485 51.772 107.514 51.7771 107.585 51.8164C107.583 51.9727 107.529 55.3762 107.521 58.9504C107.516 60.778 107.524 62.6091 107.557 63.9942C107.574 64.6867 107.597 65.267 107.629 65.6852C107.645 65.8944 107.662 66.062 107.685 66.1924C107.696 66.2576 107.707 66.3122 107.728 66.3708C107.739 66.4001 107.751 66.4307 107.778 66.4706C107.781 66.4758 107.797 66.4818 107.801 66.4876C108.536 67.7987 110.317 68.6449 112.195 68.7733C113.647 68.8725 115.174 68.5081 116.31 67.5189C115.741 69.1996 114.977 70.4433 114.113 71.262C113.039 72.2791 111.83 72.6854 110.643 72.6026C108.274 72.4374 105.942 70.2712 105.241 66.7195C105.241 66.6854 105.217 63.1424 105.189 59.4915C105.174 57.6574 105.159 55.8045 105.145 54.3732C105.138 53.6575 105.132 53.0473 105.126 52.597C105.121 52.1564 105.117 51.8959 105.112 51.7899C105.111 51.8551 105.081 51.8563 105.136 51.8152C105.192 51.7741 105.297 51.7165 105.412 51.6538C105.528 51.591 105.655 51.5226 105.773 51.4231C105.89 51.3236 106.016 51.1689 106.022 50.9606C106.027 50.7793 105.943 50.6229 105.857 50.5162C105.77 50.4096 105.676 50.3323 105.595 50.2562C105.437 50.1093 105.338 49.9919 105.315 49.7896C105.349 49.7613 105.433 49.7138 105.533 49.6616C105.634 49.6092 105.752 49.5514 105.865 49.4532C105.978 49.3551 106.091 49.1835 106.087 48.9848V48.9842C106.082 48.7842 105.988 48.6204 105.885 48.4976C105.783 48.3748 105.666 48.2795 105.563 48.1936C105.459 48.1077 105.367 48.03 105.316 47.9729C105.274 47.9259 105.278 47.9217 105.278 47.9236C105.291 47.8698 105.378 47.744 105.525 47.5773C105.678 47.4034 105.886 47.1761 105.894 46.8383C105.901 46.5785 105.796 46.3814 105.675 46.2302L107.059 46.202ZM108.114 66.0456C108.209 66.0722 108.244 66.1257 108.259 66.1483C108.272 66.1671 108.272 66.17 108.272 66.1712C108.236 66.1118 108.18 66.0672 108.114 66.0456Z" fill="#8A1538"/>
<path d="M122.42 66.3066C124.5 69.7116 130.061 68.7017 131.361 66.3247C131.751 66.2156 131.52 51.659 131.52 51.659C131.52 51.659 132.142 51.3792 132.17 50.9317C132.199 50.4797 131.38 50.4387 131.38 49.8601C131.38 49.282 132.217 49.5086 132.235 48.9267C132.231 48.3703 131.356 48.411 131.398 47.8965C131.448 47.3172 132.136 47.3849 132.175 46.8507C132.207 46.3905 131.743 46.1103 131.533 45.9194L132.203 45.9092L133.795 45.9413C134.927 45.9426 133.776 46.1851 133.793 46.8304C133.803 47.252 134.366 47.5325 134.417 47.899C134.435 48.2752 133.61 48.5395 133.6 48.9911C133.591 49.394 134.41 49.4214 134.38 49.7958C134.329 50.4294 133.655 50.5688 133.665 50.9525C133.675 51.3356 134.573 51.4817 134.575 51.7874C134.544 52.3789 134.445 66.7558 134.445 66.7558C133.015 74.0797 124.76 75.9429 122.42 66.3066Z" fill="#D91C16"/>
<path d="M132.199 45.6196L131.528 45.6296C131.47 45.6306 131.414 45.649 131.366 45.6824C131.319 45.7158 131.283 45.7628 131.262 45.8171C131.242 45.8714 131.238 45.9307 131.252 45.9872C131.265 46.0436 131.295 46.0947 131.338 46.1338C131.601 46.3725 131.904 46.5716 131.886 46.83C131.881 46.9008 131.866 46.9226 131.83 46.9632C131.793 47.0039 131.723 47.0537 131.63 47.1158C131.537 47.1779 131.421 47.2532 131.316 47.3747C131.211 47.4961 131.127 47.6698 131.11 47.8718C131.11 47.8722 131.11 47.8726 131.11 47.873C131.093 48.0827 131.188 48.2815 131.305 48.4001C131.422 48.5188 131.548 48.5851 131.655 48.6466C131.761 48.7082 131.847 48.7633 131.891 48.8075C131.934 48.8502 131.942 48.8665 131.943 48.9243C131.941 48.9858 131.935 48.9913 131.905 49.017C131.873 49.0445 131.795 49.0831 131.689 49.1274C131.583 49.1716 131.449 49.2213 131.32 49.3346C131.191 49.4478 131.091 49.646 131.091 49.8605C131.091 50.0735 131.176 50.2616 131.284 50.3929C131.393 50.5241 131.517 50.6097 131.621 50.6817C131.725 50.7537 131.81 50.8142 131.849 50.8548C131.888 50.8955 131.883 50.8877 131.881 50.9135C131.875 51.0078 131.782 51.1351 131.655 51.2363C131.527 51.3376 131.402 51.3948 131.402 51.3948C131.35 51.4181 131.306 51.4559 131.276 51.5037C131.246 51.5514 131.23 51.6071 131.231 51.6637C131.231 51.6637 131.288 55.3018 131.297 58.952C131.302 60.7771 131.294 62.6056 131.261 63.9806C131.244 64.6681 131.221 65.2424 131.191 65.6411C131.176 65.8405 131.158 65.9971 131.142 66.0919C131.134 66.1377 131.125 66.1681 131.123 66.1729C131.118 66.177 131.112 66.1813 131.107 66.1858C130.532 67.2369 128.899 68.0763 127.163 68.195C125.428 68.3137 123.641 67.7495 122.668 66.1559C122.632 66.0971 122.576 66.0532 122.51 66.0319C122.445 66.0106 122.374 66.0134 122.31 66.0398C122.246 66.0662 122.194 66.1144 122.163 66.1758C122.131 66.2372 122.123 66.3078 122.139 66.3748C122.734 68.8239 123.709 70.5679 124.886 71.6828C126.063 72.7977 127.446 73.2747 128.794 73.1807C131.49 72.9927 133.996 70.5719 134.73 66.8115C134.734 66.7939 134.736 66.7761 134.736 66.7581C134.736 66.7581 134.76 63.1636 134.789 59.4956C134.803 57.6616 134.818 55.8091 134.832 54.3784C134.839 53.663 134.845 53.0532 134.851 52.604C134.856 52.1548 134.862 51.85 134.865 51.8028C134.865 51.7971 134.865 51.7914 134.865 51.7858C134.864 51.5677 134.72 51.4333 134.607 51.3491C134.493 51.2648 134.372 51.2041 134.262 51.1442C134.152 51.0843 134.053 51.0257 133.999 50.9805C133.946 50.9352 133.955 50.9279 133.955 50.9446C133.955 50.934 133.952 50.929 133.991 50.8818C134.029 50.8347 134.106 50.7658 134.198 50.6799C134.382 50.5081 134.636 50.2358 134.669 49.8188C134.685 49.6203 134.569 49.4429 134.458 49.3481C134.346 49.2533 134.232 49.199 134.132 49.1474C134.033 49.0957 133.95 49.0473 133.913 49.0153C133.876 48.9833 133.89 49.0002 133.891 48.9977C133.891 48.9722 133.903 48.934 133.957 48.8685C134.012 48.8031 134.103 48.7238 134.204 48.6402C134.305 48.5566 134.416 48.469 134.516 48.3567C134.615 48.2444 134.716 48.0865 134.707 47.8854C134.707 47.8767 134.706 47.8681 134.705 47.8596C134.661 47.5419 134.451 47.3572 134.308 47.1939C134.164 47.0307 134.085 46.9069 134.083 46.8236C134.083 46.8234 134.083 46.8232 134.083 46.823C134.079 46.6734 134.244 46.5199 134.415 46.3516C134.458 46.3095 134.504 46.2757 134.551 46.1755C134.574 46.1254 134.598 46.0422 134.574 45.9478C134.551 45.8534 134.481 45.7814 134.427 45.7465C134.318 45.6765 134.244 45.6753 134.15 45.6655C134.057 45.6558 133.945 45.6522 133.802 45.652H133.796L132.209 45.6197C132.206 45.6196 132.202 45.6196 132.199 45.6196ZM132.242 46.1996L133.723 46.2301C133.602 46.3812 133.497 46.5781 133.504 46.8376C133.512 47.1758 133.719 47.4032 133.872 47.5772C134.019 47.7438 134.106 47.8695 134.119 47.9235C134.119 47.922 134.123 47.9262 134.082 47.9728C134.031 48.0299 133.939 48.1075 133.835 48.1935C133.731 48.2794 133.615 48.3747 133.512 48.4975C133.41 48.6204 133.315 48.7844 133.311 48.9847C133.306 49.1836 133.42 49.355 133.533 49.4531C133.646 49.5513 133.764 49.6091 133.865 49.6615C133.965 49.7137 134.048 49.7612 134.082 49.7894C134.059 49.9918 133.96 50.1092 133.802 50.2561C133.721 50.3322 133.628 50.4094 133.541 50.5161C133.454 50.6228 133.371 50.7792 133.376 50.9604C133.381 51.1688 133.507 51.3235 133.625 51.423C133.742 51.5225 133.87 51.5909 133.986 51.6537C134.101 51.7164 134.206 51.774 134.261 51.8151C134.317 51.8562 134.286 51.855 134.285 51.7898C134.28 51.8956 134.277 52.1562 134.271 52.5969C134.266 53.0472 134.259 53.6574 134.253 54.3731C134.239 55.8044 134.223 57.6573 134.209 59.4914C134.181 63.1434 134.156 66.6899 134.156 66.7217C133.454 70.272 131.123 72.4373 128.754 72.6025C127.567 72.6853 126.359 72.279 125.285 71.2619C124.421 70.4431 123.657 69.1995 123.088 67.5188C124.224 68.508 125.751 68.8724 127.203 68.7731C129.08 68.6448 130.86 67.7991 131.595 66.4887C131.6 66.4825 131.616 66.4759 131.62 66.4704C131.647 66.4306 131.658 66.4 131.669 66.3707C131.69 66.3121 131.701 66.2574 131.713 66.1922C131.736 66.0618 131.753 65.8942 131.769 65.6851C131.801 65.2668 131.824 64.6866 131.84 63.994C131.873 62.6089 131.882 60.7779 131.877 58.9502C131.868 55.376 131.814 51.9726 131.812 51.8162C131.883 51.7769 131.912 51.772 132.015 51.6906C132.205 51.5401 132.437 51.3037 132.459 50.9504C132.459 50.9502 132.459 50.95 132.459 50.9498C132.472 50.7496 132.375 50.5673 132.269 50.455C132.162 50.3428 132.048 50.2721 131.951 50.205C131.854 50.1379 131.775 50.0769 131.731 50.0236C131.687 49.9703 131.67 49.9367 131.67 49.8604C131.67 49.7859 131.674 49.7951 131.703 49.77C131.731 49.745 131.807 49.7061 131.913 49.662C132.019 49.6179 132.153 49.5683 132.283 49.4566C132.413 49.3448 132.519 49.1508 132.525 48.9354C132.525 48.9318 132.525 48.9283 132.525 48.9248C132.524 48.7097 132.423 48.5196 132.303 48.3989C132.183 48.2782 132.052 48.2075 131.945 48.1453C131.837 48.0831 131.753 48.0285 131.717 47.9927C131.682 47.9571 131.684 47.9675 131.688 47.9211C131.695 47.834 131.716 47.7986 131.755 47.7532C131.794 47.7077 131.862 47.6578 131.952 47.5977C132.042 47.5375 132.154 47.4678 132.259 47.3529C132.363 47.2379 132.45 47.0672 132.464 46.8716C132.484 46.5929 132.376 46.3778 132.242 46.1996ZM131.283 66.0455C131.217 66.0671 131.161 66.1117 131.125 66.1711C131.125 66.1699 131.126 66.167 131.138 66.1482C131.153 66.1256 131.188 66.0721 131.283 66.0455Z" fill="#8A1538"/>
</g>
<defs>
<clipPath id="clip0_354_475">
<rect width="240" height="120" fill="white"/>
</clipPath>
</defs>
</svg>
