<svg width="240" height="121" viewBox="0 0 240 121" fill="none" xmlns="http://www.w3.org/2000/svg">
<g clip-path="url(#clip0_307_35081)">
<path d="M0 0.5H240V60.5H0V0.5Z" fill="#0F3296"/>
<path d="M0 60.5H240V120.5H0V60.5Z" fill="#D91C16"/>
<path d="M103.923 60.5L0 120.5V0.5L103.923 60.5Z" fill="white"/>
<path d="M34.9922 48.7283L33.1147 39.288L34.3747 38.0267L35.7668 48.6013C36.0248 48.5677 36.2854 48.5423 36.5483 48.5253L35.7747 36.7254L37.3333 35.1667L38.892 36.7254L38.1184 48.5253C38.3813 48.5423 38.6418 48.5677 38.8998 48.6013L40.292 38.0267L41.552 39.288L39.6745 48.7283C41.2493 49.0397 42.7134 49.6593 44.0012 50.5215L49.3494 42.5178L51.1323 42.5169L44.6389 50.9793C44.8465 51.1389 45.0488 51.3051 45.2454 51.4777L53.0424 42.5866L55.2467 42.5866V44.7909L46.3557 52.5879C46.5282 52.7845 46.6945 52.9868 46.8541 53.1945L55.3165 46.7011L55.3155 48.4839L47.3118 53.8322C48.1741 55.12 48.7937 56.584 49.1051 58.1588L58.5453 56.2814L59.8067 57.5414L49.232 58.9335C49.2657 59.1915 49.2911 59.4521 49.3081 59.715L61.108 58.9414L62.6667 60.5L61.108 62.0587L49.3081 61.2851C49.2911 61.548 49.2657 61.8085 49.232 62.0665L59.8067 63.4587L58.5453 64.7187L49.1051 62.8412C48.7936 64.416 48.1741 65.88 47.3118 67.1679L55.3155 72.5161L55.3165 74.299L46.8541 67.8055C46.6945 68.0132 46.5282 68.2155 46.3557 68.4121L55.2467 76.2091V78.4134H53.0424L45.2454 69.5223C45.0488 69.6949 44.8465 69.8611 44.6388 70.0207L51.1323 78.4832L49.3494 78.4822L44.0012 70.4785C42.7134 71.3408 41.2493 71.9603 39.6745 72.2718L41.552 81.712L40.292 82.9734L38.8998 72.3987C38.6418 72.4323 38.3813 72.4578 38.1184 72.4747L38.892 84.2747L37.3333 85.8334L35.7747 84.2747L36.5483 72.4747C36.2854 72.4578 36.0248 72.4323 35.7668 72.3987L34.3747 82.9734L33.1147 81.712L34.9922 72.2718C33.4173 71.9603 31.9533 71.3407 30.6655 70.4785L25.3172 78.4822L23.5344 78.4832L30.0278 70.0207C29.8202 69.8611 29.6179 69.6949 29.4212 69.5223L21.6243 78.4134H19.42L19.42 76.2091L28.311 68.4121C28.1385 68.2155 27.9722 68.0132 27.8126 67.8055L19.3502 74.299L19.3512 72.5161L27.3549 67.1679C26.4926 65.88 25.873 64.416 25.5616 62.8412L16.1213 64.7187L14.86 63.4587L25.4347 62.0665C25.401 61.8085 25.3756 61.548 25.3586 61.2851L13.5587 62.0587L12 60.5L13.5587 58.9414L25.3586 59.715C25.3756 59.4521 25.401 59.1915 25.4347 58.9335L14.86 57.5414L16.1213 56.2814L25.5616 58.1588C25.873 56.584 26.4926 55.12 27.3549 53.8322L19.3512 48.4839L19.3502 46.7011L27.8126 53.1945C27.9722 52.9868 28.1385 52.7845 28.311 52.5879L19.42 44.7909L19.42 42.5866H21.6243L29.4212 51.4777C29.6179 51.3051 29.8202 51.1389 30.0278 50.9793L23.5344 42.5169L25.3172 42.5178L30.6655 50.5215C31.9533 49.6593 33.4173 49.0397 34.9922 48.7283Z" fill="#FDD406"/>
<path d="M91.9223 60.5L87.413 62.068L87.3156 66.84L84.4316 63.036L79.8623 64.4186L82.589 60.5L79.8623 56.5813L84.4316 57.964L87.3156 54.16L87.413 58.932L91.9223 60.5Z" fill="#FDD406"/>
<path d="M6.00088 110.107L6.89762 105.418L2.81362 102.948L7.54997 102.352L8.63722 97.7035L10.6675 102.024L15.4245 101.622L11.9425 104.888L13.7948 109.288L9.61348 106.986L6.00088 110.107Z" fill="#FDD406"/>
<path d="M6.00064 10.8929L9.61323 14.0141L13.7946 11.7124L11.9422 16.112L15.4243 19.3779L10.6673 18.9758L8.63698 23.2965L7.54973 18.648L2.81337 18.0524L6.89738 15.5821L6.00064 10.8929Z" fill="#FDD406"/>
</g>
<defs>
<clipPath id="clip0_307_35081">
<rect width="240" height="120" fill="white" transform="translate(0 0.5)"/>
</clipPath>
</defs>
</svg>
