<svg width="240" height="120" viewBox="0 0 240 120" fill="none" xmlns="http://www.w3.org/2000/svg">
<path d="M0 0H240V60H0V0Z" fill="#0F3296"/>
<path d="M0 60H240V120H0V60Z" fill="#E23726"/>
<path d="M103.923 60L0 120V0L103.923 60Z" fill="white"/>
<path d="M34.9922 48.2283L33.1147 38.7881L34.3747 37.5267L35.7668 48.1014C36.0248 48.0678 36.2854 48.0423 36.5483 48.0253L35.7747 36.2254L37.3333 34.6667L38.892 36.2254L38.1184 48.0253C38.3813 48.0423 38.6418 48.0678 38.8998 48.1014L40.292 37.5267L41.552 38.7881L39.6745 48.2283C41.2493 48.5398 42.7134 49.1593 44.0012 50.0216L49.3494 42.0179L51.1323 42.0169L44.6389 50.4794C44.8465 50.6389 45.0488 50.8052 45.2454 50.9777L53.0424 42.0867L55.2467 42.0867V44.291L46.3557 52.088C46.5282 52.2846 46.6945 52.4869 46.8541 52.6946L55.3165 46.2011L55.3155 47.984L47.3118 53.3322C48.1741 54.62 48.7937 56.0841 49.1051 57.6589L58.5453 55.7814L59.8067 57.0414L49.232 58.4336C49.2657 58.6916 49.2911 58.9521 49.3081 59.215L61.108 58.4414L62.6667 60.0001L61.108 61.5587L49.3081 60.7851C49.2911 61.048 49.2657 61.3086 49.232 61.5666L59.8067 62.9587L58.5453 64.2187L49.1051 62.3413C48.7936 63.9161 48.1741 65.3801 47.3118 66.6679L55.3155 72.0162L55.3165 73.799L46.8541 67.3056C46.6945 67.5133 46.5282 67.7156 46.3557 67.9122L55.2467 75.7092V77.9134H53.0424L45.2454 69.0224C45.0488 69.195 44.8465 69.3612 44.6388 69.5208L51.1323 77.9832L49.3494 77.9823L44.0012 69.9786C42.7134 70.8408 41.2493 71.4604 39.6745 71.7718L41.552 81.2121L40.292 82.4734L38.8998 71.8988C38.6418 71.9324 38.3813 71.9578 38.1184 71.9748L38.892 83.7747L37.3333 85.3334L35.7747 83.7747L36.5483 71.9748C36.2854 71.9578 36.0248 71.9324 35.7668 71.8988L34.3747 82.4734L33.1147 81.2121L34.9922 71.7718C33.4173 71.4604 31.9533 70.8408 30.6655 69.9785L25.3172 77.9823L23.5344 77.9832L30.0278 69.5208C29.8202 69.3612 29.6179 69.195 29.4212 69.0224L21.6243 77.9134H19.42L19.42 75.7092L28.311 67.9122C28.1385 67.7156 27.9722 67.5133 27.8126 67.3056L19.3502 73.799L19.3512 72.0162L27.3549 66.6679C26.4926 65.3801 25.873 63.9161 25.5616 62.3413L16.1213 64.2187L14.86 62.9587L25.4347 61.5666C25.401 61.3086 25.3756 61.048 25.3586 60.7851L13.5587 61.5587L12 60.0001L13.5587 58.4414L25.3586 59.215C25.3756 58.9521 25.401 58.6916 25.4347 58.4336L14.86 57.0414L16.1213 55.7814L25.5616 57.6589C25.873 56.0841 26.4926 54.6201 27.3549 53.3322L19.3512 47.984L19.3502 46.2011L27.8126 52.6946C27.9722 52.4869 28.1385 52.2846 28.311 52.088L19.42 44.291L19.42 42.0867H21.6243L29.4212 50.9778C29.6179 50.8052 29.8202 50.639 30.0278 50.4794L23.5344 42.0169L25.3172 42.0179L30.6655 50.0216C31.9533 49.1593 33.4173 48.5398 34.9922 48.2283Z" fill="#FDD406"/>
<path d="M91.9228 59.9999L87.4135 61.5679L87.3161 66.3399L84.4321 62.5359L79.8628 63.9186L82.5895 59.9999L79.8628 56.0812L84.4321 57.4639L87.3161 53.6599L87.4135 58.4319L91.9228 59.9999Z" fill="#FDD406"/>
<path d="M6.00088 109.607L6.89762 104.918L2.81362 102.448L7.54997 101.852L8.63722 97.2034L10.6675 101.524L15.4245 101.122L11.9425 104.388L13.7948 108.788L9.61348 106.486L6.00088 109.607Z" fill="#FDD406"/>
<path d="M6.00064 10.3928L9.61323 13.514L13.7946 11.2123L11.9422 15.6119L15.4243 18.8777L10.6673 18.4757L8.63698 22.7964L7.54973 18.1479L2.81337 17.5523L6.89738 15.082L6.00064 10.3928Z" fill="#FDD406"/>
</svg>
