<svg width="240" height="120" viewBox="0 0 240 120" fill="none" xmlns="http://www.w3.org/2000/svg">
<g clip-path="url(#clip0_307_35444)">
<path d="M0 0H240V120H0V0Z" fill="#0F3296"/>
<path d="M0 0H240V80H0V0Z" fill="white"/>
<path d="M0 0H240V40H0V0Z" fill="#D91C16"/>
<path d="M134.756 59.996C134.756 68.3993 127.949 75.2102 119.546 75.2102C111.147 75.2102 104.336 68.3993 104.336 59.996C104.336 51.5964 111.147 44.7899 119.546 44.7899C127.949 44.7899 134.756 51.5964 134.756 59.996Z" fill="white"/>
<path d="M119.545 75.5455C110.973 75.5455 104 68.57 104 59.996C104 51.4264 110.973 44.4547 119.545 44.4547C128.117 44.4547 135.091 51.4264 135.091 59.996C135.091 68.57 128.117 75.5455 119.545 75.5455ZM119.545 45.1249C111.343 45.1249 104.67 51.7961 104.67 59.996C104.67 68.2003 111.343 74.875 119.545 74.875C127.747 74.875 134.42 68.2003 134.42 59.996C134.42 51.7961 127.747 45.1249 119.545 45.1249Z" fill="black"/>
<path d="M126.901 57.64C126.531 57.6255 126.529 58.0324 126.529 58.0324C126.529 58.0324 126.542 57.912 126.531 58.0488C126.524 58.1838 126.592 58.5133 126.865 58.5402C127.153 58.5655 127.248 58.2291 127.251 58.0658C127.251 58.0011 127.229 57.6484 126.901 57.6404" fill="#1E9A1C"/>
<path d="M126.894 58.6311C126.882 58.6311 126.869 58.6305 126.857 58.6295C126.521 58.5963 126.432 58.2207 126.442 58.0441C126.442 58.0398 126.442 58.0358 126.442 58.0321L126.439 58.0319C126.439 58.0225 126.442 57.7998 126.589 57.6597C126.67 57.5822 126.776 57.5465 126.904 57.5505V57.5509C127.248 57.56 127.34 57.8787 127.34 58.0658C127.338 58.1778 127.297 58.4005 127.15 58.5328C127.078 58.5975 126.991 58.6311 126.894 58.6311ZM126.623 57.9877C126.624 58.0096 126.622 58.033 126.62 58.0556C126.615 58.1525 126.665 58.4306 126.873 58.4511C126.933 58.4568 126.986 58.4397 127.03 58.3999C127.124 58.3154 127.159 58.153 127.161 58.0646C127.161 58.0108 127.148 57.736 126.898 57.7299L126.9 57.6395L126.897 57.7295C126.821 57.7258 126.759 57.7457 126.713 57.7886C126.652 57.8463 126.631 57.9345 126.623 57.9877Z" fill="black"/>
<path d="M110.004 66.0851L109.873 65.8693C109.86 65.8453 109.826 65.8056 109.772 65.7465C109.746 65.7174 109.71 65.6996 109.671 65.6969C109.63 65.691 109.588 65.6994 109.553 65.7209C109.502 65.7518 109.469 65.7931 109.464 65.8436C109.454 65.8951 109.478 65.9658 109.535 66.0613L109.667 66.2858L110.004 66.0851ZM111.291 66.0109L109.637 66.9949L109.131 66.1462C109.038 65.9869 108.981 65.8604 108.959 65.7603C108.933 65.6587 108.945 65.5634 108.987 65.4687C109.029 65.3731 109.105 65.2934 109.211 65.23C109.292 65.1804 109.385 65.1518 109.48 65.1469C109.573 65.1469 109.657 65.1698 109.739 65.2133C109.79 65.2423 109.849 65.2874 109.913 65.3529C109.897 65.2822 109.889 65.2263 109.892 65.1831C109.898 65.1574 109.909 65.1151 109.932 65.0503C109.955 64.9885 109.976 64.9453 109.989 64.9178L110.324 64.3854L110.665 64.9636L110.324 65.5376C110.281 65.6102 110.255 65.666 110.251 65.7049C110.249 65.7587 110.261 65.8056 110.287 65.8516L110.315 65.8985L110.986 65.4996L111.291 66.0109ZM108.378 64.6636L107.873 63.1542L108.263 63.0233L108.579 63.9694L108.871 63.8713L108.574 62.9931L108.948 62.8711L109.242 63.7449L109.6 63.6291L109.277 62.6554L109.69 62.5147L110.203 64.0525L108.378 64.6636ZM108.432 61.5909L108.412 61.4496C108.399 61.3318 108.37 61.2558 108.326 61.2162C108.282 61.1763 108.223 61.1576 108.163 61.1649C108.105 61.1745 108.057 61.1994 108.02 61.2407C107.982 61.2869 107.969 61.3629 107.985 61.4734L108.001 61.6433L108.432 61.5909ZM107.684 62.28L107.569 61.2993C107.546 61.0887 107.576 60.9207 107.664 60.8022C107.755 60.6847 107.894 60.614 108.081 60.5927C108.274 60.5687 108.433 60.6102 108.554 60.7122C108.674 60.8156 108.751 60.988 108.779 61.2249L108.815 61.5478L109.524 61.4654L109.593 62.0589L107.684 62.28ZM107.617 58.5273L107.679 57.9364L108.821 58.0593C108.928 58.0715 109.033 58.1011 109.132 58.1469C109.229 58.1905 109.314 58.2576 109.379 58.3422C109.445 58.4273 109.492 58.5085 109.513 58.5962C109.542 58.7118 109.55 58.8534 109.532 59.0162C109.521 59.1175 109.503 59.218 109.478 59.3169C109.454 59.4254 109.417 59.5151 109.37 59.584C109.321 59.6576 109.258 59.7211 109.185 59.7713C109.115 59.8209 109.035 59.855 108.951 59.8713C108.824 59.8971 108.716 59.9022 108.621 59.8916L107.484 59.7716L107.546 59.1798L108.712 59.3064C108.817 59.3169 108.901 59.2974 108.966 59.2442C109.031 59.192 109.068 59.1162 109.08 59.0162C109.091 58.9107 109.069 58.8296 109.018 58.7669C108.968 58.7022 108.889 58.666 108.783 58.6536L107.617 58.5273ZM109.53 56.9105L109.633 56.6258C109.664 56.5294 109.673 56.4549 109.652 56.4011C109.631 56.3499 109.588 56.3111 109.535 56.296C109.478 56.2764 109.431 56.28 109.384 56.3084C109.336 56.3374 109.295 56.3993 109.262 56.4956L109.161 56.7822L109.53 56.9105ZM108.817 56.6604L108.903 56.4187C108.932 56.3304 108.941 56.2633 108.919 56.218C108.903 56.1745 108.866 56.1402 108.808 56.1234C108.762 56.1044 108.711 56.1067 108.667 56.1296C108.625 56.1544 108.59 56.2073 108.562 56.2924L108.472 56.5407L108.817 56.6604ZM107.909 56.9794L108.274 55.9264C108.337 55.7511 108.427 55.6344 108.549 55.5682C108.663 55.5069 108.797 55.4969 108.919 55.5405C109.024 55.582 109.104 55.646 109.16 55.7396C109.193 55.8014 109.213 55.8829 109.213 55.9774C109.289 55.8574 109.376 55.7811 109.473 55.7484C109.572 55.7131 109.68 55.7149 109.797 55.7556C109.888 55.7873 109.965 55.8394 110.026 55.9084C110.084 55.9811 110.122 56.0607 110.141 56.1509C110.149 56.2091 110.145 56.2869 110.125 56.3835C110.094 56.5187 110.077 56.6044 110.061 56.6444L109.723 57.6134L107.909 56.9794ZM108.889 54.5149L109.2 54.0075L110.438 54.758L110.921 53.966L111.324 54.2125L110.538 55.5116L108.889 54.5149ZM110.159 52.6229L110.542 52.1674L112.009 53.408L111.626 53.8634L110.159 52.6229ZM112.824 51.5891L113.324 51.3753C113.388 51.5098 113.425 51.6378 113.43 51.7634C113.435 51.8838 113.411 52.0036 113.359 52.1125C113.302 52.2231 113.208 52.3302 113.08 52.4425C112.917 52.5753 112.767 52.6618 112.626 52.6998C112.486 52.7362 112.329 52.7273 112.154 52.6724C111.986 52.6167 111.826 52.4956 111.671 52.3142C111.469 52.0678 111.377 51.8262 111.397 51.5891C111.417 51.3478 111.547 51.1311 111.784 50.9313C111.972 50.7756 112.146 50.6944 112.318 50.6811C112.486 50.6651 112.664 50.7156 112.843 50.8278L112.514 51.254C112.464 51.2213 112.423 51.1995 112.387 51.1922C112.335 51.1766 112.28 51.1759 112.227 51.1904C112.174 51.2022 112.123 51.2272 112.081 51.2629C111.977 51.3502 111.932 51.4582 111.947 51.5873C111.956 51.6836 112.017 51.7962 112.124 51.9296C112.262 52.0933 112.381 52.1849 112.48 52.2036C112.583 52.2249 112.678 52.1958 112.767 52.1214C112.854 52.0473 112.901 51.9694 112.903 51.8845C112.905 51.7942 112.881 51.6962 112.824 51.5891ZM114.77 50.4336L114.267 49.9136L114.394 50.6271L114.77 50.4336ZM115.069 50.7493L114.467 51.0554L114.528 51.3816L113.987 51.6565L113.758 49.6147L114.337 49.3193L115.854 50.7053L115.301 50.9882L115.069 50.7493ZM117.408 48.7447L117.556 49.7829L117.7 49.7616C117.824 49.7463 117.91 49.7191 117.959 49.6845C118.007 49.6465 118.039 49.598 118.058 49.5218C118.079 49.4511 118.079 49.3407 118.057 49.1867C118.029 48.986 117.975 48.8516 117.901 48.7878C117.824 48.7242 117.709 48.7013 117.556 48.7242L117.408 48.7447ZM116.761 48.3971L117.634 48.2714C117.806 48.2485 117.946 48.2502 118.058 48.2822C118.174 48.3149 118.269 48.3678 118.353 48.4458C118.434 48.5234 118.499 48.6182 118.546 48.7287C118.596 48.8445 118.629 48.9668 118.645 49.092C118.677 49.2936 118.677 49.4563 118.643 49.5722C118.616 49.6859 118.564 49.7923 118.492 49.8842C118.419 49.9702 118.338 50.0347 118.248 50.0709C118.138 50.1214 118.022 50.1568 117.903 50.1762L117.028 50.2993L116.761 48.3971ZM119.378 48.0244L120.964 48.142L120.935 48.5513L119.941 48.4771L119.918 48.7822L120.84 48.8502L120.807 49.2402L119.89 49.1747L119.863 49.5498L120.885 49.6256L120.853 50.0589L119.236 49.9396L119.378 48.0244ZM121.822 48.2487L122.394 48.408L121.999 49.8053L122.891 50.0573L122.761 50.51L121.297 50.0954L121.822 48.2487ZM125.066 50.3818L125.189 50.4614C125.283 50.5242 125.363 50.5507 125.422 50.5444C125.481 50.5402 125.534 50.5071 125.563 50.456C125.595 50.4074 125.607 50.3527 125.6 50.2933C125.588 50.2369 125.536 50.1794 125.443 50.1184L125.301 50.0227L125.066 50.3818ZM125.019 49.3693L125.845 49.9142C126.024 50.0316 126.129 50.1644 126.161 50.3074C126.196 50.4525 126.161 50.6047 126.055 50.7622C125.952 50.9222 125.818 51.016 125.659 51.0433C125.499 51.0689 125.323 51.0194 125.123 50.8876L124.851 50.7073L124.461 51.3024L123.963 50.9725L125.019 49.3693ZM127.105 52.3005L127.439 51.6596L126.803 52.0036L127.105 52.3005ZM126.901 52.6825L126.419 52.2087L126.129 52.368L125.697 51.9435L126.585 51.5333L127.563 51.0811L128.023 51.5358L127.187 53.4149L126.746 52.9764L126.901 52.6825ZM128.687 53.5165L128.823 53.7305C128.839 53.752 128.868 53.7935 128.929 53.8498C128.956 53.8772 128.993 53.8933 129.032 53.8951C129.072 53.8998 129.113 53.8898 129.146 53.8667C129.197 53.834 129.225 53.7934 129.234 53.7413C129.241 53.6916 129.215 53.6173 129.155 53.5273L129.018 53.308L128.687 53.5165ZM127.402 53.6305L129.022 52.596L129.554 53.4298C129.653 53.5836 129.715 53.7102 129.746 53.8084C129.769 53.9058 129.76 54.0081 129.721 54.1002C129.681 54.1975 129.609 54.278 129.508 54.3445C129.416 54.4027 129.328 54.4355 129.237 54.4355C129.151 54.4407 129.062 54.4187 128.976 54.3822C128.912 54.3432 128.854 54.2973 128.8 54.2453C128.817 54.316 128.828 54.3735 128.826 54.4133C128.818 54.4582 128.806 54.5025 128.792 54.546C128.778 54.5932 128.758 54.6388 128.734 54.682L128.421 55.2251L128.057 54.6582L128.383 54.0764C128.427 53.9985 128.448 53.9429 128.448 53.904C128.45 53.8516 128.442 53.8022 128.407 53.7578L128.382 53.7138L127.722 54.1338L127.402 53.6305ZM129.674 56.2196L130.25 55.7845L129.529 55.8245L129.674 56.2196ZM129.324 56.4771L129.093 55.8413L128.765 55.8642L128.555 55.2938L130.61 55.3178L130.832 55.9244L129.272 57.2614L129.058 56.6742L129.324 56.4771ZM130.244 58.5218L130.639 58.4696L130.754 59.386L129.941 59.4842C129.803 59.3249 129.699 59.1824 129.642 59.0524C129.58 58.9235 129.54 58.7669 129.517 58.5838C129.487 58.3575 129.502 58.1682 129.566 58.016C129.623 57.864 129.724 57.7375 129.867 57.6375C130.01 57.5429 130.18 57.4802 130.377 57.4564C130.584 57.4291 130.772 57.4502 130.936 57.5182C131.1 57.5836 131.232 57.6942 131.334 57.8498C131.413 57.9729 131.466 58.1418 131.491 58.3611C131.52 58.5706 131.52 58.7306 131.493 58.8395C131.472 58.9458 131.422 59.0441 131.348 59.1231C131.27 59.2085 131.173 59.2745 131.065 59.316L130.892 58.7615C130.961 58.7271 131.012 58.6831 131.042 58.62C131.073 58.56 131.081 58.4838 131.073 58.4007C131.052 58.2698 130.998 58.1727 130.901 58.1073C130.8 58.0418 130.652 58.0213 130.457 58.0455C130.251 58.0709 130.111 58.1302 130.03 58.216C129.953 58.3062 129.925 58.4218 129.939 58.56C129.946 58.6255 129.966 58.6866 129.991 58.7431C130.018 58.8031 130.058 58.8642 130.114 58.9404L130.295 58.9155L130.244 58.5218ZM131.461 61.4047L131.393 61.9934L130.257 61.8653C130.148 61.8535 130.041 61.8232 129.943 61.7758C129.847 61.7304 129.763 61.6636 129.697 61.5805C129.632 61.4976 129.587 61.4133 129.566 61.3285C129.538 61.2056 129.531 61.0676 129.55 60.9058C129.562 60.8138 129.58 60.7122 129.602 60.6034C129.628 60.4945 129.667 60.4062 129.715 60.3373C129.765 60.2654 129.827 60.2029 129.898 60.1524C129.982 60.1002 130.058 60.0674 130.135 60.0542C130.26 60.0304 130.371 60.0225 130.465 60.0367L131.603 60.1665L131.536 60.7538L130.371 60.62C130.265 60.6087 130.181 60.6273 130.115 60.6794C130.051 60.7324 130.013 60.8067 130.003 60.9085C129.991 61.0127 130.011 61.0951 130.062 61.1578C130.112 61.2215 130.19 61.2596 130.295 61.2755L131.461 61.4047ZM129.691 63.5927L130.416 63.6185L129.831 63.1922L129.691 63.5927ZM129.262 63.5709L129.481 62.9333L129.213 62.7413L129.412 62.1674L130.993 63.4807L130.775 64.0951L128.727 64.1454L128.929 63.5565L129.262 63.5709ZM130.323 65.3407L129.989 65.9093L129.232 65.9118L129.594 66.5769L129.262 67.1385L128.677 65.9276L127.984 65.5193L128.289 65.0054L128.981 65.4167L130.323 65.3407Z" fill="black"/>
<path d="M119.543 72.8702C112.448 72.8702 106.676 67.0971 106.676 60.0009C106.676 52.908 112.448 47.1375 119.543 47.1375C126.637 47.1375 132.408 52.9078 132.408 60.0006L132.409 60.0007C132.409 67.097 126.637 72.8702 119.543 72.8702ZM119.543 47.4056C112.596 47.4056 106.944 53.0559 106.944 60.0009C106.944 66.9492 112.596 72.6021 119.543 72.6021C126.489 72.6021 132.14 66.9491 132.14 60.0007C132.14 53.0558 126.489 47.4056 119.543 47.4056Z" fill="black"/>
<path d="M119.544 69.5664C114.245 69.5664 109.934 65.2548 109.934 59.9552C109.934 54.6578 114.244 50.3481 119.543 50.3481C124.841 50.3481 129.152 54.6578 129.152 59.9552C129.152 65.2548 124.841 69.5664 119.544 69.5664ZM119.543 50.6162C114.392 50.6162 110.202 54.8057 110.202 59.9552C110.202 65.107 114.392 69.2983 119.544 69.2983C124.694 69.2983 128.884 65.107 128.884 59.9552C128.884 57.4609 127.912 55.1158 126.148 53.3519C124.384 51.5878 122.039 50.6162 119.543 50.6162Z" fill="black"/>
<path d="M119.543 56.5476L120.339 58.8258L122.747 58.8796L120.828 60.3389L121.525 62.6476L119.543 61.2752L117.56 62.6476L118.254 60.3389L116.332 58.8796L118.745 58.8258L119.543 56.5476Z" fill="#FDD406"/>
<path d="M121.623 62.7818L119.543 61.3418L117.462 62.7814L118.19 60.3595L116.174 58.8284L118.705 58.7719L119.543 56.3819L120.378 58.7719L122.904 58.8284L120.891 60.3595L121.623 62.7818ZM116.49 58.9308L118.317 60.3183L117.657 62.5135L119.543 61.2086L121.427 62.5133L120.764 60.3183L122.589 58.9308L120.299 58.8797L119.543 56.7134L118.784 58.8797L116.49 58.9308Z" fill="black"/>
<path d="M123.917 66.4961C123.837 66.5634 123.514 66.5996 123.428 66.614C123.342 66.6252 123.002 66.6287 122.859 66.634C122.78 66.6394 122.627 66.6614 122.548 66.6614C121.852 66.5821 123.679 66.5932 123.917 66.496M122.094 65.9578C122.139 65.8763 122.367 65.3687 122.449 65.2245C122.533 65.0829 122.722 64.7052 122.835 64.5481C122.893 64.4631 123.12 64.2165 123.174 64.3269C122.779 64.6687 122.467 65.2656 122.301 65.6669C122.279 65.7101 122.149 65.9336 122.101 65.9921C122.055 66.0494 122.074 66.158 122.001 66.1667C121.924 66.1763 121.978 66.1903 121.978 66.1903C121.978 66.1903 122.044 66.0434 122.094 65.9576V65.9578ZM124.717 66.346C124.717 66.346 124.403 66.2989 124.208 66.23C124.014 66.1645 123.687 66.1143 123.409 66.1212C123.134 66.1249 122.882 66.208 122.658 66.2936C122.434 66.3767 122.144 66.3838 122.144 66.3838C122.144 66.3838 121.98 66.4094 122.057 66.3716C122.13 66.3352 122.384 66.1371 122.384 66.1371L122.548 65.9125C122.595 65.8994 123.427 64.8076 123.337 64.5145C123.464 64.2989 123.613 63.914 123.557 63.8469C123.531 63.8196 122.91 64.044 122.773 64.1676C122.616 64.304 122.504 64.588 122.457 64.7516C122.411 64.9142 122.172 65.0485 122.172 65.0485C121.978 65.1882 121.837 65.6303 121.771 65.9922C121.704 66.3492 120.824 66.5472 120.824 66.5472C120.824 66.5472 120.58 66.6383 120.797 66.7072C120.834 66.7178 120.931 66.8812 121.008 66.8838C121.116 66.8963 121.663 66.6623 121.747 66.6809C121.933 66.723 122.116 66.7732 122.298 66.8314C122.506 66.9022 122.678 66.9383 122.824 66.8845C122.972 66.8313 123.183 66.8518 123.342 66.8827C123.498 66.9163 123.672 66.9022 123.773 66.8711C123.881 66.8383 124.164 66.6809 124.164 66.6809C124.164 66.6809 124.471 66.5482 124.648 66.4651C124.825 66.3822 124.717 66.346 124.717 66.346Z" fill="#1E9A1C"/>
<path d="M122.67 66.9787C122.542 66.9787 122.407 66.9407 122.276 66.8965C122.099 66.8395 121.915 66.7892 121.732 66.7477C121.696 66.751 121.527 66.8048 121.413 66.8435C121.2 66.9158 121.066 66.9618 121.001 66.9519C120.928 66.9497 120.862 66.8739 120.809 66.813C120.794 66.7965 120.775 66.7736 120.767 66.7683C120.743 66.7619 120.641 66.7296 120.639 66.6431C120.637 66.5538 120.751 66.5014 120.8 66.4829C121.042 66.4279 121.656 66.2358 121.704 65.9796C121.737 65.7965 121.867 65.1836 122.132 64.9929C122.198 64.9551 122.36 64.8434 122.391 64.7329C122.412 64.66 122.527 64.2897 122.729 64.1157C122.805 64.0465 123.514 63.7047 123.607 63.799C123.716 63.9302 123.471 64.4094 123.41 64.5245C123.422 64.6012 123.405 64.7411 123.238 65.0465C123.079 65.338 122.734 65.8345 122.603 65.9533L122.426 66.191C122.413 66.2015 122.348 66.2525 122.276 66.3056C122.378 66.2947 122.517 66.2731 122.634 66.2294C122.868 66.1401 123.124 66.0566 123.409 66.0527C123.675 66.0474 124.014 66.0923 124.23 66.1649C124.417 66.2312 124.725 66.2779 124.728 66.2782L124.718 66.343L124.74 66.2809C124.774 66.2926 124.816 66.3244 124.819 66.3752C124.823 66.4494 124.745 66.4954 124.677 66.5271C124.499 66.6104 124.192 66.7438 124.192 66.7438C124.168 66.7573 123.905 66.9029 123.793 66.9366C123.686 66.97 123.5 66.9872 123.328 66.9497C123.211 66.9272 122.993 66.8963 122.848 66.949C122.791 66.97 122.731 66.9787 122.67 66.9787ZM121.737 66.6115C121.746 66.6115 121.754 66.6124 121.762 66.614C121.95 66.6564 122.137 66.7077 122.319 66.7661C122.489 66.824 122.665 66.8702 122.8 66.8203C122.969 66.7596 123.195 66.7842 123.355 66.8155C123.504 66.8476 123.665 66.8329 123.753 66.8056C123.836 66.7805 124.054 66.6639 124.131 66.6211C124.137 66.6179 124.443 66.4858 124.619 66.4029L124.625 66.4002C124.516 66.3812 124.324 66.3435 124.185 66.2945C123.984 66.2267 123.665 66.1852 123.411 66.1898C123.148 66.1933 122.905 66.2725 122.682 66.3578C122.45 66.444 122.159 66.452 122.146 66.4524C122.076 66.4638 121.994 66.4769 121.972 66.4084C121.965 66.3855 121.962 66.3421 122.027 66.3102C122.074 66.2866 122.237 66.1646 122.335 66.0889L122.517 65.8501C122.644 65.7317 123.34 64.7571 123.272 64.5348L123.263 64.5058L123.278 64.4797C123.388 64.2933 123.486 64.0316 123.5 63.9227C123.347 63.9636 122.923 64.1243 122.82 64.2184C122.685 64.3348 122.576 64.5884 122.523 64.7706C122.471 64.9549 122.233 65.093 122.206 65.1083C122.034 65.2319 121.9 65.669 121.839 66.0044C121.766 66.3949 120.934 66.5928 120.84 66.6141C120.828 66.6189 120.812 66.6269 120.799 66.6353C120.804 66.6372 120.81 66.6395 120.818 66.6418C120.849 66.6509 120.874 66.6795 120.912 66.7228C120.935 66.7493 120.989 66.8111 121.012 66.8155C121.062 66.8178 121.245 66.7558 121.369 66.7138C121.573 66.6443 121.677 66.6115 121.737 66.6115ZM122.548 66.7299C122.398 66.7132 122.32 66.7043 122.322 66.6275C122.325 66.5435 122.349 66.5422 122.961 66.5131C123.311 66.4962 123.791 66.4733 123.892 66.4325L123.918 66.4962L123.962 66.5486C123.886 66.6124 123.69 66.645 123.496 66.6733L123.44 66.6816C123.375 66.6901 123.198 66.6942 123.043 66.6978C122.972 66.6994 122.907 66.7008 122.861 66.7026C122.834 66.7043 122.794 66.7088 122.752 66.7134C122.679 66.7214 122.599 66.7299 122.548 66.7299ZM122.017 66.2713L121.961 66.2567C121.906 66.2425 121.889 66.2052 121.891 66.175C121.894 66.1402 121.915 66.1218 121.939 66.1117C121.963 66.06 122.002 65.9797 122.035 65.9231C122.054 65.8883 122.103 65.7828 122.16 65.6614C122.245 65.4812 122.341 65.277 122.39 65.1907C122.419 65.142 122.459 65.0674 122.504 64.9836C122.592 64.8196 122.702 64.6154 122.779 64.5081C122.78 64.5065 122.988 64.2228 123.14 64.2308C123.182 64.2338 123.217 64.2578 123.236 64.2967L123.259 64.3441L123.219 64.3787C122.77 64.7667 122.451 65.4829 122.364 65.6932C122.342 65.7381 122.209 65.9691 122.154 66.0357C122.145 66.0469 122.139 66.0705 122.133 66.0932C122.122 66.1369 122.104 66.207 122.036 66.229L122.017 66.2713Z" fill="black"/>
<path d="M122.326 67.4082C122.326 67.4082 121.115 66.7742 121.05 66.7591C121.011 66.7538 120.5 66.4718 120.266 66.3991C120.096 66.3443 119.863 66.33 119.779 66.3354C119.58 66.3494 119.254 66.4374 119.254 66.4374L119.555 66.5605C119.555 66.5605 119.838 66.6992 119.976 66.7736C120.173 66.878 120.182 67.0051 120.182 67.0051L121.28 67.4878L121.502 67.6478C121.502 67.6478 121.705 67.3683 122.326 67.4082Z" fill="#1E9A1C"/>
<path d="M121.515 67.7232L121.248 67.5321L120.131 67.0419L120.128 67.0089C120.128 67.006 120.115 66.9087 119.951 66.8221C119.813 66.7477 119.532 66.6097 119.532 66.6097L119.084 66.4268L119.24 66.3846C119.254 66.381 119.574 66.2951 119.776 66.2809C119.865 66.2741 120.104 66.2889 120.283 66.3471C120.437 66.3949 120.707 66.5305 120.886 66.6202C120.964 66.6598 121.046 66.7006 121.062 66.7058C121.129 66.7212 122.067 67.2102 122.352 67.3597L122.324 67.4629C121.744 67.4247 121.549 67.6777 121.547 67.6802L121.515 67.7232ZM120.23 66.9662L121.302 67.4377L121.495 67.5753C121.567 67.5071 121.749 67.3752 122.103 67.3528C121.655 67.1198 121.089 66.8286 121.036 66.8119C121.022 66.8105 120.99 66.7951 120.837 66.718C120.661 66.6299 120.396 66.4966 120.25 66.4513C120.094 66.4007 119.867 66.384 119.783 66.3901C119.68 66.3973 119.539 66.4258 119.431 66.4504L119.576 66.5099C119.58 66.5113 119.864 66.6507 120.002 66.7255C120.164 66.8111 120.215 66.913 120.23 66.9662Z" fill="black"/>
<path d="M123.547 64.8915C123.928 64.5515 124.114 64.0682 124.428 63.8006C124.479 63.8369 124.479 63.8977 124.416 64.0047C124.357 64.1102 124.278 64.1466 124.244 64.2015C124.18 64.2873 123.989 64.4458 123.937 64.5411C123.891 64.6313 123.832 64.7575 123.666 64.8535C123.5 64.9524 123.552 65.1097 123.538 65.1757C123.525 65.2484 123.27 65.4309 123.147 65.6566C123.124 65.8918 123.113 65.7931 122.97 65.8767C123.23 65.4853 123.367 65.2331 123.547 64.8913M122.69 65.9671C122.666 66.0186 121.914 66.4453 122.149 66.382C122.383 66.3206 123.077 66.0698 123.274 65.982C123.516 65.8767 123.66 65.6556 123.842 65.476C124.027 65.2924 124.599 64.7456 124.698 64.5349C124.794 64.3178 124.882 64.016 124.494 63.3382C124.494 63.3382 124.434 63.4678 124.29 63.5946C124.147 63.7242 123.934 63.8677 123.934 63.8677L123.685 64.1027C123.685 64.1027 122.807 65.7164 122.69 65.9673" fill="#1E9A1C"/>
<path d="M122.114 66.4601C122.086 66.4601 122.054 66.4508 122.038 66.4141C122.004 66.3383 122.059 66.3006 122.393 66.086C122.481 66.0295 122.6 65.953 122.629 65.9274C122.761 65.6501 123.586 64.1335 123.621 64.0684L123.635 64.0504L123.884 63.8154C123.895 63.8065 124.104 63.6657 124.241 63.541C124.372 63.4263 124.428 63.3088 124.429 63.3077L124.488 63.1824L124.557 63.3024C124.937 63.9663 124.881 64.3012 124.763 64.5643C124.67 64.7639 124.215 65.2108 123.97 65.451L123.892 65.5274C123.844 65.5748 123.799 65.6252 123.754 65.6754C123.626 65.8178 123.494 65.965 123.303 66.0483C123.1 66.1387 122.398 66.3912 122.167 66.4517C122.157 66.4546 122.136 66.4601 122.114 66.4601ZM122.75 65.9954L122.755 65.9982C122.739 66.0313 122.703 66.0583 122.481 66.2008C122.766 66.1034 123.113 65.975 123.245 65.9162C123.407 65.8452 123.524 65.7159 123.647 65.5789C123.694 65.5265 123.741 65.4741 123.791 65.4247L123.869 65.3479C124.09 65.1307 124.55 64.679 124.632 64.5043C124.721 64.3051 124.789 64.0446 124.491 63.481C124.455 63.53 124.405 63.5899 124.337 63.6488C124.193 63.7797 123.983 63.9217 123.974 63.9276L123.743 64.1474C123.669 64.2838 122.865 65.7619 122.756 65.9977L122.75 65.9954ZM123.007 65.9391L122.91 65.8368C123.167 65.45 123.303 65.198 123.483 64.8578L123.528 64.8816C123.529 64.8795 123.531 64.8775 123.532 64.8756L123.498 64.8377C123.689 64.6682 123.829 64.4602 123.966 64.2593C124.097 64.065 124.222 63.8814 124.381 63.7458L124.424 63.7092L124.469 63.7419C124.555 63.8031 124.558 63.9038 124.479 64.041C124.438 64.1133 124.39 64.1568 124.351 64.1918C124.331 64.2102 124.313 64.2262 124.305 64.2399C124.272 64.2846 124.221 64.3347 124.168 64.3876C124.105 64.4507 124.026 64.5291 124.001 64.5753C123.95 64.6751 123.881 64.8129 123.702 64.916C123.611 64.9704 123.612 65.0446 123.613 65.1165C123.613 65.1428 123.614 65.1675 123.609 65.1904C123.6 65.242 123.549 65.2932 123.466 65.3779C123.384 65.4615 123.283 65.565 123.217 65.6788C123.202 65.8253 123.189 65.8786 123.088 65.9061C123.066 65.9118 123.042 65.9183 123.007 65.9391ZM124.34 63.9917C124.324 64.0101 124.308 64.0291 124.293 64.0487C124.309 64.0323 124.325 64.014 124.34 63.9917Z" fill="black"/>
<path d="M125.743 65.3993C125.743 65.3993 125.262 65.3562 125.22 65.3562C125.175 65.3562 124.911 65.3199 124.528 65.3199C124.148 65.3199 124.006 65.4515 123.906 65.5575C123.798 65.6762 123.499 65.9502 123.499 65.9502L123.66 65.9361C124.045 65.6364 124.345 65.7462 124.464 65.7375C124.589 65.7331 124.739 65.7455 125.124 65.6091C125.515 65.4721 125.492 65.6004 125.449 65.6135C125.262 65.6807 125.067 65.7202 124.869 65.7306C124.579 65.7466 124.324 65.8028 124.21 65.8028C124.095 65.8028 123.248 66.0346 123.248 66.0346C123.248 66.0346 124.164 66.0882 124.263 66.121C124.361 66.161 124.516 66.1422 124.643 66.0811C124.994 65.9193 125.153 65.8884 125.297 65.8557C125.442 65.8275 125.615 65.7293 125.615 65.7293C125.615 65.7293 125.708 65.6708 125.793 65.5155C125.881 65.3562 125.743 65.3993 125.743 65.3993ZM126.193 62.8884C126.251 62.745 126.395 62.4081 126.549 62.2755C126.642 62.1941 126.803 62.1561 126.889 62.1199C126.925 62.1075 127.188 62.0948 126.86 62.1851C126.723 62.2215 126.539 62.3021 126.457 62.4393C126.342 62.7582 126.242 63.0362 126.028 63.2401C125.872 63.4046 125.772 63.6188 125.772 63.6188L125.604 63.677C125.912 63.4884 126.046 63.1386 126.193 62.8884ZM127.683 62.7088C127.507 62.7673 127.445 62.8157 127.445 62.8157C127.053 62.9335 126.892 63.1801 126.72 63.3808C126.633 63.4859 126.51 63.5644 126.095 63.7421C125.717 63.9048 125.424 64.1562 125.417 64.1562C125.417 64.1562 125.297 64.1808 125.32 64.2391C125.329 64.2668 125.431 64.2446 125.431 64.2446C125.431 64.2446 126.211 64.1333 126.536 63.9355C126.744 63.8053 126.861 63.7106 127.058 63.4064C127.146 63.2721 127.245 63.0191 127.25 63.1819C127.265 63.6133 126.595 64.0317 126.303 64.1608C126.146 64.2271 125.938 64.2546 125.666 64.2995C125.396 64.3491 125.233 64.3342 125.252 64.275C125.28 64.1891 125.311 64.1713 125.382 64.0866C125.511 63.9337 125.82 63.8795 126.049 63.7724C126.319 63.6515 126.574 63.4735 126.703 63.3215C126.833 63.1679 126.879 63.1111 126.915 62.9813C127.015 62.6415 127.02 62.4533 127.113 62.332C127.443 61.9262 127.491 61.7953 127.507 61.6142C127.511 61.5724 127.336 61.7104 127.245 61.7608C127.068 61.8659 127.002 61.8659 126.639 61.9608C126.269 62.0528 126.278 62.2906 126.22 62.403C126.204 62.4479 126.054 62.6346 125.983 62.6691C125.911 62.7053 125.736 62.959 125.671 63.1077C125.623 63.2162 125.537 63.2942 125.469 63.2855C125.397 63.272 125.607 62.486 125.653 62.356C125.703 62.227 125.713 61.9748 125.713 61.8899C125.713 61.8086 125.716 61.5946 125.573 61.5706C125.431 61.5466 125.425 61.3508 125.425 61.3508C125.084 61.6462 125.274 62.1668 125.311 62.4753C125.348 62.7811 125.241 63.3471 125.241 63.3471C125.57 63.4879 125.311 63.8882 125.209 64.0177C125.101 64.1491 124.897 64.1731 124.805 64.2891C124.708 64.4084 124.018 65.3697 124.018 65.3697L124.876 65.1264C124.876 65.1264 124.956 65.1406 124.828 65.0435C124.698 64.9504 124.87 64.5897 124.98 64.5013C125.192 64.3359 125.477 64.4562 125.477 64.4562C125.477 64.4562 125.875 64.5173 126.363 64.3235C126.771 64.1626 126.947 63.9017 127.14 63.7053C127.245 63.5986 127.438 63.2437 127.559 63.0335C127.632 62.912 127.763 62.6813 127.683 62.7088Z" fill="#1E9A1C"/>
<path d="M124.388 66.2108C124.333 66.2108 124.282 66.2021 124.238 66.1845C124.18 66.1655 123.621 66.1252 123.244 66.103L123.23 65.9686C123.268 65.9583 123.344 65.9375 123.439 65.9121L123.453 65.8995C123.456 65.8969 123.751 65.6263 123.856 65.5114C123.867 65.5002 123.878 65.4888 123.889 65.4775L123.848 65.4892L123.962 65.3297C123.99 65.2903 124.655 64.3654 124.752 64.2458C124.806 64.1778 124.887 64.1385 124.965 64.1003C125.04 64.0641 125.11 64.03 125.156 63.9741C125.236 63.8731 125.363 63.6643 125.328 63.5281C125.315 63.4759 125.278 63.4373 125.214 63.4102L125.164 63.3885L125.174 63.3344C125.175 63.3289 125.278 62.7751 125.243 62.4835C125.237 62.4265 125.224 62.3624 125.211 62.2937C125.153 61.9858 125.074 61.5645 125.38 61.2989L125.488 61.2058L125.494 61.3482C125.494 61.3495 125.501 61.4887 125.585 61.5029C125.782 61.5361 125.782 61.7896 125.782 61.8851C125.782 61.9031 125.781 62.2165 125.717 62.3809C125.67 62.5155 125.541 63.0156 125.524 63.1969C125.551 63.1751 125.584 63.1364 125.609 63.0799C125.673 62.9326 125.856 62.6564 125.952 62.608C126.006 62.5822 126.14 62.4169 126.157 62.3784C126.17 62.3521 126.177 62.3281 126.186 62.3017C126.227 62.1724 126.29 61.9771 126.623 61.8942C126.699 61.8741 126.763 61.8583 126.818 61.8447C127.019 61.7946 127.08 61.7793 127.211 61.7017C127.242 61.6841 127.281 61.6579 127.32 61.6319C127.439 61.5517 127.489 61.5185 127.54 61.5483L127.577 61.57L127.576 61.6197C127.557 61.8285 127.493 61.9737 127.167 62.3752C127.118 62.4389 127.096 62.5348 127.063 62.6801C127.043 62.7665 127.019 62.8686 126.984 62.9899C127.094 62.8954 127.23 62.8107 127.416 62.7534C127.442 62.7353 127.516 62.6925 127.661 62.644C127.717 62.6245 127.749 62.6573 127.758 62.6678C127.792 62.7097 127.802 62.7632 127.618 63.0687L127.552 63.1852C127.426 63.407 127.283 63.6584 127.189 63.7534C127.153 63.7903 127.117 63.8297 127.08 63.8702C126.918 64.0489 126.733 64.2513 126.389 64.3873C125.889 64.5856 125.484 64.5263 125.467 64.524C125.448 64.5183 125.199 64.4171 125.023 64.5552C124.956 64.6087 124.847 64.8127 124.85 64.9345C124.851 64.9533 124.855 64.9778 124.868 64.9878C124.922 65.0283 124.993 65.0821 124.964 65.1488C124.95 65.179 124.921 65.2024 124.884 65.1957L124.681 65.253C124.894 65.2584 125.056 65.2733 125.151 65.282C125.186 65.2852 125.21 65.2877 125.221 65.2877C125.262 65.2877 125.635 65.3209 125.738 65.3299C125.782 65.32 125.836 65.3242 125.869 65.3642C125.921 65.4278 125.87 65.5187 125.854 65.5487C125.761 65.7175 125.657 65.7845 125.652 65.7873C125.642 65.7932 125.465 65.893 125.311 65.923L125.289 65.9279C125.152 65.9585 124.998 65.9933 124.672 66.1435C124.58 66.1877 124.479 66.2108 124.388 66.2108ZM123.697 65.9951C123.952 66.0133 124.227 66.0366 124.285 66.0558C124.367 66.0892 124.501 66.0734 124.614 66.0194C124.953 65.8628 125.116 65.8264 125.259 65.7941L125.282 65.7889C125.416 65.7628 125.578 65.6715 125.582 65.6696C125.581 65.6696 125.66 65.6161 125.734 65.4824C125.749 65.4551 125.753 65.4405 125.754 65.4349L125.744 65.4006L125.738 65.4677C125.553 65.451 125.25 65.4249 125.221 65.4247C125.208 65.4247 125.18 65.4224 125.138 65.4185C125.024 65.408 124.81 65.3883 124.529 65.3883C124.16 65.3883 124.038 65.5185 123.957 65.6044C123.919 65.6463 123.858 65.7065 123.795 65.7674C124.048 65.6334 124.257 65.6529 124.381 65.6646C124.413 65.6678 124.44 65.671 124.46 65.6691L124.504 65.6678C124.621 65.6655 124.767 65.6627 125.102 65.5444C125.387 65.4441 125.47 65.4778 125.508 65.5114C125.535 65.535 125.546 65.5694 125.539 65.6035C125.531 65.6389 125.504 65.6685 125.47 65.679C125.279 65.7475 125.077 65.7884 124.873 65.799C124.715 65.8077 124.566 65.8289 124.447 65.8457C124.346 65.8599 124.266 65.8713 124.21 65.8713C124.164 65.8713 123.948 65.9226 123.713 65.9826C123.71 65.9851 123.706 65.9876 123.703 65.9903L123.697 65.9951ZM125.318 63.3091C125.41 63.3638 125.447 63.4381 125.461 63.4943C125.518 63.7152 125.324 63.9832 125.263 64.06C125.197 64.1401 125.106 64.1845 125.025 64.2237C124.958 64.2564 124.894 64.2875 124.859 64.3315C124.788 64.4191 124.389 64.972 124.188 65.2502L124.771 65.0851C124.744 65.0591 124.715 65.0137 124.713 64.9381C124.709 64.7742 124.833 64.5314 124.938 64.4476C125.024 64.3802 125.12 64.3534 125.207 64.3468C125.207 64.3464 125.206 64.3459 125.206 64.3455C125.183 64.3198 125.177 64.2862 125.188 64.2534C125.213 64.1749 125.244 64.1401 125.287 64.0922C125.299 64.0781 125.314 64.0622 125.33 64.0425C125.428 63.9263 125.607 63.8637 125.78 63.8029C125.819 63.7894 125.858 63.7756 125.897 63.7612C125.952 63.7326 126.009 63.7047 126.069 63.679C126.11 63.6612 126.149 63.6446 126.184 63.6288C126.38 63.5222 126.553 63.3928 126.651 63.2772C126.779 63.1266 126.817 63.0781 126.849 62.9633C126.885 62.8392 126.909 62.7362 126.929 62.6493C126.965 62.4924 126.991 62.3789 127.059 62.2901C127.3 61.9942 127.385 61.8518 127.418 61.7308C127.411 61.736 127.403 61.7411 127.396 61.7458C127.354 61.774 127.311 61.8026 127.279 61.8207C127.132 61.9075 127.056 61.9267 126.851 61.9776C126.797 61.9911 126.733 62.0069 126.656 62.0272C126.397 62.0916 126.354 62.2255 126.316 62.3438C126.305 62.3779 126.295 62.4088 126.282 62.434C126.263 62.4862 126.101 62.6882 126.013 62.7308C125.969 62.7538 125.802 62.9808 125.734 63.135C125.672 63.2763 125.56 63.3644 125.46 63.3535L125.427 63.3493L125.401 63.3131C125.328 63.1859 125.586 62.3411 125.589 62.3331C125.635 62.2145 125.645 61.973 125.645 61.8898C125.645 61.8212 125.645 61.652 125.562 61.6382C125.472 61.6229 125.419 61.5609 125.389 61.4935C125.241 61.7097 125.298 62.0158 125.346 62.2683C125.36 62.3402 125.372 62.4077 125.379 62.4672C125.411 62.7287 125.343 63.1611 125.318 63.3091ZM125.504 64.3928C125.52 64.3926 125.893 64.4366 126.338 64.2598C126.595 64.1586 126.757 64.0142 126.89 63.8736C126.684 64.0426 126.454 64.1689 126.331 64.2234C126.186 64.2848 126.007 64.3139 125.779 64.3505L125.677 64.3672C125.613 64.3791 125.555 64.3875 125.503 64.3926C125.503 64.3926 125.503 64.3928 125.504 64.393C125.504 64.3928 125.504 64.3928 125.504 64.3928ZM125.953 63.8867C125.763 63.9865 125.61 64.0971 125.527 64.16C125.751 64.1216 126.262 64.0226 126.501 63.8768C126.702 63.7511 126.81 63.665 127.001 63.3692C127.026 63.3313 127.051 63.2843 127.075 63.2401C127.143 63.1145 127.181 63.0464 127.251 63.0625C127.316 63.078 127.318 63.152 127.319 63.1799C127.321 63.2419 127.311 63.3029 127.291 63.3628C127.34 63.2802 127.389 63.1934 127.432 63.1174L127.5 62.9991C127.552 62.9132 127.584 62.8526 127.605 62.8109C127.521 62.8452 127.488 62.8697 127.488 62.8701L127.466 62.8814C127.143 62.9782 126.988 63.1651 126.839 63.3459C126.817 63.3729 126.795 63.3995 126.773 63.4253C126.682 63.5341 126.556 63.6138 126.243 63.7527C126.189 63.7822 126.133 63.8099 126.077 63.8349C126.037 63.8535 125.996 63.8706 125.953 63.8867ZM127.689 62.7282L127.705 62.7738C127.705 62.7738 127.705 62.7736 127.705 62.7736L127.689 62.7282ZM125.627 63.7417L125.569 63.6185C125.799 63.4778 125.929 63.2335 126.044 63.018C126.074 62.9622 126.102 62.9082 126.132 62.858C126.221 62.6378 126.357 62.3507 126.504 62.2236C126.583 62.1554 126.695 62.1167 126.784 62.0854C126.814 62.0751 126.841 62.0659 126.863 62.0567C126.869 62.0547 127.015 62.0194 127.068 62.0675L127.098 62.0947L127.09 62.1385C127.079 62.1854 127.037 62.2076 126.878 62.2511C126.814 62.2683 126.6 62.3345 126.517 62.4745C126.404 62.7909 126.302 63.0744 126.076 63.2896C125.932 63.4413 125.836 63.6456 125.835 63.6476L125.823 63.674L125.627 63.7417Z" fill="black"/>
<path d="M125.247 65.0173C125.312 64.9907 125.322 64.9789 125.442 64.8478C125.56 64.7169 125.456 64.4958 125.273 64.5047C125.184 64.5107 125.089 64.49 124.913 64.7265C124.743 64.9633 124.994 65.0498 125.09 65.0596C125.13 65.0618 125.184 65.044 125.247 65.0173Z" fill="#1E9A1C"/>
<path d="M125.097 65.1362C125.093 65.1362 125.089 65.1362 125.086 65.1358C125.002 65.1275 124.852 65.0815 124.798 64.9615C124.772 64.9039 124.76 64.8086 124.851 64.682C125.019 64.4559 125.129 64.4339 125.245 64.4297L125.268 64.4286C125.384 64.4204 125.49 64.4856 125.54 64.5927C125.59 64.698 125.574 64.8153 125.499 64.899C125.376 65.0328 125.356 65.0556 125.276 65.0877C125.197 65.1213 125.143 65.1362 125.097 65.1362ZM125.284 64.5809C125.282 64.5809 125.279 64.5809 125.277 64.5811L125.25 64.5824C125.179 64.5849 125.112 64.5875 124.974 64.7722C124.948 64.8084 124.92 64.8608 124.937 64.8988C124.958 64.9457 125.044 64.9781 125.098 64.9836C125.113 64.9835 125.158 64.9723 125.217 64.9471L125.218 64.9464C125.264 64.9277 125.266 64.927 125.378 64.805C125.425 64.7525 125.421 64.6962 125.402 64.6582C125.384 64.6202 125.344 64.5809 125.284 64.5809Z" fill="black"/>
<path d="M124.804 63.5206C124.69 63.7109 124.629 63.9295 124.719 63.9969C124.739 64.008 124.818 64.0777 124.885 64.0777C124.951 64.0777 125.138 63.988 125.244 63.8237C125.351 63.6644 125.438 63.4895 125.22 63.3807C125.022 63.2827 124.886 63.3744 124.804 63.5204" fill="#1E9A1C"/>
<path d="M124.884 64.1555C124.806 64.1555 124.732 64.1023 124.692 64.0735L124.671 64.0593C124.529 63.9517 124.617 63.6816 124.735 63.4822C124.855 63.2693 125.044 63.207 125.254 63.3107C125.347 63.3569 125.404 63.4194 125.424 63.4968C125.457 63.6211 125.388 63.7482 125.308 63.8672C125.193 64.0454 124.983 64.1555 124.884 64.1555ZM124.764 63.9341C124.765 63.9341 124.773 63.9396 124.783 63.9469C124.803 63.9613 124.857 63.9996 124.884 63.9996C124.924 63.9989 125.087 63.9226 125.178 63.7812C125.232 63.701 125.291 63.6017 125.273 63.5367C125.265 63.5043 125.236 63.476 125.185 63.4505C125.136 63.4265 124.987 63.3526 124.871 63.5586L124.798 63.5176L124.87 63.5605C124.749 63.7628 124.737 63.9137 124.765 63.9346C124.765 63.9343 124.764 63.9341 124.764 63.9341Z" fill="black"/>
<path d="M125.453 61.1964C125.453 61.1964 125.471 61.1671 125.396 61.0895C125.277 60.968 125.129 60.7518 125.129 60.7518C124.893 60.8809 124.814 61.1418 124.814 61.2455C124.814 61.3531 124.854 61.5875 124.818 61.8264C124.805 61.9076 124.792 62.0006 124.675 62.296C124.556 62.5877 124.692 62.8557 124.719 62.9502C124.739 63.044 124.837 63.3356 124.837 63.3356C124.837 63.3356 124.929 63.2764 124.96 63.2695C124.997 63.2596 125.123 63.2651 125.123 63.2651C125.123 63.2651 125.265 63.008 125.27 62.8651C125.273 62.7596 125.256 62.5811 125.206 62.3069C125.136 61.908 125.141 61.7942 125.188 61.5711C125.235 61.3447 125.453 61.196 125.453 61.196" fill="#1E9A1C"/>
<path d="M124.8 63.4409L124.772 63.3572C124.768 63.3453 124.673 63.0611 124.652 62.9647C124.649 62.9556 124.643 62.9389 124.636 62.919C124.592 62.7965 124.5 62.5419 124.612 62.2701C124.723 61.989 124.737 61.8999 124.749 61.8212C124.775 61.6522 124.762 61.4886 124.753 61.369C124.749 61.3192 124.746 61.277 124.746 61.2454C124.746 61.1271 124.831 60.8363 125.096 60.6916L125.15 60.6619L125.185 60.7131C125.187 60.715 125.332 60.926 125.445 61.0415C125.542 61.1426 125.528 61.2044 125.511 61.2322L125.453 61.1967L125.491 61.2525C125.489 61.2539 125.296 61.3894 125.255 61.585C125.209 61.8034 125.206 61.9098 125.273 62.2951C125.32 62.5488 125.342 62.7415 125.338 62.8668C125.333 63.0224 125.198 63.2704 125.182 63.2983L125.162 63.3354L125.119 63.3336C125.06 63.331 124.994 63.332 124.978 63.3358C124.963 63.3402 124.915 63.3668 124.874 63.3933L124.8 63.4409ZM125.11 60.8443C124.941 60.9654 124.883 61.1651 124.883 61.2454C124.883 61.2743 124.886 61.3128 124.889 61.3583C124.899 61.4845 124.913 61.6573 124.886 61.8366C124.872 61.9238 124.856 62.0252 124.739 62.3212C124.647 62.5451 124.724 62.7582 124.765 62.8725C124.773 62.8961 124.78 62.9158 124.785 62.9315C124.798 62.9934 124.845 63.1403 124.875 63.2329C124.901 63.2186 124.927 63.2065 124.946 63.2026C124.974 63.1948 125.035 63.1942 125.082 63.1951C125.126 63.1092 125.198 62.9512 125.201 62.8626C125.203 62.7836 125.194 62.6245 125.138 62.3191C125.068 61.9133 125.071 61.7921 125.121 61.5568C125.161 61.3665 125.304 61.2282 125.374 61.1699C125.368 61.1616 125.359 61.1506 125.346 61.1371C125.261 61.0497 125.163 60.9176 125.11 60.8443Z" fill="black"/>
<path d="M125.805 61.5945C125.805 61.5945 125.939 61.5625 126.007 61.4411C126.092 61.2945 126.069 61.1389 126.069 61.1389C125.862 60.7365 125.583 61.0612 125.583 61.0612C125.333 61.5722 125.805 61.5947 125.805 61.5947" fill="#1E9A1C"/>
<path d="M125.801 61.6699C125.791 61.6696 125.575 61.6573 125.478 61.4934C125.408 61.3761 125.421 61.2196 125.514 61.0282L125.525 61.0122C125.531 61.0053 125.671 60.843 125.851 60.864C125.964 60.8773 126.06 60.9581 126.135 61.1044L126.143 61.1282C126.144 61.1355 126.168 61.3116 126.071 61.4789C125.989 61.6262 125.829 61.666 125.822 61.6676L125.804 61.5945L125.801 61.6699ZM125.645 61.1039C125.599 61.201 125.557 61.3306 125.607 61.4162C125.653 61.4943 125.76 61.5138 125.796 61.5185C125.823 61.5094 125.899 61.478 125.94 61.4045C125.998 61.3036 125.997 61.1957 125.995 61.1609C125.946 61.0701 125.892 61.0206 125.834 61.0137C125.757 61.003 125.677 61.0703 125.645 61.1039Z" fill="black"/>
<path d="M126.511 60.8571C126.201 60.8731 126.049 61.4298 126.049 61.4298C126.049 61.4298 125.998 61.5674 125.833 61.6738C125.658 61.7824 125.761 61.9384 125.761 62.2156C125.761 62.4927 125.568 62.9829 125.568 62.9829L125.496 63.1491C125.496 63.1491 125.503 63.2738 125.616 63.0473C125.808 62.6662 126.018 62.7587 126.098 62.3485C126.148 62.0434 126.653 61.9464 126.653 61.9464L126.511 61.9198C125.986 61.6738 126.541 61.0604 126.631 60.9516C126.726 60.8433 126.817 60.8433 126.511 60.8571Z" fill="#1E9A1C"/>
<path d="M125.518 63.2731C125.511 63.2731 125.503 63.2722 125.496 63.2707C125.445 63.2603 125.411 63.2145 125.407 63.1539L125.406 63.133L125.487 62.9474C125.487 62.9453 125.672 62.4723 125.672 62.2155C125.672 62.1369 125.663 62.0671 125.655 62.0055C125.636 61.857 125.615 61.7036 125.787 61.5976C125.921 61.5115 125.965 61.3995 125.965 61.3984C125.98 61.3428 126.143 60.7866 126.507 60.7677L126.541 60.7661C126.731 60.7573 126.777 60.7553 126.805 60.8247C126.831 60.8897 126.78 60.9345 126.752 60.9586C126.738 60.9714 126.718 60.9884 126.698 61.0108L126.683 61.0294C126.452 61.3032 126.352 61.516 126.384 61.6616C126.399 61.7336 126.45 61.7901 126.539 61.834L126.67 61.8585L126.67 62.0342C126.547 62.0582 126.219 62.1642 126.186 62.3631C126.136 62.6246 126.03 62.7152 125.928 62.8027C125.852 62.8675 125.773 62.9346 125.696 63.0875C125.649 63.1818 125.597 63.2731 125.518 63.2731ZM126.516 60.9464C126.316 60.957 126.171 61.3253 126.135 61.4535C126.131 61.4673 126.07 61.6278 125.882 61.7491C125.814 61.7913 125.812 61.8256 125.833 61.9822C125.841 62.0493 125.851 62.1253 125.851 62.2155C125.851 62.3606 125.804 62.555 125.755 62.7159C125.775 62.6981 125.793 62.682 125.811 62.6667C125.905 62.587 125.972 62.5293 126.01 62.3315C126.042 62.1358 126.218 62.0144 126.375 61.9437C126.286 61.8799 126.23 61.7983 126.209 61.6999C126.147 61.4181 126.401 61.0889 126.519 60.9462L126.516 60.9464Z" fill="black"/>
<path d="M126.422 61.5175C126.281 61.8217 126.684 61.8364 126.777 61.7833C126.815 61.7615 126.9 61.6602 126.9 61.6602C127.064 61.4249 126.914 61.2657 126.829 61.2429C126.747 61.2157 126.571 61.1948 126.422 61.5175Z" fill="#1E9A1C"/>
<path d="M126.65 61.8835C126.557 61.8835 126.454 61.8585 126.388 61.7978C126.341 61.7545 126.274 61.6563 126.353 61.4853C126.521 61.1224 126.739 61.1327 126.853 61.1707C126.913 61.1865 126.994 61.2486 127.031 61.3487C127.059 61.4256 127.07 61.5496 126.963 61.7037C126.93 61.7427 126.86 61.8237 126.815 61.8493C126.778 61.8708 126.717 61.8835 126.65 61.8835ZM126.748 61.3061C126.651 61.3061 126.566 61.3878 126.492 61.5494L126.492 61.5496C126.447 61.6453 126.48 61.6758 126.491 61.6858C126.551 61.7406 126.703 61.7378 126.74 61.717C126.754 61.7081 126.802 61.6584 126.842 61.6112C126.893 61.5373 126.91 61.4627 126.888 61.4013C126.868 61.3484 126.826 61.3209 126.809 61.3166C126.788 61.3097 126.768 61.3061 126.748 61.3061Z" fill="black"/>
<path d="M125.656 60.3371C125.762 60.5344 126.058 61.0833 126.128 61.0491C126.171 61.0278 126.137 60.9155 126.137 60.9155C126.137 60.9155 126.128 60.7669 126.08 60.5873C126.032 60.4062 126.044 60.1744 125.95 60.0258C125.858 59.8775 125.638 59.7013 125.551 59.4669C125.466 59.2318 125.533 58.7869 125.54 58.7322C125.549 58.6809 125.575 58.7146 125.529 58.6615C125.483 58.6038 125.109 58.4049 125.109 58.4049C125.109 58.4049 125.131 58.55 125.122 58.8127C125.118 58.8764 125.1 58.9506 125.091 59.0611C125.082 59.1664 125.145 59.2989 125.298 59.6015C125.476 59.9516 125.562 60.1666 125.656 60.3371ZM127.899 57.7256C127.899 57.7256 127.792 57.9053 127.753 57.9449C127.713 57.9849 127.104 58.5084 127.069 58.5304C127.04 58.5535 126.722 58.6551 126.432 59.4376C126.142 60.2176 126.267 60.9471 126.267 60.9471L126.408 60.9296L126.432 60.8533C126.432 60.8533 126.479 60.5944 126.516 60.398C126.556 60.2044 126.773 59.9336 126.917 59.7338C127.055 59.5384 127.166 59.2575 127.166 59.2575C127.329 58.9284 127.407 58.6342 127.569 58.4047C127.576 58.678 126.537 60.3578 126.426 60.9295L126.733 60.8825C126.979 60.658 127.301 60.1865 127.518 59.8825C127.737 59.5775 127.83 59.1007 127.87 58.8895C127.908 58.6807 127.9 57.7258 127.9 57.7258" fill="#1E9A1C"/>
<path d="M126.118 61.1217C126.044 61.1218 125.934 60.999 125.597 60.3699C125.548 60.2823 125.503 60.1859 125.446 60.0641C125.391 59.9461 125.326 59.806 125.238 59.6326C125.081 59.3234 125.012 59.1814 125.022 59.0554C125.028 58.9961 125.035 58.9472 125.042 58.9047C125.047 58.8686 125.052 58.8377 125.054 58.809C125.062 58.5585 125.042 58.4165 125.041 58.4151L125.022 58.2807L125.141 58.3444C125.258 58.4062 125.533 58.5567 125.583 58.6187C125.61 58.6499 125.647 58.6926 125.606 58.7437C125.564 59.0647 125.568 59.31 125.616 59.4435C125.667 59.5811 125.772 59.7016 125.864 59.8078C125.92 59.8714 125.972 59.9315 126.008 59.9898C126.076 60.0972 126.094 60.2358 126.112 60.3701C126.121 60.4416 126.13 60.5093 126.146 60.5702C126.158 60.613 126.167 60.654 126.175 60.692C126.162 60.4052 126.179 59.9224 126.368 59.4137C126.547 58.9291 126.767 58.6147 127.021 58.4795C127.071 58.4453 127.663 57.9387 127.705 57.8965C127.727 57.8738 127.798 57.7622 127.841 57.6904L127.9 57.7258L127.968 57.7252C127.969 57.7644 127.977 58.6891 127.938 58.9018C127.902 59.0926 127.807 59.5986 127.574 59.9225L127.486 60.0458C127.269 60.3516 127 60.7323 126.78 60.9331L126.764 60.9471L126.34 61.0121L126.341 61.0071L126.217 61.0224C126.212 61.0577 126.196 61.0924 126.158 61.1108C126.145 61.1172 126.132 61.1217 126.118 61.1217ZM125.189 58.5262C125.193 58.5964 125.195 58.6934 125.191 58.8152C125.189 58.8492 125.184 58.8844 125.177 58.9254C125.171 58.9655 125.164 59.0116 125.159 59.0671C125.152 59.1552 125.223 59.3004 125.36 59.5705C125.449 59.7456 125.515 59.887 125.57 60.0061C125.626 60.1257 125.67 60.2202 125.717 60.3038L125.717 60.3045C125.901 60.6472 126.007 60.8186 126.068 60.9041C126.062 60.85 126.049 60.7355 126.014 60.6051C125.995 60.5355 125.986 60.4604 125.976 60.388C125.961 60.2685 125.944 60.1451 125.892 60.0626C125.861 60.0131 125.812 59.9571 125.761 59.8978C125.661 59.7827 125.547 59.6522 125.487 59.4906C125.415 59.2929 125.439 58.9704 125.471 58.7345C125.472 58.7237 125.475 58.7144 125.477 58.7064C125.437 58.6706 125.316 58.5972 125.189 58.5262ZM127.106 58.5883C127.106 58.5883 127.098 58.5936 127.085 58.6004C126.807 58.7487 126.612 59.1504 126.497 59.4614C126.265 60.0826 126.305 60.6779 126.327 60.8708L126.356 60.867L126.367 60.8328L126.448 60.3855C126.486 60.2042 126.65 59.9817 126.795 59.7853L126.862 59.6937C126.992 59.5081 127.101 59.235 127.102 59.2324C127.167 59.101 127.217 58.9807 127.264 58.8644C127.339 58.6829 127.41 58.5116 127.513 58.3653L127.633 58.1955L127.638 58.4032C127.641 58.5426 127.454 58.9104 127.148 59.4989C126.896 59.9848 126.613 60.5293 126.518 60.8461L126.702 60.8179C126.909 60.6225 127.177 60.2443 127.375 59.9666L127.463 59.8427C127.677 59.5434 127.769 59.0591 127.803 58.8768C127.828 58.7394 127.832 58.2506 127.832 57.9562C127.821 57.9714 127.811 57.9842 127.802 57.9926C127.769 58.026 127.15 58.5606 127.106 58.5883Z" fill="black"/>
<path d="M125.828 57.8986C125.671 57.7535 125.549 57.71 125.549 57.71C125.549 57.71 125.586 57.9948 125.586 58.1682C125.586 58.3422 125.602 58.6342 125.592 58.79C125.586 58.9453 125.509 59.2028 125.619 59.4548C125.732 59.7033 125.86 59.8298 125.95 59.9862C126.032 60.1393 126.182 60.9348 126.182 60.9348C126.182 60.9348 126.127 59.8591 126.174 59.5548C126.218 59.2558 126.232 58.7899 126.166 58.5564C126.096 58.3218 125.981 58.0471 125.828 57.8986ZM126.545 56.8484C126.592 56.7564 126.702 56.5662 126.749 56.2769C126.766 56.1542 126.777 55.9551 126.773 55.8173C126.769 55.7251 126.733 55.5653 126.773 55.5546C126.808 55.5458 126.779 55.6044 126.799 55.7408C126.809 55.7893 126.775 55.924 126.769 56.0964C126.761 56.2342 126.755 56.3495 126.694 56.536C126.64 56.7004 126.689 56.8829 126.656 56.9342C126.62 56.9862 126.526 57.1835 126.526 57.1835C126.526 57.1835 126.468 57.3428 126.478 57.4877C126.483 57.636 126.492 57.7964 126.492 57.7964C126.492 57.7964 126.561 57.6691 126.714 57.6478C126.714 57.6478 126.749 57.3991 126.749 57.3215C126.749 57.2435 126.848 56.7342 126.899 56.5786C126.969 56.3506 127.018 55.9535 126.907 55.4926C126.877 55.368 126.855 54.978 126.855 54.978C126.855 54.978 126.708 55.0957 126.62 55.5404C126.594 55.6757 126.651 56.0382 126.628 56.4248C126.62 56.6378 126.415 57.5017 126.387 57.5557" fill="#1E9A1C"/>
<path d="M126.115 60.9475C126.055 60.6318 125.946 60.124 125.89 60.0186C125.859 59.9648 125.822 59.9132 125.783 59.8581C125.712 59.7588 125.632 59.6463 125.557 59.4831C125.465 59.2728 125.492 59.062 125.512 58.908C125.518 58.8632 125.523 58.8225 125.524 58.7874C125.53 58.6904 125.526 58.5414 125.523 58.3973C125.52 58.3133 125.518 58.2327 125.518 58.1682C125.518 58.0013 125.482 57.7217 125.481 57.7189L125.467 57.6078L125.572 57.6454C125.578 57.6474 125.71 57.6954 125.875 57.8482L125.876 57.8494C126.061 58.0291 126.178 58.3573 126.232 58.5369C126.301 58.7791 126.289 59.2471 126.243 59.5646C126.197 59.8592 126.25 60.9205 126.251 60.9311L126.115 60.9475ZM125.633 57.832C125.643 57.9312 125.655 58.0669 125.655 58.1682C125.655 58.2317 125.657 58.3111 125.66 58.3937C125.663 58.5408 125.667 58.6927 125.661 58.7941C125.66 58.8314 125.654 58.8762 125.648 58.9254C125.629 59.0712 125.606 59.2526 125.683 59.4272C125.751 59.5775 125.824 59.6797 125.894 59.7785C125.936 59.8374 125.975 59.8927 126.01 59.952C126.033 59.9959 126.061 60.0828 126.089 60.1875C126.085 59.9292 126.087 59.6727 126.107 59.5442C126.152 59.2371 126.162 58.7903 126.1 58.5752C126.016 58.2925 125.9 58.0639 125.781 57.9483C125.725 57.8968 125.674 57.859 125.633 57.832ZM126.438 58.0351L126.424 57.8002C126.424 57.8002 126.418 57.6905 126.413 57.5686L126.327 57.5244C126.344 57.4847 126.431 57.1277 126.494 56.8223L126.484 56.817L126.499 56.7886C126.5 56.7864 126.501 56.7841 126.502 56.7818C126.534 56.6268 126.558 56.4899 126.56 56.4219C126.572 56.2205 126.562 56.0239 126.553 55.866C126.545 55.717 126.539 55.5993 126.554 55.527C126.643 55.071 126.795 54.9381 126.812 54.9245L126.916 54.8414L126.923 54.9741C126.93 55.0808 126.951 55.3791 126.974 55.4762C127.11 56.0437 127.002 56.4787 126.965 56.5986C126.913 56.758 126.818 57.2558 126.818 57.3215C126.818 57.4016 126.786 57.6314 126.782 57.6573L126.775 57.7086L126.724 57.7157C126.608 57.7317 126.555 57.8254 126.553 57.8294L126.438 58.0351ZM126.588 57.2129C126.589 57.2129 126.538 57.3568 126.547 57.4831C126.549 57.5357 126.551 57.5895 126.553 57.6372C126.581 57.6187 126.614 57.6022 126.653 57.591C126.664 57.5061 126.681 57.3704 126.681 57.3215C126.681 57.2286 126.786 56.7072 126.835 56.5574C126.866 56.4533 126.958 56.0864 126.86 55.5968V55.6053C126.86 55.6335 126.859 55.6751 126.867 55.7308C126.874 55.7625 126.868 55.8097 126.858 55.881C126.851 55.9404 126.841 56.0151 126.838 56.0988C126.829 56.2482 126.822 56.3671 126.76 56.5575C126.733 56.6389 126.735 56.73 126.737 56.8034C126.738 56.8776 126.74 56.9312 126.714 56.9712C126.689 57.0078 126.626 57.1355 126.588 57.2129ZM126.801 55.1847C126.763 55.2657 126.721 55.3845 126.688 55.5536C126.677 55.6092 126.683 55.7249 126.69 55.8588C126.694 55.9224 126.697 55.9922 126.7 56.0662C126.705 55.9785 126.707 55.8885 126.705 55.8195C126.704 55.7938 126.7 55.762 126.696 55.73C126.682 55.6127 126.67 55.5112 126.755 55.4883L126.789 55.4793L126.829 55.5023C126.835 55.5069 126.839 55.5119 126.843 55.5172C126.843 55.5142 126.842 55.5114 126.841 55.5085C126.825 55.4406 126.811 55.3025 126.801 55.1847Z" fill="black"/>
<path d="M126.545 56.8484C126.538 56.8615 126.535 56.8669 126.535 56.8669C126.535 56.8669 126.541 56.8615 126.545 56.8484Z" fill="#1E9A1C"/>
<path d="M126.581 56.9183L126.473 56.8387C126.473 56.8387 126.476 56.8317 126.485 56.815L126.489 56.8165C126.481 56.8233 126.479 56.8285 126.479 56.8304L126.51 56.839L126.491 56.8176L126.611 56.8664C126.603 56.896 126.587 56.9125 126.581 56.9183Z" fill="black"/>
<path d="M125.966 54.6063C126.045 54.6063 126.045 54.6912 126.029 54.7583C126.016 54.8274 126.018 54.9556 126.018 54.9819C126.018 55.0121 126.051 55.1952 126.077 55.2907C126.106 55.3889 126.155 55.4198 126.133 55.6169C126.119 55.7409 125.991 55.8865 126.036 56.097C126.06 56.2078 126.139 56.3236 126.179 56.4189C126.211 56.4852 126.194 56.6474 126.203 56.7799C126.206 56.909 126.277 56.9963 126.277 56.9963C126.277 56.9963 126.189 57.161 126.16 56.955C126.128 56.7187 126.117 56.6136 126.072 56.5067C125.998 56.3314 125.93 56.0163 126.045 55.7734C126.064 55.7265 126.08 55.6392 126.08 55.5356C126.08 55.4303 126.015 55.2505 126.002 55.1392C125.992 55.0507 125.999 54.8641 125.999 54.7967M125.587 55.7858C125.606 55.9192 125.648 55.9952 125.799 56.2854C125.845 56.381 125.951 56.625 125.966 56.7028C125.985 56.7807 126.001 56.8745 126.001 56.8983C126.001 56.9239 126.018 57.107 126.018 57.107V57.183C126.018 57.183 125.601 56.9399 125.419 56.8099C125.237 56.679 125.03 56.4994 124.898 56.3909C124.749 56.2678 124.392 55.845 124.388 55.5065L124.224 55.3579C124.224 55.3579 124.099 56.1105 124.689 56.5976C124.859 56.7372 125.044 56.8912 125.441 57.0707C125.838 57.2539 125.786 57.4178 125.952 57.7698C126.115 58.1234 126.217 58.3268 126.238 58.4269C126.252 58.5338 126.192 60.0372 126.192 60.0372L126.206 60.1736C126.206 60.1736 126.57 58.7808 126.744 58.6254C126.744 58.6254 126.398 58.5721 126.425 58.0276L126.365 57.6685C126.365 57.6685 126.295 57.2368 126.425 56.969C126.425 56.969 126.58 56.4781 126.527 56.0538C126.494 55.7999 126.482 55.7239 126.451 55.4807C126.404 55.1021 126.252 54.561 126.236 54.4956C126.184 54.3056 126.166 54.2763 126.106 54.1261C126.088 54.073 126.054 53.8978 125.998 53.8952C125.966 53.8934 125.916 54.1207 125.916 54.1207C125.916 54.1207 125.844 54.3683 125.828 54.4354C125.781 54.6354 125.671 54.8032 125.62 55.2525C125.611 55.3339 125.602 55.5532 125.592 55.5825C125.587 55.6072 125.576 55.7363 125.587 55.7858Z" fill="#1E9A1C"/>
<path d="M126.274 60.1908L126.139 60.1806L126.125 60.0443C126.147 59.4556 126.18 58.5095 126.17 58.4358C126.157 58.3705 126.09 58.2273 125.989 58.0106L125.89 57.7984C125.847 57.7073 125.819 57.6286 125.794 57.5593C125.723 57.365 125.684 57.258 125.413 57.133C125.014 56.9522 124.822 56.7949 124.653 56.656C124.033 56.1441 124.152 55.3791 124.157 55.3466L124.178 55.2226L124.457 55.4758L124.457 55.5057C124.461 55.8174 124.801 56.2218 124.943 56.3379L125.046 56.4245C125.169 56.5274 125.322 56.6555 125.459 56.7543C125.581 56.8405 125.81 56.9797 125.946 57.0603C125.941 57.0043 125.934 56.9158 125.934 56.8983C125.933 56.8823 125.92 56.7975 125.901 56.7189C125.886 56.6489 125.787 56.4158 125.738 56.3152L125.712 56.2641C125.583 56.0169 125.539 55.9328 125.52 55.7974C125.507 55.7324 125.52 55.595 125.526 55.5685C125.532 55.5449 125.538 55.4536 125.541 55.3932C125.545 55.3355 125.549 55.2786 125.553 55.245C125.588 54.9308 125.652 54.7495 125.704 54.6039C125.727 54.5391 125.748 54.481 125.762 54.4197C125.778 54.3522 125.852 54.1014 125.852 54.1014C125.907 53.8435 125.948 53.8228 126.002 53.8268C126.096 53.8311 126.13 53.9548 126.16 54.0639C126.164 54.0803 126.168 54.0945 126.171 54.1042L126.198 54.1692C126.238 54.2674 126.258 54.3166 126.302 54.4776L126.311 54.5086C126.421 54.9174 126.491 55.2416 126.52 55.4722C126.537 55.6078 126.549 55.6914 126.561 55.7829L126.596 56.0449C126.65 56.4795 126.498 56.969 126.491 56.9896C126.369 57.2445 126.432 57.6535 126.433 57.6576L126.494 58.0161C126.471 58.5021 126.744 58.5557 126.756 58.5578L126.896 58.5824L126.791 58.6766C126.675 58.7798 126.412 59.6602 126.274 60.1908ZM124.283 55.5034C124.279 55.7332 124.327 56.2091 124.733 56.5448C124.91 56.69 125.087 56.8348 125.47 57.0083C125.793 57.1575 125.848 57.3063 125.922 57.5125C125.947 57.5791 125.974 57.6545 126.014 57.7406L126.113 57.9527C126.222 58.1862 126.288 58.3271 126.306 58.4131C126.316 58.4946 126.293 59.2079 126.276 59.6669C126.381 59.3045 126.524 58.8554 126.638 58.6576C126.519 58.5962 126.337 58.4345 126.358 58.0241L126.298 57.6799C126.295 57.6634 126.244 57.3321 126.32 57.0592C126.295 57.0944 126.253 57.1363 126.196 57.1258C126.114 57.1112 126.098 57.0049 126.093 56.9647L126.084 56.8978C126.059 56.7137 126.047 56.6212 126.01 56.5334C125.923 56.3278 125.864 55.9977 125.984 55.7441C125.996 55.7144 126.012 55.6395 126.012 55.5356C126.012 55.4842 125.992 55.4042 125.973 55.3268C125.956 55.2613 125.941 55.1995 125.935 55.147C125.926 55.0753 125.929 54.9516 125.93 54.8611L125.931 54.7967H125.956C125.957 54.7783 125.959 54.7612 125.962 54.7462C125.973 54.7011 125.97 54.6765 125.966 54.671L125.967 54.5378C126.024 54.5378 126.057 54.5644 126.075 54.5867C126.117 54.6405 126.11 54.7185 126.096 54.7744C126.087 54.8274 126.087 54.9367 126.087 54.9725C126.088 55.0061 126.118 55.1765 126.144 55.2726C126.15 55.2943 126.158 55.3128 126.166 55.331C126.192 55.3947 126.22 55.4606 126.202 55.6243C126.196 55.6767 126.176 55.7269 126.154 55.7801C126.117 55.8711 126.079 55.9653 126.104 56.0829C126.117 56.1448 126.153 56.2129 126.187 56.2786C126.208 56.3186 126.228 56.357 126.243 56.3927C126.269 56.4463 126.269 56.5344 126.269 56.6364C126.269 56.6829 126.269 56.7308 126.272 56.7753C126.275 56.8807 126.331 56.9526 126.331 56.9533L126.348 56.9747C126.353 56.9626 126.359 56.9507 126.364 56.9392C126.364 56.9392 126.51 56.4644 126.46 56.0622L126.425 55.8012C126.413 55.7094 126.401 55.6255 126.384 55.4893C126.356 55.2649 126.287 54.947 126.178 54.5443L126.17 54.5129C126.128 54.3609 126.111 54.3172 126.071 54.2213L126.043 54.1518C126.037 54.1365 126.033 54.1196 126.027 54.0999C126.024 54.0855 126.017 54.0609 126.009 54.0359C126 54.0665 125.992 54.1014 125.984 54.1352C125.983 54.1402 125.911 54.3844 125.896 54.4506C125.88 54.5173 125.858 54.58 125.833 54.6497C125.784 54.7888 125.723 54.9618 125.689 55.2602C125.685 55.2924 125.682 55.3469 125.678 55.4021C125.669 55.5389 125.666 55.582 125.658 55.6046C125.656 55.6182 125.647 55.7359 125.655 55.7713L125.656 55.7763C125.671 55.8896 125.706 55.9556 125.833 56.2009L125.861 56.2538C125.902 56.3387 126.016 56.5979 126.034 56.6892C126.051 56.7593 126.071 56.864 126.071 56.8983C126.071 56.9244 126.087 57.1006 126.087 57.1006L126.088 57.3023L125.985 57.2422C125.967 57.2323 125.563 56.9962 125.38 56.8658C125.238 56.7637 125.083 56.6339 124.958 56.5295L124.856 56.4438C124.724 56.3353 124.346 55.9091 124.321 55.5381L124.283 55.5034Z" fill="black"/>
<path d="M125.898 57.6861C125.898 57.6861 125.837 57.5515 125.776 57.4826C125.652 57.3368 125.485 57.213 125.011 56.9813C124.539 56.7461 124.414 56.3595 124.174 56.2004C124.063 56.1242 123.85 56.0881 123.85 56.0881C123.85 56.0881 124.06 56.3773 124.11 56.4771C124.174 56.6044 124.189 56.6911 124.449 56.9335C124.707 57.1768 125.023 57.2617 125.226 57.3219C125.513 57.411 125.898 57.6862 125.898 57.6862M124.41 55.4513C124.422 55.4895 124.544 55.9051 124.8 56.2281C125.191 56.7222 125.944 57.0753 125.944 57.0753C125.873 56.7677 125.751 56.4121 125.653 56.2546C125.311 55.7019 124.407 55.431 124.407 55.431C124.407 55.431 124.391 55.4099 124.41 55.4513ZM125.489 55.6844C125.691 55.2408 125.087 54.8171 124.916 54.5081C124.979 54.4579 125.054 54.5895 125.123 54.6771C125.223 54.8088 125.501 55.1899 125.501 55.1899L125.588 54.7841L124.868 54.1288C124.859 54.2241 124.636 54.3024 124.636 54.3024C124.529 54.909 125.489 55.6842 125.489 55.6842" fill="#1E9A1C"/>
<path d="M125.858 57.7419C125.854 57.7393 125.479 57.472 125.206 57.3873L125.178 57.3792C124.972 57.3185 124.661 57.2268 124.402 56.9833C124.171 56.7681 124.124 56.6675 124.074 56.5609L124.048 56.508C124.01 56.43 123.852 56.2075 123.794 56.1283L123.695 55.9924L123.861 56.0204C123.87 56.022 124.091 56.0601 124.213 56.1439C124.314 56.211 124.396 56.3141 124.482 56.4234C124.616 56.5918 124.767 56.7827 125.042 56.9199C125.539 57.1628 125.702 57.2895 125.828 57.4382C125.895 57.5129 125.958 57.652 125.96 57.6579L125.898 57.6859L125.858 57.7419ZM124.013 56.2008C124.075 56.2887 124.144 56.3922 124.171 56.4466C124.181 56.4658 124.189 56.4843 124.198 56.5026C124.244 56.601 124.284 56.6859 124.496 56.8833C124.731 57.1045 125.012 57.1873 125.217 57.2476L125.246 57.2561C125.373 57.2958 125.517 57.3693 125.641 57.4407C125.528 57.336 125.354 57.2248 124.981 57.0429C124.678 56.8918 124.51 56.6793 124.375 56.5085C124.292 56.4037 124.22 56.3132 124.136 56.2576C124.104 56.2355 124.059 56.2163 124.013 56.2008ZM126.042 57.197L125.914 57.1374C125.883 57.1227 125.142 56.7717 124.746 56.2705C124.586 56.0689 124.445 55.7894 124.348 55.4833L124.357 55.4785L124.355 55.4756L124.347 55.4792C124.338 55.4594 124.311 55.3991 124.366 55.3666L124.419 55.3355L124.448 55.3718C124.59 55.4174 125.385 55.6909 125.712 56.2184C125.81 56.3772 125.935 56.7311 126.01 57.06L126.042 57.197ZM124.512 55.5395C124.601 55.7913 124.721 56.018 124.854 56.1855C125.133 56.5389 125.61 56.8219 125.841 56.9457C125.769 56.6786 125.671 56.4133 125.595 56.2905C125.345 55.8861 124.766 55.6344 124.512 55.5395ZM125.446 55.7376C125.405 55.7048 124.455 54.9294 124.569 54.2904L124.576 54.2511L124.613 54.2378C124.711 54.2034 124.794 54.1465 124.799 54.1223L124.812 53.9851L125.663 54.7598L125.553 55.2756C125.608 55.4151 125.62 55.5619 125.551 55.7129L125.489 55.6844L125.446 55.7376ZM124.699 54.3519C124.654 54.8083 125.24 55.374 125.455 55.5647C125.499 55.3186 125.283 55.0697 125.091 54.8473C124.997 54.739 124.909 54.6367 124.856 54.5411L124.828 54.4904L124.874 54.4544C124.899 54.4341 124.929 54.425 124.961 54.4294C125.032 54.4389 125.085 54.5105 125.141 54.5863C125.153 54.6029 125.165 54.6195 125.177 54.6346C125.241 54.7188 125.376 54.9023 125.466 55.0259L125.512 54.8083L124.884 54.2364C124.832 54.2907 124.752 54.3298 124.699 54.3519Z" fill="black"/>
<path d="M124.235 54.6564C124.062 54.7342 124 54.7342 124 54.7342L124.097 54.9913L124.153 55.0611C124.153 55.0611 124.379 55.3884 124.511 55.4291C124.566 55.4495 124.772 55.4855 124.979 55.574C125.239 55.6845 125.664 56.0558 125.664 56.0558C125.664 56.0558 124.957 55.2594 124.687 54.6624L124.595 54.3184L124.339 54.3353C124.339 54.3353 124.41 54.5767 124.235 54.6564Z" fill="#1E9A1C"/>
<path d="M125.618 56.1074C125.614 56.1038 125.199 55.7421 124.952 55.6372C124.811 55.577 124.672 55.542 124.579 55.5188C124.537 55.5083 124.505 55.4999 124.487 55.4933C124.343 55.4491 124.136 55.1579 124.096 55.1001L124.032 55.0155L123.9 54.6657H123.999C123.998 54.6657 124.056 54.6612 124.207 54.5938C124.325 54.5391 124.274 54.3562 124.273 54.3544L124.249 54.2725L124.647 54.2463L124.752 54.6448C125.012 55.2147 125.707 56.0025 125.714 56.0104L125.618 56.1074ZM124.157 54.9569L124.206 55.018C124.297 55.15 124.456 55.3404 124.531 55.3636C124.55 55.3703 124.577 55.377 124.613 55.3859C124.709 55.4101 124.855 55.4466 125.006 55.511C125.074 55.54 125.152 55.5856 125.231 55.6374C125.017 55.3595 124.764 55.0012 124.624 54.6907L124.543 54.3905L124.42 54.3986C124.43 54.5088 124.404 54.6547 124.263 54.7188L124.239 54.6666L124.263 54.7189C124.189 54.7522 124.132 54.7723 124.092 54.7845L124.157 54.9569Z" fill="black"/>
<path d="M121.59 54.1471C121.709 54.2539 121.838 54.3493 121.974 54.4318C122.13 54.5256 122.579 54.7898 122.915 54.8536C122.994 54.866 123.416 54.9191 123.416 54.9191C123.432 54.7342 123.633 54.7182 123.633 54.7182L123.035 54.6527C122.553 54.6171 122.187 54.4156 121.901 54.0931C122.284 54.3253 122.835 54.6909 123.281 54.6713C125.113 54.4913 122.729 54.4458 122.522 54.3133C122.303 54.178 122.116 53.9533 122.116 53.9533L121.579 53.9293C121.579 53.9293 121.315 53.9127 121.59 54.1471Z" fill="#1E9A1C"/>
<path d="M123.478 54.996L123.407 54.9871C123.407 54.9871 122.984 54.9337 122.905 54.9213C122.665 54.8757 122.332 54.7268 121.939 54.4905C121.8 54.4061 121.667 54.3079 121.546 54.1987C121.461 54.1264 121.368 54.032 121.405 53.9421C121.439 53.8563 121.56 53.8596 121.584 53.8608L122.149 53.8862L122.169 53.9094C122.171 53.9116 122.352 54.1274 122.559 54.2549C122.619 54.2937 123.003 54.3337 123.283 54.3628C123.933 54.4306 124.038 54.4488 124.038 54.5492C124.037 54.6123 124.017 54.6512 123.64 54.7003L123.639 54.7866C123.625 54.7879 123.495 54.8033 123.484 54.9253L123.478 54.996ZM121.543 53.9994C121.554 54.0166 121.579 54.0471 121.635 54.0949L121.636 54.0961C121.752 54.1999 121.878 54.2931 122.01 54.3731C122.388 54.6011 122.706 54.744 122.928 54.7862C122.986 54.7953 123.242 54.828 123.362 54.8432C123.373 54.8119 123.389 54.785 123.407 54.7623L123.185 54.738C123.157 54.7361 123.129 54.7329 123.1 54.7287L123.028 54.7208C122.552 54.6857 122.166 54.4952 121.85 54.1386L121.937 54.0345L122.041 54.0983C122.147 54.1632 122.264 54.2351 122.387 54.3039C122.245 54.1972 122.129 54.0717 122.084 54.0204L121.576 53.9977C121.565 53.9973 121.553 53.9978 121.543 53.9994ZM123.205 54.6023C123.23 54.6036 123.254 54.6038 123.278 54.6028C123.483 54.5826 123.623 54.5651 123.719 54.5507C123.586 54.5322 123.412 54.5142 123.269 54.4992C122.945 54.4655 122.713 54.4401 122.582 54.4072C122.757 54.4937 122.937 54.564 123.104 54.5912L123.205 54.6023Z" fill="black"/>
<path d="M123.747 55.1902C123.866 55.1815 123.949 55.1593 123.976 55.0295C124 54.8844 123.945 54.7791 123.77 54.7409C123.673 54.7169 123.503 54.7118 123.433 54.8844C123.357 55.0611 123.633 55.1746 123.633 55.1746C123.633 55.1746 123.685 55.1975 123.747 55.1902ZM123.953 54.14C123.798 54.14 123.745 54.2666 123.778 54.5131C123.819 54.7618 124.2 54.6531 124.2 54.6531L124.27 54.6167C124.27 54.6167 124.322 54.5767 124.293 54.3789C124.266 54.1764 124.109 54.14 123.953 54.14ZM124.576 54.3146H124.57C124.567 54.3164 124.576 54.3146 124.576 54.3146Z" fill="#1E9A1C"/>
<path d="M123.723 55.2601C123.66 55.2601 123.611 55.2401 123.605 55.2374C123.588 55.2301 123.421 55.1584 123.368 55.0277C123.345 54.9724 123.346 54.9135 123.37 54.8573C123.447 54.6658 123.636 54.6369 123.787 54.6745C123.789 54.675 123.792 54.6756 123.795 54.6763C123.75 54.6389 123.721 54.5868 123.711 54.5242C123.687 54.3431 123.706 54.2204 123.77 54.1468C123.814 54.0969 123.875 54.0715 123.953 54.0715C124.198 54.0715 124.335 54.172 124.361 54.3699C124.392 54.5833 124.337 54.6516 124.312 54.6709L124.231 54.714C124.202 54.7232 124.066 54.7602 123.938 54.7383C124.028 54.8035 124.065 54.9071 124.043 55.0407C124.006 55.2243 123.874 55.2495 123.754 55.2584C123.743 55.2596 123.733 55.2601 123.723 55.2601ZM123.671 54.7969C123.605 54.7969 123.533 54.8204 123.497 54.9099C123.487 54.9339 123.486 54.9543 123.495 54.9757C123.522 55.0419 123.622 55.096 123.659 55.1112C123.66 55.1116 123.697 55.127 123.74 55.1221L123.743 55.1218C123.862 55.1131 123.893 55.0932 123.909 55.0156C123.928 54.8985 123.882 54.8357 123.755 54.8079C123.731 54.802 123.702 54.7969 123.671 54.7969ZM123.953 54.2085C123.904 54.2085 123.884 54.2249 123.873 54.237C123.848 54.2655 123.824 54.3349 123.847 54.5039C123.852 54.5378 123.867 54.5624 123.894 54.5795C123.973 54.6297 124.132 54.601 124.181 54.5872L124.223 54.5644C124.229 54.5488 124.242 54.5004 124.225 54.3887C124.208 54.2589 124.132 54.2085 123.953 54.2085ZM124.533 54.3929L124.484 54.2873L124.55 54.246H124.57L124.579 54.3111L124.633 54.2908L124.579 54.3114L124.583 54.335L124.589 54.3818L124.533 54.3929Z" fill="black"/>
<path d="M124.571 54.3145C124.575 54.3127 124.586 54.3073 124.626 54.296C124.705 54.266 124.785 54.0756 124.785 54.0756C124.825 53.8185 124.641 53.7549 124.641 53.7549C124.331 53.6931 124.323 53.9653 124.323 53.9653C124.237 54.3198 124.525 54.3164 124.57 54.3144M123.189 53.0967C123.207 53.2145 123.374 53.3851 123.4 53.4144C123.43 53.4407 123.644 53.6638 123.716 53.7634C123.788 53.8636 124.028 54.3167 124.028 54.3167C124.028 54.3167 124.07 54.3098 124.088 54.2753C124.13 54.2047 123.927 53.6556 123.907 53.6178C123.833 53.4511 123.712 53.3267 123.59 53.1967C123.561 53.1784 123.461 53.05 123.352 52.9122C123.569 53.1896 124.125 53.9785 124.288 54.3293C124.288 54.3293 124.269 53.9554 124.248 53.7547C124.179 53.1693 124.026 52.988 123.977 52.9033C123.891 52.7451 123.672 52.5913 123.515 52.5371C123.358 52.4804 123.173 52.4025 122.974 52.3389C122.769 52.2764 122.927 52.4611 123.003 52.6204C123.097 52.8087 123.173 52.9776 123.19 53.0969" fill="#1E9A1C"/>
<path d="M123.991 54.3925L123.968 54.3488C123.886 54.1935 123.716 53.8797 123.661 53.8035C123.593 53.7095 123.384 53.4906 123.356 53.4661L123.339 53.4491C123.254 53.3569 123.139 53.2212 123.122 53.1067L123.122 53.1066C123.106 52.9887 123.022 52.8102 122.942 52.6512C122.924 52.6141 122.903 52.5771 122.883 52.5421C122.823 52.4383 122.776 52.3564 122.825 52.2945C122.872 52.2356 122.958 52.2622 122.995 52.2734C123.127 52.3159 123.253 52.3644 123.369 52.4088C123.429 52.4317 123.485 52.4534 123.538 52.4727C123.709 52.5314 123.943 52.6965 124.038 52.8705L124.055 52.8987C124.12 53 124.253 53.2106 124.316 53.7466C124.318 53.7584 124.319 53.7708 124.32 53.7836C124.332 53.7677 124.347 53.7523 124.365 53.7384C124.437 53.6808 124.535 53.6639 124.655 53.6877C124.746 53.7186 124.892 53.8381 124.853 54.0862C124.827 54.1532 124.749 54.3225 124.651 54.3601C124.615 54.3702 124.605 54.3746 124.6 54.3766L124.571 54.3141L124.574 54.3828C124.531 54.385 124.433 54.3818 124.354 54.3265L124.227 54.3583C124.209 54.3197 124.186 54.276 124.16 54.2284C124.161 54.264 124.158 54.2924 124.147 54.3102C124.117 54.37 124.048 54.3831 124.04 54.3844L123.991 54.3925ZM124.558 53.8134C124.515 53.8134 124.478 53.8237 124.451 53.845C124.396 53.888 124.392 53.967 124.392 53.9678C124.374 54.048 124.364 54.1387 124.407 54.1915C124.447 54.24 124.521 54.2462 124.556 54.2462H124.557C124.567 54.2425 124.582 54.2372 124.608 54.2299C124.629 54.2217 124.686 54.1345 124.722 54.049C124.748 53.8742 124.632 53.8244 124.618 53.8193C124.597 53.8154 124.577 53.8134 124.558 53.8134ZM123.258 53.0873C123.264 53.1265 123.3 53.2049 123.44 53.356L123.452 53.3688C123.477 53.3904 123.696 53.6176 123.772 53.7233C123.818 53.7869 123.925 53.9793 124.002 54.1213C123.981 54.0337 123.945 53.9197 123.913 53.825C123.69 53.4847 123.425 53.1163 123.298 52.9544L123.406 52.8696L123.442 52.9152C123.515 53.0076 123.607 53.1226 123.629 53.1404L123.658 53.1685C123.774 53.2924 123.895 53.4206 123.97 53.5899C123.97 53.5903 124.001 53.6649 124.038 53.7666C124.097 53.8573 124.152 53.9459 124.202 54.028C124.195 53.9338 124.188 53.8355 124.18 53.7616C124.121 53.2576 123.998 53.0648 123.94 52.9721L123.918 52.9377C123.842 52.7978 123.637 52.6516 123.493 52.6019C123.438 52.582 123.38 52.5599 123.32 52.5368C123.21 52.4944 123.09 52.4483 122.965 52.4078C122.976 52.4299 122.99 52.4543 123.001 52.4738C123.023 52.5119 123.046 52.5522 123.065 52.591C123.149 52.7586 123.239 52.9499 123.258 53.0873H123.258Z" fill="black"/>
<path d="M122.426 54.0598C122.628 54.2313 122.719 54.3507 123.139 54.4126C123.562 54.4789 123.598 54.4507 123.598 54.4507C123.598 54.4507 123.817 54.3447 123.706 54.2518C123.084 53.9784 122.495 53.6529 122.196 53.2869C122.196 53.2869 122.248 53.2366 122.463 53.4524C122.588 53.5789 122.672 53.6424 122.749 53.7018C122.975 53.86 123.073 53.9051 123.298 54.028C123.418 54.0935 123.719 54.164 123.719 54.164C123.719 54.164 123.762 54.0731 123.8 54.0624C123.836 54.0536 123.777 53.9109 123.516 53.6997C123.37 53.5795 123.242 53.4403 123.134 53.2856C123.134 53.2856 122.825 53.218 122.49 53.1622C122.241 53.1226 121.771 52.7582 121.779 52.8571C121.788 52.9589 121.85 53.2746 121.976 53.4753C122.104 53.6769 122.225 53.8831 122.426 54.06" fill="#1E9A1C"/>
<path d="M123.546 54.5261C123.479 54.5261 123.357 54.5162 123.127 54.4803C122.738 54.4229 122.61 54.311 122.447 54.1694L122.381 54.1121L122.421 54.0646L122.38 54.1115C122.188 53.9421 122.066 53.748 121.948 53.5602L121.918 53.5119C121.786 53.3027 121.72 52.9785 121.71 52.8628L121.707 52.8216L121.747 52.7849C121.806 52.7471 121.881 52.7901 122.063 52.8932C122.206 52.9748 122.385 53.0763 122.5 53.0946C122.834 53.1501 123.145 53.218 123.148 53.2187L123.175 53.2244L123.19 53.2465C123.294 53.3958 123.418 53.5305 123.559 53.6469C123.727 53.7828 123.898 53.965 123.875 54.0674L123.866 54.109L123.815 54.129C123.815 54.1322 123.794 54.1652 123.78 54.1932L123.768 54.2181C123.805 54.2592 123.807 54.3014 123.804 54.3248C123.792 54.4254 123.665 54.4939 123.627 54.5124C123.623 54.5166 123.611 54.5261 123.546 54.5261ZM122.47 54.0076L122.537 54.0662C122.694 54.2028 122.797 54.2931 123.148 54.3447C123.484 54.3974 123.564 54.3878 123.574 54.3865C123.625 54.3574 123.665 54.3238 123.668 54.3078C122.91 53.9769 122.407 53.655 122.142 53.3303L122.103 53.2816L122.148 53.2379C122.214 53.1727 122.336 53.2288 122.511 53.404C122.628 53.5221 122.705 53.582 122.78 53.6399C122.971 53.7744 123.067 53.8257 123.224 53.9103L123.331 53.9678C123.407 54.0097 123.581 54.0587 123.683 54.0848C123.696 54.0639 123.712 54.0426 123.731 54.0259C123.707 53.9823 123.638 53.8871 123.472 53.7529C123.328 53.634 123.201 53.4976 123.093 53.3471C123.012 53.3297 122.752 53.2755 122.478 53.2299C122.339 53.2078 122.148 53.0994 121.995 53.0124C121.951 52.9871 121.9 52.9584 121.859 52.9374C121.883 53.069 121.939 53.2888 122.034 53.4388L122.064 53.4873C122.182 53.6747 122.293 53.8516 122.47 54.0076ZM123.78 53.9964C123.777 53.9971 123.775 53.9981 123.772 53.9992C123.775 53.9982 123.778 53.9972 123.78 53.9964Z" fill="black"/>
<path d="M118.929 66.7116C118.746 66.7656 117.37 67.282 117.37 67.282L116.986 67.4358C117.517 67.3165 117.923 67.5836 117.923 67.5836L119.455 66.8745C119.455 66.8745 119.45 66.8513 119.412 66.8238C119.372 66.7966 119.114 66.6558 118.929 66.7116Z" fill="#1E9A1C"/>
<path d="M117.919 67.6459L117.894 67.6294C117.89 67.6268 117.499 67.3759 116.999 67.4893L116.967 67.3851L117.351 67.2312C117.408 67.2097 118.73 66.7136 118.914 66.6593C119.145 66.5902 119.441 66.7766 119.444 66.7786C119.497 66.8166 119.507 66.8539 119.509 66.8643L119.517 66.9062L117.919 67.6459ZM117.342 67.3524C117.637 67.3695 117.854 67.4794 117.927 67.5217L119.362 66.8571C119.294 66.8184 119.088 66.7211 118.945 66.764L118.945 66.7642C118.766 66.8169 117.404 67.3281 117.39 67.3333L117.342 67.3524Z" fill="black"/>
<path d="M116.929 67.4824C116.919 67.4911 116.908 67.5275 116.935 67.5391C117.011 67.5815 116.991 67.5982 117.338 67.6398C117.688 67.6778 117.916 67.6115 117.976 67.5453C118.046 67.4684 117.109 67.3251 116.929 67.4824" fill="#1E9A1C"/>
<path d="M117.534 67.7094C117.472 67.7094 117.404 67.7058 117.331 67.698C117.034 67.6623 116.994 67.644 116.932 67.6058C116.925 67.601 116.917 67.5959 116.906 67.5902C116.884 67.5808 116.865 67.5563 116.86 67.5259C116.856 67.4938 116.868 67.4579 116.89 67.4384C117.083 67.2697 117.917 67.3834 118.016 67.4842C118.044 67.5135 118.046 67.5558 118.019 67.5847C117.959 67.6508 117.789 67.7094 117.534 67.7094ZM116.997 67.5078C117.037 67.5327 117.067 67.5483 117.345 67.5817C117.607 67.6101 117.784 67.5765 117.872 67.5412C117.684 67.484 117.162 67.4301 116.997 67.5078ZM116.936 67.491L116.967 67.527C116.968 67.5261 116.968 67.5254 116.969 67.5247C116.968 67.5252 116.968 67.5259 116.967 67.5265L116.936 67.491Z" fill="black"/>
<path d="M114.729 62.5353L114.665 62.1054C114.665 62.1054 114.585 60.9433 114.453 60.7102C114.428 60.6585 114.439 60.5378 114.355 60.5358C114.195 60.5238 114.195 60.9018 114.175 61.2443C113.915 62.9716 115.292 64.2905 115.292 64.2905L114.729 62.5353Z" fill="#1E9A1C"/>
<path d="M115.239 64.3453C115.225 64.3318 113.836 62.979 114.1 61.2329L114.105 61.1314C114.119 60.8441 114.131 60.596 114.24 60.5007C114.273 60.4707 114.316 60.4561 114.36 60.46C114.476 60.4627 114.499 60.5795 114.511 60.6358C114.513 60.6504 114.517 60.6703 114.521 60.6768C114.655 60.9137 114.732 61.9796 114.74 62.1003L114.802 62.5179L115.364 64.2672L115.239 64.3453ZM114.345 60.6072C114.28 60.6676 114.266 60.9401 114.256 61.139L114.251 61.2486C114.065 62.4781 114.735 63.506 115.109 63.9702L114.653 62.5465L114.589 62.1166C114.557 61.6504 114.477 60.9075 114.386 60.7477C114.372 60.7193 114.367 60.6919 114.361 60.6653C114.358 60.6479 114.352 60.6154 114.345 60.6072Z" fill="black"/>
<path d="M121.546 67.6531C121.546 67.6531 121.402 67.621 121.493 67.508C121.581 67.4008 121.841 67.3433 121.894 67.3433C121.945 67.3411 122.091 67.3539 122.2 67.3842C122.31 67.4113 122.461 67.508 122.417 67.5782C122.37 67.645 122.222 67.7282 122.019 67.7282C121.845 67.7282 121.756 67.7239 121.679 67.702C121.605 67.6739 121.546 67.6531 121.546 67.6531Z" fill="#1E9A1C"/>
<path d="M122.019 67.7981C121.841 67.7981 121.746 67.7941 121.66 67.7694C121.591 67.7435 121.538 67.7246 121.525 67.7202C121.5 67.7136 121.424 67.6886 121.4 67.6181C121.388 67.5842 121.385 67.53 121.439 67.464C121.546 67.3322 121.832 67.2733 121.893 67.2733C121.953 67.2703 122.104 67.2846 122.218 67.3168C122.299 67.3367 122.446 67.4052 122.485 67.5023C122.5 67.5414 122.497 67.5817 122.476 67.6156C122.414 67.7047 122.246 67.7981 122.019 67.7981ZM121.569 67.587C121.569 67.587 121.629 67.6082 121.704 67.6367C121.768 67.6547 121.857 67.6582 122.019 67.6582C122.213 67.6582 122.332 67.5774 122.359 67.5382C122.348 67.5325 122.27 67.4737 122.183 67.4523C122.079 67.4233 121.94 67.4091 121.896 67.4132C121.848 67.4132 121.615 67.4688 121.547 67.5524C121.534 67.5687 121.533 67.5767 121.533 67.5767C121.535 67.5742 121.55 67.5821 121.562 67.5849L121.547 67.6492L121.569 67.587Z" fill="black"/>
<path d="M120.05 66.8312C120.05 66.8312 119.577 66.6138 119.129 66.3945C118.538 66.106 117.828 65.7054 117.334 64.9705C116.715 64.0607 116.177 63.5734 116.047 63.4754C115.913 63.3772 115.893 63.3409 115.844 63.41C115.8 63.47 115.831 63.5222 115.868 63.5858C115.996 63.7929 116.309 64.1818 116.421 64.3907C116.614 64.7638 117.014 65.1712 117.011 65.4129C117.011 65.4465 116.894 65.3889 116.894 65.3889C116.894 65.3889 115.957 65.0682 115.578 63.9336C115.302 63.1111 115.419 62.8694 115.355 62.4585C115.246 61.728 115.223 61.6687 114.862 60.8498C114.852 60.8294 114.641 60.4872 114.612 60.5632C114.573 60.6614 114.648 61.0276 114.648 61.0276L114.686 61.4494C114.686 61.4494 114.656 62.3858 114.656 62.4425C114.656 62.4993 114.42 63.0836 115.422 64.0662C115.422 64.0662 115.437 64.2331 115.303 64.0862C115.207 63.9811 114.49 63.4302 114.272 62.524C114.047 61.6174 114.014 60.7101 114.185 60.3334C114.339 59.9931 114.648 59.1607 114.516 58.4338C114.501 58.358 114.479 58.1349 114.431 58.1934C114.411 58.2218 114.321 58.5898 114.266 58.7171C114.191 58.8912 114.073 59.0625 114.037 59.1829C113.966 59.3871 113.621 59.7029 113.688 60.2838C113.765 60.9514 113.808 61.0558 113.889 61.2938C113.916 61.3803 113.983 61.6014 113.94 61.6236C113.899 61.6449 113.758 61.3592 113.758 61.3592C113.758 61.3592 113.123 60.1123 113.515 59.1007C113.91 58.0934 114.903 57.1383 114.903 57.1383C114.903 57.1383 115.709 56.4698 115.873 56.3142C115.937 56.2542 115.922 56.2091 115.9 56.216C115.7 56.2665 114.149 56.5874 113.604 58.4356C113.604 58.4356 113.575 58.5134 113.535 58.4942C113.485 58.4718 113.535 58.3851 113.535 58.3851C113.535 58.3851 113.876 57.0749 114.834 56.4805C115.879 55.8287 115.756 55.9242 116.102 55.7191C116.319 55.5838 116.516 55.4027 116.759 55.0001C116.784 54.9552 116.883 54.7209 116.87 54.6809C116.859 54.6412 116.812 54.696 116.79 54.7623C116.79 54.7623 116.494 55.2194 116.051 55.3732C115.607 55.5272 115.245 55.3078 114.799 55.8012C114.352 56.2974 113.997 56.9845 113.997 56.9845C113.997 56.9845 113.88 57.1623 113.854 57.1569C113.805 57.142 113.878 56.9678 113.878 56.9678C113.878 56.9678 114.475 55.7014 114.954 55.4441C115.434 55.1849 115.862 54.9363 116.135 54.726C116.466 54.466 117.037 53.8294 117.243 53.6101C117.287 53.5632 117.593 53.2527 117.661 53.152C117.702 53.0971 117.799 53.0174 117.783 53.0036C117.739 52.9709 117.449 53.1105 117.449 53.1105C117.449 53.1105 115.868 53.5461 114.884 55.0318C114.839 55.1007 114.731 55.2409 114.673 55.3001C114.568 55.4091 114.515 55.5905 114.515 55.5905C114.451 55.5374 115.071 54.7623 115.071 54.7623L115.18 54.2609C115.18 54.2609 115.363 53.5076 115.749 52.9758C115.787 52.9274 116.015 52.6974 116.054 52.6496C116.13 52.5667 115.908 52.7223 115.948 52.6876C115.948 52.6876 114.473 53.7461 114.473 55.0798C114.473 55.3192 114.324 55.538 114.119 55.8358C113.878 56.1816 113.798 56.394 113.694 56.9085C113.65 57.1249 113.605 57.3409 113.558 57.5565C113.558 57.5565 113.572 57.7469 113.511 57.7327C113.447 57.7185 113.469 57.5611 113.469 57.5611C113.469 57.5611 113.62 56.567 113.727 56.2611C113.831 55.964 113.899 55.7616 113.899 55.7616C113.899 55.7616 113.838 55.0143 114.004 54.6047C114.144 54.2476 114.501 53.7772 114.556 53.6596C114.58 53.6083 114.745 53.2732 114.791 52.8912C114.797 52.84 114.757 52.8825 114.691 53.0316C114.528 53.3971 114.393 53.4925 114.127 53.8363C114.127 53.8363 113.443 54.3316 113.196 55.8047C113.196 55.8047 113.187 56.3538 113.104 57.2145C113.043 57.845 113.095 58.4356 113.166 58.7912C113.212 59.0087 113.298 59.0105 113.245 59.0369C113.211 59.0538 113.266 59.0398 113.188 58.8754C113.094 58.6781 113.021 58.3747 113.021 57.9554C113.021 57.1869 113.088 56.57 113.088 56.57C113.088 56.57 113.138 55.3281 112.623 54.7683C112.599 54.7392 112.714 55.0196 112.765 55.2991C112.829 55.6458 112.714 56.1269 112.68 56.3141C112.647 56.5025 112.304 57.3232 112.425 58.0934C112.425 58.0934 112.715 59.3996 113.089 60.0327C113.089 60.0327 113.322 60.3054 113.116 60.0498C112.912 59.7941 112.493 58.7778 112.457 58.6912C112.425 58.6081 112.125 57.9756 111.842 57.7185C111.696 57.5821 111.294 57.3411 111.294 57.3411C111.294 57.3411 111.076 57.1747 111.242 57.3956C111.373 57.5701 111.548 57.8829 111.632 58.0192C111.806 58.3007 111.961 58.5937 112.095 58.8961C112.23 59.1918 112.543 60.0611 112.543 60.0611L112.743 60.6123C112.743 60.6123 113.078 60.7985 113.261 61.0018C113.41 61.1663 113.72 61.544 113.978 62.216C114.094 62.5132 114.325 62.7854 114.325 62.7854C114.325 62.7854 114.276 62.8798 114.07 62.5236C113.867 62.1625 113.668 61.4854 113.179 60.9587C112.807 60.5543 111.807 60.1469 111.807 60.1469C111.807 60.1469 112.45 61.2663 112.609 61.4662C112.879 61.7862 113.269 62.2354 113.37 62.3542C113.474 62.4752 114.079 63.2214 114.168 63.3411C114.308 63.5276 114.401 63.6098 114.475 63.6858C114.634 63.8554 115.106 64.1651 115.143 64.2138C115.15 64.2632 115.159 64.2225 115.119 64.1932C114.91 64.0683 114.66 63.8712 114.402 63.7032C114.144 63.5325 113.15 63.1081 112.48 62.1851C112.321 61.912 112.246 61.8032 112.192 61.8314C112.11 61.8749 112.643 63.638 113.739 64.1987C113.739 64.1987 114.948 64.7363 115.216 64.8981C115.363 64.9865 115.66 65.1174 115.797 65.228C115.875 65.2927 115.726 65.2891 115.716 65.2872C115.074 65.237 114.152 65.152 113.586 64.8236C113.586 64.8236 113.343 64.6531 113.542 64.8929C113.701 65.0783 114.002 65.5356 114.583 65.7931C115.165 66.0483 116.01 66.1972 116.319 66.2131C116.623 66.23 117.706 66.2352 117.914 66.3025C118.117 66.3712 118.463 66.5927 118.661 66.6565C118.84 66.7147 119.383 66.9227 119.383 66.9227C119.383 66.9227 119.546 67.0121 119.633 67.0438C119.731 67.0829 120.138 67.0792 120.167 67.0032C120.194 66.935 120.05 66.8312 120.05 66.8312Z" fill="#1E9A1C"/>
<path d="M119.854 67.123C119.755 67.123 119.66 67.1131 119.614 67.0946C119.525 67.0626 119.364 66.9744 119.357 66.9707C119.356 66.9707 118.82 66.7654 118.644 66.7086C118.539 66.6749 118.397 66.5998 118.259 66.527C118.128 66.4581 117.993 66.3869 117.897 66.3544C117.754 66.3082 117.126 66.2915 116.71 66.2805C116.543 66.2761 116.4 66.2723 116.317 66.2677C116.016 66.2523 115.164 66.1077 114.561 65.8432C114.052 65.6177 113.755 65.2459 113.578 65.0236C113.549 64.9872 113.524 64.955 113.501 64.9284C113.429 64.8421 113.382 64.7777 113.426 64.7303C113.46 64.6926 113.514 64.7061 113.617 64.7789C114.19 65.1108 115.172 65.1898 115.708 65.2317C115.619 65.1717 115.5 65.1104 115.393 65.0552C115.315 65.0149 115.242 64.9772 115.188 64.9451C114.926 64.7867 113.729 64.2541 113.717 64.2487C112.67 63.7129 112.132 62.1307 112.13 61.8641C112.13 61.849 112.129 61.8032 112.167 61.7832C112.272 61.7274 112.363 61.8736 112.528 62.1575C113.064 62.8954 113.814 63.3102 114.217 63.533C114.242 63.5472 114.266 63.5605 114.289 63.5731C114.242 63.5218 114.188 63.4584 114.124 63.3741C114.035 63.2542 113.43 62.5065 113.329 62.3899C113.293 62.3476 113.222 62.2647 113.132 62.1607C112.968 61.9698 112.743 61.7086 112.568 61.5016C112.407 61.2995 111.787 60.22 111.76 60.1742L111.681 60.0362L111.829 60.0962C111.855 60.1069 112.256 60.2716 112.642 60.495L112.492 60.0797C112.488 60.0709 112.178 59.209 112.046 58.9188C111.913 58.6194 111.758 58.3265 111.586 58.048C111.565 58.0144 111.539 57.9706 111.51 57.9208C111.419 57.7677 111.296 57.5581 111.198 57.4284C111.14 57.3509 111.099 57.2882 111.144 57.2443C111.18 57.2085 111.231 57.2237 111.328 57.2976C111.339 57.3041 111.731 57.5398 111.88 57.6785C112.177 57.9489 112.479 58.5943 112.509 58.6714L112.516 58.6903C112.521 58.7019 112.526 58.7135 112.531 58.725C112.435 58.3878 112.377 58.129 112.372 58.1054C112.273 57.4793 112.469 56.8365 112.574 56.4913C112.6 56.407 112.62 56.3405 112.626 56.3047C112.631 56.2794 112.637 56.2491 112.644 56.2145C112.686 55.9996 112.765 55.5994 112.712 55.3089C112.681 55.1414 112.627 54.9732 112.594 54.8728C112.561 54.7699 112.552 54.7422 112.594 54.7185L112.633 54.6967L112.665 54.7327C112.99 55.0862 113.097 55.6911 113.13 56.1107C113.139 55.9157 113.141 55.8063 113.141 55.8039C113.38 54.3777 114.012 53.8553 114.088 53.797C114.161 53.7032 114.224 53.6278 114.281 53.5603C114.429 53.383 114.527 53.266 114.641 53.0094C114.721 52.8304 114.757 52.8049 114.803 52.8179C114.815 52.8213 114.853 52.837 114.846 52.898C114.816 53.1428 114.735 53.4115 114.61 53.675C114.586 53.7248 114.537 53.7992 114.469 53.9019C114.341 54.0961 114.148 54.3897 114.055 54.6248C113.896 55.018 113.954 55.7498 113.954 55.7572L113.955 55.7684L113.952 55.7792C113.952 55.7792 113.883 55.9817 113.779 56.2792C113.725 56.4315 113.66 56.7632 113.609 57.0521C113.62 57.0006 113.63 56.9492 113.64 56.8977C113.748 56.3651 113.833 56.1505 114.074 55.8046C114.267 55.5259 114.419 55.3056 114.419 55.0798C114.419 53.7335 115.855 52.6871 115.916 52.6432L115.93 52.66L115.922 52.6426C115.927 52.6401 115.938 52.6334 115.951 52.6255C116.035 52.574 116.077 52.548 116.112 52.591C116.145 52.6314 116.107 52.673 116.094 52.6867C116.077 52.709 116.016 52.7718 115.947 52.8445C115.883 52.9113 115.81 52.9869 115.792 53.0097C115.419 53.5246 115.235 54.2664 115.233 54.2739L115.171 54.5622C116.144 53.4245 117.42 53.0617 117.435 53.0578C117.746 52.907 117.796 52.9442 117.816 52.9598L117.837 52.9755L117.84 53.0052C117.841 53.0409 117.814 53.0686 117.765 53.1189C117.743 53.141 117.72 53.1646 117.705 53.1847C117.656 53.258 117.496 53.4265 117.332 53.5973L117.283 53.6474C117.251 53.6821 117.209 53.727 117.161 53.7792C116.896 54.0665 116.452 54.5474 116.169 54.7691C115.928 54.9548 115.551 55.1845 114.981 55.4922C114.54 55.7288 113.979 56.8854 113.931 56.9844C113.938 56.9743 113.945 56.9643 113.951 56.9545C113.952 56.9525 114.312 56.2603 114.759 55.7646C115.067 55.4234 115.345 55.406 115.614 55.389C115.749 55.3806 115.888 55.3718 116.033 55.3215C116.428 55.1845 116.707 54.7874 116.741 54.7376C116.753 54.7048 116.793 54.608 116.859 54.6128C116.883 54.6134 116.912 54.6279 116.923 54.6663C116.947 54.7406 116.809 55.024 116.808 55.0266C116.537 55.4748 116.322 55.6465 116.131 55.7655C116.029 55.8261 115.968 55.8605 115.906 55.8953C115.757 55.9789 115.603 56.0655 114.863 56.527C114.51 56.7462 114.242 57.0677 114.044 57.3826C114.603 56.5946 115.375 56.2874 115.865 56.1684L115.887 56.1629C115.914 56.1537 115.947 56.1666 115.963 56.1943C115.983 56.2288 115.98 56.2889 115.911 56.3541C115.747 56.5089 114.971 57.1531 114.938 57.1805C114.931 57.1873 113.952 58.1365 113.566 59.1207C113.188 60.098 113.801 61.3221 113.807 61.3343C113.83 61.3815 113.858 61.4327 113.884 61.4756C113.874 61.4353 113.86 61.3815 113.837 61.3103L113.825 61.275C113.752 61.0589 113.707 60.9286 113.634 60.2899C113.582 59.8438 113.767 59.542 113.89 59.3422C113.932 59.2731 113.969 59.2133 113.985 59.165C114.006 59.0953 114.053 59.01 114.103 58.9195C114.142 58.8467 114.184 58.7713 114.217 58.6952C114.245 58.629 114.286 58.486 114.318 58.3712C114.361 58.2204 114.374 58.1801 114.387 58.1615C114.418 58.1234 114.451 58.1279 114.464 58.1314C114.52 58.1465 114.537 58.215 114.561 58.3677C114.564 58.3894 114.567 58.4089 114.57 58.423C114.713 59.2128 114.35 60.1022 114.235 60.356C114.069 60.7233 114.107 61.6296 114.325 62.5108C114.491 63.201 114.954 63.6816 115.197 63.9112C114.831 63.5067 114.493 62.9753 114.598 62.4593C114.599 62.4508 114.601 62.4446 114.601 62.4403C114.601 62.3856 114.631 61.4858 114.632 61.4476L114.594 61.0326C114.581 60.9748 114.519 60.6509 114.562 60.5429C114.572 60.5167 114.595 60.4989 114.623 60.4975H114.625C114.73 60.4975 114.91 60.8224 114.911 60.8258C115.283 61.6669 115.301 61.7276 115.41 62.4504C115.43 62.5845 115.433 62.6999 115.435 62.8222C115.439 63.0758 115.445 63.3631 115.63 63.9162C115.997 65.0124 116.903 65.334 116.912 65.337C116.924 65.343 116.937 65.3485 116.948 65.3533C116.916 65.2224 116.786 65.0397 116.66 64.862C116.557 64.7159 116.45 64.5646 116.373 64.416C116.311 64.3016 116.185 64.1285 116.064 63.9609C115.968 63.8299 115.878 63.7061 115.822 63.6143C115.783 63.5476 115.735 63.4662 115.801 63.3773C115.817 63.3544 115.841 63.3261 115.879 63.3206C115.925 63.3134 115.961 63.3416 116.022 63.3878C116.038 63.4005 116.057 63.4151 116.079 63.4313C116.236 63.5497 116.774 64.0504 117.38 64.9398C117.856 65.6475 118.544 66.0474 119.154 66.3453C119.596 66.5618 120.069 66.7794 120.074 66.7816L120.083 66.7869C120.125 66.8171 120.258 66.9234 120.218 67.0236C120.209 67.0474 120.187 67.0676 120.154 67.0822C120.091 67.1099 119.969 67.123 119.854 67.123ZM113.626 64.9082C113.638 64.9229 113.651 64.9387 113.664 64.9554C113.835 65.1697 114.121 65.5284 114.605 65.743C115.168 65.9898 116.01 66.1424 116.322 66.1584C116.406 66.163 116.547 66.1667 116.713 66.1711C117.293 66.1864 117.785 66.2031 117.931 66.2505C118.036 66.286 118.175 66.3593 118.31 66.4302C118.444 66.5007 118.582 66.5737 118.678 66.6046C118.857 66.6623 119.381 66.8631 119.403 66.8716C119.411 66.8757 119.57 66.9625 119.653 66.9923C119.744 67.0286 120.075 67.0168 120.12 66.9762C120.116 66.9659 120.071 66.9146 120.023 66.8787C119.97 66.8546 119.524 66.6486 119.106 66.4437C118.483 66.1394 117.779 65.7301 117.289 65.001C116.692 64.1241 116.166 63.634 116.014 63.5191C115.992 63.5028 115.972 63.4877 115.955 63.4748C115.933 63.4575 115.91 63.44 115.896 63.4323C115.895 63.4346 115.892 63.4376 115.889 63.4417C115.869 63.4685 115.873 63.4858 115.915 63.5571C115.97 63.6452 116.058 63.7674 116.152 63.8966C116.276 64.0671 116.404 64.2434 116.469 64.3648C116.543 64.5074 116.648 64.6555 116.75 64.7988C116.921 65.0401 117.068 65.2484 117.066 65.4139L117.065 65.4437L117.036 65.4677C117.021 65.476 116.989 65.4968 116.87 65.4378C116.837 65.4272 115.91 65.098 115.527 63.951C115.335 63.3819 115.33 63.0856 115.325 62.8242C115.323 62.7058 115.321 62.5939 115.301 62.4671C115.195 61.7578 115.177 61.6981 114.812 60.872C114.796 60.8414 114.712 60.7134 114.656 60.6456C114.655 60.7407 114.679 60.9043 114.702 61.0167L114.741 61.4444C114.731 61.7748 114.711 62.3984 114.711 62.4424C114.711 62.4495 114.709 62.4625 114.705 62.481C114.593 63.0364 115.054 63.6283 115.461 64.0271L115.475 64.0412L115.477 64.0612C115.479 64.0857 115.482 64.1681 115.422 64.1946C115.355 64.2244 115.288 64.1505 115.263 64.123C115.25 64.1093 115.227 64.0884 115.196 64.0598C115.011 63.8892 114.561 63.4748 114.318 62.8503C114.313 62.8512 114.308 62.8519 114.303 62.8515C114.253 62.8515 114.176 62.8153 114.023 62.5509C113.963 62.444 113.905 62.3151 113.839 62.1656C113.679 61.8086 113.481 61.3641 113.139 60.9961C112.865 60.6981 112.229 60.3929 111.938 60.2628C112.116 60.5706 112.531 61.2802 112.652 61.4321C112.826 61.6378 113.051 61.8986 113.215 62.0891C113.305 62.1935 113.377 62.2768 113.412 62.3189C113.517 62.44 114.119 63.1832 114.212 63.3084C114.325 63.4577 114.406 63.539 114.472 63.6044L114.515 63.6477C114.609 63.748 114.822 63.9036 114.978 64.0172C115.119 64.1195 115.17 64.1575 115.187 64.1807L115.198 64.2059C115.205 64.2232 115.207 64.2407 115.201 64.2567L115.185 64.296L115.143 64.2913C115.113 64.2878 115.1 64.2658 115.094 64.2459C114.973 64.169 114.845 64.0783 114.71 63.982C114.601 63.9046 114.487 63.824 114.372 63.7491C114.326 63.7185 114.254 63.6789 114.164 63.6289C113.753 63.402 112.989 62.9794 112.436 62.2171C112.39 62.1385 112.3 61.9827 112.243 61.9142C112.294 62.2514 112.829 63.6715 113.764 64.15C113.811 64.1706 114.977 64.6896 115.245 64.8514C115.297 64.8824 115.367 64.9188 115.443 64.9579C115.582 65.0296 115.739 65.1108 115.832 65.1853C115.885 65.2294 115.878 65.2693 115.868 65.289C115.837 65.3574 115.707 65.3414 115.707 65.3411C115.19 65.3009 114.234 65.2262 113.626 64.9082ZM112.788 60.5747C112.861 60.6172 113.138 60.7825 113.302 60.9652C113.595 61.2885 113.84 61.7029 114.029 62.1965C114.081 62.3288 114.157 62.4574 114.224 62.5571C114.222 62.5504 114.221 62.5435 114.219 62.5367C113.992 61.62 113.957 60.7047 114.135 60.3109C114.247 60.0643 114.6 59.2012 114.462 58.4436C114.46 58.4293 114.456 58.4083 114.453 58.3847C114.45 58.3704 114.447 58.3513 114.444 58.3311C114.437 58.3542 114.43 58.3786 114.424 58.4012C114.388 58.5252 114.348 58.6656 114.317 58.7385C114.282 58.8194 114.24 58.897 114.199 58.9721C114.152 59.0573 114.108 59.1379 114.089 59.1987C114.068 59.2603 114.029 59.3248 113.983 59.3995C113.862 59.5975 113.695 59.8688 113.743 60.2773C113.815 60.9044 113.858 61.0307 113.929 61.2399L113.941 61.2762C114.034 61.5705 114.02 61.6441 113.965 61.6724L113.945 61.6825L113.914 61.6759C113.896 61.6704 113.843 61.6532 113.709 61.3835C113.683 61.3322 113.068 60.1037 113.464 59.081C113.859 58.0739 114.855 57.1085 114.865 57.099C114.876 57.0899 115.614 56.4773 115.814 56.2944C115.163 56.4699 114.091 56.9794 113.657 58.4511C113.649 58.471 113.626 58.527 113.58 58.5457C113.558 58.5546 113.533 58.5539 113.512 58.5434C113.489 58.5334 113.472 58.5139 113.464 58.4892C113.448 58.4419 113.472 58.3878 113.484 58.3646C113.515 58.2503 113.866 57.0174 114.805 56.434C115.547 55.9713 115.702 55.8841 115.852 55.7999C115.914 55.7654 115.974 55.7314 116.074 55.672C116.253 55.5607 116.455 55.3984 116.713 54.9718C116.718 54.9625 116.725 54.9475 116.733 54.9292C116.607 55.0816 116.373 55.3194 116.069 55.4249C115.91 55.4801 115.763 55.4893 115.621 55.4983C115.351 55.5152 115.119 55.5299 114.84 55.8379C114.403 56.3232 114.049 57.0029 114.046 57.0096C113.905 57.2238 113.873 57.2167 113.843 57.2104C113.818 57.203 113.802 57.1885 113.792 57.1685C113.766 57.1124 113.803 57.0054 113.828 56.9466C113.854 56.892 114.439 55.6587 114.929 55.3959C115.493 55.0911 115.866 54.8644 116.102 54.6827C116.377 54.4667 116.818 53.9898 117.081 53.7049C117.129 53.6525 117.171 53.6074 117.203 53.5727L117.253 53.5213C117.346 53.425 117.564 53.1994 117.616 53.1214C117.624 53.1099 117.635 53.0979 117.646 53.0858C117.592 53.106 117.529 53.133 117.473 53.1599C117.448 53.1676 115.89 53.6117 114.93 55.0619C114.882 55.1359 114.771 55.278 114.712 55.3384C114.702 55.3489 114.692 55.3602 114.683 55.372C114.669 55.3931 114.656 55.4131 114.644 55.4316C114.594 55.5169 114.568 55.6046 114.568 55.6058L114.545 55.6857L114.481 55.6327C114.455 55.6112 114.42 55.5829 114.552 55.372C114.561 55.3575 114.57 55.343 114.58 55.3289C114.664 55.1999 114.801 55.0128 115.021 54.7382L115.127 54.2493C115.134 54.2176 115.308 53.5164 115.675 52.9863C115.249 53.3743 114.528 54.1663 114.528 55.0798C114.528 55.3398 114.367 55.5724 114.164 55.8669C113.934 56.1981 113.852 56.4046 113.748 56.9194C113.705 57.1334 113.66 57.3472 113.614 57.5605C113.618 57.6243 113.616 57.7283 113.569 57.769C113.549 57.7859 113.524 57.7919 113.499 57.786C113.394 57.7629 113.408 57.6021 113.415 57.5533C113.422 57.512 113.568 56.5503 113.675 56.243C113.765 55.9859 113.829 55.7998 113.844 55.7546C113.837 55.6547 113.794 54.978 113.953 54.5842C114.05 54.3389 114.247 54.0397 114.378 53.8416C114.438 53.7501 114.49 53.6712 114.507 53.6363C114.578 53.4852 114.635 53.3355 114.675 53.1908C114.58 53.3737 114.486 53.4858 114.365 53.6306C114.308 53.6986 114.244 53.7747 114.17 53.8698L114.159 53.8806C114.153 53.8854 113.49 54.3841 113.25 55.8137C113.251 55.8137 113.241 56.3688 113.159 57.2197C113.099 57.8443 113.151 58.4354 113.22 58.7805C113.227 58.811 113.234 58.8368 113.241 58.8587C113.251 58.8794 113.259 58.898 113.265 58.9147C113.276 58.9366 113.286 58.9517 113.293 58.9628C113.307 58.983 113.323 59.0059 113.315 59.0369C113.306 59.0677 113.279 59.0809 113.269 59.086L113.242 59.0997L113.204 59.0882L113.177 59.0707L113.179 59.0327C113.18 59.0122 113.173 58.9854 113.164 58.9586C113.156 58.942 113.148 58.9224 113.139 58.8992C113.139 58.8991 113.139 58.8989 113.139 58.8988C113.061 58.7351 112.967 58.4383 112.967 57.9554C112.967 57.1927 113.034 56.5702 113.034 56.5641C113.034 56.5569 113.065 55.6849 112.774 55.0923C112.791 55.155 112.807 55.2219 112.819 55.2891C112.876 55.6002 112.795 56.0136 112.751 56.2358C112.744 56.2696 112.739 56.2992 112.734 56.3239C112.727 56.366 112.707 56.4319 112.679 56.5231C112.576 56.8601 112.385 57.4871 112.479 58.0849C112.481 58.0938 112.729 59.197 113.055 59.8525C113.096 59.9248 113.131 59.9797 113.16 60.0157C113.271 60.1539 113.28 60.1653 113.237 60.2011C113.193 60.2381 113.187 60.231 113.048 60.0682C113.021 60.0224 112.994 59.9734 112.968 59.9218C112.792 59.6163 112.556 59.0698 112.415 58.7325L112.407 58.7124C112.382 58.6472 112.086 58.0141 111.806 57.759C111.7 57.6607 111.452 57.5028 111.333 57.4288C111.424 57.5603 111.526 57.7334 111.604 57.8651C111.633 57.9143 111.659 57.9577 111.679 57.9906C111.854 58.2731 112.011 58.5704 112.146 58.874C112.279 59.1679 112.582 60.007 112.594 60.0425L112.788 60.5747Z" fill="black"/>
<path d="M127.076 57.65C127.199 57.6949 127.253 58.0593 127.253 58.0593C127.253 58.0593 127.242 57.8507 127.242 57.748C127.242 57.6443 127.192 57.2563 127.192 57.2563L127.083 57.3342C126.953 57.4378 126.881 57.6207 126.881 57.6207C126.881 57.6207 126.956 57.6083 127.076 57.6498" fill="#1E9A1C"/>
<path d="M127.186 58.0694C127.161 57.8998 127.097 57.7306 127.053 57.7144L127.053 57.7142C126.954 57.6805 126.892 57.6885 126.892 57.6885L126.775 57.7046L126.818 57.5955C126.821 57.5874 126.898 57.3944 127.041 57.2806L127.246 57.1342L127.26 57.2475C127.263 57.2636 127.312 57.6412 127.312 57.7481C127.312 57.8495 127.322 58.0555 127.322 58.0559L127.186 58.0694ZM126.989 57.5571C127.021 57.5622 127.058 57.5708 127.099 57.5851L127.076 57.6528L127.1 57.5857C127.125 57.5946 127.147 57.6106 127.167 57.6315C127.159 57.5545 127.148 57.4584 127.139 57.379L127.123 57.3899C127.066 57.436 127.02 57.5031 126.989 57.5571Z" fill="black"/>
</g>
<defs>
<clipPath id="clip0_307_35444">
<rect width="240" height="120" fill="white"/>
</clipPath>
</defs>
</svg>
