<svg width="240" height="120" viewBox="0 0 240 120" fill="none" xmlns="http://www.w3.org/2000/svg">
<g clip-path="url(#clip0_909_295670)">
<path d="M0 0H240V120H0V0Z" fill="#D91C16"/>
<path d="M0 0H240V80H0V0Z" fill="#0F3296"/>
<path d="M0 0H240V40H0V0Z" fill="white"/>
<path d="M58.2501 92.7C47.5001 87.525 32.1001 77.2251 32.1001 56.9001C32.1001 36.5501 33.1001 27.3 33.1001 27.3H83.4251C83.4251 27.3 84.4001 36.5501 84.4001 56.9001C84.4001 77.2501 69.0001 87.5 58.2501 92.7Z" fill="white"/>
<path d="M58.25 90C48.375 85.25 34.25 75.8 34.25 57.15C34.25 38.5 35.15 30 35.15 30H81.35C81.35 30 82.225 38.5 82.225 57.15C82.25 75.825 68.125 85.25 58.25 90Z" fill="#D91C16"/>
<path d="M60.35 52.25C63.025 52.3 68.25 52.4 72.875 50.85C72.875 50.85 72.775 52.5251 72.775 54.4501C72.775 56.375 72.9 58.05 72.9 58.05C68.65 56.625 63.375 56.6 60.35 56.625V66.9251H56.15V56.625C53.15 56.6 47.875 56.625 43.625 58.05C43.625 58.05 43.75 56.375 43.75 54.4501C43.75 52.5 43.625 50.85 43.625 50.85C48.25 52.4 53.475 52.3 56.125 52.25V45.7751C53.7 45.7751 50.2 45.8751 46.225 47.2001C46.225 47.2001 46.35 45.55 46.35 43.6C46.35 41.675 46.225 40 46.225 40C50.2 41.325 53.7 41.45 56.125 41.425C56 37.325 54.8 32.175 54.8 32.175C54.8 32.175 57.275 32.35 58.25 32.35C59.25 32.35 61.7 32.175 61.7 32.175C61.7 32.175 60.5 37.325 60.375 41.425C62.8 41.45 66.3 41.325 70.275 40C70.275 40 70.15 41.675 70.15 43.6C70.15 45.55 70.275 47.2001 70.275 47.2001C67.0711 46.1669 63.7151 45.6851 60.35 45.7751V52.2751V52.25Z" fill="white"/>
<path d="M58.2499 65.825C53.2749 65.825 50.6249 72.7 50.6249 72.7C50.6249 72.7 49.1249 69.45 45.0749 69.45C42.3249 69.45 40.3249 71.875 39.0249 74.15C44.0249 82.075 51.9999 86.975 58.2499 90C64.4999 87 72.4999 82.075 77.4749 74.15C76.1749 71.9 74.1749 69.45 71.4249 69.45C67.3749 69.45 65.8749 72.7 65.8749 72.7C65.8749 72.7 63.2499 65.825 58.2499 65.825Z" fill="#0F3296"/>
</g>
<defs>
<clipPath id="clip0_909_295670">
<rect width="240" height="120" fill="white"/>
</clipPath>
</defs>
</svg>
