<svg width="241" height="120" viewBox="0 0 241 120" fill="none" xmlns="http://www.w3.org/2000/svg">
<g clip-path="url(#clip0_457_9)">
<path d="M0.455078 0H240.455V120H0.455078V0Z" fill="#D91C16"/>
<path d="M28.4141 34.6366L32.1464 38.385L35.666 34.8987C41.0199 40.6259 46.6352 46.1465 51.9477 51.8958C52.7459 52.6975 54.0446 52.702 54.8484 51.9058C55.6522 51.1096 55.6567 49.8143 54.8585 49.0125C49.1563 43.6466 43.4367 38.2371 37.7327 32.8516L42.4745 28.1547L35.8777 27.2437L28.4141 34.6366Z" fill="#FDD406"/>
<path d="M40.4552 22.5C43.5255 24.2247 45.8566 26.6998 47.2317 29.2873C48.6254 31.9098 49.2379 34.6477 49.2505 36.8367C49.2764 41.3251 45.6024 44.9638 41.1021 44.9638C38.7009 44.9638 36.5422 43.928 35.0509 42.2797L34.2261 42.9725C34.0856 42.9187 33.9364 42.8911 33.786 42.891C33.424 42.891 33.0803 43.0499 32.8464 43.3254C32.258 43.4022 31.7655 43.808 31.579 44.3699C30.9587 45.6109 29.8704 46.5841 28.5534 47.0296C28.5408 47.0339 28.5297 47.0395 28.5187 47.0451C27.9097 47.2676 27.2993 47.6695 26.7796 48.1902C25.7524 49.2236 25.2504 50.5458 25.533 51.4737C25.5051 51.5543 25.4907 51.639 25.4905 51.7243C25.4905 52.1527 25.8387 52.5 26.2682 52.5C26.3757 52.4996 26.482 52.477 26.5803 52.4336C27.5091 52.6426 28.7705 52.1286 29.7569 51.1392C30.3161 50.5766 30.7351 49.911 30.9408 49.2583C31.3992 47.9514 32.3846 46.8865 33.6362 46.2877C33.6661 46.2733 33.6902 46.2586 33.7118 46.2435C34.1315 46.0434 34.4385 45.6655 34.5478 45.2146C36.4675 47.4732 39.3465 48.9154 42.565 48.991C48.468 49.1295 52.8802 44.7958 53.0843 38.5638C53.1869 35.4275 51.9703 31.3834 49.198 28.0667C47.0792 25.5319 43.9726 23.4275 40.4552 22.5Z" fill="#FDD406"/>
<path d="M40.4552 7.5L38.7713 12.6824H33.3223L37.7306 15.8852L36.0468 21.0676L40.4552 17.8647L44.8636 21.0676L43.1797 15.8852L47.5881 12.6824H42.139L40.4552 7.5ZM40.4552 10.2L41.5328 13.5167H45.0203L42.1989 15.5666L43.2765 18.8833L40.4552 16.8334L37.6338 18.8833L38.7115 15.5666L35.8901 13.5167H39.3775L40.4552 10.2Z" fill="#FDD406"/>
</g>
<defs>
<clipPath id="clip0_457_9">
<rect width="240" height="120" fill="white" transform="translate(0.455078)"/>
</clipPath>
</defs>
</svg>
