<svg width="240" height="120" viewBox="0 0 240 120" fill="none" xmlns="http://www.w3.org/2000/svg">
<g clip-path="url(#clip0_909_222774)">
<path d="M0 0H240V120H0V0Z" fill="#D91C16"/>
<path d="M27.959 34.6366L31.6913 38.385L35.2109 34.8987C40.5648 40.6259 46.1801 46.1465 51.4926 51.8958C52.2908 52.6975 53.5896 52.702 54.3934 51.9058C55.1972 51.1096 55.2016 49.8143 54.4034 49.0125C48.7012 43.6466 42.9816 38.2371 37.2776 32.8516L42.0194 28.1547L35.4226 27.2437L27.959 34.6366Z" fill="#FDD406"/>
<path d="M40.0001 22.5C43.0704 24.2247 45.4015 26.6998 46.7766 29.2873C48.1703 31.9098 48.7829 34.6477 48.7955 36.8367C48.8213 41.3251 45.1473 44.9638 40.6471 44.9638C38.2458 44.9638 36.0871 43.928 34.5958 42.2797L33.771 42.9725C33.6305 42.9187 33.4813 42.8911 33.3309 42.891C32.9689 42.891 32.6252 43.0499 32.3913 43.3254C31.8029 43.4022 31.3105 43.808 31.1239 44.3699C30.5036 45.6109 29.4153 46.5841 28.0984 47.0296C28.0858 47.0339 28.0746 47.0395 28.0636 47.0451C27.4547 47.2676 26.8442 47.6695 26.3245 48.1902C25.2973 49.2236 24.7953 50.5458 25.0779 51.4737C25.05 51.5543 25.0357 51.639 25.0354 51.7243C25.0354 52.1527 25.3836 52.5 25.8131 52.5C25.9207 52.4996 26.0269 52.477 26.1253 52.4336C27.054 52.6426 28.3154 52.1286 29.3019 51.1392C29.8611 50.5766 30.28 49.911 30.4857 49.2583C30.9441 47.9514 31.9295 46.8865 33.1811 46.2877C33.211 46.2733 33.2352 46.2586 33.2568 46.2435C33.6764 46.0434 33.9834 45.6655 34.0927 45.2146C36.0125 47.4732 38.8914 48.9154 42.1099 48.991C48.0129 49.1295 52.4252 44.7958 52.6292 38.5638C52.7319 35.4275 51.5152 31.3834 48.7429 28.0667C46.6241 25.5319 43.5175 23.4275 40.0001 22.5Z" fill="#FDD406"/>
<path d="M40.0001 7.5L38.3162 12.6824H32.8672L37.2755 15.8852L35.5917 21.0676L40.0001 17.8647L44.4085 21.0676L42.7246 15.8852L47.133 12.6824H41.684L40.0001 7.5ZM40.0001 10.2L41.0777 13.5167H44.5652L41.7438 15.5666L42.8214 18.8833L40.0001 16.8334L37.1787 18.8833L38.2564 15.5666L35.435 13.5167H38.9224L40.0001 10.2Z" fill="#FDD406"/>
</g>
<defs>
<clipPath id="clip0_909_222774">
<rect width="240" height="120" fill="white"/>
</clipPath>
</defs>
</svg>
