<svg width="240" height="120" viewBox="0 0 240 120" fill="none" xmlns="http://www.w3.org/2000/svg">
<path d="M0 0H240V120H0V0Z" fill="black"/>
<path d="M0 0H240V80H0V0Z" fill="white"/>
<path d="M0 0H240V40H0V0Z" fill="#E23726"/>
<path d="M83.748 63.5412L80.0248 75L89.7722 67.918L99.52 75L95.7967 63.5409L105.544 56.459H93.4957L89.7724 45L86.0491 56.459H74L83.748 63.5412Z" fill="#1E9A1C"/>
<path d="M143.748 63.5412L140.025 75L149.772 67.918L159.52 75L155.797 63.5409L165.544 56.459H153.496L149.772 45L146.049 56.459H134L143.748 63.5412Z" fill="#1E9A1C"/>
</svg>
