<svg width="240" height="120" viewBox="0 0 240 120" fill="none" xmlns="http://www.w3.org/2000/svg">
<rect width="240" height="120" fill="#021455"/>
<g clip-path="url(#clip0_421_2689)">
<path d="M0 0H120V60H0V0Z" fill="#021455"/>
<path d="M14.0625 0L59.8125 22.625L105.375 0H120V7.75L75 30.125L120 52.375V60H105L60 37.625L15.1875 60H0V52.5L44.8125 30.25L0 8V0H14.0625Z" fill="white"/>
<path d="M79.5 35.125L120 55V60L69.1875 35.125H79.5ZM45 37.625L46.125 42L10.125 60H0L45 37.625ZM120 0V0.375L73.3125 23.875L73.6875 18.375L110.625 0H120ZM0 0L44.8125 22H33.5625L0 5.25V0Z" fill="#D91C16"/>
<path d="M45.1875 0V60H75.1875V0H45.1875ZM0 20V40H120V20H0Z" fill="white"/>
<path d="M0 24.125V36.125H120V24.125H0ZM51.1875 0V60H69.1875V0H51.1875Z" fill="#D91C16"/>
</g>
<path d="M201 35.0002V53.0002C201 65.0002 195 77.9252 180 84.9252C165 77.9252 159 65.0002 159 53.0002V35.0002H201Z" fill="#FDD406"/>
<path d="M179.999 85.808L179.661 85.6502C172.46 82.2896 166.918 77.4449 163.189 71.2504C159.925 65.8281 158.199 59.5173 158.199 53.0002V34.2002H201.799V53.0002C201.799 59.5173 200.074 65.8281 196.81 71.2504C193.08 77.4449 187.538 82.2896 180.337 85.6502L179.999 85.808ZM159.799 35.8002V53.0002C159.799 59.4597 161.775 75.3537 179.999 84.0406C198.223 75.3537 200.199 59.4597 200.199 53.0002V35.8002H159.799Z" fill="black"/>
<path d="M179.999 85.6978L179.703 85.5597C172.52 82.2077 166.993 77.3761 163.274 71.1987C160.019 65.7921 158.299 59.4992 158.299 53.0003V34.3003H201.699V53.0003C201.699 59.4992 199.978 65.7921 196.724 71.1987C193.005 77.3761 187.477 82.2077 180.295 85.5597L179.999 85.6978ZM159.699 35.7003V53.0003C159.699 59.484 161.683 75.4448 179.999 84.1515C198.314 75.4448 200.299 59.484 200.299 53.0003V35.7003H159.699Z" fill="white"/>
<path d="M172.424 54.8253C171.874 55.7503 170.949 55.9503 170.224 55.6503C169.474 55.3503 168.799 53.6003 168.049 52.6503C167.324 51.7253 167.124 52.1253 166.624 51.5753C166.149 51.0503 165.399 50.6503 164.224 50.1003C163.574 49.8003 162.899 49.5253 162.449 48.3753C162.624 47.9003 163.099 47.5003 163.474 47.3503C163.849 47.2253 164.149 46.6753 164.199 46.2003C164.249 45.7503 164.649 45.2503 165.199 44.8753C164.949 44.9253 164.424 44.8253 164.174 44.6503C163.949 44.4503 163.574 44.5003 163.349 44.6753C163.124 44.8253 162.849 44.8753 162.449 44.8253C162.599 44.7003 162.874 44.4253 162.899 44.1753C162.924 43.9253 163.224 43.8003 163.799 43.8003C164.349 43.8003 164.724 43.1503 165.174 43.1503C164.849 43.1503 164.924 42.6003 165.099 42.5753C164.299 42.4253 164.399 41.7753 164.724 41.7753C164.699 41.6753 164.599 41.5753 164.224 41.4503C163.874 41.3253 164.049 41.0003 164.324 40.8003C164.074 40.3003 164.299 39.9253 164.699 39.6003C164.149 39.5753 164.749 38.8003 164.899 38.3753C165.049 37.9753 165.124 37.9253 165.299 38.1753C165.499 38.4003 165.949 38.9253 166.474 39.0753C166.974 39.2253 167.274 39.5003 167.374 39.9253C167.474 40.3753 167.674 40.6003 168.224 40.8003C168.799 40.9753 169.574 41.4503 169.474 42.5253C169.924 42.5503 170.249 42.6753 170.524 42.9003" fill="#FF5C26"/>
<path d="M170.873 55.8062C170.641 55.8062 170.416 55.7594 170.214 55.6756C169.733 55.4833 169.297 54.7312 168.836 53.9348C168.575 53.4839 168.304 53.0176 168.028 52.6673C167.617 52.1426 167.382 52.0511 167.154 51.9626C166.983 51.896 166.822 51.8331 166.604 51.5937C166.141 51.0816 165.435 50.6974 164.213 50.1251L164.143 50.0929C163.513 49.8036 162.862 49.5042 162.424 48.3853C162.421 48.379 162.421 48.372 162.424 48.3658C162.601 47.8846 163.081 47.4779 163.464 47.3248C163.842 47.1988 164.125 46.6416 164.172 46.1974C164.219 45.7763 164.562 45.3022 165.096 44.9144C164.821 44.928 164.387 44.8331 164.159 44.6728C163.938 44.4773 163.576 44.5334 163.366 44.6969C163.129 44.8548 162.846 44.9029 162.446 44.8525C162.435 44.8512 162.426 44.8435 162.423 44.833C162.42 44.8225 162.423 44.8111 162.432 44.8041C162.501 44.7468 162.845 44.4474 162.872 44.1725C162.899 43.9073 163.211 43.7727 163.799 43.7727C164.079 43.7727 164.314 43.5979 164.541 43.4288C164.709 43.3038 164.869 43.1842 165.04 43.1404C164.972 43.0965 164.931 43.0157 164.923 42.9066C164.915 42.7878 164.952 42.6521 165.021 42.5865C164.605 42.4854 164.438 42.2326 164.458 42.0167C164.471 41.875 164.565 41.7687 164.687 41.7505C164.654 41.678 164.555 41.5895 164.216 41.4763C164.058 41.4201 164.014 41.3285 164.004 41.2615C163.984 41.1216 164.095 40.939 164.29 40.7917C164.087 40.3683 164.196 39.9942 164.632 39.6204C164.556 39.6062 164.503 39.5728 164.472 39.5208C164.378 39.3574 164.539 39.0471 164.694 38.7471C164.767 38.6073 164.835 38.4751 164.873 38.3661C164.958 38.1398 165.025 38.0069 165.113 37.9957C165.174 37.9876 165.235 38.0353 165.322 38.1595L165.344 38.1835C165.552 38.4182 165.984 38.9066 166.482 39.0488C166.999 39.204 167.3 39.4886 167.401 39.919C167.502 40.3742 167.705 40.582 168.234 40.7744C168.648 40.9004 169.598 41.3207 169.504 42.4995C169.93 42.5275 170.26 42.6484 170.542 42.879C170.553 42.8886 170.555 42.9059 170.546 42.9176C170.536 42.9293 170.519 42.9313 170.507 42.9215C170.228 42.6936 169.9 42.5764 169.473 42.5527C169.465 42.5523 169.458 42.5489 169.453 42.5432C169.449 42.5375 169.446 42.5301 169.447 42.5227C169.555 41.3627 168.622 40.9501 168.216 40.8265C167.671 40.6284 167.452 40.4025 167.348 39.9312C167.251 39.522 166.963 39.2505 166.467 39.1016C165.954 38.9551 165.514 38.4586 165.302 38.2201L165.279 38.1935C165.206 38.0903 165.156 38.0449 165.12 38.0502C165.056 38.0583 164.986 38.224 164.925 38.3849C164.886 38.497 164.816 38.6308 164.743 38.7724C164.601 39.0459 164.441 39.3559 164.52 39.4933C164.549 39.5425 164.608 39.5685 164.701 39.5728C164.712 39.5733 164.722 39.5808 164.726 39.5916C164.729 39.6025 164.726 39.6144 164.717 39.6216C164.249 40.0016 164.136 40.3613 164.349 40.7879C164.355 40.7999 164.351 40.8146 164.341 40.8225C164.154 40.958 164.041 41.1312 164.059 41.2537C164.07 41.3293 164.128 41.3868 164.234 41.4244C164.568 41.5357 164.718 41.6355 164.751 41.7686C164.753 41.7768 164.751 41.7855 164.746 41.7921C164.741 41.7989 164.733 41.8028 164.724 41.8028C164.611 41.8028 164.524 41.8928 164.512 42.0218C164.494 42.225 164.669 42.4666 165.104 42.5482C165.118 42.5507 165.127 42.5624 165.127 42.5758C165.127 42.5893 165.117 42.6005 165.103 42.6025C165.03 42.6129 164.968 42.7617 164.978 42.9027C164.983 42.9689 165.011 43.1227 165.174 43.1227C165.19 43.1227 165.202 43.135 165.202 43.1502C165.202 43.1655 165.19 43.1778 165.174 43.1778C164.97 43.1778 164.777 43.3211 164.574 43.4729C164.339 43.6473 164.097 43.8278 163.799 43.8278C163.244 43.8278 162.95 43.9456 162.927 44.178C162.902 44.431 162.636 44.6959 162.515 44.805C162.869 44.8412 163.123 44.7932 163.334 44.6524C163.56 44.4766 163.953 44.4171 164.193 44.6297C164.438 44.801 164.957 44.8952 165.194 44.8483C165.208 44.8456 165.22 44.8526 165.225 44.8646C165.23 44.8766 165.226 44.8906 165.215 44.898C164.652 45.2816 164.274 45.7818 164.227 46.2033C164.178 46.6643 163.88 47.244 163.483 47.3763C163.116 47.5234 162.653 47.9132 162.479 48.3749C162.909 49.4653 163.548 49.7589 164.166 50.0429L164.236 50.0752C165.465 50.6506 166.175 51.0377 166.645 51.5568C166.854 51.7865 167.009 51.8472 167.174 51.9114C167.398 51.9983 167.651 52.0968 168.071 52.6332C168.35 52.9867 168.621 53.4546 168.883 53.9073C169.32 54.6605 169.771 55.4394 170.235 55.6248C170.908 55.903 171.837 55.7589 172.401 54.8112C172.408 54.7981 172.425 54.7939 172.438 54.8016C172.452 54.8093 172.456 54.8262 172.448 54.8393C172.037 55.5306 171.436 55.8062 170.873 55.8062Z" fill="black"/>
<path d="M173.799 41.2751C173.799 41.8751 174.074 42.2501 174.424 42.5501C174.799 42.8501 175.124 43.1001 175.049 43.4751C174.974 43.8751 175.124 44.1251 175.449 44.3751C175.799 44.6251 176.049 44.9251 175.949 45.4251C175.849 45.9251 175.924 46.2251 176.124 46.6001C176.324 46.9751 176.674 47.2751 176.524 47.8751C176.374 48.4751 176.449 49.2751 176.649 49.6751C176.824 50.0501 176.649 50.3501 176.299 51.0251C175.949 51.6751 175.749 51.9251 175.024 52.1751C174.274 52.4001 174.224 52.8501 174.224 53.6251C174.224 54.4251 173.699 54.8251 172.724 54.6751C171.724 55.5001 171.099 54.5251 170.849 53.3001C170.599 52.0751 170.549 50.7501 169.074 49.6751C167.624 48.5751 168.199 46.7251 169.424 45.9751C170.649 45.2501 170.499 43.1001 170.349 41.7751C170.224 40.4501 171.099 39.7001 171.774 38.9751C172.674 39.3251 173.799 40.7001 173.799 41.2751Z" fill="#ED72AA"/>
<path d="M172.026 55.0085C171.945 55.0086 171.867 54.9951 171.79 54.968C171.36 54.8157 171.007 54.2098 170.822 53.3056C170.79 53.1471 170.76 52.984 170.732 52.826C170.536 51.745 170.334 50.627 169.058 49.6974C168.465 49.2477 168.158 48.6229 168.192 47.9378C168.231 47.1605 168.709 46.3809 169.41 45.9517C170.573 45.2633 170.487 43.2402 170.322 41.7783C170.208 40.5755 170.917 39.8339 171.543 39.1795C171.614 39.1045 171.685 39.0303 171.754 38.9564C171.762 38.9483 171.773 38.9456 171.784 38.9496C172.686 39.3001 173.827 40.6933 173.827 41.2752C173.827 41.9192 174.156 42.2837 174.442 42.5293L174.466 42.5485C174.835 42.843 175.153 43.0974 175.076 43.4805C175.009 43.8408 175.118 44.0856 175.466 44.3534C175.78 44.5773 176.086 44.8809 175.976 45.4305C175.874 45.9402 175.958 46.2302 176.148 46.5872C176.192 46.6696 176.245 46.7503 176.296 46.8283C176.48 47.1112 176.671 47.4036 176.551 47.8818C176.41 48.4462 176.465 49.2452 176.674 49.6629C176.846 50.0325 176.688 50.3363 176.374 50.9416L176.324 51.0379C175.979 51.6782 175.778 51.9442 175.033 52.2011C174.288 52.4248 174.252 52.8655 174.252 53.6252C174.252 54.0024 174.139 54.2904 173.917 54.4812C173.653 54.7074 173.255 54.7822 172.732 54.7042C172.484 54.9067 172.247 55.0085 172.026 55.0085ZM171.781 39.0077C171.717 39.0771 171.65 39.1469 171.582 39.2174C170.965 39.8633 170.266 40.5953 170.377 41.7726C170.544 43.2492 170.629 45.2944 169.438 45.9988C168.753 46.4186 168.285 47.1808 168.247 47.9405C168.223 48.412 168.351 49.0919 169.091 49.6533C170.384 50.5956 170.588 51.7245 170.786 52.8163C170.814 52.9738 170.844 53.1367 170.876 53.2947C171.057 54.1795 171.397 54.7705 171.809 54.9162C172.079 55.0116 172.381 54.923 172.707 54.654C172.713 54.649 172.721 54.6464 172.728 54.648C173.233 54.7258 173.631 54.6535 173.881 54.4394C174.09 54.2595 174.197 53.9856 174.197 53.6252C174.197 52.8623 174.236 52.3828 175.016 52.1488C175.742 51.8986 175.938 51.6383 176.275 51.0121L176.325 50.9162C176.641 50.3085 176.785 50.0312 176.624 49.6868C176.411 49.2597 176.354 48.4437 176.497 47.8685C176.611 47.4135 176.428 47.1313 176.25 46.8584C176.198 46.7793 176.145 46.6975 176.1 46.6132C175.908 46.2535 175.818 45.9429 175.922 45.4198C176.026 44.9009 175.733 44.6119 175.433 44.3975C175.07 44.118 174.951 43.8496 175.022 43.4701C175.092 43.1195 174.786 42.8748 174.432 42.5914L174.407 42.5716C174.111 42.3178 173.772 41.9417 173.772 41.2752C173.772 40.7113 172.665 39.363 171.781 39.0077Z" fill="black"/>
<path d="M171.675 49.8002C171.4 49.1502 171.1 48.5002 171.825 47.1002C172.575 45.6752 172.1 44.6002 171.875 43.8752C171.65 43.1752 171.6 42.5252 171.875 42.2252C172.175 41.9502 172.3 41.7752 172.325 41.3002C172.35 40.8502 172.725 41.0002 172.775 41.2252C172.825 41.4502 172.875 41.8252 172.475 42.5002C172.075 43.2002 173.6 44.9002 172.9 46.7252C172.425 48.0002 173.05 49.6252 173.3 50.7502C173.55 51.8752 173.7 54.5752 172.05 54.9752C173.175 54.4252 172.125 50.8502 171.675 49.8002Z" fill="#FFE2BD"/>
<path d="M172.05 55.0028C172.039 55.0028 172.028 54.9957 172.024 54.9846C172.02 54.9713 172.026 54.9567 172.038 54.9505C173.163 54.4005 172.05 50.744 171.65 49.8111C171.65 49.8111 171.65 49.811 171.65 49.811L171.635 49.7754C171.364 49.1353 171.083 48.4735 171.801 47.0877C172.477 45.8036 172.153 44.8145 171.916 44.0922C171.892 44.0197 171.87 43.9501 171.849 43.8834C171.596 43.0976 171.598 42.4864 171.855 42.2067C172.144 41.9416 172.273 41.7762 172.298 41.2988C172.313 41.0271 172.449 40.9868 172.508 40.982C172.636 40.9727 172.772 41.0827 172.802 41.2193C172.865 41.501 172.878 41.8752 172.499 42.5143C172.341 42.7898 172.497 43.2334 172.694 43.795C172.983 44.6208 173.343 45.6484 172.926 46.7351C172.546 47.754 172.881 49.02 173.149 50.0373C173.216 50.2881 173.278 50.5253 173.327 50.7443C173.543 51.7166 173.773 54.5858 172.057 55.002C172.055 55.0025 172.052 55.0028 172.05 55.0028ZM171.701 49.7895C172.101 50.7245 173.132 54.0774 172.217 54.8954C173.701 54.3412 173.479 51.6802 173.273 50.7562C173.225 50.5382 173.163 50.3017 173.096 50.0512C172.826 49.0265 172.489 47.7511 172.874 46.7157C173.284 45.6475 172.928 44.6304 172.642 43.8131C172.44 43.2383 172.281 42.7843 172.451 42.4866C172.821 41.8636 172.809 41.5024 172.748 41.2312C172.724 41.1214 172.613 41.0276 172.512 41.0369C172.42 41.0444 172.362 41.141 172.353 41.3018C172.327 41.7972 172.186 41.9776 171.894 42.2456C171.653 42.5086 171.655 43.1002 171.901 43.8669C171.922 43.9336 171.945 44.0029 171.969 44.0752C172.208 44.8067 172.536 45.8086 171.85 47.113C171.144 48.4758 171.419 49.1255 171.685 49.7539L171.701 49.7895Z" fill="black"/>
<path d="M164.351 49.6372C164.317 49.6372 164.282 49.6339 164.245 49.6272C164.23 49.6245 164.221 49.6102 164.223 49.5953C164.226 49.5805 164.241 49.5711 164.255 49.5731C164.531 49.6228 164.663 49.4601 164.725 49.3143C164.804 49.1297 164.862 49.0239 165.122 48.9978C165.355 48.9976 165.756 48.9271 165.851 48.7379C165.884 48.649 165.959 48.6253 166.046 48.5977C166.17 48.5585 166.34 48.5047 166.501 48.2119C166.535 48.1401 166.569 48.0655 166.602 47.9905C166.81 47.5264 167.024 47.0465 167.616 46.8491C167.631 46.8441 167.646 46.8519 167.651 46.8665C167.656 46.8808 167.648 46.8965 167.634 46.9012C167.065 47.091 166.855 47.5597 166.652 48.013C166.619 48.0883 166.585 48.1633 166.55 48.237C166.378 48.5505 166.196 48.6081 166.062 48.6502C165.98 48.6761 165.926 48.6933 165.901 48.7598C165.793 48.9754 165.378 49.0527 165.125 49.0527C164.897 49.0757 164.851 49.1608 164.775 49.336C164.691 49.5329 164.543 49.6372 164.351 49.6372ZM165.2 44.9027C165.193 44.9027 165.186 44.8997 165.18 44.8939C165.17 44.8828 165.17 44.8653 165.181 44.855C165.337 44.7108 165.595 44.5803 165.845 44.4543C166.163 44.2933 166.493 44.1269 166.601 43.9365C166.609 43.9232 166.626 43.9185 166.639 43.9263C166.652 43.9339 166.657 43.9507 166.649 43.9638C166.532 44.1685 166.195 44.3387 165.87 44.5033C165.623 44.6277 165.369 44.7564 165.219 44.8953C165.214 44.9003 165.207 44.9027 165.2 44.9027ZM166.221 43.2427C166.103 43.2427 165.961 43.2282 165.803 43.2121C165.592 43.1905 165.374 43.1685 165.177 43.1776C165.176 43.1776 165.176 43.1777 165.175 43.1777C165.161 43.1777 165.148 43.1662 165.148 43.1514C165.147 43.1363 165.159 43.1234 165.174 43.1227C165.374 43.1126 165.605 43.1366 165.809 43.1574C166.125 43.1896 166.422 43.2201 166.476 43.1129C166.482 43.0993 166.499 43.094 166.513 43.1006C166.526 43.1074 166.532 43.1239 166.525 43.1375C166.485 43.2175 166.375 43.2427 166.221 43.2427ZM168.2 43.2277C168.196 43.2277 168.192 43.2268 168.189 43.2252C168.175 43.2188 168.169 43.2024 168.175 43.1886C168.321 42.8734 168.664 42.4976 169.475 42.4976C169.49 42.4976 169.503 42.5099 169.503 42.5252C169.503 42.5404 169.49 42.5527 169.475 42.5527C168.856 42.5527 168.424 42.7805 168.225 43.2117C168.221 43.2217 168.211 43.2277 168.2 43.2277ZM167.8 42.9277C167.796 42.9277 167.791 42.9266 167.787 42.9244C167.774 42.9173 167.769 42.9007 167.776 42.8872C167.863 42.7241 167.799 42.6392 167.71 42.5218C167.613 42.3928 167.492 42.2322 167.574 41.9182L167.579 41.8894C167.674 41.4167 167.684 41.3673 167.268 41.2516C167.034 41.1867 167.035 41.0303 167.035 40.8648C167.036 40.6759 167.037 40.4619 166.758 40.2469C166.632 40.1524 166.598 40.028 166.564 39.9076C166.513 39.7253 166.465 39.553 166.118 39.4515C166.103 39.4473 166.095 39.432 166.099 39.4174C166.103 39.4029 166.119 39.3946 166.133 39.3988C166.51 39.5088 166.567 39.7128 166.617 39.8928C166.65 40.0094 166.68 40.1196 166.792 40.2032C167.092 40.4349 167.091 40.6734 167.09 40.865C167.089 41.0336 167.089 41.145 167.283 41.1987C167.748 41.3279 167.728 41.4265 167.633 41.9003L167.627 41.9305C167.552 42.2204 167.659 42.363 167.754 42.4887C167.844 42.6071 167.928 42.719 167.824 42.9132C167.82 42.9224 167.81 42.9277 167.8 42.9277ZM165.1 42.6027C165.085 42.6027 165.073 42.5904 165.073 42.5752C165.073 42.5599 165.085 42.5476 165.1 42.5476C165.346 42.5476 165.854 42.3742 165.949 42.0426C165.953 42.0279 165.969 42.0201 165.983 42.0237C165.997 42.0279 166.006 42.0431 166.002 42.0577C165.898 42.4206 165.368 42.6027 165.1 42.6027ZM164.725 41.8027C164.71 41.8027 164.698 41.7904 164.698 41.7752C164.698 41.7599 164.71 41.7476 164.725 41.7476C165.053 41.7476 165.406 41.712 165.759 41.453C165.771 41.4439 165.788 41.4465 165.797 41.4589C165.806 41.4712 165.804 41.4883 165.791 41.4973C165.426 41.7657 165.063 41.8027 164.725 41.8027ZM164.325 40.8277C164.317 40.8277 164.309 40.824 164.304 40.8171C164.294 40.805 164.296 40.7878 164.308 40.7785C164.418 40.693 164.566 40.6911 164.723 40.6889C164.905 40.6866 165.113 40.6838 165.31 40.5523C165.323 40.544 165.34 40.5471 165.348 40.5599C165.356 40.5725 165.353 40.5896 165.34 40.598C165.13 40.7385 164.914 40.7415 164.723 40.744C164.57 40.746 164.437 40.7477 164.342 40.8218C164.337 40.8257 164.331 40.8277 164.325 40.8277ZM165.25 39.8027C165.235 39.8027 165.223 39.7904 165.223 39.7752C165.223 39.7388 165.212 39.7104 165.188 39.6882C165.112 39.6143 164.924 39.6208 164.786 39.6256C164.754 39.6266 164.725 39.6277 164.7 39.6277C164.685 39.6277 164.673 39.6154 164.673 39.6002C164.673 39.5849 164.685 39.5726 164.7 39.5726C164.725 39.5726 164.753 39.5716 164.784 39.5706C164.931 39.5655 165.133 39.5584 165.227 39.6486C165.261 39.6813 165.278 39.7239 165.278 39.7752C165.278 39.7904 165.265 39.8027 165.25 39.8027Z" fill="black"/>
<path d="M188.623 44.1752C188.623 44.1752 186.873 42.7002 185.423 41.7002C183.973 40.7002 182.223 39.4752 182.223 39.2252C182.498 39.0252 183.973 39.9752 185.998 41.2002C188.048 42.4502 189.198 43.6752 189.198 43.6752L188.623 44.1752ZM188.498 45.1752C188.498 45.1752 186.798 44.1502 185.123 43.4252C183.373 42.7002 180.748 42.7002 180.473 42.4502C180.473 42.2002 183.523 42.0502 185.698 42.9252C187.923 43.9502 189.073 44.6752 189.073 44.6752L188.498 45.1752ZM188.473 46.8752C188.473 46.8752 186.623 46.0252 184.823 45.6252C183.073 45.2252 180.573 45.3752 180.273 45.1502C180.273 44.9002 183.373 44.4002 185.698 45.1502C188.048 45.8752 189.048 46.3752 189.048 46.3752L188.473 46.8752ZM188.373 48.6002C188.373 48.6002 186.973 47.6502 185.123 47.4502C183.373 47.2752 181.048 48.6002 180.748 48.3502C180.748 48.1002 182.773 46.6252 185.298 46.8752C187.773 47.1252 188.948 48.1002 188.948 48.1002L188.373 48.6002ZM188.948 43.1502C188.948 43.1502 187.173 41.5252 187.173 40.4252C187.173 39.4502 188.248 37.9502 188.723 37.9502C188.473 38.4502 187.648 39.4502 187.648 40.4252C187.648 41.4252 189.523 42.6502 189.523 42.6502L188.948 43.1502Z" fill="#784B26"/>
<path d="M188.374 48.6277C188.368 48.6277 188.363 48.6261 188.358 48.6229C188.344 48.6134 186.942 47.6744 185.121 47.4775C184.08 47.3731 182.841 47.8008 181.935 48.1128C181.289 48.3353 180.863 48.4821 180.731 48.3712C180.725 48.3661 180.721 48.3583 180.721 48.3501C180.721 48.2976 180.78 48.2178 180.896 48.113C181.335 47.7152 183.086 46.6285 185.301 46.8478C187.756 47.0958 188.954 48.0692 188.966 48.079C188.972 48.0841 188.976 48.0917 188.976 48.0999C188.976 48.1079 188.973 48.1156 188.967 48.1209L188.392 48.6209C188.387 48.6253 188.38 48.6277 188.374 48.6277ZM184.789 47.4066C184.903 47.4066 185.016 47.4118 185.126 47.4228C186.851 47.6092 188.202 48.4559 188.371 48.5657L188.905 48.1013C188.72 47.9612 187.537 47.1289 185.296 46.9025C183.102 46.6844 181.367 47.76 180.932 48.1539C180.833 48.2439 180.789 48.3058 180.779 48.3374C180.907 48.4079 181.377 48.2469 181.917 48.0609C182.732 47.7801 183.817 47.4066 184.789 47.4066ZM188.474 46.9027C188.47 46.9027 188.466 46.9018 188.462 46.9001C188.444 46.8917 186.594 46.0467 184.818 45.652C183.853 45.4316 182.678 45.3793 181.733 45.3374C180.958 45.3029 180.398 45.278 180.257 45.1721C180.25 45.1669 180.246 45.1588 180.246 45.1501C180.246 45.1248 180.262 45.101 180.294 45.0776C180.673 44.8018 183.529 44.4215 185.707 45.124C188.032 45.8413 189.051 46.3456 189.061 46.3505C189.069 46.3546 189.075 46.3625 189.076 46.3717C189.077 46.3808 189.074 46.3899 189.067 46.3959L188.492 46.8959C188.487 46.9003 188.48 46.9027 188.474 46.9027ZM180.307 45.1391C180.464 45.2258 181.028 45.2509 181.736 45.2824C182.683 45.3245 183.861 45.3768 184.83 45.5983C186.523 45.9747 188.282 46.7583 188.469 46.8428L188.999 46.3818C188.797 46.2861 187.765 45.8165 185.69 45.1764C183.525 44.4779 180.66 44.8792 180.326 45.122C180.317 45.1288 180.311 45.1345 180.307 45.1391ZM188.499 45.2027C188.494 45.2027 188.489 45.2013 188.484 45.1987C188.467 45.1884 186.767 44.1664 185.113 43.4503C184.058 43.0134 182.694 42.8419 181.698 42.7168C181.043 42.6345 180.57 42.5751 180.455 42.4705C180.449 42.4653 180.446 42.4579 180.446 42.4501C180.446 42.4258 180.461 42.4037 180.49 42.3841C180.839 42.1482 183.689 42.0873 185.709 42.8997C187.911 43.9142 189.077 44.6446 189.088 44.6519C189.096 44.6565 189.1 44.6644 189.101 44.673C189.102 44.6817 189.098 44.6902 189.092 44.6959L188.517 45.1959C188.512 45.2003 188.505 45.2027 188.499 45.2027ZM180.507 42.4411C180.635 42.5278 181.11 42.5875 181.704 42.6623C182.704 42.7877 184.072 42.9597 185.134 43.3998C186.703 44.0787 188.312 45.0319 188.496 45.1413L189.027 44.6789C188.828 44.5564 187.685 43.8705 185.687 42.9501C183.594 42.1079 180.812 42.232 180.52 42.4297C180.514 42.434 180.51 42.4378 180.507 42.4411ZM188.624 44.2027C188.617 44.2027 188.611 44.2005 188.606 44.1961C188.588 44.1814 186.84 42.7106 185.408 41.7228C183.425 40.3552 182.196 39.4604 182.196 39.2251C182.196 39.2164 182.2 39.2081 182.207 39.2029C182.464 39.0173 183.585 39.7 185.283 40.7333C185.517 40.8756 185.761 41.024 186.013 41.1766C188.043 42.4143 189.207 43.6441 189.219 43.6563C189.224 43.6618 189.227 43.6691 189.226 43.6765C189.226 43.684 189.222 43.691 189.217 43.6959L188.642 44.1959C188.637 44.2004 188.63 44.2027 188.624 44.2027ZM182.253 39.2394C182.325 39.5298 184.422 40.9761 185.439 41.6775C186.795 42.6127 188.434 43.9799 188.623 44.139L189.159 43.6734C188.998 43.5074 187.863 42.3693 185.984 41.2236C185.732 41.071 185.488 40.9226 185.254 40.7802C183.725 39.8492 182.51 39.1086 182.253 39.2394ZM188.949 43.1777C188.942 43.1777 188.935 43.1752 188.93 43.1705C188.857 43.1038 187.146 41.5247 187.146 40.4251C187.146 39.4685 188.208 37.9226 188.724 37.9226C188.733 37.9226 188.742 37.9276 188.747 37.9357C188.752 37.9438 188.753 37.954 188.748 37.9625C188.687 38.0857 188.592 38.2372 188.481 38.4125C188.142 38.9542 187.676 39.6959 187.676 40.4251C187.676 41.3988 189.52 42.615 189.539 42.6271C189.546 42.6319 189.55 42.6397 189.551 42.6483C189.552 42.6569 189.548 42.6653 189.542 42.6709L188.967 43.1709C188.962 43.1754 188.955 43.1777 188.949 43.1777ZM188.676 37.9829C188.209 38.0788 187.201 39.4858 187.201 40.4251C187.201 41.4417 188.763 42.9384 188.949 43.1131L189.478 42.6531C189.228 42.4848 187.621 41.3703 187.621 40.4251C187.621 39.6801 188.091 38.9306 188.435 38.3833C188.531 38.2301 188.616 38.0953 188.676 37.9829Z" fill="black"/>
<path d="M188.949 43.1501C188.949 43.1501 189.299 41.5251 189.299 40.4251C189.299 38.9501 188.249 37.6001 188.349 37.2251C188.724 37.6001 189.774 38.7001 189.774 40.4251C189.774 41.9251 189.524 42.6501 189.524 42.6501L188.949 43.1501Z" fill="#784B26"/>
<path d="M188.949 43.1778C188.944 43.1778 188.939 43.1765 188.935 43.1739C188.924 43.1679 188.919 43.156 188.922 43.1445C188.925 43.1282 189.271 41.5096 189.271 40.4252C189.271 39.5284 188.882 38.6819 188.598 38.0638C188.414 37.6628 188.281 37.3732 188.322 37.2181C188.325 37.2086 188.332 37.2012 188.341 37.1987C188.352 37.1962 188.361 37.1988 188.368 37.2058C189.319 38.1567 189.801 39.2399 189.801 40.4252C189.801 41.9126 189.552 42.6519 189.55 42.6592C189.548 42.6637 189.545 42.6678 189.542 42.671L188.967 43.171C188.961 43.1754 188.955 43.1778 188.949 43.1778ZM188.369 37.2852C188.371 37.4372 188.495 37.708 188.648 38.0407C188.934 38.6635 189.326 39.5164 189.326 40.4252C189.326 41.3767 189.062 42.7346 188.992 43.0759L189.5 42.6344C189.525 42.5572 189.746 41.8265 189.746 40.4252C189.746 39.2718 189.283 38.2156 188.369 37.2852Z" fill="black"/>
<path d="M189.373 42.6252C189.373 42.1502 189.198 41.7252 188.898 41.4002C188.498 40.9252 187.898 40.7752 187.273 40.8752C186.523 41.0002 185.923 41.4502 185.548 42.1502C185.048 43.0752 184.998 44.0752 184.973 45.0502C184.973 48.4252 185.098 49.8002 185.198 53.1252C185.223 54.1002 185.398 56.1002 184.948 57.6752C184.773 58.3502 184.573 58.9752 184.273 59.6252C184.473 58.8002 184.573 58.3752 184.673 57.7502C184.948 56.1252 184.873 54.6002 184.823 53.1002C184.723 50.0252 184.548 48.4502 184.448 44.7252C184.423 43.6002 184.523 42.7502 185.048 41.8502C185.598 40.9252 186.548 40.2502 187.623 40.2502C188.073 40.2502 188.448 40.3252 188.823 40.5502C189.573 40.9502 189.923 41.7752 189.923 42.6002L189.373 42.6252Z" fill="#784B26"/>
<path d="M184.273 59.7753C184.257 59.7753 184.24 59.7727 184.224 59.767C184.151 59.7416 184.109 59.665 184.127 59.59C184.325 58.7746 184.424 58.3546 184.525 57.7266C184.78 56.2192 184.731 54.7828 184.683 53.3935L184.673 53.1053C184.628 51.7269 184.569 50.6671 184.507 49.5451C184.431 48.188 184.353 46.7848 184.298 44.7293C184.273 43.6044 184.368 42.7181 184.919 41.7748C185.533 40.7416 186.569 40.1003 187.623 40.1003C188.136 40.1003 188.53 40.1995 188.9 40.4217C189.632 40.8119 190.073 41.6277 190.073 42.6003C190.073 42.6805 190.01 42.7465 189.93 42.7501L189.38 42.7751C189.34 42.7767 189.299 42.7621 189.269 42.7338C189.24 42.7055 189.223 42.6663 189.223 42.6253C189.223 42.199 189.072 41.8105 188.788 41.5021C188.443 41.0927 187.915 40.9243 187.297 41.0235C186.597 41.1401 186.038 41.5543 185.68 42.2211C185.21 43.0917 185.15 44.0192 185.123 45.0542C185.123 47.2896 185.179 48.6759 185.245 50.2812C185.277 51.0888 185.314 52.0041 185.348 53.1208C185.352 53.2667 185.359 53.4348 185.367 53.6209C185.412 54.7093 185.482 56.3541 185.092 57.7166C184.891 58.4913 184.68 59.1004 184.409 59.6882C184.384 59.7426 184.33 59.7753 184.273 59.7753ZM187.623 40.4003C186.674 40.4003 185.737 40.9853 185.177 41.927C184.663 42.8083 184.574 43.65 184.598 44.722C184.653 46.7724 184.731 48.1735 184.806 49.5284C184.869 50.6522 184.928 51.7137 184.973 53.0955L184.983 53.3833C185.026 54.6295 185.07 55.9134 184.897 57.2604C185.167 56.0208 185.108 54.6027 185.067 53.6335C185.059 53.4457 185.052 53.2758 185.048 53.1291C185.015 52.0148 184.978 51.1002 184.945 50.2933C184.88 48.6848 184.823 47.2958 184.823 45.0503C184.851 43.9722 184.914 43.0074 185.416 42.0791C185.813 41.3383 186.464 40.8582 187.248 40.7274C187.976 40.6113 188.602 40.8158 189.013 41.3038C189.31 41.6257 189.484 42.0271 189.517 42.4686L189.77 42.4572C189.73 41.6613 189.356 41.0044 188.753 40.6827C188.42 40.4836 188.085 40.4003 187.623 40.4003Z" fill="#FDD406"/>
<path d="M189.373 42.6252C189.373 42.1502 189.198 41.7252 188.898 41.4002C188.498 40.9252 187.898 40.7752 187.273 40.8752C186.523 41.0002 185.923 41.4502 185.548 42.1502C185.048 43.0752 184.998 44.0752 184.973 45.0502C184.973 48.4252 185.098 49.8002 185.198 53.1252C185.223 54.1002 185.398 56.1002 184.948 57.6752C184.773 58.3502 184.573 58.9752 184.273 59.6252C184.473 58.8002 184.573 58.3752 184.673 57.7502C184.948 56.1252 184.873 54.6002 184.823 53.1002C184.723 50.0252 184.548 48.4502 184.448 44.7252C184.423 43.6002 184.523 42.7502 185.048 41.8502C185.598 40.9252 186.548 40.2502 187.623 40.2502C188.073 40.2502 188.448 40.3252 188.823 40.5502C189.573 40.9502 189.923 41.7752 189.923 42.6002L189.373 42.6252Z" fill="#784B26"/>
<path d="M189.523 54.6752C189.523 54.6752 188.823 55.9252 188.298 56.8252C187.773 57.7252 187.348 57.9252 186.948 57.6502C186.573 57.3752 186.898 56.6502 187.198 56.3002C187.498 55.9502 189.173 54.3252 189.173 54.3252L189.523 54.6752Z" fill="#784B26"/>
<path d="M187.283 57.7919C187.165 57.7919 187.048 57.7521 186.933 57.6728C186.831 57.5986 186.772 57.4909 186.756 57.3521C186.718 57.0171 186.939 56.5604 187.177 56.2823C187.475 55.9353 189.137 54.3216 189.154 54.3054C189.165 54.2949 189.182 54.2951 189.193 54.3057L189.543 54.6557C189.551 54.6644 189.553 54.6779 189.547 54.6886C189.54 54.7011 188.841 55.9491 188.322 56.839C187.991 57.4066 187.689 57.714 187.399 57.7789C187.36 57.7875 187.321 57.7919 187.283 57.7919ZM189.173 54.3637C188.985 54.5464 187.497 55.9933 187.219 56.318C186.994 56.5805 186.775 57.0299 186.811 57.3458C186.825 57.4688 186.877 57.5637 186.964 57.628C187.106 57.7251 187.244 57.7568 187.387 57.7252C187.661 57.6638 187.951 57.3649 188.274 56.8113C188.759 55.9805 189.401 54.8372 189.489 54.6798L189.173 54.3637Z" fill="black"/>
<path d="M189.698 54.7753C189.698 54.7753 189.423 56.2003 189.198 57.2253C188.998 58.2503 188.648 58.6003 188.223 58.4753C187.773 58.3753 187.848 57.5503 188.023 57.1253C188.198 56.7003 189.248 54.5503 189.248 54.5503L189.698 54.7753Z" fill="#784B26"/>
<path d="M188.383 58.5269C188.329 58.5269 188.273 58.5185 188.216 58.5016C188.101 58.476 188.01 58.4034 187.949 58.2859C187.782 57.966 187.877 57.4084 187.998 57.1148C188.172 56.6938 189.214 54.5597 189.224 54.5381C189.227 54.5316 189.233 54.5265 189.24 54.5242C189.247 54.5217 189.254 54.5224 189.261 54.5256L189.711 54.7506C189.722 54.7562 189.728 54.7683 189.726 54.7804C189.723 54.7947 189.448 56.2175 189.226 57.2311C189.098 57.8845 188.902 58.2959 188.643 58.4532C188.562 58.5023 188.476 58.5269 188.383 58.5269ZM189.261 54.5873C189.144 54.8289 188.212 56.7411 188.049 57.1357C187.911 57.4717 187.854 57.9843 187.998 58.2604C188.051 58.3628 188.129 58.426 188.23 58.4484C188.371 58.49 188.501 58.4756 188.615 58.4062C188.86 58.2573 189.047 57.8582 189.172 57.22C189.38 56.2729 189.633 54.9691 189.668 54.7905L189.261 54.5873Z" fill="black"/>
<path d="M189.999 54.8252V57.3252C189.999 58.3752 189.749 58.8002 189.274 58.7752C188.824 58.7502 188.724 57.9502 188.824 57.4752C188.899 57.0252 189.524 54.7002 189.524 54.7002L189.999 54.8252Z" fill="#784B26"/>
<path d="M189.312 58.8038C189.299 58.8038 189.286 58.8034 189.273 58.8027C189.152 58.7959 189.049 58.7375 188.965 58.6291C188.763 58.365 188.721 57.8321 188.797 57.4696C188.872 57.0246 189.491 54.7164 189.498 54.6931C189.502 54.6786 189.517 54.6701 189.531 54.6737L190.006 54.7987C190.018 54.8018 190.027 54.8127 190.027 54.8252V57.3252C190.027 58.0125 189.92 58.448 189.7 58.6568C189.597 58.7544 189.467 58.8038 189.312 58.8038ZM189.544 54.7338C189.474 54.9925 188.921 57.0621 188.851 57.4797C188.777 57.8313 188.816 58.3441 189.009 58.5957C189.082 58.6908 189.172 58.742 189.276 58.7478C189.435 58.7562 189.56 58.7134 189.662 58.6169C189.87 58.419 189.972 57.9965 189.972 57.3252V54.8464L189.544 54.7338Z" fill="black"/>
<path d="M191.375 44.1752C191.375 44.1752 193.125 42.7002 194.575 41.7002C196.025 40.7002 197.775 39.4752 197.775 39.2252C197.5 39.0252 196.025 39.9752 194 41.2002C191.95 42.4502 190.8 43.6752 190.8 43.6752L191.375 44.1752ZM191.5 45.1752C191.5 45.1752 193.2 44.1502 194.875 43.4252C196.625 42.7002 199.25 42.7002 199.525 42.4502C199.525 42.2002 196.475 42.0502 194.3 42.9252C192.075 43.9502 190.925 44.6752 190.925 44.6752L191.5 45.1752ZM191.525 46.8752C191.525 46.8752 193.375 46.0252 195.175 45.6252C196.925 45.2252 199.425 45.3752 199.725 45.1502C199.725 44.9002 196.625 44.4002 194.3 45.1502C191.95 45.8752 190.95 46.3752 190.95 46.3752L191.525 46.8752ZM191.625 48.6002C191.625 48.6002 193.025 47.6502 194.875 47.4502C196.625 47.2752 198.95 48.6002 199.25 48.3502C199.25 48.1002 197.225 46.6252 194.7 46.8752C192.225 47.1252 191.05 48.1002 191.05 48.1002L191.625 48.6002ZM191.05 43.1502C191.05 43.1502 192.825 41.5252 192.825 40.4252C192.825 39.4502 191.75 37.9502 191.275 37.9502C191.525 38.4502 192.35 39.4502 192.35 40.4252C192.35 41.4252 190.475 42.6502 190.475 42.6502L191.05 43.1502Z" fill="#784B26"/>
<path d="M191.625 48.6277C191.618 48.6277 191.612 48.6253 191.607 48.6209L191.032 48.1209C191.025 48.1156 191.022 48.1079 191.022 48.0999C191.022 48.0917 191.026 48.0841 191.032 48.079C191.044 48.0692 192.242 47.0958 194.697 46.8478C196.912 46.6278 198.664 47.7151 199.103 48.113C199.218 48.2178 199.277 48.2976 199.277 48.3501C199.277 48.3583 199.274 48.3661 199.267 48.3712C199.134 48.482 198.708 48.335 198.063 48.1128C197.157 47.8007 195.915 47.3739 194.877 47.4775C193.056 47.6744 191.654 48.6134 191.64 48.6229C191.635 48.6261 191.63 48.6277 191.625 48.6277ZM191.093 48.1013L191.627 48.5657C191.796 48.4559 193.147 47.6092 194.872 47.4228C195.921 47.3183 197.17 47.7472 198.081 48.0609C198.622 48.2468 199.091 48.4079 199.22 48.3374C199.209 48.3058 199.165 48.2439 199.066 48.1539C198.631 47.7602 196.895 46.6852 194.702 46.9025C192.462 47.1289 191.278 47.9612 191.093 48.1013ZM191.525 46.9027C191.518 46.9027 191.512 46.9003 191.507 46.8959L190.932 46.3959C190.925 46.3899 190.921 46.3808 190.922 46.3717C190.924 46.3625 190.929 46.3546 190.937 46.3505C190.947 46.3456 191.966 45.8413 194.291 45.1239C196.469 44.4212 199.325 44.8015 199.704 45.0776C199.737 45.101 199.752 45.1248 199.752 45.1501C199.752 45.1588 199.748 45.1669 199.741 45.1721C199.6 45.278 199.04 45.3029 198.265 45.3374C197.32 45.3793 196.145 45.4316 195.181 45.652C193.404 46.0467 191.555 46.8917 191.536 46.9001C191.532 46.9018 191.529 46.9027 191.525 46.9027ZM190.999 46.3818L191.529 46.8428C191.716 46.7583 193.475 45.9747 195.169 45.5983C196.138 45.3768 197.316 45.3245 198.263 45.2824C198.97 45.2509 199.535 45.2258 199.691 45.1391C199.687 45.1345 199.681 45.1288 199.672 45.122C199.339 44.8794 196.474 44.478 194.308 45.1763C192.233 45.8165 191.201 46.2861 190.999 46.3818ZM191.5 45.2027C191.493 45.2027 191.487 45.2003 191.482 45.1959L190.907 44.6959C190.9 44.6902 190.897 44.6817 190.897 44.673C190.898 44.6644 190.903 44.6565 190.91 44.6519C190.922 44.6446 192.087 43.9142 194.288 42.9001C196.309 42.0871 199.159 42.1483 199.509 42.3841C199.538 42.4037 199.552 42.4258 199.552 42.4501C199.552 42.4579 199.549 42.4653 199.543 42.4705C199.428 42.5751 198.955 42.6345 198.301 42.7168C197.305 42.8419 195.94 43.0134 194.885 43.4505C193.232 44.1664 191.531 45.1884 191.514 45.1987C191.509 45.2013 191.505 45.2027 191.5 45.2027ZM190.971 44.6789L191.503 45.1413C191.686 45.0319 193.296 44.0787 194.864 43.4C195.926 42.9597 197.295 42.7877 198.294 42.6623C198.889 42.5875 199.364 42.5278 199.492 42.4411C199.489 42.4378 199.484 42.434 199.478 42.4297C199.186 42.2321 196.405 42.108 194.31 42.9506C192.313 43.8705 191.171 44.5564 190.971 44.6789ZM191.375 44.2027C191.368 44.2027 191.362 44.2004 191.357 44.1959L190.782 43.6959C190.776 43.691 190.773 43.684 190.772 43.6765C190.772 43.6691 190.774 43.6618 190.78 43.6563C190.791 43.6441 191.956 42.4143 193.985 41.1767C194.238 41.024 194.482 40.8756 194.715 40.7333C196.413 39.7 197.535 39.017 197.791 39.2029C197.798 39.2081 197.802 39.2164 197.802 39.2251C197.802 39.4604 196.573 40.3552 194.59 41.7228C193.158 42.7106 191.41 44.1814 191.392 44.1961C191.387 44.2005 191.381 44.2027 191.375 44.2027ZM190.84 43.6734L191.375 44.139C191.565 43.9799 193.203 42.6127 194.559 41.6775C195.576 40.9761 197.673 39.5298 197.745 39.2394C197.487 39.1087 196.274 39.8492 194.744 40.7802C194.51 40.9226 194.266 41.071 194.014 41.2237C192.135 42.3693 191.001 43.5074 190.84 43.6734ZM191.05 43.1777C191.043 43.1777 191.037 43.1754 191.032 43.1709L190.457 42.6709C190.45 42.6653 190.447 42.6569 190.447 42.6483C190.448 42.6397 190.452 42.6319 190.46 42.6271C190.478 42.615 192.322 41.3988 192.322 40.4251C192.322 39.6959 191.857 38.9542 191.517 38.4125C191.407 38.2372 191.312 38.0857 191.25 37.9625C191.246 37.954 191.246 37.9438 191.251 37.9357C191.256 37.9276 191.265 37.9226 191.275 37.9226C191.79 37.9226 192.852 39.4685 192.852 40.4251C192.852 41.5247 191.141 43.1038 191.068 43.1705C191.063 43.1752 191.056 43.1777 191.05 43.1777ZM190.52 42.6531L191.049 43.1131C191.235 42.9384 192.797 41.4415 192.797 40.4251C192.797 39.4858 191.79 38.0788 191.323 37.9829C191.383 38.0953 191.467 38.2301 191.563 38.3833C191.907 38.9306 192.377 39.6801 192.377 40.4251C192.377 41.3703 190.771 42.4848 190.52 42.6531Z" fill="black"/>
<path d="M191.048 43.1501C191.048 43.1501 190.698 41.5251 190.698 40.4251C190.698 38.9501 191.748 37.6001 191.648 37.2251C191.273 37.6001 190.223 38.7001 190.223 40.4251C190.223 41.9251 190.473 42.6501 190.473 42.6501L191.048 43.1501Z" fill="#784B26"/>
<path d="M191.048 43.178C191.041 43.178 191.035 43.1756 191.03 43.1712L190.455 42.6712C190.451 42.668 190.448 42.6639 190.447 42.6594C190.444 42.6521 190.195 41.9128 190.195 40.4254C190.195 39.2401 190.678 38.1569 191.628 37.206C191.635 37.199 191.645 37.1965 191.655 37.1989C191.664 37.2014 191.672 37.2088 191.674 37.2183C191.716 37.3734 191.583 37.663 191.398 38.064C191.114 38.6821 190.725 39.5286 190.725 40.4254C190.725 41.5098 191.071 43.1285 191.075 43.1447C191.077 43.1562 191.072 43.1681 191.062 43.1741C191.057 43.1767 191.053 43.178 191.048 43.178ZM190.497 42.6346L191.004 43.0761C190.935 42.7348 190.67 41.3769 190.67 40.4254C190.67 39.5166 191.062 38.6637 191.348 38.041C191.501 37.7082 191.626 37.4374 191.627 37.2854C190.713 38.2158 190.25 39.272 190.25 40.4254C190.25 41.8267 190.472 42.5574 190.497 42.6346Z" fill="black"/>
<path d="M190.624 42.6252C190.624 42.1502 190.799 41.7252 191.099 41.4002C191.499 40.9252 192.099 40.7752 192.724 40.8752C193.474 41.0002 194.074 41.4502 194.449 42.1502C194.949 43.0752 194.999 44.0752 195.024 45.0502C195.024 48.4252 194.899 49.8002 194.799 53.1252C194.774 54.1002 194.599 56.1002 195.049 57.6752C195.224 58.3502 195.424 58.9752 195.724 59.6252C195.524 58.8002 195.424 58.3752 195.324 57.7502C195.049 56.1252 195.124 54.6002 195.174 53.1002C195.274 50.0252 195.449 48.4502 195.549 44.7252C195.574 43.6002 195.474 42.7502 194.949 41.8502C194.399 40.9252 193.449 40.2502 192.374 40.2502C191.924 40.2502 191.549 40.3252 191.174 40.5502C190.424 40.9502 190.074 41.7752 190.074 42.6002L190.624 42.6252Z" fill="#784B26"/>
<path d="M195.724 59.7753C195.667 59.7753 195.613 59.7426 195.588 59.6882C195.316 59.1004 195.105 58.4913 194.904 57.7129C194.515 56.3541 194.585 54.7093 194.63 53.6209C194.638 53.4348 194.645 53.2667 194.649 53.1215C194.682 52.0041 194.72 51.0888 194.752 50.2812C194.818 48.6759 194.874 47.2896 194.874 45.0503C194.847 44.0192 194.787 43.0917 194.317 42.2216C193.959 41.5543 193.4 41.1401 192.699 41.0233C192.083 40.925 191.554 41.0927 191.213 41.4969C190.924 41.8105 190.774 42.199 190.774 42.6253C190.774 42.6663 190.757 42.7055 190.728 42.7338C190.698 42.7621 190.657 42.7767 190.617 42.7751L190.067 42.7501C189.987 42.7465 189.924 42.6805 189.924 42.6003C189.924 41.6277 190.365 40.8119 191.103 40.418C191.467 40.1995 191.861 40.1003 192.374 40.1003C193.428 40.1003 194.464 40.7416 195.078 41.7737C195.629 42.7181 195.724 43.6044 195.699 44.7287C195.644 46.7848 195.565 48.188 195.49 49.5451C195.428 50.6671 195.369 51.7269 195.324 53.1052L195.314 53.3935C195.266 54.7828 195.217 56.2192 195.472 57.7253C195.572 58.3546 195.672 58.7746 195.87 59.59C195.888 59.665 195.846 59.7416 195.773 59.767C195.757 59.7727 195.74 59.7753 195.724 59.7753ZM192.359 40.6955C192.485 40.6955 192.614 40.7059 192.747 40.7272C193.533 40.8582 194.184 41.3383 194.581 42.0795C195.083 43.0074 195.146 43.9722 195.174 45.0465C195.174 47.2958 195.117 48.6848 195.052 50.2933C195.019 51.1002 194.982 52.0148 194.949 53.1298C194.945 53.2758 194.938 53.4457 194.93 53.6335C194.889 54.6037 194.829 56.0238 195.1 57.2617C194.927 55.9148 194.971 54.6302 195.014 53.3833L195.024 53.0954C195.069 51.7137 195.128 50.6522 195.19 49.5284C195.266 48.1735 195.344 46.7724 195.399 44.7213C195.423 43.65 195.334 42.8083 194.819 41.9259C194.26 40.9853 193.323 40.4003 192.374 40.4003C191.912 40.4003 191.577 40.4836 191.251 40.679C190.642 41.0042 190.267 41.6612 190.227 42.4572L190.48 42.4686C190.513 42.0271 190.687 41.6251 190.989 41.2986C191.321 40.9042 191.799 40.6955 192.359 40.6955Z" fill="#FDD406"/>
<path d="M190.624 42.6252C190.624 42.1502 190.799 41.7252 191.099 41.4002C191.499 40.9252 192.099 40.7752 192.724 40.8752C193.474 41.0002 194.074 41.4502 194.449 42.1502C194.949 43.0752 194.999 44.0752 195.024 45.0502C195.024 48.4252 194.899 49.8002 194.799 53.1252C194.774 54.1002 194.599 56.1002 195.049 57.6752C195.224 58.3502 195.424 58.9752 195.724 59.6252C195.524 58.8002 195.424 58.3752 195.324 57.7502C195.049 56.1252 195.124 54.6002 195.174 53.1002C195.274 50.0252 195.449 48.4502 195.549 44.7252C195.574 43.6002 195.474 42.7502 194.949 41.8502C194.399 40.9252 193.449 40.2502 192.374 40.2502C191.924 40.2502 191.549 40.3252 191.174 40.5502C190.424 40.9502 190.074 41.7752 190.074 42.6002L190.624 42.6252Z" fill="#784B26"/>
<path d="M190.473 54.6752C190.473 54.6752 191.173 55.9252 191.698 56.8252C192.223 57.7252 192.648 57.9252 193.048 57.6502C193.423 57.3752 193.098 56.6502 192.798 56.3002C192.498 55.9502 190.823 54.3252 190.823 54.3252L190.473 54.6752Z" fill="#784B26"/>
<path d="M192.713 57.7918C192.674 57.7918 192.636 57.7875 192.597 57.7789C192.307 57.714 192.005 57.4066 191.674 56.839C191.155 55.9491 190.456 54.7011 190.449 54.6886C190.443 54.6779 190.445 54.6644 190.453 54.6557L190.803 54.3057C190.814 54.2951 190.831 54.2949 190.842 54.3054C190.859 54.3216 192.521 55.9353 192.819 56.2823C193.057 56.5604 193.278 57.0171 193.24 57.3521C193.224 57.4909 193.165 57.5986 193.064 57.6723C192.948 57.752 192.831 57.7918 192.713 57.7918ZM190.507 54.6798C190.595 54.8372 191.237 55.9805 191.722 56.8113C192.045 57.3649 192.335 57.6638 192.609 57.7252C192.751 57.7567 192.89 57.7251 193.032 57.6275C193.119 57.5637 193.171 57.4688 193.185 57.3458C193.221 57.0299 193.002 56.5805 192.777 56.318C192.499 55.9933 191.011 54.5464 190.823 54.3637L190.507 54.6798Z" fill="black"/>
<path d="M190.299 54.7753C190.299 54.7753 190.574 56.2003 190.799 57.2253C190.999 58.2503 191.349 58.6003 191.774 58.4753C192.224 58.3753 192.149 57.5503 191.974 57.1253C191.799 56.7003 190.749 54.5503 190.749 54.5503L190.299 54.7753Z" fill="#784B26"/>
<path d="M191.615 58.527C191.523 58.527 191.435 58.5024 191.354 58.4532C191.095 58.2959 190.9 57.8845 190.772 57.2305C190.55 56.2175 190.275 54.7947 190.272 54.7804C190.27 54.7683 190.276 54.7562 190.287 54.7506L190.737 54.5256C190.743 54.5224 190.751 54.5217 190.758 54.5242C190.765 54.5265 190.77 54.5316 190.774 54.5381C190.784 54.5597 191.826 56.6938 191.999 57.1148C192.12 57.4084 192.216 57.966 192.049 58.2859C191.987 58.4034 191.897 58.476 191.78 58.5021C191.723 58.5187 191.668 58.527 191.615 58.527ZM190.33 54.7905C190.365 54.9691 190.618 56.2729 190.826 57.2194C190.951 57.8582 191.138 58.2573 191.383 58.4062C191.497 58.4756 191.626 58.4901 191.766 58.4489C191.868 58.426 191.947 58.3628 192 58.2604C192.144 57.9843 192.087 57.4717 191.949 57.1357C191.786 56.7411 190.854 54.8289 190.736 54.5873L190.33 54.7905Z" fill="black"/>
<path d="M189.998 54.8252V57.3252C189.998 58.3752 190.248 58.8002 190.723 58.7752C191.173 58.7502 191.273 57.9502 191.173 57.4752C191.098 57.0252 190.473 54.7002 190.473 54.7002L189.998 54.8252Z" fill="#784B26"/>
<path d="M190.685 58.8038C190.531 58.8038 190.401 58.7545 190.298 58.6569C190.078 58.4481 189.971 58.0125 189.971 57.3253V54.8253C189.971 54.8128 189.979 54.8019 189.991 54.7987L190.466 54.6737C190.481 54.6699 190.496 54.6786 190.5 54.6932C190.506 54.7164 191.126 57.0246 191.2 57.4708C191.277 57.8321 191.234 58.3651 191.032 58.6291C190.949 58.7376 190.846 58.796 190.725 58.8028C190.711 58.8034 190.698 58.8038 190.685 58.8038ZM190.026 54.8465V57.3253C190.026 57.9966 190.127 58.4191 190.336 58.617C190.438 58.7133 190.564 58.7562 190.722 58.7479C190.826 58.7421 190.915 58.6908 190.988 58.5957C191.181 58.3442 191.22 57.8314 191.146 57.481C191.077 57.0621 190.523 54.9926 190.454 54.7339L190.026 54.8465Z" fill="black"/>
<path d="M189.999 54.8004C188.674 54.7754 188.549 54.3004 188.549 54.3004C188.549 54.3004 188.374 53.7004 188.349 53.3254C188.324 53.2754 187.974 52.5254 188.074 52.2004C187.949 51.9004 187.649 51.1754 187.924 51.0504C187.799 50.7004 187.599 50.3004 187.574 49.9254C187.474 49.6504 187.224 49.0504 187.424 48.8504C187.424 48.8504 186.949 47.8504 187.174 47.6004C187.174 47.6004 186.949 46.6254 187.174 46.3754C187.174 46.3754 187.174 45.3754 187.424 45.1254C187.424 45.1254 187.424 44.1504 187.649 43.9004C187.649 43.9504 188.349 42.5254 189.999 42.5254L189.974 44.6504H189.999V54.8004Z" fill="#784B26"/>
<path d="M189.999 54.8279H189.999C188.668 54.8027 188.528 54.3276 188.523 54.3074C188.521 54.302 188.348 53.7065 188.322 53.3325C188.289 53.2643 187.951 52.542 188.045 52.202C187.916 51.8918 187.63 51.199 187.89 51.0374C187.861 50.9573 187.829 50.8754 187.795 50.7892C187.683 50.5071 187.567 50.2153 187.547 49.9312L187.519 49.8558C187.406 49.5528 187.219 49.0505 187.392 48.8454C187.329 48.7097 186.945 47.853 187.144 47.5932C187.117 47.471 186.938 46.6201 187.147 46.3651C187.147 46.2537 187.16 45.37 187.397 45.1142C187.397 44.9997 187.41 44.1251 187.629 43.882C187.631 43.8796 187.633 43.8778 187.636 43.8763C187.641 43.8695 187.648 43.8578 187.659 43.8418C188.226 42.9751 189.057 42.4978 189.999 42.4978C190.007 42.4978 190.014 42.5008 190.019 42.506C190.024 42.5113 190.027 42.5183 190.027 42.5256L190.002 44.623C190.016 44.6244 190.027 44.6361 190.027 44.6503V54.8003C190.027 54.8078 190.024 54.8148 190.019 54.82C190.013 54.825 190.006 54.8279 189.999 54.8279ZM187.663 43.9268C187.454 44.1789 187.452 45.1158 187.452 45.1253C187.452 45.1327 187.449 45.1396 187.444 45.1448C187.204 45.3839 187.202 46.3655 187.202 46.3753C187.202 46.3822 187.199 46.3887 187.195 46.3937C186.982 46.6303 187.199 47.5845 187.201 47.5942C187.203 47.6029 187.201 47.6121 187.195 47.6187C187.02 47.8126 187.319 48.565 187.449 48.8385C187.454 48.8491 187.452 48.8616 187.444 48.8698C187.274 49.0398 187.467 49.5582 187.571 49.8366L187.6 49.916C187.601 49.9184 187.602 49.9209 187.602 49.9235C187.62 50.2002 187.735 50.4894 187.846 50.769C187.883 50.8636 187.919 50.953 187.95 51.0411C187.955 51.0545 187.949 51.0695 187.936 51.0753C187.683 51.1902 187.997 51.9425 188.1 52.1898C188.102 52.1957 188.102 52.2023 188.101 52.2084C188.013 52.4924 188.298 53.1625 188.374 53.313C188.375 53.3164 188.376 53.3199 188.377 53.3235C188.401 53.6912 188.574 54.2867 188.576 54.2926C188.577 54.2976 188.716 54.742 189.972 54.7722V44.6777C189.965 44.6771 189.959 44.6743 189.955 44.6697C189.949 44.6644 189.947 44.6574 189.947 44.65L189.971 42.553C189.06 42.5624 188.256 43.0298 187.705 43.8719C187.683 43.9045 187.673 43.9208 187.663 43.9268Z" fill="black"/>
<path d="M189.999 53.828C189.428 53.828 188.675 53.7439 188.328 53.3434C188.318 53.332 188.32 53.3146 188.331 53.3046C188.342 53.2947 188.36 53.2957 188.37 53.3075C188.703 53.6921 189.44 53.7729 189.999 53.7729C190.014 53.7729 190.027 53.7852 190.027 53.8004C190.027 53.8157 190.014 53.828 189.999 53.828ZM189.999 52.828C188.829 52.828 188.116 52.353 188.109 52.3482C188.105 52.3456 188.102 52.3419 188.099 52.3377C188.098 52.3356 188.073 52.2851 188.048 52.2091C188.043 52.1948 188.051 52.1791 188.065 52.1744C188.079 52.1694 188.095 52.1773 188.1 52.1917C188.119 52.2486 188.138 52.291 188.146 52.3066C188.216 52.3521 188.904 52.7729 189.999 52.7729C190.014 52.7729 190.027 52.7852 190.027 52.8004C190.027 52.8157 190.014 52.828 189.999 52.828ZM189.999 51.603H189.999C188.368 51.5766 187.988 51.2173 187.9 51.0641C187.893 51.0509 187.897 51.0341 187.91 51.0266C187.924 51.0189 187.94 51.0236 187.948 51.0368C188.012 51.15 188.352 51.5213 189.999 51.5479C190.015 51.5482 190.027 51.5607 190.027 51.5759C190.026 51.5909 190.014 51.603 189.999 51.603ZM189.999 50.603C187.881 50.603 187.633 50.1078 187.624 50.0868L187.549 49.9377C187.543 49.9242 187.548 49.9077 187.562 49.9008C187.575 49.8939 187.592 49.8996 187.599 49.9131L187.674 50.0631C187.676 50.0687 187.931 50.5479 189.999 50.5479C190.014 50.5479 190.027 50.5602 190.027 50.5754C190.027 50.5907 190.014 50.603 189.999 50.603ZM189.999 49.378H189.999C187.886 49.3531 187.423 48.8891 187.404 48.8694C187.394 48.8583 187.394 48.8411 187.405 48.8306C187.416 48.8201 187.433 48.8207 187.444 48.8314C187.448 48.8361 187.919 49.2985 189.999 49.3229C190.014 49.3231 190.027 49.3356 190.027 49.3507C190.026 49.3659 190.014 49.378 189.999 49.378ZM189.999 48.128C187.889 48.128 187.187 47.6434 187.158 47.6228C187.146 47.614 187.143 47.5968 187.152 47.5845C187.16 47.5721 187.178 47.5691 187.19 47.5781C187.197 47.583 187.911 48.0729 189.999 48.0729C190.014 48.0729 190.027 48.0852 190.027 48.1004C190.027 48.1157 190.014 48.128 189.999 48.128ZM189.999 46.903H189.999C187.89 46.8782 187.187 46.4178 187.159 46.3982C187.146 46.3897 187.143 46.3726 187.151 46.36C187.16 46.3474 187.177 46.344 187.189 46.3527C187.196 46.3574 187.911 46.8234 189.999 46.8479C190.014 46.8481 190.027 46.8606 190.027 46.8757C190.026 46.8909 190.014 46.903 189.999 46.903ZM189.999 45.653H189.999C187.886 45.6281 187.423 45.1641 187.404 45.1444C187.394 45.1333 187.394 45.1161 187.405 45.1056C187.416 45.0952 187.433 45.0956 187.444 45.1064C187.448 45.1111 187.919 45.5735 189.999 45.5979C190.014 45.5981 190.027 45.6106 190.027 45.6257C190.026 45.6409 190.014 45.653 189.999 45.653ZM189.974 44.678H189.974C189.806 44.6775 188.352 44.6667 188.104 44.4199L187.629 43.9449C187.619 43.9341 187.619 43.9167 187.629 43.906C187.64 43.8953 187.658 43.8953 187.669 43.906L188.144 44.381C188.332 44.5694 189.423 44.6216 189.974 44.6229C189.989 44.6231 190.002 44.6353 190.002 44.6504C190.002 44.6656 189.989 44.6779 189.974 44.678Z" fill="black"/>
<path d="M189.998 54.8004C191.323 54.7754 191.448 54.3004 191.448 54.3004C191.448 54.3004 191.623 53.7004 191.648 53.3254C191.673 53.2754 192.023 52.5254 191.923 52.2004C192.048 51.9004 192.348 51.1754 192.073 51.0504C192.198 50.7004 192.398 50.3004 192.423 49.9254C192.523 49.6504 192.773 49.0504 192.573 48.8504C192.573 48.8504 193.048 47.8504 192.823 47.6004C192.823 47.6004 193.048 46.6254 192.823 46.3754C192.823 46.3754 192.823 45.3754 192.573 45.1254C192.573 45.1254 192.573 44.1504 192.348 43.9004C192.348 43.9504 191.648 42.5254 189.998 42.5254L190.023 44.6504H189.998V54.8004Z" fill="#784B26"/>
<path d="M189.998 54.8279C189.991 54.8279 189.984 54.825 189.979 54.82C189.974 54.8148 189.971 54.8078 189.971 54.8003V44.6503C189.971 44.6361 189.982 44.6244 189.996 44.623L189.971 42.5256C189.971 42.5183 189.973 42.5113 189.979 42.506C189.984 42.5008 189.991 42.4978 189.998 42.4978C190.94 42.4978 191.772 42.9751 192.339 43.8418C192.349 43.8578 192.357 43.8695 192.362 43.8763C192.364 43.8778 192.367 43.8796 192.369 43.882C192.588 44.1251 192.6 44.9997 192.601 45.1142C192.837 45.37 192.85 46.2537 192.851 46.3651C193.06 46.6201 192.88 47.471 192.853 47.5932C193.053 47.853 192.669 48.7097 192.606 48.8454C192.779 49.0505 192.591 49.5528 192.478 49.8558L192.45 49.9312C192.431 50.2153 192.315 50.5071 192.203 50.7892C192.169 50.8754 192.136 50.9573 192.107 51.0374C192.367 51.199 192.082 51.8918 191.952 52.202C192.046 52.542 191.708 53.2643 191.675 53.3325C191.649 53.7065 191.476 54.302 191.475 54.3081C191.47 54.3276 191.329 54.8027 189.999 54.8279H189.998ZM190.026 44.6777V54.7722C191.281 54.742 191.421 54.2976 191.422 54.2931C191.424 54.2867 191.596 53.6912 191.621 53.3235C191.621 53.3199 191.622 53.3164 191.624 53.313C191.699 53.1625 191.984 52.4924 191.897 52.2084C191.895 52.2023 191.895 52.1957 191.898 52.1898C192.001 51.9425 192.314 51.1902 192.062 51.0753C192.049 51.0695 192.043 51.0545 192.047 51.0411C192.079 50.953 192.114 50.8636 192.152 50.769C192.263 50.4894 192.377 50.2002 192.396 49.9235C192.396 49.9209 192.396 49.9184 192.397 49.916L192.427 49.8366C192.531 49.5582 192.724 49.0398 192.554 48.8698C192.546 48.8616 192.543 48.8491 192.548 48.8385C192.678 48.565 192.977 47.8125 192.803 47.6187C192.797 47.6121 192.794 47.6029 192.796 47.5942C192.799 47.5845 193.016 46.6303 192.803 46.3937C192.798 46.3887 192.796 46.3822 192.796 46.3753C192.796 46.3655 192.793 45.3839 192.554 45.1448C192.549 45.1396 192.546 45.1327 192.546 45.1253C192.546 45.1158 192.543 44.1788 192.335 43.9268C192.325 43.9208 192.314 43.9045 192.293 43.8719C191.742 43.0298 190.938 42.5624 190.026 42.553L190.051 44.65C190.051 44.6574 190.048 44.6644 190.043 44.6697C190.038 44.6743 190.032 44.6771 190.026 44.6777Z" fill="black"/>
<path d="M189.998 53.828C189.983 53.828 189.971 53.8157 189.971 53.8004C189.971 53.7852 189.983 53.7729 189.998 53.7729C190.557 53.7729 191.294 53.6921 191.628 53.3075C191.637 53.2958 191.655 53.2948 191.666 53.3046C191.678 53.3146 191.679 53.332 191.669 53.3434C191.322 53.7439 190.569 53.828 189.998 53.828ZM189.998 52.828C189.983 52.828 189.971 52.8157 189.971 52.8004C189.971 52.7852 189.983 52.7729 189.998 52.7729C191.094 52.7729 191.781 52.3521 191.852 52.3066C191.859 52.291 191.878 52.2486 191.897 52.1917C191.902 52.1773 191.918 52.1695 191.932 52.1744C191.946 52.1791 191.954 52.1948 191.949 52.2091C191.924 52.2851 191.899 52.3356 191.898 52.3377C191.896 52.3419 191.893 52.3456 191.889 52.3482C191.882 52.353 191.168 52.828 189.998 52.828ZM189.998 51.603C189.983 51.603 189.971 51.591 189.971 51.5759C189.971 51.5607 189.983 51.5482 189.998 51.5479C191.646 51.5213 191.985 51.15 192.049 51.0368C192.057 51.0236 192.074 51.0189 192.087 51.0266C192.1 51.0341 192.105 51.0509 192.097 51.0641C192.01 51.2173 191.63 51.5766 189.999 51.603H189.998ZM189.998 50.603C189.983 50.603 189.971 50.5907 189.971 50.5754C189.971 50.5602 189.983 50.5479 189.998 50.5479C192.066 50.5479 192.321 50.0687 192.323 50.0638L192.399 49.9131C192.406 49.8998 192.422 49.8943 192.436 49.9008C192.449 49.9077 192.455 49.9242 192.448 49.9377L192.373 50.0877C192.364 50.1078 192.117 50.603 189.998 50.603ZM189.998 49.378C189.983 49.378 189.971 49.3659 189.971 49.3507C189.971 49.3356 189.983 49.3231 189.998 49.3229C192.087 49.2984 192.549 48.8362 192.553 48.8315C192.563 48.8203 192.581 48.82 192.592 48.8305C192.603 48.841 192.604 48.8583 192.593 48.8694C192.574 48.8891 192.111 49.3531 189.999 49.378H189.998ZM189.998 48.128C189.983 48.128 189.971 48.1157 189.971 48.1004C189.971 48.0852 189.983 48.0729 189.998 48.0729C192.086 48.0729 192.8 47.583 192.807 47.5781C192.82 47.5691 192.837 47.5721 192.846 47.5845C192.854 47.5968 192.852 47.614 192.839 47.6228C192.81 47.6434 192.108 48.128 189.998 48.128ZM189.998 46.903C189.983 46.903 189.971 46.8909 189.971 46.8757C189.971 46.8606 189.983 46.8481 189.998 46.8479C192.087 46.8234 192.801 46.3574 192.808 46.3527C192.82 46.344 192.837 46.3474 192.846 46.36C192.854 46.3726 192.851 46.3897 192.839 46.3982C192.81 46.4178 192.108 46.8782 189.999 46.903H189.998ZM189.998 45.653C189.983 45.653 189.971 45.6409 189.971 45.6257C189.971 45.6106 189.983 45.5981 189.998 45.5979C192.087 45.5734 192.549 45.1112 192.553 45.1065C192.563 45.0954 192.581 45.0951 192.592 45.1055C192.603 45.116 192.604 45.1333 192.593 45.1444C192.574 45.1641 192.111 45.6281 189.999 45.653H189.998ZM190.023 44.678C190.008 44.678 189.996 44.6657 189.996 44.6504C189.996 44.6353 190.008 44.6231 190.023 44.6229C190.574 44.6216 191.665 44.5694 191.854 44.381L192.329 43.906C192.34 43.8953 192.357 43.8953 192.368 43.906C192.379 43.9167 192.379 43.9341 192.368 43.9449L191.893 44.4199C191.646 44.6669 190.189 44.6776 190.023 44.678Z" fill="black"/>
<path d="M179.998 77.8003C178.923 78.8003 176.848 78.1503 176.198 77.7003C175.523 77.9253 173.723 77.2253 173.248 76.4503C171.948 76.6253 171.498 74.7753 171.723 74.3003C172.073 73.6003 171.448 73.1503 171.898 72.6753C172.523 72.0753 171.548 71.5003 172.148 71.1003C172.748 70.6753 171.998 69.9753 172.598 69.5253C173.223 69.0503 172.273 68.4003 172.923 68.0753C173.573 67.7503 172.848 66.9003 173.398 66.5753C173.948 66.2503 173.073 65.4253 173.823 65.0503C174.548 64.6753 173.898 64.0253 174.473 63.7503C175.098 63.4253 174.523 62.7503 175.098 62.5253C175.748 62.2503 175.273 61.5253 175.823 61.3253C176.298 61.1503 175.998 60.7003 176.298 60.3003H179.998" fill="#1E9A1C"/>
<path d="M178.442 78.3598C177.527 78.3598 176.596 78.0032 176.195 77.7305C175.509 77.9432 173.741 77.2766 173.235 76.4797C172.656 76.5506 172.283 76.2223 172.072 75.9333C171.685 75.4036 171.552 74.6004 171.699 74.2885C171.866 73.9551 171.805 73.675 171.751 73.4282C171.694 73.1618 171.639 72.9102 171.879 72.6563C172.189 72.3586 172.093 72.0735 171.999 71.7977C171.91 71.5331 171.825 71.2831 172.134 71.0774C172.419 70.8752 172.384 70.6088 172.347 70.3268C172.309 70.0374 172.27 69.7381 172.583 69.5032C172.882 69.2758 172.802 69.0069 172.724 68.7467C172.648 68.4889 172.568 68.2225 172.912 68.0506C173.233 67.8903 173.201 67.6004 173.168 67.2934C173.138 67.0098 173.106 66.7167 173.385 66.5516C173.623 66.411 173.577 66.1747 173.523 65.9014C173.461 65.5895 173.391 65.2362 173.812 65.0256C174.18 64.8352 174.179 64.5737 174.178 64.3206C174.177 64.0954 174.176 63.8625 174.462 63.7254C174.766 63.5676 174.772 63.3223 174.778 63.0852C174.784 62.8549 174.79 62.6165 175.089 62.4997C175.412 62.3631 175.444 62.1098 175.476 61.8651C175.505 61.637 175.535 61.4012 175.815 61.2995C176.069 61.2055 176.087 61.0333 176.108 60.8153C176.125 60.6497 176.144 60.4618 176.277 60.2838C176.282 60.2768 176.291 60.2727 176.299 60.2727H179.999C180.015 60.2727 180.027 60.285 180.027 60.3002C180.027 60.3155 180.015 60.3278 179.999 60.3278H176.313C176.196 60.4901 176.179 60.6581 176.163 60.8208C176.141 61.0391 176.121 61.2454 175.834 61.351C175.585 61.4415 175.56 61.6409 175.53 61.8719C175.498 62.1202 175.463 62.4014 175.11 62.5506C174.845 62.6545 174.839 62.8547 174.833 63.0868C174.827 63.328 174.82 63.6014 174.487 63.7747C174.231 63.8971 174.232 64.0932 174.233 64.3204C174.234 64.5774 174.235 64.8686 173.837 65.0747C173.453 65.2667 173.516 65.5838 173.576 65.8907C173.63 66.16 173.685 66.4383 173.413 66.5989C173.164 66.7459 173.193 67.009 173.223 67.2875C173.257 67.5997 173.291 67.9223 172.937 68.0999C172.634 68.251 172.701 68.4735 172.777 68.7311C172.856 68.9961 172.946 69.2965 172.616 69.5471C172.328 69.7629 172.364 70.0333 172.402 70.3196C172.439 70.6053 172.478 70.9008 172.165 71.1227C171.891 71.3055 171.965 71.5254 172.052 71.7801C172.146 72.0584 172.253 72.3741 171.918 72.6952C171.699 72.9268 171.748 73.1538 171.805 73.4165C171.861 73.6723 171.924 73.9624 171.749 74.3125C171.623 74.5774 171.722 75.3614 172.116 75.9006C172.321 76.1807 172.684 76.5 173.246 76.4229C173.258 76.4233 173.267 76.4266 173.273 76.4358C173.747 77.2104 175.542 77.8911 176.19 77.6741C176.199 77.6719 176.208 77.6729 176.215 77.6776C176.827 78.1014 178.911 78.7741 179.981 77.7801C179.992 77.7698 180.009 77.7704 180.019 77.7815C180.03 77.7926 180.029 77.81 180.018 77.8204C179.591 78.217 179.02 78.3598 178.442 78.3598Z" fill="black"/>
<path d="M176.2 77.7278C176.196 77.7278 176.191 77.7267 176.187 77.7245C176.119 77.6874 176.076 77.6271 176.057 77.5452C176.002 77.2991 176.191 76.8976 176.403 76.6091C176.517 76.4536 176.48 76.2987 176.437 76.1194C176.382 75.8878 176.319 75.6253 176.579 75.3079C176.831 75.0163 176.786 74.7079 176.743 74.4097C176.708 74.1599 176.674 73.9237 176.829 73.7329C176.977 73.539 176.938 73.3122 176.897 73.0724C176.85 72.7989 176.801 72.5163 177.003 72.2343C177.175 72.0044 177.122 71.7919 177.065 71.5669C177.002 71.3151 176.936 71.0546 177.179 70.7579C177.421 70.4646 177.36 70.2044 177.301 69.9528C177.248 69.7267 177.193 69.4927 177.378 69.2583C177.551 69.0507 177.508 68.8737 177.457 68.6687C177.401 68.4458 177.339 68.1933 177.552 67.8604C177.753 67.5761 177.695 67.3614 177.634 67.1341C177.569 66.8962 177.503 66.6503 177.754 66.3333C177.973 66.0401 177.922 65.7821 177.868 65.5091C177.815 65.2419 177.761 64.9657 177.978 64.6595C178.193 64.356 178.143 64.1739 178.092 63.9812C178.042 63.7976 177.991 63.6079 178.151 63.3122C178.302 63.0329 178.246 62.8509 178.192 62.6747C178.132 62.4774 178.075 62.2911 178.304 62.0079C178.501 61.7757 178.446 61.6001 178.382 61.3968C178.315 61.1833 178.239 60.9411 178.478 60.6093C178.487 60.597 178.504 60.5942 178.516 60.603C178.528 60.6118 178.531 60.629 178.522 60.6413C178.3 60.9509 178.368 61.1692 178.435 61.3804C178.498 61.5808 178.563 61.788 178.346 62.0431C178.136 62.303 178.186 62.4677 178.245 62.6587C178.3 62.8368 178.362 63.0388 178.199 63.3384C178.05 63.6147 178.096 63.7858 178.145 63.9669C178.198 64.1634 178.252 64.3667 178.023 64.6911C177.819 64.9782 177.869 65.231 177.922 65.4983C177.976 65.7714 178.032 66.0536 177.797 66.3667C177.563 66.6626 177.623 66.8847 177.687 67.1198C177.749 67.3493 177.813 67.5868 177.598 67.8911C177.398 68.2028 177.455 68.4329 177.51 68.6556C177.562 68.8659 177.611 69.0646 177.421 69.2929C177.253 69.506 177.302 69.7169 177.355 69.9403C177.414 70.1927 177.481 70.4786 177.221 70.7929C176.996 71.0681 177.056 71.3038 177.118 71.5534C177.176 71.781 177.235 72.0163 177.047 72.2667C176.859 72.5296 176.906 72.8009 176.951 73.063C176.994 73.3151 177.035 73.5532 176.872 73.7671C176.732 73.9397 176.762 74.154 176.798 74.4019C176.84 74.6979 176.889 75.0333 176.621 75.3433C176.379 75.6392 176.436 75.8769 176.491 76.1065C176.535 76.2913 176.576 76.4655 176.447 76.6415C176.25 76.9112 176.06 77.3052 176.111 77.5331C176.126 77.5989 176.16 77.647 176.213 77.6761C176.227 77.6835 176.232 77.7001 176.224 77.7134C176.219 77.7226 176.21 77.7278 176.2 77.7278ZM173.25 76.4778C173.241 76.4778 173.232 76.4731 173.227 76.4649C173.089 76.245 173.16 75.7767 173.481 75.4558C173.619 75.3173 173.613 75.1501 173.606 74.9565C173.597 74.7188 173.587 74.4493 173.856 74.1808C174.059 73.9776 174.028 73.7739 173.992 73.538C173.951 73.2774 173.906 72.9823 174.205 72.6567C174.494 72.3544 174.478 72.0366 174.462 71.7294C174.446 71.4413 174.431 71.1433 174.68 70.8813C174.919 70.6429 174.898 70.3958 174.877 70.1341C174.854 69.862 174.831 69.5806 175.106 69.3058C175.345 69.0661 175.322 68.8562 175.298 68.6339C175.272 68.3983 175.246 68.155 175.504 67.8573C175.762 67.587 175.741 67.3489 175.719 67.0968C175.697 66.8524 175.675 66.5997 175.93 66.3313C176.189 66.0847 176.172 65.8782 176.153 65.6392C176.135 65.4149 176.114 65.161 176.354 64.8583C176.59 64.5472 176.545 64.3245 176.501 64.1091C176.458 63.9009 176.414 63.6856 176.628 63.4085C176.824 63.1554 176.823 62.9534 176.823 62.7396C176.822 62.496 176.821 62.2442 177.104 61.9075C177.348 61.6151 177.322 61.3786 177.297 61.1499C177.273 60.9233 177.248 60.689 177.506 60.4308C177.517 60.4202 177.534 60.4202 177.545 60.4308C177.555 60.4415 177.555 60.4591 177.545 60.4698C177.305 60.7093 177.328 60.9204 177.352 61.144C177.377 61.3729 177.405 61.6325 177.146 61.9429C176.876 62.2642 176.877 62.5058 176.878 62.7394C176.878 62.953 176.879 63.1741 176.672 63.4421C176.473 63.6993 176.513 63.8931 176.555 64.0981C176.601 64.3255 176.649 64.5606 176.397 64.8919C176.17 65.178 176.189 65.4103 176.208 65.6347C176.227 65.8772 176.246 66.1063 175.969 66.3702C175.732 66.6196 175.752 66.8491 175.774 67.0919C175.796 67.3452 175.819 67.6069 175.545 67.8942C175.303 68.1728 175.328 68.4042 175.353 68.628C175.377 68.8532 175.403 69.0864 175.145 69.3448C174.888 69.6015 174.909 69.8579 174.931 70.1296C174.953 70.3923 174.976 70.6638 174.72 70.9198C174.487 71.164 174.501 71.4372 174.517 71.7267C174.533 72.0454 174.551 72.3753 174.245 72.6942C173.965 73.0001 174.006 73.2692 174.046 73.5296C174.083 73.7698 174.117 73.9968 173.895 74.2198C173.643 74.4712 173.652 74.7169 173.661 74.9546C173.668 75.1522 173.675 75.3392 173.52 75.4948C173.189 75.8253 173.164 76.261 173.273 76.4356C173.282 76.4485 173.278 76.4655 173.265 76.4735C173.26 76.4765 173.255 76.4778 173.25 76.4778Z" fill="black"/>
<path d="M180 77.8003C181.075 78.8003 183.15 78.1503 183.8 77.7003C184.475 77.9253 186.275 77.2253 186.75 76.4503C188.05 76.6253 188.5 74.7753 188.275 74.3003C187.925 73.6003 188.55 73.1503 188.1 72.6753C187.475 72.0753 188.45 71.5003 187.85 71.1003C187.25 70.6753 188 69.9753 187.4 69.5253C186.775 69.0503 187.725 68.4003 187.075 68.0753C186.425 67.7503 187.15 66.9003 186.6 66.5753C186.05 66.2503 186.925 65.4253 186.175 65.0503C185.45 64.6753 186.1 64.0253 185.525 63.7503C184.9 63.4253 185.475 62.7503 184.9 62.5253C184.25 62.2503 184.725 61.5253 184.175 61.3253C183.7 61.1503 184 60.7003 183.7 60.3003H180" fill="#1E9A1C"/>
<path d="M181.558 78.3598C180.979 78.3598 180.408 78.2172 179.981 77.8204C179.97 77.81 179.97 77.7926 179.98 77.7815C179.99 77.7704 180.008 77.7696 180.019 77.7801C181.087 78.7741 183.173 78.1014 183.785 77.6776C183.792 77.6729 183.801 77.6719 183.809 77.6741C184.458 77.8909 186.252 77.2104 186.727 76.4358C186.732 76.4266 186.742 76.4231 186.754 76.4229C187.316 76.4993 187.679 76.1807 187.883 75.9006C188.277 75.3614 188.376 74.5774 188.25 74.312C188.076 73.9624 188.138 73.6723 188.194 73.4165C188.251 73.1538 188.301 72.9268 188.08 72.6942C187.747 72.3741 187.854 72.0584 187.948 71.7801C188.034 71.5254 188.108 71.3055 187.835 71.1231C187.521 70.9008 187.56 70.6053 187.598 70.3196C187.636 70.0333 187.671 69.7629 187.384 69.5473C187.054 69.2965 187.143 68.9961 187.222 68.7311C187.299 68.4735 187.365 68.251 187.063 68.0999C186.708 67.9223 186.743 67.5997 186.777 67.2875C186.807 67.009 186.835 66.7459 186.586 66.5989C186.315 66.4383 186.37 66.16 186.423 65.8907C186.484 65.5838 186.547 65.2667 186.163 65.0749C185.764 64.8686 185.765 64.5774 185.767 64.3204C185.768 64.0932 185.769 63.8971 185.513 63.775C185.179 63.6014 185.172 63.328 185.166 63.0868C185.16 62.8547 185.155 62.6545 184.89 62.5508C184.537 62.4014 184.501 62.1202 184.469 61.8719C184.44 61.6409 184.414 61.4415 184.166 61.351C183.879 61.2454 183.858 61.0391 183.836 60.8208C183.82 60.6581 183.803 60.4901 183.686 60.3278H180C179.985 60.3278 179.973 60.3155 179.973 60.3002C179.973 60.285 179.985 60.2727 180 60.2727H183.7C183.709 60.2727 183.717 60.2768 183.722 60.2838C183.856 60.4618 183.874 60.6497 183.891 60.8153C183.913 61.0333 183.93 61.2055 184.185 61.2995C184.464 61.4012 184.495 61.637 184.524 61.8651C184.555 62.1098 184.588 62.3631 184.911 62.4999C185.209 62.6165 185.215 62.8549 185.221 63.0852C185.227 63.3223 185.234 63.5676 185.538 63.7258C185.824 63.8625 185.823 64.0954 185.821 64.3206C185.821 64.5737 185.819 64.8352 186.188 65.0258C186.609 65.2362 186.539 65.5895 186.477 65.9014C186.423 66.1747 186.376 66.411 186.614 66.5516C186.894 66.7167 186.862 67.0098 186.831 67.2934C186.798 67.6004 186.767 67.8903 187.088 68.0506C187.431 68.2225 187.352 68.4889 187.275 68.7467C187.197 69.0069 187.117 69.2758 187.417 69.5034C187.73 69.7381 187.69 70.0374 187.652 70.3268C187.615 70.6088 187.58 70.8752 187.866 71.0778C188.174 71.2831 188.089 71.5331 188 71.7977C187.907 72.0735 187.81 72.3586 188.119 72.6553C188.361 72.9102 188.306 73.1618 188.248 73.4282C188.194 73.675 188.133 73.9551 188.3 74.2879C188.448 74.6004 188.315 75.4036 187.928 75.9333C187.716 76.2223 187.343 76.5504 186.764 76.4797C186.259 77.2764 184.49 77.9428 183.805 77.7305C183.403 78.0032 182.472 78.3598 181.558 78.3598Z" fill="black"/>
<path d="M183.8 77.7278C183.79 77.7278 183.781 77.7226 183.776 77.7134C183.769 77.7001 183.774 77.6835 183.787 77.6761C183.84 77.647 183.875 77.5989 183.889 77.5331C183.94 77.3052 183.751 76.9112 183.553 76.6415C183.424 76.4655 183.466 76.2913 183.51 76.1065C183.565 75.8769 183.621 75.6392 183.379 75.3427C183.112 75.0333 183.16 74.6979 183.202 74.4019C183.238 74.154 183.269 73.9397 183.129 73.7677C182.965 73.5532 183.006 73.3151 183.049 73.063C183.094 72.8009 183.141 72.5296 182.953 72.2663C182.765 72.0163 182.825 71.781 182.882 71.5534C182.945 71.3038 183.004 71.0681 182.779 70.7927C182.519 70.4786 182.586 70.1927 182.645 69.9403C182.698 69.7169 182.747 69.506 182.578 69.2923C182.389 69.0646 182.438 68.8659 182.49 68.6556C182.545 68.4329 182.602 68.2028 182.402 67.8901C182.187 67.5868 182.251 67.3493 182.313 67.1198C182.377 66.8847 182.437 66.6626 182.204 66.3673C181.968 66.0536 182.024 65.7714 182.078 65.4983C182.131 65.231 182.181 64.9782 181.978 64.6911C181.748 64.3667 181.803 64.1634 181.856 63.9669C181.904 63.7858 181.951 63.6147 181.801 63.3384C181.639 63.0388 181.701 62.8368 181.755 62.6587C181.814 62.4677 181.865 62.303 181.654 62.0427C181.437 61.788 181.503 61.5808 181.566 61.3804C181.632 61.1692 181.701 60.9509 181.478 60.6413C181.469 60.629 181.472 60.6118 181.484 60.603C181.496 60.594 181.514 60.597 181.522 60.6093C181.761 60.9411 181.685 61.1833 181.618 61.3968C181.554 61.6001 181.499 61.7757 181.696 62.0075C181.926 62.2911 181.869 62.4774 181.808 62.6747C181.754 62.8509 181.698 63.0329 181.849 63.3122C182.01 63.6079 181.958 63.7976 181.909 63.9812C181.857 64.1739 181.808 64.356 182.023 64.6595C182.24 64.9657 182.185 65.2419 182.132 65.5091C182.078 65.7821 182.027 66.0401 182.247 66.3339C182.498 66.6503 182.431 66.8962 182.367 67.1341C182.305 67.3614 182.247 67.5761 182.448 67.8595C182.661 68.1933 182.599 68.4458 182.544 68.6687C182.493 68.8737 182.449 69.0507 182.621 69.2577C182.807 69.4927 182.752 69.7267 182.699 69.9528C182.64 70.2044 182.579 70.4646 182.821 70.7577C183.064 71.0546 182.999 71.3151 182.935 71.5669C182.879 71.7919 182.825 72.0044 182.997 72.2339C183.199 72.5163 183.15 72.7989 183.103 73.0724C183.062 73.3122 183.023 73.539 183.172 73.7335C183.327 73.9237 183.293 74.1599 183.257 74.4097C183.214 74.7079 183.17 75.0163 183.421 75.3073C183.681 75.6253 183.619 75.8878 183.563 76.1194C183.52 76.2987 183.483 76.4536 183.597 76.6091C183.809 76.8976 183.998 77.2991 183.943 77.5452C183.925 77.6271 183.881 77.6874 183.813 77.7245C183.809 77.7267 183.805 77.7278 183.8 77.7278ZM186.75 76.4778C186.745 76.4778 186.74 76.4765 186.735 76.4735C186.723 76.4655 186.719 76.4485 186.727 76.4356C186.836 76.261 186.811 75.8253 186.481 75.4948C186.325 75.3392 186.332 75.1522 186.339 74.9546C186.348 74.7169 186.357 74.4712 186.106 74.2198C185.883 73.9968 185.918 73.7698 185.954 73.5296C185.994 73.2692 186.035 73.0001 185.755 72.6938C185.45 72.3753 185.467 72.0454 185.484 71.7267C185.499 71.4372 185.513 71.164 185.28 70.9192C185.025 70.6638 185.047 70.3923 185.069 70.1296C185.091 69.8579 185.112 69.6015 184.856 69.3448C184.597 69.0864 184.623 68.8532 184.648 68.628C184.672 68.4042 184.697 68.1728 184.454 67.8933C184.181 67.6069 184.204 67.3452 184.227 67.0919C184.248 66.8491 184.269 66.6196 184.03 66.3692C183.754 66.1063 183.773 65.8772 183.793 65.6347C183.811 65.4103 183.83 65.178 183.604 64.8923C183.351 64.5606 183.399 64.3255 183.446 64.0981C183.488 63.8931 183.527 63.6993 183.328 63.4421C183.121 63.1741 183.122 62.953 183.123 62.7394C183.123 62.5058 183.124 62.2642 182.854 61.9431C182.595 61.6325 182.623 61.3729 182.648 61.144C182.672 60.9204 182.695 60.7093 182.456 60.4698C182.445 60.4591 182.445 60.4415 182.456 60.4308C182.467 60.4202 182.484 60.4202 182.495 60.4308C182.753 60.689 182.727 60.9233 182.703 61.1499C182.678 61.3786 182.652 61.6151 182.896 61.9077C183.179 62.2442 183.178 62.496 183.177 62.7396C183.177 62.9534 183.176 63.1554 183.372 63.4085C183.586 63.6856 183.542 63.9009 183.5 64.1091C183.456 64.3245 183.41 64.5472 183.647 64.8587C183.886 65.161 183.866 65.4149 183.847 65.6392C183.828 65.8782 183.811 66.0847 184.069 66.3304C184.326 66.5997 184.303 66.8524 184.281 67.0968C184.259 67.3489 184.238 67.587 184.495 67.8563C184.755 68.155 184.728 68.3983 184.702 68.6339C184.678 68.8562 184.655 69.0661 184.895 69.3058C185.169 69.5806 185.146 69.862 185.124 70.1341C185.102 70.3958 185.082 70.6429 185.32 70.8808C185.569 71.1433 185.554 71.4413 185.539 71.7294C185.522 72.0366 185.506 72.3544 185.795 72.6563C186.094 72.9823 186.049 73.2774 186.009 73.538C185.973 73.7739 185.941 73.9776 186.145 74.1808C186.413 74.4493 186.403 74.7188 186.394 74.9565C186.387 75.1501 186.381 75.3173 186.52 75.4558C186.84 75.7767 186.911 76.245 186.773 76.4649C186.768 76.4731 186.759 76.4778 186.75 76.4778Z" fill="black"/>
<path d="M180 77.8278C179.985 77.8278 179.973 77.8155 179.973 77.8002V60.3002C179.973 60.285 179.985 60.2727 180 60.2727C180.015 60.2727 180.028 60.285 180.028 60.3002V77.8002C180.028 77.8155 180.015 77.8278 180 77.8278Z" fill="#1E9A1C"/>
<path d="M179.998 77.8277C179.996 77.8277 179.993 77.8273 179.99 77.8264C179.976 77.8217 179.968 77.8062 179.972 77.7918C180.101 77.3931 180.034 77.1101 179.969 76.8363C179.894 76.5238 179.824 76.2285 180.023 75.7889C180.203 75.3824 180.083 75.1365 179.967 74.8988C179.843 74.6445 179.726 74.4043 179.975 74.0105C180.218 73.6267 180.132 73.2969 180.033 72.9148C179.942 72.5676 179.839 72.1738 179.972 71.6681C180.088 71.2369 180.012 70.9603 179.938 70.6928C179.852 70.3863 179.772 70.0969 179.973 69.6146C180.171 69.1262 180.079 68.749 179.991 68.3842C179.915 68.0695 179.842 67.7723 179.973 67.4402C180.116 67.0762 180.065 66.7689 180.016 66.4719C179.972 66.2049 179.926 65.9289 180.022 65.6172C180.098 65.3349 180.033 65.1162 179.965 64.8846C179.879 64.5928 179.79 64.291 179.973 63.8398C180.14 63.4156 180.072 62.9834 179.999 62.5256C179.932 62.1021 179.863 61.6644 179.972 61.1939C179.975 61.1793 179.989 61.1689 180.005 61.1734C180.019 61.1767 180.029 61.1916 180.025 61.2064C179.919 61.6664 179.988 62.0988 180.054 62.517C180.127 62.9824 180.197 63.4219 180.024 63.8603C179.848 64.2939 179.934 64.5863 180.018 64.8689C180.085 65.0976 180.155 65.3342 180.075 65.6324C179.983 65.9326 180.025 66.1902 180.07 66.4629C180.121 66.7674 180.172 67.0822 180.024 67.4601C179.9 67.7762 179.97 68.0652 180.044 68.3713C180.131 68.7271 180.229 69.1305 180.024 69.6355C179.83 70.1006 179.908 70.381 179.99 70.6781C180.067 70.9527 180.145 71.2367 180.025 71.6824C179.896 72.174 179.997 72.5601 180.086 72.901C180.189 73.2955 180.278 73.6361 180.022 74.0398C179.789 74.4078 179.894 74.6242 180.016 74.8746C180.132 75.1121 180.263 75.3812 180.074 75.8113C179.881 76.234 179.95 76.5205 180.022 76.8236C180.089 77.1047 180.158 77.3953 180.025 77.8086C180.021 77.8203 180.01 77.8277 179.998 77.8277Z" fill="black"/>
<path d="M180.375 64.35C180.25 64.625 180.75 65.275 180.475 65.775C180.175 66.25 180.625 67 180.325 67.6C180.025 68.2 180.8 68.95 180.5 69.65C180.175 70.35 180.65 71.225 180.5 71.875C180.375 72.525 180.825 73.775 180.5 74.225C180.175 74.7 180.825 74.825 180.45 75.975C180.075 77.125 179.825 76.15 180.05 75.8C180.525 75.025 179.525 74.775 180 74.025C180.475 73.275 179.725 72.725 180 71.675C180.25 70.75 179.625 70.525 180 69.625C180.375 68.7 179.725 68.15 180 67.45C180.275 66.75 179.85 66.275 180.05 65.625C180.225 64.975 179.675 64.65 180 63.85C180.25 63.05 180.5 64.075 180.375 64.35ZM178.275 65.15C178.1 65.45 178.575 66.025 178.15 66.6C177.85 67 178.35 67.475 177.925 68.05C177.65 68.45 178.2 68.95 177.825 69.525C177.575 69.85 178 70.475 177.7 70.95C177.4 71.45 177.85 71.85 177.325 72.5C177.025 72.85 177.55 73.725 177.225 74C176.9 74.275 177.2 75.35 176.975 75.5C176.775 75.675 176.975 76.45 176.425 76.625C176.7 76.25 176.15 75.875 176.6 75.325C177.075 74.775 176.525 74.15 176.85 73.75C177.175 73.325 176.65 72.775 177.025 72.25C177.4 71.75 176.75 71.325 177.2 70.775C177.675 70.2 177.025 69.75 177.4 69.275C177.775 68.825 177.175 68.5 177.575 67.875C178 67.275 177.3 66.95 177.775 66.35C178.225 65.75 177.575 65.275 178 64.675C178.425 64.075 177.85 63.925 178.175 63.325C178.775 63.55 178.475 64.85 178.275 65.15ZM177.025 63.525C176.775 63.925 177.125 64.4 176.75 64.9C176.375 65.425 176.75 66.075 176.375 66.5C176 66.9 176.475 67.7 176 68.025C175.525 68.35 175.825 69.325 175.45 69.65C175.075 69.975 175.45 70.9 175.025 71.375C174.6 71.85 174.8 72.825 174.55 73.05C174.325 73.275 174.875 73.75 174.475 74.075C174.05 74.4 174.05 75.05 173.5 75.475C173.825 75.15 173.4 74.675 173.875 74.2C174.325 73.75 173.675 73.275 174.225 72.675C174.8 72.075 174.2 71.425 174.7 70.9C175.2 70.4 174.6 69.85 175.125 69.325C175.625 68.825 175.025 68.45 175.525 67.875C176.05 67.325 175.45 66.875 175.95 66.35C176.475 65.85 175.9 65.475 176.375 64.875C176.85 64.25 176.225 63.975 176.65 63.425C176.85 63.175 176.85 62.95 176.85 62.75C177.15 61.975 177.15 63.325 177.025 63.525Z" fill="#FDD406"/>
<path d="M176.425 76.6527C176.417 76.6527 176.408 76.6486 176.403 76.6411C176.396 76.6316 176.396 76.6185 176.403 76.6089C176.517 76.4535 176.48 76.2986 176.437 76.1193C176.382 75.8876 176.319 75.6251 176.579 75.3077C176.831 75.0161 176.786 74.7077 176.744 74.4095C176.708 74.1597 176.674 73.9236 176.829 73.7327C176.977 73.5388 176.938 73.312 176.897 73.0722C176.85 72.7988 176.801 72.5161 177.003 72.2341C177.175 72.0042 177.122 71.7917 177.065 71.5667C177.002 71.315 176.936 71.0544 177.179 70.7577C177.421 70.4644 177.36 70.2042 177.301 69.9527C177.248 69.7265 177.194 69.4925 177.379 69.2581C177.552 69.0505 177.508 68.8736 177.457 68.6685C177.402 68.4456 177.339 68.1931 177.552 67.8603C177.754 67.5759 177.695 67.3613 177.634 67.1339C177.569 66.896 177.503 66.6501 177.754 66.3331C177.973 66.04 177.922 65.782 177.868 65.5089C177.815 65.2417 177.761 64.9656 177.978 64.6593C178.193 64.3558 178.144 64.1738 178.092 63.981C178.042 63.7974 177.991 63.6077 178.151 63.312C178.157 63.2999 178.173 63.2951 178.185 63.2993C178.335 63.3556 178.441 63.4785 178.501 63.6642C178.654 64.1374 178.461 64.9197 178.299 65.1646C178.235 65.2749 178.267 65.4327 178.304 65.6156C178.363 65.9029 178.436 66.2603 178.172 66.6165C178.042 66.79 178.07 66.9767 178.103 67.1927C178.141 67.4515 178.185 67.7447 177.947 68.0665C177.828 68.2396 177.873 68.4327 177.926 68.6564C177.987 68.9204 178.057 69.2197 177.848 69.5402C177.736 69.6863 177.768 69.9046 177.803 70.1359C177.842 70.4031 177.887 70.7058 177.723 70.9648C177.598 71.1736 177.609 71.3663 177.62 71.5704C177.634 71.8378 177.651 72.1408 177.347 72.5173C177.206 72.6818 177.259 72.979 177.31 73.2663C177.366 73.5781 177.419 73.8724 177.243 74.021C177.075 74.1628 177.084 74.5466 177.092 74.8853C177.099 75.1865 177.105 75.4466 176.99 75.523C176.928 75.5783 176.909 75.7177 176.887 75.879C176.848 76.1714 176.798 76.5353 176.434 76.6513C176.431 76.6523 176.428 76.6527 176.425 76.6527ZM178.188 63.3599C178.052 63.6236 178.097 63.7904 178.145 63.9667C178.198 64.1632 178.253 64.3665 178.023 64.691C177.819 64.9781 177.869 65.2308 177.922 65.4982C177.976 65.7712 178.032 66.0535 177.797 66.3665C177.563 66.6624 177.623 66.8845 177.687 67.1197C177.749 67.3492 177.813 67.5867 177.598 67.891C177.398 68.2027 177.455 68.4327 177.51 68.6554C177.562 68.8658 177.612 69.0644 177.421 69.2927C177.253 69.5058 177.303 69.7167 177.355 69.9402C177.414 70.1925 177.481 70.4785 177.221 70.7927C176.996 71.0679 177.056 71.3036 177.118 71.5533C177.176 71.7808 177.235 72.0161 177.047 72.2665C176.859 72.5294 176.906 72.8007 176.951 73.0628C176.995 73.315 177.036 73.5531 176.872 73.7669C176.732 73.9396 176.762 74.1538 176.798 74.4017C176.84 74.6978 176.889 75.0331 176.621 75.3431C176.379 75.639 176.436 75.8767 176.491 76.1064C176.529 76.266 176.565 76.4177 176.491 76.5695C176.756 76.4408 176.796 76.1398 176.833 75.8718C176.856 75.6993 176.876 75.5503 176.957 75.4794C177.049 75.4175 177.044 75.1597 177.037 74.8867C177.029 74.5357 177.02 74.1378 177.207 73.9792C177.359 73.8507 177.309 73.5716 177.256 73.2761C177.203 72.9761 177.147 72.6658 177.304 72.4822C177.595 72.1226 177.579 71.8435 177.565 71.5736C177.553 71.3607 177.542 71.1597 177.677 70.9361C177.83 70.6937 177.788 70.4142 177.748 70.1439C177.712 69.9009 177.678 69.6712 177.803 69.5083C177.998 69.2093 177.934 68.9345 177.872 68.6689C177.819 68.4423 177.769 68.2285 177.903 68.0345C178.127 67.7302 178.087 67.4613 178.048 67.2009C178.015 66.9822 177.984 66.7753 178.128 66.5837C178.377 66.2472 178.31 65.9175 178.25 65.6265C178.211 65.4324 178.177 65.2646 178.251 65.1363C178.252 65.1359 178.252 65.1353 178.252 65.1349C178.406 64.9044 178.595 64.1322 178.449 63.6812C178.398 63.5216 178.31 63.4138 178.188 63.3599ZM180.117 76.5472C180.086 76.5472 180.044 76.5327 180.008 76.4745C179.915 76.3277 179.906 75.9736 180.027 75.7853C180.257 75.4101 180.132 75.1687 179.999 74.913C179.868 74.6595 179.732 74.3974 179.977 74.0105C180.22 73.6267 180.134 73.2968 180.034 72.9148C179.944 72.5675 179.841 72.1738 179.974 71.6681C180.09 71.2368 180.013 70.9603 179.939 70.6927C179.854 70.3863 179.774 70.0968 179.975 69.6146C180.173 69.1261 180.081 68.749 179.993 68.3841C179.916 68.0695 179.844 67.7722 179.975 67.4402C180.118 67.0761 180.067 66.7689 180.018 66.4718C179.974 66.2048 179.928 65.9288 180.024 65.6171C180.1 65.3349 180.035 65.1161 179.967 64.8845C179.88 64.5927 179.791 64.291 179.975 63.8398C180.036 63.6421 180.104 63.5384 180.179 63.5245C180.208 63.5206 180.252 63.5251 180.297 63.5829C180.418 63.7388 180.478 64.19 180.4 64.3615C180.353 64.4652 180.406 64.6367 180.467 64.8355C180.556 65.1243 180.667 65.4839 180.499 65.7884C180.355 66.0167 180.39 66.3136 180.426 66.6279C180.465 66.9593 180.505 67.3021 180.35 67.6124C180.207 67.8972 180.317 68.2201 180.433 68.5617C180.555 68.9224 180.682 69.2956 180.525 69.6609C180.344 70.0511 180.417 70.4993 180.487 70.9329C180.541 71.2734 180.593 71.5949 180.527 71.8814C180.475 72.1525 180.526 72.5423 180.576 72.9193C180.645 73.4378 180.716 73.9738 180.522 74.2411C180.386 74.4402 180.429 74.5681 180.495 74.762C180.576 75.004 180.688 75.3353 180.476 75.9837C180.359 76.3431 180.243 76.5324 180.131 76.5462C180.127 76.5468 180.122 76.5472 180.117 76.5472ZM180.196 63.5781C180.193 63.5781 180.191 63.5783 180.189 63.5786C180.165 63.5831 180.101 63.6191 180.026 63.8583C179.85 64.2939 179.936 64.5863 180.02 64.8689C180.087 65.0976 180.157 65.3341 180.077 65.6324C179.984 65.9326 180.027 66.1902 180.072 66.4628C180.122 66.7673 180.174 67.0822 180.026 67.4601C179.902 67.7761 179.972 68.0652 180.046 68.3712C180.133 68.7271 180.23 69.1304 180.026 69.6355C179.832 70.1005 179.91 70.381 179.992 70.6781C180.068 70.9527 180.147 71.2367 180.027 71.6824C179.898 72.174 179.999 72.5601 180.087 72.9009C180.19 73.2954 180.279 73.6361 180.023 74.0398C179.795 74.4001 179.918 74.637 180.048 74.8878C180.182 75.1456 180.32 75.4122 180.074 75.8146C179.965 75.9831 179.971 76.3126 180.054 76.4452C180.076 76.4792 180.099 76.4933 180.124 76.4917C180.164 76.4867 180.274 76.4255 180.424 75.9665C180.63 75.3355 180.522 75.0142 180.443 74.7796C180.377 74.5853 180.326 74.4318 180.478 74.2095C180.658 73.9593 180.589 73.4343 180.522 72.9265C180.471 72.5452 180.419 72.1509 180.473 71.8699C180.537 71.5929 180.486 71.2767 180.432 70.9417C180.361 70.4999 180.287 70.0433 180.475 69.6386C180.623 69.2933 180.5 68.9304 180.381 68.5794C180.261 68.2265 180.148 67.8933 180.301 67.5878C180.448 67.2921 180.409 66.9577 180.372 66.6343C180.334 66.3101 180.298 66.0038 180.452 65.7605C180.607 65.4779 180.505 65.1451 180.414 64.8515C180.35 64.6421 180.294 64.4615 180.35 64.3388C180.421 64.1835 180.364 63.7583 180.253 63.6167C180.233 63.5911 180.214 63.5781 180.196 63.5781ZM173.5 75.5027C173.493 75.5027 173.485 75.4995 173.479 75.4933C173.47 75.4824 173.47 75.466 173.481 75.4556C173.619 75.3171 173.613 75.1499 173.606 74.9564C173.597 74.7187 173.587 74.4492 173.856 74.1806C174.059 73.9775 174.028 73.7738 173.992 73.5378C173.952 73.2773 173.906 72.9822 174.205 72.6566C174.495 72.3542 174.478 72.0365 174.462 71.7292C174.446 71.4411 174.431 71.1431 174.68 70.8812C174.919 70.6427 174.898 70.3956 174.877 70.1339C174.854 69.8618 174.831 69.5804 175.106 69.3056C175.345 69.066 175.322 68.856 175.298 68.6337C175.272 68.3982 175.246 68.1548 175.504 67.8572C175.762 67.5868 175.741 67.3488 175.719 67.0966C175.697 66.8523 175.675 66.5995 175.93 66.3312C176.189 66.0845 176.172 65.8781 176.153 65.639C176.135 65.4148 176.114 65.1609 176.354 64.8581C176.59 64.547 176.545 64.3243 176.501 64.1089C176.458 63.9007 176.414 63.6855 176.629 63.4083C176.823 63.1656 176.823 62.9449 176.823 62.7501C176.823 62.7468 176.823 62.7433 176.825 62.7402C176.91 62.5206 176.963 62.4884 177.001 62.4851C177.018 62.4835 177.046 62.4892 177.069 62.5267C177.171 62.6913 177.14 63.3931 177.048 63.5398C176.94 63.7128 176.949 63.9038 176.959 64.1062C176.971 64.3536 176.984 64.6341 176.772 64.9165C176.59 65.1714 176.59 65.4593 176.59 65.7376C176.59 66.0259 176.59 66.298 176.396 66.5183C176.226 66.6995 176.238 66.9751 176.251 67.2415C176.264 67.5493 176.279 67.8677 176.016 68.0478C175.774 68.2134 175.741 68.5636 175.709 68.9023C175.68 69.2156 175.652 69.5115 175.468 69.6708C175.296 69.8204 175.29 70.1152 175.285 70.4271C175.278 70.7781 175.271 71.1411 175.046 71.3935C174.812 71.6542 174.772 72.0677 174.737 72.4326C174.71 72.7183 174.686 72.9652 174.569 73.0706C174.484 73.1552 174.529 73.2888 174.58 73.4435C174.649 73.6472 174.734 73.9007 174.493 74.0964C174.298 74.2452 174.193 74.4667 174.082 74.7013C173.951 74.9794 173.814 75.2669 173.517 75.4968C173.512 75.5007 173.506 75.5027 173.5 75.5027ZM176.878 62.7552C176.878 62.9577 176.876 63.1868 176.672 63.4423C176.473 63.6992 176.513 63.8929 176.555 64.098C176.601 64.3253 176.649 64.5605 176.397 64.8917C176.17 65.1779 176.189 65.4101 176.208 65.6345C176.228 65.8771 176.246 66.1062 175.969 66.3701C175.732 66.6195 175.752 66.849 175.774 67.0917C175.796 67.3451 175.819 67.6068 175.545 67.8941C175.303 68.1726 175.328 68.404 175.353 68.6279C175.378 68.8531 175.403 69.0863 175.145 69.3447C174.888 69.6013 174.909 69.8577 174.931 70.1294C174.953 70.3921 174.976 70.6636 174.72 70.9197C174.487 71.1638 174.501 71.437 174.517 71.7265C174.533 72.0452 174.551 72.3751 174.245 72.6941C173.965 72.9999 174.006 73.2691 174.046 73.5294C174.083 73.7697 174.118 73.9966 173.895 74.2197C173.643 74.471 173.652 74.7167 173.661 74.9544C173.666 75.0839 173.67 75.2085 173.629 75.323C173.82 75.1265 173.928 74.899 174.033 74.6777C174.146 74.437 174.254 74.2097 174.458 74.0533C174.669 73.882 174.598 73.6679 174.528 73.4609C174.473 73.296 174.421 73.1406 174.531 73.0306C174.633 72.9386 174.656 72.7017 174.682 72.4273C174.719 72.054 174.759 71.631 175.005 71.3568C175.217 71.1197 175.223 70.7671 175.229 70.4259C175.236 70.1015 175.241 69.7951 175.432 69.6294C175.599 69.4845 175.626 69.1992 175.654 68.897C175.687 68.5458 175.721 68.1826 175.985 68.0025C176.223 67.8396 176.209 67.5503 176.195 67.2441C176.183 66.9661 176.17 66.6788 176.355 66.4814C176.535 66.2773 176.535 66.0152 176.535 65.7376C176.535 65.4505 176.535 65.1538 176.728 64.8841C176.928 64.6169 176.916 64.3587 176.904 64.1087C176.894 63.8976 176.885 63.6982 177.002 63.5105C177.083 63.3814 177.112 62.7017 177.022 62.5556C177.02 62.5517 177.014 62.5417 177.006 62.5398C177.001 62.5402 176.958 62.5499 176.878 62.7552Z" fill="black"/>
<path d="M176.523 60.8753C176.523 55.6253 177.248 53.8003 179.998 53.8003C182.748 53.8003 183.473 55.6253 183.473 60.8753H176.523Z" fill="#D91C16"/>
<path d="M183.474 60.9028H176.524C176.508 60.9028 176.496 60.8905 176.496 60.8752C176.496 55.4322 177.314 53.7727 179.999 53.7727C182.683 53.7727 183.501 55.4322 183.501 60.8752C183.501 60.8905 183.489 60.9028 183.474 60.9028ZM176.551 60.8477H183.446C183.443 55.4689 182.636 53.8278 179.999 53.8278C177.361 53.8278 176.554 55.4689 176.551 60.8477Z" fill="black"/>
<path d="M176.523 60.8753C176.523 55.6253 177.248 53.8003 179.998 53.8003C178.748 53.8003 177.973 54.7753 177.773 55.4253C177.548 56.0753 177.673 56.0253 177.948 55.7753C178.223 55.5253 178.098 56.0753 177.848 56.3753C177.623 56.6753 177.398 57.5503 177.723 57.2753C178.048 56.9753 178.298 57.3003 177.948 57.8003C177.598 58.2753 177.298 59.4253 177.648 59.0253C177.998 58.6253 178.073 59.2753 177.848 59.6003C177.648 59.9253 177.673 60.2253 177.848 60.0753C178.048 59.9253 178.023 60.6003 177.848 60.8753H176.523ZM181.298 60.7753C181.298 60.0003 181.323 58.1753 180.898 57.5753C180.598 57.1003 180.598 56.6003 180.948 57.1503C181.298 57.7003 181.473 57.4253 181.223 56.8753C180.923 56.1753 180.523 55.4003 180.623 55.2503C180.748 55.0753 180.823 55.1503 181.073 55.5253C181.323 55.9003 181.373 55.3503 181.098 54.9753C180.823 54.6253 180.848 54.5503 181.423 54.8003C182.448 55.2253 182.948 56.4503 182.948 60.5753L181.298 60.7753Z" fill="black"/>
<path d="M177.849 60.9028H176.524C176.508 60.9028 176.496 60.8905 176.496 60.8752C176.496 55.4322 177.314 53.7727 179.999 53.7727C180.014 53.7727 180.026 53.785 180.026 53.8002C180.026 53.8155 180.014 53.8278 179.999 53.8278C178.757 53.8278 177.991 54.8125 177.8 55.4333C177.655 55.8531 177.682 55.9111 177.694 55.9189C177.704 55.9257 177.746 55.9219 177.93 55.7549C178.008 55.684 178.066 55.6662 178.104 55.7021C178.196 55.7899 178.045 56.1827 177.87 56.3928C177.682 56.6426 177.531 57.2224 177.609 57.2955C177.622 57.3091 177.659 57.2938 177.706 57.2542C177.87 57.1023 178.004 57.1136 178.073 57.1747C178.177 57.2652 178.189 57.5044 177.971 57.816C177.668 58.2271 177.459 59.0205 177.534 59.08C177.538 59.0824 177.565 59.0792 177.628 59.0072C177.772 58.8425 177.864 58.857 177.917 58.8976C178.051 59.0023 178.027 59.3917 177.871 59.6159C177.724 59.8555 177.717 60.0503 177.755 60.083C177.769 60.0941 177.797 60.0832 177.831 60.0543C177.894 60.0071 177.936 60.0301 177.955 60.0482C178.067 60.1516 178.016 60.6631 177.872 60.8901C177.867 60.8979 177.858 60.9028 177.849 60.9028ZM176.551 60.8477H177.833C177.974 60.6122 177.995 60.1602 177.918 60.0885C177.912 60.0834 177.899 60.0714 177.865 60.0972C177.788 60.163 177.741 60.1429 177.72 60.1248C177.639 60.0561 177.688 59.8093 177.825 59.5858C177.972 59.3731 177.985 59.0205 177.883 58.9411C177.819 58.8905 177.721 58.9836 177.669 59.0433C177.642 59.0749 177.558 59.1702 177.499 59.1229C177.371 59.0201 177.643 58.1691 177.927 57.7839C178.116 57.5133 178.126 57.2933 178.037 57.2161C177.971 57.1586 177.858 57.1883 177.742 57.2955C177.667 57.359 177.61 57.3724 177.571 57.3355C177.448 57.2197 177.654 56.5885 177.827 56.3587C178.018 56.1288 178.113 55.7866 178.066 55.7417C178.058 55.7342 178.025 55.7427 177.967 55.7956C177.791 55.9558 177.715 55.9988 177.663 55.9648C177.612 55.9307 177.606 55.8244 177.748 55.4163C177.907 54.8986 178.458 54.1325 179.345 53.8672C177.225 54.1452 176.554 55.9417 176.551 60.8477ZM181.299 60.8028C181.292 60.8028 181.286 60.8002 181.28 60.7958C181.274 60.7907 181.271 60.7831 181.271 60.7752L181.271 60.6522C181.272 59.8414 181.275 58.1542 180.876 57.5912C180.686 57.2902 180.596 56.9505 180.69 56.8911C180.751 56.8524 180.843 56.9325 180.972 57.1355C181.139 57.3981 181.242 57.4376 181.278 57.4182C181.33 57.3897 181.342 57.201 181.199 56.8867C181.129 56.7235 181.053 56.5563 180.98 56.3947C180.692 55.7548 180.52 55.3566 180.601 55.235C180.635 55.187 180.681 55.1329 180.742 55.1329C180.743 55.1329 180.743 55.133 180.744 55.133C180.836 55.1344 180.926 55.2548 181.096 55.51C181.154 55.5959 181.199 55.6259 181.217 55.6231C181.226 55.6224 181.234 55.6145 181.241 55.5997C181.284 55.5055 181.24 55.2149 181.076 54.9916C180.919 54.7906 180.876 54.7016 180.914 54.6524C180.952 54.603 181.049 54.6076 181.435 54.775C182.411 55.1797 182.976 56.2587 182.976 60.5752C182.976 60.5891 182.966 60.6008 182.952 60.6026L181.302 60.8026C181.301 60.8026 181.3 60.8028 181.299 60.8028ZM180.721 56.9374C180.72 56.9374 180.719 56.9375 180.719 56.9375C180.679 56.9632 180.726 57.2505 180.922 57.5606C181.33 58.1367 181.328 59.8358 181.326 60.6524V60.7442L182.921 60.5508C182.919 56.2853 182.366 55.2209 181.413 54.8256C181.032 54.6601 180.968 54.6731 180.957 54.686C180.951 54.6937 180.946 54.7361 181.12 54.9583C181.288 55.1866 181.348 55.497 181.291 55.6225C181.271 55.6653 181.242 55.6762 181.221 55.6779C181.171 55.6835 181.115 55.6372 181.051 55.5405C180.918 55.3414 180.811 55.189 180.743 55.1879H180.742C180.715 55.1879 180.684 55.2128 180.646 55.2663C180.578 55.3679 180.808 55.8784 181.031 56.372C181.104 56.5339 181.179 56.7013 181.249 56.8644C181.385 57.1627 181.407 57.4105 181.304 57.4666C181.214 57.515 181.08 57.4079 180.925 57.165C180.788 56.9494 180.731 56.9374 180.721 56.9374Z" fill="black"/>
<path d="M179.999 61.6252C178.899 61.6252 177.699 61.4502 176.899 61.1252C175.949 60.7502 175.899 60.4252 176.224 60.0252C176.474 59.7252 176.974 59.9002 177.474 60.1252C177.949 60.3252 179.299 60.4752 179.999 60.4752C180.699 60.4752 182.049 60.3252 182.524 60.1002C183.024 59.9002 183.524 59.7252 183.774 60.0252C184.099 60.4252 184.049 60.7502 183.099 61.1252C182.299 61.4502 181.099 61.6252 179.999 61.6252Z" fill="#D91C16"/>
<path d="M179.999 61.6528C178.843 61.6528 177.651 61.4604 176.889 61.1507C176.36 60.9421 176.087 60.7405 176.028 60.5161C175.988 60.3649 176.044 60.2036 176.203 60.0079C176.474 59.6824 177.007 59.8849 177.485 60.1002C177.964 60.3017 179.319 60.4477 179.999 60.4477C180.687 60.4477 182.04 60.2993 182.512 60.0755C183.043 59.8634 183.538 59.6991 183.795 60.0077C183.954 60.2036 184.01 60.3649 183.97 60.5161C183.912 60.7405 183.638 60.9421 183.109 61.1509C182.347 61.4604 181.155 61.6528 179.999 61.6528ZM176.603 59.8919C176.454 59.8919 176.333 59.9372 176.245 60.0429C176.099 60.2235 176.046 60.3694 176.081 60.502C176.135 60.7081 176.398 60.8979 176.909 61.0997C177.666 61.4069 178.85 61.5977 179.999 61.5977C181.149 61.5977 182.333 61.4069 183.089 61.0999C183.6 60.8979 183.863 60.7081 183.917 60.502C183.952 60.3694 183.9 60.2235 183.753 60.0427C183.52 59.7627 183.043 59.9223 182.534 60.1258C182.057 60.3522 180.692 60.5028 179.999 60.5028C179.315 60.5028 177.949 60.355 177.463 60.1507C177.119 59.9958 176.828 59.8919 176.603 59.8919Z" fill="black"/>
<defs>
<clipPath id="clip0_421_2689">
<rect width="120" height="60" fill="white"/>
</clipPath>
</defs>
</svg>
