<svg width="240" height="120" viewBox="0 0 240 120" fill="none" xmlns="http://www.w3.org/2000/svg">
<g clip-path="url(#clip0_307_30608)">
<path d="M240 0H0V120H240V0Z" fill="#1E9A1C"/>
<path d="M75.1253 16.604L75.7715 14.6153H77.8625L76.1708 13.3862L76.8169 11.3975L75.1252 12.6265L73.4335 11.3975L74.0797 13.3861L72.388 14.6153H74.4791L75.1253 16.604Z" fill="white"/>
<path d="M98.4136 27.0341C98.4136 20.8787 94.6863 15.5926 89.3663 13.3085C92.748 16.1913 94.8142 20.5467 94.6054 25.3289C94.2458 33.5658 87.2743 39.9539 79.0374 39.5943C77.1814 39.5133 75.4196 39.0955 73.8073 38.4041C76.4136 40.6242 79.7916 41.9651 83.4827 41.9651C91.7274 41.9651 98.4136 35.2789 98.4136 27.0341Z" fill="white"/>
<path d="M75.7715 22.2953L75.1253 24.284L74.4791 22.2953H72.388L74.0797 21.0662L73.4335 19.0775L75.1252 20.3065L76.8169 19.0775L76.1708 21.0662L77.8625 22.2953H75.7715Z" fill="white"/>
<path d="M83.3589 18.5509L82.7127 20.5396L82.0665 18.5509H79.9754L81.6671 17.3217L81.0209 15.3331L82.7126 16.5621L84.4043 15.3331L83.7582 17.3218L85.4499 18.5509H83.3589Z" fill="white"/>
<path d="M67.5381 28.0284L68.1843 26.0396H70.2753L68.5836 24.8106L69.2297 22.8218L67.538 24.0509L65.8463 22.8218L66.4925 24.8105L64.8008 26.0396H66.8919L67.5381 28.0284Z" fill="white"/>
<path d="M75.7715 29.9752L75.1253 31.964L74.4791 29.9752H72.388L74.0797 28.7461L73.4335 26.7574L75.1252 27.9865L76.8169 26.7574L76.1708 28.7462L77.8625 29.9752H75.7715Z" fill="white"/>
<path d="M53.9996 0H21.5996V120H53.9996V0Z" fill="#D91C16"/>
<path d="M29.5252 0H28.4023L26.4108 1.82194L25.6164 1.08041H26.3473L26.2096 0.24355H24.9384L22.4278 2.59527V3.49569H23.5401V2.74358L24.1121 3.26264L22.8092 4.47027L23.4236 5.05288L21.6016 6.7478V7.92366L24.6842 5.05288L24.0698 4.47027L25.3621 3.26264L24.2498 2.22451L24.9914 1.54654L26.4108 2.8601L29.5252 0Z" fill="black"/>
<path d="M26.7572 0H27.4672L26.8558 0.571948L26.7572 0Z" fill="black"/>
<path d="M21.6016 0H23.6989L23.0846 0.624923H22.3219V1.48296L21.6016 2.21389V0Z" fill="black"/>
<path d="M26.8527 0H27.3401L26.9196 0.391831L26.8527 0Z" fill="#FDD406"/>
<path d="M21.6019 0H23.5827L23.0531 0.529548H22.2374V1.45114L21.6019 2.08674V0Z" fill="#FDD406"/>
<path d="M29.3874 0L26.4108 2.7435L24.9914 1.41934L24.1227 2.22443L25.235 3.26256L23.9426 4.47019L24.557 5.0528L21.6016 7.79646V6.86426L23.5507 5.0528L22.9363 4.47019L24.2393 3.26256L23.4554 2.53163V3.41087H22.5125V2.62697L24.9808 0.328251H26.1249L26.2417 0.995624H25.3942L26.4111 1.93842L28.5296 0H29.3874Z" fill="#FDD406"/>
<path d="M21.6016 13.9175V15.0933L23.4236 16.7988L22.8092 17.3709L24.1121 18.5785L23.5401 19.0976V18.3454H22.4278V19.2459L24.9384 21.5976H26.2096L26.3473 20.7713H25.6164L26.4108 20.0298L28.4024 21.8412L26.4108 23.6632L25.6164 22.9217H26.3473L26.2096 22.0849H24.9384L22.4278 24.4366V25.337H23.5401V24.5849L24.1121 25.104L22.8092 26.3116L23.4236 26.8942L21.6016 28.5891V29.765L24.6842 26.8942L24.0698 26.3116L25.3621 25.104L24.2498 24.0658L24.9914 23.3879L26.4108 24.7014L29.5253 21.8413L26.4108 18.9811L24.9914 20.3052L24.2498 19.6167L25.3621 18.5785L24.0698 17.3709L24.6842 16.7989L21.6016 13.9175ZM21.6016 19.6272V24.0552L22.3219 23.3243V22.4662H23.0846L23.699 21.8412L23.0846 21.2268H22.3219V20.3582L21.6016 19.6272ZM26.8558 21.195L26.7498 21.7989L26.8558 22.4133L27.5125 21.7989L26.8558 21.195Z" fill="black"/>
<path d="M21.6019 14.0446V14.9768L23.551 16.7988L22.9366 17.3708L24.2395 18.5785L23.4557 19.3094V18.4302H22.5128V19.2141L24.9811 21.5128H26.1251L26.2417 20.856H25.3942L26.4111 19.9026L28.5298 21.8412L26.4111 23.7797L25.3942 22.8369H26.2417L26.1249 22.1696H24.9808L22.5125 24.4683V25.2522H23.4554V24.3729L24.2393 25.1039L22.9363 26.3115L23.5507 26.8941L21.6016 28.7056V29.6378L24.557 26.8941L23.9426 26.3115L25.235 25.1039L24.1227 24.0657L24.9914 23.2607L26.4108 24.5848L29.3876 21.8412L26.4108 19.0975L24.9914 20.4217L24.1227 19.6166L25.235 18.5785L23.9426 17.3708L24.557 16.7988L21.6016 14.0446L21.6019 14.0446ZM21.6019 19.7543V23.928L22.2374 23.2925V22.3709H23.0531L23.5828 21.8412L23.0531 21.3115H22.2374V20.3899L21.6019 19.7543ZM26.9196 21.3645L26.8455 21.7988L26.9196 22.2331L27.3857 21.7988L26.9196 21.3645Z" fill="#FDD406"/>
<path d="M21.6016 36.4772V37.653L23.4236 39.3585L22.8092 39.9306L24.1121 41.1382L23.5401 41.6573V40.9051H22.4278V41.8056L24.9384 44.1573H26.2096L26.3473 43.331H25.6164L26.4108 42.5895L28.4024 44.4009L26.4108 46.2229L25.6164 45.4814H26.3473L26.2096 44.6446H24.9384L22.4278 46.9963V47.8967H23.5401V47.1446L24.1121 47.6636L22.8092 48.8713L23.4236 49.4539L21.6016 51.1488V52.3247L24.6842 49.4539L24.0698 48.8713L25.3621 47.6636L24.2498 46.6255L24.9914 45.9475L26.4108 47.2611L29.5253 44.4009L26.4108 41.5408L24.9914 42.8649L24.2498 42.1764L25.3621 41.1382L24.0698 39.9306L24.6842 39.3586L21.6016 36.4772ZM21.6016 42.1869V46.6149L22.3219 45.884V45.0259H23.0846L23.699 44.4009L23.0846 43.7865H22.3219V42.9179L21.6016 42.1869ZM26.8558 43.7547L26.7498 44.3585L26.8558 44.9729L27.5125 44.3585L26.8558 43.7547Z" fill="black"/>
<path d="M21.6019 36.6043V37.5365L23.551 39.3585L22.9366 39.9305L24.2395 41.1382L23.4557 41.8691V40.9899H22.5128V41.7737L24.9811 44.0725H26.1251L26.2417 43.4157H25.3942L26.4111 42.4623L28.5298 44.4009L26.4111 46.3394L25.3942 45.3966H26.2417L26.1249 44.7293H24.9808L22.5125 47.028V47.8119H23.4554V46.9326L24.2393 47.6636L22.9363 48.8712L23.5507 49.4538L21.6016 51.2653V52.1975L24.557 49.4538L23.9426 48.8712L25.235 47.6636L24.1227 46.6254L24.9914 45.8203L26.4108 47.1445L29.3876 44.4009L26.4108 41.6572L24.9914 42.9814L24.1227 42.1763L25.235 41.1381L23.9426 39.9305L24.557 39.3585L21.6016 36.6042L21.6019 36.6043ZM21.6019 42.314V46.4877L22.2374 45.8521V44.9305H23.0531L23.5828 44.4009L23.0531 43.8712H22.2374V42.9496L21.6019 42.314ZM26.9196 43.9242L26.8455 44.3585L26.9196 44.7928L27.3857 44.3585L26.9196 43.9242Z" fill="#FDD406"/>
<path d="M21.6016 59.0366V60.2125L23.4236 61.918L22.8092 62.49L24.1121 63.6976L23.5401 64.2167V63.4646H22.4278V64.365L24.9384 66.7167H26.2096L26.3473 65.8904H25.6164L26.4108 65.1489L28.4024 66.9604L26.4108 68.7824L25.6164 68.0409H26.3473L26.2096 67.204H24.9384L22.4278 69.5557V70.4561H23.5401V69.704L24.1121 70.2231L22.8092 71.4307L23.4236 72.0133L21.6016 73.7082V74.8841L24.6842 72.0133L24.0698 71.4307L25.3621 70.2231L24.2498 69.185L24.9914 68.507L26.4108 69.8206L29.5253 66.9604L26.4108 64.1002L24.9914 65.4244L24.2498 64.7358L25.3621 63.6977L24.0698 62.4901L24.6842 61.918L21.6016 59.0366ZM21.6016 64.7464V69.1743L22.3219 68.4434V67.5854H23.0846L23.699 66.9604L23.0846 66.346H22.3219V65.4773L21.6016 64.7464ZM26.8558 66.3142L26.7498 66.918L26.8558 67.5324L27.5125 66.918L26.8558 66.3142Z" fill="black"/>
<path d="M21.6019 59.1637V60.0959L23.551 61.9179L22.9366 62.49L24.2395 63.6976L23.4557 64.4285V63.5493H22.5128V64.3332L24.9811 66.6319H26.1251L26.2417 65.9751H25.3942L26.4111 65.0217L28.5298 66.9603L26.4111 68.8989L25.3942 67.9561H26.2417L26.1249 67.2887H24.9808L22.5125 69.5874V70.3713H23.4554V69.4921L24.2393 70.223L22.9363 71.4306L23.5507 72.0133L21.6016 73.8247V74.7569L24.557 72.0133L23.9426 71.4306L25.235 70.223L24.1227 69.1849L24.9914 68.3798L26.4108 69.7039L29.3876 66.9603L26.4108 64.2167L24.9914 65.5408L24.1227 64.7357L25.235 63.6976L23.9426 62.49L24.557 61.9179L21.6016 59.1637L21.6019 59.1637ZM21.6019 64.8735V69.0472L22.2374 68.4116V67.49H23.0531L23.5828 66.9603L23.0531 66.4307H22.2374V65.5091L21.6019 64.8735ZM26.9196 66.4836L26.8455 66.918L26.9196 67.3523L27.3857 66.918L26.9196 66.4836Z" fill="#FDD406"/>
<path d="M21.6016 81.5959V82.7718L23.4236 84.4773L22.8092 85.0493L24.1121 86.257L23.5401 86.776V86.0239H22.4278V86.9243L24.9384 89.276H26.2096L26.3473 88.4498H25.6164L26.4108 87.7082L28.4024 89.5197L26.4108 91.3417L25.6164 90.6002H26.3473L26.2096 89.7633H24.9384L22.4278 92.115V93.0155H23.5401V92.2634L24.1121 92.7824L22.8092 93.99L23.4236 94.5727L21.6016 96.2676V97.4434L24.6842 94.5727L24.0698 93.99L25.3621 92.7824L24.2498 91.7443L24.9914 91.0663L26.4108 92.3799L29.5253 89.5197L26.4108 86.6596L24.9914 87.9837L24.2498 87.2951L25.3621 86.257L24.0698 85.0494L24.6842 84.4774L21.6016 81.5959ZM21.6016 87.3057V91.7337L22.3219 91.0027V90.1447H23.0846L23.699 89.5197L23.0846 88.9053H22.3219V88.0366L21.6016 87.3057ZM26.8558 88.8735L26.7498 89.4773L26.8558 90.0917L27.5125 89.4773L26.8558 88.8735Z" fill="black"/>
<path d="M21.6019 81.723V82.6552L23.551 84.4773L22.9366 85.0493L24.2395 86.2569L23.4557 86.9879V86.1086H22.5128V86.8925L24.9811 89.1912H26.1251L26.2417 88.5345H25.3942L26.4111 87.5811L28.5298 89.5196L26.4111 91.4582L25.3942 90.5154H26.2417L26.1249 89.848H24.9808L22.5125 92.1467V92.9306H23.4554V92.0514L24.2393 92.7823L22.9363 93.99L23.5507 94.5726L21.6016 96.384V97.3162L24.557 94.5726L23.9426 93.99L25.235 92.7823L24.1227 91.7442L24.9914 90.9391L26.4108 92.2633L29.3876 89.5196L26.4108 86.776L24.9914 88.1001L24.1227 87.2951L25.235 86.2569L23.9426 85.0493L24.557 84.4773L21.6016 81.723L21.6019 81.723ZM21.6019 87.4328V91.6065L22.2374 90.9709V90.0493H23.0531L23.5828 89.5197L23.0531 88.99H22.2374V88.0684L21.6019 87.4328ZM26.9196 89.043L26.8455 89.4773L26.9196 89.9116L27.3857 89.4773L26.9196 89.043Z" fill="#FDD406"/>
<path d="M46.0762 0H47.1991L49.1905 1.82194L49.985 1.08041H49.2541L49.3918 0.24355H50.663L53.1736 2.59527V3.49569H52.0613V2.74358L51.4893 3.26264L52.7922 4.47027L52.1778 5.05288L53.9975 6.74562V7.92148L50.9172 5.05288L51.5316 4.47027L50.2393 3.26264L51.3516 2.22451L50.61 1.54654L49.1905 2.8601L46.0762 0Z" fill="black"/>
<path d="M53.9975 2.21151L53.2795 1.48296V0.624923H52.5168L51.9025 0H53.9975V2.21151Z" fill="black"/>
<path d="M48.8442 0L48.7456 0.571948L48.1342 0H48.8442Z" fill="black"/>
<path d="M48.7495 0H48.2621L48.6826 0.391831L48.7495 0Z" fill="#FDD406"/>
<path d="M53.9983 2.08468V0H52.0196L52.5491 0.529548H53.3648V1.45114L53.9983 2.08468Z" fill="#FDD406"/>
<path d="M53.9983 6.86208L52.0515 5.0528L52.666 4.47019L51.363 3.26256L52.1469 2.53163V3.41087H53.0897V2.62697L50.6215 0.328251H49.4774L49.3606 0.995624H50.2081L49.1911 1.93842L47.0726 0H46.2148L49.1914 2.7435L50.6109 1.41934L51.4795 2.22443L50.3672 3.26256L51.6596 4.47019L51.0452 5.0528L53.9983 7.79428V6.86208Z" fill="#FDD406"/>
<path d="M54.002 13.9175V15.0933L52.1799 16.7988L52.7944 17.3709L51.4914 18.5785L52.0634 19.0976V18.3454H53.1757V19.2459L50.6651 21.5976H49.3939L49.2562 20.7713H49.9872L49.1927 20.0298L47.2012 21.8412L49.1927 23.6632L49.9872 22.9217H49.2562L49.3939 22.0849H50.6651L53.1757 24.4366V25.337H52.0634V24.5849L51.4914 25.104L52.7944 26.3116L52.1799 26.8942L54.002 28.5891V29.765L50.9194 26.8942L51.5338 26.3116L50.2414 25.104L51.3537 24.0658L50.6121 23.3879L49.1927 24.7014L46.0782 21.8413L49.1927 18.9811L50.6121 20.3052L51.3537 19.6167L50.2414 18.5785L51.5338 17.3709L50.9194 16.7989L54.002 13.9175ZM54.002 19.6272V24.0552L53.2816 23.3243V22.4662H52.5189L51.9045 21.8412L52.5189 21.2268H53.2816V20.3582L54.002 19.6272ZM48.7477 21.195L48.8537 21.7989L48.7477 22.4133L48.091 21.7989L48.7477 21.195Z" fill="black"/>
<path d="M54.0017 14.0446V14.9768L52.0525 16.7988L52.6669 17.3708L51.364 18.5785L52.1479 19.3094V18.4302H53.0907V19.2141L50.6224 21.5128H49.4784L49.3619 20.856H50.2093L49.1924 19.9026L47.0737 21.8412L49.1924 23.7797L50.2093 22.8369H49.3619L49.4787 22.1696H50.6227L53.091 24.4683V25.2522H52.1482V24.3729L51.3643 25.1039L52.6672 26.3115L52.0528 26.8941L54.002 28.7056V29.6378L51.0465 26.8941L51.6609 26.3115L50.3685 25.1039L51.4808 24.0657L50.6121 23.2607L49.1927 24.5848L46.216 21.8412L49.1927 19.0975L50.6121 20.4217L51.4808 19.6166L50.3685 18.5785L51.6609 17.3708L51.0465 16.7988L54.002 14.0446L54.0017 14.0446ZM54.0017 19.7543V23.928L53.3661 23.2925V22.3709H52.5504L52.0207 21.8412L52.5504 21.3115H53.3661V20.3899L54.0017 19.7543ZM48.6839 21.3645L48.758 21.7988L48.6839 22.2331L48.2178 21.7988L48.6839 21.3645Z" fill="#FDD406"/>
<path d="M54.002 36.4772V37.653L52.1799 39.3585L52.7944 39.9306L51.4914 41.1382L52.0634 41.6573V40.9051H53.1757V41.8056L50.6651 44.1573H49.3939L49.2562 43.331H49.9872L49.1927 42.5895L47.2012 44.4009L49.1927 46.2229L49.9872 45.4814H49.2562L49.3939 44.6446H50.6651L53.1757 46.9963V47.8967H52.0634V47.1446L51.4914 47.6636L52.7944 48.8713L52.1799 49.4539L54.002 51.1488V52.3247L50.9194 49.4539L51.5338 48.8713L50.2414 47.6636L51.3537 46.6255L50.6121 45.9475L49.1927 47.2611L46.0782 44.4009L49.1927 41.5408L50.6121 42.8649L51.3537 42.1764L50.2414 41.1382L51.5338 39.9306L50.9194 39.3586L54.002 36.4772ZM54.002 42.1869V46.6149L53.2816 45.884V45.0259H52.5189L51.9045 44.4009L52.5189 43.7865H53.2816V42.9179L54.002 42.1869ZM48.7477 43.7547L48.8537 44.3585L48.7477 44.9729L48.091 44.3585L48.7477 43.7547Z" fill="black"/>
<path d="M54.0017 36.6043V37.5365L52.0525 39.3585L52.6669 39.9305L51.364 41.1382L52.1479 41.8691V40.9899H53.0907V41.7737L50.6224 44.0725H49.4784L49.3619 43.4157H50.2093L49.1924 42.4623L47.0737 44.4009L49.1924 46.3394L50.2093 45.3966H49.3619L49.4787 44.7293H50.6227L53.091 47.028V47.8119H52.1482V46.9326L51.3643 47.6636L52.6672 48.8712L52.0528 49.4538L54.002 51.2653V52.1975L51.0465 49.4538L51.6609 48.8712L50.3685 47.6636L51.4808 46.6254L50.6121 45.8203L49.1927 47.1445L46.216 44.4009L49.1927 41.6572L50.6121 42.9814L51.4808 42.1763L50.3685 41.1381L51.6609 39.9305L51.0465 39.3585L54.002 36.6042L54.0017 36.6043ZM54.0017 42.314V46.4877L53.3661 45.8521V44.9305H52.5504L52.0207 44.4009L52.5504 43.8712H53.3661V42.9496L54.0017 42.314ZM48.6839 43.9242L48.758 44.3585L48.6839 44.7928L48.2178 44.3585L48.6839 43.9242Z" fill="#FDD406"/>
<path d="M54.002 59.0365V60.2124L52.1799 61.9179L52.7944 62.4899L51.4914 63.6975L52.0634 64.2166V63.4645H53.1757V64.3649L50.6651 66.7166H49.3939L49.2562 65.8903H49.9872L49.1927 65.1488L47.2012 66.9602L49.1927 68.7823L49.9872 68.0407H49.2562L49.3939 67.2039H50.6651L53.1757 69.5556V70.456H52.0634V69.7039L51.4914 70.223L52.7944 71.4306L52.1799 72.0132L54.002 73.7081V74.884L50.9194 72.0132L51.5338 71.4306L50.2414 70.223L51.3537 69.1848L50.6121 68.5069L49.1927 69.8204L46.0782 66.9603L49.1927 64.1001L50.6121 65.4243L51.3537 64.7357L50.2414 63.6976L51.5338 62.4899L50.9194 61.9179L54.002 59.0365ZM54.002 64.7463V69.1742L53.2816 68.4433V67.5852H52.5189L51.9045 66.9602L52.5189 66.3458H53.2816V65.4772L54.002 64.7463ZM48.7477 66.3141L48.8537 66.9179L48.7477 67.5323L48.091 66.9179L48.7477 66.3141Z" fill="black"/>
<path d="M54.0017 59.1636V60.0958L52.0525 61.9178L52.6669 62.4899L51.364 63.6975L52.1479 64.4284V63.5492H53.0907V64.3331L50.6224 66.6318H49.4784L49.3619 65.975H50.2093L49.1924 65.0216L47.0737 66.9602L49.1924 68.8987L50.2093 67.956H49.3619L49.4787 67.2886H50.6227L53.091 69.5873V70.3712H52.1482V69.492L51.3643 70.2229L52.6672 71.4305L52.0528 72.0131L54.002 73.8246V74.7568L51.0465 72.0131L51.6609 71.4305L50.3685 70.2229L51.4808 69.1848L50.6121 68.3797L49.1927 69.7038L46.216 66.9602L49.1927 64.2165L50.6121 65.5407L51.4808 64.7356L50.3685 63.6975L51.6609 62.4898L51.0465 61.9178L54.002 59.1636L54.0017 59.1636ZM54.0017 64.8733V69.0471L53.3661 68.4115V67.4899H52.5504L52.0207 66.9602L52.5504 66.4305H53.3661V65.5089L54.0017 64.8733ZM48.6839 66.4835L48.758 66.9178L48.6839 67.3522L48.2178 66.9178L48.6839 66.4835Z" fill="#FDD406"/>
<path d="M54.002 81.5958V82.7717L52.1799 84.4772L52.7944 85.0492L51.4914 86.2568L52.0634 86.7759V86.0238H53.1757V86.9242L50.6651 89.2759H49.3939L49.2562 88.4496H49.9872L49.1927 87.7081L47.2012 89.5196L49.1927 91.3416L49.9872 90.6001H49.2562L49.3939 89.7632H50.6651L53.1757 92.1149V93.0153H52.0634V92.2632L51.4914 92.7823L52.7944 93.9899L52.1799 94.5725L54.002 96.2675V97.4433L50.9194 94.5725L51.5338 93.9899L50.2414 92.7823L51.3537 91.7442L50.6121 91.0662L49.1927 92.3798L46.0782 89.5196L49.1927 86.6594L50.6121 87.9836L51.3537 87.295L50.2414 86.2569L51.5338 85.0493L50.9194 84.4772L54.002 81.5958ZM54.002 87.3056V91.7335L53.2816 91.0026V90.1446H52.5189L51.9045 89.5196L52.5189 88.9052H53.2816V88.0365L54.002 87.3056ZM48.7477 88.8734L48.8537 89.4772L48.7477 90.0916L48.091 89.4772L48.7477 88.8734Z" fill="black"/>
<path d="M54.0017 81.7229V82.6551L52.0525 84.4771L52.6669 85.0492L51.364 86.2568L52.1479 86.9877V86.1085H53.0907V86.8924L50.6224 89.1911H49.4784L49.3619 88.5343H50.2093L49.1924 87.581L47.0737 89.5195L49.1924 91.4581L50.2093 90.5153H49.3619L49.4787 89.8479H50.6227L53.091 92.1466V92.9305H52.1482V92.0513L51.3643 92.7822L52.6672 93.9898L52.0528 94.5725L54.002 96.3839V97.3161L51.0465 94.5725L51.6609 93.9898L50.3685 92.7822L51.4808 91.7441L50.6121 90.939L49.1927 92.2632L46.216 89.5195L49.1927 86.7759L50.6121 88.1L51.4808 87.2949L50.3685 86.2568L51.6609 85.0492L51.0465 84.4771L54.002 81.7229L54.0017 81.7229ZM54.0017 87.4327V91.6064L53.3661 90.9708V90.0492H52.5504L52.0207 89.5195L52.5504 88.9899H53.3661V88.0683L54.0017 87.4327ZM48.6839 89.0428L48.758 89.4772L48.6839 89.9115L48.2178 89.4772L48.6839 89.0428Z" fill="#FDD406"/>
<path d="M25.6567 14.0678L23.0605 12.4758V8.64874L25.6567 7.0567V5.0317L28.1101 3.55426H30.0702L33.7997 1.45654H41.8063L45.5359 3.55426H47.496L49.9494 5.0317V7.0567L52.5456 8.64874L52.5455 12.4758L49.9494 14.0678V16.0928L47.496 17.5703H45.5359L41.8063 19.668H33.7997L30.0702 17.5703H28.1101L25.6567 16.0928V14.0678Z" fill="black"/>
<path d="M33.8158 1.54651L30.087 3.64397H28.1379L25.7438 5.08464V7.10794L23.1484 8.69693V12.4257L25.7438 14.0147V16.0486L28.1273 17.4893H30.087L33.8158 19.5868H41.7819L45.5107 17.4893H47.4705L49.8645 16.0486V14.0147L52.4599 12.4257V8.69693L49.8645 7.10794V5.08464L47.4705 3.64397H45.5107L41.7819 1.54651H33.8158ZM34.0383 2.31981H41.5701L45.2989 4.41727H47.248L49.0594 5.50838V7.53168L51.6654 9.12067V12.002L49.0594 13.591V15.6143L47.248 16.7054H45.2989L41.5701 18.8029H34.0383L30.3095 16.7054H28.3603L26.5383 15.6143V13.591L23.9429 12.002V9.12067L26.5383 7.53168V5.50838L28.3603 4.41727H30.3095L34.0383 2.31981Z" fill="#1E9A1C"/>
<path d="M37.7596 10.605V2.40332H34.0584L30.3287 4.50104H28.3843L26.6254 5.56028V7.58036L24.0293 9.17228V10.5194L37.8454 10.5193V18.7212H41.5466L45.2762 16.6234H47.2207L48.9795 15.5642V13.5442L51.5757 11.9522V10.6051L37.7596 10.605Z" fill="#FDD406"/>
<path d="M24.0294 10.6051L24.0293 11.9522L26.6255 13.5442V15.5642L28.3843 16.6234H30.3288L34.0584 18.7212H37.7597V10.5193L51.5758 10.5194V9.17228L48.9796 7.58036V5.56028L47.2208 4.50104H45.2763L41.5467 2.40332H37.8456V10.605L24.0294 10.6051Z" fill="white"/>
<path d="M29.6924 5.25608L29.0533 4.6604L28.4201 5.05088L29.0603 5.64776L28.2383 6.15704H30.032L31.5779 7.61516L32.0724 7.09292L30.5694 5.67512V4.71272L29.6924 5.25608Z" fill="black"/>
<path d="M32.7198 4.99436L32.0807 4.39868L31.4474 4.78916L32.0876 5.38604L31.2656 5.89532H33.0594L34.6052 7.35345L35.0997 6.83121L33.5967 5.4134V4.451L32.7198 4.99436Z" fill="black"/>
<path d="M29.4716 6.96714L28.8325 6.37146L28.1994 6.76194L28.8395 7.35882L28.0176 7.8681H29.8113L31.3571 9.32622L31.8516 8.80398L30.3486 7.38618V6.42378L29.4716 6.96714Z" fill="black"/>
<path d="M37.8035 2.31775H36.1849L35.3379 3.13399H33.6868L32.4668 3.76723L32.7513 4.46047L33.8394 3.88903H34.3159L35.9841 5.81839L37.8035 4.71043L37.8035 2.31775Z" fill="black"/>
<path d="M29.0427 4.76758L29.617 5.3029L29.1358 5.60098L28.5607 5.06482L29.0427 4.76758ZM30.4838 4.86658V5.71198L31.9513 7.09629L31.5745 7.49421L30.0662 6.07138H28.5391L30.4838 4.86658Z" fill="#D91C16"/>
<path d="M32.07 4.50586L32.6444 5.04118L32.1632 5.33926L31.5881 4.8031L32.07 4.50586ZM33.5111 4.60486V5.45026L34.9786 6.83457L34.6018 7.2325L33.0935 5.80978H31.5664L33.5111 4.60486Z" fill="#D91C16"/>
<path d="M28.8221 6.47864L29.3963 7.01396L28.9151 7.31204L28.3401 6.77588L28.8221 6.47864ZM30.2631 6.57764V7.42304L31.7306 8.80735L31.3539 9.20527L29.8456 7.78256H28.3184L30.2631 6.57764Z" fill="#D91C16"/>
<path d="M37.7592 2.40332H36.218L35.3711 3.21956H33.7063L32.5742 3.80708L32.7932 4.34084L33.8166 3.80348H34.3536L36 5.70764L37.7592 4.6364L37.7592 2.40332Z" fill="#D91C16"/>
<path d="M29.6924 15.8683L29.0533 16.464L28.4201 16.0735L29.0603 15.4766L28.2383 14.9673H30.032L31.5779 13.5092L32.0724 14.0315L30.5694 15.4493V16.4117L29.6924 15.8683Z" fill="black"/>
<path d="M32.7198 16.13L32.0807 16.7257L31.4474 16.3352L32.0876 15.7383L31.2656 15.2291H33.0594L34.6052 13.7709L35.0997 14.2932L33.5967 15.711V16.6734L32.7198 16.13Z" fill="black"/>
<path d="M29.4716 14.1572L28.8325 14.7529L28.1994 14.3625L28.8395 13.7656L28.0176 13.2563H29.8113L31.3571 11.7982L31.8516 12.3204L30.3486 13.7382V14.7006L29.4716 14.1572Z" fill="black"/>
<path d="M37.8035 18.8066H36.1849L35.3379 17.9904H33.6868L32.4668 17.3572L32.7513 16.6639L33.8394 17.2354H34.3159L35.9841 15.306L37.8035 16.414L37.8035 18.8066Z" fill="black"/>
<path d="M29.0427 16.3568L29.617 15.8215L29.1358 15.5234L28.5607 16.0596L29.0427 16.3568ZM30.4838 16.2578V15.4124L31.9513 14.0281L31.5745 13.6302L30.0662 15.053H28.5391L30.4838 16.2578Z" fill="#D91C16"/>
<path d="M32.07 16.6185L32.6444 16.0832L32.1632 15.7851L31.5881 16.3213L32.07 16.6185ZM33.5111 16.5195V15.6741L34.9786 14.2898L34.6018 13.8919L33.0935 15.3146H31.5664L33.5111 16.5195Z" fill="#D91C16"/>
<path d="M28.8221 14.6458L29.3963 14.1104L28.9151 13.8124L28.3401 14.3485L28.8221 14.6458ZM30.2631 14.5468V13.7014L31.7306 12.317L31.3539 11.9191L29.8456 13.3418H28.3184L30.2631 14.5468Z" fill="#D91C16"/>
<path d="M37.7592 18.7211H36.218L35.3711 17.9048H33.7063L32.5742 17.3173L32.7932 16.7835L33.8166 17.3209H34.3536L36 15.4167L37.7592 16.488L37.7592 18.7211Z" fill="#D91C16"/>
<path d="M28.6151 7.94217L27.8434 7.65381L27.8249 7.66665L26.8284 8.35809V8.54397L25.2324 10.5622L26.8284 12.5805V12.7665L27.8434 13.4707L28.6151 13.1823L28.1441 12.8704V12.277L28.3313 12.0531H29.1676V9.07137H28.3313L28.1441 8.84745V8.25405L28.6151 7.94217Z" fill="black"/>
<path d="M26.9143 8.40267L27.8556 7.74963L28.428 7.96347L28.0586 8.20803V8.87847L28.2914 9.15687H29.082V11.9675H28.2914L28.0586 12.2459V12.9164L28.428 13.1609L27.8556 13.3748L26.9143 12.7217L26.9144 12.5507L25.3418 10.5622L26.9144 8.57356L26.9143 8.40267Z" fill="#D91C16"/>
<path d="M45.913 5.25608L46.5521 4.6604L47.1854 5.05088L46.5452 5.64776L47.3672 6.15704H45.5734L44.0276 7.61516L43.5331 7.09292L45.0361 5.67512V4.71272L45.913 5.25608Z" fill="black"/>
<path d="M42.8896 4.99436L43.5287 4.39868L44.162 4.78916L43.5217 5.38604L44.3438 5.89532H42.55L41.0042 7.35345L40.5096 6.83121L42.0126 5.4134V4.451L42.8896 4.99436Z" fill="black"/>
<path d="M46.1358 6.96714L46.7749 6.37146L47.408 6.76194L46.768 7.35882L47.5898 7.8681H45.7961L44.2504 9.32622L43.7558 8.80398L45.2588 7.38618V6.42378L46.1358 6.96714Z" fill="black"/>
<path d="M37.8039 2.31775H39.4225L40.2695 3.13399H41.9206L43.1406 3.76723L42.8561 4.46047L41.7681 3.88903H41.2915L39.6233 5.81839L37.8039 4.71043L37.8039 2.31775Z" fill="black"/>
<path d="M46.5628 4.76758L45.9884 5.3029L46.4697 5.60098L47.0448 5.06482L46.5628 4.76758ZM45.1217 4.86658V5.71198L43.6542 7.09629L44.031 7.49421L45.5393 6.07138H47.0664L45.1217 4.86658Z" fill="#D91C16"/>
<path d="M43.5393 4.50586L42.965 5.04118L43.4462 5.33926L44.0213 4.8031L43.5393 4.50586ZM42.0983 4.60486V5.45026L40.6308 6.83457L41.0076 7.2325L42.5159 5.80978H44.043L42.0983 4.60486Z" fill="#D91C16"/>
<path d="M46.7853 6.47864L46.2111 7.01396L46.6923 7.31204L47.2673 6.77588L46.7853 6.47864ZM45.3443 6.57764V7.42304L43.8769 8.80735L44.2535 9.20527L45.7618 7.78256H47.2891L45.3443 6.57764Z" fill="#D91C16"/>
<path d="M37.8462 2.40332H39.3875L40.2344 3.21956H41.8992L43.0312 3.80708L42.8122 4.34084L41.7889 3.80348H41.2519L39.6055 5.70764L37.8462 4.6364L37.8462 2.40332Z" fill="#D91C16"/>
<path d="M45.913 15.8683L46.5521 16.464L47.1854 16.0735L46.5452 15.4766L47.3672 14.9673H45.5734L44.0276 13.5092L43.5331 14.0315L45.0361 15.4493V16.4117L45.913 15.8683Z" fill="black"/>
<path d="M42.8896 16.13L43.5287 16.7257L44.162 16.3352L43.5217 15.7383L44.3438 15.2291H42.55L41.0042 13.7709L40.5096 14.2932L42.0126 15.711V16.6734L42.8896 16.13Z" fill="black"/>
<path d="M46.1358 14.1572L46.7749 14.7529L47.408 14.3625L46.768 13.7656L47.5898 13.2563H45.7961L44.2504 11.7982L43.7558 12.3204L45.2588 13.7382V14.7006L46.1358 14.1572Z" fill="black"/>
<path d="M37.8039 18.8066H39.4225L40.2695 17.9904H41.9206L43.1406 17.3572L42.8561 16.6639L41.7681 17.2354H41.2915L39.6233 15.306L37.8039 16.414L37.8039 18.8066Z" fill="black"/>
<path d="M46.5628 16.3568L45.9884 15.8215L46.4697 15.5234L47.0448 16.0596L46.5628 16.3568ZM45.1217 16.2578V15.4124L43.6542 14.0281L44.031 13.6302L45.5393 15.053H47.0664L45.1217 16.2578Z" fill="#D91C16"/>
<path d="M43.5393 16.6185L42.965 16.0832L43.4462 15.7851L44.0213 16.3213L43.5393 16.6185ZM42.0983 16.5195V15.6741L40.6308 14.2898L41.0076 13.8919L42.5159 15.3146H44.043L42.0983 16.5195Z" fill="#D91C16"/>
<path d="M46.7853 14.6458L46.2111 14.1104L46.6923 13.8124L47.2673 14.3485L46.7853 14.6458ZM45.3443 14.5468V13.7014L43.8769 12.317L44.2535 11.9191L45.7618 13.3418H47.2891L45.3443 14.5468Z" fill="#D91C16"/>
<path d="M37.8462 18.7211H39.3875L40.2344 17.9048H41.8992L43.0312 17.3173L42.8122 16.7835L41.7889 17.3209H41.2519L39.6055 15.4167L37.8462 16.488L37.8462 18.7211Z" fill="#D91C16"/>
<path d="M46.9923 7.94217L47.764 7.65381L47.7825 7.66665L48.779 8.35809V8.54397L50.375 10.5622L48.779 12.5805V12.7665L47.764 13.4707L46.9923 13.1823L47.4633 12.8704V12.277L47.2761 12.0531H46.4398V9.07137H47.2761L47.4633 8.84745V8.25405L46.9923 7.94217Z" fill="black"/>
<path d="M48.6931 8.40267L47.7519 7.74963L47.1795 7.96347L47.5488 8.20803V8.87847L47.316 9.15687H46.5255V11.9675H47.316L47.5488 12.2459V12.9164L47.1795 13.1609L47.7519 13.3748L48.6931 12.7217L48.693 12.5507L50.2656 10.5622L48.693 8.57356L48.6931 8.40267Z" fill="#D91C16"/>
<path d="M27.2436 12.2564L26.8091 11.8804V11.6992L25.877 10.5622L26.8092 9.42511V9.24403L27.2438 8.86807L28.0242 9.50275L27.5738 9.49927L28.2394 10.1749H29.7604L30.9566 9.23947V6.77263H33.9483L37.4228 4.64047V4.08127L36.8914 3.72715H36.723L36.1444 4.11439L36.0548 4.40323L35.6021 3.78523L36.4818 3.04615H36.6225L37.6152 2.31775H37.9895L38.9822 3.04615H39.1229L40.0026 3.78523L39.55 4.40323L39.4604 4.11439L38.8817 3.72715H38.7134L38.182 4.08127V4.64047L41.6565 6.77263H44.6482V9.23947L45.8444 10.1749H47.3654L48.031 9.49927L47.5805 9.50275L48.361 8.86807L48.7955 9.24403V9.42511L49.7278 10.5622L48.7955 11.6992V11.8804L48.361 12.2564L47.5805 11.6217L48.031 11.6252L47.3654 10.9495H45.8444L44.6482 11.885V14.3518H41.6565L38.182 16.484V17.0432L38.7134 17.3973H38.8817L39.4604 17.0101L39.55 16.7212L40.0026 17.3391L39.1229 18.0783H38.9822L37.9895 18.8067H37.6152L36.6225 18.0783H36.4818L35.602 17.3391L36.0548 16.7212L36.1444 17.0101L36.7229 17.3973H36.8913L37.4228 17.0432V16.484L33.9483 14.3518H30.9566V11.885L29.7603 10.9495H28.2394L27.5738 11.6252L28.0242 11.6217L27.2436 12.2564Z" fill="black"/>
<path d="M37.846 17.4638L38.2262 17.7546L37.846 18.0453V17.4638ZM36.6372 17.9926H36.6512L37.644 18.7212H37.7599V18.1528L37.2391 17.7546L37.76 17.3563V16.2888L34.0422 14.0072H31.2938V11.7147L29.8748 10.605H27.7345L27.1966 11.2132L26.6586 10.605L26.0234 10.6051L26.8954 11.6685V11.8412L27.2407 12.1412L27.7956 11.7092L27.4699 11.7117V11.6037L28.1957 10.8639H29.7905L31.0429 11.8434V14.2663H33.9732L37.509 16.4361V17.0889L36.9179 17.4829H36.6974L36.0721 17.0643L36.024 16.909L35.7191 17.3252L36.5137 17.9926L36.6372 17.9926ZM27.197 10.0406L27.6206 10.5194H26.7733L27.197 10.0406ZM37.7602 3.07916L37.3801 3.36992L37.7602 3.66056V3.07916ZM47.9856 10.6051L48.4092 11.0839L48.8328 10.6051H47.9856ZM38.9548 3.13172L37.962 2.40332H37.8461V2.9714L38.3671 3.36992L37.846 3.76844V4.83572L41.5638 7.11728H44.3122V9.40976L45.7312 10.5195H47.8711L48.4092 9.91136L48.9473 10.5194H49.5826L48.7106 9.45596V9.28328L48.3653 8.98328L47.8104 9.41528L48.1361 9.41264V9.52076L47.4103 10.2604H45.8155L44.5632 9.281V6.8582H41.6328L38.097 4.68836V4.03544L38.6881 3.6416H38.9086L39.5339 4.06016L39.582 4.21544L39.8869 3.79928L39.0923 3.13172L38.9548 3.13172Z" fill="#FDD406"/>
<path d="M37.7599 18.0452L37.3799 17.7546L37.7599 17.4639V18.0452ZM27.6204 10.6051L27.1968 11.0839L26.7732 10.6051H27.6204ZM38.9686 17.9926H38.9545L37.9618 18.7212H37.8458V18.5724V18.1531L38.3669 17.7546L37.8457 17.356V16.2888L41.5636 14.0072H44.3119V11.7147L45.7309 10.605H47.871L48.409 11.2132L48.9469 10.605L49.5823 10.6051L48.7104 11.6685V11.8412L48.365 12.1412L47.8102 11.7092L48.1358 11.7117V11.6037L47.4101 10.8639H45.8153L44.563 11.8434V14.2663H41.6326L38.0968 16.4361V17.0889L38.6879 17.4829H38.9083L39.5336 17.0643L39.5818 16.909L39.8867 17.3252L39.092 17.9926L38.9686 17.9926ZM48.409 10.0406L47.9854 10.5194H48.8327L48.409 10.0406ZM36.6512 3.13172L37.644 2.40332H37.76V2.9714L37.2389 3.36992L37.76 3.76844L37.7602 4.83572L34.0422 7.11728H31.294V9.40976L29.8748 10.5195H27.7343L27.1963 9.91136L26.6582 10.5194H26.0234L26.8955 9.45596V9.28328L27.2408 8.98328L27.7956 9.41528L27.4699 9.41264V9.52076L28.1958 10.2604H29.7905L31.0429 9.281V6.8582H33.9732L37.5091 4.68836V4.03544L36.918 3.6416H36.6974L36.0721 4.06016L36.024 4.21544L35.7192 3.79928L36.5138 3.13172L36.6512 3.13172ZM37.8457 3.66068L38.226 3.36992L37.8457 3.07916V3.66068Z" fill="white"/>
<path d="M37.7599 10.605V4.93604L34.0662 7.20284H31.3793V9.4514L30.0137 10.5194L37.8457 10.5193V16.1883L41.5392 13.9216H44.2261V11.6731L45.5917 10.6051L37.7599 10.605Z" fill="#1E9A1C"/>
<path d="M30.0137 10.605L31.3794 11.673V13.9215H34.0662L37.76 16.1883V10.5191L45.5918 10.5193L44.2262 9.45127V7.20271H41.5393L37.8458 4.93604V10.6049L30.0137 10.605Z" fill="#D91C16"/>
<path d="M33.8271 7.81272L33.1881 7.21704L32.5548 7.6074L33.195 8.20428L32.373 8.71356H34.1668L35.7126 10.1718L36.2072 9.64945L34.7042 8.23164V7.26936L33.8271 7.81272Z" fill="black"/>
<path d="M41.7784 13.3118L42.4175 13.9075L43.0506 13.517L42.4106 12.9202L43.2326 12.411H41.4387L39.893 10.9528L39.3984 11.475L40.9014 12.8929V13.8552L41.7784 13.3118Z" fill="black"/>
<path d="M33.8271 13.3118L33.188 13.9075L32.5548 13.517L33.1949 12.9202L32.373 12.411H34.1668L35.7125 10.9528L36.207 11.475L34.704 12.8929V13.8552L33.8271 13.3118Z" fill="black"/>
<path d="M41.7784 7.81272L42.4175 7.21704L43.0506 7.6074L42.4106 8.20428L43.2326 8.71356H41.4387L39.893 10.1718L39.3984 9.64945L40.9014 8.23164V7.26936L41.7784 7.81272Z" fill="black"/>
<path d="M42.4278 13.8003L41.8536 13.265L42.3348 12.9669L42.9098 13.503L42.4278 13.8003ZM40.9868 13.7013V12.856L39.5193 11.4717L39.8961 11.0736L41.4044 12.4965H42.9315L40.9868 13.7013ZM33.1775 7.32397L33.7518 7.85929L33.2705 8.15749L32.6954 7.62133L33.1775 7.32397ZM34.6185 7.42309V8.26837L36.086 9.65269L35.7092 10.0507L34.2009 8.62789H32.6738L34.6185 7.42309Z" fill="#D91C16"/>
<path d="M42.4279 7.32397L41.8537 7.85929L42.3349 8.15749L42.9099 7.62133L42.4279 7.32397ZM40.9869 7.42309V8.26837L39.5195 9.65269L39.8963 10.0507L41.4045 8.62789H42.9317L40.9869 7.42309ZM33.1776 13.8003L33.7518 13.265L33.2706 12.9669L32.6955 13.503L33.1776 13.8003ZM34.6185 13.7013V12.856L36.086 11.4717L35.7094 11.0736L34.2011 12.4965H32.6738L34.6185 13.7013Z" fill="#1E9A1C"/>
<path d="M41.7756 10.5624L37.8038 13.2094L33.832 10.5624L37.8038 7.91516L41.7756 10.5624Z" fill="black"/>
<path d="M37.7612 8.04651L34.0509 10.5193H41.5573L37.847 8.04651V13.0779L41.5574 10.605H34.0508L37.7612 13.0779V8.04651Z" fill="white"/>
<path d="M38.866 11.4725V12.2003H36.7419V11.4725H35.3672V9.65187H36.7419V8.92407H38.866V9.65187H40.2406V11.4725H38.866Z" fill="black"/>
<path d="M36.8277 9.00965V9.73745H35.4531V10.5194H37.7612V9.00964L36.8277 9.00965ZM37.847 10.5194H40.1551V9.73745H38.7805V9.00965H37.847L37.847 10.5194ZM35.4531 10.6051V11.387H36.8277V12.1148H37.7612V10.605L35.4531 10.6051ZM37.847 12.1148H38.7805V11.387H40.1551V10.6051H37.847V12.1148Z" fill="#D91C16"/>
<path d="M44.578 40.7219V39.5559H47.7756V38.3898H50.9733V27.8536H47.7756V26.6875H44.578V25.5215H41.3803V24.3555H34.2239V25.5215H31.0263V26.6875H27.8285V27.8536H24.6309V38.3898H27.8285V39.5559H31.0263V40.7219H34.2239V41.8879H41.3803V40.7219H44.578Z" fill="black"/>
<path d="M34.3144 24.4385V25.6037H31.1151V26.769H27.916V27.9342H24.7168V38.305H27.916V39.4704H31.1151V40.6355H34.3144V41.8006H41.295V40.6355H44.4944V39.4704H47.6937V38.305H50.8927V27.9342H47.6937V26.769H44.4944V25.6037H41.295V24.4385H34.3144ZM35.1618 25.2859H40.4476V26.4512H43.6469V27.6164H46.8462V28.7817H50.0452V37.4575H46.8462V38.6229H43.6469V39.788H40.4476V40.9531H35.1618V39.788H31.9626V38.6229H28.7634V37.4575H25.5643V28.7817H28.7634V27.6164H31.9626V26.4512H35.1618V25.2859Z" fill="#FDD406"/>
<path d="M32.0438 39.7037V38.5375H28.8462V37.3716H25.6484V28.8715H28.8462V27.7055H32.0438V26.5395H35.2415V25.3735H40.3616V26.5395H43.5594V27.7055H46.7569V28.8715H49.9547V37.3716H46.7569V38.5375H43.5594V39.7037H40.3616V40.8696H35.2415V39.7037H32.0438Z" fill="#D91C16"/>
<path d="M32.7868 27.4028L31.9586 26.7767V27.9789L31.1655 28.4829L31.1635 27.7304L30.4028 28.4136L29.6421 27.7304L29.6401 28.4829L28.7612 27.9244V29.039L28.0509 29.5532L28.0489 28.8698L27.2051 29.4809L26.3612 28.8698L26.3592 29.5532L25.5633 28.9769V32.3532H24.6309V33.8901H25.5633V37.2664L26.3592 36.69L26.3612 37.3736L27.2051 36.7624L28.0488 37.3736L28.0508 36.69L28.7611 37.2042V38.3189L29.64 37.7604L29.642 38.513L30.4027 37.8297L31.1634 38.513L31.1654 37.7604L31.9585 38.2643V39.4666L32.7867 38.8406L32.7885 39.6802L33.6002 38.9543L34.412 39.6802L34.4138 38.8406L35.1564 39.4018V40.684L36.2666 39.672V40.8612L37.8021 39.874L39.3378 40.8612V39.672L40.448 40.684V39.4018L41.1905 38.8406L41.1923 39.6802L42.0041 38.9543L42.8159 39.6802L42.8177 38.8406L43.6457 39.4666V38.2643L44.439 37.7604L44.441 38.513L45.2018 37.8297L45.9625 38.513L45.9645 37.7604L46.8435 38.3189V37.2042L47.5537 36.69L47.5557 37.3736L48.3995 36.7624L49.2433 37.3736L49.2453 36.69L50.0413 37.2663V33.8901H50.9737V32.3532H50.0413V28.9769L49.2453 29.5532L49.2433 28.8698L48.3995 29.4809L47.5556 28.8698L47.5538 29.5532L46.8435 29.039V27.9244L45.9645 28.4829L45.9625 27.7304L45.2019 28.4136L44.4411 27.7304L44.4391 28.4829L43.6457 27.9788V26.7767L42.8177 27.4026L42.8159 26.563L42.0041 27.289L41.1923 26.563L41.1905 27.4028L40.4481 26.8413V25.5593L39.3379 26.5713V25.3821L37.8022 26.3693L36.2667 25.3821V26.5713L35.1565 25.5593V26.8414L34.4139 27.4028L34.4121 26.563L33.6003 27.289L32.7886 26.563L32.7868 27.4028Z" fill="black"/>
<path d="M26.4448 29.7206L26.4468 29.0371L27.2053 29.5866L27.2309 29.568L27.9638 29.0371L27.9658 29.7206L28.7614 29.1447V37.0983L27.9658 36.5225L27.9638 37.206L27.2053 36.6565L26.4468 37.206L26.4448 36.5225L25.6492 37.0983V33.8042H24.7168V32.4389H25.6492V29.1447L26.4448 29.7206Z" fill="#1E9A1C"/>
<path d="M32.8743 26.7543L33.6008 27.404L34.3272 26.7543L34.329 27.5747L35.1568 26.9489V39.2944L34.329 38.6686L34.3272 39.489L33.6008 38.8394L32.8743 39.489L32.8727 38.6686L32.0449 39.2944V26.9489L32.8727 27.5747L32.8743 26.7543Z" fill="#1E9A1C"/>
<path d="M42.7316 26.7543L42.0051 27.404L41.2787 26.7543L41.2769 27.5747L40.4492 26.9489V39.2944L41.2769 38.6686L41.2787 39.489L42.0051 38.8394L42.7316 39.489L42.7334 38.6686L43.5612 39.2944V26.9489L42.7334 27.5747L42.7316 26.7543Z" fill="#1E9A1C"/>
<path d="M49.1604 29.7206L49.1584 29.0371L48.3999 29.5866L48.3742 29.568L47.6412 29.0371L47.6392 29.7206L46.8438 29.1447V37.0983L47.6392 36.5225L47.6412 37.206L48.3999 36.6565L49.1584 37.206L49.1604 36.5225L49.9559 37.0983V33.8042H50.8883V32.4389H49.9559V29.1447L49.1604 29.7206Z" fill="#1E9A1C"/>
<path d="M29.7282 27.9221L30.4037 28.529L31.0791 27.9221L31.0811 28.6388L31.9597 28.0804V38.1629L31.0811 37.6047L31.0791 38.3212L30.4037 37.7145L29.7282 38.3212L29.7262 37.6047L28.8477 38.1629V28.0804L29.7262 28.6388L29.7282 27.9221Z" fill="#FDD406"/>
<path d="M36.3524 26.7653L35.2422 25.7534V40.4899L36.3524 39.4779V40.7042L37.8021 39.7721H37.8024L39.2521 40.7042V39.4779L40.3624 40.4899V25.7534L39.2521 26.7653V25.5391L37.8024 26.4711H37.8021L36.3524 25.5391V26.7653Z" fill="#FDD406"/>
<path d="M45.878 27.9221L45.2025 28.529L44.5269 27.9221L44.5251 28.6388L43.6465 28.0804V38.1629L44.5251 37.6047L44.5269 38.3212L45.2025 37.7145L45.878 38.3212L45.88 37.6047L46.7585 38.1629V28.0804L45.88 28.6388L45.878 27.9221Z" fill="#FDD406"/>
<path d="M26.8602 31.6731C26.9573 31.771 27.0733 31.8206 27.2051 31.8206C27.3367 31.8206 27.4528 31.771 27.55 31.6731C27.8537 31.3671 27.8639 30.8137 27.8609 30.4154C27.8609 30.4154 27.5098 30.7864 27.4464 30.8534C27.4022 30.7771 27.2051 30.4366 27.2051 30.4366C27.2051 30.4366 27.0079 30.7771 26.9636 30.8534C26.9003 30.7864 26.5492 30.4154 26.5492 30.4154C26.5462 30.8137 26.5565 31.3671 26.8602 31.6731Z" fill="black"/>
<path d="M30.1949 30.816L29.9391 30.5604V30.0511L29.3516 30.5956L30.4018 31.6459L31.452 30.5956L30.8645 30.0511V30.5604L30.6088 30.816V29.9137L31.0618 29.5248L30.4018 28.958L29.7418 29.5248L30.1949 29.9137V30.816Z" fill="black"/>
<path d="M33.394 29.8039L33.1383 29.5482V29.0389L32.5508 29.5834L33.601 30.6337L34.6513 29.5834L34.0637 29.0389V29.5482L33.8079 29.8039V28.9015L34.261 28.5126L33.601 27.9459L32.941 28.5126L33.394 28.9015V29.8039Z" fill="black"/>
<path d="M27.2051 30.6077C27.2575 30.6981 27.4297 30.9956 27.4297 30.9956C27.4297 30.9956 27.6724 30.7391 27.7715 30.6345C27.7596 31.0843 27.6608 31.4396 27.4891 31.6125C27.4086 31.6937 27.3131 31.7348 27.2051 31.7348C27.097 31.7348 27.0014 31.6937 26.921 31.6127C26.7493 31.4396 26.6506 31.0843 26.6387 30.6345C26.7377 30.7392 26.9803 30.9956 26.9803 30.9956C27.0552 30.8663 27.1302 30.7369 27.2051 30.6077Z" fill="white"/>
<path d="M33.7218 28.8622V30.0109L34.149 29.5838V29.2353L34.5272 29.586L33.6006 30.5126L32.6738 29.586L33.0521 29.2353V29.5838L33.4793 30.0109V28.8622L33.0721 28.5127L33.6006 28.059L34.1289 28.5127L33.7218 28.8622Z" fill="white"/>
<path d="M30.5245 29.8743V31.023L30.9517 30.5958V30.2474L31.33 30.5979L30.4032 31.5247L29.4766 30.5979L29.8548 30.2474V30.5958L30.282 31.023V29.8743L29.8748 29.5248L30.4032 29.071L30.9317 29.5248L30.5245 29.8743Z" fill="#D91C16"/>
<path d="M48.7433 31.6731C48.6462 31.771 48.5302 31.8206 48.3984 31.8206C48.2668 31.8206 48.1507 31.771 48.0535 31.6731C47.7498 31.3671 47.7396 30.8137 47.7426 30.4154C47.7426 30.4154 48.0938 30.7864 48.1571 30.8534C48.2013 30.7771 48.3984 30.4366 48.3984 30.4366C48.3984 30.4366 48.5956 30.7771 48.6399 30.8534C48.7032 30.7864 49.0543 30.4154 49.0543 30.4154C49.0573 30.8137 49.047 31.3671 48.7433 31.6731Z" fill="black"/>
<path d="M45.4066 30.8158L45.6625 30.5602V30.051L46.25 30.5955L45.1998 31.6458L44.1495 30.5955L44.737 30.051V30.5602L44.9928 30.8158V29.9136L44.5398 29.5246L45.1998 28.9579L45.8598 29.5246L45.4066 29.9136V30.8158Z" fill="black"/>
<path d="M42.2114 29.8039L42.4672 29.5482V29.0389L43.0547 29.5834L42.0044 30.6337L40.9542 29.5834L41.5417 29.0389V29.5482L41.7976 29.8039V28.9015L41.3444 28.5126L42.0044 27.9459L42.6644 28.5126L42.2114 28.9015V29.8039Z" fill="black"/>
<path d="M48.3984 30.6077C48.346 30.6981 48.1738 30.9956 48.1738 30.9956C48.1738 30.9956 47.9312 30.7391 47.832 30.6345C47.8439 31.0843 47.9427 31.4396 48.1144 31.6125C48.1949 31.6937 48.2904 31.7348 48.3984 31.7348C48.5066 31.7348 48.6021 31.6937 48.6825 31.6127C48.8542 31.4396 48.953 31.0843 48.9648 30.6345C48.8658 30.7392 48.6232 30.9956 48.6232 30.9956C48.5483 30.8663 48.4733 30.7369 48.3984 30.6077Z" fill="white"/>
<path d="M41.8817 28.8622V30.0109L41.4545 29.5838V29.2353L41.0763 29.586L42.0029 30.5126L42.9297 29.586L42.5514 29.2353V29.5838L42.1242 30.0109V28.8622L42.5314 28.5127L42.0029 28.059L41.4746 28.5127L41.8817 28.8622Z" fill="white"/>
<path d="M45.0809 29.8743V31.023L44.6537 30.5958V30.2474L44.2755 30.5979L45.2023 31.5247L46.1289 30.5979L45.7507 30.2474V30.5958L45.3235 31.023V29.8743L45.7306 29.5248L45.2023 29.071L44.6738 29.5248L45.0809 29.8743Z" fill="#D91C16"/>
<path d="M39.0583 30.1873L38.7143 29.7119L39.5965 28.8974L38.7739 28.2216V28.7004L38.4299 28.9947V28.1263L39.207 27.5535L37.8012 26.5173L36.3954 27.5535L37.1726 28.1263V28.9947L36.8286 28.7004V28.2216L36.0059 28.8974L36.8882 29.7119L36.5442 30.1873H39.0583Z" fill="black"/>
<path d="M36.7124 30.1017L37.0025 29.7006L36.1367 28.9014L36.7431 28.4031V28.74L37.2586 29.1811V28.0831L36.5402 27.5537L37.8015 26.624L39.0628 27.5537L38.3445 28.0831V29.1811L38.8599 28.74V28.4031L39.4664 28.9014L38.6006 29.7006L38.8908 30.1017H36.7124Z" fill="#D91C16"/>
<path d="M37.1582 27.5537L37.8006 28.0271L38.443 27.5537L37.8006 27.0802L37.7751 27.099L37.1582 27.5537Z" fill="black"/>
<path d="M37.8026 27.1868C37.845 27.218 38.2254 27.4984 38.3006 27.5537C38.2254 27.609 37.845 27.8895 37.8026 27.9207C37.7602 27.8895 37.3797 27.609 37.3047 27.5537C37.3797 27.4984 37.7602 27.218 37.8026 27.1868Z" fill="#1E9A1C"/>
<path d="M26.8602 34.57C26.9573 34.4721 27.0733 34.4226 27.2051 34.4226C27.3367 34.4226 27.4528 34.4721 27.55 34.57C27.8537 34.876 27.8639 35.4295 27.8609 35.8278C27.8609 35.8278 27.5098 35.4567 27.4464 35.3898C27.4022 35.4661 27.2051 35.8065 27.2051 35.8065C27.2051 35.8065 27.0079 35.4661 26.9636 35.3898C26.9003 35.4567 26.5492 35.8278 26.5492 35.8278C26.5462 35.4295 26.5565 34.876 26.8602 34.57Z" fill="black"/>
<path d="M30.1949 35.4272L29.9391 35.6828V36.1921L29.3516 35.6475L30.4018 34.5973L31.452 35.6475L30.8645 36.1921V35.6828L30.6088 35.4272V36.3295L31.0618 36.7184L30.4018 37.2852L29.7418 36.7184L30.1949 36.3295V35.4272Z" fill="black"/>
<path d="M33.394 36.4393L33.1383 36.695V37.2043L32.5508 36.6597L33.601 35.6095L34.6513 36.6597L34.0637 37.2043V36.695L33.8079 36.4393V37.3417L34.261 37.7306L33.601 38.2972L32.941 37.7306L33.394 37.3417V36.4393Z" fill="black"/>
<path d="M27.2051 35.6355C27.2575 35.545 27.4297 35.2475 27.4297 35.2475C27.4297 35.2475 27.6724 35.5041 27.7715 35.6086C27.7596 35.1589 27.6608 34.8035 27.4891 34.6306C27.4086 34.5495 27.3131 34.5083 27.2051 34.5083C27.097 34.5083 27.0014 34.5495 26.921 34.6305C26.7493 34.8035 26.6506 35.1589 26.6387 35.6086C26.7377 35.504 26.9803 35.2475 26.9803 35.2475C27.0552 35.3769 27.1302 35.5063 27.2051 35.6355Z" fill="white"/>
<path d="M33.7218 37.3809V36.2323L34.149 36.6594V37.0078L34.5272 36.6572L33.6006 35.7306L32.6738 36.6572L33.0521 37.0078V36.6594L33.4793 36.2323V37.3809L33.0721 37.7305L33.6006 38.1842L34.1289 37.7305L33.7218 37.3809Z" fill="white"/>
<path d="M30.5245 36.3688V35.2202L30.9517 35.6474V35.9958L31.33 35.6452L30.4032 34.7185L29.4766 35.6452L29.8548 35.9958V35.6474L30.282 35.2202V36.3688L29.8748 36.7184L30.4032 37.1721L30.9317 36.7184L30.5245 36.3688Z" fill="#D91C16"/>
<path d="M48.7433 34.57C48.6462 34.4721 48.5302 34.4226 48.3984 34.4226C48.2668 34.4226 48.1507 34.4721 48.0535 34.57C47.7498 34.876 47.7396 35.4295 47.7426 35.8278C47.7426 35.8278 48.0938 35.4567 48.1571 35.3898C48.2013 35.4661 48.3984 35.8065 48.3984 35.8065C48.3984 35.8065 48.5956 35.4661 48.6399 35.3898C48.7032 35.4567 49.0543 35.8278 49.0543 35.8278C49.0573 35.4295 49.047 34.876 48.7433 34.57Z" fill="black"/>
<path d="M45.4066 35.4273L45.6625 35.6829V36.1922L46.25 35.6476L45.1998 34.5974L44.1495 35.6476L44.737 36.1922V35.6829L44.9928 35.4273V36.3296L44.5398 36.7185L45.1998 37.2853L45.8598 36.7185L45.4066 36.3296V35.4273Z" fill="black"/>
<path d="M42.2114 36.4393L42.4672 36.695V37.2043L43.0547 36.6597L42.0044 35.6095L40.9542 36.6597L41.5417 37.2043V36.695L41.7976 36.4393V37.3417L41.3444 37.7306L42.0044 38.2972L42.6644 37.7306L42.2114 37.3417V36.4393Z" fill="black"/>
<path d="M48.3984 35.6355C48.346 35.545 48.1738 35.2475 48.1738 35.2475C48.1738 35.2475 47.9312 35.5041 47.832 35.6086C47.8439 35.1589 47.9427 34.8035 48.1144 34.6306C48.1949 34.5495 48.2904 34.5083 48.3984 34.5083C48.5066 34.5083 48.6021 34.5495 48.6825 34.6305C48.8542 34.8035 48.953 35.1589 48.9648 35.6086C48.8658 35.504 48.6232 35.2475 48.6232 35.2475C48.5483 35.3769 48.4733 35.5063 48.3984 35.6355Z" fill="white"/>
<path d="M41.8817 37.3809V36.2323L41.4545 36.6594V37.0078L41.0763 36.6572L42.0029 35.7306L42.9297 36.6572L42.5514 37.0078V36.6594L42.1242 36.2323V37.3809L42.5314 37.7305L42.0029 38.1842L41.4746 37.7305L41.8817 37.3809Z" fill="white"/>
<path d="M45.0809 36.3688V35.2202L44.6537 35.6474V35.9958L44.2755 35.6452L45.2023 34.7185L46.1289 35.6452L45.7507 35.9958V35.6474L45.3235 35.2202V36.3688L45.7306 36.7184L45.2023 37.1721L44.6738 36.7184L45.0809 36.3688Z" fill="#D91C16"/>
<path d="M39.0583 36.0559L38.7143 36.5313L39.5965 37.3458L38.7739 38.0216V37.5428L38.4299 37.2484V38.1169L39.207 38.6896L37.8012 39.7258L36.3954 38.6896L37.1726 38.1169V37.2484L36.8286 37.5428V38.0216L36.0059 37.3458L36.8882 36.5313L36.5442 36.0559H39.0583Z" fill="black"/>
<path d="M36.7124 36.1414L37.0025 36.5426L36.1367 37.3418L36.7431 37.84V37.5032L37.2586 37.0621V38.1601L36.5402 38.6895L37.8015 39.6191L39.0628 38.6895L38.3445 38.1601V37.0621L38.8599 37.5032V37.84L39.4664 37.3418L38.6006 36.5426L38.8908 36.1414H36.7124Z" fill="#D91C16"/>
<path d="M37.1582 38.6894L37.8006 38.216L38.443 38.6894L37.8006 39.163L37.7751 39.1441L37.1582 38.6894Z" fill="black"/>
<path d="M37.8026 39.0564C37.845 39.0252 38.2254 38.7448 38.3006 38.6894C38.2254 38.6341 37.845 38.3537 37.8026 38.3225C37.7602 38.3537 37.3797 38.6341 37.3047 38.6894C37.3797 38.7448 37.7602 39.0252 37.8026 39.0564Z" fill="#1E9A1C"/>
<path d="M49.1837 32.63H47.7762V32.069H43.4741L40.4793 30.1018H40.4666H35.1263L32.1316 32.069H27.8294V32.63H26.4219V33.6135H27.8294V34.1745H32.1316L35.1263 36.1418H40.4793L43.4741 34.1745H47.7762V33.6135H49.1837V32.63Z" fill="black"/>
<path d="M35.1519 30.1904L32.154 32.1502H27.9167V32.7116H26.5078V33.5273H27.9167V34.0887H32.154L35.1519 36.0591H40.459L43.4463 34.0887H47.6942V33.5273H49.1031V32.7116H47.6942V32.1502H43.4463L40.459 30.1904H35.1519ZM35.2154 30.4764H40.3849L43.1286 32.2773V32.5527H46.19V33.6968H43.1286V33.9722L40.3849 35.7625H35.2154L32.4824 33.9722V33.6968H29.4103V32.5527H32.4824V32.2773L35.2154 30.4764Z" fill="#D91C16"/>
<path d="M40.363 30.5652L43.0388 32.3219V32.6336H46.1051V33.6097H43.0388V33.9216L40.363 35.6783H35.2421L32.5664 33.9216V33.6097H29.5V32.6336H32.5664V32.3219L35.2421 30.5652H40.363Z" fill="#D91C16"/>
<path d="M33.9121 34.1195L35.0707 34.9893L35.8328 34.417L35.3898 34.0844L35.0707 34.324L34.7983 34.1195L39.1614 30.8438H38.2753L33.9121 34.1195ZM36.4411 35.3997H37.3272L41.6904 32.1239L40.5319 31.2543L39.7697 31.8264L40.2127 32.1589L40.5319 31.9193L40.8043 32.1239L36.4411 35.3997ZM38.2753 35.3997H39.1613L34.7983 32.1239L35.0707 31.9193L35.3898 32.1589L35.8328 31.8264L35.0707 31.2543L33.9121 32.1239L38.2753 35.3997ZM40.8043 34.1195L40.5319 34.324L40.2127 34.0844L39.7697 34.417L40.5319 34.9893L41.6904 34.1195L37.3272 30.8438H36.4411L40.8043 34.1195Z" fill="black"/>
<path d="M33.0352 33.1217L33.8138 33.6389L34.5925 33.1217L33.8138 32.6045L33.0352 33.1217Z" fill="black"/>
<path d="M37.0234 33.1217L37.8021 33.6389L38.5808 33.1217L37.8021 32.6045L37.0234 33.1217Z" fill="black"/>
<path d="M42.5691 33.1217L41.7904 33.6389L41.0117 33.1217L41.7904 32.6045L42.5691 33.1217Z" fill="black"/>
<path d="M41.5474 34.1195L40.5317 34.8821L39.9121 34.417L40.2125 34.1915L40.5317 34.4312L40.9468 34.1195L36.6978 30.9296H37.2984L41.5474 34.1195ZM38.9041 35.3139H38.3036L34.0547 32.1239L35.0705 31.3613L35.6898 31.8264L35.3896 32.0518L35.0705 31.8122L34.6553 32.1239L38.9041 35.3139ZM37.2984 35.3139H36.6978L40.9468 32.1239L40.5317 31.8122L40.2125 32.0518L39.9121 31.8264L40.5317 31.3613L41.5474 32.1239L37.2984 35.3139ZM38.3036 30.9296H38.9041L34.6553 34.1195L35.0705 34.4312L35.3896 34.1915L35.6898 34.417L35.0705 34.8821L34.0547 34.1195L38.3036 30.9296Z" fill="#FDD406"/>
<path d="M33.8152 32.7075L34.4389 33.1218L33.8152 33.536L33.1914 33.1218L33.8152 32.7075Z" fill="#1E9A1C"/>
<path d="M37.8033 32.7075L38.4271 33.1218L37.8033 33.536L37.1797 33.1218L37.8033 32.7075Z" fill="#1E9A1C"/>
<path d="M41.7917 32.7075L41.168 33.1218L41.7917 33.536L42.4154 33.1218L41.7917 32.7075Z" fill="#1E9A1C"/>
<path d="M24.1064 54.8302L23.8009 55.2623L24.3486 55.6811L23.8008 56.1L24.1063 56.5321L24.7427 56.6061L25.3589 56.1299L26.8952 57.1059V56.2954L25.9283 55.6811L26.8952 55.0669V54.2565L25.3589 55.2324L24.7427 54.7564L24.1064 54.8302Z" fill="black"/>
<path d="M24.1064 52.0145L23.8009 52.4468L24.3486 52.8656L23.8008 53.2844L24.1063 53.7166L24.7427 53.7904L25.3589 53.3142L26.8952 54.2903V53.4797L25.9283 52.8656L26.8952 52.2513V51.4408L25.3589 52.4168L24.7427 51.9407L24.1064 52.0145Z" fill="black"/>
<path d="M24.1064 59.3477L23.8009 58.9156L24.3486 58.4968L23.8008 58.0779L24.1063 57.6457L24.7427 57.5719L25.3589 58.048L26.8952 57.072V57.8825L25.9283 58.4968L26.8952 59.1109V59.9214L25.3589 58.9455L24.7427 59.4216L24.1064 59.3477Z" fill="black"/>
<path d="M51.4999 54.8301L51.8054 55.2622L51.2577 55.681L51.8054 56.0999L51.4999 56.532L50.8636 56.6059L50.2474 56.1298L48.7109 57.1057V56.2953L49.678 55.681L48.7109 55.0668V54.2563L50.2474 55.2323L50.8636 54.7563L51.4999 54.8301Z" fill="black"/>
<path d="M51.4999 52.0146L51.8054 52.4469L51.2577 52.8657L51.8054 53.2845L51.4999 53.7167L50.8636 53.7905L50.2474 53.3144L48.7109 54.2904V53.4798L49.678 52.8657L48.7109 52.2514V51.4409L50.2474 52.4169L50.8636 51.9408L51.4999 52.0146Z" fill="black"/>
<path d="M51.4999 59.3477L51.8054 58.9156L51.2577 58.4968L51.8054 58.0779L51.4999 57.6457L50.8636 57.5719L50.2474 58.048L48.7109 57.072V57.8825L49.678 58.4968L48.7109 59.1109V59.9214L50.2474 58.9455L50.8636 59.4216L51.4999 59.3477Z" fill="black"/>
<path d="M45.3496 47.146V48.3172H46.2015V48.8348H47.0384V47.8923H46.292V47.146H45.3496Z" fill="black"/>
<path d="M47.8594 48.9929V50.164H48.7104V50.6817H49.5481V49.7392H48.8019V48.9929H47.8594Z" fill="black"/>
<path d="M30.2571 47.146V48.3172H29.405V48.8348H28.5684V47.8923H29.3146V47.146H30.2571Z" fill="black"/>
<path d="M45.3496 64.2166V63.0454H46.2015V62.5278H47.0384V63.4702H46.292V64.2166H45.3496Z" fill="black"/>
<path d="M30.2571 64.2166V63.0454H29.405V62.5278H28.5684V63.4702H29.3146V64.2166H30.2571Z" fill="black"/>
<path d="M47.8594 62.3695V61.1985H48.7104V60.6808H49.5481V61.6231H48.8019V62.3695H47.8594Z" fill="black"/>
<path d="M27.7474 48.9929V50.164H26.8961V50.6817H26.0586V49.7392H26.8049V48.9929H27.7474Z" fill="black"/>
<path d="M27.7474 62.3695V61.1985H26.8961V60.6808H26.0586V61.6231H26.8049V62.3695H27.7474Z" fill="black"/>
<path d="M40.9546 47.1187C40.9002 47.0659 40.3044 46.4875 40.3044 46.4875L39.6658 47.0793C39.6658 47.0793 40.1662 47.5649 40.2225 47.6196L39.5039 48.3172H40.5707L40.9546 47.9445L41.3385 48.3172H42.4051L41.6866 47.6196C41.7429 47.5649 42.2431 47.0793 42.2431 47.0793L41.6046 46.4875C41.3877 46.6977 41.1712 46.9083 40.9546 47.1187Z" fill="black"/>
<path d="M37.8021 47.1187C37.7479 47.0659 37.1521 46.4875 37.1521 46.4875L36.5134 47.0793C36.5134 47.0793 37.0137 47.5649 37.0701 47.6196L36.3516 48.3172H37.4182L37.8021 47.9445L38.186 48.3172H39.2527L38.5342 47.6196C38.5905 47.5649 39.0908 47.0793 39.0908 47.0793L38.4523 46.4875C38.2353 46.6977 38.0188 46.9083 37.8021 47.1187Z" fill="black"/>
<path d="M34.6537 47.1187C34.708 47.0659 35.3038 46.4875 35.3038 46.4875L35.9425 47.0793C35.9425 47.0793 35.4421 47.5649 35.3858 47.6196L36.1044 48.3172H35.0376L34.6537 47.9445L34.2698 48.3172H33.2031L33.9217 47.6196C33.8654 47.5649 33.365 47.0793 33.365 47.0793L34.0036 46.4875C34.2206 46.6977 34.4371 46.9083 34.6537 47.1187Z" fill="black"/>
<path d="M40.9546 64.2437C40.9002 64.2964 40.3044 64.8748 40.3044 64.8748L39.6658 64.2831C39.6658 64.2831 40.1662 63.7976 40.2225 63.7428L39.5039 63.0453H40.5707L40.9546 63.418L41.3385 63.0453H42.4051L41.6866 63.7428C41.7429 63.7976 42.2431 64.2831 42.2431 64.2831L41.6046 64.8748C41.3877 64.6647 41.1712 64.4541 40.9546 64.2437Z" fill="black"/>
<path d="M37.8021 64.2437C37.7479 64.2964 37.1521 64.8748 37.1521 64.8748L36.5134 64.2831C36.5134 64.2831 37.0137 63.7976 37.0701 63.7428L36.3516 63.0453H37.4182L37.8021 63.418L38.186 63.0453H39.2527L38.5342 63.7428C38.5905 63.7976 39.0908 64.2831 39.0908 64.2831L38.4523 64.8748C38.2353 64.6647 38.0188 64.4541 37.8021 64.2437Z" fill="black"/>
<path d="M34.6537 64.2437C34.708 64.2964 35.3038 64.8748 35.3038 64.8748L35.9425 64.2831C35.9425 64.2831 35.4421 63.7976 35.3858 63.7428L36.1044 63.0453H35.0376L34.6537 63.418L34.2698 63.0453H33.2031L33.9217 63.7428C33.8654 63.7976 33.365 64.2831 33.365 64.2831L34.0036 64.8748C34.2206 64.6647 34.4371 64.4541 34.6537 64.2437Z" fill="black"/>
<path d="M26.809 56.3426V56.9499L25.3534 56.0253L24.7173 56.5169L24.1536 56.4515L23.918 56.118L24.4892 55.6812L23.918 55.2444L24.1538 54.911L24.7173 54.8456L25.3534 55.3371L26.809 54.4125V55.0198L25.7678 55.6812L26.809 56.3426Z" fill="#1E9A1C"/>
<path d="M26.809 53.5269V54.1343L25.3534 53.2097L24.7173 53.7012L24.1536 53.6358L23.918 53.3024L24.4892 52.8656L23.918 52.4289L24.1538 52.0954L24.7173 52.0299L25.3534 52.5214L26.809 51.5969V52.2042L25.7678 52.8656L26.809 53.5269Z" fill="#1E9A1C"/>
<path d="M26.809 57.8355V57.2281L25.3534 58.1528L24.7173 57.6611L24.1536 57.7265L23.918 58.06L24.4892 58.4968L23.918 58.9336L24.1538 59.2671L24.7173 59.3325L25.3534 58.841L26.809 59.7656V59.1582L25.7678 58.4968L26.809 57.8355Z" fill="#1E9A1C"/>
<path d="M48.7969 56.3426V56.9499L50.2525 56.0253L50.8885 56.5169L51.4521 56.4515L51.6878 56.118L51.1166 55.6812L51.6878 55.2444L51.4521 54.911L50.8885 54.8456L50.2525 55.3371L48.7969 54.4125V55.0198L49.838 55.6812L48.7969 56.3426Z" fill="#1E9A1C"/>
<path d="M48.7969 53.5269V54.1343L50.2525 53.2097L50.8885 53.7012L51.4521 53.6358L51.6878 53.3024L51.1166 52.8656L51.6878 52.4289L51.4521 52.0954L50.8885 52.0299L50.2525 52.5214L48.7969 51.5969V52.2042L49.838 52.8656L48.7969 53.5269Z" fill="#1E9A1C"/>
<path d="M48.7969 57.8355V57.2281L50.2525 58.1528L50.8885 57.6611L51.4521 57.7265L51.6878 58.06L51.1166 58.4968L51.6878 58.9336L51.4521 59.2671L50.8885 59.3325L50.2525 58.841L48.7969 59.7656V59.1582L49.838 58.4968L48.7969 57.8355Z" fill="#1E9A1C"/>
<path d="M46.2046 47.2317V47.9781H46.9509V48.7491H46.2856V48.2315H45.4336V47.2317H46.2046Z" fill="#1E9A1C"/>
<path d="M48.7163 49.0785V49.8248H49.4626V50.5959H48.7972V50.0783H47.9453V49.0785H48.7163Z" fill="#1E9A1C"/>
<path d="M29.4006 47.2317V47.9781H28.6543V48.7491H29.3197V48.2315H30.1716V47.2317H29.4006Z" fill="#1E9A1C"/>
<path d="M46.2046 64.1306V63.3843H46.9509V62.6133H46.2856V63.1308H45.4336V64.1306H46.2046Z" fill="#1E9A1C"/>
<path d="M29.4007 64.1306V63.3843H28.6543V62.6133H29.3197V63.1308H30.1717V64.1306H29.4007Z" fill="#1E9A1C"/>
<path d="M48.7163 62.2838V61.5375H49.4626V60.7665H48.7972V61.284H47.9453V62.2838H48.7163Z" fill="#1E9A1C"/>
<path d="M26.8889 49.0785V49.8248H26.1426V50.5959H26.808V50.0783H27.6599V49.0785H26.8889Z" fill="#1E9A1C"/>
<path d="M26.889 62.2838V61.5375H26.1426V60.7665H26.808V61.284H27.66V62.2838H26.889Z" fill="#1E9A1C"/>
<path d="M40.3026 46.6057C40.3558 46.6573 40.9541 47.2381 40.9541 47.2381C40.9541 47.2381 41.5523 46.6573 41.6054 46.6057C41.6558 46.6523 42.0625 47.0291 42.1182 47.0807C42.0606 47.1365 41.563 47.6196 41.563 47.6196L42.1932 48.2315H41.3728L40.9541 47.8249L40.5353 48.2315H39.7148L40.3451 47.6196C40.3451 47.6196 39.8474 47.1365 39.7898 47.0807C39.8455 47.0291 40.2522 46.6523 40.3026 46.6057Z" fill="#1E9A1C"/>
<path d="M37.1504 46.6057C37.2035 46.6573 37.8017 47.2381 37.8017 47.2381C37.8017 47.2381 38.3999 46.6573 38.4532 46.6057C38.5036 46.6523 38.9102 47.0291 38.9659 47.0807C38.9084 47.1365 38.4107 47.6196 38.4107 47.6196L39.041 48.2315H38.2204L37.8017 47.8249L37.3831 48.2315H36.5625L37.1927 47.6196C37.1927 47.6196 36.6951 47.1365 36.6376 47.0807C36.6933 47.0291 37.1 46.6523 37.1504 46.6057Z" fill="#1E9A1C"/>
<path d="M35.3047 46.6057C35.2514 46.6573 34.6532 47.2381 34.6532 47.2381C34.6532 47.2381 34.055 46.6573 34.0018 46.6057C33.9514 46.6523 33.5447 47.0291 33.4891 47.0807C33.5467 47.1365 34.0443 47.6196 34.0443 47.6196L33.4141 48.2315H34.2345L34.6532 47.8249L35.072 48.2315H35.8924L35.2622 47.6196C35.2622 47.6196 35.7598 47.1365 35.8174 47.0807C35.7617 47.0291 35.3551 46.6523 35.3047 46.6057Z" fill="#1E9A1C"/>
<path d="M40.3026 64.7567C40.3558 64.705 40.9541 64.1242 40.9541 64.1242C40.9541 64.1242 41.5523 64.705 41.6054 64.7567C41.6558 64.7101 42.0625 64.3333 42.1182 64.2818C42.0606 64.2259 41.563 63.7429 41.563 63.7429L42.1932 63.131H41.3728L40.9541 63.5374L40.5353 63.131H39.7148L40.3451 63.7429C40.3451 63.7429 39.8474 64.2259 39.7898 64.2818C39.8455 64.3333 40.2522 64.7101 40.3026 64.7567Z" fill="#1E9A1C"/>
<path d="M37.1504 64.7567C37.2035 64.705 37.8017 64.1242 37.8017 64.1242C37.8017 64.1242 38.3999 64.705 38.4532 64.7567C38.5036 64.7101 38.9102 64.3333 38.9659 64.2818C38.9084 64.2259 38.4107 63.7429 38.4107 63.7429L39.041 63.131H38.2204L37.8017 63.5374L37.3831 63.131H36.5625L37.1927 63.7429C37.1927 63.7429 36.6951 64.2259 36.6376 64.2818C36.6933 64.3333 37.1 64.7101 37.1504 64.7567Z" fill="#1E9A1C"/>
<path d="M35.3047 64.7567C35.2514 64.705 34.6532 64.1242 34.6532 64.1242C34.6532 64.1242 34.055 64.705 34.0018 64.7567C33.9514 64.7101 33.5447 64.3333 33.4891 64.2818C33.5467 64.2259 34.0443 63.7429 34.0443 63.7429L33.4141 63.131H34.2345L34.6532 63.5374L35.072 63.131H35.8924L35.2622 63.7429C35.2622 63.7429 35.7598 64.2259 35.8174 64.2818C35.7617 64.3333 35.3551 64.7101 35.3047 64.7567Z" fill="#1E9A1C"/>
<path d="M29.3188 61.2841V63.1309H46.2859V61.2841H48.7961V50.0782H46.2859V48.2314H29.3188V50.0782H26.8086V61.2841H29.3188Z" fill="black"/>
<path d="M29.411 48.3155V50.1589H26.9004V61.1969H29.411V63.0403H46.2012V61.1969H48.712V50.1588H46.2011V48.3154L29.411 48.3155ZM30.4915 49.0254H45.1208V50.805L45.7245 51.2501H48.0022V60.1165H45.714L45.1208 60.5508V62.341H30.4915V60.5613L29.8877 60.1165H27.5995V51.2501H29.8771L30.4915 50.805L30.4915 49.0254Z" fill="#FDD406"/>
<path d="M30.5748 49.1101V50.7416L32.7782 49.1101H30.5748ZM42.8204 49.1101L45.0238 50.7416V49.1101H42.8204ZM27.6934 51.3349V52.8603L29.7697 51.3349H27.6934ZM45.8292 51.3349L47.916 52.8708V51.3349H45.8292ZM47.916 58.485L45.8292 60.0318H47.916V58.485ZM27.6934 58.4955V60.0318H29.7696L27.6934 58.4955ZM30.5747 60.625V62.2457H32.7675L30.5747 60.625ZM45.0237 60.625L42.8312 62.2457H45.0237V60.625Z" fill="#D91C16"/>
<path d="M42.6788 49.1118C42.7013 49.1284 47.8819 52.9547 47.9163 52.9801V58.3822C47.8819 58.4077 42.7013 62.2339 42.6788 62.2506H32.9269C32.9044 62.2339 27.7239 58.4077 27.6895 58.3822V52.9801C27.7239 52.9547 32.9044 49.1284 32.9269 49.1118H42.6788Z" fill="#1E9A1C"/>
<path d="M28.9361 59.0042L28.334 58.3053L28.8993 57.6493L28.334 56.9932L28.8993 56.3373L28.334 55.6813L28.8993 55.0252L28.334 54.3692L28.8992 53.7131L28.334 53.0571L28.9361 52.3583H46.6684L47.2706 53.0571L46.7053 53.7131L47.2706 54.3692L46.7053 55.0252L47.2706 55.6813L46.7053 56.3373L47.2706 56.9932L46.7053 57.6493L47.2706 58.3053L46.6684 59.0042H28.9361ZM41.1253 49.9569L40.4264 49.3547L39.7702 49.9201L39.1143 49.3547L38.4583 49.9201L37.8022 49.3547L37.1462 49.9201L36.4901 49.3547L35.8342 49.9201L35.1782 49.3547L34.4793 49.9569V61.4055L35.1782 62.0078L35.8342 61.4425L36.4901 62.0077L37.1462 61.4423L37.8022 62.0077L38.4583 61.4423L39.1143 62.0077L39.7702 61.4425L40.4264 62.0078L41.1253 61.4055V49.9569Z" fill="black"/>
<path d="M39.7302 49.9961L39.1171 49.4678L38.5039 49.9961V61.3661L39.1171 61.8944L39.7302 61.3661V49.9961Z" fill="#FDD406"/>
<path d="M37.1052 49.9961L36.492 49.4678L35.8789 49.9961V61.3661L36.492 61.8944L37.1052 61.3661V49.9961Z" fill="#FDD406"/>
<path d="M28.9775 58.9185L28.4492 58.3053L28.9775 57.6921H46.6313L47.1595 58.3053L46.6313 58.9185H28.9775Z" fill="#FDD406"/>
<path d="M46.6311 55.0679L47.1595 55.6811L46.6311 56.2942H28.9776L28.4492 55.6811L28.9776 55.0679H46.6311Z" fill="#FDD406"/>
<path d="M46.6313 53.6704L47.1595 53.0572L46.6313 52.4441H28.9775L28.4492 53.0572L28.9775 53.6704H46.6313Z" fill="#FDD406"/>
<path d="M41.0427 49.9961L40.4296 49.4678L39.8164 49.9961V61.3661L40.4296 61.8944L41.0425 61.3662L41.0427 49.9961Z" fill="#D91C16"/>
<path d="M35.7928 49.9961L35.1796 49.4678L34.5664 49.9961V61.3661L35.1796 61.8944L35.7928 61.3661V49.9961Z" fill="#D91C16"/>
<path d="M28.9776 57.6063L28.4492 56.9931L28.9776 56.3799H46.6311L47.1595 56.9931L46.6311 57.6063H28.9776Z" fill="#D91C16"/>
<path d="M28.9776 54.9824L28.4492 54.3692L28.9776 53.756H46.6311L47.1595 54.3692L46.6311 54.9824H28.9776Z" fill="#D91C16"/>
<path d="M38.4178 61.3661L37.8046 61.8944L37.1914 61.3661V49.9961L37.8046 49.4678L38.4178 49.9961V61.3661Z" fill="#D91C16"/>
<path d="M43.7289 50.218H31.8328V51.1628H30.3125V60.1997H31.8328V61.1444H43.7717V60.1997H45.292V51.1628H43.7717V50.218H43.7289Z" fill="black"/>
<path d="M31.92 50.3069V51.2499H30.3945V60.1164H31.92V61.0591H33.17L30.6806 58.9723V52.3937L33.17 50.3069H31.92ZM42.4392 50.3069L44.9179 52.3937V58.9723L42.4392 61.0591H43.689V60.1164H45.204V51.2499H43.689V50.3069L42.4392 50.3069Z" fill="#D91C16"/>
<path d="M33.308 50.3069C33.2845 50.3267 30.7957 52.4109 30.7656 52.4361V58.9297C30.7957 58.9551 33.2845 61.0392 33.308 61.059H42.3016C42.3253 61.0392 44.8033 58.9549 44.8334 58.9297V52.4361C44.8033 52.4109 42.3253 50.3267 42.3016 50.3069H33.308ZM33.4351 50.6671H42.1639L44.4733 52.6056V58.7603L42.1639 60.6882H33.4351L31.1364 58.7603V52.6056L33.4351 50.6671Z" fill="#1E9A1C"/>
<path d="M35.7471 58.8577L36.1379 59.0265L36.2097 59.4829L35.7179 59.9156L36.4323 60.6064H35.7449L35.2533 60.1333L34.7617 60.6064H34.0742L34.7888 59.9156L34.2968 59.4829L34.3688 59.0265L34.7594 58.8577L35.2533 59.2526L35.2801 59.2312L35.7471 58.8577Z" fill="#1E9A1C"/>
<path d="M38.298 58.8577L38.6886 59.0265L38.7606 59.4829L38.2688 59.9156L38.9832 60.6064H38.2958L37.8041 60.1333L37.3126 60.6064H36.625L37.3396 59.9156L36.8477 59.4829L36.9197 59.0265L37.3103 58.8577L37.8041 59.2526L37.8309 59.2312L38.298 58.8577Z" fill="#1E9A1C"/>
<path d="M39.8571 58.8577L39.4665 59.0265L39.3945 59.4829L39.8864 59.9156L39.1719 60.6064H39.8594L40.351 60.1333L40.8425 60.6064H41.53L40.8155 59.9156L41.3074 59.4829L41.2354 59.0265L40.8448 58.8577L40.351 59.2526L40.3241 59.2312L39.8571 58.8577Z" fill="#1E9A1C"/>
<path d="M35.7471 52.5045L36.1379 52.3357L36.2097 51.8794L35.7179 51.4467L36.4323 50.7559H35.7449L35.2533 51.2289L34.7617 50.7559H34.0742L34.7888 51.4467L34.2968 51.8793L34.3688 52.3357L34.7594 52.5045L35.2533 52.1097L35.2801 52.1311L35.7471 52.5045Z" fill="#1E9A1C"/>
<path d="M38.298 52.5045L38.6886 52.3357L38.7606 51.8794L38.2688 51.4467L38.9832 50.7559H38.2958L37.8041 51.2289L37.3126 50.7559H36.625L37.3396 51.4467L36.8477 51.8793L36.9197 52.3357L37.3103 52.5045L37.8041 52.1097L37.8309 52.1311L38.298 52.5045Z" fill="#1E9A1C"/>
<path d="M39.8571 52.5045L39.4665 52.3357L39.3945 51.8794L39.8864 51.4467L39.1719 50.7559H39.8594L40.351 51.2289L40.8425 50.7559H41.53L40.8155 51.4467L41.3074 51.8793L41.2354 52.3357L40.8448 52.5045L40.351 52.1097L40.3241 52.1311L39.8571 52.5045Z" fill="#1E9A1C"/>
<path d="M44.3848 53.2332L43.9948 53.5561L44.3848 53.8789V54.4142L43.785 53.92C43.785 53.92 43.3817 54.2854 43.3546 54.31C43.32 54.3056 42.9315 54.2568 42.8931 54.252C42.8759 54.2204 42.7546 53.9968 42.7305 53.952C42.7707 53.9119 43.1277 53.5561 43.1277 53.5561C43.1277 53.5561 42.7707 53.2002 42.7305 53.1601C42.7546 53.1154 42.8759 52.8916 42.8931 52.8601C42.9315 52.8553 43.32 52.8064 43.3546 52.802C43.3817 52.8266 43.785 53.1922 43.785 53.1922L44.3848 52.698V53.2332Z" fill="#1E9A1C"/>
<path d="M44.3848 55.3582L43.9948 55.6811L44.3848 56.0038V56.5392L43.785 56.045C43.785 56.045 43.3817 56.4104 43.3546 56.435C43.32 56.4306 42.9315 56.3817 42.8931 56.377C42.8759 56.3454 42.7546 56.1216 42.7305 56.077C42.7707 56.0369 43.1277 55.6811 43.1277 55.6811C43.1277 55.6811 42.7707 55.3251 42.7305 55.285C42.7546 55.2404 42.8759 55.0166 42.8931 54.985C42.9315 54.9803 43.32 54.9314 43.3546 54.927C43.3817 54.9516 43.785 55.317 43.785 55.317L44.3848 54.823V55.3582Z" fill="#1E9A1C"/>
<path d="M44.3848 58.129L43.9948 57.8061L44.3848 57.4833V56.948L43.785 57.4423C43.785 57.4423 43.3817 57.0768 43.3546 57.0522C43.32 57.0565 42.9315 57.1054 42.8931 57.1101C42.8759 57.1417 42.7546 57.3655 42.7305 57.4101C42.7707 57.4503 43.1277 57.8061 43.1277 57.8061C43.1277 57.8061 42.7707 58.162 42.7305 58.2021C42.7546 58.2468 42.8759 58.4706 42.8931 58.5021C42.9315 58.5069 43.32 58.5558 43.3546 58.5601C43.3817 58.5355 43.785 58.1701 43.785 58.1701L44.3848 58.6642V58.129Z" fill="#1E9A1C"/>
<path d="M31.2227 53.2333L31.6125 53.5562L31.2227 53.879V54.4144L31.8224 53.9201C31.8224 53.9201 32.2257 54.2855 32.2529 54.3101C32.2873 54.3058 32.676 54.2569 32.7144 54.2521C32.7315 54.2206 32.8527 53.9969 32.877 53.9521C32.8368 53.912 32.4798 53.5562 32.4798 53.5562C32.4798 53.5562 32.8368 53.2003 32.877 53.1602C32.8527 53.1155 32.7315 52.8917 32.7144 52.8602C32.676 52.8554 32.2873 52.8065 32.2529 52.8022C32.2257 52.8268 31.8224 53.1923 31.8224 53.1923L31.2227 52.6981V53.2333Z" fill="#1E9A1C"/>
<path d="M31.2227 55.3583L31.6125 55.6812L31.2227 56.0039V56.5394L31.8224 56.0451C31.8224 56.0451 32.2257 56.4105 32.2529 56.4351C32.2873 56.4308 32.676 56.3818 32.7144 56.3771C32.7315 56.3456 32.8527 56.1218 32.877 56.0771C32.8368 56.037 32.4798 55.6812 32.4798 55.6812C32.4798 55.6812 32.8368 55.3252 32.877 55.2851C32.8527 55.2405 32.7315 55.0167 32.7144 54.9851C32.676 54.9804 32.2873 54.9315 32.2529 54.9272C32.2257 54.9518 31.8224 55.3172 31.8224 55.3172L31.2227 54.8231V55.3583Z" fill="#1E9A1C"/>
<path d="M31.2227 58.129L31.6125 57.8061L31.2227 57.4833V56.948L31.8224 57.4423C31.8224 57.4423 32.2257 57.0768 32.2529 57.0522C32.2873 57.0565 32.676 57.1054 32.7144 57.1101C32.7315 57.1417 32.8527 57.3655 32.877 57.4101C32.8368 57.4503 32.4798 57.8061 32.4798 57.8061C32.4798 57.8061 32.8368 58.162 32.877 58.2021C32.8527 58.2468 32.7315 58.4706 32.7144 58.5021C32.676 58.5069 32.2873 58.5558 32.2529 58.5601C32.2257 58.5355 31.8224 58.1701 31.8224 58.1701L31.2227 58.6642V58.129Z" fill="#1E9A1C"/>
<path d="M33.4665 50.7522C33.4433 50.7716 31.3461 52.5274 31.2525 52.606C31.4415 52.7627 31.6244 52.9266 31.8139 53.0827C31.8619 53.0393 32.2271 52.7118 32.2271 52.7118L32.7673 52.786L32.9792 53.1779C32.9792 53.1779 32.6497 53.5077 32.5978 53.5593C32.6497 53.6108 32.9792 53.9406 32.9792 53.9406L32.7673 54.3326L32.2271 54.3961C32.2271 54.3961 31.8619 54.0794 31.8139 54.036L31.2207 54.5339V54.7033C31.4203 54.8685 31.6136 55.0362 31.8139 55.2012C31.8619 55.1579 32.2271 54.8411 32.2271 54.8411L32.7673 54.9046L32.9792 55.2966C32.9792 55.2966 32.6497 55.6263 32.5978 55.6779C32.6497 55.7294 32.9792 56.0593 32.9792 56.0593L32.7673 56.4618L32.2271 56.5254C32.2271 56.5254 31.8619 56.1981 31.8139 56.1546L31.2207 56.6525V56.8326L31.8139 57.3305C31.8619 57.2871 32.2271 56.9597 32.2271 56.9597L32.7673 57.0339L32.9792 57.4258C32.9792 57.4258 32.6497 57.7556 32.5978 57.8072C32.6497 57.8588 32.9792 58.1885 32.9792 58.1885L32.7673 58.5805L32.2271 58.6546C32.2271 58.6546 31.8619 58.3273 31.8139 58.2839C31.6252 58.4393 31.4408 58.5946 31.2525 58.75C31.3461 58.8286 33.4433 60.5843 33.4665 60.6038H33.9537L34.6635 59.9152L34.208 59.5127L34.2927 58.9618L34.7694 58.7606L35.2567 59.1419L35.7334 58.7606L36.2101 58.9618L36.3054 59.5127L35.8393 59.9152L36.5279 60.572L37.2165 59.9152L36.7504 59.5127L36.8351 58.9618L37.3224 58.7606L37.7991 59.1419L38.2864 58.7606L38.7631 58.9618L38.8478 59.5127L38.3923 59.9152L39.0703 60.5826L39.7588 59.9152L39.3033 59.5127L39.3881 58.9618L39.8754 58.7606L40.3521 59.1419L40.8287 58.7606L41.316 58.9618L41.4008 59.5127L40.9453 59.9152L41.655 60.6038H42.1317C42.1549 60.5843 44.252 58.8286 44.3457 58.75C44.157 58.5946 43.9732 58.4397 43.7843 58.2839C43.7363 58.3273 43.3817 58.6546 43.3817 58.6546L42.8415 58.5805L42.619 58.1885C42.619 58.1885 42.9486 57.8588 43.0004 57.8072C42.9486 57.7556 42.619 57.4258 42.619 57.4258L42.8415 57.0339L43.3817 56.9597C43.3817 56.9597 43.7363 57.2871 43.7843 57.3305L44.3775 56.8326V56.6525L43.7843 56.1546C43.7363 56.1981 43.3817 56.5254 43.3817 56.5254L42.8415 56.4618L42.619 56.0593C42.619 56.0593 42.9486 55.7294 43.0004 55.6779C42.9486 55.6263 42.619 55.2966 42.619 55.2966L42.8415 54.9046L43.3817 54.8411C43.3817 54.8411 43.7363 55.1579 43.7843 55.2012C43.9832 55.0374 44.179 54.8772 44.3775 54.7139V54.5233L43.7843 54.036C43.7363 54.0794 43.3817 54.3961 43.3817 54.3961L42.8415 54.3326L42.619 53.9406C42.619 53.9406 42.9486 53.6108 43.0004 53.5593C42.9486 53.5077 42.619 53.1779 42.619 53.1779L42.8415 52.786L43.3817 52.7118C43.3817 52.7118 43.7363 53.0393 43.7843 53.0826C43.9741 52.9262 44.1665 52.7729 44.3563 52.6165C44.2834 52.5553 42.155 50.7716 42.1317 50.7521H41.655L40.9453 51.4406L41.4008 51.8432L41.316 52.394L40.8287 52.6059L40.352 52.2245L39.8754 52.6059L39.3881 52.394L39.3033 51.8432L39.7588 51.4406L39.0809 50.7839L38.3923 51.4406L38.8478 51.8432L38.7631 52.394L38.2864 52.6059L37.7991 52.2245L37.3224 52.6059L36.8351 52.394L36.7504 51.8432L37.2165 51.4406L36.5279 50.7839L35.8393 51.4406L36.3054 51.8432L36.2101 52.394L35.7334 52.6059L35.2567 52.2245L34.7694 52.6059L34.2927 52.394L34.208 51.8432L34.6635 51.4406L33.9431 50.7521L33.4665 50.7522ZM31.2207 55.4661V55.9004L31.475 55.678L31.2207 55.4661Z" fill="#D91C16"/>
<path d="M35.2576 60.2542L34.8867 60.6036H35.6176L35.2576 60.2542Z" fill="white"/>
<path d="M37.8014 60.2542L37.4414 60.6036H38.1723L37.8014 60.2542Z" fill="white"/>
<path d="M40.3549 60.2542L39.9844 60.6036H40.7257L40.3549 60.2542Z" fill="white"/>
<path d="M34.877 50.7522L35.2583 51.1122L35.6292 50.7522H34.877Z" fill="white"/>
<path d="M37.4297 50.7522L37.8005 51.1122L38.1819 50.7522H37.4297Z" fill="white"/>
<path d="M39.9844 50.7522L40.3549 51.1122L40.7257 50.7522H39.9844Z" fill="white"/>
<path d="M44.3792 53.3474L44.125 53.5593L44.3792 53.7606V53.3474Z" fill="white"/>
<path d="M44.3792 55.4659L44.125 55.6778L44.3792 55.8897V55.4659Z" fill="white"/>
<path d="M44.3792 57.5952L44.125 57.8071L44.3792 58.0189V57.5952Z" fill="white"/>
<path d="M31.2227 53.337V53.7713L31.4769 53.5594L31.2227 53.337Z" fill="white"/>
<path d="M31.2227 55.4659V55.9002L31.4769 55.6778L31.2227 55.4659Z" fill="white"/>
<path d="M31.2227 57.5848V58.0191L31.4769 57.8072L31.2227 57.5848Z" fill="white"/>
<path d="M39.9835 54.9714V54.2131H39.2161V53.3818H36.3897V54.2131H35.6223V54.9714H34.5625V56.391H35.6223V57.1491H36.3897V57.9805H39.2161V57.1491H39.9835V56.391H41.0432V54.9714H39.9835Z" fill="black"/>
<path d="M37.7602 53.4675V54.3244L36.5453 55.015V55.6383H34.6484V55.057H35.7082V54.2989H36.4756V53.4675H37.7602Z" fill="#FDD406"/>
<path d="M37.8457 57.8949V57.038L39.0605 56.3473V55.7241H40.9574V56.3053H39.8977V57.0636H39.1303V57.8949H37.8457Z" fill="#FDD406"/>
<path d="M39.0605 55.6383V55.015L37.8457 54.3244V53.4675H39.1303V54.2989H39.8977V55.057H40.9574V55.6383H39.0605Z" fill="white"/>
<path d="M34.6484 55.7241H36.5453V56.3473L37.7602 57.038V57.8949H36.4756V57.0636H35.7082V56.3053H34.6484V55.7241Z" fill="white"/>
<path d="M36.6309 55.7241V56.3018L37.7599 56.9438V55.7241H36.6309Z" fill="#D91C16"/>
<path d="M37.7599 54.4187L36.6309 55.0606V55.6383H37.7599V54.4187Z" fill="#1E9A1C"/>
<path d="M38.9748 55.6384V55.0607L37.8457 54.4188V55.6384H38.9748Z" fill="#D91C16"/>
<path d="M37.8457 56.9438L38.9748 56.3018V55.7241H37.8457V56.9438Z" fill="#1E9A1C"/>
<path d="M27.5316 70.746V73.0894H25.2985V75.2148H23.0352V81.2665H25.2985V83.392H27.5316V85.7353H35.6511L37.079 86.5933L36.3928 87.0055H33.4976L33.2479 86.7239H35.8717L35.1325 85.9795H31.3792L33.0798 87.7499H36.5994L37.8016 87.0275L39.0039 87.7499H42.5238L44.2242 85.9795H40.471L39.7317 86.7239H42.3556L42.1058 87.0055H39.2104L38.5243 86.5933L39.9523 85.7353H48.0718V83.392H50.3049V81.2665H52.5681V75.2148H50.3049V73.0894H48.0718V70.746H39.9523L38.5243 69.8881L39.2104 69.4758H42.1058L42.3556 69.7574H39.7317L40.471 70.5018H44.2242L42.5238 68.7314H39.0039L37.8016 69.4538L36.5994 68.7314H33.0798L31.3792 70.5018H35.1325L35.8717 69.7574H33.2479L33.4976 69.4758H36.3928L37.079 69.8881L35.6511 70.746H27.5316Z" fill="#D91C16"/>
<path d="M39.9286 85.646H47.99V83.3049H50.2146V81.1757H52.4815V75.2964H50.2146V73.1778H47.99V70.8367H39.9286L36.5811 68.8134H33.1171L31.5811 70.4129H35.0981L35.6701 69.8409H33.0536L33.4561 69.3854H36.4222L40.2146 71.6735H47.1426V74.0146H49.3777V76.1439H51.6447V80.3388H49.3777V82.468H47.1426V84.8091H40.2146L36.4222 87.0867H33.4561L33.0536 86.6418H35.6701L35.0981 86.0697H31.5811L33.1171 87.6693H36.5811L39.9286 85.646ZM35.3841 84.8091H28.4562V82.468H26.2316V80.3388H23.9646V76.1439H26.2316V74.0146H28.4562V71.6735H35.3841L39.1871 69.3854H42.1426L42.5452 69.8409H39.9392L40.5113 70.4129H44.0282L42.4922 68.8134H39.0282L35.6807 70.8367H27.6193V73.1778H25.3841V75.2964H23.1172V81.1757H25.3841V83.3049H27.6193V85.646H35.6807L39.0282 87.6693H42.4922L44.0282 86.0697H40.5113L39.9392 86.6418H42.5452L42.1426 87.0867H39.1871L35.3841 84.8091Z" fill="#FDD406"/>
<path d="M46.4708 81.7908V84.1341H40.0308L37.8019 85.4733L35.573 84.1341H29.1331V81.7908H26.8999V79.6652H24.6367V76.8161H26.8999V74.6905H29.1331V72.3473H35.5612H35.573L37.8019 71.0081L40.0308 72.3473H46.4708V74.6905H48.7039V76.8161H50.9671V79.6652H48.7039V81.7908H46.4708Z" fill="#1E9A1C"/>
<path d="M29.9766 80.9698V83.2378H33.5166L29.9766 80.8899V80.9698Z" fill="black"/>
<path d="M29.9766 75.5117V73.2435H33.5166L29.9766 75.5914V75.5117Z" fill="black"/>
<path d="M45.6279 80.9698V83.2378H42.0879L45.6279 80.8899V80.9698Z" fill="black"/>
<path d="M45.6279 75.5117V73.2435H42.0879L45.6279 75.5914V75.5117Z" fill="black"/>
<path d="M30.0625 81.0497L33.2324 83.1522H30.0625V81.0497Z" fill="#D91C16"/>
<path d="M30.0625 75.4319C30.1857 75.35 33.0164 73.4725 33.2324 73.3293H30.0625V75.4319Z" fill="#D91C16"/>
<path d="M45.543 81.0496C45.4196 81.1314 42.5889 83.0088 42.373 83.1521H45.543V81.0496Z" fill="#D91C16"/>
<path d="M45.543 75.4319C45.4196 75.3501 42.5889 73.4726 42.373 73.3293H45.543V75.4319Z" fill="#D91C16"/>
<path d="M34.4911 77.6189V76.4606H34.096L32.2007 75.2756L32.1781 75.2899L30.3056 76.4606H29.9105V77.6189H29.0195V78.8628H29.9105V80.0209H30.3056L32.2007 81.2059L34.096 80.0209H34.4911V78.8628H35.8474V77.6189H34.4911Z" fill="black"/>
<path d="M32.2022 75.377L33.9358 76.4608H30.4688L32.2022 75.377ZM33.9355 80.0211L32.2022 81.1049L30.4689 80.0211H33.9355Z" fill="#D91C16"/>
<path d="M33.5134 77.7047V78.7773H31.3516V77.7047H33.5134Z" fill="#D91C16"/>
<path d="M34.4059 78.8627V79.9352H32.2441V78.8627H34.4059Z" fill="#FDD406"/>
<path d="M32.1579 78.8628V79.9354H29.9961V78.8628H32.1579Z" fill="#FDD406"/>
<path d="M35.7634 77.7047V78.7773H33.6016V77.7047H35.7634Z" fill="#FDD406"/>
<path d="M31.2673 77.7047V78.7773H29.1055V77.7047H31.2673Z" fill="#FDD406"/>
<path d="M34.4059 76.5465V77.619H32.2441V76.5465H34.4059Z" fill="#FDD406"/>
<path d="M32.1579 76.5465V77.619H29.9961V76.5465H32.1579Z" fill="#FDD406"/>
<path d="M30.6722 77.9429V78.5388H29.7012V77.9429H30.6722Z" fill="black"/>
<path d="M31.5648 76.7847V77.3806H30.5938V76.7847H31.5648Z" fill="black"/>
<path d="M33.8109 76.7847V77.3806H32.8398V76.7847H33.8109Z" fill="black"/>
<path d="M32.9203 77.9429V78.5388H31.9492V77.9429H32.9203Z" fill="black"/>
<path d="M35.1664 77.9429V78.5388H34.1953V77.9429H35.1664Z" fill="black"/>
<path d="M33.8109 79.1011V79.697H32.8398V79.1011H33.8109Z" fill="black"/>
<path d="M31.5648 79.1011V79.697H30.5938V79.1011H31.5648Z" fill="black"/>
<path d="M30.5811 78.0343H29.793V78.4473H30.5811V78.0343Z" fill="white"/>
<path d="M31.4718 76.8761H30.6836V77.2891H31.4718V76.8761Z" fill="white"/>
<path d="M33.7198 76.8761H32.9316V77.2891H33.7198V76.8761Z" fill="white"/>
<path d="M32.8272 78.0343H32.0391V78.4473H32.8272V78.0343Z" fill="white"/>
<path d="M35.0772 78.0343H34.2891V78.4473H35.0772V78.0343Z" fill="white"/>
<path d="M33.7198 79.1925H32.9316V79.6055H33.7198V79.1925Z" fill="white"/>
<path d="M31.4718 79.1925H30.6836V79.6055H31.4718V79.1925Z" fill="white"/>
<path d="M41.1125 77.6189V76.4606H41.5075L43.4028 75.2756L43.4255 75.2899L45.2979 76.4606H45.693V77.6189H46.584V78.8628H45.693V80.0209H45.2979L43.4028 81.2059L41.5075 80.0209H41.1125V78.8628H39.7561V77.6189H41.1125Z" fill="black"/>
<path d="M43.4033 75.3768L41.6697 76.4607H45.1367L43.4033 75.3768ZM41.6699 80.021L43.4033 81.1048L45.1366 80.021H41.6699Z" fill="#D91C16"/>
<path d="M42.0882 77.7046V78.7771H44.25V77.7046H42.0882Z" fill="#D91C16"/>
<path d="M41.1976 78.8627V79.9352H43.3594V78.8627H41.1976Z" fill="#FDD406"/>
<path d="M43.4456 78.8627V79.9352H45.6074V78.8627H43.4456Z" fill="#FDD406"/>
<path d="M39.8421 77.7047V78.7773H42.0039V77.7047H39.8421Z" fill="#FDD406"/>
<path d="M44.3362 77.7047V78.7773H46.498V77.7047H44.3362Z" fill="#FDD406"/>
<path d="M41.1976 76.5465V77.619H43.3594V76.5465H41.1976Z" fill="#FDD406"/>
<path d="M43.4456 76.5465V77.619H45.6074V76.5465H43.4456Z" fill="#FDD406"/>
<path d="M44.9313 77.9429V78.5388H45.9023V77.9429H44.9313Z" fill="black"/>
<path d="M44.0407 76.7847V77.3806H45.0117V76.7847H44.0407Z" fill="black"/>
<path d="M41.7926 76.7847V77.3806H42.7637V76.7847H41.7926Z" fill="black"/>
<path d="M42.6852 77.9429V78.5388H43.6562V77.9429H42.6852Z" fill="black"/>
<path d="M40.4372 77.9429V78.5388H41.4082V77.9429H40.4372Z" fill="black"/>
<path d="M41.7926 79.1011V79.697H42.7637V79.1011H41.7926Z" fill="black"/>
<path d="M44.0407 79.1011V79.697H45.0117V79.1011H44.0407Z" fill="black"/>
<path d="M45.0243 78.0343H45.8125V78.4473H45.0243V78.0343Z" fill="white"/>
<path d="M44.1337 76.8761H44.9219V77.2891H44.1337V76.8761Z" fill="white"/>
<path d="M41.8857 76.8761H42.6738V77.2891H41.8857V76.8761Z" fill="white"/>
<path d="M42.7782 78.0343H43.5664V78.4473H42.7782V78.0343Z" fill="white"/>
<path d="M40.5282 78.0343H41.3164V78.4473H40.5282V78.0343Z" fill="white"/>
<path d="M41.8857 79.1925H42.6738V79.6055H41.8857V79.1925Z" fill="white"/>
<path d="M44.1337 79.1925H44.9219V79.6055H44.1337V79.1925Z" fill="white"/>
<path d="M40.0929 75.6841V76.8422H39.6978L37.8026 78.0272L37.7799 78.013L35.9074 76.8422H35.5124V75.6841H34.3887V74.4402H35.5124V73.282H35.9074L37.8026 72.0969L39.6978 73.282H40.0929V74.4402H41.2166V75.6841H40.0929Z" fill="black"/>
<path d="M37.8037 77.9261L39.5372 76.8421H36.0703L37.8037 77.9261ZM39.5371 73.282L37.8037 72.198L36.0704 73.282H39.5371Z" fill="#FDD406"/>
<path d="M40.0075 74.4401V73.3677H37.8457V74.4401H40.0075Z" fill="#D91C16"/>
<path d="M37.7595 74.4401V73.3677H35.5977V74.4401H37.7595Z" fill="#D91C16"/>
<path d="M41.1306 75.5983V74.5258H38.9688V75.5983H41.1306Z" fill="#D91C16"/>
<path d="M38.8825 75.5983V74.5258H36.7207V75.5983H38.8825Z" fill="#D91C16"/>
<path d="M36.6363 75.5983V74.5258H34.4746V75.5983H36.6363Z" fill="#D91C16"/>
<path d="M40.0075 76.7565V75.684H37.8457V76.7565H40.0075Z" fill="#D91C16"/>
<path d="M37.7595 76.7565V75.684H35.5977V76.7565H37.7595Z" fill="#D91C16"/>
<path d="M37.1664 73.6058V74.2018H36.1953V73.6058H37.1664Z" fill="black"/>
<path d="M39.4124 73.6058V74.2018H38.4414V73.6058H39.4124Z" fill="black"/>
<path d="M36.0414 74.764V75.36H35.0703V74.764H36.0414Z" fill="black"/>
<path d="M38.2894 74.764V75.36H37.3184V74.764H38.2894Z" fill="black"/>
<path d="M40.5374 74.764V75.36H39.5664V74.764H40.5374Z" fill="black"/>
<path d="M37.1664 75.9222V76.5182H36.1953V75.9222H37.1664Z" fill="black"/>
<path d="M39.4124 75.9222V76.5182H38.4414V75.9222H39.4124Z" fill="black"/>
<path d="M37.0733 73.6973H36.2852V74.1103H37.0733V73.6973Z" fill="white"/>
<path d="M39.3214 73.6973H38.5332V74.1103H39.3214V73.6973Z" fill="white"/>
<path d="M35.9503 74.8555H35.1621V75.2685H35.9503V74.8555Z" fill="white"/>
<path d="M38.1983 74.8555H37.4102V75.2685H38.1983V74.8555Z" fill="white"/>
<path d="M40.4444 74.8555H39.6562V75.2685H40.4444V74.8555Z" fill="white"/>
<path d="M37.0733 76.0137H36.2852V76.4267H37.0733V76.0137Z" fill="white"/>
<path d="M39.3214 76.0137H38.5332V76.4267H39.3214V76.0137Z" fill="white"/>
<path d="M40.0929 82.0416V83.1997H39.6978L37.8026 84.3847L37.7799 84.3706L35.9074 83.1997H35.5124V82.0416H34.3887V80.7977H35.5124V79.6396H35.9074L37.8026 78.4545L39.6978 79.6396H40.0929V80.7977H41.2166V82.0416H40.0929Z" fill="black"/>
<path d="M37.8037 84.2836L39.5372 83.1997H36.0703L37.8037 84.2836ZM39.5371 79.6395L37.8037 78.5555L36.0704 79.6395H39.5371Z" fill="#FDD406"/>
<path d="M40.0075 80.7977V79.7252H37.8457V80.7977H40.0075Z" fill="#D91C16"/>
<path d="M37.7595 80.7977V79.7252H35.5977V80.7977H37.7595Z" fill="#D91C16"/>
<path d="M41.1306 81.9559V80.8833H38.9688V81.9559H41.1306Z" fill="#D91C16"/>
<path d="M38.8825 81.9559V80.8833H36.7207V81.9559H38.8825Z" fill="#D91C16"/>
<path d="M36.6363 81.9559V80.8833H34.4746V81.9559H36.6363Z" fill="#D91C16"/>
<path d="M40.0075 83.1141V82.0415H37.8457V83.1141H40.0075Z" fill="#D91C16"/>
<path d="M37.7595 83.1141V82.0415H35.5977V83.1141H37.7595Z" fill="#D91C16"/>
<path d="M37.1664 79.9634V80.5593H36.1953V79.9634H37.1664Z" fill="black"/>
<path d="M39.4124 79.9634V80.5593H38.4414V79.9634H39.4124Z" fill="black"/>
<path d="M36.0414 81.1216V81.7175H35.0703V81.1216H36.0414Z" fill="black"/>
<path d="M38.2894 81.1216V81.7175H37.3184V81.1216H38.2894Z" fill="black"/>
<path d="M40.5374 81.1216V81.7175H39.5664V81.1216H40.5374Z" fill="black"/>
<path d="M37.1664 82.2798V82.8757H36.1953V82.2798H37.1664Z" fill="black"/>
<path d="M39.4124 82.2798V82.8757H38.4414V82.2798H39.4124Z" fill="black"/>
<path d="M37.0733 80.0548H36.2852V80.4678H37.0733V80.0548Z" fill="white"/>
<path d="M39.3214 80.0548H38.5332V80.4678H39.3214V80.0548Z" fill="white"/>
<path d="M35.9503 81.213H35.1621V81.626H35.9503V81.213Z" fill="white"/>
<path d="M38.1983 81.213H37.4102V81.626H38.1983V81.213Z" fill="white"/>
<path d="M40.4444 81.213H39.6562V81.626H40.4444V81.213Z" fill="white"/>
<path d="M37.0733 82.3712H36.2852V82.7843H37.0733V82.3712Z" fill="white"/>
<path d="M39.3214 82.3712H38.5332V82.7843H39.3214V82.3712Z" fill="white"/>
<path d="M25.5371 95.8708L33.9474 91.3445H33.9582H41.6553L50.0656 95.8708V103.329L41.6553 107.855H33.9474L25.5371 103.329V95.8708Z" fill="black"/>
<path d="M33.9745 91.4302L25.627 95.9217V103.273L33.9745 107.765H41.6331L49.9809 103.273V95.9217L41.6331 91.4302H33.9745ZM34.1226 92.0339H41.485L49.3877 96.2817V102.924L41.485 107.172H34.1182L26.2157 102.924V96.2817L34.1226 92.0339Z" fill="#1E9A1C"/>
<path d="M37.8441 99.5567V107.085H41.4632L49.2998 102.867V99.6425L37.7584 99.6425V92.1145H34.1395L26.3027 96.3318V99.5567L37.8441 99.5567Z" fill="#FDD406"/>
<path d="M37.7584 99.5567V107.085H34.1395L26.3027 102.867V99.6425L37.8441 99.6425V92.1145H41.4632L49.2998 96.3318V99.5567L37.7584 99.5567Z" fill="white"/>
<path d="M38.5047 106.663V104.488L37.8013 104.934L37.0977 104.488V106.663H34.9094L36.386 105.58V104.036L34.1341 102.607H32.5605V96.5926H34.1341L36.386 95.1638V93.6193L34.9094 92.5364H35.0403H37.0977V94.7123L37.8013 94.2659L38.5047 94.7123V92.5364H40.6932L39.2165 93.6193V95.1638L41.4684 96.5926H43.0419V102.607H41.4684L39.2165 104.036V105.58L40.6932 106.663H38.5047Z" fill="black"/>
<path d="M38.5933 92.627V94.8727L37.8411 94.3961V95.0317L41.2838 97.2242H42.4174V99.5551H42.9577V96.6737H41.4428L39.1336 95.2117V93.5802L40.4363 92.627H38.5933ZM32.6504 99.6398V102.521H34.1546L36.4746 103.993V105.625L35.1716 106.578H37.015V104.332L37.7563 104.809V104.152L34.3136 101.981H33.1906V99.6398L32.6504 99.6398Z" fill="#FDD406"/>
<path d="M35.1716 92.627L36.4746 93.5802V95.2117L34.1546 96.6737H32.6504V99.5551H33.1906V97.2242H34.3136L37.7563 95.0422V94.3961L37.015 94.8727V92.627L35.1716 92.627ZM42.4173 99.6398V101.981H41.2838L37.8411 104.152V104.809L38.5933 104.332V106.578H40.4363L39.1336 105.625V103.993L41.4428 102.521H42.9577V99.6398L42.4173 99.6398Z" fill="white"/>
<path d="M33.2734 101.892H34.341L37.8025 104.088L41.2639 101.892H42.3315V97.3083H41.2764H41.2639L37.8025 95.1122L34.341 97.3083H33.2734V101.892Z" fill="#D91C16"/>
<path d="M40.1987 100.689H40.9378V100.339H40.3818V99.7036H41.5701V101.325H40.4309L40.431 102.431H38.0861V100.842H39.1181V101.477H38.7184V101.795H39.7988V101.187L35.4065 98.5108H34.6674V98.8604H35.2235V99.496H34.0352V97.8751H35.1743V96.7692H35.2172H37.5191V98.3582H36.4871V97.7226H36.8868V97.4048H35.8066V98.0124L40.1987 100.689ZM39.7988 98.0124V97.4048H38.7184V97.7226H39.1181V98.3582H38.0861V96.7692H40.431V97.8751H41.5701V99.496H40.3818V98.8604H40.9379V98.5108H40.1987L35.8066 101.187V101.795H36.8868V101.477H36.4871V100.841H37.5191V102.431H35.1743V101.325H34.0352V99.7036H35.2235V100.339H34.6674V100.689H35.4065L39.7988 98.0124Z" fill="black"/>
<path d="M39.8846 101.139V101.881H38.6327V101.392H39.0326V100.927H38.1719V102.345H40.3454V101.239H41.4845V99.7896H40.4677V100.254H41.0236V100.775H40.1749L35.7209 98.0606V97.3193H36.9728V97.8084H36.5731V98.2727H37.4336V96.855H35.2601V97.9609H34.1211V99.4105H35.1379V98.9462H34.5819V98.4252H35.4307L39.8846 101.139ZM40.1749 98.4252H41.0237V98.9462H40.4677V99.4105H41.4845V97.9609H40.3455V96.855H38.1721V98.2727H39.0326V97.8084H38.6329V97.3193H39.8846V98.0606L35.4307 100.775H34.5819V100.254H35.1379V99.7895H34.1211V101.239H35.2601V102.345H37.4336V100.927H36.5731V101.392H36.9728V101.881H35.7209V101.139L40.1749 98.4252Z" fill="white"/>
<path d="M47.6108 99.9767V102.329H46.6097V101.498H45.6006V102.329H44.5996V99.9767H45.6006V100.807H46.6097V99.9767H47.6108Z" fill="black"/>
<path d="M44.0287 103.1V105.452H43.0277V104.621H42.0186V105.452H41.0176V103.1H42.0186V103.93H43.0277V103.1H44.0287Z" fill="black"/>
<path d="M47.6108 99.2225V96.8701H46.6097V97.7009H45.6006V96.8701H44.5996V99.2225H45.6006V98.3917H46.6097V99.2225H47.6108Z" fill="black"/>
<path d="M27.9922 99.9767V102.329H28.9932V101.498H30.0023V102.329H31.0033V99.9767H30.0023V100.807H28.9932V99.9767H27.9922Z" fill="black"/>
<path d="M27.9922 99.2225V96.8701H28.9932V97.7009H30.0023V96.8701H31.0033V99.2225H30.0023V98.3917H28.9932V99.2225H27.9922Z" fill="black"/>
<path d="M44.0287 96.0997V93.7473H43.0277V94.5781H42.0186V93.7473H41.0176V96.0997H42.0186V95.2689H43.0277V96.0997H44.0287Z" fill="black"/>
<path d="M31.5742 103.1V105.452H32.5753V104.621H33.5843V105.452H34.5854V103.1H33.5843V103.931H32.5753V103.1H31.5742Z" fill="black"/>
<path d="M31.5742 96.0997V93.7473H32.5753V94.5781H33.5843V93.7473H34.5854V96.0997H33.5843V95.2689H32.5753V96.0997H31.5742Z" fill="black"/>
<path d="M44.625 94.451V96.2375H47.9444L44.625 94.451Z" fill="black"/>
<path d="M30.9776 104.748V102.962H27.6582L30.9776 104.748Z" fill="black"/>
<path d="M30.9776 94.451V96.2375H27.6582L30.9776 94.451Z" fill="black"/>
<path d="M44.625 104.748V102.962H47.9444L44.625 104.748Z" fill="black"/>
<path d="M46.6937 101.413V102.244H47.5234V100.063H46.6937V100.893H45.5132V100.063H44.6836V102.244H45.5132V101.413H46.6937Z" fill="#D91C16"/>
<path d="M43.1117 104.536V105.366H43.9412V103.185H43.1117V104.016H41.9311V103.185H41.1016V105.366H41.9311V104.536H43.1117Z" fill="#D91C16"/>
<path d="M46.6937 97.7867V96.9559H47.5234V99.1368H46.6937V98.3059H45.5132V99.1368H44.6836V96.9559H45.5132V97.7867H46.6937Z" fill="#D91C16"/>
<path d="M28.9077 101.413V102.244H28.0781V100.063H28.9077V100.893H30.0882V100.063H30.9178V102.244H30.0882V101.413H28.9077Z" fill="#D91C16"/>
<path d="M28.9077 97.7867V96.9559H28.0781V99.1368H28.9077V98.3059H30.0882V99.1368H30.9178V96.9559H30.0882V97.7867H28.9077Z" fill="#D91C16"/>
<path d="M43.1117 94.6639V93.833H43.9412V96.014H43.1117V95.1831H41.9311V96.014H41.1016V93.833H41.9311V94.6639H43.1117Z" fill="#D91C16"/>
<path d="M32.4897 104.536V105.366H31.6602V103.185H32.4897V104.016H33.6703V103.185H34.5V105.366H33.6703V104.536H32.4897Z" fill="#D91C16"/>
<path d="M32.4897 94.6639V93.833H31.6602V96.014H32.4897V95.1831H33.6703V96.014H34.5V93.833H33.6703V94.6639H32.4897Z" fill="#D91C16"/>
<path d="M44.7162 94.5972V96.1545H47.6084L44.7162 94.5972ZM28.0002 103.051L30.8921 104.608V103.051H28.0002Z" fill="#FDD406"/>
<path d="M30.8919 94.5972L28 96.1545H30.8919V94.5972ZM44.716 103.051V104.608L47.6082 103.051H44.716Z" fill="white"/>
<path d="M51.3806 106.165C51.2208 106.846 50.679 107.361 50.5499 108.067C50.2914 107.33 50.0531 106.713 50.231 105.907C50.3583 105.33 50.8434 104.919 50.8995 104.326C51.4284 104.802 51.5423 105.476 51.3806 106.165ZM51.5147 109.02C51.0661 109.635 50.4426 110.107 49.754 110.421C49.8896 109.883 49.6352 109.477 49.3529 109.049C49.0127 108.535 48.8468 108.029 49.1241 107.436C49.2534 107.744 49.427 108 49.6308 108.264C49.9321 108.675 50.1302 109.04 50.1767 109.568C50.5251 109.309 50.6783 108.924 50.8646 108.551C51.1487 108.016 51.6071 107.569 52.1336 107.277C51.9937 107.877 51.8859 108.511 51.5147 109.02ZM48.999 110.853C49.0949 111.195 49.1775 111.533 49.1591 111.89C49.4555 111.571 49.8491 111.331 50.2002 111.073C50.6784 110.687 51.2358 110.414 51.6267 109.921C51.5684 110.646 51.2582 111.237 50.6693 111.678C50.0467 112.144 49.2959 112.395 48.6827 112.884C48.7745 112.225 48.5323 111.697 48.3258 111.091C48.1537 110.512 48.3203 109.924 48.7129 109.483C48.707 109.972 48.8613 110.392 48.999 110.853ZM47.6018 113.08C47.4728 113.58 47.1145 113.987 46.8698 114.433C47.5296 114.228 48.1117 113.87 48.7081 113.534C49.4185 113.147 50.1899 112.901 50.8329 112.39C50.5129 113.575 49.7197 114.262 48.5593 114.612C47.7659 114.851 47.0972 114.732 46.1345 115.121C46.2449 114.469 46.4394 113.766 46.7475 113.178C46.9867 112.753 47.2519 112.334 47.3996 111.866C47.6136 112.25 47.7149 112.642 47.6018 113.08ZM45.1741 114.893C44.9469 115.282 44.6471 115.61 44.2752 115.868C45.2118 115.928 45.9655 115.334 46.8786 115.308C47.4426 115.292 47.978 115.467 48.5532 115.415C47.8706 115.875 47.156 116.278 46.325 116.385C45.2448 116.525 44.2485 116.253 43.0568 116.359C43.6137 115.966 43.8924 115.44 44.2395 114.875C44.6916 114.168 45.1182 113.665 45.9974 113.551C45.6445 113.948 45.4391 114.439 45.1741 114.893ZM41.8478 116.447C43.4978 116.728 45.0789 117.091 46.7641 117.108C44.8778 117.765 43.1005 117.884 41.2297 117.205C40.2187 116.838 39.4435 116.642 38.6799 116.696C37.5641 116.777 36.2079 117.217 34.7071 118.8L34.1172 118.328C36.2683 116.411 39.0827 115.977 41.8477 116.447L41.8478 116.447Z" fill="#FDD406"/>
<path d="M24.2296 106.165C24.3894 106.846 24.9312 107.361 25.0603 108.067C25.3188 107.33 25.5571 106.713 25.3792 105.907C25.2518 105.33 24.7668 104.919 24.7106 104.326C24.1818 104.802 24.0679 105.476 24.2296 106.165ZM24.0955 109.02C24.5441 109.635 25.1676 110.107 25.8562 110.421C25.7206 109.883 25.975 109.477 26.2573 109.049C26.5975 108.535 26.7634 108.029 26.486 107.436C26.3568 107.744 26.1832 108 25.9794 108.264C25.6781 108.675 25.48 109.04 25.4335 109.568C25.085 109.309 24.9319 108.924 24.7456 108.551C24.4615 108.016 24.0031 107.569 23.4766 107.277C23.6165 107.877 23.7242 108.511 24.0955 109.02ZM26.6112 110.853C26.5153 111.195 26.4326 111.533 26.4511 111.89C26.1547 111.571 25.7611 111.331 25.41 111.073C24.9318 110.687 24.3744 110.414 23.9834 109.921C24.0418 110.646 24.352 111.237 24.9409 111.678C25.5635 112.144 26.3143 112.395 26.9275 112.884C26.8357 112.225 27.0779 111.697 27.2844 111.091C27.4565 110.512 27.2899 109.924 26.8973 109.483C26.9032 109.972 26.7488 110.392 26.6112 110.853ZM28.0084 113.08C28.1374 113.58 28.4957 113.987 28.7404 114.433C28.0806 114.228 27.4985 113.87 26.9021 113.534C26.1917 113.147 25.4203 112.901 24.7772 112.39C25.0973 113.575 25.8905 114.262 27.0509 114.612C27.8443 114.851 28.513 114.732 29.4757 115.121C29.3653 114.469 29.1708 113.766 28.8626 113.178C28.6235 112.753 28.3583 112.334 28.2106 111.866C27.9966 112.25 27.8953 112.642 28.0084 113.08ZM30.4361 114.893C30.6632 115.282 30.9631 115.61 31.335 115.868C30.3984 115.928 29.6447 115.334 28.7316 115.308C28.1676 115.292 27.6322 115.467 27.057 115.415C27.7396 115.875 28.4541 116.278 29.2852 116.385C30.3654 116.525 31.3616 116.253 32.5534 116.359C31.9964 115.966 31.7178 115.44 31.3706 114.875C30.9186 114.168 30.492 113.665 29.6128 113.551C29.9657 113.948 30.1711 114.439 30.4361 114.893ZM33.7624 116.447C32.1124 116.728 30.5312 117.091 28.8461 117.108C30.7324 117.765 32.5097 117.884 34.3805 117.205C35.3915 116.838 36.1667 116.642 36.9302 116.696C38.0461 116.777 39.4022 117.217 40.9031 118.8L41.493 118.328C39.3419 116.411 36.5274 115.977 33.7625 116.447L33.7624 116.447Z" fill="#FDD406"/>
</g>
<defs>
<clipPath id="clip0_307_30608">
<rect width="240" height="120" fill="white"/>
</clipPath>
</defs>
</svg>
