<svg width="240" height="120" viewBox="0 0 240 120" fill="none" xmlns="http://www.w3.org/2000/svg">
<g clip-path="url(#clip0_909_225730)">
<path d="M240 0H0V120H240V0Z" fill="#1E9A1C"/>
<path d="M75.1245 16.604L75.7707 14.6153H77.8617L76.17 13.3862L76.8162 11.3975L75.1245 12.6265L73.4328 11.3975L74.0789 13.3861L72.3872 14.6153H74.4783L75.1245 16.604Z" fill="white"/>
<path d="M98.4128 27.0341C98.4128 20.8787 94.6855 15.5926 89.3655 13.3085C92.7472 16.1913 94.8134 20.5467 94.6046 25.3289C94.245 33.5658 87.2735 39.9539 79.0366 39.5943C77.1806 39.5133 75.4189 39.0955 73.8065 38.4041C76.4128 40.6242 79.7908 41.9651 83.4819 41.9651C91.7266 41.9651 98.4128 35.2789 98.4128 27.0341Z" fill="white"/>
<path d="M75.7707 22.2953L75.1245 24.284L74.4783 22.2953H72.3872L74.0789 21.0662L73.4328 19.0775L75.1245 20.3065L76.8162 19.0775L76.17 21.0662L77.8617 22.2953H75.7707Z" fill="white"/>
<path d="M83.3581 18.5509L82.7119 20.5396L82.0657 18.5509H79.9746L81.6663 17.3217L81.0202 15.3331L82.7119 16.5621L84.4036 15.3331L83.7574 17.3218L85.4491 18.5509H83.3581Z" fill="white"/>
<path d="M67.5373 28.0284L68.1835 26.0396H70.2745L68.5828 24.8106L69.229 22.8218L67.5373 24.0509L65.8456 22.8218L66.4917 24.8105L64.8 26.0396H66.8911L67.5373 28.0284Z" fill="white"/>
<path d="M75.7707 29.9752L75.1245 31.964L74.4783 29.9752H72.3872L74.0789 28.7461L73.4328 26.7574L75.1245 27.9865L76.8162 26.7574L76.17 28.7462L77.8617 29.9752H75.7707Z" fill="white"/>
<path d="M54 0H21.6V120H54V0Z" fill="#D91C16"/>
<path d="M29.5244 0H28.4015L26.4101 1.82194L25.6156 1.08041H26.3465L26.2088 0.24355H24.9376L22.427 2.59527V3.49569H23.5393V2.74358L24.1114 3.26264L22.8084 4.47027L23.4228 5.05288L21.6008 6.7478V7.92366L24.6834 5.05288L24.069 4.47027L25.3613 3.26264L24.249 2.22451L24.9906 1.54654L26.4101 2.8601L29.5244 0Z" fill="black"/>
<path d="M26.7564 0H27.4664L26.855 0.571948L26.7564 0Z" fill="black"/>
<path d="M21.6008 0H23.6981L23.0838 0.624923H22.3211V1.48296L21.6008 2.21389V0Z" fill="black"/>
<path d="M26.8525 0H27.3399L26.9194 0.391831L26.8525 0Z" fill="#FDD406"/>
<path d="M21.6017 0H23.5825L23.0529 0.529548H22.2373V1.45114L21.6017 2.08674V0Z" fill="#FDD406"/>
<path d="M29.3872 0L26.4106 2.7435L24.9912 1.41934L24.1225 2.22443L25.2348 3.26256L23.9424 4.47019L24.5569 5.0528L21.6014 7.79646V6.86426L23.5505 5.0528L22.9361 4.47019L24.2391 3.26256L23.4552 2.53163V3.41087H22.5124V2.62697L24.9806 0.328251H26.1247L26.2415 0.995624H25.394L26.411 1.93842L28.5294 0H29.3872Z" fill="#FDD406"/>
<path d="M21.6012 13.9175V15.0933L23.4232 16.7988L22.8088 17.3709L24.1117 18.5785L23.5397 19.0976V18.3454H22.4274V19.2459L24.938 21.5976H26.2092L26.3469 20.7713H25.616L26.4105 20.0298L28.402 21.8412L26.4105 23.6632L25.616 22.9217H26.3469L26.2092 22.0849H24.938L22.4274 24.4366V25.337H23.5397V24.5849L24.1117 25.104L22.8088 26.3116L23.4232 26.8942L21.6012 28.5891V29.765L24.6838 26.8942L24.0694 26.3116L25.3617 25.104L24.2494 24.0658L24.991 23.3879L26.4105 24.7014L29.5249 21.8413L26.4105 18.9811L24.991 20.3052L24.2494 19.6167L25.3617 18.5785L24.0694 17.3709L24.6838 16.7989L21.6012 13.9175ZM21.6012 19.6272V24.0552L22.3215 23.3243V22.4662H23.0842L23.6986 21.8412L23.0842 21.2268H22.3215V20.3582L21.6012 19.6272ZM26.8554 21.195L26.7494 21.7989L26.8554 22.4133L27.5122 21.7989L26.8554 21.195Z" fill="black"/>
<path d="M21.6015 14.0444V14.9766L23.5506 16.7987L22.9362 17.3707L24.2392 18.5783L23.4553 19.3093V18.43H22.5124V19.2139L24.9807 21.5127H26.1248L26.2413 20.8559H25.3938L26.4108 19.9025L28.5294 21.841L26.4108 23.7796L25.3938 22.8368H26.2413L26.1245 22.1694H24.9804L22.5122 24.4682V25.2521H23.455V24.3728L24.2389 25.1037L22.9359 26.3114L23.5503 26.894L21.6012 28.7054V29.6376L24.5567 26.894L23.9422 26.3114L25.2346 25.1038L24.1223 24.0656L24.991 23.2605L26.4105 24.5847L29.3872 21.841L26.4105 19.0974L24.991 20.4216L24.1223 19.6165L25.2346 18.5783L23.9422 17.3707L24.5567 16.7987L21.6012 14.0444L21.6015 14.0444ZM21.6015 19.7542V23.9279L22.2371 23.2923V22.3707H23.0527L23.5824 21.8411L23.0527 21.3114H22.2371V20.3898L21.6015 19.7542ZM26.9192 21.3644L26.8451 21.7987L26.9192 22.233L27.3853 21.7987L26.9192 21.3644Z" fill="#FDD406"/>
<path d="M21.6012 36.4771V37.6529L23.4232 39.3584L22.8088 39.9304L24.1117 41.1381L23.5397 41.6571V40.905H22.4274V41.8054L24.938 44.1571H26.2092L26.3469 43.3309H25.616L26.4105 42.5893L28.402 44.4008L26.4105 46.2228L25.616 45.4813H26.3469L26.2092 44.6444H24.938L22.4274 46.9961V47.8966H23.5397V47.1445L24.1117 47.6635L22.8088 48.8712L23.4232 49.4538L21.6012 51.1487V52.3245L24.6838 49.4538L24.0694 48.8712L25.3617 47.6635L24.2494 46.6254L24.991 45.9474L26.4105 47.261L29.5249 44.4008L26.4105 41.5407L24.991 42.8648L24.2494 42.1763L25.3617 41.1381L24.0694 39.9305L24.6838 39.3585L21.6012 36.4771ZM21.6012 42.1868V46.6148L22.3215 45.8838V45.0258H23.0842L23.6986 44.4008L23.0842 43.7864H22.3215V42.9178L21.6012 42.1868ZM26.8554 43.7546L26.7494 44.3584L26.8554 44.9728L27.5122 44.3584L26.8554 43.7546Z" fill="black"/>
<path d="M21.6015 36.604V37.5362L23.5506 39.3583L22.9362 39.9303L24.2392 41.1379L23.4553 41.8688V40.9896H22.5124V41.7735L24.9807 44.0722H26.1248L26.2413 43.4154H25.3938L26.4108 42.4621L28.5294 44.4006L26.4108 46.3392L25.3938 45.3964H26.2413L26.1245 44.729H24.9804L22.5122 47.0277V47.8116H23.455V46.9324L24.2389 47.6633L22.9359 48.8709L23.5503 49.4536L21.6012 51.265V52.1972L24.5567 49.4536L23.9422 48.8709L25.2346 47.6633L24.1223 46.6252L24.991 45.8201L26.4105 47.1443L29.3872 44.4006L26.4105 41.657L24.991 42.9811L24.1223 42.176L25.2346 41.1379L23.9422 39.9303L24.5567 39.3582L21.6012 36.604L21.6015 36.604ZM21.6015 42.3138V46.4875L22.2371 45.8519V44.9303H23.0527L23.5824 44.4006L23.0527 43.871H22.2371V42.9494L21.6015 42.3138ZM26.9192 43.9239L26.8451 44.3583L26.9192 44.7926L27.3853 44.3583L26.9192 43.9239Z" fill="#FDD406"/>
<path d="M21.6012 59.0366V60.2125L23.4232 61.918L22.8088 62.49L24.1117 63.6976L23.5397 64.2167V63.4646H22.4274V64.365L24.938 66.7167H26.2092L26.3469 65.8904H25.616L26.4105 65.1489L28.402 66.9604L26.4105 68.7824L25.616 68.0409H26.3469L26.2092 67.204H24.938L22.4274 69.5557V70.4561H23.5397V69.704L24.1117 70.2231L22.8088 71.4307L23.4232 72.0133L21.6012 73.7082V74.8841L24.6838 72.0133L24.0694 71.4307L25.3617 70.2231L24.2494 69.185L24.991 68.507L26.4105 69.8206L29.5249 66.9604L26.4105 64.1002L24.991 65.4244L24.2494 64.7358L25.3617 63.6977L24.0694 62.4901L24.6838 61.918L21.6012 59.0366ZM21.6012 64.7464V69.1743L22.3215 68.4434V67.5854H23.0842L23.6986 66.9604L23.0842 66.346H22.3215V65.4773L21.6012 64.7464ZM26.8554 66.3142L26.7494 66.918L26.8554 67.5324L27.5122 66.918L26.8554 66.3142Z" fill="black"/>
<path d="M21.6015 59.1636V60.0958L23.5506 61.9178L22.9362 62.4899L24.2392 63.6975L23.4553 64.4284V63.5492H22.5124V64.3331L24.9807 66.6318H26.1248L26.2413 65.975H25.3938L26.4108 65.0216L28.5294 66.9602L26.4108 68.8987L25.3938 67.956H26.2413L26.1245 67.2886H24.9804L22.5122 69.5873V70.3712H23.455V69.492L24.2389 70.2229L22.9359 71.4305L23.5503 72.0131L21.6012 73.8246V74.7568L24.5567 72.0131L23.9422 71.4305L25.2346 70.2229L24.1223 69.1848L24.991 68.3797L26.4105 69.7038L29.3872 66.9602L26.4105 64.2165L24.991 65.5407L24.1223 64.7356L25.2346 63.6975L23.9422 62.4898L24.5567 61.9178L21.6012 59.1636L21.6015 59.1636ZM21.6015 64.8733V69.0471L22.2371 68.4115V67.4899H23.0527L23.5824 66.9602L23.0527 66.4305H22.2371V65.5089L21.6015 64.8733ZM26.9192 66.4835L26.8451 66.9178L26.9192 67.3522L27.3853 66.9178L26.9192 66.4835Z" fill="#FDD406"/>
<path d="M21.6012 81.5959V82.7718L23.4232 84.4773L22.8088 85.0493L24.1117 86.257L23.5397 86.776V86.0239H22.4274V86.9243L24.938 89.276H26.2092L26.3469 88.4498H25.616L26.4105 87.7082L28.402 89.5197L26.4105 91.3417L25.616 90.6002H26.3469L26.2092 89.7633H24.938L22.4274 92.115V93.0155H23.5397V92.2634L24.1117 92.7824L22.8088 93.99L23.4232 94.5727L21.6012 96.2676V97.4434L24.6838 94.5727L24.0694 93.99L25.3617 92.7824L24.2494 91.7443L24.991 91.0663L26.4105 92.3799L29.5249 89.5197L26.4105 86.6596L24.991 87.9837L24.2494 87.2951L25.3617 86.257L24.0694 85.0494L24.6838 84.4774L21.6012 81.5959ZM21.6012 87.3057V91.7337L22.3215 91.0027V90.1447H23.0842L23.6986 89.5197L23.0842 88.9053H22.3215V88.0366L21.6012 87.3057ZM26.8554 88.8735L26.7494 89.4773L26.8554 90.0917L27.5122 89.4773L26.8554 88.8735Z" fill="black"/>
<path d="M21.6015 81.7232V82.6554L23.5506 84.4774L22.9362 85.0494L24.2392 86.2571L23.4553 86.988V86.1087H22.5124V86.8926L24.9807 89.1914H26.1248L26.2413 88.5346H25.3938L26.4108 87.5812L28.5294 89.5198L26.4108 91.4583L25.3938 90.5155H26.2413L26.1245 89.8481H24.9804L22.5122 92.1469V92.9308H23.455V92.0515L24.2389 92.7825L22.9359 93.9901L23.5503 94.5727L21.6012 96.3842V97.3164L24.5567 94.5727L23.9422 93.9901L25.2346 92.7825L24.1223 91.7443L24.991 90.9392L26.4105 92.2634L29.3872 89.5198L26.4105 86.7761L24.991 88.1003L24.1223 87.2952L25.2346 86.257L23.9422 85.0494L24.5567 84.4774L21.6012 81.7231L21.6015 81.7232ZM21.6015 87.4329V91.6066L22.2371 90.971V90.0494H23.0527L23.5824 89.5198L23.0527 88.9901H22.2371V88.0685L21.6015 87.4329ZM26.9192 89.0431L26.8451 89.4774L26.9192 89.9117L27.3853 89.4774L26.9192 89.0431Z" fill="#FDD406"/>
<path d="M46.0767 0H47.1997L49.1911 1.82194L49.9856 1.08041H49.2546L49.3924 0.24355H50.6636L53.1742 2.59527V3.49569H52.0618V2.74358L51.4898 3.26264L52.7928 4.47027L52.1784 5.05288L53.998 6.74562V7.92148L50.9178 5.05288L51.5322 4.47027L50.2398 3.26264L51.3521 2.22451L50.6106 1.54654L49.1911 2.8601L46.0767 0Z" fill="black"/>
<path d="M53.998 2.21151L53.2801 1.48296V0.624923H52.5173L51.903 0H53.998V2.21151Z" fill="black"/>
<path d="M48.8448 0L48.7462 0.571948L48.1348 0H48.8448Z" fill="black"/>
<path d="M48.7492 0H48.2618L48.6823 0.391831L48.7492 0Z" fill="#FDD406"/>
<path d="M53.998 2.08468V0H52.0193L52.5488 0.529548H53.3645V1.45114L53.998 2.08468Z" fill="#FDD406"/>
<path d="M53.998 6.86208L52.0512 5.0528L52.6657 4.47019L51.3627 3.26256L52.1466 2.53163V3.41087H53.0894V2.62697L50.6212 0.328251H49.4771L49.3603 0.995624H50.2077L49.1908 1.93842L47.0723 0H46.2145L49.1911 2.7435L50.6106 1.41934L51.4792 2.22443L50.3669 3.26256L51.6593 4.47019L51.0449 5.0528L53.998 7.79428V6.86208Z" fill="#FDD406"/>
<path d="M54.0014 13.9175V15.0933L52.1793 16.7988L52.7938 17.3709L51.4908 18.5785L52.0628 19.0976V18.3454H53.1751V19.2459L50.6645 21.5976H49.3934L49.2556 20.7713H49.9866L49.1921 20.0298L47.2006 21.8412L49.1921 23.6632L49.9866 22.9217H49.2556L49.3934 22.0849H50.6645L53.1751 24.4366V25.337H52.0628V24.5849L51.4908 25.104L52.7938 26.3116L52.1793 26.8942L54.0014 28.5891V29.765L50.9188 26.8942L51.5332 26.3116L50.2408 25.104L51.3531 24.0658L50.6116 23.3879L49.1921 24.7014L46.0777 21.8413L49.1921 18.9811L50.6116 20.3052L51.3531 19.6167L50.2408 18.5785L51.5332 17.3709L50.9188 16.7989L54.0014 13.9175ZM54.0014 19.6272V24.0552L53.281 23.3243V22.4662H52.5183L51.904 21.8412L52.5183 21.2268H53.281V20.3582L54.0014 19.6272ZM48.7471 21.195L48.8531 21.7989L48.7471 22.4133L48.0904 21.7989L48.7471 21.195Z" fill="black"/>
<path d="M54.0011 14.0444V14.9766L52.0519 16.7987L52.6664 17.3707L51.3634 18.5783L52.1473 19.3093V18.43H53.0901V19.2139L50.6219 21.5127H49.4778L49.3613 20.8559H50.2087L49.1918 19.9025L47.0732 21.841L49.1918 23.7796L50.2087 22.8368H49.3613L49.4781 22.1694H50.6222L53.0904 24.4682V25.2521H52.1476V24.3728L51.3637 25.1037L52.6667 26.3114L52.0522 26.894L54.0014 28.7054V29.6376L51.0459 26.894L51.6603 26.3114L50.3679 25.1038L51.4802 24.0656L50.6116 23.2605L49.1921 24.5847L46.2154 21.841L49.1921 19.0974L50.6116 20.4216L51.4802 19.6165L50.3679 18.5783L51.6603 17.3707L51.0459 16.7987L54.0014 14.0444L54.0011 14.0444ZM54.0011 19.7542V23.9279L53.3655 23.2923V22.3707H52.5498L52.0202 21.8411L52.5498 21.3114H53.3655V20.3898L54.0011 19.7542ZM48.6833 21.3644L48.7575 21.7987L48.6833 22.233L48.2172 21.7987L48.6833 21.3644Z" fill="#FDD406"/>
<path d="M54.0014 36.4771V37.6529L52.1793 39.3584L52.7938 39.9304L51.4908 41.1381L52.0628 41.6571V40.905H53.1751V41.8054L50.6645 44.1571H49.3934L49.2556 43.3309H49.9866L49.1921 42.5893L47.2006 44.4008L49.1921 46.2228L49.9866 45.4813H49.2556L49.3934 44.6444H50.6645L53.1751 46.9961V47.8966H52.0628V47.1445L51.4908 47.6635L52.7938 48.8712L52.1793 49.4538L54.0014 51.1487V52.3245L50.9188 49.4538L51.5332 48.8712L50.2408 47.6635L51.3531 46.6254L50.6116 45.9474L49.1921 47.261L46.0777 44.4008L49.1921 41.5407L50.6116 42.8648L51.3531 42.1763L50.2408 41.1381L51.5332 39.9305L50.9188 39.3585L54.0014 36.4771ZM54.0014 42.1868V46.6148L53.281 45.8838V45.0258H52.5183L51.904 44.4008L52.5183 43.7864H53.281V42.9178L54.0014 42.1868ZM48.7471 43.7546L48.8531 44.3584L48.7471 44.9728L48.0904 44.3584L48.7471 43.7546Z" fill="black"/>
<path d="M54.0011 36.604V37.5362L52.0519 39.3583L52.6664 39.9303L51.3634 41.1379L52.1473 41.8688V40.9896H53.0901V41.7735L50.6219 44.0722H49.4778L49.3613 43.4154H50.2087L49.1918 42.4621L47.0732 44.4006L49.1918 46.3392L50.2087 45.3964H49.3613L49.4781 44.729H50.6222L53.0904 47.0277V47.8116H52.1476V46.9324L51.3637 47.6633L52.6667 48.8709L52.0522 49.4536L54.0014 51.265V52.1972L51.0459 49.4536L51.6603 48.8709L50.3679 47.6633L51.4802 46.6252L50.6116 45.8201L49.1921 47.1443L46.2154 44.4006L49.1921 41.657L50.6116 42.9811L51.4802 42.176L50.3679 41.1379L51.6603 39.9303L51.0459 39.3582L54.0014 36.604L54.0011 36.604ZM54.0011 42.3138V46.4875L53.3655 45.8519V44.9303H52.5498L52.0202 44.4006L52.5498 43.871H53.3655V42.9494L54.0011 42.3138ZM48.6833 43.9239L48.7575 44.3583L48.6833 44.7926L48.2172 44.3583L48.6833 43.9239Z" fill="#FDD406"/>
<path d="M54.0014 59.0366V60.2125L52.1793 61.918L52.7938 62.49L51.4908 63.6976L52.0628 64.2167V63.4646H53.1751V64.365L50.6645 66.7167H49.3934L49.2556 65.8904H49.9866L49.1921 65.1489L47.2006 66.9604L49.1921 68.7824L49.9866 68.0409H49.2556L49.3934 67.204H50.6645L53.1751 69.5557V70.4561H52.0628V69.704L51.4908 70.2231L52.7938 71.4307L52.1793 72.0133L54.0014 73.7082V74.8841L50.9188 72.0133L51.5332 71.4307L50.2408 70.2231L51.3531 69.185L50.6116 68.507L49.1921 69.8206L46.0777 66.9604L49.1921 64.1002L50.6116 65.4244L51.3531 64.7358L50.2408 63.6977L51.5332 62.4901L50.9188 61.918L54.0014 59.0366ZM54.0014 64.7464V69.1743L53.281 68.4434V67.5854H52.5183L51.904 66.9604L52.5183 66.346H53.281V65.4773L54.0014 64.7464ZM48.7471 66.3142L48.8531 66.918L48.7471 67.5324L48.0904 66.918L48.7471 66.3142Z" fill="black"/>
<path d="M54.0011 59.1636V60.0958L52.0519 61.9178L52.6664 62.4899L51.3634 63.6975L52.1473 64.4284V63.5492H53.0901V64.3331L50.6219 66.6318H49.4778L49.3613 65.975H50.2087L49.1918 65.0216L47.0732 66.9602L49.1918 68.8987L50.2087 67.956H49.3613L49.4781 67.2886H50.6222L53.0904 69.5873V70.3712H52.1476V69.492L51.3637 70.2229L52.6667 71.4305L52.0522 72.0131L54.0014 73.8246V74.7568L51.0459 72.0131L51.6603 71.4305L50.3679 70.2229L51.4802 69.1848L50.6116 68.3797L49.1921 69.7038L46.2154 66.9602L49.1921 64.2165L50.6116 65.5407L51.4802 64.7356L50.3679 63.6975L51.6603 62.4898L51.0459 61.9178L54.0014 59.1636L54.0011 59.1636ZM54.0011 64.8733V69.0471L53.3655 68.4115V67.4899H52.5498L52.0202 66.9602L52.5498 66.4305H53.3655V65.5089L54.0011 64.8733ZM48.6833 66.4835L48.7575 66.9178L48.6833 67.3522L48.2172 66.9178L48.6833 66.4835Z" fill="#FDD406"/>
<path d="M54.0014 81.5957V82.7716L52.1793 84.4771L52.7938 85.0491L51.4908 86.2567L52.0628 86.7758V86.0237H53.1751V86.9241L50.6645 89.2758H49.3934L49.2556 88.4495H49.9866L49.1921 87.708L47.2006 89.5194L49.1921 91.3415L49.9866 90.5999H49.2556L49.3934 89.7631H50.6645L53.1751 92.1148V93.0152H52.0628V92.2631L51.4908 92.7822L52.7938 93.9898L52.1793 94.5724L54.0014 96.2673V97.4432L50.9188 94.5724L51.5332 93.9898L50.2408 92.7822L51.3531 91.744L50.6116 91.0661L49.1921 92.3796L46.0777 89.5195L49.1921 86.6593L50.6116 87.9835L51.3531 87.2949L50.2408 86.2568L51.5332 85.0491L50.9188 84.4771L54.0014 81.5957ZM54.0014 87.3055V91.7334L53.281 91.0025V90.1445H52.5183L51.904 89.5195L52.5183 88.905H53.281V88.0364L54.0014 87.3055ZM48.7471 88.8733L48.8531 89.4771L48.7471 90.0915L48.0904 89.4771L48.7471 88.8733Z" fill="black"/>
<path d="M54.0011 81.7227V82.6549L52.0519 84.4769L52.6664 85.0489L51.3634 86.2566L52.1473 86.9875V86.1083H53.0901V86.8922L50.6219 89.1909H49.4778L49.3613 88.5341H50.2087L49.1918 87.5807L47.0732 89.5193L49.1918 91.4578L50.2087 90.515H49.3613L49.4781 89.8477H50.6222L53.0904 92.1464V92.9303H52.1476V92.051L51.3637 92.782L52.6667 93.9896L52.0522 94.5722L54.0014 96.3837V97.3159L51.0459 94.5722L51.6603 93.9896L50.3679 92.782L51.4802 91.7438L50.6116 90.9388L49.1921 92.2629L46.2154 89.5193L49.1921 86.7756L50.6116 88.0998L51.4802 87.2947L50.3679 86.2566L51.6603 85.0489L51.0459 84.4769L54.0014 81.7227L54.0011 81.7227ZM54.0011 87.4324V91.6061L53.3655 90.9706V90.049H52.5498L52.0202 89.5193L52.5498 88.9896H53.3655V88.068L54.0011 87.4324ZM48.6833 89.0426L48.7575 89.4769L48.6833 89.9112L48.2172 89.4769L48.6833 89.0426Z" fill="#FDD406"/>
<path d="M25.655 14.0678L23.0588 12.4758V8.64874L25.655 7.0567V5.0317L28.1084 3.55426H30.0685L33.798 1.45654H41.8046L45.5342 3.55426H47.4943L49.9477 5.0317V7.0567L52.5439 8.64874L52.5438 12.4758L49.9477 14.0678V16.0928L47.4943 17.5703H45.5342L41.8046 19.668H33.798L30.0685 17.5703H28.1084L25.655 16.0928V14.0678Z" fill="black"/>
<path d="M33.815 1.54639L30.0862 3.64385H28.1371L25.743 5.08452V7.10782L23.1477 8.69681V12.4256L25.743 14.0146V16.0485L28.1265 17.4892H30.0862L33.815 19.5866H41.7811L45.5099 17.4892H47.4697L49.8638 16.0485V14.0146L52.4591 12.4256V8.69681L49.8638 7.10782V5.08452L47.4697 3.64385H45.5099L41.7811 1.54639H33.815ZM34.0375 2.31969H41.5693L45.2981 4.41715H47.2472L49.0587 5.50825V7.53155L51.6646 9.12054V12.0019L49.0587 13.5909V15.6142L47.2472 16.7053H45.2981L41.5693 18.8028H34.0375L30.3087 16.7053H28.3595L26.5375 15.6142V13.5909L23.9422 12.0019V9.12054L26.5375 7.53155V5.50825L28.3595 4.41715H30.3087L34.0375 2.31969Z" fill="#1E9A1C"/>
<path d="M37.7578 10.605V2.40332H34.0567L30.3269 4.50104H28.3826L26.6236 5.56028V7.58036L24.0275 9.17228V10.5194L37.8437 10.5193V18.7212H41.5448L45.2744 16.6234H47.2189L48.9778 15.5642V13.5442L51.574 11.9522V10.6051L37.7578 10.605Z" fill="#FDD406"/>
<path d="M24.0277 10.6051L24.0275 11.9522L26.6237 13.5442V15.5642L28.3826 16.6234H30.3271L34.0567 18.7212H37.7579V10.5193L51.5741 10.5194V9.17228L48.9779 7.58036V5.56028L47.219 4.50104H45.2746L41.545 2.40332H37.8438V10.605L24.0277 10.6051Z" fill="white"/>
<path d="M29.6915 5.25632L29.0523 4.66064L28.4191 5.05112L29.0593 5.648L28.2373 6.15728H30.0311L31.5769 7.61541L32.0714 7.09317L30.5684 5.67536V4.71296L29.6915 5.25632Z" fill="black"/>
<path d="M32.7169 4.99461L32.0777 4.39893L31.4445 4.78941L32.0847 5.38629L31.2627 5.89557H33.0564L34.6023 7.35369L35.0968 6.83145L33.5938 5.41365V4.45125L32.7169 4.99461Z" fill="black"/>
<path d="M29.4697 6.96726L28.8305 6.37158L28.1974 6.76206L28.8375 7.35894L28.0156 7.86822H29.8094L31.3551 9.32635L31.8496 8.80411L30.3466 7.3863V6.4239L29.4697 6.96726Z" fill="black"/>
<path d="M37.8015 2.31787H36.1829L35.336 3.13411H33.6849L32.4648 3.76735L32.7494 4.46059L33.8374 3.88915H34.3139L35.9822 5.81851L37.8016 4.71055L37.8015 2.31787Z" fill="black"/>
<path d="M29.0417 4.76758L29.616 5.3029L29.1348 5.60098L28.5597 5.06482L29.0417 4.76758ZM30.4828 4.86658V5.71198L31.9503 7.09629L31.5735 7.49421L30.0652 6.07138H28.5381L30.4828 4.86658Z" fill="#D91C16"/>
<path d="M32.0671 4.50586L32.6414 5.04118L32.1602 5.33926L31.5852 4.8031L32.0671 4.50586ZM33.5082 4.60486V5.45026L34.9757 6.83457L34.5989 7.2325L33.0906 5.80978H31.5635L33.5082 4.60486Z" fill="#D91C16"/>
<path d="M28.8202 6.47876L29.3944 7.01408L28.9132 7.31216L28.3381 6.776L28.8202 6.47876ZM30.2611 6.57776V7.42316L31.7286 8.80748L31.3519 9.2054L29.8436 7.78268H28.3164L30.2611 6.57776Z" fill="#D91C16"/>
<path d="M37.7581 2.40332H36.2169L35.3699 3.21956H33.7052L32.5731 3.80708L32.7921 4.34084L33.8154 3.80348H34.3524L35.9988 5.70764L37.7581 4.6364L37.7581 2.40332Z" fill="#D91C16"/>
<path d="M29.6915 15.8682L29.0523 16.4639L28.4191 16.0734L29.0593 15.4765L28.2373 14.9672H30.0311L31.5769 13.5091L32.0714 14.0313L30.5684 15.4491V16.4115L29.6915 15.8682Z" fill="black"/>
<path d="M32.7169 16.1299L32.0777 16.7256L31.4445 16.3351L32.0847 15.7382L31.2627 15.2289H33.0564L34.6023 13.7708L35.0968 14.2931L33.5938 15.7109V16.6733L32.7169 16.1299Z" fill="black"/>
<path d="M29.4697 14.1572L28.8305 14.7529L28.1974 14.3625L28.8375 13.7656L28.0156 13.2563H29.8094L31.3551 11.7982L31.8496 12.3204L30.3466 13.7382V14.7006L29.4697 14.1572Z" fill="black"/>
<path d="M37.8015 18.8066H36.1829L35.336 17.9904H33.6849L32.4648 17.3572L32.7494 16.6639L33.8374 17.2354H34.3139L35.9822 15.306L37.8016 16.414L37.8015 18.8066Z" fill="black"/>
<path d="M29.0417 16.3569L29.616 15.8216L29.1348 15.5235L28.5597 16.0597L29.0417 16.3569ZM30.4828 16.2579V15.4125L31.9503 14.0282L31.5735 13.6303L30.0652 15.0531H28.5381L30.4828 16.2579Z" fill="#D91C16"/>
<path d="M32.0671 16.6187L32.6414 16.0833L32.1602 15.7853L31.5852 16.3214L32.0671 16.6187ZM33.5082 16.5197V15.6743L34.9757 14.2899L34.5989 13.892L33.0906 15.3147H31.5635L33.5082 16.5197Z" fill="#D91C16"/>
<path d="M28.8202 14.6458L29.3944 14.1104L28.9132 13.8124L28.3381 14.3485L28.8202 14.6458ZM30.2611 14.5468V13.7014L31.7286 12.317L31.3519 11.9191L29.8436 13.3418H28.3164L30.2611 14.5468Z" fill="#D91C16"/>
<path d="M37.7581 18.7212H36.2169L35.3699 17.905H33.7052L32.5731 17.3174L32.7921 16.7837L33.8154 17.321H34.3524L35.9988 15.4169L37.7581 16.4881L37.7581 18.7212Z" fill="#D91C16"/>
<path d="M28.6128 7.94217L27.841 7.65381L27.8226 7.66665L26.8261 8.35809V8.54397L25.2301 10.5622L26.8261 12.5805V12.7665L27.841 13.4707L28.6128 13.1823L28.1418 12.8704V12.277L28.329 12.0531H29.1652V9.07137H28.329L28.1418 8.84745V8.25405L28.6128 7.94217Z" fill="black"/>
<path d="M26.9119 8.4028L27.8532 7.74976L28.4256 7.9636L28.0563 8.20816V8.8786L28.2891 9.157H29.0796V11.9676H28.2891L28.0563 12.246V12.9165L28.4256 13.161L27.8532 13.3749L26.9119 12.7218L26.9121 12.5508L25.3395 10.5623L26.9121 8.57368L26.9119 8.4028Z" fill="#D91C16"/>
<path d="M45.9121 5.25632L46.5512 4.66064L47.1844 5.05112L46.5442 5.648L47.3662 6.15728H45.5725L44.0266 7.61541L43.5321 7.09317L45.0351 5.67536V4.71296L45.9121 5.25632Z" fill="black"/>
<path d="M42.8877 4.99461L43.5268 4.39893L44.16 4.78941L43.5198 5.38629L44.3418 5.89557H42.5481L41.0022 7.35369L40.5077 6.83145L42.0107 5.41365V4.45125L42.8877 4.99461Z" fill="black"/>
<path d="M46.1339 6.96726L46.773 6.37158L47.4061 6.76206L46.766 7.35894L47.5879 7.86822H45.7942L44.2484 9.32635L43.7539 8.80411L45.2569 7.3863V6.4239L46.1339 6.96726Z" fill="black"/>
<path d="M37.802 2.31787H39.4206L40.2676 3.13411H41.9186L43.1387 3.76735L42.8542 4.46059L41.7661 3.88915H41.2896L39.6214 5.81851L37.8019 4.71055L37.802 2.31787Z" fill="black"/>
<path d="M46.5618 4.76758L45.9875 5.3029L46.4687 5.60098L47.0438 5.06482L46.5618 4.76758ZM45.1207 4.86658V5.71198L43.6532 7.09629L44.03 7.49421L45.5383 6.07138H47.0654L45.1207 4.86658Z" fill="#D91C16"/>
<path d="M43.5364 4.50586L42.9621 5.04118L43.4433 5.33926L44.0183 4.8031L43.5364 4.50586ZM42.0953 4.60486V5.45026L40.6279 6.83457L41.0047 7.2325L42.5129 5.80978H44.0401L42.0953 4.60486Z" fill="#D91C16"/>
<path d="M46.7834 6.47876L46.2092 7.01408L46.6904 7.31216L47.2654 6.776L46.7834 6.47876ZM45.3424 6.57776V7.42316L43.8749 8.80748L44.2516 9.2054L45.7599 7.78268H47.2871L45.3424 6.57776Z" fill="#D91C16"/>
<path d="M37.8453 2.40332H39.3865L40.2335 3.21956H41.8982L43.0303 3.80708L42.8113 4.34084L41.7879 3.80348H41.2509L39.6045 5.70764L37.8453 4.6364L37.8453 2.40332Z" fill="#D91C16"/>
<path d="M45.9121 15.8682L46.5512 16.4639L47.1844 16.0734L46.5442 15.4765L47.3662 14.9672H45.5725L44.0266 13.5091L43.5321 14.0313L45.0351 15.4491V16.4115L45.9121 15.8682Z" fill="black"/>
<path d="M42.8877 16.1299L43.5268 16.7256L44.16 16.3351L43.5198 15.7382L44.3418 15.2289H42.5481L41.0022 13.7708L40.5077 14.2931L42.0107 15.7109V16.6733L42.8877 16.1299Z" fill="black"/>
<path d="M46.1339 14.1572L46.773 14.7529L47.4061 14.3625L46.766 13.7656L47.5879 13.2563H45.7942L44.2484 11.7982L43.7539 12.3204L45.2569 13.7382V14.7006L46.1339 14.1572Z" fill="black"/>
<path d="M37.802 18.8066H39.4206L40.2676 17.9904H41.9186L43.1387 17.3572L42.8542 16.6639L41.7661 17.2354H41.2896L39.6214 15.306L37.8019 16.414L37.802 18.8066Z" fill="black"/>
<path d="M46.5618 16.3569L45.9875 15.8216L46.4687 15.5235L47.0438 16.0597L46.5618 16.3569ZM45.1207 16.2579V15.4125L43.6532 14.0282L44.03 13.6303L45.5383 15.0531H47.0654L45.1207 16.2579Z" fill="#D91C16"/>
<path d="M43.5364 16.6187L42.9621 16.0833L43.4433 15.7853L44.0183 16.3214L43.5364 16.6187ZM42.0953 16.5197V15.6743L40.6279 14.2899L41.0047 13.892L42.5129 15.3147H44.0401L42.0953 16.5197Z" fill="#D91C16"/>
<path d="M46.7834 14.6458L46.2092 14.1104L46.6904 13.8124L47.2654 14.3485L46.7834 14.6458ZM45.3424 14.5468V13.7014L43.8749 12.317L44.2516 11.9191L45.7599 13.3418H47.2871L45.3424 14.5468Z" fill="#D91C16"/>
<path d="M37.8453 18.7212H39.3865L40.2335 17.905H41.8982L43.0303 17.3174L42.8113 16.7837L41.7879 17.321H41.2509L39.6045 15.4169L37.8453 16.4881L37.8453 18.7212Z" fill="#D91C16"/>
<path d="M46.99 7.94217L47.7617 7.65381L47.7802 7.66665L48.7767 8.35809V8.54397L50.3727 10.5622L48.7767 12.5805V12.7665L47.7617 13.4707L46.99 13.1823L47.461 12.8704V12.277L47.2738 12.0531H46.4375V9.07137H47.2738L47.461 8.84745V8.25405L46.99 7.94217Z" fill="black"/>
<path d="M48.6906 8.4028L47.7493 7.74976L47.1769 7.9636L47.5463 8.20816V8.8786L47.3135 9.157H46.5229V11.9676H47.3135L47.5463 12.246V12.9165L47.1769 13.161L47.7493 13.3749L48.6906 12.7218L48.6905 12.5508L50.2631 10.5623L48.6905 8.57368L48.6906 8.4028Z" fill="#D91C16"/>
<path d="M27.2419 12.2565L26.8074 11.8806V11.6994L25.8752 10.5624L26.8075 9.42523V9.24415L27.242 8.86819L28.0225 9.50287L27.572 9.49939L28.2376 10.175H29.7586L30.9548 9.23959V6.77275H33.9465L37.421 4.64059V4.08139L36.8896 3.72727H36.7213L36.1426 4.11451L36.053 4.40335L35.6004 3.78535L36.4801 3.04627H36.6207L37.6135 2.31787H37.9878L38.9804 3.04627H39.1212L40.0009 3.78535L39.5482 4.40335L39.4586 4.11451L38.88 3.72727H38.7116L38.1802 4.08139V4.64059L41.6547 6.77275H44.6464V9.23959L45.8426 10.175H47.3636L48.0293 9.49939L47.5788 9.50287L48.3593 8.86819L48.7938 9.24415V9.42523L49.7261 10.5624L48.7938 11.6994V11.8806L48.3593 12.2565L47.5788 11.6218L48.0293 11.6253L47.3636 10.9496H45.8426L44.6464 11.8851V14.352H41.6547L38.1802 16.4841V17.0433L38.7116 17.3974H38.88L39.4586 17.0102L39.5482 16.7214L40.0009 17.3392L39.1212 18.0784H38.9804L37.9878 18.8068H37.6135L36.6207 18.0784H36.4801L35.6002 17.3392L36.053 16.7214L36.1426 17.0102L36.7212 17.3974H36.8895L37.421 17.0433V16.4841L33.9465 14.352H30.9548V11.8851L29.7585 10.9496H28.2376L27.572 11.6253L28.0225 11.6218L27.2419 12.2565Z" fill="black"/>
<path d="M37.8442 17.4638L38.2245 17.7546L37.8442 18.0453V17.4638ZM36.6354 17.9926H36.6495L37.6422 18.7212H37.7582V18.1528L37.2374 17.7546L37.7583 17.3563V16.2888L34.0404 14.0072H31.2921V11.7147L29.8731 10.605H27.7328L27.1948 11.2132L26.6568 10.605L26.0217 10.6051L26.8936 11.6685V11.8412L27.239 12.1412L27.7938 11.7092L27.4682 11.7117V11.6037L28.1939 10.8639H29.7887L31.0412 11.8434V14.2663H33.9715L37.5073 16.4361V17.0889L36.9161 17.4829H36.6957L36.0704 17.0643L36.0223 16.909L35.7173 17.3252L36.512 17.9926L36.6354 17.9926ZM27.1953 10.0406L27.6189 10.5194H26.7716L27.1953 10.0406ZM37.7584 3.07916L37.3784 3.36992L37.7584 3.66056V3.07916ZM47.9838 10.6051L48.4074 11.0839L48.831 10.6051H47.9838ZM38.953 3.13172L37.9602 2.40332H37.8443V2.9714L38.3654 3.36992L37.8442 3.76844V4.83572L41.562 7.11728H44.3104V9.40976L45.7294 10.5195H47.8694L48.4074 9.91136L48.9455 10.5194H49.5808L48.7089 9.45596V9.28328L48.3635 8.98328L47.8086 9.41528L48.1343 9.41264V9.52076L47.4086 10.2604H45.8138L44.5614 9.281V6.8582H41.631L38.0952 4.68836V4.03544L38.6864 3.6416H38.9068L39.5321 4.06016L39.5802 4.21544L39.8852 3.79928L39.0905 3.13172L38.953 3.13172Z" fill="#FDD406"/>
<path d="M37.7582 18.0452L37.3781 17.7546L37.7582 17.4639V18.0452ZM27.6186 10.6051L27.195 11.0839L26.7714 10.6051H27.6186ZM38.9668 17.9926H38.9528L37.96 18.7212H37.8441V18.5724V18.1531L38.3651 17.7546L37.844 17.356V16.2888L41.5618 14.0072H44.3102V11.7147L45.7292 10.605H47.8693L48.4072 11.2132L48.9452 10.605L49.5806 10.6051L48.7086 11.6685V11.8412L48.3633 12.1412L47.8084 11.7092L48.1341 11.7117V11.6037L47.4083 10.8639H45.8135L44.5612 11.8434V14.2663H41.6308L38.095 16.4361V17.0889L38.6861 17.4829H38.9066L39.5319 17.0643L39.58 16.909L39.8849 17.3252L39.0903 17.9926L38.9668 17.9926ZM48.4072 10.0406L47.9836 10.5194H48.8309L48.4072 10.0406ZM36.6495 3.13172L37.6422 2.40332H37.7583V2.9714L37.2371 3.36992L37.7583 3.76844L37.7584 4.83572L34.0404 7.11728H31.2922V9.40976L29.8731 10.5195H27.7325L27.1946 9.91136L26.6565 10.5194H26.0217L26.8937 9.45596V9.28328L27.2391 8.98328L27.7938 9.41528L27.4682 9.41264V9.52076L28.194 10.2604H29.7887L31.0412 9.281V6.8582H33.9714L37.5074 4.68836V4.03544L36.9162 3.6416H36.6957L36.0704 4.06016L36.0222 4.21544L35.7174 3.79928L36.5121 3.13172L36.6495 3.13172ZM37.844 3.66068L38.2242 3.36992L37.844 3.07916V3.66068Z" fill="white"/>
<path d="M37.7582 10.605V4.93604L34.0644 7.20284H31.3775V9.4514L30.0119 10.5194L37.844 10.5193V16.1883L41.5374 13.9216H44.2244V11.6731L45.59 10.6051L37.7582 10.605Z" fill="#1E9A1C"/>
<path d="M30.0119 10.605L31.3776 11.673V13.9215H34.0644L37.7583 16.1883V10.5191L45.5901 10.5193L44.2245 9.45127V7.20271H41.5376L37.8441 4.93604V10.6049L30.0119 10.605Z" fill="#D91C16"/>
<path d="M33.8253 7.81272L33.1863 7.21704L32.5531 7.6074L33.1933 8.20428L32.3713 8.71356H34.165L35.7109 10.1718L36.2054 9.64945L34.7024 8.23164V7.26936L33.8253 7.81272Z" fill="black"/>
<path d="M41.7766 13.3117L42.4158 13.9074L43.0489 13.5169L42.4088 12.92L43.2308 12.4109H41.4369L39.8912 10.9526L39.3967 11.4749L40.8997 12.8928V13.8551L41.7766 13.3117Z" fill="black"/>
<path d="M33.8253 13.3117L33.1862 13.9074L32.5531 13.5169L33.1932 12.92L32.3713 12.4109H34.165L35.7108 10.9526L36.2053 11.4749L34.7023 12.8928V13.8551L33.8253 13.3117Z" fill="black"/>
<path d="M41.7766 7.81272L42.4158 7.21704L43.0489 7.6074L42.4088 8.20428L43.2308 8.71356H41.4369L39.8912 10.1718L39.3967 9.64945L40.8997 8.23164V7.26936L41.7766 7.81272Z" fill="black"/>
<path d="M42.426 13.8003L41.8518 13.265L42.333 12.9669L42.9081 13.503L42.426 13.8003ZM40.9851 13.7013V12.856L39.5176 11.4717L39.8944 11.0736L41.4027 12.4965H42.9298L40.9851 13.7013ZM33.1757 7.32397L33.75 7.85929L33.2687 8.15749L32.6937 7.62133L33.1757 7.32397ZM34.6168 7.42309V8.26837L36.0843 9.65269L35.7075 10.0507L34.1992 8.62789H32.6721L34.6168 7.42309Z" fill="#D91C16"/>
<path d="M42.4262 7.32397L41.852 7.85929L42.3332 8.15749L42.9082 7.62133L42.4262 7.32397ZM40.9852 7.42309V8.26837L39.5177 9.65269L39.8945 10.0507L41.4028 8.62789H42.9299L40.9852 7.42309ZM33.1758 13.8003L33.75 13.265L33.2688 12.9669L32.6938 13.503L33.1758 13.8003ZM34.6168 13.7013V12.856L36.0843 11.4717L35.7076 11.0736L34.1993 12.4965H32.6721L34.6168 13.7013Z" fill="#1E9A1C"/>
<path d="M41.7729 10.5622L37.8011 13.2093L33.8293 10.5622L37.8011 7.91504L41.7729 10.5622Z" fill="black"/>
<path d="M37.7585 8.04639L34.0482 10.5192H41.5545L37.8443 8.04639V13.0777L41.5547 10.6049H34.048L37.7585 13.0777V8.04639Z" fill="white"/>
<path d="M38.8633 11.4725V12.2003H36.7392V11.4725H35.3645V9.65187H36.7392V8.92407H38.8633V9.65187H40.2379V11.4725H38.8633Z" fill="black"/>
<path d="M36.825 9.00977V9.73757H35.4504V10.5195H37.7585V9.00977L36.825 9.00977ZM37.8443 10.5195H40.1524V9.73757H38.7778V9.00977H37.8443L37.8443 10.5195ZM35.4504 10.6052V11.3871H36.825V12.1149H37.7585V10.6052L35.4504 10.6052ZM37.8443 12.1149H38.7778V11.3871H40.1524V10.6052H37.8443V12.1149Z" fill="#D91C16"/>
<path d="M44.5762 40.7219V39.5559H47.7739V38.3898H50.9715V27.8536H47.7739V26.6875H44.5762V25.5215H41.3786V24.3555H34.2221V25.5215H31.0245V26.6875H27.8267V27.8536H24.6291V38.3898H27.8267V39.5559H31.0245V40.7219H34.2221V41.8879H41.3786V40.7219H44.5762Z" fill="black"/>
<path d="M34.3126 24.4385V25.6037H31.1133V26.769H27.9142V27.9342H24.715V38.305H27.9142V39.4704H31.1133V40.6355H34.3126V41.8006H41.2933V40.6355H44.4926V39.4704H47.6919V38.305H50.8909V27.9342H47.6919V26.769H44.4926V25.6037H41.2933V24.4385H34.3126ZM35.1601 25.2859H40.4458V26.4512H43.6451V27.6164H46.8445V28.7817H50.0434V37.4575H46.8445V38.6229H43.6451V39.788H40.4458V40.9531H35.1601V39.788H31.9608V38.6229H28.7617V37.4575H25.5625V28.7817H28.7617V27.6164H31.9608V26.4512H35.1601V25.2859Z" fill="#FDD406"/>
<path d="M32.0431 39.7037V38.5375H28.8454V37.3716H25.6477V28.8715H28.8454V27.7055H32.0431V26.5395H35.2407V25.3735H40.3609V26.5395H43.5586V27.7055H46.7561V28.8715H49.9539V37.3716H46.7561V38.5375H43.5586V39.7037H40.3609V40.8696H35.2407V39.7037H32.0431Z" fill="#D91C16"/>
<path d="M32.7851 27.4028L31.9568 26.7767V27.9789L31.1637 28.4829L31.1617 27.7304L30.401 28.4136L29.6403 27.7304L29.6383 28.4829L28.7594 27.9244V29.039L28.0491 29.5532L28.0471 28.8698L27.2033 29.4809L26.3595 28.8698L26.3575 29.5532L25.5615 28.9769V32.3532H24.6291V33.8901H25.5615V37.2664L26.3575 36.69L26.3595 37.3736L27.2033 36.7624L28.047 37.3736L28.0491 36.69L28.7593 37.2042V38.3189L29.6382 37.7604L29.6403 38.513L30.4009 37.8297L31.1616 38.513L31.1637 37.7604L31.9567 38.2643V39.4666L32.785 38.8406L32.7868 39.6802L33.5985 38.9543L34.4103 39.6802L34.4121 38.8406L35.1546 39.4018V40.684L36.2649 39.672V40.8612L37.8004 39.874L39.336 40.8612V39.672L40.4463 40.684V39.4018L41.1887 38.8406L41.1905 39.6802L42.0023 38.9543L42.8141 39.6802L42.8159 38.8406L43.6439 39.4666V38.2643L44.4372 37.7604L44.4392 38.513L45.2 37.8297L45.9607 38.513L45.9627 37.7604L46.8417 38.3189V37.2042L47.552 36.69L47.554 37.3736L48.3977 36.7624L49.2416 37.3736L49.2435 36.69L50.0395 37.2663V33.8901H50.9719V32.3532H50.0395V28.9769L49.2435 29.5532L49.2416 28.8698L48.3977 29.4809L47.5539 28.8698L47.5521 29.5532L46.8418 29.039V27.9244L45.9628 28.4829L45.9608 27.7304L45.2001 28.4136L44.4393 27.7304L44.4373 28.4829L43.644 27.9788V26.7767L42.816 27.4026L42.8142 26.563L42.0024 27.289L41.1906 26.563L41.1888 27.4028L40.4463 26.8413V25.5593L39.3361 26.5713V25.3821L37.8005 26.3693L36.2649 25.3821V26.5713L35.1547 25.5593V26.8414L34.4121 27.4028L34.4103 26.563L33.5985 27.289L32.7869 26.563L32.7851 27.4028Z" fill="black"/>
<path d="M26.4434 29.7206L26.4454 29.0371L27.204 29.5866L27.2295 29.568L27.9625 29.0371L27.9645 29.7206L28.7601 29.1447V37.0983L27.9645 36.5225L27.9625 37.206L27.204 36.6565L26.4454 37.206L26.4434 36.5225L25.6478 37.0983V33.8042H24.7154V32.4389H25.6478V29.1447L26.4434 29.7206Z" fill="#1E9A1C"/>
<path d="M32.8729 26.7544L33.5994 27.4041L34.3259 26.7544L34.3277 27.5748L35.1554 26.949V39.2945L34.3277 38.6687L34.3259 39.4892L33.5994 38.8395L32.8729 39.4892L32.8713 38.6687L32.0435 39.2945V26.949L32.8713 27.5748L32.8729 26.7544Z" fill="#1E9A1C"/>
<path d="M42.7293 26.7544L42.0028 27.4041L41.2763 26.7544L41.2745 27.5748L40.4469 26.949V39.2945L41.2745 38.6687L41.2763 39.4892L42.0028 38.8395L42.7293 39.4892L42.7311 38.6687L43.5588 39.2945V26.949L42.7311 27.5748L42.7293 26.7544Z" fill="#1E9A1C"/>
<path d="M49.159 29.7206L49.157 29.0371L48.3985 29.5866L48.3728 29.568L47.6399 29.0371L47.6379 29.7206L46.8424 29.1447V37.0983L47.6379 36.5225L47.6399 37.206L48.3985 36.6565L49.157 37.206L49.159 36.5225L49.9545 37.0983V33.8042H50.8869V32.4389H49.9545V29.1447L49.159 29.7206Z" fill="#1E9A1C"/>
<path d="M29.7258 27.9221L30.4013 28.529L31.0768 27.9221L31.0788 28.6388L31.9573 28.0804V38.1629L31.0788 37.6047L31.0768 38.3212L30.4013 37.7145L29.7258 38.3212L29.7238 37.6047L28.8453 38.1629V28.0804L29.7238 28.6388L29.7258 27.9221Z" fill="#FDD406"/>
<path d="M36.3511 26.7653L35.2408 25.7534V40.4899L36.3511 39.4779V40.7042L37.8008 39.7721H37.801L39.2508 40.7042V39.4779L40.361 40.4899V25.7534L39.2508 26.7653V25.5391L37.801 26.4711H37.8008L36.3511 25.5391V26.7653Z" fill="#FDD406"/>
<path d="M45.8757 27.9221L45.2002 28.529L44.5246 27.9221L44.5228 28.6388L43.6441 28.0804V38.1629L44.5228 37.6047L44.5246 38.3212L45.2002 37.7145L45.8757 38.3212L45.8777 37.6047L46.7562 38.1629V28.0804L45.8777 28.6388L45.8757 27.9221Z" fill="#FDD406"/>
<path d="M26.8592 31.673C26.9563 31.7709 27.0724 31.8205 27.2041 31.8205C27.3358 31.8205 27.4518 31.7709 27.549 31.673C27.8527 31.367 27.8629 30.8136 27.8599 30.4153C27.8599 30.4153 27.5088 30.7863 27.4454 30.8533C27.4013 30.777 27.2041 30.4365 27.2041 30.4365C27.2041 30.4365 27.007 30.777 26.9627 30.8533C26.8993 30.7863 26.5482 30.4153 26.5482 30.4153C26.5452 30.8136 26.5555 31.367 26.8592 31.673Z" fill="black"/>
<path d="M30.1949 30.816L29.9391 30.5604V30.0511L29.3516 30.5956L30.4018 31.6459L31.452 30.5956L30.8645 30.0511V30.5604L30.6088 30.816V29.9137L31.0618 29.5248L30.4018 28.958L29.7418 29.5248L30.1949 29.9137V30.816Z" fill="black"/>
<path d="M33.3921 29.8038L33.1363 29.548V29.0388L32.5488 29.5833L33.5991 30.6336L34.6493 29.5833L34.0618 29.0388V29.548L33.8059 29.8038V28.9014L34.2591 28.5124L33.5991 27.9458L32.9391 28.5124L33.3921 28.9014V29.8038Z" fill="black"/>
<path d="M27.2041 30.6074C27.2565 30.6979 27.4287 30.9954 27.4287 30.9954C27.4287 30.9954 27.6714 30.7388 27.7705 30.6343C27.7586 31.0841 27.6599 31.4394 27.4881 31.6123C27.4076 31.6934 27.3121 31.7346 27.2041 31.7346C27.096 31.7346 27.0005 31.6934 26.9201 31.6124C26.7483 31.4394 26.6496 31.0841 26.6377 30.6343C26.7367 30.7389 26.9793 30.9954 26.9793 30.9954C27.0542 30.866 27.1292 30.7367 27.2041 30.6074Z" fill="white"/>
<path d="M33.7208 28.8621V30.0108L34.148 29.5837V29.2352L34.5263 29.5858L33.5996 30.5125L32.6729 29.5858L33.0511 29.2352V29.5837L33.4783 30.0108V28.8621L33.0711 28.5126L33.5996 28.0588L34.128 28.5126L33.7208 28.8621Z" fill="white"/>
<path d="M30.5226 29.8741V31.0227L30.9498 30.5955V30.2472L31.328 30.5977L30.4013 31.5244L29.4746 30.5977L29.8529 30.2472V30.5955L30.2801 31.0227V29.8741L29.8729 29.5245L30.4013 29.0708L30.9297 29.5245L30.5226 29.8741Z" fill="#D91C16"/>
<path d="M48.7433 31.673C48.6462 31.7709 48.5302 31.8205 48.3984 31.8205C48.2668 31.8205 48.1507 31.7709 48.0535 31.673C47.7498 31.367 47.7396 30.8136 47.7426 30.4153C47.7426 30.4153 48.0937 30.7863 48.1571 30.8533C48.2013 30.777 48.3984 30.4365 48.3984 30.4365C48.3984 30.4365 48.5956 30.777 48.6399 30.8533C48.7032 30.7863 49.0543 30.4153 49.0543 30.4153C49.0573 30.8136 49.047 31.367 48.7433 31.673Z" fill="black"/>
<path d="M45.4076 30.8157L45.6635 30.5601V30.0508L46.251 30.5954L45.2007 31.6456L44.1505 30.5954L44.738 30.0508V30.5601L44.9937 30.8157V29.9134L44.5407 29.5245L45.2007 28.9578L45.8607 29.5245L45.4076 29.9134V30.8157Z" fill="black"/>
<path d="M42.2105 29.8038L42.4662 29.548V29.0388L43.0537 29.5833L42.0035 30.6336L40.9532 29.5833L41.5408 29.0388V29.548L41.7966 29.8038V28.9014L41.3435 28.5124L42.0035 27.9458L42.6635 28.5124L42.2105 28.9014V29.8038Z" fill="black"/>
<path d="M48.3984 30.6074C48.346 30.6979 48.1738 30.9954 48.1738 30.9954C48.1738 30.9954 47.9312 30.7388 47.832 30.6343C47.8439 31.0841 47.9427 31.4394 48.1144 31.6123C48.1949 31.6934 48.2904 31.7346 48.3984 31.7346C48.5066 31.7346 48.6021 31.6934 48.6825 31.6124C48.8542 31.4394 48.953 31.0841 48.9648 30.6343C48.8658 30.7389 48.6232 30.9954 48.6232 30.9954C48.5483 30.866 48.4733 30.7367 48.3984 30.6074Z" fill="white"/>
<path d="M41.8815 28.8621V30.0108L41.4543 29.5837V29.2352L41.0761 29.5858L42.0027 30.5125L42.9295 29.5858L42.5512 29.2352V29.5837L42.124 30.0108V28.8621L42.5312 28.5126L42.0027 28.0588L41.4744 28.5126L41.8815 28.8621Z" fill="white"/>
<path d="M45.08 29.8741V31.0227L44.6528 30.5955V30.2472L44.2745 30.5977L45.2013 31.5244L46.1279 30.5977L45.7497 30.2472V30.5955L45.3225 31.0227V29.8741L45.7296 29.5245L45.2013 29.0708L44.6728 29.5245L45.08 29.8741Z" fill="#D91C16"/>
<path d="M39.0579 30.1873L38.7139 29.7119L39.5961 28.8974L38.7735 28.2216V28.7004L38.4295 28.9947V28.1263L39.2066 27.5535L37.8008 26.5173L36.395 27.5535L37.1722 28.1263V28.9947L36.8282 28.7004V28.2216L36.0055 28.8974L36.8878 29.7119L36.5438 30.1873H39.0579Z" fill="black"/>
<path d="M36.712 30.1017L37.0021 29.7006L36.1363 28.9014L36.7427 28.4031V28.74L37.2582 29.1811V28.0831L36.5398 27.5537L37.8011 26.624L39.0624 27.5537L38.3441 28.0831V29.1811L38.8595 28.74V28.4031L39.466 28.9014L38.6002 29.7006L38.8904 30.1017H36.712Z" fill="#D91C16"/>
<path d="M37.1578 27.5536L37.8002 28.027L38.4426 27.5536L37.8002 27.0801L37.7747 27.0989L37.1578 27.5536Z" fill="black"/>
<path d="M37.8012 27.1868C37.8437 27.218 38.2241 27.4984 38.2992 27.5537C38.2241 27.609 37.8437 27.8895 37.8012 27.9207C37.7588 27.8895 37.3783 27.609 37.3033 27.5537C37.3783 27.4984 37.7588 27.218 37.8012 27.1868Z" fill="#1E9A1C"/>
<path d="M26.8592 34.5702C26.9563 34.4722 27.0724 34.4227 27.2041 34.4227C27.3358 34.4227 27.4518 34.4722 27.549 34.5702C27.8527 34.8762 27.8629 35.4296 27.8599 35.8279C27.8599 35.8279 27.5088 35.4568 27.4454 35.3899C27.4013 35.4662 27.2041 35.8066 27.2041 35.8066C27.2041 35.8066 27.007 35.4662 26.9627 35.3899C26.8993 35.4568 26.5482 35.8279 26.5482 35.8279C26.5452 35.4296 26.5555 34.8762 26.8592 34.5702Z" fill="black"/>
<path d="M30.1949 35.4272L29.9391 35.6828V36.1921L29.3516 35.6475L30.4018 34.5973L31.452 35.6475L30.8645 36.1921V35.6828L30.6088 35.4272V36.3295L31.0618 36.7184L30.4018 37.2852L29.7418 36.7184L30.1949 36.3295V35.4272Z" fill="black"/>
<path d="M33.3921 36.4394L33.1363 36.6951V37.2044L32.5488 36.6598L33.5991 35.6096L34.6493 36.6598L34.0618 37.2044V36.6951L33.8059 36.4394V37.3418L34.2591 37.7307L33.5991 38.2974L32.9391 37.7307L33.3921 37.3418V36.4394Z" fill="black"/>
<path d="M27.2041 35.6357C27.2565 35.5453 27.4287 35.2478 27.4287 35.2478C27.4287 35.2478 27.6714 35.5043 27.7705 35.6089C27.7586 35.1591 27.6599 34.8038 27.4881 34.6309C27.4076 34.5497 27.3121 34.5086 27.2041 34.5086C27.096 34.5086 27.0005 34.5497 26.9201 34.6307C26.7483 34.8038 26.6496 35.1591 26.6377 35.6089C26.7367 35.5042 26.9793 35.2478 26.9793 35.2478C27.0542 35.3771 27.1292 35.5065 27.2041 35.6357Z" fill="white"/>
<path d="M33.7208 37.381V36.2324L34.148 36.6595V37.008L34.5263 36.6573L33.5996 35.7307L32.6729 36.6573L33.0511 37.008V36.6595L33.4783 36.2324V37.381L33.0711 37.7306L33.5996 38.1843L34.128 37.7306L33.7208 37.381Z" fill="white"/>
<path d="M30.5226 36.3691V35.2204L30.9498 35.6476V35.996L31.328 35.6455L30.4013 34.7187L29.4746 35.6455L29.8529 35.996V35.6476L30.2801 35.2204V36.3691L29.8729 36.7186L30.4013 37.1724L30.9297 36.7186L30.5226 36.3691Z" fill="#D91C16"/>
<path d="M48.7433 34.5702C48.6462 34.4722 48.5302 34.4227 48.3984 34.4227C48.2668 34.4227 48.1507 34.4722 48.0535 34.5702C47.7498 34.8762 47.7396 35.4296 47.7426 35.8279C47.7426 35.8279 48.0937 35.4568 48.1571 35.3899C48.2013 35.4662 48.3984 35.8066 48.3984 35.8066C48.3984 35.8066 48.5956 35.4662 48.6399 35.3899C48.7032 35.4568 49.0543 35.8279 49.0543 35.8279C49.0573 35.4296 49.047 34.8762 48.7433 34.5702Z" fill="black"/>
<path d="M45.4076 35.4274L45.6635 35.683V36.1923L46.251 35.6478L45.2007 34.5975L44.1505 35.6478L44.738 36.1923V35.683L44.9937 35.4274V36.3297L44.5407 36.7186L45.2007 37.2854L45.8607 36.7186L45.4076 36.3297V35.4274Z" fill="black"/>
<path d="M42.2105 36.4394L42.4662 36.6951V37.2044L43.0537 36.6598L42.0035 35.6096L40.9532 36.6598L41.5408 37.2044V36.6951L41.7966 36.4394V37.3418L41.3435 37.7307L42.0035 38.2974L42.6635 37.7307L42.2105 37.3418V36.4394Z" fill="black"/>
<path d="M48.3984 35.6357C48.346 35.5453 48.1738 35.2478 48.1738 35.2478C48.1738 35.2478 47.9312 35.5043 47.832 35.6089C47.8439 35.1591 47.9427 34.8038 48.1144 34.6309C48.1949 34.5497 48.2904 34.5086 48.3984 34.5086C48.5066 34.5086 48.6021 34.5497 48.6825 34.6307C48.8542 34.8038 48.953 35.1591 48.9648 35.6089C48.8658 35.5042 48.6232 35.2478 48.6232 35.2478C48.5483 35.3771 48.4733 35.5065 48.3984 35.6357Z" fill="white"/>
<path d="M41.8815 37.381V36.2324L41.4543 36.6595V37.008L41.0761 36.6573L42.0027 35.7307L42.9295 36.6573L42.5512 37.008V36.6595L42.124 36.2324V37.381L42.5312 37.7306L42.0027 38.1843L41.4744 37.7306L41.8815 37.381Z" fill="white"/>
<path d="M45.08 36.3691V35.2204L44.6528 35.6476V35.996L44.2745 35.6455L45.2013 34.7187L46.1279 35.6455L45.7497 35.996V35.6476L45.3225 35.2204V36.3691L45.7296 36.7186L45.2013 37.1724L44.6728 36.7186L45.08 36.3691Z" fill="#D91C16"/>
<path d="M39.0579 36.0559L38.7139 36.5313L39.5961 37.3458L38.7735 38.0216V37.5428L38.4295 37.2484V38.1169L39.2066 38.6896L37.8008 39.7258L36.395 38.6896L37.1722 38.1169V37.2484L36.8282 37.5428V38.0216L36.0055 37.3458L36.8878 36.5313L36.5438 36.0559H39.0579Z" fill="black"/>
<path d="M36.712 36.1414L37.0021 36.5426L36.1363 37.3418L36.7427 37.84V37.5032L37.2582 37.0621V38.1601L36.5398 38.6895L37.8011 39.6191L39.0624 38.6895L38.3441 38.1601V37.0621L38.8595 37.5032V37.84L39.466 37.3418L38.6002 36.5426L38.8904 36.1414H36.712Z" fill="#D91C16"/>
<path d="M37.1578 38.6896L37.8002 38.2162L38.4426 38.6896L37.8002 39.1631L37.7747 39.1442L37.1578 38.6896Z" fill="black"/>
<path d="M37.8012 39.0564C37.8437 39.0252 38.2241 38.7448 38.2992 38.6894C38.2241 38.6341 37.8437 38.3537 37.8012 38.3225C37.7588 38.3537 37.3783 38.6341 37.3033 38.6894C37.3783 38.7448 37.7588 39.0252 37.8012 39.0564Z" fill="#1E9A1C"/>
<path d="M49.182 32.63H47.7745V32.069H43.4724L40.4775 30.1018H40.4648H35.1246L32.1298 32.069H27.8276V32.63H26.4201V33.6135H27.8276V34.1745H32.1298L35.1246 36.1418H40.4775L43.4724 34.1745H47.7745V33.6135H49.182V32.63Z" fill="black"/>
<path d="M35.1491 30.1904L32.1513 32.1502H27.914V32.7116H26.5051V33.5273H27.914V34.0887H32.1513L35.1491 36.0591H40.4563L43.4436 34.0887H47.6915V33.5273H49.1004V32.7116H47.6915V32.1502H43.4436L40.4563 30.1904H35.1491ZM35.2127 30.4764H40.3822L43.1258 32.2773V32.5527H46.1873V33.6968H43.1258V33.9722L40.3822 35.7625H35.2127L32.4797 33.9722V33.6968H29.4076V32.5527H32.4797V32.2773L35.2127 30.4764Z" fill="#D91C16"/>
<path d="M40.3612 30.5652L43.037 32.3219V32.6336H46.1034V33.6097H43.037V33.9216L40.3612 35.6783H35.2404L32.5646 33.9216V33.6097H29.4982V32.6336H32.5646V32.3219L35.2404 30.5652H40.3612Z" fill="#D91C16"/>
<path d="M33.9108 34.1195L35.0694 34.9893L35.8315 34.417L35.3884 34.0844L35.0694 34.324L34.797 34.1195L39.16 30.8438H38.274L33.9108 34.1195ZM36.4398 35.3997H37.3258L41.689 32.1239L40.5306 31.2543L39.7683 31.8264L40.2114 32.1589L40.5306 31.9193L40.803 32.1239L36.4398 35.3997ZM38.274 35.3997H39.1599L34.797 32.1239L35.0694 31.9193L35.3884 32.1589L35.8315 31.8264L35.0694 31.2543L33.9108 32.1239L38.274 35.3997ZM40.803 34.1195L40.5306 34.324L40.2114 34.0844L39.7683 34.417L40.5306 34.9893L41.689 34.1195L37.3258 30.8438H36.4398L40.803 34.1195Z" fill="black"/>
<path d="M33.0338 33.1217L33.8125 33.6389L34.5912 33.1217L33.8125 32.6045L33.0338 33.1217Z" fill="black"/>
<path d="M37.0221 33.1217L37.8008 33.6389L38.5794 33.1217L37.8008 32.6045L37.0221 33.1217Z" fill="black"/>
<path d="M42.5677 33.1217L41.789 33.6389L41.0104 33.1217L41.789 32.6045L42.5677 33.1217Z" fill="black"/>
<path d="M41.547 34.1197L40.5313 34.8822L39.9117 34.4171L40.2121 34.1916L40.5313 34.4313L40.9464 34.1197L36.6974 30.9297H37.298L41.547 34.1197ZM38.9037 35.314H38.3033L34.0543 32.124L35.0701 31.3614L35.6894 31.8266L35.3892 32.0519L35.0701 31.8123L34.6549 32.124L38.9037 35.314ZM37.298 35.314H36.6974L40.9464 32.124L40.5313 31.8123L40.2121 32.0519L39.9117 31.8266L40.5313 31.3614L41.547 32.124L37.298 35.314ZM38.3033 30.9297H38.9037L34.6549 34.1196L35.0701 34.4313L35.3892 34.1916L35.6894 34.4171L35.0701 34.8822L34.0543 34.1196L38.3033 30.9297Z" fill="#FDD406"/>
<path d="M33.8128 32.7075L34.4366 33.1218L33.8128 33.536L33.1891 33.1218L33.8128 32.7075Z" fill="#1E9A1C"/>
<path d="M37.801 32.7075L38.4248 33.1218L37.801 33.536L37.1774 33.1218L37.801 32.7075Z" fill="#1E9A1C"/>
<path d="M41.7894 32.7075L41.1656 33.1218L41.7894 33.536L42.413 33.1218L41.7894 32.7075Z" fill="#1E9A1C"/>
<path d="M24.1051 54.8301L23.7995 55.2622L24.3472 55.681L23.7994 56.0999L24.1049 56.532L24.7413 56.6059L25.3575 56.1298L26.8939 57.1057V56.2953L25.9269 55.681L26.8939 55.0668V54.2563L25.3575 55.2323L24.7413 54.7563L24.1051 54.8301Z" fill="black"/>
<path d="M24.1051 52.0146L23.7995 52.4469L24.3472 52.8657L23.7994 53.2845L24.1049 53.7167L24.7413 53.7905L25.3575 53.3144L26.8939 54.2904V53.4798L25.9269 52.8657L26.8939 52.2514V51.4409L25.3575 52.4169L24.7413 51.9408L24.1051 52.0146Z" fill="black"/>
<path d="M24.1051 59.3477L23.7995 58.9156L24.3472 58.4968L23.7994 58.0779L24.1049 57.6457L24.7413 57.5719L25.3575 58.048L26.8939 57.072V57.8825L25.9269 58.4968L26.8939 59.1109V59.9214L25.3575 58.9455L24.7413 59.4216L24.1051 59.3477Z" fill="black"/>
<path d="M51.4985 54.8301L51.804 55.2622L51.2563 55.681L51.804 56.0999L51.4985 56.532L50.8622 56.6059L50.246 56.1298L48.7096 57.1057V56.2953L49.6766 55.681L48.7096 55.0668V54.2563L50.246 55.2323L50.8622 54.7563L51.4985 54.8301Z" fill="black"/>
<path d="M51.4985 52.0146L51.804 52.4469L51.2563 52.8657L51.804 53.2845L51.4985 53.7167L50.8622 53.7905L50.246 53.3144L48.7096 54.2904V53.4798L49.6766 52.8657L48.7096 52.2514V51.4409L50.246 52.4169L50.8622 51.9408L51.4985 52.0146Z" fill="black"/>
<path d="M51.4985 59.3477L51.804 58.9156L51.2563 58.4968L51.804 58.0779L51.4985 57.6457L50.8622 57.5719L50.246 58.048L48.7096 57.072V57.8825L49.6766 58.4968L48.7096 59.1109V59.9214L50.246 58.9455L50.8622 59.4216L51.4985 59.3477Z" fill="black"/>
<path d="M45.3482 47.146V48.3172H46.2001V48.8348H47.037V47.8923H46.2906V47.146H45.3482Z" fill="black"/>
<path d="M47.859 48.9929V50.164H48.71V50.6817H49.5477V49.7392H48.8015V48.9929H47.859Z" fill="black"/>
<path d="M30.2557 47.146V48.3172H29.4036V48.8348H28.567V47.8923H29.3133V47.146H30.2557Z" fill="black"/>
<path d="M45.3482 64.2166V63.0454H46.2001V62.5278H47.037V63.4702H46.2906V64.2166H45.3482Z" fill="black"/>
<path d="M30.2557 64.2166V63.0454H29.4036V62.5278H28.567V63.4702H29.3133V64.2166H30.2557Z" fill="black"/>
<path d="M47.859 62.3694V61.1983H48.71V60.6807H49.5477V61.623H48.8015V62.3694H47.859Z" fill="black"/>
<path d="M27.745 48.9929V50.164H26.8937V50.6817H26.0563V49.7392H26.8025V48.9929H27.745Z" fill="black"/>
<path d="M27.745 62.3694V61.1983H26.8937V60.6807H26.0563V61.623H26.8025V62.3694H27.745Z" fill="black"/>
<path d="M40.9532 47.1187C40.8989 47.0659 40.3031 46.4875 40.3031 46.4875L39.6644 47.0793C39.6644 47.0793 40.1648 47.5649 40.2211 47.6196L39.5025 48.3172H40.5693L40.9532 47.9445L41.3371 48.3172H42.4038L41.6852 47.6196C41.7415 47.5649 42.2418 47.0793 42.2418 47.0793L41.6033 46.4875C41.3863 46.6977 41.1698 46.9083 40.9532 47.1187Z" fill="black"/>
<path d="M37.8017 47.1187C37.7475 47.0659 37.1517 46.4875 37.1517 46.4875L36.513 47.0793C36.513 47.0793 37.0133 47.5649 37.0697 47.6196L36.3512 48.3172H37.4178L37.8017 47.9445L38.1856 48.3172H39.2523L38.5338 47.6196C38.5901 47.5649 39.0904 47.0793 39.0904 47.0793L38.4519 46.4875C38.2349 46.6977 38.0184 46.9083 37.8017 47.1187Z" fill="black"/>
<path d="M34.6513 47.1187C34.7057 47.0659 35.3015 46.4875 35.3015 46.4875L35.9401 47.0793C35.9401 47.0793 35.4397 47.5649 35.3835 47.6196L36.102 48.3172H35.0352L34.6513 47.9445L34.2675 48.3172H33.2008L33.9193 47.6196C33.8631 47.5649 33.3627 47.0793 33.3627 47.0793L34.0013 46.4875C34.2183 46.6977 34.4347 46.9083 34.6513 47.1187Z" fill="black"/>
<path d="M40.9532 64.2438C40.8989 64.2965 40.3031 64.8749 40.3031 64.8749L39.6644 64.2832C39.6644 64.2832 40.1648 63.7977 40.2211 63.743L39.5025 63.0454H40.5693L40.9532 63.4181L41.3371 63.0454H42.4038L41.6852 63.743C41.7415 63.7977 42.2418 64.2832 42.2418 64.2832L41.6033 64.8749C41.3863 64.6648 41.1698 64.4542 40.9532 64.2438Z" fill="black"/>
<path d="M37.8017 64.2438C37.7475 64.2965 37.1517 64.8749 37.1517 64.8749L36.513 64.2832C36.513 64.2832 37.0133 63.7977 37.0697 63.743L36.3512 63.0454H37.4178L37.8017 63.4181L38.1856 63.0454H39.2523L38.5338 63.743C38.5901 63.7977 39.0904 64.2832 39.0904 64.2832L38.4519 64.8749C38.2349 64.6648 38.0184 64.4542 37.8017 64.2438Z" fill="black"/>
<path d="M34.6513 64.2438C34.7057 64.2965 35.3015 64.8749 35.3015 64.8749L35.9401 64.2832C35.9401 64.2832 35.4397 63.7977 35.3835 63.743L36.102 63.0454H35.0352L34.6513 63.4181L34.2675 63.0454H33.2008L33.9193 63.743C33.8631 63.7977 33.3627 64.2832 33.3627 64.2832L34.0013 64.8749C34.2183 64.6648 34.4347 64.4542 34.6513 64.2438Z" fill="black"/>
<path d="M26.8076 56.3427V56.95L25.352 56.0254L24.7159 56.517L24.1523 56.4516L23.9166 56.1182L24.4878 55.6814L23.9166 55.2446L24.1524 54.9111L24.7159 54.8457L25.352 55.3372L26.8076 54.4126V55.0199L25.7664 55.6814L26.8076 56.3427Z" fill="#1E9A1C"/>
<path d="M26.8076 53.5269V54.1343L25.352 53.2097L24.7159 53.7012L24.1523 53.6358L23.9166 53.3024L24.4878 52.8656L23.9166 52.4289L24.1524 52.0954L24.7159 52.0299L25.352 52.5214L26.8076 51.5969V52.2042L25.7664 52.8656L26.8076 53.5269Z" fill="#1E9A1C"/>
<path d="M26.8076 57.8354V57.228L25.352 58.1526L24.7159 57.661L24.1523 57.7264L23.9166 58.0599L24.4878 58.4967L23.9166 58.9335L24.1524 59.2669L24.7159 59.3323L25.352 58.8408L26.8076 59.7654V59.1581L25.7664 58.4967L26.8076 57.8354Z" fill="#1E9A1C"/>
<path d="M48.7955 56.3427V56.95L50.2511 56.0254L50.8871 56.517L51.4507 56.4516L51.6864 56.1182L51.1152 55.6814L51.6864 55.2446L51.4507 54.9111L50.8871 54.8457L50.2511 55.3372L48.7955 54.4126V55.0199L49.8366 55.6814L48.7955 56.3427Z" fill="#1E9A1C"/>
<path d="M48.7955 53.5269V54.1343L50.2511 53.2097L50.8871 53.7012L51.4507 53.6358L51.6864 53.3024L51.1152 52.8656L51.6864 52.4289L51.4507 52.0954L50.8871 52.0299L50.2511 52.5214L48.7955 51.5969V52.2042L49.8366 52.8656L48.7955 53.5269Z" fill="#1E9A1C"/>
<path d="M48.7955 57.8354V57.228L50.2511 58.1526L50.8871 57.661L51.4507 57.7264L51.6864 58.0599L51.1152 58.4967L51.6864 58.9335L51.4507 59.2669L50.8871 59.3323L50.2511 58.8408L48.7955 59.7654V59.1581L49.8366 58.4967L48.7955 57.8354Z" fill="#1E9A1C"/>
<path d="M46.2042 47.2317V47.9781H46.9505V48.7491H46.2852V48.2315H45.4332V47.2317H46.2042Z" fill="#1E9A1C"/>
<path d="M48.7149 49.0786V49.8249H49.4612V50.596H48.7958V50.0785H47.9439V49.0786H48.7149Z" fill="#1E9A1C"/>
<path d="M29.3992 47.2317V47.9781H28.6529V48.7491H29.3183V48.2315H30.1702V47.2317H29.3992Z" fill="#1E9A1C"/>
<path d="M46.2042 64.1306V63.3843H46.9505V62.6133H46.2852V63.1308H45.4332V64.1306H46.2042Z" fill="#1E9A1C"/>
<path d="M29.3993 64.1306V63.3843H28.6529V62.6133H29.3183V63.1308H30.1703V64.1306H29.3993Z" fill="#1E9A1C"/>
<path d="M48.7149 62.2839V61.5376H49.4612V60.7666H48.7958V61.2842H47.9439V62.2839H48.7149Z" fill="#1E9A1C"/>
<path d="M26.8875 49.0786V49.8249H26.1412V50.596H26.8066V50.0785H27.6585V49.0786H26.8875Z" fill="#1E9A1C"/>
<path d="M26.8876 62.2839V61.5376H26.1412V60.7666H26.8066V61.2842H27.6586V62.2839H26.8876Z" fill="#1E9A1C"/>
<path d="M40.3012 46.6057C40.3544 46.6573 40.9527 47.2381 40.9527 47.2381C40.9527 47.2381 41.5509 46.6573 41.6041 46.6057C41.6545 46.6523 42.0612 47.0291 42.1168 47.0807C42.0592 47.1365 41.5616 47.6196 41.5616 47.6196L42.1918 48.2315H41.3714L40.9527 47.8249L40.5339 48.2315H39.7135L40.3437 47.6196C40.3437 47.6196 39.8461 47.1365 39.7885 47.0807C39.8442 47.0291 40.2508 46.6523 40.3012 46.6057Z" fill="#1E9A1C"/>
<path d="M37.15 46.6057C37.2031 46.6573 37.8013 47.2381 37.8013 47.2381C37.8013 47.2381 38.3995 46.6573 38.4528 46.6057C38.5032 46.6523 38.9098 47.0291 38.9655 47.0807C38.908 47.1365 38.4103 47.6196 38.4103 47.6196L39.0406 48.2315H38.22L37.8013 47.8249L37.3827 48.2315H36.5621L37.1923 47.6196C37.1923 47.6196 36.6947 47.1365 36.6372 47.0807C36.6929 47.0291 37.0996 46.6523 37.15 46.6057Z" fill="#1E9A1C"/>
<path d="M35.3023 46.6057C35.249 46.6573 34.6508 47.2381 34.6508 47.2381C34.6508 47.2381 34.0526 46.6573 33.9995 46.6057C33.9491 46.6523 33.5424 47.0291 33.4867 47.0807C33.5443 47.1365 34.042 47.6196 34.042 47.6196L33.4117 48.2315H34.2322L34.6508 47.8249L35.0696 48.2315H35.8901L35.2598 47.6196C35.2598 47.6196 35.7575 47.1365 35.8151 47.0807C35.7594 47.0291 35.3527 46.6523 35.3023 46.6057Z" fill="#1E9A1C"/>
<path d="M40.3012 64.7566C40.3544 64.7049 40.9527 64.1241 40.9527 64.1241C40.9527 64.1241 41.5509 64.7049 41.6041 64.7566C41.6545 64.7099 42.0612 64.3331 42.1168 64.2817C42.0592 64.2257 41.5616 63.7427 41.5616 63.7427L42.1918 63.1309H41.3714L40.9527 63.5373L40.5339 63.1309H39.7135L40.3437 63.7427C40.3437 63.7427 39.8461 64.2257 39.7885 64.2817C39.8442 64.3331 40.2508 64.7099 40.3012 64.7566Z" fill="#1E9A1C"/>
<path d="M37.15 64.7566C37.2031 64.7049 37.8013 64.1241 37.8013 64.1241C37.8013 64.1241 38.3995 64.7049 38.4528 64.7566C38.5032 64.7099 38.9098 64.3331 38.9655 64.2817C38.908 64.2257 38.4103 63.7427 38.4103 63.7427L39.0406 63.1309H38.22L37.8013 63.5373L37.3827 63.1309H36.5621L37.1923 63.7427C37.1923 63.7427 36.6947 64.2257 36.6372 64.2817C36.6929 64.3331 37.0996 64.7099 37.15 64.7566Z" fill="#1E9A1C"/>
<path d="M35.3023 64.7566C35.249 64.7049 34.6508 64.1241 34.6508 64.1241C34.6508 64.1241 34.0526 64.7049 33.9995 64.7566C33.9491 64.7099 33.5424 64.3331 33.4867 64.2817C33.5443 64.2257 34.042 63.7427 34.042 63.7427L33.4117 63.1309H34.2322L34.6508 63.5373L35.0696 63.1309H35.8901L35.2598 63.7427C35.2598 63.7427 35.7575 64.2257 35.8151 64.2817C35.7594 64.3331 35.3527 64.7099 35.3023 64.7566Z" fill="#1E9A1C"/>
<path d="M29.318 61.2841V63.1309H46.2851V61.2841H48.7953V50.0782H46.2851V48.2314H29.318V50.0782H26.8078V61.2841H29.318Z" fill="black"/>
<path d="M29.4092 48.3155V50.1589H26.8986V61.1969H29.4092V63.0403H46.1994V61.1969H48.7102V50.1588H46.1994V48.3154L29.4092 48.3155ZM30.4897 49.0254H45.1191V50.805L45.7228 51.2501H48.0004V60.1165H45.7123L45.1191 60.5508V62.341H30.4898V60.5613L29.8859 60.1165H27.5978V51.2501H29.8753L30.4897 50.805L30.4897 49.0254Z" fill="#FDD406"/>
<path d="M30.574 49.1101V50.7416L32.7774 49.1101H30.574ZM42.8196 49.1101L45.023 50.7416V49.1101H42.8196ZM27.6926 51.3349V52.8603L29.7689 51.3349H27.6926ZM45.8284 51.3349L47.9152 52.8708V51.3349H45.8284ZM47.9152 58.485L45.8284 60.0318H47.9152V58.485ZM27.6926 58.4955V60.0318H29.7689L27.6926 58.4955ZM30.5739 60.625V62.2457H32.7667L30.5739 60.625ZM45.0229 60.625L42.8304 62.2457H45.0229V60.625Z" fill="#D91C16"/>
<path d="M42.677 49.1118C42.6996 49.1284 47.8801 52.9547 47.9145 52.9801V58.3822C47.8801 58.4077 42.6996 62.2339 42.677 62.2506H32.9251C32.9027 62.2339 27.7221 58.4077 27.6877 58.3822V52.9801C27.7221 52.9547 32.9027 49.1284 32.9251 49.1118H42.677Z" fill="#1E9A1C"/>
<path d="M28.9354 59.0042L28.3332 58.3053L28.8985 57.6493L28.3332 56.9932L28.8985 56.3373L28.3332 55.6813L28.8985 55.0252L28.3332 54.3692L28.8984 53.7131L28.3332 53.0571L28.9354 52.3583H46.6676L47.2698 53.0571L46.7045 53.7131L47.2698 54.3692L46.7045 55.0252L47.2698 55.6813L46.7045 56.3373L47.2698 56.9932L46.7045 57.6493L47.2698 58.3053L46.6676 59.0042H28.9354ZM41.1245 49.9569L40.4256 49.3547L39.7694 49.9201L39.1135 49.3547L38.4575 49.9201L37.8014 49.3547L37.1454 49.9201L36.4894 49.3547L35.8334 49.9201L35.1774 49.3547L34.4785 49.9569V61.4055L35.1774 62.0078L35.8334 61.4425L36.4894 62.0077L37.1454 61.4423L37.8014 62.0077L38.4575 61.4423L39.1135 62.0077L39.7694 61.4425L40.4256 62.0078L41.1245 61.4055V49.9569Z" fill="black"/>
<path d="M39.7269 49.9961L39.1138 49.4678L38.5006 49.9961V61.3661L39.1138 61.8944L39.7269 61.3661V49.9961Z" fill="#FDD406"/>
<path d="M37.1028 49.9961L36.4896 49.4678L35.8766 49.9961V61.3661L36.4896 61.8944L37.1028 61.3661V49.9961Z" fill="#FDD406"/>
<path d="M28.9751 58.9185L28.4469 58.3053L28.9751 57.6921H46.6289L47.1571 58.3053L46.6289 58.9185H28.9751Z" fill="#FDD406"/>
<path d="M46.6288 55.0679L47.1572 55.6811L46.6288 56.2942H28.9752L28.4469 55.6811L28.9752 55.0679H46.6288Z" fill="#FDD406"/>
<path d="M46.6289 53.6704L47.1571 53.0572L46.6289 52.4441H28.9751L28.4469 53.0572L28.9751 53.6704H46.6289Z" fill="#FDD406"/>
<path d="M41.0394 49.9961L40.4263 49.4678L39.8131 49.9961V61.3661L40.4263 61.8944L41.0392 61.3662L41.0394 49.9961Z" fill="#D91C16"/>
<path d="M35.7914 49.9961L35.1782 49.4678L34.565 49.9961V61.3661L35.1782 61.8944L35.7914 61.3661V49.9961Z" fill="#D91C16"/>
<path d="M28.9752 57.6063L28.4469 56.9931L28.9752 56.3799H46.6288L47.1572 56.9931L46.6288 57.6063H28.9752Z" fill="#D91C16"/>
<path d="M28.9752 54.9823L28.4469 54.3691L28.9752 53.7559H46.6288L47.1572 54.3691L46.6288 54.9823H28.9752Z" fill="#D91C16"/>
<path d="M38.4155 61.3661L37.8023 61.8944L37.1891 61.3661V49.9961L37.8023 49.4678L38.4155 49.9961V61.3661Z" fill="#D91C16"/>
<path d="M43.7281 50.218H31.832V51.1628H30.3117V60.1997H31.832V61.1444H43.7709V60.1997H45.2912V51.1628H43.7709V50.218H43.7281Z" fill="black"/>
<path d="M31.9192 50.3069V51.2499H30.3938V60.1164H31.9192V61.0591H33.1692L30.6798 58.9723V52.3937L33.1692 50.3069H31.9192ZM42.4384 50.3069L44.9171 52.3937V58.9723L42.4384 61.0591H43.6883V60.1164H45.2032V51.2499H43.6883V50.3069L42.4384 50.3069Z" fill="#D91C16"/>
<path d="M33.3076 50.3069C33.2841 50.3267 30.7953 52.4109 30.7652 52.4361V58.9297C30.7953 58.9551 33.2841 61.0392 33.3076 61.059H42.3012C42.3249 61.0392 44.8029 58.9549 44.833 58.9297V52.4361C44.8029 52.4109 42.3249 50.3267 42.3012 50.3069H33.3076ZM33.4347 50.6671H42.1635L44.4729 52.6056V58.7603L42.1635 60.6882H33.4347L31.136 58.7603V52.6056L33.4347 50.6671Z" fill="#1E9A1C"/>
<path d="M35.7467 58.8577L36.1375 59.0265L36.2093 59.4829L35.7175 59.9156L36.4319 60.6064H35.7445L35.2529 60.1333L34.7613 60.6064H34.0738L34.7884 59.9156L34.2964 59.4829L34.3684 59.0265L34.759 58.8577L35.2529 59.2526L35.2797 59.2312L35.7467 58.8577Z" fill="#1E9A1C"/>
<path d="M38.2967 58.8577L38.6873 59.0265L38.7593 59.4829L38.2674 59.9156L38.9819 60.6064H38.2944L37.8027 60.1333L37.3112 60.6064H36.6236L37.3382 59.9156L36.8463 59.4829L36.9183 59.0265L37.3089 58.8577L37.8027 59.2526L37.8295 59.2312L38.2967 58.8577Z" fill="#1E9A1C"/>
<path d="M39.8577 58.8577L39.4671 59.0265L39.3951 59.4829L39.8869 59.9156L39.1725 60.6064H39.8599L40.3516 60.1333L40.8431 60.6064H41.5306L40.8161 59.9156L41.308 59.4829L41.236 59.0265L40.8454 58.8577L40.3516 59.2526L40.3247 59.2312L39.8577 58.8577Z" fill="#1E9A1C"/>
<path d="M35.7467 52.5045L36.1375 52.3357L36.2093 51.8794L35.7175 51.4467L36.4319 50.7559H35.7445L35.2529 51.2289L34.7613 50.7559H34.0738L34.7884 51.4467L34.2964 51.8793L34.3684 52.3357L34.759 52.5045L35.2529 52.1097L35.2797 52.1311L35.7467 52.5045Z" fill="#1E9A1C"/>
<path d="M38.2967 52.5045L38.6873 52.3357L38.7593 51.8794L38.2674 51.4467L38.9819 50.7559H38.2944L37.8027 51.2289L37.3112 50.7559H36.6236L37.3382 51.4467L36.8463 51.8793L36.9183 52.3357L37.3089 52.5045L37.8027 52.1097L37.8295 52.1311L38.2967 52.5045Z" fill="#1E9A1C"/>
<path d="M39.8577 52.5045L39.4671 52.3357L39.3951 51.8794L39.8869 51.4467L39.1725 50.7559H39.8599L40.3516 51.2289L40.8431 50.7559H41.5306L40.8161 51.4467L41.308 51.8793L41.236 52.3357L40.8454 52.5045L40.3516 52.1097L40.3247 52.1311L39.8577 52.5045Z" fill="#1E9A1C"/>
<path d="M44.3834 53.2332L43.9934 53.5561L44.3834 53.8789V54.4142L43.7837 53.92C43.7837 53.92 43.3803 54.2854 43.3532 54.31C43.3187 54.3056 42.9301 54.2568 42.8917 54.252C42.8745 54.2204 42.7532 53.9968 42.7291 53.952C42.7693 53.9119 43.1263 53.5561 43.1263 53.5561C43.1263 53.5561 42.7693 53.2002 42.7291 53.1601C42.7532 53.1154 42.8745 52.8916 42.8917 52.8601C42.9301 52.8553 43.3187 52.8064 43.3532 52.802C43.3803 52.8266 43.7837 53.1922 43.7837 53.1922L44.3834 52.698V53.2332Z" fill="#1E9A1C"/>
<path d="M44.3834 55.3582L43.9934 55.6811L44.3834 56.0038V56.5392L43.7837 56.045C43.7837 56.045 43.3803 56.4104 43.3532 56.435C43.3187 56.4306 42.9301 56.3817 42.8917 56.377C42.8745 56.3454 42.7532 56.1216 42.7291 56.077C42.7693 56.0369 43.1263 55.6811 43.1263 55.6811C43.1263 55.6811 42.7693 55.3251 42.7291 55.285C42.7532 55.2404 42.8745 55.0166 42.8917 54.985C42.9301 54.9803 43.3187 54.9314 43.3532 54.927C43.3803 54.9516 43.7837 55.317 43.7837 55.317L44.3834 54.823V55.3582Z" fill="#1E9A1C"/>
<path d="M44.3834 58.129L43.9934 57.8061L44.3834 57.4833V56.948L43.7837 57.4423C43.7837 57.4423 43.3803 57.0768 43.3532 57.0522C43.3187 57.0565 42.9301 57.1054 42.8917 57.1101C42.8745 57.1417 42.7532 57.3655 42.7291 57.4101C42.7693 57.4503 43.1263 57.8061 43.1263 57.8061C43.1263 57.8061 42.7693 58.162 42.7291 58.2021C42.7532 58.2468 42.8745 58.4706 42.8917 58.5021C42.9301 58.5069 43.3187 58.5558 43.3532 58.5601C43.3803 58.5355 43.7837 58.1701 43.7837 58.1701L44.3834 58.6642V58.129Z" fill="#1E9A1C"/>
<path d="M31.2223 53.2334L31.6121 53.5564L31.2223 53.8792V54.4145L31.822 53.9202C31.822 53.9202 32.2253 54.2856 32.2525 54.3102C32.2869 54.3059 32.6756 54.257 32.714 54.2522C32.7311 54.2207 32.8523 53.997 32.8766 53.9522C32.8364 53.9122 32.4794 53.5564 32.4794 53.5564C32.4794 53.5564 32.8364 53.2004 32.8766 53.1604C32.8523 53.1156 32.7311 52.8918 32.714 52.8604C32.6756 52.8556 32.2869 52.8066 32.2525 52.8023C32.2253 52.8269 31.822 53.1924 31.822 53.1924L31.2223 52.6982V53.2334Z" fill="#1E9A1C"/>
<path d="M31.2223 55.3584L31.6121 55.6814L31.2223 56.004V56.5395L31.822 56.0452C31.822 56.0452 32.2253 56.4106 32.2525 56.4352C32.2869 56.4309 32.6756 56.3819 32.714 56.3772C32.7311 56.3457 32.8523 56.1219 32.8766 56.0772C32.8364 56.0372 32.4794 55.6814 32.4794 55.6814C32.4794 55.6814 32.8364 55.3253 32.8766 55.2852C32.8523 55.2406 32.7311 55.0168 32.714 54.9852C32.6756 54.9806 32.2869 54.9316 32.2525 54.9273C32.2253 54.9519 31.822 55.3173 31.822 55.3173L31.2223 54.8232V55.3584Z" fill="#1E9A1C"/>
<path d="M31.2223 58.129L31.6121 57.8061L31.2223 57.4833V56.948L31.822 57.4423C31.822 57.4423 32.2253 57.0768 32.2525 57.0522C32.2869 57.0565 32.6756 57.1054 32.714 57.1101C32.7311 57.1417 32.8523 57.3655 32.8766 57.4101C32.8364 57.4503 32.4794 57.8061 32.4794 57.8061C32.4794 57.8061 32.8364 58.162 32.8766 58.2021C32.8523 58.2468 32.7311 58.4706 32.714 58.5021C32.6756 58.5069 32.2869 58.5558 32.2525 58.5601C32.2253 58.5355 31.822 58.1701 31.822 58.1701L31.2223 58.6642V58.129Z" fill="#1E9A1C"/>
<path d="M33.4657 50.752C33.4425 50.7714 31.3453 52.5273 31.2517 52.6059C31.4408 52.7625 31.6236 52.9264 31.8132 53.0825C31.8611 53.0392 32.2263 52.7117 32.2263 52.7117L32.7665 52.7859L32.9784 53.1778C32.9784 53.1778 32.6489 53.5076 32.597 53.5592C32.6489 53.6106 32.9784 53.9405 32.9784 53.9405L32.7665 54.3325L32.2263 54.396C32.2263 54.396 31.8611 54.0793 31.8131 54.0359L31.2199 54.5337V54.7032C31.4195 54.8684 31.6129 55.0361 31.8131 55.2011C31.8611 55.1578 32.2263 54.8409 32.2263 54.8409L32.7665 54.9045L32.9784 55.2964C32.9784 55.2964 32.6489 55.6262 32.597 55.6778C32.6489 55.7293 32.9784 56.0592 32.9784 56.0592L32.7665 56.4617L32.2263 56.5253C32.2263 56.5253 31.8611 56.1979 31.8131 56.1545L31.2199 56.6524V56.8325L31.8131 57.3303C31.8611 57.287 32.2263 56.9596 32.2263 56.9596L32.7665 57.0337L32.9784 57.4257C32.9784 57.4257 32.6489 57.7554 32.597 57.807C32.6489 57.8586 32.9784 58.1884 32.9784 58.1884L32.7665 58.5803L32.2263 58.6545C32.2263 58.6545 31.8611 58.3272 31.8131 58.2837C31.6244 58.4392 31.4401 58.5945 31.2517 58.7498C31.3453 58.8284 33.4425 60.5842 33.4657 60.6037H33.953L34.6627 59.9151L34.2072 59.5125L34.292 58.9617L34.7686 58.7604L35.2559 59.1418L35.7326 58.7604L36.2093 58.9617L36.3047 59.5125L35.8386 59.9151L36.5271 60.5719L37.2157 59.9151L36.7496 59.5125L36.8343 58.9617L37.3216 58.7604L37.7983 59.1418L38.2856 58.7604L38.7623 58.9617L38.847 59.5125L38.3915 59.9151L39.0695 60.5825L39.7581 59.9151L39.3025 59.5125L39.3873 58.9617L39.8746 58.7604L40.3513 59.1418L40.828 58.7604L41.3153 58.9617L41.4 59.5125L40.9445 59.9151L41.6542 60.6037H42.1309C42.1541 60.5842 44.2512 58.8284 44.3449 58.7498C44.1562 58.5944 43.9725 58.4395 43.7835 58.2837C43.7355 58.3272 43.3809 58.6545 43.3809 58.6545L42.8407 58.5803L42.6182 58.1884C42.6182 58.1884 42.9479 57.8586 42.9996 57.807C42.9479 57.7554 42.6182 57.4257 42.6182 57.4257L42.8407 57.0337L43.3809 56.9596C43.3809 56.9596 43.7355 57.287 43.7835 57.3303L44.3767 56.8325V56.6524L43.7835 56.1545C43.7355 56.1979 43.3809 56.5253 43.3809 56.5253L42.8407 56.4617L42.6182 56.0592C42.6182 56.0592 42.9479 55.7293 42.9996 55.6778C42.9479 55.6262 42.6182 55.2964 42.6182 55.2964L42.8407 54.9045L43.3809 54.8409C43.3809 54.8409 43.7355 55.1578 43.7835 55.2011C43.9824 55.0373 44.1782 54.8771 44.3767 54.7138V54.5231L43.7835 54.0359C43.7355 54.0793 43.3809 54.396 43.3809 54.396L42.8407 54.3325L42.6182 53.9405C42.6182 53.9405 42.9479 53.6106 42.9996 53.5592C42.9479 53.5076 42.6182 53.1778 42.6182 53.1778L42.8407 52.7859L43.3809 52.7117C43.3809 52.7117 43.7355 53.0391 43.7835 53.0825C43.9733 52.9261 44.1657 52.7728 44.3555 52.6164C44.2826 52.5552 42.1542 50.7714 42.1309 50.752H41.6542L40.9445 51.4405L41.4 51.8431L41.3153 52.3939L40.828 52.6058L40.3513 52.2244L39.8746 52.6058L39.3873 52.3939L39.3025 51.8431L39.7581 51.4405L39.0801 50.7837L38.3915 51.4405L38.847 51.8431L38.7623 52.3939L38.2856 52.6058L37.7983 52.2244L37.3216 52.6058L36.8343 52.3939L36.7496 51.8431L37.2157 51.4405L36.5271 50.7837L35.8386 51.4405L36.3047 51.8431L36.2093 52.3939L35.7326 52.6058L35.2559 52.2244L34.7686 52.6058L34.2919 52.3939L34.2072 51.8431L34.6627 51.4405L33.9424 50.752L33.4657 50.752ZM31.2199 55.466V55.9003L31.4742 55.6779L31.2199 55.466Z" fill="#D91C16"/>
<path d="M35.2562 60.2542L34.8853 60.6036H35.6162L35.2562 60.2542Z" fill="white"/>
<path d="M37.7991 60.2542L37.4391 60.6036H38.1699L37.7991 60.2542Z" fill="white"/>
<path d="M40.3516 60.2542L39.981 60.6036H40.7224L40.3516 60.2542Z" fill="white"/>
<path d="M34.8746 50.7522L35.256 51.1122L35.6268 50.7522H34.8746Z" fill="white"/>
<path d="M37.4283 50.7522L37.7992 51.1122L38.1805 50.7522H37.4283Z" fill="white"/>
<path d="M39.981 50.7522L40.3516 51.1122L40.7224 50.7522H39.981Z" fill="white"/>
<path d="M44.3767 53.3474L44.1225 53.5593L44.3767 53.7606V53.3474Z" fill="white"/>
<path d="M44.3767 55.4661L44.1225 55.6779L44.3767 55.8898V55.4661Z" fill="white"/>
<path d="M44.3767 57.5952L44.1225 57.8071L44.3767 58.0189V57.5952Z" fill="white"/>
<path d="M31.2203 53.3369V53.7712L31.4745 53.5593L31.2203 53.3369Z" fill="white"/>
<path d="M31.2203 55.4658V55.9001L31.4745 55.6777L31.2203 55.4658Z" fill="white"/>
<path d="M31.2203 57.585V58.0192L31.4745 57.8073L31.2203 57.585Z" fill="white"/>
<path d="M39.9821 54.9714V54.2131H39.2147V53.3818H36.3884V54.2131H35.621V54.9714H34.5611V56.391H35.621V57.1491H36.3884V57.9805H39.2147V57.1491H39.9821V56.391H41.0419V54.9714H39.9821Z" fill="black"/>
<path d="M37.7588 53.4675V54.3244L36.5439 55.015V55.6383H34.6471V55.057H35.7068V54.2989H36.4742V53.4675H37.7588Z" fill="#FDD406"/>
<path d="M37.8443 57.8949V57.038L39.0591 56.3473V55.7241H40.9561V56.3053H39.8963V57.0636H39.1289V57.8949H37.8443Z" fill="#FDD406"/>
<path d="M39.0591 55.6383V55.015L37.8443 54.3244V53.4675H39.1289V54.2989H39.8963V55.057H40.9561V55.6383H39.0591Z" fill="white"/>
<path d="M34.6471 55.7241H36.5439V56.3473L37.7588 57.038V57.8949H36.4742V57.0636H35.7068V56.3053H34.6471V55.7241Z" fill="white"/>
<path d="M36.6295 55.7241V56.3018L37.7586 56.9438V55.7241H36.6295Z" fill="#D91C16"/>
<path d="M37.7586 54.4187L36.6295 55.0606V55.6383H37.7586V54.4187Z" fill="#1E9A1C"/>
<path d="M38.9734 55.6385V55.0608L37.8443 54.4189V55.6385H38.9734Z" fill="#D91C16"/>
<path d="M37.8443 56.9438L38.9734 56.3018V55.7241H37.8443V56.9438Z" fill="#1E9A1C"/>
<path d="M27.5308 70.746V73.0894H25.2977V75.2148H23.0344V81.2665H25.2977V83.392H27.5308V85.7353H35.6503L37.0782 86.5933L36.3921 87.0055H33.4968L33.2471 86.7239H35.8709L35.1317 85.9795H31.3785L33.079 87.7499H36.5986L37.8009 87.0275L39.0031 87.7499H42.523L44.2234 85.9795H40.4703L39.7309 86.7239H42.3549L42.105 87.0055H39.2097L38.5235 86.5933L39.9515 85.7353H48.0711V83.392H50.3041V81.2665H52.5673V75.2148H50.3041V73.0894H48.0711V70.746H39.9515L38.5235 69.8881L39.2097 69.4758H42.105L42.3549 69.7574H39.7309L40.4703 70.5018H44.2234L42.523 68.7314H39.0031L37.8009 69.4538L36.5986 68.7314H33.079L31.3785 70.5018H35.1317L35.8709 69.7574H33.2471L33.4968 69.4758H36.3921L37.0782 69.8881L35.6503 70.746H27.5308Z" fill="#D91C16"/>
<path d="M39.9269 85.6461H47.9883V83.305H50.2129V81.1758H52.4798V75.2965H50.2129V73.1779H47.9883V70.8368H39.9269L36.5794 68.8135H33.1154L31.5794 70.413H35.0963L35.6684 69.841H33.0518L33.4544 69.3855H36.4205L40.2129 71.6737H47.1408V74.0148H49.376V76.144H51.643V80.3389H49.376V82.4682H47.1408V84.8093H40.2129L36.4205 87.0868H33.4544L33.0518 86.6419H35.6684L35.0963 86.0698H31.5794L33.1154 87.6694H36.5794L39.9269 85.6461ZM35.3824 84.8093H28.4544V82.4682H26.2298V80.3389H23.9629V76.144H26.2298V74.0148H28.4544V71.6737H35.3824L39.1854 69.3855H42.1409L42.5434 69.841H39.9375L40.5095 70.4131H44.0264L42.4904 68.8135H39.0264L35.679 70.8368H27.6176V73.1779H25.3824V75.2965H23.1154V81.1758H25.3824V83.305H27.6176V85.6461H35.679L39.0264 87.6694H42.4904L44.0264 86.0698H40.5095L39.9375 86.6419H42.5434L42.1409 87.0868H39.1854L35.3824 84.8093Z" fill="#FDD406"/>
<path d="M46.4701 81.7908V84.1341H40.03L37.8011 85.4733L35.5723 84.1341H29.1323V81.7908H26.8991V79.6652H24.6359V76.8161H26.8991V74.6905H29.1323V72.3473H35.5604H35.5723L37.8011 71.0081L40.03 72.3473H46.4701V74.6905H48.7031V76.8161H50.9663V79.6652H48.7031V81.7908H46.4701Z" fill="#1E9A1C"/>
<path d="M29.9752 80.9701V83.2381H33.5152L29.9752 80.8901V80.9701Z" fill="black"/>
<path d="M29.9752 75.5118V73.2437H33.5152L29.9752 75.5916V75.5118Z" fill="black"/>
<path d="M45.6265 80.9701V83.2381H42.0865L45.6265 80.8901V80.9701Z" fill="black"/>
<path d="M45.6265 75.5118V73.2437H42.0865L45.6265 75.5916V75.5118Z" fill="black"/>
<path d="M30.0611 81.0498L33.2311 83.1523H30.0611V81.0498Z" fill="#D91C16"/>
<path d="M30.0611 75.4321C30.1844 75.3503 33.0151 73.4728 33.2311 73.3296H30.0611V75.4321Z" fill="#D91C16"/>
<path d="M45.5416 81.0498C45.4182 81.1316 42.5876 83.009 42.3717 83.1523H45.5416V81.0498Z" fill="#D91C16"/>
<path d="M45.5416 75.4321C45.4182 75.3504 42.5876 73.4729 42.3717 73.3296H45.5416V75.4321Z" fill="#D91C16"/>
<path d="M34.4907 77.6189V76.4606H34.0956L32.2003 75.2756L32.1777 75.2899L30.3052 76.4606H29.9102V77.6189H29.0191V78.8628H29.9102V80.0209H30.3052L32.2003 81.2059L34.0956 80.0209H34.4907V78.8628H35.847V77.6189H34.4907Z" fill="black"/>
<path d="M32.2008 75.377L33.9344 76.4608H30.4674L32.2008 75.377ZM33.9342 80.0211L32.2008 81.1049L30.4675 80.0211H33.9342Z" fill="#D91C16"/>
<path d="M33.514 77.7046V78.7771H31.3522V77.7046H33.514Z" fill="#D91C16"/>
<path d="M34.406 78.8625V79.9351H32.2442V78.8625H34.406Z" fill="#FDD406"/>
<path d="M32.1589 78.8628V79.9354H29.9971V78.8628H32.1589Z" fill="#FDD406"/>
<path d="M35.7624 77.7046V78.7771H33.6006V77.7046H35.7624Z" fill="#FDD406"/>
<path d="M31.2673 77.7046V78.7771H29.1055V77.7046H31.2673Z" fill="#FDD406"/>
<path d="M34.406 76.5464V77.6188H32.2442V76.5464H34.406Z" fill="#FDD406"/>
<path d="M32.1589 76.5464V77.6188H29.9971V76.5464H32.1589Z" fill="#FDD406"/>
<path d="M30.6722 77.9429V78.5388H29.7012V77.9429H30.6722Z" fill="black"/>
<path d="M31.5638 76.7847V77.3806H30.5928V76.7847H31.5638Z" fill="black"/>
<path d="M33.8109 76.7847V77.3806H32.8399V76.7847H33.8109Z" fill="black"/>
<path d="M32.9193 77.9429V78.5388H31.9483V77.9429H32.9193Z" fill="black"/>
<path d="M35.1664 77.9429V78.5388H34.1953V77.9429H35.1664Z" fill="black"/>
<path d="M33.8109 79.1011V79.697H32.8399V79.1011H33.8109Z" fill="black"/>
<path d="M31.5638 79.1011V79.697H30.5928V79.1011H31.5638Z" fill="black"/>
<path d="M30.5802 78.0342H29.792V78.4472H30.5802V78.0342Z" fill="white"/>
<path d="M31.4718 76.876H30.6836V77.289H31.4718V76.876Z" fill="white"/>
<path d="M33.7188 76.876H32.9307V77.289H33.7188V76.876Z" fill="white"/>
<path d="M32.8272 78.0342H32.0391V78.4472H32.8272V78.0342Z" fill="white"/>
<path d="M35.0753 78.0342H34.2871V78.4472H35.0753V78.0342Z" fill="white"/>
<path d="M33.7188 79.1924H32.9307V79.6054H33.7188V79.1924Z" fill="white"/>
<path d="M31.4718 79.1924H30.6836V79.6054H31.4718V79.1924Z" fill="white"/>
<path d="M41.1121 77.6189V76.4606H41.5071L43.4024 75.2756L43.4251 75.2899L45.2976 76.4606H45.6926V77.6189H46.5836V78.8628H45.6926V80.0209H45.2976L43.4024 81.2059L41.5071 80.0209H41.1121V78.8628H39.7557V77.6189H41.1121Z" fill="black"/>
<path d="M43.402 75.377L41.6683 76.4608H45.1354L43.402 75.377ZM41.6686 80.0211L43.402 81.1049L45.1352 80.0211H41.6686Z" fill="#D91C16"/>
<path d="M42.0888 77.7046V78.7771H44.2506V77.7046H42.0888Z" fill="#D91C16"/>
<path d="M41.1974 78.8625V79.9351H43.3592V78.8625H41.1974Z" fill="#FDD406"/>
<path d="M43.4455 78.8625V79.9351H45.6073V78.8625H43.4455Z" fill="#FDD406"/>
<path d="M39.841 77.7046V78.7771H42.0028V77.7046H39.841Z" fill="#FDD406"/>
<path d="M44.3361 77.7046V78.7771H46.4979V77.7046H44.3361Z" fill="#FDD406"/>
<path d="M41.1974 76.5464V77.6188H43.3592V76.5464H41.1974Z" fill="#FDD406"/>
<path d="M43.4455 76.5464V77.6188H45.6073V76.5464H43.4455Z" fill="#FDD406"/>
<path d="M44.9313 77.9429V78.5388H45.9024V77.9429H44.9313Z" fill="black"/>
<path d="M44.0407 76.7847V77.3806H45.0117V76.7847H44.0407Z" fill="black"/>
<path d="M41.7926 76.7847V77.3806H42.7637V76.7847H41.7926Z" fill="black"/>
<path d="M42.6842 77.9429V78.5388H43.6553V77.9429H42.6842Z" fill="black"/>
<path d="M40.4372 77.9429V78.5388H41.4082V77.9429H40.4372Z" fill="black"/>
<path d="M41.7926 79.1011V79.697H42.7637V79.1011H41.7926Z" fill="black"/>
<path d="M44.0407 79.1011V79.697H45.0117V79.1011H44.0407Z" fill="black"/>
<path d="M45.0234 78.0342H45.8115V78.4472H45.0234V78.0342Z" fill="white"/>
<path d="M44.1328 76.876H44.9209V77.289H44.1328V76.876Z" fill="white"/>
<path d="M41.8847 76.876H42.6729V77.289H41.8847V76.876Z" fill="white"/>
<path d="M42.7763 78.0342H43.5645V78.4472H42.7763V78.0342Z" fill="white"/>
<path d="M40.5283 78.0342H41.3164V78.4472H40.5283V78.0342Z" fill="white"/>
<path d="M41.8847 79.1924H42.6729V79.6054H41.8847V79.1924Z" fill="white"/>
<path d="M44.1328 79.1924H44.9209V79.6054H44.1328V79.1924Z" fill="white"/>
<path d="M40.0915 75.6841V76.8422H39.6965L37.8012 78.0272L37.7785 78.013L35.906 76.8422H35.511V75.6841H34.3873V74.4402H35.511V73.282H35.906L37.8012 72.0969L39.6965 73.282H40.0915V74.4402H41.2152V75.6841H40.0915Z" fill="black"/>
<path d="M37.8014 77.9261L39.5349 76.8421H36.068L37.8014 77.9261ZM39.5348 73.282L37.8014 72.198L36.0681 73.282H39.5348Z" fill="#FDD406"/>
<path d="M40.0065 74.4401V73.3677H37.8447V74.4401H40.0065Z" fill="#D91C16"/>
<path d="M37.7595 74.4401V73.3677H35.5977V74.4401H37.7595Z" fill="#D91C16"/>
<path d="M41.1306 75.5984V74.5259H38.9688V75.5984H41.1306Z" fill="#D91C16"/>
<path d="M38.8823 75.5984V74.5259H36.7205V75.5984H38.8823Z" fill="#D91C16"/>
<path d="M36.6353 75.5984V74.5259H34.4736V75.5984H36.6353Z" fill="#D91C16"/>
<path d="M40.0065 76.7566V75.6841H37.8447V76.7566H40.0065Z" fill="#D91C16"/>
<path d="M37.7595 76.7566V75.6841H35.5977V76.7566H37.7595Z" fill="#D91C16"/>
<path d="M37.1634 73.606V74.2019H36.1924V73.606H37.1634Z" fill="black"/>
<path d="M39.4105 73.606V74.2019H38.4395V73.606H39.4105Z" fill="black"/>
<path d="M36.0394 74.7642V75.3601H35.0684V74.7642H36.0394Z" fill="black"/>
<path d="M38.2875 74.7642V75.3601H37.3164V74.7642H38.2875Z" fill="black"/>
<path d="M40.5345 74.7642V75.3601H39.5635V74.7642H40.5345Z" fill="black"/>
<path d="M37.1634 75.9224V76.5183H36.1924V75.9224H37.1634Z" fill="black"/>
<path d="M39.4105 75.9224V76.5183H38.4395V75.9224H39.4105Z" fill="black"/>
<path d="M37.0724 73.6973H36.2842V74.1103H37.0724V73.6973Z" fill="white"/>
<path d="M39.3194 73.6973H38.5313V74.1103H39.3194V73.6973Z" fill="white"/>
<path d="M35.9483 74.8555H35.1602V75.2685H35.9483V74.8555Z" fill="white"/>
<path d="M38.1964 74.8555H37.4082V75.2685H38.1964V74.8555Z" fill="white"/>
<path d="M40.4434 74.8555H39.6553V75.2685H40.4434V74.8555Z" fill="white"/>
<path d="M37.0724 76.0137H36.2842V76.4267H37.0724V76.0137Z" fill="white"/>
<path d="M39.3194 76.0137H38.5313V76.4267H39.3194V76.0137Z" fill="white"/>
<path d="M40.0915 82.0417V83.1999H39.6965L37.8012 84.3849L37.7785 84.3707L35.906 83.1999H35.511V82.0417H34.3873V80.7978H35.511V79.6397H35.906L37.8012 78.4546L39.6965 79.6397H40.0915V80.7978H41.2152V82.0417H40.0915Z" fill="black"/>
<path d="M37.8014 84.2837L39.5349 83.1998H36.068L37.8014 84.2837ZM39.5348 79.6396L37.8014 78.5557L36.0681 79.6396H39.5348Z" fill="#FDD406"/>
<path d="M40.0065 80.7978V79.7253H37.8447V80.7978H40.0065Z" fill="#D91C16"/>
<path d="M37.7595 80.7978V79.7253H35.5977V80.7978H37.7595Z" fill="#D91C16"/>
<path d="M41.1306 81.9559V80.8833H38.9688V81.9559H41.1306Z" fill="#D91C16"/>
<path d="M38.8823 81.9559V80.8833H36.7205V81.9559H38.8823Z" fill="#D91C16"/>
<path d="M36.6353 81.9559V80.8833H34.4736V81.9559H36.6353Z" fill="#D91C16"/>
<path d="M40.0065 83.1141V82.0415H37.8447V83.1141H40.0065Z" fill="#D91C16"/>
<path d="M37.7595 83.1141V82.0415H35.5977V83.1141H37.7595Z" fill="#D91C16"/>
<path d="M37.1634 79.9634V80.5593H36.1924V79.9634H37.1634Z" fill="black"/>
<path d="M39.4105 79.9634V80.5593H38.4395V79.9634H39.4105Z" fill="black"/>
<path d="M36.0394 81.1216V81.7175H35.0684V81.1216H36.0394Z" fill="black"/>
<path d="M38.2875 81.1216V81.7175H37.3164V81.1216H38.2875Z" fill="black"/>
<path d="M40.5345 81.1216V81.7175H39.5635V81.1216H40.5345Z" fill="black"/>
<path d="M37.1634 82.2798V82.8757H36.1924V82.2798H37.1634Z" fill="black"/>
<path d="M39.4105 82.2798V82.8757H38.4395V82.2798H39.4105Z" fill="black"/>
<path d="M37.0724 80.0549H36.2842V80.468H37.0724V80.0549Z" fill="white"/>
<path d="M39.3194 80.0549H38.5313V80.468H39.3194V80.0549Z" fill="white"/>
<path d="M35.9483 81.2131H35.1602V81.6262H35.9483V81.2131Z" fill="white"/>
<path d="M38.1964 81.2131H37.4082V81.6262H38.1964V81.2131Z" fill="white"/>
<path d="M40.4434 81.2131H39.6553V81.6262H40.4434V81.2131Z" fill="white"/>
<path d="M37.0724 82.3713H36.2842V82.7844H37.0724V82.3713Z" fill="white"/>
<path d="M39.3194 82.3713H38.5313V82.7844H39.3194V82.3713Z" fill="white"/>
<path d="M25.5363 95.8708L33.9467 91.3445H33.9575H41.6545L50.0648 95.8708V103.329L41.6545 107.855H33.9467L25.5363 103.329V95.8708Z" fill="black"/>
<path d="M33.9737 91.4302L25.6262 95.9217V103.273L33.9737 107.765H41.6323L49.9801 103.273V95.9217L41.6323 91.4302H33.9737ZM34.1218 92.0339H41.4842L49.3869 96.2817V102.924L41.4842 107.172H34.1174L26.215 102.924V96.2817L34.1218 92.0339Z" fill="#1E9A1C"/>
<path d="M37.8433 99.5567V107.085H41.4624L49.299 102.867V99.6425L37.7576 99.6425V92.1145H34.1387L26.302 96.3318V99.5567L37.8433 99.5567Z" fill="#FDD406"/>
<path d="M37.7576 99.5567V107.085H34.1387L26.302 102.867V99.6425L37.8433 99.6425V92.1145H41.4624L49.299 96.3318V99.5567L37.7576 99.5567Z" fill="white"/>
<path d="M38.504 106.663V104.488L37.8005 104.934L37.097 104.488V106.663H34.9086L36.3852 105.58V104.036L34.1333 102.607H32.5598V96.5926H34.1333L36.3852 95.1638V93.6193L34.9086 92.5364H35.0396H37.097V94.7123L37.8005 94.2659L38.504 94.7123V92.5364H40.6924L39.2157 93.6193V95.1638L41.4676 96.5926H43.0412V102.607H41.4676L39.2157 104.036V105.58L40.6924 106.663H38.504Z" fill="black"/>
<path d="M38.5925 92.627V94.8727L37.8403 94.3961V95.0317L41.283 97.2242H42.4166V99.5551H42.9569V96.6737H41.442L39.1328 95.2117V93.5802L40.4356 92.627H38.5925ZM32.6496 99.6398V102.521H34.1539L36.4739 103.993V105.625L35.1708 106.578H37.0142V104.332L37.7556 104.809V104.152L34.3128 101.981H33.1898V99.6398L32.6496 99.6398Z" fill="#FDD406"/>
<path d="M35.1708 92.627L36.4738 93.5802V95.2117L34.1538 96.6737H32.6496V99.5551H33.1898V97.2242H34.3128L37.7556 95.0422V94.3961L37.0142 94.8727V92.627L35.1708 92.627ZM42.4166 99.6398V101.981H41.283L37.8403 104.152V104.809L38.5925 104.332V106.578H40.4355L39.1328 105.625V103.993L41.442 102.521H42.9569V99.6398L42.4166 99.6398Z" fill="white"/>
<path d="M33.2717 101.892H34.3392L37.8007 104.088L41.2621 101.892H42.3298V97.3084H41.2746H41.2621L37.8007 95.1123L34.3392 97.3084H33.2717V101.892Z" fill="#D91C16"/>
<path d="M40.197 100.689H40.936V100.339H40.3801V99.7035H41.5683V101.325H40.4292L40.4293 102.431H38.0844V100.841H39.1164V101.477H38.7166V101.795H39.797V101.187L35.4048 98.5107H34.6657V98.8603H35.2218V99.4959H34.0334V97.875H35.1726V96.769H35.2154H37.5174V98.3581H36.4854V97.7224H36.8851V97.4047H35.8048V98.0122L40.197 100.689ZM39.797 98.0122V97.4047H38.7166V97.7224H39.1164V98.3581H38.0844V96.769H40.4293V97.875H41.5683V99.4959H40.3801V98.8603H40.9362V98.5107H40.197L35.8048 101.187V101.795H36.8851V101.477H36.4854V100.841H37.5174V102.431H35.1726V101.324H34.0334V99.7035H35.2218V100.339H34.6657V100.689H35.4048L39.797 98.0122Z" fill="black"/>
<path d="M39.8828 101.139V101.881H38.631V101.392H39.0308V100.927H38.1702V102.345H40.3436V101.239H41.4828V99.7896H40.4659V100.254H41.0219V100.775H40.1731L35.7192 98.0606V97.3193H36.971V97.8084H36.5713V98.2727H37.4318V96.855H35.2584V97.9609H34.1193V99.4105H35.1361V98.9462H34.5801V98.4252H35.4289L39.8828 101.139ZM40.1731 98.4252H41.022V98.9462H40.4659V99.4105H41.4828V97.9609H40.3437V96.855H38.1703V98.2727H39.0308V97.8084H38.6311V97.3193H39.8828V98.0606L35.4289 100.775H34.5801V100.254H35.1361V99.7895H34.1193V101.239H35.2584V102.345H37.4318V100.927H36.5713V101.392H36.971V101.881H35.7192V101.139L40.1731 98.4252Z" fill="white"/>
<path d="M47.6104 99.9766V102.329H46.6093V101.498H45.6003V102.329H44.5992V99.9766H45.6003V100.807H46.6093V99.9766H47.6104Z" fill="black"/>
<path d="M44.0283 103.1V105.452H43.0273V104.621H42.0182V105.452H41.0172V103.1H42.0182V103.93H43.0273V103.1H44.0283Z" fill="black"/>
<path d="M47.6104 99.2225V96.8701H46.6093V97.7009H45.6003V96.8701H44.5992V99.2225H45.6003V98.3917H46.6093V99.2225H47.6104Z" fill="black"/>
<path d="M27.9928 99.9766V102.329H28.9938V101.498H30.0029V102.329H31.0039V99.9766H30.0029V100.807H28.9938V99.9766H27.9928Z" fill="black"/>
<path d="M27.9928 99.2225V96.8701H28.9938V97.7009H30.0029V96.8701H31.0039V99.2225H30.0029V98.3917H28.9938V99.2225H27.9928Z" fill="black"/>
<path d="M44.0283 96.0997V93.7473H43.0273V94.5781H42.0182V93.7473H41.0172V96.0997H42.0182V95.2689H43.0273V96.0997H44.0283Z" fill="black"/>
<path d="M31.5748 103.1V105.452H32.5758V104.621H33.5849V105.452H34.586V103.1H33.5849V103.93H32.5758V103.1H31.5748Z" fill="black"/>
<path d="M31.5748 96.0997V93.7473H32.5758V94.5781H33.5849V93.7473H34.586V96.0997H33.5849V95.2689H32.5758V96.0997H31.5748Z" fill="black"/>
<path d="M44.6256 94.4512V96.2376H47.945L44.6256 94.4512Z" fill="black"/>
<path d="M30.9773 104.748V102.962H27.6578L30.9773 104.748Z" fill="black"/>
<path d="M30.9773 94.4512V96.2376H27.6578L30.9773 94.4512Z" fill="black"/>
<path d="M44.6256 104.748V102.962H47.945L44.6256 104.748Z" fill="black"/>
<path d="M46.6943 101.413V102.243H47.524V100.062H46.6943V100.893H45.5137V100.062H44.6842V102.243H45.5137V101.413H46.6943Z" fill="#D91C16"/>
<path d="M43.1123 104.536V105.366H43.9418V103.186H43.1123V104.016H41.9317V103.186H41.1022V105.366H41.9317V104.536H43.1123Z" fill="#D91C16"/>
<path d="M46.6943 97.7868V96.9561H47.524V99.1369H46.6943V98.3061H45.5137V99.1369H44.6842V96.9561H45.5137V97.7868H46.6943Z" fill="#D91C16"/>
<path d="M28.9073 101.413V102.243H28.0777V100.062H28.9073V100.893H30.0879V100.062H30.9174V102.243H30.0879V101.413H28.9073Z" fill="#D91C16"/>
<path d="M28.9073 97.7868V96.9561H28.0777V99.1369H28.9073V98.3061H30.0879V99.1369H30.9174V96.9561H30.0879V97.7868H28.9073Z" fill="#D91C16"/>
<path d="M43.1123 94.6639V93.833H43.9418V96.014H43.1123V95.1831H41.9317V96.014H41.1022V93.833H41.9317V94.6639H43.1123Z" fill="#D91C16"/>
<path d="M32.4893 104.536V105.366H31.6598V103.186H32.4893V104.016H33.6699V103.186H34.4996V105.366H33.6699V104.536H32.4893Z" fill="#D91C16"/>
<path d="M32.4893 94.6639V93.833H31.6598V96.014H32.4893V95.1831H33.6699V96.014H34.4996V93.833H33.6699V94.6639H32.4893Z" fill="#D91C16"/>
<path d="M44.7154 94.5972V96.1545H47.6076L44.7154 94.5972ZM27.9994 103.051L30.8913 104.608V103.051H27.9994Z" fill="#FDD406"/>
<path d="M30.8912 94.5972L27.9992 96.1545H30.8912V94.5972ZM44.7152 103.051V104.608L47.6074 103.051H44.7152Z" fill="white"/>
<path d="M51.3804 106.165C51.2206 106.846 50.6788 107.361 50.5497 108.067C50.2912 107.33 50.0529 106.713 50.2308 105.907C50.3581 105.33 50.8432 104.919 50.8993 104.326C51.4282 104.802 51.5421 105.476 51.3804 106.165ZM51.5145 109.02C51.0659 109.635 50.4424 110.107 49.7538 110.421C49.8894 109.883 49.635 109.477 49.3527 109.049C49.0125 108.535 48.8466 108.029 49.1239 107.436C49.2532 107.744 49.4268 108 49.6306 108.264C49.9319 108.675 50.13 109.04 50.1765 109.568C50.5249 109.309 50.6781 108.924 50.8644 108.551C51.1485 108.016 51.6069 107.569 52.1334 107.277C51.9935 107.877 51.8857 108.511 51.5145 109.02ZM48.9988 110.853C49.0947 111.195 49.1773 111.533 49.1589 111.89C49.4553 111.571 49.8489 111.331 50.2 111.073C50.6782 110.687 51.2356 110.414 51.6265 109.921C51.5682 110.646 51.258 111.237 50.6691 111.678C50.0465 112.144 49.2957 112.395 48.6825 112.884C48.7743 112.225 48.5321 111.697 48.3256 111.091C48.1535 110.512 48.3201 109.924 48.7127 109.483C48.7068 109.972 48.8611 110.392 48.9988 110.853ZM47.6016 113.08C47.4726 113.58 47.1143 113.987 46.8696 114.433C47.5294 114.228 48.1115 113.87 48.7079 113.534C49.4183 113.147 50.1897 112.901 50.8327 112.39C50.5127 113.575 49.7195 114.262 48.5591 114.612C47.7657 114.851 47.097 114.732 46.1343 115.121C46.2447 114.469 46.4392 113.766 46.7473 113.178C46.9865 112.753 47.2517 112.334 47.3994 111.866C47.6134 112.25 47.7147 112.642 47.6016 113.08ZM45.1739 114.893C44.9467 115.282 44.6469 115.61 44.275 115.868C45.2116 115.928 45.9653 115.334 46.8784 115.308C47.4424 115.292 47.9778 115.467 48.553 115.415C47.8704 115.875 47.1558 116.278 46.3248 116.385C45.2446 116.525 44.2484 116.253 43.0566 116.359C43.6136 115.966 43.8922 115.44 44.2393 114.875C44.6914 114.168 45.118 113.665 45.9972 113.551C45.6443 113.948 45.4389 114.439 45.1739 114.893ZM41.8476 116.447C43.4976 116.728 45.0787 117.091 46.7639 117.108C44.8776 117.765 43.1003 117.884 41.2295 117.205C40.2185 116.838 39.4433 116.642 38.6797 116.696C37.5639 116.777 36.2077 117.217 34.7069 118.8L34.117 118.328C36.2681 116.411 39.0825 115.977 41.8475 116.447L41.8476 116.447Z" fill="#FDD406"/>
<path d="M24.2294 106.165C24.3892 106.846 24.931 107.361 25.0601 108.067C25.3186 107.33 25.5569 106.713 25.379 105.907C25.2517 105.33 24.7666 104.919 24.7105 104.326C24.1816 104.802 24.0677 105.476 24.2294 106.165ZM24.0953 109.02C24.5439 109.635 25.1674 110.107 25.856 110.421C25.7204 109.883 25.9748 109.477 26.2571 109.049C26.5973 108.535 26.7632 108.029 26.4858 107.436C26.3566 107.744 26.183 108 25.9792 108.264C25.6779 108.675 25.4798 109.04 25.4333 109.568C25.0848 109.309 24.9317 108.924 24.7454 108.551C24.4613 108.016 24.0029 107.569 23.4764 107.277C23.6163 107.877 23.724 108.511 24.0953 109.02ZM26.611 110.853C26.5151 111.195 26.4324 111.533 26.4509 111.89C26.1545 111.571 25.7609 111.331 25.4098 111.073C24.9316 110.687 24.3742 110.414 23.9832 109.921C24.0416 110.646 24.3518 111.237 24.9407 111.678C25.5633 112.144 26.3141 112.395 26.9273 112.884C26.8355 112.225 27.0777 111.697 27.2842 111.091C27.4563 110.512 27.2897 109.924 26.8971 109.483C26.903 109.972 26.7486 110.392 26.611 110.853ZM28.0082 113.08C28.1372 113.58 28.4955 113.987 28.7402 114.433C28.0804 114.228 27.4983 113.87 26.9019 113.534C26.1915 113.147 25.4201 112.901 24.777 112.39C25.0971 113.575 25.8903 114.262 27.0507 114.612C27.8441 114.851 28.5128 114.732 29.4755 115.121C29.3651 114.469 29.1706 113.766 28.8624 113.178C28.6233 112.753 28.3581 112.334 28.2104 111.866C27.9964 112.25 27.8951 112.642 28.0082 113.08ZM30.4359 114.893C30.663 115.282 30.9629 115.61 31.3348 115.868C30.3982 115.928 29.6445 115.334 28.7314 115.308C28.1674 115.292 27.632 115.467 27.0568 115.415C27.7394 115.875 28.454 116.278 29.285 116.385C30.3652 116.525 31.3614 116.253 32.5532 116.359C31.9962 115.966 31.7176 115.44 31.3704 114.875C30.9184 114.168 30.4918 113.665 29.6126 113.551C29.9655 113.948 30.1709 114.439 30.4359 114.893ZM33.7622 116.447C32.1122 116.728 30.531 117.091 28.8459 117.108C30.7322 117.765 32.5095 117.884 34.3803 117.205C35.3913 116.838 36.1665 116.642 36.93 116.696C38.0459 116.777 39.402 117.217 40.9029 118.8L41.4928 118.328C39.3417 116.411 36.5272 115.977 33.7623 116.447L33.7622 116.447Z" fill="#FDD406"/>
</g>
<defs>
<clipPath id="clip0_909_225730">
<rect width="240" height="120" fill="white"/>
</clipPath>
</defs>
</svg>
