<svg width="240" height="120" viewBox="0 0 240 120" fill="none" xmlns="http://www.w3.org/2000/svg">
<path d="M240 0H0V120H240V0Z" fill="#1E9A1C"/>
<path d="M75.1246 16.604L75.7707 14.6153H77.8618L76.1701 13.3862L76.8162 11.3975L75.1245 12.6265L73.4328 11.3975L74.079 13.3861L72.3873 14.6153H74.4784L75.1246 16.604Z" fill="white"/>
<path d="M98.4129 27.0341C98.4129 20.8787 94.6855 15.5926 89.3656 13.3085C92.7473 16.1913 94.8134 20.5467 94.6046 25.3289C94.245 33.5658 87.2736 39.9539 79.0367 39.5943C77.1806 39.5133 75.4189 39.0955 73.8066 38.4041C76.4129 40.6242 79.7909 41.9651 83.482 41.9651C91.7267 41.9651 98.4129 35.2789 98.4129 27.0341Z" fill="white"/>
<path d="M75.7707 22.2953L75.1246 24.284L74.4784 22.2953H72.3873L74.079 21.0662L73.4328 19.0775L75.1245 20.3065L76.8162 19.0775L76.1701 21.0662L77.8618 22.2953H75.7707Z" fill="white"/>
<path d="M83.3581 18.5509L82.712 20.5396L82.0658 18.5509H79.9747L81.6664 17.3217L81.0202 15.3331L82.7119 16.5621L84.4036 15.3331L83.7575 17.3218L85.4492 18.5509H83.3581Z" fill="white"/>
<path d="M67.5374 28.0284L68.1835 26.0396H70.2746L68.5829 24.8106L69.229 22.8218L67.5373 24.0509L65.8456 22.8218L66.4918 24.8105L64.8 26.0396H66.8912L67.5374 28.0284Z" fill="white"/>
<path d="M75.7707 29.9752L75.1246 31.964L74.4784 29.9752H72.3873L74.079 28.7461L73.4328 26.7574L75.1245 27.9865L76.8162 26.7574L76.1701 28.7462L77.8618 29.9752H75.7707Z" fill="white"/>
<path d="M54.0001 0H21.6001V120H54.0001V0Z" fill="#E23726"/>
<path d="M29.5245 0H28.4015L26.4101 1.82194L25.6156 1.08041H26.3466L26.2089 0.24355H24.9377L22.4271 2.59527V3.49569H23.5394V2.74358L24.1114 3.26264L22.8084 4.47027L23.4229 5.05288L21.6008 6.7478V7.92366L24.6834 5.05288L24.069 4.47027L25.3614 3.26264L24.2491 2.22451L24.9906 1.54654L26.4101 2.8601L29.5245 0Z" fill="black"/>
<path d="M26.7564 0H27.4664L26.8551 0.571948L26.7564 0Z" fill="black"/>
<path d="M21.6008 0H23.6982L23.0839 0.624923H22.3212V1.48296L21.6008 2.21389V0Z" fill="black"/>
<path d="M26.8525 0H27.3399L26.9194 0.391831L26.8525 0Z" fill="#FDD406"/>
<path d="M21.6016 0H23.5824L23.0529 0.529548H22.2372V1.45114L21.6016 2.08674V0Z" fill="#FDD406"/>
<path d="M29.3872 0L26.4106 2.7435L24.9911 1.41934L24.1225 2.22443L25.2348 3.26256L23.9424 4.47019L24.5568 5.0528L21.6013 7.79646V6.86426L23.5505 5.0528L22.936 4.47019L24.239 3.26256L23.4551 2.53163V3.41087H22.5123V2.62697L24.9805 0.328251H26.1246L26.2414 0.995624H25.394L26.4109 1.93842L28.5294 0H29.3872Z" fill="#FDD406"/>
<path d="M21.6013 13.9175V15.0933L23.4234 16.7988L22.8089 17.3709L24.1119 18.5785L23.5399 19.0976V18.3454H22.4276V19.2459L24.9382 21.5976H26.2093L26.3471 20.7713H25.6161L26.4106 20.0298L28.4021 21.8412L26.4106 23.6632L25.6161 22.9217H26.3471L26.2093 22.0849H24.9382L22.4276 24.4366V25.337H23.5399V24.5849L24.1119 25.104L22.8089 26.3116L23.4234 26.8942L21.6013 28.5891V29.765L24.6839 26.8942L24.0695 26.3116L25.3619 25.104L24.2496 24.0658L24.9911 23.3879L26.4106 24.7014L29.525 21.8413L26.4106 18.9811L24.9911 20.3052L24.2496 19.6167L25.3619 18.5785L24.0695 17.3709L24.6839 16.7989L21.6013 13.9175ZM21.6013 19.6272V24.0552L22.3217 23.3243V22.4662H23.0844L23.6987 21.8412L23.0844 21.2268H22.3217V20.3582L21.6013 19.6272ZM26.8556 21.195L26.7496 21.7989L26.8556 22.4133L27.5123 21.7989L26.8556 21.195Z" fill="black"/>
<path d="M21.6016 14.0444V14.9766L23.5508 16.7987L22.9363 17.3707L24.2393 18.5783L23.4554 19.3093V18.43H22.5126V19.2139L24.9808 21.5127H26.1249L26.2414 20.8559H25.394L26.4109 19.9025L28.5295 21.841L26.4109 23.7796L25.394 22.8368H26.2414L26.1246 22.1694H24.9805L22.5123 24.4682V25.2521H23.4551V24.3728L24.239 25.1037L22.936 26.3114L23.5505 26.894L21.6013 28.7054V29.6376L24.5568 26.894L23.9424 26.3114L25.2348 25.1038L24.1225 24.0656L24.9911 23.2605L26.4106 24.5847L29.3873 21.841L26.4106 19.0974L24.9911 20.4216L24.1225 19.6165L25.2348 18.5783L23.9424 17.3707L24.5568 16.7987L21.6013 14.0444L21.6016 14.0444ZM21.6016 19.7542V23.9279L22.2372 23.2923V22.3707H23.0529L23.5825 21.8411L23.0529 21.3114H22.2372V20.3898L21.6016 19.7542ZM26.9194 21.3644L26.8452 21.7987L26.9194 22.233L27.3855 21.7987L26.9194 21.3644Z" fill="#FDD406"/>
<path d="M21.6013 36.4771V37.6529L23.4234 39.3584L22.8089 39.9304L24.1119 41.1381L23.5399 41.6571V40.905H22.4276V41.8054L24.9382 44.1571H26.2093L26.3471 43.3309H25.6161L26.4106 42.5893L28.4021 44.4008L26.4106 46.2228L25.6161 45.4813H26.3471L26.2093 44.6444H24.9382L22.4276 46.9961V47.8966H23.5399V47.1445L24.1119 47.6635L22.8089 48.8712L23.4234 49.4538L21.6013 51.1487V52.3245L24.6839 49.4538L24.0695 48.8712L25.3619 47.6635L24.2496 46.6254L24.9911 45.9474L26.4106 47.261L29.525 44.4008L26.4106 41.5407L24.9911 42.8648L24.2496 42.1763L25.3619 41.1381L24.0695 39.9305L24.6839 39.3585L21.6013 36.4771ZM21.6013 42.1868V46.6148L22.3217 45.8838V45.0258H23.0844L23.6987 44.4008L23.0844 43.7864H22.3217V42.9178L21.6013 42.1868ZM26.8556 43.7546L26.7496 44.3584L26.8556 44.9728L27.5123 44.3584L26.8556 43.7546Z" fill="black"/>
<path d="M21.6016 36.604V37.5362L23.5508 39.3583L22.9363 39.9303L24.2393 41.1379L23.4554 41.8688V40.9896H22.5126V41.7735L24.9808 44.0722H26.1249L26.2414 43.4154H25.394L26.4109 42.4621L28.5295 44.4006L26.4109 46.3392L25.394 45.3964H26.2414L26.1246 44.729H24.9805L22.5123 47.0277V47.8116H23.4551V46.9324L24.239 47.6633L22.936 48.8709L23.5505 49.4536L21.6013 51.265V52.1972L24.5568 49.4536L23.9424 48.8709L25.2348 47.6633L24.1225 46.6252L24.9911 45.8201L26.4106 47.1443L29.3873 44.4006L26.4106 41.657L24.9911 42.9811L24.1225 42.176L25.2348 41.1379L23.9424 39.9303L24.5568 39.3582L21.6013 36.604L21.6016 36.604ZM21.6016 42.3138V46.4875L22.2372 45.8519V44.9303H23.0529L23.5825 44.4006L23.0529 43.871H22.2372V42.9494L21.6016 42.3138ZM26.9194 43.9239L26.8452 44.3583L26.9194 44.7926L27.3855 44.3583L26.9194 43.9239Z" fill="#FDD406"/>
<path d="M21.6013 59.0366V60.2125L23.4234 61.918L22.8089 62.49L24.1119 63.6976L23.5399 64.2167V63.4646H22.4276V64.365L24.9382 66.7167H26.2093L26.3471 65.8904H25.6161L26.4106 65.1489L28.4021 66.9604L26.4106 68.7824L25.6161 68.0409H26.3471L26.2093 67.204H24.9382L22.4276 69.5557V70.4561H23.5399V69.704L24.1119 70.2231L22.8089 71.4307L23.4234 72.0133L21.6013 73.7082V74.8841L24.6839 72.0133L24.0695 71.4307L25.3619 70.2231L24.2496 69.185L24.9911 68.507L26.4106 69.8206L29.525 66.9604L26.4106 64.1002L24.9911 65.4244L24.2496 64.7358L25.3619 63.6977L24.0695 62.4901L24.6839 61.918L21.6013 59.0366ZM21.6013 64.7464V69.1743L22.3217 68.4434V67.5854H23.0844L23.6987 66.9604L23.0844 66.346H22.3217V65.4773L21.6013 64.7464ZM26.8556 66.3142L26.7496 66.918L26.8556 67.5324L27.5123 66.918L26.8556 66.3142Z" fill="black"/>
<path d="M21.6016 59.1636V60.0958L23.5508 61.9178L22.9363 62.4899L24.2393 63.6975L23.4554 64.4284V63.5492H22.5126V64.3331L24.9808 66.6318H26.1249L26.2414 65.975H25.394L26.4109 65.0216L28.5295 66.9602L26.4109 68.8987L25.394 67.956H26.2414L26.1246 67.2886H24.9805L22.5123 69.5873V70.3712H23.4551V69.492L24.239 70.2229L22.936 71.4305L23.5505 72.0131L21.6013 73.8246V74.7568L24.5568 72.0131L23.9424 71.4305L25.2348 70.2229L24.1225 69.1848L24.9911 68.3797L26.4106 69.7038L29.3873 66.9602L26.4106 64.2165L24.9911 65.5407L24.1225 64.7356L25.2348 63.6975L23.9424 62.4898L24.5568 61.9178L21.6013 59.1636L21.6016 59.1636ZM21.6016 64.8733V69.0471L22.2372 68.4115V67.4899H23.0529L23.5825 66.9602L23.0529 66.4305H22.2372V65.5089L21.6016 64.8733ZM26.9194 66.4835L26.8452 66.9178L26.9194 67.3522L27.3855 66.9178L26.9194 66.4835Z" fill="#FDD406"/>
<path d="M21.6013 81.5959V82.7718L23.4234 84.4773L22.8089 85.0493L24.1119 86.257L23.5399 86.776V86.0239H22.4276V86.9243L24.9382 89.276H26.2093L26.3471 88.4498H25.6161L26.4106 87.7082L28.4021 89.5197L26.4106 91.3417L25.6161 90.6002H26.3471L26.2093 89.7633H24.9382L22.4276 92.115V93.0155H23.5399V92.2634L24.1119 92.7824L22.8089 93.99L23.4234 94.5727L21.6013 96.2676V97.4434L24.6839 94.5727L24.0695 93.99L25.3619 92.7824L24.2496 91.7443L24.9911 91.0663L26.4106 92.3799L29.525 89.5197L26.4106 86.6596L24.9911 87.9837L24.2496 87.2951L25.3619 86.257L24.0695 85.0494L24.6839 84.4774L21.6013 81.5959ZM21.6013 87.3057V91.7337L22.3217 91.0027V90.1447H23.0844L23.6987 89.5197L23.0844 88.9053H22.3217V88.0366L21.6013 87.3057ZM26.8556 88.8735L26.7496 89.4773L26.8556 90.0917L27.5123 89.4773L26.8556 88.8735Z" fill="black"/>
<path d="M21.6016 81.7232V82.6554L23.5508 84.4774L22.9363 85.0494L24.2393 86.2571L23.4554 86.988V86.1087H22.5126V86.8926L24.9808 89.1914H26.1249L26.2414 88.5346H25.394L26.4109 87.5812L28.5295 89.5198L26.4109 91.4583L25.394 90.5155H26.2414L26.1246 89.8481H24.9805L22.5123 92.1469V92.9308H23.4551V92.0515L24.239 92.7825L22.936 93.9901L23.5505 94.5727L21.6013 96.3842V97.3164L24.5568 94.5727L23.9424 93.9901L25.2348 92.7825L24.1225 91.7443L24.9911 90.9392L26.4106 92.2634L29.3873 89.5198L26.4106 86.7761L24.9911 88.1003L24.1225 87.2952L25.2348 86.257L23.9424 85.0494L24.5568 84.4774L21.6013 81.7231L21.6016 81.7232ZM21.6016 87.4329V91.6066L22.2372 90.971V90.0494H23.0529L23.5825 89.5198L23.0529 88.9901H22.2372V88.0685L21.6016 87.4329ZM26.9194 89.0431L26.8452 89.4774L26.9194 89.9117L27.3855 89.4774L26.9194 89.0431Z" fill="#FDD406"/>
<path d="M46.0767 0H47.1996L49.191 1.82194L49.9855 1.08041H49.2546L49.3923 0.24355H50.6635L53.1741 2.59527V3.49569H52.0618V2.74358L51.4897 3.26264L52.7927 4.47027L52.1783 5.05288L53.998 6.74562V7.92148L50.9177 5.05288L51.5321 4.47027L50.2398 3.26264L51.3521 2.22451L50.6105 1.54654L49.191 2.8601L46.0767 0Z" fill="black"/>
<path d="M53.998 2.21151L53.28 1.48296V0.624923H52.5173L51.903 0H53.998V2.21151Z" fill="black"/>
<path d="M48.8447 0L48.7461 0.571948L48.1347 0H48.8447Z" fill="black"/>
<path d="M48.7493 0H48.2619L48.6824 0.391831L48.7493 0Z" fill="#FDD406"/>
<path d="M53.9981 2.08468V0H52.0193L52.5489 0.529548H53.3646V1.45114L53.9981 2.08468Z" fill="#FDD406"/>
<path d="M53.9981 6.86208L52.0513 5.0528L52.6657 4.47019L51.3627 3.26256L52.1466 2.53163V3.41087H53.0895V2.62697L50.6212 0.328251H49.4772L49.3604 0.995624H50.2078L49.1909 1.93842L47.0724 0H46.2146L49.1912 2.7435L50.6106 1.41934L51.4793 2.22443L50.367 3.26256L51.6594 4.47019L51.045 5.0528L53.9981 7.79428V6.86208Z" fill="#FDD406"/>
<path d="M54.0015 13.9175V15.0933L52.1794 16.7988L52.7939 17.3709L51.4909 18.5785L52.0629 19.0976V18.3454H53.1752V19.2459L50.6646 21.5976H49.3934L49.2557 20.7713H49.9867L49.1922 20.0298L47.2007 21.8412L49.1922 23.6632L49.9867 22.9217H49.2557L49.3934 22.0849H50.6646L53.1752 24.4366V25.337H52.0629V24.5849L51.4909 25.104L52.7939 26.3116L52.1794 26.8942L54.0015 28.5891V29.765L50.9189 26.8942L51.5333 26.3116L50.2409 25.104L51.3532 24.0658L50.6116 23.3879L49.1922 24.7014L46.0777 21.8413L49.1922 18.9811L50.6116 20.3052L51.3532 19.6167L50.2409 18.5785L51.5333 17.3709L50.9189 16.7989L54.0015 13.9175ZM54.0015 19.6272V24.0552L53.2811 23.3243V22.4662H52.5184L51.904 21.8412L52.5184 21.2268H53.2811V20.3582L54.0015 19.6272ZM48.7472 21.195L48.8532 21.7989L48.7472 22.4133L48.0905 21.7989L48.7472 21.195Z" fill="black"/>
<path d="M54.0012 14.0444V14.9766L52.052 16.7987L52.6665 17.3707L51.3635 18.5783L52.1474 19.3093V18.43H53.0902V19.2139L50.6219 21.5127H49.4779L49.3614 20.8559H50.2088L49.1919 19.9025L47.0732 21.841L49.1919 23.7796L50.2088 22.8368H49.3614L49.4782 22.1694H50.6222L53.0905 24.4682V25.2521H52.1477V24.3728L51.3638 25.1037L52.6668 26.3114L52.0523 26.894L54.0015 28.7054V29.6376L51.046 26.894L51.6604 26.3114L50.368 25.1038L51.4803 24.0656L50.6116 23.2605L49.1922 24.5847L46.2155 21.841L49.1922 19.0974L50.6116 20.4216L51.4803 19.6165L50.368 18.5783L51.6604 17.3707L51.046 16.7987L54.0015 14.0444L54.0012 14.0444ZM54.0012 19.7542V23.9279L53.3656 23.2923V22.3707H52.5499L52.0203 21.8411L52.5499 21.3114H53.3656V20.3898L54.0012 19.7542ZM48.6834 21.3644L48.7575 21.7987L48.6834 22.233L48.2173 21.7987L48.6834 21.3644Z" fill="#FDD406"/>
<path d="M54.0015 36.4771V37.6529L52.1794 39.3584L52.7939 39.9304L51.4909 41.1381L52.0629 41.6571V40.905H53.1752V41.8054L50.6646 44.1571H49.3934L49.2557 43.3309H49.9867L49.1922 42.5893L47.2007 44.4008L49.1922 46.2228L49.9867 45.4813H49.2557L49.3934 44.6444H50.6646L53.1752 46.9961V47.8966H52.0629V47.1445L51.4909 47.6635L52.7939 48.8712L52.1794 49.4538L54.0015 51.1487V52.3245L50.9189 49.4538L51.5333 48.8712L50.2409 47.6635L51.3532 46.6254L50.6116 45.9474L49.1922 47.261L46.0777 44.4008L49.1922 41.5407L50.6116 42.8648L51.3532 42.1763L50.2409 41.1381L51.5333 39.9305L50.9189 39.3585L54.0015 36.4771ZM54.0015 42.1868V46.6148L53.2811 45.8838V45.0258H52.5184L51.904 44.4008L52.5184 43.7864H53.2811V42.9178L54.0015 42.1868ZM48.7472 43.7546L48.8532 44.3584L48.7472 44.9728L48.0905 44.3584L48.7472 43.7546Z" fill="black"/>
<path d="M54.0012 36.604V37.5362L52.052 39.3583L52.6665 39.9303L51.3635 41.1379L52.1474 41.8688V40.9896H53.0902V41.7735L50.6219 44.0722H49.4779L49.3614 43.4154H50.2088L49.1919 42.4621L47.0732 44.4006L49.1919 46.3392L50.2088 45.3964H49.3614L49.4782 44.729H50.6222L53.0905 47.0277V47.8116H52.1477V46.9324L51.3638 47.6633L52.6668 48.8709L52.0523 49.4536L54.0015 51.265V52.1972L51.046 49.4536L51.6604 48.8709L50.368 47.6633L51.4803 46.6252L50.6116 45.8201L49.1922 47.1443L46.2155 44.4006L49.1922 41.657L50.6116 42.9811L51.4803 42.176L50.368 41.1379L51.6604 39.9303L51.046 39.3582L54.0015 36.604L54.0012 36.604ZM54.0012 42.3138V46.4875L53.3656 45.8519V44.9303H52.5499L52.0203 44.4006L52.5499 43.871H53.3656V42.9494L54.0012 42.3138ZM48.6834 43.9239L48.7575 44.3583L48.6834 44.7926L48.2173 44.3583L48.6834 43.9239Z" fill="#FDD406"/>
<path d="M54.0015 59.0366V60.2125L52.1794 61.918L52.7939 62.49L51.4909 63.6976L52.0629 64.2167V63.4646H53.1752V64.365L50.6646 66.7167H49.3934L49.2557 65.8904H49.9867L49.1922 65.1489L47.2007 66.9604L49.1922 68.7824L49.9867 68.0409H49.2557L49.3934 67.204H50.6646L53.1752 69.5557V70.4561H52.0629V69.704L51.4909 70.2231L52.7939 71.4307L52.1794 72.0133L54.0015 73.7082V74.8841L50.9189 72.0133L51.5333 71.4307L50.2409 70.2231L51.3532 69.185L50.6116 68.507L49.1922 69.8206L46.0777 66.9604L49.1922 64.1002L50.6116 65.4244L51.3532 64.7358L50.2409 63.6977L51.5333 62.4901L50.9189 61.918L54.0015 59.0366ZM54.0015 64.7464V69.1743L53.2811 68.4434V67.5854H52.5184L51.904 66.9604L52.5184 66.346H53.2811V65.4773L54.0015 64.7464ZM48.7472 66.3142L48.8532 66.918L48.7472 67.5324L48.0905 66.918L48.7472 66.3142Z" fill="black"/>
<path d="M54.0012 59.1636V60.0958L52.052 61.9178L52.6665 62.4899L51.3635 63.6975L52.1474 64.4284V63.5492H53.0902V64.3331L50.6219 66.6318H49.4779L49.3614 65.975H50.2088L49.1919 65.0216L47.0732 66.9602L49.1919 68.8987L50.2088 67.956H49.3614L49.4782 67.2886H50.6222L53.0905 69.5873V70.3712H52.1477V69.492L51.3638 70.2229L52.6668 71.4305L52.0523 72.0131L54.0015 73.8246V74.7568L51.046 72.0131L51.6604 71.4305L50.368 70.2229L51.4803 69.1848L50.6116 68.3797L49.1922 69.7038L46.2155 66.9602L49.1922 64.2165L50.6116 65.5407L51.4803 64.7356L50.368 63.6975L51.6604 62.4898L51.046 61.9178L54.0015 59.1636L54.0012 59.1636ZM54.0012 64.8733V69.0471L53.3656 68.4115V67.4899H52.5499L52.0203 66.9602L52.5499 66.4305H53.3656V65.5089L54.0012 64.8733ZM48.6834 66.4835L48.7575 66.9178L48.6834 67.3522L48.2173 66.9178L48.6834 66.4835Z" fill="#FDD406"/>
<path d="M54.0015 81.5957V82.7716L52.1794 84.4771L52.7939 85.0491L51.4909 86.2567L52.0629 86.7758V86.0237H53.1752V86.9241L50.6646 89.2758H49.3934L49.2557 88.4495H49.9867L49.1922 87.708L47.2007 89.5194L49.1922 91.3415L49.9867 90.5999H49.2557L49.3934 89.7631H50.6646L53.1752 92.1148V93.0152H52.0629V92.2631L51.4909 92.7822L52.7939 93.9898L52.1794 94.5724L54.0015 96.2673V97.4432L50.9189 94.5724L51.5333 93.9898L50.2409 92.7822L51.3532 91.744L50.6116 91.0661L49.1922 92.3796L46.0777 89.5195L49.1922 86.6593L50.6116 87.9835L51.3532 87.2949L50.2409 86.2568L51.5333 85.0491L50.9189 84.4771L54.0015 81.5957ZM54.0015 87.3055V91.7334L53.2811 91.0025V90.1445H52.5184L51.904 89.5195L52.5184 88.905H53.2811V88.0364L54.0015 87.3055ZM48.7472 88.8733L48.8532 89.4771L48.7472 90.0915L48.0905 89.4771L48.7472 88.8733Z" fill="black"/>
<path d="M54.0012 81.7227V82.6549L52.052 84.4769L52.6665 85.0489L51.3635 86.2566L52.1474 86.9875V86.1083H53.0902V86.8922L50.6219 89.1909H49.4779L49.3614 88.5341H50.2088L49.1919 87.5807L47.0732 89.5193L49.1919 91.4578L50.2088 90.515H49.3614L49.4782 89.8477H50.6222L53.0905 92.1464V92.9303H52.1477V92.051L51.3638 92.782L52.6668 93.9896L52.0523 94.5722L54.0015 96.3837V97.3159L51.046 94.5722L51.6604 93.9896L50.368 92.782L51.4803 91.7438L50.6116 90.9388L49.1922 92.2629L46.2155 89.5193L49.1922 86.7756L50.6116 88.0998L51.4803 87.2947L50.368 86.2566L51.6604 85.0489L51.046 84.4769L54.0015 81.7227L54.0012 81.7227ZM54.0012 87.4324V91.6061L53.3656 90.9706V90.049H52.5499L52.0203 89.5193L52.5499 88.9896H53.3656V88.068L54.0012 87.4324ZM48.6834 89.0426L48.7575 89.4769L48.6834 89.9112L48.2173 89.4769L48.6834 89.0426Z" fill="#FDD406"/>
<path d="M25.655 14.0678L23.0588 12.4758V8.64874L25.655 7.0567V5.0317L28.1084 3.55426H30.0685L33.798 1.45654H41.8046L45.5342 3.55426H47.4943L49.9477 5.0317V7.0567L52.5439 8.64874L52.5438 12.4758L49.9477 14.0678V16.0928L47.4943 17.5703H45.5342L41.8046 19.668H33.798L30.0685 17.5703H28.1084L25.655 16.0928V14.0678Z" fill="black"/>
<path d="M33.8151 1.54639L30.0863 3.64385H28.1371L25.743 5.08452V7.10782L23.1477 8.69681V12.4256L25.743 14.0146V16.0485L28.1265 17.4892H30.0863L33.8151 19.5866H41.7812L45.51 17.4892H47.4697L49.8638 16.0485V14.0146L52.4591 12.4256V8.69681L49.8638 7.10782V5.08452L47.4697 3.64385H45.51L41.7812 1.54639H33.8151ZM34.0375 2.31969H41.5693L45.2981 4.41715H47.2473L49.0587 5.50825V7.53155L51.6646 9.12054V12.0019L49.0587 13.5909V15.6142L47.2473 16.7053H45.2981L41.5693 18.8028H34.0375L30.3087 16.7053H28.3596L26.5376 15.6142V13.5909L23.9422 12.0019V9.12054L26.5376 7.53155V5.50825L28.3596 4.41715H30.3087L34.0375 2.31969Z" fill="#1E9A1C"/>
<path d="M37.7579 10.605V2.40332H34.0567L30.327 4.50104H28.3826L26.6237 5.56028V7.58036L24.0276 9.17228V10.5194L37.8437 10.5193V18.7212H41.5449L45.2745 16.6234H47.219L48.9778 15.5642V13.5442L51.574 11.9522V10.6051L37.7579 10.605Z" fill="#FDD406"/>
<path d="M24.0277 10.6051L24.0276 11.9522L26.6238 13.5442V15.5642L28.3826 16.6234H30.3271L34.0567 18.7212H37.758V10.5193L51.5741 10.5194V9.17228L48.9779 7.58036V5.56028L47.2191 4.50104H45.2746L41.545 2.40332H37.8438V10.605L24.0277 10.6051Z" fill="white"/>
<path d="M29.6917 5.25632L29.0526 4.66064L28.4193 5.05112L29.0595 5.648L28.2375 6.15728H30.0313L31.5771 7.61541L32.0717 7.09317L30.5687 5.67536V4.71296L29.6917 5.25632Z" fill="black"/>
<path d="M32.7171 4.99461L32.078 4.39893L31.4447 4.78941L32.0849 5.38629L31.2629 5.89557H33.0567L34.6025 7.35369L35.0971 6.83145L33.5941 5.41365V4.45125L32.7171 4.99461Z" fill="black"/>
<path d="M29.4699 6.96726L28.8308 6.37158L28.1977 6.76206L28.8378 7.35894L28.0159 7.86822H29.8096L31.3553 9.32635L31.8499 8.80411L30.3469 7.3863V6.4239L29.4699 6.96726Z" fill="black"/>
<path d="M37.8018 2.31787H36.1832L35.3362 3.13411H33.6851L32.4651 3.76735L32.7496 4.46059L33.8376 3.88915H34.3142L35.9824 5.81851L37.8018 4.71055L37.8018 2.31787Z" fill="black"/>
<path d="M29.042 4.76758L29.6163 5.3029L29.1351 5.60098L28.5599 5.06482L29.042 4.76758ZM30.483 4.86658V5.71198L31.9505 7.09629L31.5737 7.49421L30.0654 6.07138H28.5383L30.483 4.86658Z" fill="#E23726"/>
<path d="M32.0674 4.50586L32.6417 5.04118L32.1605 5.33926L31.5854 4.8031L32.0674 4.50586ZM33.5084 4.60486V5.45026L34.9759 6.83457L34.5991 7.2325L33.0908 5.80978H31.5637L33.5084 4.60486Z" fill="#E23726"/>
<path d="M28.8204 6.47876L29.3946 7.01408L28.9134 7.31216L28.3384 6.776L28.8204 6.47876ZM30.2614 6.57776V7.42316L31.7289 8.80748L31.3522 9.2054L29.8439 7.78268H28.3167L30.2614 6.57776Z" fill="#E23726"/>
<path d="M37.7582 2.40332H36.217L35.3701 3.21956H33.7053L32.5732 3.80708L32.7922 4.34084L33.8156 3.80348H34.3526L35.999 5.70764L37.7583 4.6364L37.7582 2.40332Z" fill="#E23726"/>
<path d="M29.6917 15.8682L29.0526 16.4639L28.4193 16.0734L29.0595 15.4765L28.2375 14.9672H30.0313L31.5771 13.5091L32.0717 14.0313L30.5687 15.4491V16.4115L29.6917 15.8682Z" fill="black"/>
<path d="M32.7171 16.1299L32.078 16.7256L31.4447 16.3351L32.0849 15.7382L31.2629 15.2289H33.0567L34.6025 13.7708L35.0971 14.2931L33.5941 15.7109V16.6733L32.7171 16.1299Z" fill="black"/>
<path d="M29.4699 14.1572L28.8308 14.7529L28.1977 14.3625L28.8378 13.7656L28.0159 13.2563H29.8096L31.3553 11.7982L31.8499 12.3204L30.3469 13.7382V14.7006L29.4699 14.1572Z" fill="black"/>
<path d="M37.8018 18.8066H36.1832L35.3362 17.9904H33.6851L32.4651 17.3572L32.7496 16.6639L33.8376 17.2354H34.3142L35.9824 15.306L37.8018 16.414L37.8018 18.8066Z" fill="black"/>
<path d="M29.042 16.3569L29.6163 15.8216L29.1351 15.5235L28.5599 16.0597L29.042 16.3569ZM30.483 16.2579V15.4125L31.9505 14.0282L31.5737 13.6303L30.0654 15.0531H28.5383L30.483 16.2579Z" fill="#E23726"/>
<path d="M32.0674 16.6187L32.6417 16.0833L32.1605 15.7853L31.5854 16.3214L32.0674 16.6187ZM33.5084 16.5197V15.6743L34.9759 14.2899L34.5991 13.892L33.0908 15.3147H31.5637L33.5084 16.5197Z" fill="#E23726"/>
<path d="M28.8204 14.6458L29.3946 14.1104L28.9134 13.8124L28.3384 14.3485L28.8204 14.6458ZM30.2614 14.5468V13.7014L31.7289 12.317L31.3522 11.9191L29.8439 13.3418H28.3167L30.2614 14.5468Z" fill="#E23726"/>
<path d="M37.7582 18.7212H36.217L35.3701 17.905H33.7053L32.5732 17.3174L32.7922 16.7837L33.8156 17.321H34.3526L35.999 15.4169L37.7583 16.4881L37.7582 18.7212Z" fill="#E23726"/>
<path d="M28.6129 7.94217L27.8412 7.65381L27.8227 7.66665L26.8262 8.35809V8.54397L25.2302 10.5622L26.8262 12.5805V12.7665L27.8412 13.4707L28.6129 13.1823L28.1419 12.8704V12.277L28.3291 12.0531H29.1654V9.07137H28.3291L28.1419 8.84745V8.25405L28.6129 7.94217Z" fill="black"/>
<path d="M26.9121 8.4028L27.8534 7.74976L28.4258 7.9636L28.0564 8.20816V8.8786L28.2892 9.157H29.0798V11.9676H28.2892L28.0564 12.246V12.9165L28.4258 13.161L27.8534 13.3749L26.9121 12.7218L26.9122 12.5508L25.3396 10.5623L26.9122 8.57368L26.9121 8.4028Z" fill="#E23726"/>
<path d="M45.9123 5.25632L46.5514 4.66064L47.1847 5.05112L46.5445 5.648L47.3665 6.15728H45.5727L44.0269 7.61541L43.5323 7.09317L45.0353 5.67536V4.71296L45.9123 5.25632Z" fill="black"/>
<path d="M42.8879 4.99461L43.527 4.39893L44.1602 4.78941L43.52 5.38629L44.342 5.89557H42.5483L41.0024 7.35369L40.5079 6.83145L42.0109 5.41365V4.45125L42.8879 4.99461Z" fill="black"/>
<path d="M46.1341 6.96726L46.7732 6.37158L47.4063 6.76206L46.7663 7.35894L47.5881 7.86822H45.7944L44.2487 9.32635L43.7541 8.80411L45.2571 7.3863V6.4239L46.1341 6.96726Z" fill="black"/>
<path d="M37.8022 2.31787H39.4208L40.2678 3.13411H41.9189L43.1389 3.76735L42.8544 4.46059L41.7664 3.88915H41.2898L39.6216 5.81851L37.8022 4.71055L37.8022 2.31787Z" fill="black"/>
<path d="M46.562 4.76758L45.9877 5.3029L46.4689 5.60098L47.0441 5.06482L46.562 4.76758ZM45.121 4.86658V5.71198L43.6535 7.09629L44.0303 7.49421L45.5386 6.07138H47.0657L45.121 4.86658Z" fill="#E23726"/>
<path d="M43.5366 4.50586L42.9623 5.04118L43.4435 5.33926L44.0186 4.8031L43.5366 4.50586ZM42.0956 4.60486V5.45026L40.6281 6.83457L41.0049 7.2325L42.5132 5.80978H44.0403L42.0956 4.60486Z" fill="#E23726"/>
<path d="M46.7836 6.47876L46.2094 7.01408L46.6906 7.31216L47.2656 6.776L46.7836 6.47876ZM45.3426 6.57776V7.42316L43.8752 8.80748L44.2518 9.2054L45.7601 7.78268H47.2874L45.3426 6.57776Z" fill="#E23726"/>
<path d="M37.8455 2.40332H39.3867L40.2337 3.21956H41.8984L43.0305 3.80708L42.8115 4.34084L41.7882 3.80348H41.2512L39.6048 5.70764L37.8455 4.6364L37.8455 2.40332Z" fill="#E23726"/>
<path d="M45.9123 15.8682L46.5514 16.4639L47.1847 16.0734L46.5445 15.4765L47.3665 14.9672H45.5727L44.0269 13.5091L43.5323 14.0313L45.0353 15.4491V16.4115L45.9123 15.8682Z" fill="black"/>
<path d="M42.8879 16.1299L43.527 16.7256L44.1602 16.3351L43.52 15.7382L44.342 15.2289H42.5483L41.0024 13.7708L40.5079 14.2931L42.0109 15.7109V16.6733L42.8879 16.1299Z" fill="black"/>
<path d="M46.1341 14.1572L46.7732 14.7529L47.4063 14.3625L46.7663 13.7656L47.5881 13.2563H45.7944L44.2487 11.7982L43.7541 12.3204L45.2571 13.7382V14.7006L46.1341 14.1572Z" fill="black"/>
<path d="M37.8022 18.8066H39.4208L40.2678 17.9904H41.9189L43.1389 17.3572L42.8544 16.6639L41.7664 17.2354H41.2898L39.6216 15.306L37.8022 16.414L37.8022 18.8066Z" fill="black"/>
<path d="M46.562 16.3569L45.9877 15.8216L46.4689 15.5235L47.0441 16.0597L46.562 16.3569ZM45.121 16.2579V15.4125L43.6535 14.0282L44.0303 13.6303L45.5386 15.0531H47.0657L45.121 16.2579Z" fill="#E23726"/>
<path d="M43.5366 16.6187L42.9623 16.0833L43.4435 15.7853L44.0186 16.3214L43.5366 16.6187ZM42.0956 16.5197V15.6743L40.6281 14.2899L41.0049 13.892L42.5132 15.3147H44.0403L42.0956 16.5197Z" fill="#E23726"/>
<path d="M46.7836 14.6458L46.2094 14.1104L46.6906 13.8124L47.2656 14.3485L46.7836 14.6458ZM45.3426 14.5468V13.7014L43.8752 12.317L44.2518 11.9191L45.7601 13.3418H47.2874L45.3426 14.5468Z" fill="#E23726"/>
<path d="M37.8455 18.7212H39.3867L40.2337 17.905H41.8984L43.0305 17.3174L42.8115 16.7837L41.7882 17.321H41.2512L39.6048 15.4169L37.8455 16.4881L37.8455 18.7212Z" fill="#E23726"/>
<path d="M46.9901 7.94217L47.7618 7.65381L47.7803 7.66665L48.7768 8.35809V8.54397L50.3728 10.5622L48.7768 12.5805V12.7665L47.7618 13.4707L46.9901 13.1823L47.4611 12.8704V12.277L47.2739 12.0531H46.4376V9.07137H47.2739L47.4611 8.84745V8.25405L46.9901 7.94217Z" fill="black"/>
<path d="M48.6907 8.4028L47.7494 7.74976L47.177 7.9636L47.5464 8.20816V8.8786L47.3136 9.157H46.523V11.9676H47.3136L47.5464 12.246V12.9165L47.177 13.161L47.7494 13.3749L48.6907 12.7218L48.6906 12.5508L50.2632 10.5623L48.6906 8.57368L48.6907 8.4028Z" fill="#E23726"/>
<path d="M27.2419 12.2565L26.8074 11.8806V11.6994L25.8752 10.5624L26.8075 9.42523V9.24415L27.242 8.86819L28.0225 9.50287L27.572 9.49939L28.2377 10.175H29.7587L30.9548 9.23959V6.77275H33.9466L37.4211 4.64059V4.08139L36.8897 3.72727H36.7213L36.1427 4.11451L36.0531 4.40335L35.6004 3.78535L36.4801 3.04627H36.6208L37.6135 2.31787H37.9878L38.9805 3.04627H39.1212L40.0009 3.78535L39.5483 4.40335L39.4587 4.11451L38.88 3.72727H38.7117L38.1803 4.08139V4.64059L41.6548 6.77275H44.6465V9.23959L45.8427 10.175H47.3637L48.0293 9.49939L47.5788 9.50287L48.3593 8.86819L48.7938 9.24415V9.42523L49.7261 10.5624L48.7938 11.6994V11.8806L48.3593 12.2565L47.5788 11.6218L48.0293 11.6253L47.3637 10.9496H45.8427L44.6465 11.8851V14.352H41.6548L38.1803 16.4841V17.0433L38.7117 17.3974H38.88L39.4587 17.0102L39.5483 16.7214L40.0009 17.3392L39.1212 18.0784H38.9805L37.9878 18.8068H37.6135L36.6208 18.0784H36.4801L35.6003 17.3392L36.0531 16.7214L36.1427 17.0102L36.7212 17.3974H36.8896L37.4211 17.0433V16.4841L33.9466 14.352H30.9548V11.8851L29.7586 10.9496H28.2377L27.572 11.6253L28.0225 11.6218L27.2419 12.2565Z" fill="black"/>
<path d="M37.8443 17.4638L38.2245 17.7546L37.8443 18.0453V17.4638ZM36.6355 17.9926H36.6495L37.6423 18.7212H37.7582V18.1528L37.2374 17.7546L37.7583 17.3563V16.2888L34.0405 14.0072H31.2921V11.7147L29.8731 10.605H27.7328L27.1948 11.2132L26.6569 10.605L26.0217 10.6051L26.8937 11.6685V11.8412L27.239 12.1412L27.7939 11.7092L27.4682 11.7117V11.6037L28.194 10.8639H29.7888L31.0412 11.8434V14.2663H33.9715L37.5073 16.4361V17.0889L36.9162 17.4829H36.6957L36.0704 17.0643L36.0223 16.909L35.7174 17.3252L36.512 17.9926L36.6355 17.9926ZM27.1953 10.0406L27.6189 10.5194H26.7716L27.1953 10.0406ZM37.7585 3.07916L37.3784 3.36992L37.7585 3.66056V3.07916ZM47.9839 10.6051L48.4075 11.0839L48.8311 10.6051H47.9839ZM38.9531 3.13172L37.9603 2.40332H37.8444V2.9714L38.3654 3.36992L37.8443 3.76844V4.83572L41.5621 7.11728H44.3105V9.40976L45.7295 10.5195H47.8694L48.4075 9.91136L48.9456 10.5194H49.5809L48.7089 9.45596V9.28328L48.3636 8.98328L47.8087 9.41528L48.1344 9.41264V9.52076L47.4086 10.2604H45.8138L44.5615 9.281V6.8582H41.6311L38.0953 4.68836V4.03544L38.6864 3.6416H38.9069L39.5322 4.06016L39.5803 4.21544L39.8852 3.79928L39.0906 3.13172L38.9531 3.13172Z" fill="#FDD406"/>
<path d="M37.7582 18.0452L37.3782 17.7546L37.7582 17.4639V18.0452ZM27.6187 10.6051L27.1951 11.0839L26.7715 10.6051H27.6187ZM38.9668 17.9926H38.9528L37.96 18.7212H37.8441V18.5724V18.1531L38.3652 17.7546L37.844 17.356V16.2888L41.5619 14.0072H44.3102V11.7147L45.7292 10.605H47.8693L48.4073 11.2132L48.9452 10.605L49.5806 10.6051L48.7087 11.6685V11.8412L48.3633 12.1412L47.8085 11.7092L48.1341 11.7117V11.6037L47.4084 10.8639H45.8136L44.5612 11.8434V14.2663H41.6309L38.095 16.4361V17.0889L38.6862 17.4829H38.9066L39.5319 17.0643L39.5801 16.909L39.885 17.3252L39.0903 17.9926L38.9668 17.9926ZM48.4073 10.0406L47.9837 10.5194H48.831L48.4073 10.0406ZM36.6495 3.13172L37.6423 2.40332H37.7583V2.9714L37.2372 3.36992L37.7583 3.76844L37.7585 4.83572L34.0405 7.11728H31.2923V9.40976L29.8731 10.5195H27.7326L27.1946 9.91136L26.6565 10.5194H26.0217L26.8938 9.45596V9.28328L27.2391 8.98328L27.7939 9.41528L27.4682 9.41264V9.52076L28.1941 10.2604H29.7888L31.0412 9.281V6.8582H33.9715L37.5074 4.68836V4.03544L36.9163 3.6416H36.6957L36.0704 4.06016L36.0223 4.21544L35.7175 3.79928L36.5121 3.13172L36.6495 3.13172ZM37.844 3.66068L38.2243 3.36992L37.844 3.07916V3.66068Z" fill="white"/>
<path d="M37.7582 10.605V4.93604L34.0645 7.20284H31.3776V9.4514L30.012 10.5194L37.844 10.5193V16.1883L41.5375 13.9216H44.2244V11.6731L45.59 10.6051L37.7582 10.605Z" fill="#1E9A1C"/>
<path d="M30.012 10.605L31.3777 11.673V13.9215H34.0645L37.7583 16.1883V10.5191L45.5901 10.5193L44.2245 9.45127V7.20271H41.5376L37.8441 4.93604V10.6049L30.012 10.605Z" fill="#E23726"/>
<path d="M33.8254 7.81272L33.1864 7.21704L32.5531 7.6074L33.1933 8.20428L32.3713 8.71356H34.1651L35.7109 10.1718L36.2055 9.64945L34.7025 8.23164V7.26936L33.8254 7.81272Z" fill="black"/>
<path d="M41.7767 13.3117L42.4158 13.9074L43.0489 13.5169L42.4088 12.92L43.2308 12.4109H41.437L39.8912 10.9526L39.3967 11.4749L40.8997 12.8928V13.8551L41.7767 13.3117Z" fill="black"/>
<path d="M33.8254 13.3117L33.1863 13.9074L32.5531 13.5169L33.1932 12.92L32.3713 12.4109H34.1651L35.7108 10.9526L36.2053 11.4749L34.7023 12.8928V13.8551L33.8254 13.3117Z" fill="black"/>
<path d="M41.7767 7.81272L42.4158 7.21704L43.0489 7.6074L42.4088 8.20428L43.2308 8.71356H41.437L39.8912 10.1718L39.3967 9.64945L40.8997 8.23164V7.26936L41.7767 7.81272Z" fill="black"/>
<path d="M42.4261 13.8003L41.8519 13.265L42.3331 12.9669L42.9081 13.503L42.4261 13.8003ZM40.9851 13.7013V12.856L39.5176 11.4717L39.8944 11.0736L41.4027 12.4965H42.9298L40.9851 13.7013ZM33.1758 7.32397L33.7501 7.85929L33.2688 8.15749L32.6937 7.62133L33.1758 7.32397ZM34.6168 7.42309V8.26837L36.0843 9.65269L35.7075 10.0507L34.1992 8.62789H32.6721L34.6168 7.42309Z" fill="#E23726"/>
<path d="M42.4262 7.32397L41.852 7.85929L42.3332 8.15749L42.9082 7.62133L42.4262 7.32397ZM40.9852 7.42309V8.26837L39.5178 9.65269L39.8946 10.0507L41.4028 8.62789H42.93L40.9852 7.42309ZM33.1759 13.8003L33.7501 13.265L33.2689 12.9669L32.6938 13.503L33.1759 13.8003ZM34.6168 13.7013V12.856L36.0843 11.4717L35.7076 11.0736L34.1994 12.4965H32.6721L34.6168 13.7013Z" fill="#1E9A1C"/>
<path d="M41.7729 10.5622L37.8011 13.2093L33.8293 10.5622L37.8011 7.91504L41.7729 10.5622Z" fill="black"/>
<path d="M37.7585 8.04639L34.0482 10.5192H41.5546L37.8443 8.04639V13.0777L41.5547 10.6049H34.0481L37.7585 13.0777V8.04639Z" fill="white"/>
<path d="M38.8633 11.4725V12.2003H36.7392V11.4725H35.3645V9.65187H36.7392V8.92407H38.8633V9.65187H40.2379V11.4725H38.8633Z" fill="black"/>
<path d="M36.825 9.00977V9.73757H35.4504V10.5195H37.7585V9.00977L36.825 9.00977ZM37.8443 10.5195H40.1524V9.73757H38.7778V9.00977H37.8443L37.8443 10.5195ZM35.4504 10.6052V11.3871H36.825V12.1149H37.7585V10.6052L35.4504 10.6052ZM37.8443 12.1149H38.7778V11.3871H40.1524V10.6052H37.8443V12.1149Z" fill="#E23726"/>
<path d="M44.5763 40.7219V39.5559H47.7739V38.3898H50.9715V27.8536H47.7739V26.6875H44.5763V25.5215H41.3786V24.3555H34.2222V25.5215H31.0245V26.6875H27.8268V27.8536H24.6292V38.3898H27.8268V39.5559H31.0245V40.7219H34.2222V41.8879H41.3786V40.7219H44.5763Z" fill="black"/>
<path d="M34.3126 24.4385V25.6037H31.1134V26.769H27.9143V27.9342H24.7151V38.305H27.9143V39.4704H31.1134V40.6355H34.3126V41.8006H41.2933V40.6355H44.4926V39.4704H47.692V38.305H50.8909V27.9342H47.692V26.769H44.4926V25.6037H41.2933V24.4385H34.3126ZM35.1601 25.2859H40.4459V26.4512H43.6452V27.6164H46.8445V28.7817H50.0435V37.4575H46.8445V38.6229H43.6452V39.788H40.4459V40.9531H35.1601V39.788H31.9608V38.6229H28.7617V37.4575H25.5625V28.7817H28.7617V27.6164H31.9608V26.4512H35.1601V25.2859Z" fill="#FDD406"/>
<path d="M32.0431 39.7037V38.5375H28.8455V37.3716H25.6477V28.8715H28.8455V27.7055H32.0431V26.5395H35.2407V25.3735H40.3609V26.5395H43.5587V27.7055H46.7562V28.8715H49.9539V37.3716H46.7562V38.5375H43.5587V39.7037H40.3609V40.8696H35.2407V39.7037H32.0431Z" fill="#E23726"/>
<path d="M32.7851 27.4028L31.9569 26.7767V27.9789L31.1638 28.4829L31.1618 27.7304L30.4011 28.4136L29.6404 27.7304L29.6384 28.4829L28.7595 27.9244V29.039L28.0492 29.5532L28.0472 28.8698L27.2034 29.4809L26.3595 28.8698L26.3575 29.5532L25.5616 28.9769V32.3532H24.6292V33.8901H25.5616V37.2664L26.3575 36.69L26.3595 37.3736L27.2034 36.7624L28.0471 37.3736L28.0491 36.69L28.7594 37.2042V38.3189L29.6383 37.7604L29.6403 38.513L30.401 37.8297L31.1617 38.513L31.1637 37.7604L31.9568 38.2643V39.4666L32.785 38.8406L32.7868 39.6802L33.5985 38.9543L34.4103 39.6802L34.4121 38.8406L35.1547 39.4018V40.684L36.2649 39.672V40.8612L37.8004 39.874L39.3361 40.8612V39.672L40.4463 40.684V39.4018L41.1888 38.8406L41.1906 39.6802L42.0024 38.9543L42.8142 39.6802L42.816 38.8406L43.644 39.4666V38.2643L44.4373 37.7604L44.4393 38.513L45.2001 37.8297L45.9608 38.513L45.9628 37.7604L46.8418 38.3189V37.2042L47.552 36.69L47.554 37.3736L48.3978 36.7624L49.2416 37.3736L49.2436 36.69L50.0396 37.2663V33.8901H50.972V32.3532H50.0396V28.9769L49.2436 29.5532L49.2416 28.8698L48.3978 29.4809L47.5539 28.8698L47.5521 29.5532L46.8418 29.039V27.9244L45.9628 28.4829L45.9608 27.7304L45.2002 28.4136L44.4394 27.7304L44.4374 28.4829L43.644 27.9788V26.7767L42.816 27.4026L42.8142 26.563L42.0024 27.289L41.1906 26.563L41.1888 27.4028L40.4464 26.8413V25.5593L39.3362 26.5713V25.3821L37.8005 26.3693L36.265 25.3821V26.5713L35.1548 25.5593V26.8414L34.4122 27.4028L34.4104 26.563L33.5986 27.289L32.7869 26.563L32.7851 27.4028Z" fill="black"/>
<path d="M26.4436 29.7206L26.4456 29.0371L27.2041 29.5866L27.2297 29.568L27.9626 29.0371L27.9646 29.7206L28.7602 29.1447V37.0983L27.9646 36.5225L27.9626 37.206L27.2041 36.6565L26.4456 37.206L26.4436 36.5225L25.648 37.0983V33.8042H24.7156V32.4389H25.648V29.1447L26.4436 29.7206Z" fill="#1E9A1C"/>
<path d="M32.8731 26.7544L33.5995 27.4041L34.326 26.7544L34.3278 27.5748L35.1556 26.949V39.2945L34.3278 38.6687L34.326 39.4892L33.5995 38.8395L32.8731 39.4892L32.8715 38.6687L32.0437 39.2945V26.949L32.8715 27.5748L32.8731 26.7544Z" fill="#1E9A1C"/>
<path d="M42.7294 26.7544L42.0029 27.4041L41.2765 26.7544L41.2747 27.5748L40.447 26.949V39.2945L41.2747 38.6687L41.2765 39.4892L42.0029 38.8395L42.7294 39.4892L42.7312 38.6687L43.559 39.2945V26.949L42.7312 27.5748L42.7294 26.7544Z" fill="#1E9A1C"/>
<path d="M49.1592 29.7206L49.1572 29.0371L48.3986 29.5866L48.373 29.568L47.64 29.0371L47.638 29.7206L46.8425 29.1447V37.0983L47.638 36.5225L47.64 37.206L48.3986 36.6565L49.1572 37.206L49.1592 36.5225L49.9546 37.0983V33.8042H50.887V32.4389H49.9546V29.1447L49.1592 29.7206Z" fill="#1E9A1C"/>
<path d="M29.726 27.9221L30.4015 28.529L31.0769 27.9221L31.0789 28.6388L31.9575 28.0804V38.1629L31.0789 37.6047L31.0769 38.3212L30.4015 37.7145L29.726 38.3212L29.724 37.6047L28.8455 38.1629V28.0804L29.724 28.6388L29.726 27.9221Z" fill="#FDD406"/>
<path d="M36.3512 26.7653L35.241 25.7534V40.4899L36.3512 39.4779V40.7042L37.8009 39.7721H37.8012L39.2509 40.7042V39.4779L40.3611 40.4899V25.7534L39.2509 26.7653V25.5391L37.8012 26.4711H37.8009L36.3512 25.5391V26.7653Z" fill="#FDD406"/>
<path d="M45.8758 27.9221L45.2003 28.529L44.5247 27.9221L44.5229 28.6388L43.6443 28.0804V38.1629L44.5229 37.6047L44.5247 38.3212L45.2003 37.7145L45.8758 38.3212L45.8778 37.6047L46.7563 38.1629V28.0804L45.8778 28.6388L45.8758 27.9221Z" fill="#FDD406"/>
<path d="M26.8592 31.673C26.9563 31.7709 27.0724 31.8205 27.2041 31.8205C27.3358 31.8205 27.4518 31.7709 27.549 31.673C27.8527 31.367 27.8629 30.8136 27.8599 30.4153C27.8599 30.4153 27.5088 30.7863 27.4454 30.8533C27.4013 30.777 27.2041 30.4365 27.2041 30.4365C27.2041 30.4365 27.007 30.777 26.9627 30.8533C26.8993 30.7863 26.5482 30.4153 26.5482 30.4153C26.5452 30.8136 26.5555 31.367 26.8592 31.673Z" fill="black"/>
<path d="M30.1949 30.816L29.9391 30.5604V30.0511L29.3516 30.5956L30.4018 31.6459L31.452 30.5956L30.8645 30.0511V30.5604L30.6088 30.816V29.9137L31.0618 29.5248L30.4018 28.958L29.7418 29.5248L30.1949 29.9137V30.816Z" fill="black"/>
<path d="M33.3921 29.8038L33.1363 29.548V29.0388L32.5488 29.5833L33.5991 30.6336L34.6493 29.5833L34.0618 29.0388V29.548L33.8059 29.8038V28.9014L34.2591 28.5124L33.5991 27.9458L32.9391 28.5124L33.3921 28.9014V29.8038Z" fill="black"/>
<path d="M27.2041 30.6074C27.2565 30.6979 27.4287 30.9954 27.4287 30.9954C27.4287 30.9954 27.6714 30.7388 27.7705 30.6343C27.7586 31.0841 27.6599 31.4394 27.4881 31.6123C27.4076 31.6934 27.3121 31.7346 27.2041 31.7346C27.096 31.7346 27.0005 31.6934 26.9201 31.6124C26.7483 31.4394 26.6496 31.0841 26.6377 30.6343C26.7367 30.7389 26.9793 30.9954 26.9793 30.9954C27.0542 30.866 27.1292 30.7367 27.2041 30.6074Z" fill="white"/>
<path d="M33.7208 28.8621V30.0108L34.148 29.5837V29.2352L34.5263 29.5858L33.5996 30.5125L32.6729 29.5858L33.0511 29.2352V29.5837L33.4783 30.0108V28.8621L33.0711 28.5126L33.5996 28.0588L34.128 28.5126L33.7208 28.8621Z" fill="white"/>
<path d="M30.5226 29.8741V31.0227L30.9498 30.5955V30.2472L31.328 30.5977L30.4013 31.5244L29.4746 30.5977L29.8529 30.2472V30.5955L30.2801 31.0227V29.8741L29.8729 29.5245L30.4013 29.0708L30.9297 29.5245L30.5226 29.8741Z" fill="#E23726"/>
<path d="M48.7433 31.673C48.6462 31.7709 48.5302 31.8205 48.3984 31.8205C48.2668 31.8205 48.1507 31.7709 48.0535 31.673C47.7498 31.367 47.7396 30.8136 47.7426 30.4153C47.7426 30.4153 48.0938 30.7863 48.1571 30.8533C48.2013 30.777 48.3984 30.4365 48.3984 30.4365C48.3984 30.4365 48.5956 30.777 48.6399 30.8533C48.7032 30.7863 49.0543 30.4153 49.0543 30.4153C49.0573 30.8136 49.047 31.367 48.7433 31.673Z" fill="black"/>
<path d="M45.4076 30.8157L45.6635 30.5601V30.0508L46.251 30.5954L45.2007 31.6456L44.1505 30.5954L44.738 30.0508V30.5601L44.9937 30.8157V29.9134L44.5407 29.5245L45.2007 28.9578L45.8607 29.5245L45.4076 29.9134V30.8157Z" fill="black"/>
<path d="M42.2105 29.8038L42.4662 29.548V29.0388L43.0537 29.5833L42.0035 30.6336L40.9532 29.5833L41.5408 29.0388V29.548L41.7966 29.8038V28.9014L41.3435 28.5124L42.0035 27.9458L42.6635 28.5124L42.2105 28.9014V29.8038Z" fill="black"/>
<path d="M48.3984 30.6074C48.346 30.6979 48.1738 30.9954 48.1738 30.9954C48.1738 30.9954 47.9312 30.7388 47.832 30.6343C47.8439 31.0841 47.9427 31.4394 48.1144 31.6123C48.1949 31.6934 48.2904 31.7346 48.3984 31.7346C48.5066 31.7346 48.6021 31.6934 48.6825 31.6124C48.8542 31.4394 48.953 31.0841 48.9648 30.6343C48.8658 30.7389 48.6232 30.9954 48.6232 30.9954C48.5483 30.866 48.4733 30.7367 48.3984 30.6074Z" fill="white"/>
<path d="M41.8815 28.8621V30.0108L41.4543 29.5837V29.2352L41.076 29.5858L42.0027 30.5125L42.9294 29.5858L42.5512 29.2352V29.5837L42.124 30.0108V28.8621L42.5312 28.5126L42.0027 28.0588L41.4743 28.5126L41.8815 28.8621Z" fill="white"/>
<path d="M45.08 29.8741V31.0227L44.6528 30.5955V30.2472L44.2745 30.5977L45.2013 31.5244L46.1279 30.5977L45.7497 30.2472V30.5955L45.3225 31.0227V29.8741L45.7296 29.5245L45.2013 29.0708L44.6728 29.5245L45.08 29.8741Z" fill="#E23726"/>
<path d="M39.0578 30.1873L38.7138 29.7119L39.596 28.8974L38.7734 28.2216V28.7004L38.4294 28.9947V28.1263L39.2065 27.5535L37.8007 26.5173L36.3949 27.5535L37.1721 28.1263V28.9947L36.8281 28.7004V28.2216L36.0054 28.8974L36.8877 29.7119L36.5437 30.1873H39.0578Z" fill="black"/>
<path d="M36.7119 30.1017L37.002 29.7006L36.1362 28.9014L36.7426 28.4031V28.74L37.2581 29.1811V28.0831L36.5397 27.5537L37.801 26.624L39.0623 27.5537L38.344 28.0831V29.1811L38.8594 28.74V28.4031L39.4659 28.9014L38.6001 29.7006L38.8904 30.1017H36.7119Z" fill="#E23726"/>
<path d="M37.1577 27.5536L37.8001 28.027L38.4426 27.5536L37.8001 27.0801L37.7746 27.0989L37.1577 27.5536Z" fill="black"/>
<path d="M37.8011 27.1868C37.8436 27.218 38.224 27.4984 38.2991 27.5537C38.224 27.609 37.8436 27.8895 37.8011 27.9207C37.7587 27.8895 37.3782 27.609 37.3032 27.5537C37.3782 27.4984 37.7587 27.218 37.8011 27.1868Z" fill="#1E9A1C"/>
<path d="M26.8592 34.5702C26.9563 34.4722 27.0724 34.4227 27.2041 34.4227C27.3358 34.4227 27.4518 34.4722 27.549 34.5702C27.8527 34.8762 27.8629 35.4296 27.8599 35.8279C27.8599 35.8279 27.5088 35.4568 27.4454 35.3899C27.4013 35.4662 27.2041 35.8066 27.2041 35.8066C27.2041 35.8066 27.007 35.4662 26.9627 35.3899C26.8993 35.4568 26.5482 35.8279 26.5482 35.8279C26.5452 35.4296 26.5555 34.8762 26.8592 34.5702Z" fill="black"/>
<path d="M30.1949 35.4272L29.9391 35.6828V36.1921L29.3516 35.6475L30.4018 34.5973L31.452 35.6475L30.8645 36.1921V35.6828L30.6088 35.4272V36.3295L31.0618 36.7184L30.4018 37.2852L29.7418 36.7184L30.1949 36.3295V35.4272Z" fill="black"/>
<path d="M33.3921 36.4394L33.1363 36.6951V37.2044L32.5488 36.6598L33.5991 35.6096L34.6493 36.6598L34.0618 37.2044V36.6951L33.8059 36.4394V37.3418L34.2591 37.7307L33.5991 38.2974L32.9391 37.7307L33.3921 37.3418V36.4394Z" fill="black"/>
<path d="M27.2041 35.6357C27.2565 35.5453 27.4287 35.2478 27.4287 35.2478C27.4287 35.2478 27.6714 35.5043 27.7705 35.6089C27.7586 35.1591 27.6599 34.8038 27.4881 34.6309C27.4076 34.5497 27.3121 34.5086 27.2041 34.5086C27.096 34.5086 27.0005 34.5497 26.9201 34.6307C26.7483 34.8038 26.6496 35.1591 26.6377 35.6089C26.7367 35.5042 26.9793 35.2478 26.9793 35.2478C27.0542 35.3771 27.1292 35.5065 27.2041 35.6357Z" fill="white"/>
<path d="M33.7208 37.381V36.2324L34.148 36.6595V37.008L34.5263 36.6573L33.5996 35.7307L32.6729 36.6573L33.0511 37.008V36.6595L33.4783 36.2324V37.381L33.0711 37.7306L33.5996 38.1843L34.128 37.7306L33.7208 37.381Z" fill="white"/>
<path d="M30.5226 36.3691V35.2204L30.9498 35.6476V35.996L31.328 35.6455L30.4013 34.7187L29.4746 35.6455L29.8529 35.996V35.6476L30.2801 35.2204V36.3691L29.8729 36.7186L30.4013 37.1724L30.9297 36.7186L30.5226 36.3691Z" fill="#E23726"/>
<path d="M48.7433 34.5702C48.6462 34.4722 48.5302 34.4227 48.3984 34.4227C48.2668 34.4227 48.1507 34.4722 48.0535 34.5702C47.7498 34.8762 47.7396 35.4296 47.7426 35.8279C47.7426 35.8279 48.0938 35.4568 48.1571 35.3899C48.2013 35.4662 48.3984 35.8066 48.3984 35.8066C48.3984 35.8066 48.5956 35.4662 48.6399 35.3899C48.7032 35.4568 49.0543 35.8279 49.0543 35.8279C49.0573 35.4296 49.047 34.8762 48.7433 34.5702Z" fill="black"/>
<path d="M45.4076 35.4274L45.6635 35.683V36.1923L46.251 35.6478L45.2007 34.5975L44.1505 35.6478L44.738 36.1923V35.683L44.9937 35.4274V36.3297L44.5407 36.7186L45.2007 37.2854L45.8607 36.7186L45.4076 36.3297V35.4274Z" fill="black"/>
<path d="M42.2105 36.4394L42.4662 36.6951V37.2044L43.0537 36.6598L42.0035 35.6096L40.9532 36.6598L41.5408 37.2044V36.6951L41.7966 36.4394V37.3418L41.3435 37.7307L42.0035 38.2974L42.6635 37.7307L42.2105 37.3418V36.4394Z" fill="black"/>
<path d="M48.3984 35.6357C48.346 35.5453 48.1738 35.2478 48.1738 35.2478C48.1738 35.2478 47.9312 35.5043 47.832 35.6089C47.8439 35.1591 47.9427 34.8038 48.1144 34.6309C48.1949 34.5497 48.2904 34.5086 48.3984 34.5086C48.5066 34.5086 48.6021 34.5497 48.6825 34.6307C48.8542 34.8038 48.953 35.1591 48.9648 35.6089C48.8658 35.5042 48.6232 35.2478 48.6232 35.2478C48.5483 35.3771 48.4733 35.5065 48.3984 35.6357Z" fill="white"/>
<path d="M41.8815 37.381V36.2324L41.4543 36.6595V37.008L41.076 36.6573L42.0027 35.7307L42.9294 36.6573L42.5512 37.008V36.6595L42.124 36.2324V37.381L42.5312 37.7306L42.0027 38.1843L41.4743 37.7306L41.8815 37.381Z" fill="white"/>
<path d="M45.08 36.3691V35.2204L44.6528 35.6476V35.996L44.2745 35.6455L45.2013 34.7187L46.1279 35.6455L45.7497 35.996V35.6476L45.3225 35.2204V36.3691L45.7296 36.7186L45.2013 37.1724L44.6728 36.7186L45.08 36.3691Z" fill="#E23726"/>
<path d="M39.0578 36.0559L38.7138 36.5313L39.596 37.3458L38.7734 38.0216V37.5428L38.4294 37.2484V38.1169L39.2065 38.6896L37.8007 39.7258L36.3949 38.6896L37.1721 38.1169V37.2484L36.8281 37.5428V38.0216L36.0054 37.3458L36.8877 36.5313L36.5437 36.0559H39.0578Z" fill="black"/>
<path d="M36.7119 36.1414L37.002 36.5426L36.1362 37.3418L36.7426 37.84V37.5032L37.2581 37.0621V38.1601L36.5397 38.6895L37.801 39.6191L39.0623 38.6895L38.344 38.1601V37.0621L38.8594 37.5032V37.84L39.4659 37.3418L38.6001 36.5426L38.8904 36.1414H36.7119Z" fill="#E23726"/>
<path d="M37.1577 38.6896L37.8001 38.2162L38.4426 38.6896L37.8001 39.1631L37.7746 39.1442L37.1577 38.6896Z" fill="black"/>
<path d="M37.8011 39.0564C37.8436 39.0252 38.224 38.7448 38.2991 38.6894C38.224 38.6341 37.8436 38.3537 37.8011 38.3225C37.7587 38.3537 37.3782 38.6341 37.3032 38.6894C37.3782 38.7448 37.7587 39.0252 37.8011 39.0564Z" fill="#1E9A1C"/>
<path d="M49.182 32.63H47.7745V32.069H43.4724L40.4776 30.1018H40.4648H35.1246L32.1299 32.069H27.8276V32.63H26.4202V33.6135H27.8276V34.1745H32.1299L35.1246 36.1418H40.4776L43.4724 34.1745H47.7745V33.6135H49.182V32.63Z" fill="black"/>
<path d="M35.1492 30.1904L32.1513 32.1502H27.914V32.7116H26.5051V33.5273H27.914V34.0887H32.1513L35.1492 36.0591H40.4564L43.4436 34.0887H47.6915V33.5273H49.1004V32.7116H47.6915V32.1502H43.4436L40.4564 30.1904H35.1492ZM35.2127 30.4764H40.3822L43.1259 32.2773V32.5527H46.1873V33.6968H43.1259V33.9722L40.3822 35.7625H35.2127L32.4797 33.9722V33.6968H29.4077V32.5527H32.4797V32.2773L35.2127 30.4764Z" fill="#E23726"/>
<path d="M40.3613 30.5652L43.0371 32.3219V32.6336H46.1034V33.6097H43.0371V33.9216L40.3613 35.6783H35.2404L32.5647 33.9216V33.6097H29.4983V32.6336H32.5647V32.3219L35.2404 30.5652H40.3613Z" fill="#E23726"/>
<path d="M33.9109 34.1195L35.0695 34.9893L35.8316 34.417L35.3886 34.0844L35.0695 34.324L34.7971 34.1195L39.1602 30.8438H38.2741L33.9109 34.1195ZM36.4399 35.3997H37.326L41.6892 32.1239L40.5307 31.2543L39.7685 31.8264L40.2115 32.1589L40.5307 31.9193L40.8031 32.1239L36.4399 35.3997ZM38.2741 35.3997H39.16L34.7971 32.1239L35.0695 31.9193L35.3886 32.1589L35.8316 31.8264L35.0695 31.2543L33.9109 32.1239L38.2741 35.3997ZM40.8031 34.1195L40.5307 34.324L40.2115 34.0844L39.7685 34.417L40.5307 34.9893L41.6892 34.1195L37.326 30.8438H36.4399L40.8031 34.1195Z" fill="black"/>
<path d="M33.0339 33.1217L33.8126 33.6389L34.5913 33.1217L33.8126 32.6045L33.0339 33.1217Z" fill="black"/>
<path d="M37.0222 33.1217L37.8009 33.6389L38.5796 33.1217L37.8009 32.6045L37.0222 33.1217Z" fill="black"/>
<path d="M42.5679 33.1217L41.7892 33.6389L41.0105 33.1217L41.7892 32.6045L42.5679 33.1217Z" fill="black"/>
<path d="M41.5471 34.1197L40.5314 34.8822L39.9119 34.4171L40.2122 34.1916L40.5314 34.4313L40.9465 34.1197L36.6976 30.9297H37.2982L41.5471 34.1197ZM38.9039 35.314H38.3034L34.0544 32.124L35.0702 31.3614L35.6896 31.8266L35.3893 32.0519L35.0702 31.8123L34.655 32.124L38.9039 35.314ZM37.2982 35.314H36.6976L40.9465 32.124L40.5314 31.8123L40.2122 32.0519L39.9119 31.8266L40.5314 31.3614L41.5471 32.124L37.2982 35.314ZM38.3034 30.9297H38.9039L34.655 34.1196L35.0702 34.4313L35.3893 34.1916L35.6896 34.4171L35.0702 34.8822L34.0544 34.1196L38.3034 30.9297Z" fill="#FDD406"/>
<path d="M33.813 32.7075L34.4367 33.1218L33.813 33.536L33.1892 33.1218L33.813 32.7075Z" fill="#1E9A1C"/>
<path d="M37.8011 32.7075L38.4249 33.1218L37.8011 33.536L37.1775 33.1218L37.8011 32.7075Z" fill="#1E9A1C"/>
<path d="M41.7895 32.7075L41.1658 33.1218L41.7895 33.536L42.4132 33.1218L41.7895 32.7075Z" fill="#1E9A1C"/>
<path d="M24.1052 54.8301L23.7997 55.2622L24.3474 55.681L23.7996 56.0999L24.1051 56.532L24.7414 56.6059L25.3576 56.1298L26.894 57.1057V56.2953L25.927 55.681L26.894 55.0668V54.2563L25.3576 55.2323L24.7414 54.7563L24.1052 54.8301Z" fill="black"/>
<path d="M24.1052 52.0146L23.7997 52.4469L24.3474 52.8657L23.7996 53.2845L24.1051 53.7167L24.7414 53.7905L25.3576 53.3144L26.894 54.2904V53.4798L25.927 52.8657L26.894 52.2514V51.4409L25.3576 52.4169L24.7414 51.9408L24.1052 52.0146Z" fill="black"/>
<path d="M24.1052 59.3477L23.7997 58.9156L24.3474 58.4968L23.7996 58.0779L24.1051 57.6457L24.7414 57.5719L25.3576 58.048L26.894 57.072V57.8825L25.927 58.4968L26.894 59.1109V59.9214L25.3576 58.9455L24.7414 59.4216L24.1052 59.3477Z" fill="black"/>
<path d="M51.4986 54.8301L51.8042 55.2622L51.2565 55.681L51.8042 56.0999L51.4986 56.532L50.8624 56.6059L50.2462 56.1298L48.7097 57.1057V56.2953L49.6768 55.681L48.7097 55.0668V54.2563L50.2462 55.2323L50.8624 54.7563L51.4986 54.8301Z" fill="black"/>
<path d="M51.4986 52.0146L51.8042 52.4469L51.2565 52.8657L51.8042 53.2845L51.4986 53.7167L50.8624 53.7905L50.2462 53.3144L48.7097 54.2904V53.4798L49.6768 52.8657L48.7097 52.2514V51.4409L50.2462 52.4169L50.8624 51.9408L51.4986 52.0146Z" fill="black"/>
<path d="M51.4986 59.3477L51.8042 58.9156L51.2565 58.4968L51.8042 58.0779L51.4986 57.6457L50.8624 57.5719L50.2462 58.048L48.7097 57.072V57.8825L49.6768 58.4968L48.7097 59.1109V59.9214L50.2462 58.9455L50.8624 59.4216L51.4986 59.3477Z" fill="black"/>
<path d="M45.3484 47.146V48.3172H46.2003V48.8348H47.0371V47.8923H46.2907V47.146H45.3484Z" fill="black"/>
<path d="M47.8591 48.9929V50.164H48.7102V50.6817H49.5479V49.7392H48.8016V48.9929H47.8591Z" fill="black"/>
<path d="M30.2559 47.146V48.3172H29.4038V48.8348H28.5671V47.8923H29.3134V47.146H30.2559Z" fill="black"/>
<path d="M45.3484 64.2166V63.0454H46.2003V62.5278H47.0371V63.4702H46.2907V64.2166H45.3484Z" fill="black"/>
<path d="M30.2559 64.2166V63.0454H29.4038V62.5278H28.5671V63.4702H29.3134V64.2166H30.2559Z" fill="black"/>
<path d="M47.8591 62.3694V61.1983H48.7102V60.6807H49.5479V61.623H48.8016V62.3694H47.8591Z" fill="black"/>
<path d="M27.7452 48.9929V50.164H26.8939V50.6817H26.0564V49.7392H26.8027V48.9929H27.7452Z" fill="black"/>
<path d="M27.7452 62.3694V61.1983H26.8939V60.6807H26.0564V61.623H26.8027V62.3694H27.7452Z" fill="black"/>
<path d="M40.9534 47.1187C40.899 47.0659 40.3032 46.4875 40.3032 46.4875L39.6646 47.0793C39.6646 47.0793 40.165 47.5649 40.2212 47.6196L39.5027 48.3172H40.5695L40.9534 47.9445L41.3372 48.3172H42.4039L41.6854 47.6196C41.7416 47.5649 42.2419 47.0793 42.2419 47.0793L41.6034 46.4875C41.3864 46.6977 41.17 46.9083 40.9534 47.1187Z" fill="black"/>
<path d="M37.8019 47.1187C37.7476 47.0659 37.1518 46.4875 37.1518 46.4875L36.5132 47.0793C36.5132 47.0793 37.0135 47.5649 37.0699 47.6196L36.3513 48.3172H37.418L37.8019 47.9445L38.1858 48.3172H39.2524L38.534 47.6196C38.5903 47.5649 39.0906 47.0793 39.0906 47.0793L38.452 46.4875C38.2351 46.6977 38.0186 46.9083 37.8019 47.1187Z" fill="black"/>
<path d="M34.6515 47.1187C34.7058 47.0659 35.3016 46.4875 35.3016 46.4875L35.9403 47.0793C35.9403 47.0793 35.4399 47.5649 35.3836 47.6196L36.1022 48.3172H35.0354L34.6515 47.9445L34.2676 48.3172H33.2009L33.9195 47.6196C33.8632 47.5649 33.3628 47.0793 33.3628 47.0793L34.0014 46.4875C34.2184 46.6977 34.4349 46.9083 34.6515 47.1187Z" fill="black"/>
<path d="M40.9534 64.2438C40.899 64.2965 40.3032 64.8749 40.3032 64.8749L39.6646 64.2832C39.6646 64.2832 40.165 63.7977 40.2212 63.743L39.5027 63.0454H40.5695L40.9534 63.4181L41.3372 63.0454H42.4039L41.6854 63.743C41.7416 63.7977 42.2419 64.2832 42.2419 64.2832L41.6034 64.8749C41.3864 64.6648 41.17 64.4542 40.9534 64.2438Z" fill="black"/>
<path d="M37.8019 64.2438C37.7476 64.2965 37.1518 64.8749 37.1518 64.8749L36.5132 64.2832C36.5132 64.2832 37.0135 63.7977 37.0699 63.743L36.3513 63.0454H37.418L37.8019 63.4181L38.1858 63.0454H39.2524L38.534 63.743C38.5903 63.7977 39.0906 64.2832 39.0906 64.2832L38.452 64.8749C38.2351 64.6648 38.0186 64.4542 37.8019 64.2438Z" fill="black"/>
<path d="M34.6515 64.2438C34.7058 64.2965 35.3016 64.8749 35.3016 64.8749L35.9403 64.2832C35.9403 64.2832 35.4399 63.7977 35.3836 63.743L36.1022 63.0454H35.0354L34.6515 63.4181L34.2676 63.0454H33.2009L33.9195 63.743C33.8632 63.7977 33.3628 64.2832 33.3628 64.2832L34.0014 64.8749C34.2184 64.6648 34.4349 64.4542 34.6515 64.2438Z" fill="black"/>
<path d="M26.8078 56.3427V56.95L25.3522 56.0254L24.7161 56.517L24.1524 56.4516L23.9167 56.1182L24.4879 55.6814L23.9167 55.2446L24.1525 54.9111L24.7161 54.8457L25.3522 55.3372L26.8078 54.4126V55.0199L25.7665 55.6814L26.8078 56.3427Z" fill="#1E9A1C"/>
<path d="M26.8078 53.5269V54.1343L25.3522 53.2097L24.7161 53.7012L24.1524 53.6358L23.9167 53.3024L24.4879 52.8656L23.9167 52.4289L24.1525 52.0954L24.7161 52.0299L25.3522 52.5214L26.8078 51.5969V52.2042L25.7665 52.8656L26.8078 53.5269Z" fill="#1E9A1C"/>
<path d="M26.8078 57.8354V57.228L25.3522 58.1526L24.7161 57.661L24.1524 57.7264L23.9167 58.0599L24.4879 58.4967L23.9167 58.9335L24.1525 59.2669L24.7161 59.3323L25.3522 58.8408L26.8078 59.7654V59.1581L25.7665 58.4967L26.8078 57.8354Z" fill="#1E9A1C"/>
<path d="M48.7957 56.3427V56.95L50.2513 56.0254L50.8873 56.517L51.4509 56.4516L51.6866 56.1182L51.1154 55.6814L51.6866 55.2446L51.4509 54.9111L50.8873 54.8457L50.2513 55.3372L48.7957 54.4126V55.0199L49.8368 55.6814L48.7957 56.3427Z" fill="#1E9A1C"/>
<path d="M48.7957 53.5269V54.1343L50.2513 53.2097L50.8873 53.7012L51.4509 53.6358L51.6866 53.3024L51.1154 52.8656L51.6866 52.4289L51.4509 52.0954L50.8873 52.0299L50.2513 52.5214L48.7957 51.5969V52.2042L49.8368 52.8656L48.7957 53.5269Z" fill="#1E9A1C"/>
<path d="M48.7957 57.8354V57.228L50.2513 58.1526L50.8873 57.661L51.4509 57.7264L51.6866 58.0599L51.1154 58.4967L51.6866 58.9335L51.4509 59.2669L50.8873 59.3323L50.2513 58.8408L48.7957 59.7654V59.1581L49.8368 58.4967L48.7957 57.8354Z" fill="#1E9A1C"/>
<path d="M46.2043 47.2317V47.9781H46.9506V48.7491H46.2853V48.2315H45.4333V47.2317H46.2043Z" fill="#1E9A1C"/>
<path d="M48.7151 49.0786V49.8249H49.4614V50.596H48.796V50.0785H47.9441V49.0786H48.7151Z" fill="#1E9A1C"/>
<path d="M29.3994 47.2317V47.9781H28.6531V48.7491H29.3185V48.2315H30.1704V47.2317H29.3994Z" fill="#1E9A1C"/>
<path d="M46.2043 64.1306V63.3843H46.9506V62.6133H46.2853V63.1308H45.4333V64.1306H46.2043Z" fill="#1E9A1C"/>
<path d="M29.3995 64.1306V63.3843H28.6531V62.6133H29.3185V63.1308H30.1705V64.1306H29.3995Z" fill="#1E9A1C"/>
<path d="M48.7151 62.2839V61.5376H49.4614V60.7666H48.796V61.2842H47.9441V62.2839H48.7151Z" fill="#1E9A1C"/>
<path d="M26.8876 49.0786V49.8249H26.1414V50.596H26.8068V50.0785H27.6586V49.0786H26.8876Z" fill="#1E9A1C"/>
<path d="M26.8878 62.2839V61.5376H26.1414V60.7666H26.8068V61.2842H27.6588V62.2839H26.8878Z" fill="#1E9A1C"/>
<path d="M40.3014 46.6057C40.3545 46.6573 40.9529 47.2381 40.9529 47.2381C40.9529 47.2381 41.5511 46.6573 41.6042 46.6057C41.6546 46.6523 42.0613 47.0291 42.117 47.0807C42.0594 47.1365 41.5617 47.6196 41.5617 47.6196L42.192 48.2315H41.3715L40.9529 47.8249L40.5341 48.2315H39.7136L40.3439 47.6196C40.3439 47.6196 39.8462 47.1365 39.7886 47.0807C39.8443 47.0291 40.251 46.6523 40.3014 46.6057Z" fill="#1E9A1C"/>
<path d="M37.1501 46.6057C37.2033 46.6573 37.8015 47.2381 37.8015 47.2381C37.8015 47.2381 38.3997 46.6573 38.453 46.6057C38.5034 46.6523 38.9099 47.0291 38.9656 47.0807C38.9081 47.1365 38.4105 47.6196 38.4105 47.6196L39.0407 48.2315H38.2202L37.8015 47.8249L37.3828 48.2315H36.5623L37.1925 47.6196C37.1925 47.6196 36.6949 47.1365 36.6374 47.0807C36.6931 47.0291 37.0997 46.6523 37.1501 46.6057Z" fill="#1E9A1C"/>
<path d="M35.3025 46.6057C35.2492 46.6573 34.651 47.2381 34.651 47.2381C34.651 47.2381 34.0528 46.6573 33.9996 46.6057C33.9492 46.6523 33.5425 47.0291 33.4869 47.0807C33.5445 47.1365 34.0421 47.6196 34.0421 47.6196L33.4119 48.2315H34.2323L34.651 47.8249L35.0698 48.2315H35.8902L35.26 47.6196C35.26 47.6196 35.7576 47.1365 35.8152 47.0807C35.7595 47.0291 35.3529 46.6523 35.3025 46.6057Z" fill="#1E9A1C"/>
<path d="M40.3014 64.7566C40.3545 64.7049 40.9529 64.1241 40.9529 64.1241C40.9529 64.1241 41.5511 64.7049 41.6042 64.7566C41.6546 64.7099 42.0613 64.3331 42.117 64.2817C42.0594 64.2257 41.5617 63.7427 41.5617 63.7427L42.192 63.1309H41.3715L40.9529 63.5373L40.5341 63.1309H39.7136L40.3439 63.7427C40.3439 63.7427 39.8462 64.2257 39.7886 64.2817C39.8443 64.3331 40.251 64.7099 40.3014 64.7566Z" fill="#1E9A1C"/>
<path d="M37.1501 64.7566C37.2033 64.7049 37.8015 64.1241 37.8015 64.1241C37.8015 64.1241 38.3997 64.7049 38.453 64.7566C38.5034 64.7099 38.9099 64.3331 38.9656 64.2817C38.9081 64.2257 38.4105 63.7427 38.4105 63.7427L39.0407 63.1309H38.2202L37.8015 63.5373L37.3828 63.1309H36.5623L37.1925 63.7427C37.1925 63.7427 36.6949 64.2257 36.6374 64.2817C36.6931 64.3331 37.0997 64.7099 37.1501 64.7566Z" fill="#1E9A1C"/>
<path d="M35.3025 64.7566C35.2492 64.7049 34.651 64.1241 34.651 64.1241C34.651 64.1241 34.0528 64.7049 33.9996 64.7566C33.9492 64.7099 33.5425 64.3331 33.4869 64.2817C33.5445 64.2257 34.0421 63.7427 34.0421 63.7427L33.4119 63.1309H34.2323L34.651 63.5373L35.0698 63.1309H35.8902L35.26 63.7427C35.26 63.7427 35.7576 64.2257 35.8152 64.2817C35.7595 64.3331 35.3529 64.7099 35.3025 64.7566Z" fill="#1E9A1C"/>
<path d="M29.318 61.2841V63.1309H46.2852V61.2841H48.7953V50.0782H46.2852V48.2314H29.318V50.0782H26.8079V61.2841H29.318Z" fill="black"/>
<path d="M29.4093 48.3155V50.1589H26.8987V61.1969H29.4093V63.0403H46.1994V61.1969H48.7102V50.1588H46.1994V48.3154L29.4093 48.3155ZM30.4898 49.0254H45.1191V50.805L45.7228 51.2501H48.0005V60.1165H45.7123L45.1191 60.5508V62.341H30.4898V60.5613L29.886 60.1165H27.5978V51.2501H29.8754L30.4898 50.805L30.4898 49.0254Z" fill="#FDD406"/>
<path d="M30.574 49.1101V50.7416L32.7774 49.1101H30.574ZM42.8196 49.1101L45.023 50.7416V49.1101H42.8196ZM27.6927 51.3349V52.8603L29.769 51.3349H27.6927ZM45.8284 51.3349L47.9152 52.8708V51.3349H45.8284ZM47.9152 58.485L45.8284 60.0318H47.9152V58.485ZM27.6926 58.4955V60.0318H29.7689L27.6926 58.4955ZM30.574 60.625V62.2457H32.7668L30.574 60.625ZM45.023 60.625L42.8304 62.2457H45.023V60.625Z" fill="#E23726"/>
<path d="M42.6771 49.1118C42.6996 49.1284 47.8801 52.9547 47.9146 52.9801V58.3822C47.8801 58.4077 42.6996 62.2339 42.6771 62.2506H32.9251C32.9027 62.2339 27.7222 58.4077 27.6877 58.3822V52.9801C27.7222 52.9547 32.9027 49.1284 32.9251 49.1118H42.6771Z" fill="#1E9A1C"/>
<path d="M28.9354 59.0042L28.3333 58.3053L28.8986 57.6493L28.3333 56.9932L28.8986 56.3373L28.3333 55.6813L28.8986 55.0252L28.3333 54.3692L28.8984 53.7131L28.3333 53.0571L28.9354 52.3583H46.6677L47.2699 53.0571L46.7045 53.7131L47.2699 54.3692L46.7045 55.0252L47.2699 55.6813L46.7045 56.3373L47.2699 56.9932L46.7045 57.6493L47.2699 58.3053L46.6677 59.0042H28.9354ZM41.1245 49.9569L40.4257 49.3547L39.7695 49.9201L39.1136 49.3547L38.4575 49.9201L37.8015 49.3547L37.1454 49.9201L36.4894 49.3547L35.8335 49.9201L35.1775 49.3547L34.4786 49.9569V61.4055L35.1775 62.0078L35.8335 61.4425L36.4894 62.0077L37.1454 61.4423L37.8015 62.0077L38.4575 61.4423L39.1136 62.0077L39.7695 61.4425L40.4257 62.0078L41.1245 61.4055V49.9569Z" fill="black"/>
<path d="M39.727 49.9961L39.1139 49.4678L38.5007 49.9961V61.3661L39.1139 61.8944L39.727 61.3661V49.9961Z" fill="#FDD406"/>
<path d="M37.103 49.9961L36.4898 49.4678L35.8767 49.9961V61.3661L36.4898 61.8944L37.103 61.3661V49.9961Z" fill="#FDD406"/>
<path d="M28.9753 58.9185L28.447 58.3053L28.9753 57.6921H46.6291L47.1573 58.3053L46.6291 58.9185H28.9753Z" fill="#FDD406"/>
<path d="M46.6289 55.0679L47.1573 55.6811L46.6289 56.2942H28.9754L28.447 55.6811L28.9754 55.0679H46.6289Z" fill="#FDD406"/>
<path d="M46.6291 53.6704L47.1573 53.0572L46.6291 52.4441H28.9753L28.447 53.0572L28.9753 53.6704H46.6291Z" fill="#FDD406"/>
<path d="M41.0395 49.9961L40.4264 49.4678L39.8132 49.9961V61.3661L40.4264 61.8944L41.0394 61.3662L41.0395 49.9961Z" fill="#E23726"/>
<path d="M35.7916 49.9961L35.1784 49.4678L34.5652 49.9961V61.3661L35.1784 61.8944L35.7916 61.3661V49.9961Z" fill="#E23726"/>
<path d="M28.9754 57.6063L28.447 56.9931L28.9754 56.3799H46.6289L47.1573 56.9931L46.6289 57.6063H28.9754Z" fill="#E23726"/>
<path d="M28.9754 54.9823L28.447 54.3691L28.9754 53.7559H46.6289L47.1573 54.3691L46.6289 54.9823H28.9754Z" fill="#E23726"/>
<path d="M38.4156 61.3661L37.8024 61.8944L37.1892 61.3661V49.9961L37.8024 49.4678L38.4156 49.9961V61.3661Z" fill="#E23726"/>
<path d="M43.7281 50.218H31.832V51.1628H30.3118V60.1997H31.832V61.1444H43.771V60.1997H45.2912V51.1628H43.771V50.218H43.7281Z" fill="black"/>
<path d="M31.9192 50.3069V51.2499H30.3938V60.1164H31.9192V61.0591H33.1693L30.6798 58.9723V52.3937L33.1693 50.3069H31.9192ZM42.4385 50.3069L44.9171 52.3937V58.9723L42.4385 61.0591H43.6883V60.1164H45.2032V51.2499H43.6883V50.3069L42.4385 50.3069Z" fill="#E23726"/>
<path d="M33.3078 50.3069C33.2842 50.3267 30.7955 52.4109 30.7654 52.4361V58.9297C30.7955 58.9551 33.2842 61.0392 33.3078 61.059H42.3014C42.325 61.0392 44.803 58.9549 44.8332 58.9297V52.4361C44.803 52.4109 42.325 50.3267 42.3014 50.3069H33.3078ZM33.4349 50.6671H42.1637L44.473 52.6056V58.7603L42.1637 60.6882H33.4349L31.1362 58.7603V52.6056L33.4349 50.6671Z" fill="#1E9A1C"/>
<path d="M35.7469 58.8577L36.1376 59.0265L36.2095 59.4829L35.7176 59.9156L36.4321 60.6064H35.7446L35.2531 60.1333L34.7615 60.6064H34.074L34.7886 59.9156L34.2966 59.4829L34.3686 59.0265L34.7592 58.8577L35.2531 59.2526L35.2799 59.2312L35.7469 58.8577Z" fill="#1E9A1C"/>
<path d="M38.2968 58.8577L38.6874 59.0265L38.7594 59.4829L38.2675 59.9156L38.982 60.6064H38.2945L37.8029 60.1333L37.3114 60.6064H36.6238L37.3384 59.9156L36.8465 59.4829L36.9185 59.0265L37.3091 58.8577L37.8029 59.2526L37.8297 59.2312L38.2968 58.8577Z" fill="#1E9A1C"/>
<path d="M39.8578 58.8577L39.4672 59.0265L39.3952 59.4829L39.8871 59.9156L39.1726 60.6064H39.8601L40.3517 60.1333L40.8432 60.6064H41.5307L40.8162 59.9156L41.3081 59.4829L41.2361 59.0265L40.8455 58.8577L40.3517 59.2526L40.3249 59.2312L39.8578 58.8577Z" fill="#1E9A1C"/>
<path d="M35.7469 52.5045L36.1376 52.3357L36.2095 51.8794L35.7176 51.4467L36.4321 50.7559H35.7446L35.2531 51.2289L34.7615 50.7559H34.074L34.7886 51.4467L34.2966 51.8793L34.3686 52.3357L34.7592 52.5045L35.2531 52.1097L35.2799 52.1311L35.7469 52.5045Z" fill="#1E9A1C"/>
<path d="M38.2968 52.5045L38.6874 52.3357L38.7594 51.8794L38.2675 51.4467L38.982 50.7559H38.2945L37.8029 51.2289L37.3114 50.7559H36.6238L37.3384 51.4467L36.8465 51.8793L36.9185 52.3357L37.3091 52.5045L37.8029 52.1097L37.8297 52.1311L38.2968 52.5045Z" fill="#1E9A1C"/>
<path d="M39.8578 52.5045L39.4672 52.3357L39.3952 51.8794L39.8871 51.4467L39.1726 50.7559H39.8601L40.3517 51.2289L40.8432 50.7559H41.5307L40.8162 51.4467L41.3081 51.8793L41.2361 52.3357L40.8455 52.5045L40.3517 52.1097L40.3249 52.1311L39.8578 52.5045Z" fill="#1E9A1C"/>
<path d="M44.3836 53.2332L43.9936 53.5561L44.3836 53.8789V54.4142L43.7838 53.92C43.7838 53.92 43.3805 54.2854 43.3534 54.31C43.3188 54.3056 42.9302 54.2568 42.8918 54.252C42.8747 54.2204 42.7534 53.9968 42.7292 53.952C42.7694 53.9119 43.1264 53.5561 43.1264 53.5561C43.1264 53.5561 42.7694 53.2002 42.7292 53.1601C42.7534 53.1154 42.8747 52.8916 42.8918 52.8601C42.9302 52.8553 43.3188 52.8064 43.3534 52.802C43.3805 52.8266 43.7838 53.1922 43.7838 53.1922L44.3836 52.698V53.2332Z" fill="#1E9A1C"/>
<path d="M44.3836 55.3582L43.9936 55.6811L44.3836 56.0038V56.5392L43.7838 56.045C43.7838 56.045 43.3805 56.4104 43.3534 56.435C43.3188 56.4306 42.9302 56.3817 42.8918 56.377C42.8747 56.3454 42.7534 56.1216 42.7292 56.077C42.7694 56.0369 43.1264 55.6811 43.1264 55.6811C43.1264 55.6811 42.7694 55.3251 42.7292 55.285C42.7534 55.2404 42.8747 55.0166 42.8918 54.985C42.9302 54.9803 43.3188 54.9314 43.3534 54.927C43.3805 54.9516 43.7838 55.317 43.7838 55.317L44.3836 54.823V55.3582Z" fill="#1E9A1C"/>
<path d="M44.3836 58.129L43.9936 57.8061L44.3836 57.4833V56.948L43.7838 57.4423C43.7838 57.4423 43.3805 57.0768 43.3534 57.0522C43.3188 57.0565 42.9302 57.1054 42.8918 57.1101C42.8747 57.1417 42.7534 57.3655 42.7292 57.4101C42.7694 57.4503 43.1264 57.8061 43.1264 57.8061C43.1264 57.8061 42.7694 58.162 42.7292 58.2021C42.7534 58.2468 42.8747 58.4706 42.8918 58.5021C42.9302 58.5069 43.3188 58.5558 43.3534 58.5601C43.3805 58.5355 43.7838 58.1701 43.7838 58.1701L44.3836 58.6642V58.129Z" fill="#1E9A1C"/>
<path d="M31.2224 53.2334L31.6123 53.5564L31.2224 53.8792V54.4145L31.8222 53.9202C31.8222 53.9202 32.2255 54.2856 32.2526 54.3102C32.2871 54.3059 32.6757 54.257 32.7141 54.2522C32.7313 54.2207 32.8525 53.997 32.8767 53.9522C32.8365 53.9122 32.4795 53.5564 32.4795 53.5564C32.4795 53.5564 32.8365 53.2004 32.8767 53.1604C32.8525 53.1156 32.7313 52.8918 32.7141 52.8604C32.6757 52.8556 32.2871 52.8066 32.2526 52.8023C32.2255 52.8269 31.8222 53.1924 31.8222 53.1924L31.2224 52.6982V53.2334Z" fill="#1E9A1C"/>
<path d="M31.2224 55.3584L31.6123 55.6814L31.2224 56.004V56.5395L31.8222 56.0452C31.8222 56.0452 32.2255 56.4106 32.2526 56.4352C32.2871 56.4309 32.6757 56.3819 32.7141 56.3772C32.7313 56.3457 32.8525 56.1219 32.8767 56.0772C32.8365 56.0372 32.4795 55.6814 32.4795 55.6814C32.4795 55.6814 32.8365 55.3253 32.8767 55.2852C32.8525 55.2406 32.7313 55.0168 32.7141 54.9852C32.6757 54.9806 32.2871 54.9316 32.2526 54.9273C32.2255 54.9519 31.8222 55.3173 31.8222 55.3173L31.2224 54.8232V55.3584Z" fill="#1E9A1C"/>
<path d="M31.2224 58.129L31.6123 57.8061L31.2224 57.4833V56.948L31.8222 57.4423C31.8222 57.4423 32.2255 57.0768 32.2526 57.0522C32.2871 57.0565 32.6757 57.1054 32.7141 57.1101C32.7313 57.1417 32.8525 57.3655 32.8767 57.4101C32.8365 57.4503 32.4795 57.8061 32.4795 57.8061C32.4795 57.8061 32.8365 58.162 32.8767 58.2021C32.8525 58.2468 32.7313 58.4706 32.7141 58.5021C32.6757 58.5069 32.2871 58.5558 32.2526 58.5601C32.2255 58.5355 31.8222 58.1701 31.8222 58.1701L31.2224 58.6642V58.129Z" fill="#1E9A1C"/>
<path d="M33.4657 50.752C33.4426 50.7714 31.3453 52.5273 31.2518 52.6059C31.4408 52.7625 31.6237 52.9264 31.8132 53.0825C31.8612 53.0392 32.2263 52.7117 32.2263 52.7117L32.7666 52.7859L32.9784 53.1778C32.9784 53.1778 32.6489 53.5076 32.5971 53.5592C32.6489 53.6106 32.9784 53.9405 32.9784 53.9405L32.7666 54.3325L32.2263 54.396C32.2263 54.396 31.8612 54.0793 31.8132 54.0359L31.22 54.5337V54.7032C31.4195 54.8684 31.6129 55.0361 31.8132 55.2011C31.8612 55.1578 32.2263 54.8409 32.2263 54.8409L32.7666 54.9045L32.9784 55.2964C32.9784 55.2964 32.6489 55.6262 32.5971 55.6778C32.6489 55.7293 32.9784 56.0592 32.9784 56.0592L32.7666 56.4617L32.2263 56.5253C32.2263 56.5253 31.8612 56.1979 31.8132 56.1545L31.22 56.6524V56.8325L31.8132 57.3303C31.8612 57.287 32.2263 56.9596 32.2263 56.9596L32.7666 57.0337L32.9784 57.4257C32.9784 57.4257 32.6489 57.7554 32.5971 57.807C32.6489 57.8586 32.9784 58.1884 32.9784 58.1884L32.7666 58.5803L32.2263 58.6545C32.2263 58.6545 31.8612 58.3272 31.8132 58.2837C31.6244 58.4392 31.4401 58.5945 31.2517 58.7498C31.3453 58.8284 33.4426 60.5842 33.4657 60.6037H33.953L34.6628 59.9151L34.2073 59.5125L34.292 58.9617L34.7687 58.7604L35.256 59.1418L35.7327 58.7604L36.2094 58.9617L36.3047 59.5125L35.8386 59.9151L36.5272 60.5719L37.2157 59.9151L36.7496 59.5125L36.8344 58.9617L37.3217 58.7604L37.7984 59.1418L38.2856 58.7604L38.7623 58.9617L38.8471 59.5125L38.3916 59.9151L39.0695 60.5825L39.7581 59.9151L39.3026 59.5125L39.3873 58.9617L39.8746 58.7604L40.3513 59.1418L40.828 58.7604L41.3153 58.9617L41.4 59.5125L40.9445 59.9151L41.6543 60.6037H42.131C42.1541 60.5842 44.2513 58.8284 44.345 58.7498C44.1563 58.5944 43.9725 58.4395 43.7835 58.2837C43.7355 58.3272 43.381 58.6545 43.381 58.6545L42.8407 58.5803L42.6183 58.1884C42.6183 58.1884 42.9479 57.8586 42.9996 57.807C42.9479 57.7554 42.6183 57.4257 42.6183 57.4257L42.8407 57.0337L43.381 56.9596C43.381 56.9596 43.7355 57.287 43.7835 57.3303L44.3767 56.8325V56.6524L43.7835 56.1545C43.7355 56.1979 43.381 56.5253 43.381 56.5253L42.8407 56.4617L42.6183 56.0592C42.6183 56.0592 42.9479 55.7293 42.9996 55.6778C42.9479 55.6262 42.6183 55.2964 42.6183 55.2964L42.8407 54.9045L43.381 54.8409C43.381 54.8409 43.7355 55.1578 43.7835 55.2011C43.9824 55.0373 44.1783 54.8771 44.3767 54.7138V54.5231L43.7835 54.0359C43.7355 54.0793 43.381 54.396 43.381 54.396L42.8407 54.3325L42.6183 53.9405C42.6183 53.9405 42.9479 53.6106 42.9996 53.5592C42.9479 53.5076 42.6183 53.1778 42.6183 53.1778L42.8407 52.7859L43.381 52.7117C43.381 52.7117 43.7355 53.0391 43.7835 53.0825C43.9734 52.9261 44.1658 52.7728 44.3556 52.6164C44.2826 52.5552 42.1543 50.7714 42.131 50.752H41.6543L40.9445 51.4405L41.4 51.8431L41.3153 52.3939L40.828 52.6058L40.3513 52.2244L39.8746 52.6058L39.3873 52.3939L39.3026 51.8431L39.7581 51.4405L39.0801 50.7837L38.3916 51.4405L38.8471 51.8431L38.7623 52.3939L38.2856 52.6058L37.7983 52.2244L37.3217 52.6058L36.8344 52.3939L36.7496 51.8431L37.2157 51.4405L36.5272 50.7837L35.8386 51.4405L36.3047 51.8431L36.2094 52.3939L35.7327 52.6058L35.256 52.2244L34.7687 52.6058L34.292 52.3939L34.2072 51.8431L34.6628 51.4405L33.9424 50.752L33.4657 50.752ZM31.22 55.466V55.9003L31.4742 55.6779L31.22 55.466Z" fill="#E23726"/>
<path d="M35.2563 60.2542L34.8855 60.6036H35.6163L35.2563 60.2542Z" fill="white"/>
<path d="M37.7992 60.2542L37.4392 60.6036H38.1701L37.7992 60.2542Z" fill="white"/>
<path d="M40.3517 60.2542L39.9812 60.6036H40.7226L40.3517 60.2542Z" fill="white"/>
<path d="M34.8748 50.7522L35.2561 51.1122L35.627 50.7522H34.8748Z" fill="white"/>
<path d="M37.4285 50.7522L37.7993 51.1122L38.1807 50.7522H37.4285Z" fill="white"/>
<path d="M39.9812 50.7522L40.3517 51.1122L40.7226 50.7522H39.9812Z" fill="white"/>
<path d="M44.3768 53.3474L44.1226 53.5593L44.3768 53.7606V53.3474Z" fill="white"/>
<path d="M44.3768 55.4661L44.1226 55.6779L44.3768 55.8898V55.4661Z" fill="white"/>
<path d="M44.3768 57.5952L44.1226 57.8071L44.3768 58.0189V57.5952Z" fill="white"/>
<path d="M31.2205 53.3369V53.7712L31.4747 53.5593L31.2205 53.3369Z" fill="white"/>
<path d="M31.2205 55.4658V55.9001L31.4747 55.6777L31.2205 55.4658Z" fill="white"/>
<path d="M31.2205 57.585V58.0192L31.4747 57.8073L31.2205 57.585Z" fill="white"/>
<path d="M39.9823 54.9714V54.2131H39.2149V53.3818H36.3885V54.2131H35.6211V54.9714H34.5613V56.391H35.6211V57.1491H36.3885V57.9805H39.2149V57.1491H39.9823V56.391H41.042V54.9714H39.9823Z" fill="black"/>
<path d="M37.7589 53.4675V54.3244L36.5441 55.015V55.6383H34.6472V55.057H35.7069V54.2989H36.4743V53.4675H37.7589Z" fill="#FDD406"/>
<path d="M37.8445 57.8949V57.038L39.0592 56.3473V55.7241H40.9562V56.3053H39.8965V57.0636H39.1291V57.8949H37.8445Z" fill="#FDD406"/>
<path d="M39.0592 55.6383V55.015L37.8445 54.3244V53.4675H39.1291V54.2989H39.8965V55.057H40.9562V55.6383H39.0592Z" fill="white"/>
<path d="M34.6472 55.7241H36.5441V56.3473L37.7589 57.038V57.8949H36.4743V57.0636H35.7069V56.3053H34.6472V55.7241Z" fill="white"/>
<path d="M36.6296 55.7241V56.3018L37.7587 56.9438V55.7241H36.6296Z" fill="#E23726"/>
<path d="M37.7587 54.4187L36.6296 55.0606V55.6383H37.7587V54.4187Z" fill="#1E9A1C"/>
<path d="M38.9736 55.6385V55.0608L37.8445 54.4189V55.6385H38.9736Z" fill="#E23726"/>
<path d="M37.8445 56.9438L38.9736 56.3018V55.7241H37.8445V56.9438Z" fill="#1E9A1C"/>
<path d="M27.5308 70.746V73.0894H25.2977V75.2148H23.0344V81.2665H25.2977V83.392H27.5308V85.7353H35.6504L37.0783 86.5933L36.3921 87.0055H33.4969L33.2471 86.7239H35.8709L35.1317 85.9795H31.3785L33.079 87.7499H36.5986L37.8009 87.0275L39.0032 87.7499H42.523L44.2234 85.9795H40.4703L39.731 86.7239H42.3549L42.1051 87.0055H39.2097L38.5235 86.5933L39.9515 85.7353H48.0711V83.392H50.3042V81.2665H52.5674V75.2148H50.3042V73.0894H48.0711V70.746H39.9515L38.5235 69.8881L39.2097 69.4758H42.1051L42.3549 69.7574H39.731L40.4703 70.5018H44.2234L42.523 68.7314H39.0032L37.8009 69.4538L36.5986 68.7314H33.079L31.3785 70.5018H35.1317L35.8709 69.7574H33.2471L33.4969 69.4758H36.3921L37.0783 69.8881L35.6504 70.746H27.5308Z" fill="#E23726"/>
<path d="M39.9269 85.6461H47.9883V83.305H50.2129V81.1758H52.4798V75.2965H50.2129V73.1779H47.9883V70.8368H39.9269L36.5794 68.8135H33.1154L31.5794 70.413H35.0964L35.6684 69.841H33.0519L33.4544 69.3855H36.4205L40.2129 71.6737H47.1409V74.0148H49.376V76.144H51.643V80.3389H49.376V82.4682H47.1409V84.8093H40.2129L36.4205 87.0868H33.4544L33.0519 86.6419H35.6684L35.0964 86.0698H31.5794L33.1154 87.6694H36.5794L39.9269 85.6461ZM35.3824 84.8093H28.4545V82.4682H26.2299V80.3389H23.9629V76.144H26.2299V74.0148H28.4545V71.6737H35.3824L39.1854 69.3855H42.1409L42.5435 69.841H39.9375L40.5096 70.4131H44.0265L42.4905 68.8135H39.0265L35.679 70.8368H27.6176V73.1779H25.3824V75.2965H23.1155V81.1758H25.3824V83.305H27.6176V85.6461H35.679L39.0265 87.6694H42.4905L44.0265 86.0698H40.5096L39.9375 86.6419H42.5435L42.1409 87.0868H39.1854L35.3824 84.8093Z" fill="#FDD406"/>
<path d="M46.4701 81.7908V84.1341H40.0301L37.8012 85.4733L35.5723 84.1341H29.1324V81.7908H26.8992V79.6652H24.636V76.8161H26.8992V74.6905H29.1324V72.3473H35.5604H35.5723L37.8012 71.0081L40.0301 72.3473H46.4701V74.6905H48.7032V76.8161H50.9664V79.6652H48.7032V81.7908H46.4701Z" fill="#1E9A1C"/>
<path d="M29.9753 80.9701V83.2381H33.5153L29.9753 80.8901V80.9701Z" fill="black"/>
<path d="M29.9753 75.5118V73.2437H33.5153L29.9753 75.5916V75.5118Z" fill="black"/>
<path d="M45.6267 80.9701V83.2381H42.0867L45.6267 80.8901V80.9701Z" fill="black"/>
<path d="M45.6267 75.5118V73.2437H42.0867L45.6267 75.5916V75.5118Z" fill="black"/>
<path d="M30.0613 81.0498L33.2312 83.1523H30.0613V81.0498Z" fill="#E23726"/>
<path d="M30.0613 75.4321C30.1845 75.3503 33.0152 73.4728 33.2312 73.3296H30.0613V75.4321Z" fill="#E23726"/>
<path d="M45.5417 81.0498C45.4184 81.1316 42.5877 83.009 42.3718 83.1523H45.5417V81.0498Z" fill="#E23726"/>
<path d="M45.5417 75.4321C45.4184 75.3504 42.5877 73.4729 42.3718 73.3296H45.5417V75.4321Z" fill="#E23726"/>
<path d="M34.4908 77.6189V76.4606H34.0958L32.2005 75.2756L32.1778 75.2899L30.3053 76.4606H29.9103V77.6189H29.0193V78.8628H29.9103V80.0209H30.3053L32.2005 81.2059L34.0958 80.0209H34.4908V78.8628H35.8472V77.6189H34.4908Z" fill="black"/>
<path d="M32.2009 75.377L33.9346 76.4608H30.4675L32.2009 75.377ZM33.9343 80.0211L32.2009 81.1049L30.4677 80.0211H33.9343Z" fill="#E23726"/>
<path d="M33.5141 77.7046V78.7771H31.3523V77.7046H33.5141Z" fill="#E23726"/>
<path d="M34.4062 78.8625V79.9351H32.2444V78.8625H34.4062Z" fill="#FDD406"/>
<path d="M32.1591 78.8628V79.9354H29.9973V78.8628H32.1591Z" fill="#FDD406"/>
<path d="M35.7626 77.7046V78.7771H33.6008V77.7046H35.7626Z" fill="#FDD406"/>
<path d="M31.2675 77.7046V78.7771H29.1057V77.7046H31.2675Z" fill="#FDD406"/>
<path d="M34.4062 76.5464V77.6188H32.2444V76.5464H34.4062Z" fill="#FDD406"/>
<path d="M32.1591 76.5464V77.6188H29.9973V76.5464H32.1591Z" fill="#FDD406"/>
<path d="M30.6725 77.9429V78.5388H29.7014V77.9429H30.6725Z" fill="black"/>
<path d="M31.5641 76.7847V77.3806H30.593V76.7847H31.5641Z" fill="black"/>
<path d="M33.8111 76.7847V77.3806H32.8401V76.7847H33.8111Z" fill="black"/>
<path d="M32.9195 77.9429V78.5388H31.9485V77.9429H32.9195Z" fill="black"/>
<path d="M35.1666 77.9429V78.5388H34.1956V77.9429H35.1666Z" fill="black"/>
<path d="M33.8111 79.1011V79.697H32.8401V79.1011H33.8111Z" fill="black"/>
<path d="M31.5641 79.1011V79.697H30.593V79.1011H31.5641Z" fill="black"/>
<path d="M30.5804 78.0342H29.7922V78.4472H30.5804V78.0342Z" fill="white"/>
<path d="M31.472 76.876H30.6838V77.289H31.472V76.876Z" fill="white"/>
<path d="M33.7191 76.876H32.9309V77.289H33.7191V76.876Z" fill="white"/>
<path d="M32.8275 78.0342H32.0393V78.4472H32.8275V78.0342Z" fill="white"/>
<path d="M35.0755 78.0342H34.2874V78.4472H35.0755V78.0342Z" fill="white"/>
<path d="M33.7191 79.1924H32.9309V79.6054H33.7191V79.1924Z" fill="white"/>
<path d="M31.472 79.1924H30.6838V79.6054H31.472V79.1924Z" fill="white"/>
<path d="M41.1122 77.6189V76.4606H41.5073L43.4025 75.2756L43.4252 75.2899L45.2977 76.4606H45.6927V77.6189H46.5837V78.8628H45.6927V80.0209H45.2977L43.4025 81.2059L41.5073 80.0209H41.1122V78.8628H39.7559V77.6189H41.1122Z" fill="black"/>
<path d="M43.4021 75.377L41.6685 76.4608H45.1355L43.4021 75.377ZM41.6687 80.0211L43.4021 81.1049L45.1354 80.0211H41.6687Z" fill="#E23726"/>
<path d="M42.0889 77.7046V78.7771H44.2507V77.7046H42.0889Z" fill="#E23726"/>
<path d="M41.1976 78.8625V79.9351H43.3594V78.8625H41.1976Z" fill="#FDD406"/>
<path d="M43.4456 78.8625V79.9351H45.6074V78.8625H43.4456Z" fill="#FDD406"/>
<path d="M39.8411 77.7046V78.7771H42.0029V77.7046H39.8411Z" fill="#FDD406"/>
<path d="M44.3362 77.7046V78.7771H46.498V77.7046H44.3362Z" fill="#FDD406"/>
<path d="M41.1976 76.5464V77.6188H43.3594V76.5464H41.1976Z" fill="#FDD406"/>
<path d="M43.4456 76.5464V77.6188H45.6074V76.5464H43.4456Z" fill="#FDD406"/>
<path d="M44.9315 77.9429V78.5388H45.9026V77.9429H44.9315Z" fill="black"/>
<path d="M44.0409 76.7847V77.3806H45.012V76.7847H44.0409Z" fill="black"/>
<path d="M41.7929 76.7847V77.3806H42.7639V76.7847H41.7929Z" fill="black"/>
<path d="M42.6845 77.9429V78.5388H43.6555V77.9429H42.6845Z" fill="black"/>
<path d="M40.4374 77.9429V78.5388H41.4084V77.9429H40.4374Z" fill="black"/>
<path d="M41.7929 79.1011V79.697H42.7639V79.1011H41.7929Z" fill="black"/>
<path d="M44.0409 79.1011V79.697H45.012V79.1011H44.0409Z" fill="black"/>
<path d="M45.0236 78.0342H45.8118V78.4472H45.0236V78.0342Z" fill="white"/>
<path d="M44.133 76.876H44.9211V77.289H44.133V76.876Z" fill="white"/>
<path d="M41.8849 76.876H42.6731V77.289H41.8849V76.876Z" fill="white"/>
<path d="M42.7765 78.0342H43.5647V78.4472H42.7765V78.0342Z" fill="white"/>
<path d="M40.5285 78.0342H41.3167V78.4472H40.5285V78.0342Z" fill="white"/>
<path d="M41.8849 79.1924H42.6731V79.6054H41.8849V79.1924Z" fill="white"/>
<path d="M44.133 79.1924H44.9211V79.6054H44.133V79.1924Z" fill="white"/>
<path d="M40.0917 75.6841V76.8422H39.6966L37.8013 78.0272L37.7787 78.013L35.9062 76.8422H35.5111V75.6841H34.3875V74.4402H35.5111V73.282H35.9062L37.8013 72.0969L39.6966 73.282H40.0917V74.4402H41.2153V75.6841H40.0917Z" fill="black"/>
<path d="M37.8015 77.9261L39.535 76.8421H36.0681L37.8015 77.9261ZM39.5349 73.282L37.8015 72.198L36.0682 73.282H39.5349Z" fill="#FDD406"/>
<path d="M40.0068 74.4401V73.3677H37.845V74.4401H40.0068Z" fill="#E23726"/>
<path d="M37.7597 74.4401V73.3677H35.5979V74.4401H37.7597Z" fill="#E23726"/>
<path d="M41.1308 75.5984V74.5259H38.969V75.5984H41.1308Z" fill="#E23726"/>
<path d="M38.8825 75.5984V74.5259H36.7207V75.5984H38.8825Z" fill="#E23726"/>
<path d="M36.6356 75.5984V74.5259H34.4739V75.5984H36.6356Z" fill="#E23726"/>
<path d="M40.0068 76.7566V75.6841H37.845V76.7566H40.0068Z" fill="#E23726"/>
<path d="M37.7597 76.7566V75.6841H35.5979V76.7566H37.7597Z" fill="#E23726"/>
<path d="M37.1637 73.606V74.2019H36.1926V73.606H37.1637Z" fill="black"/>
<path d="M39.4107 73.606V74.2019H38.4397V73.606H39.4107Z" fill="black"/>
<path d="M36.0396 74.7642V75.3601H35.0686V74.7642H36.0396Z" fill="black"/>
<path d="M38.2877 74.7642V75.3601H37.3167V74.7642H38.2877Z" fill="black"/>
<path d="M40.5348 74.7642V75.3601H39.5637V74.7642H40.5348Z" fill="black"/>
<path d="M37.1637 75.9224V76.5183H36.1926V75.9224H37.1637Z" fill="black"/>
<path d="M39.4107 75.9224V76.5183H38.4397V75.9224H39.4107Z" fill="black"/>
<path d="M37.0726 73.6973H36.2844V74.1103H37.0726V73.6973Z" fill="white"/>
<path d="M39.3197 73.6973H38.5315V74.1103H39.3197V73.6973Z" fill="white"/>
<path d="M35.9486 74.8555H35.1604V75.2685H35.9486V74.8555Z" fill="white"/>
<path d="M38.1966 74.8555H37.4084V75.2685H38.1966V74.8555Z" fill="white"/>
<path d="M40.4437 74.8555H39.6555V75.2685H40.4437V74.8555Z" fill="white"/>
<path d="M37.0726 76.0137H36.2844V76.4267H37.0726V76.0137Z" fill="white"/>
<path d="M39.3197 76.0137H38.5315V76.4267H39.3197V76.0137Z" fill="white"/>
<path d="M40.0917 82.0417V83.1999H39.6966L37.8013 84.3849L37.7787 84.3707L35.9062 83.1999H35.5111V82.0417H34.3875V80.7978H35.5111V79.6397H35.9062L37.8013 78.4546L39.6966 79.6397H40.0917V80.7978H41.2153V82.0417H40.0917Z" fill="black"/>
<path d="M37.8015 84.2837L39.535 83.1998H36.0681L37.8015 84.2837ZM39.5349 79.6396L37.8015 78.5557L36.0682 79.6396H39.5349Z" fill="#FDD406"/>
<path d="M40.0068 80.7978V79.7253H37.845V80.7978H40.0068Z" fill="#E23726"/>
<path d="M37.7597 80.7978V79.7253H35.5979V80.7978H37.7597Z" fill="#E23726"/>
<path d="M41.1308 81.9559V80.8833H38.969V81.9559H41.1308Z" fill="#E23726"/>
<path d="M38.8825 81.9559V80.8833H36.7207V81.9559H38.8825Z" fill="#E23726"/>
<path d="M36.6356 81.9559V80.8833H34.4739V81.9559H36.6356Z" fill="#E23726"/>
<path d="M40.0068 83.1141V82.0415H37.845V83.1141H40.0068Z" fill="#E23726"/>
<path d="M37.7597 83.1141V82.0415H35.5979V83.1141H37.7597Z" fill="#E23726"/>
<path d="M37.1637 79.9634V80.5593H36.1926V79.9634H37.1637Z" fill="black"/>
<path d="M39.4107 79.9634V80.5593H38.4397V79.9634H39.4107Z" fill="black"/>
<path d="M36.0396 81.1216V81.7175H35.0686V81.1216H36.0396Z" fill="black"/>
<path d="M38.2877 81.1216V81.7175H37.3167V81.1216H38.2877Z" fill="black"/>
<path d="M40.5348 81.1216V81.7175H39.5637V81.1216H40.5348Z" fill="black"/>
<path d="M37.1637 82.2798V82.8757H36.1926V82.2798H37.1637Z" fill="black"/>
<path d="M39.4107 82.2798V82.8757H38.4397V82.2798H39.4107Z" fill="black"/>
<path d="M37.0726 80.0549H36.2844V80.468H37.0726V80.0549Z" fill="white"/>
<path d="M39.3197 80.0549H38.5315V80.468H39.3197V80.0549Z" fill="white"/>
<path d="M35.9486 81.2131H35.1604V81.6262H35.9486V81.2131Z" fill="white"/>
<path d="M38.1966 81.2131H37.4084V81.6262H38.1966V81.2131Z" fill="white"/>
<path d="M40.4437 81.2131H39.6555V81.6262H40.4437V81.2131Z" fill="white"/>
<path d="M37.0726 82.3713H36.2844V82.7844H37.0726V82.3713Z" fill="white"/>
<path d="M39.3197 82.3713H38.5315V82.7844H39.3197V82.3713Z" fill="white"/>
<path d="M25.5364 95.8708L33.9467 91.3445H33.9575H41.6545L50.0649 95.8708V103.329L41.6545 107.855H33.9467L25.5364 103.329V95.8708Z" fill="black"/>
<path d="M33.9737 91.4302L25.6262 95.9217V103.273L33.9737 107.765H41.6324L49.9802 103.273V95.9217L41.6324 91.4302H33.9737ZM34.1219 92.0339H41.4842L49.387 96.2817V102.924L41.4842 107.172H34.1174L26.215 102.924V96.2817L34.1219 92.0339Z" fill="#1E9A1C"/>
<path d="M37.8434 99.5567V107.085H41.4624L49.299 102.867V99.6425L37.7577 99.6425V92.1145H34.1387L26.302 96.3318V99.5567L37.8434 99.5567Z" fill="#FDD406"/>
<path d="M37.7577 99.5567V107.085H34.1387L26.302 102.867V99.6425L37.8434 99.6425V92.1145H41.4624L49.299 96.3318V99.5567L37.7577 99.5567Z" fill="white"/>
<path d="M38.504 106.663V104.488L37.8006 104.934L37.097 104.488V106.663H34.9087L36.3853 105.58V104.036L34.1334 102.607H32.5598V96.5926H34.1334L36.3853 95.1638V93.6193L34.9087 92.5364H35.0396H37.097V94.7123L37.8006 94.2659L38.504 94.7123V92.5364H40.6925L39.2157 93.6193V95.1638L41.4677 96.5926H43.0412V102.607H41.4677L39.2157 104.036V105.58L40.6925 106.663H38.504Z" fill="black"/>
<path d="M38.5925 92.627V94.8727L37.8403 94.3961V95.0317L41.2831 97.2242H42.4166V99.5551H42.957V96.6737H41.442L39.1329 95.2117V93.5802L40.4356 92.627H38.5925ZM32.6497 99.6398V102.521H34.1539L36.4739 103.993V105.625L35.1709 106.578H37.0142V104.332L37.7556 104.809V104.152L34.3129 101.981H33.1899V99.6398L32.6497 99.6398Z" fill="#FDD406"/>
<path d="M35.1708 92.627L36.4739 93.5802V95.2117L34.1539 96.6737H32.6497V99.5551H33.1899V97.2242H34.3129L37.7556 95.0422V94.3961L37.0142 94.8727V92.627L35.1708 92.627ZM42.4166 99.6398V101.981H41.283L37.8403 104.152V104.809L38.5925 104.332V106.578H40.4356L39.1329 105.625V103.993L41.442 102.521H42.9569V99.6398L42.4166 99.6398Z" fill="white"/>
<path d="M33.2717 101.892H34.3392L37.8008 104.088L41.2622 101.892H42.3298V97.3084H41.2746H41.2622L37.8008 95.1123L34.3392 97.3084H33.2717V101.892Z" fill="#E23726"/>
<path d="M40.197 100.689H40.9361V100.339H40.3801V99.7035H41.5684V101.325H40.4292L40.4293 102.431H38.0844V100.841H39.1164V101.477H38.7167V101.795H39.797V101.187L35.4048 98.5107H34.6657V98.8603H35.2218V99.4959H34.0334V97.875H35.1726V96.769H35.2154H37.5174V98.3581H36.4854V97.7224H36.8851V97.4047H35.8049V98.0122L40.197 100.689ZM39.797 98.0122V97.4047H38.7167V97.7224H39.1164V98.3581H38.0844V96.769H40.4293V97.875H41.5684V99.4959H40.3801V98.8603H40.9362V98.5107H40.197L35.8049 101.187V101.795H36.8851V101.477H36.4854V100.841H37.5174V102.431H35.1726V101.324H34.0334V99.7035H35.2218V100.339H34.6657V100.689H35.4048L39.797 98.0122Z" fill="black"/>
<path d="M39.8829 101.139V101.881H38.631V101.392H39.0309V100.927H38.1702V102.345H40.3437V101.239H41.4828V99.7896H40.4659V100.254H41.0219V100.775H40.1731L35.7192 98.0606V97.3193H36.9711V97.8084H36.5713V98.2727H37.4319V96.855H35.2584V97.9609H34.1194V99.4105H35.1361V98.9462H34.5802V98.4252H35.4289L39.8829 101.139ZM40.1731 98.4252H41.022V98.9462H40.4659V99.4105H41.4828V97.9609H40.3438V96.855H38.1703V98.2727H39.0309V97.8084H38.6311V97.3193H39.8829V98.0606L35.4289 100.775H34.5802V100.254H35.1361V99.7895H34.1194V101.239H35.2584V102.345H37.4319V100.927H36.5713V101.392H36.9711V101.881H35.7192V101.139L40.1731 98.4252Z" fill="white"/>
<path d="M47.6105 99.9766V102.329H46.6095V101.498H45.6004V102.329H44.5994V99.9766H45.6004V100.807H46.6095V99.9766H47.6105Z" fill="black"/>
<path d="M44.0285 103.1V105.452H43.0275V104.621H42.0184V105.452H41.0173V103.1H42.0184V103.93H43.0275V103.1H44.0285Z" fill="black"/>
<path d="M47.6105 99.2225V96.8701H46.6095V97.7009H45.6004V96.8701H44.5994V99.2225H45.6004V98.3917H46.6095V99.2225H47.6105Z" fill="black"/>
<path d="M27.9929 99.9766V102.329H28.994V101.498H30.003V102.329H31.0041V99.9766H30.003V100.807H28.994V99.9766H27.9929Z" fill="black"/>
<path d="M27.9929 99.2225V96.8701H28.994V97.7009H30.003V96.8701H31.0041V99.2225H30.003V98.3917H28.994V99.2225H27.9929Z" fill="black"/>
<path d="M44.0285 96.0997V93.7473H43.0275V94.5781H42.0184V93.7473H41.0173V96.0997H42.0184V95.2689H43.0275V96.0997H44.0285Z" fill="black"/>
<path d="M31.575 103.1V105.452H32.576V104.621H33.5851V105.452H34.5861V103.1H33.5851V103.93H32.576V103.1H31.575Z" fill="black"/>
<path d="M31.575 96.0997V93.7473H32.576V94.5781H33.5851V93.7473H34.5861V96.0997H33.5851V95.2689H32.576V96.0997H31.575Z" fill="black"/>
<path d="M44.6257 94.4512V96.2376H47.9452L44.6257 94.4512Z" fill="black"/>
<path d="M30.9774 104.748V102.962H27.658L30.9774 104.748Z" fill="black"/>
<path d="M30.9774 94.4512V96.2376H27.658L30.9774 94.4512Z" fill="black"/>
<path d="M44.6257 104.748V102.962H47.9452L44.6257 104.748Z" fill="black"/>
<path d="M46.6944 101.413V102.243H47.5241V100.062H46.6944V100.893H45.5139V100.062H44.6843V102.243H45.5139V101.413H46.6944Z" fill="#E23726"/>
<path d="M43.1124 104.536V105.366H43.942V103.186H43.1124V104.016H41.9319V103.186H41.1023V105.366H41.9319V104.536H43.1124Z" fill="#E23726"/>
<path d="M46.6944 97.7868V96.9561H47.5241V99.1369H46.6944V98.3061H45.5139V99.1369H44.6843V96.9561H45.5139V97.7868H46.6944Z" fill="#E23726"/>
<path d="M28.9074 101.413V102.243H28.0779V100.062H28.9074V100.893H30.088V100.062H30.9176V102.243H30.088V101.413H28.9074Z" fill="#E23726"/>
<path d="M28.9074 97.7868V96.9561H28.0779V99.1369H28.9074V98.3061H30.088V99.1369H30.9176V96.9561H30.088V97.7868H28.9074Z" fill="#E23726"/>
<path d="M43.1124 94.6639V93.833H43.942V96.014H43.1124V95.1831H41.9319V96.014H41.1023V93.833H41.9319V94.6639H43.1124Z" fill="#E23726"/>
<path d="M32.4895 104.536V105.366H31.6599V103.186H32.4895V104.016H33.67V103.186H34.4997V105.366H33.67V104.536H32.4895Z" fill="#E23726"/>
<path d="M32.4895 94.6639V93.833H31.6599V96.014H32.4895V95.1831H33.67V96.014H34.4997V93.833H33.67V94.6639H32.4895Z" fill="#E23726"/>
<path d="M44.7154 94.5972V96.1545H47.6076L44.7154 94.5972ZM27.9994 103.051L30.8914 104.608V103.051H27.9994Z" fill="#FDD406"/>
<path d="M30.8912 94.5972L27.9993 96.1545H30.8912V94.5972ZM44.7153 103.051V104.608L47.6075 103.051H44.7153Z" fill="white"/>
<path d="M51.3804 106.165C51.2205 106.846 50.6787 107.361 50.5496 108.067C50.2911 107.33 50.0528 106.713 50.2308 105.907C50.3581 105.33 50.8431 104.919 50.8993 104.326C51.4281 104.802 51.542 105.476 51.3804 106.165ZM51.5144 109.02C51.0659 109.635 50.4423 110.107 49.7538 110.421C49.8894 109.883 49.635 109.477 49.3526 109.049C49.0124 108.535 48.8466 108.029 49.1239 107.436C49.2531 107.744 49.4268 108 49.6305 108.264C49.9319 108.675 50.13 109.04 50.1764 109.568C50.5249 109.309 50.678 108.924 50.8644 108.551C51.1484 108.016 51.6068 107.569 52.1334 107.277C51.9935 107.877 51.8857 108.511 51.5144 109.02ZM48.9987 110.853C49.0946 111.195 49.1773 111.533 49.1588 111.89C49.4552 111.571 49.8488 111.331 50.1999 111.073C50.6781 110.687 51.2355 110.414 51.6265 109.921C51.5682 110.646 51.258 111.237 50.669 111.678C50.0465 112.144 49.2956 112.395 48.6824 112.884C48.7742 112.225 48.5321 111.697 48.3255 111.091C48.1535 110.512 48.32 109.924 48.7126 109.483C48.7068 109.972 48.8611 110.392 48.9987 110.853ZM47.6016 113.08C47.4726 113.58 47.1143 113.987 46.8696 114.433C47.5293 114.228 48.1115 113.87 48.7079 113.534C49.4183 113.147 50.1896 112.901 50.8327 112.39C50.5127 113.575 49.7195 114.262 48.5591 114.612C47.7656 114.851 47.097 114.732 46.1342 115.121C46.2446 114.469 46.4391 113.766 46.7473 113.178C46.9865 112.753 47.2517 112.334 47.3994 111.866C47.6133 112.25 47.7146 112.642 47.6016 113.08ZM45.1739 114.893C44.9467 115.282 44.6468 115.61 44.2749 115.868C45.2115 115.928 45.9653 115.334 46.8783 115.308C47.4423 115.292 47.9778 115.467 48.5529 115.415C47.8704 115.875 47.1558 116.278 46.3248 116.385C45.2445 116.525 44.2483 116.253 43.0566 116.359C43.6135 115.966 43.8921 115.44 44.2393 114.875C44.6913 114.168 45.1179 113.665 45.9972 113.551C45.6443 113.948 45.4388 114.439 45.1739 114.893ZM41.8476 116.447C43.4976 116.728 45.0787 117.091 46.7639 117.108C44.8776 117.765 43.1003 117.884 41.2295 117.205C40.2185 116.838 39.4433 116.642 38.6797 116.696C37.5638 116.777 36.2077 117.217 34.7069 118.8L34.1169 118.328C36.268 116.411 39.0825 115.977 41.8475 116.447L41.8476 116.447Z" fill="#FDD406"/>
<path d="M24.2293 106.165C24.3892 106.846 24.931 107.361 25.0601 108.067C25.3186 107.33 25.5569 106.713 25.3789 105.907C25.2516 105.33 24.7666 104.919 24.7104 104.326C24.1816 104.802 24.0677 105.476 24.2293 106.165ZM24.0953 109.02C24.5438 109.635 25.1674 110.107 25.8559 110.421C25.7203 109.883 25.9747 109.477 26.2571 109.049C26.5973 108.535 26.7631 108.029 26.4858 107.436C26.3566 107.744 26.1829 108 25.9792 108.264C25.6778 108.675 25.4797 109.04 25.4333 109.568C25.0848 109.309 24.9317 108.924 24.7453 108.551C24.4613 108.016 24.0029 107.569 23.4763 107.277C23.6162 107.877 23.724 108.511 24.0953 109.02ZM26.611 110.853C26.5151 111.195 26.4324 111.533 26.4509 111.89C26.1545 111.571 25.7609 111.331 25.4098 111.073C24.9316 110.687 24.3742 110.414 23.9832 109.921C24.0415 110.646 24.3517 111.237 24.9407 111.678C25.5632 112.144 26.3141 112.395 26.9273 112.884C26.8355 112.225 27.0776 111.697 27.2842 111.091C27.4562 110.512 27.2897 109.924 26.897 109.483C26.9029 109.972 26.7486 110.392 26.611 110.853ZM28.0081 113.08C28.1371 113.58 28.4954 113.987 28.7401 114.433C28.0804 114.228 27.4982 113.87 26.9018 113.534C26.1914 113.147 25.4201 112.901 24.777 112.39C25.097 113.575 25.8902 114.262 27.0506 114.612C27.8441 114.851 28.5127 114.732 29.4755 115.121C29.3651 114.469 29.1706 113.766 28.8624 113.178C28.6232 112.753 28.358 112.334 28.2103 111.866C27.9964 112.25 27.8951 112.642 28.0081 113.08ZM30.4358 114.893C30.663 115.282 30.9629 115.61 31.3348 115.868C30.3982 115.928 29.6444 115.334 28.7314 115.308C28.1674 115.292 27.6319 115.467 27.0567 115.415C27.7393 115.875 28.4539 116.278 29.2849 116.385C30.3651 116.525 31.3614 116.253 32.5531 116.359C31.9962 115.966 31.7176 115.44 31.3704 114.875C30.9184 114.168 30.4917 113.665 29.6125 113.551C29.9654 113.948 30.1709 114.439 30.4358 114.893ZM33.7621 116.447C32.1121 116.728 30.531 117.091 28.8458 117.108C30.7321 117.765 32.5094 117.884 34.3802 117.205C35.3912 116.838 36.1664 116.642 36.93 116.696C38.0459 116.777 39.402 117.217 40.9028 118.8L41.4928 118.328C39.3417 116.411 36.5272 115.977 33.7622 116.447L33.7621 116.447Z" fill="#FDD406"/>
</svg>
