<svg width="241" height="120" viewBox="0 0 241 120" fill="none" xmlns="http://www.w3.org/2000/svg">
<g clip-path="url(#clip0_307_31030)">
<path d="M0.164062 0H240.164V120H0.164062V0Z" fill="#D91C16"/>
<path d="M120.164 90C136.733 90 150.164 76.5685 150.164 60C150.164 43.4315 136.733 30 120.164 30C103.596 30 90.1641 43.4315 90.1641 60C90.1641 76.5685 103.596 90 120.164 90Z" fill="white"/>
<path d="M120.164 82.5C127.641 82.5 134.266 78.8532 138.357 73.2413C135.15 76.1956 130.868 78 126.164 78C116.223 78 108.164 69.9411 108.164 60C108.164 50.0589 116.223 42 126.164 42C130.868 42 135.15 43.8044 138.357 46.7587C134.266 41.1468 127.641 37.5 120.164 37.5C107.738 37.5 97.6641 47.5736 97.6641 60C97.6641 72.4264 107.738 82.5 120.164 82.5Z" fill="#D91C16"/>
<path d="M121.994 56.9685L112.664 60L121.994 63.0317V72.84L127.758 64.9048L137.084 67.935L131.321 60.0006L137.086 52.065L127.758 55.0957L121.994 47.16V56.9685Z" fill="#D91C16"/>
</g>
<defs>
<clipPath id="clip0_307_31030">
<rect width="240" height="120" fill="white" transform="translate(0.164062)"/>
</clipPath>
</defs>
</svg>
