<svg width="240" height="120" viewBox="0 0 240 120" fill="none" xmlns="http://www.w3.org/2000/svg">
<g clip-path="url(#clip0_909_103052)">
<path d="M-1.52588e-05 0H240V120H-1.52588e-05V0Z" fill="#D91C16"/>
<path d="M103.87 56.6329L93.5056 60L103.87 63.3671V74.266L110.277 65.4486L120.642 68.816L114.236 60L120.642 51.184L110.277 54.5514L103.87 45.734V56.6329Z" fill="white"/>
<path d="M80.6365 88.053C86.7145 85.7496 91.88 81.5345 95.3556 76.042C92.1099 79.6537 87.845 82.1959 83.1242 83.3328C78.4034 84.4698 73.4488 84.148 68.9147 82.4101C64.3806 80.6721 60.4803 77.5996 57.729 73.5985C54.9777 69.5974 53.5047 64.8558 53.5047 60C53.5047 55.1442 54.9777 50.4026 57.729 46.4015C60.4803 42.4004 64.3806 39.3279 68.9147 37.5899C73.4488 35.852 78.4034 35.5302 83.1242 36.6672C87.845 37.8041 92.1099 40.3463 95.3556 43.958C91.88 38.4655 86.7145 34.2504 80.6365 31.947C74.5585 29.6436 67.8968 29.3764 61.6539 31.1858C55.411 32.9951 49.9246 36.7831 46.0203 41.9796C42.116 47.1762 40.005 53.5002 40.005 60C40.005 66.4998 42.116 72.8238 46.0203 78.0204C49.9246 83.2169 55.411 87.0049 61.6539 88.8142C67.8968 90.6236 74.5585 90.3564 80.6365 88.053Z" fill="white"/>
</g>
<defs>
<clipPath id="clip0_909_103052">
<rect width="240" height="120" fill="white"/>
</clipPath>
</defs>
</svg>
