<svg width="240" height="120" viewBox="0 0 240 120" fill="none" xmlns="http://www.w3.org/2000/svg">
<path d="M0 0H240V120H0V0Z" fill="#54AEF2"/>
<path d="M223 5.48535L225.361 12.7508H233L226.82 17.241L229.18 24.5066L223 20.0162L216.82 24.5066L219.18 17.241L213 12.7508H220.639L223 5.48535Z" fill="#FDD406"/>
<path d="M202 45.5146L199.639 38.2492H192L198.18 33.7589L195.82 26.4934L202 30.9837L208.18 26.4934L205.82 33.7589L212 38.2492H204.361L202 45.5146Z" fill="#FDD406"/>
<path d="M181 53.5146L178.639 46.2492H171L177.18 41.7589L174.82 34.4934L181 38.9837L187.18 34.4934L184.82 41.7589L191 46.2492H183.361L181 53.5146Z" fill="#FDD406"/>
<path d="M156 87.5146L153.639 80.2492H146L152.18 75.7589L149.82 68.4934L156 72.9837L162.18 68.4934L159.82 75.7589L166 80.2492H158.361L156 87.5146Z" fill="#FDD406"/>
<path d="M131 97.4854L133.361 104.751H141L134.82 109.241L137.18 116.507L131 112.016L124.82 116.507L127.18 109.241L121 104.751H128.639L131 97.4854Z" fill="#FDD406"/>
<path d="M153.639 105.249L156 112.515L158.361 105.249H166L159.82 100.759L162.18 93.4934L156 97.9837L149.82 93.4934L152.18 100.759L146 105.249H153.639Z" fill="#FDD406"/>
<path d="M178.639 98.2492L181 105.515L183.361 98.2492H191L184.82 93.7589L187.18 86.4934L181 90.9837L174.82 86.4934L177.18 93.7589L171 98.2492H178.639Z" fill="#FDD406"/>
<path d="M204.361 73.7508L202 66.4854L199.639 73.7508H192L198.18 78.241L195.82 85.5066L202 81.0162L208.18 85.5066L205.82 78.241L212 73.7508H204.361Z" fill="#FDD406"/>
<path d="M225.361 60.7508L223 53.4854L220.639 60.7508H213L219.18 65.241L216.82 72.5066L223 68.0162L229.18 72.5066L226.82 65.241L233 60.7508H225.361Z" fill="#FDD406"/>
<path d="M0 0H120V60H0V0Z" fill="#021455"/>
<path d="M14.0625 0L59.8125 22.625L105.375 0H120V7.75L75 30.125L120 52.375V60H105L60 37.625L15.1875 60H0V52.5L44.8125 30.25L0 8V0H14.0625Z" fill="white"/>
<path d="M79.5 35.125L120 55V60L69.1875 35.125H79.5ZM45 37.625L46.125 42L10.125 60H0L45 37.625ZM120 0V0.375L73.3125 23.875L73.6875 18.375L110.625 0H120ZM0 0L44.8125 22H33.5625L0 5.25V0Z" fill="#E23726"/>
<path d="M45.1875 0V60H75.1875V0H45.1875ZM0 20V40H120V20H0Z" fill="white"/>
<path d="M0 36.125V24.125H51.1875V0H69.1875V24.125H120V36.125H69.1875V60H51.1875V36.125H0Z" fill="#E23726"/>
</svg>
