<svg width="240" height="120" viewBox="0 0 240 120" fill="none" xmlns="http://www.w3.org/2000/svg">
<g clip-path="url(#clip0_909_309711)">
<path d="M0 0H240V120H0V0Z" fill="black"/>
<path d="M0 20H240V50H0V20ZM0 80H240V120H0V80Z" fill="#FDD406"/>
<path d="M0 40H240V60H0V40ZM0 100H240V120H0V100Z" fill="#D91C16"/>
<path d="M119.7 78.7001C130.028 78.7001 138.4 70.3278 138.4 60C138.4 49.6723 130.028 41.3 119.7 41.3C109.373 41.3 101 49.6723 101 60C101 70.3278 109.373 78.7001 119.7 78.7001Z" fill="white"/>
<path d="M114.233 45.6781L113.021 43.4441C113.489 42.976 114.276 42.6143 115.531 42.6143C115.531 42.6994 115.404 45.0611 115.404 45.0611L114.233 45.6781Z" fill="#D91C16"/>
<path d="M115.404 45.0825L115.574 42.6144C115.574 42.6144 118.085 42.4655 119.446 44.1037C119.467 44.0824 118.106 46.0186 118.106 46.0186L115.404 45.0825Z" fill="#FDD406"/>
<path d="M118.148 45.9971L119.382 44.0823C120.212 44.9546 120.553 45.5716 120.68 46.5079C120.701 46.5291 118.723 46.9972 118.723 46.9759C118.723 46.9546 118.17 46.0184 118.148 45.9971Z" fill="#D91C16"/>
<path fill-rule="evenodd" clip-rule="evenodd" d="M119.546 44.1103C119.546 44.1086 119.546 44.1068 119.547 44.1053C119.545 44.0919 119.533 44.0674 119.516 44.0454L119.523 44.0397C118.822 43.1962 117.829 42.8166 117.02 42.6468C116.615 42.5616 116.253 42.5285 115.992 42.5167C115.862 42.5108 115.756 42.5102 115.683 42.5111C115.647 42.5115 115.618 42.5123 115.599 42.5131C115.589 42.5134 115.581 42.5137 115.576 42.514L115.571 42.5143H115.531C114.256 42.5143 113.441 42.8821 112.95 43.3734L112.897 43.4262L114.193 45.8127L115.387 45.1827L118.112 46.1265C118.126 46.1494 118.143 46.1768 118.162 46.2077C118.216 46.2984 118.287 46.4178 118.357 46.5373C118.428 46.6568 118.497 46.7761 118.549 46.8667C118.575 46.9121 118.597 46.9499 118.611 46.9767C118.619 46.9903 118.624 47.0003 118.627 47.0068L118.628 47.007C118.64 47.0454 118.672 47.0631 118.682 47.0677C118.697 47.0743 118.71 47.0757 118.714 47.0761C118.724 47.0771 118.732 47.0765 118.736 47.0763C118.744 47.0757 118.753 47.0745 118.761 47.0732C118.777 47.0706 118.8 47.0664 118.827 47.0609C118.883 47.0499 118.961 47.0331 119.053 47.0124C119.239 46.9711 119.486 46.9138 119.733 46.8552C119.979 46.7966 120.225 46.7367 120.408 46.6899C120.5 46.6666 120.576 46.6464 120.63 46.6312C120.656 46.6237 120.678 46.617 120.694 46.6115C120.702 46.609 120.711 46.6055 120.72 46.6012L120.72 46.6011C120.723 46.5997 120.734 46.5943 120.745 46.5847C120.75 46.5808 120.766 46.5664 120.775 46.5411C120.78 46.5274 120.782 46.5096 120.779 46.4898C120.652 45.565 120.319 44.9421 119.546 44.1103ZM115.667 42.7113L115.509 45.013L118.067 45.8993L118.236 45.6588C118.277 45.6009 118.322 45.5369 118.37 45.4687L119.277 44.0612C118.623 43.3399 117.73 43.0002 116.979 42.8425C116.586 42.7601 116.236 42.728 115.983 42.7165C115.857 42.7108 115.755 42.7102 115.686 42.7111L115.667 42.7113ZM118.536 45.5804C118.637 45.436 118.752 45.2731 118.866 45.1105C119.035 44.8698 119.203 44.6297 119.328 44.4511C119.371 44.3893 119.409 44.3348 119.44 44.2902C120.142 45.0546 120.445 45.6244 120.569 46.4404C120.519 46.4546 120.447 46.4737 120.359 46.4961C120.177 46.5425 119.932 46.6022 119.686 46.6606C119.441 46.7191 119.195 46.7761 119.01 46.8172C118.918 46.8378 118.841 46.8542 118.788 46.8648L118.779 46.8666C118.764 46.8398 118.745 46.8059 118.723 46.7673C118.67 46.6757 118.6 46.5557 118.53 46.4358C118.459 46.3159 118.388 46.196 118.333 46.1045C118.307 46.0616 118.285 46.0248 118.267 45.9971L118.536 45.5804ZM113.145 43.4632L114.274 45.5436L115.307 44.9991L115.324 44.6854C115.336 44.4627 115.352 44.1648 115.368 43.8643C115.384 43.5638 115.399 43.2607 115.411 43.0274C115.417 42.9107 115.422 42.8116 115.426 42.739L115.427 42.7151C114.3 42.7338 113.583 43.0552 113.145 43.4632ZM118.817 46.9417C118.816 46.9401 118.816 46.9385 118.815 46.937C118.82 46.948 118.823 46.9609 118.823 46.976C118.823 46.9574 118.817 46.9426 118.817 46.9417Z" fill="black"/>
<path d="M114.85 77.6145C114.85 77.6145 117.17 74.9549 121.68 75.5294C120.999 74.423 118.808 74.5507 118.808 74.5507C118.808 74.5507 118.127 69.3804 118.659 69.1251C119.191 68.8697 121.446 69.1463 121.446 69.1463C121.744 69.1463 122.255 68.3378 121.851 67.8272C121.446 67.3165 120.255 65.3591 120.744 64.976C121.234 64.5931 123.893 65.1888 123.893 65.1888L116.382 55.5717C116.382 55.5717 115.616 51.9547 117.148 50.21C118.999 48.678 118.808 47.0184 118.744 47.0397C118.489 45.3588 115.936 44.1459 114.212 45.6993C113.191 46.9333 113.872 47.8695 113.872 47.8695C113.872 47.8695 111.191 48.5929 111.084 49.0609C110.978 49.5291 114.106 48.976 114.106 48.976L113.808 51.1249C113.808 51.1249 107.723 56.6568 112.382 61.4441C112.425 61.4228 112.531 61.2313 112.531 61.2313C112.531 61.2313 114.17 63.2527 115.893 63.6994C117.51 65.3591 117.361 65.1037 117.361 65.1037C117.361 65.1037 117.68 67.7208 117.382 68.2314C116.978 68.1037 112.85 67.9549 112.233 68.1888C111.68 68.3591 109.552 68.2527 110.084 71.7209C110.489 70.7847 110.85 69.9549 110.85 69.9549C110.85 69.9549 110.786 71.2101 111.297 71.6571C111.212 70.3378 111.787 69.4443 111.787 69.4443C111.787 69.4443 111.893 70.8911 112.212 71.1037C112.531 71.3165 112.531 68.7633 114.297 68.9761C116.063 69.1889 117.34 69.1251 117.34 69.1251C117.34 69.1251 117.936 74.125 117.744 74.5932C116.467 74.2953 113.425 74.7209 113.233 75.4869C115.021 75.3805 115.85 75.5931 115.85 75.5931C115.85 75.5931 114.404 76.8699 114.85 77.6145Z" fill="black"/>
<path fill-rule="evenodd" clip-rule="evenodd" d="M115.494 50.2656L115.663 50.3593C115.546 50.7716 115.402 51.179 115.26 51.582C115.228 51.6722 115.197 51.7623 115.165 51.8521C114.994 52.3447 114.833 52.8327 114.729 53.3272C114.522 54.3122 114.54 55.3207 115.155 56.4247L115.245 56.587L115.06 56.5716L114.965 56.5638C114.908 56.5591 114.83 56.5529 114.749 56.5467C114.641 56.5384 114.531 56.5304 114.455 56.5258L114.456 56.5296C114.469 56.5985 114.495 56.6937 114.526 56.7929C114.557 56.8911 114.591 56.9897 114.617 57.0639C114.63 57.101 114.642 57.1319 114.65 57.1534C114.653 57.1642 114.657 57.1727 114.659 57.1784L114.661 57.1849L114.662 57.1865L114.719 57.3391L114.558 57.3201C114.418 57.3037 114.277 57.2871 114.136 57.2706L113.898 57.2426L113.983 57.4014C114.041 57.5084 114.099 57.6155 114.157 57.7241L114.263 57.9214L113.623 57.7614C113.638 57.8077 113.655 57.8606 113.671 57.9168C113.72 58.0866 113.773 58.3035 113.77 58.4569C113.771 58.4598 113.771 58.463 113.772 58.4662C113.774 58.486 113.772 58.5265 113.736 58.5569C113.706 58.583 113.672 58.5824 113.661 58.5816C113.646 58.5807 113.635 58.5772 113.628 58.5748C113.602 58.5662 113.572 58.5484 113.546 58.5324C113.49 58.4971 113.413 58.4423 113.341 58.3881C113.301 58.3583 113.261 58.3282 113.226 58.3007L113.224 58.3371C113.214 58.482 113.199 58.6993 113.147 58.9662L113.092 59.2473L112.962 58.9923C111.984 57.0801 112.633 54.8871 113.505 53.1939C113.942 52.3442 114.439 51.6127 114.826 51.0938C115.02 50.8343 115.187 50.6277 115.305 50.4858C115.364 50.4148 115.411 50.36 115.444 50.3228C115.46 50.3042 115.473 50.2901 115.481 50.2805L115.491 50.2695L115.493 50.2667L115.494 50.2656L115.568 50.3321C115.501 50.2717 115.495 50.2661 115.494 50.2656Z" fill="#CCCCCC"/>
<path d="M117.106 46.1462C117.106 46.1462 117.34 47.8271 116.425 48.3165C116.276 48.4229 115.702 48.6144 115.787 48.9549C115.893 49.4229 116.148 49.3378 116.51 49.2527C117.467 49.0824 118.574 47.0399 117.106 46.1462Z" fill="#CCCCCC"/>
<path d="M115.129 47.96C115.328 47.96 115.489 47.7988 115.489 47.6C115.489 47.4012 115.328 47.24 115.129 47.24C114.931 47.24 114.769 47.4012 114.769 47.6C114.769 47.7988 114.931 47.96 115.129 47.96Z" fill="white"/>
<path d="M114.042 48.9973C113.808 49.1888 112.574 50.4656 113.786 50.9336C115.042 50.5931 114.701 50.3592 114.978 50.0825C114.985 49.5081 114.354 49.3591 114.042 48.9973Z" fill="#D91C16"/>
<path fill-rule="evenodd" clip-rule="evenodd" d="M114.054 48.8582L114.118 48.9319C114.188 49.0131 114.278 49.0846 114.379 49.1574C114.411 49.1802 114.444 49.2035 114.479 49.2273C114.55 49.2767 114.624 49.3283 114.692 49.3815C114.897 49.5432 115.082 49.7503 115.078 50.0837L115.078 50.1244L115.049 50.1531C114.994 50.2082 114.969 50.2601 114.945 50.3216C114.942 50.3286 114.939 50.3358 114.936 50.3433C114.913 50.4015 114.885 50.4736 114.828 50.5458C114.7 50.7094 114.441 50.8595 113.813 51.03L113.781 51.0386L113.751 51.0268C113.427 50.9019 113.247 50.7144 113.185 50.4867C113.125 50.2653 113.184 50.0297 113.281 49.8196C113.476 49.3997 113.855 49.0214 113.979 48.9199L114.054 48.8582ZM113.792 50.8282C114.394 50.6623 114.588 50.5281 114.671 50.4223C114.708 50.3743 114.726 50.3293 114.75 50.2702C114.753 50.2627 114.756 50.255 114.759 50.2469C114.784 50.1852 114.815 50.1157 114.878 50.0437C114.868 49.8238 114.745 49.6777 114.568 49.5387C114.505 49.489 114.439 49.4436 114.371 49.3962C114.336 49.3716 114.3 49.3465 114.263 49.3199C114.185 49.2643 114.107 49.2044 114.036 49.1364C113.887 49.2779 113.612 49.5811 113.462 49.9038C113.374 50.0953 113.336 50.2787 113.378 50.4343C113.418 50.5782 113.531 50.7204 113.792 50.8282Z" fill="black"/>
<path d="M116.803 61.0016L116.674 60.8284L116.625 61.0389C116.622 61.0539 116.618 61.0713 116.613 61.0909C116.575 61.2491 116.503 61.5513 116.477 61.9049C116.447 62.3014 116.473 62.7739 116.675 63.1902L116.717 63.2753L116.804 63.2386C117.329 63.0183 117.703 62.9436 117.984 62.9486C118.263 62.9535 118.457 63.0363 118.626 63.1453L118.743 62.9834C117.875 62.2849 117.541 61.9929 116.803 61.0016Z" fill="#CCCCCC"/>
<path fill-rule="evenodd" clip-rule="evenodd" d="M118.602 65.8045L118.448 65.7153L118.519 68.3582L118.599 68.3726L118.599 68.3726L118.6 68.3727L118.602 68.3731L118.609 68.3743C118.615 68.3755 118.625 68.377 118.637 68.379C118.661 68.3829 118.696 68.3882 118.738 68.3941C118.824 68.406 118.942 68.4202 119.072 68.4297C119.202 68.4392 119.346 68.4441 119.483 68.4368C119.619 68.4296 119.755 68.4102 119.865 68.3673C119.945 68.3362 119.998 68.2714 120.028 68.1963C120.058 68.1225 120.07 68.0336 120.068 67.9386C120.064 67.748 120.005 67.5096 119.897 67.2584C119.68 66.7552 119.252 66.1786 118.602 65.8045ZM118.616 68.2741L118.599 68.3726C118.599 68.3726 118.599 68.3726 118.616 68.2741Z" fill="white"/>
<path d="M124.574 66.189C124.574 66.189 123.042 62.4869 119.127 61.5507C115.212 60.6145 115.723 56.4443 116.042 56.1889C116.212 55.8271 116.34 55.274 117.467 55.806C118.595 56.3379 123.787 58.9548 124.531 59.0825C125.276 59.2102 124.638 66.2742 124.574 66.189Z" fill="#CCCCCC"/>
<path fill-rule="evenodd" clip-rule="evenodd" d="M116.176 56.1347C116.162 56.1662 116.148 56.1984 116.132 56.2315L116.122 56.2525L116.104 56.2669C116.104 56.2669 116.104 56.2669 116.104 56.2669C116.104 56.2669 116.101 56.27 116.095 56.2793C116.088 56.2891 116.081 56.3032 116.072 56.3222C116.055 56.3603 116.036 56.4129 116.019 56.4796C115.984 56.6127 115.954 56.7939 115.938 57.0099C115.908 57.4417 115.936 58.0048 116.093 58.5884C116.407 59.7511 117.235 60.9953 119.15 61.4534C121.135 61.928 122.514 63.1034 123.395 64.1567C123.836 64.6836 124.153 65.1808 124.36 65.5467C124.427 65.6646 124.483 65.7689 124.527 65.8563C124.548 65.6748 124.573 65.4236 124.599 65.1238C124.656 64.4728 124.719 63.5953 124.756 62.7114C124.793 61.8267 124.805 60.9387 124.761 60.2652C124.74 59.9277 124.704 59.6492 124.653 59.4533C124.627 59.355 124.599 59.2834 124.57 59.2368C124.541 59.1889 124.52 59.182 124.514 59.1811C124.41 59.1631 124.238 59.1043 124.024 59.0199C123.806 58.9343 123.536 58.8189 123.231 58.6828C122.621 58.4106 121.866 58.0544 121.1 57.6859C120.27 57.2871 119.429 56.8747 118.742 56.5377C118.157 56.2509 117.684 56.0188 117.425 55.8964C116.868 55.6337 116.596 55.6582 116.447 55.7479C116.371 55.7941 116.314 55.8644 116.265 55.9509C116.231 56.0112 116.204 56.0717 116.176 56.1347ZM124.485 66.1509C124.485 66.1508 124.485 66.1503 124.485 66.1497C124.485 66.1509 124.485 66.1512 124.485 66.1509ZM117.51 55.7155C116.939 55.4463 116.584 55.4323 116.344 55.5766C116.227 55.6474 116.149 55.75 116.091 55.8523C116.052 55.9212 116.018 55.9977 115.988 56.0653C115.978 56.0879 115.968 56.1094 115.959 56.1294C115.93 56.1598 115.908 56.2001 115.89 56.2396C115.866 56.2911 115.845 56.3552 115.826 56.4288C115.787 56.5763 115.755 56.7701 115.739 56.9956C115.707 57.4467 115.736 58.0326 115.9 58.6405C116.23 59.8607 117.104 61.1698 119.104 61.6479C121.034 62.1095 122.379 63.2533 123.242 64.2851C123.673 64.8008 123.984 65.2876 124.186 65.6452C124.288 65.8239 124.362 65.9702 124.41 66.0714C124.435 66.122 124.453 66.1614 124.464 66.1879C124.47 66.2011 124.475 66.2112 124.478 66.2178L124.481 66.2252L124.481 66.2269L124.482 66.2272L124.486 66.2389L124.494 66.249C124.5 66.2577 124.513 66.2722 124.535 66.2815C124.559 66.292 124.586 66.2921 124.609 66.284C124.644 66.2716 124.66 66.2445 124.663 66.2398L124.663 66.2395C124.672 66.2247 124.676 66.2093 124.678 66.2036C124.682 66.1873 124.687 66.1654 124.691 66.1414C124.699 66.0918 124.709 66.0182 124.72 65.9252C124.743 65.7385 124.77 65.4679 124.799 65.1412C124.856 64.4877 124.918 63.6072 124.956 62.7198C124.993 61.8331 125.005 60.9365 124.961 60.2523C124.939 59.9109 124.903 59.6173 124.846 59.4027C124.818 59.2958 124.784 59.2026 124.74 59.1318C124.697 59.0622 124.636 58.9989 124.548 58.9839C124.467 58.97 124.313 58.9191 124.097 58.8338C123.883 58.7498 123.617 58.6357 123.313 58.5001C122.705 58.2291 121.952 57.8739 121.186 57.5057C120.361 57.1089 119.52 56.6963 118.832 56.3589C118.245 56.071 117.769 55.8378 117.51 55.7155Z" fill="black"/>
<path d="M120.85 61.5293C120.787 61.5718 126.085 64.6568 124.489 67.3165C126 66.3164 125.51 64.5719 125.51 64.5719C125.51 64.5719 126.744 67.7847 123.744 69.3592C124.063 69.6358 124.276 69.5718 124.276 69.5718L123.765 70.0826C123.765 70.0826 123.531 70.4655 125.553 69.4867C124.999 69.9336 124.957 70.2527 124.957 70.2527C124.957 70.2527 125.106 70.6783 126.425 69.5293C125.361 70.6783 125.127 71.274 125.127 71.2527C127.999 70.9974 134.255 61.657 123.148 58.8909C123.744 59.508 123.659 59.4229 123.659 59.4229L121.129 59.8999L120.85 61.5293Z" fill="#D91C16"/>
<path fill-rule="evenodd" clip-rule="evenodd" d="M122.834 58.7097L123.173 58.7939C125.963 59.4889 127.679 60.6007 128.628 61.8944C129.578 63.19 129.749 64.6547 129.478 66.0328C129.207 67.4089 128.493 68.7021 127.667 69.6676C127.254 70.1506 126.811 70.5536 126.378 70.8448C125.951 71.1322 125.527 71.3148 125.147 71.3514C125.134 71.3541 125.119 71.3547 125.101 71.3499C125.052 71.3367 125.036 71.2962 125.032 71.2835C125.027 71.2689 125.027 71.2568 125.027 71.2529V71.1614L125.065 71.158C125.072 71.1438 125.081 71.1265 125.092 71.1063C125.132 71.0331 125.196 70.9223 125.294 70.7749C125.395 70.6213 125.533 70.4282 125.717 70.1966C125.496 70.3342 125.334 70.3982 125.214 70.4203C125.095 70.4423 125.008 70.4244 124.947 70.3858C124.918 70.367 124.898 70.3453 124.884 70.3266C124.878 70.3173 124.873 70.3088 124.869 70.3019C124.868 70.2984 124.866 70.2952 124.865 70.2925C124.865 70.2912 124.864 70.2899 124.864 70.2888L124.863 70.2872L124.863 70.2865L124.863 70.2861C124.863 70.2861 124.863 70.2858 124.957 70.2528C124.858 70.2396 124.858 70.2395 124.858 70.2395L124.858 70.239L124.858 70.2382L124.858 70.2363C124.858 70.2353 124.859 70.2342 124.859 70.2329C124.859 70.2323 124.859 70.2318 124.859 70.2312C124.86 70.2271 124.861 70.2219 124.862 70.2155C124.865 70.2027 124.87 70.1852 124.878 70.1636C124.892 70.1203 124.918 70.0603 124.961 69.9867C124.99 69.9378 125.026 69.883 125.073 69.8233C124.42 70.1207 124.086 70.2274 123.915 70.2509C123.861 70.2583 123.814 70.2589 123.775 70.2495C123.733 70.2396 123.691 70.2157 123.67 70.1696C123.65 70.128 123.658 70.089 123.663 70.0697C123.666 70.0589 123.67 70.05 123.673 70.0438C123.674 70.0406 123.676 70.0378 123.677 70.0357L123.679 70.0327L123.679 70.0315L123.68 70.031L123.68 70.0308C123.68 70.0308 123.68 70.0305 123.765 70.0827L123.68 70.0305L123.686 70.0204L124.053 69.6534C123.95 69.6229 123.822 69.5593 123.679 69.4349L123.568 69.3389L123.698 69.2708C125.161 68.5029 125.588 67.3413 125.652 66.3686C125.668 66.1382 125.663 65.9183 125.646 65.7167C125.553 66.2718 125.27 66.9196 124.544 67.4L124.403 67.2652C124.782 66.6336 124.754 65.9765 124.492 65.3341C124.228 64.6882 123.728 64.0631 123.174 63.5125C122.62 62.9631 122.018 62.4937 121.558 62.1584C121.34 61.9999 121.154 61.8717 121.02 61.779C121.012 61.7737 121.004 61.7685 120.997 61.7635C120.93 61.717 120.876 61.6794 120.839 61.6528C120.822 61.6399 120.805 61.6275 120.794 61.6171C120.789 61.6128 120.779 61.6041 120.771 61.5929C120.768 61.5886 120.757 61.5738 120.752 61.5518C120.749 61.5394 120.748 61.5201 120.755 61.4983C120.762 61.477 120.776 61.4605 120.791 61.4492L121.229 60L123.51 59.4101C123.439 59.3369 123.311 59.203 123.076 58.9604L122.834 58.7097ZM123.693 59.5225L121.429 60.1L121.014 61.5318C121.041 61.5508 121.073 61.5731 121.111 61.5989C121.118 61.604 121.126 61.6092 121.133 61.6145C121.268 61.7072 121.455 61.8367 121.675 61.9967C122.14 62.335 122.751 62.8111 123.315 63.3706C123.877 63.9291 124.398 64.5766 124.677 65.2585C124.905 65.8161 124.971 66.4004 124.763 66.9749C125.236 66.5339 125.414 66.0056 125.467 65.5575C125.499 65.2868 125.485 65.0458 125.464 64.8725C125.453 64.786 125.44 64.7167 125.43 64.6694C125.425 64.6458 125.421 64.6277 125.418 64.6158C125.417 64.6126 125.417 64.6098 125.416 64.6075C125.416 64.6055 125.415 64.6038 125.415 64.6025L125.414 64.5995L125.414 64.599C125.414 64.599 125.414 64.5989 125.415 64.5986L125.603 64.5361L125.51 64.572C125.603 64.5361 125.603 64.5361 125.603 64.5361L125.604 64.5364L125.604 64.5371L125.605 64.5392L125.607 64.5468C125.61 64.5535 125.613 64.5631 125.618 64.5756C125.626 64.6006 125.639 64.6371 125.653 64.6838C125.681 64.7772 125.719 64.9117 125.754 65.0779C125.824 65.4099 125.886 65.8702 125.852 66.3818C125.786 67.378 125.355 68.5668 123.927 69.3734C124.02 69.4347 124.096 69.4607 124.149 69.4713C124.187 69.4788 124.215 69.479 124.231 69.4779C124.239 69.4773 124.245 69.4764 124.248 69.4759C124.249 69.4756 124.25 69.4755 124.25 69.4755L124.249 69.4757L124.248 69.4759L124.248 69.4759L124.248 69.4761C124.248 69.4761 124.247 69.4761 124.248 69.4766L124.347 69.6427L123.948 70.0419C124.155 69.9971 124.597 69.8386 125.509 69.3968L125.615 69.5646C125.347 69.7815 125.206 69.9641 125.134 70.0881C125.099 70.1469 125.079 70.1928 125.069 70.2234C125.086 70.2292 125.12 70.2344 125.178 70.2236C125.352 70.1917 125.701 70.0273 126.359 69.454L126.498 69.5973C125.97 70.1682 125.649 70.6001 125.461 70.8851C125.397 70.9808 125.349 71.06 125.313 71.1225C125.603 71.0578 125.928 70.9066 126.266 70.6788C126.682 70.3995 127.112 70.0093 127.515 69.5375C128.323 68.5934 129.018 67.3308 129.282 65.9941C129.545 64.6594 129.377 63.2544 128.466 62.0127C127.593 60.8214 126.026 59.7682 123.467 59.0769C123.596 59.2109 123.664 59.2822 123.7 59.3195C123.723 59.3447 123.736 59.3583 123.741 59.3646C123.742 59.3655 123.745 59.3689 123.748 59.3734C123.749 59.375 123.753 59.382 123.757 59.3917C123.758 59.3959 123.763 59.4085 123.763 59.4254C123.763 59.4432 123.758 59.4831 123.72 59.5095C123.711 59.5157 123.702 59.5198 123.693 59.5225ZM125.056 70.2674C125.056 70.2674 125.056 70.2675 125.056 70.267L125.056 70.2674ZM124.957 70.2528L124.858 70.2395L124.855 70.2633L124.863 70.2858L124.957 70.2528Z" fill="black"/>
<path d="M121.085 60.6144C121.808 61.125 122.063 61.2952 122.148 61.5506C121.489 61.4018 120.893 61.4442 120.893 61.4442C120.893 61.4442 119.467 60.0825 119.212 59.9761C119.021 59.9761 117.914 59.274 117.914 59.274C117.361 58.9973 116.851 57.0825 118.893 57.6357C120.999 58.6356 121.297 58.7208 121.297 58.7208C122.134 58.9832 122.971 59.2457 123.808 59.5081C124.29 60.0471 124.772 60.5861 125.255 61.1251C125.255 61.1251 122.68 59.8484 122.361 59.8271C123.063 60.4016 123.468 61.1888 123.468 61.1888C122.652 60.9547 121.943 60.7421 121.085 60.6144Z" fill="white"/>
<path fill-rule="evenodd" clip-rule="evenodd" d="M117.638 58.7826C117.728 58.9833 117.851 59.1303 117.959 59.1845L117.964 59.1867L117.968 59.1895L117.98 59.1972C117.988 59.2023 118 59.2098 118.015 59.2193C118.046 59.2384 118.09 59.2657 118.143 59.2985C118.249 59.3641 118.392 59.4514 118.542 59.5386C118.691 59.626 118.846 59.7126 118.974 59.777C119.038 59.8093 119.094 59.8352 119.138 59.8528C119.16 59.8617 119.179 59.8679 119.193 59.8717C119.205 59.8751 119.211 59.8758 119.212 59.876C119.212 59.876 119.212 59.876 119.212 59.876L119.232 59.876L119.251 59.8837C119.295 59.9024 119.355 59.9427 119.418 59.9896C119.483 60.0386 119.561 60.1019 119.647 60.1738C119.818 60.3176 120.021 60.4989 120.216 60.676C120.41 60.8534 120.597 61.0273 120.735 61.1568C120.804 61.2216 120.861 61.2753 120.9 61.3128C120.912 61.324 120.922 61.3338 120.931 61.342C120.948 61.3412 120.969 61.3405 120.994 61.3398C121.062 61.3381 121.159 61.3375 121.277 61.3416C121.461 61.3479 121.697 61.3659 121.953 61.4098C121.913 61.3632 121.861 61.3129 121.792 61.2547C121.646 61.1324 121.435 60.9837 121.125 60.7653C121.093 60.743 121.061 60.7199 121.027 60.696L121.099 60.5154C121.88 60.6315 122.538 60.8174 123.257 61.024C123.214 60.9549 123.16 60.8721 123.096 60.7808C122.91 60.5166 122.639 60.184 122.298 59.9044L122.056 59.7065L122.368 59.7273C122.424 59.731 122.513 59.759 122.611 59.795C122.715 59.8329 122.844 59.8853 122.987 59.9469C123.275 60.0703 123.628 60.2325 123.97 60.3936C124.289 60.5434 124.598 60.6927 124.838 60.8095C124.71 60.6658 124.581 60.5221 124.452 60.3783C124.219 60.1172 123.985 59.8561 123.752 59.5952C123.34 59.466 122.927 59.3367 122.515 59.2073C122.099 59.0769 121.683 58.9466 121.268 58.8163L121.267 58.8161L121.263 58.8147C121.259 58.8136 121.254 58.8119 121.247 58.8095C121.234 58.8048 121.213 58.7971 121.182 58.785C121.119 58.7608 121.015 58.7183 120.845 58.6449C120.507 58.4983 119.907 58.2275 118.858 57.7298C118.362 57.5967 118.041 57.6188 117.842 57.7101C117.649 57.799 117.555 57.9612 117.529 58.1566C117.503 58.3559 117.55 58.5851 117.638 58.7826ZM125.255 61.125L125.21 61.2146L125.329 61.0584C125.087 60.7873 124.844 60.5164 124.602 60.2455C124.362 59.9775 124.122 59.7095 123.882 59.4413L123.864 59.4208L123.838 59.4126C123.417 59.2806 122.996 59.1487 122.576 59.0168C122.16 58.8863 121.744 58.7559 121.327 58.6253L121.326 58.6248L121.324 58.6244C121.322 58.6238 121.319 58.6226 121.313 58.6207C121.302 58.6169 121.284 58.6101 121.254 58.5986C121.195 58.5756 121.093 58.5342 120.925 58.4613C120.588 58.3157 119.989 58.0449 118.936 57.5452L118.928 57.5414L118.919 57.539C118.399 57.3981 118.02 57.4082 117.759 57.5284C117.491 57.6517 117.364 57.8817 117.331 58.1305C117.299 58.3754 117.356 58.6422 117.455 58.8642C117.552 59.081 117.698 59.2755 117.865 59.3609L117.873 59.3663C117.882 59.3715 117.894 59.3791 117.909 59.3888C117.94 59.4081 117.984 59.4357 118.038 59.4687C118.145 59.5348 118.29 59.623 118.441 59.7113C118.592 59.7994 118.75 59.8884 118.884 59.9556C118.95 59.9892 119.012 60.0181 119.065 60.0388C119.104 60.0542 119.147 60.0691 119.186 60.0742C119.208 60.086 119.245 60.1103 119.298 60.1497C119.359 60.1955 119.434 60.2561 119.518 60.3268C119.686 60.4682 119.887 60.6474 120.081 60.8239C120.275 61.0003 120.46 61.1735 120.598 61.3026C120.667 61.3671 120.723 61.4206 120.762 61.4579C120.782 61.4766 120.798 61.4913 120.808 61.5012L120.824 61.5164L120.856 61.547L120.9 61.5439L120.9 61.5438L120.901 61.5438L120.906 61.5435C120.91 61.5432 120.916 61.5429 120.925 61.5425C120.942 61.5416 120.967 61.5406 120.999 61.5398C121.063 61.5382 121.156 61.5375 121.27 61.5414C121.497 61.5493 121.804 61.5754 122.126 61.6481L122.299 61.6871L122.243 61.5189C122.192 61.3656 122.091 61.2446 121.92 61.1015C121.814 61.0129 121.677 60.9118 121.501 60.7865C122.114 60.9034 122.668 61.0628 123.278 61.2383C123.332 61.2537 123.386 61.2692 123.44 61.2849L123.662 61.3486L123.557 61.143L123.468 61.1887C123.557 61.143 123.557 61.1431 123.557 61.143L123.556 61.1422L123.555 61.1402L123.551 61.1329C123.548 61.1266 123.543 61.1174 123.537 61.1057C123.524 61.0822 123.505 61.0483 123.48 61.0059C123.43 60.9212 123.356 60.8026 123.259 60.6658C123.135 60.4886 122.972 60.2797 122.775 60.0742C122.817 60.0919 122.862 60.1108 122.909 60.1308C123.193 60.2527 123.544 60.4137 123.885 60.5745C124.226 60.7352 124.558 60.8952 124.804 61.0151C124.927 61.0751 125.028 61.125 125.099 61.1599C125.135 61.1773 125.163 61.191 125.181 61.2004L125.21 61.2146C125.21 61.2146 125.21 61.2146 125.255 61.125Z" fill="black"/>
<path d="M111.331 49.2282C111.375 49.2179 111.423 49.2066 111.476 49.1944C111.712 49.14 112.029 49.0683 112.355 48.9994C112.682 48.9303 113.016 48.8642 113.287 48.8208C113.423 48.799 113.541 48.7831 113.633 48.7753C113.679 48.7714 113.718 48.7696 113.748 48.7699C113.78 48.7701 113.796 48.7728 113.802 48.7743L113.857 48.582C113.825 48.5729 113.787 48.5702 113.75 48.5699C113.711 48.5695 113.666 48.5718 113.616 48.576C113.517 48.5845 113.393 48.6012 113.255 48.6233C112.98 48.6675 112.641 48.7344 112.314 48.8037C111.986 48.873 111.667 48.945 111.431 48.9996C111.313 49.0269 111.215 49.0498 111.147 49.066C111.121 49.0722 111.099 49.0774 111.082 49.0814C111.08 49.1581 111.174 49.2042 111.331 49.2282Z" fill="white"/>
</g>
<defs>
<clipPath id="clip0_909_309711">
<rect width="240" height="120" fill="white"/>
</clipPath>
</defs>
</svg>
