<svg width="240" height="120" viewBox="0 0 240 120" fill="none" xmlns="http://www.w3.org/2000/svg">
<path d="M0 0H240V120H0V0Z" fill="white"/>
<path d="M240 13.5H66.666V26.7857H240V13.5Z" fill="#0F3296"/>
<path d="M240 40.0714H66.666V53.3571H240V40.0714Z" fill="#0F3296"/>
<path d="M0 66.6429H240V79.9286H0V66.6429Z" fill="#0F3296"/>
<path d="M240 93.2143H0V106.5H240V93.2143Z" fill="#0F3296"/>
<path d="M31.8238 39.8521L34.0307 43.1474C24.9623 49.71 30.4987 53.5908 24.0723 55.6914C28.0692 51.7907 23.5439 51.1891 26.9116 43.059" fill="#FDD406"/>
<path d="M34.3313 43.2012L31.884 39.5469L31.5186 39.7916L31.5877 39.8948L30.2773 40.805L30.0581 40.672C27.5898 44.7401 27.1181 47.9192 26.7596 50.3353L26.7348 50.502C26.553 51.7238 26.3927 52.7143 26.012 53.5329C25.85 53.8812 25.6472 54.1998 25.3824 54.4905C25.6619 54.0649 25.8386 53.6655 25.9413 53.2706C26.1441 52.4911 26.0506 51.7541 25.946 50.9334L25.9432 50.9114C25.8386 50.0907 25.7197 49.1576 25.8283 47.9335C25.9378 46.6983 26.28 45.1581 27.1147 43.1431L27.1988 42.9399L26.7924 42.7715L26.7083 42.9747C25.8592 45.0247 25.5042 46.6086 25.3901 47.8947C25.2774 49.1662 25.4013 50.1383 25.5061 50.9606L25.5097 50.989C25.6159 51.8225 25.6937 52.4754 25.5156 53.1598C25.339 53.8389 24.9019 54.5743 23.9186 55.5339L23.2422 56.194L24.1405 55.9004C25.7755 55.3659 26.6825 54.7071 27.245 53.893C27.7363 53.1821 27.9515 52.3663 28.1836 51.4866C28.2129 51.3753 28.2425 51.263 28.273 51.1498C28.5472 50.1315 28.8989 48.9914 29.737 47.7003C30.576 46.4081 31.9095 44.9538 34.1595 43.3256L34.3313 43.2012Z" fill="#784B26"/>
<path d="M27.6567 36.8755L26.8871 40.7662C15.8343 38.9944 17.005 45.6532 10.9755 42.5945C16.56 42.6626 13.9117 38.9878 22.0418 35.6202" fill="#FDD406"/>
<path d="M27.9151 36.7022L27.0616 41.0168L26.8521 40.9832C24.1098 40.5436 22.1385 40.6289 20.6315 40.9495C19.126 41.2697 18.071 41.8272 17.1572 42.3534C17.0557 42.4118 16.9554 42.4702 16.856 42.5281L16.8558 42.5283C16.0696 42.9862 15.3406 43.4109 14.4905 43.5663C13.5171 43.7441 12.4099 43.5687 10.8758 42.7904L10.0327 42.3627L10.978 42.3743C12.3511 42.391 13.1887 42.1772 13.8062 41.8168C14.4288 41.4534 14.8515 40.9293 15.3813 40.2591L15.4074 40.226C15.9283 39.5669 16.5423 38.7901 17.5273 37.9708C18.5289 37.1378 19.9075 36.2659 21.9575 35.4167L22.1607 35.3325L22.3291 35.739L22.1259 35.8232C20.1108 36.6579 18.7717 37.5082 17.8087 38.3091C16.8592 39.0989 16.2689 39.8456 15.7487 40.5038L15.7265 40.5319C15.2041 41.1928 14.7335 41.7851 14.028 42.1968C13.4908 42.5103 12.8307 42.7126 11.9274 42.7851C12.2942 42.9301 12.6285 43.0316 12.9372 43.0967C13.3074 43.0648 13.6728 42.9833 14.0235 42.8533C14.9483 42.5163 15.801 41.894 16.7894 41.1623C16.8358 41.1279 16.8825 41.0933 16.9295 41.0584C18.8848 39.6086 21.3968 37.7459 25.9334 36.6341L25.9155 36.5622L27.4399 36.8369L27.4835 36.6168L27.9151 36.7022Z" fill="#784B26"/>
<path d="M33.3332 33.3334L30.2219 30.2222L16.2212 50.4454L36.4444 36.4447L33.3332 33.3334L16.2212 50.4454L33.3332 33.3334Z" fill="#FDD406"/>
<path fill-rule="evenodd" clip-rule="evenodd" d="M30.1913 29.8804L36.7865 36.4756L15.3521 51.3148L30.1913 29.8804ZM30.253 30.5641L17.7906 48.5653L33.0224 33.3335L30.253 30.5641ZM33.3334 33.6445L18.1016 48.8763L36.1028 36.4139L33.3334 33.6445Z" fill="#784B26"/>
<path d="M26.8145 31.8239L23.5192 34.0308C16.9566 24.9625 13.0759 30.4988 10.9752 24.0724C14.8759 28.0694 15.5149 23.5516 23.645 26.9192" fill="#FDD406"/>
<path d="M23.4656 34.3317L27.12 31.8843L26.8752 31.5187L26.6888 31.6436L25.8052 30.3715L25.7669 30.435C21.7729 28.0133 18.6796 27.5541 16.2718 27.1967L16.0992 27.1711C14.883 26.9896 13.84 26.8266 12.9477 26.411C12.6078 26.2549 12.2917 26.0542 12.0075 25.815C11.8352 25.5507 11.6707 25.2428 11.5139 24.8811C12.2015 25.4668 12.8065 25.788 13.4021 25.9428C14.1849 26.1462 14.9263 26.0537 15.7517 25.9501L15.7761 25.947C16.601 25.8434 17.5382 25.7257 18.7648 25.8349C20.0035 25.9451 21.5461 26.2878 23.5611 27.1224L23.7643 27.2066L23.9327 26.8001L23.7295 26.7159C21.6794 25.8668 20.0933 25.5113 18.8038 25.3966C17.53 25.2833 16.554 25.4059 15.7277 25.5097L15.6969 25.5135C14.8588 25.6188 14.201 25.6958 13.5128 25.517C12.8301 25.3395 12.0923 24.9019 11.1329 23.9188L10.4727 23.2422L10.7664 24.1408C11.3008 25.7758 11.9597 26.6828 12.7738 27.2453C13.4847 27.7366 14.3005 27.9518 15.1803 28.1839C15.2915 28.2132 15.4038 28.2428 15.517 28.2733C16.5353 28.5475 17.6754 28.8992 18.9665 29.7374C20.2587 30.5763 21.713 31.9098 23.3412 34.1598L23.4656 34.3317Z" fill="#784B26"/>
<path d="M33.333 33.3333V28.9333L9.13301 33.3333L33.333 37.7333V33.3333H9.13301H33.333Z" fill="#FDD406"/>
<path fill-rule="evenodd" clip-rule="evenodd" d="M7.90332 33.3333L33.5532 37.9969V28.6697L7.90332 33.3333ZM11.573 33.1133L33.1132 29.1969V33.1133H11.573Z" fill="#784B26"/>
<path d="M29.7913 27.6568L25.9006 26.8871C27.6725 15.8344 21.0136 17.0051 24.0724 10.9756C24.0043 16.56 27.8676 14.3583 31.2353 22.4885" fill="#FDD406"/>
<path d="M29.9643 27.9153L25.6497 27.0618L25.6833 26.8523C26.1229 24.11 26.0376 22.1387 25.717 20.6318C25.3968 19.1262 24.8393 18.0713 24.3131 17.1574C24.2546 17.0558 24.1962 16.9555 24.1383 16.8561C23.6803 16.0698 23.2556 15.3408 23.1003 14.4907C22.9224 13.5173 23.0978 12.4101 23.8761 10.8761L24.3038 10.033L24.2922 10.9783C24.2755 12.3488 24.5002 13.216 24.88 13.8776C25.2631 14.5451 25.8146 15.0244 26.5073 15.6093L26.5708 15.663C27.9545 16.8309 29.7615 18.356 31.4384 22.4043L31.5226 22.6076L31.1161 22.7759L31.0319 22.5727C29.3957 18.6225 27.6496 17.1491 26.2944 16.0055L26.2234 15.9455C25.5378 15.3666 24.9257 14.8411 24.4984 14.0967C24.1717 13.5275 23.9589 12.8424 23.8827 11.9242C23.737 12.2923 23.6351 12.6277 23.5699 12.9373C23.6017 13.3075 23.6833 13.673 23.8133 14.0238C24.1503 14.9486 24.7726 15.8013 25.5042 16.7897C25.5386 16.8361 25.5733 16.8828 25.6081 16.9298C27.058 18.8851 28.9206 21.3971 30.0324 25.9337L30.1044 25.9158L29.8297 27.4402L30.0497 27.4837L29.9643 27.9153Z" fill="#784B26"/>
<path d="M33.3331 33.3334L36.4443 30.2222L16.2211 16.2215L30.2218 36.4447L33.3331 33.3334L16.2211 16.2215L33.3331 33.3334Z" fill="#FDD406"/>
<path fill-rule="evenodd" clip-rule="evenodd" d="M30.1911 36.7866L36.7864 30.1913L15.3516 15.3518L30.1911 36.7866ZM18.102 17.7911L36.1025 30.253L33.3332 33.0223L18.102 17.7911Z" fill="#784B26"/>
<path d="M34.843 26.8148L32.6361 23.5194C41.7044 16.9569 36.1681 13.0761 42.5944 10.9755C38.5975 14.8762 43.0997 15.5194 39.732 23.6496" fill="#FDD406"/>
<path d="M34.7823 27.12L32.335 23.4656L32.5068 23.3412C34.7568 21.713 36.0903 20.2587 36.9293 18.9665C37.7674 17.6754 38.1192 16.5353 38.3933 15.517C38.4238 15.4038 38.4534 15.2915 38.4828 15.1803C38.7148 14.3005 38.9301 13.4847 39.4213 12.7738C39.9838 11.9597 40.8908 11.3008 42.5258 10.7664L43.4244 10.4727L42.7479 11.1329C41.7647 12.0924 41.326 12.8306 41.1471 13.5138C40.9668 14.2026 41.0421 14.8611 41.1453 15.6996L41.1495 15.7333C41.2513 16.5595 41.3715 17.5351 41.2568 18.8076C41.1406 20.0975 40.7842 21.6838 39.935 23.7338L39.8509 23.937L39.4443 23.7686L39.5285 23.5654C40.3632 21.5503 40.7069 20.0074 40.8186 18.7681C40.929 17.5425 40.8136 16.6055 40.712 15.7808L40.7086 15.7534C40.6069 14.9273 40.5165 14.1854 40.7215 13.4024C40.8774 12.8067 41.1994 12.2016 41.7854 11.514C41.4238 11.6707 41.1159 11.8353 40.8517 12.0075C40.6125 12.2917 40.4117 12.6078 40.2557 12.9477C39.8401 13.84 39.6771 14.8829 39.4956 16.0992C39.4871 16.1563 39.4786 16.2138 39.47 16.2717C39.1126 18.6796 38.6534 21.7729 36.2317 25.7669L36.2952 25.8051L35.0231 26.6888L35.1479 26.8752L34.7823 27.12Z" fill="#784B26"/>
<path d="M33.3334 33.3335H37.7334L33.3334 9.1335L28.9334 33.3335H33.3334V9.1335V33.3335Z" fill="#FDD406"/>
<path fill-rule="evenodd" clip-rule="evenodd" d="M33.333 7.90356L28.6694 33.5534H37.9966L33.333 7.90356ZM33.553 11.5732L37.4694 33.1134H33.553V11.5732Z" fill="#784B26"/>
<path d="M39.0097 29.7915L39.7793 25.9008C50.8321 27.6726 49.6614 21.0137 55.6909 24.0725C50.1064 24.0044 52.5943 27.6976 44.4642 31.0652" fill="#FDD406"/>
<path d="M38.7515 29.9646L39.605 25.65L39.8145 25.6835C42.5568 26.1231 44.5281 26.0378 46.035 25.7173C47.5406 25.397 48.5955 24.8395 49.5094 24.3134C49.611 24.2549 49.7113 24.1964 49.8108 24.1385C50.597 23.6805 51.326 23.2558 52.1761 23.1005C53.1495 22.9226 54.2567 23.0981 55.7907 23.8763L56.6338 24.304L55.6885 24.2925C54.316 24.2758 53.4673 24.4905 52.8338 24.8537C52.1951 25.2198 51.7523 25.7478 51.2028 26.4197L51.1617 26.47C50.6245 27.1272 49.9934 27.8992 49.0029 28.7123C47.9868 29.5465 46.5986 30.4193 44.5487 31.2684L44.3455 31.3526L44.1771 30.9461L44.3803 30.8619C46.3955 30.0272 47.7452 29.1756 48.7237 28.3723C49.6801 27.5871 50.288 26.8436 50.8248 26.1869L50.8622 26.1412C51.4051 25.4774 51.8954 24.8844 52.615 24.4719C53.1632 24.1577 53.8316 23.9545 54.7393 23.8817C54.3724 23.7366 54.0381 23.6352 53.7293 23.5701C53.3592 23.6019 52.9937 23.6835 52.643 23.8135C51.7182 24.1505 50.8655 24.7728 49.8771 25.5045C49.8307 25.5388 49.784 25.5735 49.737 25.6083C47.7817 27.0582 45.2697 28.9208 40.7331 30.0326L40.751 30.1046L39.2266 29.8299L39.1831 30.05L38.7515 29.9646Z" fill="#784B26"/>
<path d="M33.3331 33.3333L36.4443 36.4446L50.445 16.2213L30.2218 30.222L33.3331 33.3333L50.445 16.2213L33.3331 33.3333Z" fill="#FDD406"/>
<path fill-rule="evenodd" clip-rule="evenodd" d="M51.3147 15.3518L29.8799 30.1913L36.4752 36.7866L51.3147 15.3518ZM48.8754 18.1022L36.4135 36.1027L33.6442 33.3334L48.8754 18.1022Z" fill="#784B26"/>
<path d="M39.8515 34.8429L43.1469 32.636C49.7095 41.7044 53.5902 36.168 55.6909 42.5944C51.7902 38.5974 51.058 43.07 42.9279 39.7024" fill="#FDD406"/>
<path d="M39.5464 34.7826L43.2008 32.3352L43.3252 32.5071C44.9535 34.757 46.4077 36.0906 47.7 36.9295C48.991 37.7677 50.1312 38.1194 51.1494 38.3935C51.2626 38.424 51.3749 38.4536 51.4861 38.483C52.3659 38.7151 53.1817 38.9303 53.8927 39.4216C54.7067 39.9841 55.3656 40.891 55.9 42.5261L56.1938 43.4247L55.5335 42.7481C54.5744 41.7654 53.8306 41.3244 53.1385 41.1427C52.4407 40.9595 51.7705 41.0314 50.9211 41.1309L50.8794 41.1358C50.0441 41.2337 49.0599 41.3491 47.7834 41.232C46.4855 41.113 44.8938 40.7548 42.8437 39.9057L42.6405 39.8215L42.8088 39.415L43.0121 39.4992C45.0271 40.3338 46.5757 40.6794 47.8236 40.7938C49.0541 40.9067 50.0003 40.7958 50.8344 40.6981L50.8699 40.6939C51.7074 40.5958 52.4597 40.5095 53.2503 40.7171C53.8524 40.8752 54.4625 41.1989 55.1528 41.7864C54.9959 41.4244 54.8313 41.1163 54.6589 40.8519C54.3747 40.6127 54.0586 40.412 53.7187 40.2559C52.8265 39.8403 51.7835 39.6773 50.5672 39.4958C50.5101 39.4873 50.4526 39.4788 50.3947 39.4702C47.9869 39.1128 44.8935 38.6536 40.8995 36.2319L40.8613 36.2954L39.9776 35.0233L39.7912 35.1482L39.5464 34.7826Z" fill="#784B26"/>
<path d="M33.333 33.3334V37.7334L57.533 33.3334L33.333 28.9334V33.3334H57.533H33.333Z" fill="#FDD406"/>
<path fill-rule="evenodd" clip-rule="evenodd" d="M58.7631 33.3335L33.1133 28.6699V37.9971L58.7631 33.3335ZM55.0934 33.5535L33.5533 37.4699V33.5535H55.0934Z" fill="#784B26"/>
<path d="M36.8754 39.01L40.7661 39.7797C38.9943 50.8325 45.6531 49.6618 42.5944 55.6913C42.6625 50.1068 38.9856 52.6932 35.618 44.5631" fill="#FDD406"/>
<path d="M36.7023 38.7515L41.0169 39.605L40.9833 39.8145C40.5437 42.5568 40.629 44.5281 40.9496 46.035C41.2698 47.5406 41.8273 48.5955 42.3535 49.5094C42.412 49.611 42.4705 49.7113 42.5284 49.8108C42.9864 50.597 43.411 51.326 43.5664 52.1761C43.7442 53.1495 43.5688 54.2567 42.7906 55.7907L42.3629 56.6338L42.3744 55.6885C42.3911 54.3156 42.1772 53.4737 41.8162 52.85C41.4522 52.2212 40.9272 51.7908 40.257 51.2534L40.2169 51.2213C39.5592 50.6941 38.7851 50.0735 37.9688 49.0866C37.1358 48.0794 36.2639 46.6972 35.4148 44.6472L35.3306 44.4439L35.7371 44.2756L35.8213 44.4788C36.6559 46.4939 37.5065 47.8372 38.3079 48.8062C39.0953 49.7582 39.84 50.3552 40.4969 50.8818L40.5322 50.9101C41.1936 51.4404 41.7855 51.9186 42.197 52.6296C42.5104 53.171 42.7127 53.8342 42.7853 54.7391C42.9303 54.3723 43.0317 54.0381 43.0968 53.7293C43.0649 53.3592 42.9834 52.9937 42.8534 52.643C42.5164 51.7182 41.8941 50.8655 41.1624 49.8771C41.128 49.8307 41.0934 49.784 41.0585 49.737C39.6087 47.7817 37.746 45.2697 36.6343 40.7331L36.5623 40.751L36.837 39.2266L36.6169 39.1831L36.7023 38.7515Z" fill="#784B26"/>
<path d="M33.3334 33.3333L30.2222 36.4446L50.4454 50.4453L36.4447 30.222L33.3334 33.3333L50.4454 50.4453L33.3334 33.3333Z" fill="#FDD406"/>
<path fill-rule="evenodd" clip-rule="evenodd" d="M36.4752 29.8801L29.8799 36.4755L51.3147 51.315L36.4752 29.8801ZM48.5643 48.8757L30.5638 36.4138L33.3331 33.6445L48.5643 48.8757Z" fill="#784B26"/>
<path d="M33.3331 33.3335H28.9331L33.3331 57.5335L37.7331 33.3335H33.3331V57.5335V33.3335Z" fill="#FDD406"/>
<path fill-rule="evenodd" clip-rule="evenodd" d="M33.333 58.7629L37.9965 33.1135H28.6694L33.333 58.7629ZM33.113 55.0944L29.1965 33.5534H33.113V55.0944Z" fill="#784B26"/>
<path d="M33.3332 33.3335L16.2212 50.4455L36.4444 36.4448" fill="#784B26"/>
<path d="M33.3332 41.3998C37.7882 41.3998 41.3998 37.7882 41.3998 33.3332C41.3998 28.8781 37.7882 25.2666 33.3332 25.2666C28.8781 25.2666 25.2666 28.8781 25.2666 33.3332C25.2666 37.7882 28.8781 41.3998 33.3332 41.3998Z" fill="#FDD406"/>
<path fill-rule="evenodd" clip-rule="evenodd" d="M33.3329 25.4865C28.9993 25.4865 25.4863 28.9996 25.4863 33.3331C25.4863 37.6667 28.9993 41.1798 33.3329 41.1798C37.6665 41.1798 41.1796 37.6667 41.1796 33.3331C41.1796 28.9996 37.6665 25.4865 33.3329 25.4865ZM25.0464 33.3331C25.0464 28.7566 28.7564 25.0466 33.3329 25.0466C37.9094 25.0466 41.6194 28.7566 41.6194 33.3331C41.6194 37.9097 37.9094 41.6197 33.3329 41.6197C28.7564 41.6197 25.0464 37.9097 25.0464 33.3331Z" fill="#784B26"/>
<path d="M27.3931 30.1068C27.6443 30.394 27.8429 30.2946 28.1952 30.1183C28.5625 29.9344 29.0971 29.6668 30.0331 29.6668C31.2163 29.6668 31.758 30.125 32.0723 30.3908C32.245 30.5368 32.349 30.6248 32.4531 30.5468C32.7464 30.3268 30.9131 29.0068 30.3264 28.9335C29.7397 28.8601 28.0531 29.4468 27.3931 30.1068Z" fill="#784B26"/>
<path fill-rule="evenodd" clip-rule="evenodd" d="M28.7842 31.6949C28.6531 31.4614 28.7087 31.2233 28.8316 31.0351C28.6955 31.1033 28.5743 31.1764 28.4622 31.244C28.2302 31.3839 28.0374 31.5001 27.8331 31.5001C27.96 31.4367 28.093 31.3183 28.2462 31.182C28.6241 30.8457 29.1248 30.4001 29.9597 30.4001C31.1331 30.4001 31.8664 30.5468 31.9397 31.4268L31.9397 31.5001C31.5495 31.1454 31.3481 30.9622 31.1112 30.8677C31.0979 30.8624 31.0844 30.8573 31.0708 30.8525C31.2271 31.3176 30.7088 31.8871 30.2571 32.0868C30.6469 32.0854 30.9338 31.8785 31.1593 31.716C31.3987 31.5433 31.5689 31.4206 31.7197 31.6468C31.9397 31.9401 30.8397 32.3801 30.0331 32.3801C29.2264 32.3801 27.9797 31.1335 28.4931 31.5001C28.5918 31.5706 28.6878 31.6357 28.7842 31.6949ZM29.6365 32.0337C29.312 31.7716 29.1366 31.1641 29.4713 30.8128C29.31 30.8443 29.1657 30.89 29.0345 30.9431C28.8991 31.1641 28.7811 31.4861 28.9454 31.7876C29.1555 31.9001 29.3755 31.9839 29.6365 32.0337Z" fill="#784B26"/>
<path d="M38.471 30.1183C38.8232 30.2946 39.0218 30.394 39.2731 30.1068C38.6131 29.4468 36.9264 28.8601 36.3397 28.9335C35.7531 29.0068 33.9197 30.3268 34.2131 30.5468C34.3171 30.6248 34.4211 30.5368 34.5938 30.3908C34.9081 30.125 35.4498 29.6668 36.6331 29.6668C37.569 29.6668 38.1036 29.9344 38.471 30.1183Z" fill="#784B26"/>
<path fill-rule="evenodd" clip-rule="evenodd" d="M34.7264 31.5001C35.1386 31.1254 35.3402 30.9422 35.5953 30.8526C35.439 31.3176 35.9574 31.8871 36.4091 32.0868C36.0192 32.0854 35.7324 31.8785 35.5069 31.716C35.2675 31.5433 35.0973 31.4206 34.9464 31.6468C34.7264 31.9401 35.8264 32.3801 36.6331 32.3801C37.4398 32.3801 38.6864 31.1335 38.1731 31.5001C38.0744 31.5706 37.9784 31.6357 37.882 31.6948C38.0131 31.4614 37.9575 31.2233 37.8346 31.0351C37.9707 31.1033 38.0919 31.1764 38.204 31.244C38.436 31.3839 38.6287 31.5001 38.8331 31.5001C38.7062 31.4367 38.5732 31.3183 38.42 31.182C38.0421 30.8457 37.5414 30.4001 36.7064 30.4001C35.5331 30.4001 34.7998 30.5468 34.7264 31.4268V31.5001ZM37.6316 30.9431C37.7671 31.1641 37.8851 31.4861 37.7208 31.7876C37.5106 31.9001 37.2906 31.9839 37.0296 32.0337C37.3541 31.7716 37.5295 31.1641 37.1949 30.8128C37.3561 30.8443 37.5005 30.89 37.6316 30.9431Z" fill="#784B26"/>
<path d="M32.1598 33.8469C31.8233 33.9216 31.7155 34.2061 31.613 34.4766C31.5143 34.7369 31.4206 34.9843 31.133 35.0202C30.5463 35.0936 30.2531 35.7535 30.3264 35.6802C30.6931 35.3869 31.4998 35.1668 32.0865 35.1668C32.3896 35.1668 32.5752 35.2647 32.7547 35.3594C32.9226 35.4479 33.085 35.5336 33.3331 35.5336C33.5812 35.5336 33.7437 35.4479 33.9115 35.3594C34.091 35.2647 34.2767 35.1668 34.5798 35.1668C35.1664 35.1668 35.9732 35.3869 36.3398 35.6802C36.4132 35.7535 36.1199 35.0936 35.5333 35.0202C35.2457 34.9843 35.1519 34.7369 35.0533 34.4766C34.9507 34.2061 34.8429 33.9216 34.5065 33.8469C34.5065 33.9864 34.5562 34.0429 34.6163 34.1112C34.6824 34.1865 34.7612 34.2761 34.7996 34.5068C34.7996 34.8735 34.1398 34.8735 33.9931 34.5068C34.1398 35.0935 33.6998 35.0935 33.3331 35.0935C32.9665 35.0935 32.5265 35.0935 32.6732 34.5068C32.5265 34.8735 31.8666 34.8735 31.8666 34.5068C31.9051 34.2761 31.9838 34.1865 32.05 34.1112C32.11 34.0429 32.1598 33.9864 32.1598 33.8469Z" fill="#784B26"/>
<path fill-rule="evenodd" clip-rule="evenodd" d="M29.8863 36.3402C29.2996 36.7802 29.1531 37.0002 29.0798 37.5135C29.2556 37.2057 29.342 37.0792 29.4755 36.8982C30.2498 37.2315 30.7355 37.4931 31.1076 37.6935L31.1078 37.6937C31.8425 38.0895 32.1345 38.2468 33.333 38.2468C34.5316 38.2468 34.8236 38.0895 35.5583 37.6937C35.9304 37.4932 36.4161 37.2316 37.1906 36.8982C37.3241 37.0792 37.4106 37.2057 37.5865 37.5135C37.5131 37.0001 37.3666 36.7801 36.7799 36.3401C36.952 36.5767 37.0383 36.6927 37.1094 36.7882L37.1096 36.7885C37.1307 36.8169 37.1506 36.8436 37.1709 36.871C37.073 36.8847 36.9789 36.8995 36.8893 36.9153C36.4355 36.9169 35.8968 36.7353 35.4236 36.5758C35.0542 36.4513 34.7247 36.3402 34.5065 36.3402C34.1921 36.3402 34.004 36.3823 33.8295 36.4213C33.6783 36.4552 33.5373 36.4868 33.3331 36.4868C33.1289 36.4868 32.9879 36.4552 32.8367 36.4213C32.6622 36.3823 32.4741 36.3402 32.1597 36.3402C31.9416 36.3402 31.6121 36.4513 31.2427 36.5758C30.7694 36.7354 30.2308 36.917 29.7769 36.9153C29.6874 36.8995 29.5932 36.8847 29.4953 36.8711C29.5154 36.8439 29.535 36.8176 29.5558 36.7896L29.5569 36.7882C29.6279 36.6927 29.7142 36.5768 29.8863 36.3402ZM35.7438 37.2079C35.6558 37.2014 35.5607 37.1913 35.4514 37.1798L35.4332 37.1779C35.0329 37.1357 34.4428 37.0734 33.3331 37.0734C32.2233 37.0734 31.6333 37.1357 31.233 37.1779L31.2164 37.1796C31.1064 37.1912 31.0107 37.2013 30.9223 37.2079C30.9872 37.2289 31.0511 37.2499 31.1144 37.2707L31.1146 37.2708C31.7296 37.4733 32.2976 37.6603 33.333 37.6603C34.3685 37.6603 34.9363 37.4733 35.5514 37.2708C35.6148 37.25 35.6788 37.2289 35.7438 37.2079Z" fill="#784B26"/>
<path d="M33.3331 38.9068C32.9664 38.9068 32.0131 39.1268 33.3331 39.1268C34.6531 39.1268 33.6997 38.9068 33.3331 38.9068Z" fill="#784B26"/>
</svg>
