<svg width="240" height="120" viewBox="0 0 240 120" fill="none" xmlns="http://www.w3.org/2000/svg">
<g clip-path="url(#clip0_307_30518)">
<path d="M240 0H0V60H240V0Z" fill="#D91C16"/>
<path d="M240 60H7.62939e-06V120H240V60Z" fill="#1E9A1C"/>
<path d="M0 0L93 60L0 120V0Z" fill="black"/>
<path d="M240 49.5H0V70.5H240V49.5Z" fill="black"/>
<path d="M0 8.5L80 60L0 111.5V8.5Z" fill="#FDD406"/>
<path d="M240 57H0V63H240V57Z" fill="#FDD406"/>
<path d="M0 15.5L69 60L0 104.5V15.5Z" fill="black"/>
<path d="M20.9295 69.9107C20.9295 69.9107 20.9295 73.6545 20.9295 75.8142C26.0654 75.8142 36.1447 71.8786 36.1447 59.2074C36.1447 46.5361 25.3934 44.1842 22.1775 44.1842C18.9618 44.1842 9.02631 46.4881 9.02631 56.8555C9.02631 67.2228 18.7698 68.1828 20.6896 68.1828C22.6094 68.1828 29.809 66.4548 28.9932 58.6793C28.9932 60.8872 26.4973 65.543 21.2655 65.543C16.0338 65.543 12.7701 61.6551 12.7701 57.8155C12.7701 53.9755 15.9378 48.8398 21.4574 48.8398C26.9771 48.8398 31.0088 53.7354 31.0088 58.6793C31.0088 63.623 27.1212 69.9107 20.9295 69.9107Z" fill="#FDD406"/>
<path d="M16.4299 62.2251L16.7358 62.4231C16.7358 62.4231 19.1657 56.8795 25.6993 52.9377C24.8713 53.3876 20.4976 55.5655 16.4299 62.2251Z" fill="#FDD406"/>
<path fill-rule="evenodd" clip-rule="evenodd" d="M25.5536 52.9129C25.5921 52.8923 25.6263 52.874 25.6559 52.8579L25.7463 53.0155C22.4914 54.9792 20.2587 57.3419 18.8399 59.2135C18.1306 60.1492 17.6248 60.9619 17.2967 61.5402C17.1326 61.8293 17.0129 62.0598 16.9344 62.2176C16.8951 62.2966 16.8662 62.3574 16.8471 62.3983C16.8376 62.4187 16.8305 62.4342 16.8258 62.4445L16.8207 62.456L16.8194 62.4588L16.8192 62.4594L16.7762 62.5574L16.3062 62.2533L16.3523 62.1777C20.287 55.7361 24.5098 53.4725 25.5536 52.9129ZM16.6972 62.2898C16.716 62.2502 16.7407 62.1989 16.7716 62.1367C16.8515 61.976 16.9727 61.7426 17.1386 61.4504C17.4312 60.9348 17.8628 60.236 18.4514 59.4309C17.8215 60.2521 17.1841 61.1707 16.5537 62.197L16.6972 62.2898Z" fill="#FDD406"/>
<path d="M17.0598 61.2711C17.0598 61.2711 16.3039 59.7233 16.9698 59.0394C17.6358 58.3554 17.3299 60.8572 17.3299 60.8572L17.6179 60.4433C17.6179 60.4433 17.1678 58.5533 17.6718 58.1574C18.1757 57.7615 17.9238 59.9752 17.9238 59.9752L18.2297 59.5793C18.2297 59.5793 17.9058 57.7435 18.3917 57.4014C18.8778 57.0594 18.5718 59.1294 18.5718 59.1294L18.9318 58.7153C18.9318 58.7153 18.6618 56.9695 19.2557 56.5555C19.8498 56.1414 19.3277 58.2114 19.3277 58.2114L19.7236 57.7795C19.7236 57.7795 19.5436 56.1774 20.0477 55.8175C20.5516 55.4576 20.1197 57.3294 20.1197 57.3294L20.4796 56.9515C20.4796 56.9515 20.3717 55.4576 20.8576 55.1156C21.3436 54.7735 20.8936 56.5375 20.8936 56.5375L21.2717 56.1774C21.2717 56.1774 21.1817 54.6835 21.7936 54.3956C22.4054 54.1077 21.6856 55.7995 21.6856 55.7995L22.0995 55.4396C22.0995 55.4396 22.2255 53.6937 22.7475 53.5316C23.2694 53.3696 22.5136 55.0797 22.5136 55.0797L22.8915 54.7735C22.8915 54.7735 23.0895 53.2796 23.6654 53.0997C24.2414 52.9197 23.3054 54.4676 23.3054 54.4676L23.6834 54.1796C23.6834 54.1796 24.0975 52.6858 24.6373 52.5238C25.1774 52.3618 24.0795 53.9277 24.0795 53.9277L24.4394 53.6758C24.4394 53.6758 25.0333 52.3257 25.5194 52.2357C26.0053 52.1457 24.9793 53.3516 24.9793 53.3516L25.4294 53.0817C25.4294 53.0817 26.2032 51.6778 26.4733 52.1097C26.7433 52.5418 25.3934 53.1717 25.3934 53.1717L24.9433 53.4236C24.9433 53.4236 26.5813 52.6498 26.7793 53.0457C26.9772 53.4416 24.5294 53.6937 24.5294 53.6937L24.1334 53.9637C24.1334 53.9637 25.7713 53.5136 25.5733 53.9277C25.3754 54.3416 23.7555 54.2516 23.7555 54.2516L23.3774 54.5216C23.3774 54.5216 25.0153 54.1257 24.7993 54.5036C24.5834 54.8815 22.9815 54.8455 22.9815 54.8455L22.5856 55.1696C22.5856 55.1696 24.1874 54.7555 23.9535 55.2416C23.7193 55.7275 21.9015 55.7095 21.9015 55.7095L21.4516 56.1234C21.4516 56.1234 23.1435 55.5476 22.9995 55.9975C22.8555 56.4476 20.9295 56.6815 20.9295 56.6815L20.4976 57.1134C20.4976 57.1134 22.3155 56.5015 21.7756 57.0594C21.2357 57.6175 19.9218 57.7615 19.9218 57.7615L19.3997 58.3913C19.3997 58.3913 21.1997 57.3114 20.9475 57.9234C20.6956 58.5353 18.9318 58.9494 18.9318 58.9494L18.5718 59.3813C18.5718 59.3813 20.1917 58.4453 20.0297 58.9674C19.8678 59.4893 18.1397 60.0472 18.1397 60.0472L17.8518 60.4433C17.8518 60.4433 19.7596 59.3093 19.5976 59.8852C19.4357 60.4613 17.6179 60.8752 17.6179 60.8752L17.3839 61.2351C17.3839 61.2351 19.1477 60.2273 19.1657 60.7132C19.1837 61.1992 17.0958 61.6852 17.0958 61.6852L17.0598 61.2711Z" fill="#FDD406"/>
<path d="M26.7995 62.2251L26.4935 62.4231C26.4935 62.4231 24.0636 56.8795 17.5301 52.9377C18.3581 53.3876 22.7317 55.5655 26.7995 62.2251Z" fill="#FDD406"/>
<path fill-rule="evenodd" clip-rule="evenodd" d="M17.6757 52.9129C17.6373 52.8923 17.6031 52.874 17.5734 52.8579L17.4831 53.0155C20.738 54.9792 22.9707 57.3419 24.3895 59.2135C25.0988 60.1492 25.6046 60.9619 25.9327 61.5402C26.0968 61.8293 26.2165 62.0598 26.295 62.2176C26.3342 62.2966 26.3632 62.3574 26.3823 62.3983C26.3918 62.4187 26.3989 62.4342 26.4035 62.4445L26.4087 62.456L26.4099 62.4588L26.4102 62.4594L26.4532 62.5574L26.9232 62.2533L26.877 62.1777C22.9424 55.7361 18.7196 53.4725 17.6757 52.9129ZM26.5321 62.2898C26.5134 62.2502 26.4887 62.1989 26.4577 62.1367C26.3778 61.976 26.2566 61.7426 26.0908 61.4504C25.7982 60.9348 25.3666 60.236 24.778 59.4309C25.4079 60.2521 26.0452 61.1707 26.6756 62.197L26.5321 62.2898Z" fill="#FDD406"/>
<path d="M26.1696 61.2711C26.1696 61.2711 26.9254 59.7233 26.2596 59.0394C25.5935 58.3554 25.8995 60.8572 25.8995 60.8572L25.6115 60.4433C25.6115 60.4433 26.0616 58.5533 25.5575 58.1574C25.0536 57.7615 25.3056 59.9752 25.3056 59.9752L24.9996 59.5793C24.9996 59.5793 25.3236 57.7435 24.8377 57.4014C24.3516 57.0594 24.6575 59.1294 24.6575 59.1294L24.2976 58.7153C24.2976 58.7153 24.5675 56.9694 23.9737 56.5555C23.3796 56.1414 23.9017 58.2114 23.9017 58.2114L23.5058 57.7795C23.5058 57.7795 23.6857 56.1774 23.1816 55.8175C22.6777 55.4576 23.1097 57.3294 23.1097 57.3294L22.7497 56.9515C22.7497 56.9515 22.8577 55.4576 22.3718 55.1156C21.8857 54.7735 22.3358 56.5375 22.3358 56.5375L21.9577 56.1774C21.9577 56.1774 22.0477 54.6835 21.4358 54.3956C20.8239 54.1077 21.5438 55.7995 21.5438 55.7995L21.1299 55.4396C21.1299 55.4396 21.0039 53.6937 20.4818 53.5316C19.9599 53.3696 20.7158 55.0796 20.7158 55.0796L20.3378 54.7735C20.3378 54.7735 20.1399 53.2796 19.564 53.0997C18.9879 52.9197 19.9239 54.4676 19.9239 54.4676L19.546 54.1796C19.546 54.1796 19.1319 52.6858 18.592 52.5238C18.0519 52.3618 19.1499 53.9277 19.1499 53.9277L18.79 53.6757C18.79 53.6757 18.1961 52.3257 17.71 52.2357C17.2241 52.1457 18.2501 53.3516 18.2501 53.3516L17.8 53.0817C17.8 53.0817 17.0262 51.6778 16.756 52.1097C16.4861 52.5418 17.836 53.1717 17.836 53.1717L18.2861 53.4236C18.2861 53.4236 16.648 52.6498 16.4501 53.0457C16.2521 53.4416 18.7 53.6937 18.7 53.6937L19.0959 53.9637C19.0959 53.9637 17.4581 53.5136 17.656 53.9277C17.854 54.3416 19.4738 54.2516 19.4738 54.2516L19.8519 54.5216C19.8519 54.5216 18.2141 54.1257 18.4301 54.5036C18.646 54.8815 20.2479 54.8455 20.2479 54.8455L20.6438 55.1696C20.6438 55.1696 19.0419 54.7555 19.2759 55.2416C19.51 55.7275 21.3278 55.7095 21.3278 55.7095L21.7777 56.1234C21.7777 56.1234 20.0859 55.5476 20.2299 55.9975C20.3738 56.4476 22.2998 56.6815 22.2998 56.6815L22.7317 57.1134C22.7317 57.1134 20.9139 56.5015 21.4538 57.0594C21.9937 57.6175 23.3076 57.7615 23.3076 57.7615L23.8297 58.3913C23.8297 58.3913 22.0297 57.3114 22.2818 57.9234C22.5338 58.5353 24.2976 58.9494 24.2976 58.9494L24.6575 59.3813C24.6575 59.3813 23.0377 58.4453 23.1996 58.9674C23.3616 59.4893 25.0896 60.0472 25.0896 60.0472L25.3776 60.4433C25.3776 60.4433 23.4698 59.3093 23.6317 59.8852C23.7937 60.4613 25.6115 60.8752 25.6115 60.8752L25.8455 61.2351C25.8455 61.2351 24.0816 60.2273 24.0636 60.7132C24.0456 61.1991 26.1336 61.6852 26.1336 61.6852L26.1696 61.2711Z" fill="#FDD406"/>
</g>
<defs>
<clipPath id="clip0_307_30518">
<rect width="240" height="120" fill="white"/>
</clipPath>
</defs>
</svg>
