<svg width="240" height="120" viewBox="0 0 240 120" fill="none" xmlns="http://www.w3.org/2000/svg">
<g clip-path="url(#clip0_324_30597)">
<path d="M0 0H240V120H0V0Z" fill="#0F3296"/>
<path d="M119.746 38.0271C120.449 38.8475 120.92 39.6671 120.92 40.6641C120.329 40.9559 119.514 41.0751 119.043 41.6023C121.974 41.1912 122.557 44.5891 125.839 43.2997C125.958 43.7702 126.429 44.1809 127.012 44.0034L127.364 43.0676C128.65 42.7161 128.299 44.8244 129.71 44.4135C130.413 45.0002 129.943 45.9948 130.413 46.7007C130.413 47.5195 130.765 48.2224 131.116 48.9251C131.468 48.5172 131.7 47.9305 132.522 48.1063C133.105 48.7495 133.576 49.3362 133.695 50.0389C133.457 51.388 133.105 52.5583 134.511 53.2609V53.6718C135.452 54.0828 137.56 53.2609 137.56 54.9018C137.441 55.4885 138.144 54.9615 138.382 55.3127C138.966 55.0774 139.788 55.1968 140.49 55.1968C141.074 56.4267 139.788 57.305 139.436 58.4188C140.02 59.0025 139.788 60.0597 139.669 60.7591L139.317 60.9349C140.252 61.1106 141.425 60.822 142.247 61.3491L143.772 61.9326C144.475 61.5249 145.291 61.4622 146.232 61.5249C146.935 62.0522 145.994 62.9305 146.583 63.3384C147.406 63.3384 148.108 63.4577 148.221 64.1606L148.34 64.3927C148.924 63.3384 150.568 64.041 151.271 63.2821C152.444 63.2821 152.676 64.5685 153.26 65.2714C153.498 67.0909 151.271 67.9131 151.973 69.7264C151.503 70.6047 150.568 71.3078 149.865 72.1296C150.097 72.2487 149.978 72.5375 149.978 72.7131C149.275 73.1275 149.865 74.3572 148.924 74.4706C148.811 75.2357 147.405 74.9409 147.87 75.7628C148.811 76.9927 147.405 77.7521 147.405 78.8689C146.815 79.5151 145.642 78.2789 145.642 79.5151C144.939 79.6907 144.237 78.8689 143.772 79.5717C143.534 80.3938 144.237 80.6823 144.124 81.5044C145.291 81.385 145.642 82.5585 146.113 83.2614L147.286 84.4346C146.113 85.3696 144.588 84.3153 143.182 84.8423C142.831 84.6667 143.182 84.2023 142.831 84.0267C142.479 83.6124 141.777 83.6124 141.193 83.4992C141.306 84.0267 140.252 84.2021 140.723 84.8421C140.723 85.0177 140.955 85.545 140.49 85.545C139.549 85.84 139.668 84.7294 138.846 85.1371C137.792 85.545 138.614 87.1264 137.089 86.9506C137.321 88.3625 134.749 89.2975 136.506 90.5275C136.738 90.7598 136.619 91.2301 136.619 91.5816C135.564 92.5228 133.694 92.1715 132.521 91.8199C131.58 91.5816 132.17 90.4081 131.818 89.7681C131.467 89.1784 130.413 88.7705 130.413 87.9484C129.709 87.6594 129.12 87.4783 128.65 86.8941C127.012 88.4755 125.017 90.0002 122.676 90.0567C121.622 90.5837 121.032 92.6986 119.394 91.8197C118.751 92.8742 116.815 91.8197 116.699 93.3386C115.937 93.6333 116.288 94.631 115.821 95.0954C115.645 96.2686 115.821 97.2663 116.815 97.9694C117.226 98.8477 115.937 98.8477 116.464 99.6699C116.583 99.9587 116.464 100.373 116.288 100.492C115.937 100.667 115.821 100.843 115.937 101.195C115.645 101.195 115.526 101.37 115.293 101.602C114.998 102.186 114.063 102.481 113.417 102.889C112.774 103.064 112.303 102.6 111.896 102.186C111.776 102.832 111.249 103.184 110.606 103.184C109.668 103.184 109.844 102.362 109.141 102.01C109.433 100.956 108.495 100.492 108.789 99.5506C109.552 98.967 110.838 98.5529 110.487 97.3232C109.668 96.3315 109.96 94.8633 109.141 93.69C108.614 93.2256 107.735 92.523 108.027 91.406C108.789 90.5277 108.027 89.4733 107.616 88.5384C107.441 87.773 106.973 87.0704 106.973 86.1916C105.684 85.4325 105.624 83.437 103.807 83.2614C102.518 83.2614 102.286 81.6235 100.996 81.7364C100.877 81.5044 100.585 81.3287 100.35 81.0964C99.4152 81.7364 98.2419 80.9208 97.0714 81.2094C96.3091 79.923 97.7146 78.166 95.6629 77.4004V76.5848C95.8982 76.6975 96.0143 76.4652 96.0738 76.3463C96.1899 75.4678 94.6085 75.3548 95.2549 74.357C94.9035 74.0622 94.4926 73.9429 94.7279 73.3593C93.8464 71.5459 91.2109 71.7217 90.6241 69.902C91.0947 69.4943 91.0947 69.08 91.2706 68.7287C90.8594 68.0259 90.7435 67.2665 90.8594 66.5074C91.2706 66.388 91.5026 65.8612 91.7379 65.4468C91.2109 65.0956 90.5675 64.5685 89.9809 64.7441C88.9268 64.5685 88.1643 63.7527 87.2263 63.2821C86.991 63.0498 87.1103 62.6359 87.1103 62.3471C88.3995 61.9328 86.9347 60.1163 88.5159 60.3518C88.927 59.8248 89.8053 59.649 90.4487 59.2381C91.0949 59.1221 91.622 59.3572 92.2652 59.533C92.7923 60.2327 93.7305 59.9409 94.2573 60.5275C94.7844 60.4083 95.4308 60.1163 96.074 60.4083C96.074 59.4137 96.5416 58.8269 97.2472 58.124C97.3634 57.7161 98.0066 57.4214 98.5337 57.1891C99.5315 57.4214 100.702 57.4214 101.408 56.7185C101.875 57.0132 102.286 56.4267 102.813 56.4267C103.456 56.3076 103.983 56.4832 104.454 56.7782C104.511 55.6047 106.562 56.6023 106.973 55.1968C107.441 54.2586 105.684 53.9074 105.8 53.0853C105.508 52.1471 106.211 51.6798 106.562 51.0366C106.973 50.8607 107.441 50.6256 107.968 50.7416C109.317 50.274 108.263 47.5195 110.431 48.5172C110.431 48.8092 110.312 49.1604 110.487 49.2201C111.25 49.2201 111.367 48.3407 111.896 48.0468C112.128 47.228 111.601 46.2303 112.304 45.5869C112.655 45.5275 112.95 45.4113 113.182 45.1163C113.182 44.4731 112.831 44.1219 112.304 43.7108C112.128 44.0036 111.661 43.7705 111.367 43.8866C111.367 43.1837 110.958 42.7163 110.839 42.0699C110.487 41.8943 110.312 41.6025 110.431 41.1914C110.958 40.6644 110.431 39.3749 111.661 39.6674C112.128 39.2588 112.95 39.5506 113.418 38.8477C114.648 38.145 116.288 38.145 117.226 36.8556C117.637 36.9151 118.105 36.5041 118.516 36.8556C118.632 37.6177 119.746 37.3228 119.746 38.0271Z" fill="#D3AE3B"/>
<path d="M111.64 17.1602L113.24 22.1402H118.48L114.24 25.2202L115.86 30.2002L111.64 27.1202L107.4 30.2002L109.02 25.2202L104.78 22.1402H110.02L111.64 17.1602Z" fill="white"/>
<path d="M128.36 17.1602L129.98 22.1402H135.22L130.98 25.2202L132.6 30.2002L128.36 27.1202L124.14 30.2002L125.76 25.2202L121.52 22.1402H126.76L128.36 17.1602Z" fill="white"/>
<path d="M144.84 20.0801L146.46 25.0401H151.7L147.46 28.1201L149.08 33.1001L144.84 30.0201L140.62 33.1001L142.24 28.1201L138 25.0401H143.24L144.84 20.0801Z" fill="white"/>
<path d="M162.18 30.7601L160.58 25.8001L158.96 30.7601H153.72L157.96 33.8401L156.34 38.8201L160.58 35.7401L164.8 38.8201L163.18 33.8401L167.42 30.7601H162.18Z" fill="white"/>
<path d="M96.7601 25.0401L95.1601 20.0801L93.5401 25.0401H88.3001L92.5401 28.1201L90.9201 33.1001L95.1601 30.0201L99.3801 33.1001L97.7601 28.1201L102 25.0401H96.7601Z" fill="white"/>
<path d="M79.4201 25.8001L81.0401 30.7601H86.2801L82.0401 33.8401L83.6601 38.8201L79.4201 35.7401L75.2001 38.8201L76.8201 33.8401L72.5801 30.7601H77.8201L79.4201 25.8001Z" fill="white"/>
</g>
<defs>
<clipPath id="clip0_324_30597">
<rect width="240" height="120" fill="white"/>
</clipPath>
</defs>
</svg>
