<svg width="400" height="400" viewBox="0 0 400 400" fill="none" xmlns="http://www.w3.org/2000/svg">
<circle cx="200" cy="200" r="200" fill="#1E2D4C"/>
<path d="M284.858 273.358C281.107 269.607 276.02 267.5 270.716 267.5H80V121.5H139.716C145.02 121.5 150.107 123.607 153.858 127.358L170.142 143.642C173.893 147.393 178.98 149.5 184.284 149.5H320V180.5H212.284C206.98 180.5 201.893 178.393 198.142 174.642L178.858 155.358C175.107 151.607 170.02 149.5 164.716 149.5H108V180.5H192.716C198.02 180.5 203.107 182.607 206.858 186.358L223.142 202.642C226.893 206.393 231.98 208.5 237.284 208.5H320V239.5H265.284C259.98 239.5 254.893 237.393 251.142 233.642L231.858 214.358C228.107 210.607 223.02 208.5 217.716 208.5H108V239.5H245.716C251.02 239.5 256.107 241.607 259.858 245.358L276.142 261.642C279.893 265.393 284.98 267.5 290.284 267.5H320V298.5H318.284C312.98 298.5 307.893 296.393 304.142 292.642L284.858 273.358Z" fill="#D7E5FE"/>
</svg>
