<?xml version="1.0" standalone="no"?>
<!DOCTYPE svg PUBLIC "-//W3C//DTD SVG 20010904//EN"
 "http://www.w3.org/TR/2001/REC-SVG-20010904/DTD/svg10.dtd">
<svg version="1.0" xmlns="http://www.w3.org/2000/svg"
 width="700.000000pt" height="700.000000pt" viewBox="0 0 700.000000 700.000000"
 preserveAspectRatio="xMidYMid meet">
<metadata>
Created by potrace 1.14, written by Peter Selinger 2001-2017
</metadata>
<g transform="translate(0.000000,700.000000) scale(0.100000,-0.100000)"
fill="#000000" stroke="none">
<path d="M3280 6994 c-19 -2 -84 -9 -145 -14 -639 -62 -1264 -315 -1795 -726
-149 -115 -481 -446 -595 -594 -410 -532 -653 -1132 -727 -1795 -17 -155 -17
-575 0 -730 75 -673 332 -1300 748 -1820 114 -143 339 -372 484 -494 537 -451
1163 -717 1885 -803 142 -17 586 -17 730 0 682 79 1268 318 1802 734 138 107
389 351 512 498 451 538 717 1162 803 1885 16 139 16 595 0 730 -77 629 -275
1158 -620 1649 -234 333 -577 668 -917 896 -460 308 -968 495 -1535 566 -117
15 -552 27 -630 18z m-685 -2157 c47 -22 95 -64 245 -211 102 -101 203 -193
225 -204 84 -42 98 -42 1340 -42 l1195 0 0 -270 0 -270 -982 2 -983 3 -59 28
c-49 22 -99 66 -270 236 -150 148 -227 217 -266 237 l-55 29 -547 3 -548 3 0
-270 0 -270 788 -3 787 -3 55 -28 c39 -20 109 -81 240 -211 146 -144 198 -189
245 -212 l60 -29 768 -3 767 -3 0 -270 0 -270 -522 3 -523 3 -59 28 c-48 22
-99 67 -275 242 -160 158 -230 220 -266 237 l-50 23 -1007 3 -1008 2 0 -270 0
-270 1218 0 c1315 0 1282 1 1371 -52 20 -12 117 -101 216 -199 128 -126 196
-186 235 -206 l55 -28 308 -3 307 -3 0 -271 0 -271 -63 5 c-113 9 -140 28
-377 263 -177 175 -228 220 -276 242 l-59 28 -1712 3 -1713 2 0 1275 0 1275
568 -2 567 -3 60 -28z"/>
</g>
</svg>
