<svg width="120" height="120" viewBox="0 0 120 120" fill="none" xmlns="http://www.w3.org/2000/svg">
<g clip-path="url(#clip0_909_101490)">
<circle cx="60" cy="60" r="60" fill="#005801"/>
<path d="M60 120C93.1371 120 120 93.1371 120 60C120 52.9873 118.797 46.2556 116.586 40H3.41411C1.20308 46.2556 0 52.9873 0 60C0 93.1371 26.8629 120 60 120Z" fill="white"/>
<path d="M116.586 80C108.349 103.304 86.1244 120 60 120C33.8756 120 11.6509 103.304 3.41412 80H116.586Z" fill="black"/>
<path d="M30 111.973C12.066 101.599 0 82.2085 0 60C0 37.7915 12.066 18.4012 30 8.02693V111.973Z" fill="#D91C16"/>
</g>
<defs>
<clipPath id="clip0_909_101490">
<rect width="120" height="120" fill="white"/>
</clipPath>
</defs>
</svg>
