<svg width="120" height="120" viewBox="0 0 120 120" fill="none" xmlns="http://www.w3.org/2000/svg">
<circle cx="60" cy="60" r="60" fill="#1E9A1C"/>
<path d="M119.392 68.5712C119.793 65.7718 120 62.9101 120 60C120 57.0898 119.793 54.2279 119.392 51.4284H0.607642C0.207196 54.2279 0 57.0898 0 60C0 62.9101 0.207177 65.7718 0.607587 68.5712H119.392Z" fill="white"/>
<path d="M114.226 85.7143H5.77401C8.82628 92.1395 12.9869 97.9361 18.0087 102.857H101.991C107.013 97.9361 111.174 92.1395 114.226 85.7143Z" fill="white"/>
<path d="M5.77405 34.2856H114.226C111.174 27.8604 107.013 22.0638 101.991 17.1428H18.0088C12.9869 22.0638 8.82634 27.8604 5.77405 34.2856Z" fill="white"/>
<path d="M0.607666 51.4284C4.76685 22.3517 29.7732 0 60 0C61.6157 0 63.2165 0.0638635 64.8 0.189204V51.4284H0.607666Z" fill="#E23726"/>
<path d="M23.9245 12.0524C24.0657 11.946 24.2074 11.8402 24.3496 11.7351L24.8853 13.384H27.1401L25.316 14.7093L26.0127 16.8537L24.1886 15.5284L22.3645 16.8537L23.0613 14.7093L21.7592 13.7633C21.9129 13.6361 22.0671 13.5097 22.222 13.384H23.4919L23.9245 12.0524Z" fill="white"/>
<path d="M14.0254 21.4449C14.5706 20.7955 15.1293 20.1578 15.701 19.5322L15.8708 20.0545H18.1254L16.3014 21.3797L16.9983 23.5242L15.1741 22.1988L13.3498 23.5242L14.0254 21.4449Z" fill="white"/>
<path d="M7.93677 30.1565C8.06762 29.9287 8.19993 29.7019 8.33368 29.476H9.25485L9.95157 27.3317L10.6483 29.476H12.9031L11.0789 30.8013L11.7757 32.9457L9.95157 31.6204L8.12747 32.9457L8.82422 30.8013L7.93677 30.1565Z" fill="white"/>
<path d="M32.9011 14.614L33.5978 12.4698L31.7737 11.1446H34.0284L34.7252 9L35.4221 11.1446H37.6764L35.8526 12.4697L36.5493 14.614L34.7252 13.2888L32.9011 14.614Z" fill="white"/>
<path d="M29.1692 28.4195C29.1692 28.4195 28.5505 28.6786 28.9743 33.6169C29.3203 37.6817 30.7685 39.0058 30.7685 39.0058L31.401 41.5219L37.4003 41.5465C37.4003 41.5465 37.5089 39.9884 37.7413 39.4957C37.987 38.9745 38.5463 38.4213 39.181 37.7934C40.0205 36.963 40.9919 36.0021 41.5441 34.8123C41.9747 34.2865 42.1384 33.5345 42.3296 32.6563C42.6014 31.4078 42.9288 29.9041 44.1574 28.4314C45.1967 27.1857 42.94 27.713 42.94 27.713C41.7024 28.5338 41.0976 29.4971 40.7856 30.1702C40.5756 31.467 39.605 32.5513 39.5134 31.6096C39.5134 31.6096 39.1608 29.9813 38.1027 26.8161C38.0826 26.6367 38.0499 26.3731 38.0093 26.0467L38.0089 26.0441C37.837 24.6623 37.5256 22.1586 37.4472 20.1569C37.3783 18.5456 35.9679 18.4486 35.8501 20.0841L35.6798 26.568L35.3426 19.0795C35.1994 16.9601 33.596 17.2743 33.5264 19.0307L33.4574 26.828L33.1653 19.2697C32.7308 17.8259 31.5893 18.6816 31.5682 20.2456L31.3736 27.6C31.3736 27.6 31.1277 23.5724 31.0723 21.8717C31.02 20.8489 29.8221 20.9244 29.7091 22.3868C29.6406 23.2756 29.5555 24.0959 29.471 24.9108C29.3544 26.0348 29.2389 27.1491 29.1692 28.4195Z" fill="white"/>
<path d="M47.0863 16.8537L45.262 15.5282L43.4377 16.8537L44.1346 14.7091L42.3107 13.384H44.5651L45.2618 11.2397L45.9587 13.384H48.2133L46.3893 14.7092L47.0863 16.8537Z" fill="white"/>
<path d="M56.1007 23.5242L54.2764 22.1988L52.4522 23.5242L53.149 21.3796L51.3251 20.0545H53.5796L54.2763 17.9102L54.9731 20.0545H57.2278L55.4038 21.3797L56.1007 23.5242Z" fill="white"/>
<path d="M61.323 32.9457L59.4988 31.6204L57.6748 32.9457L58.3715 30.8013L56.5474 29.476H58.8022L59.4989 27.3317L60.1956 29.476H62.4501L60.6262 30.8012L61.323 32.9457Z" fill="white"/>
</svg>
