<svg width="120" height="120" viewBox="0 0 120 120" fill="none" xmlns="http://www.w3.org/2000/svg">
<g clip-path="url(#clip0_409_44832)">
<circle cx="60" cy="60" r="60" fill="#021455"/>
<path d="M3.41406 40C11.6508 16.6962 33.8756 0 59.9999 0V40H3.41406Z" fill="#021455"/>
<path d="M51.8607 0.547409C54.5223 0.186438 57.2393 0 59.9999 0V5.16667L37.4999 20.0833L59.9999 34.9167V40H52.4999L29.9999 25.0833L7.5937 40H3.41406C4.71561 36.3176 6.36643 32.8002 8.32673 29.4875L22.4062 20.1667L17.9402 17.2101C20.0107 15.1746 22.2284 13.2883 24.5757 11.5685L29.9062 15.0833L51.8607 0.547409Z" fill="white"/>
<path d="M55.0032 0.205098C56.6508 0.0692646 58.3173 0 59.9999 0V0.25L36.6562 15.9167L36.8437 12.25L55.0032 0.205098Z" fill="#D91C16"/>
<path d="M20.6935 14.6667C20.9395 14.4532 21.1873 14.2416 21.4368 14.0321L22.4062 14.6667H20.6935Z" fill="#D91C16"/>
<path d="M3.41406 40C3.77659 38.9743 4.16621 37.9614 4.58207 36.9622L22.4999 25.0833L23.0624 28L5.06245 40H3.41406Z" fill="#D91C16"/>
<path d="M59.9999 36.6667L39.7499 23.4167H34.5937L59.9999 40V36.6667Z" fill="#D91C16"/>
<path d="M22.5936 13.0847C27.1075 9.48095 32.153 6.51505 37.5936 4.32349V13.3333H59.9999V26.6666H37.5936V40H22.5936V26.6666H10.1035C13.474 21.6314 17.5864 17.1349 22.2843 13.3333H22.5936V13.0847Z" fill="white"/>
<path d="M25.5942 10.8388C28.4247 8.85422 31.4344 7.10783 34.5942 5.62878V16.0834H60.0005V24.0834H34.5942V40.0001H25.5942V24.0834H11.9336C14.0871 21.206 16.4929 18.5284 19.1183 16.0834H25.5942V10.8388Z" fill="#D91C16"/>
<path d="M113.04 31.9256C112.984 61.5696 109.482 71.8654 102.528 78.8198C98.3467 82.9707 96.4932 84.5326 90.0009 88.7999C83.5087 84.5326 81.6552 82.9707 77.4738 78.8198C70.4631 71.809 66.9609 61.4022 66.9609 31.2C72.0603 33.3833 74.9662 34.4417 79.1712 34.377C82.9329 34.319 86.9186 32.5721 90.0009 31.2C93.0833 32.5721 97.069 34.3191 100.831 34.377C104.948 34.4404 107.819 33.4271 112.723 31.3358C112.83 31.5317 112.936 31.7284 113.04 31.9256Z" fill="white"/>
<path d="M72.7402 72.4111C74.0841 74.962 75.6606 77.0069 77.4737 78.8199C81.655 82.9708 83.5083 84.5327 90.0005 88.8C96.4928 84.5327 98.3466 82.9708 102.528 78.8199C104.341 77.0069 105.917 74.962 107.261 72.4111H72.7402Z" fill="#54AEF2"/>
<path fill-rule="evenodd" clip-rule="evenodd" d="M113.981 33.7772C113.694 62.3461 110.052 72.6014 103.049 79.6041C98.6935 83.9279 96.7628 85.5548 90 90C83.2372 85.5548 81.3065 83.9279 76.9509 79.6041C69.6481 72.3012 66 61.4607 66 30C71.3118 32.2743 74.3388 33.3769 78.7191 33.3094C82.6375 33.249 86.7892 31.4293 90 30C93.2108 31.4293 97.3625 33.249 101.281 33.3094C105.192 33.3696 108.024 32.4971 112.367 30.6908C112.934 31.7018 113.472 32.731 113.981 33.7772ZM79.3959 34.8042C75.2785 34.8679 72.4331 33.8269 67.44 31.68C67.44 61.3789 70.8691 71.6123 77.7338 78.5062C81.828 82.588 83.643 84.1238 90 88.32C96.357 84.1238 98.172 82.588 102.266 78.5062C109.131 71.6123 112.56 61.3789 112.56 31.68C107.567 33.8269 104.722 34.8679 100.604 34.8042C96.9208 34.7473 93.0181 33.0292 90 31.68C86.9819 33.0292 83.0792 34.7472 79.3959 34.8042Z" fill="#FDD406"/>
<path fill-rule="evenodd" clip-rule="evenodd" d="M94.5504 50.9632C93.1701 49.6109 91.4358 47.9118 90.7265 46.3213C90.2002 45.0885 93.4898 46.6084 94.5725 47.4121C95.6225 48.0949 95.9645 48.1056 96.6682 48.1275C97.1298 48.1419 97.7471 48.1611 98.8219 48.3781C102.011 49.0218 103.535 51.3047 105.015 53.5209C105.194 53.789 105.373 54.0561 105.553 54.3193C105.781 54.6342 106.212 54.8434 106.717 55.0886C107.766 55.5987 109.137 56.2646 109.672 58.3628C108.08 57.5106 106.771 57.1078 105.462 57.6939C105.3 59.3986 103.58 60.8933 101.806 62.4346C100.13 63.8914 98.4053 65.3898 97.9034 67.1465C97.8132 67.417 97.7604 67.818 97.7023 68.2602C97.5484 69.4307 97.3564 70.8902 96.3302 70.9844C95.9991 70.1572 96.1383 69.305 96.264 68.5352C96.3948 67.7342 96.5111 67.0224 96.0678 66.521C95.4295 66.3526 94.7343 66.5028 94.0218 66.6566C92.9485 66.8885 91.8361 67.1288 90.8205 66.3009C92.7591 65.3712 93.5544 65.3342 94.2307 65.3028C94.8401 65.2745 95.3529 65.2507 96.5183 64.5823C98.9777 63.2604 101.421 57.1801 98.4451 54.349C97.2186 54.0605 97.0686 54.2115 95.4965 55.7942C95.3273 55.9645 95.1418 56.1513 94.9367 56.3559C94.7983 54.2355 94.9633 54.065 95.8053 53.1955C95.9326 53.0641 96.0753 52.9167 96.2348 52.7442C95.9056 52.291 95.2771 51.6752 94.5504 50.9632ZM98.5315 49.0827C98.5315 49.3805 98.2783 49.6219 97.9659 49.6219C97.6536 49.6219 97.4004 49.3805 97.4004 49.0827C97.4004 48.785 97.6536 48.5436 97.9659 48.5436C98.2783 48.5436 98.5315 48.785 98.5315 49.0827Z" fill="#F4812F"/>
<path fill-rule="evenodd" clip-rule="evenodd" d="M84.5698 51.2295C83.9605 53.0248 83.1949 55.2804 82.0512 56.6213C81.1538 57.6409 81.0266 54.1579 81.2662 52.8698C81.409 51.6657 81.2591 51.3725 80.9507 50.769C80.7483 50.3732 80.4778 49.8439 80.1769 48.8365C79.2843 45.8479 80.6893 43.4963 82.0531 41.2134C82.2182 40.9373 82.3826 40.6621 82.5422 40.3869C82.7277 40.0474 82.7206 39.5867 82.7123 39.0469C82.6949 37.9237 82.6723 36.4575 84.3681 35.0259C84.3214 36.7661 84.5593 38.0574 85.7145 38.8873C87.3713 38.2278 89.561 38.9794 91.819 39.7545C93.9532 40.487 96.1483 41.2405 98.012 40.843C98.305 40.7926 98.7015 40.6498 99.1388 40.4922C100.296 40.0751 101.739 39.5551 102.306 40.3762C101.694 41.0417 100.838 41.3225 100.066 41.5762C99.2617 41.84 98.5473 42.0745 98.2894 42.6825C98.4314 43.2992 98.8954 43.8151 99.371 44.3438C100.087 45.1402 100.83 45.9656 100.537 47.2085C98.7687 46.0087 98.3629 45.3555 98.0178 44.8001C97.7069 44.2996 97.4453 43.8785 96.281 43.2084C93.9061 41.7528 87.1258 42.5337 85.8904 46.3648C86.1958 47.5334 86.406 47.5893 88.6082 48.1752C88.8451 48.2382 89.105 48.3073 89.3906 48.3847C87.4887 49.4919 87.2536 49.4324 86.0539 49.1288C85.8725 49.083 85.6691 49.0315 85.4346 48.9777C85.1681 49.4668 84.8906 50.2844 84.5698 51.2295ZM80.9663 48.7522C81.2424 48.6131 81.5846 48.7137 81.7305 48.977C81.8764 49.2403 81.7708 49.5665 81.4947 49.7056C81.2185 49.8447 80.8763 49.7441 80.7304 49.4808C80.5845 49.2175 80.6901 48.8913 80.9663 48.7522Z" fill="#F4812F"/>
<path fill-rule="evenodd" clip-rule="evenodd" d="M90.0919 58.7945C92.0186 58.363 94.4395 57.8209 96.2348 58.0604C97.6142 58.2653 94.5534 60.1707 93.2732 60.6415C92.1185 61.1479 91.9327 61.4219 91.5506 61.9857C91.2999 62.3555 90.9647 62.85 90.2161 63.6167C87.9951 65.8909 85.1573 65.961 82.4025 66.0291C82.0693 66.0373 81.7372 66.0455 81.4076 66.0576C81.0069 66.0819 80.597 66.326 80.1167 66.612C79.1174 67.2072 77.813 67.9841 75.6507 67.341C77.237 66.4789 78.273 65.6169 78.4205 64.245C76.9714 63.2344 76.5134 61.0589 76.0412 58.8157C75.5948 56.6954 75.1357 54.5146 73.8148 53.1997C73.618 52.9866 73.2847 52.737 72.917 52.4617C71.9439 51.7331 70.7306 50.8245 71.1744 49.9374C72.0887 50.0928 72.7832 50.6455 73.4106 51.1447C74.0633 51.6642 74.6434 52.1258 75.3226 52.0217C75.8027 51.5869 76.0258 50.9414 76.2543 50.2799C76.5987 49.2834 76.9556 48.2506 78.223 47.847C78.0604 49.9101 77.684 50.579 77.3639 51.1479C77.0755 51.6605 76.8328 52.0918 76.8336 53.3884C76.7554 56.0791 80.9637 61.2073 85.0418 60.2335C85.9329 59.3798 85.8744 59.1794 85.2611 57.0795C85.1951 56.8536 85.1227 56.6058 85.0444 56.3328C87.0221 57.3118 87.0904 57.5345 87.4385 58.6703C87.4911 58.842 87.5501 59.0346 87.6231 59.2538C88.2 59.2182 89.0775 59.0217 90.0919 58.7945ZM89.7321 63.0164C89.4644 62.863 89.3777 62.5318 89.5386 62.2765C89.6995 62.0213 90.0469 61.9387 90.3146 62.0921C90.5824 62.2454 90.669 62.5767 90.5081 62.8319C90.3473 63.0871 89.9998 63.1697 89.7321 63.0164Z" fill="#F4812F"/>
</g>
<defs>
<clipPath id="clip0_409_44832">
<rect width="120" height="120" fill="white"/>
</clipPath>
</defs>
</svg>
