<svg width="120" height="120" viewBox="0 0 120 120" fill="none" xmlns="http://www.w3.org/2000/svg">
<g clip-path="url(#clip0_909_222751)">
<circle cx="60" cy="60" r="60" fill="#54AEF2"/>
<path fill-rule="evenodd" clip-rule="evenodd" d="M6.71876 32.3848C7.23774 33.0444 7.79054 33.627 8.37225 33.9774L11.7851 35.4407L11.7903 35.4428L11.7961 35.4454C12.7946 35.9447 13.4276 36.4506 13.9848 36.9457C14.0934 37.0423 14.1991 37.1382 14.3043 37.2337L14.3064 37.2356L14.3072 37.2363C14.7359 37.6252 15.1559 38.0063 15.723 38.3868L20.1062 39.8481C20.1266 39.8549 20.1457 39.8649 20.1629 39.8778C21.0405 40.5359 21.721 41.2855 22.3271 41.9531C22.413 42.0477 22.4976 42.1409 22.5808 42.2317C23.2408 42.9516 23.8285 43.524 24.4875 43.7559C25.2217 43.7489 25.6414 43.548 25.9539 43.3305C26.0503 43.2634 26.1367 43.1943 26.2199 43.1276C26.2738 43.0844 26.3264 43.0423 26.3797 43.0024C26.5151 42.9009 26.6614 42.8077 26.8457 42.7872L26.8499 42.7868L26.8578 42.7864C28.2924 42.7128 29.3702 42.5823 30.1449 42.3696C30.9196 42.1568 31.3789 41.8683 31.6301 41.4899C31.6322 41.4866 31.6345 41.4833 31.6369 41.4801L31.6387 41.4778L31.6437 41.4715C31.8314 41.2492 32.1019 41.1687 32.3992 41.1492C32.5811 41.1373 32.7824 41.1427 33.014 41.1489C33.1607 41.1528 33.3202 41.1571 33.4941 41.1574C34.3632 41.1594 35.6182 41.0615 37.457 40.3957L37.0121 38.6149C37.0029 38.5782 37.0042 38.5396 37.0161 38.5036C37.0279 38.4677 37.0497 38.4358 37.0789 38.4117C37.0789 38.4117 38.0799 37.6077 39.4543 37.8406C39.4372 37.3673 39.4247 36.6832 39.5551 35.9278C39.6955 35.1142 40.0121 34.2689 40.6648 33.6832C40.3388 33.2712 40.2244 32.8805 40.2629 32.593C40.3066 32.2659 40.4894 32.0586 40.4894 32.0586C40.4928 32.0548 40.4963 32.0512 40.5 32.0477C40.5 32.0477 40.6899 31.8651 40.8902 31.6352C41.087 31.4092 41.28 31.1179 41.3097 31.0082C41.0222 29.4157 41.3962 28.8828 41.6571 28.5111C41.7441 28.3872 41.8185 28.2812 41.8515 28.1598C41.8848 28.0377 41.8698 28.0079 41.8465 27.9699C41.8243 27.9339 41.7681 27.8863 41.6885 27.819L41.6758 27.8082C41.5895 27.7352 41.4791 27.632 41.4183 27.4719C41.3576 27.3117 41.3542 27.1122 41.4207 26.8664C41.564 26.3348 42.0379 26.0406 42.4496 25.7867C42.8612 25.5329 43.2025 25.3075 43.2676 25.0606C43.3477 24.7573 43.2685 24.557 43.1629 24.3801C43.1258 24.318 43.0851 24.2612 43.0457 24.2062L43.0205 24.171L42.9965 24.1367C42.9894 24.1265 42.9818 24.1163 42.9741 24.1058C42.9235 24.0373 42.866 23.9595 42.8945 23.8164C42.8974 23.8019 42.9018 23.7878 42.9078 23.7742C43.0288 23.502 43.055 22.9332 43.023 22.3727C43.0033 22.0273 42.967 21.6839 42.9363 21.3942C42.9172 21.2138 42.9003 21.054 42.891 20.9278C42.8876 20.8813 42.9005 20.8351 42.9276 20.7972C42.9546 20.7592 42.994 20.7319 43.039 20.7199C44.2602 20.3934 45.0849 19.7494 45.7343 19.2423L45.8179 19.177C46.1489 18.9192 46.431 18.6993 46.7316 18.5949C46.9379 18.5233 47.1558 18.5613 47.364 18.6551C47.5942 17.3396 47.8365 16.3762 48.3972 15.7531C48.9769 15.1091 49.8753 14.8554 51.2699 14.8363C51.3032 14.7057 51.3013 14.5812 51.2543 14.4485C51.1942 14.2788 51.0776 14.1025 50.9566 13.9356C50.9338 13.9041 50.9108 13.8732 50.8881 13.8427C50.7903 13.7113 50.697 13.5859 50.6398 13.4438C50.6046 13.3562 50.5813 13.2496 50.6164 13.1379C50.6515 13.0262 50.7431 12.9401 50.8468 12.8883C50.8672 12.8781 50.8891 12.8715 50.9117 12.8688C51.4124 12.8062 51.8906 12.7873 52.3894 12.9914C52.8841 13.1939 53.3817 13.6081 53.9625 14.3551L53.9719 14.3406C53.9873 14.3172 54.0028 14.2935 54.0312 14.2285C54.0452 14.1966 54.0595 14.1624 54.0743 14.1269C54.1136 14.0327 54.157 13.9289 54.2097 13.8305C54.2823 13.6949 54.3711 13.5503 54.5511 13.4903C54.667 13.4516 54.8004 13.4259 54.937 13.3996C55.0704 13.3739 55.2068 13.3477 55.3328 13.3082C55.4603 13.2683 55.572 13.217 55.6504 13.1555C55.7287 13.094 55.7759 13.0291 55.798 12.9309C55.9373 12.3294 56.1428 11.5251 56.6425 10.5258L56.6438 10.5231C56.7022 10.4104 56.7613 10.3216 56.8402 10.2524C56.9191 10.1832 57.0365 10.1354 57.1492 10.1543C57.3185 10.1827 57.413 10.3041 57.4934 10.436C57.5737 10.5678 57.643 10.7328 57.7117 10.9305C57.8361 11.2887 57.9562 11.7755 58.0805 12.2969C60.2164 12.3853 64.7036 12.8242 66.6809 13.3649L66.6785 13.3641C67.3721 13.5447 67.9384 13.4565 68.5301 13.2973C68.6888 13.2546 68.8489 13.2063 69.0124 13.1571C69.4586 13.0226 69.9305 12.8804 70.4688 12.8219C70.4985 12.8187 70.5285 12.8222 70.5567 12.8321C70.5849 12.8421 70.6105 12.8582 70.6316 12.8793C70.9737 13.2214 71.3009 13.3444 71.6351 13.47C71.7709 13.5211 71.908 13.5726 72.0477 13.6395C72.2893 13.7551 72.5315 13.9232 72.7379 14.207C72.9374 14.4814 73.1035 14.8654 73.2426 15.4063C73.4131 15.6628 73.5908 15.7834 73.777 15.8406C73.9668 15.899 74.1745 15.8905 74.3832 15.8539C74.4999 15.8335 74.6151 15.8043 74.7269 15.7759C74.815 15.7536 74.901 15.7318 74.984 15.7153C75.0781 15.6965 75.169 15.6829 75.2664 15.6926C75.3638 15.7022 75.4786 15.7467 75.5516 15.8399C75.5646 15.8565 75.5748 15.8751 75.582 15.8949C75.977 16.9838 76.5937 17.5901 77.3133 17.9199C78.0329 18.2497 78.868 18.2964 79.6797 18.2051C80.4914 18.1138 81.2757 17.8857 81.8844 17.6832C82.0668 17.6225 82.2333 17.5642 82.3809 17.5124L82.3821 17.512C82.4803 17.4776 82.5701 17.4461 82.6508 17.4188C82.7519 17.3845 82.8382 17.3569 82.9125 17.3375L82.9175 17.3362C82.9834 17.319 83.0348 17.3056 83.1191 17.3164C83.3841 17.3239 83.6018 17.4848 83.8047 17.6836C84.0124 17.8871 84.2104 18.1437 84.4016 18.3942L84.4408 18.4456C84.6179 18.6778 84.7879 18.9009 84.9371 19.0578C85.0957 19.2246 85.2259 19.2814 85.2477 19.2809C85.605 19.2176 85.7217 19.1022 85.8573 18.9679C85.8732 18.9522 85.8894 18.9362 85.9062 18.9199C85.9877 18.8416 86.094 18.7502 86.2465 18.7121C86.3989 18.674 86.5729 18.6916 86.7937 18.761C86.8385 18.775 86.8768 18.8042 86.9022 18.8436C86.9275 18.883 86.9382 18.9301 86.9324 18.9766C86.8349 19.7489 87.2038 20.6358 87.6223 21.4918C87.6754 21.6005 87.7291 21.7083 87.7823 21.8153C88.1194 22.4923 88.4392 23.1347 88.4898 23.7297C88.5849 23.7645 88.7702 23.8071 89.0168 23.577C89.1485 23.454 89.3045 23.2126 89.4622 22.9685L89.4632 22.967C89.4989 22.9117 89.5351 22.8557 89.5707 22.8016C89.6674 22.6546 89.764 22.5155 89.8738 22.4035C89.9837 22.2916 90.1206 22.1885 90.302 22.2C90.3072 22.2003 90.3125 22.2008 90.3177 22.2015C90.8166 22.2728 91.1445 22.3398 91.5201 22.4166C91.7974 22.4732 92.1008 22.5352 92.5181 22.6082C92.5244 22.6092 92.5307 22.6105 92.5368 22.6121C92.5408 22.6132 92.5447 22.6143 92.5486 22.6156C93.8403 23.0569 94.8215 23.3301 95.6123 23.5502C96.4426 23.7813 97.0629 23.954 97.6122 24.2015C97.6519 24.2194 97.6847 24.2497 97.7056 24.2879C97.9397 24.7162 98.1625 25.0198 98.4169 25.1922C98.6714 25.3645 98.9644 25.4282 99.4165 25.3519C99.4671 25.3434 99.5189 25.3546 99.5615 25.3832C100.016 25.6885 100.105 26.1007 100.12 26.3711L100.122 26.4224C100.127 26.5188 100.131 26.5858 100.137 26.6179C100.309 26.5272 100.463 26.434 100.608 26.3461C100.817 26.2199 101.008 26.1045 101.208 26.0222C101.573 25.8718 101.991 25.8659 102.515 26.1281C103.544 26.6423 104.543 27.641 105.057 28.6695C105.071 28.6973 105.078 28.7279 105.078 28.759C105.078 28.8842 105.057 29.0432 105.029 29.2552C105.022 29.307 105.015 29.3619 105.007 29.4203C104.969 29.7177 104.924 30.0957 104.894 30.5496C104.833 31.4562 104.833 32.6642 105.075 34.1152C105.098 34.2088 105.12 34.3001 105.142 34.3901L105.143 34.3948L105.144 34.4004C105.35 35.2527 105.529 35.993 106.465 37.4871C106.491 37.5283 106.501 37.5774 106.493 37.6254C106.365 38.4123 106.678 39.558 107.042 40.5843C107.148 40.8848 107.258 41.1756 107.36 41.4469L107.361 41.4488C107.433 41.64 107.501 41.8216 107.562 41.9898C107.71 42.3971 107.821 42.7078 107.821 42.9644C107.821 43.5079 107.599 43.9278 107.333 44.3117C107.272 44.4009 107.208 44.4898 107.144 44.5795C106.958 44.8409 106.766 45.1091 106.601 45.4117C107.022 45.7791 107.283 46.2022 107.358 46.6554C107.443 47.1635 107.341 47.6879 107.149 48.1988C106.834 49.0388 106.286 49.8367 105.83 50.5013L105.748 50.6206L105.69 50.7047C107.356 51.0636 108.499 51.4957 109.276 51.9394C110 52.3533 110.446 52.7724 110.809 53.1132L110.862 53.163L110.915 53.2118L110.959 53.2531C111.351 53.6148 111.65 53.8528 112.224 53.9379C112.798 54.0229 113.667 53.9393 115.127 53.5742C115.163 53.5652 115.201 53.5664 115.237 53.5778C115.272 53.5891 115.304 53.6101 115.328 53.6385C115.352 53.6668 115.368 53.7013 115.373 53.7381C115.379 53.775 115.374 53.8126 115.36 53.8468C114.627 55.5571 114.409 56.3005 114.53 57.03C114.608 57.502 114.84 58.0006 115.195 58.7611C115.389 59.1762 115.619 59.6694 115.88 60.2789C115.899 60.3218 115.901 60.3698 115.888 60.4145C115.875 60.4593 115.846 60.4979 115.807 60.5238C115.088 61.0032 114.747 61.3866 114.596 61.7086C114.444 62.0305 114.463 62.3087 114.515 62.6488L114.522 62.6953L114.532 62.7576C114.636 63.4101 114.77 64.2583 113.875 65.4211C113.876 65.4232 113.876 65.4242 113.876 65.4251L113.877 65.4264L113.878 65.4308C113.898 65.4808 113.94 65.5628 114.001 65.6586C114.123 65.8502 114.32 66.1015 114.575 66.3468C115.084 66.8375 115.815 67.2984 116.647 67.2984C116.675 67.2984 116.703 67.3044 116.729 67.3161C116.755 67.3278 116.778 67.3448 116.796 67.366C116.815 67.3872 116.829 67.4122 116.838 67.4393C116.846 67.4663 116.849 67.4949 116.845 67.523C116.648 69.1005 116.284 69.8465 115.964 70.5021C115.881 70.673 115.801 70.8379 115.727 71.0097C115.371 71.8404 115.131 72.8912 115.375 75.8183C115.377 75.8462 115.374 75.8743 115.365 75.9007C115.355 75.9272 115.341 75.9514 115.321 75.9718C115.302 75.9922 115.279 76.0083 115.253 76.0192C115.227 76.03 115.2 76.0353 115.172 76.0347C114.244 76.0164 113.681 76.263 113.282 76.6297C112.882 76.9963 112.644 77.5016 112.438 78.0195C112.402 78.1106 112.367 78.202 112.332 78.2929C112.169 78.7186 112.009 79.1336 111.75 79.4589C111.477 79.801 111.058 80.0029 110.497 79.9715C110.586 81.039 110.845 81.7098 111.094 82.3524C111.129 82.4411 111.163 82.5294 111.196 82.6179C111.49 83.3961 111.708 84.229 111.45 85.6773C111.443 85.7153 111.425 85.7505 111.399 85.7787C111.373 85.807 111.339 85.8269 111.301 85.8363C110.321 86.0815 109.85 86.205 109.525 86.4218C109.2 86.6387 108.967 86.9792 108.477 87.7148C108.452 87.7513 108.417 87.7789 108.375 87.7931C108.334 87.8074 108.289 87.8076 108.247 87.7937L106.977 87.3703C106.853 87.9231 106.71 88.3829 106.584 88.7853C106.461 89.1822 106.354 89.5234 106.301 89.8433C106.185 90.5362 106.288 91.2005 107.011 92.4047C107.029 92.4345 107.038 92.4685 107.039 92.5033C107.04 92.5382 107.031 92.5726 107.015 92.6031C106.998 92.6337 106.974 92.6594 106.944 92.6777C106.915 92.696 106.881 92.7062 106.846 92.7074C106.846 92.7074 106.369 92.7228 105.823 92.7304C105.375 92.7367 104.958 92.7286 104.627 92.7105C104.67 92.9423 104.78 93.1301 104.961 93.3414L105 93.3868C105.223 93.6476 105.492 93.9603 105.566 94.4383C105.57 94.4626 105.569 94.4875 105.564 94.5117C105.535 94.6447 105.469 94.7025 105.385 94.7749L105.355 94.8015C105.258 94.8878 105.131 94.9814 104.977 95.0828C104.667 95.2856 104.248 95.5176 103.764 95.7406C102.84 96.1662 101.688 96.5509 100.625 96.614C100.557 96.8281 100.563 97.0408 100.647 97.2722C100.745 97.5398 100.931 97.8204 101.136 98.0886C101.226 98.2058 101.319 98.3204 101.41 98.4321C101.527 98.5762 101.641 98.7157 101.738 98.8496C101.91 99.0874 102.063 99.3107 102.009 99.5808C102.001 99.6197 101.982 99.6555 101.954 99.6834C101.926 99.7114 101.89 99.7303 101.851 99.7379C99.8909 100.117 98.9266 102.307 98.7602 102.717L98.7852 102.728L98.8104 102.739C98.9046 102.78 99.0069 102.824 99.1798 102.94C99.3261 103.039 99.4715 103.155 99.5774 103.303C99.6834 103.452 99.7484 103.661 99.67 103.86C99.6588 103.888 99.6412 103.914 99.6185 103.934C99.5959 103.955 99.5688 103.97 99.5395 103.978C99.5101 103.987 99.4791 103.989 99.449 103.983C99.4189 103.978 99.3904 103.966 99.3657 103.948C99.0644 103.727 98.8519 103.622 98.5915 103.564C98.3333 103.506 98.0127 103.497 97.5317 103.496C97.4431 103.516 97.3488 103.53 97.2482 103.544C97.0137 103.578 96.7445 103.616 96.4321 103.752C95.9677 103.954 95.4189 104.363 94.8626 105.302C94.8379 105.343 94.7991 105.374 94.7532 105.389C94.4495 105.49 94.1856 105.558 93.9502 105.619C93.686 105.687 93.4576 105.746 93.2489 105.831C92.8543 105.991 92.5074 106.235 92.0446 106.847C92.0228 106.876 91.9935 106.899 91.96 106.912C91.9264 106.926 91.8898 106.93 91.854 106.924C91.8182 106.919 91.7847 106.903 91.7569 106.88C91.7291 106.857 91.7081 106.827 91.6962 106.793C91.599 106.516 91.5018 106.43 91.4641 106.416C91.4265 106.401 91.3614 106.413 91.2345 106.503C91.1319 106.576 91.0144 106.689 90.8833 106.816C90.6899 107.002 90.4669 107.217 90.2184 107.373C89.8763 107.589 89.4421 107.99 89.0837 108.332L88.9857 108.425C88.8458 108.559 88.7195 108.679 88.6134 108.773C88.5481 108.83 88.4912 108.877 88.4356 108.914L88.4215 108.923C88.3985 108.938 88.3751 108.952 88.3446 108.964L88.3408 108.965C88.3042 108.98 88.2508 109.001 88.1669 108.97C88.1255 108.955 88.0903 108.927 88.0667 108.89C88.0431 108.852 88.0324 108.808 88.0364 108.764C88.0574 108.534 88.1743 108.165 88.2864 107.813C88.3045 107.756 88.3181 107.715 88.3296 107.68L88.3502 107.618L88.3966 107.482L86.2829 107.905L86.277 107.906L86.2712 107.907L86.263 107.908L85.9618 107.939C85.8882 107.946 85.8119 107.91 85.7723 107.873C85.7328 107.837 85.714 107.802 85.6985 107.77C85.6676 107.704 85.6518 107.641 85.6356 107.568C85.6169 107.484 85.6004 107.39 85.5834 107.292L85.5741 107.239L85.5604 107.162C85.5552 107.133 85.5498 107.105 85.5442 107.076C85.5107 106.906 85.4669 106.741 85.4196 106.645C85.396 106.598 85.372 106.57 85.3622 106.562C85.3524 106.554 85.3651 106.559 85.3579 106.559C85.3558 106.56 85.173 106.652 84.9845 106.819C84.7959 106.986 84.5739 107.211 84.3505 107.439L84.325 107.465C84.1101 107.685 83.8945 107.905 83.6985 108.08L83.6614 108.113C83.4755 108.28 83.3275 108.413 83.1126 108.439C82.9536 108.459 82.8073 108.414 82.6962 108.348C82.5863 108.283 82.5043 108.201 82.433 108.13L82.4305 108.127C82.3587 108.055 82.2968 107.995 82.2477 107.962C82.1997 107.931 82.1756 107.923 82.1329 107.928C82.14 107.927 82.1386 107.928 82.1314 107.932C82.1272 107.935 82.121 107.939 82.1135 107.944C82.1035 107.95 82.0911 107.96 82.0774 107.973C82.0336 108.014 81.9765 108.081 81.9157 108.164C81.794 108.331 81.6555 108.56 81.5196 108.792L81.442 108.925C81.3333 109.112 81.2269 109.294 81.1286 109.445C81.0677 109.538 81.0105 109.618 80.9512 109.686L80.9366 109.702C80.8832 109.764 80.8316 109.823 80.711 109.844C80.6014 109.863 80.5302 109.831 80.4583 109.798L80.4536 109.796C80.3801 109.762 80.3057 109.718 80.2243 109.667C80.1563 109.624 80.0837 109.576 80.0072 109.525C79.9006 109.454 79.7858 109.378 79.6657 109.304C79.2532 109.051 78.7804 108.838 78.4024 108.902C75.9465 109.755 74.4466 108.886 73.543 108.179C73.4305 108.091 73.3266 108.006 73.2311 107.927C73.134 107.848 73.0457 107.776 72.9657 107.714C72.807 107.593 72.6786 107.524 72.6157 107.512L72.6071 107.51C72.552 107.5 72.5431 107.498 72.4735 107.592C72.4005 107.691 72.307 107.906 72.2161 108.251C72.2084 108.28 72.1942 108.307 72.1746 108.33C72.155 108.353 72.1305 108.371 72.1029 108.383C72.0753 108.395 72.0453 108.401 72.0152 108.4C71.9851 108.399 71.9556 108.391 71.929 108.377C71.6811 108.245 71.5111 108.169 71.3926 108.134C71.2741 108.099 71.2142 108.099 71.1384 108.115C71.0806 108.127 71.0096 108.157 70.9144 108.196C70.7597 108.26 70.5406 108.35 70.2098 108.437C69.9974 108.492 69.793 108.444 69.6485 108.345C69.504 108.246 69.4077 108.114 69.3204 107.993L69.2965 107.959C69.2186 107.851 69.1476 107.752 69.0801 107.688C69.0058 107.618 68.9526 107.59 68.8661 107.593C68.3459 107.607 68.1453 107.831 67.9407 108.064C67.9246 108.082 67.9088 108.101 67.893 108.119C67.8079 108.219 67.722 108.319 67.5938 108.391C67.4417 108.477 67.225 108.48 67.0266 108.377C67.0008 108.364 66.9783 108.345 66.9606 108.322C66.9428 108.299 66.9303 108.272 66.9239 108.244C66.8036 107.713 66.5406 107.353 66.1965 107.076C65.8525 106.799 65.4233 106.612 64.9887 106.462C64.8043 106.398 64.6195 106.341 64.4401 106.286C64.1966 106.212 63.9627 106.14 63.7532 106.058C63.3891 105.916 63.0658 105.735 62.959 105.393L62.9569 105.386L62.9555 105.381C62.8815 105.077 62.9528 104.802 63.1098 104.607C63.2668 104.412 63.4864 104.286 63.7145 104.175C63.8074 104.13 63.9018 104.086 63.995 104.043C64.3498 103.878 64.6866 103.722 64.852 103.518C64.953 103.246 64.9544 103.03 64.9557 102.809C64.9565 102.681 64.9573 102.552 64.9774 102.409C65.0056 102.21 65.087 101.995 65.2657 101.782C65.443 101.572 65.71 101.358 66.1199 101.113C66.634 100.765 66.9346 100.477 67.1024 100.239C67.2703 100.001 67.3128 99.8173 67.3157 99.6265C67.3176 99.5041 67.2958 99.374 67.2723 99.2337C67.2226 98.937 67.1653 98.5945 67.3079 98.1812L67.3113 98.1719L67.3129 98.168C67.6409 97.4004 67.7943 96.9427 67.8075 96.5285C67.8206 96.1143 67.6972 95.7102 67.4239 95.0344L67.4219 95.0293C67.4219 95.0293 67.0126 93.928 66.5641 92.8285C66.3398 92.2787 66.1053 91.7289 65.9098 91.3223C65.812 91.1189 65.7233 90.9506 65.6551 90.8418C65.6231 90.7908 65.5966 90.7563 65.5805 90.7379C65.4043 90.6919 65.3166 90.7261 65.1937 90.839C65.0672 90.9554 64.9325 91.17 64.7812 91.4226L64.7716 91.4388C64.4704 91.942 64.0795 92.5952 63.2945 92.8793L63.2899 92.8813C61.7183 93.4051 59.6575 92.7512 57.8645 92.0024C57.1417 91.7005 56.4627 91.3794 55.8819 91.1048L55.8808 91.1043C55.7419 91.0385 55.6078 90.9752 55.4809 90.9156C55.1519 90.7615 54.8656 90.6311 54.6391 90.5414C54.413 90.4519 54.2355 90.4092 54.1859 90.409C54.0608 90.4115 53.8185 90.4416 53.5161 90.4792C53.397 90.4939 53.2683 90.5099 53.134 90.5258C52.6574 90.5822 52.0977 90.6365 51.5606 90.6293C51.0234 90.6222 50.5075 90.5589 50.1055 90.3477C49.8757 90.227 49.6974 90.0372 49.5863 89.8008C49.4442 89.9976 49.2805 90.1529 49.091 90.2395C48.7571 90.3921 48.3924 90.3829 48.0602 90.3164C47.728 90.2499 47.4215 90.124 47.1895 90.0164C47.0924 89.9714 47.0082 89.9296 46.9426 89.897L46.9063 89.8789C46.8752 89.8636 46.8524 89.8526 46.8356 89.8449C46.3891 89.8487 46.1128 89.9328 45.9289 90.0477C45.7409 90.1652 45.6325 90.3182 45.5266 90.4953C45.5065 90.5288 45.4869 90.5633 45.4669 90.5983C45.3812 90.7482 45.2901 90.9077 45.1422 91.0434C44.9598 91.2107 44.6895 91.3144 44.3227 91.2973C44.3185 91.2971 44.3143 91.2968 44.3101 91.2963C44.304 91.2956 44.2979 91.2946 44.2918 91.2934C44.284 91.2918 44.2763 91.2897 44.2688 91.2871C44.2335 91.2754 44.068 91.2431 43.8496 91.2149C43.6312 91.1867 43.3479 91.157 43.0242 91.1266C42.3768 91.0658 41.5671 91.0029 40.7758 90.9465C39.352 90.845 38.166 90.7753 37.9188 90.7607L37.9174 90.7606L37.8961 90.7594V91.527C37.8961 91.5611 37.8874 91.5946 37.8708 91.6244C37.8542 91.6542 37.8302 91.6792 37.8013 91.6971C37.7723 91.715 37.7391 91.7253 37.7051 91.7268C37.671 91.7283 37.6371 91.7211 37.6067 91.7059L33.7004 89.7524L30.2859 88.777L30.2774 88.7742C29.1368 88.394 28.6089 87.7835 28.1792 87.2866C28.0333 87.1177 27.8986 86.962 27.7551 86.8328C27.4721 86.5782 27.163 86.4065 26.6043 86.3707C26.0456 86.3349 25.2374 86.4507 24.0234 86.8149C23.9936 86.8238 23.962 86.8257 23.9313 86.8202C23.9006 86.8148 23.8715 86.8023 23.8465 86.7837C23.8215 86.765 23.8012 86.7408 23.7872 86.7129C23.7733 86.685 23.766 86.6543 23.766 86.6231V83.8813H21.5145C21.4854 83.8813 21.4567 83.8749 21.4304 83.8627C21.404 83.8505 21.3807 83.8327 21.3619 83.8106C21.3431 83.7884 21.3294 83.7624 21.3217 83.7344C21.314 83.7064 21.3124 83.6771 21.3172 83.6485C21.5619 82.18 21.6833 81.2645 21.7207 80.6426C21.7582 80.0207 21.7148 79.701 21.6277 79.3817C21.595 79.2615 21.5549 79.1388 21.5099 79.0007C21.3236 78.4297 21.0514 77.5956 20.8527 75.5934L19.1109 76.0289C19.0725 76.0386 19.0321 76.0366 18.9949 76.0232C18.9576 76.0099 18.9251 75.9857 18.9016 75.9539C18.3904 75.263 18.2854 74.7217 18.4027 74.2996C18.5036 73.9367 18.7463 73.6892 18.9338 73.4979C18.9644 73.4668 18.9935 73.4371 19.0203 73.4086C19.1159 73.3072 19.1783 73.2209 19.1953 73.1707L19.1959 73.1691C19.2125 73.1202 19.218 73.1041 19.1563 73.0211C19.0314 72.8533 18.5537 72.5366 17.5133 72.0961C17.4763 72.0804 17.4449 72.054 17.4231 72.0202C17.4014 71.9864 17.3903 71.9468 17.3914 71.9067C17.3914 71.9067 17.4079 71.1845 17.3008 70.6055C17.2472 70.316 17.147 70.0677 17.0699 69.9922C17.0314 69.9545 17.02 69.951 16.9809 69.9559C16.9465 69.9602 16.8673 70.0039 16.7742 70.0805C16.776 70.1041 16.7783 70.1342 16.7906 70.1836C16.8217 70.3078 16.8867 70.4826 16.9594 70.6539C17.1046 70.9965 17.2781 71.3285 17.2781 71.3285C17.2951 71.3609 17.3029 71.3973 17.3007 71.4337C17.2984 71.4702 17.2862 71.5054 17.2654 71.5354C17.2446 71.5654 17.216 71.5892 17.1826 71.6041C17.1492 71.619 17.1124 71.6245 17.0762 71.6199C15.1004 71.373 13.8208 71.0029 13.0309 70.1473C12.2409 69.2916 11.9969 68.0055 11.9969 66.0274C11.9969 65.9987 12.003 65.9704 12.0149 65.9444C12.0268 65.9183 12.0441 65.8951 12.0658 65.8763C12.0874 65.8575 12.1128 65.8436 12.1403 65.8355C12.1677 65.8274 12.1966 65.8253 12.225 65.8293C12.225 65.8293 13.0295 65.9436 13.7922 66.0004C14.1735 66.0288 14.547 66.042 14.7863 66.0223C14.8407 66.0178 14.8642 66.0116 14.8901 66.0047C14.8978 66.0027 14.9058 66.0006 14.9148 65.9985C14.7901 65.7413 14.6906 65.3797 14.5863 64.8918C14.4659 64.3284 14.3511 63.6485 14.2539 62.9817C14.1567 62.3148 14.0771 61.6618 14.0285 61.1524C14.0042 60.8977 13.9877 60.6793 13.9805 60.5106C13.9769 60.4262 13.9758 60.3545 13.9774 60.2942L13.9778 60.2732C13.9786 60.2351 13.9792 60.2039 13.9887 60.1639C13.9904 60.0204 14.0585 59.9032 14.141 59.7876C14.231 59.6616 14.3506 59.5337 14.4895 59.3966C14.6177 59.2699 14.7627 59.1357 14.9146 58.995L14.9154 58.9943C15.0924 58.8305 15.2788 58.658 15.459 58.4786C15.7942 58.1449 16.1061 57.7869 16.2918 57.438C16.4775 57.089 16.539 56.7672 16.416 56.4446C16.4066 56.4199 16.4022 56.3935 16.403 56.367C16.4038 56.3406 16.4099 56.3146 16.4209 56.2905C16.4319 56.2664 16.4475 56.2447 16.4669 56.2267C16.4863 56.2087 16.5091 56.1947 16.534 56.1856C16.779 56.0956 17.1414 56.0668 17.4699 56.0454C17.5881 56.0377 17.6341 56.0365 17.6938 56.035C17.7156 56.0345 17.7392 56.0339 17.7687 56.0329C16.9882 54.4606 16.9077 54.1232 16.9043 52.5114C16.8684 52.5141 16.8301 52.5165 16.7922 52.5189C16.726 52.523 16.6608 52.5271 16.6125 52.5325C16.5152 52.5434 16.4011 52.53 16.2836 52.5114C16.2693 52.5355 16.2498 52.5704 16.2254 52.6313C16.2021 52.6895 16.177 52.7589 16.1496 52.8351C16.1071 52.9529 16.0588 53.087 16.002 53.2204C15.9083 53.4401 15.7941 53.6635 15.6078 53.8239C15.4215 53.9843 15.1358 54.0531 14.85 53.9387C14.8192 53.9264 14.7919 53.9065 14.7707 53.8809C14.6896 53.7835 14.6989 53.6974 14.7068 53.6244L14.7082 53.6118C14.7161 53.5362 14.7339 53.4605 14.7551 53.3762C14.7647 53.3381 14.775 53.2983 14.7857 53.2574C14.8222 53.1174 14.8625 52.9628 14.8891 52.8059C14.9235 52.6031 14.9332 52.3989 14.8926 52.2286C14.852 52.0583 14.772 51.9211 14.5941 51.8067L14.5933 51.8059C14.4292 51.699 14.4024 51.5237 14.3922 51.3618C14.382 51.1998 14.3974 51.0209 14.4164 50.836C14.4463 50.5449 14.4547 50.2957 14.4469 50.0942C14.3054 50.1164 14.133 50.1308 13.9289 50.0719C13.4817 49.9429 12.9561 49.5184 12.5242 48.4938C12.4596 48.4122 12.4403 48.4129 12.3961 48.4211C12.3502 48.4297 12.2636 48.4807 12.1816 48.561C12.0453 48.6945 11.9553 48.8487 11.9227 48.9045L11.9176 48.9133C11.9208 48.9232 11.9242 48.9328 11.9276 48.9426C11.9475 48.9997 11.9692 49.0615 11.9734 49.1911C11.977 49.3004 11.9653 49.425 11.9055 49.5469C11.8456 49.6689 11.7289 49.7809 11.5726 49.8348C11.5421 49.8453 11.5095 49.8483 11.4776 49.8434C11.4457 49.8386 11.4155 49.8261 11.3894 49.8071C11.1345 49.6205 10.9223 49.5664 10.6624 49.5002L10.5781 49.4786C10.2784 49.4007 9.92116 49.2873 9.49842 48.952C9.26923 48.7702 9.15011 48.5581 9.09608 48.361C9.05918 48.2263 9.04745 48.1013 9.03693 47.9892C9.03206 47.9372 9.02744 47.8879 9.02069 47.8418C8.9994 47.6964 8.96731 47.5866 8.86288 47.4684C8.75845 47.3502 8.56709 47.2186 8.20741 47.0915C8.18199 47.0825 8.15864 47.0685 8.13877 47.0502C8.11891 47.032 8.10293 47.01 8.0918 46.9854C8.08067 46.9609 8.07463 46.9343 8.07402 46.9073C8.07341 46.8804 8.07826 46.8536 8.08827 46.8286C8.58038 45.5984 8.84042 45.0614 9.32225 44.7172C9.63483 44.494 10.04 44.3499 10.6113 44.1468L10.6125 44.1464C10.8164 44.0739 11.0415 43.9939 11.291 43.9001C10.2431 43.1903 9.95741 42.9153 9.12889 41.6735C7.99451 41.2869 7.42021 40.8892 6.5258 40.2698C6.2836 40.1021 6.01793 39.9181 5.71131 39.7137C5.69417 39.7023 5.67889 39.6884 5.666 39.6723C5.17437 39.0577 4.7453 38.3021 4.37744 37.4604C5.08066 35.7267 5.86258 34.0334 6.71876 32.3848Z" fill="white"/>
<path d="M5.5376 41.4319C5.56546 41.4143 5.59723 41.4039 5.63009 41.4016C5.63009 41.4016 5.83276 41.3789 6.03555 41.4817C6.13695 41.533 6.24414 41.6257 6.30118 41.7633C6.35822 41.9009 6.36249 42.0695 6.3129 42.2633C6.3027 42.3029 6.28059 42.3385 6.24957 42.3651C6.21854 42.3918 6.18009 42.4083 6.13939 42.4124C6.09869 42.4166 6.0577 42.4081 6.02195 42.3882C5.9862 42.3683 5.95741 42.338 5.93946 42.3012C5.82504 42.0653 5.72365 41.9401 5.6543 41.8707C5.61963 41.836 5.59343 41.8155 5.57149 41.7992L5.55973 41.7906C5.55286 41.7856 5.54573 41.7805 5.53712 41.7738L5.53327 41.7712L5.52868 41.7685C5.51498 41.7607 5.49501 41.7493 5.46563 41.691C5.45082 41.6616 5.44351 41.629 5.44433 41.5961C5.44516 41.5631 5.45411 41.5309 5.47038 41.5023C5.48665 41.4737 5.50974 41.4495 5.5376 41.4319Z" fill="white"/>
<path d="M117.829 70.3028C117.787 70.2991 117.746 70.3085 117.71 70.3296C117.674 70.3508 117.645 70.3826 117.629 70.4207C117.462 70.7962 117.485 71.1918 117.673 71.4844C117.691 71.5123 117.716 71.5352 117.745 71.5512C117.774 71.5672 117.807 71.5757 117.84 71.576C117.873 71.5763 117.906 71.5683 117.935 71.5528C117.964 71.5373 117.989 71.5147 118.008 71.4871C118.163 71.2543 118.189 71.0263 118.147 70.852C118.124 70.7538 118.09 70.6742 118.061 70.6042C118.038 70.5498 118.017 70.5012 118.005 70.4539C117.995 70.4135 117.973 70.3772 117.941 70.3501C117.91 70.323 117.87 70.3064 117.829 70.3028Z" fill="white"/>
</g>
<defs>
<clipPath id="clip0_909_222751">
<rect width="120" height="120" fill="white"/>
</clipPath>
</defs>
</svg>
