<svg width="120" height="120" viewBox="0 0 120 120" fill="none" xmlns="http://www.w3.org/2000/svg">
<g clip-path="url(#clip0_354_38)">
<circle cx="60" cy="60" r="60" fill="#021455"/>
<path d="M96.0035 108.002C110.575 97.0552 120 79.6283 120 60C120 40.3718 110.575 22.9449 96.0035 11.9983L0 60L96.0035 108.002Z" fill="#A30904"/>
<path d="M100.578 104.198C112.517 93.2313 120 77.4896 120 60C120 42.5105 112.517 26.7688 100.578 15.8019L13 60L100.578 104.198Z" fill="white"/>
<path d="M68.6405 62.4756C70.0347 62.5827 69.987 63.965 69.987 63.965L74.9241 64.075C75.5556 62.3536 76.211 62.553 77.4104 63.4031C78.5501 64.2107 79.7936 64.5714 79.7936 64.5714C80.2704 62.1009 83.7735 62.6005 83.7735 62.6005C85.2671 59.0331 85.394 59.0806 84.5044 58.6288C83.6147 58.1769 83.2518 57.4126 83.2518 57.4126C82.4073 56.3932 81.9624 54.9187 81.867 54.0142C81.7717 53.1097 80.723 54.4669 80.5325 54.1814C80.3419 53.896 78.7848 54.0625 78.7848 54.0625C79.1661 54.4669 77.8633 54.229 77.8633 54.229C77.9905 54.3242 77.8633 54.7047 77.8633 54.7047C77.7361 54.5382 76.7511 54.3717 76.7511 54.3717C76.6557 54.5857 76.4333 54.8235 76.4333 54.8235C75.8932 54.5857 74.8128 54.6332 74.8128 54.6332C73.2241 54.6093 72.2709 55.1089 71.8259 55.3705C71.381 55.6322 69.7923 56.4407 68.4895 57.7012C67.1867 58.9618 66.4558 58.8191 66.4558 58.8191C66.0745 60.2223 62.9606 61.9347 62.9606 61.9347C62.4523 62.3865 60.8952 62.6005 60.1009 61.9347C59.3067 61.2688 60.1009 60.0796 60.1009 60.0796C60.3948 59.5236 60.6862 59.5466 60.7186 57.6176C60.7406 56.3131 62.0871 55.2785 63.4692 53.7624C65.1589 51.9088 67.5206 48.8573 67.5206 48.8573C67.5325 49.7938 68.0448 49.9454 68.0448 49.9454C68.5096 48.9912 69.1769 48.2241 69.1769 48.2241C69.2126 48.3044 69.308 48.358 69.308 48.358C69.8322 47.6444 70.1539 47.3591 70.1539 47.3591C69.9753 47.2878 68.5096 47.3591 67.1392 48.5542C65.7689 49.7492 64.8276 49.348 64.8276 49.348C63.8743 49.0447 63.7909 48.3134 63.7909 48.3134C63.0949 45.3186 65.8285 43.1763 65.8285 43.1763C62.1584 42.3024 64.8037 37.6468 69.3555 35.6669C73.9073 33.687 73.8596 32.7951 73.8596 32.7951C74.1217 33.0984 74.3363 33.6335 74.3363 33.6335C74.384 33.5977 74.7176 33.0984 77.3391 31.9389C79.9606 30.7794 81.2236 29.7806 81.2236 29.7806C81.5572 30.4228 81.4857 30.8865 81.4857 30.8865C88.6589 28.3715 95.7251 22.6013 95.7251 22.6013C95.9276 23.0828 95.8205 23.8141 95.8205 23.8141C96.9881 22.735 101.206 20.22 101.206 20.22C101.278 21.8252 99.9553 22.4406 99.9553 22.4406C100.098 22.6726 100.182 23.0916 100.182 23.0916C100.873 22.717 104.09 20.4695 104.09 20.4695C105.27 21.4861 104.197 23.1539 104.197 23.1539C104.614 23.0916 104.924 22.726 104.924 22.726C105.222 24.4561 103.304 25.9812 103.304 25.9812C103.637 25.9902 104.197 25.6601 104.197 25.6601C103.84 27.5509 100.253 29.6467 100.253 29.6467C100.777 30.1105 100.277 30.7259 99.848 31.0024C99.419 31.279 98.6565 31.8854 98.8948 32.1351C99.1331 32.3849 100.718 31.27 100.718 31.27C100.992 32.0638 98.9544 33.6245 98.9544 33.6245C100.372 33.8117 104.317 32.0192 104.317 32.0192C103.995 33.5444 102.505 34.7304 100.67 35.4172C98.8352 36.1039 98.9306 36.211 98.9306 36.211C99.2523 36.4696 101.79 35.7295 101.79 35.7295C101.028 37.4329 98.3823 38.6013 98.3823 38.6013C99.1092 39.2167 100.098 38.5032 101.087 37.8255C102.076 37.1477 103.423 36.5679 104.912 36.0686C106.402 35.5691 107.45 35.9437 107.45 35.9437C108.689 35.5513 109.738 36.1041 109.738 36.1041C112.121 36.3003 112.359 37.1655 112.359 37.1655C112.621 37.2279 112.824 37.335 113.432 37.7809C114.04 38.2269 114.004 39.6092 113.98 40.2871C113.956 40.9649 113.765 40.9649 113.646 41.1523C113.527 41.3397 113.515 41.5537 113.515 41.8123C113.515 42.0708 112.919 43.6763 109.237 43.6941C105.555 43.7118 103.657 43.6941 103.657 43.6941C103.353 43.6941 102.99 43.8725 102.99 43.8725C101.441 44.6396 102.259 43.3493 100.416 44.8655C98.5729 46.3816 97.6353 46.1199 97.6353 46.1199C97.3335 46.4827 95.4031 48.2783 94.2989 48.9918C93.1946 49.7053 93.3933 49.6398 94.3545 50.0561C95.3157 50.4724 96.7695 50.0561 96.7695 50.0561C95.8401 50.6744 96.4836 50.9598 96.4836 50.9598C97.7069 50.2165 98.4457 50.4901 98.4457 50.4901C98.835 51.5545 97.4368 53.2371 97.4368 53.2371C97.9769 53.3084 98.9937 53.2371 98.9937 53.2371C98.7475 53.9565 97.7307 54.7474 96.9839 54.9911C96.2372 55.2348 96.3723 55.33 96.5946 55.7818C96.817 56.2336 96.6264 56.6915 96.6264 56.6915C95.3237 55.7879 95.276 56.5964 95.276 56.5964C95.1256 57.6674 95.1488 59.2006 95.1488 59.2006C94.2273 58.7369 94.1796 59.3552 94.1796 59.3552C93.9414 60.3302 92.8133 61.46 92.8133 61.46C92.7656 60.8536 92.2096 60.699 92.2096 60.699C91.6218 61.8286 90.5414 62.5066 90.5414 62.5066C90.3983 63.4815 90.6685 64.8492 90.6685 64.8492C89.9695 64.7065 89.7153 64.7184 89.604 64.8849C89.4927 65.0514 89.763 65.1347 89.763 65.1347L98.8668 65.3606C98.9939 65.3725 99.534 65.4319 99.5499 66.4189C99.5658 67.4058 98.7555 67.4535 98.7555 67.4535L88.7939 67.2156C88.7939 67.2156 88.8416 67.489 88.3171 67.7626C87.7927 68.0363 87.9676 67.4535 87.8245 68.6782C87.6814 69.903 85.6955 68.583 85.6955 68.583C85.3777 69.0587 84.5992 69.6771 84.5992 69.6771C84.1542 68.3333 83.6936 67.9172 82.9786 69.0826C82.2636 70.2479 84.2655 70.0459 84.2655 70.0459C84.2655 70.0459 95.9589 68.3216 96.5944 68.2622C97.2299 68.2028 97.929 68.2383 98.215 69.1303C98.5009 70.0222 96.8009 70.1649 96.8009 70.1649L84.8056 71.4729C84.5515 72.1864 83.5505 72.127 83.5505 72.127C83.63 72.8047 82.915 73.2329 82.5496 73.4827C82.1842 73.7325 81.0404 73.6134 81.0404 73.6134C79.6422 74.5648 78.959 73.8155 78.959 73.8155C78.0535 74.2079 77.4814 74.0414 76.7348 73.7203C75.988 73.3992 76.0516 72.4956 76.0516 72.4956L68.4811 73.2804C68.1236 73.4053 67.8774 73.6431 67.8774 73.6431C68.1475 73.9881 67.3352 74.7892 67.3352 74.7892C67.5616 74.9453 67.9965 75.3823 68.0561 76.3278C68.119 77.3279 66.8347 77.496 67.4781 78.1918C68.1215 78.8875 69.2953 78.3123 70.606 77.6835C71.9167 77.0547 73.2036 77.135 73.7636 77.1394C74.3235 77.1438 75.8847 77.5362 76.8557 77.8797C77.8269 78.223 78.1606 78.018 78.226 77.5184C78.2915 77.0189 78.7266 76.8762 78.7266 76.8762C78.6074 77.3668 78.8697 77.5854 78.8697 77.5854C79.245 77.6121 79.9003 77.2465 79.9003 77.2465C79.8407 77.6077 79.3642 77.8351 79.3642 77.8351C78.411 78.4727 79.7217 78.2365 79.7217 78.2365C82.3312 77.7015 83.2606 77.755 83.9398 77.8263C84.619 77.8977 87.8243 79.2622 87.8243 79.2622C87.9435 78.9411 87.8601 78.1474 87.8601 78.1474C88.6824 78.3704 89.016 78.8432 89.016 78.8432C89.3258 78.5043 89.1233 77.9334 89.1233 77.9334C91.7686 79.4138 88.5753 80.0828 87.7291 80.3681C86.8832 80.6534 86.8951 81.0013 86.8951 81.0013C87.5982 80.7783 88.0866 80.698 88.6707 80.6534C89.2545 80.6089 89.052 80.6444 90.4462 80.3681C91.8404 80.0916 92.5554 80.6802 92.5554 80.6802C91.3877 80.7425 91.0421 81.0904 91.0421 81.0904C91.781 81.5987 91.0779 82.0269 91.0779 82.0269C90.0174 80.6892 89.1118 82.0805 89.1118 82.0805C89.4752 82.0269 90.5418 82.2499 90.8455 82.4417C91.0806 82.59 91.632 82.8609 92.3171 83.1774C93.2846 83.6244 93.1036 83.3378 93.8542 83.6234C94.6047 83.9089 94.319 84.6312 94.319 84.6312C93.9972 84.0426 93.3061 83.8374 93.3061 83.8374C93.2465 84.6312 92.4482 84.7649 92.4482 84.7649C93.4253 83.6767 91.3162 83.2042 90.3272 83.222C89.3382 83.2397 88.5993 83.8729 88.5993 83.8729C90.5893 85.7369 91.9715 85.1305 91.9715 85.1305C91.7213 85.8083 90.077 85.5407 90.077 85.5407C90.8396 86.1204 90.7562 86.5308 90.7562 86.5308C90.351 86.1384 89.6837 86.3346 88.254 85.4071C86.8242 84.4796 85.549 84.7829 85.549 84.7829C86.9432 86.2722 85.0368 87.1552 85.0368 87.1552C84.3337 87.5566 85.3346 88.1005 85.3346 88.1005C84.4529 88.2609 84.3337 87.3782 84.3337 87.3782C83.8689 87.2891 83.2016 87.8509 83.2016 87.8509C83.2493 86.9412 84.4408 87.3962 84.4766 86.4507C84.5123 85.5052 83.3683 84.7741 79.9961 85.2378C76.6239 85.7016 75.6349 84.6224 75.6349 84.6224C75.349 84.6314 75.2893 84.9167 75.2893 84.9167C75.8493 85.4518 76.0997 85.6748 76.0043 86.0495C75.9089 86.4241 76.183 86.549 76.183 86.549C75.5634 86.5132 75.5157 85.7731 75.5157 85.7731C75.5038 86.0764 75.3726 86.1032 75.1701 86.4241C74.9676 86.7452 75.1582 87.1554 75.1582 87.1554C74.8961 86.9234 74.4194 86.6471 74.8722 85.9871C75.2209 85.4788 74.1453 84.8276 74.1453 84.8276C73.7282 84.3997 72.6202 84.8009 72.6202 84.8009C70.3204 85.2556 68.974 83.802 68.974 83.802C68.7119 83.802 68.2113 83.6594 68.2113 83.6594C65.7804 84.7475 63.6476 82.393 63.6476 82.393C61.8126 82.7408 60.9784 81.8579 60.4184 80.9927C59.8585 80.1275 59.7512 80.0562 59.0123 79.6104C58.2735 79.1645 57.583 77.9029 58.2616 77.2381C58.8534 76.6585 58.6787 76.5246 58.6787 76.5246C57.7255 74.9223 60.3787 74.4056 60.4264 74.0222C60.4959 73.4626 61.05 73.1089 61.6457 73.0731C62.2415 73.0374 62.2415 73.0909 62.6347 72.6897C63.028 72.2883 63.7787 72.7878 63.7787 72.7878C63.9337 72.6719 65.2445 71.6551 66.4121 72.1814C67.58 72.7077 68.5451 72.333 68.5451 72.333C69.3674 72.1546 76.1951 71.2271 76.1951 71.2271C76.636 70.5671 76.9458 69.7733 78.8285 69.3453C80.7111 68.9173 82.1411 67.7488 82.1411 67.7488C81.8074 67.3922 81.2474 67.41 80.9615 67.3742C80.6755 67.3384 80.0798 66.8301 80.0798 66.8301C79.7342 66.9818 79.5571 66.9075 77.0889 68.4086C74.8846 69.7494 74.821 67.0889 74.821 67.0889L70.0111 67.0977C69.9276 68.1143 69.1532 68.5157 69.1532 68.5157L67.4015 68.6048C66.4245 68.0875 66.4125 66.3664 66.4125 66.3664C61.1219 66.4467 58.1788 68.3373 58.1788 68.3373C52.1851 65.2692 47.4902 64.5737 47.4902 64.5737C54.7708 63.7798 58.6195 61.7554 58.6195 61.7554C62.6351 64.1635 66.4125 64.2258 66.4125 64.2258C66.5556 62.772 67.5327 62.4153 67.5327 62.4153L68.6405 62.4756Z" fill="black"/>
<path d="M59.9838 74.5566C58.4624 75.4487 58.7375 75.9359 58.8699 76.2099C59.0051 76.4894 59.0208 76.7569 58.6078 77.1732C58.1947 77.5895 58.2344 77.734 58.2344 77.734C58.298 79.2127 59.3454 79.5267 59.7822 79.8894C60.148 80.1932 60.7685 81.1449 60.7685 81.1449C61.547 82.2628 62.3731 82.2745 62.9847 82.2745C63.5964 82.2745 63.542 82.2226 63.2309 81.9476C62.9385 81.6888 62.3254 81.1866 62.3254 81.1866C63.1435 81.4719 63.9221 82.3281 63.9221 82.3281C65.4679 84.0195 66.8931 83.7967 67.5206 83.7135C68.1482 83.6302 68.0369 83.2675 68.0369 83.2675C68.0038 83.2072 67.3934 83.1604 67.3934 83.1604C65.0738 82.9403 64.3747 81.4183 64.3747 81.4183C65.7729 82.7918 67.9653 83.0713 68.6406 83.046C69.3158 83.0207 69.2761 83.2139 69.133 83.2497C68.9899 83.2855 68.7834 83.2497 68.4736 83.2259C68.1638 83.202 68.1638 83.2794 68.2354 83.4102C68.3069 83.5409 68.5987 83.5543 68.9681 83.5409C69.3376 83.5275 69.0397 83.5677 69.9988 84.3124C70.9581 85.057 73.3471 84.455 73.3471 84.455C71.804 84.0716 71.5896 83.3759 71.5896 83.3759C69.4924 83.621 68.6404 82.3636 68.6404 82.3636C68.2651 81.989 67.1445 81.4098 67.1445 81.4098C65.9593 80.901 65.7746 79.8283 65.7746 79.8283C66.1082 80.3032 66.7577 80.8475 67.5798 81.0749C68.4019 81.3022 68.6343 81.4227 68.6343 81.4227C68.241 81.4807 68.0086 81.3514 68.0086 81.3514C67.1863 81.1106 67.6511 81.4451 67.6511 81.4451C68.5567 82.1674 68.8071 82.1141 68.8071 82.1141C71.1842 82.3592 70.0046 81.4096 70.0046 81.4096C71.6967 81.811 71.9768 81.1776 71.9768 81.1776C72.3282 81.9223 73.6092 81.6547 73.6092 81.6547C71.9053 82.4751 73.1982 82.2408 73.1982 82.2408C74.92 81.9179 75.2576 82.3563 75.2576 82.3563C75.7236 82.7897 76.1949 82.7295 76.1949 82.7295C76.1949 82.7295 76.5047 82.7385 77.1601 82.8696C77.8155 83.0008 78.8164 83.5589 79.7696 83.4409C80.7229 83.3229 80.8779 83.6221 80.8779 83.6221C80.6992 83.5603 80.2821 83.4965 79.5433 83.8266C78.8045 84.1567 77.5295 84.2636 75.6707 83.8266C73.8119 83.3897 73.6689 83.4432 73.6689 83.4432C74.1098 83.7731 74.5029 84.237 74.5863 84.5579C74.6698 84.8788 74.9915 84.8968 74.9915 84.8968C75.1227 84.4866 75.6826 84.3082 75.6826 84.3082C76.0493 84.647 77.0291 85.093 77.0291 85.093C77.1365 84.87 77.0291 84.714 77.0291 84.714C77.7441 85.3963 78.5781 85.1911 78.5781 85.1911C78.8043 85.0311 78.7331 84.647 78.7331 84.647C79.0191 84.638 79.0668 84.8165 79.2693 84.9504C79.4717 85.0842 80.1152 84.9949 80.1152 84.9949C79.8769 84.8968 79.71 84.5312 79.71 84.5312C80.6513 83.8802 82.689 84.1655 82.689 84.1655C84.1605 84.4241 83.9758 85.3873 83.9758 85.3873C84.2737 85.53 84.667 85.976 84.667 85.976C84.7921 85.6371 84.6789 85.2936 84.6789 85.2936C85.3522 85.6147 85.4951 86.3996 85.4951 86.3996C86.2756 85.5076 84.7504 84.5044 84.7504 84.5044C85.4893 84.4107 86.3055 84.4776 86.8 84.5489C87.2945 84.6203 88.0034 84.879 88.5814 85.3606C89.1593 85.8421 90.196 86.0651 90.196 86.0651C90.1643 85.8661 89.6122 85.53 89.4871 85.4587C89.362 85.3873 89.3085 85.2135 89.3085 85.2135C89.8149 85.3026 90.1663 85.2581 90.1663 85.2581C88.385 84.1699 87.9381 83.6528 87.9381 83.6528C88.6054 83.7375 88.9748 83.3227 88.9748 83.3227C87.5687 83.3539 87.521 82.9882 87.521 82.9882C87.6938 83.0372 88.3314 83.1934 89.1715 83.0284C90.0115 82.8634 91.1792 83.0328 91.1792 83.0328C90.5715 82.0561 88.218 82.2212 87.4675 82.2613C86.7169 82.3015 86.4249 82.2034 86.4249 82.2034C86.5442 82.1454 86.6693 82.0206 87.2589 82.0162C87.8488 82.0118 88.4266 82.0607 89.0939 81.6014C89.7612 81.142 90.6767 81.2937 90.6767 81.2937C90.4544 80.8538 89.3978 80.6992 88.4684 81.2937C87.539 81.8882 86.6969 81.698 86.6969 81.698C88.1666 81.4899 88.5954 80.9726 88.5954 80.9726C88.1505 80.8655 87.9043 81.0083 87.0226 81.1807C86.1409 81.3531 85.9024 81.05 85.9024 81.05C86.8715 80.4733 87.5468 80.2413 87.5468 80.2413C86.7207 80.0689 85.958 79.7162 85.958 79.7162C85.1002 80.523 84.4329 80.9784 82.7885 80.1164C81.1442 79.2544 80.2863 79.3554 80.2863 79.3554C81.7322 78.4992 83.2176 78.8678 84.298 79.5158C85.3784 80.1639 85.6882 79.6346 85.6882 79.6346C85.3466 79.4207 85.3943 79.2364 85.3943 79.2364C88.0157 80.5741 89.1518 79.7417 89.7317 79.3493C90.3115 78.9569 89.4696 78.4337 89.4696 78.4337C89.4139 79.2841 88.3414 79.6704 87.4995 79.3851C86.6575 79.0998 85.879 78.737 84.6676 78.2317C83.4562 77.7263 81.9388 77.988 80.5248 78.2852C79.1107 78.5825 78.9281 78.4398 78.8009 78.3268C78.6737 78.2139 78.6024 77.869 77.8795 78.1664C77.1565 78.4637 75.4724 77.6729 74.4238 77.4232C73.3752 77.1734 71.6586 77.31 70.1739 78.1248C68.6891 78.9395 67.9576 78.7373 67.5127 78.535C67.0677 78.3327 66.7897 77.774 67.2665 77.2745C67.7432 76.7749 67.7827 76.6383 67.7432 75.9188C67.7034 75.1994 66.9964 74.7712 66.9964 74.7712C67.6478 74.0993 67.8068 73.9508 67.5842 73.6594C67.3618 73.368 67.7114 73.3741 68.0848 73.2076C68.4582 73.041 68.2912 73.0172 68.204 72.7974C68.1166 72.5773 67.9022 72.6131 67.9022 72.6131C67.0363 72.6488 66.5596 72.411 66.5596 72.411C65.1257 71.751 63.7951 73.0352 63.7951 73.0352C62.9805 72.4112 62.7942 72.8151 62.6511 72.9697C62.508 73.1243 62.222 73.2314 61.8407 73.267C61.4939 73.2994 60.9697 73.4352 60.7879 73.7592C60.7879 73.7592 60.6273 74.0196 60.8277 74.3047C60.8277 74.3047 61.0502 74.6404 60.6452 75.046C60.2401 75.4519 60.0972 75.55 60.2223 75.9334C60.3474 76.3168 60.3116 76.6111 60.1568 76.8609C60.1568 76.8609 59.9721 76.6469 60.0198 76.3838C60.0675 76.1206 60.0675 75.969 60.0079 75.8263C60.0079 75.8263 59.6088 76.2187 59.5372 76.4996C59.5372 76.4996 59.3705 76.0671 59.9483 75.4874C60.526 74.9078 60.7894 74.6191 60.6275 74.3949C60.5082 74.2298 60.0855 74.4969 59.9838 74.5566Z" fill="#FDD406"/>
<path d="M61.6233 80.9498C61.6233 80.9498 60.9004 80.3969 60.9878 79.6298C61.0753 78.8628 61.0606 78.7678 60.9805 78.6071C60.9805 78.6071 60.8487 78.6835 60.8527 78.9818C60.8565 79.2617 60.8167 79.5526 60.7891 79.606C60.7891 79.606 60.4157 78.9699 60.2649 78.8508C60.2649 78.8508 60.3921 78.185 60.1854 77.8995C59.979 77.6142 59.779 77.5962 59.542 77.6855C59.214 77.8089 58.9663 78.1137 60.0685 79.0173C60.0685 79.0173 60.4793 79.3443 60.7655 80.0697C61.0514 80.7952 61.5282 80.9081 61.6233 80.9498ZM65.2062 78.8272C65.2062 78.8272 65.1506 78.3932 65.5398 77.6261C65.9291 76.859 65.6957 76.2892 65.6082 76.0988C65.5208 75.9085 65.4683 75.9792 65.8609 75.6495C66.3441 75.2439 65.6748 74.7319 66.4692 74.0206C66.4692 74.0206 66.9934 73.5711 67.1127 73.3868C67.1127 73.3868 66.2707 73.8387 65.7224 74.0646C65.1744 74.2905 63.0771 75.319 63.538 76.0087C63.9988 76.6984 63.9511 76.7341 63.8796 77.0195C63.8796 77.0195 62.6324 76.3595 63.0692 75.2893C63.0692 75.2893 63.2673 74.8582 63.7921 74.3737C64.2688 73.9338 63.9827 74.4689 64.9518 73.9158C64.9518 73.9158 65.7224 73.4579 66.1274 72.8396C66.1274 72.8396 65.6191 73.1607 65.4363 73.2142C65.4363 73.2142 64.3161 73.4163 63.8635 73.892C63.4106 74.3677 62.4494 75.1941 62.7751 76.1156C62.7751 76.1156 61.6549 75.9788 61.4008 74.8134C61.4008 74.8134 59.3274 77.37 63.6806 78.5592C63.6808 78.5597 64.4753 78.7707 65.2062 78.8272Z" fill="black"/>
<path d="M84.3553 70.2796C85.981 70.0338 95.4031 68.6099 96.2593 68.5231C97.1967 68.4279 97.5556 68.3029 97.864 69.0582C98.2135 69.9144 96.5771 69.9263 96.5771 69.9263L85.3443 71.1998C84.7933 71.2634 84.6701 71.0532 84.6701 71.0532C84.5728 70.8737 84.385 70.6348 84.2555 70.4783C84.2555 70.4781 84.1076 70.3171 84.3553 70.2796Z" fill="#FDD406"/>
<path d="M61.3469 75.39C61.3469 75.39 60.1316 77.9496 64.9097 78.5828C64.9097 78.5828 64.9216 78.2975 65.1122 77.896C65.3027 77.4946 65.7198 76.6832 65.3266 76.1569C64.9333 75.6306 65.6483 75.9071 65.7556 75.2204C65.8629 74.5337 65.6841 74.6318 66.0177 74.1858C66.0177 74.1858 64.5164 74.7299 63.9443 75.3898C63.3724 76.0498 64.7189 76.5493 63.9205 77.2716C63.9205 77.2716 63.2532 77.0309 62.8599 76.3083C62.8603 76.3086 61.9309 76.3265 61.3469 75.39Z" fill="#784B26"/>
<path d="M66.0237 78.5325C66.0237 78.5325 67.2033 79.5537 68.6094 79.5091C70.0156 79.4646 70.6113 79.0899 70.9688 78.5325C70.9688 78.5325 71.2422 78.9644 71.2428 79.2504C71.2428 79.2504 72.4582 78.2425 74.5554 79.1165C76.6527 79.9905 76.0092 79.7503 76.4738 79.8124C76.4738 79.8124 75.5823 79.6539 73.5425 80.5881C71.4455 81.5487 65.9761 81.2213 66.0237 78.5325Z" fill="black"/>
<path d="M64.0646 74.0161C64.0646 74.0161 64.5949 74.0964 65.1252 73.4988C65.1252 73.4988 64.4102 73.6327 64.0646 74.0161ZM60.0578 78.7697C60.0578 78.7697 59.0719 77.9939 59.7034 77.8422C59.7034 77.8422 60.1531 77.7709 60.0578 78.7697Z" fill="#784B26"/>
<path d="M81.5234 83.6222C81.5234 83.6222 82.0476 82.6851 83.5611 82.6851C85.0745 82.6851 85.2531 83.3808 87.1596 83.5145C87.1596 83.5145 84.8703 84.1596 83.2751 83.568C82.4411 83.2588 81.6904 83.5159 81.5234 83.6222Z" fill="black"/>
<path d="M66.5469 79.2158C66.5469 79.2158 68.8108 80.5893 70.8246 79.0999C70.8246 79.0999 70.9916 79.2603 71.1344 79.626C71.1344 79.626 72.6596 78.1542 75.3883 79.7419C75.3883 79.7419 75.053 79.7046 73.7678 80.2592C72.0935 80.9817 67.9053 81.4544 66.5469 79.2158Z" fill="#784B26"/>
<path d="M75.2782 80.6064C75.2782 80.6064 77.4468 80.8579 79.2819 80.7491C80.4094 80.6824 81.6293 80.4759 81.0217 80.8579C80.414 81.2396 80.7119 81.2754 83.3095 81.0346C85.9071 80.7939 83.2857 81.5252 85.0731 81.7569C85.0731 81.7569 80.741 83.9686 75.2782 80.6064Z" fill="black"/>
<path d="M80.9733 79.2254C80.9733 79.2254 82.2483 78.7616 83.428 79.3145C84.6076 79.8674 84.429 79.9121 85.2155 79.9922C85.2155 79.9922 84.6674 80.7771 83.3686 80.1439C82.0696 79.5107 81.7255 79.3885 80.9733 79.2254ZM82.3913 83.1406C82.3913 83.1406 83.6423 82.5166 85.0251 83.1653C85.1981 83.2465 85.5755 83.4031 85.9303 83.4795C85.9303 83.4795 84.8708 83.8079 83.7853 83.4705C83.3341 83.3304 82.9752 83.221 82.3913 83.1406ZM76.2069 80.902C76.2069 80.902 78.9953 81.1605 80.5085 80.8591C80.5085 80.8591 78.7568 81.7046 83.1538 81.3122C83.1538 81.3122 84.1309 81.2051 84.0117 81.3567C83.8924 81.5084 83.8211 81.6243 84.2976 81.7669C84.2978 81.7671 81.0329 83.2297 76.2069 80.902Z" fill="#784B26"/>
<path d="M62.2803 78.5325C62.2803 78.5325 62.3042 78.7465 62.9238 79.023C63.5434 79.2995 63.877 79.7945 64.0082 80.062C64.1393 80.3295 64.455 80.7299 64.9675 80.8575C64.9675 80.8575 62.7815 81.3137 61.8019 80.1766C61.8019 80.1766 61.0591 79.3575 62.2567 78.5325" fill="black"/>
<path d="M79.4829 83.5774C79.4829 83.5774 78.6131 83.5239 77.4334 83.1137C76.2538 82.7035 75.9438 83.0513 75.2767 82.5518C74.6094 82.0523 73.2629 82.3646 73.0127 82.4002C72.7626 82.4359 72.0476 82.4002 72.9412 81.8205C72.9412 81.8205 72.2262 81.8027 71.9522 81.4459C71.9522 81.4459 71.6305 81.758 70.427 81.6421C70.427 81.6421 70.9632 82.4842 68.8065 82.2416C68.8065 82.2416 69.45 82.9888 70.2246 83.1404C70.9992 83.2921 71.3221 83.2419 71.8212 83.0959C71.8212 83.0959 71.6782 83.7469 72.6791 83.9966C73.68 84.2464 73.8825 84.4426 74.395 84.6476C74.395 84.6476 74.4665 84.2284 73.132 83.2563C73.132 83.2563 73.8469 83.2206 74.8717 83.4703C75.8961 83.7201 78.2197 84.3177 79.4829 83.5774ZM80.023 84.5763C80.023 84.5763 80.2374 85.0758 80.8968 84.9628C81.5561 84.8499 82.6405 84.6566 83.6891 85.1917C83.6891 85.1917 83.8678 84.2997 81.7628 84.2374C81.7628 84.2374 80.4441 84.3087 80.023 84.5763ZM62.197 78.8506C62.197 78.8506 61.3867 79.5164 62.1215 80.2092C62.7928 80.842 63.8295 80.7859 64.3259 80.7681C64.3259 80.7681 64.028 80.5987 63.7659 80.2063C63.5038 79.8138 63.4948 79.5486 62.9436 79.2965C62.3717 79.0351 62.3041 78.9667 62.197 78.8506ZM61.3469 75.3903C61.3469 75.3903 60.1316 77.9498 64.9097 78.583C64.9097 78.583 64.9216 78.2977 65.1122 77.8963C65.3027 77.4949 65.7198 76.6834 65.3266 76.1571C64.9333 75.6308 65.6483 75.9074 65.7556 75.2206C65.8629 74.5339 65.6841 74.632 66.0177 74.186C66.0177 74.186 64.5164 74.7301 63.9443 75.3901C63.3724 76.05 64.7189 76.5496 63.9205 77.2719C63.9205 77.2719 63.2532 77.0311 62.8599 76.3086C62.8603 76.3088 61.9309 76.3268 61.3469 75.3903Z" fill="#784B26"/>
<path d="M73.9111 81.2934C73.9111 81.2934 74.9121 81.1329 77.462 82.0872C80.0119 83.0415 81.0724 82.8007 81.4538 82.7739C81.4538 82.7739 80.0154 83.5253 77.7877 82.5445C75.8178 81.677 75.6867 82.0069 73.9111 81.2934Z" fill="black"/>
<path d="M89.8727 80.7233C89.8727 80.7233 90.4549 80.7034 90.7942 80.863C90.7942 80.863 91.0165 80.6727 91.5489 80.6162C91.5489 80.6162 91.1993 80.2654 89.8727 80.7233ZM88.1292 79.3113C88.1292 79.3113 88.713 79.2846 88.8879 79.0051C88.8879 79.0051 88.594 78.6304 88.1451 78.4522C88.1451 78.452 88.2363 78.8505 88.1292 79.3113ZM68.5356 72.7947C68.5356 72.7947 68.4283 72.5094 69.036 72.4201C69.6437 72.331 77.5875 71.1982 77.5875 71.1982C77.5875 71.1982 78.0086 71.1976 78.0682 71.4748C78.1327 71.7743 78.0205 71.9984 76.1021 72.2226C74.1837 72.4468 69.1195 73.08 69.1195 73.08C69.1195 73.08 68.5831 73.1694 68.5356 72.7947Z" fill="#FDD406"/>
<path d="M76.2839 72.4522C76.2839 72.4522 76.2839 73.576 77.4279 73.7425C78.5379 73.904 78.9194 73.6732 79.2154 73.0888C79.293 72.9352 79.6335 71.7619 79.1407 71.6724C78.947 71.6373 78.6033 71.6574 78.3575 71.7624C77.9747 71.9259 77.6195 72.1175 77.7459 72.3094C78.0159 72.7196 78.0687 72.8148 77.9683 72.8445C77.6938 72.9258 77.492 72.6846 77.4361 72.5175C77.3664 72.3092 77.5873 72.1751 76.8404 72.2855C76.5349 72.3307 76.2839 72.3213 76.2839 72.4522Z" fill="#FDD406"/>
<path d="M81.0436 71.5895C81.628 71.6569 81.5837 72.8933 80.8846 73.4523C80.1317 74.0541 79.4134 73.8388 79.4134 73.8388C79.0335 73.6784 79.0812 73.7317 79.3751 73.286C79.6534 72.8638 79.7845 72.2957 79.6293 71.9006C79.5797 71.7742 79.7167 71.6717 79.9106 71.6301C79.9111 71.6299 80.4399 71.5199 81.0436 71.5895Z" fill="#FDD406"/>
<path d="M81.5521 71.6975C81.5521 71.6975 81.9692 72.2223 81.4486 73.1898C81.4486 73.1898 81.2185 73.4751 81.7347 73.4335C82.251 73.3918 83.403 72.839 83.2837 72.1313C83.2837 72.1313 83.244 71.959 82.9421 71.9767C82.6403 71.9945 82.8865 71.8102 83.0137 71.7747C83.1408 71.7391 83.5339 71.5933 82.5133 70.9363C82.5133 70.9363 82.3449 70.7846 82.1479 70.8472C81.9922 70.8965 81.4486 71.1195 81.4486 71.4358C81.4488 71.5655 81.5521 71.6975 81.5521 71.6975Z" fill="#FDD406"/>
<path d="M82.6656 70.808C82.6656 70.808 83.4799 71.3916 83.476 71.565C83.472 71.7384 83.4005 71.9733 83.6151 71.9526C83.8295 71.9319 84.7114 71.7445 84.4689 71.1619C84.2267 70.5791 83.9843 70.3741 83.5753 70.2315C83.1662 70.0888 83.063 70.2821 82.7135 70.5465C82.7133 70.5465 82.4591 70.7011 82.6656 70.808ZM78.2607 71.6315C78.2607 71.6315 78.3958 71.1975 77.6649 71.037C77.6649 71.037 77.9747 70.7814 78.5943 70.9182C79.2097 71.054 79.144 71.4594 79.1392 71.5127C79.1392 71.5127 78.6579 71.4947 78.2607 71.6315ZM79.8496 71.5305C79.8496 71.5305 80.6964 71.3822 81.0729 71.4294C81.0729 71.4294 80.6558 70.4961 79.5279 70.814C79.5279 70.814 79.9329 71.2719 79.8496 71.5305ZM81.2992 71.2985C81.2992 71.2985 81.2992 71.0132 82.0182 70.7276C82.0182 70.7276 81.6693 70.3992 81.1842 70.4304C80.6282 70.4662 80.5169 70.6682 80.5169 70.6682C80.5169 70.6682 81.1206 70.8778 81.2992 71.2985ZM81.5812 70.3235C81.5812 70.3235 82.0261 70.4365 82.3041 70.6743C82.3041 70.6743 82.7258 70.2141 83.0827 70.1154C83.0827 70.1154 82.3836 69.7407 81.5812 70.3235Z" fill="#FDD406"/>
<path d="M58.1906 68.0769C58.1906 68.0769 60.1534 66.414 61.2531 66.6144C62.3525 66.8145 61.8011 66.6767 63.0047 66.4895C64.2082 66.3022 65.4476 66.1774 65.9479 66.2397C65.9479 66.2397 64.4941 65.1963 61.8965 65.2141C61.8965 65.2141 60.0616 65.8473 58.7983 66.6857C58.7983 66.6857 56.3674 65.33 53.8533 66.1416C53.8533 66.1416 56.582 67.1314 58.1906 68.0769Z" fill="#784B26"/>
<path d="M79.0587 70.9569L79.3862 70.9019C79.3862 70.9019 79.9393 71.5867 79.5375 71.5945C79.2235 71.6007 79.3505 71.4978 79.291 71.2987C79.2314 71.0995 79.1243 71.0104 79.0587 70.9569ZM76.5922 71.0104C76.5922 71.0104 76.3956 71.255 76.765 71.1976C77.2149 71.128 77.1283 71.2127 77.6228 70.878C77.6228 70.878 77.9268 70.5555 78.4926 70.7563C78.4926 70.7563 78.9693 70.9123 79.3565 70.7251C79.7437 70.5379 79.8333 70.5513 80.0416 70.5691C80.2501 70.5868 80.2361 70.6318 80.5143 70.4287C80.7923 70.2256 81.2749 70.3816 81.5789 70.1275C81.8828 69.8733 82.2639 70.0873 81.5789 69.5968C81.5789 69.5968 81.4358 69.4541 81.4477 69.3336C81.4477 69.3336 81.7098 69.4094 81.9184 69.5968C82.1269 69.784 82.4725 69.7261 82.5321 69.6949C82.5321 69.6949 82.5679 69.0839 83.1755 68.522C83.7832 67.9602 83.7893 67.9156 83.4318 67.911C83.0743 67.9066 82.4725 67.7683 82.27 67.911C82.0675 68.0537 80.2859 69.2219 79.2494 69.4181C78.2127 69.6146 77.2595 69.9089 76.5922 71.0104ZM48.9297 64.6189C48.9297 64.6189 52.1111 65.4393 52.8261 65.7843C52.8261 65.7843 52.9968 65.2521 51.5511 64.8358C51.5511 64.8358 55.0623 64.7287 58.78 66.4174C58.78 66.4174 60.5721 64.8808 66.3392 65.3565C66.3392 65.3565 66.3505 64.8471 66.3902 64.4553C66.3902 64.4553 62.3388 64.3365 58.621 62.0771C58.621 62.0769 55.2928 63.715 48.9297 64.6189ZM66.6126 66.1558C66.3902 62.9034 67.6374 62.6122 67.6374 62.6122C67.6374 62.6122 68.2248 62.6156 68.8607 62.7133C68.8607 62.7133 67.8756 63.8845 68.1377 66.2093C68.1377 66.2093 68.2411 66.5839 67.4069 66.5839C66.586 66.5839 66.6126 66.1558 66.6126 66.1558Z" fill="#FDD406"/>
<path d="M67.4659 68.3093C67.4659 68.3093 66.8622 67.6909 66.7986 66.9774C66.7986 66.9774 66.7827 66.7931 67.3944 66.8109C68.006 66.8287 68.0859 66.7521 68.2363 67.1081C68.3828 67.4543 68.7685 68.1844 68.8639 68.2676L67.4659 68.3093Z" fill="#784B26"/>
<path d="M68.7725 66.6851C68.7171 66.2596 68.6958 65.8964 68.7054 65.4488C68.7451 63.6354 69.0461 63.7965 69.1654 64.0226L69.7858 64.0339C69.7858 64.0339 69.3329 61.9885 68.8008 63.1836C68.2778 64.3575 68.3161 65.1218 68.3797 66.0494C68.4163 66.5836 68.4868 66.9162 68.5464 67.1162L68.7725 66.6851Z" fill="#FDD406"/>
<path d="M75.7758 66.6898C75.7758 66.6898 76.9734 66.8726 75.1382 67.3096C75.1382 67.3096 75.2276 69.5269 77.3964 67.9739C77.3964 67.9739 78.6774 67.155 79.5649 66.822C79.5649 66.822 80.0117 66.6674 79.9582 66.3329C79.9582 66.3329 79.994 65.939 79.5292 66.0162C79.5292 66.0162 79.1631 66.0248 78.9273 65.9388C78.9273 65.9388 78.6711 65.6372 78.4983 65.7531C78.3255 65.869 77.9203 65.802 78.2362 66.1857C78.5521 66.5691 78.6472 66.471 78.8022 66.3595C78.9572 66.248 79.6423 65.9761 79.0108 66.5423C78.3793 67.1086 77.8848 66.2302 77.6821 66.0696L75.7758 66.6898ZM69.7822 66.941L69.25 66.9291C69.25 66.9291 68.9641 67.3573 68.7689 66.685L68.543 67.1159C68.543 67.1159 69.2023 69.4968 69.7822 66.941Z" fill="#784B26"/>
<path d="M69.032 64.193C69.032 64.193 68.762 65.7508 69.1035 66.7141L74.8629 66.8212C74.8629 66.8212 74.7914 65.7033 74.8788 64.1932H74.0607C74.0607 64.1932 73.9494 65.4477 74.0528 66.2206L73.9178 66.2233C73.9178 66.2233 73.8145 65.1385 73.9256 64.1932H73.2503C73.2503 64.1932 73.1391 65.3527 73.2265 66.2325H73.0993C73.0993 66.2325 73.0039 65.2159 73.1152 64.1932H72.4479C72.4479 64.1932 72.3253 65.2433 72.4565 66.2181L72.2971 66.2147C72.2971 66.2147 72.162 65.1504 72.3051 64.1932H71.5662C71.5662 64.1932 71.3836 65.1743 71.5583 66.2267H71.4073C71.4073 66.2267 71.2405 65.2218 71.4231 64.1932H70.6843C70.6843 64.1932 70.5097 65.305 70.6605 66.2267H70.5174C70.5174 66.2267 70.3982 65.1504 70.5571 64.1932H69.866C69.866 64.1932 69.6834 65.1327 69.8342 66.2267H69.6832C69.6832 66.2267 69.5719 65.4121 69.715 64.1932L69.032 64.193ZM75.1171 67.0351C75.1171 67.0351 74.9577 64.2166 75.4984 63.4916C76.0391 62.7666 76.1498 62.9088 77.0712 63.4916C77.9927 64.0742 79.1844 64.7045 79.375 64.7758C79.5655 64.8471 79.8358 64.9185 79.8358 65.4299C79.8358 65.9413 79.9312 66.0957 79.1367 65.4537C79.0177 65.3575 78.6462 65.0176 78.378 64.932C77.6662 64.7049 78.5491 65.0914 78.8031 65.4537C79.0183 65.7608 79.1844 65.7271 78.6284 65.87C78.0724 66.0129 76.1498 66.6546 75.1171 67.0351Z" fill="#FDD406"/>
<path d="M77.1311 65.0173C77.1311 65.0173 76.714 64.4904 77.2443 64.3699C77.7746 64.2494 77.8162 65.2037 77.9055 65.7789C77.9951 66.3542 77.2384 65.1976 77.1311 65.0173ZM76.3567 67.4735C76.3567 67.4735 75.7372 67.7009 76.1423 67.9015C76.5475 68.1021 77.6913 67.1524 77.2983 67.2148C76.9048 67.2773 76.3567 67.4735 76.3567 67.4735ZM77.1968 66.604C77.1968 66.604 77.7449 66.5504 77.6378 66.7868C77.5305 67.0232 77.3338 66.873 77.2506 66.8209C77.1669 66.769 76.7797 66.6351 77.1968 66.604Z" fill="black"/>
<path d="M80.1125 65.8674C80.1125 65.8674 80.2596 66.9405 81.181 67.2126C81.181 67.2126 81.7132 67.3448 81.6021 66.8752C81.6021 66.8752 81.5107 66.4828 81.4354 66.3192C81.3599 66.1556 80.9905 66.0517 80.9507 66.0339C80.911 66.0161 80.8633 65.9031 81.1176 65.9864C81.3718 66.0696 81.4115 66.0786 81.3917 65.9002C81.3718 65.7218 81.2222 65.7935 80.9888 65.6795C80.899 65.6356 80.9984 65.5762 81.0938 65.5971C81.1892 65.6178 81.4155 65.6862 81.4195 65.3176C81.4195 65.3176 81.4699 65.1126 81.1892 65.0976C80.8833 65.0813 80.9072 64.9445 81.0026 64.9238C81.098 64.903 81.418 65.1248 81.5069 64.7602C81.5983 64.3855 81.066 64.6012 81.1375 64.4079C81.209 64.2146 81.5862 64.5184 81.6176 64.2891C81.6479 64.0661 81.9527 63.969 81.4337 63.8971C81.1875 63.863 81.4151 63.7538 81.6916 63.7927C81.9876 63.8343 82.1663 63.4687 82.3372 63.3497C82.5081 63.2309 83.4732 62.6541 82.1863 62.8443C80.8992 63.0344 80.5221 63.6588 80.4386 63.7837C80.3548 63.9084 79.9973 64.6455 80.1125 65.8674Z" fill="#FDD406"/>
<path d="M83.1172 66.6998C83.2826 66.668 83.4389 66.7129 83.4951 66.8282C83.707 67.2629 83.2211 67.1077 82.9511 67.4287C82.681 67.7498 82.6731 67.6844 82.2917 67.572C81.9104 67.4597 81.7675 66.8817 81.7675 66.8817C81.7248 66.7044 81.8897 66.6893 82.0871 66.7119C82.0869 66.7121 82.7193 66.7765 83.1172 66.6998ZM81.7236 66.4686C81.7236 66.4686 81.7504 66.5987 81.9688 66.6165C82.1871 66.6343 82.8218 66.6893 83.1991 66.5675C83.1991 66.5675 83.3383 66.5401 83.2757 66.2944C83.2757 66.2944 83.2707 66.135 82.931 66.1996C82.5913 66.2642 82.0999 66.1996 81.9361 66.1638C81.7723 66.1283 81.6391 66.167 81.7236 66.4686ZM81.6719 65.6898C81.6719 65.6898 81.66 66.0287 82.0016 66.0733C82.3432 66.1178 82.7685 66.1161 82.9456 66.0812C83.0808 66.0544 83.3242 66.0051 83.3441 65.8057C83.364 65.6066 83.4196 65.4578 82.9985 65.562C82.5775 65.666 82.0692 65.5978 82.0175 65.5859C81.9658 65.5739 81.6799 65.4875 81.6719 65.6898ZM81.8269 65.006C81.8269 65.006 81.7435 65.1606 81.7554 65.3093C81.7673 65.4581 82.0135 65.5085 82.4584 65.5145C82.9034 65.5206 83.3004 65.4551 83.3282 65.3064C83.356 65.1577 83.4634 64.9853 83.1138 65.0389C82.7643 65.0924 82.3233 65.1073 82.1486 65.0359C81.9738 64.9644 81.8562 64.9397 81.8269 65.006Z" fill="#FDD406"/>
<path d="M98.1583 66.729C98.1583 66.729 98.1525 67.039 98.3966 67.3444L86.0488 66.9899C86.0488 66.9899 86.2291 66.8784 86.2752 66.3975L98.1583 66.729Z" fill="#784B26"/>
<path d="M81.9211 64.4948C81.9211 64.4948 81.8138 64.8069 82.0364 64.8695C82.2587 64.9318 82.6401 65.0002 83.1446 64.9201C83.1446 64.9201 83.3988 64.9379 83.4862 64.6674C83.5737 64.3969 83.5647 64.5486 82.8463 64.4057C82.8463 64.4057 82.6202 64.3398 83.2758 64.3373C83.2758 64.3373 83.6412 64.3493 83.6969 64.2867C83.7525 64.2244 84.237 63.8407 83.6094 63.8646C82.9819 63.8884 83.2917 63.7545 83.6094 63.7545C83.9272 63.7545 84.0265 63.82 84.1297 63.7188C84.233 63.6177 84.1376 63.6862 83.9667 63.5136C83.796 63.3412 83.915 63.3916 84.0382 63.4868C84.1615 63.582 84.2368 63.6117 84.3759 63.4897C84.515 63.3678 84.2686 63.1896 84.3759 63.2103C84.4832 63.231 84.5348 63.4347 84.9398 63.2385C85.3448 63.0423 85.8931 63.1448 86.042 63.2563C86.1909 63.3678 86.6139 63.5104 86.8701 63.2473C87.1264 62.9841 86.5662 62.7701 86.8047 62.7344C87.0431 62.6986 87.2098 62.7833 87.3052 62.5917C87.4006 62.3999 86.9358 62.2171 87.3826 62.0968C87.8294 61.9763 87.4542 60.7233 87.2992 60.6074C87.2992 60.6074 86.7988 60.9017 86.2505 61.7891C85.7023 62.6764 85.3808 63.1937 84.6359 62.9218C83.5615 62.5294 83.0124 63.0935 82.8461 63.1952C82.5884 63.3527 83.3848 63.4301 82.9202 63.4389C82.4554 63.4479 82.4554 63.4878 82.4079 63.5594C82.3602 63.6307 82.4018 63.6933 82.4853 63.6977C82.5688 63.702 82.7474 63.8805 82.4614 63.8715C82.1755 63.8625 81.9728 63.8179 82.0569 64.1219C82.0569 64.1219 82.0621 64.1882 82.229 64.206C82.3958 64.2237 82.4554 64.3978 82.1456 64.3978C81.9469 64.3982 81.927 64.4752 81.9211 64.4948ZM83.0631 67.5909C83.0631 67.5909 82.8426 67.747 83.1465 67.7648C83.4505 67.7825 83.6113 67.8405 83.7065 67.6777C83.8019 67.515 84.2129 67.5819 83.9389 67.3543C83.6649 67.1272 83.4802 67.2565 83.0631 67.5909Z" fill="#FDD406"/>
<path d="M84.3374 63.8756C84.3374 63.8756 85.3655 62.908 86.2248 63.5635C87.0841 64.2191 87.1674 64.3172 87.1793 64.3306C87.1912 64.344 87.2805 64.4153 87.0481 64.6205C86.8157 64.8257 87.0421 64.8211 87.2983 64.6962C87.5546 64.5714 87.5723 64.6873 87.6974 64.8255C87.8225 64.9638 87.9899 65.0441 87.5935 65.0485C87.1971 65.0529 86.3451 65.0485 86.3451 65.0485C86.3451 65.0485 85.7671 65.0975 86.0591 64.8613C86.3511 64.6249 86.3093 64.344 86.1604 64.3262C86.0114 64.3084 86.1484 64.4689 86.0591 64.5804C85.9698 64.6919 85.7671 64.7943 85.5646 64.79C85.3621 64.7856 85.1833 64.9366 85.505 65.0529C85.8267 65.169 85.4692 65.2451 85.3025 65.2405C85.1358 65.2359 84.3313 65.3029 85.1477 65.401C85.9639 65.4991 85.0741 65.4754 85.6719 65.817C86.3332 66.1948 85.8566 66.9974 85.6064 67.0688C85.6064 67.0688 85.3324 67.2179 85.678 67.1767C86.0236 67.1357 86.2141 67.0866 85.97 67.2738C85.7257 67.461 85.2373 68.0854 84.558 67.6083C84.558 67.6083 84.2482 67.4612 84.8024 67.4344C85.3565 67.4076 84.3495 67.2893 84.1828 67.1767C84.0161 67.0642 83.3785 66.4132 83.7776 66.4935C84.1767 66.5739 84.0338 66.3419 83.7954 66.2572C83.5569 66.1724 83.5094 65.8068 83.7776 65.8871C84.0458 65.9674 84.3614 66.1168 84.576 66.1068C84.7904 66.0967 84.731 66.0074 84.2721 65.8647C83.8134 65.7221 83.6226 65.6997 83.7299 65.3119C83.8372 64.924 84.3376 65.4635 84.2185 65.1736C84.0995 64.8837 83.6644 65.0265 83.8968 64.6429C84.1292 64.2595 84.1828 64.4243 84.2901 64.4735C84.3974 64.5226 84.5689 64.486 84.2662 64.2595C84.0752 64.1164 84.2834 63.9229 84.3374 63.8756Z" fill="#FDD406"/>
<path d="M85.0769 64.1441C85.0769 64.1441 85.0709 64.0149 85.2556 64.037C85.4403 64.0594 85.3926 63.9701 85.4461 63.9433C85.4997 63.9165 85.962 64.081 85.5296 64.2376C85.3698 64.2956 85.1188 64.2542 85.0769 64.1441Z" fill="black"/>
<path d="M86.0638 65.24C86.0638 65.24 85.7164 65.417 86.031 65.7816C86.2991 66.0924 86.2977 66.1909 86.2753 66.3976C86.2527 66.6043 98.1582 66.7291 98.1582 66.7291C98.1582 66.7291 98.1373 65.9644 98.6469 65.5341C98.6469 65.5343 92.1409 65.3827 86.0638 65.24Z" fill="#FDD406"/>
<path d="M98.3588 66.5204C98.3588 66.5204 98.4071 65.8753 98.764 65.6615C98.9606 65.5437 99.22 65.6123 99.3332 66.1324C99.4942 66.872 98.8673 67.5012 98.5763 67.2203C98.2992 66.953 98.3588 66.5204 98.3588 66.5204Z" fill="#784B26"/>
<path d="M84.7174 69.302C84.7174 69.302 85.5097 68.6287 85.629 68.3253C85.629 68.3253 87.7739 69.8448 87.6428 68.4496C87.6428 68.4496 87.6488 68.0756 87.7082 67.7189C87.7082 67.7189 88.4837 67.7951 88.6019 67.1759L86.6 67.1169C86.6 67.1169 86.3914 67.0724 86.0817 67.4068C85.7719 67.7413 85.1343 68.1074 84.5385 67.7882C84.5385 67.7882 84.2892 67.5717 84.0354 67.7545C83.7817 67.9373 83.7698 67.9909 83.9783 68.1871C84.1871 68.3835 84.6339 68.9855 84.7174 69.302ZM89.3229 65.1058L88.1492 65.0613C88.1492 65.0613 87.7202 64.4593 86.8862 63.7903C86.8862 63.7903 86.6418 63.6832 87.1125 63.3088C87.5832 62.9341 87.7202 62.5329 87.7382 62.3501C87.7561 62.1673 87.7085 61.8819 87.8871 62.1003C88.0657 62.3189 89.2813 63.4159 89.4541 63.0904C89.6269 62.7649 89.6566 62.6132 89.6865 62.5151C89.7164 62.417 89.758 62.1137 89.9308 62.4304C90.1036 62.7471 90.2222 62.6662 90.2287 63.4872C90.2287 63.4872 90.2584 64.2988 90.3837 64.5931C90.3833 64.5931 88.8462 64.1007 89.3229 65.1058ZM84.2287 62.6086C84.2287 62.6086 85.1224 63.1082 85.5633 62.4302C86.0043 61.7525 86.3021 61.6454 85.9685 60.9944C85.6348 60.3434 85.9777 60.0401 86.2293 59.7726C86.481 59.505 86.6954 59.5496 86.7312 58.515C86.7669 57.4804 87.4819 57.1327 87.8036 56.8116C88.1253 56.4905 88.9357 56 87.7082 55.795C86.481 55.5898 84.0501 54.9566 83.4186 54.0113C82.7871 53.066 82.5011 53.6279 82.4892 53.6634C82.4773 53.6992 82.2748 54.3947 82.9063 55.6523C83.5378 56.9099 84.0739 57.7184 84.6818 58.1257C85.2895 58.533 85.8377 58.7559 85.5277 59.5943C85.2177 60.4325 84.6816 61.9309 84.2287 62.6086Z" fill="#AD7D5A"/>
<path d="M87.5278 59.9342C87.5278 59.9342 87.6828 62.0835 89.2557 62.8506C89.2557 62.8506 89.6131 62.0122 89.4701 61.1828C89.4701 61.1828 89.9823 61.2273 90.1254 61.4593C90.1254 61.4593 90.1493 60.8351 89.4105 60.6075C88.6716 60.3802 89.0291 58.9799 89.2912 58.8195C89.5533 58.659 89.4699 58.3796 89.2912 58.1269C89.1126 57.8742 89.0649 57.4907 89.6845 57.6512C90.3041 57.8116 90.2087 57.4818 89.8395 57.1784C89.4703 56.8751 89.482 56.5007 90.0062 56.5007C90.5304 56.5007 91.4004 55.9924 90.876 55.8317C90.3518 55.6713 90.1848 55.5019 90.8998 55.2966C91.6148 55.0914 91.9604 54.8329 91.424 54.7706C90.8879 54.7082 90.5304 54.5208 91.0546 54.4317C91.5788 54.3426 90.9592 53.8075 90.3515 53.7807C89.7439 53.7539 88.4332 54.0037 89.4699 53.1743C90.5066 52.3449 87.9803 52.9513 89.017 52.4072C90.0537 51.8631 88.6714 52.1039 88.4808 52.0951C88.2903 52.0863 88.2924 52.0951 88.3627 51.8186C88.4332 51.5421 88.2185 51.4172 87.9207 51.5866C87.6228 51.756 87.6228 51.756 87.6347 51.3726C87.6466 50.9892 87.2772 51.2745 87.0509 51.3726C86.8246 51.4707 86.2524 51.8987 86.0261 51.6669C85.7998 51.4352 85.6686 51.1942 84.9656 51.6224C84.2625 52.0504 84.4294 51.6669 84.4414 51.4797C84.4533 51.2925 84.7154 50.5522 83.7502 51.3458C82.7851 52.1397 83.5716 50.4897 82.8089 51.0515C82.0462 51.6134 81.963 51.7115 81.8437 51.4617C81.7245 51.212 81.5802 51.007 80.7407 51.5421C79.9013 52.0771 80.5211 51.221 80.6401 51.0337C80.7591 50.8465 81.1168 49.6335 80.378 50.579C80.378 50.579 80.0205 51.239 79.2221 50.0617C79.2221 50.0617 78.3762 51.2312 78.1615 50.7133C77.9471 50.1956 77.7325 50.142 77.4585 50.4809C77.1844 50.8198 77.3869 50.4631 77.2679 50.1776C77.1489 49.892 77.0773 49.3659 75.6712 50.3916C74.2651 51.4172 76.1599 50.6681 75.0874 51.1318C74.0149 51.5956 71.4292 53.0582 73.8005 52.7193C76.1718 52.3805 72.6446 53.6468 73.4669 53.8788C74.2892 54.1108 74.0269 54.8241 77.1131 53.9769C80.1994 53.1297 79.6988 53.843 81.2716 53.1653C82.8445 52.4876 80.9141 53.3973 83.0233 53.3525C85.1325 53.308 83.3808 53.3615 83.786 53.7985C84.1912 54.2355 85.9784 55.2701 87.6466 55.4395C89.3149 55.609 89.72 54.9848 89.2433 55.7071C88.7666 56.4294 88.5999 56.7059 88.3139 56.9557C88.028 57.2054 87.2414 57.7761 87.2295 58.7751C87.2176 59.774 85.9188 59.9346 86.3955 61.0403C86.3959 61.0401 87.1348 60.3266 87.5278 59.9342Z" fill="#784B26"/>
<path d="M90.2742 62.3391C90.2742 62.3391 89.8928 62.0715 89.9008 61.5959C89.9008 61.5959 90.1708 61.6433 90.2742 61.8159C90.2742 61.8159 91.2353 60.7278 90.0874 60.3355C88.9396 59.9431 89.5113 58.9026 89.9006 58.8966C90.2898 58.8905 90.3576 58.7836 90.0298 58.3496C89.702 57.9155 89.7259 57.8977 90.3773 57.7848C91.0287 57.6718 90.9402 57.535 90.6507 57.3746C90.3614 57.2141 90.1394 56.9525 90.1394 56.9525C90.1394 56.9525 91.9819 56.1498 91.386 55.7813C90.79 55.4127 91.386 55.5079 91.9181 55.1271C92.4503 54.7466 92.5218 54.6753 92.6013 54.5266C92.6013 54.5266 92.0752 54.5801 91.687 54.5027C91.687 54.5027 92.1467 54.2768 91.687 53.9022C91.227 53.5275 91.0364 53.1887 90.3055 53.361C89.5747 53.5334 89.8129 53.2897 90.0991 52.9864C90.385 52.6831 90.2499 52.5107 89.7336 52.4335C89.7336 52.4335 89.7972 52.1243 90.1865 51.7378C90.1865 51.7378 89.1935 51.8091 88.8599 51.6367C88.8599 51.6367 89.2571 51.3633 89.2889 51.0362C89.2889 51.0362 88.7409 51.2146 88.0497 51.1491C88.0497 51.1491 88.4549 50.7984 88.4549 50.4892C88.4549 50.4892 87.2555 50.7567 86.6992 51.1789C86.6992 51.1789 86.58 51.155 86.4848 51.0243C86.3895 50.8935 86.3179 50.7626 84.9913 51.1847C84.9913 51.1847 85.1423 50.5961 85.4601 50.3582C85.7778 50.1204 85.7301 49.6447 83.6647 50.9349C83.6647 50.9349 83.3867 50.7684 83.1564 50.1501C83.1564 50.1501 82.7114 50.7804 82.3698 50.9944C82.3698 50.9944 82.0839 51.1144 82.1196 50.7126C82.1554 50.3107 81.9172 50.5971 81.7025 50.7126C81.4881 50.8281 81.345 51.1134 81.4524 50.3018C81.5597 49.4901 81.1664 49.3207 81.1664 49.3207C81.1664 49.3207 80.523 50.2304 80.1536 50.3285C80.1536 50.3285 79.4743 49.6686 79.2361 49.2316C78.9978 48.7946 78.9978 48.634 78.7594 49.392C78.5211 50.1501 78.2232 50.2124 78.2232 50.2124C78.2232 50.2124 77.818 49.8646 77.7704 49.6774C77.7704 49.6774 77.6988 49.8826 77.5679 49.9717C77.5679 49.9717 77.2104 49.5525 77.2223 48.9461C77.2223 48.9461 75.006 50.1679 74.732 50.9082C74.732 50.9082 72.6348 50.7833 71.765 50.9439C71.765 50.9439 71.9794 50.2662 72.5277 49.9273C72.5277 49.9273 71.9796 49.865 71.9557 49.3031C71.9557 49.3031 72.3967 49.3655 72.6707 49.2941C72.9448 49.2228 72.2894 48.429 72.9805 48.4112C73.6717 48.3934 74.1126 48.7411 73.8026 47.8225C73.4928 46.904 73.6359 46.904 73.6359 46.904C73.6359 46.904 74.8393 47.6175 75.0301 47.4391C75.2209 47.2607 74.8751 46.8773 75.9476 47.0557C77.02 47.2341 76.7221 46.6187 77.139 46.5919C77.5562 46.5652 77.7825 46.8595 77.5204 44.9153C77.2583 42.9712 78.8192 45.8786 77.7586 42.9444C77.7586 42.9444 77.4905 42.0571 76.8531 41.6781C76.8531 41.6781 76.71 42.3202 75.9892 41.7538C75.2683 41.1873 73.8503 40.9867 74.4461 40.541C75.0418 40.095 75.3219 39.4976 75.1491 39.1229C75.1491 39.1229 74.4465 39.8574 73.2247 39.3325C72.2595 38.9177 72.057 39.6804 71.068 39.4574C71.068 39.4574 71.0858 39.2032 71.92 38.5477C72.7542 37.8921 71.4374 38.7663 70.919 38.8821C70.4007 38.998 70.2518 38.9045 71.3481 38.0571C72.4444 37.21 74.613 35.7116 74.3151 34.4808C74.3151 34.4808 74.8274 35.1317 76.1739 34.6592C77.5204 34.1867 78.5213 34.017 78.9265 33.3215C79.3317 32.6258 80.3922 31.9212 80.6663 31.7696C80.9403 31.6179 81.3097 31.511 80.8926 32.171C80.4755 32.831 79.7963 33.9637 77.9375 34.7305C76.0787 35.4976 75.3637 36.0595 75.0301 36.4607C74.6964 36.8621 73.0044 37.7628 74.1007 37.6112C75.197 37.4595 77.1035 37.6379 76.2099 37.3792C75.3163 37.1206 74.3034 37.5396 75.1255 36.7905C75.9476 36.0415 76.0906 35.7917 77.2821 35.2922C78.4736 34.7927 79.7963 33.6512 79.6653 34.864C79.5342 36.0768 77.3179 37.3702 76.7698 37.7624C76.2218 38.1548 76.4243 38.0925 76.4362 38.2529C76.4481 38.4134 76.3527 38.7435 76.1264 38.8951C75.9001 39.0468 75.9714 39.2162 76.031 39.5551C76.0906 39.894 75.9714 40.0278 76.1383 40.0812C76.3052 40.1345 76.472 40.1615 76.5197 40.4023C76.5674 40.643 76.6924 40.6742 77.0142 40.6474C77.3359 40.6207 77.5384 40.6518 77.5622 40.8392C77.5861 41.0265 77.8898 41.2806 77.9256 40.71C77.9613 40.1391 78.1699 40.0276 77.5861 40.2908C77.0022 40.5539 76.8772 40.4602 76.8891 40.1883C76.901 39.9163 76.8355 39.9787 76.5912 39.9563C76.3469 39.9339 76.2634 39.5906 76.6985 39.3633C77.1334 39.1359 77.1275 39.3677 77.6697 38.9173C78.2119 38.4669 78.2119 38.342 78.2954 38.1324C78.3789 37.9228 77.5208 38.7435 77.1098 38.9307C76.6987 39.1179 76.8058 38.8014 76.8774 38.333C76.9489 37.8647 77.9737 37.2539 78.4443 37.2449C78.915 37.2359 79.9755 37.5124 79.5168 38.1546C79.0581 38.7968 77.7593 39.5593 78.3192 39.6172C78.8792 39.6752 78.9688 39.4568 79.2905 39.7421C79.6122 40.0274 79.3143 40.6073 79.1654 40.915C79.0164 41.2227 78.7067 41.6107 78.5696 41.682C78.5696 41.682 77.9798 40.6296 77.9977 41.4634C78.0157 42.2972 77.8727 42.5962 77.9977 42.6273C78.1228 42.6585 78.7782 43.0955 78.9867 43.1045C79.1953 43.1135 77.8547 43.7333 78.4148 43.7734C78.9748 43.8136 79.8626 43.5283 80.1724 42.9484C80.1724 42.9484 79.0344 42.6719 78.5757 42.2439C78.5757 42.2439 79.9044 41.9318 79.535 40.652C79.535 40.652 80.8577 41.0133 80.2858 41.6107C79.7139 42.2083 79.3683 42.119 79.8628 42.2885C80.3573 42.4579 80.6016 42.6005 80.6016 42.6005C80.6016 42.6005 80.9399 42.77 80.7439 43.0465C80.5479 43.3231 80.542 43.7423 80.7087 43.7333C80.8754 43.7243 81.4356 43.4657 80.965 43.1804C80.4943 42.8951 81.5011 42.944 81.0723 42.7033C80.6433 42.4625 80.5301 42.4045 80.4169 42.2885C80.3038 42.1726 85.8029 38.9485 83.0264 40.1569C83.0264 40.1569 83.6044 38.9039 84.4146 38.8993C85.2247 38.8947 85.2844 39.5369 84.8256 40.023C84.3669 40.5092 84.069 41.2672 82.9907 41.4455C82.9907 41.4455 84.5317 42.2006 82.7106 43.4343C82.7106 43.4343 82.3154 43.6216 82.4583 43.7584C82.6014 43.8952 83.6816 43.2827 83.8326 42.938C83.9837 42.593 84.214 42.3255 84.6271 42.1234C85.0402 41.9213 87.0739 40.5359 87.6855 39.4894C88.2972 38.4429 88.4641 38.4073 89.6556 37.4501C90.8471 36.4929 90.6406 36.683 90.7917 36.4513C90.9427 36.2195 91.0061 35.8388 91.5543 35.5296C92.1026 35.2204 94.2314 34.0373 94.8987 33.5556C95.566 33.074 96.9324 32.1882 97.5202 31.4389C98.108 30.6898 99.6911 29.7328 100.086 29.9108C100.481 30.0888 100.046 30.6482 99.1169 31.3556C98.1875 32.0631 95.8838 33.9241 95.5104 34.2095C95.137 34.4948 93.1828 35.9218 92.4519 36.017C91.7211 36.1122 91.8006 36.3678 91.3636 36.8435C90.9266 37.3191 89.9177 38.318 89.5761 38.5916C89.2345 38.865 88.4242 39.4239 88.3767 39.8164C88.329 40.2088 88.5198 40.2563 87.8684 40.8687C87.217 41.4812 85.3105 42.8664 84.6194 43.0865C84.6194 43.0865 85.8427 43.4908 85.1118 44.3173C84.3809 45.1438 84.4286 45.0247 84.3729 45.0783C84.3729 45.0783 86.2305 44.8049 84.913 46.2495C84.913 46.2495 84.6589 46.6658 85.2467 46.2317C85.8751 45.7678 85.6042 45.1318 85.5326 45.0425C85.5326 45.0425 86.5177 44.43 87.6537 44.4123C88.7898 44.3945 88.7501 44.3171 87.7332 44.0257C87.7332 44.0257 88.4562 43.1457 89.0678 43.5797C89.6794 44.0138 89.4809 44.2635 88.8375 44.6083C88.1941 44.9532 87.2408 45.0959 86.5338 45.4883C86.5338 45.4883 87.8763 45.75 88.5992 45.203C89.3222 44.656 89.354 44.9296 89.4491 45.0245C89.5445 45.1197 89.624 45.2979 89.3061 45.7558C88.9881 46.2137 88.9565 46.2374 88.9724 46.3386C88.9883 46.4396 88.9486 46.7549 88.2972 46.8618C87.6458 46.9689 87.3519 47.2423 87.5743 47.5514C87.7966 47.8606 87.8046 48.6277 87.2486 48.5563C86.6926 48.485 86.8434 48.0451 86.629 47.8725C86.4146 47.7002 86.1127 47.4326 85.1434 47.938C84.1742 48.4434 84.0947 47.8428 84.1424 47.5278C84.1424 47.5278 83.5149 48.0748 82.9905 47.5694C82.4663 47.0641 82.9428 46.8678 83.2446 46.6122C83.5465 46.3566 84.7777 45.8215 84.0391 45.9165C83.3005 46.0115 82.1962 46.0591 81.9418 45.4885C81.6877 44.9176 82.4899 44.9831 82.6171 45.0367C82.7443 45.0902 83.2685 45.5123 83.2844 44.9593C83.3003 44.4064 84.1184 44.3468 83.8404 44.2338C83.5624 44.1209 83.1731 44.4717 83.0618 44.6085C83.0618 44.6085 82.4899 43.8117 81.5685 44.0734C80.647 44.3351 81.8624 44.228 82.1086 44.2696C82.3548 44.3112 82.2119 44.7691 81.3856 45.5123C80.5594 46.2556 80.9328 46.0297 81.5446 46.0297C82.1563 46.0297 83.6578 46.0355 82.7838 46.749C81.9098 47.4625 81.5605 47.8192 81.1076 47.6943C80.6548 47.5694 81.1633 47.2722 81.3618 47.1473C81.5603 47.0224 81.6795 46.8024 81.2505 46.963C80.8215 47.1237 80.6706 47.1534 80.3291 46.5467C79.9875 45.9403 80.1305 46.1188 80.2734 45.7203C80.4165 45.322 80.7501 44.8999 80.3529 45.0484C79.9557 45.1969 79.9954 45.2088 80.0272 44.7511C80.059 44.2932 79.5743 44.1922 79.5743 44.1922C79.5743 44.1922 79.7649 44.6501 79.5902 44.9413C79.4156 45.2325 79.4076 45.3337 79.6936 45.4109C79.9795 45.4883 80.2496 45.732 79.8603 45.9995C79.471 46.2671 79.5187 46.2315 79.7649 46.392C80.0111 46.5524 80.3686 46.7369 79.9873 47.1113C79.6059 47.4858 79.9237 47.373 80.1144 47.373C80.3052 47.373 80.7365 47.5335 80.7432 47.9022C80.7499 48.2708 80.7181 48.3601 81.3377 48.0152C81.9573 47.6703 83.1965 47.7119 83.1806 48.1936C83.1647 48.6752 83.0216 48.7942 83.6812 48.384C84.3407 47.9738 84.6344 48.7706 85.0873 48.384C85.5402 47.9974 85.8261 47.623 86.3503 48.283C86.8745 48.9429 86.7112 49.1425 86.0723 49.6087C85.4335 50.075 86.3821 49.7158 86.8668 49.4661C87.3515 49.2163 88.7097 49.0498 89.4883 49.3947C90.2668 49.7397 90.4892 49.6623 91.0611 49.4245C91.633 49.1866 91.9269 49.1331 92.7929 49.7098C93.6587 50.2865 94.3339 50.3936 94.7868 50.3817C94.7868 50.3817 93.8256 50.7563 92.7452 50.8276C91.6648 50.899 91.1247 51.101 90.9103 51.2675C90.9103 51.2675 91.56 51.66 91.688 52.1415C91.688 52.1415 92.3959 52.0463 92.7454 52.189C92.7454 52.189 92.5628 52.7002 92.9996 52.9738C93.4366 53.2472 93.7384 53.3485 93.4127 53.7229C93.087 54.0976 93.9133 53.9369 93.4445 54.4661C92.9757 54.9954 92.8488 55.2629 92.8329 55.6909C92.817 56.1191 92.9362 56.1843 92.5151 56.226C92.094 56.2676 92.5867 56.7372 92.3959 57.2961C92.2053 57.8551 91.0295 57.7957 91.0772 59.2938C91.0772 59.2938 91.4029 58.5625 92.102 57.9203C92.8011 57.2782 92.8249 57.2187 92.809 56.8322C92.7931 56.4456 92.7613 56.5349 93.1347 56.2435C93.5081 55.9522 92.968 55.6788 93.3412 55.2625C93.7146 54.8462 93.3889 54.9295 93.8258 54.5073C94.2628 54.0852 93.4445 54.0317 93.8894 53.5976C94.3344 53.1636 92.817 52.6701 93.2539 52.3906C93.6909 52.1112 94.4454 51.7248 91.9035 51.7664C91.9035 51.7664 92.5151 50.7557 94.66 50.9757C94.66 50.9757 94.0961 51.374 94.0484 51.7664C94.0484 51.7664 94.2946 51.8913 94.4456 51.9269C94.4456 51.9269 94.3626 52.2145 93.9532 52.563C93.9532 52.563 95.0893 53.1991 95.2719 53.5738C95.2719 53.5738 94.5808 53.7878 94.4061 54.0911C94.4061 54.0911 94.708 54.436 94.8113 54.8818C94.8113 54.8818 94.0407 54.7866 93.9375 55.3633C93.8342 55.94 93.6039 55.5476 93.6039 55.8865C93.6039 56.2253 93.6277 56.3621 93.3577 56.4157C93.0876 56.4692 93.31 56.7546 93.3577 56.9449C93.4054 57.1353 93.4928 57.5691 93.4531 57.7059C93.4531 57.7059 93.0638 57.7118 92.8812 57.7653C92.8812 57.7653 93.0004 58.5918 92.5396 58.7106C92.0788 58.8294 92.7858 58.9959 92.2934 59.0853C91.8008 59.1744 91.8643 59.2041 91.2607 60.2864C91.2607 60.2864 91.7769 59.995 92.3093 59.6442C92.8414 59.2934 92.2695 59.4005 93.1512 58.5324C94.0329 57.6643 93.8742 57.5988 93.8026 57.1589C93.7311 56.719 93.7152 56.3621 94.0329 55.9461C94.3507 55.5298 94.454 55.0541 95.5819 55.1138C95.5819 55.1138 95.2483 54.3632 94.8351 54.1678C94.8351 54.1678 95.3752 53.7938 95.9473 53.7405C95.9473 53.7405 95.4468 53.1399 94.4222 52.5574C94.4222 52.5574 95.2642 51.8319 95.4629 51.4872C95.4629 51.4872 95.0736 51.5466 94.7638 51.4753C94.7638 51.4753 94.9098 51.1282 95.6693 50.631C95.6693 50.631 96.0745 51.0234 96.0586 51.4336C96.0586 51.4336 97.3614 50.6846 98.1003 50.7678C98.1003 50.7678 98.4736 51.7072 96.6623 53.4671C96.6623 53.4671 97.7825 53.5742 98.259 53.5087C98.259 53.5087 97.989 54.3768 96.6305 54.888C95.2721 55.3993 96.9242 55.9969 95.5342 55.893C94.1442 55.789 94.573 56.2676 94.6128 56.975C94.6525 57.6825 94.7002 58.4079 94.6684 58.6042C94.6684 58.6042 93.5562 58.2414 93.5801 59.3177C93.6039 60.3939 93.0082 60.6198 92.8889 60.7208C92.8889 60.7208 92.5661 60.4324 92.0785 60.263C92.0775 60.264 91.3876 61.5739 90.2742 62.3391Z" fill="#784B26"/>
<path d="M88.6792 48.8489C88.6792 48.8489 89.0606 48.7865 89.704 49.1877C90.3475 49.5889 90.979 48.7597 90.264 48.5455C89.549 48.3313 90.2759 48.0818 90.9194 48.5991C91.5628 49.1164 91.813 48.8576 92.0514 48.6794C92.2899 48.5012 92.5757 48.4029 92.1349 48.0998C91.694 47.7965 92.4328 47.9393 92.7664 48.1533C93.1001 48.3673 92.9689 48.5903 92.9214 48.6529C92.8739 48.7154 92.838 49.4109 93.4933 48.76C94.1487 48.109 94.4704 47.4578 94.4585 47.1367C94.4585 47.1367 94.816 47.3597 94.8637 47.7699C94.9114 48.1801 95.4117 47.5469 95.5787 47.3239C95.7454 47.1009 96.0315 46.5382 95.9958 46.1151C95.9958 46.1151 96.4367 46.797 97.0921 46.1151C97.7474 45.4331 97.4615 45.8613 98.248 45.6561C99.0345 45.4509 100.024 44.8713 100.56 44.2203C101.096 43.5693 101.132 44.0063 101.823 43.8457C102.514 43.6852 103.908 42.7219 104.039 42.1956C104.17 41.6695 104.146 41.3485 103.944 41.5267C103.741 41.7049 103.824 41.5624 103.526 41.375C103.229 41.1878 102.788 41.6158 102.788 41.6158C102.788 41.6158 103.229 41.9547 102.895 42.0973C102.561 42.24 102.24 42.7127 101.608 42.5343C100.977 42.3559 100.321 43.1139 100.321 43.1139C100.321 43.1139 100.869 43.5687 100.131 43.8542C99.3918 44.1396 99.511 44.2377 99.0582 43.9256C99.0582 43.9256 98.2717 44.9244 97.819 45.1296C97.819 45.1296 97.6046 45.1118 97.4615 44.9244C97.4615 44.9244 96.9492 45.504 96.6869 45.6201C96.6869 45.6201 96.3652 45.308 96.0673 45.2099C96.0673 45.2099 95.4477 45.977 94.9233 46.2178C94.9233 46.2178 94.7683 45.9324 94.4346 45.7362C94.4346 45.7362 94.2698 46.7395 93.1716 47.3327C93.1716 47.3327 93.2431 47.0652 92.6949 46.6995C92.6949 46.6995 91.3365 47.8768 90.8003 47.9927C90.2642 48.1086 90.7646 47.7429 90.8361 47.5913C90.9076 47.4396 91.2413 46.9403 90.5859 46.7351C89.9306 46.5299 90.0379 46.8777 89.8948 46.9403C89.7517 47.0026 89.7398 46.8244 89.299 46.8867C88.8581 46.9491 88.9296 47.1453 88.7391 47.2168C88.5485 47.2882 87.7858 47.0919 87.8216 47.6003C87.8574 48.1086 88.2149 48.4564 87.5476 48.7507C86.8799 49.0451 87.7975 48.9827 88.6792 48.8489Z" fill="#AD7D5A"/>
<path d="M91.4316 47.414C91.4316 47.414 91.5866 46.7718 91.0264 46.4598C91.0264 46.4598 94.6249 45.9069 91.9081 44.5334C91.9081 44.5334 95.1372 43.8644 94.3747 42.83C93.6121 41.7954 92.8707 42.0274 92.7588 42.0452C92.6469 42.063 93.4453 41.4476 93.6597 41.5279C93.8742 41.6082 96.472 42.6071 95.8047 41.7509C95.1374 40.8947 95.197 40.9482 95.0897 40.6985C95.0897 40.6985 95.9476 40.6985 97.2466 41.9649C97.2466 41.9649 97.5206 41.6795 97.4848 41.1622C97.4848 41.1622 98.4142 41.4208 98.7002 41.6973C98.7002 41.6973 98.8552 41.3762 98.7956 41.1978C98.7956 41.1978 99.594 41.6258 99.868 42.0808C99.868 42.0808 100.237 41.7597 100.297 41.394C100.297 41.394 101.096 41.7241 101.298 41.9737C101.298 41.9737 101.56 41.6258 101.465 41.1265C101.465 41.1265 102.787 41.5189 102.966 40.6985C102.966 40.6985 104.297 40.9869 103.432 41.5049C102.32 42.1707 103.32 41.3407 102.179 42.1343C101.295 42.7497 100.801 43.472 100.376 43.3235C100.064 43.2143 99.689 44.1232 99.2599 43.6772C98.8309 43.2313 98.8309 43.4365 98.533 43.9002C98.2352 44.364 97.7704 44.8367 97.7704 44.8367C97.7704 44.8367 97.5384 44.7028 97.3625 44.5246C97.3625 44.5246 97.1031 44.9526 96.7694 45.2737C96.7694 45.2737 96.5073 44.9258 96.0902 44.7118C96.0902 44.7118 95.4349 45.4699 95.0297 45.7285C95.0297 45.7285 94.6483 45.3538 94.2432 45.2289C94.2432 45.2289 94.1835 46.2545 93.3853 46.7808C93.3853 46.7808 93.2186 46.442 92.7061 46.2368C92.7065 46.2368 92.3013 46.8852 91.4316 47.414Z" fill="#784B26"/>
<path d="M89.543 45.8427C89.543 45.8427 89.1058 46.1787 89.3879 46.5385C89.6701 46.898 89.6858 46.4761 90.0433 46.4403C90.4008 46.4046 94.8097 45.6465 90.8179 44.4515C90.8179 44.4515 90.9846 44.2998 91.6758 44.2375C92.3669 44.1751 94.8691 43.4972 93.7015 42.6054C92.5338 41.7135 91.5626 42.9085 92.5455 41.8384C93.3321 40.9822 92.7005 40.563 92.7005 40.563C92.7005 40.563 90.377 42.1149 89.8647 42.4002C89.3524 42.6855 88.6136 43.2296 89.4833 43.515C90.3531 43.8003 90.9491 42.5697 91.0323 42.846C91.1158 43.1225 89.2806 44.1391 89.543 44.6119C89.8051 45.0846 89.7454 45.4771 90.1983 45.3877C90.6512 45.2986 91.8785 45.6197 90.8775 45.584C89.8766 45.5482 89.543 45.8427 89.543 45.8427Z" fill="#784B26"/>
<path d="M91.1379 43.6224C91.1379 43.6224 90.7327 43.9071 91.2691 43.7644C91.8052 43.6218 92.8777 43.3898 92.6752 43.1135C92.4723 42.8369 91.7575 43.1683 91.1379 43.6224Z" fill="black"/>
<path d="M98.2146 39.0213C98.2146 39.0213 100.264 38.9678 101.11 39.5386C101.956 40.1095 102.361 40.4839 102.611 40.5642C102.611 40.5642 102.576 41.3401 101.265 40.7872C101.265 40.7872 101.336 41.1619 101.193 41.5275C101.193 41.5275 100.705 41.2064 100.145 41.0638C100.145 41.0638 100.049 41.3581 99.8707 41.5275C99.8707 41.5275 99.2868 40.9389 98.6315 40.7604C98.6315 40.7604 98.5003 41.0548 98.3813 41.1619C98.3813 41.1619 97.6782 40.7604 97.1421 40.7694C97.1421 40.7694 97.2494 41.1976 97.1421 41.3671C97.1421 41.3671 95.6525 40.1988 94.3299 40.3504C94.3299 40.3504 94.9733 41.287 95.3904 41.7507C95.3904 41.7507 92.7094 41.5367 93.1503 40.0919C93.5913 38.6471 93.1145 39.01 94.8662 39.0203C96.6179 39.0305 98.2146 39.0213 98.2146 39.0213Z" fill="#AD7D5A"/>
<path d="M85.6475 43.0132C85.6475 43.0132 85.3377 43.2657 85.6475 43.4799C85.9573 43.6939 87.0178 42.927 87.1607 42.8199C87.3038 42.7128 87.6849 42.7308 87.1607 43.1232C86.6365 43.5157 86.1001 43.9436 85.7665 44.3718C85.7665 44.3718 87.542 43.8903 88.6977 42.8915C89.8534 41.8926 88.644 42.5396 90.6161 41.5893C92.5883 40.639 93.6189 39.1099 92.5584 39.2705C91.4978 39.431 90.5446 40.644 89.7225 41.1078C88.9004 41.5715 88.4356 41.6339 88.5666 41.3663C88.6977 41.0988 89.3054 41.2059 90.4373 40.2961C91.5694 39.3864 91.319 39.449 91.3309 39.1279C91.3428 38.8068 90.9019 38.0131 92.6059 37.1212C94.3099 36.2292 99.6124 33.1256 100.065 32.0645C100.065 32.0645 98.5161 32.2339 96.4784 33.741C94.4408 35.2482 93.3499 35.9529 92.7872 36.1401C92.2245 36.3274 92.2961 36.2025 91.9267 36.6397C91.5572 37.0766 89.5435 39.021 89.174 39.3063C88.8046 39.5916 88.6973 39.7791 88.6657 40.3608C88.6519 40.6258 86.3505 42.3593 85.6475 43.0132Z" fill="#784B26"/>
<path d="M92.6521 38.9704C92.6521 38.9704 92.2589 39.153 91.8775 38.9704C91.4962 38.7878 91.6154 37.9672 92.5329 37.4766C93.4504 36.9861 95.1186 36.2548 95.9647 36.1477C95.9647 36.1477 95.8455 37.2091 93.2121 38.1008C93.2121 38.1008 93.379 38.6535 92.6521 38.9704Z" fill="#784B26"/>
<path d="M93.5819 38.2809C93.5819 38.2809 93.6585 38.5419 93.5819 38.7804C93.5819 38.7804 98.4793 39.2531 101.006 36.2742C101.006 36.2742 97.5379 36.5953 96.1559 37.4247C96.1559 37.4247 97.0256 36.3365 99.6235 35.4358C102.221 34.5351 103.282 33.4201 103.508 32.8049C103.508 32.8049 100.223 33.9554 98.6583 33.9554C98.6583 33.9554 98.3485 33.9464 98.0506 34.1159C97.7528 34.2853 95.6555 35.8104 95.0955 36.069C95.0955 36.069 96.2751 35.9709 96.6922 35.5875C96.692 35.5875 95.8722 37.792 93.5819 38.2809Z" fill="#AD7D5A"/>
<path d="M84.2063 41.0784C84.2063 41.0784 83.5747 41.5243 83.8369 41.7473C84.099 41.9703 84.5504 42.0149 85.5103 41.2122C86.4702 40.4096 88.7938 38.4117 87.3256 38.3316C87.3256 38.3316 85.4455 38.2157 85.5103 39.3662C85.576 40.528 84.3006 41.0054 84.2063 41.0784ZM79.8689 40.4004C79.8689 40.4004 81.1081 41.1227 80.6435 41.7203C80.6435 41.7203 84.4447 38.4918 83.3723 37.7961C82.2998 37.1004 81.4539 38.4115 81.716 38.5452C81.9781 38.6791 82.538 38.4293 82.3356 38.6791C82.1331 38.9288 80.1074 40.2935 79.8689 40.4004ZM78.8799 39.357C78.8799 39.357 79.7139 39.6068 79.7497 39.9634C79.7854 40.3201 82.2638 38.2153 81.6084 37.3326C81.3078 36.9278 79.9283 36.7617 79.8687 37.5555C79.8091 38.3494 81.1079 37.4752 80.6552 38.0461C80.0615 38.7945 79.0587 39.2321 78.8799 39.357ZM87.7998 37.5982C87.7998 37.5982 87.2687 37.9835 87.7454 38.2155C88.2221 38.4475 88.5319 38.0816 88.7702 37.8676C89.0084 37.6536 90.1882 36.7885 90.4622 36.2356C90.7363 35.6827 91.1415 35.5133 91.5705 35.2278C91.9995 34.9425 95.0262 33.4351 96.8849 31.7673C98.7437 30.0995 97.9693 30.5277 99.8997 29.4573C101.83 28.3871 103.093 27.4061 103.498 26.2466C103.498 26.2466 102.605 26.5409 101.818 27.0492C101.032 27.5575 99.2562 28.6725 98.8987 28.8239C98.5412 28.9753 98.0409 29.0023 97.7786 29.2787C97.5164 29.5552 97.5403 29.8851 96.6107 30.6521C95.6813 31.4192 90.8791 34.8082 90.2953 35.2897C89.7115 35.7719 87.7998 37.5982 87.7998 37.5982Z" fill="#784B26"/>
<path d="M83.9297 38.7219C83.9297 38.7219 84.4539 38.4329 85.4389 38.5002C86.424 38.5674 90.3164 34.7979 91.4445 34.0369C92.5726 33.2759 96.0996 30.731 96.5764 30.2673C97.0531 29.8035 97.1324 29.304 97.5455 29.0306C97.9586 28.7572 98.34 28.7928 99.2932 28.2457C100.246 27.6987 104.822 24.9637 104.552 23.3704C104.552 23.3704 97.7363 27.4609 96.1632 28.7928C94.5904 30.1246 90.2212 33.145 89.4426 33.6326C88.6641 34.1202 88.0445 34.9644 86.7417 36.0227C85.4389 37.0809 84.1523 37.9727 83.9297 38.7219Z" fill="#AD7D5A"/>
<path d="M82.5029 37.273C82.5029 37.273 83.7643 37.1439 83.9329 37.7606C83.9329 37.7606 86.6338 35.9056 87.2534 35.1446C87.873 34.3836 87.047 34.8235 88.588 33.8127C90.129 32.8019 95.245 29.2226 95.9759 28.5805C96.7067 27.9383 98.089 27.094 99.201 26.3449C100.313 25.5959 104.666 23.4672 104.174 21.7191C104.174 21.7191 100.981 23.8595 100.266 24.3234C99.5506 24.7872 99.2487 24.5255 98.5178 25.0963C97.7869 25.6672 96.1823 26.8087 95.8964 27.1654C95.6104 27.522 93.1636 29.4009 91.9721 30.1976C90.7806 30.9944 88.1115 32.5403 86.8244 33.6581C85.5373 34.7758 83.043 36.845 82.5029 37.273Z" fill="#AD7D5A"/>
<path d="M78.5693 36.9052C78.5693 36.9052 79.2075 36.9144 79.3981 37.1642C79.3981 37.1642 80.5779 36.1294 81.833 37.1521C81.833 37.1521 86.4404 34.0365 86.9012 33.2517C87.3621 32.4668 88.1086 32.4549 89.904 31.1469C91.6994 29.8389 92.8273 29.2919 94.019 28.3644C95.2105 27.4369 96.2115 26.3903 97.0695 25.8316C97.9274 25.2727 100.088 23.8576 99.7228 22.6328C99.7228 22.6328 97.9751 23.6317 96.8313 24.8803C95.6875 26.1289 95.7826 25.0587 94.6229 26.105C93.463 27.1515 91.6678 28.5784 90.1743 29.3157C88.6807 30.0531 89.5865 29.9698 88.5061 30.6595C87.4256 31.3492 87.5051 31.2423 87.1079 31.3373C86.7107 31.4324 86.107 31.7178 85.7097 32.1815C85.3125 32.6453 84.248 33.2755 83.0883 33.9296C81.9284 34.5835 79.0766 36.281 78.5693 36.9052Z" fill="#AD7D5A"/>
<path d="M79.9584 34.5154C79.9584 34.5154 79.7082 33.9981 80.149 33.6325C80.5899 33.2668 81.3882 32.3035 81.5193 31.6971C81.6505 31.0907 81.5551 31.1888 82.8301 30.6625C84.105 30.1364 87.0005 28.7807 88.6332 27.7729C90.2656 26.765 92.7442 25.142 93.2565 24.7496C93.7688 24.3572 95.0121 23.4832 95.5165 23.073C95.5165 23.073 95.7587 23.7597 95.2106 24.2325C94.6626 24.7052 92.5534 26.1856 92.2078 26.4176C91.8623 26.6496 89.92 27.9515 89.3243 28.2816C88.7285 28.6117 87.2509 29.3608 86.7267 29.7978C86.2025 30.2347 86.2698 30.3686 83.9303 31.5101C81.5909 32.6516 81.4836 32.7677 81.5551 32.8568C81.6266 32.9459 82.6753 32.4912 83.1756 32.1968C83.6762 31.9025 85.5946 31.0286 86.1665 30.5736C86.7384 30.1188 87.7035 29.4053 88.1207 29.1733C88.5378 28.9414 91.9932 26.8724 92.9822 26.1411C93.9712 25.4098 94.2453 25.169 94.4599 25.2939C94.6743 25.4188 95.0199 25.4277 94.5791 25.8467C94.1382 26.2659 92.7323 27.4968 92.1959 27.8534C91.6598 28.2101 89.9797 29.2091 89.5149 29.4499C89.0501 29.6906 88.8714 30.1366 88.6093 30.3238C88.3472 30.5111 87.5845 31.0551 86.6551 31.2691C85.7257 31.4831 85.5588 32.1789 84.9512 32.5713C84.3435 32.9637 80.0189 35.2915 79.8877 35.4074C79.8877 35.4074 80.1492 35.1396 79.9584 34.5154Z" fill="#AD7D5A"/>
<path d="M94.9268 24.8042C94.9268 24.8042 94.6885 25.0153 94.8195 25.1343C94.9924 25.2912 95.5941 25.714 96.3446 24.9693C97.0953 24.2246 99.112 22.6014 99.7659 22.2179C100.42 21.8345 100.73 21.4688 100.706 20.9425C100.706 20.9425 97.6078 22.5926 94.9268 24.8042ZM99.1926 24.5189C99.1926 24.5189 99.6693 23.7251 100.837 22.976C102.005 22.2269 103.758 21.1362 103.995 20.8712C103.995 20.8712 104.412 21.344 103.494 21.9236C102.577 22.5032 100.789 23.6895 100.575 23.8589C100.36 24.0284 100.003 24.2869 99.1926 24.5189Z" fill="#AD7D5A"/>
<path d="M75.4447 33.1597C75.4447 33.1597 74.1459 33.8554 74.6107 34.2924C75.0755 34.7294 75.7667 34.5957 76.0526 34.4708C76.3386 34.3459 76.8866 34.2123 76.9701 34.1855C77.0536 34.1587 78.1854 33.8376 78.4714 33.3115C78.7573 32.7854 79.52 32.1788 80.1277 31.7418C80.7354 31.3049 80.9498 30.8679 80.8665 30.5558C80.8663 30.5556 75.7514 32.9718 75.4447 33.1597ZM67.7232 39.1619C67.7232 39.1619 68.6206 38.6283 69.8801 38.9657C69.8801 38.9657 69.8205 38.6588 69.6299 38.5001C69.6299 38.5001 71.1551 38.1005 71.4887 37.4228C71.8224 36.745 71.8939 36.8877 72.1918 36.6915C72.4896 36.4953 74.5511 34.8365 74.3129 34.4796C74.0746 34.1227 74.0269 33.6592 73.8481 33.4718C73.8481 33.4718 73.419 34.0604 71.4172 35.0325C69.4153 36.0045 67.1871 36.7358 65.5666 38.9209C63.9461 41.106 64.1128 42.3724 66.0908 42.9253C66.0908 42.9253 67.485 42.0513 70.881 42.3544C74.2771 42.6578 75.4328 43.9329 75.6474 44.1649C75.8618 44.3969 76.553 45.2351 75.8857 46.6531C75.8857 46.6531 76.5649 46.9474 76.6245 46.2965C76.6841 45.6455 76.7199 45.7969 76.8747 45.895C77.0297 45.9931 77.2203 46.0109 77.1487 45.5116C77.0772 45.0121 76.8389 43.8974 76.5291 43.5139C76.2193 43.1305 76.5649 43.2999 76.7674 43.3801C76.9699 43.4604 77.6849 44.04 77.256 42.9698C76.827 41.8997 76.7199 42.4258 76.708 42.4793C76.6961 42.5329 76.6126 42.8004 75.6832 42.1047C74.7538 41.4089 73.9077 41.0701 73.2762 40.8918C72.6446 40.7136 73.0856 40.7134 73.4548 40.5797C73.8242 40.4459 74.3246 40.3658 74.4915 39.9556C74.4915 39.9556 74.1221 40.0447 73.4429 39.8039C72.7637 39.5631 71.4052 39.5364 70.3089 40.3568C70.3089 40.3568 70.6545 39.0904 69.6536 39.1617C68.6526 39.233 67.9496 39.2063 66.889 40.0447C66.889 40.0447 66.8294 38.7693 67.8303 38.1093C68.8313 37.4494 68.7001 37.8508 69.2603 37.6813C69.8205 37.5119 69.868 36.95 69.6297 36.7716C69.6297 36.7716 70.9404 36.9946 73.1448 35.1663C73.1448 35.1663 71.9604 36.7183 70.5208 37.0304C70.5208 37.0304 70.2928 37.8564 68.9861 38.0382C67.6795 38.22 67.7113 38.9747 67.7232 39.1619Z" fill="#AD7D5A"/>
<path d="M63.9602 46.7218C63.9602 46.7218 64.6032 42.8787 68.2021 42.6005C71.3558 42.3568 72.3567 42.7492 72.9844 42.9513C73.6122 43.1534 75.1451 43.6054 74.5493 44.0989C73.9536 44.5923 73.612 44.5032 73.612 44.5032C73.612 44.5032 74.3031 43.7361 73.6756 43.6054C73.048 43.4747 72.9924 43.8552 72.905 44.1763C72.8175 44.4973 72.7778 44.8837 72.468 45.1335C72.468 45.1335 72.1502 44.7649 71.6974 45.086C71.2445 45.4071 71.6338 45.419 71.8166 45.3654C71.9992 45.3119 72.2377 45.2167 72.19 45.4962C72.1423 45.7757 71.8881 46.2572 71.1413 46.6496C70.3946 47.042 70.4343 47.0182 69.5447 47.1608C68.655 47.3035 67.8288 47.6543 66.6929 48.6295C65.5568 49.6045 64.3137 49.2792 64.0635 48.1896C63.8491 47.2552 63.9602 46.7218 63.9602 46.7218Z" fill="#784B26"/>
<path d="M68.0842 46.6005C68.0842 46.6005 68.4298 45.8425 67.8102 45.4946C67.8102 45.4946 65.9154 45.8195 65.3555 45.2448C65.3555 45.2448 67.4169 45.1377 68.6919 44.6384C69.9669 44.1389 69.5855 43.7912 69.1448 43.7109C68.7038 43.6306 67.8937 43.8268 67.8102 44.2282C67.8102 44.2282 67.56 43.8002 67.8817 43.5147C68.2035 43.2292 68.704 43.1758 69.1567 43.3095C69.6096 43.4434 70.0146 43.6396 71.5041 42.8635C71.5041 42.8635 72.362 43.0597 72.3858 43.6394C72.4097 44.219 72.3262 44.4598 72.2547 44.5491C72.1831 44.6382 72.076 44.8077 71.8972 44.7899C71.7185 44.7721 71.492 44.7275 71.2657 45.1287C71.0393 45.5302 70.9034 45.8778 70.5245 46.1454C70.5245 46.1454 70.9678 44.8968 69.8715 44.6024C69.8715 44.6024 68.9659 45.1375 68.2748 45.1643C68.2748 45.1647 69.1567 45.9851 68.0842 46.6005Z" fill="black"/>
<path d="M70.059 44.309C70.059 44.309 69.6419 43.8497 70.1901 43.8007C70.7382 43.7518 71.4651 44.153 71.3222 44.4918C71.1791 44.8307 70.5357 44.8173 70.059 44.309Z" fill="#784B26"/>
<path d="M101.031 38.2179C101.031 38.2179 100.03 38.5033 100.96 39.1187C101.889 39.7341 102.342 40.2692 103.021 40.4476C103.7 40.626 104.404 40.8756 104.392 41.5535C104.38 42.2313 104.248 42.4988 103.879 42.9626C103.51 43.4263 104.082 43.6316 104.57 43.364C105.059 43.0965 105.476 42.9538 105.798 42.7664C106.119 42.579 106.656 42.6059 106.167 42.8555C105.678 43.1053 105.166 43.2569 105.798 43.2747C106.429 43.2925 110.23 43.3638 111.029 43.1053C111.827 42.8467 112.864 42.7664 112.959 41.7318C112.959 41.7318 112.995 41.2724 113.293 41.0808C113.591 40.889 113.793 40.4476 113.358 40.7463C112.923 41.045 112.59 41.1967 112.506 41.1076C112.423 41.0185 112.399 40.9559 112.715 40.8089C113.031 40.6618 113.209 40.7999 113.501 40.3675C113.793 39.9349 113.765 40.0062 113.609 39.8414C113.454 39.6764 113.126 39.5561 113.287 39.3465C113.448 39.1369 113.609 38.5127 112.912 38.8783C112.215 39.244 110.842 40.1863 110.207 40.3351C109.571 40.4838 109.086 40.6771 108.229 40.8509C107.371 41.0247 106.838 41.209 105.925 41.7144C105.011 42.2198 105.075 41.4354 105.234 41.328C105.234 41.328 105.583 41.9403 106.513 41.1436C107.442 40.3468 107.14 41.0938 109.412 40.3468C111.685 39.5998 111.128 39.4787 112.018 39.0149C112.907 38.5512 113.749 38.5334 113.13 37.915C112.51 37.2967 112.439 37.2432 111.637 37.915C110.834 38.5869 108.618 39.669 107.291 39.6987C107.291 39.6987 112.415 37.4869 111.891 37.166C111.367 36.8449 110.802 36.5596 110.445 36.4822C110.087 36.4048 109.992 36.3157 109.166 36.6842C108.34 37.0528 108.205 37.1421 107.966 37.1658C107.728 37.1894 107.037 37.3262 106.06 37.8316C105.083 38.337 104.559 38.539 103.907 38.9375C103.907 38.9375 104.36 38.0219 106.378 37.4155C108.396 36.8091 109.428 36.2502 109.206 36.1491C108.983 36.0481 108.483 35.9649 108.101 36.0243C107.72 36.0837 107.831 35.9946 106.6 36.4822C105.369 36.9698 105.893 36.8627 104.9 37.0767C103.907 37.2906 103.502 37.5107 103.01 37.7188C103.01 37.7188 103.21 37.4511 103.879 37.2059C104.223 37.0802 103.503 36.9505 104.457 36.9118C104.535 36.9087 104.63 36.9313 104.725 36.9043C105.959 36.5506 107.307 36.0659 107.1 36.0303C106.894 35.9946 105.694 35.8699 104.479 36.4286C103.264 36.9875 103.82 36.7972 103.391 36.8865C102.962 36.9756 102.056 37.5465 101.754 37.7902C101.452 38.0337 101.031 38.2179 101.031 38.2179Z" fill="white"/>
<path d="M71.0166 43.7544C71.0166 43.7544 71.4933 43.8971 71.6123 44.2315C71.7313 44.566 72.0294 44.0845 72.0175 43.9328C72.0056 43.7812 71.7136 43.1124 71.1952 43.4245C70.6769 43.7366 70.9369 43.7255 71.0166 43.7544Z" fill="#784B26"/>
<path d="M69.6899 50.365C69.6899 50.365 70.7071 49.8866 71.5606 49.9458C71.5606 49.9458 71.2269 48.7417 71.8227 48.9469C72.4184 49.1521 72.2517 49.0718 72.3707 49.0628C72.3707 49.0628 72.4065 48.269 72.2515 47.9569C72.2515 47.9569 72.8592 48.0995 73.4788 48.1085C73.4788 48.1085 72.8949 46.967 73.5384 46.1822C73.5384 46.1822 73.8917 46.9312 74.6861 47.1187C74.6861 47.1187 74.6899 46.7976 74.6861 46.4587C74.6861 46.4587 75.1589 46.4052 75.5283 46.6014C75.8977 46.7976 76.2075 44.5324 75.1112 44.0328C75.1112 44.0328 74.8491 44.4608 73.8243 44.675C72.7995 44.889 72.8079 45.0949 72.3866 45.8661C71.9653 46.6374 71.5961 46.6461 70.7381 47.199C69.8802 47.7519 69.3587 48.8756 69.3096 48.9737C69.31 48.9737 69.7614 49.5266 69.6899 50.365Z" fill="#AD7D5A"/>
<path d="M103.878 37.2059C104.251 37.1407 103.502 36.9505 104.456 36.9118C104.534 36.9087 104.629 36.9313 104.724 36.9043C105.958 36.5506 107.306 36.0659 107.099 36.0303C106.893 35.9946 105.693 35.8699 104.478 36.4286C103.263 36.9875 103.819 36.7972 103.39 36.8865C102.961 36.9756 102.055 37.5465 101.753 37.7902C101.451 38.0339 101.03 38.2182 101.03 38.2182C101.03 38.2182 100.029 38.5035 100.959 39.1189C101.888 39.7343 102.341 40.2694 103.02 40.4478C103.699 40.6262 104.403 40.8758 104.391 41.5538C104.379 42.2315 104.248 42.499 103.878 42.9628C103.509 43.4266 104.081 43.6318 104.569 43.3642C105.058 43.0967 105.475 42.954 105.797 42.7666C106.118 42.5792 106.655 42.6061 106.166 42.8557C105.677 43.1055 105.165 43.2571 105.797 43.2749C106.428 43.2927 110.229 43.364 111.028 43.1055C111.826 42.8469 112.863 42.7666 112.958 41.732C112.958 41.732 112.994 41.2726 113.292 41.081C113.59 40.8892 113.792 40.4478 113.357 40.7465C112.922 41.0452 112.589 41.1969 112.505 41.1078C112.422 41.0187 112.398 40.9561 112.714 40.8091C113.03 40.662 113.208 40.8001 113.5 40.3677C113.792 39.9351 113.764 40.0064 113.608 39.8416C113.528 39.7569 113.403 39.6841 113.322 39.6048C113.322 39.6048 113.093 39.4046 112.827 39.5741C112.561 39.7435 111.393 40.237 110.925 40.2934C110.456 40.3499 109.971 40.5491 109.129 40.9593C108.287 41.3695 106.889 42.2049 106.666 41.4289C106.666 41.4289 106.057 41.6464 105.924 41.7142C104.985 42.1928 105.067 41.5136 105.233 41.3278C105.233 41.3278 104.74 41.8807 104.76 41.3783C104.78 40.8758 105.097 40.962 105.645 40.8015C106.194 40.6411 107.06 40.2842 106.702 39.987C106.345 39.6897 105.967 40.2821 105.57 40.4631C105.173 40.644 104.378 40.8045 104.255 40.2278C104.132 39.651 104.136 39.2496 103.06 39.1873C101.984 39.125 102.023 38.4531 102.317 38.1646C102.611 37.8761 102.869 37.3827 103.878 37.2059Z" fill="#CCCCCC"/>
<path d="M107.296 42.4203C107.296 42.4203 108.972 41.6474 110.513 41.2847C112.054 40.9219 110.847 41.3322 110.585 41.4154C110.322 41.4987 107.923 42.2894 107.359 42.5511C106.795 42.8127 106.912 42.5889 107.296 42.4203ZM107.685 42.7592C107.685 42.7592 109.568 42.135 109.917 42.3965C110.267 42.6582 109.981 42.5272 109.568 42.5868C109.155 42.6462 108.019 42.8366 107.717 42.8305C107.415 42.8247 107.685 42.7592 107.685 42.7592ZM110.704 42.1053C110.704 42.1053 111.061 42.0398 111.101 42.1708C111.141 42.3015 110.942 42.3195 110.744 42.2956C110.545 42.2718 110.37 42.1586 110.704 42.1053Z" fill="black"/>
<path d="M60.981 58.5092C60.981 58.5092 60.9107 56.8563 61.7447 56.0179C62.5787 55.1795 66.6301 50.9634 67.2497 49.7849C67.2497 49.7849 67.7739 50.1493 67.7977 50.8182C67.7977 50.8182 68.477 49.6485 69.0131 49.2078C69.0131 49.2078 69.4898 49.6945 69.4064 50.6666C69.4064 50.6666 70.3834 50.1493 71.8969 50.1405C71.8969 50.1405 71.3369 50.8005 71.313 51.1839C71.313 51.1839 73.4103 50.9519 74.5064 51.1303C74.5064 51.1303 71.6228 52.7446 72.433 52.8873C73.2432 53.0299 74.0893 52.8783 74.0893 52.8783C74.0893 52.8783 73.1718 53.8148 71.7061 54.002C71.7061 54.002 73.5649 53.9752 73.9343 54.3944C73.9343 54.3944 72.123 54.6709 70.6694 55.7767C70.6694 55.7767 70.5336 55.7143 70.524 55.3039C70.524 55.3039 70.4788 55.6696 70.0617 56.0174C69.6446 56.3653 68.6437 57.1056 68.2743 57.48C67.9048 57.8547 67.2137 58.5948 66.4749 58.5592C66.4749 58.5592 66.6416 57.9883 66.0935 57.8101C65.5455 57.6317 64.914 57.7566 64.473 58.2293C64.473 58.2293 62.5189 58.2561 61.8993 58.3452C61.8993 58.3452 62.3402 57.6407 62.7452 57.6585C63.1504 57.6762 64.7828 57.8992 64.9257 56.7845C65.0688 55.6698 63.8771 55.9641 64.3299 55.3041C64.7828 54.6442 64.6755 54.6709 64.6874 54.6084C64.6874 54.6084 64.318 54.8136 64.1036 55.4022C63.8892 55.9909 63.7342 56.4456 62.9596 57.0343C62.185 57.6229 61.8643 57.9793 61.6499 58.3896C61.6503 58.39 61.297 58.4391 60.981 58.5092Z" fill="white"/>
<path d="M62.8535 57.5097C62.8535 57.5097 62.9171 57.2838 63.489 57.1886C64.0609 57.0934 64.0848 56.82 64.0132 56.701C63.9417 56.582 63.6001 56.5822 64.1563 55.9519C64.1563 55.9519 64.3548 56.0055 64.4899 56.16C64.6251 56.3146 65.2524 57.6584 62.8535 57.5097Z" fill="white"/>
<path d="M61.4859 56.3428C61.5156 57.4441 62.959 57.0349 62.959 57.0349C62.4448 57.4257 62.1304 57.7141 61.9145 57.984C62.0099 57.4489 61.1006 57.315 61.1006 57.315C61.1755 56.9879 61.2951 56.6417 61.4859 56.3428ZM66.793 50.4568C67.002 50.1834 67.1604 49.9535 67.2488 49.7851C67.2488 49.7851 67.773 50.1495 67.7969 50.8185C67.7969 50.8185 68.4761 49.6488 69.0122 49.208C69.0122 49.208 69.489 49.6948 69.4055 50.6668C69.4055 50.6668 70.3826 50.1495 71.8958 50.1407C71.8958 50.1407 71.3358 50.8007 71.312 51.1841C71.312 51.1841 73.4092 50.9522 74.5053 51.1306C74.5053 51.1306 71.6218 52.7448 72.4319 52.8875C73.2423 53.0302 74.0882 52.8785 74.0882 52.8785C74.0882 52.8785 73.1708 53.815 71.705 54.0022C71.705 54.0022 73.5638 53.9755 73.9332 54.3947C73.9332 54.3947 73.404 54.4754 72.6882 54.7243C72.6882 54.7243 72.1537 54.2223 70.6047 54.2936C70.6047 54.2936 71.8096 53.6194 72.7654 53.4017C72.7654 53.4017 72.3443 52.8488 71.6849 53.3542C71.6849 53.3542 70.3742 52.4505 71.4546 51.6835C71.4546 51.6835 70.692 51.523 70.1916 51.8797C70.1916 51.8797 70.2154 51.2613 70.7714 50.9819C70.7714 50.9819 69.3017 50.744 68.9365 51.8261C68.9365 51.8261 68.6585 51.3801 68.7855 50.8748C68.7855 50.8748 67.8958 51.3864 67.4907 51.9661C67.4911 51.9663 67.357 50.867 66.793 50.4568ZM63.9448 57.4468C63.6811 57.5117 63.328 57.5395 62.8598 57.5104C62.8598 57.5104 62.9 57.368 63.2026 57.2617C63.2026 57.2617 63.2895 57.4424 63.9448 57.4468Z" fill="#CCCCCC"/>
<path d="M66.6182 53.2808C66.6182 53.2808 67.2855 53.8069 67.5237 54.128C67.5237 54.128 68.1314 53.6998 68.3577 53.3521C68.3577 53.3521 68.8344 53.6642 69.0012 54.128C69.0012 54.128 69.3348 53.896 69.4063 53.5751C69.4063 53.5751 70.2477 53.7535 70.524 54.0299C70.524 54.0299 70.6526 53.2183 70.524 52.7099C70.524 52.7099 71.1103 52.7545 71.4678 52.9062C71.4678 52.9062 71.1354 52.3711 72.8327 51.6843C72.8327 51.6843 71.5492 51.9598 71.0626 52.5227C71.0626 52.5227 70.5146 52.5495 70.2761 52.3801C70.2761 52.3801 70.3119 53.2005 70.288 53.5929C70.288 53.5929 69.9573 53.459 69.3124 53.3076C69.3124 53.3076 69.1562 53.5751 69.0488 53.6374C69.0488 53.6374 68.6437 53.3164 68.465 52.9062C68.465 52.9062 67.8452 53.4691 67.6072 53.7088C67.6072 53.7088 67.0233 53.2986 66.6182 53.2808Z" fill="black"/>
<path d="M62.7744 61.6285C62.7744 61.6285 63.0365 61.7534 63.6561 61.2539C64.2757 60.7544 66.0274 59.6396 66.1941 58.7477C66.3608 57.8557 65.6341 57.8024 65.062 58.061C64.4901 58.3195 64.7284 58.819 64.7522 58.9795C64.7761 59.1399 64.788 59.7643 63.8586 60.6295C62.9292 61.4949 62.7744 61.6285 62.7744 61.6285Z" fill="#FDD406"/>
<path d="M62.5763 61.9131C62.5763 61.9131 61.1702 61.3245 62.4333 60.6913C63.6963 60.0581 64.2565 59.8887 64.3993 59.3624C64.5424 58.8361 64.459 58.9254 63.9942 59.1484C63.5294 59.3714 61.7421 60.174 61.4681 59.4249C61.4681 59.4249 62.2069 59.7102 63.1244 59.2645C64.0418 58.8187 64.7926 58.6848 64.2088 58.4974C63.625 58.3102 61.5158 58.542 61.1702 58.6401C60.8246 58.7382 60.9081 58.7204 60.8485 59.0681C60.7889 59.4159 60.3956 60.1472 60.2527 60.3612C60.1097 60.5752 59.7641 61.4672 60.4077 61.8596C61.051 62.252 62.0709 62.225 62.5763 61.9131Z" fill="#FDD406"/>
<path d="M62.0294 58.8452C62.0294 58.8452 61.7073 58.8898 61.7669 59.0147C61.8265 59.1396 61.9106 59.1218 62.0294 59.1306C62.1482 59.1394 62.3271 59.0682 62.3507 58.9879C62.3745 58.9078 62.1488 58.8187 62.0294 58.8452Z" fill="black"/>
<path d="M62.4929 61.6009C62.4929 61.6009 61.8256 61.2799 62.5764 60.8696C63.3271 60.4594 64.1373 60.067 64.2446 59.8976C64.2446 59.8974 63.8871 60.4057 62.4929 61.6009Z" fill="white"/>
</g>
<defs>
<clipPath id="clip0_354_38">
<rect width="120" height="120" fill="white"/>
</clipPath>
</defs>
</svg>
