<svg width="120" height="120" viewBox="0 0 120 120" fill="none" xmlns="http://www.w3.org/2000/svg">
<g clip-path="url(#clip0_307_101965)">
<circle cx="60" cy="60" r="60" fill="#021455"/>
<path d="M8.72584 91.1764L11.4754 89.55L5.40039 80.425L15.6504 84.3L19.0004 73.875L22.3754 84.3L32.6254 80.425L26.5504 89.55L35.9504 95.125L25.0254 96.075L26.5254 106.925L19.0004 99L16.6468 101.479C15.3074 100.079 14.035 98.6148 12.835 97.0908L12.9754 96.075L11.9878 95.9892C10.8257 94.4412 9.73663 92.8353 8.72584 91.1764Z" fill="white"/>
<path d="M89.1424 112.46C89.1004 112.483 89.0584 112.507 89.0163 112.53L85.9254 109.225L82.6254 112.7L83.2754 107.975L78.5254 107.575L82.6504 105.125L80.0004 101.175L84.4504 102.85L85.9004 98.325L87.3504 102.85L91.8004 101.175L89.1754 105.125L93.2754 107.55L88.5254 107.975L89.1424 112.46Z" fill="white"/>
<path d="M80.0004 30.6501L82.6254 34.6L78.5254 37.05L83.2754 37.4501L82.6254 42.1501L85.9254 38.725L89.1754 42.175L88.5254 37.4501L93.2754 37.05L89.1754 34.6L91.8004 30.6501L87.3504 32.3251L85.9004 27.8L84.4504 32.3251L80.0004 30.6501Z" fill="white"/>
<path d="M53.5754 59.3L56.2004 63.25L52.1004 65.7L56.8504 66.1001L56.2254 70.825L59.4754 67.3501L62.7754 70.825L62.1004 66.1001L66.8504 65.675L62.7504 63.25L65.4004 59.3L60.9504 60.975L59.4754 56.4501L58.0254 60.975L53.5754 59.3Z" fill="white"/>
<path d="M103.5 52.25L106.175 56.2001L102.025 58.625L106.775 59.05L106.125 63.75L109.425 60.3L112.675 63.75L112.025 59.05L116.775 58.625L112.7 56.2001L115.325 52.25L110.875 53.925L109.4 49.4001L107.95 53.925L103.5 52.25Z" fill="white"/>
<path d="M93.9254 78.625L96.5004 77L99.1004 78.625L98.3754 75.6501L100.7 73.7L97.6754 73.4751L96.5004 70.6501L95.3504 73.45L92.3254 73.7L94.6504 75.6501L93.9254 78.625Z" fill="white"/>
<path d="M3.41406 40C11.6508 16.6962 33.8756 0 59.9999 0V40H3.41406Z" fill="#021455"/>
<path d="M51.8607 0.547409C54.5223 0.186438 57.2393 0 59.9999 0V5.16667L37.4999 20.0833L59.9999 34.9167V40H52.4999L29.9999 25.0833L7.5937 40H3.41406C4.71561 36.3176 6.36643 32.8002 8.32673 29.4875L22.4062 20.1667L17.9402 17.2101C20.0107 15.1746 22.2284 13.2883 24.5757 11.5685L29.9062 15.0833L51.8607 0.547409Z" fill="white"/>
<path d="M55.0032 0.205098C56.6508 0.0692646 58.3173 0 59.9999 0V0.25L36.6562 15.9167L36.8437 12.25L55.0032 0.205098Z" fill="#D91C16"/>
<path d="M20.6935 14.6667C20.9395 14.4532 21.1873 14.2416 21.4368 14.0321L22.4062 14.6667H20.6935Z" fill="#D91C16"/>
<path d="M3.41406 40C3.77659 38.9743 4.16621 37.9614 4.58207 36.9622L22.4999 25.0833L23.0624 28L5.06245 40H3.41406Z" fill="#D91C16"/>
<path d="M59.9999 36.6667L39.7499 23.4167H34.5937L59.9999 40V36.6667Z" fill="#D91C16"/>
<path d="M22.5936 13.0847C27.1075 9.48101 32.153 6.51511 37.5936 4.32355V13.3334H59.9999V26.6667H37.5936V40H22.5936V26.6667H10.1035C13.474 21.6315 17.5864 17.1349 22.2843 13.3334H22.5936V13.0847Z" fill="white"/>
<path d="M25.5942 10.8388C28.4247 8.85416 31.4344 7.10777 34.5942 5.62872V16.0833H60.0005V24.0833H34.5942V40H25.5942V24.0833H11.9336C14.0871 21.2059 16.4929 18.5283 19.1183 16.0833H25.5942V10.8388Z" fill="#D91C16"/>
</g>
<defs>
<clipPath id="clip0_307_101965">
<rect width="120" height="120" fill="white"/>
</clipPath>
</defs>
</svg>
