<svg width="120" height="120" viewBox="0 0 120 120" fill="none" xmlns="http://www.w3.org/2000/svg">
<g clip-path="url(#clip0_307_101965)">
<circle cx="60" cy="60" r="60" fill="#021455"/>
<path d="M8.72559 91.1764L11.4751 89.55L5.40015 80.425L15.6501 84.3L19.0001 73.875L22.3751 84.3L32.6251 80.425L26.5501 89.55L35.9501 95.125L25.0251 96.075L26.5251 106.925L19.0001 99L16.6466 101.479C15.3071 100.079 14.0348 98.6148 12.8347 97.0908L12.9751 96.075L11.9876 95.9892C10.8254 94.4412 9.73639 92.8353 8.72559 91.1764Z" fill="white"/>
<path d="M89.1421 112.46C89.1001 112.483 89.0581 112.507 89.0161 112.53L85.9251 109.225L82.6251 112.7L83.2751 107.975L78.5251 107.575L82.6501 105.125L80.0001 101.175L84.4501 102.85L85.9001 98.325L87.3501 102.85L91.8001 101.175L89.1751 105.125L93.2751 107.55L88.5251 107.975L89.1421 112.46Z" fill="white"/>
<path d="M80.0001 30.6501L82.6251 34.6L78.5251 37.05L83.2751 37.4501L82.6251 42.1501L85.9251 38.725L89.1751 42.175L88.5251 37.4501L93.2751 37.05L89.1751 34.6L91.8001 30.6501L87.3501 32.3251L85.9001 27.8L84.4501 32.3251L80.0001 30.6501Z" fill="white"/>
<path d="M53.5751 59.3L56.2001 63.25L52.1001 65.7L56.8501 66.1001L56.2251 70.825L59.4751 67.3501L62.7751 70.825L62.1001 66.1001L66.8501 65.675L62.7501 63.25L65.4002 59.3L60.9501 60.975L59.4751 56.4501L58.0251 60.975L53.5751 59.3Z" fill="white"/>
<path d="M103.5 52.25L106.175 56.2001L102.025 58.625L106.775 59.05L106.125 63.75L109.425 60.3L112.675 63.75L112.025 59.05L116.775 58.625L112.7 56.2001L115.325 52.25L110.875 53.925L109.4 49.4001L107.95 53.925L103.5 52.25Z" fill="white"/>
<path d="M93.9251 78.625L96.5001 77L99.1001 78.625L98.3751 75.6501L100.7 73.7L97.6751 73.4751L96.5001 70.6501L95.3501 73.45L92.3251 73.7L94.6501 75.6501L93.9251 78.625Z" fill="white"/>
<path d="M60 40H3.41504C11.6518 16.6963 33.8757 0 60 0V40Z" fill="#021455"/>
<path d="M60 4.80762L37.2109 20L60 35.1924V40H52.7891L30 24.8076L7.21094 40H3.41504C4.68381 36.4104 6.284 32.9775 8.17969 29.7383L22.7891 20L18.21 16.9473C20.2016 15.0137 22.3265 13.2167 24.5703 11.5723L30 15.1924L51.9922 0.530273C54.6118 0.180891 57.2848 0 60 0V4.80762Z" fill="white"/>
<path d="M60 36.7949V40L30 20H34.8076L60 36.7949Z" fill="#D91C16"/>
<path d="M30 23.2051L4.80762 40H3.41504C3.78054 38.9659 4.17307 37.9447 4.59277 36.9375L30 20V23.2051Z" fill="#D91C16"/>
<path d="M30 20H25.1924L19.2012 16.0059C19.8749 15.3808 20.5627 14.7707 21.2646 14.1768L30 20Z" fill="#D91C16"/>
<path d="M30 20V16.7949L54.8662 0.216797C56.5584 0.0734005 58.2707 0 60 0L30 20Z" fill="#D91C16"/>
<path d="M36.667 13.333H60V26.667H36.667V40H23.333V26.667H10.1045C13.4752 21.6314 17.5878 17.1347 22.2861 13.333H23.333V12.5049C27.3958 9.36375 31.8719 6.73098 36.667 4.70508V13.333Z" fill="white"/>
<path d="M34 16H60V24H34V40H26V24H11.9961C14.1584 21.1213 16.5739 18.444 19.209 16H26V10.5566C28.5329 8.81157 31.2062 7.25555 34 5.91016V16Z" fill="#D91C16"/>
</g>
<defs>
<clipPath id="clip0_307_101965">
<rect width="120" height="120" fill="white"/>
</clipPath>
</defs>
</svg>
