<svg width="120" height="120" viewBox="0 0 120 120" fill="none" xmlns="http://www.w3.org/2000/svg">
<path d="M40 116.586C16.6962 108.349 0 86.1243 0 59.9999C0 33.8756 16.6962 11.6508 40 3.41406V116.586Z" fill="black"/>
<path d="M80 3.41411V116.586C73.7444 118.797 67.0127 120 60 120C52.9873 120 46.2556 118.797 40 116.586V3.41411C46.2556 1.20308 52.9873 0 60 0C67.0127 0 73.7444 1.20308 80 3.41411Z" fill="#FDD406"/>
<path d="M80 116.586C103.304 108.349 120 86.1243 120 59.9999C120 33.8756 103.304 11.6508 80 3.41406V116.586Z" fill="#E23726"/>
</svg>
