<svg width="120" height="120" viewBox="0 0 120 120" fill="none" xmlns="http://www.w3.org/2000/svg">
<g clip-path="url(#clip0_909_308031)">
<circle cx="60" cy="60" r="60" fill="#D91C16"/>
<path d="M102.426 102.426C113.284 91.5684 120 76.5684 120 59.9999C120 43.4314 113.284 28.4314 102.426 17.5735L60 59.9999L17.5736 17.5735C6.71573 28.4314 0 43.4314 0 59.9999C0 76.5684 6.71573 91.5684 17.5736 102.426L60 59.9999L102.426 102.426Z" fill="#1E9A1C"/>
<path d="M106.836 22.4941L69.3296 60.0001L106.836 97.506C104.077 100.947 100.947 104.077 97.506 106.836L60.0001 69.3296L22.4941 106.836C19.0535 104.077 15.9234 100.947 13.1646 97.506L50.6705 60.0001L13.1646 22.4941C15.9234 19.0535 19.0535 15.9234 22.4941 13.1646L60.0001 50.6705L97.506 13.1646C100.947 15.9234 104.077 19.0535 106.836 22.4941Z" fill="white"/>
<path d="M60 94C78.7777 94 94 78.7777 94 60C94 41.2223 78.7777 26 60 26C41.2223 26 26 41.2223 26 60C26 78.7777 41.2223 94 60 94Z" fill="white"/>
<path d="M60.0001 35.1201L62.1021 38.7601H66.3041L64.2041 42.4001L66.3041 46.0401H62.1021L60.0001 49.6801L57.8981 46.0401H53.6961L55.7961 42.4001L53.6961 38.7601H57.8981L60.0001 35.1201Z" fill="#D91C16"/>
<path d="M81.5468 72.4401L77.3435 72.4405L75.2425 76.0795L73.1401 72.4409L68.9378 72.4395L71.0388 68.8005L68.9375 65.1601L73.1408 65.1597L75.2418 61.5207L77.3441 65.1593L81.5465 65.1607L79.4455 68.7997L81.5468 72.4401Z" fill="#D91C16"/>
<path d="M38.4534 72.4401L40.5547 68.7997L38.4537 65.1607L42.656 65.1593L44.7584 61.5207L46.8594 65.1597L51.0627 65.1601L48.9614 68.8005L51.0624 72.4395L46.86 72.4409L44.7577 76.0795L42.6567 72.4405L38.4534 72.4401Z" fill="#D91C16"/>
<path fill-rule="evenodd" clip-rule="evenodd" d="M60 34.4001L62.3098 38.4H66.9273L64.6196 42.4L66.9273 46.4H62.3098L60 50.3999L57.6902 46.4H53.0727L55.3804 42.4L53.0727 38.4H57.6902L60 34.4001ZM60 35.8399L58.1058 39.12H54.3193L56.2116 42.4L54.3193 45.68H58.1058L60 48.9601L61.8942 45.68H65.6807L63.7884 42.4L65.6807 39.12H61.8942L60 35.8399Z" fill="#1E9A1C"/>
<path fill-rule="evenodd" clip-rule="evenodd" d="M82.1701 72.8L77.5512 72.8004L75.2425 76.7993L72.9322 72.8007L68.3143 72.7993L70.623 68.8004L68.3139 64.8001L72.9328 64.7997L75.2416 60.8008L77.5518 64.7993L82.1698 64.8008L79.861 68.7997L82.1701 72.8ZM80.9232 72.0801L79.0297 68.7996L80.9229 65.5204L77.1362 65.5192L75.2418 62.2404L73.3485 65.5196L69.5608 65.52L71.4544 68.8004L69.5611 72.0797L73.3478 72.0809L75.2422 75.3597L77.1355 72.0804L80.9232 72.0801Z" fill="#1E9A1C"/>
<path fill-rule="evenodd" clip-rule="evenodd" d="M37.8298 72.8L40.1389 68.7997L37.8302 64.8008L42.4481 64.7993L44.7584 60.8008L47.0671 64.7997L51.686 64.8001L49.377 68.8004L51.6857 72.7993L47.0677 72.8007L44.7575 76.7993L42.4487 72.8004L37.8298 72.8ZM39.0767 72.0801L42.8645 72.0804L44.7577 75.3597L46.6521 72.0809L50.4388 72.0797L48.5456 68.8004L50.4392 65.52L46.6514 65.5196L44.7582 62.2404L42.8637 65.5192L39.077 65.5204L40.9703 68.7996L39.0767 72.0801Z" fill="#1E9A1C"/>
</g>
<defs>
<clipPath id="clip0_909_308031">
<rect width="120" height="120" fill="white"/>
</clipPath>
</defs>
</svg>
