<svg width="120" height="120" viewBox="0 0 120 120" fill="none" xmlns="http://www.w3.org/2000/svg">
<g clip-path="url(#clip0_909_237134)">
<circle cx="60.0001" cy="60" r="60" fill="#1E9A1C"/>
<path d="M3.85468 59.9999L59.9997 105.428L116.145 59.9999L59.9997 14.5713L3.85468 59.9999Z" fill="#FDD406"/>
<path d="M59.8547 90C76.4233 90 89.8547 76.5685 89.8547 60C89.8547 43.4315 76.4233 30 59.8547 30C43.2862 30 29.8547 43.4315 29.8547 60C29.8547 76.5685 43.2862 90 59.8547 90Z" fill="#0F3296"/>
<path d="M30.8079 52.4692C34.712 51.781 38.6938 51.4283 42.712 51.4283C59.6538 51.4283 75.9493 57.6979 88.4963 68.9522C88.9752 67.4186 89.3343 65.832 89.5626 64.2036C76.4909 53.2268 59.9151 47.1426 42.712 47.1426C39.2433 47.1426 35.8001 47.3899 32.406 47.8749C31.7544 49.3478 31.2179 50.8831 30.8079 52.4692Z" fill="white"/>
<path d="M43.8449 50.7114L46.4148 50.8011L46.4333 50.2708L44.353 50.1982L44.3786 49.4639L46.0103 49.5209L46.0274 49.0314L44.3957 48.9744L44.4156 48.4033L46.3736 48.4717L46.3921 47.9414L43.9447 47.856L43.8449 50.7114Z" fill="#1E9A1C"/>
<path fill-rule="evenodd" clip-rule="evenodd" d="M41.5637 50.7235L40.2169 50.747L40.1671 47.8903L41.5138 47.8668C41.6746 47.864 41.8343 47.8929 41.984 47.9518C42.1336 48.0107 42.2701 48.0986 42.3858 48.2103C42.5015 48.322 42.594 48.4554 42.6581 48.6028C42.7222 48.7503 42.7567 48.9089 42.7595 49.0697L42.7666 49.4778C42.7694 49.6386 42.7405 49.7984 42.6816 49.948C42.6227 50.0976 42.5348 50.2341 42.4231 50.3498C42.3114 50.4655 42.178 50.558 42.0306 50.6221C41.8831 50.6862 41.7244 50.7207 41.5637 50.7235ZM41.5136 50.1937L40.7382 50.2072L40.7069 48.4116L41.4823 48.398C41.6879 48.3944 41.8866 48.4727 42.0345 48.6156C42.1825 48.7584 42.2676 48.9542 42.2712 49.1599L42.2755 49.4047C42.279 49.6104 42.2008 49.809 42.0579 49.957C41.915 50.1049 41.7192 50.1901 41.5136 50.1937Z" fill="#1E9A1C"/>
<path fill-rule="evenodd" clip-rule="evenodd" d="M37.1254 50.9355L36.5961 50.9725L36.4375 48.1195L38.0662 48.0056C38.3038 47.989 38.5382 48.0674 38.718 48.2237C38.8977 48.3799 39.008 48.6011 39.0246 48.8387C39.0412 49.0763 38.9628 49.3107 38.8065 49.4905C38.7586 49.5456 38.7045 49.5942 38.6457 49.6356C38.9536 49.8704 38.9966 50.4854 39.0188 50.8031L38.5302 50.8373C38.5111 50.5649 38.4768 50.0739 38.188 49.7974L37.0514 49.8768L37.1254 50.9355ZM38.1137 49.2707L37.0144 49.3475L36.9631 48.6146L38.0625 48.5377C38.1597 48.5309 38.2556 48.563 38.3291 48.627C38.4027 48.6909 38.4478 48.7814 38.4546 48.8786C38.4614 48.9758 38.4293 49.0717 38.3654 49.1452C38.3014 49.2187 38.2109 49.2639 38.1137 49.2707Z" fill="#1E9A1C"/>
<path fill-rule="evenodd" clip-rule="evenodd" d="M35.1193 50.7044C34.9127 50.9997 34.6064 51.1889 34.268 51.2305C33.9295 51.272 33.5866 51.1625 33.3146 50.926C33.0426 50.6894 32.8639 50.3453 32.8177 49.9692C32.7716 49.5932 32.8617 49.216 33.0684 48.9207C33.2751 48.6254 33.5813 48.4362 33.9198 48.3946C34.2582 48.3531 34.6011 48.4626 34.8731 48.6991C35.1451 48.9356 35.3238 49.2798 35.37 49.6558C35.4162 50.0319 35.326 50.4091 35.1193 50.7044ZM34.7012 50.3777C34.5812 50.5621 34.4021 50.6794 34.2033 50.7038C34.0045 50.7282 33.8024 50.6577 33.6413 50.5078C33.4802 50.3579 33.3734 50.1409 33.3444 49.9046C33.3154 49.6682 33.3665 49.4318 33.4865 49.2474C33.6066 49.063 33.7857 48.9457 33.9844 48.9213C34.1832 48.8969 34.3854 48.9674 34.5464 49.1172C34.7075 49.2671 34.8143 49.4841 34.8433 49.7205C34.8724 49.9569 34.8212 50.1933 34.7012 50.3777Z" fill="#1E9A1C"/>
<path d="M47.9575 50.9083L47.4696 50.8656L47.7186 48.0193L48.4302 48.0816L48.8287 50.0831L49.5687 48.1812L50.2802 48.2435L50.0312 51.0897L49.5433 51.047L49.714 49.0953L48.974 50.9972L48.5268 50.9581L48.1283 48.9566L47.9575 50.9083Z" fill="#1E9A1C"/>
<path d="M53.3893 51.5333L55.5012 51.8962L55.5842 51.4135L53.955 51.1336L54.0656 50.4899L55.3931 50.718L55.476 50.2353L54.1485 50.0072L54.2246 49.5647L55.8035 49.836L55.8864 49.3533L53.8248 48.9991L53.3893 51.5333Z" fill="#1E9A1C"/>
<path fill-rule="evenodd" clip-rule="evenodd" d="M59.3284 52.7319L58.8147 52.599L59.5696 49.8431L61.1503 50.2519C61.3808 50.3115 61.5783 50.4603 61.6992 50.6655C61.82 50.8707 61.8544 51.1155 61.7948 51.3461C61.7352 51.5766 61.5864 51.7741 61.3812 51.895C61.176 52.0158 60.9312 52.0502 60.7006 51.9906L59.5942 51.7045L59.3284 52.7319ZM60.794 51.4667L59.727 51.1907L59.911 50.4795L60.9779 50.7554C61.0722 50.7798 61.153 50.8406 61.2024 50.9246C61.2519 51.0085 61.266 51.1087 61.2416 51.203C61.2172 51.2973 61.1563 51.3781 61.0724 51.4275C60.9884 51.477 60.8883 51.4911 60.794 51.4667Z" fill="#1E9A1C"/>
<path fill-rule="evenodd" clip-rule="evenodd" d="M62.3201 53.5341L62.8262 53.6937L63.1453 52.6816L64.2319 53.0242C64.3993 53.3873 64.2513 53.8567 64.1692 54.1171L64.6363 54.2644C64.732 53.9607 64.9174 53.3728 64.7171 53.0415C64.7869 53.0245 64.8551 52.9991 64.9199 52.9654C65.1311 52.8554 65.2901 52.666 65.3617 52.4389C65.4333 52.2117 65.4117 51.9655 65.3018 51.7542C65.1918 51.543 65.0024 51.3841 64.7753 51.3125L63.2182 50.8215L62.3201 53.5341ZM63.3048 52.1755L64.3559 52.5069C64.4488 52.5362 64.5496 52.5274 64.636 52.4824C64.7224 52.4374 64.7874 52.36 64.8167 52.267C64.846 52.1741 64.8372 52.0734 64.7922 51.987C64.7472 51.9005 64.6697 51.8355 64.5768 51.8062L63.5258 51.4748L63.3048 52.1755Z" fill="#1E9A1C"/>
<path fill-rule="evenodd" clip-rule="evenodd" d="M66.9762 55.1017C67.2956 55.2211 67.6547 55.1947 67.9743 55.0282C68.294 54.8617 68.5481 54.5688 68.6808 54.2139C68.8135 53.859 68.8139 53.4712 68.6819 53.1358C68.5498 52.8004 68.2962 52.5449 67.9768 52.4255C67.6574 52.3061 67.2984 52.3326 66.9787 52.4991C66.6591 52.6656 66.4049 52.9585 66.2722 53.3134C66.1396 53.6682 66.1392 54.056 66.2712 54.3914C66.4032 54.7268 66.6568 54.9823 66.9762 55.1017ZM67.1621 54.6047C67.3496 54.6748 67.5627 54.6535 67.7543 54.5454C67.9459 54.4372 68.1004 54.2511 68.1838 54.0281C68.2672 53.805 68.2727 53.5632 68.199 53.3559C68.1254 53.1485 67.9786 52.9927 67.791 52.9225C67.6034 52.8524 67.3904 52.8737 67.1988 52.9819C67.0072 53.09 66.8527 53.2761 66.7693 53.4992C66.6859 53.7222 66.6804 53.964 66.754 54.1714C66.8277 54.3787 66.9745 54.5346 67.1621 54.6047Z" fill="#1E9A1C"/>
<path d="M72.1455 54.5866C72.0312 54.2447 71.7914 53.9763 71.4786 53.8403C71.1659 53.7044 70.806 53.712 70.4781 53.8615C70.1501 54.0111 69.881 54.2903 69.7299 54.6378C69.5788 54.9852 69.5582 55.3725 69.6725 55.7143C69.7868 56.0561 70.0267 56.3245 70.3394 56.4605C70.6387 56.5907 70.9812 56.5893 71.2976 56.4578L71.1442 56.8105L71.5185 56.9732L72.0882 55.6632L71.0963 55.2319L70.9335 55.6062L71.3631 55.7929C71.2973 55.8549 71.224 55.9066 71.1455 55.9456C70.9485 56.0436 70.7346 56.0538 70.5509 55.9739C70.3673 55.8941 70.2289 55.7307 70.1662 55.5198C70.1035 55.3089 70.1216 55.0677 70.2165 54.8493C70.3115 54.6309 70.4755 54.4532 70.6725 54.3552C70.8696 54.2573 71.0834 54.2471 71.2671 54.327C71.4507 54.4068 71.5891 54.5702 71.6518 54.7811C71.6684 54.8368 71.6793 54.8946 71.6847 54.9536L72.2119 55.1829C72.2308 54.9798 72.2089 54.7762 72.1455 54.5866Z" fill="#1E9A1C"/>
<path fill-rule="evenodd" clip-rule="evenodd" d="M72.4762 57.4199L72.9511 57.6566L73.4246 56.7069L74.4442 57.2153C74.5527 57.6001 74.3331 58.0406 74.2113 58.2849L74.6496 58.5035C74.7917 58.2185 75.0668 57.6668 74.9207 57.3082C74.9924 57.3024 75.0637 57.288 75.133 57.2648C75.3588 57.1892 75.5454 57.027 75.6516 56.8139C75.7579 56.6008 75.7752 56.3541 75.6996 56.1283C75.624 55.9025 75.4618 55.7159 75.2487 55.6096L73.7876 54.8811L72.4762 57.4199ZM73.6613 56.232L74.6476 56.7238C74.7348 56.7672 74.8357 56.7743 74.9281 56.7434C75.0205 56.7125 75.0968 56.6461 75.1403 56.5589C75.1837 56.4717 75.1908 56.3708 75.1599 56.2785C75.129 56.1861 75.0626 56.1097 74.9754 56.0663L73.9892 55.5745L73.6613 56.232Z" fill="#1E9A1C"/>
<path d="M75.7106 59.0634L77.9486 60.3297L78.2099 59.8678L76.3982 58.8428L76.7599 58.2033L78.1809 59.0073L78.4221 58.581L77.0011 57.777L77.2825 57.2797L78.9877 58.2444L79.249 57.7826L77.1175 56.5767L75.7106 59.0634Z" fill="#1E9A1C"/>
<path d="M80.2257 61.1908C79.8814 60.9715 79.7258 60.703 79.8793 60.462L79.3371 60.1166C78.9516 60.7179 79.5432 61.3125 79.939 61.5647C80.4038 61.8608 81.1002 62.1351 81.5004 61.5068C81.8215 61.0028 81.333 60.5335 80.9355 60.1516C80.6611 59.8879 80.43 59.6658 80.5388 59.5028C80.6978 59.2533 80.9145 59.3309 81.1813 59.5008C81.4567 59.6763 81.6374 59.9244 81.4729 60.1826L81.9978 60.5171C82.3848 59.9287 81.8873 59.4182 81.5774 59.2208L81.5378 59.1954C81.2023 58.9797 80.4269 58.4812 79.9661 59.1864C79.6486 59.6739 80.0993 60.1159 80.4875 60.4968C80.7804 60.7841 81.0377 61.0366 80.9034 61.2475C80.8043 61.4022 80.5699 61.4101 80.2257 61.1908Z" fill="#1E9A1C"/>
<path d="M82.9442 62.4888C82.7782 62.7214 82.9196 62.9977 83.2519 63.2347C83.5842 63.4718 83.8187 63.4761 83.9257 63.3268C84.0709 63.1232 83.8271 62.8576 83.5497 62.5554C83.1819 62.1547 82.755 61.6897 83.0975 61.2195C83.5947 60.5394 84.3429 61.0778 84.6666 61.3108L84.7049 61.3382C85.004 61.5516 85.4741 62.0874 85.0569 62.6547L84.5501 62.2932C84.7279 62.044 84.5605 61.7867 84.2947 61.5971C84.0371 61.4134 83.8247 61.3246 83.6529 61.5655C83.5358 61.7225 83.7549 61.9564 84.0152 62.2341C84.3921 62.6363 84.8553 63.1306 84.5083 63.6171C84.0758 64.2235 83.3947 63.9131 82.9461 63.5932C82.5639 63.3206 82.0044 62.6958 82.4208 62.1155L82.9442 62.4888Z" fill="#1E9A1C"/>
<path fill-rule="evenodd" clip-rule="evenodd" d="M86.8151 66.0147C86.4596 66.0742 86.11 65.9884 85.8432 65.7762C85.5763 65.5639 85.4141 65.2425 85.3921 64.8828C85.3702 64.523 85.4904 64.1543 85.7263 63.8578C85.9621 63.5613 86.2943 63.3612 86.6498 63.3017C87.0053 63.2421 87.3549 63.3279 87.6218 63.5402C87.8886 63.7524 88.0509 64.0738 88.0728 64.4336C88.0947 64.7933 87.9745 65.162 87.7387 65.4585C87.5028 65.7551 87.1706 65.9551 86.8151 66.0147ZM86.7551 65.4875C86.5394 65.5311 86.3302 65.4856 86.1735 65.3609C86.0167 65.2362 85.9253 65.0426 85.9193 64.8227C85.9133 64.6028 85.9933 64.3745 86.1415 64.1881C86.2898 64.0017 86.4942 63.8725 86.7099 63.8289C86.9255 63.7852 87.1347 63.8307 87.2915 63.9554C87.4482 64.0801 87.5396 64.2737 87.5456 64.4936C87.5516 64.7136 87.4717 64.9418 87.3234 65.1282C87.1752 65.3146 86.9707 65.4438 86.7551 65.4875Z" fill="#1E9A1C"/>
<path d="M35.3648 53.3266L34.9675 54.5494L35.5789 54.748" fill="white"/>
<path d="M35.3648 53.3266L35.7621 54.5494L35.1508 54.748" fill="white"/>
<path d="M36.5876 54.215H35.3019V54.8578" fill="white"/>
<path d="M36.5876 54.215L35.5475 54.9707L35.1696 54.4506" fill="white"/>
<path d="M34.1421 54.215L35.1822 54.9707L35.5601 54.4506" fill="white"/>
<path d="M34.1421 54.215H35.4278V54.8578" fill="white"/>
<path d="M36.1206 55.6524L35.7233 54.4297L35.1119 54.6283" fill="white"/>
<path d="M36.1206 55.6524L35.0804 54.8967L35.4583 54.3766" fill="white"/>
<path d="M34.6091 55.6524L35.6493 54.8967L35.2714 54.3766" fill="white"/>
<path d="M34.6091 55.6524L35.0064 54.4297L35.6178 54.6283" fill="white"/>
<path d="M38.0179 65.9388L37.6206 67.1616L38.232 67.3603" fill="white"/>
<path d="M38.0179 65.9388L38.4152 67.1616L37.8038 67.3603" fill="white"/>
<path d="M39.2407 66.8272H37.955V67.4701" fill="white"/>
<path d="M39.2407 66.8272L38.2005 67.5829L37.8227 67.0629" fill="white"/>
<path d="M36.7951 66.8272L37.8353 67.5829L38.2131 67.0629" fill="white"/>
<path d="M36.7951 66.8272H38.0808V67.4701" fill="white"/>
<path d="M38.7736 68.2647L38.3763 67.0419L37.7649 67.2406" fill="white"/>
<path d="M38.7736 68.2647L37.7335 67.509L38.1113 66.9889" fill="white"/>
<path d="M37.2622 68.2647L38.3023 67.509L37.9245 66.9889" fill="white"/>
<path d="M37.2622 68.2647L37.6595 67.0419L38.2709 67.2406" fill="white"/>
<path d="M34.3444 68.847L34.0133 69.866L34.5228 70.0315" fill="white"/>
<path d="M34.3444 68.847L34.6755 69.866L34.166 70.0315" fill="white"/>
<path d="M35.3634 69.5873H34.292V70.123" fill="white"/>
<path d="M35.3634 69.5873L34.4966 70.2171L34.1817 69.7837" fill="white"/>
<path d="M33.3254 69.5873L34.1922 70.2171L34.5071 69.7837" fill="white"/>
<path d="M33.3254 69.5873H34.3969V70.123" fill="white"/>
<path d="M34.9742 70.7852L34.6431 69.7662L34.1336 69.9318" fill="white"/>
<path d="M34.9742 70.7852L34.1074 70.1554L34.4223 69.722" fill="white"/>
<path d="M33.7147 70.7852L34.5815 70.1554L34.2666 69.722" fill="white"/>
<path d="M33.7147 70.7852L34.0457 69.7662L34.5552 69.9318" fill="white"/>
<path d="M40.9567 64.7756L40.7675 65.3578L41.0586 65.4524" fill="white"/>
<path d="M40.9567 64.7756L41.1459 65.3578L40.8547 65.4524" fill="white"/>
<path d="M41.539 65.1986H40.9267V65.5047" fill="white"/>
<path d="M41.539 65.1986L41.0436 65.5585L40.8637 65.3108" fill="white"/>
<path d="M40.3744 65.1986L40.8697 65.5585L41.0496 65.3108" fill="white"/>
<path d="M40.3744 65.1986H40.9866V65.5047" fill="white"/>
<path d="M41.3165 65.8831L41.1273 65.3008L40.8362 65.3954" fill="white"/>
<path d="M41.3165 65.8831L40.8212 65.5232L41.0012 65.2756" fill="white"/>
<path d="M40.5968 65.8831L41.0921 65.5232L40.9122 65.2756" fill="white"/>
<path d="M40.5968 65.8831L40.786 65.3008L41.0771 65.3954" fill="white"/>
<path d="M44.2628 69.1327L43.9317 70.1517L44.4412 70.3172" fill="white"/>
<path d="M44.2628 69.1327L44.5939 70.1517L44.0844 70.3172" fill="white"/>
<path d="M45.2818 69.873H44.2104V70.4087" fill="white"/>
<path d="M45.2818 69.873L44.415 70.5028L44.1001 70.0694" fill="white"/>
<path d="M43.2438 69.873L44.1106 70.5028L44.4255 70.0694" fill="white"/>
<path d="M43.2438 69.873H44.3152V70.4087" fill="white"/>
<path d="M44.8926 71.0709L44.5615 70.0519L44.052 70.2175" fill="white"/>
<path d="M44.8926 71.0709L44.0258 70.4412L44.3406 70.0078" fill="white"/>
<path d="M43.633 71.0709L44.4998 70.4412L44.1849 70.0078" fill="white"/>
<path d="M43.633 71.0709L43.9641 70.0519L44.4736 70.2175" fill="white"/>
<path d="M43.3648 72.3266L43.1 73.1418L43.5076 73.2742" fill="white"/>
<path d="M43.3648 72.3266L43.6297 73.1418L43.2221 73.2742" fill="white"/>
<path d="M44.18 72.9188H43.3229V73.3474" fill="white"/>
<path d="M44.18 72.9188L43.4866 73.4227L43.2347 73.0759" fill="white"/>
<path d="M42.5496 72.9188L43.2431 73.4227L43.495 73.0759" fill="white"/>
<path d="M42.5496 72.9188H43.4068V73.3474" fill="white"/>
<path d="M43.8686 73.8772L43.6038 73.062L43.1962 73.1944" fill="white"/>
<path d="M43.8686 73.8772L43.1752 73.3733L43.4271 73.0266" fill="white"/>
<path d="M42.861 73.8772L43.5545 73.3733L43.3026 73.0266" fill="white"/>
<path d="M42.861 73.8772L43.1259 73.062L43.5335 73.1944" fill="white"/>
<path d="M69.1608 49.4082L68.7634 50.631L69.3748 50.8296" fill="white"/>
<path d="M69.1608 49.4082L69.5581 50.631L68.9467 50.8296" fill="white"/>
<path d="M70.3835 50.2966H69.0978V50.9395" fill="white"/>
<path d="M70.3835 50.2966L69.3434 51.0523L68.9655 50.5323" fill="white"/>
<path d="M67.938 50.2966L68.9781 51.0523L69.356 50.5323" fill="white"/>
<path d="M67.938 50.2966H69.2237V50.9395" fill="white"/>
<path d="M69.9165 51.7341L69.5192 50.5113L68.9078 50.7099" fill="white"/>
<path d="M69.9165 51.7341L68.8763 50.9784L69.2542 50.4583" fill="white"/>
<path d="M68.405 51.7341L69.4452 50.9784L69.0673 50.4583" fill="white"/>
<path d="M68.405 51.7341L68.8023 50.5113L69.4137 50.7099" fill="white"/>
<path d="M80.875 69.2449L80.4777 70.4677L81.0891 70.6664" fill="white"/>
<path d="M80.875 69.2449L81.2724 70.4677L80.661 70.6664" fill="white"/>
<path d="M82.0978 70.1333H80.8121V70.7762" fill="white"/>
<path d="M82.0978 70.1333L81.0577 70.8891L80.6798 70.369" fill="white"/>
<path d="M79.6523 70.1333L80.6924 70.8891L81.0703 70.369" fill="white"/>
<path d="M79.6523 70.1333H80.938V70.7762" fill="white"/>
<path d="M81.6308 71.5708L81.2335 70.348L80.6221 70.5467" fill="white"/>
<path d="M81.6308 71.5708L80.5906 70.8151L80.9685 70.295" fill="white"/>
<path d="M80.1193 71.5708L81.1595 70.8151L80.7816 70.295" fill="white"/>
<path d="M80.1193 71.5708L80.5166 70.348L81.128 70.5467" fill="white"/>
<path d="M85.0383 69.9592L84.7734 70.7744L85.181 70.9069" fill="white"/>
<path d="M85.0383 69.9592L85.3032 70.7744L84.8956 70.9069" fill="white"/>
<path d="M85.8535 70.5515H84.9964V70.9801" fill="white"/>
<path d="M85.8535 70.5515L85.1601 71.0553L84.9081 70.7086" fill="white"/>
<path d="M84.2231 70.5515L84.9166 71.0553L85.1685 70.7086" fill="white"/>
<path d="M84.2231 70.5515H85.0803V70.9801" fill="white"/>
<path d="M85.5421 71.5098L85.2773 70.6946L84.8697 70.8271" fill="white"/>
<path d="M85.5421 71.5098L84.8487 71.006L85.1006 70.6593" fill="white"/>
<path d="M84.5345 71.5098L85.2279 71.006L84.976 70.6593" fill="white"/>
<path d="M84.5345 71.5098L84.7994 70.6946L85.207 70.8271" fill="white"/>
<path d="M82.0995 72.1123L81.7684 73.1313L82.2779 73.2968" fill="white"/>
<path d="M82.0995 72.1123L82.4306 73.1313L81.9211 73.2968" fill="white"/>
<path d="M83.1185 72.8526H82.0471V73.3883" fill="white"/>
<path d="M83.1185 72.8526L82.2517 73.4824L81.9368 73.049" fill="white"/>
<path d="M81.0805 72.8526L81.9473 73.4824L82.2622 73.049" fill="white"/>
<path d="M81.0805 72.8526H82.152V73.3883" fill="white"/>
<path d="M82.7293 74.0505L82.3982 73.0315L81.8887 73.1971" fill="white"/>
<path d="M82.7293 74.0505L81.8625 73.4207L82.1774 72.9873" fill="white"/>
<path d="M81.4698 74.0505L82.3366 73.4207L82.0217 72.9873" fill="white"/>
<path d="M81.4698 74.0505L81.8009 73.0315L82.3103 73.1971" fill="white"/>
<path d="M74.875 78.398L74.544 79.417L75.0534 79.5825" fill="white"/>
<path d="M74.875 78.398L75.2061 79.417L74.6966 79.5825" fill="white"/>
<path d="M75.894 79.1383H74.8226V79.6741" fill="white"/>
<path d="M75.894 79.1383L75.0272 79.7681L74.7123 79.3347" fill="white"/>
<path d="M73.8561 79.1383L74.7229 79.7681L75.0377 79.3347" fill="white"/>
<path d="M73.8561 79.1383H74.9275V79.6741" fill="white"/>
<path d="M75.5048 80.3362L75.1737 79.3172L74.6642 79.4828" fill="white"/>
<path d="M75.5048 80.3362L74.638 79.7065L74.9529 79.2731" fill="white"/>
<path d="M74.2453 80.3362L75.1121 79.7065L74.7972 79.2731" fill="white"/>
<path d="M74.2453 80.3362L74.5764 79.3172L75.0859 79.4828" fill="white"/>
<path d="M74.8342 81.6327L74.5694 82.4479L74.9769 82.5803" fill="white"/>
<path d="M74.8342 81.6327L75.0991 82.4479L74.6915 82.5803" fill="white"/>
<path d="M75.6494 82.225H74.7923V82.6535" fill="white"/>
<path d="M75.6494 82.225L74.956 82.7288L74.7041 82.3821" fill="white"/>
<path d="M74.019 82.225L74.7125 82.7288L74.9644 82.3821" fill="white"/>
<path d="M74.019 82.225H74.8762V82.6535" fill="white"/>
<path d="M75.338 83.1833L75.0732 82.3681L74.6656 82.5005" fill="white"/>
<path d="M75.338 83.1833L74.6446 82.6795L74.8965 82.3327" fill="white"/>
<path d="M74.3304 83.1833L75.0239 82.6795L74.7719 82.3327" fill="white"/>
<path d="M74.3304 83.1833L74.5953 82.3681L75.0029 82.5005" fill="white"/>
<path d="M77.8546 76.2449L77.5898 77.0601L77.9974 77.1926" fill="white"/>
<path d="M77.8546 76.2449L78.1195 77.0601L77.7119 77.1926" fill="white"/>
<path d="M78.6698 76.8372H77.8127V77.2658" fill="white"/>
<path d="M78.6698 76.8372L77.9764 77.341L77.7245 76.9943" fill="white"/>
<path d="M77.0394 76.8372L77.7329 77.341L77.9848 76.9943" fill="white"/>
<path d="M77.0394 76.8372H77.8966V77.2658" fill="white"/>
<path d="M78.3585 77.7955L78.0936 76.9803L77.686 77.1128" fill="white"/>
<path d="M78.3585 77.7955L77.665 77.2917L77.9169 76.945" fill="white"/>
<path d="M77.3508 77.7955L78.0443 77.2917L77.7924 76.945" fill="white"/>
<path d="M77.3508 77.7955L77.6157 76.9803L78.0233 77.1128" fill="white"/>
<path d="M80.2628 74.5204L79.9317 75.5394L80.4412 75.705" fill="white"/>
<path d="M80.2628 74.5204L80.5939 75.5394L80.0844 75.705" fill="white"/>
<path d="M81.2818 75.2608H80.2104V75.7965" fill="white"/>
<path d="M81.2818 75.2608L80.415 75.8906L80.1001 75.4572" fill="white"/>
<path d="M79.2438 75.2608L80.1106 75.8906L80.4255 75.4572" fill="white"/>
<path d="M79.2438 75.2608H80.3152V75.7965" fill="white"/>
<path d="M80.8926 76.4587L80.5615 75.4397L80.052 75.6052" fill="white"/>
<path d="M80.8926 76.4587L80.0258 75.8289L80.3406 75.3955" fill="white"/>
<path d="M79.633 76.4587L80.4998 75.8289L80.1849 75.3955" fill="white"/>
<path d="M79.633 76.4587L79.9641 75.4397L80.4736 75.6052" fill="white"/>
<path d="M74.7526 75.6735L74.4877 76.4887L74.8953 76.6211" fill="white"/>
<path d="M74.7526 75.6735L75.0175 76.4887L74.6099 76.6211" fill="white"/>
<path d="M75.5678 76.2658H74.7106V76.6944" fill="white"/>
<path d="M75.5678 76.2658L74.8743 76.7696L74.6224 76.4229" fill="white"/>
<path d="M73.9374 76.2658L74.6308 76.7696L74.8828 76.4229" fill="white"/>
<path d="M73.9374 76.2658H74.7945V76.6944" fill="white"/>
<path d="M75.2564 77.2241L74.9915 76.4089L74.5839 76.5413" fill="white"/>
<path d="M75.2564 77.2241L74.563 76.7203L74.8149 76.3736" fill="white"/>
<path d="M74.2488 77.2241L74.9422 76.7203L74.6903 76.3736" fill="white"/>
<path d="M74.2488 77.2241L74.5136 76.4089L74.9212 76.5413" fill="white"/>
<path d="M48.4261 60.1531L48.095 61.1721L48.6045 61.3376" fill="white"/>
<path d="M48.4261 60.1531L48.7571 61.1721L48.2477 61.3376" fill="white"/>
<path d="M49.445 60.8934H48.3736V61.4292" fill="white"/>
<path d="M49.445 60.8934L48.5782 61.5232L48.2634 61.0898" fill="white"/>
<path d="M47.4071 60.8934L48.2739 61.5232L48.5888 61.0898" fill="white"/>
<path d="M47.4071 60.8934H48.4785V61.4292" fill="white"/>
<path d="M49.0558 62.0913L48.7247 61.0723L48.2152 61.2379" fill="white"/>
<path d="M49.0558 62.0913L48.189 61.4616L48.5039 61.0282" fill="white"/>
<path d="M47.7963 62.0913L48.6631 61.4616L48.3482 61.0282" fill="white"/>
<path d="M47.7963 62.0913L48.1274 61.0723L48.6369 61.2379" fill="white"/>
<path d="M68.0179 57.6327L67.753 58.4479L68.1606 58.5803" fill="white"/>
<path d="M68.0179 57.6327L68.2828 58.4479L67.8752 58.5803" fill="white"/>
<path d="M68.8331 58.225H67.976V58.6535" fill="white"/>
<path d="M68.8331 58.225L68.1397 58.7288L67.8877 58.3821" fill="white"/>
<path d="M67.2027 58.225L67.8962 58.7288L68.1481 58.3821" fill="white"/>
<path d="M67.2027 58.225H68.0599V58.6535" fill="white"/>
<path d="M68.5217 59.1833L68.2568 58.3681L67.8493 58.5005" fill="white"/>
<path d="M68.5217 59.1833L67.8283 58.6795L68.0802 58.3327" fill="white"/>
<path d="M67.5141 59.1833L68.2075 58.6795L67.9556 58.3327" fill="white"/>
<path d="M67.5141 59.1833L67.779 58.3681L68.1866 58.5005" fill="white"/>
<path d="M59.8546 72.1837L59.4573 73.4065L60.0687 73.6052" fill="white"/>
<path d="M59.8546 72.1837L60.2519 73.4065L59.6405 73.6052" fill="white"/>
<path d="M61.0774 73.0721H59.7917V73.715" fill="white"/>
<path d="M61.0774 73.0721L60.0373 73.8278L59.6594 73.3078" fill="white"/>
<path d="M58.6318 73.0721L59.672 73.8278L60.0499 73.3078" fill="white"/>
<path d="M58.6318 73.0721H59.9176V73.715" fill="white"/>
<path d="M60.6104 74.5096L60.213 73.2868L59.6017 73.4855" fill="white"/>
<path d="M60.6104 74.5096L59.5702 73.7539L59.9481 73.2338" fill="white"/>
<path d="M59.0989 74.5096L60.1391 73.7539L59.7612 73.2338" fill="white"/>
<path d="M59.0989 74.5096L59.4962 73.2868L60.1076 73.4855" fill="white"/>
<path d="M63.324 66.4388L62.9929 67.4578L63.5024 67.6234" fill="white"/>
<path d="M63.324 66.4388L63.6551 67.4578L63.1456 67.6234" fill="white"/>
<path d="M64.343 67.1792H63.2716V67.7149" fill="white"/>
<path d="M64.343 67.1792L63.4762 67.8089L63.1613 67.3755" fill="white"/>
<path d="M62.305 67.1792L63.1718 67.8089L63.4867 67.3755" fill="white"/>
<path d="M62.305 67.1792H63.3765V67.7149" fill="white"/>
<path d="M63.9538 68.3771L63.6227 67.3581L63.1132 67.5236" fill="white"/>
<path d="M63.9538 68.3771L63.087 67.7473L63.4019 67.3139" fill="white"/>
<path d="M62.6943 68.3771L63.5611 67.7473L63.2462 67.3139" fill="white"/>
<path d="M62.6943 68.3771L63.0253 67.3581L63.5348 67.5236" fill="white"/>
<path d="M59.8546 63.7449L59.5235 64.7639L60.033 64.9295" fill="white"/>
<path d="M59.8546 63.7449L60.1857 64.7639L59.6762 64.9295" fill="white"/>
<path d="M60.8736 64.4853H59.8022V65.021" fill="white"/>
<path d="M60.8736 64.4853L60.0068 65.115L59.6919 64.6816" fill="white"/>
<path d="M58.8356 64.4853L59.7024 65.115L60.0173 64.6816" fill="white"/>
<path d="M58.8356 64.4853H59.9071V65.021" fill="white"/>
<path d="M60.4844 65.6832L60.1533 64.6642L59.6438 64.8297" fill="white"/>
<path d="M60.4844 65.6832L59.6176 65.0534L59.9325 64.62" fill="white"/>
<path d="M59.2249 65.6832L60.0917 65.0534L59.7768 64.62" fill="white"/>
<path d="M59.2249 65.6832L59.556 64.6642L60.0654 64.8297" fill="white"/>
<path d="M56.8342 66.6531L56.5694 67.4683L56.9769 67.6007" fill="white"/>
<path d="M56.8342 66.6531L57.0991 67.4683L56.6915 67.6007" fill="white"/>
<path d="M57.6494 67.2454H56.7923V67.6739" fill="white"/>
<path d="M57.6494 67.2454L56.956 67.7492L56.7041 67.4025" fill="white"/>
<path d="M56.019 67.2454L56.7125 67.7492L56.9644 67.4025" fill="white"/>
<path d="M56.019 67.2454H56.8762V67.6739" fill="white"/>
<path d="M57.338 68.2037L57.0732 67.3885L56.6656 67.5209" fill="white"/>
<path d="M57.338 68.2037L56.6446 67.6999L56.8965 67.3531" fill="white"/>
<path d="M56.3304 68.2037L57.0239 67.6999L56.7719 67.3531" fill="white"/>
<path d="M56.3304 68.2037L56.5953 67.3885L57.0029 67.5209" fill="white"/>
<path d="M58.3444 68.9796L58.1552 69.5619L58.4464 69.6565" fill="white"/>
<path d="M58.3444 68.9796L58.5336 69.5619L58.2425 69.6565" fill="white"/>
<path d="M58.9267 69.4027H58.3145V69.7088" fill="white"/>
<path d="M58.9267 69.4027L58.4314 69.7626L58.2515 69.5149" fill="white"/>
<path d="M57.7622 69.4027L58.2575 69.7626L58.4374 69.5149" fill="white"/>
<path d="M57.7622 69.4027H58.3744V69.7088" fill="white"/>
<path d="M58.7043 70.0872L58.5151 69.5049L58.224 69.5995" fill="white"/>
<path d="M58.7043 70.0872L58.209 69.7273L58.3889 69.4797" fill="white"/>
<path d="M57.9846 70.0872L58.4799 69.7273L58.2999 69.4797" fill="white"/>
<path d="M57.9846 70.0872L58.1738 69.5049L58.4649 69.5995" fill="white"/>
<path d="M68.8342 79.1327L68.5031 80.1517L69.0126 80.3172" fill="white"/>
<path d="M68.8342 79.1327L69.1653 80.1517L68.6558 80.3172" fill="white"/>
<path d="M69.8532 79.873H68.7818V80.4087" fill="white"/>
<path d="M69.8532 79.873L68.9864 80.5028L68.6715 80.0694" fill="white"/>
<path d="M67.8152 79.873L68.682 80.5028L68.9969 80.0694" fill="white"/>
<path d="M67.8152 79.873H68.8867V80.4087" fill="white"/>
<path d="M69.464 81.0709L69.1329 80.0519L68.6234 80.2175" fill="white"/>
<path d="M69.464 81.0709L68.5972 80.4412L68.9121 80.0078" fill="white"/>
<path d="M68.2045 81.0709L69.0713 80.4412L68.7564 80.0078" fill="white"/>
<path d="M68.2045 81.0709L68.5355 80.0519L69.045 80.2175" fill="white"/>
<path d="M71.4057 76.6939L71.1408 77.5091L71.5484 77.6415" fill="white"/>
<path d="M71.4057 76.6939L71.6705 77.5091L71.2629 77.6415" fill="white"/>
<path d="M72.2208 77.2862H71.3637V77.7148" fill="white"/>
<path d="M72.2208 77.2862L71.5274 77.79L71.2755 77.4433" fill="white"/>
<path d="M70.5905 77.2862L71.2839 77.79L71.5358 77.4433" fill="white"/>
<path d="M70.5905 77.2862H71.4476V77.7148" fill="white"/>
<path d="M71.9095 78.2445L71.6446 77.4293L71.237 77.5617" fill="white"/>
<path d="M71.9095 78.2445L71.216 77.7407L71.4679 77.394" fill="white"/>
<path d="M70.9018 78.2445L71.5953 77.7407L71.3434 77.394" fill="white"/>
<path d="M70.9018 78.2445L71.1667 77.4293L71.5743 77.5617" fill="white"/>
<path d="M66.4669 75.9592L66.202 76.7744L66.6096 76.9069" fill="white"/>
<path d="M66.4669 75.9592L66.7317 76.7744L66.3242 76.9069" fill="white"/>
<path d="M67.2821 76.5515H66.4249V76.9801" fill="white"/>
<path d="M67.2821 76.5515L66.5886 77.0553L66.3367 76.7086" fill="white"/>
<path d="M65.6517 76.5515L66.3451 77.0553L66.597 76.7086" fill="white"/>
<path d="M65.6517 76.5515H66.5088V76.9801" fill="white"/>
<path d="M66.9707 77.5098L66.7058 76.6946L66.2982 76.8271" fill="white"/>
<path d="M66.9707 77.5098L66.2772 77.006L66.5292 76.6593" fill="white"/>
<path d="M65.9631 77.5098L66.6565 77.006L66.4046 76.6593" fill="white"/>
<path d="M65.9631 77.5098L66.2279 76.6946L66.6355 76.8271" fill="white"/>
<path d="M47.8138 74.6327L47.4165 75.8555L48.0279 76.0541" fill="white"/>
<path d="M47.8138 74.6327L48.2111 75.8555L47.5997 76.0541" fill="white"/>
<path d="M49.0366 75.5211H47.7509V76.164" fill="white"/>
<path d="M49.0366 75.5211L47.9964 76.2768L47.6186 75.7567" fill="white"/>
<path d="M46.591 75.5211L47.6312 76.2768L48.0091 75.7567" fill="white"/>
<path d="M46.591 75.5211H47.8767V76.164" fill="white"/>
<path d="M48.5695 76.9586L48.1722 75.7358L47.5608 75.9344" fill="white"/>
<path d="M48.5695 76.9586L47.5294 76.2028L47.9072 75.6828" fill="white"/>
<path d="M47.0581 76.9586L48.0983 76.2028L47.7204 75.6828" fill="white"/>
<path d="M47.0581 76.9586L47.4554 75.7358L48.0668 75.9344" fill="white"/>
<path d="M59.8546 83.0409L59.7222 83.4485L59.926 83.5147" fill="white"/>
<path d="M59.8546 83.0409L59.9871 83.4485L59.7833 83.5147" fill="white"/>
<path d="M60.2622 83.337H59.8337V83.5513" fill="white"/>
<path d="M60.2622 83.337L59.9155 83.5889L59.7896 83.4155" fill="white"/>
<path d="M59.447 83.337L59.7938 83.5889L59.9197 83.4155" fill="white"/>
<path d="M59.447 83.337H59.8756V83.5513" fill="white"/>
<path d="M60.1065 83.8162L59.9741 83.4086L59.7703 83.4748" fill="white"/>
<path d="M60.1065 83.8162L59.7598 83.5642L59.8858 83.3909" fill="white"/>
<path d="M59.6027 83.8162L59.9494 83.5642L59.8235 83.3909" fill="white"/>
<path d="M59.6027 83.8162L59.7352 83.4086L59.939 83.4748" fill="white"/>
</g>
<defs>
<clipPath id="clip0_909_237134">
<rect width="120" height="120" fill="white"/>
</clipPath>
</defs>
</svg>
