<svg width="121" height="120" viewBox="0 0 121 120" fill="none" xmlns="http://www.w3.org/2000/svg">
<g clip-path="url(#clip0_307_101546)">
<circle cx="60.4609" cy="60" r="60" fill="#D91C16"/>
<path d="M2.01874 46.3573C2.16097 45.7457 2.31255 45.1376 2.47333 44.5332H3.17429V46.5332H4.24096V44.5332H5.04096V42.3999H5.75207V40.6665H4.68541V38.6665H6.55207V39.9999H7.70763V42.2665H8.68541V44.7999H7.97429V46.6665H7.35207V48.3999H6.81874V50.2665H6.01874V51.8665H5.39652V53.3332H4.59652V55.1999H3.44096V53.1999H2.64096V51.3332H2.01874V50.1332H1.30762V49.8985C1.46898 48.9467 1.65276 48.0025 1.85839 47.0665H2.01874V46.3573Z" fill="white"/>
<path d="M1.85839 72.9332C1.65276 71.9972 1.46898 71.053 1.30762 70.1012V69.8665H2.01874V68.6665H2.64096V66.7999H3.44096V64.7999H4.59652V66.6665H5.39652V68.1332H6.01874V69.7332H6.81874V71.5999H7.35207V73.3332H7.97429V75.1999H8.68541V77.7332H7.70763V79.9999H6.55207V81.3332H4.68541V79.3332H5.75207V77.5999H5.04096V75.4665H4.24096V73.4665H3.17429V75.4665H2.47333C2.31255 74.8622 2.16097 74.2541 2.01874 73.6424V72.9332H1.85839Z" fill="white"/>
<path d="M19.1008 103.467H19.7965V97.9999H18.3743V99.8665H17.4854V101.733H17.3525C17.9234 102.323 18.5063 102.901 19.1008 103.467Z" fill="white"/>
<path fill-rule="evenodd" clip-rule="evenodd" d="M16.5965 100.938V99.8665H15.7076V97.9999H14.9965V95.5999H15.7076V93.7332H16.5965V91.8665H17.4854V93.7332H18.3743V95.5999H19.7965V91.1999H18.3743V88.5332H19.7965V82.6665H18.3743V84.9332H17.841V86.6665H17.3076V88.5332H16.5965V90.3999H15.9743V91.7332H15.1743V93.5999H14.1076V91.7332H13.3076V90.3999H12.5965V88.5332H11.8854V86.6665H11.2632V84.9332H10.7298V83.4665H9.66318V84.9332H9.12985V86.6665H8.50763V88.5332H7.79652V88.7716C8.75127 90.5155 9.79013 92.2068 10.9076 93.8401V93.7332H11.7965V91.8665H12.6854V93.7332H13.5743V95.5999H14.2854V97.9999H14.0259C14.8511 99.0071 15.7085 99.9871 16.5965 100.938ZM9.84096 91.8665V88.2665H10.5521V91.8665H9.84096Z" fill="white"/>
<path d="M12.5965 96.1855V95.5999H12.1587C12.3035 95.796 12.4494 95.9912 12.5965 96.1855Z" fill="white"/>
<path fill-rule="evenodd" clip-rule="evenodd" d="M7.79652 31.2281C8.75127 29.4842 9.79013 27.7929 10.9076 26.1597V26.2665H11.7965V28.1332H12.6854V26.2665H13.5743V24.3999H14.2854V21.9999H14.0259C14.8511 20.9926 15.7085 20.0127 16.5965 19.0616V20.1332H15.7076V21.9999H14.9965V24.3999H15.7076V26.2665H16.5965V28.1332H17.4854V26.2665H18.3743V24.3999H19.0854V28.7999H18.3743V31.4665H19.0854V37.3332H18.3743V35.0665H17.841V33.3332H17.3076V31.4665H16.5965V29.5999H15.9743V28.2665H15.1743V26.3999H14.1076V28.2665H13.3076V29.5999H12.5965V31.4665H11.8854V33.3332H11.2632V35.0665H10.7298V36.5332H9.66318V35.0665H9.12985V33.3332H8.50763V31.4665H7.79652V31.2281ZM9.84096 31.7332V28.1332H10.5521V31.7332H9.84096Z" fill="white"/>
<path d="M17.3525 18.2665C17.9185 17.682 18.4962 17.109 19.0854 16.5479V21.9999H18.3743V20.1332H17.4854V18.2665H17.3525Z" fill="white"/>
<path d="M12.1587 24.3999C12.3035 24.2038 12.4494 24.0085 12.5965 23.8143V24.3999H12.1587Z" fill="white"/>
<path d="M18.5521 40.6665H19.0854V44.3999H18.3743V47.0665H19.0854V50.1332H18.3743V51.3332H17.7521V53.1999H16.9521V55.1999H15.7965V53.3332H14.9965V51.8665H14.3743V50.2665H13.5743V48.3999H13.041V46.6665H12.4187V44.7999H11.7076V42.2665H12.6854V39.9999H13.841V38.6665H15.7076V40.6665H14.641V42.3999H15.3521V44.5332H16.1521V46.5332H17.2187V44.5332H18.0187V42.3999H18.5521V40.6665Z" fill="white"/>
<path d="M19.0854 54.3999H18.3743V56.2665H17.7521V57.3332H17.041V59.1999H16.4187V60.7999H17.041V62.6665H17.7521V63.7332H18.3743V65.5999H19.0854V54.3999Z" fill="white"/>
<path d="M18.3743 69.8665H19.0854V72.9332H18.3743V75.5999H19.0854V79.3332H18.5521V77.5999H18.0187V75.4665H17.2187V73.4665H16.1521V75.4665H15.3521V77.5999H14.641V79.3332H15.7076V81.3332H13.841V79.9999H12.6854V77.7332H11.7076V75.1999H12.4187V73.3332H13.041V71.5999H13.5743V69.7332H14.3743V68.1332H14.9965V66.6665H15.7965V64.7999H16.9521V66.7999H17.7521V68.6665H18.3743V69.8665Z" fill="white"/>
<path d="M2.01874 65.5999H1.30762V54.3999H2.01874V56.2665H2.64096V57.3332H3.35207V59.1999H3.97429V60.7999H3.35207V62.6665H2.64096V63.7332H2.01874V65.5999Z" fill="white"/>
<path d="M16.6854 24.3999H17.3965V21.9999H16.6854V24.3999Z" fill="white"/>
<path d="M16.6854 95.5999V97.9999H17.3965V95.5999H16.6854Z" fill="white"/>
<path fill-rule="evenodd" clip-rule="evenodd" d="M6.64096 56.6665H5.39652V63.3332H6.64096V64.7999H7.52985V66.1332H7.97429V67.4665H8.50763V69.3332H9.21874V71.1999H9.57429V72.9332H10.8187V71.1999H11.1743V69.3332H11.8854V67.4665H12.4187V66.1332H12.8632V64.7999H13.7521V63.3332H14.9965V56.6665H13.7521V55.1999H12.8632V53.8665H12.4187V52.5332H11.8854V50.6665H11.1743V48.7999H10.8187V47.0665H9.57429V48.7999H9.21874V50.6665H8.50763V52.5332H7.97429V53.8665H7.52985V55.1999H6.64096V56.6665ZM7.52985 61.1999H6.81874V58.7999H7.52985V61.1999ZM13.5743 58.7999V61.1999H12.8632V58.7999H13.5743ZM10.5521 53.3332H9.84096V50.9332H10.5521V53.3332ZM9.84096 69.0665V66.6665H10.5521V69.0665H9.84096ZM9.84096 55.8665V57.8665H10.5521V55.8665H11.2632V54.5332H11.9743V57.8665H11.2632V59.0665H10.8187V60.9332H11.2632V62.1332H11.9743V65.4665H11.2632V64.1332H10.5521V62.1332H9.84096V64.1332H9.12985V65.4665H8.41874V62.1332H9.12985V60.9332H9.57429V59.0665H9.12985V57.8665H8.41874V54.5332H9.12985V55.8665H9.84096Z" fill="white"/>
<path d="M117.047 80C108.811 103.304 86.5858 120 60.4614 120C44.4211 120 29.8508 113.706 19.0859 103.452V80H117.047Z" fill="#1E9A1C"/>
</g>
<defs>
<clipPath id="clip0_307_101546">
<rect width="120" height="120" fill="white" transform="translate(0.460938)"/>
</clipPath>
</defs>
</svg>
