<svg width="120" height="120" viewBox="0 0 120 120" fill="none" xmlns="http://www.w3.org/2000/svg">
<g clip-path="url(#clip0_354_98)">
<circle cx="60" cy="60" r="60" fill="#1E9A1C"/>
<mask id="mask0_354_98" style="mask-type:alpha" maskUnits="userSpaceOnUse" x="0" y="0" width="120" height="120">
<circle cx="60" cy="60" r="60" fill="#1E9A1C"/>
</mask>
<g mask="url(#mask0_354_98)">
<path d="M90.1479 84.8096L91.4574 88.8811L95.4572 87.3664L93.0904 90.9288L96.7684 93.1115L92.5076 93.4822L93.0943 97.7187L90.1479 94.6185L87.2015 97.7187L87.7882 93.4822L83.5273 93.1115L87.2054 90.9288L84.8386 87.3664L88.8384 88.8811L90.1479 84.8096Z" fill="#FDD406"/>
<path d="M78.2641 47.1772L79.5736 51.2488L83.5734 49.7341L81.2066 53.2965L84.8847 55.4792L80.6238 55.8498L81.2105 60.0864L78.2641 56.9862L75.3177 60.0864L75.9044 55.8498L71.6436 55.4792L75.3216 53.2965L72.9548 49.7341L76.9546 51.2488L78.2641 47.1772Z" fill="#FDD406"/>
<path d="M90.1479 21.4287L91.4574 25.5003L95.4572 23.9855L93.0904 27.5479L96.7684 29.7306L92.5076 30.1013L93.0943 34.3378L90.1479 31.2377L87.2015 34.3378L87.7882 30.1013L83.5273 29.7306L87.2054 27.5479L84.8386 23.9855L88.8384 25.5003L90.1479 21.4287Z" fill="#FDD406"/>
<path d="M111.275 40.8391L112.584 44.9107L116.584 43.3959L114.217 46.9583L117.895 49.141L113.635 49.5117L114.221 53.7482L111.275 50.6481L108.328 53.7482L108.915 49.5117L104.654 49.141L108.332 46.9583L105.966 43.3959L109.965 44.9107L111.275 40.8391Z" fill="#FDD406"/>
<path d="M99.6551 59.9099L100.69 62.4469L103.423 62.6471L101.33 64.4153L101.984 67.076L99.6551 65.6318L97.3267 67.076L97.9807 64.4153L95.8877 62.6471L98.6203 62.4469L99.6551 59.9099Z" fill="#FDD406"/>
<path d="M78.8306 78.4862C74.3885 82.5328 68.4824 85 62 85C48.1929 85 37 73.8071 37 60C37 46.1929 48.1929 35 62 35C68.4825 35 74.3887 37.4673 78.8308 41.514C76.1034 40.1784 73.0369 39.4286 69.7953 39.4286C58.434 39.4286 49.2238 48.6388 49.2238 60C49.2238 71.3613 58.434 80.5715 69.7953 80.5715C73.0368 80.5715 76.1033 79.8217 78.8306 78.4862Z" fill="#FDD406"/>
<path d="M21.19 41.1896C30.1315 41.1896 37.38 33.9411 37.38 24.9996C37.38 16.0581 30.1315 8.80957 21.19 8.80957C12.2485 8.80957 5 16.0581 5 24.9996C5 33.9411 12.2485 41.1896 21.19 41.1896Z" fill="#FDD406"/>
<path d="M20.0732 37.2067H24.1159C24.1159 37.2067 24.2984 36.8362 24.0752 36.6509C23.852 36.4656 22.9827 36.4248 23.2175 35.7694C23.7004 34.4219 23.7678 34.8373 24.071 31.637C24.3742 28.4366 24.5201 23.417 24.5201 23.417H23.9362C23.9362 23.417 24.0485 24.9779 23.7116 27.0104C23.3747 29.043 23.2737 29.2226 22.9031 30.7834C22.5325 32.3443 22.4764 32.4791 22.1395 33.3887C21.8026 34.2983 21.7689 34.3432 21.2412 35.1854C20.7134 36.0276 20.9043 35.7131 20.6123 36.2185C20.4663 36.4711 20.2867 36.4037 20.1884 36.5876C20.0901 36.7715 20.0733 37.2066 20.0733 37.2066L20.0732 37.2067Z" fill="#784B26" stroke="#784B26" stroke-width="1.38887"/>
<path d="M23.157 13.2043C23.1905 13.8322 23.1274 14.6634 22.8672 15.3399C22.6033 16.0937 22.3164 16.8451 22.3306 17.6258C21.9111 17.7685 21.4788 16.718 21.075 17.336C21.3785 18.1899 22.0793 18.866 22.5594 19.6353C22.6404 19.8738 23.3312 20.4965 22.9315 20.6414C21.9226 20.2961 21.6781 19.0178 21.0523 18.2416C20.3255 16.9352 18.9706 16.0119 17.4611 15.9482C16.8941 15.963 15.0505 15.8077 15.5302 16.7786C16.2366 17.2589 17.1071 17.572 17.8046 18.1111C18.3243 18.1597 19.2663 19.0273 19.2113 19.3551C18.2973 18.9849 17.8695 18.5412 16.8847 18.1518C15.5504 17.6364 13.7047 17.9464 12.966 19.2707C12.8283 19.6155 12.6249 20.6208 13.058 20.7165C13.5641 19.9264 14.288 19.0431 15.3607 19.28C16.2032 19.3458 14.4205 20.8496 15.1025 20.547C15.3186 20.4512 15.8175 20.1236 16.1637 20.0894C16.5098 20.0552 16.7032 20.3143 16.9658 20.3502C17.491 20.4219 17.6357 20.6421 17.587 20.7702C17.5296 20.9213 17.3627 20.7923 16.8287 20.9616C16.5617 21.0462 16.4223 21.2809 16.1108 21.3883C15.7994 21.4957 15.1516 21.5033 14.9095 21.408C14.0626 21.0401 12.674 21.1042 12.4099 22.1656C12.4097 22.6323 11.9944 22.114 11.8024 22.3156C11.6585 22.8249 11.6212 23.3478 10.8658 23.3016C10.4073 23.7826 9.93772 24.2807 9.35547 24.623C9.69715 25.4072 11.051 23.8353 10.9877 24.4981C10.3959 25.3052 11.2922 25.475 11.6846 24.8538C12.3482 24.1526 13.1701 23.2991 14.1603 24.0058C14.632 24.4498 14.906 23.771 15.2474 23.8074C15.4624 24.3589 15.733 23.8345 15.9771 23.6786C16.3767 23.6288 16.2643 24.1777 16.7391 23.8396C17.6854 23.2133 18.8496 23.7395 19.774 23.1302C20.758 22.6819 19.9122 23.4913 19.6406 23.8077C19.2083 24.6461 19.5832 25.7469 18.6454 26.2676C18.2688 27.2669 19.0905 28.5843 18.2524 29.3236C18.1304 29.7871 19.3302 29.7341 19.667 29.9246C20.257 29.9479 19.6416 28.574 20.2271 28.3899C21.0122 28.8759 20.9754 27.5208 20.8133 27.1028C20.8894 26.1527 20.943 25.114 21.4152 24.2534C21.9171 23.1987 22.3816 24.683 21.8198 25.1005C21.5006 26.0704 21.036 27.2841 21.7617 28.1861C21.9709 28.2329 22.1426 28.7398 22.4135 28.8957C22.6843 29.0515 23.0541 28.8561 23.1217 28.3949C23.469 27.006 23.294 25.5124 23.7901 24.1615C24.1402 23.7431 24.6232 24.0941 24.8403 24.4788C25.5354 25.2859 26.0241 26.2948 26.8657 26.9597C27.6319 27.3183 28.3096 27.8606 28.6628 28.6495C28.658 29.2582 30.3914 29.3515 29.8735 28.6749C29.3764 28.0163 29.7044 27.3576 30.2078 26.9197C30.4774 26.9861 30.3977 26.5033 30.1863 26.6943C29.8479 26.6145 29.8262 25.995 30.2967 26.2894C31.089 26.5452 30.2349 25.716 29.9485 25.6906C29.2785 25.2753 28.5088 24.7975 28.1794 24.0757C29.0515 24.0846 29.9569 24.555 30.8481 24.2632C31.5625 23.8962 32.287 24.2938 32.5365 24.9235C33.0888 24.8354 32.8533 24.2816 32.5365 24.0971C32.9404 23.9304 33.2198 23.5849 32.73 23.2801C32.4714 22.9425 33.0769 22.3668 32.3326 22.3907C32.3569 21.8222 32.1331 21.302 31.5134 21.1056C30.8926 20.5799 29.0709 21.8801 29.1238 20.6951C28.9402 20.0502 29.8638 20.6089 30.1218 20.2873C30.3885 19.6074 28.8511 19.6737 29.3584 19.1466C29.6897 18.9333 31.2445 18.6269 30.0252 18.3986C29.4167 18.5659 28.8944 18.442 28.4155 18.1409C27.979 18.871 26.7326 17.7444 26.9547 19.0424C26.7842 19.5315 25.6701 20.8022 25.3687 19.8287C25.6251 19.0656 26.945 18.8161 26.5357 17.7873C26.4729 17.145 25.9404 17.899 25.6895 17.8511C25.5625 17.4513 26.0737 16.9801 26.43 16.8852C27.1371 17.429 27.1585 16.1991 27.8309 16.2992C28.3218 16.1901 27.6724 15.9795 27.5354 15.8871C27.67 15.5278 28.4236 15.3441 27.6846 15.0321C27.0326 14.5483 26.5493 15.5137 26.0114 15.5651C25.4953 14.9824 26.4801 14.7022 26.752 14.3954C26.7666 14.1666 26.1777 14.3263 26.3549 14.1271C26.5088 13.852 27.5515 13.8315 27.0632 13.4188C26.3278 13.1663 25.3788 13.2292 24.6732 13.5563C24.2287 13.7002 24.0979 14.7053 23.7148 14.6637C23.5346 14.2163 23.7734 13.3335 23.1567 13.2041L23.157 13.2043ZM26.6341 23.0241C27.1945 22.9292 26.646 23.8751 26.3766 23.8612C26.4004 23.5213 25.5661 23.554 26.0837 23.2579C26.2516 23.1495 26.4386 23.0669 26.6341 23.0241Z" fill="#1E9A1C"/>
</g>
</g>
<defs>
<clipPath id="clip0_354_98">
<rect width="120" height="120" fill="white"/>
</clipPath>
</defs>
</svg>
