<svg width="120" height="120" viewBox="0 0 120 120" fill="none" xmlns="http://www.w3.org/2000/svg">
<g clip-path="url(#clip0_909_308109)">
<circle cx="60" cy="60" r="60" fill="#54AEF2"/>
<path d="M96.7702 12.5837C104.229 18.376 110.284 25.8893 114.34 34.5276L23.2298 107.416C15.7713 101.624 9.71592 94.1104 5.65967 85.4721L96.7702 12.5837Z" fill="#FDD406"/>
<path d="M100.424 15.6609C105.05 19.8808 109.013 24.8149 112.139 30.2888L19.576 104.339C14.95 100.119 10.9868 95.1851 7.86084 89.7112L100.424 15.6609Z" fill="#D91C16"/>
<path d="M28.2108 9.10398C28.539 8.89858 28.8693 8.69626 29.2016 8.49707L34.0001 23.9999H50.8001L37.2001 34.3999L42.4001 51.1999L28.8001 40.7999L15.2001 51.1999L20.4001 34.3999L10.166 26.5738C10.7538 25.6993 11.364 24.841 11.9957 23.9999H23.6001L28.2108 9.10398Z" fill="#FDD406"/>
</g>
<defs>
<clipPath id="clip0_909_308109">
<rect width="120" height="120" fill="white"/>
</clipPath>
</defs>
</svg>
