<svg width="120" height="120" viewBox="0 0 120 120" fill="none" xmlns="http://www.w3.org/2000/svg">
<g clip-path="url(#clip0_307_99721)">
<circle cx="60" cy="60" r="60" fill="#54AEF2"/>
<path d="M96.7707 12.584C104.229 18.3763 110.285 25.8896 114.341 34.5279L23.2303 107.416C15.7718 101.624 9.71641 94.1107 5.66016 85.4724L96.7707 12.584Z" fill="#FDD406"/>
<path d="M100.424 15.6611C105.05 19.881 109.013 24.8151 112.139 30.289L19.5765 104.339C14.9505 100.119 10.9873 95.1854 7.86133 89.7115L100.424 15.6611Z" fill="#D91C16"/>
<path d="M28.2108 9.10398C28.539 8.89858 28.8693 8.69626 29.2016 8.49707L34.0001 23.9999H50.8001L37.2001 34.3999L42.4001 51.1999L28.8001 40.7999L15.2001 51.1999L20.4001 34.3999L10.166 26.5738C10.7538 25.6993 11.364 24.841 11.9957 23.9999H23.6001L28.2108 9.10398Z" fill="#FDD406"/>
</g>
<defs>
<clipPath id="clip0_307_99721">
<rect width="120" height="120" fill="white"/>
</clipPath>
</defs>
</svg>
