<svg width="120" height="120" viewBox="0 0 120 120" fill="none" xmlns="http://www.w3.org/2000/svg">
<circle cx="60" cy="60" r="60" fill="#0F3296"/>
<path d="M120 60.0306C120 60.0204 120 60.0102 120 60H0C0 71.1356 3.03357 81.5627 8.3194 90.5H111.681C116.962 81.5709 119.994 71.1547 120 60.0306Z" fill="white"/>
<path d="M3.59347 80.5C2.42508 77.2859 1.52358 73.9436 0.915771 70.5H119.084C118.477 73.9436 117.575 77.2859 116.407 80.5H3.59347Z" fill="#E23726"/>
<path d="M16.0576 80.4585L17.3278 84.361H21.4409L18.1141 86.774L19.3852 90.6772L16.0576 88.265L12.7295 90.6772L14.001 86.774L10.6735 84.361H14.7857M15.7168 60.0333L16.9879 63.935H21.101L17.7734 66.3467L19.0444 70.2491L15.7168 67.8374L12.3892 70.2491L13.6603 66.3467L10.3335 63.935H14.4458M73.8712 60.0461L75.1422 63.94H79.2553L75.9277 66.3475L77.1988 70.2414L73.8712 67.8348L70.5436 70.2414L71.8146 66.3475L68.4871 63.94H72.5993" fill="#FDD406"/>
<path d="M73.491 80.4694L74.762 84.3641H78.8759L75.5483 86.7715L76.8194 90.6663L73.4912 88.2596L70.1645 90.6663L71.4347 86.7715L68.1079 84.3641H72.2202" fill="#FDD406"/>
<path d="M44.7876 39.0301L46.0586 42.9419H50.1725L46.8444 45.3592L48.116 49.271L44.7879 46.8537L41.4603 49.271L42.7313 45.3592L39.4045 42.9419H43.5163" fill="#FDD406"/>
<path d="M44.8026 100.318L46.0728 104.23H50.1859L46.8591 106.647L48.1302 110.559L44.8026 108.142L41.4745 110.559L42.746 106.647L39.4185 104.23H43.5307" fill="#FDD406"/>
<path d="M26.8101 44.8631L28.0811 48.7749H32.195L28.8669 51.1922L30.1385 55.104L26.8103 52.6867L23.4828 55.104L24.7538 51.1922L21.427 48.7749H25.5388" fill="#FDD406"/>
<path d="M62.7435 94.4986L64.0138 98.4103H68.1276L64.8001 100.828L66.0716 104.74L62.7435 102.323L59.4159 104.74L60.687 100.828L57.3594 98.4103H61.4717M27.4386 94.962L28.7096 98.8738H32.8227L29.4951 101.291L30.7662 105.203L27.4386 102.785L24.111 105.203L25.382 101.291L22.0544 98.8738H26.1675M62.2228 44.4147L63.4938 48.3264H67.6069L64.2801 50.7437L65.5512 54.6555L62.223 52.2382L58.8954 54.6555L60.1665 50.7437L56.8397 48.3264H60.952" fill="#FDD406"/>
</svg>
