<svg width="120" height="120" viewBox="0 0 120 120" fill="none" xmlns="http://www.w3.org/2000/svg">
<g clip-path="url(#clip0_307_99781)">
<circle cx="60" cy="60" r="60" fill="white"/>
<path d="M62.6197 101.348C62.5933 101.337 62.5697 101.32 62.5503 101.299L62.5253 101.276C62.4141 101.172 62.3085 101.062 62.2089 100.947C61.9425 100.645 61.5851 100.202 61.2709 99.8103C60.6479 99.0337 60.1331 98.3647 60.0361 98.2387L59.8775 98.0323L58.3241 97.5533L57.1899 97.0245L57.7959 96.3433L59.8775 97.2345L61.4309 97.5533L64.3035 99.6661L64.3013 99.6679C64.2955 99.6727 63.8835 100.015 63.4741 100.388C63.2915 100.554 63.0613 100.768 62.8987 100.944C62.8317 101.016 62.7695 101.092 62.7127 101.172C62.6785 101.229 62.6475 101.288 62.6197 101.348M51.9517 98.1445C50.5503 98.1317 49.1773 97.7475 47.9727 97.0311H47.9713V97.0295C48.1179 96.7851 48.3139 96.5739 48.5469 96.4095C48.9351 96.1245 49.6353 95.7839 50.7669 95.7795H50.7903C52.1303 95.7795 53.7703 96.2351 55.6649 97.1337C54.5417 97.8011 53.2581 98.1505 51.9517 98.1445ZM46.0777 96.8425C45.8381 96.8471 45.6079 96.7503 45.4437 96.5759C45.3019 96.4111 45.2043 96.2129 45.1597 96.0001C45.0957 95.7239 45.0719 95.4397 45.0895 95.1567C45.1883 95.1139 45.2943 95.0899 45.4019 95.0859H45.4243C45.9265 95.0859 46.3223 95.5215 46.4919 95.9533C46.5843 96.1443 46.6039 96.3623 46.5467 96.5667C46.4615 96.7451 46.2761 96.8537 46.0787 96.8407L46.0777 96.8425ZM56.4137 95.6445C52.9419 95.1487 51.4703 93.8935 50.8471 92.9279C50.4525 92.3419 50.2669 91.6403 50.3203 90.9359V90.9331H50.3229C50.4973 90.8931 50.6757 90.8733 50.8545 90.8745C51.7781 90.8745 54.1405 91.3391 56.4145 95.6429L56.4159 95.6457L56.4119 95.6437L56.4137 95.6445ZM49.2977 94.9565C47.8145 94.9565 46.6853 94.7005 45.9413 94.1965C45.6249 93.9939 45.3701 93.7085 45.2041 93.3715C45.1435 93.2437 45.1035 93.1071 45.0853 92.9669C45.5795 92.7665 46.1053 92.6549 46.6383 92.6369C46.7149 92.6333 46.7921 92.6311 46.8731 92.6309C48.0195 92.6309 49.7627 93.0049 51.6023 94.7869L51.6041 94.7887H51.6019C50.8377 94.8941 50.0673 94.9501 49.2959 94.9567L49.2977 94.9565ZM42.1157 94.6805C40.5517 94.6805 38.4031 94.2029 37.0631 92.8631L37.0617 92.8615H37.0657C38.0843 92.6209 39.1243 92.4827 40.1703 92.4491C40.2679 92.4467 40.3663 92.4455 40.4653 92.4453C41.9317 92.4453 43.0541 92.7297 43.8017 93.2903C44.0105 93.4157 44.1657 93.6141 44.2373 93.8469C44.2539 94.0187 44.1721 94.1851 44.0261 94.2769C43.6895 94.5311 43.0877 94.6667 42.2371 94.6803L42.1171 94.6843L42.1157 94.6805ZM37.0477 92.0805C36.8559 92.0809 36.6739 91.9951 36.5519 91.8471C36.4391 91.6989 36.3631 91.5261 36.3303 91.3427C36.2793 91.1013 36.2597 90.8543 36.2721 90.6079V90.6043C36.3485 90.5691 36.4315 90.5503 36.5155 90.5493C36.7117 90.5565 36.8973 90.6395 37.0333 90.7809C37.1847 90.9293 37.3001 91.1101 37.3709 91.3099C37.4417 91.4765 37.4545 91.6621 37.4069 91.8369C37.3485 91.9843 37.2055 92.0805 37.0469 92.0789L37.0477 92.0805ZM48.7537 91.8165C48.5141 91.8211 48.2839 91.7243 48.1197 91.5499C47.9779 91.3851 47.8801 91.1871 47.8353 90.9743C47.7713 90.6981 47.7475 90.4139 47.7651 90.1309C47.8639 90.0881 47.9699 90.0641 48.0775 90.0601H48.0999C48.6021 90.0601 48.9979 90.4957 49.1675 90.9275C49.2599 91.1185 49.2795 91.3365 49.2223 91.5409C49.1373 91.7195 48.9517 91.8281 48.7543 91.8149L48.7537 91.8165ZM43.0517 91.5805C39.9043 91.4697 38.2717 90.5751 37.4549 89.8439C37.1057 89.5379 36.8179 89.1681 36.6069 88.7545C36.5283 88.5993 36.4675 88.4357 36.4253 88.2669L36.4295 88.2651C36.6815 88.1887 36.9433 88.1497 37.2065 88.1493H37.2801C38.3415 88.1493 40.5023 88.5951 43.0505 91.5799V91.5819L43.0517 91.5805ZM46.4697 91.2625C43.9375 90.8769 42.5029 89.7899 41.7453 88.9455C41.2777 88.4435 40.9223 87.8477 40.7027 87.1979C40.9587 87.1393 41.2201 87.1077 41.4827 87.1041C41.5165 87.1041 41.5517 87.1027 41.5875 87.1027C41.6233 87.1027 41.6605 87.1027 41.6981 87.1041C42.9717 87.1319 45.2849 87.7087 46.4691 91.2611H46.4711L46.4697 91.2625ZM33.4697 90.0465C32.6637 90.0491 31.8603 89.9529 31.0777 89.7601C29.7519 89.4285 29.1831 88.9223 28.9395 88.5559C28.8345 88.4041 28.7643 88.2311 28.7333 88.0491C28.7223 87.9781 28.7201 87.9061 28.7271 87.8345L28.7333 87.8323C29.4181 87.6625 30.1205 87.5733 30.8261 87.5667C30.8739 87.5667 30.9221 87.5655 30.9711 87.5655C31.5461 87.5645 32.1199 87.6201 32.6839 87.7315C33.9633 87.9989 35.1033 88.7191 35.8945 89.7595V89.7613H35.8919C35.0987 89.9553 34.2845 90.0507 33.4679 90.0453L33.4697 90.0465ZM39.3477 87.9105C39.1091 87.9169 38.8787 87.8225 38.7133 87.6505C38.5711 87.4837 38.4733 87.2837 38.4293 87.0689C38.3651 86.7949 38.3415 86.5129 38.3591 86.2319C38.4579 86.1891 38.5639 86.1651 38.6715 86.1611H38.6939C39.1951 86.1611 39.5915 86.5969 39.7617 87.0287C39.8523 87.2181 39.8695 87.4341 39.8103 87.6355C39.7291 87.8151 39.5449 87.9251 39.3483 87.9115L39.3477 87.9105ZM34.9277 87.3045C34.0861 87.0663 33.2811 86.7147 32.5343 86.2595C31.4255 85.5769 30.0691 84.3695 29.9037 82.4935H29.9065C29.9907 82.4755 30.0761 82.4653 30.1621 82.4627C30.1821 82.4627 30.2055 82.4615 30.2289 82.4615C30.5601 82.4615 31.2381 82.5547 32.0583 83.1783C33.1023 83.9743 34.0663 85.3623 34.9283 87.3083L34.9277 87.3045ZM37.8137 87.1985C37.1269 86.8865 36.4891 86.4767 35.9199 85.9817C34.4489 84.7157 33.3025 83.1157 32.5767 81.3157C32.7579 81.2307 32.9539 81.1821 33.1539 81.1721C33.1739 81.1707 33.1939 81.1703 33.2151 81.1703C33.2451 81.1703 33.2761 81.1703 33.3077 81.1721C33.7899 81.1857 34.5243 81.3861 35.3385 82.2647C36.2737 83.2741 37.1085 84.9327 37.8185 87.1949L37.8205 87.2013L37.8145 87.1993L37.8137 87.1985ZM30.3357 86.9805C29.3715 86.9805 29.0415 86.4575 28.9443 86.2325C28.8475 85.9981 28.8095 85.7435 28.8335 85.4911V85.4871C28.9905 85.4479 29.1517 85.4269 29.3135 85.4243H29.3465C29.9769 85.4089 30.5771 85.6939 30.9633 86.1925C31.0143 86.2683 31.1707 86.5313 31.0413 86.7367C30.9373 86.8987 30.7013 86.9807 30.3353 86.9807L30.3357 86.9805ZM28.1997 84.2863C27.4529 84.2881 26.7073 84.2243 25.9715 84.0959C25.1127 83.9397 24.6259 83.2095 24.3689 82.6247C24.1961 82.2249 24.0751 81.8045 24.0089 81.3739H24.0113C26.6677 81.4519 27.9223 82.2281 28.5069 82.8653C28.8691 83.2423 29.0949 83.7297 29.1481 84.2497H29.1463C29.1423 84.2497 28.7683 84.2857 28.1983 84.2857L28.1997 84.2863ZM30.9657 81.5223C30.9621 81.5179 30.6587 81.1423 30.3591 80.6767C30.0445 80.1877 29.7535 79.6767 29.7535 79.2599C29.7535 78.8567 29.6587 78.0067 29.6021 77.5361C29.5305 76.9391 29.4581 76.4281 29.4521 76.3847H29.4547C29.5221 76.4093 31.1163 77.0075 31.1163 78.5029C31.1163 79.9983 30.9687 81.5057 30.9673 81.5207V81.5229H30.9653L30.9657 81.5223ZM28.8997 81.3803C28.8829 81.3803 28.8663 81.3787 28.8497 81.3761C28.3785 81.2975 27.5497 80.9373 26.6351 80.4125C25.6187 79.8297 24.7933 79.2053 24.3111 78.6543C23.8711 78.1519 23.6111 77.3629 23.5351 76.3091C23.5015 75.8319 23.5075 75.3527 23.5525 74.8765C23.6375 74.8491 23.7263 74.8355 23.8155 74.8365C24.1683 74.8423 24.5449 75.0011 25.0533 75.3513C25.5167 75.6811 25.9509 76.0501 26.3513 76.4541C26.8597 76.9591 27.3403 77.4913 27.7913 78.0483L27.7977 78.0563C27.8507 78.1513 28.3051 78.9705 28.6591 79.7679C28.8361 80.1349 28.9719 80.5203 29.0639 80.9171C29.0987 81.0333 29.0987 81.1571 29.0639 81.2733C29.0491 81.3109 29.0219 81.3425 28.9869 81.3629C28.9591 81.3749 28.9291 81.3811 28.8989 81.3809L28.8997 81.3803Z" fill="#005801"/>
<path d="M57.3803 101.348C57.4067 101.337 57.4303 101.32 57.4497 101.299L57.4747 101.276C57.5859 101.172 57.6915 101.062 57.7911 100.947C58.0575 100.645 58.4149 100.202 58.7291 99.8103C59.3521 99.0337 59.8669 98.3647 59.9639 98.2387L60.1225 98.0323L61.6759 97.5533L62.8101 97.0245L62.2041 96.3433L60.1225 97.2345L58.5691 97.5533L55.6965 99.6661L55.6987 99.6679C55.7045 99.6727 56.1165 100.015 56.5259 100.388C56.7085 100.554 56.9387 100.768 57.1013 100.944C57.1683 101.016 57.2305 101.092 57.2873 101.172C57.3215 101.229 57.3525 101.288 57.3803 101.348M68.0483 98.1445C69.4497 98.1317 70.8227 97.7475 72.0273 97.0311H72.0287V97.0295C71.8821 96.7851 71.6861 96.5739 71.4531 96.4095C71.0649 96.1245 70.3647 95.7839 69.2331 95.7795H69.2097C67.8697 95.7795 66.2297 96.2351 64.3351 97.1337C65.4583 97.8011 66.7419 98.1505 68.0483 98.1445ZM73.9223 96.8425C74.1619 96.8471 74.3921 96.7503 74.5563 96.5759C74.6981 96.4111 74.7957 96.2129 74.8403 96.0001C74.9043 95.7239 74.9281 95.4397 74.9105 95.1567C74.8117 95.1139 74.7057 95.0899 74.5981 95.0859H74.5757C74.0735 95.0859 73.6777 95.5215 73.5081 95.9533C73.4157 96.1443 73.3961 96.3623 73.4533 96.5667C73.5385 96.7451 73.7239 96.8537 73.9213 96.8407L73.9223 96.8425ZM63.5863 95.6445C67.0581 95.1487 68.5297 93.8935 69.1529 92.9279C69.5475 92.3419 69.7331 91.6403 69.6797 90.9359V90.9331H69.6771C69.5027 90.8931 69.3243 90.8733 69.1455 90.8745C68.2219 90.8745 65.8595 91.3391 63.5855 95.6429L63.5841 95.6457L63.5881 95.6437L63.5863 95.6445ZM70.7023 94.9565C72.1855 94.9565 73.3147 94.7005 74.0587 94.1965C74.3751 93.9939 74.6299 93.7085 74.7959 93.3715C74.8565 93.2437 74.8965 93.1071 74.9147 92.9669C74.4205 92.7665 73.8947 92.6549 73.3617 92.6369C73.2851 92.6333 73.2079 92.6311 73.1269 92.6309C71.9805 92.6309 70.2373 93.0049 68.3977 94.7869L68.3959 94.7887H68.3981C69.1623 94.8941 69.9327 94.9501 70.7041 94.9567L70.7023 94.9565ZM77.8843 94.6805C79.4483 94.6805 81.5969 94.2029 82.9369 92.8631L82.9383 92.8615H82.9343C81.9157 92.6209 80.8757 92.4827 79.8297 92.4491C79.7321 92.4467 79.6337 92.4455 79.5347 92.4453C78.0683 92.4453 76.9459 92.7297 76.1983 93.2903C75.9895 93.4157 75.8343 93.6141 75.7627 93.8469C75.7461 94.0187 75.8279 94.1851 75.9739 94.2769C76.3105 94.5311 76.9123 94.6667 77.7629 94.6803L77.8829 94.6843L77.8843 94.6805ZM82.9523 92.0805C83.1441 92.0809 83.3261 91.9951 83.4481 91.8471C83.5609 91.6989 83.6369 91.5261 83.6697 91.3427C83.7207 91.1013 83.7403 90.8543 83.7279 90.6079V90.6043C83.6515 90.5691 83.5685 90.5503 83.4845 90.5493C83.2883 90.5565 83.1027 90.6395 82.9667 90.7809C82.8153 90.9293 82.6999 91.1101 82.6291 91.3099C82.5583 91.4765 82.5455 91.6621 82.5931 91.8369C82.6515 91.9843 82.7945 92.0805 82.9531 92.0789L82.9523 92.0805ZM71.2463 91.8165C71.4859 91.8211 71.7161 91.7243 71.8803 91.5499C72.0221 91.3851 72.1199 91.1871 72.1647 90.9743C72.2287 90.6981 72.2525 90.4139 72.2349 90.1309C72.1361 90.0881 72.0301 90.0641 71.9225 90.0601H71.9001C71.3979 90.0601 71.0021 90.4957 70.8325 90.9275C70.7401 91.1185 70.7205 91.3365 70.7777 91.5409C70.8627 91.7195 71.0483 91.8281 71.2457 91.8149L71.2463 91.8165ZM76.9483 91.5805C80.0957 91.4697 81.7283 90.5751 82.5451 89.8439C82.8943 89.5379 83.1821 89.1681 83.3931 88.7545C83.4717 88.5993 83.5325 88.4357 83.5747 88.2669L83.5705 88.2651C83.3185 88.1887 83.0567 88.1497 82.7935 88.1493H82.7199C81.6585 88.1493 79.4977 88.5951 76.9495 91.5799V91.5819L76.9483 91.5805ZM73.5303 91.2625C76.0625 90.8769 77.4971 89.7899 78.2547 88.9455C78.7223 88.4435 79.0777 87.8477 79.2973 87.1979C79.0413 87.1393 78.7799 87.1077 78.5173 87.1041C78.4835 87.1041 78.4483 87.1027 78.4125 87.1027C78.3767 87.1027 78.3395 87.1027 78.3019 87.1041C77.0283 87.1319 74.7151 87.7087 73.5309 91.2611H73.5289L73.5303 91.2625ZM86.5303 90.0465C87.3363 90.0491 88.1397 89.9529 88.9223 89.7601C90.2481 89.4285 90.8169 88.9223 91.0605 88.5559C91.1655 88.4041 91.2357 88.2311 91.2667 88.0491C91.2777 87.9781 91.2799 87.9061 91.2729 87.8345L91.2667 87.8323C90.5819 87.6625 89.8795 87.5733 89.1739 87.5667C89.1261 87.5667 89.0779 87.5655 89.0289 87.5655C88.4539 87.5645 87.8801 87.6201 87.3161 87.7315C86.0367 87.9989 84.8967 88.7191 84.1055 89.7595V89.7613H84.1081C84.9013 89.9553 85.7155 90.0507 86.5321 90.0453L86.5303 90.0465ZM80.6523 87.9105C80.8909 87.9169 81.1213 87.8225 81.2867 87.6505C81.4289 87.4837 81.5267 87.2837 81.5707 87.0689C81.6349 86.7949 81.6585 86.5129 81.6409 86.2319C81.5421 86.1891 81.4361 86.1651 81.3285 86.1611H81.3061C80.8049 86.1611 80.4085 86.5969 80.2383 87.0287C80.1477 87.2181 80.1305 87.4341 80.1897 87.6355C80.2709 87.8151 80.4551 87.9251 80.6517 87.9115L80.6523 87.9105ZM85.0723 87.3045C85.9139 87.0663 86.7189 86.7147 87.4657 86.2595C88.5745 85.5769 89.9309 84.3695 90.0963 82.4935H90.0935C90.0093 82.4755 89.9239 82.4653 89.8379 82.4627C89.8179 82.4627 89.7945 82.4615 89.7711 82.4615C89.4399 82.4615 88.7619 82.5547 87.9417 83.1783C86.8977 83.9743 85.9337 85.3623 85.0717 87.3083L85.0723 87.3045ZM82.1863 87.1985C82.8731 86.8865 83.5109 86.4767 84.0801 85.9817C85.5511 84.7157 86.6975 83.1157 87.4233 81.3157C87.2421 81.2307 87.0461 81.1821 86.8461 81.1721C86.8261 81.1707 86.8061 81.1703 86.7849 81.1703C86.7549 81.1703 86.7239 81.1703 86.6923 81.1721C86.2101 81.1857 85.4757 81.3861 84.6615 82.2647C83.7263 83.2741 82.8915 84.9327 82.1815 87.1949L82.1795 87.2013L82.1855 87.1993L82.1863 87.1985ZM89.6643 86.9805C90.6285 86.9805 90.9585 86.4575 91.0557 86.2325C91.1525 85.9981 91.1905 85.7435 91.1665 85.4911V85.4871C91.0095 85.4479 90.8483 85.4269 90.6865 85.4243H90.6535C90.0231 85.4089 89.4229 85.6939 89.0367 86.1925C88.9857 86.2683 88.8293 86.5313 88.9587 86.7367C89.0627 86.8987 89.2987 86.9807 89.6647 86.9807L89.6643 86.9805ZM91.8003 84.2863C92.5471 84.2881 93.2927 84.2243 94.0285 84.0959C94.8873 83.9397 95.3741 83.2095 95.6311 82.6247C95.8039 82.2249 95.9249 81.8045 95.9911 81.3739H95.9887C93.3323 81.4519 92.0777 82.2281 91.4931 82.8653C91.1309 83.2423 90.9051 83.7297 90.8519 84.2497H90.8537C90.8577 84.2497 91.2317 84.2857 91.8017 84.2857L91.8003 84.2863ZM89.0343 81.5223C89.0379 81.5179 89.3413 81.1423 89.6409 80.6767C89.9555 80.1877 90.2465 79.6767 90.2465 79.2599C90.2465 78.8567 90.3413 78.0067 90.3979 77.5361C90.4695 76.9391 90.5419 76.4281 90.5479 76.3847H90.5453C90.4779 76.4093 88.8837 77.0075 88.8837 78.5029C88.8837 79.9983 89.0313 81.5057 89.0327 81.5207V81.5229H89.0347L89.0343 81.5223ZM91.1003 81.3803C91.1171 81.3803 91.1337 81.3787 91.1503 81.3761C91.6215 81.2975 92.4503 80.9373 93.3649 80.4125C94.3813 79.8297 95.2067 79.2053 95.6889 78.6543C96.1289 78.1519 96.3889 77.3629 96.4649 76.3091C96.4985 75.8319 96.4925 75.3527 96.4475 74.8765C96.3625 74.8491 96.2737 74.8355 96.1845 74.8365C95.8317 74.8423 95.4551 75.0011 94.9467 75.3513C94.4833 75.6811 94.0491 76.0501 93.6487 76.4541C93.1403 76.9591 92.6597 77.4913 92.2087 78.0483L92.2023 78.0563C92.1493 78.1513 91.6949 78.9705 91.3409 79.7679C91.1639 80.1349 91.0281 80.5203 90.9361 80.9171C90.9013 81.0333 90.9013 81.1571 90.9361 81.2733C90.9509 81.3109 90.9781 81.3425 91.0131 81.3629C91.0409 81.3749 91.0709 81.3811 91.1011 81.3809L91.1003 81.3803Z" fill="#005801"/>
<path d="M109.204 25.6549L108.574 26.0992L108.516 26.2228L108.316 26.6576L108.094 26.7114L107.827 27.5714L107.615 27.8382L106.644 28.6066L105.516 29.0688L104.551 29.7158L102.96 31.3274L98.9352 33.1166L97.6014 33.9138L95.7976 35.2364L94.9954 35.9784L93.9342 37.2L93.7508 37.5448L93.6552 37.8622L93.3577 38.8596L93.2152 39.0782L92.9404 39.2478L92.3582 39.4312L92.0042 39.4712L91.852 39.4874L91.072 39.5026L90.252 39.2498L89.2894 39.3854L88.7026 39.7406L88.6458 39.7742L88.3208 40.0906L87.9808 40.5882L87.5848 41.3666L87.222 41.6638L86.6364 42.8554L86.5924 43.0712L86.2488 44.8422L86.2802 45.2322L86.283 45.2748L86.7046 46.4948L86.6094 46.7126L86.3884 46.7682L86.1902 46.9652L86.1762 46.98L86.1994 47.0042L86.2394 47.0442L86.6525 47.047L86.8482 47.16L86.9842 47.3486L87.8122 48.4738L87.8322 48.4996L88.2334 48.9378L88.7258 49.3178L89.1676 50.2806L89.6392 50.9066L90.2992 51.5782L90.4508 51.6982L90.4536 51.7002L90.8866 52.0466L92.123 53.0336L93.0722 54.4806L93.2596 54.7652L93.2902 54.812L93.9224 55.5874L93.5768 55.9596L93.9398 56.5796L94.344 56.6618L94.3754 56.7078L94.4584 56.8342L94.2496 57.1128L94.0732 57.0876L93.9446 56.9062L93.9194 56.8712L93.893 56.879L93.693 56.9368L93.5588 56.9768L93.494 56.966L93.4636 56.9604L93.4048 56.9508L92.2732 56.2888L91.9522 56.2488L91.4014 55.8614L90.8884 55.9214L90.6164 55.9536L90.2664 55.8136L89.8264 55.9012L89.1994 55.6744L88.9404 55.6764L88.664 56.001L88.5986 56.036L88.481 56.0996L87.435 56.1596L86.5456 56.5062L86.4434 56.6612H86.4478V56.6634L86.4422 56.662L86.4343 56.67L86.1754 57.0596L86.1642 57.0756L85.7042 57.327L85.3666 57.6124L84.9192 57.8454L84.605 57.8956L84.49 57.8454L84.11 57.6854L83.9998 57.5784L83.4122 57.0046L82.8574 56.5732L82.3774 56.4174L82.2762 56.3998L80.853 56.147L80.2906 56.1546C80.2906 56.1546 79.7006 56.1456 79.6772 56.163L77.9906 56.1862L77.8658 56.2076L77.7937 56.2198L77.304 56.302L76.9582 56.4526L76.2782 56.9126L75.8564 57.3684L75.3775 58.4984L75.2756 59.3876L75.3616 60.2658L75.235 60.7522V61.0938L75.2324 61.5028L74.4622 62.6252L74.1762 62.8082L73.903 63.7832L73.743 63.8802L72.534 63.7304L71.514 63.7944L71.1958 63.9786L70.6962 64.6984L70.3161 64.8526L69.9848 65.2266L69.436 65.2998L69.1794 65.7274L67.9034 65.8172L67.4158 65.943L66.9706 66.1796L66.4548 66.5758L65.6428 67.0046L65.5702 67.0446L65.3642 67.1542L64.572 67.3812L63.7496 67.9722L63.5896 68.0364L63.1674 68.0258L62.484 68.399L62.1532 68.3934L61.6868 68.6548L60.6844 68.4074L60.4282 68.444L59.8802 68.6852L59.8202 68.7416L59.7308 68.828L59.5648 69.294V69.2952L59.38 69.351L54.396 69L53.6576 69.1286L53.6302 69.1318L51.9718 69.6956L51.8992 69.6664L51.8818 69.7464L51.2298 70.0288L50.5974 70.4458L49.7974 71.1622L49.0526 71.6408L48.7714 72.014L48.7456 72.117H48.7438L48.6438 72.5106L48.5078 72.6874L48.445 73.1828L48.4798 73.5598L48.5286 74.119L48.6864 74.5562L48.8936 74.8582L49.3998 75.4458L49.63 75.7096L49.667 75.9096L49.595 76.0808L49.482 76.155L49.1762 76.1262L48.5761 75.8546L48.3646 75.7604L47.8605 75.766L47.402 75.5686L47.1166 75.7106L46.6858 75.9244L46.413 75.8958L45.9998 75.8518L45.7654 75.8882L45.5728 75.9948L45.4716 76.05L45.4172 75.919L45.4324 75.8758L45.4764 75.7592L45.7444 75.5548L45.736 75.2412L45.5636 74.7602L45.3172 74.4156L44.9858 73.4428L44.955 73.3518L44.4992 72.6628L43.9946 72.1334L44.1545 71.8672L43.7722 71.8598L43.7302 71.858L43.3868 71.465L43.0796 71.2488L41.9238 70.992L41.3948 71.1796L40.7972 71.0134L39.9052 71.4014L39.5578 71.2886L38.369 71.4362L38.0166 71.604L37.9196 71.7478L37.4226 72.054L37.1086 72.1066L36.7868 72.0266L36.3994 72.049L35.9994 72.3854L35.7166 72.3808L35.3312 72.2408L34.8016 72.0458L34.2292 71.9122L33.1724 71.5076L33.1772 71.495H33.1744L33.1693 71.5074L32.9694 71.4306L32.705 71.3678L32.217 71.251L31.648 71.0062L31.3632 70.774L31.1488 70.5998L30.7866 70.3758L29.9344 69.8462L29.5106 69.7376L28.5418 69.4406L28.095 69.4464L27.5778 69.0966L27.1742 69.1322L27.1329 69.1364L26.7618 69.3828L26.5218 69.1412L26.3292 69.0446L26.3144 69.0362L26.0466 68.901L24.8666 67.8342L24.6222 67.7164L24.237 67.7728L23.8432 67.1728L23.518 66.902L23.3156 66.87L23.0022 66.934L22.7132 66.6728L22.8332 65.859L22.762 65.5514L22.5352 65.1618L22.5332 65.087L22.5276 64.56L22.1632 63.588L22.12 62.8058L21.9246 62.5514L21.6774 62.4282L21.521 62.3524L21.2794 62.1108L21.0338 62.115L20.8718 61.9914L20.5806 62.0534L20.33 61.8334L20.0006 61.0162L19.3828 60.4662L19.0192 60.1392L18.976 59.8832L19.0618 59.7918L19.369 59.4576L19.5616 58.8518L19.3892 58.4148L18.599 57.4242L18.648 57.1312L18.9152 56.9238L18.8084 56.5838L19.0198 56.077L18.7198 55.1794L18.706 55.1558L18.3862 54.6182L18.3416 54.5436L18.07 53.8902L17.19 52.6602L17.1104 52.062L17.2432 50.7886L17.2922 50.5646L17.3502 50.312L17.4562 50.1372L17.727 50.1302L18.092 50.3636L18.1262 50.3864L18.2902 50.485L19.449 51.6298L20.249 52.2732L20.979 52.7296L21.6436 52.9336L22.3836 53.032L22.7738 53.0304L23.5764 52.8664L24.5082 52.5182L25.9198 51.4238L26.4034 50.8918L26.5464 50.734L27.0064 50.057L27.7416 48.379L28.0194 47.9696L28.418 47.6186L28.8102 47.2718L28.9338 46.9962L28.9604 46.5362L29.0958 46.4384L29.3472 46.4896L29.4972 46.578L29.7792 46.7428L29.9392 46.7122L30.0682 46.6898L30.1408 46.6752L30.1428 46.6772L30.2608 46.6262L30.5024 46.5208L30.776 46.4022L30.9792 46.3134L31.167 46.3184L31.407 46.3218L31.5998 46.2198L31.6342 46.1552L31.9142 45.7322L32.1612 45.7168L32.5026 45.8524L33.306 45.4788L33.8154 45.5046L34.1881 45.5946L34.8962 45.9214L35.6562 45.9414L35.8072 45.9854L36.0258 46.0508L36.6209 46.2304L37.0502 46.2704L37.2554 46.517L38.0436 46.9726L38.7636 47.1214L39.41 47.5862L39.9034 47.7132L40.406 47.9854L40.8096 48.0054L41.4574 47.9564L41.71 47.8518L42.5079 47.3918L43.5918 46.6542L44.07 46.328L44.2648 46.0594L44.974 43.8928L45.1568 43.079L45.3568 42.193L45.4134 41.933L45.5812 40.2228L45.5824 39.1504L45.4771 38.0936L45.3334 37.7096L44.9883 37.3272L44.8992 37.0422L44.909 36.7248L44.9272 36.2122L44.8672 35.6574L44.6892 35.0974L44.7374 34.9268L45.0962 34.985L46.0518 35.445L47.4602 36.325L48.5534 36.9114L48.7354 36.895L49.3302 36.835L49.5968 36.8984L50.318 37.248L51.018 37.4316L51.6204 37.4116L52.0628 37.2966L52.5724 37.1108L52.9123 36.8566L53.1846 36.8428L54.8954 37.3412L55.4056 37.4912L57.2855 37.242L57.622 37.5248L58.1742 37.607L58.4096 37.7946L58.663 37.8596L59.103 37.6996L59.295 37.7044L59.8284 37.8978L60.0516 37.874L60.3498 37.7022L61.0098 37.8978L61.3028 37.9856L62.5566 38.131L63.4166 38.4202L63.9294 38.3036L65.0038 38.425L67.3538 38.323L67.4182 38.3406L67.7038 38.4168L68.5038 38.319L68.9114 38.1978L69.5634 38.2082L70.436 37.9282L72.1797 37.7598L73.7434 37.246L73.7834 37.2322L74.0476 37.309H74.4732L75.2382 37.191L75.8016 37.013L75.8072 37.0298L75.805 37.426L76.748 37.1274L77.5534 36.7074L78.0706 36.2342L80.5634 35.037L81.0567 34.9344L81.8368 34.919L82.9578 35.0434L83.3884 34.887L84.1154 34.9638L85.8974 34.4248L85.959 34.406L87.0668 34.0718L88.3223 33.6094L89.0264 33.497L89.517 33.3398L91.916 32.1452L93.436 31.3918L94.016 30.9158L94.8438 30.664L95.6424 30.2584L96.5868 29.2652L97.1438 28.5462L97.5806 28.2816L97.8146 27.9702L97.8223 27.929L97.8998 27.541L98.1224 27.5088L98.8268 27.8222L99.1468 27.8084L99.389 27.663L99.5306 27.8808L99.8806 27.7422L100.181 27.7956L100.241 27.7588L100.489 27.6108L100.64 27.5192L100.712 27.453L101.037 27.1432L101.817 27.0748L102.232 26.8456H102.328L102.744 26.856L103.056 26.696L103.41 26.4006L103.854 26.2478L104.013 26.073L104.087 25.6558L104.25 25.627L104.467 25.707L104.667 25.6646L105.018 25.303L105.342 24.651L105.548 24.508L106.211 24.4564L106.562 24.1178L106.796 24.041L107.352 24.0696L107.498 24.078L107.915 23.8809C108.355 24.464 108.785 25.0555 109.204 25.6549Z" fill="#F4812F"/>
</g>
<defs>
<clipPath id="clip0_307_99781">
<rect width="120" height="120" fill="white"/>
</clipPath>
</defs>
</svg>
