<svg width="120" height="120" viewBox="0 0 120 120" fill="none" xmlns="http://www.w3.org/2000/svg">
<g clip-path="url(#clip0_909_280943)">
<circle cx="60" cy="60" r="60" fill="white"/>
<path d="M62.6199 101.348C62.5935 101.337 62.5699 101.32 62.5505 101.299L62.5255 101.276C62.4143 101.172 62.3087 101.062 62.2091 100.947C61.9427 100.645 61.5853 100.202 61.2711 99.8103C60.6481 99.0337 60.1333 98.3647 60.0363 98.2387L59.8777 98.0323L58.3243 97.5533L57.1901 97.0245L57.7961 96.3433L59.8777 97.2345L61.4311 97.5533L64.3037 99.6661L64.3015 99.6679C64.2957 99.6727 63.8837 100.015 63.4743 100.388C63.2917 100.554 63.0615 100.768 62.8989 100.944C62.8319 101.016 62.7697 101.092 62.7129 101.172C62.6787 101.229 62.6477 101.288 62.6199 101.348M51.9519 98.1445C50.5505 98.1317 49.1775 97.7475 47.9729 97.0311H47.9715V97.0295C48.1181 96.7851 48.3141 96.5739 48.5471 96.4095C48.9353 96.1245 49.6355 95.7839 50.7671 95.7795H50.7905C52.1305 95.7795 53.7705 96.2351 55.6651 97.1337C54.5419 97.8011 53.2583 98.1505 51.9519 98.1445ZM46.0779 96.8425C45.8383 96.8471 45.6081 96.7503 45.4439 96.5759C45.3021 96.4111 45.2045 96.2129 45.1599 96.0001C45.0959 95.7239 45.0721 95.4397 45.0897 95.1567C45.1885 95.1139 45.2945 95.0899 45.4021 95.0859H45.4245C45.9267 95.0859 46.3225 95.5215 46.4921 95.9533C46.5845 96.1443 46.6041 96.3623 46.5469 96.5667C46.4617 96.7451 46.2763 96.8537 46.0789 96.8407L46.0779 96.8425ZM56.4139 95.6445C52.9421 95.1487 51.4705 93.8935 50.8473 92.9279C50.4527 92.3419 50.2671 91.6403 50.3205 90.9359V90.9331H50.3231C50.4975 90.8931 50.6759 90.8733 50.8547 90.8745C51.7783 90.8745 54.1407 91.3391 56.4147 95.6429L56.4161 95.6457L56.4121 95.6437L56.4139 95.6445ZM49.2979 94.9565C47.8147 94.9565 46.6855 94.7005 45.9415 94.1965C45.6251 93.9939 45.3703 93.7085 45.2043 93.3715C45.1437 93.2437 45.1037 93.1071 45.0855 92.9669C45.5797 92.7665 46.1055 92.6549 46.6385 92.6369C46.7151 92.6333 46.7923 92.6311 46.8733 92.6309C48.0197 92.6309 49.7629 93.0049 51.6025 94.7869L51.6043 94.7887H51.6021C50.8379 94.8941 50.0675 94.9501 49.2961 94.9567L49.2979 94.9565ZM42.1159 94.6805C40.5519 94.6805 38.4033 94.2029 37.0633 92.8631L37.0619 92.8615H37.0659C38.0845 92.6209 39.1245 92.4827 40.1705 92.4491C40.2681 92.4467 40.3665 92.4455 40.4655 92.4453C41.9319 92.4453 43.0543 92.7297 43.8019 93.2903C44.0107 93.4157 44.1659 93.6141 44.2375 93.8469C44.2541 94.0187 44.1723 94.1851 44.0263 94.2769C43.6897 94.5311 43.0879 94.6667 42.2373 94.6803L42.1173 94.6843L42.1159 94.6805ZM37.0479 92.0805C36.8561 92.0809 36.6741 91.9951 36.5521 91.8471C36.4393 91.6989 36.3633 91.5261 36.3305 91.3427C36.2795 91.1013 36.2599 90.8543 36.2723 90.6079V90.6043C36.3487 90.5691 36.4317 90.5503 36.5157 90.5493C36.7119 90.5565 36.8975 90.6395 37.0335 90.7809C37.1849 90.9293 37.3003 91.1101 37.3711 91.3099C37.4419 91.4765 37.4547 91.6621 37.4071 91.8369C37.3487 91.9843 37.2057 92.0805 37.0471 92.0789L37.0479 92.0805ZM48.7539 91.8165C48.5143 91.8211 48.2841 91.7243 48.1199 91.5499C47.9781 91.3851 47.8803 91.1871 47.8355 90.9743C47.7715 90.6981 47.7477 90.4139 47.7653 90.1309C47.8641 90.0881 47.9701 90.0641 48.0777 90.0601H48.1001C48.6023 90.0601 48.9981 90.4957 49.1677 90.9275C49.2601 91.1185 49.2797 91.3365 49.2225 91.5409C49.1375 91.7195 48.9519 91.8281 48.7545 91.8149L48.7539 91.8165ZM43.0519 91.5805C39.9045 91.4697 38.2719 90.5751 37.4551 89.8439C37.1059 89.5379 36.8181 89.1681 36.6071 88.7545C36.5285 88.5993 36.4677 88.4357 36.4255 88.2669L36.4297 88.2651C36.6817 88.1887 36.9435 88.1497 37.2067 88.1493H37.2803C38.3417 88.1493 40.5025 88.5951 43.0507 91.5799V91.5819L43.0519 91.5805ZM46.4699 91.2625C43.9377 90.8769 42.5031 89.7899 41.7455 88.9455C41.2779 88.4435 40.9225 87.8477 40.7029 87.1979C40.9589 87.1393 41.2203 87.1077 41.4829 87.1041C41.5167 87.1041 41.5519 87.1027 41.5877 87.1027C41.6235 87.1027 41.6607 87.1027 41.6983 87.1041C42.9719 87.1319 45.2851 87.7087 46.4693 91.2611H46.4713L46.4699 91.2625ZM33.4699 90.0465C32.6639 90.0491 31.8605 89.9529 31.0779 89.7601C29.7521 89.4285 29.1833 88.9223 28.9397 88.5559C28.8347 88.4041 28.7645 88.2311 28.7335 88.0491C28.7225 87.9781 28.7203 87.9061 28.7273 87.8345L28.7335 87.8323C29.4183 87.6625 30.1207 87.5733 30.8263 87.5667C30.8741 87.5667 30.9223 87.5655 30.9713 87.5655C31.5463 87.5645 32.1201 87.6201 32.6841 87.7315C33.9635 87.9989 35.1035 88.7191 35.8947 89.7595V89.7613H35.8921C35.0989 89.9553 34.2847 90.0507 33.4681 90.0453L33.4699 90.0465ZM39.3479 87.9105C39.1093 87.9169 38.8789 87.8225 38.7135 87.6505C38.5713 87.4837 38.4735 87.2837 38.4295 87.0689C38.3653 86.7949 38.3417 86.5129 38.3593 86.2319C38.4581 86.1891 38.5641 86.1651 38.6717 86.1611H38.6941C39.1953 86.1611 39.5917 86.5969 39.7619 87.0287C39.8525 87.2181 39.8697 87.4341 39.8105 87.6355C39.7293 87.8151 39.5451 87.9251 39.3485 87.9115L39.3479 87.9105ZM34.9279 87.3045C34.0863 87.0663 33.2813 86.7147 32.5345 86.2595C31.4257 85.5769 30.0693 84.3695 29.9039 82.4935H29.9067C29.9909 82.4755 30.0763 82.4653 30.1623 82.4627C30.1823 82.4627 30.2057 82.4615 30.2291 82.4615C30.5603 82.4615 31.2383 82.5547 32.0585 83.1783C33.1025 83.9743 34.0665 85.3623 34.9285 87.3083L34.9279 87.3045ZM37.8139 87.1985C37.1271 86.8865 36.4893 86.4767 35.9201 85.9817C34.4491 84.7157 33.3027 83.1157 32.5769 81.3157C32.7581 81.2307 32.9541 81.1821 33.1541 81.1721C33.1741 81.1707 33.1941 81.1703 33.2153 81.1703C33.2453 81.1703 33.2763 81.1703 33.3079 81.1721C33.7901 81.1857 34.5245 81.3861 35.3387 82.2647C36.2739 83.2741 37.1087 84.9327 37.8187 87.1949L37.8207 87.2013L37.8147 87.1993L37.8139 87.1985ZM30.3359 86.9805C29.3717 86.9805 29.0417 86.4575 28.9445 86.2325C28.8477 85.9981 28.8097 85.7435 28.8337 85.4911V85.4871C28.9907 85.4479 29.1519 85.4269 29.3137 85.4243H29.3467C29.9771 85.4089 30.5773 85.6939 30.9635 86.1925C31.0145 86.2683 31.1709 86.5313 31.0415 86.7367C30.9375 86.8987 30.7015 86.9807 30.3355 86.9807L30.3359 86.9805ZM28.1999 84.2863C27.4531 84.2881 26.7075 84.2243 25.9717 84.0959C25.1129 83.9397 24.6261 83.2095 24.3691 82.6247C24.1963 82.2249 24.0753 81.8045 24.0091 81.3739H24.0115C26.6679 81.4519 27.9225 82.2281 28.5071 82.8653C28.8693 83.2423 29.0951 83.7297 29.1483 84.2497H29.1465C29.1425 84.2497 28.7685 84.2857 28.1985 84.2857L28.1999 84.2863ZM30.9659 81.5223C30.9623 81.5179 30.6589 81.1423 30.3593 80.6767C30.0447 80.1877 29.7537 79.6767 29.7537 79.2599C29.7537 78.8567 29.6589 78.0067 29.6023 77.5361C29.5307 76.9391 29.4583 76.4281 29.4523 76.3847H29.4549C29.5223 76.4093 31.1165 77.0075 31.1165 78.5029C31.1165 79.9983 30.9689 81.5057 30.9675 81.5207V81.5229H30.9655L30.9659 81.5223ZM28.8999 81.3803C28.8831 81.3803 28.8665 81.3787 28.8499 81.3761C28.3787 81.2975 27.5499 80.9373 26.6353 80.4125C25.6189 79.8297 24.7935 79.2053 24.3113 78.6543C23.8713 78.1519 23.6113 77.3629 23.5353 76.3091C23.5017 75.8319 23.5077 75.3527 23.5527 74.8765C23.6377 74.8491 23.7265 74.8355 23.8157 74.8365C24.1685 74.8423 24.5451 75.0011 25.0535 75.3513C25.5169 75.6811 25.9511 76.0501 26.3515 76.4541C26.8599 76.9591 27.3405 77.4913 27.7915 78.0483L27.7979 78.0563C27.8509 78.1513 28.3053 78.9705 28.6593 79.7679C28.8363 80.1349 28.9721 80.5203 29.0641 80.9171C29.0989 81.0333 29.0989 81.1571 29.0641 81.2733C29.0493 81.3109 29.0221 81.3425 28.9871 81.3629C28.9593 81.3749 28.9293 81.3811 28.8991 81.3809L28.8999 81.3803Z" fill="#005801"/>
<path d="M57.3801 101.348C57.4065 101.337 57.4301 101.32 57.4495 101.299L57.4745 101.276C57.5857 101.172 57.6913 101.062 57.7909 100.947C58.0573 100.645 58.4147 100.202 58.7289 99.8103C59.3519 99.0337 59.8667 98.3647 59.9637 98.2387L60.1223 98.0323L61.6757 97.5533L62.8099 97.0245L62.2039 96.3433L60.1223 97.2345L58.5689 97.5533L55.6963 99.6661L55.6985 99.6679C55.7043 99.6727 56.1163 100.015 56.5257 100.388C56.7083 100.554 56.9385 100.768 57.1011 100.944C57.1681 101.016 57.2303 101.092 57.2871 101.172C57.3213 101.229 57.3523 101.288 57.3801 101.348M68.0481 98.1445C69.4495 98.1317 70.8225 97.7475 72.0271 97.0311H72.0285V97.0295C71.8819 96.7851 71.6859 96.5739 71.4529 96.4095C71.0647 96.1245 70.3645 95.7839 69.2329 95.7795H69.2095C67.8695 95.7795 66.2295 96.2351 64.3349 97.1337C65.4581 97.8011 66.7417 98.1505 68.0481 98.1445ZM73.9221 96.8425C74.1617 96.8471 74.3919 96.7503 74.5561 96.5759C74.6979 96.4111 74.7955 96.2129 74.8401 96.0001C74.9041 95.7239 74.9279 95.4397 74.9103 95.1567C74.8115 95.1139 74.7055 95.0899 74.5979 95.0859H74.5755C74.0733 95.0859 73.6775 95.5215 73.5079 95.9533C73.4155 96.1443 73.3959 96.3623 73.4531 96.5667C73.5383 96.7451 73.7237 96.8537 73.9211 96.8407L73.9221 96.8425ZM63.5861 95.6445C67.0579 95.1487 68.5295 93.8935 69.1527 92.9279C69.5473 92.3419 69.7329 91.6403 69.6795 90.9359V90.9331H69.6769C69.5025 90.8931 69.3241 90.8733 69.1453 90.8745C68.2217 90.8745 65.8593 91.3391 63.5853 95.6429L63.5839 95.6457L63.5879 95.6437L63.5861 95.6445ZM70.7021 94.9565C72.1853 94.9565 73.3145 94.7005 74.0585 94.1965C74.3749 93.9939 74.6297 93.7085 74.7957 93.3715C74.8563 93.2437 74.8963 93.1071 74.9145 92.9669C74.4203 92.7665 73.8945 92.6549 73.3615 92.6369C73.2849 92.6333 73.2077 92.6311 73.1267 92.6309C71.9803 92.6309 70.2371 93.0049 68.3975 94.7869L68.3957 94.7887H68.3979C69.1621 94.8941 69.9325 94.9501 70.7039 94.9567L70.7021 94.9565ZM77.8841 94.6805C79.4481 94.6805 81.5967 94.2029 82.9367 92.8631L82.9381 92.8615H82.9341C81.9155 92.6209 80.8755 92.4827 79.8295 92.4491C79.7319 92.4467 79.6335 92.4455 79.5345 92.4453C78.0681 92.4453 76.9457 92.7297 76.1981 93.2903C75.9893 93.4157 75.8341 93.6141 75.7625 93.8469C75.7459 94.0187 75.8277 94.1851 75.9737 94.2769C76.3103 94.5311 76.9121 94.6667 77.7627 94.6803L77.8827 94.6843L77.8841 94.6805ZM82.9521 92.0805C83.1439 92.0809 83.3259 91.9951 83.4479 91.8471C83.5607 91.6989 83.6367 91.5261 83.6695 91.3427C83.7205 91.1013 83.7401 90.8543 83.7277 90.6079V90.6043C83.6513 90.5691 83.5683 90.5503 83.4843 90.5493C83.2881 90.5565 83.1025 90.6395 82.9665 90.7809C82.8151 90.9293 82.6997 91.1101 82.6289 91.3099C82.5581 91.4765 82.5453 91.6621 82.5929 91.8369C82.6513 91.9843 82.7943 92.0805 82.9529 92.0789L82.9521 92.0805ZM71.2461 91.8165C71.4857 91.8211 71.7159 91.7243 71.8801 91.5499C72.0219 91.3851 72.1197 91.1871 72.1645 90.9743C72.2285 90.6981 72.2523 90.4139 72.2347 90.1309C72.1359 90.0881 72.0299 90.0641 71.9223 90.0601H71.8999C71.3977 90.0601 71.0019 90.4957 70.8323 90.9275C70.7399 91.1185 70.7203 91.3365 70.7775 91.5409C70.8625 91.7195 71.0481 91.8281 71.2455 91.8149L71.2461 91.8165ZM76.9481 91.5805C80.0955 91.4697 81.7281 90.5751 82.5449 89.8439C82.8941 89.5379 83.1819 89.1681 83.3929 88.7545C83.4715 88.5993 83.5323 88.4357 83.5745 88.2669L83.5703 88.2651C83.3183 88.1887 83.0565 88.1497 82.7933 88.1493H82.7197C81.6583 88.1493 79.4975 88.5951 76.9493 91.5799V91.5819L76.9481 91.5805ZM73.5301 91.2625C76.0623 90.8769 77.4969 89.7899 78.2545 88.9455C78.7221 88.4435 79.0775 87.8477 79.2971 87.1979C79.0411 87.1393 78.7797 87.1077 78.5171 87.1041C78.4833 87.1041 78.4481 87.1027 78.4123 87.1027C78.3765 87.1027 78.3393 87.1027 78.3017 87.1041C77.0281 87.1319 74.7149 87.7087 73.5307 91.2611H73.5287L73.5301 91.2625ZM86.5301 90.0465C87.3361 90.0491 88.1395 89.9529 88.9221 89.7601C90.2479 89.4285 90.8167 88.9223 91.0603 88.5559C91.1653 88.4041 91.2355 88.2311 91.2665 88.0491C91.2775 87.9781 91.2797 87.9061 91.2727 87.8345L91.2665 87.8323C90.5817 87.6625 89.8793 87.5733 89.1737 87.5667C89.1259 87.5667 89.0777 87.5655 89.0287 87.5655C88.4537 87.5645 87.8799 87.6201 87.3159 87.7315C86.0365 87.9989 84.8965 88.7191 84.1053 89.7595V89.7613H84.1079C84.9011 89.9553 85.7153 90.0507 86.5319 90.0453L86.5301 90.0465ZM80.6521 87.9105C80.8907 87.9169 81.1211 87.8225 81.2865 87.6505C81.4287 87.4837 81.5265 87.2837 81.5705 87.0689C81.6347 86.7949 81.6583 86.5129 81.6407 86.2319C81.5419 86.1891 81.4359 86.1651 81.3283 86.1611H81.3059C80.8047 86.1611 80.4083 86.5969 80.2381 87.0287C80.1475 87.2181 80.1303 87.4341 80.1895 87.6355C80.2707 87.8151 80.4549 87.9251 80.6515 87.9115L80.6521 87.9105ZM85.0721 87.3045C85.9137 87.0663 86.7187 86.7147 87.4655 86.2595C88.5743 85.5769 89.9307 84.3695 90.0961 82.4935H90.0933C90.0091 82.4755 89.9237 82.4653 89.8377 82.4627C89.8177 82.4627 89.7943 82.4615 89.7709 82.4615C89.4397 82.4615 88.7617 82.5547 87.9415 83.1783C86.8975 83.9743 85.9335 85.3623 85.0715 87.3083L85.0721 87.3045ZM82.1861 87.1985C82.8729 86.8865 83.5107 86.4767 84.0799 85.9817C85.5509 84.7157 86.6973 83.1157 87.4231 81.3157C87.2419 81.2307 87.0459 81.1821 86.8459 81.1721C86.8259 81.1707 86.8059 81.1703 86.7847 81.1703C86.7547 81.1703 86.7237 81.1703 86.6921 81.1721C86.2099 81.1857 85.4755 81.3861 84.6613 82.2647C83.7261 83.2741 82.8913 84.9327 82.1813 87.1949L82.1793 87.2013L82.1853 87.1993L82.1861 87.1985ZM89.6641 86.9805C90.6283 86.9805 90.9583 86.4575 91.0555 86.2325C91.1523 85.9981 91.1903 85.7435 91.1663 85.4911V85.4871C91.0093 85.4479 90.8481 85.4269 90.6863 85.4243H90.6533C90.0229 85.4089 89.4227 85.6939 89.0365 86.1925C88.9855 86.2683 88.8291 86.5313 88.9585 86.7367C89.0625 86.8987 89.2985 86.9807 89.6645 86.9807L89.6641 86.9805ZM91.8001 84.2863C92.5469 84.2881 93.2925 84.2243 94.0283 84.0959C94.8871 83.9397 95.3739 83.2095 95.6309 82.6247C95.8037 82.2249 95.9247 81.8045 95.9909 81.3739H95.9885C93.3321 81.4519 92.0775 82.2281 91.4929 82.8653C91.1307 83.2423 90.9049 83.7297 90.8517 84.2497H90.8535C90.8575 84.2497 91.2315 84.2857 91.8015 84.2857L91.8001 84.2863ZM89.0341 81.5223C89.0377 81.5179 89.3411 81.1423 89.6407 80.6767C89.9553 80.1877 90.2463 79.6767 90.2463 79.2599C90.2463 78.8567 90.3411 78.0067 90.3977 77.5361C90.4693 76.9391 90.5417 76.4281 90.5477 76.3847H90.5451C90.4777 76.4093 88.8835 77.0075 88.8835 78.5029C88.8835 79.9983 89.0311 81.5057 89.0325 81.5207V81.5229H89.0345L89.0341 81.5223ZM91.1001 81.3803C91.1169 81.3803 91.1335 81.3787 91.1501 81.3761C91.6213 81.2975 92.4501 80.9373 93.3647 80.4125C94.3811 79.8297 95.2065 79.2053 95.6887 78.6543C96.1287 78.1519 96.3887 77.3629 96.4647 76.3091C96.4983 75.8319 96.4923 75.3527 96.4473 74.8765C96.3623 74.8491 96.2735 74.8355 96.1843 74.8365C95.8315 74.8423 95.4549 75.0011 94.9465 75.3513C94.4831 75.6811 94.0489 76.0501 93.6485 76.4541C93.1401 76.9591 92.6595 77.4913 92.2085 78.0483L92.2021 78.0563C92.1491 78.1513 91.6947 78.9705 91.3407 79.7679C91.1637 80.1349 91.0279 80.5203 90.9359 80.9171C90.9011 81.0333 90.9011 81.1571 90.9359 81.2733C90.9507 81.3109 90.9779 81.3425 91.0129 81.3629C91.0407 81.3749 91.0707 81.3811 91.1009 81.3809L91.1001 81.3803Z" fill="#005801"/>
<path d="M109.204 25.6549L108.574 26.0992L108.517 26.2228L108.317 26.6576L108.094 26.7114L107.827 27.5714L107.615 27.8382L106.644 28.6066L105.516 29.0688L104.552 29.7158L102.961 31.3274L98.9355 33.1166L97.6017 33.9138L95.7979 35.2364L94.9957 35.9784L93.9345 37.2L93.7511 37.5448L93.6555 37.8622L93.3581 38.8596L93.2155 39.0782L92.9407 39.2478L92.3585 39.4312L92.0045 39.4712L91.8523 39.4874L91.0723 39.5026L90.2523 39.2498L89.2897 39.3854L88.7029 39.7406L88.6461 39.7742L88.3211 40.0906L87.9811 40.5882L87.5851 41.3666L87.2223 41.6638L86.6367 42.8554L86.5927 43.0712L86.2491 44.8422L86.2805 45.2322L86.2833 45.2748L86.7049 46.4948L86.6097 46.7126L86.3887 46.7682L86.1905 46.9652L86.1765 46.98L86.1997 47.0042L86.2397 47.0442L86.6529 47.047L86.8485 47.16L86.9845 47.3486L87.8125 48.4738L87.8325 48.4996L88.2337 48.9378L88.7261 49.3178L89.1679 50.2806L89.6395 50.9066L90.2995 51.5782L90.4511 51.6982L90.4539 51.7002L90.8869 52.0466L92.1233 53.0336L93.0725 54.4806L93.2599 54.7652L93.2905 54.812L93.9227 55.5874L93.5771 55.9596L93.9401 56.5796L94.3443 56.6618L94.3757 56.7078L94.4587 56.8342L94.2499 57.1128L94.0735 57.0876L93.9449 56.9062L93.9197 56.8712L93.8933 56.879L93.6933 56.9368L93.5591 56.9768L93.4943 56.966L93.4639 56.9604L93.4051 56.9508L92.2735 56.2888L91.9525 56.2488L91.4017 55.8614L90.8887 55.9214L90.6167 55.9536L90.2667 55.8136L89.8267 55.9012L89.1997 55.6744L88.9407 55.6764L88.6643 56.001L88.5989 56.036L88.4813 56.0996L87.4353 56.1596L86.5459 56.5062L86.4437 56.6612H86.4481V56.6634L86.4425 56.662L86.4347 56.67L86.1757 57.0596L86.1645 57.0756L85.7045 57.327L85.3669 57.6124L84.9195 57.8454L84.6053 57.8956L84.4903 57.8454L84.1103 57.6854L84.0001 57.5784L83.4125 57.0046L82.8577 56.5732L82.3777 56.4174L82.2765 56.3998L80.8533 56.147L80.2909 56.1546C80.2909 56.1546 79.7009 56.1456 79.6775 56.163L77.9909 56.1862L77.8661 56.2076L77.7941 56.2198L77.3043 56.302L76.9585 56.4526L76.2785 56.9126L75.8567 57.3684L75.3779 58.4984L75.2759 59.3876L75.3619 60.2658L75.2353 60.7522V61.0938L75.2327 61.5028L74.4625 62.6252L74.1765 62.8082L73.9033 63.7832L73.7433 63.8802L72.5343 63.7304L71.5143 63.7944L71.1961 63.9786L70.6965 64.6984L70.3165 64.8526L69.9851 65.2266L69.4363 65.2998L69.1797 65.7274L67.9037 65.8172L67.4161 65.943L66.9709 66.1796L66.4551 66.5758L65.6431 67.0046L65.5705 67.0446L65.3645 67.1542L64.5723 67.3812L63.7499 67.9722L63.5899 68.0364L63.1677 68.0258L62.4843 68.399L62.1535 68.3934L61.6871 68.6548L60.6847 68.4074L60.4285 68.444L59.8805 68.6852L59.8205 68.7416L59.7311 68.828L59.5651 69.294V69.2952L59.3803 69.351L54.3963 69L53.6579 69.1286L53.6305 69.1318L51.9721 69.6956L51.8995 69.6664L51.8821 69.7464L51.2301 70.0288L50.5977 70.4458L49.7977 71.1622L49.0529 71.6408L48.7717 72.014L48.7459 72.117H48.7441L48.6441 72.5106L48.5081 72.6874L48.4453 73.1828L48.4801 73.5598L48.5289 74.119L48.6867 74.5562L48.8939 74.8582L49.4001 75.4458L49.6303 75.7096L49.6673 75.9096L49.5953 76.0808L49.4823 76.155L49.1765 76.1262L48.5765 75.8546L48.3649 75.7604L47.8609 75.766L47.4023 75.5686L47.1169 75.7106L46.6861 75.9244L46.4133 75.8958L46.0001 75.8518L45.7657 75.8882L45.5731 75.9948L45.4719 76.05L45.4175 75.919L45.4327 75.8758L45.4767 75.7592L45.7447 75.5548L45.7363 75.2412L45.5639 74.7602L45.3175 74.4156L44.9861 73.4428L44.9553 73.3518L44.4995 72.6628L43.9949 72.1334L44.1549 71.8672L43.7725 71.8598L43.7305 71.858L43.3871 71.465L43.0799 71.2488L41.9241 70.992L41.3951 71.1796L40.7975 71.0134L39.9055 71.4014L39.5581 71.2886L38.3693 71.4362L38.0169 71.604L37.9199 71.7478L37.4229 72.054L37.1089 72.1066L36.7871 72.0266L36.3997 72.049L35.9997 72.3854L35.7169 72.3808L35.3315 72.2408L34.8019 72.0458L34.2295 71.9122L33.1727 71.5076L33.1775 71.495H33.1747L33.1697 71.5074L32.9697 71.4306L32.7053 71.3678L32.2173 71.251L31.6483 71.0062L31.3635 70.774L31.1491 70.5998L30.7869 70.3758L29.9347 69.8462L29.5109 69.7376L28.5421 69.4406L28.0953 69.4464L27.5781 69.0966L27.1745 69.1322L27.1333 69.1364L26.7621 69.3828L26.5221 69.1412L26.3295 69.0446L26.3147 69.0362L26.0469 68.901L24.8669 67.8342L24.6225 67.7164L24.2373 67.7728L23.8435 67.1728L23.5183 66.902L23.3159 66.87L23.0025 66.934L22.7135 66.6728L22.8335 65.859L22.7623 65.5514L22.5355 65.1618L22.5335 65.087L22.5279 64.56L22.1635 63.588L22.1203 62.8058L21.9249 62.5514L21.6777 62.4282L21.5213 62.3524L21.2797 62.1108L21.0341 62.115L20.8721 61.9914L20.5809 62.0534L20.3303 61.8334L20.0009 61.0162L19.3831 60.4662L19.0195 60.1392L18.9763 59.8832L19.0621 59.7918L19.3693 59.4576L19.5619 58.8518L19.3895 58.4148L18.5993 57.4242L18.6483 57.1312L18.9155 56.9238L18.8087 56.5838L19.0201 56.077L18.7201 55.1794L18.7063 55.1558L18.3865 54.6182L18.3419 54.5436L18.0703 53.8902L17.1903 52.6602L17.1107 52.062L17.2435 50.7886L17.2925 50.5646L17.3505 50.312L17.4565 50.1372L17.7273 50.1302L18.0923 50.3636L18.1265 50.3864L18.2905 50.485L19.4493 51.6298L20.2493 52.2732L20.9793 52.7296L21.6439 52.9336L22.3839 53.032L22.7741 53.0304L23.5767 52.8664L24.5085 52.5182L25.9201 51.4238L26.4037 50.8918L26.5467 50.734L27.0067 50.057L27.7419 48.379L28.0197 47.9696L28.4183 47.6186L28.8105 47.2718L28.9341 46.9962L28.9607 46.5362L29.0961 46.4384L29.3475 46.4896L29.4975 46.578L29.7795 46.7428L29.9395 46.7122L30.0685 46.6898L30.1411 46.6752L30.1431 46.6772L30.2611 46.6262L30.5027 46.5208L30.7763 46.4022L30.9795 46.3134L31.1673 46.3184L31.4073 46.3218L31.6001 46.2198L31.6345 46.1552L31.9145 45.7322L32.1615 45.7168L32.5029 45.8524L33.3063 45.4788L33.8157 45.5046L34.1885 45.5946L34.8965 45.9214L35.6565 45.9414L35.8075 45.9854L36.0261 46.0508L36.6213 46.2304L37.0505 46.2704L37.2557 46.517L38.0439 46.9726L38.7639 47.1214L39.4103 47.5862L39.9037 47.7132L40.4063 47.9854L40.8099 48.0054L41.4577 47.9564L41.7103 47.8518L42.5083 47.3918L43.5921 46.6542L44.0703 46.328L44.2651 46.0594L44.9743 43.8928L45.1571 43.079L45.3571 42.193L45.4137 41.933L45.5815 40.2228L45.5827 39.1504L45.4775 38.0936L45.3337 37.7096L44.9887 37.3272L44.8995 37.0422L44.9093 36.7248L44.9275 36.2122L44.8675 35.6574L44.6895 35.0974L44.7377 34.9268L45.0965 34.985L46.0521 35.445L47.4605 36.325L48.5537 36.9114L48.7357 36.895L49.3305 36.835L49.5971 36.8984L50.3183 37.248L51.0183 37.4316L51.6207 37.4116L52.0631 37.2966L52.5727 37.1108L52.9127 36.8566L53.1849 36.8428L54.8957 37.3412L55.4059 37.4912L57.2859 37.242L57.6223 37.5248L58.1745 37.607L58.4099 37.7946L58.6633 37.8596L59.1033 37.6996L59.2953 37.7044L59.8287 37.8978L60.0519 37.874L60.3501 37.7022L61.0101 37.8978L61.3031 37.9856L62.5569 38.131L63.4169 38.4202L63.9297 38.3036L65.0041 38.425L67.3541 38.323L67.4185 38.3406L67.7041 38.4168L68.5041 38.319L68.9117 38.1978L69.5637 38.2082L70.4363 37.9282L72.1801 37.7598L73.7437 37.246L73.7837 37.2322L74.0479 37.309H74.4735L75.2385 37.191L75.8019 37.013L75.8075 37.0298L75.8053 37.426L76.7483 37.1274L77.5537 36.7074L78.0709 36.2342L80.5637 35.037L81.0571 34.9344L81.8371 34.919L82.9581 35.0434L83.3887 34.887L84.1157 34.9638L85.8977 34.4248L85.9593 34.406L87.0671 34.0718L88.3227 33.6094L89.0267 33.497L89.5173 33.3398L91.9163 32.1452L93.4363 31.3918L94.0163 30.9158L94.8441 30.664L95.6427 30.2584L96.5871 29.2652L97.1441 28.5462L97.5809 28.2816L97.8149 27.9702L97.8227 27.929L97.9001 27.541L98.1227 27.5088L98.8271 27.8222L99.1471 27.8084L99.3893 27.663L99.5309 27.8808L99.8809 27.7422L100.181 27.7956L100.241 27.7588L100.489 27.6108L100.64 27.5192L100.712 27.453L101.037 27.1432L101.817 27.0748L102.232 26.8456H102.328L102.745 26.856L103.056 26.696L103.41 26.4006L103.854 26.2478L104.013 26.073L104.087 25.6558L104.25 25.627L104.468 25.707L104.668 25.6646L105.018 25.303L105.342 24.651L105.548 24.508L106.211 24.4564L106.562 24.1178L106.796 24.041L107.352 24.0696L107.498 24.078L107.915 23.8809C108.355 24.464 108.785 25.0555 109.204 25.6549Z" fill="#F4812F"/>
</g>
<defs>
<clipPath id="clip0_909_280943">
<rect width="120" height="120" fill="white"/>
</clipPath>
</defs>
</svg>
