<svg width="120" height="120" viewBox="0 0 120 120" fill="none" xmlns="http://www.w3.org/2000/svg">
<path d="M116.586 40H3.41406C11.6508 16.6962 33.8756 0 59.9999 0C86.1243 0 108.349 16.6962 116.586 40Z" fill="black"/>
<path d="M116.586 80C118.797 73.7444 120 67.0127 120 60C120 52.9873 118.797 46.2556 116.586 40H3.41411C1.20308 46.2556 0 52.9873 0 60C0 67.0127 1.20308 73.7444 3.41411 80H116.586Z" fill="#E23726"/>
<path d="M116.586 80C108.349 103.304 86.1243 120 59.9999 120C33.8756 120 11.6508 103.304 3.41406 80H116.586Z" fill="#FDD406"/>
</svg>
