<svg width="120" height="120" viewBox="0 0 120 120" fill="none" xmlns="http://www.w3.org/2000/svg">
<circle cx="60" cy="60" r="60" fill="#E23726"/>
<path d="M120 60C120 26.8629 93.1372 0 60.0001 0C46.4912 0 34.0251 4.46438 23.9966 11.9982L120 60Z" fill="#1E9A1C"/>
<path d="M60.0001 120C93.1372 120 120 93.1371 120 60L23.9966 108.002C34.0251 115.536 46.4912 120 60.0001 120Z" fill="#0F3296"/>
<path d="M30.0001 35.6333C30.1 35.6976 30.3651 35.4469 30.7416 35.0907C31.2441 34.6155 31.945 33.9525 32.7167 33.6C33.8667 33.0667 35.1501 33.0833 36.3501 33.2833C36.127 34.5308 33.7871 35.1611 31.9817 35.6474C30.8201 35.9603 29.8798 36.2136 29.8667 36.5333C30.1841 36.5968 30.8221 36.4482 31.7484 36.2323C32.5249 36.0514 33.504 35.8233 34.6667 35.6333C31.9307 39.3402 28.8037 38.917 26.8297 38.6499C26.1943 38.5639 25.6784 38.494 25.3334 38.5833C24.5334 38.7833 23.5501 39.5167 23.5501 39.9C24.4961 39.5232 25.1838 39.7172 25.8561 39.9068C26.5814 40.1114 27.2887 40.3109 28.2834 39.7833C27.6501 43.4833 21.1167 45.0833 19.7501 42.9167C18.8983 43.7817 18.7799 44.2217 18.7073 44.4912C18.689 44.5592 18.6736 44.6163 18.6501 44.6667C19.6183 44.2092 20.3983 44.4493 21.1015 44.6658C21.9357 44.9225 22.662 45.1461 23.4667 44.1333C23.2501 47.8333 18.3501 50.3167 15.7001 50.05C15.5167 50.3833 14.6334 52.2833 14.7001 52.6333C14.7796 52.6024 14.8252 52.5433 14.8822 52.4695C15.04 52.2649 15.2852 51.947 16.5834 51.8C19.0538 51.5255 19.2918 51.0417 19.9655 49.672C20.0281 49.5447 20.0945 49.4098 20.1667 49.2667C21.2001 51.1667 17.1667 57.3667 13.8167 59.1667C13.7667 59.6167 13.8334 60.8333 14.2667 61.3333C14.4862 60.4701 14.9754 60.172 15.6102 59.7851L15.6104 59.785C15.6987 59.7312 15.7898 59.6757 15.8834 59.6167C15.9743 59.5607 16.0635 59.5067 16.1511 59.4538L16.1514 59.4536C17.2368 58.7975 18.0658 58.2965 18.4667 55.9833C19.9334 58.3 18.3167 65.9167 15.7667 68.8667C15.8069 68.952 15.8561 69.0573 15.9114 69.1758C16.2239 69.8445 16.7327 70.9335 16.9167 71.2167C16.6972 70.3386 17.0849 69.887 17.6418 69.2382C17.9305 68.9019 18.2647 68.5126 18.5834 67.9833C19.5167 66.4167 19.5001 63.6667 19.4667 63.2667C22.0001 66.6333 22.1501 76.7 21.7501 77.7833C21.9334 78.1333 23.6334 79.5833 24.3667 80.0667C24.4286 79.906 24.417 79.8828 24.2573 79.562C24.2017 79.4502 24.1281 79.3024 24.0334 79.1C23.7694 78.5786 23.6857 77.6494 23.5868 76.5506C23.4359 74.8747 23.2495 72.8041 22.3334 71.1833C24.8167 71.45 29.0167 77.9 30.4167 80.4C31.9667 82.9 33.7334 84.8333 36.9167 86L36.935 86.0067C37.0403 81.7425 36.723 76.058 35.6167 72.2667C35.1617 71.8651 34.2384 70.8377 33.3687 69.87C32.614 69.0302 31.8997 68.2353 31.5667 67.9333C30.0167 69.2 24.0834 69.2333 22.8501 64.4333C23.7834 65.0667 26.3167 66 27.6667 65.75C25.6167 65.0167 22.4334 62.6167 22.7667 59.5333C22.9601 59.66 23.1934 59.9067 23.4454 60.1731C23.8234 60.5727 24.2434 61.0167 24.6334 61.1667C24.9751 61.2832 25.5338 61.2766 26.0888 61.2701C26.725 61.2627 27.3563 61.2553 27.6501 61.4333C28.2667 61.7833 28.8501 62.8667 28.9834 63.15C29.1834 62.6167 29.1167 60.0167 27.2501 59.3667C27.8001 58.9 29.6834 59.2833 30.9501 60.9333C32.2502 62.702 32.258 64.4213 32.2635 65.6342C32.2658 66.1471 32.2677 66.5695 32.3667 66.8667C32.6334 67.6833 34.5834 69.55 35.0834 69.9333C35.0876 69.5767 35.0221 69.1714 34.9437 68.6869C34.7109 67.2472 34.365 65.108 35.4001 61.4667C35.6751 60.4994 36.3116 59.2623 36.8737 58.1699C37.2995 57.3425 37.6826 56.598 37.8334 56.1167C37.1001 55.3333 35.1834 53.4667 34.8001 53.2333C34.7206 53.2302 34.5222 53.2519 34.2424 53.2825C33.0556 53.4122 30.4044 53.7021 29.1501 52.9333C28.3167 52.45 27.5834 51.8667 27.2667 51.05L27.3313 51.0581C27.9959 51.1417 30.6346 51.4734 30.6667 51.2C30.6856 51.0307 30.6353 51.0047 30.3812 50.8733C30.1851 50.772 29.8676 50.6078 29.3667 50.2667C28.5167 49.4833 27.5001 48.5 27.5834 45.7333C27.6612 45.8455 27.7369 45.9639 27.8135 46.084C28.295 46.8382 28.8175 47.6565 30.1834 47.3833C31.2334 47.2333 32.3667 48.5 32.6334 49.1167C32.6667 48.4833 32.3667 46.6 31.3334 45.4333C31.6501 44.9833 35.0667 47.6667 35.2167 49.9833C35.2458 50.6508 35.1864 51.1792 35.1265 51.7117C35.1176 51.7909 35.1087 51.8702 35.1001 51.95C35.0667 52.4 37.7834 55.0333 38.5667 54.8333C38.8834 54.7833 39.6667 51.3833 39.9667 49.8L39.9888 49.6841C40.362 47.72 41.0549 44.0738 39.6334 41.9333C39.2834 42.15 37.5667 42.8167 35.4001 40.5C34.5001 39.4667 34.4167 38.4 34.7667 38.0833C35.0834 38.65 36.7501 40.0667 37.1501 39.8C37.1891 39.634 37.0264 39.4951 36.7978 39.3C36.2462 38.8293 35.3109 38.031 35.9001 35.7333C36.0334 35.3167 36.3501 35.15 36.6001 35.1167C36.7297 35.8683 37.1234 36.2885 37.6004 36.7974C38.0435 37.2704 38.5585 37.82 39.0001 38.7833C39.209 38.3954 39.1448 37.9184 39.0839 37.4658C39.0427 37.16 39.003 36.8653 39.0501 36.6167C39.1834 35.95 39.1667 35.1833 38.8001 34.9C39.1667 34.7833 39.8334 34.9 40.8834 37.3833C41.4667 38.85 40.8334 40.9667 40.5167 41.4167C40.5106 41.6245 40.6188 41.8391 40.7715 42.1417C41.0351 42.6643 41.4312 43.4496 41.6001 44.9167C41.896 46.8892 41.1867 49.8019 41.0233 50.4732L41.0167 50.5C41.106 50.4436 41.1982 50.3879 41.2915 50.3316C41.8603 49.9881 42.4686 49.6206 42.6834 48.9333C42.7716 48.6245 42.807 48.2154 42.8467 47.7547C42.9271 46.8232 43.0257 45.6813 43.6167 44.7333C44.2334 43.6667 45.2834 42.9 47.0001 43.4333C46.8997 43.7176 46.7281 43.7796 46.502 43.8612C46.2774 43.9423 45.999 44.0429 45.6834 44.4C45.1834 45.2 44.9501 45.7833 45.1667 46.3833C45.3472 46.3533 45.4225 46.1943 45.5212 45.9861C45.6412 45.7326 45.7959 45.4062 46.2167 45.15C46.9393 44.7784 47.4062 44.8863 47.8232 44.9827C48.0795 45.0419 48.317 45.0968 48.5834 45.0333C49.2334 44.8333 49.6334 44.3833 49.8167 44.1333C50.0167 44.65 49.7334 46.2667 47.7167 47.5167C47.6917 47.5333 47.6626 47.55 47.6334 47.5667C47.6042 47.5833 47.5751 47.6 47.5501 47.6167C47.0935 47.8667 46.9277 47.8473 46.8305 47.8359C46.7787 47.8299 46.7464 47.8261 46.7001 47.8667C46.5001 48.0833 47.0334 48.3333 47.9001 48.2167C48.7667 48.1 49.5501 47.8167 49.7334 47.25C49.9334 47.3833 50.1834 48.4167 48.1001 49.8C46.7167 50.6333 44.4001 50.3333 43.7001 49.9667C43.3667 50.15 41.1334 51.5333 40.9167 52C40.5001 53.8833 38.6501 58.3333 36.9501 61.3833C36.9834 61.6667 38.3167 61.2667 39.7501 59.9833C40.0112 59.7635 40.3262 58.9769 40.6949 58.056C41.2206 56.7432 41.8557 55.1573 42.6001 54.55C43.6312 53.7568 44.8285 53.8394 45.8038 53.9067C45.8348 53.9088 45.8655 53.911 45.896 53.913C45.9141 53.9143 45.9322 53.9155 45.9501 53.9167C45.4667 54.0833 43.9501 54.9167 43.9501 56.35C44.0359 56.4286 44.1492 56.3295 44.3231 56.1774C44.5545 55.9748 44.8932 55.6785 45.4167 55.5833C45.9211 55.5262 46.382 55.6811 46.8088 55.8244C47.1294 55.9321 47.4307 56.0333 47.7167 56.0333C48.3834 56.0667 49.4834 55.45 49.6334 55.25C49.0167 58.2 46.2667 58.9833 44.4334 59.1167C44.8001 59.7 46.8834 60.1833 48.7667 58.8667C48.8501 59.15 48.1334 60.9667 45.5667 61.75C43.7848 62.2867 42.9984 61.8279 42.3527 61.451C41.9959 61.2428 41.682 61.0596 41.2667 61.0833C40.4453 61.1196 39.694 61.6899 39.1586 62.0962C38.9553 62.2505 38.7831 62.3812 38.6501 62.45C38.2781 62.6529 37.816 62.7443 37.4226 62.8221C37.0406 62.8977 36.7235 62.9604 36.6167 63.1C36.3167 63.4833 36.3667 66.8167 36.8667 69.15C37.1164 70.2911 37.5779 71.8729 37.9793 73.2487L37.9795 73.2496C38.1409 73.8026 38.2925 74.3223 38.4167 74.7667C38.597 74.5864 38.8638 74.4342 39.1801 74.2537C40.0339 73.7665 41.2489 73.0731 42.1001 71.0667C41.6834 69.8167 40.9334 64.8333 46.9667 63.6333C47.0216 63.7508 46.8004 63.9235 46.5107 64.1496C46.1839 64.4048 45.77 64.7279 45.5667 65.1167C45.0334 65.9167 44.9834 67.4333 45.1667 67.9667C45.2133 67.9081 45.2601 67.8476 45.3078 67.786C45.8575 67.0756 46.5278 66.2093 48.3834 66.3167C49.6501 66.4 50.5167 65.95 51.2334 65.0833C51.4501 65.1667 51.0167 67.35 49.8501 68.6667C49.3215 69.2833 48.6998 69.723 48.2065 70.072C47.7665 70.3832 47.4287 70.6222 47.3501 70.85C48.1667 70.8 49.4834 70.6833 51.5334 68.8C51.6167 69.25 50.4501 71.8667 48.0834 73.0833C46.5834 73.7667 43.9334 73.7667 42.3834 72.9C41.9834 73.5667 40.6001 75.4333 38.8334 76.3333C39.346 81.0721 39.4272 83.7191 39.3302 85.9069C42.359 84.7319 44.074 82.8347 45.5834 80.4C46.9834 77.9 51.1835 71.45 53.6668 71.1833C52.7507 72.8041 52.5643 74.8747 52.4134 76.5506C52.3144 77.6494 52.2308 78.5786 51.9668 79.1C51.8721 79.3024 51.7985 79.4502 51.7428 79.562C51.5832 79.8828 51.5716 79.906 51.6334 80.0667C52.3668 79.5833 54.0668 78.1333 54.2501 77.7833C53.8501 76.7 54.0001 66.6333 56.5335 63.2667C56.5001 63.6667 56.4835 66.4167 57.4168 67.9833C57.7355 68.5126 58.0697 68.9019 58.3584 69.2382C58.9153 69.887 59.303 70.3386 59.0835 71.2167C59.2675 70.9335 59.7764 69.8443 60.0888 69.1755C60.1442 69.0571 60.1933 68.9519 60.2334 68.8667C57.6834 65.9167 56.0668 58.3 57.5335 55.9833C57.9344 58.2965 58.7634 58.7975 59.8488 59.4536C59.9365 59.5066 60.0258 59.5606 60.1168 59.6167C60.2105 59.6757 60.3016 59.7313 60.39 59.7851C61.0248 60.172 61.514 60.4701 61.7334 61.3333C62.1668 60.8333 62.2334 59.6167 62.1834 59.1667C58.8334 57.3667 54.8001 51.1667 55.8335 49.2667C55.9057 49.4098 55.9721 49.5447 56.0347 49.672C56.7084 51.0417 56.9464 51.5255 59.4168 51.8C60.7149 51.947 60.9602 52.2649 61.118 52.4695C61.175 52.5433 61.2206 52.6024 61.3001 52.6333C61.3668 52.2833 60.4834 50.3833 60.3001 50.05C57.6501 50.3167 52.7501 47.8333 52.5335 44.1333C53.3382 45.1461 54.0645 44.9225 54.8987 44.6658C55.6019 44.4493 56.3819 44.2092 57.3501 44.6667C57.3266 44.6163 57.3112 44.5592 57.2929 44.4912C57.2203 44.2217 57.1019 43.7817 56.2501 42.9167C54.8834 45.0833 48.3501 43.4833 47.7168 39.7833C48.7114 40.3109 49.4188 40.1114 50.1441 39.9068C50.8164 39.7172 51.5041 39.5232 52.4501 39.9C52.4501 39.5167 51.4668 38.7833 50.6668 38.5833C50.3218 38.494 49.8059 38.5639 49.1705 38.6499C47.1965 38.917 44.0695 39.3402 41.3334 35.6333C42.4962 35.8233 43.4753 36.0514 44.2518 36.2323C45.1781 36.4482 45.8161 36.5968 46.1334 36.5333C46.1204 36.2136 45.1801 35.9603 44.0185 35.6474C42.2131 35.1611 39.8732 34.5308 39.6501 33.2833C40.8501 33.0833 42.1334 33.0667 43.2834 33.6C44.0552 33.9525 44.7561 34.6155 45.2586 35.0907C45.6351 35.4469 45.9002 35.6976 46.0001 35.6333C46.2668 35.25 43.2668 32.6833 43.1168 32.5833C43.1834 32.55 43.4001 32.5 43.7501 32.5C46.5334 32.5 49.9501 34.4333 50.5668 37.2C51.0835 37.35 52.0001 37.8833 52.1835 38.1C52.2094 35.6576 50.2405 34.4203 49.1341 33.725C48.821 33.5283 48.577 33.375 48.4668 33.25C48.4834 33.0333 50.0168 33.0667 51.1168 33.4C52.9168 34.0167 57.8001 36.95 57.1001 42.1333L57.1227 42.1575C57.3369 42.3869 57.3895 42.4433 57.5668 42.7333C57.8335 41.9833 58.2335 38.8833 56.4668 37.25C59.7834 37.1 64.2501 44.5333 61.4001 49.6333L61.7334 50.4167C62.4501 48.9333 63.2168 47.1333 62.4001 43.0667C62.9168 43.3333 66.6834 47.4667 66.2834 51.1333C66.0168 53.1833 65.2168 56.8167 62.8834 58.7833L63.1001 59.5C64.2501 58.6333 66.8001 55.2 66.5334 52.85C66.9168 52.9333 68.0001 54.65 68.0001 57.8333C68.0001 57.845 68.0001 57.8577 68.0002 57.8715C68.0015 58.9252 68.0111 66.2223 61.2168 69.2L61.0834 70.1333C61.2076 70.069 61.3362 70.0034 61.4687 69.9359C63.2569 69.0241 65.7536 67.7511 67.6001 64.1667C67.7834 64.4333 68.1668 68.35 65.0668 73.4667C63.2501 76.3667 57.4168 79.4 55.2501 78.7667L54.2835 79.7C56.2835 79.85 62.6334 78.6167 64.3168 77.05C64.5501 77.3833 61.7334 82.7167 56.1001 85.0333C51.8688 86.7621 47.9302 87.9541 39.6571 87.3401C41.7384 88.5775 43.7027 90.1882 44.7334 91.3L43.3334 92.5C43.16 92.3518 42.8578 92.0713 42.4733 91.7143L42.4732 91.7142C41.6014 90.9048 40.3065 89.7027 39.13 88.7596C39.0837 89.836 39.1879 90.5179 39.2602 90.9908C39.3324 91.4626 39.3727 91.7265 39.2001 91.9667C38.9053 91.662 38.031 91.6877 37.3118 91.7088C36.8113 91.7235 36.386 91.7359 36.2834 91.6334C36.4912 91.2343 36.668 90.2205 36.7878 88.826C35.6335 89.7586 34.3783 90.9238 33.5269 91.7143C33.1424 92.0713 32.8402 92.3518 32.6668 92.5L31.2668 91.3C32.2975 90.1882 34.2617 88.5775 36.3431 87.3401C28.07 87.9541 24.1314 86.7621 19.9001 85.0333C14.2667 82.7167 11.4501 77.3833 11.6834 77.05C13.3667 78.6167 19.7167 79.85 21.7167 79.7L20.7501 78.7667C18.5834 79.4 12.7501 76.3667 10.9334 73.4667C7.83341 68.35 8.21675 64.4333 8.40008 64.1667C10.2466 67.7511 12.7433 69.0241 14.5315 69.9359L14.532 69.9361C14.6643 70.0036 14.7928 70.069 14.9167 70.1333L14.7834 69.2C7.98908 66.2223 7.99866 58.9252 8.00004 57.8715L8.00008 57.8333C8.00008 54.65 9.08341 52.9333 9.46675 52.85C9.20008 55.2 11.7501 58.6333 12.9001 59.5L13.1167 58.7833C10.7834 56.8167 9.98341 53.1833 9.71675 51.1333C9.31675 47.4667 13.0834 43.3333 13.6001 43.0667C12.7834 47.1333 13.5501 48.9333 14.2667 50.4167L14.6001 49.6333C11.7501 44.5333 16.2167 37.1 19.5334 37.25C17.7667 38.8833 18.1667 41.9833 18.4334 42.7333C18.6107 42.4433 18.6633 42.3869 18.8775 42.1575L18.9001 42.1333C18.2001 36.95 23.0834 34.0167 24.8834 33.4C25.9834 33.0667 27.5167 33.0333 27.5334 33.25C27.4232 33.375 27.1792 33.5283 26.8661 33.725C25.7597 34.4203 23.7908 35.6576 23.8167 38.1C24.0001 37.8833 24.9167 37.35 25.4334 37.2C26.0501 34.4333 29.4667 32.5 32.2501 32.5C32.6001 32.5 32.8167 32.55 32.8834 32.5833C32.7334 32.6833 29.7334 35.25 30.0001 35.6333Z" fill="#FDD406"/>
</svg>
