<svg width="120" height="120" viewBox="0 0 120 120" fill="none" xmlns="http://www.w3.org/2000/svg">
<g clip-path="url(#clip0_910_474)">
<circle cx="60" cy="60" r="60" fill="white"/>
<path d="M60 0C64.1096 0 68.1227 0.413142 72 1.2002V48H118.8C119.587 51.8773 120 55.8904 120 60C120 64.1096 119.587 68.1227 118.8 72H72V118.799C68.1226 119.586 64.1097 120 60 120C55.8903 120 51.8774 119.586 48 118.799V72H1.2002C0.413142 68.1227 0 64.1096 0 60C0 55.8904 0.413142 51.8773 1.2002 48H48V1.2002C51.8773 0.413142 55.8904 0 60 0Z" fill="#D91C16"/>
</g>
<defs>
<clipPath id="clip0_910_474">
<rect width="120" height="120" fill="white"/>
</clipPath>
</defs>
</svg>
