<svg width="120" height="120" viewBox="0 0 120 120" fill="none" xmlns="http://www.w3.org/2000/svg">
<g clip-path="url(#clip0_909_218574)">
<path d="M120 60C120 93.1371 93.1371 120 60 120C26.8629 120 0 93.1371 0 60C0 26.8629 26.8629 0 60 0C93.1371 0 120 26.8629 120 60Z" fill="#D91C16"/>
<path d="M13.5 60C13.5 34.3188 34.3188 13.5 60 13.5C85.6812 13.5 106.5 34.3188 106.5 60C106.5 85.6812 85.6812 106.5 60 106.5C34.3188 106.5 13.5 85.6812 13.5 60Z" fill="#005801"/>
<path d="M92.8806 92.8805C84.4657 101.295 72.8407 106.5 60.0001 106.5C47.1595 106.5 35.5345 101.295 27.1196 92.8805L60.0001 60L92.8806 92.8805Z" fill="#FDD406"/>
<path d="M92.8806 27.1195L60.0001 60L27.1196 27.1195C35.5345 18.7047 47.1595 13.5 60.0001 13.5C72.8407 13.5 84.4657 18.7047 92.8806 27.1195Z" fill="#FDD406"/>
<path d="M19.2496 60.0451C20.9544 63.4511 24.3524 67.2023 27.3748 68.5735C27.5216 65.1683 26.4384 60.7675 24.8852 57.2415L19.2496 60.0451Z" fill="#D91C16"/>
<path d="M16.1862 48.5947C18.7262 54.0727 9.17299 66.9371 24.7674 70.1851C22.873 67.5279 21.8354 63.0843 22.3514 59.6027C25.5894 60.9819 28.8362 64.1883 30.1122 67.1915C35.4898 52.1979 19.5298 53.6227 16.1862 48.5947Z" fill="#FDD406"/>
<path d="M60.7436 0.0045137C60.4961 0.00150745 60.2482 0 60 0C59.9224 0 59.8448 0.000147324 59.7673 0.000441709L58.5036 3.8896H52.8364L57.4212 7.22076L55.67 12.6104L60.2546 9.2794L64.8392 12.6104L63.0881 7.22067L67.6728 3.8896H62.0059L60.7436 0.0045137Z" fill="#FDD406"/>
<path d="M18.8466 16.3375C19.6388 15.5906 20.4512 14.865 21.2831 14.1616L22.1695 16.8896H27.8364L23.2517 20.2207L25.0028 25.6104L20.4182 22.2794L15.8336 25.6104L17.5848 20.2208L16.0766 19.125C16.7879 18.361 17.5189 17.6156 18.2687 16.8896H18.6672L18.8466 16.3375Z" fill="#FDD406"/>
<path d="M18.1751 103.02C17.7184 102.575 17.2687 102.124 16.8263 101.666L17.5848 99.3312L13 96H18.6672L20.4184 90.6104L22.1695 96H27.8364L23.2517 99.3311L25.0028 104.721L20.4182 101.39L18.1751 103.02Z" fill="#FDD406"/>
<path d="M58.0799 119.97C57.4731 119.951 56.8685 119.923 56.2663 119.886L57.4212 116.331L52.8364 113H58.5036L60.2548 107.61L62.0059 113H67.6728L63.0881 116.331L64.2324 119.853C63.6259 119.895 63.0169 119.929 62.4056 119.953L60.2546 118.39L58.0799 119.97Z" fill="#FDD406"/>
<path d="M103.554 101.268C103.059 101.79 102.555 102.303 102.042 102.807L100.091 101.39L95.5065 104.721L97.2577 99.3312L92.6729 96H98.34L100.091 90.6104L101.842 96H107.509L102.925 99.3311L103.554 101.268Z" fill="#FDD406"/>
<path d="M99.1159 14.5019C100.879 16.0189 102.553 17.6366 104.128 19.3461L102.925 20.2207L104.676 25.6104L100.091 22.2794L95.5065 25.6104L97.2577 20.2208L92.6729 16.8896H98.34L99.1159 14.5019Z" fill="#FDD406"/>
<path d="M60.0001 74.4001C67.953 74.4001 74.4001 67.953 74.4001 60.0001C74.4001 52.0472 67.953 45.6001 60.0001 45.6001C52.0472 45.6001 45.6001 52.0472 45.6001 60.0001C45.6001 67.953 52.0472 74.4001 60.0001 74.4001Z" fill="#D91C16"/>
<path d="M59.9999 46.8L52.2411 70.6789L72.5539 55.9208H47.4463L67.7591 70.6789L59.9999 46.8Z" fill="#FDD406"/>
</g>
<defs>
<clipPath id="clip0_909_218574">
<rect width="120" height="120" fill="white"/>
</clipPath>
</defs>
</svg>
