<svg width="120" height="120" viewBox="0 0 120 120" fill="none" xmlns="http://www.w3.org/2000/svg">
<g clip-path="url(#clip0_909_286173)">
<mask id="mask0_909_286173" style="mask-type:alpha" maskUnits="userSpaceOnUse" x="0" y="0" width="120" height="120">
<circle cx="60" cy="60" r="60" fill="white"/>
</mask>
<g mask="url(#mask0_909_286173)">
<circle cx="60" cy="60" r="60" fill="white"/>
<path d="M72 0H48V48H0V72H48V120H72V72H120V48H72V0Z" fill="#D91C16"/>
<path d="M30.2194 13.7241C29.6092 16.7653 29.2279 19.8405 29.0757 22.9243C32.1595 22.7721 35.2349 22.3912 38.2761 21.781C37.9082 24.5817 37.9082 27.4185 38.2761 30.2192C35.2349 29.609 32.1595 29.2279 29.0757 29.0757C29.2279 32.1595 29.6092 35.2349 30.2194 38.2761C27.4187 37.9082 24.5817 37.9082 21.781 38.2761C22.3912 35.2349 22.7721 32.1595 22.9243 29.0757C19.8405 29.2279 16.7653 29.609 13.7241 30.2192C14.092 27.4185 14.092 24.5817 13.7241 21.781C16.7653 22.3912 19.8405 22.7721 22.9243 22.9243C22.7721 19.8405 22.3912 16.7653 21.781 13.7241C24.5817 14.092 27.4187 14.092 30.2194 13.7241Z" fill="#D91C16"/>
<path d="M30.2194 81.7241C29.6092 84.7653 29.2279 87.8405 29.0757 90.9243C32.1595 90.7721 35.2349 90.3912 38.2761 89.781C37.9082 92.5817 37.9082 95.4185 38.2761 98.2192C35.2349 97.609 32.1595 97.2279 29.0757 97.0757C29.2279 100.16 29.6092 103.235 30.2194 106.276C27.4187 105.908 24.5817 105.908 21.781 106.276C22.3912 103.235 22.7721 100.16 22.9243 97.0757C19.8405 97.2279 16.7653 97.609 13.7241 98.2192C14.092 95.4185 14.092 92.5817 13.7241 89.781C16.7653 90.3912 19.8405 90.7721 22.9243 90.9243C22.7721 87.8405 22.3912 84.7653 21.781 81.7241C24.5817 82.092 27.4187 82.092 30.2194 81.7241Z" fill="#D91C16"/>
<path d="M98.2194 81.7241C97.6092 84.7653 97.2279 87.8405 97.0757 90.9243C100.16 90.7721 103.235 90.3912 106.276 89.781C105.908 92.5817 105.908 95.4185 106.276 98.2192C103.235 97.609 100.16 97.2279 97.0757 97.0757C97.2279 100.16 97.6092 103.235 98.2194 106.276C95.4187 105.908 92.5817 105.908 89.781 106.276C90.3912 103.235 90.7721 100.16 90.9243 97.0757C87.8405 97.2279 84.7653 97.609 81.7241 98.2192C82.092 95.4185 82.092 92.5817 81.7241 89.781C84.7653 90.3912 87.8405 90.7721 90.9243 90.9243C90.7721 87.8405 90.3912 84.7653 89.781 81.7241C92.5817 82.092 95.4187 82.092 98.2194 81.7241Z" fill="#D91C16"/>
<path d="M98.2194 13.7241C97.6092 16.7653 97.2279 19.8405 97.0757 22.9243C100.16 22.7721 103.235 22.3912 106.276 21.781C105.908 24.5817 105.908 27.4185 106.276 30.2192C103.235 29.609 100.16 29.2279 97.0757 29.0757C97.2279 32.1595 97.6092 35.2349 98.2194 38.2761C95.4187 37.9082 92.5817 37.9082 89.781 38.2761C90.3912 35.2349 90.7721 32.1595 90.9243 29.0757C87.8405 29.2279 84.7653 29.609 81.7241 30.2192C82.092 27.4185 82.092 24.5817 81.7241 21.781C84.7653 22.3912 87.8405 22.7721 90.9243 22.9243C90.7721 19.8405 90.3912 16.7653 89.781 13.7241C92.5817 14.092 95.4187 14.092 98.2194 13.7241Z" fill="#D91C16"/>
</g>
</g>
<defs>
<clipPath id="clip0_909_286173">
<rect width="120" height="120" fill="white"/>
</clipPath>
</defs>
</svg>
