<svg width="120" height="120" viewBox="0 0 120 120" fill="none" xmlns="http://www.w3.org/2000/svg">
<g clip-path="url(#clip0_909_271258)">
<circle cx="60" cy="60" r="60" fill="black"/>
<path d="M3.39648 40.05C11.6191 16.72 33.857 0 60 0C86.1431 0 108.381 16.72 116.604 40.05H3.39648Z" fill="#0F3296"/>
<path d="M27.6086 63.9795C27.6761 63.914 28.7347 64.2656 29.9904 64.7541C31.2461 65.2424 32.8684 65.7037 33.5662 65.7492C34.7963 65.804 39.1517 67.8788 39.1096 68.3777C39.1014 68.8438 32.5161 66.8301 30.2076 65.6572C27.4368 64.2763 27.3716 64.2087 27.6086 63.9795Z" fill="#1E9A1C"/>
<path d="M35.7268 64.938C36.2569 66.2338 38.1376 67.1196 40.6617 67.3378C42.3698 67.459 41.5864 66.7226 39.1992 65.8525C38.0779 65.494 36.7719 64.8175 36.2173 64.4151C35.2408 63.6584 35.2408 63.6584 35.7268 64.938ZM11.9517 55.2419C13.3159 57.2671 14.8683 58.7273 17.8791 60.7527C20.0903 62.2599 22.0189 63.4374 22.1129 63.3431C22.3012 63.1076 11.293 52.887 10.5403 52.6042C10.2583 52.51 10.8698 53.6874 11.9517 55.2419ZM40.274 66.0257C41.2955 66.5026 42.5995 66.8783 43.2572 66.9004C44.0345 66.9266 43.8282 66.7353 42.3774 66.1703C41.2419 65.7265 39.8838 64.9804 39.281 64.5178C38.2003 63.6335 38.2003 63.6335 38.3136 64.4113C38.3781 64.8562 39.1928 65.5471 40.274 66.0257ZM33.9206 56.8365C34.5793 59.4741 37.3076 64.3255 38.2486 64.5137C39.0953 64.655 39.0953 64.608 38.3898 63.8072C37.2136 62.4413 34.6735 57.4487 34.6735 56.5067C34.6735 55.9887 34.4383 55.6118 34.156 55.6118C33.8266 55.6118 33.7323 56.0827 33.9206 56.8365ZM5.64448 53.5292C5.62822 53.6219 6.51125 54.304 7.61758 55.0732C8.72417 55.8424 10.0131 56.931 10.4412 57.4848C11.1744 58.475 15.3279 60.93 15.7175 60.6163C16.0991 60.3488 10.7491 56.0086 8.4869 54.7485C5.79436 53.2208 5.70164 53.2045 5.64448 53.5292ZM7.16006 57.1527C7.16006 57.247 8.14801 57.765 9.3712 58.3302C10.5944 58.8954 12.0526 59.7432 12.57 60.2141C13.4637 61.0619 17.98 62.7576 18.3092 62.3808C18.6385 62.0511 12.617 58.7069 10.1709 57.8592C7.25406 56.823 7.16006 56.823 7.16006 57.1527ZM28.141 58.8146C29.9286 62.1115 31.7633 64.2782 32.516 64.0427C32.8922 63.9015 32.0455 62.5355 30.2109 60.3218C28.5644 58.3907 27.153 56.6952 27.012 56.554C26.871 56.4125 27.3885 57.4487 28.141 58.8146ZM30.453 57.5295C30.453 58.0475 32.2876 61.6271 33.3695 63.1343C33.981 63.982 34.6867 64.453 35.4864 64.453C36.6626 64.453 36.6626 64.453 34.875 62.4278C33.84 61.3446 32.4758 59.6959 31.7701 58.8012C31.0644 57.9062 30.453 57.341 30.453 57.5295ZM26.1277 59.0501C26.1277 59.7566 29.5666 64.4667 30.0993 64.4667C30.3414 64.4667 29.7602 63.3362 28.7433 61.9703C26.4669 58.8619 26.1277 58.5322 26.1277 59.0501ZM22.8791 72.0294C19.7743 73.2541 19.1158 73.6778 19.1158 74.3373C19.1158 74.6198 19.445 74.5728 19.9625 74.1488C20.386 73.7248 21.9384 73.1596 23.3496 72.8301C24.7607 72.5006 26.4544 71.9351 27.1129 71.6054L28.2891 70.9932H26.8779C26.1252 71.0402 24.2903 71.5112 22.8791 72.0294ZM14.063 64.0282C16.3826 66.1401 24.1409 70.1297 28.0719 71.3036C29.137 71.6171 30.8653 71.689 31.8418 71.4835L33.6625 71.1207L31.8657 70.1716C28.9673 68.6715 24.2077 65.494 22.4993 63.9612C20.638 62.2838 20.6984 62.8632 22.592 65.1803C23.3318 66.1136 25.5188 67.7227 27.4363 68.7282C29.3697 69.7779 30.7205 70.7391 30.4994 70.8197C29.9248 71.029 24.6185 68.0006 20.5826 65.1607C16.1969 62.0475 16.016 61.9629 17.6482 63.9746C18.4484 64.9362 19.9277 66.2516 21.001 66.8628C22.0461 67.5345 22.7617 68.1259 22.5407 68.2064C22.0987 68.3674 19.3493 66.8633 15.7595 64.5627C14.7586 63.8748 13.3956 63.0182 12.8048 62.6321C12.1534 62.2182 12.7364 62.8576 14.063 64.0282ZM14.4047 63.3698L12.523 63.982L13.9342 64.2175C14.6869 64.406 15.6749 64.3118 16.1453 64.0763C16.5688 63.8408 17.4155 63.6523 18.027 63.6053C19.0619 63.6053 19.0619 63.5583 18.1682 63.1813C16.992 62.6633 16.7098 62.6633 14.4047 63.3698ZM16.7233 64.6481C15.9236 65.2603 15.9706 65.3076 17.7112 65.0248C18.7462 64.8836 20.2516 64.6008 21.0043 64.4126C22.2275 64.0829 22.1332 64.0359 20.0164 63.9886C18.6049 63.9416 17.2877 64.2241 16.7233 64.6481ZM5.03631 59.6959C12.7984 61.1089 28.3696 66.3369 27.4286 67.2319C27.1934 67.4674 22.8184 66.3842 22.2069 65.9602C21.9717 65.7247 19.6665 65.819 17.1262 66.1487C12.3749 66.6667 11.5752 67.0907 11.6692 69.0218C11.7162 69.9638 11.7162 69.9638 11.9514 69.0218C12.3749 67.2792 13.0804 66.9024 15.762 66.9024C18.6786 66.9024 26.6759 68.0799 30.2042 69.0218C34.9085 70.3406 35.0497 70.3406 33.4973 69.4928C31.4744 68.3624 28.4166 66.2899 27.8521 65.6777C26.8172 64.5002 8.04716 59.3192 5.31855 59.4134C4.04837 59.5077 4.00137 59.5077 5.03631 59.6959ZM8.60502 62.2058C8.04055 62.6298 7.42883 63.6187 7.28784 64.4195C7.00561 65.7854 7.00561 65.7854 7.75832 64.8904C9.73422 62.394 9.87521 62.3 12.3216 62.2528C14.2975 62.2058 14.5797 62.1115 13.6388 61.8288C11.6626 61.2166 9.68697 61.3578 8.60502 62.2058ZM32.5833 65.1122C32.9595 65.7717 36.6291 67.6086 36.9113 67.3259C37.0526 67.1847 36.6291 66.8079 36.0646 66.4782C35.4532 66.1484 34.6535 65.6305 34.324 65.2535C33.5713 64.5472 32.1601 64.4057 32.5833 65.1122ZM32.8663 69.5873C33.2425 70.2468 36.9121 72.0838 37.1943 71.801C37.3356 71.6598 36.9121 71.283 36.3476 70.9533C35.7362 70.6236 34.9364 70.1056 34.607 69.7286C33.8542 69.0221 32.4431 68.8806 32.8663 69.5873ZM35.399 67.4214C34.5214 67.7611 33.6388 68.3751 33.3647 68.8146C33.0406 69.3338 33.3149 69.3389 34.4469 68.7696C35.3345 68.3253 36.6159 67.9605 37.3191 67.9005C38.6355 67.8355 38.6355 67.8355 37.7977 67.3114C37.3188 67.0119 36.3016 67.0419 35.399 67.4214ZM29.9815 70.8016C27.3004 73.2091 26.7074 74.8878 27.5661 77.3817L28.3086 79.5174L28.1018 77.356C27.7823 74.3896 28.581 73.0402 31.8268 70.6967C33.3525 69.6061 34.565 68.6174 34.5358 68.5277C34.3763 68.0349 31.3449 69.5162 29.9815 70.8016ZM13.3832 51.5477C14.8416 54.3266 20.7688 60.7321 24.0619 63.1813C24.9556 63.8408 26.5553 64.5 27.543 64.6415L29.3776 64.924L28.0134 63.4168C25.8023 61.0146 22.4152 56.3988 21.3333 54.3736C20.1571 52.1599 20.0161 52.7251 21.0041 55.551C21.3803 56.6815 22.8857 58.9422 24.3441 60.5436C25.8026 62.1921 26.7432 63.558 26.508 63.558C25.8965 63.558 21.9447 58.8952 19.1224 54.8446C16.0646 50.4172 15.9236 50.276 16.7703 52.7251C17.1938 53.9026 18.1345 55.6453 18.9342 56.5873C19.6869 57.5765 20.1573 58.3769 19.9221 58.3769C19.4516 58.3769 17.3817 56.022 14.7944 52.6306C14.0887 51.6414 13.1007 50.37 12.6775 49.8047C12.2073 49.1928 12.5365 49.9935 13.3832 51.5477ZM28.5576 64.7357C28.5576 65.0655 29.2633 65.9132 30.11 66.5727C32.6034 68.4566 39.2363 71.6123 40.083 71.2828C40.6005 71.0943 39.8007 70.5763 37.5426 69.7286C33.5911 68.1744 29.9688 66.1019 29.9688 65.3955C29.9688 65.0187 31.5212 64.9715 35.3787 65.207C41.1649 65.5367 42.9056 64.8772 37.6369 64.4063C32.0859 63.8408 28.5576 63.982 28.5576 64.7357ZM16.1385 69.7753C14.1156 70.2463 13.0336 70.9528 13.0336 71.8005C13.0336 72.1302 13.2219 72.083 13.4571 71.7063C13.8334 71.094 17.6909 69.9636 18.0674 70.3403C18.1614 70.4345 18.0204 71.141 17.7382 71.8475C17.4559 72.554 17.3619 73.2605 17.5029 73.4017C17.6442 73.5902 17.8791 73.2132 18.0204 72.6952C18.5849 70.67 20.3255 70.0576 24.5123 70.4345C26.6292 70.623 28.9813 70.8585 29.734 70.9055C30.5337 70.9525 31.6157 71.2353 32.1801 71.565C33.4033 72.2245 38.1546 72.2715 37.7311 71.612C37.5899 71.3765 36.6962 71.0468 35.7082 70.9055C34.7673 70.7643 32.7916 70.2933 31.3332 69.9163C28.4166 69.1631 19.1021 69.0688 16.1385 69.7753ZM33.317 75.2122C29.7714 74.5792 28.0853 75.1446 26.651 77.3578L25.4273 79.2585L27.0011 77.7648C29.1391 75.6862 30.6928 75.4856 34.5358 76.6038C36.3334 77.136 37.8581 77.4841 37.9107 77.4058C38.2003 76.976 35.1681 75.4965 33.317 75.2122ZM28.726 73.8999C22.1871 75.6896 21.4344 76.349 22.3753 79.3164C22.7516 80.4469 22.7516 80.3996 22.7988 78.9397C22.8458 78.139 23.2693 77.0085 23.7398 76.5375C24.5865 75.6898 28.397 74.6063 33.0543 73.8529C34.1832 73.7116 34.9359 73.3819 34.7949 73.1464C34.4182 72.5339 32.9128 72.7224 28.726 73.8999ZM34.2836 76.2012C30.9905 77.6614 29.9085 79.0743 29.9555 81.7118L30.0025 83.9727L30.473 81.8533C31.0845 78.9331 32.2607 77.8969 36.0712 76.6722C37.8589 76.1069 39.3171 75.5417 39.3171 75.4475C39.3171 74.9295 35.977 75.4005 34.2836 76.2012ZM33.6584 80.2449C33.0939 80.9987 32.6704 81.9876 32.6704 82.5059C32.6704 83.1181 32.9057 82.9769 33.5641 81.8936C34.0816 81.0459 34.9753 80.0567 35.54 79.6327C36.622 78.879 36.622 78.879 35.634 78.879C35.0698 78.879 34.2229 79.4442 33.6584 80.2449Z" fill="#1E9A1C"/>
<path d="M102.775 102.075C102.473 102.381 102.168 102.685 101.86 102.985C99.5797 101.84 96.8883 100.455 94.3995 99.1674C92.3101 98.0867 89.8632 96.8774 87.5956 95.7567C84.2289 94.093 81.2572 92.6243 80.4366 92.0612C79.3841 91.3369 79.5122 90.7773 80.8159 91.3428C81.5719 91.6707 83.5706 92.7075 85.8076 93.868C87.4287 94.709 89.175 95.6149 90.6644 96.3631C93.3409 97.7305 98.6672 100.188 102.775 102.075Z" fill="#1E9A1C"/>
<path d="M104.749 99.97C104.458 100.296 104.163 100.618 103.865 100.938C101.437 99.878 98.4825 98.5492 95.7634 97.3187C93.6206 96.3491 91.1142 95.2698 88.7912 94.2696C85.3419 92.7844 82.2971 91.4733 81.4482 90.9539C80.3594 90.2857 80.4579 89.7202 81.7893 90.2166C82.5616 90.5045 84.6124 91.4355 86.9077 92.4775C88.5701 93.2322 90.3608 94.0452 91.8868 94.7141C94.7345 95.9856 100.493 98.2793 104.749 99.97Z" fill="#1E9A1C"/>
<path d="M106.365 98.0854C106.084 98.4263 105.8 98.764 105.513 99.0984C102.976 98.0999 99.7907 96.7994 96.8723 95.5997C94.6958 94.7049 92.1515 93.7133 89.7939 92.7944C86.2966 91.4313 83.21 90.2283 82.3439 89.739C81.2322 89.1095 81.3112 88.541 82.6592 88.9904C83.4406 89.2509 85.5213 90.1092 87.8505 91.0699C89.539 91.7664 91.358 92.5167 92.9073 93.1322C95.8926 94.3419 102.019 96.5329 106.365 98.0854Z" fill="#1E9A1C"/>
<path d="M108.043 95.9477C107.776 96.3047 107.504 96.6587 107.229 97.0096C104.597 96.1337 101.206 94.9529 98.1099 93.8659C95.8904 93.0867 93.299 92.2301 90.8974 91.4363C87.3325 90.2579 84.1858 89.2178 83.295 88.7745C82.1521 88.2042 82.2011 87.6321 83.5709 88.0103C84.3639 88.2293 86.4824 88.9759 88.8551 89.8121C90.5801 90.42 92.4395 91.0752 94.0215 91.6095C97.1152 92.678 103.501 94.5885 107.932 95.9143C107.969 95.9255 108.006 95.9366 108.043 95.9477Z" fill="#1E9A1C"/>
<path d="M109.592 93.783C109.34 94.1525 109.084 94.519 108.824 94.8825C106.153 94.1465 102.719 93.1489 99.5813 92.2289C97.3229 91.5666 94.6887 90.8466 92.2478 90.1794C88.6276 89.1898 85.4329 88.3165 84.5205 87.9207C83.3494 87.4108 83.3684 86.8372 84.756 87.143C85.5598 87.3202 87.716 87.9553 90.1304 88.6663C91.8839 89.1828 93.7736 89.7393 95.3803 90.1897C98.5218 91.0935 104.987 92.6642 109.481 93.756C109.518 93.765 109.555 93.774 109.592 93.783Z" fill="#1E9A1C"/>
<path d="M110.913 91.7618C110.675 92.1421 110.433 92.5195 110.188 92.894C107.47 92.2484 103.925 91.3518 100.691 90.525C98.4118 89.9424 95.7554 89.3152 93.2936 88.7338C89.6399 87.871 86.4151 87.1095 85.4891 86.7457C84.301 86.277 84.3 85.7029 85.6974 85.9602C86.5077 86.1095 88.6879 86.6695 91.1282 87.2964C92.8969 87.7507 94.8021 88.2401 96.4216 88.6337C99.592 89.4269 106.105 90.7702 110.634 91.7043C110.728 91.7236 110.821 91.7428 110.913 91.7618Z" fill="#1E9A1C"/>
<path d="M64.0232 102.074L65.5469 103.163C67.7311 104.687 68.9325 106.804 68.8133 108.989L68.7325 110.794L69.4494 109.019C70.2339 107.161 70.1257 104.347 69.1995 102.263L68.6589 101.048L70.3754 101.796C72.8281 102.832 74.443 104.653 74.7804 106.815L75.0761 108.597L75.4086 106.711C75.7899 104.73 75.1005 102.001 73.7609 100.156L72.9798 99.0789L74.8142 99.4534C77.4282 99.9559 79.3858 101.401 80.1652 103.446L80.8247 105.128L80.7579 103.213C80.7195 101.196 79.478 98.6702 77.7851 97.1439L76.7977 96.2535L78.6699 96.2383C81.3312 96.1857 83.5464 97.1914 84.7333 99.0304L85.7271 100.537L85.2645 98.6786C84.8082 96.7144 83.0696 94.502 81.0965 93.3613L79.9455 92.6958L81.7738 92.2916C84.366 91.6854 86.7415 92.2088 88.2842 93.7599L89.5694 95.0273L88.7308 93.3054C87.8768 91.4789 85.7164 89.6763 83.5497 88.9713L82.2857 88.5608L83.99 87.7845C86.3995 86.6522 88.8317 86.6695 90.663 87.8652L92.1837 88.8379L91.006 87.328C89.7909 85.7186 87.3036 84.406 85.0379 84.1677L83.7166 84.029L85.2226 82.9146C87.3443 81.306 89.7269 80.8155 91.7666 81.6048L93.4559 82.2391L91.9904 81.0078C90.4677 79.687 87.7622 78.9201 85.4964 79.1589L84.1752 79.2976L85.4164 77.8943C87.1578 75.879 89.3867 74.904 91.5456 75.2516L93.3297 75.5201L91.6403 74.621C89.8768 73.646 87.0712 73.4591 84.9045 74.164L83.6404 74.5748L84.5631 72.9441C85.848 70.6103 87.8257 69.1925 90.0094 69.0823L91.8105 68.974L89.9713 68.4462C88.0437 67.8596 85.2607 68.2612 83.2876 69.4011L82.1365 70.0664L82.7008 68.279C83.473 65.7287 85.1128 63.9307 87.2262 63.3685L88.9656 62.8876L87.057 62.7542C85.0496 62.5815 82.4109 63.5529 80.7177 65.0792L79.7303 65.9696L79.9109 64.1039C80.1365 61.448 81.3673 59.3481 83.3178 58.3578L84.9193 57.5259L83.0246 57.7924C81.0251 58.0413 78.6461 59.5412 77.307 61.3865L76.5259 62.4631L76.3153 60.6005C75.9845 57.9565 76.752 55.645 78.4543 54.2714L79.8477 53.1239L78.0496 53.7788C76.1456 54.4386 74.1303 56.401 73.2033 58.4849L72.6627 59.7009L72.0698 57.9227C71.1969 55.4052 71.4683 52.9847 72.8479 51.2867L73.9728 49.8745L72.35 50.8892C70.6246 51.9307 69.0605 54.2699 68.5867 56.5011L68.3106 57.803L67.3612 56.1876C65.9849 53.9059 65.7473 51.4829 66.7442 49.5341L67.551 47.9187L66.1746 49.2489C64.7033 50.6273 63.6589 53.2413 63.6589 55.522V56.8524L62.3948 55.4697C60.5752 53.5256 59.8397 51.2037 60.41 49.0903L60.8632 47.3418L59.7932 48.9303C58.6402 50.5841 58.1616 53.3582 58.6353 55.5899L58.9112 56.891L57.388 55.8015C55.2038 54.278 54.0027 52.1606 54.1216 49.9746L54.2019 48.17L53.485 49.9464C52.701 51.8045 52.809 54.6174 53.735 56.701L54.2756 57.9171L52.559 57.1687C50.1063 56.1332 48.4914 54.3123 48.154 52.1497L47.8583 50.3676L47.5261 52.2539C47.1447 54.2343 47.8339 56.9639 49.1737 58.8093L49.9546 59.8854L48.1205 59.5104C45.5065 59.0082 43.5489 57.5635 42.7695 55.5177L42.11 53.8362L42.1768 55.7509C42.2152 57.768 43.4566 60.2939 45.1495 61.8199L46.137 62.7103L44.2647 62.7255C41.6034 62.7783 39.3882 61.7724 38.2014 59.9341L37.2073 58.4264L37.6702 60.285C38.1264 62.2499 39.8651 64.4626 41.8382 65.603L42.989 66.2683L41.1609 66.6725C38.5687 67.2781 36.1932 66.7555 34.6504 65.2044L33.365 63.9368L34.2036 65.6586C35.0579 67.4856 37.2183 69.2873 39.3849 69.992L40.649 70.4033L38.9447 71.1793C36.5349 72.3118 34.1027 72.2943 32.2714 71.0983L30.7507 70.1259L31.9284 71.6353C33.1435 73.2447 35.6308 74.5573 37.8965 74.7958L39.218 74.935L37.7121 76.0487C35.5901 77.658 33.2075 78.1473 31.1679 77.3585L29.4785 76.7245L30.9441 77.9555C32.4667 79.277 35.1722 80.0432 37.438 79.8047L38.7595 79.6659L37.518 81.0687C35.7766 83.0845 33.5477 84.059 31.3889 83.7122L29.6048 83.4432L31.2941 84.3428C33.0581 85.3183 35.8635 85.5047 38.0302 84.7998L39.2942 84.3887L38.3713 86.0199C37.0864 88.3535 35.1087 89.7715 32.925 89.881L31.1242 89.9887L32.9634 90.5171C34.891 91.1037 37.674 90.7021 39.6471 89.562L40.7981 88.8964L40.2342 90.6838C39.4619 93.2346 37.8221 95.0329 35.7088 95.5948L33.9694 96.0757L35.878 96.2093C37.8854 96.3816 40.5243 95.4099 42.2172 93.8834L43.2046 92.993L43.024 94.8594C42.7984 97.5143 41.5676 99.615 39.6171 100.604L38.0157 101.437L39.9103 101.171C41.9098 100.922 44.2889 99.4209 45.6279 97.5755L46.4091 96.4994L46.6199 98.3623C46.9507 101.006 46.183 103.317 44.4807 104.691L43.087 105.839L44.8851 105.184C46.7891 104.524 48.8049 102.561 49.7316 100.477L50.2719 99.2621L50.8649 101.039C51.7377 103.558 51.4664 105.977 50.0867 107.676L48.9619 109.088L50.5847 108.073C52.3101 107.032 53.8742 104.692 54.348 102.461L54.6241 101.16L55.5734 102.776C56.9498 105.057 57.1873 107.48 56.1905 109.429L55.3837 111.045L56.76 109.714C58.2314 108.336 59.2758 105.722 59.2758 103.441V102.11L60.5399 103.493C62.3595 105.438 63.0949 107.759 62.5251 109.873L62.0712 111.621L63.1412 110.033C64.2943 108.378 64.7729 105.605 64.2993 103.373L64.0232 102.072" fill="#FDD406"/>
<path d="M17.4925 17.6549C19.7127 15.4263 22.1069 13.3713 24.6531 11.512C24.5405 12.847 24.2232 14.3126 23.7255 15.9996C22.9926 18.4848 22.311 22.0623 22.0812 23.7729C21.9289 24.9065 21.8538 25.8012 21.7888 26.5756C21.7697 26.8036 21.7514 27.0211 21.7323 27.2313C21.2862 27.2341 20.4439 27.2335 19.8235 27.2331L19.3305 27.2328C19.3171 27.1079 19.3087 26.9981 19.2994 26.8762C19.2654 26.4312 19.219 25.8238 18.8703 23.7285C18.6088 22.2448 18.0639 19.7774 17.4925 17.6549Z" fill="#FDD406"/>
<path d="M11.3242 24.9117C11.8357 25.1467 12.2933 25.3281 12.5877 25.4016C12.2859 25.0568 12.0033 24.703 11.8202 24.2348C11.6534 24.4592 11.488 24.6849 11.3242 24.9117Z" fill="#FDD406"/>
<path d="M13.9518 21.5328C14.7052 20.6319 15.4846 19.7534 16.2887 18.8985C17.1338 20.5406 17.7693 22.5571 18.2313 24.8592C18.42 25.8156 18.4662 26.1531 18.5607 27.231C18.3732 27.2318 18.2173 27.2327 18.0759 27.2335L18.0733 27.2335C17.7083 27.2356 17.4386 27.2371 16.9662 27.2343C16.8225 26.5092 16.719 26.1264 16.4022 25.0974C15.8666 23.3995 14.8866 22.1352 13.9518 21.5328Z" fill="#FDD406"/>
<path d="M94.5373 10.9309C97.1506 12.7736 99.61 14.8197 101.893 17.0463C101.276 19.4068 100.737 22.2907 100.538 23.7729C100.386 24.9066 100.311 25.8011 100.246 26.5756C100.227 26.8036 100.208 27.0211 100.189 27.2313C99.7432 27.2341 98.9009 27.2335 98.2805 27.2331L97.7875 27.2328C97.7741 27.1079 97.7657 26.9981 97.7564 26.8762C97.7224 26.4312 97.676 25.8237 97.3273 23.7285C96.994 21.8376 96.2005 18.3489 95.4784 16.0128C94.891 14.0524 94.5738 12.4151 94.5373 10.9309Z" fill="#FDD406"/>
<path d="M103.366 18.5338C102.422 20.2387 101.724 22.3848 101.227 24.8613C101.039 25.8177 100.992 26.1552 100.898 27.2331L101.385 27.2356C101.75 27.2377 102.02 27.2392 102.492 27.2364C102.636 26.5113 102.74 26.1285 103.056 25.0995C103.663 23.1749 104.842 21.8074 105.878 21.3295C105.069 20.3715 104.232 19.4391 103.366 18.5338Z" fill="#FDD406"/>
<path d="M107.788 23.7133C108.042 24.0469 108.292 24.3833 108.539 24.7224C107.87 25.0482 107.241 25.3112 106.871 25.4037C107.276 24.9411 107.646 24.4625 107.788 23.7133Z" fill="#FDD406"/>
<path d="M28.7745 14.7381C25.6635 16.0731 23.7924 19.7685 22.7703 24.8613C22.5816 25.8177 22.5354 26.1552 22.4409 27.2331C22.6285 27.2339 22.7844 27.2348 22.9259 27.2356L22.9285 27.2356C23.2935 27.2377 23.563 27.2392 24.0354 27.2364C24.1791 26.5113 24.2826 26.1285 24.5994 25.0995C25.8549 21.1191 29.5527 19.5216 29.3859 23.2485C29.3304 24.2775 28.8966 24.852 28.4139 25.4037C29.0106 25.2546 30.2784 24.6624 31.3059 24.0783C37.0278 20.6295 34.7745 12.1794 28.7745 14.7381Z" fill="#FDD406"/>
<path d="M16.3742 28.5332L16.062 28.5318L16.0657 28.4253C16.0723 28.2363 16.077 28.1026 16.0737 27.8646C16.5581 27.8646 17.4802 27.8625 18.5619 27.86H18.5653C20.8945 27.8546 23.9642 27.8474 25.0116 27.8562C25.0093 28.0532 25.0064 28.1041 25.0037 28.1513C25.0005 28.208 24.9976 28.2596 24.9963 28.5519C22.9962 28.5626 18.9188 28.5445 16.3742 28.5332Z" fill="#FDD406"/>
<path d="M16.8006 31.4754C15.8955 32.4522 14.4816 33.1824 14.4816 33.1824C14.4816 33.1824 15.7323 33.3231 16.8987 33.2379C18.0651 33.1527 18.7122 33.0069 19.4016 32.6718C19.2144 34.0635 19.2036 35.4072 19.2036 35.4072C19.3734 37.1982 19.5651 37.6563 19.953 38.5281C20.4792 39.2553 20.7852 39.2592 21.1722 38.4915C21.5904 37.632 21.8655 36.7476 21.9531 35.3991C21.9228 34.3884 21.8664 33.9252 21.6273 32.6895C22.4343 33.0393 22.944 33.1299 24.1482 33.2382C25.3803 33.3492 26.5128 33.2949 26.5128 33.2949C26.5128 33.2949 24.8484 32.4588 24.1161 31.4331C23.5441 30.6321 23.5211 30.5726 23.2761 29.9369C23.2114 29.7691 23.1312 29.5611 23.0214 29.2887C22.5633 29.267 20.7687 29.2761 19.4107 29.283C18.8751 29.2858 18.4062 29.2881 18.1155 29.2881C18.0338 29.4606 17.9628 29.6133 17.8989 29.7506C17.5225 30.5596 17.3948 30.834 16.8006 31.4754Z" fill="#FDD406"/>
<path d="M57.2099 4.48354C55.0121 8.10784 54.7499 11.0067 56.2499 16.0128C56.972 18.3489 57.7655 21.8376 58.0988 23.7285C58.4475 25.8238 58.4939 26.4312 58.5279 26.8762C58.5372 26.9981 58.5456 27.1079 58.559 27.2328L59.052 27.2331C59.6724 27.2335 60.5147 27.2341 60.9608 27.2313C60.9799 27.0211 60.9982 26.8035 61.0173 26.5755C61.0823 25.801 61.1574 24.9065 61.3097 23.7729C61.5395 22.0623 62.2211 18.4848 62.954 15.9996C64.4189 11.034 64.3208 7.98724 62.0429 4.53874C61.2095 3.25954 60.0986 2.20264 59.5985 2.20264C59.099 2.20294 57.9677 3.17974 57.2099 4.48354Z" fill="#FDD406"/>
<path d="M61.9988 24.8613C63.0209 19.7685 64.892 16.0731 68.003 14.7381C74.003 12.1794 76.2563 20.6295 70.5344 24.0783C69.5069 24.6624 68.2391 25.2546 67.6424 25.4037C68.1251 24.852 68.5589 24.2775 68.6144 23.2485C68.7812 19.5216 65.0834 21.1191 63.8279 25.0995C63.5111 26.1285 63.4076 26.5113 63.2639 27.2364C62.7915 27.2392 62.522 27.2377 62.157 27.2356L62.1558 27.2356C62.014 27.2348 61.8577 27.2339 61.6694 27.2331C61.7639 26.1552 61.8101 25.8177 61.9988 24.8613Z" fill="#FDD406"/>
<path d="M55.2905 28.5318L55.6027 28.5332C58.1473 28.5445 62.2247 28.5626 64.2248 28.5519C64.2261 28.2596 64.229 28.208 64.2322 28.1513C64.2349 28.104 64.2378 28.0532 64.2401 27.8562C63.193 27.8474 60.1244 27.8546 57.7953 27.86H57.7911C56.7094 27.8625 55.7867 27.8646 55.3022 27.8646C55.3055 28.1025 55.3008 28.2362 55.2942 28.4249L55.2905 28.5318Z" fill="#FDD406"/>
<path d="M53.7101 33.1824C53.7101 33.1824 55.124 32.4522 56.0291 31.4754C56.6233 30.834 56.7514 30.5587 57.1278 29.7497L57.1283 29.7486L57.1288 29.7477C57.1923 29.6112 57.2629 29.4594 57.344 29.2881C57.6347 29.2881 58.1032 29.2858 58.6388 29.283C59.9968 29.2761 61.7918 29.267 62.2499 29.2887C62.3597 29.5611 62.4399 29.7691 62.5046 29.9369C62.7497 30.5726 62.7726 30.6321 63.3446 31.4331C64.0769 32.4588 65.7413 33.2949 65.7413 33.2949C65.7413 33.2949 64.6088 33.3492 63.3767 33.2382C62.1725 33.1299 61.6628 33.0393 60.8558 32.6895C61.0949 33.9252 61.1513 34.3884 61.1816 35.3991C61.094 36.7476 60.8189 37.632 60.4007 38.4915C60.0137 39.2592 59.7077 39.2553 59.1815 38.5281C58.7936 37.6563 58.6019 37.1982 58.4321 35.4072C58.4321 35.4072 58.4429 34.0635 58.6301 32.6718C57.9407 33.0069 57.2936 33.1527 56.1272 33.2379C54.9608 33.3231 53.7101 33.1824 53.7101 33.1824Z" fill="#FDD406"/>
<path d="M51.4556 14.736C54.5666 16.071 56.4377 19.7664 57.4598 24.8592C57.6485 25.8156 57.6947 26.1531 57.7892 27.231C57.6005 27.2318 57.4439 27.2327 57.3018 27.2335C56.9368 27.2356 56.6672 27.2371 56.1947 27.2343C56.051 26.5092 55.9475 26.1264 55.6307 25.0974C54.3752 21.117 50.6774 19.5195 50.8442 23.2464C50.8997 24.2754 51.3335 24.8499 51.8162 25.4016C51.2195 25.2525 49.9517 24.6603 48.9242 24.0762C43.2023 20.6277 45.4556 12.1776 51.4556 14.736Z" fill="#FDD406"/>
<path d="M94.519 28.5318L94.8312 28.5332C97.3758 28.5445 101.453 28.5626 103.453 28.5519C103.455 28.2596 103.458 28.208 103.461 28.1513C103.463 28.104 103.466 28.0532 103.469 27.8562C102.421 27.8474 99.3501 27.8546 97.0206 27.86H97.016L97.0145 27.86C95.9345 27.8625 95.0146 27.8646 94.5307 27.8646C94.534 28.1027 94.5293 28.2364 94.5227 28.4254L94.519 28.5318Z" fill="#FDD406"/>
<path d="M92.9386 33.1824C92.9386 33.1824 94.3525 32.4522 95.2576 31.4754C95.8519 30.834 95.9795 30.5596 96.3559 29.7506L96.3569 29.7484C96.4205 29.6118 96.4914 29.4595 96.5725 29.2881C96.8632 29.2881 97.3308 29.2858 97.8664 29.283L97.8674 29.283C99.2254 29.2761 101.02 29.267 101.478 29.2887C101.588 29.5611 101.668 29.7691 101.733 29.9369C101.978 30.5726 102.001 30.6321 102.573 31.4331C103.305 32.4588 104.97 33.2949 104.97 33.2949C104.97 33.2949 103.837 33.3492 102.605 33.2382C101.401 33.1299 100.891 33.0393 100.084 32.6895C100.323 33.9252 100.38 34.3884 100.41 35.3991C100.323 36.7476 100.047 37.632 99.6292 38.4915C99.2422 39.2592 98.9362 39.2553 98.41 38.5281C98.0221 37.6563 97.8304 37.1982 97.6606 35.4072C97.6606 35.4072 97.6714 34.0635 97.8586 32.6718C97.1692 33.0069 96.5221 33.1527 95.3557 33.2379C94.1893 33.3231 92.9386 33.1824 92.9386 33.1824Z" fill="#FDD406"/>
<path d="M90.6841 14.736C93.7951 16.071 95.6662 19.7664 96.6883 24.8592C96.877 25.8156 96.9232 26.1531 97.0177 27.231L96.5304 27.2335C96.1654 27.2356 95.8956 27.2371 95.4232 27.2343C95.2795 26.5092 95.176 26.1264 94.8592 25.0974C93.6037 21.117 89.9059 19.5195 90.0727 23.2464C90.1282 24.2754 90.562 24.8499 91.0447 25.4016C90.448 25.2525 89.1802 24.6603 88.1527 24.0762C82.4308 20.6277 84.6841 12.1776 90.6841 14.736Z" fill="#FDD406"/>
</g>
<defs>
<clipPath id="clip0_909_271258">
<rect width="120" height="120" fill="white"/>
</clipPath>
</defs>
</svg>
