<svg width="120" height="120" viewBox="0 0 120 120" fill="none" xmlns="http://www.w3.org/2000/svg">
<g clip-path="url(#clip0_421_13954)">
<circle cx="60" cy="60" r="60" fill="black"/>
<path d="M3.39648 40.05C11.6191 16.72 33.857 0 60 0C86.1431 0 108.381 16.72 116.604 40.05H3.39648Z" fill="#0F3296"/>
<path d="M27.6086 63.9795C27.6761 63.914 28.7347 64.2656 29.9904 64.7541C31.2461 65.2424 32.8684 65.7037 33.5662 65.7492C34.7963 65.804 39.1517 67.8788 39.1096 68.3777C39.1014 68.8438 32.5161 66.8301 30.2076 65.6572C27.4368 64.2763 27.3716 64.2087 27.6086 63.9795Z" fill="#1E9A1C"/>
<path d="M35.7268 64.9384C36.2569 66.2343 38.1376 67.1201 40.6617 67.3383C42.3698 67.4595 41.5864 66.7231 39.1992 65.853C38.0779 65.4945 36.7719 64.818 36.2173 64.4156C35.2408 63.6589 35.2408 63.6589 35.7268 64.9384ZM11.9517 55.2424C13.3159 57.2675 14.8683 58.7277 17.8791 60.7532C20.0903 62.2604 22.0189 63.4378 22.1129 63.3436C22.3012 63.1081 11.293 52.8874 10.5403 52.6047C10.2583 52.5105 10.8698 53.6879 11.9517 55.2424ZM40.274 66.0262C41.2955 66.5031 42.5995 66.8788 43.2572 66.9009C44.0345 66.927 43.8282 66.7358 42.3774 66.1708C41.2419 65.727 39.8838 64.9809 39.281 64.5183C38.2003 63.634 38.2003 63.634 38.3136 64.4118C38.3781 64.8566 39.1928 65.5476 40.274 66.0262ZM33.9206 56.837C34.5793 59.4746 37.3076 64.326 38.2486 64.5142C39.0953 64.6554 39.0953 64.6084 38.3898 63.8077C37.2136 62.4418 34.6735 57.4492 34.6735 56.5072C34.6735 55.9892 34.4383 55.6122 34.156 55.6122C33.8266 55.6122 33.7323 56.0832 33.9206 56.837ZM5.64448 53.5296C5.62822 53.6224 6.51125 54.3045 7.61758 55.0737C8.72417 55.8429 10.0131 56.9315 10.4412 57.4853C11.1744 58.4755 15.3279 60.9305 15.7175 60.6168C16.0991 60.3493 10.7491 56.009 8.4869 54.749C5.79436 53.2212 5.70164 53.205 5.64448 53.5296ZM7.16006 57.1532C7.16006 57.2475 8.14801 57.7655 9.3712 58.3307C10.5944 58.8959 12.0526 59.7436 12.57 60.2146C13.4637 61.0623 17.98 62.758 18.3092 62.3813C18.6385 62.0516 12.617 58.7074 10.1709 57.8597C7.25406 56.8235 7.16006 56.8235 7.16006 57.1532ZM28.141 58.8151C29.9286 62.112 31.7633 64.2787 32.516 64.0432C32.8922 63.902 32.0455 62.536 30.2109 60.3223C28.5644 58.3911 27.153 56.6957 27.012 56.5545C26.871 56.413 27.3885 57.4492 28.141 58.8151ZM30.453 57.53C30.453 58.0479 32.2876 61.6276 33.3695 63.1348C33.981 63.9825 34.6867 64.4535 35.4864 64.4535C36.6626 64.4535 36.6626 64.4535 34.875 62.4283C33.84 61.3451 32.4758 59.6964 31.7701 58.8017C31.0644 57.9067 30.453 57.3415 30.453 57.53ZM26.1277 59.0506C26.1277 59.7571 29.5666 64.4672 30.0993 64.4672C30.3414 64.4672 29.7602 63.3367 28.7433 61.9708C26.4669 58.8624 26.1277 58.5326 26.1277 59.0506ZM22.8791 72.0299C19.7743 73.2546 19.1158 73.6783 19.1158 74.3378C19.1158 74.6203 19.445 74.5733 19.9625 74.1493C20.386 73.7253 21.9384 73.1601 23.3496 72.8306C24.7607 72.5011 26.4544 71.9356 27.1129 71.6059L28.2891 70.9937H26.8779C26.1252 71.0407 24.2903 71.5116 22.8791 72.0299ZM14.063 64.0287C16.3826 66.1405 24.1409 70.1302 28.0719 71.3041C29.137 71.6176 30.8653 71.6895 31.8418 71.484L33.6625 71.1212L31.8657 70.1721C28.9673 68.672 24.2077 65.4945 22.4993 63.9617C20.638 62.2843 20.6984 62.8637 22.592 65.1808C23.3318 66.1141 25.5188 67.7232 27.4363 68.7287C29.3697 69.7783 30.7205 70.7396 30.4994 70.8202C29.9248 71.0295 24.6185 68.0011 20.5826 65.1612C16.1969 62.048 16.016 61.9634 17.6482 63.9751C18.4484 64.9367 19.9277 66.2521 21.001 66.8633C22.0461 67.535 22.7617 68.1263 22.5407 68.2069C22.0987 68.3679 19.3493 66.8638 15.7595 64.5632C14.7586 63.8753 13.3956 63.0187 12.8048 62.6326C12.1534 62.2187 12.7364 62.8581 14.063 64.0287ZM14.4047 63.3703L12.523 63.9825L13.9342 64.218C14.6869 64.4065 15.6749 64.3122 16.1453 64.0767C16.5688 63.8413 17.4155 63.6528 18.027 63.6058C19.0619 63.6058 19.0619 63.5588 18.1682 63.1818C16.992 62.6638 16.7098 62.6638 14.4047 63.3703ZM16.7233 64.6486C15.9236 65.2608 15.9706 65.3081 17.7112 65.0253C18.7462 64.8841 20.2516 64.6013 21.0043 64.4131C22.2275 64.0834 22.1332 64.0364 20.0164 63.9891C18.6049 63.9421 17.2877 64.2246 16.7233 64.6486ZM5.03631 59.6964C12.7984 61.1093 28.3696 66.3374 27.4286 67.2324C27.1934 67.4679 22.8184 66.3847 22.2069 65.9607C21.9717 65.7252 19.6665 65.8194 17.1262 66.1492C12.3749 66.6672 11.5752 67.0912 11.6692 69.0223C11.7162 69.9643 11.7162 69.9643 11.9514 69.0223C12.3749 67.2796 13.0804 66.9029 15.762 66.9029C18.6786 66.9029 26.6759 68.0804 30.2042 69.0223C34.9085 70.341 35.0497 70.341 33.4973 69.4933C31.4744 68.3629 28.4166 66.2904 27.8521 65.6782C26.8172 64.5007 8.04716 59.3197 5.31855 59.4139C4.04837 59.5082 4.00137 59.5082 5.03631 59.6964ZM8.60502 62.2063C8.04055 62.6303 7.42883 63.6192 7.28784 64.42C7.00561 65.7859 7.00561 65.7859 7.75832 64.8909C9.73422 62.3945 9.87521 62.3005 12.3216 62.2533C14.2975 62.2063 14.5797 62.112 13.6388 61.8293C11.6626 61.2171 9.68697 61.3583 8.60502 62.2063ZM32.5833 65.1127C32.9595 65.7722 36.6291 67.6091 36.9113 67.3264C37.0526 67.1851 36.6291 66.8084 36.0646 66.4787C35.4532 66.1489 34.6535 65.6309 34.324 65.254C33.5713 64.5477 32.1601 64.4062 32.5833 65.1127ZM32.8663 69.5878C33.2425 70.2473 36.9121 72.0842 37.1943 71.8015C37.3356 71.6603 36.9121 71.2835 36.3476 70.9538C35.7362 70.624 34.9364 70.1061 34.607 69.7291C33.8542 69.0226 32.4431 68.8811 32.8663 69.5878ZM35.399 67.4219C34.5214 67.7616 33.6388 68.3756 33.3647 68.815C33.0406 69.3343 33.3149 69.3394 34.4469 68.7701C35.3345 68.3258 36.6159 67.961 37.3191 67.901C38.6355 67.836 38.6355 67.836 37.7977 67.3119C37.3188 67.0124 36.3016 67.0424 35.399 67.4219ZM29.9815 70.8021C27.3004 73.2096 26.7074 74.8883 27.5661 77.3822L28.3086 79.5179L28.1018 77.3565C27.7823 74.3901 28.581 73.0407 31.8268 70.6972C33.3525 69.6066 34.565 68.6179 34.5358 68.5282C34.3763 68.0354 31.3449 69.5167 29.9815 70.8021ZM13.3832 51.5482C14.8416 54.3271 20.7688 60.7326 24.0619 63.1818C24.9556 63.8413 26.5553 64.5005 27.543 64.642L29.3776 64.9245L28.0134 63.4173C25.8023 61.0151 22.4152 56.3992 21.3333 54.3741C20.1571 52.1604 20.0161 52.7256 21.0041 55.5515C21.3803 56.682 22.8857 58.9427 24.3441 60.5441C25.8026 62.1926 26.7432 63.5585 26.508 63.5585C25.8965 63.5585 21.9447 58.8957 19.1224 54.8451C16.0646 50.4177 15.9236 50.2765 16.7703 52.7256C17.1938 53.9031 18.1345 55.6458 18.9342 56.5877C19.6869 57.577 20.1573 58.3774 19.9221 58.3774C19.4516 58.3774 17.3817 56.0225 14.7944 52.6311C14.0887 51.6419 13.1007 50.3704 12.6775 49.8052C12.2073 49.1932 12.5365 49.994 13.3832 51.5482ZM28.5576 64.7362C28.5576 65.066 29.2633 65.9137 30.11 66.5732C32.6034 68.4571 39.2363 71.6127 40.083 71.2833C40.6005 71.0948 39.8007 70.5768 37.5426 69.7291C33.5911 68.1749 29.9688 66.1024 29.9688 65.396C29.9688 65.0192 31.5212 64.972 35.3787 65.2075C41.1649 65.5372 42.9056 64.8777 37.6369 64.4067C32.0859 63.8413 28.5576 63.9825 28.5576 64.7362ZM16.1385 69.7758C14.1156 70.2468 13.0336 70.9533 13.0336 71.801C13.0336 72.1307 13.2219 72.0835 13.4571 71.7067C13.8334 71.0945 17.6909 69.9641 18.0674 70.3408C18.1614 70.435 18.0204 71.1415 17.7382 71.848C17.4559 72.5545 17.3619 73.2609 17.5029 73.4022C17.6442 73.5907 17.8791 73.2137 18.0204 72.6957C18.5849 70.6705 20.3255 70.058 24.5123 70.435C26.6292 70.6235 28.9813 70.859 29.734 70.906C30.5337 70.953 31.6157 71.2358 32.1801 71.5655C33.4033 72.225 38.1546 72.272 37.7311 71.6125C37.5899 71.377 36.6962 71.0473 35.7082 70.906C34.7673 70.7648 32.7916 70.2938 31.3332 69.9168C28.4166 69.1636 19.1021 69.0693 16.1385 69.7758ZM33.317 75.2127C29.7714 74.5796 28.0853 75.1451 26.651 77.3583L25.4273 79.259L27.0011 77.7653C29.1391 75.6867 30.6928 75.486 34.5358 76.6043C36.3334 77.1365 37.8581 77.4846 37.9107 77.4063C38.2003 76.9765 35.1681 75.497 33.317 75.2127ZM28.726 73.9004C22.1871 75.69 21.4344 76.3495 22.3753 79.3169C22.7516 80.4474 22.7516 80.4001 22.7988 78.9402C22.8458 78.1395 23.2693 77.009 23.7398 76.538C24.5865 75.6903 28.397 74.6068 33.0543 73.8534C34.1832 73.7121 34.9359 73.3824 34.7949 73.1469C34.4182 72.5344 32.9128 72.7229 28.726 73.9004ZM34.2836 76.2017C30.9905 77.6619 29.9085 79.0748 29.9555 81.7122L30.0025 83.9732L30.473 81.8537C31.0845 78.9336 32.2607 77.8974 36.0712 76.6727C37.8589 76.1074 39.3171 75.5422 39.3171 75.4479C39.3171 74.93 35.977 75.4009 34.2836 76.2017ZM33.6584 80.2454C33.0939 80.9992 32.6704 81.9881 32.6704 82.5064C32.6704 83.1186 32.9057 82.9773 33.5641 81.8941C34.0816 81.0464 34.9753 80.0572 35.54 79.6332C36.622 78.8795 36.622 78.8795 35.634 78.8795C35.0698 78.8795 34.2229 79.4447 33.6584 80.2454Z" fill="#1E9A1C"/>
<path d="M102.775 102.075C102.473 102.382 102.168 102.685 101.86 102.985C99.5797 101.84 96.8883 100.455 94.3995 99.1676C92.3101 98.0869 89.8632 96.8777 87.5956 95.757C84.2289 94.0932 81.2572 92.6246 80.4366 92.0614C79.3841 91.3372 79.5122 90.7775 80.8159 91.343C81.5719 91.6709 83.5706 92.7077 85.8076 93.8682C87.4287 94.7092 89.175 95.6152 90.6644 96.3633C93.3409 97.7307 98.6672 100.188 102.775 102.075Z" fill="#1E9A1C"/>
<path d="M104.749 99.9702C104.458 100.296 104.163 100.619 103.865 100.938C101.437 99.8782 98.4825 98.5494 95.7634 97.319C93.6206 96.3493 91.1142 95.2701 88.7912 94.2699C85.3419 92.7846 82.2971 91.4736 81.4482 90.9541C80.3594 90.286 80.4579 89.7205 81.7893 90.2169C82.5616 90.5048 84.6124 91.4358 86.9077 92.4778C88.5701 93.2325 90.3608 94.0454 91.8868 94.7143C94.7345 95.9859 100.493 98.2796 104.749 99.9702Z" fill="#1E9A1C"/>
<path d="M106.365 98.0857C106.084 98.4265 105.8 98.7642 105.513 99.0987C102.976 98.1002 99.7907 96.7997 96.8723 95.5999C94.6958 94.7051 92.1515 93.7135 89.7939 92.7946C86.2966 91.4315 83.21 90.2285 82.3439 89.7393C81.2322 89.1098 81.3112 88.5413 82.6592 88.9906C83.4406 89.2512 85.5213 90.1094 87.8505 91.0702C89.539 91.7666 91.358 92.517 92.9073 93.1325C95.8926 94.3421 102.019 96.5331 106.365 98.0857Z" fill="#1E9A1C"/>
<path d="M108.043 95.9479C107.776 96.305 107.504 96.659 107.229 97.0098C104.597 96.1339 101.206 94.9532 98.1099 93.8661C95.8904 93.087 93.299 92.2304 90.8974 91.4365C87.3325 90.2582 84.1858 89.2181 83.295 88.7747C82.1521 88.2044 82.2011 87.6323 83.5709 88.0106C84.3639 88.2296 86.4824 88.9762 88.8551 89.8123C90.5801 90.4202 92.4395 91.0755 94.0215 91.6098C97.1152 92.6782 103.501 94.5887 107.932 95.9145C107.969 95.9257 108.006 95.9368 108.043 95.9479Z" fill="#1E9A1C"/>
<path d="M109.592 93.7833C109.34 94.1527 109.084 94.5193 108.824 94.8828C106.153 94.1467 102.719 93.1491 99.5813 92.2291C97.3229 91.5669 94.6887 90.8468 92.2478 90.1796C88.6276 89.19 85.4329 88.3168 84.5205 87.9209C83.3494 87.411 83.3684 86.8374 84.756 87.1433C85.5598 87.3205 87.716 87.9555 90.1304 88.6666C91.8839 89.183 93.7736 89.7396 95.3803 90.1899C98.5218 91.0938 104.987 92.6645 109.481 93.7562C109.518 93.7653 109.555 93.7743 109.592 93.7833Z" fill="#1E9A1C"/>
<path d="M110.913 91.7621C110.675 92.1423 110.433 92.5197 110.188 92.8942C107.47 92.2487 103.925 91.352 100.691 90.5253C98.4118 89.9427 95.7554 89.3154 93.2936 88.7341C89.6399 87.8713 86.4151 87.1098 85.4891 86.746C84.301 86.2773 84.3 85.7032 85.6974 85.9605C86.5077 86.1097 88.6879 86.6697 91.1282 87.2966C92.8969 87.751 94.8021 88.2404 96.4216 88.634C99.592 89.4271 106.105 90.7704 110.634 91.7045C110.728 91.7239 110.821 91.7431 110.913 91.7621Z" fill="#1E9A1C"/>
<path d="M64.0232 102.074L65.5469 103.164C67.7311 104.687 68.9325 106.804 68.8133 108.99L68.7325 110.794L69.4494 109.019C70.2339 107.161 70.1257 104.347 69.1995 102.263L68.6589 101.048L70.3754 101.796C72.8281 102.832 74.443 104.653 74.7804 106.816L75.0761 108.598L75.4086 106.711C75.7899 104.73 75.1005 102.001 73.7609 100.156L72.9798 99.0792L74.8142 99.4536C77.4282 99.9561 79.3858 101.401 80.1652 103.447L80.8247 105.128L80.7579 103.213C80.7195 101.196 79.478 98.6704 77.7851 97.1442L76.7977 96.2538L78.6699 96.2385C81.3312 96.186 83.5464 97.1917 84.7333 99.0307L85.7271 100.538L85.2645 98.6788C84.8082 96.7146 83.0696 94.5022 81.0965 93.3616L79.9455 92.696L81.7738 92.2918C84.366 91.6857 86.7415 92.209 88.2842 93.7602L89.5694 95.0275L88.7308 93.3057C87.8768 91.4792 85.7164 89.6765 83.5497 88.9716L82.2857 88.561L83.99 87.7847C86.3995 86.6525 88.8317 86.6697 90.663 87.8655L92.1837 88.8382L91.006 87.3282C89.7909 85.7189 87.3036 84.4063 85.0379 84.168L83.7166 84.0293L85.2226 82.9148C87.3443 81.3063 89.7269 80.8157 91.7666 81.605L93.4559 82.2393L91.9904 81.008C90.4677 79.6873 87.7622 78.9203 85.4964 79.1591L84.1752 79.2978L85.4164 77.8945C87.1578 75.8793 89.3867 74.9043 91.5456 75.2518L93.3297 75.5203L91.6403 74.6213C89.8768 73.6463 87.0712 73.4593 84.9045 74.1643L83.6404 74.575L84.5631 72.9444C85.848 70.6105 87.8257 69.1928 90.0094 69.0825L91.8105 68.9743L89.9713 68.4464C88.0437 67.8598 85.2607 68.2615 83.2876 69.4013L82.1365 70.0666L82.7008 68.2792C83.473 65.729 85.1128 63.9309 87.2262 63.3687L88.9656 62.8878L87.057 62.7545C85.0496 62.5817 82.4109 63.5531 80.7177 65.0794L79.7303 65.9698L79.9109 64.1042C80.1365 61.4482 81.3673 59.3483 83.3178 58.3581L84.9193 57.5261L83.0246 57.7926C81.0251 58.0416 78.6461 59.5414 77.307 61.3867L76.5259 62.4633L76.3153 60.6007C75.9845 57.9567 76.752 55.6452 78.4543 54.2717L79.8477 53.1242L78.0496 53.7791C76.1456 54.4388 74.1303 56.4012 73.2033 58.4851L72.6627 59.7012L72.0698 57.9229C71.1969 55.4054 71.4683 52.985 72.8479 51.287L73.9728 49.8748L72.35 50.8894C70.6246 51.931 69.0605 54.2701 68.5867 56.5013L68.3106 57.8033L67.3612 56.1879C65.9849 53.9061 65.7473 51.4831 66.7442 49.5344L67.551 47.919L66.1746 49.2491C64.7033 50.6275 63.6589 53.2415 63.6589 55.5223V56.8527L62.3948 55.4699C60.5752 53.5258 59.8397 51.2039 60.41 49.0906L60.8632 47.342L59.7932 48.9305C58.6402 50.5843 58.1616 53.3584 58.6353 55.5901L58.9112 56.8913L57.388 55.8017C55.2038 54.2783 54.0027 52.1609 54.1216 49.9749L54.2019 48.1702L53.485 49.9467C52.701 51.8047 52.809 54.6177 53.735 56.7013L54.2756 57.9173L52.559 57.1689C50.1063 56.1335 48.4914 54.3126 48.154 52.1499L47.8583 50.3679L47.5261 52.2541C47.1447 54.2346 47.8339 56.9642 49.1737 58.8095L49.9546 59.8856L48.1205 59.5107C45.5065 59.0084 43.5489 57.5637 42.7695 55.518L42.11 53.8365L42.1768 55.7512C42.2152 57.7682 43.4566 60.2941 45.1495 61.8201L46.137 62.7105L44.2647 62.7257C41.6034 62.7786 39.3882 61.7726 38.2014 59.9344L37.2073 58.4267L37.6702 60.2852C38.1264 62.2502 39.8651 64.4629 41.8382 65.6032L42.989 66.2685L41.1609 66.6727C38.5687 67.2783 36.1932 66.7558 34.6504 65.2046L33.365 63.937L34.2036 65.6589C35.0579 67.4859 37.2183 69.2875 39.3849 69.9922L40.649 70.4035L38.9447 71.1796C36.5349 72.3121 34.1027 72.2945 32.2714 71.0985L30.7507 70.1261L31.9284 71.6356C33.1435 73.2449 35.6308 74.5575 37.8965 74.7961L39.218 74.9353L37.7121 76.049C35.5901 77.6583 33.2075 78.1476 31.1679 77.3588L29.4785 76.7247L30.9441 77.9558C32.4667 79.2773 35.1722 80.0434 37.438 79.8049L38.7595 79.6662L37.518 81.069C35.7766 83.0848 33.5477 84.0592 31.3889 83.7125L29.6048 83.4435L31.2941 84.343C33.0581 85.3185 35.8635 85.505 38.0302 84.8L39.2942 84.389L38.3713 86.0202C37.0864 88.3537 35.1087 89.7718 32.925 89.8813L31.1242 89.989L32.9634 90.5174C34.891 91.1039 37.674 90.7023 39.6471 89.5622L40.7981 88.8966L40.2342 90.684C39.4619 93.2348 37.8221 95.0331 35.7088 95.5951L33.9694 96.076L35.878 96.2096C37.8854 96.3818 40.5243 95.4101 42.2172 93.8836L43.2046 92.9932L43.024 94.8596C42.7984 97.5146 41.5676 99.6152 39.6171 100.605L38.0157 101.437L39.9103 101.171C41.9098 100.922 44.2889 99.4211 45.6279 97.5758L46.4091 96.4997L46.6199 98.3625C46.9507 101.007 46.183 103.317 44.4807 104.691L43.087 105.839L44.8851 105.184C46.7891 104.524 48.8049 102.561 49.7316 100.478L50.2719 99.2623L50.8649 101.04C51.7377 103.558 51.4664 105.978 50.0867 107.676L48.9619 109.089L50.5847 108.074C52.3101 107.032 53.8742 104.693 54.348 102.461L54.6241 101.16L55.5734 102.776C56.9498 105.057 57.1873 107.481 56.1905 109.429L55.3837 111.045L56.76 109.714C58.2314 108.336 59.2758 105.722 59.2758 103.441V102.111L60.5399 103.494C62.3595 105.438 63.0949 107.76 62.5251 109.873L62.0712 111.621L63.1412 110.033C64.2943 108.379 64.7729 105.605 64.2993 103.374L64.0232 102.072" fill="#FDD406"/>
<path d="M17.4925 17.6549C19.7127 15.4263 22.1069 13.3713 24.6531 11.512C24.5405 12.847 24.2232 14.3126 23.7255 15.9996C22.9926 18.4848 22.311 22.0623 22.0812 23.7729C21.9289 24.9065 21.8538 25.8012 21.7888 26.5756C21.7697 26.8036 21.7514 27.0211 21.7323 27.2313C21.2862 27.2341 20.4439 27.2335 19.8235 27.2331L19.3305 27.2328C19.3171 27.1079 19.3087 26.9981 19.2994 26.8762C19.2654 26.4312 19.219 25.8238 18.8703 23.7285C18.6088 22.2448 18.0639 19.7774 17.4925 17.6549Z" fill="#FDD406"/>
<path d="M11.3242 24.9117C11.8357 25.1467 12.2933 25.3281 12.5877 25.4016C12.2859 25.0568 12.0033 24.703 11.8202 24.2348C11.6534 24.4592 11.488 24.6849 11.3242 24.9117Z" fill="#FDD406"/>
<path d="M13.9518 21.5328C14.7052 20.6319 15.4846 19.7534 16.2887 18.8985C17.1338 20.5406 17.7693 22.5571 18.2313 24.8592C18.42 25.8156 18.4662 26.1531 18.5607 27.231C18.3732 27.2318 18.2173 27.2327 18.0759 27.2335L18.0733 27.2335C17.7083 27.2356 17.4386 27.2371 16.9662 27.2343C16.8225 26.5092 16.719 26.1264 16.4022 25.0974C15.8666 23.3995 14.8866 22.1352 13.9518 21.5328Z" fill="#FDD406"/>
<path d="M94.5373 10.9309C97.1506 12.7736 99.61 14.8197 101.893 17.0463C101.276 19.4068 100.737 22.2907 100.538 23.7729C100.386 24.9066 100.311 25.8011 100.246 26.5756C100.227 26.8036 100.208 27.0211 100.189 27.2313C99.7432 27.2341 98.9009 27.2335 98.2805 27.2331L97.7875 27.2328C97.7741 27.1079 97.7657 26.9981 97.7564 26.8762C97.7224 26.4312 97.676 25.8237 97.3273 23.7285C96.994 21.8376 96.2005 18.3489 95.4784 16.0128C94.891 14.0524 94.5738 12.4151 94.5373 10.9309Z" fill="#FDD406"/>
<path d="M103.366 18.5338C102.422 20.2387 101.724 22.3848 101.227 24.8613C101.039 25.8177 100.992 26.1552 100.898 27.2331L101.385 27.2356C101.75 27.2377 102.02 27.2392 102.492 27.2364C102.636 26.5113 102.74 26.1285 103.056 25.0995C103.663 23.1749 104.842 21.8074 105.878 21.3295C105.069 20.3715 104.232 19.4391 103.366 18.5338Z" fill="#FDD406"/>
<path d="M107.788 23.7133C108.042 24.0469 108.292 24.3833 108.539 24.7224C107.87 25.0482 107.241 25.3112 106.871 25.4037C107.276 24.9411 107.646 24.4625 107.788 23.7133Z" fill="#FDD406"/>
<path d="M28.7745 14.7381C25.6635 16.0731 23.7924 19.7685 22.7703 24.8613C22.5816 25.8177 22.5354 26.1552 22.4409 27.2331C22.6285 27.2339 22.7844 27.2348 22.9259 27.2356L22.9285 27.2356C23.2935 27.2377 23.563 27.2392 24.0354 27.2364C24.1791 26.5113 24.2826 26.1285 24.5994 25.0995C25.8549 21.1191 29.5527 19.5216 29.3859 23.2485C29.3304 24.2775 28.8966 24.852 28.4139 25.4037C29.0106 25.2546 30.2784 24.6624 31.3059 24.0783C37.0278 20.6295 34.7745 12.1794 28.7745 14.7381Z" fill="#FDD406"/>
<path d="M16.3742 28.5332L16.062 28.5318L16.0657 28.4253C16.0723 28.2363 16.077 28.1026 16.0737 27.8646C16.5581 27.8646 17.4802 27.8625 18.5619 27.86H18.5653C20.8945 27.8546 23.9642 27.8474 25.0116 27.8562C25.0093 28.0532 25.0064 28.1041 25.0037 28.1513C25.0005 28.208 24.9976 28.2596 24.9963 28.5519C22.9962 28.5626 18.9188 28.5445 16.3742 28.5332Z" fill="#FDD406"/>
<path d="M16.8006 31.4754C15.8955 32.4522 14.4816 33.1824 14.4816 33.1824C14.4816 33.1824 15.7323 33.3231 16.8987 33.2379C18.0651 33.1527 18.7122 33.0069 19.4016 32.6718C19.2144 34.0635 19.2036 35.4072 19.2036 35.4072C19.3734 37.1982 19.5651 37.6563 19.953 38.5281C20.4792 39.2553 20.7852 39.2592 21.1722 38.4915C21.5904 37.632 21.8655 36.7476 21.9531 35.3991C21.9228 34.3884 21.8664 33.9252 21.6273 32.6895C22.4343 33.0393 22.944 33.1299 24.1482 33.2382C25.3803 33.3492 26.5128 33.2949 26.5128 33.2949C26.5128 33.2949 24.8484 32.4588 24.1161 31.4331C23.5441 30.6321 23.5211 30.5726 23.2761 29.9369C23.2114 29.7691 23.1312 29.5611 23.0214 29.2887C22.5633 29.267 20.7687 29.2761 19.4107 29.283C18.8751 29.2858 18.4062 29.2881 18.1155 29.2881C18.0338 29.4606 17.9628 29.6133 17.8989 29.7506C17.5225 30.5596 17.3948 30.834 16.8006 31.4754Z" fill="#FDD406"/>
<path d="M57.2099 4.48354C55.0121 8.10784 54.7499 11.0067 56.2499 16.0128C56.972 18.3489 57.7655 21.8376 58.0988 23.7285C58.4475 25.8238 58.4939 26.4312 58.5279 26.8762C58.5372 26.9981 58.5456 27.1079 58.559 27.2328L59.052 27.2331C59.6724 27.2335 60.5147 27.2341 60.9608 27.2313C60.9799 27.0211 60.9982 26.8035 61.0173 26.5755C61.0823 25.801 61.1574 24.9065 61.3097 23.7729C61.5395 22.0623 62.2211 18.4848 62.954 15.9996C64.4189 11.034 64.3208 7.98724 62.0429 4.53874C61.2095 3.25954 60.0986 2.20264 59.5985 2.20264C59.099 2.20294 57.9677 3.17974 57.2099 4.48354Z" fill="#FDD406"/>
<path d="M61.9988 24.8613C63.0209 19.7685 64.892 16.0731 68.003 14.7381C74.003 12.1794 76.2563 20.6295 70.5344 24.0783C69.5069 24.6624 68.2391 25.2546 67.6424 25.4037C68.1251 24.852 68.5589 24.2775 68.6144 23.2485C68.7812 19.5216 65.0834 21.1191 63.8279 25.0995C63.5111 26.1285 63.4076 26.5113 63.2639 27.2364C62.7915 27.2392 62.522 27.2377 62.157 27.2356L62.1558 27.2356C62.014 27.2348 61.8577 27.2339 61.6694 27.2331C61.7639 26.1552 61.8101 25.8177 61.9988 24.8613Z" fill="#FDD406"/>
<path d="M55.2905 28.5318L55.6027 28.5332C58.1473 28.5445 62.2247 28.5626 64.2248 28.5519C64.2261 28.2596 64.229 28.208 64.2322 28.1513C64.2349 28.104 64.2378 28.0532 64.2401 27.8562C63.193 27.8474 60.1244 27.8546 57.7953 27.86H57.7911C56.7094 27.8625 55.7867 27.8646 55.3022 27.8646C55.3055 28.1025 55.3008 28.2362 55.2942 28.4249L55.2905 28.5318Z" fill="#FDD406"/>
<path d="M53.7101 33.1824C53.7101 33.1824 55.124 32.4522 56.0291 31.4754C56.6233 30.834 56.7514 30.5587 57.1278 29.7497L57.1283 29.7486L57.1288 29.7477C57.1923 29.6112 57.2629 29.4594 57.344 29.2881C57.6347 29.2881 58.1032 29.2858 58.6388 29.283C59.9968 29.2761 61.7918 29.267 62.2499 29.2887C62.3597 29.5611 62.4399 29.7691 62.5046 29.9369C62.7497 30.5726 62.7726 30.6321 63.3446 31.4331C64.0769 32.4588 65.7413 33.2949 65.7413 33.2949C65.7413 33.2949 64.6088 33.3492 63.3767 33.2382C62.1725 33.1299 61.6628 33.0393 60.8558 32.6895C61.0949 33.9252 61.1513 34.3884 61.1816 35.3991C61.094 36.7476 60.8189 37.632 60.4007 38.4915C60.0137 39.2592 59.7077 39.2553 59.1815 38.5281C58.7936 37.6563 58.6019 37.1982 58.4321 35.4072C58.4321 35.4072 58.4429 34.0635 58.6301 32.6718C57.9407 33.0069 57.2936 33.1527 56.1272 33.2379C54.9608 33.3231 53.7101 33.1824 53.7101 33.1824Z" fill="#FDD406"/>
<path d="M51.4556 14.736C54.5666 16.071 56.4377 19.7664 57.4598 24.8592C57.6485 25.8156 57.6947 26.1531 57.7892 27.231C57.6005 27.2318 57.4439 27.2327 57.3018 27.2335C56.9368 27.2356 56.6672 27.2371 56.1947 27.2343C56.051 26.5092 55.9475 26.1264 55.6307 25.0974C54.3752 21.117 50.6774 19.5195 50.8442 23.2464C50.8997 24.2754 51.3335 24.8499 51.8162 25.4016C51.2195 25.2525 49.9517 24.6603 48.9242 24.0762C43.2023 20.6277 45.4556 12.1776 51.4556 14.736Z" fill="#FDD406"/>
<path d="M94.519 28.5318L94.8312 28.5332C97.3758 28.5445 101.453 28.5626 103.453 28.5519C103.455 28.2596 103.458 28.208 103.461 28.1513C103.463 28.104 103.466 28.0532 103.469 27.8562C102.421 27.8474 99.3501 27.8546 97.0206 27.86H97.016L97.0145 27.86C95.9345 27.8625 95.0146 27.8646 94.5307 27.8646C94.534 28.1027 94.5293 28.2364 94.5227 28.4254L94.519 28.5318Z" fill="#FDD406"/>
<path d="M92.9386 33.1824C92.9386 33.1824 94.3525 32.4522 95.2576 31.4754C95.8519 30.834 95.9795 30.5596 96.3559 29.7506L96.3569 29.7484C96.4205 29.6118 96.4914 29.4595 96.5725 29.2881C96.8632 29.2881 97.3308 29.2858 97.8664 29.283L97.8674 29.283C99.2254 29.2761 101.02 29.267 101.478 29.2887C101.588 29.5611 101.668 29.7691 101.733 29.9369C101.978 30.5726 102.001 30.6321 102.573 31.4331C103.305 32.4588 104.97 33.2949 104.97 33.2949C104.97 33.2949 103.837 33.3492 102.605 33.2382C101.401 33.1299 100.891 33.0393 100.084 32.6895C100.323 33.9252 100.38 34.3884 100.41 35.3991C100.323 36.7476 100.047 37.632 99.6292 38.4915C99.2422 39.2592 98.9362 39.2553 98.41 38.5281C98.0221 37.6563 97.8304 37.1982 97.6606 35.4072C97.6606 35.4072 97.6714 34.0635 97.8586 32.6718C97.1692 33.0069 96.5221 33.1527 95.3557 33.2379C94.1893 33.3231 92.9386 33.1824 92.9386 33.1824Z" fill="#FDD406"/>
<path d="M90.6841 14.736C93.7951 16.071 95.6662 19.7664 96.6883 24.8592C96.877 25.8156 96.9232 26.1531 97.0177 27.231L96.5304 27.2335C96.1654 27.2356 95.8956 27.2371 95.4232 27.2343C95.2795 26.5092 95.176 26.1264 94.8592 25.0974C93.6037 21.117 89.9059 19.5195 90.0727 23.2464C90.1282 24.2754 90.562 24.8499 91.0447 25.4016C90.448 25.2525 89.1802 24.6603 88.1527 24.0762C82.4308 20.6277 84.6841 12.1776 90.6841 14.736Z" fill="#FDD406"/>
</g>
<defs>
<clipPath id="clip0_421_13954">
<rect width="120" height="120" fill="white"/>
</clipPath>
</defs>
</svg>
