<svg width="120" height="120" viewBox="0 0 120 120" fill="none" xmlns="http://www.w3.org/2000/svg">
<g clip-path="url(#clip0_909_286190)">
<circle cx="60" cy="60" r="60" fill="#0F3296"/>
<path d="M116.586 39.9999C118.086 44.2454 119.123 48.7102 119.634 53.3333H66.6667V39.9999H116.586Z" fill="white"/>
<path d="M97.7156 13.3333C102.414 17.1348 106.526 21.6314 109.896 26.6666H66.6667V13.3333H97.7156Z" fill="white"/>
<path d="M40 3.41406V26.6666H66.6667V39.9999H40V66.6666H119.634C119.123 71.2897 118.086 75.7545 116.586 79.9999H3.41413C1.91357 75.7545 0.877267 71.2897 0.366211 66.6666H26.6667V39.9999H3.41413C5.09198 35.2529 7.35025 30.78 10.1037 26.6666H26.6667V10.1036C30.7801 7.35018 35.253 5.09191 40 3.41406Z" fill="white"/>
<path d="M22.2845 106.667C17.5865 102.865 13.4741 98.3685 10.1037 93.3333H109.896C106.526 98.3685 102.414 102.865 97.7156 106.667H22.2845Z" fill="white"/>
</g>
<defs>
<clipPath id="clip0_909_286190">
<rect width="120" height="120" fill="white"/>
</clipPath>
</defs>
</svg>
