<svg width="120" height="120" viewBox="0 0 120 120" fill="none" xmlns="http://www.w3.org/2000/svg">
<g clip-path="url(#clip0_307_95358)">
<circle cx="60" cy="60" r="60" fill="#1E9A1C"/>
<path d="M23.9965 11.9982L120 60L23.9965 108.002C9.42513 97.0551 0 79.6282 0 60C0 40.3718 9.42513 22.9449 23.9965 11.9982Z" fill="#FDD406"/>
<path d="M23.9965 11.9982L120 60L23.9965 108.002C22.9009 107.179 21.8344 106.319 20.7988 105.424L111.648 60L20.7988 14.5755C21.8344 13.681 22.9009 12.8213 23.9965 11.9982Z" fill="white"/>
<path d="M17.5736 102.426C6.71573 91.5685 0 76.5685 0 60C0 43.4315 6.71573 28.4315 17.5736 17.5736L60 60L17.5736 102.426Z" fill="#D91C16"/>
<path d="M17.5733 17.5736L59.9997 60L17.5733 102.426C16.7955 101.649 16.039 100.85 15.3047 100.03L55.3349 60L15.3047 19.9697C16.039 19.1504 16.7955 18.3514 17.5733 17.5736Z" fill="black"/>
</g>
<defs>
<clipPath id="clip0_307_95358">
<rect width="120" height="120" fill="white"/>
</clipPath>
</defs>
</svg>
