<svg width="120" height="120" viewBox="0 0 120 120" fill="none" xmlns="http://www.w3.org/2000/svg">
<circle cx="60" cy="60" r="60" fill="white"/>
<path d="M95.3307 11.5C101.222 15.7993 106.301 21.146 110.293 27.2663H9.70752C13.6992 21.146 18.7778 15.7993 24.6695 11.5H95.3307Z" fill="#0F3296"/>
<path d="M93.9181 109.5C100.082 105.268 105.417 99.9145 109.626 93.7337H10.3741C14.5837 99.9145 19.9178 105.268 26.0821 109.5H93.9181Z" fill="#0F3296"/>
<path d="M42.8218 60.0028L34 75.3409L51.5993 75.2777L59.9676 89.8404L68.5946 75.2166L86.311 75.1529L77.4778 60.1586L86.4051 45.0259L68.5254 44.9617L59.897 30.3149L51.508 44.9005L34.1076 44.838L34.0941 44.8144V44.8379L34.1076 44.838L42.8218 60.0028Z" fill="#0F3296"/>
<path d="M55.3925 45.0258L65.333 45.0023L60.304 36.6833L55.3925 45.0258Z" fill="white"/>
<path d="M40 72.1684L45.0995 63.7083V63.6848L49.635 72.1448L40 72.1684Z" fill="white"/>
<path d="M49.776 48.1513L40.094 48.0808L45.123 56.6818L49.776 48.1513Z" fill="white"/>
<path d="M80.5375 72.1684L75.626 63.8258L70.738 72.0508L80.5375 72.1684Z" fill="white"/>
<path d="M70.7615 48.1513L80.4435 48.0808L75.4145 56.6818L70.7615 48.1513Z" fill="white"/>
<path d="M46.909 60.1598L53.583 48.0808V48.0573L66.649 47.9398L73.605 60.1598L66.085 72.2623L53.677 71.9803L46.909 60.1598Z" fill="white"/>
<path d="M55.3925 74.6828L60.304 83.0253L65.333 74.7299L55.3925 74.6828Z" fill="white"/>
</svg>
