<svg width="120" height="120" viewBox="0 0 120 120" fill="none" xmlns="http://www.w3.org/2000/svg">
<g clip-path="url(#clip0_909_101767)">
<circle cx="60" cy="60" r="60" fill="white"/>
<path d="M95.3306 11.5C101.222 15.7993 106.301 21.146 110.293 27.2663H9.7074C13.6991 21.146 18.7777 15.7993 24.6694 11.5H95.3306Z" fill="#0F3296"/>
<path d="M93.9179 109.5C100.082 105.268 105.416 99.9145 109.626 93.7337H10.3739C14.5836 99.9145 19.9177 105.268 26.082 109.5H93.9179Z" fill="#0F3296"/>
<path fill-rule="evenodd" clip-rule="evenodd" d="M60 34.0192L67.5 47.0096H82.5L75 60L82.5 72.9904H67.5L60 85.9808L52.5 72.9904H37.5L45 60L37.5 47.0096H52.5L60 34.0192ZM50.1184 51.1346H44.6447L47.3816 55.875L50.1184 51.1346ZM49.7631 60L54.8816 51.1346H65.1184L70.2369 60L65.1184 68.8654H54.8816L49.7631 60ZM47.3816 64.125L44.6447 68.8654H50.1184L47.3816 64.125ZM57.2631 72.9904L60 77.7308L62.7369 72.9904H57.2631ZM69.8816 68.8654H75.3553L72.6184 64.125L69.8816 68.8654ZM72.6184 55.875L75.3553 51.1346H69.8816L72.6184 55.875ZM62.7369 47.0096H57.2631L60 42.2692L62.7369 47.0096Z" fill="#0F3296"/>
</g>
<defs>
<clipPath id="clip0_909_101767">
<rect width="120" height="120" fill="white"/>
</clipPath>
</defs>
</svg>
