<svg width="120" height="120" viewBox="0 0 120 120" fill="none" xmlns="http://www.w3.org/2000/svg">
<circle cx="60" cy="60" r="60" fill="#E23726"/>
<path d="M116.586 80C118.797 73.7444 120 67.0127 120 60C120 26.8629 93.1371 0 60 0C26.8629 0 0 26.8629 0 60C0 67.0127 1.20308 73.7444 3.41411 80H116.586Z" fill="white"/>
<path d="M3.41406 40C11.6508 16.6962 33.8756 0 59.9999 0C86.1243 0 108.349 16.6962 116.586 40H3.41406Z" fill="#1E9A1C"/>
<path d="M116.667 40.2299C116.748 40.4637 116.828 40.6982 116.907 40.9333H116.667V40.2299Z" fill="white"/>
<path d="M114.711 35.3333C115.069 36.125 115.41 36.9258 115.733 37.7353V38.1333H111.067V36.2667H108.267V38.1333H107.333V35.3333H112V37.2H114.8V36.2667H112.933V35.3333H114.711Z" fill="white"/>
<path d="M113.829 33.4667C113.982 33.7763 114.133 34.0874 114.28 34.4H107.333V33.4667H113.829Z" fill="white"/>
<path d="M5.71995 34.4C5.86764 34.0874 6.01795 33.7763 6.17085 33.4667H7.46678V34.4H5.71995Z" fill="white"/>
<path d="M4.66678 36.7601C4.86811 36.2813 5.07548 35.8057 5.28878 35.3333H8.40012V33.4667H9.33345V37.2H10.2668V33.4667H11.2001V37.2H12.1334V33.4667H13.0668V38.1333H8.40012V36.2667H5.60012V37.2H7.46678V38.1333H4.66678V36.7601Z" fill="white"/>
<path d="M3.09302 40.9333C3.29704 40.3241 3.51058 39.7193 3.73345 39.119V40.9333H3.09302Z" fill="white"/>
<path d="M116.667 79.7701C116.748 79.5363 116.828 79.3018 116.907 79.0667H116.667V79.7701Z" fill="white"/>
<path d="M115.891 81.8667H107.333V82.8H115.516C115.644 82.4902 115.769 82.1791 115.891 81.8667Z" fill="white"/>
<path d="M115.123 83.7333H112.933V84.6667H114.711C114.851 84.357 114.989 84.0458 115.123 83.7333Z" fill="white"/>
<path d="M114.28 85.6H112V83.7333H107.333V86.5333H108.267V84.6667H111.067V86.5333H113.829C113.982 86.2237 114.133 85.9126 114.28 85.6Z" fill="white"/>
<path d="M6.17086 86.5333H7.46678V85.6H5.71996C5.86765 85.9126 6.01796 86.2237 6.17086 86.5333Z" fill="white"/>
<path d="M5.60011 85.3448V84.6667H8.40012V86.5333H13.0668V81.8667H12.1334V85.6H11.2001V81.8667H10.2668V85.6H9.33345V81.8667H8.40012V83.7333H4.8769C5.11028 84.2747 5.35139 84.8119 5.60011 85.3448Z" fill="white"/>
<path d="M4.48388 82.8H7.46678V81.8667H4.10933C4.23165 82.1791 4.35651 82.4902 4.48388 82.8Z" fill="white"/>
<path d="M3.09302 79.0667C3.29705 79.6759 3.51058 80.2807 3.73345 80.881V79.0667H3.09302Z" fill="white"/>
<path d="M4.66678 40.9333H13.0668V39.0667H4.66678V40.9333Z" fill="white"/>
<path d="M4.66678 80.9333H13.0668V79.0667H4.66678V80.9333Z" fill="white"/>
<path d="M26.1334 34.4H14.0001V33.4667H26.1334V34.4Z" fill="white"/>
<path d="M27.0668 36.2667H24.2668V37.2H26.1334V38.1333H23.3334V35.3333H27.0668V33.4667H28.0001V37.2H28.9334V33.4667H29.8668V37.2H30.8001V33.4667H31.7334V38.1333H27.0668V36.2667Z" fill="white"/>
<path d="M14.0001 35.3333H18.6668V37.2H21.4668V36.2667H19.6001V35.3333H22.4001V38.1333H17.7334V36.2667H14.9334V38.1333H14.0001V35.3333Z" fill="white"/>
<path d="M16.8001 38.1333H15.8668V37.2H16.8001V38.1333Z" fill="white"/>
<path d="M14.0001 40.9333H22.4001V39.0667H14.0001V40.9333Z" fill="white"/>
<path d="M23.3335 40.9333H31.7335V39.0667H23.3335V40.9333Z" fill="white"/>
<path d="M22.4001 80.9333H14.0001V79.0667H22.4001V80.9333Z" fill="white"/>
<path d="M31.7335 80.9333H23.3335V79.0667H31.7335V80.9333Z" fill="white"/>
<path d="M14.0001 82.8H26.1334V81.8667H14.0001V82.8Z" fill="white"/>
<path d="M24.2668 84.6667H27.0668V86.5333H31.7335V81.8667H30.8001V85.6H29.8668V81.8667H28.9334V85.6H28.0001V81.8667H27.0668V83.7333H23.3335V86.5333H26.1334V85.6H24.2668V84.6667Z" fill="white"/>
<path d="M18.6668 83.7333H14.0001V86.5333H14.9334V84.6667H17.7334V86.5333H22.4001V83.7333H19.6001V84.6667H21.4668V85.6H18.6668V83.7333Z" fill="white"/>
<path d="M15.8668 86.5333H16.8001V85.6H15.8668V86.5333Z" fill="white"/>
<path d="M44.8001 34.4H32.6667V33.4667H44.8001V34.4Z" fill="white"/>
<path d="M45.7334 36.2667H42.9334V37.2H44.8001V38.1333H42.0001V35.3333H45.7334V33.4667H46.6667V37.2H47.6001V33.4667H48.5334V37.2H49.4667V33.4667H50.4001V38.1333H45.7334V36.2667Z" fill="white"/>
<path d="M32.6667 35.3333H37.3334V37.2H40.1334V36.2667H38.2667V35.3333H41.0667V38.1333H36.4001V36.2667H33.6001V38.1333H32.6667V35.3333Z" fill="white"/>
<path d="M35.4667 38.1333H34.5334V37.2H35.4667V38.1333Z" fill="white"/>
<path d="M32.6667 40.9333H41.0667V39.0667H32.6667V40.9333Z" fill="white"/>
<path d="M42.0001 40.9333H50.4001V39.0667H42.0001V40.9333Z" fill="white"/>
<path d="M41.0667 80.9333H32.6667V79.0667H41.0667V80.9333Z" fill="white"/>
<path d="M50.4001 80.9333H42.0001V79.0667H50.4001V80.9333Z" fill="white"/>
<path d="M32.6667 82.8H44.8001V81.8667H32.6667V82.8Z" fill="white"/>
<path d="M42.9334 84.6667H45.7334V86.5333H50.4001V81.8667H49.4667V85.6H48.5334V81.8667H47.6001V85.6H46.6667V81.8667H45.7334V83.7333H42.0001V86.5333H44.8001V85.6H42.9334V84.6667Z" fill="white"/>
<path d="M37.3334 83.7333H32.6667V86.5333H33.6001V84.6667H36.4001V86.5333H41.0667V83.7333H38.2667V84.6667H40.1334V85.6H37.3334V83.7333Z" fill="white"/>
<path d="M34.5334 86.5333H35.4667V85.6H34.5334V86.5333Z" fill="white"/>
<path d="M63.4667 34.4H51.3334V33.4667H63.4667V34.4Z" fill="white"/>
<path d="M64.4001 36.2667H61.6001V37.2H63.4667V38.1333H60.6667V35.3333H64.4001V33.4667H65.3334V37.2H66.2667V33.4667H67.2001V37.2H68.1334V33.4667H69.0667V38.1333H64.4001V36.2667Z" fill="white"/>
<path d="M51.3334 35.3333H56.0001V37.2H58.8001V36.2667H56.9334V35.3333H59.7334V38.1333H55.0667V36.2667H52.2667V38.1333H51.3334V35.3333Z" fill="white"/>
<path d="M54.1334 38.1333H53.2001V37.2H54.1334V38.1333Z" fill="white"/>
<path d="M51.3334 40.9333H59.7334V39.0667H51.3334V40.9333Z" fill="white"/>
<path d="M60.6667 40.9333H69.0667V39.0667H60.6667V40.9333Z" fill="white"/>
<path d="M59.7334 80.9333H51.3334V79.0667H59.7334V80.9333Z" fill="white"/>
<path d="M69.0667 80.9333H60.6667V79.0667H69.0667V80.9333Z" fill="white"/>
<path d="M51.3334 82.8H63.4667V81.8667H51.3334V82.8Z" fill="white"/>
<path d="M61.6001 84.6667H64.4001V86.5333H69.0667V81.8667H68.1334V85.6H67.2001V81.8667H66.2667V85.6H65.3334V81.8667H64.4001V83.7333H60.6667V86.5333H63.4667V85.6H61.6001V84.6667Z" fill="white"/>
<path d="M56.0001 83.7333H51.3334V86.5333H52.2667V84.6667H55.0667V86.5333H59.7334V83.7333H56.9334V84.6667H58.8001V85.6H56.0001V83.7333Z" fill="white"/>
<path d="M53.2001 86.5333H54.1334V85.6H53.2001V86.5333Z" fill="white"/>
<path d="M82.1334 34.4H70.0001V33.4667H82.1334V34.4Z" fill="white"/>
<path d="M83.0667 36.2667H80.2667V37.2H82.1334V38.1333H79.3334V35.3333H83.0667V33.4667H84.0001V37.2H84.9334V33.4667H85.8667V37.2H86.8001V33.4667H87.7334V38.1333H83.0667V36.2667Z" fill="white"/>
<path d="M70.0001 35.3333H74.6667V37.2H77.4667V36.2667H75.6001V35.3333H78.4001V38.1333H73.7334V36.2667H70.9334V38.1333H70.0001V35.3333Z" fill="white"/>
<path d="M72.8001 38.1333H71.8667V37.2H72.8001V38.1333Z" fill="white"/>
<path d="M70.0001 40.9333H78.4001V39.0667H70.0001V40.9333Z" fill="white"/>
<path d="M79.3334 40.9333H87.7334V39.0667H79.3334V40.9333Z" fill="white"/>
<path d="M78.4001 80.9333H70.0001V79.0667H78.4001V80.9333Z" fill="white"/>
<path d="M87.7334 80.9333H79.3334V79.0667H87.7334V80.9333Z" fill="white"/>
<path d="M70.0001 82.8H82.1334V81.8667H70.0001V82.8Z" fill="white"/>
<path d="M80.2667 84.6667H83.0667V86.5333H87.7334V81.8667H86.8001V85.6H85.8667V81.8667H84.9334V85.6H84.0001V81.8667H83.0667V83.7333H79.3334V86.5333H82.1334V85.6H80.2667V84.6667Z" fill="white"/>
<path d="M74.6667 83.7333H70.0001V86.5333H70.9334V84.6667H73.7334V86.5333H78.4001V83.7333H75.6001V84.6667H77.4667V85.6H74.6667V83.7333Z" fill="white"/>
<path d="M71.8667 86.5333H72.8001V85.6H71.8667V86.5333Z" fill="white"/>
<path d="M100.8 34.4H88.6667V33.4667H100.8V34.4Z" fill="white"/>
<path d="M101.733 36.2667H98.9334V37.2H100.8V38.1333H98.0001V35.3333H101.733V33.4667H102.667V37.2H103.6V33.4667H104.533V37.2H105.467V33.4667H106.4V38.1333H101.733V36.2667Z" fill="white"/>
<path d="M88.6667 35.3333H93.3334V37.2H96.1334V36.2667H94.2667V35.3333H97.0667V38.1333H92.4001V36.2667H89.6001V38.1333H88.6667V35.3333Z" fill="white"/>
<path d="M91.4667 38.1333H90.5334V37.2H91.4667V38.1333Z" fill="white"/>
<path d="M88.6667 40.9333H97.0667V39.0667H88.6667V40.9333Z" fill="white"/>
<path d="M98.0001 40.9333H106.4V39.0667H98.0001V40.9333Z" fill="white"/>
<path d="M97.0667 80.9333H88.6667V79.0667H97.0667V80.9333Z" fill="white"/>
<path d="M106.4 80.9333H98.0001V79.0667H106.4V80.9333Z" fill="white"/>
<path d="M88.6667 82.8H100.8V81.8667H88.6667V82.8Z" fill="white"/>
<path d="M98.9334 84.6667H101.733V86.5333H106.4V81.8667H105.467V85.6H104.533V81.8667H103.6V85.6H102.667V81.8667H101.733V83.7333H98.0001V86.5333H100.8V85.6H98.9334V84.6667Z" fill="white"/>
<path d="M93.3334 83.7333H88.6667V86.5333H89.6001V84.6667H92.4001V86.5333H97.0667V83.7333H94.2667V84.6667H96.1334V85.6H93.3334V83.7333Z" fill="white"/>
<path d="M90.5334 86.5333H91.4667V85.6H90.5334V86.5333Z" fill="white"/>
<path d="M109.2 38.1333H110.133V37.2H109.2V38.1333Z" fill="white"/>
<path d="M115.733 40.9333H107.333V39.0667H115.733V40.9333Z" fill="white"/>
<path d="M115.733 80.9333H107.333V79.0667H115.733V80.9333Z" fill="white"/>
<path d="M109.2 86.5333H110.133V85.6H109.2V86.5333Z" fill="white"/>
<path d="M60 47.5317C59.6948 47.9656 59.241 48.2723 58.7246 48.3936C58.2082 48.515 57.6653 48.4425 57.1988 48.1899C56.7323 47.9373 56.3749 47.5223 56.1942 47.0235C56.0136 46.5248 56.0224 45.9771 56.2189 45.4844C56.2963 45.8947 56.4975 46.2715 56.7953 46.5642C57.0931 46.8568 57.4733 47.0514 57.8849 47.1217C58.2965 47.1921 58.7197 47.1348 59.0978 46.9576C59.4759 46.7804 59.7907 46.4918 60 46.1305C60.2093 46.4918 60.5242 46.7804 60.9022 46.9576C61.2803 47.1348 61.7036 47.1921 62.1152 47.1217C62.5268 47.0514 62.907 46.8568 63.2048 46.5642C63.5026 46.2715 63.7037 45.8947 63.7811 45.4844C63.9777 45.9771 63.9865 46.5248 63.8058 47.0235C63.6252 47.5223 63.2677 47.9373 62.8012 48.1899C62.3348 48.4425 61.7918 48.515 61.2754 48.3936C60.7591 48.2723 60.3052 47.9656 60 47.5317Z" fill="#E23726"/>
<path d="M58.8329 73.3936L60 75L61.1672 73.3936L61.1862 72.9239C63.5116 73.4117 65.9378 73.288 68.2223 72.5457C66.2186 72.6423 64.224 72.3357 62.3543 71.6529C64.6871 70.4307 66.628 68.5551 67.9295 66.2411C69.4789 63.4861 70.0266 60.2796 69.4795 57.1665C68.9324 54.0534 67.3242 51.2258 64.9282 49.1642C66.4872 51.4712 67.3734 54.1666 67.4874 56.9486C67.6015 59.7306 66.939 62.4895 65.5741 64.9163C64.5121 66.8044 63.0577 68.4335 61.3168 69.6984L61.7705 58.4939V49.6771C61.0647 49.3386 60.4557 48.8274 60 48.1908C59.5444 48.8274 58.9354 49.3386 58.2295 49.6771V58.4939L58.6832 69.6984C56.9424 68.4335 55.4879 66.8044 54.426 64.9163C53.0611 62.4895 52.3985 59.7306 52.5126 56.9486C52.6267 54.1666 53.5128 51.4712 55.0719 49.1642C52.6759 51.2258 51.0677 54.0534 50.5205 57.1665C49.9734 60.2796 50.5211 63.4861 52.0706 66.2411C53.3721 68.5551 55.3129 70.4307 57.6457 71.6529C55.776 72.3357 53.7815 72.6423 51.7778 72.5457C54.0622 73.288 56.4884 73.4117 58.8139 72.9239L58.8329 73.3936Z" fill="#E23726"/>
<path d="M73.8408 65.0224C72.8406 67.0735 71.2508 68.7792 69.2751 69.9211C70.4653 68.3471 71.3333 66.5538 71.8293 64.6438C72.3252 62.7338 72.4395 60.7447 72.1654 58.7904C71.8913 56.8362 71.2343 54.9553 70.2321 53.2554C69.2298 51.5555 67.902 50.0701 66.3247 48.8843C68.5383 49.4386 70.536 50.6412 72.0618 52.338C73.5876 54.0349 74.572 56.1486 74.889 58.4084C75.2059 60.6683 74.8409 62.9713 73.8408 65.0224Z" fill="#E23726"/>
<path d="M46.1593 65.0224C47.1595 67.0735 48.7492 68.7792 50.7249 69.9211C49.5347 68.3471 48.6667 66.5538 48.1708 64.6438C47.6748 62.7338 47.5606 60.7447 47.8347 58.7904C48.1088 56.8362 48.7657 54.9553 49.768 53.2554C50.7702 51.5555 52.0981 50.0701 53.6754 48.8843C51.4618 49.4386 49.4641 50.6412 47.9383 52.338C46.4125 54.0349 45.428 56.1486 45.1111 58.4084C44.7941 60.6683 45.1591 62.9713 46.1593 65.0224Z" fill="#E23726"/>
</svg>
