<svg width="120" height="120" viewBox="0 0 120 120" fill="none" xmlns="http://www.w3.org/2000/svg">
<g clip-path="url(#clip0_307_94978)">
<circle cx="60" cy="60" r="60" fill="#0F3296"/>
<path d="M118.513 73.3332C119.486 69.0451 120 64.5825 120 59.9999C120 55.4173 119.486 50.9547 118.513 46.6666H57.7778V0.0402832C48.1345 0.391384 39.0719 3.01824 31.1111 7.39977V46.6666H1.48678C0.513743 50.9547 0 55.4173 0 59.9999C0 64.5825 0.513743 69.0451 1.48678 73.3332H31.1111V112.6C39.0719 116.982 48.1345 119.608 57.7778 119.96V73.3332H118.513Z" fill="white"/>
<path d="M119.634 66.6666C119.876 64.4777 120 62.2533 120 59.9999C120 57.7465 119.876 55.5221 119.634 53.3332H51.1111V0.653809C46.4722 1.34271 42.0065 2.56259 37.7778 4.24966V53.3332H0.366192C0.124222 55.5221 0 57.7465 0 59.9999C0 62.2533 0.124222 64.4777 0.366192 66.6666H37.7778V115.75C42.0065 117.437 46.4722 118.657 51.1111 119.346V66.6666H119.634Z" fill="#D91C16"/>
</g>
<defs>
<clipPath id="clip0_307_94978">
<rect width="120" height="120" fill="white"/>
</clipPath>
</defs>
</svg>
