<svg width="120" height="120" viewBox="0 0 120 120" fill="none" xmlns="http://www.w3.org/2000/svg">
<g clip-path="url(#clip0_909_101827)">
<circle cx="60" cy="60" r="60" fill="white"/>
<path d="M116.586 40H3.41412C11.6509 16.6962 33.8756 0 60 0C86.1244 0 108.349 16.6962 116.586 40Z" fill="black"/>
<path d="M116.586 80C108.349 103.304 86.1244 120 60 120C33.8756 120 11.6509 103.304 3.41412 80H116.586Z" fill="#005801"/>
<path d="M17.5736 102.426C6.71573 91.5686 0 76.5686 0 60C0 43.4315 6.71573 28.4315 17.5736 17.5736L60 60L17.5736 102.426Z" fill="#D91C16"/>
<path d="M21.1172 51.4299L19.26 56.1442L14.4267 54.668L16.9505 59.049L12.76 61.9061L17.7838 62.668L17.4029 67.7156L21.1172 64.2871L24.8552 67.7156L24.4743 62.668L29.4743 61.9061L25.3076 59.049L27.8314 54.668L22.9981 56.1442L21.1172 51.4299Z" fill="white"/>
</g>
<defs>
<clipPath id="clip0_909_101827">
<rect width="120" height="120" fill="white"/>
</clipPath>
</defs>
</svg>
