<svg width="120" height="120" viewBox="0 0 120 120" fill="none" xmlns="http://www.w3.org/2000/svg">
<g clip-path="url(#clip0_909_304217)">
<circle cx="60" cy="60" r="60" fill="white"/>
<path d="M96.0059 12C100.549 15.4133 104.592 19.4565 108.004 24H11.9956C15.4083 19.4565 19.4511 15.4133 23.9942 12H96.0059Z" fill="#D91C16"/>
<path d="M96.0059 108C100.549 104.587 104.592 100.543 108.004 96H11.9956C15.4083 100.543 19.4511 104.587 23.9942 108H96.0059Z" fill="#D91C16"/>
<path d="M68.698 76.0269C63.3807 84.4246 54.0081 90 43.3333 90C26.7647 90 13.3333 76.5685 13.3333 60C13.3333 43.4315 26.7647 30 43.3333 30C54.0081 30 63.3807 35.5754 68.698 43.9731C64.3042 39.0787 57.9283 36 50.8333 36C37.5784 36 26.8333 46.7452 26.8333 60C26.8333 73.2548 37.5784 84 50.8333 84C57.9283 84 64.3042 80.9213 68.698 76.0269Z" fill="#D91C16"/>
<path d="M66.8333 60.0002L77.198 56.6325V45.7344L83.6038 54.5512L93.9685 51.1834L87.5627 60.0002L93.9685 68.817L83.6038 65.4493L77.198 74.2661V63.3679L66.8333 60.0002Z" fill="#D91C16"/>
</g>
<defs>
<clipPath id="clip0_909_304217">
<rect width="120" height="120" fill="white"/>
</clipPath>
</defs>
</svg>
