<svg width="120" height="120" viewBox="0 0 120 120" fill="none" xmlns="http://www.w3.org/2000/svg">
<circle cx="60" cy="60" r="60" fill="white"/>
<path d="M111.973 30H8.02686C18.4011 12.066 37.7915 0 59.9999 0C82.2084 0 101.599 12.066 111.973 30Z" fill="#FDD406"/>
<path d="M60 120C93.1371 120 120 93.1371 120 60H0C0 93.1371 26.8629 120 60 120Z" fill="#E23726"/>
<path d="M111.973 90C101.599 107.934 82.2084 120 59.9999 120C37.7915 120 18.4011 107.934 8.02686 90H111.973Z" fill="#0F3296"/>
<path d="M20.1693 104.873C7.79607 93.8822 0 77.8515 0 60C0 42.1485 7.79607 26.1178 20.1693 15.127L80 60L20.1693 104.873Z" fill="#1E9A1C"/>
<path d="M38.061 34.9391C31.9735 35.6711 26.3652 38.6083 22.2967 43.1953C18.2282 47.7823 15.9815 53.7011 15.9815 59.8325C15.9815 65.9639 18.2282 71.8827 22.2967 76.4697C26.3652 81.0567 31.9735 83.9939 38.061 84.7259C34.2245 85.7896 30.194 85.9522 26.2842 85.2008C22.3745 84.4495 18.6913 82.8047 15.5223 80.3947C12.3532 77.9848 9.78411 74.875 8.0155 71.3081C6.24689 67.7412 5.32666 63.8138 5.32666 59.8325C5.32666 55.8512 6.24689 51.9238 8.0155 48.3569C9.78411 44.79 12.3532 41.6802 15.5223 39.2703C18.6913 36.8603 22.3745 35.2155 26.2842 34.4642C30.194 33.7128 34.2245 33.8754 38.061 34.9391Z" fill="white"/>
<path d="M38.061 37.7989L39.2552 41.4732H43.1211L39.9938 43.7458L41.1882 47.4207L38.0625 45.1493L34.9368 47.4207L36.1302 43.7451L33.0039 41.4732H36.8679L38.061 37.7989Z" fill="white"/>
<path d="M39.2552 52.8699L38.061 49.1956L36.8679 52.8699H33.0039L36.1302 55.1418L34.9368 58.8174L38.0625 56.546L41.1882 58.8174L39.9938 55.1425L43.1211 52.8699H39.2552Z" fill="white"/>
<path d="M38.061 60.5923L39.2552 64.2666H43.1211L39.9938 66.5392L41.1882 70.2141L38.0625 67.9427L34.9368 70.2141L36.1302 66.5385L33.0039 64.2666H36.8679L38.061 60.5923Z" fill="white"/>
<path d="M39.2552 75.6633L38.061 71.989L36.8679 75.6633H33.0039L36.1302 77.9352L34.9368 81.6108L38.0625 79.3393L41.1882 81.6108L39.9938 77.9359L43.1211 75.6633H39.2552Z" fill="white"/>
</svg>
