<svg width="121" height="120" viewBox="0 0 121 120" fill="none" xmlns="http://www.w3.org/2000/svg">
<g clip-path="url(#clip0_307_94769)">
<path d="M102.881 17.5736L18.0287 102.426C7.17081 91.5685 0.455078 76.5685 0.455078 60C0.455078 26.8629 27.318 0 60.4551 0C77.0236 0 92.0236 6.71573 102.881 17.5736Z" fill="#1E9A1C"/>
<path d="M18.0283 102.426C28.8862 113.284 43.8862 120 60.4547 120C93.5918 120 120.455 93.1371 120.455 60C120.455 43.4315 113.739 28.4315 102.881 17.5736L18.0283 102.426Z" fill="#D91C16"/>
<path d="M115.242 35.5003L35.9556 114.786C22.5127 108.766 11.6896 97.9427 5.66895 84.4998L84.9551 5.21362C98.398 11.2343 109.221 22.0574 115.242 35.5003Z" fill="#FDD406"/>
<path d="M112.303 29.7852L30.2398 111.848C21.2979 106.626 13.8287 99.1568 8.60645 90.2149L90.6695 8.15186C99.6114 13.3741 107.081 20.8433 112.303 29.7852Z" fill="black"/>
<path d="M77.3045 23.5598L87.2538 28.5861L95.1069 20.6782L93.4017 31.6919L103.351 36.718L92.3476 38.5001L90.6422 49.5151L85.5478 39.6014L74.5453 41.3833L82.3993 33.4744L77.3045 23.5598Z" fill="white"/>
<path d="M23.7635 77.4708L33.7129 82.4971L41.5659 74.5892L39.8607 85.6029L49.8098 90.629L38.8066 92.4111L37.1012 103.426L32.0068 93.5124L21.0043 95.2944L28.8584 87.3855L23.7635 77.4708Z" fill="white"/>
</g>
<defs>
<clipPath id="clip0_307_94769">
<rect x="0.455078" width="120" height="120" fill="white"/>
</clipPath>
</defs>
</svg>
