<svg width="120" height="120" viewBox="0 0 120 120" fill="none" xmlns="http://www.w3.org/2000/svg">
<g clip-path="url(#clip0_909_101854)">
<circle cx="60" cy="60" r="60" fill="#005801"/>
<path d="M60 120C93.1371 120 120 93.1371 120 60C120 52.9873 118.797 46.2556 116.586 40H3.41411C1.20308 46.2556 0 52.9873 0 60C0 93.1371 26.8629 120 60 120Z" fill="white"/>
<path d="M116.586 80C108.349 103.304 86.1244 120 60 120C33.8756 120 11.6509 103.304 3.41412 80H116.586Z" fill="#D91C16"/>
<path d="M18.6206 103.448C7.1491 92.5198 0 77.0948 0 60C0 42.9052 7.1491 27.4802 18.6206 16.5516L45 40V80L18.6206 103.448Z" fill="black"/>
</g>
<defs>
<clipPath id="clip0_909_101854">
<rect width="120" height="120" fill="white"/>
</clipPath>
</defs>
</svg>
