<svg width="120" height="120" viewBox="0 0 120 120" fill="none" xmlns="http://www.w3.org/2000/svg">
<circle cx="60" cy="60" r="60" fill="#E23726"/>
<path d="M111.973 90C117.078 81.1748 120 70.9286 120 60C120 49.0714 117.078 38.8252 111.973 30H8.02693C2.92183 38.8252 0 49.0714 0 60C0 70.9286 2.92183 81.1748 8.02693 90H111.973Z" fill="white"/>
<path d="M58.3245 30C57.0365 32.712 54.6113 34.6074 52.2931 36.4012C51.9117 36.7342 50.9634 37.3792 51.6512 37.8702C52.2406 37.2116 53.8581 38.0838 52.9181 38.7922C52.0761 39.5802 50.9167 39.8688 49.9816 40.5192C49.1537 40.9692 48.3137 41.4388 47.6571 42.1274C47.6125 43.2034 48.9919 42.6078 49.5517 43.056C50.2807 43.8352 49.2426 45.1492 48.2858 44.8486C47.0626 44.8862 46.2179 45.9626 45.7551 46.9894C44.7983 48.469 42.9851 48.9074 41.5413 49.7494C40.7153 50.2308 39.9139 50.7636 39.1451 51.3254C38.1537 52.0034 39.0161 53.3454 40.0711 53.016C41.2097 52.9024 42.2341 52.0078 43.4131 52.2656C44.4821 52.6412 44.7821 54.0384 44.4178 55.014C44.1479 55.795 43.4939 56.3452 42.9701 56.9552C42.1195 57.817 41.007 58.3764 39.834 58.6432C38.7006 59.0238 37.6817 59.7182 36.9381 60.6558C36.0753 61.5246 35.2157 62.4074 34.2237 63.1318C33.9103 63.9314 34.7947 64.6124 35.5317 64.5912C37.0852 64.4932 38.1617 63.222 39.4847 62.5686C40.5827 62.0752 41.8747 63.2586 41.6061 64.4022C41.5211 65.515 40.4792 66.0796 39.553 66.422C36.83 67.7908 34.4657 69.776 32.3665 71.966C31.9323 72.8518 30.7385 72.591 30.0959 73.2084C29.6773 73.9896 30.7278 74.4016 31.3548 74.3214C34.0488 73.9974 36.5629 72.8586 38.9443 71.6058C39.8299 71.1824 40.6615 70.6252 41.5823 70.2878C42.4471 70.074 43.6531 70.4498 43.8077 71.4342C43.8065 72.4734 42.7771 73.0488 41.9619 73.4548C39.4479 74.7756 36.6889 75.5058 34.0019 76.379C32.9959 76.0978 32.2379 77.8876 33.3415 78.2094C34.5083 78.6094 35.7489 78.2886 36.9425 78.2362C40.6335 77.6708 43.8615 75.6736 47.3115 74.3826C48.7459 73.915 50.4389 74.5674 51.1467 75.9114C51.8579 77.1094 51.7926 78.6848 51.0426 79.8488C49.857 82.3852 48.0546 84.7164 45.635 86.1748C44.1163 86.9268 42.3435 87.2144 41.0417 88.3656C39.8377 88.7624 41.6452 90.3892 41.9064 89.098C42.6298 88.1114 43.9059 87.8164 45.0631 87.7756C46.8025 87.5864 48.6497 87.2656 50.0011 86.0616C51.2127 85.1206 52.4067 83.8226 54.0519 83.8024C54.9611 83.9102 55.8605 84.6408 56.7839 84.195C57.5919 83.825 58.8592 84.0418 59.0702 85.0352C59.456 86.1974 60.6538 86.7262 61.6038 87.348C61.9476 87.8308 63.0901 89.076 63.3535 87.9782C63.1409 87.1952 63.4447 85.997 64.4719 86.2586C65.3691 86.2986 66.2241 86.6296 67.1197 86.6838C68.312 86.9308 69.3069 87.7472 69.9841 88.733C70.4498 89.3764 71.4703 90.4816 72.2285 89.6286C72.6989 88.7464 71.8008 88.0106 71.0697 87.6956C70.0037 87.035 69.0923 86.1552 68.16 85.3222C66.786 84.039 65.5996 82.407 65.3815 80.4902C65.0858 78.5792 65.2415 76.6298 65.4909 74.7238C65.8049 73.4968 67.3741 72.8268 68.4712 73.4788C70.015 74.1832 71.5482 75.1912 73.3182 75.082C75.8758 75.137 78.5041 74.6474 81.0035 75.3884C83.4359 76.1546 85.1749 78.2072 87.5441 79.0954C88.0745 79.4178 88.753 79.111 88.9474 78.5444C89.1823 78.0354 89.0164 77.3842 88.5261 77.094C85.7801 74.3222 82.0275 72.9758 78.8503 70.81C77.8501 70.556 77.6679 68.9466 78.5926 68.482C79.8083 67.5986 81.5285 68.01 82.6068 68.9208C83.5177 69.4542 84.5439 69.854 85.6125 69.8548C86.7071 69.5122 86.1765 67.9284 85.1965 67.8092C83.4205 66.8066 82.1487 65.1612 80.6103 63.8572C79.7243 63.1072 78.7549 62.3478 77.5643 62.2024C76.9137 62.0838 76.2483 62.058 75.5889 62.1022C74.9705 61.4302 75.7945 60.4012 76.5941 60.4854C77.4145 60.5406 78.23 60.6016 79.0494 60.4874C79.9652 60.4204 80.8801 60.3256 81.7989 60.3194C82.5407 60.8244 84.0229 59.952 83.3535 59.081C82.6221 58.4402 81.5647 58.4958 80.6909 58.167C79.1565 57.6654 77.5939 57.2547 76.0113 56.937C74.9047 56.871 75.0413 55.4146 76.0139 55.2538C76.6505 55.0164 77.2039 55.5054 77.8149 55.5812C78.8585 55.8056 79.9359 55.8026 80.9789 56.03C81.8635 55.5934 81.1796 54.3014 80.3797 54.226C78.4921 53.551 76.8606 52.3328 75.2656 51.1476C73.5048 49.8234 71.9075 48.292 70.1251 46.9982C69.4783 46.5976 68.4183 46.4822 68.2483 45.594C68.1883 44.7768 69.1498 44.4048 69.8316 44.5958C70.799 44.8814 71.7003 45.3788 72.6863 45.623C73.4597 45.7546 74.2572 45.9834 75.0026 45.886C75.949 45.2912 74.5966 44.9112 74.1073 44.705C72.8456 44.0244 71.7245 43.1178 70.5889 42.253C69.6293 41.434 71.4029 41.0722 72.0129 41.3876C73.0329 41.8142 73.1491 40.328 72.3867 39.954C71.4883 39.572 70.7158 38.938 69.9012 38.3848C68.4292 37.3372 66.7625 36.5078 64.9533 36.2774C62.9247 36.0736 61.0313 34.9072 59.9551 33.1724C59.2877 32.1838 58.7979 31.0904 58.3245 30ZM51.6631 41.3802C52.7085 41.4112 52.5477 43.2956 51.5185 43.1698C50.5189 43.1054 50.5801 41.1778 51.6631 41.3802ZM61.5246 42.395C62.542 42.213 62.7575 44.0694 61.741 44.1566C60.6819 44.3462 60.2894 42.2774 61.5246 42.395ZM58.6363 42.637C59.6677 42.8398 59.4843 44.6366 58.4433 44.6522C57.6817 44.8218 56.8609 45.3416 56.0905 44.9522C55.4639 44.2894 56.3695 43.3096 57.0689 43.0942C57.6053 42.986 58.0989 42.7424 58.6363 42.637ZM65.2839 42.6448C66.2779 43.0072 65.9272 44.7618 64.8788 44.7394C63.8874 44.8724 63.4257 43.2184 64.3503 42.8262C64.6495 42.7202 64.9631 42.6308 65.2839 42.6448ZM54.0699 44.635C54.8009 45.3306 54.3691 46.673 53.4678 46.9938C52.8185 47.355 51.9328 48.2098 51.2254 47.5064C50.8414 46.6474 51.8051 46.0006 52.3719 45.5238C52.8777 45.1306 53.4359 44.7736 54.0699 44.635ZM62.4167 48.5144C63.4631 49.0084 62.9319 50.8942 61.7835 50.777C60.8403 50.538 60.9634 48.9202 61.9135 48.7912C62.093 48.7224 62.2577 48.6212 62.4167 48.5144ZM59.0965 48.7016C60.0751 49.1598 59.3279 50.793 58.3421 50.5576C57.3201 50.4376 57.3389 48.6408 58.466 48.803C58.6784 48.7926 58.8977 48.787 59.0965 48.7016ZM66.2537 49.6384C67.3263 49.3056 68.6176 50.4104 68.2696 51.5312C67.7917 52.4 66.6096 52.5098 65.7626 52.1852C64.7905 52.1372 64.1365 50.6754 65.0027 50.0564C65.3611 49.7858 65.8129 49.6744 66.2537 49.6384ZM50.4099 49.9194C51.2969 49.4368 52.2385 50.887 51.4843 51.5266C50.9846 52.2612 49.7017 52.5612 49.1361 51.7446C48.666 50.9466 49.4259 49.6064 50.4099 49.9194ZM46.3179 50.6062C47.3239 50.7438 47.9795 51.6576 48.3514 52.5278C48.442 53.588 46.8775 54.1698 46.1951 53.3984C45.4275 52.917 44.7557 51.9268 45.1581 51.0078C45.4061 50.6428 45.8999 50.4922 46.3181 50.6062H46.3179ZM70.7987 54.4386C71.8907 54.151 72.6833 55.8958 71.7457 56.527C70.8885 57.3056 69.2217 56.2742 69.6688 55.1632C69.8909 54.7512 70.3353 54.4776 70.7987 54.4386ZM56.9017 56.429C57.8173 56.5456 57.5207 58.1324 56.6741 58.079C55.7657 57.9106 55.9737 56.3396 56.9017 56.429ZM52.2577 57.272C53.0043 56.7436 53.9674 58.0332 53.3463 58.634C52.6019 59.1584 51.6363 57.8894 52.2577 57.272ZM59.6417 57.428C60.5071 57.954 61.0209 58.9346 61.1285 59.924C60.7137 60.8486 59.1117 60.6258 58.9311 59.6412C58.6145 58.8626 58.9063 57.8612 59.6415 57.4282L59.6417 57.428ZM62.2185 58.958C63.3339 58.6778 62.9334 61.0092 62.0023 60.2006C61.6926 59.833 61.8585 59.2282 62.2183 58.958H62.2185ZM46.0349 60.5814C46.7735 60.3652 47.85 60.5926 48.0538 61.4402C48.1398 62.2368 47.2639 62.6512 46.6219 62.8486C45.5933 63.1662 44.587 63.6874 43.4806 63.6174C42.6512 63.1434 42.3537 62.1734 42.0581 61.3274C42.8583 60.577 44.0368 60.7972 45.0288 60.6094C45.3638 60.5922 45.6995 60.584 46.0349 60.5814ZM71.1385 64.2344C72.0804 63.7724 73.0938 65.268 72.3052 65.9664C71.3186 67.102 69.4193 67.313 68.2393 66.359C68.0976 65.3542 69.1013 64.6242 69.9933 64.48C70.3683 64.374 70.7411 64.2158 71.1385 64.2344ZM76.4338 65.3818C77.5044 65.1976 78.3477 66.7246 77.5831 67.515C76.8597 68.606 75.1343 68.892 74.1479 67.9978C73.7632 67.0934 74.5434 66.151 75.3739 65.8608C75.7307 65.7088 76.0686 65.5142 76.4338 65.3818ZM49.8081 67.0054C50.7995 66.9074 51.7077 67.891 51.5777 68.8684C52.2953 69.5746 51.0245 70.8904 50.3095 70.159C49.6795 69.3956 49.6827 68.36 49.4387 67.4462C49.4277 67.2432 49.5781 66.9804 49.8081 67.0054ZM57.4185 67.5752C58.4435 67.132 59.7695 68.3582 59.2115 69.3962C58.8129 70.2416 57.2589 69.9582 57.3105 68.979C57.3079 68.5104 57.2701 68.03 57.4185 67.575V67.5752ZM53.716 68.2386C54.7437 68.003 55.6865 69.3352 55.1155 70.224C54.0909 70.3152 53.559 69.0992 53.716 68.2386Z" fill="#1E9A1C"/>
</svg>
