<svg width="120" height="120" viewBox="0 0 120 120" fill="none" xmlns="http://www.w3.org/2000/svg">
<g clip-path="url(#clip0_307_93603)">
<path d="M40 116.586C16.6962 108.349 0 86.1243 0 59.9999C0 33.8756 16.6962 11.6508 40 3.41406V116.586Z" fill="#0F3296"/>
<path d="M80 3.41411V116.586C73.7444 118.797 67.0127 120 60 120C52.9873 120 46.2556 118.797 40 116.586V3.41411C46.2556 1.20308 52.9873 0 60 0C67.0127 0 73.7444 1.20308 80 3.41411Z" fill="#FDD406"/>
<path d="M80 116.586C103.304 108.349 120 86.1243 120 59.9999C120 33.8756 103.304 11.6508 80 3.41406V116.586Z" fill="#D91C16"/>
<g clip-path="url(#clip1_307_93603)">
<path d="M55.1295 36.0014C54.8699 35.9896 54.6131 36.0597 54.3956 36.2016C54.6531 36.2774 54.8289 36.5145 54.8262 36.7823V37.4899H54.1169C53.8499 37.4927 53.613 37.3199 53.5346 37.0653C53.2671 37.5169 53.2671 38.0778 53.5346 38.5294C53.6106 38.2725 53.8483 38.0971 54.1169 38.0998H54.8262V41.5013C54.8282 41.7575 54.6671 41.9868 54.425 42.0722C54.7634 42.1182 55.0546 42.5712 55.1344 42.8189C55.2144 42.5717 55.5056 42.1182 55.8439 42.0722C55.5994 41.989 55.4357 41.759 55.4376 41.5013V38.0997H56.1471C56.4142 38.0969 56.6512 38.2698 56.7294 38.5244C56.9968 38.0728 56.9968 37.5119 56.7294 37.0603C56.6533 37.3171 56.4156 37.4924 56.1471 37.4896H55.4376V36.7821C55.4348 36.5158 55.6081 36.2793 55.8634 36.2013C55.6458 36.0595 55.3891 35.9896 55.1295 36.0013V36.0014Z" fill="black"/>
<path d="M55.1292 36.148C54.9863 36.1486 54.8443 36.1717 54.7085 36.2163C54.8751 36.3576 54.9716 36.5643 54.9728 36.7825V37.4901C54.9721 37.5 54.9705 37.5099 54.9678 37.5194V37.6317H54.8552C54.8456 37.6343 54.8358 37.6359 54.8259 37.6366H54.1164C53.9003 37.6352 53.6953 37.5409 53.5539 37.378C53.5066 37.513 53.4818 37.6547 53.4805 37.7977C53.4811 37.9403 53.5042 38.0819 53.5489 38.2174C53.6905 38.0513 53.8978 37.9551 54.1164 37.954H54.9726C54.9716 37.9686 54.9676 37.9828 54.9676 37.9977V38.0709C54.9702 38.0805 54.9719 38.0903 54.9726 38.1002V41.5016C54.9655 41.7087 54.8692 41.9026 54.7083 42.0336C54.814 42.0993 54.9082 42.1818 54.9872 42.2777C55.0448 42.357 55.094 42.442 55.134 42.5314C55.1741 42.442 55.2233 42.357 55.2808 42.2777C55.3588 42.184 55.4513 42.1033 55.5548 42.0385C55.393 41.9061 55.2967 41.7104 55.2905 41.5017V37.9585H55.408C55.4176 37.956 55.4274 37.9544 55.4373 37.9538H56.1467C56.3628 37.9552 56.5677 38.0494 56.7092 38.2123C56.7565 38.0774 56.7814 37.9356 56.7827 37.7927C56.7821 37.6501 56.759 37.5085 56.7142 37.373C56.5726 37.5391 56.3653 37.6353 56.1467 37.6364H55.4373C55.4274 37.6358 55.4176 37.6341 55.408 37.6315H55.2954V37.5193C55.2928 37.5097 55.2911 37.4998 55.2904 37.4899V36.7824C55.2919 36.5668 55.3864 36.3623 55.5497 36.2212C55.4144 36.1741 55.2723 36.1493 55.129 36.1479" fill="#FDD406"/>
<path d="M64.0091 48.4653C63.5946 48.1849 63.2404 47.8248 62.967 47.4062C62.3581 46.4317 62.1011 45.2353 62.1011 44.0194C62.1011 43.5055 62.6783 42.927 62.6783 42.5113C62.6821 42.1753 62.6625 41.8395 62.6196 41.5062C62.8244 41.534 63.1822 41.8965 63.1822 41.8965C63.1822 41.8965 63.1699 40.8538 62.8396 40.6717C62.8396 40.6717 62.9732 40.5346 63.4561 40.5204C63.3204 40.1776 62.649 39.7591 62.649 39.7591C62.6922 39.6919 62.7531 39.6379 62.825 39.6029C63.0107 39.5121 63.2083 39.448 63.412 39.4126C63.1887 39.3643 62.9683 39.304 62.7516 39.2319C62.1266 39.0235 61.5154 38.7758 60.9219 38.4902C60.1629 38.1105 59.3248 37.9149 58.4757 37.9193C58.134 37.9193 57.6309 37.9287 57.3359 38.1244C57.0659 38.3031 57.0879 38.5356 56.9933 38.6172C56.7707 38.8094 56.3893 38.8026 56.2056 38.8026C55.0167 38.8026 54.9727 40.0716 54.9727 40.0716C54.9727 40.0716 55.2767 39.6127 55.8141 39.6127C56.7078 39.6127 57.3846 40.0983 57.3846 40.2813C57.3846 40.3554 57.2925 40.3691 57.2868 40.3691C56.7031 40.3691 55.8222 40.0339 55.3542 40.0177V40.2471C56.3988 40.6096 57.4579 41.1229 57.4579 43.385C57.4579 44.8095 57.2869 46.263 56.5725 47.4063C56.297 47.8249 55.9412 48.1848 55.5255 48.4654L59.7673 49.228L64.0091 48.4653Z" fill="black"/>
<path d="M59.7674 47.5121L55.5258 48.4654C55.3328 48.4073 54.4255 48.126 53.7889 47.7725C52.6683 47.1498 52.0872 46.5302 50.7556 46.4694V45.4591C50.7556 44.9194 50.9514 44.4331 50.9514 43.917C50.39 43.7668 48.8319 41.8664 47.3946 41.0229C45.2796 42.3894 43.6421 44.6326 43.6421 45.6642C43.6421 45.6642 43.7056 67.8292 43.6421 75.5509C43.6421 75.9959 43.373 76.6246 43.373 76.6246C44.1451 76.2988 45.5604 74.3672 45.8584 73.633V73.9844C47.0244 73.454 47.8782 72.0603 48.2606 71.3393C48.2674 71.4435 48.2851 71.7052 48.2851 71.7052C49.3268 70.7943 50.6529 65.4098 50.6529 65.4098L52.8629 67.5763C52.8629 67.5763 52.0636 69.1945 51.7523 69.4843C51.9 69.5013 52.0487 69.5094 52.1974 69.5087C52.052 69.7173 50.941 71.3128 50.5927 71.9146C50.2669 72.4777 50.0369 72.227 49.536 72.227C49.1205 72.227 48.1789 72.8872 48.0243 73.1543C47.857 73.4275 47.7596 73.7376 47.7406 74.0572C47.7406 74.366 48.0684 74.7892 48.0684 74.7892C48.0805 74.7143 48.1145 74.6447 48.1662 74.5891C48.1662 74.5891 49.0275 75.6595 49.1544 75.7993C49.2533 75.9083 49.6939 75.9791 49.8492 75.8385C50.2378 75.4861 50.614 75.2396 50.9598 74.7307C51.1379 74.4684 51.1514 74.1679 51.356 73.8863C52.0405 72.9444 53.4026 71.1409 53.7142 70.7289C53.735 70.8435 53.7529 70.9391 53.7727 71.0558C54.1257 70.345 55.8227 68.9866 55.8227 68.9866L57.5982 69.8017C57.5982 69.8017 54.2832 77.4028 51.3407 78.5715C51.3407 78.5715 52.6209 79.114 54.193 79.9282C54.4223 80.047 54.6585 80.1746 54.8975 80.3041C55.0954 80.0664 55.3038 79.8022 55.509 79.528C56.449 78.2735 57.3683 76.8195 57.3683 76.8195C57.4323 77.1971 56.936 78.3633 56.0963 79.8016C55.9312 80.0841 55.759 80.3796 55.5679 80.6798C55.7809 80.8012 55.9923 80.9238 56.2039 81.0508C57.7612 81.9855 59.2237 83.0601 59.7655 84.0472L60.1477 83.0931L59.7655 82.1389V48.7777L59.9566 48.3011L59.7674 47.5121Z" fill="black"/>
<path d="M59.7648 82.1389C59.2154 81.5444 58.0667 80.8181 56.7756 80.1478C58.3367 77.3531 59.1102 72.9357 58.7472 72.0562C58.7472 72.0562 58.1064 74.3473 57.3234 75.6529C56.5985 76.8621 55.706 78.222 54.8431 79.2303C54.1946 78.9508 53.5315 78.7064 52.8567 78.4981C55.4426 76.5112 58.0868 69.9431 58.0868 69.9431L55.3524 68.679C55.3524 68.679 54.3294 69.8686 53.9972 70.0895C53.9972 70.0895 53.8553 69.4979 53.7721 69.2891C53.7721 69.2891 53.3802 69.5848 53.1657 69.5919C53.1657 69.5919 53.1015 69.1903 53.0531 68.928C52.7831 69.1075 52.3339 69.0696 52.3339 69.0696C52.7283 68.8833 53.195 67.7421 53.195 67.7421L50.5839 64.2775C50.5839 64.2775 49.6667 68.6738 48.6221 69.5775V50.647L49.4489 51.413L50.7013 50.2467V49.3585L49.5907 50.393V47.7138C49.7581 47.4612 49.869 47.2728 49.9528 47.1233C50.1325 47.4359 50.7135 48.3939 51.3959 48.9827C51.5082 48.5272 52.2473 48.0944 52.2473 48.0944C52.2473 48.0944 52.5121 48.8101 52.9174 48.9875C53.06 48.7369 53.9107 48.1823 53.9107 48.1823C53.9107 48.1823 53.1829 48.2926 52.8881 48.5679C52.635 48.5114 52.5701 47.5138 52.5701 47.5138C52.5701 47.5138 51.4991 48.0342 51.3128 48.4068C51.1086 48.3517 50.7906 47.55 50.6669 47.2209C50.9317 47.1915 51.1979 47.1768 51.4644 47.1771C51.7698 47.1771 52.1606 47.3214 52.57 47.5138C53.0198 47.725 53.4904 47.9925 53.9106 48.1824C54.4489 48.4255 55.2632 48.4749 55.5006 48.485C55.2156 48.6824 54.9164 48.8586 54.6054 49.0121C54.6054 49.0121 55.8871 49.0002 56.7874 48.5532C57.1147 48.3563 57.4285 48.1378 57.7267 47.8993C57.5896 48.2981 57.3807 48.6685 57.1101 48.9924C58.4324 48.8808 59.0909 48.1276 59.2775 47.8749C59.3964 48.1976 59.5612 48.5016 59.7667 48.7777H60.2446V81.1897L59.7648 82.1389Z" fill="#AD7D5A"/>
<path d="M50.0215 44.0144L50.0459 44.6196V46.401C49.5663 46.2364 48.9635 45.4503 48.6713 45.0346V44.7905C48.6777 44.6023 48.7629 44.4253 48.9061 44.3025L48.6175 44.2001C48.4756 44.3496 48.3937 44.5458 48.3875 44.7515V44.8931L47.5265 45.8155L46.6802 44.5368V44.2245C46.6802 44.0141 46.8425 43.7794 46.9787 43.6194L46.6948 43.5169C46.5516 43.702 46.4012 43.9515 46.4012 44.1855V44.4391C46.2022 44.6447 45.4277 45.4397 45.4277 45.4397C45.4277 45.4397 45.0391 44.6068 44.9336 44.3807C45.5266 43.5613 46.4881 42.6439 47.3944 41.9856C47.3944 41.9856 49.3596 43.7855 50.0215 44.0144Z" fill="#AD7D5A"/>
<path d="M45.0404 45.7422V47.2113L44.3555 47.8457V45.6642C44.375 45.4037 44.4554 45.1513 44.5902 44.9272L45.0404 45.7422Z" fill="#AD7D5A"/>
<path d="M47.1733 46.3081V47.2158L46.3857 47.9528V45.1125L47.1733 46.3081Z" fill="#AD7D5A"/>
<path d="M46.1071 47.948L45.3193 47.216V46.1522L46.1071 45.3274V47.948Z" fill="#AD7D5A"/>
<path d="M49.7025 46.845C49.5195 47.1029 49.0405 47.7336 48.5234 48.0114V45.5176C48.642 45.7144 49.1861 46.5924 49.7025 46.845Z" fill="#AD7D5A"/>
<path d="M48.2448 45.6445V47.948L47.457 47.2159V46.401L48.2448 45.6445Z" fill="#AD7D5A"/>
<path d="M45.0404 48.0991V50.3978L44.3555 49.7584V48.7384L45.0404 48.0991Z" fill="#AD7D5A"/>
<path d="M46.1062 48.8361V49.6608L45.3184 50.3927V48.104L46.1062 48.8361Z" fill="#AD7D5A"/>
<path d="M47.1723 48.1042V50.3931L46.3848 49.6561V48.8411L47.1723 48.1042Z" fill="#AD7D5A"/>
<path d="M48.2438 48.8412V49.6562L47.4561 50.3931V48.1042L48.2438 48.8412Z" fill="#AD7D5A"/>
<path d="M49.3103 50.3979L48.5225 49.6609V48.8949C48.7942 48.7295 49.0674 48.4255 49.3103 48.1042L49.3103 50.3979Z" fill="#AD7D5A"/>
<path d="M47.315 51.4129L48.1468 50.6418V69.5771C48.1468 69.5771 48.2048 70.5166 48.2446 71.1289C47.8748 71.5019 46.4834 72.9053 46.4834 72.9053V50.6367L47.315 51.4129Z" fill="#AD7D5A"/>
<path d="M46.0081 72.1978C46.0081 72.8065 44.8939 74.2258 44.3545 74.5501V50.6472L45.1764 51.4133L46.0081 50.6421V72.1978Z" fill="#AD7D5A"/>
<path d="M52.9166 70.1433L53.5233 69.7284C53.5233 69.7284 53.5637 69.9286 53.6162 70.2019C53.3564 70.5561 51.8643 72.5874 51.126 73.5789C50.9424 73.8253 50.7882 74.4524 50.7882 74.4524C50.7882 74.4524 50.5193 74.3256 50.5193 74.0963C50.5193 73.8711 50.5487 73.6033 50.5487 73.6033C50.4043 73.7501 50.2068 73.8327 50.0006 73.8327C50.0006 73.556 50.5372 73.2558 50.5584 72.8617C50.1492 73.1643 49.7939 73.009 49.3207 73.1545C48.8053 73.3129 48.6617 73.5289 48.5037 73.5206C48.4106 73.5156 48.3263 73.3554 48.3618 73.257C48.4234 73.0867 49.0608 72.6152 49.5064 72.5299C49.6132 72.5095 50.4529 72.7122 50.622 72.4519C51.3189 71.3792 52.4502 69.6379 52.5594 69.4702C52.6262 69.4576 52.6906 69.4345 52.7501 69.4016C52.7501 69.4016 52.7436 69.9498 52.9166 70.1433Z" fill="#D91C16"/>
<path d="M49.0159 73.486C49.0494 73.5225 49.0471 73.5791 49.0108 73.6128L48.7369 73.8519C48.6976 73.8824 48.641 73.8759 48.6098 73.8372C48.5761 73.8008 48.5784 73.744 48.6148 73.7103L48.8887 73.4712C48.9061 73.456 48.9292 73.4489 48.9523 73.4518C48.9769 73.4551 48.9996 73.4672 49.0159 73.486Z" fill="#D91C16"/>
<path d="M49.4314 73.7737C49.5125 73.859 49.5089 73.9937 49.4234 74.0746L49.4215 74.0763L48.7562 74.657C48.6552 74.7318 48.5125 74.7108 48.4375 74.6101C48.3707 74.5203 48.3792 74.3954 48.4577 74.3155L49.1231 73.7396C49.1562 73.7117 49.1972 73.6946 49.2405 73.6908C49.3137 73.6867 49.3845 73.7175 49.4314 73.7737Z" fill="#D91C16"/>
<path d="M49.8135 74.2229C49.8946 74.3081 49.8911 74.4427 49.8057 74.5236L49.8037 74.5255L49.1335 75.1062C49.0407 75.1804 48.9052 75.1655 48.8308 75.073L48.8301 75.0721C48.7482 74.9843 48.7527 74.8471 48.84 74.7648L49.5053 74.1889C49.5367 74.1611 49.5761 74.144 49.6179 74.14C49.6925 74.1358 49.7648 74.1665 49.8135 74.2229Z" fill="#D91C16"/>
<path d="M50.0429 74.5792C50.1153 74.5731 50.1863 74.6021 50.2337 74.6572C50.3155 74.745 50.3112 74.8822 50.224 74.9647L49.5585 75.5406C49.4573 75.6138 49.3157 75.5913 49.2423 75.4903C49.1788 75.4029 49.1862 75.2827 49.2601 75.2037L49.9304 74.6231C49.962 74.5966 50.0015 74.5811 50.0429 74.5792Z" fill="#D91C16"/>
<path d="M59.7632 47.5121L64.0048 48.4654C64.1977 48.4073 65.1051 48.126 65.7416 47.7725C66.8623 47.1498 67.4433 46.5302 68.775 46.4694V45.4591C68.775 44.9194 68.5791 44.4331 68.5791 43.917C69.1405 43.7668 70.6987 41.8664 72.136 41.0229C74.2509 42.3894 75.8885 44.6326 75.8885 45.6642C75.8885 45.6642 75.8249 67.8292 75.8885 75.5509C75.8885 75.9959 76.1575 76.6246 76.1575 76.6246C75.3854 76.2988 73.9701 74.3672 73.6722 73.633V73.9844C72.5061 73.454 71.6523 72.0603 71.27 71.3393C71.2632 71.4435 71.2454 71.7052 71.2454 71.7052C70.2037 70.7943 68.8776 65.4098 68.8776 65.4098L66.6677 67.5763C66.6677 67.5763 67.4669 69.1945 67.7783 69.4843C67.6305 69.5013 67.4819 69.5094 67.3331 69.5087C67.4786 69.7173 68.5896 71.3128 68.9378 71.9146C69.2637 72.4777 69.4936 72.227 69.9946 72.227C70.41 72.227 71.3517 72.8872 71.5063 73.1543C71.6736 73.4275 71.771 73.7376 71.7899 74.0572C71.7899 74.366 71.4621 74.7892 71.4621 74.7892C71.4501 74.7143 71.416 74.6447 71.3644 74.5891C71.3644 74.5891 70.503 75.6595 70.3761 75.7993C70.2773 75.9083 69.8366 75.9791 69.6813 75.8385C69.2927 75.4861 68.9166 75.2396 68.5707 74.7307C68.3927 74.4684 68.3791 74.1679 68.1745 73.8863C67.49 72.9444 66.1279 71.1409 65.8164 70.7289C65.7955 70.8435 65.7776 70.9391 65.7579 71.0558C65.4048 70.345 63.7078 68.9866 63.7078 68.9866L61.9324 69.8017C61.9324 69.8017 65.2473 77.4028 68.1898 78.5715C68.1898 78.5715 66.9097 79.114 65.3376 79.9282C65.1082 80.047 64.8721 80.1746 64.633 80.3041C64.4351 80.0664 64.2268 79.8022 64.0215 79.528C63.0815 78.2735 62.1622 76.8195 62.1622 76.8195C62.0982 77.1971 62.5946 78.3633 63.4342 79.8016C63.5994 80.0841 63.7716 80.3796 63.9626 80.6798C63.7496 80.8012 63.5382 80.9238 63.3266 81.0508C61.7693 81.9855 60.3069 83.0601 59.7651 84.0472L59.3828 83.0931L59.7651 82.1389V48.7777L59.5739 48.3011L59.7632 47.5121Z" fill="black"/>
<path d="M59.7649 82.1389C60.3143 81.5444 61.4631 80.8181 62.7541 80.1478C61.1931 77.3531 60.4196 72.9357 60.7825 72.0562C60.7825 72.0562 61.4233 74.3473 62.2063 75.6529C62.9313 76.8621 63.8238 78.222 64.6867 79.2303C65.3351 78.9508 65.9982 78.7064 66.6731 78.4981C64.0872 76.5112 61.443 69.9431 61.443 69.9431L64.1774 68.679C64.1774 68.679 65.2003 69.8686 65.5325 70.0895C65.5325 70.0895 65.6745 69.4979 65.7576 69.2891C65.7576 69.2891 66.1495 69.5848 66.3641 69.5919C66.3641 69.5919 66.4282 69.1903 66.4767 68.928C66.7466 69.1075 67.1958 69.0696 67.1958 69.0696C66.8014 68.8833 66.3347 67.7421 66.3347 67.7421L68.9459 64.2775C68.9459 64.2775 69.863 68.6738 70.9077 69.5775V50.647L70.0808 51.413L68.8284 50.2467V49.3585L69.939 50.393V47.7138C69.7717 47.4612 69.6607 47.2728 69.577 47.1233C69.3972 47.4359 68.8163 48.3939 68.1338 48.9827C68.0215 48.5272 67.2825 48.0944 67.2825 48.0944C67.2825 48.0944 67.0177 48.8101 66.6124 48.9875C66.4698 48.7369 65.619 48.1823 65.619 48.1823C65.619 48.1823 66.3469 48.2926 66.6416 48.5679C66.8948 48.5114 66.9597 47.5138 66.9597 47.5138C66.9597 47.5138 68.0307 48.0342 68.2169 48.4068C68.4212 48.3517 68.7391 47.55 68.8629 47.2209C68.5981 47.1915 68.3318 47.1768 68.0654 47.1771C67.7599 47.1771 67.3692 47.3214 66.9597 47.5138C66.5099 47.725 66.0393 47.9925 65.6191 48.1824C65.0809 48.4255 64.2665 48.4749 64.0291 48.485C64.3141 48.6824 64.6133 48.8586 64.9243 49.0121C64.9243 49.0121 63.6427 49.0002 62.7423 48.5532C62.415 48.3563 62.1012 48.1378 61.803 47.8993C61.9401 48.2981 62.1491 48.6685 62.4196 48.9924C61.0973 48.8808 60.4389 48.1276 60.2522 47.8749C60.1333 48.1976 59.9685 48.5016 59.763 48.7777H59.2852V81.1897L59.7649 82.1389Z" fill="#AD7D5A"/>
<path d="M69.5087 44.0145L69.4844 44.6196V46.401C69.964 46.2364 70.5668 45.4503 70.859 45.0346V44.7905C70.8526 44.6023 70.7674 44.4253 70.6242 44.3025L70.9128 44.2002C71.0547 44.3496 71.1365 44.5458 71.1428 44.7515V44.8931L72.0037 45.8155L72.8501 44.5369V44.2246C72.8501 44.0141 72.6878 43.7794 72.5516 43.6194L72.8355 43.5169C72.9787 43.7021 73.1291 43.9515 73.1291 44.1855V44.4391C73.3281 44.6447 74.1026 45.4397 74.1026 45.4397C74.1026 45.4397 74.4912 44.6068 74.5967 44.3807C74.0037 43.5613 73.0422 42.6439 72.1359 41.9856C72.1359 41.9856 70.1706 43.7855 69.5087 44.0145Z" fill="#AD7D5A"/>
<path d="M74.4893 45.7422V47.2113L75.1742 47.8457V45.6642C75.1546 45.4037 75.0742 45.1513 74.9394 44.9272L74.4893 45.7422Z" fill="#AD7D5A"/>
<path d="M72.3564 46.3081V47.2158L73.144 47.9528V45.1125L72.3564 46.3081Z" fill="#AD7D5A"/>
<path d="M73.4229 47.948L74.2106 47.216V46.1522L73.4229 45.3274V47.948Z" fill="#AD7D5A"/>
<path d="M69.8271 46.845C70.0101 47.1029 70.4891 47.7336 71.0062 48.0114V45.5176C70.8876 45.7144 70.3435 46.5924 69.8271 46.845Z" fill="#AD7D5A"/>
<path d="M71.2852 45.6445V47.948L72.0729 47.2159V46.401L71.2852 45.6445Z" fill="#AD7D5A"/>
<path d="M74.4893 48.0991V50.3978L75.1742 49.7584V48.7384L74.4893 48.0991Z" fill="#AD7D5A"/>
<path d="M73.4238 48.8363V49.661L74.2117 50.393V48.1042L73.4238 48.8363Z" fill="#AD7D5A"/>
<path d="M72.3574 48.1042V50.3931L73.145 49.6561V48.8411L72.3574 48.1042Z" fill="#AD7D5A"/>
<path d="M71.2861 48.8412V49.6562L72.0739 50.3931V48.1042L71.2861 48.8412Z" fill="#AD7D5A"/>
<path d="M70.2197 50.3979L71.0076 49.6609V48.8949C70.7359 48.7295 70.4627 48.4255 70.2198 48.1042L70.2197 50.3979Z" fill="#AD7D5A"/>
<path d="M72.2157 51.4129L71.384 50.6418V69.5771C71.384 69.5771 71.326 70.5166 71.2861 71.1289C71.656 71.5019 73.0474 72.9053 73.0474 72.9053V50.6367L72.2157 51.4129Z" fill="#AD7D5A"/>
<path d="M73.5215 72.1978C73.5215 72.8065 74.6357 74.2258 75.1751 74.5501V50.6472L74.3532 51.4133L73.5215 50.6421V72.1978Z" fill="#AD7D5A"/>
<path d="M66.6136 70.1433L66.007 69.7284C66.007 69.7284 65.9665 69.9286 65.9141 70.2019C66.1738 70.5561 67.6659 72.5874 68.4043 73.5789C68.5879 73.8253 68.742 74.4524 68.742 74.4524C68.742 74.4524 69.0109 74.3256 69.0109 74.0963C69.0109 73.8711 68.9815 73.6033 68.9815 73.6033C69.1259 73.7501 69.3234 73.8327 69.5296 73.8327C69.5296 73.556 68.9931 73.2558 68.9719 72.8617C69.381 73.1643 69.7363 73.009 70.2096 73.1545C70.725 73.3129 70.8685 73.5289 71.0266 73.5206C71.1197 73.5156 71.204 73.3554 71.1684 73.257C71.1069 73.0867 70.4694 72.6152 70.0238 72.5299C69.917 72.5095 69.0774 72.7122 68.9082 72.4519C68.2113 71.3792 67.08 69.6379 66.9709 69.4702C66.904 69.4576 66.8397 69.4345 66.7802 69.4016C66.7802 69.4016 66.7866 69.9498 66.6136 70.1433Z" fill="#D91C16"/>
<path d="M70.514 73.486C70.4804 73.5225 70.4827 73.5791 70.519 73.6128L70.7929 73.8519C70.8322 73.8824 70.8888 73.8759 70.92 73.8372C70.9537 73.8008 70.9515 73.744 70.9151 73.7103L70.6412 73.4712C70.6237 73.456 70.6006 73.4489 70.5776 73.4518C70.5529 73.4551 70.5303 73.4672 70.514 73.486Z" fill="#D91C16"/>
<path d="M70.0986 73.7737C70.0175 73.859 70.0211 73.9937 70.1066 74.0746L70.1084 74.0763L70.7738 74.657C70.8748 74.7318 71.0175 74.7108 71.0925 74.6101C71.1593 74.5203 71.1507 74.3954 71.0722 74.3155L70.4069 73.7396C70.3737 73.7117 70.3327 73.6946 70.2895 73.6908C70.2163 73.6867 70.1455 73.7175 70.0986 73.7737Z" fill="#D91C16"/>
<path d="M69.7168 74.2229C69.6357 74.3081 69.6392 74.4427 69.7246 74.5236L69.7266 74.5255L70.3968 75.1062C70.4896 75.1804 70.6251 75.1655 70.6995 75.073L70.7002 75.0721C70.7821 74.9843 70.7777 74.8471 70.6903 74.7648L70.025 74.1889C69.9936 74.1611 69.9542 74.144 69.9124 74.14C69.8379 74.1358 69.7656 74.1665 69.7168 74.2229Z" fill="#D91C16"/>
<path d="M69.4878 74.5792C69.4153 74.5731 69.3443 74.6021 69.2969 74.6572C69.2151 74.745 69.2194 74.8822 69.3067 74.9647L69.9721 75.5406C70.0734 75.6138 70.2149 75.5913 70.2883 75.4903C70.3519 75.4029 70.3444 75.2827 70.2706 75.2037L69.6003 74.6231C69.5686 74.5966 69.5291 74.5811 69.4878 74.5792Z" fill="#D91C16"/>
<path d="M58.7843 38.2317C59.8793 38.2317 60.6495 38.7297 61.6857 39.1881C61.9572 39.3082 62.2065 39.4056 62.4291 39.4809C62.3083 39.5731 62.2124 39.6939 62.1502 39.8324C62.1502 39.8324 62.6146 39.9182 62.8253 40.3059C62.8253 40.3059 62.3838 40.3558 62.3116 40.6132C62.559 40.6318 62.8047 40.9428 62.8058 41.2429L62.1796 41.0475C62.2759 41.5297 62.3267 42.0199 62.3312 42.5116C62.3312 42.9011 61.7687 43.3595 61.7687 44.0196C61.7687 46.0915 62.2919 46.8879 62.6641 47.5284C62.8096 47.779 62.9279 48.0674 63.1729 48.2848C62.1008 47.7154 61.3039 47.0037 61.3039 46.3426V43.8391H61.0251V46.3426C61.0251 46.822 61.1424 47.0454 61.1424 47.0454C61.3107 47.5758 61.651 48.3945 61.8617 48.7241C60.8753 48.1924 60.3743 47.5265 60.3743 47.2796V43.839H60.0954V47.3283L60.1492 47.5674C60.0297 47.7466 59.8743 47.9588 59.7676 48.031C59.6612 47.9589 59.5105 47.7463 59.3908 47.5674L59.4447 47.3283V43.839H59.1658V47.2796C59.1658 47.5264 58.6648 48.1924 57.6785 48.7241C57.8892 48.3944 58.2293 47.5758 58.3975 47.0454C58.3975 47.0454 58.515 46.8221 58.515 46.3426V43.8391H58.2361V46.3426C58.2361 47.0029 57.4422 47.7158 56.3721 48.2848C56.6145 48.0672 56.7311 47.7776 56.8759 47.5284C57.2828 46.8279 57.7859 45.938 57.7859 43.4046C57.7859 42.4538 57.6449 41.8074 57.3994 41.355C57.3248 41.2057 57.2242 40.8083 57.7956 40.8083C58.0916 40.8083 58.7693 41.3306 58.7693 41.3306C58.7422 41.0704 58.6074 40.8333 58.3974 40.6766C58.3108 40.6085 58.256 40.5079 58.2459 40.3983C58.2852 40.2516 58.3798 40.1257 58.5099 40.0469C58.5895 40.0109 57.3456 39.7947 57.3456 39.232C57.3456 39.1148 57.4195 39.0367 57.6781 39.0367C58.0169 39.0367 58.568 39.4418 59.0579 39.4418C59.42 39.4418 59.5628 39.3539 59.9336 39.3539C60.3868 39.3539 61.3322 40.2099 61.6556 40.1786C61.2941 39.9522 60.7101 39.0952 59.826 39.0952C59.5191 39.0952 59.2414 39.1635 58.955 39.1635C58.5879 39.1635 58.2265 38.8267 57.8298 38.8267C57.5639 38.8267 57.267 38.8415 57.223 38.773C57.1461 38.6533 57.2154 38.5839 57.2866 38.4851C57.4213 38.2985 57.7995 38.2444 58.1723 38.2314C58.2841 38.2275 58.3957 38.2256 58.5003 38.2266C58.6045 38.2277 58.701 38.2317 58.7843 38.2317Z" fill="#AD7D5A"/>
<path d="M55.2287 39.5715C55.4028 39.2911 55.7137 39.1246 56.0443 39.1348C56.2886 39.1348 57.0948 39.1179 57.0948 39.1179C57.2022 39.3964 57.692 39.8617 57.692 40.3456C57.692 40.3456 57.1948 39.4517 55.8071 39.4517C55.6077 39.4486 55.4102 39.4895 55.2285 39.5714L55.2287 39.5715Z" fill="#D91C16"/>
<path d="M57.4848 40.516C57.4848 40.516 57.1892 40.8266 57.1249 40.9924C56.8324 40.8818 56.3223 40.3574 56.3223 40.3574C56.3223 40.3574 56.7547 40.6093 57.4847 40.5161L57.4848 40.516Z" fill="#D91C16"/>
<path d="M57.0168 39.6934C57.0168 39.6934 56.6758 39.5844 56.6758 39.4702C56.6758 39.3247 56.8414 39.3247 56.9404 39.4381C56.9875 39.5152 57.0138 39.6032 57.0167 39.6935L57.0168 39.6934Z" fill="black"/>
<path d="M58.6069 40.4134C58.9961 40.4134 59.3115 40.1746 59.3115 39.8799C59.3115 39.5853 58.9961 39.3464 58.6069 39.3464C58.2178 39.3464 57.9023 39.5853 57.9023 39.8799C57.9023 40.1746 58.2178 40.4134 58.6069 40.4134Z" fill="black"/>
<path d="M58.6066 40.3681C58.8768 40.3681 59.0959 40.1496 59.0959 39.88C59.0959 39.6104 58.8768 39.3918 58.6066 39.3918C58.3363 39.3918 58.1172 39.6104 58.1172 39.88C58.1172 40.1496 58.3363 40.3681 58.6066 40.3681Z" fill="#FDD406"/>
<path d="M58.6061 40.1038C58.7299 40.1038 58.8303 40.0037 58.8303 39.8802C58.8303 39.7566 58.7299 39.6565 58.6061 39.6565C58.4822 39.6565 58.3818 39.7566 58.3818 39.8802C58.3818 40.0037 58.4822 40.1038 58.6061 40.1038Z" fill="black"/>
<path d="M50.7008 74.9636L52.2492 75.8062L51.8736 77.5249L50.3252 76.6822L50.7008 74.9636Z" fill="black"/>
<path d="M43.4884 58.4504L42.9307 58.7043L49.232 72.4718H49.9023L43.4884 58.4504ZM50.92 74.687L50.4651 75.1555L50.7488 75.7802L51.3016 75.5264L50.92 74.687Z" fill="black"/>
<path d="M45.4464 69.3057C45.4464 69.3057 45.9772 70.3993 46.3806 70.5492C46.1719 70.4925 45.4946 70.7405 45.4946 70.7405C45.4946 70.7405 46.6891 71.8048 47.7022 71.8747C48.5613 71.9337 48.9785 71.506 48.9785 71.506L48.8064 70.598C48.4337 70.1825 47.9643 69.8647 47.4396 69.6727C46.5896 69.3774 45.4463 69.3059 45.4463 69.3059L45.4464 69.3057Z" fill="black"/>
<path d="M49.4473 67.3467C49.4473 67.3467 48.7144 67.9725 48.5138 68.6974C48.3131 69.4224 48.6445 70.2462 48.6445 70.2462L49.2603 71.3922C49.2603 71.3922 50.1139 70.9391 50.4769 70.2616C50.84 69.584 50.7069 68.6698 50.7069 68.6698C50.7069 68.6698 50.0307 68.9209 49.9447 69.032C50.0874 68.2804 49.4472 67.3467 49.4472 67.3467L49.4473 67.3467Z" fill="black"/>
<path d="M47.0913 67.054C47.0913 67.054 46.2578 67.3351 45.4483 67.2864C44.6773 67.24 44.0361 66.5942 44.0361 66.5942C44.0361 66.5942 44.6753 66.1627 44.9908 66.2202C44.6438 66.0937 44.1406 65.2266 44.1406 65.2266C44.1406 65.2266 44.8556 65.011 45.4896 65.2494C46.1236 65.488 46.6765 66.1808 46.6765 66.1808L47.0914 67.054H47.0913Z" fill="black"/>
<path d="M47.3788 62.993C47.3788 62.993 47.7957 63.854 47.6969 64.1533C47.8262 63.954 48.3156 63.6437 48.3156 63.6437C48.3156 63.6437 48.6115 65.0378 48.3285 65.8988C48.0456 66.7598 47.1842 67.0876 47.1842 67.0876L46.2339 65.2442C46.2339 65.2442 46.0925 64.5613 46.3888 64.0205C46.6851 63.4797 47.3788 62.9929 47.3788 62.9929L47.3788 62.993Z" fill="black"/>
<path d="M41.9552 60.7137C41.9552 60.7137 42.8561 60.6193 43.6803 60.9599C44.3693 61.2452 44.5805 61.7638 44.5805 61.7638L44.9199 62.6713C44.9199 62.6713 43.9392 63.0382 43.1645 62.7577C42.3896 62.477 41.8203 61.5489 41.8203 61.5489C41.8203 61.5489 42.3618 61.3441 42.5679 61.4209C42.2677 61.2884 41.9554 60.7137 41.9554 60.7137V60.7138L41.9552 60.7137Z" fill="black"/>
<path d="M44.7887 59.029C44.7887 59.029 45.184 59.5355 45.1959 60.118C45.3013 59.8083 45.7949 59.466 45.7949 59.466C45.7949 59.466 46.3026 60.6915 46.1911 61.5615C46.0797 62.4317 45.3493 62.9464 45.3493 62.9464L44.4384 61.2217C44.4384 61.2217 44.1416 60.5148 44.229 59.9665C44.3166 59.4183 44.7887 59.0288 44.7887 59.0288L44.7887 59.029Z" fill="black"/>
<path d="M41.6683 55.7307C41.6683 55.7307 41.505 56.6701 41.7829 57.2112C42.0312 57.694 42.1892 57.7999 42.1892 57.7999C41.7158 57.4883 41 57.4614 41 57.4614C41 57.4614 41.2548 58.4834 41.8636 58.9497C42.4725 59.416 43.4114 59.307 43.4114 59.307C43.4114 59.307 44.0287 58.4872 43.9857 57.6039C43.9428 56.7207 43.2395 55.7739 43.2395 55.7739C43.2395 55.7739 42.9622 56.3478 42.9377 56.7762C42.7583 56.3345 41.6681 55.7308 41.6681 55.7308L41.6683 55.7307Z" fill="black"/>
<path d="M49.0275 71.4667L49.0529 71.8039C49.6143 71.8091 49.6979 71.7534 49.8419 71.9299C49.9807 72.0855 50.2051 72.1325 50.3949 72.0457C50.6249 71.9396 50.7264 71.6685 50.6224 71.4379C50.5177 71.2092 50.3045 71.1596 50.0991 71.2C49.9731 71.2248 49.8901 71.3252 49.7832 71.3803C49.5798 71.4853 49.0273 71.4668 49.0273 71.4668L49.0275 71.4667Z" fill="black"/>
<path d="M48.9786 71.2093L49.2518 71.409C48.9587 71.887 48.8673 71.9282 48.9411 72.1436C48.9998 72.3435 48.921 72.5582 48.7467 72.6729C48.5345 72.8112 48.2503 72.7535 48.1093 72.5435C47.9704 72.3337 48.041 72.1273 48.1842 71.9748C48.2721 71.8812 48.4011 71.8642 48.5046 71.8029C48.7017 71.6864 48.9785 71.2092 48.9785 71.2092L48.9786 71.2093Z" fill="black"/>
<path d="M47.0764 67.2055L47.1016 67.5427C47.6631 67.5478 47.7467 67.4922 47.8906 67.6686C48.0295 67.8241 48.2538 67.8711 48.4437 67.7844C48.6737 67.6784 48.7752 67.4072 48.671 67.1767C48.5664 66.9479 48.3532 66.8984 48.1479 66.9388C48.0217 66.9636 47.9389 67.0639 47.832 67.119C47.6286 67.224 47.0762 67.2056 47.0762 67.2056L47.0764 67.2055Z" fill="black"/>
<path d="M47.1901 67.3247L47.4291 67.5647C47.065 67.9912 46.968 68.0178 47.0075 68.2419C47.0344 68.4485 46.923 68.6485 46.7328 68.7347C46.5017 68.8385 46.23 68.7373 46.1235 68.5079C46.0189 68.2792 46.1208 68.0861 46.2861 67.9578C46.3875 67.8791 46.5178 67.8822 46.6294 67.8379C46.8423 67.7533 47.1901 67.3248 47.1901 67.3248L47.1901 67.3247Z" fill="black"/>
<path d="M45.1866 63.2161L45.2119 63.5533C45.7735 63.5584 45.857 63.5028 46.0011 63.6794C46.1401 63.8348 46.3643 63.8817 46.5542 63.795C46.7842 63.6888 46.8855 63.4177 46.7816 63.1871C46.6767 62.9584 46.4637 62.9088 46.2582 62.9493C46.1321 62.9741 46.0492 63.0744 45.9423 63.1295C45.7389 63.2346 45.1865 63.216 45.1865 63.216L45.1866 63.2161Z" fill="black"/>
<path d="M45.3424 63.1455L45.5813 63.3854C45.2172 63.812 45.1204 63.8386 45.1597 64.0627C45.1866 64.2692 45.0752 64.4692 44.8851 64.5554C44.654 64.6591 44.3823 64.558 44.2758 64.3286C44.1712 64.0999 44.2732 63.9067 44.4384 63.7785C44.5397 63.6997 44.67 63.7029 44.7818 63.6584C44.9947 63.5738 45.3424 63.1455 45.3424 63.1455Z" fill="black"/>
<path d="M43.1721 59.0042L43.1973 59.3413C43.7589 59.3465 43.8425 59.2908 43.9863 59.4672C44.1252 59.6227 44.3495 59.6698 44.5395 59.5832C44.7694 59.477 44.8709 59.2059 44.7669 58.9753C44.6623 58.7465 44.449 58.6969 44.2436 58.7374C44.1176 58.7623 44.0347 58.8627 43.9277 58.9177C43.7244 59.0226 43.1719 59.0042 43.1719 59.0042H43.1721Z" fill="black"/>
<path d="M43.3288 58.9338L43.5675 59.1738C43.2036 59.6004 43.1066 59.6269 43.146 59.8511C43.1729 60.0577 43.0615 60.2575 42.8715 60.3439C42.6404 60.4476 42.3686 60.3465 42.2622 60.1171C42.1575 59.8884 42.2596 59.695 42.4246 59.5669C42.5261 59.4883 42.6563 59.4913 42.7681 59.4468C42.9808 59.3623 43.3287 58.9339 43.3287 58.9339L43.3288 58.9338Z" fill="black"/>
<path d="M50.9235 75.4507L51.8838 75.9732L51.6508 77.0393L50.6904 76.5168L50.9235 75.4507Z" fill="#FDD406"/>
<path d="M46.7194 66.2063C46.5181 66.2896 46.2196 65.4155 46.0004 64.9367C45.7755 64.4453 45.3189 63.6879 45.4486 63.6288C45.5909 63.5639 45.7784 63.9617 46.0085 64.4645C46.2386 64.9672 46.908 66.1279 46.7194 66.2061L46.7194 66.2063Z" fill="#FDD406"/>
<path d="M44.6528 61.6029C44.4516 61.6865 44.2313 61.1142 44.0122 60.6352C43.7873 60.1439 43.5682 59.7968 43.6979 59.7377C43.8403 59.6729 44.0506 60.1035 44.2346 60.5056C44.413 60.8953 44.8413 61.5247 44.6527 61.603L44.6528 61.6029Z" fill="#FDD406"/>
<path d="M49.435 72.0406C49.277 72.0827 48.5874 70.6429 48.0299 69.4245C47.4724 68.2063 47.0573 67.2206 47.187 67.1618C47.3294 67.0969 47.7807 68.2477 48.3385 69.4661C48.8961 70.6845 49.5534 72.0088 49.4351 72.0406L49.435 72.0406Z" fill="#FDD406"/>
<path d="M50.2061 71.8784C50.3436 71.8784 50.4551 71.7672 50.4551 71.63C50.4551 71.4928 50.3436 71.3816 50.2061 71.3816C50.0685 71.3816 49.957 71.4928 49.957 71.63C49.957 71.7672 50.0685 71.8784 50.2061 71.8784Z" fill="#FDD406"/>
<path d="M48.4922 72.541C48.6297 72.541 48.7412 72.4298 48.7412 72.2926C48.7412 72.1554 48.6297 72.0442 48.4922 72.0442C48.3547 72.0442 48.2432 72.1554 48.2432 72.2926C48.2432 72.4298 48.3547 72.541 48.4922 72.541Z" fill="#FDD406"/>
<path d="M48.2539 67.6141C48.3915 67.6141 48.503 67.5028 48.503 67.3656C48.503 67.2284 48.3915 67.1172 48.2539 67.1172C48.1164 67.1172 48.0049 67.2284 48.0049 67.3656C48.0049 67.5028 48.1164 67.6141 48.2539 67.6141Z" fill="#FDD406"/>
<path d="M46.541 68.5664C46.6785 68.5664 46.79 68.4552 46.79 68.318C46.79 68.1808 46.6785 68.0696 46.541 68.0696C46.4035 68.0696 46.292 68.1808 46.292 68.318C46.292 68.4552 46.4035 68.5664 46.541 68.5664Z" fill="#FDD406"/>
<path d="M46.3643 63.6257C46.5018 63.6257 46.6133 63.5145 46.6133 63.3773C46.6133 63.2401 46.5018 63.1289 46.3643 63.1289C46.2267 63.1289 46.1152 63.2401 46.1152 63.3773C46.1152 63.5145 46.2267 63.6257 46.3643 63.6257Z" fill="#FDD406"/>
<path d="M44.6924 64.3872C44.8299 64.3872 44.9414 64.276 44.9414 64.1388C44.9414 64.0016 44.8299 63.8904 44.6924 63.8904C44.5549 63.8904 44.4434 64.0016 44.4434 64.1388C44.4434 64.276 44.5549 64.3872 44.6924 64.3872Z" fill="#FDD406"/>
<path d="M44.3506 59.4147C44.4882 59.4147 44.5997 59.3034 44.5997 59.1662C44.5997 59.029 44.4882 58.9177 44.3506 58.9177C44.2131 58.9177 44.1016 59.029 44.1016 59.1662C44.1016 59.3034 44.2131 59.4147 44.3506 59.4147Z" fill="#FDD406"/>
<path d="M42.6788 60.1759C42.8163 60.1759 42.9279 60.0646 42.9279 59.9274C42.9279 59.7902 42.8163 59.679 42.6788 59.679C42.5412 59.679 42.4297 59.7902 42.4297 59.9274C42.4297 60.0646 42.5412 60.1759 42.6788 60.1759Z" fill="#FDD406"/>
<path d="M41.9461 56.3018C41.9461 56.3018 41.9217 56.9882 42.1493 57.3776C42.3771 57.7671 42.8856 57.9224 42.8856 57.9224C42.8856 57.9224 42.9099 57.2361 42.6822 56.8468C42.4545 56.4572 41.9461 56.3018 41.9461 56.3018Z" fill="#005801"/>
<path d="M41.4697 57.8547C41.4697 57.8547 42.0675 57.8898 42.4128 58.1537C42.7578 58.4176 42.8915 58.9673 42.8915 58.9673C42.6258 58.9812 42.3636 58.9021 42.1503 58.7436C41.8052 58.4796 41.4697 57.8547 41.4697 57.8547Z" fill="#005801"/>
<path d="M43.3462 56.4685C43.2242 56.7684 43.1643 57.0898 43.1703 57.4134C43.1932 57.9037 43.48 58.456 43.48 58.456C43.48 58.456 43.7392 57.8675 43.7164 57.3771C43.6937 56.8868 43.4157 56.6073 43.3462 56.4685Z" fill="#005801"/>
<path d="M42.3398 60.888C42.5394 61.15 42.7937 61.3656 43.0852 61.5196C43.537 61.7424 44.2103 61.7507 44.2103 61.7507C43.9939 61.4816 43.726 61.258 43.4223 61.0929C42.9705 60.8701 42.3398 60.8878 42.3398 60.8878L42.3398 60.888Z" fill="#005801"/>
<path d="M42.4845 61.8376C42.4845 61.8376 42.7002 62.2591 43.0946 62.4397C43.4892 62.6205 44.2962 62.6056 44.2962 62.6056C44.1033 62.3681 43.8637 62.1726 43.5921 62.0311C43.1976 61.8502 42.4844 61.8376 42.4844 61.8376L42.4845 61.8376Z" fill="#005801"/>
<path d="M44.7562 59.5896C44.6125 59.8411 44.5383 60.1262 44.5411 60.4157C44.5645 60.849 44.8495 61.3224 44.8495 61.3224C44.8495 61.3224 45.0499 60.7797 45.0265 60.3465C45.0065 60.0745 44.9131 59.8129 44.7561 59.5896H44.7562Z" fill="#005801"/>
<path d="M45.6345 60.1455C45.6345 60.1455 45.2265 60.6918 45.168 61.2533C45.1094 61.8148 45.4 62.3918 45.4 62.3918C45.4 62.3918 45.8928 61.8981 45.9514 61.3367C46.01 60.775 45.6345 60.1457 45.6345 60.1457L45.6345 60.1455Z" fill="#005801"/>
<path d="M44.5098 65.3314C44.5547 65.4832 44.6293 65.6247 44.7293 65.7477C44.8685 65.9096 45.0233 66.0574 45.1915 66.1893C45.398 66.134 45.6147 66.129 45.8236 66.1745C46.1739 66.2503 46.6398 66.5615 46.6398 66.5615C46.6398 66.5615 46.1383 65.815 45.6177 65.5247C45.2767 65.3496 44.8903 65.2821 44.51 65.3313L44.5098 65.3314Z" fill="#005801"/>
<path d="M44.4581 66.6145C44.4581 66.6145 45.1073 66.3378 45.6419 66.4092C46.1766 66.4806 46.6587 66.9022 46.6587 66.9022C46.6587 66.9022 45.9361 67.1516 45.4015 67.0803C45.0492 67.0171 44.722 66.8556 44.458 66.6145H44.4581Z" fill="#005801"/>
<path d="M47.2016 63.604C47.2016 63.604 46.6275 64.2107 46.5793 64.7372C46.5313 65.2636 47.0449 65.7543 47.0449 65.7543C47.0312 65.5653 47.0527 65.3755 47.108 65.1943C47.1812 65.0305 47.274 64.8761 47.3845 64.7346C47.43 64.5761 47.4466 64.4107 47.4336 64.2462C47.3897 64.0216 47.3115 63.805 47.2016 63.604Z" fill="#005801"/>
<path d="M48.0255 64.3066C48.0255 64.3066 47.4844 64.8528 47.3414 65.4376C47.1984 66.0225 47.4533 66.646 47.4533 66.646C47.4533 66.646 47.9453 66.2588 48.0884 65.674C48.2315 65.0892 48.0254 64.3066 48.0254 64.3066L48.0255 64.3066Z" fill="#005801"/>
<path d="M49.3811 67.8319C49.5223 68.1303 49.6255 68.4452 49.6883 68.7693C49.7506 69.1961 49.6929 69.3438 49.6929 69.3438C49.6929 69.3438 49.4395 69.5923 49.3258 69.7385C49.1798 69.9263 49.1584 70.27 49.1584 70.27C49.1584 70.27 48.6495 69.5154 48.7279 68.9637C48.8063 68.4122 49.3811 67.8318 49.3811 67.8318L49.3811 67.8319Z" fill="#005801"/>
<path d="M50.4533 69.013C50.4533 69.013 49.8017 69.4423 49.5432 69.8827C49.3894 70.1531 49.3448 70.4719 49.4186 70.774C49.7202 70.7312 49.9861 70.5543 50.1416 70.2929C50.4002 69.8527 50.4532 69.0129 50.4532 69.0129L50.4533 69.013Z" fill="#005801"/>
<path d="M46.172 70.8263C46.172 70.8263 47.111 70.8007 47.685 70.9415C48.259 71.0821 48.4679 71.3891 48.4679 71.3891C48.4679 71.3891 47.8225 71.6905 47.2485 71.5498C46.6746 71.4092 46.1719 70.8262 46.1719 70.8262L46.172 70.8263Z" fill="#005801"/>
<path d="M46.0127 69.7147C46.0127 69.7147 46.4364 70.3699 46.9841 70.6077C47.7389 70.9351 48.6128 70.7764 48.6128 70.7764C48.6128 70.7764 48.138 70.196 47.4847 69.9397C46.8312 69.6836 46.0127 69.7148 46.0127 69.7148L46.0127 69.7147Z" fill="#005801"/>
<path d="M78.1641 56.8502L78.2865 57.1088C78.1649 57.1543 78.0628 57.2405 77.9977 57.3527C77.9079 57.5288 78.0565 57.7774 78.0565 57.7774C78.0565 57.7774 77.024 57.6875 76.8628 57.7921C76.7167 57.8865 76.9246 58.5999 76.8284 59.2025C76.6945 60.0423 76.3625 59.9718 76.349 60.1345C76.3358 60.2927 76.4762 60.5396 76.4762 60.5396C76.4762 60.5396 76.2826 60.6004 76.2413 60.6811C76.1749 60.811 76.2875 61.0505 76.2071 61.2081C75.7579 62.0873 75.0946 63.3851 74.6562 64.2437C74.5949 64.3635 74.4304 64.4093 74.3479 64.5707C74.3045 64.6881 74.2994 64.8162 74.3333 64.9366C74.3333 64.9366 74.0426 64.954 73.9418 65.1514C73.8784 65.3077 73.863 65.4793 73.8978 65.6443C73.7803 65.6651 73.6791 65.739 73.6237 65.8444C73.5272 66.0332 73.6906 66.1323 73.6484 66.2153C73.0589 67.369 72.3646 68.7289 71.9409 69.5583C71.785 69.8633 71.2396 69.9244 70.9231 70.5441C70.742 70.8852 70.7948 71.3029 71.0552 71.5884C71.0552 71.5884 70.5991 71.6296 70.478 71.8667C70.3545 72.1084 70.4522 72.4753 70.7813 72.6426C71.1104 72.8098 71.4701 72.6744 71.5936 72.4328C71.7147 72.1957 71.4712 71.8032 71.4712 71.8032C71.8565 71.8421 72.2254 71.6376 72.3958 71.2907C72.7124 70.671 72.4455 70.2001 72.6013 69.895C73.0251 69.0656 73.7194 67.7058 74.3088 66.552C74.3513 66.469 74.5255 66.5409 74.6219 66.352C74.6748 66.246 74.6748 66.1213 74.6219 66.0153C74.7772 65.9459 74.9083 65.832 74.9987 65.6882C75.0996 65.4908 74.9449 65.2442 74.9449 65.2442C75.0627 65.2021 75.1639 65.1235 75.2335 65.0198C75.3159 64.8584 75.2553 64.7004 75.3166 64.5804C75.7552 63.7219 76.4186 62.424 76.8676 61.545C76.9481 61.3872 77.2073 61.3333 77.2736 61.2033C77.3149 61.1226 77.2493 60.93 77.2493 60.93C77.2493 60.93 77.5348 60.9018 77.6552 60.7982C77.7793 60.6916 77.5275 60.463 78.1299 59.8612C78.5621 59.4296 79.2593 59.1756 79.2502 59.0023C79.2401 58.8107 78.5604 58.0312 78.5604 58.0312C78.5604 58.0312 78.8472 58.0071 78.9371 57.8312C78.99 57.7113 79.0004 57.577 78.9665 57.4504L79.2502 57.4016L79.2502 56.0596L78.1641 56.8502ZM68.7854 75.5419C68.7386 75.6355 68.7386 75.7457 68.7854 75.8394C68.7854 75.8394 68.443 75.7326 68.3256 75.7906C68.2149 75.8452 68.3256 77.4548 68.3256 77.4548C68.3256 77.4548 69.6917 76.5951 69.6709 76.4739C69.6489 76.345 69.3627 76.1274 69.3627 76.1274C69.4652 76.1116 69.5542 76.0483 69.6024 75.9566C69.6474 75.8685 69.6534 75.6165 69.3431 75.4587C69.2506 75.4074 69.1453 75.3838 69.0397 75.3905C68.9354 75.3971 68.8408 75.4535 68.7854 75.5419Z" fill="black"/>
<path d="M78.4131 56.9043L79.0588 57.2313L79.0492 56.4553L78.4131 56.9043Z" fill="#FDD406"/>
<path d="M78.1637 57.3728C78.0498 57.5442 78.0969 57.7753 78.2688 57.8889C78.4407 58.0024 78.6723 57.9555 78.7861 57.784C78.9 57.6126 78.8529 57.3815 78.681 57.268C78.6688 57.2599 78.6562 57.2526 78.6431 57.246C78.5783 57.2125 78.5056 57.1973 78.4327 57.202C78.319 57.2072 78.2166 57.2722 78.1637 57.3728Z" fill="#FDD406"/>
<path d="M77.0529 57.9635C76.9849 58.0073 77.0773 58.5874 77.0578 59.0809C77.0392 59.5463 76.8899 59.6774 76.8082 59.8373C76.7328 59.985 76.4609 60.1595 76.4609 60.1595L76.6859 60.384C76.6859 60.384 76.8323 60.1565 77.0626 59.7054C77.3343 59.1736 77.3255 58.2099 77.4052 58.1585C77.6138 58.0853 77.8261 58.0234 78.0413 57.973C78.0413 57.973 77.5212 57.9449 77.234 57.9487C77.1732 57.945 77.1122 57.9499 77.0529 57.9635Z" fill="#FDD406"/>
<path d="M77.112 60.6427C77.2115 60.3961 77.3242 60.1549 77.4496 59.9204C77.7661 59.3008 78.4415 58.8514 78.4573 58.7393C78.4737 58.6238 78.2225 58.0806 78.2225 58.0806C78.2225 58.0806 77.6266 58.1945 77.5423 58.2758C77.4609 58.3543 77.4968 59.1593 77.1803 59.7789C77.0627 60.0201 76.9321 60.2547 76.7891 60.4817L77.112 60.6427Z" fill="#FDD406"/>
<path d="M78.6336 58.7831C78.6386 58.8774 77.8535 59.4372 77.5817 59.9689C77.3514 60.4199 77.2539 60.6718 77.2539 60.6718L77.5671 60.7206C77.5671 60.7206 77.5455 60.3996 77.6209 60.2521C77.7025 60.0922 77.724 59.8964 78.0906 59.6079C78.4794 59.302 79.0049 59.0346 79.0006 58.9539C78.9967 58.8793 78.4135 58.1584 78.4135 58.1584C78.4978 58.3627 78.5713 58.5712 78.6336 58.7831Z" fill="#FDD406"/>
<path d="M76.3337 62.2628C76.8055 61.3393 76.9496 61.2764 77.0089 61.16C77.0729 61.0349 77.0576 60.8665 76.8475 60.7597C76.7849 60.725 76.7134 60.7098 76.6421 60.7159C76.5505 60.7268 76.471 60.7839 76.4317 60.8671C76.3723 60.9836 76.4045 61.1393 75.9325 62.0629L74.861 64.1565C74.7994 64.2627 74.8358 64.3987 74.9424 64.4601C74.9424 64.4601 74.9424 64.4601 74.9424 64.4601C74.9477 64.4632 74.9533 64.4661 74.9589 64.4687C75.062 64.5263 75.1923 64.4896 75.2501 64.3868C75.2547 64.3786 75.2587 64.3701 75.2622 64.3613L76.3337 62.2628Z" fill="#FDD406"/>
<path d="M74.4414 64.664C74.3831 64.7785 74.4831 64.9466 74.6665 65.0399C74.8499 65.1329 75.0484 65.1153 75.1068 65.0008C75.1652 64.8864 75.0604 64.7183 74.8769 64.6249C74.7959 64.5814 74.7044 64.5612 74.6127 64.5665C74.5424 64.5669 74.4775 64.6039 74.4414 64.664Z" fill="#FDD406"/>
<path d="M74.0444 65.2592C73.9687 65.4073 74.0867 65.6198 74.3086 65.7328C74.5305 65.8456 74.7712 65.8173 74.8468 65.6692C74.9225 65.5211 74.8043 65.3087 74.5825 65.1957C74.5068 65.1559 74.4234 65.1327 74.3379 65.1275C74.2227 65.1105 74.1081 65.1619 74.0444 65.2592Z" fill="#FDD406"/>
<path d="M73.795 65.9232C73.7366 66.0375 73.8367 66.2057 74.02 66.2989C74.2034 66.3921 74.4018 66.3743 74.4604 66.2599C74.5188 66.1455 74.4186 65.9774 74.2353 65.8841C74.1527 65.8406 74.0596 65.8203 73.9663 65.8255C73.896 65.8261 73.8311 65.8631 73.795 65.9232Z" fill="#FDD406"/>
<path d="M73.6335 66.5576C73.6335 66.5576 72.4438 68.8932 72.0241 69.715C71.8899 69.9775 71.3253 70.1411 71.1043 70.574C70.8816 71.0095 71.0387 71.4171 71.3292 71.5647C71.6196 71.7124 72.0462 71.605 72.2686 71.1694C72.4897 70.7367 72.2911 70.1825 72.4251 69.9201C72.8449 69.0979 74.0347 66.7626 74.0347 66.7626C74.0981 66.6593 74.0655 66.5244 73.962 66.4612C73.9555 66.4572 73.9487 66.4536 73.9418 66.4503C73.8998 66.428 73.8519 66.4195 73.8048 66.4259C73.7304 66.4411 73.6672 66.4897 73.6335 66.5576Z" fill="#FDD406"/>
<path d="M70.624 71.9792C70.5349 72.1536 70.6368 72.3861 70.8539 72.4964C71.071 72.6068 71.3225 72.5537 71.4117 72.3794C71.5009 72.2049 71.3939 71.9723 71.1769 71.862C71.1016 71.8223 71.0174 71.8022 70.9322 71.8035C70.805 71.8011 70.6866 71.8686 70.624 71.9792Z" fill="#FDD406"/>
<path d="M69.039 75.5468C68.9814 75.5416 68.9254 75.5677 68.8923 75.6151C68.8468 75.7043 68.9409 75.8452 69.1027 75.9274C69.2645 76.0096 69.4337 76.002 69.4794 75.9128C69.525 75.8234 69.4307 75.6826 69.2691 75.6005C69.1981 75.5635 69.119 75.5451 69.039 75.5467L69.039 75.5468Z" fill="#FDD406"/>
<path d="M68.4814 75.9858V77.1376L69.4209 76.4641C69.2167 76.1478 68.858 75.9651 68.4814 75.9857V75.9858Z" fill="#FDD406"/>
<path d="M69.0753 50.3348C69.0753 49.7032 69.907 49.0806 69.907 49.0806H49.623C49.623 49.0806 50.4548 49.7031 50.4548 50.3348V65.3955C50.4475 65.7265 50.5605 66.0488 50.7728 66.3032C50.9679 66.5751 51.3835 66.9509 51.8148 67.2304C53.147 68.0935 55.3743 69.0035 57.0596 69.7682C58.4639 70.4054 59.0351 70.6625 59.765 71.5641C60.4951 70.6625 61.0711 70.4055 62.4754 69.7682C64.1604 69.0036 66.3878 68.0935 67.7201 67.2304C68.1516 66.9509 68.5672 66.5752 68.7622 66.3032C68.973 66.0482 69.0842 65.7259 69.0753 65.3955L69.0753 50.3348Z" fill="#FDD406"/>
<path d="M50.9342 58.8557V50.3347C50.9387 50.0565 50.8529 49.7843 50.6895 49.5588H68.8405C68.6771 49.7843 68.5913 50.0565 68.5958 50.3347L68.601 58.8557L59.7676 61.525L50.9342 58.8557Z" fill="#D91C16"/>
<path d="M68.6014 58.8557L63.1316 58.7532H56.4043L50.9346 58.8557V65.3953C50.9346 65.724 51.2765 66.494 53.2488 67.4742C56.5087 69.0946 59.0144 69.8511 59.7654 70.7733C60.5164 69.8511 63.0221 69.0945 66.2821 67.4742C68.2543 66.494 68.5962 65.724 68.5962 65.3953L68.6014 58.8557Z" fill="#0F3296"/>
<path d="M62.9983 58.5144C62.9983 58.5144 66.1539 57.7207 66.1539 54.3564C66.1539 51.7289 62.9903 50.4253 62.9004 49.7983C62.5912 50.8833 63.9572 52.3818 63.9572 54.1563C63.9572 56.4524 62.2595 56.5623 62.2595 56.5623C61.8622 56.5623 61.7013 56.8453 61.5451 56.8453C61.2109 56.8105 61.0536 56.3865 60.7231 56.3865C60.4128 56.3865 60.1746 56.8647 59.7643 56.8647C59.3541 56.8647 59.1207 56.3865 58.8103 56.3865C58.48 56.3865 58.3226 56.8105 57.9884 56.8453C57.8322 56.8453 57.6712 56.5623 57.2739 56.5623C57.2739 56.5623 55.5763 56.4524 55.5763 54.1563C55.5763 52.3818 56.9425 50.8831 56.6331 49.7983C56.5435 50.4253 53.3799 51.7288 53.3799 54.3564C53.3799 57.7207 56.5354 58.5144 56.5354 58.5144L55.6352 60.1492C55.6352 60.1492 56.9392 60.2143 57.6313 60.8033C58.4659 61.5133 58.3847 63.0177 58.3847 64.1121C58.3847 64.9743 58.2755 65.8842 57.8319 66.2593C57.2363 66.763 56.8337 66.8003 56.8337 67.3916C56.8337 67.8848 57.2138 67.9837 57.8319 68.3091C58.6239 68.726 58.587 69.2851 59.7643 69.2851C60.9418 69.2851 60.9097 68.7261 61.7018 68.3091C62.3199 67.9837 62.6999 67.8848 62.6999 67.3916C62.6999 66.8003 62.2972 66.763 61.7018 66.2593C61.2582 65.884 61.149 64.9742 61.149 64.1121C61.149 63.0177 61.0679 61.5133 61.9024 60.8033C62.5946 60.2144 63.8985 60.1492 63.8985 60.1492L62.9983 58.5144Z" fill="black"/>
<path d="M59.7646 50.032L59.2165 51.584L57.7243 50.8763L58.4337 52.3649L56.8779 52.9163L58.4337 53.4677L57.7243 54.9514L59.2165 54.2437L59.7646 55.7956L60.3174 54.2437L61.8096 54.9514L61.1003 53.4677L62.6561 52.9163L61.1003 52.3649L61.8096 50.8763L60.3174 51.584L59.7646 50.032Z" fill="black"/>
<path d="M56.4033 58.7537C56.4033 58.7537 54.455 58.2785 53.7272 57.3188C52.9172 58.025 51.9645 58.5492 50.9336 58.8561C50.9336 58.8561 52.5207 59.5709 53.7272 60.4813C54.2832 59.6866 56.4033 58.7537 56.4033 58.7537Z" fill="black"/>
<path d="M63.1299 58.7537C63.1299 58.7537 65.2502 59.6865 65.8062 60.4813C67.0125 59.5709 68.5995 58.8561 68.5995 58.8561C67.5688 58.5492 66.6162 58.0249 65.8062 57.3188C65.0784 58.2784 63.1299 58.7537 63.1299 58.7537Z" fill="black"/>
<path d="M57.2017 60.8223L56.4434 61.5786L57.2017 62.335L57.96 61.5786L57.2017 60.8223Z" fill="black"/>
<path d="M62.3334 60.8223L61.5752 61.5786L62.3334 62.335L63.0918 61.5786L62.3334 60.8223Z" fill="black"/>
<path d="M57.0106 65.2389C57.0195 65.7271 56.9884 66.2151 56.9177 66.6981C56.9177 66.6981 57.9867 66.3842 58.1997 65.3024C58.2994 64.7953 58.4106 62.927 57.8962 62.6085L56.502 62.3352C56.8392 63.2663 57.0113 64.2489 57.0106 65.2389Z" fill="black"/>
<path d="M61.6389 62.6086C61.1246 62.927 61.2358 64.7952 61.3356 65.3025C61.5484 66.3843 62.6174 66.6982 62.6174 66.6982C62.5467 66.2151 62.5156 65.7271 62.5245 65.239C62.5237 64.2489 62.6959 63.2663 63.0334 62.3352L61.6389 62.6086Z" fill="black"/>
<path d="M53.7234 62.6625C53.2466 62.7768 52.9531 63.2551 53.0677 63.7307C53.0867 63.8094 53.1164 63.8851 53.1559 63.9557C53.0847 63.9318 53.0107 63.917 52.9358 63.9118C52.9048 63.9102 52.8738 63.9102 52.8429 63.9118C52.3479 63.9325 51.9635 64.3495 51.9842 64.8432C52.0049 65.337 52.423 65.7205 52.918 65.6998C52.9551 65.6982 52.9921 65.6944 53.0287 65.6882C52.9851 65.747 52.949 65.8109 52.9212 65.8785C52.7338 66.3371 52.9545 66.8605 53.4142 67.0474C53.8739 67.2344 54.3986 67.0143 54.5861 66.5557L54.5895 66.5473C54.6162 66.4798 54.6343 66.4093 54.6434 66.3373C54.6869 66.3971 54.7379 66.4512 54.7949 66.4984C55.1705 66.8212 55.7374 66.7791 56.061 66.4045C56.3846 66.0298 56.3425 65.4644 55.9669 65.1416C55.9054 65.0888 55.837 65.0445 55.7636 65.01C55.8341 64.9875 55.9014 64.9564 55.9641 64.9173C56.3844 64.6523 56.5112 64.0984 56.2479 63.6777C56.0732 63.3995 55.7591 63.2401 55.4309 63.2629C55.2814 63.273 55.1368 63.32 55.0101 63.3996C54.9476 63.4379 54.8901 63.4838 54.8389 63.5362C54.8366 63.0377 54.4297 62.6354 53.9299 62.6377C53.8604 62.638 53.7911 62.6463 53.7234 62.6625Z" fill="black"/>
<path d="M63.2626 65.2685C63.3598 66.1824 64.1043 66.9481 65.0238 67.1668C64.8642 66.9107 64.7639 66.6223 64.7302 66.3226C64.615 65.2387 65.4554 64.3606 66.604 64.3606C66.782 64.3609 66.9593 64.3822 67.1323 64.4242C66.7042 63.7331 65.9506 63.3093 65.1362 63.3018C63.9876 63.3018 63.1471 64.1847 63.2626 65.2685Z" fill="black"/>
<path d="M55.1179 54.1563C55.1179 55.8844 56.0417 56.9037 57.2754 56.9037C57.5107 56.9037 57.7681 57.221 57.9898 57.221C58.3512 57.221 58.5917 56.8208 58.8117 56.8208C59.0915 56.8208 59.28 57.26 59.7657 57.26C60.2515 57.26 60.4449 56.8208 60.7246 56.8208C60.9446 56.8208 61.1851 57.221 61.5465 57.221C61.7683 57.221 62.0255 56.9037 62.2609 56.9037C63.4946 56.9037 64.4185 55.8844 64.4185 54.1563C64.4185 52.7469 63.232 51.0285 63.3617 50.7498C63.3617 50.7498 65.6758 52.4055 65.6758 54.3563C65.6758 57.4986 62.4811 58.2752 62.4811 58.2752L63.2002 59.8904C63.2002 59.8904 62.21 60.0386 61.6053 60.5249C60.7988 61.1737 60.7882 62.9264 60.7882 64.1118C60.7882 65.5082 60.8403 66.0999 61.346 66.4787C61.8793 66.8785 62.2804 66.9645 62.2804 67.3719C62.2804 67.7268 61.8651 67.872 61.3263 68.1088C60.7134 68.3783 60.6524 68.8458 59.7657 68.8458C58.8789 68.8458 58.8227 68.3783 58.2098 68.1088C57.6711 67.872 57.2558 67.7269 57.2558 67.3719C57.2558 66.9645 57.6569 66.8785 58.1902 66.4787C58.6959 66.0999 58.7479 65.5082 58.7479 64.1118C58.7479 62.9264 58.7374 61.1737 57.9309 60.5249C57.3261 60.0384 56.3359 59.8904 56.3359 59.8904L57.055 58.2752C57.055 58.2752 53.8604 57.4987 53.8604 54.3563C53.8604 52.4055 56.1745 50.7498 56.1745 50.7498C56.3043 51.0285 55.1179 52.7469 55.1179 54.1563ZM58.5572 67.1331C57.9296 67.1331 57.5298 67.2652 57.5298 67.4552C57.5298 67.6453 57.9297 67.7725 58.5572 67.7725C58.7244 67.7725 58.9143 67.6753 58.9143 67.4552C58.91 67.2725 58.7581 67.1279 58.575 67.1322C58.5691 67.1323 58.5631 67.1326 58.5572 67.1331ZM60.9789 67.1331C60.7962 67.119 60.6367 67.2552 60.6226 67.4374C60.6222 67.4433 60.6219 67.4493 60.6217 67.4552C60.6216 67.6753 60.8116 67.7725 60.9789 67.7725C61.6065 67.7725 62.0062 67.6454 62.0062 67.4552C62.0062 67.2651 61.6064 67.1331 60.9789 67.1331Z" fill="#FDD406"/>
<path d="M59.7711 51.0767L60.1234 52.0675L61.0725 51.6137L60.6223 52.5652L61.6107 52.9167L60.6223 53.2681L61.0725 54.2148L60.1234 53.7658L59.7662 54.7516L59.414 53.7658L58.4649 54.2148L58.915 53.2681L57.9268 52.9167L58.915 52.5652L58.4649 51.6137L59.414 52.0675L59.7711 51.0767Z" fill="#FDD406"/>
<path d="M51.8633 58.8841C51.8633 58.8841 53.0683 59.4828 53.6736 60.0163L53.7077 60.0456L53.7272 60.0213C54.2993 59.3663 55.3613 58.811 55.3613 58.811C55.3613 58.811 54.341 58.5302 53.698 57.7959C53.0183 58.4869 51.8633 58.8841 51.8633 58.8841Z" fill="#FDD406"/>
<path d="M67.6708 58.8856C67.6708 58.8856 66.4658 59.4842 65.8605 60.0178L65.8264 60.047L65.8069 60.0227C65.2348 59.3677 64.1729 58.8124 64.1729 58.8124C64.1729 58.8124 65.1931 58.5317 65.8362 57.7974C66.5158 58.4883 67.6708 58.8856 67.6708 58.8856Z" fill="#FDD406"/>
<path d="M57.202 61.1836L57.5983 61.5787L57.202 61.979L56.8008 61.5787L57.202 61.1836Z" fill="#FDD406"/>
<path d="M62.3337 61.1836L62.735 61.5787L62.3337 61.979L61.9375 61.5787L62.3337 61.1836Z" fill="#FDD406"/>
<path d="M57.7408 62.9108C58.0176 63.292 57.9706 63.9082 57.9706 64.7655C57.9874 65.2523 57.7384 65.7099 57.32 65.961C57.32 63.8834 57.1052 63.3839 56.9922 62.7546L57.7408 62.9108Z" fill="#FDD406"/>
<path d="M62.544 62.7546C62.4307 63.384 62.2162 63.8834 62.2162 65.961C61.7978 65.7099 61.5487 65.2522 61.5655 64.7654C61.5655 63.9081 61.5185 63.2921 61.7955 62.9109L62.544 62.7546Z" fill="#FDD406"/>
<path d="M54.663 63.541C54.681 63.6161 54.6859 63.6937 54.6776 63.7704C54.6712 63.8307 54.6564 63.8898 54.6337 63.946C54.2417 63.8074 53.8046 63.9193 53.528 64.2291C53.479 64.1865 53.4362 64.1372 53.4008 64.0827C53.3587 64.02 53.3273 63.9507 53.3079 63.8778C53.2149 63.5044 53.443 63.1266 53.8173 63.0339C54.1911 62.9413 54.5696 63.1682 54.663 63.541Z" fill="#FDD406"/>
<path d="M55.7061 64.8428C55.6401 64.8831 55.5676 64.9117 55.4919 64.9276C55.4324 64.9401 55.3715 64.9444 55.3109 64.9402C55.3219 64.5254 55.0801 64.1454 54.6992 63.9787C54.7248 63.919 54.7585 63.8632 54.7996 63.8128C54.8463 63.7535 54.9027 63.7023 54.9662 63.6613C55.2933 63.4575 55.7241 63.5568 55.9284 63.883C56.1327 64.2093 56.0332 64.639 55.7061 64.8428Z" fill="#FDD406"/>
<path d="M54.7872 66.2347C54.7284 66.1845 54.6787 66.1246 54.6402 66.0577C54.6099 66.0051 54.587 65.9486 54.5723 65.8898C54.9711 65.7721 55.2588 65.4253 55.3 65.0125C55.3648 65.0182 55.4284 65.033 55.4891 65.0564C55.5601 65.0824 55.6264 65.12 55.6851 65.1677C55.9798 65.4158 56.0172 65.8552 55.7685 66.1492C55.5207 66.4422 55.0822 66.4804 54.7872 66.2347Z" fill="#FDD406"/>
<path d="M53.1761 65.7929C53.2058 65.7216 53.2475 65.656 53.2995 65.5987C53.3402 65.5537 53.387 65.5146 53.4385 65.4824C53.674 65.8244 54.0935 65.9901 54.4999 65.9017C54.5144 65.9649 54.5199 66.0299 54.5164 66.0947C54.5136 66.1701 54.4982 66.2446 54.4709 66.315C54.3264 66.6717 53.9193 66.8439 53.5618 66.6997C53.2042 66.5556 53.0315 66.1496 53.1761 65.7929Z" fill="#FDD406"/>
<path d="M53.0997 64.1282C53.1768 64.1344 53.2523 64.1537 53.323 64.1852C53.3785 64.21 53.4302 64.2423 53.4768 64.2812C53.2235 64.6103 53.1952 65.0595 53.4051 65.4177C53.3493 65.451 53.289 65.4763 53.2262 65.493C53.1534 65.5136 53.0776 65.522 53.002 65.5179C52.6173 65.491 52.3273 65.1581 52.3543 64.7743C52.3812 64.3906 52.715 64.1013 53.0997 64.1282Z" fill="#FDD406"/>
<path d="M54.2865 65.5814C54.6594 65.5814 54.9617 65.2798 54.9617 64.9079C54.9617 64.5359 54.6594 64.2344 54.2865 64.2344C53.9136 64.2344 53.6113 64.5359 53.6113 64.9079C53.6113 65.2798 53.9136 65.5814 54.2865 65.5814Z" fill="#FDD406"/>
<path d="M66.1396 63.9999C65.0187 64.2161 64.212 65.2037 64.3294 66.3571C63.9722 66.062 63.7108 65.6644 63.6641 65.2249C63.5732 64.3689 64.1965 63.707 65.1367 63.707C65.4917 63.7102 65.8389 63.8116 66.1396 63.9999Z" fill="#FDD406"/>
<path d="M69.5106 49.2309H50.0197C50.2782 49.4905 50.6064 49.9046 50.6064 50.3338V63.4131H50.6058V65.3946H50.6064C50.6034 65.5498 50.6285 65.7042 50.6802 65.8505C50.7304 65.9803 50.8003 66.1016 50.8875 66.2101L50.891 66.2148C51.081 66.4564 51.3017 66.6722 51.5476 66.857C51.6032 66.9004 51.66 66.943 51.7173 66.984C51.773 67.0239 51.8312 67.0636 51.8911 67.1024L51.8924 67.1033C52.9297 67.775 54.5276 68.4813 55.9795 69.1227C56.3842 69.3016 56.779 69.4761 57.1163 69.6291L57.1169 69.6297L57.1492 69.6442H57.1497C58.4786 70.2472 59.0711 70.5163 59.7651 71.3269C60.4609 70.5133 61.0516 70.2453 62.3927 69.6368L62.3926 69.6366L62.4079 69.6296C62.746 69.4762 63.14 69.3022 63.5448 69.1234C64.9967 68.4818 66.5948 67.7755 67.6323 67.1037L67.6332 67.1031C67.9242 66.9143 68.1936 66.6942 68.4367 66.4469C68.4763 66.4058 68.5134 66.365 68.5471 66.3254C68.5788 66.2882 68.608 66.2511 68.6339 66.2149L68.6363 66.2126L68.6368 66.2119L68.638 66.2101C68.7258 66.101 68.7966 65.9794 68.8482 65.8493C68.9012 65.7037 68.9269 65.5495 68.924 65.3946H68.9246V63.4131H68.924V50.3338C68.924 49.9046 69.2521 49.4905 69.5106 49.2309ZM69.2274 50.3338V63.4131H69.2268V65.3946H69.2274C69.2302 65.5859 69.1977 65.7761 69.1315 65.9557C69.0699 66.1125 68.9852 66.2592 68.8801 66.3909L68.8804 66.3912C68.8518 66.4311 68.8174 66.4746 68.7783 66.5205C68.7413 66.5639 68.6998 66.6095 68.6548 66.6563C68.3956 66.9201 68.1083 67.1548 67.7979 67.3562L67.7971 67.3568C66.737 68.0433 65.1283 68.7542 63.6669 69.4C63.2844 69.5689 62.912 69.7335 62.5335 69.9052L62.5182 69.9122H62.5177C61.1477 70.5338 60.5874 70.788 59.8831 71.658L59.7652 71.8036L59.6472 71.658C58.946 70.792 58.3824 70.5362 57.0241 69.9198L57.0242 69.9196L56.9923 69.9052L56.9912 69.9046L56.9908 69.9045L56.9907 69.9047C56.6113 69.7325 56.2397 69.5684 55.8573 69.3993C54.3959 68.7536 52.7872 68.0427 51.7274 67.3562L51.7239 67.3538L51.7227 67.3531L51.7228 67.353C51.6631 67.3143 51.602 67.2727 51.5406 67.2287C51.4797 67.1851 51.4196 67.1401 51.3615 67.0946C51.0927 66.8919 50.8516 66.655 50.6445 66.3899C50.5397 66.2583 50.4558 66.1115 50.3957 65.9545C50.3314 65.775 50.2999 65.5853 50.3029 65.3946H50.3035V63.4131H50.3029V50.3338C50.3029 49.7769 49.5344 49.2018 49.5322 49.2002V48.9282H69.9981V49.2002C69.996 49.2018 69.2274 49.7769 69.2274 50.3338ZM68.7684 49.4071L68.7689 49.4065H68.841L69.1551 49.4063L68.9588 49.6519C68.8163 49.8503 68.7423 50.0897 68.748 50.3338V63.4131H68.7474V65.3946H68.748C68.748 65.6626 68.56 66.18 67.6745 66.825L67.6747 66.8252C67.5092 66.9459 67.318 67.0721 67.0981 67.203C66.8767 67.3348 66.629 67.4701 66.3528 67.6075L66.3525 67.6069L66.3497 67.6084V67.609C65.1667 68.197 64.0743 68.675 63.131 69.0876C61.5112 69.7962 60.3378 70.3095 59.883 70.8673L59.8807 70.8703L59.8802 70.8709L59.7621 71.0082L59.6478 70.8679C59.1933 70.3098 58.0195 69.7962 56.3989 69.0873C55.4563 68.6751 54.3648 68.1974 53.1829 67.6101V67.6095L53.1809 67.6085L53.1807 67.609C52.342 67.1923 51.7904 66.81 51.4321 66.4818C51.3614 66.4166 51.2977 66.3538 51.2412 66.2932C50.8772 65.903 50.7831 65.5878 50.7829 65.3951H50.7823V65.3946H50.7829V63.4131H50.7823V50.3338C50.7881 50.0897 50.7141 49.8503 50.5715 49.6519L50.3752 49.4071H51.0271V49.4065H68.5034V49.4071L68.7684 49.4071ZM68.5033 49.7086V49.7092H51.027V49.7086H50.9515C51.0403 49.9051 51.086 50.1182 51.0858 50.3338V63.4131H51.0852V65.3946H51.0858V65.3951H51.0852C51.0853 65.5312 51.1628 65.7658 51.4629 66.0874C51.5146 66.1427 51.5725 66.2003 51.6371 66.2596C51.9762 66.5703 52.5044 66.9351 53.3158 67.3382V67.3388L53.3178 67.3398L53.3181 67.3393C54.507 67.9301 55.587 68.4027 56.5198 68.8107C58.0617 69.4852 59.2085 69.9868 59.765 70.5477C60.3217 69.9869 61.4686 69.4853 63.0101 68.811C63.9435 68.4026 65.0246 67.9296 66.2144 67.3382L66.2147 67.3387L66.2175 67.3373V67.3367C66.4928 67.1998 66.7333 67.0687 66.9427 66.9441C67.1536 66.8185 67.3371 66.6974 67.4958 66.5817H67.4963C68.2784 66.0122 68.4445 65.5997 68.4445 65.3946H68.4451V63.4131H68.4445V50.3338C68.4442 50.1182 68.49 49.9051 68.5788 49.7086L68.5033 49.7086Z" fill="black"/>
</g>
</g>
<defs>
<clipPath id="clip0_307_93603">
<rect width="120" height="120" fill="white"/>
</clipPath>
<clipPath id="clip1_307_93603">
<rect width="38.25" height="48.0474" fill="white" transform="translate(41 36)"/>
</clipPath>
</defs>
</svg>
