<svg width="120" height="120" viewBox="0 0 120 120" fill="none" xmlns="http://www.w3.org/2000/svg">
<circle cx="60" cy="60" r="60" fill="#D91C16"/>
<path d="M71.7686 118.845C67.963 119.602 64.028 120 60 120C55.9717 120 52.0364 119.602 48.2305 118.845L60 60L71.7686 118.845Z" fill="#FDD406"/>
<path d="M21.5879 106.093C18.0154 103.112 14.7945 99.725 11.9971 96.001L60 60L21.5879 106.093Z" fill="#FDD406"/>
<path d="M108.002 96.001C105.204 99.725 101.984 103.112 98.4111 106.093L60 60L108.002 96.001Z" fill="#FDD406"/>
<path d="M60 0C64.0279 0 67.963 0.397466 71.7686 1.1543L60 60L0.65625 68.9014C0.224295 65.9969 0 63.0246 0 60C0 56.975 0.224202 54.0024 0.65625 51.0977L60 60L11.9971 23.998C14.7945 20.2741 18.0154 16.8866 21.5879 13.9062L60 60L48.2305 1.1543C52.0363 0.397344 55.9718 0 60 0Z" fill="#FDD406"/>
<path d="M119.343 51.0977C119.775 54.0024 120 56.975 120 60C120 63.0247 119.775 65.9969 119.343 68.9014L60 60L119.343 51.0977Z" fill="#FDD406"/>
<path d="M98.4111 13.9062C101.984 16.8866 105.204 20.2741 108.002 23.998L60 60L98.4111 13.9062Z" fill="#FDD406"/>
<path d="M59.9998 77.1417C69.4675 77.1417 77.1426 69.4666 77.1426 59.9988C77.1426 50.5311 69.4675 42.856 59.9998 42.856C50.5321 42.856 42.8569 50.5311 42.8569 59.9988C42.8569 69.4666 50.5321 77.1417 59.9998 77.1417Z" fill="#FDD406"/>
<path d="M77.1431 59.9985C77.1429 50.5309 69.4672 42.856 59.9995 42.856C50.532 42.8561 42.8571 50.531 42.8569 59.9985C42.8569 69.3183 50.294 76.9014 59.5571 77.1362L59.9995 77.1421C69.3194 77.1421 76.9027 69.7043 77.1372 60.4409L77.1431 59.9985ZM81.4282 59.9985C81.4282 71.8332 71.8342 81.4272 59.9995 81.4272C48.165 81.4271 38.5708 71.8331 38.5708 59.9985C38.571 48.1641 48.1651 38.57 59.9995 38.5698C71.8341 38.5698 81.4281 48.164 81.4282 59.9985Z" fill="#D91C16"/>
</svg>
