<svg width="120" height="120" viewBox="0 0 120 120" fill="none" xmlns="http://www.w3.org/2000/svg">
<circle cx="60" cy="60" r="60" fill="#1E9A1C"/>
<path d="M111.973 90C117.078 81.1748 120 70.9286 120 60C120 26.8629 93.1371 0 60 0C26.8629 0 0 26.8629 0 60C0 70.9286 2.92183 81.1748 8.02693 90H111.973Z" fill="#FDD406"/>
<path d="M120 60C120 26.8629 93.1371 0 60 0C26.8629 0 0 26.8629 0 60H120Z" fill="#021455"/>
<path d="M111.973 30H8.02686C18.4011 12.066 37.7915 0 59.9999 0C82.2084 0 101.599 12.066 111.973 30Z" fill="#E23726"/>
</svg>
