<svg width="120" height="120" viewBox="0 0 120 120" fill="none" xmlns="http://www.w3.org/2000/svg">
<g clip-path="url(#clip0_307_94528)">
<circle cx="60" cy="60" r="60" fill="white"/>
<path d="M119.392 51.4286C119.793 54.228 120 57.0898 120 60H4V51.4286H119.392Z" fill="#D91C16"/>
<path d="M117.515 42.8571H4V38.4144C4.54093 37.012 5.13302 35.635 5.77398 34.2857H114.226C115.532 37.0343 116.635 39.8979 117.515 42.8571Z" fill="#D91C16"/>
<path d="M109.246 25.7143H10.7545C12.9033 22.6336 15.3338 19.764 18.0087 17.1429H101.991C104.666 19.764 107.097 22.6336 109.246 25.7143Z" fill="#D91C16"/>
<path d="M29.0778 8.57143C38.1082 3.13012 48.6886 0 60 0C71.3114 0 81.8918 3.13012 90.9222 8.57143H29.0778Z" fill="#D91C16"/>
<path d="M0.528685 68C0.179993 65.3829 0 62.7125 0 60C0 26.8629 26.8629 0 60 0C65.1795 0 70.2057 0.656295 75 1.89026V68H0.528685Z" fill="#021455"/>
<path d="M2.32653 76.6C1.52532 73.8113 0.920915 70.9393 0.529297 68H119.472C119.08 70.9393 118.476 73.8113 117.675 76.6H2.32653Z" fill="#D91C16"/>
<path d="M10.4198 93.8C8.56547 91.0851 6.92828 88.2101 5.53327 85.2H114.468C113.073 88.2101 111.436 91.0851 109.581 93.8H10.4198Z" fill="#D91C16"/>
<path d="M28.3781 111C24.4406 108.553 20.8072 105.663 17.5478 102.4H102.453C99.194 105.663 95.5606 108.553 91.6231 111H28.3781Z" fill="#D91C16"/>
<path d="M7.15207 31.566C11.0491 24.3381 16.3857 18.0009 22.7779 12.9383C25.3641 12.1608 28.0818 11.8592 30.7975 12.0608C34.8615 12.3624 38.7636 13.7789 42.0746 16.1546C39.0761 14.8241 35.7927 14.2637 32.5225 14.5242C29.2524 14.7847 26.0992 15.8579 23.3491 17.6463C20.599 19.4347 18.3391 21.8817 16.7747 24.7652C15.2103 27.6486 14.3909 30.8771 14.3909 34.1576C14.3909 37.4381 15.2103 40.6666 16.7747 43.55C18.3391 46.4335 20.599 48.8805 23.3491 50.6689C26.0992 52.4574 29.2524 53.5305 32.5225 53.791C35.7927 54.0516 39.0761 53.4911 42.0746 52.1607C38.7636 54.5363 34.8615 55.9528 30.7975 56.2544C26.7335 56.556 22.665 55.731 19.0396 53.8702C15.4141 52.0093 12.372 49.1846 10.2479 45.7068C8.12385 42.229 7 38.2328 7 34.1576C7 33.2887 7.05109 32.4234 7.15207 31.566Z" fill="#FDD406"/>
<path d="M52.9534 26.9564L51.3069 15.6929L49.6605 26.9564L43.2902 17.524L46.7062 28.3874L36.8737 22.648L44.6597 30.9571L33.3039 30.0492L43.9211 34.1576L33.3039 38.266L44.6597 37.3582L36.8737 45.6672L46.7062 39.9278L43.2902 50.7912L49.6605 41.3588L51.3069 52.6223L52.9534 41.3588L59.3237 50.7912L55.9077 39.9278L65.7402 45.6672L57.9542 37.3582L69.31 38.266L58.6928 34.1576L69.31 30.0492L57.9542 30.9571L65.7402 22.648L55.9077 28.3874L59.3237 17.524L52.9534 26.9564Z" fill="#FDD406"/>
</g>
<defs>
<clipPath id="clip0_307_94528">
<rect width="120" height="120" fill="white"/>
</clipPath>
</defs>
</svg>
