<svg width="120" height="120" viewBox="0 0 120 120" fill="none" xmlns="http://www.w3.org/2000/svg">
<circle cx="60" cy="60" r="60" fill="black"/>
<path d="M2.98762 41.25C10.8611 17.2955 33.4106 0 59.9998 0C86.5889 0 109.138 17.2955 117.012 41.25H2.98762Z" fill="white"/>
<path d="M60.0747 120C86.6498 119.967 109.177 102.658 117.028 78.7H2.97119C10.8223 102.658 33.3498 119.967 59.9249 120H60.0747Z" fill="white"/>
<path d="M115.639 37.5H4.36133C13.2621 15.5113 34.8196 0 60 0C85.1803 0 106.738 15.5113 115.639 37.5Z" fill="#1E9A1C"/>
<path d="M115.639 82.5C106.738 104.489 85.1803 120 60 120C34.8196 120 13.2621 104.489 4.36133 82.5H115.639Z" fill="#FDD406"/>
<path d="M19.4226 104.199C7.48325 93.2316 0 77.4897 0 60C0 42.5102 7.48325 26.7683 19.4226 15.8014L73.75 60L19.4226 104.199Z" fill="#E23726"/>
<path d="M40.874 82.497L26.2432 71.785L11.632 82.5L17.2984 65.2752L2.59277 54.6904L20.7256 54.7568L26.2482 37.5L31.7882 54.766L49.907 54.6854L35.1982 65.29L40.874 82.497Z" fill="#FDD406"/>
<path fill-rule="evenodd" clip-rule="evenodd" d="M13.5449 70.4854H24.0847C24.9327 71.4368 26.8247 71.8248 28.6269 70.4742C31.9305 68.6652 38.3215 70.4854 38.3215 70.4854L39.5799 69.1484L36.5123 59.0804L35.4111 57.9006C35.4111 57.9006 33.0517 56.485 28.5681 56.9568C24.0845 57.4286 22.5115 56.7996 22.5115 56.7996C22.5115 56.7996 18.5789 57.2716 17.4775 57.822C17.3567 57.92 16.2191 59.0804 16.2191 59.0804L13.5449 70.4854Z" fill="white"/>
<path fill-rule="evenodd" clip-rule="evenodd" d="M22.5692 56.6536L22.5696 56.6538L22.5714 56.6545C22.5736 56.6553 22.5773 56.6567 22.5827 56.6586C22.5935 56.6624 22.6107 56.6684 22.6347 56.6759C22.6828 56.691 22.7582 56.7128 22.8634 56.7377C23.0738 56.7876 23.4038 56.8504 23.8743 56.8989C24.8155 56.9959 26.3186 57.0356 28.5515 56.8006C30.8128 56.5627 32.5423 56.8004 33.7097 57.0997C34.2933 57.2493 34.736 57.4142 35.0342 57.5426C35.1834 57.6067 35.2963 57.6617 35.3727 57.7011C35.4109 57.7208 35.44 57.7366 35.4598 57.7477C35.4697 57.7532 35.4773 57.7576 35.4827 57.7607L35.4889 57.7643L35.4907 57.7654L35.4913 57.7657L35.4917 57.766C35.5042 57.7735 35.5157 57.7827 35.5257 57.7935L36.6269 58.9733C36.6432 58.9907 36.6553 59.0117 36.6623 59.0346L39.7299 69.1026C39.7463 69.1565 39.7326 69.215 39.694 69.256L38.4356 70.593C38.3954 70.6357 38.3345 70.6524 38.2781 70.6363C38.2781 70.6363 38.2783 70.6364 38.2823 70.6223L38.2781 70.6363L38.2741 70.6352L38.2608 70.6315C38.2543 70.6297 38.2459 70.6273 38.2357 70.6246C38.2275 70.6223 38.2182 70.6198 38.2077 70.6169C38.1608 70.6042 38.0912 70.5857 38.0014 70.5628C37.8217 70.517 37.561 70.4534 37.2375 70.3826C36.5904 70.241 35.6938 70.0711 34.6951 69.9574C32.7187 69.7324 30.3825 69.7328 28.7789 70.5708C28.7676 70.5882 28.7529 70.6034 28.7355 70.6154C27.8986 71.1881 27.0968 71.5084 26.2956 71.531C25.4919 71.5537 24.7091 71.2762 23.9127 70.6913C23.8944 70.6778 23.8797 70.6611 23.8691 70.6424H13.5447C13.4968 70.6424 13.4514 70.6205 13.4217 70.5829C13.3919 70.5453 13.3809 70.4962 13.3918 70.4495L16.066 59.0445C16.0726 59.0166 16.0867 58.9909 16.1068 58.9704C16.1068 58.9704 16.1068 58.9705 16.2189 59.0804L16.1068 58.9704L16.156 58.9203C16.1874 58.8884 16.2323 58.8426 16.2866 58.7874C16.3952 58.677 16.5413 58.5288 16.6913 58.3774C16.8411 58.2262 16.995 58.0715 17.1192 57.9485C17.2394 57.8293 17.3404 57.7308 17.3784 57.7001C17.3873 57.6929 17.3969 57.6866 17.4071 57.6815C17.7006 57.5349 18.169 57.3988 18.693 57.2771C19.2211 57.1544 19.8195 57.0432 20.3815 56.9495C20.9439 56.8558 21.4714 56.7794 21.8583 56.7264C22.0518 56.6999 22.2102 56.6792 22.3203 56.6652C22.3754 56.6582 22.4184 56.6528 22.4476 56.6492L22.481 56.6451L22.4926 56.6437C22.5185 56.6406 22.5449 56.644 22.5692 56.6536ZM28.4085 70.4386C26.7609 71.5968 25.0897 71.2677 24.2852 70.469C24.4094 70.3355 24.6122 70.1431 24.9048 69.92C25.2498 69.657 25.7147 69.355 26.3124 69.0609C26.3286 69.0667 26.3461 69.0699 26.3644 69.0701C26.4041 69.0704 26.4405 69.0559 26.4684 69.0318C27.2528 69.392 27.922 69.8531 28.4085 70.4386ZM28.6776 70.2698C30.3704 69.4071 32.7667 69.4218 34.7306 69.6454C35.7426 69.7606 36.6502 69.9327 37.3046 70.0759C37.632 70.1475 37.8963 70.2119 38.079 70.2586C38.1597 70.2791 38.2244 70.2963 38.2717 70.309L39.403 69.1071L36.3725 59.1609L35.6621 58.3998L37.4527 66.7558C37.4709 66.8408 37.4168 66.9246 37.3317 66.9428C37.2467 66.961 37.1629 66.9068 37.1447 66.8218L35.2569 58.0122C35.2556 58.0059 35.2546 57.9996 35.254 57.9934C35.2462 57.9892 35.2378 57.9849 35.2288 57.9802C35.1586 57.944 35.0523 57.8921 34.9101 57.831C34.6258 57.7086 34.1985 57.5491 33.6318 57.4038C32.4986 57.1133 30.8066 56.8791 28.5843 57.1129C26.3335 57.3498 24.8084 57.3108 23.8422 57.2113C23.359 57.1615 23.0155 57.0965 22.7909 57.0432C22.6786 57.0166 22.596 56.9929 22.5406 56.9755C22.5217 56.9695 22.5059 56.9643 22.4932 56.96L22.4861 56.9608C22.4572 56.9644 22.4146 56.9697 22.36 56.9767C22.2508 56.9906 22.0933 57.0111 21.9009 57.0375C21.516 57.0902 20.9916 57.1662 20.4331 57.2592C19.8743 57.3524 19.2831 57.4624 18.764 57.583C18.3515 57.6788 17.993 57.7795 17.7337 57.8809L16.6872 62.4194C16.6676 62.5041 16.5831 62.557 16.4983 62.5375C16.4136 62.5179 16.3607 62.4334 16.3802 62.3486L17.3444 58.1674C17.343 58.1687 17.3416 58.1701 17.3402 58.1714C17.2171 58.2935 17.064 58.4474 16.9143 58.5984C16.7648 58.7494 16.6189 58.8974 16.5105 59.0076C16.4562 59.0628 16.4114 59.1084 16.38 59.1403L16.3617 59.159L13.7428 70.3284H23.9884C24.1258 70.169 24.3657 69.9349 24.7138 69.6695C25.0473 69.4152 25.4845 69.1288 26.0352 68.8475C25.8119 68.7595 25.581 68.6785 25.3439 68.6042C24.0078 68.1856 22.4906 67.9828 21.0571 67.8997C19.6246 67.8166 18.2816 67.8532 17.2963 67.9108C16.8038 67.9395 16.4011 67.9735 16.1218 68.0002C15.9822 68.0136 15.8734 68.0251 15.7997 68.0333C15.7629 68.0374 15.7348 68.0407 15.716 68.0429L15.6949 68.0454L15.6897 68.0461L15.6881 68.0463C15.6018 68.0571 15.5231 67.9958 15.5123 67.9095C15.5015 67.8232 15.5629 67.7445 15.6492 67.7337C15.6492 67.7337 15.649 67.7337 15.6685 67.89L15.6492 67.7337L15.6511 67.7334L15.6568 67.7327L15.679 67.7301C15.6985 67.7278 15.7273 67.7244 15.7649 67.7203C15.8401 67.7119 15.9505 67.7002 16.0918 67.6866C16.3745 67.6596 16.7811 67.6253 17.2779 67.5963C18.2713 67.5383 19.6271 67.5012 21.0753 67.5852C22.5226 67.6691 24.068 67.8744 25.4381 68.3036C25.7021 68.3864 25.9602 68.4776 26.2104 68.5782L26.2866 57.8209C26.2872 57.7339 26.3582 57.6639 26.4452 57.6645C26.5322 57.6651 26.6022 57.7361 26.6016 57.8231L26.5251 68.613C26.6519 68.5563 26.7836 68.5002 26.9203 68.445C28.8935 67.6495 31.9076 67.062 36.219 67.6554C36.3052 67.6672 36.3654 67.7467 36.3536 67.8329C36.3417 67.919 36.2622 67.9793 36.1761 67.9674C31.9139 67.3808 28.9556 67.9641 27.0381 68.7372C26.9552 68.7706 26.8742 68.8044 26.7952 68.8384C27.5429 69.2063 28.193 69.6747 28.6776 70.2698Z" fill="black"/>
<path fill-rule="evenodd" clip-rule="evenodd" d="M45.7966 42.7924C45.856 42.7353 45.8614 42.6421 45.809 42.5785C45.7565 42.5149 45.6639 42.5026 45.5966 42.5501L37.3195 48.3964L37.1966 48.3041C37.1993 48.2979 37.2025 48.2912 37.2061 48.2841C37.2094 48.2776 37.2145 48.2682 37.2208 48.2569C37.2392 48.2233 37.2671 48.1725 37.2839 48.1287C37.3119 48.0555 37.3264 47.9695 37.3053 47.8661C37.2852 47.7673 37.2346 47.6628 37.1515 47.5452L37.1494 47.5424C37.1477 47.54 37.1458 47.5376 37.1439 47.5353C37.0888 47.4692 37.0241 47.4201 36.9499 47.3923C36.8754 47.3645 36.8007 47.3615 36.7311 47.3737C36.5981 47.397 36.4791 47.4764 36.3876 47.5518C36.2933 47.6296 36.2093 47.7194 36.1494 47.7835C36.1317 47.8025 36.1169 47.8183 36.1043 47.8314C36.0704 47.8206 36.0257 47.8051 35.9729 47.7852C35.8565 47.7413 35.7048 47.6773 35.548 47.5981C35.3908 47.5186 35.232 47.4255 35.0994 47.3241C34.9645 47.2209 34.8687 47.118 34.822 47.0225C34.7905 46.9583 34.7197 46.9233 34.6496 46.9373C34.5795 46.9513 34.5276 47.0108 34.5233 47.0822L34.4451 48.3718L32.409 50.2676L30.8589 50.197C30.8155 50.195 30.7733 50.211 30.7421 50.2412L28.3909 52.5188C28.3727 52.5364 28.3591 52.5581 28.3511 52.5822L28.2349 52.9307L28.0551 52.65C28.0317 52.6135 27.9943 52.5882 27.9517 52.5802C27.909 52.5721 27.865 52.582 27.8299 52.6075C27.805 52.6256 27.7619 52.6667 27.7181 52.7092C27.6694 52.7563 27.6061 52.8189 27.5337 52.8904L27.5084 52.9154C27.3677 53.0546 27.1953 53.225 27.0241 53.3891C26.8417 53.5638 26.6638 53.7282 26.5284 53.8391C26.4858 53.8739 26.4499 53.9014 26.421 53.9217L22.577 49.5791L22.7749 48.8532C22.7891 48.8009 22.7755 48.7451 22.7389 48.7052L20.2411 45.9866C20.2234 45.9673 20.2012 45.9528 20.1765 45.9443C19.7061 45.7818 19.0759 45.6779 18.5151 45.8925C17.9444 46.1109 17.487 46.6423 17.3292 47.6544C17.3177 47.668 17.2965 47.6853 17.2572 47.7033C17.2027 47.7283 17.1264 47.7483 17.0294 47.7616C16.8355 47.788 16.5895 47.7836 16.3414 47.764C16.0951 47.7445 15.8548 47.7107 15.6755 47.6815C15.586 47.667 15.512 47.6537 15.4607 47.6441C15.435 47.6393 15.4149 47.6354 15.4014 47.6327L15.3862 47.6297L15.3824 47.6289L15.3813 47.6287C15.3599 47.6243 15.3379 47.6244 15.3165 47.6289L14.2879 47.8493C14.2492 47.8576 14.215 47.8802 14.1922 47.9126L8.38819 56.1412C8.34716 56.1993 8.35025 56.2778 8.39571 56.3326L11.6283 60.2264C11.6587 60.2629 11.7039 60.2838 11.7514 60.2832C11.799 60.2827 11.8437 60.2606 11.8731 60.2233L18.4853 51.8479C18.5045 51.8236 18.5161 51.7942 18.5187 51.7633L18.6848 49.7556L19.8281 51.0339C19.8533 51.0622 19.8879 51.0803 19.9254 51.0852C20.3594 51.1409 20.8003 51.154 21.2282 50.9737L24.9675 55.1472L24.4231 55.6784C24.3622 55.7378 24.3595 55.8349 24.417 55.8976L25.0096 56.5436C25.0621 56.6008 25.1484 56.6113 25.213 56.5682C25.3275 56.492 25.4387 56.4085 25.5458 56.3282C25.6113 56.2791 25.6752 56.2311 25.7389 56.1852C25.7529 56.2054 25.7673 56.2263 25.782 56.2476L25.7829 56.2489C25.7888 56.2574 25.7947 56.266 25.8006 56.2745C25.8067 56.2834 25.8129 56.2923 25.819 56.3012C25.7082 56.372 25.6078 56.4469 25.5121 56.5183L25.5089 56.5206C25.3938 56.6065 25.2851 56.6874 25.1656 56.7595C24.6758 56.4293 24.2917 56.0577 24.3229 55.5062C24.3265 55.4436 24.2925 55.3849 24.2365 55.3567C24.1805 55.3285 24.1131 55.3362 24.0649 55.3764L21.8609 57.213C21.8332 57.236 21.8143 57.2678 21.8072 57.3031L21.7448 57.6159L15.2842 62.9874L14.7421 63.0553C14.6684 63.0645 14.6112 63.1239 14.6048 63.1979L14.458 64.8877C14.4525 64.951 14.4855 65.0113 14.5417 65.0408C14.598 65.0703 14.6664 65.0632 14.7153 65.0227L18.9765 61.4963C19.0127 61.4664 19.0336 61.4219 19.0336 61.3749V61.1967L19.2161 61.3487C19.2735 61.3967 19.3568 61.3975 19.4153 61.3507L22.5893 58.8117L22.59 58.8129C22.5696 58.8295 22.5464 58.8489 22.521 58.8704C22.4342 58.944 22.3151 59.0483 22.1754 59.1725C21.8956 59.4211 21.53 59.7522 21.1671 60.0829C20.804 60.4137 20.4434 60.7445 20.1734 60.9925C20.0385 61.1166 19.9262 61.2199 19.8477 61.2923L19.7243 61.406C19.7017 61.4268 19.6857 61.4538 19.6783 61.4836L19.6171 61.7287L19.2369 62.0546L19.044 61.9099C18.9841 61.865 18.9008 61.8685 18.8449 61.9182L14.9222 65.4049H14.3945C14.3527 65.4049 14.3127 65.4214 14.2831 65.451L12.1196 67.6149C11.5721 67.6638 11.0599 67.7329 10.5583 68.0775C10.5531 68.0811 10.548 68.0851 10.5433 68.0893L6.59525 71.5749C6.53083 71.6318 6.5239 71.7298 6.57966 71.7952L9.05826 74.7014C9.06943 74.7144 9.08266 74.7256 9.09744 74.7344C9.26223 74.8327 9.42781 74.8845 9.59604 74.8827C9.7644 74.881 9.92174 74.8258 10.0701 74.7325C10.0841 74.7237 10.0967 74.7127 10.1073 74.7L13.7807 70.292L13.7822 70.2901L15.3231 68.3825L15.3242 68.3812C15.5687 68.0907 15.6621 67.7665 15.6572 67.4673L18.4994 64.9417L19.0572 64.9953C19.139 65.0032 19.2131 64.9468 19.2274 64.8659C19.2417 64.785 19.1913 64.7067 19.1118 64.6861C19.0466 64.6692 18.9918 64.6501 18.9492 64.6286C18.9058 64.6068 18.884 64.587 18.8742 64.5734C18.8674 64.564 18.8639 64.5551 18.8662 64.5371C18.8689 64.5161 18.8807 64.479 18.9181 64.4232L19.4361 64.0204L19.7751 64.4562L19.0968 65.258H18.3619C18.3228 65.258 18.2852 65.2726 18.2562 65.2988L16.7132 66.6948C16.68 66.7248 16.6611 66.7676 16.6614 66.8125C16.6617 66.8573 16.681 66.8999 16.7146 66.9296L17.359 67.4991L18.3607 70.2451C18.3775 70.2912 18.4149 70.3268 18.4617 70.3415C18.5085 70.3561 18.5595 70.3481 18.5995 70.3198L19.8485 69.438C19.9031 69.3995 19.9274 69.3308 19.9093 69.2666L19.1252 66.4864L20.8286 64.6408C20.8773 64.5881 20.8842 64.5091 20.8454 64.4488L20.2432 63.5123L20.5321 63.1271C20.5719 63.1515 20.6208 63.1812 20.6782 63.2156C20.8507 63.3193 21.0995 63.4661 21.4053 63.6389C22.0166 63.9844 22.8571 64.4348 23.7722 64.8532C24.6863 65.2712 25.68 65.6596 26.5968 65.8786C27.5008 66.0945 28.3613 66.1534 28.9973 65.8806C29.0249 65.8711 29.0463 65.8554 29.0593 65.8427C29.0818 65.8207 29.0925 65.7972 29.0961 65.789C29.105 65.769 29.1097 65.7489 29.1122 65.7372C29.118 65.7102 29.1227 65.6753 29.127 65.6376C29.1356 65.5603 29.1441 65.4512 29.1523 65.3227C29.1687 65.065 29.1845 64.7203 29.1983 64.3761C29.2121 64.0316 29.2239 63.6865 29.2323 63.4276C29.2364 63.2981 29.2398 63.1902 29.242 63.1146L29.2455 62.9956C29.2479 62.9133 29.1864 62.8431 29.1045 62.8345L29.0881 62.9911C29.1045 62.8345 29.1043 62.8345 29.1043 62.8345L29.1001 62.834L29.0868 62.8326C29.0751 62.8313 29.0575 62.8294 29.0345 62.8269C28.9886 62.8218 28.921 62.8141 28.8349 62.8039C28.6626 62.7835 28.4162 62.7529 28.12 62.7123C27.5273 62.631 26.7364 62.5099 25.9418 62.35C25.1455 62.1898 24.3524 61.9922 23.7521 61.7595C23.4513 61.6429 23.2071 61.5205 23.0364 61.3948C22.8617 61.2662 22.79 61.1535 22.7793 61.0625C22.7466 60.7853 22.8079 60.5793 22.9107 60.4222C23.0155 60.262 23.1705 60.1425 23.3389 60.054C23.5071 59.9657 23.6817 59.9122 23.8159 59.8808C23.8826 59.8652 23.9383 59.8553 23.9769 59.8494C23.9961 59.8464 24.011 59.8444 24.0208 59.8432C24.0241 59.8428 24.0268 59.8425 24.0289 59.8423C24.0299 59.8422 24.0307 59.8421 24.0315 59.842L24.0338 59.8417L24.034 59.8417C24.0896 59.8364 24.1382 59.802 24.1617 59.7513C24.1853 59.7006 24.1802 59.6412 24.1484 59.5953L23.5294 58.7016L23.5715 58.5544L24.4831 59.7091C24.5096 59.7427 24.5487 59.7641 24.5913 59.7683C24.6339 59.7725 24.6763 59.7592 24.7089 59.7314L27.0887 57.7014L41.6799 74.3356C41.7241 74.386 41.7953 74.4029 41.8575 74.3777C42.2571 74.2157 42.5377 74.0727 42.7164 73.8466C42.8982 73.6166 42.9563 73.3246 42.9842 72.9202C42.9872 72.877 42.9723 72.8347 42.9433 72.803L42.9421 72.8016L42.9341 72.7926L42.7806 72.6169C42.6742 72.4949 42.5187 72.3165 42.3211 72.0898C41.9259 71.6365 41.3626 70.9899 40.6871 70.2145C39.3361 68.6639 37.5368 66.5982 35.7381 64.5331C33.9394 62.468 32.1413 60.4036 30.7929 58.8554L28.6393 56.3827L29.644 55.3113C29.645 55.3102 29.646 55.3091 29.6469 55.308C29.7536 55.1878 29.8438 55.0832 29.9015 54.9525C29.9533 54.8351 29.9749 54.707 29.9796 54.5412L31.5458 53.1792C31.9661 53.3437 32.2439 53.6108 32.4839 53.9685C32.5089 54.0057 32.5485 54.0306 32.593 54.0367C32.6374 54.0429 32.6823 54.0299 32.7165 54.0009L37.268 50.1437C37.351 50.1914 37.4517 50.2283 37.5533 50.2491C37.7138 50.2821 37.9118 50.2823 38.0825 50.1892C38.0947 50.1825 38.1061 50.1743 38.1162 50.1646L45.7966 42.7924ZM28.975 65.5763C28.975 65.5764 28.975 65.5763 28.975 65.5763C28.983 65.5779 28.9912 65.58 28.9997 65.583C28.9916 65.5801 28.9833 65.5779 28.975 65.5763ZM28.2385 54.0714C28.2568 54.0549 28.2708 54.0345 28.2797 54.0118L28.3789 54.2102C28.3498 54.2356 28.3148 54.2663 28.2754 54.3007C28.1585 54.4026 28.0028 54.5377 27.8473 54.6703C27.6914 54.8032 27.537 54.9326 27.4222 55.0238C27.4071 55.0357 27.3929 55.0469 27.3796 55.0571C27.3595 55.0311 27.3379 55.005 27.3175 54.9809C27.3049 54.966 27.2916 54.9507 27.2788 54.9359L28.2385 54.0714Z" fill="black"/>
</svg>
