<svg width="120" height="120" viewBox="0 0 120 120" fill="none" xmlns="http://www.w3.org/2000/svg">
<path d="M102.426 17.5736L17.5736 102.426C6.71573 91.5685 0 76.5685 0 60C0 26.8629 26.8629 0 60 0C76.5685 0 91.5685 6.71573 102.426 17.5736Z" fill="#0F3296"/>
<path d="M17.5735 102.426C28.4314 113.284 43.4314 120 59.9999 120C93.137 120 120 93.1371 120 60C120 43.4315 113.284 28.4315 102.426 17.5736L17.5735 102.426Z" fill="#1E9A1C"/>
<path d="M112.715 31.3216L31.3217 112.715C21.1815 107.187 12.8128 98.8185 7.28467 88.6784L88.6785 7.28455C98.8186 12.8127 107.187 21.1814 112.715 31.3216Z" fill="white"/>
<path d="M110.477 27.5508L27.5507 110.477C20.3311 105.826 14.1737 99.6689 9.52295 92.4492L92.4491 9.52307C99.6687 14.1738 105.826 20.3312 110.477 27.5508Z" fill="#E23726"/>
<path d="M18.5488 16.6201C18.7503 16.4276 18.953 16.2365 19.1571 16.0468L25.2235 21.0889C23.1591 21.6412 21.3141 22.7304 19.8472 24.1975L18.5488 16.6201Z" fill="#FDD406"/>
<path d="M12.049 23.929C12.2881 23.6117 12.5303 23.2968 12.7755 22.9844L19.8472 24.1975C18.3802 25.6649 17.2911 27.5107 16.7392 29.5756L12.049 23.929Z" fill="#FDD406"/>
<path d="M31.4376 21.0874L28.3333 12.682L25.229 21.0874C26.2191 20.823 27.2597 20.682 28.3333 20.682C29.4068 20.682 30.4474 20.823 31.4376 21.0874Z" fill="#FDD406"/>
<path d="M31.443 21.0889C33.5074 21.6412 35.3524 22.7304 36.8193 24.1975L38.3333 15.362L31.443 21.0889Z" fill="#FDD406"/>
<path d="M39.9273 29.5756C39.3754 27.5107 38.2863 25.6649 36.8193 24.1975L45.6533 22.682L39.9273 29.5756Z" fill="#FDD406"/>
<path d="M39.9282 29.5791C40.1924 30.5689 40.3333 31.609 40.3333 32.682C40.3333 33.7558 40.1922 34.7967 39.9276 35.7871L48.3333 32.682L39.9282 29.5791Z" fill="#FDD406"/>
<path d="M31.4412 44.2756C35.5708 43.1714 38.8226 39.9195 39.9269 35.79L45.6533 42.682L36.8193 41.168L38.3333 50.004L31.4412 44.2756Z" fill="#FDD406"/>
<path d="M31.4384 44.2764C30.448 44.541 29.4071 44.682 28.3333 44.682C27.2594 44.682 26.2186 44.541 25.2281 44.2764L28.3333 52.682L31.4384 44.2764Z" fill="#FDD406"/>
<path d="M16.7396 35.79C17.8439 39.9195 21.0957 43.1714 25.2253 44.2756L18.3333 50.004L19.8473 41.168L11.0133 42.682L16.7396 35.79Z" fill="#FDD406"/>
<path d="M16.7389 35.7871C16.4743 34.7967 16.3333 33.7558 16.3333 32.682C16.3333 31.609 16.4741 30.5689 16.7383 29.5791L8.33325 32.682L16.7389 35.7871Z" fill="#FDD406"/>
<path d="M28.3333 22.682C22.8104 22.682 18.3333 27.1592 18.3333 32.682C18.3333 38.2049 22.8104 42.682 28.3333 42.682C33.8561 42.682 38.3333 38.2049 38.3333 32.682C38.3333 27.1592 33.8561 22.682 28.3333 22.682Z" fill="#FDD406"/>
</svg>
