<svg width="120" height="120" viewBox="0 0 120 120" fill="none" xmlns="http://www.w3.org/2000/svg">
<circle cx="60" cy="60" r="60" fill="#0F3296"/>
<path d="M120 59.7553V60.2447C119.972 67.1693 118.771 73.8172 116.586 80H3.41411C1.20308 73.7444 0 67.0127 0 60C0 52.9873 1.20308 46.2556 3.41411 40H116.586C118.771 46.1828 119.972 52.8307 120 59.7553Z" fill="white"/>
<path d="M41.9998 59.8656L43.9955 59.999L44.0151 59.7074L43.2302 59.655L43.2909 58.693L44.1231 58.0896L44.1479 57.72L43.2704 58.3572C43.2408 58.1496 43.126 57.9358 42.9174 57.8636C42.7348 57.7976 42.511 57.786 42.3528 57.9166C42.1522 58.0642 42.116 58.3282 42.09 58.558L41.9998 59.8656ZM42.3038 59.5932L42.3738 58.6104C42.3986 58.4488 42.4282 58.262 42.5698 58.159C42.6978 58.0742 42.8866 58.1374 42.939 58.2818C43.0434 58.5312 42.997 58.8062 42.9836 59.0678L42.9456 59.636L42.3038 59.5932ZM42.2596 56.801L44.2071 57.2558L44.6497 55.3602L44.3731 55.2954L43.9965 56.908L43.4037 56.7696L43.7429 55.3164L43.4675 55.2522L43.1284 56.7054L42.6038 56.5828L42.9662 55.0308L42.6882 54.9658L42.2596 56.801ZM42.9612 54.1856L44.8501 54.8426L44.9461 54.5666L44.2031 54.3082L44.4955 53.4514C44.5595 53.216 44.6089 52.941 44.4703 52.722C44.3579 52.5602 44.1579 52.4566 43.9603 52.4628C43.7428 52.472 43.5653 52.6322 43.4688 52.8178C43.326 53.0862 43.2462 53.3814 43.142 53.6658L42.9612 54.1856ZM43.3261 54.0032L43.6281 53.1524C43.6961 53.0026 43.7791 52.825 43.9515 52.7774C44.0931 52.7448 44.2417 52.8538 44.2541 52.999C44.2887 53.2662 44.1719 53.5184 44.0899 53.7664L43.9339 54.2146L43.3261 54.0032ZM44.0045 51.7664L45.0721 52.3878C45.2741 52.4964 45.5301 52.5586 45.7415 52.437C46.0295 52.2774 46.2101 51.9828 46.3515 51.6954C46.4633 51.4534 46.5441 51.1528 46.4019 50.9054C46.2489 50.6584 45.9707 50.5448 45.7333 50.3974L45.0419 49.993L44.8951 50.2438L45.9123 50.841C46.0737 50.9392 46.2073 51.117 46.1795 51.3148C46.1475 51.5504 46.0129 51.757 45.8789 51.9476C45.7681 52.1016 45.5823 52.2262 45.3849 52.1846C45.1791 52.1452 45.0119 52.0106 44.8311 51.9132L44.1511 51.5154L44.0045 51.7664ZM45.4451 49.4122L47.0335 50.6276L47.7737 49.6628C47.9161 49.4584 48.0473 49.1928 47.9509 48.942C47.8631 48.7424 47.6577 48.588 47.4373 48.578C47.3379 48.564 47.2083 48.6394 47.1545 48.6726C47.2111 48.4594 47.0365 48.259 46.8401 48.2026C46.6037 48.1186 46.3641 48.2702 46.2075 48.4382C46.0235 48.6384 45.8699 48.864 45.7015 49.0772L45.4451 49.4122ZM45.8479 49.3526L46.4045 48.6374C46.4951 48.5366 46.6405 48.4224 46.7809 48.4964C46.9089 48.5518 46.9405 48.7134 46.8793 48.8296C46.7823 49.0376 46.6221 49.2062 46.4885 49.3906L46.2705 49.6758L45.8479 49.3526ZM46.4951 49.8478L47.0731 49.1072C47.1771 48.9984 47.3077 48.8614 47.4725 48.8928C47.6135 48.9252 47.7159 49.078 47.6673 49.22C47.5879 49.4818 47.3921 49.6822 47.2343 49.8992L46.9863 50.2236L46.4951 49.8478ZM47.2459 47.2908L48.6193 48.7446L49.7959 47.633L49.6007 47.4264L48.6597 48.3156L48.6357 48.3384L48.6181 48.32L47.4571 47.0912L47.2459 47.2908ZM49.0067 45.7502L50.2257 47.3358L50.4637 47.1528L49.2445 45.5674L49.0067 45.7502ZM50.7979 44.5338C50.6003 44.6568 50.4411 44.8008 50.3183 44.969C50.1955 45.1372 50.1301 45.311 50.1205 45.4934C50.1109 45.6758 50.1597 45.8522 50.2671 46.0248C50.3636 46.1807 50.5001 46.308 50.6623 46.3936C50.8263 46.4814 51.0035 46.5138 51.1975 46.4922C51.3915 46.4706 51.6085 46.3852 51.8515 46.2338C52.0845 46.0886 52.2495 45.9214 52.3515 45.729C52.4484 45.5485 52.4779 45.3395 52.4347 45.1394L52.1581 45.248C52.2305 45.6476 51.9727 45.8396 51.6841 46.0228C51.2323 46.2976 50.7921 46.2778 50.5225 45.8648C50.2429 45.3994 50.5485 45.0148 50.9327 44.7648C51.2055 44.5948 51.4743 44.4784 51.7303 44.6412L51.9467 44.4484C51.7977 44.3456 51.6283 44.298 51.4357 44.3084C51.2333 44.3196 51.0219 44.3942 50.7979 44.5338ZM53.1613 43.3544L52.9519 45.5956L53.2633 45.47L53.3263 44.7752L53.3275 44.7746L54.3391 44.3666L54.8665 44.8234L55.1779 44.698L53.4727 43.2288L53.1611 43.3544H53.1613ZM53.4349 43.5842L54.0999 44.1596L53.3553 44.46L53.4349 43.5842ZM57.5449 42.118L57.6697 44.114L58.7525 44.043C59.0361 44.0104 59.3403 43.9368 59.5341 43.711C59.7843 43.4336 59.8199 43.0188 59.7103 42.6734C59.6183 42.3694 59.3449 42.1392 59.0353 42.0808C58.7303 42.0222 58.4195 42.0686 58.1125 42.0824L57.5449 42.118ZM57.8529 42.3834L58.7147 42.3386C58.8786 42.3329 59.0397 42.3823 59.1723 42.4788C59.3723 42.6156 59.4899 42.862 59.4637 43.1038C59.4493 43.3818 59.2449 43.6376 58.9747 43.7078C58.8203 43.7478 58.6595 43.7592 58.5013 43.7766L57.9421 43.8116L57.8527 42.3836L57.8529 42.3834ZM60.3325 41.9998L60.2185 43.9966L62.1619 44.1076L62.1779 43.824L60.5247 43.7296L60.5595 43.1216L62.0493 43.2068L62.0653 42.9246L60.5755 42.8394L60.6063 42.3016L62.1975 42.3924L62.2139 42.1074L60.3325 41.9998ZM65.5545 42.833L64.8313 44.6976L65.0885 44.7976L65.6619 43.319L65.6917 43.2422L65.7237 43.3276L66.4133 45.3112L66.7501 45.4418L67.4732 43.5772L67.2153 43.4772L66.6423 44.955L66.6131 45.0304L66.5815 44.946L65.8907 42.9634L65.5545 42.833ZM68.2413 43.9872L67.3321 45.7686L67.0649 45.6322L67.9741 43.8508L68.2413 43.9872ZM69.7498 44.871C69.5556 44.743 69.3582 44.658 69.1542 44.6168C68.9503 44.5756 68.7649 44.5884 68.5953 44.6558C68.4257 44.7232 68.2852 44.841 68.1732 45.0108C68.0718 45.1635 68.0131 45.3406 68.0031 45.5238C67.9919 45.7094 68.036 45.8838 68.1368 46.0512C68.2376 46.2186 68.4057 46.3802 68.6443 46.5376C68.8737 46.689 69.0944 46.7692 69.3118 46.7816C69.5204 46.7932 69.7101 46.7364 69.8822 46.6112L69.6682 46.4052C69.3352 46.6378 69.0532 46.4836 68.7663 46.2976C68.3283 46.0016 68.1624 45.5934 68.4252 45.176C68.7316 44.7276 69.2086 44.845 69.596 45.09C69.8646 45.267 70.0824 45.4626 70.0412 45.7632L70.3068 45.8794C70.338 45.701 70.3108 45.5274 70.2206 45.3566C70.126 45.1774 69.9702 45.0164 69.7498 44.871ZM71.654 46.3074L69.5632 47.1414L69.817 47.3614L70.4642 47.1012L70.4652 47.1022L71.289 47.8172L71.1224 48.4946L71.376 48.7148L71.9076 46.5276L71.654 46.3076V46.3074ZM71.574 46.6556L71.3644 47.5096L70.758 46.9834L71.574 46.6556ZM73.1646 47.697L71.6214 48.9696L71.8072 49.195L72.4142 48.6944L73.0302 49.4358L72.8388 50.4458L73.0744 50.7318L73.2756 49.6658C73.4484 49.8074 73.701 49.8786 73.9076 49.7664C74.0852 49.6824 74.2416 49.5208 74.2508 49.315C74.2724 49.0392 74.0758 48.8158 73.9184 48.6112L73.1646 47.697ZM73.1306 48.1038L73.7798 48.9034C73.8748 49.045 73.9934 49.2438 73.8844 49.409C73.7944 49.5504 73.5974 49.538 73.4764 49.4464C73.2316 49.2816 73.0698 49.029 72.8786 48.8096L72.634 48.513L73.1306 48.1038ZM75.5042 50.88L73.2556 50.983L73.4232 51.2742L74.12 51.2402L74.1206 51.2414L74.6646 52.1868L74.2854 52.7724L74.4528 53.0634L75.6716 51.171L75.5042 50.88ZM75.3146 51.1828L74.8366 51.921L74.4362 51.225L75.3146 51.183V51.1828ZM76.7874 53.5274C76.6624 53.188 76.4652 52.8406 76.1314 52.671C75.7602 52.4844 75.2658 52.575 75.0026 52.902C74.7732 53.174 74.7614 53.5582 74.8226 53.8924C74.895 54.276 75.071 54.6412 75.3352 54.9296L75.1858 54.9832L75.2816 55.2494L76.2184 54.9128L75.854 53.901L75.6376 53.979L75.9056 54.7246L75.5882 54.8386C75.3082 54.598 75.1522 54.2426 75.071 53.889C75.0108 53.6236 75.0084 53.3056 75.2096 53.097C75.4406 52.8566 75.85 52.782 76.127 52.987C76.4004 53.187 76.5548 53.5112 76.6328 53.8336C76.686 54.0456 76.6774 54.2976 76.5166 54.463C76.4716 54.4966 76.5428 54.5436 76.555 54.584L76.6314 54.7104C76.7159 54.6438 76.784 54.5587 76.8306 54.4618C76.8772 54.3648 76.901 54.2585 76.9002 54.151C76.9058 53.9382 76.859 53.727 76.7874 53.5274ZM77.3618 55.0892L76.2432 55.3068C76.0358 55.3472 75.8802 55.4128 75.7764 55.5004C75.6726 55.588 75.6064 55.7108 75.5746 55.8746C75.543 56.0366 75.5474 56.2352 75.594 56.4766C75.5945 56.4785 75.5948 56.4804 75.595 56.4824C75.6424 56.7238 75.7126 56.9094 75.8028 57.0478C75.8938 57.1878 76.0014 57.277 76.13 57.319C76.2586 57.361 76.428 57.364 76.6356 57.3236L77.754 57.106L77.6986 56.8206L76.607 57.033C76.117 57.1282 75.952 56.8704 75.8678 56.4292L75.8668 56.4236C75.7794 55.9832 75.8358 55.6822 76.3258 55.5868L77.4174 55.3746L77.3618 55.0892ZM77.9754 58.4932L75.9058 57.6082L75.93 57.9432L76.5724 58.2156V58.217L76.6512 59.305L76.055 59.6672L76.0792 60.0022L77.9996 58.8282L77.9754 58.4932ZM77.673 58.6834L76.9216 59.1404L76.8636 58.3396L77.673 58.6836V58.6834ZM43.5502 63.6668L43.2599 63.7432L43.5807 64.9616L43.8708 64.8854L43.5502 63.6668ZM76.4562 63.6668L76.7462 63.7432L76.4256 64.9616L76.1356 64.8852L76.4562 63.6668ZM46.6431 68.7976L44.4071 69.0548L44.5941 69.3338L45.2869 69.252L45.2877 69.2532L45.8955 70.1592L45.5571 70.7692L45.7443 71.0482L46.8303 69.0766L46.6431 68.7976ZM46.4747 69.1128L46.0487 69.882L45.6013 69.2154L46.4747 69.1128ZM47.4991 70.0194L46.0737 71.3524L46.2641 71.556L47.4653 70.4326L46.8351 72.1666L47.0533 72.4L48.7757 71.8772L47.5961 72.9804L47.7863 73.1838L49.2117 71.851L48.9227 71.5418L47.1725 72.0646L47.8277 70.3708L47.4991 70.0194ZM49.5753 72.1376L48.3721 73.7352L49.9273 74.9062L50.0981 74.6792L48.7753 73.6832L49.1415 73.1968L50.3335 74.0944L50.5037 73.8686L49.3117 72.971L49.6357 72.5406L50.9089 73.4994L51.0809 73.2714L49.5753 72.1376ZM51.5321 73.5698L50.5901 75.3344L50.8477 75.472L51.2183 74.778L52.0703 75.2288L52.2781 76.2356L52.6049 76.41L52.3849 75.348C52.5987 75.413 52.8593 75.3824 53.0075 75.2C53.1335 75.059 53.2191 74.8614 53.1587 74.672C53.0885 74.4114 52.8319 74.275 52.6153 74.1486L51.5321 73.5698ZM51.6555 73.9588L52.5605 74.4508C52.6973 74.5434 52.8711 74.6698 52.8539 74.8562C52.8387 75.0198 52.6623 75.107 52.5133 75.0722C52.2213 75.024 51.9753 74.85 51.7153 74.7202L51.3525 74.5264L51.6555 73.9588ZM53.7911 74.751L53.0353 76.6028L53.3133 76.716L54.0689 74.8644L53.7911 74.751ZM55.5947 75.374C55.3737 75.3006 55.1613 75.27 54.9535 75.283C54.7467 75.296 54.5701 75.3568 54.4237 75.466C54.2773 75.5752 54.1725 75.7254 54.1085 75.9182C54.0502 76.0921 54.0394 76.2785 54.0773 76.458C54.1147 76.64 54.2027 76.7972 54.3433 76.9326C54.4839 77.068 54.6883 77.1806 54.9597 77.2706C55.2205 77.357 55.4547 77.3774 55.6677 77.3326C55.8721 77.2898 56.0405 77.1858 56.1745 77.0202L55.9143 76.8766C55.6531 77.1878 55.3407 77.1122 55.0153 77.007C54.5153 76.835 54.2493 76.4838 54.3947 76.0124C54.5741 75.5 55.0653 75.4894 55.5031 75.6254C55.8083 75.7266 56.0695 75.859 56.1077 76.16L56.3943 76.2032C56.3783 76.0228 56.3067 75.8622 56.1755 75.7208C56.0375 75.5722 55.8453 75.4572 55.5947 75.374ZM57.6055 75.8242L56.2975 77.6562L56.6299 77.7042L57.0337 77.1352H57.0351L58.1147 77.2916L58.3407 77.9516L58.6731 77.9996L57.9379 75.8722L57.6055 75.8242ZM57.7265 76.1602L58.0117 76.9922L57.2171 76.8772L57.7265 76.1604V76.1602ZM62.2937 75.8384C62.0651 75.8824 61.8649 75.9598 61.6901 76.0728C61.5153 76.1858 61.3917 76.3248 61.3175 76.4916C61.2433 76.6584 61.2255 76.8408 61.2641 77.0404C61.2983 77.2206 61.38 77.3884 61.5009 77.5264C61.6224 77.6668 61.7848 77.766 61.9653 77.81C62.1533 77.859 62.3873 77.8572 62.6683 77.803C62.9379 77.751 63.1519 77.654 63.3159 77.5108C63.4733 77.3732 63.5693 77.2 63.6049 76.9902L63.3079 76.9922C63.2323 77.3916 62.9229 77.4784 62.5877 77.5462C62.0675 77.6408 61.6637 77.4646 61.5597 76.9824C61.4653 76.4476 61.8885 76.198 62.3369 76.1024C62.6525 76.0414 62.9451 76.029 63.1257 76.2728L63.3969 76.1702C63.2945 76.0199 63.1438 75.9093 62.9699 75.8566C62.7769 75.7946 62.5529 75.7884 62.2937 75.8384ZM63.6293 75.6018L64.1981 77.5192L66.0643 76.9654L65.9835 76.693L64.3961 77.164L64.2229 76.5804L65.6535 76.156L65.5731 75.885L64.1425 76.3094L63.9893 75.793L65.5173 75.3396L65.4359 75.0656L63.6293 75.6018ZM65.7929 74.9218L66.6325 76.737L66.8829 76.621L66.1827 75.1072L68.1195 76C68.1625 76.0374 68.2055 76.0124 68.2486 75.9894L68.5005 75.873L67.6609 74.0578L67.4099 74.1738L68.1092 75.6858L66.1201 74.7704L65.7929 74.9218ZM67.9891 73.8902L68.1456 74.1282L68.86 73.6582L68.8872 73.6402L68.9006 73.6608L69.83 75.0728L70.0728 74.913L69.1434 73.501L69.13 73.4804L69.1576 73.4624L69.8756 72.9898L69.7188 72.7518L67.9891 73.8902ZM70.0014 72.5122L71.3568 73.9832L71.5718 73.7852L71.0386 73.2068L71.745 72.551L72.764 72.6866L73.0364 72.4356L71.9612 72.2932C72.0932 72.1128 72.1502 71.8566 72.0268 71.6566C71.9332 71.484 71.7632 71.3366 71.5572 71.3386C71.2808 71.3324 71.0684 71.541 70.8728 71.7094L70.0014 72.5122ZM70.4094 72.5238L71.1722 71.8318C71.3082 71.729 71.5002 71.5998 71.6714 71.6994C71.8174 71.7814 71.816 71.979 71.731 72.1046C71.5798 72.3586 71.336 72.534 71.1274 72.7372L70.8454 72.9972L70.4094 72.5238ZM72.3282 70.1834L73.2228 72.2488L73.4356 71.9888L73.1564 71.3494L73.1572 71.3484L73.8478 70.5042L74.5298 70.651L74.7426 70.391L72.5406 69.9236L72.3282 70.1836V70.1834ZM72.6786 70.2532L73.5386 70.4378L73.03 71.0592L72.6786 70.2532ZM73.1992 69.0504L74.8772 70.1384L75.7578 68.7804L75.5194 68.626L74.815 69.7122L74.797 69.7402L74.7758 69.7262L73.3574 68.8066L73.1992 69.0504Z" fill="#D3AE3B"/>
<path d="M59.9999 45.275L47.2595 67.3414H72.7398L59.9999 45.275Z" fill="white"/>
<path opacity="0.62" d="M60.4838 46.1132L59.9999 45.275L59.5164 46.1124L59.9667 56.6159L59.029 46.9566L58.3375 48.1543L59.9007 56.6255L58.0005 48.738L57.492 49.6186L59.8365 56.6439L57.2371 50.0601L56.8337 50.7589L59.7755 56.6711L56.6272 51.1165L56.2874 51.7051L59.7188 56.7063L56.1105 52.0114L55.8098 52.5323L59.6678 56.7493L55.6507 52.8079L55.3726 53.2894L59.6231 56.7989L55.2231 53.5484L54.9556 54.0118L59.5858 56.8542L54.8091 54.2655L54.5415 54.7289L59.5565 56.9142L54.392 54.9879L54.114 55.4694L59.536 56.9777L53.9549 55.745L53.6541 56.2659L59.5242 57.0434L53.4772 56.5723L53.1374 57.1608L59.5221 57.1101L52.9309 57.5185L52.5275 58.2173L59.529 57.1765L52.2725 58.6588L51.7641 59.5395L59.5451 57.2413L51.427 60.1232L50.7355 61.3209L59.57 57.3032L50.248 62.1653L49.759 63.0122L50.7173 63.0123L59.6035 57.3609L51.0349 63.4831L50.672 64.3814L51.6314 64.2466L59.6446 57.4136L52.0114 64.6686L51.777 65.6087L52.7083 65.3417L59.6926 57.4599L53.1434 65.7067L53.0422 66.6702L53.9272 66.2762L59.7466 57.4992L54.4089 66.5772L54.4356 67.3414H54.7692L55.2643 67.032L59.8054 57.5306L55.7831 67.263L55.797 67.3414H56.7736L59.8682 57.5533L57.3451 67.3414H58.29L59.9335 57.5673L58.8277 67.3414H59.7366L60.0001 57.5718L60.2636 67.3414H61.1725L60.0667 57.5673L61.7102 67.3414H62.6551L60.132 57.5533L63.2266 67.3414H64.2032L64.217 67.263L60.1947 57.5305L64.7359 67.032L65.231 67.3414H65.5646L65.5913 66.5772L60.2536 57.4991L66.073 66.2762L66.958 66.6702L66.8568 65.7067L60.3076 57.4599L67.2919 65.3417L68.2232 65.6087L67.9888 64.6686L60.3557 57.4136L68.3688 64.2466L69.3282 64.3814L68.9653 63.4831L60.3968 57.361L69.2829 63.0123L70.2404 63.0122L69.751 62.1647L60.4302 57.3032L69.2636 61.3205L68.5722 60.1229L60.455 57.2413L68.2352 59.5392L67.7268 58.6586L60.4712 57.1765L67.4719 58.2171L67.0685 57.5184L60.4783 57.1101L66.8621 57.1608L66.5223 56.5723L60.4759 57.0434L66.3454 56.266L66.0447 55.7451L60.4643 56.9777L65.8857 55.4696L65.6077 54.9881L60.4437 56.9142L65.4582 54.7292L65.1906 54.2658L60.4143 56.8543L65.0442 54.0121L64.7766 53.5487L60.3772 56.7988L64.6271 53.2898L64.3491 52.8083L60.3324 56.7493L64.1901 52.5327L63.8894 52.0119L60.2813 56.7064L63.7125 51.7055L63.3727 51.1171L60.2247 56.6711L63.1663 50.7595L62.7629 50.0607L60.1637 56.6438L62.508 49.6192L61.9996 48.7387L60.0996 56.6255L61.6626 48.155L60.9712 46.9574L60.0335 56.6161L60.4838 46.1132Z" fill="#54AEF2"/>
<path d="M60.0001 55.4949L59.9733 55.4955L60.0001 56.1177L60.0269 55.4955L60.0001 55.4949Z" fill="white"/>
<path d="M61.5202 56.5993L61.5114 56.574L60.9279 56.7918L61.5279 56.625L61.5202 56.5993Z" fill="white"/>
<path d="M60.9609 58.3702L60.9396 58.3864L60.9175 58.4017L60.5735 57.8826L60.9609 58.3702Z" fill="white"/>
<path d="M59.0605 58.3864L59.0826 58.4017L59.4266 57.8826L59.0392 58.3702L59.0605 58.3864Z" fill="white"/>
<path d="M58.4722 56.625L58.4799 56.5993L58.4887 56.574L59.0722 56.7918L58.4722 56.625Z" fill="white"/>
<path d="M60.2225 55.5104L60.1959 55.5073L60.1358 56.1272L60.2489 55.5147L60.2225 55.5104Z" fill="white"/>
<path d="M61.5689 56.7894L61.5741 56.8157L61.5782 56.8422L60.9608 56.9239L61.5689 56.7894Z" fill="white"/>
<path d="M60.7504 58.5046L60.7738 58.4915L60.458 57.9547L60.7265 58.5166L60.7504 58.5046Z" fill="white"/>
<path d="M58.9094 58.2612L58.8897 58.2431L58.8708 58.224L59.3223 57.7951L58.9094 58.2612Z" fill="white"/>
<path d="M58.5634 56.3926L58.5522 56.4169L59.1232 56.6656L58.5757 56.3687L58.5634 56.3926Z" fill="white"/>
<path d="M60.4147 55.55L60.4407 55.5568L60.4662 55.5648L60.269 56.1555L60.4147 55.55Z" fill="white"/>
<path d="M61.5975 57.0375L61.596 57.0107L60.9751 57.0592L61.5978 57.0643L61.5975 57.0375Z" fill="white"/>
<path d="M60.5717 58.5855L60.5468 58.5953L60.5214 58.6039L60.3337 58.01L60.5717 58.5855Z" fill="white"/>
<path d="M58.7405 58.0773L58.7575 58.0981L59.2313 57.6939L58.7245 58.0559L58.7405 58.0773Z" fill="white"/>
<path d="M58.6605 56.222L58.675 56.1995L58.6904 56.1776L59.1913 56.5477L58.6605 56.222Z" fill="white"/>
<path d="M60.6501 55.6331L60.6254 55.6227L60.3968 56.202L60.6744 55.6445L60.6501 55.6331Z" fill="white"/>
<path d="M61.5919 57.2336L61.5897 57.2604L61.5863 57.2869L60.9703 57.1953L61.5919 57.2336Z" fill="white"/>
<path d="M60.3323 58.6567L60.3584 58.6506L60.2028 58.0476L60.306 58.6617L60.3323 58.6567Z" fill="white"/>
<path d="M58.6297 57.9154L58.6158 57.8925L58.6029 57.869L59.1551 57.5811L58.6297 57.9154Z" fill="white"/>
<path d="M58.8122 56.0237L58.7947 56.044L59.275 56.4405L58.8306 56.0042L58.8122 56.0237Z" fill="white"/>
<path d="M60.8241 55.7241L60.8471 55.7377L60.8695 55.7525L60.5171 56.2659L60.8241 55.7241Z" fill="white"/>
<path d="M61.551 57.48L61.5569 57.4538L60.9467 57.3293L61.5439 57.5058L61.551 57.48Z" fill="white"/>
<path d="M60.1383 58.6853L60.1116 58.6878L60.0848 58.689L60.0681 58.0665L60.1383 58.6853Z" fill="white"/>
<path d="M58.5181 57.692L58.5287 57.7167L59.0955 57.4587L58.5086 57.667L58.5181 57.692Z" fill="white"/>
<path d="M58.9525 55.8865L58.9727 55.8688L58.9936 55.8521L59.373 56.3459L58.9525 55.8865Z" fill="white"/>
<path d="M61.0275 55.8688L61.0066 55.8521L60.6272 56.3459L61.0477 55.8865L61.0275 55.8688Z" fill="white"/>
<path d="M61.4916 57.667L61.4821 57.6921L61.4715 57.7167L60.9047 57.4587L61.4916 57.667Z" fill="white"/>
<path d="M59.8886 58.6878L59.9154 58.689L59.932 58.0665L59.8619 58.6853L59.8886 58.6878Z" fill="white"/>
<path d="M58.4562 57.5058L58.4492 57.48L58.4433 57.4538L59.0535 57.3293L58.4562 57.5058Z" fill="white"/>
<path d="M59.1531 55.7378L59.1307 55.7525L59.4831 56.2659L59.1761 55.7241L59.1531 55.7378Z" fill="white"/>
<path d="M61.1695 56.0042L61.1879 56.0237L61.2054 56.0441L60.7251 56.4405L61.1695 56.0042Z" fill="white"/>
<path d="M61.3843 57.8925L61.3972 57.869L60.8449 57.5811L61.3704 57.9154L61.3843 57.8925Z" fill="white"/>
<path d="M59.6941 58.6617L59.6677 58.6567L59.6416 58.6506L59.7972 58.0476L59.6941 58.6617Z" fill="white"/>
<path d="M58.4104 57.2604L58.4138 57.2869L59.0298 57.1953L58.4082 57.2336L58.4104 57.2604Z" fill="white"/>
<path d="M59.3257 55.6445L59.3499 55.6331L59.3747 55.6227L59.6032 56.202L59.3257 55.6445Z" fill="white"/>
<path d="M61.3252 56.1995L61.3097 56.1776L60.8089 56.5477L61.3397 56.222L61.3252 56.1995Z" fill="white"/>
<path d="M61.2757 58.0559L61.2596 58.0773L61.2427 58.0981L60.7689 57.6939L61.2757 58.0559Z" fill="white"/>
<path d="M59.4534 58.5953L59.4788 58.6039L59.6664 58.01L59.4284 58.5855L59.4534 58.5953Z" fill="white"/>
<path d="M58.4023 57.0643L58.4027 57.0375L58.4042 57.0107L59.0251 57.0592L58.4023 57.0643Z" fill="white"/>
<path d="M59.5595 55.5568L59.5339 55.5647L59.7312 56.1555L59.5855 55.55L59.5595 55.5568Z" fill="white"/>
<path d="M61.4244 56.3688L61.4366 56.3926L61.4479 56.4169L60.8769 56.6656L61.4244 56.3688Z" fill="white"/>
<path d="M61.1104 58.2431L61.1292 58.224L60.6777 57.7951L61.0907 58.2613L61.1104 58.2431Z" fill="white"/>
<path d="M59.2736 58.5166L59.2496 58.5046L59.2262 58.4915L59.542 57.9547L59.2736 58.5166Z" fill="white"/>
<path d="M58.4259 56.8157L58.4219 56.8422L59.0392 56.9239L58.4312 56.7894L58.4259 56.8157Z" fill="white"/>
<path d="M59.7511 55.5148L59.7776 55.5104L59.8042 55.5073L59.8643 56.1272L59.7511 55.5148Z" fill="white"/>
<path d="M54.2062 55.3187C55.8162 53.9289 57.8731 53.1656 60 53.1687C62.1269 53.1659 64.1836 53.9291 65.7938 55.3187L68.7249 60.3999C68.8257 60.9441 68.876 61.4965 68.8749 62.0499H67.8687C67.8687 57.7047 64.3452 54.1811 60 54.1811C55.6548 54.1811 52.1312 57.7047 52.1312 62.0499H51.125C51.1239 61.4965 51.1741 60.9441 51.275 60.3999L54.2062 55.3187Z" fill="#E23726"/>
<path d="M53.9434 55.7812C55.5116 54.2662 57.6468 53.3312 59.9996 53.3312C62.3524 53.3312 64.4877 54.2664 66.0559 55.7812L68.4621 59.9438C68.6289 60.6172 68.7183 61.325 68.7183 62.05H67.8683C67.8683 57.7048 64.3448 54.1812 59.9996 54.1812C55.6544 54.1812 52.131 57.7048 52.131 62.05H51.281C51.2809 61.3422 51.3669 60.637 51.5372 59.95L53.9434 55.7812Z" fill="#FF7E3D"/>
<path d="M53.6122 56.3565C55.1798 54.5983 57.4594 53.4939 59.9998 53.4939L59.9996 53.4937C62.5398 53.4937 64.82 54.5985 66.3872 56.3561L68.1309 59.3751C68.4079 60.2171 68.5559 61.1155 68.5559 62.0501H67.8685C67.8685 57.7049 64.345 54.1813 59.9998 54.1813C55.6546 54.1813 52.131 57.7049 52.131 62.0501H51.4436C51.4422 61.1415 51.5857 60.2385 51.8686 59.3751L53.6122 56.3565Z" fill="#FDD406"/>
<path d="M53.0186 57.381C54.5254 55.1326 57.0898 53.6498 59.9998 53.6498V53.65C62.9074 53.65 65.4676 55.1296 66.9748 57.375L67.5437 58.3624C68.1071 59.51 68.3999 60.7714 68.3997 62.0498H67.8684C67.8684 57.7046 64.3448 54.181 59.9996 54.181C55.6544 54.181 52.131 57.7046 52.131 62.05H51.5996C51.5985 60.7693 51.8915 59.5055 52.456 58.356L53.0186 57.381Z" fill="#1E9A1C"/>
<path d="M51.7622 62.0499C51.7622 57.5003 55.4504 53.8123 59.9998 53.8123C64.5494 53.8123 68.2373 57.5003 68.2373 62.0499H67.8685C67.8685 57.7045 64.345 54.1811 59.9998 54.1811C55.6546 54.1811 52.131 57.7045 52.131 62.0499H51.7622Z" fill="#54AEF2"/>
<path d="M51.9248 62.0501C51.9248 57.5889 55.5386 53.9689 59.9998 53.9689C64.461 53.9689 68.0809 57.5889 68.0809 62.0501H67.8059C67.8059 57.7383 64.3116 54.2439 59.9998 54.2439C55.688 54.2439 52.1936 57.7381 52.1936 62.0501H51.9248Z" fill="#0F3296"/>
<path d="M52.0823 62.0491C52.0823 57.6763 55.6273 54.1313 60 54.1313C64.3728 54.1313 67.917 57.6763 67.917 62.0491L67.9156 62.1957H67.7562L67.7576 62.0491C67.7576 57.7647 64.2844 54.2915 60 54.2915C55.7157 54.2915 52.2425 57.7647 52.2425 62.0491C52.2424 62.098 52.2429 62.1469 52.2439 62.1957H52.0837L52.0823 62.0491Z" fill="#9063CD"/>
<path d="M60.0786 57.6266C59.9498 57.6018 59.8334 57.5298 59.7236 57.5046C59.5724 57.6496 59.5566 57.796 59.5774 57.9206C59.6298 57.9486 59.6394 57.9912 59.753 58.0926C59.8666 58.194 59.8522 58.2472 59.8454 58.4856C59.8424 58.5862 59.8594 58.8018 59.9612 58.822C60.0708 58.844 60.1476 58.7528 60.1792 58.59C60.2096 58.432 60.2626 58.3468 60.3188 58.2496C60.38 57.8792 60.2802 57.748 60.0786 57.6266Z" fill="#8A1538"/>
<path d="M59.4335 56.7047C59.3145 56.7077 59.1279 56.9071 59.0449 56.7997C58.9971 56.7381 58.9891 56.6193 59.0375 56.5197C59.1493 56.2895 59.2623 56.1765 59.4709 56.0537C59.9465 55.7735 60.2489 55.8637 60.4857 56.2663C60.7053 56.6207 60.9161 57.0123 60.9349 57.3405C60.9409 57.4407 60.9915 57.6221 60.9037 57.7125C60.6341 57.9905 59.9845 57.4255 59.6043 57.5149C59.4763 57.5449 59.3289 57.6383 59.2083 57.5585C59.1143 57.4965 59.1927 57.3591 59.2627 57.2997C59.3851 57.1957 59.5629 56.8267 59.5387 56.6667C59.5253 56.5775 59.5227 56.7025 59.4335 56.7047Z" fill="#E23726"/>
<path d="M59.385 56.5098C59.1684 56.5988 59.1918 56.725 59.083 56.8278C59.1138 56.8394 59.2362 56.8898 59.3558 56.7676C59.4074 56.7248 59.4654 56.709 59.4912 56.6952C59.4302 56.7394 59.3866 56.806 59.3544 56.832C59.2736 56.8978 59.1476 57.0486 59.0864 57.2012C59.0252 57.3538 59.0004 57.5358 59.0112 57.5576C59.022 57.5794 59.0964 57.7136 59.3244 57.804C59.7304 57.9654 59.8078 58.2918 60.2198 58.2918C60.5426 58.2918 60.4908 58.0806 60.749 58.1254C60.973 58.1642 61.0918 57.9862 60.8762 57.879C60.602 57.7854 60.0578 57.8406 59.8018 57.8856C59.719 57.069 59.7906 57.3556 59.7714 57.0046C59.7522 56.6536 59.6468 56.6326 59.7858 56.3484C59.6702 56.5228 59.5304 56.4952 59.385 56.5098Z" fill="#8A1538"/>
<path d="M60.1872 55.9587C60.1792 56.0033 60.1718 56.0619 60.176 56.0787L60.2316 56.2775C60.2546 56.3447 60.264 56.3935 60.2796 56.4631C60.296 56.5351 60.3598 56.5631 60.4184 56.6075C60.4924 56.6635 60.4352 56.8149 60.4814 56.8213C60.5182 56.8263 60.579 56.6069 60.5794 56.5719C60.5806 56.5287 60.5782 56.4854 60.572 56.4425C60.5455 56.3835 60.5171 56.3254 60.4868 56.2681C60.4745 56.245 60.461 56.2225 60.4462 56.2007C60.4021 56.1362 60.3492 56.0781 60.289 56.0281L60.2778 56.0187L60.226 55.9813L60.1872 55.9587Z" fill="#E23726"/>
<path d="M60.2495 57.4797C60.1059 57.4421 59.9643 57.3711 59.8421 57.3347C59.6021 57.2629 59.3461 57.1079 59.1689 57.1719C59.1055 57.1999 59.1111 57.2631 59.0909 57.3539C59.0825 57.4605 58.9717 57.6179 59.0637 57.5663C59.2007 57.4897 59.5617 57.7129 59.6827 57.7875C59.7401 57.8229 59.8611 57.8923 59.8991 57.9919C59.9371 58.0915 59.9175 58.3431 59.9073 58.4511C59.8967 58.5643 59.9311 58.8181 60.0445 58.8485C60.1667 58.8811 60.2601 58.7839 60.3077 58.6025C60.3537 58.4263 60.3887 58.3251 60.4591 58.2195C60.5295 58.1139 60.6103 58.0683 60.7231 58.0469C60.8359 58.0255 60.9995 58.1393 60.9995 58.0063C60.9995 57.9189 60.9227 57.8353 60.9555 57.7155C60.9811 57.6211 60.8751 57.6399 60.7871 57.6011C60.5799 57.5373 60.3931 57.5171 60.2495 57.4797Z" fill="#E23726"/>
<path d="M59.6724 57.7805C59.607 57.7449 59.2094 57.4849 59.0638 57.5663C59.0178 57.5919 59.0004 57.5631 58.9998 57.5149C58.9992 57.4667 59.0216 57.3961 59.0366 57.3417C59.0516 57.2873 59.0756 57.1833 59.1398 57.1293C59.2772 57.0133 59.5936 57.2443 59.7614 57.3065L59.6724 57.7805Z" fill="#8A1538"/>
<path d="M60.3521 58.2722C60.5353 57.9516 60.6537 57.9928 60.8747 57.9974C60.9485 57.999 60.9701 57.9316 60.9533 57.864C60.8977 57.9888 60.6209 57.85 60.4703 57.9166C60.1557 58.055 60.2143 58.6706 60.0649 58.7306C60.2201 58.8608 60.2897 58.3814 60.3521 58.2722Z" fill="#E23726"/>
<path d="M50.6204 61.5289L48.6294 64.9763H71.3709L69.3797 61.5289H50.6204Z" fill="white"/>
<path d="M69.9373 62.4876C69.8572 62.4877 69.7774 62.4884 69.6976 62.4891C69.5364 62.4904 69.3755 62.4918 69.2145 62.4886C68.8399 62.4886 68.4954 62.5314 68.1552 62.5737C67.8597 62.6105 67.5675 62.6468 67.2615 62.6544C66.9549 62.6469 66.6615 62.6105 66.365 62.5737C66.0241 62.5314 65.679 62.4886 65.3043 62.4886C65.1639 62.4867 65.0233 62.4879 64.883 62.4891H64.882C64.7204 62.4905 64.5591 62.4919 64.3992 62.4886C64.0248 62.4886 63.6794 62.5314 63.3384 62.5737C63.0417 62.6105 62.7483 62.6469 62.442 62.6544C62.1354 62.6469 61.8421 62.6105 61.5455 62.5737C61.2046 62.5314 60.8596 62.4886 60.4854 62.4886C60.3433 62.4867 60.2013 62.4879 60.0597 62.4891H60.0593C59.8976 62.4904 59.7364 62.4918 59.576 62.4886C59.2015 62.4886 58.8571 62.5314 58.517 62.5738C58.2213 62.6105 57.9289 62.6469 57.623 62.6544C57.3164 62.6469 57.0236 62.6105 56.7276 62.5737C56.3876 62.5314 56.0433 62.4886 55.6692 62.4886C55.5266 62.4866 55.3849 62.4878 55.2436 62.4891H55.2434C55.0831 62.4905 54.9234 62.4919 54.764 62.4886C54.3895 62.4886 54.0444 62.5314 53.7035 62.5737C53.4069 62.6105 53.1135 62.6469 52.8068 62.6544C52.5003 62.6469 52.207 62.6105 51.9104 62.5737C51.5696 62.5314 51.2245 62.4886 50.8502 62.4886C50.7092 62.4867 50.5681 62.4879 50.4273 62.4891H50.4264C50.3041 62.4902 50.1818 62.4912 50.0602 62.4902L49.9848 62.6208L50.3296 62.5866C50.6359 62.594 50.9292 62.6305 51.2257 62.6673C51.5667 62.7097 51.9121 62.7526 52.2868 62.7526H53.192C53.5663 62.7526 53.9114 62.7097 54.2522 62.6673L54.2524 62.6673C54.5489 62.6305 54.8421 62.594 55.1486 62.5866C55.4552 62.594 55.7494 62.6305 56.0469 62.6673C56.3888 62.7097 56.735 62.7526 57.1092 62.7526H58.0152C58.3895 62.7526 58.7338 62.7097 59.0737 62.6673C59.3695 62.6305 59.662 62.594 59.9682 62.5866C60.2746 62.594 60.5674 62.6305 60.8634 62.6673C61.2035 62.7097 61.5478 62.7526 61.922 62.7526H62.8306C63.2048 62.7526 63.5498 62.7097 63.8907 62.6674C64.1874 62.6305 64.4811 62.594 64.7879 62.5866C65.0947 62.594 65.3879 62.6305 65.6843 62.6673C66.025 62.7097 66.3699 62.7526 66.7443 62.7526H67.6503C68.0246 62.7526 68.3689 62.7097 68.7089 62.6673C69.0047 62.6305 69.2972 62.594 69.6033 62.5866C69.7406 62.5899 69.8752 62.599 70.0087 62.6112L69.9373 62.4876Z" fill="#021455"/>
<path d="M70.0665 62.7114C69.943 62.7104 69.8202 62.7115 69.6976 62.7125C69.5364 62.7138 69.3755 62.7152 69.2145 62.712C68.8399 62.712 68.4954 62.7548 68.1552 62.7971C67.8597 62.8339 67.5675 62.8702 67.2615 62.8778C66.9549 62.8703 66.6615 62.8339 66.365 62.7971C66.0241 62.7548 65.679 62.712 65.3043 62.712C65.1639 62.7101 65.0233 62.7113 64.883 62.7125H64.8821C64.7205 62.7139 64.5591 62.7153 64.3992 62.712C64.0248 62.712 63.6794 62.7548 63.3384 62.7971C63.0417 62.8339 62.7483 62.8703 62.442 62.8778C62.1354 62.8703 61.8421 62.8339 61.5455 62.7971C61.2046 62.7548 60.8596 62.712 60.4854 62.712C60.3432 62.7101 60.2012 62.7113 60.0595 62.7125H60.0593C59.8976 62.7138 59.7364 62.7152 59.576 62.712C59.2015 62.712 58.8571 62.7548 58.517 62.7972C58.2213 62.8339 57.9289 62.8703 57.623 62.8778C57.3164 62.8703 57.0236 62.8339 56.7276 62.7971C56.3876 62.7548 56.0433 62.712 55.6692 62.712C55.5266 62.71 55.3849 62.7113 55.2436 62.7125H55.2434C55.0831 62.7139 54.9234 62.7153 54.764 62.712C54.3895 62.712 54.0444 62.7548 53.7035 62.7971C53.4069 62.8339 53.1135 62.8703 52.8068 62.8778C52.5003 62.8703 52.207 62.8339 51.9104 62.7971C51.5696 62.7548 51.2245 62.712 50.8502 62.712C50.7091 62.7101 50.5679 62.7113 50.427 62.7125H50.4263C50.2638 62.7139 50.1017 62.7153 49.9408 62.712C49.9379 62.712 49.935 62.712 49.9322 62.712L49.848 62.8578L50.3296 62.81C50.6359 62.8174 50.9292 62.8539 51.2257 62.8907C51.5667 62.9331 51.9121 62.976 52.2868 62.976H53.192C53.5663 62.976 53.9114 62.9331 54.2522 62.8907C54.5487 62.8539 54.8421 62.8174 55.1486 62.81C55.4552 62.8174 55.7494 62.8539 56.0469 62.8907C56.3888 62.9331 56.735 62.976 57.1092 62.976H58.0152C58.3895 62.976 58.7338 62.9331 59.0737 62.8907C59.3695 62.8539 59.662 62.8174 59.9682 62.81C60.2746 62.8174 60.5674 62.8539 60.8634 62.8907C61.2035 62.9331 61.5478 62.976 61.922 62.976H62.8306C63.2048 62.976 63.5498 62.9331 63.8907 62.8908C64.1874 62.8539 64.4811 62.8174 64.7879 62.81C65.0947 62.8174 65.3879 62.8539 65.6843 62.8907C66.025 62.9331 66.3699 62.976 66.7443 62.976H67.6503C68.0246 62.976 68.3689 62.9331 68.7089 62.8907C69.0047 62.8539 69.2972 62.8174 69.6033 62.81C69.7876 62.8145 69.9671 62.8292 70.1455 62.8482L70.0665 62.7114Z" fill="#021455"/>
<path d="M70.1986 62.9401L70.1239 62.9346C69.981 62.9327 69.8391 62.9339 69.6976 62.9351C69.5364 62.9364 69.3755 62.9378 69.2145 62.9346C68.8399 62.9346 68.4954 62.9774 68.1552 63.0197C67.8597 63.0565 67.5675 63.0928 67.2615 63.1004C66.9549 63.0929 66.6615 63.0565 66.365 63.0197C66.0241 62.9774 65.679 62.9346 65.3043 62.9346C65.1639 62.9327 65.0233 62.9339 64.883 62.9351H64.8821C64.7205 62.9365 64.5592 62.9379 64.3992 62.9346C64.0248 62.9346 63.6794 62.9774 63.3384 63.0197C63.0417 63.0565 62.7483 63.0929 62.442 63.1004C62.1354 63.0929 61.8421 63.0565 61.5455 63.0197C61.2046 62.9774 60.8596 62.9346 60.4854 62.9346C60.3433 62.9327 60.2013 62.9339 60.0597 62.9351H60.0593C59.8976 62.9364 59.7364 62.9378 59.576 62.9346C59.2015 62.9346 58.8571 62.9774 58.517 63.0198C58.2213 63.0566 57.9289 63.0929 57.623 63.1004C57.3164 63.0929 57.0236 63.0565 56.7276 63.0197C56.3876 62.9774 56.0433 62.9346 55.6692 62.9346C55.5266 62.9326 55.3848 62.9339 55.2436 62.9351H55.2434C55.0831 62.9365 54.9234 62.9379 54.764 62.9346C54.3895 62.9346 54.0444 62.9774 53.7035 63.0197C53.4069 63.0565 53.1135 63.0929 52.8068 63.1004C52.5003 63.0929 52.207 63.0565 51.9104 63.0197C51.5696 62.9774 51.2245 62.9346 50.8502 62.9346C50.7092 62.9327 50.568 62.9339 50.4272 62.9351H50.4265C50.264 62.9365 50.1018 62.9379 49.9408 62.9346C49.8943 62.9346 49.8482 62.9352 49.8026 62.9365L49.7116 63.0939L50.3296 63.0326C50.6359 63.04 50.9292 63.0765 51.2257 63.1133C51.5667 63.1557 51.9121 63.1986 52.2868 63.1986H53.192C53.5663 63.1986 53.9114 63.1557 54.2522 63.1133L54.2524 63.1133C54.5489 63.0765 54.8421 63.04 55.1486 63.0326C55.4552 63.04 55.7494 63.0765 56.0469 63.1133C56.3888 63.1557 56.735 63.1986 57.1092 63.1986H58.0152C58.3895 63.1986 58.7338 63.1557 59.0737 63.1133C59.3695 63.0765 59.662 63.04 59.9682 63.0326C60.2746 63.04 60.5674 63.0765 60.8634 63.1133C61.2035 63.1557 61.5478 63.1986 61.922 63.1986H62.8306C63.2048 63.1986 63.5498 63.1557 63.8907 63.1134C64.1874 63.0765 64.4811 63.04 64.7879 63.0326C65.0947 63.04 65.3879 63.0765 65.6843 63.1133C66.025 63.1557 66.3699 63.1986 66.7443 63.1986H67.6503C68.0246 63.1986 68.3689 63.1557 68.7089 63.1133C69.0047 63.0765 69.2972 63.04 69.6033 63.0326C69.8349 63.0382 70.0591 63.0601 70.2829 63.0862L70.1986 62.9401Z" fill="#021455"/>
<path d="M70.3333 63.1734L70.1239 63.158C69.981 63.1561 69.8391 63.1573 69.6977 63.1585C69.5364 63.1598 69.3755 63.1612 69.2145 63.158C68.8399 63.158 68.4954 63.2008 68.1552 63.2432C67.8597 63.2799 67.5675 63.3163 67.2615 63.3238C66.9549 63.3163 66.6615 63.2799 66.365 63.2431C66.0241 63.2008 65.679 63.158 65.3043 63.158C65.1639 63.1561 65.0232 63.1573 64.8829 63.1585H64.8822C64.7206 63.1599 64.5592 63.1613 64.3992 63.158C64.0248 63.158 63.6794 63.2008 63.3384 63.2431C63.0417 63.2799 62.7483 63.3163 62.442 63.3238C62.1354 63.3163 61.8421 63.2799 61.5455 63.2431C61.2046 63.2008 60.8596 63.158 60.4854 63.158C60.3436 63.1561 60.2019 63.1573 60.0606 63.1585H60.0593C59.8976 63.1598 59.7364 63.1612 59.576 63.158C59.2016 63.158 58.8571 63.2008 58.5171 63.2432C58.2214 63.28 57.9289 63.3163 57.623 63.3238C57.3164 63.3163 57.0236 63.2799 56.7276 63.2431C56.3876 63.2008 56.0433 63.158 55.6692 63.158C55.5265 63.156 55.3847 63.1573 55.2433 63.1585C55.083 63.1599 54.9234 63.1613 54.764 63.158C54.3895 63.158 54.0444 63.2008 53.7035 63.2431C53.4069 63.2799 53.1135 63.3163 52.8068 63.3238C52.5003 63.3163 52.207 63.2799 51.9104 63.2431C51.5696 63.2008 51.2245 63.158 50.8502 63.158C50.7091 63.1561 50.5679 63.1573 50.427 63.1585H50.4263C50.2639 63.1599 50.1018 63.1613 49.9408 63.158C49.849 63.158 49.7591 63.1605 49.6706 63.165L49.5748 63.3309L50.3296 63.256C50.6359 63.2634 50.9292 63.2999 51.2257 63.3367C51.5667 63.3791 51.9121 63.422 52.2868 63.422H53.192C53.5663 63.422 53.9114 63.3791 54.2522 63.3367C54.5487 63.2999 54.8421 63.2634 55.1486 63.256C55.4552 63.2634 55.7494 63.2999 56.0469 63.3367C56.3887 63.3791 56.735 63.422 57.1092 63.422H58.0152C58.3895 63.422 58.7338 63.3791 59.0737 63.3367C59.3695 63.2999 59.662 63.2634 59.9682 63.256C60.2746 63.2634 60.5674 63.2999 60.8634 63.3368C61.2035 63.3791 61.5478 63.422 61.922 63.422H62.8306C63.2048 63.422 63.5498 63.3791 63.8907 63.3368C64.1874 63.2999 64.4811 63.2634 64.7879 63.256C65.0947 63.2634 65.3879 63.2999 65.6843 63.3367C66.025 63.3791 66.3699 63.422 66.7443 63.422H67.6503C68.0246 63.422 68.3689 63.3791 68.7089 63.3367C69.0047 63.2999 69.2972 63.2634 69.6033 63.256C69.8827 63.2628 70.1513 63.2932 70.4214 63.3261L70.3333 63.1734Z" fill="#021455"/>
<path d="M70.4679 63.4067L70.1239 63.3814C69.981 63.3795 69.8391 63.3807 69.6977 63.3819C69.5364 63.3832 69.3755 63.3846 69.2145 63.3814C68.8399 63.3814 68.4954 63.4242 68.1552 63.4666C67.8597 63.5033 67.5675 63.5397 67.2615 63.5472C66.9549 63.5397 66.6615 63.5033 66.365 63.4665C66.0241 63.4242 65.679 63.3814 65.3043 63.3814C65.1639 63.3795 65.0232 63.3807 64.8829 63.3819H64.8822C64.7205 63.3833 64.5592 63.3847 64.3992 63.3814C64.0248 63.3814 63.6794 63.4242 63.3384 63.4665C63.0417 63.5033 62.7483 63.5397 62.442 63.5472C62.1354 63.5397 61.8421 63.5033 61.5455 63.4665C61.2046 63.4242 60.8596 63.3814 60.4854 63.3814C60.3433 63.3795 60.2013 63.3807 60.0597 63.3819H60.0594C59.8977 63.3832 59.7364 63.3846 59.576 63.3814C59.2015 63.3814 58.8571 63.4242 58.517 63.4666C58.2213 63.5034 57.9289 63.5397 57.623 63.5472C57.3164 63.5397 57.0236 63.5033 56.7276 63.4665C56.3876 63.4242 56.0433 63.3814 55.6692 63.3814C55.5266 63.3794 55.3848 63.3807 55.2435 63.3819C55.0833 63.3833 54.9234 63.3847 54.764 63.3814C54.3895 63.3814 54.0444 63.4242 53.7035 63.4665C53.4069 63.5033 53.1135 63.5397 52.8068 63.5472C52.5003 63.5397 52.207 63.5033 51.9104 63.4665C51.5696 63.4242 51.2245 63.3814 50.8502 63.3814C50.7091 63.3795 50.568 63.3807 50.4271 63.3819H50.4264C50.2639 63.3833 50.1018 63.3847 49.9408 63.3814C49.8025 63.3814 49.6683 63.3872 49.5369 63.3967L49.438 63.5679L50.3296 63.4794C50.6359 63.4868 50.9292 63.5233 51.2257 63.5601C51.5667 63.6025 51.9121 63.6454 52.2868 63.6454H53.192C53.5663 63.6454 53.9114 63.6025 54.2522 63.5601L54.2524 63.5601C54.5489 63.5233 54.8421 63.4868 55.1486 63.4794C55.4552 63.4868 55.7494 63.5233 56.0469 63.5601C56.3888 63.6025 56.735 63.6454 57.1092 63.6454H58.0152C58.3895 63.6454 58.7338 63.6025 59.0737 63.5601C59.3695 63.5233 59.662 63.4868 59.9682 63.4794C60.2746 63.4868 60.5674 63.5233 60.8634 63.5602C61.2035 63.6025 61.5478 63.6454 61.922 63.6454H62.8306C63.2048 63.6454 63.5498 63.6025 63.8907 63.5602C64.1874 63.5233 64.4811 63.4868 64.7879 63.4794C65.0947 63.4868 65.3879 63.5233 65.6843 63.5601C66.025 63.6025 66.3699 63.6454 66.7443 63.6454H67.6503C68.0246 63.6454 68.3689 63.6025 68.7089 63.5601C69.0047 63.5233 69.2972 63.4868 69.6033 63.4794C69.9108 63.4869 70.2052 63.523 70.503 63.5595C70.522 63.5619 70.5412 63.5642 70.5602 63.5665L70.4679 63.4067Z" fill="#021455"/>
<path d="M70.6022 63.6391L70.1239 63.604C69.981 63.6021 69.8391 63.6033 69.6977 63.6045C69.5364 63.6058 69.3755 63.6072 69.2145 63.604C68.8399 63.604 68.4954 63.6468 68.1552 63.6892C67.8597 63.7259 67.5675 63.7623 67.2615 63.7698C66.9549 63.7623 66.6615 63.7259 66.365 63.6891C66.0241 63.6468 65.679 63.604 65.3043 63.604C65.1639 63.6021 65.0232 63.6033 64.8829 63.6045H64.8824C64.7207 63.6059 64.5592 63.6073 64.3992 63.604C64.0248 63.604 63.6794 63.6468 63.3384 63.6891C63.0417 63.7259 62.7483 63.7623 62.442 63.7698C62.1354 63.7623 61.8421 63.7259 61.5455 63.6891C61.2046 63.6468 60.8596 63.604 60.4854 63.604C60.3434 63.6021 60.2015 63.6033 60.06 63.6045H60.0593C59.8976 63.6058 59.7364 63.6072 59.576 63.604C59.2016 63.604 58.8571 63.6468 58.5171 63.6892C58.2214 63.726 57.9289 63.7623 57.623 63.7698C57.3164 63.7623 57.0236 63.7259 56.7276 63.6891C56.3876 63.6468 56.0433 63.604 55.6692 63.604C55.5265 63.602 55.3846 63.6033 55.2433 63.6045C55.083 63.6059 54.9234 63.6073 54.764 63.604C54.3895 63.604 54.0444 63.6468 53.7035 63.6891C53.4069 63.7259 53.1135 63.7623 52.8068 63.7698C52.5003 63.7623 52.207 63.7259 51.9104 63.6891C51.5696 63.6468 51.2245 63.604 50.8502 63.604C50.7091 63.6021 50.5678 63.6033 50.4269 63.6045H50.4264C50.2639 63.6059 50.1018 63.6073 49.9408 63.604C49.7548 63.604 49.5763 63.6145 49.402 63.6303L49.3016 63.8041L50.3296 63.702C50.6359 63.7094 50.9292 63.7459 51.2257 63.7827C51.5667 63.8251 51.9121 63.868 52.2868 63.868H53.192C53.5663 63.868 53.9114 63.8251 54.2522 63.7827C54.5487 63.7459 54.8421 63.7094 55.1486 63.702C55.4552 63.7094 55.7494 63.7459 56.0469 63.7827C56.3887 63.8251 56.735 63.868 57.1092 63.868H58.0152C58.3895 63.868 58.7338 63.8251 59.0737 63.7827C59.3695 63.7459 59.662 63.7094 59.9682 63.702C60.2746 63.7094 60.5674 63.7459 60.8634 63.7828C61.2035 63.8251 61.5478 63.868 61.922 63.868H62.8306C63.2048 63.868 63.5498 63.8251 63.8907 63.7828C64.1874 63.7459 64.4811 63.7094 64.7879 63.702C65.0947 63.7094 65.3879 63.7459 65.6843 63.7827C66.025 63.8251 66.3699 63.868 66.7443 63.868H67.6503C68.0246 63.868 68.3689 63.8251 68.7089 63.7827C69.0047 63.7459 69.2972 63.7094 69.6033 63.702C69.9108 63.7095 70.2052 63.7456 70.503 63.7821C70.5679 63.7901 70.633 63.7981 70.6984 63.8058L70.6022 63.6391Z" fill="#021455"/>
<path d="M70.7365 63.8718L70.1239 63.8268C69.981 63.8249 69.8391 63.8261 69.6977 63.8273C69.5364 63.8286 69.3755 63.83 69.2145 63.8268C68.8399 63.8268 68.4954 63.8696 68.1552 63.912C67.8597 63.9487 67.5675 63.9851 67.2615 63.9926C66.9549 63.9851 66.6615 63.9487 66.365 63.9119C66.0241 63.8696 65.679 63.8268 65.3043 63.8268C65.1639 63.8249 65.0232 63.8261 64.8828 63.8273H64.8824C64.7206 63.8287 64.5593 63.8301 64.3992 63.8268C64.0248 63.8268 63.6794 63.8696 63.3384 63.9119C63.0417 63.9487 62.7483 63.9851 62.442 63.9926C62.1354 63.9851 61.8421 63.9487 61.5455 63.9119C61.2046 63.8696 60.8596 63.8268 60.4854 63.8268C60.3433 63.8249 60.2013 63.8261 60.0597 63.8273H60.0594C59.8977 63.8286 59.7364 63.83 59.576 63.8268C59.2015 63.8268 58.8571 63.8696 58.517 63.912C58.2213 63.9488 57.9289 63.9851 57.623 63.9926C57.3164 63.9851 57.0236 63.9487 56.7276 63.9119C56.3876 63.8696 56.0433 63.8268 55.6692 63.8268C55.5266 63.8248 55.3848 63.8261 55.2435 63.8273C55.0832 63.8287 54.9234 63.8301 54.764 63.8268C54.3895 63.8268 54.0444 63.8696 53.7035 63.9119C53.4069 63.9487 53.1135 63.9851 52.8068 63.9926C52.5003 63.9851 52.207 63.9487 51.9104 63.9119C51.5696 63.8696 51.2245 63.8268 50.8502 63.8268C50.7091 63.8249 50.5679 63.8261 50.427 63.8273H50.4265C50.264 63.8287 50.1018 63.8301 49.9408 63.8268C49.706 63.8268 49.4831 63.8435 49.2656 63.8665L49.1652 64.0404L50.3296 63.9248C50.6359 63.9322 50.9292 63.9687 51.2257 64.0055C51.5667 64.0479 51.9121 64.0908 52.2868 64.0908H53.192C53.5663 64.0908 53.9114 64.0479 54.2522 64.0055L54.2524 64.0055C54.5489 63.9687 54.8421 63.9322 55.1486 63.9248C55.4552 63.9322 55.7494 63.9687 56.0469 64.0055C56.3888 64.0479 56.735 64.0908 57.1092 64.0908H58.0152C58.3895 64.0908 58.7338 64.0479 59.0737 64.0055C59.3695 63.9687 59.662 63.9322 59.9682 63.9248C60.2746 63.9322 60.5674 63.9687 60.8634 64.0055C61.2035 64.0479 61.5478 64.0908 61.922 64.0908H62.8306C63.2048 64.0908 63.5498 64.0479 63.8907 64.0056C64.1874 63.9687 64.4811 63.9322 64.7879 63.9248C65.0947 63.9322 65.3879 63.9687 65.6843 64.0055C66.025 64.0479 66.3699 64.0908 66.7443 64.0908H67.6503C68.0246 64.0908 68.3689 64.0479 68.7089 64.0055C69.0047 63.9687 69.2972 63.9322 69.6033 63.9248C69.9108 63.9323 70.2052 63.9684 70.503 64.0049C70.6132 64.0184 70.724 64.032 70.836 64.0442L70.7365 63.8718Z" fill="#021455"/>
<path d="M70.8712 64.1051L70.1239 64.0502C69.981 64.0483 69.8391 64.0495 69.6977 64.0507C69.5364 64.052 69.3755 64.0534 69.2145 64.0502C68.8399 64.0502 68.4954 64.093 68.1552 64.1354C67.8597 64.1721 67.5675 64.2085 67.2615 64.216C66.9549 64.2085 66.6615 64.1721 66.365 64.1353C66.0241 64.093 65.679 64.0502 65.3043 64.0502C65.1638 64.0483 65.0232 64.0495 64.8828 64.0507H64.8824C64.7206 64.0521 64.5593 64.0535 64.3992 64.0502C64.0248 64.0502 63.6794 64.093 63.3384 64.1353C63.0417 64.1721 62.7483 64.2085 62.442 64.216C62.1354 64.2085 61.8421 64.1721 61.5455 64.1353C61.2046 64.093 60.8596 64.0502 60.4854 64.0502C60.3433 64.0483 60.2013 64.0495 60.0597 64.0507H60.0594C59.8977 64.052 59.7364 64.0534 59.576 64.0502C59.2016 64.0502 58.8571 64.093 58.5171 64.1354C58.2214 64.1722 57.9289 64.2085 57.623 64.216C57.3164 64.2085 57.0236 64.1721 56.7276 64.1353C56.3876 64.093 56.0433 64.0502 55.6692 64.0502C55.5265 64.0482 55.3846 64.0495 55.2433 64.0507C55.083 64.0521 54.9234 64.0535 54.764 64.0502C54.3895 64.0502 54.0444 64.093 53.7035 64.1353C53.4069 64.1721 53.1135 64.2085 52.8068 64.216C52.5003 64.2085 52.207 64.1721 51.9104 64.1353C51.5696 64.093 51.2245 64.0502 50.8502 64.0502C50.7091 64.0483 50.5678 64.0495 50.4268 64.0507H50.4266C50.264 64.0521 50.1018 64.0535 49.9408 64.0502C49.6562 64.0502 49.3891 64.0748 49.1277 64.1053L49.0284 64.2774L50.3296 64.1482C50.6359 64.1556 50.9292 64.1921 51.2257 64.2289C51.5667 64.2713 51.9121 64.3142 52.2868 64.3142H53.192C53.5663 64.3142 53.9114 64.2713 54.2522 64.2289C54.5487 64.1921 54.8421 64.1556 55.1486 64.1482C55.4552 64.1556 55.7494 64.1921 56.0469 64.2289C56.3887 64.2713 56.735 64.3142 57.1092 64.3142H58.0152C58.3895 64.3142 58.7338 64.2713 59.0737 64.2289C59.3695 64.1921 59.662 64.1556 59.9682 64.1482C60.2746 64.1556 60.5674 64.1921 60.8634 64.229C61.2035 64.2713 61.5478 64.3142 61.922 64.3142H62.8306C63.2048 64.3142 63.5498 64.2713 63.8907 64.229C64.1874 64.1921 64.4811 64.1556 64.7879 64.1482C65.0947 64.1556 65.3879 64.1921 65.6843 64.2289C66.025 64.2713 66.3699 64.3142 66.7443 64.3142H67.6503C68.0246 64.3142 68.3689 64.2713 68.7089 64.2289C69.0047 64.1921 69.2972 64.1556 69.6033 64.1482C69.9108 64.1557 70.2052 64.1918 70.503 64.2283C70.658 64.2473 70.814 64.2665 70.9732 64.2817L70.8712 64.1051Z" fill="#021455"/>
<path d="M50.6212 61.5346L50.6458 61.4916H69.3544L69.3792 61.5346H50.6212Z" fill="#021455"/>
<path d="M50.5766 61.611L50.602 61.567H69.3982L69.4236 61.611H50.5766Z" fill="#021455"/>
<path d="M50.562 61.6362L50.521 61.7074H69.4794L69.4384 61.6362H50.562Z" fill="#021455"/>
<path d="M50.4484 61.833L50.4984 61.7462V61.7464H69.502L69.552 61.833H50.4484Z" fill="#021455"/>
<path d="M50.4186 61.8846L50.3686 61.9714H69.6318L69.5818 61.8846H50.4186Z" fill="#021455"/>
<path d="M50.2894 62.1088L50.3388 62.0228H69.6614L69.7108 62.1088H50.2894Z" fill="#021455"/>
<path d="M50.2592 62.1612L50.2092 62.2472H69.7912L69.7412 62.1612H50.2592Z" fill="#021455"/>
<path d="M50.1124 62.416L50.1732 62.31H69.8272L69.8878 62.416H50.1124Z" fill="#021455"/>
<path d="M51.4712 62.4574C52.1612 62.5898 52.2276 62.4574 52.2276 62.4574H51.4712Z" fill="#021455"/>
<path d="M67.7718 62.4574C67.7718 62.4574 67.838 62.5898 68.5282 62.4574H67.7718Z" fill="#021455"/>
<path d="M49.9408 64.2728C49.6092 64.2728 49.3014 64.3062 48.9988 64.3434L48.9016 64.5126L50.3296 64.3708C50.6359 64.3782 50.9292 64.4147 51.2257 64.4515C51.5667 64.4939 51.9121 64.5368 52.2868 64.5368H53.192C53.5663 64.5368 53.9114 64.4939 54.2522 64.4515C54.5487 64.4147 54.8421 64.3782 55.1486 64.3708C55.4552 64.3782 55.7494 64.4147 56.0469 64.4515C56.3887 64.4939 56.735 64.5368 57.1092 64.5368H58.0152C58.3895 64.5368 58.7338 64.4939 59.0737 64.4515C59.3695 64.4147 59.662 64.3782 59.9682 64.3708C60.2746 64.3782 60.5674 64.4147 60.8634 64.4516C61.2035 64.4939 61.5478 64.5368 61.922 64.5368H62.8306C63.2048 64.5368 63.5498 64.4939 63.8907 64.4516C64.1874 64.4147 64.4811 64.3782 64.7879 64.3708C65.0947 64.3782 65.3879 64.4147 65.6843 64.4515C66.025 64.4939 66.3699 64.5368 66.7443 64.5368H67.6503C68.0246 64.5368 68.3689 64.4939 68.7089 64.4515C69.0047 64.4147 69.2972 64.3782 69.6033 64.3708C69.9108 64.3783 70.2052 64.4144 70.503 64.4509C70.6991 64.475 70.8968 64.4992 71.1005 64.5156L70.9975 64.337L70.1239 64.2728C69.981 64.2709 69.8391 64.2721 69.6977 64.2733C69.5364 64.2746 69.3755 64.276 69.2145 64.2728C68.8399 64.2728 68.4954 64.3156 68.1552 64.358C67.8597 64.3947 67.5675 64.4311 67.2615 64.4386C66.9549 64.4311 66.6615 64.3947 66.365 64.3579C66.0241 64.3156 65.679 64.2728 65.3043 64.2728C65.1638 64.2709 65.0231 64.2721 64.8828 64.2733H64.8825C64.7207 64.2747 64.5593 64.2761 64.3992 64.2728C64.0248 64.2728 63.6794 64.3156 63.3384 64.3579C63.0417 64.3947 62.7483 64.4311 62.442 64.4386C62.1354 64.4311 61.8421 64.3947 61.5455 64.3579C61.2046 64.3156 60.8596 64.2728 60.4854 64.2728C60.3433 64.2709 60.2012 64.2721 60.0596 64.2733H60.0593C59.8976 64.2746 59.7364 64.276 59.576 64.2728C59.2016 64.2728 58.8571 64.3157 58.5171 64.358C58.2214 64.3948 57.9289 64.4311 57.623 64.4386C57.3164 64.4311 57.0236 64.3947 56.7276 64.3579C56.3876 64.3156 56.0433 64.2728 55.6692 64.2728C55.5265 64.2708 55.3846 64.2721 55.2433 64.2733C55.083 64.2747 54.9234 64.2761 54.764 64.2728C54.3895 64.2728 54.0444 64.3156 53.7035 64.3579C53.4069 64.3947 53.1135 64.4311 52.8068 64.4386C52.5003 64.4311 52.207 64.3947 51.9104 64.3579C51.5696 64.3156 51.2245 64.2728 50.8502 64.2728C50.7091 64.2709 50.5677 64.2721 50.4268 64.2733H50.4265C50.264 64.2747 50.1018 64.2761 49.9408 64.2728Z" fill="#021455"/>
<path d="M66.1258 59.4086C65.784 59.4086 65.6794 59.581 65.6794 59.581C65.1322 61.6962 63.318 63.8476 61.1595 63.8476H59.5435V66.0012H71.8462L70.6088 63.8104C68.6674 63.5206 67.0808 61.5358 66.5756 59.581C66.5756 59.581 66.4678 59.4086 66.1258 59.4086Z" fill="#B1EB50"/>
<path d="M66.1259 59.4929C65.9691 59.4929 65.8739 59.5289 65.8183 59.5639C65.7655 59.5969 65.7553 59.6191 65.7541 59.6215C65.7541 59.6229 65.7511 59.6235 65.7505 59.6247C65.4705 60.6893 64.8801 61.7585 64.0837 62.5661C63.2813 63.3801 62.2697 63.9321 61.1627 63.9321H59.6279V65.9165H71.7989L70.6629 63.9049C69.7255 63.7825 68.8683 63.2723 68.1713 62.5661C67.3741 61.7585 66.7849 60.6893 66.5045 59.6247L66.5011 59.6215C66.4997 59.6191 66.4871 59.6005 66.4335 59.5673C66.3769 59.5321 66.2827 59.4929 66.1259 59.4929Z" fill="#B1EB50"/>
<path d="M66.1256 59.4929C66.155 59.4929 66.1816 59.4971 66.2068 59.4997V61.6599C66.201 62.1279 66.0408 62.5045 65.8044 62.9481C65.695 63.2589 65.6072 63.1407 65.3344 63.5195C64.9684 63.6503 64.6972 63.7013 64.3068 63.7627C63.8034 63.8423 62.6826 63.9127 62.1294 63.7899C62.8576 63.5763 63.5216 63.1359 64.0836 62.5659C64.2339 62.4135 64.3761 62.2533 64.5096 62.0859C64.7339 61.8038 64.9352 61.5042 65.1116 61.1899C65.182 61.0647 65.2488 60.9403 65.311 60.8113C65.4044 60.6181 65.4876 60.4213 65.561 60.2233C65.5858 60.1571 65.61 60.0899 65.6322 60.0237C65.6766 59.8909 65.7156 59.7577 65.7506 59.6247C65.751 59.6235 65.7536 59.6227 65.7538 59.6213C65.754 59.6199 65.7654 59.5969 65.818 59.5639C65.8539 59.5428 65.8926 59.5269 65.933 59.5165H65.9364C65.9868 59.5031 66.0472 59.4929 66.1256 59.4929Z" fill="#FDD406"/>
<path d="M65.9873 59.7804C65.9049 60.9872 65.5319 62.4188 64.6585 63.3424C64.3371 63.6098 63.9265 63.8524 63.5293 63.7934C64.8833 62.6914 65.7063 61.004 65.9873 59.7804Z" fill="#D3AE3B"/>
<path d="M64.8984 61.8562C64.698 62.4004 63.9408 63.2054 63.1304 63.8652C62.9004 63.8722 62.7784 63.8854 62.5696 63.8728C63.0632 63.8278 64.2138 62.8562 64.8984 61.8562Z" fill="#D3AE3B"/>
<path d="M63.0577 59.4086C62.7159 59.4086 62.6113 59.581 62.6113 59.581C62.0641 61.6962 60.2499 63.8476 58.0913 63.8476H56.4753V66.0012H68.7781L67.5407 63.8104C65.5993 63.5206 64.0127 61.5358 63.5075 59.581C63.5075 59.581 63.3997 59.4086 63.0577 59.4086Z" fill="#B1EB50"/>
<path d="M63.0578 59.4929C62.901 59.4929 62.8058 59.5289 62.7502 59.5639C62.6974 59.5969 62.6872 59.6191 62.686 59.6215C62.686 59.6229 62.683 59.6235 62.6824 59.6247C62.4024 60.6893 61.812 61.7585 61.0156 62.5661C60.2132 63.3801 59.2016 63.9321 58.0946 63.9321H56.5598V65.9165H68.7308L67.5948 63.9049C66.6574 63.7825 65.8002 63.2723 65.1032 62.5661C64.306 61.7585 63.7168 60.6893 63.4364 59.6247L63.433 59.6215C63.4316 59.6191 63.419 59.6005 63.3654 59.5673C63.3088 59.5321 63.2146 59.4929 63.0578 59.4929Z" fill="#B1EB50"/>
<path d="M63.0575 59.4929C63.0869 59.4929 63.1135 59.4971 63.1387 59.4997V61.6599C63.1329 62.1279 62.9727 62.5045 62.7363 62.9481C62.6269 63.2589 62.5391 63.1407 62.2663 63.5195C61.9003 63.6503 61.6291 63.7013 61.2387 63.7627C60.7353 63.8423 59.6145 63.9127 59.0613 63.7899C59.7895 63.5763 60.4535 63.1359 61.0155 62.5659C61.1658 62.4135 61.308 62.2533 61.4415 62.0859C61.6658 61.8038 61.8671 61.5042 62.0435 61.1899C62.1139 61.0647 62.1807 60.9403 62.2429 60.8113C62.3363 60.6181 62.4195 60.4213 62.4929 60.2233C62.5177 60.1571 62.5419 60.0899 62.5641 60.0237C62.6085 59.8909 62.6475 59.7577 62.6825 59.6247C62.6829 59.6235 62.6855 59.6227 62.6857 59.6213C62.6859 59.6199 62.6973 59.5969 62.7499 59.5639C62.7858 59.5428 62.8245 59.5269 62.8649 59.5165H62.8683C62.9187 59.5031 62.9791 59.4929 63.0575 59.4929Z" fill="#FDD406"/>
<path d="M62.9192 59.7804C62.8368 60.9872 62.4638 62.4188 61.5904 63.3424C61.269 63.6098 60.8584 63.8524 60.4612 63.7934C61.8152 62.6914 62.6382 61.004 62.9192 59.7804Z" fill="#D3AE3B"/>
<path d="M61.8303 61.8562C61.6299 62.4004 60.8727 63.2054 60.0623 63.8652C59.8323 63.8722 59.7103 63.8854 59.5015 63.8728C59.9951 63.8278 61.1457 62.8562 61.8303 61.8562Z" fill="#D3AE3B"/>
<path d="M60.4432 59.5821C60.9902 61.6971 62.8012 63.8487 64.9598 63.8487H66.5776V66.0023H53.4153L53.4119 63.8487H55.0263C57.1846 63.8487 58.9988 61.6971 59.5462 59.5821C59.5462 59.5821 59.653 59.4089 59.9948 59.4089C60.3366 59.4089 60.4434 59.5821 60.4434 59.5821H60.4432Z" fill="#B1EB50"/>
<path d="M59.9946 59.4929C60.1514 59.4929 60.2456 59.5321 60.3022 59.5673C60.356 59.6005 60.3686 59.6191 60.37 59.6213L60.3734 59.6247C60.6536 60.6893 61.243 61.7585 62.0399 62.5661C62.8433 63.3801 63.8573 63.9321 64.9645 63.9321H66.4925V65.9165H53.4966V63.9319H55.0316C56.1386 63.9319 57.1502 63.3799 57.9526 62.5659C58.749 61.7585 59.3394 60.6893 59.6194 59.6247C59.62 59.6233 59.6224 59.6227 59.6228 59.6215C59.624 59.6191 59.6342 59.5969 59.6868 59.5639C59.7428 59.5291 59.8378 59.4929 59.9946 59.4929Z" fill="#B1EB50"/>
<path d="M59.8523 59.506C59.836 59.5091 59.8199 59.5127 59.8039 59.517H59.8003C59.7601 59.5272 59.7216 59.5431 59.6859 59.5642C59.6331 59.5972 59.6231 59.619 59.6219 59.6214C59.6213 59.6226 59.6185 59.6234 59.6183 59.6248L59.4997 60.0242L59.4285 60.2232L59.1787 60.8116C59.1161 60.9399 59.0496 61.0662 58.9791 61.1904C58.8027 61.5045 58.6014 61.8039 58.3771 62.0858C58.2436 62.2533 58.1014 62.4137 57.9511 62.5664C57.3891 63.1364 56.7255 63.5764 55.9973 63.7898C56.5503 63.9128 56.8037 63.7786 57.3071 63.699C57.6975 63.6374 58.1491 63.5864 58.5157 63.4556C58.7885 63.0768 58.6955 63.1956 58.8049 62.8848C59.0411 62.4412 59.3861 62.0404 59.4717 61.5486C59.7955 60.9442 59.8523 59.8258 59.8523 59.506Z" fill="#FDD406"/>
<path d="M59.8547 59.7803C59.7723 60.9871 59.3993 62.4187 58.5259 63.3423C58.2047 63.6097 57.7939 63.8523 57.3967 63.7933C58.7507 62.6913 59.5737 61.0039 59.8547 59.7803Z" fill="#D3AE3B"/>
<path d="M58.766 61.8561C58.5656 62.4003 57.8085 63.2055 56.9981 63.8651C56.7681 63.8721 56.6461 63.8853 56.4373 63.8727C56.9307 63.8277 58.0817 62.8561 58.766 61.8561Z" fill="#D3AE3B"/>
<path d="M60.1898 59.5167H60.1934C60.2335 59.527 60.2719 59.5429 60.3076 59.5639C60.3604 59.5969 60.3706 59.6187 60.3718 59.6211C60.3722 59.6223 60.375 59.6233 60.3754 59.6247L60.4938 60.0239L60.5652 60.2229L60.815 60.8113L61.0146 61.1903C61.1909 61.5044 61.3923 61.8039 61.6166 62.0857C61.7501 62.2532 61.8923 62.4135 62.0426 62.5661C62.6046 63.1361 63.2682 63.6551 63.9962 63.8685C62.5472 63.8741 61.9184 63.7425 61.3918 63.0653C60.8652 62.3881 60.6706 62.0917 60.5638 61.6779C60.457 61.2641 60.1586 60.3639 60.1898 59.5167Z" fill="#FDD406"/>
<path d="M60.2949 59.7803C60.3773 60.9871 60.7389 62.1815 61.6123 63.1053C61.9337 63.3727 62.3443 63.6153 62.7415 63.5563C61.2745 62.5559 60.5757 61.0039 60.2949 59.7803Z" fill="#D3AE3B"/>
<path d="M56.9494 59.4086C56.6074 59.4086 56.4998 59.581 56.4998 59.581C55.9952 61.5304 54.1348 64.0446 52.2004 64.3432L51.2424 66.0012H61.0454V63.7316C59.2804 63.2574 57.8674 61.4056 57.3958 59.581C57.3958 59.581 57.2912 59.4086 56.9494 59.4086Z" fill="#B1EB50"/>
<path d="M56.9494 59.4929C56.7926 59.4929 56.6984 59.5321 56.6418 59.5673C56.588 59.6005 56.5754 59.6191 56.5742 59.6213L56.5708 59.6247C56.2904 60.6893 55.6352 61.7657 54.9548 62.6227C54.2744 63.4797 53.0108 64.3461 52.1464 64.4379L51.29 65.9165H60.902V63.7779C60.1912 63.5597 59.542 63.1245 58.9916 62.5659C58.1952 61.7585 57.6048 60.6893 57.3248 59.6247C57.3244 59.6233 57.3218 59.6227 57.3214 59.6215C57.3202 59.6191 57.3098 59.5969 57.2572 59.5639C57.2012 59.5291 57.1062 59.4929 56.9494 59.4929Z" fill="#B1EB50"/>
<path d="M56.6887 59.7805C56.5653 61.5891 55.5581 63.8713 54.4207 64.2645C54.0497 64.3925 53.4009 64.4373 53.1753 64.4661C55.1649 63.5199 56.3409 61.2955 56.6887 59.7805Z" fill="#FDD406"/>
<path d="M56.9489 59.4929C56.9195 59.4929 56.8929 59.4971 56.8677 59.4997V61.6599C56.8737 62.1279 57.0339 62.5045 57.2701 62.9481C57.2839 62.9869 57.2973 63.0189 57.3107 63.0461C57.3927 63.2633 57.4533 63.3387 57.7671 63.5769C58.7645 64.3343 60.0011 64.4475 60.7287 64.3849C60.5007 64.2053 60.2571 64.0419 60.0425 63.8915C60.3847 63.8803 60.7125 63.8415 60.9451 63.7899C60.2171 63.5765 59.5531 63.1359 58.9911 62.5659C58.894 62.4656 58.8004 62.3619 58.7105 62.2551L58.5921 62.0927C58.3685 61.8127 58.1395 61.5033 57.9631 61.1901C57.8927 61.066 57.8262 60.9397 57.7637 60.8113C57.6403 60.5558 57.533 60.2927 57.4425 60.0237C57.3986 59.8921 57.3592 59.759 57.3241 59.6247C57.3237 59.6235 57.3211 59.6227 57.3207 59.6213C57.3203 59.6199 57.3093 59.5969 57.2565 59.5639C57.2206 59.5428 57.1819 59.5268 57.1415 59.5165H57.1381C57.0763 59.5004 57.0127 59.4924 56.9489 59.4929Z" fill="#FDD406"/>
<path d="M57.0889 59.7804C57.1713 60.9872 57.5443 62.4188 58.4177 63.3424C58.7389 63.6098 59.1497 63.8524 59.5469 63.7934C58.1929 62.6914 57.3697 61.004 57.0889 59.7804Z" fill="#D3AE3B"/>
<path d="M57.9221 61.4493C58.3959 62.6167 59.5961 63.7073 60.8307 64.4401C61.0607 64.4471 61.1291 64.4407 61.3381 64.4281C60.4543 63.9539 59.0303 63.2773 57.9221 61.4493Z" fill="#FDD406"/>
<path d="M53.8635 59.4086C53.5215 59.4086 53.4139 59.581 53.4139 59.581C52.9093 61.5304 51.0489 64.0446 49.1145 64.3432L48.1565 66.0012H57.9595V63.7316C56.1945 63.2574 54.7815 61.4056 54.3099 59.581C54.3099 59.581 54.2053 59.4086 53.8635 59.4086Z" fill="#B1EB50"/>
<path d="M53.8635 59.4929C53.7067 59.4929 53.6125 59.5321 53.5559 59.5673C53.5021 59.6005 53.4895 59.6191 53.4883 59.6213L53.4849 59.6247C53.2045 60.6893 52.5493 61.7657 51.8689 62.6227C51.1885 63.4797 49.9249 64.3461 49.0605 64.4379L48.2041 65.9165H57.8161V63.7779C57.1053 63.5597 56.4561 63.1245 55.9057 62.5659C55.1093 61.7585 54.5189 60.6893 54.2389 59.6247C54.2385 59.6233 54.2359 59.6227 54.2355 59.6215C54.2343 59.6191 54.2239 59.5969 54.1713 59.5639C54.1153 59.5291 54.0203 59.4929 53.8635 59.4929Z" fill="#B1EB50"/>
<path d="M53.6027 59.7805C53.4793 61.5891 52.4721 63.8713 51.3348 64.2645C50.9638 64.3925 50.315 64.4373 50.0894 64.4661C52.0789 63.5199 53.2549 61.2955 53.6027 59.7805Z" fill="#FDD406"/>
<path d="M53.8629 59.4929C53.8335 59.4929 53.8069 59.4971 53.7817 59.4997V61.6599C53.7877 62.1279 53.9479 62.5045 54.1841 62.9481C54.1979 62.9869 54.2113 63.0189 54.2247 63.0461C54.3067 63.2633 54.3673 63.3387 54.6811 63.5769C55.6785 64.3343 56.9151 64.4475 57.6427 64.3849C57.4147 64.2053 57.1711 64.0419 56.9565 63.8915C57.2987 63.8803 57.6265 63.8415 57.8591 63.7899C57.1311 63.5765 56.4671 63.1359 55.9051 62.5659C55.8081 62.4656 55.7145 62.3619 55.6245 62.2551L55.5061 62.0927C55.2825 61.8127 55.0535 61.5033 54.8771 61.1901C54.8067 61.066 54.7402 60.9397 54.6777 60.8113C54.5544 60.5558 54.4471 60.2927 54.3565 60.0237C54.3127 59.8921 54.2732 59.759 54.2381 59.6247C54.2377 59.6235 54.2351 59.6227 54.2347 59.6213C54.2343 59.6199 54.2233 59.5969 54.1705 59.5639C54.1346 59.5428 54.0959 59.5268 54.0555 59.5165H54.0521C53.9904 59.5004 53.9268 59.4924 53.8629 59.4929Z" fill="#FDD406"/>
<path d="M54.0029 59.7804C54.0853 60.9872 54.4583 62.4188 55.3317 63.3424C55.6529 63.6098 56.0637 63.8524 56.4609 63.7934C55.1069 62.6914 54.2837 61.004 54.0029 59.7804Z" fill="#D3AE3B"/>
<path d="M54.8362 61.4493C55.31 62.6167 56.5102 63.7073 57.7448 64.4401C57.9748 64.4471 58.0432 64.4407 58.2522 64.4281C57.3684 63.9539 55.9444 63.2773 54.8362 61.4493Z" fill="#FDD406"/>
<path d="M70.7677 64.9383C71.0232 64.9492 71.2425 64.9585 71.2997 64.9383L72.7347 67.3383H47.2654L48.52 65.1667C48.7061 65.1501 48.9069 65.1249 49.1134 65.099C49.5101 65.0492 49.9284 64.9967 50.3072 64.9967L50.4624 65.0001C50.4768 64.9998 50.4913 64.9992 50.5059 64.9986C50.5273 64.9976 50.5489 64.9967 50.5704 64.9967C50.5783 64.9967 50.5863 64.9967 50.5942 64.9966C50.6101 64.9965 50.626 64.9963 50.6416 64.9967C50.6579 64.9963 50.6747 64.9965 50.6914 64.9966C50.6998 64.9967 50.7081 64.9967 50.7164 64.9967C50.7378 64.9967 50.7576 64.9976 50.7776 64.9985C50.7917 64.9992 50.8059 64.9998 50.8208 65.0001C50.8319 64.9998 50.8431 64.9995 50.8543 64.9991C50.8944 64.9979 50.9351 64.9967 50.976 64.9967C51.3407 64.9967 51.6766 65.0453 52.0084 65.0932C52.3321 65.14 52.652 65.1862 52.991 65.1863C53.3302 65.1864 53.6502 65.1401 53.974 65.0933C54.3056 65.0453 54.6412 64.9967 55.0059 64.9967L55.1619 65.0001C55.1766 64.9998 55.1908 64.9992 55.2049 64.9985C55.2251 64.9976 55.2453 64.9967 55.2666 64.9967C55.2745 64.9967 55.2825 64.9967 55.2904 64.9966C55.3063 64.9965 55.3221 64.9963 55.3375 64.9967C55.3531 64.9963 55.3673 64.9965 55.3821 64.9966C55.3897 64.9967 55.3974 64.9967 55.4055 64.9967L55.5169 65.0001C55.5234 64.9999 55.5298 64.9997 55.5362 64.9995C55.5813 64.9981 55.6254 64.9967 55.6721 64.9967C56.0369 64.9967 56.3722 65.0453 56.7034 65.0933C57.0264 65.1401 57.3454 65.1863 57.6837 65.1863C58.022 65.1863 58.341 65.1401 58.664 65.0933C58.9952 65.0453 59.3306 64.9967 59.6953 64.9967C59.8253 64.9994 59.9557 64.9985 60.087 64.9975C60.1791 64.9968 60.2717 64.9961 60.3649 64.9967C60.7296 64.9967 61.0656 65.0453 61.3975 65.0933C61.7213 65.1401 62.0412 65.1863 62.3799 65.1863C62.7186 65.1863 63.0385 65.1401 63.3624 65.0933C63.6944 65.0453 64.0305 64.9967 64.3951 64.9967C64.5233 64.9996 64.6528 64.9986 64.783 64.9976C64.8754 64.9968 64.9681 64.9961 65.0611 64.9967C65.426 64.9967 65.7618 65.0453 66.0935 65.0933C66.4172 65.1401 66.737 65.1863 67.0761 65.1863C67.4144 65.1863 67.7342 65.1401 68.0581 65.0933C68.3901 65.0453 68.7264 64.9967 69.0911 64.9967C69.2182 64.9995 69.347 64.9985 69.4766 64.9975C69.5697 64.9968 69.6633 64.9961 69.7571 64.9967L70.0131 64.9295C70.2152 64.9149 70.5099 64.9274 70.7677 64.9383Z" fill="white"/>
<path d="M71.4082 65.0349C71.4052 65.0345 71.4022 65.0342 71.3993 65.0338L71.2343 64.7491C71.028 64.7425 70.8009 64.7177 70.563 64.6918C70.2523 64.6579 69.9233 64.6221 69.5983 64.6221L69.4791 64.6235C69.2152 64.6312 68.9816 64.6697 68.7213 64.7125C68.3426 64.7748 67.9072 64.8465 67.2392 64.8465C66.7125 64.8465 66.4065 64.802 66.1 64.7574C65.7506 64.7066 65.4006 64.6558 64.7224 64.6707C64.0698 64.685 63.6249 64.7596 63.2498 64.8225C62.9411 64.8743 62.6797 64.9181 62.3884 64.9141C62.1787 64.9112 61.9263 64.8954 61.6535 64.8784L61.653 64.8784C61.0863 64.843 60.4313 64.8021 59.8864 64.8591C59.7987 64.8682 59.7093 64.8784 59.6187 64.8893L59.6006 64.889L59.5819 64.8887C59.2117 64.8887 58.8712 64.9375 58.5349 64.9858C58.2428 65.0277 57.954 65.0691 57.6519 65.0777C57.3493 65.0691 57.0603 65.0276 56.7681 64.9857C56.4319 64.9375 56.0916 64.8887 55.7217 64.8887C55.581 64.8868 55.4413 64.888 55.302 64.8892H55.3018C55.1431 64.8905 54.985 64.8919 54.8269 64.8887C54.4569 64.8887 54.1162 64.9375 53.7796 64.9857C53.4866 65.0277 53.1968 65.0692 52.8937 65.0777C52.5911 65.0691 52.3015 65.0277 52.0087 64.9857C51.6717 64.9375 51.3305 64.8887 50.9605 64.8887C50.8202 64.8868 50.6798 64.888 50.5398 64.8892H50.5396C50.3798 64.8905 50.2204 64.8919 50.0623 64.8887C49.6923 64.8887 49.3516 64.9375 49.0153 64.9858C48.8721 65.0063 48.7297 65.0267 48.5862 65.0432L48.5008 65.1913H48.5193C48.8894 65.1913 49.229 65.1424 49.5645 65.0942C49.8557 65.0523 50.1439 65.0109 50.4461 65.0023C50.7486 65.0108 51.0381 65.0523 51.3308 65.0942C51.6678 65.1424 52.009 65.1913 52.3793 65.1913H53.2741C53.644 65.1913 53.9852 65.1424 54.3221 65.0942C54.615 65.0523 54.9047 65.0108 55.2073 65.0023C55.3337 65.0058 55.458 65.0152 55.5813 65.0278C55.4256 65.0294 55.2687 65.0368 55.1106 65.0525C54.8396 65.0794 54.6165 65.1214 54.4023 65.1655C54.1895 65.1842 53.9838 65.2137 53.7797 65.2429C53.4867 65.2849 53.1968 65.3264 52.8937 65.3349C52.5911 65.3263 52.3015 65.2849 52.0087 65.243C51.6717 65.1947 51.3305 65.1459 50.9605 65.1459C50.8202 65.144 50.6798 65.1452 50.5398 65.1464H50.5396C50.3798 65.1477 50.2204 65.1491 50.0623 65.1459C49.6923 65.1459 49.3516 65.1947 49.0152 65.243C48.8198 65.271 48.6258 65.2988 48.4283 65.3167L48.3523 65.4485H48.5193C48.5501 65.4485 48.5806 65.4481 48.611 65.4475C48.5136 65.4663 48.4201 65.4838 48.3316 65.4991L48.2817 65.5858C48.2787 65.586 48.2757 65.5862 48.2726 65.5864L48.2034 65.7063H48.2123L48.163 65.7919C48.2969 65.7764 48.503 65.7485 48.738 65.7166C48.8215 65.7053 48.9086 65.6936 48.9974 65.6816C49.1907 65.663 49.3783 65.636 49.5645 65.6092L49.6074 65.6031C49.9 65.5677 50.1631 65.5407 50.3234 65.5365C50.4354 65.5336 50.6161 65.5375 50.8389 65.5449C51.0038 65.5624 51.1668 65.5857 51.3308 65.6092C51.6678 65.6574 52.009 65.7063 52.3793 65.7063H53.2741C53.644 65.7063 53.9852 65.6574 54.3221 65.6092C54.615 65.5673 54.9047 65.5258 55.2073 65.5173C55.5101 65.5258 55.8007 65.5673 56.0945 65.6092C56.4325 65.6574 56.7748 65.7063 57.1447 65.7063H58.0387C58.4086 65.7063 58.7492 65.6574 59.0855 65.6092C59.3778 65.5673 59.6668 65.5258 59.9691 65.5173C60.2716 65.5258 60.5605 65.5673 60.8525 65.6092C61.1886 65.6574 61.5288 65.7063 61.8988 65.7063H62.7968C63.1668 65.7063 63.5078 65.6575 63.8446 65.6092C64.1375 65.5673 64.4273 65.5258 64.7302 65.5173C65.0331 65.5258 65.3229 65.5673 65.6158 65.6092C65.9528 65.6574 66.294 65.7063 66.6642 65.7063H67.5582C67.9281 65.7063 68.2686 65.6574 68.6049 65.6092C68.8971 65.5673 69.1861 65.5258 69.4884 65.5173C69.7909 65.5258 70.0806 65.5673 70.3735 65.6092C70.7106 65.6574 71.0518 65.7063 71.4216 65.7063H71.7958L71.7239 65.5818C71.4955 65.5649 71.2729 65.5329 71.0484 65.5007C70.7122 65.4525 70.3719 65.4037 70.002 65.4037C69.8609 65.4018 69.7207 65.403 69.581 65.4042C69.4217 65.4055 69.2631 65.4069 69.104 65.4037C68.734 65.4037 68.3936 65.4525 68.0575 65.5008C67.7655 65.5427 67.4766 65.5841 67.1742 65.5927C66.8711 65.5842 66.5813 65.5427 66.2883 65.5007C65.9517 65.4525 65.611 65.4037 65.241 65.4037C65.1013 65.4018 64.9615 65.403 64.822 65.4042C64.6629 65.4055 64.5042 65.4069 64.3464 65.4037C63.9764 65.4037 63.6351 65.4525 63.2981 65.5007C63.0053 65.5427 62.7156 65.5841 62.413 65.5927C62.1104 65.5841 61.8207 65.5427 61.5279 65.5007C61.1909 65.4525 60.8498 65.4037 60.4798 65.4037C60.3395 65.4018 60.1993 65.403 60.0594 65.4042H60.0592C59.8995 65.4055 59.7403 65.4069 59.5819 65.4037C59.2117 65.4037 58.8712 65.4525 58.5349 65.5008C58.2428 65.5427 57.954 65.5841 57.6519 65.5927C57.3493 65.5841 57.0603 65.5426 56.7681 65.5007C56.4319 65.4525 56.0916 65.4037 55.7217 65.4037C55.5809 65.4018 55.4411 65.403 55.3018 65.4042C55.1431 65.4055 54.985 65.4069 54.8269 65.4037L54.8123 65.4037C54.9985 65.3817 55.2208 65.3671 55.514 65.3671C55.8535 65.3671 56.1556 65.383 56.4555 65.4006C56.6779 65.4281 56.9055 65.4485 57.1447 65.4485H58.0387C58.4086 65.4485 58.7492 65.3996 59.0855 65.3514C59.3778 65.3095 59.6668 65.268 59.9691 65.2595C60.2716 65.268 60.5605 65.3095 60.8525 65.3514C61.1886 65.3996 61.5288 65.4485 61.8988 65.4485H62.7968C63.1668 65.4485 63.5078 65.3997 63.8446 65.3514C64.1375 65.3095 64.4273 65.268 64.7302 65.2595C65.0331 65.268 65.3229 65.3095 65.6158 65.3514C65.9528 65.3996 66.294 65.4485 66.6642 65.4485H67.5582C67.9281 65.4485 68.2686 65.3996 68.6049 65.3514C68.8971 65.3095 69.1861 65.268 69.4884 65.2595C69.7909 65.268 70.0806 65.3095 70.3735 65.3514C70.7106 65.3996 71.0518 65.4485 71.4216 65.4485H71.6469L71.567 65.3101C71.393 65.2923 71.2212 65.2677 71.0484 65.2429C70.7122 65.1947 70.3719 65.1459 70.002 65.1459C69.8609 65.144 69.7207 65.1452 69.581 65.1464C69.4217 65.1477 69.2631 65.1491 69.104 65.1459C68.734 65.1459 68.3936 65.1947 68.0575 65.243C67.7655 65.2849 67.4766 65.3263 67.1742 65.3349C66.8711 65.3264 66.5813 65.2849 66.2883 65.2429C65.9517 65.1947 65.611 65.1459 65.241 65.1459C65.1013 65.144 64.9615 65.1452 64.822 65.1464C64.6629 65.1477 64.5042 65.1491 64.3464 65.1459C63.9764 65.1459 63.6351 65.1947 63.2981 65.2429C63.0053 65.2849 62.7156 65.3263 62.413 65.3349C62.1104 65.3263 61.8207 65.2849 61.5279 65.2429C61.1909 65.1947 60.8498 65.1459 60.4798 65.1459C60.3864 65.1446 60.293 65.1447 60.1997 65.1453C60.6557 65.1213 61.2253 65.1596 61.7373 65.1939C61.9232 65.2064 62.1016 65.2184 62.2642 65.2267C62.5801 65.2432 62.8428 65.216 63.106 65.1806C63.3604 65.1636 63.6036 65.1287 63.8446 65.0942L63.8824 65.0888C63.9357 65.0853 63.9904 65.0826 64.047 65.0807L64.9418 65.0511C65.0753 65.0466 65.2052 65.0487 65.3325 65.0548C65.427 65.0672 65.5212 65.0807 65.6158 65.0942C65.9528 65.1424 66.294 65.1913 66.6642 65.1913H67.5582C67.9281 65.1913 68.2686 65.1424 68.6049 65.0942C68.8971 65.0523 69.1861 65.0108 69.4884 65.0023C69.7909 65.0108 70.0806 65.0523 70.3735 65.0942C70.7105 65.1424 71.0518 65.1913 71.4216 65.1913H71.4984L71.4082 65.0349Z" fill="#021455"/>
<path d="M71.8777 65.8482C71.5948 65.8365 71.323 65.7975 71.0484 65.7581C70.7122 65.7099 70.3719 65.6611 70.002 65.6611C69.8609 65.6592 69.7208 65.6604 69.5811 65.6616C69.4219 65.6629 69.2631 65.6643 69.104 65.6611C68.734 65.6611 68.3936 65.7099 68.0575 65.7581C67.7655 65.8 67.4766 65.8415 67.1742 65.8501C66.8711 65.8416 66.5813 65.8001 66.2883 65.7581C65.9518 65.7099 65.611 65.6611 65.241 65.6611C65.1013 65.6592 64.9615 65.6604 64.822 65.6616C64.6629 65.6629 64.5042 65.6643 64.3464 65.6611C63.9764 65.6611 63.6351 65.7099 63.2981 65.7581C63.0053 65.8 62.7156 65.8415 62.413 65.8501C62.1104 65.8415 61.8208 65.8 61.5279 65.7581C61.191 65.7099 60.8498 65.6611 60.4798 65.6611C60.3396 65.6592 60.1994 65.6604 60.0596 65.6616H60.0592C59.8995 65.6629 59.7403 65.6643 59.5819 65.6611C59.2117 65.6611 58.8712 65.7099 58.5349 65.7582C58.2428 65.8001 57.954 65.8415 57.6519 65.8501C57.3493 65.8415 57.0603 65.8 56.7681 65.7581C56.4319 65.7099 56.0915 65.6611 55.7217 65.6611C55.581 65.6592 55.4412 65.6604 55.302 65.6616C55.1432 65.6629 54.985 65.6643 54.8269 65.6611C54.4569 65.6611 54.1162 65.7099 53.7796 65.7581C53.4866 65.8001 53.1968 65.8416 52.8937 65.8501C52.5911 65.8415 52.3015 65.8 52.0087 65.7581C51.6717 65.7099 51.3305 65.6611 50.9605 65.6611C50.8202 65.6592 50.6798 65.6604 50.5398 65.6616H50.5396C50.3798 65.6629 50.2204 65.6643 50.0623 65.6611C49.6923 65.6611 49.3516 65.7099 49.0152 65.7582C48.723 65.8001 48.434 65.8415 48.1319 65.8501C48.1281 65.85 48.1244 65.8498 48.1206 65.8497L48.0548 65.9637H48.5193C48.8894 65.9637 49.229 65.9148 49.5645 65.8666C49.8557 65.8247 50.1439 65.7833 50.4461 65.7747C50.7486 65.7832 51.0381 65.8247 51.3308 65.8666C51.6678 65.9148 52.009 65.9637 52.3793 65.9637H53.2741C53.644 65.9637 53.9852 65.9148 54.3221 65.8666C54.615 65.8247 54.9047 65.7832 55.2073 65.7747C55.5101 65.7832 55.8007 65.8247 56.0945 65.8666C56.4325 65.9148 56.7748 65.9637 57.1447 65.9637H58.0387C58.4086 65.9637 58.7492 65.9148 59.0855 65.8666C59.3777 65.8247 59.6668 65.7832 59.9691 65.7747C60.2716 65.7832 60.5605 65.8247 60.8525 65.8666C61.1886 65.9148 61.5288 65.9637 61.8988 65.9637H62.7968C63.1668 65.9637 63.5078 65.9148 63.8446 65.8666C64.1375 65.8247 64.4273 65.7832 64.7302 65.7747C65.0331 65.7832 65.3229 65.8247 65.6158 65.8666C65.9528 65.9148 66.294 65.9637 66.6642 65.9637H67.5582C67.9281 65.9637 68.2686 65.9148 68.6049 65.8666C68.8971 65.8247 69.1861 65.7832 69.4884 65.7747C69.7909 65.7832 70.0806 65.8247 70.3735 65.8666C70.7105 65.9148 71.0518 65.9637 71.4216 65.9637H71.9444L71.8777 65.8482Z" fill="#021455"/>
<path d="M72.0224 66.0988L71.9324 66.1073C71.6298 66.0987 71.3406 66.0572 71.0484 66.0153C70.7122 65.9671 70.3719 65.9183 70.002 65.9183C69.8609 65.9164 69.7207 65.9176 69.581 65.9188C69.4217 65.9201 69.2631 65.9215 69.104 65.9183C68.734 65.9183 68.3936 65.9671 68.0575 66.0153C67.7655 66.0573 67.4766 66.0987 67.1742 66.1073C66.8711 66.0988 66.5813 66.0573 66.2883 66.0153C65.9517 65.9671 65.611 65.9183 65.241 65.9183C65.1013 65.9164 64.9615 65.9176 64.822 65.9188C64.6629 65.9201 64.5042 65.9215 64.3464 65.9183C63.9764 65.9183 63.6351 65.9671 63.2981 66.0153C63.0053 66.0572 62.7156 66.0987 62.413 66.1073C62.1104 66.0987 61.8207 66.0572 61.5279 66.0153C61.1909 65.9671 60.8498 65.9183 60.4798 65.9183C60.3395 65.9164 60.1993 65.9176 60.0594 65.9188H60.0592C59.8995 65.9201 59.7403 65.9215 59.5819 65.9183C59.2117 65.9183 58.8712 65.9671 58.5349 66.0154C58.2428 66.0573 57.954 66.0987 57.6519 66.1073C57.3493 66.0987 57.0603 66.0572 56.7681 66.0153C56.4319 65.9671 56.0916 65.9183 55.7217 65.9183C55.5809 65.9164 55.4411 65.9176 55.3018 65.9188C55.1431 65.9201 54.985 65.9215 54.8269 65.9183C54.4569 65.9183 54.1162 65.9671 53.7796 66.0153C53.4867 66.0573 53.1968 66.0988 52.8937 66.1073C52.5911 66.0987 52.3015 66.0572 52.0087 66.0153C51.6717 65.9671 51.3305 65.9183 50.9605 65.9183C50.8202 65.9164 50.6798 65.9176 50.5398 65.9188H50.5396C50.3798 65.9201 50.2204 65.9215 50.0623 65.9183C49.6923 65.9183 49.3516 65.9671 49.0152 66.0154C48.723 66.0573 48.434 66.0987 48.1319 66.1073C48.0795 66.1058 48.0277 66.1033 47.9762 66.0999L47.9063 66.2209H48.5193C48.8894 66.2209 49.229 66.172 49.5645 66.1238C49.8558 66.0819 50.1439 66.0405 50.4461 66.0319C50.7486 66.0404 51.0381 66.0819 51.3308 66.1238C51.6678 66.172 52.009 66.2209 52.3793 66.2209H53.2741C53.644 66.2209 53.9852 66.172 54.3221 66.1238C54.615 66.0819 54.9047 66.0404 55.2073 66.0319C55.5101 66.0404 55.8007 66.0819 56.0945 66.1238C56.4325 66.172 56.7748 66.2209 57.1447 66.2209H58.0387C58.4086 66.2209 58.7492 66.172 59.0855 66.1238C59.3778 66.0819 59.6668 66.0404 59.9691 66.0319C60.2716 66.0404 60.5605 66.0819 60.8525 66.1238C61.1886 66.172 61.5288 66.2209 61.8988 66.2209H62.7968C63.1668 66.2209 63.5078 66.172 63.8446 66.1238C64.1375 66.0819 64.4273 66.0404 64.7302 66.0319C65.0331 66.0404 65.3229 66.0819 65.6158 66.1238C65.9528 66.172 66.294 66.2209 66.6642 66.2209H67.5582C67.9281 66.2209 68.2686 66.172 68.6049 66.1238C68.8971 66.0819 69.1861 66.0404 69.4884 66.0319C69.7909 66.0404 70.0806 66.0819 70.3735 66.1238C70.7106 66.172 71.0518 66.2209 71.4216 66.2209H72.0929L72.0224 66.0988Z" fill="#021455"/>
<path d="M72.1635 66.3432L71.9324 66.3651C71.6298 66.3565 71.3406 66.315 71.0484 66.2731C70.7122 66.2249 70.3719 66.1761 70.002 66.1761C69.8609 66.1742 69.7208 66.1754 69.5811 66.1766C69.4219 66.1779 69.2631 66.1793 69.104 66.1761C68.734 66.1761 68.3936 66.2249 68.0575 66.2731C67.7655 66.3151 67.4766 66.3565 67.1742 66.3651C66.8711 66.3566 66.5813 66.3151 66.2883 66.2731C65.9518 66.2249 65.611 66.1761 65.241 66.1761C65.1013 66.1742 64.9615 66.1754 64.822 66.1766C64.6629 66.1779 64.5042 66.1793 64.3464 66.1761C63.9764 66.1761 63.6351 66.2249 63.2981 66.2731C63.0053 66.3151 62.7156 66.3565 62.413 66.3651C62.1104 66.3565 61.8208 66.315 61.5279 66.2731C61.191 66.2249 60.8498 66.1761 60.4798 66.1761C60.3396 66.1742 60.1995 66.1754 60.0597 66.1766H60.0592C59.8995 66.1779 59.7403 66.1793 59.5819 66.1761C59.2117 66.1761 58.8712 66.2249 58.5349 66.2732C58.2428 66.3151 57.954 66.3565 57.6519 66.3651C57.3493 66.3565 57.0603 66.315 56.7681 66.2731C56.4319 66.2249 56.0915 66.1761 55.7217 66.1761C55.581 66.1742 55.4413 66.1754 55.3021 66.1766C55.1434 66.1779 54.985 66.1793 54.8269 66.1761C54.4569 66.1761 54.1162 66.2249 53.7796 66.2731C53.4866 66.3151 53.1968 66.3566 52.8937 66.3651C52.5911 66.3565 52.3015 66.3151 52.0087 66.2731C51.6717 66.2249 51.3305 66.1761 50.9605 66.1761C50.8202 66.1742 50.6798 66.1754 50.5398 66.1766H50.5396C50.3798 66.1779 50.2204 66.1793 50.0623 66.1761C49.6923 66.1761 49.3516 66.2249 49.0152 66.2732C48.723 66.3151 48.434 66.3565 48.1319 66.3651C48.0311 66.3623 47.9321 66.3555 47.834 66.3461L47.7575 66.4787H48.5193C48.8894 66.4787 49.229 66.4298 49.5645 66.3816C49.8557 66.3397 50.1439 66.2983 50.4461 66.2897C50.7486 66.2982 51.0381 66.3397 51.3308 66.3816C51.6678 66.4298 52.009 66.4787 52.3793 66.4787H53.2741C53.644 66.4787 53.9852 66.4298 54.3221 66.3816C54.615 66.3397 54.9047 66.2982 55.2073 66.2897C55.5101 66.2982 55.8007 66.3397 56.0945 66.3816C56.4325 66.4298 56.7748 66.4787 57.1447 66.4787H58.0387C58.4086 66.4787 58.7492 66.4298 59.0855 66.3816C59.3777 66.3397 59.6668 66.2982 59.9691 66.2897C60.2716 66.2982 60.5605 66.3397 60.8525 66.3816C61.1886 66.4298 61.5288 66.4787 61.8988 66.4787H62.7968C63.1668 66.4787 63.5078 66.4298 63.8446 66.3816C64.1375 66.3397 64.4273 66.2982 64.7302 66.2897C65.0331 66.2982 65.3229 66.3397 65.6158 66.3816C65.9528 66.4298 66.294 66.4787 66.6642 66.4787H67.5582C67.9281 66.4787 68.2686 66.4298 68.6049 66.3816C68.8971 66.3397 69.1861 66.2982 69.4884 66.2897C69.7909 66.2982 70.0806 66.3397 70.3735 66.3816C70.7105 66.4298 71.0518 66.4787 71.4216 66.4787H72.2417L72.1635 66.3432Z" fill="#021455"/>
<path d="M72.305 66.5882L71.9324 66.6235C71.6298 66.6149 71.3406 66.5734 71.0484 66.5315C70.7122 66.4833 70.3719 66.4345 70.002 66.4345C69.8609 66.4326 69.7207 66.4338 69.581 66.435C69.4217 66.4363 69.2631 66.4377 69.104 66.4345C68.734 66.4345 68.3936 66.4833 68.0575 66.5315C67.7655 66.5735 67.4766 66.6149 67.1742 66.6235C66.8711 66.615 66.5813 66.5735 66.2883 66.5315C65.9517 66.4833 65.611 66.4345 65.241 66.4345C65.1013 66.4326 64.9615 66.4338 64.822 66.435C64.6629 66.4363 64.5042 66.4377 64.3464 66.4345C63.9764 66.4345 63.6351 66.4833 63.2981 66.5315C63.0053 66.5735 62.7156 66.6149 62.413 66.6235C62.1104 66.6149 61.8207 66.5735 61.5279 66.5315C61.1909 66.4833 60.8498 66.4345 60.4798 66.4345C60.3396 66.4326 60.1993 66.4338 60.0594 66.435H60.0592C59.8995 66.4363 59.7403 66.4377 59.5819 66.4345C59.2117 66.4345 58.8712 66.4833 58.5349 66.5316C58.2428 66.5735 57.954 66.6149 57.6519 66.6235C57.3493 66.6149 57.0603 66.5734 56.7681 66.5315C56.4319 66.4833 56.0916 66.4345 55.7217 66.4345C55.581 66.4326 55.441 66.4338 55.3018 66.435C55.1431 66.4363 54.985 66.4377 54.8269 66.4345C54.4569 66.4345 54.1162 66.4833 53.7796 66.5315C53.4867 66.5735 53.1968 66.615 52.8937 66.6235C52.5911 66.6149 52.3015 66.5735 52.0087 66.5315C51.6717 66.4833 51.3305 66.4345 50.9605 66.4345C50.8202 66.4326 50.6798 66.4338 50.5398 66.435H50.5396C50.3798 66.4363 50.2204 66.4377 50.0623 66.4345C49.6923 66.4345 49.3516 66.4833 49.0152 66.5316C48.723 66.5735 48.434 66.6149 48.1319 66.6235C47.9827 66.6194 47.8376 66.6064 47.6935 66.5895L47.6087 66.7364L47.6245 66.7371H48.5193C48.8894 66.7371 49.229 66.6882 49.5645 66.64C49.8558 66.5981 50.1439 66.5567 50.4461 66.5481C50.7486 66.5566 51.0381 66.5981 51.3308 66.64C51.6678 66.6882 52.009 66.7371 52.3793 66.7371H53.2741C53.644 66.7371 53.9852 66.6882 54.3221 66.64C54.615 66.5981 54.9047 66.5566 55.2073 66.5481C55.5101 66.5566 55.8007 66.5981 56.0945 66.64C56.4325 66.6882 56.7748 66.7371 57.1447 66.7371H58.0387C58.4086 66.7371 58.7492 66.6882 59.0855 66.64C59.3778 66.5981 59.6668 66.5566 59.9691 66.5481C60.2716 66.5566 60.5605 66.5981 60.8525 66.64C61.1886 66.6882 61.5288 66.7371 61.8988 66.7371H62.7968C63.1668 66.7371 63.5078 66.6883 63.8446 66.64C64.1375 66.5981 64.4273 66.5566 64.7302 66.5481C65.0331 66.5566 65.3229 66.5981 65.6158 66.64C65.9528 66.6882 66.294 66.7371 66.6642 66.7371H67.5582C67.9281 66.7371 68.2686 66.6882 68.6049 66.64C68.8971 66.5981 69.1861 66.5566 69.4884 66.5481C69.7909 66.5566 70.0806 66.5981 70.3735 66.64C70.7106 66.6882 71.0518 66.7371 71.4216 66.7371H72.3164L72.3891 66.7339L72.305 66.5882Z" fill="#021455"/>
<path d="M72.4458 66.8321L71.9324 66.8807C71.6298 66.8721 71.3406 66.8306 71.0484 66.7887C70.7122 66.7405 70.3719 66.6917 70.002 66.6917C69.8609 66.6898 69.7208 66.691 69.5811 66.6922C69.4219 66.6935 69.2631 66.6949 69.104 66.6917C68.734 66.6917 68.3936 66.7405 68.0575 66.7888C67.7655 66.8307 67.4766 66.8721 67.1742 66.8807C66.8711 66.8722 66.5813 66.8307 66.2883 66.7887C65.9518 66.7405 65.611 66.6917 65.241 66.6917C65.1013 66.6898 64.9615 66.691 64.822 66.6922C64.6629 66.6935 64.5042 66.6949 64.3464 66.6917C63.9764 66.6917 63.6351 66.7405 63.2981 66.7887C63.0053 66.8307 62.7156 66.8721 62.413 66.8807C62.1104 66.8721 61.8208 66.8307 61.5279 66.7887C61.191 66.7405 60.8498 66.6917 60.4798 66.6917C60.3397 66.6898 60.1996 66.691 60.0599 66.6922H60.0592C59.8995 66.6935 59.7403 66.6949 59.5819 66.6917C59.2117 66.6917 58.8712 66.7405 58.5349 66.7888C58.2428 66.8307 57.954 66.8721 57.6519 66.8807C57.3493 66.8721 57.0603 66.8307 56.7681 66.7887C56.4319 66.7405 56.0915 66.6917 55.7217 66.6917C55.581 66.6898 55.4414 66.691 55.3022 66.6922H55.3018C55.1431 66.6935 54.985 66.6949 54.8269 66.6917C54.4569 66.6917 54.1162 66.7405 53.7796 66.7887C53.4866 66.8307 53.1968 66.8722 52.8937 66.8807C52.5911 66.8721 52.3015 66.8307 52.0087 66.7888C51.6717 66.7405 51.3305 66.6917 50.9605 66.6917C50.8202 66.6898 50.6798 66.691 50.5398 66.6922H50.5396C50.3798 66.6935 50.2204 66.6949 50.0623 66.6917C49.6923 66.6917 49.3516 66.7405 49.0152 66.7888C48.723 66.8307 48.434 66.8721 48.1319 66.8807C47.9349 66.8753 47.7449 66.8544 47.555 66.8294L47.4637 66.9875L47.6245 66.9943H48.5193C48.8894 66.9943 49.229 66.9454 49.5645 66.8972C49.8557 66.8553 50.1439 66.8139 50.4461 66.8053C50.7486 66.8138 51.0381 66.8553 51.3308 66.8972C51.6678 66.9454 52.009 66.9943 52.3793 66.9943H53.2741C53.644 66.9943 53.9852 66.9454 54.3221 66.8972C54.615 66.8553 54.9047 66.8138 55.2073 66.8053C55.5101 66.8138 55.8007 66.8553 56.0945 66.8972C56.4325 66.9454 56.7748 66.9943 57.1447 66.9943H58.0387C58.4086 66.9943 58.7492 66.9454 59.0855 66.8972C59.3777 66.8553 59.6668 66.8138 59.9691 66.8053C60.2716 66.8138 60.5605 66.8553 60.8525 66.8972C61.1886 66.9454 61.5288 66.9943 61.8988 66.9943H62.7968C63.1668 66.9943 63.5078 66.9455 63.8446 66.8972C64.1375 66.8553 64.4273 66.8138 64.7302 66.8053C65.0331 66.8138 65.3229 66.8553 65.6158 66.8972C65.9528 66.9454 66.294 66.9943 66.6642 66.9943H67.5582C67.9281 66.9943 68.2686 66.9454 68.6049 66.8972C68.8971 66.8553 69.1861 66.8138 69.4884 66.8053C69.7909 66.8138 70.0806 66.8553 70.3735 66.8972C70.7105 66.9454 71.0518 66.9943 71.4216 66.9943H72.3164L72.5339 66.9849L72.4458 66.8321Z" fill="#021455"/>
<path d="M49.0152 67.0466C49.3516 66.9983 49.6923 66.9495 50.0623 66.9495C50.2204 66.9527 50.3798 66.9513 50.5396 66.95H50.5398C50.6798 66.9488 50.8202 66.9476 50.9605 66.9495C51.3305 66.9495 51.6717 66.9983 52.0087 67.0465C52.3015 67.0885 52.5911 67.1299 52.8937 67.1385C53.1968 67.13 53.4866 67.0885 53.7796 67.0465C54.1161 66.9983 54.4569 66.9495 54.8269 66.9495C54.985 66.9527 55.1431 66.9513 55.3018 66.95H55.302C55.4412 66.9488 55.581 66.9476 55.7217 66.9495C56.0916 66.9495 56.4319 66.9983 56.7681 67.0465C57.0603 67.0884 57.3493 67.1299 57.6519 67.1385C57.954 67.1299 58.2428 67.0885 58.5349 67.0466C58.8712 66.9983 59.2117 66.9495 59.5819 66.9495C59.7403 66.9527 59.8995 66.9513 60.0592 66.95H60.0599C60.1996 66.9488 60.3397 66.9476 60.4798 66.9495C60.8498 66.9495 61.1909 66.9983 61.5279 67.0465C61.8207 67.0885 62.1104 67.1299 62.413 67.1385C62.7156 67.1299 63.0053 67.0885 63.2981 67.0465C63.6351 66.9983 63.9764 66.9495 64.3464 66.9495C64.5042 66.9527 64.6629 66.9513 64.822 66.95C64.9615 66.9488 65.1013 66.9476 65.241 66.9495C65.611 66.9495 65.9517 66.9983 66.2883 67.0465C66.5813 67.0885 66.8711 67.13 67.1742 67.1385C67.4766 67.1299 67.7655 67.0885 68.0575 67.0466C68.3936 66.9983 68.734 66.9495 69.104 66.9495C69.2631 66.9527 69.4217 66.9513 69.581 66.95C69.7207 66.9488 69.8609 66.9476 70.002 66.9495C70.3719 66.9495 70.7122 66.9983 71.0484 67.0465C71.3406 67.0884 71.6298 67.1299 71.9324 67.1385L72.5794 67.0773L72.672 67.2367L72.3164 67.2521H71.4216C71.0518 67.2521 70.7106 67.2032 70.3735 67.155C70.0806 67.1131 69.7909 67.0716 69.4884 67.0631C69.1861 67.0716 68.8971 67.1131 68.6049 67.155C68.2686 67.2032 67.9281 67.2521 67.5582 67.2521H66.6642C66.294 67.2521 65.9528 67.2032 65.6158 67.155C65.3229 67.1131 65.0331 67.0716 64.7302 67.0631C64.4273 67.0716 64.1375 67.1131 63.8446 67.155C63.5078 67.2033 63.1668 67.2521 62.7968 67.2521H61.8988C61.5288 67.2521 61.1886 67.2032 60.8525 67.155C60.5605 67.1131 60.2716 67.0716 59.9691 67.0631C59.6668 67.0716 59.3778 67.1131 59.0855 67.155C58.7492 67.2032 58.4086 67.2521 58.0387 67.2521H57.1447C56.7748 67.2521 56.4325 67.2032 56.0945 67.155C55.8007 67.1131 55.5101 67.0716 55.2073 67.0631C54.9047 67.0716 54.615 67.1131 54.3221 67.155C53.9852 67.2032 53.644 67.2521 53.2741 67.2521H52.3793C52.009 67.2521 51.6678 67.2032 51.3308 67.155C51.0381 67.1131 50.7486 67.0716 50.4461 67.0631C50.1439 67.0717 49.8558 67.1131 49.5645 67.155C49.229 67.2032 48.8894 67.2521 48.5193 67.2521H47.6245L47.3269 67.2395L47.4249 67.0695C47.6585 67.1019 47.8899 67.1319 48.1319 67.1385C48.434 67.1299 48.723 67.0885 49.0152 67.0466Z" fill="#021455"/>
<path d="M48.2834 65.7791L48.7688 64.9409L50.5978 64.7109L70.847 64.2657C70.8496 64.2656 70.8522 64.2655 70.8547 64.2653C70.8583 64.2651 70.8618 64.2649 70.8653 64.2649L71.233 64.9155C71.0651 64.9115 70.9159 64.903 70.7683 64.8946C70.4294 64.8753 70.099 64.8565 69.572 64.8937C69.2892 64.9136 69.0105 64.9564 68.7279 64.9997C68.2543 65.0723 67.7701 65.1466 67.2388 65.1179C66.7122 65.1179 66.4062 65.0735 66.0999 65.029C65.7504 64.9783 65.4005 64.9275 64.722 64.9425C64.1249 64.9555 63.789 65.0254 63.4795 65.0898C63.1725 65.1536 62.8913 65.2121 62.4068 65.2045C62.0332 65.1987 61.6939 65.174 61.372 65.1506C60.8555 65.113 60.3836 65.0787 59.8862 65.1307C59.564 65.1644 59.2177 65.2191 58.878 65.2728C58.3664 65.3537 57.8696 65.4322 57.4916 65.4331C57.1768 65.4316 56.8619 65.4005 56.5447 65.3691C56.0742 65.3226 55.5986 65.2756 55.1104 65.3241C54.7895 65.356 54.5357 65.409 54.2844 65.4616C53.8958 65.5428 53.5132 65.6228 52.8978 65.6211C52.4472 65.6197 51.9933 65.5706 51.5586 65.5236C51.1529 65.4797 50.7639 65.4376 50.4102 65.4379C49.9152 65.4383 49.3484 65.5595 48.8581 65.6644C48.6487 65.7092 48.4533 65.751 48.2834 65.7791Z" fill="#B1EB50"/>
<path d="M70.7823 64.9852L70.0129 64.9296C70.2151 64.9148 70.5097 64.9274 70.7676 64.9385C71.023 64.9494 71.2423 64.9588 71.2993 64.9384L71.3733 65.0363C71.1761 65.0225 70.979 65.0055 70.7823 64.9852Z" fill="white"/>
<path d="M59.9999 44.9747L53.5716 56.1119L47 67.4917L59.8595 67.4903L72.9999 67.4917L66.5693 56.3551L59.9999 44.9747ZM59.9999 45.5751L66.3099 56.5055L72.4799 67.1911L59.8595 67.1903L47.5194 67.1911L53.8314 56.2621L59.9999 45.5751Z" fill="#D3AE3B"/>
</svg>
