<svg width="120" height="120" viewBox="0 0 120 120" fill="none" xmlns="http://www.w3.org/2000/svg">
<g clip-path="url(#clip0_307_91470)">
<circle cx="60" cy="60" r="60" fill="white"/>
<path d="M24.5739 11.5699L94.0768 55.0943H35.7228L91.6263 110.998C82.4438 116.704 71.6068 120 60 120C26.8629 120 0 93.1371 0 60C0 40.1137 9.67458 22.4871 24.5739 11.5699Z" fill="#D91C16"/>
<path fill-rule="evenodd" clip-rule="evenodd" d="M106.434 58.6443L27.7697 9.38257C15.2624 17.3631 5.91104 29.852 2.0055 44.5593C1.6748 45.8046 1.38313 47.0658 1.13191 48.3416C0.389263 52.1128 0 56.011 0 60C0 93.1371 26.8629 120 60 120C69.3198 120 78.1433 117.875 86.0125 114.083C86.8351 113.687 87.6472 113.272 88.4484 112.84C89.4569 112.296 90.4481 111.724 91.4208 111.125C91.4894 111.083 91.5579 111.04 91.6263 110.998C92.6531 110.36 93.659 109.691 94.6432 108.994L44.2933 58.6443H106.434ZM89.0437 108.415L35.7228 55.0943H94.0768L27.8289 13.6083C26.7851 14.3335 25.7669 15.0929 24.776 15.8851C11.8318 26.2344 3.55 42.1498 3.55 60C3.55 91.1765 28.8235 116.45 60 116.45C69.3095 116.45 78.0848 114.198 85.8203 110.212C86.9161 109.647 87.9911 109.048 89.0437 108.415Z" fill="#0F3296"/>
<path d="M35.1094 36.295L34.2553 32.9456L32.183 35.7152L30.1106 32.9456L29.2565 36.295L29.2538 36.2962L26.2814 34.5317L26.7745 37.9555L23.3507 37.4625L25.1151 40.4348L25.114 40.4375L21.7646 41.2916L24.5342 43.364L23.1273 44.4167C22.8258 44.2367 22.5292 44.0473 22.2379 43.8488C19.3062 41.851 17.0441 39.0165 15.7463 35.7146C15.7463 40.0739 17.4781 44.2546 20.5605 47.337C23.643 50.4195 27.8237 52.1512 32.183 52.1512C36.5422 52.1512 40.7229 50.4195 43.8054 47.337C46.8879 44.2546 48.6196 40.0739 48.6196 35.7146C47.3219 39.0165 45.0598 41.851 42.128 43.8488C41.8367 44.0473 41.5401 44.2367 41.2387 44.4167L39.8317 43.364L42.6014 41.2916L39.2519 40.4375L39.2508 40.4348L41.0153 37.4625L37.5915 37.9555L38.0845 34.5317L35.1122 36.2962L35.1094 36.295Z" fill="white"/>
<path d="M49.8435 84.2715L43.0051 87.1691L43.004 87.1732L47.4774 93.1017L40.103 92.1915L41.0132 99.5659L35.0847 95.0925C35.0833 95.0929 35.0819 95.0933 35.0805 95.0937L32.183 101.932L29.2854 95.0937L29.2812 95.0925L23.3527 99.5659L24.263 92.1915L16.8885 93.1018L21.3619 87.1733L21.3608 87.1691L14.5225 84.2715L21.3608 81.374L21.3619 81.3698L16.8885 75.4413L24.263 76.3516L23.3527 68.9771L29.2812 73.4505L29.2854 73.4494L32.183 66.6111L35.0805 73.4494L35.0847 73.4505L41.0132 68.9771L40.103 76.3516L47.4774 75.4413L43.004 81.3698L43.0051 81.374L49.8435 84.2715Z" fill="white"/>
</g>
<defs>
<clipPath id="clip0_307_91470">
<rect width="120" height="120" fill="white"/>
</clipPath>
</defs>
</svg>
