<svg width="120" height="120" viewBox="0 0 120 120" fill="none" xmlns="http://www.w3.org/2000/svg">
<g clip-path="url(#clip0_324_33739)">
<mask id="mask0_324_33739" style="mask-type:alpha" maskUnits="userSpaceOnUse" x="0" y="0" width="120" height="120">
<circle cx="60" cy="60" r="60" fill="#FDD406"/>
</mask>
<g mask="url(#mask0_324_33739)">
<circle cx="60" cy="60" r="60" fill="#FDD406"/>
<path d="M0 0H60V40H0V0Z" fill="#021455"/>
<path d="M60 4.8073L37.211 20L60 35.1927V40H52.789L30 24.8073L7.21093 40H0V35.1927L22.7891 20L0 4.8073V0H7.21093L30 15.1927L52.789 0H60V4.8073Z" fill="white"/>
<path fill-rule="evenodd" clip-rule="evenodd" d="M25.1927 20L0 3.20475V0L30 19.9998L25.1927 20Z" fill="#D91C16"/>
<path fill-rule="evenodd" clip-rule="evenodd" d="M30 23.2047L4.8073 39.9999H0L30 19.9998V23.2047Z" fill="#D91C16"/>
<path fill-rule="evenodd" clip-rule="evenodd" d="M34.8073 19.9999L60 36.7949V39.9999L30 19.9998L34.8073 19.9999Z" fill="#D91C16"/>
<path d="M30 16.7949L55.1927 0H60L30 19.9998V16.7949Z" fill="#D91C16"/>
<path d="M36.6667 0V13.3333H60V26.6667H36.6667V40H23.3333V26.6667H0V13.3333H23.3333V0H36.6667Z" fill="white"/>
<path d="M34 0V16H60V24H34V40H26V24H0V16H26V0H34Z" fill="#D91C16"/>
<path fill-rule="evenodd" clip-rule="evenodd" d="M10.8963 16.5801L11.7713 19.2729H14.6028L12.3121 20.9372L13.187 23.6301L10.8963 21.9658L8.60566 23.6301L9.48063 20.9372L7.18994 19.2729H10.0214L10.8963 16.5801Z" fill="#FEDD00"/>
<path fill-rule="evenodd" clip-rule="evenodd" d="M29.9989 30.58L30.8736 33.2718H33.7039L31.4141 34.9354L32.2888 37.6273L29.9989 35.9636L27.7091 37.6273L28.5838 34.9354L26.2939 33.2718H29.1243L29.9989 30.58Z" fill="#FEDD00"/>
<path fill-rule="evenodd" clip-rule="evenodd" d="M49.9813 19.2729L49.1063 16.5801L48.2313 19.2729H45.3999L47.6906 20.9372L46.8156 23.6301L49.1063 21.9658L51.397 23.6301L50.522 20.9372L52.8127 19.2729H49.9813Z" fill="#FEDD00"/>
<path fill-rule="evenodd" clip-rule="evenodd" d="M29.9989 2.37012L30.8736 5.06196H33.7039L31.4141 6.72561L32.2888 9.41745L29.9989 7.7538L27.7091 9.41745L28.5838 6.72561L26.2939 5.06196H29.1243L29.9989 2.37012Z" fill="#FEDD00"/>
<path d="M30.0019 28.212C34.5361 28.212 38.2118 24.5363 38.2118 20.0021C38.2118 15.4679 34.5361 11.7922 30.0019 11.7922C25.4677 11.7922 21.792 15.4679 21.792 20.0021C21.792 24.5363 25.4677 28.212 30.0019 28.212Z" fill="#012169"/>
<path fill-rule="evenodd" clip-rule="evenodd" d="M30.0014 11.792L31.8447 17.4649H37.8095L32.9839 20.9709L34.8271 26.6438L30.0014 23.1378L25.1758 26.6438L27.019 20.9709L22.1934 17.4649H28.1582L30.0014 11.792Z" fill="#FEDD00"/>
</g>
</g>
<defs>
<clipPath id="clip0_324_33739">
<rect width="120" height="120" fill="white"/>
</clipPath>
</defs>
</svg>
