<svg width="120" height="120" viewBox="0 0 120 120" fill="none" xmlns="http://www.w3.org/2000/svg">
<circle cx="60" cy="60" r="60" fill="#FDD406"/>
<path d="M3.41406 40C11.6508 16.6962 33.8756 0 59.9999 0V40H3.41406Z" fill="#021455"/>
<path d="M51.8607 0.547409C54.5223 0.186438 57.2393 0 59.9999 0V5.16667L37.4999 20.0833L59.9999 34.9167V40H52.4999L29.9999 25.0833L7.5937 40H3.41406C4.71561 36.3176 6.36643 32.8002 8.32673 29.4875L22.4062 20.1667L17.9402 17.2101C20.0107 15.1746 22.2284 13.2883 24.5757 11.5685L29.9062 15.0833L51.8607 0.547409Z" fill="white"/>
<path d="M55.0032 0.205098C56.6508 0.0692646 58.3173 0 59.9999 0V0.25L36.6562 15.9167L36.8437 12.25L55.0032 0.205098Z" fill="#E23726"/>
<path d="M20.6935 14.6667C20.9395 14.4532 21.1873 14.2416 21.4368 14.0321L22.4062 14.6667H20.6935Z" fill="#E23726"/>
<path d="M3.41406 40C3.77659 38.9743 4.16621 37.9614 4.58207 36.9622L22.4999 25.0833L23.0624 28L5.06245 40H3.41406Z" fill="#E23726"/>
<path d="M59.9999 36.6667L39.7499 23.4167H34.5937L59.9999 40V36.6667Z" fill="#E23726"/>
<path d="M22.5936 13.0847C27.1075 9.48101 32.153 6.51511 37.5936 4.32355V13.3334H59.9999V26.6667H37.5936V40H22.5936V26.6667H10.1035C13.474 21.6315 17.5864 17.1349 22.2843 13.3334H22.5936V13.0847Z" fill="white"/>
<path d="M25.5937 10.8388C28.4242 8.85416 31.4339 7.10777 34.5937 5.62872V16.0833H60V24.0833H34.5937V40H25.5937V24.0833H11.9331C14.0866 21.2059 16.4924 18.5283 19.1178 16.0833H25.5937V10.8388Z" fill="#E23726"/>
<path d="M29.922 28.5064C34.6201 28.5064 38.4285 24.6979 38.4285 19.9999C38.4285 15.3019 34.6201 11.4934 29.922 11.4934C25.224 11.4934 21.4155 15.3019 21.4155 19.9999C21.4155 24.6979 25.224 28.5064 29.922 28.5064Z" fill="#021455"/>
<path d="M27.7061 9.42336C28.9687 8.61547 30.2636 7.85357 31.5884 7.14001L32.4722 9.99999L30.0001 8.11145L27.5279 9.99999L27.7061 9.42336Z" fill="#FDD406"/>
<path d="M12.5393 23.2873C12.7083 23.0691 12.8788 22.8521 13.0508 22.6363L13.4722 24L12.5393 23.2873Z" fill="#FDD406"/>
<path d="M29.922 11.4934L31.8318 17.3713H38.0122L33.0122 21.004L34.922 26.8818L29.922 23.2491L24.922 26.8818L26.8318 21.004L21.8318 17.3713H28.0122L29.922 11.4934Z" fill="#FDD406"/>
<path d="M49.9443 19.0557L49.0001 16L48.0558 19.0557H45.0001L47.4722 20.9443L46.5279 24L49.0001 22.1114L51.4722 24L50.5279 20.9443L53.0001 19.0557H49.9443Z" fill="#FDD406"/>
<path d="M30.9443 33.0557L30.0001 30L29.0558 33.0557H26.0001L28.4722 34.9443L27.5279 38L30.0001 36.1114L32.4722 38L31.5279 34.9443L34.0001 33.0557H30.9443Z" fill="#FDD406"/>
</svg>
