<svg width="120" height="120" viewBox="0 0 120 120" fill="none" xmlns="http://www.w3.org/2000/svg">
<g clip-path="url(#clip0_307_91479)">
<circle cx="60" cy="60" r="60" fill="#021455"/>
<path d="M3.41406 40C11.6508 16.6962 33.8756 0 59.9999 0V40H3.41406Z" fill="#021455"/>
<path d="M51.8607 0.547409C54.5223 0.186438 57.2393 0 59.9999 0V5.16667L37.4999 20.0833L59.9999 34.9167V40H52.4999L29.9999 25.0833L7.5937 40H3.41406C4.71561 36.3176 6.36643 32.8002 8.32673 29.4875L22.4062 20.1667L17.9402 17.2101C20.0107 15.1746 22.2284 13.2883 24.5757 11.5685L29.9062 15.0833L51.8607 0.547409Z" fill="white"/>
<path d="M55.0032 0.205098C56.6508 0.0692646 58.3173 0 59.9999 0V0.25L36.6562 15.9167L36.8437 12.25L55.0032 0.205098Z" fill="#D91C16"/>
<path d="M20.6935 14.6667C20.9395 14.4532 21.1873 14.2416 21.4368 14.0321L22.4062 14.6667H20.6935Z" fill="#D91C16"/>
<path d="M3.41406 40C3.77659 38.9743 4.16621 37.9614 4.58207 36.9622L22.4999 25.0833L23.0624 28L5.06245 40H3.41406Z" fill="#D91C16"/>
<path d="M59.9999 36.6667L39.7499 23.4167H34.5937L59.9999 40V36.6667Z" fill="#D91C16"/>
<path d="M22.5936 13.0847C27.1075 9.48098 32.153 6.51508 37.5936 4.32352V13.3333H59.9999V26.6667H37.5936V40H22.5936V26.6667H10.1035C13.474 21.6315 17.5864 17.1349 22.2843 13.3333H22.5936V13.0847Z" fill="white"/>
<path d="M25.5942 10.8388C28.4247 8.85416 31.4344 7.10777 34.5942 5.62872V16.0833H60.0005V24.0833H34.5942V40H25.5942V24.0833H11.9336C14.0871 21.2059 16.4929 18.5283 19.1183 16.0833H25.5942V10.8388Z" fill="#D91C16"/>
<path d="M90.3238 111.785C89.7796 112.104 89.2298 112.415 88.6747 112.718L85.0005 110.048L78.7707 114.574L81.1503 107.251L74.9206 102.725H82.6209L85.0005 95.4012L87.38 102.725H95.0805L88.8507 107.251L90.3238 111.785Z" fill="white"/>
<path d="M87.1439 31.0496L85.0005 24.4526L82.857 31.0496H75.9206L81.5323 35.1268L79.3888 41.7238L85.0005 37.6466L90.6123 41.7238L88.4688 35.1267L94.0804 31.0496H87.1439Z" fill="white"/>
<path d="M111.853 55.6625L113.76 61.533L108.767 57.9048L103.773 61.533L105.68 55.6625L100.687 52.0344L106.859 52.0344L108.767 46.1639L110.674 52.0344H116.847L111.853 55.6625Z" fill="white"/>
<path d="M57.2732 52.3495L59.4167 58.9464H66.3532L60.7416 63.0236L62.8851 69.6207L57.2733 65.5434L51.6616 69.6207L53.8051 63.0236L48.1934 58.9464H55.1298L57.2732 52.3495Z" fill="white"/>
<path d="M85.0006 27.6912L86.417 32.0504L91.0006 32.0504L87.2925 34.7445L88.7089 39.1038L85.0007 36.4097L81.2925 39.1038L82.7089 34.7445L79.0007 32.0504H83.5842L85.0006 27.6912Z" fill="#D91C16"/>
<path d="M108.767 49.4025L109.947 53.0352H113.767L110.677 55.2803L111.857 58.913L108.767 56.6679L105.677 58.913L106.857 55.2803L103.767 53.0352H107.586L108.767 49.4025Z" fill="#D91C16"/>
<path d="M63.2733 59.9472L59.5652 62.6414L60.9816 67.0007L57.2734 64.3065L53.5652 67.0007L54.9816 62.6414L51.2734 59.9472H55.8569L57.2733 55.588L58.6897 59.9472H63.2733Z" fill="#D91C16"/>
<path d="M85.0006 98.6397L86.6531 103.725H92.0006L87.6744 106.869L89.3269 111.954L85.0007 108.811L80.6744 111.954L82.3269 106.869L78.0008 103.725H83.3482L85.0006 98.6397Z" fill="#D91C16"/>
</g>
<defs>
<clipPath id="clip0_307_91479">
<rect width="120" height="120" fill="white"/>
</clipPath>
</defs>
</svg>
