<svg width="120" height="120" viewBox="0 0 120 120" fill="none" xmlns="http://www.w3.org/2000/svg">
<g clip-path="url(#clip0_307_93136)">
<circle cx="60" cy="60" r="60" fill="black"/>
<path d="M102.426 102.426C113.284 91.5685 120 76.5685 120 60C120 26.8629 93.1367 0 59.9996 0C43.4311 0 28.4311 6.71573 17.5732 17.5736L102.426 102.426Z" fill="#D91C16"/>
<path d="M73.0595 34.8653C71.8778 36.3916 69.0814 33.3299 65.7314 33.26C62.3814 33.1901 60.0084 36.4703 59.0314 37.5871C58.0545 38.704 54.9138 44.5662 54.9836 45.1944C55.0533 45.8225 56.9379 43.4496 57.6357 43.0309C57.7054 43.8684 56.8679 44.8456 57.0773 45.1246C57.2867 45.4037 59.5199 43.4496 60.2877 43.3799C60.497 43.9383 59.8689 44.4965 60.0783 45.334C60.3576 45.6131 61.6138 43.9381 62.4513 43.5893C62.5908 44.2174 61.6836 45.404 62.172 46.1715C62.5211 46.2412 64.6146 43.7987 65.3127 43.5194C66.0107 43.2401 64.9636 45.8225 65.3127 46.0319C65.9408 45.6131 67.8951 43.3797 68.5232 43.1006C69.1513 42.8215 68.4535 45.9622 68.7326 45.9622C69.5002 45.4037 71.4545 42.7518 71.6638 42.3331C71.8732 41.9143 71.4545 46.3809 73.6179 48.754C75.7814 51.127 79.0619 53.8487 79.4107 53.8487C79.8295 53.0809 79.2713 51.4758 79.6201 51.5456C80.597 52.5924 82.4117 54.1278 82.8304 54.1278C83.2492 54.1278 82.5511 52.4528 83.1095 52.4528C84.2263 53.4996 87.4367 57.6174 93.7179 59.5018C93.2992 58.3153 92.3918 57.2684 92.322 56.7102C92.7408 56.7799 94.2066 57.478 94.4857 57.4081C94.7648 57.3381 91.4148 53.2206 91.6242 52.6621C92.392 52.5924 92.741 53.0809 93.0201 52.7319C92.6711 52.1737 89.7398 48.8934 89.7398 48.1256C89.7398 47.3578 90.6472 48.2653 90.9263 48.1256C91.2054 47.986 89.8097 45.0547 90.0888 44.7059C90.3679 44.3571 93.4386 46.5903 94.2064 46.5903C94.9742 46.5903 94.4158 43.8684 94.7648 43.7287C95.1138 43.5891 97.6963 45.1944 98.2545 45.1944C98.8127 45.1944 98.7429 44.0078 98.9523 44.1475C99.1617 44.2871 105.234 50.359 103.14 57.4778C101.046 62.5727 96.8588 65.2946 90.717 63.0612C91.0658 63.6196 94.3461 66.3415 97.9054 65.3643C101.465 64.3871 105.792 61.5956 105.303 54.6165C104.815 47.6374 102.511 46.6602 102.163 45.6133C101.814 44.5665 102.721 45.8924 103.489 46.1717C104.256 46.451 103.349 44.7059 103.14 43.9381C102.93 43.1703 105.443 45.5434 106.071 45.7528C106.699 45.9621 104.605 40.0299 103.977 39.6112C103.349 39.1924 104.605 39.7506 105.024 39.8903C105.443 40.0299 101.186 33.3996 100.278 33.3996C99.3711 33.3996 101.046 33.0506 101.535 33.0506C102.023 33.0506 96.6494 28.7235 95.742 28.7235C94.8345 28.7235 97.6959 27.6067 97.9752 27.5369C98.4638 27.6067 91.7638 23.9776 85.7617 27.6067C85.4127 27.3278 88.5885 25.1293 88.6929 24.1871C88.7279 23.9428 87.6463 23.4194 87.5763 23.1403C87.5064 22.8612 89.2513 22.0237 89.3211 21.3956C88.9023 20.8372 88.1345 21.0465 87.7158 20.9071C87.6113 20.3836 89.1816 19.0924 89.042 18.5342C88.9373 18.2202 87.7855 18.1155 87.5064 18.3249C87.2273 18.5342 88.2394 16.8592 88.0648 16.3708C87.9254 16.1614 87.367 16.301 86.8086 16.4405C86.4595 16.3708 88.6232 13.3696 88.2045 12.9508C87.7857 12.5321 81.923 16.0215 79.7595 19.9299C77.5961 23.8383 79.2713 26.979 78.992 28.3049C78.7127 29.6309 78.3636 30.9571 77.4564 30.9571C76.5492 30.9571 74.4556 29.5612 73.7576 28.8633C73.0595 28.1655 72.9201 27.6768 71.9429 27.3977C70.9658 27.1186 68.7326 27.9561 67.8951 28.0258C67.0576 28.0956 63.7773 27.3977 63.5679 27.6071C63.3586 27.8165 66.7783 29.0727 67.5461 29.4915C68.3138 29.9102 68.3838 30.4686 68.942 30.8174C69.5002 31.1662 74.7345 32.7018 73.0595 34.8653ZM93.5086 44.7059C95.1836 46.3809 106.49 53.9184 106.49 63.1309C106.49 72.3434 98.2543 72.0645 95.8814 71.7852C98.5336 74.0184 108.584 73.5996 108.584 63.1309C108.584 53.9184 95.6023 44.7059 93.9273 43.8684C92.2523 43.0309 91.8336 43.0309 93.5086 44.7059Z" fill="#FDD406"/>
<path d="M29.5454 111.708C29.0412 111.41 28.5417 111.105 28.0471 110.794L28.9561 107.789L24.391 104.328L30.1186 104.211L31.9995 98.8001L33.8804 104.211L39.6079 104.328L35.0428 107.789L36.7017 113.272L31.9995 110L29.5454 111.708Z" fill="white"/>
<path d="M31.9995 42.8L33.8804 48.2112L39.6079 48.3279L35.0428 51.7889L36.7017 57.2722L31.9995 54L27.2972 57.2722L28.9561 51.7889L24.391 48.3279L30.1186 48.2112L31.9995 42.8Z" fill="white"/>
<path d="M14.3995 66.8001L16.2804 72.2112L22.0079 72.3279L17.4428 75.7889L19.1017 81.2722L14.3995 78L9.69718 81.2722L11.3561 75.7889L6.79102 72.3279L12.5186 72.2112L14.3995 66.8001Z" fill="white"/>
<path d="M47.9995 65.2001L49.8804 70.6112L55.6079 70.7279L51.0428 74.1889L52.7017 79.6722L47.9995 76.4001L43.2972 79.6722L44.9561 74.1889L40.391 70.7279L46.1186 70.6112L47.9995 65.2001Z" fill="white"/>
<path d="M40.9399 87.9056L39.9995 85.2001L39.059 87.9056L36.1952 87.964L38.4778 89.6945L37.6483 92.4361L39.9995 90.8001L42.3506 92.4361L41.5212 89.6945L43.8037 87.964L40.9399 87.9056Z" fill="white"/>
</g>
<defs>
<clipPath id="clip0_307_93136">
<rect width="120" height="120" fill="white"/>
</clipPath>
</defs>
</svg>
