<svg width="120" height="120" viewBox="0 0 120 120" fill="none" xmlns="http://www.w3.org/2000/svg">
<g clip-path="url(#clip0_354_586)">
<circle cx="60" cy="60" r="60" fill="#021455"/>
<path d="M3.41406 40C11.6508 16.6962 33.8756 0 59.9999 0V40H3.41406Z" fill="#021455"/>
<path d="M51.8607 0.547409C54.5223 0.186438 57.2393 0 59.9999 0V5.16667L37.4999 20.0833L59.9999 34.9167V40H52.4999L29.9999 25.0833L7.5937 40H3.41406C4.71561 36.3176 6.36643 32.8002 8.32673 29.4875L22.4062 20.1667L17.9402 17.2101C20.0107 15.1746 22.2284 13.2883 24.5757 11.5685L29.9062 15.0833L51.8607 0.547409Z" fill="white"/>
<path d="M55.0032 0.205098C56.6508 0.0692646 58.3173 0 59.9999 0V0.25L36.6562 15.9167L36.8437 12.25L55.0032 0.205098Z" fill="#D91C16"/>
<path d="M20.6935 14.6667C20.9395 14.4532 21.1873 14.2416 21.4368 14.0321L22.4062 14.6667H20.6935Z" fill="#D91C16"/>
<path d="M3.41406 40C3.77659 38.9743 4.16621 37.9614 4.58207 36.9622L22.4999 25.0833L23.0624 28L5.06245 40H3.41406Z" fill="#D91C16"/>
<path d="M59.9999 36.6667L39.7499 23.4167H34.5937L59.9999 40V36.6667Z" fill="#D91C16"/>
<path d="M22.5936 13.0849C27.1075 9.4812 32.153 6.5153 37.5936 4.32373V13.3335H59.9999V26.6669H37.5936V40.0002H22.5936V26.6669H10.1035C13.474 21.6317 17.5864 17.1351 22.2843 13.3335H22.5936V13.0849Z" fill="white"/>
<path d="M25.5942 10.839C28.4247 8.85434 31.4344 7.10795 34.5942 5.62891V16.0835H60.0005V24.0835H34.5942V40.0002H25.5942V24.0835H11.9336C14.0871 21.2061 16.4929 18.5285 19.1183 16.0835H25.5942V10.839Z" fill="#D91C16"/>
<path d="M75.2652 62.71C73.3649 64.3134 71.5536 66.674 71.1082 68.797C69.8611 74.7801 68.1983 76.1014 65.6299 74.8247C65.6299 78.0315 68.4507 78.2839 69.683 76.3984C69.683 79.4122 70.7816 82.0252 73.2461 84.2521C74.2854 85.1875 74.4784 84.5491 73.9884 83.5098C73.4985 82.4706 73.4985 79.1153 72.5038 77.1852C74.0775 78.3136 76.4084 77.6752 76.2154 74.5723C74.1963 75.76 72.1772 75.7154 71.9693 72.8946C71.7021 69.5839 72.9937 64.7736 75.2652 62.71Z" fill="#FDD406"/>
<path d="M74.0187 84.7421C73.8257 84.7421 73.5585 84.5788 73.217 84.2818C70.8564 82.144 69.6836 79.6052 69.639 76.532C69.0155 77.3931 68.0208 77.8088 67.13 77.5416C66.165 77.2595 65.5859 76.2351 65.5859 74.8098V74.7356L65.6453 74.7653C66.6252 75.2552 67.4417 75.3294 68.1247 75.0028C69.3569 74.409 70.2923 72.4195 71.0643 68.7673C71.5542 66.4513 73.5436 64.0907 75.2361 62.6506L77.1068 61.062L75.2955 62.71C73.024 64.7885 71.7472 69.6284 71.9996 72.8649C72.0887 73.9784 72.445 74.7059 73.0834 75.0325C73.8257 75.4185 74.9392 75.2404 76.1863 74.498L76.2457 74.4683V74.5426C76.3348 75.953 75.9042 77.0071 75.058 77.4822C74.3305 77.883 73.41 77.8088 72.6083 77.304C73.1428 78.4323 73.3655 80.0209 73.5585 81.2977C73.6921 82.2479 73.8109 83.0496 74.0187 83.4801C74.3008 84.0888 74.3602 84.5491 74.1672 84.6975C74.1226 84.7272 74.0781 84.7421 74.0187 84.7421ZM69.7281 76.2499V76.3984C69.7281 79.5013 70.8861 82.0697 73.2764 84.2225C73.8554 84.7421 74.0633 84.6827 74.1226 84.6382C74.2563 84.5491 74.2414 84.1631 73.9445 83.5395C73.7366 83.109 73.6179 82.2924 73.4842 81.3422C73.2912 80.0061 73.0537 78.3581 72.4747 77.2298L72.3856 77.0665L72.5341 77.1704C73.3358 77.7494 74.2859 77.8533 75.0283 77.4376C75.8448 76.9922 76.2457 75.9975 76.1863 74.6614C74.9392 75.374 73.8257 75.5521 73.0685 75.1513C72.4005 74.8098 72.0293 74.0526 71.9402 72.9095C71.7175 69.9996 72.7122 65.7832 74.5829 63.4226C73.0982 64.8479 71.5987 66.8521 71.183 68.8119C70.411 72.4938 69.4609 74.498 68.1989 75.1067C67.5011 75.4482 66.6846 75.374 65.7047 74.8989C65.7196 76.2499 66.254 77.1852 67.1745 77.4673C68.0653 77.7346 69.06 77.304 69.6687 76.3835L69.7281 76.2499Z" fill="black"/>
<path d="M72.8622 38.9255C72.9959 37.7378 72.7435 36.5204 71.8824 35.7483C70.2047 34.2785 68.5716 34.7685 67.3394 35.9562C65.5132 34.9763 64.5482 38.4652 62.4697 37.8862C62.8112 39.0146 63.3605 39.5193 64.3998 39.1185C63.316 40.0984 64.3998 41.2861 63.123 42.4738C65.439 43.2161 66.6861 41.9393 66.5822 39.7123C67.473 40.4992 68.8537 40.4547 69.596 39.5639C68.3638 39.163 68.3489 38.0941 68.8537 37.0994C69.5812 35.5999 73.0552 35.6593 72.8622 38.9255Z" fill="#FDD406"/>
<path d="M64.3404 42.7264C63.9692 42.7264 63.5535 42.6522 63.1081 42.5186L63.0339 42.4889L63.0933 42.4444C63.7465 41.8356 63.7762 41.2418 63.7911 40.6479C63.8059 40.1432 63.8356 39.6681 64.2365 39.2227C63.8653 39.3266 63.5535 39.3266 63.2863 39.193C62.9151 39.0148 62.6479 38.5991 62.4252 37.9013L62.3955 37.8271L62.4697 37.842C63.4645 38.124 64.2068 37.4411 64.9194 36.773C65.6766 36.0752 66.3744 35.422 67.3245 35.9119C68.1856 35.0805 69.9078 33.9819 71.8972 35.7338C72.6841 36.4315 73.0553 37.6044 72.8919 38.9406L72.7286 39.6829L72.8029 38.9406C72.8919 37.5747 72.2832 36.5949 71.2143 36.2979C70.279 36.0455 69.2249 36.4167 68.8686 37.1293C68.5568 37.7677 68.4825 38.3467 68.6607 38.7773C68.8092 39.1336 69.1209 39.386 69.5812 39.5344L69.6406 39.5493L69.596 39.5938C69.2397 40.0095 68.7498 40.2619 68.1856 40.3065C67.6215 40.351 67.0424 40.1728 66.597 39.8165C66.6267 40.9449 66.3001 41.8356 65.6766 42.3256C65.3203 42.578 64.8749 42.7264 64.3404 42.7264ZM63.1972 42.4444C64.2068 42.7561 65.053 42.6819 65.632 42.2217C66.2556 41.7466 66.5674 40.8409 66.5228 39.6978V39.5938L66.597 39.6681C67.0276 40.0541 67.6215 40.2471 68.1856 40.2025C68.7052 40.158 69.1655 39.9353 69.4921 39.5641C69.0319 39.4008 68.7349 39.1336 68.5716 38.7773C68.3786 38.317 68.4529 37.7083 68.7795 37.0551C69.1655 36.2979 70.2344 35.9119 71.2291 36.1792C72.0605 36.4018 72.6099 37.0254 72.8177 37.9013C72.7286 37.0254 72.402 36.2831 71.8378 35.7783C69.893 34.071 68.2005 35.1696 67.3542 35.9861L67.3245 36.0158L67.2948 36.001C66.3892 35.5111 65.7063 36.1643 64.9639 36.8472C64.2513 37.5153 63.509 38.1983 62.5143 37.9607C62.7073 38.5843 62.9745 38.9554 63.3011 39.1187C63.5832 39.2524 63.9247 39.2524 64.3552 39.0891L64.5779 39L64.3998 39.1633C63.895 39.6235 63.8653 40.1283 63.8505 40.6628C63.8505 41.2269 63.8208 41.8356 63.1972 42.4444Z" fill="black"/>
<path d="M78.22 56.1033C75.6071 57.484 70.8117 56.8901 70.3663 53.4755C69.9209 50.0608 73.2316 48.5316 74.1224 48.101C75.5031 47.4033 76.5869 48.6355 76.1415 50.0756C77.6707 49.5412 78.0122 47.7596 77.2699 46.7203C79.289 46.8688 81.1745 45.3396 81.9613 43.1572C81.2487 43.8401 79.3187 43.3799 77.7153 43.276C78.2052 42.7415 78.2052 41.6725 78.0567 41.1381C76.3791 42.8603 73.9591 42.0734 70.7523 47.0618C71.2422 45.3396 72.1775 41.8804 72.7268 39.6089C72.7862 39.3862 72.8159 39.1635 72.8456 38.926C73.0386 35.6597 69.5646 35.6003 68.8222 37.085C69.6388 38.0055 69.2082 39.0744 68.9113 40.6927C68.5698 42.6227 67.8275 47.0618 67.1891 48.5464C66.9961 46.2304 65.4669 46.0819 65.17 44.9388C64.7246 45.2357 64.4871 46.0225 64.5762 46.5719C64.0268 45.978 62.1562 46.7203 61.4584 45.8295C60.7161 47.3142 61.9038 48.7988 63.1361 49.4372C62.4234 49.4818 62.2453 50.3577 61.4584 50.3577C62.5273 51.59 63.6111 52.0799 64.8731 52.1838C66.135 52.2877 67.0704 52.748 67.8424 54.2772C69.0895 56.7417 73.7958 58.3451 78.22 56.1033Z" fill="#1E9A1C"/>
<path d="M73.8115 57.2167C72.8762 57.2167 71.9557 57.0682 71.0797 56.7862C69.5506 56.2814 68.3628 55.3609 67.8135 54.2771C67.1306 52.9112 66.2843 52.3174 64.8888 52.1986C63.5081 52.0947 62.454 51.5157 61.4444 50.3577L61.385 50.2834H61.4889C61.875 50.2834 62.1125 50.0607 62.35 49.8232C62.543 49.6302 62.736 49.452 63.033 49.3778C61.7265 48.6503 60.7615 47.1657 61.4593 45.785L61.4889 45.7256L61.5335 45.785C61.9046 46.26 62.6173 46.26 63.3002 46.2452C63.805 46.2452 64.2801 46.2452 64.5622 46.4382C64.5176 45.9037 64.7403 45.1763 65.1857 44.8793L65.2302 44.8496L65.2451 44.909C65.3639 45.3396 65.6459 45.6216 65.9874 45.9483C66.507 46.453 67.1009 47.0321 67.2642 48.3534C67.8284 46.9133 68.4371 43.4392 68.8082 41.331C68.8528 41.0935 68.8825 40.8708 68.927 40.6778C68.9715 40.3957 69.0309 40.1433 69.0755 39.8909C69.313 38.7032 69.4912 37.857 68.8379 37.1146L68.8231 37.0849L68.8379 37.0552C69.2091 36.2981 70.2929 35.9121 71.2876 36.1793C72.4159 36.4762 73.0395 37.5006 72.9504 38.9111C72.9207 39.1486 72.8762 39.3713 72.8316 39.6088C72.312 41.7764 71.4361 44.9981 70.9313 46.7945C72.9801 43.7213 74.7023 42.9493 76.0978 42.3257C76.855 41.9843 77.5082 41.7022 78.0724 41.1083L78.1318 41.0489L78.1466 41.1232C78.2951 41.6725 78.2951 42.6821 77.8497 43.2462C78.206 43.2759 78.592 43.3204 78.9484 43.3501C80.1658 43.4838 81.4426 43.6322 81.9622 43.1274L82.0958 42.9938L82.0364 43.172C81.2347 45.3989 79.3344 46.8539 77.3895 46.7648C77.7309 47.2844 77.82 47.9971 77.6122 48.6503C77.3895 49.3481 76.8847 49.8677 76.1869 50.1201L76.0978 50.1498L76.1275 50.0607C76.3502 49.3481 76.1869 48.6355 75.7267 48.2346C75.311 47.8783 74.7468 47.8486 74.1678 48.1455L74.0936 48.1752C73.084 48.6652 70.0108 50.1795 70.4413 53.4754C70.5898 54.6334 71.2579 55.5391 72.3714 56.1181C73.9451 56.9346 76.2166 56.9643 77.9091 56.222C78.013 56.1775 78.117 56.1181 78.2357 56.0735L82.8827 53.713L78.2803 56.1478C78.1763 56.2072 78.0724 56.2517 77.9536 56.3111C76.6026 56.9049 75.1922 57.2167 73.8115 57.2167ZM61.578 50.3874C62.543 51.486 63.5674 52.0205 64.8888 52.1244C66.314 52.2432 67.19 52.8519 67.8878 54.2474C68.4222 55.3164 69.5802 56.2072 71.0946 56.6971C72.8168 57.2613 74.7468 57.2613 76.5878 56.6971C75.1328 56.9792 73.5146 56.8159 72.312 56.1775C71.1688 55.5836 70.4859 54.6483 70.3226 53.4754C69.8772 50.1201 73.0098 48.5909 74.0342 48.0862L74.1084 48.0565C74.7171 47.7447 75.3258 47.7892 75.7564 48.1604C76.2315 48.5612 76.4096 49.2739 76.2166 50.0013C76.855 49.749 77.3152 49.259 77.5082 48.6206C77.7161 47.9674 77.6122 47.2548 77.241 46.75L77.1816 46.6757H77.2707C79.1562 46.8094 81.0269 45.4286 81.8583 43.3056C81.2495 43.7065 80.1064 43.5877 78.9038 43.4541C78.503 43.4095 78.1021 43.365 77.7161 43.3353H77.627L77.6864 43.2611C78.1318 42.7711 78.1615 41.7913 78.0279 41.2419C77.4637 41.8061 76.8105 42.0882 76.083 42.4148C74.6577 43.0532 72.891 43.8401 70.7977 47.0914L70.6343 47.3438L70.7234 47.0469C71.2134 45.3247 72.1487 41.8803 72.698 39.594C72.7574 39.3713 72.7871 39.1486 72.8168 38.9111C72.891 37.5452 72.2972 36.5653 71.2134 36.2684C70.278 36.016 69.2536 36.3723 68.8825 37.0701C69.5506 37.8421 69.3724 38.7032 69.12 39.9058C69.0755 40.1582 69.0161 40.4105 68.9715 40.6926C68.9419 40.8856 68.8973 41.1083 68.8528 41.3459C68.4668 43.5431 67.8135 47.2102 67.2345 48.5464L67.1603 48.7097L67.1454 48.5315C67.0267 47.1211 66.418 46.5273 65.8835 46.0077C65.5717 45.6959 65.2748 45.4138 65.1412 44.9981C64.7403 45.3099 64.5325 46.0522 64.6215 46.5421L64.6512 46.6906L64.5473 46.5718C64.3098 46.3194 63.805 46.3194 63.2705 46.3194C62.6173 46.3194 61.8898 46.3343 61.4889 45.874C60.8505 47.2399 61.8749 48.68 63.1814 49.3629L63.3299 49.4372L63.1666 49.452C62.84 49.4669 62.6321 49.6747 62.4094 49.8826C62.1867 50.1201 61.9492 50.3428 61.578 50.3874Z" fill="black"/>
<path d="M84.7387 53.0897C83.254 57.1874 79.2158 60.0973 77.3748 60.5426C74.2571 61.2998 67.9176 64.373 66.2252 65.9616C65.9579 65.9022 65.7055 65.8131 65.5274 65.6795C64.696 65.0857 63.9982 63.1556 65.4828 61.5225C70.1298 57.1725 75.1182 59.058 78.2211 56.0887C75.6081 57.4843 70.8275 56.8904 70.3822 53.4757C73.203 54.2181 78.2805 54.2626 82.3335 49.9126C82.868 50.5213 84.4417 52.392 84.7387 53.0897Z" fill="#FDD406"/>
<path d="M66.2392 66.006H66.2095C65.9125 65.9466 65.675 65.8426 65.4968 65.709C65.0218 65.3676 64.6654 64.6846 64.5764 63.9571C64.5021 63.3336 64.6061 62.4131 65.4375 61.4926C67.991 59.1024 70.6634 58.5827 73.024 58.1225C74.8501 57.7662 76.5723 57.4247 77.9382 56.2667C76.2308 57.0387 73.8999 57.0239 72.2965 56.1776C71.1533 55.5838 70.4704 54.6484 70.3071 53.4756L70.2922 53.4162L70.3516 53.431C71.9699 53.8616 77.6264 54.8711 82.2585 49.8827L82.2882 49.853L82.3179 49.8827C82.8375 50.4617 84.4409 52.3621 84.7378 53.0599V53.0747V53.0895C83.2383 57.2466 79.2001 60.1268 77.3443 60.5722C74.2414 61.3293 67.902 64.4025 66.2095 65.9763L66.2392 66.006ZM78.4875 55.9104L78.2499 56.1331C76.8247 57.4841 74.9986 57.8404 73.0537 58.2264C70.7079 58.6867 68.0356 59.2063 65.5117 61.5669C64.6951 62.4577 64.6061 63.3633 64.6803 63.9571C64.7545 64.6549 65.096 65.323 65.5562 65.6496C65.7195 65.7684 65.9422 65.8575 66.2243 65.9169C67.9465 64.3283 74.2859 61.2551 77.374 60.4979C79.2001 60.0525 83.2086 57.202 84.6933 53.0895C84.3815 52.3918 82.8672 50.5953 82.3179 49.9866C77.7155 54.9008 72.1332 53.9803 70.4259 53.5349C70.5892 54.6484 71.2573 55.5392 72.3559 56.1182C74.0335 56.9942 76.4981 56.9645 78.2054 56.0588L78.4875 55.9104Z" fill="black"/>
<path d="M75.2673 62.71C72.9216 64.6994 71.7042 69.5839 71.9566 72.8947C72.0308 73.8151 72.2832 74.4387 72.6692 74.8247C72.8473 72.954 74.1538 68.0993 77.4794 65.9317C80.3002 64.1056 84.6948 60.008 86.3279 55.3165C86.031 54.4851 85.541 53.8912 84.6057 53.2974C82.9726 57.7068 78.6523 59.8298 75.2673 62.71Z" fill="#1E9A1C"/>
<path d="M72.7136 74.914L72.6394 74.8546C72.2237 74.4538 71.9713 73.8005 71.9119 72.8949C71.6595 69.5544 72.8621 64.6848 75.2375 62.6657C76.0838 61.9382 77.0191 61.2553 77.9099 60.5872C80.5823 58.6126 83.3437 56.5638 84.5611 53.253L84.5759 53.2085L84.6205 53.2382C85.5558 53.832 86.0606 54.4259 86.3724 55.287V55.3018V55.3167C84.6353 60.3051 79.9884 64.3433 77.509 65.9616C74.0498 68.2034 72.8621 73.2363 72.7136 74.8249V74.914ZM84.6205 53.3421C83.3882 56.638 80.6268 58.6868 77.9693 60.6614C77.0785 61.3295 76.158 62.0124 75.2969 62.7251C73.0106 64.6551 71.7486 69.5396 72.001 72.8652C72.0604 73.6817 72.2831 74.3053 72.6394 74.6913C72.8176 72.9988 74.0498 68.0846 77.4645 65.8577C79.929 64.2542 84.5611 60.2309 86.2833 55.2722C85.9864 54.4853 85.4964 53.9063 84.6205 53.3421Z" fill="black"/>
<path d="M83.2393 51.1892C82.4079 52.4511 80.4927 54.1733 78.6665 54.8711C79.0526 54.4257 79.1862 53.8616 79.201 53.3865C76.885 54.2773 72.238 54.1733 70.3525 53.4904C73.1734 54.2327 78.2508 54.2773 82.3039 49.9272C82.7196 50.3726 83.0611 50.7586 83.2393 51.1892Z" fill="#1E9A1C"/>
<path d="M78.5181 54.9751L78.6369 54.8415C78.9486 54.4852 79.1268 54.025 79.1565 53.4608C76.8256 54.3219 72.2529 54.2328 70.3525 53.535V53.3569L70.3674 53.4608C71.9857 53.8913 77.6421 54.9009 82.2742 49.9125L82.3039 49.8828L82.3336 49.9125C82.7493 50.3727 83.0908 50.7588 83.2689 51.1745L83.2838 51.1893L83.2689 51.2041C82.4227 52.4661 80.5372 54.2031 78.6814 54.9009L78.5181 54.9751ZM79.2604 53.3272V53.4014C79.2307 53.9507 79.0822 54.411 78.815 54.7673C80.5817 54.0398 82.3782 52.4067 83.1947 51.1893C83.0314 50.8033 82.7196 50.4321 82.3188 50.0016C78.9486 53.6093 75.044 54.0695 72.535 53.8913C74.7174 54.1289 77.5531 53.9804 79.201 53.3569L79.2604 53.3272Z" fill="black"/>
<path d="M65.4827 61.5225C61.7118 65.0559 64.206 68.144 65.6758 68.8269C65.2897 71.2914 67.6058 70.9945 67.5464 73.073C68.4817 72.5385 68.7341 71.0984 68.5857 69.9552C69.7734 71.232 72.7872 69.8068 73.4256 72.1822C73.8264 69.5692 71.7925 66.9563 69.2834 67.1938C70.3227 66.2585 69.7288 64.7293 68.749 64.3284C68.556 66.2585 66.3735 66.2585 65.5421 65.6646C64.6959 65.0856 63.9981 63.1556 65.4827 61.5225Z" fill="#1E9A1C"/>
<path d="M67.5015 73.1616V73.0874C67.5164 72.1521 67.0561 71.7067 66.5662 71.2613C66.002 70.7417 65.423 70.1923 65.616 68.871C64.8737 68.5147 63.7157 67.4457 63.4781 65.9166C63.3148 64.8922 63.5227 63.2887 65.4379 61.5072L66.2396 60.75L65.4973 61.5666C64.6807 62.4573 64.5916 63.363 64.651 63.9568C64.7252 64.6546 65.0816 65.3227 65.5418 65.6493C66.0317 65.9908 66.9671 66.1393 67.7094 65.7978C68.1102 65.6196 68.6002 65.2188 68.6892 64.3428V64.2835L68.7486 64.2983C69.2831 64.5061 69.7285 65.0703 69.8324 65.6939C69.9363 66.2432 69.773 66.7628 69.387 67.1488C70.4411 67.0894 71.4507 67.5051 72.2524 68.3365C73.2174 69.3609 73.6776 70.801 73.4549 72.1966L73.4253 72.4045L73.3659 72.1966C72.9947 70.8456 71.8367 70.7565 70.7084 70.6674C69.9363 70.608 69.1495 70.5486 68.6299 70.0884C68.7486 71.2464 68.4665 72.5975 67.5609 73.1171L67.5015 73.1616ZM65.037 62.0416C63.879 63.3036 63.3742 64.6249 63.5821 65.9017C63.8196 67.4161 64.9776 68.4701 65.7051 68.8116L65.7348 68.8265V68.8562C65.527 70.1626 66.0763 70.6674 66.6404 71.2019C67.1155 71.6473 67.6054 72.0927 67.6054 73.028C68.4665 72.4787 68.7041 71.1277 68.5556 69.9993L68.5408 69.8657L68.6299 69.9696C69.1198 70.4893 69.9067 70.5486 70.7381 70.6229C71.8367 70.712 72.9799 70.801 73.4253 72.0184C73.5589 70.712 73.1135 69.3906 72.2078 68.4405C71.4061 67.5942 70.3669 67.1785 69.2979 67.2824L69.1643 67.2973L69.2683 67.2082C69.6988 66.8222 69.877 66.3026 69.773 65.7384C69.6691 65.1742 69.2831 64.6546 68.7932 64.4319C68.6892 65.293 68.1845 65.7087 67.7688 65.8869C66.9968 66.2432 66.0169 66.0799 65.5121 65.7384C65.037 65.3969 64.6659 64.714 64.5916 63.9865C64.5322 63.4669 64.5768 62.7691 65.037 62.0416Z" fill="black"/>
<path d="M73.6496 83.9994C73.2339 84.237 73.2636 84.7714 73.5308 85.1129C74.0504 85.7959 73.1597 87.3696 74.8373 87.711C75.3272 87.815 75.7132 87.5032 75.9063 86.939C76.4259 85.3801 74.7779 85.2168 74.6295 84.4745C74.4661 83.7322 74.0059 83.8064 73.6496 83.9994Z" fill="#FDD406"/>
<path d="M75.0294 87.7701C74.97 87.7701 74.8958 87.7701 74.8364 87.7552C73.7229 87.5325 73.7081 86.7605 73.6932 86.0924C73.6932 85.7213 73.6784 85.3798 73.5002 85.1423C73.3369 84.9196 73.2627 84.6523 73.3221 84.4148C73.3666 84.2218 73.4705 84.0733 73.6487 83.9694C73.8269 83.8655 74.0792 83.7764 74.3019 83.8803C74.4801 83.9694 74.6137 84.1624 74.6731 84.4742C74.7176 84.7266 74.97 84.9196 75.2373 85.1274C75.7124 85.4986 76.2914 85.944 75.9647 86.9684C75.7569 87.4732 75.4303 87.7701 75.0294 87.7701ZM73.6784 84.0436C73.5299 84.1327 73.4408 84.2663 73.3963 84.4296C73.3518 84.6375 73.4112 84.8899 73.5596 85.0977C73.7526 85.3501 73.7526 85.7064 73.7675 86.0924C73.7823 86.7605 73.7972 87.4583 74.8364 87.681C75.2966 87.7701 75.653 87.5028 75.846 86.9387C76.1726 85.9737 75.6233 85.558 75.1482 85.1868C74.8661 84.9789 74.6137 84.7711 74.5543 84.489C74.4949 84.2069 74.391 84.0288 74.2426 83.9545C74.0644 83.8655 73.8417 83.9545 73.6784 84.0436Z" fill="black"/>
<path d="M75.0598 86.9095C74.5105 87.1619 74.0206 87.5331 74.2433 89.2998C74.3324 90.0421 74.2878 91.8237 73.6494 91.8385C74.0354 92.0315 74.8817 92.2542 75.2231 91.794C75.5498 92.3582 76.3069 92.1948 76.6039 91.4971C76.9899 91.8237 77.5392 91.2744 77.5392 90.8141C77.8807 91.0368 78.5784 90.7102 78.4003 89.6561C78.816 89.8046 79.3653 89.5076 79.5583 89.2404C78.9347 89.1216 77.3907 88.2754 77.0196 87.6073C76.6632 86.9392 75.6982 86.6126 75.0598 86.9095Z" fill="#FDD406"/>
<path d="M75.8012 92.1801C75.5785 92.1801 75.3707 92.0762 75.237 91.8683C74.8659 92.2692 74.079 92.091 73.6485 91.8832L73.5 91.8089H73.6782C73.7672 91.8089 73.8415 91.7644 73.9157 91.6753C74.2869 91.2448 74.3017 89.9234 74.2275 89.3147C74.0048 87.5332 74.4947 87.1472 75.0737 86.8799C75.7418 86.5681 76.7365 86.9096 77.1077 87.5925C77.4788 88.2606 79.0229 89.0772 79.6167 89.196L79.691 89.2108L79.6464 89.2702C79.4534 89.5374 78.9338 89.8344 78.5033 89.7304C78.6072 90.4431 78.2954 90.74 78.1469 90.8291C77.9836 90.933 77.7906 90.9627 77.6273 90.8885C77.5976 91.1705 77.3898 91.4675 77.1374 91.5862C76.9741 91.6605 76.8108 91.6605 76.6623 91.5714C76.499 91.9277 76.1872 92.1653 75.8754 92.1801C75.8309 92.1801 75.816 92.1801 75.8012 92.1801ZM75.237 91.7199L75.2667 91.7792C75.4003 91.9871 75.5933 92.1059 75.8309 92.091C76.1427 92.0762 76.4248 91.8386 76.5732 91.4823L76.6029 91.4229L76.6474 91.4675C76.7959 91.5862 76.9592 91.5566 77.0631 91.512C77.3007 91.3932 77.5085 91.0815 77.5085 90.8142V90.74L77.5828 90.7845C77.7164 90.8736 77.9094 90.8588 78.0727 90.7548C78.2063 90.6658 78.5032 90.3837 78.3696 89.671L78.3548 89.5968L78.429 89.6265C78.8002 89.7601 79.2753 89.5226 79.498 89.2702C78.8447 89.1069 77.3601 88.2903 76.9889 87.6371C76.6326 86.9987 75.7121 86.6721 75.0737 86.9542C74.5096 87.2065 74.0642 87.5629 74.2869 89.2999C74.3611 89.9234 74.3463 91.2745 73.9602 91.7347C73.9157 91.7941 73.8563 91.8386 73.7969 91.8683C74.1978 92.0316 74.9104 92.1801 75.2073 91.7792L75.237 91.7199Z" fill="black"/>
<path d="M66.5371 36.9962L66.4629 36.9516C66.7301 36.5656 67.0122 36.2242 67.3091 35.9272L67.3685 35.9866C67.0864 36.2687 66.8044 36.6102 66.5371 36.9962Z" fill="black"/>
<path d="M75.9352 43.558L75.8906 43.4837C76.2766 43.261 76.8556 43.1868 77.7464 43.2462V43.3353C76.8853 43.2759 76.3063 43.3501 75.9352 43.558Z" fill="black"/>
<path d="M75.1923 91.8243C75.0141 91.557 74.9547 90.5029 75.0735 89.8794L75.1626 89.8942C75.029 90.5475 75.118 91.557 75.2665 91.7797L75.1923 91.8243Z" fill="black"/>
<path d="M76.5881 91.5419C76.3208 91.3489 75.7863 90.6214 75.6973 89.9533L75.7863 89.9385C75.8754 90.5769 76.4099 91.2747 76.6474 91.4677L76.5881 91.5419Z" fill="black"/>
<path d="M77.5381 90.8588C77.1818 90.6955 76.3356 89.6117 76.1426 88.8842L76.2317 88.8545C76.4098 89.5523 77.2412 90.6212 77.5827 90.7697L77.5381 90.8588Z" fill="black"/>
<path d="M78.4141 89.7006C77.9835 89.6115 76.7216 88.7653 76.2168 87.919L76.291 87.8745C76.7958 88.7059 78.0132 89.5225 78.4289 89.6115L78.4141 89.7006Z" fill="black"/>
<path d="M101.187 61.5811C107.259 66.6734 107.66 70.7116 106.71 73.087C106.22 70.8601 103.696 67.4157 101.083 66.5249L101.187 61.5811Z" fill="#FDD406"/>
<path d="M106.696 73.2357L106.666 73.0873C106.146 70.7712 103.593 67.4159 101.069 66.5548L101.039 66.54V66.5103L101.143 61.4922L101.217 61.5516C107.824 67.0893 107.527 71.1721 106.755 73.1169L106.696 73.2357ZM101.128 66.4954C103.622 67.3565 106.131 70.6227 106.725 72.9388C107.438 70.9791 107.571 67.0151 101.232 61.6703L101.128 66.4954Z" fill="black"/>
<path d="M90.3203 58.7163H101.589C101.589 58.7163 101.589 61.6856 101.589 72.0484C101.589 83.4059 95.2642 90.1314 88.8505 93.6797C82.4369 90.1165 76.1123 83.4059 76.1123 72.0484C76.1123 61.6856 76.1123 58.7163 76.1123 58.7163H84.0106C84.0254 59.3992 84.0848 60.4385 84.9014 61.4777C86.7572 61.2996 88.8654 59.904 90.3203 58.7163Z" fill="#1E9A1C"/>
<path d="M101.589 58.7158C101.589 58.7158 101.589 61.6851 101.589 72.0479C101.589 75.4775 101.01 78.4913 100.03 81.1043L88.8505 60.5865L77.6712 81.1043C76.6913 78.4764 76.1123 75.4775 76.1123 72.0479C76.1123 61.6851 76.1123 58.7158 76.1123 58.7158H101.589Z" fill="#0F3296"/>
<path d="M77.6569 81.2083L77.6272 81.1192C76.588 78.3429 76.0684 75.2994 76.0684 72.048V58.6714H101.634V72.048C101.634 75.2994 101.114 78.3578 100.075 81.1192L100.045 81.2083L100.001 81.1192L88.8511 60.6757L77.6569 81.2083ZM88.8511 60.4975L88.8957 60.5717L100.031 81.0004C101.04 78.2687 101.545 75.2549 101.545 72.048V58.7605H76.1574V72.048C76.1574 75.2549 76.6622 78.2538 77.6718 81.0004L88.8511 60.4975Z" fill="black"/>
<path d="M100.372 80.1248C100.179 80.7335 99.8076 81.7133 99.5404 82.322L88.8509 62.4575L78.1615 82.322C77.8794 81.7133 77.5231 80.7335 77.3301 80.1248L88.8509 58.7607L100.372 80.1248Z" fill="#FDD406"/>
<path d="M88.8355 93.724L88.8207 93.7092C85.1388 91.6752 82.1843 89.0177 80.0316 85.8109C77.3889 81.8914 76.0527 77.2593 76.0527 72.0482V58.6716H84.0401V58.7161C84.055 59.2506 84.0698 60.3492 84.9012 61.433C86.8906 61.2252 89.1325 59.6218 90.2905 58.6716L90.3053 58.6567H101.618V72.0334C101.618 77.2445 100.282 81.8766 97.6543 85.796C95.5016 89.0177 92.5323 91.6752 88.8652 93.7092L88.8355 93.724ZM76.1418 58.7607V72.0482C76.1418 84.6826 84.0847 90.9923 88.8355 93.6201C93.5864 90.9923 101.529 84.6974 101.529 72.0482V58.7607H90.335C89.1621 59.7108 86.9055 61.3291 84.8864 61.5221H84.8567L84.8418 61.5073C83.9956 60.4235 83.951 59.3248 83.9362 58.7607H76.1418Z" fill="black"/>
<path d="M93.9273 87.4296C94.2242 87.578 94.7735 87.8453 95.0111 87.9492C95.6049 86.7615 95.694 85.0838 95.501 83.5992C94.8626 85.2323 92.6802 85.1729 92.0863 86.1676C92.4426 86.3458 92.7841 86.5833 93.081 86.7912C92.3387 87.5335 90.6017 88.7806 89.6218 89.0775V78.4771C89.6218 77.7348 89.3694 77.1113 89.3694 76.5026C89.3694 76.5026 89.3694 74.8101 89.3694 74.3053C89.3694 73.8005 89.2655 73.0879 88.835 73.0879C88.3896 73.0879 88.3005 73.8005 88.3005 74.3053C88.3005 74.8101 88.3005 76.5026 88.3005 76.5026C88.3005 77.1261 88.0481 77.8387 88.0481 78.4771V89.0775C87.5136 87.5038 85.3757 88.0383 84.3959 86.4645C84.7819 86.3755 85.1976 86.3458 85.5836 86.42C84.8413 83.8961 82.8222 83.7031 82.4213 82.9608C82.4213 84 81.9759 86.42 82.6737 87.4592C82.8221 87.2811 83.0597 87.0732 83.3418 86.9099C84.1732 88.736 87.959 88.7509 88.8498 91.7499C89.5476 90.6512 92.116 89.3596 93.9273 87.4296Z" fill="#FDD406"/>
<path d="M88.8203 91.8683L88.7906 91.7793C88.2859 90.0719 86.8161 89.3296 85.5244 88.6764C84.5742 88.2013 83.6835 87.741 83.3123 86.9839C83.0599 87.1323 82.8521 87.3105 82.6888 87.4886L82.6442 87.5332L82.6145 87.4886C82.08 86.6869 82.2137 85.0984 82.3027 83.9403C82.3324 83.5543 82.3621 83.2277 82.3621 82.9753V82.7972L82.4512 82.9605C82.57 83.198 82.8818 83.3762 83.2529 83.5989C84.0398 84.074 85.1087 84.7124 85.6135 86.4197L85.6283 86.4939L85.5541 86.4791C85.2126 86.4049 84.8415 86.4197 84.4406 86.5088C84.9157 87.2214 85.6283 87.4738 86.3113 87.7262C86.9942 87.9786 87.6475 88.2013 87.9741 88.8694V78.5066C87.9741 78.1799 88.0335 77.8236 88.1077 77.497C88.1671 77.1555 88.2265 76.8437 88.2265 76.532V74.3347C88.2265 73.9635 88.2859 73.0728 88.8055 73.0728C89.3548 73.0728 89.3845 74.0378 89.3845 74.3347V76.532C89.3845 76.8289 89.4439 77.111 89.5033 77.4228C89.5626 77.7642 89.6369 78.1205 89.6369 78.5066V89.0475C90.6316 88.7209 92.2795 87.5332 92.9922 86.8354C92.6952 86.6276 92.3835 86.4049 92.042 86.2415L91.9975 86.2267L92.0272 86.1822C92.2795 85.7516 92.8289 85.5141 93.4079 85.2617C94.1799 84.9202 95.0558 84.5491 95.427 83.6137L95.4864 83.4504L95.5161 83.6286C95.7388 85.3211 95.5606 86.9245 95.0261 88.0083L95.0113 88.0528L94.9668 88.038C94.7292 87.934 94.2096 87.6816 93.9127 87.5332C93.007 88.4982 91.9084 89.2999 90.9582 89.9977C90.0229 90.6806 89.2063 91.2745 88.8649 91.8238L88.8203 91.8683ZM83.3568 86.8502L83.3717 86.8948C83.728 87.652 84.6188 88.1122 85.569 88.5873C86.8606 89.2405 88.3156 89.968 88.85 91.6605C89.236 91.126 90.008 90.547 90.9137 89.8938C91.8787 89.1811 92.9773 88.3794 93.883 87.4144L93.9127 87.3847L93.9423 87.3996C94.2244 87.5332 94.7292 87.8004 94.9816 87.9043C95.4864 86.8799 95.6645 85.3805 95.4715 83.777C95.0707 84.6233 94.2244 84.9944 93.4673 85.3211C92.9179 85.5586 92.3983 85.7813 92.1459 86.1673C92.4874 86.3455 92.7992 86.5682 93.0961 86.776L93.1406 86.8057L93.0961 86.8354C92.3835 87.548 90.6316 88.8248 89.622 89.1218L89.5627 89.1366V78.4769C89.5627 78.0908 89.4884 77.7494 89.429 77.4079C89.3696 77.0961 89.3103 76.7992 89.3103 76.5023V74.305C89.3103 73.7408 89.1766 73.1321 88.8203 73.1321C88.3601 73.1321 88.3304 74.0229 88.3304 74.305V76.5023C88.3304 76.8141 88.271 77.1555 88.2116 77.4821C88.1522 77.8088 88.0928 78.1651 88.0928 78.4769V89.3445L88.0038 89.0921C87.7365 88.3052 87.0388 88.0528 86.2964 87.7856C85.569 87.5332 84.8266 87.2659 84.3367 86.4791L84.307 86.4197L84.3664 86.4049C84.7673 86.3009 85.1533 86.2861 85.4947 86.3455C84.9899 84.7272 83.9507 84.1037 83.1935 83.6434C82.8669 83.4504 82.5997 83.2871 82.4364 83.0941C82.4364 83.3316 82.4067 83.6137 82.377 83.9255C82.2879 85.0538 82.1691 86.583 82.6442 87.3699C82.8075 87.1917 83.0302 87.0136 83.2826 86.8651L83.3568 86.8502Z" fill="black"/>
<path d="M88.8353 78.6255C89.6667 78.6255 92.339 78.3583 93.304 78.3583C93.5564 78.3583 93.7643 77.9871 93.7643 77.5269C93.7643 77.0666 93.5564 76.6955 93.304 76.6955C92.339 76.6955 89.6815 76.4282 88.8353 76.4282C88.0039 76.4282 85.3315 76.6955 84.3665 76.6955C84.1141 76.6955 83.9062 77.0666 83.9062 77.5269C83.9062 77.9871 84.1141 78.3583 84.3665 78.3583C85.3315 78.3434 88.0039 78.6255 88.8353 78.6255Z" fill="#FDD406"/>
<path d="M88.8359 78.6696C88.435 78.6696 87.6036 78.6102 86.7425 78.5359C85.822 78.4617 84.857 78.3875 84.3671 78.3875C84.085 78.3875 83.8623 78.0015 83.8623 77.5115C83.8623 77.0216 84.085 76.6356 84.3671 76.6356C84.8719 76.6356 85.822 76.5614 86.7425 76.4871C87.6036 76.4277 88.435 76.3535 88.8359 76.3535C89.2516 76.3535 90.0681 76.4129 90.9441 76.4871C91.8645 76.5614 92.8147 76.6356 93.3046 76.6356C93.5867 76.6356 93.8094 77.0216 93.8094 77.5115C93.8094 78.0015 93.5867 78.3875 93.3046 78.3875C92.7999 78.3875 91.8497 78.4617 90.9292 78.5359C90.0681 78.5953 89.2367 78.6696 88.8359 78.6696ZM88.8359 76.4426C88.435 76.4426 87.6185 76.502 86.7425 76.5762C85.822 76.6504 84.857 76.7247 84.3522 76.7247C84.1295 76.7247 83.9365 77.081 83.9365 77.5115C83.9365 77.9421 84.1147 78.2984 84.3522 78.2984C84.857 78.2984 85.8072 78.3726 86.7425 78.4469C87.6036 78.5063 88.4202 78.5805 88.8359 78.5805C89.2516 78.5805 90.0533 78.5211 90.9292 78.4469C91.8497 78.3726 92.8147 78.2984 93.3195 78.2984C93.5422 78.2984 93.7352 77.9421 93.7352 77.5115C93.7352 77.081 93.557 76.7247 93.3195 76.7247C92.8147 76.7247 91.8645 76.6504 90.9441 76.5762C90.0681 76.502 89.2516 76.4426 88.8359 76.4426Z" fill="black"/>
<path d="M88.3006 74.2754C88.1224 74.127 87.8849 74.0379 87.6325 74.0379C87.0684 74.0379 86.623 74.4536 86.623 74.9584C86.623 75.4632 87.0684 75.8788 87.6325 75.8788C88.1967 75.8788 88.6421 75.4632 88.6421 74.9584C88.6421 74.5575 89.2211 74.5575 89.2211 74.9584C89.2211 75.7601 88.5085 76.4133 87.6325 76.4133C86.7566 76.4133 86.0439 75.7601 86.0439 74.9584C86.0439 74.1567 86.7566 73.5034 87.6325 73.5034C87.8998 73.5034 88.1373 73.5628 88.36 73.6667C88.3451 73.8152 88.3006 74.0676 88.3006 74.2754Z" fill="#FDD406"/>
<path d="M87.6331 76.4726C86.7275 76.4726 86 75.8045 86 74.9731C86 74.1417 86.7275 73.4736 87.6331 73.4736C87.8855 73.4736 88.1527 73.533 88.3754 73.6369L88.4051 73.6518L88.3903 73.7557C88.3754 73.8893 88.3457 74.0972 88.3457 74.2753V74.3644L88.2715 74.305C88.0933 74.1566 87.8707 74.0823 87.6331 74.0823C87.0986 74.0823 86.6681 74.4832 86.6681 74.9583C86.6681 75.4334 87.0986 75.8342 87.6331 75.8342C88.1676 75.8342 88.5981 75.4334 88.5981 74.9583C88.5981 74.5129 89.2662 74.5129 89.2662 74.9583C89.2514 75.7897 88.5239 76.4726 87.6331 76.4726ZM87.6331 73.5627C86.7869 73.5627 86.0891 74.1863 86.0891 74.9731C86.0891 75.76 86.7869 76.3835 87.6331 76.3835C88.4794 76.3835 89.1771 75.76 89.1771 74.9731C89.1771 74.8989 89.1474 74.8247 89.1029 74.7801C89.0584 74.7356 88.999 74.7207 88.9396 74.7207C88.8208 74.7207 88.7021 74.795 88.7021 74.9731C88.7021 75.5076 88.227 75.9381 87.648 75.9381C87.0689 75.9381 86.5939 75.5076 86.5939 74.9731C86.5939 74.4386 87.0689 74.0081 87.648 74.0081C87.8706 74.0081 88.0933 74.0675 88.2715 74.2011C88.2715 74.0378 88.3012 73.8745 88.316 73.7557V73.726C88.0933 73.6221 87.8558 73.5627 87.6331 73.5627Z" fill="black"/>
<path d="M84.3672 78.3435C84.6196 78.3435 84.8126 77.9723 84.8126 77.5121C84.8126 77.0518 84.6047 76.6807 84.3672 76.6807" fill="#FDD406"/>
<path d="M84.3672 78.3881V78.299C84.5899 78.299 84.768 77.9427 84.768 77.5122C84.768 77.0816 84.575 76.7253 84.3672 76.7253V76.6362C84.6493 76.6362 84.8571 77.0222 84.8571 77.5122C84.8571 78.0021 84.6493 78.3881 84.3672 78.3881Z" fill="black"/>
<path d="M84.7383 78.3435C84.9907 78.3435 85.1837 77.9723 85.1837 77.5121C85.1837 77.0518 84.9758 76.6807 84.7383 76.6807" fill="#FDD406"/>
<path d="M84.7383 78.3881V78.299C84.961 78.299 85.1391 77.9427 85.1391 77.5122C85.1391 77.0816 84.9461 76.7253 84.7383 76.7253V76.6362C85.0204 76.6362 85.2282 77.0222 85.2282 77.5122C85.2282 78.0021 85.0204 78.3881 84.7383 78.3881Z" fill="black"/>
<path d="M87.1875 78.5216C87.4844 78.5216 87.7368 78.0762 87.7368 77.512C87.7368 76.9478 87.4993 76.5024 87.1875 76.5024" fill="#FDD406"/>
<path d="M87.1875 78.5662V78.4771C87.4696 78.4771 87.6923 78.0466 87.6923 77.5121C87.6923 76.9776 87.4696 76.5471 87.1875 76.5471V76.458C87.5141 76.458 87.7814 76.9182 87.7814 77.5121C87.7814 78.106 87.5141 78.5662 87.1875 78.5662Z" fill="black"/>
<path d="M87.752 78.5657C88.0637 78.5657 88.3161 78.0906 88.3161 77.5116C88.3161 76.9326 88.0637 76.4575 87.752 76.4575" fill="#FDD406"/>
<path d="M87.752 78.6104V78.5213C88.034 78.5213 88.2716 78.061 88.2716 77.5117C88.2716 76.9624 88.034 76.5022 87.752 76.5022V76.4131C88.0934 76.4131 88.3607 76.903 88.3607 77.5117C88.3607 78.1204 88.0786 78.6104 87.752 78.6104Z" fill="black"/>
<path d="M89.6533 78.5656C89.9799 78.5656 90.2323 78.0905 90.2323 77.4967C90.2323 76.9028 89.9651 76.4277 89.6533 76.4277" fill="#FDD406"/>
<path d="M89.6533 78.6103V78.5212C89.9502 78.5212 90.1878 78.0609 90.1878 77.4968C90.1878 76.9475 89.9502 76.4724 89.6533 76.4724V76.3833C89.9948 76.3833 90.2769 76.8881 90.2769 77.4968C90.262 78.1203 89.9948 78.6103 89.6533 78.6103Z" fill="black"/>
<path d="M90.2471 78.536C90.5588 78.536 90.8112 78.0758 90.8112 77.4968C90.8112 76.9326 90.5588 76.4575 90.2471 76.4575" fill="#FDD406"/>
<path d="M90.2471 78.5807V78.4916C90.5292 78.4916 90.7667 78.0462 90.7667 77.4969C90.7667 76.9476 90.5292 76.5022 90.2471 76.5022V76.4131C90.5885 76.4131 90.8558 76.903 90.8558 77.4969C90.8558 78.0907 90.5737 78.5807 90.2471 78.5807Z" fill="black"/>
<path d="M92.8887 78.3584C93.1411 78.3584 93.3489 77.9724 93.3489 77.4973C93.3489 77.0222 93.1411 76.6362 92.8887 76.6362" fill="#FDD406"/>
<path d="M92.8887 78.4026V78.3135C93.1114 78.3135 93.3044 77.9423 93.3044 77.4969C93.3044 77.0515 93.1114 76.6804 92.8887 76.6804V76.5913C93.1708 76.5913 93.3934 76.9922 93.3934 77.4969C93.3934 78.0017 93.1856 78.4026 92.8887 78.4026Z" fill="black"/>
<path d="M83.3281 86.9102C83.6251 86.7321 83.9962 86.5539 84.3822 86.4648L83.3281 86.9102Z" fill="#FDD406"/>
<path d="M83.359 86.9547L83.3145 86.8805C83.552 86.732 83.938 86.539 84.3834 86.4351L84.3982 86.5241C83.9677 86.6132 83.5965 86.8062 83.359 86.9547Z" fill="black"/>
<path d="M93.379 87.0135C93.2899 86.9541 93.186 86.8799 93.082 86.8057L93.379 87.0135Z" fill="#FDD406"/>
<path d="M93.3497 87.0428C93.32 87.0131 93.2754 86.9834 93.2309 86.9686C93.1715 86.9241 93.1121 86.8944 93.0527 86.835L93.1121 86.7607C93.1715 86.8053 93.2309 86.8498 93.2903 86.8795C93.3348 86.9092 93.3645 86.9389 93.4091 86.9686L93.3497 87.0428Z" fill="black"/>
<path d="M93.9277 87.4289C94.6107 86.6866 95.1897 85.8552 95.5163 84.8901L93.9277 87.4289Z" fill="#FDD406"/>
<path d="M93.9568 87.4583L93.8975 87.3989C94.6695 86.5675 95.1891 85.7361 95.4712 84.875L95.5603 84.9047C95.2485 85.7806 94.7289 86.6269 93.9568 87.4583Z" fill="black"/>
<path d="M86.5791 68.1439C86.5791 67.9064 86.7721 67.8024 87.0096 67.6243C87.2917 67.4164 87.3956 67.3125 87.648 67.3125H90.8846C91.1221 67.3125 91.1815 67.3719 91.1815 67.5946V71.9891C91.1815 72.2118 91.1221 72.2712 90.8846 72.2712H86.5791V68.0845" fill="white"/>
<path d="M90.8852 72.3305H86.5352V68.0993C86.55 67.8914 86.7133 67.7875 86.8915 67.6687C86.9212 67.6539 86.9509 67.6242 86.9805 67.5945L87.0399 67.5499C87.2775 67.3718 87.3962 67.2827 87.6486 67.2827H90.8852C91.1524 67.2827 91.2266 67.3569 91.2266 67.6093V72.0039C91.2266 72.2563 91.1524 72.3305 90.8852 72.3305ZM86.6242 72.2414H90.8852C91.1079 72.2414 91.1376 72.1969 91.1376 72.0039V67.6093C91.1376 67.4015 91.093 67.3718 90.8852 67.3718H87.6486C87.4408 67.3718 87.322 67.446 87.0993 67.6242L87.0399 67.6687C87.0102 67.6984 86.9806 67.7133 86.9509 67.743C86.7727 67.8766 86.6391 67.9657 86.6391 68.1587V72.2414H86.6242Z" fill="black"/>
<path d="M90.0832 72.6721C90.5138 72.6721 90.4395 72.6573 90.7365 72.3604C91.0482 72.0486 91.0185 72.0783 91.0185 71.7962V67.758C91.0185 67.5501 90.9592 67.4907 90.7513 67.4907H87.7523C87.5148 67.4907 87.4109 67.5798 87.1585 67.7877C86.9506 67.951 86.7725 68.0549 86.7725 68.2776V72.6721H90.0832Z" fill="white"/>
<path d="M90.083 72.7163H86.7129V68.2772C86.7129 68.0545 86.8762 67.9357 87.0544 67.8021L87.188 67.6982C87.3958 67.5349 87.5146 67.4458 87.7521 67.4458H90.7511C90.9887 67.4458 91.0629 67.52 91.0629 67.7576V71.8552C91.0629 72.0927 91.0629 72.1076 90.766 72.3897C90.7214 72.4342 90.6769 72.4787 90.6472 72.5233C90.469 72.7163 90.4393 72.7163 90.083 72.7163ZM86.802 72.6272H90.083C90.4245 72.6272 90.4245 72.6272 90.573 72.4639C90.6027 72.4342 90.6472 72.3897 90.6917 72.3303C90.959 72.063 90.959 72.063 90.959 71.8552V71.781V67.7427C90.959 67.5497 90.9293 67.52 90.7363 67.52H87.7373C87.5294 67.52 87.4404 67.5943 87.2325 67.7576L87.0989 67.8615C86.9207 67.9951 86.802 68.0842 86.802 68.2624V72.6272Z" fill="black"/>
<path d="M90.4095 72.5826C90.4095 72.8053 90.3501 72.8647 90.1126 72.8647H86.876C86.6385 72.8647 86.5791 72.8053 86.5791 72.5826V68.1732C86.5791 67.9505 86.6385 67.8911 86.876 67.8911H90.1126C90.3501 67.8911 90.4095 67.9505 90.4095 68.1732V72.5826Z" fill="white"/>
<path d="M90.1132 72.9093H86.8766C86.6094 72.9093 86.5352 72.8351 86.5352 72.5827V68.1733C86.5352 67.9209 86.6094 67.8467 86.8766 67.8467H90.1132C90.3804 67.8467 90.4546 67.9209 90.4546 68.1733V72.5827C90.4546 72.8351 90.3655 72.9093 90.1132 72.9093ZM86.8618 67.9358C86.6391 67.9358 86.6094 67.9803 86.6094 68.1733V72.5827C86.6094 72.7757 86.6391 72.8202 86.8618 72.8202H90.0983C90.321 72.8202 90.3507 72.7757 90.3507 72.5827V68.1733C90.3507 67.9655 90.3062 67.9358 90.0983 67.9358H86.8618Z" fill="black"/>
<path d="M96.6897 56.1336C97.3133 56.8462 97.5211 57.7816 97.1796 58.7169H96.2443C96.6303 57.5292 96.3928 56.4008 94.7151 56.2524C92.2061 56.0297 89.2813 60.8993 84.8868 61.4783C83.61 59.9491 83.6694 57.0244 85.3025 55.6437C84.4562 53.2089 82.6895 50.5365 81.4424 49.3933C80.6407 49.2597 79.7054 49.2003 79.0967 49.23C79.7351 47.8493 81.5612 46.3943 83.0458 45.8005C83.2834 45.4442 83.5506 45.1176 83.7882 44.8058C83.9366 42.9054 92.9781 43.7962 94.8933 44.9839C94.9081 47.107 95.7544 54.2036 96.6897 56.1336Z" fill="#CCCCCC"/>
<path d="M84.8725 61.5225L84.8577 61.5076C83.4918 59.8745 83.6997 56.9794 85.2585 55.6284C84.3975 53.1936 82.6456 50.5658 81.443 49.4375C80.6413 49.3038 79.706 49.2445 79.127 49.2741H79.0527L79.0824 49.1999C79.7505 47.7747 81.6212 46.3197 83.0464 45.7555C83.2691 45.4141 83.5215 45.0874 83.7739 44.7757C83.8036 44.5084 83.9818 44.2857 84.3232 44.1224C86.3423 43.098 93.335 43.9443 94.9533 44.939L94.9681 44.9538V44.9835C94.9681 47.0472 95.7847 54.1438 96.7497 56.1184C97.4029 56.8607 97.5959 57.8108 97.2396 58.7313L97.2248 58.761H96.2004L96.2152 58.7016C96.3785 58.2117 96.4973 57.5139 96.1558 56.9794C95.8886 56.5786 95.4135 56.3559 94.7306 56.2965C93.5725 56.1926 92.3254 57.1873 90.8705 58.3453C89.178 59.6963 87.2628 61.2107 84.9022 61.5225H84.8725ZM79.4536 49.1702C80.0326 49.1702 80.7898 49.2296 81.443 49.3335H81.4579L81.4727 49.3484C82.705 50.4916 84.4865 53.1491 85.3328 55.6136L85.3476 55.6433L85.3179 55.6581C83.7739 56.9646 83.5661 59.8003 84.8874 61.4037C87.2034 61.0771 89.1038 59.5776 90.7814 58.2414C92.2512 57.0685 93.5132 56.0738 94.7009 56.1777C95.4135 56.2371 95.9183 56.4895 96.2004 56.9052C96.4825 57.3358 96.5121 57.9296 96.2894 58.6422H97.1357C97.4475 57.7663 97.2693 56.8458 96.6458 56.1332V56.1184C95.6807 54.1438 94.879 47.0769 94.8642 44.9687C93.2311 43.9888 86.3423 43.1574 84.3529 44.1818C84.0411 44.3451 83.863 44.553 83.8481 44.7757V44.7905L83.8333 44.8054C83.5957 45.1171 83.3285 45.4586 83.1058 45.8001L83.091 45.8149H83.0761C81.6806 46.3791 79.8544 47.7747 79.1715 49.1554C79.2606 49.1702 79.3645 49.1702 79.4536 49.1702Z" fill="black"/>
<path d="M85.734 57.4244C85.5262 54.1285 84.19 51.4264 82.3193 49.5706C83.2101 49.823 85.0362 49.823 86.2685 48.9322C87.9016 47.8485 92.1477 45.9481 93.7066 46.7647C93.8253 47.0319 93.8996 47.6554 93.8105 48.0415C93.4393 47.0616 89.3417 48.5759 88.1837 49.051C87.0702 49.5706 86.5803 50.2684 86.9663 51.8125C86.3279 51.278 86.5506 50.7435 85.8825 50.3575C86.1497 50.9959 86.3724 52.1539 86.4466 53.0892C86.1943 52.4212 85.7637 50.9959 84.7838 50.1497C85.6152 51.7828 86.3576 55.6874 86.0013 57.7659C86.6693 57.7659 88.1391 57.1126 88.733 56.6375C88.2134 57.3799 86.7139 57.8995 85.7637 58.0925C85.3332 58.6121 85.0362 59.9483 85.0511 60.6906C84.9917 59.7998 85.2738 57.5729 85.734 57.4244Z" fill="black"/>
<path d="M96.691 56.1328C95.8745 55.2271 94.3453 54.7372 92.4004 55.2568C92.6973 55.1083 93.3357 54.856 93.9147 54.7669C93.8405 54.2473 93.3803 52.0203 93.2912 51.4858L93.8405 51.2631C94.1077 52.5993 94.4641 54.1285 94.6719 54.7372C94.8501 54.7817 95.2361 54.856 95.5924 55.0341C95.4439 54.5145 94.6125 50.788 94.6274 50.3872L95.3697 49.9863C95.6518 52.0203 96.1269 54.9599 96.691 56.1328Z" fill="black"/>
<path d="M96.2438 58.7158C96.6298 57.5281 96.3923 56.3998 94.7147 56.2513C93.4082 56.1326 91.9978 57.4094 90.335 58.7158H96.2438Z" fill="#CCCCCC"/>
<path d="M96.288 58.7606H90.2158L90.3197 58.6863C90.4979 58.5379 90.6761 58.4043 90.8542 58.2706C92.3092 57.1126 93.5563 56.1179 94.7291 56.2218C95.4418 56.2812 95.9465 56.5336 96.2286 56.9493C96.5256 57.3947 96.5404 58.0034 96.3029 58.7457L96.288 58.7606ZM90.4682 58.6715H96.2286C96.3919 58.1816 96.4959 57.4986 96.1544 56.979C95.8872 56.5781 95.4121 56.3554 94.7291 56.2961C93.586 56.1921 92.3537 57.1869 90.9136 58.33C90.7503 58.434 90.6018 58.5527 90.4682 58.6715Z" fill="black"/>
<path d="M85.3325 48.0713C84.5902 48.1752 82.9422 48.0267 82.096 47.7447C82.1405 47.522 82.2296 47.2993 82.3335 47.0469C81.8139 47.3883 80.8341 48.0713 80.4629 48.5315C81.6506 48.7839 84.1003 48.9175 85.3325 48.0713Z" fill="#CCCCCC"/>
<path d="M82.4226 48.7689C81.6803 48.7689 80.9677 48.6947 80.4629 48.5759L80.3887 48.561L80.4332 48.5017C80.7004 48.1602 81.3388 47.6554 82.3187 47.0022L82.4375 46.9131L82.3781 47.0467C82.2742 47.2991 82.1999 47.4921 82.1405 47.6999C82.9571 47.9523 84.5605 48.1156 85.3177 48.0117L85.5107 47.982L85.3622 48.086C84.6348 48.6056 83.4916 48.7689 82.4226 48.7689ZM80.552 48.5165C81.7397 48.754 83.937 48.8431 85.1544 48.1453C84.3081 48.2047 82.8532 48.0563 82.096 47.8039L82.0515 47.789L82.0663 47.7445C82.1109 47.5663 82.1702 47.3733 82.2593 47.1655C81.3982 47.7445 80.8192 48.1899 80.552 48.5165Z" fill="black"/>
<path d="M85.7339 57.8849C85.719 57.2613 85.5557 56.519 85.2588 55.6728L85.3479 55.6431C85.6448 56.4893 85.8081 57.2465 85.823 57.8849H85.7339Z" fill="black"/>
<path d="M84.753 48.1454C83.9068 48.1454 82.7191 47.997 82.0807 47.7891L82.0361 47.7743L82.051 47.7297C82.1698 47.2101 82.4964 46.542 83.0308 45.77L83.1051 45.8146C82.6003 46.5717 82.2737 47.1953 82.1549 47.7001C82.9715 47.9524 84.5749 48.1158 85.332 48.0118L85.3469 48.1009C85.1836 48.1306 84.9757 48.1454 84.753 48.1454Z" fill="black"/>
<path d="M83.5355 49.7641C83.0456 49.7641 82.6151 49.7047 82.3181 49.6156C82.0954 49.5562 81.7985 49.4968 81.457 49.4374L81.4719 49.3484C81.8282 49.4077 82.1103 49.4671 82.3478 49.5265C83.2535 49.7789 85.0647 49.7492 86.2524 48.8881C86.3712 48.799 86.5048 48.6951 86.6533 48.5912C88.1379 47.4926 91.2111 45.2062 94.6704 44.939V45.028C91.2408 45.2953 88.1825 47.5668 86.6978 48.6654C86.5494 48.7842 86.4009 48.8881 86.2821 48.9624C85.4656 49.5711 84.4115 49.7641 83.5355 49.7641Z" fill="black"/>
<path d="M82.4226 48.7696C81.6803 48.7696 80.9825 48.6953 80.4629 48.5766L80.4777 48.4875C81.71 48.7399 84.1003 48.8438 85.3028 48.0273C88.3018 45.9933 91.0484 44.9243 93.7208 44.7759V44.865C91.0632 45.0134 88.3315 46.0675 85.3474 48.0866C84.6347 48.6063 83.4916 48.7696 82.4226 48.7696Z" fill="black"/>
<path d="M101.189 61.5815C105.332 64.4469 108.405 67.2083 109.296 71.6474C110.186 76.0865 111.864 77.2742 113.943 76.0865C113.453 78.6549 110.884 78.9519 108.717 76.9773C108.91 79.9466 107.737 83.4949 104.664 84.7865C104.471 83.005 105.643 81.6094 105.302 80.1396C105.153 79.5012 105.109 78.0166 105.94 77.3188C104.307 77.8532 101.739 76.8288 101.501 74.4089C103.372 75.2997 105.792 75.4481 106.727 73.0727C107.648 70.7121 107.262 66.659 101.189 61.5815Z" fill="#1E9A1C"/>
<path d="M104.604 84.861V84.8016C104.5 83.9256 104.737 83.1388 104.975 82.3816C105.198 81.6096 105.42 80.897 105.257 80.1695C105.094 79.4569 105.108 78.1504 105.777 77.4377C104.901 77.6604 103.832 77.4674 102.985 76.9181C102.109 76.354 101.56 75.4632 101.456 74.4388L101.441 74.3645L101.516 74.3942C102.822 75.0178 104.129 75.1514 105.094 74.7802C105.821 74.4981 106.356 73.9191 106.682 73.0877C107.439 71.1725 107.721 67.1343 101.159 61.6411L100.417 61.0176L101.204 61.5669C105.569 64.5807 108.449 67.3273 109.325 71.6625C109.844 74.2755 110.661 75.8492 111.745 76.3391C112.383 76.6212 113.111 76.5321 113.912 76.0719L114.001 76.0273L113.987 76.1164C113.779 77.1854 113.2 77.9277 112.354 78.2098C111.285 78.5661 109.948 78.1504 108.761 77.1111C108.924 80.0656 107.736 83.5693 104.678 84.8461L104.604 84.861ZM106.148 77.215L105.97 77.3635C105.198 78.0019 105.168 79.3975 105.346 80.1398C105.524 80.897 105.301 81.6244 105.064 82.3965C104.841 83.1239 104.619 83.8811 104.693 84.7273C107.707 83.4357 108.85 79.9171 108.657 76.9923V76.8884L108.746 76.9627C109.934 78.0316 111.27 78.477 112.339 78.1207C113.126 77.8534 113.675 77.1705 113.883 76.1906C113.081 76.6212 112.368 76.6954 111.73 76.4133C110.617 75.9086 109.785 74.32 109.265 71.6773C108.449 67.6094 105.851 64.9519 101.916 62.1459C107.825 67.3719 107.514 71.2319 106.786 73.1026C106.445 73.9637 105.895 74.5575 105.138 74.8545C104.173 75.2405 102.867 75.1069 101.56 74.4981C101.679 75.4632 102.199 76.2946 103.03 76.8439C103.906 77.408 105.049 77.6011 105.925 77.3041L106.148 77.215Z" fill="black"/>
<path d="M115.483 37.1192C116.346 39.21 117.095 41.3603 117.72 43.5623C115.887 43.9103 113.774 42.8247 113.139 40.5006C112.501 41.7774 110.17 41.7774 109.235 40.753C111.254 40.2185 111.105 38.333 109.977 37.5907C108.931 36.8976 107.15 37.0877 106.56 38.1495C107.923 35.1348 111.113 35.4999 112.204 36.8929C113.74 36.0253 114.659 36.4735 115.483 37.1192Z" fill="#1E9A1C"/>
<path d="M106.56 38.1495C106.506 38.2477 106.461 38.3534 106.429 38.4666C106.47 38.357 106.514 38.2513 106.56 38.1495Z" fill="#1E9A1C"/>
<path d="M115.423 36.9743C114.631 36.3778 113.71 36.0028 112.248 36.8177C111.625 36.0606 110.467 35.6597 109.338 35.8379C108.611 35.9566 107.334 36.402 106.547 38.1391C106.488 38.243 106.443 38.3469 106.414 38.4508L106.161 39.5346L106.488 38.4805C106.517 38.3766 106.562 38.2727 106.607 38.1836C106.8 37.8273 107.141 37.5452 107.586 37.3819C108.358 37.085 109.309 37.1889 109.962 37.6046C110.541 37.9758 110.853 38.6587 110.749 39.2822C110.689 39.6831 110.407 40.3809 109.234 40.6926L109.16 40.7075L109.205 40.7669C109.709 41.331 110.674 41.628 111.595 41.4944C112.293 41.4053 112.842 41.0787 113.124 40.6036C113.495 41.8507 114.312 42.8157 115.44 43.3205C115.96 43.5432 116.509 43.6619 117.044 43.6619C117.273 43.6619 117.503 43.6412 117.731 43.5987C117.724 43.5731 117.716 43.5476 117.709 43.522C116.977 43.667 116.196 43.5712 115.47 43.2462C114.342 42.7415 113.525 41.7616 113.183 40.4848L113.154 40.366L113.094 40.4551C112.842 40.9599 112.293 41.3014 111.58 41.4053C110.719 41.524 109.813 41.2568 109.309 40.752C110.17 40.4996 110.719 39.98 110.823 39.2971C110.927 38.629 110.585 37.9164 109.992 37.5304C109.323 37.085 108.329 36.9959 107.527 37.2928C107.23 37.3967 106.978 37.5452 106.785 37.7382C107.557 36.3872 108.655 36.016 109.294 35.9121C110.378 35.7488 111.55 36.1496 112.144 36.892L112.174 36.9217L112.204 36.9068C113.764 36.0228 114.663 36.5048 115.511 37.1865C115.482 37.1157 115.453 37.045 115.423 36.9743Z" fill="black"/>
<path d="M96.4075 45.859C97.3279 48.8282 99.2283 51.5897 101.292 53.4752C103.667 55.6428 107.245 55.1083 109.25 53.0298C109.294 57.1571 105.018 57.4837 102.628 56.1921C101.574 55.6279 100.728 55.9248 101.737 56.8305C103.267 58.2112 106.622 59.2356 110.571 60.0967C117.489 61.5813 115.025 67.0597 112.991 67.0151C113.57 67.0003 114.045 66.3916 113.214 65.6493C107.216 60.2452 95.0119 62.383 95.2197 50.3277C93.9429 53.49 88.6576 52.2578 91.1221 48.5016C91.909 49.14 93.2897 49.1846 93.6906 48.2047C94.0023 47.4327 93.7945 46.0965 92.4138 44.9533C92.6365 44.9385 93.1264 44.9533 93.0819 44.3892C93.1412 44.7158 93.4382 45.2206 94.225 45.0424C94.4477 45.3987 94.6853 45.6214 94.997 45.5026C95.0564 45.473 95.2494 45.3839 95.1752 45.0276C95.2197 45.6808 95.9918 45.9035 96.4075 45.859Z" fill="#1E9A1C"/>
<path d="M113.021 67.0599C113.006 67.0599 113.006 67.0599 112.991 67.0599L111.091 67.0153L112.991 66.9708C113.273 66.9708 113.511 66.8223 113.585 66.5996C113.689 66.3324 113.54 66.0058 113.184 65.6792C111.135 63.8234 108.3 62.8583 105.568 61.9082C102.97 61.0174 100.283 60.0821 98.3377 58.4044C96.185 56.5634 95.1457 53.995 95.1606 50.5358C94.7003 51.486 93.8244 52.0798 92.7703 52.154C91.8498 52.2134 91.0333 51.8571 90.6473 51.2039C90.2316 50.4912 90.38 49.5114 91.063 48.4573L91.0926 48.4127L91.1372 48.4424C91.6123 48.8284 92.2952 48.9918 92.8297 48.8433C93.0969 48.7691 93.4532 48.6057 93.6314 48.1604C93.958 47.3586 93.6908 46.0522 92.3694 44.9535L92.2804 44.8793L92.4437 44.8644C92.5921 44.8496 92.8148 44.8348 92.9336 44.7011C93.0078 44.6121 93.0375 44.4933 93.0227 44.3448L92.9188 43.2759L93.1118 44.33C93.1563 44.5378 93.2751 44.7457 93.4384 44.8496C93.6314 44.9832 93.8838 45.0129 94.1956 44.9535H94.2252L94.2401 44.9832C94.4925 45.3841 94.7152 45.5177 94.9527 45.4286C95.027 45.3989 95.1309 45.3247 95.116 45.1168C95.1012 45.0871 95.1012 45.0426 95.1012 45.0129L95.0418 44.3151L95.1903 44.9981C95.2051 45.0426 95.2051 45.0723 95.2051 45.102C95.2497 45.2801 95.3387 45.4138 95.4872 45.5325C95.7544 45.7404 96.1404 45.8295 96.3928 45.7998H96.4225L96.4374 45.8295C97.2836 48.5761 99.1097 51.4117 101.307 53.4308C103.757 55.6727 107.305 54.9452 109.19 52.9854L109.265 52.9112V53.0151C109.28 54.5146 108.715 55.6578 107.646 56.3111C106.132 57.2315 103.95 56.9494 102.584 56.2071C101.975 55.8805 101.455 55.8508 101.337 56.029C101.233 56.1774 101.381 56.4447 101.738 56.7713C103.089 57.9887 105.88 59.0131 110.556 60.0227C112.279 60.3938 113.555 61.0322 114.327 61.923C115.129 62.8583 115.203 63.8234 115.129 64.4766C114.995 65.8722 114.001 67.0599 113.021 67.0599ZM95.2645 50.0755V50.3131C95.1309 58.1817 100.223 59.9484 105.612 61.8042C108.359 62.7544 111.18 63.7343 113.258 65.5901C113.793 66.0652 113.748 66.4363 113.689 66.6145C113.659 66.7036 113.6 66.7778 113.526 66.852C114.268 66.5403 114.951 65.5604 115.084 64.4914C115.174 63.7194 115.129 61.1065 110.586 60.1266C105.895 59.117 103.089 58.0778 101.723 56.8604C101.173 56.3704 101.218 56.1032 101.307 55.9993C101.485 55.7617 102.064 55.8211 102.673 56.1477C104.009 56.8752 106.147 57.1425 107.646 56.2517C108.671 55.6281 109.22 54.5592 109.22 53.1339C107.275 55.064 103.727 55.7469 101.277 53.5051C99.08 51.486 97.2539 48.6503 96.3928 45.9037C96.1256 45.9185 95.7396 45.8443 95.4575 45.6068C95.3536 45.5177 95.2645 45.4138 95.22 45.3098C95.1754 45.4435 95.0863 45.488 95.027 45.5177C94.6558 45.6662 94.4034 45.3544 94.2104 45.0723C93.8986 45.1317 93.6314 45.0871 93.4235 44.9535C93.2751 44.8496 93.186 44.716 93.1266 44.5972C93.1118 44.6714 93.0821 44.7308 93.0375 44.7754C92.9039 44.9238 92.6961 44.9535 92.5476 44.9684C93.8244 46.0819 94.0768 47.3883 93.7502 48.2049C93.6017 48.5761 93.3048 48.8284 92.8891 48.9472C92.3398 49.0957 91.642 48.9324 91.152 48.5612C90.4988 49.5708 90.3652 50.4912 90.766 51.1742C91.1223 51.7829 91.924 52.1392 92.8 52.0798C93.8838 52.0056 94.7894 51.3375 95.2051 50.3131L95.2645 50.0755Z" fill="black"/>
<path d="M102.614 56.1924C105.48 58.063 108.716 58.063 111.7 54.6186C112.636 53.5348 114.12 52.5995 115.16 52.4956C116.199 52.3917 116.139 51.4118 116.941 51.2188C116.451 51.0703 116.258 50.4765 115.516 50.5507C117.372 49.9123 116.822 48.4277 117.743 47.715C117.001 47.9823 115.843 46.8836 114.774 48.2792C115.041 47.6408 114.67 46.8688 114.402 46.5719C114.506 47.3142 112.948 47.4626 112.651 49.3333C112.487 50.3874 111.908 50.3132 111.819 48.6949C111.745 47.5072 111.181 44.1964 110.483 42.5188C109.8 40.8411 109.637 38.5399 110.572 38.1836C110.424 37.9461 110.231 37.7382 109.993 37.5749C108.85 36.8326 106.831 37.1295 106.43 38.4657C105.153 41.821 108.746 43.751 108.449 47.4033C107.915 44.6864 103.505 43.9886 103.565 41.3311C102.139 41.9695 102.332 43.1572 102.882 44.0925C101.991 42.7118 99.9717 44.9833 98.2347 43.1126C98.0417 45.5771 100.209 46.5273 101.991 46.6164C101.1 48.1901 102.288 49.5263 103.475 49.9717C103.52 47.2103 109.191 48.3386 109.251 53.0894C109.28 57.1277 104.945 57.484 102.614 56.1924Z" fill="#FDD406"/>
<path d="M106.415 57.499C105.153 57.499 103.876 57.0833 102.599 56.237L102.288 56.0292L102.644 56.1628C103.965 56.8903 106.103 57.1575 107.618 56.237C108.672 55.6135 109.206 54.5297 109.191 53.0896C109.147 49.9867 106.771 48.5466 105.168 48.5317C104.158 48.5317 103.52 49.081 103.505 49.9718V50.0312L103.446 50.0164C102.822 49.7788 102.05 49.2443 101.753 48.4129C101.545 47.8488 101.605 47.2401 101.917 46.6611C101.248 46.6165 99.7786 46.3938 98.873 45.3546C98.3534 44.7607 98.1158 44.0036 98.1901 43.1128L98.2049 43.0088L98.2791 43.0831C99.1996 44.0926 100.209 43.8848 101.085 43.7066C101.709 43.5879 102.258 43.4691 102.674 43.7957C102.481 43.3652 102.332 42.8307 102.496 42.3259C102.644 41.8805 102.985 41.539 103.55 41.2867L103.609 41.257V41.3312C103.579 42.6971 104.722 43.5285 105.94 44.4044C106.979 45.1616 108.063 45.9484 108.419 47.1065C108.464 45.5773 107.811 44.345 107.202 43.1722C106.43 41.6875 105.688 40.2771 106.385 38.451C106.534 37.9314 106.949 37.5157 107.558 37.293C108.36 36.996 109.34 37.1 110.008 37.5305C110.245 37.679 110.453 37.9017 110.602 38.1541L110.631 38.1986L110.587 38.2134C110.394 38.2877 110.245 38.4361 110.141 38.6737C109.8 39.4605 109.963 41.0937 110.527 42.4744C111.21 44.152 111.789 47.4776 111.864 48.6653C111.908 49.5413 112.116 49.957 112.279 49.9718C112.398 49.9718 112.547 49.7788 112.621 49.3037C112.799 48.1902 113.408 47.6706 113.868 47.2995C114.18 47.0322 114.417 46.8392 114.373 46.5571L114.358 46.4087L114.462 46.5126C114.684 46.765 115.041 47.4182 114.907 48.0418C115.59 47.2995 116.303 47.4479 116.882 47.5815C117.194 47.6558 117.505 47.7152 117.743 47.6261L118.01 47.5222L117.787 47.7003C117.446 47.9676 117.312 48.3536 117.164 48.7693C116.956 49.3631 116.733 50.0461 115.783 50.4618C116.11 50.4914 116.318 50.6696 116.525 50.8329C116.674 50.9517 116.807 51.0705 116.986 51.1298L117.134 51.1744L116.971 51.2189C116.629 51.308 116.451 51.5455 116.273 51.7979C116.035 52.1246 115.783 52.4512 115.189 52.5106C114.195 52.6145 112.725 53.5201 111.76 54.6188C110.334 56.2667 108.776 57.2169 107.142 57.4247C106.89 57.4841 106.653 57.499 106.415 57.499ZM103.297 56.5488C105.509 57.7514 108.583 58.1671 111.671 54.5891C112.636 53.4607 114.135 52.5403 115.16 52.4512C115.709 52.3918 115.946 52.08 116.169 51.7831C116.332 51.5604 116.511 51.3228 116.808 51.2189C116.674 51.1447 116.555 51.0556 116.436 50.9517C116.199 50.7587 115.961 50.5508 115.516 50.5954L115.13 50.6399L115.501 50.5063C116.614 50.1203 116.837 49.4373 117.06 48.7841C117.179 48.4129 117.297 48.0566 117.58 47.7894C117.357 47.8191 117.104 47.7597 116.852 47.7003C116.214 47.5519 115.501 47.4034 114.818 48.309L114.595 48.6059L114.744 48.2793C114.996 47.7003 114.699 47.0471 114.462 46.7205C114.432 46.9877 114.195 47.1807 113.912 47.4182C113.467 47.7894 112.873 48.2942 112.695 49.378C112.621 49.8382 112.472 50.1203 112.279 50.1203C112.279 50.1203 112.279 50.1203 112.264 50.1203C111.997 50.1054 111.819 49.5858 111.76 48.7396C111.685 47.5667 111.121 44.2559 110.438 42.5783C109.859 41.1827 109.696 39.5199 110.052 38.7034C110.156 38.4658 110.305 38.3025 110.498 38.2134C110.349 37.9907 110.171 37.7977 109.963 37.6641C109.31 37.2484 108.36 37.1445 107.588 37.4266C107.009 37.6344 106.623 38.0204 106.474 38.5252C105.791 40.3216 106.519 41.7024 107.291 43.1722C107.959 44.4489 108.642 45.7554 108.508 47.4479L108.479 47.7597L108.419 47.4479C108.167 46.1563 107.009 45.3249 105.91 44.5232C104.693 43.6472 103.55 42.801 103.535 41.4351C103.045 41.6727 102.718 41.9993 102.599 42.4001C102.406 43.0088 102.674 43.6621 102.941 44.1223L102.956 44.2262L102.867 44.1669C102.481 43.5582 101.842 43.6918 101.13 43.8402C100.239 44.0184 99.2442 44.2262 98.3088 43.2612C98.2643 44.0778 98.487 44.7904 98.9769 45.3397C99.8974 46.3938 101.412 46.5868 102.035 46.6165H102.11L102.08 46.6759C101.753 47.2698 101.679 47.8488 101.887 48.4129C102.169 49.185 102.882 49.7046 103.475 49.9421C103.52 49.0365 104.188 48.4723 105.227 48.4723C106.86 48.4723 109.295 49.957 109.34 53.1193C109.355 54.5742 108.79 55.6877 107.721 56.3409C106.356 57.0981 104.619 57.0239 103.297 56.5488Z" fill="black"/>
<path d="M110.572 60.0967C117.49 61.5813 115.025 67.0597 112.992 67.0151C111.7 66.9854 110.468 65.9016 110.393 64.9663C108.909 65.7532 109.31 67.312 110.438 67.9356C107.32 67.5644 106.014 69.6132 105.939 71.8551C106.504 70.8158 108.241 70.7416 108.879 70.9643C109.517 71.187 111.18 71.3057 111.848 70.5634C111.299 71.0385 112.19 72.1223 111.433 72.9537C114.031 72.8498 115.159 70.4298 114.714 69.3757C118.069 66.3173 117.431 61.3289 110.572 60.0967Z" fill="#FDD406"/>
<path d="M111.328 72.9983L111.402 72.9241C111.803 72.4787 111.729 71.9591 111.67 71.5137C111.64 71.2613 111.595 71.0089 111.655 70.8011C110.853 71.3504 109.413 71.1871 108.878 71.0089C108.27 70.8011 106.562 70.8456 105.998 71.8848L105.909 72.0482V71.8552C105.954 70.5041 106.429 69.3758 107.245 68.678C108.003 68.0248 109.012 67.7575 110.259 67.8615C109.725 67.5051 109.398 66.941 109.398 66.362C109.398 65.7681 109.754 65.2633 110.378 64.9219L110.437 64.8922V64.9664C110.512 65.8423 111.699 66.941 112.991 66.9707C113.006 66.9707 113.006 66.9707 113.021 66.9707C113.941 66.9707 114.906 65.8126 115.069 64.5062C115.159 63.7341 115.114 61.1212 110.571 60.1413L107.913 59.5771L110.601 60.0522C113.867 60.6461 115.99 62.1159 116.599 64.2092C117.103 65.9611 116.42 67.8912 114.787 69.3758C114.98 69.8954 114.832 70.6674 114.401 71.3504C113.763 72.3451 112.694 72.9389 111.447 72.9835L111.328 72.9983ZM111.818 70.6526C111.655 70.8456 111.699 71.1574 111.744 71.484C111.803 71.9294 111.877 72.4342 111.521 72.8944C112.694 72.8202 113.689 72.2412 114.297 71.3058C114.728 70.6377 114.876 69.8806 114.669 69.3906L114.654 69.361L114.683 69.3461C116.302 67.8763 116.985 65.9611 116.48 64.2389C116.005 62.5761 114.535 61.2993 112.293 60.5719C113.169 60.9282 113.852 61.3884 114.342 61.9526C115.144 62.8879 115.218 63.8529 115.144 64.5062C114.98 65.872 113.986 67.0449 113.006 67.0449C112.991 67.0449 112.991 67.0449 112.976 67.0449C111.64 67.0152 110.467 65.9314 110.348 65.0258C109.784 65.3524 109.472 65.8126 109.472 66.362C109.472 66.9558 109.858 67.5645 110.452 67.8912L110.66 67.9951L110.437 67.9654C109.131 67.8169 108.077 68.0693 107.305 68.7374C106.548 69.3906 106.087 70.4299 106.013 71.677C106.681 70.7417 108.314 70.712 108.908 70.905C109.576 71.1277 111.091 71.2168 111.759 70.5784C111.774 70.5487 111.803 70.5338 111.833 70.5041L112.353 70.0587L111.892 70.5635C111.863 70.6081 111.848 70.6377 111.818 70.6526Z" fill="black"/>
<path d="M105.3 83.5545C105.746 83.8365 105.686 84.4304 105.389 84.8016C104.781 85.5439 105.701 87.3403 103.816 87.6372C103.251 87.7263 102.851 87.37 102.658 86.7316C102.153 84.9797 103.994 84.8609 104.202 84.0295C104.409 83.2278 104.929 83.3169 105.3 83.5545Z" fill="#FDD406"/>
<path d="M103.652 87.7112C103.177 87.7112 102.806 87.3698 102.628 86.7611C102.286 85.6031 102.969 85.128 103.504 84.742C103.801 84.5193 104.098 84.3263 104.157 84.0442C104.246 83.7027 104.395 83.48 104.602 83.3909C104.855 83.287 105.137 83.4058 105.33 83.5246C105.508 83.6433 105.627 83.8066 105.671 84.0293C105.716 84.2966 105.627 84.6083 105.434 84.8459C105.226 85.0983 105.196 85.4843 105.181 85.9C105.137 86.6571 105.092 87.5034 103.83 87.6964C103.771 87.6964 103.712 87.7112 103.652 87.7112ZM104.81 83.4355C104.751 83.4355 104.692 83.4503 104.632 83.4652C104.454 83.5394 104.32 83.7324 104.246 84.0442C104.172 84.356 103.875 84.5786 103.548 84.8013C102.999 85.1874 102.39 85.6327 102.702 86.7314C102.88 87.3698 103.281 87.6816 103.801 87.6073C104.974 87.4143 105.018 86.6423 105.078 85.8851C105.107 85.4546 105.122 85.0537 105.36 84.7865C105.538 84.5638 105.612 84.2817 105.582 84.0442C105.553 83.8512 105.449 83.7027 105.285 83.6136C105.152 83.5246 104.974 83.4355 104.81 83.4355Z" fill="black"/>
<path d="M103.608 86.7459C104.216 87.0576 104.736 87.4882 104.409 89.4479C104.276 90.2645 104.246 92.2539 104.959 92.3133C104.513 92.5211 103.563 92.7141 103.192 92.1945C102.791 92.8032 101.96 92.5805 101.663 91.8085C101.203 92.15 100.624 91.5116 100.653 90.9919C100.252 91.2295 99.4953 90.8435 99.7328 89.6558C99.2578 89.8042 98.6639 89.4479 98.4561 89.1361C99.1538 89.0174 100.921 88.1563 101.366 87.4288C101.811 86.7013 102.895 86.3895 103.608 86.7459Z" fill="#FDD406"/>
<path d="M102.598 92.5955C102.569 92.5955 102.539 92.5955 102.509 92.5955C102.153 92.5509 101.826 92.2837 101.648 91.8828C101.485 91.9868 101.307 91.9868 101.114 91.8828C100.831 91.7344 100.624 91.3929 100.609 91.0663C100.431 91.1405 100.208 91.1108 100.03 90.9772C99.8813 90.8733 99.5399 90.5318 99.6883 89.7301C99.2132 89.834 98.6342 89.4926 98.4264 89.1808L98.3818 89.1214L98.4561 89.1066C99.139 89.0026 100.891 88.1415 101.336 87.4141C101.782 86.6866 102.895 86.3451 103.623 86.7163C104.246 87.0281 104.781 87.4883 104.454 89.4777C104.35 90.131 104.306 91.6305 104.692 92.1352C104.766 92.2392 104.855 92.2837 104.959 92.2985L105.137 92.3134L104.974 92.3876C104.484 92.6103 103.593 92.7588 103.192 92.2985C103.044 92.4767 102.836 92.5955 102.598 92.5955ZM101.693 91.7344L101.707 91.7938C101.856 92.1946 102.168 92.4619 102.509 92.5064C102.762 92.5361 102.999 92.4173 103.162 92.1798L103.192 92.1204L103.237 92.1798C103.548 92.6252 104.32 92.5212 104.825 92.3431C104.751 92.3134 104.692 92.254 104.632 92.1798C104.216 91.6453 104.261 90.1458 104.38 89.4629C104.692 87.5328 104.216 87.1171 103.593 86.8054C102.895 86.449 101.841 86.7757 101.425 87.4735C100.98 88.2009 99.2875 89.0323 98.56 89.1956C98.7827 89.4777 99.332 89.7747 99.7477 89.641L99.8219 89.6113L99.8071 89.6856C99.6438 90.4873 99.9556 90.8139 100.104 90.9178C100.282 91.0366 100.49 91.0663 100.653 90.9772L100.728 90.9327V91.0069C100.713 91.3038 100.921 91.6601 101.188 91.8086C101.307 91.868 101.485 91.9125 101.678 91.7789L101.693 91.7344Z" fill="black"/>
<path d="M103.237 92.2247L103.163 92.1653C103.341 91.9278 103.475 90.7995 103.356 90.072L103.445 90.0571C103.564 90.7698 103.445 91.9426 103.237 92.2247Z" fill="black"/>
<path d="M101.693 91.8381L101.648 91.7639C101.931 91.5709 102.554 90.7989 102.673 90.1011L102.762 90.1159C102.628 90.8582 102.005 91.6303 101.693 91.8381Z" fill="black"/>
<path d="M100.668 91.0369L100.639 90.9478C101.025 90.7845 101.99 89.6265 102.227 88.8545L102.316 88.8842C102.064 89.7007 101.069 90.8736 100.668 91.0369Z" fill="black"/>
<path d="M99.7482 89.7159L99.7334 89.6268C100.208 89.5526 101.604 88.6915 102.198 87.771L102.272 87.8155C101.663 88.7509 100.238 89.6268 99.7482 89.7159Z" fill="black"/>
<path d="M95.2039 50.3276C95.1148 55.3903 97.223 57.9587 100.133 59.6215C99.0491 58.9683 99.5242 56.7561 98.0544 56.0287C98.3959 55.999 98.9452 56.5038 99.8063 56.2959C99.3906 55.3606 98.6928 53.9205 97.0894 53.7275C97.5051 53.6829 98.4256 53.8314 99.0194 53.6087C98.2029 52.3171 95.9759 52.9406 95.2039 50.3276Z" fill="#FDD406"/>
<path d="M100.668 59.9185L100.119 59.6513C96.6147 57.647 95.0856 54.7816 95.1598 50.3277V50.0308L95.2489 50.3128C95.7091 51.8866 96.7187 52.2726 97.5946 52.6289C98.1736 52.8516 98.7378 53.0743 99.0644 53.5939L99.0941 53.6384L99.0496 53.6533C98.6487 53.8018 98.0994 53.7869 97.654 53.7721C97.6095 53.7721 97.5649 53.7721 97.5204 53.7721C98.9011 54.1581 99.5098 55.5239 99.8513 56.2811L99.881 56.3257L99.8216 56.3405C99.2574 56.4741 98.812 56.296 98.4854 56.1772C98.4112 56.1475 98.3518 56.1326 98.2924 56.103C98.9308 56.5335 99.1238 57.2758 99.3316 58.0033C99.5098 58.6565 99.6731 59.2801 100.163 59.5622L100.668 59.9185ZM95.2489 50.5949C95.2489 54.6925 96.6444 57.4243 99.777 59.3395C99.5098 58.998 99.391 58.5229 99.2574 58.033C99.0496 57.2461 98.8269 56.4444 98.0549 56.0584L97.9064 55.9842L98.0697 55.9693C98.2033 55.9545 98.3518 56.0139 98.5299 56.0881C98.8417 56.2069 99.2426 56.3553 99.7622 56.2514C99.391 55.42 98.6932 53.9502 97.1047 53.7572L96.7335 53.7127L97.1047 53.6681C97.2531 53.6533 97.4461 53.6533 97.6688 53.6681C98.0845 53.683 98.5893 53.6978 98.9753 53.5642C98.6487 53.104 98.1291 52.8961 97.5798 52.6883C96.7187 52.3617 95.7537 51.9905 95.2489 50.5949Z" fill="black"/>
<path d="M94.6854 45.5024C94.5072 45.443 94.3588 45.2648 94.2103 45.0273C93.4383 45.1906 93.1265 44.7006 93.0671 44.374C93.1117 44.9382 92.6217 44.9233 92.399 44.9382C93.7946 46.0962 93.9876 47.4324 93.6758 48.1896C93.275 49.1694 91.8943 49.1249 91.1074 48.4865C91.0035 50.5798 93.7204 51.2776 94.7151 48.635C94.7151 49.0803 95.2792 49.0358 95.4277 49.6148C96.1403 48.4865 95.6059 46.8534 94.6854 45.5024Z" fill="#FDD406"/>
<path d="M92.7111 50.4021C92.5924 50.4021 92.4884 50.3873 92.3845 50.3724C91.6867 50.224 91.0038 49.6004 91.0632 48.487V48.3979L91.1374 48.4573C91.6125 48.8433 92.2954 49.0066 92.8448 48.8581C93.2308 48.7542 93.498 48.5166 93.6465 48.1752C93.9731 47.3735 93.7059 46.067 92.3697 44.9683L92.2806 44.8941L92.3845 44.8793C92.3994 44.8793 92.4291 44.8793 92.4439 44.8793C92.5924 44.8644 92.8151 44.8644 92.919 44.7308C92.9932 44.6566 93.0229 44.523 93.0081 44.3745L92.9338 43.4243L93.0971 44.3596C93.1417 44.5675 93.2605 44.7753 93.4238 44.8793C93.6168 45.0129 93.8692 45.0426 94.1809 44.9832H94.2106L94.2255 45.0129C94.4036 45.2801 94.5373 45.4137 94.6709 45.4583H94.6857L94.7006 45.4731C95.7843 47.0765 96.0664 48.6354 95.4429 49.645L95.3835 49.7341L95.3538 49.6301C95.2796 49.348 95.1163 49.2293 94.953 49.0957C94.8342 49.0066 94.7154 48.9323 94.6709 48.7839C94.2106 49.9864 93.3941 50.4021 92.7111 50.4021ZM91.1523 48.576C91.1374 49.5707 91.761 50.1498 92.3994 50.2834C93.112 50.4318 94.1216 50.0755 94.6709 48.6206L94.7599 48.383V48.6354C94.7599 48.8284 94.8787 48.9175 95.042 49.0363C95.1905 49.1402 95.3538 49.2738 95.4577 49.5114C95.9922 48.5463 95.6953 47.0617 94.6709 45.5325C94.4779 45.4583 94.3294 45.2653 94.2106 45.0723C93.8989 45.1317 93.6316 45.0871 93.4238 44.9535C93.2753 44.8496 93.1862 44.716 93.1268 44.5972C93.112 44.6714 93.0823 44.7308 93.0378 44.7753C92.9041 44.9238 92.6963 44.9535 92.5478 44.9535C93.8395 46.067 94.0919 47.3735 93.7652 48.19C93.6168 48.5612 93.3198 48.8136 92.9041 48.9323C92.3251 49.0957 91.6422 48.9472 91.1523 48.576Z" fill="black"/>
<path d="M90.3503 35.4818C89.118 34.3534 88.539 32.4531 88.5984 31.3545C88.6429 30.2707 89.0883 29.083 90.6769 29.5729C90.187 29.5729 90.5284 30.5528 90.0088 30.6567C90.4245 30.8051 90.9887 30.4637 91.0778 30.241C91.1817 30.5824 91.8201 30.4934 91.8646 30.8794C92.117 30.6864 91.8349 29.7214 91.4786 29.5135C91.7459 29.365 91.8943 28.593 91.7755 28.2367C91.5232 28.2812 91.152 28.6376 91.0926 29.1275C91.2114 28.7266 91.0629 27.7468 90.38 27.5983C90.187 27.8655 90.1276 28.5336 90.4097 28.9048C89.7713 28.7563 88.8359 29.172 88.5984 29.7214C88.6429 29.0681 88.7469 28.1328 89.1477 27.5538C89.2813 27.3608 88.9547 27.0193 88.6875 27.4795C88.2124 26.5442 86.9208 26.0543 86.3566 26.5145C85.7924 26.9896 85.0204 26.2918 84.5602 27.0341C84.0851 27.7765 82.4965 27.8507 82.5856 28.6376C82.6301 29.1126 82.5262 29.8253 82.2887 30.0925C81.7245 30.7309 82.5559 31.206 82.7044 31.7702C82.6004 29.8995 85.5846 26.2473 88.5836 27.6725C88.3163 28.1476 88.0788 29.083 87.9897 30.2113C87.8709 31.8889 88.1085 34.2644 89.7416 35.6451L90.3503 35.4818Z" fill="#1E9A1C"/>
<path d="M89.6973 35.7042L89.6825 35.6894C87.8415 34.1157 87.8267 31.3394 87.9158 30.2111C87.99 29.157 88.2127 28.2068 88.4948 27.6872C87.0992 27.0488 85.8521 27.5535 85.0355 28.088C83.6994 28.9788 82.6601 30.6268 82.7195 31.7699L82.7492 32.2153L82.6453 31.7848C82.6007 31.6066 82.4671 31.4285 82.3483 31.2503C82.096 30.894 81.8287 30.508 82.2296 30.0626C82.4523 29.8102 82.5562 29.1124 82.5117 28.6373C82.4671 28.1771 82.957 27.9396 83.4767 27.702C83.8775 27.509 84.3081 27.316 84.5011 27.0042C84.7683 26.5737 85.1395 26.6034 85.4958 26.6331C85.7927 26.6628 86.06 26.6776 86.2975 26.4846C86.5202 26.3064 86.832 26.2471 87.2031 26.3213C87.7821 26.4401 88.3612 26.8706 88.6581 27.3902C88.7769 27.2269 88.8808 27.1972 88.955 27.1972C89.0441 27.1972 89.1183 27.2566 89.1629 27.3309C89.2074 27.4051 89.1926 27.4942 89.148 27.5684C88.8065 28.0732 88.6878 28.8155 88.6284 29.5133C88.955 29.0679 89.6973 28.7561 90.2763 28.8303C90.0536 28.4295 90.1279 27.8059 90.306 27.5536L90.3209 27.5239H90.3506C90.5881 27.5684 90.796 27.7317 90.9296 27.9692C91.0632 28.1919 91.1226 28.4592 91.1374 28.6967C91.3007 28.3849 91.5531 28.1919 91.7313 28.1623H91.7758L91.7907 28.1919C91.9094 28.5483 91.7907 29.2609 91.5234 29.4836C91.761 29.6617 91.9391 30.122 91.9688 30.4635C91.9837 30.6119 91.9688 30.7901 91.8649 30.8792L91.8055 30.9237L91.7907 30.8495C91.7758 30.6713 91.5977 30.6119 91.4195 30.5377C91.2711 30.4783 91.1226 30.4189 91.0484 30.3001C90.9741 30.4041 90.8405 30.508 90.6772 30.5822C90.4248 30.701 90.1724 30.7307 89.9646 30.6565L89.8161 30.5971L89.9794 30.5674C90.2021 30.5228 90.2467 30.2853 90.2912 30.0181C90.3209 29.8102 90.3506 29.6024 90.499 29.5281C90.0091 29.3945 89.6083 29.439 89.2965 29.6617C88.7917 30.0181 88.6581 30.7604 88.6284 31.3097C88.5838 32.3044 89.0886 34.2196 90.3654 35.3925L90.4248 35.4519L89.6973 35.7042ZM87.1586 27.316C87.6485 27.316 88.1236 27.4199 88.5839 27.6426L88.6284 27.6575L88.5987 27.702C88.3166 28.1919 88.0939 29.157 88.0048 30.2259C87.9158 31.3245 87.9306 34.0563 89.727 35.6003L90.2615 35.4519C88.9995 34.2493 88.5096 32.3489 88.5542 31.3542C88.5838 30.7752 88.7175 30.0032 89.2519 29.6321C89.6083 29.3797 90.0833 29.35 90.6772 29.543L90.9593 29.6321L91.0335 29.1421C91.0335 29.0976 91.0484 29.0382 91.0632 28.9937C91.0929 28.7264 91.0335 28.3553 90.8702 28.0732C90.7514 27.8653 90.5733 27.7317 90.3803 27.6723C90.217 27.9396 90.1576 28.5483 90.4248 28.9046L90.499 29.0085L90.3803 28.9788C89.7567 28.8303 88.8362 29.246 88.6284 29.7657L88.5245 30.0181V29.7211C88.5838 28.9491 88.6878 28.088 89.0738 27.5239C89.1035 27.4793 89.1035 27.4199 89.0738 27.3754C89.0441 27.316 88.9995 27.2863 88.9402 27.2863C88.8511 27.2863 88.762 27.3605 88.6878 27.4942L88.6432 27.5684L88.5987 27.4942C88.3315 26.9597 87.7525 26.5291 87.1734 26.4104C86.832 26.3361 86.535 26.3955 86.342 26.544C86.0748 26.7667 85.763 26.737 85.4661 26.7221C85.1246 26.6925 84.798 26.6628 84.5456 27.0488C84.3229 27.3902 83.8924 27.5832 83.4767 27.7762C82.9719 28.0138 82.5265 28.2216 82.571 28.6225C82.6156 29.1124 82.5117 29.8399 82.2593 30.1071C81.9029 30.508 82.1405 30.8346 82.378 31.1909C82.4523 31.3097 82.5413 31.4136 82.6007 31.5324C82.675 30.3892 83.6845 28.86 84.9465 28.0138C85.6888 27.5535 86.4311 27.316 87.1586 27.316ZM91.0632 30.1071L91.1077 30.2408C91.1523 30.3892 91.3007 30.4486 91.4641 30.508C91.6274 30.5674 91.8055 30.6416 91.8649 30.8049C91.8946 30.7455 91.9095 30.6416 91.8946 30.5228C91.8649 30.1814 91.6719 29.7063 91.4344 29.5727L91.3601 29.5281L91.4344 29.4836C91.6867 29.35 91.8204 28.6522 91.7164 28.2959C91.5234 28.3553 91.2414 28.6225 91.1374 28.9937C91.1374 29.053 91.1226 29.0976 91.1077 29.1421L90.9444 29.6766L90.9593 29.6172H90.6772C90.4842 29.6172 90.4396 29.7954 90.3951 30.0774C90.3654 30.2853 90.3209 30.5228 90.1576 30.6416C90.306 30.6565 90.4842 30.6268 90.6624 30.5377C90.8405 30.4486 90.989 30.315 91.0335 30.2111L91.0632 30.1071Z" fill="black"/>
<path d="M91.2268 29.6026C91.2119 29.1572 91.9839 28.5782 93.0083 28.5931C94.2554 28.6079 95.2205 29.7362 96.2152 29.6323C97.2099 29.5135 96.72 30.0777 96.5121 30.2262C96.3043 30.3746 96.1855 30.5973 96.2449 30.8646C96.3191 31.1318 96.1855 31.31 95.7846 31.0576C94.8938 30.4934 94.0031 31.2803 92.8302 30.8497C91.8503 30.4786 91.2565 30.2707 91.2268 29.6026Z" fill="#D91C16"/>
<path d="M96.1253 31.2359C96.0362 31.2359 95.9175 31.1913 95.7838 31.1023C95.3384 30.8202 94.9079 30.8944 94.4031 30.9686C93.9429 31.0429 93.4233 31.1171 92.8442 30.9093L92.7849 30.8796C91.8198 30.5084 91.226 30.2857 91.1963 29.6176C91.1963 29.4692 91.2705 29.291 91.419 29.1277C91.6862 28.8456 92.2504 28.5487 93.0224 28.5635C93.6608 28.5635 94.2101 28.8605 94.7446 29.1425C95.2494 29.4098 95.7393 29.6622 96.2292 29.6028C96.6004 29.5582 96.8231 29.6028 96.8676 29.7512C96.9419 29.9294 96.6895 30.1818 96.5558 30.2857C96.4371 30.3748 96.2292 30.5678 96.3183 30.8796C96.3628 31.0429 96.3332 31.1617 96.2589 31.221C96.2144 31.221 96.1698 31.2359 96.1253 31.2359ZM95.0267 30.8053C95.2939 30.8053 95.5611 30.8499 95.8284 31.028C95.9917 31.132 96.1253 31.1765 96.1847 31.132C96.2292 31.1023 96.2441 30.9983 96.2144 30.8944C96.1402 30.6272 96.2441 30.3896 96.4965 30.2115C96.6152 30.1224 96.8231 29.8997 96.7785 29.7809C96.7637 29.7215 96.6598 29.6473 96.2292 29.6919C95.7245 29.7512 95.2197 29.484 94.7 29.2168C94.1804 28.9495 93.6311 28.6526 93.0224 28.6526C92.2801 28.6526 91.7456 28.9347 91.4784 29.2019C91.3448 29.3355 91.2705 29.4988 91.2705 29.6176C91.3002 30.2412 91.8347 30.4342 92.7997 30.8053L92.8591 30.835C93.4233 31.0429 93.8983 30.9686 94.3734 30.8944C94.5961 30.835 94.8188 30.8053 95.0267 30.8053Z" fill="black"/>
<path d="M86.1488 41.2571C85.6589 39.6982 83.7734 37.9909 82.8678 37.6049L82.8232 36.7735C83.3132 36.5805 84.5009 35.6451 85.0502 35.1107C88.7618 36.8922 93.7948 34.3683 96.1108 31.7554L97.0016 32.2898L96.5562 32.8837L96.0811 32.6313C95.517 33.3142 93.3939 35.3185 92.7555 35.7342C93.6166 35.9569 94.8043 36.1054 95.1309 36.0905C97.2094 34.6059 98.8277 33.2697 99.6146 33.1806L100.283 34.0714L99.6888 34.4871L99.2137 34.2199C96.9867 36.046 94.4777 40.0397 93.483 42.712C92.1023 42.4151 87.1584 42.6081 86.1488 41.2571Z" fill="#CCCCCC"/>
<path d="M93.5133 42.7715L93.4687 42.7567C93.0827 42.6676 92.3849 42.6231 91.5981 42.5785C89.5938 42.4449 86.8472 42.2668 86.1197 41.2869V41.272C85.615 39.6686 83.7146 38.0207 82.8535 37.6495L82.8238 37.6347L82.7793 36.7439L82.809 36.729C83.2989 36.536 84.4866 35.6007 85.0211 35.0811L85.0508 35.0662L85.0805 35.0811C88.9257 36.922 93.929 34.1754 96.0966 31.7406L96.1262 31.7109L97.0913 32.2899L96.5865 32.958L96.1114 32.7056C95.5472 33.3737 93.6024 35.2147 92.8749 35.7343C93.7063 35.9422 94.7901 36.0758 95.1167 36.0609C95.5621 35.7343 95.9926 35.4225 96.4083 35.1256C97.8484 34.0715 98.9916 33.2253 99.6152 33.151H99.6449L100.357 34.1012L99.7042 34.5615L99.244 34.2942C97.0319 36.1203 94.5228 40.1289 93.5578 42.7418L93.5133 42.7715ZM86.194 41.2424C86.9066 42.1925 89.6235 42.3558 91.5981 42.4895C92.3701 42.534 93.053 42.5785 93.4539 42.6676C94.4486 40.0398 96.9725 36.0164 99.1846 34.1903L99.2143 34.1754L99.6894 34.4427L100.224 34.0567L99.6003 33.2253C98.9916 33.3292 97.8633 34.1458 96.4529 35.185C96.0372 35.4819 95.6066 35.8086 95.1612 36.1352L95.1464 36.15H95.1315C94.8049 36.1649 93.632 36.0313 92.7413 35.7937L92.6373 35.764L92.7264 35.7046C93.3797 35.2741 95.4879 33.2847 96.052 32.6017L96.0817 32.572L96.5419 32.8244L96.928 32.3048L96.1114 31.8149C94.8791 33.1956 93.0085 34.4278 91.1082 35.1256C89.5196 35.7046 87.1887 36.1797 85.0508 35.1702C84.5163 35.6898 83.3732 36.5806 82.8684 36.8033L82.9129 37.5753C83.7889 37.9761 85.6744 39.6389 86.194 41.2424Z" fill="black"/>
<path d="M89.3408 36.2684V36.1793C90.4988 36.1348 91.5232 35.8379 91.9538 35.4519L91.9835 35.437L92.0132 35.4519C92.1616 35.5409 92.414 35.63 92.7703 35.7191L92.7407 35.8082C92.3992 35.7191 92.1616 35.63 91.9983 35.5558C91.5381 35.9269 90.4988 36.2239 89.3408 36.2684Z" fill="black"/>
<path d="M86.2969 40.7223C85.9702 38.8962 86.4899 36.8177 87.4549 36.1793L87.4846 36.1645L87.5143 36.1793C89.5928 37.56 93.0668 37.5007 95.1008 36.0605L95.1453 36.1348C93.0965 37.6046 89.6076 37.664 87.4846 36.2832C86.5641 36.9216 86.0742 38.9259 86.4008 40.7223H86.2969Z" fill="black"/>
<path d="M94.2852 41.0048L94.211 40.9603C94.2258 40.9157 94.2258 40.8712 94.211 40.8266C94.0477 40.5297 93.053 40.2625 92.2067 40.1289C91.405 40.0101 87.9606 39.7429 86.3721 39.7874V39.6983C87.9755 39.6538 91.4347 39.921 92.2364 40.0398C92.9194 40.1437 94.1071 40.4109 94.3149 40.7821C94.3149 40.8563 94.3149 40.9306 94.2852 41.0048Z" fill="black"/>
<path d="M87.0694 39.5493L86.5498 39.0297L87.0694 38.5249L87.5891 39.0445L87.0694 39.5493ZM86.6834 39.0297L87.0694 39.4305L87.4703 39.0445L87.0694 38.6585L86.6834 39.0297Z" fill="black"/>
<path d="M88.1533 30.3003C87.5892 29.5134 86.0154 29.261 85.6888 30.33C85.5404 30.805 85.3177 31.295 84.9465 31.5177C84.5753 31.7404 84.6644 32.4085 84.8277 32.7054C85.2137 33.418 84.8723 34.1158 85.6443 34.576C85.6443 34.0119 86.4757 33.418 87.2031 33.2696C87.9158 33.1211 88.9996 32.4827 89.148 31.7552C89.2817 31.0277 89.534 30.4339 88.1533 30.3003Z" fill="#1E9A1C"/>
<path d="M85.6739 34.65L85.5996 34.6055C85.1097 34.3085 85.0652 33.9225 84.9909 33.5068C84.9464 33.2544 84.9167 32.9723 84.7682 32.7051C84.6049 32.4082 84.501 31.6955 84.9167 31.458C85.2136 31.2798 85.4512 30.9087 85.6442 30.3C85.7778 29.8991 86.0747 29.6467 86.5053 29.5725C87.114 29.4834 87.8266 29.7655 88.1829 30.2406C88.7174 30.3 89.044 30.4188 89.1925 30.6415C89.3706 30.8938 89.2964 31.2353 89.2222 31.5916C89.2073 31.651 89.1925 31.6955 89.1925 31.7549C89.0291 32.5121 87.9157 33.1505 87.203 33.299C86.5052 33.4474 85.6887 34.0264 85.6887 34.5609V34.65H85.6739ZM86.7428 29.6616C86.6686 29.6616 86.5943 29.6616 86.5201 29.6764C86.1192 29.7358 85.8372 29.9734 85.7332 30.3445C85.5254 30.9829 85.2878 31.3689 84.9761 31.5619C84.6346 31.7698 84.7088 32.4082 84.8721 32.6903C85.0355 32.9723 85.0651 33.2544 85.1097 33.5217C85.1691 33.9077 85.2136 34.2343 85.6145 34.5164C85.6887 33.9522 86.4904 33.388 87.203 33.2396C87.9008 33.0911 88.9698 32.4676 89.1182 31.7698C89.1331 31.7104 89.1479 31.6659 89.1479 31.6065C89.2222 31.2502 89.2964 30.9532 89.1331 30.7305C88.9995 30.5375 88.6728 30.4188 88.1681 30.3594H88.1532L88.1384 30.3445C87.8266 29.914 87.2624 29.6616 86.7428 29.6616Z" fill="black"/>
<path d="M84.5911 37.4121H84.7841V38.7631C84.8286 38.778 84.8732 38.7928 84.9028 38.8225L86.0609 38.1544L86.1648 38.3326L84.9919 39.0155C84.9919 39.0601 85.0068 39.1046 84.9919 39.1491L86.15 39.8172L86.046 39.9954L84.8732 39.3273C84.8435 39.357 84.7989 39.3867 84.7544 39.4015V40.7377H84.5614V39.3718C84.5168 39.357 84.4723 39.3421 84.4426 39.3125L83.2846 39.9805L83.1807 39.8024L84.3535 39.1194C84.3535 39.0749 84.3387 39.0304 84.3535 38.9858L83.1955 38.3177L83.2994 38.1396L84.4723 38.8077C84.502 38.778 84.5465 38.7483 84.5911 38.7334V37.4121Z" fill="#CCCCCC"/>
<path d="M84.828 40.7521H84.546V39.3862C84.5163 39.3714 84.5014 39.3565 84.4717 39.3417L83.2989 40.0246L83.1504 39.7722L84.3381 39.0893C84.3381 39.0596 84.3381 39.0299 84.3381 39.0002L83.1652 38.3173L83.3137 38.0649L84.4866 38.7478C84.5014 38.733 84.5311 38.7181 84.5608 38.7033V37.3374H84.8429V38.7033C84.8726 38.7181 84.8874 38.733 84.9171 38.7478L86.09 38.0649L86.2384 38.3173L85.0507 39.0002C85.0507 39.0299 85.0507 39.0596 85.0507 39.0893L86.2236 39.7722L86.0751 40.0246L84.8874 39.3565C84.8726 39.3714 84.8429 39.3862 84.8132 39.4011V40.7521H84.828ZM84.635 40.663H84.739V39.3268L84.7687 39.312C84.7983 39.2971 84.828 39.2823 84.8577 39.2526L84.8874 39.2229L86.0603 39.8761L86.1197 39.7871L84.9617 39.119V39.0893C84.9617 39.0596 84.9617 39.0151 84.9617 38.9705V38.9408L86.1197 38.2727L86.0603 38.1836L84.9171 38.8517L84.8874 38.8369C84.8429 38.8072 84.8132 38.7924 84.7835 38.7775L84.7538 38.7627V37.4265H84.6499V38.7627L84.6202 38.7775C84.5905 38.7924 84.5608 38.8072 84.5311 38.8369L84.5014 38.8666L83.3434 38.1985L83.284 38.2876L84.442 38.9557V38.9854C84.442 39.015 84.442 39.0596 84.442 39.1041V39.1338L83.284 39.8019L83.3434 39.891L84.4866 39.2229L84.5163 39.2377C84.5608 39.2674 84.5905 39.2823 84.6202 39.2971L84.6499 39.312V40.663H84.635Z" fill="black"/>
<path d="M86.3562 40.7073C85.9405 41.1378 85.3466 41.3902 84.6934 41.3902C83.4018 41.3902 82.3477 40.351 82.3477 39.0445C82.3477 37.738 83.3869 36.6987 84.6934 36.6987C85.4506 36.6987 86.1187 37.055 86.5492 37.6192C86.4304 37.9161 86.282 38.5694 86.282 38.8663C86.1929 38.0646 85.5248 37.4262 84.6934 37.4262C83.8026 37.4262 83.09 38.1388 83.09 39.0296C83.09 39.9204 83.8026 40.633 84.6934 40.633C85.4357 40.633 86.0741 40.1134 86.2523 39.4305C86.2523 39.7571 86.2671 40.4697 86.3562 40.7073Z" fill="#CCCCCC"/>
<path d="M84.694 41.4349C83.3727 41.4349 82.3037 40.3659 82.3037 39.0446C82.3037 37.7232 83.3727 36.6543 84.694 36.6543C85.4363 36.6543 86.1341 36.9958 86.5943 37.5896L86.6092 37.6045L86.5943 37.6342C86.4756 37.9162 86.3419 38.5843 86.3271 38.8664L86.2974 39.5197V39.4751C86.2974 39.772 86.3123 40.4698 86.4013 40.6925L86.4162 40.7222L86.4013 40.7371C85.9411 41.1973 85.3324 41.4349 84.694 41.4349ZM84.694 36.7582C83.432 36.7582 82.3928 37.7826 82.3928 39.0594C82.3928 40.3214 83.4172 41.3606 84.694 41.3606C85.3027 41.3606 85.8817 41.1231 86.3122 40.7074C86.2529 40.4995 86.2232 40.0393 86.2232 39.6978C85.9559 40.2917 85.3621 40.6925 84.694 40.6925C83.7884 40.6925 83.046 39.9502 83.046 39.0446C83.046 38.1389 83.7884 37.3966 84.694 37.3966C85.4363 37.3966 86.0747 37.8866 86.2677 38.5843C86.3123 38.2726 86.4162 37.8569 86.5053 37.6342C86.0599 37.0848 85.3918 36.7582 84.694 36.7582ZM84.6791 37.5005C83.818 37.5005 83.1203 38.1983 83.1203 39.0594C83.1203 39.9205 83.818 40.6183 84.6791 40.6183C85.3769 40.6183 86.0153 40.1284 86.1935 39.4454L86.2529 39.2227L86.2232 38.911C86.1489 38.0944 85.4808 37.5005 84.6791 37.5005Z" fill="black"/>
<path d="M83.6998 42.935C83.5513 42.7569 83.2841 42.2966 83.3138 41.9551C83.5365 41.9255 83.9522 42.0739 84.1452 42.2818C84.1155 42.0294 84.0264 41.4949 84.071 41.2425C84.3382 41.3464 84.9024 41.6582 85.1102 42.0294C85.0657 41.777 84.9618 41.1386 85.0657 40.7526C85.3626 40.9307 85.8525 41.391 85.9565 41.7176C85.9862 41.2277 86.1495 40.4111 86.2979 40.2033C86.5206 40.426 86.8621 40.619 87.0848 40.9159C87.1293 40.515 87.3372 40.0548 87.6193 39.936C87.842 40.1884 88.1834 40.7526 88.2577 41.391C88.4804 41.3168 88.7773 40.9456 88.8961 40.7526C89.0148 40.9456 89.1485 41.2871 89.0742 41.7176C89.3415 41.4652 89.6681 41.1238 89.7423 40.8268C89.9353 40.9753 90.3065 41.3464 90.4104 41.7473C90.3659 41.4207 90.3807 40.8565 90.2916 40.5299C90.6628 40.7229 90.9597 41.0644 91.034 41.4504C91.1379 41.1089 91.3606 40.4854 91.5536 40.3369C91.7466 40.7377 91.9544 41.198 91.9247 41.5988C92.0435 41.3464 92.2514 40.9159 92.4444 40.812C92.6225 41.0792 92.5928 41.6731 92.5483 41.9997C92.7264 41.7473 93.0382 41.4652 93.2312 41.3613C93.2609 41.5098 93.2758 41.8067 93.2312 42.0294C93.4539 41.9106 93.8251 41.2425 93.9439 40.9011C94.2853 41.0792 94.6268 41.6731 94.6565 41.97C94.9089 41.8661 95.3988 41.4355 95.5473 41.1831C95.5473 41.3613 95.6215 41.8215 95.5176 42.1927C95.666 42.0442 95.8145 41.7473 95.8887 41.6285C95.9927 41.8809 95.9184 42.4599 95.8145 42.7866C96.0372 42.5935 96.3638 42.4599 96.5568 42.4599C96.5865 42.8756 96.2896 43.618 96.0075 44.1673C93.6618 43.4546 88.6882 43.2023 83.6998 42.935Z" fill="#1E9A1C"/>
<path d="M96.0368 44.1668L96.0071 44.1519C93.7356 43.5136 89.1481 43.276 84.2784 43.0088L83.6697 42.9791L83.6549 42.9642C83.5213 42.8009 83.2243 42.3258 83.254 41.9398V41.9101H83.2837C83.4916 41.8804 83.8479 42.0141 84.0706 42.1625C84.0706 42.118 84.0557 42.0883 84.0557 42.0438C84.0112 41.7617 83.9667 41.4202 84.0112 41.2272L84.026 41.1827L84.0706 41.1975C84.2933 41.2717 84.7535 41.5241 85.0208 41.8359C84.9762 41.539 84.9168 41.049 85.0059 40.7373L85.0208 40.6779L85.0653 40.7076C85.3177 40.856 85.7185 41.2124 85.8967 41.539C85.9412 41.049 86.0897 40.3661 86.2382 40.1731L86.2679 40.1286L86.2975 40.1583C86.3718 40.2325 86.4757 40.3216 86.5796 40.3958C86.7281 40.5146 86.8914 40.6482 87.025 40.7967C87.0993 40.4106 87.2923 39.9949 87.5743 39.8762L87.604 39.8613L87.6189 39.891C87.8267 40.1137 88.1682 40.663 88.2573 41.3163C88.4503 41.2124 88.7027 40.9154 88.8214 40.7076L88.866 40.6482L88.9105 40.7076C88.9847 40.8263 89.1481 41.1381 89.1035 41.5687C89.3411 41.346 89.6083 41.049 89.6677 40.7818L89.6825 40.7224L89.7419 40.767C89.9052 40.8857 90.1576 41.1233 90.3061 41.4202C90.3061 41.3757 90.3061 41.3311 90.3061 41.2717C90.2912 41.0045 90.2764 40.7076 90.217 40.5146L90.1873 40.4106L90.2764 40.4552C90.6179 40.6333 90.8851 40.9303 91.0039 41.2569C91.0929 40.9748 91.2859 40.4106 91.4938 40.2622L91.5383 40.2325L91.568 40.277C91.7313 40.6185 91.9095 41.0193 91.9392 41.3608C92.058 41.1084 92.2213 40.8115 92.3994 40.7224L92.4291 40.7076L92.444 40.7373C92.5924 40.9897 92.6073 41.4647 92.5776 41.7914C92.7557 41.5835 93.0081 41.3608 93.1863 41.2717L93.2457 41.242L93.2605 41.3014C93.2754 41.4202 93.3051 41.6577 93.2754 41.8656C93.4832 41.6577 93.7801 41.1233 93.8841 40.8263L93.8989 40.7818L93.9435 40.8115C94.2849 40.9897 94.6116 41.539 94.6709 41.8508C94.9233 41.7171 95.3539 41.3311 95.4875 41.1084L95.5766 40.9748V41.1381C95.5766 41.1827 95.5766 41.242 95.5914 41.3014C95.6063 41.4796 95.6211 41.732 95.5914 41.9695C95.6656 41.8508 95.7399 41.7171 95.7993 41.6281C95.8141 41.5984 95.829 41.5687 95.8438 41.5538L95.8883 41.4796L95.918 41.5687C96.0071 41.8062 95.9626 42.2961 95.8735 42.6228C96.0962 42.4595 96.3634 42.3704 96.5416 42.3704H96.5861V42.4149C96.6158 42.9345 96.1704 43.8699 96.0368 44.1371V44.1668ZM83.7291 42.89L84.2933 42.9197C89.1332 43.1869 93.7059 43.4393 96.0071 44.0629C96.1556 43.7659 96.5416 42.9494 96.5267 42.4595C96.3486 42.4743 96.0517 42.5931 95.8587 42.7712L95.7399 42.8752L95.7844 42.7267C95.8735 42.4595 95.9329 41.9695 95.8883 41.7023C95.8141 41.8508 95.6953 42.0586 95.5617 42.1922L95.4429 42.311L95.4875 42.1477C95.5617 41.8804 95.532 41.539 95.5172 41.3311C95.5172 41.3163 95.5172 41.3014 95.5172 41.2866C95.3093 41.5538 94.9085 41.8953 94.6858 41.9844L94.6264 41.9992V41.9398C94.5967 41.6726 94.2998 41.1233 93.9732 40.9303C93.8395 41.2717 93.4832 41.9101 93.2605 42.0438L93.1714 42.0883L93.1863 41.9844C93.2308 41.7914 93.216 41.5538 93.2011 41.4054C93.0081 41.5241 92.7261 41.7914 92.5776 41.9992L92.4737 42.1625L92.5034 41.9695C92.5479 41.7023 92.5776 41.1381 92.4291 40.856C92.2807 40.9748 92.1174 41.2866 92.0134 41.5093L91.865 41.8062L91.8798 41.5835C91.9095 41.2272 91.7313 40.7818 91.5383 40.3958C91.3602 40.5888 91.1672 41.1381 91.0781 41.4499L91.0336 41.6281L91.0039 41.4499C90.9445 41.1381 90.7069 40.8263 90.3803 40.6185C90.4249 40.8115 90.4397 41.049 90.4397 41.2866C90.4546 41.4499 90.4545 41.6132 90.4694 41.732L90.6179 42.7415L90.3803 41.7468C90.2912 41.3905 89.9795 41.0639 89.7865 40.9006C89.6825 41.1975 89.3708 41.5241 89.1332 41.7468L89.0293 41.8359L89.059 41.7023C89.1332 41.3014 89.0144 40.9897 88.9254 40.8263C88.7917 41.0045 88.5245 41.346 88.3018 41.4202L88.2424 41.435V41.3757C88.1682 40.7521 87.8416 40.2176 87.6337 39.9653C87.3813 40.0989 87.1883 40.5443 87.1438 40.9006L87.1289 41.0194L87.0696 40.9303C86.9359 40.7521 86.7578 40.6036 86.5796 40.47C86.4906 40.3958 86.4015 40.3216 86.3272 40.2622C86.1936 40.4997 86.0452 41.2272 86.0155 41.7023L86.0006 41.9547L85.9264 41.7171C85.8373 41.4351 85.3919 41.0045 85.1098 40.8115C85.0356 41.2124 85.1395 41.8359 85.1692 42.0141L85.2286 42.2961L85.095 42.0438C84.9168 41.732 84.4417 41.4202 84.13 41.3014C84.1151 41.4944 84.1448 41.8062 84.1745 42.0438C84.1894 42.1328 84.2042 42.2219 84.2042 42.2813L84.219 42.4001L84.13 42.311C83.9518 42.1328 83.5806 41.9992 83.3728 41.9992C83.3431 42.311 83.5806 42.7118 83.7291 42.89Z" fill="black"/>
<path d="M91.9682 29.8546C91.9533 29.6764 92.3542 29.2607 93.0965 29.2607C93.9724 29.2607 94.7741 29.914 95.4719 29.8546C96.1697 29.8101 95.8282 30.0328 95.6798 30.0921C95.5313 30.1515 95.4422 30.2406 95.5016 30.3594C95.561 30.4782 95.4719 30.5375 95.175 30.4485C94.5514 30.2258 93.9279 30.5375 93.1113 30.3594C92.3987 30.2109 91.983 30.1367 91.9682 29.8546Z" fill="#FDD406"/>
<path d="M84.4714 44.4189C83.7291 45.3097 82.9868 45.1612 82.8383 44.5971C82.6899 44.0329 83.2392 43.7657 83.0313 43.2609C82.8383 42.771 83.3579 42.5483 83.5955 42.771C83.8479 42.9937 84.6347 42.281 84.9762 43.0234C85.3177 43.7657 85.5998 44.2853 85.3919 44.5822C85.2138 44.8643 84.6199 44.7158 84.4714 44.4189Z" fill="#FDD406"/>
<path d="M83.4323 45.1022C83.3729 45.1022 83.3283 45.1022 83.269 45.0873C83.0314 45.0279 82.8533 44.8646 82.7939 44.6122C82.7197 44.3153 82.8236 44.0926 82.9127 43.8996C83.0017 43.6917 83.0908 43.5136 82.9869 43.2909C82.8978 43.0534 82.9423 42.8455 83.1205 42.7267C83.2838 42.608 83.4917 42.6228 83.6401 42.7416C83.7144 42.801 83.8628 42.7564 84.041 42.7119C84.3528 42.6228 84.7982 42.504 85.0209 43.0088L85.1099 43.187C85.4217 43.8402 85.6296 44.3153 85.4365 44.5974C85.3475 44.731 85.1842 44.7904 84.9912 44.7755C84.7685 44.7607 84.5458 44.6568 84.4418 44.4935C84.1301 44.8795 83.7589 45.1022 83.4323 45.1022ZM83.3729 42.7267C83.2987 42.7267 83.2393 42.7416 83.1799 42.7861C83.0463 42.8752 83.0017 43.0534 83.0908 43.2464C83.1947 43.5136 83.1057 43.7214 83.0017 43.9293C82.9127 44.1223 82.8236 44.3153 82.883 44.5825C82.9423 44.8052 83.0908 44.9537 83.2838 44.9982C83.6253 45.0725 84.0558 44.8498 84.427 44.3895L84.4715 44.3301L84.5012 44.3895C84.5755 44.538 84.7833 44.6568 85.006 44.6716C85.0951 44.6716 85.2732 44.6716 85.3623 44.538C85.5256 44.2856 85.3178 43.8402 85.0209 43.2167L84.9318 43.0237C84.7239 42.5931 84.3676 42.697 84.0558 42.7861C83.848 42.8455 83.6698 42.89 83.5659 42.801C83.5214 42.7416 83.4471 42.7267 83.3729 42.7267Z" fill="black"/>
<path d="M87.6484 43.0831C87.5148 42.7565 88.272 42.1329 88.6728 42.5783C89.0737 43.0237 89.6824 42.1032 90.0387 42.801C90.3802 43.5136 90.4989 43.87 90.6623 44.2708C90.8404 44.6717 89.7269 44.8795 89.3855 44.538C89.43 44.7756 88.4204 44.9537 88.1532 44.2857C88.0047 43.9293 87.8414 43.5136 87.6484 43.0831Z" fill="#FDD406"/>
<path d="M88.9098 44.7904C88.598 44.7904 88.2565 44.6568 88.1081 44.3005C88.0487 44.1669 87.9893 44.0184 87.9299 43.87C87.826 43.6176 87.722 43.3652 87.6033 43.0979C87.5142 42.9049 87.7072 42.6377 87.9299 42.5041C88.1526 42.3556 88.4792 42.2962 88.7019 42.5486C88.8652 42.7268 89.0731 42.6525 89.2958 42.5783C89.563 42.4744 89.8748 42.3705 90.0678 42.7862C90.2905 43.2612 90.4241 43.573 90.528 43.8551C90.5874 43.9887 90.6319 44.1223 90.6913 44.256C90.7507 44.3747 90.7062 44.4935 90.5577 44.5974C90.2756 44.7904 89.6818 44.8201 89.3848 44.6271C89.3551 44.6865 89.2809 44.731 89.177 44.7607C89.1176 44.7756 89.0137 44.7904 88.9098 44.7904ZM87.6924 43.0682C87.8111 43.3355 87.915 43.5879 88.019 43.8403C88.0784 43.9887 88.1377 44.1372 88.1971 44.2708C88.3753 44.7014 88.8801 44.7607 89.177 44.6717C89.2809 44.642 89.3552 44.5826 89.3403 44.5529L89.3106 44.4044L89.4145 44.5083C89.6372 44.731 90.2608 44.7014 90.528 44.5232C90.6319 44.449 90.6616 44.3747 90.6319 44.3005C90.5726 44.1669 90.528 44.0333 90.4686 43.8996C90.3647 43.6176 90.2311 43.3058 90.0084 42.8455C89.8451 42.5041 89.6075 42.5932 89.3403 42.6822C89.1176 42.7713 88.8504 42.8604 88.6574 42.6377C88.4644 42.4298 88.1971 42.4892 88.0041 42.608C87.7666 42.7119 87.633 42.9346 87.6924 43.0682Z" fill="black"/>
<path d="M92.7849 43.4977C92.6068 43.1562 93.4976 42.6663 93.9726 43.2899C94.0914 43.0226 94.9822 42.9781 95.0416 43.7353C95.101 44.4924 95.1307 44.9378 95.1604 45.2347C95.1901 45.5317 94.6259 45.7989 94.2102 45.0566C93.4827 45.2051 93.1412 44.7894 93.067 44.3737C92.9779 43.9134 92.8889 43.7056 92.7849 43.4977Z" fill="#FDD406"/>
<path d="M94.8346 45.5765C94.6416 45.5765 94.404 45.4577 94.1962 45.1014C93.8844 45.1608 93.6172 45.1162 93.4093 44.9826C93.2163 44.849 93.0827 44.6411 93.0233 44.3739C92.9342 43.9285 92.8451 43.7207 92.7412 43.5277C92.667 43.3792 92.7412 43.201 92.9342 43.0823C93.2311 42.8893 93.6765 42.8893 93.9586 43.2307C94.0625 43.112 94.3001 43.0526 94.5228 43.0971C94.6712 43.1268 95.0424 43.2456 95.0869 43.7504C95.1166 44.1957 95.1463 44.5372 95.1612 44.7896C95.176 44.9678 95.1909 45.1162 95.1909 45.235C95.2057 45.3835 95.1018 45.5171 94.9385 45.5616C94.9088 45.5616 94.8791 45.5765 94.8346 45.5765ZM94.2407 44.9975L94.2555 45.0271C94.4782 45.4428 94.7455 45.5319 94.9236 45.4725C95.0424 45.4428 95.1315 45.3389 95.1166 45.235C95.1018 45.1162 95.1018 44.9678 95.0869 44.7896C95.0721 44.5224 95.0424 44.1957 95.0127 43.7504C94.983 43.3198 94.6564 43.2159 94.5228 43.1862C94.2852 43.1416 94.0625 43.2159 94.018 43.3198L93.9883 43.3792L93.9438 43.3198C93.6617 42.9338 93.2163 43.008 92.9936 43.1416C92.8748 43.2159 92.7561 43.3495 92.8303 43.4683C92.9194 43.6613 93.0233 43.884 93.1124 44.3442C93.1569 44.5818 93.2757 44.7748 93.4538 44.8935C93.6468 45.0271 93.8992 45.0568 94.211 44.9975H94.2407Z" fill="black"/>
<path d="M84.9472 42.9936C84.8285 42.7412 85.5708 42.2513 86.0756 42.6225C86.5803 42.9936 87.2781 42.2959 87.5899 42.9639C88.1986 44.315 88.2283 44.404 88.0501 44.6713C87.872 44.9385 87.0703 44.8346 86.8773 44.4783C86.8476 44.7307 86.1646 44.6861 85.8083 44.4931C85.3926 44.2704 85.1106 43.439 84.9472 42.9936Z" fill="#1E9A1C"/>
<path d="M87.6493 44.8646C87.6345 44.8646 87.6048 44.8646 87.5899 44.8646C87.3376 44.8497 87.0406 44.7606 86.8922 44.5676C86.8773 44.5973 86.8476 44.6122 86.8031 44.6419C86.5804 44.7458 86.0905 44.7013 85.7935 44.5379C85.3927 44.3153 85.1106 43.5284 84.9473 43.0681L84.9324 43.0236C84.8879 42.9197 84.9473 42.7861 85.0958 42.6673C85.3184 42.4891 85.7638 42.3258 86.135 42.6079C86.3429 42.7564 86.5952 42.7118 86.8328 42.6821C87.1446 42.6228 87.4712 42.5782 87.6493 42.9791C88.258 44.3301 88.3026 44.4489 88.1096 44.731C88.0057 44.82 87.8572 44.8646 87.6493 44.8646ZM86.8476 44.3449L86.907 44.4637C87.0258 44.6716 87.3376 44.7755 87.5899 44.7755C87.7978 44.7903 87.9463 44.731 88.0205 44.6419C88.1838 44.4043 88.169 44.3449 87.5603 42.9791C87.4118 42.6376 87.1446 42.6821 86.8328 42.7415C86.5804 42.7861 86.2983 42.8306 86.0608 42.6524C85.7341 42.4149 85.3184 42.5634 85.1254 42.7118C85.0215 42.8009 84.9621 42.9048 84.9918 42.9642L85.0067 43.0088C85.17 43.469 85.4372 44.2262 85.8232 44.434C86.0905 44.5825 86.5655 44.6419 86.7585 44.5379C86.8031 44.5083 86.8328 44.4934 86.8328 44.4489L86.8476 44.3449Z" fill="black"/>
<path d="M90.1425 43.0533C89.9643 42.6673 91.1223 42.3406 91.642 43.0087C91.9092 42.7712 92.4734 42.7563 92.7851 43.4838C93.1118 44.2113 93.1563 44.6121 92.9187 44.8051C92.7554 44.9388 92.1467 45.0427 91.9537 44.7012C91.6865 44.8794 90.8403 44.7309 90.6621 44.2558C90.4839 43.7956 90.3206 43.3947 90.1425 43.0533Z" fill="#1E9A1C"/>
<path d="M92.4581 44.9835C92.3987 44.9835 92.3393 44.9835 92.2948 44.9686C92.1463 44.9389 92.0275 44.8795 91.9533 44.7756C91.79 44.8498 91.4931 44.8498 91.211 44.7608C91.0477 44.7014 90.7359 44.5678 90.632 44.2857L90.6023 44.2115C90.4241 43.7661 90.2757 43.3949 90.1124 43.0831C90.053 42.9495 90.1123 42.8159 90.2757 42.7268C90.6023 42.5338 91.2704 42.5041 91.6564 42.9644C91.8048 42.8604 91.983 42.8159 92.176 42.8456C92.4432 42.905 92.6808 43.1277 92.8441 43.484C93.1856 44.2411 93.2153 44.6568 92.9629 44.8498C92.8589 44.9241 92.6511 44.9835 92.4581 44.9835ZM91.983 44.642L92.0127 44.6865C92.0721 44.7905 92.176 44.8498 92.3096 44.8795C92.5472 44.9241 92.8144 44.8498 92.9035 44.7756C93.1113 44.6123 93.0668 44.2263 92.755 43.5137C92.5769 43.098 92.3245 42.9643 92.1612 42.9198C91.983 42.8753 91.8048 42.9347 91.6861 43.0386L91.6415 43.0831L91.6118 43.0386C91.2852 42.608 90.6468 42.608 90.3202 42.7862C90.246 42.8307 90.142 42.9198 90.1866 43.0386C90.3499 43.3504 90.5132 43.7364 90.6765 44.1818L90.7062 44.256C90.8101 44.5084 91.0774 44.6272 91.2258 44.6717C91.4931 44.7608 91.79 44.7608 91.9236 44.6717L91.983 44.642Z" fill="black"/>
<path d="M95.0567 43.7953C95.027 43.4539 95.6654 43.2906 95.8881 43.7953C96.1256 44.3001 96.8679 43.8399 96.9422 44.6861C96.957 44.8494 96.8531 45.4581 96.6155 45.7551C96.378 46.052 95.2348 45.7551 95.1606 45.1315C95.1012 44.4931 95.0715 44.1368 95.0567 43.7953Z" fill="#1E9A1C"/>
<path d="M96.2888 45.9186C96.1849 45.9186 96.0661 45.9038 95.9325 45.8592C95.591 45.7701 95.1753 45.5177 95.1308 45.1317C95.0565 44.4933 95.0268 44.137 95.012 43.7956C94.9971 43.6322 95.1159 43.4838 95.3089 43.4392C95.5168 43.3799 95.7989 43.4689 95.9325 43.7659C96.0215 43.9589 96.1997 44.0034 96.3927 44.0331C96.6599 44.0925 96.9569 44.1519 96.9866 44.6715C97.0014 44.82 96.8975 45.4732 96.6599 45.7701C96.6006 45.8741 96.4669 45.9186 96.2888 45.9186ZM95.4425 43.5135C95.4128 43.5135 95.3683 43.5135 95.3386 43.5283C95.2198 43.558 95.1011 43.6471 95.1159 43.7956C95.1308 44.137 95.1456 44.4933 95.2347 45.1317C95.2792 45.4732 95.6504 45.6959 95.9622 45.785C96.2591 45.8741 96.5115 45.8444 96.6006 45.7404C96.8233 45.4584 96.9272 44.8348 96.9123 44.7012C96.8826 44.2558 96.6451 44.1964 96.3779 44.1519C96.17 44.1073 95.9622 44.0628 95.8582 43.8253C95.7692 43.6026 95.591 43.5135 95.4425 43.5135Z" fill="black"/>
<path d="M84.4279 44.449L84.3685 44.3748C84.2052 44.1521 83.9974 43.87 83.7747 43.8552C83.6559 43.8552 83.5223 43.9443 83.3887 44.1224L83.3145 44.063C83.4629 43.8552 83.6114 43.7661 83.7747 43.7661C84.0419 43.7661 84.2646 44.0779 84.4428 44.3154L84.5022 44.3897L84.4279 44.449Z" fill="black"/>
<path d="M86.8479 44.5078C86.6846 44.2999 86.4768 43.9436 86.3877 43.6615L86.4768 43.6318C86.551 43.8842 86.7589 44.2257 86.9073 44.4484L86.8479 44.5078Z" fill="black"/>
<path d="M89.3573 44.5672C89.1792 44.4336 88.9119 44.1812 88.7783 43.9288L88.8526 43.8843C88.9862 44.1367 89.2386 44.3742 89.4167 44.493L89.3573 44.5672Z" fill="black"/>
<path d="M90.6489 44.4782C90.3817 44.4336 90.0699 44.0179 89.9808 43.8992C89.862 43.721 89.5651 43.3201 89.1494 43.2756L89.1643 43.1865C89.6245 43.2311 89.9363 43.6765 90.055 43.8398C90.2184 44.0625 90.4856 44.3445 90.6638 44.3742L90.6489 44.4782Z" fill="black"/>
<path d="M91.9255 44.7453C91.8958 44.7008 91.8809 44.6711 91.8512 44.6266C91.7325 44.4336 91.6137 44.2702 91.584 44.1218L91.6731 44.1069C91.7028 44.2406 91.8067 44.4039 91.9255 44.582C91.9552 44.6266 91.97 44.6563 91.9997 44.7008L91.9255 44.7453Z" fill="black"/>
<path d="M91.9401 43.6172C91.8659 43.4242 91.7619 43.2609 91.5986 43.0382L91.6729 42.9937C91.8213 43.2163 91.9401 43.3797 92.0292 43.5875L91.9401 43.6172Z" fill="black"/>
<path d="M94.1671 45.057C93.9593 44.671 93.6623 44.3295 93.4248 44.2256L93.4545 44.1514C93.7069 44.2701 94.0335 44.6116 94.2414 45.0273L94.1671 45.057Z" fill="black"/>
<path d="M95.1027 44.9681C95.0879 44.7603 94.8949 44.6266 94.6722 44.4782C94.3901 44.3 94.0783 44.0922 94.0635 43.6616H94.1526C94.1674 44.0328 94.4495 44.2258 94.7167 44.4039C94.9543 44.5524 95.177 44.7009 95.1918 44.9533L95.1027 44.9681Z" fill="black"/>
<path d="M96.0088 44.4639C95.994 44.1521 95.9643 43.974 95.8604 43.8107L95.9346 43.7661C96.0385 43.9443 96.083 44.1373 96.083 44.4639H96.0088Z" fill="black"/>
</g>
<defs>
<clipPath id="clip0_354_586">
<rect width="120" height="120" fill="white"/>
</clipPath>
</defs>
</svg>
