<svg width="120" height="120" viewBox="0 0 120 120" fill="none" xmlns="http://www.w3.org/2000/svg">
<g clip-path="url(#clip0_909_103110)">
<circle cx="60" cy="60" r="60" fill="#1E9A1C"/>
<path d="M116.586 80C118.797 73.7444 120 67.0127 120 60C120 26.8629 93.1371 0 60 0C26.8629 0 0 26.8629 0 60C0 67.0127 1.20308 73.7444 3.41411 80H116.586Z" fill="white"/>
<path d="M3.41412 40C11.6509 16.6962 33.8756 0 60 0C86.1244 0 108.349 16.6962 116.586 40H3.41412Z" fill="black"/>
<path d="M14.1768 98.7348C5.33259 88.2827 0 74.7641 0 60C0 45.2359 5.33259 31.7173 14.1768 21.2651L40 60L14.1768 98.7348Z" fill="#D91C16"/>
</g>
<defs>
<clipPath id="clip0_909_103110">
<rect width="120" height="120" fill="white"/>
</clipPath>
</defs>
</svg>
