<svg width="120" height="120" viewBox="0 0 120 120" fill="none" xmlns="http://www.w3.org/2000/svg">
<g clip-path="url(#clip0_307_90144)">
<circle cx="60.0002" cy="60" r="60" fill="#005801"/>
<path d="M102.427 17.5736L17.5738 102.426C6.71591 91.5685 0.000183105 76.5685 0.000183105 60C0.000183105 26.8629 26.8631 0 60.0002 0C76.5687 0 91.5687 6.71573 102.427 17.5736Z" fill="#0F3296"/>
<path d="M105.338 20.6991L20.6993 105.338C18.5471 103.471 16.5292 101.453 14.6619 99.3008L99.301 14.6617C101.453 16.529 103.471 18.5469 105.338 20.6991Z" fill="#FDD406"/>
<path d="M15.8255 19.3966C17.9746 17.0596 20.3069 14.8936 22.7994 12.9214L24.7379 12.9214L19.4421 16.769L21.4649 22.9946L16.1691 19.147L15.8255 19.3966Z" fill="white"/>
<path d="M48.4685 16.769L43.1727 12.9214L49.7187 12.9214L51.7415 6.6958L53.7643 12.9214L60.3103 12.9214L55.0145 16.769L57.0373 22.9946L51.7415 19.147L46.4457 22.9946L48.4685 16.769Z" fill="white"/>
<path d="M30.6823 32.0136L25.3865 28.166L31.9325 28.166L33.9553 21.9404L35.9781 28.166L42.5241 28.166L37.2283 32.0136L39.2511 38.2392L33.9553 34.3916L28.6595 38.2392L30.6823 32.0136Z" fill="white"/>
<path d="M43.1727 43.4106L48.4685 47.2583L46.4457 53.4838L51.7415 49.6362L57.0373 53.4838L55.0145 47.2583L60.3103 43.4106L53.7643 43.4106L51.7415 37.185L49.7187 43.4106L43.1727 43.4106Z" fill="white"/>
<path d="M12.8961 47.2583L7.60028 43.4106L14.1462 43.4106L16.1691 37.185L18.1919 43.4106L24.7379 43.4106L19.4421 47.2583L21.4649 53.4838L16.1691 49.6362L10.8733 53.4838L12.8961 47.2583Z" fill="white"/>
</g>
<defs>
<clipPath id="clip0_307_90144">
<rect x="0.000183105" width="120" height="120" fill="white"/>
</clipPath>
</defs>
</svg>
