<svg width="120" height="120" viewBox="0 0 120 120" fill="none" xmlns="http://www.w3.org/2000/svg">
<g clip-path="url(#clip0_307_90167)">
<circle cx="60" cy="60" r="60" fill="white"/>
<path d="M116.586 80C108.349 103.304 86.1243 120 59.9999 120C33.8756 120 11.6508 103.304 3.41406 80H116.586Z" fill="#D91C16"/>
<path d="M116.586 80C118.797 73.7444 120 67.0127 120 60C120 52.9873 118.797 46.2556 116.586 40H3.41411C1.20308 46.2556 0 52.9873 0 60C0 67.0127 1.20308 73.7444 3.41411 80H116.586Z" fill="#0F3296"/>
<g clip-path="url(#clip1_307_90167)">
<path d="M17.5967 18.7558C22.8314 16.4452 28.489 15.252 34.2094 15.252C39.9297 15.252 45.5874 16.4452 50.8221 18.7558C52.5574 43.3373 47.0198 57.2695 34.2094 60.5523C21.399 57.2695 15.8614 43.3373 17.5967 18.7558Z" fill="#0F3296"/>
<path d="M34.2093 23.1733L34.712 24.3155L35.9508 24.1806L35.2148 25.1878L35.9508 26.195L34.712 26.06L34.2093 27.2022L33.7066 26.06L32.4678 26.195L33.2038 25.1878L32.4678 24.1806L33.7066 24.3155" fill="#FDD406"/>
<path d="M29.5169 16.9062L30.0196 18.0484L31.2584 17.9135L30.5224 18.9207L31.2584 19.9279L30.0196 19.793L29.5169 20.9351L29.0142 19.793L27.7754 19.9279L28.5114 18.9207L27.7754 17.9135L29.0142 18.0484" fill="#FDD406"/>
<path d="M38.9007 16.9062L39.4034 18.0484L40.6422 17.9135L39.9062 18.9207L40.6422 19.9279L39.4034 19.793L38.9007 20.9351L38.398 19.793L37.1592 19.9279L37.8952 18.9207L37.1592 17.9135L38.398 18.0484" fill="#FDD406"/>
<path d="M34.209 29.6643L38.2309 37.722L40.9121 34.1408L47.6152 43.0939C47.6152 43.5098 47.5574 43.9237 47.4433 44.3237C46.5243 47.5458 44.8407 50.4974 42.5361 52.9265C40.2316 55.3555 37.3746 57.19 34.209 58.2733C31.0433 57.19 28.1863 55.3555 25.8818 52.9265C23.5773 50.4974 21.8937 47.5458 20.9747 44.3237C20.8606 43.9237 20.8027 43.5098 20.8027 43.0939L27.5059 34.1408L30.1871 37.722L34.209 29.6643Z" fill="white"/>
<path d="M20.9747 44.3237C21.1613 44.978 21.4943 45.581 21.9484 46.0869C22.4025 46.5929 22.9658 46.9885 23.5955 47.2437C24.2251 47.4989 24.9046 47.6069 25.5821 47.5596C26.2597 47.5123 26.9176 47.3109 27.5059 46.9707C28.1852 46.5778 28.9558 46.371 29.7402 46.371C30.5247 46.371 31.2953 46.5778 31.9746 46.9707C32.6539 47.3636 33.4246 47.5705 34.209 47.5705C34.9934 47.5705 35.764 47.3636 36.4434 46.9707C37.1227 46.5778 37.8933 46.371 38.6777 46.371C39.4622 46.371 40.2328 46.5778 40.9121 46.9707C41.5003 47.3109 42.1582 47.5123 42.8358 47.5596C43.5134 47.6069 44.1928 47.4989 44.8225 47.2437C45.4521 46.9885 46.0154 46.5929 46.4695 46.0869C46.9237 45.581 47.2567 44.978 47.4433 44.3237L47.6152 44.3862V47.6632C46.8308 47.6632 46.0602 47.8701 45.3809 48.263C44.7015 48.6559 43.9309 48.8627 43.1465 48.8627C42.3621 48.8627 41.5914 48.6559 40.9121 48.263C40.2328 47.8701 39.4622 47.6632 38.6777 47.6632C37.8933 47.6632 37.1227 47.8701 36.4434 48.263C35.764 48.6559 34.9934 48.8627 34.209 48.8627C33.4246 48.8627 32.6539 48.6559 31.9746 48.263C31.2953 47.8701 30.5247 47.6632 29.7402 47.6632C28.9558 47.6632 28.1852 47.8701 27.5059 48.263C26.8265 48.6559 26.0559 48.8627 25.2715 48.8627C24.4871 48.8627 23.7164 48.6559 23.0371 48.263C22.3578 47.8701 21.5872 47.6632 20.8027 47.6632V44.3862" fill="#0F3296"/>
<path d="M20.9747 46.9082C21.1613 47.5624 21.4943 48.1654 21.9484 48.6714C22.4025 49.1774 22.9658 49.573 23.5955 49.8282C24.2251 50.0833 24.9046 50.1914 25.5821 50.1441C26.2597 50.0968 26.9176 49.8954 27.5059 49.5552C28.1852 49.1623 28.9558 48.9554 29.7402 48.9554C30.5247 48.9554 31.2953 49.1623 31.9746 49.5552C32.6539 49.9481 33.4246 50.1549 34.209 50.1549C34.9934 50.1549 35.764 49.9481 36.4434 49.5552C37.1227 49.1623 37.8933 48.9554 38.6777 48.9554C39.4622 48.9554 40.2328 49.1623 40.9121 49.5552C41.5003 49.8954 42.1582 50.0968 42.8358 50.1441C43.5134 50.1914 44.1928 50.0833 44.8225 49.8282C45.4521 49.573 46.0154 49.1774 46.4695 48.6714C46.9237 48.1654 47.2567 47.5624 47.4433 46.9082L47.6152 46.9707V50.2477C46.8308 50.2477 46.0602 50.4545 45.3809 50.8474C44.7015 51.2403 43.9309 51.4472 43.1465 51.4472C42.3621 51.4472 41.5914 51.2403 40.9121 50.8474C40.2328 50.4545 39.4622 50.2477 38.6777 50.2477C37.8933 50.2477 37.1227 50.4545 36.4434 50.8474C35.764 51.2403 34.9934 51.4472 34.209 51.4472C33.4246 51.4472 32.6539 51.2403 31.9746 50.8474C31.2953 50.4545 30.5247 50.2477 29.7402 50.2477C28.9558 50.2477 28.1852 50.4545 27.5059 50.8474C26.8265 51.2403 26.0559 51.4472 25.2715 51.4472C24.4871 51.4472 23.7164 51.2403 23.0371 50.8474C22.3578 50.4545 21.5872 50.2477 20.8027 50.2477V46.9707" fill="#0F3296"/>
<path d="M16.334 19.3387C16.7514 19.1373 17.1723 18.943 17.5963 18.7559L18.9238 39.9964C19.201 44.4317 20.8084 48.6799 23.5357 52.185C26.2629 55.69 29.983 58.2887 34.209 59.6408C38.435 58.2887 42.155 55.69 44.8823 52.185C47.6096 48.6799 49.217 44.4317 49.4942 39.9964L50.8217 18.7559C51.2457 18.943 51.6665 19.1373 52.084 19.3387L50.7878 40.0775C50.4899 44.8442 48.7412 49.4049 45.777 53.1457C42.8128 56.8865 38.7756 59.6276 34.209 60.9999C29.6424 59.6276 25.6051 56.8865 22.641 53.1457C19.6768 49.4049 17.928 44.8442 17.6301 40.0775L16.334 19.3387Z" fill="#D91C16"/>
</g>
</g>
<defs>
<clipPath id="clip0_307_90167">
<rect width="120" height="120" fill="white"/>
</clipPath>
<clipPath id="clip1_307_90167">
<rect width="35.75" height="45.75" fill="white" transform="translate(16.334 15.25)"/>
</clipPath>
</defs>
</svg>
