<svg width="120" height="120" viewBox="0 0 120 120" fill="none" xmlns="http://www.w3.org/2000/svg">
<g clip-path="url(#clip0_505_5889)">
<circle cx="60" cy="60" r="60" fill="#A30904"/>
<path d="M118.11 75C119.344 70.2057 120 65.1795 120 60C120 54.8205 119.344 49.7943 118.11 45H60.0005V0C60.0003 0 60.0007 0 60.0005 0C49.0722 0 38.8258 2.92167 30.0007 8.02651V45H1.89026C0.683789 49.6875 0.0295325 54.5966 0.000976562 59.654V60.346C0.0295325 65.4034 0.683789 70.3125 1.89026 75H30.0007V111.973C38.8258 117.078 49.0717 120 60 120C59.9998 120 60.0002 120 60 120L60.0005 75H118.11Z" fill="white"/>
<path d="M119.536 67.5C119.842 65.043 120 62.5399 120 60C120 57.46 119.842 54.9569 119.536 52.5H52.5006V0.464111C47.2609 1.11744 42.2309 2.44641 37.5007 4.36107V52.5H0.464203C0.171745 54.8453 0.0146484 57.2327 0.000976562 59.654V60.346C0.0146484 62.7673 0.171745 65.1547 0.464203 67.5H37.5007V115.639C42.2309 117.554 47.2609 118.883 52.5006 119.536V67.5H119.536Z" fill="#021455"/>
</g>
<defs>
<clipPath id="clip0_505_5889">
<rect width="120" height="120" fill="white"/>
</clipPath>
</defs>
</svg>
