<svg width="120" height="120" viewBox="0 0 120 120" fill="none" xmlns="http://www.w3.org/2000/svg">
<circle cx="60" cy="60" r="60" fill="#1E9A1C"/>
<path d="M108.004 96C115.537 85.9721 120 73.5073 120 60C120 46.4927 115.537 34.0279 108.004 24H11.9956C4.46334 34.0279 0 46.4927 0 60C0 73.5073 4.46334 85.9721 11.9956 96H108.004Z" fill="white"/>
<path d="M115.007 84C118.219 76.6505 120 68.5333 120 60C120 51.4667 118.219 43.3495 115.007 36H4.99252C1.78137 43.3495 0 51.4667 0 60C0 68.5333 1.78137 76.6505 4.99252 84H115.007Z" fill="#E23726"/>
<path d="M65.2137 54.8754L59.8254 38.2917L54.4371 54.8754H37L51.1069 65.1246L45.7186 81.7081L59.8254 71.459L73.9322 81.7081L68.5439 65.1246L82.6508 54.8754H65.2137Z" fill="#FDD406"/>
</svg>
