<svg width="120" height="120" viewBox="0 0 120 120" fill="none" xmlns="http://www.w3.org/2000/svg">
<g clip-path="url(#clip0_307_90894)">
<circle cx="60" cy="60" r="60" fill="white"/>
<path d="M115.007 36H9.47306L7.93555 30.1574C18.2872 12.1366 37.726 0 59.9994 0C84.6032 0 105.748 14.8091 115.007 36Z" fill="black"/>
<path d="M117.253 78C119.038 72.3178 120 66.2712 120 60C120 53.7288 119.038 47.6822 117.253 42H9V78H117.253Z" fill="#D91C16"/>
<path d="M115.007 84C105.748 105.191 84.6032 120 59.9994 120C37.726 120 18.2872 107.863 7.93555 89.8426L9.47306 84H115.007Z" fill="#1E9A1C"/>
<path d="M19.9359 15.3352L78 59.9999L19.9359 104.665C7.69813 93.68 0 77.7389 0 59.9999C0 42.2608 7.69813 26.3198 19.9359 15.3352Z" fill="#54AEF2"/>
<path d="M37.7259 64.2704L42.2163 78.0905L30.4596 69.549L18.7047 78.0884L23.1945 64.2708L11.4395 55.7305H25.9696L30.4605 41.9094L34.9512 55.7305H49.4816L37.7259 64.2704Z" fill="#FDD406"/>
</g>
<defs>
<clipPath id="clip0_307_90894">
<rect width="120" height="120" fill="white"/>
</clipPath>
</defs>
</svg>
