<svg width="120" height="120" viewBox="0 0 120 120" fill="none" xmlns="http://www.w3.org/2000/svg">
<g clip-path="url(#clip0_909_309366)">
<circle cx="60" cy="60" r="60" fill="white"/>
<path d="M115.007 36H9.47367L7.93616 30.1574C18.2878 12.1366 37.7266 0 60 0C84.6038 0 105.749 14.8091 115.007 36Z" fill="black"/>
<path d="M117.253 78C119.038 72.3178 120 66.2712 120 60C120 53.7288 119.038 47.6822 117.253 42H9V78H117.253Z" fill="#D91C16"/>
<path d="M115.007 84C105.749 105.191 84.6038 120 60 120C37.7266 120 18.2878 107.863 7.93616 89.8426L9.47367 84H115.007Z" fill="#1E9A1C"/>
<path d="M19.9359 15.3352L78 59.9999L19.9359 104.665C7.69813 93.68 0 77.7389 0 59.9999C0 42.2608 7.69813 26.3198 19.9359 15.3352Z" fill="#54AEF2"/>
<path d="M37.7265 64.2704L42.2168 78.0905L30.4602 69.549L18.7053 78.0884L23.1951 64.2708L11.44 55.7305H25.9701L30.4611 41.9094L34.9517 55.7305H49.4821L37.7265 64.2704Z" fill="#FDD406"/>
</g>
<defs>
<clipPath id="clip0_909_309366">
<rect width="120" height="120" fill="white"/>
</clipPath>
</defs>
</svg>
