<svg width="120" height="120" viewBox="0 0 120 120" fill="none" xmlns="http://www.w3.org/2000/svg">
<g clip-path="url(#clip0_909_222798)">
<circle cx="60" cy="60" r="60" fill="#D91C16"/>
<path d="M15.459 34.6366L19.1913 38.385L22.7109 34.8987C28.0648 40.6259 33.6801 46.1465 38.9926 51.8958C39.7908 52.6975 41.0896 52.702 41.8934 51.9058C42.6972 51.1096 42.7016 49.8143 41.9034 49.0125C36.2012 43.6466 30.4816 38.2371 24.7776 32.8516L29.5194 28.1547L22.9226 27.2437L15.459 34.6366Z" fill="#FDD406"/>
<path d="M27.5001 22.5C30.5704 24.2247 32.9015 26.6998 34.2766 29.2873C35.6703 31.9098 36.2829 34.6477 36.2955 36.8367C36.3213 41.3251 32.6473 44.9638 28.1471 44.9638C25.7458 44.9638 23.5871 43.928 22.0958 42.2797L21.271 42.9725C21.1305 42.9187 20.9813 42.8911 20.8309 42.891C20.4689 42.891 20.1252 43.0499 19.8913 43.3254C19.3029 43.4022 18.8105 43.808 18.6239 44.3699C18.0036 45.6109 16.9153 46.5841 15.5984 47.0296C15.5858 47.0339 15.5746 47.0395 15.5636 47.0451C14.9547 47.2676 14.3442 47.6695 13.8245 48.1902C12.7973 49.2236 12.2953 50.5458 12.5779 51.4737C12.55 51.5543 12.5357 51.639 12.5354 51.7243C12.5354 52.1527 12.8836 52.5 13.3131 52.5C13.4207 52.4996 13.5269 52.477 13.6253 52.4336C14.554 52.6426 15.8154 52.1286 16.8019 51.1392C17.3611 50.5766 17.78 49.911 17.9857 49.2583C18.4441 47.9514 19.4295 46.8865 20.6811 46.2877C20.711 46.2733 20.7352 46.2586 20.7568 46.2435C21.1764 46.0434 21.4834 45.6655 21.5927 45.2146C23.5125 47.4732 26.3914 48.9154 29.6099 48.991C35.5129 49.1295 39.9252 44.7958 40.1292 38.5638C40.2319 35.4275 39.0152 31.3834 36.2429 28.0667C34.1241 25.5319 31.0175 23.4275 27.5001 22.5Z" fill="#FDD406"/>
<path fill-rule="evenodd" clip-rule="evenodd" d="M26.6509 10.1144C27.1139 9.80424 27.5815 9.50033 28.0536 9.20282L29.1842 12.6824H34.6332L30.2249 15.8852L31.9087 21.0676L27.5003 17.8647L23.0919 21.0676L24.7758 15.8852L21.8042 13.7263C22.2324 13.3724 22.6655 13.0244 23.1036 12.6824H25.8165L26.6509 10.1144ZM28.578 13.5167L27.5003 10.2L26.4227 13.5167H22.9352L25.7566 15.5666L24.679 18.8833L27.5003 16.8335L30.3217 18.8833L29.244 15.5666L32.0654 13.5167H28.578Z" fill="#FDD406"/>
</g>
<defs>
<clipPath id="clip0_909_222798">
<rect width="120" height="120" fill="white"/>
</clipPath>
</defs>
</svg>
