<svg width="120" height="120" viewBox="0 0 120 120" fill="none" xmlns="http://www.w3.org/2000/svg">
<g clip-path="url(#clip0_307_88701)">
<circle cx="60" cy="60" r="60" fill="#0F7562"/>
<path d="M108.005 24C113.246 30.9769 117.001 39.1335 118.801 48H1.20117C3.00098 39.1335 6.75599 30.9769 11.9966 24H108.005Z" fill="#FDD406"/>
<path d="M108.005 96C113.246 89.0231 117.001 80.8665 118.801 72H1.20117C3.00098 80.8665 6.75599 89.0231 11.9966 96H108.005Z" fill="#FDD406"/>
<path d="M1.20022 71.9999C0.413163 68.1226 0 64.1095 0 59.9999C0 28.8878 23.6801 3.30649 54 0.296143V71.9999H1.20022Z" fill="#D91C16"/>
<path d="M8.14844 29.7894C8.31181 29.5096 8.47738 29.2313 8.64512 28.9544L23.5643 28.9544L28.6833 13.2L33.8022 28.9544H50.3674L36.9658 38.6912L42.0847 54.4456L28.6832 44.7088L15.2818 54.4455L20.4007 38.6912L8.14844 29.7894Z" fill="white"/>
</g>
<defs>
<clipPath id="clip0_307_88701">
<rect width="120" height="120" fill="white"/>
</clipPath>
</defs>
</svg>
