<svg width="120" height="120" viewBox="0 0 120 120" fill="none" xmlns="http://www.w3.org/2000/svg">
<circle cx="60" cy="60" r="60" fill="#1E9A1C"/>
<path d="M108.004 24C113.245 30.9769 117 39.1335 118.8 48H1.2002C3.00001 39.1335 6.75501 30.9769 11.9956 24H108.004Z" fill="#FDD406"/>
<path d="M108.004 96C113.245 89.0231 117 80.8665 118.8 72H1.2002C3.00001 80.8665 6.75501 89.0231 11.9956 96H108.004Z" fill="#FDD406"/>
<path d="M1.20022 72C0.413163 68.1227 0 64.1096 0 60C0 28.8879 23.6801 3.30661 54 0.296265V72H1.20022Z" fill="#E23726"/>
<path d="M8.14941 29.7894C8.31278 29.5096 8.47835 29.2313 8.6461 28.9544L23.5653 28.9544L28.6842 13.2L33.8032 28.9544H50.3683L36.9668 38.6912L42.0857 54.4456L28.6842 44.7088L15.2827 54.4455L20.4016 38.6912L8.14941 29.7894Z" fill="white"/>
</svg>
