<svg width="120" height="120" viewBox="0 0 120 120" fill="none" xmlns="http://www.w3.org/2000/svg">
<circle cx="60" cy="60" r="60" fill="#005801"/>
<path d="M114.226 85.7143C117.928 77.9207 120 69.2023 120 60C120 26.8629 93.1371 0 60 0C26.8629 0 0 26.8629 0 60C0 69.2023 2.07164 77.9207 5.77398 85.7143H114.226Z" fill="white"/>
<path d="M114.226 34.2857H5.77393C15.4036 14.0147 36.0651 0 59.9999 0C83.9348 0 104.596 14.0147 114.226 34.2857Z" fill="#E23726"/>
<path d="M61.6328 41.5916L64.1519 39.7613H61.0382L60.076 36.8L59.1138 39.7613H56L58.5191 41.5916L57.5569 44.5529L60.076 42.7227L62.595 44.5529L61.6328 41.5916Z" fill="#FDD406"/>
<path d="M55.276 58.3484C55.51 57.946 55.8687 57.6307 56.2978 57.4503C56.727 57.2698 57.2032 57.234 57.6544 57.3483C58.1057 57.4626 58.5075 57.7207 58.799 58.0836C59.0906 58.4466 59.256 58.8946 59.2703 59.3599V64.5074C59.1611 65.7235 58.7122 66.8844 57.975 67.8578C57.2377 68.8312 56.2418 69.5777 55.1007 70.0123C53.9596 70.4469 52.7193 70.552 51.5214 70.3157C50.3234 70.0794 49.216 69.5112 48.3254 68.6758C47.9449 69.631 47.3518 70.4871 46.5911 71.179C45.8304 71.8709 44.9222 72.3805 43.9353 72.669C42.9483 72.9576 41.9086 73.0177 40.895 72.8446C39.8814 72.6715 38.9206 72.2699 38.0853 71.6701C38.7109 77.9146 48.0714 76.6397 48.7687 70.5681C51.7089 75.7297 58.1733 74.2526 60.0666 67.9313H60.0853C61.9786 74.2526 68.443 75.7297 71.3832 70.5681C72.0806 76.6397 81.441 77.9146 82.0667 71.6701C81.2314 72.2699 80.2705 72.6715 79.2569 72.8446C78.2434 73.0177 77.2036 72.9576 76.2167 72.669C75.2298 72.3805 74.3215 71.8709 73.5609 71.179C72.8002 70.4871 72.2071 69.631 71.8265 68.6758C70.936 69.5112 69.8285 70.0794 68.6306 70.3157C67.4326 70.552 66.1924 70.4469 65.0513 70.0123C63.9102 69.5777 62.9142 68.8312 62.177 67.8578C61.4398 66.8845 60.991 65.7237 60.8817 64.5076V59.3599C60.896 58.8946 61.0614 58.4466 61.3529 58.0836C61.6445 57.7207 62.0463 57.4626 62.4975 57.3483C62.9488 57.234 63.425 57.2698 63.8542 57.4503C64.2833 57.6307 64.642 57.946 64.876 58.3484C65.1281 57.5885 65.1961 56.7795 65.0745 55.9881C64.9528 55.1967 64.645 54.4455 64.1764 53.7963C63.7077 53.1471 63.0916 52.6185 62.3788 52.2539C61.6659 51.8893 60.8767 51.6992 60.076 51.6992C59.2753 51.6992 58.4861 51.8893 57.7732 52.2539C57.0604 52.6185 56.4443 53.1471 55.9756 53.7963C55.507 54.4455 55.1992 55.1967 55.0775 55.9881C54.9559 56.7795 55.0239 57.5885 55.276 58.3484Z" fill="#FDD406"/>
<path d="M46.8204 76.6236C49.1037 78.8995 51.714 78.4152 53.02 75.5959C53.02 75.5959 52.3593 75.1981 50.9829 75.3763C50.7847 74.4874 50.0054 73.7224 49.4469 73.3408C48.9144 73.9274 48.5366 75.0121 48.7209 75.7963C47.7382 75.9751 46.8204 76.6236 46.8204 76.6236Z" fill="#FDD406"/>
<path d="M63.2369 75.2766C61.4894 77.8457 58.835 77.8986 56.9527 75.2814C56.9527 75.2814 57.9639 74.7909 58.9625 74.7745C58.9084 73.9708 59.4578 72.962 60.0787 72.4699C60.5675 72.9374 61.2119 73.819 61.2628 74.7284C62.6498 74.7767 63.2369 75.2766 63.2369 75.2766Z" fill="#FDD406"/>
<path d="M67.1684 75.6066C68.5994 78.4953 71.227 78.8754 73.3695 76.6251C73.3695 76.6251 72.8716 76.0362 71.5109 75.7627C71.6088 74.8573 71.1165 73.8825 70.7103 73.3416C70.0176 73.7261 69.3113 74.6319 69.2339 75.4337C68.2459 75.2873 67.1684 75.6066 67.1684 75.6066Z" fill="#FDD406"/>
<path d="M76.3133 83.2C65.7181 80.0462 54.4338 80.0462 43.8387 83.2L43.0562 80.5711C54.1619 77.2653 65.99 77.2653 77.0958 80.5711L76.3133 83.2Z" fill="#FDD406"/>
<path d="M49.0382 42.9767H52.1519L49.6328 44.807L50.595 47.7683L48.076 45.9381L45.5569 47.7683L46.5191 44.807L44 42.9767H47.1138L48.076 40.0154L49.0382 42.9767Z" fill="#FDD406"/>
<path d="M40.8482 53.5916L43.3673 51.7613H40.2536L39.2913 48.8L38.3291 51.7613H35.2154L37.7345 53.5916L36.7723 56.5529L39.2913 54.7227L41.8104 56.5529L40.8482 53.5916Z" fill="#FDD406"/>
<path d="M40.1519 63.7613L37.6328 65.5916L38.595 68.5529L36.076 66.7227L33.5569 68.5529L34.5191 65.5916L32 63.7613H35.1138L36.076 60.8L37.0382 63.7613H40.1519Z" fill="#FDD406"/>
<path d="M68 42.9767H71.1138L72.076 40.0154L73.0382 42.9767H76.1519L73.6328 44.807L74.595 47.7683L72.076 45.9381L69.5569 47.7683L70.5191 44.807L68 42.9767Z" fill="#FDD406"/>
<path d="M76.7846 51.7613L79.3037 53.5916L78.3415 56.5529L80.8606 54.7227L83.3796 56.5529L82.4174 53.5916L84.9365 51.7613H81.8228L80.8606 48.8L79.8984 51.7613H76.7846Z" fill="#FDD406"/>
<path d="M82.5191 65.5916L80 63.7613H83.1138L84.076 60.8L85.0382 63.7613H88.1519L85.6328 65.5916L86.595 68.5529L84.076 66.7227L81.5569 68.5529L82.5191 65.5916Z" fill="#FDD406"/>
</svg>
