<svg width="120" height="120" viewBox="0 0 120 120" fill="none" xmlns="http://www.w3.org/2000/svg">
<g clip-path="url(#clip0_307_88715)">
<circle cx="60" cy="60" r="60" fill="#D91C16"/>
<path d="M23.9965 11.9983L120 60L23.9965 108.002C9.42513 97.0552 0 79.6283 0 60C0 40.3718 9.42513 22.9449 23.9965 11.9983Z" fill="#FDD406"/>
<path d="M20.1693 104.873C7.79607 93.8822 0 77.8515 0 60C0 42.1485 7.79607 26.1178 20.1693 15.127L80 60L20.1693 104.873Z" fill="black"/>
<path d="M28.2605 52.5287L18.5447 41.7241L20.054 56.176L6.77539 62.0774L20.9868 65.108L22.4961 79.5601L29.7697 66.9809L43.9814 70.0115L34.2652 59.2064L41.5387 46.6275L28.2605 52.5287Z" fill="white"/>
</g>
<defs>
<clipPath id="clip0_307_88715">
<rect width="120" height="120" fill="white"/>
</clipPath>
</defs>
</svg>
