<svg width="120" height="120" viewBox="0 0 120 120" fill="none" xmlns="http://www.w3.org/2000/svg">
<g clip-path="url(#clip0_909_227418)">
<circle cx="60" cy="60" r="60" fill="#1E9A1C"/>
<path d="M61.5245 16.604L62.1706 14.6153H64.2617L62.57 13.3862L63.2161 11.3975L61.5244 12.6265L59.8327 11.3975L60.4789 13.3861L58.7872 14.6153H60.8783L61.5245 16.604Z" fill="white"/>
<path d="M84.8128 27.0341C84.8128 20.8787 81.0854 15.5926 75.7655 13.3085C79.1472 16.1913 81.2133 20.5467 81.0045 25.3289C80.6449 33.5658 73.6735 39.9539 65.4366 39.5943C63.5805 39.5133 61.8188 39.0955 60.2065 38.4041C62.8128 40.6242 66.1908 41.9651 69.8819 41.9651C78.1266 41.9651 84.8128 35.2789 84.8128 27.0341Z" fill="white"/>
<path d="M62.1706 22.2953L61.5245 24.284L60.8783 22.2953H58.7872L60.4789 21.0662L59.8327 19.0775L61.5244 20.3065L63.2161 19.0775L62.57 21.0662L64.2617 22.2953H62.1706Z" fill="white"/>
<path d="M69.758 18.5509L69.1119 20.5396L68.4657 18.5509H66.3746L68.0663 17.3217L67.4201 15.3331L69.1118 16.5621L70.8035 15.3331L70.1574 17.3218L71.8491 18.5509H69.758Z" fill="white"/>
<path d="M53.9373 28.0284L54.5834 26.0396H56.6745L54.9828 24.8106L55.6289 22.8218L53.9372 24.0509L52.2455 22.8218L52.8917 24.8105L51.2 26.0396H53.2911L53.9373 28.0284Z" fill="white"/>
<path d="M62.1706 29.9752L61.5245 31.964L60.8783 29.9752H58.7872L60.4789 28.7461L59.8327 26.7574L61.5244 27.9865L63.2161 26.7574L62.57 28.7462L64.2617 29.9752H62.1706Z" fill="white"/>
<path d="M12.8 22.9531C20.8562 12.7033 32.1792 5.14237 45.2 1.83911V118.161C32.1792 114.858 20.8562 107.297 12.8 97.0469V22.9531Z" fill="#D91C16"/>
<path d="M14.8938 20.4332C15.1084 20.1887 15.325 19.946 15.5435 19.7051L16.1899 20.3054L17.6094 18.9812L20.7238 21.8414L17.6094 24.7015L16.1899 23.388L15.4484 24.0659L16.5607 25.1041L15.2683 26.3117L15.8827 26.8943L12.8001 29.7651V28.5892L14.6221 26.8943L14.0077 26.3117L15.3107 25.1041L14.7387 24.585V25.3371H13.6263V24.4367L16.1369 22.085H17.4081L17.5459 22.9218H16.8149L17.6094 23.6634L19.6009 21.8413L17.6094 20.0299L16.8149 20.7714H17.5459L17.4081 21.5977H16.1369L14.8938 20.4332Z" fill="black"/>
<path d="M12.8001 22.9529C13.2592 22.3687 13.729 21.7933 14.2091 21.2269H14.2832L14.8975 21.8413L14.2832 22.4663H13.5204V23.3244L12.8001 24.0553V22.9529Z" fill="black"/>
<path d="M17.9484 21.799L18.0543 21.1951L18.7111 21.799L18.0543 22.4134L17.9484 21.799Z" fill="black"/>
<path d="M12.7999 28.7057V29.6379L15.7554 26.8942L15.141 26.3116L16.4334 25.104L15.3211 24.0659L16.1897 23.2608L17.6092 24.5849L20.5859 21.8413L17.6092 19.0977L16.1897 20.4218L15.4855 19.7691C15.3059 19.9677 15.1276 20.1675 14.9507 20.3685L16.1794 21.5129H17.3235L17.44 20.8561H16.5926L17.6095 19.9027L19.7281 21.8413L17.6095 23.7799L16.5926 22.8371H17.44L17.3232 22.1697H16.1791L13.7109 24.4684V25.2523H14.6537V24.3731L15.4376 25.104L14.1346 26.3116L14.7491 26.8942L12.7999 28.7057Z" fill="#FDD406"/>
<path d="M12.8002 22.9528C13.2365 22.3978 13.6823 21.8506 14.1374 21.3117H14.2515L14.7811 21.8413L14.2515 22.371H13.4358V23.2926L12.8002 23.9282V22.9528Z" fill="#FDD406"/>
<path d="M18.0438 21.7989L18.118 21.3646L18.5841 21.7989L18.118 22.2333L18.0438 21.7989Z" fill="#FDD406"/>
<path d="M12.8003 36.4773V37.6532L14.6223 39.3587L14.0079 39.9307L15.3109 41.1383L14.7388 41.6574V40.9053H13.6265V41.8057L16.1371 44.1574H17.4083L17.546 43.3311H16.8151L17.6096 42.5896L19.6011 44.401L17.6096 46.2231L16.8151 45.4815H17.546L17.4083 44.6447H16.1371L13.6265 46.9964V47.8968H14.7388V47.1447L15.3109 47.6638L14.0079 48.8714L14.6223 49.454L12.8003 51.1489V52.3248L15.8829 49.454L15.2685 48.8714L16.5609 47.6638L15.4486 46.6256L16.1901 45.9477L17.6096 47.2612L20.724 44.4011L17.6096 41.5409L16.1901 42.8651L15.4486 42.1765L16.5609 41.1384L15.2685 39.9307L15.8829 39.3587L12.8003 36.4773ZM12.8003 42.1871V46.615L13.5206 45.8841V45.026H14.2833L14.8977 44.401L14.2833 43.7866H13.5206V42.918L12.8003 42.1871ZM18.0545 43.7549L17.9486 44.3587L18.0545 44.9731L18.7113 44.3587L18.0545 43.7549Z" fill="black"/>
<path d="M12.8003 36.6045V37.5367L14.7494 39.3587L14.135 39.9308L15.438 41.1384L14.6541 41.8693V40.9901H13.7113V41.774L16.1795 44.0727H17.3236L17.4401 43.4159H16.5926L17.6096 42.4625L19.7282 44.4011L17.6096 46.3397L16.5926 45.3969H17.4401L17.3233 44.7295H16.1792L13.711 47.0282V47.8121H14.6538V46.9329L15.4377 47.6638L14.1347 48.8714L14.7491 49.454L12.8 51.2655V52.1977L15.7555 49.454L15.1411 48.8714L16.4334 47.6638L15.3211 46.6257L16.1898 45.8206L17.6093 47.1447L20.586 44.4011L17.6093 41.6575L16.1898 42.9816L15.3211 42.1765L16.4334 41.1384L15.1411 39.9308L15.7555 39.3587L12.8 36.6045L12.8003 36.6045ZM12.8003 42.3143V46.488L13.4359 45.8524V44.9308H14.2515L14.7812 44.4011L14.2515 43.8715H13.4359V42.9499L12.8003 42.3143ZM18.118 43.9244L18.0439 44.3588L18.118 44.7931L18.5841 44.3588L18.118 43.9244Z" fill="#FDD406"/>
<path d="M12.8003 59.0366V60.2125L14.6223 61.918L14.0079 62.49L15.3109 63.6976L14.7388 64.2167V63.4646H13.6265V64.365L16.1371 66.7167H17.4083L17.546 65.8904H16.8151L17.6096 65.1489L19.6011 66.9604L17.6096 68.7824L16.8151 68.0409H17.546L17.4083 67.204H16.1371L13.6265 69.5557V70.4561H14.7388V69.704L15.3109 70.2231L14.0079 71.4307L14.6223 72.0133L12.8003 73.7082V74.8841L15.8829 72.0133L15.2685 71.4307L16.5609 70.2231L15.4486 69.185L16.1901 68.507L17.6096 69.8206L20.724 66.9604L17.6096 64.1002L16.1901 65.4244L15.4486 64.7358L16.5609 63.6977L15.2685 62.4901L15.8829 61.918L12.8003 59.0366ZM12.8003 64.7464V69.1743L13.5206 68.4434V67.5854H14.2833L14.8977 66.9604L14.2833 66.346H13.5206V65.4773L12.8003 64.7464ZM18.0545 66.3142L17.9486 66.918L18.0545 67.5324L18.7113 66.918L18.0545 66.3142Z" fill="black"/>
<path d="M12.8003 59.1638V60.096L14.7494 61.9181L14.135 62.4901L15.438 63.6977L14.6541 64.4287V63.5494H13.7113V64.3333L16.1795 66.632H17.3236L17.4401 65.9753H16.5926L17.6096 65.0219L19.7282 66.9604L17.6096 68.899L16.5926 67.9562H17.4401L17.3233 67.2888H16.1792L13.711 69.5875V70.3714H14.6538V69.4922L15.4377 70.2231L14.1347 71.4308L14.7491 72.0134L12.8 73.8248V74.757L15.7555 72.0134L15.1411 71.4308L16.4334 70.2231L15.3211 69.185L16.1898 68.3799L17.6093 69.7041L20.586 66.9604L17.6093 64.2168L16.1898 65.5409L15.3211 64.7359L16.4334 63.6977L15.1411 62.4901L15.7555 61.9181L12.8 59.1638L12.8003 59.1638ZM12.8003 64.8736V69.0473L13.4359 68.4117V67.4901H14.2515L14.7812 66.9605L14.2515 66.4308H13.4359V65.5092L12.8003 64.8736ZM18.118 66.4838L18.0439 66.9181L18.118 67.3524L18.5841 66.9181L18.118 66.4838Z" fill="#FDD406"/>
<path d="M12.9805 97.2755C12.9202 97.1996 12.8601 97.1235 12.8002 97.0473V96.2676L14.6222 94.5727L14.0078 93.99L15.3107 92.7824L14.7387 92.2634V93.0155H13.6264V92.115L16.137 89.7633H17.4082L17.5459 90.6002H16.815L17.6094 91.3417L19.601 89.5197L17.6094 87.7082L16.815 88.4498H17.5459L17.4082 89.276H16.137L13.6264 86.9243V86.0239H14.7387V86.776L15.3107 86.257L14.0078 85.0493L14.6222 84.4773L12.8002 82.7718V81.5959L15.8828 84.4774L15.2684 85.0494L16.5607 86.257L15.4484 87.2951L16.19 87.9837L17.6094 86.6596L20.7239 89.5197L17.6094 92.3799L16.19 91.0663L15.4484 91.7443L16.5607 92.7824L15.2684 93.99L15.8828 94.5727L12.9805 97.2755Z" fill="black"/>
<path d="M12.8002 91.7337V87.3057L13.5205 88.0366V88.9053H14.2832L14.8976 89.5197L14.2832 90.1447H13.5205V91.0027L12.8002 91.7337Z" fill="black"/>
<path d="M17.9484 89.4773L18.0544 88.8735L18.7112 89.4773L18.0544 90.0917L17.9484 89.4773Z" fill="black"/>
<path d="M12.7999 96.3841V97.047C12.8407 97.0989 12.8816 97.1507 12.9225 97.2025L15.7554 94.5727L15.141 93.9901L16.4334 92.7824L15.3211 91.7443L16.1897 90.9392L17.6092 92.2634L20.5859 89.5197L17.6092 86.7761L16.1897 88.1002L15.3211 87.2952L16.4334 86.257L15.141 85.0494L15.7554 84.4774L12.8002 81.7234V82.6553L14.7494 84.4774L14.1349 85.0494L15.4379 86.257L14.654 86.988V86.1087H13.7112V86.8926L16.1794 89.1913H17.3235L17.44 88.5346H16.5926L17.6095 87.5812L19.7281 89.5197L17.6095 91.4583L16.5926 90.5155H17.44L17.3232 89.8481H16.1791L13.7109 92.1468V92.9307H14.6537V92.0515L15.4376 92.7824L14.1346 93.9901L14.7491 94.5727L12.7999 96.3841Z" fill="#FDD406"/>
<path d="M12.8002 91.6066V87.4329L13.4358 88.0685V88.9901H14.2515L14.7811 89.5198L14.2515 90.0494H13.4358V90.971L12.8002 91.6066Z" fill="#FDD406"/>
<path d="M18.0438 89.4774L18.118 89.0431L18.5841 89.4774L18.118 89.9117L18.0438 89.4774Z" fill="#FDD406"/>
<path d="M45.1997 1.83911C45.1015 1.86404 45.0034 1.8892 44.9053 1.91461L45.1997 2.21339V1.83911Z" fill="black"/>
<path d="M41.9883 2.75036L41.4396 3.26254L42.7319 4.47017L42.1175 5.05278L45.1997 7.92319V6.74733L43.3781 5.05278L43.9925 4.47017L42.6896 3.26254L43.2616 2.74347V3.49559H44.3739V2.59517L43.9274 2.17691C43.2765 2.35743 42.6301 2.54865 41.9883 2.75036Z" fill="black"/>
<path d="M45.0031 1.88943C45.0687 1.87255 45.1344 1.85578 45.2001 1.83911V2.08637L45.0031 1.88943Z" fill="#FDD406"/>
<path d="M45.2001 7.79585V6.86365L43.2516 5.0528L43.866 4.47019L42.563 3.26256L43.3469 2.53163V3.41087H44.2897V2.62697L43.8344 2.20288C43.2797 2.35769 42.7283 2.52027 42.1802 2.6905L41.5673 3.26256L42.8596 4.47019L42.2452 5.0528L45.2001 7.79585Z" fill="#FDD406"/>
<path d="M45.2003 13.9175V15.0933L43.3783 16.7988L43.9927 17.3709L42.6897 18.5785L43.2618 19.0976V18.3454H44.3741V19.2459L41.8635 21.5976H40.5923L40.4546 20.7713H41.1855L40.391 20.0298L38.3995 21.8412L40.391 23.6632L41.1855 22.9217H40.4546L40.5923 22.0849H41.8635L44.3741 24.4366V25.337H43.2618V24.5849L42.6897 25.104L43.9927 26.3116L43.3783 26.8942L45.2003 28.5891V29.765L42.1177 26.8942L42.7321 26.3116L41.4398 25.104L42.5521 24.0658L41.8105 23.3879L40.391 24.7014L37.2766 21.8413L40.391 18.9811L41.8105 20.3052L42.5521 19.6167L41.4398 18.5785L42.7321 17.3709L42.1177 16.7989L45.2003 13.9175ZM45.2003 19.6272V24.0552L44.48 23.3243V22.4662H43.7173L43.1029 21.8412L43.7173 21.2268H44.48V20.3582L45.2003 19.6272ZM39.9461 21.195L40.052 21.7989L39.9461 22.4133L39.2893 21.7989L39.9461 21.195Z" fill="black"/>
<path d="M45.2003 14.0447V14.9769L43.2511 16.7989L43.8656 17.371L42.5626 18.5786L43.3465 19.3095V18.4303H44.2893V19.2142L41.821 21.5129H40.677L40.5605 20.8561H41.4079L40.391 19.9027L38.2723 21.8413L40.391 23.7798L41.4079 22.8371H40.5605L40.6773 22.1697H41.8213L44.2896 24.4684V25.2523H43.3468V24.3731L42.5629 25.104L43.8658 26.3116L43.2514 26.8942L45.2006 28.7057V29.6379L42.2451 26.8942L42.8595 26.3116L41.5671 25.104L42.6794 24.0659L41.8107 23.2608L40.3913 24.5849L37.4146 21.8413L40.3913 19.0976L41.8107 20.4218L42.6794 19.6167L41.5671 18.5786L42.8595 17.371L42.2451 16.7989L45.2006 14.0447L45.2003 14.0447ZM45.2003 19.7544V23.9282L44.5647 23.2926V22.371H43.749L43.2194 21.8413L43.749 21.3117H44.5647V20.39L45.2003 19.7544ZM39.8825 21.3646L39.9566 21.7989L39.8825 22.2333L39.4164 21.7989L39.8825 21.3646Z" fill="#FDD406"/>
<path d="M45.2003 36.4773V37.6532L43.3783 39.3587L43.9927 39.9307L42.6897 41.1383L43.2618 41.6574V40.9053H44.3741V41.8057L41.8635 44.1574H40.5923L40.4546 43.3311H41.1855L40.391 42.5896L38.3995 44.401L40.391 46.2231L41.1855 45.4815H40.4546L40.5923 44.6447H41.8635L44.3741 46.9964V47.8968H43.2618V47.1447L42.6897 47.6638L43.9927 48.8714L43.3783 49.454L45.2003 51.1489V52.3248L42.1177 49.454L42.7321 48.8714L41.4398 47.6638L42.5521 46.6256L41.8105 45.9477L40.391 47.2612L37.2766 44.4011L40.391 41.5409L41.8105 42.8651L42.5521 42.1765L41.4398 41.1384L42.7321 39.9307L42.1177 39.3587L45.2003 36.4773ZM45.2003 42.1871V46.615L44.48 45.8841V45.026H43.7173L43.1029 44.401L43.7173 43.7866H44.48V42.918L45.2003 42.1871ZM39.9461 43.7549L40.052 44.3587L39.9461 44.9731L39.2893 44.3587L39.9461 43.7549Z" fill="black"/>
<path d="M45.2003 36.6045V37.5367L43.2511 39.3587L43.8656 39.9308L42.5626 41.1384L43.3465 41.8693V40.9901H44.2893V41.774L41.821 44.0727H40.677L40.5605 43.4159H41.4079L40.391 42.4625L38.2723 44.4011L40.391 46.3397L41.4079 45.3969H40.5605L40.6773 44.7295H41.8213L44.2896 47.0282V47.8121H43.3468V46.9329L42.5629 47.6638L43.8658 48.8714L43.2514 49.454L45.2006 51.2655V52.1977L42.2451 49.454L42.8595 48.8714L41.5671 47.6638L42.6794 46.6257L41.8107 45.8206L40.3913 47.1447L37.4146 44.4011L40.3913 41.6575L41.8107 42.9816L42.6794 42.1765L41.5671 41.1384L42.8595 39.9308L42.2451 39.3587L45.2006 36.6045L45.2003 36.6045ZM45.2003 42.3143V46.488L44.5647 45.8524V44.9308H43.749L43.2194 44.4011L43.749 43.8715H44.5647V42.9499L45.2003 42.3143ZM39.8825 43.9244L39.9566 44.3588L39.8825 44.7931L39.4164 44.3588L39.8825 43.9244Z" fill="#FDD406"/>
<path d="M45.2003 59.0366V60.2125L43.3783 61.918L43.9927 62.49L42.6897 63.6976L43.2618 64.2167V63.4646H44.3741V64.365L41.8635 66.7167H40.5923L40.4546 65.8904H41.1855L40.391 65.1489L38.3995 66.9604L40.391 68.7824L41.1855 68.0409H40.4546L40.5923 67.204H41.8635L44.3741 69.5557V70.4561H43.2618V69.704L42.6897 70.2231L43.9927 71.4307L43.3783 72.0133L45.2003 73.7082V74.8841L42.1177 72.0133L42.7321 71.4307L41.4398 70.2231L42.5521 69.185L41.8105 68.507L40.391 69.8206L37.2766 66.9604L40.391 64.1002L41.8105 65.4244L42.5521 64.7358L41.4398 63.6977L42.7321 62.4901L42.1177 61.918L45.2003 59.0366ZM45.2003 64.7464V69.1743L44.48 68.4434V67.5854H43.7173L43.1029 66.9604L43.7173 66.346H44.48V65.4773L45.2003 64.7464ZM39.9461 66.3142L40.052 66.918L39.9461 67.5324L39.2893 66.918L39.9461 66.3142Z" fill="black"/>
<path d="M45.2003 59.1638V60.096L43.2511 61.9181L43.8656 62.4901L42.5626 63.6977L43.3465 64.4287V63.5494H44.2893V64.3333L41.821 66.632H40.677L40.5605 65.9753H41.4079L40.391 65.0219L38.2723 66.9604L40.391 68.899L41.4079 67.9562H40.5605L40.6773 67.2888H41.8213L44.2896 69.5875V70.3714H43.3468V69.4922L42.5629 70.2231L43.8658 71.4308L43.2514 72.0134L45.2006 73.8248V74.757L42.2451 72.0134L42.8595 71.4308L41.5671 70.2231L42.6794 69.185L41.8107 68.3799L40.3913 69.7041L37.4146 66.9604L40.3913 64.2168L41.8107 65.5409L42.6794 64.7359L41.5671 63.6977L42.8595 62.4901L42.2451 61.9181L45.2006 59.1638L45.2003 59.1638ZM45.2003 64.8736V69.0473L44.5647 68.4117V67.4901H43.749L43.2194 66.9605L43.749 66.4308H44.5647V65.5092L45.2003 64.8736ZM39.8825 66.4838L39.9566 66.9181L39.8825 67.3524L39.4164 66.9181L39.8825 66.4838Z" fill="#FDD406"/>
<path d="M45.2003 81.5957V82.7716L43.3783 84.4771L43.9927 85.0491L42.6897 86.2567L43.2618 86.7758V86.0237H44.3741V86.9241L41.8635 89.2758H40.5923L40.4546 88.4495H41.1855L40.391 87.708L38.3995 89.5194L40.391 91.3415L41.1855 90.5999H40.4546L40.5923 89.7631H41.8635L44.3741 92.1148V93.0152H43.2618V92.2631L42.6897 92.7822L43.9927 93.9898L43.3783 94.5724L45.2003 96.2673V97.4432L42.1177 94.5724L42.7321 93.9898L41.4398 92.7822L42.5521 91.744L41.8105 91.0661L40.391 92.3796L37.2766 89.5195L40.391 86.6593L41.8105 87.9835L42.5521 87.2949L41.4398 86.2568L42.7321 85.0491L42.1177 84.4771L45.2003 81.5957ZM45.2003 87.3055V91.7334L44.48 91.0025V90.1445H43.7173L43.1029 89.5195L43.7173 88.905H44.48V88.0364L45.2003 87.3055ZM39.9461 88.8733L40.052 89.4771L39.9461 90.0915L39.2893 89.4771L39.9461 88.8733Z" fill="black"/>
<path d="M45.2003 81.7229V82.6551L43.2511 84.4771L43.8656 85.0492L42.5626 86.2568L43.3465 86.9877V86.1085H44.2893V86.8924L41.821 89.1911H40.677L40.5605 88.5343H41.4079L40.391 87.581L38.2723 89.5195L40.391 91.4581L41.4079 90.5153H40.5605L40.6773 89.8479H41.8213L44.2896 92.1466V92.9305H43.3468V92.0513L42.5629 92.7822L43.8658 93.9898L43.2514 94.5725L45.2006 96.3839V97.3161L42.2451 94.5725L42.8595 93.9898L41.5671 92.7822L42.6794 91.7441L41.8107 90.939L40.3913 92.2632L37.4146 89.5195L40.3913 86.7759L41.8107 88.1L42.6794 87.2949L41.5671 86.2568L42.8595 85.0492L42.2451 84.4771L45.2006 81.7229L45.2003 81.7229ZM45.2003 87.4327V91.6064L44.5647 90.9708V90.0492H43.749L43.2194 89.5195L43.749 88.9899H44.5647V88.0683L45.2003 87.4327ZM39.8825 89.0428L39.9566 89.4772L39.8825 89.9115L39.4164 89.4772L39.8825 89.0428Z" fill="#FDD406"/>
<path d="M39.0396 3.76294L41.1466 5.03178V7.05678L43.7428 8.64882L43.7427 12.4759L41.1466 14.0679V16.0929L38.6932 17.5703H36.7331L33.0035 19.6681H24.9969L21.2674 17.5703H19.3073L18.2335 16.9237C24.1299 11.2056 31.1965 6.68738 39.0396 3.76294Z" fill="black"/>
<path d="M38.9328 3.80298C38.4057 4.00064 37.8822 4.20551 37.3624 4.41745H38.4464L40.2578 5.50856V7.53185L42.8637 9.12084V12.0022L40.2578 13.5912V15.6145L38.4464 16.7056H36.4972L32.7684 18.8031H25.2366L21.5078 16.7056H19.5587L18.8845 16.3019C18.6863 16.4885 18.4893 16.6764 18.2936 16.8657L19.3256 17.4895H21.2854L25.0142 19.5869H32.9803L36.7091 17.4895H38.6688L41.0629 16.0488V14.0149L43.6583 12.4259V8.69711L41.0629 7.10812V5.08482L38.9328 3.80298Z" fill="#1E9A1C"/>
<path d="M26.0538 10.5193L28.9572 10.5193V10.6051H29.043V18.7212H32.7442L36.4738 16.6235H38.4183L40.1771 15.5642V13.5443L42.7733 11.9522V10.6051L29.043 10.6051V10.5193L28.9572 10.5193V8.64429C27.9704 9.24202 27.0023 9.86739 26.0538 10.5193Z" fill="#FDD406"/>
<path d="M29.043 8.59242C31.6273 7.03283 34.3387 5.66261 37.1581 4.50098H38.4182L40.177 5.56022V7.5803L42.7732 9.17221V10.5193L29.043 10.5192V8.59242Z" fill="white"/>
<path d="M18.9482 16.2418C21.1286 14.1954 23.4621 12.3101 25.9296 10.605L28.9571 10.605V18.7211H25.2558L21.5262 16.6234H19.5817L18.9482 16.2418Z" fill="white"/>
<path d="M28.9571 10.605V10.5192L29.043 10.5192V10.605H28.9571Z" fill="white"/>
<path d="M20.3493 14.9676H21.2298L22.7757 13.5095L23.2702 14.0318L21.7672 15.4496V16.412L20.8902 15.8686L20.2511 16.4643L19.6179 16.0738L20.2581 15.4769L19.9742 15.301C20.0987 15.1894 20.2238 15.0783 20.3493 14.9676Z" fill="black"/>
<path d="M23.9153 16.1304L23.2762 16.7261L22.643 16.3356L23.2832 15.7387L22.4612 15.2294H24.2549L25.8008 13.7713L26.2953 14.2936L24.7923 15.7114V16.6738L23.9153 16.1304Z" fill="black"/>
<path d="M21.5455 13.9412V14.7008L21.0269 14.3795C21.1989 14.2325 21.3718 14.0863 21.5455 13.9412Z" fill="black"/>
<path d="M29.0002 18.8069H27.3815L26.5346 17.9906H24.8835L23.6635 17.3574L23.948 16.6642L25.036 17.2356H25.5125L27.1808 15.3062L29.0002 16.4142L29.0002 18.8069Z" fill="black"/>
<path d="M20.2524 15.0532H21.264L22.7723 13.6304L23.1491 14.0283L21.6816 15.4126V16.258L20.0407 15.2414C20.1111 15.1785 20.1817 15.1158 20.2524 15.0532Z" fill="#D91C16"/>
<path d="M20.8148 15.8217L20.2405 16.357L19.7585 16.0598L20.3336 15.5236L20.8148 15.8217Z" fill="#D91C16"/>
<path d="M23.2655 16.6189L23.8399 16.0836L23.3587 15.7855L22.7836 16.3217L23.2655 16.6189ZM24.7066 16.5199V15.6745L26.1741 14.2902L25.7973 13.8923L24.289 15.315H22.7619L24.7066 16.5199Z" fill="#D91C16"/>
<path d="M21.4599 14.0127V14.5469L21.0953 14.321C21.2165 14.2178 21.338 14.115 21.4599 14.0127Z" fill="#D91C16"/>
<path d="M28.9573 18.7214H27.4161L26.5692 17.9052H24.9044L23.7723 17.3177L23.9913 16.7839L25.0147 17.3213H25.5517L27.1981 15.4171L28.9573 16.4884L28.9573 18.7214Z" fill="#D91C16"/>
<path d="M36.403 4.81824L37.1097 5.25608L37.7488 4.6604L38.3821 5.05088L37.7419 5.64776L38.5639 6.15704H36.7701L35.2243 7.61516L34.7297 7.09292L36.2327 5.67512V4.89147C36.2895 4.86697 36.3462 4.84256 36.403 4.81824Z" fill="black"/>
<path d="M34.8881 5.49194L35.5391 5.89529H34.0319C34.3161 5.75866 34.6015 5.62421 34.8881 5.49194Z" fill="black"/>
<path d="M33.4386 6.18463L32.1995 7.35341L31.8599 6.99471C32.3816 6.71716 32.9079 6.44708 33.4386 6.18463Z" fill="black"/>
<path d="M37.3315 6.96726L37.9706 6.37158L38.6037 6.76206L37.9636 7.35894L38.7855 7.86822H36.9918L35.446 9.32635L34.9515 8.80411L36.4545 7.3863V6.4239L37.3315 6.96726Z" fill="black"/>
<path d="M37.7594 4.76758L37.1851 5.3029L37.6663 5.60098L38.2415 5.06482L37.7594 4.76758ZM36.3183 4.86658V5.71198L34.8509 7.09629L35.2277 7.49421L36.7359 6.07138H38.2631L36.3183 4.86658Z" fill="#D91C16"/>
<path d="M34.7947 5.53516L35.238 5.80981H34.2105C34.4047 5.71724 34.5994 5.62569 34.7947 5.53516Z" fill="#D91C16"/>
<path d="M33.1738 6.31641L32.2026 7.23253L31.9381 6.95319C32.3472 6.73631 32.7592 6.52403 33.1738 6.31641Z" fill="#D91C16"/>
<path d="M37.9811 6.47876L37.4069 7.01408L37.8881 7.31216L38.4631 6.776L37.9811 6.47876ZM36.5401 6.57776V7.42316L35.0727 8.80748L35.4493 9.2054L36.9576 7.78268H38.4849L36.5401 6.57776Z" fill="#D91C16"/>
<path d="M37.1097 15.8684L37.7488 16.4641L38.382 16.0736L37.7418 15.4768L38.5638 14.9675H36.7701L35.2242 13.5093L34.7297 14.0316L36.2327 15.4494V16.4118L37.1097 15.8684Z" fill="black"/>
<path d="M34.0848 16.1299L34.7239 16.7256L35.3571 16.3351L34.7169 15.7382L35.5389 15.2289H33.7452L32.1993 13.7708L31.7048 14.2931L33.2078 15.7109V16.6733L34.0848 16.1299Z" fill="black"/>
<path d="M37.3315 14.1572L37.9706 14.7529L38.6037 14.3625L37.9636 13.7656L38.7855 13.2563H36.9918L35.446 11.7982L34.9515 12.3204L36.4545 13.7382V14.7006L37.3315 14.1572Z" fill="black"/>
<path d="M28.9998 18.8066H30.6185L31.4654 17.9904H33.1165L34.3365 17.3572L34.052 16.6639L32.964 17.2354H32.4875L30.8192 15.306L28.9998 16.414L28.9998 18.8066Z" fill="black"/>
<path d="M37.7594 16.3569L37.1851 15.8216L37.6663 15.5235L38.2415 16.0597L37.7594 16.3569ZM36.3183 16.2579V15.4125L34.8509 14.0282L35.2277 13.6303L36.7359 15.0531H38.2631L36.3183 16.2579Z" fill="#D91C16"/>
<path d="M34.7345 16.6187L34.1602 16.0833L34.6414 15.7853L35.2164 16.3214L34.7345 16.6187ZM33.2934 16.5197V15.6743L31.826 14.2899L32.2028 13.892L33.711 15.3147H35.2382L33.2934 16.5197Z" fill="#D91C16"/>
<path d="M37.9811 14.6458L37.4069 14.1104L37.8881 13.8124L38.4631 14.3485L37.9811 14.6458ZM36.5401 14.5468V13.7014L35.0727 12.317L35.4493 11.9191L36.9576 13.3418H38.4849L36.5401 14.5468Z" fill="#D91C16"/>
<path d="M29.0427 18.7212H30.5839L31.4308 17.905H33.0956L34.2277 17.3174L34.0087 16.7837L32.9853 17.321H32.4483L30.8019 15.4169L29.0427 16.4881L29.0427 18.7212Z" fill="#D91C16"/>
<path d="M38.1885 7.94217L38.9602 7.65381L38.9787 7.66665L39.9752 8.35809V8.54397L41.5712 10.5622L39.9752 12.5805V12.7665L38.9602 13.4707L38.1885 13.1823L38.6595 12.8704V12.277L38.4723 12.0531H37.636V9.07137H38.4723L38.6595 8.84745V8.25405L38.1885 7.94217Z" fill="black"/>
<path d="M39.8894 8.4028L38.9481 7.74976L38.3757 7.9636L38.7451 8.20816V8.8786L38.5123 9.157H37.7217V11.9676H38.5123L38.7451 12.246V12.9165L38.3757 13.161L38.9481 13.3749L39.8894 12.7218L39.8893 12.5508L41.4619 10.5623L39.8893 8.57368L39.8894 8.4028Z" fill="#D91C16"/>
<path d="M22.1542 13.4391C25.3734 10.8193 28.8695 8.52661 32.5918 6.61182L32.8541 6.77275H35.8458V9.23959L37.042 10.175H38.563L39.2286 9.49939L38.7781 9.50287L39.5586 8.86819L39.9931 9.24415V9.42523L40.9254 10.5624L39.9931 11.6994V11.8806L39.5586 12.2565L38.7781 11.6218L39.2286 11.6253L38.563 10.9496H37.042L35.8458 11.8851V14.352H32.8541L29.3796 16.4841V17.0433L29.911 17.3974H30.0793L30.658 17.0102L30.7476 16.7214L31.2003 17.3392L30.3205 18.0784H30.1798L29.1871 18.8068H28.8129L27.8201 18.0784H27.6795L26.7996 17.3392L27.2524 16.7214L27.342 17.0102L27.9205 17.3974H28.0889L28.6204 17.0433V16.4841L25.1459 14.352H22.1542V13.4391Z" fill="black"/>
<path d="M32.2369 6.79593C32.3254 6.74964 32.4141 6.70357 32.5028 6.65771L32.8297 6.85829H35.7601V9.28109L37.0124 10.2605H38.6072L39.333 9.52085V9.41273L39.0073 9.41537L39.5622 8.98337L39.9075 9.28337V9.45605L40.7794 10.5195H40.1442L39.6061 9.91145L39.068 10.5196H36.928L35.509 9.40985V7.11737H32.7607L32.2369 6.79593Z" fill="#FDD406"/>
<path d="M22.2398 13.3695C22.3233 13.3019 22.4069 13.2344 22.4907 13.1672V14.0073H25.2391L28.9569 16.2888V17.3564L28.436 17.7546L28.9568 18.1529V18.7212H28.8409L27.8481 17.9927L27.7106 17.9927L26.916 17.3253L27.2209 16.9091L27.269 17.0644L27.8943 17.483H28.1148L28.7059 17.089V16.4362L25.1701 14.2664H22.2398V13.3695Z" fill="#FDD406"/>
<path d="M29.4231 17.7546L29.0428 17.4639V18.0454L29.4231 17.7546Z" fill="#FDD406"/>
<path d="M39.6061 11.084L39.1825 10.6052H40.0297L39.6061 11.084Z" fill="#FDD406"/>
<path d="M28.9571 18.0454L28.577 17.7547L28.9571 17.4641V18.0454ZM30.1657 17.9928H30.1517L29.1589 18.7213H29.043V18.5725V18.1532L29.564 17.7547L29.0429 17.3562V16.2889L32.7607 14.0074H35.5091V11.7149L36.9281 10.6051H39.0682L39.6061 11.2134L40.1441 10.6051L40.7795 10.6052L39.9075 11.6687V11.8414L39.5622 12.1414L39.0073 11.7094L39.333 11.7119V11.6039L38.6072 10.8641H37.0124L35.7601 11.8435V14.2665H32.8297L29.2939 16.4363V17.0891L29.885 17.4831H30.1055L30.7308 17.0645L30.7789 16.9092L31.0838 17.3254L30.2892 17.9928L30.1657 17.9928ZM39.6061 10.0408L39.1825 10.5196H40.0298L39.6061 10.0408Z" fill="white"/>
<path d="M26.0538 10.5194C27.0023 9.86744 27.9705 9.24204 28.9573 8.64429V10.5194L26.0538 10.5194Z" fill="#1E9A1C"/>
<path d="M29.0431 10.6051L28.9573 10.6051V10.5194L29.0431 10.5193V10.6051Z" fill="#1E9A1C"/>
<path d="M29.0431 10.6051L36.7891 10.6052L35.4235 11.6732V13.9217H32.7366L29.0431 16.1884V10.6051Z" fill="#1E9A1C"/>
<path d="M29.043 8.59241C30.0589 7.9793 31.0945 7.39545 32.1486 6.84204L32.7365 7.20278H35.4234V9.45134L36.789 10.5193L29.043 10.5192V8.59241Z" fill="#D91C16"/>
<path d="M22.5765 13.0984C23.664 12.2296 24.7823 11.3978 25.9295 10.605L28.9572 10.605V16.1884L25.2633 13.9216H22.5765V13.0984Z" fill="#D91C16"/>
<path d="M28.9572 10.605V10.5192L29.043 10.5192V10.605L28.9572 10.605Z" fill="#D91C16"/>
<path d="M26.7667 10.0368C26.9717 9.90018 27.1776 9.76478 27.3844 9.63062L27.4043 9.64941L26.9098 10.1718L26.7667 10.0368Z" fill="black"/>
<path d="M32.9753 13.312L33.6144 13.9076L34.2475 13.5172L33.6075 12.9203L34.4295 12.4111H32.6356L31.0899 10.9529L30.5953 11.4751L32.0983 12.893V13.8553L32.9753 13.312Z" fill="black"/>
<path d="M25.0243 13.312L24.3852 13.9076L23.7521 13.5172L24.3921 12.9203L23.5703 12.4111H25.364L26.9097 10.9529L27.4042 11.4751L25.9012 12.893V13.8553L25.0243 13.312Z" fill="black"/>
<path d="M32.9753 7.81272L33.6144 7.21704L34.2475 7.6074L33.6075 8.20428L34.4295 8.71356H32.6356L31.0899 10.1718L30.5953 9.64945L32.0983 8.23164V7.26936L32.9753 7.81272Z" fill="black"/>
<path d="M26.84 9.98805C26.9514 9.91403 27.063 9.84038 27.175 9.76709L26.9064 10.0508L26.84 9.98805Z" fill="#D91C16"/>
<path d="M33.0508 13.265L33.625 13.8003L34.107 13.5031L33.532 12.9669L33.0508 13.265Z" fill="#D91C16"/>
<path d="M32.184 12.856V13.7013L34.1288 12.4965H32.6016L31.0934 11.0737L30.7166 11.4717L32.184 12.856Z" fill="#D91C16"/>
<path d="M33.6251 7.32422L33.0509 7.85954L33.5321 8.15774L34.1072 7.62158L33.6251 7.32422ZM32.1842 7.42334V8.26862L30.7167 9.65294L31.0935 10.051L32.6018 8.62814H34.1289L32.1842 7.42334ZM24.3748 13.8005L24.949 13.2652L24.4678 12.9671L23.8928 13.5033L24.3748 13.8005ZM25.8158 13.7015V12.8562L27.2832 11.4719L26.9066 11.0739L25.3983 12.4967H23.871L25.8158 13.7015Z" fill="#1E9A1C"/>
<path d="M25.5201 10.8904C26.8281 9.97044 28.1744 9.10138 29.5563 8.28613L32.9717 10.5625L28.9999 13.2095L25.5201 10.8904Z" fill="black"/>
<path d="M29.0429 8.59261C29.1864 8.50598 29.3304 8.41993 29.4747 8.33447L32.7531 10.5195H29.0429V8.59261Z" fill="white"/>
<path d="M26.0537 10.5195C27.0022 9.86758 27.9703 9.24221 28.9571 8.64448V10.5195H26.0537Z" fill="white"/>
<path d="M25.5955 10.8376C25.7065 10.7598 25.8178 10.6823 25.9294 10.6052H28.9571V13.078L25.5955 10.8376Z" fill="white"/>
<path d="M29.0429 10.6052V10.5195H28.9571V10.6052H29.0429Z" fill="white"/>
<path d="M29.0429 10.6052V13.078L32.7533 10.6052H29.0429Z" fill="white"/>
<path d="M27.9379 9.27561C28.1245 9.15743 28.3118 9.04025 28.4998 8.92407H30.0621V9.65187H31.4367V11.4725H30.0621V12.2003H27.9379V11.4725H26.5632V10.1729C26.8245 9.99723 27.0873 9.82354 27.3515 9.65187H27.9379V9.27561Z" fill="black"/>
<path d="M28.0238 9.22148C28.1362 9.15054 28.2488 9.07997 28.3617 9.00977L28.9573 9.00977V10.5195H26.6492V10.1154C26.8387 9.98838 27.0291 9.86244 27.2202 9.73757H28.0238V9.22148Z" fill="#D91C16"/>
<path d="M31.3511 10.5195H29.0431L29.0431 9.00977H29.9765V9.73757H31.3511V10.5195Z" fill="#D91C16"/>
<path d="M26.6492 11.3871V10.6052L28.9573 10.6052V12.1149H28.0238V11.3871H26.6492Z" fill="#D91C16"/>
<path d="M29.9765 12.1149H29.0431V10.6052H31.3511V11.3871H29.9765V12.1149Z" fill="#D91C16"/>
<path d="M35.7762 40.7219V39.5559H38.9738V38.3898H42.1714V27.8536H38.9738V26.6875H35.7762V25.5215H32.5785V24.3555H25.4221V25.5215H22.2244V26.6875H19.0267V27.8536H15.829V38.3898H19.0267V39.5559H22.2244V40.7219H25.4221V41.8879H32.5785V40.7219H35.7762Z" fill="black"/>
<path d="M25.5123 24.4385V25.6037H22.313V26.769H19.1139V27.9342H15.9147V38.305H19.1139V39.4704H22.313V40.6355H25.5123V41.8006H32.493V40.6355H35.6923V39.4704H38.8916V38.305H42.0906V27.9342H38.8916V26.769H35.6923V25.6037H32.493V24.4385H25.5123ZM26.3598 25.2859H31.6455V26.4512H34.8448V27.6164H38.0442V28.7817H41.2431V37.4575H38.0442V38.6229H34.8448V39.788H31.6455V40.9531H26.3598V39.788H23.1605V38.6229H19.9614V37.4575H16.7622V28.7817H19.9614V27.6164H23.1605V26.4512H26.3598V25.2859Z" fill="#FDD406"/>
<path d="M23.2425 39.7037V38.5375H20.0449V37.3716H16.8471V28.8715H20.0449V27.7055H23.2425V26.5395H26.4401V25.3735H31.5603V26.5395H34.7581V27.7055H37.9556V28.8715H41.1533V37.3716H37.9556V38.5375H34.7581V39.7037H31.5603V40.8696H26.4401V39.7037H23.2425Z" fill="#D91C16"/>
<path d="M23.9848 27.4028L23.1565 26.7767V27.9789L22.3634 28.4829L22.3614 27.7304L21.6007 28.4136L20.84 27.7304L20.838 28.4829L19.9591 27.9244V29.039L19.2488 29.5532L19.2468 28.8698L18.403 29.4809L17.5592 28.8698L17.5572 29.5532L16.7612 28.9769V32.3532H15.8288V33.8901H16.7612V37.2664L17.5572 36.69L17.5592 37.3736L18.403 36.7624L19.2467 37.3736L19.2488 36.69L19.959 37.2042V38.3189L20.8379 37.7604L20.84 38.513L21.6006 37.8297L22.3613 38.513L22.3634 37.7604L23.1564 38.2643V39.4666L23.9847 38.8406L23.9865 39.6802L24.7982 38.9543L25.61 39.6802L25.6118 38.8406L26.3543 39.4018V40.684L27.4646 39.672V40.8612L29.0001 39.874L30.5357 40.8612V39.672L31.646 40.684V39.4018L32.3884 38.8406L32.3902 39.6802L33.202 38.9543L34.0138 39.6802L34.0156 38.8406L34.8436 39.4666V38.2643L35.6369 37.7604L35.6389 38.513L36.3997 37.8297L37.1604 38.513L37.1624 37.7604L38.0414 38.3189V37.2042L38.7517 36.69L38.7537 37.3736L39.5974 36.7624L40.4412 37.3736L40.4432 36.69L41.2392 37.2663V33.8901H42.1716V32.3532H41.2392V28.9769L40.4432 29.5532L40.4412 28.8698L39.5974 29.4809L38.7536 28.8698L38.7518 29.5532L38.0415 29.039V27.9244L37.1625 28.4829L37.1605 27.7304L36.3998 28.4136L35.639 27.7304L35.637 28.4829L34.8437 27.9788V26.7767L34.0157 27.4026L34.0139 26.563L33.2021 27.289L32.3903 26.563L32.3885 27.4028L31.646 26.8413V25.5593L30.5358 26.5713V25.3821L29.0002 26.3693L27.4646 25.3821V26.5713L26.3544 25.5593V26.8414L25.6118 27.4028L25.61 26.563L24.7982 27.289L23.9866 26.563L23.9848 27.4028Z" fill="black"/>
<path d="M17.6427 29.7209L17.6447 29.0374L18.4033 29.5868L18.4288 29.5682L19.1618 29.0374L19.1638 29.7209L19.9594 29.145V37.0986L19.1638 36.5227L19.1618 37.2062L18.4033 36.6568L17.6447 37.2062L17.6427 36.5227L16.8471 37.0986V33.8045H15.9147V32.4391H16.8471V29.145L17.6427 29.7209Z" fill="#1E9A1C"/>
<path d="M24.0719 26.7544L24.7984 27.4041L25.5249 26.7544L25.5267 27.5748L26.3544 26.949V39.2945L25.5267 38.6687L25.5249 39.4892L24.7984 38.8395L24.0719 39.4892L24.0703 38.6687L23.2426 39.2945V26.949L24.0703 27.5748L24.0719 26.7544Z" fill="#1E9A1C"/>
<path d="M33.9289 26.7544L33.2024 27.4041L32.4759 26.7544L32.4741 27.5748L31.6465 26.949V39.2945L32.4741 38.6687L32.4759 39.4892L33.2024 38.8395L33.9289 39.4892L33.9307 38.6687L34.7584 39.2945V26.949L33.9307 27.5748L33.9289 26.7544Z" fill="#1E9A1C"/>
<path d="M40.3579 29.7209L40.3559 29.0374L39.5974 29.5868L39.5717 29.5682L38.8387 29.0374L38.8367 29.7209L38.0413 29.145V37.0986L38.8367 36.5227L38.8387 37.2062L39.5974 36.6568L40.3559 37.2062L40.3579 36.5227L41.1534 37.0986V33.8045H42.0858V32.4391H41.1534V29.145L40.3579 29.7209Z" fill="#1E9A1C"/>
<path d="M20.9251 27.9221L21.6006 28.529L22.2761 27.9221L22.2781 28.6388L23.1566 28.0804V38.1629L22.2781 37.6047L22.2761 38.3212L21.6006 37.7145L20.9251 38.3212L20.9231 37.6047L20.0446 38.1629V28.0804L20.9231 28.6388L20.9251 27.9221Z" fill="#FDD406"/>
<path d="M27.5502 26.7653L26.4399 25.7534V40.4899L27.5502 39.4779V40.7042L28.9999 39.7721H29.0001L30.4499 40.7042V39.4779L31.5601 40.4899V25.7534L30.4499 26.7653V25.5391L29.0001 26.4711H28.9999L27.5502 25.5391V26.7653Z" fill="#FDD406"/>
<path d="M37.0753 27.9221L36.3998 28.529L35.7242 27.9221L35.7224 28.6388L34.8438 28.0804V38.1629L35.7224 37.6047L35.7242 38.3212L36.3998 37.7145L37.0753 38.3212L37.0773 37.6047L37.9558 38.1629V28.0804L37.0773 28.6388L37.0753 27.9221Z" fill="#FDD406"/>
<path d="M18.0581 31.6732C18.1552 31.7712 18.2713 31.8207 18.403 31.8207C18.5347 31.8207 18.6507 31.7712 18.7479 31.6732C19.0516 31.3672 19.0618 30.8138 19.0588 30.4155C19.0588 30.4155 18.7077 30.7866 18.6443 30.8535C18.6002 30.7772 18.403 30.4368 18.403 30.4368C18.403 30.4368 18.2059 30.7772 18.1616 30.8535C18.0982 30.7866 17.7471 30.4155 17.7471 30.4155C17.7441 30.8138 17.7544 31.3672 18.0581 31.6732Z" fill="black"/>
<path d="M21.3939 30.816L21.1381 30.5604V30.0511L20.5505 30.5956L21.6008 31.6459L22.651 30.5956L22.0635 30.0511V30.5604L21.8078 30.816V29.9137L22.2608 29.5248L21.6008 28.958L20.9408 29.5248L21.3939 29.9137V30.816Z" fill="black"/>
<path d="M24.5913 29.804L24.3356 29.5483V29.039L23.748 29.5836L24.7983 30.6338L25.8485 29.5836L25.261 29.039V29.5483L25.0052 29.804V28.9016L25.4583 28.5127L24.7983 27.946L24.1383 28.5127L24.5913 28.9016V29.804Z" fill="black"/>
<path d="M18.4033 30.6079C18.4558 30.6984 18.628 30.9959 18.628 30.9959C18.628 30.9959 18.8706 30.7393 18.9697 30.6348C18.9578 31.0846 18.8591 31.4399 18.6874 31.6128C18.6068 31.6939 18.5113 31.7351 18.4033 31.7351C18.2952 31.7351 18.1997 31.6939 18.1193 31.6129C17.9476 31.4399 17.8488 31.0846 17.8369 30.6348C17.9359 30.7394 18.1786 30.9959 18.1786 30.9959C18.2534 30.8665 18.3284 30.7372 18.4033 30.6079Z" fill="white"/>
<path d="M24.9195 28.8624V30.011L25.3467 29.5839V29.2354L25.725 29.5861L24.7983 30.5127L23.8716 29.5861L24.2498 29.2354V29.5839L24.677 30.011V28.8624L24.2699 28.5128L24.7983 28.0591L25.3267 28.5128L24.9195 28.8624Z" fill="white"/>
<path d="M21.7219 29.8743V31.023L22.1491 30.5958V30.2474L22.5273 30.5979L21.6006 31.5247L20.674 30.5979L21.0522 30.2474V30.5958L21.4794 31.023V29.8743L21.0722 29.5248L21.6006 29.071L22.1291 29.5248L21.7219 29.8743Z" fill="#D91C16"/>
<path d="M39.942 31.673C39.845 31.7709 39.7289 31.8205 39.5972 31.8205C39.4655 31.8205 39.3495 31.7709 39.2523 31.673C38.9486 31.367 38.9384 30.8136 38.9414 30.4153C38.9414 30.4153 39.2925 30.7863 39.3558 30.8533C39.4 30.777 39.5972 30.4365 39.5972 30.4365C39.5972 30.4365 39.7943 30.777 39.8386 30.8533C39.902 30.7863 40.2531 30.4153 40.2531 30.4153C40.2561 30.8136 40.2458 31.367 39.942 31.673Z" fill="black"/>
<path d="M36.6065 30.8157L36.8623 30.5601V30.0508L37.4498 30.5954L36.3996 31.6456L35.3493 30.5954L35.9369 30.0508V30.5601L36.1926 30.8157V29.9134L35.7396 29.5245L36.3996 28.9578L37.0596 29.5245L36.6065 29.9134V30.8157Z" fill="black"/>
<path d="M33.4091 29.8038L33.6648 29.548V29.0388L34.2523 29.5833L33.2021 30.6336L32.1518 29.5833L32.7394 29.0388V29.548L32.9952 29.8038V28.9014L32.5421 28.5124L33.2021 27.9458L33.8621 28.5124L33.4091 28.9014V29.8038Z" fill="black"/>
<path d="M39.597 30.6077C39.5446 30.6981 39.3724 30.9956 39.3724 30.9956C39.3724 30.9956 39.1298 30.7391 39.0307 30.6345C39.0425 31.0843 39.1413 31.4396 39.313 31.6125C39.3935 31.6937 39.489 31.7348 39.597 31.7348C39.7052 31.7348 39.8007 31.6937 39.8811 31.6127C40.0528 31.4396 40.1516 31.0843 40.1635 30.6345C40.0645 30.7392 39.8218 30.9956 39.8218 30.9956C39.7469 30.8663 39.6719 30.7369 39.597 30.6077Z" fill="white"/>
<path d="M33.0806 28.8621V30.0108L32.6534 29.5837V29.2352L32.2751 29.5858L33.2018 30.5125L34.1285 29.5858L33.7503 29.2352V29.5837L33.3231 30.0108V28.8621L33.7303 28.5126L33.2018 28.0588L32.6734 28.5126L33.0806 28.8621Z" fill="white"/>
<path d="M36.2782 29.8741V31.0227L35.851 30.5955V30.2472L35.4728 30.5977L36.3995 31.5244L37.3262 30.5977L36.9479 30.2472V30.5955L36.5207 31.0227V29.8741L36.9279 29.5245L36.3995 29.0708L35.8711 29.5245L36.2782 29.8741Z" fill="#D91C16"/>
<path d="M30.2569 30.1873L29.9129 29.7119L30.7951 28.8974L29.9725 28.2216V28.7004L29.6285 28.9947V28.1263L30.4056 27.5535L28.9998 26.5173L27.594 27.5535L28.3712 28.1263V28.9947L28.0272 28.7004V28.2216L27.2045 28.8974L28.0868 29.7119L27.7428 30.1873H30.2569Z" fill="black"/>
<path d="M27.9111 30.1017L28.2013 29.7006L27.3354 28.9014L27.9418 28.4031V28.74L28.4573 29.1811V28.0831L27.7389 27.5537L29.0002 26.624L30.2615 27.5537L29.5432 28.0831V29.1811L30.0586 28.74V28.4031L30.6651 28.9014L29.7993 29.7006L30.0896 30.1017H27.9111Z" fill="#D91C16"/>
<path d="M28.3575 27.5536L28.9999 28.027L29.6424 27.5536L28.9999 27.0801L28.9745 27.0989L28.3575 27.5536Z" fill="black"/>
<path d="M29.0001 27.1868C29.0426 27.218 29.423 27.4984 29.4981 27.5537C29.423 27.609 29.0426 27.8895 29.0001 27.9207C28.9577 27.8895 28.5772 27.609 28.5022 27.5537C28.5772 27.4984 28.9577 27.218 29.0001 27.1868Z" fill="#1E9A1C"/>
<path d="M18.0581 34.5699C18.1552 34.472 18.2713 34.4224 18.403 34.4224C18.5347 34.4224 18.6507 34.472 18.7479 34.5699C19.0516 34.8759 19.0618 35.4294 19.0588 35.8276C19.0588 35.8276 18.7077 35.4566 18.6443 35.3896C18.6002 35.466 18.403 35.8064 18.403 35.8064C18.403 35.8064 18.2059 35.466 18.1616 35.3896C18.0982 35.4566 17.7471 35.8276 17.7471 35.8276C17.7441 35.4294 17.7544 34.8759 18.0581 34.5699Z" fill="black"/>
<path d="M21.3939 35.4272L21.1381 35.6828V36.1921L20.5505 35.6475L21.6008 34.5973L22.651 35.6475L22.0635 36.1921V35.6828L21.8078 35.4272V36.3295L22.2608 36.7184L21.6008 37.2852L20.9408 36.7184L21.3939 36.3295V35.4272Z" fill="black"/>
<path d="M24.5913 36.4392L24.3356 36.6949V37.2042L23.748 36.6596L24.7983 35.6094L25.8485 36.6596L25.261 37.2042V36.6949L25.0052 36.4392V37.3416L25.4583 37.7305L24.7983 38.2971L24.1383 37.7305L24.5913 37.3416V36.4392Z" fill="black"/>
<path d="M18.4033 35.6353C18.4558 35.5448 18.628 35.2473 18.628 35.2473C18.628 35.2473 18.8706 35.5039 18.9697 35.6084C18.9578 35.1586 18.8591 34.8033 18.6874 34.6304C18.6068 34.5493 18.5113 34.5081 18.4033 34.5081C18.2952 34.5081 18.1997 34.5493 18.1193 34.6303C17.9476 34.8033 17.8488 35.1586 17.8369 35.6084C17.9359 35.5037 18.1786 35.2473 18.1786 35.2473C18.2534 35.3767 18.3284 35.506 18.4033 35.6353Z" fill="white"/>
<path d="M24.9195 37.3808V36.2322L25.3467 36.6592V37.0077L25.725 36.6571L24.7983 35.7304L23.8716 36.6571L24.2498 37.0077V36.6592L24.677 36.2322V37.3808L24.2699 37.7304L24.7983 38.1841L25.3267 37.7304L24.9195 37.3808Z" fill="white"/>
<path d="M21.7219 36.3688V35.2202L22.1491 35.6474V35.9958L22.5273 35.6452L21.6006 34.7185L20.674 35.6452L21.0522 35.9958V35.6474L21.4794 35.2202V36.3688L21.0722 36.7184L21.6006 37.1721L22.1291 36.7184L21.7219 36.3688Z" fill="#D91C16"/>
<path d="M39.942 34.5702C39.845 34.4722 39.7289 34.4227 39.5972 34.4227C39.4655 34.4227 39.3495 34.4722 39.2523 34.5702C38.9486 34.8762 38.9384 35.4296 38.9414 35.8279C38.9414 35.8279 39.2925 35.4568 39.3558 35.3899C39.4 35.4662 39.5972 35.8066 39.5972 35.8066C39.5972 35.8066 39.7943 35.4662 39.8386 35.3899C39.902 35.4568 40.2531 35.8279 40.2531 35.8279C40.2561 35.4296 40.2458 34.8762 39.942 34.5702Z" fill="black"/>
<path d="M36.6065 35.4274L36.8623 35.683V36.1923L37.4498 35.6478L36.3996 34.5975L35.3493 35.6478L35.9369 36.1923V35.683L36.1926 35.4274V36.3297L35.7396 36.7186L36.3996 37.2854L37.0596 36.7186L36.6065 36.3297V35.4274Z" fill="black"/>
<path d="M33.4091 36.4394L33.6648 36.6951V37.2044L34.2523 36.6598L33.2021 35.6096L32.1518 36.6598L32.7394 37.2044V36.6951L32.9952 36.4394V37.3418L32.5421 37.7307L33.2021 38.2974L33.8621 37.7307L33.4091 37.3418V36.4394Z" fill="black"/>
<path d="M39.597 35.6355C39.5446 35.545 39.3724 35.2475 39.3724 35.2475C39.3724 35.2475 39.1298 35.5041 39.0307 35.6086C39.0425 35.1589 39.1413 34.8035 39.313 34.6306C39.3935 34.5495 39.489 34.5083 39.597 34.5083C39.7052 34.5083 39.8007 34.5495 39.8811 34.6305C40.0528 34.8035 40.1516 35.1589 40.1635 35.6086C40.0645 35.504 39.8218 35.2475 39.8218 35.2475C39.7469 35.3769 39.6719 35.5063 39.597 35.6355Z" fill="white"/>
<path d="M33.0806 37.381V36.2324L32.6534 36.6595V37.008L32.2751 36.6573L33.2018 35.7307L34.1285 36.6573L33.7503 37.008V36.6595L33.3231 36.2324V37.381L33.7303 37.7306L33.2018 38.1843L32.6734 37.7306L33.0806 37.381Z" fill="white"/>
<path d="M36.2782 36.3691V35.2204L35.851 35.6476V35.996L35.4728 35.6455L36.3995 34.7187L37.3262 35.6455L36.9479 35.996V35.6476L36.5207 35.2204V36.3691L36.9279 36.7186L36.3995 37.1724L35.8711 36.7186L36.2782 36.3691Z" fill="#D91C16"/>
<path d="M30.2569 36.0559L29.9129 36.5313L30.7951 37.3458L29.9725 38.0216V37.5428L29.6285 37.2484V38.1169L30.4056 38.6896L28.9998 39.7258L27.594 38.6896L28.3712 38.1169V37.2484L28.0272 37.5428V38.0216L27.2045 37.3458L28.0868 36.5313L27.7428 36.0559H30.2569Z" fill="black"/>
<path d="M27.9111 36.1414L28.2013 36.5426L27.3354 37.3418L27.9418 37.84V37.5032L28.4573 37.0621V38.1601L27.7389 38.6895L29.0002 39.6191L30.2615 38.6895L29.5432 38.1601V37.0621L30.0586 37.5032V37.84L30.6651 37.3418L29.7993 36.5426L30.0896 36.1414H27.9111Z" fill="#D91C16"/>
<path d="M28.3575 38.6896L28.9999 38.2162L29.6424 38.6896L28.9999 39.1631L28.9745 39.1442L28.3575 38.6896Z" fill="black"/>
<path d="M29.0001 39.0564C29.0426 39.0252 29.423 38.7448 29.4981 38.6894C29.423 38.6341 29.0426 38.3537 29.0001 38.3225C28.9577 38.3537 28.5772 38.6341 28.5022 38.6894C28.5772 38.7448 28.9577 39.0252 29.0001 39.0564Z" fill="#1E9A1C"/>
<path d="M40.3812 32.63H38.9737V32.069H34.6716L31.6767 30.1018H31.664H26.3238L23.329 32.069H19.0268V32.63H17.6193V33.6135H19.0268V34.1745H23.329L26.3238 36.1418H31.6767L34.6716 34.1745H38.9737V33.6135H40.3812V32.63Z" fill="black"/>
<path d="M26.3491 30.1904L23.3512 32.1502H19.1139V32.7116H17.705V33.5273H19.1139V34.0887H23.3512L26.3491 36.0591H31.6563L34.6435 34.0887H38.8914V33.5273H40.3003V32.7116H38.8914V32.1502H34.6435L31.6563 30.1904H26.3491ZM26.4126 30.4764H31.5821L34.3258 32.2773V32.5527H37.3872V33.6968H34.3258V33.9722L31.5821 35.7625H26.4126L23.6796 33.9722V33.6968H20.6076V32.5527H23.6796V32.2773L26.4126 30.4764Z" fill="#D91C16"/>
<path d="M31.5604 30.5652L34.2362 32.3219V32.6336H37.3026V33.6097H34.2362V33.9216L31.5604 35.6783H26.4396L23.7638 33.9216V33.6097H20.6974V32.6336H23.7638V32.3219L26.4396 30.5652H31.5604Z" fill="#D91C16"/>
<path d="M25.1111 34.1195L26.2697 34.9893L27.0318 34.417L26.5888 34.0844L26.2697 34.324L25.9973 34.1195L30.3604 30.8438H29.4743L25.1111 34.1195ZM27.6401 35.3997H28.5262L32.8894 32.1239L31.7309 31.2543L30.9686 31.8264L31.4117 32.1589L31.7309 31.9193L32.0033 32.1239L27.6401 35.3997ZM29.4743 35.3997H30.3602L25.9973 32.1239L26.2697 31.9193L26.5888 32.1589L27.0318 31.8264L26.2697 31.2543L25.1111 32.1239L29.4743 35.3997ZM32.0033 34.1195L31.7309 34.324L31.4117 34.0844L30.9686 34.417L31.7309 34.9893L32.8894 34.1195L28.5262 30.8438H27.6401L32.0033 34.1195Z" fill="black"/>
<path d="M24.2336 33.1217L25.0123 33.6389L25.791 33.1217L25.0123 32.6045L24.2336 33.1217Z" fill="black"/>
<path d="M28.2217 33.1217L29.0004 33.6389L29.779 33.1217L29.0004 32.6045L28.2217 33.1217Z" fill="black"/>
<path d="M33.7673 33.1217L32.9886 33.6389L32.21 33.1217L32.9886 32.6045L33.7673 33.1217Z" fill="black"/>
<path d="M32.7466 34.1194L31.7309 34.882L31.1113 34.4169L31.4117 34.1914L31.7309 34.431L32.146 34.1194L27.897 30.9294H28.4976L32.7466 34.1194ZM30.1033 35.3138H29.5029L25.2539 32.1238L26.2697 31.3612L26.889 31.8263L26.5888 32.0517L26.2697 31.812L25.8545 32.1238L30.1033 35.3138ZM28.4976 35.3138H27.897L32.146 32.1238L31.7309 31.812L31.4117 32.0517L31.1113 31.8263L31.7309 31.3612L32.7466 32.1238L28.4976 35.3138ZM29.5029 30.9294H30.1033L25.8545 34.1194L26.2697 34.431L26.5888 34.1914L26.889 34.4169L26.2697 34.882L25.2539 34.1194L29.5029 30.9294Z" fill="#FDD406"/>
<path d="M25.0122 32.7075L25.6359 33.1218L25.0122 33.536L24.3884 33.1218L25.0122 32.7075Z" fill="#1E9A1C"/>
<path d="M29.0005 32.7075L29.6242 33.1218L29.0005 33.536L28.3768 33.1218L29.0005 32.7075Z" fill="#1E9A1C"/>
<path d="M32.9887 32.7075L32.365 33.1218L32.9887 33.536L33.6124 33.1218L32.9887 32.7075Z" fill="#1E9A1C"/>
<path d="M15.3034 54.8301L14.9979 55.2622L15.5455 55.681L14.9977 56.0999L15.3033 56.532L15.9396 56.6059L16.5558 56.1298L18.0922 57.1057V56.2953L17.1252 55.681L18.0922 55.0668V54.2563L16.5558 55.2323L15.9396 54.7563L15.3034 54.8301Z" fill="black"/>
<path d="M15.3034 52.0146L14.9979 52.4469L15.5455 52.8657L14.9977 53.2845L15.3033 53.7167L15.9396 53.7905L16.5558 53.3144L18.0922 54.2904V53.4798L17.1252 52.8657L18.0922 52.2514V51.4409L16.5558 52.4169L15.9396 51.9408L15.3034 52.0146Z" fill="black"/>
<path d="M15.3034 59.3477L14.9979 58.9156L15.5455 58.4968L14.9977 58.0779L15.3033 57.6457L15.9396 57.5719L16.5558 58.048L18.0922 57.072V57.8825L17.1252 58.4968L18.0922 59.1109V59.9214L16.5558 58.9455L15.9396 59.4216L15.3034 59.3477Z" fill="black"/>
<path d="M42.6971 54.8301L43.0026 55.2622L42.455 55.681L43.0026 56.0999L42.6971 56.532L42.0609 56.6059L41.4447 56.1298L39.9082 57.1057V56.2953L40.8753 55.681L39.9082 55.0668V54.2563L41.4447 55.2323L42.0609 54.7563L42.6971 54.8301Z" fill="black"/>
<path d="M42.6971 52.0146L43.0026 52.4469L42.455 52.8657L43.0026 53.2845L42.6971 53.7167L42.0609 53.7905L41.4447 53.3144L39.9082 54.2904V53.4798L40.8753 52.8657L39.9082 52.2514V51.4409L41.4447 52.4169L42.0609 51.9408L42.6971 52.0146Z" fill="black"/>
<path d="M42.6971 59.3477L43.0026 58.9156L42.455 58.4968L43.0026 58.0779L42.6971 57.6457L42.0609 57.5719L41.4447 58.048L39.9082 57.072V57.8825L40.8753 58.4968L39.9082 59.1109V59.9214L41.4447 58.9455L42.0609 59.4216L42.6971 59.3477Z" fill="black"/>
<path d="M36.5461 47.146V48.3172H37.398V48.8348H38.2349V47.8923H37.4885V47.146H36.5461Z" fill="black"/>
<path d="M39.0571 48.9929V50.164H39.9082V50.6817H40.7459V49.7392H39.9996V48.9929H39.0571Z" fill="black"/>
<path d="M21.4544 47.146V48.3172H20.6023V48.8348H19.7656V47.8923H20.5119V47.146H21.4544Z" fill="black"/>
<path d="M36.5461 64.2166V63.0454H37.398V62.5278H38.2349V63.4702H37.4885V64.2166H36.5461Z" fill="black"/>
<path d="M21.4544 64.2166V63.0454H20.6023V62.5278H19.7656V63.4702H20.5119V64.2166H21.4544Z" fill="black"/>
<path d="M39.0571 62.3697V61.1986H39.9082V60.6809H40.7459V61.6233H39.9996V62.3697H39.0571Z" fill="black"/>
<path d="M18.9434 48.9929V50.164H18.0921V50.6817H17.2546V49.7392H18.0009V48.9929H18.9434Z" fill="black"/>
<path d="M18.9434 62.3697V61.1986H18.0921V60.6809H17.2546V61.6233H18.0009V62.3697H18.9434Z" fill="black"/>
<path d="M32.1511 47.1187C32.0968 47.0659 31.501 46.4875 31.501 46.4875L30.8623 47.0793C30.8623 47.0793 31.3627 47.5649 31.419 47.6196L30.7004 48.3172H31.7672L32.1511 47.9445L32.535 48.3172H33.6017L32.8831 47.6196C32.9394 47.5649 33.4397 47.0793 33.4397 47.0793L32.8012 46.4875C32.5842 46.6977 32.3677 46.9083 32.1511 47.1187Z" fill="black"/>
<path d="M29.0001 47.1187C28.9459 47.0659 28.3501 46.4875 28.3501 46.4875L27.7114 47.0793C27.7114 47.0793 28.2117 47.5649 28.2681 47.6196L27.5496 48.3172H28.6162L29.0001 47.9445L29.384 48.3172H30.4507L29.7322 47.6196C29.7885 47.5649 30.2888 47.0793 30.2888 47.0793L29.6503 46.4875C29.4333 46.6977 29.2168 46.9083 29.0001 47.1187Z" fill="black"/>
<path d="M25.8494 47.1187C25.9037 47.0659 26.4995 46.4875 26.4995 46.4875L27.1382 47.0793C27.1382 47.0793 26.6378 47.5649 26.5815 47.6196L27.3 48.3172H26.2332L25.8494 47.9445L25.4655 48.3172H24.3988L25.1174 47.6196C25.0611 47.5649 24.5607 47.0793 24.5607 47.0793L25.1993 46.4875C25.4163 46.6977 25.6328 46.9083 25.8494 47.1187Z" fill="black"/>
<path d="M32.1511 64.2438C32.0968 64.2965 31.501 64.8749 31.501 64.8749L30.8623 64.2832C30.8623 64.2832 31.3627 63.7977 31.419 63.743L30.7004 63.0454H31.7672L32.1511 63.4181L32.535 63.0454H33.6017L32.8831 63.743C32.9394 63.7977 33.4397 64.2832 33.4397 64.2832L32.8012 64.8749C32.5842 64.6648 32.3677 64.4542 32.1511 64.2438Z" fill="black"/>
<path d="M29.0001 64.2438C28.9459 64.2965 28.3501 64.8749 28.3501 64.8749L27.7114 64.2832C27.7114 64.2832 28.2117 63.7977 28.2681 63.743L27.5496 63.0454H28.6162L29.0001 63.4181L29.384 63.0454H30.4507L29.7322 63.743C29.7885 63.7977 30.2888 64.2832 30.2888 64.2832L29.6503 64.8749C29.4333 64.6648 29.2168 64.4542 29.0001 64.2438Z" fill="black"/>
<path d="M25.8494 64.2438C25.9037 64.2965 26.4995 64.8749 26.4995 64.8749L27.1382 64.2832C27.1382 64.2832 26.6378 63.7977 26.5815 63.743L27.3 63.0454H26.2332L25.8494 63.4181L25.4655 63.0454H24.3988L25.1174 63.743C25.0611 63.7977 24.5607 64.2832 24.5607 64.2832L25.1993 64.8749C25.4163 64.6648 25.6328 64.4542 25.8494 64.2438Z" fill="black"/>
<path d="M18.0065 56.3424V56.9498L16.5509 56.0252L15.9147 56.5168L15.3511 56.4514L15.1154 56.1179L15.6866 55.6811L15.1154 55.2443L15.3512 54.9108L15.9147 54.8454L16.5509 55.337L18.0065 54.4124V55.0197L16.9652 55.6811L18.0065 56.3424Z" fill="#1E9A1C"/>
<path d="M18.0065 53.5269V54.1343L16.5509 53.2097L15.9147 53.7012L15.3511 53.6358L15.1154 53.3024L15.6866 52.8656L15.1154 52.4289L15.3512 52.0954L15.9147 52.0299L16.5509 52.5214L18.0065 51.5969V52.2042L16.9652 52.8656L18.0065 53.5269Z" fill="#1E9A1C"/>
<path d="M18.0065 57.8356V57.2283L16.5509 58.1529L15.9147 57.6612L15.3511 57.7266L15.1154 58.0601L15.6866 58.4969L15.1154 58.9337L15.3512 59.2672L15.9147 59.3326L16.5509 58.8411L18.0065 59.7657V59.1584L16.9652 58.4969L18.0065 57.8356Z" fill="#1E9A1C"/>
<path d="M39.994 56.3424V56.9498L41.4496 56.0252L42.0856 56.5168L42.6493 56.4514L42.8849 56.1179L42.3137 55.6811L42.8849 55.2443L42.6493 54.9108L42.0856 54.8454L41.4496 55.337L39.994 54.4124V55.0197L41.0351 55.6811L39.994 56.3424Z" fill="#1E9A1C"/>
<path d="M39.994 53.5269V54.1343L41.4496 53.2097L42.0856 53.7012L42.6493 53.6358L42.8849 53.3024L42.3137 52.8656L42.8849 52.4289L42.6493 52.0954L42.0856 52.0299L41.4496 52.5214L39.994 51.5969V52.2042L41.0351 52.8656L39.994 53.5269Z" fill="#1E9A1C"/>
<path d="M39.994 57.8356V57.2283L41.4496 58.1529L42.0856 57.6612L42.6493 57.7266L42.8849 58.0601L42.3137 58.4969L42.8849 58.9337L42.6493 59.2672L42.0856 59.3326L41.4496 58.8411L39.994 59.7657V59.1584L41.0351 58.4969L39.994 57.8356Z" fill="#1E9A1C"/>
<path d="M37.4028 47.2317V47.9781H38.1491V48.7491H37.4838V48.2315H36.6318V47.2317H37.4028Z" fill="#1E9A1C"/>
<path d="M39.9138 49.0786V49.8249H40.6601V50.596H39.9947V50.0785H39.1428V49.0786H39.9138Z" fill="#1E9A1C"/>
<path d="M20.5978 47.2317V47.9781H19.8516V48.7491H20.517V48.2315H21.3688V47.2317H20.5978Z" fill="#1E9A1C"/>
<path d="M37.4028 64.1306V63.3843H38.1491V62.6133H37.4838V63.1308H36.6318V64.1306H37.4028Z" fill="#1E9A1C"/>
<path d="M20.5977 64.1306V63.3843H19.8513V62.6133H20.5167V63.1308H21.3687V64.1306H20.5977Z" fill="#1E9A1C"/>
<path d="M39.9138 62.2836V61.5374H40.6601V60.7664H39.9947V61.2839H39.1428V62.2836H39.9138Z" fill="#1E9A1C"/>
<path d="M18.0867 49.0786V49.8249H17.3404V50.596H18.0058V50.0785H18.8577V49.0786H18.0867Z" fill="#1E9A1C"/>
<path d="M18.0869 62.2836V61.5374H17.3405V60.7664H18.0059V61.2839H18.8579V62.2836H18.0869Z" fill="#1E9A1C"/>
<path d="M31.4999 46.6057C31.553 46.6573 32.1513 47.2381 32.1513 47.2381C32.1513 47.2381 32.7495 46.6573 32.8027 46.6057C32.8531 46.6523 33.2598 47.0291 33.3155 47.0807C33.2579 47.1365 32.7602 47.6196 32.7602 47.6196L33.3905 48.2315H32.57L32.1513 47.8249L31.7326 48.2315H30.9121L31.5424 47.6196C31.5424 47.6196 31.0447 47.1365 30.9871 47.0807C31.0428 47.0291 31.4495 46.6523 31.4999 46.6057Z" fill="#1E9A1C"/>
<path d="M28.3489 46.6057C28.402 46.6573 29.0002 47.2381 29.0002 47.2381C29.0002 47.2381 29.5984 46.6573 29.6517 46.6057C29.7021 46.6523 30.1087 47.0291 30.1643 47.0807C30.1069 47.1365 29.6092 47.6196 29.6092 47.6196L30.2395 48.2315H29.4189L29.0002 47.8249L28.5815 48.2315H27.761L28.3912 47.6196C28.3912 47.6196 27.8936 47.1365 27.8361 47.0807C27.8918 47.0291 28.2985 46.6523 28.3489 46.6057Z" fill="#1E9A1C"/>
<path d="M26.5012 46.6057C26.4479 46.6573 25.8497 47.2381 25.8497 47.2381C25.8497 47.2381 25.2515 46.6573 25.1984 46.6057C25.148 46.6523 24.7413 47.0291 24.6856 47.0807C24.7432 47.1365 25.2408 47.6196 25.2408 47.6196L24.6106 48.2315H25.431L25.8497 47.8249L26.2685 48.2315H27.089L26.4587 47.6196C26.4587 47.6196 26.9564 47.1365 27.014 47.0807C26.9583 47.0291 26.5516 46.6523 26.5012 46.6057Z" fill="#1E9A1C"/>
<path d="M31.4999 64.7566C31.553 64.7049 32.1513 64.1241 32.1513 64.1241C32.1513 64.1241 32.7495 64.7049 32.8027 64.7566C32.8531 64.7099 33.2598 64.3331 33.3155 64.2817C33.2579 64.2257 32.7602 63.7427 32.7602 63.7427L33.3905 63.1309H32.57L32.1513 63.5373L31.7326 63.1309H30.9121L31.5424 63.7427C31.5424 63.7427 31.0447 64.2257 30.9871 64.2817C31.0428 64.3331 31.4495 64.7099 31.4999 64.7566Z" fill="#1E9A1C"/>
<path d="M28.3489 64.7566C28.402 64.7049 29.0002 64.1241 29.0002 64.1241C29.0002 64.1241 29.5984 64.7049 29.6517 64.7566C29.7021 64.7099 30.1087 64.3331 30.1643 64.2817C30.1069 64.2257 29.6092 63.7427 29.6092 63.7427L30.2395 63.1309H29.4189L29.0002 63.5373L28.5815 63.1309H27.761L28.3912 63.7427C28.3912 63.7427 27.8936 64.2257 27.8361 64.2817C27.8918 64.3331 28.2985 64.7099 28.3489 64.7566Z" fill="#1E9A1C"/>
<path d="M26.5012 64.7566C26.4479 64.7049 25.8497 64.1241 25.8497 64.1241C25.8497 64.1241 25.2515 64.7049 25.1984 64.7566C25.148 64.7099 24.7413 64.3331 24.6856 64.2817C24.7432 64.2257 25.2408 63.7427 25.2408 63.7427L24.6106 63.1309H25.431L25.8497 63.5373L26.2685 63.1309H27.089L26.4587 63.7427C26.4587 63.7427 26.9564 64.2257 27.014 64.2817C26.9583 64.3331 26.5516 64.7099 26.5012 64.7566Z" fill="#1E9A1C"/>
<path d="M20.5167 61.2841V63.1309H37.4839V61.2841H39.994V50.0782H37.4839V48.2314H20.5167V50.0782H18.0065V61.2841H20.5167Z" fill="black"/>
<path d="M20.6074 48.3155V50.1589H18.0969V61.1969H20.6074V63.0403H37.3976V61.1969H39.9084V50.1588H37.3976V48.3154L20.6074 48.3155ZM21.688 49.0254H36.3173V50.805L36.921 51.2501H39.1986V60.1165H36.9105L36.3173 60.5508V62.341H21.688V60.5613L21.0841 60.1165H18.796V51.2501H21.0736L21.688 50.805L21.688 49.0254Z" fill="#FDD406"/>
<path d="M21.7727 49.1101V50.7416L23.9761 49.1101H21.7727ZM34.0183 49.1101L36.2217 50.7416V49.1101H34.0183ZM18.8914 51.3349V52.8603L20.9676 51.3349H18.8914ZM37.0271 51.3349L39.1139 52.8708V51.3349H37.0271ZM39.1139 58.485L37.0271 60.0318H39.1139V58.485ZM18.8913 58.4955V60.0318H20.9676L18.8913 58.4955ZM21.7727 60.625V62.2457H23.9654L21.7727 60.625ZM36.2216 60.625L34.0291 62.2457H36.2216V60.625Z" fill="#D91C16"/>
<path d="M33.876 49.1118C33.8985 49.1284 39.0791 52.9547 39.1135 52.9801V58.3822C39.0791 58.4077 33.8985 62.2339 33.876 62.2506H24.1241C24.1016 62.2339 18.9211 58.4077 18.8867 58.3822V52.9801C18.9211 52.9547 24.1016 49.1284 24.1241 49.1118H33.876Z" fill="#1E9A1C"/>
<path d="M20.1341 59.0042L19.5319 58.3053L20.0972 57.6493L19.5319 56.9932L20.0972 56.3373L19.5319 55.6813L20.0972 55.0252L19.5319 54.3692L20.0971 53.7131L19.5319 53.0571L20.1341 52.3583H37.8664L38.4685 53.0571L37.9032 53.7131L38.4685 54.3692L37.9032 55.0252L38.4685 55.6813L37.9032 56.3373L38.4685 56.9932L37.9032 57.6493L38.4685 58.3053L37.8664 59.0042H20.1341ZM32.3232 49.9569L31.6243 49.3547L30.9682 49.9201L30.3122 49.3547L29.6562 49.9201L29.0002 49.3547L28.3441 49.9201L27.6881 49.3547L27.0322 49.9201L26.3761 49.3547L25.6772 49.9569V61.4055L26.3761 62.0078L27.0322 61.4425L27.6881 62.0077L28.3441 61.4423L29.0002 62.0077L29.6562 61.4423L30.3122 62.0077L30.9682 61.4425L31.6243 62.0078L32.3232 61.4055V49.9569Z" fill="black"/>
<path d="M30.9253 49.9961L30.3122 49.4678L29.699 49.9961V61.3661L30.3122 61.8944L30.9253 61.3661V49.9961Z" fill="#FDD406"/>
<path d="M28.3012 49.9961L27.688 49.4678L27.075 49.9961V61.3661L27.688 61.8944L28.3012 61.3661V49.9961Z" fill="#FDD406"/>
<path d="M20.1732 58.9185L19.645 58.3053L20.1732 57.6921H37.827L38.3552 58.3053L37.827 58.9185H20.1732Z" fill="#FDD406"/>
<path d="M37.827 55.0679L38.3554 55.6811L37.827 56.2942H20.1734L19.6451 55.6811L20.1734 55.0679H37.827Z" fill="#FDD406"/>
<path d="M37.827 53.6704L38.3552 53.0572L37.827 52.4441H20.1732L19.645 53.0572L20.1732 53.6704H37.827Z" fill="#FDD406"/>
<path d="M32.2375 49.9961L31.6244 49.4678L31.0112 49.9961V61.3661L31.6244 61.8944L32.2374 61.3662L32.2375 49.9961Z" fill="#D91C16"/>
<path d="M26.9893 49.9961L26.3761 49.4678L25.7629 49.9961V61.3661L26.3761 61.8944L26.9893 61.3661V49.9961Z" fill="#D91C16"/>
<path d="M20.1736 57.6063L19.6452 56.9931L20.1736 56.3799H37.8271L38.3555 56.9931L37.8271 57.6063H20.1736Z" fill="#D91C16"/>
<path d="M20.1736 54.9823L19.6452 54.3691L20.1736 53.7559H37.8271L38.3555 54.3691L37.8271 54.9823H20.1736Z" fill="#D91C16"/>
<path d="M29.6136 61.3661L29.0004 61.8944L28.3872 61.3661V49.9961L29.0004 49.4678L29.6136 49.9961V61.3661Z" fill="#D91C16"/>
<path d="M34.9268 50.218H23.0307V51.1628H21.5104V60.1997H23.0307V61.1444H34.9696V60.1997H36.4899V51.1628H34.9696V50.218H34.9268Z" fill="black"/>
<path d="M23.1181 50.3069V51.2499H21.5927V60.1164H23.1181V61.0591H24.3682L21.8788 58.9723V52.3937L24.3682 50.3069H23.1181ZM33.6374 50.3069L36.116 52.3937V58.9723L33.6374 61.0591H34.8872V60.1164H36.4021V51.2499H34.8872V50.3069L33.6374 50.3069Z" fill="#D91C16"/>
<path d="M24.5057 50.3069C24.4822 50.3267 21.9934 52.4109 21.9633 52.4361V58.9297C21.9934 58.9551 24.4822 61.0392 24.5057 61.059H33.4993C33.5229 61.0392 36.001 58.9549 36.0311 58.9297V52.4361C36.001 52.4109 33.523 50.3267 33.4993 50.3069H24.5057ZM24.6328 50.6671H33.3616L35.671 52.6056V58.7603L33.3616 60.6882H24.6328L22.3341 58.7603V52.6056L24.6328 50.6671Z" fill="#1E9A1C"/>
<path d="M26.9447 58.8577L27.3354 59.0265L27.4073 59.4829L26.9154 59.9156L27.6298 60.6064H26.9424L26.4509 60.1333L25.9592 60.6064H25.2717L25.9863 59.9156L25.4943 59.4829L25.5663 59.0265L25.9569 58.8577L26.4509 59.2526L26.4776 59.2312L26.9447 58.8577Z" fill="#1E9A1C"/>
<path d="M29.4943 58.8577L29.8849 59.0265L29.9569 59.4829L29.465 59.9156L30.1795 60.6064H29.4921L29.0004 60.1333L28.5089 60.6064H27.8213L28.5359 59.9156L28.044 59.4829L28.116 59.0265L28.5066 58.8577L29.0004 59.2526L29.0272 59.2312L29.4943 58.8577Z" fill="#1E9A1C"/>
<path d="M31.056 58.8577L30.6655 59.0265L30.5935 59.4829L31.0853 59.9156L30.3708 60.6064H31.0583L31.55 60.1333L32.0415 60.6064H32.729L32.0145 59.9156L32.5064 59.4829L32.4344 59.0265L32.0438 58.8577L31.55 59.2526L31.5231 59.2312L31.056 58.8577Z" fill="#1E9A1C"/>
<path d="M26.9447 52.5045L27.3354 52.3357L27.4073 51.8794L26.9154 51.4467L27.6298 50.7559H26.9424L26.4509 51.2289L25.9592 50.7559H25.2717L25.9863 51.4467L25.4943 51.8793L25.5663 52.3357L25.9569 52.5045L26.4509 52.1097L26.4776 52.1311L26.9447 52.5045Z" fill="#1E9A1C"/>
<path d="M29.4943 52.5045L29.8849 52.3357L29.9569 51.8794L29.465 51.4467L30.1795 50.7559H29.4921L29.0004 51.2289L28.5089 50.7559H27.8213L28.5359 51.4467L28.044 51.8793L28.116 52.3357L28.5066 52.5045L29.0004 52.1097L29.0272 52.1311L29.4943 52.5045Z" fill="#1E9A1C"/>
<path d="M31.056 52.5045L30.6655 52.3357L30.5935 51.8794L31.0853 51.4467L30.3708 50.7559H31.0583L31.55 51.2289L32.0415 50.7559H32.729L32.0145 51.4467L32.5064 51.8793L32.4344 52.3357L32.0438 52.5045L31.55 52.1097L31.5231 52.1311L31.056 52.5045Z" fill="#1E9A1C"/>
<path d="M35.5811 53.2332L35.1911 53.5561L35.5811 53.8789V54.4142L34.9813 53.92C34.9813 53.92 34.578 54.2854 34.5509 54.31C34.5163 54.3056 34.1278 54.2568 34.0894 54.252C34.0722 54.2204 33.9509 53.9968 33.9268 53.952C33.967 53.9119 34.324 53.5561 34.324 53.5561C34.324 53.5561 33.967 53.2002 33.9268 53.1601C33.9509 53.1154 34.0722 52.8916 34.0894 52.8601C34.1278 52.8553 34.5163 52.8064 34.5509 52.802C34.578 52.8266 34.9813 53.1922 34.9813 53.1922L35.5811 52.698V53.2332Z" fill="#1E9A1C"/>
<path d="M35.5811 55.3582L35.1911 55.6811L35.5811 56.0038V56.5392L34.9813 56.045C34.9813 56.045 34.578 56.4104 34.5509 56.435C34.5163 56.4306 34.1278 56.3817 34.0894 56.377C34.0722 56.3454 33.9509 56.1216 33.9268 56.077C33.967 56.0369 34.324 55.6811 34.324 55.6811C34.324 55.6811 33.967 55.3251 33.9268 55.285C33.9509 55.2404 34.0722 55.0166 34.0894 54.985C34.1278 54.9803 34.5163 54.9314 34.5509 54.927C34.578 54.9516 34.9813 55.317 34.9813 55.317L35.5811 54.823V55.3582Z" fill="#1E9A1C"/>
<path d="M35.5811 58.129L35.1911 57.8061L35.5811 57.4833V56.948L34.9813 57.4423C34.9813 57.4423 34.578 57.0768 34.5509 57.0522C34.5163 57.0565 34.1278 57.1054 34.0894 57.1101C34.0722 57.1417 33.9509 57.3655 33.9268 57.4101C33.967 57.4503 34.324 57.8061 34.324 57.8061C34.324 57.8061 33.967 58.162 33.9268 58.2021C33.9509 58.2468 34.0722 58.4706 34.0894 58.5021C34.1278 58.5069 34.5163 58.5558 34.5509 58.5601C34.578 58.5355 34.9813 58.1701 34.9813 58.1701L35.5811 58.6642V58.129Z" fill="#1E9A1C"/>
<path d="M22.4201 53.2332L22.81 53.5561L22.4201 53.8789V54.4142L23.0199 53.92C23.0199 53.92 23.4232 54.2854 23.4503 54.31C23.4847 54.3056 23.8734 54.2568 23.9118 54.252C23.929 54.2204 24.0502 53.9968 24.0744 53.952C24.0342 53.9119 23.6772 53.5561 23.6772 53.5561C23.6772 53.5561 24.0342 53.2002 24.0744 53.1601C24.0502 53.1154 23.929 52.8916 23.9118 52.8601C23.8734 52.8553 23.4847 52.8064 23.4503 52.802C23.4232 52.8266 23.0199 53.1922 23.0199 53.1922L22.4201 52.698V53.2332Z" fill="#1E9A1C"/>
<path d="M22.4201 55.3582L22.81 55.6811L22.4201 56.0038V56.5392L23.0199 56.045C23.0199 56.045 23.4232 56.4104 23.4503 56.435C23.4847 56.4306 23.8734 56.3817 23.9118 56.377C23.929 56.3454 24.0502 56.1216 24.0744 56.077C24.0342 56.0369 23.6772 55.6811 23.6772 55.6811C23.6772 55.6811 24.0342 55.3251 24.0744 55.285C24.0502 55.2404 23.929 55.0166 23.9118 54.985C23.8734 54.9803 23.4847 54.9314 23.4503 54.927C23.4232 54.9516 23.0199 55.317 23.0199 55.317L22.4201 54.823V55.3582Z" fill="#1E9A1C"/>
<path d="M22.4201 58.129L22.81 57.8061L22.4201 57.4833V56.948L23.0199 57.4423C23.0199 57.4423 23.4232 57.0768 23.4503 57.0522C23.4847 57.0565 23.8734 57.1054 23.9118 57.1101C23.929 57.1417 24.0502 57.3655 24.0744 57.4101C24.0342 57.4503 23.6772 57.8061 23.6772 57.8061C23.6772 57.8061 24.0342 58.162 24.0744 58.2021C24.0502 58.2468 23.929 58.4706 23.9118 58.5021C23.8734 58.5069 23.4847 58.5558 23.4503 58.5601C23.4232 58.5355 23.0199 58.1701 23.0199 58.1701L22.4201 58.6642V58.129Z" fill="#1E9A1C"/>
<path d="M24.6647 50.752C24.6415 50.7714 22.5442 52.5273 22.4507 52.6059C22.6397 52.7625 22.8226 52.9264 23.0121 53.0825C23.0601 53.0392 23.4252 52.7117 23.4252 52.7117L23.9655 52.7859L24.1774 53.1778C24.1774 53.1778 23.8478 53.5076 23.796 53.5592C23.8478 53.6106 24.1774 53.9405 24.1774 53.9405L23.9655 54.3325L23.4252 54.396C23.4252 54.396 23.0601 54.0793 23.0121 54.0359L22.4189 54.5337V54.7032C22.6185 54.8684 22.8118 55.0361 23.0121 55.2011C23.0601 55.1578 23.4252 54.8409 23.4252 54.8409L23.9655 54.9045L24.1774 55.2964C24.1774 55.2964 23.8478 55.6262 23.796 55.6778C23.8478 55.7293 24.1774 56.0592 24.1774 56.0592L23.9655 56.4617L23.4252 56.5253C23.4252 56.5253 23.0601 56.1979 23.0121 56.1545L22.4189 56.6524V56.8325L23.0121 57.3303C23.0601 57.287 23.4252 56.9596 23.4252 56.9596L23.9655 57.0337L24.1774 57.4257C24.1774 57.4257 23.8478 57.7554 23.796 57.807C23.8478 57.8586 24.1774 58.1884 24.1774 58.1884L23.9655 58.5803L23.4252 58.6545C23.4252 58.6545 23.0601 58.3272 23.0121 58.2837C22.8233 58.4392 22.639 58.5945 22.4507 58.7498C22.5442 58.8284 24.6415 60.5842 24.6646 60.6037H25.1519L25.8617 59.9151L25.4062 59.5125L25.4909 58.9617L25.9676 58.7604L26.4549 59.1418L26.9316 58.7604L27.4083 58.9617L27.5036 59.5125L27.0375 59.9151L27.7261 60.5719L28.4146 59.9151L27.9485 59.5125L28.0333 58.9617L28.5206 58.7604L28.9973 59.1418L29.4846 58.7604L29.9613 58.9617L30.046 59.5125L29.5905 59.9151L30.2685 60.5825L30.957 59.9151L30.5015 59.5125L30.5863 58.9617L31.0735 58.7604L31.5502 59.1418L32.0269 58.7604L32.5142 58.9617L32.599 59.5125L32.1435 59.9151L32.8532 60.6037H33.3299C33.353 60.5842 35.4502 58.8284 35.5439 58.7498C35.3552 58.5944 35.1714 58.4395 34.9824 58.2837C34.9344 58.3272 34.5799 58.6545 34.5799 58.6545L34.0396 58.5803L33.8172 58.1884C33.8172 58.1884 34.1468 57.8586 34.1985 57.807C34.1468 57.7554 33.8172 57.4257 33.8172 57.4257L34.0396 57.0337L34.5799 56.9596C34.5799 56.9596 34.9344 57.287 34.9824 57.3303L35.5757 56.8325V56.6524L34.9824 56.1545C34.9344 56.1979 34.5799 56.5253 34.5799 56.5253L34.0396 56.4617L33.8172 56.0592C33.8172 56.0592 34.1468 55.7293 34.1985 55.6778C34.1468 55.6262 33.8172 55.2964 33.8172 55.2964L34.0396 54.9045L34.5799 54.8409C34.5799 54.8409 34.9344 55.1578 34.9824 55.2011C35.1813 55.0373 35.3772 54.8771 35.5757 54.7138V54.5231L34.9824 54.0359C34.9344 54.0793 34.5799 54.396 34.5799 54.396L34.0396 54.3325L33.8172 53.9405C33.8172 53.9405 34.1468 53.6106 34.1985 53.5592C34.1468 53.5076 33.8172 53.1778 33.8172 53.1778L34.0396 52.7859L34.5799 52.7117C34.5799 52.7117 34.9344 53.0391 34.9824 53.0825C35.1723 52.9261 35.3647 52.7728 35.5545 52.6164C35.4815 52.5552 33.3532 50.7714 33.3299 50.752H32.8532L32.1434 51.4405L32.599 51.8431L32.5142 52.3939L32.0269 52.6058L31.5502 52.2244L31.0735 52.6058L30.5862 52.3939L30.5015 51.8431L30.957 51.4405L30.279 50.7837L29.5905 51.4405L30.046 51.8431L29.9612 52.3939L29.4846 52.6058L28.9973 52.2244L28.5206 52.6058L28.0333 52.3939L27.9485 51.8431L28.4146 51.4405L27.7261 50.7837L27.0375 51.4405L27.5036 51.8431L27.4083 52.3939L26.9316 52.6058L26.4549 52.2244L25.9676 52.6058L25.4909 52.3939L25.4062 51.8431L25.8617 51.4405L25.1413 50.752L24.6647 50.752ZM22.4189 55.466V55.9003L22.6731 55.6779L22.4189 55.466Z" fill="#D91C16"/>
<path d="M26.4548 60.2542L26.084 60.6036H26.8148L26.4548 60.2542Z" fill="white"/>
<path d="M28.9975 60.2542L28.6375 60.6036H29.3683L28.9975 60.2542Z" fill="white"/>
<path d="M31.5501 60.2542L31.1796 60.6036H31.9209L31.5501 60.2542Z" fill="white"/>
<path d="M26.0735 50.7522L26.4548 51.1122L26.8257 50.7522H26.0735Z" fill="white"/>
<path d="M28.6265 50.7522L28.9973 51.1122L29.3787 50.7522H28.6265Z" fill="white"/>
<path d="M31.1797 50.7522L31.5502 51.1122L31.921 50.7522H31.1797Z" fill="white"/>
<path d="M35.5757 53.3474L35.3214 53.5593L35.5757 53.7606V53.3474Z" fill="white"/>
<path d="M35.5757 55.4661L35.3214 55.6779L35.5757 55.8898V55.4661Z" fill="white"/>
<path d="M35.5757 57.5952L35.3214 57.8071L35.5757 58.0189V57.5952Z" fill="white"/>
<path d="M22.4189 53.3369V53.7712L22.6731 53.5593L22.4189 53.3369Z" fill="white"/>
<path d="M22.4189 55.4661V55.9003L22.6731 55.6779L22.4189 55.4661Z" fill="white"/>
<path d="M22.4189 57.5847V58.019L22.6731 57.8071L22.4189 57.5847Z" fill="white"/>
<path d="M31.181 54.9714V54.2131H30.4136V53.3818H27.5872V54.2131H26.8198V54.9714H25.76V56.391H26.8198V57.1491H27.5872V57.9805H30.4136V57.1491H31.181V56.391H32.2407V54.9714H31.181Z" fill="black"/>
<path d="M28.9574 53.4675V54.3244L27.7425 55.015V55.6383H25.8457V55.057H26.9054V54.2989H27.6728V53.4675H28.9574Z" fill="#FDD406"/>
<path d="M29.0432 57.8949V57.038L30.258 56.3473V55.7241H32.1549V56.3053H31.0952V57.0636H30.3278V57.8949H29.0432Z" fill="#FDD406"/>
<path d="M30.258 55.6383V55.015L29.0432 54.3244V53.4675H30.3278V54.2989H31.0952V55.057H32.1549V55.6383H30.258Z" fill="white"/>
<path d="M25.8458 55.7241H27.7427V56.3473L28.9575 57.038V57.8949H27.6729V57.0636H26.9055V56.3053H25.8458V55.7241Z" fill="white"/>
<path d="M27.8284 55.7241V56.3018L28.9574 56.9438V55.7241H27.8284Z" fill="#D91C16"/>
<path d="M28.9574 54.4187L27.8284 55.0606V55.6383H28.9574V54.4187Z" fill="#1E9A1C"/>
<path d="M30.1724 55.6383V55.0606L29.0433 54.4187V55.6383H30.1724Z" fill="#D91C16"/>
<path d="M29.0432 56.9438L30.1723 56.3018V55.7241H29.0432V56.9438Z" fill="#1E9A1C"/>
<path d="M18.73 70.746V73.0894H16.4969V75.2148H14.2336V81.2665H16.4969V83.392H18.73V85.7353H26.8495L28.2774 86.5933L27.5913 87.0055H24.696L24.4463 86.7239H27.0701L26.3309 85.9795H22.5777L24.2782 87.7499H27.7978L29.0001 87.0275L30.2023 87.7499H33.7222L35.4226 85.9795H31.6695L30.9301 86.7239H33.5541L33.3042 87.0055H30.4089L29.7227 86.5933L31.1507 85.7353H39.2703V83.392H41.5033V81.2665H43.7665V75.2148H41.5033V73.0894H39.2703V70.746H31.1507L29.7227 69.8881L30.4089 69.4758H33.3042L33.5541 69.7574H30.9301L31.6695 70.5018H35.4226L33.7222 68.7314H30.2023L29.0001 69.4538L27.7978 68.7314H24.2782L22.5777 70.5018H26.3309L27.0701 69.7574H24.4463L24.696 69.4758H27.5913L28.2774 69.8881L26.8495 70.746H18.73Z" fill="#D91C16"/>
<path d="M31.1265 85.6461H39.188V83.305H41.4125V81.1758H43.6795V75.2965H41.4125V73.1779H39.188V70.8368H31.1265L27.7791 68.8135H24.3151L22.7791 70.413H26.296L26.8681 69.841H24.2515L24.6541 69.3855H27.6202L31.4126 71.6737H38.3405V74.0148H40.5757V76.144H42.8426V80.3389H40.5757V82.4682H38.3405V84.8093H31.4126L27.6202 87.0868H24.6541L24.2515 86.6419H26.8681L26.296 86.0698H22.7791L24.3151 87.6694H27.7791L31.1265 85.6461ZM26.5821 84.8093H19.6541V82.4682H17.4295V80.3389H15.1626V76.144H17.4295V74.0148H19.6541V71.6737H26.5821L30.385 69.3855H33.3406L33.7431 69.841H31.1372L31.7092 70.4131H35.2261L33.6901 68.8135H30.2261L26.8787 70.8368H18.8172V73.1779H16.5821V75.2965H14.3151V81.1758H16.5821V83.305H18.8172V85.6461H26.8787L30.2261 87.6694H33.6901L35.2261 86.0698H31.7092L31.1372 86.6419H33.7431L33.3406 87.0868H30.385L26.5821 84.8093Z" fill="#FDD406"/>
<path d="M37.669 81.7908V84.1341H31.229L29.0001 85.4733L26.7712 84.1341H20.3313V81.7908H18.0981V79.6652H15.8349V76.8161H18.0981V74.6905H20.3313V72.3473H26.7593H26.7712L29.0001 71.0081L31.229 72.3473H37.669V74.6905H39.9021V76.8161H42.1653V79.6652H39.9021V81.7908H37.669Z" fill="#1E9A1C"/>
<path d="M21.1745 80.9701V83.2381H24.7145L21.1745 80.8901V80.9701Z" fill="black"/>
<path d="M21.1745 75.5118V73.2437H24.7145L21.1745 75.5916V75.5118Z" fill="black"/>
<path d="M36.8261 80.9701V83.2381H33.2861L36.8261 80.8901V80.9701Z" fill="black"/>
<path d="M36.8261 75.5118V73.2437H33.2861L36.8261 75.5916V75.5118Z" fill="black"/>
<path d="M21.2603 81.0498L24.4302 83.1523H21.2603V81.0498Z" fill="#D91C16"/>
<path d="M21.2603 75.4319C21.3836 75.35 24.2142 73.4725 24.4302 73.3293H21.2603V75.4319Z" fill="#D91C16"/>
<path d="M36.7405 81.0498C36.6171 81.1316 33.7864 83.009 33.5706 83.1523H36.7405V81.0498Z" fill="#D91C16"/>
<path d="M36.7405 75.4321C36.6171 75.3504 33.7864 73.4729 33.5706 73.3296H36.7405V75.4321Z" fill="#D91C16"/>
<path d="M25.6897 77.6189V76.4606H25.2947L23.3994 75.2756L23.3767 75.2899L21.5042 76.4606H21.1092V77.6189H20.2182V78.8628H21.1092V80.0209H21.5042L23.3994 81.2059L25.2947 80.0209H25.6897V78.8628H27.0461V77.6189H25.6897Z" fill="black"/>
<path d="M23.3997 75.377L25.1333 76.4608H21.6663L23.3997 75.377ZM25.1331 80.0211L23.3997 81.1049L21.6664 80.0211H25.1331Z" fill="#D91C16"/>
<path d="M24.7131 77.7046V78.7771H22.5513V77.7046H24.7131Z" fill="#D91C16"/>
<path d="M25.6041 78.8625V79.9351H23.4423V78.8625H25.6041Z" fill="#FDD406"/>
<path d="M23.3569 78.8625V79.9351H21.1951V78.8625H23.3569Z" fill="#FDD406"/>
<path d="M26.9606 77.7046V78.7771H24.7988V77.7046H26.9606Z" fill="#FDD406"/>
<path d="M22.4657 77.7046V78.7771H20.3039V77.7046H22.4657Z" fill="#FDD406"/>
<path d="M25.6041 76.5464V77.6188H23.4423V76.5464H25.6041Z" fill="#FDD406"/>
<path d="M23.3569 76.5464V77.6188H21.1951V76.5464H23.3569Z" fill="#FDD406"/>
<path d="M21.8707 77.9429V78.5388H20.8997V77.9429H21.8707Z" fill="black"/>
<path d="M22.7619 76.7847V77.3806H21.7908V76.7847H22.7619Z" fill="black"/>
<path d="M25.0089 76.7847V77.3806H24.0378V76.7847H25.0089Z" fill="black"/>
<path d="M24.1181 77.9429V78.5388H23.147V77.9429H24.1181Z" fill="black"/>
<path d="M26.3653 77.9429V78.5388H25.3943V77.9429H26.3653Z" fill="black"/>
<path d="M25.0089 79.1011V79.697H24.0378V79.1011H25.0089Z" fill="black"/>
<path d="M22.7619 79.1011V79.697H21.7908V79.1011H22.7619Z" fill="black"/>
<path d="M21.7789 78.0342H20.9908V78.4472H21.7789V78.0342Z" fill="white"/>
<path d="M22.6701 76.876H21.882V77.289H22.6701V76.876Z" fill="white"/>
<path d="M24.9173 76.876H24.1292V77.289H24.9173V76.876Z" fill="white"/>
<path d="M24.0263 78.0342H23.2382V78.4472H24.0263V78.0342Z" fill="white"/>
<path d="M26.2739 78.0342H25.4857V78.4472H26.2739V78.0342Z" fill="white"/>
<path d="M24.9173 79.1924H24.1292V79.6054H24.9173V79.1924Z" fill="white"/>
<path d="M22.6701 79.1924H21.882V79.6054H22.6701V79.1924Z" fill="white"/>
<path d="M32.3107 77.6189V76.4606H32.7057L34.601 75.2756L34.6237 75.2899L36.4962 76.4606H36.8912V77.6189H37.7822V78.8628H36.8912V80.0209H36.4962L34.601 81.2059L32.7057 80.0209H32.3107V78.8628H30.9543V77.6189H32.3107Z" fill="black"/>
<path d="M34.6009 75.377L32.8673 76.4608H36.3344L34.6009 75.377ZM32.8676 80.0211L34.6009 81.1049L36.3342 80.0211H32.8676Z" fill="#D91C16"/>
<path d="M33.2874 77.7046V78.7771H35.4492V77.7046H33.2874Z" fill="#D91C16"/>
<path d="M32.3963 78.8625V79.9351H34.5581V78.8625H32.3963Z" fill="#FDD406"/>
<path d="M34.6437 78.8625V79.9351H36.8055V78.8625H34.6437Z" fill="#FDD406"/>
<path d="M31.04 77.7046V78.7771H33.2018V77.7046H31.04Z" fill="#FDD406"/>
<path d="M35.5347 77.7046V78.7771H37.6965V77.7046H35.5347Z" fill="#FDD406"/>
<path d="M32.3963 76.5464V77.6188H34.5581V76.5464H32.3963Z" fill="#FDD406"/>
<path d="M34.6437 76.5464V77.6188H36.8055V76.5464H34.6437Z" fill="#FDD406"/>
<path d="M36.1299 77.9429V78.5388H37.101V77.9429H36.1299Z" fill="black"/>
<path d="M35.2389 76.7847V77.3806H36.21V76.7847H35.2389Z" fill="black"/>
<path d="M32.9917 76.7847V77.3806H33.9628V76.7847H32.9917Z" fill="black"/>
<path d="M33.8827 77.9429V78.5388H34.8538V77.9429H33.8827Z" fill="black"/>
<path d="M31.6353 77.9429V78.5388H32.6063V77.9429H31.6353Z" fill="black"/>
<path d="M32.9917 79.1011V79.697H33.9628V79.1011H32.9917Z" fill="black"/>
<path d="M35.2389 79.1011V79.697H36.21V79.1011H35.2389Z" fill="black"/>
<path d="M36.2216 78.0342H37.0098V78.4472H36.2216V78.0342Z" fill="white"/>
<path d="M35.3306 76.876H36.1188V77.289H35.3306V76.876Z" fill="white"/>
<path d="M33.0832 76.876H33.8713V77.289H33.0832V76.876Z" fill="white"/>
<path d="M33.9743 78.0342H34.7625V78.4472H33.9743V78.0342Z" fill="white"/>
<path d="M31.7269 78.0342H32.515V78.4472H31.7269V78.0342Z" fill="white"/>
<path d="M33.0832 79.1924H33.8713V79.6054H33.0832V79.1924Z" fill="white"/>
<path d="M35.3306 79.1924H36.1188V79.6054H35.3306V79.1924Z" fill="white"/>
<path d="M31.2906 75.6841V76.8422H30.8956L29.0003 78.0272L28.9776 78.013L27.1051 76.8422H26.7101V75.6841H25.5864V74.4402H26.7101V73.282H27.1051L29.0003 72.0969L30.8956 73.282H31.2906V74.4402H32.4143V75.6841H31.2906Z" fill="black"/>
<path d="M29.0004 77.9261L30.7339 76.8421H27.267L29.0004 77.9261ZM30.7338 73.282L29.0004 72.198L27.2671 73.282H30.7338Z" fill="#FDD406"/>
<path d="M31.205 74.4401V73.3677H29.0432V74.4401H31.205Z" fill="#D91C16"/>
<path d="M28.9577 74.4401V73.3677H26.7959V74.4401H28.9577Z" fill="#D91C16"/>
<path d="M32.3285 75.5984V74.5259H30.1667V75.5984H32.3285Z" fill="#D91C16"/>
<path d="M30.0812 75.5984V74.5259H27.9194V75.5984H30.0812Z" fill="#D91C16"/>
<path d="M27.8338 75.5984V74.5259H25.6721V75.5984H27.8338Z" fill="#D91C16"/>
<path d="M31.205 76.7564V75.6838H29.0432V76.7564H31.205Z" fill="#D91C16"/>
<path d="M28.9577 76.7566V75.6841H26.7959V76.7566H28.9577Z" fill="#D91C16"/>
<path d="M28.3622 73.606V74.2019H27.3911V73.606H28.3622Z" fill="black"/>
<path d="M30.6096 73.606V74.2019H29.6385V73.606H30.6096Z" fill="black"/>
<path d="M27.2384 74.7642V75.3601H26.2673V74.7642H27.2384Z" fill="black"/>
<path d="M29.4859 74.7642V75.3601H28.5149V74.7642H29.4859Z" fill="black"/>
<path d="M31.7335 74.7642V75.3601H30.7625V74.7642H31.7335Z" fill="black"/>
<path d="M28.3622 75.9224V76.5183H27.3911V75.9224H28.3622Z" fill="black"/>
<path d="M30.6096 75.9224V76.5183H29.6385V75.9224H30.6096Z" fill="black"/>
<path d="M28.2708 73.6973H27.4827V74.1103H28.2708V73.6973Z" fill="white"/>
<path d="M30.5183 73.6973H29.7301V74.1103H30.5183V73.6973Z" fill="white"/>
<path d="M27.147 74.8555H26.3589V75.2685H27.147V74.8555Z" fill="white"/>
<path d="M29.3946 74.8555H28.6064V75.2685H29.3946V74.8555Z" fill="white"/>
<path d="M31.6419 74.8555H30.8538V75.2685H31.6419V74.8555Z" fill="white"/>
<path d="M28.2708 76.0137H27.4827V76.4267H28.2708V76.0137Z" fill="white"/>
<path d="M30.5183 76.0137H29.7301V76.4267H30.5183V76.0137Z" fill="white"/>
<path d="M31.2906 82.0417V83.1999H30.8956L29.0003 84.3849L28.9776 84.3707L27.1051 83.1999H26.7101V82.0417H25.5864V80.7978H26.7101V79.6397H27.1051L29.0003 78.4546L30.8956 79.6397H31.2906V80.7978H32.4143V82.0417H31.2906Z" fill="black"/>
<path d="M29.0004 84.2837L30.7339 83.1998H27.267L29.0004 84.2837ZM30.7338 79.6396L29.0004 78.5557L27.2671 79.6396H30.7338Z" fill="#FDD406"/>
<path d="M31.205 80.7978V79.7253H29.0432V80.7978H31.205Z" fill="#D91C16"/>
<path d="M28.9577 80.7978V79.7253H26.7959V80.7978H28.9577Z" fill="#D91C16"/>
<path d="M32.3285 81.9559V80.8833H30.1667V81.9559H32.3285Z" fill="#D91C16"/>
<path d="M30.0812 81.9559V80.8833H27.9194V81.9559H30.0812Z" fill="#D91C16"/>
<path d="M27.8338 81.9559V80.8833H25.6721V81.9559H27.8338Z" fill="#D91C16"/>
<path d="M31.205 83.1141V82.0415H29.0432V83.1141H31.205Z" fill="#D91C16"/>
<path d="M28.9577 83.1141V82.0415H26.7959V83.1141H28.9577Z" fill="#D91C16"/>
<path d="M28.3622 79.9636V80.5595H27.3911V79.9636H28.3622Z" fill="black"/>
<path d="M30.6096 79.9636V80.5595H29.6385V79.9636H30.6096Z" fill="black"/>
<path d="M27.2384 81.1218V81.7177H26.2673V81.1218H27.2384Z" fill="black"/>
<path d="M29.4859 81.1218V81.7177H28.5149V81.1218H29.4859Z" fill="black"/>
<path d="M31.7335 81.1218V81.7177H30.7625V81.1218H31.7335Z" fill="black"/>
<path d="M28.3622 82.28V82.876H27.3911V82.28H28.3622Z" fill="black"/>
<path d="M30.6096 82.28V82.876H29.6385V82.28H30.6096Z" fill="black"/>
<path d="M28.2708 80.0549H27.4827V80.468H28.2708V80.0549Z" fill="white"/>
<path d="M30.5183 80.0549H29.7301V80.468H30.5183V80.0549Z" fill="white"/>
<path d="M27.147 81.2131H26.3589V81.6262H27.147V81.2131Z" fill="white"/>
<path d="M29.3946 81.2131H28.6064V81.6262H29.3946V81.2131Z" fill="white"/>
<path d="M31.6419 81.2131H30.8538V81.6262H31.6419V81.2131Z" fill="white"/>
<path d="M28.2708 82.3713H27.4827V82.7844H28.2708V82.3713Z" fill="white"/>
<path d="M30.5183 82.3713H29.7301V82.7844H30.5183V82.3713Z" fill="white"/>
<path d="M21.0824 105.668C19.5665 104.375 18.1157 103.008 16.7357 101.572V95.8708L25.146 91.3445H32.8539L41.2642 95.8708V103.329L32.8539 107.855H25.146L21.0824 105.668Z" fill="black"/>
<path d="M20.7571 105.388L25.1733 107.765H32.832L41.1798 103.273V95.9217L32.832 91.4302H25.1733L16.8258 95.9217V101.665C17.0207 101.867 17.2169 102.068 17.4146 102.267V96.2817L25.3215 92.0339H32.6838L40.5865 96.2817V102.924L32.6838 107.172H25.317L18.9231 103.735C19.5229 104.298 20.1344 104.85 20.7571 105.388Z" fill="#1E9A1C"/>
<path d="M29.043 99.5567V107.085H32.6621L40.4987 102.867V99.6425L28.9573 99.6425V92.1145H25.3384L17.5016 96.3318V99.5567L29.043 99.5567Z" fill="#FDD406"/>
<path d="M18.6719 103.497C18.2766 103.121 17.8865 102.741 17.5016 102.354V99.6425L28.9573 99.6425V107.085H25.3383L18.6719 103.497Z" fill="white"/>
<path d="M29.0429 99.5567V99.6425H28.9573V99.5567H29.0429Z" fill="white"/>
<path d="M29.0429 99.5567V92.1145H32.662L40.4986 96.3318V99.5567L29.0429 99.5567Z" fill="white"/>
<path d="M29.7034 106.663V104.488L29 104.934L28.2964 104.488V106.663H26.1081L27.5847 105.58V104.036L25.3328 102.607H23.7592V96.5926H25.3328L27.5847 95.1638V93.6193L26.1081 92.5364H26.239H28.2964V94.7123L29 94.2659L29.7034 94.7123V92.5364H31.8919L30.4151 93.6193V95.1638L32.6671 96.5926H34.2406V102.607H32.6671L30.4151 104.036V105.58L31.8919 106.663H29.7034Z" fill="black"/>
<path d="M29.7919 92.627V94.8727L29.0397 94.3961V95.0317L32.4825 97.2242H33.616V99.5551H34.1564V96.6737H32.6414L30.3323 95.2117V93.5802L31.635 92.627H29.7919ZM23.8491 99.6398V102.521H25.3533L27.6733 103.993V105.625L26.3703 106.578H28.2136V104.332L28.955 104.809V104.152L25.5123 101.981H24.3893V99.6398L23.8491 99.6398Z" fill="#FDD406"/>
<path d="M26.37 92.627L27.6731 93.5802V95.2117L25.3531 96.6737H23.8488V99.5551H24.3891V97.2242H25.512L28.9548 95.0422V94.3961L28.2134 94.8727V92.627L26.37 92.627ZM33.6158 99.6398V101.981H32.4822L29.0395 104.152V104.809L29.7917 104.332V106.578H31.6347L30.332 105.625V103.993L32.6412 102.521H34.1561V99.6398L33.6158 99.6398Z" fill="white"/>
<path d="M24.4711 101.892H25.5386L29.0001 104.088L32.4615 101.892H33.5291V97.3084H32.474H32.4615L29.0001 95.1123L25.5386 97.3084H24.4711V101.892Z" fill="#D91C16"/>
<path d="M31.3961 100.689H32.1352V100.339H31.5792V99.7038H32.7675V101.325H31.6283L31.6284 102.431H29.2835V100.842H30.3155V101.477H29.9158V101.795H30.9961V101.188L26.6039 98.511H25.8648V98.8605H26.4209V99.4962H25.2325V97.8752H26.3717V96.7693H26.4145H28.7165V98.3583H27.6845V97.7227H28.0842V97.4049H27.004V98.0125L31.3961 100.689ZM30.9961 98.0125V97.4049H29.9158V97.7227H30.3155V98.3583H29.2835V96.7693H31.6284V97.8752H32.7675V99.4962H31.5792V98.8605H32.1353V98.511H31.3961L27.004 101.188V101.795H28.0842V101.477H27.6845V100.842H28.7165V102.431H26.3717V101.325H25.2325V99.7038H26.4209V100.339H25.8648V100.689H26.6039L30.9961 98.0125Z" fill="black"/>
<path d="M31.0817 101.139V101.881H29.8299V101.392H30.2297V100.927H29.3691V102.345H31.5425V101.239H32.6817V99.7896H31.6648V100.254H32.2208V100.775H31.372L26.9181 98.0606V97.3193H28.1699V97.8084H27.7702V98.2727H28.6307V96.855H26.4573V97.9609H25.3182V99.4105H26.335V98.9462H25.779V98.4252H26.6278L31.0817 101.139ZM31.372 98.4252H32.2209V98.9462H31.6648V99.4105H32.6817V97.9609H31.5426V96.855H29.3692V98.2727H30.2297V97.8084H29.83V97.3193H31.0817V98.0606L26.6278 100.775H25.779V100.254H26.335V99.7895H25.3182V101.239H26.4573V102.345H28.6307V100.927H27.7702V101.392H28.1699V101.881H26.9181V101.139L31.372 98.4252Z" fill="white"/>
<path d="M38.809 99.9766V102.329H37.808V101.498H36.7989V102.329H35.7979V99.9766H36.7989V100.807H37.808V99.9766H38.809Z" fill="black"/>
<path d="M35.2272 103.1V105.452H34.2262V104.621H33.2171V105.452H32.2161V103.1H33.2171V103.93H34.2262V103.1H35.2272Z" fill="black"/>
<path d="M38.809 99.2225V96.8701H37.808V97.7009H36.7989V96.8701H35.7979V99.2225H36.7989V98.3917H37.808V99.2225H38.809Z" fill="black"/>
<path d="M19.1914 99.9766V102.329H20.1924V101.498H21.2015V102.329H22.2026V99.9766H21.2015V100.807H20.1924V99.9766H19.1914Z" fill="black"/>
<path d="M19.1914 99.2225V96.8701H20.1924V97.7009H21.2015V96.8701H22.2026V99.2225H21.2015V98.3917H20.1924V99.2225H19.1914Z" fill="black"/>
<path d="M35.2272 96.0997V93.7473H34.2262V94.5781H33.2171V93.7473H32.2161V96.0997H33.2171V95.2689H34.2262V96.0997H35.2272Z" fill="black"/>
<path d="M22.7735 103.1V105.452H23.7745V104.621H24.7836V105.452H25.7847V103.1H24.7836V103.93H23.7745V103.1H22.7735Z" fill="black"/>
<path d="M22.7735 96.0997V93.7473H23.7745V94.5781H24.7836V93.7473H25.7847V96.0997H24.7836V95.2689H23.7745V96.0997H22.7735Z" fill="black"/>
<path d="M35.8242 94.4512V96.2376H39.1437L35.8242 94.4512Z" fill="black"/>
<path d="M22.1761 104.748V102.962H18.8566L22.1761 104.748Z" fill="black"/>
<path d="M22.1761 94.4512V96.2376H18.8566L22.1761 94.4512Z" fill="black"/>
<path d="M35.8242 104.748V102.962H39.1437L35.8242 104.748Z" fill="black"/>
<path d="M37.8935 101.413V102.243H38.7232V100.062H37.8935V100.893H36.713V100.062H35.8834V102.243H36.713V101.413H37.8935Z" fill="#D91C16"/>
<path d="M34.3116 104.535V105.366H35.1412V103.185H34.3116V104.016H33.1311V103.185H32.3015V105.366H33.1311V104.535H34.3116Z" fill="#D91C16"/>
<path d="M37.8935 97.7866V96.9558H38.7232V99.1367H37.8935V98.3058H36.713V99.1367H35.8834V96.9558H36.713V97.7866H37.8935Z" fill="#D91C16"/>
<path d="M20.1066 101.413V102.243H19.277V100.062H20.1066V100.893H21.2872V100.062H22.1167V102.243H21.2872V101.413H20.1066Z" fill="#D91C16"/>
<path d="M20.1066 97.7866V96.9558H19.277V99.1367H20.1066V98.3058H21.2872V99.1367H22.1167V96.9558H21.2872V97.7866H20.1066Z" fill="#D91C16"/>
<path d="M34.3116 94.6639V93.833H35.1412V96.014H34.3116V95.1831H33.1311V96.014H32.3015V93.833H33.1311V94.6639H34.3116Z" fill="#D91C16"/>
<path d="M23.6886 104.535V105.366H22.859V103.185H23.6886V104.016H24.8691V103.185H25.6988V105.366H24.8691V104.535H23.6886Z" fill="#D91C16"/>
<path d="M23.6886 94.6639V93.833H22.859V96.014H23.6886V95.1831H24.8691V96.014H25.6988V93.833H24.8691V94.6639H23.6886Z" fill="#D91C16"/>
<path d="M35.9146 94.5972V96.1545H38.8068L35.9146 94.5972ZM19.1986 103.051L22.0905 104.608V103.051H19.1986Z" fill="#FDD406"/>
<path d="M22.0904 94.5972L19.1984 96.1545H22.0904V94.5972ZM35.9144 103.051V104.608L38.8066 103.051H35.9144Z" fill="white"/>
<path d="M38.6045 116.073C39.0054 115.896 39.3837 115.664 39.7526 115.415C39.4393 115.444 39.1378 115.405 38.8371 115.366C38.5857 115.333 38.3348 115.301 38.0779 115.308C37.7537 115.317 37.4495 115.398 37.1501 115.496C37.6318 115.694 38.1166 115.887 38.6045 116.073Z" fill="#FDD406"/>
<path d="M36.2349 115.11C35.988 115.003 35.742 114.895 35.4968 114.785C35.9283 114.126 36.3552 113.66 37.1968 113.551C36.945 113.834 36.7683 114.165 36.5915 114.496C36.5205 114.63 36.4494 114.763 36.3735 114.893C36.33 114.967 36.2838 115.04 36.2349 115.11Z" fill="#FDD406"/>
<path d="M42.1763 107.066C42.3403 106.777 42.5037 106.49 42.58 106.165C42.7416 105.476 42.6277 104.802 42.0989 104.326C42.0685 104.647 41.9128 104.914 41.756 105.183C41.6228 105.412 41.4889 105.642 41.4304 105.907C41.2601 106.678 41.4709 107.277 41.7159 107.973C41.7269 108.004 41.7381 108.036 41.7492 108.067C41.8167 107.698 41.9969 107.381 42.1763 107.066Z" fill="#FDD406"/>
<path d="M40.9534 110.421C41.6419 110.107 42.2655 109.635 42.714 109.02C43.0406 108.572 43.1633 108.027 43.2833 107.495C43.2997 107.422 43.3161 107.349 43.333 107.277C42.8064 107.569 42.348 108.016 42.064 108.551C42.0393 108.6 42.0152 108.65 41.9911 108.699C41.8336 109.024 41.6783 109.344 41.376 109.568C41.3296 109.04 41.1315 108.675 40.8301 108.264C40.6264 108 40.4527 107.744 40.3235 107.436C40.0462 108.029 40.212 108.535 40.5522 109.049C40.8346 109.477 41.089 109.883 40.9534 110.421Z" fill="#FDD406"/>
<path d="M40.3584 111.89C40.3769 111.533 40.2942 111.195 40.1983 110.853C40.1791 110.789 40.1596 110.725 40.1402 110.662C40.0207 110.273 39.9072 109.903 39.9123 109.483C39.5196 109.924 39.3531 110.512 39.5251 111.091C39.5546 111.177 39.5848 111.262 39.6146 111.346C39.7939 111.85 39.9607 112.319 39.882 112.884C40.2032 112.628 40.5621 112.437 40.9205 112.246C41.2465 112.073 41.5721 111.9 41.8686 111.678C42.4576 111.237 42.7678 110.646 42.8261 109.921C42.5662 110.249 42.2327 110.479 41.8978 110.71C41.729 110.827 41.5598 110.944 41.3995 111.073C41.3149 111.135 41.2279 111.196 41.1403 111.258C40.8644 111.451 40.5834 111.648 40.3584 111.89Z" fill="#FDD406"/>
<path d="M38.3314 114.007C38.5222 113.713 38.714 113.418 38.8012 113.08C38.9142 112.642 38.8129 112.25 38.599 111.866C38.4761 112.255 38.2719 112.611 38.069 112.964C38.028 113.036 37.9871 113.107 37.9469 113.178C37.6387 113.766 37.4442 114.469 37.3338 115.121C37.8913 114.896 38.3501 114.841 38.7916 114.788C39.1127 114.75 39.4246 114.713 39.7587 114.612C40.9191 114.262 41.7123 113.575 42.0323 112.39C41.6095 112.726 41.1313 112.947 40.6513 113.169C40.4013 113.285 40.1508 113.401 39.9075 113.534C39.8305 113.577 39.7538 113.621 39.6771 113.665C39.1596 113.96 38.6438 114.254 38.0692 114.433C38.1485 114.288 38.2398 114.148 38.3314 114.007Z" fill="#FDD406"/>
</g>
<defs>
<clipPath id="clip0_909_227418">
<rect width="120" height="120" fill="white"/>
</clipPath>
</defs>
</svg>
