<svg width="120" height="120" viewBox="0 0 120 120" fill="none" xmlns="http://www.w3.org/2000/svg">
<g clip-path="url(#clip0_909_222514)">
<path d="M120 60C120 93.1371 93.1371 120 60 120C26.8629 120 0 93.1371 0 60C0 26.8629 26.8629 0 60 0C93.1371 0 120 26.8629 120 60Z" fill="#D91C16"/>
<path d="M39.2571 3.68213L105.501 99.1125C98.9069 106.776 90.4098 112.756 80.7429 116.318L14.4991 20.8873C21.0931 13.2233 29.5903 7.24379 39.2571 3.68213Z" fill="white"/>
<path d="M34.5167 5.66479L101.987 102.862C97.1973 107.554 91.6248 111.45 85.4835 114.335L18.0135 17.1381C22.8029 12.4459 28.3753 8.55009 34.5167 5.66479Z" fill="black"/>
</g>
<defs>
<clipPath id="clip0_909_222514">
<rect width="120" height="120" fill="white"/>
</clipPath>
</defs>
</svg>
