<svg width="120" height="120" viewBox="0 0 120 120" fill="none" xmlns="http://www.w3.org/2000/svg">
<circle cx="60" cy="60" r="60" fill="#54AEF2"/>
<path d="M111.001 28.3788L112.435 32.7931L106.811 28.7072L101.188 32.7931L103.336 26.1821L97.7123 22.0963H104.663L105.177 20.5145C107.323 22.9678 109.273 25.5974 111.001 28.3788Z" fill="#FDD406"/>
<path d="M21.0154 105.611C22.7955 107.134 24.6659 108.554 26.6174 109.863L32.1983 105.809H25.2472L23.0991 99.1977L21.0154 105.611Z" fill="#FDD406"/>
<path d="M87.7032 51.9086L85.5552 45.2977H78.604L84.2276 41.2119L82.0795 34.6009L87.7032 38.6867L93.3268 34.6009L91.1788 41.2119L96.8023 45.2977H89.8512L87.7032 51.9086Z" fill="#FDD406"/>
<path d="M66.4469 52.577L68.5949 59.1879L70.743 52.577H77.6941L72.0705 48.4912L74.2186 41.8802L68.5949 45.9661L62.9713 41.8802L65.1194 48.4912L59.4958 52.577H66.4469Z" fill="#FDD406"/>
<path d="M45.847 90.1251L43.699 83.5142H36.7479L42.3714 79.4284L40.2234 72.8174L45.847 76.9032L51.4707 72.8174L49.3226 79.4284L54.9462 83.5142H47.9951L45.847 90.1251Z" fill="#FDD406"/>
<path d="M43.699 106.262L45.847 112.873L47.9951 106.262H54.9462L49.3226 102.176L51.4707 95.5653L45.847 99.6511L40.2234 95.5653L42.3714 102.176L36.7479 106.262H43.699Z" fill="#FDD406"/>
<path d="M68.5949 106.504L66.4469 99.8927H59.4958L65.1194 95.8069L62.9713 89.1959L68.5949 93.2817L74.2186 89.1959L72.0705 95.8069L77.6941 99.8927H70.743L68.5949 106.504Z" fill="#FDD406"/>
<path d="M89.8512 77.6012L87.7032 70.9903L85.5552 77.6012H78.604L84.2276 81.687L82.0795 88.298L87.7032 84.2121L93.3268 88.298L91.1788 81.687L96.8023 77.6012H89.8512Z" fill="#FDD406"/>
<path d="M106.811 59.1614L108.959 65.7723H115.911L110.287 69.858L112.435 76.4691L106.811 72.3832L101.188 76.4691L103.336 69.858L97.7123 65.7723H104.663L106.811 59.1614Z" fill="#FDD406"/>
<path d="M3.41406 40C11.6508 16.6962 33.8756 0 59.9999 0V40H3.41406Z" fill="#021455"/>
<path d="M51.8607 0.547409C54.5223 0.186438 57.2393 0 59.9999 0V5.16667L37.4999 20.0833L59.9999 34.9167V40H52.4999L29.9999 25.0833L7.5937 40H3.41406C4.71561 36.3176 6.36643 32.8002 8.32673 29.4875L22.4062 20.1667L17.9402 17.2101C20.0107 15.1746 22.2284 13.2883 24.5757 11.5685L29.9062 15.0833L51.8607 0.547409Z" fill="white"/>
<path d="M55.0032 0.205098C56.6508 0.0692646 58.3173 0 59.9999 0V0.25L36.6562 15.9167L36.8437 12.25L55.0032 0.205098Z" fill="#E23726"/>
<path d="M20.6935 14.6667C20.9395 14.4532 21.1873 14.2416 21.4368 14.0321L22.4062 14.6667H20.6935Z" fill="#E23726"/>
<path d="M3.41406 40C3.77659 38.9743 4.16621 37.9614 4.58207 36.9622L22.4999 25.0833L23.0624 28L5.06245 40H3.41406Z" fill="#E23726"/>
<path d="M59.9999 36.6667L39.7499 23.4167H34.5937L59.9999 40V36.6667Z" fill="#E23726"/>
<path d="M22.5936 13.0847C27.1075 9.48095 32.153 6.51505 37.5936 4.32349V13.3333H59.9999V26.6666H37.5936V40H22.5936V26.6666H10.1035C13.474 21.6314 17.5864 17.1349 22.2843 13.3333H22.5936V13.0847Z" fill="white"/>
<path d="M25.5937 10.8388C28.4242 8.85422 31.4339 7.10783 34.5937 5.62878V16.0834H60V24.0834H34.5937V40.0001H25.5937V24.0834H11.9331C14.0866 21.206 16.4924 18.5284 19.1178 16.0834H25.5937V10.8388Z" fill="#E23726"/>
</svg>
