<svg width="120" height="120" viewBox="0 0 120 120" fill="none" xmlns="http://www.w3.org/2000/svg">
<g clip-path="url(#clip0_323_6697)">
<circle cx="60" cy="60" r="60" fill="#D91C16"/>
<path d="M60 0C26.8629 0 0 26.8629 0 60H60L60 0Z" fill="#0F3296"/>
<path d="M29.8334 8.12405C29.9298 8.06791 30.0263 8.01204 30.1229 7.95642L32.6892 17.534C31.8225 17.348 30.923 17.25 30.0006 17.25C29.0783 17.25 28.1788 17.348 27.3121 17.534L29.8334 8.12405Z" fill="white"/>
<path d="M20.0219 15.2589C20.6338 14.7117 21.257 14.1769 21.8911 13.6549L26.0954 17.8592C24.3493 18.4205 22.7673 19.3479 21.44 20.5512L20.0219 15.2589Z" fill="white"/>
<path d="M13.6555 21.8905C14.1776 21.2564 14.7123 20.6332 15.2595 20.0213L20.5518 21.4394C19.3485 22.7667 18.4211 24.3487 17.8598 26.0948L13.6555 21.8905Z" fill="white"/>
<path d="M7.95703 30.1223C8.01265 30.0257 8.06852 29.9292 8.12466 29.8328L17.5346 27.3114C17.3486 28.1782 17.2506 29.0777 17.2506 30C17.2506 30.9224 17.3486 31.8219 17.5346 32.6886L7.95703 30.1223Z" fill="white"/>
<path d="M10.515 41.25L17.8598 33.9053C18.4211 35.6514 19.3485 37.2334 20.5518 38.5607L10.515 41.25Z" fill="white"/>
<path d="M21.44 39.4489L18.7506 49.4856L26.0954 42.1409C24.3493 41.5796 22.7673 40.6521 21.44 39.4489Z" fill="white"/>
<path d="M30.0006 52.5L27.3121 42.4661C28.1788 42.6521 29.0783 42.75 30.0006 42.75C30.923 42.75 31.8225 42.6521 32.6892 42.4661L30.0006 52.5Z" fill="white"/>
<path d="M33.9059 42.1409L41.2506 49.4856L38.5613 39.4489C37.234 40.6521 35.652 41.5796 33.9059 42.1409Z" fill="white"/>
<path d="M49.4863 41.25L39.4495 38.5607C40.6527 37.2334 41.5802 35.6514 42.1415 33.9052L49.4863 41.25Z" fill="white"/>
<path d="M42.4667 32.6886L52.5006 30L42.4667 27.3114C42.6527 28.1782 42.7506 29.0777 42.7506 30C42.7506 30.9224 42.6527 31.8219 42.4667 32.6886Z" fill="white"/>
<path d="M49.4863 18.75L42.1415 26.0948C41.5802 24.3487 40.6527 22.7667 39.4495 21.4394L49.4863 18.75Z" fill="white"/>
<path d="M38.5613 20.5512L41.2506 10.5144L33.9059 17.8592C35.652 18.4205 37.234 19.3479 38.5613 20.5512Z" fill="white"/>
<path d="M30.0006 18.75C30.928 18.75 31.8292 18.8622 32.6913 19.0738C32.8399 19.1103 32.9873 19.1497 33.1335 19.192C34.9049 19.7046 36.4963 20.6408 37.791 21.8838C37.9018 21.9902 38.0105 22.0989 38.1169 22.2097C39.3599 23.5044 40.2961 25.0958 40.8087 26.8672C40.851 27.0134 40.8904 27.1608 40.9269 27.3094C41.1384 28.1715 41.2506 29.0727 41.2506 30C41.2506 30.9274 41.1384 31.8285 40.9269 32.6907C40.8904 32.8392 40.851 32.9867 40.8087 33.1329C40.2961 34.9042 39.3599 36.4957 38.1169 37.7904C38.0105 37.9012 37.9018 38.0099 37.791 38.1163C36.4963 39.3593 34.9049 40.2955 33.1335 40.8081C32.9873 40.8504 32.8399 40.8898 32.6913 40.9263C31.8292 41.1378 30.928 41.25 30.0006 41.25C29.0733 41.25 28.1721 41.1378 27.31 40.9263C27.1614 40.8898 27.014 40.8504 26.8678 40.8081C25.0964 40.2955 23.505 39.3593 22.2103 38.1163C22.0995 38.0099 21.9908 37.9012 21.8844 37.7904C20.6414 36.4957 19.7052 34.9042 19.1926 33.1329C19.1503 32.9867 19.1109 32.8392 19.0744 32.6907C18.8629 31.8285 18.7506 30.9274 18.7506 30C18.7506 29.0727 18.8629 28.1715 19.0744 27.3094C19.1109 27.1608 19.1503 27.0134 19.1926 26.8672C19.7052 25.0958 20.6414 23.5044 21.8844 22.2097C21.9908 22.0989 22.0995 21.9902 22.2103 21.8838C23.505 20.6408 25.0964 19.7046 26.8678 19.192C27.014 19.1497 27.1614 19.1103 27.31 19.0738C28.1721 18.8622 29.0733 18.75 30.0006 18.75Z" fill="white"/>
</g>
<defs>
<clipPath id="clip0_323_6697">
<rect width="120" height="120" fill="white"/>
</clipPath>
</defs>
</svg>
