<svg width="120" height="120" viewBox="0 0 120 120" fill="none" xmlns="http://www.w3.org/2000/svg">
<g clip-path="url(#clip0_307_89150)">
<path d="M102.426 17.5736L17.5736 102.426C6.71573 91.5685 0 76.5685 0 60C0 26.8629 26.8629 0 60 0C76.5685 0 91.5685 6.71573 102.426 17.5736Z" fill="#1E9A1C"/>
<path d="M17.5732 102.426C28.4311 113.284 43.4311 120 59.9996 120C93.1367 120 120 93.137 120 59.9999C120 43.4314 113.284 28.4314 102.426 17.5735L17.5732 102.426Z" fill="#54AEF2"/>
<path d="M114.236 34.3076L34.3076 114.236C21.8129 108.307 11.6931 98.1872 5.76367 85.6925L85.6925 5.76367C98.1872 11.6931 108.307 21.8129 114.236 34.3076Z" fill="#FDD406"/>
<path d="M8.94141 91.5284L91.5281 8.94165C99.4544 13.8465 106.153 20.5454 111.058 28.4717L28.4714 111.058C20.5452 106.154 13.8462 99.4546 8.94141 91.5284Z" fill="black"/>
</g>
<defs>
<clipPath id="clip0_307_89150">
<rect width="120" height="120" fill="white"/>
</clipPath>
</defs>
</svg>
