<svg width="120" height="120" viewBox="0 0 120 120" fill="none" xmlns="http://www.w3.org/2000/svg">
<circle cx="60" cy="60" r="60" fill="black"/>
<path d="M104.722 20C112.116 28.2616 117.255 38.5843 119.17 50H0.82959C2.74479 38.5843 7.88355 28.2616 15.2779 20H104.722Z" fill="#FDD406"/>
<path d="M60 120C86.1244 120 108.349 103.304 116.586 80H3.41412C11.6508 103.304 33.8756 120 60 120Z" fill="#FDD406"/>
<path d="M116.586 40C118.797 46.2556 120 52.9873 120 60H0C0 52.9873 1.20308 46.2556 3.41411 40H116.586Z" fill="#E23726"/>
<path d="M60 120C77.77 120 93.7357 112.275 104.722 100H15.2779C26.2643 112.275 42.23 120 60 120Z" fill="#E23726"/>
<path d="M59.7 78.7001C70.0277 78.7001 78.4 70.3278 78.4 60C78.4 49.6723 70.0277 41.3 59.7 41.3C49.3723 41.3 41 49.6723 41 60C41 70.3278 49.3723 78.7001 59.7 78.7001Z" fill="white"/>
<path d="M56.4043 45.6781L55.1914 43.4441C55.6594 42.976 56.4468 42.6143 57.7021 42.6143C57.7021 42.6994 57.5744 45.0611 57.5744 45.0611L56.4043 45.6781Z" fill="#E23726"/>
<path d="M57.5742 45.0824L57.7445 42.6142C57.7445 42.6142 60.2552 42.4654 61.6169 44.1036C61.6381 44.0823 60.2765 46.0184 60.2765 46.0184L57.5742 45.0824Z" fill="#FDD406"/>
<path d="M60.3188 45.9972L61.5528 44.0823C62.3827 44.9547 62.723 45.5717 62.8507 46.5079C62.872 46.5292 60.8933 46.9972 60.8933 46.976C60.8933 46.9547 60.3401 46.0185 60.3188 45.9972Z" fill="#E23726"/>
<path fill-rule="evenodd" clip-rule="evenodd" d="M61.7169 44.1103C61.7171 44.1086 61.7172 44.1068 61.7173 44.1053C61.716 44.0919 61.7042 44.0674 61.6872 44.0454L61.694 44.0397C60.9929 43.1962 59.9997 42.8166 59.1908 42.6468C58.7855 42.5616 58.4235 42.5285 58.1628 42.5167C58.0324 42.5108 57.9271 42.5102 57.854 42.5111C57.8175 42.5115 57.7891 42.5123 57.7696 42.5131C57.7598 42.5134 57.7523 42.5137 57.7471 42.514L57.742 42.5143H57.7021C56.4273 42.5143 55.6119 42.8821 55.1207 43.3734L55.0679 43.4262L56.3635 45.8127L57.5583 45.1827L60.2831 46.1265C60.2972 46.1494 60.3138 46.1768 60.3323 46.2077C60.387 46.2984 60.4579 46.4178 60.5283 46.5373C60.5987 46.6568 60.6683 46.7761 60.7202 46.8667C60.7462 46.9121 60.7675 46.9499 60.7822 46.9767C60.7896 46.9903 60.7949 47.0003 60.7982 47.0068L60.7983 47.007C60.8105 47.0454 60.8431 47.0631 60.8533 47.0677C60.8682 47.0743 60.8812 47.0757 60.885 47.0761C60.8948 47.0771 60.9032 47.0765 60.9064 47.0763C60.9145 47.0757 60.9235 47.0745 60.9314 47.0732C60.948 47.0706 60.9709 47.0664 60.9983 47.0609C61.0534 47.0499 61.1315 47.0331 61.2243 47.0124C61.4101 46.9711 61.6572 46.9138 61.9035 46.8552C62.1498 46.7966 62.3957 46.7367 62.579 46.6899C62.6704 46.6666 62.747 46.6464 62.8004 46.6312C62.8268 46.6237 62.8492 46.617 62.8652 46.6115C62.8725 46.609 62.8821 46.6055 62.8909 46.6012L62.8911 46.6011C62.8941 46.5997 62.9053 46.5943 62.9163 46.5847C62.9207 46.5808 62.937 46.5664 62.9458 46.5411C62.9505 46.5274 62.9533 46.5096 62.9496 46.4898C62.8226 45.565 62.4898 44.9421 61.7169 44.1103ZM57.8383 42.7113L57.6795 45.013L60.2382 45.8993L60.4073 45.6588C60.448 45.6009 60.493 45.5369 60.5409 45.4687L61.4479 44.0612C60.7938 43.3399 59.9007 43.0002 59.1497 42.8425C58.7572 42.7601 58.4063 42.728 58.1538 42.7165C58.0275 42.7108 57.9261 42.7102 57.8565 42.7111L57.8383 42.7113ZM60.7068 45.5804C60.8083 45.436 60.9227 45.2731 61.0367 45.1105C61.2056 44.8698 61.3739 44.6297 61.4986 44.4511C61.5418 44.3893 61.5798 44.3348 61.6108 44.2902C62.313 45.0546 62.6154 45.6244 62.7403 46.4404C62.6898 46.4546 62.6173 46.4737 62.5295 46.4961C62.3478 46.5425 62.103 46.6022 61.8573 46.6606C61.6115 46.7191 61.3654 46.7761 61.1808 46.8172C61.0884 46.8378 61.0121 46.8542 60.9591 46.8648L60.9499 46.8666C60.935 46.8398 60.9158 46.8059 60.8937 46.7673C60.8412 46.6757 60.7712 46.5557 60.7006 46.4358C60.6301 46.3159 60.5587 46.196 60.5037 46.1045C60.4778 46.0616 60.4554 46.0248 60.4383 45.9971L60.7068 45.5804ZM55.3155 43.4632L56.445 45.5436L57.4776 44.9991L57.4945 44.6854C57.5065 44.4627 57.5224 44.1648 57.5384 43.8643C57.5544 43.5638 57.5703 43.2607 57.5823 43.0274C57.5883 42.9107 57.5932 42.8116 57.5967 42.739L57.5979 42.7151C56.4705 42.7338 55.7535 43.0552 55.3155 43.4632ZM60.9879 46.9417C60.9873 46.9401 60.9867 46.9385 60.9861 46.937C60.9908 46.948 60.9937 46.9609 60.9937 46.976C60.9937 46.9574 60.9882 46.9426 60.9879 46.9417Z" fill="black"/>
<path d="M57.0211 77.6147C57.0211 77.6147 59.3403 74.955 63.8509 75.5296C63.1701 74.4231 60.9786 74.5508 60.9786 74.5508C60.9786 74.5508 60.2978 69.3806 60.8296 69.1252C61.3615 68.8698 63.6168 69.1465 63.6168 69.1465C63.9146 69.1465 64.4254 68.3379 64.0212 67.8273C63.6168 67.3166 62.4254 65.3592 62.9147 64.9761C63.4042 64.5932 66.0637 65.1889 66.0637 65.1889L58.553 55.5719C58.553 55.5719 57.787 51.9548 59.319 50.2101C61.1701 48.6782 60.9786 47.0185 60.9148 47.0398C60.6594 45.3589 58.1063 44.146 56.3828 45.6994C55.3615 46.9334 56.0423 47.8696 56.0423 47.8696C56.0423 47.8696 53.3615 48.593 53.2551 49.0611C53.1487 49.5293 56.2764 48.9761 56.2764 48.9761L55.9785 51.125C55.9785 51.125 49.8933 56.6569 54.5529 61.4442C54.5955 61.4229 54.7019 61.2314 54.7019 61.2314C54.7019 61.2314 56.3402 63.2528 58.0635 63.6996C59.6806 65.3592 59.5318 65.1038 59.5318 65.1038C59.5318 65.1038 59.8508 67.7209 59.5531 68.2315C59.1487 68.1038 55.0211 67.955 54.404 68.189C53.8508 68.3592 51.7232 68.2528 52.255 71.721C52.6592 70.7848 53.021 69.955 53.021 69.955C53.021 69.955 52.9572 71.2103 53.4679 71.6572C53.3828 70.3379 53.9572 69.4444 53.9572 69.4444C53.9572 69.4444 54.0636 70.8912 54.3827 71.1039C54.7019 71.3167 54.7019 68.7634 56.4679 68.9762C58.2338 69.189 59.5105 69.1252 59.5105 69.1252C59.5105 69.1252 60.1062 74.1252 59.9147 74.5934C58.638 74.2954 55.5955 74.721 55.404 75.487C57.1912 75.3806 58.0211 75.5933 58.0211 75.5933C58.0211 75.5933 56.5743 76.87 57.0211 77.6147Z" fill="black"/>
<path fill-rule="evenodd" clip-rule="evenodd" d="M57.6652 50.2656L57.8338 50.3592C57.7164 50.7716 57.5729 51.1789 57.431 51.582C57.3993 51.6722 57.3676 51.7622 57.3362 51.852C57.1645 52.3447 57.0037 52.8327 56.8997 53.3271C56.6924 54.3121 56.7106 55.3206 57.3258 56.4246L57.4162 56.5869L57.2311 56.5715L57.1362 56.5637C57.0785 56.5591 57.0006 56.5528 56.9197 56.5466C56.8117 56.5383 56.7018 56.5303 56.6261 56.5258L56.6268 56.5295C56.6397 56.5984 56.6663 56.6937 56.6973 56.7928C56.728 56.8911 56.7619 56.9896 56.7882 57.0639C56.8013 57.1009 56.8125 57.1318 56.8204 57.1534C56.8243 57.1642 56.8275 57.1726 56.8296 57.1784L56.832 57.1849L56.8326 57.1865L56.8898 57.339L56.7285 57.3201C56.5887 57.3036 56.448 57.2871 56.3072 57.2706L56.0686 57.2425L56.1542 57.4014C56.2119 57.5083 56.2696 57.6155 56.3281 57.7241L56.4342 57.9213L55.7943 57.7614C55.8092 57.8076 55.8256 57.8605 55.8419 57.9168C55.8911 58.0865 55.944 58.3034 55.9409 58.4568C55.9415 58.4598 55.942 58.4629 55.9424 58.4662C55.9447 58.4859 55.9428 58.5264 55.9073 58.5569C55.8769 58.583 55.843 58.5823 55.8315 58.5816C55.8172 58.5806 55.8053 58.5771 55.7984 58.5748C55.7728 58.5662 55.7425 58.5483 55.7169 58.5323C55.6606 58.497 55.584 58.4422 55.5114 58.388C55.4716 58.3583 55.4322 58.3282 55.397 58.3006L55.3946 58.3371C55.3849 58.482 55.3703 58.6992 55.3182 58.9661L55.2633 59.2472L55.1329 58.9922C54.1547 57.08 54.804 54.8871 55.6754 53.1938C56.1127 52.3441 56.6097 51.6126 56.9972 51.0938C57.191 50.8342 57.3576 50.6276 57.476 50.4857C57.5351 50.4147 57.5822 50.3599 57.6147 50.3228C57.6309 50.3042 57.6434 50.29 57.6519 50.2804L57.6617 50.2695L57.6643 50.2666L57.6652 50.2656L57.7385 50.3321C57.6719 50.2717 57.6658 50.2661 57.6652 50.2656Z" fill="#CCCCCC"/>
<path d="M59.2764 46.1462C59.2764 46.1462 59.5105 47.8271 58.5956 48.3164C58.4466 48.4228 57.8722 48.6143 57.9573 48.9548C58.0637 49.4229 58.3189 49.3377 58.6807 49.2526C59.638 49.0824 60.7445 47.0398 59.2764 46.1462Z" fill="#CCCCCC"/>
<path d="M57.2999 47.96C57.4988 47.96 57.6599 47.7988 57.6599 47.6C57.6599 47.4012 57.4988 47.24 57.2999 47.24C57.1011 47.24 56.9399 47.4012 56.9399 47.6C56.9399 47.7988 57.1011 47.96 57.2999 47.96Z" fill="white"/>
<path d="M56.2125 48.9972C55.9784 49.1887 54.7444 50.4654 55.9572 50.9335C57.2126 50.593 56.8721 50.359 57.1487 50.0824C57.1559 49.5079 56.5246 49.359 56.2125 48.9972Z" fill="#E23726"/>
<path fill-rule="evenodd" clip-rule="evenodd" d="M56.2245 48.8581L56.2882 48.9319C56.3582 49.013 56.4482 49.0846 56.5497 49.1573C56.5814 49.1801 56.615 49.2034 56.6492 49.2272C56.7204 49.2767 56.7946 49.3283 56.8621 49.3815C57.0675 49.5432 57.2528 49.7502 57.2487 50.0836L57.2482 50.1243L57.2194 50.1531C57.1643 50.2082 57.1398 50.26 57.1151 50.3215C57.1123 50.3285 57.1094 50.3358 57.1065 50.3433C57.0836 50.4014 57.0552 50.4735 56.9986 50.5457C56.8702 50.7093 56.612 50.8595 55.9833 51.03L55.9516 51.0386L55.9211 51.0268C55.5975 50.9019 55.4178 50.7143 55.3559 50.4866C55.2958 50.2652 55.3541 50.0297 55.4515 49.8196C55.6461 49.3997 56.0251 49.0213 56.1491 48.9198L56.2245 48.8581ZM55.963 50.8282C56.5645 50.6622 56.7583 50.528 56.8412 50.4223C56.8789 50.3742 56.8968 50.3292 56.9203 50.2701C56.9232 50.2626 56.9263 50.2549 56.9295 50.2469C56.9544 50.1851 56.9854 50.1156 57.0481 50.0436C57.0381 49.8238 56.9151 49.6777 56.7384 49.5386C56.6753 49.489 56.6099 49.4435 56.5418 49.3962C56.5063 49.3715 56.4701 49.3464 56.4331 49.3199C56.3556 49.2643 56.2772 49.2043 56.2068 49.1363C56.0578 49.2779 55.7825 49.581 55.6329 49.9037C55.5442 50.0952 55.5067 50.2786 55.549 50.4342C55.588 50.5781 55.7017 50.7204 55.963 50.8282Z" fill="black"/>
<path d="M58.9737 61.0016L58.8446 60.8283L58.7961 61.0388C58.7926 61.0538 58.7884 61.0712 58.7838 61.0908C58.7461 61.249 58.6742 61.5513 58.6475 61.9049C58.6177 62.3013 58.6436 62.7738 58.8461 63.1901L58.8875 63.2752L58.9748 63.2386C59.4995 63.0182 59.8734 62.9435 60.1551 62.9485C60.4334 62.9534 60.6283 63.0362 60.7967 63.1452L60.9138 62.9834C60.046 62.2848 59.7121 61.9928 58.9737 61.0016Z" fill="#CCCCCC"/>
<path fill-rule="evenodd" clip-rule="evenodd" d="M60.7733 65.8044L60.6187 65.7153L60.6895 68.3581L60.7696 68.3725L60.7698 68.3725L60.7704 68.3726L60.7724 68.373L60.7798 68.3743C60.7863 68.3754 60.7957 68.377 60.8077 68.3789C60.8318 68.3828 60.8664 68.3881 60.9091 68.3941C60.9944 68.4059 61.1123 68.4202 61.2427 68.4297C61.3729 68.4392 61.517 68.4441 61.6542 68.4368C61.7901 68.4296 61.926 68.4102 62.0362 68.3673C62.1163 68.3361 62.1687 68.2713 62.1992 68.1962C62.2292 68.1224 62.2406 68.0336 62.2386 67.9385C62.2346 67.7479 62.1763 67.5095 62.0679 67.2583C61.8506 66.7551 61.4225 66.1785 60.7733 65.8044ZM60.7872 68.2741L60.7696 68.3725C60.7696 68.3725 60.7696 68.3725 60.7872 68.2741Z" fill="white"/>
<path d="M66.7446 66.189C66.7446 66.189 65.2127 62.4868 61.2977 61.5506C57.3828 60.6144 57.8934 56.4442 58.2126 56.1889C58.3828 55.8271 58.5105 55.2739 59.6381 55.8059C60.7659 56.3378 65.9574 58.9548 66.7021 59.0825C67.4467 59.2102 66.8085 66.2741 66.7446 66.189Z" fill="#CCCCCC"/>
<path fill-rule="evenodd" clip-rule="evenodd" d="M58.3467 56.1347C58.3327 56.1662 58.3185 56.1984 58.303 56.2315L58.2931 56.2525L58.2751 56.2669C58.2751 56.2669 58.2751 56.2669 58.2751 56.2669C58.2751 56.2669 58.2716 56.27 58.2655 56.2793C58.259 56.2891 58.2512 56.3032 58.2426 56.3222C58.2253 56.3603 58.2071 56.4129 58.1895 56.4796C58.1546 56.6127 58.1245 56.7939 58.1091 57.0099C58.0782 57.4417 58.1062 58.0048 58.2638 58.5884C58.5778 59.7511 59.4052 60.9953 61.3209 61.4534C63.3055 61.928 64.6845 63.1034 65.5659 64.1567C66.0067 64.6836 66.3239 65.1808 66.531 65.5467C66.5978 65.6646 66.6531 65.7689 66.6976 65.8563C66.7185 65.6748 66.7436 65.4236 66.7699 65.1238C66.827 64.4728 66.8894 63.5953 66.9265 62.7114C66.9637 61.8267 66.9755 60.9387 66.932 60.2652C66.9101 59.9277 66.8747 59.6492 66.8235 59.4533C66.7977 59.355 66.7695 59.2834 66.7407 59.2368C66.7112 59.1889 66.6907 59.182 66.6851 59.1811C66.5803 59.1631 66.4086 59.1043 66.1942 59.0199C65.9768 58.9343 65.707 58.8189 65.4019 58.6828C64.7915 58.4106 64.0365 58.0544 63.2703 57.6859C62.441 57.2871 61.5999 56.8747 60.9129 56.5377C60.3281 56.2509 59.8548 56.0188 59.5953 55.8964C59.0384 55.6337 58.7667 55.6582 58.6179 55.7479C58.5412 55.7941 58.4845 55.8644 58.4355 55.9509C58.4013 56.0112 58.3745 56.0717 58.3467 56.1347ZM66.6554 66.1509C66.6554 66.1508 66.6556 66.1503 66.6558 66.1497C66.6554 66.1509 66.6553 66.1512 66.6554 66.1509ZM59.6807 55.7155C59.11 55.4463 58.7541 55.4323 58.5146 55.5766C58.3972 55.6474 58.3195 55.75 58.2615 55.8523C58.2224 55.9212 58.1885 55.9977 58.1585 56.0653C58.1486 56.0879 58.139 56.1094 58.1299 56.1294C58.1008 56.1598 58.0783 56.2001 58.0604 56.2396C58.0371 56.2911 58.0154 56.3552 57.9961 56.4288C57.9573 56.5763 57.9257 56.7701 57.9096 56.9956C57.8773 57.4467 57.9065 58.0326 58.0707 58.6405C58.4003 59.8607 59.2751 61.1698 61.2744 61.6479C63.2047 62.1095 64.5491 63.2533 65.4125 64.2851C65.844 64.8008 66.1545 65.2876 66.357 65.6452C66.4581 65.8239 66.5323 65.9702 66.5809 66.0714C66.6052 66.122 66.6232 66.1614 66.635 66.1879C66.6409 66.2011 66.6453 66.2112 66.6481 66.2178L66.6512 66.2252L66.652 66.2269L66.6521 66.2272L66.6569 66.2389L66.6645 66.249C66.671 66.2577 66.684 66.2722 66.7057 66.2815C66.7301 66.292 66.7565 66.2921 66.7795 66.284C66.8144 66.2716 66.8305 66.2445 66.8333 66.2398L66.8336 66.2395C66.8424 66.2247 66.8468 66.2093 66.8484 66.2036C66.853 66.1873 66.8572 66.1654 66.8613 66.1414C66.8698 66.0918 66.8798 66.0182 66.8909 65.9252C66.9131 65.7385 66.9405 65.4679 66.9691 65.1412C67.0264 64.4877 67.089 63.6072 67.1263 62.7198C67.1636 61.8331 67.1758 60.9365 67.1315 60.2523C67.1095 59.9109 67.0731 59.6173 67.017 59.4027C66.989 59.2958 66.9547 59.2026 66.911 59.1318C66.868 59.0622 66.8063 58.9989 66.7189 58.9839C66.6374 58.97 66.484 58.9191 66.2675 58.8338C66.0541 58.7498 65.7873 58.6357 65.4834 58.5001C64.8757 58.2291 64.1227 57.8739 63.357 57.5057C62.5319 57.1089 61.6906 56.6963 61.0024 56.3589C60.4155 56.071 59.94 55.8378 59.6807 55.7155Z" fill="black"/>
<path d="M63.0211 61.5293C62.9572 61.5719 68.2552 64.6569 66.6594 67.3166C68.1702 66.3165 67.6807 64.5719 67.6807 64.5719C67.6807 64.5719 68.9147 67.7848 65.9147 69.3593C66.2339 69.6359 66.4467 69.5719 66.4467 69.5719L65.936 70.0827C65.936 70.0827 65.7019 70.4656 67.7233 69.4868C67.17 69.9337 67.1276 70.2527 67.1276 70.2527C67.1276 70.2527 67.2764 70.6784 68.5957 69.5293C67.5318 70.6784 67.2977 71.2741 67.2977 71.2528C70.17 70.9974 76.4254 61.657 65.319 58.8909C65.9149 59.5081 65.8296 59.423 65.8296 59.423L63.3 59.9L63.0211 61.5293Z" fill="#E23726"/>
<path fill-rule="evenodd" clip-rule="evenodd" d="M65.0049 58.7097L65.343 58.7939C68.1334 59.4888 69.8492 60.6006 70.7981 61.8943C71.7484 63.1899 71.9199 64.6546 71.6484 66.0327C71.3772 67.4088 70.6639 68.7021 69.838 69.6675C69.4248 70.1505 68.9816 70.5536 68.5485 70.8447C68.1211 71.1321 67.6972 71.3147 67.3179 71.3513C67.3049 71.354 67.2892 71.3546 67.2717 71.3499C67.2228 71.3367 67.2063 71.2962 67.2023 71.2834C67.1977 71.2688 67.1976 71.2567 67.1976 71.2528V71.1613L67.2354 71.1579C67.2428 71.1437 67.2519 71.1264 67.2629 71.1062C67.3028 71.0331 67.3668 70.9222 67.4642 70.7748C67.5656 70.6212 67.7032 70.4281 67.8875 70.1966C67.6667 70.3341 67.505 70.3981 67.3849 70.4203C67.2656 70.4422 67.1786 70.4244 67.1177 70.3857C67.0882 70.3669 67.068 70.3452 67.0548 70.3265C67.0482 70.3172 67.0434 70.3088 67.0399 70.3018C67.0382 70.2983 67.0368 70.2952 67.0357 70.2925C67.0351 70.2911 67.0346 70.2899 67.0342 70.2888L67.0336 70.2872L67.0333 70.2864L67.0332 70.2861C67.0332 70.2861 67.0331 70.2857 67.1275 70.2527C67.0283 70.2396 67.0284 70.2394 67.0284 70.2394L67.0284 70.2389L67.0285 70.2381L67.0288 70.2363C67.029 70.2353 67.0292 70.2341 67.0294 70.2328C67.0295 70.2323 67.0296 70.2317 67.0297 70.2311C67.0304 70.2271 67.0315 70.2218 67.033 70.2154C67.036 70.2026 67.0407 70.1852 67.0481 70.1635C67.0629 70.1202 67.0884 70.0602 67.1316 69.9866C67.1604 69.9377 67.1969 69.883 67.2434 69.8232C66.5901 70.1207 66.2566 70.2273 66.0851 70.2508C66.0311 70.2582 65.9843 70.2588 65.9451 70.2494C65.9037 70.2395 65.8618 70.2156 65.8403 70.1695C65.8208 70.1279 65.8281 70.0889 65.8336 70.0696C65.8367 70.0588 65.8405 70.05 65.8435 70.0437C65.845 70.0405 65.8464 70.0378 65.8476 70.0356L65.8493 70.0327L65.85 70.0315L65.8503 70.031L65.8504 70.0307C65.8504 70.0307 65.8506 70.0305 65.9359 70.0826L65.8506 70.0305L65.8568 70.0203L66.2238 69.6533C66.1203 69.6228 65.9927 69.5593 65.8491 69.4348L65.7383 69.3388L65.8681 69.2707C67.3312 68.5028 67.7581 67.3413 67.8228 66.3685C67.8382 66.1381 67.8331 65.9182 67.8164 65.7166C67.7231 66.2717 67.4403 66.9195 66.7145 67.3999L66.5735 67.2651C66.9524 66.6336 66.925 65.9764 66.6625 65.3341C66.3985 64.6881 65.8986 64.063 65.3442 63.5125C64.7907 62.963 64.1888 62.4937 63.7281 62.1584C63.5103 61.9999 63.3244 61.8716 63.1901 61.7789C63.1824 61.7736 63.1749 61.7685 63.1676 61.7634C63.1002 61.7169 63.046 61.6794 63.0097 61.6528C62.9921 61.6398 62.9759 61.6275 62.9641 61.617C62.9592 61.6127 62.9496 61.604 62.9413 61.5928C62.9382 61.5886 62.9274 61.5737 62.9227 61.5517C62.92 61.5394 62.9183 61.5201 62.9256 61.4983C62.9328 61.4769 62.9461 61.4604 62.9613 61.4491L63.3999 60L65.68 59.41C65.6099 59.3368 65.4811 59.2029 65.2469 58.9604L65.0049 58.7097ZM65.8635 59.5224L63.5999 60.1L63.1845 61.5317C63.2116 61.5507 63.2439 61.5731 63.2812 61.5988C63.2886 61.6039 63.2961 61.6091 63.3039 61.6144C63.4382 61.7072 63.6259 61.8366 63.8458 61.9967C64.3106 62.3349 64.9215 62.811 65.4851 63.3706C66.0476 63.9291 66.569 64.5765 66.8476 65.2584C67.0754 65.816 67.142 66.4004 66.9333 66.9749C67.4068 66.5338 67.5841 66.0056 67.6372 65.5574C67.6693 65.2867 67.6558 65.0457 67.6343 64.8725C67.6235 64.7859 67.6108 64.7166 67.6008 64.6694C67.5959 64.6458 67.5916 64.6277 67.5887 64.6157C67.5879 64.6125 67.5872 64.6097 67.5866 64.6074C67.5861 64.6054 67.5856 64.6038 67.5853 64.6025L67.5845 64.5995L67.5843 64.5989C67.5843 64.5989 67.5843 64.5989 67.5854 64.5986L67.774 64.536L67.6806 64.5719C67.774 64.5361 67.774 64.536 67.774 64.536L67.7741 64.5364L67.7743 64.537L67.7751 64.5391L67.778 64.5468C67.7804 64.5534 67.7839 64.5631 67.7882 64.5756C67.7969 64.6006 67.8091 64.637 67.8234 64.6837C67.852 64.7771 67.8893 64.9117 67.9244 65.0778C67.9945 65.4099 68.0564 65.8702 68.0224 66.3818C67.9562 67.378 67.5252 68.5668 66.0977 69.3734C66.1909 69.4347 66.2666 69.4606 66.3199 69.4712C66.3574 69.4787 66.3851 69.4789 66.4017 69.4778C66.41 69.4772 66.4157 69.4763 66.4184 69.4758C66.4198 69.4756 66.4204 69.4754 66.4204 69.4754L66.4197 69.4756L66.4189 69.4758L66.4184 69.4758L66.4181 69.476C66.4181 69.476 66.418 69.4761 66.4181 69.4765L66.5173 69.6426L66.1181 70.0418C66.3254 69.9971 66.7672 69.8385 67.6796 69.3968L67.786 69.5646C67.5175 69.7814 67.377 69.964 67.304 70.088C67.2695 70.1468 67.2499 70.1927 67.2391 70.2233C67.2566 70.2291 67.2901 70.2344 67.3487 70.2236C67.5222 70.1916 67.8717 70.0272 68.5299 69.4539L68.6689 69.5973C68.1404 70.1681 67.8193 70.6001 67.631 70.885C67.5678 70.9807 67.5195 71.06 67.4833 71.1224C67.7734 71.0578 68.0982 70.9065 68.437 70.6788C68.8524 70.3994 69.2824 70.0093 69.686 69.5375C70.4937 68.5933 71.1887 67.3307 71.4521 65.994C71.7152 64.6593 71.5476 63.2544 70.6369 62.0126C69.7631 60.8214 68.1963 59.7681 65.6371 59.0768C65.7663 59.2108 65.8346 59.2821 65.8701 59.3194C65.894 59.3446 65.9069 59.3582 65.9119 59.3646C65.9126 59.3654 65.9153 59.3688 65.9181 59.3733C65.9192 59.375 65.9236 59.382 65.9273 59.3916C65.9288 59.3958 65.9334 59.4084 65.9337 59.4254C65.934 59.4431 65.9287 59.4831 65.8901 59.5095C65.8811 59.5157 65.8721 59.5198 65.8635 59.5224ZM67.2264 70.2673C67.2264 70.2673 67.2264 70.2674 67.2265 70.267L67.2264 70.2673ZM67.1275 70.2527L67.0284 70.2394L67.0252 70.2632L67.0331 70.2857L67.1275 70.2527Z" fill="black"/>
<path d="M63.2552 60.6144C63.9786 61.125 64.2338 61.2952 64.3189 61.5506C63.6594 61.4018 63.0637 61.4442 63.0637 61.4442C63.0637 61.4442 61.6381 60.0825 61.3828 59.9761C61.1912 59.9761 60.0849 59.274 60.0849 59.274C59.5318 58.9973 59.0212 57.0825 61.0637 57.6357C63.1699 58.6356 63.4679 58.7208 63.4679 58.7208C64.3048 58.9832 65.1416 59.2457 65.9786 59.5081C66.4609 60.0471 66.943 60.5861 67.4254 61.1251C67.4254 61.1251 64.851 59.8484 64.5318 59.8271C65.2339 60.4016 65.6382 61.1888 65.6382 61.1888C64.8225 60.9547 64.1134 60.7421 63.2552 60.6144Z" fill="white"/>
<path fill-rule="evenodd" clip-rule="evenodd" d="M59.8085 58.7827C59.8982 58.9834 60.0213 59.1304 60.1296 59.1846L60.1341 59.1869L60.1384 59.1896L60.1507 59.1973C60.1587 59.2024 60.1706 59.2099 60.1859 59.2195C60.2163 59.2385 60.2601 59.2658 60.3132 59.2986C60.4195 59.3642 60.563 59.4515 60.7124 59.5387C60.862 59.6261 61.0162 59.7127 61.1441 59.7771C61.2082 59.8094 61.2641 59.8353 61.3087 59.853C61.331 59.8618 61.3491 59.868 61.3631 59.8719C61.3754 59.8752 61.3813 59.8759 61.3826 59.8761C61.3828 59.8761 61.3829 59.8761 61.3826 59.8761L61.4027 59.8761L61.4211 59.8838C61.466 59.9025 61.5254 59.9428 61.5881 59.9897C61.6537 60.0387 61.732 60.102 61.8174 60.1739C61.9885 60.3178 62.1917 60.499 62.3862 60.6762C62.5809 60.8535 62.7675 61.0274 62.9053 61.1569C62.9743 61.2217 63.0311 61.2754 63.0706 61.313C63.0824 61.3242 63.0927 61.3339 63.1013 61.3421C63.1181 61.3414 63.1393 61.3406 63.1645 61.34C63.2323 61.3383 63.3294 61.3376 63.4473 61.3417C63.6315 61.3481 63.8676 61.366 64.1232 61.41C64.0836 61.3633 64.0314 61.313 63.9621 61.2548C63.8162 61.1325 63.6053 60.9838 63.2957 60.7654C63.264 60.7431 63.2313 60.72 63.1974 60.6961L63.2698 60.5155C64.0504 60.6316 64.7089 60.8175 65.4273 61.0242C65.3844 60.955 65.3306 60.8722 65.2664 60.7809C65.0806 60.5167 64.81 60.1841 64.4683 59.9046L64.2264 59.7066L64.5383 59.7274C64.595 59.7312 64.6837 59.7592 64.782 59.7951C64.8854 59.833 65.014 59.8854 65.1579 59.947C65.4457 60.0704 65.7987 60.2326 66.1408 60.3937C66.4591 60.5435 66.7686 60.6928 67.0087 60.8096C66.8802 60.6659 66.7516 60.5222 66.623 60.3784C66.3894 60.1173 66.1558 59.8562 65.9223 59.5953C65.5103 59.4661 65.0978 59.3368 64.6854 59.2075C64.2696 59.0771 63.8538 58.9467 63.4384 58.8165L63.4376 58.8162L63.4332 58.8148C63.4297 58.8137 63.4246 58.812 63.4179 58.8096C63.4043 58.8049 63.3833 58.7973 63.3521 58.7851C63.2897 58.7609 63.1854 58.7185 63.0158 58.645C62.6774 58.4984 62.0775 58.2276 61.0289 57.7299C60.533 57.5968 60.2118 57.6189 60.013 57.7103C59.8197 57.7991 59.7257 57.9613 59.7 58.1567C59.6737 58.356 59.7202 58.5852 59.8085 58.7827ZM67.4253 61.1252L67.3808 61.2148L67.4998 61.0585C67.2572 60.7874 67.0149 60.5165 66.7725 60.2457C66.5328 59.9777 66.293 59.7097 66.053 59.4414L66.0346 59.4209L66.0084 59.4127C65.5873 59.2807 65.1668 59.1488 64.7462 59.0169C64.3302 58.8865 63.9142 58.756 63.4977 58.6254L63.4961 58.6249L63.4946 58.6245C63.4928 58.6239 63.4893 58.6228 63.4838 58.6208C63.4729 58.617 63.4541 58.6102 63.4245 58.5987C63.3652 58.5757 63.2634 58.5343 63.0953 58.4615C62.759 58.3158 62.1591 58.045 61.1065 57.5453L61.0984 57.5415L61.0898 57.5392C60.5692 57.3982 60.1909 57.4083 59.9294 57.5285C59.6613 57.6518 59.5345 57.8819 59.5017 58.1306C59.4694 58.3755 59.5267 58.6423 59.6259 58.8643C59.7228 59.0811 59.869 59.2756 60.0353 59.361L60.0439 59.3665C60.0522 59.3717 60.0642 59.3793 60.0796 59.3889C60.1104 59.4082 60.1546 59.4358 60.2082 59.4688C60.3153 59.5349 60.4603 59.6231 60.6115 59.7114C60.7624 59.7996 60.9207 59.8885 61.0541 59.9557C61.1206 59.9893 61.1826 60.0182 61.2352 60.039C61.274 60.0543 61.3173 60.0693 61.3564 60.0743C61.3784 60.0861 61.4156 60.1104 61.4683 60.1499C61.5296 60.1957 61.6046 60.2562 61.6887 60.3269C61.8567 60.4683 62.0577 60.6475 62.2515 60.824C62.4452 61.0004 62.631 61.1736 62.7684 61.3027C62.8371 61.3672 62.8936 61.4207 62.933 61.4581C62.9527 61.4767 62.9681 61.4914 62.9785 61.5013L62.9944 61.5165L63.0265 61.5471L63.0706 61.544L63.0708 61.544L63.0719 61.5439L63.0765 61.5436C63.0806 61.5434 63.087 61.543 63.0954 61.5426C63.1122 61.5417 63.1372 61.5407 63.1695 61.5399C63.2339 61.5383 63.327 61.5376 63.4404 61.5416C63.6677 61.5494 63.9749 61.5756 64.2968 61.6482L64.4698 61.6872L64.4137 61.519C64.3626 61.3657 64.2612 61.2448 64.0906 61.1016C63.9849 61.013 63.8478 60.9119 63.672 60.7866C64.2848 60.9036 64.8386 61.0629 65.4485 61.2384C65.502 61.2538 65.556 61.2693 65.6105 61.285L65.8327 61.3487L65.7271 61.1432L65.6381 61.1889C65.7271 61.1432 65.7271 61.1432 65.7271 61.1432L65.7266 61.1423L65.7256 61.1403L65.7218 61.133C65.7184 61.1267 65.7135 61.1175 65.7071 61.1058C65.6942 61.0823 65.6751 61.0484 65.6501 61.006C65.6001 60.9213 65.5262 60.8027 65.43 60.6659C65.3054 60.4887 65.1426 60.2798 64.9451 60.0744C64.9877 60.092 65.0324 60.1109 65.0791 60.1309C65.3637 60.2529 65.7142 60.4139 66.0556 60.5746C66.3968 60.7353 66.7281 60.8953 66.9742 61.0152C67.0973 61.0752 67.199 61.1251 67.2699 61.16C67.3053 61.1774 67.3331 61.1911 67.352 61.2005L67.3808 61.2148C67.3809 61.2148 67.3808 61.2148 67.4253 61.1252Z" fill="black"/>
<path d="M53.5015 49.2282C53.5452 49.2179 53.5939 49.2066 53.6466 49.1944C53.8823 49.14 54.1995 49.0683 54.5258 48.9994C54.8524 48.9303 55.187 48.8642 55.4578 48.8208C55.5934 48.799 55.7115 48.7831 55.8039 48.7753C55.8501 48.7714 55.8885 48.7696 55.9187 48.7699C55.9507 48.7701 55.9669 48.7728 55.9723 48.7743L56.0272 48.582C55.9954 48.5729 55.9574 48.5702 55.9205 48.5699C55.8818 48.5695 55.8367 48.5718 55.787 48.576C55.6874 48.5845 55.5638 48.6012 55.4261 48.6233C55.1504 48.6675 54.8121 48.7344 54.4844 48.8037C54.1565 48.873 53.838 48.945 53.6016 48.9996C53.4834 49.0269 53.3856 49.0498 53.3174 49.066C53.2913 49.0722 53.2694 49.0774 53.2525 49.0814C53.2506 49.1581 53.345 49.2042 53.5015 49.2282Z" fill="white"/>
</svg>
