<svg width="120" height="120" viewBox="0 0 120 120" fill="none" xmlns="http://www.w3.org/2000/svg">
<g clip-path="url(#clip0_354_849)">
<circle cx="60" cy="60" r="60" fill="#D91C16"/>
<path d="M118.394 46.1535C119.102 49.1499 119.585 52.2331 119.825 55.3843H0.174813C0.414533 52.2331 0.897673 49.1499 1.60547 46.1535H118.394Z" fill="white"/>
<path d="M110.568 27.692C112.434 30.6066 114.055 33.6932 115.401 36.9228H4.59839C5.94517 33.6932 7.56611 30.6066 9.43214 27.692H110.568Z" fill="white"/>
<path d="M91.9908 9.23047C96.1281 11.843 99.924 14.9473 103.296 18.4612H16.7037C20.0759 14.9473 23.8717 11.843 28.0091 9.23047H91.9908Z" fill="white"/>
<path d="M118.394 73.8459C119.102 70.8495 119.585 67.7663 119.825 64.6151H0.174805C0.414519 67.7663 0.897653 70.8495 1.60545 73.8459H118.394Z" fill="white"/>
<path d="M115.402 83.0766H4.59834C5.94512 86.3062 7.56605 89.3928 9.43207 92.3074H110.568C112.434 89.3928 114.055 86.3062 115.402 83.0766Z" fill="white"/>
<path d="M103.296 101.538H16.7036C20.0758 105.052 23.8716 108.156 28.0089 110.769H91.991C96.1283 108.156 99.9241 105.052 103.296 101.538Z" fill="white"/>
<path d="M60.2 0.000326256C60.1334 0.000108808 60.0667 0 60 0C26.8629 0 0 26.8629 0 60C0 61.5529 0.0589982 63.0921 0.174875 64.6154H60.2V0.000326256Z" fill="#021455"/>
<path d="M36.7871 4.65554C37.146 4.50482 37.5067 4.3575 37.8691 4.2136L38.2289 5.32085H40.9115L38.7412 6.89766L39.5702 9.44898L37.3999 7.87218L35.2296 9.44898L36.0586 6.89766L34.4229 5.70924C34.7016 5.57768 34.9815 5.44822 35.2626 5.32085H36.5709L36.7871 4.65554Z" fill="white"/>
<path d="M11.3407 24.8889C11.3849 24.8277 11.4293 24.7665 11.4738 24.7055H13.7708L14.5998 22.1542L15.4288 24.7055H18.1114L15.9411 26.2823L16.7701 28.8336L14.5998 27.2568L12.4295 28.8336L13.2585 26.2823L11.3407 24.8889Z" fill="white"/>
<path d="M5.54364 34.7763C6.19671 33.3688 6.90274 31.9908 7.65917 30.645L7.8288 31.167H10.5114L8.34113 32.7438L9.1701 35.2951L6.99982 33.7183L5.54364 34.7763Z" fill="white"/>
<path d="M0.319336 53.771C0.430936 52.6891 0.571285 51.6157 0.739605 50.5516H2.91144L0.741161 52.1284L1.57014 54.6798L0.319336 53.771Z" fill="white"/>
<path d="M6.99982 41.5388L7.8288 44.0901H10.5114L8.34113 45.6669L9.1701 48.2182L6.99982 46.6414L4.82954 48.2182L5.65851 45.6669L3.48823 44.0901H6.17085L6.99982 41.5388Z" fill="white"/>
<path d="M6.99982 54.4618L7.8288 57.0132H10.5114L8.34113 58.59L9.1701 61.1413L6.99982 59.5645L4.82954 61.1413L5.65851 58.59L3.48823 57.0132H6.17085L6.99982 54.4618Z" fill="white"/>
<path d="M14.5998 35.0772L15.4288 37.6285H18.1114L15.9411 39.2054L16.7701 41.7567L14.5998 40.1799L12.4295 41.7567L13.2585 39.2053L11.0882 37.6285H13.7708L14.5998 35.0772Z" fill="white"/>
<path d="M14.5998 48.0003L15.4288 50.5516H18.1114L15.9411 52.1284L16.7701 54.6798L14.5998 53.103L12.4295 54.6798L13.2585 52.1284L11.0882 50.5516H13.7708L14.5998 48.0003Z" fill="white"/>
<path d="M22.1998 15.6926L23.0288 18.2439H25.7114L23.5411 19.8207L24.3701 22.3721L22.1998 20.7953L20.0295 22.3721L20.8585 19.8207L18.6882 18.2439H21.3708L22.1998 15.6926Z" fill="white"/>
<path d="M22.1998 28.6157L23.0288 31.167H25.7114L23.5411 32.7438L24.3701 35.2951L22.1998 33.7183L20.0295 35.2951L20.8585 32.7438L18.6882 31.167H21.3708L22.1998 28.6157Z" fill="white"/>
<path d="M22.1998 41.5388L23.0288 44.0901H25.7114L23.5411 45.6669L24.3701 48.2182L22.1998 46.6414L20.0295 48.2182L20.8585 45.6669L18.6882 44.0901H21.3708L22.1998 41.5388Z" fill="white"/>
<path d="M22.1998 54.4618L23.0288 57.0132H25.7114L23.5411 58.59L24.3701 61.1413L22.1998 59.5645L20.0295 61.1413L20.8585 58.59L18.6882 57.0132H21.3708L22.1998 54.4618Z" fill="white"/>
<path d="M29.7998 9.23107L30.6288 11.7824H33.3114L31.1411 13.3592L31.9701 15.9105L29.7998 14.3337L27.6295 15.9105L28.4585 13.3592L26.2882 11.7824H28.9708L29.7998 9.23107Z" fill="white"/>
<path d="M29.7998 22.1542L30.6288 24.7055H33.3114L31.1411 26.2823L31.9701 28.8336L29.7998 27.2568L27.6295 28.8336L28.4585 26.2823L26.2882 24.7055H28.9708L29.7998 22.1542Z" fill="white"/>
<path d="M29.7998 35.0772L30.6288 37.6285H33.3114L31.1411 39.2054L31.9701 41.7567L29.7998 40.1799L27.6295 41.7567L28.4585 39.2054L26.2882 37.6285H28.9708L29.7998 35.0772Z" fill="white"/>
<path d="M29.7998 48.0003L30.6288 50.5516H33.3114L31.1411 52.1284L31.9701 54.6798L29.7998 53.103L27.6295 54.6798L28.4585 52.1284L26.2882 50.5516H28.9708L29.7998 48.0003Z" fill="white"/>
<path d="M37.3999 15.6926L38.2288 18.2439H40.9115L38.7412 19.8207L39.5702 22.3721L37.3999 20.7953L35.2296 22.3721L36.0586 19.8207L33.8883 18.2439H36.5709L37.3999 15.6926Z" fill="white"/>
<path d="M37.3999 28.6157L38.2288 31.167H40.9115L38.7412 32.7438L39.5702 35.2951L37.3999 33.7183L35.2296 35.2951L36.0586 32.7438L33.8883 31.167H36.5709L37.3999 28.6157Z" fill="white"/>
<path d="M37.3999 41.5388L38.2288 44.0901H40.9115L38.7412 45.6669L39.5702 48.2182L37.3999 46.6414L35.2296 48.2182L36.0586 45.6669L33.8883 44.0901H36.5709L37.3999 41.5388Z" fill="white"/>
<path d="M37.3999 54.4618L38.2289 57.0132H40.9115L38.7412 58.59L39.5702 61.1413L37.3999 59.5645L35.2296 61.1413L36.0586 58.59L33.8883 57.0132H36.5709L37.3999 54.4618Z" fill="white"/>
<path d="M44.9999 9.23107L45.8289 11.7824H48.5115L46.3412 13.3592L47.1702 15.9105L44.9999 14.3337L42.8296 15.9105L43.6586 13.3592L41.4883 11.7824H44.1709L44.9999 9.23107Z" fill="white"/>
<path d="M44.9999 22.1542L45.8289 24.7055H48.5115L46.3412 26.2823L47.1702 28.8336L44.9999 27.2568L42.8296 28.8336L43.6586 26.2823L41.4883 24.7055H44.1709L44.9999 22.1542Z" fill="white"/>
<path d="M44.9999 35.0772L45.8288 37.6285H48.5115L46.3412 39.2053L47.1702 41.7567L44.9999 40.1799L42.8296 41.7567L43.6586 39.2054L41.4883 37.6285H44.1709L44.9999 35.0772Z" fill="white"/>
<path d="M44.9999 48.0003L45.8288 50.5516H48.5115L46.3412 52.1284L47.1702 54.6798L44.9999 53.103L42.8296 54.6798L43.6586 52.1284L41.4883 50.5516H44.1709L44.9999 48.0003Z" fill="white"/>
<path d="M52.5998 2.76953L53.4288 5.32085H56.1114L53.9411 6.89766L54.7701 9.44898L52.5998 7.87218L50.4295 9.44898L51.2585 6.89766L49.0882 5.32085H51.7708L52.5998 2.76953Z" fill="white"/>
<path d="M52.5998 15.6926L53.4288 18.2439H56.1114L53.9411 19.8207L54.7701 22.3721L52.5998 20.7953L50.4295 22.3721L51.2585 19.8207L49.0882 18.2439H51.7708L52.5998 15.6926Z" fill="white"/>
<path d="M52.5998 28.6157L53.4288 31.167H56.1114L53.9411 32.7438L54.7701 35.2951L52.5998 33.7183L50.4295 35.2951L51.2585 32.7438L49.0882 31.167H51.7708L52.5998 28.6157Z" fill="white"/>
<path d="M52.5998 41.5388L53.4288 44.0901H56.1114L53.9411 45.6669L54.7701 48.2182L52.5998 46.6414L50.4295 48.2182L51.2585 45.6669L49.0882 44.0901H51.7708L52.5998 41.5388Z" fill="white"/>
<path d="M52.5998 54.4618L53.4288 57.0132H56.1114L53.9411 58.59L54.7701 61.1413L52.5998 59.5645L50.4295 61.1413L51.2585 58.59L49.0882 57.0132H51.7708L52.5998 54.4618Z" fill="white"/>
</g>
<defs>
<clipPath id="clip0_354_849">
<rect width="120" height="120" fill="white"/>
</clipPath>
</defs>
</svg>
