<svg width="120" height="120" viewBox="0 0 120 120" fill="none" xmlns="http://www.w3.org/2000/svg">
<g clip-path="url(#clip0_909_222861)">
<circle cx="60" cy="60" r="60" fill="#54AEF2"/>
<path d="M82.2505 65.8275L81.7122 65.5338C80.5764 67.875 79.0709 70.0179 77.2533 71.8801L74.1095 68.7361C75.6497 67.1491 76.8915 65.3476 77.8064 63.4006L77.2709 63.1077C76.3711 65.0282 75.1584 66.7858 73.6821 68.3085L70.8342 65.4606C72.0395 64.2093 73.0183 62.7583 73.7271 61.1722L73.1957 60.8823C72.5144 62.4178 71.5712 63.8232 70.4081 65.0353L67.2608 61.888C68.1242 60.9747 68.8065 59.906 69.2717 58.7385L68.7401 58.4485C68.3039 59.5658 67.6581 60.5893 66.8373 61.464L63.9807 58.6078C64.7917 57.7063 65.269 56.554 65.3331 55.3431H69.3765C69.3433 56.407 69.128 57.4573 68.7401 58.4485L69.2717 58.7385C69.7019 57.6563 69.9389 56.507 69.9719 55.3429H74.4291C74.391 57.2531 73.9716 59.1364 73.1955 60.8823L73.7271 61.1722C74.5376 59.3572 74.9855 57.3847 75.0249 55.3426H79.0607C79.0213 58.0286 78.411 60.6755 77.2704 63.1075L77.8063 63.4005C78.9781 60.9069 79.6149 58.1737 79.6569 55.3428H84.1139C84.0693 58.9905 83.2101 62.4444 81.7122 65.5338L82.2505 65.8272C83.8619 62.5081 84.7173 58.8429 84.7173 55.0447C84.7173 51.8148 84.0984 48.6813 82.9227 45.7743L82.3704 46.0117C83.4777 48.7549 84.078 51.705 84.1149 54.7468H79.6574C79.6213 52.3201 79.1444 49.9669 78.272 47.7733L77.7239 48.0082C78.5654 50.1289 79.0259 52.4023 79.0614 54.7468H75.0252C74.9924 52.9862 74.6499 51.2452 74.0133 49.6033L73.4651 49.8388C74.0704 51.4061 74.3969 53.0671 74.43 54.7468H69.9723C69.9421 53.672 69.7381 52.6092 69.3683 51.5995L68.8202 51.8347C69.1592 52.7697 69.3472 53.7527 69.377 54.7468H65.3336C65.2695 53.5359 64.7921 52.3836 63.981 51.4821L66.8405 48.6231C67.7235 49.5621 68.3915 50.6526 68.8205 51.8349L69.3684 51.5997C68.9094 50.3493 68.1989 49.1956 67.2612 48.2019L70.4132 45.0502C71.7582 46.4502 72.7849 48.0756 73.4652 49.8388L74.0133 49.6033C73.3029 47.7718 72.2337 46.0831 70.8345 44.629L73.6884 41.7745C75.4559 43.5975 76.8138 45.7126 77.7239 48.0084L78.272 47.7733C77.3318 45.409 75.9312 43.2307 74.1096 41.3541L77.2611 38.202C79.4901 40.4853 81.2093 43.1347 82.3703 46.0119L82.9226 45.7744C81.6959 42.7386 79.8618 39.9502 77.4767 37.5652C75.0828 35.1712 72.2822 33.333 69.2331 32.106L69.0135 32.665C71.897 33.8265 74.5523 35.5477 76.8398 37.7808L73.6883 40.9327C71.8433 39.1447 69.7058 37.7587 67.3853 36.8197L67.1678 37.3741C69.4118 38.2845 71.48 39.625 73.2673 41.3587L70.4135 44.2126C69.0261 42.8779 67.4264 41.8416 65.6922 41.1321L65.4744 41.6863C67.1337 42.3663 68.664 43.3581 69.9924 44.6338L66.8409 47.7853C65.9544 46.9498 64.9407 46.294 63.8454 45.8367L63.6275 46.3914C64.6593 46.8246 65.6051 47.4395 66.4197 48.2068L63.5607 51.0658C62.652 50.2519 61.5131 49.7802 60.2952 49.7137V45.6705C61.4408 45.7044 62.5704 45.9488 63.6275 46.3915L63.8454 45.8367C62.7318 45.3715 61.5327 45.111 60.2954 45.0747V40.6171C62.1002 40.6534 63.8489 41.0202 65.4746 41.6865L65.6922 41.1321C63.9981 40.4391 62.1755 40.0581 60.2954 40.0218V35.9838C62.6886 36.0204 65.0093 36.4977 67.1676 37.3728L67.3852 36.8184C65.1581 35.9163 62.7647 35.4249 60.2951 35.3883V30.9303C63.3311 30.9672 66.2757 31.5655 69.0138 32.668L69.2334 32.109C66.3363 30.9424 63.2146 30.3279 59.9977 30.3279C56.0234 30.3279 52.2683 31.276 48.9383 32.9494L49.2099 33.4693C52.4322 31.8547 55.9974 30.9751 59.6999 30.9304V35.3884C56.7766 35.4302 53.9 36.1278 51.2823 37.4296L51.5531 37.948C54.06 36.7071 56.8274 36.0271 59.6999 35.9833V40.0198C57.5242 40.0609 55.3838 40.577 53.4284 41.532L53.7006 42.0528C55.5518 41.1543 57.5873 40.6578 59.6999 40.6152V45.073C58.3398 45.1122 57.0023 45.4308 55.7706 46.009L56.0444 46.5319C57.1793 46.0045 58.4174 45.708 59.6999 45.6682V49.7122C59.0884 49.7459 58.4873 49.8848 57.923 50.1228L58.1963 50.6452C58.7681 50.4116 59.3801 50.2918 59.9978 50.2927C61.2677 50.2927 62.4615 50.7873 63.3598 51.6852C64.2579 52.5832 64.7523 53.7777 64.7523 55.0477C64.7523 57.6694 62.6198 59.803 59.9977 59.803C58.7273 59.803 57.5331 59.3083 56.6351 58.4103C55.737 57.5118 55.2425 56.3178 55.2425 55.0477C55.2425 53.7775 55.737 52.5832 56.6351 51.6852C57.0812 51.2382 57.612 50.8847 58.1963 50.6452L57.9228 50.1226C57.3786 50.3526 56.8763 50.6711 56.4363 51.0654L53.5758 48.2047C54.304 47.5189 55.1373 46.9541 56.0441 46.5318L55.7703 46.0089C54.8107 46.4594 53.9287 47.0595 53.1573 47.7867L50.0025 44.6317C51.0926 43.5837 52.3404 42.7134 53.7005 42.0526L53.4282 41.5318C52.0158 42.2209 50.7197 43.1263 49.5866 44.2153L46.7276 41.3566C48.1491 39.9765 49.777 38.8265 51.5528 37.9479L51.282 37.4295C49.4541 38.3366 47.7777 39.5215 46.3125 40.942L43.1544 37.7838C44.938 36.0416 46.9806 34.5862 49.2096 33.4693L48.9381 32.9494C44.1249 35.3682 40.2066 39.3099 37.8204 44.142L38.3384 44.4214C39.4654 42.1298 40.9488 40.0315 42.7334 38.2047L45.8918 41.3631C44.4139 42.885 43.1912 44.6352 42.2706 46.5465L42.7866 46.825C43.6671 44.9856 44.8476 43.2819 46.3061 41.7778L49.1652 44.6367C48.006 45.843 47.0555 47.2338 46.3527 48.7521L46.8698 49.0311C47.5442 47.5623 48.461 46.2175 49.5816 45.0529L52.7364 48.2079C51.9237 49.0696 51.2705 50.0688 50.807 51.1588L51.3282 51.4408C51.7622 50.4 52.3808 49.4463 53.1542 48.6256L56.0147 51.4861C55.2294 52.3639 54.7309 53.4987 54.6617 54.7494H50.6174C50.6514 53.6124 50.8923 52.4911 51.3282 51.4405L50.8068 51.1585C50.3238 52.2961 50.0576 53.514 50.0219 54.7494H45.5646C45.6048 52.7434 46.0547 50.8065 46.8696 49.0308L46.3524 48.7518C45.48 50.6333 45.0091 52.6759 44.9697 54.7495H40.9328C40.9752 51.9619 41.6147 49.2727 42.7865 46.8247L42.2706 46.5462C41.0715 49.0362 40.382 51.8155 40.3382 54.7495H35.88C35.9238 51.1089 36.7746 47.6008 38.3381 44.4213L37.8201 44.1418C36.1949 47.4337 35.2773 51.1347 35.2773 55.0474C35.2773 57.4408 35.6192 59.7799 36.2721 62.0146L36.8559 61.8676C36.2345 59.7483 35.9061 57.5538 35.88 55.3453H40.3374C40.3632 57.187 40.6471 59.0159 41.1807 60.7788L41.7587 60.6333C41.2418 58.9386 40.9607 57.1627 40.9328 55.3453H44.969C44.9971 56.8054 45.2372 58.2536 45.6818 59.6446L46.2608 59.4985C45.8273 58.1555 45.5928 56.7563 45.5648 55.3453H50.022C50.0519 56.3897 50.2454 57.4228 50.5956 58.4071L51.1749 58.2609C50.8357 57.3248 50.6475 56.3407 50.6174 55.3455H54.6612C54.7252 56.5564 55.2025 57.7087 56.0133 58.6102L53.1542 61.4695C52.2722 60.5308 51.6044 59.4417 51.1748 58.261L50.5956 58.4071C51.0531 59.6902 51.7742 60.8742 52.733 61.8904L49.5815 65.0422C48.0485 63.4462 46.9265 61.5547 46.262 59.4997L45.683 59.6458C46.373 61.8037 47.5496 63.7888 49.1616 65.4643L46.3073 68.3188C44.1728 66.1177 42.6311 63.492 41.76 60.634L41.1821 60.7797C42.0797 63.7402 43.6746 66.4612 45.8861 68.7397L42.7344 71.8915C39.945 69.0334 37.9527 65.6031 36.8574 61.8687L36.2735 62.0157C37.4225 65.9472 39.542 69.5512 42.5192 72.5277C44.5353 74.5444 46.8398 76.1676 49.3382 77.3637L49.634 76.839C47.2695 75.7122 45.0824 74.1937 43.1555 72.3124L46.307 69.1609C47.9191 70.728 49.7881 72.007 51.8325 72.9423L52.1265 72.4206C50.153 71.5251 48.3278 70.2903 46.7286 68.74L49.5827 65.8858C50.9204 67.1728 52.4562 68.1816 54.1194 68.8882L54.4134 68.3674C52.7979 67.6894 51.3039 66.7144 50.0049 65.4664L53.1567 62.3146C54.1695 63.2701 55.3485 63.9897 56.6267 64.4476L56.9246 63.9201C55.6786 63.4883 54.5381 62.7977 53.5781 61.8936L56.4372 59.0343C57.3453 59.8488 58.4841 60.3202 59.702 60.387V64.4308C58.7557 64.4017 57.8193 64.2296 56.9246 63.9202L56.6267 64.4478C57.6149 64.8014 58.6528 64.9966 59.702 65.0262V69.4831C57.8576 69.4462 56.0705 69.0643 54.4146 68.3697L54.1208 68.8905C55.8669 69.6327 57.753 70.0413 59.702 70.0789V74.1153C57.0461 74.0743 54.4811 73.4905 52.1279 72.4228L51.8339 72.9444C54.2766 74.0607 56.9423 74.6695 59.7021 74.7108V79.1676C56.1618 79.1251 52.7451 78.3225 49.6355 76.8411L49.3395 77.3658C52.626 78.9388 56.2485 79.7704 60 79.7704C63.935 79.7704 67.7265 78.8509 71.1387 77.1244L70.857 76.578C67.6748 78.1897 64.0923 79.1212 60.2973 79.1679V74.7109C63.3062 74.6664 66.2025 73.9452 68.8194 72.6289L68.5412 72.0895C65.982 73.3799 63.1632 74.0725 60.2973 74.115V70.0786C62.5548 70.0351 64.7276 69.4936 66.6959 68.5117L66.4193 67.975C64.5158 68.9257 62.4246 69.4408 60.2973 69.483V65.026C61.7351 64.984 63.1191 64.638 64.3788 64.0213L64.1043 63.4878C62.9165 64.0681 61.6188 64.3894 60.2973 64.4304V60.387C61.5085 60.323 62.661 59.8456 63.5625 59.0343L66.4187 61.8907C65.7314 62.5358 64.9512 63.0741 64.1042 63.4878L64.3788 64.0213C65.2813 63.5796 66.1119 63.0043 66.8427 62.3148L69.9894 65.4616C68.9333 66.4752 67.7297 67.3226 66.4193 67.975L66.6959 68.5117C68.0618 67.8309 69.3161 66.9462 70.4157 65.8879L73.2635 68.7355C71.8688 70.0868 70.2764 71.2178 68.5412 72.0897L68.8194 72.6291C70.6104 71.7288 72.2532 70.56 73.6908 69.1632L76.8347 72.307C75.0807 74.019 73.0641 75.4606 70.857 76.578L71.1387 77.1244C73.4825 75.9388 75.6227 74.3879 77.4792 72.5299C79.4625 70.5471 81.0629 68.2842 82.253 65.8332L82.2505 65.8275Z" fill="white"/>
<path d="M61.2641 49.3305L61.2712 49.5095L61.4216 49.5023L61.4133 49.3245L61.2641 49.3305ZM61.0453 49.0866H61.2445V49.2384H61.0453V49.0866ZM60.861 49.0598L60.8821 48.9096L60.707 48.8846L60.686 49.0335L60.861 49.0598ZM60.5383 48.9827L60.3643 48.9575L60.3854 48.8069L60.5594 48.8321L60.5383 48.9827ZM59.1012 48.7821H59.3004V48.9341H59.1012V48.7821ZM58.8409 49.1099L58.862 48.9596L58.688 48.9345L58.667 49.0848L58.8409 49.1099ZM58.6848 49.314L58.4851 49.2633L58.5214 49.116L58.7211 49.1669L58.6848 49.314ZM58.3278 49.5011L58.3031 49.3491L58.4508 49.3244L58.4756 49.4762L58.3278 49.5011ZM38.7544 65.3576H38.9048L38.8789 64.9784L38.6792 64.9019V64.7756H38.5547V65.0285H38.7544V65.3576ZM40.3009 66.4703L40.4749 66.5979L40.6499 66.9773L40.55 67.1537L40.2763 66.9009L40.0765 66.623L39.9766 66.3953L39.8014 65.9396L40.1752 66.1161L40.3009 66.4703ZM46.2355 74.0628L46.0603 74.1642L45.9605 74.0127L45.7114 73.9364L45.6866 73.7087L45.4868 73.4045L45.7865 73.4558L46.1098 73.7337L46.2355 74.0628ZM59.2262 50.9583H58.952L58.9021 50.4018L59.0518 50.3001V50.0219H58.1788L58.154 49.7438L58.2789 49.6677L58.0793 49.5918L57.9296 49.794L57.8801 50.0219L57.6307 50.0727V50.199H57.4562V50.5278L56.7578 51.1098L55.3616 51.0596C55.2614 51.2871 55.0121 51.0341 55.0121 51.0341C54.9626 50.8823 54.6136 51.0341 54.6136 51.0341C54.6136 51.3126 54.1399 50.9076 54.1399 50.9076L53.2669 50.2748C52.7683 49.8194 52.0204 50.4015 51.9955 50.5278C52.0204 50.8823 51.422 50.6039 51.422 50.6039C51.422 50.6039 50.9234 50.4522 50.8484 50.6547C50.7739 50.8569 50.4491 50.8067 50.4491 50.8067L50.3992 50.9078L50.1497 50.9583L50.1002 51.11L49.8008 51.161L50.5487 51.1355C50.7482 51.1101 50.4737 51.5658 50.3492 51.5405L50.0006 51.5658L49.8755 51.6921H49.5515L49.402 51.8949L48.9284 51.8694C48.9284 51.8694 48.6539 52.0973 48.6791 52.173C48.704 52.2491 48.6292 52.4769 48.5542 52.4769C48.4793 52.4769 48.3298 52.7045 48.3797 52.7804C48.4298 52.8564 48.2301 53.1095 48.2301 53.1095L48.1805 53.3628L48.0309 53.4131V54.0965L47.7316 54.299V54.6026L47.2825 55.0835L47.3326 55.4882L46.9588 55.8932L47.0082 56.2982L46.7839 56.3741L46.7344 56.5511L46.6346 57.0824L46.8839 57.1079C47.0083 57.0572 46.9835 57.437 46.8839 57.4874C46.7839 57.5381 46.5095 57.639 46.6595 57.7401C46.8092 57.8418 46.2605 57.8163 46.2605 57.6644C46.2605 57.5129 45.9611 57.3861 45.8866 57.4368C45.8116 57.4872 45.6868 57.2091 45.6868 57.2091C45.4126 56.9309 44.5648 57.2343 44.5648 57.2343L44.4397 57.6392C44.1658 57.69 43.9912 58.1454 43.9912 58.1454C43.7668 58.2215 43.5923 58.4994 43.6672 58.5755C43.7419 58.6515 43.5422 58.6767 43.5422 58.6767V59.2337L43.4177 59.4107L43.4423 60.0179C43.5923 60.0179 43.5674 60.2966 43.5674 60.2966C43.318 60.3218 43.3675 60.6509 43.3675 60.6509L42.8441 60.8279L42.7445 60.9797L42.0962 60.9542L41.9218 61.1315L41.7467 60.9542H40.5001L40.4506 60.8277L40.2011 60.7767L40.1759 60.4988L39.8021 60.5238L39.7274 60.6758L39.3283 60.7008C39.3532 60.954 38.9293 61.3338 38.8798 61.2329C38.8292 61.1315 38.5551 60.8528 38.6801 60.8027C38.8049 60.7517 39.1292 60.7008 39.1292 60.7008V60.5238L38.2063 60.4988L38.1068 60.6507L37.7324 60.6758V61.0808L37.5581 61.1315C37.4332 61.2071 37.5827 61.4858 37.5827 61.4858C37.7573 61.6628 37.5581 61.9409 37.5581 61.9409C37.4081 62.0928 37.6825 62.3715 37.6825 62.3715C37.8821 62.4218 37.558 62.5737 37.558 62.5737C37.6075 62.8266 37.7575 62.9027 37.7575 62.9027C37.6075 63.1556 37.8575 63.2819 37.8575 63.2819L37.8821 63.7127L38.0567 63.8139V64.0917L38.1563 64.269H38.5553L38.5304 63.6365C38.1812 63.2315 38.8294 63.1302 38.8547 63.2817C38.8799 63.4337 39.1541 63.5097 39.1541 63.5097C39.2041 63.8895 39.6281 64.1169 39.7523 63.7377C39.8771 63.3576 39.9769 63.5858 40.0517 63.7626C40.1266 63.9401 40.5997 64.3703 40.5997 64.3703H40.9741L41.0242 64.7247C41.4479 64.6992 41.5723 64.7505 41.7469 65.3319C41.9218 65.9136 42.3953 66.0656 42.3953 66.0656L42.7445 66.0404C42.7445 65.7371 43.0937 66.0914 43.0937 66.2435C43.0937 66.3947 43.7668 66.9768 43.7668 66.9768L44.4398 67.1283L45.0638 67.6352L45.5372 67.5845H45.737C45.8614 67.1538 46.46 67.6094 46.5095 67.7615C46.5599 67.9133 46.9588 68.1665 47.0081 68.0396C47.0584 67.9133 47.3325 67.9893 47.3825 68.3685C47.4323 68.7486 47.6066 68.6726 47.6066 68.6726L49.0282 68.6472L49.5268 68.2166L50.7988 68.1917C51.4468 68.1663 51.0477 67.2804 50.9235 67.2804C50.699 67.1034 50.9981 66.3696 50.9981 66.3696L49.1778 64.6742C48.7539 64.6742 49.1279 64.0665 49.1279 64.0665C49.4519 63.8639 49.0529 63.5355 49.0529 63.5355C49.103 63.2313 48.8783 62.877 48.8783 62.877C48.4298 62.5734 48.5543 61.9911 48.5543 61.9911V61.5861C48.1805 61.2321 48.704 61.1811 48.704 61.1811C48.8783 60.8781 48.5791 60.6501 48.5791 60.6501L48.5543 60.321L48.1553 60.2702L48.1058 59.0807L47.2081 57.7905C47.0332 57.7395 47.158 57.4361 47.158 57.4361C47.3824 57.3095 47.1077 57.0062 47.1077 57.0062L47.083 56.4492L47.6065 56.3982L47.7313 56.1962H47.9805L47.9558 55.5381C48.0803 55.2092 48.3794 55.3862 48.3794 55.3862L48.7285 55.4117L48.9283 55.0319L48.9778 54.7281L48.7037 54.7031C48.4045 54.5258 48.554 53.868 48.554 53.868C49.0278 53.1591 49.5761 53.5641 49.5761 53.5641L49.9256 53.5391C50.449 53.8931 49.9751 54.5511 49.9751 54.5511C49.8753 54.7031 49.9256 55.1838 49.9256 55.1838L50.0501 55.9934L49.7258 56.2721C49.4518 56.424 49.4518 56.7782 49.751 56.8541C49.9504 56.8791 49.8755 57.3602 49.5761 57.0311C49.1276 57.0311 49.826 57.4361 49.6264 57.3344C50.0753 57.5624 49.9751 57.1322 49.9751 57.1322L50.5741 56.6513C50.7986 56.4743 51.1976 57.0311 51.1976 57.1071C51.1976 57.1829 52.1948 57.132 52.1948 57.132C52.469 57.3092 52.5686 57.765 52.5686 57.765C52.8433 57.4103 53.4166 57.7392 52.9928 57.942C53.3914 58.1951 53.3914 58.4226 53.3914 58.4226C53.716 58.3215 53.716 58.5746 53.716 58.6506C53.716 58.7265 53.8156 58.2711 53.8156 58.2711C53.4416 57.9926 54.3142 57.8913 54.0652 58.3976L53.9152 58.6256L54.1648 58.8278L54.1894 59.4101C54.7382 59.3591 54.5885 58.6758 54.5885 58.6758L54.8378 58.6254C54.8378 58.3974 55.0121 58.524 55.0121 58.524C54.8378 57.6635 55.4114 57.512 55.4114 57.512C55.7354 57.4361 55.7603 56.7524 55.7603 56.7524C55.5362 56.6513 55.6604 56.2971 55.91 56.601C56.159 56.9042 55.7603 55.9932 55.7603 55.9932L55.5608 55.8162L55.2868 55.791L55.2616 55.5126H54.8131L54.7381 55.8671L54.5637 55.9176L54.5135 55.8162L54.439 56.0946H53.9902L53.9654 55.791L54.2396 55.7151L54.3394 55.5633L54.4139 55.1583H54.7383L55.1621 55.0319C55.1867 54.6017 55.4114 54.7031 55.4114 54.7031L55.561 54.8294L55.7854 55.0065L55.8104 55.158L55.6606 55.2339L55.636 55.4367L55.7108 55.715H55.91C55.9849 55.31 56.5088 55.31 56.6582 55.5632L56.8081 55.2089C56.459 55.0319 56.8015 54.7532 56.9011 54.8799C57.0008 55.0065 57.2318 54.551 57.2318 54.551C57.2318 54.551 57.4063 54.7787 57.2318 54.4749C57.0572 54.1712 57.3563 54.0195 57.3563 54.0195C57.3067 53.7159 57.6806 53.7665 57.6806 53.7665L57.7057 53.3618L57.3562 53.3361C57.2819 53.6904 56.9827 53.387 57.1321 53.3111C57.2821 53.235 57.431 53.0831 57.431 53.0831V52.83L57.5809 52.7795L57.6056 52.5264H57.9799L58.3039 52.3746L58.3789 52.248L58.7278 52.2228L59.2264 51.7671L59.1769 51.5649C58.8776 51.5649 59.1769 51.3369 59.1769 51.3369L59.2262 50.9583Z" fill="white"/>
<path d="M49.1768 55.968L48.7278 55.9175L48.753 56.0945H48.8775C49.0767 56.4489 48.9024 57.3092 48.9024 57.3092C48.9024 57.3092 48.6035 57.3342 48.5534 57.1827C48.5039 57.0309 48.3788 57.5118 48.4784 57.5877C48.5781 57.6633 48.9275 57.5877 48.9524 57.8663C48.977 58.1444 49.1768 57.689 49.1768 57.689V55.968Z" fill="white"/>
<path d="M49.2758 58.8015L49.3263 58.5736L49.1513 58.4986L49.1759 58.1191L49.3263 58.093L49.3511 57.9153L48.9761 58.1694L48.7271 58.0179V58.6249L49.1265 59.1556L49.2758 58.8015ZM49.3757 59.4598L49.2017 59.4849L49.1759 59.6877L49.3757 59.7127V59.4598ZM49.1513 60.7503L48.9398 60.7753V60.9531L49.1513 60.928V60.7503ZM49.4453 60.1494C49.5038 60.1494 49.5507 60.1015 49.5507 60.0424C49.5509 60.0284 49.5483 60.0145 49.5431 60.0016C49.5379 59.9886 49.5301 59.9767 49.5203 59.9667C49.5105 59.9567 49.4989 59.9488 49.486 59.9433C49.4731 59.9378 49.4593 59.935 49.4453 59.9349C49.4312 59.935 49.4174 59.9378 49.4045 59.9433C49.3916 59.9488 49.3799 59.9567 49.3701 59.9667C49.3602 59.9767 49.3525 59.9885 49.3472 60.0015C49.342 60.0145 49.3394 60.0284 49.3395 60.0424C49.3395 60.1015 49.3869 60.1494 49.4453 60.1494Z" fill="white"/>
<path d="M49.6197 60.681C49.6785 60.681 49.7262 60.6333 49.7262 60.5745C49.7262 60.5157 49.6785 60.468 49.6197 60.468C49.5609 60.468 49.5132 60.5157 49.5132 60.5745C49.5132 60.6333 49.5609 60.681 49.6197 60.681Z" fill="white"/>
<path d="M49.6255 57.7905C49.6844 57.7905 49.732 57.7428 49.732 57.684C49.732 57.6252 49.6844 57.5775 49.6255 57.5775C49.5667 57.5775 49.519 57.6252 49.519 57.684C49.519 57.7428 49.5667 57.7905 49.6255 57.7905Z" fill="white"/>
<path d="M58.2775 54.6015V54.1209H58.1283L58.1035 53.9432L57.8286 53.9181L57.7791 54.0446H57.6546L57.6288 54.2474H57.7792L57.8038 54.3989L57.7041 54.5001L57.6546 54.6266L57.4549 54.6779L57.006 55.1084L56.9812 55.31L56.8568 55.4877L56.7075 55.8669L56.1834 55.892L56.0835 56.3477L56.1574 56.7269L56.6064 56.9046L56.6569 56.6517L56.8062 56.5754L56.832 56.3226L56.9307 56.1449L57.0811 55.9683L57.1306 55.7655L57.3796 55.614L57.6793 55.5629L57.8038 55.4114L57.8544 55.1084L57.8721 54.8807L57.979 54.728L58.2775 54.6015ZM58.8007 55.665V55.3107L58.7505 54.9816L58.377 54.8046L58.1028 55.0577L58.0527 55.4121V55.6397L57.8034 55.6904L57.7531 56.3736L57.5539 56.4497L57.579 56.7027L57.0306 56.8545L56.9806 57.1835L56.7814 57.3099L56.6811 57.6137L56.5566 58.3476C56.5566 58.3476 56.7813 58.7778 56.9058 58.5753C57.0306 58.373 57.2298 58.3476 57.2298 58.3476L57.3048 58.1703L57.978 58.1957C58.0279 57.917 58.3521 58.0187 58.3521 58.1451C58.3521 58.2716 58.6015 58.1702 58.6015 58.1702L58.7758 57.8919H59.0499L59.0749 57.5885L59.1997 57.5124V57.0567C59.5989 56.9303 59.5486 56.5508 59.5486 56.5508L59.649 56.4243L59.5989 56.2473C59.3991 56.1713 59.4987 55.9938 59.6235 56.0445C59.7486 56.0951 59.449 55.8167 59.449 55.8167C59.2995 55.9436 59.1751 55.665 59.1751 55.665H58.8007ZM59.1997 58.7265C59.175 59.0301 58.8007 59.1315 58.8007 59.1315L58.5265 59.0556L58.377 58.929L58.3519 58.5746L58.5762 58.5495L58.6261 58.7015L59.1997 58.7265ZM60.5467 57.108C60.6007 57.3287 60.5962 56.7533 60.696 56.7789C60.7956 56.8041 60.7212 56.4249 60.7212 56.4249L60.2722 56.7534C60.4966 56.7789 60.5212 57.0069 60.5467 57.108ZM61.8682 55.791C61.9678 56.019 61.9432 56.348 62.3167 56.601C62.443 56.6864 62.2419 56.8542 62.1169 56.778C61.9924 56.7023 61.6439 56.1452 61.6439 56.1452V55.8164C61.7186 55.614 61.825 55.6929 61.8682 55.791ZM62.1919 63.4082L62.0427 63.3569L61.8687 63.4844L61.9428 63.5597L62.0169 63.6861L62.1919 63.4082ZM61.2443 63.0795V63.384V63.0795ZM65.0499 62.5865L64.9701 62.4588L64.7715 62.5841L64.8502 62.7129L65.0499 62.5865ZM72.0667 67.989L72.2914 68.09L72.316 68.5202C72.6156 68.8238 73.5881 68.5709 73.5881 68.4948C73.5881 68.4188 73.5378 67.5587 73.5378 67.5587L73.4128 67.4319L73.3882 66.7989C73.4878 66.47 72.9142 65.9889 72.8646 66.0909C72.8146 66.1917 72.4905 66.1155 72.4905 66.2171C72.4905 66.318 72.2913 66.8243 72.3909 67.0016C72.4905 67.1789 72.3159 67.1789 72.2912 67.3559C72.2664 67.5329 72.0168 67.8371 72.0667 67.989ZM71.5177 66.9765C71.4705 67.1682 71.2938 67.2801 71.194 67.2041C71.0937 67.128 71.3181 67.3304 71.3683 67.4321C71.4181 67.533 71.5675 67.533 71.6178 67.4321C71.6673 67.3302 71.6425 67.1031 71.6928 67.0019C71.7423 66.9005 71.5428 66.8753 71.5177 66.9764V66.9765ZM70.3582 62.334H70.5326V62.8151H70.3582V62.334ZM72.9397 57.462C72.831 57.3146 73.4383 57.057 73.5381 57.3609C73.6377 57.6642 73.5381 57.614 73.4383 57.5886C73.3383 57.5631 73.0894 57.6644 72.9397 57.462ZM73.45 54.2211L73.7238 54.2712L73.7508 54.1221L73.4758 54.072L73.45 54.2211ZM72.7777 54.3332L72.5922 54.4382L72.4299 54.3356L72.3511 54.4631L72.5509 54.5897L72.5886 54.6135L72.6261 54.5919L72.7767 54.5073L72.7955 54.5538L72.934 54.4977L72.8835 54.3714L72.8518 54.2915L72.7777 54.3332ZM73.7122 48.351H73.338C73.338 48.351 73.4628 48.4016 73.114 48.0725C72.7644 47.7437 72.5404 48.1485 72.5404 48.1485L72.1414 48.1991V48.6041L71.9416 48.6798L71.9668 48.933L72.241 48.9078C72.241 48.9078 72.241 49.2114 72.316 49.085C72.391 48.9584 73.0143 49.11 72.9642 49.4139C72.944 49.5387 73.5879 49.8692 73.5132 50.274C73.8372 50.3249 73.7623 50.654 73.7623 50.654L74.1861 50.7045L74.3111 50.4515L74.4355 50.4768V50.3249L74.1607 50.249L74.1112 49.439L73.9368 49.3125L73.9865 49.11L73.7873 49.034L73.887 48.7052L73.7122 48.351ZM74.8088 50.9325L74.6094 50.9075L74.16 50.9834L73.9111 51.4641C73.9111 51.4641 74.0356 51.54 74.1351 51.7172C74.2348 51.8945 74.285 52.9317 73.9857 53.1092C73.6868 53.2863 74.0109 53.1848 74.0109 53.1848L73.9607 53.7416C74.0357 53.9948 74.16 53.8685 74.2349 53.7416C74.3103 53.6156 74.3851 53.5901 74.4847 53.4635C74.5845 53.3367 74.7339 53.1092 74.7589 52.9319C74.7837 52.7549 74.9085 52.4766 74.8335 52.4006C74.7589 52.3247 74.9085 51.9705 74.9085 51.9705C74.9085 51.9705 75.0082 51.7677 74.9085 51.5655C74.8089 51.3629 74.9334 51.135 75.0082 51.0338L74.8088 50.9325ZM75.1103 51.965L75.1357 51.7625L75.2845 51.7817L75.259 51.9842L75.1103 51.965ZM75.1013 52.6643L74.9678 52.5963L75.0426 52.4447L75.1761 52.5125L75.1013 52.6643ZM74.8838 50.655L74.7837 50.427C74.7837 50.427 74.7837 50.225 74.8335 50.1233C74.8837 50.0222 74.7339 49.9212 74.6593 49.8957C74.5843 49.8702 74.6095 49.668 74.5843 49.5666C74.5596 49.4655 74.3853 49.3896 74.3853 49.3896C74.3853 49.3896 74.3349 49.0101 74.3349 48.9342C74.3349 48.8583 74.1106 48.7572 74.1855 48.681C74.2605 48.6051 74.3104 48.504 74.3853 48.4532C74.4601 48.4026 74.3103 48.0482 74.4348 48.1242C74.5596 48.2003 74.5596 48.3267 74.6096 48.428C74.6593 48.5291 74.5845 48.8835 74.7093 48.9596C74.8338 49.0352 74.6841 49.2881 74.8838 49.2881C75.0831 49.2881 74.9587 49.7693 74.9587 49.7693C74.9587 49.7693 74.9085 50.1233 75.033 50.1488C75.1579 50.1741 75.0832 50.7815 75.0832 50.7815L74.8838 50.655ZM73.2638 46.554C73.3383 46.6551 73.488 46.731 73.488 46.8326C73.488 46.9338 73.4382 47.0096 73.5881 47.0349C73.7373 47.0601 73.8373 47.0094 73.887 47.136C73.9369 47.2625 73.937 47.465 73.9122 47.5662C73.887 47.6676 73.937 47.8193 74.0615 47.8193C74.1864 47.8193 74.2111 47.8448 74.2111 47.9207C74.2111 47.9964 74.3608 47.6421 74.3608 47.6421C74.2359 47.541 74.1361 47.313 74.1361 47.313C74.1361 47.313 74.0116 46.9589 74.0116 46.9083C74.0116 46.8576 73.8374 46.8069 73.7626 46.7817C73.6877 46.7562 73.5627 46.5287 73.5627 46.5287L73.2638 46.5542V46.554ZM73.5127 46.3275C73.4377 46.226 73.3629 46.1502 73.2633 46.0998C73.1638 46.049 73.089 45.9984 72.9888 45.9984C72.8892 45.9984 72.7897 45.897 72.8391 45.7707C72.8893 45.6441 72.7641 45.5936 72.7641 45.4922C72.7641 45.3911 72.8391 45.3911 72.9639 45.467C73.0888 45.543 73.0637 45.5681 73.1638 45.695C73.2633 45.8213 73.3129 45.9479 73.4125 45.9225C73.5127 45.897 73.5874 46.1502 73.687 46.0743C73.7868 45.9984 73.762 46.2513 73.762 46.2513L73.5127 46.3275ZM70.5952 49.1865C70.7328 49.3263 69.8474 49.2875 69.8474 49.1865C69.8474 49.0854 69.9223 48.7313 70.1463 48.8067C70.3708 48.8829 70.3955 48.3515 70.3955 48.3515C70.3955 48.3515 70.1962 48.3765 70.3709 48.2754C70.5453 48.1743 70.3709 48.0224 70.2958 47.9465C70.2212 47.8704 70.1463 47.744 70.1463 47.744H70.4958C70.6455 47.6426 70.6948 47.162 70.6948 47.162C70.9939 47.2631 71.1436 47.0606 71.1436 47.0606C71.1436 47.0606 71.1942 47.2124 71.2936 47.3393C71.3934 47.4656 71.0439 47.5163 71.1687 47.5923C71.2938 47.6682 71.3433 47.8958 71.2938 47.9715C71.2435 48.0476 70.9689 47.997 70.9689 47.8958C70.9689 47.7945 70.8693 48.0224 70.9689 48.149C71.0687 48.2754 70.8444 48.4524 70.7944 48.4524C70.7445 48.4524 70.4209 48.5033 70.6948 48.6549C70.9689 48.8067 71.2687 48.7311 71.2687 48.7311C71.2687 48.7311 71.493 48.7056 71.5677 48.8324C71.6427 48.9588 71.5429 48.9842 71.4183 48.9842C71.2938 48.9842 70.695 48.9333 70.695 48.9333C70.695 48.9333 70.5205 49.1106 70.5952 49.1865ZM68.9992 49.4145C69.1243 49.3892 69.4228 49.3637 69.4731 49.4397C69.5232 49.5155 69.2985 49.6167 69.2985 49.6167L68.9992 49.6674C68.8996 49.5408 68.8747 49.4399 68.9992 49.4145ZM72.2167 47.289C72.4161 47.1879 72.8398 47.1879 72.8151 47.036C72.7903 46.8842 73.0642 46.8335 73.0642 46.8335L73.1392 47.1371L73.3636 47.2889L73.3887 47.5673C73.3887 47.5673 73.4633 47.5167 73.1892 47.5928C72.9147 47.6687 73.0896 47.795 73.0896 47.795L72.4909 47.8203L72.4159 47.5671L72.2167 47.289ZM71.2432 45.9225C71.3947 45.9225 71.1937 46.5045 71.5921 46.454C71.9911 46.4031 71.6176 46.631 71.9164 46.6563C72.2158 46.6818 72.141 46.4286 72.2406 46.2516C72.3406 46.0745 72.2909 45.9731 72.1161 45.9225C71.9412 45.872 71.9412 45.872 71.8917 45.6692C71.842 45.467 71.6424 45.4161 71.6424 45.4161L71.5674 45.1127L71.2432 45.315L70.9193 45.7452C70.9193 46.0745 71.0935 45.9225 71.2432 45.9225ZM71.9033 48.0609L71.9783 47.9091L72.1123 47.9772L72.0373 48.129L71.9033 48.0609ZM71.6422 47.82H71.792V47.9972H71.6422V47.82ZM71.7681 44.448L71.7931 44.6757L71.6445 44.6925L71.6193 44.4651L71.7681 44.448ZM71.3437 46.8075H71.4935V46.9343H71.3437V46.8075ZM70.951 46.805L70.9363 46.6536L71.1858 46.6287L71.2005 46.7799L70.951 46.805ZM68.8939 49.2387L68.7568 49.1789L68.8318 49.0019L68.9688 49.0616L68.8939 49.2387ZM68.1112 48.7781L68.0967 48.6273L68.3464 48.6023L68.361 48.753L68.1112 48.7781ZM63.2367 48.7563L63.2437 48.9078L63.7912 48.8828L63.7843 48.7313L63.2367 48.7563ZM62.8695 48.951L62.8198 48.7235L62.9661 48.6906L63.0158 48.918L62.8695 48.951ZM62.7646 49.1078L62.7174 48.9638L62.7921 48.9384L62.8393 49.0826L62.7646 49.1078ZM64.0117 48.681L63.987 48.858L64.2609 48.8835C64.2609 48.8835 64.3854 48.9849 64.3854 49.0605C64.3854 49.1366 64.5603 49.2123 64.6599 49.2123C64.7597 49.2123 65.0338 49.0098 65.0338 49.0098C65.0338 49.0098 65.1586 48.6555 65.059 48.6807C64.959 48.7059 64.7596 48.8579 64.735 48.7059C64.7095 48.5541 64.4109 48.63 64.4109 48.63L64.0117 48.681ZM65.2582 48.402C65.2582 48.4778 65.2087 48.579 65.3578 48.6045C65.5081 48.6296 65.7823 48.5034 65.8071 48.6551C65.8323 48.8069 65.8323 48.9084 66.0315 48.9845C66.2307 49.0601 66.3558 49.0856 66.5053 49.0856C66.6546 49.0856 66.9793 49.0346 66.9793 49.0346C66.9793 49.0346 67.332 49.0898 67.4029 49.1613C67.6771 49.4396 67.8514 49.5155 67.9264 49.389C68.0011 49.2624 67.9015 48.9843 67.8768 48.8831C67.8516 48.7815 67.5024 48.3008 67.3777 48.402C67.2532 48.5034 67.2283 48.402 67.0038 48.4778C66.7794 48.5537 66.3055 48.5033 66.2808 48.402C66.256 48.3006 65.907 48.2505 65.907 48.149C65.907 48.0476 65.6578 47.9213 65.6824 48.0729C65.7072 48.2247 65.5081 48.3006 65.4574 48.2504C65.4079 48.1997 65.2582 48.402 65.2582 48.402ZM70.9943 45.162L71.1691 44.6055C70.92 44.5548 70.9695 44.2767 70.9695 44.2767C70.9446 44.0487 70.5957 43.7958 70.4709 43.8717C70.3464 43.9475 70.3959 43.3401 70.3959 43.3401C70.3959 43.3401 70.6206 43.1886 70.7202 43.2644C70.8199 43.3401 69.8727 41.9991 69.6729 42.1256C69.4735 42.2522 69.025 41.9991 69.0498 41.7711C69.0747 41.5436 68.1522 40.7841 68.1522 40.7841C68.1522 40.7841 67.8528 40.5821 67.8031 40.7339C67.7532 40.8855 67.6536 40.9869 67.8031 41.0625C67.9525 41.1387 67.9276 40.9362 68.1019 41.1131C68.2765 41.2902 68.601 41.5181 68.4762 41.67C68.3514 41.8221 68.2017 41.8725 68.2017 41.8725L68.3766 42.075H68.6508L68.7007 42.5051C68.7007 42.5051 68.9997 42.657 69.0747 42.8342C69.1496 43.0112 69.1496 43.1126 69.0747 43.214C68.9997 43.3151 68.8507 43.4922 68.8753 43.6691C68.9001 43.8462 69.0998 43.9223 69.0998 43.9223L69.299 43.9478L69.449 44.0237V44.3529C69.648 44.3021 69.9722 44.5802 69.9474 44.7576C69.9227 44.9346 69.9969 44.8334 70.2463 45.0107C70.4959 45.1877 70.4212 45.2132 70.5957 45.3398C70.7703 45.4658 70.92 45.39 70.9943 45.162Z" fill="white"/>
<path d="M66.8799 41.721C66.8551 41.6196 66.8049 41.2651 66.9547 41.2905C67.1043 41.316 67.0047 41.2905 67.1791 41.3665C67.3537 41.4426 67.3786 41.2401 67.3786 41.2401H67.6531L68.0019 41.5182L67.9519 41.7462L67.7026 41.7712C67.5781 41.569 67.3287 41.6449 67.3786 41.8222C67.4284 41.9992 67.2541 42.3282 67.1545 42.3532C67.0548 42.3787 66.73 42.3787 66.7555 42.2271C66.7803 42.0751 66.8799 41.721 66.8799 41.721ZM66.6804 41.037V40.8346C66.6804 40.8346 66.6549 40.6323 66.5307 40.6323C66.4063 40.6323 66.1818 40.4806 66.2313 40.3792C66.2815 40.2778 65.8075 40.1767 65.8075 40.1767C65.8075 40.1767 65.3839 39.7717 65.5335 39.8227C65.6832 39.8731 65.6085 39.6453 65.6085 39.6453C65.6085 39.6453 65.3089 39.6958 65.2341 39.6708C65.1591 39.6453 65.184 39.4176 65.184 39.4176C65.184 39.4176 64.8852 39.3417 64.8852 39.4176C64.8852 39.4936 64.9849 39.4936 65.0343 39.6451C65.0845 39.7969 65.0596 40.0501 65.2843 40.1007C65.5087 40.1514 65.5582 40.2018 65.5836 40.3032C65.6085 40.4046 65.8825 40.4296 65.8825 40.4296L66.0822 40.5309L66.6804 41.037ZM63.9138 38.2536L63.714 38.2035V38.4315L63.9877 38.4564L63.9138 38.2536ZM63.9129 37.3935C63.6522 37.1955 64.2616 37.5454 64.2616 37.5454C64.461 37.5454 64.5856 37.6972 64.5856 37.7734C64.5856 37.8492 64.8601 37.824 64.8601 37.824L64.8855 37.6465L64.6855 37.3935L64.5112 37.2673C64.5112 37.2673 64.237 37.2418 64.237 37.1659C64.237 37.0902 64.0125 37.4695 63.9129 37.3935ZM68.4999 37.545C68.427 37.7664 68.4003 38.0766 68.2755 38.0766C68.151 38.0766 68.2005 38.4058 68.2005 38.4058C68.2005 38.4058 68.5252 38.4058 68.625 38.4309C68.7243 38.4559 68.7243 38.709 68.7243 38.709C69.0987 38.6839 69.2484 39.19 69.1983 39.3165C69.1482 39.4429 69.3478 39.4429 69.3478 39.4429C69.3478 39.4429 69.3478 39.8479 69.2977 39.949C69.2482 40.0504 69.622 40.1263 69.7216 40.2781C69.8214 40.4301 69.6715 40.936 69.5971 40.9614C69.5221 40.9869 69.7962 41.0625 69.7714 41.1891C69.7462 41.3158 69.8464 41.1891 69.8712 41.3916C69.8959 41.5941 69.9462 42.0241 69.9462 42.0241L70.2949 42.0496C70.345 41.7208 70.9879 41.7081 71.0929 41.7459C71.5168 41.8977 71.8414 42.5557 71.8414 42.7074C71.8414 42.8592 71.5668 42.8848 71.5668 42.8848L71.6169 43.6183C72.0406 43.7451 72.3897 44.3526 72.34 44.4538C72.2901 44.5549 72.6388 44.5299 72.6388 44.5299C72.6891 44.0739 73.1128 44.226 73.1374 44.3779C73.1629 44.5299 73.2373 44.8588 73.2373 44.8588L73.3621 45.0862L73.5366 45.2634L73.8108 45.2382L73.8858 45.3901L74.2098 45.441C74.2098 45.441 74.4844 45.7443 74.5092 45.8205C74.5344 45.8961 74.9082 45.871 75.0078 45.8961C75.1074 45.9216 75.2572 45.9975 75.282 46.1241C75.3072 46.2507 75.4569 46.453 75.4569 46.453C75.4569 46.453 75.7558 46.5291 75.7809 46.63C75.8058 46.7311 75.9307 46.959 75.9307 46.959L76.1794 47.1615L76.2046 47.3895L76.4788 47.4148L76.5538 47.7181L77.0023 47.6931L77.2521 47.5159C77.5761 47.3389 77.8006 47.1109 77.8257 47.0097C77.8503 46.9084 77.9002 46.5291 78.1497 46.605C78.3988 46.6809 78.2247 46.048 78.2247 46.048C78.2247 46.048 77.8756 45.795 77.9002 45.6682C77.9253 45.5419 77.5515 45.289 77.5762 45.1876C77.601 45.0862 77.2521 44.884 77.2768 44.7828C77.3016 44.6814 77.1024 44.403 77.1024 44.403L76.7281 44.049L76.6782 43.821L76.3792 43.7959L75.7809 43.062L75.8056 42.8593L75.6312 42.8341V42.5559L75.4569 42.4545L75.1824 42.4291L74.634 41.8221L74.584 41.5435H74.3098L74.3595 41.0119C74.5342 40.7841 74.4343 40.354 74.4343 40.354C74.4343 40.354 74.0848 40.531 73.9108 40.4551C73.7359 40.3795 73.9854 40.2021 73.9854 40.2021V39.9997L73.836 39.8479C73.836 39.8479 73.4118 39.8988 73.387 39.8229C73.3621 39.7468 73.2874 39.4179 73.2874 39.4179L73.2624 38.9874L73.0881 38.9119L73.0627 38.7598L72.7888 38.785V38.4814L72.639 38.4309L72.4896 38.355L72.4647 38.0511L71.916 38.026L71.7415 37.773L71.5422 37.4692L70.9188 37.4187L70.7691 37.2672L70.5198 37.2162L70.3453 37.1403L70.2705 37.267L69.7965 37.2921L69.7719 37.444C69.5226 37.5705 68.5254 37.4691 68.4999 37.545ZM71.1189 36.888C71.0794 36.6882 71.6179 36.5085 71.7424 36.66C71.8674 36.8119 72.2163 36.8376 72.2662 37.5967C72.2838 37.8685 71.8173 37.3185 71.8173 37.3185L71.443 37.1919C71.2437 37.141 71.1435 37.0149 71.1189 36.888ZM63.8053 37.1971L63.6691 37.1356L63.7692 36.9076L63.9054 36.9693L63.8053 37.1971ZM62.5164 34.7115L62.1916 34.3824V34.1041L62.0919 34.0026L61.9923 33.6486L61.6683 33.5473L61.344 33.6736L60.9949 33.9015L60.6211 33.9525L60.4213 34.1799L61.2193 34.2555L61.3687 34.509L61.9428 34.5595L62.3163 34.939C62.6412 35.0404 62.7157 34.8885 62.5164 34.7115ZM62.4669 33.471C62.412 33.2485 62.0926 33.7492 62.4174 33.8502C62.7414 33.952 63.0651 33.8502 63.0651 33.8502L63.1401 33.6985L64.3866 33.724C64.4868 33.6226 64.5363 33.4708 64.5363 33.4708C64.5363 33.4708 64.8357 33.3694 64.96 33.42C65.0848 33.471 64.9854 33.066 64.8603 33.1165C64.7358 33.1671 64.4866 33.1417 64.4866 33.1417H64.0375C64.0128 32.9647 63.6138 33.0405 63.589 33.1417C63.5635 33.243 63.4146 33.2682 63.4146 33.2682L62.841 33.319C62.791 33.471 62.4921 33.5721 62.4669 33.471ZM59.9979 37.7415C60.3813 37.8631 60.5214 37.773 60.5467 37.6719C60.5715 37.5706 60.5962 37.5451 60.7459 37.5201C60.8955 37.4946 60.7209 37.1911 60.5715 37.2163C60.4216 37.2417 60.2721 37.1658 60.2475 37.0393C60.222 36.9129 59.9727 36.5838 59.9479 36.8368C59.923 37.09 59.7735 37.09 59.7982 37.2672C59.8234 37.4439 59.8983 37.7095 59.9979 37.7415ZM57.1314 38.0265C57.1134 37.9369 57.63 37.9254 57.705 38.001C57.78 38.077 57.7297 38.2035 57.9543 38.2035C58.1784 38.2035 58.0788 38.3554 58.0539 38.4315C58.0291 38.5072 57.78 38.482 57.7545 38.4063C57.7297 38.3302 57.3555 38.3046 57.3555 38.3046C57.3555 38.3046 57.1561 38.1526 57.1314 38.0265ZM65.4039 32.9655L65.4555 32.9229L65.7058 32.7204L65.6118 32.6019L65.4144 32.7616L65.2875 32.6326L65.1817 32.7399L65.3557 32.917L65.4039 32.9655ZM64.2768 32.295L64.5519 32.1177L64.4719 31.9897L64.2369 32.1412L64.077 32.0401L63.9984 32.1688L64.198 32.2951L64.2369 32.3206L64.2768 32.295ZM63.5013 37.7373L63.627 37.6561L63.453 37.3782L63.433 37.3473L63.3966 37.3437L63.1476 37.3174L63.1323 37.4689L63.346 37.4904L63.5013 37.7373ZM55.1859 44.403L55.2114 44.6815H55.5849C55.7347 44.6815 55.4604 44.5044 55.4604 44.5044C55.4604 44.5044 55.1613 44.5299 55.1859 44.403ZM55.6614 44.4112L55.7569 44.2942L55.9065 44.4202L55.8109 44.5372L55.6614 44.4112ZM51.1182 39.6766L51.2242 39.5692L51.3738 39.7212L51.2677 39.8286L51.1182 39.6766ZM58.2564 72.4967L58.381 72.3703L58.4539 72.2964L58.3611 72.2487L58.1121 72.1222L58.045 72.2581L58.2012 72.3369L58.1496 72.3894L58.2564 72.4967ZM56.3644 70.6827L56.4514 70.5597L56.3551 70.4895L56.4303 70.4262L56.335 70.3093L56.1847 70.4358L56.1106 70.499L56.1894 70.5562L56.3644 70.6827ZM74.9719 65.6254C74.9389 65.4964 74.7934 65.4436 74.7771 65.4382L74.7295 65.5826V65.5816C74.7414 65.5861 74.7586 65.5951 74.776 65.6065L74.8065 65.7378C74.7963 65.753 74.7853 65.7676 74.7735 65.7816L74.8833 65.8843C74.9632 65.7952 74.9928 65.7088 74.9719 65.6254ZM74.9586 65.1295L74.9773 64.9018L75.2206 64.9399L75.2019 65.1475L74.9586 65.1295ZM80.9809 63.1744C81.0874 63.1069 81.2239 62.9844 81.2053 63.2695C81.1864 63.5541 81.0744 63.4594 80.9809 63.5541C80.8875 63.6492 80.8314 63.2695 80.9809 63.1744ZM82.2499 62.1004C82.2478 62.0955 82.2465 62.0779 82.2454 62.0652C82.2421 62.0233 82.2367 61.9665 82.2072 61.9068L82.0735 61.9746C82.09 62.0085 82.0933 62.0443 82.0962 62.0787C82.0999 62.1229 82.1049 62.1736 82.1473 62.2057C82.1742 62.2261 82.2079 62.232 82.2483 62.2242L82.2198 62.0772C82.2312 62.0791 82.2463 62.0896 82.2499 62.1004ZM81.9169 62.2249C81.9438 62.3304 81.9758 62.4344 82.0129 62.5366L82.1532 62.4832C82.1521 62.4819 82.0977 62.3335 82.0618 62.1877L81.9169 62.2249ZM81.3724 62.8219L81.2235 62.8069C81.2118 62.9265 81.2403 63.0739 81.358 63.0979L81.3874 62.9491C81.3885 62.9491 81.3898 62.95 81.3901 62.95C81.3781 62.9392 81.367 62.878 81.3724 62.8219ZM80.7169 59.8025C80.7136 59.7792 80.7044 59.7571 80.69 59.7385C80.6757 59.7198 80.6568 59.7051 80.6352 59.6959C80.5245 59.6473 80.3379 59.7279 80.2464 59.79L80.3292 59.9163C80.4238 59.8522 80.5482 59.8214 80.5759 59.8354C80.5734 59.8345 80.5699 59.83 80.569 59.8272L80.7169 59.8025ZM73.8109 51.7174C73.7113 51.8188 73.4869 51.8694 73.4869 51.8694L73.4119 52.1478L73.2874 52.2489C73.2874 52.2489 73.3122 52.3248 73.2874 52.5019C73.2625 52.6789 73.038 52.7803 73.038 52.7803L72.9384 52.9069C72.9384 52.9069 72.3373 52.9395 72.2652 52.9069C72.0406 52.8057 72.1905 52.5019 72.3402 52.5273C72.4894 52.5528 72.3148 52.0969 72.3148 52.0969L72.5146 52.0717C72.5146 52.0717 72.5392 51.616 72.6142 51.616C72.6892 51.616 72.5895 51.4644 72.4893 51.3883C72.3897 51.3127 72.2652 51.0597 72.165 51.0849C72.0654 51.1099 71.6664 51.0849 71.6664 51.0849L71.5915 51.2368L71.317 51.2872C71.317 51.2872 71.3407 51.483 71.2929 51.5404C71.1426 51.7174 70.5696 52.0969 70.8186 51.4645L70.8931 51.3129V51.0849L70.4448 51.0598C70.4448 51.0598 70.2204 50.9838 70.2204 50.8825C70.2204 50.7813 70.1953 50.655 70.1953 50.655L69.6715 50.073L69.0484 49.9971L68.9983 49.8703L68.6248 49.8198C68.1756 49.5922 67.7764 49.7944 67.8514 50.1741C67.9263 50.554 68.0506 50.7057 67.8018 50.7057C67.552 50.7057 67.5024 50.5032 67.5024 50.5032C67.5024 50.5032 67.3032 50.4271 67.3032 50.5284C67.3032 50.6298 67.2282 50.8321 67.3032 50.9334C67.3776 51.0343 67.203 51.1863 67.1281 51.1104C67.0539 51.0343 66.8542 50.8071 66.9042 50.731C66.9538 50.6551 66.5547 50.1741 66.9538 50.0983C67.353 50.0223 66.9289 49.7944 67.0788 49.7442L67.278 49.6428H67.4773L67.6021 49.5414L67.2781 49.4911L67.0788 49.4656L66.7045 49.4404C66.3307 49.6935 66.256 49.9972 66.256 49.9972C66.0562 50.3767 65.5828 49.8453 65.7574 49.6429C65.9317 49.4404 65.2087 49.6174 65.0839 49.7187C64.959 49.8199 64.585 49.7694 64.585 49.7694C64.5105 49.9974 64.1614 49.7443 64.261 49.5924C64.3608 49.4404 64.3608 49.3392 64.3608 49.3392L64.2363 49.3138L64.0867 49.5922C63.7377 49.5922 63.6376 49.7944 63.7123 49.9212C63.7872 50.0475 63.6127 49.8958 63.5626 50.073C63.5131 50.25 63.588 50.25 63.7377 50.326C63.8874 50.4021 63.6627 50.4021 63.7624 50.5284C63.862 50.6551 64.1614 50.5284 63.987 50.7057C63.8125 50.8827 63.463 50.8071 63.463 50.8071C63.4383 51.0343 62.9644 50.9841 62.9149 50.9082C62.8647 50.8323 62.491 50.3766 62.491 50.3766L62.0166 50.3514C61.9671 49.9974 62.2413 50.1744 62.341 49.8958C62.4412 49.6174 62.491 49.1622 62.491 49.1622C62.491 49.1622 62.0916 49.1368 62.0668 49.2633C62.0421 49.3899 61.7926 49.4658 61.7926 49.4658C61.7926 49.4658 61.593 49.5415 61.6678 49.6428C61.7428 49.7443 61.5181 49.7944 61.5181 49.7944C61.5181 49.7944 61.5571 49.9579 61.4934 50.0224C61.2942 50.2249 60.795 50.0475 60.7206 49.9717L60.4212 49.8451L60.1218 49.6428L59.7729 49.7943L59.6733 49.8958H59.299L59.2743 50.1991L59.9475 50.2749L59.9974 50.9013L59.7229 50.8068H59.5483L59.4738 50.6548L59.3239 50.6293V51.186L59.4738 51.3127L59.5986 51.4389L59.848 51.4644L59.898 51.7678L60.5209 51.7935L60.5959 51.9198L60.9702 51.9453L61.6932 52.6788L61.6432 52.9068L61.5183 52.9827C61.5685 53.1598 61.1946 53.0587 61.1946 53.0587V53.2102L61.3686 53.2357L61.5436 53.3367L61.7926 52.9066C62.067 52.7296 62.1913 52.9827 62.2167 53.1345C62.2414 53.2863 62.0917 53.2609 62.0917 53.2609V53.6155L62.2414 53.6658C62.4912 53.9695 62.1418 54.1468 62.1418 54.1468L62.0668 54.3997C61.9918 54.6276 61.7178 54.5767 61.7178 54.5767L61.6183 54.7287L61.3186 54.8047L61.9107 54.8805C61.9671 54.678 62.1162 54.6274 62.1912 54.7287C62.2662 54.8301 62.2662 55.0072 62.2662 55.0072L62.4162 55.0324L62.3908 55.3107L62.5407 55.3615V56.1712L62.7151 56.3737C63.0144 56.2474 63.0144 56.4498 62.8645 56.5507C62.7151 56.6517 62.8146 57.1075 62.8146 57.1075L62.6901 57.2338V57.4365L62.5405 57.5377V57.816C62.2911 57.6895 61.9917 57.7398 61.9167 57.816C61.6927 57.664 61.2189 57.7147 61.2189 57.8415C61.3683 58.044 61.0446 58.0945 61.0446 58.0945L60.8697 58.297C60.9946 58.5501 60.7453 58.5751 60.7453 58.5751V59.0562L60.4459 59.3346L60.4711 59.9925C60.4711 60.1696 60.8449 60.1948 60.9196 60.0937C60.9945 59.9925 61.2939 60.2962 61.2939 60.2962H61.5178L61.5681 59.8405L61.4182 59.7646V59.0307L61.6677 58.7521C61.9671 58.651 61.8673 59.4106 61.8673 59.4864C61.8922 59.7646 62.0164 59.7394 62.1415 59.6886C62.3908 59.5875 62.191 59.9674 61.9918 59.9418C61.7925 59.9167 61.9168 60.1948 61.9168 60.1948L62.0419 60.2457L61.8172 60.4227L61.6182 60.6507L61.3683 60.5745L61.0695 60.5496L60.9697 60.372L60.7948 60.3468L60.7699 60.7008L60.6454 60.8527L60.3462 61.1568C60.7453 61.1568 60.2961 61.4346 60.1965 61.4346C60.4209 61.5106 60.1717 61.7386 59.5983 61.5616V61.7385L59.3985 61.764L59.5735 61.966L59.7726 61.9915L59.6977 62.4216C59.6977 62.7505 58.8751 62.5225 58.8001 62.4469L58.7752 62.9025L58.6255 62.9274L58.6504 63.2314L58.6255 63.6618L58.8997 63.6111V63.7884L59.5732 63.8137L60.5458 62.7757L61.1191 62.6496C61.1688 62.3961 61.4179 62.7003 61.4179 62.7003C61.6675 62.6743 61.7175 62.8518 61.7175 62.8518L62.0418 62.9025C62.3157 62.9787 62.1501 63.0052 62.1663 63.1053C62.1909 63.2568 62.3157 63.2062 62.3157 63.2062L62.3659 62.8773L62.5156 62.9025L62.3659 62.7253L62.0913 62.5986L61.7923 62.4723C61.5925 62.194 61.8421 62.2446 62.0418 62.2701H62.3658C62.3658 62.2701 62.7402 62.7759 62.7402 62.9025C62.7402 63.0294 62.9146 63.0546 62.9146 63.0546L63.1386 63.0291L63.2136 63.2061H63.438L63.513 63.3576H63.9618L63.9867 63.13L63.5623 63.0546L63.5377 62.8011L63.2388 62.7252C63.1386 62.2953 63.3132 62.1687 63.438 62.3713L63.5875 62.3961L63.5376 62.0166L63.712 61.9659L63.6622 61.4343L63.5128 61.384V61.2067L64.1358 61.2325C64.0863 60.903 64.161 60.7513 64.161 60.7513H64.3354L64.3603 60.8782L65.1232 60.9502L65.6626 60.3315C65.6355 60.2842 65.7168 60.2553 65.6575 60.1947C65.5825 60.1188 65.4826 60.1947 65.3575 60.1188C65.233 60.0433 65.3575 59.6127 65.3328 59.5116C65.3079 59.4105 65.7571 59.2581 65.6823 59.4862C65.6073 59.7142 65.6823 59.8153 65.6823 59.8153C66.0063 59.5116 66.2806 59.8404 66.2559 59.9164C66.2304 59.9923 66.43 60.0684 66.5545 59.9923C66.6795 59.9164 66.829 60.2203 66.7791 60.3718C66.729 60.5235 66.2806 60.4984 66.2559 60.3465C66.2304 60.1945 66.1554 60.2454 66.1062 60.3214C66.0559 60.3973 65.832 60.4477 65.7072 60.3717C65.6817 60.3564 65.6697 60.3438 65.6626 60.3315L65.1232 60.9502L65.1582 60.9537C65.4571 61.1311 65.3079 61.3587 65.2084 61.4094C65.1082 61.4599 64.9338 61.4599 64.9338 61.4599L64.8843 61.5613L64.2358 61.6117L64.1857 61.8651C63.8616 61.8139 63.7372 62.1685 63.8119 62.3454C63.8869 62.5224 63.8119 62.6743 63.8119 62.6743L64.0863 62.8011L64.435 62.7003C64.4853 62.4468 64.7092 62.3961 64.909 62.2446C65.1082 62.0926 65.4327 62.5224 65.3326 62.7252C65.233 62.9274 65.233 63.0034 65.233 63.0034L65.2576 63.2314L65.0086 63.3324L64.8091 63.4338L64.7838 63.5604H64.1109L63.9864 63.6867L63.6621 63.7126L63.5619 63.8641L63.3379 63.8896C63.3379 63.8896 62.9637 64.0668 63.1135 64.2691C63.2631 64.4718 62.4903 64.4464 62.3152 64.1679C62.2653 64.4207 61.9912 64.1931 61.9912 64.1931L61.717 64.117L61.6923 63.7378C61.6423 63.4845 61.1685 63.4845 61.1937 63.6619C61.2184 63.8391 60.2956 63.7378 60.2956 63.7378L59.9965 63.8832L59.722 64.0416L59.6973 64.1679L59.2482 64.2184L59.049 64.3199L58.9743 64.1679H58.7748L58.5753 64.4466C58.0518 64.4721 57.553 64.7755 57.6028 64.9021C57.6528 65.0284 57.4036 65.1556 57.4036 65.1556L57.1789 65.2306L57.0297 65.4586L56.7304 65.56L56.6802 66.0916L56.5309 66.1926V66.4206L56.356 66.4708V66.5976L56.1069 66.623L56.2561 67.0026L56.4562 67.104C56.8053 67.1542 56.6554 67.5849 56.6554 67.5849L56.8546 67.6098L56.9548 67.8881L57.154 68.293C57.229 68.5971 57.4534 68.521 57.553 68.4957C57.6528 68.4708 57.7522 68.7993 57.7522 68.7993L58.7496 68.8248C58.7496 68.8248 58.7001 68.926 58.8745 68.9766C59.0488 69.0268 60.196 69.078 60.2461 69.0021C60.1959 68.7741 60.8691 68.7234 61.1437 68.9259C61.4176 69.1281 61.7917 69.0021 61.7917 69.0021L62.1658 69.457L62.4156 70.014L62.8393 70.1403L63.1383 70.2165L63.2383 70.6467L63.4624 70.6721L63.5374 70.9506C63.8119 71.153 63.4624 71.5833 63.4624 71.5833V72.1398L63.6619 72.2412L63.6369 72.4439L63.9615 72.7723L64.3353 72.7982L65.283 73.8102L66.0307 74.0378L66.1552 74.4427L66.3552 74.4174L66.5046 74.2911L67.1029 74.2658L67.4023 73.987L67.7263 73.9368L70.4941 71.5833L70.2445 71.4312V70.8747C70.6933 70.5459 70.7182 69.9634 70.2945 69.9129C69.9729 69.8745 70.1202 69.5332 70.4194 69.4827L70.5937 69.4071V69.1791L71.1672 68.6479V68.2429L69.9208 67.2049C69.372 67.0029 69.9208 65.7879 70.2943 65.8132C70.6687 65.8383 70.2697 63.9406 70.2697 63.9406L70.0699 63.8397L70.1202 63.232H69.846L69.397 63.8143L69.2725 64.2189C69.2226 64.7509 67.6765 64.6491 67.6015 64.5732C67.5265 64.4971 67.0032 64.2696 67.0032 64.2696C67.0032 64.2696 66.6042 63.9406 66.5295 64.042C66.4545 64.1434 66.1057 63.9153 66.1057 63.9913C66.1057 64.0674 65.7817 63.8145 65.7817 63.8145L65.2831 63.6372L65.6574 63.561L65.5824 63.2575L66.2301 63.5865C66.3051 63.6873 66.6291 63.6625 66.6291 63.6625L66.7288 63.7891C66.7288 63.7891 66.9286 63.7635 67.0537 63.9156C67.1782 64.0675 67.8262 63.9409 67.8262 63.9409L68.0007 64.0924L68.2749 64.1939L69.0481 64.2193L69.0729 63.7387L69.2226 63.5868L69.1977 63.2827L69.3721 63.1312V62.8783L69.5218 62.8277L69.5466 62.2711L69.6711 62.2458V61.0309L69.2971 60.6765C69.2725 60.8032 68.8735 60.8032 68.8735 60.8032C68.8735 60.8032 68.7738 60.9802 68.6989 60.9802C68.6244 60.9802 68.7988 61.2076 68.7487 61.3597C68.6989 61.5112 68.4993 61.5112 68.4993 61.5112L68.125 61.6128L68.0254 61.7395H67.6264L67.5769 61.4106L68.0254 61.2838L68.2746 61.1575L68.3995 60.904C68.4243 60.6514 68.7235 60.6765 68.7235 60.6765C68.7235 60.6765 69.2971 60.1956 69.322 59.9682C69.3474 59.7403 69.5466 59.1076 69.8955 59.1076H70.5439C70.7931 59.0061 70.7184 58.6773 70.7184 58.6773L71.0427 58.627L71.0926 58.804C71.0926 58.804 71.5416 58.8546 71.5912 58.7787C71.6413 58.7031 71.7409 58.5256 71.8657 58.6017C71.9904 58.6774 72.3892 58.4244 72.3892 58.4244C72.4141 58.2472 73.0375 58.3231 73.0375 58.3231L73.1125 58.0956C73.1125 58.0956 72.6888 57.5136 72.6139 57.5136C72.5389 57.5136 72.1401 57.1588 72.09 57.2856C71.6916 57.1845 71.7162 56.6275 71.7162 56.6275L71.5665 56.2736C71.5665 56.0707 71.193 55.6405 71.1175 55.6915C70.7433 55.4131 71.0179 55.084 71.1175 55.0587C71.2173 55.0336 71.467 54.6792 71.467 54.6792L71.5915 54.3247L72.0153 54.1987L72.0652 53.8695L71.8413 53.8441C71.8413 53.8441 72.0903 53.3886 72.2151 53.3886C72.34 53.3886 73.1628 53.3886 73.237 53.3377C73.312 53.2875 73.4614 52.8825 73.4614 52.8066C73.4614 52.7305 73.6614 52.7052 73.7358 52.6797C73.8106 52.6546 73.9851 52.4521 74.035 52.3509C74.085 52.2489 73.9108 51.6162 73.8108 51.7174H73.8109Z" fill="white"/>
<path d="M59.9982 60.84C60.0357 60.8025 60.0732 60.954 60.1479 60.9351C60.2221 60.916 60.2599 61.068 60.1854 61.068C60.1104 61.068 60.1104 61.1631 60.1104 61.201C60.1104 61.239 60.1104 61.3336 60.0541 61.3906C59.998 61.4476 59.9416 61.4095 59.8668 61.3717C59.7922 61.3338 59.7552 61.3338 59.6613 61.3338C59.568 61.3338 59.6424 61.4857 59.6424 61.4857C59.6424 61.4857 59.2497 61.4667 59.3245 61.4095C59.3995 61.3531 59.4742 61.3336 59.4184 61.2955C59.362 61.2576 59.4184 61.2199 59.4184 61.144C59.4184 61.0678 59.6055 61.1061 59.5489 61.0489C59.4933 60.9919 59.5501 60.7717 59.6424 60.897L59.6988 60.7639C59.6424 60.7071 59.6802 60.6879 59.568 60.6505C59.4558 60.6126 59.5489 60.3846 59.5489 60.3846L59.568 60.2328C59.6053 60.0433 59.9791 60.0241 59.998 60.1947C60.0165 60.3657 59.998 60.4797 59.998 60.4797L60.1105 60.5173C60.1105 60.5173 60.0915 60.6318 59.998 60.6318C59.9041 60.6318 59.998 60.688 59.9418 60.7453L59.9982 60.8398V60.84ZM58.7637 61.0305C58.8199 60.9165 58.9506 60.423 59.1004 60.5749C59.2495 60.7269 59.3434 60.5749 59.3434 60.5749C59.3434 60.5749 59.4183 60.6511 59.3808 60.8029C59.3433 60.9544 59.3058 61.1065 59.212 61.1254C59.1189 61.1445 59.0439 61.2015 58.9321 61.2205C58.8201 61.2396 58.7637 61.0305 58.7637 61.0305Z" fill="white"/>
<path d="M69.4133 88.38C69.0092 88.8419 68.4863 89.2734 67.9934 89.6712C64.8085 86.3797 61.0694 82.7319 57.5153 82.7319C55.3118 82.7319 53.7248 84.4092 51.8734 85.5927C49.3039 87.2351 45.7795 88.16 42.7592 86.9547C41.1347 86.3378 39.5608 85.4292 38.3845 83.9532C40.7617 85.5927 44.3215 85.8132 47.0053 84.6997C49.9717 83.469 52.9909 81.8349 56.3713 81.8349C61.3547 81.8349 66.0908 85.2057 69.4133 88.38ZM32.5823 78.0279C35.8817 81.7837 41.2628 80.5753 45.6674 81.5135C46.2805 81.644 46.8563 81.8475 47.5144 81.7466C46.9909 81.4145 46.2967 81.3771 45.6919 81.1493C42.2744 79.8618 41.7416 76.2042 39.8713 73.6871C42.2602 75.2751 44.2393 77.4494 46.4731 79.4925C48.0277 80.9145 49.9646 81.523 51.9736 81.9318C51.4909 82.1082 50.8594 82.0667 50.3395 82.1955C46.7311 83.0907 42.7304 84.5037 38.8909 83.2367C36.4129 82.419 33.8344 80.4825 32.5823 78.0279ZM27.2936 69.3354C29.3516 73.9949 34.5223 74.3598 37.9603 77.2182C38.614 77.7618 39.2621 78.2621 39.9802 78.5969L40.0172 78.5594C39.2239 77.8416 38.3654 76.9862 37.7509 76.0934C35.7859 73.2381 36.4399 69.3356 34.9247 66.3086C36.3013 67.9568 37.5923 69.6539 38.3849 71.541C39.6604 74.5779 40.0937 78.0423 42.9544 80.3499C39.8584 79.3284 36.2866 79.5318 33.4985 77.7057C30.568 75.7862 27.8519 72.7563 27.2936 69.3354ZM25.0891 59.9085C25.3867 64.0137 29.7571 66.2066 31.8412 69.5811C32.2862 70.3019 32.7442 71.0459 33.3907 71.6279C33.2899 71.1909 32.9302 70.8036 32.7322 70.3748C32.0639 68.9268 31.7614 67.2513 31.9282 65.5283C32.1313 63.432 33.0052 61.4853 32.6698 59.28C34.466 63.1572 33.8866 68.0043 34.9247 72.1965C35.1544 73.124 35.7191 73.9356 36.0671 74.814C34.3022 73.4714 31.9894 72.2796 30.0521 70.7526C28.1786 69.2759 26.5523 67.545 25.7071 65.2928C25.0981 63.6699 24.9395 61.7342 25.0891 59.9085ZM25.2112 52.3446C25.4219 51.4284 25.5832 50.4801 25.9819 49.6397C25.2272 53.5122 27.8035 56.3096 28.6831 59.66C29.0146 60.9225 29.128 62.264 29.6386 63.4422C29.6861 63.4677 29.7274 63.4182 29.7568 63.3801C28.4858 59.8145 30.349 56.5191 32.1641 53.7086C32.6411 52.9698 32.8709 52.1096 33.0937 51.2399C33.2899 52.854 32.9464 54.7226 32.6477 56.3882C32.2633 58.5326 31.5304 60.5424 30.9479 62.6114C30.5644 63.9039 30.6655 65.3627 30.8623 66.7169L30.6772 66.5693C29.3258 64.0745 26.6596 62.1255 25.8544 59.4026C25.2109 57.2264 24.7657 54.7122 25.2112 52.3446ZM26.6365 48.179C26.6365 45.2484 27.7775 42.8579 29.4892 40.6754C29.5388 40.6506 29.5742 40.6008 29.6383 40.6124C27.7541 43.4787 29.4691 47.0967 29.227 50.3477L28.9784 53.6842C29.0153 53.7086 29.0153 53.8088 29.1029 53.7704C29.2142 53.3984 29.248 53.0027 29.3128 52.6185C29.7664 49.9287 32.1283 48.0564 34.1315 46.1574C34.5897 45.7236 34.9462 45.1939 35.1757 44.6061C35.0092 45.9461 34.6354 47.3196 34.0339 48.5373C32.492 51.6588 29.5141 54.1785 28.9784 57.7259C28.7188 54.3261 26.6365 51.7988 26.6365 48.179ZM31.6033 38.2935C32.5507 37.2429 33.6127 36.4245 34.8769 36.101C32.422 37.7889 32.5553 40.8059 31.8037 43.3284C31.5289 44.2508 31.1249 45.1149 30.9101 46.0682L30.9724 46.1177C31.3807 45.0401 32.0815 44.0042 32.9945 43.1427C34.7212 41.5137 37.3172 40.5276 38.1716 38.1447C38.1326 41.4561 35.3098 43.9734 32.7317 45.9207C31.5752 46.7943 30.5927 47.967 29.993 49.1964C30.0932 48.2814 30.1387 47.5202 30.0571 46.627C29.7925 43.7343 29.6207 40.4915 31.6033 38.2935ZM41.5675 32.726C39.7456 34.3247 38.53 36.3825 37.1302 38.2323C35.9662 39.7709 34.3688 40.7241 32.9951 42.0152C33.7366 40.4768 33.8735 38.714 34.8152 37.2257C36.4255 34.6806 39.0869 33.6929 41.5675 32.726Z" fill="white"/>
<path d="M50.5867 88.38C50.9908 88.8419 51.5137 89.2734 52.0066 89.6712C55.1915 86.3797 58.9306 82.7319 62.4847 82.7319C64.6882 82.7319 66.2752 84.4092 68.1266 85.5927C70.6961 87.2351 74.2205 88.16 77.2408 86.9547C78.8653 86.3378 80.4392 85.4292 81.6155 83.9532C79.2383 85.5927 75.6785 85.8132 72.9947 84.6997C70.0283 83.469 67.0091 81.8349 63.6287 81.8349C58.6453 81.8349 53.9092 85.2057 50.5867 88.38ZM87.4177 78.0279C84.1183 81.7837 78.7372 80.5753 74.3326 81.5135C73.7195 81.644 73.1437 81.8475 72.4856 81.7466C73.0091 81.4145 73.7033 81.3771 74.3081 81.1493C77.7256 79.8618 78.2584 76.2042 80.1287 73.6871C77.7398 75.2751 75.7607 77.4494 73.5269 79.4925C71.9723 80.9145 70.0354 81.523 68.0264 81.9318C68.5091 82.1082 69.1406 82.0667 69.6605 82.1955C73.2689 83.0907 77.2696 84.5037 81.1091 83.2367C83.5871 82.419 86.1656 80.4825 87.4177 78.0279ZM92.7064 69.3354C90.6484 73.9949 85.4777 74.3598 82.0397 77.2182C81.386 77.7618 80.7379 78.2621 80.0198 78.5969L79.9828 78.5594C80.7761 77.8416 81.6346 76.9862 82.2491 76.0934C84.2141 73.2381 83.5601 69.3356 85.0753 66.3086C83.6987 67.9568 82.4077 69.6539 81.6151 71.541C80.3396 74.5779 79.9063 78.0423 77.0456 80.3499C80.1416 79.3284 83.7134 79.5318 86.5015 77.7057C89.432 75.7862 92.1481 72.7563 92.7064 69.3354ZM94.9109 59.9085C94.6133 64.0137 90.2429 66.2066 88.1588 69.5811C87.7138 70.3019 87.2558 71.0459 86.6093 71.6279C86.7101 71.1909 87.0698 70.8036 87.2678 70.3748C87.9361 68.9268 88.2386 67.2513 88.0718 65.5283C87.8687 63.432 86.9948 61.4853 87.3302 59.28C85.534 63.1572 86.1134 68.0043 85.0753 72.1965C84.8456 73.124 84.2809 73.9356 83.9329 74.814C85.6978 73.4714 88.0106 72.2796 89.9479 70.7526C91.8214 69.2759 93.4477 67.545 94.2929 65.2928C94.9019 63.6699 95.0605 61.7342 94.9109 59.9085ZM94.7888 52.3446C94.5781 51.4284 94.4168 50.4801 94.0181 49.6397C94.7728 53.5122 92.1965 56.3096 91.3169 59.66C90.9854 60.9225 90.872 62.264 90.3614 63.4422C90.3139 63.4677 90.2726 63.4182 90.2432 63.3801C91.5142 59.8145 89.651 56.5191 87.8359 53.7086C87.3589 52.9698 87.1291 52.1096 86.9063 51.2399C86.7101 52.854 87.0536 54.7226 87.3523 56.3882C87.7367 58.5326 88.4696 60.5424 89.0521 62.6114C89.4356 63.9039 89.3345 65.3627 89.1377 66.7169L89.3228 66.5693C90.6742 64.0745 93.3404 62.1255 94.1456 59.4026C94.7891 57.2264 95.2343 54.7122 94.7888 52.3446ZM93.3635 48.179C93.3635 45.2484 92.2225 42.8579 90.5108 40.6754C90.4612 40.6506 90.4258 40.6008 90.3617 40.6124C92.2459 43.4787 90.5309 47.0967 90.773 50.3477L91.0216 53.6842C90.9847 53.7086 90.9847 53.8088 90.8971 53.7704C90.7858 53.3984 90.752 53.0027 90.6872 52.6185C90.2336 49.9287 87.8717 48.0564 85.8685 46.1574C85.4103 45.7236 85.0538 45.1939 84.8243 44.6061C84.9908 45.9461 85.3646 47.3196 85.9661 48.5373C87.508 51.6588 90.4859 54.1785 91.0216 57.7259C91.2812 54.3261 93.3635 51.7988 93.3635 48.179ZM88.3967 38.2935C87.4493 37.2429 86.3873 36.4245 85.1231 36.101C87.578 37.7889 87.4447 40.8059 88.1963 43.3284C88.4711 44.2508 88.8751 45.1149 89.0899 46.0682L89.0276 46.1177C88.6193 45.0401 87.9185 44.0042 87.0055 43.1427C85.2788 41.5137 82.6828 40.5276 81.8284 38.1447C81.8674 41.4561 84.6902 43.9734 87.2683 45.9207C88.4248 46.7943 89.4073 47.967 90.007 49.1964C89.9068 48.2814 89.8613 47.5202 89.9429 46.627C90.2075 43.7343 90.3793 40.4915 88.3967 38.2935ZM78.4325 32.726C80.2544 34.3247 81.47 36.3825 82.8698 38.2323C84.0338 39.7709 85.6312 40.7241 87.0049 42.0152C86.2634 40.4768 86.1265 38.714 85.1848 37.2257C83.5745 34.6806 80.9131 33.6929 78.4325 32.726Z" fill="white"/>
</g>
<defs>
<clipPath id="clip0_909_222861">
<rect width="120" height="120" fill="white"/>
</clipPath>
</defs>
</svg>
