<svg width="121" height="120" viewBox="0 0 121 120" fill="none" xmlns="http://www.w3.org/2000/svg">
<g clip-path="url(#clip0_307_89184)">
<circle cx="60.6992" cy="60" r="60" fill="#D91C16"/>
<path d="M119.095 46.1538C119.802 49.1502 120.286 52.2333 120.525 55.3846H0.875008C1.11473 52.2333 1.59787 49.1502 2.30567 46.1538H119.095Z" fill="white"/>
<path d="M111.268 27.6923C113.134 30.6069 114.755 33.6935 116.102 36.923H5.29858C6.64537 33.6935 8.26631 30.6069 10.1323 27.6923H111.268Z" fill="white"/>
<path d="M92.691 9.23071C96.8283 11.8432 100.624 14.9475 103.996 18.4615H17.4039C20.7761 14.9475 24.5719 11.8432 28.7093 9.23071H92.691Z" fill="white"/>
<path d="M119.095 73.8461C119.802 70.8497 120.286 67.7665 120.525 64.6153H0.875C1.11471 67.7665 1.59785 70.8497 2.30564 73.8461H119.095Z" fill="white"/>
<path d="M116.102 83.0769H5.29854C6.64531 86.3064 8.26624 89.393 10.1323 92.3076H111.268C113.134 89.393 114.755 86.3064 116.102 83.0769Z" fill="white"/>
<path d="M103.996 101.538H17.4038C20.776 105.052 24.5718 108.157 28.7091 110.769H92.6912C96.8285 108.157 100.624 105.052 103.996 101.538Z" fill="white"/>
<path d="M60.8992 0.000326256C60.8326 0.000108808 60.7659 0 60.6992 0C27.5621 0 0.699219 26.8629 0.699219 60C0.699219 61.5529 0.758217 63.0921 0.874094 64.6154H60.8992V0.000326256Z" fill="#021455"/>
<path d="M37.4873 4.65529C37.8462 4.50458 38.2069 4.35725 38.5693 4.21336L38.9291 5.32061H41.6117L39.4414 6.89741L40.2704 9.44873L38.1001 7.87193L35.9298 9.44873L36.7588 6.89741L35.123 5.70899C35.4018 5.57744 35.6817 5.44797 35.9628 5.32061H37.2711L37.4873 4.65529Z" fill="white"/>
<path d="M12.0409 24.8886C12.0851 24.8274 12.1295 24.7663 12.174 24.7052H14.471L15.3 22.1539L16.129 24.7052H18.8116L16.6413 26.282L17.4703 28.8334L15.3 27.2565L13.1297 28.8334L13.9587 26.282L12.0409 24.8886Z" fill="white"/>
<path d="M6.24384 34.7761C6.8969 33.3685 7.60293 31.9906 8.35937 30.6447L8.52899 31.1668H11.2116L9.04133 32.7436L9.8703 35.2949L7.70002 33.7181L6.24384 34.7761Z" fill="white"/>
<path d="M1.01953 53.7708C1.13113 52.6888 1.27148 51.6155 1.4398 50.5514H3.61164L1.44136 52.1282L2.27033 54.6795L1.01953 53.7708Z" fill="white"/>
<path d="M7.70002 41.5385L8.52899 44.0898H11.2116L9.04133 45.6666L9.8703 48.218L7.70002 46.6412L5.52973 48.218L6.35871 45.6666L4.18842 44.0898H6.87104L7.70002 41.5385Z" fill="white"/>
<path d="M7.70002 54.4616L8.52899 57.0129H11.2116L9.04133 58.5897L9.8703 61.141L7.70002 59.5642L5.52973 61.141L6.35871 58.5897L4.18842 57.0129H6.87104L7.70002 54.4616Z" fill="white"/>
<path d="M15.3 35.077L16.129 37.6283H18.8116L16.6413 39.2051L17.4703 41.7564L15.3 40.1796L13.1297 41.7564L13.9587 39.2051L11.7884 37.6283H14.471L15.3 35.077Z" fill="white"/>
<path d="M15.3 48.0001L16.129 50.5514H18.8116L16.6413 52.1282L17.4703 54.6795L15.3 53.1027L13.1297 54.6795L13.9587 52.1282L11.7884 50.5514H14.471L15.3 48.0001Z" fill="white"/>
<path d="M22.9 15.6924L23.729 18.2437H26.4116L24.2413 19.8205L25.0703 22.3718L22.9 20.795L20.7297 22.3718L21.5587 19.8205L19.3884 18.2437H22.071L22.9 15.6924Z" fill="white"/>
<path d="M22.9 28.6154L23.729 31.1668H26.4116L24.2413 32.7436L25.0703 35.2949L22.9 33.7181L20.7297 35.2949L21.5587 32.7436L19.3884 31.1668H22.071L22.9 28.6154Z" fill="white"/>
<path d="M22.9 41.5385L23.729 44.0898H26.4116L24.2413 45.6666L25.0703 48.218L22.9 46.6412L20.7297 48.218L21.5587 45.6666L19.3884 44.0898H22.071L22.9 41.5385Z" fill="white"/>
<path d="M22.9 54.4616L23.729 57.0129H26.4116L24.2413 58.5897L25.0703 61.141L22.9 59.5642L20.7297 61.141L21.5587 58.5897L19.3884 57.0129H22.071L22.9 54.4616Z" fill="white"/>
<path d="M30.5 9.23083L31.329 11.7821H34.0116L31.8413 13.359L32.6703 15.9103L30.5 14.3335L28.3297 15.9103L29.1587 13.359L26.9884 11.7821H29.671L30.5 9.23083Z" fill="white"/>
<path d="M30.5 22.1539L31.329 24.7052H34.0116L31.8413 26.282L32.6703 28.8334L30.5 27.2565L28.3297 28.8334L29.1587 26.282L26.9884 24.7052H29.671L30.5 22.1539Z" fill="white"/>
<path d="M30.5 35.077L31.329 37.6283H34.0116L31.8413 39.2051L32.6703 41.7564L30.5 40.1796L28.3297 41.7564L29.1587 39.2051L26.9884 37.6283H29.671L30.5 35.077Z" fill="white"/>
<path d="M30.5 48.0001L31.329 50.5514H34.0116L31.8413 52.1282L32.6703 54.6795L30.5 53.1027L28.3297 54.6795L29.1587 52.1282L26.9884 50.5514H29.671L30.5 48.0001Z" fill="white"/>
<path d="M38.1001 15.6924L38.929 18.2437H41.6117L39.4414 19.8205L40.2704 22.3718L38.1001 20.795L35.9298 22.3718L36.7588 19.8205L34.5885 18.2437H37.2711L38.1001 15.6924Z" fill="white"/>
<path d="M38.1001 28.6154L38.929 31.1668H41.6117L39.4414 32.7436L40.2704 35.2949L38.1001 33.7181L35.9298 35.2949L36.7588 32.7436L34.5885 31.1668H37.2711L38.1001 28.6154Z" fill="white"/>
<path d="M38.1001 41.5385L38.929 44.0898H41.6117L39.4414 45.6666L40.2704 48.218L38.1001 46.6412L35.9298 48.218L36.7588 45.6666L34.5885 44.0898H37.2711L38.1001 41.5385Z" fill="white"/>
<path d="M38.1001 54.4616L38.9291 57.0129H41.6117L39.4414 58.5897L40.2704 61.141L38.1001 59.5642L35.9298 61.141L36.7588 58.5897L34.5885 57.0129H37.2711L38.1001 54.4616Z" fill="white"/>
<path d="M45.7001 9.23083L46.5291 11.7821H49.2117L47.0414 13.359L47.8704 15.9103L45.7001 14.3335L43.5298 15.9103L44.3588 13.359L42.1885 11.7821H44.8711L45.7001 9.23083Z" fill="white"/>
<path d="M45.7001 22.1539L46.5291 24.7052H49.2117L47.0414 26.282L47.8704 28.8334L45.7001 27.2565L43.5298 28.8334L44.3588 26.282L42.1885 24.7052H44.8711L45.7001 22.1539Z" fill="white"/>
<path d="M45.7001 35.077L46.529 37.6283H49.2117L47.0414 39.2051L47.8704 41.7564L45.7001 40.1796L43.5298 41.7564L44.3588 39.2051L42.1885 37.6283H44.8711L45.7001 35.077Z" fill="white"/>
<path d="M45.7001 48.0001L46.529 50.5514H49.2117L47.0414 52.1282L47.8704 54.6795L45.7001 53.1027L43.5298 54.6795L44.3588 52.1282L42.1885 50.5514H44.8711L45.7001 48.0001Z" fill="white"/>
<path d="M53.3 2.76929L54.129 5.32061H56.8116L54.6413 6.89741L55.4703 9.44873L53.3 7.87193L51.1297 9.44873L51.9587 6.89741L49.7884 5.32061H52.471L53.3 2.76929Z" fill="white"/>
<path d="M53.3 15.6924L54.129 18.2437H56.8116L54.6413 19.8205L55.4703 22.3718L53.3 20.795L51.1297 22.3718L51.9587 19.8205L49.7884 18.2437H52.471L53.3 15.6924Z" fill="white"/>
<path d="M53.3 28.6154L54.129 31.1668H56.8116L54.6413 32.7436L55.4703 35.2949L53.3 33.7181L51.1297 35.2949L51.9587 32.7436L49.7884 31.1668H52.471L53.3 28.6154Z" fill="white"/>
<path d="M53.3 41.5385L54.129 44.0898H56.8116L54.6413 45.6666L55.4703 48.218L53.3 46.6412L51.1297 48.218L51.9587 45.6666L49.7884 44.0898H52.471L53.3 41.5385Z" fill="white"/>
<path d="M53.3 54.4616L54.129 57.0129H56.8116L54.6413 58.5897L55.4703 61.141L53.3 59.5642L51.1297 61.141L51.9587 58.5897L49.7884 57.0129H52.471L53.3 54.4616Z" fill="white"/>
</g>
<defs>
<clipPath id="clip0_307_89184">
<rect x="0.699219" width="120" height="120" fill="white"/>
</clipPath>
</defs>
</svg>
