<svg width="120" height="120" viewBox="0 0 120 120" fill="none" xmlns="http://www.w3.org/2000/svg">
<circle cx="60" cy="60" r="60" fill="#E23726"/>
<path d="M118.394 46.1538C119.102 49.1502 119.585 52.2333 119.825 55.3846H0.174813C0.414533 52.2333 0.897673 49.1502 1.60547 46.1538H118.394Z" fill="white"/>
<path d="M110.568 27.6923C112.434 30.6069 114.055 33.6935 115.401 36.923H4.59839C5.94517 33.6935 7.56611 30.6069 9.43214 27.6923H110.568Z" fill="white"/>
<path d="M91.9908 9.23071C96.1281 11.8432 99.924 14.9475 103.296 18.4615H16.7037C20.0759 14.9475 23.8717 11.8432 28.0091 9.23071H91.9908Z" fill="white"/>
<path d="M118.394 73.8461C119.102 70.8497 119.585 67.7665 119.825 64.6153H0.174805C0.414519 67.7665 0.897653 70.8497 1.60545 73.8461H118.394Z" fill="white"/>
<path d="M115.402 83.0769H4.59834C5.94512 86.3064 7.56605 89.393 9.43207 92.3076H110.568C112.434 89.393 114.055 86.3064 115.402 83.0769Z" fill="white"/>
<path d="M103.296 101.538H16.7036C20.0758 105.052 23.8716 108.157 28.0089 110.769H91.991C96.1283 108.157 99.9241 105.052 103.296 101.538Z" fill="white"/>
<path d="M60.2 0.000326256C60.1334 0.000108808 60.0667 0 60 0C26.8629 0 0 26.8629 0 60C0 61.5529 0.0589982 63.0921 0.174875 64.6154H60.2V0.000326256Z" fill="#021455"/>
<path d="M36.7871 4.65529C37.146 4.50458 37.5067 4.35725 37.8691 4.21336L38.2289 5.32061H40.9115L38.7412 6.89741L39.5702 9.44873L37.3999 7.87193L35.2296 9.44873L36.0586 6.89741L34.4229 5.70899C34.7016 5.57744 34.9815 5.44797 35.2626 5.32061H36.5709L36.7871 4.65529Z" fill="white"/>
<path d="M11.3407 24.8886C11.3849 24.8274 11.4293 24.7663 11.4738 24.7052H13.7708L14.5998 22.1539L15.4288 24.7052H18.1114L15.9411 26.282L16.7701 28.8334L14.5998 27.2565L12.4295 28.8334L13.2585 26.282L11.3407 24.8886Z" fill="white"/>
<path d="M5.54364 34.7761C6.19671 33.3685 6.90274 31.9906 7.65917 30.6447L7.8288 31.1668H10.5114L8.34113 32.7436L9.1701 35.2949L6.99982 33.7181L5.54364 34.7761Z" fill="white"/>
<path d="M0.319336 53.7708C0.430936 52.6888 0.571285 51.6155 0.739605 50.5514H2.91144L0.741161 52.1282L1.57014 54.6795L0.319336 53.7708Z" fill="white"/>
<path d="M6.99982 41.5385L7.8288 44.0898H10.5114L8.34113 45.6666L9.1701 48.218L6.99982 46.6412L4.82954 48.218L5.65851 45.6666L3.48823 44.0898H6.17085L6.99982 41.5385Z" fill="white"/>
<path d="M6.99982 54.4616L7.8288 57.0129H10.5114L8.34113 58.5897L9.1701 61.141L6.99982 59.5642L4.82954 61.141L5.65851 58.5897L3.48823 57.0129H6.17085L6.99982 54.4616Z" fill="white"/>
<path d="M14.5998 35.077L15.4288 37.6283H18.1114L15.9411 39.2051L16.7701 41.7564L14.5998 40.1796L12.4295 41.7564L13.2585 39.2051L11.0882 37.6283H13.7708L14.5998 35.077Z" fill="white"/>
<path d="M14.5998 48.0001L15.4288 50.5514H18.1114L15.9411 52.1282L16.7701 54.6795L14.5998 53.1027L12.4295 54.6795L13.2585 52.1282L11.0882 50.5514H13.7708L14.5998 48.0001Z" fill="white"/>
<path d="M22.1998 15.6924L23.0288 18.2437H25.7114L23.5411 19.8205L24.3701 22.3718L22.1998 20.795L20.0295 22.3718L20.8585 19.8205L18.6882 18.2437H21.3708L22.1998 15.6924Z" fill="white"/>
<path d="M22.1998 28.6154L23.0288 31.1668H25.7114L23.5411 32.7436L24.3701 35.2949L22.1998 33.7181L20.0295 35.2949L20.8585 32.7436L18.6882 31.1668H21.3708L22.1998 28.6154Z" fill="white"/>
<path d="M22.1998 41.5385L23.0288 44.0898H25.7114L23.5411 45.6666L24.3701 48.218L22.1998 46.6412L20.0295 48.218L20.8585 45.6666L18.6882 44.0898H21.3708L22.1998 41.5385Z" fill="white"/>
<path d="M22.1998 54.4616L23.0288 57.0129H25.7114L23.5411 58.5897L24.3701 61.141L22.1998 59.5642L20.0295 61.141L20.8585 58.5897L18.6882 57.0129H21.3708L22.1998 54.4616Z" fill="white"/>
<path d="M29.7998 9.23083L30.6288 11.7821H33.3114L31.1411 13.359L31.9701 15.9103L29.7998 14.3335L27.6295 15.9103L28.4585 13.359L26.2882 11.7821H28.9708L29.7998 9.23083Z" fill="white"/>
<path d="M29.7998 22.1539L30.6288 24.7052H33.3114L31.1411 26.282L31.9701 28.8334L29.7998 27.2565L27.6295 28.8334L28.4585 26.282L26.2882 24.7052H28.9708L29.7998 22.1539Z" fill="white"/>
<path d="M29.7998 35.077L30.6288 37.6283H33.3114L31.1411 39.2051L31.9701 41.7564L29.7998 40.1796L27.6295 41.7564L28.4585 39.2051L26.2882 37.6283H28.9708L29.7998 35.077Z" fill="white"/>
<path d="M29.7998 48.0001L30.6288 50.5514H33.3114L31.1411 52.1282L31.9701 54.6795L29.7998 53.1027L27.6295 54.6795L28.4585 52.1282L26.2882 50.5514H28.9708L29.7998 48.0001Z" fill="white"/>
<path d="M37.3999 15.6924L38.2288 18.2437H40.9115L38.7412 19.8205L39.5702 22.3718L37.3999 20.795L35.2296 22.3718L36.0586 19.8205L33.8883 18.2437H36.5709L37.3999 15.6924Z" fill="white"/>
<path d="M37.3999 28.6154L38.2288 31.1668H40.9115L38.7412 32.7436L39.5702 35.2949L37.3999 33.7181L35.2296 35.2949L36.0586 32.7436L33.8883 31.1668H36.5709L37.3999 28.6154Z" fill="white"/>
<path d="M37.3999 41.5385L38.2288 44.0898H40.9115L38.7412 45.6666L39.5702 48.218L37.3999 46.6412L35.2296 48.218L36.0586 45.6666L33.8883 44.0898H36.5709L37.3999 41.5385Z" fill="white"/>
<path d="M37.3999 54.4616L38.2289 57.0129H40.9115L38.7412 58.5897L39.5702 61.141L37.3999 59.5642L35.2296 61.141L36.0586 58.5897L33.8883 57.0129H36.5709L37.3999 54.4616Z" fill="white"/>
<path d="M44.9999 9.23083L45.8289 11.7821H48.5115L46.3412 13.359L47.1702 15.9103L44.9999 14.3335L42.8296 15.9103L43.6586 13.359L41.4883 11.7821H44.1709L44.9999 9.23083Z" fill="white"/>
<path d="M44.9999 22.1539L45.8289 24.7052H48.5115L46.3412 26.282L47.1702 28.8334L44.9999 27.2565L42.8296 28.8334L43.6586 26.282L41.4883 24.7052H44.1709L44.9999 22.1539Z" fill="white"/>
<path d="M44.9999 35.077L45.8288 37.6283H48.5115L46.3412 39.2051L47.1702 41.7564L44.9999 40.1796L42.8296 41.7564L43.6586 39.2051L41.4883 37.6283H44.1709L44.9999 35.077Z" fill="white"/>
<path d="M44.9999 48.0001L45.8288 50.5514H48.5115L46.3412 52.1282L47.1702 54.6795L44.9999 53.1027L42.8296 54.6795L43.6586 52.1282L41.4883 50.5514H44.1709L44.9999 48.0001Z" fill="white"/>
<path d="M52.5998 2.76929L53.4288 5.32061H56.1114L53.9411 6.89741L54.7701 9.44873L52.5998 7.87193L50.4295 9.44873L51.2585 6.89741L49.0882 5.32061H51.7708L52.5998 2.76929Z" fill="white"/>
<path d="M52.5998 15.6924L53.4288 18.2437H56.1114L53.9411 19.8205L54.7701 22.3718L52.5998 20.795L50.4295 22.3718L51.2585 19.8205L49.0882 18.2437H51.7708L52.5998 15.6924Z" fill="white"/>
<path d="M52.5998 28.6154L53.4288 31.1668H56.1114L53.9411 32.7436L54.7701 35.2949L52.5998 33.7181L50.4295 35.2949L51.2585 32.7436L49.0882 31.1668H51.7708L52.5998 28.6154Z" fill="white"/>
<path d="M52.5998 41.5385L53.4288 44.0898H56.1114L53.9411 45.6666L54.7701 48.218L52.5998 46.6412L50.4295 48.218L51.2585 45.6666L49.0882 44.0898H51.7708L52.5998 41.5385Z" fill="white"/>
<path d="M52.5998 54.4616L53.4288 57.0129H56.1114L53.9411 58.5897L54.7701 61.141L52.5998 59.5642L50.4295 61.141L51.2585 58.5897L49.0882 57.0129H51.7708L52.5998 54.4616Z" fill="white"/>
</svg>
