<svg width="120" height="120" viewBox="0 0 120 120" fill="none" xmlns="http://www.w3.org/2000/svg">
<g clip-path="url(#clip0_307_89230)">
<circle cx="60" cy="60" r="60" fill="#1E9A1C"/>
<path d="M120 60C120 26.8629 93.1371 0 60 0C26.8629 0 0 26.8629 0 60H120Z" fill="#23748C"/>
<path d="M115.994 81.6C118.582 74.8979 120 67.6146 120 60C120 52.3854 118.582 45.1022 115.994 38.4H4.00554C1.41845 45.1022 0 52.3854 0 60C0 67.6146 1.41846 74.8979 4.00555 81.6H115.994Z" fill="#D91C16"/>
<path d="M116.862 79.2001C118.897 73.1719 120 66.7148 120 60.0001C120 53.2853 118.897 46.8282 116.862 40.8H3.13774C1.10302 46.8282 0 53.2853 0 60.0001C0 66.7148 1.10301 73.1719 3.13773 79.2001H116.862Z" fill="white"/>
<path d="M11.5693 24.5741C12.7528 22.9589 14.0152 21.4051 15.3507 19.9184C15.6853 26.7297 20.7525 32.2969 27.3331 33.4009C26.5526 33.5319 25.7508 33.6 24.9331 33.6C18.8799 33.6 13.6991 29.8651 11.5693 24.5741Z" fill="white"/>
<path d="M55.5669 31.06L53.8741 29.8301H55.9665L56.6131 27.84L57.2597 29.8301H59.3521L57.6593 31.06L58.3059 33.05L56.6131 31.8201L54.9203 33.05L55.5669 31.06Z" fill="white"/>
<path d="M55.9665 18.3101H53.8741L55.5669 19.54L54.9203 21.53L56.6131 20.3001L58.3059 21.53L57.6593 19.54L59.3521 18.3101H57.2597L56.6131 16.32L55.9665 18.3101Z" fill="white"/>
<path d="M53.8741 6.79008H55.9665L56.6131 4.80005L57.2597 6.79008H59.3521L57.6593 8.01999L58.3059 10.01L56.6131 8.78011L54.9203 10.01L55.5669 8.01999L53.8741 6.79008Z" fill="white"/>
<path d="M65.3941 29.8301L67.0869 31.06L66.4403 33.05L68.1331 31.8201L69.8259 33.05L69.1793 31.06L70.8722 29.8301H68.7797L68.1331 27.84L67.4865 29.8301H65.3941Z" fill="white"/>
<path d="M65.3941 18.3101H67.4865L68.1331 16.32L68.7797 18.3101H70.8722L69.1793 19.54L69.8259 21.53L68.1331 20.3001L66.4403 21.53L67.0869 19.54L65.3941 18.3101Z" fill="white"/>
<path d="M67.4865 6.79008H65.3941L67.0869 8.01999L66.4403 10.01L68.1331 8.78011L69.8259 10.01L69.1793 8.01999L70.8722 6.79008H68.7797L68.1331 4.80005L67.4865 6.79008Z" fill="white"/>
<path d="M78.6069 31.06L76.9141 29.8301H79.0065L79.6531 27.84L80.2997 29.8301H82.3921L80.6993 31.06L81.3459 33.05L79.6531 31.8201L77.9603 33.05L78.6069 31.06Z" fill="white"/>
<path d="M79.0065 18.3101H76.9141L78.6069 19.54L77.9603 21.53L79.6531 20.3001L81.3459 21.53L80.6993 19.54L82.3921 18.3101H80.2997L79.6531 16.32L79.0065 18.3101Z" fill="white"/>
<path d="M76.9141 6.79008H79.0065L79.6531 4.80005L80.2997 6.79008H82.3921L80.6993 8.01999L81.3459 10.01L79.6531 8.78011L77.9603 10.01L78.6069 8.01998L76.9141 6.79008Z" fill="white"/>
<path d="M30.8341 29.8301L32.5269 31.06L31.8803 33.05L33.5731 31.8201L35.2659 33.05L34.6193 31.06L36.3121 29.8301H34.2197L33.5731 27.84L32.9265 29.8301H30.8341Z" fill="white"/>
<path d="M44.0469 31.06L42.3541 29.8301H44.4465L45.0931 27.84L45.7397 29.8301H47.8321L46.1393 31.06L46.7859 33.05L45.0931 31.8201L43.4003 33.05L44.0469 31.06Z" fill="white"/>
<path d="M44.4465 18.3101H42.3541L44.0469 19.54L43.4003 21.53L45.0931 20.3001L46.7859 21.53L46.1393 19.54L47.8321 18.3101H45.7397L45.0931 16.32L44.4465 18.3101Z" fill="white"/>
</g>
<defs>
<clipPath id="clip0_307_89230">
<rect width="120" height="120" fill="white"/>
</clipPath>
</defs>
</svg>
