<svg width="120" height="120" viewBox="0 0 120 120" fill="none" xmlns="http://www.w3.org/2000/svg">
<circle cx="60" cy="60" r="60" fill="#1E9A1C"/>
<path d="M120 60C120 26.8629 93.1371 0 60 0C26.8629 0 0 26.8629 0 60H120Z" fill="#23748C"/>
<path d="M115.994 81.6C118.582 74.8979 120 67.6146 120 60C120 52.3854 118.582 45.1022 115.994 38.4H4.00554C1.41845 45.1022 0 52.3854 0 60C0 67.6146 1.41846 74.8979 4.00555 81.6H115.994Z" fill="#E23726"/>
<path d="M116.862 79.2C118.897 73.1718 120 66.7147 120 60C120 53.2853 118.897 46.8282 116.862 40.8H3.13774C1.10302 46.8282 0 53.2853 0 60C0 66.7147 1.10301 73.1718 3.13773 79.2H116.862Z" fill="white"/>
<path d="M11.5698 24.5741C12.7533 22.9589 14.0157 21.4051 15.3512 19.9184C15.6858 26.7297 20.753 32.2969 27.3336 33.4009C26.5531 33.5319 25.7513 33.6 24.9336 33.6C18.8804 33.6 13.6995 29.8651 11.5698 24.5741Z" fill="white"/>
<path d="M55.5674 31.06L53.8745 29.8301H55.967L56.6136 27.84L57.2602 29.8301H59.3526L57.6598 31.06L58.3064 33.05L56.6136 31.8201L54.9208 33.05L55.5674 31.06Z" fill="white"/>
<path d="M55.967 18.3101H53.8745L55.5674 19.54L54.9208 21.53L56.6136 20.3001L58.3064 21.53L57.6598 19.54L59.3526 18.3101H57.2602L56.6136 16.32L55.967 18.3101Z" fill="white"/>
<path d="M53.8745 6.79008H55.967L56.6136 4.80005L57.2602 6.79008H59.3526L57.6598 8.01999L58.3064 10.01L56.6136 8.78011L54.9208 10.01L55.5674 8.01999L53.8745 6.79008Z" fill="white"/>
<path d="M65.3946 29.8301L67.0874 31.06L66.4408 33.05L68.1336 31.8201L69.8264 33.05L69.1798 31.06L70.8726 29.8301H68.7802L68.1336 27.84L67.487 29.8301H65.3946Z" fill="white"/>
<path d="M65.3946 18.3101H67.487L68.1336 16.32L68.7802 18.3101H70.8726L69.1798 19.54L69.8264 21.53L68.1336 20.3001L66.4408 21.53L67.0874 19.54L65.3946 18.3101Z" fill="white"/>
<path d="M67.487 6.79008H65.3946L67.0874 8.01999L66.4408 10.01L68.1336 8.78011L69.8264 10.01L69.1798 8.01999L70.8726 6.79008H68.7802L68.1336 4.80005L67.487 6.79008Z" fill="white"/>
<path d="M78.6074 31.06L76.9146 29.8301H79.007L79.6536 27.84L80.3002 29.8301H82.3926L80.6998 31.06L81.3464 33.05L79.6536 31.8201L77.9608 33.05L78.6074 31.06Z" fill="white"/>
<path d="M79.007 18.3101H76.9146L78.6074 19.54L77.9608 21.53L79.6536 20.3001L81.3464 21.53L80.6998 19.54L82.3926 18.3101H80.3002L79.6536 16.32L79.007 18.3101Z" fill="white"/>
<path d="M76.9146 6.79008H79.007L79.6536 4.80005L80.3002 6.79008H82.3926L80.6998 8.01999L81.3464 10.01L79.6536 8.78011L77.9608 10.01L78.6074 8.01998L76.9146 6.79008Z" fill="white"/>
<path d="M30.8345 29.8301L32.5274 31.06L31.8808 33.05L33.5736 31.8201L35.2664 33.05L34.6198 31.06L36.3126 29.8301H34.2202L33.5736 27.84L32.927 29.8301H30.8345Z" fill="white"/>
<path d="M44.0474 31.06L42.3545 29.8301H44.447L45.0936 27.84L45.7402 29.8301H47.8326L46.1398 31.06L46.7864 33.05L45.0936 31.8201L43.4008 33.05L44.0474 31.06Z" fill="white"/>
<path d="M44.447 18.3101H42.3545L44.0474 19.54L43.4008 21.53L45.0936 20.3001L46.7864 21.53L46.1398 19.54L47.8326 18.3101H45.7402L45.0936 16.32L44.447 18.3101Z" fill="white"/>
</svg>
