<svg width="121" height="120" viewBox="0 0 121 120" fill="none" xmlns="http://www.w3.org/2000/svg">
<g clip-path="url(#clip0_307_88620)">
<circle cx="60.4551" cy="60" r="60" fill="#FDD406"/>
<path d="M30.4551 111.973C12.521 101.599 0.455078 82.2085 0.455078 60C0.455078 37.7916 12.521 18.4013 30.4551 8.02698V111.973Z" fill="#0F3296"/>
<path d="M90.4551 111.973C108.389 101.599 120.455 82.2085 120.455 60C120.455 37.7916 108.389 18.4013 90.4551 8.02698V111.973Z" fill="#1E9A1C"/>
<path d="M57.9551 58.4564L46.7051 38.9714L35.4551 58.4564L46.7051 77.9422L57.9551 58.4564Z" fill="#1E9A1C"/>
<path d="M84.9551 58.4564L73.7051 38.9714L62.4551 58.4564L73.7051 77.9422L84.9551 58.4564Z" fill="#1E9A1C"/>
<path d="M71.4551 81.8392L60.2051 62.3534L48.9551 81.8392L60.2051 101.325L71.4551 81.8392Z" fill="#1E9A1C"/>
</g>
<defs>
<clipPath id="clip0_307_88620">
<rect width="120" height="120" fill="white" transform="translate(0.455078)"/>
</clipPath>
</defs>
</svg>
